<svg xmlns="http://www.w3.org/2000/svg" width="3300" height="2200" fill="none"><path fill="#E5E5E5" d="M0 0h3300v2200H0z"/><g id="System / Outline / QR Code" clip-path="url(#clip0_805_27002)"><g id="Notes"><path id="artboard" fill="#fff" d="M3300 0H0v2200h3300V0Z"/><path id="Vector" stroke="#000" stroke-width=".5" d="M263 292h2773"/><text xml:space="preserve" id="Weight/Scale Variations" fill="#000" font-family="Roboto" font-size="12" letter-spacing="0em" style="white-space:pre"><tspan x="263" y="321.102">Weight/Scale Variations</tspan></text><text xml:space="preserve" id="Ultralight" fill="#000" font-family="Roboto" font-size="12" letter-spacing="0em" style="white-space:pre"><tspan x="535.211" y="321.102">Ultralight</tspan></text><text xml:space="preserve" id="Thin" fill="#000" font-family="Roboto" font-size="12" letter-spacing="0em" style="white-space:pre"><tspan x="844.422" y="321.102">Thin</tspan></text><text xml:space="preserve" id="Light" fill="#000" font-family="Roboto" font-size="12" letter-spacing="0em" style="white-space:pre"><tspan x="1139.63" y="321.102">Light</tspan></text><text xml:space="preserve" id="Regular" fill="#000" font-family="Roboto" font-size="12" letter-spacing="0em" style="white-space:pre"><tspan x="1429.34" y="321.102">Regular</tspan></text><text xml:space="preserve" id="Medium" fill="#000" font-family="Roboto" font-size="12" letter-spacing="0em" style="white-space:pre"><tspan x="1724.56" y="321.102">Medium</tspan></text><text xml:space="preserve" id="Semibold" fill="#000" font-family="Roboto" font-size="12" letter-spacing="0em" style="white-space:pre"><tspan x="2017.77" y="321.102">Semibold</tspan></text><text xml:space="preserve" id="Bold" fill="#000" font-family="Roboto" font-size="12" letter-spacing="0em" style="white-space:pre"><tspan x="2327.48" y="321.102">Bold</tspan></text><text xml:space="preserve" id="Heavy" fill="#000" font-family="Roboto" font-size="12" letter-spacing="0em" style="white-space:pre"><tspan x="2620.19" y="321.102">Heavy</tspan></text><text xml:space="preserve" id="Black" fill="#000" font-family="Roboto" font-size="12" letter-spacing="0em" style="white-space:pre"><tspan x="2918.4" y="321.102">Black</tspan></text><path id="Vector_2" stroke="#000" stroke-width=".5" d="M263 1903h2773"/><g id="Group"><path id="Vector_3" fill="#000" d="M272.248 1933.83c4.307 0 7.891-3.57 7.891-7.88 0-4.31-3.594-7.88-7.901-7.88-4.297 0-7.871 3.57-7.871 7.88 0 4.31 3.584 7.88 7.881 7.88Zm0-1.48c-3.545 0-6.377-2.84-6.377-6.4 0-3.55 2.822-6.4 6.367-6.4a6.388 6.388 0 0 1 6.406 6.4 6.361 6.361 0 0 1-6.396 6.4Zm-.019-2.78c.468 0 .742-.31.742-.83v-2.06h2.226c.498 0 .84-.25.84-.72 0-.48-.322-.74-.84-.74h-2.226v-2.23c0-.52-.274-.84-.742-.84-.469 0-.723.34-.723.84v2.23h-2.207c-.518 0-.85.26-.85.74 0 .47.352.72.85.72h2.207v2.06c0 .5.254.83.723.83Z"/></g><g id="Group_2"><path id="Vector_4" fill="#000" d="M293.215 1935.91c5.449 0 9.961-4.51 9.961-9.96 0-5.44-4.522-9.96-9.971-9.96-5.439 0-9.951 4.52-9.951 9.96 0 5.45 4.521 9.96 9.961 9.96Zm0-1.66a8.26 8.26 0 0 1-8.291-8.3c0-4.6 3.672-8.3 8.281-8.3a8.29 8.29 0 0 1 8.311 8.3 8.263 8.263 0 0 1-8.301 8.3Zm-.02-3.66c.518 0 .83-.36.83-.93v-2.89h3.057c.547 0 .928-.28.928-.8 0-.53-.362-.83-.928-.83h-3.057v-3.07c0-.57-.312-.93-.83-.93-.517 0-.81.38-.81.93v3.07h-3.047c-.567 0-.938.3-.938.83 0 .52.391.8.938.8h3.047v2.89c0 .55.293.93.81.93Z"/></g><g id="Group_3"><path id="Vector_5" fill="#000" d="M319.895 1938.67c6.962 0 12.724-5.75 12.724-12.71 0-6.97-5.771-12.72-12.734-12.72-6.953 0-12.705 5.75-12.705 12.72 0 6.96 5.761 12.71 12.715 12.71Zm0-1.81a10.874 10.874 0 0 1-10.889-10.9c0-6.04 4.844-10.9 10.879-10.9 6.045 0 10.898 4.86 10.908 10.9a10.87 10.87 0 0 1-10.898 10.9Zm-.02-4.93c.566 0 .918-.39.918-.99v-4.07h4.238c.586 0 1.006-.34 1.006-.89 0-.58-.39-.92-1.006-.92h-4.238v-4.25c0-.61-.352-1.01-.918-1.01-.566 0-.889.41-.889 1.01v4.25h-4.228c-.615 0-1.026.34-1.026.92 0 .55.43.89 1.026.89h4.228v4.07c0 .58.323.99.889.99Z"/></g><text xml:space="preserve" id="Design Variations" fill="#000" font-family="Roboto" font-size="12" letter-spacing="0em" style="white-space:pre"><tspan x="263" y="1952.1">Design Variations</tspan></text><text xml:space="preserve" id="Symbols are supported in up to nine weights and three scales." fill="#000" font-family="Roboto" font-size="12" letter-spacing="0em" style="white-space:pre"><tspan x="263" y="1970.1">Symbols are supported in up to nine weights and three scales.</tspan></text><text xml:space="preserve" id="For optimal layout with text and other symbols, vertically align" fill="#000" font-family="Roboto" font-size="12" letter-spacing="0em" style="white-space:pre"><tspan x="263" y="1988.1">For optimal layout with text and other symbols, vertically align</tspan></text><text xml:space="preserve" id="symbols with the adjacent text." fill="#000" font-family="Roboto" font-size="12" letter-spacing="0em" style="white-space:pre"><tspan x="263" y="2006.1">symbols with the adjacent text.</tspan></text><path id="Vector_6" fill="#00AEEF" d="M779 1919h-3v14h3v-14Z" opacity=".4"/><g id="Group_4"><path id="Vector_7" fill="#000" d="M789.525 1933h1.846l-5.195-14.09h-1.739l-5.195 14.09h1.846l1.416-4.04h5.605l1.416 4.04Zm-4.248-11.96h.059l2.256 6.43h-4.571l2.256-6.43Z"/></g><path id="Vector_8" fill="#00AEEF" d="M794.617 1919h-3v14h3v-14Z" opacity=".4"/><text xml:space="preserve" id="Margins" fill="#000" font-family="Roboto" font-size="12" letter-spacing="0em" style="white-space:pre"><tspan x="776" y="1952.1">Margins</tspan></text><text xml:space="preserve" id="Leading and trailing margins on the left and right side of each symbol" fill="#000" font-family="Roboto" font-size="12" letter-spacing="0em" style="white-space:pre"><tspan x="776" y="1970.1">Leading and trailing margins on the left and right side of each symbol</tspan></text><text xml:space="preserve" id="can be adjusted by modifying the width of the blue rectangles." fill="#000" font-family="Roboto" font-size="12" letter-spacing="0em" style="white-space:pre"><tspan x="776" y="1988.1">can be adjusted by modifying the width of the blue rectangles.</tspan></text><text xml:space="preserve" id="Modifications are automatically applied proportionally to all" fill="#000" font-family="Roboto" font-size="12" letter-spacing="0em" style="white-space:pre"><tspan x="776" y="2006.1">Modifications are automatically applied proportionally to all</tspan></text><text xml:space="preserve" id="scales and weights." fill="#000" font-family="Roboto" font-size="12" letter-spacing="0em" style="white-space:pre"><tspan x="776" y="2024.1">scales and weights.</tspan></text><g id="Group_5"><path id="Vector_9" fill="#000" d="m1291.83 1936.11 1.54 1.55c.85.83 1.82.76 2.69-.2l10.21-11.12c.43.29.83.28 1.29.18l1.05-.21.69.69-.05.52c-.06.53.1.95.6 1.45l.81.81c.51.5 1.16.53 1.64.05l3.25-3.25c.48-.48.46-1.13-.05-1.64l-.82-.82c-.49-.5-.91-.67-1.44-.59l-.53.05-.65-.66.28-1.14c.15-.57 0-1.04-.63-1.64l-2.41-2.39c-3.54-3.53-8.07-3.42-11.19-.29-.42.43-.47 1.02-.19 1.45.23.37.71.59 1.35.43 1.52-.38 3.03-.27 4.51.74l-.62 1.58c-.23.59-.22 1.07.02 1.5l-11.16 10.28c-.94.87-1.05 1.81-.19 2.67Zm7.84-18.26c2.67-1.99 5.98-1.68 8.38.73l2.63 2.61c.23.24.26.42.2.72l-.38 1.56 1.58 1.57.96-.09c.29-.03.37-.01.6.22l.62.62-2.75 2.75-.63-.62c-.22-.22-.24-.32-.21-.6l.09-.96-1.57-1.56-1.62.31c-.28.06-.43.06-.66-.19l-2.18-2.17c-.22-.24-.25-.38-.12-.7l.94-2.27c-1.6-1.54-3.71-2.39-5.75-1.73-.09.03-.16.01-.19-.03-.02-.05-.02-.1.06-.17Zm-6.57 17.56c-.49-.5-.31-.8.02-1.1l10.96-10.12 1.23 1.23-10.16 10.93c-.3.33-.68.43-1.08.03l-.97-.97Z"/></g><text xml:space="preserve" id="Exporting" fill="#000" font-family="Roboto" font-size="12" letter-spacing="0em" style="white-space:pre"><tspan x="1289" y="1952.1">Exporting</tspan></text><text xml:space="preserve" id="Symbols should be outlined when exporting to ensure the" fill="#000" font-family="Roboto" font-size="12" letter-spacing="0em" style="white-space:pre"><tspan x="1289" y="1970.1">Symbols should be outlined when exporting to ensure the</tspan></text><text xml:space="preserve" id="design is preserved when submitting to Xcode." fill="#000" font-family="Roboto" font-size="12" letter-spacing="0em" style="white-space:pre"><tspan x="1289" y="1988.1">design is preserved when submitting to Xcode.</tspan></text><text xml:space="preserve" id="template-version" fill="#000" font-family="Roboto" font-size="12" letter-spacing="0em" style="white-space:pre"><tspan x="2958" y="1932.1">Template v.1.0</tspan></text><text xml:space="preserve" id="Generated from pencil.circle" fill="#000" font-family="Roboto" font-size="12" letter-spacing="0em" style="white-space:pre"><tspan x="2885" y="1950.1">Generated from pencil.circle</tspan></text><text xml:space="preserve" id="Typeset at 100 points" fill="#000" font-family="Roboto" font-size="12" letter-spacing="0em" style="white-space:pre"><tspan x="2921" y="1968.1">Typeset at 100 points</tspan></text><text xml:space="preserve" id="Small" fill="#000" font-family="Roboto" font-size="12" letter-spacing="0em" style="white-space:pre"><tspan x="263" y="725.102">Small</tspan></text><text xml:space="preserve" id="Medium_2" fill="#000" font-family="Roboto" font-size="12" letter-spacing="0em" style="white-space:pre"><tspan x="263" y="1155.1">Medium</tspan></text><text xml:space="preserve" id="Large" fill="#000" font-family="Roboto" font-size="12" letter-spacing="0em" style="white-space:pre"><tspan x="263" y="1585.1">Large</tspan></text></g><g id="Guides"><g id="H-reference"><path id="Vector_10" fill="#27AAE1" d="M393.932 695.998h2.734l-27.1-70.459h-2.49l-27.099 70.459h2.685l9.278-24.463h32.763l9.229 24.463Zm-25.733-67.09h.244l15.381 40.381h-31.006l15.381-40.381Z"/></g><path id="Baseline-S" stroke="#27AAE1" stroke-width=".577" d="M263 696h2773"/><path id="Capline-S" stroke="#27AAE1" stroke-width=".577" d="M263 626h2773"/><g id="H-reference_2"><path id="Vector_11" fill="#27AAE1" d="M393.932 1126h2.734l-27.1-70.46h-2.49L339.977 1126h2.685l9.278-24.46h32.763l9.229 24.46Zm-25.733-67.09h.244l15.381 40.38h-31.006l15.381-40.38Z"/></g><path id="Baseline-M" stroke="#27AAE1" stroke-width=".577" d="M263 1126h2773"/><path id="Capline-M" stroke="#27AAE1" stroke-width=".577" d="M263 1056h2773"/><g id="H-reference_3"><path id="Vector_12" fill="#27AAE1" d="M393.932 1556h2.734l-27.1-70.46h-2.49L339.977 1556h2.685l9.278-24.46h32.763l9.229 24.46Zm-25.733-67.09h.244l15.381 40.38h-31.006l15.381-40.38Z"/></g><g id="Group 1" stroke="#27AAE1" stroke-width=".577"><path id="Baseline-L" d="M263 1556h2773"/><path id="Capline-L" d="M263 1486h2773"/></g><path id="left-margin" fill="#00AEEF" d="M1390.04 1030.79h-8.74v119.33h8.74v-119.33Z" opacity=".4"/><path id="right-margin" fill="#00AEEF" d="M1516.39 1030.79h-8.74v119.33h8.74v-119.33Z" opacity=".4"/></g><g id="Symbols"><g id="Black-L"><g id="Outline / QR Code Outline"><g id="Shape" fill="#000"><path d="M2876.5 1446h5.99c2.7 0 4.88 2.18 4.88 4.87 0 2.7-2.18 4.88-4.88 4.88h-5.99c-7.04 0-12.75 5.71-12.75 12.75v5.18a4.88 4.88 0 0 1-4.88 4.88c-2.69 0-4.87-2.19-4.87-4.88v-5.18c0-12.43 10.07-22.5 22.5-22.5ZM2858.87 1563.44c-2.69 0-4.87 2.18-4.87 4.88v5.18c0 12.43 10.07 22.5 22.5 22.5h5.99c2.7 0 4.88-2.18 4.88-4.88 0-2.69-2.18-4.87-4.88-4.87h-5.99c-7.04 0-12.75-5.71-12.75-12.75v-5.18c0-2.7-2.18-4.88-4.88-4.88ZM2999.12 1563.44c-2.69 0-4.87 2.18-4.87 4.88v5.18c0 7.04-5.71 12.75-12.75 12.75h-4.37c-2.69 0-4.88 2.18-4.88 4.87 0 2.7 2.19 4.88 4.88 4.88h4.37c12.43 0 22.5-10.07 22.5-22.5v-5.18c0-2.7-2.18-4.88-4.88-4.88ZM2999.12 1478.56c2.7 0 4.88-2.19 4.88-4.88v-5.18c0-12.43-10.07-22.5-22.5-22.5h-4.37c-2.69 0-4.88 2.18-4.88 4.87 0 2.7 2.19 4.88 4.88 4.88h4.37c7.04 0 12.75 5.71 12.75 12.75v5.18c0 2.69 2.18 4.88 4.87 4.88Z"/><path fill-rule="evenodd" d="M2883.43 1485.18c0-5.38 4.37-9.75 9.75-9.75h20.37c5.39 0 9.75 4.37 9.75 9.75v20.37c0 5.39-4.36 9.75-9.75 9.75h-20.37c-5.38 0-9.75-4.36-9.75-9.75v-20.37Zm9.75 0h20.37v20.37h-20.37v-20.37ZM2883.43 1536.45c0-5.39 4.37-9.75 9.75-9.75h20.37c5.39 0 9.75 4.36 9.75 9.75v20.37c0 5.38-4.36 9.75-9.75 9.75h-20.37c-5.38 0-9.75-4.37-9.75-9.75v-20.37Zm9.75 0h20.37v20.37h-20.37v-20.37Z" clip-rule="evenodd"/><path d="M2964.82 1568.09h-16.5a4.87 4.87 0 0 1-4.87-4.87c0-2.7 2.18-4.88 4.87-4.88h16.5v-17.79c0-2.69 2.18-4.88 4.87-4.88 2.7 0 4.88 2.19 4.88 4.88v17.79c0 5.39-4.37 9.75-9.75 9.75Z"/><path fill-rule="evenodd" d="M2934.69 1485.18c0-5.38 4.37-9.75 9.75-9.75h20.38c5.38 0 9.75 4.37 9.75 9.75v20.37c0 5.39-4.37 9.75-9.75 9.75h-20.38c-5.38 0-9.75-4.36-9.75-9.75v-20.37Zm9.75 0h20.38v20.37h-20.38v-20.37Z" clip-rule="evenodd"/><path d="M2939.57 1526.38a4.87 4.87 0 0 1 4.87 4.87v7.34c0 2.7-2.18 4.88-4.87 4.88a4.88 4.88 0 0 1-4.88-4.88v-7.34c0-2.69 2.19-4.87 4.88-4.87Z"/></g></g></g><g id="Heavy-L"><g id="Outline / QR Code Outline_2"><g id="Shape_2" fill="#000"><path d="M2580.5 1446h5.99c2.7 0 4.88 2.18 4.88 4.87 0 2.7-2.18 4.88-4.88 4.88h-5.99c-7.04 0-12.75 5.71-12.75 12.75v5.18a4.88 4.88 0 0 1-4.88 4.88c-2.69 0-4.87-2.19-4.87-4.88v-5.18c0-12.43 10.07-22.5 22.5-22.5ZM2562.87 1563.44c-2.69 0-4.87 2.18-4.87 4.88v5.18c0 12.43 10.07 22.5 22.5 22.5h5.99c2.7 0 4.88-2.18 4.88-4.88 0-2.69-2.18-4.87-4.88-4.87h-5.99c-7.04 0-12.75-5.71-12.75-12.75v-5.18c0-2.7-2.18-4.88-4.88-4.88ZM2703.12 1563.44c-2.69 0-4.87 2.18-4.87 4.88v5.18c0 7.04-5.71 12.75-12.75 12.75h-4.37c-2.69 0-4.88 2.18-4.88 4.87 0 2.7 2.19 4.88 4.88 4.88h4.37c12.43 0 22.5-10.07 22.5-22.5v-5.18c0-2.7-2.18-4.88-4.88-4.88ZM2703.12 1478.56c2.7 0 4.88-2.19 4.88-4.88v-5.18c0-12.43-10.07-22.5-22.5-22.5h-4.37c-2.69 0-4.88 2.18-4.88 4.87 0 2.7 2.19 4.88 4.88 4.88h4.37c7.04 0 12.75 5.71 12.75 12.75v5.18c0 2.69 2.18 4.88 4.87 4.88Z"/><path fill-rule="evenodd" d="M2587.43 1485.18c0-5.38 4.37-9.75 9.75-9.75h20.37c5.39 0 9.75 4.37 9.75 9.75v20.37c0 5.39-4.36 9.75-9.75 9.75h-20.37c-5.38 0-9.75-4.36-9.75-9.75v-20.37Zm9.75 0h20.37v20.37h-20.37v-20.37ZM2587.43 1536.45c0-5.39 4.37-9.75 9.75-9.75h20.37c5.39 0 9.75 4.36 9.75 9.75v20.37c0 5.38-4.36 9.75-9.75 9.75h-20.37c-5.38 0-9.75-4.37-9.75-9.75v-20.37Zm9.75 0h20.37v20.37h-20.37v-20.37Z" clip-rule="evenodd"/><path d="M2668.82 1568.09h-16.5a4.87 4.87 0 0 1-4.87-4.87c0-2.7 2.18-4.88 4.87-4.88h16.5v-17.79c0-2.69 2.18-4.88 4.87-4.88 2.7 0 4.88 2.19 4.88 4.88v17.79c0 5.39-4.37 9.75-9.75 9.75Z"/><path fill-rule="evenodd" d="M2638.69 1485.18c0-5.38 4.37-9.75 9.75-9.75h20.38c5.38 0 9.75 4.37 9.75 9.75v20.37c0 5.39-4.37 9.75-9.75 9.75h-20.38c-5.38 0-9.75-4.36-9.75-9.75v-20.37Zm9.75 0h20.38v20.37h-20.38v-20.37Z" clip-rule="evenodd"/><path d="M2643.57 1526.38a4.87 4.87 0 0 1 4.87 4.87v7.34c0 2.7-2.18 4.88-4.87 4.88a4.88 4.88 0 0 1-4.88-4.88v-7.34c0-2.69 2.19-4.87 4.88-4.87Z"/></g></g></g><g id="Bold-L"><g id="Outline / QR Code Outline_3"><g id="Shape_3" fill="#000"><path d="M2284.5 1446h5.99c2.7 0 4.88 2.18 4.88 4.87 0 2.7-2.18 4.88-4.88 4.88h-5.99c-7.04 0-12.75 5.71-12.75 12.75v5.18a4.88 4.88 0 0 1-4.88 4.88c-2.69 0-4.87-2.19-4.87-4.88v-5.18c0-12.43 10.07-22.5 22.5-22.5ZM2266.87 1563.44c-2.69 0-4.87 2.18-4.87 4.88v5.18c0 12.43 10.07 22.5 22.5 22.5h5.99c2.7 0 4.88-2.18 4.88-4.88 0-2.69-2.18-4.87-4.88-4.87h-5.99c-7.04 0-12.75-5.71-12.75-12.75v-5.18c0-2.7-2.18-4.88-4.88-4.88ZM2407.12 1563.44c-2.69 0-4.87 2.18-4.87 4.88v5.18c0 7.04-5.71 12.75-12.75 12.75h-4.37c-2.69 0-4.88 2.18-4.88 4.87 0 2.7 2.19 4.88 4.88 4.88h4.37c12.43 0 22.5-10.07 22.5-22.5v-5.18c0-2.7-2.18-4.88-4.88-4.88ZM2407.12 1478.56c2.7 0 4.88-2.19 4.88-4.88v-5.18c0-12.43-10.07-22.5-22.5-22.5h-4.37c-2.69 0-4.88 2.18-4.88 4.87 0 2.7 2.19 4.88 4.88 4.88h4.37c7.04 0 12.75 5.71 12.75 12.75v5.18c0 2.69 2.18 4.88 4.87 4.88Z"/><path fill-rule="evenodd" d="M2291.43 1485.18c0-5.38 4.37-9.75 9.75-9.75h20.37c5.39 0 9.75 4.37 9.75 9.75v20.37c0 5.39-4.36 9.75-9.75 9.75h-20.37c-5.38 0-9.75-4.36-9.75-9.75v-20.37Zm9.75 0h20.37v20.37h-20.37v-20.37ZM2291.43 1536.45c0-5.39 4.37-9.75 9.75-9.75h20.37c5.39 0 9.75 4.36 9.75 9.75v20.37c0 5.38-4.36 9.75-9.75 9.75h-20.37c-5.38 0-9.75-4.37-9.75-9.75v-20.37Zm9.75 0h20.37v20.37h-20.37v-20.37Z" clip-rule="evenodd"/><path d="M2372.82 1568.09h-16.5a4.87 4.87 0 0 1-4.87-4.87c0-2.7 2.18-4.88 4.87-4.88h16.5v-17.79c0-2.69 2.18-4.88 4.87-4.88 2.7 0 4.88 2.19 4.88 4.88v17.79c0 5.39-4.37 9.75-9.75 9.75Z"/><path fill-rule="evenodd" d="M2342.69 1485.18c0-5.38 4.37-9.75 9.75-9.75h20.38c5.38 0 9.75 4.37 9.75 9.75v20.37c0 5.39-4.37 9.75-9.75 9.75h-20.38c-5.38 0-9.75-4.36-9.75-9.75v-20.37Zm9.75 0h20.38v20.37h-20.38v-20.37Z" clip-rule="evenodd"/><path d="M2347.57 1526.38a4.87 4.87 0 0 1 4.87 4.87v7.34c0 2.7-2.18 4.88-4.87 4.88a4.88 4.88 0 0 1-4.88-4.88v-7.34c0-2.69 2.19-4.87 4.88-4.87Z"/></g></g></g><g id="Semibold-L"><g id="Outline / QR Code Outline_4"><g id="Shape_4" fill="#000"><path d="M1988.5 1446h5.99c2.7 0 4.88 2.18 4.88 4.87 0 2.7-2.18 4.88-4.88 4.88h-5.99c-7.04 0-12.75 5.71-12.75 12.75v5.18a4.88 4.88 0 0 1-4.88 4.88c-2.69 0-4.87-2.19-4.87-4.88v-5.18c0-12.43 10.07-22.5 22.5-22.5ZM1970.87 1563.44c-2.69 0-4.87 2.18-4.87 4.88v5.18c0 12.43 10.07 22.5 22.5 22.5h5.99c2.7 0 4.88-2.18 4.88-4.88 0-2.69-2.18-4.87-4.88-4.87h-5.99c-7.04 0-12.75-5.71-12.75-12.75v-5.18c0-2.7-2.18-4.88-4.88-4.88ZM2111.12 1563.44c-2.69 0-4.87 2.18-4.87 4.88v5.18c0 7.04-5.71 12.75-12.75 12.75h-4.37c-2.69 0-4.88 2.18-4.88 4.87 0 2.7 2.19 4.88 4.88 4.88h4.37c12.43 0 22.5-10.07 22.5-22.5v-5.18c0-2.7-2.18-4.88-4.88-4.88ZM2111.12 1478.56c2.7 0 4.88-2.19 4.88-4.88v-5.18c0-12.43-10.07-22.5-22.5-22.5h-4.37c-2.69 0-4.88 2.18-4.88 4.87 0 2.7 2.19 4.88 4.88 4.88h4.37c7.04 0 12.75 5.71 12.75 12.75v5.18c0 2.69 2.18 4.88 4.87 4.88Z"/><path fill-rule="evenodd" d="M1995.43 1485.18c0-5.38 4.37-9.75 9.75-9.75h20.37c5.39 0 9.75 4.37 9.75 9.75v20.37c0 5.39-4.36 9.75-9.75 9.75h-20.37c-5.38 0-9.75-4.36-9.75-9.75v-20.37Zm9.75 0h20.37v20.37h-20.37v-20.37ZM1995.43 1536.45c0-5.39 4.37-9.75 9.75-9.75h20.37c5.39 0 9.75 4.36 9.75 9.75v20.37c0 5.38-4.36 9.75-9.75 9.75h-20.37c-5.38 0-9.75-4.37-9.75-9.75v-20.37Zm9.75 0h20.37v20.37h-20.37v-20.37Z" clip-rule="evenodd"/><path d="M2076.82 1568.09h-16.5a4.87 4.87 0 0 1-4.87-4.87c0-2.7 2.18-4.88 4.87-4.88h16.5v-17.79c0-2.69 2.18-4.88 4.87-4.88 2.7 0 4.88 2.19 4.88 4.88v17.79c0 5.39-4.37 9.75-9.75 9.75Z"/><path fill-rule="evenodd" d="M2046.69 1485.18c0-5.38 4.37-9.75 9.75-9.75h20.38c5.38 0 9.75 4.37 9.75 9.75v20.37c0 5.39-4.37 9.75-9.75 9.75h-20.38c-5.38 0-9.75-4.36-9.75-9.75v-20.37Zm9.75 0h20.38v20.37h-20.38v-20.37Z" clip-rule="evenodd"/><path d="M2051.57 1526.38a4.87 4.87 0 0 1 4.87 4.87v7.34c0 2.7-2.18 4.88-4.87 4.88a4.88 4.88 0 0 1-4.88-4.88v-7.34c0-2.69 2.19-4.87 4.88-4.87Z"/></g></g></g><g id="Medium-L"><g id="Outline / QR Code Outline_5"><g id="Shape_5" fill="#000"><path d="M1692.5 1446h5.99c2.7 0 4.88 2.18 4.88 4.87 0 2.7-2.18 4.88-4.88 4.88h-5.99c-7.04 0-12.75 5.71-12.75 12.75v5.18a4.88 4.88 0 0 1-4.88 4.88c-2.69 0-4.87-2.19-4.87-4.88v-5.18c0-12.43 10.07-22.5 22.5-22.5ZM1674.87 1563.44c-2.69 0-4.87 2.18-4.87 4.88v5.18c0 12.43 10.07 22.5 22.5 22.5h5.99c2.7 0 4.88-2.18 4.88-4.88 0-2.69-2.18-4.87-4.88-4.87h-5.99c-7.04 0-12.75-5.71-12.75-12.75v-5.18c0-2.7-2.18-4.88-4.88-4.88ZM1815.12 1563.44c-2.69 0-4.87 2.18-4.87 4.88v5.18c0 7.04-5.71 12.75-12.75 12.75h-4.37c-2.69 0-4.88 2.18-4.88 4.87 0 2.7 2.19 4.88 4.88 4.88h4.37c12.43 0 22.5-10.07 22.5-22.5v-5.18c0-2.7-2.18-4.88-4.88-4.88ZM1815.12 1478.56c2.7 0 4.88-2.19 4.88-4.88v-5.18c0-12.43-10.07-22.5-22.5-22.5h-4.37c-2.69 0-4.88 2.18-4.88 4.87 0 2.7 2.19 4.88 4.88 4.88h4.37c7.04 0 12.75 5.71 12.75 12.75v5.18c0 2.69 2.18 4.88 4.87 4.88Z"/><path fill-rule="evenodd" d="M1699.43 1485.18c0-5.38 4.37-9.75 9.75-9.75h20.37c5.39 0 9.75 4.37 9.75 9.75v20.37c0 5.39-4.36 9.75-9.75 9.75h-20.37c-5.38 0-9.75-4.36-9.75-9.75v-20.37Zm9.75 0h20.37v20.37h-20.37v-20.37ZM1699.43 1536.45c0-5.39 4.37-9.75 9.75-9.75h20.37c5.39 0 9.75 4.36 9.75 9.75v20.37c0 5.38-4.36 9.75-9.75 9.75h-20.37c-5.38 0-9.75-4.37-9.75-9.75v-20.37Zm9.75 0h20.37v20.37h-20.37v-20.37Z" clip-rule="evenodd"/><path d="M1780.82 1568.09h-16.5a4.87 4.87 0 0 1-4.87-4.87c0-2.7 2.18-4.88 4.87-4.88h16.5v-17.79c0-2.69 2.18-4.88 4.87-4.88 2.7 0 4.88 2.19 4.88 4.88v17.79c0 5.39-4.37 9.75-9.75 9.75Z"/><path fill-rule="evenodd" d="M1750.69 1485.18c0-5.38 4.37-9.75 9.75-9.75h20.38c5.38 0 9.75 4.37 9.75 9.75v20.37c0 5.39-4.37 9.75-9.75 9.75h-20.38c-5.38 0-9.75-4.36-9.75-9.75v-20.37Zm9.75 0h20.38v20.37h-20.38v-20.37Z" clip-rule="evenodd"/><path d="M1755.57 1526.38a4.87 4.87 0 0 1 4.87 4.87v7.34c0 2.7-2.18 4.88-4.87 4.88a4.88 4.88 0 0 1-4.88-4.88v-7.34c0-2.69 2.19-4.87 4.88-4.87Z"/></g></g></g><g id="Regular-L"><g id="Outline / QR Code Outline_6"><g id="Shape_6" fill="#000"><path d="M1396.5 1446h5.99c2.7 0 4.88 2.18 4.88 4.87 0 2.7-2.18 4.88-4.88 4.88h-5.99c-7.04 0-12.75 5.71-12.75 12.75v5.18a4.88 4.88 0 0 1-4.88 4.88c-2.69 0-4.87-2.19-4.87-4.88v-5.18c0-12.43 10.07-22.5 22.5-22.5ZM1378.87 1563.44c-2.69 0-4.87 2.18-4.87 4.88v5.18c0 12.43 10.07 22.5 22.5 22.5h5.99c2.7 0 4.88-2.18 4.88-4.88 0-2.69-2.18-4.87-4.88-4.87h-5.99c-7.04 0-12.75-5.71-12.75-12.75v-5.18c0-2.7-2.18-4.88-4.88-4.88ZM1519.12 1563.44c-2.69 0-4.87 2.18-4.87 4.88v5.18c0 7.04-5.71 12.75-12.75 12.75h-4.37c-2.69 0-4.88 2.18-4.88 4.87 0 2.7 2.19 4.88 4.88 4.88h4.37c12.43 0 22.5-10.07 22.5-22.5v-5.18c0-2.7-2.18-4.88-4.88-4.88ZM1519.12 1478.56c2.7 0 4.88-2.19 4.88-4.88v-5.18c0-12.43-10.07-22.5-22.5-22.5h-4.37c-2.69 0-4.88 2.18-4.88 4.87 0 2.7 2.19 4.88 4.88 4.88h4.37c7.04 0 12.75 5.71 12.75 12.75v5.18c0 2.69 2.18 4.88 4.87 4.88Z"/><path fill-rule="evenodd" d="M1403.43 1485.18c0-5.38 4.37-9.75 9.75-9.75h20.37c5.39 0 9.75 4.37 9.75 9.75v20.37c0 5.39-4.36 9.75-9.75 9.75h-20.37c-5.38 0-9.75-4.36-9.75-9.75v-20.37Zm9.75 0h20.37v20.37h-20.37v-20.37ZM1403.43 1536.45c0-5.39 4.37-9.75 9.75-9.75h20.37c5.39 0 9.75 4.36 9.75 9.75v20.37c0 5.38-4.36 9.75-9.75 9.75h-20.37c-5.38 0-9.75-4.37-9.75-9.75v-20.37Zm9.75 0h20.37v20.37h-20.37v-20.37Z" clip-rule="evenodd"/><path d="M1484.82 1568.09h-16.5a4.87 4.87 0 0 1-4.87-4.87c0-2.7 2.18-4.88 4.87-4.88h16.5v-17.79c0-2.69 2.18-4.88 4.87-4.88 2.7 0 4.88 2.19 4.88 4.88v17.79c0 5.39-4.37 9.75-9.75 9.75Z"/><path fill-rule="evenodd" d="M1454.69 1485.18c0-5.38 4.37-9.75 9.75-9.75h20.38c5.38 0 9.75 4.37 9.75 9.75v20.37c0 5.39-4.37 9.75-9.75 9.75h-20.38c-5.38 0-9.75-4.36-9.75-9.75v-20.37Zm9.75 0h20.38v20.37h-20.38v-20.37Z" clip-rule="evenodd"/><path d="M1459.57 1526.38a4.87 4.87 0 0 1 4.87 4.87v7.34c0 2.7-2.18 4.88-4.87 4.88a4.88 4.88 0 0 1-4.88-4.88v-7.34c0-2.69 2.19-4.87 4.88-4.87Z"/></g></g></g><g id="Light-L"><g id="Outline / QR Code Outline_7"><g id="Shape_7" fill="#000"><path d="M1100.5 1446h5.99c2.7 0 4.88 2.18 4.88 4.87 0 2.7-2.18 4.88-4.88 4.88h-5.99c-7.04 0-12.75 5.71-12.75 12.75v5.18a4.88 4.88 0 0 1-4.88 4.88c-2.69 0-4.87-2.19-4.87-4.88v-5.18c0-12.43 10.07-22.5 22.5-22.5ZM1082.87 1563.44c-2.69 0-4.87 2.18-4.87 4.88v5.18c0 12.43 10.07 22.5 22.5 22.5h5.99c2.7 0 4.88-2.18 4.88-4.88 0-2.69-2.18-4.87-4.88-4.87h-5.99c-7.04 0-12.75-5.71-12.75-12.75v-5.18c0-2.7-2.18-4.88-4.88-4.88ZM1223.12 1563.44c-2.69 0-4.87 2.18-4.87 4.88v5.18c0 7.04-5.71 12.75-12.75 12.75h-4.37c-2.69 0-4.88 2.18-4.88 4.87 0 2.7 2.19 4.88 4.88 4.88h4.37c12.43 0 22.5-10.07 22.5-22.5v-5.18c0-2.7-2.18-4.88-4.88-4.88ZM1223.12 1478.56c2.7 0 4.88-2.19 4.88-4.88v-5.18c0-12.43-10.07-22.5-22.5-22.5h-4.37c-2.69 0-4.88 2.18-4.88 4.87 0 2.7 2.19 4.88 4.88 4.88h4.37c7.04 0 12.75 5.71 12.75 12.75v5.18c0 2.69 2.18 4.88 4.87 4.88Z"/><path fill-rule="evenodd" d="M1107.43 1485.18c0-5.38 4.37-9.75 9.75-9.75h20.37c5.39 0 9.75 4.37 9.75 9.75v20.37c0 5.39-4.36 9.75-9.75 9.75h-20.37c-5.38 0-9.75-4.36-9.75-9.75v-20.37Zm9.75 0h20.37v20.37h-20.37v-20.37ZM1107.43 1536.45c0-5.39 4.37-9.75 9.75-9.75h20.37c5.39 0 9.75 4.36 9.75 9.75v20.37c0 5.38-4.36 9.75-9.75 9.75h-20.37c-5.38 0-9.75-4.37-9.75-9.75v-20.37Zm9.75 0h20.37v20.37h-20.37v-20.37Z" clip-rule="evenodd"/><path d="M1188.82 1568.09h-16.5a4.87 4.87 0 0 1-4.87-4.87c0-2.7 2.18-4.88 4.87-4.88h16.5v-17.79c0-2.69 2.18-4.88 4.87-4.88 2.7 0 4.88 2.19 4.88 4.88v17.79c0 5.39-4.37 9.75-9.75 9.75Z"/><path fill-rule="evenodd" d="M1158.69 1485.18c0-5.38 4.37-9.75 9.75-9.75h20.38c5.38 0 9.75 4.37 9.75 9.75v20.37c0 5.39-4.37 9.75-9.75 9.75h-20.38c-5.38 0-9.75-4.36-9.75-9.75v-20.37Zm9.75 0h20.38v20.37h-20.38v-20.37Z" clip-rule="evenodd"/><path d="M1163.57 1526.38a4.87 4.87 0 0 1 4.87 4.87v7.34c0 2.7-2.18 4.88-4.87 4.88a4.88 4.88 0 0 1-4.88-4.88v-7.34c0-2.69 2.19-4.87 4.88-4.87Z"/></g></g></g><g id="Thin-L"><g id="Outline / QR Code Outline_8"><g id="Shape_8" fill="#000"><path d="M804.5 1446h5.995a4.873 4.873 0 0 1 4.875 4.87c0 2.7-2.183 4.88-4.875 4.88H804.5c-7.042 0-12.75 5.71-12.75 12.75v5.18c0 2.69-2.183 4.88-4.875 4.88a4.881 4.881 0 0 1-4.875-4.88v-5.18c0-12.43 10.074-22.5 22.5-22.5ZM786.875 1563.44a4.875 4.875 0 0 0-4.875 4.88v5.18c0 12.43 10.074 22.5 22.5 22.5h5.995a4.875 4.875 0 0 0 4.875-4.88c0-2.69-2.183-4.87-4.875-4.87H804.5c-7.042 0-12.75-5.71-12.75-12.75v-5.18c0-2.7-2.183-4.88-4.875-4.88ZM927.125 1563.44a4.875 4.875 0 0 0-4.875 4.88v5.18c0 7.04-5.708 12.75-12.75 12.75h-4.371a4.873 4.873 0 0 0-4.875 4.87c0 2.7 2.183 4.88 4.875 4.88h4.371c12.426 0 22.5-10.07 22.5-22.5v-5.18c0-2.7-2.183-4.88-4.875-4.88ZM927.125 1478.56a4.881 4.881 0 0 0 4.875-4.88v-5.18c0-12.43-10.074-22.5-22.5-22.5h-4.371a4.873 4.873 0 0 0-4.875 4.87c0 2.7 2.183 4.88 4.875 4.88h4.371c7.042 0 12.75 5.71 12.75 12.75v5.18c0 2.69 2.183 4.88 4.875 4.88Z"/><path fill-rule="evenodd" d="M811.432 1485.18c0-5.38 4.366-9.75 9.75-9.75h20.372c5.385 0 9.75 4.37 9.75 9.75v20.37c0 5.39-4.365 9.75-9.75 9.75h-20.372a9.747 9.747 0 0 1-9.75-9.75v-20.37Zm9.75 0h20.372v20.37h-20.372v-20.37ZM811.432 1536.45c0-5.39 4.366-9.75 9.75-9.75h20.372c5.385 0 9.75 4.36 9.75 9.75v20.37c0 5.38-4.365 9.75-9.75 9.75h-20.372c-5.384 0-9.75-4.37-9.75-9.75v-20.37Zm9.75 0h20.372v20.37h-20.372v-20.37Z" clip-rule="evenodd"/><path d="M892.818 1568.09h-16.495a4.873 4.873 0 0 1-4.875-4.87c0-2.7 2.183-4.88 4.875-4.88h16.495v-17.79a4.88 4.88 0 0 1 4.875-4.88 4.881 4.881 0 0 1 4.875 4.88v17.79c0 5.39-4.366 9.75-9.75 9.75Z"/><path fill-rule="evenodd" d="M862.695 1485.18c0-5.38 4.365-9.75 9.75-9.75h20.371c5.385 0 9.75 4.37 9.75 9.75v20.37c0 5.39-4.365 9.75-9.75 9.75h-20.371a9.747 9.747 0 0 1-9.75-9.75v-20.37Zm9.75 0h20.371v20.37h-20.371v-20.37Z" clip-rule="evenodd"/><path d="M867.568 1526.38a4.873 4.873 0 0 1 4.875 4.87v7.34a4.875 4.875 0 1 1-9.75 0v-7.34c0-2.69 2.183-4.87 4.875-4.87Z"/></g></g></g><g id="Ultralight-L"><g id="Outline / QR Code Outline_9"><g id="Shape_9" fill="#000"><path d="M508.5 1446h5.995a4.873 4.873 0 0 1 4.875 4.87c0 2.7-2.183 4.88-4.875 4.88H508.5c-7.042 0-12.75 5.71-12.75 12.75v5.18c0 2.69-2.183 4.88-4.875 4.88a4.881 4.881 0 0 1-4.875-4.88v-5.18c0-12.43 10.074-22.5 22.5-22.5ZM490.875 1563.44a4.875 4.875 0 0 0-4.875 4.88v5.18c0 12.43 10.074 22.5 22.5 22.5h5.995a4.875 4.875 0 0 0 4.875-4.88c0-2.69-2.183-4.87-4.875-4.87H508.5c-7.042 0-12.75-5.71-12.75-12.75v-5.18c0-2.7-2.183-4.88-4.875-4.88ZM631.125 1563.44a4.875 4.875 0 0 0-4.875 4.88v5.18c0 7.04-5.708 12.75-12.75 12.75h-4.371a4.873 4.873 0 0 0-4.875 4.87c0 2.7 2.183 4.88 4.875 4.88h4.371c12.426 0 22.5-10.07 22.5-22.5v-5.18c0-2.7-2.183-4.88-4.875-4.88ZM631.125 1478.56a4.881 4.881 0 0 0 4.875-4.88v-5.18c0-12.43-10.074-22.5-22.5-22.5h-4.371a4.873 4.873 0 0 0-4.875 4.87c0 2.7 2.183 4.88 4.875 4.88h4.371c7.042 0 12.75 5.71 12.75 12.75v5.18c0 2.69 2.183 4.88 4.875 4.88Z"/><path fill-rule="evenodd" d="M515.432 1485.18c0-5.38 4.366-9.75 9.75-9.75h20.372c5.385 0 9.75 4.37 9.75 9.75v20.37c0 5.39-4.365 9.75-9.75 9.75h-20.372a9.747 9.747 0 0 1-9.75-9.75v-20.37Zm9.75 0h20.372v20.37h-20.372v-20.37ZM515.432 1536.45c0-5.39 4.366-9.75 9.75-9.75h20.372c5.385 0 9.75 4.36 9.75 9.75v20.37c0 5.38-4.365 9.75-9.75 9.75h-20.372c-5.384 0-9.75-4.37-9.75-9.75v-20.37Zm9.75 0h20.372v20.37h-20.372v-20.37Z" clip-rule="evenodd"/><path d="M596.818 1568.09h-16.495a4.873 4.873 0 0 1-4.875-4.87c0-2.7 2.183-4.88 4.875-4.88h16.495v-17.79a4.88 4.88 0 0 1 4.875-4.88 4.881 4.881 0 0 1 4.875 4.88v17.79c0 5.39-4.366 9.75-9.75 9.75Z"/><path fill-rule="evenodd" d="M566.695 1485.18c0-5.38 4.365-9.75 9.75-9.75h20.371c5.385 0 9.75 4.37 9.75 9.75v20.37c0 5.39-4.365 9.75-9.75 9.75h-20.371a9.747 9.747 0 0 1-9.75-9.75v-20.37Zm9.75 0h20.371v20.37h-20.371v-20.37Z" clip-rule="evenodd"/><path d="M571.568 1526.38a4.873 4.873 0 0 1 4.875 4.87v7.34a4.875 4.875 0 1 1-9.75 0v-7.34c0-2.69 2.183-4.87 4.875-4.87Z"/></g></g></g><g id="Black-M"><g id="Outline / QR Code Outline_10"><g id="Shape_10" fill="#000"><path d="M2888.17 1032.67h4.66c2.09 0 3.79 1.7 3.79 3.79s-1.7 3.79-3.79 3.79h-4.66c-5.48 0-9.92 4.44-9.92 9.92v4.03c0 2.09-1.7 3.79-3.79 3.79-2.1 0-3.79-1.7-3.79-3.79v-4.03c0-9.67 7.83-17.5 17.5-17.5ZM2874.46 1124.01c-2.1 0-3.79 1.7-3.79 3.79v4.03c0 9.67 7.83 17.5 17.5 17.5h4.66c2.09 0 3.79-1.69 3.79-3.79 0-2.09-1.7-3.79-3.79-3.79h-4.66c-5.48 0-9.92-4.44-9.92-9.92v-4.03c0-2.09-1.7-3.79-3.79-3.79ZM2983.54 1124.01c-2.09 0-3.79 1.7-3.79 3.79v4.03c0 5.48-4.44 9.92-9.92 9.92h-3.4c-2.09 0-3.79 1.7-3.79 3.79 0 2.1 1.7 3.79 3.79 3.79h3.4c9.67 0 17.5-7.83 17.5-17.5v-4.03c0-2.09-1.69-3.79-3.79-3.79ZM2983.54 1057.99c2.1 0 3.79-1.7 3.79-3.79v-4.03c0-9.67-7.83-17.5-17.5-17.5h-3.4c-2.09 0-3.79 1.7-3.79 3.79s1.7 3.79 3.79 3.79h3.4c5.48 0 9.92 4.44 9.92 9.92v4.03c0 2.09 1.7 3.79 3.79 3.79Z"/><path fill-rule="evenodd" d="M2893.56 1063.14c0-4.18 3.39-7.58 7.58-7.58h15.85c4.18 0 7.58 3.4 7.58 7.58v15.85c0 4.19-3.4 7.58-7.58 7.58h-15.85c-4.19 0-7.58-3.39-7.58-7.58v-15.85Zm7.58 0h15.85v15.85h-15.85v-15.85ZM2893.56 1103.01c0-4.18 3.39-7.58 7.58-7.58h15.85c4.18 0 7.58 3.4 7.58 7.58v15.85c0 4.19-3.4 7.58-7.58 7.58h-15.85c-4.19 0-7.58-3.39-7.58-7.58v-15.85Zm7.58 0h15.85v15.85h-15.85v-15.85Z" clip-rule="evenodd"/><path d="M2956.86 1127.63h-12.83c-2.1 0-3.79-1.7-3.79-3.79 0-2.1 1.69-3.8 3.79-3.8h12.83v-13.84c0-2.09 1.7-3.79 3.79-3.79s3.79 1.7 3.79 3.79v13.84c0 4.19-3.39 7.59-7.58 7.59Z"/><path fill-rule="evenodd" d="M2933.43 1063.14c0-4.18 3.39-7.58 7.58-7.58h15.85c4.18 0 7.58 3.4 7.58 7.58v15.85c0 4.19-3.4 7.58-7.58 7.58h-15.85c-4.19 0-7.58-3.39-7.58-7.58v-15.85Zm7.58 0h15.85v15.85h-15.85v-15.85Z" clip-rule="evenodd"/><path d="M2937.22 1095.18c2.09 0 3.79 1.7 3.79 3.79v5.72c0 2.09-1.7 3.79-3.79 3.79-2.1 0-3.79-1.7-3.79-3.79v-5.72c0-2.09 1.69-3.79 3.79-3.79Z"/></g></g></g><g id="Heavy-M"><g id="Outline / QR Code Outline_11"><g id="Shape_11" fill="#000"><path d="M2592.17 1032.67h4.66c2.09 0 3.79 1.7 3.79 3.79s-1.7 3.79-3.79 3.79h-4.66c-5.48 0-9.92 4.44-9.92 9.92v4.03c0 2.09-1.7 3.79-3.79 3.79-2.1 0-3.79-1.7-3.79-3.79v-4.03c0-9.67 7.83-17.5 17.5-17.5ZM2578.46 1124.01c-2.1 0-3.79 1.7-3.79 3.79v4.03c0 9.67 7.83 17.5 17.5 17.5h4.66c2.09 0 3.79-1.69 3.79-3.79 0-2.09-1.7-3.79-3.79-3.79h-4.66c-5.48 0-9.92-4.44-9.92-9.92v-4.03c0-2.09-1.7-3.79-3.79-3.79ZM2687.54 1124.01c-2.09 0-3.79 1.7-3.79 3.79v4.03c0 5.48-4.44 9.92-9.92 9.92h-3.4c-2.09 0-3.79 1.7-3.79 3.79 0 2.1 1.7 3.79 3.79 3.79h3.4c9.67 0 17.5-7.83 17.5-17.5v-4.03c0-2.09-1.69-3.79-3.79-3.79ZM2687.54 1057.99c2.1 0 3.79-1.7 3.79-3.79v-4.03c0-9.67-7.83-17.5-17.5-17.5h-3.4c-2.09 0-3.79 1.7-3.79 3.79s1.7 3.79 3.79 3.79h3.4c5.48 0 9.92 4.44 9.92 9.92v4.03c0 2.09 1.7 3.79 3.79 3.79Z"/><path fill-rule="evenodd" d="M2597.56 1063.14c0-4.18 3.39-7.58 7.58-7.58h15.85c4.18 0 7.58 3.4 7.58 7.58v15.85c0 4.19-3.4 7.58-7.58 7.58h-15.85c-4.19 0-7.58-3.39-7.58-7.58v-15.85Zm7.58 0h15.85v15.85h-15.85v-15.85ZM2597.56 1103.01c0-4.18 3.39-7.58 7.58-7.58h15.85c4.18 0 7.58 3.4 7.58 7.58v15.85c0 4.19-3.4 7.58-7.58 7.58h-15.85c-4.19 0-7.58-3.39-7.58-7.58v-15.85Zm7.58 0h15.85v15.85h-15.85v-15.85Z" clip-rule="evenodd"/><path d="M2660.86 1127.63h-12.83c-2.1 0-3.79-1.7-3.79-3.79 0-2.1 1.69-3.8 3.79-3.8h12.83v-13.84c0-2.09 1.7-3.79 3.79-3.79s3.79 1.7 3.79 3.79v13.84c0 4.19-3.39 7.59-7.58 7.59Z"/><path fill-rule="evenodd" d="M2637.43 1063.14c0-4.18 3.39-7.58 7.58-7.58h15.85c4.18 0 7.58 3.4 7.58 7.58v15.85c0 4.19-3.4 7.58-7.58 7.58h-15.85c-4.19 0-7.58-3.39-7.58-7.58v-15.85Zm7.58 0h15.85v15.85h-15.85v-15.85Z" clip-rule="evenodd"/><path d="M2641.22 1095.18c2.09 0 3.79 1.7 3.79 3.79v5.72c0 2.09-1.7 3.79-3.79 3.79-2.1 0-3.79-1.7-3.79-3.79v-5.72c0-2.09 1.69-3.79 3.79-3.79Z"/></g></g></g><g id="Bold-M"><g id="Outline / QR Code Outline_12"><g id="Shape_12" fill="#000"><path d="M2296.17 1032.67h4.66c2.09 0 3.79 1.7 3.79 3.79s-1.7 3.79-3.79 3.79h-4.66c-5.48 0-9.92 4.44-9.92 9.92v4.03c0 2.09-1.7 3.79-3.79 3.79s-3.79-1.7-3.79-3.79v-4.03c0-9.67 7.83-17.5 17.5-17.5ZM2282.46 1124.01c-2.09 0-3.79 1.7-3.79 3.79v4.03c0 9.67 7.83 17.5 17.5 17.5h4.66c2.09 0 3.79-1.69 3.79-3.79 0-2.09-1.7-3.79-3.79-3.79h-4.66c-5.48 0-9.92-4.44-9.92-9.92v-4.03c0-2.09-1.7-3.79-3.79-3.79ZM2391.54 1124.01c-2.09 0-3.79 1.7-3.79 3.79v4.03c0 5.48-4.44 9.92-9.92 9.92h-3.4c-2.09 0-3.79 1.7-3.79 3.79 0 2.1 1.7 3.79 3.79 3.79h3.4c9.67 0 17.5-7.83 17.5-17.5v-4.03c0-2.09-1.69-3.79-3.79-3.79ZM2391.54 1057.99c2.1 0 3.79-1.7 3.79-3.79v-4.03c0-9.67-7.83-17.5-17.5-17.5h-3.4c-2.09 0-3.79 1.7-3.79 3.79s1.7 3.79 3.79 3.79h3.4c5.48 0 9.92 4.44 9.92 9.92v4.03c0 2.09 1.7 3.79 3.79 3.79Z"/><path fill-rule="evenodd" d="M2301.56 1063.14c0-4.18 3.39-7.58 7.58-7.58h15.85c4.19 0 7.58 3.4 7.58 7.58v15.85c0 4.19-3.39 7.58-7.58 7.58h-15.85c-4.19 0-7.58-3.39-7.58-7.58v-15.85Zm7.58 0h15.85v15.85h-15.85v-15.85ZM2301.56 1103.01c0-4.18 3.39-7.58 7.58-7.58h15.85c4.19 0 7.58 3.4 7.58 7.58v15.85c0 4.19-3.39 7.58-7.58 7.58h-15.85c-4.19 0-7.58-3.39-7.58-7.58v-15.85Zm7.58 0h15.85v15.85h-15.85v-15.85Z" clip-rule="evenodd"/><path d="M2364.86 1127.63h-12.83a3.796 3.796 0 0 1 0-7.59h12.83v-13.84c0-2.09 1.7-3.79 3.79-3.79 2.1 0 3.79 1.7 3.79 3.79v13.84c0 4.19-3.39 7.59-7.58 7.59Z"/><path fill-rule="evenodd" d="M2341.43 1063.14c0-4.18 3.4-7.58 7.58-7.58h15.85c4.19 0 7.58 3.4 7.58 7.58v15.85c0 4.19-3.39 7.58-7.58 7.58h-15.85c-4.18 0-7.58-3.39-7.58-7.58v-15.85Zm7.58 0h15.85v15.85h-15.85v-15.85Z" clip-rule="evenodd"/><path d="M2345.22 1095.18c2.1 0 3.79 1.7 3.79 3.79v5.72c0 2.09-1.69 3.79-3.79 3.79-2.09 0-3.79-1.7-3.79-3.79v-5.72c0-2.09 1.7-3.79 3.79-3.79Z"/></g></g></g><g id="Semibold-M"><g id="Outline / QR Code Outline_13"><g id="Shape_13" fill="#000"><path d="M2000.17 1032.67h4.66c2.09 0 3.79 1.7 3.79 3.79s-1.7 3.79-3.79 3.79h-4.66c-5.48 0-9.92 4.44-9.92 9.92v4.03c0 2.09-1.7 3.79-3.79 3.79s-3.79-1.7-3.79-3.79v-4.03c0-9.67 7.83-17.5 17.5-17.5ZM1986.46 1124.01c-2.09 0-3.79 1.7-3.79 3.79v4.03c0 9.67 7.83 17.5 17.5 17.5h4.66c2.09 0 3.79-1.69 3.79-3.79 0-2.09-1.7-3.79-3.79-3.79h-4.66c-5.48 0-9.92-4.44-9.92-9.92v-4.03c0-2.09-1.7-3.79-3.79-3.79ZM2095.54 1124.01c-2.09 0-3.79 1.7-3.79 3.79v4.03c0 5.48-4.44 9.92-9.92 9.92h-3.4c-2.09 0-3.79 1.7-3.79 3.79 0 2.1 1.7 3.79 3.79 3.79h3.4c9.67 0 17.5-7.83 17.5-17.5v-4.03c0-2.09-1.69-3.79-3.79-3.79ZM2095.54 1057.99c2.1 0 3.79-1.7 3.79-3.79v-4.03c0-9.67-7.83-17.5-17.5-17.5h-3.4c-2.09 0-3.79 1.7-3.79 3.79s1.7 3.79 3.79 3.79h3.4c5.48 0 9.92 4.44 9.92 9.92v4.03c0 2.09 1.7 3.79 3.79 3.79Z"/><path fill-rule="evenodd" d="M2005.56 1063.14c0-4.18 3.39-7.58 7.58-7.58h15.85c4.19 0 7.58 3.4 7.58 7.58v15.85c0 4.19-3.39 7.58-7.58 7.58h-15.85c-4.19 0-7.58-3.39-7.58-7.58v-15.85Zm7.58 0h15.85v15.85h-15.85v-15.85ZM2005.56 1103.01c0-4.18 3.39-7.58 7.58-7.58h15.85c4.19 0 7.58 3.4 7.58 7.58v15.85c0 4.19-3.39 7.58-7.58 7.58h-15.85c-4.19 0-7.58-3.39-7.58-7.58v-15.85Zm7.58 0h15.85v15.85h-15.85v-15.85Z" clip-rule="evenodd"/><path d="M2068.86 1127.63h-12.83a3.796 3.796 0 0 1 0-7.59h12.83v-13.84c0-2.09 1.7-3.79 3.79-3.79 2.1 0 3.79 1.7 3.79 3.79v13.84c0 4.19-3.39 7.59-7.58 7.59Z"/><path fill-rule="evenodd" d="M2045.43 1063.14c0-4.18 3.4-7.58 7.58-7.58h15.85c4.19 0 7.58 3.4 7.58 7.58v15.85c0 4.19-3.39 7.58-7.58 7.58h-15.85c-4.18 0-7.58-3.39-7.58-7.58v-15.85Zm7.58 0h15.85v15.85h-15.85v-15.85Z" clip-rule="evenodd"/><path d="M2049.22 1095.18c2.1 0 3.79 1.7 3.79 3.79v5.72c0 2.09-1.69 3.79-3.79 3.79-2.09 0-3.79-1.7-3.79-3.79v-5.72c0-2.09 1.7-3.79 3.79-3.79Z"/></g></g></g><g id="Medium-M"><g id="Outline / QR Code Outline_14"><g id="Shape_14" fill="#000"><path d="M1704.17 1032.67h4.66c2.09 0 3.79 1.7 3.79 3.79s-1.7 3.79-3.79 3.79h-4.66c-5.48 0-9.92 4.44-9.92 9.92v4.03c0 2.09-1.7 3.79-3.79 3.79s-3.79-1.7-3.79-3.79v-4.03c0-9.67 7.83-17.5 17.5-17.5ZM1690.46 1124.01c-2.09 0-3.79 1.7-3.79 3.79v4.03c0 9.67 7.83 17.5 17.5 17.5h4.66c2.09 0 3.79-1.69 3.79-3.79 0-2.09-1.7-3.79-3.79-3.79h-4.66c-5.48 0-9.92-4.44-9.92-9.92v-4.03c0-2.09-1.7-3.79-3.79-3.79ZM1799.54 1124.01c-2.09 0-3.79 1.7-3.79 3.79v4.03c0 5.48-4.44 9.92-9.92 9.92h-3.4c-2.09 0-3.79 1.7-3.79 3.79 0 2.1 1.7 3.79 3.79 3.79h3.4c9.67 0 17.5-7.83 17.5-17.5v-4.03c0-2.09-1.69-3.79-3.79-3.79ZM1799.54 1057.99c2.1 0 3.79-1.7 3.79-3.79v-4.03c0-9.67-7.83-17.5-17.5-17.5h-3.4c-2.09 0-3.79 1.7-3.79 3.79s1.7 3.79 3.79 3.79h3.4c5.48 0 9.92 4.44 9.92 9.92v4.03c0 2.09 1.7 3.79 3.79 3.79Z"/><path fill-rule="evenodd" d="M1709.56 1063.14c0-4.18 3.39-7.58 7.58-7.58h15.85c4.19 0 7.58 3.4 7.58 7.58v15.85c0 4.19-3.39 7.58-7.58 7.58h-15.85c-4.19 0-7.58-3.39-7.58-7.58v-15.85Zm7.58 0h15.85v15.85h-15.85v-15.85ZM1709.56 1103.01c0-4.18 3.39-7.58 7.58-7.58h15.85c4.19 0 7.58 3.4 7.58 7.58v15.85c0 4.19-3.39 7.58-7.58 7.58h-15.85c-4.19 0-7.58-3.39-7.58-7.58v-15.85Zm7.58 0h15.85v15.85h-15.85v-15.85Z" clip-rule="evenodd"/><path d="M1772.86 1127.63h-12.83a3.796 3.796 0 0 1 0-7.59h12.83v-13.84c0-2.09 1.7-3.79 3.79-3.79 2.1 0 3.79 1.7 3.79 3.79v13.84c0 4.19-3.39 7.59-7.58 7.59Z"/><path fill-rule="evenodd" d="M1749.43 1063.14c0-4.18 3.4-7.58 7.58-7.58h15.85c4.19 0 7.58 3.4 7.58 7.58v15.85c0 4.19-3.39 7.58-7.58 7.58h-15.85c-4.18 0-7.58-3.39-7.58-7.58v-15.85Zm7.58 0h15.85v15.85h-15.85v-15.85Z" clip-rule="evenodd"/><path d="M1753.22 1095.18c2.1 0 3.79 1.7 3.79 3.79v5.72c0 2.09-1.69 3.79-3.79 3.79-2.09 0-3.79-1.7-3.79-3.79v-5.72c0-2.09 1.7-3.79 3.79-3.79Z"/></g></g></g><g id="Regular-M"><g id="Outline / QR Code Outline_15"><g id="Shape_15" fill="#000"><path d="M1408.17 1032.67h4.66c2.09 0 3.79 1.7 3.79 3.79s-1.7 3.79-3.79 3.79h-4.66c-5.48 0-9.92 4.44-9.92 9.92v4.03c0 2.09-1.7 3.79-3.79 3.79s-3.79-1.7-3.79-3.79v-4.03c0-9.67 7.83-17.5 17.5-17.5ZM1394.46 1124.01c-2.09 0-3.79 1.7-3.79 3.79v4.03c0 9.67 7.83 17.5 17.5 17.5h4.66c2.09 0 3.79-1.69 3.79-3.79 0-2.09-1.7-3.79-3.79-3.79h-4.66c-5.48 0-9.92-4.44-9.92-9.92v-4.03c0-2.09-1.7-3.79-3.79-3.79ZM1503.54 1124.01c-2.09 0-3.79 1.7-3.79 3.79v4.03c0 5.48-4.44 9.92-9.92 9.92h-3.4c-2.09 0-3.79 1.7-3.79 3.79 0 2.1 1.7 3.79 3.79 3.79h3.4c9.67 0 17.5-7.83 17.5-17.5v-4.03c0-2.09-1.69-3.79-3.79-3.79ZM1503.54 1057.99c2.1 0 3.79-1.7 3.79-3.79v-4.03c0-9.67-7.83-17.5-17.5-17.5h-3.4c-2.09 0-3.79 1.7-3.79 3.79s1.7 3.79 3.79 3.79h3.4c5.48 0 9.92 4.44 9.92 9.92v4.03c0 2.09 1.7 3.79 3.79 3.79Z"/><path fill-rule="evenodd" d="M1413.56 1063.14c0-4.18 3.39-7.58 7.58-7.58h15.85c4.19 0 7.58 3.4 7.58 7.58v15.85c0 4.19-3.39 7.58-7.58 7.58h-15.85c-4.19 0-7.58-3.39-7.58-7.58v-15.85Zm7.58 0h15.85v15.85h-15.85v-15.85ZM1413.56 1103.01c0-4.18 3.39-7.58 7.58-7.58h15.85c4.19 0 7.58 3.4 7.58 7.58v15.85c0 4.19-3.39 7.58-7.58 7.58h-15.85c-4.19 0-7.58-3.39-7.58-7.58v-15.85Zm7.58 0h15.85v15.85h-15.85v-15.85Z" clip-rule="evenodd"/><path d="M1476.86 1127.63h-12.83a3.796 3.796 0 0 1 0-7.59h12.83v-13.84c0-2.09 1.7-3.79 3.79-3.79 2.1 0 3.79 1.7 3.79 3.79v13.84c0 4.19-3.39 7.59-7.58 7.59Z"/><path fill-rule="evenodd" d="M1453.43 1063.14c0-4.18 3.4-7.58 7.58-7.58h15.85c4.19 0 7.58 3.4 7.58 7.58v15.85c0 4.19-3.39 7.58-7.58 7.58h-15.85c-4.18 0-7.58-3.39-7.58-7.58v-15.85Zm7.58 0h15.85v15.85h-15.85v-15.85Z" clip-rule="evenodd"/><path d="M1457.22 1095.18c2.1 0 3.79 1.7 3.79 3.79v5.72c0 2.09-1.69 3.79-3.79 3.79-2.09 0-3.79-1.7-3.79-3.79v-5.72c0-2.09 1.7-3.79 3.79-3.79Z"/></g></g></g><g id="Light-M"><g id="Outline / QR Code Outline_16"><g id="Shape_16" fill="#000"><path d="M1112.17 1032.67h4.66c2.09 0 3.79 1.7 3.79 3.79s-1.7 3.79-3.79 3.79h-4.66c-5.48 0-9.92 4.44-9.92 9.92v4.03c0 2.09-1.7 3.79-3.79 3.79s-3.79-1.7-3.79-3.79v-4.03c0-9.67 7.83-17.5 17.5-17.5ZM1098.46 1124.01c-2.09 0-3.79 1.7-3.79 3.79v4.03c0 9.67 7.83 17.5 17.5 17.5h4.66c2.09 0 3.79-1.69 3.79-3.79 0-2.09-1.7-3.79-3.79-3.79h-4.66c-5.48 0-9.92-4.44-9.92-9.92v-4.03c0-2.09-1.7-3.79-3.79-3.79ZM1207.54 1124.01c-2.09 0-3.79 1.7-3.79 3.79v4.03c0 5.48-4.44 9.92-9.92 9.92h-3.4c-2.09 0-3.79 1.7-3.79 3.79 0 2.1 1.7 3.79 3.79 3.79h3.4c9.67 0 17.5-7.83 17.5-17.5v-4.03c0-2.09-1.69-3.79-3.79-3.79ZM1207.54 1057.99c2.1 0 3.79-1.7 3.79-3.79v-4.03c0-9.67-7.83-17.5-17.5-17.5h-3.4c-2.09 0-3.79 1.7-3.79 3.79s1.7 3.79 3.79 3.79h3.4c5.48 0 9.92 4.44 9.92 9.92v4.03c0 2.09 1.7 3.79 3.79 3.79Z"/><path fill-rule="evenodd" d="M1117.56 1063.14c0-4.18 3.39-7.58 7.58-7.58h15.85c4.19 0 7.58 3.4 7.58 7.58v15.85c0 4.19-3.39 7.58-7.58 7.58h-15.85c-4.19 0-7.58-3.39-7.58-7.58v-15.85Zm7.58 0h15.85v15.85h-15.85v-15.85ZM1117.56 1103.01c0-4.18 3.39-7.58 7.58-7.58h15.85c4.19 0 7.58 3.4 7.58 7.58v15.85c0 4.19-3.39 7.58-7.58 7.58h-15.85c-4.19 0-7.58-3.39-7.58-7.58v-15.85Zm7.58 0h15.85v15.85h-15.85v-15.85Z" clip-rule="evenodd"/><path d="M1180.86 1127.63h-12.83a3.796 3.796 0 0 1 0-7.59h12.83v-13.84c0-2.09 1.7-3.79 3.79-3.79 2.1 0 3.79 1.7 3.79 3.79v13.84c0 4.19-3.39 7.59-7.58 7.59Z"/><path fill-rule="evenodd" d="M1157.43 1063.14c0-4.18 3.4-7.58 7.58-7.58h15.85c4.19 0 7.58 3.4 7.58 7.58v15.85c0 4.19-3.39 7.58-7.58 7.58h-15.85c-4.18 0-7.58-3.39-7.58-7.58v-15.85Zm7.58 0h15.85v15.85h-15.85v-15.85Z" clip-rule="evenodd"/><path d="M1161.22 1095.18c2.1 0 3.79 1.7 3.79 3.79v5.72c0 2.09-1.69 3.79-3.79 3.79-2.09 0-3.79-1.7-3.79-3.79v-5.72c0-2.09 1.7-3.79 3.79-3.79Z"/></g></g></g><g id="Thin-M"><g id="Outline / QR Code Outline_17"><g id="Shape_17" fill="#000"><path d="M816.168 1032.67h4.662c2.094 0 3.792 1.7 3.792 3.79s-1.698 3.79-3.792 3.79h-4.662c-5.477 0-9.917 4.44-9.917 9.92v4.03a3.792 3.792 0 0 1-7.583 0v-4.03c0-9.67 7.835-17.5 17.5-17.5ZM802.46 1124.01a3.793 3.793 0 0 0-3.792 3.79v4.03c0 9.67 7.835 17.5 17.5 17.5h4.662a3.787 3.787 0 0 0 3.792-3.79c0-2.09-1.698-3.79-3.792-3.79h-4.662c-5.477 0-9.917-4.44-9.917-9.92v-4.03c0-2.09-1.697-3.79-3.791-3.79ZM911.543 1124.01a3.793 3.793 0 0 0-3.792 3.79v4.03c0 5.48-4.44 9.92-9.916 9.92h-3.4a3.793 3.793 0 0 0-3.792 3.79c0 2.1 1.698 3.79 3.792 3.79h3.4c9.665 0 17.5-7.83 17.5-17.5v-4.03c0-2.09-1.698-3.79-3.792-3.79ZM911.543 1057.99c2.094 0 3.792-1.7 3.792-3.79v-4.03c0-9.67-7.835-17.5-17.5-17.5h-3.4a3.793 3.793 0 0 0-3.792 3.79c0 2.09 1.698 3.79 3.792 3.79h3.4c5.476 0 9.916 4.44 9.916 9.92v4.03c0 2.09 1.698 3.79 3.792 3.79Z"/><path fill-rule="evenodd" d="M821.56 1063.14c0-4.18 3.395-7.58 7.583-7.58h15.845c4.188 0 7.583 3.4 7.583 7.58v15.85a7.58 7.58 0 0 1-7.583 7.58h-15.845a7.58 7.58 0 0 1-7.583-7.58v-15.85Zm7.583 0h15.845v15.85h-15.845v-15.85ZM821.56 1103.01c0-4.18 3.395-7.58 7.583-7.58h15.845c4.188 0 7.583 3.4 7.583 7.58v15.85a7.58 7.58 0 0 1-7.583 7.58h-15.845a7.58 7.58 0 0 1-7.583-7.58v-15.85Zm7.583 0h15.845v15.85h-15.845v-15.85Z" clip-rule="evenodd"/><path d="M884.859 1127.63H872.03a3.792 3.792 0 0 1-3.791-3.79c0-2.1 1.697-3.8 3.791-3.8h12.829v-13.84a3.793 3.793 0 0 1 7.584 0v13.84c0 4.19-3.395 7.59-7.584 7.59Z"/><path fill-rule="evenodd" d="M861.43 1063.14c0-4.18 3.396-7.58 7.584-7.58h15.844c4.188 0 7.584 3.4 7.584 7.58v15.85a7.58 7.58 0 0 1-7.584 7.58h-15.844a7.58 7.58 0 0 1-7.584-7.58v-15.85Zm7.584 0h15.844v15.85h-15.844v-15.85Z" clip-rule="evenodd"/><path d="M865.221 1095.18c2.094 0 3.792 1.7 3.792 3.79v5.72a3.793 3.793 0 0 1-7.584 0v-5.72c0-2.09 1.698-3.79 3.792-3.79Z"/></g></g></g><g id="Ultralight-M"><g id="Outline / QR Code Outline_18"><g id="Shape_18" fill="#000"><path d="M520.168 1032.67h4.662c2.094 0 3.792 1.7 3.792 3.79s-1.698 3.79-3.792 3.79h-4.662c-5.477 0-9.917 4.44-9.917 9.92v4.03a3.792 3.792 0 0 1-7.583 0v-4.03c0-9.67 7.835-17.5 17.5-17.5ZM506.46 1124.01a3.793 3.793 0 0 0-3.792 3.79v4.03c0 9.67 7.835 17.5 17.5 17.5h4.662a3.787 3.787 0 0 0 3.792-3.79c0-2.09-1.698-3.79-3.792-3.79h-4.662c-5.477 0-9.917-4.44-9.917-9.92v-4.03c0-2.09-1.697-3.79-3.791-3.79ZM615.543 1124.01a3.793 3.793 0 0 0-3.792 3.79v4.03c0 5.48-4.44 9.92-9.916 9.92h-3.4a3.793 3.793 0 0 0-3.792 3.79c0 2.1 1.698 3.79 3.792 3.79h3.4c9.665 0 17.5-7.83 17.5-17.5v-4.03c0-2.09-1.698-3.79-3.792-3.79ZM615.543 1057.99c2.094 0 3.792-1.7 3.792-3.79v-4.03c0-9.67-7.835-17.5-17.5-17.5h-3.4a3.793 3.793 0 0 0-3.792 3.79c0 2.09 1.698 3.79 3.792 3.79h3.4c5.476 0 9.916 4.44 9.916 9.92v4.03c0 2.09 1.698 3.79 3.792 3.79Z"/><path fill-rule="evenodd" d="M525.56 1063.14c0-4.18 3.395-7.58 7.583-7.58h15.845c4.188 0 7.583 3.4 7.583 7.58v15.85a7.58 7.58 0 0 1-7.583 7.58h-15.845a7.58 7.58 0 0 1-7.583-7.58v-15.85Zm7.583 0h15.845v15.85h-15.845v-15.85ZM525.56 1103.01c0-4.18 3.395-7.58 7.583-7.58h15.845c4.188 0 7.583 3.4 7.583 7.58v15.85a7.58 7.58 0 0 1-7.583 7.58h-15.845a7.58 7.58 0 0 1-7.583-7.58v-15.85Zm7.583 0h15.845v15.85h-15.845v-15.85Z" clip-rule="evenodd"/><path d="M588.859 1127.63H576.03a3.792 3.792 0 0 1-3.791-3.79c0-2.1 1.697-3.8 3.791-3.8h12.829v-13.84a3.793 3.793 0 0 1 7.584 0v13.84c0 4.19-3.395 7.59-7.584 7.59Z"/><path fill-rule="evenodd" d="M565.43 1063.14c0-4.18 3.396-7.58 7.584-7.58h15.844c4.188 0 7.584 3.4 7.584 7.58v15.85a7.58 7.58 0 0 1-7.584 7.58h-15.844a7.58 7.58 0 0 1-7.584-7.58v-15.85Zm7.584 0h15.844v15.85h-15.844v-15.85Z" clip-rule="evenodd"/><path d="M569.221 1095.18c2.094 0 3.792 1.7 3.792 3.79v5.72a3.793 3.793 0 0 1-7.584 0v-5.72c0-2.09 1.698-3.79 3.792-3.79Z"/></g></g></g><g id="Black-S"><g id="Outline / QR Code Outline_19"><g id="Shape_19" fill="#000"><path d="M2899.83 619.332h3.33a2.707 2.707 0 1 1 0 5.417h-3.33a7.082 7.082 0 0 0-7.08 7.083v2.879a2.707 2.707 0 0 1-2.71 2.708 2.713 2.713 0 0 1-2.71-2.708v-2.879c0-6.904 5.6-12.5 12.5-12.5ZM2890.04 684.577a2.714 2.714 0 0 0-2.71 2.709v2.879c0 6.904 5.6 12.5 12.5 12.5h3.33c1.5 0 2.71-1.212 2.71-2.708a2.707 2.707 0 0 0-2.71-2.708h-3.33a7.082 7.082 0 0 1-7.08-7.084v-2.879a2.707 2.707 0 0 0-2.71-2.709ZM2967.96 684.577c-1.5 0-2.71 1.213-2.71 2.709v2.879a7.082 7.082 0 0 1-7.08 7.084h-2.43c-1.5 0-2.71 1.212-2.71 2.708a2.707 2.707 0 0 0 2.71 2.708h2.43c6.9 0 12.5-5.596 12.5-12.5v-2.879a2.714 2.714 0 0 0-2.71-2.709ZM2967.96 637.419c1.49 0 2.71-1.212 2.71-2.708v-2.879c0-6.904-5.6-12.5-12.5-12.5h-2.43a2.707 2.707 0 1 0 0 5.417h2.43c3.91 0 7.08 3.171 7.08 7.083v2.879a2.707 2.707 0 0 0 2.71 2.708Z"/><path fill-rule="evenodd" d="M2903.69 641.1a5.413 5.413 0 0 1 5.41-5.417h11.32c2.99 0 5.42 2.426 5.42 5.417v11.318a5.42 5.42 0 0 1-5.42 5.416h-11.32a5.412 5.412 0 0 1-5.41-5.416V641.1Zm5.41 0h11.32v11.318h-11.32V641.1ZM2903.69 669.58a5.412 5.412 0 0 1 5.41-5.417h11.32a5.42 5.42 0 0 1 5.42 5.417v11.317a5.42 5.42 0 0 1-5.42 5.417h-11.32a5.412 5.412 0 0 1-5.41-5.417V669.58Zm5.41 0h11.32v11.317h-11.32V669.58Z" clip-rule="evenodd"/><path d="M2948.9 687.161h-9.16a2.707 2.707 0 1 1 0-5.417h9.16v-9.886a2.707 2.707 0 0 1 2.71-2.708c1.49 0 2.71 1.213 2.71 2.708v9.886a5.42 5.42 0 0 1-5.42 5.417Z"/><path fill-rule="evenodd" d="M2932.16 641.1a5.421 5.421 0 0 1 5.42-5.417h11.32c2.99 0 5.42 2.426 5.42 5.417v11.318a5.42 5.42 0 0 1-5.42 5.416h-11.32a5.42 5.42 0 0 1-5.42-5.416V641.1Zm5.42 0h11.32v11.318h-11.32V641.1Z" clip-rule="evenodd"/><path d="M2934.87 663.986c1.5 0 2.71 1.212 2.71 2.708v4.079a2.707 2.707 0 0 1-2.71 2.709 2.714 2.714 0 0 1-2.71-2.709v-4.079a2.713 2.713 0 0 1 2.71-2.708Z"/></g></g></g><g id="Heavy-S"><g id="Outline / QR Code Outline_20"><g id="Shape_20" fill="#000"><path d="M2603.83 619.332h3.33a2.707 2.707 0 1 1 0 5.417h-3.33a7.082 7.082 0 0 0-7.08 7.083v2.879a2.707 2.707 0 0 1-2.71 2.708 2.713 2.713 0 0 1-2.71-2.708v-2.879c0-6.904 5.6-12.5 12.5-12.5ZM2594.04 684.577a2.714 2.714 0 0 0-2.71 2.709v2.879c0 6.904 5.6 12.5 12.5 12.5h3.33c1.5 0 2.71-1.212 2.71-2.708a2.707 2.707 0 0 0-2.71-2.708h-3.33a7.082 7.082 0 0 1-7.08-7.084v-2.879a2.707 2.707 0 0 0-2.71-2.709ZM2671.96 684.577c-1.5 0-2.71 1.213-2.71 2.709v2.879a7.082 7.082 0 0 1-7.08 7.084h-2.43c-1.5 0-2.71 1.212-2.71 2.708a2.707 2.707 0 0 0 2.71 2.708h2.43c6.9 0 12.5-5.596 12.5-12.5v-2.879a2.714 2.714 0 0 0-2.71-2.709ZM2671.96 637.419c1.49 0 2.71-1.212 2.71-2.708v-2.879c0-6.904-5.6-12.5-12.5-12.5h-2.43a2.707 2.707 0 1 0 0 5.417h2.43c3.91 0 7.08 3.171 7.08 7.083v2.879a2.707 2.707 0 0 0 2.71 2.708Z"/><path fill-rule="evenodd" d="M2607.69 641.1a5.413 5.413 0 0 1 5.41-5.417h11.32c2.99 0 5.42 2.426 5.42 5.417v11.318a5.42 5.42 0 0 1-5.42 5.416h-11.32a5.412 5.412 0 0 1-5.41-5.416V641.1Zm5.41 0h11.32v11.318h-11.32V641.1ZM2607.69 669.58a5.412 5.412 0 0 1 5.41-5.417h11.32a5.42 5.42 0 0 1 5.42 5.417v11.317a5.42 5.42 0 0 1-5.42 5.417h-11.32a5.412 5.412 0 0 1-5.41-5.417V669.58Zm5.41 0h11.32v11.317h-11.32V669.58Z" clip-rule="evenodd"/><path d="M2652.9 687.161h-9.16a2.707 2.707 0 1 1 0-5.417h9.16v-9.886a2.707 2.707 0 0 1 2.71-2.708c1.49 0 2.71 1.213 2.71 2.708v9.886a5.42 5.42 0 0 1-5.42 5.417Z"/><path fill-rule="evenodd" d="M2636.16 641.1a5.421 5.421 0 0 1 5.42-5.417h11.32c2.99 0 5.42 2.426 5.42 5.417v11.318a5.42 5.42 0 0 1-5.42 5.416h-11.32a5.42 5.42 0 0 1-5.42-5.416V641.1Zm5.42 0h11.32v11.318h-11.32V641.1Z" clip-rule="evenodd"/><path d="M2638.87 663.986c1.5 0 2.71 1.212 2.71 2.708v4.079a2.707 2.707 0 0 1-2.71 2.709 2.714 2.714 0 0 1-2.71-2.709v-4.079a2.713 2.713 0 0 1 2.71-2.708Z"/></g></g></g><g id="Bold-S"><g id="Outline / QR Code Outline_21"><g id="Shape_21" fill="#000"><path d="M2307.83 619.332h3.33a2.707 2.707 0 1 1 0 5.417h-3.33a7.082 7.082 0 0 0-7.08 7.083v2.879a2.707 2.707 0 0 1-2.71 2.708c-1.5 0-2.71-1.212-2.71-2.708v-2.879c0-6.904 5.6-12.5 12.5-12.5ZM2298.04 684.577c-1.5 0-2.71 1.213-2.71 2.709v2.879c0 6.904 5.6 12.5 12.5 12.5h3.33c1.5 0 2.71-1.212 2.71-2.708a2.707 2.707 0 0 0-2.71-2.708h-3.33a7.082 7.082 0 0 1-7.08-7.084v-2.879a2.707 2.707 0 0 0-2.71-2.709ZM2375.96 684.577c-1.5 0-2.71 1.213-2.71 2.709v2.879a7.082 7.082 0 0 1-7.08 7.084h-2.43c-1.5 0-2.71 1.212-2.71 2.708a2.707 2.707 0 0 0 2.71 2.708h2.43c6.9 0 12.5-5.596 12.5-12.5v-2.879a2.714 2.714 0 0 0-2.71-2.709ZM2375.96 637.419c1.49 0 2.71-1.212 2.71-2.708v-2.879c0-6.904-5.6-12.5-12.5-12.5h-2.43a2.707 2.707 0 1 0 0 5.417h2.43c3.91 0 7.08 3.171 7.08 7.083v2.879a2.707 2.707 0 0 0 2.71 2.708Z"/><path fill-rule="evenodd" d="M2311.68 641.1a5.421 5.421 0 0 1 5.42-5.417h11.32c2.99 0 5.41 2.426 5.41 5.417v11.318a5.412 5.412 0 0 1-5.41 5.416h-11.32a5.42 5.42 0 0 1-5.42-5.416V641.1Zm5.42 0h11.32v11.318h-11.32V641.1ZM2311.68 669.58a5.42 5.42 0 0 1 5.42-5.417h11.32c2.99 0 5.41 2.425 5.41 5.417v11.317a5.412 5.412 0 0 1-5.41 5.417h-11.32a5.42 5.42 0 0 1-5.42-5.417V669.58Zm5.42 0h11.32v11.317h-11.32V669.58Z" clip-rule="evenodd"/><path d="M2356.9 687.161h-9.17c-1.49 0-2.7-1.213-2.7-2.709a2.705 2.705 0 0 1 2.7-2.708h9.17v-9.886a2.705 2.705 0 1 1 5.41 0v9.886a5.412 5.412 0 0 1-5.41 5.417Z"/><path fill-rule="evenodd" d="M2340.16 641.1a5.421 5.421 0 0 1 5.42-5.417h11.32c2.99 0 5.41 2.426 5.41 5.417v11.318a5.412 5.412 0 0 1-5.41 5.416h-11.32a5.42 5.42 0 0 1-5.42-5.416V641.1Zm5.42 0h11.32v11.318h-11.32V641.1Z" clip-rule="evenodd"/><path d="M2342.87 663.986c1.5 0 2.71 1.212 2.71 2.708v4.079a2.707 2.707 0 0 1-2.71 2.709c-1.5 0-2.71-1.213-2.71-2.709v-4.079a2.707 2.707 0 0 1 2.71-2.708Z"/></g></g></g><g id="Semibold-S"><g id="Outline / QR Code Outline_22"><g id="Shape_22" fill="#000"><path d="M2011.83 619.332h3.33a2.707 2.707 0 1 1 0 5.417h-3.33a7.082 7.082 0 0 0-7.08 7.083v2.879a2.707 2.707 0 0 1-2.71 2.708c-1.5 0-2.71-1.212-2.71-2.708v-2.879c0-6.904 5.6-12.5 12.5-12.5ZM2002.04 684.577c-1.5 0-2.71 1.213-2.71 2.709v2.879c0 6.904 5.6 12.5 12.5 12.5h3.33c1.5 0 2.71-1.212 2.71-2.708a2.707 2.707 0 0 0-2.71-2.708h-3.33a7.082 7.082 0 0 1-7.08-7.084v-2.879a2.707 2.707 0 0 0-2.71-2.709ZM2079.96 684.577c-1.5 0-2.71 1.213-2.71 2.709v2.879a7.082 7.082 0 0 1-7.08 7.084h-2.43c-1.5 0-2.71 1.212-2.71 2.708a2.707 2.707 0 0 0 2.71 2.708h2.43c6.9 0 12.5-5.596 12.5-12.5v-2.879a2.714 2.714 0 0 0-2.71-2.709ZM2079.96 637.419c1.49 0 2.71-1.212 2.71-2.708v-2.879c0-6.904-5.6-12.5-12.5-12.5h-2.43a2.707 2.707 0 1 0 0 5.417h2.43c3.91 0 7.08 3.171 7.08 7.083v2.879a2.707 2.707 0 0 0 2.71 2.708Z"/><path fill-rule="evenodd" d="M2015.68 641.1a5.421 5.421 0 0 1 5.42-5.417h11.32c2.99 0 5.41 2.426 5.41 5.417v11.318a5.412 5.412 0 0 1-5.41 5.416h-11.32a5.42 5.42 0 0 1-5.42-5.416V641.1Zm5.42 0h11.32v11.318h-11.32V641.1ZM2015.68 669.58a5.42 5.42 0 0 1 5.42-5.417h11.32c2.99 0 5.41 2.425 5.41 5.417v11.317a5.412 5.412 0 0 1-5.41 5.417h-11.32a5.42 5.42 0 0 1-5.42-5.417V669.58Zm5.42 0h11.32v11.317h-11.32V669.58Z" clip-rule="evenodd"/><path d="M2060.9 687.161h-9.17c-1.49 0-2.7-1.213-2.7-2.709a2.705 2.705 0 0 1 2.7-2.708h9.17v-9.886a2.705 2.705 0 1 1 5.41 0v9.886a5.412 5.412 0 0 1-5.41 5.417Z"/><path fill-rule="evenodd" d="M2044.16 641.1a5.421 5.421 0 0 1 5.42-5.417h11.32c2.99 0 5.41 2.426 5.41 5.417v11.318a5.412 5.412 0 0 1-5.41 5.416h-11.32a5.42 5.42 0 0 1-5.42-5.416V641.1Zm5.42 0h11.32v11.318h-11.32V641.1Z" clip-rule="evenodd"/><path d="M2046.87 663.986c1.5 0 2.71 1.212 2.71 2.708v4.079a2.707 2.707 0 0 1-2.71 2.709c-1.5 0-2.71-1.213-2.71-2.709v-4.079a2.707 2.707 0 0 1 2.71-2.708Z"/></g></g></g><g id="Medium-S"><g id="Outline / QR Code Outline_23"><g id="Shape_23" fill="#000"><path d="M1715.83 619.332h3.33a2.707 2.707 0 1 1 0 5.417h-3.33a7.082 7.082 0 0 0-7.08 7.083v2.879a2.707 2.707 0 0 1-2.71 2.708c-1.5 0-2.71-1.212-2.71-2.708v-2.879c0-6.904 5.6-12.5 12.5-12.5ZM1706.04 684.577c-1.5 0-2.71 1.213-2.71 2.709v2.879c0 6.904 5.6 12.5 12.5 12.5h3.33c1.5 0 2.71-1.212 2.71-2.708a2.707 2.707 0 0 0-2.71-2.708h-3.33a7.082 7.082 0 0 1-7.08-7.084v-2.879a2.707 2.707 0 0 0-2.71-2.709ZM1783.96 684.577c-1.5 0-2.71 1.213-2.71 2.709v2.879a7.082 7.082 0 0 1-7.08 7.084h-2.43c-1.5 0-2.71 1.212-2.71 2.708a2.707 2.707 0 0 0 2.71 2.708h2.43c6.9 0 12.5-5.596 12.5-12.5v-2.879a2.714 2.714 0 0 0-2.71-2.709ZM1783.96 637.419c1.49 0 2.71-1.212 2.71-2.708v-2.879c0-6.904-5.6-12.5-12.5-12.5h-2.43a2.707 2.707 0 1 0 0 5.417h2.43c3.91 0 7.08 3.171 7.08 7.083v2.879a2.707 2.707 0 0 0 2.71 2.708Z"/><path fill-rule="evenodd" d="M1719.68 641.1a5.421 5.421 0 0 1 5.42-5.417h11.32c2.99 0 5.41 2.426 5.41 5.417v11.318a5.412 5.412 0 0 1-5.41 5.416h-11.32a5.42 5.42 0 0 1-5.42-5.416V641.1Zm5.42 0h11.32v11.318h-11.32V641.1ZM1719.68 669.58a5.42 5.42 0 0 1 5.42-5.417h11.32c2.99 0 5.41 2.425 5.41 5.417v11.317a5.412 5.412 0 0 1-5.41 5.417h-11.32a5.42 5.42 0 0 1-5.42-5.417V669.58Zm5.42 0h11.32v11.317h-11.32V669.58Z" clip-rule="evenodd"/><path d="M1764.9 687.161h-9.17c-1.49 0-2.7-1.213-2.7-2.709a2.705 2.705 0 0 1 2.7-2.708h9.17v-9.886a2.705 2.705 0 1 1 5.41 0v9.886a5.412 5.412 0 0 1-5.41 5.417Z"/><path fill-rule="evenodd" d="M1748.16 641.1a5.421 5.421 0 0 1 5.42-5.417h11.32c2.99 0 5.41 2.426 5.41 5.417v11.318a5.412 5.412 0 0 1-5.41 5.416h-11.32a5.42 5.42 0 0 1-5.42-5.416V641.1Zm5.42 0h11.32v11.318h-11.32V641.1Z" clip-rule="evenodd"/><path d="M1750.87 663.986c1.5 0 2.71 1.212 2.71 2.708v4.079a2.707 2.707 0 0 1-2.71 2.709c-1.5 0-2.71-1.213-2.71-2.709v-4.079a2.707 2.707 0 0 1 2.71-2.708Z"/></g></g></g><g id="Regular-S"><g id="Outline / QR Code Outline_24"><g id="Shape_24" fill="#000"><path d="M1419.83 619.332h3.33a2.707 2.707 0 1 1 0 5.417h-3.33a7.082 7.082 0 0 0-7.08 7.083v2.879a2.707 2.707 0 0 1-2.71 2.708c-1.5 0-2.71-1.212-2.71-2.708v-2.879c0-6.904 5.6-12.5 12.5-12.5ZM1410.04 684.577c-1.5 0-2.71 1.213-2.71 2.709v2.879c0 6.904 5.6 12.5 12.5 12.5h3.33c1.5 0 2.71-1.212 2.71-2.708a2.707 2.707 0 0 0-2.71-2.708h-3.33a7.082 7.082 0 0 1-7.08-7.084v-2.879a2.707 2.707 0 0 0-2.71-2.709ZM1487.96 684.577c-1.5 0-2.71 1.213-2.71 2.709v2.879a7.082 7.082 0 0 1-7.08 7.084h-2.43c-1.5 0-2.71 1.212-2.71 2.708a2.707 2.707 0 0 0 2.71 2.708h2.43c6.9 0 12.5-5.596 12.5-12.5v-2.879a2.714 2.714 0 0 0-2.71-2.709ZM1487.96 637.419c1.49 0 2.71-1.212 2.71-2.708v-2.879c0-6.904-5.6-12.5-12.5-12.5h-2.43a2.707 2.707 0 1 0 0 5.417h2.43c3.91 0 7.08 3.171 7.08 7.083v2.879a2.707 2.707 0 0 0 2.71 2.708Z"/><path fill-rule="evenodd" d="M1423.68 641.1a5.421 5.421 0 0 1 5.42-5.417h11.32c2.99 0 5.41 2.426 5.41 5.417v11.318a5.412 5.412 0 0 1-5.41 5.416h-11.32a5.42 5.42 0 0 1-5.42-5.416V641.1Zm5.42 0h11.32v11.318h-11.32V641.1ZM1423.68 669.58a5.42 5.42 0 0 1 5.42-5.417h11.32c2.99 0 5.41 2.425 5.41 5.417v11.317a5.412 5.412 0 0 1-5.41 5.417h-11.32a5.42 5.42 0 0 1-5.42-5.417V669.58Zm5.42 0h11.32v11.317h-11.32V669.58Z" clip-rule="evenodd"/><path d="M1468.9 687.161h-9.17c-1.49 0-2.7-1.213-2.7-2.709a2.705 2.705 0 0 1 2.7-2.708h9.17v-9.886a2.705 2.705 0 1 1 5.41 0v9.886a5.412 5.412 0 0 1-5.41 5.417Z"/><path fill-rule="evenodd" d="M1452.16 641.1a5.421 5.421 0 0 1 5.42-5.417h11.32c2.99 0 5.41 2.426 5.41 5.417v11.318a5.412 5.412 0 0 1-5.41 5.416h-11.32a5.42 5.42 0 0 1-5.42-5.416V641.1Zm5.42 0h11.32v11.318h-11.32V641.1Z" clip-rule="evenodd"/><path d="M1454.87 663.986c1.5 0 2.71 1.212 2.71 2.708v4.079a2.707 2.707 0 0 1-2.71 2.709c-1.5 0-2.71-1.213-2.71-2.709v-4.079a2.707 2.707 0 0 1 2.71-2.708Z"/></g></g></g><g id="Light-S"><g id="Outline / QR Code Outline_25"><g id="Shape_25" fill="#000"><path d="M1123.83 619.332h3.33a2.707 2.707 0 1 1 0 5.417h-3.33a7.082 7.082 0 0 0-7.08 7.083v2.879a2.707 2.707 0 0 1-2.71 2.708c-1.5 0-2.71-1.212-2.71-2.708v-2.879c0-6.904 5.6-12.5 12.5-12.5ZM1114.04 684.577c-1.5 0-2.71 1.213-2.71 2.709v2.879c0 6.904 5.6 12.5 12.5 12.5h3.33c1.5 0 2.71-1.212 2.71-2.708a2.707 2.707 0 0 0-2.71-2.708h-3.33a7.082 7.082 0 0 1-7.08-7.084v-2.879a2.707 2.707 0 0 0-2.71-2.709ZM1191.96 684.577c-1.5 0-2.71 1.213-2.71 2.709v2.879a7.082 7.082 0 0 1-7.08 7.084h-2.43c-1.5 0-2.71 1.212-2.71 2.708a2.707 2.707 0 0 0 2.71 2.708h2.43c6.9 0 12.5-5.596 12.5-12.5v-2.879a2.714 2.714 0 0 0-2.71-2.709ZM1191.96 637.419c1.49 0 2.71-1.212 2.71-2.708v-2.879c0-6.904-5.6-12.5-12.5-12.5h-2.43a2.707 2.707 0 1 0 0 5.417h2.43c3.91 0 7.08 3.171 7.08 7.083v2.879a2.707 2.707 0 0 0 2.71 2.708Z"/><path fill-rule="evenodd" d="M1127.68 641.1a5.421 5.421 0 0 1 5.42-5.417h11.32c2.99 0 5.41 2.426 5.41 5.417v11.318a5.412 5.412 0 0 1-5.41 5.416h-11.32a5.42 5.42 0 0 1-5.42-5.416V641.1Zm5.42 0h11.32v11.318h-11.32V641.1ZM1127.68 669.58a5.42 5.42 0 0 1 5.42-5.417h11.32c2.99 0 5.41 2.425 5.41 5.417v11.317a5.412 5.412 0 0 1-5.41 5.417h-11.32a5.42 5.42 0 0 1-5.42-5.417V669.58Zm5.42 0h11.32v11.317h-11.32V669.58Z" clip-rule="evenodd"/><path d="M1172.9 687.161h-9.17c-1.49 0-2.7-1.213-2.7-2.709a2.705 2.705 0 0 1 2.7-2.708h9.17v-9.886a2.705 2.705 0 1 1 5.41 0v9.886a5.412 5.412 0 0 1-5.41 5.417Z"/><path fill-rule="evenodd" d="M1156.16 641.1a5.421 5.421 0 0 1 5.42-5.417h11.32c2.99 0 5.41 2.426 5.41 5.417v11.318a5.412 5.412 0 0 1-5.41 5.416h-11.32a5.42 5.42 0 0 1-5.42-5.416V641.1Zm5.42 0h11.32v11.318h-11.32V641.1Z" clip-rule="evenodd"/><path d="M1158.87 663.986c1.5 0 2.71 1.212 2.71 2.708v4.079a2.707 2.707 0 0 1-2.71 2.709c-1.5 0-2.71-1.213-2.71-2.709v-4.079a2.707 2.707 0 0 1 2.71-2.708Z"/></g></g></g><g id="Thin-S"><g id="Outline / QR Code Outline_26"><g id="Shape_26" fill="#000"><path d="M827.832 619.332h3.33a2.709 2.709 0 1 1 0 5.417h-3.33a7.083 7.083 0 0 0-7.083 7.083v2.879a2.708 2.708 0 0 1-5.417 0v-2.879c0-6.904 5.596-12.5 12.5-12.5ZM818.04 684.577a2.709 2.709 0 0 0-2.708 2.709v2.879c0 6.904 5.596 12.5 12.5 12.5h3.33a2.708 2.708 0 1 0 0-5.416h-3.33a7.084 7.084 0 0 1-7.083-7.084v-2.879a2.71 2.71 0 0 0-2.709-2.709ZM895.957 684.577a2.708 2.708 0 0 0-2.708 2.709v2.879a7.084 7.084 0 0 1-7.084 7.084h-2.428a2.707 2.707 0 1 0 0 5.416h2.428c6.904 0 12.5-5.596 12.5-12.5v-2.879a2.708 2.708 0 0 0-2.708-2.709ZM895.957 637.419a2.707 2.707 0 0 0 2.708-2.708v-2.879c0-6.904-5.596-12.5-12.5-12.5h-2.428a2.708 2.708 0 0 0 0 5.417h2.428a7.084 7.084 0 0 1 7.084 7.083v2.879a2.707 2.707 0 0 0 2.708 2.708Z"/><path fill-rule="evenodd" d="M831.683 641.1a5.417 5.417 0 0 1 5.417-5.417h11.318a5.417 5.417 0 0 1 5.416 5.417v11.318a5.416 5.416 0 0 1-5.416 5.416H837.1a5.416 5.416 0 0 1-5.417-5.416V641.1Zm5.417 0h11.318v11.318H837.1V641.1ZM831.683 669.58a5.417 5.417 0 0 1 5.417-5.417h11.318a5.416 5.416 0 0 1 5.416 5.417v11.317a5.416 5.416 0 0 1-5.416 5.417H837.1a5.417 5.417 0 0 1-5.417-5.417V669.58Zm5.417 0h11.318v11.317H837.1V669.58Z" clip-rule="evenodd"/><path d="M876.897 687.161h-9.163a2.71 2.71 0 0 1 0-5.417h9.163v-9.886a2.709 2.709 0 0 1 5.417 0v9.886a5.417 5.417 0 0 1-5.417 5.417Z"/><path fill-rule="evenodd" d="M860.162 641.1a5.417 5.417 0 0 1 5.417-5.417h11.318a5.417 5.417 0 0 1 5.416 5.417v11.318a5.416 5.416 0 0 1-5.416 5.416h-11.318a5.416 5.416 0 0 1-5.417-5.416V641.1Zm5.417 0h11.318v11.318h-11.318V641.1Z" clip-rule="evenodd"/><path d="M862.87 663.986a2.707 2.707 0 0 1 2.708 2.708v4.079a2.708 2.708 0 1 1-5.416 0v-4.079a2.707 2.707 0 0 1 2.708-2.708Z"/></g></g></g><g id="Ultralight-S"><g id="Outline / QR Code Outline_27"><g id="Shape_27" fill="#000"><path d="M531.832 619.332h3.33a2.709 2.709 0 1 1 0 5.417h-3.33a7.083 7.083 0 0 0-7.083 7.083v2.879a2.708 2.708 0 0 1-5.417 0v-2.879c0-6.904 5.596-12.5 12.5-12.5ZM522.04 684.577a2.709 2.709 0 0 0-2.708 2.709v2.879c0 6.904 5.596 12.5 12.5 12.5h3.33a2.708 2.708 0 1 0 0-5.416h-3.33a7.084 7.084 0 0 1-7.083-7.084v-2.879a2.71 2.71 0 0 0-2.709-2.709ZM599.957 684.577a2.708 2.708 0 0 0-2.708 2.709v2.879a7.084 7.084 0 0 1-7.084 7.084h-2.428a2.707 2.707 0 1 0 0 5.416h2.428c6.904 0 12.5-5.596 12.5-12.5v-2.879a2.708 2.708 0 0 0-2.708-2.709ZM599.957 637.419a2.707 2.707 0 0 0 2.708-2.708v-2.879c0-6.904-5.596-12.5-12.5-12.5h-2.428a2.708 2.708 0 0 0 0 5.417h2.428a7.084 7.084 0 0 1 7.084 7.083v2.879a2.707 2.707 0 0 0 2.708 2.708Z"/><path fill-rule="evenodd" d="M535.683 641.1a5.417 5.417 0 0 1 5.417-5.417h11.318a5.417 5.417 0 0 1 5.416 5.417v11.318a5.416 5.416 0 0 1-5.416 5.416H541.1a5.416 5.416 0 0 1-5.417-5.416V641.1Zm5.417 0h11.318v11.318H541.1V641.1ZM535.683 669.58a5.417 5.417 0 0 1 5.417-5.417h11.318a5.416 5.416 0 0 1 5.416 5.417v11.317a5.416 5.416 0 0 1-5.416 5.417H541.1a5.417 5.417 0 0 1-5.417-5.417V669.58Zm5.417 0h11.318v11.317H541.1V669.58Z" clip-rule="evenodd"/><path d="M580.897 687.161h-9.163a2.71 2.71 0 0 1 0-5.417h9.163v-9.886a2.709 2.709 0 0 1 5.417 0v9.886a5.417 5.417 0 0 1-5.417 5.417Z"/><path fill-rule="evenodd" d="M564.162 641.1a5.417 5.417 0 0 1 5.417-5.417h11.318a5.417 5.417 0 0 1 5.416 5.417v11.318a5.416 5.416 0 0 1-5.416 5.416h-11.318a5.416 5.416 0 0 1-5.417-5.416V641.1Zm5.417 0h11.318v11.318h-11.318V641.1Z" clip-rule="evenodd"/><path d="M566.87 663.986a2.707 2.707 0 0 1 2.708 2.708v4.079a2.708 2.708 0 1 1-5.416 0v-4.079a2.707 2.707 0 0 1 2.708-2.708Z"/></g></g></g></g></g><defs><clipPath id="clip0_805_27002"><path fill="#fff" d="M0 0h3300v2200H0z"/></clipPath></defs></svg>