<svg xmlns="http://www.w3.org/2000/svg" width="3300" height="2200" fill="none"><path fill="#E5E5E5" d="M0 0h3300v2200H0z"/><g id="Category / Outline / Post automat" clip-path="url(#clip0_0_1)"><g id="Notes"><path id="artboard" fill="#fff" d="M3300 0H0v2200h3300V0Z"/><path id="Vector" stroke="#000" stroke-width=".5" d="M263 292h2773"/><text xml:space="preserve" id="Weight/Scale Variations" fill="#000" font-family="Roboto" font-size="12" letter-spacing="0em" style="white-space:pre"><tspan x="263" y="321.102">Weight/Scale Variations</tspan></text><text xml:space="preserve" id="Ultralight" fill="#000" font-family="Roboto" font-size="12" letter-spacing="0em" style="white-space:pre"><tspan x="535.211" y="321.102">Ultralight</tspan></text><text xml:space="preserve" id="Thin" fill="#000" font-family="Roboto" font-size="12" letter-spacing="0em" style="white-space:pre"><tspan x="844.422" y="321.102">Thin</tspan></text><text xml:space="preserve" id="Light" fill="#000" font-family="Roboto" font-size="12" letter-spacing="0em" style="white-space:pre"><tspan x="1139.63" y="321.102">Light</tspan></text><text xml:space="preserve" id="Regular" fill="#000" font-family="Roboto" font-size="12" letter-spacing="0em" style="white-space:pre"><tspan x="1429.34" y="321.102">Regular</tspan></text><text xml:space="preserve" id="Medium" fill="#000" font-family="Roboto" font-size="12" letter-spacing="0em" style="white-space:pre"><tspan x="1724.56" y="321.102">Medium</tspan></text><text xml:space="preserve" id="Semibold" fill="#000" font-family="Roboto" font-size="12" letter-spacing="0em" style="white-space:pre"><tspan x="2017.77" y="321.102">Semibold</tspan></text><text xml:space="preserve" id="Bold" fill="#000" font-family="Roboto" font-size="12" letter-spacing="0em" style="white-space:pre"><tspan x="2327.48" y="321.102">Bold</tspan></text><text xml:space="preserve" id="Heavy" fill="#000" font-family="Roboto" font-size="12" letter-spacing="0em" style="white-space:pre"><tspan x="2620.19" y="321.102">Heavy</tspan></text><text xml:space="preserve" id="Black" fill="#000" font-family="Roboto" font-size="12" letter-spacing="0em" style="white-space:pre"><tspan x="2918.4" y="321.102">Black</tspan></text><path id="Vector_2" stroke="#000" stroke-width=".5" d="M263 1903h2773"/><g id="Group"><path id="Vector_3" fill="#000" d="M272.248 1933.83c4.307 0 7.891-3.57 7.891-7.88 0-4.31-3.594-7.88-7.901-7.88-4.297 0-7.871 3.57-7.871 7.88 0 4.31 3.584 7.88 7.881 7.88Zm0-1.48c-3.545 0-6.377-2.84-6.377-6.4 0-3.55 2.822-6.4 6.367-6.4a6.388 6.388 0 0 1 6.406 6.4 6.361 6.361 0 0 1-6.396 6.4Zm-.019-2.78c.468 0 .742-.31.742-.83v-2.06h2.226c.498 0 .84-.25.84-.72 0-.48-.322-.74-.84-.74h-2.226v-2.23c0-.52-.274-.84-.742-.84-.469 0-.723.34-.723.84v2.23h-2.207c-.518 0-.85.26-.85.74 0 .47.352.72.85.72h2.207v2.06c0 .5.254.83.723.83Z"/></g><g id="Group_2"><path id="Vector_4" fill="#000" d="M293.215 1935.91c5.449 0 9.961-4.51 9.961-9.96 0-5.44-4.522-9.96-9.971-9.96-5.439 0-9.951 4.52-9.951 9.96 0 5.45 4.521 9.96 9.961 9.96Zm0-1.66a8.26 8.26 0 0 1-8.291-8.3c0-4.6 3.672-8.3 8.281-8.3a8.29 8.29 0 0 1 8.311 8.3 8.263 8.263 0 0 1-8.301 8.3Zm-.02-3.66c.518 0 .83-.36.83-.93v-2.89h3.057c.547 0 .928-.28.928-.8 0-.53-.362-.83-.928-.83h-3.057v-3.07c0-.57-.312-.93-.83-.93-.517 0-.81.38-.81.93v3.07h-3.047c-.567 0-.938.3-.938.83 0 .52.391.8.938.8h3.047v2.89c0 .55.293.93.81.93Z"/></g><g id="Group_3"><path id="Vector_5" fill="#000" d="M319.895 1938.67c6.962 0 12.724-5.75 12.724-12.71 0-6.97-5.771-12.72-12.734-12.72-6.953 0-12.705 5.75-12.705 12.72 0 6.96 5.761 12.71 12.715 12.71Zm0-1.81a10.874 10.874 0 0 1-10.889-10.9c0-6.04 4.844-10.9 10.879-10.9 6.045 0 10.898 4.86 10.908 10.9a10.87 10.87 0 0 1-10.898 10.9Zm-.02-4.93c.566 0 .918-.39.918-.99v-4.07h4.238c.586 0 1.006-.34 1.006-.89 0-.58-.39-.92-1.006-.92h-4.238v-4.25c0-.61-.352-1.01-.918-1.01-.566 0-.889.41-.889 1.01v4.25h-4.228c-.615 0-1.026.34-1.026.92 0 .55.43.89 1.026.89h4.228v4.07c0 .58.323.99.889.99Z"/></g><text xml:space="preserve" id="Design Variations" fill="#000" font-family="Roboto" font-size="12" letter-spacing="0em" style="white-space:pre"><tspan x="263" y="1952.1">Design Variations</tspan></text><text xml:space="preserve" id="Symbols are supported in up to nine weights and three scales." fill="#000" font-family="Roboto" font-size="12" letter-spacing="0em" style="white-space:pre"><tspan x="263" y="1970.1">Symbols are supported in up to nine weights and three scales.</tspan></text><text xml:space="preserve" id="For optimal layout with text and other symbols, vertically align" fill="#000" font-family="Roboto" font-size="12" letter-spacing="0em" style="white-space:pre"><tspan x="263" y="1988.1">For optimal layout with text and other symbols, vertically align</tspan></text><text xml:space="preserve" id="symbols with the adjacent text." fill="#000" font-family="Roboto" font-size="12" letter-spacing="0em" style="white-space:pre"><tspan x="263" y="2006.1">symbols with the adjacent text.</tspan></text><path id="Vector_6" fill="#00AEEF" d="M779 1919h-3v14h3v-14Z" opacity=".4"/><g id="Group_4"><path id="Vector_7" fill="#000" d="M789.527 1933h1.846l-5.195-14.09h-1.739l-5.195 14.09h1.846l1.416-4.04h5.605l1.416 4.04Zm-4.248-11.96h.059l2.256 6.43h-4.571l2.256-6.43Z"/></g><path id="Vector_8" fill="#00AEEF" d="M794.617 1919h-3v14h3v-14Z" opacity=".4"/><text xml:space="preserve" id="Margins" fill="#000" font-family="Roboto" font-size="12" letter-spacing="0em" style="white-space:pre"><tspan x="776" y="1952.1">Margins</tspan></text><text xml:space="preserve" id="Leading and trailing margins on the left and right side of each symbol" fill="#000" font-family="Roboto" font-size="12" letter-spacing="0em" style="white-space:pre"><tspan x="776" y="1970.1">Leading and trailing margins on the left and right side of each symbol</tspan></text><text xml:space="preserve" id="can be adjusted by modifying the width of the blue rectangles." fill="#000" font-family="Roboto" font-size="12" letter-spacing="0em" style="white-space:pre"><tspan x="776" y="1988.1">can be adjusted by modifying the width of the blue rectangles.</tspan></text><text xml:space="preserve" id="Modifications are automatically applied proportionally to all" fill="#000" font-family="Roboto" font-size="12" letter-spacing="0em" style="white-space:pre"><tspan x="776" y="2006.1">Modifications are automatically applied proportionally to all</tspan></text><text xml:space="preserve" id="scales and weights." fill="#000" font-family="Roboto" font-size="12" letter-spacing="0em" style="white-space:pre"><tspan x="776" y="2024.1">scales and weights.</tspan></text><g id="Group_5"><path id="Vector_9" fill="#000" d="m1291.83 1936.11 1.54 1.55c.85.83 1.82.76 2.69-.2l10.21-11.12c.43.29.83.28 1.29.18l1.05-.21.69.69-.05.52c-.06.53.1.95.6 1.45l.81.81c.51.5 1.16.53 1.64.05l3.25-3.25c.48-.48.46-1.13-.05-1.64l-.82-.82c-.49-.5-.91-.67-1.44-.59l-.53.05-.65-.66.28-1.14c.15-.57 0-1.04-.63-1.64l-2.41-2.39c-3.54-3.53-8.07-3.42-11.19-.29-.42.43-.47 1.02-.19 1.45.23.37.71.59 1.35.43 1.52-.38 3.03-.27 4.51.74l-.62 1.58c-.23.59-.22 1.07.02 1.5l-11.16 10.28c-.94.87-1.05 1.81-.19 2.67Zm7.84-18.26c2.67-1.99 5.98-1.68 8.38.73l2.63 2.61c.23.24.26.42.2.72l-.38 1.56 1.58 1.57.96-.09c.29-.03.37-.01.6.22l.62.62-2.75 2.75-.63-.62c-.22-.22-.24-.32-.21-.6l.09-.96-1.57-1.56-1.62.31c-.28.06-.43.06-.66-.19l-2.18-2.17c-.22-.24-.25-.38-.12-.7l.94-2.27c-1.6-1.54-3.71-2.39-5.75-1.73-.09.03-.16.01-.19-.03-.02-.05-.02-.1.06-.17Zm-6.57 17.56c-.49-.5-.31-.8.02-1.1l10.96-10.12 1.23 1.23-10.16 10.93c-.3.33-.68.43-1.08.03l-.97-.97Z"/></g><text xml:space="preserve" id="Exporting" fill="#000" font-family="Roboto" font-size="12" letter-spacing="0em" style="white-space:pre"><tspan x="1289" y="1952.1">Exporting</tspan></text><text xml:space="preserve" id="Symbols should be outlined when exporting to ensure the" fill="#000" font-family="Roboto" font-size="12" letter-spacing="0em" style="white-space:pre"><tspan x="1289" y="1970.1">Symbols should be outlined when exporting to ensure the</tspan></text><text xml:space="preserve" id="design is preserved when submitting to Xcode." fill="#000" font-family="Roboto" font-size="12" letter-spacing="0em" style="white-space:pre"><tspan x="1289" y="1988.1">design is preserved when submitting to Xcode.</tspan></text><text xml:space="preserve" id="template-version" fill="#000" font-family="Roboto" font-size="12" letter-spacing="0em" style="white-space:pre"><tspan x="2958" y="1932.1">Template v.1.0</tspan></text><text xml:space="preserve" id="Generated from pencil.circle" fill="#000" font-family="Roboto" font-size="12" letter-spacing="0em" style="white-space:pre"><tspan x="2885" y="1950.1">Generated from pencil.circle</tspan></text><text xml:space="preserve" id="Typeset at 100 points" fill="#000" font-family="Roboto" font-size="12" letter-spacing="0em" style="white-space:pre"><tspan x="2921" y="1968.1">Typeset at 100 points</tspan></text><text xml:space="preserve" id="Small" fill="#000" font-family="Roboto" font-size="12" letter-spacing="0em" style="white-space:pre"><tspan x="263" y="725.102">Small</tspan></text><text xml:space="preserve" id="Medium_2" fill="#000" font-family="Roboto" font-size="12" letter-spacing="0em" style="white-space:pre"><tspan x="263" y="1155.1">Medium</tspan></text><text xml:space="preserve" id="Large" fill="#000" font-family="Roboto" font-size="12" letter-spacing="0em" style="white-space:pre"><tspan x="263" y="1585.1">Large</tspan></text></g><g id="Guides"><g id="H-reference"><path id="Vector_10" fill="#27AAE1" d="M393.932 695.998h2.734l-27.1-70.459h-2.49l-27.099 70.459h2.685l9.278-24.463h32.763l9.229 24.463Zm-25.733-67.09h.244l15.381 40.381h-31.006l15.381-40.381Z"/></g><path id="Baseline-S" stroke="#27AAE1" stroke-width=".577" d="M263 696h2773"/><path id="Capline-S" stroke="#27AAE1" stroke-width=".577" d="M263 626h2773"/><g id="H-reference_2"><path id="Vector_11" fill="#27AAE1" d="M393.932 1126h2.734l-27.1-70.46h-2.49L339.977 1126h2.685l9.278-24.46h32.763l9.229 24.46Zm-25.733-67.09h.244l15.381 40.38h-31.006l15.381-40.38Z"/></g><path id="Baseline-M" stroke="#27AAE1" stroke-width=".577" d="M263 1126h2773"/><path id="Capline-M" stroke="#27AAE1" stroke-width=".577" d="M263 1056h2773"/><g id="H-reference_3"><path id="Vector_12" fill="#27AAE1" d="M393.932 1556h2.734l-27.1-70.46h-2.49L339.977 1556h2.685l9.278-24.46h32.763l9.229 24.46Zm-25.733-67.09h.244l15.381 40.38h-31.006l15.381-40.38Z"/></g><g id="Group 1" stroke="#27AAE1" stroke-width=".577"><path id="Baseline-L" d="M263 1556h2773"/><path id="Capline-L" d="M263 1486h2773"/></g><path id="left-margin" fill="#00AEEF" d="M1402.04 1030.79h-8.74v119.33h8.74v-119.33Z" opacity=".4"/><path id="right-margin" fill="#00AEEF" d="M1505.39 1030.79h-8.74v119.33h8.74v-119.33Z" opacity=".4"/></g><g id="Symbols"><g id="Black-L"><g id="Outline / Post automat Outline"><g id="Shape" fill="#000"><path d="M2948.87 1511.23a5.25 5.25 0 0 0-5.25 5.25v9.04c0 2.9 2.35 5.25 5.25 5.25h15.03c2.9 0 5.25-2.35 5.25-5.25v-9.04c0-2.9-2.35-5.25-5.25-5.25h-15.03Z"/><path fill-rule="evenodd" d="M2891.5 1461c-12.43 0-22.5 10.07-22.5 22.5v87.75c0 5.38 4.37 9.75 9.75 9.75h100.5c5.38 0 9.75-4.37 9.75-9.75v-87.75c0-12.43-10.07-22.5-22.5-22.5h-75Zm75 9.75h-27.37a5.25 5.25 0 0 0-5.25 5.25v90c0 2.9 2.35 5.25 5.25 5.25H2974c2.9 0 5.25-2.35 5.25-5.25v-82.5c0-7.04-5.71-12.75-12.75-12.75Zm-75 0h27.38c2.9 0 5.25 2.35 5.25 5.25v16.61c0 2.9-2.35 5.25-5.25 5.25H2884a5.25 5.25 0 0 1-5.25-5.25v-9.11c0-7.04 5.71-12.75 12.75-12.75Zm-7.5 36.86c-2.9 0-5.25 2.36-5.25 5.25v16.62c0 2.9 2.35 5.25 5.25 5.25h34.88c2.9 0 5.25-2.35 5.25-5.25v-16.62c0-2.89-2.35-5.25-5.25-5.25H2884Zm0 63.64a5.25 5.25 0 0 1-5.25-5.25v-16.27c0-2.9 2.35-5.25 5.25-5.25h34.88c2.9 0 5.25 2.35 5.25 5.25V1566c0 2.9-2.35 5.25-5.25 5.25H2884Z" clip-rule="evenodd"/></g></g></g><g id="Heavy-L"><g id="Outline / Post automat Outline_2"><g id="Shape_2" fill="#000"><path d="M2652.87 1511.23a5.25 5.25 0 0 0-5.25 5.25v9.04c0 2.9 2.35 5.25 5.25 5.25h15.03c2.9 0 5.25-2.35 5.25-5.25v-9.04c0-2.9-2.35-5.25-5.25-5.25h-15.03Z"/><path fill-rule="evenodd" d="M2595.5 1461c-12.43 0-22.5 10.07-22.5 22.5v87.75c0 5.38 4.37 9.75 9.75 9.75h100.5c5.38 0 9.75-4.37 9.75-9.75v-87.75c0-12.43-10.07-22.5-22.5-22.5h-75Zm75 9.75h-27.37a5.25 5.25 0 0 0-5.25 5.25v90c0 2.9 2.35 5.25 5.25 5.25H2678c2.9 0 5.25-2.35 5.25-5.25v-82.5c0-7.04-5.71-12.75-12.75-12.75Zm-75 0h27.38c2.9 0 5.25 2.35 5.25 5.25v16.61c0 2.9-2.35 5.25-5.25 5.25H2588a5.25 5.25 0 0 1-5.25-5.25v-9.11c0-7.04 5.71-12.75 12.75-12.75Zm-7.5 36.86c-2.9 0-5.25 2.36-5.25 5.25v16.62c0 2.9 2.35 5.25 5.25 5.25h34.88c2.9 0 5.25-2.35 5.25-5.25v-16.62c0-2.89-2.35-5.25-5.25-5.25H2588Zm0 63.64a5.25 5.25 0 0 1-5.25-5.25v-16.27c0-2.9 2.35-5.25 5.25-5.25h34.88c2.9 0 5.25 2.35 5.25 5.25V1566c0 2.9-2.35 5.25-5.25 5.25H2588Z" clip-rule="evenodd"/></g></g></g><g id="Bold-L"><g id="Outline / Post automat Outline_3"><g id="Shape_3" fill="#000"><path d="M2356.87 1511.23a5.25 5.25 0 0 0-5.25 5.25v9.04c0 2.9 2.35 5.25 5.25 5.25h15.03c2.9 0 5.25-2.35 5.25-5.25v-9.04c0-2.9-2.35-5.25-5.25-5.25h-15.03Z"/><path fill-rule="evenodd" d="M2299.5 1461c-12.43 0-22.5 10.07-22.5 22.5v87.75c0 5.38 4.37 9.75 9.75 9.75h100.5c5.38 0 9.75-4.37 9.75-9.75v-87.75c0-12.43-10.07-22.5-22.5-22.5h-75Zm75 9.75h-27.37a5.25 5.25 0 0 0-5.25 5.25v90c0 2.9 2.35 5.25 5.25 5.25H2382c2.9 0 5.25-2.35 5.25-5.25v-82.5c0-7.04-5.71-12.75-12.75-12.75Zm-75 0h27.38c2.9 0 5.25 2.35 5.25 5.25v16.61c0 2.9-2.35 5.25-5.25 5.25H2292a5.25 5.25 0 0 1-5.25-5.25v-9.11c0-7.04 5.71-12.75 12.75-12.75Zm-7.5 36.86c-2.9 0-5.25 2.36-5.25 5.25v16.62c0 2.9 2.35 5.25 5.25 5.25h34.88c2.9 0 5.25-2.35 5.25-5.25v-16.62c0-2.89-2.35-5.25-5.25-5.25H2292Zm0 63.64a5.25 5.25 0 0 1-5.25-5.25v-16.27c0-2.9 2.35-5.25 5.25-5.25h34.88c2.9 0 5.25 2.35 5.25 5.25V1566c0 2.9-2.35 5.25-5.25 5.25H2292Z" clip-rule="evenodd"/></g></g></g><g id="Semibold-L"><g id="Outline / Post automat Outline_4"><g id="Shape_4" fill="#000"><path d="M2060.87 1511.23a5.25 5.25 0 0 0-5.25 5.25v9.04c0 2.9 2.35 5.25 5.25 5.25h15.03c2.9 0 5.25-2.35 5.25-5.25v-9.04c0-2.9-2.35-5.25-5.25-5.25h-15.03Z"/><path fill-rule="evenodd" d="M2003.5 1461c-12.43 0-22.5 10.07-22.5 22.5v87.75c0 5.38 4.37 9.75 9.75 9.75h100.5c5.38 0 9.75-4.37 9.75-9.75v-87.75c0-12.43-10.07-22.5-22.5-22.5h-75Zm75 9.75h-27.37a5.25 5.25 0 0 0-5.25 5.25v90c0 2.9 2.35 5.25 5.25 5.25H2086c2.9 0 5.25-2.35 5.25-5.25v-82.5c0-7.04-5.71-12.75-12.75-12.75Zm-75 0h27.38c2.9 0 5.25 2.35 5.25 5.25v16.61c0 2.9-2.35 5.25-5.25 5.25H1996a5.25 5.25 0 0 1-5.25-5.25v-9.11c0-7.04 5.71-12.75 12.75-12.75Zm-7.5 36.86c-2.9 0-5.25 2.36-5.25 5.25v16.62c0 2.9 2.35 5.25 5.25 5.25h34.88c2.9 0 5.25-2.35 5.25-5.25v-16.62c0-2.89-2.35-5.25-5.25-5.25H1996Zm0 63.64a5.25 5.25 0 0 1-5.25-5.25v-16.27c0-2.9 2.35-5.25 5.25-5.25h34.88c2.9 0 5.25 2.35 5.25 5.25V1566c0 2.9-2.35 5.25-5.25 5.25H1996Z" clip-rule="evenodd"/></g></g></g><g id="Medium-L"><g id="Outline / Post automat Outline_5"><g id="Shape_5" fill="#000"><path d="M1764.87 1511.23a5.25 5.25 0 0 0-5.25 5.25v9.04c0 2.9 2.35 5.25 5.25 5.25h15.03c2.9 0 5.25-2.35 5.25-5.25v-9.04c0-2.9-2.35-5.25-5.25-5.25h-15.03Z"/><path fill-rule="evenodd" d="M1707.5 1461c-12.43 0-22.5 10.07-22.5 22.5v87.75c0 5.38 4.37 9.75 9.75 9.75h100.5c5.38 0 9.75-4.37 9.75-9.75v-87.75c0-12.43-10.07-22.5-22.5-22.5h-75Zm75 9.75h-27.37a5.25 5.25 0 0 0-5.25 5.25v90c0 2.9 2.35 5.25 5.25 5.25H1790c2.9 0 5.25-2.35 5.25-5.25v-82.5c0-7.04-5.71-12.75-12.75-12.75Zm-75 0h27.38c2.9 0 5.25 2.35 5.25 5.25v16.61c0 2.9-2.35 5.25-5.25 5.25H1700a5.25 5.25 0 0 1-5.25-5.25v-9.11c0-7.04 5.71-12.75 12.75-12.75Zm-7.5 36.86c-2.9 0-5.25 2.36-5.25 5.25v16.62c0 2.9 2.35 5.25 5.25 5.25h34.88c2.9 0 5.25-2.35 5.25-5.25v-16.62c0-2.89-2.35-5.25-5.25-5.25H1700Zm0 63.64a5.25 5.25 0 0 1-5.25-5.25v-16.27c0-2.9 2.35-5.25 5.25-5.25h34.88c2.9 0 5.25 2.35 5.25 5.25V1566c0 2.9-2.35 5.25-5.25 5.25H1700Z" clip-rule="evenodd"/></g></g></g><g id="Regular-L"><g id="Outline / Post automat Outline_6"><g id="Shape_6" fill="#000"><path d="M1468.87 1511.23a5.25 5.25 0 0 0-5.25 5.25v9.04c0 2.9 2.35 5.25 5.25 5.25h15.03c2.9 0 5.25-2.35 5.25-5.25v-9.04c0-2.9-2.35-5.25-5.25-5.25h-15.03Z"/><path fill-rule="evenodd" d="M1411.5 1461c-12.43 0-22.5 10.07-22.5 22.5v87.75c0 5.38 4.37 9.75 9.75 9.75h100.5c5.38 0 9.75-4.37 9.75-9.75v-87.75c0-12.43-10.07-22.5-22.5-22.5h-75Zm75 9.75h-27.37a5.25 5.25 0 0 0-5.25 5.25v90c0 2.9 2.35 5.25 5.25 5.25H1494c2.9 0 5.25-2.35 5.25-5.25v-82.5c0-7.04-5.71-12.75-12.75-12.75Zm-75 0h27.38c2.9 0 5.25 2.35 5.25 5.25v16.61c0 2.9-2.35 5.25-5.25 5.25H1404a5.25 5.25 0 0 1-5.25-5.25v-9.11c0-7.04 5.71-12.75 12.75-12.75Zm-7.5 36.86c-2.9 0-5.25 2.36-5.25 5.25v16.62c0 2.9 2.35 5.25 5.25 5.25h34.88c2.9 0 5.25-2.35 5.25-5.25v-16.62c0-2.89-2.35-5.25-5.25-5.25H1404Zm0 63.64a5.25 5.25 0 0 1-5.25-5.25v-16.27c0-2.9 2.35-5.25 5.25-5.25h34.88c2.9 0 5.25 2.35 5.25 5.25V1566c0 2.9-2.35 5.25-5.25 5.25H1404Z" clip-rule="evenodd"/></g></g></g><g id="Light-L"><g id="Outline / Post automat Outline_7"><g id="Shape_7" fill="#000"><path d="M1172.87 1511.23a5.25 5.25 0 0 0-5.25 5.25v9.04c0 2.9 2.35 5.25 5.25 5.25h15.03c2.9 0 5.25-2.35 5.25-5.25v-9.04c0-2.9-2.35-5.25-5.25-5.25h-15.03Z"/><path fill-rule="evenodd" d="M1115.5 1461c-12.43 0-22.5 10.07-22.5 22.5v87.75c0 5.38 4.37 9.75 9.75 9.75h100.5c5.38 0 9.75-4.37 9.75-9.75v-87.75c0-12.43-10.07-22.5-22.5-22.5h-75Zm75 9.75h-27.37a5.25 5.25 0 0 0-5.25 5.25v90c0 2.9 2.35 5.25 5.25 5.25H1198c2.9 0 5.25-2.35 5.25-5.25v-82.5c0-7.04-5.71-12.75-12.75-12.75Zm-75 0h27.38c2.9 0 5.25 2.35 5.25 5.25v16.61c0 2.9-2.35 5.25-5.25 5.25H1108a5.25 5.25 0 0 1-5.25-5.25v-9.11c0-7.04 5.71-12.75 12.75-12.75Zm-7.5 36.86c-2.9 0-5.25 2.36-5.25 5.25v16.62c0 2.9 2.35 5.25 5.25 5.25h34.88c2.9 0 5.25-2.35 5.25-5.25v-16.62c0-2.89-2.35-5.25-5.25-5.25H1108Zm0 63.64a5.25 5.25 0 0 1-5.25-5.25v-16.27c0-2.9 2.35-5.25 5.25-5.25h34.88c2.9 0 5.25 2.35 5.25 5.25V1566c0 2.9-2.35 5.25-5.25 5.25H1108Z" clip-rule="evenodd"/></g></g></g><g id="Thin-L"><g id="Outline / Post automat Outline_8"><g id="Shape_8" fill="#000"><path d="M876.873 1511.23a5.25 5.25 0 0 0-5.25 5.25v9.04c0 2.9 2.35 5.25 5.25 5.25h15.03a5.25 5.25 0 0 0 5.25-5.25v-9.04a5.25 5.25 0 0 0-5.25-5.25h-15.03Z"/><path fill-rule="evenodd" d="M819.5 1461c-12.426 0-22.5 10.07-22.5 22.5v87.75c0 5.38 4.365 9.75 9.75 9.75h100.5c5.385 0 9.75-4.37 9.75-9.75v-87.75c0-12.43-10.074-22.5-22.5-22.5h-75Zm75 9.75h-27.374a5.25 5.25 0 0 0-5.25 5.25v90c0 2.9 2.35 5.25 5.25 5.25H902a5.25 5.25 0 0 0 5.25-5.25v-82.5c0-7.04-5.708-12.75-12.75-12.75Zm-75 0h27.376a5.25 5.25 0 0 1 5.25 5.25v16.61a5.25 5.25 0 0 1-5.25 5.25H812a5.25 5.25 0 0 1-5.25-5.25v-9.11c0-7.04 5.708-12.75 12.75-12.75Zm-7.5 36.86a5.256 5.256 0 0 0-5.25 5.25v16.62a5.25 5.25 0 0 0 5.25 5.25h34.876a5.25 5.25 0 0 0 5.25-5.25v-16.62c0-2.89-2.351-5.25-5.25-5.25H812Zm0 63.64a5.25 5.25 0 0 1-5.25-5.25v-16.27a5.25 5.25 0 0 1 5.25-5.25h34.876a5.25 5.25 0 0 1 5.25 5.25V1566a5.25 5.25 0 0 1-5.25 5.25H812Z" clip-rule="evenodd"/></g></g></g><g id="Ultralight-L"><g id="Outline / Post automat Outline_9"><g id="Shape_9" fill="#000"><path d="M580.873 1511.23a5.25 5.25 0 0 0-5.25 5.25v9.04c0 2.9 2.35 5.25 5.25 5.25h15.03a5.25 5.25 0 0 0 5.25-5.25v-9.04a5.25 5.25 0 0 0-5.25-5.25h-15.03Z"/><path fill-rule="evenodd" d="M523.5 1461c-12.426 0-22.5 10.07-22.5 22.5v87.75c0 5.38 4.365 9.75 9.75 9.75h100.5c5.385 0 9.75-4.37 9.75-9.75v-87.75c0-12.43-10.074-22.5-22.5-22.5h-75Zm75 9.75h-27.374a5.25 5.25 0 0 0-5.25 5.25v90c0 2.9 2.35 5.25 5.25 5.25H606a5.25 5.25 0 0 0 5.25-5.25v-82.5c0-7.04-5.708-12.75-12.75-12.75Zm-75 0h27.376a5.25 5.25 0 0 1 5.25 5.25v16.61a5.25 5.25 0 0 1-5.25 5.25H516a5.25 5.25 0 0 1-5.25-5.25v-9.11c0-7.04 5.708-12.75 12.75-12.75Zm-7.5 36.86a5.256 5.256 0 0 0-5.25 5.25v16.62a5.25 5.25 0 0 0 5.25 5.25h34.876a5.25 5.25 0 0 0 5.25-5.25v-16.62c0-2.89-2.351-5.25-5.25-5.25H516Zm0 63.64a5.25 5.25 0 0 1-5.25-5.25v-16.27a5.25 5.25 0 0 1 5.25-5.25h34.876a5.25 5.25 0 0 1 5.25 5.25V1566a5.25 5.25 0 0 1-5.25 5.25H516Z" clip-rule="evenodd"/></g></g></g><g id="Black-M"><g id="Outline / Post automat Outline_10"><g id="Shape_10" fill="#000"><path d="M2944.46 1083.4a4.08 4.08 0 0 0-4.09 4.08v7.04c0 2.25 1.83 4.08 4.09 4.08h11.69c2.25 0 4.08-1.83 4.08-4.08v-7.04c0-2.26-1.83-4.08-4.08-4.08h-11.69Z"/><path fill-rule="evenodd" d="M2899.83 1044.33c-9.66 0-17.5 7.84-17.5 17.5v68.25c0 4.19 3.4 7.59 7.59 7.59h78.16c4.19 0 7.59-3.4 7.59-7.59v-68.25c0-9.66-7.84-17.5-17.5-17.5h-58.34Zm58.34 7.59h-21.29a4.08 4.08 0 0 0-4.09 4.08v70c0 2.25 1.83 4.08 4.09 4.08H2964c2.26 0 4.08-1.83 4.08-4.08v-64.17c0-5.47-4.44-9.91-9.91-9.91Zm-58.34 0h21.3c2.25 0 4.08 1.82 4.08 4.08v12.92c0 2.26-1.83 4.08-4.08 4.08H2894c-2.25 0-4.08-1.82-4.08-4.08v-7.09c0-5.47 4.44-9.91 9.91-9.91Zm-5.83 28.67c-2.25 0-4.08 1.83-4.08 4.08v12.92c0 2.26 1.83 4.09 4.08 4.09h27.13c2.25 0 4.08-1.83 4.08-4.09v-12.92c0-2.25-1.83-4.08-4.08-4.08H2894Zm0 49.49c-2.25 0-4.08-1.83-4.08-4.08v-12.66c0-2.25 1.83-4.08 4.08-4.08h27.13c2.25 0 4.08 1.83 4.08 4.08V1126c0 2.25-1.83 4.08-4.08 4.08H2894Z" clip-rule="evenodd"/></g></g></g><g id="Heavy-M"><g id="Outline / Post automat Outline_11"><g id="Shape_11" fill="#000"><path d="M2648.46 1083.4a4.08 4.08 0 0 0-4.09 4.08v7.04c0 2.25 1.83 4.08 4.09 4.08h11.69c2.25 0 4.08-1.83 4.08-4.08v-7.04c0-2.26-1.83-4.08-4.08-4.08h-11.69Z"/><path fill-rule="evenodd" d="M2603.83 1044.33c-9.66 0-17.5 7.84-17.5 17.5v68.25c0 4.19 3.4 7.59 7.59 7.59h78.16c4.19 0 7.59-3.4 7.59-7.59v-68.25c0-9.66-7.84-17.5-17.5-17.5h-58.34Zm58.34 7.59h-21.29a4.08 4.08 0 0 0-4.09 4.08v70c0 2.25 1.83 4.08 4.09 4.08H2668c2.26 0 4.08-1.83 4.08-4.08v-64.17c0-5.47-4.44-9.91-9.91-9.91Zm-58.34 0h21.3c2.25 0 4.08 1.82 4.08 4.08v12.92c0 2.26-1.83 4.08-4.08 4.08H2598c-2.25 0-4.08-1.82-4.08-4.08v-7.09c0-5.47 4.44-9.91 9.91-9.91Zm-5.83 28.67c-2.25 0-4.08 1.83-4.08 4.08v12.92c0 2.26 1.83 4.09 4.08 4.09h27.13c2.25 0 4.08-1.83 4.08-4.09v-12.92c0-2.25-1.83-4.08-4.08-4.08H2598Zm0 49.49c-2.25 0-4.08-1.83-4.08-4.08v-12.66c0-2.25 1.83-4.08 4.08-4.08h27.13c2.25 0 4.08 1.83 4.08 4.08V1126c0 2.25-1.83 4.08-4.08 4.08H2598Z" clip-rule="evenodd"/></g></g></g><g id="Bold-M"><g id="Outline / Post automat Outline_12"><g id="Shape_12" fill="#000"><path d="M2352.46 1083.4a4.08 4.08 0 0 0-4.09 4.08v7.04c0 2.25 1.83 4.08 4.09 4.08h11.69c2.25 0 4.08-1.83 4.08-4.08v-7.04c0-2.26-1.83-4.08-4.08-4.08h-11.69Z"/><path fill-rule="evenodd" d="M2307.83 1044.33c-9.66 0-17.5 7.84-17.5 17.5v68.25c0 4.19 3.4 7.59 7.59 7.59h78.16c4.19 0 7.59-3.4 7.59-7.59v-68.25c0-9.66-7.84-17.5-17.5-17.5h-58.34Zm58.34 7.59h-21.29a4.08 4.08 0 0 0-4.09 4.08v70c0 2.25 1.83 4.08 4.09 4.08H2372c2.26 0 4.08-1.83 4.08-4.08v-64.17c0-5.47-4.44-9.91-9.91-9.91Zm-58.34 0h21.3c2.25 0 4.08 1.82 4.08 4.08v12.92c0 2.26-1.83 4.08-4.08 4.08H2302c-2.25 0-4.08-1.82-4.08-4.08v-7.09c0-5.47 4.44-9.91 9.91-9.91Zm-5.83 28.67c-2.25 0-4.08 1.83-4.08 4.08v12.92c0 2.26 1.83 4.09 4.08 4.09h27.13c2.25 0 4.08-1.83 4.08-4.09v-12.92c0-2.25-1.83-4.08-4.08-4.08H2302Zm0 49.49c-2.25 0-4.08-1.83-4.08-4.08v-12.66c0-2.25 1.83-4.08 4.08-4.08h27.13c2.25 0 4.08 1.83 4.08 4.08V1126c0 2.25-1.83 4.08-4.08 4.08H2302Z" clip-rule="evenodd"/></g></g></g><g id="Semibold-M"><g id="Outline / Post automat Outline_13"><g id="Shape_13" fill="#000"><path d="M2056.46 1083.4a4.08 4.08 0 0 0-4.09 4.08v7.04c0 2.25 1.83 4.08 4.09 4.08h11.69c2.25 0 4.08-1.83 4.08-4.08v-7.04c0-2.26-1.83-4.08-4.08-4.08h-11.69Z"/><path fill-rule="evenodd" d="M2011.83 1044.33c-9.66 0-17.5 7.84-17.5 17.5v68.25c0 4.19 3.4 7.59 7.59 7.59h78.16c4.19 0 7.59-3.4 7.59-7.59v-68.25c0-9.66-7.84-17.5-17.5-17.5h-58.34Zm58.34 7.59h-21.29a4.08 4.08 0 0 0-4.09 4.08v70c0 2.25 1.83 4.08 4.09 4.08H2076c2.26 0 4.08-1.83 4.08-4.08v-64.17c0-5.47-4.44-9.91-9.91-9.91Zm-58.34 0h21.3c2.25 0 4.08 1.82 4.08 4.08v12.92c0 2.26-1.83 4.08-4.08 4.08H2006c-2.25 0-4.08-1.82-4.08-4.08v-7.09c0-5.47 4.44-9.91 9.91-9.91Zm-5.83 28.67c-2.25 0-4.08 1.83-4.08 4.08v12.92c0 2.26 1.83 4.09 4.08 4.09h27.13c2.25 0 4.08-1.83 4.08-4.09v-12.92c0-2.25-1.83-4.08-4.08-4.08H2006Zm0 49.49c-2.25 0-4.08-1.83-4.08-4.08v-12.66c0-2.25 1.83-4.08 4.08-4.08h27.13c2.25 0 4.08 1.83 4.08 4.08V1126c0 2.25-1.83 4.08-4.08 4.08H2006Z" clip-rule="evenodd"/></g></g></g><g id="Medium-M"><g id="Outline / Post automat Outline_14"><g id="Shape_14" fill="#000"><path d="M1760.46 1083.4a4.08 4.08 0 0 0-4.09 4.08v7.04c0 2.25 1.83 4.08 4.09 4.08h11.69c2.25 0 4.08-1.83 4.08-4.08v-7.04c0-2.26-1.83-4.08-4.08-4.08h-11.69Z"/><path fill-rule="evenodd" d="M1715.83 1044.33c-9.66 0-17.5 7.84-17.5 17.5v68.25c0 4.19 3.4 7.59 7.59 7.59h78.16c4.19 0 7.59-3.4 7.59-7.59v-68.25c0-9.66-7.84-17.5-17.5-17.5h-58.34Zm58.34 7.59h-21.29a4.08 4.08 0 0 0-4.09 4.08v70c0 2.25 1.83 4.08 4.09 4.08H1780c2.26 0 4.08-1.83 4.08-4.08v-64.17c0-5.47-4.44-9.91-9.91-9.91Zm-58.34 0h21.3c2.25 0 4.08 1.82 4.08 4.08v12.92c0 2.26-1.83 4.08-4.08 4.08H1710c-2.25 0-4.08-1.82-4.08-4.08v-7.09c0-5.47 4.44-9.91 9.91-9.91Zm-5.83 28.67c-2.25 0-4.08 1.83-4.08 4.08v12.92c0 2.26 1.83 4.09 4.08 4.09h27.13c2.25 0 4.08-1.83 4.08-4.09v-12.92c0-2.25-1.83-4.08-4.08-4.08H1710Zm0 49.49c-2.25 0-4.08-1.83-4.08-4.08v-12.66c0-2.25 1.83-4.08 4.08-4.08h27.13c2.25 0 4.08 1.83 4.08 4.08V1126c0 2.25-1.83 4.08-4.08 4.08H1710Z" clip-rule="evenodd"/></g></g></g><g id="Regular-M"><g id="Outline / Post automat Outline_15"><g id="Shape_15" fill="#000"><path d="M1464.46 1083.4a4.08 4.08 0 0 0-4.09 4.08v7.04c0 2.25 1.83 4.08 4.09 4.08h11.69c2.25 0 4.08-1.83 4.08-4.08v-7.04c0-2.26-1.83-4.08-4.08-4.08h-11.69Z"/><path fill-rule="evenodd" d="M1419.83 1044.33c-9.66 0-17.5 7.84-17.5 17.5v68.25c0 4.19 3.4 7.59 7.59 7.59h78.16c4.19 0 7.59-3.4 7.59-7.59v-68.25c0-9.66-7.84-17.5-17.5-17.5h-58.34Zm58.34 7.59h-21.29a4.08 4.08 0 0 0-4.09 4.08v70c0 2.25 1.83 4.08 4.09 4.08H1484c2.26 0 4.08-1.83 4.08-4.08v-64.17c0-5.47-4.44-9.91-9.91-9.91Zm-58.34 0h21.3c2.25 0 4.08 1.82 4.08 4.08v12.92c0 2.26-1.83 4.08-4.08 4.08H1414c-2.25 0-4.08-1.82-4.08-4.08v-7.09c0-5.47 4.44-9.91 9.91-9.91Zm-5.83 28.67c-2.25 0-4.08 1.83-4.08 4.08v12.92c0 2.26 1.83 4.09 4.08 4.09h27.13c2.25 0 4.08-1.83 4.08-4.09v-12.92c0-2.25-1.83-4.08-4.08-4.08H1414Zm0 49.49c-2.25 0-4.08-1.83-4.08-4.08v-12.66c0-2.25 1.83-4.08 4.08-4.08h27.13c2.25 0 4.08 1.83 4.08 4.08V1126c0 2.25-1.83 4.08-4.08 4.08H1414Z" clip-rule="evenodd"/></g></g></g><g id="Light-M"><g id="Outline / Post automat Outline_16"><g id="Shape_16" fill="#000"><path d="M1168.46 1083.4a4.08 4.08 0 0 0-4.09 4.08v7.04c0 2.25 1.83 4.08 4.09 4.08h11.69c2.25 0 4.08-1.83 4.08-4.08v-7.04c0-2.26-1.83-4.08-4.08-4.08h-11.69Z"/><path fill-rule="evenodd" d="M1123.83 1044.33c-9.66 0-17.5 7.84-17.5 17.5v68.25c0 4.19 3.4 7.59 7.59 7.59h78.16c4.19 0 7.59-3.4 7.59-7.59v-68.25c0-9.66-7.84-17.5-17.5-17.5h-58.34Zm58.34 7.59h-21.29a4.08 4.08 0 0 0-4.09 4.08v70c0 2.25 1.83 4.08 4.09 4.08H1188c2.26 0 4.08-1.83 4.08-4.08v-64.17c0-5.47-4.44-9.91-9.91-9.91Zm-58.34 0h21.3c2.25 0 4.08 1.82 4.08 4.08v12.92c0 2.26-1.83 4.08-4.08 4.08H1118c-2.25 0-4.08-1.82-4.08-4.08v-7.09c0-5.47 4.44-9.91 9.91-9.91Zm-5.83 28.67c-2.25 0-4.08 1.83-4.08 4.08v12.92c0 2.26 1.83 4.09 4.08 4.09h27.13c2.25 0 4.08-1.83 4.08-4.09v-12.92c0-2.25-1.83-4.08-4.08-4.08H1118Zm0 49.49c-2.25 0-4.08-1.83-4.08-4.08v-12.66c0-2.25 1.83-4.08 4.08-4.08h27.13c2.25 0 4.08 1.83 4.08 4.08V1126c0 2.25-1.83 4.08-4.08 4.08H1118Z" clip-rule="evenodd"/></g></g></g><g id="Thin-M"><g id="Outline / Post automat Outline_17"><g id="Shape_17" fill="#000"><path d="M872.457 1083.4a4.077 4.077 0 0 0-4.083 4.08v7.04c0 2.25 1.828 4.08 4.083 4.08h11.69a4.084 4.084 0 0 0 4.083-4.08v-7.04c0-2.26-1.828-4.08-4.083-4.08h-11.69Z"/><path fill-rule="evenodd" d="M827.834 1044.33c-9.665 0-17.5 7.84-17.5 17.5v68.25c0 4.19 3.395 7.59 7.583 7.59h78.167c4.188 0 7.583-3.4 7.583-7.59v-68.25c0-9.66-7.835-17.5-17.5-17.5h-58.333Zm58.333 7.59h-21.291a4.077 4.077 0 0 0-4.083 4.08v70c0 2.25 1.828 4.08 4.083 4.08h27.125a4.084 4.084 0 0 0 4.083-4.08v-64.17c0-5.47-4.44-9.91-9.917-9.91Zm-58.333 0h21.292a4.078 4.078 0 0 1 4.084 4.08v12.92c0 2.26-1.829 4.08-4.084 4.08h-27.125a4.077 4.077 0 0 1-4.084-4.08v-7.09c0-5.47 4.44-9.91 9.917-9.91Zm-5.833 28.67a4.084 4.084 0 0 0-4.084 4.08v12.92c0 2.26 1.828 4.09 4.084 4.09h27.125a4.087 4.087 0 0 0 4.084-4.09v-12.92c0-2.25-1.829-4.08-4.084-4.08h-27.125Zm0 49.49a4.084 4.084 0 0 1-4.084-4.08v-12.66c0-2.25 1.828-4.08 4.084-4.08h27.125a4.084 4.084 0 0 1 4.084 4.08V1126c0 2.25-1.829 4.08-4.084 4.08h-27.125Z" clip-rule="evenodd"/></g></g></g><g id="Ultralight-M"><g id="Outline / Post automat Outline_18"><g id="Shape_18" fill="#000"><path d="M576.457 1083.4a4.077 4.077 0 0 0-4.083 4.08v7.04c0 2.25 1.828 4.08 4.083 4.08h11.69a4.084 4.084 0 0 0 4.083-4.08v-7.04c0-2.26-1.828-4.08-4.083-4.08h-11.69Z"/><path fill-rule="evenodd" d="M531.834 1044.33c-9.665 0-17.5 7.84-17.5 17.5v68.25c0 4.19 3.395 7.59 7.583 7.59h78.167c4.188 0 7.583-3.4 7.583-7.59v-68.25c0-9.66-7.835-17.5-17.5-17.5h-58.333Zm58.333 7.59h-21.291a4.077 4.077 0 0 0-4.083 4.08v70c0 2.25 1.828 4.08 4.083 4.08h27.125a4.084 4.084 0 0 0 4.083-4.08v-64.17c0-5.47-4.44-9.91-9.917-9.91Zm-58.333 0h21.292a4.078 4.078 0 0 1 4.084 4.08v12.92c0 2.26-1.829 4.08-4.084 4.08h-27.125a4.077 4.077 0 0 1-4.084-4.08v-7.09c0-5.47 4.44-9.91 9.917-9.91Zm-5.833 28.67a4.084 4.084 0 0 0-4.084 4.08v12.92c0 2.26 1.828 4.09 4.084 4.09h27.125a4.087 4.087 0 0 0 4.084-4.09v-12.92c0-2.25-1.829-4.08-4.084-4.08h-27.125Zm0 49.49a4.084 4.084 0 0 1-4.084-4.08v-12.66c0-2.25 1.828-4.08 4.084-4.08h27.125a4.084 4.084 0 0 1 4.084 4.08V1126c0 2.25-1.829 4.08-4.084 4.08h-27.125Z" clip-rule="evenodd"/></g></g></g><g id="Black-S"><g id="Outline / Post automat Outline_19"><g id="Shape_19" fill="#000"><path d="M2940.04 655.571a2.92 2.92 0 0 0-2.92 2.917v5.026a2.92 2.92 0 0 0 2.92 2.917h8.35a2.92 2.92 0 0 0 2.92-2.917v-5.026a2.92 2.92 0 0 0-2.92-2.917h-8.35Z"/><path fill-rule="evenodd" d="M2908.17 627.668c-6.91 0-12.5 5.596-12.5 12.5v48.75a5.412 5.412 0 0 0 5.41 5.417h55.84c2.99 0 5.41-2.425 5.41-5.417v-48.75c0-6.904-5.59-12.5-12.5-12.5h-41.66Zm41.66 5.417h-15.21a2.91 2.91 0 0 0-2.91 2.916v50c0 1.611 1.3 2.917 2.91 2.917H2954a2.92 2.92 0 0 0 2.92-2.917v-45.833c0-3.912-3.18-7.083-7.09-7.083Zm-41.66 0h15.2c1.62 0 2.92 1.305 2.92 2.916v9.231c0 1.61-1.3 2.916-2.92 2.916H2904a2.92 2.92 0 0 1-2.92-2.916v-5.064a7.084 7.084 0 0 1 7.09-7.083Zm-4.17 20.48a2.92 2.92 0 0 0-2.92 2.917v9.231a2.92 2.92 0 0 0 2.92 2.916h19.37c1.62 0 2.92-1.306 2.92-2.917v-9.23c0-1.611-1.3-2.917-2.92-2.917H2904Zm0 35.353a2.92 2.92 0 0 1-2.92-2.917v-9.039a2.92 2.92 0 0 1 2.92-2.916h19.37c1.62 0 2.92 1.306 2.92 2.917v9.038c0 1.611-1.3 2.917-2.92 2.917H2904Z" clip-rule="evenodd"/></g></g></g><g id="Heavy-S"><g id="Outline / Post automat Outline_20"><g id="Shape_20" fill="#000"><path d="M2644.04 655.571a2.92 2.92 0 0 0-2.92 2.917v5.026a2.92 2.92 0 0 0 2.92 2.917h8.35a2.92 2.92 0 0 0 2.92-2.917v-5.026a2.92 2.92 0 0 0-2.92-2.917h-8.35Z"/><path fill-rule="evenodd" d="M2612.17 627.668c-6.91 0-12.5 5.596-12.5 12.5v48.75a5.412 5.412 0 0 0 5.41 5.417h55.84c2.99 0 5.41-2.425 5.41-5.417v-48.75c0-6.904-5.59-12.5-12.5-12.5h-41.66Zm41.66 5.417h-15.21a2.91 2.91 0 0 0-2.91 2.916v50c0 1.611 1.3 2.917 2.91 2.917H2658a2.92 2.92 0 0 0 2.92-2.917v-45.833c0-3.912-3.18-7.083-7.09-7.083Zm-41.66 0h15.2c1.62 0 2.92 1.305 2.92 2.916v9.231c0 1.61-1.3 2.916-2.92 2.916H2608a2.92 2.92 0 0 1-2.92-2.916v-5.064a7.084 7.084 0 0 1 7.09-7.083Zm-4.17 20.48a2.92 2.92 0 0 0-2.92 2.917v9.231a2.92 2.92 0 0 0 2.92 2.916h19.37c1.62 0 2.92-1.306 2.92-2.917v-9.23c0-1.611-1.3-2.917-2.92-2.917H2608Zm0 35.353a2.92 2.92 0 0 1-2.92-2.917v-9.039a2.92 2.92 0 0 1 2.92-2.916h19.37c1.62 0 2.92 1.306 2.92 2.917v9.038c0 1.611-1.3 2.917-2.92 2.917H2608Z" clip-rule="evenodd"/></g></g></g><g id="Bold-S"><g id="Outline / Post automat Outline_21"><g id="Shape_21" fill="#000"><path d="M2348.04 655.571a2.92 2.92 0 0 0-2.92 2.917v5.026a2.92 2.92 0 0 0 2.92 2.917h8.35a2.92 2.92 0 0 0 2.92-2.917v-5.026a2.92 2.92 0 0 0-2.92-2.917h-8.35Z"/><path fill-rule="evenodd" d="M2316.17 627.668c-6.91 0-12.5 5.596-12.5 12.5v48.75a5.412 5.412 0 0 0 5.41 5.417h55.84c2.99 0 5.41-2.425 5.41-5.417v-48.75c0-6.904-5.59-12.5-12.5-12.5h-41.66Zm41.66 5.417h-15.21a2.91 2.91 0 0 0-2.91 2.916v50c0 1.611 1.3 2.917 2.91 2.917H2362a2.92 2.92 0 0 0 2.92-2.917v-45.833c0-3.912-3.18-7.083-7.09-7.083Zm-41.66 0h15.2c1.62 0 2.92 1.305 2.92 2.916v9.231c0 1.61-1.3 2.916-2.92 2.916H2312a2.92 2.92 0 0 1-2.92-2.916v-5.064a7.084 7.084 0 0 1 7.09-7.083Zm-4.17 20.48a2.92 2.92 0 0 0-2.92 2.917v9.231a2.92 2.92 0 0 0 2.92 2.916h19.37c1.62 0 2.92-1.306 2.92-2.917v-9.23c0-1.611-1.3-2.917-2.92-2.917H2312Zm0 35.353a2.92 2.92 0 0 1-2.92-2.917v-9.039a2.92 2.92 0 0 1 2.92-2.916h19.37c1.62 0 2.92 1.306 2.92 2.917v9.038c0 1.611-1.3 2.917-2.92 2.917H2312Z" clip-rule="evenodd"/></g></g></g><g id="Semibold-S"><g id="Outline / Post automat Outline_22"><g id="Shape_22" fill="#000"><path d="M2052.04 655.571a2.92 2.92 0 0 0-2.92 2.917v5.026a2.92 2.92 0 0 0 2.92 2.917h8.35a2.92 2.92 0 0 0 2.92-2.917v-5.026a2.92 2.92 0 0 0-2.92-2.917h-8.35Z"/><path fill-rule="evenodd" d="M2020.17 627.668c-6.91 0-12.5 5.596-12.5 12.5v48.75a5.412 5.412 0 0 0 5.41 5.417h55.84c2.99 0 5.41-2.425 5.41-5.417v-48.75c0-6.904-5.59-12.5-12.5-12.5h-41.66Zm41.66 5.417h-15.21a2.91 2.91 0 0 0-2.91 2.916v50c0 1.611 1.3 2.917 2.91 2.917H2066a2.92 2.92 0 0 0 2.92-2.917v-45.833c0-3.912-3.18-7.083-7.09-7.083Zm-41.66 0h15.2c1.62 0 2.92 1.305 2.92 2.916v9.231c0 1.61-1.3 2.916-2.92 2.916H2016a2.92 2.92 0 0 1-2.92-2.916v-5.064a7.084 7.084 0 0 1 7.09-7.083Zm-4.17 20.48a2.92 2.92 0 0 0-2.92 2.917v9.231a2.92 2.92 0 0 0 2.92 2.916h19.37c1.62 0 2.92-1.306 2.92-2.917v-9.23c0-1.611-1.3-2.917-2.92-2.917H2016Zm0 35.353a2.92 2.92 0 0 1-2.92-2.917v-9.039a2.92 2.92 0 0 1 2.92-2.916h19.37c1.62 0 2.92 1.306 2.92 2.917v9.038c0 1.611-1.3 2.917-2.92 2.917H2016Z" clip-rule="evenodd"/></g></g></g><g id="Medium-S"><g id="Outline / Post automat Outline_23"><g id="Shape_23" fill="#000"><path d="M1756.04 655.571a2.92 2.92 0 0 0-2.92 2.917v5.026a2.92 2.92 0 0 0 2.92 2.917h8.35a2.92 2.92 0 0 0 2.92-2.917v-5.026a2.92 2.92 0 0 0-2.92-2.917h-8.35Z"/><path fill-rule="evenodd" d="M1724.17 627.668c-6.91 0-12.5 5.596-12.5 12.5v48.75a5.412 5.412 0 0 0 5.41 5.417h55.84c2.99 0 5.41-2.425 5.41-5.417v-48.75c0-6.904-5.59-12.5-12.5-12.5h-41.66Zm41.66 5.417h-15.21a2.91 2.91 0 0 0-2.91 2.916v50c0 1.611 1.3 2.917 2.91 2.917H1770a2.92 2.92 0 0 0 2.92-2.917v-45.833c0-3.912-3.18-7.083-7.09-7.083Zm-41.66 0h15.2c1.62 0 2.92 1.305 2.92 2.916v9.231c0 1.61-1.3 2.916-2.92 2.916H1720a2.92 2.92 0 0 1-2.92-2.916v-5.064a7.084 7.084 0 0 1 7.09-7.083Zm-4.17 20.48a2.92 2.92 0 0 0-2.92 2.917v9.231a2.92 2.92 0 0 0 2.92 2.916h19.37c1.62 0 2.92-1.306 2.92-2.917v-9.23c0-1.611-1.3-2.917-2.92-2.917H1720Zm0 35.353a2.92 2.92 0 0 1-2.92-2.917v-9.039a2.92 2.92 0 0 1 2.92-2.916h19.37c1.62 0 2.92 1.306 2.92 2.917v9.038c0 1.611-1.3 2.917-2.92 2.917H1720Z" clip-rule="evenodd"/></g></g></g><g id="Regular-S"><g id="Outline / Post automat Outline_24"><g id="Shape_24" fill="#000"><path d="M1460.04 655.571a2.92 2.92 0 0 0-2.92 2.917v5.026a2.92 2.92 0 0 0 2.92 2.917h8.35a2.92 2.92 0 0 0 2.92-2.917v-5.026a2.92 2.92 0 0 0-2.92-2.917h-8.35Z"/><path fill-rule="evenodd" d="M1428.17 627.668c-6.91 0-12.5 5.596-12.5 12.5v48.75a5.412 5.412 0 0 0 5.41 5.417h55.84c2.99 0 5.41-2.425 5.41-5.417v-48.75c0-6.904-5.59-12.5-12.5-12.5h-41.66Zm41.66 5.417h-15.21a2.91 2.91 0 0 0-2.91 2.916v50c0 1.611 1.3 2.917 2.91 2.917H1474a2.92 2.92 0 0 0 2.92-2.917v-45.833c0-3.912-3.18-7.083-7.09-7.083Zm-41.66 0h15.2c1.62 0 2.92 1.305 2.92 2.916v9.231c0 1.61-1.3 2.916-2.92 2.916H1424a2.92 2.92 0 0 1-2.92-2.916v-5.064a7.084 7.084 0 0 1 7.09-7.083Zm-4.17 20.48a2.92 2.92 0 0 0-2.92 2.917v9.231a2.92 2.92 0 0 0 2.92 2.916h19.37c1.62 0 2.92-1.306 2.92-2.917v-9.23c0-1.611-1.3-2.917-2.92-2.917H1424Zm0 35.353a2.92 2.92 0 0 1-2.92-2.917v-9.039a2.92 2.92 0 0 1 2.92-2.916h19.37c1.62 0 2.92 1.306 2.92 2.917v9.038c0 1.611-1.3 2.917-2.92 2.917H1424Z" clip-rule="evenodd"/></g></g></g><g id="Light-S"><g id="Outline / Post automat Outline_25"><g id="Shape_25" fill="#000"><path d="M1164.04 655.571a2.92 2.92 0 0 0-2.92 2.917v5.026a2.92 2.92 0 0 0 2.92 2.917h8.35a2.92 2.92 0 0 0 2.92-2.917v-5.026a2.92 2.92 0 0 0-2.92-2.917h-8.35Z"/><path fill-rule="evenodd" d="M1132.17 627.668c-6.91 0-12.5 5.596-12.5 12.5v48.75a5.412 5.412 0 0 0 5.41 5.417h55.84c2.99 0 5.41-2.425 5.41-5.417v-48.75c0-6.904-5.59-12.5-12.5-12.5h-41.66Zm41.66 5.417h-15.21a2.91 2.91 0 0 0-2.91 2.916v50c0 1.611 1.3 2.917 2.91 2.917H1178a2.92 2.92 0 0 0 2.92-2.917v-45.833c0-3.912-3.18-7.083-7.09-7.083Zm-41.66 0h15.2c1.62 0 2.92 1.305 2.92 2.916v9.231c0 1.61-1.3 2.916-2.92 2.916H1128a2.92 2.92 0 0 1-2.92-2.916v-5.064a7.084 7.084 0 0 1 7.09-7.083Zm-4.17 20.48a2.92 2.92 0 0 0-2.92 2.917v9.231a2.92 2.92 0 0 0 2.92 2.916h19.37c1.62 0 2.92-1.306 2.92-2.917v-9.23c0-1.611-1.3-2.917-2.92-2.917H1128Zm0 35.353a2.92 2.92 0 0 1-2.92-2.917v-9.039a2.92 2.92 0 0 1 2.92-2.916h19.37c1.62 0 2.92 1.306 2.92 2.917v9.038c0 1.611-1.3 2.917-2.92 2.917H1128Z" clip-rule="evenodd"/></g></g></g><g id="Thin-S"><g id="Outline / Post automat Outline_26"><g id="Shape_26" fill="#000"><path d="M868.04 655.571a2.917 2.917 0 0 0-2.917 2.917v5.026a2.917 2.917 0 0 0 2.917 2.917h8.35a2.917 2.917 0 0 0 2.916-2.917v-5.026a2.917 2.917 0 0 0-2.916-2.917h-8.35Z"/><path fill-rule="evenodd" d="M836.166 627.668c-6.904 0-12.5 5.596-12.5 12.5v48.75a5.417 5.417 0 0 0 5.417 5.417h55.833a5.417 5.417 0 0 0 5.417-5.417v-48.75c0-6.904-5.597-12.5-12.5-12.5h-41.667Zm41.667 5.417h-15.208a2.916 2.916 0 0 0-2.917 2.916v50a2.917 2.917 0 0 0 2.917 2.917h19.374a2.917 2.917 0 0 0 2.917-2.917v-45.833a7.083 7.083 0 0 0-7.083-7.083Zm-41.667 0h15.209a2.915 2.915 0 0 1 2.916 2.916v9.231a2.916 2.916 0 0 1-2.916 2.916h-19.376a2.917 2.917 0 0 1-2.916-2.916v-5.064a7.083 7.083 0 0 1 7.083-7.083Zm-4.167 20.48a2.917 2.917 0 0 0-2.916 2.917v9.231a2.917 2.917 0 0 0 2.916 2.916h19.376a2.916 2.916 0 0 0 2.916-2.917v-9.23a2.916 2.916 0 0 0-2.916-2.917h-19.376Zm0 35.353a2.917 2.917 0 0 1-2.916-2.917v-9.039a2.917 2.917 0 0 1 2.916-2.916h19.376a2.916 2.916 0 0 1 2.916 2.917v9.038a2.916 2.916 0 0 1-2.916 2.917h-19.376Z" clip-rule="evenodd"/></g></g></g><g id="Ultralight-S"><g id="Outline / Post automat Outline_27"><g id="Shape_27" fill="#000"><path d="M572.04 655.571a2.917 2.917 0 0 0-2.917 2.917v5.026a2.917 2.917 0 0 0 2.917 2.917h8.35a2.917 2.917 0 0 0 2.916-2.917v-5.026a2.917 2.917 0 0 0-2.916-2.917h-8.35Z"/><path fill-rule="evenodd" d="M540.166 627.668c-6.904 0-12.5 5.596-12.5 12.5v48.75a5.417 5.417 0 0 0 5.417 5.417h55.833a5.417 5.417 0 0 0 5.417-5.417v-48.75c0-6.904-5.597-12.5-12.5-12.5h-41.667Zm41.667 5.417h-15.208a2.916 2.916 0 0 0-2.917 2.916v50a2.917 2.917 0 0 0 2.917 2.917h19.374a2.917 2.917 0 0 0 2.917-2.917v-45.833a7.083 7.083 0 0 0-7.083-7.083Zm-41.667 0h15.209a2.915 2.915 0 0 1 2.916 2.916v9.231a2.916 2.916 0 0 1-2.916 2.916h-19.376a2.917 2.917 0 0 1-2.916-2.916v-5.064a7.083 7.083 0 0 1 7.083-7.083Zm-4.167 20.48a2.917 2.917 0 0 0-2.916 2.917v9.231a2.917 2.917 0 0 0 2.916 2.916h19.376a2.916 2.916 0 0 0 2.916-2.917v-9.23a2.916 2.916 0 0 0-2.916-2.917h-19.376Zm0 35.353a2.917 2.917 0 0 1-2.916-2.917v-9.039a2.917 2.917 0 0 1 2.916-2.916h19.376a2.916 2.916 0 0 1 2.916 2.917v9.038a2.916 2.916 0 0 1-2.916 2.917h-19.376Z" clip-rule="evenodd"/></g></g></g></g></g><defs><clipPath id="clip0_0_1"><path fill="#fff" d="M0 0h3300v2200H0z"/></clipPath></defs></svg>