<svg width="3300" height="2200" viewBox="0 0 3300 2200" fill="none" xmlns="http://www.w3.org/2000/svg">
<rect width="3300" height="2200" fill="#E5E5E5"/>
<g id="System / Outline / Email" clip-path="url(#clip0_805_27002)">
<g id="Notes">
<path id="artboard" d="M3300 0H0V2200H3300V0Z" fill="white"/>
<path id="Vector" d="M263 292H3036" stroke="black" stroke-width="0.5"/>
<text id="Weight/Scale Variations" fill="black" xml:space="preserve" style="white-space: pre" font-family="Roboto" font-size="12" letter-spacing="0em"><tspan x="263" y="321.102">Weight/Scale Variations</tspan></text>
<text id="Ultralight" fill="black" xml:space="preserve" style="white-space: pre" font-family="Roboto" font-size="12" letter-spacing="0em"><tspan x="535.211" y="321.102">Ultralight</tspan></text>
<text id="Thin" fill="black" xml:space="preserve" style="white-space: pre" font-family="Roboto" font-size="12" letter-spacing="0em"><tspan x="844.422" y="321.102">Thin</tspan></text>
<text id="Light" fill="black" xml:space="preserve" style="white-space: pre" font-family="Roboto" font-size="12" letter-spacing="0em"><tspan x="1139.63" y="321.102">Light</tspan></text>
<text id="Regular" fill="black" xml:space="preserve" style="white-space: pre" font-family="Roboto" font-size="12" letter-spacing="0em"><tspan x="1429.34" y="321.102">Regular</tspan></text>
<text id="Medium" fill="black" xml:space="preserve" style="white-space: pre" font-family="Roboto" font-size="12" letter-spacing="0em"><tspan x="1724.56" y="321.102">Medium</tspan></text>
<text id="Semibold" fill="black" xml:space="preserve" style="white-space: pre" font-family="Roboto" font-size="12" letter-spacing="0em"><tspan x="2017.77" y="321.102">Semibold</tspan></text>
<text id="Bold" fill="black" xml:space="preserve" style="white-space: pre" font-family="Roboto" font-size="12" letter-spacing="0em"><tspan x="2327.48" y="321.102">Bold</tspan></text>
<text id="Heavy" fill="black" xml:space="preserve" style="white-space: pre" font-family="Roboto" font-size="12" letter-spacing="0em"><tspan x="2620.19" y="321.102">Heavy</tspan></text>
<text id="Black" fill="black" xml:space="preserve" style="white-space: pre" font-family="Roboto" font-size="12" letter-spacing="0em"><tspan x="2918.4" y="321.102">Black</tspan></text>
<path id="Vector_2" d="M263 1903H3036" stroke="black" stroke-width="0.5"/>
<g id="Group">
<path id="Vector_3" d="M272.248 1933.83C276.555 1933.83 280.139 1930.26 280.139 1925.95C280.139 1921.64 276.545 1918.07 272.238 1918.07C267.941 1918.07 264.367 1921.64 264.367 1925.95C264.367 1930.26 267.951 1933.83 272.248 1933.83ZM272.248 1932.35C268.703 1932.35 265.871 1929.51 265.871 1925.95C265.871 1922.4 268.693 1919.55 272.238 1919.55C275.793 1919.55 278.635 1922.4 278.644 1925.95C278.654 1929.51 275.803 1932.35 272.248 1932.35ZM272.229 1929.57C272.697 1929.57 272.971 1929.26 272.971 1928.74V1926.68H275.197C275.695 1926.68 276.037 1926.43 276.037 1925.96C276.037 1925.48 275.715 1925.22 275.197 1925.22H272.971V1922.99C272.971 1922.47 272.697 1922.15 272.229 1922.15C271.76 1922.15 271.506 1922.49 271.506 1922.99V1925.22H269.299C268.781 1925.22 268.449 1925.48 268.449 1925.96C268.449 1926.43 268.801 1926.68 269.299 1926.68H271.506V1928.74C271.506 1929.24 271.76 1929.57 272.229 1929.57Z" fill="black"/>
</g>
<g id="Group_2">
<path id="Vector_4" d="M293.219 1935.91C298.668 1935.91 303.18 1931.4 303.18 1925.95C303.18 1920.51 298.658 1915.99 293.209 1915.99C287.77 1915.99 283.258 1920.51 283.258 1925.95C283.258 1931.4 287.779 1935.91 293.219 1935.91ZM293.219 1934.25C288.609 1934.25 284.928 1930.56 284.928 1925.95C284.928 1921.35 288.6 1917.65 293.209 1917.65C297.818 1917.65 301.51 1921.35 301.52 1925.95C301.529 1930.56 297.828 1934.25 293.219 1934.25ZM293.199 1930.59C293.717 1930.59 294.029 1930.23 294.029 1929.66V1926.77H297.086C297.633 1926.77 298.014 1926.49 298.014 1925.97C298.014 1925.44 297.652 1925.14 297.086 1925.14H294.029V1922.07C294.029 1921.5 293.717 1921.14 293.199 1921.14C292.682 1921.14 292.389 1921.52 292.389 1922.07V1925.14H289.342C288.775 1925.14 288.404 1925.44 288.404 1925.97C288.404 1926.49 288.795 1926.77 289.342 1926.77H292.389V1929.66C292.389 1930.21 292.682 1930.59 293.199 1930.59Z" fill="black"/>
</g>
<g id="Group_3">
<path id="Vector_5" d="M319.895 1938.67C326.857 1938.67 332.619 1932.92 332.619 1925.96C332.619 1918.99 326.848 1913.24 319.885 1913.24C312.932 1913.24 307.18 1918.99 307.18 1925.96C307.18 1932.92 312.941 1938.67 319.895 1938.67ZM319.895 1936.86C313.859 1936.86 309.006 1931.99 309.006 1925.96C309.006 1919.92 313.85 1915.06 319.885 1915.06C325.93 1915.06 330.783 1919.92 330.793 1925.96C330.803 1931.99 325.939 1936.86 319.895 1936.86ZM319.875 1931.93C320.441 1931.93 320.793 1931.54 320.793 1930.94V1926.87H325.031C325.617 1926.87 326.037 1926.53 326.037 1925.98C326.037 1925.4 325.647 1925.06 325.031 1925.06H320.793V1920.81C320.793 1920.2 320.441 1919.8 319.875 1919.8C319.309 1919.8 318.986 1920.21 318.986 1920.81V1925.06H314.758C314.143 1925.06 313.732 1925.4 313.732 1925.98C313.732 1926.53 314.162 1926.87 314.758 1926.87H318.986V1930.94C318.986 1931.52 319.309 1931.93 319.875 1931.93Z" fill="black"/>
</g>
<text id="Design Variations" fill="black" xml:space="preserve" style="white-space: pre" font-family="Roboto" font-size="12" letter-spacing="0em"><tspan x="263" y="1952.1">Design Variations</tspan></text>
<text id="Symbols are supported in up to nine weights and three scales." fill="black" xml:space="preserve" style="white-space: pre" font-family="Roboto" font-size="12" letter-spacing="0em"><tspan x="263" y="1970.1">Symbols are supported in up to nine weights and three scales.</tspan></text>
<text id="For optimal layout with text and other symbols, vertically align" fill="black" xml:space="preserve" style="white-space: pre" font-family="Roboto" font-size="12" letter-spacing="0em"><tspan x="263" y="1988.1">For optimal layout with text and other symbols, vertically align</tspan></text>
<text id="symbols with the adjacent text." fill="black" xml:space="preserve" style="white-space: pre" font-family="Roboto" font-size="12" letter-spacing="0em"><tspan x="263" y="2006.1">symbols with the adjacent text.</tspan></text>
<path id="Vector_6" opacity="0.4" d="M779 1919H776V1933H779V1919Z" fill="#00AEEF"/>
<g id="Group_4">
<path id="Vector_7" d="M789.525 1933H791.371L786.176 1918.91H784.437L779.242 1933H781.088L782.504 1928.96H788.109L789.525 1933ZM785.277 1921.04H785.336L787.592 1927.47H783.021L785.277 1921.04Z" fill="black"/>
</g>
<path id="Vector_8" opacity="0.4" d="M794.617 1919H791.617V1933H794.617V1919Z" fill="#00AEEF"/>
<text id="Margins" fill="black" xml:space="preserve" style="white-space: pre" font-family="Roboto" font-size="12" letter-spacing="0em"><tspan x="776" y="1952.1">Margins</tspan></text>
<text id="Leading and trailing margins on the left and right side of each symbol" fill="black" xml:space="preserve" style="white-space: pre" font-family="Roboto" font-size="12" letter-spacing="0em"><tspan x="776" y="1970.1">Leading and trailing margins on the left and right side of each symbol</tspan></text>
<text id="can be adjusted by modifying the width of the blue rectangles." fill="black" xml:space="preserve" style="white-space: pre" font-family="Roboto" font-size="12" letter-spacing="0em"><tspan x="776" y="1988.1">can be adjusted by modifying the width of the blue rectangles.</tspan></text>
<text id="Modifications are automatically applied proportionally to all" fill="black" xml:space="preserve" style="white-space: pre" font-family="Roboto" font-size="12" letter-spacing="0em"><tspan x="776" y="2006.1">Modifications are automatically applied proportionally to all</tspan></text>
<text id="scales and weights." fill="black" xml:space="preserve" style="white-space: pre" font-family="Roboto" font-size="12" letter-spacing="0em"><tspan x="776" y="2024.1">scales and weights.</tspan></text>
<g id="Group_5">
<path id="Vector_9" d="M1291.83 1936.11L1293.37 1937.66C1294.22 1938.49 1295.19 1938.42 1296.06 1937.46L1306.27 1926.34C1306.7 1926.63 1307.1 1926.62 1307.56 1926.52L1308.61 1926.31L1309.3 1927L1309.25 1927.52C1309.19 1928.05 1309.35 1928.47 1309.85 1928.97L1310.66 1929.78C1311.17 1930.28 1311.82 1930.31 1312.3 1929.83L1315.55 1926.58C1316.03 1926.1 1316.01 1925.45 1315.5 1924.94L1314.68 1924.12C1314.19 1923.62 1313.77 1923.45 1313.24 1923.53L1312.71 1923.58L1312.06 1922.92L1312.34 1921.78C1312.49 1921.21 1312.34 1920.74 1311.71 1920.14L1309.3 1917.75C1305.76 1914.22 1301.23 1914.33 1298.11 1917.46C1297.69 1917.89 1297.64 1918.48 1297.92 1918.91C1298.15 1919.28 1298.63 1919.5 1299.27 1919.34C1300.79 1918.96 1302.3 1919.07 1303.78 1920.08L1303.16 1921.66C1302.93 1922.25 1302.94 1922.73 1303.18 1923.16L1292.02 1933.44C1291.08 1934.31 1290.97 1935.25 1291.83 1936.11ZM1299.67 1917.85C1302.34 1915.86 1305.65 1916.17 1308.05 1918.58L1310.68 1921.19C1310.91 1921.43 1310.94 1921.61 1310.88 1921.91L1310.5 1923.47L1312.08 1925.04L1313.04 1924.95C1313.33 1924.92 1313.41 1924.94 1313.64 1925.17L1314.26 1925.79L1311.51 1928.54L1310.88 1927.92C1310.66 1927.7 1310.64 1927.6 1310.67 1927.32L1310.76 1926.36L1309.19 1924.8L1307.57 1925.11C1307.29 1925.17 1307.14 1925.17 1306.91 1924.92L1304.73 1922.75C1304.51 1922.51 1304.48 1922.37 1304.61 1922.05L1305.55 1919.78C1303.95 1918.24 1301.84 1917.39 1299.8 1918.05C1299.71 1918.08 1299.64 1918.06 1299.61 1918.02C1299.59 1917.97 1299.59 1917.92 1299.67 1917.85ZM1293.1 1935.41C1292.61 1934.91 1292.79 1934.61 1293.12 1934.31L1304.08 1924.19L1305.31 1925.42L1295.15 1936.35C1294.85 1936.68 1294.47 1936.78 1294.07 1936.38L1293.1 1935.41Z" fill="black"/>
</g>
<text id="Exporting" fill="black" xml:space="preserve" style="white-space: pre" font-family="Roboto" font-size="12" letter-spacing="0em"><tspan x="1289" y="1952.1">Exporting</tspan></text>
<text id="Symbols should be outlined when exporting to ensure the" fill="black" xml:space="preserve" style="white-space: pre" font-family="Roboto" font-size="12" letter-spacing="0em"><tspan x="1289" y="1970.1">Symbols should be outlined when exporting to ensure the</tspan></text>
<text id="design is preserved when submitting to Xcode." fill="black" xml:space="preserve" style="white-space: pre" font-family="Roboto" font-size="12" letter-spacing="0em"><tspan x="1289" y="1988.1">design is preserved when submitting to Xcode.</tspan></text>
<text id="template-version" fill="black" xml:space="preserve" style="white-space: pre" font-family="Roboto" font-size="12" letter-spacing="0em"><tspan x="2958" y="1932.1">Template v.1.0</tspan></text>
<text id="Generated from pencil.circle" fill="black" xml:space="preserve" style="white-space: pre" font-family="Roboto" font-size="12" letter-spacing="0em"><tspan x="2885" y="1950.1">Generated from pencil.circle</tspan></text>
<text id="Typeset at 100 points" fill="black" xml:space="preserve" style="white-space: pre" font-family="Roboto" font-size="12" letter-spacing="0em"><tspan x="2921" y="1968.1">Typeset at 100 points</tspan></text>
<text id="Small" fill="black" xml:space="preserve" style="white-space: pre" font-family="Roboto" font-size="12" letter-spacing="0em"><tspan x="263" y="725.102">Small</tspan></text>
<text id="Medium_2" fill="black" xml:space="preserve" style="white-space: pre" font-family="Roboto" font-size="12" letter-spacing="0em"><tspan x="263" y="1155.1">Medium</tspan></text>
<text id="Large" fill="black" xml:space="preserve" style="white-space: pre" font-family="Roboto" font-size="12" letter-spacing="0em"><tspan x="263" y="1585.1">Large</tspan></text>
</g>
<g id="Guides">
<g id="H-reference">
<path id="Vector_10" d="M393.932 695.998H396.666L369.566 625.539H367.076L339.977 695.998H342.662L351.94 671.535H384.703L393.932 695.998ZM368.199 628.908H368.443L383.824 669.289H352.818L368.199 628.908Z" fill="#27AAE1"/>
</g>
<path id="Baseline-S" d="M263 696H3036" stroke="#27AAE1" stroke-width="0.577"/>
<path id="Capline-S" d="M263 626H3036" stroke="#27AAE1" stroke-width="0.577"/>
<g id="H-reference_2">
<path id="Vector_11" d="M393.932 1126H396.666L369.566 1055.54H367.076L339.977 1126H342.662L351.94 1101.54H384.703L393.932 1126ZM368.199 1058.91H368.443L383.824 1099.29H352.818L368.199 1058.91Z" fill="#27AAE1"/>
</g>
<path id="Baseline-M" d="M263 1126H3036" stroke="#27AAE1" stroke-width="0.577"/>
<path id="Capline-M" d="M263 1056H3036" stroke="#27AAE1" stroke-width="0.577"/>
<g id="H-reference_3">
<path id="Vector_12" d="M393.932 1556H396.666L369.566 1485.54H367.076L339.977 1556H342.662L351.94 1531.54H384.703L393.932 1556ZM368.199 1488.91H368.443L383.824 1529.29H352.818L368.199 1488.91Z" fill="#27AAE1"/>
</g>
<g id="Group 1">
<path id="Baseline-L" d="M263 1556H3036" stroke="#27AAE1" stroke-width="0.577"/>
<path id="Capline-L" d="M263 1486H3036" stroke="#27AAE1" stroke-width="0.577"/>
</g>
<path id="left-margin" opacity="0.4" d="M1397.04 1030.79H1388.3V1150.12H1397.04V1030.79Z" fill="#00AEEF"/>
<path id="right-margin" opacity="0.4" d="M1511.39 1030.79H1502.65V1150.12H1511.39V1030.79Z" fill="#00AEEF"/>
</g>
<g id="Symbols">
<g id="Black-L">
<g id="Outline / Email Outline">
<path id="Shape" fill-rule="evenodd" clip-rule="evenodd" d="M2883.99 1468.5C2871.54 1468.5 2861.49 1478.55 2861.49 1491V1551C2861.49 1563.45 2871.54 1573.5 2883.99 1573.5H2973.99C2986.44 1573.5 2996.49 1563.45 2996.49 1551V1491C2996.49 1478.55 2986.36 1468.5 2973.99 1468.5H2883.99ZM2986.74 1498.1L2954.13 1522.67L2973.41 1537.17C2975.56 1538.79 2976 1541.85 2974.38 1544C2972.76 1546.15 2969.7 1546.58 2967.55 1544.96L2946.03 1528.77L2944.71 1529.77C2934.96 1537.12 2921.52 1537.12 2911.76 1529.77L2910.45 1528.77L2888.93 1544.96C2886.77 1546.58 2883.72 1546.15 2882.1 1544C2880.48 1541.85 2880.91 1538.79 2883.06 1537.17L2902.34 1522.67L2871.24 1499.23V1551C2871.24 1558.05 2876.94 1563.75 2883.99 1563.75H2973.99C2981.04 1563.75 2986.74 1558.05 2986.74 1551V1498.1ZM2973.99 1478.25C2979.46 1478.25 2984.11 1481.68 2985.93 1486.51L2938.84 1521.98C2932.57 1526.71 2923.91 1526.71 2917.63 1521.98L2871.75 1487.41C2873.3 1482.11 2878.19 1478.25 2883.99 1478.25H2973.99Z" fill="black"/>
</g>
</g>
<g id="Heavy-L">
<g id="Outline / Email Outline_2">
<path id="Shape_2" fill-rule="evenodd" clip-rule="evenodd" d="M2587.99 1468.5C2575.54 1468.5 2565.49 1478.55 2565.49 1491V1551C2565.49 1563.45 2575.54 1573.5 2587.99 1573.5H2677.99C2690.44 1573.5 2700.49 1563.45 2700.49 1551V1491C2700.49 1478.55 2690.36 1468.5 2677.99 1468.5H2587.99ZM2690.74 1498.1L2658.13 1522.67L2677.41 1537.17C2679.56 1538.79 2680 1541.85 2678.38 1544C2676.76 1546.15 2673.7 1546.58 2671.55 1544.96L2650.03 1528.77L2648.71 1529.77C2638.96 1537.12 2625.52 1537.12 2615.76 1529.77L2614.45 1528.77L2592.93 1544.96C2590.77 1546.58 2587.72 1546.15 2586.1 1544C2584.48 1541.85 2584.91 1538.79 2587.06 1537.17L2606.34 1522.67L2575.24 1499.23V1551C2575.24 1558.05 2580.94 1563.75 2587.99 1563.75H2677.99C2685.04 1563.75 2690.74 1558.05 2690.74 1551V1498.1ZM2677.99 1478.25C2683.46 1478.25 2688.11 1481.68 2689.93 1486.51L2642.84 1521.98C2636.57 1526.71 2627.91 1526.71 2621.63 1521.98L2575.75 1487.41C2577.3 1482.11 2582.19 1478.25 2587.99 1478.25H2677.99Z" fill="black"/>
</g>
</g>
<g id="Bold-L">
<g id="Outline / Email Outline_3">
<path id="Shape_3" fill-rule="evenodd" clip-rule="evenodd" d="M2291.99 1468.5C2279.54 1468.5 2269.49 1478.55 2269.49 1491V1551C2269.49 1563.45 2279.54 1573.5 2291.99 1573.5H2381.99C2394.44 1573.5 2404.49 1563.45 2404.49 1551V1491C2404.49 1478.55 2394.36 1468.5 2381.99 1468.5H2291.99ZM2394.74 1498.1L2362.13 1522.67L2381.41 1537.17C2383.56 1538.79 2384 1541.85 2382.38 1544C2380.76 1546.15 2377.7 1546.58 2375.55 1544.96L2354.03 1528.77L2352.71 1529.77C2342.96 1537.12 2329.52 1537.12 2319.76 1529.77L2318.45 1528.77L2296.93 1544.96C2294.77 1546.58 2291.72 1546.15 2290.1 1544C2288.48 1541.85 2288.91 1538.79 2291.06 1537.17L2310.34 1522.67L2279.24 1499.23V1551C2279.24 1558.05 2284.94 1563.75 2291.99 1563.75H2381.99C2389.04 1563.75 2394.74 1558.05 2394.74 1551V1498.1ZM2381.99 1478.25C2387.46 1478.25 2392.11 1481.68 2393.93 1486.51L2346.84 1521.98C2340.57 1526.71 2331.91 1526.71 2325.63 1521.98L2279.75 1487.41C2281.3 1482.11 2286.19 1478.25 2291.99 1478.25H2381.99Z" fill="black"/>
</g>
</g>
<g id="Semibold-L">
<g id="Outline / Email Outline_4">
<path id="Shape_4" fill-rule="evenodd" clip-rule="evenodd" d="M1995.99 1468.5C1983.54 1468.5 1973.49 1478.55 1973.49 1491V1551C1973.49 1563.45 1983.54 1573.5 1995.99 1573.5H2085.99C2098.44 1573.5 2108.49 1563.45 2108.49 1551V1491C2108.49 1478.55 2098.36 1468.5 2085.99 1468.5H1995.99ZM2098.74 1498.1L2066.13 1522.67L2085.41 1537.17C2087.56 1538.79 2088 1541.85 2086.38 1544C2084.76 1546.15 2081.7 1546.58 2079.55 1544.96L2058.03 1528.77L2056.71 1529.77C2046.96 1537.12 2033.52 1537.12 2023.76 1529.77L2022.45 1528.77L2000.93 1544.96C1998.77 1546.58 1995.72 1546.15 1994.1 1544C1992.48 1541.85 1992.91 1538.79 1995.06 1537.17L2014.34 1522.67L1983.24 1499.23V1551C1983.24 1558.05 1988.94 1563.75 1995.99 1563.75H2085.99C2093.04 1563.75 2098.74 1558.05 2098.74 1551V1498.1ZM2085.99 1478.25C2091.46 1478.25 2096.11 1481.68 2097.93 1486.51L2050.84 1521.98C2044.57 1526.71 2035.91 1526.71 2029.63 1521.98L1983.75 1487.41C1985.3 1482.11 1990.19 1478.25 1995.99 1478.25H2085.99Z" fill="black"/>
</g>
</g>
<g id="Medium-L">
<g id="Outline / Email Outline_5">
<path id="Shape_5" fill-rule="evenodd" clip-rule="evenodd" d="M1699.99 1468.5C1687.54 1468.5 1677.49 1478.55 1677.49 1491V1551C1677.49 1563.45 1687.54 1573.5 1699.99 1573.5H1789.99C1802.44 1573.5 1812.49 1563.45 1812.49 1551V1491C1812.49 1478.55 1802.36 1468.5 1789.99 1468.5H1699.99ZM1802.74 1498.1L1770.13 1522.67L1789.41 1537.17C1791.56 1538.79 1792 1541.85 1790.38 1544C1788.76 1546.15 1785.7 1546.58 1783.55 1544.96L1762.03 1528.77L1760.71 1529.77C1750.96 1537.12 1737.52 1537.12 1727.76 1529.77L1726.45 1528.77L1704.93 1544.96C1702.77 1546.58 1699.72 1546.15 1698.1 1544C1696.48 1541.85 1696.91 1538.79 1699.06 1537.17L1718.34 1522.67L1687.24 1499.23V1551C1687.24 1558.05 1692.94 1563.75 1699.99 1563.75H1789.99C1797.04 1563.75 1802.74 1558.05 1802.74 1551V1498.1ZM1789.99 1478.25C1795.46 1478.25 1800.11 1481.68 1801.93 1486.51L1754.84 1521.98C1748.57 1526.71 1739.91 1526.71 1733.63 1521.98L1687.75 1487.41C1689.3 1482.11 1694.19 1478.25 1699.99 1478.25H1789.99Z" fill="black"/>
</g>
</g>
<g id="Regular-L">
<g id="Outline / Email Outline_6">
<path id="Shape_6" fill-rule="evenodd" clip-rule="evenodd" d="M1403.99 1468.5C1391.54 1468.5 1381.49 1478.55 1381.49 1491V1551C1381.49 1563.45 1391.54 1573.5 1403.99 1573.5H1493.99C1506.44 1573.5 1516.49 1563.45 1516.49 1551V1491C1516.49 1478.55 1506.36 1468.5 1493.99 1468.5H1403.99ZM1506.74 1498.1L1474.13 1522.67L1493.41 1537.17C1495.56 1538.79 1496 1541.85 1494.38 1544C1492.76 1546.15 1489.7 1546.58 1487.55 1544.96L1466.03 1528.77L1464.71 1529.77C1454.96 1537.12 1441.52 1537.12 1431.76 1529.77L1430.45 1528.77L1408.93 1544.96C1406.77 1546.58 1403.72 1546.15 1402.1 1544C1400.48 1541.85 1400.91 1538.79 1403.06 1537.17L1422.34 1522.67L1391.24 1499.23V1551C1391.24 1558.05 1396.94 1563.75 1403.99 1563.75H1493.99C1501.04 1563.75 1506.74 1558.05 1506.74 1551V1498.1ZM1493.99 1478.25C1499.46 1478.25 1504.11 1481.68 1505.93 1486.51L1458.84 1521.98C1452.57 1526.71 1443.91 1526.71 1437.63 1521.98L1391.75 1487.41C1393.3 1482.11 1398.19 1478.25 1403.99 1478.25H1493.99Z" fill="black"/>
</g>
</g>
<g id="Light-L">
<g id="Outline / Email Outline_7">
<path id="Shape_7" fill-rule="evenodd" clip-rule="evenodd" d="M1107.99 1468.5C1095.54 1468.5 1085.49 1478.55 1085.49 1491V1551C1085.49 1563.45 1095.54 1573.5 1107.99 1573.5H1197.99C1210.44 1573.5 1220.49 1563.45 1220.49 1551V1491C1220.49 1478.55 1210.36 1468.5 1197.99 1468.5H1107.99ZM1210.74 1498.1L1178.13 1522.67L1197.41 1537.17C1199.56 1538.79 1200 1541.85 1198.38 1544C1196.76 1546.15 1193.7 1546.58 1191.55 1544.96L1170.03 1528.77L1168.71 1529.77C1158.96 1537.12 1145.52 1537.12 1135.76 1529.77L1134.45 1528.77L1112.93 1544.96C1110.77 1546.58 1107.72 1546.15 1106.1 1544C1104.48 1541.85 1104.91 1538.79 1107.06 1537.17L1126.34 1522.67L1095.24 1499.23V1551C1095.24 1558.05 1100.94 1563.75 1107.99 1563.75H1197.99C1205.04 1563.75 1210.74 1558.05 1210.74 1551V1498.1ZM1197.99 1478.25C1203.46 1478.25 1208.11 1481.68 1209.93 1486.51L1162.84 1521.98C1156.57 1526.71 1147.91 1526.71 1141.63 1521.98L1095.75 1487.41C1097.3 1482.11 1102.19 1478.25 1107.99 1478.25H1197.99Z" fill="black"/>
</g>
</g>
<g id="Thin-L">
<g id="Outline / Email Outline_8">
<path id="Shape_8" fill-rule="evenodd" clip-rule="evenodd" d="M812.016 1468.5C799.566 1468.5 789.516 1478.55 789.516 1491V1551C789.516 1563.45 799.566 1573.5 812.016 1573.5H902.016C914.466 1573.5 924.516 1563.45 924.516 1551V1491C924.516 1478.55 914.391 1468.5 902.016 1468.5H812.016ZM914.766 1498.1L882.161 1522.67L901.44 1537.17C903.592 1538.79 904.023 1541.85 902.405 1544C900.786 1546.15 897.73 1546.58 895.578 1544.96L874.058 1528.77L872.739 1529.77C862.986 1537.12 849.545 1537.12 839.792 1529.77L838.473 1528.77L816.953 1544.96C814.802 1546.58 811.746 1546.15 810.127 1544C808.508 1541.85 808.94 1538.79 811.091 1537.17L830.37 1522.67L799.266 1499.23V1551C799.266 1558.05 804.966 1563.75 812.016 1563.75H902.016C909.066 1563.75 914.766 1558.05 914.766 1551V1498.1ZM902.016 1478.25C907.483 1478.25 912.138 1481.68 913.953 1486.51L866.872 1521.98C860.593 1526.71 851.939 1526.71 845.659 1521.98L799.777 1487.41C801.325 1482.11 806.213 1478.25 812.016 1478.25H902.016Z" fill="black"/>
</g>
</g>
<g id="Ultralight-L">
<g id="Outline / Email Outline_9">
<path id="Shape_9" fill-rule="evenodd" clip-rule="evenodd" d="M516.016 1468.5C503.566 1468.5 493.516 1478.55 493.516 1491V1551C493.516 1563.45 503.566 1573.5 516.016 1573.5H606.016C618.466 1573.5 628.516 1563.45 628.516 1551V1491C628.516 1478.55 618.391 1468.5 606.016 1468.5H516.016ZM618.766 1498.1L586.161 1522.67L605.44 1537.17C607.592 1538.79 608.023 1541.85 606.405 1544C604.786 1546.15 601.73 1546.58 599.578 1544.96L578.058 1528.77L576.739 1529.77C566.986 1537.12 553.545 1537.12 543.792 1529.77L542.473 1528.77L520.953 1544.96C518.802 1546.58 515.746 1546.15 514.127 1544C512.508 1541.85 512.94 1538.79 515.091 1537.17L534.37 1522.67L503.266 1499.23V1551C503.266 1558.05 508.966 1563.75 516.016 1563.75H606.016C613.066 1563.75 618.766 1558.05 618.766 1551V1498.1ZM606.016 1478.25C611.483 1478.25 616.138 1481.68 617.953 1486.51L570.872 1521.98C564.593 1526.71 555.939 1526.71 549.659 1521.98L503.777 1487.41C505.325 1482.11 510.213 1478.25 516.016 1478.25H606.016Z" fill="black"/>
</g>
</g>
<g id="Black-M">
<g id="Outline / Email Outline_10">
<path id="Shape_10" fill-rule="evenodd" clip-rule="evenodd" d="M2893.99 1050.16C2884.31 1050.16 2876.49 1057.98 2876.49 1067.66V1114.33C2876.49 1124.01 2884.31 1131.83 2893.99 1131.83H2963.99C2973.68 1131.83 2981.49 1124.01 2981.49 1114.33V1067.66C2981.49 1057.98 2973.62 1050.16 2963.99 1050.16H2893.99ZM2973.91 1073.19L2948.55 1092.29L2963.54 1103.58C2965.22 1104.84 2965.55 1107.21 2964.29 1108.89C2963.04 1110.56 2960.66 1110.9 2958.99 1109.64L2942.25 1097.04L2941.22 1097.82C2933.64 1103.53 2923.18 1103.53 2915.6 1097.82L2914.57 1097.04L2897.83 1109.64C2896.16 1110.9 2893.78 1110.56 2892.52 1108.89C2891.26 1107.21 2891.6 1104.84 2893.27 1103.58L2908.27 1092.29L2884.08 1074.07V1114.33C2884.08 1119.81 2888.51 1124.25 2893.99 1124.25H2963.99C2969.48 1124.25 2973.91 1119.81 2973.91 1114.33V1073.19ZM2963.99 1057.75C2968.24 1057.75 2971.87 1060.41 2973.28 1064.17L2936.66 1091.76C2931.77 1095.44 2925.04 1095.44 2920.16 1091.76L2884.47 1064.87C2885.68 1060.75 2889.48 1057.75 2893.99 1057.75H2963.99Z" fill="black"/>
</g>
</g>
<g id="Heavy-M">
<g id="Outline / Email Outline_11">
<path id="Shape_11" fill-rule="evenodd" clip-rule="evenodd" d="M2597.99 1050.16C2588.31 1050.16 2580.49 1057.98 2580.49 1067.66V1114.33C2580.49 1124.01 2588.31 1131.83 2597.99 1131.83H2667.99C2677.68 1131.83 2685.49 1124.01 2685.49 1114.33V1067.66C2685.49 1057.98 2677.62 1050.16 2667.99 1050.16H2597.99ZM2677.91 1073.19L2652.55 1092.29L2667.54 1103.58C2669.22 1104.84 2669.55 1107.21 2668.29 1108.89C2667.04 1110.56 2664.66 1110.9 2662.99 1109.64L2646.25 1097.04L2645.22 1097.82C2637.64 1103.53 2627.18 1103.53 2619.6 1097.82L2618.57 1097.04L2601.83 1109.64C2600.16 1110.9 2597.78 1110.56 2596.52 1108.89C2595.26 1107.21 2595.6 1104.84 2597.27 1103.58L2612.27 1092.29L2588.08 1074.07V1114.33C2588.08 1119.81 2592.51 1124.25 2597.99 1124.25H2667.99C2673.48 1124.25 2677.91 1119.81 2677.91 1114.33V1073.19ZM2667.99 1057.75C2672.24 1057.75 2675.87 1060.41 2677.28 1064.17L2640.66 1091.76C2635.77 1095.44 2629.04 1095.44 2624.16 1091.76L2588.47 1064.87C2589.68 1060.75 2593.48 1057.75 2597.99 1057.75H2667.99Z" fill="black"/>
</g>
</g>
<g id="Bold-M">
<g id="Outline / Email Outline_12">
<path id="Shape_12" fill-rule="evenodd" clip-rule="evenodd" d="M2301.99 1050.16C2292.31 1050.16 2284.49 1057.98 2284.49 1067.66V1114.33C2284.49 1124.01 2292.31 1131.83 2301.99 1131.83H2371.99C2381.68 1131.83 2389.49 1124.01 2389.49 1114.33V1067.66C2389.49 1057.98 2381.62 1050.16 2371.99 1050.16H2301.99ZM2381.91 1073.19L2356.55 1092.29L2371.54 1103.58C2373.22 1104.84 2373.55 1107.21 2372.29 1108.89C2371.04 1110.56 2368.66 1110.9 2366.99 1109.64L2350.25 1097.04L2349.22 1097.82C2341.64 1103.53 2331.18 1103.53 2323.6 1097.82L2322.57 1097.04L2305.83 1109.64C2304.16 1110.9 2301.78 1110.56 2300.52 1108.89C2299.26 1107.21 2299.6 1104.84 2301.27 1103.58L2316.27 1092.29L2292.08 1074.07V1114.33C2292.08 1119.81 2296.51 1124.25 2301.99 1124.25H2371.99C2377.48 1124.25 2381.91 1119.81 2381.91 1114.33V1073.19ZM2371.99 1057.75C2376.24 1057.75 2379.87 1060.41 2381.28 1064.17L2344.66 1091.76C2339.77 1095.44 2333.04 1095.44 2328.16 1091.76L2292.47 1064.87C2293.68 1060.75 2297.48 1057.75 2301.99 1057.75H2371.99Z" fill="black"/>
</g>
</g>
<g id="Semibold-M">
<g id="Outline / Email Outline_13">
<path id="Shape_13" fill-rule="evenodd" clip-rule="evenodd" d="M2005.99 1050.16C1996.31 1050.16 1988.49 1057.98 1988.49 1067.66V1114.33C1988.49 1124.01 1996.31 1131.83 2005.99 1131.83H2075.99C2085.68 1131.83 2093.49 1124.01 2093.49 1114.33V1067.66C2093.49 1057.98 2085.62 1050.16 2075.99 1050.16H2005.99ZM2085.91 1073.19L2060.55 1092.29L2075.54 1103.58C2077.22 1104.84 2077.55 1107.21 2076.29 1108.89C2075.04 1110.56 2072.66 1110.9 2070.99 1109.64L2054.25 1097.04L2053.22 1097.82C2045.64 1103.53 2035.18 1103.53 2027.6 1097.82L2026.57 1097.04L2009.83 1109.64C2008.16 1110.9 2005.78 1110.56 2004.52 1108.89C2003.26 1107.21 2003.6 1104.84 2005.27 1103.58L2020.27 1092.29L1996.08 1074.07V1114.33C1996.08 1119.81 2000.51 1124.25 2005.99 1124.25H2075.99C2081.48 1124.25 2085.91 1119.81 2085.91 1114.33V1073.19ZM2075.99 1057.75C2080.24 1057.75 2083.87 1060.41 2085.28 1064.17L2048.66 1091.76C2043.77 1095.44 2037.04 1095.44 2032.16 1091.76L1996.47 1064.87C1997.68 1060.75 2001.48 1057.75 2005.99 1057.75H2075.99Z" fill="black"/>
</g>
</g>
<g id="Medium-M">
<g id="Outline / Email Outline_14">
<path id="Shape_14" fill-rule="evenodd" clip-rule="evenodd" d="M1709.99 1050.16C1700.31 1050.16 1692.49 1057.98 1692.49 1067.66V1114.33C1692.49 1124.01 1700.31 1131.83 1709.99 1131.83H1779.99C1789.68 1131.83 1797.49 1124.01 1797.49 1114.33V1067.66C1797.49 1057.98 1789.62 1050.16 1779.99 1050.16H1709.99ZM1789.91 1073.19L1764.55 1092.29L1779.54 1103.58C1781.22 1104.84 1781.55 1107.21 1780.29 1108.89C1779.04 1110.56 1776.66 1110.9 1774.99 1109.64L1758.25 1097.04L1757.22 1097.82C1749.64 1103.53 1739.18 1103.53 1731.6 1097.82L1730.57 1097.04L1713.83 1109.64C1712.16 1110.9 1709.78 1110.56 1708.52 1108.89C1707.26 1107.21 1707.6 1104.84 1709.27 1103.58L1724.27 1092.29L1700.08 1074.07V1114.33C1700.08 1119.81 1704.51 1124.25 1709.99 1124.25H1779.99C1785.48 1124.25 1789.91 1119.81 1789.91 1114.33V1073.19ZM1779.99 1057.75C1784.24 1057.75 1787.87 1060.41 1789.28 1064.17L1752.66 1091.76C1747.77 1095.44 1741.04 1095.44 1736.16 1091.76L1700.47 1064.87C1701.68 1060.75 1705.48 1057.75 1709.99 1057.75H1779.99Z" fill="black"/>
</g>
</g>
<g id="Regular-M">
<g id="Outline / Email Outline_15">
<path id="Shape_15" fill-rule="evenodd" clip-rule="evenodd" d="M1413.99 1050.16C1404.31 1050.16 1396.49 1057.98 1396.49 1067.66V1114.33C1396.49 1124.01 1404.31 1131.83 1413.99 1131.83H1483.99C1493.68 1131.83 1501.49 1124.01 1501.49 1114.33V1067.66C1501.49 1057.98 1493.62 1050.16 1483.99 1050.16H1413.99ZM1493.91 1073.19L1468.55 1092.29L1483.54 1103.58C1485.22 1104.84 1485.55 1107.21 1484.29 1108.89C1483.04 1110.56 1480.66 1110.9 1478.99 1109.64L1462.25 1097.04L1461.22 1097.82C1453.64 1103.53 1443.18 1103.53 1435.6 1097.82L1434.57 1097.04L1417.83 1109.64C1416.16 1110.9 1413.78 1110.56 1412.52 1108.89C1411.26 1107.21 1411.6 1104.84 1413.27 1103.58L1428.27 1092.29L1404.08 1074.07V1114.33C1404.08 1119.81 1408.51 1124.25 1413.99 1124.25H1483.99C1489.48 1124.25 1493.91 1119.81 1493.91 1114.33V1073.19ZM1483.99 1057.75C1488.24 1057.75 1491.87 1060.41 1493.28 1064.17L1456.66 1091.76C1451.77 1095.44 1445.04 1095.44 1440.16 1091.76L1404.47 1064.87C1405.68 1060.75 1409.48 1057.75 1413.99 1057.75H1483.99Z" fill="black"/>
</g>
</g>
<g id="Light-M">
<g id="Outline / Email Outline_16">
<path id="Shape_16" fill-rule="evenodd" clip-rule="evenodd" d="M1117.99 1050.16C1108.31 1050.16 1100.49 1057.98 1100.49 1067.66V1114.33C1100.49 1124.01 1108.31 1131.83 1117.99 1131.83H1187.99C1197.68 1131.83 1205.49 1124.01 1205.49 1114.33V1067.66C1205.49 1057.98 1197.62 1050.16 1187.99 1050.16H1117.99ZM1197.91 1073.19L1172.55 1092.29L1187.54 1103.58C1189.22 1104.84 1189.55 1107.21 1188.29 1108.89C1187.04 1110.56 1184.66 1110.9 1182.99 1109.64L1166.25 1097.04L1165.22 1097.82C1157.64 1103.53 1147.18 1103.53 1139.6 1097.82L1138.57 1097.04L1121.83 1109.64C1120.16 1110.9 1117.78 1110.56 1116.52 1108.89C1115.26 1107.21 1115.6 1104.84 1117.27 1103.58L1132.27 1092.29L1108.08 1074.07V1114.33C1108.08 1119.81 1112.51 1124.25 1117.99 1124.25H1187.99C1193.48 1124.25 1197.91 1119.81 1197.91 1114.33V1073.19ZM1187.99 1057.75C1192.24 1057.75 1195.87 1060.41 1197.28 1064.17L1160.66 1091.76C1155.77 1095.44 1149.04 1095.44 1144.16 1091.76L1108.47 1064.87C1109.68 1060.75 1113.48 1057.75 1117.99 1057.75H1187.99Z" fill="black"/>
</g>
</g>
<g id="Thin-M">
<g id="Outline / Email Outline_17">
<path id="Shape_17" fill-rule="evenodd" clip-rule="evenodd" d="M821.992 1050.16C812.309 1050.16 804.492 1057.98 804.492 1067.66V1114.33C804.492 1124.01 812.309 1131.83 821.992 1131.83H891.992C901.676 1131.83 909.492 1124.01 909.492 1114.33V1067.66C909.492 1057.98 901.617 1050.16 891.992 1050.16H821.992ZM901.909 1073.19L876.55 1092.29L891.545 1103.58C893.218 1104.84 893.554 1107.21 892.295 1108.89C891.036 1110.56 888.659 1110.9 886.985 1109.64L870.248 1097.04L869.222 1097.82C861.636 1103.53 851.182 1103.53 843.596 1097.82L842.57 1097.04L825.833 1109.64C824.159 1110.9 821.782 1110.56 820.523 1108.89C819.264 1107.21 819.6 1104.84 821.273 1103.58L836.268 1092.29L812.076 1074.07V1114.33C812.076 1119.81 816.509 1124.25 821.992 1124.25H891.992C897.476 1124.25 901.909 1119.81 901.909 1114.33V1073.19ZM891.992 1057.75C896.245 1057.75 899.865 1060.41 901.277 1064.17L864.658 1091.76C859.774 1095.44 853.044 1095.44 848.16 1091.76L812.473 1064.87C813.677 1060.75 817.479 1057.75 821.992 1057.75H891.992Z" fill="black"/>
</g>
</g>
<g id="Ultralight-M">
<g id="Outline / Email Outline_18">
<path id="Shape_18" fill-rule="evenodd" clip-rule="evenodd" d="M525.992 1050.16C516.309 1050.16 508.492 1057.98 508.492 1067.66V1114.33C508.492 1124.01 516.309 1131.83 525.992 1131.83H595.992C605.676 1131.83 613.492 1124.01 613.492 1114.33V1067.66C613.492 1057.98 605.617 1050.16 595.992 1050.16H525.992ZM605.909 1073.19L580.55 1092.29L595.545 1103.58C597.218 1104.84 597.554 1107.21 596.295 1108.89C595.036 1110.56 592.659 1110.9 590.985 1109.64L574.248 1097.04L573.222 1097.82C565.636 1103.53 555.182 1103.53 547.596 1097.82L546.57 1097.04L529.833 1109.64C528.159 1110.9 525.782 1110.56 524.523 1108.89C523.264 1107.21 523.6 1104.84 525.273 1103.58L540.268 1092.29L516.076 1074.07V1114.33C516.076 1119.81 520.509 1124.25 525.992 1124.25H595.992C601.476 1124.25 605.909 1119.81 605.909 1114.33V1073.19ZM595.992 1057.75C600.245 1057.75 603.865 1060.41 605.277 1064.17L568.658 1091.76C563.774 1095.44 557.044 1095.44 552.16 1091.76L516.473 1064.87C517.677 1060.75 521.479 1057.75 525.992 1057.75H595.992Z" fill="black"/>
</g>
</g>
<g id="Black-S">
<g id="Outline / Email Outline_19">
<path id="Shape_19" fill-rule="evenodd" clip-rule="evenodd" d="M2904 631.832C2897.08 631.832 2891.5 637.415 2891.5 644.332V677.665C2891.5 684.582 2897.08 690.165 2904 690.165H2954C2960.92 690.165 2966.5 684.582 2966.5 677.665V644.332C2966.5 637.415 2960.87 631.832 2954 631.832H2904ZM2961.08 648.277L2942.97 661.925L2953.68 669.984C2954.88 670.883 2955.12 672.581 2954.22 673.776C2953.32 674.972 2951.62 675.211 2950.42 674.312L2938.47 665.317L2937.74 665.869C2932.32 669.952 2924.85 669.952 2919.43 665.869L2918.7 665.317L2906.74 674.312C2905.55 675.211 2903.85 674.972 2902.95 673.776C2902.05 672.581 2902.29 670.883 2903.49 669.984L2914.2 661.925L2896.92 648.905V677.665C2896.92 681.582 2900.08 684.749 2904 684.749H2954C2957.92 684.749 2961.08 681.582 2961.08 677.665V648.277ZM2954 637.249C2957.04 637.249 2959.62 639.153 2960.63 641.835L2934.48 661.543C2930.99 664.172 2926.18 664.172 2922.69 661.543L2897.2 642.337C2898.06 639.394 2900.78 637.249 2904 637.249H2954Z" fill="black"/>
</g>
</g>
<g id="Heavy-S">
<g id="Outline / Email Outline_20">
<path id="Shape_20" fill-rule="evenodd" clip-rule="evenodd" d="M2608 631.832C2601.08 631.832 2595.5 637.415 2595.5 644.332V677.665C2595.5 684.582 2601.08 690.165 2608 690.165H2658C2664.92 690.165 2670.5 684.582 2670.5 677.665V644.332C2670.5 637.415 2664.87 631.832 2658 631.832H2608ZM2665.08 648.277L2646.97 661.925L2657.68 669.984C2658.88 670.883 2659.12 672.581 2658.22 673.776C2657.32 674.972 2655.62 675.211 2654.42 674.312L2642.47 665.317L2641.74 665.869C2636.32 669.952 2628.85 669.952 2623.43 665.869L2622.7 665.317L2610.74 674.312C2609.55 675.211 2607.85 674.972 2606.95 673.776C2606.05 672.581 2606.29 670.883 2607.49 669.984L2618.2 661.925L2600.92 648.905V677.665C2600.92 681.582 2604.08 684.749 2608 684.749H2658C2661.92 684.749 2665.08 681.582 2665.08 677.665V648.277ZM2658 637.249C2661.04 637.249 2663.62 639.153 2664.63 641.835L2638.48 661.543C2634.99 664.172 2630.18 664.172 2626.69 661.543L2601.2 642.337C2602.06 639.394 2604.78 637.249 2608 637.249H2658Z" fill="black"/>
</g>
</g>
<g id="Bold-S">
<g id="Outline / Email Outline_21">
<path id="Shape_21" fill-rule="evenodd" clip-rule="evenodd" d="M2312 631.832C2305.08 631.832 2299.5 637.415 2299.5 644.332V677.665C2299.5 684.582 2305.08 690.165 2312 690.165H2362C2368.92 690.165 2374.5 684.582 2374.5 677.665V644.332C2374.5 637.415 2368.87 631.832 2362 631.832H2312ZM2369.08 648.277L2350.97 661.925L2361.68 669.984C2362.88 670.883 2363.12 672.581 2362.22 673.776C2361.32 674.972 2359.62 675.211 2358.42 674.312L2346.47 665.317L2345.74 665.869C2340.32 669.952 2332.85 669.952 2327.43 665.869L2326.7 665.317L2314.74 674.312C2313.55 675.211 2311.85 674.972 2310.95 673.776C2310.05 672.581 2310.29 670.883 2311.49 669.984L2322.2 661.925L2304.92 648.905V677.665C2304.92 681.582 2308.08 684.749 2312 684.749H2362C2365.92 684.749 2369.08 681.582 2369.08 677.665V648.277ZM2362 637.249C2365.04 637.249 2367.62 639.153 2368.63 641.835L2342.48 661.543C2338.99 664.172 2334.18 664.172 2330.69 661.543L2305.2 642.337C2306.06 639.394 2308.78 637.249 2312 637.249H2362Z" fill="black"/>
</g>
</g>
<g id="Semibold-S">
<g id="Outline / Email Outline_22">
<path id="Shape_22" fill-rule="evenodd" clip-rule="evenodd" d="M2016 631.832C2009.08 631.832 2003.5 637.415 2003.5 644.332V677.665C2003.5 684.582 2009.08 690.165 2016 690.165H2066C2072.92 690.165 2078.5 684.582 2078.5 677.665V644.332C2078.5 637.415 2072.87 631.832 2066 631.832H2016ZM2073.08 648.277L2054.97 661.925L2065.68 669.984C2066.88 670.883 2067.12 672.581 2066.22 673.776C2065.32 674.972 2063.62 675.211 2062.42 674.312L2050.47 665.317L2049.74 665.869C2044.32 669.952 2036.85 669.952 2031.43 665.869L2030.7 665.317L2018.74 674.312C2017.55 675.211 2015.85 674.972 2014.95 673.776C2014.05 672.581 2014.29 670.883 2015.49 669.984L2026.2 661.925L2008.92 648.905V677.665C2008.92 681.582 2012.08 684.749 2016 684.749H2066C2069.92 684.749 2073.08 681.582 2073.08 677.665V648.277ZM2066 637.249C2069.04 637.249 2071.62 639.153 2072.63 641.835L2046.48 661.543C2042.99 664.172 2038.18 664.172 2034.69 661.543L2009.2 642.337C2010.06 639.394 2012.78 637.249 2016 637.249H2066Z" fill="black"/>
</g>
</g>
<g id="Medium-S">
<g id="Outline / Email Outline_23">
<path id="Shape_23" fill-rule="evenodd" clip-rule="evenodd" d="M1720 631.832C1713.08 631.832 1707.5 637.415 1707.5 644.332V677.665C1707.5 684.582 1713.08 690.165 1720 690.165H1770C1776.92 690.165 1782.5 684.582 1782.5 677.665V644.332C1782.5 637.415 1776.87 631.832 1770 631.832H1720ZM1777.08 648.277L1758.97 661.925L1769.68 669.984C1770.88 670.883 1771.12 672.581 1770.22 673.776C1769.32 674.972 1767.62 675.211 1766.42 674.312L1754.47 665.317L1753.74 665.869C1748.32 669.952 1740.85 669.952 1735.43 665.869L1734.7 665.317L1722.74 674.312C1721.55 675.211 1719.85 674.972 1718.95 673.776C1718.05 672.581 1718.29 670.883 1719.49 669.984L1730.2 661.925L1712.92 648.905V677.665C1712.92 681.582 1716.08 684.749 1720 684.749H1770C1773.92 684.749 1777.08 681.582 1777.08 677.665V648.277ZM1770 637.249C1773.04 637.249 1775.62 639.153 1776.63 641.835L1750.48 661.543C1746.99 664.172 1742.18 664.172 1738.69 661.543L1713.2 642.337C1714.06 639.394 1716.78 637.249 1720 637.249H1770Z" fill="black"/>
</g>
</g>
<g id="Regular-S">
<g id="Outline / Email Outline_24">
<path id="Shape_24" fill-rule="evenodd" clip-rule="evenodd" d="M1424 631.832C1417.08 631.832 1411.5 637.415 1411.5 644.332V677.665C1411.5 684.582 1417.08 690.165 1424 690.165H1474C1480.92 690.165 1486.5 684.582 1486.5 677.665V644.332C1486.5 637.415 1480.87 631.832 1474 631.832H1424ZM1481.08 648.277L1462.97 661.925L1473.68 669.984C1474.88 670.883 1475.12 672.581 1474.22 673.776C1473.32 674.972 1471.62 675.211 1470.42 674.312L1458.47 665.317L1457.74 665.869C1452.32 669.952 1444.85 669.952 1439.43 665.869L1438.7 665.317L1426.74 674.312C1425.55 675.211 1423.85 674.972 1422.95 673.776C1422.05 672.581 1422.29 670.883 1423.49 669.984L1434.2 661.925L1416.92 648.905V677.665C1416.92 681.582 1420.08 684.749 1424 684.749H1474C1477.92 684.749 1481.08 681.582 1481.08 677.665V648.277ZM1474 637.249C1477.04 637.249 1479.62 639.153 1480.63 641.835L1454.48 661.543C1450.99 664.172 1446.18 664.172 1442.69 661.543L1417.2 642.337C1418.06 639.394 1420.78 637.249 1424 637.249H1474Z" fill="black"/>
</g>
</g>
<g id="Light-S">
<g id="Outline / Email Outline_25">
<path id="Shape_25" fill-rule="evenodd" clip-rule="evenodd" d="M1128 631.832C1121.08 631.832 1115.5 637.415 1115.5 644.332V677.665C1115.5 684.582 1121.08 690.165 1128 690.165H1178C1184.92 690.165 1190.5 684.582 1190.5 677.665V644.332C1190.5 637.415 1184.87 631.832 1178 631.832H1128ZM1185.08 648.277L1166.97 661.925L1177.68 669.984C1178.88 670.883 1179.12 672.581 1178.22 673.776C1177.32 674.972 1175.62 675.211 1174.42 674.312L1162.47 665.317L1161.74 665.869C1156.32 669.952 1148.85 669.952 1143.43 665.869L1142.7 665.317L1130.74 674.312C1129.55 675.211 1127.85 674.972 1126.95 673.776C1126.05 672.581 1126.29 670.883 1127.49 669.984L1138.2 661.925L1120.92 648.905V677.665C1120.92 681.582 1124.08 684.749 1128 684.749H1178C1181.92 684.749 1185.08 681.582 1185.08 677.665V648.277ZM1178 637.249C1181.04 637.249 1183.62 639.153 1184.63 641.835L1158.48 661.543C1154.99 664.172 1150.18 664.172 1146.69 661.543L1121.2 642.337C1122.06 639.394 1124.78 637.249 1128 637.249H1178Z" fill="black"/>
</g>
</g>
<g id="Thin-S">
<g id="Outline / Email Outline_26">
<path id="Shape_26" fill-rule="evenodd" clip-rule="evenodd" d="M832.023 631.832C825.107 631.832 819.523 637.415 819.523 644.332V677.665C819.523 684.582 825.107 690.165 832.023 690.165H882.023C888.94 690.165 894.523 684.582 894.523 677.665V644.332C894.523 637.415 888.898 631.832 882.023 631.832H832.023ZM889.107 648.277L870.993 661.925L881.704 669.984C882.899 670.883 883.139 672.581 882.24 673.776C881.34 674.972 879.642 675.211 878.447 674.312L866.492 665.317L865.759 665.869C860.34 669.952 852.873 669.952 847.455 665.869L846.722 665.317L834.767 674.312C833.571 675.211 831.873 674.972 830.974 673.776C830.075 672.581 830.315 670.883 831.51 669.984L842.221 661.925L824.94 648.905V677.665C824.94 681.582 828.107 684.749 832.023 684.749H882.023C885.94 684.749 889.107 681.582 889.107 677.665V648.277ZM882.023 637.249C885.061 637.249 887.647 639.153 888.655 641.835L862.499 661.543C859.011 664.172 854.203 664.172 850.714 661.543L825.224 642.337C826.084 639.394 828.8 637.249 832.023 637.249H882.023Z" fill="black"/>
</g>
</g>
<g id="Ultralight-S">
<g id="Outline / Email Outline_27">
<path id="Shape_27" fill-rule="evenodd" clip-rule="evenodd" d="M536.023 631.832C529.107 631.832 523.523 637.415 523.523 644.332V677.665C523.523 684.582 529.107 690.165 536.023 690.165H586.023C592.94 690.165 598.523 684.582 598.523 677.665V644.332C598.523 637.415 592.898 631.832 586.023 631.832H536.023ZM593.107 648.277L574.993 661.925L585.704 669.984C586.899 670.883 587.139 672.581 586.24 673.776C585.34 674.972 583.642 675.211 582.447 674.312L570.492 665.317L569.759 665.869C564.34 669.952 556.873 669.952 551.455 665.869L550.722 665.317L538.767 674.312C537.571 675.211 535.873 674.972 534.974 673.776C534.075 672.581 534.315 670.883 535.51 669.984L546.221 661.925L528.94 648.905V677.665C528.94 681.582 532.107 684.749 536.023 684.749H586.023C589.94 684.749 593.107 681.582 593.107 677.665V648.277ZM586.023 637.249C589.061 637.249 591.647 639.153 592.655 641.835L566.499 661.543C563.011 664.172 558.203 664.172 554.714 661.543L529.224 642.337C530.084 639.394 532.8 637.249 536.023 637.249H586.023Z" fill="black"/>
</g>
</g>
</g>
</g>
<defs>
<clipPath id="clip0_805_27002">
<rect width="3300" height="2200" fill="white"/>
</clipPath>
</defs>
</svg>
