<svg xmlns="http://www.w3.org/2000/svg" width="3300" height="2200" fill="none"><path fill="#E5E5E5" d="M0 0h3300v2200H0z"/><g id="System / Solid / User Delete" clip-path="url(#clip0_805_27002)"><g id="Notes"><path id="artboard" fill="#fff" d="M3300 0H0v2200h3300V0Z"/><path id="Vector" stroke="#000" stroke-width=".5" d="M263 292h2773"/><text xml:space="preserve" id="Weight/Scale Variations" fill="#000" font-family="Roboto" font-size="12" letter-spacing="0em" style="white-space:pre"><tspan x="263" y="321.102">Weight/Scale Variations</tspan></text><text xml:space="preserve" id="Ultralight" fill="#000" font-family="Roboto" font-size="12" letter-spacing="0em" style="white-space:pre"><tspan x="535.211" y="321.102">Ultralight</tspan></text><text xml:space="preserve" id="Thin" fill="#000" font-family="Roboto" font-size="12" letter-spacing="0em" style="white-space:pre"><tspan x="844.422" y="321.102">Thin</tspan></text><text xml:space="preserve" id="Light" fill="#000" font-family="Roboto" font-size="12" letter-spacing="0em" style="white-space:pre"><tspan x="1139.63" y="321.102">Light</tspan></text><text xml:space="preserve" id="Regular" fill="#000" font-family="Roboto" font-size="12" letter-spacing="0em" style="white-space:pre"><tspan x="1429.34" y="321.102">Regular</tspan></text><text xml:space="preserve" id="Medium" fill="#000" font-family="Roboto" font-size="12" letter-spacing="0em" style="white-space:pre"><tspan x="1724.56" y="321.102">Medium</tspan></text><text xml:space="preserve" id="Semibold" fill="#000" font-family="Roboto" font-size="12" letter-spacing="0em" style="white-space:pre"><tspan x="2017.77" y="321.102">Semibold</tspan></text><text xml:space="preserve" id="Bold" fill="#000" font-family="Roboto" font-size="12" letter-spacing="0em" style="white-space:pre"><tspan x="2327.48" y="321.102">Bold</tspan></text><text xml:space="preserve" id="Heavy" fill="#000" font-family="Roboto" font-size="12" letter-spacing="0em" style="white-space:pre"><tspan x="2620.19" y="321.102">Heavy</tspan></text><text xml:space="preserve" id="Black" fill="#000" font-family="Roboto" font-size="12" letter-spacing="0em" style="white-space:pre"><tspan x="2918.4" y="321.102">Black</tspan></text><path id="Vector_2" stroke="#000" stroke-width=".5" d="M263 1903h2773"/><g id="Group"><path id="Vector_3" fill="#000" d="M272.248 1933.83c4.307 0 7.891-3.57 7.891-7.88 0-4.31-3.594-7.88-7.901-7.88-4.297 0-7.871 3.57-7.871 7.88 0 4.31 3.584 7.88 7.881 7.88Zm0-1.48c-3.545 0-6.377-2.84-6.377-6.4 0-3.55 2.822-6.4 6.367-6.4a6.388 6.388 0 0 1 6.406 6.4 6.361 6.361 0 0 1-6.396 6.4Zm-.019-2.78c.468 0 .742-.31.742-.83v-2.06h2.226c.498 0 .84-.25.84-.72 0-.48-.322-.74-.84-.74h-2.226v-2.23c0-.52-.274-.84-.742-.84-.469 0-.723.34-.723.84v2.23h-2.207c-.518 0-.85.26-.85.74 0 .47.352.72.85.72h2.207v2.06c0 .5.254.83.723.83Z"/></g><g id="Group_2"><path id="Vector_4" fill="#000" d="M293.215 1935.91c5.449 0 9.961-4.51 9.961-9.96 0-5.44-4.522-9.96-9.971-9.96-5.439 0-9.951 4.52-9.951 9.96 0 5.45 4.521 9.96 9.961 9.96Zm0-1.66a8.26 8.26 0 0 1-8.291-8.3c0-4.6 3.672-8.3 8.281-8.3a8.29 8.29 0 0 1 8.311 8.3 8.263 8.263 0 0 1-8.301 8.3Zm-.02-3.66c.518 0 .83-.36.83-.93v-2.89h3.057c.547 0 .928-.28.928-.8 0-.53-.362-.83-.928-.83h-3.057v-3.07c0-.57-.312-.93-.83-.93-.517 0-.81.38-.81.93v3.07h-3.047c-.567 0-.938.3-.938.83 0 .52.391.8.938.8h3.047v2.89c0 .55.293.93.81.93Z"/></g><g id="Group_3"><path id="Vector_5" fill="#000" d="M319.895 1938.67c6.962 0 12.724-5.75 12.724-12.71 0-6.97-5.771-12.72-12.734-12.72-6.953 0-12.705 5.75-12.705 12.72 0 6.96 5.761 12.71 12.715 12.71Zm0-1.81a10.874 10.874 0 0 1-10.889-10.9c0-6.04 4.844-10.9 10.879-10.9 6.045 0 10.898 4.86 10.908 10.9a10.87 10.87 0 0 1-10.898 10.9Zm-.02-4.93c.566 0 .918-.39.918-.99v-4.07h4.238c.586 0 1.006-.34 1.006-.89 0-.58-.39-.92-1.006-.92h-4.238v-4.25c0-.61-.352-1.01-.918-1.01-.566 0-.889.41-.889 1.01v4.25h-4.228c-.615 0-1.026.34-1.026.92 0 .55.43.89 1.026.89h4.228v4.07c0 .58.323.99.889.99Z"/></g><text xml:space="preserve" id="Design Variations" fill="#000" font-family="Roboto" font-size="12" letter-spacing="0em" style="white-space:pre"><tspan x="263" y="1952.1">Design Variations</tspan></text><text xml:space="preserve" id="Symbols are supported in up to nine weights and three scales." fill="#000" font-family="Roboto" font-size="12" letter-spacing="0em" style="white-space:pre"><tspan x="263" y="1970.1">Symbols are supported in up to nine weights and three scales.</tspan></text><text xml:space="preserve" id="For optimal layout with text and other symbols, vertically align" fill="#000" font-family="Roboto" font-size="12" letter-spacing="0em" style="white-space:pre"><tspan x="263" y="1988.1">For optimal layout with text and other symbols, vertically align</tspan></text><text xml:space="preserve" id="symbols with the adjacent text." fill="#000" font-family="Roboto" font-size="12" letter-spacing="0em" style="white-space:pre"><tspan x="263" y="2006.1">symbols with the adjacent text.</tspan></text><path id="Vector_6" fill="#00AEEF" d="M779 1919h-3v14h3v-14Z" opacity=".4"/><g id="Group_4"><path id="Vector_7" fill="#000" d="M789.525 1933h1.846l-5.195-14.09h-1.739l-5.195 14.09h1.846l1.416-4.04h5.605l1.416 4.04Zm-4.248-11.96h.059l2.256 6.43h-4.571l2.256-6.43Z"/></g><path id="Vector_8" fill="#00AEEF" d="M794.617 1919h-3v14h3v-14Z" opacity=".4"/><text xml:space="preserve" id="Margins" fill="#000" font-family="Roboto" font-size="12" letter-spacing="0em" style="white-space:pre"><tspan x="776" y="1952.1">Margins</tspan></text><text xml:space="preserve" id="Leading and trailing margins on the left and right side of each symbol" fill="#000" font-family="Roboto" font-size="12" letter-spacing="0em" style="white-space:pre"><tspan x="776" y="1970.1">Leading and trailing margins on the left and right side of each symbol</tspan></text><text xml:space="preserve" id="can be adjusted by modifying the width of the blue rectangles." fill="#000" font-family="Roboto" font-size="12" letter-spacing="0em" style="white-space:pre"><tspan x="776" y="1988.1">can be adjusted by modifying the width of the blue rectangles.</tspan></text><text xml:space="preserve" id="Modifications are automatically applied proportionally to all" fill="#000" font-family="Roboto" font-size="12" letter-spacing="0em" style="white-space:pre"><tspan x="776" y="2006.1">Modifications are automatically applied proportionally to all</tspan></text><text xml:space="preserve" id="scales and weights." fill="#000" font-family="Roboto" font-size="12" letter-spacing="0em" style="white-space:pre"><tspan x="776" y="2024.1">scales and weights.</tspan></text><g id="Group_5"><path id="Vector_9" fill="#000" d="m1291.83 1936.11 1.54 1.55c.85.83 1.82.76 2.69-.2l10.21-11.12c.43.29.83.28 1.29.18l1.05-.21.69.69-.05.52c-.06.53.1.95.6 1.45l.81.81c.51.5 1.16.53 1.64.05l3.25-3.25c.48-.48.46-1.13-.05-1.64l-.82-.82c-.49-.5-.91-.67-1.44-.59l-.53.05-.65-.66.28-1.14c.15-.57 0-1.04-.63-1.64l-2.41-2.39c-3.54-3.53-8.07-3.42-11.19-.29-.42.43-.47 1.02-.19 1.45.23.37.71.59 1.35.43 1.52-.38 3.03-.27 4.51.74l-.62 1.58c-.23.59-.22 1.07.02 1.5l-11.16 10.28c-.94.87-1.05 1.81-.19 2.67Zm7.84-18.26c2.67-1.99 5.98-1.68 8.38.73l2.63 2.61c.23.24.26.42.2.72l-.38 1.56 1.58 1.57.96-.09c.29-.03.37-.01.6.22l.62.62-2.75 2.75-.63-.62c-.22-.22-.24-.32-.21-.6l.09-.96-1.57-1.56-1.62.31c-.28.06-.43.06-.66-.19l-2.18-2.17c-.22-.24-.25-.38-.12-.7l.94-2.27c-1.6-1.54-3.71-2.39-5.75-1.73-.09.03-.16.01-.19-.03-.02-.05-.02-.1.06-.17Zm-6.57 17.56c-.49-.5-.31-.8.02-1.1l10.96-10.12 1.23 1.23-10.16 10.93c-.3.33-.68.43-1.08.03l-.97-.97Z"/></g><text xml:space="preserve" id="Exporting" fill="#000" font-family="Roboto" font-size="12" letter-spacing="0em" style="white-space:pre"><tspan x="1289" y="1952.1">Exporting</tspan></text><text xml:space="preserve" id="Symbols should be outlined when exporting to ensure the" fill="#000" font-family="Roboto" font-size="12" letter-spacing="0em" style="white-space:pre"><tspan x="1289" y="1970.1">Symbols should be outlined when exporting to ensure the</tspan></text><text xml:space="preserve" id="design is preserved when submitting to Xcode." fill="#000" font-family="Roboto" font-size="12" letter-spacing="0em" style="white-space:pre"><tspan x="1289" y="1988.1">design is preserved when submitting to Xcode.</tspan></text><text xml:space="preserve" id="template-version" fill="#000" font-family="Roboto" font-size="12" letter-spacing="0em" style="white-space:pre"><tspan x="2958" y="1932.1">Template v.1.0</tspan></text><text xml:space="preserve" id="Generated from pencil.circle" fill="#000" font-family="Roboto" font-size="12" letter-spacing="0em" style="white-space:pre"><tspan x="2885" y="1950.1">Generated from pencil.circle</tspan></text><text xml:space="preserve" id="Typeset at 100 points" fill="#000" font-family="Roboto" font-size="12" letter-spacing="0em" style="white-space:pre"><tspan x="2921" y="1968.1">Typeset at 100 points</tspan></text><text xml:space="preserve" id="Small" fill="#000" font-family="Roboto" font-size="12" letter-spacing="0em" style="white-space:pre"><tspan x="263" y="725.102">Small</tspan></text><text xml:space="preserve" id="Medium_2" fill="#000" font-family="Roboto" font-size="12" letter-spacing="0em" style="white-space:pre"><tspan x="263" y="1155.1">Medium</tspan></text><text xml:space="preserve" id="Large" fill="#000" font-family="Roboto" font-size="12" letter-spacing="0em" style="white-space:pre"><tspan x="263" y="1585.1">Large</tspan></text></g><g id="Guides"><g id="H-reference"><path id="Vector_10" fill="#27AAE1" d="M393.932 695.998h2.734l-27.1-70.459h-2.49l-27.099 70.459h2.685l9.278-24.463h32.763l9.229 24.463Zm-25.733-67.09h.244l15.381 40.381h-31.006l15.381-40.381Z"/></g><path id="Baseline-S" stroke="#27AAE1" stroke-width=".577" d="M263 696h2773"/><path id="Capline-S" stroke="#27AAE1" stroke-width=".577" d="M263 626h2773"/><g id="H-reference_2"><path id="Vector_11" fill="#27AAE1" d="M393.932 1126h2.734l-27.1-70.46h-2.49L339.977 1126h2.685l9.278-24.46h32.763l9.229 24.46Zm-25.733-67.09h.244l15.381 40.38h-31.006l15.381-40.38Z"/></g><path id="Baseline-M" stroke="#27AAE1" stroke-width=".577" d="M263 1126h2773"/><path id="Capline-M" stroke="#27AAE1" stroke-width=".577" d="M263 1056h2773"/><g id="H-reference_3"><path id="Vector_12" fill="#27AAE1" d="M393.932 1556h2.734l-27.1-70.46h-2.49L339.977 1556h2.685l9.278-24.46h32.763l9.229 24.46Zm-25.733-67.09h.244l15.381 40.38h-31.006l15.381-40.38Z"/></g><g id="Group 1" stroke="#27AAE1" stroke-width=".577"><path id="Baseline-L" d="M263 1556h2773"/><path id="Capline-L" d="M263 1486h2773"/></g><path id="left-margin" fill="#00AEEF" d="M1403.04 1030.79h-8.74v119.33h8.74v-119.33Z" opacity=".4"/><path id="right-margin" fill="#00AEEF" d="M1516.39 1030.79h-8.74v119.33h8.74v-119.33Z" opacity=".4"/></g><g id="Symbols"><g id="Black-L"><g id="Solid / User Delete Solid"><g id="Shape" fill="#000"><path d="M2895.73 1490.76c-2.26-19.86 13.28-37.26 33.27-37.26 19.98 0 35.52 17.4 33.26 37.26l-1.96 17.29c-1.81 15.92-15.28 27.95-31.3 27.95-16.03 0-29.5-12.03-31.3-27.95l-1.97-17.29ZM2922.65 1543.5c3.87 0 6.45 4.08 5.48 7.81-.9 3.5-1.38 7.16-1.38 10.94 0 6.09 1.25 11.88 3.5 17.14 1.71 3.99-.92 9.11-5.26 9.11h-49.45c-3.36 0-5.85-3.11-5.12-6.39l.75-3.37c4.57-20.59 22.83-35.24 43.92-35.24h7.56Z"/><path fill-rule="evenodd" d="M2994.11 1538.38c13.18 13.19 13.18 34.55 0 47.73s-34.55 13.18-47.73 0-13.18-34.54 0-47.73c13.18-13.18 34.55-13.18 47.73 0Zm-31.06 9.78c-1.9-1.9-4.99-1.9-6.89 0a4.859 4.859 0 0 0 0 6.89l7.19 7.2-6.48 6.48a4.877 4.877 0 0 0 6.9 6.89l6.48-6.48 7.19 7.2c1.91 1.9 4.99 1.9 6.9 0 1.9-1.9 1.9-4.99 0-6.89l-7.2-7.2 6.48-6.48c1.9-1.9 1.9-4.99 0-6.89a4.87 4.87 0 0 0-6.9 0l-6.47 6.48-7.2-7.2Z" clip-rule="evenodd"/></g></g></g><g id="Heavy-L"><g id="Solid / User Delete Solid_2"><g id="Shape_2" fill="#000"><path d="M2599.73 1490.76c-2.26-19.86 13.28-37.26 33.27-37.26 19.98 0 35.52 17.4 33.26 37.26l-1.96 17.29c-1.81 15.92-15.28 27.95-31.3 27.95-16.03 0-29.5-12.03-31.3-27.95l-1.97-17.29ZM2626.65 1543.5c3.87 0 6.45 4.08 5.48 7.81-.9 3.5-1.38 7.16-1.38 10.94 0 6.09 1.25 11.88 3.5 17.14 1.71 3.99-.92 9.11-5.26 9.11h-49.45c-3.36 0-5.85-3.11-5.12-6.39l.75-3.37c4.57-20.59 22.83-35.24 43.92-35.24h7.56Z"/><path fill-rule="evenodd" d="M2698.11 1538.38c13.18 13.19 13.18 34.55 0 47.73s-34.55 13.18-47.73 0-13.18-34.54 0-47.73c13.18-13.18 34.55-13.18 47.73 0Zm-31.06 9.78c-1.9-1.9-4.99-1.9-6.89 0a4.859 4.859 0 0 0 0 6.89l7.19 7.2-6.48 6.48a4.877 4.877 0 0 0 6.9 6.89l6.48-6.48 7.19 7.2c1.91 1.9 4.99 1.9 6.9 0 1.9-1.9 1.9-4.99 0-6.89l-7.2-7.2 6.48-6.48c1.9-1.9 1.9-4.99 0-6.89a4.87 4.87 0 0 0-6.9 0l-6.47 6.48-7.2-7.2Z" clip-rule="evenodd"/></g></g></g><g id="Bold-L"><g id="Solid / User Delete Solid_3"><g id="Shape_3" fill="#000"><path d="M2303.73 1490.76c-2.26-19.86 13.28-37.26 33.27-37.26 19.98 0 35.52 17.4 33.26 37.26l-1.96 17.29c-1.81 15.92-15.28 27.95-31.3 27.95-16.03 0-29.5-12.03-31.3-27.95l-1.97-17.29ZM2330.65 1543.5c3.87 0 6.45 4.08 5.48 7.81-.9 3.5-1.38 7.16-1.38 10.94 0 6.09 1.25 11.88 3.5 17.14 1.71 3.99-.92 9.11-5.26 9.11h-49.45c-3.36 0-5.85-3.11-5.12-6.39l.75-3.37c4.57-20.59 22.83-35.24 43.92-35.24h7.56Z"/><path fill-rule="evenodd" d="M2402.11 1538.38c13.18 13.19 13.18 34.55 0 47.73s-34.55 13.18-47.73 0-13.18-34.54 0-47.73c13.18-13.18 34.55-13.18 47.73 0Zm-31.06 9.78c-1.9-1.9-4.99-1.9-6.89 0a4.859 4.859 0 0 0 0 6.89l7.19 7.2-6.48 6.48a4.877 4.877 0 0 0 6.9 6.89l6.48-6.48 7.19 7.2c1.91 1.9 4.99 1.9 6.9 0 1.9-1.9 1.9-4.99 0-6.89l-7.2-7.2 6.48-6.48c1.9-1.9 1.9-4.99 0-6.89a4.87 4.87 0 0 0-6.9 0l-6.47 6.48-7.2-7.2Z" clip-rule="evenodd"/></g></g></g><g id="Semibold-L"><g id="Solid / User Delete Solid_4"><g id="Shape_4" fill="#000"><path d="M2007.73 1490.76c-2.26-19.86 13.28-37.26 33.27-37.26 19.98 0 35.52 17.4 33.26 37.26l-1.96 17.29c-1.81 15.92-15.28 27.95-31.3 27.95-16.03 0-29.5-12.03-31.3-27.95l-1.97-17.29ZM2034.65 1543.5c3.87 0 6.45 4.08 5.48 7.81-.9 3.5-1.38 7.16-1.38 10.94 0 6.09 1.25 11.88 3.5 17.14 1.71 3.99-.92 9.11-5.26 9.11h-49.45c-3.36 0-5.85-3.11-5.12-6.39l.75-3.37c4.57-20.59 22.83-35.24 43.92-35.24h7.56Z"/><path fill-rule="evenodd" d="M2106.11 1538.38c13.18 13.19 13.18 34.55 0 47.73s-34.55 13.18-47.73 0-13.18-34.54 0-47.73c13.18-13.18 34.55-13.18 47.73 0Zm-31.06 9.78c-1.9-1.9-4.99-1.9-6.89 0a4.859 4.859 0 0 0 0 6.89l7.19 7.2-6.48 6.48a4.877 4.877 0 0 0 6.9 6.89l6.48-6.48 7.19 7.2c1.91 1.9 4.99 1.9 6.9 0 1.9-1.9 1.9-4.99 0-6.89l-7.2-7.2 6.48-6.48c1.9-1.9 1.9-4.99 0-6.89a4.87 4.87 0 0 0-6.9 0l-6.47 6.48-7.2-7.2Z" clip-rule="evenodd"/></g></g></g><g id="Medium-L"><g id="Solid / User Delete Solid_5"><g id="Shape_5" fill="#000"><path d="M1711.73 1490.76c-2.26-19.86 13.28-37.26 33.27-37.26 19.98 0 35.52 17.4 33.26 37.26l-1.96 17.29c-1.81 15.92-15.28 27.95-31.3 27.95-16.03 0-29.5-12.03-31.3-27.95l-1.97-17.29ZM1738.65 1543.5c3.87 0 6.45 4.08 5.48 7.81-.9 3.5-1.38 7.16-1.38 10.94 0 6.09 1.25 11.88 3.5 17.14 1.71 3.99-.92 9.11-5.26 9.11h-49.45c-3.36 0-5.85-3.11-5.12-6.39l.75-3.37c4.57-20.59 22.83-35.24 43.92-35.24h7.56Z"/><path fill-rule="evenodd" d="M1810.11 1538.38c13.18 13.19 13.18 34.55 0 47.73s-34.55 13.18-47.73 0-13.18-34.54 0-47.73c13.18-13.18 34.55-13.18 47.73 0Zm-31.06 9.78c-1.9-1.9-4.99-1.9-6.89 0a4.859 4.859 0 0 0 0 6.89l7.19 7.2-6.48 6.48a4.877 4.877 0 0 0 6.9 6.89l6.48-6.48 7.19 7.2c1.91 1.9 4.99 1.9 6.9 0 1.9-1.9 1.9-4.99 0-6.89l-7.2-7.2 6.48-6.48c1.9-1.9 1.9-4.99 0-6.89a4.87 4.87 0 0 0-6.9 0l-6.47 6.48-7.2-7.2Z" clip-rule="evenodd"/></g></g></g><g id="Regular-L"><g id="Solid / User Delete Solid_6"><g id="Shape_6" fill="#000"><path d="M1415.73 1490.76c-2.26-19.86 13.28-37.26 33.27-37.26 19.98 0 35.52 17.4 33.26 37.26l-1.96 17.29c-1.81 15.92-15.28 27.95-31.3 27.95-16.03 0-29.5-12.03-31.3-27.95l-1.97-17.29ZM1442.65 1543.5c3.87 0 6.45 4.08 5.48 7.81-.9 3.5-1.38 7.16-1.38 10.94 0 6.09 1.25 11.88 3.5 17.14 1.71 3.99-.92 9.11-5.26 9.11h-49.45c-3.36 0-5.85-3.11-5.12-6.39l.75-3.37c4.57-20.59 22.83-35.24 43.92-35.24h7.56Z"/><path fill-rule="evenodd" d="M1514.11 1538.38c13.18 13.19 13.18 34.55 0 47.73s-34.55 13.18-47.73 0-13.18-34.54 0-47.73c13.18-13.18 34.55-13.18 47.73 0Zm-31.06 9.78c-1.9-1.9-4.99-1.9-6.89 0a4.859 4.859 0 0 0 0 6.89l7.19 7.2-6.48 6.48a4.877 4.877 0 0 0 6.9 6.89l6.48-6.48 7.19 7.2c1.91 1.9 4.99 1.9 6.9 0 1.9-1.9 1.9-4.99 0-6.89l-7.2-7.2 6.48-6.48c1.9-1.9 1.9-4.99 0-6.89a4.87 4.87 0 0 0-6.9 0l-6.47 6.48-7.2-7.2Z" clip-rule="evenodd"/></g></g></g><g id="Light-L"><g id="Solid / User Delete Solid_7"><g id="Shape_7" fill="#000"><path d="M1119.73 1490.76c-2.26-19.86 13.28-37.26 33.27-37.26 19.98 0 35.52 17.4 33.26 37.26l-1.96 17.29c-1.81 15.92-15.28 27.95-31.3 27.95-16.03 0-29.5-12.03-31.3-27.95l-1.97-17.29ZM1146.65 1543.5c3.87 0 6.45 4.08 5.48 7.81-.9 3.5-1.38 7.16-1.38 10.94 0 6.09 1.25 11.88 3.5 17.14 1.71 3.99-.92 9.11-5.26 9.11h-49.45c-3.36 0-5.85-3.11-5.12-6.39l.75-3.37c4.57-20.59 22.83-35.24 43.92-35.24h7.56Z"/><path fill-rule="evenodd" d="M1218.11 1538.38c13.18 13.19 13.18 34.55 0 47.73s-34.55 13.18-47.73 0-13.18-34.54 0-47.73c13.18-13.18 34.55-13.18 47.73 0Zm-31.06 9.78c-1.9-1.9-4.99-1.9-6.89 0a4.859 4.859 0 0 0 0 6.89l7.19 7.2-6.48 6.48a4.877 4.877 0 0 0 6.9 6.89l6.48-6.48 7.19 7.2c1.91 1.9 4.99 1.9 6.9 0 1.9-1.9 1.9-4.99 0-6.89l-7.2-7.2 6.48-6.48c1.9-1.9 1.9-4.99 0-6.89a4.87 4.87 0 0 0-6.9 0l-6.47 6.48-7.2-7.2Z" clip-rule="evenodd"/></g></g></g><g id="Thin-L"><g id="Solid / User Delete Solid_8"><g id="Shape_8" fill="#000"><path d="M823.731 1490.76c-2.257-19.86 13.278-37.26 33.265-37.26 19.988 0 35.523 17.4 33.266 37.26l-1.965 17.29c-1.809 15.92-15.279 27.95-31.301 27.95-16.021 0-29.491-12.03-31.3-27.95l-1.965-17.29ZM850.652 1543.5c3.863 0 6.449 4.08 5.48 7.81a43.66 43.66 0 0 0-1.386 10.94c0 6.09 1.25 11.88 3.508 17.14 1.711 3.99-.925 9.11-5.264 9.11h-49.449c-3.358 0-5.853-3.11-5.125-6.39l.75-3.37c4.575-20.59 22.837-35.24 43.928-35.24h7.558Z"/><path fill-rule="evenodd" d="M922.111 1538.38c13.18 13.19 13.18 34.55 0 47.73s-34.549 13.18-47.729 0c-13.181-13.18-13.181-34.54 0-47.73 13.18-13.18 34.549-13.18 47.729 0Zm-31.061 9.78a4.882 4.882 0 0 0-6.894 0 4.87 4.87 0 0 0 0 6.89l7.196 7.2-6.478 6.48a4.87 4.87 0 0 0 0 6.89 4.863 4.863 0 0 0 6.894 0l6.478-6.48 7.197 7.2a4.882 4.882 0 0 0 6.894 0 4.87 4.87 0 0 0 0-6.89l-7.196-7.2 6.478-6.48a4.87 4.87 0 0 0 0-6.89 4.863 4.863 0 0 0-6.894 0l-6.479 6.48-7.196-7.2Z" clip-rule="evenodd"/></g></g></g><g id="Ultralight-L"><g id="Solid / User Delete Solid_9"><g id="Shape_9" fill="#000"><path d="M527.731 1490.76c-2.257-19.86 13.278-37.26 33.265-37.26 19.988 0 35.523 17.4 33.266 37.26l-1.965 17.29c-1.809 15.92-15.279 27.95-31.301 27.95-16.021 0-29.491-12.03-31.3-27.95l-1.965-17.29ZM554.652 1543.5c3.863 0 6.449 4.08 5.48 7.81a43.66 43.66 0 0 0-1.386 10.94c0 6.09 1.25 11.88 3.508 17.14 1.711 3.99-.925 9.11-5.264 9.11h-49.449c-3.358 0-5.853-3.11-5.125-6.39l.75-3.37c4.575-20.59 22.837-35.24 43.928-35.24h7.558Z"/><path fill-rule="evenodd" d="M626.111 1538.38c13.18 13.19 13.18 34.55 0 47.73s-34.549 13.18-47.729 0c-13.181-13.18-13.181-34.54 0-47.73 13.18-13.18 34.549-13.18 47.729 0Zm-31.061 9.78a4.882 4.882 0 0 0-6.894 0 4.87 4.87 0 0 0 0 6.89l7.196 7.2-6.478 6.48a4.87 4.87 0 0 0 0 6.89 4.863 4.863 0 0 0 6.894 0l6.478-6.48 7.197 7.2a4.882 4.882 0 0 0 6.894 0 4.87 4.87 0 0 0 0-6.89l-7.196-7.2 6.478-6.48a4.87 4.87 0 0 0 0-6.89 4.863 4.863 0 0 0-6.894 0l-6.479 6.48-7.196-7.2Z" clip-rule="evenodd"/></g></g></g><g id="Black-M"><g id="Solid / User Delete Solid_10"><g id="Shape_10" fill="#000"><path d="M2903.12 1067.48c-1.75-15.45 10.33-28.98 25.88-28.98 15.54 0 27.63 13.53 25.87 28.98l-1.53 13.45c-1.4 12.38-11.88 21.74-24.34 21.74-12.46 0-22.94-9.36-24.35-21.74l-1.53-13.45ZM2924.06 1108.5c3.01 0 5.02 3.17 4.27 6.08a33.62 33.62 0 0 0-1.08 8.5c0 4.74.97 9.24 2.73 13.33 1.33 3.11-.72 7.09-4.1 7.09h-38.46c-2.61 0-4.55-2.42-3.99-4.97l.59-2.62c3.56-16.02 17.76-27.41 34.16-27.41h5.88Z"/><path fill-rule="evenodd" d="M2979.64 1104.52c10.25 10.25 10.25 26.87 0 37.12-10.25 10.26-26.87 10.26-37.12 0-10.25-10.25-10.25-26.87 0-37.12 10.25-10.25 26.87-10.25 37.12 0Zm-24.16 7.6a3.79 3.79 0 0 0-5.36 0 3.802 3.802 0 0 0 0 5.37l5.6 5.59-5.04 5.04a3.79 3.79 0 0 0 0 5.36 3.772 3.772 0 0 0 5.36 0l5.04-5.03 5.6 5.59a3.79 3.79 0 0 0 5.36-5.36l-5.6-5.6 5.04-5.04a3.79 3.79 0 0 0-5.36-5.36l-5.04 5.04-5.6-5.6Z" clip-rule="evenodd"/></g></g></g><g id="Heavy-M"><g id="Solid / User Delete Solid_11"><g id="Shape_11" fill="#000"><path d="M2607.12 1067.48c-1.75-15.45 10.33-28.98 25.88-28.98 15.54 0 27.63 13.53 25.87 28.98l-1.53 13.45c-1.4 12.38-11.88 21.74-24.34 21.74-12.46 0-22.94-9.36-24.35-21.74l-1.53-13.45ZM2628.06 1108.5c3.01 0 5.02 3.17 4.27 6.08a33.62 33.62 0 0 0-1.08 8.5c0 4.74.97 9.24 2.73 13.33 1.33 3.11-.72 7.09-4.1 7.09h-38.46c-2.61 0-4.55-2.42-3.99-4.97l.59-2.62c3.56-16.02 17.76-27.41 34.16-27.41h5.88Z"/><path fill-rule="evenodd" d="M2683.64 1104.52c10.25 10.25 10.25 26.87 0 37.12-10.25 10.26-26.87 10.26-37.12 0-10.25-10.25-10.25-26.87 0-37.12 10.25-10.25 26.87-10.25 37.12 0Zm-24.16 7.6a3.79 3.79 0 0 0-5.36 0 3.802 3.802 0 0 0 0 5.37l5.6 5.59-5.04 5.04a3.79 3.79 0 0 0 0 5.36 3.772 3.772 0 0 0 5.36 0l5.04-5.03 5.6 5.59a3.79 3.79 0 0 0 5.36-5.36l-5.6-5.6 5.04-5.04a3.79 3.79 0 0 0-5.36-5.36l-5.04 5.04-5.6-5.6Z" clip-rule="evenodd"/></g></g></g><g id="Bold-M"><g id="Solid / User Delete Solid_12"><g id="Shape_12" fill="#000"><path d="M2311.12 1067.48c-1.75-15.45 10.33-28.98 25.88-28.98 15.54 0 27.63 13.53 25.87 28.98l-1.53 13.45c-1.4 12.38-11.88 21.74-24.34 21.74-12.46 0-22.94-9.36-24.35-21.74l-1.53-13.45ZM2332.06 1108.5c3.01 0 5.02 3.17 4.27 6.08a33.62 33.62 0 0 0-1.08 8.5c0 4.74.97 9.24 2.73 13.33 1.33 3.11-.72 7.09-4.1 7.09h-38.46c-2.61 0-4.55-2.42-3.99-4.97l.59-2.62c3.56-16.02 17.76-27.41 34.16-27.41h5.88Z"/><path fill-rule="evenodd" d="M2387.64 1104.52c10.25 10.25 10.25 26.87 0 37.12-10.25 10.26-26.87 10.26-37.12 0-10.25-10.25-10.25-26.87 0-37.12 10.25-10.25 26.87-10.25 37.12 0Zm-24.16 7.6a3.79 3.79 0 0 0-5.36 0 3.802 3.802 0 0 0 0 5.37l5.6 5.59-5.04 5.04a3.79 3.79 0 0 0 0 5.36 3.772 3.772 0 0 0 5.36 0l5.04-5.03 5.6 5.59a3.79 3.79 0 0 0 5.36-5.36l-5.6-5.6 5.04-5.04a3.79 3.79 0 0 0-5.36-5.36l-5.04 5.04-5.6-5.6Z" clip-rule="evenodd"/></g></g></g><g id="Semibold-M"><g id="Solid / User Delete Solid_13"><g id="Shape_13" fill="#000"><path d="M2015.12 1067.48c-1.75-15.45 10.33-28.98 25.88-28.98 15.54 0 27.63 13.53 25.87 28.98l-1.53 13.45c-1.4 12.38-11.88 21.74-24.34 21.74-12.46 0-22.94-9.36-24.35-21.74l-1.53-13.45ZM2036.06 1108.5c3.01 0 5.02 3.17 4.27 6.08a33.62 33.62 0 0 0-1.08 8.5c0 4.74.97 9.24 2.73 13.33 1.33 3.11-.72 7.09-4.1 7.09h-38.46c-2.61 0-4.55-2.42-3.99-4.97l.59-2.62c3.56-16.02 17.76-27.41 34.16-27.41h5.88Z"/><path fill-rule="evenodd" d="M2091.64 1104.52c10.25 10.25 10.25 26.87 0 37.12-10.25 10.26-26.87 10.26-37.12 0-10.25-10.25-10.25-26.87 0-37.12 10.25-10.25 26.87-10.25 37.12 0Zm-24.16 7.6a3.79 3.79 0 0 0-5.36 0 3.802 3.802 0 0 0 0 5.37l5.6 5.59-5.04 5.04a3.79 3.79 0 0 0 0 5.36 3.772 3.772 0 0 0 5.36 0l5.04-5.03 5.6 5.59a3.79 3.79 0 0 0 5.36-5.36l-5.6-5.6 5.04-5.04a3.79 3.79 0 0 0-5.36-5.36l-5.04 5.04-5.6-5.6Z" clip-rule="evenodd"/></g></g></g><g id="Medium-M"><g id="Solid / User Delete Solid_14"><g id="Shape_14" fill="#000"><path d="M1719.12 1067.48c-1.75-15.45 10.33-28.98 25.88-28.98 15.54 0 27.63 13.53 25.87 28.98l-1.53 13.45c-1.4 12.38-11.88 21.74-24.34 21.74-12.46 0-22.94-9.36-24.35-21.74l-1.53-13.45ZM1740.06 1108.5c3.01 0 5.02 3.17 4.27 6.08a33.62 33.62 0 0 0-1.08 8.5c0 4.74.97 9.24 2.73 13.33 1.33 3.11-.72 7.09-4.1 7.09h-38.46c-2.61 0-4.55-2.42-3.99-4.97l.59-2.62c3.56-16.02 17.76-27.41 34.16-27.41h5.88Z"/><path fill-rule="evenodd" d="M1795.64 1104.52c10.25 10.25 10.25 26.87 0 37.12-10.25 10.26-26.87 10.26-37.12 0-10.25-10.25-10.25-26.87 0-37.12 10.25-10.25 26.87-10.25 37.12 0Zm-24.16 7.6a3.79 3.79 0 0 0-5.36 0 3.802 3.802 0 0 0 0 5.37l5.6 5.59-5.04 5.04a3.79 3.79 0 0 0 0 5.36 3.772 3.772 0 0 0 5.36 0l5.04-5.03 5.6 5.59a3.79 3.79 0 0 0 5.36-5.36l-5.6-5.6 5.04-5.04a3.79 3.79 0 0 0-5.36-5.36l-5.04 5.04-5.6-5.6Z" clip-rule="evenodd"/></g></g></g><g id="Regular-M"><g id="Solid / User Delete Solid_15"><g id="Shape_15" fill="#000"><path d="M1423.12 1067.48c-1.75-15.45 10.33-28.98 25.88-28.98 15.54 0 27.63 13.53 25.87 28.98l-1.53 13.45c-1.4 12.38-11.88 21.74-24.34 21.74-12.46 0-22.94-9.36-24.35-21.74l-1.53-13.45ZM1444.06 1108.5c3.01 0 5.02 3.17 4.27 6.08a33.62 33.62 0 0 0-1.08 8.5c0 4.74.97 9.24 2.73 13.33 1.33 3.11-.72 7.09-4.1 7.09h-38.46c-2.61 0-4.55-2.42-3.99-4.97l.59-2.62c3.56-16.02 17.76-27.41 34.16-27.41h5.88Z"/><path fill-rule="evenodd" d="M1499.64 1104.52c10.25 10.25 10.25 26.87 0 37.12-10.25 10.26-26.87 10.26-37.12 0-10.25-10.25-10.25-26.87 0-37.12 10.25-10.25 26.87-10.25 37.12 0Zm-24.16 7.6a3.79 3.79 0 0 0-5.36 0 3.802 3.802 0 0 0 0 5.37l5.6 5.59-5.04 5.04a3.79 3.79 0 0 0 0 5.36 3.772 3.772 0 0 0 5.36 0l5.04-5.03 5.6 5.59a3.79 3.79 0 0 0 5.36-5.36l-5.6-5.6 5.04-5.04a3.79 3.79 0 0 0-5.36-5.36l-5.04 5.04-5.6-5.6Z" clip-rule="evenodd"/></g></g></g><g id="Light-M"><g id="Solid / User Delete Solid_16"><g id="Shape_16" fill="#000"><path d="M1127.12 1067.48c-1.75-15.45 10.33-28.98 25.88-28.98 15.54 0 27.63 13.53 25.87 28.98l-1.53 13.45c-1.4 12.38-11.88 21.74-24.34 21.74-12.46 0-22.94-9.36-24.35-21.74l-1.53-13.45ZM1148.06 1108.5c3.01 0 5.02 3.17 4.27 6.08a33.62 33.62 0 0 0-1.08 8.5c0 4.74.97 9.24 2.73 13.33 1.33 3.11-.72 7.09-4.1 7.09h-38.46c-2.61 0-4.55-2.42-3.99-4.97l.59-2.62c3.56-16.02 17.76-27.41 34.16-27.41h5.88Z"/><path fill-rule="evenodd" d="M1203.64 1104.52c10.25 10.25 10.25 26.87 0 37.12-10.25 10.26-26.87 10.26-37.12 0-10.25-10.25-10.25-26.87 0-37.12 10.25-10.25 26.87-10.25 37.12 0Zm-24.16 7.6a3.79 3.79 0 0 0-5.36 0 3.802 3.802 0 0 0 0 5.37l5.6 5.59-5.04 5.04a3.79 3.79 0 0 0 0 5.36 3.772 3.772 0 0 0 5.36 0l5.04-5.03 5.6 5.59a3.79 3.79 0 0 0 5.36-5.36l-5.6-5.6 5.04-5.04a3.79 3.79 0 0 0-5.36-5.36l-5.04 5.04-5.6-5.6Z" clip-rule="evenodd"/></g></g></g><g id="Thin-M"><g id="Solid / User Delete Solid_17"><g id="Shape_17" fill="#000"><path d="M831.124 1067.48c-1.756-15.45 10.327-28.98 25.873-28.98 15.546 0 27.629 13.53 25.874 28.98l-1.529 13.45c-1.407 12.38-11.883 21.74-24.345 21.74-12.461 0-22.938-9.36-24.345-21.74l-1.528-13.45ZM852.063 1108.5c3.004 0 5.015 3.17 4.262 6.08a33.939 33.939 0 0 0-1.078 8.5c0 4.74.972 9.24 2.728 13.33 1.331 3.11-.719 7.09-4.094 7.09h-38.46a4.084 4.084 0 0 1-3.986-4.97l.583-2.62c3.558-16.02 17.762-27.41 34.166-27.41h5.879Z"/><path fill-rule="evenodd" d="M907.642 1104.52c10.251 10.25 10.251 26.87 0 37.12-10.251 10.26-26.872 10.26-37.123 0-10.251-10.25-10.251-26.87 0-37.12 10.251-10.25 26.872-10.25 37.123 0Zm-24.159 7.6a3.793 3.793 0 0 0-5.362 0 3.8 3.8 0 0 0 0 5.37l5.597 5.59-5.039 5.04a3.79 3.79 0 0 0 0 5.36 3.776 3.776 0 0 0 5.363 0l5.039-5.03 5.597 5.59a3.793 3.793 0 0 0 5.362 0 3.789 3.789 0 0 0 0-5.36l-5.597-5.6 5.039-5.04a3.79 3.79 0 1 0-5.363-5.36l-5.038 5.04-5.598-5.6Z" clip-rule="evenodd"/></g></g></g><g id="Ultralight-M"><g id="Solid / User Delete Solid_18"><g id="Shape_18" fill="#000"><path d="M535.124 1067.48c-1.756-15.45 10.327-28.98 25.873-28.98 15.546 0 27.629 13.53 25.874 28.98l-1.529 13.45c-1.407 12.38-11.883 21.74-24.345 21.74-12.461 0-22.938-9.36-24.345-21.74l-1.528-13.45ZM556.063 1108.5c3.004 0 5.015 3.17 4.262 6.08a33.939 33.939 0 0 0-1.078 8.5c0 4.74.972 9.24 2.728 13.33 1.331 3.11-.719 7.09-4.094 7.09h-38.46a4.084 4.084 0 0 1-3.986-4.97l.583-2.62c3.558-16.02 17.762-27.41 34.166-27.41h5.879Z"/><path fill-rule="evenodd" d="M611.642 1104.52c10.251 10.25 10.251 26.87 0 37.12-10.251 10.26-26.872 10.26-37.123 0-10.251-10.25-10.251-26.87 0-37.12 10.251-10.25 26.872-10.25 37.123 0Zm-24.159 7.6a3.793 3.793 0 0 0-5.362 0 3.8 3.8 0 0 0 0 5.37l5.597 5.59-5.039 5.04a3.79 3.79 0 0 0 0 5.36 3.776 3.776 0 0 0 5.363 0l5.039-5.03 5.597 5.59a3.793 3.793 0 0 0 5.362 0 3.789 3.789 0 0 0 0-5.36l-5.597-5.6 5.039-5.04a3.79 3.79 0 1 0-5.363-5.36l-5.038 5.04-5.598-5.6Z" clip-rule="evenodd"/></g></g></g><g id="Black-S"><g id="Solid / User Delete Solid_19"><g id="Shape_19" fill="#000"><path d="M2910.52 644.2c-1.26-11.033 7.37-20.7 18.48-20.7 11.1 0 19.73 9.667 18.48 20.7l-1.09 9.608c-1.01 8.844-8.49 15.525-17.39 15.525s-16.39-6.681-17.39-15.525l-1.09-9.608ZM2925.47 673.5c2.15 0 3.59 2.264 3.05 4.342-.5 1.941-.77 3.976-.77 6.075 0 3.381.69 6.6 1.95 9.522.95 2.215-.52 5.061-2.93 5.061h-27.47a2.919 2.919 0 0 1-2.85-3.549l.42-1.874c2.54-11.439 12.69-19.577 24.4-19.577h4.2Z"/><path fill-rule="evenodd" d="M2965.17 670.658c7.33 7.323 7.33 19.194 0 26.517-7.32 7.322-19.19 7.322-26.51 0-7.33-7.323-7.33-19.194 0-26.517 7.32-7.322 19.19-7.322 26.51 0Zm-17.25 5.43a2.71 2.71 0 0 0-3.83 3.83l3.99 3.999-3.59 3.599a2.704 2.704 0 0 0 0 3.83 2.708 2.708 0 0 0 3.83 0l3.59-3.599 4 3.998a2.708 2.708 0 0 0 3.83 0 2.704 2.704 0 0 0 0-3.83l-4-3.998 3.6-3.6a2.71 2.71 0 0 0-3.83-3.83l-3.6 3.599-3.99-3.998Z" clip-rule="evenodd"/></g></g></g><g id="Heavy-S"><g id="Solid / User Delete Solid_20"><g id="Shape_20" fill="#000"><path d="M2614.52 644.2c-1.26-11.033 7.37-20.7 18.48-20.7 11.1 0 19.73 9.667 18.48 20.7l-1.09 9.608c-1.01 8.844-8.49 15.525-17.39 15.525s-16.39-6.681-17.39-15.525l-1.09-9.608ZM2629.47 673.5c2.15 0 3.59 2.264 3.05 4.342-.5 1.941-.77 3.976-.77 6.075 0 3.381.69 6.6 1.95 9.522.95 2.215-.52 5.061-2.93 5.061h-27.47a2.919 2.919 0 0 1-2.85-3.549l.42-1.874c2.54-11.439 12.69-19.577 24.4-19.577h4.2Z"/><path fill-rule="evenodd" d="M2669.17 670.658c7.33 7.323 7.33 19.194 0 26.517-7.32 7.322-19.19 7.322-26.51 0-7.33-7.323-7.33-19.194 0-26.517 7.32-7.322 19.19-7.322 26.51 0Zm-17.25 5.43a2.71 2.71 0 0 0-3.83 3.83l3.99 3.999-3.59 3.599a2.704 2.704 0 0 0 0 3.83 2.708 2.708 0 0 0 3.83 0l3.59-3.599 4 3.998a2.708 2.708 0 0 0 3.83 0 2.704 2.704 0 0 0 0-3.83l-4-3.998 3.6-3.6a2.71 2.71 0 0 0-3.83-3.83l-3.6 3.599-3.99-3.998Z" clip-rule="evenodd"/></g></g></g><g id="Bold-S"><g id="Solid / User Delete Solid_21"><g id="Shape_21" fill="#000"><path d="M2318.52 644.2c-1.26-11.033 7.37-20.7 18.48-20.7 11.1 0 19.73 9.667 18.48 20.7l-1.09 9.608c-1.01 8.844-8.49 15.525-17.39 15.525s-16.39-6.681-17.39-15.525l-1.09-9.608ZM2333.47 673.5c2.15 0 3.59 2.264 3.05 4.342-.5 1.941-.77 3.976-.77 6.075 0 3.381.69 6.6 1.95 9.522.95 2.215-.52 5.061-2.93 5.061h-27.47a2.919 2.919 0 0 1-2.85-3.549l.42-1.874c2.54-11.439 12.69-19.577 24.4-19.577h4.2Z"/><path fill-rule="evenodd" d="M2373.17 670.658c7.33 7.323 7.33 19.194 0 26.517-7.32 7.322-19.19 7.322-26.51 0-7.33-7.323-7.33-19.194 0-26.517 7.32-7.322 19.19-7.322 26.51 0Zm-17.25 5.43a2.71 2.71 0 0 0-3.83 3.83l3.99 3.999-3.59 3.599a2.704 2.704 0 0 0 0 3.83 2.708 2.708 0 0 0 3.83 0l3.59-3.599 4 3.998a2.708 2.708 0 0 0 3.83 0 2.704 2.704 0 0 0 0-3.83l-4-3.998 3.6-3.6a2.71 2.71 0 0 0-3.83-3.83l-3.6 3.599-3.99-3.998Z" clip-rule="evenodd"/></g></g></g><g id="Semibold-S"><g id="Solid / User Delete Solid_22"><g id="Shape_22" fill="#000"><path d="M2022.52 644.2c-1.26-11.033 7.37-20.7 18.48-20.7 11.1 0 19.73 9.667 18.48 20.7l-1.09 9.608c-1.01 8.844-8.49 15.525-17.39 15.525s-16.39-6.681-17.39-15.525l-1.09-9.608ZM2037.47 673.5c2.15 0 3.59 2.264 3.05 4.342-.5 1.941-.77 3.976-.77 6.075 0 3.381.69 6.6 1.95 9.522.95 2.215-.52 5.061-2.93 5.061h-27.47a2.919 2.919 0 0 1-2.85-3.549l.42-1.874c2.54-11.439 12.69-19.577 24.4-19.577h4.2Z"/><path fill-rule="evenodd" d="M2077.17 670.658c7.33 7.323 7.33 19.194 0 26.517-7.32 7.322-19.19 7.322-26.51 0-7.33-7.323-7.33-19.194 0-26.517 7.32-7.322 19.19-7.322 26.51 0Zm-17.25 5.43a2.71 2.71 0 0 0-3.83 3.83l3.99 3.999-3.59 3.599a2.704 2.704 0 0 0 0 3.83 2.708 2.708 0 0 0 3.83 0l3.59-3.599 4 3.998a2.708 2.708 0 0 0 3.83 0 2.704 2.704 0 0 0 0-3.83l-4-3.998 3.6-3.6a2.71 2.71 0 0 0-3.83-3.83l-3.6 3.599-3.99-3.998Z" clip-rule="evenodd"/></g></g></g><g id="Medium-S"><g id="Solid / User Delete Solid_23"><g id="Shape_23" fill="#000"><path d="M1726.52 644.2c-1.26-11.033 7.37-20.7 18.48-20.7 11.1 0 19.73 9.667 18.48 20.7l-1.09 9.608c-1.01 8.844-8.49 15.525-17.39 15.525s-16.39-6.681-17.39-15.525l-1.09-9.608ZM1741.47 673.5c2.15 0 3.59 2.264 3.05 4.342-.5 1.941-.77 3.976-.77 6.075 0 3.381.69 6.6 1.95 9.522.95 2.215-.52 5.061-2.93 5.061h-27.47a2.919 2.919 0 0 1-2.85-3.549l.42-1.874c2.54-11.439 12.69-19.577 24.4-19.577h4.2Z"/><path fill-rule="evenodd" d="M1781.17 670.658c7.33 7.323 7.33 19.194 0 26.517-7.32 7.322-19.19 7.322-26.51 0-7.33-7.323-7.33-19.194 0-26.517 7.32-7.322 19.19-7.322 26.51 0Zm-17.25 5.43a2.71 2.71 0 0 0-3.83 3.83l3.99 3.999-3.59 3.599a2.704 2.704 0 0 0 0 3.83 2.708 2.708 0 0 0 3.83 0l3.59-3.599 4 3.998a2.708 2.708 0 0 0 3.83 0 2.704 2.704 0 0 0 0-3.83l-4-3.998 3.6-3.6a2.71 2.71 0 0 0-3.83-3.83l-3.6 3.599-3.99-3.998Z" clip-rule="evenodd"/></g></g></g><g id="Regular-S"><g id="Solid / User Delete Solid_24"><g id="Shape_24" fill="#000"><path d="M1430.52 644.2c-1.26-11.033 7.37-20.7 18.48-20.7 11.1 0 19.73 9.667 18.48 20.7l-1.09 9.608c-1.01 8.844-8.49 15.525-17.39 15.525s-16.39-6.681-17.39-15.525l-1.09-9.608ZM1445.47 673.5c2.15 0 3.59 2.264 3.05 4.342-.5 1.941-.77 3.976-.77 6.075 0 3.381.69 6.6 1.95 9.522.95 2.215-.52 5.061-2.93 5.061h-27.47a2.919 2.919 0 0 1-2.85-3.549l.42-1.874c2.54-11.439 12.69-19.577 24.4-19.577h4.2Z"/><path fill-rule="evenodd" d="M1485.17 670.658c7.33 7.323 7.33 19.194 0 26.517-7.32 7.322-19.19 7.322-26.51 0-7.33-7.323-7.33-19.194 0-26.517 7.32-7.322 19.19-7.322 26.51 0Zm-17.25 5.43a2.71 2.71 0 0 0-3.83 3.83l3.99 3.999-3.59 3.599a2.704 2.704 0 0 0 0 3.83 2.708 2.708 0 0 0 3.83 0l3.59-3.599 4 3.998a2.708 2.708 0 0 0 3.83 0 2.704 2.704 0 0 0 0-3.83l-4-3.998 3.6-3.6a2.71 2.71 0 0 0-3.83-3.83l-3.6 3.599-3.99-3.998Z" clip-rule="evenodd"/></g></g></g><g id="Light-S"><g id="Solid / User Delete Solid_25"><g id="Shape_25" fill="#000"><path d="M1134.52 644.2c-1.26-11.033 7.37-20.7 18.48-20.7 11.1 0 19.73 9.667 18.48 20.7l-1.09 9.608c-1.01 8.844-8.49 15.525-17.39 15.525s-16.39-6.681-17.39-15.525l-1.09-9.608ZM1149.47 673.5c2.15 0 3.59 2.264 3.05 4.342-.5 1.941-.77 3.976-.77 6.075 0 3.381.69 6.6 1.95 9.522.95 2.215-.52 5.061-2.93 5.061h-27.47a2.919 2.919 0 0 1-2.85-3.549l.42-1.874c2.54-11.439 12.69-19.577 24.4-19.577h4.2Z"/><path fill-rule="evenodd" d="M1189.17 670.658c7.33 7.323 7.33 19.194 0 26.517-7.32 7.322-19.19 7.322-26.51 0-7.33-7.323-7.33-19.194 0-26.517 7.32-7.322 19.19-7.322 26.51 0Zm-17.25 5.43a2.71 2.71 0 0 0-3.83 3.83l3.99 3.999-3.59 3.599a2.704 2.704 0 0 0 0 3.83 2.708 2.708 0 0 0 3.83 0l3.59-3.599 4 3.998a2.708 2.708 0 0 0 3.83 0 2.704 2.704 0 0 0 0-3.83l-4-3.998 3.6-3.6a2.71 2.71 0 0 0-3.83-3.83l-3.6 3.599-3.99-3.998Z" clip-rule="evenodd"/></g></g></g><g id="Thin-S"><g id="Solid / User Delete Solid_26"><g id="Shape_26" fill="#000"><path d="M838.517 644.2c-1.254-11.033 7.377-20.7 18.481-20.7 11.104 0 19.735 9.667 18.481 20.7l-1.092 9.608c-1.005 8.844-8.488 15.525-17.389 15.525s-16.384-6.681-17.389-15.525l-1.092-9.608ZM853.473 673.5c2.146 0 3.583 2.264 3.045 4.342a24.184 24.184 0 0 0-.77 6.075c0 3.381.694 6.6 1.949 9.522.95 2.215-.514 5.061-2.925 5.061h-27.471a2.917 2.917 0 0 1-2.848-3.549l.417-1.874c2.542-11.439 12.687-19.577 24.405-19.577h4.198Z"/><path fill-rule="evenodd" d="M893.173 670.658c7.322 7.323 7.322 19.194 0 26.517-7.322 7.322-19.194 7.322-26.517 0-7.322-7.323-7.322-19.194 0-26.517 7.323-7.322 19.195-7.322 26.517 0Zm-17.256 5.43a2.71 2.71 0 0 0-3.831 3.83l3.999 3.999-3.6 3.599a2.71 2.71 0 0 0 3.83 3.83l3.6-3.599 3.998 3.998a2.708 2.708 0 1 0 3.83-3.83l-3.998-3.998 3.599-3.6a2.708 2.708 0 1 0-3.83-3.83l-3.599 3.599-3.998-3.998Z" clip-rule="evenodd"/></g></g></g><g id="Ultralight-S"><g id="Solid / User Delete Solid_27"><g id="Shape_27" fill="#000"><path d="M542.517 644.2c-1.254-11.033 7.377-20.7 18.481-20.7 11.104 0 19.735 9.667 18.481 20.7l-1.092 9.608c-1.005 8.844-8.488 15.525-17.389 15.525s-16.384-6.681-17.389-15.525l-1.092-9.608ZM557.473 673.5c2.146 0 3.583 2.264 3.045 4.342a24.184 24.184 0 0 0-.77 6.075c0 3.381.694 6.6 1.949 9.522.95 2.215-.514 5.061-2.925 5.061h-27.471a2.917 2.917 0 0 1-2.848-3.549l.417-1.874c2.542-11.439 12.687-19.577 24.405-19.577h4.198Z"/><path fill-rule="evenodd" d="M597.173 670.658c7.322 7.323 7.322 19.194 0 26.517-7.322 7.322-19.194 7.322-26.517 0-7.322-7.323-7.322-19.194 0-26.517 7.323-7.322 19.195-7.322 26.517 0Zm-17.256 5.43a2.71 2.71 0 0 0-3.831 3.83l3.999 3.999-3.6 3.599a2.71 2.71 0 0 0 3.83 3.83l3.6-3.599 3.998 3.998a2.708 2.708 0 1 0 3.83-3.83l-3.998-3.998 3.599-3.6a2.708 2.708 0 1 0-3.83-3.83l-3.599 3.599-3.998-3.998Z" clip-rule="evenodd"/></g></g></g></g></g><defs><clipPath id="clip0_805_27002"><path fill="#fff" d="M0 0h3300v2200H0z"/></clipPath></defs></svg>