<svg xmlns="http://www.w3.org/2000/svg" width="3300" height="2200" fill="none"><path fill="#E5E5E5" d="M0 0h3300v2200H0z"/><g id="Category / Outline / Work" clip-path="url(#clip0_0_1)"><g id="Notes"><path id="artboard" fill="#fff" d="M3300 0H0v2200h3300V0Z"/><path id="Vector" stroke="#000" stroke-width=".5" d="M263 292h2773"/><text xml:space="preserve" id="Weight/Scale Variations" fill="#000" font-family="Roboto" font-size="12" letter-spacing="0em" style="white-space:pre"><tspan x="263" y="321.102">Weight/Scale Variations</tspan></text><text xml:space="preserve" id="Ultralight" fill="#000" font-family="Roboto" font-size="12" letter-spacing="0em" style="white-space:pre"><tspan x="535.211" y="321.102">Ultralight</tspan></text><text xml:space="preserve" id="Thin" fill="#000" font-family="Roboto" font-size="12" letter-spacing="0em" style="white-space:pre"><tspan x="844.422" y="321.102">Thin</tspan></text><text xml:space="preserve" id="Light" fill="#000" font-family="Roboto" font-size="12" letter-spacing="0em" style="white-space:pre"><tspan x="1139.63" y="321.102">Light</tspan></text><text xml:space="preserve" id="Regular" fill="#000" font-family="Roboto" font-size="12" letter-spacing="0em" style="white-space:pre"><tspan x="1429.34" y="321.102">Regular</tspan></text><text xml:space="preserve" id="Medium" fill="#000" font-family="Roboto" font-size="12" letter-spacing="0em" style="white-space:pre"><tspan x="1724.56" y="321.102">Medium</tspan></text><text xml:space="preserve" id="Semibold" fill="#000" font-family="Roboto" font-size="12" letter-spacing="0em" style="white-space:pre"><tspan x="2017.77" y="321.102">Semibold</tspan></text><text xml:space="preserve" id="Bold" fill="#000" font-family="Roboto" font-size="12" letter-spacing="0em" style="white-space:pre"><tspan x="2327.48" y="321.102">Bold</tspan></text><text xml:space="preserve" id="Heavy" fill="#000" font-family="Roboto" font-size="12" letter-spacing="0em" style="white-space:pre"><tspan x="2620.19" y="321.102">Heavy</tspan></text><text xml:space="preserve" id="Black" fill="#000" font-family="Roboto" font-size="12" letter-spacing="0em" style="white-space:pre"><tspan x="2918.4" y="321.102">Black</tspan></text><path id="Vector_2" stroke="#000" stroke-width=".5" d="M263 1903h2773"/><g id="Group"><path id="Vector_3" fill="#000" d="M272.248 1933.83c4.307 0 7.891-3.57 7.891-7.88 0-4.31-3.594-7.88-7.901-7.88-4.297 0-7.871 3.57-7.871 7.88 0 4.31 3.584 7.88 7.881 7.88Zm0-1.48c-3.545 0-6.377-2.84-6.377-6.4 0-3.55 2.822-6.4 6.367-6.4a6.388 6.388 0 0 1 6.406 6.4 6.361 6.361 0 0 1-6.396 6.4Zm-.019-2.78c.468 0 .742-.31.742-.83v-2.06h2.226c.498 0 .84-.25.84-.72 0-.48-.322-.74-.84-.74h-2.226v-2.23c0-.52-.274-.84-.742-.84-.469 0-.723.34-.723.84v2.23h-2.207c-.518 0-.85.26-.85.74 0 .47.352.72.85.72h2.207v2.06c0 .5.254.83.723.83Z"/></g><g id="Group_2"><path id="Vector_4" fill="#000" d="M293.215 1935.91c5.449 0 9.961-4.51 9.961-9.96 0-5.44-4.521-9.96-9.971-9.96-5.439 0-9.951 4.52-9.951 9.96 0 5.45 4.522 9.96 9.961 9.96Zm0-1.66a8.26 8.26 0 0 1-8.291-8.3c0-4.6 3.672-8.3 8.281-8.3 4.61 0 8.301 3.7 8.311 8.3a8.261 8.261 0 0 1-8.301 8.3Zm-.019-3.66c.517 0 .83-.36.83-.93v-2.89h3.056c.547 0 .928-.28.928-.8 0-.53-.361-.83-.928-.83h-3.056v-3.07c0-.57-.313-.93-.83-.93-.518 0-.811.38-.811.93v3.07h-3.047c-.566 0-.937.3-.937.83 0 .52.39.8.937.8h3.047v2.89c0 .55.293.93.811.93Z"/></g><g id="Group_3"><path id="Vector_5" fill="#000" d="M319.895 1938.67c6.963 0 12.724-5.75 12.724-12.71 0-6.97-5.771-12.72-12.734-12.72-6.953 0-12.705 5.75-12.705 12.72 0 6.96 5.762 12.71 12.715 12.71Zm0-1.81a10.875 10.875 0 0 1-10.889-10.9c0-6.04 4.844-10.9 10.879-10.9 6.045 0 10.898 4.86 10.908 10.9a10.87 10.87 0 0 1-10.898 10.9Zm-.02-4.93c.567 0 .918-.39.918-.99v-4.07h4.238c.586 0 1.006-.34 1.006-.89 0-.58-.39-.92-1.006-.92h-4.238v-4.25c0-.61-.351-1.01-.918-1.01-.566 0-.888.41-.888 1.01v4.25h-4.229c-.615 0-1.025.34-1.025.92 0 .55.429.89 1.025.89h4.229v4.07c0 .58.322.99.888.99Z"/></g><text xml:space="preserve" id="Design Variations" fill="#000" font-family="Roboto" font-size="12" letter-spacing="0em" style="white-space:pre"><tspan x="263" y="1952.1">Design Variations</tspan></text><text xml:space="preserve" id="Symbols are supported in up to nine weights and three scales." fill="#000" font-family="Roboto" font-size="12" letter-spacing="0em" style="white-space:pre"><tspan x="263" y="1970.1">Symbols are supported in up to nine weights and three scales.</tspan></text><text xml:space="preserve" id="For optimal layout with text and other symbols, vertically align" fill="#000" font-family="Roboto" font-size="12" letter-spacing="0em" style="white-space:pre"><tspan x="263" y="1988.1">For optimal layout with text and other symbols, vertically align</tspan></text><text xml:space="preserve" id="symbols with the adjacent text." fill="#000" font-family="Roboto" font-size="12" letter-spacing="0em" style="white-space:pre"><tspan x="263" y="2006.1">symbols with the adjacent text.</tspan></text><path id="Vector_6" fill="#00AEEF" d="M779 1919h-3v14h3v-14Z" opacity=".4"/><g id="Group_4"><path id="Vector_7" fill="#000" d="M789.527 1933h1.846l-5.195-14.09h-1.739l-5.195 14.09h1.846l1.416-4.04h5.605l1.416 4.04Zm-4.248-11.96h.059l2.256 6.43h-4.571l2.256-6.43Z"/></g><path id="Vector_8" fill="#00AEEF" d="M794.617 1919h-3v14h3v-14Z" opacity=".4"/><text xml:space="preserve" id="Margins" fill="#000" font-family="Roboto" font-size="12" letter-spacing="0em" style="white-space:pre"><tspan x="776" y="1952.1">Margins</tspan></text><text xml:space="preserve" id="Leading and trailing margins on the left and right side of each symbol" fill="#000" font-family="Roboto" font-size="12" letter-spacing="0em" style="white-space:pre"><tspan x="776" y="1970.1">Leading and trailing margins on the left and right side of each symbol</tspan></text><text xml:space="preserve" id="can be adjusted by modifying the width of the blue rectangles." fill="#000" font-family="Roboto" font-size="12" letter-spacing="0em" style="white-space:pre"><tspan x="776" y="1988.1">can be adjusted by modifying the width of the blue rectangles.</tspan></text><text xml:space="preserve" id="Modifications are automatically applied proportionally to all" fill="#000" font-family="Roboto" font-size="12" letter-spacing="0em" style="white-space:pre"><tspan x="776" y="2006.1">Modifications are automatically applied proportionally to all</tspan></text><text xml:space="preserve" id="scales and weights." fill="#000" font-family="Roboto" font-size="12" letter-spacing="0em" style="white-space:pre"><tspan x="776" y="2024.1">scales and weights.</tspan></text><g id="Group_5"><path id="Vector_9" fill="#000" d="m1291.83 1936.11 1.55 1.55c.84.83 1.81.76 2.68-.2l10.22-11.12c.43.29.82.28 1.28.18l1.05-.21.69.69-.05.52c-.06.53.1.95.6 1.45l.81.81c.51.5 1.16.53 1.64.05l3.25-3.25c.48-.48.46-1.13-.05-1.64l-.82-.82c-.49-.5-.9-.67-1.44-.59l-.53.05-.65-.66.28-1.14c.15-.57 0-1.04-.63-1.64l-2.41-2.39c-3.54-3.53-8.07-3.42-11.19-.29-.42.43-.47 1.02-.19 1.45.23.37.71.59 1.35.43 1.52-.38 3.03-.27 4.52.74l-.63 1.58c-.23.59-.21 1.07.02 1.5l-11.16 10.28c-.94.87-1.05 1.81-.19 2.67Zm7.84-18.26c2.67-1.99 5.98-1.68 8.38.73l2.63 2.61c.23.24.26.42.2.72l-.38 1.56 1.58 1.57.96-.09c.29-.03.37-.01.6.22l.62.62-2.75 2.75-.63-.62c-.22-.22-.24-.32-.21-.6l.09-.96-1.56-1.56-1.63.31c-.28.06-.43.06-.66-.19l-2.18-2.17c-.22-.24-.25-.38-.12-.7l.94-2.27c-1.6-1.54-3.71-2.39-5.75-1.73-.09.03-.16.01-.18-.03-.03-.05-.03-.1.05-.17Zm-6.57 17.56c-.49-.5-.31-.8.02-1.1l10.96-10.12 1.23 1.23-10.16 10.93c-.3.33-.68.43-1.08.03l-.97-.97Z"/></g><text xml:space="preserve" id="Exporting" fill="#000" font-family="Roboto" font-size="12" letter-spacing="0em" style="white-space:pre"><tspan x="1289" y="1952.1">Exporting</tspan></text><text xml:space="preserve" id="Symbols should be outlined when exporting to ensure the" fill="#000" font-family="Roboto" font-size="12" letter-spacing="0em" style="white-space:pre"><tspan x="1289" y="1970.1">Symbols should be outlined when exporting to ensure the</tspan></text><text xml:space="preserve" id="design is preserved when submitting to Xcode." fill="#000" font-family="Roboto" font-size="12" letter-spacing="0em" style="white-space:pre"><tspan x="1289" y="1988.1">design is preserved when submitting to Xcode.</tspan></text><text xml:space="preserve" id="template-version" fill="#000" font-family="Roboto" font-size="12" letter-spacing="0em" style="white-space:pre"><tspan x="2958" y="1932.1">Template v.1.0</tspan></text><text xml:space="preserve" id="Generated from pencil.circle" fill="#000" font-family="Roboto" font-size="12" letter-spacing="0em" style="white-space:pre"><tspan x="2885" y="1950.1">Generated from pencil.circle</tspan></text><text xml:space="preserve" id="Typeset at 100 points" fill="#000" font-family="Roboto" font-size="12" letter-spacing="0em" style="white-space:pre"><tspan x="2921" y="1968.1">Typeset at 100 points</tspan></text><text xml:space="preserve" id="Small" fill="#000" font-family="Roboto" font-size="12" letter-spacing="0em" style="white-space:pre"><tspan x="263" y="725.102">Small</tspan></text><text xml:space="preserve" id="Medium_2" fill="#000" font-family="Roboto" font-size="12" letter-spacing="0em" style="white-space:pre"><tspan x="263" y="1155.1">Medium</tspan></text><text xml:space="preserve" id="Large" fill="#000" font-family="Roboto" font-size="12" letter-spacing="0em" style="white-space:pre"><tspan x="263" y="1585.1">Large</tspan></text></g><g id="Guides"><g id="H-reference"><path id="Vector_10" fill="#27AAE1" d="M393.932 695.998h2.734l-27.1-70.459h-2.49l-27.099 70.459h2.685l9.278-24.463h32.763l9.229 24.463Zm-25.733-67.09h.244l15.381 40.381h-31.006l15.381-40.381Z"/></g><path id="Baseline-S" stroke="#27AAE1" stroke-width=".577" d="M263 696h2773"/><path id="Capline-S" stroke="#27AAE1" stroke-width=".577" d="M263 626h2773"/><g id="H-reference_2"><path id="Vector_11" fill="#27AAE1" d="M393.932 1126h2.734l-27.1-70.46h-2.49L339.977 1126h2.685l9.278-24.46h32.763l9.229 24.46Zm-25.733-67.09h.244l15.381 40.38h-31.006l15.381-40.38Z"/></g><path id="Baseline-M" stroke="#27AAE1" stroke-width=".577" d="M263 1126h2773"/><path id="Capline-M" stroke="#27AAE1" stroke-width=".577" d="M263 1056h2773"/><g id="H-reference_3"><path id="Vector_12" fill="#27AAE1" d="M393.932 1556h2.734l-27.1-70.46h-2.49L339.977 1556h2.685l9.278-24.46h32.763l9.229 24.46Zm-25.733-67.09h.244l15.381 40.38h-31.006l15.381-40.38Z"/></g><g id="Group 1" stroke="#27AAE1" stroke-width=".577"><path id="Baseline-L" d="M263 1556h2773"/><path id="Capline-L" d="M263 1486h2773"/></g><path id="left-margin" fill="#00AEEF" d="M1396.04 1030.79h-8.74v119.33h8.74v-119.33Z" opacity=".4"/><path id="right-margin" fill="#00AEEF" d="M1510.39 1030.79h-8.74v119.33h8.74v-119.33Z" opacity=".4"/></g><g id="Symbols"><g id="Black-L"><g id="Outline / Work Outline"><g id="Shape" fill="#000"><path d="M2901.62 1473.49c0-10.97 8.9-19.87 19.88-19.87h15c10.98 0 19.87 8.9 19.87 19.87 0 2.69-2.18 4.88-4.87 4.88s-4.88-2.19-4.88-4.88c0-5.59-4.53-10.12-10.12-10.12h-15c-5.59 0-10.13 4.53-10.13 10.12 0 2.69-2.18 4.88-4.87 4.88s-4.88-2.19-4.88-4.88Z"/><path fill-rule="evenodd" d="M2861.46 1509.5c0-12.45 10.05-22.5 22.5-22.5h90.03c12.38 0 22.5 10.05 22.5 22.5v48.99c0 12.45-10.05 22.5-22.5 22.5h-90.03c-12.45 0-22.5-10.05-22.5-22.5v-48.99Zm125.28 0c0-7.05-5.7-12.75-12.75-12.75h-90.03c-7.05 0-12.75 5.7-12.75 12.75v8.79l.01 4.23c0 3.32 1.23 6.52 3.44 8.99 2.56 2.84 6.2 4.47 10.02 4.47h88.69c3.79 0 7.4-1.61 9.94-4.44 2.2-2.45 3.42-5.63 3.42-8.93v-4.26h.01v-8.85Zm0 31.96a23.097 23.097 0 0 1-13.37 4.27h-9.5v10.98c0 2.69-2.18 4.88-4.87 4.88s-4.88-2.19-4.88-4.88v-10.98h-50.25v10.99c0 2.7-2.18 4.88-4.87 4.88a4.88 4.88 0 0 1-4.88-4.88v-10.99h-9.44c-4.87 0-9.57-1.53-13.47-4.31v17.07c0 7.05 5.7 12.75 12.75 12.75h90.03c7.05 0 12.75-5.7 12.75-12.75v-17.03Z" clip-rule="evenodd"/></g></g></g><g id="Heavy-L"><g id="Outline / Work Outline_2"><g id="Shape_2" fill="#000"><path d="M2605.62 1473.49c0-10.97 8.9-19.87 19.88-19.87h15c10.98 0 19.87 8.9 19.87 19.87 0 2.69-2.18 4.88-4.87 4.88s-4.88-2.19-4.88-4.88c0-5.59-4.53-10.12-10.12-10.12h-15c-5.59 0-10.13 4.53-10.13 10.12 0 2.69-2.18 4.88-4.87 4.88s-4.88-2.19-4.88-4.88Z"/><path fill-rule="evenodd" d="M2565.46 1509.5c0-12.45 10.05-22.5 22.5-22.5h90.03c12.38 0 22.5 10.05 22.5 22.5v48.99c0 12.45-10.05 22.5-22.5 22.5h-90.03c-12.45 0-22.5-10.05-22.5-22.5v-48.99Zm125.28 0c0-7.05-5.7-12.75-12.75-12.75h-90.03c-7.05 0-12.75 5.7-12.75 12.75v8.79l.01 4.23c0 3.32 1.23 6.52 3.44 8.99 2.56 2.84 6.2 4.47 10.02 4.47h88.69c3.79 0 7.4-1.61 9.94-4.44 2.2-2.45 3.42-5.63 3.42-8.93v-4.26h.01v-8.85Zm0 31.96a23.097 23.097 0 0 1-13.37 4.27h-9.5v10.98c0 2.69-2.18 4.88-4.87 4.88s-4.88-2.19-4.88-4.88v-10.98h-50.25v10.99c0 2.7-2.18 4.88-4.87 4.88a4.88 4.88 0 0 1-4.88-4.88v-10.99h-9.44c-4.87 0-9.57-1.53-13.47-4.31v17.07c0 7.05 5.7 12.75 12.75 12.75h90.03c7.05 0 12.75-5.7 12.75-12.75v-17.03Z" clip-rule="evenodd"/></g></g></g><g id="Bold-L"><g id="Outline / Work Outline_3"><g id="Shape_3" fill="#000"><path d="M2309.62 1473.49c0-10.97 8.9-19.87 19.88-19.87h15c10.98 0 19.87 8.9 19.87 19.87 0 2.69-2.18 4.88-4.87 4.88s-4.88-2.19-4.88-4.88c0-5.59-4.53-10.12-10.12-10.12h-15c-5.59 0-10.13 4.53-10.13 10.12 0 2.69-2.18 4.88-4.87 4.88s-4.88-2.19-4.88-4.88Z"/><path fill-rule="evenodd" d="M2269.46 1509.5c0-12.45 10.05-22.5 22.5-22.5h90.03c12.38 0 22.5 10.05 22.5 22.5v48.99c0 12.45-10.05 22.5-22.5 22.5h-90.03c-12.45 0-22.5-10.05-22.5-22.5v-48.99Zm125.28 0c0-7.05-5.7-12.75-12.75-12.75h-90.03c-7.05 0-12.75 5.7-12.75 12.75v8.79l.01 4.23c0 3.32 1.23 6.52 3.44 8.99 2.56 2.84 6.2 4.47 10.02 4.47h88.69c3.79 0 7.4-1.61 9.94-4.44 2.2-2.45 3.42-5.63 3.42-8.93v-4.26h.01v-8.85Zm0 31.96a23.097 23.097 0 0 1-13.37 4.27h-9.5v10.98c0 2.69-2.18 4.88-4.87 4.88s-4.88-2.19-4.88-4.88v-10.98h-50.25v10.99c0 2.7-2.18 4.88-4.87 4.88a4.88 4.88 0 0 1-4.88-4.88v-10.99h-9.44c-4.87 0-9.57-1.53-13.47-4.31v17.07c0 7.05 5.7 12.75 12.75 12.75h90.03c7.05 0 12.75-5.7 12.75-12.75v-17.03Z" clip-rule="evenodd"/></g></g></g><g id="Semibold-L"><g id="Outline / Work Outline_4"><g id="Shape_4" fill="#000"><path d="M2013.62 1473.49c0-10.97 8.9-19.87 19.88-19.87h15c10.98 0 19.87 8.9 19.87 19.87 0 2.69-2.18 4.88-4.87 4.88s-4.88-2.19-4.88-4.88c0-5.59-4.53-10.12-10.12-10.12h-15c-5.59 0-10.13 4.53-10.13 10.12 0 2.69-2.18 4.88-4.87 4.88s-4.88-2.19-4.88-4.88Z"/><path fill-rule="evenodd" d="M1973.46 1509.5c0-12.45 10.05-22.5 22.5-22.5h90.03c12.38 0 22.5 10.05 22.5 22.5v48.99c0 12.45-10.05 22.5-22.5 22.5h-90.03c-12.45 0-22.5-10.05-22.5-22.5v-48.99Zm125.28 0c0-7.05-5.7-12.75-12.75-12.75h-90.03c-7.05 0-12.75 5.7-12.75 12.75v8.79l.01 4.23c0 3.32 1.23 6.52 3.44 8.99 2.56 2.84 6.2 4.47 10.02 4.47h88.69c3.79 0 7.4-1.61 9.94-4.44 2.2-2.45 3.42-5.63 3.42-8.93v-4.26h.01v-8.85Zm0 31.96a23.097 23.097 0 0 1-13.37 4.27h-9.5v10.98c0 2.69-2.18 4.88-4.87 4.88s-4.88-2.19-4.88-4.88v-10.98h-50.25v10.99c0 2.7-2.18 4.88-4.87 4.88a4.88 4.88 0 0 1-4.88-4.88v-10.99h-9.44c-4.87 0-9.57-1.53-13.47-4.31v17.07c0 7.05 5.7 12.75 12.75 12.75h90.03c7.05 0 12.75-5.7 12.75-12.75v-17.03Z" clip-rule="evenodd"/></g></g></g><g id="Medium-L"><g id="Outline / Work Outline_5"><g id="Shape_5" fill="#000"><path d="M1717.63 1473.49c0-10.97 8.89-19.87 19.87-19.87h15c10.98 0 19.88 8.9 19.88 19.87 0 2.69-2.19 4.88-4.88 4.88s-4.87-2.19-4.87-4.88c0-5.59-4.54-10.12-10.13-10.12h-15c-5.59 0-10.12 4.53-10.12 10.12 0 2.69-2.19 4.88-4.88 4.88s-4.87-2.19-4.87-4.88Z"/><path fill-rule="evenodd" d="M1677.47 1509.5c0-12.45 10.05-22.5 22.5-22.5h90.02c12.38 0 22.5 10.05 22.5 22.5v48.99c0 12.45-10.05 22.5-22.5 22.5h-90.02c-12.45 0-22.5-10.05-22.5-22.5v-48.99Zm125.27 0c0-7.05-5.7-12.75-12.75-12.75h-90.02c-7.05 0-12.75 5.7-12.75 12.75v13.02c0 3.32 1.23 6.52 3.44 8.99 2.56 2.84 6.2 4.47 10.02 4.47h88.69c3.79 0 7.4-1.61 9.94-4.44 2.2-2.45 3.42-5.63 3.42-8.93v-4.26h.01v-8.85Zm0 31.96a23.097 23.097 0 0 1-13.37 4.27h-9.49v10.98c0 2.69-2.19 4.88-4.88 4.88s-4.87-2.19-4.87-4.88v-10.98h-50.25v10.99c0 2.7-2.19 4.88-4.88 4.88s-4.87-2.18-4.87-4.88v-10.99h-9.45c-4.87 0-9.57-1.53-13.46-4.31v17.07c0 7.05 5.7 12.75 12.75 12.75h90.02c7.05 0 12.75-5.7 12.75-12.75v-17.03Z" clip-rule="evenodd"/></g></g></g><g id="Regular-L"><g id="Outline / Work Outline_6"><g id="Shape_6" fill="#000"><path d="M1421.63 1473.49c0-10.97 8.89-19.87 19.87-19.87h15c10.98 0 19.88 8.9 19.88 19.87 0 2.69-2.19 4.88-4.88 4.88s-4.87-2.19-4.87-4.88c0-5.59-4.54-10.12-10.13-10.12h-15c-5.59 0-10.12 4.53-10.12 10.12 0 2.69-2.19 4.88-4.88 4.88s-4.87-2.19-4.87-4.88Z"/><path fill-rule="evenodd" d="M1381.47 1509.5c0-12.45 10.05-22.5 22.5-22.5h90.02c12.38 0 22.5 10.05 22.5 22.5v48.99c0 12.45-10.05 22.5-22.5 22.5h-90.02c-12.45 0-22.5-10.05-22.5-22.5v-48.99Zm125.27 0c0-7.05-5.7-12.75-12.75-12.75h-90.02c-7.05 0-12.75 5.7-12.75 12.75v13.02c0 3.32 1.23 6.52 3.44 8.99 2.56 2.84 6.2 4.47 10.02 4.47h88.69c3.79 0 7.4-1.61 9.94-4.44 2.2-2.45 3.42-5.63 3.42-8.93v-4.26h.01v-8.85Zm0 31.96a23.097 23.097 0 0 1-13.37 4.27h-9.49v10.98c0 2.69-2.19 4.88-4.88 4.88s-4.87-2.19-4.87-4.88v-10.98h-50.25v10.99c0 2.7-2.19 4.88-4.88 4.88s-4.87-2.18-4.87-4.88v-10.99h-9.45c-4.87 0-9.57-1.53-13.46-4.31v17.07c0 7.05 5.7 12.75 12.75 12.75h90.02c7.05 0 12.75-5.7 12.75-12.75v-17.03Z" clip-rule="evenodd"/></g></g></g><g id="Light-L"><g id="Outline / Work Outline_7"><g id="Shape_7" fill="#000"><path d="M1125.63 1473.49c0-10.97 8.89-19.87 19.87-19.87h15c10.98 0 19.88 8.9 19.88 19.87 0 2.69-2.19 4.88-4.88 4.88s-4.87-2.19-4.87-4.88c0-5.59-4.54-10.12-10.13-10.12h-15c-5.59 0-10.12 4.53-10.12 10.12 0 2.69-2.19 4.88-4.88 4.88s-4.87-2.19-4.87-4.88Z"/><path fill-rule="evenodd" d="M1085.47 1509.5c0-12.45 10.05-22.5 22.5-22.5h90.02c12.38 0 22.5 10.05 22.5 22.5v48.99c0 12.45-10.05 22.5-22.5 22.5h-90.02c-12.45 0-22.5-10.05-22.5-22.5v-48.99Zm125.27 0c0-7.05-5.7-12.75-12.75-12.75h-90.02c-7.05 0-12.75 5.7-12.75 12.75v13.02c0 3.32 1.23 6.52 3.44 8.99 2.56 2.84 6.2 4.47 10.02 4.47h88.69c3.79 0 7.4-1.61 9.94-4.44 2.2-2.45 3.42-5.63 3.42-8.93v-4.26h.01v-8.85Zm0 31.96a23.097 23.097 0 0 1-13.37 4.27h-9.49v10.98c0 2.69-2.19 4.88-4.88 4.88s-4.87-2.19-4.87-4.88v-10.98h-50.25v10.99c0 2.7-2.19 4.88-4.88 4.88s-4.87-2.18-4.87-4.88v-10.99h-9.45c-4.87 0-9.57-1.53-13.46-4.31v17.07c0 7.05 5.7 12.75 12.75 12.75h90.02c7.05 0 12.75-5.7 12.75-12.75v-17.03Z" clip-rule="evenodd"/></g></g></g><g id="Thin-L"><g id="Outline / Work Outline_8"><g id="Shape_8" fill="#000"><path d="M829.626 1473.49c0-10.97 8.898-19.87 19.875-19.87h15c10.976 0 19.875 8.9 19.875 19.87 0 2.69-2.183 4.88-4.875 4.88a4.88 4.88 0 0 1-4.875-4.88c0-5.59-4.533-10.12-10.125-10.12h-15c-5.592 0-10.125 4.53-10.125 10.12 0 2.69-2.183 4.88-4.875 4.88a4.88 4.88 0 0 1-4.875-4.88Z"/><path fill-rule="evenodd" d="M789.465 1509.5c0-12.45 10.05-22.5 22.5-22.5h90.03c12.375 0 22.5 10.05 22.5 22.5v48.99c0 12.45-10.05 22.5-22.5 22.5h-90.03c-12.45 0-22.5-10.05-22.5-22.5v-48.99Zm125.28 0c0-7.05-5.7-12.75-12.75-12.75h-90.03c-7.05 0-12.75 5.7-12.75 12.75v8.79l.006 4.23c0 3.32 1.226 6.52 3.443 8.99a13.477 13.477 0 0 0 10.017 4.47h88.687c3.793 0 7.407-1.61 9.942-4.44a13.35 13.35 0 0 0 3.423-8.93v-4.26h.012v-8.85Zm0 31.96a23.123 23.123 0 0 1-13.377 4.27h-9.492v10.98c0 2.69-2.183 4.88-4.875 4.88a4.88 4.88 0 0 1-4.875-4.88v-10.98h-50.25v10.99a4.875 4.875 0 1 1-9.75 0v-10.99h-9.445c-4.869 0-9.568-1.53-13.466-4.31v17.07c0 7.05 5.7 12.75 12.75 12.75h90.03c7.05 0 12.75-5.7 12.75-12.75v-17.03Z" clip-rule="evenodd"/></g></g></g><g id="Ultralight-L"><g id="Outline / Work Outline_9"><g id="Shape_9" fill="#000"><path d="M533.626 1473.49c0-10.97 8.898-19.87 19.875-19.87h15c10.976 0 19.875 8.9 19.875 19.87 0 2.69-2.183 4.88-4.875 4.88a4.88 4.88 0 0 1-4.875-4.88c0-5.59-4.533-10.12-10.125-10.12h-15c-5.592 0-10.125 4.53-10.125 10.12 0 2.69-2.183 4.88-4.875 4.88a4.88 4.88 0 0 1-4.875-4.88Z"/><path fill-rule="evenodd" d="M493.465 1509.5c0-12.45 10.05-22.5 22.5-22.5h90.03c12.375 0 22.5 10.05 22.5 22.5v48.99c0 12.45-10.05 22.5-22.5 22.5h-90.03c-12.45 0-22.5-10.05-22.5-22.5v-48.99Zm125.28 0c0-7.05-5.7-12.75-12.75-12.75h-90.03c-7.05 0-12.75 5.7-12.75 12.75v8.79l.006 4.23c0 3.32 1.226 6.52 3.443 8.99a13.477 13.477 0 0 0 10.017 4.47h88.687c3.793 0 7.407-1.61 9.942-4.44a13.35 13.35 0 0 0 3.423-8.93v-4.26h.012v-8.85Zm0 31.96a23.123 23.123 0 0 1-13.377 4.27h-9.492v10.98c0 2.69-2.183 4.88-4.875 4.88a4.88 4.88 0 0 1-4.875-4.88v-10.98h-50.25v10.99a4.875 4.875 0 1 1-9.75 0v-10.99h-9.445c-4.869 0-9.568-1.53-13.466-4.31v17.07c0 7.05 5.7 12.75 12.75 12.75h90.03c7.05 0 12.75-5.7 12.75-12.75v-17.03Z" clip-rule="evenodd"/></g></g></g><g id="Black-M"><g id="Outline / Work Outline_10"><g id="Shape_10" fill="#000"><path d="M2907.71 1054.05c0-8.54 6.92-15.46 15.46-15.46h11.66c8.54 0 15.46 6.92 15.46 15.46 0 2.09-1.7 3.79-3.79 3.79s-3.79-1.7-3.79-3.79c0-4.35-3.53-7.88-7.88-7.88h-11.66c-4.35 0-7.88 3.53-7.88 7.88 0 2.09-1.7 3.79-3.79 3.79s-3.79-1.7-3.79-3.79Z"/><path fill-rule="evenodd" d="M2876.47 1082.06c0-9.69 7.82-17.5 17.5-17.5h70.02c9.63 0 17.5 7.81 17.5 17.5v38.1c0 9.68-7.81 17.5-17.5 17.5h-70.02c-9.68 0-17.5-7.82-17.5-17.5v-38.1Zm97.44 0c0-5.49-4.43-9.92-9.92-9.92h-70.02c-5.48 0-9.91 4.43-9.91 9.92V1092.18c0 2.58.95 5.07 2.68 6.99 1.98 2.21 4.82 3.48 7.79 3.48h68.98c2.95 0 5.76-1.26 7.73-3.45 1.71-1.91 2.66-4.38 2.66-6.95v-3.31h.01v-6.88Zm0 24.86a18.014 18.014 0 0 1-10.4 3.31h-7.39v8.54a3.79 3.79 0 1 1-7.58 0v-8.54h-39.08v8.55c0 2.1-1.7 3.79-3.79 3.79-2.1 0-3.8-1.69-3.8-3.79v-8.55h-7.34c-3.79 0-7.44-1.19-10.47-3.35v13.28c0 5.48 4.43 9.92 9.91 9.92h70.02c5.49 0 9.92-4.44 9.92-9.92v-13.24Z" clip-rule="evenodd"/></g></g></g><g id="Heavy-M"><g id="Outline / Work Outline_11"><g id="Shape_11" fill="#000"><path d="M2611.71 1054.05c0-8.54 6.92-15.46 15.46-15.46h11.66c8.54 0 15.46 6.92 15.46 15.46 0 2.09-1.7 3.79-3.79 3.79s-3.79-1.7-3.79-3.79c0-4.35-3.53-7.88-7.88-7.88h-11.66c-4.35 0-7.88 3.53-7.88 7.88 0 2.09-1.7 3.79-3.79 3.79s-3.79-1.7-3.79-3.79Z"/><path fill-rule="evenodd" d="M2580.47 1082.06c0-9.69 7.82-17.5 17.5-17.5h70.02c9.63 0 17.5 7.81 17.5 17.5v38.1c0 9.68-7.81 17.5-17.5 17.5h-70.02c-9.68 0-17.5-7.82-17.5-17.5v-38.1Zm97.44 0c0-5.49-4.43-9.92-9.92-9.92h-70.02c-5.48 0-9.91 4.43-9.91 9.92V1092.18c0 2.58.95 5.07 2.68 6.99 1.98 2.21 4.82 3.48 7.79 3.48h68.98c2.95 0 5.76-1.26 7.73-3.45 1.71-1.91 2.66-4.38 2.66-6.95v-3.31h.01v-6.88Zm0 24.86a18.014 18.014 0 0 1-10.4 3.31h-7.39v8.54a3.79 3.79 0 1 1-7.58 0v-8.54h-39.08v8.55c0 2.1-1.7 3.79-3.79 3.79-2.1 0-3.8-1.69-3.8-3.79v-8.55h-7.34c-3.79 0-7.44-1.19-10.47-3.35v13.28c0 5.48 4.43 9.92 9.91 9.92h70.02c5.49 0 9.92-4.44 9.92-9.92v-13.24Z" clip-rule="evenodd"/></g></g></g><g id="Bold-M"><g id="Outline / Work Outline_12"><g id="Shape_12" fill="#000"><path d="M2315.71 1054.05c0-8.54 6.92-15.46 15.46-15.46h11.66c8.54 0 15.46 6.92 15.46 15.46 0 2.09-1.7 3.79-3.79 3.79s-3.79-1.7-3.79-3.79c0-4.35-3.53-7.88-7.88-7.88h-11.66c-4.35 0-7.88 3.53-7.88 7.88 0 2.09-1.7 3.79-3.79 3.79s-3.79-1.7-3.79-3.79Z"/><path fill-rule="evenodd" d="M2284.47 1082.06c0-9.69 7.82-17.5 17.5-17.5h70.02c9.63 0 17.5 7.81 17.5 17.5v38.1c0 9.68-7.81 17.5-17.5 17.5h-70.02c-9.68 0-17.5-7.82-17.5-17.5v-38.1Zm97.44 0c0-5.49-4.43-9.92-9.92-9.92h-70.02c-5.48 0-9.91 4.43-9.91 9.92V1092.18c0 2.58.95 5.07 2.68 6.99 1.98 2.21 4.82 3.48 7.79 3.48h68.98c2.95 0 5.76-1.26 7.73-3.45 1.71-1.91 2.66-4.38 2.66-6.95v-3.31h.01v-6.88Zm0 24.86a18.014 18.014 0 0 1-10.4 3.31h-7.39v8.54a3.79 3.79 0 1 1-7.58 0v-8.54h-39.08v8.55c0 2.1-1.7 3.79-3.79 3.79-2.1 0-3.8-1.69-3.8-3.79v-8.55h-7.34c-3.79 0-7.44-1.19-10.47-3.35v13.28c0 5.48 4.43 9.92 9.91 9.92h70.02c5.49 0 9.92-4.44 9.92-9.92v-13.24Z" clip-rule="evenodd"/></g></g></g><g id="Semibold-M"><g id="Outline / Work Outline_13"><g id="Shape_13" fill="#000"><path d="M2019.71 1054.05c0-8.54 6.92-15.46 15.46-15.46h11.66c8.54 0 15.46 6.92 15.46 15.46 0 2.09-1.7 3.79-3.79 3.79s-3.79-1.7-3.79-3.79c0-4.35-3.53-7.88-7.88-7.88h-11.66c-4.35 0-7.88 3.53-7.88 7.88 0 2.09-1.7 3.79-3.79 3.79s-3.79-1.7-3.79-3.79Z"/><path fill-rule="evenodd" d="M1988.47 1082.06c0-9.69 7.82-17.5 17.5-17.5h70.02c9.63 0 17.5 7.81 17.5 17.5v38.1c0 9.68-7.81 17.5-17.5 17.5h-70.02c-9.68 0-17.5-7.82-17.5-17.5v-38.1Zm97.44 0c0-5.49-4.43-9.92-9.92-9.92h-70.02c-5.48 0-9.91 4.43-9.91 9.92V1092.18c0 2.58.95 5.07 2.68 6.99 1.98 2.21 4.82 3.48 7.79 3.48h68.98c2.95 0 5.76-1.26 7.73-3.45 1.71-1.91 2.66-4.38 2.66-6.95v-3.31h.01v-6.88Zm0 24.86a18.014 18.014 0 0 1-10.4 3.31h-7.39v8.54a3.79 3.79 0 1 1-7.58 0v-8.54h-39.08v8.55c0 2.1-1.7 3.79-3.79 3.79-2.1 0-3.8-1.69-3.8-3.79v-8.55h-7.34c-3.79 0-7.44-1.19-10.47-3.35v13.28c0 5.48 4.43 9.92 9.91 9.92h70.02c5.49 0 9.92-4.44 9.92-9.92v-13.24Z" clip-rule="evenodd"/></g></g></g><g id="Medium-M"><g id="Outline / Work Outline_14"><g id="Shape_14" fill="#000"><path d="M1723.71 1054.05c0-8.54 6.92-15.46 15.46-15.46h11.66c8.54 0 15.46 6.92 15.46 15.46 0 2.09-1.7 3.79-3.79 3.79s-3.79-1.7-3.79-3.79c0-4.35-3.53-7.88-7.88-7.88h-11.66c-4.35 0-7.88 3.53-7.88 7.88 0 2.09-1.7 3.79-3.79 3.79s-3.79-1.7-3.79-3.79Z"/><path fill-rule="evenodd" d="M1692.47 1082.06c0-9.69 7.82-17.5 17.5-17.5H1780c9.62 0 17.5 7.81 17.5 17.5v38.1c0 9.68-7.82 17.5-17.5 17.5h-70.03c-9.68 0-17.5-7.82-17.5-17.5v-38.1Zm97.44 0c0-5.49-4.43-9.92-9.91-9.92h-70.03c-5.48 0-9.91 4.43-9.91 9.92V1092.18c0 2.58.95 5.07 2.68 6.99 1.98 2.21 4.82 3.48 7.79 3.48h68.98c2.95 0 5.76-1.26 7.73-3.45 1.72-1.91 2.66-4.38 2.66-6.95v-3.31h.01v-6.88Zm0 24.86a18.014 18.014 0 0 1-10.4 3.31h-7.38v8.54c0 2.1-1.7 3.8-3.8 3.8-2.09 0-3.79-1.7-3.79-3.8v-8.54h-39.08v8.55c0 2.1-1.7 3.79-3.79 3.79-2.1 0-3.79-1.69-3.79-3.79v-8.55h-7.35c-3.79 0-7.44-1.19-10.47-3.35v13.28c0 5.48 4.43 9.92 9.91 9.92H1780c5.48 0 9.91-4.44 9.91-9.92v-13.24Z" clip-rule="evenodd"/></g></g></g><g id="Regular-M"><g id="Outline / Work Outline_15"><g id="Shape_15" fill="#000"><path d="M1427.71 1054.05c0-8.54 6.92-15.46 15.46-15.46h11.66c8.54 0 15.46 6.92 15.46 15.46 0 2.09-1.7 3.79-3.79 3.79s-3.79-1.7-3.79-3.79c0-4.35-3.53-7.88-7.88-7.88h-11.66c-4.35 0-7.88 3.53-7.88 7.88 0 2.09-1.7 3.79-3.79 3.79s-3.79-1.7-3.79-3.79Z"/><path fill-rule="evenodd" d="M1396.47 1082.06c0-9.69 7.82-17.5 17.5-17.5H1484c9.62 0 17.5 7.81 17.5 17.5v38.1c0 9.68-7.82 17.5-17.5 17.5h-70.03c-9.68 0-17.5-7.82-17.5-17.5v-38.1Zm97.44 0c0-5.49-4.43-9.92-9.91-9.92h-70.03c-5.48 0-9.91 4.43-9.91 9.92V1092.18c0 2.58.95 5.07 2.68 6.99 1.98 2.21 4.82 3.48 7.79 3.48h68.98c2.95 0 5.76-1.26 7.73-3.45 1.72-1.91 2.66-4.38 2.66-6.95v-3.31h.01v-6.88Zm0 24.86a18.014 18.014 0 0 1-10.4 3.31h-7.38v8.54c0 2.1-1.7 3.8-3.8 3.8-2.09 0-3.79-1.7-3.79-3.8v-8.54h-39.08v8.55c0 2.1-1.7 3.79-3.79 3.79-2.1 0-3.79-1.69-3.79-3.79v-8.55h-7.35c-3.79 0-7.44-1.19-10.47-3.35v13.28c0 5.48 4.43 9.92 9.91 9.92H1484c5.48 0 9.91-4.44 9.91-9.92v-13.24Z" clip-rule="evenodd"/></g></g></g><g id="Light-M"><g id="Outline / Work Outline_16"><g id="Shape_16" fill="#000"><path d="M1131.71 1054.05c0-8.54 6.92-15.46 15.46-15.46h11.66c8.54 0 15.46 6.92 15.46 15.46 0 2.09-1.7 3.79-3.79 3.79s-3.79-1.7-3.79-3.79c0-4.35-3.53-7.88-7.88-7.88h-11.66c-4.35 0-7.88 3.53-7.88 7.88 0 2.09-1.7 3.79-3.79 3.79s-3.79-1.7-3.79-3.79Z"/><path fill-rule="evenodd" d="M1100.47 1082.06c0-9.69 7.82-17.5 17.5-17.5H1188c9.62 0 17.5 7.81 17.5 17.5v38.1c0 9.68-7.82 17.5-17.5 17.5h-70.03c-9.68 0-17.5-7.82-17.5-17.5v-38.1Zm97.44 0c0-5.49-4.43-9.92-9.91-9.92h-70.03c-5.48 0-9.91 4.43-9.91 9.92V1092.18c0 2.58.95 5.07 2.68 6.99 1.98 2.21 4.82 3.48 7.79 3.48h68.98c2.95 0 5.76-1.26 7.73-3.45 1.72-1.91 2.66-4.38 2.66-6.95v-3.31h.01v-6.88Zm0 24.86a18.014 18.014 0 0 1-10.4 3.31h-7.38v8.54c0 2.1-1.7 3.8-3.8 3.8-2.09 0-3.79-1.7-3.79-3.8v-8.54h-39.08v8.55c0 2.1-1.7 3.79-3.79 3.79-2.1 0-3.79-1.69-3.79-3.79v-8.55h-7.35c-3.79 0-7.44-1.19-10.47-3.35v13.28c0 5.48 4.43 9.92 9.91 9.92H1188c5.48 0 9.91-4.44 9.91-9.92v-13.24Z" clip-rule="evenodd"/></g></g></g><g id="Thin-M"><g id="Outline / Work Outline_17"><g id="Shape_17" fill="#000"><path d="M835.709 1054.05c0-8.54 6.921-15.46 15.458-15.46h11.667c8.537 0 15.458 6.92 15.458 15.46a3.792 3.792 0 0 1-7.583 0c0-4.35-3.526-7.88-7.875-7.88h-11.667c-4.349 0-7.875 3.53-7.875 7.88a3.792 3.792 0 0 1-7.583 0Z"/><path fill-rule="evenodd" d="M804.473 1082.06c0-9.69 7.817-17.5 17.5-17.5h70.023c9.625 0 17.5 7.81 17.5 17.5v38.1c0 9.68-7.817 17.5-17.5 17.5h-70.023c-9.683 0-17.5-7.82-17.5-17.5v-38.1Zm97.44 0c0-5.49-4.434-9.92-9.917-9.92h-70.023a9.907 9.907 0 0 0-9.917 9.92v6.83l.005 3.29c0 2.58.954 5.07 2.678 6.99a10.481 10.481 0 0 0 7.791 3.48h68.978a10.398 10.398 0 0 0 10.396-10.4v-3.31h.009v-6.88Zm0 24.86a18.039 18.039 0 0 1-10.405 3.31h-7.382v8.54c0 2.1-1.698 3.8-3.792 3.8a3.795 3.795 0 0 1-3.792-3.8v-8.54h-39.083v8.55c0 2.1-1.698 3.79-3.792 3.79a3.786 3.786 0 0 1-3.791-3.79v-8.55h-7.346c-3.787 0-7.442-1.19-10.474-3.35v13.28c0 5.48 4.434 9.92 9.917 9.92h70.023c5.483 0 9.917-4.44 9.917-9.92v-13.24Z" clip-rule="evenodd"/></g></g></g><g id="Ultralight-M"><g id="Outline / Work Outline_18"><g id="Shape_18" fill="#000"><path d="M539.709 1054.05c0-8.54 6.921-15.46 15.458-15.46h11.667c8.537 0 15.458 6.92 15.458 15.46a3.792 3.792 0 0 1-7.583 0c0-4.35-3.526-7.88-7.875-7.88h-11.667c-4.349 0-7.875 3.53-7.875 7.88a3.792 3.792 0 0 1-7.583 0Z"/><path fill-rule="evenodd" d="M508.473 1082.06c0-9.69 7.817-17.5 17.5-17.5h70.023c9.625 0 17.5 7.81 17.5 17.5v38.1c0 9.68-7.817 17.5-17.5 17.5h-70.023c-9.683 0-17.5-7.82-17.5-17.5v-38.1Zm97.44 0c0-5.49-4.434-9.92-9.917-9.92h-70.023a9.907 9.907 0 0 0-9.917 9.92v6.83l.005 3.29c0 2.58.954 5.07 2.678 6.99a10.481 10.481 0 0 0 7.791 3.48h68.978a10.398 10.398 0 0 0 10.396-10.4v-3.31h.009v-6.88Zm0 24.86a18.039 18.039 0 0 1-10.405 3.31h-7.382v8.54c0 2.1-1.698 3.8-3.792 3.8a3.795 3.795 0 0 1-3.792-3.8v-8.54h-39.083v8.55c0 2.1-1.698 3.79-3.792 3.79a3.786 3.786 0 0 1-3.791-3.79v-8.55h-7.346c-3.787 0-7.442-1.19-10.474-3.35v13.28c0 5.48 4.434 9.92 9.917 9.92h70.023c5.483 0 9.917-4.44 9.917-9.92v-13.24Z" clip-rule="evenodd"/></g></g></g><g id="Black-S"><g id="Outline / Work Outline_19"><g id="Shape_19" fill="#000"><path d="M2913.79 634.608c0-6.098 4.94-11.042 11.04-11.042h8.34c6.09 0 11.04 4.944 11.04 11.042a2.707 2.707 0 0 1-2.71 2.708c-1.5 0-2.71-1.212-2.71-2.708a5.625 5.625 0 0 0-5.62-5.625h-8.34c-3.1 0-5.62 2.518-5.62 5.625a2.707 2.707 0 0 1-2.71 2.708c-1.5 0-2.71-1.212-2.71-2.708Z"/><path fill-rule="evenodd" d="M2891.48 654.613c0-6.917 5.58-12.5 12.5-12.5H2954c6.87 0 12.5 5.583 12.5 12.5v27.217c0 6.917-5.59 12.5-12.5 12.5h-50.02a12.48 12.48 0 0 1-12.5-12.5v-27.217Zm69.6 0a7.078 7.078 0 0 0-7.08-7.083h-50.02a7.072 7.072 0 0 0-7.08 7.083v7.232c0 1.844.68 3.622 1.91 4.995a7.48 7.48 0 0 0 5.57 2.482h49.27c2.1 0 4.11-.895 5.52-2.462a7.398 7.398 0 0 0 1.9-4.963v-2.366h.01v-4.918Zm0 17.757a12.842 12.842 0 0 1-7.43 2.369h-5.28v6.102a2.705 2.705 0 1 1-5.41 0v-6.102h-27.92v6.108a2.707 2.707 0 0 1-2.71 2.709 2.714 2.714 0 0 1-2.71-2.709v-6.108h-5.24c-2.71 0-5.32-.849-7.48-2.392v9.483a7.072 7.072 0 0 0 7.08 7.083H2954c3.91 0 7.08-3.166 7.08-7.083v-9.46Z" clip-rule="evenodd"/></g></g></g><g id="Heavy-S"><g id="Outline / Work Outline_20"><g id="Shape_20" fill="#000"><path d="M2617.79 634.608c0-6.098 4.94-11.042 11.04-11.042h8.34c6.09 0 11.04 4.944 11.04 11.042a2.707 2.707 0 0 1-2.71 2.708c-1.5 0-2.71-1.212-2.71-2.708a5.625 5.625 0 0 0-5.62-5.625h-8.34c-3.1 0-5.62 2.518-5.62 5.625a2.707 2.707 0 0 1-2.71 2.708c-1.5 0-2.71-1.212-2.71-2.708Z"/><path fill-rule="evenodd" d="M2595.48 654.613c0-6.917 5.58-12.5 12.5-12.5H2658c6.87 0 12.5 5.583 12.5 12.5v27.217c0 6.917-5.59 12.5-12.5 12.5h-50.02a12.48 12.48 0 0 1-12.5-12.5v-27.217Zm69.6 0a7.078 7.078 0 0 0-7.08-7.083h-50.02a7.072 7.072 0 0 0-7.08 7.083v7.232c0 1.844.68 3.622 1.91 4.995a7.48 7.48 0 0 0 5.57 2.482h49.27c2.1 0 4.11-.895 5.52-2.462a7.398 7.398 0 0 0 1.9-4.963v-2.366h.01v-4.918Zm0 17.757a12.842 12.842 0 0 1-7.43 2.369h-5.28v6.102a2.705 2.705 0 1 1-5.41 0v-6.102h-27.92v6.108a2.707 2.707 0 0 1-2.71 2.709 2.714 2.714 0 0 1-2.71-2.709v-6.108h-5.24c-2.71 0-5.32-.849-7.48-2.392v9.483a7.072 7.072 0 0 0 7.08 7.083H2658c3.91 0 7.08-3.166 7.08-7.083v-9.46Z" clip-rule="evenodd"/></g></g></g><g id="Bold-S"><g id="Outline / Work Outline_21"><g id="Shape_21" fill="#000"><path d="M2321.79 634.608c0-6.098 4.94-11.042 11.04-11.042h8.34c6.09 0 11.04 4.944 11.04 11.042a2.707 2.707 0 0 1-2.71 2.708c-1.5 0-2.71-1.212-2.71-2.708a5.625 5.625 0 0 0-5.62-5.625h-8.34c-3.1 0-5.62 2.518-5.62 5.625a2.707 2.707 0 0 1-2.71 2.708c-1.5 0-2.71-1.212-2.71-2.708Z"/><path fill-rule="evenodd" d="M2299.48 654.613c0-6.917 5.58-12.5 12.5-12.5H2362c6.87 0 12.5 5.583 12.5 12.5v27.217c0 6.917-5.59 12.5-12.5 12.5h-50.02a12.48 12.48 0 0 1-12.5-12.5v-27.217Zm69.6 0a7.078 7.078 0 0 0-7.08-7.083h-50.02a7.072 7.072 0 0 0-7.08 7.083v7.232c0 1.844.68 3.622 1.91 4.995a7.48 7.48 0 0 0 5.57 2.482h49.27c2.1 0 4.11-.895 5.52-2.462a7.398 7.398 0 0 0 1.9-4.963v-2.366h.01v-4.918Zm0 17.757a12.842 12.842 0 0 1-7.43 2.369h-5.28v6.102a2.705 2.705 0 1 1-5.41 0v-6.102h-27.92v6.108a2.707 2.707 0 0 1-2.71 2.709 2.714 2.714 0 0 1-2.71-2.709v-6.108h-5.24c-2.71 0-5.32-.849-7.48-2.392v9.483a7.072 7.072 0 0 0 7.08 7.083H2362c3.91 0 7.08-3.166 7.08-7.083v-9.46Z" clip-rule="evenodd"/></g></g></g><g id="Semibold-S"><g id="Outline / Work Outline_22"><g id="Shape_22" fill="#000"><path d="M2025.79 634.608c0-6.098 4.94-11.042 11.04-11.042h8.34c6.09 0 11.04 4.944 11.04 11.042a2.707 2.707 0 0 1-2.71 2.708c-1.5 0-2.71-1.212-2.71-2.708a5.625 5.625 0 0 0-5.62-5.625h-8.34c-3.1 0-5.62 2.518-5.62 5.625a2.707 2.707 0 0 1-2.71 2.708c-1.5 0-2.71-1.212-2.71-2.708Z"/><path fill-rule="evenodd" d="M2003.48 654.613c0-6.917 5.58-12.5 12.5-12.5H2066c6.87 0 12.5 5.583 12.5 12.5v27.217c0 6.917-5.59 12.5-12.5 12.5h-50.02a12.48 12.48 0 0 1-12.5-12.5v-27.217Zm69.6 0a7.078 7.078 0 0 0-7.08-7.083h-50.02a7.072 7.072 0 0 0-7.08 7.083v7.232c0 1.844.68 3.622 1.91 4.995a7.48 7.48 0 0 0 5.57 2.482h49.27c2.1 0 4.11-.895 5.52-2.462a7.398 7.398 0 0 0 1.9-4.963v-2.366h.01v-4.918Zm0 17.757a12.842 12.842 0 0 1-7.43 2.369h-5.28v6.102a2.705 2.705 0 1 1-5.41 0v-6.102h-27.92v6.108a2.707 2.707 0 0 1-2.71 2.709 2.714 2.714 0 0 1-2.71-2.709v-6.108h-5.24c-2.71 0-5.32-.849-7.48-2.392v9.483a7.072 7.072 0 0 0 7.08 7.083H2066c3.91 0 7.08-3.166 7.08-7.083v-9.46Z" clip-rule="evenodd"/></g></g></g><g id="Medium-S"><g id="Outline / Work Outline_23"><g id="Shape_23" fill="#000"><path d="M1729.79 634.608c0-6.098 4.95-11.042 11.04-11.042h8.34c6.1 0 11.04 4.944 11.04 11.042a2.707 2.707 0 0 1-2.71 2.708c-1.5 0-2.71-1.212-2.71-2.708a5.625 5.625 0 0 0-5.62-5.625h-8.34c-3.1 0-5.62 2.518-5.62 5.625a2.707 2.707 0 0 1-2.71 2.708c-1.5 0-2.71-1.212-2.71-2.708Z"/><path fill-rule="evenodd" d="M1707.48 654.613c0-6.917 5.58-12.5 12.5-12.5H1770c6.87 0 12.5 5.583 12.5 12.5v27.217c0 6.917-5.59 12.5-12.5 12.5h-50.02a12.48 12.48 0 0 1-12.5-12.5v-27.217Zm69.6 0a7.078 7.078 0 0 0-7.08-7.083h-50.02a7.072 7.072 0 0 0-7.08 7.083v7.232c0 1.844.68 3.622 1.91 4.995a7.497 7.497 0 0 0 5.57 2.482h49.27a7.417 7.417 0 0 0 7.42-7.425v-2.366h.01v-4.918Zm0 17.757a12.842 12.842 0 0 1-7.43 2.369h-5.27v6.102a2.714 2.714 0 0 1-2.71 2.708c-1.5 0-2.71-1.213-2.71-2.708v-6.102h-27.92v6.108a2.705 2.705 0 1 1-5.41 0v-6.108h-5.25c-2.71 0-5.32-.849-7.48-2.392v9.483a7.072 7.072 0 0 0 7.08 7.083H1770c3.91 0 7.08-3.166 7.08-7.083v-9.46Z" clip-rule="evenodd"/></g></g></g><g id="Regular-S"><g id="Outline / Work Outline_24"><g id="Shape_24" fill="#000"><path d="M1433.79 634.608c0-6.098 4.95-11.042 11.04-11.042h8.34c6.1 0 11.04 4.944 11.04 11.042a2.707 2.707 0 0 1-2.71 2.708c-1.5 0-2.71-1.212-2.71-2.708a5.625 5.625 0 0 0-5.62-5.625h-8.34c-3.1 0-5.62 2.518-5.62 5.625a2.707 2.707 0 0 1-2.71 2.708c-1.5 0-2.71-1.212-2.71-2.708Z"/><path fill-rule="evenodd" d="M1411.48 654.613c0-6.917 5.58-12.5 12.5-12.5H1474c6.87 0 12.5 5.583 12.5 12.5v27.217c0 6.917-5.59 12.5-12.5 12.5h-50.02a12.48 12.48 0 0 1-12.5-12.5v-27.217Zm69.6 0a7.078 7.078 0 0 0-7.08-7.083h-50.02a7.072 7.072 0 0 0-7.08 7.083v7.232c0 1.844.68 3.622 1.91 4.995a7.497 7.497 0 0 0 5.57 2.482h49.27a7.417 7.417 0 0 0 7.42-7.425v-2.366h.01v-4.918Zm0 17.757a12.842 12.842 0 0 1-7.43 2.369h-5.27v6.102a2.714 2.714 0 0 1-2.71 2.708c-1.5 0-2.71-1.213-2.71-2.708v-6.102h-27.92v6.108a2.705 2.705 0 1 1-5.41 0v-6.108h-5.25c-2.71 0-5.32-.849-7.48-2.392v9.483a7.072 7.072 0 0 0 7.08 7.083H1474c3.91 0 7.08-3.166 7.08-7.083v-9.46Z" clip-rule="evenodd"/></g></g></g><g id="Light-S"><g id="Outline / Work Outline_25"><g id="Shape_25" fill="#000"><path d="M1137.79 634.608c0-6.098 4.95-11.042 11.04-11.042h8.34c6.1 0 11.04 4.944 11.04 11.042a2.707 2.707 0 0 1-2.71 2.708c-1.5 0-2.71-1.212-2.71-2.708a5.625 5.625 0 0 0-5.62-5.625h-8.34c-3.1 0-5.62 2.518-5.62 5.625a2.707 2.707 0 0 1-2.71 2.708c-1.5 0-2.71-1.212-2.71-2.708Z"/><path fill-rule="evenodd" d="M1115.48 654.613c0-6.917 5.58-12.5 12.5-12.5H1178c6.87 0 12.5 5.583 12.5 12.5v27.217c0 6.917-5.59 12.5-12.5 12.5h-50.02a12.48 12.48 0 0 1-12.5-12.5v-27.217Zm69.6 0a7.078 7.078 0 0 0-7.08-7.083h-50.02a7.072 7.072 0 0 0-7.08 7.083v7.232c0 1.844.68 3.622 1.91 4.995a7.497 7.497 0 0 0 5.57 2.482h49.27a7.417 7.417 0 0 0 7.42-7.425v-2.366h.01v-4.918Zm0 17.757a12.842 12.842 0 0 1-7.43 2.369h-5.27v6.102a2.714 2.714 0 0 1-2.71 2.708c-1.5 0-2.71-1.213-2.71-2.708v-6.102h-27.92v6.108a2.705 2.705 0 1 1-5.41 0v-6.108h-5.25c-2.71 0-5.32-.849-7.48-2.392v9.483a7.072 7.072 0 0 0 7.08 7.083H1178c3.91 0 7.08-3.166 7.08-7.083v-9.46Z" clip-rule="evenodd"/></g></g></g><g id="Thin-S"><g id="Outline / Work Outline_26"><g id="Shape_26" fill="#000"><path d="M841.792 634.608c0-6.098 4.944-11.042 11.042-11.042h8.333c6.098 0 11.042 4.944 11.042 11.042a2.708 2.708 0 0 1-5.417 0 5.624 5.624 0 0 0-5.625-5.625h-8.333a5.624 5.624 0 0 0-5.625 5.625 2.708 2.708 0 0 1-5.417 0Z"/><path fill-rule="evenodd" d="M819.481 654.613c0-6.917 5.583-12.5 12.5-12.5h50.016c6.875 0 12.5 5.583 12.5 12.5v27.217c0 6.917-5.583 12.5-12.5 12.5h-50.016c-6.917 0-12.5-5.583-12.5-12.5v-27.217Zm69.6 0a7.077 7.077 0 0 0-7.084-7.083h-50.016a7.077 7.077 0 0 0-7.084 7.083v4.883l.004 2.349a7.478 7.478 0 0 0 7.477 7.477h49.271a7.425 7.425 0 0 0 7.425-7.425v-2.366h.007v-4.918Zm0 17.757a12.84 12.84 0 0 1-7.432 2.369h-5.274v6.102a2.708 2.708 0 0 1-5.416 0v-6.102h-27.917v6.108a2.708 2.708 0 1 1-5.417 0v-6.108h-5.247c-2.704 0-5.315-.849-7.481-2.392v9.483a7.077 7.077 0 0 0 7.084 7.083h50.016a7.077 7.077 0 0 0 7.084-7.083v-9.46Z" clip-rule="evenodd"/></g></g></g><g id="Ultralight-S"><g id="Outline / Work Outline_27"><g id="Shape_27" fill="#000"><path d="M545.792 634.608c0-6.098 4.944-11.042 11.042-11.042h8.333c6.098 0 11.042 4.944 11.042 11.042a2.708 2.708 0 0 1-5.417 0 5.624 5.624 0 0 0-5.625-5.625h-8.333a5.624 5.624 0 0 0-5.625 5.625 2.708 2.708 0 0 1-5.417 0Z"/><path fill-rule="evenodd" d="M523.481 654.613c0-6.917 5.583-12.5 12.5-12.5h50.016c6.875 0 12.5 5.583 12.5 12.5v27.217c0 6.917-5.583 12.5-12.5 12.5h-50.016c-6.917 0-12.5-5.583-12.5-12.5v-27.217Zm69.6 0a7.077 7.077 0 0 0-7.084-7.083h-50.016a7.077 7.077 0 0 0-7.084 7.083v4.883l.004 2.349a7.478 7.478 0 0 0 7.477 7.477h49.271a7.425 7.425 0 0 0 7.425-7.425v-2.366h.007v-4.918Zm0 17.757a12.84 12.84 0 0 1-7.432 2.369h-5.274v6.102a2.708 2.708 0 0 1-5.416 0v-6.102h-27.917v6.108a2.708 2.708 0 1 1-5.417 0v-6.108h-5.247c-2.704 0-5.315-.849-7.481-2.392v9.483a7.077 7.077 0 0 0 7.084 7.083h50.016a7.077 7.077 0 0 0 7.084-7.083v-9.46Z" clip-rule="evenodd"/></g></g></g></g></g><defs><clipPath id="clip0_0_1"><path fill="#fff" d="M0 0h3300v2200H0z"/></clipPath></defs></svg>