<svg width="3300" height="2200" viewBox="0 0 3300 2200" fill="none" xmlns="http://www.w3.org/2000/svg">
<rect width="3300" height="2200" fill="#E5E5E5"/>
<g id="System / Solid / Email" clip-path="url(#clip0_805_27002)">
<g id="Notes">
<path id="artboard" d="M3300 0H0V2200H3300V0Z" fill="white"/>
<path id="Vector" d="M263 292H3036" stroke="black" stroke-width="0.5"/>
<text id="Weight/Scale Variations" fill="black" xml:space="preserve" style="white-space: pre" font-family="Roboto" font-size="12" letter-spacing="0em"><tspan x="263" y="321.102">Weight/Scale Variations</tspan></text>
<text id="Ultralight" fill="black" xml:space="preserve" style="white-space: pre" font-family="Roboto" font-size="12" letter-spacing="0em"><tspan x="535.211" y="321.102">Ultralight</tspan></text>
<text id="Thin" fill="black" xml:space="preserve" style="white-space: pre" font-family="Roboto" font-size="12" letter-spacing="0em"><tspan x="844.422" y="321.102">Thin</tspan></text>
<text id="Light" fill="black" xml:space="preserve" style="white-space: pre" font-family="Roboto" font-size="12" letter-spacing="0em"><tspan x="1139.63" y="321.102">Light</tspan></text>
<text id="Regular" fill="black" xml:space="preserve" style="white-space: pre" font-family="Roboto" font-size="12" letter-spacing="0em"><tspan x="1429.34" y="321.102">Regular</tspan></text>
<text id="Medium" fill="black" xml:space="preserve" style="white-space: pre" font-family="Roboto" font-size="12" letter-spacing="0em"><tspan x="1724.56" y="321.102">Medium</tspan></text>
<text id="Semibold" fill="black" xml:space="preserve" style="white-space: pre" font-family="Roboto" font-size="12" letter-spacing="0em"><tspan x="2017.77" y="321.102">Semibold</tspan></text>
<text id="Bold" fill="black" xml:space="preserve" style="white-space: pre" font-family="Roboto" font-size="12" letter-spacing="0em"><tspan x="2327.48" y="321.102">Bold</tspan></text>
<text id="Heavy" fill="black" xml:space="preserve" style="white-space: pre" font-family="Roboto" font-size="12" letter-spacing="0em"><tspan x="2620.19" y="321.102">Heavy</tspan></text>
<text id="Black" fill="black" xml:space="preserve" style="white-space: pre" font-family="Roboto" font-size="12" letter-spacing="0em"><tspan x="2918.4" y="321.102">Black</tspan></text>
<path id="Vector_2" d="M263 1903H3036" stroke="black" stroke-width="0.5"/>
<g id="Group">
<path id="Vector_3" d="M272.248 1933.83C276.555 1933.83 280.139 1930.26 280.139 1925.95C280.139 1921.64 276.545 1918.07 272.238 1918.07C267.941 1918.07 264.367 1921.64 264.367 1925.95C264.367 1930.26 267.951 1933.83 272.248 1933.83ZM272.248 1932.35C268.703 1932.35 265.871 1929.51 265.871 1925.95C265.871 1922.4 268.693 1919.55 272.238 1919.55C275.793 1919.55 278.635 1922.4 278.644 1925.95C278.654 1929.51 275.803 1932.35 272.248 1932.35ZM272.229 1929.57C272.697 1929.57 272.971 1929.26 272.971 1928.74V1926.68H275.197C275.695 1926.68 276.037 1926.43 276.037 1925.96C276.037 1925.48 275.715 1925.22 275.197 1925.22H272.971V1922.99C272.971 1922.47 272.697 1922.15 272.229 1922.15C271.76 1922.15 271.506 1922.49 271.506 1922.99V1925.22H269.299C268.781 1925.22 268.449 1925.48 268.449 1925.96C268.449 1926.43 268.801 1926.68 269.299 1926.68H271.506V1928.74C271.506 1929.24 271.76 1929.57 272.229 1929.57Z" fill="black"/>
</g>
<g id="Group_2">
<path id="Vector_4" d="M293.215 1935.91C298.664 1935.91 303.176 1931.4 303.176 1925.95C303.176 1920.51 298.654 1915.99 293.205 1915.99C287.766 1915.99 283.254 1920.51 283.254 1925.95C283.254 1931.4 287.775 1935.91 293.215 1935.91ZM293.215 1934.25C288.605 1934.25 284.924 1930.56 284.924 1925.95C284.924 1921.35 288.596 1917.65 293.205 1917.65C297.814 1917.65 301.506 1921.35 301.516 1925.95C301.525 1930.56 297.824 1934.25 293.215 1934.25ZM293.195 1930.59C293.713 1930.59 294.025 1930.23 294.025 1929.66V1926.77H297.082C297.629 1926.77 298.01 1926.49 298.01 1925.97C298.01 1925.44 297.648 1925.14 297.082 1925.14H294.025V1922.07C294.025 1921.5 293.713 1921.14 293.195 1921.14C292.678 1921.14 292.385 1921.52 292.385 1922.07V1925.14H289.338C288.771 1925.14 288.4 1925.44 288.4 1925.97C288.4 1926.49 288.791 1926.77 289.338 1926.77H292.385V1929.66C292.385 1930.21 292.678 1930.59 293.195 1930.59Z" fill="black"/>
</g>
<g id="Group_3">
<path id="Vector_5" d="M319.895 1938.67C326.857 1938.67 332.619 1932.92 332.619 1925.96C332.619 1918.99 326.848 1913.24 319.885 1913.24C312.932 1913.24 307.18 1918.99 307.18 1925.96C307.18 1932.92 312.941 1938.67 319.895 1938.67ZM319.895 1936.86C313.859 1936.86 309.006 1931.99 309.006 1925.96C309.006 1919.92 313.85 1915.06 319.885 1915.06C325.93 1915.06 330.783 1919.92 330.793 1925.96C330.803 1931.99 325.939 1936.86 319.895 1936.86ZM319.875 1931.93C320.441 1931.93 320.793 1931.54 320.793 1930.94V1926.87H325.031C325.617 1926.87 326.037 1926.53 326.037 1925.98C326.037 1925.4 325.647 1925.06 325.031 1925.06H320.793V1920.81C320.793 1920.2 320.441 1919.8 319.875 1919.8C319.309 1919.8 318.986 1920.21 318.986 1920.81V1925.06H314.758C314.143 1925.06 313.732 1925.4 313.732 1925.98C313.732 1926.53 314.162 1926.87 314.758 1926.87H318.986V1930.94C318.986 1931.52 319.309 1931.93 319.875 1931.93Z" fill="black"/>
</g>
<text id="Design Variations" fill="black" xml:space="preserve" style="white-space: pre" font-family="Roboto" font-size="12" letter-spacing="0em"><tspan x="263" y="1952.1">Design Variations</tspan></text>
<text id="Symbols are supported in up to nine weights and three scales." fill="black" xml:space="preserve" style="white-space: pre" font-family="Roboto" font-size="12" letter-spacing="0em"><tspan x="263" y="1970.1">Symbols are supported in up to nine weights and three scales.</tspan></text>
<text id="For optimal layout with text and other symbols, vertically align" fill="black" xml:space="preserve" style="white-space: pre" font-family="Roboto" font-size="12" letter-spacing="0em"><tspan x="263" y="1988.1">For optimal layout with text and other symbols, vertically align</tspan></text>
<text id="symbols with the adjacent text." fill="black" xml:space="preserve" style="white-space: pre" font-family="Roboto" font-size="12" letter-spacing="0em"><tspan x="263" y="2006.1">symbols with the adjacent text.</tspan></text>
<path id="Vector_6" opacity="0.4" d="M779 1919H776V1933H779V1919Z" fill="#00AEEF"/>
<g id="Group_4">
<path id="Vector_7" d="M789.525 1933H791.371L786.176 1918.91H784.437L779.242 1933H781.088L782.504 1928.96H788.109L789.525 1933ZM785.277 1921.04H785.336L787.592 1927.47H783.021L785.277 1921.04Z" fill="black"/>
</g>
<path id="Vector_8" opacity="0.4" d="M794.617 1919H791.617V1933H794.617V1919Z" fill="#00AEEF"/>
<text id="Margins" fill="black" xml:space="preserve" style="white-space: pre" font-family="Roboto" font-size="12" letter-spacing="0em"><tspan x="776" y="1952.1">Margins</tspan></text>
<text id="Leading and trailing margins on the left and right side of each symbol" fill="black" xml:space="preserve" style="white-space: pre" font-family="Roboto" font-size="12" letter-spacing="0em"><tspan x="776" y="1970.1">Leading and trailing margins on the left and right side of each symbol</tspan></text>
<text id="can be adjusted by modifying the width of the blue rectangles." fill="black" xml:space="preserve" style="white-space: pre" font-family="Roboto" font-size="12" letter-spacing="0em"><tspan x="776" y="1988.1">can be adjusted by modifying the width of the blue rectangles.</tspan></text>
<text id="Modifications are automatically applied proportionally to all" fill="black" xml:space="preserve" style="white-space: pre" font-family="Roboto" font-size="12" letter-spacing="0em"><tspan x="776" y="2006.1">Modifications are automatically applied proportionally to all</tspan></text>
<text id="scales and weights." fill="black" xml:space="preserve" style="white-space: pre" font-family="Roboto" font-size="12" letter-spacing="0em"><tspan x="776" y="2024.1">scales and weights.</tspan></text>
<g id="Group_5">
<path id="Vector_9" d="M1291.83 1936.11L1293.37 1937.66C1294.22 1938.49 1295.19 1938.42 1296.06 1937.46L1306.27 1926.34C1306.7 1926.63 1307.1 1926.62 1307.56 1926.52L1308.61 1926.31L1309.3 1927L1309.25 1927.52C1309.19 1928.05 1309.35 1928.47 1309.85 1928.97L1310.66 1929.78C1311.17 1930.28 1311.82 1930.31 1312.3 1929.83L1315.55 1926.58C1316.03 1926.1 1316.01 1925.45 1315.5 1924.94L1314.68 1924.12C1314.19 1923.62 1313.77 1923.45 1313.24 1923.53L1312.71 1923.58L1312.06 1922.92L1312.34 1921.78C1312.49 1921.21 1312.34 1920.74 1311.71 1920.14L1309.3 1917.75C1305.76 1914.22 1301.23 1914.33 1298.11 1917.46C1297.69 1917.89 1297.64 1918.48 1297.92 1918.91C1298.15 1919.28 1298.63 1919.5 1299.27 1919.34C1300.79 1918.96 1302.3 1919.07 1303.78 1920.08L1303.16 1921.66C1302.93 1922.25 1302.94 1922.73 1303.18 1923.16L1292.02 1933.44C1291.08 1934.31 1290.97 1935.25 1291.83 1936.11ZM1299.67 1917.85C1302.34 1915.86 1305.65 1916.17 1308.05 1918.58L1310.68 1921.19C1310.91 1921.43 1310.94 1921.61 1310.88 1921.91L1310.5 1923.47L1312.08 1925.04L1313.04 1924.95C1313.33 1924.92 1313.41 1924.94 1313.64 1925.17L1314.26 1925.79L1311.51 1928.54L1310.88 1927.92C1310.66 1927.7 1310.64 1927.6 1310.67 1927.32L1310.76 1926.36L1309.19 1924.8L1307.57 1925.11C1307.29 1925.17 1307.14 1925.17 1306.91 1924.92L1304.73 1922.75C1304.51 1922.51 1304.48 1922.37 1304.61 1922.05L1305.55 1919.78C1303.95 1918.24 1301.84 1917.39 1299.8 1918.05C1299.71 1918.08 1299.64 1918.06 1299.61 1918.02C1299.59 1917.97 1299.59 1917.92 1299.67 1917.85ZM1293.1 1935.41C1292.61 1934.91 1292.79 1934.61 1293.12 1934.31L1304.08 1924.19L1305.31 1925.42L1295.15 1936.35C1294.85 1936.68 1294.47 1936.78 1294.07 1936.38L1293.1 1935.41Z" fill="black"/>
</g>
<text id="Exporting" fill="black" xml:space="preserve" style="white-space: pre" font-family="Roboto" font-size="12" letter-spacing="0em"><tspan x="1289" y="1952.1">Exporting</tspan></text>
<text id="Symbols should be outlined when exporting to ensure the" fill="black" xml:space="preserve" style="white-space: pre" font-family="Roboto" font-size="12" letter-spacing="0em"><tspan x="1289" y="1970.1">Symbols should be outlined when exporting to ensure the</tspan></text>
<text id="design is preserved when submitting to Xcode." fill="black" xml:space="preserve" style="white-space: pre" font-family="Roboto" font-size="12" letter-spacing="0em"><tspan x="1289" y="1988.1">design is preserved when submitting to Xcode.</tspan></text>
<text id="template-version" fill="black" xml:space="preserve" style="white-space: pre" font-family="Roboto" font-size="12" letter-spacing="0em"><tspan x="2958" y="1932.1">Template v.1.0</tspan></text>
<text id="Generated from pencil.circle" fill="black" xml:space="preserve" style="white-space: pre" font-family="Roboto" font-size="12" letter-spacing="0em"><tspan x="2885" y="1950.1">Generated from pencil.circle</tspan></text>
<text id="Typeset at 100 points" fill="black" xml:space="preserve" style="white-space: pre" font-family="Roboto" font-size="12" letter-spacing="0em"><tspan x="2921" y="1968.1">Typeset at 100 points</tspan></text>
<text id="Small" fill="black" xml:space="preserve" style="white-space: pre" font-family="Roboto" font-size="12" letter-spacing="0em"><tspan x="263" y="725.102">Small</tspan></text>
<text id="Medium_2" fill="black" xml:space="preserve" style="white-space: pre" font-family="Roboto" font-size="12" letter-spacing="0em"><tspan x="263" y="1155.1">Medium</tspan></text>
<text id="Large" fill="black" xml:space="preserve" style="white-space: pre" font-family="Roboto" font-size="12" letter-spacing="0em"><tspan x="263" y="1585.1">Large</tspan></text>
</g>
<g id="Guides">
<g id="H-reference">
<path id="Vector_10" d="M393.932 695.998H396.666L369.566 625.539H367.076L339.977 695.998H342.662L351.94 671.535H384.703L393.932 695.998ZM368.199 628.908H368.443L383.824 669.289H352.818L368.199 628.908Z" fill="#27AAE1"/>
</g>
<path id="Baseline-S" d="M263 696H3036" stroke="#27AAE1" stroke-width="0.577"/>
<path id="Capline-S" d="M263 626H3036" stroke="#27AAE1" stroke-width="0.577"/>
<g id="H-reference_2">
<path id="Vector_11" d="M393.932 1126H396.666L369.566 1055.54H367.076L339.977 1126H342.662L351.94 1101.54H384.703L393.932 1126ZM368.199 1058.91H368.443L383.824 1099.29H352.818L368.199 1058.91Z" fill="#27AAE1"/>
</g>
<path id="Baseline-M" d="M263 1126H3036" stroke="#27AAE1" stroke-width="0.577"/>
<path id="Capline-M" d="M263 1056H3036" stroke="#27AAE1" stroke-width="0.577"/>
<g id="H-reference_3">
<path id="Vector_12" d="M393.932 1556H396.666L369.566 1485.54H367.076L339.977 1556H342.662L351.94 1531.54H384.703L393.932 1556ZM368.199 1488.91H368.443L383.824 1529.29H352.818L368.199 1488.91Z" fill="#27AAE1"/>
</g>
<g id="Group 1">
<path id="Baseline-L" d="M263 1556H3036" stroke="#27AAE1" stroke-width="0.577"/>
<path id="Capline-L" d="M263 1486H3036" stroke="#27AAE1" stroke-width="0.577"/>
</g>
<path id="left-margin" opacity="0.4" d="M1397.04 1030.79H1388.3V1150.12H1397.04V1030.79Z" fill="#00AEEF"/>
<path id="right-margin" opacity="0.4" d="M1511.39 1030.79H1502.65V1150.12H1511.39V1030.79Z" fill="#00AEEF"/>
</g>
<g id="Symbols">
<g id="Black-L">
<g id="Solid / Email Solid">
<g id="Shape">
<path d="M2869.99 1495.84C2866.54 1493.15 2861.51 1495.59 2861.51 1499.96C2861.51 1513.61 2861.5 1537.06 2861.5 1551C2861.5 1563.45 2871.55 1573.5 2884 1573.5H2974C2986.45 1573.5 2996.5 1563.45 2996.5 1551C2996.5 1533.9 2996.88 1516.74 2996.69 1499.62C2996.64 1495.35 2991.75 1493 2988.35 1495.58L2954.06 1521.63L2973.42 1536.2C2975.58 1537.82 2976.01 1540.87 2974.39 1543.02C2972.77 1545.18 2969.71 1545.61 2967.56 1543.99L2945.98 1527.75L2944.99 1528.51C2935.1 1536.02 2921.39 1535.93 2911.6 1528.29L2910.71 1527.6L2910.7 1527.61L2888.94 1543.99C2886.79 1545.61 2883.73 1545.18 2882.11 1543.02C2880.49 1540.87 2880.92 1537.82 2883.08 1536.2L2902.75 1521.39L2869.99 1495.84Z" fill="black"/>
<path d="M2866.9 1476.35C2865.22 1478.32 2865.84 1481.21 2867.88 1482.8L2917.59 1521.58C2923.9 1526.5 2932.72 1526.56 2939.09 1521.72L2990.14 1482.95C2992.21 1481.38 2992.87 1478.48 2991.19 1476.49C2987.05 1471.6 2980.87 1468.5 2974 1468.5H2884C2877.15 1468.5 2871.03 1471.54 2866.9 1476.35Z" fill="black"/>
</g>
</g>
</g>
<g id="Heavy-L">
<g id="Solid / Email Solid_2">
<g id="Shape_2">
<path d="M2573.99 1495.84C2570.54 1493.15 2565.51 1495.59 2565.51 1499.96C2565.51 1513.61 2565.5 1537.06 2565.5 1551C2565.5 1563.45 2575.55 1573.5 2588 1573.5H2678C2690.45 1573.5 2700.5 1563.45 2700.5 1551C2700.5 1533.9 2700.88 1516.74 2700.69 1499.62C2700.64 1495.35 2695.75 1493 2692.35 1495.58L2658.06 1521.63L2677.42 1536.2C2679.58 1537.82 2680.01 1540.87 2678.39 1543.02C2676.77 1545.18 2673.71 1545.61 2671.56 1543.99L2649.98 1527.75L2648.99 1528.51C2639.1 1536.02 2625.39 1535.93 2615.6 1528.29L2614.71 1527.6L2614.7 1527.61L2592.94 1543.99C2590.79 1545.61 2587.73 1545.18 2586.11 1543.02C2584.49 1540.87 2584.92 1537.82 2587.08 1536.2L2606.75 1521.39L2573.99 1495.84Z" fill="black"/>
<path d="M2570.9 1476.35C2569.22 1478.32 2569.84 1481.21 2571.88 1482.8L2621.59 1521.58C2627.9 1526.5 2636.72 1526.56 2643.09 1521.72L2694.14 1482.95C2696.21 1481.38 2696.87 1478.48 2695.19 1476.49C2691.05 1471.6 2684.87 1468.5 2678 1468.5H2588C2581.15 1468.5 2575.03 1471.54 2570.9 1476.35Z" fill="black"/>
</g>
</g>
</g>
<g id="Bold-L">
<g id="Solid / Email Solid_3">
<g id="Shape_3">
<path d="M2277.99 1495.84C2274.54 1493.15 2269.51 1495.59 2269.51 1499.96C2269.51 1513.61 2269.5 1537.06 2269.5 1551C2269.5 1563.45 2279.55 1573.5 2292 1573.5H2382C2394.45 1573.5 2404.5 1563.45 2404.5 1551C2404.5 1533.9 2404.88 1516.74 2404.69 1499.62C2404.64 1495.35 2399.75 1493 2396.35 1495.58L2362.06 1521.63L2381.42 1536.2C2383.58 1537.82 2384.01 1540.87 2382.39 1543.02C2380.77 1545.18 2377.71 1545.61 2375.56 1543.99L2353.98 1527.75L2352.99 1528.51C2343.1 1536.02 2329.39 1535.93 2319.6 1528.29L2318.71 1527.6L2318.7 1527.61L2296.94 1543.99C2294.79 1545.61 2291.73 1545.18 2290.11 1543.02C2288.49 1540.87 2288.92 1537.82 2291.08 1536.2L2310.75 1521.39L2277.99 1495.84Z" fill="black"/>
<path d="M2274.9 1476.35C2273.22 1478.32 2273.84 1481.21 2275.88 1482.8L2325.59 1521.58C2331.9 1526.5 2340.72 1526.56 2347.09 1521.72L2398.14 1482.95C2400.21 1481.38 2400.87 1478.48 2399.19 1476.49C2395.05 1471.6 2388.87 1468.5 2382 1468.5H2292C2285.15 1468.5 2279.03 1471.54 2274.9 1476.35Z" fill="black"/>
</g>
</g>
</g>
<g id="Semibold-L">
<g id="Solid / Email Solid_4">
<g id="Shape_4">
<path d="M1981.99 1495.84C1978.54 1493.15 1973.51 1495.59 1973.51 1499.96C1973.51 1513.61 1973.5 1537.06 1973.5 1551C1973.5 1563.45 1983.55 1573.5 1996 1573.5H2086C2098.45 1573.5 2108.5 1563.45 2108.5 1551C2108.5 1533.9 2108.88 1516.74 2108.69 1499.62C2108.64 1495.35 2103.75 1493 2100.35 1495.58L2066.06 1521.63L2085.42 1536.2C2087.58 1537.82 2088.01 1540.87 2086.39 1543.02C2084.77 1545.18 2081.71 1545.61 2079.56 1543.99L2057.98 1527.75L2056.99 1528.51C2047.1 1536.02 2033.39 1535.93 2023.6 1528.29L2022.71 1527.6L2022.7 1527.61L2000.94 1543.99C1998.79 1545.61 1995.73 1545.18 1994.11 1543.02C1992.49 1540.87 1992.92 1537.82 1995.08 1536.2L2014.75 1521.39L1981.99 1495.84Z" fill="black"/>
<path d="M1978.9 1476.35C1977.22 1478.32 1977.84 1481.21 1979.88 1482.8L2029.59 1521.58C2035.9 1526.5 2044.72 1526.56 2051.09 1521.72L2102.14 1482.95C2104.21 1481.38 2104.87 1478.48 2103.19 1476.49C2099.05 1471.6 2092.87 1468.5 2086 1468.5H1996C1989.15 1468.5 1983.03 1471.54 1978.9 1476.35Z" fill="black"/>
</g>
</g>
</g>
<g id="Medium-L">
<g id="Solid / Email Solid_5">
<g id="Shape_5">
<path d="M1685.99 1495.84C1682.54 1493.15 1677.51 1495.59 1677.51 1499.96C1677.51 1513.61 1677.5 1537.06 1677.5 1551C1677.5 1563.45 1687.55 1573.5 1700 1573.5H1790C1802.45 1573.5 1812.5 1563.45 1812.5 1551C1812.5 1533.9 1812.88 1516.74 1812.69 1499.62C1812.64 1495.35 1807.75 1493 1804.35 1495.58L1770.06 1521.63L1789.42 1536.2C1791.58 1537.82 1792.01 1540.87 1790.39 1543.02C1788.77 1545.18 1785.71 1545.61 1783.56 1543.99L1761.98 1527.75L1760.99 1528.51C1751.1 1536.02 1737.39 1535.93 1727.6 1528.29L1726.71 1527.6L1726.7 1527.61L1704.94 1543.99C1702.79 1545.61 1699.73 1545.18 1698.11 1543.02C1696.49 1540.87 1696.92 1537.82 1699.08 1536.2L1718.75 1521.39L1685.99 1495.84Z" fill="black"/>
<path d="M1682.9 1476.35C1681.22 1478.32 1681.84 1481.21 1683.88 1482.8L1733.59 1521.58C1739.9 1526.5 1748.72 1526.56 1755.09 1521.72L1806.14 1482.95C1808.21 1481.38 1808.87 1478.48 1807.19 1476.49C1803.05 1471.6 1796.87 1468.5 1790 1468.5H1700C1693.15 1468.5 1687.03 1471.54 1682.9 1476.35Z" fill="black"/>
</g>
</g>
</g>
<g id="Regular-L">
<g id="Solid / Email Solid_6">
<g id="Shape_6">
<path d="M1389.99 1495.84C1386.54 1493.15 1381.51 1495.59 1381.51 1499.96C1381.51 1513.61 1381.5 1537.06 1381.5 1551C1381.5 1563.45 1391.55 1573.5 1404 1573.5H1494C1506.45 1573.5 1516.5 1563.45 1516.5 1551C1516.5 1533.9 1516.88 1516.74 1516.69 1499.62C1516.64 1495.35 1511.75 1493 1508.35 1495.58L1474.06 1521.63L1493.42 1536.2C1495.58 1537.82 1496.01 1540.87 1494.39 1543.02C1492.77 1545.18 1489.71 1545.61 1487.56 1543.99L1465.98 1527.75L1464.99 1528.51C1455.1 1536.02 1441.39 1535.93 1431.6 1528.29L1430.71 1527.6L1430.7 1527.61L1408.94 1543.99C1406.79 1545.61 1403.73 1545.18 1402.11 1543.02C1400.49 1540.87 1400.92 1537.82 1403.08 1536.2L1422.75 1521.39L1389.99 1495.84Z" fill="black"/>
<path d="M1386.9 1476.35C1385.22 1478.32 1385.84 1481.21 1387.88 1482.8L1437.59 1521.58C1443.9 1526.5 1452.72 1526.56 1459.09 1521.72L1510.14 1482.95C1512.21 1481.38 1512.87 1478.48 1511.19 1476.49C1507.05 1471.6 1500.87 1468.5 1494 1468.5H1404C1397.15 1468.5 1391.03 1471.54 1386.9 1476.35Z" fill="black"/>
</g>
</g>
</g>
<g id="Light-L">
<g id="Solid / Email Solid_7">
<g id="Shape_7">
<path d="M1093.99 1495.84C1090.54 1493.15 1085.51 1495.59 1085.51 1499.96C1085.51 1513.61 1085.5 1537.06 1085.5 1551C1085.5 1563.45 1095.55 1573.5 1108 1573.5H1198C1210.45 1573.5 1220.5 1563.45 1220.5 1551C1220.5 1533.9 1220.88 1516.74 1220.69 1499.62C1220.64 1495.35 1215.75 1493 1212.35 1495.58L1178.06 1521.63L1197.42 1536.2C1199.58 1537.82 1200.01 1540.87 1198.39 1543.02C1196.77 1545.18 1193.71 1545.61 1191.56 1543.99L1169.98 1527.75L1168.99 1528.51C1159.1 1536.02 1145.39 1535.93 1135.6 1528.29L1134.71 1527.6L1134.7 1527.61L1112.94 1543.99C1110.79 1545.61 1107.73 1545.18 1106.11 1543.02C1104.49 1540.87 1104.92 1537.82 1107.08 1536.2L1126.75 1521.39L1093.99 1495.84Z" fill="black"/>
<path d="M1090.9 1476.35C1089.22 1478.32 1089.84 1481.21 1091.88 1482.8L1141.59 1521.58C1147.9 1526.5 1156.72 1526.56 1163.09 1521.72L1214.14 1482.95C1216.21 1481.38 1216.87 1478.48 1215.19 1476.49C1211.05 1471.6 1204.87 1468.5 1198 1468.5H1108C1101.15 1468.5 1095.03 1471.54 1090.9 1476.35Z" fill="black"/>
</g>
</g>
</g>
<g id="Thin-L">
<g id="Solid / Email Solid_8">
<g id="Shape_8">
<path d="M797.989 1495.84C794.542 1493.15 789.512 1495.59 789.51 1499.96C789.506 1513.61 789.5 1537.06 789.5 1551C789.5 1563.45 799.55 1573.5 812 1573.5H902C914.45 1573.5 924.5 1563.45 924.5 1551C924.5 1533.9 924.883 1516.74 924.686 1499.62C924.637 1495.35 919.752 1493 916.347 1495.58L882.056 1521.63L901.424 1536.2C903.576 1537.82 904.008 1540.87 902.389 1543.02C900.77 1545.18 897.714 1545.61 895.563 1543.99L873.985 1527.75L872.99 1528.51C863.099 1536.02 849.39 1535.93 839.597 1528.29L838.714 1527.6L838.704 1527.61L816.938 1543.99C814.786 1545.61 811.73 1545.18 810.111 1543.02C808.492 1540.87 808.924 1537.82 811.076 1536.2L830.752 1521.39L797.989 1495.84Z" fill="black"/>
<path d="M794.904 1476.35C793.219 1478.32 793.842 1481.21 795.883 1482.8L845.594 1521.58C851.899 1526.5 860.725 1526.56 867.093 1521.72L918.144 1482.95C920.215 1481.38 920.869 1478.48 919.19 1476.49C915.054 1471.6 908.874 1468.5 902 1468.5H812C805.15 1468.5 799.027 1471.54 794.904 1476.35Z" fill="black"/>
</g>
</g>
</g>
<g id="Ultralight-L">
<g id="Solid / Email Solid_9">
<g id="Shape_9">
<path d="M501.989 1495.84C498.542 1493.15 493.512 1495.59 493.51 1499.96C493.506 1513.61 493.5 1537.06 493.5 1551C493.5 1563.45 503.55 1573.5 516 1573.5H606C618.45 1573.5 628.5 1563.45 628.5 1551C628.5 1533.9 628.883 1516.74 628.686 1499.62C628.637 1495.35 623.752 1493 620.347 1495.58L586.056 1521.63L605.424 1536.2C607.576 1537.82 608.008 1540.87 606.389 1543.02C604.77 1545.18 601.714 1545.61 599.563 1543.99L577.985 1527.75L576.99 1528.51C567.099 1536.02 553.39 1535.93 543.597 1528.29L542.714 1527.6L542.704 1527.61L520.938 1543.99C518.786 1545.61 515.73 1545.18 514.111 1543.02C512.492 1540.87 512.924 1537.82 515.076 1536.2L534.752 1521.39L501.989 1495.84Z" fill="black"/>
<path d="M498.904 1476.35C497.219 1478.32 497.842 1481.21 499.883 1482.8L549.594 1521.58C555.899 1526.5 564.725 1526.56 571.093 1521.72L622.144 1482.95C624.215 1481.38 624.869 1478.48 623.19 1476.49C619.054 1471.6 612.874 1468.5 606 1468.5H516C509.15 1468.5 503.027 1471.54 498.904 1476.35Z" fill="black"/>
</g>
</g>
</g>
<g id="Black-M">
<g id="Solid / Email Solid_10">
<g id="Shape_10">
<path d="M2883.1 1071.43C2880.42 1069.34 2876.51 1071.24 2876.51 1074.64C2876.5 1085.25 2876.5 1103.49 2876.5 1114.33C2876.5 1124.02 2884.32 1131.83 2894 1131.83H2964C2973.68 1131.83 2981.5 1124.02 2981.5 1114.33C2981.5 1101.03 2981.8 1087.69 2981.64 1074.38C2981.61 1071.05 2977.81 1069.22 2975.16 1071.23L2948.49 1091.49L2963.55 1102.82C2965.23 1104.08 2965.56 1106.46 2964.3 1108.13C2963.04 1109.81 2960.67 1110.14 2958.99 1108.88L2942.21 1096.25L2941.44 1096.84C2933.74 1102.68 2923.08 1102.61 2915.46 1096.67L2914.78 1096.14L2914.77 1096.14L2897.84 1108.88C2896.17 1110.14 2893.79 1109.81 2892.53 1108.13C2891.27 1106.46 2891.61 1104.08 2893.28 1102.82L2908.59 1091.31L2883.1 1071.43Z" fill="black"/>
<path d="M2880.7 1056.28C2879.39 1057.8 2879.88 1060.05 2881.46 1061.29L2920.13 1091.45C2925.03 1095.28 2931.9 1095.32 2936.85 1091.56L2976.56 1061.41C2978.17 1060.19 2978.68 1057.93 2977.37 1056.38C2974.15 1052.58 2969.35 1050.17 2964 1050.17H2894C2888.67 1050.17 2883.91 1052.53 2880.7 1056.28Z" fill="black"/>
</g>
</g>
</g>
<g id="Heavy-M">
<g id="Solid / Email Solid_11">
<g id="Shape_11">
<path d="M2587.1 1071.43C2584.42 1069.34 2580.51 1071.24 2580.51 1074.64C2580.5 1085.25 2580.5 1103.49 2580.5 1114.33C2580.5 1124.02 2588.32 1131.83 2598 1131.83H2668C2677.68 1131.83 2685.5 1124.02 2685.5 1114.33C2685.5 1101.03 2685.8 1087.69 2685.64 1074.38C2685.61 1071.05 2681.81 1069.22 2679.16 1071.23L2652.49 1091.49L2667.55 1102.82C2669.23 1104.08 2669.56 1106.46 2668.3 1108.13C2667.04 1109.81 2664.67 1110.14 2662.99 1108.88L2646.21 1096.25L2645.44 1096.84C2637.74 1102.68 2627.08 1102.61 2619.46 1096.67L2618.78 1096.14L2618.77 1096.14L2601.84 1108.88C2600.17 1110.14 2597.79 1109.81 2596.53 1108.13C2595.27 1106.46 2595.61 1104.08 2597.28 1102.82L2612.59 1091.31L2587.1 1071.43Z" fill="black"/>
<path d="M2584.7 1056.28C2583.39 1057.8 2583.88 1060.05 2585.46 1061.29L2624.13 1091.45C2629.03 1095.28 2635.9 1095.32 2640.85 1091.56L2680.56 1061.41C2682.17 1060.19 2682.68 1057.93 2681.37 1056.38C2678.15 1052.58 2673.35 1050.17 2668 1050.17H2598C2592.67 1050.17 2587.91 1052.53 2584.7 1056.28Z" fill="black"/>
</g>
</g>
</g>
<g id="Bold-M">
<g id="Solid / Email Solid_12">
<g id="Shape_12">
<path d="M2291.1 1071.43C2288.42 1069.34 2284.51 1071.24 2284.51 1074.64C2284.5 1085.25 2284.5 1103.49 2284.5 1114.33C2284.5 1124.02 2292.32 1131.83 2302 1131.83H2372C2381.68 1131.83 2389.5 1124.02 2389.5 1114.33C2389.5 1101.03 2389.8 1087.69 2389.64 1074.38C2389.61 1071.05 2385.81 1069.22 2383.16 1071.23L2356.49 1091.49L2371.55 1102.82C2373.23 1104.08 2373.56 1106.46 2372.3 1108.13C2371.04 1109.81 2368.67 1110.14 2366.99 1108.88L2350.21 1096.25L2349.44 1096.84C2341.74 1102.68 2331.08 1102.61 2323.46 1096.67L2322.78 1096.14L2322.77 1096.14L2305.84 1108.88C2304.17 1110.14 2301.79 1109.81 2300.53 1108.13C2299.27 1106.46 2299.61 1104.08 2301.28 1102.82L2316.59 1091.31L2291.1 1071.43Z" fill="black"/>
<path d="M2288.7 1056.28C2287.39 1057.8 2287.88 1060.05 2289.46 1061.29L2328.13 1091.45C2333.03 1095.28 2339.9 1095.32 2344.85 1091.56L2384.56 1061.41C2386.17 1060.19 2386.68 1057.93 2385.37 1056.38C2382.15 1052.58 2377.35 1050.17 2372 1050.17H2302C2296.67 1050.17 2291.91 1052.53 2288.7 1056.28Z" fill="black"/>
</g>
</g>
</g>
<g id="Semibold-M">
<g id="Solid / Email Solid_13">
<g id="Shape_13">
<path d="M1995.1 1071.43C1992.42 1069.34 1988.51 1071.24 1988.51 1074.64C1988.5 1085.25 1988.5 1103.49 1988.5 1114.33C1988.5 1124.02 1996.32 1131.83 2006 1131.83H2076C2085.68 1131.83 2093.5 1124.02 2093.5 1114.33C2093.5 1101.03 2093.8 1087.69 2093.64 1074.38C2093.61 1071.05 2089.81 1069.22 2087.16 1071.23L2060.49 1091.49L2075.55 1102.82C2077.23 1104.08 2077.56 1106.46 2076.3 1108.13C2075.04 1109.81 2072.67 1110.14 2070.99 1108.88L2054.21 1096.25L2053.44 1096.84C2045.74 1102.68 2035.08 1102.61 2027.46 1096.67L2026.78 1096.14L2026.77 1096.14L2009.84 1108.88C2008.17 1110.14 2005.79 1109.81 2004.53 1108.13C2003.27 1106.46 2003.61 1104.08 2005.28 1102.82L2020.59 1091.31L1995.1 1071.43Z" fill="black"/>
<path d="M1992.7 1056.28C1991.39 1057.8 1991.88 1060.05 1993.46 1061.29L2032.13 1091.45C2037.03 1095.28 2043.9 1095.32 2048.85 1091.56L2088.56 1061.41C2090.17 1060.19 2090.68 1057.93 2089.37 1056.38C2086.15 1052.58 2081.35 1050.17 2076 1050.17H2006C2000.67 1050.17 1995.91 1052.53 1992.7 1056.28Z" fill="black"/>
</g>
</g>
</g>
<g id="Medium-M">
<g id="Solid / Email Solid_14">
<g id="Shape_14">
<path d="M1699.1 1071.43C1696.42 1069.34 1692.51 1071.24 1692.51 1074.64C1692.5 1085.25 1692.5 1103.49 1692.5 1114.33C1692.5 1124.02 1700.32 1131.83 1710 1131.83H1780C1789.68 1131.83 1797.5 1124.02 1797.5 1114.33C1797.5 1101.03 1797.8 1087.69 1797.64 1074.38C1797.61 1071.05 1793.81 1069.22 1791.16 1071.23L1764.49 1091.49L1779.55 1102.82C1781.23 1104.08 1781.56 1106.46 1780.3 1108.13C1779.04 1109.81 1776.67 1110.14 1774.99 1108.88L1758.21 1096.25L1757.44 1096.84C1749.74 1102.68 1739.08 1102.61 1731.46 1096.67L1730.78 1096.14L1730.77 1096.14L1713.84 1108.88C1712.17 1110.14 1709.79 1109.81 1708.53 1108.13C1707.27 1106.46 1707.61 1104.08 1709.28 1102.82L1724.59 1091.31L1699.1 1071.43Z" fill="black"/>
<path d="M1696.7 1056.28C1695.39 1057.8 1695.88 1060.05 1697.46 1061.29L1736.13 1091.45C1741.03 1095.28 1747.9 1095.32 1752.85 1091.56L1792.56 1061.41C1794.17 1060.19 1794.68 1057.93 1793.37 1056.38C1790.15 1052.58 1785.35 1050.17 1780 1050.17H1710C1704.67 1050.17 1699.91 1052.53 1696.7 1056.28Z" fill="black"/>
</g>
</g>
</g>
<g id="Regular-M">
<g id="Solid / Email Solid_15">
<g id="Shape_15">
<path d="M1403.1 1071.43C1400.42 1069.34 1396.51 1071.24 1396.51 1074.64C1396.5 1085.25 1396.5 1103.49 1396.5 1114.33C1396.5 1124.02 1404.32 1131.83 1414 1131.83H1484C1493.68 1131.83 1501.5 1124.02 1501.5 1114.33C1501.5 1101.03 1501.8 1087.69 1501.64 1074.38C1501.61 1071.05 1497.81 1069.22 1495.16 1071.23L1468.49 1091.49L1483.55 1102.82C1485.23 1104.08 1485.56 1106.46 1484.3 1108.13C1483.04 1109.81 1480.67 1110.14 1478.99 1108.88L1462.21 1096.25L1461.44 1096.84C1453.74 1102.68 1443.08 1102.61 1435.46 1096.67L1434.78 1096.14L1434.77 1096.14L1417.84 1108.88C1416.17 1110.14 1413.79 1109.81 1412.53 1108.13C1411.27 1106.46 1411.61 1104.08 1413.28 1102.82L1428.59 1091.31L1403.1 1071.43Z" fill="black"/>
<path d="M1400.7 1056.28C1399.39 1057.8 1399.88 1060.05 1401.46 1061.29L1440.13 1091.45C1445.03 1095.28 1451.9 1095.32 1456.85 1091.56L1496.56 1061.41C1498.17 1060.19 1498.68 1057.93 1497.37 1056.38C1494.15 1052.58 1489.35 1050.17 1484 1050.17H1414C1408.67 1050.17 1403.91 1052.53 1400.7 1056.28Z" fill="black"/>
</g>
</g>
</g>
<g id="Light-M">
<g id="Solid / Email Solid_16">
<g id="Shape_16">
<path d="M1107.1 1071.43C1104.42 1069.34 1100.51 1071.24 1100.51 1074.64C1100.5 1085.25 1100.5 1103.49 1100.5 1114.33C1100.5 1124.02 1108.32 1131.83 1118 1131.83H1188C1197.68 1131.83 1205.5 1124.02 1205.5 1114.33C1205.5 1101.03 1205.8 1087.69 1205.64 1074.38C1205.61 1071.05 1201.81 1069.22 1199.16 1071.23L1172.49 1091.49L1187.55 1102.82C1189.23 1104.08 1189.56 1106.46 1188.3 1108.13C1187.04 1109.81 1184.67 1110.14 1182.99 1108.88L1166.21 1096.25L1165.44 1096.84C1157.74 1102.68 1147.08 1102.61 1139.46 1096.67L1138.78 1096.14L1138.77 1096.14L1121.84 1108.88C1120.17 1110.14 1117.79 1109.81 1116.53 1108.13C1115.27 1106.46 1115.61 1104.08 1117.28 1102.82L1132.59 1091.31L1107.1 1071.43Z" fill="black"/>
<path d="M1104.7 1056.28C1103.39 1057.8 1103.88 1060.05 1105.46 1061.29L1144.13 1091.45C1149.03 1095.28 1155.9 1095.32 1160.85 1091.56L1200.56 1061.41C1202.17 1060.19 1202.68 1057.93 1201.37 1056.38C1198.15 1052.58 1193.35 1050.17 1188 1050.17H1118C1112.67 1050.17 1107.91 1052.53 1104.7 1056.28Z" fill="black"/>
</g>
</g>
</g>
<g id="Thin-M">
<g id="Solid / Email Solid_17">
<g id="Shape_17">
<path d="M811.103 1071.43C808.422 1069.34 804.509 1071.24 804.508 1074.64C804.505 1085.25 804.5 1103.49 804.5 1114.33C804.5 1124.02 812.317 1131.83 822 1131.83H892C901.683 1131.83 909.5 1124.02 909.5 1114.33C909.5 1101.03 909.798 1087.69 909.645 1074.38C909.606 1071.05 905.807 1069.22 903.159 1071.23L876.488 1091.49L891.552 1102.82C893.226 1104.08 893.562 1106.46 892.303 1108.13C891.044 1109.81 888.666 1110.14 886.993 1108.88L870.21 1096.25L869.436 1096.84C861.743 1102.68 851.081 1102.61 843.465 1096.67L842.778 1096.14L842.77 1096.14L825.84 1108.88C824.167 1110.14 821.79 1109.81 820.531 1108.13C819.272 1106.46 819.608 1104.08 821.281 1102.82L836.585 1091.31L811.103 1071.43Z" fill="black"/>
<path d="M808.703 1056.28C807.393 1057.8 807.877 1060.05 809.465 1061.29L848.129 1091.45C853.033 1095.28 859.897 1095.32 864.85 1091.56L904.556 1061.41C906.167 1060.19 906.676 1057.93 905.37 1056.38C902.153 1052.58 897.347 1050.17 892 1050.17H822C816.672 1050.17 811.91 1052.53 808.703 1056.28Z" fill="black"/>
</g>
</g>
</g>
<g id="Ultralight-M">
<g id="Solid / Email Solid_18">
<g id="Shape_18">
<path d="M515.103 1071.43C512.422 1069.34 508.509 1071.24 508.508 1074.64C508.505 1085.25 508.5 1103.49 508.5 1114.33C508.5 1124.02 516.317 1131.83 526 1131.83H596C605.683 1131.83 613.5 1124.02 613.5 1114.33C613.5 1101.03 613.798 1087.69 613.645 1074.38C613.606 1071.05 609.807 1069.22 607.159 1071.23L580.488 1091.49L595.552 1102.82C597.226 1104.08 597.562 1106.46 596.303 1108.13C595.044 1109.81 592.666 1110.14 590.993 1108.88L574.21 1096.25L573.436 1096.84C565.743 1102.68 555.081 1102.61 547.465 1096.67L546.778 1096.14L546.77 1096.14L529.84 1108.88C528.167 1110.14 525.79 1109.81 524.531 1108.13C523.272 1106.46 523.608 1104.08 525.281 1102.82L540.585 1091.31L515.103 1071.43Z" fill="black"/>
<path d="M512.703 1056.28C511.393 1057.8 511.877 1060.05 513.465 1061.29L552.129 1091.45C557.033 1095.28 563.897 1095.32 568.85 1091.56L608.556 1061.41C610.167 1060.19 610.676 1057.93 609.37 1056.38C606.153 1052.58 601.347 1050.17 596 1050.17H526C520.672 1050.17 515.91 1052.53 512.703 1056.28Z" fill="black"/>
</g>
</g>
</g>
<g id="Black-S">
<g id="Solid / Email Solid_19">
<g id="Shape_19">
<path d="M2896.22 647.02C2894.3 645.526 2891.51 646.883 2891.51 649.311C2891.5 656.892 2891.5 669.921 2891.5 677.665C2891.5 684.582 2897.08 690.165 2904 690.165H2954C2960.92 690.165 2966.5 684.582 2966.5 677.665C2966.5 668.165 2966.71 658.632 2966.6 649.123C2966.58 646.749 2963.86 645.443 2961.97 646.879L2942.92 661.346L2953.68 669.442C2954.88 670.342 2955.12 672.039 2954.22 673.235C2953.32 674.43 2951.62 674.67 2950.42 673.771L2938.44 664.751L2937.88 665.171C2932.39 669.344 2924.77 669.294 2919.33 665.05L2918.84 664.668L2918.84 664.672L2906.74 673.771C2905.55 674.67 2903.85 674.43 2902.95 673.235C2902.05 672.039 2902.29 670.342 2903.49 669.442L2914.42 661.217L2896.22 647.02Z" fill="black"/>
<path d="M2894.5 636.195C2893.57 637.287 2893.91 638.894 2895.05 639.779L2922.66 661.321C2926.17 664.053 2931.07 664.085 2934.61 661.399L2962.97 639.861C2964.12 638.988 2964.48 637.375 2963.55 636.272C2961.25 633.555 2957.82 631.832 2954 631.832H2904C2900.19 631.832 2896.79 633.522 2894.5 636.195Z" fill="black"/>
</g>
</g>
</g>
<g id="Heavy-S">
<g id="Solid / Email Solid_20">
<g id="Shape_20">
<path d="M2600.22 647.02C2598.3 645.526 2595.51 646.883 2595.51 649.311C2595.5 656.892 2595.5 669.921 2595.5 677.665C2595.5 684.582 2601.08 690.165 2608 690.165H2658C2664.92 690.165 2670.5 684.582 2670.5 677.665C2670.5 668.165 2670.71 658.632 2670.6 649.123C2670.58 646.749 2667.86 645.443 2665.97 646.879L2646.92 661.346L2657.68 669.442C2658.88 670.342 2659.12 672.039 2658.22 673.235C2657.32 674.43 2655.62 674.67 2654.42 673.771L2642.44 664.751L2641.88 665.171C2636.39 669.344 2628.77 669.294 2623.33 665.05L2622.84 664.668L2622.84 664.672L2610.74 673.771C2609.55 674.67 2607.85 674.43 2606.95 673.235C2606.05 672.039 2606.29 670.342 2607.49 669.442L2618.42 661.217L2600.22 647.02Z" fill="black"/>
<path d="M2598.5 636.195C2597.57 637.287 2597.91 638.894 2599.05 639.779L2626.66 661.321C2630.17 664.053 2635.07 664.085 2638.61 661.399L2666.97 639.861C2668.12 638.988 2668.48 637.375 2667.55 636.272C2665.25 633.555 2661.82 631.832 2658 631.832H2608C2604.19 631.832 2600.79 633.522 2598.5 636.195Z" fill="black"/>
</g>
</g>
</g>
<g id="Bold-S">
<g id="Solid / Email Solid_21">
<g id="Shape_21">
<path d="M2304.22 647.02C2302.3 645.526 2299.51 646.883 2299.51 649.311C2299.5 656.892 2299.5 669.921 2299.5 677.665C2299.5 684.582 2305.08 690.165 2312 690.165H2362C2368.92 690.165 2374.5 684.582 2374.5 677.665C2374.5 668.165 2374.71 658.632 2374.6 649.123C2374.58 646.749 2371.86 645.443 2369.97 646.879L2350.92 661.346L2361.68 669.442C2362.88 670.342 2363.12 672.039 2362.22 673.235C2361.32 674.43 2359.62 674.67 2358.42 673.771L2346.44 664.751L2345.88 665.171C2340.39 669.344 2332.77 669.294 2327.33 665.05L2326.84 664.668L2326.84 664.672L2314.74 673.771C2313.55 674.67 2311.85 674.43 2310.95 673.235C2310.05 672.039 2310.29 670.342 2311.49 669.442L2322.42 661.217L2304.22 647.02Z" fill="black"/>
<path d="M2302.5 636.195C2301.57 637.287 2301.91 638.894 2303.05 639.779L2330.66 661.321C2334.17 664.053 2339.07 664.085 2342.61 661.399L2370.97 639.861C2372.12 638.988 2372.48 637.375 2371.55 636.272C2369.25 633.555 2365.82 631.832 2362 631.832H2312C2308.19 631.832 2304.79 633.522 2302.5 636.195Z" fill="black"/>
</g>
</g>
</g>
<g id="Semibold-S">
<g id="Solid / Email Solid_22">
<g id="Shape_22">
<path d="M2008.22 647.02C2006.3 645.526 2003.51 646.883 2003.51 649.311C2003.5 656.892 2003.5 669.921 2003.5 677.665C2003.5 684.582 2009.08 690.165 2016 690.165H2066C2072.92 690.165 2078.5 684.582 2078.5 677.665C2078.5 668.165 2078.71 658.632 2078.6 649.123C2078.58 646.749 2075.86 645.443 2073.97 646.879L2054.92 661.346L2065.68 669.442C2066.88 670.342 2067.12 672.039 2066.22 673.235C2065.32 674.43 2063.62 674.67 2062.42 673.771L2050.44 664.751L2049.88 665.171C2044.39 669.344 2036.77 669.294 2031.33 665.05L2030.84 664.668L2030.84 664.672L2018.74 673.771C2017.55 674.67 2015.85 674.43 2014.95 673.235C2014.05 672.039 2014.29 670.342 2015.49 669.442L2026.42 661.217L2008.22 647.02Z" fill="black"/>
<path d="M2006.5 636.195C2005.57 637.287 2005.91 638.894 2007.05 639.779L2034.66 661.321C2038.17 664.053 2043.07 664.085 2046.61 661.399L2074.97 639.861C2076.12 638.988 2076.48 637.375 2075.55 636.272C2073.25 633.555 2069.82 631.832 2066 631.832H2016C2012.19 631.832 2008.79 633.522 2006.5 636.195Z" fill="black"/>
</g>
</g>
</g>
<g id="Medium-S">
<g id="Solid / Email Solid_23">
<g id="Shape_23">
<path d="M1712.22 647.02C1710.3 645.526 1707.51 646.883 1707.51 649.311C1707.5 656.892 1707.5 669.921 1707.5 677.665C1707.5 684.582 1713.08 690.165 1720 690.165H1770C1776.92 690.165 1782.5 684.582 1782.5 677.665C1782.5 668.165 1782.71 658.632 1782.6 649.123C1782.58 646.749 1779.86 645.443 1777.97 646.879L1758.92 661.346L1769.68 669.442C1770.88 670.342 1771.12 672.039 1770.22 673.235C1769.32 674.43 1767.62 674.67 1766.42 673.771L1754.44 664.751L1753.88 665.171C1748.39 669.344 1740.77 669.294 1735.33 665.05L1734.84 664.668L1734.84 664.672L1722.74 673.771C1721.55 674.67 1719.85 674.43 1718.95 673.235C1718.05 672.039 1718.29 670.342 1719.49 669.442L1730.42 661.217L1712.22 647.02Z" fill="black"/>
<path d="M1710.5 636.195C1709.57 637.287 1709.91 638.894 1711.05 639.779L1738.66 661.321C1742.17 664.053 1747.07 664.085 1750.61 661.399L1778.97 639.861C1780.12 638.988 1780.48 637.375 1779.55 636.272C1777.25 633.555 1773.82 631.832 1770 631.832H1720C1716.19 631.832 1712.79 633.522 1710.5 636.195Z" fill="black"/>
</g>
</g>
</g>
<g id="Regular-S">
<g id="Solid / Email Solid_24">
<g id="Shape_24">
<path d="M1416.22 647.02C1414.3 645.526 1411.51 646.883 1411.51 649.311C1411.5 656.892 1411.5 669.921 1411.5 677.665C1411.5 684.582 1417.08 690.165 1424 690.165H1474C1480.92 690.165 1486.5 684.582 1486.5 677.665C1486.5 668.165 1486.71 658.632 1486.6 649.123C1486.58 646.749 1483.86 645.443 1481.97 646.879L1462.92 661.346L1473.68 669.442C1474.88 670.342 1475.12 672.039 1474.22 673.235C1473.32 674.43 1471.62 674.67 1470.42 673.771L1458.44 664.751L1457.88 665.171C1452.39 669.344 1444.77 669.294 1439.33 665.05L1438.84 664.668L1438.84 664.672L1426.74 673.771C1425.55 674.67 1423.85 674.43 1422.95 673.235C1422.05 672.039 1422.29 670.342 1423.49 669.442L1434.42 661.217L1416.22 647.02Z" fill="black"/>
<path d="M1414.5 636.195C1413.57 637.287 1413.91 638.894 1415.05 639.779L1442.66 661.321C1446.17 664.053 1451.07 664.085 1454.61 661.399L1482.97 639.861C1484.12 638.988 1484.48 637.375 1483.55 636.272C1481.25 633.555 1477.82 631.832 1474 631.832H1424C1420.19 631.832 1416.79 633.522 1414.5 636.195Z" fill="black"/>
</g>
</g>
</g>
<g id="Light-S">
<g id="Solid / Email Solid_25">
<g id="Shape_25">
<path d="M1120.22 647.02C1118.3 645.526 1115.51 646.883 1115.51 649.311C1115.5 656.892 1115.5 669.921 1115.5 677.665C1115.5 684.582 1121.08 690.165 1128 690.165H1178C1184.92 690.165 1190.5 684.582 1190.5 677.665C1190.5 668.165 1190.71 658.632 1190.6 649.123C1190.58 646.749 1187.86 645.443 1185.97 646.879L1166.92 661.346L1177.68 669.442C1178.88 670.342 1179.12 672.039 1178.22 673.235C1177.32 674.43 1175.62 674.67 1174.42 673.771L1162.44 664.751L1161.88 665.171C1156.39 669.344 1148.77 669.294 1143.33 665.05L1142.84 664.668L1142.84 664.672L1130.74 673.771C1129.55 674.67 1127.85 674.43 1126.95 673.235C1126.05 672.039 1126.29 670.342 1127.49 669.442L1138.42 661.217L1120.22 647.02Z" fill="black"/>
<path d="M1118.5 636.195C1117.57 637.287 1117.91 638.894 1119.05 639.779L1146.66 661.321C1150.17 664.053 1155.07 664.085 1158.61 661.399L1186.97 639.861C1188.12 638.988 1188.48 637.375 1187.55 636.272C1185.25 633.555 1181.82 631.832 1178 631.832H1128C1124.19 631.832 1120.79 633.522 1118.5 636.195Z" fill="black"/>
</g>
</g>
</g>
<g id="Thin-S">
<g id="Solid / Email Solid_26">
<g id="Shape_26">
<path d="M824.216 647.02C822.301 645.526 819.507 646.883 819.506 649.311C819.504 656.892 819.5 669.921 819.5 677.665C819.5 684.582 825.083 690.165 832 690.165H882C888.917 690.165 894.5 684.582 894.5 677.665C894.5 668.165 894.713 658.632 894.603 649.123C894.576 646.749 891.862 645.443 889.971 646.879L870.92 661.346L881.68 669.442C882.876 670.342 883.115 672.039 882.216 673.235C881.317 674.43 879.619 674.67 878.424 673.771L866.436 664.751L865.883 665.171C860.388 669.344 852.772 669.294 847.332 665.05L846.841 664.668L846.836 664.672L834.743 673.771C833.548 674.67 831.85 674.43 830.951 673.235C830.051 672.039 830.291 670.342 831.486 669.442L842.418 661.217L824.216 647.02Z" fill="black"/>
<path d="M822.502 636.195C821.566 637.287 821.912 638.894 823.046 639.779L850.663 661.321C854.166 664.053 859.069 664.085 862.607 661.399L890.969 639.861C892.119 638.988 892.483 637.375 891.55 636.272C889.252 633.555 885.819 631.832 882 631.832H832C828.194 631.832 824.793 633.522 822.502 636.195Z" fill="black"/>
</g>
</g>
</g>
<g id="Ultralight-S">
<g id="Solid / Email Solid_27">
<g id="Shape_27">
<path d="M528.216 647.02C526.301 645.526 523.507 646.883 523.506 649.311C523.504 656.892 523.5 669.921 523.5 677.665C523.5 684.582 529.083 690.165 536 690.165H586C592.917 690.165 598.5 684.582 598.5 677.665C598.5 668.165 598.713 658.632 598.603 649.123C598.576 646.749 595.862 645.443 593.971 646.879L574.92 661.346L585.68 669.442C586.876 670.342 587.115 672.039 586.216 673.235C585.317 674.43 583.619 674.67 582.424 673.771L570.436 664.751L569.883 665.171C564.388 669.344 556.772 669.294 551.332 665.05L550.841 664.668L550.836 664.672L538.743 673.771C537.548 674.67 535.85 674.43 534.951 673.235C534.051 672.039 534.291 670.342 535.486 669.442L546.418 661.217L528.216 647.02Z" fill="black"/>
<path d="M526.502 636.195C525.566 637.287 525.912 638.894 527.046 639.779L554.663 661.321C558.166 664.053 563.069 664.085 566.607 661.399L594.969 639.861C596.119 638.988 596.483 637.375 595.55 636.272C593.252 633.555 589.819 631.832 586 631.832H536C532.194 631.832 528.793 633.522 526.502 636.195Z" fill="black"/>
</g>
</g>
</g>
</g>
</g>
<defs>
<clipPath id="clip0_805_27002">
<rect width="3300" height="2200" fill="white"/>
</clipPath>
</defs>
</svg>
