<svg width="3300" height="2200" viewBox="0 0 3300 2200" fill="none" xmlns="http://www.w3.org/2000/svg">
<rect width="3300" height="2200" fill="#E5E5E5"/>
<g id="Documents / Outline / Catalog" clip-path="url(#clip0_0_1)">
<g id="Notes">
<path id="artboard" d="M3300 0H0V2200H3300V0Z" fill="white"/>
<path id="Vector" d="M263 292H3036" stroke="black" stroke-width="0.5"/>
<text id="Weight/Scale Variations" fill="black" xml:space="preserve" style="white-space: pre" font-family="Roboto" font-size="12" letter-spacing="0em"><tspan x="263" y="321.102">Weight/Scale Variations</tspan></text>
<text id="Ultralight" fill="black" xml:space="preserve" style="white-space: pre" font-family="Roboto" font-size="12" letter-spacing="0em"><tspan x="535.211" y="321.102">Ultralight</tspan></text>
<text id="Thin" fill="black" xml:space="preserve" style="white-space: pre" font-family="Roboto" font-size="12" letter-spacing="0em"><tspan x="844.422" y="321.102">Thin</tspan></text>
<text id="Light" fill="black" xml:space="preserve" style="white-space: pre" font-family="Roboto" font-size="12" letter-spacing="0em"><tspan x="1139.63" y="321.102">Light</tspan></text>
<text id="Regular" fill="black" xml:space="preserve" style="white-space: pre" font-family="Roboto" font-size="12" letter-spacing="0em"><tspan x="1429.34" y="321.102">Regular</tspan></text>
<text id="Medium" fill="black" xml:space="preserve" style="white-space: pre" font-family="Roboto" font-size="12" letter-spacing="0em"><tspan x="1724.56" y="321.102">Medium</tspan></text>
<text id="Semibold" fill="black" xml:space="preserve" style="white-space: pre" font-family="Roboto" font-size="12" letter-spacing="0em"><tspan x="2017.77" y="321.102">Semibold</tspan></text>
<text id="Bold" fill="black" xml:space="preserve" style="white-space: pre" font-family="Roboto" font-size="12" letter-spacing="0em"><tspan x="2327.48" y="321.102">Bold</tspan></text>
<text id="Heavy" fill="black" xml:space="preserve" style="white-space: pre" font-family="Roboto" font-size="12" letter-spacing="0em"><tspan x="2620.19" y="321.102">Heavy</tspan></text>
<text id="Black" fill="black" xml:space="preserve" style="white-space: pre" font-family="Roboto" font-size="12" letter-spacing="0em"><tspan x="2918.4" y="321.102">Black</tspan></text>
<path id="Vector_2" d="M263 1903H3036" stroke="black" stroke-width="0.5"/>
<g id="Group">
<path id="Vector_3" d="M272.248 1933.83C276.555 1933.83 280.139 1930.26 280.139 1925.95C280.139 1921.64 276.545 1918.07 272.238 1918.07C267.941 1918.07 264.367 1921.64 264.367 1925.95C264.367 1930.26 267.951 1933.83 272.248 1933.83ZM272.248 1932.35C268.703 1932.35 265.871 1929.5 265.871 1925.95C265.871 1922.39 268.693 1919.55 272.238 1919.55C275.793 1919.55 278.635 1922.39 278.644 1925.95C278.654 1929.5 275.803 1932.35 272.248 1932.35ZM272.229 1929.57C272.697 1929.57 272.971 1929.26 272.971 1928.74V1926.68H275.197C275.695 1926.68 276.037 1926.43 276.037 1925.96C276.037 1925.48 275.715 1925.22 275.197 1925.22H272.971V1922.99C272.971 1922.47 272.697 1922.15 272.229 1922.15C271.76 1922.15 271.506 1922.49 271.506 1922.99V1925.22H269.299C268.781 1925.22 268.449 1925.48 268.449 1925.96C268.449 1926.43 268.801 1926.68 269.299 1926.68H271.506V1928.74C271.506 1929.24 271.76 1929.57 272.229 1929.57Z" fill="black"/>
</g>
<g id="Group_2">
<path id="Vector_4" d="M293.219 1935.91C298.668 1935.91 303.18 1931.4 303.18 1925.95C303.18 1920.51 298.658 1915.99 293.209 1915.99C287.77 1915.99 283.258 1920.51 283.258 1925.95C283.258 1931.4 287.779 1935.91 293.219 1935.91ZM293.219 1934.25C288.609 1934.25 284.928 1930.56 284.928 1925.95C284.928 1921.35 288.6 1917.65 293.209 1917.65C297.818 1917.65 301.51 1921.35 301.52 1925.95C301.529 1930.56 297.828 1934.25 293.219 1934.25ZM293.199 1930.59C293.717 1930.59 294.029 1930.23 294.029 1929.66V1926.77H297.086C297.633 1926.77 298.014 1926.49 298.014 1925.97C298.014 1925.44 297.652 1925.14 297.086 1925.14H294.029V1922.07C294.029 1921.5 293.717 1921.14 293.199 1921.14C292.682 1921.14 292.389 1921.52 292.389 1922.07V1925.14H289.342C288.775 1925.14 288.404 1925.44 288.404 1925.97C288.404 1926.49 288.795 1926.77 289.342 1926.77H292.389V1929.66C292.389 1930.21 292.682 1930.59 293.199 1930.59Z" fill="black"/>
</g>
<g id="Group_3">
<path id="Vector_5" d="M319.895 1938.67C326.857 1938.67 332.619 1932.92 332.619 1925.96C332.619 1919 326.848 1913.24 319.885 1913.24C312.932 1913.24 307.18 1919 307.18 1925.96C307.18 1932.92 312.941 1938.67 319.895 1938.67ZM319.895 1936.86C313.859 1936.86 309.006 1931.99 309.006 1925.96C309.006 1919.92 313.85 1915.06 319.885 1915.06C325.93 1915.06 330.783 1919.92 330.793 1925.96C330.803 1931.99 325.939 1936.86 319.895 1936.86ZM319.875 1931.94C320.441 1931.94 320.793 1931.54 320.793 1930.94V1926.87H325.031C325.617 1926.87 326.037 1926.54 326.037 1925.98C326.037 1925.4 325.647 1925.06 325.031 1925.06H320.793V1920.81C320.793 1920.2 320.441 1919.81 319.875 1919.81C319.309 1919.81 318.986 1920.22 318.986 1920.81V1925.06H314.758C314.143 1925.06 313.732 1925.4 313.732 1925.98C313.732 1926.54 314.162 1926.87 314.758 1926.87H318.986V1930.94C318.986 1931.53 319.309 1931.94 319.875 1931.94Z" fill="black"/>
</g>
<text id="Design Variations" fill="black" xml:space="preserve" style="white-space: pre" font-family="Roboto" font-size="12" letter-spacing="0em"><tspan x="263" y="1952.1">Design Variations</tspan></text>
<text id="Symbols are supported in up to nine weights and three scales." fill="black" xml:space="preserve" style="white-space: pre" font-family="Roboto" font-size="12" letter-spacing="0em"><tspan x="263" y="1970.1">Symbols are supported in up to nine weights and three scales.</tspan></text>
<text id="For optimal layout with text and other symbols, vertically align" fill="black" xml:space="preserve" style="white-space: pre" font-family="Roboto" font-size="12" letter-spacing="0em"><tspan x="263" y="1988.1">For optimal layout with text and other symbols, vertically align</tspan></text>
<text id="symbols with the adjacent text." fill="black" xml:space="preserve" style="white-space: pre" font-family="Roboto" font-size="12" letter-spacing="0em"><tspan x="263" y="2006.1">symbols with the adjacent text.</tspan></text>
<path id="Vector_6" opacity="0.4" d="M779 1919H776V1933H779V1919Z" fill="#00AEEF"/>
<g id="Group_4">
<path id="Vector_7" d="M789.525 1933H791.371L786.176 1918.91H784.437L779.242 1933H781.088L782.504 1928.97H788.109L789.525 1933ZM785.277 1921.05H785.336L787.592 1927.47H783.021L785.277 1921.05Z" fill="black"/>
</g>
<path id="Vector_8" opacity="0.4" d="M794.617 1919H791.617V1933H794.617V1919Z" fill="#00AEEF"/>
<text id="Margins" fill="black" xml:space="preserve" style="white-space: pre" font-family="Roboto" font-size="12" letter-spacing="0em"><tspan x="776" y="1952.1">Margins</tspan></text>
<text id="Leading and trailing margins on the left and right side of each symbol" fill="black" xml:space="preserve" style="white-space: pre" font-family="Roboto" font-size="12" letter-spacing="0em"><tspan x="776" y="1970.1">Leading and trailing margins on the left and right side of each symbol</tspan></text>
<text id="can be adjusted by modifying the width of the blue rectangles." fill="black" xml:space="preserve" style="white-space: pre" font-family="Roboto" font-size="12" letter-spacing="0em"><tspan x="776" y="1988.1">can be adjusted by modifying the width of the blue rectangles.</tspan></text>
<text id="Modifications are automatically applied proportionally to all" fill="black" xml:space="preserve" style="white-space: pre" font-family="Roboto" font-size="12" letter-spacing="0em"><tspan x="776" y="2006.1">Modifications are automatically applied proportionally to all</tspan></text>
<text id="scales and weights." fill="black" xml:space="preserve" style="white-space: pre" font-family="Roboto" font-size="12" letter-spacing="0em"><tspan x="776" y="2024.1">scales and weights.</tspan></text>
<g id="Group_5">
<path id="Vector_9" d="M1291.84 1936.12L1293.38 1937.66C1294.23 1938.49 1295.19 1938.42 1296.06 1937.46L1306.28 1926.34C1306.71 1926.63 1307.1 1926.62 1307.57 1926.53L1308.61 1926.31L1309.31 1927L1309.26 1927.52C1309.19 1928.05 1309.36 1928.47 1309.85 1928.97L1310.66 1929.78C1311.17 1930.29 1311.83 1930.31 1312.3 1929.84L1315.56 1926.58C1316.03 1926.11 1316.02 1925.45 1315.51 1924.94L1314.69 1924.12C1314.19 1923.62 1313.78 1923.45 1313.24 1923.53L1312.71 1923.59L1312.06 1922.92L1312.34 1921.78C1312.49 1921.21 1312.34 1920.74 1311.72 1920.14L1309.31 1917.75C1305.76 1914.22 1301.23 1914.33 1298.11 1917.46C1297.69 1917.89 1297.65 1918.48 1297.92 1918.91C1298.15 1919.28 1298.63 1919.5 1299.28 1919.34C1300.79 1918.96 1302.3 1919.07 1303.79 1920.08L1303.16 1921.66C1302.93 1922.25 1302.95 1922.73 1303.18 1923.17L1292.02 1933.44C1291.08 1934.31 1290.98 1935.26 1291.84 1936.12ZM1299.68 1917.85C1302.34 1915.86 1305.65 1916.17 1308.06 1918.59L1310.68 1921.19C1310.92 1921.43 1310.95 1921.61 1310.89 1921.91L1310.51 1923.47L1312.08 1925.04L1313.05 1924.95C1313.33 1924.92 1313.42 1924.94 1313.64 1925.17L1314.27 1925.79L1311.51 1928.54L1310.89 1927.92C1310.66 1927.7 1310.64 1927.6 1310.67 1927.32L1310.76 1926.36L1309.2 1924.8L1307.58 1925.11C1307.29 1925.17 1307.15 1925.17 1306.91 1924.92L1304.74 1922.75C1304.51 1922.51 1304.48 1922.37 1304.61 1922.05L1305.56 1919.78C1303.95 1918.24 1301.85 1917.39 1299.8 1918.05C1299.72 1918.08 1299.65 1918.06 1299.62 1918.02C1299.59 1917.97 1299.59 1917.92 1299.68 1917.85ZM1293.11 1935.41C1292.62 1934.91 1292.79 1934.61 1293.12 1934.31L1304.08 1924.19L1305.31 1925.42L1295.16 1936.35C1294.85 1936.68 1294.47 1936.78 1294.07 1936.38L1293.11 1935.41Z" fill="black"/>
</g>
<text id="Exporting" fill="black" xml:space="preserve" style="white-space: pre" font-family="Roboto" font-size="12" letter-spacing="0em"><tspan x="1289" y="1952.1">Exporting</tspan></text>
<text id="Symbols should be outlined when exporting to ensure the" fill="black" xml:space="preserve" style="white-space: pre" font-family="Roboto" font-size="12" letter-spacing="0em"><tspan x="1289" y="1970.1">Symbols should be outlined when exporting to ensure the</tspan></text>
<text id="design is preserved when submitting to Xcode." fill="black" xml:space="preserve" style="white-space: pre" font-family="Roboto" font-size="12" letter-spacing="0em"><tspan x="1289" y="1988.1">design is preserved when submitting to Xcode.</tspan></text>
<text id="template-version" fill="black" xml:space="preserve" style="white-space: pre" font-family="Roboto" font-size="12" letter-spacing="0em"><tspan x="2958" y="1932.1">Template v.1.0</tspan></text>
<text id="Generated from pencil.circle" fill="black" xml:space="preserve" style="white-space: pre" font-family="Roboto" font-size="12" letter-spacing="0em"><tspan x="2885" y="1950.1">Generated from pencil.circle</tspan></text>
<text id="Typeset at 100 points" fill="black" xml:space="preserve" style="white-space: pre" font-family="Roboto" font-size="12" letter-spacing="0em"><tspan x="2921" y="1968.1">Typeset at 100 points</tspan></text>
<text id="Small" fill="black" xml:space="preserve" style="white-space: pre" font-family="Roboto" font-size="12" letter-spacing="0em"><tspan x="263" y="725.102">Small</tspan></text>
<text id="Medium_2" fill="black" xml:space="preserve" style="white-space: pre" font-family="Roboto" font-size="12" letter-spacing="0em"><tspan x="263" y="1155.1">Medium</tspan></text>
<text id="Large" fill="black" xml:space="preserve" style="white-space: pre" font-family="Roboto" font-size="12" letter-spacing="0em"><tspan x="263" y="1585.1">Large</tspan></text>
</g>
<g id="Guides">
<g id="H-reference">
<path id="Vector_10" d="M393.932 696H396.666L369.566 625.541H367.076L339.977 696H342.662L351.94 671.537H384.703L393.932 696ZM368.199 628.91H368.443L383.824 669.291H352.818L368.199 628.91Z" fill="#27AAE1"/>
</g>
<path id="Baseline-S" d="M263 696H3036" stroke="#27AAE1" stroke-width="0.577"/>
<path id="Capline-S" d="M263 626H3036" stroke="#27AAE1" stroke-width="0.577"/>
<g id="H-reference_2">
<path id="Vector_11" d="M393.932 1126H396.666L369.566 1055.54H367.076L339.977 1126H342.662L351.94 1101.54H384.703L393.932 1126ZM368.199 1058.91H368.443L383.824 1099.29H352.818L368.199 1058.91Z" fill="#27AAE1"/>
</g>
<path id="Baseline-M" d="M263 1126H3036" stroke="#27AAE1" stroke-width="0.577"/>
<path id="Capline-M" d="M263 1056H3036" stroke="#27AAE1" stroke-width="0.577"/>
<g id="H-reference_3">
<path id="Vector_12" d="M393.932 1556H396.666L369.566 1485.54H367.076L339.977 1556H342.662L351.94 1531.54H384.703L393.932 1556ZM368.199 1488.91H368.443L383.824 1529.29H352.818L368.199 1488.91Z" fill="#27AAE1"/>
</g>
<g id="Group 1">
<path id="Baseline-L" d="M263 1556H3036" stroke="#27AAE1" stroke-width="0.577"/>
<path id="Capline-L" d="M263 1486H3036" stroke="#27AAE1" stroke-width="0.577"/>
</g>
<path id="left-margin" opacity="0.4" d="M1402.04 1030.79H1393.3V1150.13H1402.04V1030.79Z" fill="#00AEEF"/>
<path id="right-margin" opacity="0.4" d="M1511.39 1030.79H1502.65V1150.13H1511.39V1030.79Z" fill="#00AEEF"/>
</g>
<g id="Symbols">
<g id="Black-L">
<g id="Outline / Catalog Outline">
<g id="Shape">
<path d="M2910.25 1492.7C2910.25 1496.84 2906.89 1500.2 2902.75 1500.2C2898.61 1500.2 2895.25 1496.84 2895.25 1492.7C2895.25 1488.56 2898.61 1485.2 2902.75 1485.2C2906.89 1485.2 2910.25 1488.56 2910.25 1492.7Z" fill="black"/>
<path d="M2954.28 1492.7C2954.28 1495.4 2952.09 1497.58 2949.4 1497.58H2925.25C2922.56 1497.58 2920.38 1495.4 2920.38 1492.7C2920.38 1490.01 2922.56 1487.83 2925.25 1487.83H2949.4C2952.09 1487.83 2954.28 1490.01 2954.28 1492.7Z" fill="black"/>
<path d="M2954.36 1521C2954.36 1523.69 2952.17 1525.88 2949.48 1525.88H2925.33C2922.64 1525.88 2920.46 1523.69 2920.46 1521C2920.46 1518.31 2922.64 1516.13 2925.33 1516.13H2949.48C2952.17 1516.13 2954.36 1518.31 2954.36 1521Z" fill="black"/>
<path d="M2954.28 1549.72C2954.28 1552.41 2952.09 1554.6 2949.4 1554.6H2925.25C2922.56 1554.6 2920.38 1552.41 2920.38 1549.72C2920.38 1547.03 2922.56 1544.85 2925.25 1544.85L2949.4 1544.85C2952.09 1544.85 2954.28 1547.03 2954.28 1549.72Z" fill="black"/>
<path d="M2910.44 1521C2910.44 1525.14 2907.09 1528.5 2902.94 1528.5C2898.8 1528.5 2895.44 1525.14 2895.44 1521C2895.44 1516.86 2898.8 1513.5 2902.94 1513.5C2907.09 1513.5 2910.44 1516.86 2910.44 1521Z" fill="black"/>
<path d="M2902.94 1557.02C2907.09 1557.02 2910.44 1553.66 2910.44 1549.52C2910.44 1545.38 2907.09 1542.02 2902.94 1542.02C2898.8 1542.02 2895.44 1545.38 2895.44 1549.52C2895.44 1553.66 2898.8 1557.02 2902.94 1557.02Z" fill="black"/>
<path fill-rule="evenodd" clip-rule="evenodd" d="M2991.93 1497.19C2998.21 1497.19 2998.21 1487.44 2991.93 1487.44H2981.5V1476.26C2981.5 1463.81 2971.45 1453.76 2959 1453.76H2891.5C2879.05 1453.76 2869 1463.81 2869 1476.26V1566C2869 1578.45 2879.05 1588.5 2891.5 1588.5H2959C2971.45 1588.5 2981.5 1578.38 2981.5 1566V1554.75H2991.93C2994.62 1554.75 2996.8 1552.57 2996.8 1549.88C2996.8 1547.18 2994.62 1545 2991.93 1545H2981.5V1497.19H2991.93ZM2959 1463.51C2966.05 1463.51 2971.75 1469.21 2971.75 1476.26L2971.75 1566C2971.75 1573.05 2966.05 1578.75 2959 1578.75H2891.5C2884.45 1578.75 2878.75 1573.05 2878.75 1566L2878.75 1476.26C2878.75 1469.21 2884.45 1463.51 2891.5 1463.51L2959 1463.51Z" fill="black"/>
</g>
</g>
</g>
<g id="Heavy-L">
<g id="Outline / Catalog Outline_2">
<g id="Shape_2">
<path d="M2614.25 1492.7C2614.25 1496.84 2610.89 1500.2 2606.75 1500.2C2602.61 1500.2 2599.25 1496.84 2599.25 1492.7C2599.25 1488.56 2602.61 1485.2 2606.75 1485.2C2610.89 1485.2 2614.25 1488.56 2614.25 1492.7Z" fill="black"/>
<path d="M2658.28 1492.7C2658.28 1495.4 2656.09 1497.58 2653.4 1497.58H2629.25C2626.56 1497.58 2624.38 1495.4 2624.38 1492.7C2624.38 1490.01 2626.56 1487.83 2629.25 1487.83H2653.4C2656.09 1487.83 2658.28 1490.01 2658.28 1492.7Z" fill="black"/>
<path d="M2658.36 1521C2658.36 1523.69 2656.17 1525.88 2653.48 1525.88H2629.33C2626.64 1525.88 2624.46 1523.69 2624.46 1521C2624.46 1518.31 2626.64 1516.13 2629.33 1516.13H2653.48C2656.17 1516.13 2658.36 1518.31 2658.36 1521Z" fill="black"/>
<path d="M2658.28 1549.72C2658.28 1552.41 2656.09 1554.6 2653.4 1554.6H2629.25C2626.56 1554.6 2624.38 1552.41 2624.38 1549.72C2624.38 1547.03 2626.56 1544.85 2629.25 1544.85L2653.4 1544.85C2656.09 1544.85 2658.28 1547.03 2658.28 1549.72Z" fill="black"/>
<path d="M2614.44 1521C2614.44 1525.14 2611.09 1528.5 2606.94 1528.5C2602.8 1528.5 2599.44 1525.14 2599.44 1521C2599.44 1516.86 2602.8 1513.5 2606.94 1513.5C2611.09 1513.5 2614.44 1516.86 2614.44 1521Z" fill="black"/>
<path d="M2606.94 1557.02C2611.09 1557.02 2614.44 1553.66 2614.44 1549.52C2614.44 1545.38 2611.09 1542.02 2606.94 1542.02C2602.8 1542.02 2599.44 1545.38 2599.44 1549.52C2599.44 1553.66 2602.8 1557.02 2606.94 1557.02Z" fill="black"/>
<path fill-rule="evenodd" clip-rule="evenodd" d="M2695.93 1497.19C2702.21 1497.19 2702.21 1487.44 2695.93 1487.44H2685.5V1476.26C2685.5 1463.81 2675.45 1453.76 2663 1453.76H2595.5C2583.05 1453.76 2573 1463.81 2573 1476.26V1566C2573 1578.45 2583.05 1588.5 2595.5 1588.5H2663C2675.45 1588.5 2685.5 1578.38 2685.5 1566V1554.75H2695.93C2698.62 1554.75 2700.8 1552.57 2700.8 1549.88C2700.8 1547.18 2698.62 1545 2695.93 1545H2685.5V1497.19H2695.93ZM2663 1463.51C2670.05 1463.51 2675.75 1469.21 2675.75 1476.26L2675.75 1566C2675.75 1573.05 2670.05 1578.75 2663 1578.75H2595.5C2588.45 1578.75 2582.75 1573.05 2582.75 1566L2582.75 1476.26C2582.75 1469.21 2588.45 1463.51 2595.5 1463.51L2663 1463.51Z" fill="black"/>
</g>
</g>
</g>
<g id="Bold-L">
<g id="Outline / Catalog Outline_3">
<g id="Shape_3">
<path d="M2318.25 1492.7C2318.25 1496.84 2314.89 1500.2 2310.75 1500.2C2306.61 1500.2 2303.25 1496.84 2303.25 1492.7C2303.25 1488.56 2306.61 1485.2 2310.75 1485.2C2314.89 1485.2 2318.25 1488.56 2318.25 1492.7Z" fill="black"/>
<path d="M2362.28 1492.7C2362.28 1495.4 2360.09 1497.58 2357.4 1497.58H2333.25C2330.56 1497.58 2328.38 1495.4 2328.38 1492.7C2328.38 1490.01 2330.56 1487.83 2333.25 1487.83H2357.4C2360.09 1487.83 2362.28 1490.01 2362.28 1492.7Z" fill="black"/>
<path d="M2362.36 1521C2362.36 1523.69 2360.17 1525.88 2357.48 1525.88H2333.33C2330.64 1525.88 2328.46 1523.69 2328.46 1521C2328.46 1518.31 2330.64 1516.13 2333.33 1516.13H2357.48C2360.17 1516.13 2362.36 1518.31 2362.36 1521Z" fill="black"/>
<path d="M2362.28 1549.72C2362.28 1552.41 2360.09 1554.6 2357.4 1554.6H2333.25C2330.56 1554.6 2328.38 1552.41 2328.38 1549.72C2328.38 1547.03 2330.56 1544.85 2333.25 1544.85L2357.4 1544.85C2360.09 1544.85 2362.28 1547.03 2362.28 1549.72Z" fill="black"/>
<path d="M2318.44 1521C2318.44 1525.14 2315.09 1528.5 2310.94 1528.5C2306.8 1528.5 2303.44 1525.14 2303.44 1521C2303.44 1516.86 2306.8 1513.5 2310.94 1513.5C2315.09 1513.5 2318.44 1516.86 2318.44 1521Z" fill="black"/>
<path d="M2310.94 1557.02C2315.09 1557.02 2318.44 1553.66 2318.44 1549.52C2318.44 1545.38 2315.09 1542.02 2310.94 1542.02C2306.8 1542.02 2303.44 1545.38 2303.44 1549.52C2303.44 1553.66 2306.8 1557.02 2310.94 1557.02Z" fill="black"/>
<path fill-rule="evenodd" clip-rule="evenodd" d="M2399.93 1497.19C2406.21 1497.19 2406.21 1487.44 2399.93 1487.44H2389.5V1476.26C2389.5 1463.81 2379.45 1453.76 2367 1453.76H2299.5C2287.05 1453.76 2277 1463.81 2277 1476.26V1566C2277 1578.45 2287.05 1588.5 2299.5 1588.5H2367C2379.45 1588.5 2389.5 1578.38 2389.5 1566V1554.75H2399.93C2402.62 1554.75 2404.8 1552.57 2404.8 1549.88C2404.8 1547.18 2402.62 1545 2399.93 1545H2389.5V1497.19H2399.93ZM2367 1463.51C2374.05 1463.51 2379.75 1469.21 2379.75 1476.26L2379.75 1566C2379.75 1573.05 2374.05 1578.75 2367 1578.75H2299.5C2292.45 1578.75 2286.75 1573.05 2286.75 1566L2286.75 1476.26C2286.75 1469.21 2292.45 1463.51 2299.5 1463.51L2367 1463.51Z" fill="black"/>
</g>
</g>
</g>
<g id="Semibold-L">
<g id="Outline / Catalog Outline_4">
<g id="Shape_4">
<path d="M2022.25 1492.7C2022.25 1496.84 2018.89 1500.2 2014.75 1500.2C2010.61 1500.2 2007.25 1496.84 2007.25 1492.7C2007.25 1488.56 2010.61 1485.2 2014.75 1485.2C2018.89 1485.2 2022.25 1488.56 2022.25 1492.7Z" fill="black"/>
<path d="M2066.28 1492.7C2066.28 1495.4 2064.09 1497.58 2061.4 1497.58H2037.25C2034.56 1497.58 2032.38 1495.4 2032.38 1492.7C2032.38 1490.01 2034.56 1487.83 2037.25 1487.83H2061.4C2064.09 1487.83 2066.28 1490.01 2066.28 1492.7Z" fill="black"/>
<path d="M2066.36 1521C2066.36 1523.69 2064.17 1525.88 2061.48 1525.88H2037.33C2034.64 1525.88 2032.46 1523.69 2032.46 1521C2032.46 1518.31 2034.64 1516.13 2037.33 1516.13H2061.48C2064.17 1516.13 2066.36 1518.31 2066.36 1521Z" fill="black"/>
<path d="M2066.28 1549.72C2066.28 1552.41 2064.09 1554.6 2061.4 1554.6H2037.25C2034.56 1554.6 2032.38 1552.41 2032.38 1549.72C2032.38 1547.03 2034.56 1544.85 2037.25 1544.85L2061.4 1544.85C2064.09 1544.85 2066.28 1547.03 2066.28 1549.72Z" fill="black"/>
<path d="M2022.44 1521C2022.44 1525.14 2019.09 1528.5 2014.94 1528.5C2010.8 1528.5 2007.44 1525.14 2007.44 1521C2007.44 1516.86 2010.8 1513.5 2014.94 1513.5C2019.09 1513.5 2022.44 1516.86 2022.44 1521Z" fill="black"/>
<path d="M2014.94 1557.02C2019.09 1557.02 2022.44 1553.66 2022.44 1549.52C2022.44 1545.38 2019.09 1542.02 2014.94 1542.02C2010.8 1542.02 2007.44 1545.38 2007.44 1549.52C2007.44 1553.66 2010.8 1557.02 2014.94 1557.02Z" fill="black"/>
<path fill-rule="evenodd" clip-rule="evenodd" d="M2103.93 1497.19C2110.21 1497.19 2110.21 1487.44 2103.93 1487.44H2093.5V1476.26C2093.5 1463.81 2083.45 1453.76 2071 1453.76H2003.5C1991.05 1453.76 1981 1463.81 1981 1476.26V1566C1981 1578.45 1991.05 1588.5 2003.5 1588.5H2071C2083.45 1588.5 2093.5 1578.38 2093.5 1566V1554.75H2103.93C2106.62 1554.75 2108.8 1552.57 2108.8 1549.88C2108.8 1547.18 2106.62 1545 2103.93 1545H2093.5V1497.19H2103.93ZM2071 1463.51C2078.05 1463.51 2083.75 1469.21 2083.75 1476.26L2083.75 1566C2083.75 1573.05 2078.05 1578.75 2071 1578.75H2003.5C1996.45 1578.75 1990.75 1573.05 1990.75 1566L1990.75 1476.26C1990.75 1469.21 1996.45 1463.51 2003.5 1463.51L2071 1463.51Z" fill="black"/>
</g>
</g>
</g>
<g id="Medium-L">
<g id="Outline / Catalog Outline_5">
<g id="Shape_5">
<path d="M1726.25 1492.7C1726.25 1496.84 1722.89 1500.2 1718.75 1500.2C1714.61 1500.2 1711.25 1496.84 1711.25 1492.7C1711.25 1488.56 1714.61 1485.2 1718.75 1485.2C1722.89 1485.2 1726.25 1488.56 1726.25 1492.7Z" fill="black"/>
<path d="M1770.28 1492.7C1770.28 1495.4 1768.09 1497.58 1765.4 1497.58H1741.25C1738.56 1497.58 1736.38 1495.4 1736.38 1492.7C1736.38 1490.01 1738.56 1487.83 1741.25 1487.83H1765.4C1768.09 1487.83 1770.28 1490.01 1770.28 1492.7Z" fill="black"/>
<path d="M1770.36 1521C1770.36 1523.69 1768.17 1525.88 1765.48 1525.88H1741.33C1738.64 1525.88 1736.46 1523.69 1736.46 1521C1736.46 1518.31 1738.64 1516.13 1741.33 1516.13H1765.48C1768.17 1516.13 1770.36 1518.31 1770.36 1521Z" fill="black"/>
<path d="M1770.28 1549.72C1770.28 1552.41 1768.09 1554.6 1765.4 1554.6H1741.25C1738.56 1554.6 1736.38 1552.41 1736.38 1549.72C1736.38 1547.03 1738.56 1544.85 1741.25 1544.85L1765.4 1544.85C1768.09 1544.85 1770.28 1547.03 1770.28 1549.72Z" fill="black"/>
<path d="M1726.44 1521C1726.44 1525.14 1723.09 1528.5 1718.94 1528.5C1714.8 1528.5 1711.44 1525.14 1711.44 1521C1711.44 1516.86 1714.8 1513.5 1718.94 1513.5C1723.09 1513.5 1726.44 1516.86 1726.44 1521Z" fill="black"/>
<path d="M1718.94 1557.02C1723.09 1557.02 1726.44 1553.66 1726.44 1549.52C1726.44 1545.38 1723.09 1542.02 1718.94 1542.02C1714.8 1542.02 1711.44 1545.38 1711.44 1549.52C1711.44 1553.66 1714.8 1557.02 1718.94 1557.02Z" fill="black"/>
<path fill-rule="evenodd" clip-rule="evenodd" d="M1807.93 1497.19C1814.21 1497.19 1814.21 1487.44 1807.93 1487.44H1797.5V1476.26C1797.5 1463.81 1787.45 1453.76 1775 1453.76H1707.5C1695.05 1453.76 1685 1463.81 1685 1476.26V1566C1685 1578.45 1695.05 1588.5 1707.5 1588.5H1775C1787.45 1588.5 1797.5 1578.38 1797.5 1566V1554.75H1807.93C1810.62 1554.75 1812.8 1552.57 1812.8 1549.88C1812.8 1547.18 1810.62 1545 1807.93 1545H1797.5V1497.19H1807.93ZM1775 1463.51C1782.05 1463.51 1787.75 1469.21 1787.75 1476.26L1787.75 1566C1787.75 1573.05 1782.05 1578.75 1775 1578.75H1707.5C1700.45 1578.75 1694.75 1573.05 1694.75 1566L1694.75 1476.26C1694.75 1469.21 1700.45 1463.51 1707.5 1463.51L1775 1463.51Z" fill="black"/>
</g>
</g>
</g>
<g id="Regular-L">
<g id="Outline / Catalog Outline_6">
<g id="Shape_6">
<path d="M1430.25 1492.7C1430.25 1496.84 1426.89 1500.2 1422.75 1500.2C1418.61 1500.2 1415.25 1496.84 1415.25 1492.7C1415.25 1488.56 1418.61 1485.2 1422.75 1485.2C1426.89 1485.2 1430.25 1488.56 1430.25 1492.7Z" fill="black"/>
<path d="M1474.28 1492.7C1474.28 1495.4 1472.09 1497.58 1469.4 1497.58H1445.25C1442.56 1497.58 1440.38 1495.4 1440.38 1492.7C1440.38 1490.01 1442.56 1487.83 1445.25 1487.83H1469.4C1472.09 1487.83 1474.28 1490.01 1474.28 1492.7Z" fill="black"/>
<path d="M1474.36 1521C1474.36 1523.69 1472.17 1525.88 1469.48 1525.88H1445.33C1442.64 1525.88 1440.46 1523.69 1440.46 1521C1440.46 1518.31 1442.64 1516.13 1445.33 1516.13H1469.48C1472.17 1516.13 1474.36 1518.31 1474.36 1521Z" fill="black"/>
<path d="M1474.28 1549.72C1474.28 1552.41 1472.09 1554.6 1469.4 1554.6H1445.25C1442.56 1554.6 1440.38 1552.41 1440.38 1549.72C1440.38 1547.03 1442.56 1544.85 1445.25 1544.85L1469.4 1544.85C1472.09 1544.85 1474.28 1547.03 1474.28 1549.72Z" fill="black"/>
<path d="M1430.44 1521C1430.44 1525.14 1427.09 1528.5 1422.94 1528.5C1418.8 1528.5 1415.44 1525.14 1415.44 1521C1415.44 1516.86 1418.8 1513.5 1422.94 1513.5C1427.09 1513.5 1430.44 1516.86 1430.44 1521Z" fill="black"/>
<path d="M1422.94 1557.02C1427.09 1557.02 1430.44 1553.66 1430.44 1549.52C1430.44 1545.38 1427.09 1542.02 1422.94 1542.02C1418.8 1542.02 1415.44 1545.38 1415.44 1549.52C1415.44 1553.66 1418.8 1557.02 1422.94 1557.02Z" fill="black"/>
<path fill-rule="evenodd" clip-rule="evenodd" d="M1511.93 1497.19C1518.21 1497.19 1518.21 1487.44 1511.93 1487.44H1501.5V1476.26C1501.5 1463.81 1491.45 1453.76 1479 1453.76H1411.5C1399.05 1453.76 1389 1463.81 1389 1476.26V1566C1389 1578.45 1399.05 1588.5 1411.5 1588.5H1479C1491.45 1588.5 1501.5 1578.38 1501.5 1566V1554.75H1511.93C1514.62 1554.75 1516.8 1552.57 1516.8 1549.88C1516.8 1547.18 1514.62 1545 1511.93 1545H1501.5V1497.19H1511.93ZM1479 1463.51C1486.05 1463.51 1491.75 1469.21 1491.75 1476.26L1491.75 1566C1491.75 1573.05 1486.05 1578.75 1479 1578.75H1411.5C1404.45 1578.75 1398.75 1573.05 1398.75 1566L1398.75 1476.26C1398.75 1469.21 1404.45 1463.51 1411.5 1463.51L1479 1463.51Z" fill="black"/>
</g>
</g>
</g>
<g id="Light-L">
<g id="Outline / Catalog Outline_7">
<g id="Shape_7">
<path d="M1134.25 1492.7C1134.25 1496.84 1130.89 1500.2 1126.75 1500.2C1122.61 1500.2 1119.25 1496.84 1119.25 1492.7C1119.25 1488.56 1122.61 1485.2 1126.75 1485.2C1130.89 1485.2 1134.25 1488.56 1134.25 1492.7Z" fill="black"/>
<path d="M1178.28 1492.7C1178.28 1495.4 1176.09 1497.58 1173.4 1497.58H1149.25C1146.56 1497.58 1144.38 1495.4 1144.38 1492.7C1144.38 1490.01 1146.56 1487.83 1149.25 1487.83H1173.4C1176.09 1487.83 1178.28 1490.01 1178.28 1492.7Z" fill="black"/>
<path d="M1178.36 1521C1178.36 1523.69 1176.17 1525.88 1173.48 1525.88H1149.33C1146.64 1525.88 1144.46 1523.69 1144.46 1521C1144.46 1518.31 1146.64 1516.13 1149.33 1516.13H1173.48C1176.17 1516.13 1178.36 1518.31 1178.36 1521Z" fill="black"/>
<path d="M1178.28 1549.72C1178.28 1552.41 1176.09 1554.6 1173.4 1554.6H1149.25C1146.56 1554.6 1144.38 1552.41 1144.38 1549.72C1144.38 1547.03 1146.56 1544.85 1149.25 1544.85L1173.4 1544.85C1176.09 1544.85 1178.28 1547.03 1178.28 1549.72Z" fill="black"/>
<path d="M1134.44 1521C1134.44 1525.14 1131.09 1528.5 1126.94 1528.5C1122.8 1528.5 1119.44 1525.14 1119.44 1521C1119.44 1516.86 1122.8 1513.5 1126.94 1513.5C1131.09 1513.5 1134.44 1516.86 1134.44 1521Z" fill="black"/>
<path d="M1126.94 1557.02C1131.09 1557.02 1134.44 1553.66 1134.44 1549.52C1134.44 1545.38 1131.09 1542.02 1126.94 1542.02C1122.8 1542.02 1119.44 1545.38 1119.44 1549.52C1119.44 1553.66 1122.8 1557.02 1126.94 1557.02Z" fill="black"/>
<path fill-rule="evenodd" clip-rule="evenodd" d="M1215.93 1497.19C1222.21 1497.19 1222.21 1487.44 1215.93 1487.44H1205.5V1476.26C1205.5 1463.81 1195.45 1453.76 1183 1453.76H1115.5C1103.05 1453.76 1093 1463.81 1093 1476.26V1566C1093 1578.45 1103.05 1588.5 1115.5 1588.5H1183C1195.45 1588.5 1205.5 1578.38 1205.5 1566V1554.75H1215.93C1218.62 1554.75 1220.8 1552.57 1220.8 1549.88C1220.8 1547.18 1218.62 1545 1215.93 1545H1205.5V1497.19H1215.93ZM1183 1463.51C1190.05 1463.51 1195.75 1469.21 1195.75 1476.26L1195.75 1566C1195.75 1573.05 1190.05 1578.75 1183 1578.75H1115.5C1108.45 1578.75 1102.75 1573.05 1102.75 1566L1102.75 1476.26C1102.75 1469.21 1108.45 1463.51 1115.5 1463.51L1183 1463.51Z" fill="black"/>
</g>
</g>
</g>
<g id="Thin-L">
<g id="Outline / Catalog Outline_8">
<g id="Shape_8">
<path d="M838.25 1492.7C838.25 1496.84 834.892 1500.2 830.75 1500.2C826.608 1500.2 823.25 1496.84 823.25 1492.7C823.25 1488.56 826.608 1485.2 830.75 1485.2C834.892 1485.2 838.25 1488.56 838.25 1492.7Z" fill="black"/>
<path d="M882.275 1492.7C882.275 1495.4 880.092 1497.58 877.4 1497.58H853.25C850.558 1497.58 848.375 1495.4 848.375 1492.7C848.375 1490.01 850.558 1487.83 853.25 1487.83H877.4C880.092 1487.83 882.275 1490.01 882.275 1492.7Z" fill="black"/>
<path d="M882.356 1521C882.356 1523.69 880.174 1525.88 877.481 1525.88H853.331C850.639 1525.88 848.456 1523.69 848.456 1521C848.456 1518.31 850.639 1516.13 853.331 1516.13H877.481C880.174 1516.13 882.356 1518.31 882.356 1521Z" fill="black"/>
<path d="M882.275 1549.72C882.275 1552.41 880.092 1554.6 877.4 1554.6H853.25C850.558 1554.6 848.375 1552.41 848.375 1549.72C848.375 1547.03 850.558 1544.85 853.25 1544.85L877.4 1544.85C880.092 1544.85 882.275 1547.03 882.275 1549.72Z" fill="black"/>
<path d="M838.444 1521C838.444 1525.14 835.086 1528.5 830.944 1528.5C826.802 1528.5 823.444 1525.14 823.444 1521C823.444 1516.86 826.802 1513.5 830.944 1513.5C835.086 1513.5 838.444 1516.86 838.444 1521Z" fill="black"/>
<path d="M830.944 1557.02C835.086 1557.02 838.444 1553.66 838.444 1549.52C838.444 1545.38 835.086 1542.02 830.944 1542.02C826.802 1542.02 823.444 1545.38 823.444 1549.52C823.444 1553.66 826.802 1557.02 830.944 1557.02Z" fill="black"/>
<path fill-rule="evenodd" clip-rule="evenodd" d="M919.925 1497.19C926.212 1497.19 926.212 1487.44 919.925 1487.44H909.5V1476.26C909.5 1463.81 899.45 1453.76 887 1453.76H819.5C807.05 1453.76 797 1463.81 797 1476.26V1566C797 1578.45 807.05 1588.5 819.5 1588.5H887C899.45 1588.5 909.5 1578.38 909.5 1566V1554.75H919.925C922.617 1554.75 924.8 1552.57 924.8 1549.88C924.8 1547.18 922.617 1545 919.925 1545H909.5V1497.19H919.925ZM887 1463.51C894.05 1463.51 899.75 1469.21 899.75 1476.26L899.75 1566C899.75 1573.05 894.05 1578.75 887 1578.75H819.5C812.45 1578.75 806.75 1573.05 806.75 1566L806.75 1476.26C806.75 1469.21 812.45 1463.51 819.5 1463.51L887 1463.51Z" fill="black"/>
</g>
</g>
</g>
<g id="Ultralight-L">
<g id="Outline / Catalog Outline_9">
<g id="Shape_9">
<path d="M542.25 1492.7C542.25 1496.84 538.892 1500.2 534.75 1500.2C530.608 1500.2 527.25 1496.84 527.25 1492.7C527.25 1488.56 530.608 1485.2 534.75 1485.2C538.892 1485.2 542.25 1488.56 542.25 1492.7Z" fill="black"/>
<path d="M586.275 1492.7C586.275 1495.4 584.092 1497.58 581.4 1497.58H557.25C554.558 1497.58 552.375 1495.4 552.375 1492.7C552.375 1490.01 554.558 1487.83 557.25 1487.83H581.4C584.092 1487.83 586.275 1490.01 586.275 1492.7Z" fill="black"/>
<path d="M586.356 1521C586.356 1523.69 584.174 1525.88 581.481 1525.88H557.331C554.639 1525.88 552.456 1523.69 552.456 1521C552.456 1518.31 554.639 1516.13 557.331 1516.13H581.481C584.174 1516.13 586.356 1518.31 586.356 1521Z" fill="black"/>
<path d="M586.275 1549.72C586.275 1552.41 584.092 1554.6 581.4 1554.6H557.25C554.558 1554.6 552.375 1552.41 552.375 1549.72C552.375 1547.03 554.558 1544.85 557.25 1544.85L581.4 1544.85C584.092 1544.85 586.275 1547.03 586.275 1549.72Z" fill="black"/>
<path d="M542.444 1521C542.444 1525.14 539.086 1528.5 534.944 1528.5C530.802 1528.5 527.444 1525.14 527.444 1521C527.444 1516.86 530.802 1513.5 534.944 1513.5C539.086 1513.5 542.444 1516.86 542.444 1521Z" fill="black"/>
<path d="M534.944 1557.02C539.086 1557.02 542.444 1553.66 542.444 1549.52C542.444 1545.38 539.086 1542.02 534.944 1542.02C530.802 1542.02 527.444 1545.38 527.444 1549.52C527.444 1553.66 530.802 1557.02 534.944 1557.02Z" fill="black"/>
<path fill-rule="evenodd" clip-rule="evenodd" d="M623.925 1497.19C630.212 1497.19 630.212 1487.44 623.925 1487.44H613.5V1476.26C613.5 1463.81 603.45 1453.76 591 1453.76H523.5C511.05 1453.76 501 1463.81 501 1476.26V1566C501 1578.45 511.05 1588.5 523.5 1588.5H591C603.45 1588.5 613.5 1578.38 613.5 1566V1554.75H623.925C626.617 1554.75 628.8 1552.57 628.8 1549.88C628.8 1547.18 626.617 1545 623.925 1545H613.5V1497.19H623.925ZM591 1463.51C598.05 1463.51 603.75 1469.21 603.75 1476.26L603.75 1566C603.75 1573.05 598.05 1578.75 591 1578.75H523.5C516.45 1578.75 510.75 1573.05 510.75 1566L510.75 1476.26C510.75 1469.21 516.45 1463.51 523.5 1463.51L591 1463.51Z" fill="black"/>
</g>
</g>
</g>
<g id="Black-M">
<g id="Outline / Catalog Outline_10">
<g id="Shape_10">
<path d="M2914.42 1068.99C2914.42 1072.21 2911.81 1074.82 2908.59 1074.82C2905.36 1074.82 2902.75 1072.21 2902.75 1068.99C2902.75 1065.77 2905.36 1063.16 2908.59 1063.16C2911.81 1063.16 2914.42 1065.77 2914.42 1068.99Z" fill="black"/>
<path d="M2948.66 1068.99C2948.66 1071.09 2946.96 1072.78 2944.87 1072.78H2926.09C2923.99 1072.78 2922.29 1071.09 2922.29 1068.99C2922.29 1066.9 2923.99 1065.2 2926.09 1065.2H2944.87C2946.96 1065.2 2948.66 1066.9 2948.66 1068.99Z" fill="black"/>
<path d="M2948.72 1091C2948.72 1093.1 2947.03 1094.79 2944.93 1094.79H2926.15C2924.06 1094.79 2922.36 1093.1 2922.36 1091C2922.36 1088.91 2924.06 1087.21 2926.15 1087.21H2944.93C2947.03 1087.21 2948.72 1088.91 2948.72 1091Z" fill="black"/>
<path d="M2948.66 1113.34C2948.66 1115.43 2946.96 1117.13 2944.87 1117.13H2926.09C2923.99 1117.13 2922.29 1115.43 2922.29 1113.34C2922.29 1111.25 2923.99 1109.55 2926.09 1109.55L2944.87 1109.55C2946.96 1109.55 2948.66 1111.25 2948.66 1113.34Z" fill="black"/>
<path d="M2914.57 1091C2914.57 1094.22 2911.96 1096.83 2908.74 1096.83C2905.52 1096.83 2902.9 1094.22 2902.9 1091C2902.9 1087.78 2905.52 1085.17 2908.74 1085.17C2911.96 1085.17 2914.57 1087.78 2914.57 1091Z" fill="black"/>
<path d="M2908.74 1119.02C2911.96 1119.02 2914.57 1116.4 2914.57 1113.18C2914.57 1109.96 2911.96 1107.35 2908.74 1107.35C2905.52 1107.35 2902.9 1109.96 2902.9 1113.18C2902.9 1116.4 2905.52 1119.02 2908.74 1119.02Z" fill="black"/>
<path fill-rule="evenodd" clip-rule="evenodd" d="M2977.94 1072.48C2982.83 1072.48 2982.83 1064.9 2977.94 1064.9H2969.84V1056.21C2969.84 1046.52 2962.02 1038.71 2952.34 1038.71H2899.84C2890.15 1038.71 2882.34 1046.52 2882.34 1056.21V1126C2882.34 1135.68 2890.15 1143.5 2899.84 1143.5H2952.34C2962.02 1143.5 2969.84 1135.63 2969.84 1126V1117.25H2977.94C2980.04 1117.25 2981.74 1115.55 2981.74 1113.46C2981.74 1111.37 2980.04 1109.67 2977.94 1109.67H2969.84V1072.48H2977.94ZM2952.34 1046.29C2957.82 1046.29 2962.25 1050.72 2962.25 1056.21V1126C2962.25 1131.48 2957.82 1135.92 2952.34 1135.92H2899.84C2894.35 1135.92 2889.92 1131.48 2889.92 1126L2889.92 1056.21C2889.92 1050.72 2894.35 1046.29 2899.84 1046.29L2952.34 1046.29Z" fill="black"/>
</g>
</g>
</g>
<g id="Heavy-M">
<g id="Outline / Catalog Outline_11">
<g id="Shape_11">
<path d="M2618.42 1068.99C2618.42 1072.21 2615.81 1074.82 2612.59 1074.82C2609.36 1074.82 2606.75 1072.21 2606.75 1068.99C2606.75 1065.77 2609.36 1063.16 2612.59 1063.16C2615.81 1063.16 2618.42 1065.77 2618.42 1068.99Z" fill="black"/>
<path d="M2652.66 1068.99C2652.66 1071.09 2650.96 1072.78 2648.87 1072.78H2630.09C2627.99 1072.78 2626.29 1071.09 2626.29 1068.99C2626.29 1066.9 2627.99 1065.2 2630.09 1065.2H2648.87C2650.96 1065.2 2652.66 1066.9 2652.66 1068.99Z" fill="black"/>
<path d="M2652.72 1091C2652.72 1093.1 2651.03 1094.79 2648.93 1094.79H2630.15C2628.06 1094.79 2626.36 1093.1 2626.36 1091C2626.36 1088.91 2628.06 1087.21 2630.15 1087.21H2648.93C2651.03 1087.21 2652.72 1088.91 2652.72 1091Z" fill="black"/>
<path d="M2652.66 1113.34C2652.66 1115.43 2650.96 1117.13 2648.87 1117.13H2630.09C2627.99 1117.13 2626.29 1115.43 2626.29 1113.34C2626.29 1111.25 2627.99 1109.55 2630.09 1109.55L2648.87 1109.55C2650.96 1109.55 2652.66 1111.25 2652.66 1113.34Z" fill="black"/>
<path d="M2618.57 1091C2618.57 1094.22 2615.96 1096.83 2612.74 1096.83C2609.52 1096.83 2606.9 1094.22 2606.9 1091C2606.9 1087.78 2609.52 1085.17 2612.74 1085.17C2615.96 1085.17 2618.57 1087.78 2618.57 1091Z" fill="black"/>
<path d="M2612.74 1119.02C2615.96 1119.02 2618.57 1116.4 2618.57 1113.18C2618.57 1109.96 2615.96 1107.35 2612.74 1107.35C2609.52 1107.35 2606.9 1109.96 2606.9 1113.18C2606.9 1116.4 2609.52 1119.02 2612.74 1119.02Z" fill="black"/>
<path fill-rule="evenodd" clip-rule="evenodd" d="M2681.94 1072.48C2686.83 1072.48 2686.83 1064.9 2681.94 1064.9H2673.84V1056.21C2673.84 1046.52 2666.02 1038.71 2656.34 1038.71H2603.84C2594.15 1038.71 2586.34 1046.52 2586.34 1056.21V1126C2586.34 1135.68 2594.15 1143.5 2603.84 1143.5H2656.34C2666.02 1143.5 2673.84 1135.63 2673.84 1126V1117.25H2681.94C2684.04 1117.25 2685.74 1115.55 2685.74 1113.46C2685.74 1111.37 2684.04 1109.67 2681.94 1109.67H2673.84V1072.48H2681.94ZM2656.34 1046.29C2661.82 1046.29 2666.25 1050.72 2666.25 1056.21V1126C2666.25 1131.48 2661.82 1135.92 2656.34 1135.92H2603.84C2598.35 1135.92 2593.92 1131.48 2593.92 1126L2593.92 1056.21C2593.92 1050.72 2598.35 1046.29 2603.84 1046.29L2656.34 1046.29Z" fill="black"/>
</g>
</g>
</g>
<g id="Bold-M">
<g id="Outline / Catalog Outline_12">
<g id="Shape_12">
<path d="M2322.42 1068.99C2322.42 1072.21 2319.81 1074.82 2316.59 1074.82C2313.36 1074.82 2310.75 1072.21 2310.75 1068.99C2310.75 1065.77 2313.36 1063.16 2316.59 1063.16C2319.81 1063.16 2322.42 1065.77 2322.42 1068.99Z" fill="black"/>
<path d="M2356.66 1068.99C2356.66 1071.09 2354.96 1072.78 2352.87 1072.78H2334.09C2331.99 1072.78 2330.29 1071.09 2330.29 1068.99C2330.29 1066.9 2331.99 1065.2 2334.09 1065.2H2352.87C2354.96 1065.2 2356.66 1066.9 2356.66 1068.99Z" fill="black"/>
<path d="M2356.72 1091C2356.72 1093.1 2355.03 1094.79 2352.93 1094.79H2334.15C2332.06 1094.79 2330.36 1093.1 2330.36 1091C2330.36 1088.91 2332.06 1087.21 2334.15 1087.21H2352.93C2355.03 1087.21 2356.72 1088.91 2356.72 1091Z" fill="black"/>
<path d="M2356.66 1113.34C2356.66 1115.43 2354.96 1117.13 2352.87 1117.13H2334.09C2331.99 1117.13 2330.29 1115.43 2330.29 1113.34C2330.29 1111.25 2331.99 1109.55 2334.09 1109.55L2352.87 1109.55C2354.96 1109.55 2356.66 1111.25 2356.66 1113.34Z" fill="black"/>
<path d="M2322.57 1091C2322.57 1094.22 2319.96 1096.83 2316.74 1096.83C2313.52 1096.83 2310.9 1094.22 2310.9 1091C2310.9 1087.78 2313.52 1085.17 2316.74 1085.17C2319.96 1085.17 2322.57 1087.78 2322.57 1091Z" fill="black"/>
<path d="M2316.74 1119.02C2319.96 1119.02 2322.57 1116.4 2322.57 1113.18C2322.57 1109.96 2319.96 1107.35 2316.74 1107.35C2313.52 1107.35 2310.9 1109.96 2310.9 1113.18C2310.9 1116.4 2313.52 1119.02 2316.74 1119.02Z" fill="black"/>
<path fill-rule="evenodd" clip-rule="evenodd" d="M2385.94 1072.48C2390.83 1072.48 2390.83 1064.9 2385.94 1064.9H2377.84V1056.21C2377.84 1046.52 2370.02 1038.71 2360.34 1038.71H2307.84C2298.15 1038.71 2290.34 1046.52 2290.34 1056.21V1126C2290.34 1135.68 2298.15 1143.5 2307.84 1143.5H2360.34C2370.02 1143.5 2377.84 1135.63 2377.84 1126V1117.25H2385.94C2388.04 1117.25 2389.74 1115.55 2389.74 1113.46C2389.74 1111.37 2388.04 1109.67 2385.94 1109.67H2377.84V1072.48H2385.94ZM2360.34 1046.29C2365.82 1046.29 2370.25 1050.72 2370.25 1056.21V1126C2370.25 1131.48 2365.82 1135.92 2360.34 1135.92H2307.84C2302.35 1135.92 2297.92 1131.48 2297.92 1126L2297.92 1056.21C2297.92 1050.72 2302.35 1046.29 2307.84 1046.29L2360.34 1046.29Z" fill="black"/>
</g>
</g>
</g>
<g id="Semibold-M">
<g id="Outline / Catalog Outline_13">
<g id="Shape_13">
<path d="M2026.42 1068.99C2026.42 1072.21 2023.81 1074.82 2020.59 1074.82C2017.36 1074.82 2014.75 1072.21 2014.75 1068.99C2014.75 1065.77 2017.36 1063.16 2020.59 1063.16C2023.81 1063.16 2026.42 1065.77 2026.42 1068.99Z" fill="black"/>
<path d="M2060.66 1068.99C2060.66 1071.09 2058.96 1072.78 2056.87 1072.78H2038.09C2035.99 1072.78 2034.29 1071.09 2034.29 1068.99C2034.29 1066.9 2035.99 1065.2 2038.09 1065.2H2056.87C2058.96 1065.2 2060.66 1066.9 2060.66 1068.99Z" fill="black"/>
<path d="M2060.72 1091C2060.72 1093.1 2059.03 1094.79 2056.93 1094.79H2038.15C2036.06 1094.79 2034.36 1093.1 2034.36 1091C2034.36 1088.91 2036.06 1087.21 2038.15 1087.21H2056.93C2059.03 1087.21 2060.72 1088.91 2060.72 1091Z" fill="black"/>
<path d="M2060.66 1113.34C2060.66 1115.43 2058.96 1117.13 2056.87 1117.13H2038.09C2035.99 1117.13 2034.29 1115.43 2034.29 1113.34C2034.29 1111.25 2035.99 1109.55 2038.09 1109.55L2056.87 1109.55C2058.96 1109.55 2060.66 1111.25 2060.66 1113.34Z" fill="black"/>
<path d="M2026.57 1091C2026.57 1094.22 2023.96 1096.83 2020.74 1096.83C2017.52 1096.83 2014.9 1094.22 2014.9 1091C2014.9 1087.78 2017.52 1085.17 2020.74 1085.17C2023.96 1085.17 2026.57 1087.78 2026.57 1091Z" fill="black"/>
<path d="M2020.74 1119.02C2023.96 1119.02 2026.57 1116.4 2026.57 1113.18C2026.57 1109.96 2023.96 1107.35 2020.74 1107.35C2017.52 1107.35 2014.9 1109.96 2014.9 1113.18C2014.9 1116.4 2017.52 1119.02 2020.74 1119.02Z" fill="black"/>
<path fill-rule="evenodd" clip-rule="evenodd" d="M2089.94 1072.48C2094.83 1072.48 2094.83 1064.9 2089.94 1064.9H2081.84V1056.21C2081.84 1046.52 2074.02 1038.71 2064.34 1038.71H2011.84C2002.15 1038.71 1994.34 1046.52 1994.34 1056.21V1126C1994.34 1135.68 2002.15 1143.5 2011.84 1143.5H2064.34C2074.02 1143.5 2081.84 1135.63 2081.84 1126V1117.25H2089.94C2092.04 1117.25 2093.74 1115.55 2093.74 1113.46C2093.74 1111.37 2092.04 1109.67 2089.94 1109.67H2081.84V1072.48H2089.94ZM2064.34 1046.29C2069.82 1046.29 2074.25 1050.72 2074.25 1056.21V1126C2074.25 1131.48 2069.82 1135.92 2064.34 1135.92H2011.84C2006.35 1135.92 2001.92 1131.48 2001.92 1126L2001.92 1056.21C2001.92 1050.72 2006.35 1046.29 2011.84 1046.29L2064.34 1046.29Z" fill="black"/>
</g>
</g>
</g>
<g id="Medium-M">
<g id="Outline / Catalog Outline_14">
<g id="Shape_14">
<path d="M1730.42 1068.99C1730.42 1072.21 1727.81 1074.82 1724.59 1074.82C1721.36 1074.82 1718.75 1072.21 1718.75 1068.99C1718.75 1065.77 1721.36 1063.16 1724.59 1063.16C1727.81 1063.16 1730.42 1065.77 1730.42 1068.99Z" fill="black"/>
<path d="M1764.66 1068.99C1764.66 1071.09 1762.96 1072.78 1760.87 1072.78H1742.09C1739.99 1072.78 1738.29 1071.09 1738.29 1068.99C1738.29 1066.9 1739.99 1065.2 1742.09 1065.2H1760.87C1762.96 1065.2 1764.66 1066.9 1764.66 1068.99Z" fill="black"/>
<path d="M1764.72 1091C1764.72 1093.1 1763.03 1094.79 1760.93 1094.79H1742.15C1740.06 1094.79 1738.36 1093.1 1738.36 1091C1738.36 1088.91 1740.06 1087.21 1742.15 1087.21H1760.93C1763.03 1087.21 1764.72 1088.91 1764.72 1091Z" fill="black"/>
<path d="M1764.66 1113.34C1764.66 1115.43 1762.96 1117.13 1760.87 1117.13H1742.09C1739.99 1117.13 1738.29 1115.43 1738.29 1113.34C1738.29 1111.25 1739.99 1109.55 1742.09 1109.55L1760.87 1109.55C1762.96 1109.55 1764.66 1111.25 1764.66 1113.34Z" fill="black"/>
<path d="M1730.57 1091C1730.57 1094.22 1727.96 1096.83 1724.74 1096.83C1721.52 1096.83 1718.9 1094.22 1718.9 1091C1718.9 1087.78 1721.52 1085.17 1724.74 1085.17C1727.96 1085.17 1730.57 1087.78 1730.57 1091Z" fill="black"/>
<path d="M1724.74 1119.02C1727.96 1119.02 1730.57 1116.4 1730.57 1113.18C1730.57 1109.96 1727.96 1107.35 1724.74 1107.35C1721.52 1107.35 1718.9 1109.96 1718.9 1113.18C1718.9 1116.4 1721.52 1119.02 1724.74 1119.02Z" fill="black"/>
<path fill-rule="evenodd" clip-rule="evenodd" d="M1793.94 1072.48C1798.83 1072.48 1798.83 1064.9 1793.94 1064.9H1785.84V1056.21C1785.84 1046.52 1778.02 1038.71 1768.34 1038.71H1715.84C1706.15 1038.71 1698.34 1046.52 1698.34 1056.21V1126C1698.34 1135.68 1706.15 1143.5 1715.84 1143.5H1768.34C1778.02 1143.5 1785.84 1135.63 1785.84 1126V1117.25H1793.94C1796.04 1117.25 1797.74 1115.55 1797.74 1113.46C1797.74 1111.37 1796.04 1109.67 1793.94 1109.67H1785.84V1072.48H1793.94ZM1768.34 1046.29C1773.82 1046.29 1778.25 1050.72 1778.25 1056.21V1126C1778.25 1131.48 1773.82 1135.92 1768.34 1135.92H1715.84C1710.35 1135.92 1705.92 1131.48 1705.92 1126L1705.92 1056.21C1705.92 1050.72 1710.35 1046.29 1715.84 1046.29L1768.34 1046.29Z" fill="black"/>
</g>
</g>
</g>
<g id="Regular-M">
<g id="Outline / Catalog Outline_15">
<g id="Shape_15">
<path d="M1434.42 1068.99C1434.42 1072.21 1431.81 1074.82 1428.59 1074.82C1425.36 1074.82 1422.75 1072.21 1422.75 1068.99C1422.75 1065.77 1425.36 1063.16 1428.59 1063.16C1431.81 1063.16 1434.42 1065.77 1434.42 1068.99Z" fill="black"/>
<path d="M1468.66 1068.99C1468.66 1071.09 1466.96 1072.78 1464.87 1072.78H1446.09C1443.99 1072.78 1442.29 1071.09 1442.29 1068.99C1442.29 1066.9 1443.99 1065.2 1446.09 1065.2H1464.87C1466.96 1065.2 1468.66 1066.9 1468.66 1068.99Z" fill="black"/>
<path d="M1468.72 1091C1468.72 1093.1 1467.03 1094.79 1464.93 1094.79H1446.15C1444.06 1094.79 1442.36 1093.1 1442.36 1091C1442.36 1088.91 1444.06 1087.21 1446.15 1087.21H1464.93C1467.03 1087.21 1468.72 1088.91 1468.72 1091Z" fill="black"/>
<path d="M1468.66 1113.34C1468.66 1115.43 1466.96 1117.13 1464.87 1117.13H1446.09C1443.99 1117.13 1442.29 1115.43 1442.29 1113.34C1442.29 1111.25 1443.99 1109.55 1446.09 1109.55L1464.87 1109.55C1466.96 1109.55 1468.66 1111.25 1468.66 1113.34Z" fill="black"/>
<path d="M1434.57 1091C1434.57 1094.22 1431.96 1096.83 1428.74 1096.83C1425.52 1096.83 1422.9 1094.22 1422.9 1091C1422.9 1087.78 1425.52 1085.17 1428.74 1085.17C1431.96 1085.17 1434.57 1087.78 1434.57 1091Z" fill="black"/>
<path d="M1428.74 1119.02C1431.96 1119.02 1434.57 1116.4 1434.57 1113.18C1434.57 1109.96 1431.96 1107.35 1428.74 1107.35C1425.52 1107.35 1422.9 1109.96 1422.9 1113.18C1422.9 1116.4 1425.52 1119.02 1428.74 1119.02Z" fill="black"/>
<path fill-rule="evenodd" clip-rule="evenodd" d="M1497.94 1072.48C1502.83 1072.48 1502.83 1064.9 1497.94 1064.9H1489.84V1056.21C1489.84 1046.52 1482.02 1038.71 1472.34 1038.71H1419.84C1410.15 1038.71 1402.34 1046.52 1402.34 1056.21V1126C1402.34 1135.68 1410.15 1143.5 1419.84 1143.5H1472.34C1482.02 1143.5 1489.84 1135.63 1489.84 1126V1117.25H1497.94C1500.04 1117.25 1501.74 1115.55 1501.74 1113.46C1501.74 1111.37 1500.04 1109.67 1497.94 1109.67H1489.84V1072.48H1497.94ZM1472.34 1046.29C1477.82 1046.29 1482.25 1050.72 1482.25 1056.21V1126C1482.25 1131.48 1477.82 1135.92 1472.34 1135.92H1419.84C1414.35 1135.92 1409.92 1131.48 1409.92 1126L1409.92 1056.21C1409.92 1050.72 1414.35 1046.29 1419.84 1046.29L1472.34 1046.29Z" fill="black"/>
</g>
</g>
</g>
<g id="Light-M">
<g id="Outline / Catalog Outline_16">
<g id="Shape_16">
<path d="M1138.42 1068.99C1138.42 1072.21 1135.81 1074.82 1132.59 1074.82C1129.36 1074.82 1126.75 1072.21 1126.75 1068.99C1126.75 1065.77 1129.36 1063.16 1132.59 1063.16C1135.81 1063.16 1138.42 1065.77 1138.42 1068.99Z" fill="black"/>
<path d="M1172.66 1068.99C1172.66 1071.09 1170.96 1072.78 1168.87 1072.78H1150.09C1147.99 1072.78 1146.29 1071.09 1146.29 1068.99C1146.29 1066.9 1147.99 1065.2 1150.09 1065.2H1168.87C1170.96 1065.2 1172.66 1066.9 1172.66 1068.99Z" fill="black"/>
<path d="M1172.72 1091C1172.72 1093.1 1171.03 1094.79 1168.93 1094.79H1150.15C1148.06 1094.79 1146.36 1093.1 1146.36 1091C1146.36 1088.91 1148.06 1087.21 1150.15 1087.21H1168.93C1171.03 1087.21 1172.72 1088.91 1172.72 1091Z" fill="black"/>
<path d="M1172.66 1113.34C1172.66 1115.43 1170.96 1117.13 1168.87 1117.13H1150.09C1147.99 1117.13 1146.29 1115.43 1146.29 1113.34C1146.29 1111.25 1147.99 1109.55 1150.09 1109.55L1168.87 1109.55C1170.96 1109.55 1172.66 1111.25 1172.66 1113.34Z" fill="black"/>
<path d="M1138.57 1091C1138.57 1094.22 1135.96 1096.83 1132.74 1096.83C1129.52 1096.83 1126.9 1094.22 1126.9 1091C1126.9 1087.78 1129.52 1085.17 1132.74 1085.17C1135.96 1085.17 1138.57 1087.78 1138.57 1091Z" fill="black"/>
<path d="M1132.74 1119.02C1135.96 1119.02 1138.57 1116.4 1138.57 1113.18C1138.57 1109.96 1135.96 1107.35 1132.74 1107.35C1129.52 1107.35 1126.9 1109.96 1126.9 1113.18C1126.9 1116.4 1129.52 1119.02 1132.74 1119.02Z" fill="black"/>
<path fill-rule="evenodd" clip-rule="evenodd" d="M1201.94 1072.48C1206.83 1072.48 1206.83 1064.9 1201.94 1064.9H1193.84V1056.21C1193.84 1046.52 1186.02 1038.71 1176.34 1038.71H1123.84C1114.15 1038.71 1106.34 1046.52 1106.34 1056.21V1126C1106.34 1135.68 1114.15 1143.5 1123.84 1143.5H1176.34C1186.02 1143.5 1193.84 1135.63 1193.84 1126V1117.25H1201.94C1204.04 1117.25 1205.74 1115.55 1205.74 1113.46C1205.74 1111.37 1204.04 1109.67 1201.94 1109.67H1193.84V1072.48H1201.94ZM1176.34 1046.29C1181.82 1046.29 1186.25 1050.72 1186.25 1056.21V1126C1186.25 1131.48 1181.82 1135.92 1176.34 1135.92H1123.84C1118.35 1135.92 1113.92 1131.48 1113.92 1126L1113.92 1056.21C1113.92 1050.72 1118.35 1046.29 1123.84 1046.29L1176.34 1046.29Z" fill="black"/>
</g>
</g>
</g>
<g id="Thin-M">
<g id="Outline / Catalog Outline_17">
<g id="Shape_17">
<path d="M842.419 1068.99C842.419 1072.21 839.808 1074.82 836.586 1074.82C833.364 1074.82 830.753 1072.21 830.753 1068.99C830.753 1065.77 833.364 1063.16 836.586 1063.16C839.808 1063.16 842.419 1065.77 842.419 1068.99Z" fill="black"/>
<path d="M876.661 1068.99C876.661 1071.09 874.963 1072.78 872.869 1072.78H854.086C851.992 1072.78 850.294 1071.09 850.294 1068.99C850.294 1066.9 851.992 1065.2 854.086 1065.2H872.869C874.963 1065.2 876.661 1066.9 876.661 1068.99Z" fill="black"/>
<path d="M876.724 1091C876.724 1093.1 875.027 1094.79 872.933 1094.79H854.149C852.055 1094.79 850.358 1093.1 850.358 1091C850.358 1088.91 852.055 1087.21 854.149 1087.21H872.933C875.027 1087.21 876.724 1088.91 876.724 1091Z" fill="black"/>
<path d="M876.661 1113.34C876.661 1115.43 874.963 1117.13 872.869 1117.13H854.086C851.992 1117.13 850.294 1115.43 850.294 1113.34C850.294 1111.25 851.992 1109.55 854.086 1109.55L872.869 1109.55C874.963 1109.55 876.661 1111.25 876.661 1113.34Z" fill="black"/>
<path d="M842.57 1091C842.57 1094.22 839.958 1096.83 836.737 1096.83C833.515 1096.83 830.903 1094.22 830.903 1091C830.903 1087.78 833.515 1085.17 836.737 1085.17C839.958 1085.17 842.57 1087.78 842.57 1091Z" fill="black"/>
<path d="M836.737 1119.02C839.958 1119.02 842.57 1116.4 842.57 1113.18C842.57 1109.96 839.958 1107.35 836.737 1107.35C833.515 1107.35 830.903 1109.96 830.903 1113.18C830.903 1116.4 833.515 1119.02 836.737 1119.02Z" fill="black"/>
<path fill-rule="evenodd" clip-rule="evenodd" d="M905.944 1072.48C910.834 1072.48 910.834 1064.9 905.944 1064.9H897.836V1056.21C897.836 1046.52 890.019 1038.71 880.336 1038.71H827.836C818.153 1038.71 810.336 1046.52 810.336 1056.21V1126C810.336 1135.68 818.153 1143.5 827.836 1143.5H880.336C890.019 1143.5 897.836 1135.63 897.836 1126V1117.25H905.944C908.038 1117.25 909.736 1115.55 909.736 1113.46C909.736 1111.37 908.038 1109.67 905.944 1109.67H897.836V1072.48H905.944ZM880.336 1046.29C885.819 1046.29 890.253 1050.72 890.253 1056.21V1126C890.253 1131.48 885.819 1135.92 880.336 1135.92H827.836C822.353 1135.92 817.919 1131.48 817.919 1126L817.919 1056.21C817.919 1050.72 822.353 1046.29 827.836 1046.29L880.336 1046.29Z" fill="black"/>
</g>
</g>
</g>
<g id="Ultralight-M">
<g id="Outline / Catalog Outline_18">
<g id="Shape_18">
<path d="M546.419 1068.99C546.419 1072.21 543.808 1074.82 540.586 1074.82C537.364 1074.82 534.753 1072.21 534.753 1068.99C534.753 1065.77 537.364 1063.16 540.586 1063.16C543.808 1063.16 546.419 1065.77 546.419 1068.99Z" fill="black"/>
<path d="M580.661 1068.99C580.661 1071.09 578.963 1072.78 576.869 1072.78H558.086C555.992 1072.78 554.294 1071.09 554.294 1068.99C554.294 1066.9 555.992 1065.2 558.086 1065.2H576.869C578.963 1065.2 580.661 1066.9 580.661 1068.99Z" fill="black"/>
<path d="M580.724 1091C580.724 1093.1 579.027 1094.79 576.933 1094.79H558.149C556.055 1094.79 554.358 1093.1 554.358 1091C554.358 1088.91 556.055 1087.21 558.149 1087.21H576.933C579.027 1087.21 580.724 1088.91 580.724 1091Z" fill="black"/>
<path d="M580.661 1113.34C580.661 1115.43 578.963 1117.13 576.869 1117.13H558.086C555.992 1117.13 554.294 1115.43 554.294 1113.34C554.294 1111.25 555.992 1109.55 558.086 1109.55L576.869 1109.55C578.963 1109.55 580.661 1111.25 580.661 1113.34Z" fill="black"/>
<path d="M546.57 1091C546.57 1094.22 543.958 1096.83 540.737 1096.83C537.515 1096.83 534.903 1094.22 534.903 1091C534.903 1087.78 537.515 1085.17 540.737 1085.17C543.958 1085.17 546.57 1087.78 546.57 1091Z" fill="black"/>
<path d="M540.737 1119.02C543.958 1119.02 546.57 1116.4 546.57 1113.18C546.57 1109.96 543.958 1107.35 540.737 1107.35C537.515 1107.35 534.903 1109.96 534.903 1113.18C534.903 1116.4 537.515 1119.02 540.737 1119.02Z" fill="black"/>
<path fill-rule="evenodd" clip-rule="evenodd" d="M609.944 1072.48C614.834 1072.48 614.834 1064.9 609.944 1064.9H601.836V1056.21C601.836 1046.52 594.019 1038.71 584.336 1038.71H531.836C522.153 1038.71 514.336 1046.52 514.336 1056.21V1126C514.336 1135.68 522.153 1143.5 531.836 1143.5H584.336C594.019 1143.5 601.836 1135.63 601.836 1126V1117.25H609.944C612.038 1117.25 613.736 1115.55 613.736 1113.46C613.736 1111.37 612.038 1109.67 609.944 1109.67H601.836V1072.48H609.944ZM584.336 1046.29C589.819 1046.29 594.253 1050.72 594.253 1056.21V1126C594.253 1131.48 589.819 1135.92 584.336 1135.92H531.836C526.353 1135.92 521.919 1131.48 521.919 1126L521.919 1056.21C521.919 1050.72 526.353 1046.29 531.836 1046.29L584.336 1046.29Z" fill="black"/>
</g>
</g>
</g>
<g id="Black-S">
<g id="Outline / Catalog Outline_19">
<g id="Shape_19">
<path d="M2918.58 645.279C2918.58 647.58 2916.72 649.446 2914.41 649.446C2912.11 649.446 2910.25 647.58 2910.25 645.279C2910.25 642.978 2912.11 641.112 2914.41 641.112C2916.72 641.112 2918.58 642.978 2918.58 645.279Z" fill="black"/>
<path d="M2943.04 645.279C2943.04 646.775 2941.83 647.988 2940.33 647.988H2926.91C2925.42 647.988 2924.21 646.775 2924.21 645.279C2924.21 643.784 2925.42 642.571 2926.91 642.571H2940.33C2941.83 642.571 2943.04 643.784 2943.04 645.279Z" fill="black"/>
<path d="M2943.08 661.001C2943.08 662.497 2941.87 663.709 2940.38 663.709H2926.96C2925.46 663.709 2924.25 662.497 2924.25 661.001C2924.25 659.505 2925.46 658.292 2926.96 658.292H2940.38C2941.87 658.292 2943.08 659.505 2943.08 661.001Z" fill="black"/>
<path d="M2943.04 676.957C2943.04 678.452 2941.83 679.665 2940.33 679.665H2926.91C2925.42 679.665 2924.21 678.452 2924.21 676.957C2924.21 675.461 2925.42 674.248 2926.91 674.248L2940.33 674.248C2941.83 674.248 2943.04 675.461 2943.04 676.957Z" fill="black"/>
<path d="M2918.69 661.001C2918.69 663.302 2916.82 665.167 2914.52 665.167C2912.22 665.167 2910.36 663.302 2910.36 661.001C2910.36 658.7 2912.22 656.834 2914.52 656.834C2916.82 656.834 2918.69 658.7 2918.69 661.001Z" fill="black"/>
<path d="M2914.52 681.011C2916.82 681.011 2918.69 679.146 2918.69 676.845C2918.69 674.543 2916.82 672.678 2914.52 672.678C2912.22 672.678 2910.36 674.543 2910.36 676.845C2910.36 679.146 2912.22 681.011 2914.52 681.011Z" fill="black"/>
<path fill-rule="evenodd" clip-rule="evenodd" d="M2963.96 647.771C2967.45 647.771 2967.45 642.355 2963.96 642.355H2958.16V636.146C2958.16 629.23 2952.58 623.646 2945.66 623.646H2908.16C2901.25 623.646 2895.66 629.23 2895.66 636.146V686.001C2895.66 692.917 2901.25 698.501 2908.16 698.501H2945.66C2952.58 698.501 2958.16 692.876 2958.16 686.001V679.751H2963.96C2965.45 679.751 2966.66 678.538 2966.66 677.042C2966.66 675.547 2965.45 674.334 2963.96 674.334H2958.16V647.771H2963.96ZM2945.66 629.063C2949.58 629.063 2952.75 632.23 2952.75 636.146L2952.75 686.001C2952.75 689.917 2949.58 693.084 2945.66 693.084H2908.16C2904.25 693.084 2901.08 689.917 2901.08 686.001L2901.08 636.146C2901.08 632.23 2904.25 629.063 2908.16 629.063L2945.66 629.063Z" fill="black"/>
</g>
</g>
</g>
<g id="Heavy-S">
<g id="Outline / Catalog Outline_20">
<g id="Shape_20">
<path d="M2622.58 645.279C2622.58 647.58 2620.72 649.446 2618.41 649.446C2616.11 649.446 2614.25 647.58 2614.25 645.279C2614.25 642.978 2616.11 641.112 2618.41 641.112C2620.72 641.112 2622.58 642.978 2622.58 645.279Z" fill="black"/>
<path d="M2647.04 645.279C2647.04 646.775 2645.83 647.988 2644.33 647.988H2630.91C2629.42 647.988 2628.21 646.775 2628.21 645.279C2628.21 643.784 2629.42 642.571 2630.91 642.571H2644.33C2645.83 642.571 2647.04 643.784 2647.04 645.279Z" fill="black"/>
<path d="M2647.08 661.001C2647.08 662.497 2645.87 663.709 2644.38 663.709H2630.96C2629.46 663.709 2628.25 662.497 2628.25 661.001C2628.25 659.505 2629.46 658.292 2630.96 658.292H2644.38C2645.87 658.292 2647.08 659.505 2647.08 661.001Z" fill="black"/>
<path d="M2647.04 676.957C2647.04 678.452 2645.83 679.665 2644.33 679.665H2630.91C2629.42 679.665 2628.21 678.452 2628.21 676.957C2628.21 675.461 2629.42 674.248 2630.91 674.248L2644.33 674.248C2645.83 674.248 2647.04 675.461 2647.04 676.957Z" fill="black"/>
<path d="M2622.69 661.001C2622.69 663.302 2620.82 665.167 2618.52 665.167C2616.22 665.167 2614.36 663.302 2614.36 661.001C2614.36 658.7 2616.22 656.834 2618.52 656.834C2620.82 656.834 2622.69 658.7 2622.69 661.001Z" fill="black"/>
<path d="M2618.52 681.011C2620.82 681.011 2622.69 679.146 2622.69 676.845C2622.69 674.543 2620.82 672.678 2618.52 672.678C2616.22 672.678 2614.36 674.543 2614.36 676.845C2614.36 679.146 2616.22 681.011 2618.52 681.011Z" fill="black"/>
<path fill-rule="evenodd" clip-rule="evenodd" d="M2667.96 647.771C2671.45 647.771 2671.45 642.355 2667.96 642.355H2662.16V636.146C2662.16 629.23 2656.58 623.646 2649.66 623.646H2612.16C2605.25 623.646 2599.66 629.23 2599.66 636.146V686.001C2599.66 692.917 2605.25 698.501 2612.16 698.501H2649.66C2656.58 698.501 2662.16 692.876 2662.16 686.001V679.751H2667.96C2669.45 679.751 2670.66 678.538 2670.66 677.042C2670.66 675.547 2669.45 674.334 2667.96 674.334H2662.16V647.771H2667.96ZM2649.66 629.063C2653.58 629.063 2656.75 632.23 2656.75 636.146L2656.75 686.001C2656.75 689.917 2653.58 693.084 2649.66 693.084H2612.16C2608.25 693.084 2605.08 689.917 2605.08 686.001L2605.08 636.146C2605.08 632.23 2608.25 629.063 2612.16 629.063L2649.66 629.063Z" fill="black"/>
</g>
</g>
</g>
<g id="Bold-S">
<g id="Outline / Catalog Outline_21">
<g id="Shape_21">
<path d="M2326.58 645.279C2326.58 647.58 2324.72 649.446 2322.41 649.446C2320.11 649.446 2318.25 647.58 2318.25 645.279C2318.25 642.978 2320.11 641.112 2322.41 641.112C2324.72 641.112 2326.58 642.978 2326.58 645.279Z" fill="black"/>
<path d="M2351.04 645.279C2351.04 646.775 2349.83 647.988 2348.33 647.988H2334.91C2333.42 647.988 2332.21 646.775 2332.21 645.279C2332.21 643.784 2333.42 642.571 2334.91 642.571H2348.33C2349.83 642.571 2351.04 643.784 2351.04 645.279Z" fill="black"/>
<path d="M2351.08 661.001C2351.08 662.497 2349.87 663.709 2348.38 663.709H2334.96C2333.46 663.709 2332.25 662.497 2332.25 661.001C2332.25 659.505 2333.46 658.292 2334.96 658.292H2348.38C2349.87 658.292 2351.08 659.505 2351.08 661.001Z" fill="black"/>
<path d="M2351.04 676.957C2351.04 678.452 2349.83 679.665 2348.33 679.665H2334.91C2333.42 679.665 2332.21 678.452 2332.21 676.957C2332.21 675.461 2333.42 674.248 2334.91 674.248L2348.33 674.248C2349.83 674.248 2351.04 675.461 2351.04 676.957Z" fill="black"/>
<path d="M2326.69 661.001C2326.69 663.302 2324.82 665.167 2322.52 665.167C2320.22 665.167 2318.36 663.302 2318.36 661.001C2318.36 658.7 2320.22 656.834 2322.52 656.834C2324.82 656.834 2326.69 658.7 2326.69 661.001Z" fill="black"/>
<path d="M2322.52 681.011C2324.82 681.011 2326.69 679.146 2326.69 676.845C2326.69 674.543 2324.82 672.678 2322.52 672.678C2320.22 672.678 2318.36 674.543 2318.36 676.845C2318.36 679.146 2320.22 681.011 2322.52 681.011Z" fill="black"/>
<path fill-rule="evenodd" clip-rule="evenodd" d="M2371.96 647.771C2375.45 647.771 2375.45 642.355 2371.96 642.355H2366.16V636.146C2366.16 629.23 2360.58 623.646 2353.66 623.646H2316.16C2309.25 623.646 2303.66 629.23 2303.66 636.146V686.001C2303.66 692.917 2309.25 698.501 2316.16 698.501H2353.66C2360.58 698.501 2366.16 692.876 2366.16 686.001V679.751H2371.96C2373.45 679.751 2374.66 678.538 2374.66 677.042C2374.66 675.547 2373.45 674.334 2371.96 674.334H2366.16V647.771H2371.96ZM2353.66 629.063C2357.58 629.063 2360.75 632.23 2360.75 636.146L2360.75 686.001C2360.75 689.917 2357.58 693.084 2353.66 693.084H2316.16C2312.25 693.084 2309.08 689.917 2309.08 686.001L2309.08 636.146C2309.08 632.23 2312.25 629.063 2316.16 629.063L2353.66 629.063Z" fill="black"/>
</g>
</g>
</g>
<g id="Semibold-S">
<g id="Outline / Catalog Outline_22">
<g id="Shape_22">
<path d="M2030.58 645.279C2030.58 647.58 2028.72 649.446 2026.41 649.446C2024.11 649.446 2022.25 647.58 2022.25 645.279C2022.25 642.978 2024.11 641.112 2026.41 641.112C2028.72 641.112 2030.58 642.978 2030.58 645.279Z" fill="black"/>
<path d="M2055.04 645.279C2055.04 646.775 2053.83 647.988 2052.33 647.988H2038.91C2037.42 647.988 2036.21 646.775 2036.21 645.279C2036.21 643.784 2037.42 642.571 2038.91 642.571H2052.33C2053.83 642.571 2055.04 643.784 2055.04 645.279Z" fill="black"/>
<path d="M2055.08 661.001C2055.08 662.497 2053.87 663.709 2052.38 663.709H2038.96C2037.46 663.709 2036.25 662.497 2036.25 661.001C2036.25 659.505 2037.46 658.292 2038.96 658.292H2052.38C2053.87 658.292 2055.08 659.505 2055.08 661.001Z" fill="black"/>
<path d="M2055.04 676.957C2055.04 678.452 2053.83 679.665 2052.33 679.665H2038.91C2037.42 679.665 2036.21 678.452 2036.21 676.957C2036.21 675.461 2037.42 674.248 2038.91 674.248L2052.33 674.248C2053.83 674.248 2055.04 675.461 2055.04 676.957Z" fill="black"/>
<path d="M2030.69 661.001C2030.69 663.302 2028.82 665.167 2026.52 665.167C2024.22 665.167 2022.36 663.302 2022.36 661.001C2022.36 658.7 2024.22 656.834 2026.52 656.834C2028.82 656.834 2030.69 658.7 2030.69 661.001Z" fill="black"/>
<path d="M2026.52 681.011C2028.82 681.011 2030.69 679.146 2030.69 676.845C2030.69 674.543 2028.82 672.678 2026.52 672.678C2024.22 672.678 2022.36 674.543 2022.36 676.845C2022.36 679.146 2024.22 681.011 2026.52 681.011Z" fill="black"/>
<path fill-rule="evenodd" clip-rule="evenodd" d="M2075.96 647.771C2079.45 647.771 2079.45 642.355 2075.96 642.355H2070.16V636.146C2070.16 629.23 2064.58 623.646 2057.66 623.646H2020.16C2013.25 623.646 2007.66 629.23 2007.66 636.146V686.001C2007.66 692.917 2013.25 698.501 2020.16 698.501H2057.66C2064.58 698.501 2070.16 692.876 2070.16 686.001V679.751H2075.96C2077.45 679.751 2078.66 678.538 2078.66 677.042C2078.66 675.547 2077.45 674.334 2075.96 674.334H2070.16V647.771H2075.96ZM2057.66 629.063C2061.58 629.063 2064.75 632.23 2064.75 636.146L2064.75 686.001C2064.75 689.917 2061.58 693.084 2057.66 693.084H2020.16C2016.25 693.084 2013.08 689.917 2013.08 686.001L2013.08 636.146C2013.08 632.23 2016.25 629.063 2020.16 629.063L2057.66 629.063Z" fill="black"/>
</g>
</g>
</g>
<g id="Medium-S">
<g id="Outline / Catalog Outline_23">
<g id="Shape_23">
<path d="M1734.58 645.279C1734.58 647.58 1732.72 649.446 1730.41 649.446C1728.11 649.446 1726.25 647.58 1726.25 645.279C1726.25 642.978 1728.11 641.112 1730.41 641.112C1732.72 641.112 1734.58 642.978 1734.58 645.279Z" fill="black"/>
<path d="M1759.04 645.279C1759.04 646.775 1757.83 647.988 1756.33 647.988H1742.91C1741.42 647.988 1740.21 646.775 1740.21 645.279C1740.21 643.784 1741.42 642.571 1742.91 642.571H1756.33C1757.83 642.571 1759.04 643.784 1759.04 645.279Z" fill="black"/>
<path d="M1759.08 661.001C1759.08 662.497 1757.87 663.709 1756.38 663.709H1742.96C1741.46 663.709 1740.25 662.497 1740.25 661.001C1740.25 659.505 1741.46 658.292 1742.96 658.292H1756.38C1757.87 658.292 1759.08 659.505 1759.08 661.001Z" fill="black"/>
<path d="M1759.04 676.957C1759.04 678.452 1757.83 679.665 1756.33 679.665H1742.91C1741.42 679.665 1740.21 678.452 1740.21 676.957C1740.21 675.461 1741.42 674.248 1742.91 674.248L1756.33 674.248C1757.83 674.248 1759.04 675.461 1759.04 676.957Z" fill="black"/>
<path d="M1734.69 661.001C1734.69 663.302 1732.82 665.167 1730.52 665.167C1728.22 665.167 1726.36 663.302 1726.36 661.001C1726.36 658.7 1728.22 656.834 1730.52 656.834C1732.82 656.834 1734.69 658.7 1734.69 661.001Z" fill="black"/>
<path d="M1730.52 681.011C1732.82 681.011 1734.69 679.146 1734.69 676.845C1734.69 674.543 1732.82 672.678 1730.52 672.678C1728.22 672.678 1726.36 674.543 1726.36 676.845C1726.36 679.146 1728.22 681.011 1730.52 681.011Z" fill="black"/>
<path fill-rule="evenodd" clip-rule="evenodd" d="M1779.96 647.771C1783.45 647.771 1783.45 642.355 1779.96 642.355H1774.16V636.146C1774.16 629.23 1768.58 623.646 1761.66 623.646H1724.16C1717.25 623.646 1711.66 629.23 1711.66 636.146V686.001C1711.66 692.917 1717.25 698.501 1724.16 698.501H1761.66C1768.58 698.501 1774.16 692.876 1774.16 686.001V679.751H1779.96C1781.45 679.751 1782.66 678.538 1782.66 677.042C1782.66 675.547 1781.45 674.334 1779.96 674.334H1774.16V647.771H1779.96ZM1761.66 629.063C1765.58 629.063 1768.75 632.23 1768.75 636.146L1768.75 686.001C1768.75 689.917 1765.58 693.084 1761.66 693.084H1724.16C1720.25 693.084 1717.08 689.917 1717.08 686.001L1717.08 636.146C1717.08 632.23 1720.25 629.063 1724.16 629.063L1761.66 629.063Z" fill="black"/>
</g>
</g>
</g>
<g id="Regular-S">
<g id="Outline / Catalog Outline_24">
<g id="Shape_24">
<path d="M1438.58 645.279C1438.58 647.58 1436.72 649.446 1434.41 649.446C1432.11 649.446 1430.25 647.58 1430.25 645.279C1430.25 642.978 1432.11 641.112 1434.41 641.112C1436.72 641.112 1438.58 642.978 1438.58 645.279Z" fill="black"/>
<path d="M1463.04 645.279C1463.04 646.775 1461.83 647.988 1460.33 647.988H1446.91C1445.42 647.988 1444.21 646.775 1444.21 645.279C1444.21 643.784 1445.42 642.571 1446.91 642.571H1460.33C1461.83 642.571 1463.04 643.784 1463.04 645.279Z" fill="black"/>
<path d="M1463.08 661.001C1463.08 662.497 1461.87 663.709 1460.38 663.709H1446.96C1445.46 663.709 1444.25 662.497 1444.25 661.001C1444.25 659.505 1445.46 658.292 1446.96 658.292H1460.38C1461.87 658.292 1463.08 659.505 1463.08 661.001Z" fill="black"/>
<path d="M1463.04 676.957C1463.04 678.452 1461.83 679.665 1460.33 679.665H1446.91C1445.42 679.665 1444.21 678.452 1444.21 676.957C1444.21 675.461 1445.42 674.248 1446.91 674.248L1460.33 674.248C1461.83 674.248 1463.04 675.461 1463.04 676.957Z" fill="black"/>
<path d="M1438.69 661.001C1438.69 663.302 1436.82 665.167 1434.52 665.167C1432.22 665.167 1430.36 663.302 1430.36 661.001C1430.36 658.7 1432.22 656.834 1434.52 656.834C1436.82 656.834 1438.69 658.7 1438.69 661.001Z" fill="black"/>
<path d="M1434.52 681.011C1436.82 681.011 1438.69 679.146 1438.69 676.845C1438.69 674.543 1436.82 672.678 1434.52 672.678C1432.22 672.678 1430.36 674.543 1430.36 676.845C1430.36 679.146 1432.22 681.011 1434.52 681.011Z" fill="black"/>
<path fill-rule="evenodd" clip-rule="evenodd" d="M1483.96 647.771C1487.45 647.771 1487.45 642.355 1483.96 642.355H1478.16V636.146C1478.16 629.23 1472.58 623.646 1465.66 623.646H1428.16C1421.25 623.646 1415.66 629.23 1415.66 636.146V686.001C1415.66 692.917 1421.25 698.501 1428.16 698.501H1465.66C1472.58 698.501 1478.16 692.876 1478.16 686.001V679.751H1483.96C1485.45 679.751 1486.66 678.538 1486.66 677.042C1486.66 675.547 1485.45 674.334 1483.96 674.334H1478.16V647.771H1483.96ZM1465.66 629.063C1469.58 629.063 1472.75 632.23 1472.75 636.146L1472.75 686.001C1472.75 689.917 1469.58 693.084 1465.66 693.084H1428.16C1424.25 693.084 1421.08 689.917 1421.08 686.001L1421.08 636.146C1421.08 632.23 1424.25 629.063 1428.16 629.063L1465.66 629.063Z" fill="black"/>
</g>
</g>
</g>
<g id="Light-S">
<g id="Outline / Catalog Outline_25">
<g id="Shape_25">
<path d="M1142.58 645.279C1142.58 647.58 1140.72 649.446 1138.41 649.446C1136.11 649.446 1134.25 647.58 1134.25 645.279C1134.25 642.978 1136.11 641.112 1138.41 641.112C1140.72 641.112 1142.58 642.978 1142.58 645.279Z" fill="black"/>
<path d="M1167.04 645.279C1167.04 646.775 1165.83 647.988 1164.33 647.988H1150.91C1149.42 647.988 1148.21 646.775 1148.21 645.279C1148.21 643.784 1149.42 642.571 1150.91 642.571H1164.33C1165.83 642.571 1167.04 643.784 1167.04 645.279Z" fill="black"/>
<path d="M1167.08 661.001C1167.08 662.497 1165.87 663.709 1164.38 663.709H1150.96C1149.46 663.709 1148.25 662.497 1148.25 661.001C1148.25 659.505 1149.46 658.292 1150.96 658.292H1164.38C1165.87 658.292 1167.08 659.505 1167.08 661.001Z" fill="black"/>
<path d="M1167.04 676.957C1167.04 678.452 1165.83 679.665 1164.33 679.665H1150.91C1149.42 679.665 1148.21 678.452 1148.21 676.957C1148.21 675.461 1149.42 674.248 1150.91 674.248L1164.33 674.248C1165.83 674.248 1167.04 675.461 1167.04 676.957Z" fill="black"/>
<path d="M1142.69 661.001C1142.69 663.302 1140.82 665.167 1138.52 665.167C1136.22 665.167 1134.36 663.302 1134.36 661.001C1134.36 658.7 1136.22 656.834 1138.52 656.834C1140.82 656.834 1142.69 658.7 1142.69 661.001Z" fill="black"/>
<path d="M1138.52 681.011C1140.82 681.011 1142.69 679.146 1142.69 676.845C1142.69 674.543 1140.82 672.678 1138.52 672.678C1136.22 672.678 1134.36 674.543 1134.36 676.845C1134.36 679.146 1136.22 681.011 1138.52 681.011Z" fill="black"/>
<path fill-rule="evenodd" clip-rule="evenodd" d="M1187.96 647.771C1191.45 647.771 1191.45 642.355 1187.96 642.355H1182.16V636.146C1182.16 629.23 1176.58 623.646 1169.66 623.646H1132.16C1125.25 623.646 1119.66 629.23 1119.66 636.146V686.001C1119.66 692.917 1125.25 698.501 1132.16 698.501H1169.66C1176.58 698.501 1182.16 692.876 1182.16 686.001V679.751H1187.96C1189.45 679.751 1190.66 678.538 1190.66 677.042C1190.66 675.547 1189.45 674.334 1187.96 674.334H1182.16V647.771H1187.96ZM1169.66 629.063C1173.58 629.063 1176.75 632.23 1176.75 636.146L1176.75 686.001C1176.75 689.917 1173.58 693.084 1169.66 693.084H1132.16C1128.25 693.084 1125.08 689.917 1125.08 686.001L1125.08 636.146C1125.08 632.23 1128.25 629.063 1132.16 629.063L1169.66 629.063Z" fill="black"/>
</g>
</g>
</g>
<g id="Thin-S">
<g id="Outline / Catalog Outline_26">
<g id="Shape_26">
<path d="M846.581 645.279C846.581 647.58 844.715 649.446 842.414 649.446C840.113 649.446 838.247 647.58 838.247 645.279C838.247 642.978 840.113 641.112 842.414 641.112C844.715 641.112 846.581 642.978 846.581 645.279Z" fill="black"/>
<path d="M871.039 645.279C871.039 646.775 869.827 647.988 868.331 647.988H854.914C853.418 647.988 852.206 646.775 852.206 645.279C852.206 643.784 853.418 642.571 854.914 642.571H868.331C869.827 642.571 871.039 643.784 871.039 645.279Z" fill="black"/>
<path d="M871.084 661.001C871.084 662.497 869.872 663.709 868.376 663.709H854.959C853.464 663.709 852.251 662.497 852.251 661.001C852.251 659.505 853.464 658.292 854.959 658.292H868.376C869.872 658.292 871.084 659.505 871.084 661.001Z" fill="black"/>
<path d="M871.039 676.957C871.039 678.452 869.827 679.665 868.331 679.665H854.914C853.418 679.665 852.206 678.452 852.206 676.957C852.206 675.461 853.418 674.248 854.914 674.248L868.331 674.248C869.827 674.248 871.039 675.461 871.039 676.957Z" fill="black"/>
<path d="M846.688 661.001C846.688 663.302 844.823 665.167 842.522 665.167C840.221 665.167 838.355 663.302 838.355 661.001C838.355 658.7 840.221 656.834 842.522 656.834C844.823 656.834 846.688 658.7 846.688 661.001Z" fill="black"/>
<path d="M842.522 681.011C844.823 681.011 846.688 679.146 846.688 676.845C846.688 674.543 844.823 672.678 842.522 672.678C840.221 672.678 838.355 674.543 838.355 676.845C838.355 679.146 840.221 681.011 842.522 681.011Z" fill="black"/>
<path fill-rule="evenodd" clip-rule="evenodd" d="M891.956 647.771C895.449 647.771 895.449 642.355 891.956 642.355H886.164V636.146C886.164 629.23 880.581 623.646 873.664 623.646H836.164C829.247 623.646 823.664 629.23 823.664 636.146V686.001C823.664 692.917 829.247 698.501 836.164 698.501H873.664C880.581 698.501 886.164 692.876 886.164 686.001V679.751H891.956C893.452 679.751 894.664 678.538 894.664 677.042C894.664 675.547 893.452 674.334 891.956 674.334H886.164V647.771H891.956ZM873.664 629.063C877.581 629.063 880.747 632.23 880.747 636.146L880.747 686.001C880.747 689.917 877.581 693.084 873.664 693.084H836.164C832.247 693.084 829.081 689.917 829.081 686.001L829.081 636.146C829.081 632.23 832.247 629.063 836.164 629.063L873.664 629.063Z" fill="black"/>
</g>
</g>
</g>
<g id="Ultralight-S">
<g id="Outline / Catalog Outline_27">
<g id="Shape_27">
<path d="M550.581 645.279C550.581 647.58 548.715 649.446 546.414 649.446C544.113 649.446 542.247 647.58 542.247 645.279C542.247 642.978 544.113 641.112 546.414 641.112C548.715 641.112 550.581 642.978 550.581 645.279Z" fill="black"/>
<path d="M575.039 645.279C575.039 646.775 573.827 647.988 572.331 647.988H558.914C557.418 647.988 556.206 646.775 556.206 645.279C556.206 643.784 557.418 642.571 558.914 642.571H572.331C573.827 642.571 575.039 643.784 575.039 645.279Z" fill="black"/>
<path d="M575.084 661.001C575.084 662.497 573.872 663.709 572.376 663.709H558.959C557.464 663.709 556.251 662.497 556.251 661.001C556.251 659.505 557.464 658.292 558.959 658.292H572.376C573.872 658.292 575.084 659.505 575.084 661.001Z" fill="black"/>
<path d="M575.039 676.957C575.039 678.452 573.827 679.665 572.331 679.665H558.914C557.418 679.665 556.206 678.452 556.206 676.957C556.206 675.461 557.418 674.248 558.914 674.248L572.331 674.248C573.827 674.248 575.039 675.461 575.039 676.957Z" fill="black"/>
<path d="M550.688 661.001C550.688 663.302 548.823 665.167 546.522 665.167C544.221 665.167 542.355 663.302 542.355 661.001C542.355 658.7 544.221 656.834 546.522 656.834C548.823 656.834 550.688 658.7 550.688 661.001Z" fill="black"/>
<path d="M546.522 681.011C548.823 681.011 550.688 679.146 550.688 676.845C550.688 674.543 548.823 672.678 546.522 672.678C544.221 672.678 542.355 674.543 542.355 676.845C542.355 679.146 544.221 681.011 546.522 681.011Z" fill="black"/>
<path fill-rule="evenodd" clip-rule="evenodd" d="M595.956 647.771C599.449 647.771 599.449 642.355 595.956 642.355H590.164V636.146C590.164 629.23 584.581 623.646 577.664 623.646H540.164C533.247 623.646 527.664 629.23 527.664 636.146V686.001C527.664 692.917 533.247 698.501 540.164 698.501H577.664C584.581 698.501 590.164 692.876 590.164 686.001V679.751H595.956C597.452 679.751 598.664 678.538 598.664 677.042C598.664 675.547 597.452 674.334 595.956 674.334H590.164V647.771H595.956ZM577.664 629.063C581.581 629.063 584.747 632.23 584.747 636.146L584.747 686.001C584.747 689.917 581.581 693.084 577.664 693.084H540.164C536.247 693.084 533.081 689.917 533.081 686.001L533.081 636.146C533.081 632.23 536.247 629.063 540.164 629.063L577.664 629.063Z" fill="black"/>
</g>
</g>
</g>
</g>
</g>
<defs>
<clipPath id="clip0_0_1">
<rect width="3300" height="2200" fill="white"/>
</clipPath>
</defs>
</svg>
