<svg xmlns="http://www.w3.org/2000/svg" width="3300" height="2200" fill="none"><path fill="#E5E5E5" d="M0 0h3300v2200H0z"/><g id="Category / Solid / Chart" clip-path="url(#clip0_0_1)"><g id="Notes"><path id="artboard" fill="#fff" d="M3300 0H0v2200h3300V0Z"/><path id="Vector" stroke="#000" stroke-width=".5" d="M263 292h2773"/><text xml:space="preserve" id="Weight/Scale Variations" fill="#000" font-family="Roboto" font-size="12" letter-spacing="0em" style="white-space:pre"><tspan x="263" y="321.102">Weight/Scale Variations</tspan></text><text xml:space="preserve" id="Ultralight" fill="#000" font-family="Roboto" font-size="12" letter-spacing="0em" style="white-space:pre"><tspan x="535.211" y="321.102">Ultralight</tspan></text><text xml:space="preserve" id="Thin" fill="#000" font-family="Roboto" font-size="12" letter-spacing="0em" style="white-space:pre"><tspan x="844.422" y="321.102">Thin</tspan></text><text xml:space="preserve" id="Light" fill="#000" font-family="Roboto" font-size="12" letter-spacing="0em" style="white-space:pre"><tspan x="1139.63" y="321.102">Light</tspan></text><text xml:space="preserve" id="Regular" fill="#000" font-family="Roboto" font-size="12" letter-spacing="0em" style="white-space:pre"><tspan x="1429.34" y="321.102">Regular</tspan></text><text xml:space="preserve" id="Medium" fill="#000" font-family="Roboto" font-size="12" letter-spacing="0em" style="white-space:pre"><tspan x="1724.56" y="321.102">Medium</tspan></text><text xml:space="preserve" id="Semibold" fill="#000" font-family="Roboto" font-size="12" letter-spacing="0em" style="white-space:pre"><tspan x="2017.77" y="321.102">Semibold</tspan></text><text xml:space="preserve" id="Bold" fill="#000" font-family="Roboto" font-size="12" letter-spacing="0em" style="white-space:pre"><tspan x="2327.48" y="321.102">Bold</tspan></text><text xml:space="preserve" id="Heavy" fill="#000" font-family="Roboto" font-size="12" letter-spacing="0em" style="white-space:pre"><tspan x="2620.19" y="321.102">Heavy</tspan></text><text xml:space="preserve" id="Black" fill="#000" font-family="Roboto" font-size="12" letter-spacing="0em" style="white-space:pre"><tspan x="2918.4" y="321.102">Black</tspan></text><path id="Vector_2" stroke="#000" stroke-width=".5" d="M263 1903h2773"/><g id="Group"><path id="Vector_3" fill="#000" d="M272.248 1933.83c4.307 0 7.891-3.57 7.891-7.88 0-4.31-3.594-7.88-7.901-7.88-4.297 0-7.871 3.57-7.871 7.88 0 4.31 3.584 7.88 7.881 7.88Zm0-1.48c-3.545 0-6.377-2.84-6.377-6.4 0-3.55 2.822-6.4 6.367-6.4a6.388 6.388 0 0 1 6.406 6.4 6.361 6.361 0 0 1-6.396 6.4Zm-.019-2.78c.468 0 .742-.31.742-.83v-2.06h2.226c.498 0 .84-.25.84-.72 0-.48-.322-.74-.84-.74h-2.226v-2.23c0-.52-.274-.84-.742-.84-.469 0-.723.34-.723.84v2.23h-2.207c-.518 0-.85.26-.85.74 0 .47.352.72.85.72h2.207v2.06c0 .5.254.83.723.83Z"/></g><g id="Group_2"><path id="Vector_4" fill="#000" d="M293.215 1935.91c5.449 0 9.961-4.51 9.961-9.96 0-5.44-4.522-9.96-9.971-9.96-5.439 0-9.951 4.52-9.951 9.96 0 5.45 4.521 9.96 9.961 9.96Zm0-1.66a8.26 8.26 0 0 1-8.291-8.3c0-4.6 3.672-8.3 8.281-8.3a8.29 8.29 0 0 1 8.311 8.3 8.263 8.263 0 0 1-8.301 8.3Zm-.02-3.66c.518 0 .83-.36.83-.93v-2.89h3.057c.547 0 .928-.28.928-.8 0-.53-.362-.83-.928-.83h-3.057v-3.07c0-.57-.312-.93-.83-.93-.517 0-.81.38-.81.93v3.07h-3.047c-.567 0-.938.3-.938.83 0 .52.391.8.938.8h3.047v2.89c0 .55.293.93.81.93Z"/></g><g id="Group_3"><path id="Vector_5" fill="#000" d="M319.895 1938.67c6.962 0 12.724-5.75 12.724-12.71 0-6.97-5.771-12.72-12.734-12.72-6.953 0-12.705 5.75-12.705 12.72 0 6.96 5.761 12.71 12.715 12.71Zm0-1.81a10.874 10.874 0 0 1-10.889-10.9c0-6.04 4.844-10.9 10.879-10.9 6.045 0 10.898 4.86 10.908 10.9a10.87 10.87 0 0 1-10.898 10.9Zm-.02-4.93c.566 0 .918-.39.918-.99v-4.07h4.238c.586 0 1.006-.34 1.006-.89 0-.58-.39-.92-1.006-.92h-4.238v-4.25c0-.61-.352-1.01-.918-1.01-.566 0-.889.41-.889 1.01v4.25h-4.228c-.615 0-1.026.34-1.026.92 0 .55.43.89 1.026.89h4.228v4.07c0 .58.323.99.889.99Z"/></g><text xml:space="preserve" id="Design Variations" fill="#000" font-family="Roboto" font-size="12" letter-spacing="0em" style="white-space:pre"><tspan x="263" y="1952.1">Design Variations</tspan></text><text xml:space="preserve" id="Symbols are supported in up to nine weights and three scales." fill="#000" font-family="Roboto" font-size="12" letter-spacing="0em" style="white-space:pre"><tspan x="263" y="1970.1">Symbols are supported in up to nine weights and three scales.</tspan></text><text xml:space="preserve" id="For optimal layout with text and other symbols, vertically align" fill="#000" font-family="Roboto" font-size="12" letter-spacing="0em" style="white-space:pre"><tspan x="263" y="1988.1">For optimal layout with text and other symbols, vertically align</tspan></text><text xml:space="preserve" id="symbols with the adjacent text." fill="#000" font-family="Roboto" font-size="12" letter-spacing="0em" style="white-space:pre"><tspan x="263" y="2006.1">symbols with the adjacent text.</tspan></text><path id="Vector_6" fill="#00AEEF" d="M779 1919h-3v14h3v-14Z" opacity=".4"/><g id="Group_4"><path id="Vector_7" fill="#000" d="M789.527 1933h1.846l-5.195-14.09h-1.739l-5.195 14.09h1.846l1.416-4.04h5.605l1.416 4.04Zm-4.248-11.96h.059l2.256 6.43h-4.571l2.256-6.43Z"/></g><path id="Vector_8" fill="#00AEEF" d="M794.617 1919h-3v14h3v-14Z" opacity=".4"/><text xml:space="preserve" id="Margins" fill="#000" font-family="Roboto" font-size="12" letter-spacing="0em" style="white-space:pre"><tspan x="776" y="1952.1">Margins</tspan></text><text xml:space="preserve" id="Leading and trailing margins on the left and right side of each symbol" fill="#000" font-family="Roboto" font-size="12" letter-spacing="0em" style="white-space:pre"><tspan x="776" y="1970.1">Leading and trailing margins on the left and right side of each symbol</tspan></text><text xml:space="preserve" id="can be adjusted by modifying the width of the blue rectangles." fill="#000" font-family="Roboto" font-size="12" letter-spacing="0em" style="white-space:pre"><tspan x="776" y="1988.1">can be adjusted by modifying the width of the blue rectangles.</tspan></text><text xml:space="preserve" id="Modifications are automatically applied proportionally to all" fill="#000" font-family="Roboto" font-size="12" letter-spacing="0em" style="white-space:pre"><tspan x="776" y="2006.1">Modifications are automatically applied proportionally to all</tspan></text><text xml:space="preserve" id="scales and weights." fill="#000" font-family="Roboto" font-size="12" letter-spacing="0em" style="white-space:pre"><tspan x="776" y="2024.1">scales and weights.</tspan></text><g id="Group_5"><path id="Vector_9" fill="#000" d="m1291.83 1936.11 1.54 1.55c.85.83 1.82.76 2.69-.2l10.21-11.12c.43.29.83.28 1.29.18l1.05-.21.69.69-.05.52c-.06.53.1.95.6 1.45l.81.81c.51.5 1.16.53 1.64.05l3.25-3.25c.48-.48.46-1.13-.05-1.64l-.82-.82c-.49-.5-.91-.67-1.44-.59l-.53.05-.65-.66.28-1.14c.15-.57 0-1.04-.63-1.64l-2.41-2.39c-3.54-3.53-8.07-3.42-11.19-.29-.42.43-.47 1.02-.19 1.45.23.37.71.59 1.35.43 1.52-.38 3.03-.27 4.51.74l-.62 1.58c-.23.59-.22 1.07.02 1.5l-11.16 10.28c-.94.87-1.05 1.81-.19 2.67Zm7.84-18.26c2.67-1.99 5.98-1.68 8.38.73l2.63 2.61c.23.24.26.42.2.72l-.38 1.56 1.58 1.57.96-.09c.29-.03.37-.01.6.22l.62.62-2.75 2.75-.63-.62c-.22-.22-.24-.32-.21-.6l.09-.96-1.57-1.56-1.62.31c-.28.06-.43.06-.66-.19l-2.18-2.17c-.22-.24-.25-.38-.12-.7l.94-2.27c-1.6-1.54-3.71-2.39-5.75-1.73-.09.03-.16.01-.19-.03-.02-.05-.02-.1.06-.17Zm-6.57 17.56c-.49-.5-.31-.8.02-1.1l10.96-10.12 1.23 1.23-10.16 10.93c-.3.33-.68.43-1.08.03l-.97-.97Z"/></g><text xml:space="preserve" id="Exporting" fill="#000" font-family="Roboto" font-size="12" letter-spacing="0em" style="white-space:pre"><tspan x="1289" y="1952.1">Exporting</tspan></text><text xml:space="preserve" id="Symbols should be outlined when exporting to ensure the" fill="#000" font-family="Roboto" font-size="12" letter-spacing="0em" style="white-space:pre"><tspan x="1289" y="1970.1">Symbols should be outlined when exporting to ensure the</tspan></text><text xml:space="preserve" id="design is preserved when submitting to Xcode." fill="#000" font-family="Roboto" font-size="12" letter-spacing="0em" style="white-space:pre"><tspan x="1289" y="1988.1">design is preserved when submitting to Xcode.</tspan></text><text xml:space="preserve" id="template-version" fill="#000" font-family="Roboto" font-size="12" letter-spacing="0em" style="white-space:pre"><tspan x="2958" y="1932.1">Template v.1.0</tspan></text><text xml:space="preserve" id="Generated from pencil.circle" fill="#000" font-family="Roboto" font-size="12" letter-spacing="0em" style="white-space:pre"><tspan x="2885" y="1950.1">Generated from pencil.circle</tspan></text><text xml:space="preserve" id="Typeset at 100 points" fill="#000" font-family="Roboto" font-size="12" letter-spacing="0em" style="white-space:pre"><tspan x="2921" y="1968.1">Typeset at 100 points</tspan></text><text xml:space="preserve" id="Small" fill="#000" font-family="Roboto" font-size="12" letter-spacing="0em" style="white-space:pre"><tspan x="263" y="725.102">Small</tspan></text><text xml:space="preserve" id="Medium_2" fill="#000" font-family="Roboto" font-size="12" letter-spacing="0em" style="white-space:pre"><tspan x="263" y="1155.1">Medium</tspan></text><text xml:space="preserve" id="Large" fill="#000" font-family="Roboto" font-size="12" letter-spacing="0em" style="white-space:pre"><tspan x="263" y="1585.1">Large</tspan></text></g><g id="Guides"><g id="H-reference"><path id="Vector_10" fill="#27AAE1" d="M393.932 695.998h2.734l-27.1-70.459h-2.49l-27.099 70.459h2.685l9.278-24.463h32.763l9.229 24.463Zm-25.733-67.09h.244l15.381 40.381h-31.006l15.381-40.381Z"/></g><path id="Baseline-S" stroke="#27AAE1" stroke-width=".577" d="M263 696h2773"/><path id="Capline-S" stroke="#27AAE1" stroke-width=".577" d="M263 626h2773"/><g id="H-reference_2"><path id="Vector_11" fill="#27AAE1" d="M393.932 1126h2.734l-27.1-70.46h-2.49L339.977 1126h2.685l9.278-24.46h32.763l9.229 24.46Zm-25.733-67.09h.244l15.381 40.38h-31.006l15.381-40.38Z"/></g><path id="Baseline-M" stroke="#27AAE1" stroke-width=".577" d="M263 1126h2773"/><path id="Capline-M" stroke="#27AAE1" stroke-width=".577" d="M263 1056h2773"/><g id="H-reference_3"><path id="Vector_12" fill="#27AAE1" d="M393.932 1556h2.734l-27.1-70.46h-2.49L339.977 1556h2.685l9.278-24.46h32.763l9.229 24.46Zm-25.733-67.09h.244l15.381 40.38h-31.006l15.381-40.38Z"/></g><g id="Group 1" stroke="#27AAE1" stroke-width=".577"><path id="Baseline-L" d="M263 1556h2773"/><path id="Capline-L" d="M263 1486h2773"/></g><path id="left-margin" fill="#00AEEF" d="M1398.04 1030.79h-8.74v119.33h8.74v-119.33Z" opacity=".4"/><path id="right-margin" fill="#00AEEF" d="M1509.39 1030.79h-8.74v119.33h8.74v-119.33Z" opacity=".4"/></g><g id="Symbols"><g id="Black-L"><g id="Solid / Chart Solid"><g id="Shape" fill="#000"><path d="M2982.08 1473.62c0 8.29-6.71 15-15 15-2.52 0-4.89-.62-6.98-1.72l-17.15 15.9c.68 1.7 1.05 3.57 1.05 5.51 0 8.29-6.72 15-15 15-8.29 0-15-6.71-15-15 0-.49.02-.97.07-1.44l-13.16-7.06a14.958 14.958 0 0 1-10 3.81c-8.28 0-15-6.71-15-15 0-8.28 6.72-15 15-15 8.29 0 15 6.72 15 15 0 .92-.08 1.81-.24 2.68l12.45 6.68c2.74-2.88 6.6-4.67 10.88-4.67 2.78 0 5.38.76 7.61 2.07l16.8-15.57a15.04 15.04 0 0 1-1.33-6.19c0-8.28 6.72-15 15-15 8.29 0 15 6.72 15 15Z"/><path d="M2979.48 1511.13v60.04h10.02c2.69 0 4.87 2.18 4.87 4.88a4.87 4.87 0 0 1-4.87 4.87H2868.5c-2.69 0-4.88-2.18-4.88-4.87 0-2.7 2.19-4.88 4.88-4.88h10.01v-45.04c0-6.84 5.54-12.38 12.37-12.38 6.84 0 12.38 5.54 12.38 12.38v45.04h13.36v-25.82c0-6.84 5.54-12.38 12.38-12.38 6.83 0 12.38 5.54 12.38 12.38v25.82h13.35v-60.04c0-6.84 5.54-12.38 12.37-12.38 6.84 0 12.38 5.54 12.38 12.38Z"/></g></g></g><g id="Heavy-L"><g id="Solid / Chart Solid_2"><g id="Shape_2" fill="#000"><path d="M2686.08 1473.62c0 8.29-6.71 15-15 15-2.52 0-4.89-.62-6.98-1.72l-17.15 15.9c.68 1.7 1.05 3.57 1.05 5.51 0 8.29-6.72 15-15 15-8.29 0-15-6.71-15-15 0-.49.02-.97.07-1.44l-13.16-7.06a14.958 14.958 0 0 1-10 3.81c-8.28 0-15-6.71-15-15 0-8.28 6.72-15 15-15 8.29 0 15 6.72 15 15 0 .92-.08 1.81-.24 2.68l12.45 6.68c2.74-2.88 6.6-4.67 10.88-4.67 2.78 0 5.38.76 7.61 2.07l16.8-15.57a15.04 15.04 0 0 1-1.33-6.19c0-8.28 6.72-15 15-15 8.29 0 15 6.72 15 15Z"/><path d="M2683.48 1511.13v60.04h10.02c2.69 0 4.87 2.18 4.87 4.88a4.87 4.87 0 0 1-4.87 4.87H2572.5c-2.69 0-4.88-2.18-4.88-4.87 0-2.7 2.19-4.88 4.88-4.88h10.01v-45.04c0-6.84 5.54-12.38 12.37-12.38 6.84 0 12.38 5.54 12.38 12.38v45.04h13.36v-25.82c0-6.84 5.54-12.38 12.38-12.38 6.83 0 12.38 5.54 12.38 12.38v25.82h13.35v-60.04c0-6.84 5.54-12.38 12.37-12.38 6.84 0 12.38 5.54 12.38 12.38Z"/></g></g></g><g id="Bold-L"><g id="Solid / Chart Solid_3"><g id="Shape_3" fill="#000"><path d="M2390.08 1473.62c0 8.29-6.71 15-15 15-2.52 0-4.9-.62-6.98-1.72l-17.15 15.9c.68 1.7 1.05 3.57 1.05 5.51 0 8.29-6.72 15-15 15-8.29 0-15-6.71-15-15 0-.49.02-.97.07-1.44l-13.16-7.06a14.958 14.958 0 0 1-10 3.81c-8.28 0-15-6.71-15-15 0-8.28 6.72-15 15-15 8.29 0 15 6.72 15 15 0 .92-.08 1.81-.24 2.68l12.45 6.68c2.74-2.88 6.6-4.67 10.88-4.67 2.77 0 5.38.76 7.61 2.07l16.8-15.57a15.04 15.04 0 0 1-1.33-6.19c0-8.28 6.72-15 15-15 8.29 0 15 6.72 15 15Z"/><path d="M2387.48 1511.13v60.04h10.02c2.69 0 4.87 2.18 4.87 4.88a4.87 4.87 0 0 1-4.87 4.87H2276.5c-2.69 0-4.88-2.18-4.88-4.87 0-2.7 2.19-4.88 4.88-4.88h10.01v-45.04c0-6.84 5.54-12.38 12.37-12.38 6.84 0 12.38 5.54 12.38 12.38v45.04h13.36v-25.82c0-6.84 5.54-12.38 12.38-12.38 6.83 0 12.38 5.54 12.38 12.38v25.82h13.35v-60.04c0-6.84 5.54-12.38 12.37-12.38 6.84 0 12.38 5.54 12.38 12.38Z"/></g></g></g><g id="Semibold-L"><g id="Solid / Chart Solid_4"><g id="Shape_4" fill="#000"><path d="M2094.08 1473.62c0 8.29-6.71 15-15 15-2.52 0-4.9-.62-6.98-1.72l-17.15 15.9c.68 1.7 1.05 3.57 1.05 5.51 0 8.29-6.72 15-15 15-8.29 0-15-6.71-15-15 0-.49.02-.97.07-1.44l-13.16-7.06a14.958 14.958 0 0 1-10 3.81c-8.28 0-15-6.71-15-15 0-8.28 6.72-15 15-15 8.29 0 15 6.72 15 15 0 .92-.08 1.81-.24 2.68l12.45 6.68c2.74-2.88 6.6-4.67 10.88-4.67 2.77 0 5.38.76 7.61 2.07l16.8-15.57a15.04 15.04 0 0 1-1.33-6.19c0-8.28 6.72-15 15-15 8.29 0 15 6.72 15 15Z"/><path d="M2091.48 1511.13v60.04h10.02c2.69 0 4.87 2.18 4.87 4.88a4.87 4.87 0 0 1-4.87 4.87H1980.5c-2.69 0-4.88-2.18-4.88-4.87 0-2.7 2.19-4.88 4.88-4.88h10.01v-45.04c0-6.84 5.54-12.38 12.37-12.38 6.84 0 12.38 5.54 12.38 12.38v45.04h13.36v-25.82c0-6.84 5.54-12.38 12.38-12.38 6.83 0 12.38 5.54 12.38 12.38v25.82h13.35v-60.04c0-6.84 5.54-12.38 12.37-12.38 6.84 0 12.38 5.54 12.38 12.38Z"/></g></g></g><g id="Medium-L"><g id="Solid / Chart Solid_5"><g id="Shape_5" fill="#000"><path d="M1798.08 1473.62c0 8.29-6.71 15-15 15-2.52 0-4.9-.62-6.98-1.72l-17.15 15.9c.68 1.7 1.05 3.57 1.05 5.51 0 8.29-6.72 15-15 15-8.29 0-15-6.71-15-15 0-.49.02-.97.07-1.44l-13.16-7.06a14.958 14.958 0 0 1-10 3.81c-8.28 0-15-6.71-15-15 0-8.28 6.72-15 15-15 8.29 0 15 6.72 15 15 0 .92-.08 1.81-.24 2.68l12.45 6.68c2.74-2.88 6.6-4.67 10.88-4.67 2.77 0 5.38.76 7.61 2.07l16.8-15.57a15.04 15.04 0 0 1-1.33-6.19c0-8.28 6.72-15 15-15 8.29 0 15 6.72 15 15Z"/><path d="M1795.48 1511.13v60.04h10.02c2.69 0 4.87 2.18 4.87 4.88a4.87 4.87 0 0 1-4.87 4.87H1684.5c-2.69 0-4.88-2.18-4.88-4.87 0-2.7 2.19-4.88 4.88-4.88h10.01v-45.04c0-6.84 5.54-12.38 12.37-12.38 6.84 0 12.38 5.54 12.38 12.38v45.04h13.36v-25.82c0-6.84 5.54-12.38 12.38-12.38 6.83 0 12.38 5.54 12.38 12.38v25.82h13.35v-60.04c0-6.84 5.54-12.38 12.37-12.38 6.84 0 12.38 5.54 12.38 12.38Z"/></g></g></g><g id="Regular-L"><g id="Solid / Chart Solid_6"><g id="Shape_6" fill="#000"><path d="M1502.08 1473.62c0 8.29-6.71 15-15 15-2.52 0-4.9-.62-6.98-1.72l-17.15 15.9c.68 1.7 1.05 3.57 1.05 5.51 0 8.29-6.72 15-15 15-8.29 0-15-6.71-15-15 0-.49.02-.97.07-1.44l-13.16-7.06a14.958 14.958 0 0 1-10 3.81c-8.28 0-15-6.71-15-15 0-8.28 6.72-15 15-15 8.29 0 15 6.72 15 15 0 .92-.08 1.81-.24 2.68l12.45 6.68c2.74-2.88 6.6-4.67 10.88-4.67 2.77 0 5.38.76 7.61 2.07l16.8-15.57a15.04 15.04 0 0 1-1.33-6.19c0-8.28 6.72-15 15-15 8.29 0 15 6.72 15 15Z"/><path d="M1499.48 1511.13v60.04h10.02c2.69 0 4.87 2.18 4.87 4.88a4.87 4.87 0 0 1-4.87 4.87H1388.5c-2.69 0-4.88-2.18-4.88-4.87 0-2.7 2.19-4.88 4.88-4.88h10.01v-45.04c0-6.84 5.54-12.38 12.37-12.38 6.84 0 12.38 5.54 12.38 12.38v45.04h13.36v-25.82c0-6.84 5.54-12.38 12.38-12.38 6.83 0 12.38 5.54 12.38 12.38v25.82h13.35v-60.04c0-6.84 5.54-12.38 12.37-12.38 6.84 0 12.38 5.54 12.38 12.38Z"/></g></g></g><g id="Light-L"><g id="Solid / Chart Solid_7"><g id="Shape_7" fill="#000"><path d="M1206.08 1473.62c0 8.29-6.71 15-15 15-2.52 0-4.9-.62-6.98-1.72l-17.15 15.9c.68 1.7 1.05 3.57 1.05 5.51 0 8.29-6.72 15-15 15-8.29 0-15-6.71-15-15 0-.49.02-.97.07-1.44l-13.16-7.06a14.958 14.958 0 0 1-10 3.81c-8.28 0-15-6.71-15-15 0-8.28 6.72-15 15-15 8.29 0 15 6.72 15 15 0 .92-.08 1.81-.24 2.68l12.45 6.68c2.74-2.88 6.6-4.67 10.88-4.67 2.77 0 5.38.76 7.61 2.07l16.8-15.57a15.04 15.04 0 0 1-1.33-6.19c0-8.28 6.72-15 15-15 8.29 0 15 6.72 15 15Z"/><path d="M1203.48 1511.13v60.04h10.02c2.69 0 4.87 2.18 4.87 4.88a4.87 4.87 0 0 1-4.87 4.87H1092.5c-2.69 0-4.88-2.18-4.88-4.87 0-2.7 2.19-4.88 4.88-4.88h10.01v-45.04c0-6.84 5.54-12.38 12.37-12.38 6.84 0 12.38 5.54 12.38 12.38v45.04h13.36v-25.82c0-6.84 5.54-12.38 12.38-12.38 6.83 0 12.38 5.54 12.38 12.38v25.82h13.35v-60.04c0-6.84 5.54-12.38 12.37-12.38 6.84 0 12.38 5.54 12.38 12.38Z"/></g></g></g><g id="Thin-L"><g id="Solid / Chart Solid_8"><g id="Shape_8" fill="#000"><path d="M910.082 1473.62c0 8.29-6.716 15-15 15-2.521 0-4.897-.62-6.983-1.72l-17.148 15.9a14.94 14.94 0 0 1 1.046 5.51c0 8.29-6.716 15-15 15-8.284 0-15-6.71-15-15 0-.49.023-.97.069-1.44l-13.157-7.06a14.957 14.957 0 0 1-9.998 3.81c-8.284 0-15-6.71-15-15 0-8.28 6.716-15 15-15 8.284 0 15 6.72 15 15 0 .92-.081 1.81-.238 2.68l12.451 6.68a14.939 14.939 0 0 1 10.873-4.67c2.778 0 5.379.76 7.61 2.07l16.805-15.57a14.976 14.976 0 0 1-1.33-6.19c0-8.28 6.716-15 15-15 8.284 0 15 6.72 15 15Z"/><path d="M907.476 1511.13v60.04h10.019a4.874 4.874 0 0 1 4.875 4.88c0 2.69-2.182 4.87-4.875 4.87H796.499a4.873 4.873 0 0 1-4.875-4.87c0-2.7 2.183-4.88 4.875-4.88h10.009v-45.04c0-6.84 5.54-12.38 12.375-12.38 6.834 0 12.375 5.54 12.375 12.38v45.04h13.36v-25.82c0-6.84 5.542-12.38 12.379-12.38s12.379 5.54 12.379 12.38v25.82h13.35v-60.04c0-6.84 5.541-12.38 12.375-12.38 6.835 0 12.375 5.54 12.375 12.38Z"/></g></g></g><g id="Ultralight-L"><g id="Solid / Chart Solid_9"><g id="Shape_9" fill="#000"><path d="M614.082 1473.62c0 8.29-6.716 15-15 15-2.521 0-4.897-.62-6.983-1.72l-17.148 15.9a14.94 14.94 0 0 1 1.046 5.51c0 8.29-6.716 15-15 15-8.284 0-15-6.71-15-15 0-.49.023-.97.069-1.44l-13.157-7.06a14.957 14.957 0 0 1-9.998 3.81c-8.284 0-15-6.71-15-15 0-8.28 6.716-15 15-15 8.284 0 15 6.72 15 15 0 .92-.081 1.81-.238 2.68l12.451 6.68a14.939 14.939 0 0 1 10.873-4.67c2.778 0 5.379.76 7.61 2.07l16.805-15.57a14.976 14.976 0 0 1-1.33-6.19c0-8.28 6.716-15 15-15 8.284 0 15 6.72 15 15Z"/><path d="M611.476 1511.13v60.04h10.019a4.874 4.874 0 0 1 4.875 4.88c0 2.69-2.182 4.87-4.875 4.87H500.499a4.873 4.873 0 0 1-4.875-4.87c0-2.7 2.183-4.88 4.875-4.88h10.009v-45.04c0-6.84 5.54-12.38 12.375-12.38 6.834 0 12.375 5.54 12.375 12.38v45.04h13.36v-25.82c0-6.84 5.542-12.38 12.379-12.38s12.379 5.54 12.379 12.38v25.82h13.35v-60.04c0-6.84 5.541-12.38 12.375-12.38 6.835 0 12.375 5.54 12.375 12.38Z"/></g></g></g><g id="Black-M"><g id="Solid / Chart Solid_10"><g id="Shape_10" fill="#000"><path d="M2970.29 1054.15c0 6.45-5.23 11.67-11.67 11.67-1.96 0-3.81-.48-5.43-1.34l-13.34 12.36c.53 1.33.81 2.78.81 4.29 0 6.45-5.22 11.67-11.66 11.67-6.45 0-11.67-5.22-11.67-11.67 0-.38.02-.75.05-1.12l-10.23-5.49a11.597 11.597 0 0 1-7.77 2.97c-6.45 0-11.67-5.23-11.67-11.67 0-6.44 5.22-11.67 11.67-11.67 6.44 0 11.66 5.23 11.66 11.67 0 .71-.06 1.41-.18 2.08l9.68 5.2a11.63 11.63 0 0 1 8.46-3.63c2.16 0 4.18.58 5.92 1.61l13.07-12.12c-.67-1.46-1.04-3.09-1.04-4.81 0-6.44 5.23-11.66 11.67-11.66 6.44 0 11.67 5.22 11.67 11.66Z"/><path d="M2968.26 1083.32v46.7h7.79c2.1 0 3.79 1.7 3.79 3.8 0 2.09-1.69 3.79-3.79 3.79h-94.11a3.796 3.796 0 0 1 0-7.59h7.79v-35.03c0-5.32 4.31-9.63 9.62-9.63 5.32 0 9.63 4.31 9.63 9.63v35.03h10.39v-20.08c0-5.32 4.31-9.63 9.63-9.63 5.32 0 9.63 4.31 9.63 9.63v20.08h10.38v-46.7c0-5.31 4.31-9.62 9.62-9.62 5.32 0 9.63 4.31 9.63 9.62Z"/></g></g></g><g id="Heavy-M"><g id="Solid / Chart Solid_11"><g id="Shape_11" fill="#000"><path d="M2674.29 1054.15c0 6.45-5.23 11.67-11.67 11.67-1.96 0-3.81-.48-5.43-1.34l-13.34 12.36c.53 1.33.81 2.78.81 4.29 0 6.45-5.22 11.67-11.66 11.67-6.45 0-11.67-5.22-11.67-11.67 0-.38.02-.75.05-1.12l-10.23-5.49a11.597 11.597 0 0 1-7.77 2.97c-6.45 0-11.67-5.23-11.67-11.67 0-6.44 5.22-11.67 11.67-11.67 6.44 0 11.66 5.23 11.66 11.67 0 .71-.06 1.41-.18 2.08l9.68 5.2a11.63 11.63 0 0 1 8.46-3.63c2.16 0 4.18.58 5.92 1.61l13.07-12.12c-.67-1.46-1.04-3.09-1.04-4.81 0-6.44 5.23-11.66 11.67-11.66 6.44 0 11.67 5.22 11.67 11.66Z"/><path d="M2672.26 1083.32v46.7h7.79c2.1 0 3.79 1.7 3.79 3.8 0 2.09-1.69 3.79-3.79 3.79h-94.11a3.796 3.796 0 0 1 0-7.59h7.79v-35.03c0-5.32 4.31-9.63 9.62-9.63 5.32 0 9.63 4.31 9.63 9.63v35.03h10.39v-20.08c0-5.32 4.31-9.63 9.63-9.63 5.32 0 9.63 4.31 9.63 9.63v20.08h10.38v-46.7c0-5.31 4.31-9.62 9.62-9.62 5.32 0 9.63 4.31 9.63 9.62Z"/></g></g></g><g id="Bold-M"><g id="Solid / Chart Solid_12"><g id="Shape_12" fill="#000"><path d="M2378.29 1054.15c0 6.45-5.23 11.67-11.67 11.67-1.96 0-3.81-.48-5.43-1.34l-13.34 12.36c.53 1.33.81 2.78.81 4.29 0 6.45-5.22 11.67-11.66 11.67-6.45 0-11.67-5.22-11.67-11.67 0-.38.02-.75.05-1.12l-10.23-5.49a11.597 11.597 0 0 1-7.77 2.97c-6.45 0-11.67-5.23-11.67-11.67 0-6.44 5.22-11.67 11.67-11.67 6.44 0 11.66 5.23 11.66 11.67 0 .71-.06 1.41-.18 2.08l9.68 5.2a11.63 11.63 0 0 1 8.46-3.63c2.16 0 4.18.58 5.92 1.61l13.07-12.12c-.67-1.46-1.04-3.09-1.04-4.81 0-6.44 5.23-11.66 11.67-11.66 6.44 0 11.67 5.22 11.67 11.66Z"/><path d="M2376.26 1083.32v46.7h7.79c2.1 0 3.79 1.7 3.79 3.8 0 2.09-1.69 3.79-3.79 3.79h-94.11a3.796 3.796 0 0 1 0-7.59h7.79v-35.03c0-5.32 4.31-9.63 9.62-9.63 5.32 0 9.63 4.31 9.63 9.63v35.03h10.39v-20.08c0-5.32 4.31-9.63 9.63-9.63 5.32 0 9.63 4.31 9.63 9.63v20.08h10.38v-46.7c0-5.31 4.31-9.62 9.62-9.62 5.32 0 9.63 4.31 9.63 9.62Z"/></g></g></g><g id="Semibold-M"><g id="Solid / Chart Solid_13"><g id="Shape_13" fill="#000"><path d="M2082.29 1054.15c0 6.45-5.23 11.67-11.67 11.67-1.96 0-3.81-.48-5.43-1.34l-13.34 12.36c.53 1.33.81 2.78.81 4.29 0 6.45-5.22 11.67-11.66 11.67-6.45 0-11.67-5.22-11.67-11.67 0-.38.02-.75.05-1.12l-10.23-5.49a11.597 11.597 0 0 1-7.77 2.97c-6.45 0-11.67-5.23-11.67-11.67 0-6.44 5.22-11.67 11.67-11.67 6.44 0 11.66 5.23 11.66 11.67 0 .71-.06 1.41-.18 2.08l9.68 5.2a11.63 11.63 0 0 1 8.46-3.63c2.16 0 4.18.58 5.92 1.61l13.07-12.12c-.67-1.46-1.04-3.09-1.04-4.81 0-6.44 5.23-11.66 11.67-11.66 6.44 0 11.67 5.22 11.67 11.66Z"/><path d="M2080.26 1083.32v46.7h7.79c2.1 0 3.79 1.7 3.79 3.8 0 2.09-1.69 3.79-3.79 3.79h-94.11a3.796 3.796 0 0 1 0-7.59h7.79v-35.03c0-5.32 4.31-9.63 9.62-9.63 5.32 0 9.63 4.31 9.63 9.63v35.03h10.39v-20.08c0-5.32 4.31-9.63 9.63-9.63 5.32 0 9.63 4.31 9.63 9.63v20.08h10.38v-46.7c0-5.31 4.31-9.62 9.62-9.62 5.32 0 9.63 4.31 9.63 9.62Z"/></g></g></g><g id="Medium-M"><g id="Solid / Chart Solid_14"><g id="Shape_14" fill="#000"><path d="M1786.29 1054.15c0 6.45-5.23 11.67-11.67 11.67-1.96 0-3.81-.48-5.43-1.34l-13.34 12.36c.53 1.33.81 2.78.81 4.29 0 6.45-5.22 11.67-11.66 11.67-6.45 0-11.67-5.22-11.67-11.67 0-.38.02-.75.05-1.12l-10.23-5.49a11.597 11.597 0 0 1-7.77 2.97c-6.45 0-11.67-5.23-11.67-11.67 0-6.44 5.22-11.67 11.67-11.67 6.44 0 11.66 5.23 11.66 11.67 0 .71-.06 1.41-.18 2.08l9.68 5.2a11.63 11.63 0 0 1 8.46-3.63c2.16 0 4.18.58 5.92 1.61l13.07-12.12c-.67-1.46-1.04-3.09-1.04-4.81 0-6.44 5.23-11.66 11.67-11.66 6.44 0 11.67 5.22 11.67 11.66Z"/><path d="M1784.26 1083.32v46.7h7.79c2.1 0 3.79 1.7 3.79 3.8 0 2.09-1.69 3.79-3.79 3.79h-94.11a3.796 3.796 0 0 1 0-7.59h7.79v-35.03c0-5.32 4.31-9.63 9.62-9.63 5.32 0 9.63 4.31 9.63 9.63v35.03h10.39v-20.08c0-5.32 4.31-9.63 9.63-9.63 5.32 0 9.63 4.31 9.63 9.63v20.08h10.38v-46.7c0-5.31 4.31-9.62 9.62-9.62 5.32 0 9.63 4.31 9.63 9.62Z"/></g></g></g><g id="Regular-M"><g id="Solid / Chart Solid_15"><g id="Shape_15" fill="#000"><path d="M1490.29 1054.15c0 6.45-5.23 11.67-11.67 11.67-1.96 0-3.81-.48-5.43-1.34l-13.34 12.36c.53 1.33.81 2.78.81 4.29 0 6.45-5.22 11.67-11.66 11.67-6.45 0-11.67-5.22-11.67-11.67 0-.38.02-.75.05-1.12l-10.23-5.49a11.597 11.597 0 0 1-7.77 2.97c-6.45 0-11.67-5.23-11.67-11.67 0-6.44 5.22-11.67 11.67-11.67 6.44 0 11.66 5.23 11.66 11.67 0 .71-.06 1.41-.18 2.08l9.68 5.2a11.63 11.63 0 0 1 8.46-3.63c2.16 0 4.18.58 5.92 1.61l13.07-12.12c-.67-1.46-1.04-3.09-1.04-4.81 0-6.44 5.23-11.66 11.67-11.66 6.44 0 11.67 5.22 11.67 11.66Z"/><path d="M1488.26 1083.32v46.7h7.79c2.1 0 3.79 1.7 3.79 3.8 0 2.09-1.69 3.79-3.79 3.79h-94.11a3.796 3.796 0 0 1 0-7.59h7.79v-35.03c0-5.32 4.31-9.63 9.62-9.63 5.32 0 9.63 4.31 9.63 9.63v35.03h10.39v-20.08c0-5.32 4.31-9.63 9.63-9.63 5.32 0 9.63 4.31 9.63 9.63v20.08h10.38v-46.7c0-5.31 4.31-9.62 9.62-9.62 5.32 0 9.63 4.31 9.63 9.62Z"/></g></g></g><g id="Light-M"><g id="Solid / Chart Solid_16"><g id="Shape_16" fill="#000"><path d="M1194.29 1054.15c0 6.45-5.23 11.67-11.67 11.67-1.96 0-3.81-.48-5.43-1.34l-13.34 12.36c.53 1.33.81 2.78.81 4.29 0 6.45-5.22 11.67-11.66 11.67-6.45 0-11.67-5.22-11.67-11.67 0-.38.02-.75.05-1.12l-10.23-5.49a11.597 11.597 0 0 1-7.77 2.97c-6.45 0-11.67-5.23-11.67-11.67 0-6.44 5.22-11.67 11.67-11.67 6.44 0 11.66 5.23 11.66 11.67 0 .71-.06 1.41-.18 2.08l9.68 5.2a11.63 11.63 0 0 1 8.46-3.63c2.16 0 4.18.58 5.92 1.61l13.07-12.12c-.67-1.46-1.04-3.09-1.04-4.81 0-6.44 5.23-11.66 11.67-11.66 6.44 0 11.67 5.22 11.67 11.66Z"/><path d="M1192.26 1083.32v46.7h7.79c2.1 0 3.79 1.7 3.79 3.8 0 2.09-1.69 3.79-3.79 3.79h-94.11a3.796 3.796 0 0 1 0-7.59h7.79v-35.03c0-5.32 4.31-9.63 9.62-9.63 5.32 0 9.63 4.31 9.63 9.63v35.03h10.39v-20.08c0-5.32 4.31-9.63 9.63-9.63 5.32 0 9.63 4.31 9.63 9.63v20.08h10.38v-46.7c0-5.31 4.31-9.62 9.62-9.62 5.32 0 9.63 4.31 9.63 9.62Z"/></g></g></g><g id="Thin-M"><g id="Solid / Chart Solid_17"><g id="Shape_17" fill="#000"><path d="M898.286 1054.15c0 6.45-5.223 11.67-11.666 11.67-1.961 0-3.809-.48-5.431-1.34l-13.338 12.36c.525 1.33.814 2.78.814 4.29 0 6.45-5.224 11.67-11.667 11.67s-11.667-5.22-11.667-11.67c0-.38.018-.75.054-1.12l-10.233-5.49a11.607 11.607 0 0 1-7.776 2.97c-6.444 0-11.667-5.23-11.667-11.67 0-6.44 5.223-11.67 11.667-11.67 6.443 0 11.666 5.23 11.666 11.67 0 .71-.063 1.41-.185 2.08l9.684 5.2a11.618 11.618 0 0 1 8.457-3.63c2.16 0 4.184.58 5.919 1.61l13.07-12.12a11.592 11.592 0 0 1-1.034-4.81c0-6.44 5.223-11.66 11.667-11.66 6.443 0 11.666 5.22 11.666 11.66Z"/><path d="M896.259 1083.32v46.7h7.793a3.795 3.795 0 0 1 0 7.59h-94.108a3.795 3.795 0 0 1 0-7.59h7.784v-35.03c0-5.32 4.31-9.63 9.625-9.63 5.316 0 9.625 4.31 9.625 9.63v35.03h10.392v-20.08c0-5.32 4.31-9.63 9.628-9.63 5.318 0 9.628 4.31 9.628 9.63v20.08h10.383v-46.7c0-5.31 4.31-9.62 9.625-9.62 5.316 0 9.625 4.31 9.625 9.62Z"/></g></g></g><g id="Ultralight-M"><g id="Solid / Chart Solid_18"><g id="Shape_18" fill="#000"><path d="M602.286 1054.15c0 6.45-5.223 11.67-11.666 11.67-1.961 0-3.809-.48-5.431-1.34l-13.338 12.36c.525 1.33.814 2.78.814 4.29 0 6.45-5.224 11.67-11.667 11.67s-11.667-5.22-11.667-11.67c0-.38.018-.75.054-1.12l-10.233-5.49a11.607 11.607 0 0 1-7.776 2.97c-6.444 0-11.667-5.23-11.667-11.67 0-6.44 5.223-11.67 11.667-11.67 6.443 0 11.666 5.23 11.666 11.67 0 .71-.063 1.41-.185 2.08l9.684 5.2a11.618 11.618 0 0 1 8.457-3.63c2.16 0 4.184.58 5.919 1.61l13.07-12.12a11.592 11.592 0 0 1-1.034-4.81c0-6.44 5.223-11.66 11.667-11.66 6.443 0 11.666 5.22 11.666 11.66Z"/><path d="M600.259 1083.32v46.7h7.793a3.795 3.795 0 0 1 0 7.59h-94.108a3.795 3.795 0 0 1 0-7.59h7.784v-35.03c0-5.32 4.31-9.63 9.625-9.63 5.316 0 9.625 4.31 9.625 9.63v35.03h10.392v-20.08c0-5.32 4.31-9.63 9.628-9.63 5.318 0 9.628 4.31 9.628 9.63v20.08h10.383v-46.7c0-5.31 4.31-9.62 9.625-9.62 5.316 0 9.625 4.31 9.625 9.62Z"/></g></g></g><g id="Black-S"><g id="Solid / Chart Solid_19"><g id="Shape_19" fill="#000"><path d="M2958.49 634.681a8.332 8.332 0 0 1-12.21 7.377l-9.53 8.83c.38.948.58 1.982.58 3.064a8.332 8.332 0 0 1-8.33 8.333c-4.6 0-8.34-3.731-8.34-8.333 0-.271.02-.539.04-.803l-7.31-3.922a8.29 8.29 0 0 1-5.55 2.121c-4.6 0-8.33-3.731-8.33-8.334a8.332 8.332 0 0 1 8.33-8.333c4.6 0 8.33 3.731 8.33 8.333 0 .507-.04 1.004-.13 1.486l6.92 3.711a8.307 8.307 0 0 1 6.04-2.593c1.54 0 2.99.42 4.23 1.151l9.33-8.653a8.334 8.334 0 0 1 7.6-11.768c4.6 0 8.33 3.731 8.33 8.333Z"/><path d="M2957.04 655.514v33.36h5.57c1.49 0 2.71 1.212 2.71 2.708a2.713 2.713 0 0 1-2.71 2.708h-67.22c-1.5 0-2.71-1.212-2.71-2.708a2.707 2.707 0 0 1 2.71-2.708h5.56v-25.026a6.875 6.875 0 0 1 13.75 0v25.026h7.42v-14.347a6.878 6.878 0 0 1 6.88-6.877c3.8 0 6.88 3.079 6.88 6.877v14.347h7.41v-33.36a6.875 6.875 0 0 1 13.75 0Z"/></g></g></g><g id="Heavy-S"><g id="Solid / Chart Solid_20"><g id="Shape_20" fill="#000"><path d="M2662.49 634.681a8.332 8.332 0 0 1-12.21 7.377l-9.53 8.83c.38.948.58 1.982.58 3.064a8.332 8.332 0 0 1-8.33 8.333c-4.6 0-8.34-3.731-8.34-8.333 0-.271.02-.539.04-.803l-7.31-3.922a8.29 8.29 0 0 1-5.55 2.121c-4.6 0-8.33-3.731-8.33-8.334a8.332 8.332 0 0 1 8.33-8.333c4.6 0 8.33 3.731 8.33 8.333 0 .507-.04 1.004-.13 1.486l6.92 3.711a8.307 8.307 0 0 1 6.04-2.593c1.54 0 2.99.42 4.23 1.151l9.33-8.653a8.334 8.334 0 0 1 7.6-11.768c4.6 0 8.33 3.731 8.33 8.333Z"/><path d="M2661.04 655.514v33.36h5.57c1.49 0 2.71 1.212 2.71 2.708a2.713 2.713 0 0 1-2.71 2.708h-67.22c-1.5 0-2.71-1.212-2.71-2.708a2.707 2.707 0 0 1 2.71-2.708h5.56v-25.026a6.875 6.875 0 0 1 13.75 0v25.026h7.42v-14.347a6.878 6.878 0 0 1 6.88-6.877c3.8 0 6.88 3.079 6.88 6.877v14.347h7.41v-33.36a6.875 6.875 0 0 1 13.75 0Z"/></g></g></g><g id="Bold-S"><g id="Solid / Chart Solid_21"><g id="Shape_21" fill="#000"><path d="M2366.49 634.681a8.332 8.332 0 0 1-12.21 7.377l-9.53 8.83c.38.948.58 1.982.58 3.064a8.332 8.332 0 0 1-8.33 8.333c-4.6 0-8.34-3.731-8.34-8.333 0-.271.02-.539.04-.803l-7.31-3.922a8.29 8.29 0 0 1-5.55 2.121c-4.6 0-8.33-3.731-8.33-8.334a8.332 8.332 0 0 1 8.33-8.333c4.6 0 8.33 3.731 8.33 8.333 0 .507-.04 1.004-.13 1.486l6.92 3.711a8.307 8.307 0 0 1 6.04-2.593c1.54 0 2.99.42 4.23 1.151l9.33-8.653a8.334 8.334 0 0 1 7.6-11.768c4.6 0 8.33 3.731 8.33 8.333Z"/><path d="M2365.04 655.514v33.36h5.57c1.49 0 2.71 1.212 2.71 2.708a2.713 2.713 0 0 1-2.71 2.708h-67.22c-1.5 0-2.71-1.212-2.71-2.708a2.707 2.707 0 0 1 2.71-2.708h5.56v-25.026a6.875 6.875 0 0 1 13.75 0v25.026h7.42v-14.347a6.878 6.878 0 0 1 6.88-6.877c3.8 0 6.88 3.079 6.88 6.877v14.347h7.41v-33.36a6.875 6.875 0 0 1 13.75 0Z"/></g></g></g><g id="Semibold-S"><g id="Solid / Chart Solid_22"><g id="Shape_22" fill="#000"><path d="M2070.49 634.681a8.332 8.332 0 0 1-12.21 7.377l-9.53 8.83c.38.948.58 1.982.58 3.064a8.332 8.332 0 0 1-8.33 8.333c-4.6 0-8.34-3.731-8.34-8.333 0-.271.02-.539.04-.803l-7.31-3.922a8.29 8.29 0 0 1-5.55 2.121c-4.6 0-8.33-3.731-8.33-8.334a8.332 8.332 0 0 1 8.33-8.333c4.6 0 8.33 3.731 8.33 8.333 0 .507-.04 1.004-.13 1.486l6.92 3.711a8.307 8.307 0 0 1 6.04-2.593c1.54 0 2.99.42 4.23 1.151l9.33-8.653a8.334 8.334 0 0 1 7.6-11.768c4.6 0 8.33 3.731 8.33 8.333Z"/><path d="M2069.04 655.514v33.36h5.57c1.49 0 2.71 1.212 2.71 2.708a2.713 2.713 0 0 1-2.71 2.708h-67.22c-1.5 0-2.71-1.212-2.71-2.708a2.707 2.707 0 0 1 2.71-2.708h5.56v-25.026a6.875 6.875 0 0 1 13.75 0v25.026h7.42v-14.347a6.878 6.878 0 0 1 6.88-6.877c3.8 0 6.88 3.079 6.88 6.877v14.347h7.41v-33.36a6.875 6.875 0 0 1 13.75 0Z"/></g></g></g><g id="Medium-S"><g id="Solid / Chart Solid_23"><g id="Shape_23" fill="#000"><path d="M1774.49 634.681a8.332 8.332 0 0 1-12.21 7.377l-9.53 8.83c.38.948.58 1.982.58 3.064a8.332 8.332 0 0 1-8.33 8.333c-4.6 0-8.34-3.731-8.34-8.333 0-.271.02-.539.04-.803l-7.31-3.922a8.29 8.29 0 0 1-5.55 2.121c-4.6 0-8.33-3.731-8.33-8.334a8.332 8.332 0 0 1 8.33-8.333c4.6 0 8.33 3.731 8.33 8.333 0 .507-.04 1.004-.13 1.486l6.92 3.711a8.307 8.307 0 0 1 6.04-2.593c1.54 0 2.99.42 4.23 1.151l9.33-8.653a8.334 8.334 0 0 1 7.6-11.768c4.6 0 8.33 3.731 8.33 8.333Z"/><path d="M1773.04 655.514v33.36h5.57c1.49 0 2.71 1.212 2.71 2.708a2.713 2.713 0 0 1-2.71 2.708h-67.22c-1.5 0-2.71-1.212-2.71-2.708a2.707 2.707 0 0 1 2.71-2.708h5.56v-25.026a6.875 6.875 0 0 1 13.75 0v25.026h7.42v-14.347a6.878 6.878 0 0 1 6.88-6.877c3.8 0 6.88 3.079 6.88 6.877v14.347h7.41v-33.36a6.875 6.875 0 0 1 13.75 0Z"/></g></g></g><g id="Regular-S"><g id="Solid / Chart Solid_24"><g id="Shape_24" fill="#000"><path d="M1478.49 634.681a8.332 8.332 0 0 1-12.21 7.377l-9.53 8.83c.38.948.58 1.982.58 3.064a8.332 8.332 0 0 1-8.33 8.333c-4.6 0-8.34-3.731-8.34-8.333 0-.271.02-.539.04-.803l-7.31-3.922a8.29 8.29 0 0 1-5.55 2.121c-4.6 0-8.33-3.731-8.33-8.334a8.332 8.332 0 0 1 8.33-8.333c4.6 0 8.33 3.731 8.33 8.333 0 .507-.04 1.004-.13 1.486l6.92 3.711a8.307 8.307 0 0 1 6.04-2.593c1.54 0 2.99.42 4.23 1.151l9.33-8.653a8.334 8.334 0 0 1 7.6-11.768c4.6 0 8.33 3.731 8.33 8.333Z"/><path d="M1477.04 655.514v33.36h5.57c1.49 0 2.71 1.212 2.71 2.708a2.713 2.713 0 0 1-2.71 2.708h-67.22c-1.5 0-2.71-1.212-2.71-2.708a2.707 2.707 0 0 1 2.71-2.708h5.56v-25.026a6.875 6.875 0 0 1 13.75 0v25.026h7.42v-14.347a6.878 6.878 0 0 1 6.88-6.877c3.8 0 6.88 3.079 6.88 6.877v14.347h7.41v-33.36a6.875 6.875 0 0 1 13.75 0Z"/></g></g></g><g id="Light-S"><g id="Solid / Chart Solid_25"><g id="Shape_25" fill="#000"><path d="M1182.49 634.681a8.332 8.332 0 0 1-12.21 7.377l-9.53 8.83c.38.948.58 1.982.58 3.064a8.332 8.332 0 0 1-8.33 8.333c-4.6 0-8.34-3.731-8.34-8.333 0-.271.02-.539.04-.803l-7.31-3.922a8.29 8.29 0 0 1-5.55 2.121c-4.6 0-8.33-3.731-8.33-8.334a8.332 8.332 0 0 1 8.33-8.333c4.6 0 8.33 3.731 8.33 8.333 0 .507-.04 1.004-.13 1.486l6.92 3.711a8.307 8.307 0 0 1 6.04-2.593c1.54 0 2.99.42 4.23 1.151l9.33-8.653a8.334 8.334 0 0 1 7.6-11.768c4.6 0 8.33 3.731 8.33 8.333Z"/><path d="M1181.04 655.514v33.36h5.57c1.49 0 2.71 1.212 2.71 2.708a2.713 2.713 0 0 1-2.71 2.708h-67.22c-1.5 0-2.71-1.212-2.71-2.708a2.707 2.707 0 0 1 2.71-2.708h5.56v-25.026a6.875 6.875 0 0 1 13.75 0v25.026h7.42v-14.347a6.878 6.878 0 0 1 6.88-6.877c3.8 0 6.88 3.079 6.88 6.877v14.347h7.41v-33.36a6.875 6.875 0 0 1 13.75 0Z"/></g></g></g><g id="Thin-S"><g id="Solid / Chart Solid_26"><g id="Shape_26" fill="#000"><path d="M886.49 634.681a8.333 8.333 0 0 1-8.334 8.333c-1.4 0-2.72-.345-3.879-.956l-9.527 8.83a8.333 8.333 0 1 1-16.047 2.261l-7.309-3.922a8.333 8.333 0 1 1 2.646-4.727l6.917 3.711a8.311 8.311 0 0 1 6.041-2.593c1.543 0 2.988.42 4.228 1.151l9.336-8.653a8.333 8.333 0 0 1 7.594-11.768 8.333 8.333 0 0 1 8.334 8.333Z"/><path d="M885.042 655.514v33.36h5.566a2.707 2.707 0 1 1 0 5.416H823.388a2.707 2.707 0 1 1 0-5.416h5.56v-25.026a6.875 6.875 0 1 1 13.75 0v25.026h7.423v-14.347a6.877 6.877 0 0 1 13.754 0v14.347h7.417v-33.36a6.875 6.875 0 1 1 13.75 0Z"/></g></g></g><g id="Ultralight-S"><g id="Solid / Chart Solid_27"><g id="Shape_27" fill="#000"><path d="M590.49 634.681a8.333 8.333 0 0 1-8.334 8.333c-1.4 0-2.72-.345-3.879-.956l-9.527 8.83a8.333 8.333 0 1 1-16.047 2.261l-7.309-3.922a8.333 8.333 0 1 1 2.646-4.727l6.917 3.711a8.311 8.311 0 0 1 6.041-2.593c1.543 0 2.988.42 4.228 1.151l9.336-8.653a8.333 8.333 0 0 1 7.594-11.768 8.333 8.333 0 0 1 8.334 8.333Z"/><path d="M589.042 655.514v33.36h5.566a2.707 2.707 0 1 1 0 5.416H527.388a2.707 2.707 0 1 1 0-5.416h5.56v-25.026a6.875 6.875 0 1 1 13.75 0v25.026h7.423v-14.347a6.877 6.877 0 0 1 13.754 0v14.347h7.417v-33.36a6.875 6.875 0 1 1 13.75 0Z"/></g></g></g></g></g><defs><clipPath id="clip0_0_1"><path fill="#fff" d="M0 0h3300v2200H0z"/></clipPath></defs></svg>