<svg width="3300" height="2200" viewBox="0 0 3300 2200" fill="none" xmlns="http://www.w3.org/2000/svg">
<rect width="3300" height="2200" fill="#E5E5E5"/>
<g id="Category / Outline / Car" clip-path="url(#clip0_0_1)">
<g id="Notes">
<path id="artboard" d="M3300 0H0V2200H3300V0Z" fill="white"/>
<path id="Vector" d="M263 292H3036" stroke="black" stroke-width="0.5"/>
<text id="Weight/Scale Variations" fill="black" xml:space="preserve" style="white-space: pre" font-family="Roboto" font-size="12" letter-spacing="0em"><tspan x="263" y="321.102">Weight/Scale Variations</tspan></text>
<text id="Ultralight" fill="black" xml:space="preserve" style="white-space: pre" font-family="Roboto" font-size="12" letter-spacing="0em"><tspan x="535.211" y="321.102">Ultralight</tspan></text>
<text id="Thin" fill="black" xml:space="preserve" style="white-space: pre" font-family="Roboto" font-size="12" letter-spacing="0em"><tspan x="844.422" y="321.102">Thin</tspan></text>
<text id="Light" fill="black" xml:space="preserve" style="white-space: pre" font-family="Roboto" font-size="12" letter-spacing="0em"><tspan x="1139.63" y="321.102">Light</tspan></text>
<text id="Regular" fill="black" xml:space="preserve" style="white-space: pre" font-family="Roboto" font-size="12" letter-spacing="0em"><tspan x="1429.34" y="321.102">Regular</tspan></text>
<text id="Medium" fill="black" xml:space="preserve" style="white-space: pre" font-family="Roboto" font-size="12" letter-spacing="0em"><tspan x="1724.56" y="321.102">Medium</tspan></text>
<text id="Semibold" fill="black" xml:space="preserve" style="white-space: pre" font-family="Roboto" font-size="12" letter-spacing="0em"><tspan x="2017.77" y="321.102">Semibold</tspan></text>
<text id="Bold" fill="black" xml:space="preserve" style="white-space: pre" font-family="Roboto" font-size="12" letter-spacing="0em"><tspan x="2327.48" y="321.102">Bold</tspan></text>
<text id="Heavy" fill="black" xml:space="preserve" style="white-space: pre" font-family="Roboto" font-size="12" letter-spacing="0em"><tspan x="2620.19" y="321.102">Heavy</tspan></text>
<text id="Black" fill="black" xml:space="preserve" style="white-space: pre" font-family="Roboto" font-size="12" letter-spacing="0em"><tspan x="2918.4" y="321.102">Black</tspan></text>
<path id="Vector_2" d="M263 1903H3036" stroke="black" stroke-width="0.5"/>
<g id="Group">
<path id="Vector_3" d="M272.248 1933.83C276.555 1933.83 280.139 1930.26 280.139 1925.95C280.139 1921.64 276.545 1918.07 272.238 1918.07C267.941 1918.07 264.367 1921.64 264.367 1925.95C264.367 1930.26 267.951 1933.83 272.248 1933.83ZM272.248 1932.35C268.703 1932.35 265.871 1929.51 265.871 1925.95C265.871 1922.4 268.693 1919.55 272.238 1919.55C275.793 1919.55 278.635 1922.4 278.644 1925.95C278.654 1929.51 275.803 1932.35 272.248 1932.35ZM272.229 1929.57C272.697 1929.57 272.971 1929.26 272.971 1928.74V1926.68H275.197C275.695 1926.68 276.037 1926.43 276.037 1925.96C276.037 1925.48 275.715 1925.22 275.197 1925.22H272.971V1922.99C272.971 1922.47 272.697 1922.15 272.229 1922.15C271.76 1922.15 271.506 1922.49 271.506 1922.99V1925.22H269.299C268.781 1925.22 268.449 1925.48 268.449 1925.96C268.449 1926.43 268.801 1926.68 269.299 1926.68H271.506V1928.74C271.506 1929.24 271.76 1929.57 272.229 1929.57Z" fill="black"/>
</g>
<g id="Group_2">
<path id="Vector_4" d="M293.215 1935.91C298.664 1935.91 303.176 1931.4 303.176 1925.95C303.176 1920.51 298.654 1915.99 293.205 1915.99C287.766 1915.99 283.254 1920.51 283.254 1925.95C283.254 1931.4 287.775 1935.91 293.215 1935.91ZM293.215 1934.25C288.605 1934.25 284.924 1930.56 284.924 1925.95C284.924 1921.35 288.596 1917.65 293.205 1917.65C297.814 1917.65 301.506 1921.35 301.516 1925.95C301.525 1930.56 297.824 1934.25 293.215 1934.25ZM293.195 1930.59C293.713 1930.59 294.025 1930.23 294.025 1929.66V1926.77H297.082C297.629 1926.77 298.01 1926.49 298.01 1925.97C298.01 1925.44 297.648 1925.14 297.082 1925.14H294.025V1922.07C294.025 1921.5 293.713 1921.14 293.195 1921.14C292.678 1921.14 292.385 1921.52 292.385 1922.07V1925.14H289.338C288.771 1925.14 288.4 1925.44 288.4 1925.97C288.4 1926.49 288.791 1926.77 289.338 1926.77H292.385V1929.66C292.385 1930.21 292.678 1930.59 293.195 1930.59Z" fill="black"/>
</g>
<g id="Group_3">
<path id="Vector_5" d="M319.895 1938.67C326.857 1938.67 332.619 1932.92 332.619 1925.96C332.619 1918.99 326.848 1913.24 319.885 1913.24C312.932 1913.24 307.18 1918.99 307.18 1925.96C307.18 1932.92 312.941 1938.67 319.895 1938.67ZM319.895 1936.86C313.859 1936.86 309.006 1931.99 309.006 1925.96C309.006 1919.92 313.85 1915.06 319.885 1915.06C325.93 1915.06 330.783 1919.92 330.793 1925.96C330.803 1931.99 325.939 1936.86 319.895 1936.86ZM319.875 1931.93C320.441 1931.93 320.793 1931.54 320.793 1930.94V1926.87H325.031C325.617 1926.87 326.037 1926.53 326.037 1925.98C326.037 1925.4 325.647 1925.06 325.031 1925.06H320.793V1920.81C320.793 1920.2 320.441 1919.8 319.875 1919.8C319.309 1919.8 318.986 1920.21 318.986 1920.81V1925.06H314.758C314.143 1925.06 313.732 1925.4 313.732 1925.98C313.732 1926.53 314.162 1926.87 314.758 1926.87H318.986V1930.94C318.986 1931.52 319.309 1931.93 319.875 1931.93Z" fill="black"/>
</g>
<text id="Design Variations" fill="black" xml:space="preserve" style="white-space: pre" font-family="Roboto" font-size="12" letter-spacing="0em"><tspan x="263" y="1952.1">Design Variations</tspan></text>
<text id="Symbols are supported in up to nine weights and three scales." fill="black" xml:space="preserve" style="white-space: pre" font-family="Roboto" font-size="12" letter-spacing="0em"><tspan x="263" y="1970.1">Symbols are supported in up to nine weights and three scales.</tspan></text>
<text id="For optimal layout with text and other symbols, vertically align" fill="black" xml:space="preserve" style="white-space: pre" font-family="Roboto" font-size="12" letter-spacing="0em"><tspan x="263" y="1988.1">For optimal layout with text and other symbols, vertically align</tspan></text>
<text id="symbols with the adjacent text." fill="black" xml:space="preserve" style="white-space: pre" font-family="Roboto" font-size="12" letter-spacing="0em"><tspan x="263" y="2006.1">symbols with the adjacent text.</tspan></text>
<path id="Vector_6" opacity="0.4" d="M779 1919H776V1933H779V1919Z" fill="#00AEEF"/>
<g id="Group_4">
<path id="Vector_7" d="M789.527 1933H791.373L786.178 1918.91H784.439L779.244 1933H781.09L782.506 1928.96H788.111L789.527 1933ZM785.279 1921.04H785.338L787.594 1927.47H783.023L785.279 1921.04Z" fill="black"/>
</g>
<path id="Vector_8" opacity="0.4" d="M794.617 1919H791.617V1933H794.617V1919Z" fill="#00AEEF"/>
<text id="Margins" fill="black" xml:space="preserve" style="white-space: pre" font-family="Roboto" font-size="12" letter-spacing="0em"><tspan x="776" y="1952.1">Margins</tspan></text>
<text id="Leading and trailing margins on the left and right side of each symbol" fill="black" xml:space="preserve" style="white-space: pre" font-family="Roboto" font-size="12" letter-spacing="0em"><tspan x="776" y="1970.1">Leading and trailing margins on the left and right side of each symbol</tspan></text>
<text id="can be adjusted by modifying the width of the blue rectangles." fill="black" xml:space="preserve" style="white-space: pre" font-family="Roboto" font-size="12" letter-spacing="0em"><tspan x="776" y="1988.1">can be adjusted by modifying the width of the blue rectangles.</tspan></text>
<text id="Modifications are automatically applied proportionally to all" fill="black" xml:space="preserve" style="white-space: pre" font-family="Roboto" font-size="12" letter-spacing="0em"><tspan x="776" y="2006.1">Modifications are automatically applied proportionally to all</tspan></text>
<text id="scales and weights." fill="black" xml:space="preserve" style="white-space: pre" font-family="Roboto" font-size="12" letter-spacing="0em"><tspan x="776" y="2024.1">scales and weights.</tspan></text>
<g id="Group_5">
<path id="Vector_9" d="M1291.83 1936.11L1293.37 1937.66C1294.22 1938.49 1295.19 1938.42 1296.06 1937.46L1306.27 1926.34C1306.7 1926.63 1307.1 1926.62 1307.56 1926.52L1308.61 1926.31L1309.3 1927L1309.25 1927.52C1309.19 1928.05 1309.35 1928.47 1309.85 1928.97L1310.66 1929.78C1311.17 1930.28 1311.82 1930.31 1312.3 1929.83L1315.55 1926.58C1316.03 1926.1 1316.01 1925.45 1315.5 1924.94L1314.68 1924.12C1314.19 1923.62 1313.77 1923.45 1313.24 1923.53L1312.71 1923.58L1312.06 1922.92L1312.34 1921.78C1312.49 1921.21 1312.34 1920.74 1311.71 1920.14L1309.3 1917.75C1305.76 1914.22 1301.23 1914.33 1298.11 1917.46C1297.69 1917.89 1297.64 1918.48 1297.92 1918.91C1298.15 1919.28 1298.63 1919.5 1299.27 1919.34C1300.79 1918.96 1302.3 1919.07 1303.78 1920.08L1303.16 1921.66C1302.93 1922.25 1302.94 1922.73 1303.18 1923.16L1292.02 1933.44C1291.08 1934.31 1290.97 1935.25 1291.83 1936.11ZM1299.67 1917.85C1302.34 1915.86 1305.65 1916.17 1308.05 1918.58L1310.68 1921.19C1310.91 1921.43 1310.94 1921.61 1310.88 1921.91L1310.5 1923.47L1312.08 1925.04L1313.04 1924.95C1313.33 1924.92 1313.41 1924.94 1313.64 1925.17L1314.26 1925.79L1311.51 1928.54L1310.88 1927.92C1310.66 1927.7 1310.64 1927.6 1310.67 1927.32L1310.76 1926.36L1309.19 1924.8L1307.57 1925.11C1307.29 1925.17 1307.14 1925.17 1306.91 1924.92L1304.73 1922.75C1304.51 1922.51 1304.48 1922.37 1304.61 1922.05L1305.55 1919.78C1303.95 1918.24 1301.84 1917.39 1299.8 1918.05C1299.71 1918.08 1299.64 1918.06 1299.61 1918.02C1299.59 1917.97 1299.59 1917.92 1299.67 1917.85ZM1293.1 1935.41C1292.61 1934.91 1292.79 1934.61 1293.12 1934.31L1304.08 1924.19L1305.31 1925.42L1295.15 1936.35C1294.85 1936.68 1294.47 1936.78 1294.07 1936.38L1293.1 1935.41Z" fill="black"/>
</g>
<text id="Exporting" fill="black" xml:space="preserve" style="white-space: pre" font-family="Roboto" font-size="12" letter-spacing="0em"><tspan x="1289" y="1952.1">Exporting</tspan></text>
<text id="Symbols should be outlined when exporting to ensure the" fill="black" xml:space="preserve" style="white-space: pre" font-family="Roboto" font-size="12" letter-spacing="0em"><tspan x="1289" y="1970.1">Symbols should be outlined when exporting to ensure the</tspan></text>
<text id="design is preserved when submitting to Xcode." fill="black" xml:space="preserve" style="white-space: pre" font-family="Roboto" font-size="12" letter-spacing="0em"><tspan x="1289" y="1988.1">design is preserved when submitting to Xcode.</tspan></text>
<text id="template-version" fill="black" xml:space="preserve" style="white-space: pre" font-family="Roboto" font-size="12" letter-spacing="0em"><tspan x="2958" y="1932.1">Template v.1.0</tspan></text>
<text id="Generated from pencil.circle" fill="black" xml:space="preserve" style="white-space: pre" font-family="Roboto" font-size="12" letter-spacing="0em"><tspan x="2885" y="1950.1">Generated from pencil.circle</tspan></text>
<text id="Typeset at 100 points" fill="black" xml:space="preserve" style="white-space: pre" font-family="Roboto" font-size="12" letter-spacing="0em"><tspan x="2921" y="1968.1">Typeset at 100 points</tspan></text>
<text id="Small" fill="black" xml:space="preserve" style="white-space: pre" font-family="Roboto" font-size="12" letter-spacing="0em"><tspan x="263" y="725.102">Small</tspan></text>
<text id="Medium_2" fill="black" xml:space="preserve" style="white-space: pre" font-family="Roboto" font-size="12" letter-spacing="0em"><tspan x="263" y="1155.1">Medium</tspan></text>
<text id="Large" fill="black" xml:space="preserve" style="white-space: pre" font-family="Roboto" font-size="12" letter-spacing="0em"><tspan x="263" y="1585.1">Large</tspan></text>
</g>
<g id="Guides">
<g id="H-reference">
<path id="Vector_10" d="M393.932 695.998H396.666L369.566 625.539H367.076L339.977 695.998H342.662L351.94 671.535H384.703L393.932 695.998ZM368.199 628.908H368.443L383.824 669.289H352.818L368.199 628.908Z" fill="#27AAE1"/>
</g>
<path id="Baseline-S" d="M263 696H3036" stroke="#27AAE1" stroke-width="0.577"/>
<path id="Capline-S" d="M263 626H3036" stroke="#27AAE1" stroke-width="0.577"/>
<g id="H-reference_2">
<path id="Vector_11" d="M393.932 1126H396.666L369.566 1055.54H367.076L339.977 1126H342.662L351.94 1101.54H384.703L393.932 1126ZM368.199 1058.91H368.443L383.824 1099.29H352.818L368.199 1058.91Z" fill="#27AAE1"/>
</g>
<path id="Baseline-M" d="M263 1126H3036" stroke="#27AAE1" stroke-width="0.577"/>
<path id="Capline-M" d="M263 1056H3036" stroke="#27AAE1" stroke-width="0.577"/>
<g id="H-reference_3">
<path id="Vector_12" d="M393.932 1556H396.666L369.566 1485.54H367.076L339.977 1556H342.662L351.94 1531.54H384.703L393.932 1556ZM368.199 1488.91H368.443L383.824 1529.29H352.818L368.199 1488.91Z" fill="#27AAE1"/>
</g>
<g id="Group 1">
<path id="Baseline-L" d="M263 1556H3036" stroke="#27AAE1" stroke-width="0.577"/>
<path id="Capline-L" d="M263 1486H3036" stroke="#27AAE1" stroke-width="0.577"/>
</g>
<path id="left-margin" opacity="0.4" d="M1390.04 1030.79H1381.3V1150.12H1390.04V1030.79Z" fill="#00AEEF"/>
<path id="right-margin" opacity="0.4" d="M1516.39 1030.79H1507.65V1150.12H1516.39V1030.79Z" fill="#00AEEF"/>
</g>
<g id="Symbols">
<g id="Black-L">
<g id="Outline / Car Outline">
<path id="Shape" fill-rule="evenodd" clip-rule="evenodd" d="M2962.11 1461C2970.53 1461 2978.25 1465.7 2982.11 1473.19L2997.68 1503.39C3001.59 1507.44 3004 1512.95 3004 1519.03L3004 1570.57C3004 1578.85 2997.28 1585.57 2989 1585.57H2981.62C2973.33 1585.57 2966.62 1578.85 2966.62 1570.57V1566H2891.38V1570.57C2891.38 1578.85 2884.67 1585.57 2876.38 1585.57H2869C2860.72 1585.57 2854 1578.85 2854 1570.57V1519.03C2854 1512.95 2856.41 1507.44 2860.32 1503.39L2875.89 1473.19C2879.75 1465.7 2887.47 1461 2895.89 1461H2962.11ZM2895.89 1470.75H2962.11C2966.88 1470.75 2971.25 1473.41 2973.44 1477.66L2983.03 1496.25H2874.97L2884.56 1477.66C2886.75 1473.41 2891.12 1470.75 2895.89 1470.75ZM2976.37 1566H2994.25V1570.57C2994.25 1573.47 2991.9 1575.82 2989 1575.82H2981.62C2978.72 1575.82 2976.37 1573.47 2976.37 1570.57V1566ZM2863.75 1566H2881.63V1570.57C2881.63 1573.47 2879.28 1575.82 2876.38 1575.82H2869C2866.1 1575.82 2863.75 1573.47 2863.75 1570.57V1566ZM2876.5 1506.28H2981.5C2987.67 1506.28 2992.81 1510.65 2993.99 1516.47H2978.47C2975.78 1516.47 2973.59 1518.65 2973.59 1521.34C2973.59 1524.04 2975.78 1526.22 2978.47 1526.22H2994.25V1556.25H2974.57C2974.51 1556.07 2974.45 1555.9 2974.38 1555.72L2964.39 1530.64C2960.98 1522.08 2952.7 1516.47 2943.49 1516.47H2914.51C2905.3 1516.47 2897.02 1522.08 2893.61 1530.64L2883.62 1555.72C2883.55 1555.9 2883.49 1556.07 2883.43 1556.25H2863.75V1526.22H2879.53C2882.22 1526.22 2884.41 1524.04 2884.41 1521.34C2884.41 1518.65 2882.22 1516.47 2879.53 1516.47H2864.01C2865.19 1510.65 2870.33 1506.28 2876.5 1506.28ZM2893.91 1556.25H2964.09L2955.33 1534.25C2953.4 1529.4 2948.71 1526.22 2943.49 1526.22H2914.51C2909.29 1526.22 2904.6 1529.4 2902.67 1534.25L2893.91 1556.25Z" fill="black"/>
</g>
</g>
<g id="Heavy-L">
<g id="Outline / Car Outline_2">
<path id="Shape_2" fill-rule="evenodd" clip-rule="evenodd" d="M2666.11 1461C2674.53 1461 2682.25 1465.7 2686.11 1473.19L2701.68 1503.39C2705.59 1507.44 2708 1512.95 2708 1519.03L2708 1570.57C2708 1578.85 2701.28 1585.57 2693 1585.57H2685.62C2677.33 1585.57 2670.62 1578.85 2670.62 1570.57V1566H2595.38V1570.57C2595.38 1578.85 2588.67 1585.57 2580.38 1585.57H2573C2564.72 1585.57 2558 1578.85 2558 1570.57V1519.03C2558 1512.95 2560.41 1507.44 2564.32 1503.39L2579.89 1473.19C2583.75 1465.7 2591.47 1461 2599.89 1461H2666.11ZM2599.89 1470.75H2666.11C2670.88 1470.75 2675.25 1473.41 2677.44 1477.66L2687.03 1496.25H2578.97L2588.56 1477.66C2590.75 1473.41 2595.12 1470.75 2599.89 1470.75ZM2680.37 1566H2698.25V1570.57C2698.25 1573.47 2695.9 1575.82 2693 1575.82H2685.62C2682.72 1575.82 2680.37 1573.47 2680.37 1570.57V1566ZM2567.75 1566H2585.63V1570.57C2585.63 1573.47 2583.28 1575.82 2580.38 1575.82H2573C2570.1 1575.82 2567.75 1573.47 2567.75 1570.57V1566ZM2580.5 1506.28H2685.5C2691.67 1506.28 2696.81 1510.65 2697.99 1516.47H2682.47C2679.78 1516.47 2677.59 1518.65 2677.59 1521.34C2677.59 1524.04 2679.78 1526.22 2682.47 1526.22H2698.25V1556.25H2678.57C2678.51 1556.07 2678.45 1555.9 2678.38 1555.72L2668.39 1530.64C2664.98 1522.08 2656.7 1516.47 2647.49 1516.47H2618.51C2609.3 1516.47 2601.02 1522.08 2597.61 1530.64L2587.62 1555.72C2587.55 1555.9 2587.49 1556.07 2587.43 1556.25H2567.75V1526.22H2583.53C2586.22 1526.22 2588.41 1524.04 2588.41 1521.34C2588.41 1518.65 2586.22 1516.47 2583.53 1516.47H2568.01C2569.19 1510.65 2574.33 1506.28 2580.5 1506.28ZM2597.91 1556.25H2668.09L2659.33 1534.25C2657.4 1529.4 2652.71 1526.22 2647.49 1526.22H2618.51C2613.29 1526.22 2608.6 1529.4 2606.67 1534.25L2597.91 1556.25Z" fill="black"/>
</g>
</g>
<g id="Bold-L">
<g id="Outline / Car Outline_3">
<path id="Shape_3" fill-rule="evenodd" clip-rule="evenodd" d="M2370.11 1461C2378.53 1461 2386.25 1465.7 2390.11 1473.19L2405.68 1503.39C2409.59 1507.44 2412 1512.95 2412 1519.03L2412 1570.57C2412 1578.85 2405.28 1585.57 2397 1585.57H2389.62C2381.33 1585.57 2374.62 1578.85 2374.62 1570.57V1566H2299.38V1570.57C2299.38 1578.85 2292.67 1585.57 2284.38 1585.57H2277C2268.72 1585.57 2262 1578.85 2262 1570.57V1519.03C2262 1512.95 2264.41 1507.44 2268.32 1503.39L2283.89 1473.19C2287.75 1465.7 2295.47 1461 2303.89 1461H2370.11ZM2303.89 1470.75H2370.11C2374.88 1470.75 2379.25 1473.41 2381.44 1477.66L2391.03 1496.25H2282.97L2292.56 1477.66C2294.75 1473.41 2299.12 1470.75 2303.89 1470.75ZM2384.37 1566H2402.25V1570.57C2402.25 1573.47 2399.9 1575.82 2397 1575.82H2389.62C2386.72 1575.82 2384.37 1573.47 2384.37 1570.57V1566ZM2271.75 1566H2289.63V1570.57C2289.63 1573.47 2287.28 1575.82 2284.38 1575.82H2277C2274.1 1575.82 2271.75 1573.47 2271.75 1570.57V1566ZM2284.5 1506.28H2389.5C2395.67 1506.28 2400.81 1510.65 2401.99 1516.47H2386.47C2383.78 1516.47 2381.59 1518.65 2381.59 1521.34C2381.59 1524.04 2383.78 1526.22 2386.47 1526.22H2402.25V1556.25H2382.57C2382.51 1556.07 2382.45 1555.9 2382.38 1555.72L2372.39 1530.64C2368.98 1522.08 2360.7 1516.47 2351.49 1516.47H2322.51C2313.3 1516.47 2305.02 1522.08 2301.61 1530.64L2291.62 1555.72C2291.55 1555.9 2291.49 1556.07 2291.43 1556.25H2271.75V1526.22H2287.53C2290.22 1526.22 2292.41 1524.04 2292.41 1521.34C2292.41 1518.65 2290.22 1516.47 2287.53 1516.47H2272.01C2273.19 1510.65 2278.33 1506.28 2284.5 1506.28ZM2301.91 1556.25H2372.09L2363.33 1534.25C2361.4 1529.4 2356.71 1526.22 2351.49 1526.22H2322.51C2317.29 1526.22 2312.6 1529.4 2310.67 1534.25L2301.91 1556.25Z" fill="black"/>
</g>
</g>
<g id="Semibold-L">
<g id="Outline / Car Outline_4">
<path id="Shape_4" fill-rule="evenodd" clip-rule="evenodd" d="M2074.11 1461C2082.53 1461 2090.25 1465.7 2094.11 1473.19L2109.68 1503.39C2113.59 1507.44 2116 1512.95 2116 1519.03L2116 1570.57C2116 1578.85 2109.28 1585.57 2101 1585.57H2093.62C2085.33 1585.57 2078.62 1578.85 2078.62 1570.57V1566H2003.38V1570.57C2003.38 1578.85 1996.67 1585.57 1988.38 1585.57H1981C1972.72 1585.57 1966 1578.85 1966 1570.57V1519.03C1966 1512.95 1968.41 1507.44 1972.32 1503.39L1987.89 1473.19C1991.75 1465.7 1999.47 1461 2007.89 1461H2074.11ZM2007.89 1470.75H2074.11C2078.88 1470.75 2083.25 1473.41 2085.44 1477.66L2095.03 1496.25H1986.97L1996.56 1477.66C1998.75 1473.41 2003.12 1470.75 2007.89 1470.75ZM2088.37 1566H2106.25V1570.57C2106.25 1573.47 2103.9 1575.82 2101 1575.82H2093.62C2090.72 1575.82 2088.37 1573.47 2088.37 1570.57V1566ZM1975.75 1566H1993.63V1570.57C1993.63 1573.47 1991.28 1575.82 1988.38 1575.82H1981C1978.1 1575.82 1975.75 1573.47 1975.75 1570.57V1566ZM1988.5 1506.28H2093.5C2099.67 1506.28 2104.81 1510.65 2105.99 1516.47H2090.47C2087.78 1516.47 2085.59 1518.65 2085.59 1521.34C2085.59 1524.04 2087.78 1526.22 2090.47 1526.22H2106.25V1556.25H2086.57C2086.51 1556.07 2086.45 1555.9 2086.38 1555.72L2076.39 1530.64C2072.98 1522.08 2064.7 1516.47 2055.49 1516.47H2026.51C2017.3 1516.47 2009.02 1522.08 2005.61 1530.64L1995.62 1555.72C1995.55 1555.9 1995.49 1556.07 1995.43 1556.25H1975.75V1526.22H1991.53C1994.22 1526.22 1996.41 1524.04 1996.41 1521.34C1996.41 1518.65 1994.22 1516.47 1991.53 1516.47H1976.01C1977.19 1510.65 1982.33 1506.28 1988.5 1506.28ZM2005.91 1556.25H2076.09L2067.33 1534.25C2065.4 1529.4 2060.71 1526.22 2055.49 1526.22H2026.51C2021.29 1526.22 2016.6 1529.4 2014.67 1534.25L2005.91 1556.25Z" fill="black"/>
</g>
</g>
<g id="Medium-L">
<g id="Outline / Car Outline_5">
<path id="Shape_5" fill-rule="evenodd" clip-rule="evenodd" d="M1778.11 1461C1786.53 1461 1794.25 1465.7 1798.11 1473.19L1813.68 1503.39C1817.59 1507.44 1820 1512.95 1820 1519.03L1820 1570.57C1820 1578.85 1813.28 1585.57 1805 1585.57H1797.62C1789.33 1585.57 1782.62 1578.85 1782.62 1570.57V1566H1707.38V1570.57C1707.38 1578.85 1700.67 1585.57 1692.38 1585.57H1685C1676.72 1585.57 1670 1578.85 1670 1570.57V1519.03C1670 1512.95 1672.41 1507.44 1676.32 1503.39L1691.89 1473.19C1695.75 1465.7 1703.47 1461 1711.89 1461H1778.11ZM1711.89 1470.75H1778.11C1782.88 1470.75 1787.25 1473.41 1789.44 1477.66L1799.03 1496.25H1690.97L1700.56 1477.66C1702.75 1473.41 1707.12 1470.75 1711.89 1470.75ZM1792.37 1566H1810.25V1570.57C1810.25 1573.47 1807.9 1575.82 1805 1575.82H1797.62C1794.72 1575.82 1792.37 1573.47 1792.37 1570.57V1566ZM1679.75 1566H1697.63V1570.57C1697.63 1573.47 1695.28 1575.82 1692.38 1575.82H1685C1682.1 1575.82 1679.75 1573.47 1679.75 1570.57V1566ZM1692.5 1506.28H1797.5C1803.67 1506.28 1808.81 1510.65 1809.99 1516.47H1794.47C1791.78 1516.47 1789.59 1518.65 1789.59 1521.34C1789.59 1524.04 1791.78 1526.22 1794.47 1526.22H1810.25V1556.25H1790.57C1790.51 1556.07 1790.45 1555.9 1790.38 1555.72L1780.39 1530.64C1776.98 1522.08 1768.7 1516.47 1759.49 1516.47H1730.51C1721.3 1516.47 1713.02 1522.08 1709.61 1530.64L1699.62 1555.72C1699.55 1555.9 1699.49 1556.07 1699.43 1556.25H1679.75V1526.22H1695.53C1698.22 1526.22 1700.41 1524.04 1700.41 1521.34C1700.41 1518.65 1698.22 1516.47 1695.53 1516.47H1680.01C1681.19 1510.65 1686.33 1506.28 1692.5 1506.28ZM1709.91 1556.25H1780.09L1771.33 1534.25C1769.4 1529.4 1764.71 1526.22 1759.49 1526.22H1730.51C1725.29 1526.22 1720.6 1529.4 1718.67 1534.25L1709.91 1556.25Z" fill="black"/>
</g>
</g>
<g id="Regular-L">
<g id="Outline / Car Outline_6">
<path id="Shape_6" fill-rule="evenodd" clip-rule="evenodd" d="M1482.11 1461C1490.53 1461 1498.25 1465.7 1502.11 1473.19L1517.68 1503.39C1521.59 1507.44 1524 1512.95 1524 1519.03L1524 1570.57C1524 1578.85 1517.28 1585.57 1509 1585.57H1501.62C1493.33 1585.57 1486.62 1578.85 1486.62 1570.57V1566H1411.38V1570.57C1411.38 1578.85 1404.67 1585.57 1396.38 1585.57H1389C1380.72 1585.57 1374 1578.85 1374 1570.57V1519.03C1374 1512.95 1376.41 1507.44 1380.32 1503.39L1395.89 1473.19C1399.75 1465.7 1407.47 1461 1415.89 1461H1482.11ZM1415.89 1470.75H1482.11C1486.88 1470.75 1491.25 1473.41 1493.44 1477.66L1503.03 1496.25H1394.97L1404.56 1477.66C1406.75 1473.41 1411.12 1470.75 1415.89 1470.75ZM1496.37 1566H1514.25V1570.57C1514.25 1573.47 1511.9 1575.82 1509 1575.82H1501.62C1498.72 1575.82 1496.37 1573.47 1496.37 1570.57V1566ZM1383.75 1566H1401.63V1570.57C1401.63 1573.47 1399.28 1575.82 1396.38 1575.82H1389C1386.1 1575.82 1383.75 1573.47 1383.75 1570.57V1566ZM1396.5 1506.28H1501.5C1507.67 1506.28 1512.81 1510.65 1513.99 1516.47H1498.47C1495.78 1516.47 1493.59 1518.65 1493.59 1521.34C1493.59 1524.04 1495.78 1526.22 1498.47 1526.22H1514.25V1556.25H1494.57C1494.51 1556.07 1494.45 1555.9 1494.38 1555.72L1484.39 1530.64C1480.98 1522.08 1472.7 1516.47 1463.49 1516.47H1434.51C1425.3 1516.47 1417.02 1522.08 1413.61 1530.64L1403.62 1555.72C1403.55 1555.9 1403.49 1556.07 1403.43 1556.25H1383.75V1526.22H1399.53C1402.22 1526.22 1404.41 1524.04 1404.41 1521.34C1404.41 1518.65 1402.22 1516.47 1399.53 1516.47H1384.01C1385.19 1510.65 1390.33 1506.28 1396.5 1506.28ZM1413.91 1556.25H1484.09L1475.33 1534.25C1473.4 1529.4 1468.71 1526.22 1463.49 1526.22H1434.51C1429.29 1526.22 1424.6 1529.4 1422.67 1534.25L1413.91 1556.25Z" fill="black"/>
</g>
</g>
<g id="Light-L">
<g id="Outline / Car Outline_7">
<path id="Shape_7" fill-rule="evenodd" clip-rule="evenodd" d="M1186.11 1461C1194.53 1461 1202.25 1465.7 1206.11 1473.19L1221.68 1503.39C1225.59 1507.44 1228 1512.95 1228 1519.03L1228 1570.57C1228 1578.85 1221.28 1585.57 1213 1585.57H1205.62C1197.33 1585.57 1190.62 1578.85 1190.62 1570.57V1566H1115.38V1570.57C1115.38 1578.85 1108.67 1585.57 1100.38 1585.57H1093C1084.72 1585.57 1078 1578.85 1078 1570.57V1519.03C1078 1512.95 1080.41 1507.44 1084.32 1503.39L1099.89 1473.19C1103.75 1465.7 1111.47 1461 1119.89 1461H1186.11ZM1119.89 1470.75H1186.11C1190.88 1470.75 1195.25 1473.41 1197.44 1477.66L1207.03 1496.25H1098.97L1108.56 1477.66C1110.75 1473.41 1115.12 1470.75 1119.89 1470.75ZM1200.37 1566H1218.25V1570.57C1218.25 1573.47 1215.9 1575.82 1213 1575.82H1205.62C1202.72 1575.82 1200.37 1573.47 1200.37 1570.57V1566ZM1087.75 1566H1105.63V1570.57C1105.63 1573.47 1103.28 1575.82 1100.38 1575.82H1093C1090.1 1575.82 1087.75 1573.47 1087.75 1570.57V1566ZM1100.5 1506.28H1205.5C1211.67 1506.28 1216.81 1510.65 1217.99 1516.47H1202.47C1199.78 1516.47 1197.59 1518.65 1197.59 1521.34C1197.59 1524.04 1199.78 1526.22 1202.47 1526.22H1218.25V1556.25H1198.57C1198.51 1556.07 1198.45 1555.9 1198.38 1555.72L1188.39 1530.64C1184.98 1522.08 1176.7 1516.47 1167.49 1516.47H1138.51C1129.3 1516.47 1121.02 1522.08 1117.61 1530.64L1107.62 1555.72C1107.55 1555.9 1107.49 1556.07 1107.43 1556.25H1087.75V1526.22H1103.53C1106.22 1526.22 1108.41 1524.04 1108.41 1521.34C1108.41 1518.65 1106.22 1516.47 1103.53 1516.47H1088.01C1089.19 1510.65 1094.33 1506.28 1100.5 1506.28ZM1117.91 1556.25H1188.09L1179.33 1534.25C1177.4 1529.4 1172.71 1526.22 1167.49 1526.22H1138.51C1133.29 1526.22 1128.6 1529.4 1126.67 1534.25L1117.91 1556.25Z" fill="black"/>
</g>
</g>
<g id="Thin-L">
<g id="Outline / Car Outline_8">
<path id="Shape_8" fill-rule="evenodd" clip-rule="evenodd" d="M890.108 1461C898.53 1461 906.246 1465.7 910.106 1473.19L925.682 1503.39C929.593 1507.44 932 1512.95 932 1519.03L932 1570.57C932 1578.85 925.284 1585.57 917 1585.57H909.617C901.333 1585.57 894.617 1578.85 894.617 1570.57V1566H819.383V1570.57C819.383 1578.85 812.667 1585.57 804.383 1585.57H797C788.716 1585.57 782 1578.85 782 1570.57V1519.03C782 1512.95 784.407 1507.44 788.318 1503.39L803.894 1473.19C807.754 1465.7 815.47 1461 823.892 1461H890.108ZM823.892 1470.75H890.108C894.88 1470.75 899.253 1473.41 901.44 1477.66L911.029 1496.25H802.971L812.56 1477.66C814.747 1473.41 819.12 1470.75 823.892 1470.75ZM904.367 1566H922.25V1570.57C922.25 1573.47 919.899 1575.82 917 1575.82H909.617C906.718 1575.82 904.367 1573.47 904.367 1570.57V1566ZM791.75 1566H809.633V1570.57C809.633 1573.47 807.282 1575.82 804.383 1575.82H797C794.101 1575.82 791.75 1573.47 791.75 1570.57V1566ZM804.5 1506.28H909.5C915.666 1506.28 920.811 1510.65 921.994 1516.47H906.47C903.777 1516.47 901.595 1518.65 901.595 1521.34C901.595 1524.04 903.777 1526.22 906.47 1526.22H922.25V1556.25H902.566C902.51 1556.07 902.448 1555.9 902.378 1555.72L892.389 1530.64C888.98 1522.08 880.698 1516.47 871.485 1516.47H842.515C833.302 1516.47 825.02 1522.08 821.611 1530.64L811.622 1555.72C811.552 1555.9 811.49 1556.07 811.434 1556.25H791.75V1526.22H807.53C810.223 1526.22 812.405 1524.04 812.405 1521.34C812.405 1518.65 810.223 1516.47 807.53 1516.47H792.006C793.189 1510.65 798.333 1506.28 804.5 1506.28ZM821.908 1556.25H892.092L883.331 1534.25C881.399 1529.4 876.706 1526.22 871.485 1526.22H842.515C837.294 1526.22 832.601 1529.4 830.669 1534.25L821.908 1556.25Z" fill="black"/>
</g>
</g>
<g id="Ultralight-L">
<g id="Outline / Car Outline_9">
<path id="Shape_9" fill-rule="evenodd" clip-rule="evenodd" d="M594.108 1461C602.53 1461 610.246 1465.7 614.106 1473.19L629.682 1503.39C633.593 1507.44 636 1512.95 636 1519.03L636 1570.57C636 1578.85 629.284 1585.57 621 1585.57H613.617C605.333 1585.57 598.617 1578.85 598.617 1570.57V1566H523.383V1570.57C523.383 1578.85 516.667 1585.57 508.383 1585.57H501C492.716 1585.57 486 1578.85 486 1570.57V1519.03C486 1512.95 488.407 1507.44 492.318 1503.39L507.894 1473.19C511.754 1465.7 519.47 1461 527.892 1461H594.108ZM527.892 1470.75H594.108C598.88 1470.75 603.253 1473.41 605.44 1477.66L615.029 1496.25H506.971L516.56 1477.66C518.747 1473.41 523.12 1470.75 527.892 1470.75ZM608.367 1566H626.25V1570.57C626.25 1573.47 623.899 1575.82 621 1575.82H613.617C610.718 1575.82 608.367 1573.47 608.367 1570.57V1566ZM495.75 1566H513.633V1570.57C513.633 1573.47 511.282 1575.82 508.383 1575.82H501C498.101 1575.82 495.75 1573.47 495.75 1570.57V1566ZM508.5 1506.28H613.5C619.666 1506.28 624.811 1510.65 625.994 1516.47H610.47C607.777 1516.47 605.595 1518.65 605.595 1521.34C605.595 1524.04 607.777 1526.22 610.47 1526.22H626.25V1556.25H606.566C606.51 1556.07 606.448 1555.9 606.378 1555.72L596.389 1530.64C592.98 1522.08 584.698 1516.47 575.485 1516.47H546.515C537.302 1516.47 529.02 1522.08 525.611 1530.64L515.622 1555.72C515.552 1555.9 515.49 1556.07 515.434 1556.25H495.75V1526.22H511.53C514.223 1526.22 516.405 1524.04 516.405 1521.34C516.405 1518.65 514.223 1516.47 511.53 1516.47H496.006C497.189 1510.65 502.333 1506.28 508.5 1506.28ZM525.908 1556.25H596.092L587.331 1534.25C585.399 1529.4 580.706 1526.22 575.485 1526.22H546.515C541.294 1526.22 536.601 1529.4 534.669 1534.25L525.908 1556.25Z" fill="black"/>
</g>
</g>
<g id="Black-M">
<g id="Outline / Car Outline_10">
<path id="Shape_10" fill-rule="evenodd" clip-rule="evenodd" d="M2954.75 1044.33C2961.3 1044.33 2967.3 1047.99 2970.3 1053.81L2982.42 1077.3C2985.46 1080.45 2987.33 1084.74 2987.33 1089.46L2987.33 1129.55C2987.33 1136 2982.11 1141.22 2975.67 1141.22H2969.92C2963.48 1141.22 2958.26 1136 2958.26 1129.55V1126H2899.74V1129.55C2899.74 1136 2894.52 1141.22 2888.08 1141.22H2882.33C2875.89 1141.22 2870.67 1136 2870.67 1129.55V1089.46C2870.67 1084.74 2872.54 1080.45 2875.58 1077.3L2887.7 1053.81C2890.7 1047.99 2896.7 1044.33 2903.25 1044.33H2954.75ZM2903.25 1051.92H2954.75C2958.46 1051.92 2961.86 1053.99 2963.57 1057.29L2971.02 1071.75H2886.98L2894.44 1057.29C2896.14 1053.99 2899.54 1051.92 2903.25 1051.92ZM2965.84 1126H2979.75V1129.55C2979.75 1131.81 2977.92 1133.64 2975.67 1133.64H2969.92C2967.67 1133.64 2965.84 1131.81 2965.84 1129.55V1126ZM2878.25 1126H2892.16V1129.55C2892.16 1131.81 2890.33 1133.64 2888.08 1133.64H2882.33C2880.08 1133.64 2878.25 1131.81 2878.25 1129.55V1126ZM2888.17 1079.55H2969.83C2974.63 1079.55 2978.63 1082.95 2979.55 1087.48H2967.48C2965.38 1087.48 2963.69 1089.17 2963.69 1091.27C2963.69 1093.36 2965.38 1095.06 2967.48 1095.06H2979.75V1118.42H2964.44C2964.4 1118.28 2964.35 1118.14 2964.29 1118.01L2956.52 1098.5C2953.87 1091.84 2947.43 1087.47 2940.27 1087.47H2917.73C2910.57 1087.47 2904.13 1091.84 2901.48 1098.5L2893.71 1118.01C2893.65 1118.14 2893.6 1118.28 2893.56 1118.42H2878.25V1095.06H2890.52C2892.62 1095.06 2894.32 1093.36 2894.32 1091.27C2894.32 1089.17 2892.62 1087.48 2890.52 1087.48H2878.45C2879.37 1082.95 2883.37 1079.55 2888.17 1079.55ZM2901.71 1118.42H2956.29L2949.48 1101.3C2947.98 1097.53 2944.33 1095.06 2940.27 1095.06H2917.73C2913.67 1095.06 2910.02 1097.53 2908.52 1101.3L2901.71 1118.42Z" fill="black"/>
</g>
</g>
<g id="Heavy-M">
<g id="Outline / Car Outline_11">
<path id="Shape_11" fill-rule="evenodd" clip-rule="evenodd" d="M2658.75 1044.33C2665.3 1044.33 2671.3 1047.99 2674.3 1053.81L2686.42 1077.3C2689.46 1080.45 2691.33 1084.74 2691.33 1089.46L2691.33 1129.55C2691.33 1136 2686.11 1141.22 2679.67 1141.22H2673.92C2667.48 1141.22 2662.26 1136 2662.26 1129.55V1126H2603.74V1129.55C2603.74 1136 2598.52 1141.22 2592.08 1141.22H2586.33C2579.89 1141.22 2574.67 1136 2574.67 1129.55V1089.46C2574.67 1084.74 2576.54 1080.45 2579.58 1077.3L2591.7 1053.81C2594.7 1047.99 2600.7 1044.33 2607.25 1044.33H2658.75ZM2607.25 1051.92H2658.75C2662.46 1051.92 2665.86 1053.99 2667.57 1057.29L2675.02 1071.75H2590.98L2598.44 1057.29C2600.14 1053.99 2603.54 1051.92 2607.25 1051.92ZM2669.84 1126H2683.75V1129.55C2683.75 1131.81 2681.92 1133.64 2679.67 1133.64H2673.92C2671.67 1133.64 2669.84 1131.81 2669.84 1129.55V1126ZM2582.25 1126H2596.16V1129.55C2596.16 1131.81 2594.33 1133.64 2592.08 1133.64H2586.33C2584.08 1133.64 2582.25 1131.81 2582.25 1129.55V1126ZM2592.17 1079.55H2673.83C2678.63 1079.55 2682.63 1082.95 2683.55 1087.48H2671.48C2669.38 1087.48 2667.69 1089.17 2667.69 1091.27C2667.69 1093.36 2669.38 1095.06 2671.48 1095.06H2683.75V1118.42H2668.44C2668.4 1118.28 2668.35 1118.14 2668.29 1118.01L2660.52 1098.5C2657.87 1091.84 2651.43 1087.47 2644.27 1087.47H2621.73C2614.57 1087.47 2608.13 1091.84 2605.48 1098.5L2597.71 1118.01C2597.65 1118.14 2597.6 1118.28 2597.56 1118.42H2582.25V1095.06H2594.52C2596.62 1095.06 2598.32 1093.36 2598.32 1091.27C2598.32 1089.17 2596.62 1087.48 2594.52 1087.48H2582.45C2583.37 1082.95 2587.37 1079.55 2592.17 1079.55ZM2605.71 1118.42H2660.29L2653.48 1101.3C2651.98 1097.53 2648.33 1095.06 2644.27 1095.06H2621.73C2617.67 1095.06 2614.02 1097.53 2612.52 1101.3L2605.71 1118.42Z" fill="black"/>
</g>
</g>
<g id="Bold-M">
<g id="Outline / Car Outline_12">
<path id="Shape_12" fill-rule="evenodd" clip-rule="evenodd" d="M2362.75 1044.33C2369.3 1044.33 2375.3 1047.99 2378.3 1053.81L2390.42 1077.3C2393.46 1080.45 2395.33 1084.74 2395.33 1089.46L2395.33 1129.55C2395.33 1136 2390.11 1141.22 2383.67 1141.22H2377.92C2371.48 1141.22 2366.26 1136 2366.26 1129.55V1126H2307.74V1129.55C2307.74 1136 2302.52 1141.22 2296.08 1141.22H2290.33C2283.89 1141.22 2278.67 1136 2278.67 1129.55V1089.46C2278.67 1084.74 2280.54 1080.45 2283.58 1077.3L2295.7 1053.81C2298.7 1047.99 2304.7 1044.33 2311.25 1044.33H2362.75ZM2311.25 1051.92H2362.75C2366.46 1051.92 2369.86 1053.99 2371.57 1057.29L2379.02 1071.75H2294.98L2302.44 1057.29C2304.14 1053.99 2307.54 1051.92 2311.25 1051.92ZM2373.84 1126H2387.75V1129.55C2387.75 1131.81 2385.92 1133.64 2383.67 1133.64H2377.92C2375.67 1133.64 2373.84 1131.81 2373.84 1129.55V1126ZM2286.25 1126H2300.16V1129.55C2300.16 1131.81 2298.33 1133.64 2296.08 1133.64H2290.33C2288.08 1133.64 2286.25 1131.81 2286.25 1129.55V1126ZM2296.17 1079.55H2377.83C2382.63 1079.55 2386.63 1082.95 2387.55 1087.48H2375.48C2373.38 1087.48 2371.69 1089.17 2371.69 1091.27C2371.69 1093.36 2373.38 1095.06 2375.48 1095.06H2387.75V1118.42H2372.44C2372.4 1118.28 2372.35 1118.14 2372.29 1118.01L2364.52 1098.5C2361.87 1091.84 2355.43 1087.47 2348.27 1087.47H2325.73C2318.57 1087.47 2312.13 1091.84 2309.48 1098.5L2301.71 1118.01C2301.65 1118.14 2301.6 1118.28 2301.56 1118.42H2286.25V1095.06H2298.52C2300.62 1095.06 2302.32 1093.36 2302.32 1091.27C2302.32 1089.17 2300.62 1087.48 2298.52 1087.48H2286.45C2287.37 1082.95 2291.37 1079.55 2296.17 1079.55ZM2309.71 1118.42H2364.29L2357.48 1101.3C2355.98 1097.53 2352.33 1095.06 2348.27 1095.06H2325.73C2321.67 1095.06 2318.02 1097.53 2316.52 1101.3L2309.71 1118.42Z" fill="black"/>
</g>
</g>
<g id="Semibold-M">
<g id="Outline / Car Outline_13">
<path id="Shape_13" fill-rule="evenodd" clip-rule="evenodd" d="M2066.75 1044.33C2073.3 1044.33 2079.3 1047.99 2082.3 1053.81L2094.42 1077.3C2097.46 1080.45 2099.33 1084.74 2099.33 1089.46L2099.33 1129.55C2099.33 1136 2094.11 1141.22 2087.67 1141.22H2081.92C2075.48 1141.22 2070.26 1136 2070.26 1129.55V1126H2011.74V1129.55C2011.74 1136 2006.52 1141.22 2000.08 1141.22H1994.33C1987.89 1141.22 1982.67 1136 1982.67 1129.55V1089.46C1982.67 1084.74 1984.54 1080.45 1987.58 1077.3L1999.7 1053.81C2002.7 1047.99 2008.7 1044.33 2015.25 1044.33H2066.75ZM2015.25 1051.92H2066.75C2070.46 1051.92 2073.86 1053.99 2075.57 1057.29L2083.02 1071.75H1998.98L2006.44 1057.29C2008.14 1053.99 2011.54 1051.92 2015.25 1051.92ZM2077.84 1126H2091.75V1129.55C2091.75 1131.81 2089.92 1133.64 2087.67 1133.64H2081.92C2079.67 1133.64 2077.84 1131.81 2077.84 1129.55V1126ZM1990.25 1126H2004.16V1129.55C2004.16 1131.81 2002.33 1133.64 2000.08 1133.64H1994.33C1992.08 1133.64 1990.25 1131.81 1990.25 1129.55V1126ZM2000.17 1079.55H2081.83C2086.63 1079.55 2090.63 1082.95 2091.55 1087.48H2079.48C2077.38 1087.48 2075.69 1089.17 2075.69 1091.27C2075.69 1093.36 2077.38 1095.06 2079.48 1095.06H2091.75V1118.42H2076.44C2076.4 1118.28 2076.35 1118.14 2076.29 1118.01L2068.52 1098.5C2065.87 1091.84 2059.43 1087.47 2052.27 1087.47H2029.73C2022.57 1087.47 2016.13 1091.84 2013.48 1098.5L2005.71 1118.01C2005.65 1118.14 2005.6 1118.28 2005.56 1118.42H1990.25V1095.06H2002.52C2004.62 1095.06 2006.32 1093.36 2006.32 1091.27C2006.32 1089.17 2004.62 1087.48 2002.52 1087.48H1990.45C1991.37 1082.95 1995.37 1079.55 2000.17 1079.55ZM2013.71 1118.42H2068.29L2061.48 1101.3C2059.98 1097.53 2056.33 1095.06 2052.27 1095.06H2029.73C2025.67 1095.06 2022.02 1097.53 2020.52 1101.3L2013.71 1118.42Z" fill="black"/>
</g>
</g>
<g id="Medium-M">
<g id="Outline / Car Outline_14">
<path id="Shape_14" fill-rule="evenodd" clip-rule="evenodd" d="M1770.75 1044.33C1777.3 1044.33 1783.3 1047.99 1786.3 1053.81L1798.42 1077.3C1801.46 1080.45 1803.33 1084.74 1803.33 1089.46L1803.33 1129.55C1803.33 1136 1798.11 1141.22 1791.67 1141.22H1785.92C1779.48 1141.22 1774.26 1136 1774.26 1129.55V1126H1715.74V1129.55C1715.74 1136 1710.52 1141.22 1704.08 1141.22H1698.33C1691.89 1141.22 1686.67 1136 1686.67 1129.55V1089.46C1686.67 1084.74 1688.54 1080.45 1691.58 1077.3L1703.7 1053.81C1706.7 1047.99 1712.7 1044.33 1719.25 1044.33H1770.75ZM1719.25 1051.92H1770.75C1774.46 1051.92 1777.86 1053.99 1779.57 1057.29L1787.02 1071.75H1702.98L1710.44 1057.29C1712.14 1053.99 1715.54 1051.92 1719.25 1051.92ZM1781.84 1126H1795.75V1129.55C1795.75 1131.81 1793.92 1133.64 1791.67 1133.64H1785.92C1783.67 1133.64 1781.84 1131.81 1781.84 1129.55V1126ZM1694.25 1126H1708.16V1129.55C1708.16 1131.81 1706.33 1133.64 1704.08 1133.64H1698.33C1696.08 1133.64 1694.25 1131.81 1694.25 1129.55V1126ZM1704.17 1079.55H1785.83C1790.63 1079.55 1794.63 1082.95 1795.55 1087.48H1783.48C1781.38 1087.48 1779.69 1089.17 1779.69 1091.27C1779.69 1093.36 1781.38 1095.06 1783.48 1095.06H1795.75V1118.42H1780.44C1780.4 1118.28 1780.35 1118.14 1780.29 1118.01L1772.52 1098.5C1769.87 1091.84 1763.43 1087.47 1756.27 1087.47H1733.73C1726.57 1087.47 1720.13 1091.84 1717.48 1098.5L1709.71 1118.01C1709.65 1118.14 1709.6 1118.28 1709.56 1118.42H1694.25V1095.06H1706.52C1708.62 1095.06 1710.32 1093.36 1710.32 1091.27C1710.32 1089.17 1708.62 1087.48 1706.52 1087.48H1694.45C1695.37 1082.95 1699.37 1079.55 1704.17 1079.55ZM1717.71 1118.42H1772.29L1765.48 1101.3C1763.98 1097.53 1760.33 1095.06 1756.27 1095.06H1733.73C1729.67 1095.06 1726.02 1097.53 1724.52 1101.3L1717.71 1118.42Z" fill="black"/>
</g>
</g>
<g id="Regular-M">
<g id="Outline / Car Outline_15">
<path id="Shape_15" fill-rule="evenodd" clip-rule="evenodd" d="M1474.75 1044.33C1481.3 1044.33 1487.3 1047.99 1490.3 1053.81L1502.42 1077.3C1505.46 1080.45 1507.33 1084.74 1507.33 1089.46L1507.33 1129.55C1507.33 1136 1502.11 1141.22 1495.67 1141.22H1489.92C1483.48 1141.22 1478.26 1136 1478.26 1129.55V1126H1419.74V1129.55C1419.74 1136 1414.52 1141.22 1408.08 1141.22H1402.33C1395.89 1141.22 1390.67 1136 1390.67 1129.55V1089.46C1390.67 1084.74 1392.54 1080.45 1395.58 1077.3L1407.7 1053.81C1410.7 1047.99 1416.7 1044.33 1423.25 1044.33H1474.75ZM1423.25 1051.92H1474.75C1478.46 1051.92 1481.86 1053.99 1483.57 1057.29L1491.02 1071.75H1406.98L1414.44 1057.29C1416.14 1053.99 1419.54 1051.92 1423.25 1051.92ZM1485.84 1126H1499.75V1129.55C1499.75 1131.81 1497.92 1133.64 1495.67 1133.64H1489.92C1487.67 1133.64 1485.84 1131.81 1485.84 1129.55V1126ZM1398.25 1126H1412.16V1129.55C1412.16 1131.81 1410.33 1133.64 1408.08 1133.64H1402.33C1400.08 1133.64 1398.25 1131.81 1398.25 1129.55V1126ZM1408.17 1079.55H1489.83C1494.63 1079.55 1498.63 1082.95 1499.55 1087.48H1487.48C1485.38 1087.48 1483.69 1089.17 1483.69 1091.27C1483.69 1093.36 1485.38 1095.06 1487.48 1095.06H1499.75V1118.42H1484.44C1484.4 1118.28 1484.35 1118.14 1484.29 1118.01L1476.52 1098.5C1473.87 1091.84 1467.43 1087.47 1460.27 1087.47H1437.73C1430.57 1087.47 1424.13 1091.84 1421.48 1098.5L1413.71 1118.01C1413.65 1118.14 1413.6 1118.28 1413.56 1118.42H1398.25V1095.06H1410.52C1412.62 1095.06 1414.32 1093.36 1414.32 1091.27C1414.32 1089.17 1412.62 1087.48 1410.52 1087.48H1398.45C1399.37 1082.95 1403.37 1079.55 1408.17 1079.55ZM1421.71 1118.42H1476.29L1469.48 1101.3C1467.98 1097.53 1464.33 1095.06 1460.27 1095.06H1437.73C1433.67 1095.06 1430.02 1097.53 1428.52 1101.3L1421.71 1118.42Z" fill="black"/>
</g>
</g>
<g id="Light-M">
<g id="Outline / Car Outline_16">
<path id="Shape_16" fill-rule="evenodd" clip-rule="evenodd" d="M1178.75 1044.33C1185.3 1044.33 1191.3 1047.99 1194.3 1053.81L1206.42 1077.3C1209.46 1080.45 1211.33 1084.74 1211.33 1089.46L1211.33 1129.55C1211.33 1136 1206.11 1141.22 1199.67 1141.22H1193.92C1187.48 1141.22 1182.26 1136 1182.26 1129.55V1126H1123.74V1129.55C1123.74 1136 1118.52 1141.22 1112.08 1141.22H1106.33C1099.89 1141.22 1094.67 1136 1094.67 1129.55V1089.46C1094.67 1084.74 1096.54 1080.45 1099.58 1077.3L1111.7 1053.81C1114.7 1047.99 1120.7 1044.33 1127.25 1044.33H1178.75ZM1127.25 1051.92H1178.75C1182.46 1051.92 1185.86 1053.99 1187.57 1057.29L1195.02 1071.75H1110.98L1118.44 1057.29C1120.14 1053.99 1123.54 1051.92 1127.25 1051.92ZM1189.84 1126H1203.75V1129.55C1203.75 1131.81 1201.92 1133.64 1199.67 1133.64H1193.92C1191.67 1133.64 1189.84 1131.81 1189.84 1129.55V1126ZM1102.25 1126H1116.16V1129.55C1116.16 1131.81 1114.33 1133.64 1112.08 1133.64H1106.33C1104.08 1133.64 1102.25 1131.81 1102.25 1129.55V1126ZM1112.17 1079.55H1193.83C1198.63 1079.55 1202.63 1082.95 1203.55 1087.48H1191.48C1189.38 1087.48 1187.69 1089.17 1187.69 1091.27C1187.69 1093.36 1189.38 1095.06 1191.48 1095.06H1203.75V1118.42H1188.44C1188.4 1118.28 1188.35 1118.14 1188.29 1118.01L1180.52 1098.5C1177.87 1091.84 1171.43 1087.47 1164.27 1087.47H1141.73C1134.57 1087.47 1128.13 1091.84 1125.48 1098.5L1117.71 1118.01C1117.65 1118.14 1117.6 1118.28 1117.56 1118.42H1102.25V1095.06H1114.52C1116.62 1095.06 1118.32 1093.36 1118.32 1091.27C1118.32 1089.17 1116.62 1087.48 1114.52 1087.48H1102.45C1103.37 1082.95 1107.37 1079.55 1112.17 1079.55ZM1125.71 1118.42H1180.29L1173.48 1101.3C1171.98 1097.53 1168.33 1095.06 1164.27 1095.06H1141.73C1137.67 1095.06 1134.02 1097.53 1132.52 1101.3L1125.71 1118.42Z" fill="black"/>
</g>
</g>
<g id="Thin-M">
<g id="Outline / Car Outline_17">
<path id="Shape_17" fill-rule="evenodd" clip-rule="evenodd" d="M882.751 1044.33C889.301 1044.33 895.303 1047.99 898.305 1053.81L910.419 1077.3C913.462 1080.45 915.334 1084.74 915.334 1089.46L915.334 1129.55C915.334 1136 910.11 1141.22 903.667 1141.22H897.925C891.481 1141.22 886.258 1136 886.258 1129.55V1126H827.742V1129.55C827.742 1136 822.519 1141.22 816.076 1141.22H810.334C803.89 1141.22 798.667 1136 798.667 1129.55V1089.46C798.667 1084.74 800.539 1080.45 803.581 1077.3L815.696 1053.81C818.698 1047.99 824.699 1044.33 831.249 1044.33H882.751ZM831.249 1051.92H882.751C886.463 1051.92 889.864 1053.99 891.565 1057.29L899.023 1071.75H814.978L822.436 1057.29C824.137 1053.99 827.538 1051.92 831.249 1051.92ZM893.841 1126H907.75V1129.55C907.75 1131.81 905.922 1133.64 903.667 1133.64H897.925C895.67 1133.64 893.841 1131.81 893.841 1129.55V1126ZM806.25 1126H820.159V1129.55C820.159 1131.81 818.331 1133.64 816.076 1133.64H810.334C808.078 1133.64 806.25 1131.81 806.25 1129.55V1126ZM816.167 1079.55H897.834C902.63 1079.55 906.631 1082.95 907.551 1087.48H895.477C893.383 1087.48 891.685 1089.17 891.685 1091.27C891.685 1093.36 893.383 1095.06 895.477 1095.06H907.75V1118.42H892.44C892.397 1118.28 892.348 1118.14 892.294 1118.01L884.525 1098.5C881.874 1091.84 875.432 1087.47 868.267 1087.47H845.734C838.568 1087.47 832.127 1091.84 829.476 1098.5L821.706 1118.01C821.652 1118.14 821.604 1118.28 821.56 1118.42H806.25V1095.06H818.524C820.618 1095.06 822.315 1093.36 822.315 1091.27C822.315 1089.17 820.618 1087.48 818.524 1087.48H806.45C807.37 1082.95 811.371 1079.55 816.167 1079.55ZM829.706 1118.42H884.294L877.48 1101.3C875.977 1097.53 872.327 1095.06 868.267 1095.06H845.734C841.674 1095.06 838.023 1097.53 836.521 1101.3L829.706 1118.42Z" fill="black"/>
</g>
</g>
<g id="Ultralight-M">
<g id="Outline / Car Outline_18">
<path id="Shape_18" fill-rule="evenodd" clip-rule="evenodd" d="M586.751 1044.33C593.301 1044.33 599.303 1047.99 602.305 1053.81L614.419 1077.3C617.462 1080.45 619.334 1084.74 619.334 1089.46L619.334 1129.55C619.334 1136 614.11 1141.22 607.667 1141.22H601.925C595.481 1141.22 590.258 1136 590.258 1129.55V1126H531.742V1129.55C531.742 1136 526.519 1141.22 520.076 1141.22H514.334C507.89 1141.22 502.667 1136 502.667 1129.55V1089.46C502.667 1084.74 504.539 1080.45 507.581 1077.3L519.696 1053.81C522.698 1047.99 528.699 1044.33 535.249 1044.33H586.751ZM535.249 1051.92H586.751C590.463 1051.92 593.864 1053.99 595.565 1057.29L603.023 1071.75H518.978L526.436 1057.29C528.137 1053.99 531.538 1051.92 535.249 1051.92ZM597.841 1126H611.75V1129.55C611.75 1131.81 609.922 1133.64 607.667 1133.64H601.925C599.67 1133.64 597.841 1131.81 597.841 1129.55V1126ZM510.25 1126H524.159V1129.55C524.159 1131.81 522.331 1133.64 520.076 1133.64H514.334C512.078 1133.64 510.25 1131.81 510.25 1129.55V1126ZM520.167 1079.55H601.834C606.63 1079.55 610.631 1082.95 611.551 1087.48H599.477C597.383 1087.48 595.685 1089.17 595.685 1091.27C595.685 1093.36 597.383 1095.06 599.477 1095.06H611.75V1118.42H596.44C596.397 1118.28 596.348 1118.14 596.294 1118.01L588.525 1098.5C585.874 1091.84 579.432 1087.47 572.267 1087.47H549.734C542.568 1087.47 536.127 1091.84 533.476 1098.5L525.706 1118.01C525.652 1118.14 525.604 1118.28 525.56 1118.42H510.25V1095.06H522.524C524.618 1095.06 526.315 1093.36 526.315 1091.27C526.315 1089.17 524.618 1087.48 522.524 1087.48H510.45C511.37 1082.95 515.371 1079.55 520.167 1079.55ZM533.706 1118.42H588.294L581.48 1101.3C579.977 1097.53 576.327 1095.06 572.267 1095.06H549.734C545.674 1095.06 542.023 1097.53 540.521 1101.3L533.706 1118.42Z" fill="black"/>
</g>
</g>
<g id="Black-S">
<g id="Outline / Car Outline_19">
<path id="Shape_19" fill-rule="evenodd" clip-rule="evenodd" d="M2947.39 627.668C2952.07 627.668 2956.36 630.281 2958.5 634.439L2967.16 651.219C2969.33 653.468 2970.67 656.53 2970.67 659.904L2970.67 688.54C2970.67 693.142 2966.94 696.873 2962.33 696.873H2958.23C2953.63 696.873 2949.9 693.142 2949.9 688.54V686.001H2908.1V688.54C2908.1 693.142 2904.37 696.873 2899.77 696.873H2895.67C2891.06 696.873 2887.33 693.142 2887.33 688.54V659.904C2887.33 656.53 2888.67 653.468 2890.84 651.219L2899.5 634.439C2901.64 630.281 2905.93 627.668 2910.61 627.668H2947.39ZM2910.61 633.085H2947.39C2950.04 633.085 2952.47 634.565 2953.69 636.921L2959.02 647.251H2898.98L2904.31 636.921C2905.53 634.565 2907.96 633.085 2910.61 633.085ZM2955.31 686.001H2965.25V688.54C2965.25 690.151 2963.94 691.457 2962.33 691.457H2958.23C2956.62 691.457 2955.31 690.151 2955.31 688.54V686.001ZM2892.75 686.001H2902.68V688.54C2902.68 690.151 2901.38 691.457 2899.77 691.457H2895.67C2894.06 691.457 2892.75 690.151 2892.75 688.54V686.001ZM2899.83 652.821H2958.17C2961.59 652.821 2964.45 655.253 2965.11 658.485H2956.48C2954.99 658.485 2953.77 659.697 2953.77 661.193C2953.77 662.689 2954.99 663.901 2956.48 663.901H2965.25V680.584H2954.31C2954.28 680.487 2954.25 680.39 2954.21 680.293L2948.66 666.357C2946.77 661.602 2942.17 658.482 2937.05 658.482H2920.95C2915.83 658.482 2911.23 661.602 2909.34 666.357L2903.79 680.293C2903.75 680.39 2903.72 680.487 2903.69 680.584H2892.75V663.901H2901.52C2903.01 663.901 2904.22 662.689 2904.22 661.193C2904.22 659.697 2903.01 658.485 2901.52 658.485H2892.89C2893.55 655.253 2896.41 652.821 2899.83 652.821ZM2909.5 680.584H2948.5L2943.63 668.361C2942.55 665.667 2939.95 663.899 2937.05 663.899H2920.95C2918.05 663.899 2915.44 665.667 2914.37 668.361L2909.5 680.584Z" fill="black"/>
</g>
</g>
<g id="Heavy-S">
<g id="Outline / Car Outline_20">
<path id="Shape_20" fill-rule="evenodd" clip-rule="evenodd" d="M2651.39 627.668C2656.07 627.668 2660.36 630.281 2662.5 634.439L2671.16 651.219C2673.33 653.468 2674.67 656.53 2674.67 659.904L2674.67 688.54C2674.67 693.142 2670.94 696.873 2666.33 696.873H2662.23C2657.63 696.873 2653.9 693.142 2653.9 688.54V686.001H2612.1V688.54C2612.1 693.142 2608.37 696.873 2603.77 696.873H2599.67C2595.06 696.873 2591.33 693.142 2591.33 688.54V659.904C2591.33 656.53 2592.67 653.468 2594.84 651.219L2603.5 634.439C2605.64 630.281 2609.93 627.668 2614.61 627.668H2651.39ZM2614.61 633.085H2651.39C2654.04 633.085 2656.47 634.565 2657.69 636.921L2663.02 647.251H2602.98L2608.31 636.921C2609.53 634.565 2611.96 633.085 2614.61 633.085ZM2659.31 686.001H2669.25V688.54C2669.25 690.151 2667.94 691.457 2666.33 691.457H2662.23C2660.62 691.457 2659.31 690.151 2659.31 688.54V686.001ZM2596.75 686.001H2606.68V688.54C2606.68 690.151 2605.38 691.457 2603.77 691.457H2599.67C2598.06 691.457 2596.75 690.151 2596.75 688.54V686.001ZM2603.83 652.821H2662.17C2665.59 652.821 2668.45 655.253 2669.11 658.485H2660.48C2658.99 658.485 2657.77 659.697 2657.77 661.193C2657.77 662.689 2658.99 663.901 2660.48 663.901H2669.25V680.584H2658.31C2658.28 680.487 2658.25 680.39 2658.21 680.293L2652.66 666.357C2650.77 661.602 2646.17 658.482 2641.05 658.482H2624.95C2619.83 658.482 2615.23 661.602 2613.34 666.357L2607.79 680.293C2607.75 680.39 2607.72 680.487 2607.69 680.584H2596.75V663.901H2605.52C2607.01 663.901 2608.22 662.689 2608.22 661.193C2608.22 659.697 2607.01 658.485 2605.52 658.485H2596.89C2597.55 655.253 2600.41 652.821 2603.83 652.821ZM2613.5 680.584H2652.5L2647.63 668.361C2646.55 665.667 2643.95 663.899 2641.05 663.899H2624.95C2622.05 663.899 2619.44 665.667 2618.37 668.361L2613.5 680.584Z" fill="black"/>
</g>
</g>
<g id="Bold-S">
<g id="Outline / Car Outline_21">
<path id="Shape_21" fill-rule="evenodd" clip-rule="evenodd" d="M2355.39 627.668C2360.07 627.668 2364.36 630.281 2366.5 634.439L2375.16 651.219C2377.33 653.468 2378.67 656.53 2378.67 659.904L2378.67 688.54C2378.67 693.142 2374.94 696.873 2370.33 696.873H2366.23C2361.63 696.873 2357.9 693.142 2357.9 688.54V686.001H2316.1V688.54C2316.1 693.142 2312.37 696.873 2307.77 696.873H2303.67C2299.06 696.873 2295.33 693.142 2295.33 688.54V659.904C2295.33 656.53 2296.67 653.468 2298.84 651.219L2307.5 634.439C2309.64 630.281 2313.93 627.668 2318.61 627.668H2355.39ZM2318.61 633.085H2355.39C2358.04 633.085 2360.47 634.565 2361.69 636.921L2367.02 647.251H2306.98L2312.31 636.921C2313.53 634.565 2315.96 633.085 2318.61 633.085ZM2363.31 686.001H2373.25V688.54C2373.25 690.151 2371.94 691.457 2370.33 691.457H2366.23C2364.62 691.457 2363.31 690.151 2363.31 688.54V686.001ZM2300.75 686.001H2310.68V688.54C2310.68 690.151 2309.38 691.457 2307.77 691.457H2303.67C2302.06 691.457 2300.75 690.151 2300.75 688.54V686.001ZM2307.83 652.821H2366.17C2369.59 652.821 2372.45 655.253 2373.11 658.485H2364.48C2362.99 658.485 2361.77 659.697 2361.77 661.193C2361.77 662.689 2362.99 663.901 2364.48 663.901H2373.25V680.584H2362.31C2362.28 680.487 2362.25 680.39 2362.21 680.293L2356.66 666.357C2354.77 661.602 2350.17 658.482 2345.05 658.482H2328.95C2323.83 658.482 2319.23 661.602 2317.34 666.357L2311.79 680.293C2311.75 680.39 2311.72 680.487 2311.69 680.584H2300.75V663.901H2309.52C2311.01 663.901 2312.22 662.689 2312.22 661.193C2312.22 659.697 2311.01 658.485 2309.52 658.485H2300.89C2301.55 655.253 2304.41 652.821 2307.83 652.821ZM2317.5 680.584H2356.5L2351.63 668.361C2350.55 665.667 2347.95 663.899 2345.05 663.899H2328.95C2326.05 663.899 2323.44 665.667 2322.37 668.361L2317.5 680.584Z" fill="black"/>
</g>
</g>
<g id="Semibold-S">
<g id="Outline / Car Outline_22">
<path id="Shape_22" fill-rule="evenodd" clip-rule="evenodd" d="M2059.39 627.668C2064.07 627.668 2068.36 630.281 2070.5 634.439L2079.16 651.219C2081.33 653.468 2082.67 656.53 2082.67 659.904L2082.67 688.54C2082.67 693.142 2078.94 696.873 2074.33 696.873H2070.23C2065.63 696.873 2061.9 693.142 2061.9 688.54V686.001H2020.1V688.54C2020.1 693.142 2016.37 696.873 2011.77 696.873H2007.67C2003.06 696.873 1999.33 693.142 1999.33 688.54V659.904C1999.33 656.53 2000.67 653.468 2002.84 651.219L2011.5 634.439C2013.64 630.281 2017.93 627.668 2022.61 627.668H2059.39ZM2022.61 633.085H2059.39C2062.04 633.085 2064.47 634.565 2065.69 636.921L2071.02 647.251H2010.98L2016.31 636.921C2017.53 634.565 2019.96 633.085 2022.61 633.085ZM2067.31 686.001H2077.25V688.54C2077.25 690.151 2075.94 691.457 2074.33 691.457H2070.23C2068.62 691.457 2067.31 690.151 2067.31 688.54V686.001ZM2004.75 686.001H2014.68V688.54C2014.68 690.151 2013.38 691.457 2011.77 691.457H2007.67C2006.06 691.457 2004.75 690.151 2004.75 688.54V686.001ZM2011.83 652.821H2070.17C2073.59 652.821 2076.45 655.253 2077.11 658.485H2068.48C2066.99 658.485 2065.77 659.697 2065.77 661.193C2065.77 662.689 2066.99 663.901 2068.48 663.901H2077.25V680.584H2066.31C2066.28 680.487 2066.25 680.39 2066.21 680.293L2060.66 666.357C2058.77 661.602 2054.17 658.482 2049.05 658.482H2032.95C2027.83 658.482 2023.23 661.602 2021.34 666.357L2015.79 680.293C2015.75 680.39 2015.72 680.487 2015.69 680.584H2004.75V663.901H2013.52C2015.01 663.901 2016.22 662.689 2016.22 661.193C2016.22 659.697 2015.01 658.485 2013.52 658.485H2004.89C2005.55 655.253 2008.41 652.821 2011.83 652.821ZM2021.5 680.584H2060.5L2055.63 668.361C2054.55 665.667 2051.95 663.899 2049.05 663.899H2032.95C2030.05 663.899 2027.44 665.667 2026.37 668.361L2021.5 680.584Z" fill="black"/>
</g>
</g>
<g id="Medium-S">
<g id="Outline / Car Outline_23">
<path id="Shape_23" fill-rule="evenodd" clip-rule="evenodd" d="M1763.39 627.668C1768.07 627.668 1772.36 630.281 1774.5 634.439L1783.16 651.219C1785.33 653.468 1786.67 656.53 1786.67 659.904L1786.67 688.54C1786.67 693.142 1782.94 696.873 1778.33 696.873H1774.23C1769.63 696.873 1765.9 693.142 1765.9 688.54V686.001H1724.1V688.54C1724.1 693.142 1720.37 696.873 1715.77 696.873H1711.67C1707.06 696.873 1703.33 693.142 1703.33 688.54V659.904C1703.33 656.53 1704.67 653.468 1706.84 651.219L1715.5 634.439C1717.64 630.281 1721.93 627.668 1726.61 627.668H1763.39ZM1726.61 633.085H1763.39C1766.04 633.085 1768.47 634.565 1769.69 636.921L1775.02 647.251H1714.98L1720.31 636.921C1721.53 634.565 1723.96 633.085 1726.61 633.085ZM1771.31 686.001H1781.25V688.54C1781.25 690.151 1779.94 691.457 1778.33 691.457H1774.23C1772.62 691.457 1771.31 690.151 1771.31 688.54V686.001ZM1708.75 686.001H1718.68V688.54C1718.68 690.151 1717.38 691.457 1715.77 691.457H1711.67C1710.06 691.457 1708.75 690.151 1708.75 688.54V686.001ZM1715.83 652.821H1774.17C1777.59 652.821 1780.45 655.253 1781.11 658.485H1772.48C1770.99 658.485 1769.77 659.697 1769.77 661.193C1769.77 662.689 1770.99 663.901 1772.48 663.901H1781.25V680.584H1770.31C1770.28 680.487 1770.25 680.39 1770.21 680.293L1764.66 666.357C1762.77 661.602 1758.17 658.482 1753.05 658.482H1736.95C1731.83 658.482 1727.23 661.602 1725.34 666.357L1719.79 680.293C1719.75 680.39 1719.72 680.487 1719.69 680.584H1708.75V663.901H1717.52C1719.01 663.901 1720.22 662.689 1720.22 661.193C1720.22 659.697 1719.01 658.485 1717.52 658.485H1708.89C1709.55 655.253 1712.41 652.821 1715.83 652.821ZM1725.5 680.584H1764.5L1759.63 668.361C1758.55 665.667 1755.95 663.899 1753.05 663.899H1736.95C1734.05 663.899 1731.44 665.667 1730.37 668.361L1725.5 680.584Z" fill="black"/>
</g>
</g>
<g id="Regular-S">
<g id="Outline / Car Outline_24">
<path id="Shape_24" fill-rule="evenodd" clip-rule="evenodd" d="M1467.39 627.668C1472.07 627.668 1476.36 630.281 1478.5 634.439L1487.16 651.219C1489.33 653.468 1490.67 656.53 1490.67 659.904L1490.67 688.54C1490.67 693.142 1486.94 696.873 1482.33 696.873H1478.23C1473.63 696.873 1469.9 693.142 1469.9 688.54V686.001H1428.1V688.54C1428.1 693.142 1424.37 696.873 1419.77 696.873H1415.67C1411.06 696.873 1407.33 693.142 1407.33 688.54V659.904C1407.33 656.53 1408.67 653.468 1410.84 651.219L1419.5 634.439C1421.64 630.281 1425.93 627.668 1430.61 627.668H1467.39ZM1430.61 633.085H1467.39C1470.04 633.085 1472.47 634.565 1473.69 636.921L1479.02 647.251H1418.98L1424.31 636.921C1425.53 634.565 1427.96 633.085 1430.61 633.085ZM1475.31 686.001H1485.25V688.54C1485.25 690.151 1483.94 691.457 1482.33 691.457H1478.23C1476.62 691.457 1475.31 690.151 1475.31 688.54V686.001ZM1412.75 686.001H1422.68V688.54C1422.68 690.151 1421.38 691.457 1419.77 691.457H1415.67C1414.06 691.457 1412.75 690.151 1412.75 688.54V686.001ZM1419.83 652.821H1478.17C1481.59 652.821 1484.45 655.253 1485.11 658.485H1476.48C1474.99 658.485 1473.77 659.697 1473.77 661.193C1473.77 662.689 1474.99 663.901 1476.48 663.901H1485.25V680.584H1474.31C1474.28 680.487 1474.25 680.39 1474.21 680.293L1468.66 666.357C1466.77 661.602 1462.17 658.482 1457.05 658.482H1440.95C1435.83 658.482 1431.23 661.602 1429.34 666.357L1423.79 680.293C1423.75 680.39 1423.72 680.487 1423.69 680.584H1412.75V663.901H1421.52C1423.01 663.901 1424.22 662.689 1424.22 661.193C1424.22 659.697 1423.01 658.485 1421.52 658.485H1412.89C1413.55 655.253 1416.41 652.821 1419.83 652.821ZM1429.5 680.584H1468.5L1463.63 668.361C1462.55 665.667 1459.95 663.899 1457.05 663.899H1440.95C1438.05 663.899 1435.44 665.667 1434.37 668.361L1429.5 680.584Z" fill="black"/>
</g>
</g>
<g id="Light-S">
<g id="Outline / Car Outline_25">
<path id="Shape_25" fill-rule="evenodd" clip-rule="evenodd" d="M1171.39 627.668C1176.07 627.668 1180.36 630.281 1182.5 634.439L1191.16 651.219C1193.33 653.468 1194.67 656.53 1194.67 659.904L1194.67 688.54C1194.67 693.142 1190.94 696.873 1186.33 696.873H1182.23C1177.63 696.873 1173.9 693.142 1173.9 688.54V686.001H1132.1V688.54C1132.1 693.142 1128.37 696.873 1123.77 696.873H1119.67C1115.06 696.873 1111.33 693.142 1111.33 688.54V659.904C1111.33 656.53 1112.67 653.468 1114.84 651.219L1123.5 634.439C1125.64 630.281 1129.93 627.668 1134.61 627.668H1171.39ZM1134.61 633.085H1171.39C1174.04 633.085 1176.47 634.565 1177.69 636.921L1183.02 647.251H1122.98L1128.31 636.921C1129.53 634.565 1131.96 633.085 1134.61 633.085ZM1179.31 686.001H1189.25V688.54C1189.25 690.151 1187.94 691.457 1186.33 691.457H1182.23C1180.62 691.457 1179.31 690.151 1179.31 688.54V686.001ZM1116.75 686.001H1126.68V688.54C1126.68 690.151 1125.38 691.457 1123.77 691.457H1119.67C1118.06 691.457 1116.75 690.151 1116.75 688.54V686.001ZM1123.83 652.821H1182.17C1185.59 652.821 1188.45 655.253 1189.11 658.485H1180.48C1178.99 658.485 1177.77 659.697 1177.77 661.193C1177.77 662.689 1178.99 663.901 1180.48 663.901H1189.25V680.584H1178.31C1178.28 680.487 1178.25 680.39 1178.21 680.293L1172.66 666.357C1170.77 661.602 1166.17 658.482 1161.05 658.482H1144.95C1139.83 658.482 1135.23 661.602 1133.34 666.357L1127.79 680.293C1127.75 680.39 1127.72 680.487 1127.69 680.584H1116.75V663.901H1125.52C1127.01 663.901 1128.22 662.689 1128.22 661.193C1128.22 659.697 1127.01 658.485 1125.52 658.485H1116.89C1117.55 655.253 1120.41 652.821 1123.83 652.821ZM1133.5 680.584H1172.5L1167.63 668.361C1166.55 665.667 1163.95 663.899 1161.05 663.899H1144.95C1142.05 663.899 1139.44 665.667 1138.37 668.361L1133.5 680.584Z" fill="black"/>
</g>
</g>
<g id="Thin-S">
<g id="Outline / Car Outline_26">
<path id="Shape_26" fill-rule="evenodd" clip-rule="evenodd" d="M875.393 627.668C880.072 627.668 884.359 630.281 886.503 634.439L895.156 651.219C897.329 653.468 898.666 656.53 898.666 659.904L898.666 688.54C898.666 693.142 894.935 696.873 890.333 696.873H886.231C881.629 696.873 877.898 693.142 877.898 688.54V686.001H836.101V688.54C836.101 693.142 832.37 696.873 827.768 696.873H823.666C819.064 696.873 815.333 693.142 815.333 688.54V659.904C815.333 656.53 816.67 653.468 818.843 651.219L827.496 634.439C829.641 630.281 833.928 627.668 838.606 627.668H875.393ZM838.606 633.085H875.393C878.044 633.085 880.474 634.565 881.689 636.921L887.016 647.251H826.984L832.311 636.921C833.526 634.565 835.955 633.085 838.606 633.085ZM883.315 686.001H893.25V688.54C893.25 690.151 891.944 691.457 890.333 691.457H886.231C884.621 691.457 883.315 690.151 883.315 688.54V686.001ZM820.75 686.001H830.685V688.54C830.685 690.151 829.379 691.457 827.768 691.457H823.666C822.056 691.457 820.75 690.151 820.75 688.54V686.001ZM827.833 652.821H886.166C889.592 652.821 892.45 655.253 893.107 658.485H884.483C882.987 658.485 881.775 659.697 881.775 661.193C881.775 662.689 882.987 663.901 884.483 663.901H893.25V680.584H882.314C882.283 680.487 882.248 680.39 882.21 680.293L876.66 666.357C874.766 661.602 870.165 658.482 865.047 658.482H848.952C843.834 658.482 839.233 661.602 837.339 666.357L831.79 680.293C831.751 680.39 831.716 680.487 831.685 680.584H820.75V663.901H829.516C831.012 663.901 832.225 662.689 832.225 661.193C832.225 659.697 831.012 658.485 829.516 658.485H820.892C821.549 655.253 824.407 652.821 827.833 652.821ZM837.504 680.584H876.495L871.628 668.361C870.555 665.667 867.947 663.899 865.047 663.899H848.952C846.052 663.899 843.445 665.667 842.372 668.361L837.504 680.584Z" fill="black"/>
</g>
</g>
<g id="Ultralight-S">
<g id="Outline / Car Outline_27">
<path id="Shape_27" fill-rule="evenodd" clip-rule="evenodd" d="M579.393 627.668C584.072 627.668 588.359 630.281 590.503 634.439L599.156 651.219C601.329 653.468 602.666 656.53 602.666 659.904L602.666 688.54C602.666 693.142 598.935 696.873 594.333 696.873H590.231C585.629 696.873 581.898 693.142 581.898 688.54V686.001H540.101V688.54C540.101 693.142 536.37 696.873 531.768 696.873H527.666C523.064 696.873 519.333 693.142 519.333 688.54V659.904C519.333 656.53 520.67 653.468 522.843 651.219L531.496 634.439C533.641 630.281 537.928 627.668 542.606 627.668H579.393ZM542.606 633.085H579.393C582.044 633.085 584.474 634.565 585.689 636.921L591.016 647.251H530.984L536.311 636.921C537.526 634.565 539.955 633.085 542.606 633.085ZM587.315 686.001H597.25V688.54C597.25 690.151 595.944 691.457 594.333 691.457H590.231C588.621 691.457 587.315 690.151 587.315 688.54V686.001ZM524.75 686.001H534.685V688.54C534.685 690.151 533.379 691.457 531.768 691.457H527.666C526.056 691.457 524.75 690.151 524.75 688.54V686.001ZM531.833 652.821H590.166C593.592 652.821 596.45 655.253 597.107 658.485H588.483C586.987 658.485 585.775 659.697 585.775 661.193C585.775 662.689 586.987 663.901 588.483 663.901H597.25V680.584H586.314C586.283 680.487 586.248 680.39 586.21 680.293L580.66 666.357C578.766 661.602 574.165 658.482 569.047 658.482H552.952C547.834 658.482 543.233 661.602 541.339 666.357L535.79 680.293C535.751 680.39 535.716 680.487 535.685 680.584H524.75V663.901H533.516C535.012 663.901 536.225 662.689 536.225 661.193C536.225 659.697 535.012 658.485 533.516 658.485H524.892C525.549 655.253 528.407 652.821 531.833 652.821ZM541.504 680.584H580.495L575.628 668.361C574.555 665.667 571.947 663.899 569.047 663.899H552.952C550.052 663.899 547.445 665.667 546.372 668.361L541.504 680.584Z" fill="black"/>
</g>
</g>
</g>
</g>
<defs>
<clipPath id="clip0_0_1">
<rect width="3300" height="2200" fill="white"/>
</clipPath>
</defs>
</svg>
