<svg xmlns="http://www.w3.org/2000/svg" width="3300" height="2200" fill="none"><path fill="#E5E5E5" d="M0 0h3300v2200H0z"/><g id="Category / Outline / Shop Cart" clip-path="url(#clip0_0_1)"><g id="Notes"><path id="artboard" fill="#fff" d="M3300 0H0v2200h3300V0Z"/><path id="Vector" stroke="#000" stroke-width=".5" d="M263 292h2773"/><text xml:space="preserve" id="Weight/Scale Variations" fill="#000" font-family="Roboto" font-size="12" letter-spacing="0em" style="white-space:pre"><tspan x="263" y="321.102">Weight/Scale Variations</tspan></text><text xml:space="preserve" id="Ultralight" fill="#000" font-family="Roboto" font-size="12" letter-spacing="0em" style="white-space:pre"><tspan x="535.211" y="321.102">Ultralight</tspan></text><text xml:space="preserve" id="Thin" fill="#000" font-family="Roboto" font-size="12" letter-spacing="0em" style="white-space:pre"><tspan x="844.422" y="321.102">Thin</tspan></text><text xml:space="preserve" id="Light" fill="#000" font-family="Roboto" font-size="12" letter-spacing="0em" style="white-space:pre"><tspan x="1139.63" y="321.102">Light</tspan></text><text xml:space="preserve" id="Regular" fill="#000" font-family="Roboto" font-size="12" letter-spacing="0em" style="white-space:pre"><tspan x="1429.34" y="321.102">Regular</tspan></text><text xml:space="preserve" id="Medium" fill="#000" font-family="Roboto" font-size="12" letter-spacing="0em" style="white-space:pre"><tspan x="1724.56" y="321.102">Medium</tspan></text><text xml:space="preserve" id="Semibold" fill="#000" font-family="Roboto" font-size="12" letter-spacing="0em" style="white-space:pre"><tspan x="2017.77" y="321.102">Semibold</tspan></text><text xml:space="preserve" id="Bold" fill="#000" font-family="Roboto" font-size="12" letter-spacing="0em" style="white-space:pre"><tspan x="2327.48" y="321.102">Bold</tspan></text><text xml:space="preserve" id="Heavy" fill="#000" font-family="Roboto" font-size="12" letter-spacing="0em" style="white-space:pre"><tspan x="2620.19" y="321.102">Heavy</tspan></text><text xml:space="preserve" id="Black" fill="#000" font-family="Roboto" font-size="12" letter-spacing="0em" style="white-space:pre"><tspan x="2918.4" y="321.102">Black</tspan></text><path id="Vector_2" stroke="#000" stroke-width=".5" d="M263 1903h2773"/><g id="Group"><path id="Vector_3" fill="#000" d="M272.248 1933.83c4.307 0 7.891-3.57 7.891-7.88 0-4.31-3.594-7.88-7.901-7.88-4.297 0-7.871 3.57-7.871 7.88 0 4.31 3.584 7.88 7.881 7.88Zm0-1.48c-3.545 0-6.377-2.84-6.377-6.4 0-3.55 2.822-6.4 6.367-6.4a6.388 6.388 0 0 1 6.406 6.4 6.361 6.361 0 0 1-6.396 6.4Zm-.019-2.78c.468 0 .742-.31.742-.83v-2.06h2.226c.498 0 .84-.25.84-.72 0-.48-.322-.74-.84-.74h-2.226v-2.23c0-.52-.274-.84-.742-.84-.469 0-.723.34-.723.84v2.23h-2.207c-.518 0-.85.26-.85.74 0 .47.352.72.85.72h2.207v2.06c0 .5.254.83.723.83Z"/></g><g id="Group_2"><path id="Vector_4" fill="#000" d="M293.215 1935.91c5.449 0 9.961-4.51 9.961-9.96 0-5.44-4.522-9.96-9.971-9.96-5.439 0-9.951 4.52-9.951 9.96 0 5.45 4.521 9.96 9.961 9.96Zm0-1.66a8.26 8.26 0 0 1-8.291-8.3c0-4.6 3.672-8.3 8.281-8.3a8.29 8.29 0 0 1 8.311 8.3 8.263 8.263 0 0 1-8.301 8.3Zm-.02-3.66c.518 0 .83-.36.83-.93v-2.89h3.057c.547 0 .928-.28.928-.8 0-.53-.362-.83-.928-.83h-3.057v-3.07c0-.57-.312-.93-.83-.93-.517 0-.81.38-.81.93v3.07h-3.047c-.567 0-.938.3-.938.83 0 .52.391.8.938.8h3.047v2.89c0 .55.293.93.81.93Z"/></g><g id="Group_3"><path id="Vector_5" fill="#000" d="M319.895 1938.67c6.962 0 12.724-5.75 12.724-12.71 0-6.97-5.771-12.72-12.734-12.72-6.953 0-12.705 5.75-12.705 12.72 0 6.96 5.761 12.71 12.715 12.71Zm0-1.81a10.874 10.874 0 0 1-10.889-10.9c0-6.04 4.844-10.9 10.879-10.9 6.045 0 10.898 4.86 10.908 10.9a10.87 10.87 0 0 1-10.898 10.9Zm-.02-4.93c.566 0 .918-.39.918-.99v-4.07h4.238c.586 0 1.006-.34 1.006-.89 0-.58-.39-.92-1.006-.92h-4.238v-4.25c0-.61-.352-1.01-.918-1.01-.566 0-.889.41-.889 1.01v4.25h-4.228c-.615 0-1.026.34-1.026.92 0 .55.43.89 1.026.89h4.228v4.07c0 .58.323.99.889.99Z"/></g><text xml:space="preserve" id="Design Variations" fill="#000" font-family="Roboto" font-size="12" letter-spacing="0em" style="white-space:pre"><tspan x="263" y="1952.1">Design Variations</tspan></text><text xml:space="preserve" id="Symbols are supported in up to nine weights and three scales." fill="#000" font-family="Roboto" font-size="12" letter-spacing="0em" style="white-space:pre"><tspan x="263" y="1970.1">Symbols are supported in up to nine weights and three scales.</tspan></text><text xml:space="preserve" id="For optimal layout with text and other symbols, vertically align" fill="#000" font-family="Roboto" font-size="12" letter-spacing="0em" style="white-space:pre"><tspan x="263" y="1988.1">For optimal layout with text and other symbols, vertically align</tspan></text><text xml:space="preserve" id="symbols with the adjacent text." fill="#000" font-family="Roboto" font-size="12" letter-spacing="0em" style="white-space:pre"><tspan x="263" y="2006.1">symbols with the adjacent text.</tspan></text><path id="Vector_6" fill="#00AEEF" d="M779 1919h-3v14h3v-14Z" opacity=".4"/><g id="Group_4"><path id="Vector_7" fill="#000" d="M789.527 1933h1.846l-5.195-14.09h-1.739l-5.195 14.09h1.846l1.416-4.04h5.605l1.416 4.04Zm-4.248-11.96h.059l2.256 6.43h-4.571l2.256-6.43Z"/></g><path id="Vector_8" fill="#00AEEF" d="M794.617 1919h-3v14h3v-14Z" opacity=".4"/><text xml:space="preserve" id="Margins" fill="#000" font-family="Roboto" font-size="12" letter-spacing="0em" style="white-space:pre"><tspan x="776" y="1952.1">Margins</tspan></text><text xml:space="preserve" id="Leading and trailing margins on the left and right side of each symbol" fill="#000" font-family="Roboto" font-size="12" letter-spacing="0em" style="white-space:pre"><tspan x="776" y="1970.1">Leading and trailing margins on the left and right side of each symbol</tspan></text><text xml:space="preserve" id="can be adjusted by modifying the width of the blue rectangles." fill="#000" font-family="Roboto" font-size="12" letter-spacing="0em" style="white-space:pre"><tspan x="776" y="1988.1">can be adjusted by modifying the width of the blue rectangles.</tspan></text><text xml:space="preserve" id="Modifications are automatically applied proportionally to all" fill="#000" font-family="Roboto" font-size="12" letter-spacing="0em" style="white-space:pre"><tspan x="776" y="2006.1">Modifications are automatically applied proportionally to all</tspan></text><text xml:space="preserve" id="scales and weights." fill="#000" font-family="Roboto" font-size="12" letter-spacing="0em" style="white-space:pre"><tspan x="776" y="2024.1">scales and weights.</tspan></text><g id="Group_5"><path id="Vector_9" fill="#000" d="m1291.83 1936.11 1.54 1.55c.85.83 1.82.76 2.69-.2l10.21-11.12c.43.29.83.28 1.29.18l1.05-.21.69.69-.05.52c-.06.53.1.95.6 1.45l.81.81c.51.5 1.16.53 1.64.05l3.25-3.25c.48-.48.46-1.13-.05-1.64l-.82-.82c-.49-.5-.91-.67-1.44-.59l-.53.05-.65-.66.28-1.14c.15-.57 0-1.04-.63-1.64l-2.41-2.39c-3.54-3.53-8.07-3.42-11.19-.29-.42.43-.47 1.02-.19 1.45.23.37.71.59 1.35.43 1.52-.38 3.03-.27 4.51.74l-.62 1.58c-.23.59-.22 1.07.02 1.5l-11.16 10.28c-.94.87-1.05 1.81-.19 2.67Zm7.84-18.26c2.67-1.99 5.98-1.68 8.38.73l2.63 2.61c.23.24.26.42.2.72l-.38 1.56 1.58 1.57.96-.09c.29-.03.37-.01.6.22l.62.62-2.75 2.75-.63-.62c-.22-.22-.24-.32-.21-.6l.09-.96-1.57-1.56-1.62.31c-.28.06-.43.06-.66-.19l-2.18-2.17c-.22-.24-.25-.38-.12-.7l.94-2.27c-1.6-1.54-3.71-2.39-5.75-1.73-.09.03-.16.01-.19-.03-.02-.05-.02-.1.06-.17Zm-6.57 17.56c-.49-.5-.31-.8.02-1.1l10.96-10.12 1.23 1.23-10.16 10.93c-.3.33-.68.43-1.08.03l-.97-.97Z"/></g><text xml:space="preserve" id="Exporting" fill="#000" font-family="Roboto" font-size="12" letter-spacing="0em" style="white-space:pre"><tspan x="1289" y="1952.1">Exporting</tspan></text><text xml:space="preserve" id="Symbols should be outlined when exporting to ensure the" fill="#000" font-family="Roboto" font-size="12" letter-spacing="0em" style="white-space:pre"><tspan x="1289" y="1970.1">Symbols should be outlined when exporting to ensure the</tspan></text><text xml:space="preserve" id="design is preserved when submitting to Xcode." fill="#000" font-family="Roboto" font-size="12" letter-spacing="0em" style="white-space:pre"><tspan x="1289" y="1988.1">design is preserved when submitting to Xcode.</tspan></text><text xml:space="preserve" id="template-version" fill="#000" font-family="Roboto" font-size="12" letter-spacing="0em" style="white-space:pre"><tspan x="2958" y="1932.1">Template v.1.0</tspan></text><text xml:space="preserve" id="Generated from pencil.circle" fill="#000" font-family="Roboto" font-size="12" letter-spacing="0em" style="white-space:pre"><tspan x="2885" y="1950.1">Generated from pencil.circle</tspan></text><text xml:space="preserve" id="Typeset at 100 points" fill="#000" font-family="Roboto" font-size="12" letter-spacing="0em" style="white-space:pre"><tspan x="2921" y="1968.1">Typeset at 100 points</tspan></text><text xml:space="preserve" id="Small" fill="#000" font-family="Roboto" font-size="12" letter-spacing="0em" style="white-space:pre"><tspan x="263" y="725.102">Small</tspan></text><text xml:space="preserve" id="Medium_2" fill="#000" font-family="Roboto" font-size="12" letter-spacing="0em" style="white-space:pre"><tspan x="263" y="1155.1">Medium</tspan></text><text xml:space="preserve" id="Large" fill="#000" font-family="Roboto" font-size="12" letter-spacing="0em" style="white-space:pre"><tspan x="263" y="1585.1">Large</tspan></text></g><g id="Guides"><g id="H-reference"><path id="Vector_10" fill="#27AAE1" d="M393.932 695.998h2.734l-27.1-70.459h-2.49l-27.099 70.459h2.685l9.278-24.463h32.763l9.229 24.463Zm-25.733-67.09h.244l15.381 40.381h-31.006l15.381-40.381Z"/></g><path id="Baseline-S" stroke="#27AAE1" stroke-width=".577" d="M263 696h2773"/><path id="Capline-S" stroke="#27AAE1" stroke-width=".577" d="M263 626h2773"/><g id="H-reference_2"><path id="Vector_11" fill="#27AAE1" d="M393.932 1126h2.734l-27.1-70.46h-2.49L339.977 1126h2.685l9.278-24.46h32.763l9.229 24.46Zm-25.733-67.09h.244l15.381 40.38h-31.006l15.381-40.38Z"/></g><path id="Baseline-M" stroke="#27AAE1" stroke-width=".577" d="M263 1126h2773"/><path id="Capline-M" stroke="#27AAE1" stroke-width=".577" d="M263 1056h2773"/><g id="H-reference_3"><path id="Vector_12" fill="#27AAE1" d="M393.932 1556h2.734l-27.1-70.46h-2.49L339.977 1556h2.685l9.278-24.46h32.763l9.229 24.46Zm-25.733-67.09h.244l15.381 40.38h-31.006l15.381-40.38Z"/></g><g id="Group 1" stroke="#27AAE1" stroke-width=".577"><path id="Baseline-L" d="M263 1556h2773"/><path id="Capline-L" d="M263 1486h2773"/></g><path id="left-margin" fill="#00AEEF" d="M1392.04 1030.79h-8.74v119.33h8.74v-119.33Z" opacity=".4"/><path id="right-margin" fill="#00AEEF" d="M1508.39 1030.79h-8.74v119.33h8.74v-119.33Z" opacity=".4"/></g><g id="Symbols"><g id="Black-L"><g id="Outline / Shop cart Outline"><g id="Shape" fill="#000" fill-rule="evenodd" clip-rule="evenodd"><path d="M2856.62 1461.01c0-2.69 2.18-4.87 4.88-4.87h7.03c9.12 0 17.07 6.2 19.29 15.05l3.73 14.95H2989c1.55 0 3.01.73 3.92 1.98.92 1.25 1.19 2.87.73 4.35l-15.46 49.47a19.874 19.874 0 0 1-18.97 13.95h-44.76c-9.12 0-17.07-6.21-19.28-15.06l-16.82-67.27a10.13 10.13 0 0 0-9.83-7.67h-7.03a4.88 4.88 0 0 1-4.88-4.88Zm37.37 34.88 10.65 42.58c1.12 4.5 5.17 7.67 9.82 7.67h44.76c4.43 0 8.34-2.88 9.66-7.11l13.49-43.14h-88.38ZM2894.12 1573.51c0-6.83 5.54-12.37 12.38-12.37 6.83 0 12.37 5.54 12.37 12.37 0 6.84-5.54 12.38-12.37 12.38-6.84 0-12.38-5.54-12.38-12.38ZM2966.5 1561.14c-6.84 0-12.38 5.54-12.38 12.37 0 6.84 5.54 12.38 12.38 12.38 6.83 0 12.37-5.54 12.37-12.38 0-6.83-5.54-12.37-12.37-12.37Z"/></g></g></g><g id="Heavy-L"><g id="Outline / Shop cart Outline_2"><g id="Shape_2" fill="#000" fill-rule="evenodd" clip-rule="evenodd"><path d="M2560.62 1461.01c0-2.69 2.18-4.87 4.88-4.87h7.03c9.12 0 17.07 6.2 19.29 15.05l3.73 14.95H2693c1.55 0 3.01.73 3.92 1.98.92 1.25 1.19 2.87.73 4.35l-15.46 49.47a19.874 19.874 0 0 1-18.97 13.95h-44.76c-9.12 0-17.07-6.21-19.28-15.06l-16.82-67.27a10.13 10.13 0 0 0-9.83-7.67h-7.03a4.88 4.88 0 0 1-4.88-4.88Zm37.37 34.88 10.65 42.58c1.12 4.5 5.17 7.67 9.82 7.67h44.76c4.43 0 8.34-2.88 9.66-7.11l13.49-43.14h-88.38ZM2598.12 1573.51c0-6.83 5.54-12.37 12.38-12.37 6.83 0 12.37 5.54 12.37 12.37 0 6.84-5.54 12.38-12.37 12.38-6.84 0-12.38-5.54-12.38-12.38ZM2670.5 1561.14c-6.84 0-12.38 5.54-12.38 12.37 0 6.84 5.54 12.38 12.38 12.38 6.83 0 12.37-5.54 12.37-12.38 0-6.83-5.54-12.37-12.37-12.37Z"/></g></g></g><g id="Bold-L"><g id="Outline / Shop cart Outline_3"><g id="Shape_3" fill="#000" fill-rule="evenodd" clip-rule="evenodd"><path d="M2264.62 1461.01c0-2.69 2.18-4.87 4.88-4.87h7.03c9.12 0 17.07 6.2 19.29 15.05l3.73 14.95H2397c1.55 0 3.01.73 3.92 1.98.92 1.25 1.19 2.87.73 4.35l-15.46 49.47a19.874 19.874 0 0 1-18.97 13.95h-44.76c-9.12 0-17.07-6.21-19.28-15.06l-16.82-67.27a10.13 10.13 0 0 0-9.83-7.67h-7.03a4.88 4.88 0 0 1-4.88-4.88Zm37.37 34.88 10.65 42.58c1.12 4.5 5.17 7.67 9.82 7.67h44.76c4.43 0 8.34-2.88 9.66-7.11l13.49-43.14h-88.38ZM2302.12 1573.51c0-6.83 5.54-12.37 12.38-12.37 6.83 0 12.37 5.54 12.37 12.37 0 6.84-5.54 12.38-12.37 12.38-6.84 0-12.38-5.54-12.38-12.38ZM2374.5 1561.14c-6.84 0-12.38 5.54-12.38 12.37 0 6.84 5.54 12.38 12.38 12.38 6.83 0 12.37-5.54 12.37-12.38 0-6.83-5.54-12.37-12.37-12.37Z"/></g></g></g><g id="Semibold-L"><g id="Outline / Shop cart Outline_4"><g id="Shape_4" fill="#000" fill-rule="evenodd" clip-rule="evenodd"><path d="M1968.62 1461.01c0-2.69 2.18-4.87 4.88-4.87h7.03c9.12 0 17.07 6.2 19.29 15.05l3.73 14.95H2101c1.55 0 3.01.73 3.92 1.98.92 1.25 1.19 2.87.73 4.35l-15.46 49.47a19.874 19.874 0 0 1-18.97 13.95h-44.76c-9.12 0-17.07-6.21-19.28-15.06l-16.82-67.27a10.13 10.13 0 0 0-9.83-7.67h-7.03a4.88 4.88 0 0 1-4.88-4.88Zm37.37 34.88 10.65 42.58c1.12 4.5 5.17 7.67 9.82 7.67h44.76c4.43 0 8.34-2.88 9.66-7.11l13.49-43.14h-88.38ZM2006.12 1573.51c0-6.83 5.54-12.37 12.38-12.37 6.83 0 12.37 5.54 12.37 12.37 0 6.84-5.54 12.38-12.37 12.38-6.84 0-12.38-5.54-12.38-12.38ZM2078.5 1561.14c-6.84 0-12.38 5.54-12.38 12.37 0 6.84 5.54 12.38 12.38 12.38 6.83 0 12.37-5.54 12.37-12.38 0-6.83-5.54-12.37-12.37-12.37Z"/></g></g></g><g id="Medium-L"><g id="Outline / Shop cart Outline_5"><g id="Shape_5" fill="#000" fill-rule="evenodd" clip-rule="evenodd"><path d="M1672.62 1461.01c0-2.69 2.18-4.87 4.88-4.87h7.03c9.12 0 17.07 6.2 19.29 15.05l3.73 14.95H1805c1.55 0 3.01.73 3.92 1.98.92 1.25 1.19 2.87.73 4.35l-15.46 49.47a19.874 19.874 0 0 1-18.97 13.95h-44.76c-9.12 0-17.07-6.21-19.28-15.06l-16.82-67.27a10.13 10.13 0 0 0-9.83-7.67h-7.03a4.88 4.88 0 0 1-4.88-4.88Zm37.37 34.88 10.65 42.58c1.12 4.5 5.17 7.67 9.82 7.67h44.76c4.43 0 8.34-2.88 9.66-7.11l13.49-43.14h-88.38ZM1710.12 1573.51c0-6.83 5.54-12.37 12.38-12.37 6.83 0 12.37 5.54 12.37 12.37 0 6.84-5.54 12.38-12.37 12.38-6.84 0-12.38-5.54-12.38-12.38ZM1782.5 1561.14c-6.84 0-12.38 5.54-12.38 12.37 0 6.84 5.54 12.38 12.38 12.38 6.83 0 12.37-5.54 12.37-12.38 0-6.83-5.54-12.37-12.37-12.37Z"/></g></g></g><g id="Regular-L"><g id="Outline / Shop cart Outline_6"><g id="Shape_6" fill="#000" fill-rule="evenodd" clip-rule="evenodd"><path d="M1376.62 1461.01c0-2.69 2.18-4.87 4.88-4.87h7.03c9.12 0 17.07 6.2 19.29 15.05l3.73 14.95H1509c1.55 0 3.01.73 3.92 1.98.92 1.25 1.19 2.87.73 4.35l-15.46 49.47a19.874 19.874 0 0 1-18.97 13.95h-44.76c-9.12 0-17.07-6.21-19.28-15.06l-16.82-67.27a10.13 10.13 0 0 0-9.83-7.67h-7.03a4.88 4.88 0 0 1-4.88-4.88Zm37.37 34.88 10.65 42.58c1.12 4.5 5.17 7.67 9.82 7.67h44.76c4.43 0 8.34-2.88 9.66-7.11l13.49-43.14h-88.38ZM1414.12 1573.51c0-6.83 5.54-12.37 12.38-12.37 6.83 0 12.37 5.54 12.37 12.37 0 6.84-5.54 12.38-12.37 12.38-6.84 0-12.38-5.54-12.38-12.38ZM1486.5 1561.14c-6.84 0-12.38 5.54-12.38 12.37 0 6.84 5.54 12.38 12.38 12.38 6.83 0 12.37-5.54 12.37-12.38 0-6.83-5.54-12.37-12.37-12.37Z"/></g></g></g><g id="Light-L"><g id="Outline / Shop cart Outline_7"><g id="Shape_7" fill="#000" fill-rule="evenodd" clip-rule="evenodd"><path d="M1080.62 1461.01c0-2.69 2.18-4.87 4.88-4.87h7.03c9.12 0 17.07 6.2 19.29 15.05l3.73 14.95H1213c1.55 0 3.01.73 3.92 1.98.92 1.25 1.19 2.87.73 4.35l-15.46 49.47a19.874 19.874 0 0 1-18.97 13.95h-44.76c-9.12 0-17.07-6.21-19.28-15.06l-16.82-67.27a10.13 10.13 0 0 0-9.83-7.67h-7.03a4.88 4.88 0 0 1-4.88-4.88Zm37.37 34.88 10.65 42.58c1.12 4.5 5.17 7.67 9.82 7.67h44.76c4.43 0 8.34-2.88 9.66-7.11l13.49-43.14h-88.38ZM1118.12 1573.51c0-6.83 5.54-12.37 12.38-12.37 6.83 0 12.37 5.54 12.37 12.37 0 6.84-5.54 12.38-12.37 12.38-6.84 0-12.38-5.54-12.38-12.38ZM1190.5 1561.14c-6.84 0-12.38 5.54-12.38 12.37 0 6.84 5.54 12.38 12.38 12.38 6.83 0 12.37-5.54 12.37-12.38 0-6.83-5.54-12.37-12.37-12.37Z"/></g></g></g><g id="Thin-L"><g id="Outline / Shop cart Outline_8"><g id="Shape_8" fill="#000" fill-rule="evenodd" clip-rule="evenodd"><path d="M784.621 1461.01c0-2.69 2.183-4.87 4.875-4.87h7.038c9.12 0 17.07 6.2 19.282 15.05l3.736 14.95h97.444c1.551 0 3.009.73 3.928 1.98a4.893 4.893 0 0 1 .725 4.35l-15.46 49.47a19.876 19.876 0 0 1-18.971 13.95h-44.76c-9.12 0-17.07-6.21-19.282-15.06l-16.819-67.27a10.123 10.123 0 0 0-9.823-7.67h-7.038a4.881 4.881 0 0 1-4.875-4.88Zm37.369 34.88 10.645 42.58a10.134 10.134 0 0 0 9.823 7.67h44.76c4.429 0 8.343-2.88 9.664-7.11l13.483-43.14H821.99ZM822.121 1573.51c0-6.83 5.541-12.37 12.375-12.37 6.835 0 12.375 5.54 12.375 12.37 0 6.84-5.54 12.38-12.375 12.38-6.834 0-12.375-5.54-12.375-12.38ZM894.496 1561.14c-6.834 0-12.375 5.54-12.375 12.37 0 6.84 5.541 12.38 12.375 12.38 6.835 0 12.375-5.54 12.375-12.38 0-6.83-5.54-12.37-12.375-12.37Z"/></g></g></g><g id="Ultralight-L"><g id="Outline / Shop cart Outline_9"><g id="Shape_9" fill="#000" fill-rule="evenodd" clip-rule="evenodd"><path d="M488.621 1461.01c0-2.69 2.183-4.87 4.875-4.87h7.038c9.12 0 17.07 6.2 19.282 15.05l3.736 14.95h97.444c1.551 0 3.009.73 3.928 1.98a4.893 4.893 0 0 1 .725 4.35l-15.46 49.47a19.876 19.876 0 0 1-18.971 13.95h-44.76c-9.12 0-17.07-6.21-19.282-15.06l-16.819-67.27a10.123 10.123 0 0 0-9.823-7.67h-7.038a4.881 4.881 0 0 1-4.875-4.88Zm37.369 34.88 10.645 42.58a10.134 10.134 0 0 0 9.823 7.67h44.76c4.429 0 8.343-2.88 9.664-7.11l13.483-43.14H525.99ZM526.121 1573.51c0-6.83 5.541-12.37 12.375-12.37 6.835 0 12.375 5.54 12.375 12.37 0 6.84-5.54 12.38-12.375 12.38-6.834 0-12.375-5.54-12.375-12.38ZM598.496 1561.14c-6.834 0-12.375 5.54-12.375 12.37 0 6.84 5.541 12.38 12.375 12.38 6.835 0 12.375-5.54 12.375-12.38 0-6.83-5.54-12.37-12.375-12.37Z"/></g></g></g><g id="Black-M"><g id="Outline / Shop cart Outline_10"><g id="Shape_10" fill="#000" fill-rule="evenodd" clip-rule="evenodd"><path d="M2872.71 1044.34c0-2.09 1.69-3.79 3.79-3.79h5.47c7.09 0 13.28 4.83 15 11.71l2.9 11.62h75.79c1.21 0 2.34.58 3.06 1.55.71.97.92 2.23.56 3.38l-12.02 38.48c-2.02 6.45-8 10.84-14.76 10.84h-34.81c-7.09 0-13.28-4.82-15-11.71l-13.08-52.32a7.881 7.881 0 0 0-7.64-5.97h-5.47c-2.1 0-3.79-1.69-3.79-3.79Zm29.06 27.13 8.28 33.12c.88 3.5 4.03 5.96 7.64 5.96h34.81c3.45 0 6.49-2.24 7.52-5.53l10.49-33.55h-68.74ZM2901.87 1131.84c0-5.31 4.31-9.62 9.63-9.62 5.31 0 9.62 4.31 9.62 9.62 0 5.32-4.31 9.63-9.62 9.63-5.32 0-9.63-4.31-9.63-9.63ZM2958.16 1122.22c-5.31 0-9.62 4.31-9.62 9.62 0 5.32 4.31 9.63 9.62 9.63 5.32 0 9.63-4.31 9.63-9.63 0-5.31-4.31-9.62-9.63-9.62Z"/></g></g></g><g id="Heavy-M"><g id="Outline / Shop cart Outline_11"><g id="Shape_11" fill="#000" fill-rule="evenodd" clip-rule="evenodd"><path d="M2576.71 1044.34c0-2.09 1.69-3.79 3.79-3.79h5.47c7.09 0 13.28 4.83 15 11.71l2.9 11.62h75.79c1.21 0 2.34.58 3.06 1.55.71.97.92 2.23.56 3.38l-12.02 38.48c-2.02 6.45-8 10.84-14.76 10.84h-34.81c-7.09 0-13.28-4.82-15-11.71l-13.08-52.32a7.881 7.881 0 0 0-7.64-5.97h-5.47c-2.1 0-3.79-1.69-3.79-3.79Zm29.06 27.13 8.28 33.12c.88 3.5 4.03 5.96 7.64 5.96h34.81c3.45 0 6.49-2.24 7.52-5.53l10.49-33.55h-68.74ZM2605.87 1131.84c0-5.31 4.31-9.62 9.63-9.62 5.31 0 9.62 4.31 9.62 9.62 0 5.32-4.31 9.63-9.62 9.63-5.32 0-9.63-4.31-9.63-9.63ZM2662.16 1122.22c-5.31 0-9.62 4.31-9.62 9.62 0 5.32 4.31 9.63 9.62 9.63 5.32 0 9.63-4.31 9.63-9.63 0-5.31-4.31-9.62-9.63-9.62Z"/></g></g></g><g id="Bold-M"><g id="Outline / Shop cart Outline_12"><g id="Shape_12" fill="#000" fill-rule="evenodd" clip-rule="evenodd"><path d="M2280.71 1044.34c0-2.09 1.69-3.79 3.79-3.79h5.47c7.09 0 13.28 4.83 15 11.71l2.9 11.62h75.79c1.21 0 2.34.58 3.06 1.55.71.97.92 2.23.56 3.38l-12.02 38.48c-2.02 6.45-8 10.84-14.76 10.84h-34.81c-7.09 0-13.28-4.82-15-11.71l-13.08-52.32a7.881 7.881 0 0 0-7.64-5.97h-5.47c-2.1 0-3.79-1.69-3.79-3.79Zm29.06 27.13 8.28 33.12c.88 3.5 4.03 5.96 7.64 5.96h34.81c3.45 0 6.49-2.24 7.52-5.53l10.49-33.55h-68.74ZM2309.87 1131.84c0-5.31 4.31-9.62 9.63-9.62 5.31 0 9.62 4.31 9.62 9.62 0 5.32-4.31 9.63-9.62 9.63-5.32 0-9.63-4.31-9.63-9.63ZM2366.16 1122.22c-5.31 0-9.62 4.31-9.62 9.62 0 5.32 4.31 9.63 9.62 9.63 5.32 0 9.63-4.31 9.63-9.63 0-5.31-4.31-9.62-9.63-9.62Z"/></g></g></g><g id="Semibold-M"><g id="Outline / Shop cart Outline_13"><g id="Shape_13" fill="#000" fill-rule="evenodd" clip-rule="evenodd"><path d="M1984.71 1044.34c0-2.09 1.69-3.79 3.79-3.79h5.47c7.09 0 13.28 4.83 15 11.71l2.9 11.62h75.79c1.21 0 2.34.58 3.06 1.55.71.97.92 2.23.56 3.38l-12.02 38.48c-2.02 6.45-8 10.84-14.76 10.84h-34.81c-7.09 0-13.28-4.82-15-11.71l-13.08-52.32a7.881 7.881 0 0 0-7.64-5.97h-5.47c-2.1 0-3.79-1.69-3.79-3.79Zm29.06 27.13 8.28 33.12c.88 3.5 4.03 5.96 7.64 5.96h34.81c3.45 0 6.49-2.24 7.52-5.53l10.49-33.55h-68.74ZM2013.87 1131.84c0-5.31 4.31-9.62 9.63-9.62 5.31 0 9.62 4.31 9.62 9.62 0 5.32-4.31 9.63-9.62 9.63-5.32 0-9.63-4.31-9.63-9.63ZM2070.16 1122.22c-5.31 0-9.62 4.31-9.62 9.62 0 5.32 4.31 9.63 9.62 9.63 5.32 0 9.63-4.31 9.63-9.63 0-5.31-4.31-9.62-9.63-9.62Z"/></g></g></g><g id="Medium-M"><g id="Outline / Shop cart Outline_14"><g id="Shape_14" fill="#000" fill-rule="evenodd" clip-rule="evenodd"><path d="M1688.71 1044.34c0-2.09 1.69-3.79 3.79-3.79h5.47c7.09 0 13.28 4.83 15 11.71l2.9 11.62h75.79c1.21 0 2.34.58 3.06 1.55.71.97.92 2.23.56 3.38l-12.02 38.48c-2.02 6.45-8 10.84-14.76 10.84h-34.81c-7.09 0-13.28-4.82-15-11.71l-13.08-52.32a7.881 7.881 0 0 0-7.64-5.97h-5.47c-2.1 0-3.79-1.69-3.79-3.79Zm29.06 27.13 8.28 33.12c.88 3.5 4.03 5.96 7.64 5.96h34.81c3.45 0 6.49-2.24 7.52-5.53l10.49-33.55h-68.74ZM1717.87 1131.84c0-5.31 4.31-9.62 9.63-9.62 5.31 0 9.62 4.31 9.62 9.62 0 5.32-4.31 9.63-9.62 9.63-5.32 0-9.63-4.31-9.63-9.63ZM1774.16 1122.22c-5.31 0-9.62 4.31-9.62 9.62 0 5.32 4.31 9.63 9.62 9.63 5.32 0 9.63-4.31 9.63-9.63 0-5.31-4.31-9.62-9.63-9.62Z"/></g></g></g><g id="Regular-M"><g id="Outline / Shop cart Outline_15"><g id="Shape_15" fill="#000" fill-rule="evenodd" clip-rule="evenodd"><path d="M1392.71 1044.34c0-2.09 1.69-3.79 3.79-3.79h5.47c7.09 0 13.28 4.83 15 11.71l2.9 11.62h75.79c1.21 0 2.34.58 3.06 1.55.71.97.92 2.23.56 3.38l-12.02 38.48c-2.02 6.45-8 10.84-14.76 10.84h-34.81c-7.09 0-13.28-4.82-15-11.71l-13.08-52.32a7.881 7.881 0 0 0-7.64-5.97h-5.47c-2.1 0-3.79-1.69-3.79-3.79Zm29.06 27.13 8.28 33.12c.88 3.5 4.03 5.96 7.64 5.96h34.81c3.45 0 6.49-2.24 7.52-5.53l10.49-33.55h-68.74ZM1421.87 1131.84c0-5.31 4.31-9.62 9.63-9.62 5.31 0 9.62 4.31 9.62 9.62 0 5.32-4.31 9.63-9.62 9.63-5.32 0-9.63-4.31-9.63-9.63ZM1478.16 1122.22c-5.31 0-9.62 4.31-9.62 9.62 0 5.32 4.31 9.63 9.62 9.63 5.32 0 9.63-4.31 9.63-9.63 0-5.31-4.31-9.62-9.63-9.62Z"/></g></g></g><g id="Light-M"><g id="Outline / Shop cart Outline_16"><g id="Shape_16" fill="#000" fill-rule="evenodd" clip-rule="evenodd"><path d="M1096.71 1044.34c0-2.09 1.69-3.79 3.79-3.79h5.47c7.09 0 13.28 4.83 15 11.71l2.9 11.62h75.79c1.21 0 2.34.58 3.06 1.55.71.97.92 2.23.56 3.38l-12.02 38.48c-2.02 6.45-8 10.84-14.76 10.84h-34.81c-7.09 0-13.28-4.82-15-11.71l-13.08-52.32a7.881 7.881 0 0 0-7.64-5.97h-5.47c-2.1 0-3.79-1.69-3.79-3.79Zm29.06 27.13 8.28 33.12c.88 3.5 4.03 5.96 7.64 5.96h34.81c3.45 0 6.49-2.24 7.52-5.53l10.49-33.55h-68.74ZM1125.87 1131.84c0-5.31 4.31-9.62 9.63-9.62 5.31 0 9.62 4.31 9.62 9.62 0 5.32-4.31 9.63-9.62 9.63-5.32 0-9.63-4.31-9.63-9.63ZM1182.16 1122.22c-5.31 0-9.62 4.31-9.62 9.62 0 5.32 4.31 9.63 9.62 9.63 5.32 0 9.63-4.31 9.63-9.63 0-5.31-4.31-9.62-9.63-9.62Z"/></g></g></g><g id="Thin-M"><g id="Outline / Shop cart Outline_17"><g id="Shape_17" fill="#000" fill-rule="evenodd" clip-rule="evenodd"><path d="M800.705 1044.34c0-2.09 1.698-3.79 3.792-3.79h5.474c7.093 0 13.276 4.83 14.997 11.71l2.906 11.62h75.789a3.8 3.8 0 0 1 3.619 4.93l-12.024 38.48a15.457 15.457 0 0 1-14.755 10.84h-34.814a15.45 15.45 0 0 1-14.997-11.71l-13.081-52.32a7.875 7.875 0 0 0-7.64-5.97h-5.474a3.787 3.787 0 0 1-3.792-3.79Zm29.065 27.13 8.279 33.12a7.878 7.878 0 0 0 7.64 5.96h34.814a7.875 7.875 0 0 0 7.516-5.53l10.487-33.55H829.77ZM829.872 1131.84c0-5.31 4.309-9.62 9.625-9.62 5.315 0 9.625 4.31 9.625 9.62 0 5.32-4.31 9.63-9.625 9.63-5.316 0-9.625-4.31-9.625-9.63ZM886.163 1122.22c-5.315 0-9.625 4.31-9.625 9.62 0 5.32 4.31 9.63 9.625 9.63 5.316 0 9.625-4.31 9.625-9.63 0-5.31-4.309-9.62-9.625-9.62Z"/></g></g></g><g id="Ultralight-M"><g id="Outline / Shop cart Outline_18"><g id="Shape_18" fill="#000" fill-rule="evenodd" clip-rule="evenodd"><path d="M504.705 1044.34c0-2.09 1.698-3.79 3.792-3.79h5.474c7.093 0 13.276 4.83 14.997 11.71l2.906 11.62h75.789a3.8 3.8 0 0 1 3.619 4.93l-12.024 38.48a15.457 15.457 0 0 1-14.755 10.84h-34.814a15.45 15.45 0 0 1-14.997-11.71l-13.081-52.32a7.875 7.875 0 0 0-7.64-5.97h-5.474a3.787 3.787 0 0 1-3.792-3.79Zm29.065 27.13 8.279 33.12a7.878 7.878 0 0 0 7.64 5.96h34.814a7.875 7.875 0 0 0 7.516-5.53l10.487-33.55H533.77ZM533.872 1131.84c0-5.31 4.309-9.62 9.625-9.62 5.315 0 9.625 4.31 9.625 9.62 0 5.32-4.31 9.63-9.625 9.63-5.316 0-9.625-4.31-9.625-9.63ZM590.163 1122.22c-5.315 0-9.625 4.31-9.625 9.62 0 5.32 4.31 9.63 9.625 9.63 5.316 0 9.625-4.31 9.625-9.63 0-5.31-4.309-9.62-9.625-9.62Z"/></g></g></g><g id="Black-S"><g id="Outline / Shop cart Outline_19"><g id="Shape_19" fill="#000" fill-rule="evenodd" clip-rule="evenodd"><path d="M2888.79 627.673a2.707 2.707 0 0 1 2.71-2.708h3.91c5.06 0 9.48 3.448 10.71 8.364l2.08 8.303h54.13c.86 0 1.67.409 2.18 1.104.51.694.66 1.589.41 2.412l-8.59 27.485a11.042 11.042 0 0 1-10.54 7.749h-24.87c-5.07 0-9.48-3.449-10.71-8.364l-9.35-37.376a5.612 5.612 0 0 0-5.45-4.26h-3.91c-1.5 0-2.71-1.213-2.71-2.709Zm20.76 19.375 5.91 23.656a5.633 5.633 0 0 0 5.46 4.261h24.87c2.46 0 4.63-1.599 5.37-3.947l7.49-23.97h-49.1ZM2909.62 690.173a6.875 6.875 0 1 1 13.75 0 6.875 6.875 0 0 1-13.75 0ZM2949.83 683.298c-3.8 0-6.87 3.078-6.87 6.875a6.869 6.869 0 0 0 6.87 6.875c3.8 0 6.88-3.078 6.88-6.875a6.877 6.877 0 0 0-6.88-6.875Z"/></g></g></g><g id="Heavy-S"><g id="Outline / Shop cart Outline_20"><g id="Shape_20" fill="#000" fill-rule="evenodd" clip-rule="evenodd"><path d="M2592.79 627.673a2.707 2.707 0 0 1 2.71-2.708h3.91c5.06 0 9.48 3.448 10.71 8.364l2.08 8.303h54.13c.86 0 1.67.409 2.18 1.104.51.694.66 1.589.41 2.412l-8.59 27.485a11.042 11.042 0 0 1-10.54 7.749h-24.87c-5.07 0-9.48-3.449-10.71-8.364l-9.35-37.376a5.612 5.612 0 0 0-5.45-4.26h-3.91c-1.5 0-2.71-1.213-2.71-2.709Zm20.76 19.375 5.91 23.656a5.633 5.633 0 0 0 5.46 4.261h24.87c2.46 0 4.63-1.599 5.37-3.947l7.49-23.97h-49.1ZM2613.62 690.173a6.875 6.875 0 1 1 13.75 0 6.875 6.875 0 0 1-13.75 0ZM2653.83 683.298c-3.8 0-6.87 3.078-6.87 6.875a6.869 6.869 0 0 0 6.87 6.875c3.8 0 6.88-3.078 6.88-6.875a6.877 6.877 0 0 0-6.88-6.875Z"/></g></g></g><g id="Bold-S"><g id="Outline / Shop cart Outline_21"><g id="Shape_21" fill="#000" fill-rule="evenodd" clip-rule="evenodd"><path d="M2296.79 627.673a2.707 2.707 0 0 1 2.71-2.708h3.91c5.06 0 9.48 3.448 10.71 8.364l2.08 8.303h54.13c.86 0 1.67.409 2.18 1.104.51.694.66 1.589.41 2.412l-8.59 27.485a11.042 11.042 0 0 1-10.54 7.749h-24.87c-5.07 0-9.48-3.449-10.71-8.364l-9.35-37.376a5.612 5.612 0 0 0-5.45-4.26h-3.91c-1.5 0-2.71-1.213-2.71-2.709Zm20.76 19.375 5.91 23.656a5.633 5.633 0 0 0 5.46 4.261h24.87c2.46 0 4.63-1.599 5.37-3.947l7.49-23.97h-49.1ZM2317.62 690.173a6.875 6.875 0 1 1 13.75 0 6.875 6.875 0 0 1-13.75 0ZM2357.83 683.298c-3.8 0-6.87 3.078-6.87 6.875a6.869 6.869 0 0 0 6.87 6.875c3.8 0 6.88-3.078 6.88-6.875a6.877 6.877 0 0 0-6.88-6.875Z"/></g></g></g><g id="Semibold-S"><g id="Outline / Shop cart Outline_22"><g id="Shape_22" fill="#000" fill-rule="evenodd" clip-rule="evenodd"><path d="M2000.79 627.673a2.707 2.707 0 0 1 2.71-2.708h3.91c5.06 0 9.48 3.448 10.71 8.364l2.08 8.303h54.13c.86 0 1.67.409 2.18 1.104.51.694.66 1.589.41 2.412l-8.59 27.485a11.042 11.042 0 0 1-10.54 7.749h-24.87c-5.07 0-9.48-3.449-10.71-8.364l-9.35-37.376a5.612 5.612 0 0 0-5.45-4.26h-3.91c-1.5 0-2.71-1.213-2.71-2.709Zm20.76 19.375 5.91 23.656a5.633 5.633 0 0 0 5.46 4.261h24.87c2.46 0 4.63-1.599 5.37-3.947l7.49-23.97h-49.1ZM2021.62 690.173a6.875 6.875 0 1 1 13.75 0 6.875 6.875 0 0 1-13.75 0ZM2061.83 683.298c-3.8 0-6.87 3.078-6.87 6.875a6.869 6.869 0 0 0 6.87 6.875c3.8 0 6.88-3.078 6.88-6.875a6.877 6.877 0 0 0-6.88-6.875Z"/></g></g></g><g id="Medium-S"><g id="Outline / Shop cart Outline_23"><g id="Shape_23" fill="#000" fill-rule="evenodd" clip-rule="evenodd"><path d="M1704.79 627.673a2.707 2.707 0 0 1 2.71-2.708h3.91c5.06 0 9.48 3.448 10.71 8.364l2.08 8.303h54.13c.86 0 1.67.409 2.18 1.104.51.694.66 1.589.41 2.412l-8.59 27.485a11.042 11.042 0 0 1-10.54 7.749h-24.87c-5.07 0-9.48-3.449-10.71-8.364l-9.35-37.376a5.612 5.612 0 0 0-5.45-4.26h-3.91c-1.5 0-2.71-1.213-2.71-2.709Zm20.76 19.375 5.91 23.656a5.633 5.633 0 0 0 5.46 4.261h24.87c2.46 0 4.63-1.599 5.37-3.947l7.49-23.97h-49.1ZM1725.62 690.173a6.875 6.875 0 1 1 13.75 0 6.875 6.875 0 0 1-13.75 0ZM1765.83 683.298c-3.8 0-6.87 3.078-6.87 6.875a6.869 6.869 0 0 0 6.87 6.875c3.8 0 6.88-3.078 6.88-6.875a6.877 6.877 0 0 0-6.88-6.875Z"/></g></g></g><g id="Regular-S"><g id="Outline / Shop cart Outline_24"><g id="Shape_24" fill="#000" fill-rule="evenodd" clip-rule="evenodd"><path d="M1408.79 627.673a2.707 2.707 0 0 1 2.71-2.708h3.91c5.06 0 9.48 3.448 10.71 8.364l2.08 8.303h54.13c.86 0 1.67.409 2.18 1.104.51.694.66 1.589.41 2.412l-8.59 27.485a11.042 11.042 0 0 1-10.54 7.749h-24.87c-5.07 0-9.48-3.449-10.71-8.364l-9.35-37.376a5.612 5.612 0 0 0-5.45-4.26h-3.91c-1.5 0-2.71-1.213-2.71-2.709Zm20.76 19.375 5.91 23.656a5.633 5.633 0 0 0 5.46 4.261h24.87c2.46 0 4.63-1.599 5.37-3.947l7.49-23.97h-49.1ZM1429.62 690.173a6.875 6.875 0 1 1 13.75 0 6.875 6.875 0 0 1-13.75 0ZM1469.83 683.298c-3.8 0-6.87 3.078-6.87 6.875a6.869 6.869 0 0 0 6.87 6.875c3.8 0 6.88-3.078 6.88-6.875a6.877 6.877 0 0 0-6.88-6.875Z"/></g></g></g><g id="Light-S"><g id="Outline / Shop cart Outline_25"><g id="Shape_25" fill="#000" fill-rule="evenodd" clip-rule="evenodd"><path d="M1112.79 627.673a2.707 2.707 0 0 1 2.71-2.708h3.91c5.06 0 9.48 3.448 10.71 8.364l2.08 8.303h54.13c.86 0 1.67.409 2.18 1.104.51.694.66 1.589.41 2.412l-8.59 27.485a11.042 11.042 0 0 1-10.54 7.749h-24.87c-5.07 0-9.48-3.449-10.71-8.364l-9.35-37.376a5.612 5.612 0 0 0-5.45-4.26h-3.91c-1.5 0-2.71-1.213-2.71-2.709Zm20.76 19.375 5.91 23.656a5.633 5.633 0 0 0 5.46 4.261h24.87c2.46 0 4.63-1.599 5.37-3.947l7.49-23.97h-49.1ZM1133.62 690.173a6.875 6.875 0 1 1 13.75 0 6.875 6.875 0 0 1-13.75 0ZM1173.83 683.298c-3.8 0-6.87 3.078-6.87 6.875a6.869 6.869 0 0 0 6.87 6.875c3.8 0 6.88-3.078 6.88-6.875a6.877 6.877 0 0 0-6.88-6.875Z"/></g></g></g><g id="Thin-S"><g id="Outline / Shop cart Outline_26"><g id="Shape_26" fill="#000" fill-rule="evenodd" clip-rule="evenodd"><path d="M816.789 627.673a2.708 2.708 0 0 1 2.708-2.708h3.911c5.066 0 9.483 3.448 10.712 8.364l2.075 8.303h54.136a2.707 2.707 0 0 1 2.585 3.516l-8.589 27.485a11.043 11.043 0 0 1-10.54 7.749h-24.866a11.041 11.041 0 0 1-10.712-8.364l-9.344-37.376a5.624 5.624 0 0 0-5.457-4.26h-3.911a2.709 2.709 0 0 1-2.708-2.709Zm20.76 19.375 5.914 23.656a5.626 5.626 0 0 0 5.458 4.261h24.866a5.624 5.624 0 0 0 5.369-3.947l7.491-23.97h-49.098ZM837.622 690.173a6.875 6.875 0 1 1 13.75 0 6.875 6.875 0 0 1-13.75 0ZM877.831 683.298a6.875 6.875 0 1 0 0 13.75 6.875 6.875 0 0 0 0-13.75Z"/></g></g></g><g id="Ultralight-S"><g id="Outline / Shop cart Outline_27"><g id="Shape_27" fill="#000" fill-rule="evenodd" clip-rule="evenodd"><path d="M520.789 627.673a2.708 2.708 0 0 1 2.708-2.708h3.911c5.066 0 9.483 3.448 10.712 8.364l2.075 8.303h54.136a2.707 2.707 0 0 1 2.585 3.516l-8.589 27.485a11.043 11.043 0 0 1-10.54 7.749h-24.866a11.041 11.041 0 0 1-10.712-8.364l-9.344-37.376a5.624 5.624 0 0 0-5.457-4.26h-3.911a2.709 2.709 0 0 1-2.708-2.709Zm20.76 19.375 5.914 23.656a5.626 5.626 0 0 0 5.458 4.261h24.866a5.624 5.624 0 0 0 5.369-3.947l7.491-23.97h-49.098ZM541.622 690.173a6.875 6.875 0 1 1 13.75 0 6.875 6.875 0 0 1-13.75 0ZM581.831 683.298a6.875 6.875 0 1 0 0 13.75 6.875 6.875 0 0 0 0-13.75Z"/></g></g></g></g></g><defs><clipPath id="clip0_0_1"><path fill="#fff" d="M0 0h3300v2200H0z"/></clipPath></defs></svg>