<svg width="3300" height="2200" viewBox="0 0 3300 2200" fill="none" xmlns="http://www.w3.org/2000/svg">
<rect width="3300" height="2200" fill="#E5E5E5"/>
<g id="Category / Outline / Multibonus" clip-path="url(#clip0_0_1)">
<g id="Notes">
<path id="artboard" d="M3300 0H0V2200H3300V0Z" fill="white"/>
<path id="Vector" d="M263 292H3036" stroke="black" stroke-width="0.5"/>
<text id="Weight/Scale Variations" fill="black" xml:space="preserve" style="white-space: pre" font-family="Roboto" font-size="12" letter-spacing="0em"><tspan x="263" y="321.102">Weight/Scale Variations</tspan></text>
<text id="Ultralight" fill="black" xml:space="preserve" style="white-space: pre" font-family="Roboto" font-size="12" letter-spacing="0em"><tspan x="535.211" y="321.102">Ultralight</tspan></text>
<text id="Thin" fill="black" xml:space="preserve" style="white-space: pre" font-family="Roboto" font-size="12" letter-spacing="0em"><tspan x="844.422" y="321.102">Thin</tspan></text>
<text id="Light" fill="black" xml:space="preserve" style="white-space: pre" font-family="Roboto" font-size="12" letter-spacing="0em"><tspan x="1139.63" y="321.102">Light</tspan></text>
<text id="Regular" fill="black" xml:space="preserve" style="white-space: pre" font-family="Roboto" font-size="12" letter-spacing="0em"><tspan x="1429.34" y="321.102">Regular</tspan></text>
<text id="Medium" fill="black" xml:space="preserve" style="white-space: pre" font-family="Roboto" font-size="12" letter-spacing="0em"><tspan x="1724.56" y="321.102">Medium</tspan></text>
<text id="Semibold" fill="black" xml:space="preserve" style="white-space: pre" font-family="Roboto" font-size="12" letter-spacing="0em"><tspan x="2017.77" y="321.102">Semibold</tspan></text>
<text id="Bold" fill="black" xml:space="preserve" style="white-space: pre" font-family="Roboto" font-size="12" letter-spacing="0em"><tspan x="2327.48" y="321.102">Bold</tspan></text>
<text id="Heavy" fill="black" xml:space="preserve" style="white-space: pre" font-family="Roboto" font-size="12" letter-spacing="0em"><tspan x="2620.19" y="321.102">Heavy</tspan></text>
<text id="Black" fill="black" xml:space="preserve" style="white-space: pre" font-family="Roboto" font-size="12" letter-spacing="0em"><tspan x="2918.4" y="321.102">Black</tspan></text>
<path id="Vector_2" d="M263 1903H3036" stroke="black" stroke-width="0.5"/>
<g id="Group">
<path id="Vector_3" d="M272.248 1933.83C276.555 1933.83 280.139 1930.26 280.139 1925.95C280.139 1921.64 276.545 1918.07 272.238 1918.07C267.941 1918.07 264.367 1921.64 264.367 1925.95C264.367 1930.26 267.951 1933.83 272.248 1933.83ZM272.248 1932.35C268.703 1932.35 265.871 1929.51 265.871 1925.95C265.871 1922.4 268.693 1919.55 272.238 1919.55C275.793 1919.55 278.635 1922.4 278.644 1925.95C278.654 1929.51 275.803 1932.35 272.248 1932.35ZM272.229 1929.57C272.697 1929.57 272.971 1929.26 272.971 1928.74V1926.68H275.197C275.695 1926.68 276.037 1926.43 276.037 1925.96C276.037 1925.48 275.715 1925.22 275.197 1925.22H272.971V1922.99C272.971 1922.47 272.697 1922.15 272.229 1922.15C271.76 1922.15 271.506 1922.49 271.506 1922.99V1925.22H269.299C268.781 1925.22 268.449 1925.48 268.449 1925.96C268.449 1926.43 268.801 1926.68 269.299 1926.68H271.506V1928.74C271.506 1929.24 271.76 1929.57 272.229 1929.57Z" fill="black"/>
</g>
<g id="Group_2">
<path id="Vector_4" d="M293.215 1935.91C298.664 1935.91 303.176 1931.4 303.176 1925.95C303.176 1920.51 298.654 1915.99 293.205 1915.99C287.766 1915.99 283.254 1920.51 283.254 1925.95C283.254 1931.4 287.775 1935.91 293.215 1935.91ZM293.215 1934.25C288.605 1934.25 284.924 1930.56 284.924 1925.95C284.924 1921.35 288.596 1917.65 293.205 1917.65C297.814 1917.65 301.506 1921.35 301.516 1925.95C301.525 1930.56 297.824 1934.25 293.215 1934.25ZM293.195 1930.59C293.713 1930.59 294.025 1930.23 294.025 1929.66V1926.77H297.082C297.629 1926.77 298.01 1926.49 298.01 1925.97C298.01 1925.44 297.648 1925.14 297.082 1925.14H294.025V1922.07C294.025 1921.5 293.713 1921.14 293.195 1921.14C292.678 1921.14 292.385 1921.52 292.385 1922.07V1925.14H289.338C288.771 1925.14 288.4 1925.44 288.4 1925.97C288.4 1926.49 288.791 1926.77 289.338 1926.77H292.385V1929.66C292.385 1930.21 292.678 1930.59 293.195 1930.59Z" fill="black"/>
</g>
<g id="Group_3">
<path id="Vector_5" d="M319.895 1938.67C326.857 1938.67 332.619 1932.92 332.619 1925.96C332.619 1918.99 326.848 1913.24 319.885 1913.24C312.932 1913.24 307.18 1918.99 307.18 1925.96C307.18 1932.92 312.941 1938.67 319.895 1938.67ZM319.895 1936.86C313.859 1936.86 309.006 1931.99 309.006 1925.96C309.006 1919.92 313.85 1915.06 319.885 1915.06C325.93 1915.06 330.783 1919.92 330.793 1925.96C330.803 1931.99 325.939 1936.86 319.895 1936.86ZM319.875 1931.93C320.441 1931.93 320.793 1931.54 320.793 1930.94V1926.87H325.031C325.617 1926.87 326.037 1926.53 326.037 1925.98C326.037 1925.4 325.647 1925.06 325.031 1925.06H320.793V1920.81C320.793 1920.2 320.441 1919.8 319.875 1919.8C319.309 1919.8 318.986 1920.21 318.986 1920.81V1925.06H314.758C314.143 1925.06 313.732 1925.4 313.732 1925.98C313.732 1926.53 314.162 1926.87 314.758 1926.87H318.986V1930.94C318.986 1931.52 319.309 1931.93 319.875 1931.93Z" fill="black"/>
</g>
<text id="Design Variations" fill="black" xml:space="preserve" style="white-space: pre" font-family="Roboto" font-size="12" letter-spacing="0em"><tspan x="263" y="1952.1">Design Variations</tspan></text>
<text id="Symbols are supported in up to nine weights and three scales." fill="black" xml:space="preserve" style="white-space: pre" font-family="Roboto" font-size="12" letter-spacing="0em"><tspan x="263" y="1970.1">Symbols are supported in up to nine weights and three scales.</tspan></text>
<text id="For optimal layout with text and other symbols, vertically align" fill="black" xml:space="preserve" style="white-space: pre" font-family="Roboto" font-size="12" letter-spacing="0em"><tspan x="263" y="1988.1">For optimal layout with text and other symbols, vertically align</tspan></text>
<text id="symbols with the adjacent text." fill="black" xml:space="preserve" style="white-space: pre" font-family="Roboto" font-size="12" letter-spacing="0em"><tspan x="263" y="2006.1">symbols with the adjacent text.</tspan></text>
<path id="Vector_6" opacity="0.4" d="M779 1919H776V1933H779V1919Z" fill="#00AEEF"/>
<g id="Group_4">
<path id="Vector_7" d="M789.527 1933H791.373L786.178 1918.91H784.439L779.244 1933H781.09L782.506 1928.96H788.111L789.527 1933ZM785.279 1921.04H785.338L787.594 1927.47H783.023L785.279 1921.04Z" fill="black"/>
</g>
<path id="Vector_8" opacity="0.4" d="M794.617 1919H791.617V1933H794.617V1919Z" fill="#00AEEF"/>
<text id="Margins" fill="black" xml:space="preserve" style="white-space: pre" font-family="Roboto" font-size="12" letter-spacing="0em"><tspan x="776" y="1952.1">Margins</tspan></text>
<text id="Leading and trailing margins on the left and right side of each symbol" fill="black" xml:space="preserve" style="white-space: pre" font-family="Roboto" font-size="12" letter-spacing="0em"><tspan x="776" y="1970.1">Leading and trailing margins on the left and right side of each symbol</tspan></text>
<text id="can be adjusted by modifying the width of the blue rectangles." fill="black" xml:space="preserve" style="white-space: pre" font-family="Roboto" font-size="12" letter-spacing="0em"><tspan x="776" y="1988.1">can be adjusted by modifying the width of the blue rectangles.</tspan></text>
<text id="Modifications are automatically applied proportionally to all" fill="black" xml:space="preserve" style="white-space: pre" font-family="Roboto" font-size="12" letter-spacing="0em"><tspan x="776" y="2006.1">Modifications are automatically applied proportionally to all</tspan></text>
<text id="scales and weights." fill="black" xml:space="preserve" style="white-space: pre" font-family="Roboto" font-size="12" letter-spacing="0em"><tspan x="776" y="2024.1">scales and weights.</tspan></text>
<g id="Group_5">
<path id="Vector_9" d="M1291.83 1936.11L1293.37 1937.66C1294.22 1938.49 1295.19 1938.42 1296.06 1937.46L1306.27 1926.34C1306.7 1926.63 1307.1 1926.62 1307.56 1926.52L1308.61 1926.31L1309.3 1927L1309.25 1927.52C1309.19 1928.05 1309.35 1928.47 1309.85 1928.97L1310.66 1929.78C1311.17 1930.28 1311.82 1930.31 1312.3 1929.83L1315.55 1926.58C1316.03 1926.1 1316.01 1925.45 1315.5 1924.94L1314.68 1924.12C1314.19 1923.62 1313.77 1923.45 1313.24 1923.53L1312.71 1923.58L1312.06 1922.92L1312.34 1921.78C1312.49 1921.21 1312.34 1920.74 1311.71 1920.14L1309.3 1917.75C1305.76 1914.22 1301.23 1914.33 1298.11 1917.46C1297.69 1917.89 1297.64 1918.48 1297.92 1918.91C1298.15 1919.28 1298.63 1919.5 1299.27 1919.34C1300.79 1918.96 1302.3 1919.07 1303.78 1920.08L1303.16 1921.66C1302.93 1922.25 1302.94 1922.73 1303.18 1923.16L1292.02 1933.44C1291.08 1934.31 1290.97 1935.25 1291.83 1936.11ZM1299.67 1917.85C1302.34 1915.86 1305.65 1916.17 1308.05 1918.58L1310.68 1921.19C1310.91 1921.43 1310.94 1921.61 1310.88 1921.91L1310.5 1923.47L1312.08 1925.04L1313.04 1924.95C1313.33 1924.92 1313.41 1924.94 1313.64 1925.17L1314.26 1925.79L1311.51 1928.54L1310.88 1927.92C1310.66 1927.7 1310.64 1927.6 1310.67 1927.32L1310.76 1926.36L1309.19 1924.8L1307.57 1925.11C1307.29 1925.17 1307.14 1925.17 1306.91 1924.92L1304.73 1922.75C1304.51 1922.51 1304.48 1922.37 1304.61 1922.05L1305.55 1919.78C1303.95 1918.24 1301.84 1917.39 1299.8 1918.05C1299.71 1918.08 1299.64 1918.06 1299.61 1918.02C1299.59 1917.97 1299.59 1917.92 1299.67 1917.85ZM1293.1 1935.41C1292.61 1934.91 1292.79 1934.61 1293.12 1934.31L1304.08 1924.19L1305.31 1925.42L1295.15 1936.35C1294.85 1936.68 1294.47 1936.78 1294.07 1936.38L1293.1 1935.41Z" fill="black"/>
</g>
<text id="Exporting" fill="black" xml:space="preserve" style="white-space: pre" font-family="Roboto" font-size="12" letter-spacing="0em"><tspan x="1289" y="1952.1">Exporting</tspan></text>
<text id="Symbols should be outlined when exporting to ensure the" fill="black" xml:space="preserve" style="white-space: pre" font-family="Roboto" font-size="12" letter-spacing="0em"><tspan x="1289" y="1970.1">Symbols should be outlined when exporting to ensure the</tspan></text>
<text id="design is preserved when submitting to Xcode." fill="black" xml:space="preserve" style="white-space: pre" font-family="Roboto" font-size="12" letter-spacing="0em"><tspan x="1289" y="1988.1">design is preserved when submitting to Xcode.</tspan></text>
<text id="template-version" fill="black" xml:space="preserve" style="white-space: pre" font-family="Roboto" font-size="12" letter-spacing="0em"><tspan x="2958" y="1932.1">Template v.1.0</tspan></text>
<text id="Generated from pencil.circle" fill="black" xml:space="preserve" style="white-space: pre" font-family="Roboto" font-size="12" letter-spacing="0em"><tspan x="2885" y="1950.1">Generated from pencil.circle</tspan></text>
<text id="Typeset at 100 points" fill="black" xml:space="preserve" style="white-space: pre" font-family="Roboto" font-size="12" letter-spacing="0em"><tspan x="2921" y="1968.1">Typeset at 100 points</tspan></text>
<text id="Small" fill="black" xml:space="preserve" style="white-space: pre" font-family="Roboto" font-size="12" letter-spacing="0em"><tspan x="263" y="725.102">Small</tspan></text>
<text id="Medium_2" fill="black" xml:space="preserve" style="white-space: pre" font-family="Roboto" font-size="12" letter-spacing="0em"><tspan x="263" y="1155.1">Medium</tspan></text>
<text id="Large" fill="black" xml:space="preserve" style="white-space: pre" font-family="Roboto" font-size="12" letter-spacing="0em"><tspan x="263" y="1585.1">Large</tspan></text>
</g>
<g id="Guides">
<g id="H-reference">
<path id="Vector_10" d="M393.932 695.998H396.666L369.566 625.539H367.076L339.977 695.998H342.662L351.94 671.535H384.703L393.932 695.998ZM368.199 628.908H368.443L383.824 669.289H352.818L368.199 628.908Z" fill="#27AAE1"/>
</g>
<path id="Baseline-S" d="M263 696H3036" stroke="#27AAE1" stroke-width="0.577"/>
<path id="Capline-S" d="M263 626H3036" stroke="#27AAE1" stroke-width="0.577"/>
<g id="H-reference_2">
<path id="Vector_11" d="M393.932 1126H396.666L369.566 1055.54H367.076L339.977 1126H342.662L351.94 1101.54H384.703L393.932 1126ZM368.199 1058.91H368.443L383.824 1099.29H352.818L368.199 1058.91Z" fill="#27AAE1"/>
</g>
<path id="Baseline-M" d="M263 1126H3036" stroke="#27AAE1" stroke-width="0.577"/>
<path id="Capline-M" d="M263 1056H3036" stroke="#27AAE1" stroke-width="0.577"/>
<g id="H-reference_3">
<path id="Vector_12" d="M393.932 1556H396.666L369.566 1485.54H367.076L339.977 1556H342.662L351.94 1531.54H384.703L393.932 1556ZM368.199 1488.91H368.443L383.824 1529.29H352.818L368.199 1488.91Z" fill="#27AAE1"/>
</g>
<g id="Group 1">
<path id="Baseline-L" d="M263 1556H3036" stroke="#27AAE1" stroke-width="0.577"/>
<path id="Capline-L" d="M263 1486H3036" stroke="#27AAE1" stroke-width="0.577"/>
</g>
<path id="left-margin" opacity="0.4" d="M1402.04 1030.79H1393.3V1150.12H1402.04V1030.79Z" fill="#00AEEF"/>
<path id="right-margin" opacity="0.4" d="M1505.39 1030.79H1496.65V1150.12H1505.39V1030.79Z" fill="#00AEEF"/>
</g>
<g id="Symbols">
<g id="Black-L">
<g id="Outline / Multibonus Outline">
<g id="Shape">
<path d="M2913.7 1506.31C2912.3 1504.91 2910.21 1504.5 2908.38 1505.25C2906.56 1506.01 2905.37 1507.78 2905.37 1509.76V1547.26C2905.37 1549.95 2907.56 1552.13 2910.25 1552.13C2912.94 1552.13 2915.12 1549.95 2915.12 1547.26V1521.52L2925.55 1531.95C2927.46 1533.86 2930.54 1533.86 2932.45 1531.95L2942.87 1521.52V1547.26C2942.87 1549.95 2945.06 1552.13 2947.75 1552.13C2950.44 1552.13 2952.62 1549.95 2952.62 1547.26V1509.76C2952.62 1507.78 2951.44 1506.01 2949.62 1505.25C2947.79 1504.5 2945.7 1504.91 2944.3 1506.31L2929 1521.61L2913.7 1506.31Z" fill="black"/>
<path fill-rule="evenodd" clip-rule="evenodd" d="M2888.78 1465.51C2887.78 1470.2 2888.61 1474.79 2890.74 1478.6C2878.66 1479 2869 1488.91 2869 1501.08V1558.51C2869 1570.93 2879.07 1581.01 2891.5 1581.01H2966.5C2978.93 1581.01 2989 1570.93 2989 1558.51V1501.08C2989 1488.91 2979.33 1479 2967.26 1478.6C2969.39 1474.79 2970.22 1470.2 2969.22 1465.51L2969.09 1464.88C2967.76 1458.65 2963.2 1453.61 2957.14 1451.67C2946.23 1448.18 2934.95 1452.63 2929 1461.4C2923.05 1452.63 2911.77 1448.18 2900.86 1451.67C2894.8 1453.61 2890.24 1458.65 2888.91 1464.88L2888.78 1465.51ZM2933.92 1478.53L2934.63 1473.3C2935.89 1464.01 2945.23 1458.1 2954.17 1460.96C2956.9 1461.83 2958.95 1464.1 2959.55 1466.91L2959.68 1467.54C2960.89 1473.2 2956.57 1478.54 2950.78 1478.54H2933.92L2933.92 1478.53ZM2924.08 1478.53L2923.37 1473.3C2922.11 1464.01 2912.76 1458.1 2903.83 1460.96C2901.1 1461.83 2899.05 1464.1 2898.45 1466.91L2898.31 1467.54C2897.11 1473.2 2901.43 1478.54 2907.22 1478.54H2924.08L2924.08 1478.53ZM2891.5 1488.33C2884.46 1488.33 2878.75 1494.04 2878.75 1501.08V1558.51C2878.75 1565.55 2884.46 1571.26 2891.5 1571.26H2966.5C2973.54 1571.26 2979.25 1565.55 2979.25 1558.51V1501.08C2979.25 1494.04 2973.54 1488.33 2966.5 1488.33H2891.5Z" fill="black"/>
</g>
</g>
</g>
<g id="Heavy-L">
<g id="Outline / Multibonus Outline_2">
<g id="Shape_2">
<path d="M2617.7 1506.31C2616.3 1504.91 2614.21 1504.5 2612.38 1505.25C2610.56 1506.01 2609.37 1507.78 2609.37 1509.76V1547.26C2609.37 1549.95 2611.56 1552.13 2614.25 1552.13C2616.94 1552.13 2619.12 1549.95 2619.12 1547.26V1521.52L2629.55 1531.95C2631.46 1533.86 2634.54 1533.86 2636.45 1531.95L2646.87 1521.52V1547.26C2646.87 1549.95 2649.06 1552.13 2651.75 1552.13C2654.44 1552.13 2656.62 1549.95 2656.62 1547.26V1509.76C2656.62 1507.78 2655.44 1506.01 2653.62 1505.25C2651.79 1504.5 2649.7 1504.91 2648.3 1506.31L2633 1521.61L2617.7 1506.31Z" fill="black"/>
<path fill-rule="evenodd" clip-rule="evenodd" d="M2592.78 1465.51C2591.78 1470.2 2592.61 1474.79 2594.74 1478.6C2582.66 1479 2573 1488.91 2573 1501.08V1558.51C2573 1570.93 2583.07 1581.01 2595.5 1581.01H2670.5C2682.93 1581.01 2693 1570.93 2693 1558.51V1501.08C2693 1488.91 2683.33 1479 2671.26 1478.6C2673.39 1474.79 2674.22 1470.2 2673.22 1465.51L2673.09 1464.88C2671.76 1458.65 2667.2 1453.61 2661.14 1451.67C2650.23 1448.18 2638.95 1452.63 2633 1461.4C2627.05 1452.63 2615.77 1448.18 2604.86 1451.67C2598.8 1453.61 2594.24 1458.65 2592.91 1464.88L2592.78 1465.51ZM2637.92 1478.53L2638.63 1473.3C2639.89 1464.01 2649.23 1458.1 2658.17 1460.96C2660.9 1461.83 2662.95 1464.1 2663.55 1466.91L2663.68 1467.54C2664.89 1473.2 2660.57 1478.54 2654.78 1478.54H2637.92L2637.92 1478.53ZM2628.08 1478.53L2627.37 1473.3C2626.11 1464.01 2616.76 1458.1 2607.83 1460.96C2605.1 1461.83 2603.05 1464.1 2602.45 1466.91L2602.31 1467.54C2601.11 1473.2 2605.43 1478.54 2611.22 1478.54H2628.08L2628.08 1478.53ZM2595.5 1488.33C2588.46 1488.33 2582.75 1494.04 2582.75 1501.08V1558.51C2582.75 1565.55 2588.46 1571.26 2595.5 1571.26H2670.5C2677.54 1571.26 2683.25 1565.55 2683.25 1558.51V1501.08C2683.25 1494.04 2677.54 1488.33 2670.5 1488.33H2595.5Z" fill="black"/>
</g>
</g>
</g>
<g id="Bold-L">
<g id="Outline / Multibonus Outline_3">
<g id="Shape_3">
<path d="M2321.7 1506.31C2320.3 1504.91 2318.21 1504.5 2316.38 1505.25C2314.56 1506.01 2313.37 1507.78 2313.37 1509.76V1547.26C2313.37 1549.95 2315.56 1552.13 2318.25 1552.13C2320.94 1552.13 2323.12 1549.95 2323.12 1547.26V1521.52L2333.55 1531.95C2335.46 1533.86 2338.54 1533.86 2340.45 1531.95L2350.87 1521.52V1547.26C2350.87 1549.95 2353.06 1552.13 2355.75 1552.13C2358.44 1552.13 2360.62 1549.95 2360.62 1547.26V1509.76C2360.62 1507.78 2359.44 1506.01 2357.62 1505.25C2355.79 1504.5 2353.7 1504.91 2352.3 1506.31L2337 1521.61L2321.7 1506.31Z" fill="black"/>
<path fill-rule="evenodd" clip-rule="evenodd" d="M2296.78 1465.51C2295.78 1470.2 2296.61 1474.79 2298.74 1478.6C2286.66 1479 2277 1488.91 2277 1501.08V1558.51C2277 1570.93 2287.07 1581.01 2299.5 1581.01H2374.5C2386.93 1581.01 2397 1570.93 2397 1558.51V1501.08C2397 1488.91 2387.33 1479 2375.26 1478.6C2377.39 1474.79 2378.22 1470.2 2377.22 1465.51L2377.09 1464.88C2375.76 1458.65 2371.2 1453.61 2365.14 1451.67C2354.23 1448.18 2342.95 1452.63 2337 1461.4C2331.05 1452.63 2319.77 1448.18 2308.86 1451.67C2302.8 1453.61 2298.24 1458.65 2296.91 1464.88L2296.78 1465.51ZM2341.92 1478.53L2342.63 1473.3C2343.89 1464.01 2353.23 1458.1 2362.17 1460.96C2364.9 1461.83 2366.95 1464.1 2367.55 1466.91L2367.68 1467.54C2368.89 1473.2 2364.57 1478.54 2358.78 1478.54H2341.92L2341.92 1478.53ZM2332.08 1478.53L2331.37 1473.3C2330.11 1464.01 2320.76 1458.1 2311.83 1460.96C2309.1 1461.83 2307.05 1464.1 2306.45 1466.91L2306.31 1467.54C2305.11 1473.2 2309.43 1478.54 2315.22 1478.54H2332.08L2332.08 1478.53ZM2299.5 1488.33C2292.46 1488.33 2286.75 1494.04 2286.75 1501.08V1558.51C2286.75 1565.55 2292.46 1571.26 2299.5 1571.26H2374.5C2381.54 1571.26 2387.25 1565.55 2387.25 1558.51V1501.08C2387.25 1494.04 2381.54 1488.33 2374.5 1488.33H2299.5Z" fill="black"/>
</g>
</g>
</g>
<g id="Semibold-L">
<g id="Outline / Multibonus Outline_4">
<g id="Shape_4">
<path d="M2025.7 1506.31C2024.3 1504.91 2022.21 1504.5 2020.38 1505.25C2018.56 1506.01 2017.37 1507.78 2017.37 1509.76V1547.26C2017.37 1549.95 2019.56 1552.13 2022.25 1552.13C2024.94 1552.13 2027.12 1549.95 2027.12 1547.26V1521.52L2037.55 1531.95C2039.46 1533.86 2042.54 1533.86 2044.45 1531.95L2054.87 1521.52V1547.26C2054.87 1549.95 2057.06 1552.13 2059.75 1552.13C2062.44 1552.13 2064.62 1549.95 2064.62 1547.26V1509.76C2064.62 1507.78 2063.44 1506.01 2061.62 1505.25C2059.79 1504.5 2057.7 1504.91 2056.3 1506.31L2041 1521.61L2025.7 1506.31Z" fill="black"/>
<path fill-rule="evenodd" clip-rule="evenodd" d="M2000.78 1465.51C1999.78 1470.2 2000.61 1474.79 2002.74 1478.6C1990.66 1479 1981 1488.91 1981 1501.08V1558.51C1981 1570.93 1991.07 1581.01 2003.5 1581.01H2078.5C2090.93 1581.01 2101 1570.93 2101 1558.51V1501.08C2101 1488.91 2091.33 1479 2079.26 1478.6C2081.39 1474.79 2082.22 1470.2 2081.22 1465.51L2081.09 1464.88C2079.76 1458.65 2075.2 1453.61 2069.14 1451.67C2058.23 1448.18 2046.95 1452.63 2041 1461.4C2035.05 1452.63 2023.77 1448.18 2012.86 1451.67C2006.8 1453.61 2002.24 1458.65 2000.91 1464.88L2000.78 1465.51ZM2045.92 1478.53L2046.63 1473.3C2047.89 1464.01 2057.23 1458.1 2066.17 1460.96C2068.9 1461.83 2070.95 1464.1 2071.55 1466.91L2071.68 1467.54C2072.89 1473.2 2068.57 1478.54 2062.78 1478.54H2045.92L2045.92 1478.53ZM2036.08 1478.53L2035.37 1473.3C2034.11 1464.01 2024.76 1458.1 2015.83 1460.96C2013.1 1461.83 2011.05 1464.1 2010.45 1466.91L2010.31 1467.54C2009.11 1473.2 2013.43 1478.54 2019.22 1478.54H2036.08L2036.08 1478.53ZM2003.5 1488.33C1996.46 1488.33 1990.75 1494.04 1990.75 1501.08V1558.51C1990.75 1565.55 1996.46 1571.26 2003.5 1571.26H2078.5C2085.54 1571.26 2091.25 1565.55 2091.25 1558.51V1501.08C2091.25 1494.04 2085.54 1488.33 2078.5 1488.33H2003.5Z" fill="black"/>
</g>
</g>
</g>
<g id="Medium-L">
<g id="Outline / Multibonus Outline_5">
<g id="Shape_5">
<path d="M1729.7 1506.31C1728.3 1504.91 1726.21 1504.5 1724.38 1505.25C1722.56 1506.01 1721.37 1507.78 1721.37 1509.76V1547.26C1721.37 1549.95 1723.56 1552.13 1726.25 1552.13C1728.94 1552.13 1731.12 1549.95 1731.12 1547.26V1521.52L1741.55 1531.95C1743.46 1533.86 1746.54 1533.86 1748.45 1531.95L1758.87 1521.52V1547.26C1758.87 1549.95 1761.06 1552.13 1763.75 1552.13C1766.44 1552.13 1768.62 1549.95 1768.62 1547.26V1509.76C1768.62 1507.78 1767.44 1506.01 1765.62 1505.25C1763.79 1504.5 1761.7 1504.91 1760.3 1506.31L1745 1521.61L1729.7 1506.31Z" fill="black"/>
<path fill-rule="evenodd" clip-rule="evenodd" d="M1704.78 1465.51C1703.78 1470.2 1704.61 1474.79 1706.74 1478.6C1694.66 1479 1685 1488.91 1685 1501.08V1558.51C1685 1570.93 1695.07 1581.01 1707.5 1581.01H1782.5C1794.93 1581.01 1805 1570.93 1805 1558.51V1501.08C1805 1488.91 1795.33 1479 1783.26 1478.6C1785.39 1474.79 1786.22 1470.2 1785.22 1465.51L1785.09 1464.88C1783.76 1458.65 1779.2 1453.61 1773.14 1451.67C1762.23 1448.18 1750.95 1452.63 1745 1461.4C1739.05 1452.63 1727.77 1448.18 1716.86 1451.67C1710.8 1453.61 1706.24 1458.65 1704.91 1464.88L1704.78 1465.51ZM1749.92 1478.53L1750.63 1473.3C1751.89 1464.01 1761.23 1458.1 1770.17 1460.96C1772.9 1461.83 1774.95 1464.1 1775.55 1466.91L1775.68 1467.54C1776.89 1473.2 1772.57 1478.54 1766.78 1478.54H1749.92L1749.92 1478.53ZM1740.08 1478.53L1739.37 1473.3C1738.11 1464.01 1728.76 1458.1 1719.83 1460.96C1717.1 1461.83 1715.05 1464.1 1714.45 1466.91L1714.31 1467.54C1713.11 1473.2 1717.43 1478.54 1723.22 1478.54H1740.08L1740.08 1478.53ZM1707.5 1488.33C1700.46 1488.33 1694.75 1494.04 1694.75 1501.08V1558.51C1694.75 1565.55 1700.46 1571.26 1707.5 1571.26H1782.5C1789.54 1571.26 1795.25 1565.55 1795.25 1558.51V1501.08C1795.25 1494.04 1789.54 1488.33 1782.5 1488.33H1707.5Z" fill="black"/>
</g>
</g>
</g>
<g id="Regular-L">
<g id="Outline / Multibonus Outline_6">
<g id="Shape_6">
<path d="M1433.7 1506.31C1432.3 1504.91 1430.21 1504.5 1428.38 1505.25C1426.56 1506.01 1425.37 1507.78 1425.37 1509.76V1547.26C1425.37 1549.95 1427.56 1552.13 1430.25 1552.13C1432.94 1552.13 1435.12 1549.95 1435.12 1547.26V1521.52L1445.55 1531.95C1447.46 1533.86 1450.54 1533.86 1452.45 1531.95L1462.87 1521.52V1547.26C1462.87 1549.95 1465.06 1552.13 1467.75 1552.13C1470.44 1552.13 1472.62 1549.95 1472.62 1547.26V1509.76C1472.62 1507.78 1471.44 1506.01 1469.62 1505.25C1467.79 1504.5 1465.7 1504.91 1464.3 1506.31L1449 1521.61L1433.7 1506.31Z" fill="black"/>
<path fill-rule="evenodd" clip-rule="evenodd" d="M1408.78 1465.51C1407.78 1470.2 1408.61 1474.79 1410.74 1478.6C1398.66 1479 1389 1488.91 1389 1501.08V1558.51C1389 1570.93 1399.07 1581.01 1411.5 1581.01H1486.5C1498.93 1581.01 1509 1570.93 1509 1558.51V1501.08C1509 1488.91 1499.33 1479 1487.26 1478.6C1489.39 1474.79 1490.22 1470.2 1489.22 1465.51L1489.09 1464.88C1487.76 1458.65 1483.2 1453.61 1477.14 1451.67C1466.23 1448.18 1454.95 1452.63 1449 1461.4C1443.05 1452.63 1431.77 1448.18 1420.86 1451.67C1414.8 1453.61 1410.24 1458.65 1408.91 1464.88L1408.78 1465.51ZM1453.92 1478.53L1454.63 1473.3C1455.89 1464.01 1465.23 1458.1 1474.17 1460.96C1476.9 1461.83 1478.95 1464.1 1479.55 1466.91L1479.68 1467.54C1480.89 1473.2 1476.57 1478.54 1470.78 1478.54H1453.92L1453.92 1478.53ZM1444.08 1478.53L1443.37 1473.3C1442.11 1464.01 1432.76 1458.1 1423.83 1460.96C1421.1 1461.83 1419.05 1464.1 1418.45 1466.91L1418.31 1467.54C1417.11 1473.2 1421.43 1478.54 1427.22 1478.54H1444.08L1444.08 1478.53ZM1411.5 1488.33C1404.46 1488.33 1398.75 1494.04 1398.75 1501.08V1558.51C1398.75 1565.55 1404.46 1571.26 1411.5 1571.26H1486.5C1493.54 1571.26 1499.25 1565.55 1499.25 1558.51V1501.08C1499.25 1494.04 1493.54 1488.33 1486.5 1488.33H1411.5Z" fill="black"/>
</g>
</g>
</g>
<g id="Light-L">
<g id="Outline / Multibonus Outline_7">
<g id="Shape_7">
<path d="M1137.7 1506.31C1136.3 1504.91 1134.21 1504.5 1132.38 1505.25C1130.56 1506.01 1129.37 1507.78 1129.37 1509.76V1547.26C1129.37 1549.95 1131.56 1552.13 1134.25 1552.13C1136.94 1552.13 1139.12 1549.95 1139.12 1547.26V1521.52L1149.55 1531.95C1151.46 1533.86 1154.54 1533.86 1156.45 1531.95L1166.87 1521.52V1547.26C1166.87 1549.95 1169.06 1552.13 1171.75 1552.13C1174.44 1552.13 1176.62 1549.95 1176.62 1547.26V1509.76C1176.62 1507.78 1175.44 1506.01 1173.62 1505.25C1171.79 1504.5 1169.7 1504.91 1168.3 1506.31L1153 1521.61L1137.7 1506.31Z" fill="black"/>
<path fill-rule="evenodd" clip-rule="evenodd" d="M1112.78 1465.51C1111.78 1470.2 1112.61 1474.79 1114.74 1478.6C1102.66 1479 1093 1488.91 1093 1501.08V1558.51C1093 1570.93 1103.07 1581.01 1115.5 1581.01H1190.5C1202.93 1581.01 1213 1570.93 1213 1558.51V1501.08C1213 1488.91 1203.33 1479 1191.26 1478.6C1193.39 1474.79 1194.22 1470.2 1193.22 1465.51L1193.09 1464.88C1191.76 1458.65 1187.2 1453.61 1181.14 1451.67C1170.23 1448.18 1158.95 1452.63 1153 1461.4C1147.05 1452.63 1135.77 1448.18 1124.86 1451.67C1118.8 1453.61 1114.24 1458.65 1112.91 1464.88L1112.78 1465.51ZM1157.92 1478.53L1158.63 1473.3C1159.89 1464.01 1169.23 1458.1 1178.17 1460.96C1180.9 1461.83 1182.95 1464.1 1183.55 1466.91L1183.68 1467.54C1184.89 1473.2 1180.57 1478.54 1174.78 1478.54H1157.92L1157.92 1478.53ZM1148.08 1478.53L1147.37 1473.3C1146.11 1464.01 1136.76 1458.1 1127.83 1460.96C1125.1 1461.83 1123.05 1464.1 1122.45 1466.91L1122.31 1467.54C1121.11 1473.2 1125.43 1478.54 1131.22 1478.54H1148.08L1148.08 1478.53ZM1115.5 1488.33C1108.46 1488.33 1102.75 1494.04 1102.75 1501.08V1558.51C1102.75 1565.55 1108.46 1571.26 1115.5 1571.26H1190.5C1197.54 1571.26 1203.25 1565.55 1203.25 1558.51V1501.08C1203.25 1494.04 1197.54 1488.33 1190.5 1488.33H1115.5Z" fill="black"/>
</g>
</g>
</g>
<g id="Thin-L">
<g id="Outline / Multibonus Outline_8">
<g id="Shape_8">
<path d="M841.697 1506.31C840.303 1504.91 838.206 1504.5 836.384 1505.25C834.563 1506.01 833.375 1507.78 833.375 1509.76V1547.26C833.375 1549.95 835.557 1552.13 838.25 1552.13C840.942 1552.13 843.125 1549.95 843.125 1547.26V1521.52L853.553 1531.95C855.456 1533.86 858.543 1533.86 860.447 1531.95L870.875 1521.52V1547.26C870.875 1549.95 873.057 1552.13 875.75 1552.13C878.442 1552.13 880.625 1549.95 880.625 1547.26V1509.76C880.625 1507.78 879.437 1506.01 877.615 1505.25C875.794 1504.5 873.697 1504.91 872.303 1506.31L857 1521.61L841.697 1506.31Z" fill="black"/>
<path fill-rule="evenodd" clip-rule="evenodd" d="M816.778 1465.51C815.779 1470.2 816.612 1474.79 818.739 1478.6C806.665 1479 797 1488.91 797 1501.08V1558.51C797 1570.93 807.074 1581.01 819.5 1581.01H894.5C906.926 1581.01 917 1570.93 917 1558.51V1501.08C917 1488.91 907.334 1479 895.26 1478.6C897.386 1474.79 898.219 1470.2 897.221 1465.51L897.086 1464.88C895.761 1458.65 891.201 1453.61 885.137 1451.67C874.229 1448.18 862.947 1452.63 856.999 1461.4C851.051 1452.63 839.769 1448.18 828.861 1451.67C822.797 1453.61 818.237 1458.65 816.912 1464.88L816.778 1465.51ZM861.919 1478.53L862.626 1473.3C863.886 1464.01 873.233 1458.1 882.168 1460.96C884.899 1461.83 886.953 1464.1 887.549 1466.91L887.684 1467.54C888.889 1473.2 884.57 1478.54 878.78 1478.54H861.92L861.919 1478.53ZM852.08 1478.53L851.372 1473.3C850.113 1464.01 840.765 1458.1 831.83 1460.96C829.099 1461.83 827.045 1464.1 826.449 1466.91L826.314 1467.54C825.11 1473.2 829.428 1478.54 835.218 1478.54H852.078L852.08 1478.53ZM819.5 1488.33C812.458 1488.33 806.75 1494.04 806.75 1501.08V1558.51C806.75 1565.55 812.458 1571.26 819.5 1571.26H894.5C901.542 1571.26 907.25 1565.55 907.25 1558.51V1501.08C907.25 1494.04 901.542 1488.33 894.5 1488.33H819.5Z" fill="black"/>
</g>
</g>
</g>
<g id="Ultralight-L">
<g id="Outline / Multibonus Outline_9">
<g id="Shape_9">
<path d="M545.697 1506.31C544.303 1504.91 542.206 1504.5 540.384 1505.25C538.563 1506.01 537.375 1507.78 537.375 1509.76V1547.26C537.375 1549.95 539.557 1552.13 542.25 1552.13C544.942 1552.13 547.125 1549.95 547.125 1547.26V1521.52L557.553 1531.95C559.456 1533.86 562.543 1533.86 564.447 1531.95L574.875 1521.52V1547.26C574.875 1549.95 577.057 1552.13 579.75 1552.13C582.442 1552.13 584.625 1549.95 584.625 1547.26V1509.76C584.625 1507.78 583.437 1506.01 581.615 1505.25C579.794 1504.5 577.697 1504.91 576.303 1506.31L561 1521.61L545.697 1506.31Z" fill="black"/>
<path fill-rule="evenodd" clip-rule="evenodd" d="M520.778 1465.51C519.779 1470.2 520.612 1474.79 522.739 1478.6C510.665 1479 501 1488.91 501 1501.08V1558.51C501 1570.93 511.074 1581.01 523.5 1581.01H598.5C610.926 1581.01 621 1570.93 621 1558.51V1501.08C621 1488.91 611.334 1479 599.26 1478.6C601.386 1474.79 602.219 1470.2 601.221 1465.51L601.086 1464.88C599.761 1458.65 595.201 1453.61 589.137 1451.67C578.229 1448.18 566.947 1452.63 560.999 1461.4C555.051 1452.63 543.769 1448.18 532.861 1451.67C526.797 1453.61 522.237 1458.65 520.912 1464.88L520.778 1465.51ZM565.919 1478.53L566.626 1473.3C567.886 1464.01 577.233 1458.1 586.168 1460.96C588.899 1461.83 590.953 1464.1 591.549 1466.91L591.684 1467.54C592.889 1473.2 588.57 1478.54 582.78 1478.54H565.92L565.919 1478.53ZM556.08 1478.53L555.372 1473.3C554.113 1464.01 544.765 1458.1 535.83 1460.96C533.099 1461.83 531.045 1464.1 530.449 1466.91L530.314 1467.54C529.11 1473.2 533.428 1478.54 539.218 1478.54H556.078L556.08 1478.53ZM523.5 1488.33C516.458 1488.33 510.75 1494.04 510.75 1501.08V1558.51C510.75 1565.55 516.458 1571.26 523.5 1571.26H598.5C605.542 1571.26 611.25 1565.55 611.25 1558.51V1501.08C611.25 1494.04 605.542 1488.33 598.5 1488.33H523.5Z" fill="black"/>
</g>
</g>
</g>
<g id="Black-M">
<g id="Outline / Multibonus Outline_10">
<g id="Shape_10">
<path d="M2917.1 1079.57C2916.01 1078.49 2914.38 1078.17 2912.97 1078.75C2911.55 1079.34 2910.63 1080.72 2910.63 1082.26V1111.42C2910.63 1113.52 2912.32 1115.21 2914.42 1115.21C2916.51 1115.21 2918.21 1113.52 2918.21 1111.42V1091.41L2926.32 1099.52C2927.8 1101 2930.2 1101 2931.68 1099.52L2939.79 1091.41V1111.42C2939.79 1113.52 2941.49 1115.21 2943.58 1115.21C2945.68 1115.21 2947.38 1113.52 2947.38 1111.42V1082.26C2947.38 1080.72 2946.45 1079.34 2945.03 1078.75C2943.62 1078.17 2941.99 1078.49 2940.9 1079.57L2929 1091.48L2917.1 1079.57Z" fill="black"/>
<path fill-rule="evenodd" clip-rule="evenodd" d="M2897.72 1047.84C2896.94 1051.49 2897.59 1055.06 2899.24 1058.02C2889.85 1058.33 2882.33 1066.04 2882.33 1075.51V1120.17C2882.33 1129.84 2890.17 1137.67 2899.83 1137.67H2958.17C2967.83 1137.67 2975.67 1129.84 2975.67 1120.17V1075.51C2975.67 1066.04 2968.15 1058.33 2958.76 1058.02C2960.41 1055.06 2961.06 1051.49 2960.28 1047.84L2960.18 1047.35C2959.15 1042.51 2955.6 1038.59 2950.89 1037.08C2942.4 1034.37 2933.63 1037.82 2929 1044.64C2924.37 1037.82 2915.6 1034.37 2907.11 1037.08C2902.4 1038.59 2898.85 1042.51 2897.82 1047.35L2897.72 1047.84ZM2932.83 1057.97L2933.38 1053.9C2934.36 1046.67 2941.63 1042.08 2948.58 1044.3C2950.7 1044.98 2952.3 1046.75 2952.76 1048.93L2952.87 1049.42C2953.8 1053.82 2950.44 1057.97 2945.94 1057.97H2932.83L2932.83 1057.97ZM2925.17 1057.97L2924.62 1053.9C2923.64 1046.67 2916.37 1042.08 2909.42 1044.3C2907.3 1044.98 2905.7 1046.75 2905.24 1048.93L2905.13 1049.42C2904.2 1053.82 2907.56 1057.97 2912.06 1057.97H2925.17L2925.17 1057.97ZM2899.83 1065.59C2894.36 1065.59 2889.92 1070.03 2889.92 1075.51V1120.17C2889.92 1125.65 2894.36 1130.09 2899.83 1130.09H2958.17C2963.64 1130.09 2968.08 1125.65 2968.08 1120.17V1075.51C2968.08 1070.03 2963.64 1065.59 2958.17 1065.59H2899.83Z" fill="black"/>
</g>
</g>
</g>
<g id="Heavy-M">
<g id="Outline / Multibonus Outline_11">
<g id="Shape_11">
<path d="M2621.1 1079.57C2620.01 1078.49 2618.38 1078.17 2616.97 1078.75C2615.55 1079.34 2614.63 1080.72 2614.63 1082.26V1111.42C2614.63 1113.52 2616.32 1115.21 2618.42 1115.21C2620.51 1115.21 2622.21 1113.52 2622.21 1111.42V1091.41L2630.32 1099.52C2631.8 1101 2634.2 1101 2635.68 1099.52L2643.79 1091.41V1111.42C2643.79 1113.52 2645.49 1115.21 2647.58 1115.21C2649.68 1115.21 2651.38 1113.52 2651.38 1111.42V1082.26C2651.38 1080.72 2650.45 1079.34 2649.03 1078.75C2647.62 1078.17 2645.99 1078.49 2644.9 1079.57L2633 1091.48L2621.1 1079.57Z" fill="black"/>
<path fill-rule="evenodd" clip-rule="evenodd" d="M2601.72 1047.84C2600.94 1051.49 2601.59 1055.06 2603.24 1058.02C2593.85 1058.33 2586.33 1066.04 2586.33 1075.51V1120.17C2586.33 1129.84 2594.17 1137.67 2603.83 1137.67H2662.17C2671.83 1137.67 2679.67 1129.84 2679.67 1120.17V1075.51C2679.67 1066.04 2672.15 1058.33 2662.76 1058.02C2664.41 1055.06 2665.06 1051.49 2664.28 1047.84L2664.18 1047.35C2663.15 1042.51 2659.6 1038.59 2654.89 1037.08C2646.4 1034.37 2637.63 1037.82 2633 1044.64C2628.37 1037.82 2619.6 1034.37 2611.11 1037.08C2606.4 1038.59 2602.85 1042.51 2601.82 1047.35L2601.72 1047.84ZM2636.83 1057.97L2637.38 1053.9C2638.36 1046.67 2645.63 1042.08 2652.58 1044.3C2654.7 1044.98 2656.3 1046.75 2656.76 1048.93L2656.87 1049.42C2657.8 1053.82 2654.44 1057.97 2649.94 1057.97H2636.83L2636.83 1057.97ZM2629.17 1057.97L2628.62 1053.9C2627.64 1046.67 2620.37 1042.08 2613.42 1044.3C2611.3 1044.98 2609.7 1046.75 2609.24 1048.93L2609.13 1049.42C2608.2 1053.82 2611.56 1057.97 2616.06 1057.97H2629.17L2629.17 1057.97ZM2603.83 1065.59C2598.36 1065.59 2593.92 1070.03 2593.92 1075.51V1120.17C2593.92 1125.65 2598.36 1130.09 2603.83 1130.09H2662.17C2667.64 1130.09 2672.08 1125.65 2672.08 1120.17V1075.51C2672.08 1070.03 2667.64 1065.59 2662.17 1065.59H2603.83Z" fill="black"/>
</g>
</g>
</g>
<g id="Bold-M">
<g id="Outline / Multibonus Outline_12">
<g id="Shape_12">
<path d="M2325.1 1079.57C2324.01 1078.49 2322.38 1078.17 2320.97 1078.75C2319.55 1079.34 2318.63 1080.72 2318.63 1082.26V1111.42C2318.63 1113.52 2320.32 1115.21 2322.42 1115.21C2324.51 1115.21 2326.21 1113.52 2326.21 1111.42V1091.41L2334.32 1099.52C2335.8 1101 2338.2 1101 2339.68 1099.52L2347.79 1091.41V1111.42C2347.79 1113.52 2349.49 1115.21 2351.58 1115.21C2353.68 1115.21 2355.38 1113.52 2355.38 1111.42V1082.26C2355.38 1080.72 2354.45 1079.34 2353.03 1078.75C2351.62 1078.17 2349.99 1078.49 2348.9 1079.57L2337 1091.48L2325.1 1079.57Z" fill="black"/>
<path fill-rule="evenodd" clip-rule="evenodd" d="M2305.72 1047.84C2304.94 1051.49 2305.59 1055.06 2307.24 1058.02C2297.85 1058.33 2290.33 1066.04 2290.33 1075.51V1120.17C2290.33 1129.84 2298.17 1137.67 2307.83 1137.67H2366.17C2375.83 1137.67 2383.67 1129.84 2383.67 1120.17V1075.51C2383.67 1066.04 2376.15 1058.33 2366.76 1058.02C2368.41 1055.06 2369.06 1051.49 2368.28 1047.84L2368.18 1047.35C2367.15 1042.51 2363.6 1038.59 2358.89 1037.08C2350.4 1034.37 2341.63 1037.82 2337 1044.64C2332.37 1037.82 2323.6 1034.37 2315.11 1037.08C2310.4 1038.59 2306.85 1042.51 2305.82 1047.35L2305.72 1047.84ZM2340.83 1057.97L2341.38 1053.9C2342.36 1046.67 2349.63 1042.08 2356.58 1044.3C2358.7 1044.98 2360.3 1046.75 2360.76 1048.93L2360.87 1049.42C2361.8 1053.82 2358.44 1057.97 2353.94 1057.97H2340.83L2340.83 1057.97ZM2333.17 1057.97L2332.62 1053.9C2331.64 1046.67 2324.37 1042.08 2317.42 1044.3C2315.3 1044.98 2313.7 1046.75 2313.24 1048.93L2313.13 1049.42C2312.2 1053.82 2315.56 1057.97 2320.06 1057.97H2333.17L2333.17 1057.97ZM2307.83 1065.59C2302.36 1065.59 2297.92 1070.03 2297.92 1075.51V1120.17C2297.92 1125.65 2302.36 1130.09 2307.83 1130.09H2366.17C2371.64 1130.09 2376.08 1125.65 2376.08 1120.17V1075.51C2376.08 1070.03 2371.64 1065.59 2366.17 1065.59H2307.83Z" fill="black"/>
</g>
</g>
</g>
<g id="Semibold-M">
<g id="Outline / Multibonus Outline_13">
<g id="Shape_13">
<path d="M2029.1 1079.57C2028.01 1078.49 2026.38 1078.17 2024.97 1078.75C2023.55 1079.34 2022.63 1080.72 2022.63 1082.26V1111.42C2022.63 1113.52 2024.32 1115.21 2026.42 1115.21C2028.51 1115.21 2030.21 1113.52 2030.21 1111.42V1091.41L2038.32 1099.52C2039.8 1101 2042.2 1101 2043.68 1099.52L2051.79 1091.41V1111.42C2051.79 1113.52 2053.49 1115.21 2055.58 1115.21C2057.68 1115.21 2059.38 1113.52 2059.38 1111.42V1082.26C2059.38 1080.72 2058.45 1079.34 2057.03 1078.75C2055.62 1078.17 2053.99 1078.49 2052.9 1079.57L2041 1091.48L2029.1 1079.57Z" fill="black"/>
<path fill-rule="evenodd" clip-rule="evenodd" d="M2009.72 1047.84C2008.94 1051.49 2009.59 1055.06 2011.24 1058.02C2001.85 1058.33 1994.33 1066.04 1994.33 1075.51V1120.17C1994.33 1129.84 2002.17 1137.67 2011.83 1137.67H2070.17C2079.83 1137.67 2087.67 1129.84 2087.67 1120.17V1075.51C2087.67 1066.04 2080.15 1058.33 2070.76 1058.02C2072.41 1055.06 2073.06 1051.49 2072.28 1047.84L2072.18 1047.35C2071.15 1042.51 2067.6 1038.59 2062.89 1037.08C2054.4 1034.37 2045.63 1037.82 2041 1044.64C2036.37 1037.82 2027.6 1034.37 2019.11 1037.08C2014.4 1038.59 2010.85 1042.51 2009.82 1047.35L2009.72 1047.84ZM2044.83 1057.97L2045.38 1053.9C2046.36 1046.67 2053.63 1042.08 2060.58 1044.3C2062.7 1044.98 2064.3 1046.75 2064.76 1048.93L2064.87 1049.42C2065.8 1053.82 2062.44 1057.97 2057.94 1057.97H2044.83L2044.83 1057.97ZM2037.17 1057.97L2036.62 1053.9C2035.64 1046.67 2028.37 1042.08 2021.42 1044.3C2019.3 1044.98 2017.7 1046.75 2017.24 1048.93L2017.13 1049.42C2016.2 1053.82 2019.56 1057.97 2024.06 1057.97H2037.17L2037.17 1057.97ZM2011.83 1065.59C2006.36 1065.59 2001.92 1070.03 2001.92 1075.51V1120.17C2001.92 1125.65 2006.36 1130.09 2011.83 1130.09H2070.17C2075.64 1130.09 2080.08 1125.65 2080.08 1120.17V1075.51C2080.08 1070.03 2075.64 1065.59 2070.17 1065.59H2011.83Z" fill="black"/>
</g>
</g>
</g>
<g id="Medium-M">
<g id="Outline / Multibonus Outline_14">
<g id="Shape_14">
<path d="M1733.1 1079.57C1732.01 1078.49 1730.38 1078.17 1728.97 1078.75C1727.55 1079.34 1726.63 1080.72 1726.63 1082.26V1111.42C1726.63 1113.52 1728.32 1115.21 1730.42 1115.21C1732.51 1115.21 1734.21 1113.52 1734.21 1111.42V1091.41L1742.32 1099.52C1743.8 1101 1746.2 1101 1747.68 1099.52L1755.79 1091.41V1111.42C1755.79 1113.52 1757.49 1115.21 1759.58 1115.21C1761.68 1115.21 1763.38 1113.52 1763.38 1111.42V1082.26C1763.38 1080.72 1762.45 1079.34 1761.03 1078.75C1759.62 1078.17 1757.99 1078.49 1756.9 1079.57L1745 1091.48L1733.1 1079.57Z" fill="black"/>
<path fill-rule="evenodd" clip-rule="evenodd" d="M1713.72 1047.84C1712.94 1051.49 1713.59 1055.06 1715.24 1058.02C1705.85 1058.33 1698.33 1066.04 1698.33 1075.51V1120.17C1698.33 1129.84 1706.17 1137.67 1715.83 1137.67H1774.17C1783.83 1137.67 1791.67 1129.84 1791.67 1120.17V1075.51C1791.67 1066.04 1784.15 1058.33 1774.76 1058.02C1776.41 1055.06 1777.06 1051.49 1776.28 1047.84L1776.18 1047.35C1775.15 1042.51 1771.6 1038.59 1766.89 1037.08C1758.4 1034.37 1749.63 1037.82 1745 1044.64C1740.37 1037.82 1731.6 1034.37 1723.11 1037.08C1718.4 1038.59 1714.85 1042.51 1713.82 1047.35L1713.72 1047.84ZM1748.83 1057.97L1749.38 1053.9C1750.36 1046.67 1757.63 1042.08 1764.58 1044.3C1766.7 1044.98 1768.3 1046.75 1768.76 1048.93L1768.87 1049.42C1769.8 1053.82 1766.44 1057.97 1761.94 1057.97H1748.83L1748.83 1057.97ZM1741.17 1057.97L1740.62 1053.9C1739.64 1046.67 1732.37 1042.08 1725.42 1044.3C1723.3 1044.98 1721.7 1046.75 1721.24 1048.93L1721.13 1049.42C1720.2 1053.82 1723.56 1057.97 1728.06 1057.97H1741.17L1741.17 1057.97ZM1715.83 1065.59C1710.36 1065.59 1705.92 1070.03 1705.92 1075.51V1120.17C1705.92 1125.65 1710.36 1130.09 1715.83 1130.09H1774.17C1779.64 1130.09 1784.08 1125.65 1784.08 1120.17V1075.51C1784.08 1070.03 1779.64 1065.59 1774.17 1065.59H1715.83Z" fill="black"/>
</g>
</g>
</g>
<g id="Regular-M">
<g id="Outline / Multibonus Outline_15">
<g id="Shape_15">
<path d="M1437.1 1079.57C1436.01 1078.49 1434.38 1078.17 1432.97 1078.75C1431.55 1079.34 1430.63 1080.72 1430.63 1082.26V1111.42C1430.63 1113.52 1432.32 1115.21 1434.42 1115.21C1436.51 1115.21 1438.21 1113.52 1438.21 1111.42V1091.41L1446.32 1099.52C1447.8 1101 1450.2 1101 1451.68 1099.52L1459.79 1091.41V1111.42C1459.79 1113.52 1461.49 1115.21 1463.58 1115.21C1465.68 1115.21 1467.38 1113.52 1467.38 1111.42V1082.26C1467.38 1080.72 1466.45 1079.34 1465.03 1078.75C1463.62 1078.17 1461.99 1078.49 1460.9 1079.57L1449 1091.48L1437.1 1079.57Z" fill="black"/>
<path fill-rule="evenodd" clip-rule="evenodd" d="M1417.72 1047.84C1416.94 1051.49 1417.59 1055.06 1419.24 1058.02C1409.85 1058.33 1402.33 1066.04 1402.33 1075.51V1120.17C1402.33 1129.84 1410.17 1137.67 1419.83 1137.67H1478.17C1487.83 1137.67 1495.67 1129.84 1495.67 1120.17V1075.51C1495.67 1066.04 1488.15 1058.33 1478.76 1058.02C1480.41 1055.06 1481.06 1051.49 1480.28 1047.84L1480.18 1047.35C1479.15 1042.51 1475.6 1038.59 1470.89 1037.08C1462.4 1034.37 1453.63 1037.82 1449 1044.64C1444.37 1037.82 1435.6 1034.37 1427.11 1037.08C1422.4 1038.59 1418.85 1042.51 1417.82 1047.35L1417.72 1047.84ZM1452.83 1057.97L1453.38 1053.9C1454.36 1046.67 1461.63 1042.08 1468.58 1044.3C1470.7 1044.98 1472.3 1046.75 1472.76 1048.93L1472.87 1049.42C1473.8 1053.82 1470.44 1057.97 1465.94 1057.97H1452.83L1452.83 1057.97ZM1445.17 1057.97L1444.62 1053.9C1443.64 1046.67 1436.37 1042.08 1429.42 1044.3C1427.3 1044.98 1425.7 1046.75 1425.24 1048.93L1425.13 1049.42C1424.2 1053.82 1427.56 1057.97 1432.06 1057.97H1445.17L1445.17 1057.97ZM1419.83 1065.59C1414.36 1065.59 1409.92 1070.03 1409.92 1075.51V1120.17C1409.92 1125.65 1414.36 1130.09 1419.83 1130.09H1478.17C1483.64 1130.09 1488.08 1125.65 1488.08 1120.17V1075.51C1488.08 1070.03 1483.64 1065.59 1478.17 1065.59H1419.83Z" fill="black"/>
</g>
</g>
</g>
<g id="Light-M">
<g id="Outline / Multibonus Outline_16">
<g id="Shape_16">
<path d="M1141.1 1079.57C1140.01 1078.49 1138.38 1078.17 1136.97 1078.75C1135.55 1079.34 1134.63 1080.72 1134.63 1082.26V1111.42C1134.63 1113.52 1136.32 1115.21 1138.42 1115.21C1140.51 1115.21 1142.21 1113.52 1142.21 1111.42V1091.41L1150.32 1099.52C1151.8 1101 1154.2 1101 1155.68 1099.52L1163.79 1091.41V1111.42C1163.79 1113.52 1165.49 1115.21 1167.58 1115.21C1169.68 1115.21 1171.38 1113.52 1171.38 1111.42V1082.26C1171.38 1080.72 1170.45 1079.34 1169.03 1078.75C1167.62 1078.17 1165.99 1078.49 1164.9 1079.57L1153 1091.48L1141.1 1079.57Z" fill="black"/>
<path fill-rule="evenodd" clip-rule="evenodd" d="M1121.72 1047.84C1120.94 1051.49 1121.59 1055.06 1123.24 1058.02C1113.85 1058.33 1106.33 1066.04 1106.33 1075.51V1120.17C1106.33 1129.84 1114.17 1137.67 1123.83 1137.67H1182.17C1191.83 1137.67 1199.67 1129.84 1199.67 1120.17V1075.51C1199.67 1066.04 1192.15 1058.33 1182.76 1058.02C1184.41 1055.06 1185.06 1051.49 1184.28 1047.84L1184.18 1047.35C1183.15 1042.51 1179.6 1038.59 1174.89 1037.08C1166.4 1034.37 1157.63 1037.82 1153 1044.64C1148.37 1037.82 1139.6 1034.37 1131.11 1037.08C1126.4 1038.59 1122.85 1042.51 1121.82 1047.35L1121.72 1047.84ZM1156.83 1057.97L1157.38 1053.9C1158.36 1046.67 1165.63 1042.08 1172.58 1044.3C1174.7 1044.98 1176.3 1046.75 1176.76 1048.93L1176.87 1049.42C1177.8 1053.82 1174.44 1057.97 1169.94 1057.97H1156.83L1156.83 1057.97ZM1149.17 1057.97L1148.62 1053.9C1147.64 1046.67 1140.37 1042.08 1133.42 1044.3C1131.3 1044.98 1129.7 1046.75 1129.24 1048.93L1129.13 1049.42C1128.2 1053.82 1131.56 1057.97 1136.06 1057.97H1149.17L1149.17 1057.97ZM1123.83 1065.59C1118.36 1065.59 1113.92 1070.03 1113.92 1075.51V1120.17C1113.92 1125.65 1118.36 1130.09 1123.83 1130.09H1182.17C1187.64 1130.09 1192.08 1125.65 1192.08 1120.17V1075.51C1192.08 1070.03 1187.64 1065.59 1182.17 1065.59H1123.83Z" fill="black"/>
</g>
</g>
</g>
<g id="Thin-M">
<g id="Outline / Multibonus Outline_17">
<g id="Shape_17">
<path d="M845.098 1079.57C844.014 1078.49 842.383 1078.17 840.966 1078.75C839.549 1079.34 838.626 1080.72 838.626 1082.26V1111.42C838.626 1113.52 840.323 1115.21 842.417 1115.21C844.511 1115.21 846.209 1113.52 846.209 1111.42V1091.41L854.319 1099.52C855.8 1101 858.201 1101 859.682 1099.52L867.792 1091.41V1111.42C867.792 1113.52 869.49 1115.21 871.584 1115.21C873.678 1115.21 875.376 1113.52 875.376 1111.42V1082.26C875.376 1080.72 874.452 1079.34 873.035 1078.75C871.618 1078.17 869.987 1078.49 868.903 1079.57L857.001 1091.48L845.098 1079.57Z" fill="black"/>
<path fill-rule="evenodd" clip-rule="evenodd" d="M825.717 1047.84C824.94 1051.49 825.588 1055.06 827.242 1058.02C817.851 1058.33 810.334 1066.04 810.334 1075.51V1120.17C810.334 1129.84 818.169 1137.67 827.834 1137.67H886.167C895.832 1137.67 903.667 1129.84 903.667 1120.17V1075.51C903.667 1066.04 896.15 1058.33 886.758 1058.02C888.412 1055.06 889.06 1051.49 888.283 1047.84L888.179 1047.35C887.148 1042.51 883.602 1038.59 878.885 1037.08C870.401 1034.37 861.626 1037.82 857 1044.64C852.373 1037.82 843.599 1034.37 835.115 1037.08C830.398 1038.59 826.851 1042.51 825.821 1047.35L825.717 1047.84ZM860.826 1057.97L861.377 1053.9C862.356 1046.67 869.626 1042.08 876.576 1044.3C878.7 1044.98 880.297 1046.75 880.761 1048.93L880.866 1049.42C881.803 1053.82 878.444 1057.97 873.941 1057.97H860.827L860.826 1057.97ZM853.174 1057.97L852.623 1053.9C851.644 1046.67 844.373 1042.08 837.424 1044.3C835.3 1044.98 833.703 1046.75 833.239 1048.93L833.134 1049.42C832.197 1053.82 835.556 1057.97 840.059 1057.97H853.173L853.174 1057.97ZM827.834 1065.59C822.357 1065.59 817.917 1070.03 817.917 1075.51V1120.17C817.917 1125.65 822.357 1130.09 827.834 1130.09H886.167C891.644 1130.09 896.084 1125.65 896.084 1120.17V1075.51C896.084 1070.03 891.644 1065.59 886.167 1065.59H827.834Z" fill="black"/>
</g>
</g>
</g>
<g id="Ultralight-M">
<g id="Outline / Multibonus Outline_18">
<g id="Shape_18">
<path d="M549.098 1079.57C548.014 1078.49 546.383 1078.17 544.966 1078.75C543.549 1079.34 542.626 1080.72 542.626 1082.26V1111.42C542.626 1113.52 544.323 1115.21 546.417 1115.21C548.511 1115.21 550.209 1113.52 550.209 1111.42V1091.41L558.319 1099.52C559.8 1101 562.201 1101 563.682 1099.52L571.792 1091.41V1111.42C571.792 1113.52 573.49 1115.21 575.584 1115.21C577.678 1115.21 579.376 1113.52 579.376 1111.42V1082.26C579.376 1080.72 578.452 1079.34 577.035 1078.75C575.618 1078.17 573.987 1078.49 572.903 1079.57L561.001 1091.48L549.098 1079.57Z" fill="black"/>
<path fill-rule="evenodd" clip-rule="evenodd" d="M529.717 1047.84C528.94 1051.49 529.588 1055.06 531.242 1058.02C521.851 1058.33 514.334 1066.04 514.334 1075.51V1120.17C514.334 1129.84 522.169 1137.67 531.834 1137.67H590.167C599.832 1137.67 607.667 1129.84 607.667 1120.17V1075.51C607.667 1066.04 600.15 1058.33 590.758 1058.02C592.412 1055.06 593.06 1051.49 592.283 1047.84L592.179 1047.35C591.148 1042.51 587.602 1038.59 582.885 1037.08C574.401 1034.37 565.626 1037.82 561 1044.64C556.373 1037.82 547.599 1034.37 539.115 1037.08C534.398 1038.59 530.851 1042.51 529.821 1047.35L529.717 1047.84ZM564.826 1057.97L565.377 1053.9C566.356 1046.67 573.626 1042.08 580.576 1044.3C582.7 1044.98 584.297 1046.75 584.761 1048.93L584.866 1049.42C585.803 1053.82 582.444 1057.97 577.941 1057.97H564.827L564.826 1057.97ZM557.174 1057.97L556.623 1053.9C555.644 1046.67 548.373 1042.08 541.424 1044.3C539.3 1044.98 537.703 1046.75 537.239 1048.93L537.134 1049.42C536.197 1053.82 539.556 1057.97 544.059 1057.97H557.173L557.174 1057.97ZM531.834 1065.59C526.357 1065.59 521.917 1070.03 521.917 1075.51V1120.17C521.917 1125.65 526.357 1130.09 531.834 1130.09H590.167C595.644 1130.09 600.084 1125.65 600.084 1120.17V1075.51C600.084 1070.03 595.644 1065.59 590.167 1065.59H531.834Z" fill="black"/>
</g>
</g>
</g>
<g id="Black-S">
<g id="Outline / Multibonus Outline_19">
<g id="Shape_19">
<path d="M2920.5 652.84C2919.72 652.065 2918.56 651.833 2917.55 652.253C2916.53 652.672 2915.87 653.659 2915.87 654.755V675.588C2915.87 677.084 2917.09 678.297 2918.58 678.297C2920.08 678.297 2921.29 677.084 2921.29 675.588V661.293L2927.08 667.087C2928.14 668.144 2929.86 668.144 2930.91 667.087L2936.71 661.293V675.588C2936.71 677.084 2937.92 678.297 2939.42 678.297C2940.91 678.297 2942.12 677.084 2942.12 675.588V654.755C2942.12 653.659 2941.46 652.672 2940.45 652.253C2939.44 651.833 2938.28 652.065 2937.5 652.84L2929 661.341L2920.5 652.84Z" fill="black"/>
<path fill-rule="evenodd" clip-rule="evenodd" d="M2906.65 630.174C2906.1 632.781 2906.56 635.327 2907.74 637.444C2901.04 637.667 2895.67 643.175 2895.67 649.937V681.838C2895.67 688.742 2901.26 694.338 2908.17 694.338H2949.83C2956.74 694.338 2962.33 688.742 2962.33 681.838V649.937C2962.33 643.175 2956.96 637.667 2950.25 637.444C2951.44 635.327 2951.9 632.781 2951.34 630.174L2951.27 629.823C2950.53 626.363 2948 623.563 2944.63 622.486C2938.57 620.549 2932.3 623.018 2929 627.89C2925.69 623.018 2919.43 620.549 2913.37 622.486C2910 623.563 2907.46 626.363 2906.73 629.823L2906.65 630.174ZM2931.73 637.405L2932.13 634.503C2932.82 629.339 2938.02 626.059 2942.98 627.646C2944.5 628.131 2945.64 629.392 2945.97 630.95L2946.05 631.301C2946.72 634.447 2944.32 637.411 2941.1 637.411H2931.73L2931.73 637.405ZM2926.27 637.405L2925.87 634.503C2925.17 629.339 2919.98 626.059 2915.02 627.646C2913.5 628.131 2912.36 629.392 2912.03 630.95L2911.95 631.301C2911.28 634.447 2913.68 637.411 2916.9 637.411H2926.27L2926.27 637.405ZM2908.17 642.854C2904.25 642.854 2901.08 646.025 2901.08 649.937V681.838C2901.08 685.75 2904.25 688.922 2908.17 688.922H2949.83C2953.74 688.922 2956.92 685.75 2956.92 681.838V649.937C2956.92 646.025 2953.74 642.854 2949.83 642.854H2908.17Z" fill="black"/>
</g>
</g>
</g>
<g id="Heavy-S">
<g id="Outline / Multibonus Outline_20">
<g id="Shape_20">
<path d="M2624.5 652.84C2623.72 652.065 2622.56 651.833 2621.55 652.253C2620.53 652.672 2619.87 653.659 2619.87 654.755V675.588C2619.87 677.084 2621.09 678.297 2622.58 678.297C2624.08 678.297 2625.29 677.084 2625.29 675.588V661.293L2631.08 667.087C2632.14 668.144 2633.86 668.144 2634.91 667.087L2640.71 661.293V675.588C2640.71 677.084 2641.92 678.297 2643.42 678.297C2644.91 678.297 2646.12 677.084 2646.12 675.588V654.755C2646.12 653.659 2645.46 652.672 2644.45 652.253C2643.44 651.833 2642.28 652.065 2641.5 652.84L2633 661.341L2624.5 652.84Z" fill="black"/>
<path fill-rule="evenodd" clip-rule="evenodd" d="M2610.65 630.174C2610.1 632.781 2610.56 635.327 2611.74 637.444C2605.04 637.667 2599.67 643.175 2599.67 649.937V681.838C2599.67 688.742 2605.26 694.338 2612.17 694.338H2653.83C2660.74 694.338 2666.33 688.742 2666.33 681.838V649.937C2666.33 643.175 2660.96 637.667 2654.25 637.444C2655.44 635.327 2655.9 632.781 2655.34 630.174L2655.27 629.823C2654.53 626.363 2652 623.563 2648.63 622.486C2642.57 620.549 2636.3 623.018 2633 627.89C2629.69 623.018 2623.43 620.549 2617.37 622.486C2614 623.563 2611.46 626.363 2610.73 629.823L2610.65 630.174ZM2635.73 637.405L2636.13 634.503C2636.82 629.339 2642.02 626.059 2646.98 627.646C2648.5 628.131 2649.64 629.392 2649.97 630.95L2650.05 631.301C2650.72 634.447 2648.32 637.411 2645.1 637.411H2635.73L2635.73 637.405ZM2630.27 637.405L2629.87 634.503C2629.17 629.339 2623.98 626.059 2619.02 627.646C2617.5 628.131 2616.36 629.392 2616.03 630.95L2615.95 631.301C2615.28 634.447 2617.68 637.411 2620.9 637.411H2630.27L2630.27 637.405ZM2612.17 642.854C2608.25 642.854 2605.08 646.025 2605.08 649.937V681.838C2605.08 685.75 2608.25 688.922 2612.17 688.922H2653.83C2657.74 688.922 2660.92 685.75 2660.92 681.838V649.937C2660.92 646.025 2657.74 642.854 2653.83 642.854H2612.17Z" fill="black"/>
</g>
</g>
</g>
<g id="Bold-S">
<g id="Outline / Multibonus Outline_21">
<g id="Shape_21">
<path d="M2328.5 652.84C2327.72 652.065 2326.56 651.833 2325.55 652.253C2324.53 652.672 2323.87 653.659 2323.87 654.755V675.588C2323.87 677.084 2325.09 678.297 2326.58 678.297C2328.08 678.297 2329.29 677.084 2329.29 675.588V661.293L2335.08 667.087C2336.14 668.144 2337.86 668.144 2338.91 667.087L2344.71 661.293V675.588C2344.71 677.084 2345.92 678.297 2347.42 678.297C2348.91 678.297 2350.12 677.084 2350.12 675.588V654.755C2350.12 653.659 2349.46 652.672 2348.45 652.253C2347.44 651.833 2346.28 652.065 2345.5 652.84L2337 661.341L2328.5 652.84Z" fill="black"/>
<path fill-rule="evenodd" clip-rule="evenodd" d="M2314.65 630.174C2314.1 632.781 2314.56 635.327 2315.74 637.444C2309.04 637.667 2303.67 643.175 2303.67 649.937V681.838C2303.67 688.742 2309.26 694.338 2316.17 694.338H2357.83C2364.74 694.338 2370.33 688.742 2370.33 681.838V649.937C2370.33 643.175 2364.96 637.667 2358.25 637.444C2359.44 635.327 2359.9 632.781 2359.34 630.174L2359.27 629.823C2358.53 626.363 2356 623.563 2352.63 622.486C2346.57 620.549 2340.3 623.018 2337 627.89C2333.69 623.018 2327.43 620.549 2321.37 622.486C2318 623.563 2315.46 626.363 2314.73 629.823L2314.65 630.174ZM2339.73 637.405L2340.13 634.503C2340.82 629.339 2346.02 626.059 2350.98 627.646C2352.5 628.131 2353.64 629.392 2353.97 630.95L2354.05 631.301C2354.72 634.447 2352.32 637.411 2349.1 637.411H2339.73L2339.73 637.405ZM2334.27 637.405L2333.87 634.503C2333.17 629.339 2327.98 626.059 2323.02 627.646C2321.5 628.131 2320.36 629.392 2320.03 630.95L2319.95 631.301C2319.28 634.447 2321.68 637.411 2324.9 637.411H2334.27L2334.27 637.405ZM2316.17 642.854C2312.25 642.854 2309.08 646.025 2309.08 649.937V681.838C2309.08 685.75 2312.25 688.922 2316.17 688.922H2357.83C2361.74 688.922 2364.92 685.75 2364.92 681.838V649.937C2364.92 646.025 2361.74 642.854 2357.83 642.854H2316.17Z" fill="black"/>
</g>
</g>
</g>
<g id="Semibold-S">
<g id="Outline / Multibonus Outline_22">
<g id="Shape_22">
<path d="M2032.5 652.84C2031.72 652.065 2030.56 651.833 2029.55 652.253C2028.53 652.672 2027.87 653.659 2027.87 654.755V675.588C2027.87 677.084 2029.09 678.297 2030.58 678.297C2032.08 678.297 2033.29 677.084 2033.29 675.588V661.293L2039.08 667.087C2040.14 668.144 2041.86 668.144 2042.91 667.087L2048.71 661.293V675.588C2048.71 677.084 2049.92 678.297 2051.42 678.297C2052.91 678.297 2054.12 677.084 2054.12 675.588V654.755C2054.12 653.659 2053.46 652.672 2052.45 652.253C2051.44 651.833 2050.28 652.065 2049.5 652.84L2041 661.341L2032.5 652.84Z" fill="black"/>
<path fill-rule="evenodd" clip-rule="evenodd" d="M2018.65 630.174C2018.1 632.781 2018.56 635.327 2019.74 637.444C2013.04 637.667 2007.67 643.175 2007.67 649.937V681.838C2007.67 688.742 2013.26 694.338 2020.17 694.338H2061.83C2068.74 694.338 2074.33 688.742 2074.33 681.838V649.937C2074.33 643.175 2068.96 637.667 2062.25 637.444C2063.44 635.327 2063.9 632.781 2063.34 630.174L2063.27 629.823C2062.53 626.363 2060 623.563 2056.63 622.486C2050.57 620.549 2044.3 623.018 2041 627.89C2037.69 623.018 2031.43 620.549 2025.37 622.486C2022 623.563 2019.46 626.363 2018.73 629.823L2018.65 630.174ZM2043.73 637.405L2044.13 634.503C2044.82 629.339 2050.02 626.059 2054.98 627.646C2056.5 628.131 2057.64 629.392 2057.97 630.95L2058.05 631.301C2058.72 634.447 2056.32 637.411 2053.1 637.411H2043.73L2043.73 637.405ZM2038.27 637.405L2037.87 634.503C2037.17 629.339 2031.98 626.059 2027.02 627.646C2025.5 628.131 2024.36 629.392 2024.03 630.95L2023.95 631.301C2023.28 634.447 2025.68 637.411 2028.9 637.411H2038.27L2038.27 637.405ZM2020.17 642.854C2016.25 642.854 2013.08 646.025 2013.08 649.937V681.838C2013.08 685.75 2016.25 688.922 2020.17 688.922H2061.83C2065.74 688.922 2068.92 685.75 2068.92 681.838V649.937C2068.92 646.025 2065.74 642.854 2061.83 642.854H2020.17Z" fill="black"/>
</g>
</g>
</g>
<g id="Medium-S">
<g id="Outline / Multibonus Outline_23">
<g id="Shape_23">
<path d="M1736.5 652.84C1735.72 652.065 1734.56 651.833 1733.55 652.253C1732.53 652.672 1731.87 653.659 1731.87 654.755V675.588C1731.87 677.084 1733.09 678.297 1734.58 678.297C1736.08 678.297 1737.29 677.084 1737.29 675.588V661.293L1743.08 667.087C1744.14 668.144 1745.86 668.144 1746.91 667.087L1752.71 661.293V675.588C1752.71 677.084 1753.92 678.297 1755.42 678.297C1756.91 678.297 1758.12 677.084 1758.12 675.588V654.755C1758.12 653.659 1757.46 652.672 1756.45 652.253C1755.44 651.833 1754.28 652.065 1753.5 652.84L1745 661.341L1736.5 652.84Z" fill="black"/>
<path fill-rule="evenodd" clip-rule="evenodd" d="M1722.65 630.174C1722.1 632.781 1722.56 635.327 1723.74 637.444C1717.04 637.667 1711.67 643.175 1711.67 649.937V681.838C1711.67 688.742 1717.26 694.338 1724.17 694.338H1765.83C1772.74 694.338 1778.33 688.742 1778.33 681.838V649.937C1778.33 643.175 1772.96 637.667 1766.25 637.444C1767.44 635.327 1767.9 632.781 1767.34 630.174L1767.27 629.823C1766.53 626.363 1764 623.563 1760.63 622.486C1754.57 620.549 1748.3 623.018 1745 627.89C1741.69 623.018 1735.43 620.549 1729.37 622.486C1726 623.563 1723.46 626.363 1722.73 629.823L1722.65 630.174ZM1747.73 637.405L1748.13 634.503C1748.82 629.339 1754.02 626.059 1758.98 627.646C1760.5 628.131 1761.64 629.392 1761.97 630.95L1762.05 631.301C1762.72 634.447 1760.32 637.411 1757.1 637.411H1747.73L1747.73 637.405ZM1742.27 637.405L1741.87 634.503C1741.17 629.339 1735.98 626.059 1731.02 627.646C1729.5 628.131 1728.36 629.392 1728.03 630.95L1727.95 631.301C1727.28 634.447 1729.68 637.411 1732.9 637.411H1742.27L1742.27 637.405ZM1724.17 642.854C1720.25 642.854 1717.08 646.025 1717.08 649.937V681.838C1717.08 685.75 1720.25 688.922 1724.17 688.922H1765.83C1769.74 688.922 1772.92 685.75 1772.92 681.838V649.937C1772.92 646.025 1769.74 642.854 1765.83 642.854H1724.17Z" fill="black"/>
</g>
</g>
</g>
<g id="Regular-S">
<g id="Outline / Multibonus Outline_24">
<g id="Shape_24">
<path d="M1440.5 652.84C1439.72 652.065 1438.56 651.833 1437.55 652.253C1436.53 652.672 1435.87 653.659 1435.87 654.755V675.588C1435.87 677.084 1437.09 678.297 1438.58 678.297C1440.08 678.297 1441.29 677.084 1441.29 675.588V661.293L1447.08 667.087C1448.14 668.144 1449.86 668.144 1450.91 667.087L1456.71 661.293V675.588C1456.71 677.084 1457.92 678.297 1459.42 678.297C1460.91 678.297 1462.12 677.084 1462.12 675.588V654.755C1462.12 653.659 1461.46 652.672 1460.45 652.253C1459.44 651.833 1458.28 652.065 1457.5 652.84L1449 661.341L1440.5 652.84Z" fill="black"/>
<path fill-rule="evenodd" clip-rule="evenodd" d="M1426.65 630.174C1426.1 632.781 1426.56 635.327 1427.74 637.444C1421.04 637.667 1415.67 643.175 1415.67 649.937V681.838C1415.67 688.742 1421.26 694.338 1428.17 694.338H1469.83C1476.74 694.338 1482.33 688.742 1482.33 681.838V649.937C1482.33 643.175 1476.96 637.667 1470.25 637.444C1471.44 635.327 1471.9 632.781 1471.34 630.174L1471.27 629.823C1470.53 626.363 1468 623.563 1464.63 622.486C1458.57 620.549 1452.3 623.018 1449 627.89C1445.69 623.018 1439.43 620.549 1433.37 622.486C1430 623.563 1427.46 626.363 1426.73 629.823L1426.65 630.174ZM1451.73 637.405L1452.13 634.503C1452.82 629.339 1458.02 626.059 1462.98 627.646C1464.5 628.131 1465.64 629.392 1465.97 630.95L1466.05 631.301C1466.72 634.447 1464.32 637.411 1461.1 637.411H1451.73L1451.73 637.405ZM1446.27 637.405L1445.87 634.503C1445.17 629.339 1439.98 626.059 1435.02 627.646C1433.5 628.131 1432.36 629.392 1432.03 630.95L1431.95 631.301C1431.28 634.447 1433.68 637.411 1436.9 637.411H1446.27L1446.27 637.405ZM1428.17 642.854C1424.25 642.854 1421.08 646.025 1421.08 649.937V681.838C1421.08 685.75 1424.25 688.922 1428.17 688.922H1469.83C1473.74 688.922 1476.92 685.75 1476.92 681.838V649.937C1476.92 646.025 1473.74 642.854 1469.83 642.854H1428.17Z" fill="black"/>
</g>
</g>
</g>
<g id="Light-S">
<g id="Outline / Multibonus Outline_25">
<g id="Shape_25">
<path d="M1144.5 652.84C1143.72 652.065 1142.56 651.833 1141.55 652.253C1140.53 652.672 1139.87 653.659 1139.87 654.755V675.588C1139.87 677.084 1141.09 678.297 1142.58 678.297C1144.08 678.297 1145.29 677.084 1145.29 675.588V661.293L1151.08 667.087C1152.14 668.144 1153.86 668.144 1154.91 667.087L1160.71 661.293V675.588C1160.71 677.084 1161.92 678.297 1163.42 678.297C1164.91 678.297 1166.12 677.084 1166.12 675.588V654.755C1166.12 653.659 1165.46 652.672 1164.45 652.253C1163.44 651.833 1162.28 652.065 1161.5 652.84L1153 661.341L1144.5 652.84Z" fill="black"/>
<path fill-rule="evenodd" clip-rule="evenodd" d="M1130.65 630.174C1130.1 632.781 1130.56 635.327 1131.74 637.444C1125.04 637.667 1119.67 643.175 1119.67 649.937V681.838C1119.67 688.742 1125.26 694.338 1132.17 694.338H1173.83C1180.74 694.338 1186.33 688.742 1186.33 681.838V649.937C1186.33 643.175 1180.96 637.667 1174.25 637.444C1175.44 635.327 1175.9 632.781 1175.34 630.174L1175.27 629.823C1174.53 626.363 1172 623.563 1168.63 622.486C1162.57 620.549 1156.3 623.018 1153 627.89C1149.69 623.018 1143.43 620.549 1137.37 622.486C1134 623.563 1131.46 626.363 1130.73 629.823L1130.65 630.174ZM1155.73 637.405L1156.13 634.503C1156.82 629.339 1162.02 626.059 1166.98 627.646C1168.5 628.131 1169.64 629.392 1169.97 630.95L1170.05 631.301C1170.72 634.447 1168.32 637.411 1165.1 637.411H1155.73L1155.73 637.405ZM1150.27 637.405L1149.87 634.503C1149.17 629.339 1143.98 626.059 1139.02 627.646C1137.5 628.131 1136.36 629.392 1136.03 630.95L1135.95 631.301C1135.28 634.447 1137.68 637.411 1140.9 637.411H1150.27L1150.27 637.405ZM1132.17 642.854C1128.25 642.854 1125.08 646.025 1125.08 649.937V681.838C1125.08 685.75 1128.25 688.922 1132.17 688.922H1173.83C1177.74 688.922 1180.92 685.75 1180.92 681.838V649.937C1180.92 646.025 1177.74 642.854 1173.83 642.854H1132.17Z" fill="black"/>
</g>
</g>
</g>
<g id="Thin-S">
<g id="Outline / Multibonus Outline_26">
<g id="Shape_26">
<path d="M848.498 652.84C847.723 652.065 846.558 651.833 845.546 652.253C844.534 652.672 843.874 653.659 843.874 654.755V675.588C843.874 677.084 845.087 678.297 846.583 678.297C848.078 678.297 849.291 677.084 849.291 675.588V661.293L855.084 667.087C856.142 668.144 857.857 668.144 858.914 667.087L864.708 661.293V675.588C864.708 677.084 865.92 678.297 867.416 678.297C868.912 678.297 870.124 677.084 870.124 675.588V654.755C870.124 653.659 869.464 652.672 868.452 652.253C867.44 651.833 866.275 652.065 865.501 652.84L856.999 661.341L848.498 652.84Z" fill="black"/>
<path fill-rule="evenodd" clip-rule="evenodd" d="M834.654 630.174C834.099 632.781 834.562 635.327 835.743 637.444C829.035 637.667 823.666 643.175 823.666 649.937V681.838C823.666 688.742 829.262 694.338 836.166 694.338H877.833C884.736 694.338 890.333 688.742 890.333 681.838V649.937C890.333 643.175 884.963 637.667 878.255 637.444C879.436 635.327 879.899 632.781 879.344 630.174L879.269 629.823C878.533 626.363 876 623.563 872.631 622.486C866.571 620.549 860.304 623.018 856.999 627.89C853.694 623.018 847.427 620.549 841.367 622.486C837.998 623.563 835.464 626.363 834.728 629.823L834.654 630.174ZM859.732 637.405L860.125 634.503C860.825 629.339 866.018 626.059 870.982 627.646C872.499 628.131 873.64 629.392 873.971 630.95L874.046 631.301C874.715 634.447 872.316 637.411 869.099 637.411H859.733L859.732 637.405ZM854.266 637.405L853.873 634.503C853.173 629.339 847.98 626.059 843.016 627.646C841.499 628.131 840.358 629.392 840.026 630.95L839.952 631.301C839.282 634.447 841.682 637.411 844.898 637.411H854.265L854.266 637.405ZM836.166 642.854C832.254 642.854 829.083 646.025 829.083 649.937V681.838C829.083 685.75 832.254 688.922 836.166 688.922H877.833C881.745 688.922 884.916 685.75 884.916 681.838V649.937C884.916 646.025 881.745 642.854 877.833 642.854H836.166Z" fill="black"/>
</g>
</g>
</g>
<g id="Ultralight-S">
<g id="Outline / Multibonus Outline_27">
<g id="Shape_27">
<path d="M552.498 652.84C551.723 652.065 550.558 651.833 549.546 652.253C548.534 652.672 547.874 653.659 547.874 654.755V675.588C547.874 677.084 549.087 678.297 550.583 678.297C552.078 678.297 553.291 677.084 553.291 675.588V661.293L559.084 667.087C560.142 668.144 561.857 668.144 562.914 667.087L568.708 661.293V675.588C568.708 677.084 569.92 678.297 571.416 678.297C572.912 678.297 574.124 677.084 574.124 675.588V654.755C574.124 653.659 573.464 652.672 572.452 652.253C571.44 651.833 570.275 652.065 569.501 652.84L560.999 661.341L552.498 652.84Z" fill="black"/>
<path fill-rule="evenodd" clip-rule="evenodd" d="M538.654 630.174C538.099 632.781 538.562 635.327 539.743 637.444C533.035 637.667 527.666 643.175 527.666 649.937V681.838C527.666 688.742 533.262 694.338 540.166 694.338H581.833C588.736 694.338 594.333 688.742 594.333 681.838V649.937C594.333 643.175 588.963 637.667 582.255 637.444C583.436 635.327 583.899 632.781 583.344 630.174L583.269 629.823C582.533 626.363 580 623.563 576.631 622.486C570.571 620.549 564.304 623.018 560.999 627.89C557.694 623.018 551.427 620.549 545.367 622.486C541.998 623.563 539.464 626.363 538.728 629.823L538.654 630.174ZM563.732 637.405L564.125 634.503C564.825 629.339 570.018 626.059 574.982 627.646C576.499 628.131 577.64 629.392 577.971 630.95L578.046 631.301C578.715 634.447 576.316 637.411 573.099 637.411H563.733L563.732 637.405ZM558.266 637.405L557.873 634.503C557.173 629.339 551.98 626.059 547.016 627.646C545.499 628.131 544.358 629.392 544.026 630.95L543.952 631.301C543.282 634.447 545.682 637.411 548.898 637.411H558.265L558.266 637.405ZM540.166 642.854C536.254 642.854 533.083 646.025 533.083 649.937V681.838C533.083 685.75 536.254 688.922 540.166 688.922H581.833C585.745 688.922 588.916 685.75 588.916 681.838V649.937C588.916 646.025 585.745 642.854 581.833 642.854H540.166Z" fill="black"/>
</g>
</g>
</g>
</g>
</g>
<defs>
<clipPath id="clip0_0_1">
<rect width="3300" height="2200" fill="white"/>
</clipPath>
</defs>
</svg>
