<svg width="3300" height="2200" viewBox="0 0 3300 2200" fill="none" xmlns="http://www.w3.org/2000/svg">
<rect width="3300" height="2200" fill="#E5E5E5"/>
<g id="Service / Solid / Archive" clip-path="url(#clip0_0_1)">
<g id="Notes">
<path id="artboard" d="M3300 0H0V2200H3300V0Z" fill="white"/>
<path id="Vector" d="M263 292H3036" stroke="black" stroke-width="0.5"/>
<text id="Weight/Scale Variations" fill="black" xml:space="preserve" style="white-space: pre" font-family="Roboto" font-size="12" letter-spacing="0em"><tspan x="263" y="321.102">Weight/Scale Variations</tspan></text>
<text id="Ultralight" fill="black" xml:space="preserve" style="white-space: pre" font-family="Roboto" font-size="12" letter-spacing="0em"><tspan x="535.211" y="321.102">Ultralight</tspan></text>
<text id="Thin" fill="black" xml:space="preserve" style="white-space: pre" font-family="Roboto" font-size="12" letter-spacing="0em"><tspan x="844.422" y="321.102">Thin</tspan></text>
<text id="Light" fill="black" xml:space="preserve" style="white-space: pre" font-family="Roboto" font-size="12" letter-spacing="0em"><tspan x="1139.63" y="321.102">Light</tspan></text>
<text id="Regular" fill="black" xml:space="preserve" style="white-space: pre" font-family="Roboto" font-size="12" letter-spacing="0em"><tspan x="1429.34" y="321.102">Regular</tspan></text>
<text id="Medium" fill="black" xml:space="preserve" style="white-space: pre" font-family="Roboto" font-size="12" letter-spacing="0em"><tspan x="1724.56" y="321.102">Medium</tspan></text>
<text id="Semibold" fill="black" xml:space="preserve" style="white-space: pre" font-family="Roboto" font-size="12" letter-spacing="0em"><tspan x="2017.77" y="321.102">Semibold</tspan></text>
<text id="Bold" fill="black" xml:space="preserve" style="white-space: pre" font-family="Roboto" font-size="12" letter-spacing="0em"><tspan x="2327.48" y="321.102">Bold</tspan></text>
<text id="Heavy" fill="black" xml:space="preserve" style="white-space: pre" font-family="Roboto" font-size="12" letter-spacing="0em"><tspan x="2620.19" y="321.102">Heavy</tspan></text>
<text id="Black" fill="black" xml:space="preserve" style="white-space: pre" font-family="Roboto" font-size="12" letter-spacing="0em"><tspan x="2918.4" y="321.102">Black</tspan></text>
<path id="Vector_2" d="M263 1903H3036" stroke="black" stroke-width="0.5"/>
<g id="Group">
<path id="Vector_3" d="M272.248 1933.83C276.555 1933.83 280.139 1930.26 280.139 1925.95C280.139 1921.64 276.545 1918.07 272.238 1918.07C267.941 1918.07 264.367 1921.64 264.367 1925.95C264.367 1930.26 267.951 1933.83 272.248 1933.83ZM272.248 1932.35C268.703 1932.35 265.871 1929.5 265.871 1925.95C265.871 1922.39 268.693 1919.55 272.238 1919.55C275.793 1919.55 278.635 1922.39 278.644 1925.95C278.654 1929.5 275.803 1932.35 272.248 1932.35ZM272.229 1929.57C272.697 1929.57 272.971 1929.26 272.971 1928.74V1926.68H275.197C275.695 1926.68 276.037 1926.43 276.037 1925.96C276.037 1925.48 275.715 1925.22 275.197 1925.22H272.971V1922.99C272.971 1922.47 272.697 1922.15 272.229 1922.15C271.76 1922.15 271.506 1922.49 271.506 1922.99V1925.22H269.299C268.781 1925.22 268.449 1925.48 268.449 1925.96C268.449 1926.43 268.801 1926.68 269.299 1926.68H271.506V1928.74C271.506 1929.24 271.76 1929.57 272.229 1929.57Z" fill="black"/>
</g>
<g id="Group_2">
<path id="Vector_4" d="M293.215 1935.91C298.664 1935.91 303.176 1931.4 303.176 1925.95C303.176 1920.51 298.654 1915.99 293.205 1915.99C287.766 1915.99 283.254 1920.51 283.254 1925.95C283.254 1931.4 287.775 1935.91 293.215 1935.91ZM293.215 1934.25C288.605 1934.25 284.924 1930.56 284.924 1925.95C284.924 1921.35 288.596 1917.65 293.205 1917.65C297.814 1917.65 301.506 1921.35 301.516 1925.95C301.525 1930.56 297.824 1934.25 293.215 1934.25ZM293.195 1930.59C293.713 1930.59 294.025 1930.23 294.025 1929.66V1926.77H297.082C297.629 1926.77 298.01 1926.49 298.01 1925.97C298.01 1925.44 297.648 1925.14 297.082 1925.14H294.025V1922.07C294.025 1921.5 293.713 1921.14 293.195 1921.14C292.678 1921.14 292.385 1921.52 292.385 1922.07V1925.14H289.338C288.771 1925.14 288.4 1925.44 288.4 1925.97C288.4 1926.49 288.791 1926.77 289.338 1926.77H292.385V1929.66C292.385 1930.21 292.678 1930.59 293.195 1930.59Z" fill="black"/>
</g>
<g id="Group_3">
<path id="Vector_5" d="M319.895 1938.67C326.857 1938.67 332.619 1932.92 332.619 1925.96C332.619 1919 326.848 1913.24 319.885 1913.24C312.932 1913.24 307.18 1919 307.18 1925.96C307.18 1932.92 312.941 1938.67 319.895 1938.67ZM319.895 1936.86C313.859 1936.86 309.006 1931.99 309.006 1925.96C309.006 1919.92 313.85 1915.06 319.885 1915.06C325.93 1915.06 330.783 1919.92 330.793 1925.96C330.803 1931.99 325.939 1936.86 319.895 1936.86ZM319.875 1931.94C320.441 1931.94 320.793 1931.54 320.793 1930.94V1926.87H325.031C325.617 1926.87 326.037 1926.54 326.037 1925.98C326.037 1925.4 325.647 1925.06 325.031 1925.06H320.793V1920.81C320.793 1920.2 320.441 1919.81 319.875 1919.81C319.309 1919.81 318.986 1920.22 318.986 1920.81V1925.06H314.758C314.143 1925.06 313.732 1925.4 313.732 1925.98C313.732 1926.54 314.162 1926.87 314.758 1926.87H318.986V1930.94C318.986 1931.53 319.309 1931.94 319.875 1931.94Z" fill="black"/>
</g>
<text id="Design Variations" fill="black" xml:space="preserve" style="white-space: pre" font-family="Roboto" font-size="12" letter-spacing="0em"><tspan x="263" y="1952.1">Design Variations</tspan></text>
<text id="Symbols are supported in up to nine weights and three scales." fill="black" xml:space="preserve" style="white-space: pre" font-family="Roboto" font-size="12" letter-spacing="0em"><tspan x="263" y="1970.1">Symbols are supported in up to nine weights and three scales.</tspan></text>
<text id="For optimal layout with text and other symbols, vertically align" fill="black" xml:space="preserve" style="white-space: pre" font-family="Roboto" font-size="12" letter-spacing="0em"><tspan x="263" y="1988.1">For optimal layout with text and other symbols, vertically align</tspan></text>
<text id="symbols with the adjacent text." fill="black" xml:space="preserve" style="white-space: pre" font-family="Roboto" font-size="12" letter-spacing="0em"><tspan x="263" y="2006.1">symbols with the adjacent text.</tspan></text>
<path id="Vector_6" opacity="0.4" d="M779 1919H776V1933H779V1919Z" fill="#00AEEF"/>
<g id="Group_4">
<path id="Vector_7" d="M789.527 1933H791.373L786.178 1918.91H784.439L779.244 1933H781.09L782.506 1928.97H788.111L789.527 1933ZM785.279 1921.05H785.338L787.594 1927.47H783.023L785.279 1921.05Z" fill="black"/>
</g>
<path id="Vector_8" opacity="0.4" d="M794.617 1919H791.617V1933H794.617V1919Z" fill="#00AEEF"/>
<text id="Margins" fill="black" xml:space="preserve" style="white-space: pre" font-family="Roboto" font-size="12" letter-spacing="0em"><tspan x="776" y="1952.1">Margins</tspan></text>
<text id="Leading and trailing margins on the left and right side of each symbol" fill="black" xml:space="preserve" style="white-space: pre" font-family="Roboto" font-size="12" letter-spacing="0em"><tspan x="776" y="1970.1">Leading and trailing margins on the left and right side of each symbol</tspan></text>
<text id="can be adjusted by modifying the width of the blue rectangles." fill="black" xml:space="preserve" style="white-space: pre" font-family="Roboto" font-size="12" letter-spacing="0em"><tspan x="776" y="1988.1">can be adjusted by modifying the width of the blue rectangles.</tspan></text>
<text id="Modifications are automatically applied proportionally to all" fill="black" xml:space="preserve" style="white-space: pre" font-family="Roboto" font-size="12" letter-spacing="0em"><tspan x="776" y="2006.1">Modifications are automatically applied proportionally to all</tspan></text>
<text id="scales and weights." fill="black" xml:space="preserve" style="white-space: pre" font-family="Roboto" font-size="12" letter-spacing="0em"><tspan x="776" y="2024.1">scales and weights.</tspan></text>
<g id="Group_5">
<path id="Vector_9" d="M1291.83 1936.11L1293.37 1937.66C1294.22 1938.49 1295.19 1938.42 1296.06 1937.46L1306.27 1926.34C1306.7 1926.63 1307.1 1926.62 1307.56 1926.52L1308.61 1926.31L1309.3 1927L1309.25 1927.52C1309.19 1928.05 1309.35 1928.47 1309.85 1928.97L1310.66 1929.78C1311.17 1930.28 1311.82 1930.31 1312.3 1929.83L1315.55 1926.58C1316.03 1926.1 1316.01 1925.45 1315.5 1924.94L1314.68 1924.12C1314.19 1923.62 1313.77 1923.45 1313.24 1923.53L1312.71 1923.58L1312.06 1922.92L1312.34 1921.78C1312.49 1921.21 1312.34 1920.74 1311.71 1920.14L1309.3 1917.75C1305.76 1914.22 1301.23 1914.33 1298.11 1917.46C1297.69 1917.89 1297.64 1918.48 1297.92 1918.91C1298.15 1919.28 1298.63 1919.5 1299.27 1919.34C1300.79 1918.96 1302.3 1919.07 1303.78 1920.08L1303.16 1921.66C1302.93 1922.25 1302.94 1922.73 1303.18 1923.16L1292.02 1933.44C1291.08 1934.31 1290.97 1935.25 1291.83 1936.11ZM1299.67 1917.85C1302.34 1915.86 1305.65 1916.17 1308.05 1918.58L1310.68 1921.19C1310.91 1921.43 1310.94 1921.61 1310.88 1921.91L1310.5 1923.47L1312.08 1925.04L1313.04 1924.95C1313.33 1924.92 1313.41 1924.94 1313.64 1925.17L1314.26 1925.79L1311.51 1928.54L1310.88 1927.92C1310.66 1927.7 1310.64 1927.6 1310.67 1927.32L1310.76 1926.36L1309.19 1924.8L1307.57 1925.11C1307.29 1925.17 1307.14 1925.17 1306.91 1924.92L1304.73 1922.75C1304.51 1922.51 1304.48 1922.37 1304.61 1922.05L1305.55 1919.78C1303.95 1918.24 1301.84 1917.39 1299.8 1918.05C1299.71 1918.08 1299.64 1918.06 1299.61 1918.02C1299.59 1917.97 1299.59 1917.92 1299.67 1917.85ZM1293.1 1935.41C1292.61 1934.91 1292.79 1934.61 1293.12 1934.31L1304.08 1924.19L1305.31 1925.42L1295.15 1936.35C1294.85 1936.68 1294.47 1936.78 1294.07 1936.38L1293.1 1935.41Z" fill="black"/>
</g>
<text id="Exporting" fill="black" xml:space="preserve" style="white-space: pre" font-family="Roboto" font-size="12" letter-spacing="0em"><tspan x="1289" y="1952.1">Exporting</tspan></text>
<text id="Symbols should be outlined when exporting to ensure the" fill="black" xml:space="preserve" style="white-space: pre" font-family="Roboto" font-size="12" letter-spacing="0em"><tspan x="1289" y="1970.1">Symbols should be outlined when exporting to ensure the</tspan></text>
<text id="design is preserved when submitting to Xcode." fill="black" xml:space="preserve" style="white-space: pre" font-family="Roboto" font-size="12" letter-spacing="0em"><tspan x="1289" y="1988.1">design is preserved when submitting to Xcode.</tspan></text>
<text id="template-version" fill="black" xml:space="preserve" style="white-space: pre" font-family="Roboto" font-size="12" letter-spacing="0em"><tspan x="2958" y="1932.1">Template v.1.0</tspan></text>
<text id="Generated from pencil.circle" fill="black" xml:space="preserve" style="white-space: pre" font-family="Roboto" font-size="12" letter-spacing="0em"><tspan x="2885" y="1950.1">Generated from pencil.circle</tspan></text>
<text id="Typeset at 100 points" fill="black" xml:space="preserve" style="white-space: pre" font-family="Roboto" font-size="12" letter-spacing="0em"><tspan x="2921" y="1968.1">Typeset at 100 points</tspan></text>
<text id="Small" fill="black" xml:space="preserve" style="white-space: pre" font-family="Roboto" font-size="12" letter-spacing="0em"><tspan x="263" y="725.102">Small</tspan></text>
<text id="Medium_2" fill="black" xml:space="preserve" style="white-space: pre" font-family="Roboto" font-size="12" letter-spacing="0em"><tspan x="263" y="1155.1">Medium</tspan></text>
<text id="Large" fill="black" xml:space="preserve" style="white-space: pre" font-family="Roboto" font-size="12" letter-spacing="0em"><tspan x="263" y="1585.1">Large</tspan></text>
</g>
<g id="Guides">
<g id="H-reference">
<path id="Vector_10" d="M393.932 696H396.666L369.566 625.541H367.076L339.977 696H342.662L351.94 671.537H384.703L393.932 696ZM368.199 628.91H368.443L383.824 669.291H352.818L368.199 628.91Z" fill="#27AAE1"/>
</g>
<path id="Baseline-S" d="M263 696H3036" stroke="#27AAE1" stroke-width="0.577"/>
<path id="Capline-S" d="M263 626H3036" stroke="#27AAE1" stroke-width="0.577"/>
<g id="H-reference_2">
<path id="Vector_11" d="M393.932 1126H396.666L369.566 1055.54H367.076L339.977 1126H342.662L351.94 1101.54H384.703L393.932 1126ZM368.199 1058.91H368.443L383.824 1099.29H352.818L368.199 1058.91Z" fill="#27AAE1"/>
</g>
<path id="Baseline-M" d="M263 1126H3036" stroke="#27AAE1" stroke-width="0.577"/>
<path id="Capline-M" d="M263 1056H3036" stroke="#27AAE1" stroke-width="0.577"/>
<g id="H-reference_3">
<path id="Vector_12" d="M393.932 1556H396.666L369.566 1485.54H367.076L339.977 1556H342.662L351.94 1531.54H384.703L393.932 1556ZM368.199 1488.91H368.443L383.824 1529.29H352.818L368.199 1488.91Z" fill="#27AAE1"/>
</g>
<g id="Group 1">
<path id="Baseline-L" d="M263 1556H3036" stroke="#27AAE1" stroke-width="0.577"/>
<path id="Capline-L" d="M263 1486H3036" stroke="#27AAE1" stroke-width="0.577"/>
</g>
<path id="left-margin" opacity="0.4" d="M1402.04 1030.79H1393.3V1150.12H1402.04V1030.79Z" fill="#00AEEF"/>
<path id="right-margin" opacity="0.4" d="M1505.39 1030.79H1496.65V1150.12H1505.39V1030.79Z" fill="#00AEEF"/>
</g>
<g id="Symbols">
<g id="Black-L">
<g id="Solid / Archive Solid">
<g id="Shape">
<path d="M2869 1483.5C2869 1471.07 2879.07 1461 2891.5 1461H2966.5C2978.93 1461 2989 1471.07 2989 1483.5V1495.88C2989 1498.77 2986.65 1501.12 2983.75 1501.12H2874.25C2871.35 1501.12 2869 1498.77 2869 1495.87V1483.5Z" fill="black"/>
<path fill-rule="evenodd" clip-rule="evenodd" d="M2869 1516.12C2869 1513.23 2871.35 1510.88 2874.25 1510.88H2983.75C2986.65 1510.88 2989 1513.23 2989 1516.12V1558.5C2989 1570.93 2978.93 1581 2966.5 1581H2891.5C2879.07 1581 2869 1570.93 2869 1558.5V1516.12ZM2914 1532.1C2911.31 1532.1 2909.12 1534.29 2909.12 1536.98C2909.12 1539.67 2911.31 1541.85 2914 1541.85H2944C2946.69 1541.85 2948.88 1539.67 2948.88 1536.98C2948.88 1534.29 2946.69 1532.1 2944 1532.1H2914Z" fill="black"/>
</g>
</g>
</g>
<g id="Heavy-L">
<g id="Solid / Archive Solid_2">
<g id="Shape_2">
<path d="M2573 1483.5C2573 1471.07 2583.07 1461 2595.5 1461H2670.5C2682.93 1461 2693 1471.07 2693 1483.5V1495.88C2693 1498.77 2690.65 1501.12 2687.75 1501.12H2578.25C2575.35 1501.12 2573 1498.77 2573 1495.87V1483.5Z" fill="black"/>
<path fill-rule="evenodd" clip-rule="evenodd" d="M2573 1516.12C2573 1513.23 2575.35 1510.88 2578.25 1510.88H2687.75C2690.65 1510.88 2693 1513.23 2693 1516.12V1558.5C2693 1570.93 2682.93 1581 2670.5 1581H2595.5C2583.07 1581 2573 1570.93 2573 1558.5V1516.12ZM2618 1532.1C2615.31 1532.1 2613.12 1534.29 2613.12 1536.98C2613.12 1539.67 2615.31 1541.85 2618 1541.85H2648C2650.69 1541.85 2652.88 1539.67 2652.88 1536.98C2652.88 1534.29 2650.69 1532.1 2648 1532.1H2618Z" fill="black"/>
</g>
</g>
</g>
<g id="Bold-L">
<g id="Solid / Archive Solid_3">
<g id="Shape_3">
<path d="M2277 1483.5C2277 1471.07 2287.07 1461 2299.5 1461H2374.5C2386.93 1461 2397 1471.07 2397 1483.5V1495.88C2397 1498.77 2394.65 1501.12 2391.75 1501.12H2282.25C2279.35 1501.12 2277 1498.77 2277 1495.87V1483.5Z" fill="black"/>
<path fill-rule="evenodd" clip-rule="evenodd" d="M2277 1516.12C2277 1513.23 2279.35 1510.88 2282.25 1510.88H2391.75C2394.65 1510.88 2397 1513.23 2397 1516.12V1558.5C2397 1570.93 2386.93 1581 2374.5 1581H2299.5C2287.07 1581 2277 1570.93 2277 1558.5V1516.12ZM2322 1532.1C2319.31 1532.1 2317.12 1534.29 2317.12 1536.98C2317.12 1539.67 2319.31 1541.85 2322 1541.85H2352C2354.69 1541.85 2356.88 1539.67 2356.88 1536.98C2356.88 1534.29 2354.69 1532.1 2352 1532.1H2322Z" fill="black"/>
</g>
</g>
</g>
<g id="Semibold-L">
<g id="Solid / Archive Solid_4">
<g id="Shape_4">
<path d="M1981 1483.5C1981 1471.07 1991.07 1461 2003.5 1461H2078.5C2090.93 1461 2101 1471.07 2101 1483.5V1495.88C2101 1498.77 2098.65 1501.12 2095.75 1501.12H1986.25C1983.35 1501.12 1981 1498.77 1981 1495.87V1483.5Z" fill="black"/>
<path fill-rule="evenodd" clip-rule="evenodd" d="M1981 1516.12C1981 1513.23 1983.35 1510.88 1986.25 1510.88H2095.75C2098.65 1510.88 2101 1513.23 2101 1516.12V1558.5C2101 1570.93 2090.93 1581 2078.5 1581H2003.5C1991.07 1581 1981 1570.93 1981 1558.5V1516.12ZM2026 1532.1C2023.31 1532.1 2021.12 1534.29 2021.12 1536.98C2021.12 1539.67 2023.31 1541.85 2026 1541.85H2056C2058.69 1541.85 2060.88 1539.67 2060.88 1536.98C2060.88 1534.29 2058.69 1532.1 2056 1532.1H2026Z" fill="black"/>
</g>
</g>
</g>
<g id="Medium-L">
<g id="Solid / Archive Solid_5">
<g id="Shape_5">
<path d="M1685 1483.5C1685 1471.07 1695.07 1461 1707.5 1461H1782.5C1794.93 1461 1805 1471.07 1805 1483.5V1495.88C1805 1498.77 1802.65 1501.12 1799.75 1501.12H1690.25C1687.35 1501.12 1685 1498.77 1685 1495.87V1483.5Z" fill="black"/>
<path fill-rule="evenodd" clip-rule="evenodd" d="M1685 1516.12C1685 1513.23 1687.35 1510.88 1690.25 1510.88H1799.75C1802.65 1510.88 1805 1513.23 1805 1516.12V1558.5C1805 1570.93 1794.93 1581 1782.5 1581H1707.5C1695.07 1581 1685 1570.93 1685 1558.5V1516.12ZM1730 1532.1C1727.31 1532.1 1725.12 1534.29 1725.12 1536.98C1725.12 1539.67 1727.31 1541.85 1730 1541.85H1760C1762.69 1541.85 1764.88 1539.67 1764.88 1536.98C1764.88 1534.29 1762.69 1532.1 1760 1532.1H1730Z" fill="black"/>
</g>
</g>
</g>
<g id="Regular-L">
<g id="Solid / Archive Solid_6">
<g id="Shape_6">
<path d="M1389 1483.5C1389 1471.07 1399.07 1461 1411.5 1461H1486.5C1498.93 1461 1509 1471.07 1509 1483.5V1495.88C1509 1498.77 1506.65 1501.12 1503.75 1501.12H1394.25C1391.35 1501.12 1389 1498.77 1389 1495.87V1483.5Z" fill="black"/>
<path fill-rule="evenodd" clip-rule="evenodd" d="M1389 1516.12C1389 1513.23 1391.35 1510.88 1394.25 1510.88H1503.75C1506.65 1510.88 1509 1513.23 1509 1516.12V1558.5C1509 1570.93 1498.93 1581 1486.5 1581H1411.5C1399.07 1581 1389 1570.93 1389 1558.5V1516.12ZM1434 1532.1C1431.31 1532.1 1429.12 1534.29 1429.12 1536.98C1429.12 1539.67 1431.31 1541.85 1434 1541.85H1464C1466.69 1541.85 1468.88 1539.67 1468.88 1536.98C1468.88 1534.29 1466.69 1532.1 1464 1532.1H1434Z" fill="black"/>
</g>
</g>
</g>
<g id="Light-L">
<g id="Solid / Archive Solid_7">
<g id="Shape_7">
<path d="M1093 1483.5C1093 1471.07 1103.07 1461 1115.5 1461H1190.5C1202.93 1461 1213 1471.07 1213 1483.5V1495.88C1213 1498.77 1210.65 1501.12 1207.75 1501.12H1098.25C1095.35 1501.12 1093 1498.77 1093 1495.87V1483.5Z" fill="black"/>
<path fill-rule="evenodd" clip-rule="evenodd" d="M1093 1516.12C1093 1513.23 1095.35 1510.88 1098.25 1510.88H1207.75C1210.65 1510.88 1213 1513.23 1213 1516.12V1558.5C1213 1570.93 1202.93 1581 1190.5 1581H1115.5C1103.07 1581 1093 1570.93 1093 1558.5V1516.12ZM1138 1532.1C1135.31 1532.1 1133.12 1534.29 1133.12 1536.98C1133.12 1539.67 1135.31 1541.85 1138 1541.85H1168C1170.69 1541.85 1172.88 1539.67 1172.88 1536.98C1172.88 1534.29 1170.69 1532.1 1168 1532.1H1138Z" fill="black"/>
</g>
</g>
</g>
<g id="Thin-L">
<g id="Solid / Archive Solid_8">
<g id="Shape_8">
<path d="M797 1483.5C797 1471.07 807.074 1461 819.5 1461H894.5C906.926 1461 917 1471.07 917 1483.5V1495.88C917 1498.77 914.649 1501.12 911.75 1501.12H802.25C799.351 1501.12 797 1498.77 797 1495.87V1483.5Z" fill="black"/>
<path fill-rule="evenodd" clip-rule="evenodd" d="M797 1516.12C797 1513.23 799.351 1510.88 802.25 1510.88H911.75C914.649 1510.88 917 1513.23 917 1516.12V1558.5C917 1570.93 906.926 1581 894.5 1581H819.5C807.074 1581 797 1570.93 797 1558.5V1516.12ZM842 1532.1C839.308 1532.1 837.125 1534.29 837.125 1536.98C837.125 1539.67 839.308 1541.85 842 1541.85H872C874.692 1541.85 876.875 1539.67 876.875 1536.98C876.875 1534.29 874.692 1532.1 872 1532.1H842Z" fill="black"/>
</g>
</g>
</g>
<g id="Ultralight-L">
<g id="Solid / Archive Solid_9">
<g id="Shape_9">
<path d="M501 1483.5C501 1471.07 511.074 1461 523.5 1461H598.5C610.926 1461 621 1471.07 621 1483.5V1495.88C621 1498.77 618.649 1501.12 615.75 1501.12H506.25C503.351 1501.12 501 1498.77 501 1495.87V1483.5Z" fill="black"/>
<path fill-rule="evenodd" clip-rule="evenodd" d="M501 1516.12C501 1513.23 503.351 1510.88 506.25 1510.88H615.75C618.649 1510.88 621 1513.23 621 1516.12V1558.5C621 1570.93 610.926 1581 598.5 1581H523.5C511.074 1581 501 1570.93 501 1558.5V1516.12ZM546 1532.1C543.308 1532.1 541.125 1534.29 541.125 1536.98C541.125 1539.67 543.308 1541.85 546 1541.85H576C578.692 1541.85 580.875 1539.67 580.875 1536.98C580.875 1534.29 578.692 1532.1 576 1532.1H546Z" fill="black"/>
</g>
</g>
</g>
<g id="Black-M">
<g id="Solid / Archive Solid_10">
<g id="Shape_10">
<path d="M2882.33 1061.83C2882.33 1052.17 2890.17 1044.33 2899.83 1044.33H2958.17C2967.83 1044.33 2975.67 1052.17 2975.67 1061.83V1071.46C2975.67 1073.71 2973.84 1075.54 2971.58 1075.54H2886.42C2884.16 1075.54 2882.33 1073.71 2882.33 1071.46V1061.83Z" fill="black"/>
<path fill-rule="evenodd" clip-rule="evenodd" d="M2882.33 1087.21C2882.33 1084.95 2884.16 1083.13 2886.42 1083.13H2971.58C2973.84 1083.13 2975.67 1084.95 2975.67 1087.21V1120.17C2975.67 1129.83 2967.83 1137.67 2958.17 1137.67H2899.83C2890.17 1137.67 2882.33 1129.83 2882.33 1120.17V1087.21ZM2917.33 1099.64C2915.24 1099.64 2913.54 1101.33 2913.54 1103.43C2913.54 1105.52 2915.24 1107.22 2917.33 1107.22H2940.67C2942.76 1107.22 2944.46 1105.52 2944.46 1103.43C2944.46 1101.33 2942.76 1099.64 2940.67 1099.64H2917.33Z" fill="black"/>
</g>
</g>
</g>
<g id="Heavy-M">
<g id="Solid / Archive Solid_11">
<g id="Shape_11">
<path d="M2586.33 1061.83C2586.33 1052.17 2594.17 1044.33 2603.83 1044.33H2662.17C2671.83 1044.33 2679.67 1052.17 2679.67 1061.83V1071.46C2679.67 1073.71 2677.84 1075.54 2675.58 1075.54H2590.42C2588.16 1075.54 2586.33 1073.71 2586.33 1071.46V1061.83Z" fill="black"/>
<path fill-rule="evenodd" clip-rule="evenodd" d="M2586.33 1087.21C2586.33 1084.95 2588.16 1083.13 2590.42 1083.13H2675.58C2677.84 1083.13 2679.67 1084.95 2679.67 1087.21V1120.17C2679.67 1129.83 2671.83 1137.67 2662.17 1137.67H2603.83C2594.17 1137.67 2586.33 1129.83 2586.33 1120.17V1087.21ZM2621.33 1099.64C2619.24 1099.64 2617.54 1101.33 2617.54 1103.43C2617.54 1105.52 2619.24 1107.22 2621.33 1107.22H2644.67C2646.76 1107.22 2648.46 1105.52 2648.46 1103.43C2648.46 1101.33 2646.76 1099.64 2644.67 1099.64H2621.33Z" fill="black"/>
</g>
</g>
</g>
<g id="Bold-M">
<g id="Solid / Archive Solid_12">
<g id="Shape_12">
<path d="M2290.33 1061.83C2290.33 1052.17 2298.17 1044.33 2307.83 1044.33H2366.17C2375.83 1044.33 2383.67 1052.17 2383.67 1061.83V1071.46C2383.67 1073.71 2381.84 1075.54 2379.58 1075.54H2294.42C2292.16 1075.54 2290.33 1073.71 2290.33 1071.46V1061.83Z" fill="black"/>
<path fill-rule="evenodd" clip-rule="evenodd" d="M2290.33 1087.21C2290.33 1084.95 2292.16 1083.13 2294.42 1083.13H2379.58C2381.84 1083.13 2383.67 1084.95 2383.67 1087.21V1120.17C2383.67 1129.83 2375.83 1137.67 2366.17 1137.67H2307.83C2298.17 1137.67 2290.33 1129.83 2290.33 1120.17V1087.21ZM2325.33 1099.64C2323.24 1099.64 2321.54 1101.33 2321.54 1103.43C2321.54 1105.52 2323.24 1107.22 2325.33 1107.22H2348.67C2350.76 1107.22 2352.46 1105.52 2352.46 1103.43C2352.46 1101.33 2350.76 1099.64 2348.67 1099.64H2325.33Z" fill="black"/>
</g>
</g>
</g>
<g id="Semibold-M">
<g id="Solid / Archive Solid_13">
<g id="Shape_13">
<path d="M1994.33 1061.83C1994.33 1052.17 2002.17 1044.33 2011.83 1044.33H2070.17C2079.83 1044.33 2087.67 1052.17 2087.67 1061.83V1071.46C2087.67 1073.71 2085.84 1075.54 2083.58 1075.54H1998.42C1996.16 1075.54 1994.33 1073.71 1994.33 1071.46V1061.83Z" fill="black"/>
<path fill-rule="evenodd" clip-rule="evenodd" d="M1994.33 1087.21C1994.33 1084.95 1996.16 1083.13 1998.42 1083.13H2083.58C2085.84 1083.13 2087.67 1084.95 2087.67 1087.21V1120.17C2087.67 1129.83 2079.83 1137.67 2070.17 1137.67H2011.83C2002.17 1137.67 1994.33 1129.83 1994.33 1120.17V1087.21ZM2029.33 1099.64C2027.24 1099.64 2025.54 1101.33 2025.54 1103.43C2025.54 1105.52 2027.24 1107.22 2029.33 1107.22H2052.67C2054.76 1107.22 2056.46 1105.52 2056.46 1103.43C2056.46 1101.33 2054.76 1099.64 2052.67 1099.64H2029.33Z" fill="black"/>
</g>
</g>
</g>
<g id="Medium-M">
<g id="Solid / Archive Solid_14">
<g id="Shape_14">
<path d="M1698.33 1061.83C1698.33 1052.17 1706.17 1044.33 1715.83 1044.33H1774.17C1783.83 1044.33 1791.67 1052.17 1791.67 1061.83V1071.46C1791.67 1073.71 1789.84 1075.54 1787.58 1075.54H1702.42C1700.16 1075.54 1698.33 1073.71 1698.33 1071.46V1061.83Z" fill="black"/>
<path fill-rule="evenodd" clip-rule="evenodd" d="M1698.33 1087.21C1698.33 1084.95 1700.16 1083.13 1702.42 1083.13H1787.58C1789.84 1083.13 1791.67 1084.95 1791.67 1087.21V1120.17C1791.67 1129.83 1783.83 1137.67 1774.17 1137.67H1715.83C1706.17 1137.67 1698.33 1129.83 1698.33 1120.17V1087.21ZM1733.33 1099.64C1731.24 1099.64 1729.54 1101.33 1729.54 1103.43C1729.54 1105.52 1731.24 1107.22 1733.33 1107.22H1756.67C1758.76 1107.22 1760.46 1105.52 1760.46 1103.43C1760.46 1101.33 1758.76 1099.64 1756.67 1099.64H1733.33Z" fill="black"/>
</g>
</g>
</g>
<g id="Regular-M">
<g id="Solid / Archive Solid_15">
<g id="Shape_15">
<path d="M1402.33 1061.83C1402.33 1052.17 1410.17 1044.33 1419.83 1044.33H1478.17C1487.83 1044.33 1495.67 1052.17 1495.67 1061.83V1071.46C1495.67 1073.71 1493.84 1075.54 1491.58 1075.54H1406.42C1404.16 1075.54 1402.33 1073.71 1402.33 1071.46V1061.83Z" fill="black"/>
<path fill-rule="evenodd" clip-rule="evenodd" d="M1402.33 1087.21C1402.33 1084.95 1404.16 1083.13 1406.42 1083.13H1491.58C1493.84 1083.13 1495.67 1084.95 1495.67 1087.21V1120.17C1495.67 1129.83 1487.83 1137.67 1478.17 1137.67H1419.83C1410.17 1137.67 1402.33 1129.83 1402.33 1120.17V1087.21ZM1437.33 1099.64C1435.24 1099.64 1433.54 1101.33 1433.54 1103.43C1433.54 1105.52 1435.24 1107.22 1437.33 1107.22H1460.67C1462.76 1107.22 1464.46 1105.52 1464.46 1103.43C1464.46 1101.33 1462.76 1099.64 1460.67 1099.64H1437.33Z" fill="black"/>
</g>
</g>
</g>
<g id="Light-M">
<g id="Solid / Archive Solid_16">
<g id="Shape_16">
<path d="M1106.33 1061.83C1106.33 1052.17 1114.17 1044.33 1123.83 1044.33H1182.17C1191.83 1044.33 1199.67 1052.17 1199.67 1061.83V1071.46C1199.67 1073.71 1197.84 1075.54 1195.58 1075.54H1110.42C1108.16 1075.54 1106.33 1073.71 1106.33 1071.46V1061.83Z" fill="black"/>
<path fill-rule="evenodd" clip-rule="evenodd" d="M1106.33 1087.21C1106.33 1084.95 1108.16 1083.13 1110.42 1083.13H1195.58C1197.84 1083.13 1199.67 1084.95 1199.67 1087.21V1120.17C1199.67 1129.83 1191.83 1137.67 1182.17 1137.67H1123.83C1114.17 1137.67 1106.33 1129.83 1106.33 1120.17V1087.21ZM1141.33 1099.64C1139.24 1099.64 1137.54 1101.33 1137.54 1103.43C1137.54 1105.52 1139.24 1107.22 1141.33 1107.22H1164.67C1166.76 1107.22 1168.46 1105.52 1168.46 1103.43C1168.46 1101.33 1166.76 1099.64 1164.67 1099.64H1141.33Z" fill="black"/>
</g>
</g>
</g>
<g id="Thin-M">
<g id="Solid / Archive Solid_17">
<g id="Shape_17">
<path d="M810.334 1061.83C810.334 1052.17 818.169 1044.33 827.834 1044.33H886.167C895.832 1044.33 903.667 1052.17 903.667 1061.83V1071.46C903.667 1073.71 901.839 1075.54 899.584 1075.54H814.417C812.162 1075.54 810.334 1073.71 810.334 1071.46V1061.83Z" fill="black"/>
<path fill-rule="evenodd" clip-rule="evenodd" d="M810.334 1087.21C810.334 1084.95 812.162 1083.13 814.417 1083.13H899.584C901.839 1083.13 903.667 1084.95 903.667 1087.21V1120.17C903.667 1129.83 895.832 1137.67 886.167 1137.67H827.834C818.169 1137.67 810.334 1129.83 810.334 1120.17V1087.21ZM845.334 1099.64C843.24 1099.64 841.542 1101.33 841.542 1103.43C841.542 1105.52 843.24 1107.22 845.334 1107.22H868.667C870.761 1107.22 872.459 1105.52 872.459 1103.43C872.459 1101.33 870.761 1099.64 868.667 1099.64H845.334Z" fill="black"/>
</g>
</g>
</g>
<g id="Ultralight-M">
<g id="Solid / Archive Solid_18">
<g id="Shape_18">
<path d="M514.334 1061.83C514.334 1052.17 522.169 1044.33 531.834 1044.33H590.167C599.832 1044.33 607.667 1052.17 607.667 1061.83V1071.46C607.667 1073.71 605.839 1075.54 603.584 1075.54H518.417C516.162 1075.54 514.334 1073.71 514.334 1071.46V1061.83Z" fill="black"/>
<path fill-rule="evenodd" clip-rule="evenodd" d="M514.334 1087.21C514.334 1084.95 516.162 1083.13 518.417 1083.13H603.584C605.839 1083.13 607.667 1084.95 607.667 1087.21V1120.17C607.667 1129.83 599.832 1137.67 590.167 1137.67H531.834C522.169 1137.67 514.334 1129.83 514.334 1120.17V1087.21ZM549.334 1099.64C547.24 1099.64 545.542 1101.33 545.542 1103.43C545.542 1105.52 547.24 1107.22 549.334 1107.22H572.667C574.761 1107.22 576.459 1105.52 576.459 1103.43C576.459 1101.33 574.761 1099.64 572.667 1099.64H549.334Z" fill="black"/>
</g>
</g>
</g>
<g id="Black-S">
<g id="Solid / Archive Solid_19">
<g id="Shape_19">
<path d="M2895.67 640.166C2895.67 633.262 2901.26 627.666 2908.17 627.666H2949.83C2956.74 627.666 2962.33 633.262 2962.33 640.166V647.041C2962.33 648.652 2961.03 649.958 2959.42 649.958H2898.58C2896.97 649.958 2895.67 648.652 2895.67 647.041V640.166Z" fill="black"/>
<path fill-rule="evenodd" clip-rule="evenodd" d="M2895.67 658.291C2895.67 656.68 2896.97 655.374 2898.58 655.374H2959.42C2961.03 655.374 2962.33 656.68 2962.33 658.291V681.833C2962.33 688.736 2956.74 694.333 2949.83 694.333H2908.17C2901.26 694.333 2895.67 688.736 2895.67 681.833V658.291ZM2920.67 667.167C2919.17 667.167 2917.96 668.38 2917.96 669.876C2917.96 671.372 2919.17 672.584 2920.67 672.584H2937.33C2938.83 672.584 2940.04 671.372 2940.04 669.876C2940.04 668.38 2938.83 667.167 2937.33 667.167H2920.67Z" fill="black"/>
</g>
</g>
</g>
<g id="Heavy-S">
<g id="Solid / Archive Solid_20">
<g id="Shape_20">
<path d="M2599.67 640.166C2599.67 633.262 2605.26 627.666 2612.17 627.666H2653.83C2660.74 627.666 2666.33 633.262 2666.33 640.166V647.041C2666.33 648.652 2665.03 649.958 2663.42 649.958H2602.58C2600.97 649.958 2599.67 648.652 2599.67 647.041V640.166Z" fill="black"/>
<path fill-rule="evenodd" clip-rule="evenodd" d="M2599.67 658.291C2599.67 656.68 2600.97 655.374 2602.58 655.374H2663.42C2665.03 655.374 2666.33 656.68 2666.33 658.291V681.833C2666.33 688.736 2660.74 694.333 2653.83 694.333H2612.17C2605.26 694.333 2599.67 688.736 2599.67 681.833V658.291ZM2624.67 667.167C2623.17 667.167 2621.96 668.38 2621.96 669.876C2621.96 671.372 2623.17 672.584 2624.67 672.584H2641.33C2642.83 672.584 2644.04 671.372 2644.04 669.876C2644.04 668.38 2642.83 667.167 2641.33 667.167H2624.67Z" fill="black"/>
</g>
</g>
</g>
<g id="Bold-S">
<g id="Solid / Archive Solid_21">
<g id="Shape_21">
<path d="M2303.67 640.166C2303.67 633.262 2309.26 627.666 2316.17 627.666H2357.83C2364.74 627.666 2370.33 633.262 2370.33 640.166V647.041C2370.33 648.652 2369.03 649.958 2367.42 649.958H2306.58C2304.97 649.958 2303.67 648.652 2303.67 647.041V640.166Z" fill="black"/>
<path fill-rule="evenodd" clip-rule="evenodd" d="M2303.67 658.291C2303.67 656.68 2304.97 655.374 2306.58 655.374H2367.42C2369.03 655.374 2370.33 656.68 2370.33 658.291V681.833C2370.33 688.736 2364.74 694.333 2357.83 694.333H2316.17C2309.26 694.333 2303.67 688.736 2303.67 681.833V658.291ZM2328.67 667.167C2327.17 667.167 2325.96 668.38 2325.96 669.876C2325.96 671.372 2327.17 672.584 2328.67 672.584H2345.33C2346.83 672.584 2348.04 671.372 2348.04 669.876C2348.04 668.38 2346.83 667.167 2345.33 667.167H2328.67Z" fill="black"/>
</g>
</g>
</g>
<g id="Semibold-S">
<g id="Solid / Archive Solid_22">
<g id="Shape_22">
<path d="M2007.67 640.166C2007.67 633.262 2013.26 627.666 2020.17 627.666H2061.83C2068.74 627.666 2074.33 633.262 2074.33 640.166V647.041C2074.33 648.652 2073.03 649.958 2071.42 649.958H2010.58C2008.97 649.958 2007.67 648.652 2007.67 647.041V640.166Z" fill="black"/>
<path fill-rule="evenodd" clip-rule="evenodd" d="M2007.67 658.291C2007.67 656.68 2008.97 655.374 2010.58 655.374H2071.42C2073.03 655.374 2074.33 656.68 2074.33 658.291V681.833C2074.33 688.736 2068.74 694.333 2061.83 694.333H2020.17C2013.26 694.333 2007.67 688.736 2007.67 681.833V658.291ZM2032.67 667.167C2031.17 667.167 2029.96 668.38 2029.96 669.876C2029.96 671.372 2031.17 672.584 2032.67 672.584H2049.33C2050.83 672.584 2052.04 671.372 2052.04 669.876C2052.04 668.38 2050.83 667.167 2049.33 667.167H2032.67Z" fill="black"/>
</g>
</g>
</g>
<g id="Medium-S">
<g id="Solid / Archive Solid_23">
<g id="Shape_23">
<path d="M1711.67 640.166C1711.67 633.262 1717.26 627.666 1724.17 627.666H1765.83C1772.74 627.666 1778.33 633.262 1778.33 640.166V647.041C1778.33 648.652 1777.03 649.958 1775.42 649.958H1714.58C1712.97 649.958 1711.67 648.652 1711.67 647.041V640.166Z" fill="black"/>
<path fill-rule="evenodd" clip-rule="evenodd" d="M1711.67 658.291C1711.67 656.68 1712.97 655.374 1714.58 655.374H1775.42C1777.03 655.374 1778.33 656.68 1778.33 658.291V681.833C1778.33 688.736 1772.74 694.333 1765.83 694.333H1724.17C1717.26 694.333 1711.67 688.736 1711.67 681.833V658.291ZM1736.67 667.167C1735.17 667.167 1733.96 668.38 1733.96 669.876C1733.96 671.372 1735.17 672.584 1736.67 672.584H1753.33C1754.83 672.584 1756.04 671.372 1756.04 669.876C1756.04 668.38 1754.83 667.167 1753.33 667.167H1736.67Z" fill="black"/>
</g>
</g>
</g>
<g id="Regular-S">
<g id="Solid / Archive Solid_24">
<g id="Shape_24">
<path d="M1415.67 640.166C1415.67 633.262 1421.26 627.666 1428.17 627.666H1469.83C1476.74 627.666 1482.33 633.262 1482.33 640.166V647.041C1482.33 648.652 1481.03 649.958 1479.42 649.958H1418.58C1416.97 649.958 1415.67 648.652 1415.67 647.041V640.166Z" fill="black"/>
<path fill-rule="evenodd" clip-rule="evenodd" d="M1415.67 658.291C1415.67 656.68 1416.97 655.374 1418.58 655.374H1479.42C1481.03 655.374 1482.33 656.68 1482.33 658.291V681.833C1482.33 688.736 1476.74 694.333 1469.83 694.333H1428.17C1421.26 694.333 1415.67 688.736 1415.67 681.833V658.291ZM1440.67 667.167C1439.17 667.167 1437.96 668.38 1437.96 669.876C1437.96 671.372 1439.17 672.584 1440.67 672.584H1457.33C1458.83 672.584 1460.04 671.372 1460.04 669.876C1460.04 668.38 1458.83 667.167 1457.33 667.167H1440.67Z" fill="black"/>
</g>
</g>
</g>
<g id="Light-S">
<g id="Solid / Archive Solid_25">
<g id="Shape_25">
<path d="M1119.67 640.166C1119.67 633.262 1125.26 627.666 1132.17 627.666H1173.83C1180.74 627.666 1186.33 633.262 1186.33 640.166V647.041C1186.33 648.652 1185.03 649.958 1183.42 649.958H1122.58C1120.97 649.958 1119.67 648.652 1119.67 647.041V640.166Z" fill="black"/>
<path fill-rule="evenodd" clip-rule="evenodd" d="M1119.67 658.291C1119.67 656.68 1120.97 655.374 1122.58 655.374H1183.42C1185.03 655.374 1186.33 656.68 1186.33 658.291V681.833C1186.33 688.736 1180.74 694.333 1173.83 694.333H1132.17C1125.26 694.333 1119.67 688.736 1119.67 681.833V658.291ZM1144.67 667.167C1143.17 667.167 1141.96 668.38 1141.96 669.876C1141.96 671.372 1143.17 672.584 1144.67 672.584H1161.33C1162.83 672.584 1164.04 671.372 1164.04 669.876C1164.04 668.38 1162.83 667.167 1161.33 667.167H1144.67Z" fill="black"/>
</g>
</g>
</g>
<g id="Thin-S">
<g id="Solid / Archive Solid_26">
<g id="Shape_26">
<path d="M823.666 640.166C823.666 633.262 829.262 627.666 836.166 627.666H877.833C884.736 627.666 890.333 633.262 890.333 640.166V647.041C890.333 648.652 889.027 649.958 887.416 649.958H826.583C824.972 649.958 823.666 648.652 823.666 647.041V640.166Z" fill="black"/>
<path fill-rule="evenodd" clip-rule="evenodd" d="M823.666 658.291C823.666 656.68 824.972 655.374 826.583 655.374H887.416C889.027 655.374 890.333 656.68 890.333 658.291V681.833C890.333 688.736 884.736 694.333 877.833 694.333H836.166C829.262 694.333 823.666 688.736 823.666 681.833V658.291ZM848.666 667.167C847.17 667.167 845.958 668.38 845.958 669.876C845.958 671.372 847.17 672.584 848.666 672.584H865.333C866.828 672.584 868.041 671.372 868.041 669.876C868.041 668.38 866.828 667.167 865.333 667.167H848.666Z" fill="black"/>
</g>
</g>
</g>
<g id="Ultralight-S">
<g id="Solid / Archive Solid_27">
<g id="Shape_27">
<path d="M527.666 640.166C527.666 633.262 533.262 627.666 540.166 627.666H581.833C588.736 627.666 594.333 633.262 594.333 640.166V647.041C594.333 648.652 593.027 649.958 591.416 649.958H530.583C528.972 649.958 527.666 648.652 527.666 647.041V640.166Z" fill="black"/>
<path fill-rule="evenodd" clip-rule="evenodd" d="M527.666 658.291C527.666 656.68 528.972 655.374 530.583 655.374H591.416C593.027 655.374 594.333 656.68 594.333 658.291V681.833C594.333 688.736 588.736 694.333 581.833 694.333H540.166C533.262 694.333 527.666 688.736 527.666 681.833V658.291ZM552.666 667.167C551.17 667.167 549.958 668.38 549.958 669.876C549.958 671.372 551.17 672.584 552.666 672.584H569.333C570.828 672.584 572.041 671.372 572.041 669.876C572.041 668.38 570.828 667.167 569.333 667.167H552.666Z" fill="black"/>
</g>
</g>
</g>
</g>
</g>
<defs>
<clipPath id="clip0_0_1">
<rect width="3300" height="2200" fill="white"/>
</clipPath>
</defs>
</svg>
