<svg width="3300" height="2200" viewBox="0 0 3300 2200" fill="none" xmlns="http://www.w3.org/2000/svg">
<rect width="3300" height="2200" fill="#E5E5E5"/>
<g id="System / Solid / Export" clip-path="url(#clip0_805_27002)">
<g id="Notes">
<path id="artboard" d="M3300 0H0V2200H3300V0Z" fill="white"/>
<path id="Vector" d="M263 292H3036" stroke="black" stroke-width="0.5"/>
<text id="Weight/Scale Variations" fill="black" xml:space="preserve" style="white-space: pre" font-family="Roboto" font-size="12" letter-spacing="0em"><tspan x="263" y="321.102">Weight/Scale Variations</tspan></text>
<text id="Ultralight" fill="black" xml:space="preserve" style="white-space: pre" font-family="Roboto" font-size="12" letter-spacing="0em"><tspan x="535.211" y="321.102">Ultralight</tspan></text>
<text id="Thin" fill="black" xml:space="preserve" style="white-space: pre" font-family="Roboto" font-size="12" letter-spacing="0em"><tspan x="844.422" y="321.102">Thin</tspan></text>
<text id="Light" fill="black" xml:space="preserve" style="white-space: pre" font-family="Roboto" font-size="12" letter-spacing="0em"><tspan x="1139.63" y="321.102">Light</tspan></text>
<text id="Regular" fill="black" xml:space="preserve" style="white-space: pre" font-family="Roboto" font-size="12" letter-spacing="0em"><tspan x="1429.34" y="321.102">Regular</tspan></text>
<text id="Medium" fill="black" xml:space="preserve" style="white-space: pre" font-family="Roboto" font-size="12" letter-spacing="0em"><tspan x="1724.56" y="321.102">Medium</tspan></text>
<text id="Semibold" fill="black" xml:space="preserve" style="white-space: pre" font-family="Roboto" font-size="12" letter-spacing="0em"><tspan x="2017.77" y="321.102">Semibold</tspan></text>
<text id="Bold" fill="black" xml:space="preserve" style="white-space: pre" font-family="Roboto" font-size="12" letter-spacing="0em"><tspan x="2327.48" y="321.102">Bold</tspan></text>
<text id="Heavy" fill="black" xml:space="preserve" style="white-space: pre" font-family="Roboto" font-size="12" letter-spacing="0em"><tspan x="2620.19" y="321.102">Heavy</tspan></text>
<text id="Black" fill="black" xml:space="preserve" style="white-space: pre" font-family="Roboto" font-size="12" letter-spacing="0em"><tspan x="2918.4" y="321.102">Black</tspan></text>
<path id="Vector_2" d="M263 1903H3036" stroke="black" stroke-width="0.5"/>
<g id="Group">
<path id="Vector_3" d="M272.248 1933.83C276.555 1933.83 280.139 1930.26 280.139 1925.95C280.139 1921.64 276.545 1918.07 272.238 1918.07C267.941 1918.07 264.367 1921.64 264.367 1925.95C264.367 1930.26 267.951 1933.83 272.248 1933.83ZM272.248 1932.35C268.703 1932.35 265.871 1929.51 265.871 1925.95C265.871 1922.4 268.693 1919.55 272.238 1919.55C275.793 1919.55 278.635 1922.4 278.644 1925.95C278.654 1929.51 275.803 1932.35 272.248 1932.35ZM272.229 1929.57C272.697 1929.57 272.971 1929.26 272.971 1928.74V1926.68H275.197C275.695 1926.68 276.037 1926.43 276.037 1925.96C276.037 1925.48 275.715 1925.22 275.197 1925.22H272.971V1922.99C272.971 1922.47 272.697 1922.15 272.229 1922.15C271.76 1922.15 271.506 1922.49 271.506 1922.99V1925.22H269.299C268.781 1925.22 268.449 1925.48 268.449 1925.96C268.449 1926.43 268.801 1926.68 269.299 1926.68H271.506V1928.74C271.506 1929.24 271.76 1929.57 272.229 1929.57Z" fill="black"/>
</g>
<g id="Group_2">
<path id="Vector_4" d="M293.215 1935.91C298.664 1935.91 303.176 1931.4 303.176 1925.95C303.176 1920.51 298.654 1915.99 293.205 1915.99C287.766 1915.99 283.254 1920.51 283.254 1925.95C283.254 1931.4 287.775 1935.91 293.215 1935.91ZM293.215 1934.25C288.605 1934.25 284.924 1930.56 284.924 1925.95C284.924 1921.35 288.596 1917.65 293.205 1917.65C297.814 1917.65 301.506 1921.35 301.516 1925.95C301.525 1930.56 297.824 1934.25 293.215 1934.25ZM293.195 1930.59C293.713 1930.59 294.025 1930.23 294.025 1929.66V1926.77H297.082C297.629 1926.77 298.01 1926.49 298.01 1925.97C298.01 1925.44 297.648 1925.14 297.082 1925.14H294.025V1922.07C294.025 1921.5 293.713 1921.14 293.195 1921.14C292.678 1921.14 292.385 1921.52 292.385 1922.07V1925.14H289.338C288.771 1925.14 288.4 1925.44 288.4 1925.97C288.4 1926.49 288.791 1926.77 289.338 1926.77H292.385V1929.66C292.385 1930.21 292.678 1930.59 293.195 1930.59Z" fill="black"/>
</g>
<g id="Group_3">
<path id="Vector_5" d="M319.895 1938.67C326.857 1938.67 332.619 1932.92 332.619 1925.96C332.619 1918.99 326.848 1913.24 319.885 1913.24C312.932 1913.24 307.18 1918.99 307.18 1925.96C307.18 1932.92 312.941 1938.67 319.895 1938.67ZM319.895 1936.86C313.859 1936.86 309.006 1931.99 309.006 1925.96C309.006 1919.92 313.85 1915.06 319.885 1915.06C325.93 1915.06 330.783 1919.92 330.793 1925.96C330.803 1931.99 325.939 1936.86 319.895 1936.86ZM319.875 1931.93C320.441 1931.93 320.793 1931.54 320.793 1930.94V1926.87H325.031C325.617 1926.87 326.037 1926.53 326.037 1925.98C326.037 1925.4 325.647 1925.06 325.031 1925.06H320.793V1920.81C320.793 1920.2 320.441 1919.8 319.875 1919.8C319.309 1919.8 318.986 1920.21 318.986 1920.81V1925.06H314.758C314.143 1925.06 313.732 1925.4 313.732 1925.98C313.732 1926.53 314.162 1926.87 314.758 1926.87H318.986V1930.94C318.986 1931.52 319.309 1931.93 319.875 1931.93Z" fill="black"/>
</g>
<text id="Design Variations" fill="black" xml:space="preserve" style="white-space: pre" font-family="Roboto" font-size="12" letter-spacing="0em"><tspan x="263" y="1952.1">Design Variations</tspan></text>
<text id="Symbols are supported in up to nine weights and three scales." fill="black" xml:space="preserve" style="white-space: pre" font-family="Roboto" font-size="12" letter-spacing="0em"><tspan x="263" y="1970.1">Symbols are supported in up to nine weights and three scales.</tspan></text>
<text id="For optimal layout with text and other symbols, vertically align" fill="black" xml:space="preserve" style="white-space: pre" font-family="Roboto" font-size="12" letter-spacing="0em"><tspan x="263" y="1988.1">For optimal layout with text and other symbols, vertically align</tspan></text>
<text id="symbols with the adjacent text." fill="black" xml:space="preserve" style="white-space: pre" font-family="Roboto" font-size="12" letter-spacing="0em"><tspan x="263" y="2006.1">symbols with the adjacent text.</tspan></text>
<path id="Vector_6" opacity="0.4" d="M779 1919H776V1933H779V1919Z" fill="#00AEEF"/>
<g id="Group_4">
<path id="Vector_7" d="M789.525 1933H791.371L786.176 1918.91H784.437L779.242 1933H781.088L782.504 1928.96H788.109L789.525 1933ZM785.277 1921.04H785.336L787.592 1927.47H783.021L785.277 1921.04Z" fill="black"/>
</g>
<path id="Vector_8" opacity="0.4" d="M794.617 1919H791.617V1933H794.617V1919Z" fill="#00AEEF"/>
<text id="Margins" fill="black" xml:space="preserve" style="white-space: pre" font-family="Roboto" font-size="12" letter-spacing="0em"><tspan x="776" y="1952.1">Margins</tspan></text>
<text id="Leading and trailing margins on the left and right side of each symbol" fill="black" xml:space="preserve" style="white-space: pre" font-family="Roboto" font-size="12" letter-spacing="0em"><tspan x="776" y="1970.1">Leading and trailing margins on the left and right side of each symbol</tspan></text>
<text id="can be adjusted by modifying the width of the blue rectangles." fill="black" xml:space="preserve" style="white-space: pre" font-family="Roboto" font-size="12" letter-spacing="0em"><tspan x="776" y="1988.1">can be adjusted by modifying the width of the blue rectangles.</tspan></text>
<text id="Modifications are automatically applied proportionally to all" fill="black" xml:space="preserve" style="white-space: pre" font-family="Roboto" font-size="12" letter-spacing="0em"><tspan x="776" y="2006.1">Modifications are automatically applied proportionally to all</tspan></text>
<text id="scales and weights." fill="black" xml:space="preserve" style="white-space: pre" font-family="Roboto" font-size="12" letter-spacing="0em"><tspan x="776" y="2024.1">scales and weights.</tspan></text>
<g id="Group_5">
<path id="Vector_9" d="M1291.83 1936.11L1293.37 1937.66C1294.22 1938.49 1295.19 1938.42 1296.06 1937.46L1306.27 1926.34C1306.7 1926.63 1307.1 1926.62 1307.56 1926.52L1308.61 1926.31L1309.3 1927L1309.25 1927.52C1309.19 1928.05 1309.35 1928.47 1309.85 1928.97L1310.66 1929.78C1311.17 1930.28 1311.82 1930.31 1312.3 1929.83L1315.55 1926.58C1316.03 1926.1 1316.01 1925.45 1315.5 1924.94L1314.68 1924.12C1314.19 1923.62 1313.77 1923.45 1313.24 1923.53L1312.71 1923.58L1312.06 1922.92L1312.34 1921.78C1312.49 1921.21 1312.34 1920.74 1311.71 1920.14L1309.3 1917.75C1305.76 1914.22 1301.23 1914.33 1298.11 1917.46C1297.69 1917.89 1297.64 1918.48 1297.92 1918.91C1298.15 1919.28 1298.63 1919.5 1299.27 1919.34C1300.79 1918.96 1302.3 1919.07 1303.78 1920.08L1303.16 1921.66C1302.93 1922.25 1302.94 1922.73 1303.18 1923.16L1292.02 1933.44C1291.08 1934.31 1290.97 1935.25 1291.83 1936.11ZM1299.67 1917.85C1302.34 1915.86 1305.65 1916.17 1308.05 1918.58L1310.68 1921.19C1310.91 1921.43 1310.94 1921.61 1310.88 1921.91L1310.5 1923.47L1312.08 1925.04L1313.04 1924.95C1313.33 1924.92 1313.41 1924.94 1313.64 1925.17L1314.26 1925.79L1311.51 1928.54L1310.88 1927.92C1310.66 1927.7 1310.64 1927.6 1310.67 1927.32L1310.76 1926.36L1309.19 1924.8L1307.57 1925.11C1307.29 1925.17 1307.14 1925.17 1306.91 1924.92L1304.73 1922.75C1304.51 1922.51 1304.48 1922.37 1304.61 1922.05L1305.55 1919.78C1303.95 1918.24 1301.84 1917.39 1299.8 1918.05C1299.71 1918.08 1299.64 1918.06 1299.61 1918.02C1299.59 1917.97 1299.59 1917.92 1299.67 1917.85ZM1293.1 1935.41C1292.61 1934.91 1292.79 1934.61 1293.12 1934.31L1304.08 1924.19L1305.31 1925.42L1295.15 1936.35C1294.85 1936.68 1294.47 1936.78 1294.07 1936.38L1293.1 1935.41Z" fill="black"/>
</g>
<text id="Exporting" fill="black" xml:space="preserve" style="white-space: pre" font-family="Roboto" font-size="12" letter-spacing="0em"><tspan x="1289" y="1952.1">Exporting</tspan></text>
<text id="Symbols should be outlined when exporting to ensure the" fill="black" xml:space="preserve" style="white-space: pre" font-family="Roboto" font-size="12" letter-spacing="0em"><tspan x="1289" y="1970.1">Symbols should be outlined when exporting to ensure the</tspan></text>
<text id="design is preserved when submitting to Xcode." fill="black" xml:space="preserve" style="white-space: pre" font-family="Roboto" font-size="12" letter-spacing="0em"><tspan x="1289" y="1988.1">design is preserved when submitting to Xcode.</tspan></text>
<text id="template-version" fill="black" xml:space="preserve" style="white-space: pre" font-family="Roboto" font-size="12" letter-spacing="0em"><tspan x="2958" y="1932.1">Template v.1.0</tspan></text>
<text id="Generated from pencil.circle" fill="black" xml:space="preserve" style="white-space: pre" font-family="Roboto" font-size="12" letter-spacing="0em"><tspan x="2885" y="1950.1">Generated from pencil.circle</tspan></text>
<text id="Typeset at 100 points" fill="black" xml:space="preserve" style="white-space: pre" font-family="Roboto" font-size="12" letter-spacing="0em"><tspan x="2921" y="1968.1">Typeset at 100 points</tspan></text>
<text id="Small" fill="black" xml:space="preserve" style="white-space: pre" font-family="Roboto" font-size="12" letter-spacing="0em"><tspan x="263" y="725.102">Small</tspan></text>
<text id="Medium_2" fill="black" xml:space="preserve" style="white-space: pre" font-family="Roboto" font-size="12" letter-spacing="0em"><tspan x="263" y="1155.1">Medium</tspan></text>
<text id="Large" fill="black" xml:space="preserve" style="white-space: pre" font-family="Roboto" font-size="12" letter-spacing="0em"><tspan x="263" y="1585.1">Large</tspan></text>
</g>
<g id="Guides">
<g id="H-reference">
<path id="Vector_10" d="M393.932 695.998H396.666L369.566 625.539H367.076L339.977 695.998H342.662L351.94 671.535H384.703L393.932 695.998ZM368.199 628.908H368.443L383.824 669.289H352.818L368.199 628.908Z" fill="#27AAE1"/>
</g>
<path id="Baseline-S" d="M263 696H3036" stroke="#27AAE1" stroke-width="0.577"/>
<path id="Capline-S" d="M263 626H3036" stroke="#27AAE1" stroke-width="0.577"/>
<g id="H-reference_2">
<path id="Vector_11" d="M393.932 1126H396.666L369.566 1055.54H367.076L339.977 1126H342.662L351.94 1101.54H384.703L393.932 1126ZM368.199 1058.91H368.443L383.824 1099.29H352.818L368.199 1058.91Z" fill="#27AAE1"/>
</g>
<path id="Baseline-M" d="M263 1126H3036" stroke="#27AAE1" stroke-width="0.577"/>
<path id="Capline-M" d="M263 1056H3036" stroke="#27AAE1" stroke-width="0.577"/>
<g id="H-reference_3">
<path id="Vector_12" d="M393.932 1556H396.666L369.566 1485.54H367.076L339.977 1556H342.662L351.94 1531.54H384.703L393.932 1556ZM368.199 1488.91H368.443L383.824 1529.29H352.818L368.199 1488.91Z" fill="#27AAE1"/>
</g>
<g id="Group 1">
<path id="Baseline-L" d="M263 1556H3036" stroke="#27AAE1" stroke-width="0.577"/>
<path id="Capline-L" d="M263 1486H3036" stroke="#27AAE1" stroke-width="0.577"/>
</g>
<path id="left-margin" opacity="0.4" d="M1408.04 1030.79H1399.3V1150.12H1408.04V1030.79Z" fill="#00AEEF"/>
<path id="right-margin" opacity="0.4" d="M1510.39 1030.79H1501.65V1150.12H1510.39V1030.79Z" fill="#00AEEF"/>
</g>
<g id="Symbols">
<g id="Black-L">
<g id="Solid / Export Solid">
<g id="Shape">
<path fill-rule="evenodd" clip-rule="evenodd" d="M2996.5 1494.75C2996.5 1517.53 2978.03 1536 2955.25 1536C2932.47 1536 2914 1517.53 2914 1494.75C2914 1471.97 2932.47 1453.5 2955.25 1453.5C2978.03 1453.5 2996.5 1471.97 2996.5 1494.75ZM2958.9 1506.15C2959.88 1507.2 2961.15 1507.72 2962.5 1507.72C2963.7 1507.72 2964.83 1507.35 2965.8 1506.45L2981.1 1491.23C2983.42 1489.13 2983.42 1485.53 2981.1 1483.43L2965.8 1468.5C2963.78 1466.7 2960.7 1466.85 2958.9 1468.8C2957.1 1470.83 2957.18 1473.9 2959.2 1475.7L2965.8 1482.46C2964.62 1482.46 2963.98 1482.45 2963.49 1482.45C2962.62 1482.44 2962.22 1482.43 2960.13 1482.48C2945.01 1482.48 2932.75 1494.74 2932.75 1509.86V1512.48C2932.75 1515.17 2934.93 1517.35 2937.63 1517.35C2940.32 1517.35 2942.5 1515.17 2942.5 1512.48V1509.86C2942.5 1500.12 2950.39 1492.23 2960.13 1492.23H2965.83L2959.2 1499.25C2957.25 1501.05 2957.1 1504.12 2958.9 1506.15Z" fill="black"/>
<path d="M2905.37 1461C2909.89 1461 2912.51 1466.55 2910.36 1470.52C2906.46 1477.73 2904.25 1485.98 2904.25 1494.75C2904.25 1522.92 2927.08 1545.75 2955.25 1545.75C2959.16 1545.75 2962.97 1545.31 2966.63 1544.48C2970.24 1543.65 2974 1546.21 2974 1549.92V1558.5C2974 1570.93 2963.93 1581 2951.5 1581H2899C2886.57 1581 2876.5 1570.93 2876.5 1558.5V1483.5C2876.5 1471.07 2886.57 1461 2899 1461H2905.37Z" fill="black"/>
</g>
</g>
</g>
<g id="Heavy-L">
<g id="Solid / Export Solid_2">
<g id="Shape_2">
<path fill-rule="evenodd" clip-rule="evenodd" d="M2700.5 1494.75C2700.5 1517.53 2682.03 1536 2659.25 1536C2636.47 1536 2618 1517.53 2618 1494.75C2618 1471.97 2636.47 1453.5 2659.25 1453.5C2682.03 1453.5 2700.5 1471.97 2700.5 1494.75ZM2662.9 1506.15C2663.88 1507.2 2665.15 1507.72 2666.5 1507.72C2667.7 1507.72 2668.83 1507.35 2669.8 1506.45L2685.1 1491.23C2687.42 1489.13 2687.42 1485.53 2685.1 1483.43L2669.8 1468.5C2667.78 1466.7 2664.7 1466.85 2662.9 1468.8C2661.1 1470.83 2661.18 1473.9 2663.2 1475.7L2669.8 1482.46C2668.62 1482.46 2667.98 1482.45 2667.49 1482.45C2666.62 1482.44 2666.22 1482.43 2664.13 1482.48C2649.01 1482.48 2636.75 1494.74 2636.75 1509.86V1512.48C2636.75 1515.17 2638.93 1517.35 2641.63 1517.35C2644.32 1517.35 2646.5 1515.17 2646.5 1512.48V1509.86C2646.5 1500.12 2654.39 1492.23 2664.13 1492.23H2669.83L2663.2 1499.25C2661.25 1501.05 2661.1 1504.12 2662.9 1506.15Z" fill="black"/>
<path d="M2609.37 1461C2613.89 1461 2616.51 1466.55 2614.36 1470.52C2610.46 1477.73 2608.25 1485.98 2608.25 1494.75C2608.25 1522.92 2631.08 1545.75 2659.25 1545.75C2663.16 1545.75 2666.97 1545.31 2670.63 1544.48C2674.24 1543.65 2678 1546.21 2678 1549.92V1558.5C2678 1570.93 2667.93 1581 2655.5 1581H2603C2590.57 1581 2580.5 1570.93 2580.5 1558.5V1483.5C2580.5 1471.07 2590.57 1461 2603 1461H2609.37Z" fill="black"/>
</g>
</g>
</g>
<g id="Bold-L">
<g id="Solid / Export Solid_3">
<g id="Shape_3">
<path fill-rule="evenodd" clip-rule="evenodd" d="M2404.5 1494.75C2404.5 1517.53 2386.03 1536 2363.25 1536C2340.47 1536 2322 1517.53 2322 1494.75C2322 1471.97 2340.47 1453.5 2363.25 1453.5C2386.03 1453.5 2404.5 1471.97 2404.5 1494.75ZM2366.9 1506.15C2367.88 1507.2 2369.15 1507.72 2370.5 1507.72C2371.7 1507.72 2372.83 1507.35 2373.8 1506.45L2389.1 1491.23C2391.42 1489.13 2391.42 1485.53 2389.1 1483.43L2373.8 1468.5C2371.78 1466.7 2368.7 1466.85 2366.9 1468.8C2365.1 1470.83 2365.18 1473.9 2367.2 1475.7L2373.8 1482.46C2372.62 1482.46 2371.98 1482.45 2371.49 1482.45C2370.62 1482.44 2370.22 1482.43 2368.13 1482.48C2353.01 1482.48 2340.75 1494.74 2340.75 1509.86V1512.48C2340.75 1515.17 2342.93 1517.35 2345.63 1517.35C2348.32 1517.35 2350.5 1515.17 2350.5 1512.48V1509.86C2350.5 1500.12 2358.39 1492.23 2368.13 1492.23H2373.83L2367.2 1499.25C2365.25 1501.05 2365.1 1504.12 2366.9 1506.15Z" fill="black"/>
<path d="M2313.37 1461C2317.89 1461 2320.51 1466.55 2318.36 1470.52C2314.46 1477.73 2312.25 1485.98 2312.25 1494.75C2312.25 1522.92 2335.08 1545.75 2363.25 1545.75C2367.16 1545.75 2370.97 1545.31 2374.63 1544.48C2378.24 1543.65 2382 1546.21 2382 1549.92V1558.5C2382 1570.93 2371.93 1581 2359.5 1581H2307C2294.57 1581 2284.5 1570.93 2284.5 1558.5V1483.5C2284.5 1471.07 2294.57 1461 2307 1461H2313.37Z" fill="black"/>
</g>
</g>
</g>
<g id="Semibold-L">
<g id="Solid / Export Solid_4">
<g id="Shape_4">
<path fill-rule="evenodd" clip-rule="evenodd" d="M2108.5 1494.75C2108.5 1517.53 2090.03 1536 2067.25 1536C2044.47 1536 2026 1517.53 2026 1494.75C2026 1471.97 2044.47 1453.5 2067.25 1453.5C2090.03 1453.5 2108.5 1471.97 2108.5 1494.75ZM2070.9 1506.15C2071.88 1507.2 2073.15 1507.72 2074.5 1507.72C2075.7 1507.72 2076.83 1507.35 2077.8 1506.45L2093.1 1491.23C2095.42 1489.13 2095.42 1485.53 2093.1 1483.43L2077.8 1468.5C2075.78 1466.7 2072.7 1466.85 2070.9 1468.8C2069.1 1470.83 2069.18 1473.9 2071.2 1475.7L2077.8 1482.46C2076.62 1482.46 2075.98 1482.45 2075.49 1482.45C2074.62 1482.44 2074.22 1482.43 2072.13 1482.48C2057.01 1482.48 2044.75 1494.74 2044.75 1509.86V1512.48C2044.75 1515.17 2046.93 1517.35 2049.63 1517.35C2052.32 1517.35 2054.5 1515.17 2054.5 1512.48V1509.86C2054.5 1500.12 2062.39 1492.23 2072.13 1492.23H2077.83L2071.2 1499.25C2069.25 1501.05 2069.1 1504.12 2070.9 1506.15Z" fill="black"/>
<path d="M2017.37 1461C2021.89 1461 2024.51 1466.55 2022.36 1470.52C2018.46 1477.73 2016.25 1485.98 2016.25 1494.75C2016.25 1522.92 2039.08 1545.75 2067.25 1545.75C2071.16 1545.75 2074.97 1545.31 2078.63 1544.48C2082.24 1543.65 2086 1546.21 2086 1549.92V1558.5C2086 1570.93 2075.93 1581 2063.5 1581H2011C1998.57 1581 1988.5 1570.93 1988.5 1558.5V1483.5C1988.5 1471.07 1998.57 1461 2011 1461H2017.37Z" fill="black"/>
</g>
</g>
</g>
<g id="Medium-L">
<g id="Solid / Export Solid_5">
<g id="Shape_5">
<path fill-rule="evenodd" clip-rule="evenodd" d="M1812.5 1494.75C1812.5 1517.53 1794.03 1536 1771.25 1536C1748.47 1536 1730 1517.53 1730 1494.75C1730 1471.97 1748.47 1453.5 1771.25 1453.5C1794.03 1453.5 1812.5 1471.97 1812.5 1494.75ZM1774.9 1506.15C1775.88 1507.2 1777.15 1507.72 1778.5 1507.72C1779.7 1507.72 1780.83 1507.35 1781.8 1506.45L1797.1 1491.23C1799.42 1489.13 1799.42 1485.53 1797.1 1483.43L1781.8 1468.5C1779.78 1466.7 1776.7 1466.85 1774.9 1468.8C1773.1 1470.83 1773.18 1473.9 1775.2 1475.7L1781.8 1482.46C1780.62 1482.46 1779.98 1482.45 1779.49 1482.45C1778.62 1482.44 1778.22 1482.43 1776.13 1482.48C1761.01 1482.48 1748.75 1494.74 1748.75 1509.86V1512.48C1748.75 1515.17 1750.93 1517.35 1753.63 1517.35C1756.32 1517.35 1758.5 1515.17 1758.5 1512.48V1509.86C1758.5 1500.12 1766.39 1492.23 1776.13 1492.23H1781.83L1775.2 1499.25C1773.25 1501.05 1773.1 1504.12 1774.9 1506.15Z" fill="black"/>
<path d="M1721.37 1461C1725.89 1461 1728.51 1466.55 1726.36 1470.52C1722.46 1477.73 1720.25 1485.98 1720.25 1494.75C1720.25 1522.92 1743.08 1545.75 1771.25 1545.75C1775.16 1545.75 1778.97 1545.31 1782.63 1544.48C1786.24 1543.65 1790 1546.21 1790 1549.92V1558.5C1790 1570.93 1779.93 1581 1767.5 1581H1715C1702.57 1581 1692.5 1570.93 1692.5 1558.5V1483.5C1692.5 1471.07 1702.57 1461 1715 1461H1721.37Z" fill="black"/>
</g>
</g>
</g>
<g id="Regular-L">
<g id="Solid / Export Solid_6">
<g id="Shape_6">
<path fill-rule="evenodd" clip-rule="evenodd" d="M1516.5 1494.75C1516.5 1517.53 1498.03 1536 1475.25 1536C1452.47 1536 1434 1517.53 1434 1494.75C1434 1471.97 1452.47 1453.5 1475.25 1453.5C1498.03 1453.5 1516.5 1471.97 1516.5 1494.75ZM1478.9 1506.15C1479.88 1507.2 1481.15 1507.72 1482.5 1507.72C1483.7 1507.72 1484.83 1507.35 1485.8 1506.45L1501.1 1491.23C1503.42 1489.13 1503.42 1485.53 1501.1 1483.43L1485.8 1468.5C1483.78 1466.7 1480.7 1466.85 1478.9 1468.8C1477.1 1470.83 1477.18 1473.9 1479.2 1475.7L1485.8 1482.46C1484.62 1482.46 1483.98 1482.45 1483.49 1482.45C1482.62 1482.44 1482.22 1482.43 1480.13 1482.48C1465.01 1482.48 1452.75 1494.74 1452.75 1509.86V1512.48C1452.75 1515.17 1454.93 1517.35 1457.63 1517.35C1460.32 1517.35 1462.5 1515.17 1462.5 1512.48V1509.86C1462.5 1500.12 1470.39 1492.23 1480.13 1492.23H1485.83L1479.2 1499.25C1477.25 1501.05 1477.1 1504.12 1478.9 1506.15Z" fill="black"/>
<path d="M1425.37 1461C1429.89 1461 1432.51 1466.55 1430.36 1470.52C1426.46 1477.73 1424.25 1485.98 1424.25 1494.75C1424.25 1522.92 1447.08 1545.75 1475.25 1545.75C1479.16 1545.75 1482.97 1545.31 1486.63 1544.48C1490.24 1543.65 1494 1546.21 1494 1549.92V1558.5C1494 1570.93 1483.93 1581 1471.5 1581H1419C1406.57 1581 1396.5 1570.93 1396.5 1558.5V1483.5C1396.5 1471.07 1406.57 1461 1419 1461H1425.37Z" fill="black"/>
</g>
</g>
</g>
<g id="Light-L">
<g id="Solid / Export Solid_7">
<g id="Shape_7">
<path fill-rule="evenodd" clip-rule="evenodd" d="M1220.5 1494.75C1220.5 1517.53 1202.03 1536 1179.25 1536C1156.47 1536 1138 1517.53 1138 1494.75C1138 1471.97 1156.47 1453.5 1179.25 1453.5C1202.03 1453.5 1220.5 1471.97 1220.5 1494.75ZM1182.9 1506.15C1183.88 1507.2 1185.15 1507.72 1186.5 1507.72C1187.7 1507.72 1188.83 1507.35 1189.8 1506.45L1205.1 1491.23C1207.42 1489.13 1207.42 1485.53 1205.1 1483.43L1189.8 1468.5C1187.78 1466.7 1184.7 1466.85 1182.9 1468.8C1181.1 1470.83 1181.18 1473.9 1183.2 1475.7L1189.8 1482.46C1188.62 1482.46 1187.98 1482.45 1187.49 1482.45C1186.62 1482.44 1186.22 1482.43 1184.13 1482.48C1169.01 1482.48 1156.75 1494.74 1156.75 1509.86V1512.48C1156.75 1515.17 1158.93 1517.35 1161.63 1517.35C1164.32 1517.35 1166.5 1515.17 1166.5 1512.48V1509.86C1166.5 1500.12 1174.39 1492.23 1184.13 1492.23H1189.83L1183.2 1499.25C1181.25 1501.05 1181.1 1504.12 1182.9 1506.15Z" fill="black"/>
<path d="M1129.37 1461C1133.89 1461 1136.51 1466.55 1134.36 1470.52C1130.46 1477.73 1128.25 1485.98 1128.25 1494.75C1128.25 1522.92 1151.08 1545.75 1179.25 1545.75C1183.16 1545.75 1186.97 1545.31 1190.63 1544.48C1194.24 1543.65 1198 1546.21 1198 1549.92V1558.5C1198 1570.93 1187.93 1581 1175.5 1581H1123C1110.57 1581 1100.5 1570.93 1100.5 1558.5V1483.5C1100.5 1471.07 1110.57 1461 1123 1461H1129.37Z" fill="black"/>
</g>
</g>
</g>
<g id="Thin-L">
<g id="Solid / Export Solid_8">
<g id="Shape_8">
<path fill-rule="evenodd" clip-rule="evenodd" d="M924.5 1494.75C924.5 1517.53 906.032 1536 883.25 1536C860.468 1536 842 1517.53 842 1494.75C842 1471.97 860.468 1453.5 883.25 1453.5C906.032 1453.5 924.5 1471.97 924.5 1494.75ZM886.901 1506.15C887.876 1507.2 889.151 1507.72 890.501 1507.72C891.701 1507.72 892.826 1507.35 893.801 1506.45L909.097 1491.23C911.422 1489.13 911.422 1485.53 909.097 1483.43L893.801 1468.5C891.776 1466.7 888.701 1466.85 886.901 1468.8C885.102 1470.83 885.176 1473.9 887.201 1475.7L893.801 1482.46C892.622 1482.46 891.98 1482.45 891.49 1482.45C890.618 1482.44 890.222 1482.43 888.125 1482.48C873.006 1482.48 860.75 1494.74 860.75 1509.86V1512.48C860.75 1515.17 862.933 1517.35 865.625 1517.35C868.317 1517.35 870.5 1515.17 870.5 1512.48V1509.86C870.5 1500.12 878.391 1492.23 888.125 1492.23H893.831L887.201 1499.25C885.252 1501.05 885.102 1504.12 886.901 1506.15Z" fill="black"/>
<path d="M833.371 1461C837.894 1461 840.512 1466.55 838.36 1470.52C834.463 1477.73 832.25 1485.98 832.25 1494.75C832.25 1522.92 855.083 1545.75 883.25 1545.75C887.162 1545.75 890.971 1545.31 894.631 1544.48C898.243 1543.65 902 1546.21 902 1549.92V1558.5C902 1570.93 891.926 1581 879.5 1581H827C814.574 1581 804.5 1570.93 804.5 1558.5V1483.5C804.5 1471.07 814.574 1461 827 1461H833.371Z" fill="black"/>
</g>
</g>
</g>
<g id="Ultralight-L">
<g id="Solid / Export Solid_9">
<g id="Shape_9">
<path fill-rule="evenodd" clip-rule="evenodd" d="M628.5 1494.75C628.5 1517.53 610.032 1536 587.25 1536C564.468 1536 546 1517.53 546 1494.75C546 1471.97 564.468 1453.5 587.25 1453.5C610.032 1453.5 628.5 1471.97 628.5 1494.75ZM590.901 1506.15C591.876 1507.2 593.151 1507.72 594.501 1507.72C595.701 1507.72 596.826 1507.35 597.801 1506.45L613.097 1491.23C615.422 1489.13 615.422 1485.53 613.097 1483.43L597.801 1468.5C595.776 1466.7 592.701 1466.85 590.901 1468.8C589.102 1470.83 589.176 1473.9 591.201 1475.7L597.801 1482.46C596.622 1482.46 595.98 1482.45 595.49 1482.45C594.618 1482.44 594.222 1482.43 592.125 1482.48C577.006 1482.48 564.75 1494.74 564.75 1509.86V1512.48C564.75 1515.17 566.933 1517.35 569.625 1517.35C572.317 1517.35 574.5 1515.17 574.5 1512.48V1509.86C574.5 1500.12 582.391 1492.23 592.125 1492.23H597.831L591.201 1499.25C589.252 1501.05 589.102 1504.12 590.901 1506.15Z" fill="black"/>
<path d="M537.371 1461C541.894 1461 544.512 1466.55 542.36 1470.52C538.463 1477.73 536.25 1485.98 536.25 1494.75C536.25 1522.92 559.083 1545.75 587.25 1545.75C591.162 1545.75 594.971 1545.31 598.631 1544.48C602.243 1543.65 606 1546.21 606 1549.92V1558.5C606 1570.93 595.926 1581 583.5 1581H531C518.574 1581 508.5 1570.93 508.5 1558.5V1483.5C508.5 1471.07 518.574 1461 531 1461H537.371Z" fill="black"/>
</g>
</g>
</g>
<g id="Black-M">
<g id="Solid / Export Solid_10">
<g id="Shape_10">
<path fill-rule="evenodd" clip-rule="evenodd" d="M2981.5 1070.58C2981.5 1088.3 2967.14 1102.67 2949.42 1102.67C2931.7 1102.67 2917.33 1088.3 2917.33 1070.58C2917.33 1052.86 2931.7 1038.5 2949.42 1038.5C2967.14 1038.5 2981.5 1052.86 2981.5 1070.58ZM2952.26 1079.45C2953.02 1080.27 2954.01 1080.67 2955.06 1080.67C2955.99 1080.67 2956.87 1080.38 2957.62 1079.68L2969.52 1067.85C2971.33 1066.21 2971.33 1063.41 2969.52 1061.78L2957.62 1050.17C2956.05 1048.77 2953.66 1048.88 2952.26 1050.4C2950.86 1051.98 2950.92 1054.37 2952.49 1055.77L2957.62 1061.02C2956.71 1061.02 2956.21 1061.02 2955.83 1061.01C2955.15 1061.01 2954.84 1061 2953.21 1061.04C2941.45 1061.04 2931.92 1070.57 2931.92 1082.33V1084.37C2931.92 1086.47 2933.62 1088.16 2935.71 1088.16C2937.8 1088.16 2939.5 1086.47 2939.5 1084.37V1082.33C2939.5 1074.76 2945.64 1068.62 2953.21 1068.62H2957.65L2952.49 1074.08C2950.97 1075.48 2950.86 1077.87 2952.26 1079.45Z" fill="black"/>
<path d="M2910.62 1044.33C2914.14 1044.33 2916.18 1048.65 2914.5 1051.74C2911.47 1057.35 2909.75 1063.76 2909.75 1070.58C2909.75 1092.49 2927.51 1110.25 2949.42 1110.25C2952.46 1110.25 2955.42 1109.91 2958.27 1109.26C2961.08 1108.62 2964 1110.61 2964 1113.49V1120.17C2964 1129.83 2956.17 1137.67 2946.5 1137.67H2905.67C2896 1137.67 2888.17 1129.83 2888.17 1120.17V1061.83C2888.17 1052.17 2896 1044.33 2905.67 1044.33H2910.62Z" fill="black"/>
</g>
</g>
</g>
<g id="Heavy-M">
<g id="Solid / Export Solid_11">
<g id="Shape_11">
<path fill-rule="evenodd" clip-rule="evenodd" d="M2685.5 1070.58C2685.5 1088.3 2671.14 1102.67 2653.42 1102.67C2635.7 1102.67 2621.33 1088.3 2621.33 1070.58C2621.33 1052.86 2635.7 1038.5 2653.42 1038.5C2671.14 1038.5 2685.5 1052.86 2685.5 1070.58ZM2656.26 1079.45C2657.02 1080.27 2658.01 1080.67 2659.06 1080.67C2659.99 1080.67 2660.87 1080.38 2661.62 1079.68L2673.52 1067.85C2675.33 1066.21 2675.33 1063.41 2673.52 1061.78L2661.62 1050.17C2660.05 1048.77 2657.66 1048.88 2656.26 1050.4C2654.86 1051.98 2654.92 1054.37 2656.49 1055.77L2661.62 1061.02C2660.71 1061.02 2660.21 1061.02 2659.83 1061.01C2659.15 1061.01 2658.84 1061 2657.21 1061.04C2645.45 1061.04 2635.92 1070.57 2635.92 1082.33V1084.37C2635.92 1086.47 2637.62 1088.16 2639.71 1088.16C2641.8 1088.16 2643.5 1086.47 2643.5 1084.37V1082.33C2643.5 1074.76 2649.64 1068.62 2657.21 1068.62H2661.65L2656.49 1074.08C2654.97 1075.48 2654.86 1077.87 2656.26 1079.45Z" fill="black"/>
<path d="M2614.62 1044.33C2618.14 1044.33 2620.18 1048.65 2618.5 1051.74C2615.47 1057.35 2613.75 1063.76 2613.75 1070.58C2613.75 1092.49 2631.51 1110.25 2653.42 1110.25C2656.46 1110.25 2659.42 1109.91 2662.27 1109.26C2665.08 1108.62 2668 1110.61 2668 1113.49V1120.17C2668 1129.83 2660.17 1137.67 2650.5 1137.67H2609.67C2600 1137.67 2592.17 1129.83 2592.17 1120.17V1061.83C2592.17 1052.17 2600 1044.33 2609.67 1044.33H2614.62Z" fill="black"/>
</g>
</g>
</g>
<g id="Bold-M">
<g id="Solid / Export Solid_12">
<g id="Shape_12">
<path fill-rule="evenodd" clip-rule="evenodd" d="M2389.5 1070.58C2389.5 1088.3 2375.14 1102.67 2357.42 1102.67C2339.7 1102.67 2325.33 1088.3 2325.33 1070.58C2325.33 1052.86 2339.7 1038.5 2357.42 1038.5C2375.14 1038.5 2389.5 1052.86 2389.5 1070.58ZM2360.26 1079.45C2361.02 1080.27 2362.01 1080.67 2363.06 1080.67C2363.99 1080.67 2364.87 1080.38 2365.62 1079.68L2377.52 1067.85C2379.33 1066.21 2379.33 1063.41 2377.52 1061.78L2365.62 1050.17C2364.05 1048.77 2361.66 1048.88 2360.26 1050.4C2358.86 1051.98 2358.92 1054.37 2360.49 1055.77L2365.62 1061.02C2364.71 1061.02 2364.21 1061.02 2363.83 1061.01C2363.15 1061.01 2362.84 1061 2361.21 1061.04C2349.45 1061.04 2339.92 1070.57 2339.92 1082.33V1084.37C2339.92 1086.47 2341.62 1088.16 2343.71 1088.16C2345.8 1088.16 2347.5 1086.47 2347.5 1084.37V1082.33C2347.5 1074.76 2353.64 1068.62 2361.21 1068.62H2365.65L2360.49 1074.08C2358.97 1075.48 2358.86 1077.87 2360.26 1079.45Z" fill="black"/>
<path d="M2318.62 1044.33C2322.14 1044.33 2324.18 1048.65 2322.5 1051.74C2319.47 1057.35 2317.75 1063.76 2317.75 1070.58C2317.75 1092.49 2335.51 1110.25 2357.42 1110.25C2360.46 1110.25 2363.42 1109.91 2366.27 1109.26C2369.08 1108.62 2372 1110.61 2372 1113.49V1120.17C2372 1129.83 2364.17 1137.67 2354.5 1137.67H2313.67C2304 1137.67 2296.17 1129.83 2296.17 1120.17V1061.83C2296.17 1052.17 2304 1044.33 2313.67 1044.33H2318.62Z" fill="black"/>
</g>
</g>
</g>
<g id="Semibold-M">
<g id="Solid / Export Solid_13">
<g id="Shape_13">
<path fill-rule="evenodd" clip-rule="evenodd" d="M2093.5 1070.58C2093.5 1088.3 2079.14 1102.67 2061.42 1102.67C2043.7 1102.67 2029.33 1088.3 2029.33 1070.58C2029.33 1052.86 2043.7 1038.5 2061.42 1038.5C2079.14 1038.5 2093.5 1052.86 2093.5 1070.58ZM2064.26 1079.45C2065.02 1080.27 2066.01 1080.67 2067.06 1080.67C2067.99 1080.67 2068.87 1080.38 2069.62 1079.68L2081.52 1067.85C2083.33 1066.21 2083.33 1063.41 2081.52 1061.78L2069.62 1050.17C2068.05 1048.77 2065.66 1048.88 2064.26 1050.4C2062.86 1051.98 2062.92 1054.37 2064.49 1055.77L2069.62 1061.02C2068.71 1061.02 2068.21 1061.02 2067.83 1061.01C2067.15 1061.01 2066.84 1061 2065.21 1061.04C2053.45 1061.04 2043.92 1070.57 2043.92 1082.33V1084.37C2043.92 1086.47 2045.62 1088.16 2047.71 1088.16C2049.8 1088.16 2051.5 1086.47 2051.5 1084.37V1082.33C2051.5 1074.76 2057.64 1068.62 2065.21 1068.62H2069.65L2064.49 1074.08C2062.97 1075.48 2062.86 1077.87 2064.26 1079.45Z" fill="black"/>
<path d="M2022.62 1044.33C2026.14 1044.33 2028.18 1048.65 2026.5 1051.74C2023.47 1057.35 2021.75 1063.76 2021.75 1070.58C2021.75 1092.49 2039.51 1110.25 2061.42 1110.25C2064.46 1110.25 2067.42 1109.91 2070.27 1109.26C2073.08 1108.62 2076 1110.61 2076 1113.49V1120.17C2076 1129.83 2068.17 1137.67 2058.5 1137.67H2017.67C2008 1137.67 2000.17 1129.83 2000.17 1120.17V1061.83C2000.17 1052.17 2008 1044.33 2017.67 1044.33H2022.62Z" fill="black"/>
</g>
</g>
</g>
<g id="Medium-M">
<g id="Solid / Export Solid_14">
<g id="Shape_14">
<path fill-rule="evenodd" clip-rule="evenodd" d="M1797.5 1070.58C1797.5 1088.3 1783.14 1102.67 1765.42 1102.67C1747.7 1102.67 1733.33 1088.3 1733.33 1070.58C1733.33 1052.86 1747.7 1038.5 1765.42 1038.5C1783.14 1038.5 1797.5 1052.86 1797.5 1070.58ZM1768.26 1079.45C1769.02 1080.27 1770.01 1080.67 1771.06 1080.67C1771.99 1080.67 1772.87 1080.38 1773.62 1079.68L1785.52 1067.85C1787.33 1066.21 1787.33 1063.41 1785.52 1061.78L1773.62 1050.17C1772.05 1048.77 1769.66 1048.88 1768.26 1050.4C1766.86 1051.98 1766.92 1054.37 1768.49 1055.77L1773.62 1061.02C1772.71 1061.02 1772.21 1061.02 1771.83 1061.01C1771.15 1061.01 1770.84 1061 1769.21 1061.04C1757.45 1061.04 1747.92 1070.57 1747.92 1082.33V1084.37C1747.92 1086.47 1749.62 1088.16 1751.71 1088.16C1753.8 1088.16 1755.5 1086.47 1755.5 1084.37V1082.33C1755.5 1074.76 1761.64 1068.62 1769.21 1068.62H1773.65L1768.49 1074.08C1766.97 1075.48 1766.86 1077.87 1768.26 1079.45Z" fill="black"/>
<path d="M1726.62 1044.33C1730.14 1044.33 1732.18 1048.65 1730.5 1051.74C1727.47 1057.35 1725.75 1063.76 1725.75 1070.58C1725.75 1092.49 1743.51 1110.25 1765.42 1110.25C1768.46 1110.25 1771.42 1109.91 1774.27 1109.26C1777.08 1108.62 1780 1110.61 1780 1113.49V1120.17C1780 1129.83 1772.17 1137.67 1762.5 1137.67H1721.67C1712 1137.67 1704.17 1129.83 1704.17 1120.17V1061.83C1704.17 1052.17 1712 1044.33 1721.67 1044.33H1726.62Z" fill="black"/>
</g>
</g>
</g>
<g id="Regular-M">
<g id="Solid / Export Solid_15">
<g id="Shape_15">
<path fill-rule="evenodd" clip-rule="evenodd" d="M1501.5 1070.58C1501.5 1088.3 1487.14 1102.67 1469.42 1102.67C1451.7 1102.67 1437.33 1088.3 1437.33 1070.58C1437.33 1052.86 1451.7 1038.5 1469.42 1038.5C1487.14 1038.5 1501.5 1052.86 1501.5 1070.58ZM1472.26 1079.45C1473.02 1080.27 1474.01 1080.67 1475.06 1080.67C1475.99 1080.67 1476.87 1080.38 1477.62 1079.68L1489.52 1067.85C1491.33 1066.21 1491.33 1063.41 1489.52 1061.78L1477.62 1050.17C1476.05 1048.77 1473.66 1048.88 1472.26 1050.4C1470.86 1051.98 1470.92 1054.37 1472.49 1055.77L1477.62 1061.02C1476.71 1061.02 1476.21 1061.02 1475.83 1061.01C1475.15 1061.01 1474.84 1061 1473.21 1061.04C1461.45 1061.04 1451.92 1070.57 1451.92 1082.33V1084.37C1451.92 1086.47 1453.62 1088.16 1455.71 1088.16C1457.8 1088.16 1459.5 1086.47 1459.5 1084.37V1082.33C1459.5 1074.76 1465.64 1068.62 1473.21 1068.62H1477.65L1472.49 1074.08C1470.97 1075.48 1470.86 1077.87 1472.26 1079.45Z" fill="black"/>
<path d="M1430.62 1044.33C1434.14 1044.33 1436.18 1048.65 1434.5 1051.74C1431.47 1057.35 1429.75 1063.76 1429.75 1070.58C1429.75 1092.49 1447.51 1110.25 1469.42 1110.25C1472.46 1110.25 1475.42 1109.91 1478.27 1109.26C1481.08 1108.62 1484 1110.61 1484 1113.49V1120.17C1484 1129.83 1476.17 1137.67 1466.5 1137.67H1425.67C1416 1137.67 1408.17 1129.83 1408.17 1120.17V1061.83C1408.17 1052.17 1416 1044.33 1425.67 1044.33H1430.62Z" fill="black"/>
</g>
</g>
</g>
<g id="Light-M">
<g id="Solid / Export Solid_16">
<g id="Shape_16">
<path fill-rule="evenodd" clip-rule="evenodd" d="M1205.5 1070.58C1205.5 1088.3 1191.14 1102.67 1173.42 1102.67C1155.7 1102.67 1141.33 1088.3 1141.33 1070.58C1141.33 1052.86 1155.7 1038.5 1173.42 1038.5C1191.14 1038.5 1205.5 1052.86 1205.5 1070.58ZM1176.26 1079.45C1177.02 1080.27 1178.01 1080.67 1179.06 1080.67C1179.99 1080.67 1180.87 1080.38 1181.62 1079.68L1193.52 1067.85C1195.33 1066.21 1195.33 1063.41 1193.52 1061.78L1181.62 1050.17C1180.05 1048.77 1177.66 1048.88 1176.26 1050.4C1174.86 1051.98 1174.92 1054.37 1176.49 1055.77L1181.62 1061.02C1180.71 1061.02 1180.21 1061.02 1179.83 1061.01C1179.15 1061.01 1178.84 1061 1177.21 1061.04C1165.45 1061.04 1155.92 1070.57 1155.92 1082.33V1084.37C1155.92 1086.47 1157.62 1088.16 1159.71 1088.16C1161.8 1088.16 1163.5 1086.47 1163.5 1084.37V1082.33C1163.5 1074.76 1169.64 1068.62 1177.21 1068.62H1181.65L1176.49 1074.08C1174.97 1075.48 1174.86 1077.87 1176.26 1079.45Z" fill="black"/>
<path d="M1134.62 1044.33C1138.14 1044.33 1140.18 1048.65 1138.5 1051.74C1135.47 1057.35 1133.75 1063.76 1133.75 1070.58C1133.75 1092.49 1151.51 1110.25 1173.42 1110.25C1176.46 1110.25 1179.42 1109.91 1182.27 1109.26C1185.08 1108.62 1188 1110.61 1188 1113.49V1120.17C1188 1129.83 1180.17 1137.67 1170.5 1137.67H1129.67C1120 1137.67 1112.17 1129.83 1112.17 1120.17V1061.83C1112.17 1052.17 1120 1044.33 1129.67 1044.33H1134.62Z" fill="black"/>
</g>
</g>
</g>
<g id="Thin-M">
<g id="Solid / Export Solid_17">
<g id="Shape_17">
<path fill-rule="evenodd" clip-rule="evenodd" d="M909.501 1070.58C909.501 1088.3 895.137 1102.67 877.418 1102.67C859.699 1102.67 845.335 1088.3 845.335 1070.58C845.335 1052.86 859.699 1038.5 877.418 1038.5C895.137 1038.5 909.501 1052.86 909.501 1070.58ZM880.258 1079.45C881.016 1080.27 882.008 1080.67 883.058 1080.67C883.991 1080.67 884.866 1080.38 885.625 1079.68L897.521 1067.85C899.33 1066.21 899.33 1063.41 897.521 1061.78L885.625 1050.17C884.05 1048.77 881.658 1048.88 880.258 1050.4C878.858 1051.98 878.916 1054.37 880.491 1055.77L885.625 1061.02C884.707 1061.02 884.208 1061.02 883.827 1061.01C883.148 1061.01 882.841 1061 881.21 1061.04C869.451 1061.04 859.918 1070.57 859.918 1082.33V1084.37C859.918 1086.47 861.616 1088.16 863.71 1088.16C865.804 1088.16 867.501 1086.47 867.501 1084.37V1082.33C867.501 1074.76 873.639 1068.62 881.21 1068.62H885.647L880.491 1074.08C878.975 1075.48 878.858 1077.87 880.258 1079.45Z" fill="black"/>
<path d="M838.623 1044.33C842.141 1044.33 844.177 1048.65 842.504 1051.74C839.472 1057.35 837.751 1063.76 837.751 1070.58C837.751 1092.49 855.511 1110.25 877.418 1110.25C880.461 1110.25 883.423 1109.91 886.27 1109.26C889.08 1108.62 892.001 1110.61 892.001 1113.49V1120.17C892.001 1129.83 884.166 1137.67 874.501 1137.67H833.668C824.003 1137.67 816.168 1129.83 816.168 1120.17V1061.83C816.168 1052.17 824.003 1044.33 833.668 1044.33H838.623Z" fill="black"/>
</g>
</g>
</g>
<g id="Ultralight-M">
<g id="Solid / Export Solid_18">
<g id="Shape_18">
<path fill-rule="evenodd" clip-rule="evenodd" d="M613.501 1070.58C613.501 1088.3 599.137 1102.67 581.418 1102.67C563.699 1102.67 549.335 1088.3 549.335 1070.58C549.335 1052.86 563.699 1038.5 581.418 1038.5C599.137 1038.5 613.501 1052.86 613.501 1070.58ZM584.258 1079.45C585.016 1080.27 586.008 1080.67 587.058 1080.67C587.991 1080.67 588.866 1080.38 589.625 1079.68L601.521 1067.85C603.33 1066.21 603.33 1063.41 601.521 1061.78L589.625 1050.17C588.05 1048.77 585.658 1048.88 584.258 1050.4C582.858 1051.98 582.916 1054.37 584.491 1055.77L589.625 1061.02C588.707 1061.02 588.208 1061.02 587.827 1061.01C587.148 1061.01 586.841 1061 585.21 1061.04C573.451 1061.04 563.918 1070.57 563.918 1082.33V1084.37C563.918 1086.47 565.616 1088.16 567.71 1088.16C569.804 1088.16 571.501 1086.47 571.501 1084.37V1082.33C571.501 1074.76 577.639 1068.62 585.21 1068.62H589.647L584.491 1074.08C582.975 1075.48 582.858 1077.87 584.258 1079.45Z" fill="black"/>
<path d="M542.623 1044.33C546.141 1044.33 548.177 1048.65 546.504 1051.74C543.472 1057.35 541.751 1063.76 541.751 1070.58C541.751 1092.49 559.511 1110.25 581.418 1110.25C584.461 1110.25 587.423 1109.91 590.27 1109.26C593.08 1108.62 596.001 1110.61 596.001 1113.49V1120.17C596.001 1129.83 588.166 1137.67 578.501 1137.67H537.668C528.003 1137.67 520.168 1129.83 520.168 1120.17V1061.83C520.168 1052.17 528.003 1044.33 537.668 1044.33H542.623Z" fill="black"/>
</g>
</g>
</g>
<g id="Black-S">
<g id="Solid / Export Solid_19">
<g id="Shape_19">
<path fill-rule="evenodd" clip-rule="evenodd" d="M2966.5 646.417C2966.5 659.073 2956.24 669.333 2943.58 669.333C2930.93 669.333 2920.67 659.073 2920.67 646.417C2920.67 633.76 2930.93 623.5 2943.58 623.5C2956.24 623.5 2966.5 633.76 2966.5 646.417ZM2945.61 652.749C2946.15 653.333 2946.86 653.624 2947.61 653.624C2948.28 653.624 2948.9 653.416 2949.44 652.916L2957.94 644.463C2959.23 643.296 2959.23 641.296 2957.94 640.13L2949.44 631.833C2948.32 630.833 2946.61 630.917 2945.61 632C2944.61 633.125 2944.65 634.833 2945.78 635.833L2949.44 639.588C2948.79 639.588 2948.43 639.584 2948.16 639.581C2947.68 639.576 2947.46 639.574 2946.29 639.601C2937.89 639.601 2931.08 646.41 2931.08 654.809V656.266C2931.08 657.762 2932.29 658.975 2933.79 658.975C2935.29 658.975 2936.5 657.762 2936.5 656.266V654.809C2936.5 649.401 2940.88 645.017 2946.29 645.017H2949.46L2945.78 648.916C2944.69 649.916 2944.61 651.624 2945.61 652.749Z" fill="black"/>
<path d="M2915.87 627.667C2918.38 627.667 2919.84 630.748 2918.64 632.957C2916.48 636.961 2915.25 641.545 2915.25 646.417C2915.25 662.065 2927.93 674.75 2943.58 674.75C2945.76 674.75 2947.87 674.505 2949.9 674.042C2951.91 673.584 2954 675.005 2954 677.064V681.833C2954 688.737 2948.4 694.333 2941.5 694.333H2912.33C2905.43 694.333 2899.83 688.737 2899.83 681.833V640.167C2899.83 633.263 2905.43 627.667 2912.33 627.667H2915.87Z" fill="black"/>
</g>
</g>
</g>
<g id="Heavy-S">
<g id="Solid / Export Solid_20">
<g id="Shape_20">
<path fill-rule="evenodd" clip-rule="evenodd" d="M2670.5 646.417C2670.5 659.073 2660.24 669.333 2647.58 669.333C2634.93 669.333 2624.67 659.073 2624.67 646.417C2624.67 633.76 2634.93 623.5 2647.58 623.5C2660.24 623.5 2670.5 633.76 2670.5 646.417ZM2649.61 652.749C2650.15 653.333 2650.86 653.624 2651.61 653.624C2652.28 653.624 2652.9 653.416 2653.44 652.916L2661.94 644.463C2663.23 643.296 2663.23 641.296 2661.94 640.13L2653.44 631.833C2652.32 630.833 2650.61 630.917 2649.61 632C2648.61 633.125 2648.65 634.833 2649.78 635.833L2653.44 639.588C2652.79 639.588 2652.43 639.584 2652.16 639.581C2651.68 639.576 2651.46 639.574 2650.29 639.601C2641.89 639.601 2635.08 646.41 2635.08 654.809V656.266C2635.08 657.762 2636.29 658.975 2637.79 658.975C2639.29 658.975 2640.5 657.762 2640.5 656.266V654.809C2640.5 649.401 2644.88 645.017 2650.29 645.017H2653.46L2649.78 648.916C2648.69 649.916 2648.61 651.624 2649.61 652.749Z" fill="black"/>
<path d="M2619.87 627.667C2622.38 627.667 2623.84 630.748 2622.64 632.957C2620.48 636.961 2619.25 641.545 2619.25 646.417C2619.25 662.065 2631.93 674.75 2647.58 674.75C2649.76 674.75 2651.87 674.505 2653.9 674.042C2655.91 673.584 2658 675.005 2658 677.064V681.833C2658 688.737 2652.4 694.333 2645.5 694.333H2616.33C2609.43 694.333 2603.83 688.737 2603.83 681.833V640.167C2603.83 633.263 2609.43 627.667 2616.33 627.667H2619.87Z" fill="black"/>
</g>
</g>
</g>
<g id="Bold-S">
<g id="Solid / Export Solid_21">
<g id="Shape_21">
<path fill-rule="evenodd" clip-rule="evenodd" d="M2374.5 646.417C2374.5 659.073 2364.24 669.333 2351.58 669.333C2338.93 669.333 2328.67 659.073 2328.67 646.417C2328.67 633.76 2338.93 623.5 2351.58 623.5C2364.24 623.5 2374.5 633.76 2374.5 646.417ZM2353.61 652.749C2354.15 653.333 2354.86 653.624 2355.61 653.624C2356.28 653.624 2356.9 653.416 2357.44 652.916L2365.94 644.463C2367.23 643.296 2367.23 641.296 2365.94 640.13L2357.44 631.833C2356.32 630.833 2354.61 630.917 2353.61 632C2352.61 633.125 2352.65 634.833 2353.78 635.833L2357.44 639.588C2356.79 639.588 2356.43 639.584 2356.16 639.581C2355.68 639.576 2355.46 639.574 2354.29 639.601C2345.89 639.601 2339.08 646.41 2339.08 654.809V656.266C2339.08 657.762 2340.29 658.975 2341.79 658.975C2343.29 658.975 2344.5 657.762 2344.5 656.266V654.809C2344.5 649.401 2348.88 645.017 2354.29 645.017H2357.46L2353.78 648.916C2352.69 649.916 2352.61 651.624 2353.61 652.749Z" fill="black"/>
<path d="M2323.87 627.667C2326.38 627.667 2327.84 630.748 2326.64 632.957C2324.48 636.961 2323.25 641.545 2323.25 646.417C2323.25 662.065 2335.93 674.75 2351.58 674.75C2353.76 674.75 2355.87 674.505 2357.9 674.042C2359.91 673.584 2362 675.005 2362 677.064V681.833C2362 688.737 2356.4 694.333 2349.5 694.333H2320.33C2313.43 694.333 2307.83 688.737 2307.83 681.833V640.167C2307.83 633.263 2313.43 627.667 2320.33 627.667H2323.87Z" fill="black"/>
</g>
</g>
</g>
<g id="Semibold-S">
<g id="Solid / Export Solid_22">
<g id="Shape_22">
<path fill-rule="evenodd" clip-rule="evenodd" d="M2078.5 646.417C2078.5 659.073 2068.24 669.333 2055.58 669.333C2042.93 669.333 2032.67 659.073 2032.67 646.417C2032.67 633.76 2042.93 623.5 2055.58 623.5C2068.24 623.5 2078.5 633.76 2078.5 646.417ZM2057.61 652.749C2058.15 653.333 2058.86 653.624 2059.61 653.624C2060.28 653.624 2060.9 653.416 2061.44 652.916L2069.94 644.463C2071.23 643.296 2071.23 641.296 2069.94 640.13L2061.44 631.833C2060.32 630.833 2058.61 630.917 2057.61 632C2056.61 633.125 2056.65 634.833 2057.78 635.833L2061.44 639.588C2060.79 639.588 2060.43 639.584 2060.16 639.581C2059.68 639.576 2059.46 639.574 2058.29 639.601C2049.89 639.601 2043.08 646.41 2043.08 654.809V656.266C2043.08 657.762 2044.29 658.975 2045.79 658.975C2047.29 658.975 2048.5 657.762 2048.5 656.266V654.809C2048.5 649.401 2052.88 645.017 2058.29 645.017H2061.46L2057.78 648.916C2056.69 649.916 2056.61 651.624 2057.61 652.749Z" fill="black"/>
<path d="M2027.87 627.667C2030.38 627.667 2031.84 630.748 2030.64 632.957C2028.48 636.961 2027.25 641.545 2027.25 646.417C2027.25 662.065 2039.93 674.75 2055.58 674.75C2057.76 674.75 2059.87 674.505 2061.9 674.042C2063.91 673.584 2066 675.005 2066 677.064V681.833C2066 688.737 2060.4 694.333 2053.5 694.333H2024.33C2017.43 694.333 2011.83 688.737 2011.83 681.833V640.167C2011.83 633.263 2017.43 627.667 2024.33 627.667H2027.87Z" fill="black"/>
</g>
</g>
</g>
<g id="Medium-S">
<g id="Solid / Export Solid_23">
<g id="Shape_23">
<path fill-rule="evenodd" clip-rule="evenodd" d="M1782.5 646.417C1782.5 659.073 1772.24 669.333 1759.58 669.333C1746.93 669.333 1736.67 659.073 1736.67 646.417C1736.67 633.76 1746.93 623.5 1759.58 623.5C1772.24 623.5 1782.5 633.76 1782.5 646.417ZM1761.61 652.749C1762.15 653.333 1762.86 653.624 1763.61 653.624C1764.28 653.624 1764.9 653.416 1765.44 652.916L1773.94 644.463C1775.23 643.296 1775.23 641.296 1773.94 640.13L1765.44 631.833C1764.32 630.833 1762.61 630.917 1761.61 632C1760.61 633.125 1760.65 634.833 1761.78 635.833L1765.44 639.588C1764.79 639.588 1764.43 639.584 1764.16 639.581C1763.68 639.576 1763.46 639.574 1762.29 639.601C1753.89 639.601 1747.08 646.41 1747.08 654.809V656.266C1747.08 657.762 1748.29 658.975 1749.79 658.975C1751.29 658.975 1752.5 657.762 1752.5 656.266V654.809C1752.5 649.401 1756.88 645.017 1762.29 645.017H1765.46L1761.78 648.916C1760.69 649.916 1760.61 651.624 1761.61 652.749Z" fill="black"/>
<path d="M1731.87 627.667C1734.38 627.667 1735.84 630.748 1734.64 632.957C1732.48 636.961 1731.25 641.545 1731.25 646.417C1731.25 662.065 1743.93 674.75 1759.58 674.75C1761.76 674.75 1763.87 674.505 1765.9 674.042C1767.91 673.584 1770 675.005 1770 677.064V681.833C1770 688.737 1764.4 694.333 1757.5 694.333H1728.33C1721.43 694.333 1715.83 688.737 1715.83 681.833V640.167C1715.83 633.263 1721.43 627.667 1728.33 627.667H1731.87Z" fill="black"/>
</g>
</g>
</g>
<g id="Regular-S">
<g id="Solid / Export Solid_24">
<g id="Shape_24">
<path fill-rule="evenodd" clip-rule="evenodd" d="M1486.5 646.417C1486.5 659.073 1476.24 669.333 1463.58 669.333C1450.93 669.333 1440.67 659.073 1440.67 646.417C1440.67 633.76 1450.93 623.5 1463.58 623.5C1476.24 623.5 1486.5 633.76 1486.5 646.417ZM1465.61 652.749C1466.15 653.333 1466.86 653.624 1467.61 653.624C1468.28 653.624 1468.9 653.416 1469.44 652.916L1477.94 644.463C1479.23 643.296 1479.23 641.296 1477.94 640.13L1469.44 631.833C1468.32 630.833 1466.61 630.917 1465.61 632C1464.61 633.125 1464.65 634.833 1465.78 635.833L1469.44 639.588C1468.79 639.588 1468.43 639.584 1468.16 639.581C1467.68 639.576 1467.46 639.574 1466.29 639.601C1457.89 639.601 1451.08 646.41 1451.08 654.809V656.266C1451.08 657.762 1452.29 658.975 1453.79 658.975C1455.29 658.975 1456.5 657.762 1456.5 656.266V654.809C1456.5 649.401 1460.88 645.017 1466.29 645.017H1469.46L1465.78 648.916C1464.69 649.916 1464.61 651.624 1465.61 652.749Z" fill="black"/>
<path d="M1435.87 627.667C1438.38 627.667 1439.84 630.748 1438.64 632.957C1436.48 636.961 1435.25 641.545 1435.25 646.417C1435.25 662.065 1447.93 674.75 1463.58 674.75C1465.76 674.75 1467.87 674.505 1469.9 674.042C1471.91 673.584 1474 675.005 1474 677.064V681.833C1474 688.737 1468.4 694.333 1461.5 694.333H1432.33C1425.43 694.333 1419.83 688.737 1419.83 681.833V640.167C1419.83 633.263 1425.43 627.667 1432.33 627.667H1435.87Z" fill="black"/>
</g>
</g>
</g>
<g id="Light-S">
<g id="Solid / Export Solid_25">
<g id="Shape_25">
<path fill-rule="evenodd" clip-rule="evenodd" d="M1190.5 646.417C1190.5 659.073 1180.24 669.333 1167.58 669.333C1154.93 669.333 1144.67 659.073 1144.67 646.417C1144.67 633.76 1154.93 623.5 1167.58 623.5C1180.24 623.5 1190.5 633.76 1190.5 646.417ZM1169.61 652.749C1170.15 653.333 1170.86 653.624 1171.61 653.624C1172.28 653.624 1172.9 653.416 1173.44 652.916L1181.94 644.463C1183.23 643.296 1183.23 641.296 1181.94 640.13L1173.44 631.833C1172.32 630.833 1170.61 630.917 1169.61 632C1168.61 633.125 1168.65 634.833 1169.78 635.833L1173.44 639.588C1172.79 639.588 1172.43 639.584 1172.16 639.581C1171.68 639.576 1171.46 639.574 1170.29 639.601C1161.89 639.601 1155.08 646.41 1155.08 654.809V656.266C1155.08 657.762 1156.29 658.975 1157.79 658.975C1159.29 658.975 1160.5 657.762 1160.5 656.266V654.809C1160.5 649.401 1164.88 645.017 1170.29 645.017H1173.46L1169.78 648.916C1168.69 649.916 1168.61 651.624 1169.61 652.749Z" fill="black"/>
<path d="M1139.87 627.667C1142.38 627.667 1143.84 630.748 1142.64 632.957C1140.48 636.961 1139.25 641.545 1139.25 646.417C1139.25 662.065 1151.93 674.75 1167.58 674.75C1169.76 674.75 1171.87 674.505 1173.9 674.042C1175.91 673.584 1178 675.005 1178 677.064V681.833C1178 688.737 1172.4 694.333 1165.5 694.333H1136.33C1129.43 694.333 1123.83 688.737 1123.83 681.833V640.167C1123.83 633.263 1129.43 627.667 1136.33 627.667H1139.87Z" fill="black"/>
</g>
</g>
</g>
<g id="Thin-S">
<g id="Solid / Export Solid_26">
<g id="Shape_26">
<path fill-rule="evenodd" clip-rule="evenodd" d="M894.499 646.417C894.499 659.073 884.239 669.333 871.582 669.333C858.926 669.333 848.665 659.073 848.665 646.417C848.665 633.76 858.926 623.5 871.582 623.5C884.239 623.5 894.499 633.76 894.499 646.417ZM873.611 652.749C874.152 653.333 874.861 653.624 875.611 653.624C876.277 653.624 876.902 653.416 877.444 652.916L885.942 644.463C887.233 643.296 887.233 641.296 885.942 640.13L877.444 631.833C876.319 630.833 874.611 630.917 873.611 632C872.611 633.125 872.652 634.833 873.777 635.833L877.444 639.588C876.789 639.588 876.432 639.584 876.16 639.581C875.675 639.576 875.456 639.574 874.29 639.601C865.891 639.601 859.082 646.41 859.082 654.809V656.266C859.082 657.762 860.295 658.975 861.79 658.975C863.286 658.975 864.499 657.762 864.499 656.266V654.809C864.499 649.401 868.883 645.017 874.29 645.017H877.46L873.777 648.916C872.694 649.916 872.611 651.624 873.611 652.749Z" fill="black"/>
<path d="M843.872 627.667C846.384 627.667 847.839 630.748 846.643 632.957C844.478 636.961 843.249 641.545 843.249 646.417C843.249 662.065 855.934 674.75 871.582 674.75C873.755 674.75 875.872 674.505 877.905 674.042C879.912 673.584 881.999 675.005 881.999 677.064V681.833C881.999 688.737 876.402 694.333 869.499 694.333H840.332C833.428 694.333 827.832 688.737 827.832 681.833V640.167C827.832 633.263 833.428 627.667 840.332 627.667H843.872Z" fill="black"/>
</g>
</g>
</g>
<g id="Ultralight-S">
<g id="Solid / Export Solid_27">
<g id="Shape_27">
<path fill-rule="evenodd" clip-rule="evenodd" d="M598.499 646.417C598.499 659.073 588.239 669.333 575.582 669.333C562.926 669.333 552.665 659.073 552.665 646.417C552.665 633.76 562.926 623.5 575.582 623.5C588.239 623.5 598.499 633.76 598.499 646.417ZM577.611 652.749C578.152 653.333 578.861 653.624 579.611 653.624C580.277 653.624 580.902 653.416 581.444 652.916L589.942 644.463C591.233 643.296 591.233 641.296 589.942 640.13L581.444 631.833C580.319 630.833 578.611 630.917 577.611 632C576.611 633.125 576.652 634.833 577.777 635.833L581.444 639.588C580.789 639.588 580.432 639.584 580.16 639.581C579.675 639.576 579.456 639.574 578.29 639.601C569.891 639.601 563.082 646.41 563.082 654.809V656.266C563.082 657.762 564.295 658.975 565.79 658.975C567.286 658.975 568.499 657.762 568.499 656.266V654.809C568.499 649.401 572.883 645.017 578.29 645.017H581.46L577.777 648.916C576.694 649.916 576.611 651.624 577.611 652.749Z" fill="black"/>
<path d="M547.872 627.667C550.384 627.667 551.839 630.748 550.643 632.957C548.478 636.961 547.249 641.545 547.249 646.417C547.249 662.065 559.934 674.75 575.582 674.75C577.755 674.75 579.872 674.505 581.905 674.042C583.912 673.584 585.999 675.005 585.999 677.064V681.833C585.999 688.737 580.402 694.333 573.499 694.333H544.332C537.428 694.333 531.832 688.737 531.832 681.833V640.167C531.832 633.263 537.428 627.667 544.332 627.667H547.872Z" fill="black"/>
</g>
</g>
</g>
</g>
</g>
<defs>
<clipPath id="clip0_805_27002">
<rect width="3300" height="2200" fill="white"/>
</clipPath>
</defs>
</svg>
