<svg width="3300" height="2200" viewBox="0 0 3300 2200" fill="none" xmlns="http://www.w3.org/2000/svg">
<rect width="3300" height="2200" fill="#E5E5E5"/>
<g id="Security / Solid / Unlock" clip-path="url(#clip0_0_1)">
<g id="Notes">
<path id="artboard" d="M3300 0H0V2200H3300V0Z" fill="white"/>
<path id="Vector" d="M263 292H3036" stroke="black" stroke-width="0.5"/>
<text id="Weight/Scale Variations" fill="black" xml:space="preserve" style="white-space: pre" font-family="Roboto" font-size="12" letter-spacing="0em"><tspan x="263" y="321.102">Weight/Scale Variations</tspan></text>
<text id="Ultralight" fill="black" xml:space="preserve" style="white-space: pre" font-family="Roboto" font-size="12" letter-spacing="0em"><tspan x="535.211" y="321.102">Ultralight</tspan></text>
<text id="Thin" fill="black" xml:space="preserve" style="white-space: pre" font-family="Roboto" font-size="12" letter-spacing="0em"><tspan x="844.422" y="321.102">Thin</tspan></text>
<text id="Light" fill="black" xml:space="preserve" style="white-space: pre" font-family="Roboto" font-size="12" letter-spacing="0em"><tspan x="1139.63" y="321.102">Light</tspan></text>
<text id="Regular" fill="black" xml:space="preserve" style="white-space: pre" font-family="Roboto" font-size="12" letter-spacing="0em"><tspan x="1429.34" y="321.102">Regular</tspan></text>
<text id="Medium" fill="black" xml:space="preserve" style="white-space: pre" font-family="Roboto" font-size="12" letter-spacing="0em"><tspan x="1724.56" y="321.102">Medium</tspan></text>
<text id="Semibold" fill="black" xml:space="preserve" style="white-space: pre" font-family="Roboto" font-size="12" letter-spacing="0em"><tspan x="2017.77" y="321.102">Semibold</tspan></text>
<text id="Bold" fill="black" xml:space="preserve" style="white-space: pre" font-family="Roboto" font-size="12" letter-spacing="0em"><tspan x="2327.48" y="321.102">Bold</tspan></text>
<text id="Heavy" fill="black" xml:space="preserve" style="white-space: pre" font-family="Roboto" font-size="12" letter-spacing="0em"><tspan x="2620.19" y="321.102">Heavy</tspan></text>
<text id="Black" fill="black" xml:space="preserve" style="white-space: pre" font-family="Roboto" font-size="12" letter-spacing="0em"><tspan x="2918.4" y="321.102">Black</tspan></text>
<path id="Vector_2" d="M263 1903H3036" stroke="black" stroke-width="0.5"/>
<g id="Group">
<path id="Vector_3" d="M272.248 1933.83C276.555 1933.83 280.139 1930.26 280.139 1925.95C280.139 1921.64 276.545 1918.07 272.238 1918.07C267.941 1918.07 264.367 1921.64 264.367 1925.95C264.367 1930.26 267.951 1933.83 272.248 1933.83ZM272.248 1932.35C268.703 1932.35 265.871 1929.5 265.871 1925.95C265.871 1922.39 268.693 1919.55 272.238 1919.55C275.793 1919.55 278.635 1922.39 278.644 1925.95C278.654 1929.5 275.803 1932.35 272.248 1932.35ZM272.229 1929.57C272.697 1929.57 272.971 1929.26 272.971 1928.74V1926.68H275.197C275.695 1926.68 276.037 1926.43 276.037 1925.96C276.037 1925.48 275.715 1925.22 275.197 1925.22H272.971V1922.99C272.971 1922.47 272.697 1922.15 272.229 1922.15C271.76 1922.15 271.506 1922.49 271.506 1922.99V1925.22H269.299C268.781 1925.22 268.449 1925.48 268.449 1925.96C268.449 1926.43 268.801 1926.68 269.299 1926.68H271.506V1928.74C271.506 1929.24 271.76 1929.57 272.229 1929.57Z" fill="black"/>
</g>
<g id="Group_2">
<path id="Vector_4" d="M293.215 1935.91C298.664 1935.91 303.176 1931.4 303.176 1925.95C303.176 1920.51 298.654 1915.99 293.205 1915.99C287.766 1915.99 283.254 1920.51 283.254 1925.95C283.254 1931.4 287.775 1935.91 293.215 1935.91ZM293.215 1934.25C288.605 1934.25 284.924 1930.56 284.924 1925.95C284.924 1921.35 288.596 1917.65 293.205 1917.65C297.814 1917.65 301.506 1921.35 301.516 1925.95C301.525 1930.56 297.824 1934.25 293.215 1934.25ZM293.195 1930.59C293.713 1930.59 294.025 1930.23 294.025 1929.66V1926.77H297.082C297.629 1926.77 298.01 1926.49 298.01 1925.97C298.01 1925.44 297.648 1925.14 297.082 1925.14H294.025V1922.07C294.025 1921.5 293.713 1921.14 293.195 1921.14C292.678 1921.14 292.385 1921.52 292.385 1922.07V1925.14H289.338C288.771 1925.14 288.4 1925.44 288.4 1925.97C288.4 1926.49 288.791 1926.77 289.338 1926.77H292.385V1929.66C292.385 1930.21 292.678 1930.59 293.195 1930.59Z" fill="black"/>
</g>
<g id="Group_3">
<path id="Vector_5" d="M319.895 1938.67C326.857 1938.67 332.619 1932.92 332.619 1925.96C332.619 1919 326.848 1913.24 319.885 1913.24C312.932 1913.24 307.18 1919 307.18 1925.96C307.18 1932.92 312.941 1938.67 319.895 1938.67ZM319.895 1936.86C313.859 1936.86 309.006 1931.99 309.006 1925.96C309.006 1919.92 313.85 1915.06 319.885 1915.06C325.93 1915.06 330.783 1919.92 330.793 1925.96C330.803 1931.99 325.939 1936.86 319.895 1936.86ZM319.875 1931.94C320.441 1931.94 320.793 1931.54 320.793 1930.94V1926.87H325.031C325.617 1926.87 326.037 1926.54 326.037 1925.98C326.037 1925.4 325.647 1925.06 325.031 1925.06H320.793V1920.81C320.793 1920.2 320.441 1919.81 319.875 1919.81C319.309 1919.81 318.986 1920.22 318.986 1920.81V1925.06H314.758C314.143 1925.06 313.732 1925.4 313.732 1925.98C313.732 1926.54 314.162 1926.87 314.758 1926.87H318.986V1930.94C318.986 1931.53 319.309 1931.94 319.875 1931.94Z" fill="black"/>
</g>
<text id="Design Variations" fill="black" xml:space="preserve" style="white-space: pre" font-family="Roboto" font-size="12" letter-spacing="0em"><tspan x="263" y="1952.1">Design Variations</tspan></text>
<text id="Symbols are supported in up to nine weights and three scales." fill="black" xml:space="preserve" style="white-space: pre" font-family="Roboto" font-size="12" letter-spacing="0em"><tspan x="263" y="1970.1">Symbols are supported in up to nine weights and three scales.</tspan></text>
<text id="For optimal layout with text and other symbols, vertically align" fill="black" xml:space="preserve" style="white-space: pre" font-family="Roboto" font-size="12" letter-spacing="0em"><tspan x="263" y="1988.1">For optimal layout with text and other symbols, vertically align</tspan></text>
<text id="symbols with the adjacent text." fill="black" xml:space="preserve" style="white-space: pre" font-family="Roboto" font-size="12" letter-spacing="0em"><tspan x="263" y="2006.1">symbols with the adjacent text.</tspan></text>
<path id="Vector_6" opacity="0.4" d="M779 1919H776V1933H779V1919Z" fill="#00AEEF"/>
<g id="Group_4">
<path id="Vector_7" d="M789.527 1933H791.373L786.178 1918.91H784.439L779.244 1933H781.09L782.506 1928.97H788.111L789.527 1933ZM785.279 1921.05H785.338L787.594 1927.47H783.023L785.279 1921.05Z" fill="black"/>
</g>
<path id="Vector_8" opacity="0.4" d="M794.617 1919H791.617V1933H794.617V1919Z" fill="#00AEEF"/>
<text id="Margins" fill="black" xml:space="preserve" style="white-space: pre" font-family="Roboto" font-size="12" letter-spacing="0em"><tspan x="776" y="1952.1">Margins</tspan></text>
<text id="Leading and trailing margins on the left and right side of each symbol" fill="black" xml:space="preserve" style="white-space: pre" font-family="Roboto" font-size="12" letter-spacing="0em"><tspan x="776" y="1970.1">Leading and trailing margins on the left and right side of each symbol</tspan></text>
<text id="can be adjusted by modifying the width of the blue rectangles." fill="black" xml:space="preserve" style="white-space: pre" font-family="Roboto" font-size="12" letter-spacing="0em"><tspan x="776" y="1988.1">can be adjusted by modifying the width of the blue rectangles.</tspan></text>
<text id="Modifications are automatically applied proportionally to all" fill="black" xml:space="preserve" style="white-space: pre" font-family="Roboto" font-size="12" letter-spacing="0em"><tspan x="776" y="2006.1">Modifications are automatically applied proportionally to all</tspan></text>
<text id="scales and weights." fill="black" xml:space="preserve" style="white-space: pre" font-family="Roboto" font-size="12" letter-spacing="0em"><tspan x="776" y="2024.1">scales and weights.</tspan></text>
<g id="Group_5">
<path id="Vector_9" d="M1291.83 1936.12L1293.37 1937.66C1294.22 1938.49 1295.19 1938.42 1296.06 1937.46L1306.27 1926.34C1306.7 1926.63 1307.1 1926.62 1307.56 1926.53L1308.61 1926.31L1309.3 1927L1309.25 1927.52C1309.19 1928.05 1309.35 1928.47 1309.85 1928.97L1310.66 1929.78C1311.17 1930.29 1311.82 1930.31 1312.3 1929.84L1315.55 1926.58C1316.03 1926.11 1316.01 1925.45 1315.5 1924.94L1314.68 1924.12C1314.19 1923.62 1313.77 1923.45 1313.24 1923.53L1312.71 1923.59L1312.06 1922.92L1312.34 1921.78C1312.49 1921.21 1312.34 1920.74 1311.71 1920.14L1309.3 1917.75C1305.76 1914.22 1301.23 1914.33 1298.11 1917.46C1297.69 1917.89 1297.64 1918.48 1297.92 1918.91C1298.15 1919.28 1298.63 1919.5 1299.27 1919.34C1300.79 1918.96 1302.3 1919.07 1303.78 1920.08L1303.16 1921.66C1302.93 1922.25 1302.94 1922.73 1303.18 1923.17L1292.02 1933.44C1291.08 1934.31 1290.97 1935.26 1291.83 1936.12ZM1299.67 1917.85C1302.34 1915.86 1305.65 1916.17 1308.05 1918.59L1310.68 1921.19C1310.91 1921.43 1310.94 1921.61 1310.88 1921.91L1310.5 1923.47L1312.08 1925.04L1313.04 1924.95C1313.33 1924.92 1313.41 1924.94 1313.64 1925.17L1314.26 1925.79L1311.51 1928.54L1310.88 1927.92C1310.66 1927.7 1310.64 1927.6 1310.67 1927.32L1310.76 1926.36L1309.19 1924.8L1307.57 1925.11C1307.29 1925.17 1307.14 1925.17 1306.91 1924.92L1304.73 1922.75C1304.51 1922.51 1304.48 1922.37 1304.61 1922.05L1305.55 1919.78C1303.95 1918.24 1301.84 1917.39 1299.8 1918.05C1299.71 1918.08 1299.64 1918.06 1299.61 1918.02C1299.59 1917.97 1299.59 1917.92 1299.67 1917.85ZM1293.1 1935.41C1292.61 1934.91 1292.79 1934.61 1293.12 1934.31L1304.08 1924.19L1305.31 1925.42L1295.15 1936.35C1294.85 1936.68 1294.47 1936.78 1294.07 1936.38L1293.1 1935.41Z" fill="black"/>
</g>
<text id="Exporting" fill="black" xml:space="preserve" style="white-space: pre" font-family="Roboto" font-size="12" letter-spacing="0em"><tspan x="1289" y="1952.1">Exporting</tspan></text>
<text id="Symbols should be outlined when exporting to ensure the" fill="black" xml:space="preserve" style="white-space: pre" font-family="Roboto" font-size="12" letter-spacing="0em"><tspan x="1289" y="1970.1">Symbols should be outlined when exporting to ensure the</tspan></text>
<text id="design is preserved when submitting to Xcode." fill="black" xml:space="preserve" style="white-space: pre" font-family="Roboto" font-size="12" letter-spacing="0em"><tspan x="1289" y="1988.1">design is preserved when submitting to Xcode.</tspan></text>
<text id="template-version" fill="black" xml:space="preserve" style="white-space: pre" font-family="Roboto" font-size="12" letter-spacing="0em"><tspan x="2958" y="1932.1">Template v.1.0</tspan></text>
<text id="Generated from pencil.circle" fill="black" xml:space="preserve" style="white-space: pre" font-family="Roboto" font-size="12" letter-spacing="0em"><tspan x="2885" y="1950.1">Generated from pencil.circle</tspan></text>
<text id="Typeset at 100 points" fill="black" xml:space="preserve" style="white-space: pre" font-family="Roboto" font-size="12" letter-spacing="0em"><tspan x="2921" y="1968.1">Typeset at 100 points</tspan></text>
<text id="Small" fill="black" xml:space="preserve" style="white-space: pre" font-family="Roboto" font-size="12" letter-spacing="0em"><tspan x="263" y="725.102">Small</tspan></text>
<text id="Medium_2" fill="black" xml:space="preserve" style="white-space: pre" font-family="Roboto" font-size="12" letter-spacing="0em"><tspan x="263" y="1155.1">Medium</tspan></text>
<text id="Large" fill="black" xml:space="preserve" style="white-space: pre" font-family="Roboto" font-size="12" letter-spacing="0em"><tspan x="263" y="1585.1">Large</tspan></text>
</g>
<g id="Guides">
<g id="H-reference">
<path id="Vector_10" d="M393.932 696H396.666L369.566 625.541H367.076L339.977 696H342.662L351.94 671.537H384.703L393.932 696ZM368.199 628.91H368.443L383.824 669.291H352.818L368.199 628.91Z" fill="#27AAE1"/>
</g>
<path id="Baseline-S" d="M263 696H3036" stroke="#27AAE1" stroke-width="0.577"/>
<path id="Capline-S" d="M263 626H3036" stroke="#27AAE1" stroke-width="0.577"/>
<g id="H-reference_2">
<path id="Vector_11" d="M393.932 1126H396.666L369.566 1055.54H367.076L339.977 1126H342.662L351.94 1101.54H384.703L393.932 1126ZM368.199 1058.91H368.443L383.824 1099.29H352.818L368.199 1058.91Z" fill="#27AAE1"/>
</g>
<path id="Baseline-M" d="M263 1126H3036" stroke="#27AAE1" stroke-width="0.577"/>
<path id="Capline-M" d="M263 1056H3036" stroke="#27AAE1" stroke-width="0.577"/>
<g id="H-reference_3">
<path id="Vector_12" d="M393.932 1556H396.666L369.566 1485.54H367.076L339.977 1556H342.662L351.94 1531.54H384.703L393.932 1556ZM368.199 1488.91H368.443L383.824 1529.29H352.818L368.199 1488.91Z" fill="#27AAE1"/>
</g>
<g id="Group 1">
<path id="Baseline-L" d="M263 1556H3036" stroke="#27AAE1" stroke-width="0.577"/>
<path id="Capline-L" d="M263 1486H3036" stroke="#27AAE1" stroke-width="0.577"/>
</g>
<path id="left-margin" opacity="0.4" d="M1408.04 1030.79H1399.3V1150.13H1408.04V1030.79Z" fill="#00AEEF"/>
<path id="right-margin" opacity="0.4" d="M1510.39 1030.79H1501.65V1150.13H1510.39V1030.79Z" fill="#00AEEF"/>
</g>
<g id="Symbols">
<g id="Black-L">
<g id="Solid / Unlock Solid">
<path id="Shape" fill-rule="evenodd" clip-rule="evenodd" d="M2946.39 1484.37C2946.39 1473.23 2955.42 1464.2 2966.55 1464.2C2977.69 1464.2 2986.72 1473.23 2986.72 1484.37V1484.96C2986.72 1487.66 2988.9 1489.84 2991.59 1489.84C2994.28 1489.84 2996.47 1487.66 2996.47 1484.96V1484.37C2996.47 1467.84 2983.07 1454.45 2966.55 1454.45C2950.03 1454.45 2936.64 1467.84 2936.64 1484.37L2936.64 1498.5H2899C2886.57 1498.5 2876.5 1508.57 2876.5 1521V1558.5C2876.5 1570.93 2886.57 1581 2899 1581H2959C2971.43 1581 2981.5 1570.93 2981.5 1558.5V1521C2981.5 1508.57 2971.43 1498.5 2959 1498.5H2946.39L2946.39 1484.37ZM2929 1528.44C2931.69 1528.44 2933.87 1530.62 2933.87 1533.31V1546.19C2933.87 1548.88 2931.69 1551.06 2929 1551.06C2926.31 1551.06 2924.12 1548.88 2924.12 1546.19V1533.31C2924.12 1530.62 2926.31 1528.44 2929 1528.44Z" fill="black"/>
</g>
</g>
<g id="Heavy-L">
<g id="Solid / Unlock Solid_2">
<path id="Shape_2" fill-rule="evenodd" clip-rule="evenodd" d="M2650.39 1484.37C2650.39 1473.23 2659.42 1464.2 2670.55 1464.2C2681.69 1464.2 2690.72 1473.23 2690.72 1484.37V1484.96C2690.72 1487.66 2692.9 1489.84 2695.59 1489.84C2698.28 1489.84 2700.47 1487.66 2700.47 1484.96V1484.37C2700.47 1467.84 2687.07 1454.45 2670.55 1454.45C2654.03 1454.45 2640.64 1467.84 2640.64 1484.37L2640.64 1498.5H2603C2590.57 1498.5 2580.5 1508.57 2580.5 1521V1558.5C2580.5 1570.93 2590.57 1581 2603 1581H2663C2675.43 1581 2685.5 1570.93 2685.5 1558.5V1521C2685.5 1508.57 2675.43 1498.5 2663 1498.5H2650.39L2650.39 1484.37ZM2633 1528.44C2635.69 1528.44 2637.87 1530.62 2637.87 1533.31V1546.19C2637.87 1548.88 2635.69 1551.06 2633 1551.06C2630.31 1551.06 2628.12 1548.88 2628.12 1546.19V1533.31C2628.12 1530.62 2630.31 1528.44 2633 1528.44Z" fill="black"/>
</g>
</g>
<g id="Bold-L">
<g id="Solid / Unlock Solid_3">
<path id="Shape_3" fill-rule="evenodd" clip-rule="evenodd" d="M2354.39 1484.37C2354.39 1473.23 2363.42 1464.2 2374.55 1464.2C2385.69 1464.2 2394.72 1473.23 2394.72 1484.37V1484.96C2394.72 1487.66 2396.9 1489.84 2399.59 1489.84C2402.28 1489.84 2404.47 1487.66 2404.47 1484.96V1484.37C2404.47 1467.84 2391.07 1454.45 2374.55 1454.45C2358.03 1454.45 2344.64 1467.84 2344.64 1484.37L2344.64 1498.5H2307C2294.57 1498.5 2284.5 1508.57 2284.5 1521V1558.5C2284.5 1570.93 2294.57 1581 2307 1581H2367C2379.43 1581 2389.5 1570.93 2389.5 1558.5V1521C2389.5 1508.57 2379.43 1498.5 2367 1498.5H2354.39L2354.39 1484.37ZM2337 1528.44C2339.69 1528.44 2341.87 1530.62 2341.87 1533.31V1546.19C2341.87 1548.88 2339.69 1551.06 2337 1551.06C2334.31 1551.06 2332.12 1548.88 2332.12 1546.19V1533.31C2332.12 1530.62 2334.31 1528.44 2337 1528.44Z" fill="black"/>
</g>
</g>
<g id="Semibold-L">
<g id="Solid / Unlock Solid_4">
<path id="Shape_4" fill-rule="evenodd" clip-rule="evenodd" d="M2058.39 1484.37C2058.39 1473.23 2067.42 1464.2 2078.55 1464.2C2089.69 1464.2 2098.72 1473.23 2098.72 1484.37V1484.96C2098.72 1487.66 2100.9 1489.84 2103.59 1489.84C2106.28 1489.84 2108.47 1487.66 2108.47 1484.96V1484.37C2108.47 1467.84 2095.07 1454.45 2078.55 1454.45C2062.03 1454.45 2048.64 1467.84 2048.64 1484.37L2048.64 1498.5H2011C1998.57 1498.5 1988.5 1508.57 1988.5 1521V1558.5C1988.5 1570.93 1998.57 1581 2011 1581H2071C2083.43 1581 2093.5 1570.93 2093.5 1558.5V1521C2093.5 1508.57 2083.43 1498.5 2071 1498.5H2058.39L2058.39 1484.37ZM2041 1528.44C2043.69 1528.44 2045.87 1530.62 2045.87 1533.31V1546.19C2045.87 1548.88 2043.69 1551.06 2041 1551.06C2038.31 1551.06 2036.12 1548.88 2036.12 1546.19V1533.31C2036.12 1530.62 2038.31 1528.44 2041 1528.44Z" fill="black"/>
</g>
</g>
<g id="Medium-L">
<g id="Solid / Unlock Solid_5">
<path id="Shape_5" fill-rule="evenodd" clip-rule="evenodd" d="M1762.39 1484.37C1762.39 1473.23 1771.42 1464.2 1782.55 1464.2C1793.69 1464.2 1802.72 1473.23 1802.72 1484.37V1484.96C1802.72 1487.66 1804.9 1489.84 1807.59 1489.84C1810.28 1489.84 1812.47 1487.66 1812.47 1484.96V1484.37C1812.47 1467.84 1799.07 1454.45 1782.55 1454.45C1766.03 1454.45 1752.64 1467.84 1752.64 1484.37L1752.64 1498.5H1715C1702.57 1498.5 1692.5 1508.57 1692.5 1521V1558.5C1692.5 1570.93 1702.57 1581 1715 1581H1775C1787.43 1581 1797.5 1570.93 1797.5 1558.5V1521C1797.5 1508.57 1787.43 1498.5 1775 1498.5H1762.39L1762.39 1484.37ZM1745 1528.44C1747.69 1528.44 1749.87 1530.62 1749.87 1533.31V1546.19C1749.87 1548.88 1747.69 1551.06 1745 1551.06C1742.31 1551.06 1740.12 1548.88 1740.12 1546.19V1533.31C1740.12 1530.62 1742.31 1528.44 1745 1528.44Z" fill="black"/>
</g>
</g>
<g id="Regular-L">
<g id="Solid / Unlock Solid_6">
<path id="Shape_6" fill-rule="evenodd" clip-rule="evenodd" d="M1466.39 1484.37C1466.39 1473.23 1475.42 1464.2 1486.55 1464.2C1497.69 1464.2 1506.72 1473.23 1506.72 1484.37V1484.96C1506.72 1487.66 1508.9 1489.84 1511.59 1489.84C1514.28 1489.84 1516.47 1487.66 1516.47 1484.96V1484.37C1516.47 1467.84 1503.07 1454.45 1486.55 1454.45C1470.03 1454.45 1456.64 1467.84 1456.64 1484.37L1456.64 1498.5H1419C1406.57 1498.5 1396.5 1508.57 1396.5 1521V1558.5C1396.5 1570.93 1406.57 1581 1419 1581H1479C1491.43 1581 1501.5 1570.93 1501.5 1558.5V1521C1501.5 1508.57 1491.43 1498.5 1479 1498.5H1466.39L1466.39 1484.37ZM1449 1528.44C1451.69 1528.44 1453.87 1530.62 1453.87 1533.31V1546.19C1453.87 1548.88 1451.69 1551.06 1449 1551.06C1446.31 1551.06 1444.12 1548.88 1444.12 1546.19V1533.31C1444.12 1530.62 1446.31 1528.44 1449 1528.44Z" fill="black"/>
</g>
</g>
<g id="Light-L">
<g id="Solid / Unlock Solid_7">
<path id="Shape_7" fill-rule="evenodd" clip-rule="evenodd" d="M1170.39 1484.37C1170.39 1473.23 1179.42 1464.2 1190.55 1464.2C1201.69 1464.2 1210.72 1473.23 1210.72 1484.37V1484.96C1210.72 1487.66 1212.9 1489.84 1215.59 1489.84C1218.28 1489.84 1220.47 1487.66 1220.47 1484.96V1484.37C1220.47 1467.84 1207.07 1454.45 1190.55 1454.45C1174.03 1454.45 1160.64 1467.84 1160.64 1484.37L1160.64 1498.5H1123C1110.57 1498.5 1100.5 1508.57 1100.5 1521V1558.5C1100.5 1570.93 1110.57 1581 1123 1581H1183C1195.43 1581 1205.5 1570.93 1205.5 1558.5V1521C1205.5 1508.57 1195.43 1498.5 1183 1498.5H1170.39L1170.39 1484.37ZM1153 1528.44C1155.69 1528.44 1157.87 1530.62 1157.87 1533.31V1546.19C1157.87 1548.88 1155.69 1551.06 1153 1551.06C1150.31 1551.06 1148.12 1548.88 1148.12 1546.19V1533.31C1148.12 1530.62 1150.31 1528.44 1153 1528.44Z" fill="black"/>
</g>
</g>
<g id="Thin-L">
<g id="Solid / Unlock Solid_8">
<path id="Shape_8" fill-rule="evenodd" clip-rule="evenodd" d="M874.391 1484.37C874.391 1473.23 883.419 1464.2 894.554 1464.2C905.69 1464.2 914.717 1473.23 914.717 1484.37V1484.96C914.717 1487.66 916.9 1489.84 919.592 1489.84C922.284 1489.84 924.467 1487.66 924.467 1484.96V1484.37C924.467 1467.84 911.075 1454.45 894.554 1454.45C878.034 1454.45 864.641 1467.84 864.641 1484.37L864.641 1498.5H827C814.574 1498.5 804.5 1508.57 804.5 1521V1558.5C804.5 1570.93 814.574 1581 827 1581H887C899.426 1581 909.5 1570.93 909.5 1558.5V1521C909.5 1508.57 899.426 1498.5 887 1498.5H874.391L874.391 1484.37ZM857 1528.44C859.692 1528.44 861.875 1530.62 861.875 1533.31V1546.19C861.875 1548.88 859.692 1551.06 857 1551.06C854.308 1551.06 852.125 1548.88 852.125 1546.19V1533.31C852.125 1530.62 854.308 1528.44 857 1528.44Z" fill="black"/>
</g>
</g>
<g id="Ultralight-L">
<g id="Solid / Unlock Solid_9">
<path id="Shape_9" fill-rule="evenodd" clip-rule="evenodd" d="M578.391 1484.37C578.391 1473.23 587.419 1464.2 598.554 1464.2C609.69 1464.2 618.717 1473.23 618.717 1484.37V1484.96C618.717 1487.66 620.9 1489.84 623.592 1489.84C626.284 1489.84 628.467 1487.66 628.467 1484.96V1484.37C628.467 1467.84 615.075 1454.45 598.554 1454.45C582.034 1454.45 568.641 1467.84 568.641 1484.37L568.641 1498.5H531C518.574 1498.5 508.5 1508.57 508.5 1521V1558.5C508.5 1570.93 518.574 1581 531 1581H591C603.426 1581 613.5 1570.93 613.5 1558.5V1521C613.5 1508.57 603.426 1498.5 591 1498.5H578.391L578.391 1484.37ZM561 1528.44C563.692 1528.44 565.875 1530.62 565.875 1533.31V1546.19C565.875 1548.88 563.692 1551.06 561 1551.06C558.308 1551.06 556.125 1548.88 556.125 1546.19V1533.31C556.125 1530.62 558.308 1528.44 561 1528.44Z" fill="black"/>
</g>
</g>
<g id="Black-M">
<g id="Solid / Unlock Solid_10">
<path id="Shape_10" fill-rule="evenodd" clip-rule="evenodd" d="M2942.53 1062.51C2942.53 1053.85 2949.55 1046.82 2958.21 1046.82C2966.87 1046.82 2973.89 1053.85 2973.89 1062.51V1062.97C2973.89 1065.07 2975.59 1066.76 2977.68 1066.76C2979.78 1066.76 2981.47 1065.07 2981.47 1062.97V1062.51C2981.47 1049.66 2971.06 1039.24 2958.21 1039.24C2945.36 1039.24 2934.94 1049.66 2934.94 1062.51L2934.94 1073.5H2905.67C2896 1073.5 2888.17 1081.34 2888.17 1091V1120.17C2888.17 1129.83 2896 1137.67 2905.67 1137.67H2952.33C2962 1137.67 2969.83 1129.83 2969.83 1120.17V1091C2969.83 1081.34 2962 1073.5 2952.33 1073.5H2942.53L2942.53 1062.51ZM2929 1096.79C2931.09 1096.79 2932.79 1098.48 2932.79 1100.58V1110.59C2932.79 1112.68 2931.09 1114.38 2929 1114.38C2926.91 1114.38 2925.21 1112.68 2925.21 1110.59V1100.58C2925.21 1098.48 2926.91 1096.79 2929 1096.79Z" fill="black"/>
</g>
</g>
<g id="Heavy-M">
<g id="Solid / Unlock Solid_11">
<path id="Shape_11" fill-rule="evenodd" clip-rule="evenodd" d="M2646.53 1062.51C2646.53 1053.85 2653.55 1046.82 2662.21 1046.82C2670.87 1046.82 2677.89 1053.85 2677.89 1062.51V1062.97C2677.89 1065.07 2679.59 1066.76 2681.68 1066.76C2683.78 1066.76 2685.47 1065.07 2685.47 1062.97V1062.51C2685.47 1049.66 2675.06 1039.24 2662.21 1039.24C2649.36 1039.24 2638.94 1049.66 2638.94 1062.51L2638.94 1073.5H2609.67C2600 1073.5 2592.17 1081.34 2592.17 1091V1120.17C2592.17 1129.83 2600 1137.67 2609.67 1137.67H2656.33C2666 1137.67 2673.83 1129.83 2673.83 1120.17V1091C2673.83 1081.34 2666 1073.5 2656.33 1073.5H2646.53L2646.53 1062.51ZM2633 1096.79C2635.09 1096.79 2636.79 1098.48 2636.79 1100.58V1110.59C2636.79 1112.68 2635.09 1114.38 2633 1114.38C2630.91 1114.38 2629.21 1112.68 2629.21 1110.59V1100.58C2629.21 1098.48 2630.91 1096.79 2633 1096.79Z" fill="black"/>
</g>
</g>
<g id="Bold-M">
<g id="Solid / Unlock Solid_12">
<path id="Shape_12" fill-rule="evenodd" clip-rule="evenodd" d="M2350.53 1062.51C2350.53 1053.85 2357.55 1046.82 2366.21 1046.82C2374.87 1046.82 2381.89 1053.85 2381.89 1062.51V1062.97C2381.89 1065.07 2383.59 1066.76 2385.68 1066.76C2387.78 1066.76 2389.47 1065.07 2389.47 1062.97V1062.51C2389.47 1049.66 2379.06 1039.24 2366.21 1039.24C2353.36 1039.24 2342.94 1049.66 2342.94 1062.51L2342.94 1073.5H2313.67C2304 1073.5 2296.17 1081.34 2296.17 1091V1120.17C2296.17 1129.83 2304 1137.67 2313.67 1137.67H2360.33C2370 1137.67 2377.83 1129.83 2377.83 1120.17V1091C2377.83 1081.34 2370 1073.5 2360.33 1073.5H2350.53L2350.53 1062.51ZM2337 1096.79C2339.09 1096.79 2340.79 1098.48 2340.79 1100.58V1110.59C2340.79 1112.68 2339.09 1114.38 2337 1114.38C2334.91 1114.38 2333.21 1112.68 2333.21 1110.59V1100.58C2333.21 1098.48 2334.91 1096.79 2337 1096.79Z" fill="black"/>
</g>
</g>
<g id="Semibold-M">
<g id="Solid / Unlock Solid_13">
<path id="Shape_13" fill-rule="evenodd" clip-rule="evenodd" d="M2054.53 1062.51C2054.53 1053.85 2061.55 1046.82 2070.21 1046.82C2078.87 1046.82 2085.89 1053.85 2085.89 1062.51V1062.97C2085.89 1065.07 2087.59 1066.76 2089.68 1066.76C2091.78 1066.76 2093.47 1065.07 2093.47 1062.97V1062.51C2093.47 1049.66 2083.06 1039.24 2070.21 1039.24C2057.36 1039.24 2046.94 1049.66 2046.94 1062.51L2046.94 1073.5H2017.67C2008 1073.5 2000.17 1081.34 2000.17 1091V1120.17C2000.17 1129.83 2008 1137.67 2017.67 1137.67H2064.33C2074 1137.67 2081.83 1129.83 2081.83 1120.17V1091C2081.83 1081.34 2074 1073.5 2064.33 1073.5H2054.53L2054.53 1062.51ZM2041 1096.79C2043.09 1096.79 2044.79 1098.48 2044.79 1100.58V1110.59C2044.79 1112.68 2043.09 1114.38 2041 1114.38C2038.91 1114.38 2037.21 1112.68 2037.21 1110.59V1100.58C2037.21 1098.48 2038.91 1096.79 2041 1096.79Z" fill="black"/>
</g>
</g>
<g id="Medium-M">
<g id="Solid / Unlock Solid_14">
<path id="Shape_14" fill-rule="evenodd" clip-rule="evenodd" d="M1758.53 1062.51C1758.53 1053.85 1765.55 1046.82 1774.21 1046.82C1782.87 1046.82 1789.89 1053.85 1789.89 1062.51V1062.97C1789.89 1065.07 1791.59 1066.76 1793.68 1066.76C1795.78 1066.76 1797.47 1065.07 1797.47 1062.97V1062.51C1797.47 1049.66 1787.06 1039.24 1774.21 1039.24C1761.36 1039.24 1750.94 1049.66 1750.94 1062.51L1750.94 1073.5H1721.67C1712 1073.5 1704.17 1081.34 1704.17 1091V1120.17C1704.17 1129.83 1712 1137.67 1721.67 1137.67H1768.33C1778 1137.67 1785.83 1129.83 1785.83 1120.17V1091C1785.83 1081.34 1778 1073.5 1768.33 1073.5H1758.53L1758.53 1062.51ZM1745 1096.79C1747.09 1096.79 1748.79 1098.48 1748.79 1100.58V1110.59C1748.79 1112.68 1747.09 1114.38 1745 1114.38C1742.91 1114.38 1741.21 1112.68 1741.21 1110.59V1100.58C1741.21 1098.48 1742.91 1096.79 1745 1096.79Z" fill="black"/>
</g>
</g>
<g id="Regular-M">
<g id="Solid / Unlock Solid_15">
<path id="Shape_15" fill-rule="evenodd" clip-rule="evenodd" d="M1462.53 1062.51C1462.53 1053.85 1469.55 1046.82 1478.21 1046.82C1486.87 1046.82 1493.89 1053.85 1493.89 1062.51V1062.97C1493.89 1065.07 1495.59 1066.76 1497.68 1066.76C1499.78 1066.76 1501.47 1065.07 1501.47 1062.97V1062.51C1501.47 1049.66 1491.06 1039.24 1478.21 1039.24C1465.36 1039.24 1454.94 1049.66 1454.94 1062.51L1454.94 1073.5H1425.67C1416 1073.5 1408.17 1081.34 1408.17 1091V1120.17C1408.17 1129.83 1416 1137.67 1425.67 1137.67H1472.33C1482 1137.67 1489.83 1129.83 1489.83 1120.17V1091C1489.83 1081.34 1482 1073.5 1472.33 1073.5H1462.53L1462.53 1062.51ZM1449 1096.79C1451.09 1096.79 1452.79 1098.48 1452.79 1100.58V1110.59C1452.79 1112.68 1451.09 1114.38 1449 1114.38C1446.91 1114.38 1445.21 1112.68 1445.21 1110.59V1100.58C1445.21 1098.48 1446.91 1096.79 1449 1096.79Z" fill="black"/>
</g>
</g>
<g id="Light-M">
<g id="Solid / Unlock Solid_16">
<path id="Shape_16" fill-rule="evenodd" clip-rule="evenodd" d="M1166.53 1062.51C1166.53 1053.85 1173.55 1046.82 1182.21 1046.82C1190.87 1046.82 1197.89 1053.85 1197.89 1062.51V1062.97C1197.89 1065.07 1199.59 1066.76 1201.68 1066.76C1203.78 1066.76 1205.47 1065.07 1205.47 1062.97V1062.51C1205.47 1049.66 1195.06 1039.24 1182.21 1039.24C1169.36 1039.24 1158.94 1049.66 1158.94 1062.51L1158.94 1073.5H1129.67C1120 1073.5 1112.17 1081.34 1112.17 1091V1120.17C1112.17 1129.83 1120 1137.67 1129.67 1137.67H1176.33C1186 1137.67 1193.83 1129.83 1193.83 1120.17V1091C1193.83 1081.34 1186 1073.5 1176.33 1073.5H1166.53L1166.53 1062.51ZM1153 1096.79C1155.09 1096.79 1156.79 1098.48 1156.79 1100.58V1110.59C1156.79 1112.68 1155.09 1114.38 1153 1114.38C1150.91 1114.38 1149.21 1112.68 1149.21 1110.59V1100.58C1149.21 1098.48 1150.91 1096.79 1153 1096.79Z" fill="black"/>
</g>
</g>
<g id="Thin-M">
<g id="Solid / Unlock Solid_17">
<path id="Shape_17" fill-rule="evenodd" clip-rule="evenodd" d="M870.526 1062.51C870.526 1053.85 877.547 1046.82 886.208 1046.82C894.869 1046.82 901.89 1053.85 901.89 1062.51V1062.97C901.89 1065.07 903.588 1066.76 905.682 1066.76C907.776 1066.76 909.474 1065.07 909.474 1062.97V1062.51C909.474 1049.66 899.057 1039.24 886.208 1039.24C873.359 1039.24 862.943 1049.66 862.943 1062.51L862.943 1073.5H833.666C824.001 1073.5 816.166 1081.34 816.166 1091V1120.17C816.166 1129.83 824.001 1137.67 833.666 1137.67H880.333C889.998 1137.67 897.833 1129.83 897.833 1120.17V1091C897.833 1081.34 889.998 1073.5 880.333 1073.5H870.526L870.526 1062.51ZM856.999 1096.79C859.093 1096.79 860.791 1098.48 860.791 1100.58V1110.59C860.791 1112.68 859.093 1114.38 856.999 1114.38C854.905 1114.38 853.208 1112.68 853.208 1110.59V1100.58C853.208 1098.48 854.905 1096.79 856.999 1096.79Z" fill="black"/>
</g>
</g>
<g id="Ultralight-M">
<g id="Solid / Unlock Solid_18">
<path id="Shape_18" fill-rule="evenodd" clip-rule="evenodd" d="M574.526 1062.51C574.526 1053.85 581.547 1046.82 590.208 1046.82C598.869 1046.82 605.89 1053.85 605.89 1062.51V1062.97C605.89 1065.07 607.588 1066.76 609.682 1066.76C611.776 1066.76 613.474 1065.07 613.474 1062.97V1062.51C613.474 1049.66 603.057 1039.24 590.208 1039.24C577.359 1039.24 566.943 1049.66 566.943 1062.51L566.943 1073.5H537.666C528.001 1073.5 520.166 1081.34 520.166 1091V1120.17C520.166 1129.83 528.001 1137.67 537.666 1137.67H584.333C593.998 1137.67 601.833 1129.83 601.833 1120.17V1091C601.833 1081.34 593.998 1073.5 584.333 1073.5H574.526L574.526 1062.51ZM560.999 1096.79C563.093 1096.79 564.791 1098.48 564.791 1100.58V1110.59C564.791 1112.68 563.093 1114.38 560.999 1114.38C558.905 1114.38 557.208 1112.68 557.208 1110.59V1100.58C557.208 1098.48 558.905 1096.79 560.999 1096.79Z" fill="black"/>
</g>
</g>
<g id="Black-S">
<g id="Solid / Unlock Solid_19">
<path id="Shape_19" fill-rule="evenodd" clip-rule="evenodd" d="M2938.66 640.647C2938.66 634.461 2943.68 629.445 2949.86 629.445C2956.05 629.445 2961.07 634.461 2961.07 640.647V640.979C2961.07 642.475 2962.28 643.688 2963.77 643.688C2965.27 643.688 2966.48 642.475 2966.48 640.979V640.647C2966.48 631.469 2959.04 624.029 2949.86 624.029C2940.69 624.029 2933.25 631.469 2933.25 640.647L2933.25 648.5H2912.33C2905.43 648.5 2899.83 654.096 2899.83 661V681.833C2899.83 688.737 2905.43 694.333 2912.33 694.333H2945.67C2952.57 694.333 2958.17 688.737 2958.17 681.833V661C2958.17 654.096 2952.57 648.5 2945.67 648.5H2938.66L2938.66 640.647ZM2929 665.132C2930.5 665.132 2931.71 666.344 2931.71 667.84V674.992C2931.71 676.488 2930.5 677.701 2929 677.701C2927.5 677.701 2926.29 676.488 2926.29 674.992V667.84C2926.29 666.344 2927.5 665.132 2929 665.132Z" fill="black"/>
</g>
</g>
<g id="Heavy-S">
<g id="Solid / Unlock Solid_20">
<path id="Shape_20" fill-rule="evenodd" clip-rule="evenodd" d="M2642.66 640.647C2642.66 634.461 2647.68 629.445 2653.86 629.445C2660.05 629.445 2665.07 634.461 2665.07 640.647V640.979C2665.07 642.475 2666.28 643.688 2667.77 643.688C2669.27 643.688 2670.48 642.475 2670.48 640.979V640.647C2670.48 631.469 2663.04 624.029 2653.86 624.029C2644.69 624.029 2637.25 631.469 2637.25 640.647L2637.25 648.5H2616.33C2609.43 648.5 2603.83 654.096 2603.83 661V681.833C2603.83 688.737 2609.43 694.333 2616.33 694.333H2649.67C2656.57 694.333 2662.17 688.737 2662.17 681.833V661C2662.17 654.096 2656.57 648.5 2649.67 648.5H2642.66L2642.66 640.647ZM2633 665.132C2634.5 665.132 2635.71 666.344 2635.71 667.84V674.992C2635.71 676.488 2634.5 677.701 2633 677.701C2631.5 677.701 2630.29 676.488 2630.29 674.992V667.84C2630.29 666.344 2631.5 665.132 2633 665.132Z" fill="black"/>
</g>
</g>
<g id="Bold-S">
<g id="Solid / Unlock Solid_21">
<path id="Shape_21" fill-rule="evenodd" clip-rule="evenodd" d="M2346.66 640.647C2346.66 634.461 2351.68 629.445 2357.86 629.445C2364.05 629.445 2369.07 634.461 2369.07 640.647V640.979C2369.07 642.475 2370.28 643.688 2371.77 643.688C2373.27 643.688 2374.48 642.475 2374.48 640.979V640.647C2374.48 631.469 2367.04 624.029 2357.86 624.029C2348.69 624.029 2341.25 631.469 2341.25 640.647L2341.25 648.5H2320.33C2313.43 648.5 2307.83 654.096 2307.83 661V681.833C2307.83 688.737 2313.43 694.333 2320.33 694.333H2353.67C2360.57 694.333 2366.17 688.737 2366.17 681.833V661C2366.17 654.096 2360.57 648.5 2353.67 648.5H2346.66L2346.66 640.647ZM2337 665.132C2338.5 665.132 2339.71 666.344 2339.71 667.84V674.992C2339.71 676.488 2338.5 677.701 2337 677.701C2335.5 677.701 2334.29 676.488 2334.29 674.992V667.84C2334.29 666.344 2335.5 665.132 2337 665.132Z" fill="black"/>
</g>
</g>
<g id="Semibold-S">
<g id="Solid / Unlock Solid_22">
<path id="Shape_22" fill-rule="evenodd" clip-rule="evenodd" d="M2050.66 640.647C2050.66 634.461 2055.68 629.445 2061.86 629.445C2068.05 629.445 2073.07 634.461 2073.07 640.647V640.979C2073.07 642.475 2074.28 643.688 2075.77 643.688C2077.27 643.688 2078.48 642.475 2078.48 640.979V640.647C2078.48 631.469 2071.04 624.029 2061.86 624.029C2052.69 624.029 2045.25 631.469 2045.25 640.647L2045.25 648.5H2024.33C2017.43 648.5 2011.83 654.096 2011.83 661V681.833C2011.83 688.737 2017.43 694.333 2024.33 694.333H2057.67C2064.57 694.333 2070.17 688.737 2070.17 681.833V661C2070.17 654.096 2064.57 648.5 2057.67 648.5H2050.66L2050.66 640.647ZM2041 665.132C2042.5 665.132 2043.71 666.344 2043.71 667.84V674.992C2043.71 676.488 2042.5 677.701 2041 677.701C2039.5 677.701 2038.29 676.488 2038.29 674.992V667.84C2038.29 666.344 2039.5 665.132 2041 665.132Z" fill="black"/>
</g>
</g>
<g id="Medium-S">
<g id="Solid / Unlock Solid_23">
<path id="Shape_23" fill-rule="evenodd" clip-rule="evenodd" d="M1754.66 640.647C1754.66 634.461 1759.68 629.445 1765.86 629.445C1772.05 629.445 1777.07 634.461 1777.07 640.647V640.979C1777.07 642.475 1778.28 643.688 1779.77 643.688C1781.27 643.688 1782.48 642.475 1782.48 640.979V640.647C1782.48 631.469 1775.04 624.029 1765.86 624.029C1756.69 624.029 1749.25 631.469 1749.25 640.647L1749.25 648.5H1728.33C1721.43 648.5 1715.83 654.096 1715.83 661V681.833C1715.83 688.737 1721.43 694.333 1728.33 694.333H1761.67C1768.57 694.333 1774.17 688.737 1774.17 681.833V661C1774.17 654.096 1768.57 648.5 1761.67 648.5H1754.66L1754.66 640.647ZM1745 665.132C1746.5 665.132 1747.71 666.344 1747.71 667.84V674.992C1747.71 676.488 1746.5 677.701 1745 677.701C1743.5 677.701 1742.29 676.488 1742.29 674.992V667.84C1742.29 666.344 1743.5 665.132 1745 665.132Z" fill="black"/>
</g>
</g>
<g id="Regular-S">
<g id="Solid / Unlock Solid_24">
<path id="Shape_24" fill-rule="evenodd" clip-rule="evenodd" d="M1458.66 640.647C1458.66 634.461 1463.68 629.445 1469.86 629.445C1476.05 629.445 1481.07 634.461 1481.07 640.647V640.979C1481.07 642.475 1482.28 643.688 1483.77 643.688C1485.27 643.688 1486.48 642.475 1486.48 640.979V640.647C1486.48 631.469 1479.04 624.029 1469.86 624.029C1460.69 624.029 1453.25 631.469 1453.25 640.647L1453.25 648.5H1432.33C1425.43 648.5 1419.83 654.096 1419.83 661V681.833C1419.83 688.737 1425.43 694.333 1432.33 694.333H1465.67C1472.57 694.333 1478.17 688.737 1478.17 681.833V661C1478.17 654.096 1472.57 648.5 1465.67 648.5H1458.66L1458.66 640.647ZM1449 665.132C1450.5 665.132 1451.71 666.344 1451.71 667.84V674.992C1451.71 676.488 1450.5 677.701 1449 677.701C1447.5 677.701 1446.29 676.488 1446.29 674.992V667.84C1446.29 666.344 1447.5 665.132 1449 665.132Z" fill="black"/>
</g>
</g>
<g id="Light-S">
<g id="Solid / Unlock Solid_25">
<path id="Shape_25" fill-rule="evenodd" clip-rule="evenodd" d="M1162.66 640.647C1162.66 634.461 1167.68 629.445 1173.86 629.445C1180.05 629.445 1185.07 634.461 1185.07 640.647V640.979C1185.07 642.475 1186.28 643.688 1187.77 643.688C1189.27 643.688 1190.48 642.475 1190.48 640.979V640.647C1190.48 631.469 1183.04 624.029 1173.86 624.029C1164.69 624.029 1157.25 631.469 1157.25 640.647L1157.25 648.5H1136.33C1129.43 648.5 1123.83 654.096 1123.83 661V681.833C1123.83 688.737 1129.43 694.333 1136.33 694.333H1169.67C1176.57 694.333 1182.17 688.737 1182.17 681.833V661C1182.17 654.096 1176.57 648.5 1169.67 648.5H1162.66L1162.66 640.647ZM1153 665.132C1154.5 665.132 1155.71 666.344 1155.71 667.84V674.992C1155.71 676.488 1154.5 677.701 1153 677.701C1151.5 677.701 1150.29 676.488 1150.29 674.992V667.84C1150.29 666.344 1151.5 665.132 1153 665.132Z" fill="black"/>
</g>
</g>
<g id="Thin-S">
<g id="Solid / Unlock Solid_26">
<path id="Shape_26" fill-rule="evenodd" clip-rule="evenodd" d="M866.663 640.647C866.663 634.461 871.678 629.445 877.864 629.445C884.051 629.445 889.066 634.461 889.066 640.647V640.979C889.066 642.475 890.278 643.688 891.774 643.688C893.27 643.688 894.482 642.475 894.482 640.979V640.647C894.482 631.469 887.042 624.029 877.864 624.029C868.686 624.029 861.246 631.469 861.246 640.647L861.246 648.5H840.334C833.43 648.5 827.834 654.096 827.834 661V681.833C827.834 688.737 833.43 694.333 840.334 694.333H873.667C880.571 694.333 886.167 688.737 886.167 681.833V661C886.167 654.096 880.571 648.5 873.667 648.5H866.663L866.663 640.647ZM857.001 665.132C858.496 665.132 859.709 666.344 859.709 667.84V674.992C859.709 676.488 858.496 677.701 857.001 677.701C855.505 677.701 854.292 676.488 854.292 674.992V667.84C854.292 666.344 855.505 665.132 857.001 665.132Z" fill="black"/>
</g>
</g>
<g id="Ultralight-S">
<g id="Solid / Unlock Solid_27">
<path id="Shape_27" fill-rule="evenodd" clip-rule="evenodd" d="M570.663 640.647C570.663 634.461 575.678 629.445 581.864 629.445C588.051 629.445 593.066 634.461 593.066 640.647V640.979C593.066 642.475 594.278 643.688 595.774 643.688C597.27 643.688 598.482 642.475 598.482 640.979V640.647C598.482 631.469 591.042 624.029 581.864 624.029C572.686 624.029 565.246 631.469 565.246 640.647L565.246 648.5H544.334C537.43 648.5 531.834 654.096 531.834 661V681.833C531.834 688.737 537.43 694.333 544.334 694.333H577.667C584.571 694.333 590.167 688.737 590.167 681.833V661C590.167 654.096 584.571 648.5 577.667 648.5H570.663L570.663 640.647ZM561.001 665.132C562.496 665.132 563.709 666.344 563.709 667.84V674.992C563.709 676.488 562.496 677.701 561.001 677.701C559.505 677.701 558.292 676.488 558.292 674.992V667.84C558.292 666.344 559.505 665.132 561.001 665.132Z" fill="black"/>
</g>
</g>
</g>
</g>
<defs>
<clipPath id="clip0_0_1">
<rect width="3300" height="2200" fill="white"/>
</clipPath>
</defs>
</svg>
