<svg width="3300" height="2200" viewBox="0 0 3300 2200" fill="none" xmlns="http://www.w3.org/2000/svg">
<rect width="3300" height="2200" fill="#E5E5E5"/>
<g id="System / Solid / Person Add" clip-path="url(#clip0_805_27002)">
<g id="Notes">
<path id="artboard" d="M3300 0H0V2200H3300V0Z" fill="white"/>
<path id="Vector" d="M263 292H3036" stroke="black" stroke-width="0.5"/>
<text id="Weight/Scale Variations" fill="black" xml:space="preserve" style="white-space: pre" font-family="Roboto" font-size="12" letter-spacing="0em"><tspan x="263" y="321.102">Weight/Scale Variations</tspan></text>
<text id="Ultralight" fill="black" xml:space="preserve" style="white-space: pre" font-family="Roboto" font-size="12" letter-spacing="0em"><tspan x="535.211" y="321.102">Ultralight</tspan></text>
<text id="Thin" fill="black" xml:space="preserve" style="white-space: pre" font-family="Roboto" font-size="12" letter-spacing="0em"><tspan x="844.422" y="321.102">Thin</tspan></text>
<text id="Light" fill="black" xml:space="preserve" style="white-space: pre" font-family="Roboto" font-size="12" letter-spacing="0em"><tspan x="1139.63" y="321.102">Light</tspan></text>
<text id="Regular" fill="black" xml:space="preserve" style="white-space: pre" font-family="Roboto" font-size="12" letter-spacing="0em"><tspan x="1429.34" y="321.102">Regular</tspan></text>
<text id="Medium" fill="black" xml:space="preserve" style="white-space: pre" font-family="Roboto" font-size="12" letter-spacing="0em"><tspan x="1724.56" y="321.102">Medium</tspan></text>
<text id="Semibold" fill="black" xml:space="preserve" style="white-space: pre" font-family="Roboto" font-size="12" letter-spacing="0em"><tspan x="2017.77" y="321.102">Semibold</tspan></text>
<text id="Bold" fill="black" xml:space="preserve" style="white-space: pre" font-family="Roboto" font-size="12" letter-spacing="0em"><tspan x="2327.48" y="321.102">Bold</tspan></text>
<text id="Heavy" fill="black" xml:space="preserve" style="white-space: pre" font-family="Roboto" font-size="12" letter-spacing="0em"><tspan x="2620.19" y="321.102">Heavy</tspan></text>
<text id="Black" fill="black" xml:space="preserve" style="white-space: pre" font-family="Roboto" font-size="12" letter-spacing="0em"><tspan x="2918.4" y="321.102">Black</tspan></text>
<path id="Vector_2" d="M263 1903H3036" stroke="black" stroke-width="0.5"/>
<g id="Group">
<path id="Vector_3" d="M272.248 1933.83C276.555 1933.83 280.139 1930.26 280.139 1925.95C280.139 1921.64 276.545 1918.07 272.238 1918.07C267.941 1918.07 264.367 1921.64 264.367 1925.95C264.367 1930.26 267.951 1933.83 272.248 1933.83ZM272.248 1932.35C268.703 1932.35 265.871 1929.51 265.871 1925.95C265.871 1922.4 268.693 1919.55 272.238 1919.55C275.793 1919.55 278.635 1922.4 278.644 1925.95C278.654 1929.51 275.803 1932.35 272.248 1932.35ZM272.229 1929.57C272.697 1929.57 272.971 1929.26 272.971 1928.74V1926.68H275.197C275.695 1926.68 276.037 1926.43 276.037 1925.96C276.037 1925.48 275.715 1925.22 275.197 1925.22H272.971V1922.99C272.971 1922.47 272.697 1922.15 272.229 1922.15C271.76 1922.15 271.506 1922.49 271.506 1922.99V1925.22H269.299C268.781 1925.22 268.449 1925.48 268.449 1925.96C268.449 1926.43 268.801 1926.68 269.299 1926.68H271.506V1928.74C271.506 1929.24 271.76 1929.57 272.229 1929.57Z" fill="black"/>
</g>
<g id="Group_2">
<path id="Vector_4" d="M293.215 1935.91C298.664 1935.91 303.176 1931.4 303.176 1925.95C303.176 1920.51 298.654 1915.99 293.205 1915.99C287.766 1915.99 283.254 1920.51 283.254 1925.95C283.254 1931.4 287.775 1935.91 293.215 1935.91ZM293.215 1934.25C288.605 1934.25 284.924 1930.56 284.924 1925.95C284.924 1921.35 288.596 1917.65 293.205 1917.65C297.814 1917.65 301.506 1921.35 301.516 1925.95C301.525 1930.56 297.824 1934.25 293.215 1934.25ZM293.195 1930.59C293.713 1930.59 294.025 1930.23 294.025 1929.66V1926.77H297.082C297.629 1926.77 298.01 1926.49 298.01 1925.97C298.01 1925.44 297.648 1925.14 297.082 1925.14H294.025V1922.07C294.025 1921.5 293.713 1921.14 293.195 1921.14C292.678 1921.14 292.385 1921.52 292.385 1922.07V1925.14H289.338C288.771 1925.14 288.4 1925.44 288.4 1925.97C288.4 1926.49 288.791 1926.77 289.338 1926.77H292.385V1929.66C292.385 1930.21 292.678 1930.59 293.195 1930.59Z" fill="black"/>
</g>
<g id="Group_3">
<path id="Vector_5" d="M319.895 1938.67C326.857 1938.67 332.619 1932.92 332.619 1925.96C332.619 1918.99 326.848 1913.24 319.885 1913.24C312.932 1913.24 307.18 1918.99 307.18 1925.96C307.18 1932.92 312.941 1938.67 319.895 1938.67ZM319.895 1936.86C313.859 1936.86 309.006 1931.99 309.006 1925.96C309.006 1919.92 313.85 1915.06 319.885 1915.06C325.93 1915.06 330.783 1919.92 330.793 1925.96C330.803 1931.99 325.939 1936.86 319.895 1936.86ZM319.875 1931.93C320.441 1931.93 320.793 1931.54 320.793 1930.94V1926.87H325.031C325.617 1926.87 326.037 1926.53 326.037 1925.98C326.037 1925.4 325.647 1925.06 325.031 1925.06H320.793V1920.81C320.793 1920.2 320.441 1919.8 319.875 1919.8C319.309 1919.8 318.986 1920.21 318.986 1920.81V1925.06H314.758C314.143 1925.06 313.732 1925.4 313.732 1925.98C313.732 1926.53 314.162 1926.87 314.758 1926.87H318.986V1930.94C318.986 1931.52 319.309 1931.93 319.875 1931.93Z" fill="black"/>
</g>
<text id="Design Variations" fill="black" xml:space="preserve" style="white-space: pre" font-family="Roboto" font-size="12" letter-spacing="0em"><tspan x="263" y="1952.1">Design Variations</tspan></text>
<text id="Symbols are supported in up to nine weights and three scales." fill="black" xml:space="preserve" style="white-space: pre" font-family="Roboto" font-size="12" letter-spacing="0em"><tspan x="263" y="1970.1">Symbols are supported in up to nine weights and three scales.</tspan></text>
<text id="For optimal layout with text and other symbols, vertically align" fill="black" xml:space="preserve" style="white-space: pre" font-family="Roboto" font-size="12" letter-spacing="0em"><tspan x="263" y="1988.1">For optimal layout with text and other symbols, vertically align</tspan></text>
<text id="symbols with the adjacent text." fill="black" xml:space="preserve" style="white-space: pre" font-family="Roboto" font-size="12" letter-spacing="0em"><tspan x="263" y="2006.1">symbols with the adjacent text.</tspan></text>
<path id="Vector_6" opacity="0.4" d="M779 1919H776V1933H779V1919Z" fill="#00AEEF"/>
<g id="Group_4">
<path id="Vector_7" d="M789.525 1933H791.371L786.176 1918.91H784.437L779.242 1933H781.088L782.504 1928.96H788.109L789.525 1933ZM785.277 1921.04H785.336L787.592 1927.47H783.021L785.277 1921.04Z" fill="black"/>
</g>
<path id="Vector_8" opacity="0.4" d="M794.617 1919H791.617V1933H794.617V1919Z" fill="#00AEEF"/>
<text id="Margins" fill="black" xml:space="preserve" style="white-space: pre" font-family="Roboto" font-size="12" letter-spacing="0em"><tspan x="776" y="1952.1">Margins</tspan></text>
<text id="Leading and trailing margins on the left and right side of each symbol" fill="black" xml:space="preserve" style="white-space: pre" font-family="Roboto" font-size="12" letter-spacing="0em"><tspan x="776" y="1970.1">Leading and trailing margins on the left and right side of each symbol</tspan></text>
<text id="can be adjusted by modifying the width of the blue rectangles." fill="black" xml:space="preserve" style="white-space: pre" font-family="Roboto" font-size="12" letter-spacing="0em"><tspan x="776" y="1988.1">can be adjusted by modifying the width of the blue rectangles.</tspan></text>
<text id="Modifications are automatically applied proportionally to all" fill="black" xml:space="preserve" style="white-space: pre" font-family="Roboto" font-size="12" letter-spacing="0em"><tspan x="776" y="2006.1">Modifications are automatically applied proportionally to all</tspan></text>
<text id="scales and weights." fill="black" xml:space="preserve" style="white-space: pre" font-family="Roboto" font-size="12" letter-spacing="0em"><tspan x="776" y="2024.1">scales and weights.</tspan></text>
<g id="Group_5">
<path id="Vector_9" d="M1291.83 1936.11L1293.37 1937.66C1294.22 1938.49 1295.19 1938.42 1296.06 1937.46L1306.27 1926.34C1306.7 1926.63 1307.1 1926.62 1307.56 1926.52L1308.61 1926.31L1309.3 1927L1309.25 1927.52C1309.19 1928.05 1309.35 1928.47 1309.85 1928.97L1310.66 1929.78C1311.17 1930.28 1311.82 1930.31 1312.3 1929.83L1315.55 1926.58C1316.03 1926.1 1316.01 1925.45 1315.5 1924.94L1314.68 1924.12C1314.19 1923.62 1313.77 1923.45 1313.24 1923.53L1312.71 1923.58L1312.06 1922.92L1312.34 1921.78C1312.49 1921.21 1312.34 1920.74 1311.71 1920.14L1309.3 1917.75C1305.76 1914.22 1301.23 1914.33 1298.11 1917.46C1297.69 1917.89 1297.64 1918.48 1297.92 1918.91C1298.15 1919.28 1298.63 1919.5 1299.27 1919.34C1300.79 1918.96 1302.3 1919.07 1303.78 1920.08L1303.16 1921.66C1302.93 1922.25 1302.94 1922.73 1303.18 1923.16L1292.02 1933.44C1291.08 1934.31 1290.97 1935.25 1291.83 1936.11ZM1299.67 1917.85C1302.34 1915.86 1305.65 1916.17 1308.05 1918.58L1310.68 1921.19C1310.91 1921.43 1310.94 1921.61 1310.88 1921.91L1310.5 1923.47L1312.08 1925.04L1313.04 1924.95C1313.33 1924.92 1313.41 1924.94 1313.64 1925.17L1314.26 1925.79L1311.51 1928.54L1310.88 1927.92C1310.66 1927.7 1310.64 1927.6 1310.67 1927.32L1310.76 1926.36L1309.19 1924.8L1307.57 1925.11C1307.29 1925.17 1307.14 1925.17 1306.91 1924.92L1304.73 1922.75C1304.51 1922.51 1304.48 1922.37 1304.61 1922.05L1305.55 1919.78C1303.95 1918.24 1301.84 1917.39 1299.8 1918.05C1299.71 1918.08 1299.64 1918.06 1299.61 1918.02C1299.59 1917.97 1299.59 1917.92 1299.67 1917.85ZM1293.1 1935.41C1292.61 1934.91 1292.79 1934.61 1293.12 1934.31L1304.08 1924.19L1305.31 1925.42L1295.15 1936.35C1294.85 1936.68 1294.47 1936.78 1294.07 1936.38L1293.1 1935.41Z" fill="black"/>
</g>
<text id="Exporting" fill="black" xml:space="preserve" style="white-space: pre" font-family="Roboto" font-size="12" letter-spacing="0em"><tspan x="1289" y="1952.1">Exporting</tspan></text>
<text id="Symbols should be outlined when exporting to ensure the" fill="black" xml:space="preserve" style="white-space: pre" font-family="Roboto" font-size="12" letter-spacing="0em"><tspan x="1289" y="1970.1">Symbols should be outlined when exporting to ensure the</tspan></text>
<text id="design is preserved when submitting to Xcode." fill="black" xml:space="preserve" style="white-space: pre" font-family="Roboto" font-size="12" letter-spacing="0em"><tspan x="1289" y="1988.1">design is preserved when submitting to Xcode.</tspan></text>
<text id="template-version" fill="black" xml:space="preserve" style="white-space: pre" font-family="Roboto" font-size="12" letter-spacing="0em"><tspan x="2958" y="1932.1">Template v.1.0</tspan></text>
<text id="Generated from pencil.circle" fill="black" xml:space="preserve" style="white-space: pre" font-family="Roboto" font-size="12" letter-spacing="0em"><tspan x="2885" y="1950.1">Generated from pencil.circle</tspan></text>
<text id="Typeset at 100 points" fill="black" xml:space="preserve" style="white-space: pre" font-family="Roboto" font-size="12" letter-spacing="0em"><tspan x="2921" y="1968.1">Typeset at 100 points</tspan></text>
<text id="Small" fill="black" xml:space="preserve" style="white-space: pre" font-family="Roboto" font-size="12" letter-spacing="0em"><tspan x="263" y="725.102">Small</tspan></text>
<text id="Medium_2" fill="black" xml:space="preserve" style="white-space: pre" font-family="Roboto" font-size="12" letter-spacing="0em"><tspan x="263" y="1155.1">Medium</tspan></text>
<text id="Large" fill="black" xml:space="preserve" style="white-space: pre" font-family="Roboto" font-size="12" letter-spacing="0em"><tspan x="263" y="1585.1">Large</tspan></text>
</g>
<g id="Guides">
<g id="H-reference">
<path id="Vector_10" d="M393.932 695.998H396.666L369.566 625.539H367.076L339.977 695.998H342.662L351.94 671.535H384.703L393.932 695.998ZM368.199 628.908H368.443L383.824 669.289H352.818L368.199 628.908Z" fill="#27AAE1"/>
</g>
<path id="Baseline-S" d="M263 696H3036" stroke="#27AAE1" stroke-width="0.577"/>
<path id="Capline-S" d="M263 626H3036" stroke="#27AAE1" stroke-width="0.577"/>
<g id="H-reference_2">
<path id="Vector_11" d="M393.932 1126H396.666L369.566 1055.54H367.076L339.977 1126H342.662L351.94 1101.54H384.703L393.932 1126ZM368.199 1058.91H368.443L383.824 1099.29H352.818L368.199 1058.91Z" fill="#27AAE1"/>
</g>
<path id="Baseline-M" d="M263 1126H3036" stroke="#27AAE1" stroke-width="0.577"/>
<path id="Capline-M" d="M263 1056H3036" stroke="#27AAE1" stroke-width="0.577"/>
<g id="H-reference_3">
<path id="Vector_12" d="M393.932 1556H396.666L369.566 1485.54H367.076L339.977 1556H342.662L351.94 1531.54H384.703L393.932 1556ZM368.199 1488.91H368.443L383.824 1529.29H352.818L368.199 1488.91Z" fill="#27AAE1"/>
</g>
<g id="Group 1">
<path id="Baseline-L" d="M263 1556H3036" stroke="#27AAE1" stroke-width="0.577"/>
<path id="Capline-L" d="M263 1486H3036" stroke="#27AAE1" stroke-width="0.577"/>
</g>
<path id="left-margin" opacity="0.4" d="M1403.04 1030.79H1394.3V1150.12H1403.04V1030.79Z" fill="#00AEEF"/>
<path id="right-margin" opacity="0.4" d="M1516.39 1030.79H1507.65V1150.12H1516.39V1030.79Z" fill="#00AEEF"/>
</g>
<g id="Symbols">
<g id="Black-L">
<g id="Solid / Person Add Solid">
<g id="Shape">
<path d="M2929 1453.5C2909.01 1453.5 2893.47 1470.9 2895.73 1490.76L2897.7 1508.05C2899.5 1523.97 2912.97 1536 2929 1536C2945.02 1536 2958.49 1523.97 2960.3 1508.05L2962.26 1490.76C2964.52 1470.9 2948.98 1453.5 2929 1453.5Z" fill="black"/>
<path d="M2928.13 1551.31C2929.1 1547.58 2926.52 1543.5 2922.65 1543.5H2915.09C2894 1543.5 2875.74 1558.15 2871.17 1578.74L2870.42 1582.11C2869.69 1585.39 2872.18 1588.5 2875.54 1588.5H2924.99C2929.33 1588.5 2931.96 1583.38 2930.25 1579.39C2928 1574.13 2926.75 1568.34 2926.75 1562.25C2926.75 1558.47 2927.23 1554.81 2928.13 1551.31Z" fill="black"/>
<path fill-rule="evenodd" clip-rule="evenodd" d="M3004 1562.25C3004 1543.61 2988.89 1528.5 2970.25 1528.5C2951.61 1528.5 2936.5 1543.61 2936.5 1562.25C2936.5 1580.89 2951.61 1596 2970.25 1596C2988.89 1596 3004 1580.89 3004 1562.25ZM2950.32 1562.25C2950.32 1559.56 2952.5 1557.37 2955.19 1557.37L2965.37 1557.37V1548.21C2965.37 1545.52 2967.55 1543.34 2970.25 1543.34C2972.94 1543.34 2975.12 1545.52 2975.12 1548.21L2975.12 1557.37H2985.3C2987.99 1557.37 2990.17 1559.56 2990.17 1562.25C2990.17 1564.94 2987.99 1567.12 2985.3 1567.12H2975.12L2975.12 1576.29C2975.12 1578.98 2972.94 1581.16 2970.25 1581.16C2967.55 1581.16 2965.37 1578.98 2965.37 1576.29V1567.12L2955.19 1567.12C2952.5 1567.12 2950.32 1564.94 2950.32 1562.25Z" fill="black"/>
</g>
</g>
</g>
<g id="Heavy-L">
<g id="Solid / Person Add Solid_2">
<g id="Shape_2">
<path d="M2633 1453.5C2613.01 1453.5 2597.47 1470.9 2599.73 1490.76L2601.7 1508.05C2603.5 1523.97 2616.97 1536 2633 1536C2649.02 1536 2662.49 1523.97 2664.3 1508.05L2666.26 1490.76C2668.52 1470.9 2652.98 1453.5 2633 1453.5Z" fill="black"/>
<path d="M2632.13 1551.31C2633.1 1547.58 2630.52 1543.5 2626.65 1543.5H2619.09C2598 1543.5 2579.74 1558.15 2575.17 1578.74L2574.42 1582.11C2573.69 1585.39 2576.18 1588.5 2579.54 1588.5H2628.99C2633.33 1588.5 2635.96 1583.38 2634.25 1579.39C2632 1574.13 2630.75 1568.34 2630.75 1562.25C2630.75 1558.47 2631.23 1554.81 2632.13 1551.31Z" fill="black"/>
<path fill-rule="evenodd" clip-rule="evenodd" d="M2708 1562.25C2708 1543.61 2692.89 1528.5 2674.25 1528.5C2655.61 1528.5 2640.5 1543.61 2640.5 1562.25C2640.5 1580.89 2655.61 1596 2674.25 1596C2692.89 1596 2708 1580.89 2708 1562.25ZM2654.32 1562.25C2654.32 1559.56 2656.5 1557.37 2659.19 1557.37L2669.37 1557.37V1548.21C2669.37 1545.52 2671.55 1543.34 2674.25 1543.34C2676.94 1543.34 2679.12 1545.52 2679.12 1548.21L2679.12 1557.37H2689.3C2691.99 1557.37 2694.17 1559.56 2694.17 1562.25C2694.17 1564.94 2691.99 1567.12 2689.3 1567.12H2679.12L2679.12 1576.29C2679.12 1578.98 2676.94 1581.16 2674.25 1581.16C2671.55 1581.16 2669.37 1578.98 2669.37 1576.29V1567.12L2659.19 1567.12C2656.5 1567.12 2654.32 1564.94 2654.32 1562.25Z" fill="black"/>
</g>
</g>
</g>
<g id="Bold-L">
<g id="Solid / Person Add Solid_3">
<g id="Shape_3">
<path d="M2337 1453.5C2317.01 1453.5 2301.47 1470.9 2303.73 1490.76L2305.7 1508.05C2307.5 1523.97 2320.97 1536 2337 1536C2353.02 1536 2366.49 1523.97 2368.3 1508.05L2370.26 1490.76C2372.52 1470.9 2356.98 1453.5 2337 1453.5Z" fill="black"/>
<path d="M2336.13 1551.31C2337.1 1547.58 2334.52 1543.5 2330.65 1543.5H2323.09C2302 1543.5 2283.74 1558.15 2279.17 1578.74L2278.42 1582.11C2277.69 1585.39 2280.18 1588.5 2283.54 1588.5H2332.99C2337.33 1588.5 2339.96 1583.38 2338.25 1579.39C2336 1574.13 2334.75 1568.34 2334.75 1562.25C2334.75 1558.47 2335.23 1554.81 2336.13 1551.31Z" fill="black"/>
<path fill-rule="evenodd" clip-rule="evenodd" d="M2412 1562.25C2412 1543.61 2396.89 1528.5 2378.25 1528.5C2359.61 1528.5 2344.5 1543.61 2344.5 1562.25C2344.5 1580.89 2359.61 1596 2378.25 1596C2396.89 1596 2412 1580.89 2412 1562.25ZM2358.32 1562.25C2358.32 1559.56 2360.5 1557.37 2363.19 1557.37L2373.37 1557.37V1548.21C2373.37 1545.52 2375.55 1543.34 2378.25 1543.34C2380.94 1543.34 2383.12 1545.52 2383.12 1548.21L2383.12 1557.37H2393.3C2395.99 1557.37 2398.17 1559.56 2398.17 1562.25C2398.17 1564.94 2395.99 1567.12 2393.3 1567.12H2383.12L2383.12 1576.29C2383.12 1578.98 2380.94 1581.16 2378.25 1581.16C2375.55 1581.16 2373.37 1578.98 2373.37 1576.29V1567.12L2363.19 1567.12C2360.5 1567.12 2358.32 1564.94 2358.32 1562.25Z" fill="black"/>
</g>
</g>
</g>
<g id="Semibold-L">
<g id="Solid / Person Add Solid_4">
<g id="Shape_4">
<path d="M2041 1453.5C2021.01 1453.5 2005.47 1470.9 2007.73 1490.76L2009.7 1508.05C2011.5 1523.97 2024.97 1536 2041 1536C2057.02 1536 2070.49 1523.97 2072.3 1508.05L2074.26 1490.76C2076.52 1470.9 2060.98 1453.5 2041 1453.5Z" fill="black"/>
<path d="M2040.13 1551.31C2041.1 1547.58 2038.52 1543.5 2034.65 1543.5H2027.09C2006 1543.5 1987.74 1558.15 1983.17 1578.74L1982.42 1582.11C1981.69 1585.39 1984.18 1588.5 1987.54 1588.5H2036.99C2041.33 1588.5 2043.96 1583.38 2042.25 1579.39C2040 1574.13 2038.75 1568.34 2038.75 1562.25C2038.75 1558.47 2039.23 1554.81 2040.13 1551.31Z" fill="black"/>
<path fill-rule="evenodd" clip-rule="evenodd" d="M2116 1562.25C2116 1543.61 2100.89 1528.5 2082.25 1528.5C2063.61 1528.5 2048.5 1543.61 2048.5 1562.25C2048.5 1580.89 2063.61 1596 2082.25 1596C2100.89 1596 2116 1580.89 2116 1562.25ZM2062.32 1562.25C2062.32 1559.56 2064.5 1557.37 2067.19 1557.37L2077.37 1557.37V1548.21C2077.37 1545.52 2079.55 1543.34 2082.25 1543.34C2084.94 1543.34 2087.12 1545.52 2087.12 1548.21L2087.12 1557.37H2097.3C2099.99 1557.37 2102.17 1559.56 2102.17 1562.25C2102.17 1564.94 2099.99 1567.12 2097.3 1567.12H2087.12L2087.12 1576.29C2087.12 1578.98 2084.94 1581.16 2082.25 1581.16C2079.55 1581.16 2077.37 1578.98 2077.37 1576.29V1567.12L2067.19 1567.12C2064.5 1567.12 2062.32 1564.94 2062.32 1562.25Z" fill="black"/>
</g>
</g>
</g>
<g id="Medium-L">
<g id="Solid / Person Add Solid_5">
<g id="Shape_5">
<path d="M1745 1453.5C1725.01 1453.5 1709.47 1470.9 1711.73 1490.76L1713.7 1508.05C1715.5 1523.97 1728.97 1536 1745 1536C1761.02 1536 1774.49 1523.97 1776.3 1508.05L1778.26 1490.76C1780.52 1470.9 1764.98 1453.5 1745 1453.5Z" fill="black"/>
<path d="M1744.13 1551.31C1745.1 1547.58 1742.52 1543.5 1738.65 1543.5H1731.09C1710 1543.5 1691.74 1558.15 1687.17 1578.74L1686.42 1582.11C1685.69 1585.39 1688.18 1588.5 1691.54 1588.5H1740.99C1745.33 1588.5 1747.96 1583.38 1746.25 1579.39C1744 1574.13 1742.75 1568.34 1742.75 1562.25C1742.75 1558.47 1743.23 1554.81 1744.13 1551.31Z" fill="black"/>
<path fill-rule="evenodd" clip-rule="evenodd" d="M1820 1562.25C1820 1543.61 1804.89 1528.5 1786.25 1528.5C1767.61 1528.5 1752.5 1543.61 1752.5 1562.25C1752.5 1580.89 1767.61 1596 1786.25 1596C1804.89 1596 1820 1580.89 1820 1562.25ZM1766.32 1562.25C1766.32 1559.56 1768.5 1557.37 1771.19 1557.37L1781.37 1557.37V1548.21C1781.37 1545.52 1783.55 1543.34 1786.25 1543.34C1788.94 1543.34 1791.12 1545.52 1791.12 1548.21L1791.12 1557.37H1801.3C1803.99 1557.37 1806.17 1559.56 1806.17 1562.25C1806.17 1564.94 1803.99 1567.12 1801.3 1567.12H1791.12L1791.12 1576.29C1791.12 1578.98 1788.94 1581.16 1786.25 1581.16C1783.55 1581.16 1781.37 1578.98 1781.37 1576.29V1567.12L1771.19 1567.12C1768.5 1567.12 1766.32 1564.94 1766.32 1562.25Z" fill="black"/>
</g>
</g>
</g>
<g id="Regular-L">
<g id="Solid / Person Add Solid_6">
<g id="Shape_6">
<path d="M1449 1453.5C1429.01 1453.5 1413.47 1470.9 1415.73 1490.76L1417.7 1508.05C1419.5 1523.97 1432.97 1536 1449 1536C1465.02 1536 1478.49 1523.97 1480.3 1508.05L1482.26 1490.76C1484.52 1470.9 1468.98 1453.5 1449 1453.5Z" fill="black"/>
<path d="M1448.13 1551.31C1449.1 1547.58 1446.52 1543.5 1442.65 1543.5H1435.09C1414 1543.5 1395.74 1558.15 1391.17 1578.74L1390.42 1582.11C1389.69 1585.39 1392.18 1588.5 1395.54 1588.5H1444.99C1449.33 1588.5 1451.96 1583.38 1450.25 1579.39C1448 1574.13 1446.75 1568.34 1446.75 1562.25C1446.75 1558.47 1447.23 1554.81 1448.13 1551.31Z" fill="black"/>
<path fill-rule="evenodd" clip-rule="evenodd" d="M1524 1562.25C1524 1543.61 1508.89 1528.5 1490.25 1528.5C1471.61 1528.5 1456.5 1543.61 1456.5 1562.25C1456.5 1580.89 1471.61 1596 1490.25 1596C1508.89 1596 1524 1580.89 1524 1562.25ZM1470.32 1562.25C1470.32 1559.56 1472.5 1557.37 1475.19 1557.37L1485.37 1557.37V1548.21C1485.37 1545.52 1487.55 1543.34 1490.25 1543.34C1492.94 1543.34 1495.12 1545.52 1495.12 1548.21L1495.12 1557.37H1505.3C1507.99 1557.37 1510.17 1559.56 1510.17 1562.25C1510.17 1564.94 1507.99 1567.12 1505.3 1567.12H1495.12L1495.12 1576.29C1495.12 1578.98 1492.94 1581.16 1490.25 1581.16C1487.55 1581.16 1485.37 1578.98 1485.37 1576.29V1567.12L1475.19 1567.12C1472.5 1567.12 1470.32 1564.94 1470.32 1562.25Z" fill="black"/>
</g>
</g>
</g>
<g id="Light-L">
<g id="Solid / Person Add Solid_7">
<g id="Shape_7">
<path d="M1153 1453.5C1133.01 1453.5 1117.47 1470.9 1119.73 1490.76L1121.7 1508.05C1123.5 1523.97 1136.97 1536 1153 1536C1169.02 1536 1182.49 1523.97 1184.3 1508.05L1186.26 1490.76C1188.52 1470.9 1172.98 1453.5 1153 1453.5Z" fill="black"/>
<path d="M1152.13 1551.31C1153.1 1547.58 1150.52 1543.5 1146.65 1543.5H1139.09C1118 1543.5 1099.74 1558.15 1095.17 1578.74L1094.42 1582.11C1093.69 1585.39 1096.18 1588.5 1099.54 1588.5H1148.99C1153.33 1588.5 1155.96 1583.38 1154.25 1579.39C1152 1574.13 1150.75 1568.34 1150.75 1562.25C1150.75 1558.47 1151.23 1554.81 1152.13 1551.31Z" fill="black"/>
<path fill-rule="evenodd" clip-rule="evenodd" d="M1228 1562.25C1228 1543.61 1212.89 1528.5 1194.25 1528.5C1175.61 1528.5 1160.5 1543.61 1160.5 1562.25C1160.5 1580.89 1175.61 1596 1194.25 1596C1212.89 1596 1228 1580.89 1228 1562.25ZM1174.32 1562.25C1174.32 1559.56 1176.5 1557.37 1179.19 1557.37L1189.37 1557.37V1548.21C1189.37 1545.52 1191.55 1543.34 1194.25 1543.34C1196.94 1543.34 1199.12 1545.52 1199.12 1548.21L1199.12 1557.37H1209.3C1211.99 1557.37 1214.17 1559.56 1214.17 1562.25C1214.17 1564.94 1211.99 1567.12 1209.3 1567.12H1199.12L1199.12 1576.29C1199.12 1578.98 1196.94 1581.16 1194.25 1581.16C1191.55 1581.16 1189.37 1578.98 1189.37 1576.29V1567.12L1179.19 1567.12C1176.5 1567.12 1174.32 1564.94 1174.32 1562.25Z" fill="black"/>
</g>
</g>
</g>
<g id="Thin-L">
<g id="Solid / Person Add Solid_8">
<g id="Shape_8">
<path d="M856.996 1453.5C837.009 1453.5 821.474 1470.9 823.731 1490.76L825.696 1508.05C827.505 1523.97 840.975 1536 856.996 1536C873.018 1536 886.488 1523.97 888.297 1508.05L890.262 1490.76C892.519 1470.9 876.984 1453.5 856.996 1453.5Z" fill="black"/>
<path d="M856.132 1551.31C857.101 1547.58 854.515 1543.5 850.652 1543.5H843.094C822.003 1543.5 803.741 1558.15 799.166 1578.74L798.416 1582.11C797.688 1585.39 800.183 1588.5 803.541 1588.5H852.99C857.329 1588.5 859.965 1583.38 858.254 1579.39C855.996 1574.13 854.746 1568.34 854.746 1562.25C854.746 1558.47 855.228 1554.81 856.132 1551.31Z" fill="black"/>
<path fill-rule="evenodd" clip-rule="evenodd" d="M931.996 1562.25C931.996 1543.61 916.886 1528.5 898.246 1528.5C879.607 1528.5 864.496 1543.61 864.496 1562.25C864.496 1580.89 879.607 1596 898.246 1596C916.886 1596 931.996 1580.89 931.996 1562.25ZM878.319 1562.25C878.319 1559.56 880.502 1557.37 883.194 1557.37L893.371 1557.37V1548.21C893.371 1545.52 895.554 1543.34 898.246 1543.34C900.939 1543.34 903.121 1545.52 903.121 1548.21L903.121 1557.37H913.299C915.992 1557.37 918.174 1559.56 918.174 1562.25C918.174 1564.94 915.992 1567.12 913.299 1567.12H903.121L903.121 1576.29C903.121 1578.98 900.939 1581.16 898.246 1581.16C895.554 1581.16 893.371 1578.98 893.371 1576.29V1567.12L883.194 1567.12C880.502 1567.12 878.319 1564.94 878.319 1562.25Z" fill="black"/>
</g>
</g>
</g>
<g id="Ultralight-L">
<g id="Solid / Person Add Solid_9">
<g id="Shape_9">
<path d="M560.996 1453.5C541.009 1453.5 525.474 1470.9 527.731 1490.76L529.696 1508.05C531.505 1523.97 544.975 1536 560.996 1536C577.018 1536 590.488 1523.97 592.297 1508.05L594.262 1490.76C596.519 1470.9 580.984 1453.5 560.996 1453.5Z" fill="black"/>
<path d="M560.132 1551.31C561.101 1547.58 558.515 1543.5 554.652 1543.5H547.094C526.003 1543.5 507.741 1558.15 503.166 1578.74L502.416 1582.11C501.688 1585.39 504.183 1588.5 507.541 1588.5H556.99C561.329 1588.5 563.965 1583.38 562.254 1579.39C559.996 1574.13 558.746 1568.34 558.746 1562.25C558.746 1558.47 559.228 1554.81 560.132 1551.31Z" fill="black"/>
<path fill-rule="evenodd" clip-rule="evenodd" d="M635.996 1562.25C635.996 1543.61 620.886 1528.5 602.246 1528.5C583.607 1528.5 568.496 1543.61 568.496 1562.25C568.496 1580.89 583.607 1596 602.246 1596C620.886 1596 635.996 1580.89 635.996 1562.25ZM582.319 1562.25C582.319 1559.56 584.502 1557.37 587.194 1557.37L597.371 1557.37V1548.21C597.371 1545.52 599.554 1543.34 602.246 1543.34C604.939 1543.34 607.121 1545.52 607.121 1548.21L607.121 1557.37H617.299C619.992 1557.37 622.174 1559.56 622.174 1562.25C622.174 1564.94 619.992 1567.12 617.299 1567.12H607.121L607.121 1576.29C607.121 1578.98 604.939 1581.16 602.246 1581.16C599.554 1581.16 597.371 1578.98 597.371 1576.29V1567.12L587.194 1567.12C584.502 1567.12 582.319 1564.94 582.319 1562.25Z" fill="black"/>
</g>
</g>
</g>
<g id="Black-M">
<g id="Solid / Person Add Solid_10">
<g id="Shape_10">
<path d="M2929 1038.5C2913.45 1038.5 2901.37 1052.03 2903.12 1067.48L2904.65 1080.93C2906.06 1093.31 2916.54 1102.67 2929 1102.67C2941.46 1102.67 2951.94 1093.31 2953.34 1080.93L2954.87 1067.48C2956.63 1052.03 2944.54 1038.5 2929 1038.5Z" fill="black"/>
<path d="M2928.33 1114.58C2929.08 1111.67 2927.07 1108.5 2924.06 1108.5H2918.18C2901.78 1108.5 2887.58 1119.89 2884.02 1135.91L2883.43 1138.53C2882.87 1141.08 2884.81 1143.5 2887.42 1143.5H2925.88C2929.26 1143.5 2931.31 1139.52 2929.98 1136.41C2928.22 1132.32 2927.25 1127.82 2927.25 1123.08C2927.25 1120.15 2927.62 1117.3 2928.33 1114.58Z" fill="black"/>
<path fill-rule="evenodd" clip-rule="evenodd" d="M2987.33 1123.08C2987.33 1108.59 2975.58 1096.83 2961.08 1096.83C2946.58 1096.83 2934.83 1108.59 2934.83 1123.08C2934.83 1137.58 2946.58 1149.33 2961.08 1149.33C2975.58 1149.33 2987.33 1137.58 2987.33 1123.08ZM2945.58 1123.08C2945.58 1120.99 2947.28 1119.29 2949.37 1119.29H2957.29V1112.17C2957.29 1110.07 2958.99 1108.37 2961.08 1108.37C2963.17 1108.37 2964.87 1110.07 2964.87 1112.17V1119.29H2972.79C2974.88 1119.29 2976.58 1120.99 2976.58 1123.08C2976.58 1125.18 2974.88 1126.87 2972.79 1126.87H2964.87V1134C2964.87 1136.09 2963.17 1137.79 2961.08 1137.79C2958.99 1137.79 2957.29 1136.09 2957.29 1134V1126.87H2949.37C2947.28 1126.87 2945.58 1125.18 2945.58 1123.08Z" fill="black"/>
</g>
</g>
</g>
<g id="Heavy-M">
<g id="Solid / Person Add Solid_11">
<g id="Shape_11">
<path d="M2633 1038.5C2617.45 1038.5 2605.37 1052.03 2607.12 1067.48L2608.65 1080.93C2610.06 1093.31 2620.54 1102.67 2633 1102.67C2645.46 1102.67 2655.94 1093.31 2657.34 1080.93L2658.87 1067.48C2660.63 1052.03 2648.54 1038.5 2633 1038.5Z" fill="black"/>
<path d="M2632.33 1114.58C2633.08 1111.67 2631.07 1108.5 2628.06 1108.5H2622.18C2605.78 1108.5 2591.58 1119.89 2588.02 1135.91L2587.43 1138.53C2586.87 1141.08 2588.81 1143.5 2591.42 1143.5H2629.88C2633.26 1143.5 2635.31 1139.52 2633.98 1136.41C2632.22 1132.32 2631.25 1127.82 2631.25 1123.08C2631.25 1120.15 2631.62 1117.3 2632.33 1114.58Z" fill="black"/>
<path fill-rule="evenodd" clip-rule="evenodd" d="M2691.33 1123.08C2691.33 1108.59 2679.58 1096.83 2665.08 1096.83C2650.58 1096.83 2638.83 1108.59 2638.83 1123.08C2638.83 1137.58 2650.58 1149.33 2665.08 1149.33C2679.58 1149.33 2691.33 1137.58 2691.33 1123.08ZM2649.58 1123.08C2649.58 1120.99 2651.28 1119.29 2653.37 1119.29H2661.29V1112.17C2661.29 1110.07 2662.99 1108.37 2665.08 1108.37C2667.17 1108.37 2668.87 1110.07 2668.87 1112.17V1119.29H2676.79C2678.88 1119.29 2680.58 1120.99 2680.58 1123.08C2680.58 1125.18 2678.88 1126.87 2676.79 1126.87H2668.87V1134C2668.87 1136.09 2667.17 1137.79 2665.08 1137.79C2662.99 1137.79 2661.29 1136.09 2661.29 1134V1126.87H2653.37C2651.28 1126.87 2649.58 1125.18 2649.58 1123.08Z" fill="black"/>
</g>
</g>
</g>
<g id="Bold-M">
<g id="Solid / Person Add Solid_12">
<g id="Shape_12">
<path d="M2337 1038.5C2321.45 1038.5 2309.37 1052.03 2311.12 1067.48L2312.65 1080.93C2314.06 1093.31 2324.54 1102.67 2337 1102.67C2349.46 1102.67 2359.94 1093.31 2361.34 1080.93L2362.87 1067.48C2364.63 1052.03 2352.54 1038.5 2337 1038.5Z" fill="black"/>
<path d="M2336.33 1114.58C2337.08 1111.67 2335.07 1108.5 2332.06 1108.5H2326.18C2309.78 1108.5 2295.58 1119.89 2292.02 1135.91L2291.43 1138.53C2290.87 1141.08 2292.81 1143.5 2295.42 1143.5H2333.88C2337.26 1143.5 2339.31 1139.52 2337.98 1136.41C2336.22 1132.32 2335.25 1127.82 2335.25 1123.08C2335.25 1120.15 2335.62 1117.3 2336.33 1114.58Z" fill="black"/>
<path fill-rule="evenodd" clip-rule="evenodd" d="M2395.33 1123.08C2395.33 1108.59 2383.58 1096.83 2369.08 1096.83C2354.58 1096.83 2342.83 1108.59 2342.83 1123.08C2342.83 1137.58 2354.58 1149.33 2369.08 1149.33C2383.58 1149.33 2395.33 1137.58 2395.33 1123.08ZM2353.58 1123.08C2353.58 1120.99 2355.28 1119.29 2357.37 1119.29H2365.29V1112.17C2365.29 1110.07 2366.99 1108.37 2369.08 1108.37C2371.17 1108.37 2372.87 1110.07 2372.87 1112.17V1119.29H2380.79C2382.88 1119.29 2384.58 1120.99 2384.58 1123.08C2384.58 1125.18 2382.88 1126.87 2380.79 1126.87H2372.87V1134C2372.87 1136.09 2371.17 1137.79 2369.08 1137.79C2366.99 1137.79 2365.29 1136.09 2365.29 1134V1126.87H2357.37C2355.28 1126.87 2353.58 1125.18 2353.58 1123.08Z" fill="black"/>
</g>
</g>
</g>
<g id="Semibold-M">
<g id="Solid / Person Add Solid_13">
<g id="Shape_13">
<path d="M2041 1038.5C2025.45 1038.5 2013.37 1052.03 2015.12 1067.48L2016.65 1080.93C2018.06 1093.31 2028.54 1102.67 2041 1102.67C2053.46 1102.67 2063.94 1093.31 2065.34 1080.93L2066.87 1067.48C2068.63 1052.03 2056.54 1038.5 2041 1038.5Z" fill="black"/>
<path d="M2040.33 1114.58C2041.08 1111.67 2039.07 1108.5 2036.06 1108.5H2030.18C2013.78 1108.5 1999.58 1119.89 1996.02 1135.91L1995.43 1138.53C1994.87 1141.08 1996.81 1143.5 1999.42 1143.5H2037.88C2041.26 1143.5 2043.31 1139.52 2041.98 1136.41C2040.22 1132.32 2039.25 1127.82 2039.25 1123.08C2039.25 1120.15 2039.62 1117.3 2040.33 1114.58Z" fill="black"/>
<path fill-rule="evenodd" clip-rule="evenodd" d="M2099.33 1123.08C2099.33 1108.59 2087.58 1096.83 2073.08 1096.83C2058.58 1096.83 2046.83 1108.59 2046.83 1123.08C2046.83 1137.58 2058.58 1149.33 2073.08 1149.33C2087.58 1149.33 2099.33 1137.58 2099.33 1123.08ZM2057.58 1123.08C2057.58 1120.99 2059.28 1119.29 2061.37 1119.29H2069.29V1112.17C2069.29 1110.07 2070.99 1108.37 2073.08 1108.37C2075.17 1108.37 2076.87 1110.07 2076.87 1112.17V1119.29H2084.79C2086.88 1119.29 2088.58 1120.99 2088.58 1123.08C2088.58 1125.18 2086.88 1126.87 2084.79 1126.87H2076.87V1134C2076.87 1136.09 2075.17 1137.79 2073.08 1137.79C2070.99 1137.79 2069.29 1136.09 2069.29 1134V1126.87H2061.37C2059.28 1126.87 2057.58 1125.18 2057.58 1123.08Z" fill="black"/>
</g>
</g>
</g>
<g id="Medium-M">
<g id="Solid / Person Add Solid_14">
<g id="Shape_14">
<path d="M1745 1038.5C1729.45 1038.5 1717.37 1052.03 1719.12 1067.48L1720.65 1080.93C1722.06 1093.31 1732.54 1102.67 1745 1102.67C1757.46 1102.67 1767.94 1093.31 1769.34 1080.93L1770.87 1067.48C1772.63 1052.03 1760.54 1038.5 1745 1038.5Z" fill="black"/>
<path d="M1744.33 1114.58C1745.08 1111.67 1743.07 1108.5 1740.06 1108.5H1734.18C1717.78 1108.5 1703.58 1119.89 1700.02 1135.91L1699.43 1138.53C1698.87 1141.08 1700.81 1143.5 1703.42 1143.5H1741.88C1745.26 1143.5 1747.31 1139.52 1745.98 1136.41C1744.22 1132.32 1743.25 1127.82 1743.25 1123.08C1743.25 1120.15 1743.62 1117.3 1744.33 1114.58Z" fill="black"/>
<path fill-rule="evenodd" clip-rule="evenodd" d="M1803.33 1123.08C1803.33 1108.59 1791.58 1096.83 1777.08 1096.83C1762.58 1096.83 1750.83 1108.59 1750.83 1123.08C1750.83 1137.58 1762.58 1149.33 1777.08 1149.33C1791.58 1149.33 1803.33 1137.58 1803.33 1123.08ZM1761.58 1123.08C1761.58 1120.99 1763.28 1119.29 1765.37 1119.29H1773.29V1112.17C1773.29 1110.07 1774.99 1108.37 1777.08 1108.37C1779.17 1108.37 1780.87 1110.07 1780.87 1112.17V1119.29H1788.79C1790.88 1119.29 1792.58 1120.99 1792.58 1123.08C1792.58 1125.18 1790.88 1126.87 1788.79 1126.87H1780.87V1134C1780.87 1136.09 1779.17 1137.79 1777.08 1137.79C1774.99 1137.79 1773.29 1136.09 1773.29 1134V1126.87H1765.37C1763.28 1126.87 1761.58 1125.18 1761.58 1123.08Z" fill="black"/>
</g>
</g>
</g>
<g id="Regular-M">
<g id="Solid / Person Add Solid_15">
<g id="Shape_15">
<path d="M1449 1038.5C1433.45 1038.5 1421.37 1052.03 1423.12 1067.48L1424.65 1080.93C1426.06 1093.31 1436.54 1102.67 1449 1102.67C1461.46 1102.67 1471.94 1093.31 1473.34 1080.93L1474.87 1067.48C1476.63 1052.03 1464.54 1038.5 1449 1038.5Z" fill="black"/>
<path d="M1448.33 1114.58C1449.08 1111.67 1447.07 1108.5 1444.06 1108.5H1438.18C1421.78 1108.5 1407.58 1119.89 1404.02 1135.91L1403.43 1138.53C1402.87 1141.08 1404.81 1143.5 1407.42 1143.5H1445.88C1449.26 1143.5 1451.31 1139.52 1449.98 1136.41C1448.22 1132.32 1447.25 1127.82 1447.25 1123.08C1447.25 1120.15 1447.62 1117.3 1448.33 1114.58Z" fill="black"/>
<path fill-rule="evenodd" clip-rule="evenodd" d="M1507.33 1123.08C1507.33 1108.59 1495.58 1096.83 1481.08 1096.83C1466.58 1096.83 1454.83 1108.59 1454.83 1123.08C1454.83 1137.58 1466.58 1149.33 1481.08 1149.33C1495.58 1149.33 1507.33 1137.58 1507.33 1123.08ZM1465.58 1123.08C1465.58 1120.99 1467.28 1119.29 1469.37 1119.29H1477.29V1112.17C1477.29 1110.07 1478.99 1108.37 1481.08 1108.37C1483.17 1108.37 1484.87 1110.07 1484.87 1112.17V1119.29H1492.79C1494.88 1119.29 1496.58 1120.99 1496.58 1123.08C1496.58 1125.18 1494.88 1126.87 1492.79 1126.87H1484.87V1134C1484.87 1136.09 1483.17 1137.79 1481.08 1137.79C1478.99 1137.79 1477.29 1136.09 1477.29 1134V1126.87H1469.37C1467.28 1126.87 1465.58 1125.18 1465.58 1123.08Z" fill="black"/>
</g>
</g>
</g>
<g id="Light-M">
<g id="Solid / Person Add Solid_16">
<g id="Shape_16">
<path d="M1153 1038.5C1137.45 1038.5 1125.37 1052.03 1127.12 1067.48L1128.65 1080.93C1130.06 1093.31 1140.54 1102.67 1153 1102.67C1165.46 1102.67 1175.94 1093.31 1177.34 1080.93L1178.87 1067.48C1180.63 1052.03 1168.54 1038.5 1153 1038.5Z" fill="black"/>
<path d="M1152.33 1114.58C1153.08 1111.67 1151.07 1108.5 1148.06 1108.5H1142.18C1125.78 1108.5 1111.58 1119.89 1108.02 1135.91L1107.43 1138.53C1106.87 1141.08 1108.81 1143.5 1111.42 1143.5H1149.88C1153.26 1143.5 1155.31 1139.52 1153.98 1136.41C1152.22 1132.32 1151.25 1127.82 1151.25 1123.08C1151.25 1120.15 1151.62 1117.3 1152.33 1114.58Z" fill="black"/>
<path fill-rule="evenodd" clip-rule="evenodd" d="M1211.33 1123.08C1211.33 1108.59 1199.58 1096.83 1185.08 1096.83C1170.58 1096.83 1158.83 1108.59 1158.83 1123.08C1158.83 1137.58 1170.58 1149.33 1185.08 1149.33C1199.58 1149.33 1211.33 1137.58 1211.33 1123.08ZM1169.58 1123.08C1169.58 1120.99 1171.28 1119.29 1173.37 1119.29H1181.29V1112.17C1181.29 1110.07 1182.99 1108.37 1185.08 1108.37C1187.17 1108.37 1188.87 1110.07 1188.87 1112.17V1119.29H1196.79C1198.88 1119.29 1200.58 1120.99 1200.58 1123.08C1200.58 1125.18 1198.88 1126.87 1196.79 1126.87H1188.87V1134C1188.87 1136.09 1187.17 1137.79 1185.08 1137.79C1182.99 1137.79 1181.29 1136.09 1181.29 1134V1126.87H1173.37C1171.28 1126.87 1169.58 1125.18 1169.58 1123.08Z" fill="black"/>
</g>
</g>
</g>
<g id="Thin-M">
<g id="Solid / Person Add Solid_17">
<g id="Shape_17">
<path d="M856.997 1038.5C841.451 1038.5 829.368 1052.03 831.124 1067.48L832.652 1080.93C834.059 1093.31 844.536 1102.67 856.997 1102.67C869.459 1102.67 879.935 1093.31 881.342 1080.93L882.871 1067.48C884.626 1052.03 872.543 1038.5 856.997 1038.5Z" fill="black"/>
<path d="M856.325 1114.58C857.078 1111.67 855.067 1108.5 852.063 1108.5H846.184C829.78 1108.5 815.576 1119.89 812.018 1135.91L811.435 1138.53C810.868 1141.08 812.809 1143.5 815.421 1143.5H853.881C857.256 1143.5 859.306 1139.52 857.975 1136.41C856.219 1132.32 855.247 1127.82 855.247 1123.08C855.247 1120.15 855.622 1117.3 856.325 1114.58Z" fill="black"/>
<path fill-rule="evenodd" clip-rule="evenodd" d="M915.331 1123.08C915.331 1108.59 903.578 1096.83 889.081 1096.83C874.583 1096.83 862.831 1108.59 862.831 1123.08C862.831 1137.58 874.583 1149.33 889.081 1149.33C903.578 1149.33 915.331 1137.58 915.331 1123.08ZM873.581 1123.08C873.581 1120.99 875.279 1119.29 877.373 1119.29H885.289V1112.17C885.289 1110.07 886.986 1108.37 889.081 1108.37C891.175 1108.37 892.872 1110.07 892.872 1112.17V1119.29H900.788C902.882 1119.29 904.58 1120.99 904.58 1123.08C904.58 1125.18 902.882 1126.87 900.788 1126.87H892.872V1134C892.872 1136.09 891.175 1137.79 889.081 1137.79C886.986 1137.79 885.289 1136.09 885.289 1134V1126.87H877.373C875.279 1126.87 873.581 1125.18 873.581 1123.08Z" fill="black"/>
</g>
</g>
</g>
<g id="Ultralight-M">
<g id="Solid / Person Add Solid_18">
<g id="Shape_18">
<path d="M560.997 1038.5C545.451 1038.5 533.368 1052.03 535.124 1067.48L536.652 1080.93C538.059 1093.31 548.536 1102.67 560.997 1102.67C573.459 1102.67 583.935 1093.31 585.342 1080.93L586.871 1067.48C588.626 1052.03 576.543 1038.5 560.997 1038.5Z" fill="black"/>
<path d="M560.325 1114.58C561.078 1111.67 559.067 1108.5 556.063 1108.5H550.184C533.78 1108.5 519.576 1119.89 516.018 1135.91L515.435 1138.53C514.868 1141.08 516.809 1143.5 519.421 1143.5H557.881C561.256 1143.5 563.306 1139.52 561.975 1136.41C560.219 1132.32 559.247 1127.82 559.247 1123.08C559.247 1120.15 559.622 1117.3 560.325 1114.58Z" fill="black"/>
<path fill-rule="evenodd" clip-rule="evenodd" d="M619.331 1123.08C619.331 1108.59 607.578 1096.83 593.081 1096.83C578.583 1096.83 566.831 1108.59 566.831 1123.08C566.831 1137.58 578.583 1149.33 593.081 1149.33C607.578 1149.33 619.331 1137.58 619.331 1123.08ZM577.581 1123.08C577.581 1120.99 579.279 1119.29 581.373 1119.29H589.289V1112.17C589.289 1110.07 590.986 1108.37 593.081 1108.37C595.175 1108.37 596.872 1110.07 596.872 1112.17V1119.29H604.788C606.882 1119.29 608.58 1120.99 608.58 1123.08C608.58 1125.18 606.882 1126.87 604.788 1126.87H596.872V1134C596.872 1136.09 595.175 1137.79 593.081 1137.79C590.986 1137.79 589.289 1136.09 589.289 1134V1126.87H581.373C579.279 1126.87 577.581 1125.18 577.581 1123.08Z" fill="black"/>
</g>
</g>
</g>
<g id="Black-S">
<g id="Solid / Person Add Solid_19">
<g id="Shape_19">
<path d="M2929 623.5C2917.89 623.5 2909.26 633.167 2910.52 644.2L2911.61 653.808C2912.61 662.652 2920.1 669.333 2929 669.333C2937.9 669.333 2945.38 662.652 2946.39 653.808L2947.48 644.2C2948.73 633.167 2940.1 623.5 2929 623.5Z" fill="black"/>
<path d="M2928.52 677.842C2929.06 675.764 2927.62 673.5 2925.47 673.5H2921.27C2909.56 673.5 2899.41 681.638 2896.87 693.077L2896.45 694.951C2896.05 696.772 2897.43 698.5 2899.3 698.5H2926.77C2929.18 698.5 2930.65 695.654 2929.7 693.439C2928.44 690.517 2927.75 687.298 2927.75 683.917C2927.75 681.818 2928.02 679.783 2928.52 677.842Z" fill="black"/>
<path fill-rule="evenodd" clip-rule="evenodd" d="M2970.66 683.917C2970.66 673.561 2962.27 665.167 2951.91 665.167C2941.56 665.167 2933.16 673.561 2933.16 683.917C2933.16 694.272 2941.56 702.667 2951.91 702.667C2962.27 702.667 2970.66 694.272 2970.66 683.917ZM2940.84 683.917C2940.84 682.421 2942.06 681.208 2943.55 681.208L2949.21 681.208V676.118C2949.21 674.622 2950.42 673.41 2951.91 673.41C2953.41 673.41 2954.62 674.622 2954.62 676.118L2954.62 681.208H2960.28C2961.77 681.208 2962.99 682.421 2962.99 683.917C2962.99 685.412 2961.77 686.625 2960.28 686.625H2954.62L2954.62 691.715C2954.62 693.211 2953.41 694.423 2951.91 694.423C2950.42 694.423 2949.21 693.211 2949.21 691.715V686.625L2943.55 686.625C2942.06 686.625 2940.84 685.412 2940.84 683.917Z" fill="black"/>
</g>
</g>
</g>
<g id="Heavy-S">
<g id="Solid / Person Add Solid_20">
<g id="Shape_20">
<path d="M2633 623.5C2621.89 623.5 2613.26 633.167 2614.52 644.2L2615.61 653.808C2616.61 662.652 2624.1 669.333 2633 669.333C2641.9 669.333 2649.38 662.652 2650.39 653.808L2651.48 644.2C2652.73 633.167 2644.1 623.5 2633 623.5Z" fill="black"/>
<path d="M2632.52 677.842C2633.06 675.764 2631.62 673.5 2629.47 673.5H2625.27C2613.56 673.5 2603.41 681.638 2600.87 693.077L2600.45 694.951C2600.05 696.772 2601.43 698.5 2603.3 698.5H2630.77C2633.18 698.5 2634.65 695.654 2633.7 693.439C2632.44 690.517 2631.75 687.298 2631.75 683.917C2631.75 681.818 2632.02 679.783 2632.52 677.842Z" fill="black"/>
<path fill-rule="evenodd" clip-rule="evenodd" d="M2674.66 683.917C2674.66 673.561 2666.27 665.167 2655.91 665.167C2645.56 665.167 2637.16 673.561 2637.16 683.917C2637.16 694.272 2645.56 702.667 2655.91 702.667C2666.27 702.667 2674.66 694.272 2674.66 683.917ZM2644.84 683.917C2644.84 682.421 2646.06 681.208 2647.55 681.208L2653.21 681.208V676.118C2653.21 674.622 2654.42 673.41 2655.91 673.41C2657.41 673.41 2658.62 674.622 2658.62 676.118L2658.62 681.208H2664.28C2665.77 681.208 2666.99 682.421 2666.99 683.917C2666.99 685.412 2665.77 686.625 2664.28 686.625H2658.62L2658.62 691.715C2658.62 693.211 2657.41 694.423 2655.91 694.423C2654.42 694.423 2653.21 693.211 2653.21 691.715V686.625L2647.55 686.625C2646.06 686.625 2644.84 685.412 2644.84 683.917Z" fill="black"/>
</g>
</g>
</g>
<g id="Bold-S">
<g id="Solid / Person Add Solid_21">
<g id="Shape_21">
<path d="M2337 623.5C2325.89 623.5 2317.26 633.167 2318.52 644.2L2319.61 653.808C2320.61 662.652 2328.1 669.333 2337 669.333C2345.9 669.333 2353.38 662.652 2354.39 653.808L2355.48 644.2C2356.73 633.167 2348.1 623.5 2337 623.5Z" fill="black"/>
<path d="M2336.52 677.842C2337.06 675.764 2335.62 673.5 2333.47 673.5H2329.27C2317.56 673.5 2307.41 681.638 2304.87 693.077L2304.45 694.951C2304.05 696.772 2305.43 698.5 2307.3 698.5H2334.77C2337.18 698.5 2338.65 695.654 2337.7 693.439C2336.44 690.517 2335.75 687.298 2335.75 683.917C2335.75 681.818 2336.02 679.783 2336.52 677.842Z" fill="black"/>
<path fill-rule="evenodd" clip-rule="evenodd" d="M2378.66 683.917C2378.66 673.561 2370.27 665.167 2359.91 665.167C2349.56 665.167 2341.16 673.561 2341.16 683.917C2341.16 694.272 2349.56 702.667 2359.91 702.667C2370.27 702.667 2378.66 694.272 2378.66 683.917ZM2348.84 683.917C2348.84 682.421 2350.06 681.208 2351.55 681.208L2357.21 681.208V676.118C2357.21 674.622 2358.42 673.41 2359.91 673.41C2361.41 673.41 2362.62 674.622 2362.62 676.118L2362.62 681.208H2368.28C2369.77 681.208 2370.99 682.421 2370.99 683.917C2370.99 685.412 2369.77 686.625 2368.28 686.625H2362.62L2362.62 691.715C2362.62 693.211 2361.41 694.423 2359.91 694.423C2358.42 694.423 2357.21 693.211 2357.21 691.715V686.625L2351.55 686.625C2350.06 686.625 2348.84 685.412 2348.84 683.917Z" fill="black"/>
</g>
</g>
</g>
<g id="Semibold-S">
<g id="Solid / Person Add Solid_22">
<g id="Shape_22">
<path d="M2041 623.5C2029.89 623.5 2021.26 633.167 2022.52 644.2L2023.61 653.808C2024.61 662.652 2032.1 669.333 2041 669.333C2049.9 669.333 2057.38 662.652 2058.39 653.808L2059.48 644.2C2060.73 633.167 2052.1 623.5 2041 623.5Z" fill="black"/>
<path d="M2040.52 677.842C2041.06 675.764 2039.62 673.5 2037.47 673.5H2033.27C2021.56 673.5 2011.41 681.638 2008.87 693.077L2008.45 694.951C2008.05 696.772 2009.43 698.5 2011.3 698.5H2038.77C2041.18 698.5 2042.65 695.654 2041.7 693.439C2040.44 690.517 2039.75 687.298 2039.75 683.917C2039.75 681.818 2040.02 679.783 2040.52 677.842Z" fill="black"/>
<path fill-rule="evenodd" clip-rule="evenodd" d="M2082.66 683.917C2082.66 673.561 2074.27 665.167 2063.91 665.167C2053.56 665.167 2045.16 673.561 2045.16 683.917C2045.16 694.272 2053.56 702.667 2063.91 702.667C2074.27 702.667 2082.66 694.272 2082.66 683.917ZM2052.84 683.917C2052.84 682.421 2054.06 681.208 2055.55 681.208L2061.21 681.208V676.118C2061.21 674.622 2062.42 673.41 2063.91 673.41C2065.41 673.41 2066.62 674.622 2066.62 676.118L2066.62 681.208H2072.28C2073.77 681.208 2074.99 682.421 2074.99 683.917C2074.99 685.412 2073.77 686.625 2072.28 686.625H2066.62L2066.62 691.715C2066.62 693.211 2065.41 694.423 2063.91 694.423C2062.42 694.423 2061.21 693.211 2061.21 691.715V686.625L2055.55 686.625C2054.06 686.625 2052.84 685.412 2052.84 683.917Z" fill="black"/>
</g>
</g>
</g>
<g id="Medium-S">
<g id="Solid / Person Add Solid_23">
<g id="Shape_23">
<path d="M1745 623.5C1733.89 623.5 1725.26 633.167 1726.52 644.2L1727.61 653.808C1728.61 662.652 1736.1 669.333 1745 669.333C1753.9 669.333 1761.38 662.652 1762.39 653.808L1763.48 644.2C1764.73 633.167 1756.1 623.5 1745 623.5Z" fill="black"/>
<path d="M1744.52 677.842C1745.06 675.764 1743.62 673.5 1741.47 673.5H1737.27C1725.56 673.5 1715.41 681.638 1712.87 693.077L1712.45 694.951C1712.05 696.772 1713.43 698.5 1715.3 698.5H1742.77C1745.18 698.5 1746.65 695.654 1745.7 693.439C1744.44 690.517 1743.75 687.298 1743.75 683.917C1743.75 681.818 1744.02 679.783 1744.52 677.842Z" fill="black"/>
<path fill-rule="evenodd" clip-rule="evenodd" d="M1786.66 683.917C1786.66 673.561 1778.27 665.167 1767.91 665.167C1757.56 665.167 1749.16 673.561 1749.16 683.917C1749.16 694.272 1757.56 702.667 1767.91 702.667C1778.27 702.667 1786.66 694.272 1786.66 683.917ZM1756.84 683.917C1756.84 682.421 1758.06 681.208 1759.55 681.208L1765.21 681.208V676.118C1765.21 674.622 1766.42 673.41 1767.91 673.41C1769.41 673.41 1770.62 674.622 1770.62 676.118L1770.62 681.208H1776.28C1777.77 681.208 1778.99 682.421 1778.99 683.917C1778.99 685.412 1777.77 686.625 1776.28 686.625H1770.62L1770.62 691.715C1770.62 693.211 1769.41 694.423 1767.91 694.423C1766.42 694.423 1765.21 693.211 1765.21 691.715V686.625L1759.55 686.625C1758.06 686.625 1756.84 685.412 1756.84 683.917Z" fill="black"/>
</g>
</g>
</g>
<g id="Regular-S">
<g id="Solid / Person Add Solid_24">
<g id="Shape_24">
<path d="M1449 623.5C1437.89 623.5 1429.26 633.167 1430.52 644.2L1431.61 653.808C1432.61 662.652 1440.1 669.333 1449 669.333C1457.9 669.333 1465.38 662.652 1466.39 653.808L1467.48 644.2C1468.73 633.167 1460.1 623.5 1449 623.5Z" fill="black"/>
<path d="M1448.52 677.842C1449.06 675.764 1447.62 673.5 1445.47 673.5H1441.27C1429.56 673.5 1419.41 681.638 1416.87 693.077L1416.45 694.951C1416.05 696.772 1417.43 698.5 1419.3 698.5H1446.77C1449.18 698.5 1450.65 695.654 1449.7 693.439C1448.44 690.517 1447.75 687.298 1447.75 683.917C1447.75 681.818 1448.02 679.783 1448.52 677.842Z" fill="black"/>
<path fill-rule="evenodd" clip-rule="evenodd" d="M1490.66 683.917C1490.66 673.561 1482.27 665.167 1471.91 665.167C1461.56 665.167 1453.16 673.561 1453.16 683.917C1453.16 694.272 1461.56 702.667 1471.91 702.667C1482.27 702.667 1490.66 694.272 1490.66 683.917ZM1460.84 683.917C1460.84 682.421 1462.06 681.208 1463.55 681.208L1469.21 681.208V676.118C1469.21 674.622 1470.42 673.41 1471.91 673.41C1473.41 673.41 1474.62 674.622 1474.62 676.118L1474.62 681.208H1480.28C1481.77 681.208 1482.99 682.421 1482.99 683.917C1482.99 685.412 1481.77 686.625 1480.28 686.625H1474.62L1474.62 691.715C1474.62 693.211 1473.41 694.423 1471.91 694.423C1470.42 694.423 1469.21 693.211 1469.21 691.715V686.625L1463.55 686.625C1462.06 686.625 1460.84 685.412 1460.84 683.917Z" fill="black"/>
</g>
</g>
</g>
<g id="Light-S">
<g id="Solid / Person Add Solid_25">
<g id="Shape_25">
<path d="M1153 623.5C1141.89 623.5 1133.26 633.167 1134.52 644.2L1135.61 653.808C1136.61 662.652 1144.1 669.333 1153 669.333C1161.9 669.333 1169.38 662.652 1170.39 653.808L1171.48 644.2C1172.73 633.167 1164.1 623.5 1153 623.5Z" fill="black"/>
<path d="M1152.52 677.842C1153.06 675.764 1151.62 673.5 1149.47 673.5H1145.27C1133.56 673.5 1123.41 681.638 1120.87 693.077L1120.45 694.951C1120.05 696.772 1121.43 698.5 1123.3 698.5H1150.77C1153.18 698.5 1154.65 695.654 1153.7 693.439C1152.44 690.517 1151.75 687.298 1151.75 683.917C1151.75 681.818 1152.02 679.783 1152.52 677.842Z" fill="black"/>
<path fill-rule="evenodd" clip-rule="evenodd" d="M1194.66 683.917C1194.66 673.561 1186.27 665.167 1175.91 665.167C1165.56 665.167 1157.16 673.561 1157.16 683.917C1157.16 694.272 1165.56 702.667 1175.91 702.667C1186.27 702.667 1194.66 694.272 1194.66 683.917ZM1164.84 683.917C1164.84 682.421 1166.06 681.208 1167.55 681.208L1173.21 681.208V676.118C1173.21 674.622 1174.42 673.41 1175.91 673.41C1177.41 673.41 1178.62 674.622 1178.62 676.118L1178.62 681.208H1184.28C1185.77 681.208 1186.99 682.421 1186.99 683.917C1186.99 685.412 1185.77 686.625 1184.28 686.625H1178.62L1178.62 691.715C1178.62 693.211 1177.41 694.423 1175.91 694.423C1174.42 694.423 1173.21 693.211 1173.21 691.715V686.625L1167.55 686.625C1166.06 686.625 1164.84 685.412 1164.84 683.917Z" fill="black"/>
</g>
</g>
</g>
<g id="Thin-S">
<g id="Solid / Person Add Solid_26">
<g id="Shape_26">
<path d="M856.998 623.5C845.894 623.5 837.263 633.167 838.517 644.2L839.609 653.808C840.614 662.652 848.097 669.333 856.998 669.333C865.899 669.333 873.382 662.652 874.387 653.808L875.479 644.2C876.733 633.167 868.102 623.5 856.998 623.5Z" fill="black"/>
<path d="M856.518 677.842C857.056 675.764 855.619 673.5 853.473 673.5H849.275C837.557 673.5 827.412 681.638 824.87 693.077L824.453 694.951C824.049 696.772 825.435 698.5 827.301 698.5H854.772C857.183 698.5 858.647 695.654 857.697 693.439C856.442 690.517 855.748 687.298 855.748 683.917C855.748 681.818 856.015 679.783 856.518 677.842Z" fill="black"/>
<path fill-rule="evenodd" clip-rule="evenodd" d="M898.665 683.917C898.665 673.561 890.27 665.167 879.915 665.167C869.559 665.167 861.165 673.561 861.165 683.917C861.165 694.272 869.559 702.667 879.915 702.667C890.27 702.667 898.665 694.272 898.665 683.917ZM868.844 683.917C868.844 682.421 870.056 681.208 871.552 681.208L877.206 681.208V676.118C877.206 674.622 878.419 673.41 879.915 673.41C881.41 673.41 882.623 674.622 882.623 676.118L882.623 681.208H888.277C889.773 681.208 890.986 682.421 890.986 683.917C890.986 685.412 889.773 686.625 888.277 686.625H882.623L882.623 691.715C882.623 693.211 881.41 694.423 879.915 694.423C878.419 694.423 877.206 693.211 877.206 691.715V686.625L871.552 686.625C870.056 686.625 868.844 685.412 868.844 683.917Z" fill="black"/>
</g>
</g>
</g>
<g id="Ultralight-S">
<g id="Solid / Person Add Solid_27">
<g id="Shape_27">
<path d="M560.998 623.5C549.894 623.5 541.263 633.167 542.517 644.2L543.609 653.808C544.614 662.652 552.097 669.333 560.998 669.333C569.899 669.333 577.382 662.652 578.387 653.808L579.479 644.2C580.733 633.167 572.102 623.5 560.998 623.5Z" fill="black"/>
<path d="M560.518 677.842C561.056 675.764 559.619 673.5 557.473 673.5H553.275C541.557 673.5 531.412 681.638 528.87 693.077L528.453 694.951C528.049 696.772 529.435 698.5 531.301 698.5H558.772C561.183 698.5 562.647 695.654 561.697 693.439C560.442 690.517 559.748 687.298 559.748 683.917C559.748 681.818 560.015 679.783 560.518 677.842Z" fill="black"/>
<path fill-rule="evenodd" clip-rule="evenodd" d="M602.665 683.917C602.665 673.561 594.27 665.167 583.915 665.167C573.559 665.167 565.165 673.561 565.165 683.917C565.165 694.272 573.559 702.667 583.915 702.667C594.27 702.667 602.665 694.272 602.665 683.917ZM572.844 683.917C572.844 682.421 574.056 681.208 575.552 681.208L581.206 681.208V676.118C581.206 674.622 582.419 673.41 583.915 673.41C585.41 673.41 586.623 674.622 586.623 676.118L586.623 681.208H592.277C593.773 681.208 594.986 682.421 594.986 683.917C594.986 685.412 593.773 686.625 592.277 686.625H586.623L586.623 691.715C586.623 693.211 585.41 694.423 583.915 694.423C582.419 694.423 581.206 693.211 581.206 691.715V686.625L575.552 686.625C574.056 686.625 572.844 685.412 572.844 683.917Z" fill="black"/>
</g>
</g>
</g>
</g>
</g>
<defs>
<clipPath id="clip0_805_27002">
<rect width="3300" height="2200" fill="white"/>
</clipPath>
</defs>
</svg>
