<svg xmlns="http://www.w3.org/2000/svg" width="3300" height="2200" fill="none"><path fill="#E5E5E5" d="M0 0h3300v2200H0z"/><g id="System / Solid / Exit" clip-path="url(#clip0_805_27002)"><g id="Notes"><path id="artboard" fill="#fff" d="M3300 0H0v2200h3300V0Z"/><path id="Vector" stroke="#000" stroke-width=".5" d="M263 292h2773"/><text xml:space="preserve" id="Weight/Scale Variations" fill="#000" font-family="Roboto" font-size="12" letter-spacing="0em" style="white-space:pre"><tspan x="263" y="321.102">Weight/Scale Variations</tspan></text><text xml:space="preserve" id="Ultralight" fill="#000" font-family="Roboto" font-size="12" letter-spacing="0em" style="white-space:pre"><tspan x="535.211" y="321.102">Ultralight</tspan></text><text xml:space="preserve" id="Thin" fill="#000" font-family="Roboto" font-size="12" letter-spacing="0em" style="white-space:pre"><tspan x="844.422" y="321.102">Thin</tspan></text><text xml:space="preserve" id="Light" fill="#000" font-family="Roboto" font-size="12" letter-spacing="0em" style="white-space:pre"><tspan x="1139.63" y="321.102">Light</tspan></text><text xml:space="preserve" id="Regular" fill="#000" font-family="Roboto" font-size="12" letter-spacing="0em" style="white-space:pre"><tspan x="1429.34" y="321.102">Regular</tspan></text><text xml:space="preserve" id="Medium" fill="#000" font-family="Roboto" font-size="12" letter-spacing="0em" style="white-space:pre"><tspan x="1724.56" y="321.102">Medium</tspan></text><text xml:space="preserve" id="Semibold" fill="#000" font-family="Roboto" font-size="12" letter-spacing="0em" style="white-space:pre"><tspan x="2017.77" y="321.102">Semibold</tspan></text><text xml:space="preserve" id="Bold" fill="#000" font-family="Roboto" font-size="12" letter-spacing="0em" style="white-space:pre"><tspan x="2327.48" y="321.102">Bold</tspan></text><text xml:space="preserve" id="Heavy" fill="#000" font-family="Roboto" font-size="12" letter-spacing="0em" style="white-space:pre"><tspan x="2620.19" y="321.102">Heavy</tspan></text><text xml:space="preserve" id="Black" fill="#000" font-family="Roboto" font-size="12" letter-spacing="0em" style="white-space:pre"><tspan x="2918.4" y="321.102">Black</tspan></text><path id="Vector_2" stroke="#000" stroke-width=".5" d="M263 1903h2773"/><g id="Group"><path id="Vector_3" fill="#000" d="M272.248 1933.83c4.307 0 7.891-3.57 7.891-7.88 0-4.31-3.594-7.88-7.901-7.88-4.297 0-7.871 3.57-7.871 7.88 0 4.31 3.584 7.88 7.881 7.88Zm0-1.48c-3.545 0-6.377-2.84-6.377-6.4 0-3.55 2.822-6.4 6.367-6.4a6.388 6.388 0 0 1 6.406 6.4 6.361 6.361 0 0 1-6.396 6.4Zm-.019-2.78c.468 0 .742-.31.742-.83v-2.06h2.226c.498 0 .84-.25.84-.72 0-.48-.322-.74-.84-.74h-2.226v-2.23c0-.52-.274-.84-.742-.84-.469 0-.723.34-.723.84v2.23h-2.207c-.518 0-.85.26-.85.74 0 .47.352.72.85.72h2.207v2.06c0 .5.254.83.723.83Z"/></g><g id="Group_2"><path id="Vector_4" fill="#000" d="M293.215 1935.91c5.449 0 9.961-4.51 9.961-9.96 0-5.44-4.522-9.96-9.971-9.96-5.439 0-9.951 4.52-9.951 9.96 0 5.45 4.521 9.96 9.961 9.96Zm0-1.66a8.26 8.26 0 0 1-8.291-8.3c0-4.6 3.672-8.3 8.281-8.3a8.29 8.29 0 0 1 8.311 8.3 8.263 8.263 0 0 1-8.301 8.3Zm-.02-3.66c.518 0 .83-.36.83-.93v-2.89h3.057c.547 0 .928-.28.928-.8 0-.53-.362-.83-.928-.83h-3.057v-3.07c0-.57-.312-.93-.83-.93-.517 0-.81.38-.81.93v3.07h-3.047c-.567 0-.938.3-.938.83 0 .52.391.8.938.8h3.047v2.89c0 .55.293.93.81.93Z"/></g><g id="Group_3"><path id="Vector_5" fill="#000" d="M319.895 1938.67c6.962 0 12.724-5.75 12.724-12.71 0-6.97-5.771-12.72-12.734-12.72-6.953 0-12.705 5.75-12.705 12.72 0 6.96 5.761 12.71 12.715 12.71Zm0-1.81a10.874 10.874 0 0 1-10.889-10.9c0-6.04 4.844-10.9 10.879-10.9 6.045 0 10.898 4.86 10.908 10.9a10.87 10.87 0 0 1-10.898 10.9Zm-.02-4.93c.566 0 .918-.39.918-.99v-4.07h4.238c.586 0 1.006-.34 1.006-.89 0-.58-.39-.92-1.006-.92h-4.238v-4.25c0-.61-.352-1.01-.918-1.01-.566 0-.889.41-.889 1.01v4.25h-4.228c-.615 0-1.026.34-1.026.92 0 .55.43.89 1.026.89h4.228v4.07c0 .58.323.99.889.99Z"/></g><text xml:space="preserve" id="Design Variations" fill="#000" font-family="Roboto" font-size="12" letter-spacing="0em" style="white-space:pre"><tspan x="263" y="1952.1">Design Variations</tspan></text><text xml:space="preserve" id="Symbols are supported in up to nine weights and three scales." fill="#000" font-family="Roboto" font-size="12" letter-spacing="0em" style="white-space:pre"><tspan x="263" y="1970.1">Symbols are supported in up to nine weights and three scales.</tspan></text><text xml:space="preserve" id="For optimal layout with text and other symbols, vertically align" fill="#000" font-family="Roboto" font-size="12" letter-spacing="0em" style="white-space:pre"><tspan x="263" y="1988.1">For optimal layout with text and other symbols, vertically align</tspan></text><text xml:space="preserve" id="symbols with the adjacent text." fill="#000" font-family="Roboto" font-size="12" letter-spacing="0em" style="white-space:pre"><tspan x="263" y="2006.1">symbols with the adjacent text.</tspan></text><path id="Vector_6" fill="#00AEEF" d="M779 1919h-3v14h3v-14Z" opacity=".4"/><g id="Group_4"><path id="Vector_7" fill="#000" d="M789.525 1933h1.846l-5.195-14.09h-1.739l-5.195 14.09h1.846l1.416-4.04h5.605l1.416 4.04Zm-4.248-11.96h.059l2.256 6.43h-4.571l2.256-6.43Z"/></g><path id="Vector_8" fill="#00AEEF" d="M794.617 1919h-3v14h3v-14Z" opacity=".4"/><text xml:space="preserve" id="Margins" fill="#000" font-family="Roboto" font-size="12" letter-spacing="0em" style="white-space:pre"><tspan x="776" y="1952.1">Margins</tspan></text><text xml:space="preserve" id="Leading and trailing margins on the left and right side of each symbol" fill="#000" font-family="Roboto" font-size="12" letter-spacing="0em" style="white-space:pre"><tspan x="776" y="1970.1">Leading and trailing margins on the left and right side of each symbol</tspan></text><text xml:space="preserve" id="can be adjusted by modifying the width of the blue rectangles." fill="#000" font-family="Roboto" font-size="12" letter-spacing="0em" style="white-space:pre"><tspan x="776" y="1988.1">can be adjusted by modifying the width of the blue rectangles.</tspan></text><text xml:space="preserve" id="Modifications are automatically applied proportionally to all" fill="#000" font-family="Roboto" font-size="12" letter-spacing="0em" style="white-space:pre"><tspan x="776" y="2006.1">Modifications are automatically applied proportionally to all</tspan></text><text xml:space="preserve" id="scales and weights." fill="#000" font-family="Roboto" font-size="12" letter-spacing="0em" style="white-space:pre"><tspan x="776" y="2024.1">scales and weights.</tspan></text><g id="Group_5"><path id="Vector_9" fill="#000" d="m1291.83 1936.11 1.54 1.55c.85.83 1.82.76 2.69-.2l10.21-11.12c.43.29.83.28 1.29.18l1.05-.21.69.69-.05.52c-.06.53.1.95.6 1.45l.81.81c.51.5 1.16.53 1.64.05l3.25-3.25c.48-.48.46-1.13-.05-1.64l-.82-.82c-.49-.5-.91-.67-1.44-.59l-.53.05-.65-.66.28-1.14c.15-.57 0-1.04-.63-1.64l-2.41-2.39c-3.54-3.53-8.07-3.42-11.19-.29-.42.43-.47 1.02-.19 1.45.23.37.71.59 1.35.43 1.52-.38 3.03-.27 4.51.74l-.62 1.58c-.23.59-.22 1.07.02 1.5l-11.16 10.28c-.94.87-1.05 1.81-.19 2.67Zm7.84-18.26c2.67-1.99 5.98-1.68 8.38.73l2.63 2.61c.23.24.26.42.2.72l-.38 1.56 1.58 1.57.96-.09c.29-.03.37-.01.6.22l.62.62-2.75 2.75-.63-.62c-.22-.22-.24-.32-.21-.6l.09-.96-1.57-1.56-1.62.31c-.28.06-.43.06-.66-.19l-2.18-2.17c-.22-.24-.25-.38-.12-.7l.94-2.27c-1.6-1.54-3.71-2.39-5.75-1.73-.09.03-.16.01-.19-.03-.02-.05-.02-.1.06-.17Zm-6.57 17.56c-.49-.5-.31-.8.02-1.1l10.96-10.12 1.23 1.23-10.16 10.93c-.3.33-.68.43-1.08.03l-.97-.97Z"/></g><text xml:space="preserve" id="Exporting" fill="#000" font-family="Roboto" font-size="12" letter-spacing="0em" style="white-space:pre"><tspan x="1289" y="1952.1">Exporting</tspan></text><text xml:space="preserve" id="Symbols should be outlined when exporting to ensure the" fill="#000" font-family="Roboto" font-size="12" letter-spacing="0em" style="white-space:pre"><tspan x="1289" y="1970.1">Symbols should be outlined when exporting to ensure the</tspan></text><text xml:space="preserve" id="design is preserved when submitting to Xcode." fill="#000" font-family="Roboto" font-size="12" letter-spacing="0em" style="white-space:pre"><tspan x="1289" y="1988.1">design is preserved when submitting to Xcode.</tspan></text><text xml:space="preserve" id="template-version" fill="#000" font-family="Roboto" font-size="12" letter-spacing="0em" style="white-space:pre"><tspan x="2958" y="1932.1">Template v.1.0</tspan></text><text xml:space="preserve" id="Generated from pencil.circle" fill="#000" font-family="Roboto" font-size="12" letter-spacing="0em" style="white-space:pre"><tspan x="2885" y="1950.1">Generated from pencil.circle</tspan></text><text xml:space="preserve" id="Typeset at 100 points" fill="#000" font-family="Roboto" font-size="12" letter-spacing="0em" style="white-space:pre"><tspan x="2921" y="1968.1">Typeset at 100 points</tspan></text><text xml:space="preserve" id="Small" fill="#000" font-family="Roboto" font-size="12" letter-spacing="0em" style="white-space:pre"><tspan x="263" y="725.102">Small</tspan></text><text xml:space="preserve" id="Medium_2" fill="#000" font-family="Roboto" font-size="12" letter-spacing="0em" style="white-space:pre"><tspan x="263" y="1155.1">Medium</tspan></text><text xml:space="preserve" id="Large" fill="#000" font-family="Roboto" font-size="12" letter-spacing="0em" style="white-space:pre"><tspan x="263" y="1585.1">Large</tspan></text></g><g id="Guides"><g id="H-reference"><path id="Vector_10" fill="#27AAE1" d="M393.932 695.998h2.734l-27.1-70.459h-2.49l-27.099 70.459h2.685l9.278-24.463h32.763l9.229 24.463Zm-25.733-67.09h.244l15.381 40.381h-31.006l15.381-40.381Z"/></g><path id="Baseline-S" stroke="#27AAE1" stroke-width=".577" d="M263 696h2773"/><path id="Capline-S" stroke="#27AAE1" stroke-width=".577" d="M263 626h2773"/><g id="H-reference_2"><path id="Vector_11" fill="#27AAE1" d="M393.932 1126h2.734l-27.1-70.46h-2.49L339.977 1126h2.685l9.278-24.46h32.763l9.229 24.46Zm-25.733-67.09h.244l15.381 40.38h-31.006l15.381-40.38Z"/></g><path id="Baseline-M" stroke="#27AAE1" stroke-width=".577" d="M263 1126h2773"/><path id="Capline-M" stroke="#27AAE1" stroke-width=".577" d="M263 1056h2773"/><g id="H-reference_3"><path id="Vector_12" fill="#27AAE1" d="M393.932 1556h2.734l-27.1-70.46h-2.49L339.977 1556h2.685l9.278-24.46h32.763l9.229 24.46Zm-25.733-67.09h.244l15.381 40.38h-31.006l15.381-40.38Z"/></g><g id="Group 1" stroke="#27AAE1" stroke-width=".577"><path id="Baseline-L" d="M263 1556h2773"/><path id="Capline-L" d="M263 1486h2773"/></g><path id="left-margin" fill="#00AEEF" d="M1408.04 1030.79h-8.74v119.33h8.74v-119.33Z" opacity=".4"/><path id="right-margin" fill="#00AEEF" d="M1510.39 1030.79h-8.74v119.33h8.74v-119.33Z" opacity=".4"/></g><g id="Symbols"><g id="Black-L"><g id="Solid / Exit Solid"><g id="Shape" fill="#000"><path d="M2899 1463.25h52.5c7.04 0 12.75 5.71 12.75 12.75v2.62c0 2.7 2.18 4.88 4.87 4.88 2.7 0 4.88-2.18 4.88-4.88V1476c0-12.43-10.07-22.5-22.5-22.5H2899c-12.43 0-22.5 10.07-22.5 22.5v90c0 12.43 10.07 22.5 22.5 22.5h52.5c12.43 0 22.5-10.07 22.5-22.5v-2.63c0-2.69-2.18-4.87-4.88-4.87a4.87 4.87 0 0 0-4.87 4.87v2.63c0 7.04-5.71 12.75-12.75 12.75H2899c-1.48 0-2.91-.25-4.23-.72l16.74-9.56a14.64 14.64 0 0 0 7.36-12.7v-70.36c0-5.25-2.81-10.1-7.36-12.7l-15.81-9.03c1.06-.28 2.16-.43 3.3-.43Z"/><path d="M2966.5 1543.5a4.832 4.832 0 0 0 3.6 1.58c1.2 0 2.32-.38 3.3-1.28l20.32-19.32c2.33-2.1 2.33-5.7 0-7.8l-20.32-18.48c-2.03-1.8-5.1-1.65-6.9.3-1.8 2.02-1.72 5.1.3 6.9l11.63 10.31h-37.06a4.87 4.87 0 0 0-4.87 4.87c0 2.7 2.18 4.88 4.87 4.88h37.11l-11.68 11.14c-1.95 1.8-2.1 4.88-.3 6.9Z"/></g></g></g><g id="Heavy-L"><g id="Solid / Exit Solid_2"><g id="Shape_2" fill="#000"><path d="M2603 1463.25h52.5c7.04 0 12.75 5.71 12.75 12.75v2.62c0 2.7 2.18 4.88 4.87 4.88 2.7 0 4.88-2.18 4.88-4.88V1476c0-12.43-10.07-22.5-22.5-22.5H2603c-12.43 0-22.5 10.07-22.5 22.5v90c0 12.43 10.07 22.5 22.5 22.5h52.5c12.43 0 22.5-10.07 22.5-22.5v-2.63c0-2.69-2.18-4.87-4.88-4.87a4.87 4.87 0 0 0-4.87 4.87v2.63c0 7.04-5.71 12.75-12.75 12.75H2603c-1.48 0-2.91-.25-4.23-.72l16.74-9.56a14.64 14.64 0 0 0 7.36-12.7v-70.36c0-5.25-2.81-10.1-7.36-12.7l-15.81-9.03c1.06-.28 2.16-.43 3.3-.43Z"/><path d="M2670.5 1543.5a4.832 4.832 0 0 0 3.6 1.58c1.2 0 2.32-.38 3.3-1.28l20.32-19.32c2.33-2.1 2.33-5.7 0-7.8l-20.32-18.48c-2.03-1.8-5.1-1.65-6.9.3-1.8 2.02-1.72 5.1.3 6.9l11.63 10.31h-37.06a4.87 4.87 0 0 0-4.87 4.87c0 2.7 2.18 4.88 4.87 4.88h37.11l-11.68 11.14c-1.95 1.8-2.1 4.88-.3 6.9Z"/></g></g></g><g id="Bold-L"><g id="Solid / Exit Solid_3"><g id="Shape_3" fill="#000"><path d="M2307 1463.25h52.5c7.04 0 12.75 5.71 12.75 12.75v2.62c0 2.7 2.18 4.88 4.87 4.88 2.7 0 4.88-2.18 4.88-4.88V1476c0-12.43-10.07-22.5-22.5-22.5H2307c-12.43 0-22.5 10.07-22.5 22.5v90c0 12.43 10.07 22.5 22.5 22.5h52.5c12.43 0 22.5-10.07 22.5-22.5v-2.63c0-2.69-2.18-4.87-4.88-4.87a4.87 4.87 0 0 0-4.87 4.87v2.63c0 7.04-5.71 12.75-12.75 12.75H2307c-1.48 0-2.91-.25-4.23-.72l16.74-9.56a14.64 14.64 0 0 0 7.36-12.7v-70.36c0-5.25-2.81-10.1-7.36-12.7l-15.81-9.03c1.06-.28 2.16-.43 3.3-.43Z"/><path d="M2374.5 1543.5a4.832 4.832 0 0 0 3.6 1.58c1.2 0 2.32-.38 3.3-1.28l20.32-19.32c2.33-2.1 2.33-5.7 0-7.8l-20.32-18.48c-2.03-1.8-5.1-1.65-6.9.3-1.8 2.02-1.72 5.1.3 6.9l11.63 10.31h-37.06a4.87 4.87 0 0 0-4.87 4.87c0 2.7 2.18 4.88 4.87 4.88h37.11l-11.68 11.14c-1.95 1.8-2.1 4.88-.3 6.9Z"/></g></g></g><g id="Semibold-L"><g id="Solid / Exit Solid_4"><g id="Shape_4" fill="#000"><path d="M2011 1463.25h52.5c7.04 0 12.75 5.71 12.75 12.75v2.62c0 2.7 2.18 4.88 4.87 4.88 2.7 0 4.88-2.18 4.88-4.88V1476c0-12.43-10.07-22.5-22.5-22.5H2011c-12.43 0-22.5 10.07-22.5 22.5v90c0 12.43 10.07 22.5 22.5 22.5h52.5c12.43 0 22.5-10.07 22.5-22.5v-2.63c0-2.69-2.18-4.87-4.88-4.87a4.87 4.87 0 0 0-4.87 4.87v2.63c0 7.04-5.71 12.75-12.75 12.75H2011c-1.48 0-2.91-.25-4.23-.72l16.74-9.56a14.64 14.64 0 0 0 7.36-12.7v-70.36c0-5.25-2.81-10.1-7.36-12.7l-15.81-9.03c1.06-.28 2.16-.43 3.3-.43Z"/><path d="M2078.5 1543.5a4.832 4.832 0 0 0 3.6 1.58c1.2 0 2.32-.38 3.3-1.28l20.32-19.32c2.33-2.1 2.33-5.7 0-7.8l-20.32-18.48c-2.03-1.8-5.1-1.65-6.9.3-1.8 2.02-1.72 5.1.3 6.9l11.63 10.31h-37.06a4.87 4.87 0 0 0-4.87 4.87c0 2.7 2.18 4.88 4.87 4.88h37.11l-11.68 11.14c-1.95 1.8-2.1 4.88-.3 6.9Z"/></g></g></g><g id="Medium-L"><g id="Solid / Exit Solid_5"><g id="Shape_5" fill="#000"><path d="M1715 1463.25h52.5c7.04 0 12.75 5.71 12.75 12.75v2.62c0 2.7 2.18 4.88 4.87 4.88 2.7 0 4.88-2.18 4.88-4.88V1476c0-12.43-10.07-22.5-22.5-22.5H1715c-12.43 0-22.5 10.07-22.5 22.5v90c0 12.43 10.07 22.5 22.5 22.5h52.5c12.43 0 22.5-10.07 22.5-22.5v-2.63c0-2.69-2.18-4.87-4.88-4.87a4.87 4.87 0 0 0-4.87 4.87v2.63c0 7.04-5.71 12.75-12.75 12.75H1715c-1.48 0-2.91-.25-4.23-.72l16.74-9.56a14.64 14.64 0 0 0 7.36-12.7v-70.36c0-5.25-2.81-10.1-7.36-12.7l-15.81-9.03c1.06-.28 2.16-.43 3.3-.43Z"/><path d="M1782.5 1543.5a4.832 4.832 0 0 0 3.6 1.58c1.2 0 2.32-.38 3.3-1.28l20.32-19.32c2.33-2.1 2.33-5.7 0-7.8l-20.32-18.48c-2.03-1.8-5.1-1.65-6.9.3-1.8 2.02-1.72 5.1.3 6.9l11.63 10.31h-37.06a4.87 4.87 0 0 0-4.87 4.87c0 2.7 2.18 4.88 4.87 4.88h37.11l-11.68 11.14c-1.95 1.8-2.1 4.88-.3 6.9Z"/></g></g></g><g id="Regular-L"><g id="Solid / Exit Solid_6"><g id="Shape_6" fill="#000"><path d="M1419 1463.25h52.5c7.04 0 12.75 5.71 12.75 12.75v2.62c0 2.7 2.18 4.88 4.87 4.88 2.7 0 4.88-2.18 4.88-4.88V1476c0-12.43-10.07-22.5-22.5-22.5H1419c-12.43 0-22.5 10.07-22.5 22.5v90c0 12.43 10.07 22.5 22.5 22.5h52.5c12.43 0 22.5-10.07 22.5-22.5v-2.63c0-2.69-2.18-4.87-4.88-4.87a4.87 4.87 0 0 0-4.87 4.87v2.63c0 7.04-5.71 12.75-12.75 12.75H1419c-1.48 0-2.91-.25-4.23-.72l16.74-9.56a14.64 14.64 0 0 0 7.36-12.7v-70.36c0-5.25-2.81-10.1-7.36-12.7l-15.81-9.03c1.06-.28 2.16-.43 3.3-.43Z"/><path d="M1486.5 1543.5a4.832 4.832 0 0 0 3.6 1.58c1.2 0 2.32-.38 3.3-1.28l20.32-19.32c2.33-2.1 2.33-5.7 0-7.8l-20.32-18.48c-2.03-1.8-5.1-1.65-6.9.3-1.8 2.02-1.72 5.1.3 6.9l11.63 10.31h-37.06a4.87 4.87 0 0 0-4.87 4.87c0 2.7 2.18 4.88 4.87 4.88h37.11l-11.68 11.14c-1.95 1.8-2.1 4.88-.3 6.9Z"/></g></g></g><g id="Light-L"><g id="Solid / Exit Solid_7"><g id="Shape_7" fill="#000"><path d="M1123 1463.25h52.5c7.04 0 12.75 5.71 12.75 12.75v2.62c0 2.7 2.18 4.88 4.87 4.88 2.7 0 4.88-2.18 4.88-4.88V1476c0-12.43-10.07-22.5-22.5-22.5H1123c-12.43 0-22.5 10.07-22.5 22.5v90c0 12.43 10.07 22.5 22.5 22.5h52.5c12.43 0 22.5-10.07 22.5-22.5v-2.63c0-2.69-2.18-4.87-4.88-4.87a4.87 4.87 0 0 0-4.87 4.87v2.63c0 7.04-5.71 12.75-12.75 12.75H1123c-1.48 0-2.91-.25-4.23-.72l16.74-9.56a14.64 14.64 0 0 0 7.36-12.7v-70.36c0-5.25-2.81-10.1-7.36-12.7l-15.81-9.03c1.06-.28 2.16-.43 3.3-.43Z"/><path d="M1190.5 1543.5a4.832 4.832 0 0 0 3.6 1.58c1.2 0 2.32-.38 3.3-1.28l20.32-19.32c2.33-2.1 2.33-5.7 0-7.8l-20.32-18.48c-2.03-1.8-5.1-1.65-6.9.3-1.8 2.02-1.72 5.1.3 6.9l11.63 10.31h-37.06a4.87 4.87 0 0 0-4.87 4.87c0 2.7 2.18 4.88 4.87 4.88h37.11l-11.68 11.14c-1.95 1.8-2.1 4.88-.3 6.9Z"/></g></g></g><g id="Thin-L"><g id="Solid / Exit Solid_8"><g id="Shape_8" fill="#000"><path d="M827 1463.25h52.5c7.042 0 12.75 5.71 12.75 12.75v2.62a4.875 4.875 0 1 0 9.75 0V1476c0-12.43-10.074-22.5-22.5-22.5H827c-12.426 0-22.5 10.07-22.5 22.5v90c0 12.43 10.074 22.5 22.5 22.5h52.5c12.426 0 22.5-10.07 22.5-22.5v-2.63c0-2.69-2.183-4.87-4.875-4.87a4.873 4.873 0 0 0-4.875 4.87v2.63c0 7.04-5.708 12.75-12.75 12.75H827c-1.483 0-2.906-.25-4.229-.72l16.735-9.56a14.633 14.633 0 0 0 7.369-12.7v-70.36c0-5.25-2.812-10.1-7.369-12.7l-15.802-9.03c1.051-.28 2.156-.43 3.296-.43Z"/><path d="M894.5 1543.5a4.84 4.84 0 0 0 3.6 1.58c1.2 0 2.325-.38 3.3-1.28l20.325-19.32a5.233 5.233 0 0 0 0-7.8L901.4 1498.2c-2.025-1.8-5.1-1.65-6.9.3-1.8 2.02-1.725 5.1.3 6.9l11.629 10.31h-37.054a4.873 4.873 0 0 0-4.875 4.87c0 2.7 2.183 4.88 4.875 4.88h37.107L894.8 1536.6c-1.95 1.8-2.1 4.88-.3 6.9Z"/></g></g></g><g id="Ultralight-L"><g id="Solid / Exit Solid_9"><g id="Shape_9" fill="#000"><path d="M531 1463.25h52.5c7.042 0 12.75 5.71 12.75 12.75v2.62a4.875 4.875 0 1 0 9.75 0V1476c0-12.43-10.074-22.5-22.5-22.5H531c-12.426 0-22.5 10.07-22.5 22.5v90c0 12.43 10.074 22.5 22.5 22.5h52.5c12.426 0 22.5-10.07 22.5-22.5v-2.63c0-2.69-2.183-4.87-4.875-4.87a4.873 4.873 0 0 0-4.875 4.87v2.63c0 7.04-5.708 12.75-12.75 12.75H531c-1.483 0-2.906-.25-4.229-.72l16.735-9.56a14.633 14.633 0 0 0 7.369-12.7v-70.36c0-5.25-2.812-10.1-7.369-12.7l-15.802-9.03c1.051-.28 2.156-.43 3.296-.43Z"/><path d="M598.5 1543.5a4.84 4.84 0 0 0 3.6 1.58c1.2 0 2.325-.38 3.3-1.28l20.325-19.32a5.233 5.233 0 0 0 0-7.8L605.4 1498.2c-2.025-1.8-5.1-1.65-6.9.3-1.8 2.02-1.725 5.1.3 6.9l11.629 10.31h-37.054a4.873 4.873 0 0 0-4.875 4.87c0 2.7 2.183 4.88 4.875 4.88h37.107L598.8 1536.6c-1.95 1.8-2.1 4.88-.3 6.9Z"/></g></g></g><g id="Black-M"><g id="Solid / Exit Solid_10"><g id="Shape_10" fill="#000"><path d="M2905.67 1046.08h40.83c5.48 0 9.92 4.44 9.92 9.92v2.04c0 2.1 1.7 3.79 3.79 3.79s3.79-1.69 3.79-3.79V1056c0-9.66-7.83-17.5-17.5-17.5h-40.83c-9.67 0-17.5 7.84-17.5 17.5v70c0 9.66 7.83 17.5 17.5 17.5h40.83c9.67 0 17.5-7.84 17.5-17.5v-2.04c0-2.1-1.7-3.79-3.79-3.79s-3.79 1.69-3.79 3.79v2.04c0 5.48-4.44 9.92-9.92 9.92h-40.83c-1.16 0-2.26-.2-3.29-.56l13.01-7.44c3.55-2.03 5.74-5.79 5.74-9.88v-54.72c0-4.08-2.19-7.85-5.74-9.88l-12.29-7.02c.82-.22 1.68-.34 2.57-.34Z"/><path d="M2958.17 1108.5c.76.82 1.75 1.23 2.8 1.23.93 0 1.81-.3 2.56-1l15.81-15.02a4.071 4.071 0 0 0 0-6.07l-15.81-14.37c-1.57-1.4-3.96-1.29-5.36.23-1.4 1.57-1.34 3.97.23 5.37l9.05 8.01h-28.82c-2.1 0-3.8 1.7-3.8 3.8 0 2.09 1.7 3.79 3.8 3.79h28.86l-9.09 8.66c-1.52 1.4-1.63 3.8-.23 5.37Z"/></g></g></g><g id="Heavy-M"><g id="Solid / Exit Solid_11"><g id="Shape_11" fill="#000"><path d="M2609.67 1046.08h40.83c5.48 0 9.92 4.44 9.92 9.92v2.04c0 2.1 1.7 3.79 3.79 3.79s3.79-1.69 3.79-3.79V1056c0-9.66-7.83-17.5-17.5-17.5h-40.83c-9.67 0-17.5 7.84-17.5 17.5v70c0 9.66 7.83 17.5 17.5 17.5h40.83c9.67 0 17.5-7.84 17.5-17.5v-2.04c0-2.1-1.7-3.79-3.79-3.79s-3.79 1.69-3.79 3.79v2.04c0 5.48-4.44 9.92-9.92 9.92h-40.83c-1.16 0-2.26-.2-3.29-.56l13.01-7.44c3.55-2.03 5.74-5.79 5.74-9.88v-54.72c0-4.08-2.19-7.85-5.74-9.88l-12.29-7.02c.82-.22 1.68-.34 2.57-.34Z"/><path d="M2662.17 1108.5c.76.82 1.75 1.23 2.8 1.23.93 0 1.81-.3 2.56-1l15.81-15.02a4.071 4.071 0 0 0 0-6.07l-15.81-14.37c-1.57-1.4-3.96-1.29-5.36.23-1.4 1.57-1.34 3.97.23 5.37l9.05 8.01h-28.82c-2.1 0-3.8 1.7-3.8 3.8 0 2.09 1.7 3.79 3.8 3.79h28.86l-9.09 8.66c-1.52 1.4-1.63 3.8-.23 5.37Z"/></g></g></g><g id="Bold-M"><g id="Solid / Exit Solid_12"><g id="Shape_12" fill="#000"><path d="M2313.67 1046.08h40.83c5.48 0 9.92 4.44 9.92 9.92v2.04c0 2.1 1.7 3.79 3.79 3.79s3.79-1.69 3.79-3.79V1056c0-9.66-7.83-17.5-17.5-17.5h-40.83c-9.67 0-17.5 7.84-17.5 17.5v70c0 9.66 7.83 17.5 17.5 17.5h40.83c9.67 0 17.5-7.84 17.5-17.5v-2.04c0-2.1-1.7-3.79-3.79-3.79s-3.79 1.69-3.79 3.79v2.04c0 5.48-4.44 9.92-9.92 9.92h-40.83c-1.16 0-2.26-.2-3.29-.56l13.01-7.44c3.55-2.03 5.74-5.79 5.74-9.88v-54.72c0-4.08-2.19-7.85-5.74-9.88l-12.29-7.02c.82-.22 1.68-.34 2.57-.34Z"/><path d="M2366.17 1108.5c.76.82 1.75 1.23 2.8 1.23.93 0 1.81-.3 2.56-1l15.81-15.02a4.071 4.071 0 0 0 0-6.07l-15.81-14.37c-1.57-1.4-3.96-1.29-5.36.23-1.4 1.57-1.34 3.97.23 5.37l9.05 8.01h-28.82c-2.1 0-3.8 1.7-3.8 3.8 0 2.09 1.7 3.79 3.8 3.79h28.86l-9.09 8.66c-1.52 1.4-1.63 3.8-.23 5.37Z"/></g></g></g><g id="Semibold-M"><g id="Solid / Exit Solid_13"><g id="Shape_13" fill="#000"><path d="M2017.67 1046.08h40.83c5.48 0 9.92 4.44 9.92 9.92v2.04c0 2.1 1.7 3.79 3.79 3.79s3.79-1.69 3.79-3.79V1056c0-9.66-7.83-17.5-17.5-17.5h-40.83c-9.67 0-17.5 7.84-17.5 17.5v70c0 9.66 7.83 17.5 17.5 17.5h40.83c9.67 0 17.5-7.84 17.5-17.5v-2.04c0-2.1-1.7-3.79-3.79-3.79s-3.79 1.69-3.79 3.79v2.04c0 5.48-4.44 9.92-9.92 9.92h-40.83c-1.16 0-2.26-.2-3.29-.56l13.01-7.44c3.55-2.03 5.74-5.79 5.74-9.88v-54.72c0-4.08-2.19-7.85-5.74-9.88l-12.29-7.02c.82-.22 1.68-.34 2.57-.34Z"/><path d="M2070.17 1108.5c.76.82 1.75 1.23 2.8 1.23.93 0 1.81-.3 2.56-1l15.81-15.02a4.071 4.071 0 0 0 0-6.07l-15.81-14.37c-1.57-1.4-3.96-1.29-5.36.23-1.4 1.57-1.34 3.97.23 5.37l9.05 8.01h-28.82c-2.1 0-3.8 1.7-3.8 3.8 0 2.09 1.7 3.79 3.8 3.79h28.86l-9.09 8.66c-1.52 1.4-1.63 3.8-.23 5.37Z"/></g></g></g><g id="Medium-M"><g id="Solid / Exit Solid_14"><g id="Shape_14" fill="#000"><path d="M1721.67 1046.08h40.83c5.48 0 9.92 4.44 9.92 9.92v2.04c0 2.1 1.7 3.79 3.79 3.79s3.79-1.69 3.79-3.79V1056c0-9.66-7.83-17.5-17.5-17.5h-40.83c-9.67 0-17.5 7.84-17.5 17.5v70c0 9.66 7.83 17.5 17.5 17.5h40.83c9.67 0 17.5-7.84 17.5-17.5v-2.04c0-2.1-1.7-3.79-3.79-3.79s-3.79 1.69-3.79 3.79v2.04c0 5.48-4.44 9.92-9.92 9.92h-40.83c-1.16 0-2.26-.2-3.29-.56l13.01-7.44c3.55-2.03 5.74-5.79 5.74-9.88v-54.72c0-4.08-2.19-7.85-5.74-9.88l-12.29-7.02c.82-.22 1.68-.34 2.57-.34Z"/><path d="M1774.17 1108.5c.76.82 1.75 1.23 2.8 1.23.93 0 1.81-.3 2.56-1l15.81-15.02a4.071 4.071 0 0 0 0-6.07l-15.81-14.37c-1.57-1.4-3.96-1.29-5.36.23-1.4 1.57-1.34 3.97.23 5.37l9.05 8.01h-28.82c-2.1 0-3.8 1.7-3.8 3.8 0 2.09 1.7 3.79 3.8 3.79h28.86l-9.09 8.66c-1.52 1.4-1.63 3.8-.23 5.37Z"/></g></g></g><g id="Regular-M"><g id="Solid / Exit Solid_15"><g id="Shape_15" fill="#000"><path d="M1425.67 1046.08h40.83c5.48 0 9.92 4.44 9.92 9.92v2.04c0 2.1 1.7 3.79 3.79 3.79s3.79-1.69 3.79-3.79V1056c0-9.66-7.83-17.5-17.5-17.5h-40.83c-9.67 0-17.5 7.84-17.5 17.5v70c0 9.66 7.83 17.5 17.5 17.5h40.83c9.67 0 17.5-7.84 17.5-17.5v-2.04c0-2.1-1.7-3.79-3.79-3.79s-3.79 1.69-3.79 3.79v2.04c0 5.48-4.44 9.92-9.92 9.92h-40.83c-1.16 0-2.26-.2-3.29-.56l13.01-7.44c3.55-2.03 5.74-5.79 5.74-9.88v-54.72c0-4.08-2.19-7.85-5.74-9.88l-12.29-7.02c.82-.22 1.68-.34 2.57-.34Z"/><path d="M1478.17 1108.5c.76.82 1.75 1.23 2.8 1.23.93 0 1.81-.3 2.56-1l15.81-15.02a4.071 4.071 0 0 0 0-6.07l-15.81-14.37c-1.57-1.4-3.96-1.29-5.36.23-1.4 1.57-1.34 3.97.23 5.37l9.05 8.01h-28.82c-2.1 0-3.8 1.7-3.8 3.8 0 2.09 1.7 3.79 3.8 3.79h28.86l-9.09 8.66c-1.52 1.4-1.63 3.8-.23 5.37Z"/></g></g></g><g id="Light-M"><g id="Solid / Exit Solid_16"><g id="Shape_16" fill="#000"><path d="M1129.67 1046.08h40.83c5.48 0 9.92 4.44 9.92 9.92v2.04c0 2.1 1.7 3.79 3.79 3.79s3.79-1.69 3.79-3.79V1056c0-9.66-7.83-17.5-17.5-17.5h-40.83c-9.67 0-17.5 7.84-17.5 17.5v70c0 9.66 7.83 17.5 17.5 17.5h40.83c9.67 0 17.5-7.84 17.5-17.5v-2.04c0-2.1-1.7-3.79-3.79-3.79s-3.79 1.69-3.79 3.79v2.04c0 5.48-4.44 9.92-9.92 9.92h-40.83c-1.16 0-2.26-.2-3.29-.56l13.01-7.44c3.55-2.03 5.74-5.79 5.74-9.88v-54.72c0-4.08-2.19-7.85-5.74-9.88l-12.29-7.02c.82-.22 1.68-.34 2.57-.34Z"/><path d="M1182.17 1108.5c.76.82 1.75 1.23 2.8 1.23.93 0 1.81-.3 2.56-1l15.81-15.02a4.071 4.071 0 0 0 0-6.07l-15.81-14.37c-1.57-1.4-3.96-1.29-5.36.23-1.4 1.57-1.34 3.97.23 5.37l9.05 8.01h-28.82c-2.1 0-3.8 1.7-3.8 3.8 0 2.09 1.7 3.79 3.8 3.79h28.86l-9.09 8.66c-1.52 1.4-1.63 3.8-.23 5.37Z"/></g></g></g><g id="Thin-M"><g id="Solid / Exit Solid_17"><g id="Shape_17" fill="#000"><path d="M833.668 1046.08h40.833c5.477 0 9.917 4.44 9.917 9.92v2.04c0 2.1 1.698 3.79 3.792 3.79a3.786 3.786 0 0 0 3.791-3.79V1056c0-9.66-7.835-17.5-17.5-17.5h-40.833c-9.665 0-17.5 7.84-17.5 17.5v70c0 9.66 7.835 17.5 17.5 17.5h40.833c9.665 0 17.5-7.84 17.5-17.5v-2.04c0-2.1-1.697-3.79-3.791-3.79a3.787 3.787 0 0 0-3.792 3.79v2.04c0 5.48-4.44 9.92-9.917 9.92h-40.833c-1.153 0-2.26-.2-3.29-.56l13.017-7.44a11.377 11.377 0 0 0 5.731-9.88v-54.72c0-4.08-2.187-7.85-5.731-9.88l-12.291-7.02a9.858 9.858 0 0 1 2.564-.34Z"/><path d="M886.168 1108.5c.758.82 1.75 1.23 2.8 1.23.933 0 1.808-.3 2.567-1l15.808-15.02a4.074 4.074 0 0 0 0-6.07l-15.808-14.37c-1.575-1.4-3.967-1.29-5.367.23-1.4 1.57-1.342 3.97.233 5.37l9.045 8.01h-28.82a3.794 3.794 0 0 0-3.791 3.8c0 2.09 1.697 3.79 3.791 3.79h28.861l-9.086 8.66c-1.516 1.4-1.633 3.8-.233 5.37Z"/></g></g></g><g id="Ultralight-M"><g id="Solid / Exit Solid_18"><g id="Shape_18" fill="#000"><path d="M537.668 1046.08h40.833c5.477 0 9.917 4.44 9.917 9.92v2.04c0 2.1 1.698 3.79 3.792 3.79a3.786 3.786 0 0 0 3.791-3.79V1056c0-9.66-7.835-17.5-17.5-17.5h-40.833c-9.665 0-17.5 7.84-17.5 17.5v70c0 9.66 7.835 17.5 17.5 17.5h40.833c9.665 0 17.5-7.84 17.5-17.5v-2.04c0-2.1-1.697-3.79-3.791-3.79a3.787 3.787 0 0 0-3.792 3.79v2.04c0 5.48-4.44 9.92-9.917 9.92h-40.833c-1.153 0-2.26-.2-3.29-.56l13.017-7.44a11.377 11.377 0 0 0 5.731-9.88v-54.72c0-4.08-2.187-7.85-5.731-9.88l-12.291-7.02a9.858 9.858 0 0 1 2.564-.34Z"/><path d="M590.168 1108.5c.758.82 1.75 1.23 2.8 1.23.933 0 1.808-.3 2.567-1l15.808-15.02a4.074 4.074 0 0 0 0-6.07l-15.808-14.37c-1.575-1.4-3.967-1.29-5.367.23-1.4 1.57-1.342 3.97.233 5.37l9.045 8.01h-28.82a3.794 3.794 0 0 0-3.791 3.8c0 2.09 1.697 3.79 3.791 3.79h28.861l-9.086 8.66c-1.516 1.4-1.633 3.8-.233 5.37Z"/></g></g></g><g id="Black-S"><g id="Solid / Exit Solid_19"><g id="Shape_19" fill="#000"><path d="M2912.33 628.917h29.17c3.91 0 7.08 3.171 7.08 7.083v1.458a2.707 2.707 0 0 0 2.71 2.709c1.5 0 2.71-1.213 2.71-2.709V636c0-6.904-5.6-12.5-12.5-12.5h-29.17c-6.9 0-12.5 5.596-12.5 12.5v50c0 6.904 5.6 12.5 12.5 12.5h29.17c6.9 0 12.5-5.596 12.5-12.5v-1.458a2.707 2.707 0 0 0-2.71-2.709c-1.5 0-2.71 1.213-2.71 2.709V686a7.082 7.082 0 0 1-7.08 7.083h-29.17c-.82 0-1.61-.14-2.35-.399l9.3-5.313a8.123 8.123 0 0 0 4.09-7.054v-39.09a8.126 8.126 0 0 0-4.09-7.055l-8.78-5.016c.58-.156 1.2-.239 1.83-.239Z"/><path d="M2949.83 673.5c.54.583 1.25.875 2 .875.67 0 1.29-.208 1.84-.708l11.29-10.732a2.91 2.91 0 0 0 0-4.333l-11.29-10.269c-1.13-1-2.84-.916-3.84.167-1 1.125-.96 2.833.17 3.833l6.46 5.727h-20.59c-1.49 0-2.7 1.213-2.7 2.709a2.704 2.704 0 0 0 2.7 2.708h20.62l-6.49 6.19c-1.08 1-1.17 2.708-.17 3.833Z"/></g></g></g><g id="Heavy-S"><g id="Solid / Exit Solid_20"><g id="Shape_20" fill="#000"><path d="M2616.33 628.917h29.17c3.91 0 7.08 3.171 7.08 7.083v1.458a2.707 2.707 0 0 0 2.71 2.709c1.5 0 2.71-1.213 2.71-2.709V636c0-6.904-5.6-12.5-12.5-12.5h-29.17c-6.9 0-12.5 5.596-12.5 12.5v50c0 6.904 5.6 12.5 12.5 12.5h29.17c6.9 0 12.5-5.596 12.5-12.5v-1.458a2.707 2.707 0 0 0-2.71-2.709c-1.5 0-2.71 1.213-2.71 2.709V686a7.082 7.082 0 0 1-7.08 7.083h-29.17c-.82 0-1.61-.14-2.35-.399l9.3-5.313a8.123 8.123 0 0 0 4.09-7.054v-39.09a8.126 8.126 0 0 0-4.09-7.055l-8.78-5.016c.58-.156 1.2-.239 1.83-.239Z"/><path d="M2653.83 673.5c.54.583 1.25.875 2 .875.67 0 1.29-.208 1.84-.708l11.29-10.732a2.91 2.91 0 0 0 0-4.333l-11.29-10.269c-1.13-1-2.84-.916-3.84.167-1 1.125-.96 2.833.17 3.833l6.46 5.727h-20.59c-1.49 0-2.7 1.213-2.7 2.709a2.704 2.704 0 0 0 2.7 2.708h20.62l-6.49 6.19c-1.08 1-1.17 2.708-.17 3.833Z"/></g></g></g><g id="Bold-S"><g id="Solid / Exit Solid_21"><g id="Shape_21" fill="#000"><path d="M2320.33 628.917h29.17c3.91 0 7.08 3.171 7.08 7.083v1.458a2.707 2.707 0 0 0 2.71 2.709c1.5 0 2.71-1.213 2.71-2.709V636c0-6.904-5.6-12.5-12.5-12.5h-29.17c-6.9 0-12.5 5.596-12.5 12.5v50c0 6.904 5.6 12.5 12.5 12.5h29.17c6.9 0 12.5-5.596 12.5-12.5v-1.458a2.707 2.707 0 0 0-2.71-2.709c-1.5 0-2.71 1.213-2.71 2.709V686a7.082 7.082 0 0 1-7.08 7.083h-29.17c-.82 0-1.61-.14-2.35-.399l9.3-5.313a8.123 8.123 0 0 0 4.09-7.054v-39.09a8.126 8.126 0 0 0-4.09-7.055l-8.78-5.016c.58-.156 1.2-.239 1.83-.239Z"/><path d="M2357.83 673.5c.54.583 1.25.875 2 .875.67 0 1.29-.208 1.84-.708l11.29-10.732a2.91 2.91 0 0 0 0-4.333l-11.29-10.269c-1.13-1-2.84-.916-3.84.167-1 1.125-.96 2.833.17 3.833l6.46 5.727h-20.59c-1.49 0-2.7 1.213-2.7 2.709a2.704 2.704 0 0 0 2.7 2.708h20.62l-6.49 6.19c-1.08 1-1.17 2.708-.17 3.833Z"/></g></g></g><g id="Semibold-S"><g id="Solid / Exit Solid_22"><g id="Shape_22" fill="#000"><path d="M2024.33 628.917h29.17c3.91 0 7.08 3.171 7.08 7.083v1.458a2.707 2.707 0 0 0 2.71 2.709c1.5 0 2.71-1.213 2.71-2.709V636c0-6.904-5.6-12.5-12.5-12.5h-29.17c-6.9 0-12.5 5.596-12.5 12.5v50c0 6.904 5.6 12.5 12.5 12.5h29.17c6.9 0 12.5-5.596 12.5-12.5v-1.458a2.707 2.707 0 0 0-2.71-2.709c-1.5 0-2.71 1.213-2.71 2.709V686a7.082 7.082 0 0 1-7.08 7.083h-29.17c-.82 0-1.61-.14-2.35-.399l9.3-5.313a8.123 8.123 0 0 0 4.09-7.054v-39.09a8.126 8.126 0 0 0-4.09-7.055l-8.78-5.016c.58-.156 1.2-.239 1.83-.239Z"/><path d="M2061.83 673.5c.54.583 1.25.875 2 .875.67 0 1.29-.208 1.84-.708l11.29-10.732a2.91 2.91 0 0 0 0-4.333l-11.29-10.269c-1.13-1-2.84-.916-3.84.167-1 1.125-.96 2.833.17 3.833l6.46 5.727h-20.59c-1.49 0-2.7 1.213-2.7 2.709a2.704 2.704 0 0 0 2.7 2.708h20.62l-6.49 6.19c-1.08 1-1.17 2.708-.17 3.833Z"/></g></g></g><g id="Medium-S"><g id="Solid / Exit Solid_23"><g id="Shape_23" fill="#000"><path d="M1728.33 628.917h29.17c3.91 0 7.08 3.171 7.08 7.083v1.458a2.707 2.707 0 0 0 2.71 2.709c1.5 0 2.71-1.213 2.71-2.709V636c0-6.904-5.6-12.5-12.5-12.5h-29.17c-6.9 0-12.5 5.596-12.5 12.5v50c0 6.904 5.6 12.5 12.5 12.5h29.17c6.9 0 12.5-5.596 12.5-12.5v-1.458a2.707 2.707 0 0 0-2.71-2.709c-1.5 0-2.71 1.213-2.71 2.709V686a7.082 7.082 0 0 1-7.08 7.083h-29.17c-.82 0-1.61-.14-2.35-.399l9.3-5.313a8.123 8.123 0 0 0 4.09-7.054v-39.09a8.126 8.126 0 0 0-4.09-7.055l-8.78-5.016c.58-.156 1.2-.239 1.83-.239Z"/><path d="M1765.83 673.5c.54.583 1.25.875 2 .875.67 0 1.29-.208 1.84-.708l11.29-10.732a2.91 2.91 0 0 0 0-4.333l-11.29-10.269c-1.13-1-2.84-.916-3.84.167-1 1.125-.96 2.833.17 3.833l6.46 5.727h-20.59c-1.49 0-2.7 1.213-2.7 2.709a2.704 2.704 0 0 0 2.7 2.708h20.62l-6.49 6.19c-1.08 1-1.17 2.708-.17 3.833Z"/></g></g></g><g id="Regular-S"><g id="Solid / Exit Solid_24"><g id="Shape_24" fill="#000"><path d="M1432.33 628.917h29.17c3.91 0 7.08 3.171 7.08 7.083v1.458a2.707 2.707 0 0 0 2.71 2.709c1.5 0 2.71-1.213 2.71-2.709V636c0-6.904-5.6-12.5-12.5-12.5h-29.17c-6.9 0-12.5 5.596-12.5 12.5v50c0 6.904 5.6 12.5 12.5 12.5h29.17c6.9 0 12.5-5.596 12.5-12.5v-1.458a2.707 2.707 0 0 0-2.71-2.709c-1.5 0-2.71 1.213-2.71 2.709V686a7.082 7.082 0 0 1-7.08 7.083h-29.17c-.82 0-1.61-.14-2.35-.399l9.3-5.313a8.123 8.123 0 0 0 4.09-7.054v-39.09a8.126 8.126 0 0 0-4.09-7.055l-8.78-5.016c.58-.156 1.2-.239 1.83-.239Z"/><path d="M1469.83 673.5c.54.583 1.25.875 2 .875.67 0 1.29-.208 1.84-.708l11.29-10.732a2.91 2.91 0 0 0 0-4.333l-11.29-10.269c-1.13-1-2.84-.916-3.84.167-1 1.125-.96 2.833.17 3.833l6.46 5.727h-20.59c-1.49 0-2.7 1.213-2.7 2.709a2.704 2.704 0 0 0 2.7 2.708h20.62l-6.49 6.19c-1.08 1-1.17 2.708-.17 3.833Z"/></g></g></g><g id="Light-S"><g id="Solid / Exit Solid_25"><g id="Shape_25" fill="#000"><path d="M1136.33 628.917h29.17c3.91 0 7.08 3.171 7.08 7.083v1.458a2.707 2.707 0 0 0 2.71 2.709c1.5 0 2.71-1.213 2.71-2.709V636c0-6.904-5.6-12.5-12.5-12.5h-29.17c-6.9 0-12.5 5.596-12.5 12.5v50c0 6.904 5.6 12.5 12.5 12.5h29.17c6.9 0 12.5-5.596 12.5-12.5v-1.458a2.707 2.707 0 0 0-2.71-2.709c-1.5 0-2.71 1.213-2.71 2.709V686a7.082 7.082 0 0 1-7.08 7.083h-29.17c-.82 0-1.61-.14-2.35-.399l9.3-5.313a8.123 8.123 0 0 0 4.09-7.054v-39.09a8.126 8.126 0 0 0-4.09-7.055l-8.78-5.016c.58-.156 1.2-.239 1.83-.239Z"/><path d="M1173.83 673.5c.54.583 1.25.875 2 .875.67 0 1.29-.208 1.84-.708l11.29-10.732a2.91 2.91 0 0 0 0-4.333l-11.29-10.269c-1.13-1-2.84-.916-3.84.167-1 1.125-.96 2.833.17 3.833l6.46 5.727h-20.59c-1.49 0-2.7 1.213-2.7 2.709a2.704 2.704 0 0 0 2.7 2.708h20.62l-6.49 6.19c-1.08 1-1.17 2.708-.17 3.833Z"/></g></g></g><g id="Thin-S"><g id="Solid / Exit Solid_26"><g id="Shape_26" fill="#000"><path d="M840.332 628.917h29.167a7.083 7.083 0 0 1 7.083 7.083v1.458a2.709 2.709 0 1 0 5.417 0V636c0-6.904-5.597-12.5-12.5-12.5h-29.167c-6.904 0-12.5 5.596-12.5 12.5v50c0 6.904 5.596 12.5 12.5 12.5h29.167c6.903 0 12.5-5.596 12.5-12.5v-1.458a2.71 2.71 0 0 0-5.417 0V686a7.083 7.083 0 0 1-7.083 7.083h-29.167c-.824 0-1.614-.14-2.35-.399l9.298-5.313a8.124 8.124 0 0 0 4.094-7.054v-39.09a8.127 8.127 0 0 0-4.094-7.055l-8.779-5.016a7.087 7.087 0 0 1 1.831-.239Z"/><path d="M877.832 673.5c.542.583 1.25.875 2 .875a2.61 2.61 0 0 0 1.833-.708l11.292-10.732a2.906 2.906 0 0 0 0-4.333l-11.292-10.269c-1.125-1-2.833-.916-3.833.167-1 1.125-.958 2.833.167 3.833l6.46 5.727h-20.585a2.71 2.71 0 0 0 0 5.417h20.615l-6.49 6.19c-1.084 1-1.167 2.708-.167 3.833Z"/></g></g></g><g id="Ultralight-S"><g id="Solid / Exit Solid_27"><g id="Shape_27" fill="#000"><path d="M544.332 628.917h29.167a7.083 7.083 0 0 1 7.083 7.083v1.458a2.709 2.709 0 1 0 5.417 0V636c0-6.904-5.597-12.5-12.5-12.5h-29.167c-6.904 0-12.5 5.596-12.5 12.5v50c0 6.904 5.596 12.5 12.5 12.5h29.167c6.903 0 12.5-5.596 12.5-12.5v-1.458a2.71 2.71 0 0 0-5.417 0V686a7.083 7.083 0 0 1-7.083 7.083h-29.167c-.824 0-1.614-.14-2.35-.399l9.298-5.313a8.124 8.124 0 0 0 4.094-7.054v-39.09a8.127 8.127 0 0 0-4.094-7.055l-8.779-5.016a7.087 7.087 0 0 1 1.831-.239Z"/><path d="M581.832 673.5c.542.583 1.25.875 2 .875a2.61 2.61 0 0 0 1.833-.708l11.292-10.732a2.906 2.906 0 0 0 0-4.333l-11.292-10.269c-1.125-1-2.833-.916-3.833.167-1 1.125-.958 2.833.167 3.833l6.46 5.727h-20.585a2.71 2.71 0 0 0 0 5.417h20.615l-6.49 6.19c-1.084 1-1.167 2.708-.167 3.833Z"/></g></g></g></g></g><defs><clipPath id="clip0_805_27002"><path fill="#fff" d="M0 0h3300v2200H0z"/></clipPath></defs></svg>