<svg width="3300" height="2200" viewBox="0 0 3300 2200" fill="none" xmlns="http://www.w3.org/2000/svg">
<rect width="3300" height="2200" fill="#E5E5E5"/>
<g id="Category / Solid / Pension" clip-path="url(#clip0_0_1)">
<g id="Notes">
<path id="artboard" d="M3300 0H0V2200H3300V0Z" fill="white"/>
<path id="Vector" d="M263 292H3036" stroke="black" stroke-width="0.5"/>
<text id="Weight/Scale Variations" fill="black" xml:space="preserve" style="white-space: pre" font-family="Roboto" font-size="12" letter-spacing="0em"><tspan x="263" y="321.102">Weight/Scale Variations</tspan></text>
<text id="Ultralight" fill="black" xml:space="preserve" style="white-space: pre" font-family="Roboto" font-size="12" letter-spacing="0em"><tspan x="535.211" y="321.102">Ultralight</tspan></text>
<text id="Thin" fill="black" xml:space="preserve" style="white-space: pre" font-family="Roboto" font-size="12" letter-spacing="0em"><tspan x="844.422" y="321.102">Thin</tspan></text>
<text id="Light" fill="black" xml:space="preserve" style="white-space: pre" font-family="Roboto" font-size="12" letter-spacing="0em"><tspan x="1139.63" y="321.102">Light</tspan></text>
<text id="Regular" fill="black" xml:space="preserve" style="white-space: pre" font-family="Roboto" font-size="12" letter-spacing="0em"><tspan x="1429.34" y="321.102">Regular</tspan></text>
<text id="Medium" fill="black" xml:space="preserve" style="white-space: pre" font-family="Roboto" font-size="12" letter-spacing="0em"><tspan x="1724.56" y="321.102">Medium</tspan></text>
<text id="Semibold" fill="black" xml:space="preserve" style="white-space: pre" font-family="Roboto" font-size="12" letter-spacing="0em"><tspan x="2017.77" y="321.102">Semibold</tspan></text>
<text id="Bold" fill="black" xml:space="preserve" style="white-space: pre" font-family="Roboto" font-size="12" letter-spacing="0em"><tspan x="2327.48" y="321.102">Bold</tspan></text>
<text id="Heavy" fill="black" xml:space="preserve" style="white-space: pre" font-family="Roboto" font-size="12" letter-spacing="0em"><tspan x="2620.19" y="321.102">Heavy</tspan></text>
<text id="Black" fill="black" xml:space="preserve" style="white-space: pre" font-family="Roboto" font-size="12" letter-spacing="0em"><tspan x="2918.4" y="321.102">Black</tspan></text>
<path id="Vector_2" d="M263 1903H3036" stroke="black" stroke-width="0.5"/>
<g id="Group">
<path id="Vector_3" d="M272.248 1933.83C276.555 1933.83 280.139 1930.26 280.139 1925.95C280.139 1921.64 276.545 1918.07 272.238 1918.07C267.941 1918.07 264.367 1921.64 264.367 1925.95C264.367 1930.26 267.951 1933.83 272.248 1933.83ZM272.248 1932.35C268.703 1932.35 265.871 1929.51 265.871 1925.95C265.871 1922.4 268.693 1919.55 272.238 1919.55C275.793 1919.55 278.635 1922.4 278.644 1925.95C278.654 1929.51 275.803 1932.35 272.248 1932.35ZM272.229 1929.57C272.697 1929.57 272.971 1929.26 272.971 1928.74V1926.68H275.197C275.695 1926.68 276.037 1926.43 276.037 1925.96C276.037 1925.48 275.715 1925.22 275.197 1925.22H272.971V1922.99C272.971 1922.47 272.697 1922.15 272.229 1922.15C271.76 1922.15 271.506 1922.49 271.506 1922.99V1925.22H269.299C268.781 1925.22 268.449 1925.48 268.449 1925.96C268.449 1926.43 268.801 1926.68 269.299 1926.68H271.506V1928.74C271.506 1929.24 271.76 1929.57 272.229 1929.57Z" fill="black"/>
</g>
<g id="Group_2">
<path id="Vector_4" d="M293.215 1935.91C298.664 1935.91 303.176 1931.4 303.176 1925.95C303.176 1920.51 298.654 1915.99 293.205 1915.99C287.766 1915.99 283.254 1920.51 283.254 1925.95C283.254 1931.4 287.775 1935.91 293.215 1935.91ZM293.215 1934.25C288.605 1934.25 284.924 1930.56 284.924 1925.95C284.924 1921.35 288.596 1917.65 293.205 1917.65C297.814 1917.65 301.506 1921.35 301.516 1925.95C301.525 1930.56 297.824 1934.25 293.215 1934.25ZM293.195 1930.59C293.713 1930.59 294.025 1930.23 294.025 1929.66V1926.77H297.082C297.629 1926.77 298.01 1926.49 298.01 1925.97C298.01 1925.44 297.648 1925.14 297.082 1925.14H294.025V1922.07C294.025 1921.5 293.713 1921.14 293.195 1921.14C292.678 1921.14 292.385 1921.52 292.385 1922.07V1925.14H289.338C288.771 1925.14 288.4 1925.44 288.4 1925.97C288.4 1926.49 288.791 1926.77 289.338 1926.77H292.385V1929.66C292.385 1930.21 292.678 1930.59 293.195 1930.59Z" fill="black"/>
</g>
<g id="Group_3">
<path id="Vector_5" d="M319.895 1938.67C326.857 1938.67 332.619 1932.92 332.619 1925.96C332.619 1918.99 326.848 1913.24 319.885 1913.24C312.932 1913.24 307.18 1918.99 307.18 1925.96C307.18 1932.92 312.941 1938.67 319.895 1938.67ZM319.895 1936.86C313.859 1936.86 309.006 1931.99 309.006 1925.96C309.006 1919.92 313.85 1915.06 319.885 1915.06C325.93 1915.06 330.783 1919.92 330.793 1925.96C330.803 1931.99 325.939 1936.86 319.895 1936.86ZM319.875 1931.93C320.441 1931.93 320.793 1931.54 320.793 1930.94V1926.87H325.031C325.617 1926.87 326.037 1926.53 326.037 1925.98C326.037 1925.4 325.647 1925.06 325.031 1925.06H320.793V1920.81C320.793 1920.2 320.441 1919.8 319.875 1919.8C319.309 1919.8 318.986 1920.21 318.986 1920.81V1925.06H314.758C314.143 1925.06 313.732 1925.4 313.732 1925.98C313.732 1926.53 314.162 1926.87 314.758 1926.87H318.986V1930.94C318.986 1931.52 319.309 1931.93 319.875 1931.93Z" fill="black"/>
</g>
<text id="Design Variations" fill="black" xml:space="preserve" style="white-space: pre" font-family="Roboto" font-size="12" letter-spacing="0em"><tspan x="263" y="1952.1">Design Variations</tspan></text>
<text id="Symbols are supported in up to nine weights and three scales." fill="black" xml:space="preserve" style="white-space: pre" font-family="Roboto" font-size="12" letter-spacing="0em"><tspan x="263" y="1970.1">Symbols are supported in up to nine weights and three scales.</tspan></text>
<text id="For optimal layout with text and other symbols, vertically align" fill="black" xml:space="preserve" style="white-space: pre" font-family="Roboto" font-size="12" letter-spacing="0em"><tspan x="263" y="1988.1">For optimal layout with text and other symbols, vertically align</tspan></text>
<text id="symbols with the adjacent text." fill="black" xml:space="preserve" style="white-space: pre" font-family="Roboto" font-size="12" letter-spacing="0em"><tspan x="263" y="2006.1">symbols with the adjacent text.</tspan></text>
<path id="Vector_6" opacity="0.4" d="M779 1919H776V1933H779V1919Z" fill="#00AEEF"/>
<g id="Group_4">
<path id="Vector_7" d="M789.525 1933H791.371L786.176 1918.91H784.437L779.242 1933H781.088L782.504 1928.96H788.109L789.525 1933ZM785.277 1921.04H785.336L787.592 1927.47H783.021L785.277 1921.04Z" fill="black"/>
</g>
<path id="Vector_8" opacity="0.4" d="M794.617 1919H791.617V1933H794.617V1919Z" fill="#00AEEF"/>
<text id="Margins" fill="black" xml:space="preserve" style="white-space: pre" font-family="Roboto" font-size="12" letter-spacing="0em"><tspan x="776" y="1952.1">Margins</tspan></text>
<text id="Leading and trailing margins on the left and right side of each symbol" fill="black" xml:space="preserve" style="white-space: pre" font-family="Roboto" font-size="12" letter-spacing="0em"><tspan x="776" y="1970.1">Leading and trailing margins on the left and right side of each symbol</tspan></text>
<text id="can be adjusted by modifying the width of the blue rectangles." fill="black" xml:space="preserve" style="white-space: pre" font-family="Roboto" font-size="12" letter-spacing="0em"><tspan x="776" y="1988.1">can be adjusted by modifying the width of the blue rectangles.</tspan></text>
<text id="Modifications are automatically applied proportionally to all" fill="black" xml:space="preserve" style="white-space: pre" font-family="Roboto" font-size="12" letter-spacing="0em"><tspan x="776" y="2006.1">Modifications are automatically applied proportionally to all</tspan></text>
<text id="scales and weights." fill="black" xml:space="preserve" style="white-space: pre" font-family="Roboto" font-size="12" letter-spacing="0em"><tspan x="776" y="2024.1">scales and weights.</tspan></text>
<g id="Group_5">
<path id="Vector_9" d="M1291.83 1936.11L1293.37 1937.66C1294.22 1938.49 1295.19 1938.42 1296.06 1937.46L1306.27 1926.34C1306.7 1926.63 1307.1 1926.62 1307.56 1926.52L1308.61 1926.31L1309.3 1927L1309.25 1927.52C1309.19 1928.05 1309.35 1928.47 1309.85 1928.97L1310.66 1929.78C1311.17 1930.28 1311.82 1930.31 1312.3 1929.83L1315.55 1926.58C1316.03 1926.1 1316.01 1925.45 1315.5 1924.94L1314.68 1924.12C1314.19 1923.62 1313.77 1923.45 1313.24 1923.53L1312.71 1923.58L1312.06 1922.92L1312.34 1921.78C1312.49 1921.21 1312.34 1920.74 1311.71 1920.14L1309.3 1917.75C1305.76 1914.22 1301.23 1914.33 1298.11 1917.46C1297.69 1917.89 1297.64 1918.48 1297.92 1918.91C1298.15 1919.28 1298.63 1919.5 1299.27 1919.34C1300.79 1918.96 1302.3 1919.07 1303.78 1920.08L1303.16 1921.66C1302.93 1922.25 1302.94 1922.73 1303.18 1923.16L1292.02 1933.44C1291.08 1934.31 1290.97 1935.25 1291.83 1936.11ZM1299.67 1917.85C1302.34 1915.86 1305.65 1916.17 1308.05 1918.58L1310.68 1921.19C1310.91 1921.43 1310.94 1921.61 1310.88 1921.91L1310.5 1923.47L1312.08 1925.04L1313.04 1924.95C1313.33 1924.92 1313.41 1924.94 1313.64 1925.17L1314.26 1925.79L1311.51 1928.54L1310.88 1927.92C1310.66 1927.7 1310.64 1927.6 1310.67 1927.32L1310.76 1926.36L1309.19 1924.8L1307.57 1925.11C1307.29 1925.17 1307.14 1925.17 1306.91 1924.92L1304.73 1922.75C1304.51 1922.51 1304.48 1922.37 1304.61 1922.05L1305.55 1919.78C1303.95 1918.24 1301.84 1917.39 1299.8 1918.05C1299.71 1918.08 1299.64 1918.06 1299.61 1918.02C1299.59 1917.97 1299.59 1917.92 1299.67 1917.85ZM1293.1 1935.41C1292.61 1934.91 1292.79 1934.61 1293.12 1934.31L1304.08 1924.19L1305.31 1925.42L1295.15 1936.35C1294.85 1936.68 1294.47 1936.78 1294.07 1936.38L1293.1 1935.41Z" fill="black"/>
</g>
<text id="Exporting" fill="black" xml:space="preserve" style="white-space: pre" font-family="Roboto" font-size="12" letter-spacing="0em"><tspan x="1289" y="1952.1">Exporting</tspan></text>
<text id="Symbols should be outlined when exporting to ensure the" fill="black" xml:space="preserve" style="white-space: pre" font-family="Roboto" font-size="12" letter-spacing="0em"><tspan x="1289" y="1970.1">Symbols should be outlined when exporting to ensure the</tspan></text>
<text id="design is preserved when submitting to Xcode." fill="black" xml:space="preserve" style="white-space: pre" font-family="Roboto" font-size="12" letter-spacing="0em"><tspan x="1289" y="1988.1">design is preserved when submitting to Xcode.</tspan></text>
<text id="template-version" fill="black" xml:space="preserve" style="white-space: pre" font-family="Roboto" font-size="12" letter-spacing="0em"><tspan x="2958" y="1932.1">Template v.1.0</tspan></text>
<text id="Generated from pencil.circle" fill="black" xml:space="preserve" style="white-space: pre" font-family="Roboto" font-size="12" letter-spacing="0em"><tspan x="2885" y="1950.1">Generated from pencil.circle</tspan></text>
<text id="Typeset at 100 points" fill="black" xml:space="preserve" style="white-space: pre" font-family="Roboto" font-size="12" letter-spacing="0em"><tspan x="2921" y="1968.1">Typeset at 100 points</tspan></text>
<text id="Small" fill="black" xml:space="preserve" style="white-space: pre" font-family="Roboto" font-size="12" letter-spacing="0em"><tspan x="263" y="725.102">Small</tspan></text>
<text id="Medium_2" fill="black" xml:space="preserve" style="white-space: pre" font-family="Roboto" font-size="12" letter-spacing="0em"><tspan x="263" y="1155.1">Medium</tspan></text>
<text id="Large" fill="black" xml:space="preserve" style="white-space: pre" font-family="Roboto" font-size="12" letter-spacing="0em"><tspan x="263" y="1585.1">Large</tspan></text>
</g>
<g id="Guides">
<g id="H-reference">
<path id="Vector_10" d="M393.932 695.998H396.666L369.566 625.539H367.076L339.977 695.998H342.662L351.94 671.535H384.703L393.932 695.998ZM368.199 628.908H368.443L383.824 669.289H352.818L368.199 628.908Z" fill="#27AAE1"/>
</g>
<path id="Baseline-S" d="M263 696H3036" stroke="#27AAE1" stroke-width="0.577"/>
<path id="Capline-S" d="M263 626H3036" stroke="#27AAE1" stroke-width="0.577"/>
<g id="H-reference_2">
<path id="Vector_11" d="M393.932 1126H396.666L369.566 1055.54H367.076L339.977 1126H342.662L351.94 1101.54H384.703L393.932 1126ZM368.199 1058.91H368.443L383.824 1099.29H352.818L368.199 1058.91Z" fill="#27AAE1"/>
</g>
<path id="Baseline-M" d="M263 1126H3036" stroke="#27AAE1" stroke-width="0.577"/>
<path id="Capline-M" d="M263 1056H3036" stroke="#27AAE1" stroke-width="0.577"/>
<g id="H-reference_3">
<path id="Vector_12" d="M393.932 1556H396.666L369.566 1485.54H367.076L339.977 1556H342.662L351.94 1531.54H384.703L393.932 1556ZM368.199 1488.91H368.443L383.824 1529.29H352.818L368.199 1488.91Z" fill="#27AAE1"/>
</g>
<g id="Group 1">
<path id="Baseline-L" d="M263 1556H3036" stroke="#27AAE1" stroke-width="0.577"/>
<path id="Capline-L" d="M263 1486H3036" stroke="#27AAE1" stroke-width="0.577"/>
</g>
<path id="left-margin" opacity="0.4" d="M1397.04 1030.79H1388.3V1150.12H1397.04V1030.79Z" fill="#00AEEF"/>
<path id="right-margin" opacity="0.4" d="M1509.39 1030.79H1500.65V1150.12H1509.39V1030.79Z" fill="#00AEEF"/>
</g>
<g id="Symbols">
<g id="Black-L">
<g id="Solid / Pension Solid">
<path id="Shape" fill-rule="evenodd" clip-rule="evenodd" d="M2886.33 1458.86C2883.85 1458.86 2881.84 1460.87 2881.84 1463.36V1490.84C2881.84 1494.23 2879.09 1496.97 2875.71 1496.97H2874.05C2867.76 1496.97 2862.67 1502.06 2862.67 1508.34V1529.59C2862.67 1535.88 2867.76 1540.97 2874.05 1540.97H2875.95C2878.94 1540.97 2881.5 1543.14 2881.99 1546.09L2886.5 1573.3C2887.44 1578.98 2892.36 1583.15 2898.13 1583.15C2904.64 1583.15 2909.91 1577.88 2909.91 1571.37C2909.91 1567.74 2913.57 1565.22 2917.08 1566.14C2922.81 1567.65 2928.91 1568.46 2935.23 1568.46C2942.37 1568.46 2949.21 1567.43 2955.56 1565.54C2959.32 1564.42 2963.37 1567.08 2963.37 1571C2963.37 1577.71 2968.81 1583.15 2975.52 1583.15C2981.16 1583.15 2986.08 1579.27 2987.21 1573.75C2992.1 1549.88 2995.04 1524.55 2995.17 1523.39C2995.18 1523.35 2995.15 1523.34 2995.12 1523.33C2995.09 1523.33 2995.07 1523.3 2995.07 1523.27C2995.24 1521.75 2995.33 1520.22 2995.33 1518.67C2995.33 1492.5 2974.11 1471.28 2947.94 1471.28L2908.57 1471.28C2906.03 1471.28 2903.83 1469.65 2902.43 1467.53C2898.98 1462.31 2893.06 1458.86 2886.33 1458.86ZM2919.12 1486.8C2916.62 1486.8 2914.6 1488.82 2914.6 1491.32C2914.6 1493.82 2916.62 1495.85 2919.12 1495.85H2950.26C2952.76 1495.85 2954.79 1493.82 2954.79 1491.32C2954.79 1488.82 2952.76 1486.8 2950.26 1486.8H2919.12Z" fill="black"/>
</g>
</g>
<g id="Heavy-L">
<g id="Solid / Pension Solid_2">
<path id="Shape_2" fill-rule="evenodd" clip-rule="evenodd" d="M2590.33 1458.86C2587.85 1458.86 2585.84 1460.87 2585.84 1463.36V1490.84C2585.84 1494.23 2583.09 1496.97 2579.71 1496.97H2578.05C2571.76 1496.97 2566.67 1502.06 2566.67 1508.34V1529.59C2566.67 1535.88 2571.76 1540.97 2578.05 1540.97H2579.95C2582.94 1540.97 2585.5 1543.14 2585.99 1546.09L2590.5 1573.3C2591.44 1578.98 2596.36 1583.15 2602.13 1583.15C2608.64 1583.15 2613.91 1577.88 2613.91 1571.37C2613.91 1567.74 2617.57 1565.22 2621.08 1566.14C2626.81 1567.65 2632.91 1568.46 2639.23 1568.46C2646.37 1568.46 2653.21 1567.43 2659.56 1565.54C2663.32 1564.42 2667.37 1567.08 2667.37 1571C2667.37 1577.71 2672.81 1583.15 2679.52 1583.15C2685.16 1583.15 2690.08 1579.27 2691.21 1573.75C2696.1 1549.88 2699.04 1524.55 2699.17 1523.39C2699.18 1523.35 2699.15 1523.34 2699.12 1523.33C2699.09 1523.33 2699.07 1523.3 2699.07 1523.27C2699.24 1521.75 2699.33 1520.22 2699.33 1518.67C2699.33 1492.5 2678.11 1471.28 2651.94 1471.28L2612.57 1471.28C2610.03 1471.28 2607.83 1469.65 2606.43 1467.53C2602.98 1462.31 2597.06 1458.86 2590.33 1458.86ZM2623.12 1486.8C2620.62 1486.8 2618.6 1488.82 2618.6 1491.32C2618.6 1493.82 2620.62 1495.85 2623.12 1495.85H2654.26C2656.76 1495.85 2658.79 1493.82 2658.79 1491.32C2658.79 1488.82 2656.76 1486.8 2654.26 1486.8H2623.12Z" fill="black"/>
</g>
</g>
<g id="Bold-L">
<g id="Solid / Pension Solid_3">
<path id="Shape_3" fill-rule="evenodd" clip-rule="evenodd" d="M2294.33 1458.86C2291.85 1458.86 2289.84 1460.87 2289.84 1463.36V1490.84C2289.84 1494.23 2287.09 1496.97 2283.71 1496.97H2282.05C2275.76 1496.97 2270.67 1502.06 2270.67 1508.34V1529.59C2270.67 1535.88 2275.76 1540.97 2282.05 1540.97H2283.95C2286.94 1540.97 2289.5 1543.14 2289.99 1546.09L2294.5 1573.3C2295.44 1578.98 2300.36 1583.15 2306.13 1583.15C2312.64 1583.15 2317.91 1577.88 2317.91 1571.37C2317.91 1567.74 2321.57 1565.22 2325.08 1566.14C2330.81 1567.65 2336.91 1568.46 2343.23 1568.46C2350.37 1568.46 2357.21 1567.43 2363.56 1565.54C2367.32 1564.42 2371.37 1567.08 2371.37 1571C2371.37 1577.71 2376.81 1583.15 2383.52 1583.15C2389.16 1583.15 2394.08 1579.27 2395.21 1573.75C2400.1 1549.88 2403.04 1524.55 2403.17 1523.39C2403.18 1523.35 2403.15 1523.34 2403.12 1523.33C2403.09 1523.33 2403.07 1523.3 2403.07 1523.27C2403.24 1521.75 2403.33 1520.22 2403.33 1518.67C2403.33 1492.5 2382.11 1471.28 2355.94 1471.28L2316.57 1471.28C2314.03 1471.28 2311.83 1469.65 2310.43 1467.53C2306.98 1462.31 2301.06 1458.86 2294.33 1458.86ZM2327.12 1486.8C2324.62 1486.8 2322.6 1488.82 2322.6 1491.32C2322.6 1493.82 2324.62 1495.85 2327.12 1495.85H2358.26C2360.76 1495.85 2362.79 1493.82 2362.79 1491.32C2362.79 1488.82 2360.76 1486.8 2358.26 1486.8H2327.12Z" fill="black"/>
</g>
</g>
<g id="Semibold-L">
<g id="Solid / Pension Solid_4">
<path id="Shape_4" fill-rule="evenodd" clip-rule="evenodd" d="M1998.33 1458.86C1995.85 1458.86 1993.84 1460.87 1993.84 1463.36V1490.84C1993.84 1494.23 1991.09 1496.97 1987.71 1496.97H1986.05C1979.76 1496.97 1974.67 1502.06 1974.67 1508.34V1529.59C1974.67 1535.88 1979.76 1540.97 1986.05 1540.97H1987.95C1990.94 1540.97 1993.5 1543.14 1993.99 1546.09L1998.5 1573.3C1999.44 1578.98 2004.36 1583.15 2010.13 1583.15C2016.64 1583.15 2021.91 1577.88 2021.91 1571.37C2021.91 1567.74 2025.57 1565.22 2029.08 1566.14C2034.81 1567.65 2040.91 1568.46 2047.23 1568.46C2054.37 1568.46 2061.21 1567.43 2067.56 1565.54C2071.32 1564.42 2075.37 1567.08 2075.37 1571C2075.37 1577.71 2080.81 1583.15 2087.52 1583.15C2093.16 1583.15 2098.08 1579.27 2099.21 1573.75C2104.1 1549.88 2107.04 1524.55 2107.17 1523.39C2107.18 1523.35 2107.15 1523.34 2107.12 1523.33C2107.09 1523.33 2107.07 1523.3 2107.07 1523.27C2107.24 1521.75 2107.33 1520.22 2107.33 1518.67C2107.33 1492.5 2086.11 1471.28 2059.94 1471.28L2020.57 1471.28C2018.03 1471.28 2015.83 1469.65 2014.43 1467.53C2010.98 1462.31 2005.06 1458.86 1998.33 1458.86ZM2031.12 1486.8C2028.62 1486.8 2026.6 1488.82 2026.6 1491.32C2026.6 1493.82 2028.62 1495.85 2031.12 1495.85H2062.26C2064.76 1495.85 2066.79 1493.82 2066.79 1491.32C2066.79 1488.82 2064.76 1486.8 2062.26 1486.8H2031.12Z" fill="black"/>
</g>
</g>
<g id="Medium-L">
<g id="Solid / Pension Solid_5">
<path id="Shape_5" fill-rule="evenodd" clip-rule="evenodd" d="M1702.33 1458.86C1699.85 1458.86 1697.84 1460.87 1697.84 1463.36V1490.84C1697.84 1494.23 1695.09 1496.97 1691.71 1496.97H1690.05C1683.76 1496.97 1678.67 1502.06 1678.67 1508.34V1529.59C1678.67 1535.88 1683.76 1540.97 1690.05 1540.97H1691.95C1694.94 1540.97 1697.5 1543.14 1697.99 1546.09L1702.5 1573.3C1703.44 1578.98 1708.36 1583.15 1714.13 1583.15C1720.64 1583.15 1725.91 1577.88 1725.91 1571.37C1725.91 1567.74 1729.57 1565.22 1733.08 1566.14C1738.81 1567.65 1744.91 1568.46 1751.23 1568.46C1758.37 1568.46 1765.21 1567.43 1771.56 1565.54C1775.32 1564.42 1779.37 1567.08 1779.37 1571C1779.37 1577.71 1784.81 1583.15 1791.52 1583.15C1797.16 1583.15 1802.08 1579.27 1803.21 1573.75C1808.1 1549.88 1811.04 1524.55 1811.17 1523.39C1811.18 1523.35 1811.15 1523.34 1811.12 1523.33C1811.09 1523.33 1811.07 1523.3 1811.07 1523.27C1811.24 1521.75 1811.33 1520.22 1811.33 1518.67C1811.33 1492.5 1790.11 1471.28 1763.94 1471.28L1724.57 1471.28C1722.03 1471.28 1719.83 1469.65 1718.43 1467.53C1714.98 1462.31 1709.06 1458.86 1702.33 1458.86ZM1735.12 1486.8C1732.62 1486.8 1730.6 1488.82 1730.6 1491.32C1730.6 1493.82 1732.62 1495.85 1735.12 1495.85H1766.26C1768.76 1495.85 1770.79 1493.82 1770.79 1491.32C1770.79 1488.82 1768.76 1486.8 1766.26 1486.8H1735.12Z" fill="black"/>
</g>
</g>
<g id="Regular-L">
<g id="Solid / Pension Solid_6">
<path id="Shape_6" fill-rule="evenodd" clip-rule="evenodd" d="M1406.33 1458.86C1403.85 1458.86 1401.84 1460.87 1401.84 1463.36V1490.84C1401.84 1494.23 1399.09 1496.97 1395.71 1496.97H1394.05C1387.76 1496.97 1382.67 1502.06 1382.67 1508.34V1529.59C1382.67 1535.88 1387.76 1540.97 1394.05 1540.97H1395.95C1398.94 1540.97 1401.5 1543.14 1401.99 1546.09L1406.5 1573.3C1407.44 1578.98 1412.36 1583.15 1418.13 1583.15C1424.64 1583.15 1429.91 1577.88 1429.91 1571.37C1429.91 1567.74 1433.57 1565.22 1437.08 1566.14C1442.81 1567.65 1448.91 1568.46 1455.23 1568.46C1462.37 1568.46 1469.21 1567.43 1475.56 1565.54C1479.32 1564.42 1483.37 1567.08 1483.37 1571C1483.37 1577.71 1488.81 1583.15 1495.52 1583.15C1501.16 1583.15 1506.08 1579.27 1507.21 1573.75C1512.1 1549.88 1515.04 1524.55 1515.17 1523.39C1515.18 1523.35 1515.15 1523.34 1515.12 1523.33C1515.09 1523.33 1515.07 1523.3 1515.07 1523.27C1515.24 1521.75 1515.33 1520.22 1515.33 1518.67C1515.33 1492.5 1494.11 1471.28 1467.94 1471.28L1428.57 1471.28C1426.03 1471.28 1423.83 1469.65 1422.43 1467.53C1418.98 1462.31 1413.06 1458.86 1406.33 1458.86ZM1439.12 1486.8C1436.62 1486.8 1434.6 1488.82 1434.6 1491.32C1434.6 1493.82 1436.62 1495.85 1439.12 1495.85H1470.26C1472.76 1495.85 1474.79 1493.82 1474.79 1491.32C1474.79 1488.82 1472.76 1486.8 1470.26 1486.8H1439.12Z" fill="black"/>
</g>
</g>
<g id="Light-L">
<g id="Solid / Pension Solid_7">
<path id="Shape_7" fill-rule="evenodd" clip-rule="evenodd" d="M1110.33 1458.86C1107.85 1458.86 1105.84 1460.87 1105.84 1463.36V1490.84C1105.84 1494.23 1103.09 1496.97 1099.71 1496.97H1098.05C1091.76 1496.97 1086.67 1502.06 1086.67 1508.34V1529.59C1086.67 1535.88 1091.76 1540.97 1098.05 1540.97H1099.95C1102.94 1540.97 1105.5 1543.14 1105.99 1546.09L1110.5 1573.3C1111.44 1578.98 1116.36 1583.15 1122.13 1583.15C1128.64 1583.15 1133.91 1577.88 1133.91 1571.37C1133.91 1567.74 1137.57 1565.22 1141.08 1566.14C1146.81 1567.65 1152.91 1568.46 1159.23 1568.46C1166.37 1568.46 1173.21 1567.43 1179.56 1565.54C1183.32 1564.42 1187.37 1567.08 1187.37 1571C1187.37 1577.71 1192.81 1583.15 1199.52 1583.15C1205.16 1583.15 1210.08 1579.27 1211.21 1573.75C1216.1 1549.88 1219.04 1524.55 1219.17 1523.39C1219.18 1523.35 1219.15 1523.34 1219.12 1523.33C1219.09 1523.33 1219.07 1523.3 1219.07 1523.27C1219.24 1521.75 1219.33 1520.22 1219.33 1518.67C1219.33 1492.5 1198.11 1471.28 1171.94 1471.28L1132.57 1471.28C1130.03 1471.28 1127.83 1469.65 1126.43 1467.53C1122.98 1462.31 1117.06 1458.86 1110.33 1458.86ZM1143.12 1486.8C1140.62 1486.8 1138.6 1488.82 1138.6 1491.32C1138.6 1493.82 1140.62 1495.85 1143.12 1495.85H1174.26C1176.76 1495.85 1178.79 1493.82 1178.79 1491.32C1178.79 1488.82 1176.76 1486.8 1174.26 1486.8H1143.12Z" fill="black"/>
</g>
</g>
<g id="Thin-L">
<g id="Solid / Pension Solid_8">
<path id="Shape_8" fill-rule="evenodd" clip-rule="evenodd" d="M814.332 1458.86C811.849 1458.86 809.836 1460.87 809.836 1463.36V1490.84C809.836 1494.23 807.093 1496.97 803.711 1496.97H802.047C795.765 1496.97 790.672 1502.06 790.672 1508.34V1529.59C790.672 1535.88 795.765 1540.97 802.047 1540.97H803.945C806.941 1540.97 809.497 1543.14 809.987 1546.09L814.5 1573.3C815.443 1578.98 820.362 1583.15 826.127 1583.15C832.636 1583.15 837.913 1577.88 837.913 1571.37C837.913 1567.74 841.568 1565.22 845.079 1566.14C850.807 1567.65 856.906 1568.46 863.234 1568.46C870.366 1568.46 877.208 1567.43 883.555 1565.54C887.318 1564.42 891.372 1567.08 891.372 1571C891.372 1577.71 896.811 1583.15 903.521 1583.15C909.162 1583.15 914.076 1579.27 915.209 1573.75C920.1 1549.88 923.04 1524.55 923.174 1523.39C923.178 1523.35 923.154 1523.34 923.123 1523.33C923.092 1523.33 923.07 1523.3 923.074 1523.27C923.242 1521.75 923.327 1520.22 923.327 1518.67C923.327 1492.5 902.111 1471.28 875.94 1471.28L836.575 1471.28C834.032 1471.28 831.83 1469.65 830.429 1467.53C826.982 1462.31 821.06 1458.86 814.332 1458.86ZM847.122 1486.8C844.622 1486.8 842.596 1488.82 842.596 1491.32C842.596 1493.82 844.622 1495.85 847.122 1495.85H878.26C880.759 1495.85 882.786 1493.82 882.786 1491.32C882.786 1488.82 880.759 1486.8 878.26 1486.8H847.122Z" fill="black"/>
</g>
</g>
<g id="Ultralight-L">
<g id="Solid / Pension Solid_9">
<path id="Shape_9" fill-rule="evenodd" clip-rule="evenodd" d="M518.332 1458.86C515.849 1458.86 513.836 1460.87 513.836 1463.36V1490.84C513.836 1494.23 511.093 1496.97 507.711 1496.97H506.047C499.765 1496.97 494.672 1502.06 494.672 1508.34V1529.59C494.672 1535.88 499.765 1540.97 506.047 1540.97H507.945C510.941 1540.97 513.497 1543.14 513.987 1546.09L518.5 1573.3C519.443 1578.98 524.362 1583.15 530.127 1583.15C536.636 1583.15 541.913 1577.88 541.913 1571.37C541.913 1567.74 545.568 1565.22 549.079 1566.14C554.807 1567.65 560.906 1568.46 567.234 1568.46C574.366 1568.46 581.208 1567.43 587.555 1565.54C591.318 1564.42 595.372 1567.08 595.372 1571C595.372 1577.71 600.811 1583.15 607.521 1583.15C613.162 1583.15 618.076 1579.27 619.209 1573.75C624.1 1549.88 627.04 1524.55 627.174 1523.39C627.178 1523.35 627.154 1523.34 627.123 1523.33C627.092 1523.33 627.07 1523.3 627.074 1523.27C627.242 1521.75 627.327 1520.22 627.327 1518.67C627.327 1492.5 606.111 1471.28 579.94 1471.28L540.575 1471.28C538.032 1471.28 535.83 1469.65 534.429 1467.53C530.982 1462.31 525.06 1458.86 518.332 1458.86ZM551.122 1486.8C548.622 1486.8 546.596 1488.82 546.596 1491.32C546.596 1493.82 548.622 1495.85 551.122 1495.85H582.26C584.759 1495.85 586.786 1493.82 586.786 1491.32C586.786 1488.82 584.759 1486.8 582.26 1486.8H551.122Z" fill="black"/>
</g>
</g>
<g id="Black-M">
<g id="Solid / Pension Solid_10">
<path id="Shape_10" fill-rule="evenodd" clip-rule="evenodd" d="M2895.81 1042.67C2893.88 1042.67 2892.32 1044.24 2892.32 1046.17V1067.55C2892.32 1070.18 2890.18 1072.31 2887.55 1072.31H2886.26C2881.37 1072.31 2877.41 1076.27 2877.41 1081.16V1097.69C2877.41 1102.57 2881.37 1106.53 2886.26 1106.53H2887.73C2890.06 1106.53 2892.05 1108.22 2892.43 1110.52L2895.94 1131.68C2896.68 1136.1 2900.5 1139.34 2904.99 1139.34C2910.05 1139.34 2914.15 1135.24 2914.15 1130.18C2914.15 1127.36 2917 1125.4 2919.73 1126.12C2924.18 1127.28 2928.93 1127.91 2933.85 1127.91C2939.39 1127.91 2944.72 1127.11 2949.65 1125.64C2952.58 1124.77 2955.73 1126.84 2955.73 1129.9C2955.73 1135.11 2959.96 1139.34 2965.18 1139.34C2969.57 1139.34 2973.39 1136.33 2974.27 1132.03C2978.08 1113.47 2980.36 1093.77 2980.47 1092.86C2980.47 1092.83 2980.45 1092.82 2980.43 1092.82C2980.4 1092.81 2980.39 1092.79 2980.39 1092.77C2980.52 1091.59 2980.59 1090.4 2980.59 1089.19C2980.59 1068.83 2964.09 1052.33 2943.73 1052.33L2913.11 1052.33C2911.13 1052.33 2909.42 1051.07 2908.33 1049.42C2905.65 1045.35 2901.05 1042.67 2895.81 1042.67ZM2921.32 1064.4C2919.37 1064.4 2917.8 1065.98 2917.8 1067.92C2917.8 1069.87 2919.37 1071.44 2921.32 1071.44H2945.53C2947.48 1071.44 2949.05 1069.87 2949.05 1067.92C2949.05 1065.98 2947.48 1064.4 2945.53 1064.4H2921.32Z" fill="black"/>
</g>
</g>
<g id="Heavy-M">
<g id="Solid / Pension Solid_11">
<path id="Shape_11" fill-rule="evenodd" clip-rule="evenodd" d="M2599.81 1042.67C2597.88 1042.67 2596.32 1044.24 2596.32 1046.17V1067.55C2596.32 1070.18 2594.18 1072.31 2591.55 1072.31H2590.26C2585.37 1072.31 2581.41 1076.27 2581.41 1081.16V1097.69C2581.41 1102.57 2585.37 1106.53 2590.26 1106.53H2591.73C2594.06 1106.53 2596.05 1108.22 2596.43 1110.52L2599.94 1131.68C2600.68 1136.1 2604.5 1139.34 2608.99 1139.34C2614.05 1139.34 2618.15 1135.24 2618.15 1130.18C2618.15 1127.36 2621 1125.4 2623.73 1126.12C2628.18 1127.28 2632.93 1127.91 2637.85 1127.91C2643.39 1127.91 2648.72 1127.11 2653.65 1125.64C2656.58 1124.77 2659.73 1126.84 2659.73 1129.9C2659.73 1135.11 2663.96 1139.34 2669.18 1139.34C2673.57 1139.34 2677.39 1136.33 2678.27 1132.03C2682.08 1113.47 2684.36 1093.77 2684.47 1092.86C2684.47 1092.83 2684.45 1092.82 2684.43 1092.82C2684.4 1092.81 2684.39 1092.79 2684.39 1092.77C2684.52 1091.59 2684.59 1090.4 2684.59 1089.19C2684.59 1068.83 2668.09 1052.33 2647.73 1052.33L2617.11 1052.33C2615.13 1052.33 2613.42 1051.07 2612.33 1049.42C2609.65 1045.35 2605.05 1042.67 2599.81 1042.67ZM2625.32 1064.4C2623.37 1064.4 2621.8 1065.98 2621.8 1067.92C2621.8 1069.87 2623.37 1071.44 2625.32 1071.44H2649.53C2651.48 1071.44 2653.05 1069.87 2653.05 1067.92C2653.05 1065.98 2651.48 1064.4 2649.53 1064.4H2625.32Z" fill="black"/>
</g>
</g>
<g id="Bold-M">
<g id="Solid / Pension Solid_12">
<path id="Shape_12" fill-rule="evenodd" clip-rule="evenodd" d="M2303.81 1042.67C2301.88 1042.67 2300.32 1044.24 2300.32 1046.17V1067.55C2300.32 1070.18 2298.18 1072.31 2295.55 1072.31H2294.26C2289.37 1072.31 2285.41 1076.27 2285.41 1081.16V1097.69C2285.41 1102.57 2289.37 1106.53 2294.26 1106.53H2295.73C2298.06 1106.53 2300.05 1108.22 2300.43 1110.52L2303.94 1131.68C2304.68 1136.1 2308.5 1139.34 2312.99 1139.34C2318.05 1139.34 2322.15 1135.24 2322.15 1130.18C2322.15 1127.36 2325 1125.4 2327.73 1126.12C2332.18 1127.28 2336.93 1127.91 2341.85 1127.91C2347.39 1127.91 2352.72 1127.11 2357.65 1125.64C2360.58 1124.77 2363.73 1126.84 2363.73 1129.9C2363.73 1135.11 2367.96 1139.34 2373.18 1139.34C2377.57 1139.34 2381.39 1136.33 2382.27 1132.03C2386.08 1113.47 2388.36 1093.77 2388.47 1092.86C2388.47 1092.83 2388.45 1092.82 2388.43 1092.82C2388.4 1092.81 2388.39 1092.79 2388.39 1092.77C2388.52 1091.59 2388.59 1090.4 2388.59 1089.19C2388.59 1068.83 2372.09 1052.33 2351.73 1052.33L2321.11 1052.33C2319.13 1052.33 2317.42 1051.07 2316.33 1049.42C2313.65 1045.35 2309.05 1042.67 2303.81 1042.67ZM2329.32 1064.4C2327.37 1064.4 2325.8 1065.98 2325.8 1067.92C2325.8 1069.87 2327.37 1071.44 2329.32 1071.44H2353.53C2355.48 1071.44 2357.05 1069.87 2357.05 1067.92C2357.05 1065.98 2355.48 1064.4 2353.53 1064.4H2329.32Z" fill="black"/>
</g>
</g>
<g id="Semibold-M">
<g id="Solid / Pension Solid_13">
<path id="Shape_13" fill-rule="evenodd" clip-rule="evenodd" d="M2007.81 1042.67C2005.88 1042.67 2004.32 1044.24 2004.32 1046.17V1067.55C2004.32 1070.18 2002.18 1072.31 1999.55 1072.31H1998.26C1993.37 1072.31 1989.41 1076.27 1989.41 1081.16V1097.69C1989.41 1102.57 1993.37 1106.53 1998.26 1106.53H1999.73C2002.06 1106.53 2004.05 1108.22 2004.43 1110.52L2007.94 1131.68C2008.68 1136.1 2012.5 1139.34 2016.99 1139.34C2022.05 1139.34 2026.15 1135.24 2026.15 1130.18C2026.15 1127.36 2029 1125.4 2031.73 1126.12C2036.18 1127.28 2040.93 1127.91 2045.85 1127.91C2051.39 1127.91 2056.72 1127.11 2061.65 1125.64C2064.58 1124.77 2067.73 1126.84 2067.73 1129.9C2067.73 1135.11 2071.96 1139.34 2077.18 1139.34C2081.57 1139.34 2085.39 1136.33 2086.27 1132.03C2090.08 1113.47 2092.36 1093.77 2092.47 1092.86C2092.47 1092.83 2092.45 1092.82 2092.43 1092.82C2092.4 1092.81 2092.39 1092.79 2092.39 1092.77C2092.52 1091.59 2092.59 1090.4 2092.59 1089.19C2092.59 1068.83 2076.09 1052.33 2055.73 1052.33L2025.11 1052.33C2023.13 1052.33 2021.42 1051.07 2020.33 1049.42C2017.65 1045.35 2013.05 1042.67 2007.81 1042.67ZM2033.32 1064.4C2031.37 1064.4 2029.8 1065.98 2029.8 1067.92C2029.8 1069.87 2031.37 1071.44 2033.32 1071.44H2057.53C2059.48 1071.44 2061.05 1069.87 2061.05 1067.92C2061.05 1065.98 2059.48 1064.4 2057.53 1064.4H2033.32Z" fill="black"/>
</g>
</g>
<g id="Medium-M">
<g id="Solid / Pension Solid_14">
<path id="Shape_14" fill-rule="evenodd" clip-rule="evenodd" d="M1711.81 1042.67C1709.88 1042.67 1708.32 1044.24 1708.32 1046.17V1067.55C1708.32 1070.18 1706.18 1072.31 1703.55 1072.31H1702.26C1697.37 1072.31 1693.41 1076.27 1693.41 1081.16V1097.69C1693.41 1102.57 1697.37 1106.53 1702.26 1106.53H1703.73C1706.06 1106.53 1708.05 1108.22 1708.43 1110.52L1711.94 1131.68C1712.68 1136.1 1716.5 1139.34 1720.99 1139.34C1726.05 1139.34 1730.15 1135.24 1730.15 1130.18C1730.15 1127.36 1733 1125.4 1735.73 1126.12C1740.18 1127.28 1744.93 1127.91 1749.85 1127.91C1755.39 1127.91 1760.72 1127.11 1765.65 1125.64C1768.58 1124.77 1771.73 1126.84 1771.73 1129.9C1771.73 1135.11 1775.96 1139.34 1781.18 1139.34C1785.57 1139.34 1789.39 1136.33 1790.27 1132.03C1794.08 1113.47 1796.36 1093.77 1796.47 1092.86C1796.47 1092.83 1796.45 1092.82 1796.43 1092.82C1796.4 1092.81 1796.39 1092.79 1796.39 1092.77C1796.52 1091.59 1796.59 1090.4 1796.59 1089.19C1796.59 1068.83 1780.09 1052.33 1759.73 1052.33L1729.11 1052.33C1727.13 1052.33 1725.42 1051.07 1724.33 1049.42C1721.65 1045.35 1717.05 1042.67 1711.81 1042.67ZM1737.32 1064.4C1735.37 1064.4 1733.8 1065.98 1733.8 1067.92C1733.8 1069.87 1735.37 1071.44 1737.32 1071.44H1761.53C1763.48 1071.44 1765.05 1069.87 1765.05 1067.92C1765.05 1065.98 1763.48 1064.4 1761.53 1064.4H1737.32Z" fill="black"/>
</g>
</g>
<g id="Regular-M">
<g id="Solid / Pension Solid_15">
<path id="Shape_15" fill-rule="evenodd" clip-rule="evenodd" d="M1415.81 1042.67C1413.88 1042.67 1412.32 1044.24 1412.32 1046.17V1067.55C1412.32 1070.18 1410.18 1072.31 1407.55 1072.31H1406.26C1401.37 1072.31 1397.41 1076.27 1397.41 1081.16V1097.69C1397.41 1102.57 1401.37 1106.53 1406.26 1106.53H1407.73C1410.06 1106.53 1412.05 1108.22 1412.43 1110.52L1415.94 1131.68C1416.68 1136.1 1420.5 1139.34 1424.99 1139.34C1430.05 1139.34 1434.15 1135.24 1434.15 1130.18C1434.15 1127.36 1437 1125.4 1439.73 1126.12C1444.18 1127.28 1448.93 1127.91 1453.85 1127.91C1459.39 1127.91 1464.72 1127.11 1469.65 1125.64C1472.58 1124.77 1475.73 1126.84 1475.73 1129.9C1475.73 1135.11 1479.96 1139.34 1485.18 1139.34C1489.57 1139.34 1493.39 1136.33 1494.27 1132.03C1498.08 1113.47 1500.36 1093.77 1500.47 1092.86C1500.47 1092.83 1500.45 1092.82 1500.43 1092.82C1500.4 1092.81 1500.39 1092.79 1500.39 1092.77C1500.52 1091.59 1500.59 1090.4 1500.59 1089.19C1500.59 1068.83 1484.09 1052.33 1463.73 1052.33L1433.11 1052.33C1431.13 1052.33 1429.42 1051.07 1428.33 1049.42C1425.65 1045.35 1421.05 1042.67 1415.81 1042.67ZM1441.32 1064.4C1439.37 1064.4 1437.8 1065.98 1437.8 1067.92C1437.8 1069.87 1439.37 1071.44 1441.32 1071.44H1465.53C1467.48 1071.44 1469.05 1069.87 1469.05 1067.92C1469.05 1065.98 1467.48 1064.4 1465.53 1064.4H1441.32Z" fill="black"/>
</g>
</g>
<g id="Light-M">
<g id="Solid / Pension Solid_16">
<path id="Shape_16" fill-rule="evenodd" clip-rule="evenodd" d="M1119.81 1042.67C1117.88 1042.67 1116.32 1044.24 1116.32 1046.17V1067.55C1116.32 1070.18 1114.18 1072.31 1111.55 1072.31H1110.26C1105.37 1072.31 1101.41 1076.27 1101.41 1081.16V1097.69C1101.41 1102.57 1105.37 1106.53 1110.26 1106.53H1111.73C1114.06 1106.53 1116.05 1108.22 1116.43 1110.52L1119.94 1131.68C1120.68 1136.1 1124.5 1139.34 1128.99 1139.34C1134.05 1139.34 1138.15 1135.24 1138.15 1130.18C1138.15 1127.36 1141 1125.4 1143.73 1126.12C1148.18 1127.28 1152.93 1127.91 1157.85 1127.91C1163.39 1127.91 1168.72 1127.11 1173.65 1125.64C1176.58 1124.77 1179.73 1126.84 1179.73 1129.9C1179.73 1135.11 1183.96 1139.34 1189.18 1139.34C1193.57 1139.34 1197.39 1136.33 1198.27 1132.03C1202.08 1113.47 1204.36 1093.77 1204.47 1092.86C1204.47 1092.83 1204.45 1092.82 1204.43 1092.82C1204.4 1092.81 1204.39 1092.79 1204.39 1092.77C1204.52 1091.59 1204.59 1090.4 1204.59 1089.19C1204.59 1068.83 1188.09 1052.33 1167.73 1052.33L1137.11 1052.33C1135.13 1052.33 1133.42 1051.07 1132.33 1049.42C1129.65 1045.35 1125.05 1042.67 1119.81 1042.67ZM1145.32 1064.4C1143.37 1064.4 1141.8 1065.98 1141.8 1067.92C1141.8 1069.87 1143.37 1071.44 1145.32 1071.44H1169.53C1171.48 1071.44 1173.05 1069.87 1173.05 1067.92C1173.05 1065.98 1171.48 1064.4 1169.53 1064.4H1145.32Z" fill="black"/>
</g>
</g>
<g id="Thin-M">
<g id="Solid / Pension Solid_17">
<path id="Shape_17" fill-rule="evenodd" clip-rule="evenodd" d="M823.813 1042.67C821.881 1042.67 820.315 1044.24 820.315 1046.17V1067.55C820.315 1070.18 818.182 1072.31 815.551 1072.31H814.257C809.371 1072.31 805.41 1076.27 805.41 1081.16V1097.69C805.41 1102.57 809.371 1106.53 814.257 1106.53H815.734C818.064 1106.53 820.052 1108.22 820.433 1110.52L823.943 1131.68C824.677 1136.1 828.503 1139.34 832.986 1139.34C838.049 1139.34 842.153 1135.24 842.153 1130.18C842.153 1127.36 844.996 1125.4 847.727 1126.12C852.182 1127.28 856.926 1127.91 861.847 1127.91C867.395 1127.91 872.716 1127.11 877.653 1125.64C880.579 1124.77 883.733 1126.84 883.733 1129.9C883.733 1135.11 887.963 1139.34 893.181 1139.34C897.569 1139.34 901.391 1136.33 902.272 1132.03C906.076 1113.47 908.363 1093.77 908.467 1092.86C908.47 1092.83 908.452 1092.82 908.428 1092.82C908.404 1092.81 908.387 1092.79 908.39 1092.77C908.52 1091.59 908.586 1090.4 908.586 1089.19C908.586 1068.83 892.085 1052.33 871.73 1052.33L841.112 1052.33C839.135 1052.33 837.422 1051.07 836.332 1049.42C833.651 1045.35 829.045 1042.67 823.813 1042.67ZM849.316 1064.4C847.372 1064.4 845.796 1065.98 845.796 1067.92C845.796 1069.87 847.372 1071.44 849.316 1071.44H873.534C875.478 1071.44 877.054 1069.87 877.054 1067.92C877.054 1065.98 875.478 1064.4 873.534 1064.4H849.316Z" fill="black"/>
</g>
</g>
<g id="Ultralight-M">
<g id="Solid / Pension Solid_18">
<path id="Shape_18" fill-rule="evenodd" clip-rule="evenodd" d="M527.813 1042.67C525.881 1042.67 524.315 1044.24 524.315 1046.17V1067.55C524.315 1070.18 522.182 1072.31 519.551 1072.31H518.257C513.371 1072.31 509.41 1076.27 509.41 1081.16V1097.69C509.41 1102.57 513.371 1106.53 518.257 1106.53H519.734C522.064 1106.53 524.052 1108.22 524.433 1110.52L527.943 1131.68C528.677 1136.1 532.503 1139.34 536.986 1139.34C542.049 1139.34 546.153 1135.24 546.153 1130.18C546.153 1127.36 548.996 1125.4 551.727 1126.12C556.182 1127.28 560.926 1127.91 565.847 1127.91C571.395 1127.91 576.716 1127.11 581.653 1125.64C584.579 1124.77 587.733 1126.84 587.733 1129.9C587.733 1135.11 591.963 1139.34 597.181 1139.34C601.569 1139.34 605.391 1136.33 606.272 1132.03C610.076 1113.47 612.363 1093.77 612.467 1092.86C612.47 1092.83 612.452 1092.82 612.428 1092.82C612.404 1092.81 612.387 1092.79 612.39 1092.77C612.52 1091.59 612.586 1090.4 612.586 1089.19C612.586 1068.83 596.085 1052.33 575.73 1052.33L545.112 1052.33C543.135 1052.33 541.422 1051.07 540.332 1049.42C537.651 1045.35 533.045 1042.67 527.813 1042.67ZM553.316 1064.4C551.372 1064.4 549.796 1065.98 549.796 1067.92C549.796 1069.87 551.372 1071.44 553.316 1071.44H577.534C579.478 1071.44 581.054 1069.87 581.054 1067.92C581.054 1065.98 579.478 1064.4 577.534 1064.4H553.316Z" fill="black"/>
</g>
</g>
<g id="Black-S">
<g id="Solid / Pension Solid_19">
<path id="Shape_19" fill-rule="evenodd" clip-rule="evenodd" d="M2905.3 626.477C2903.92 626.477 2902.8 627.595 2902.8 628.975V644.245C2902.8 646.124 2901.28 647.648 2899.4 647.648H2898.47C2894.98 647.648 2892.15 650.477 2892.15 653.967V665.773C2892.15 669.263 2894.98 672.093 2898.47 672.093H2899.53C2901.19 672.093 2902.61 673.297 2902.88 674.939L2905.39 690.052C2905.91 693.212 2908.65 695.529 2911.85 695.529C2915.47 695.529 2918.4 692.597 2918.4 688.981C2918.4 686.965 2920.43 685.568 2922.38 686.079C2925.56 686.914 2928.95 687.364 2932.46 687.364C2936.43 687.364 2940.23 686.792 2943.75 685.743C2945.84 685.12 2948.1 686.598 2948.1 688.779C2948.1 692.507 2951.12 695.528 2954.85 695.528C2957.98 695.528 2960.71 693.373 2961.34 690.303C2964.06 677.045 2965.69 662.973 2965.76 662.325C2965.77 662.307 2965.75 662.299 2965.74 662.296C2965.72 662.293 2965.71 662.277 2965.71 662.26C2965.8 661.418 2965.85 660.565 2965.85 659.704C2965.85 645.164 2954.06 633.377 2939.52 633.377L2917.65 633.377C2916.24 633.377 2915.02 632.472 2914.24 631.293C2912.32 628.391 2909.03 626.477 2905.3 626.477ZM2923.51 641.998C2922.12 641.998 2921 643.124 2921 644.512C2921 645.901 2922.12 647.027 2923.51 647.027H2940.81C2942.2 647.027 2943.33 645.901 2943.33 644.512C2943.33 643.124 2942.2 641.998 2940.81 641.998H2923.51Z" fill="black"/>
</g>
</g>
<g id="Heavy-S">
<g id="Solid / Pension Solid_20">
<path id="Shape_20" fill-rule="evenodd" clip-rule="evenodd" d="M2609.3 626.477C2607.92 626.477 2606.8 627.595 2606.8 628.975V644.245C2606.8 646.124 2605.28 647.648 2603.4 647.648H2602.47C2598.98 647.648 2596.15 650.477 2596.15 653.967V665.773C2596.15 669.263 2598.98 672.093 2602.47 672.093H2603.53C2605.19 672.093 2606.61 673.297 2606.88 674.939L2609.39 690.052C2609.91 693.212 2612.65 695.529 2615.85 695.529C2619.47 695.529 2622.4 692.597 2622.4 688.981C2622.4 686.965 2624.43 685.568 2626.38 686.079C2629.56 686.914 2632.95 687.364 2636.46 687.364C2640.43 687.364 2644.23 686.792 2647.75 685.743C2649.84 685.12 2652.1 686.598 2652.1 688.779C2652.1 692.507 2655.12 695.528 2658.85 695.528C2661.98 695.528 2664.71 693.373 2665.34 690.303C2668.06 677.045 2669.69 662.973 2669.76 662.325C2669.77 662.307 2669.75 662.299 2669.74 662.296C2669.72 662.293 2669.71 662.277 2669.71 662.26C2669.8 661.418 2669.85 660.565 2669.85 659.704C2669.85 645.164 2658.06 633.377 2643.52 633.377L2621.65 633.377C2620.24 633.377 2619.02 632.472 2618.24 631.293C2616.32 628.391 2613.03 626.477 2609.3 626.477ZM2627.51 641.998C2626.12 641.998 2625 643.124 2625 644.512C2625 645.901 2626.12 647.027 2627.51 647.027H2644.81C2646.2 647.027 2647.33 645.901 2647.33 644.512C2647.33 643.124 2646.2 641.998 2644.81 641.998H2627.51Z" fill="black"/>
</g>
</g>
<g id="Bold-S">
<g id="Solid / Pension Solid_21">
<path id="Shape_21" fill-rule="evenodd" clip-rule="evenodd" d="M2313.3 626.477C2311.92 626.477 2310.8 627.595 2310.8 628.975V644.245C2310.8 646.124 2309.28 647.648 2307.4 647.648H2306.47C2302.98 647.648 2300.15 650.477 2300.15 653.967V665.773C2300.15 669.263 2302.98 672.093 2306.47 672.093H2307.53C2309.19 672.093 2310.61 673.297 2310.88 674.939L2313.39 690.052C2313.91 693.212 2316.65 695.529 2319.85 695.529C2323.47 695.529 2326.4 692.597 2326.4 688.981C2326.4 686.965 2328.43 685.568 2330.38 686.079C2333.56 686.914 2336.95 687.364 2340.46 687.364C2344.43 687.364 2348.23 686.792 2351.75 685.743C2353.84 685.12 2356.1 686.598 2356.1 688.779C2356.1 692.507 2359.12 695.528 2362.85 695.528C2365.98 695.528 2368.71 693.373 2369.34 690.303C2372.06 677.045 2373.69 662.973 2373.76 662.325C2373.77 662.307 2373.75 662.299 2373.74 662.296C2373.72 662.293 2373.71 662.277 2373.71 662.26C2373.8 661.418 2373.85 660.565 2373.85 659.704C2373.85 645.164 2362.06 633.377 2347.52 633.377L2325.65 633.377C2324.24 633.377 2323.02 632.472 2322.24 631.293C2320.32 628.391 2317.03 626.477 2313.3 626.477ZM2331.51 641.998C2330.12 641.998 2329 643.124 2329 644.512C2329 645.901 2330.12 647.027 2331.51 647.027H2348.81C2350.2 647.027 2351.33 645.901 2351.33 644.512C2351.33 643.124 2350.2 641.998 2348.81 641.998H2331.51Z" fill="black"/>
</g>
</g>
<g id="Semibold-S">
<g id="Solid / Pension Solid_22">
<path id="Shape_22" fill-rule="evenodd" clip-rule="evenodd" d="M2017.3 626.477C2015.92 626.477 2014.8 627.595 2014.8 628.975V644.245C2014.8 646.124 2013.28 647.648 2011.4 647.648H2010.47C2006.98 647.648 2004.15 650.477 2004.15 653.967V665.773C2004.15 669.263 2006.98 672.093 2010.47 672.093H2011.53C2013.19 672.093 2014.61 673.297 2014.88 674.939L2017.39 690.052C2017.91 693.212 2020.65 695.529 2023.85 695.529C2027.47 695.529 2030.4 692.597 2030.4 688.981C2030.4 686.965 2032.43 685.568 2034.38 686.079C2037.56 686.914 2040.95 687.364 2044.46 687.364C2048.43 687.364 2052.23 686.792 2055.75 685.743C2057.84 685.12 2060.1 686.598 2060.1 688.779C2060.1 692.507 2063.12 695.528 2066.85 695.528C2069.98 695.528 2072.71 693.373 2073.34 690.303C2076.06 677.045 2077.69 662.973 2077.76 662.325C2077.77 662.307 2077.75 662.299 2077.74 662.296C2077.72 662.293 2077.71 662.277 2077.71 662.26C2077.8 661.418 2077.85 660.565 2077.85 659.704C2077.85 645.164 2066.06 633.377 2051.52 633.377L2029.65 633.377C2028.24 633.377 2027.02 632.472 2026.24 631.293C2024.32 628.391 2021.03 626.477 2017.3 626.477ZM2035.51 641.998C2034.12 641.998 2033 643.124 2033 644.512C2033 645.901 2034.12 647.027 2035.51 647.027H2052.81C2054.2 647.027 2055.33 645.901 2055.33 644.512C2055.33 643.124 2054.2 641.998 2052.81 641.998H2035.51Z" fill="black"/>
</g>
</g>
<g id="Medium-S">
<g id="Solid / Pension Solid_23">
<path id="Shape_23" fill-rule="evenodd" clip-rule="evenodd" d="M1721.3 626.477C1719.92 626.477 1718.8 627.595 1718.8 628.975V644.245C1718.8 646.124 1717.28 647.648 1715.4 647.648H1714.47C1710.98 647.648 1708.15 650.477 1708.15 653.967V665.773C1708.15 669.263 1710.98 672.093 1714.47 672.093H1715.53C1717.19 672.093 1718.61 673.297 1718.88 674.939L1721.39 690.052C1721.91 693.212 1724.65 695.529 1727.85 695.529C1731.47 695.529 1734.4 692.597 1734.4 688.981C1734.4 686.965 1736.43 685.568 1738.38 686.079C1741.56 686.914 1744.95 687.364 1748.46 687.364C1752.43 687.364 1756.23 686.792 1759.75 685.743C1761.84 685.12 1764.1 686.598 1764.1 688.779C1764.1 692.507 1767.12 695.528 1770.85 695.528C1773.98 695.528 1776.71 693.373 1777.34 690.303C1780.06 677.045 1781.69 662.973 1781.76 662.325C1781.77 662.307 1781.75 662.299 1781.74 662.296C1781.72 662.293 1781.71 662.277 1781.71 662.26C1781.8 661.418 1781.85 660.565 1781.85 659.704C1781.85 645.164 1770.06 633.377 1755.52 633.377L1733.65 633.377C1732.24 633.377 1731.02 632.472 1730.24 631.293C1728.32 628.391 1725.03 626.477 1721.3 626.477ZM1739.51 641.998C1738.12 641.998 1737 643.124 1737 644.512C1737 645.901 1738.12 647.027 1739.51 647.027H1756.81C1758.2 647.027 1759.33 645.901 1759.33 644.512C1759.33 643.124 1758.2 641.998 1756.81 641.998H1739.51Z" fill="black"/>
</g>
</g>
<g id="Regular-S">
<g id="Solid / Pension Solid_24">
<path id="Shape_24" fill-rule="evenodd" clip-rule="evenodd" d="M1425.3 626.477C1423.92 626.477 1422.8 627.595 1422.8 628.975V644.245C1422.8 646.124 1421.28 647.648 1419.4 647.648H1418.47C1414.98 647.648 1412.15 650.477 1412.15 653.967V665.773C1412.15 669.263 1414.98 672.093 1418.47 672.093H1419.53C1421.19 672.093 1422.61 673.297 1422.88 674.939L1425.39 690.052C1425.91 693.212 1428.65 695.529 1431.85 695.529C1435.47 695.529 1438.4 692.597 1438.4 688.981C1438.4 686.965 1440.43 685.568 1442.38 686.079C1445.56 686.914 1448.95 687.364 1452.46 687.364C1456.43 687.364 1460.23 686.792 1463.75 685.743C1465.84 685.12 1468.1 686.598 1468.1 688.779C1468.1 692.507 1471.12 695.528 1474.85 695.528C1477.98 695.528 1480.71 693.373 1481.34 690.303C1484.06 677.045 1485.69 662.973 1485.76 662.325C1485.77 662.307 1485.75 662.299 1485.74 662.296C1485.72 662.293 1485.71 662.277 1485.71 662.26C1485.8 661.418 1485.85 660.565 1485.85 659.704C1485.85 645.164 1474.06 633.377 1459.52 633.377L1437.65 633.377C1436.24 633.377 1435.02 632.472 1434.24 631.293C1432.32 628.391 1429.03 626.477 1425.3 626.477ZM1443.51 641.998C1442.12 641.998 1441 643.124 1441 644.512C1441 645.901 1442.12 647.027 1443.51 647.027H1460.81C1462.2 647.027 1463.33 645.901 1463.33 644.512C1463.33 643.124 1462.2 641.998 1460.81 641.998H1443.51Z" fill="black"/>
</g>
</g>
<g id="Light-S">
<g id="Solid / Pension Solid_25">
<path id="Shape_25" fill-rule="evenodd" clip-rule="evenodd" d="M1129.3 626.477C1127.92 626.477 1126.8 627.595 1126.8 628.975V644.245C1126.8 646.124 1125.28 647.648 1123.4 647.648H1122.47C1118.98 647.648 1116.15 650.477 1116.15 653.967V665.773C1116.15 669.263 1118.98 672.093 1122.47 672.093H1123.53C1125.19 672.093 1126.61 673.297 1126.88 674.939L1129.39 690.052C1129.91 693.212 1132.65 695.529 1135.85 695.529C1139.47 695.529 1142.4 692.597 1142.4 688.981C1142.4 686.965 1144.43 685.568 1146.38 686.079C1149.56 686.914 1152.95 687.364 1156.46 687.364C1160.43 687.364 1164.23 686.792 1167.75 685.743C1169.84 685.12 1172.1 686.598 1172.1 688.779C1172.1 692.507 1175.12 695.528 1178.85 695.528C1181.98 695.528 1184.71 693.373 1185.34 690.303C1188.06 677.045 1189.69 662.973 1189.76 662.325C1189.77 662.307 1189.75 662.299 1189.74 662.296C1189.72 662.293 1189.71 662.277 1189.71 662.26C1189.8 661.418 1189.85 660.565 1189.85 659.704C1189.85 645.164 1178.06 633.377 1163.52 633.377L1141.65 633.377C1140.24 633.377 1139.02 632.472 1138.24 631.293C1136.32 628.391 1133.03 626.477 1129.3 626.477ZM1147.51 641.998C1146.12 641.998 1145 643.124 1145 644.512C1145 645.901 1146.12 647.027 1147.51 647.027H1164.81C1166.2 647.027 1167.33 645.901 1167.33 644.512C1167.33 643.124 1166.2 641.998 1164.81 641.998H1147.51Z" fill="black"/>
</g>
</g>
<g id="Thin-S">
<g id="Solid / Pension Solid_26">
<path id="Shape_26" fill-rule="evenodd" clip-rule="evenodd" d="M833.297 626.477C831.917 626.477 830.799 627.595 830.799 628.975V644.245C830.799 646.124 829.275 647.648 827.396 647.648H826.472C822.982 647.648 820.152 650.477 820.152 653.967V665.773C820.152 669.263 822.982 672.093 826.472 672.093H827.526C829.191 672.093 830.611 673.297 830.883 674.939L833.39 690.052C833.914 693.212 836.647 695.529 839.85 695.529C843.466 695.529 846.398 692.597 846.398 688.981C846.398 686.965 848.428 685.568 850.379 686.079C853.561 686.914 856.949 687.364 860.465 687.364C864.427 687.364 868.228 686.792 871.754 685.743C873.844 685.12 876.097 686.598 876.097 688.779C876.097 692.507 879.119 695.528 882.846 695.528C885.98 695.528 888.71 693.373 889.339 690.303C892.057 677.045 893.69 662.973 893.765 662.325C893.767 662.307 893.754 662.299 893.736 662.296C893.719 662.293 893.707 662.277 893.709 662.26C893.802 661.418 893.85 660.565 893.85 659.704C893.85 645.164 882.063 633.377 867.523 633.377L845.654 633.377C844.241 633.377 843.018 632.472 842.24 631.293C840.324 628.391 837.034 626.477 833.297 626.477ZM851.514 641.998C850.125 641.998 848.999 643.124 848.999 644.512C848.999 645.901 850.125 647.027 851.514 647.027H868.812C870.201 647.027 871.327 645.901 871.327 644.512C871.327 643.124 870.201 641.998 868.812 641.998H851.514Z" fill="black"/>
</g>
</g>
<g id="Ultralight-S">
<g id="Solid / Pension Solid_27">
<path id="Shape_27" fill-rule="evenodd" clip-rule="evenodd" d="M537.297 626.477C535.917 626.477 534.799 627.595 534.799 628.975V644.245C534.799 646.124 533.275 647.648 531.396 647.648H530.472C526.982 647.648 524.152 650.477 524.152 653.967V665.773C524.152 669.263 526.982 672.093 530.472 672.093H531.526C533.191 672.093 534.611 673.297 534.883 674.939L537.39 690.052C537.914 693.212 540.647 695.529 543.85 695.529C547.466 695.529 550.398 692.597 550.398 688.981C550.398 686.965 552.428 685.568 554.379 686.079C557.561 686.914 560.949 687.364 564.465 687.364C568.427 687.364 572.228 686.792 575.754 685.743C577.844 685.12 580.097 686.598 580.097 688.779C580.097 692.507 583.119 695.528 586.846 695.528C589.98 695.528 592.71 693.373 593.339 690.303C596.057 677.045 597.69 662.973 597.765 662.325C597.767 662.307 597.754 662.299 597.736 662.296C597.719 662.293 597.707 662.277 597.709 662.26C597.802 661.418 597.85 660.565 597.85 659.704C597.85 645.164 586.063 633.377 571.523 633.377L549.654 633.377C548.241 633.377 547.018 632.472 546.24 631.293C544.324 628.391 541.034 626.477 537.297 626.477ZM555.514 641.998C554.125 641.998 552.999 643.124 552.999 644.512C552.999 645.901 554.125 647.027 555.514 647.027H572.812C574.201 647.027 575.327 645.901 575.327 644.512C575.327 643.124 574.201 641.998 572.812 641.998H555.514Z" fill="black"/>
</g>
</g>
</g>
</g>
<defs>
<clipPath id="clip0_0_1">
<rect width="3300" height="2200" fill="white"/>
</clipPath>
</defs>
</svg>
