<svg width="3300" height="2200" viewBox="0 0 3300 2200" fill="none" xmlns="http://www.w3.org/2000/svg">
<rect width="3300" height="2200" fill="#E5E5E5"/>
<g id="System / Outline / Small Arrow Up" clip-path="url(#clip0_805_27002)">
<g id="Notes">
<path id="artboard" d="M3300 0H0V2200H3300V0Z" fill="white"/>
<path id="Vector" d="M263 292H3036" stroke="black" stroke-width="0.5"/>
<text id="Weight/Scale Variations" fill="black" xml:space="preserve" style="white-space: pre" font-family="Roboto" font-size="12" letter-spacing="0em"><tspan x="263" y="321.102">Weight/Scale Variations</tspan></text>
<text id="Ultralight" fill="black" xml:space="preserve" style="white-space: pre" font-family="Roboto" font-size="12" letter-spacing="0em"><tspan x="535.211" y="321.102">Ultralight</tspan></text>
<text id="Thin" fill="black" xml:space="preserve" style="white-space: pre" font-family="Roboto" font-size="12" letter-spacing="0em"><tspan x="844.422" y="321.102">Thin</tspan></text>
<text id="Light" fill="black" xml:space="preserve" style="white-space: pre" font-family="Roboto" font-size="12" letter-spacing="0em"><tspan x="1139.63" y="321.102">Light</tspan></text>
<text id="Regular" fill="black" xml:space="preserve" style="white-space: pre" font-family="Roboto" font-size="12" letter-spacing="0em"><tspan x="1429.34" y="321.102">Regular</tspan></text>
<text id="Medium" fill="black" xml:space="preserve" style="white-space: pre" font-family="Roboto" font-size="12" letter-spacing="0em"><tspan x="1724.56" y="321.102">Medium</tspan></text>
<text id="Semibold" fill="black" xml:space="preserve" style="white-space: pre" font-family="Roboto" font-size="12" letter-spacing="0em"><tspan x="2017.77" y="321.102">Semibold</tspan></text>
<text id="Bold" fill="black" xml:space="preserve" style="white-space: pre" font-family="Roboto" font-size="12" letter-spacing="0em"><tspan x="2327.48" y="321.102">Bold</tspan></text>
<text id="Heavy" fill="black" xml:space="preserve" style="white-space: pre" font-family="Roboto" font-size="12" letter-spacing="0em"><tspan x="2620.19" y="321.102">Heavy</tspan></text>
<text id="Black" fill="black" xml:space="preserve" style="white-space: pre" font-family="Roboto" font-size="12" letter-spacing="0em"><tspan x="2918.4" y="321.102">Black</tspan></text>
<path id="Vector_2" d="M263 1903H3036" stroke="black" stroke-width="0.5"/>
<g id="Group">
<path id="Vector_3" d="M272.248 1933.83C276.555 1933.83 280.139 1930.26 280.139 1925.95C280.139 1921.64 276.545 1918.07 272.238 1918.07C267.941 1918.07 264.367 1921.64 264.367 1925.95C264.367 1930.26 267.951 1933.83 272.248 1933.83ZM272.248 1932.35C268.703 1932.35 265.871 1929.51 265.871 1925.95C265.871 1922.4 268.693 1919.55 272.238 1919.55C275.793 1919.55 278.635 1922.4 278.644 1925.95C278.654 1929.51 275.803 1932.35 272.248 1932.35ZM272.229 1929.57C272.697 1929.57 272.971 1929.26 272.971 1928.74V1926.68H275.197C275.695 1926.68 276.037 1926.43 276.037 1925.96C276.037 1925.48 275.715 1925.22 275.197 1925.22H272.971V1922.99C272.971 1922.47 272.697 1922.15 272.229 1922.15C271.76 1922.15 271.506 1922.49 271.506 1922.99V1925.22H269.299C268.781 1925.22 268.449 1925.48 268.449 1925.96C268.449 1926.43 268.801 1926.68 269.299 1926.68H271.506V1928.74C271.506 1929.24 271.76 1929.57 272.229 1929.57Z" fill="black"/>
</g>
<g id="Group_2">
<path id="Vector_4" d="M293.215 1935.91C298.664 1935.91 303.176 1931.4 303.176 1925.95C303.176 1920.51 298.654 1915.99 293.205 1915.99C287.766 1915.99 283.254 1920.51 283.254 1925.95C283.254 1931.4 287.775 1935.91 293.215 1935.91ZM293.215 1934.25C288.605 1934.25 284.924 1930.56 284.924 1925.95C284.924 1921.35 288.596 1917.65 293.205 1917.65C297.814 1917.65 301.506 1921.35 301.516 1925.95C301.525 1930.56 297.824 1934.25 293.215 1934.25ZM293.195 1930.59C293.713 1930.59 294.025 1930.23 294.025 1929.66V1926.77H297.082C297.629 1926.77 298.01 1926.49 298.01 1925.97C298.01 1925.44 297.648 1925.14 297.082 1925.14H294.025V1922.07C294.025 1921.5 293.713 1921.14 293.195 1921.14C292.678 1921.14 292.385 1921.52 292.385 1922.07V1925.14H289.338C288.771 1925.14 288.4 1925.44 288.4 1925.97C288.4 1926.49 288.791 1926.77 289.338 1926.77H292.385V1929.66C292.385 1930.21 292.678 1930.59 293.195 1930.59Z" fill="black"/>
</g>
<g id="Group_3">
<path id="Vector_5" d="M319.895 1938.67C326.857 1938.67 332.619 1932.92 332.619 1925.96C332.619 1918.99 326.848 1913.24 319.885 1913.24C312.932 1913.24 307.18 1918.99 307.18 1925.96C307.18 1932.92 312.941 1938.67 319.895 1938.67ZM319.895 1936.86C313.859 1936.86 309.006 1931.99 309.006 1925.96C309.006 1919.92 313.85 1915.06 319.885 1915.06C325.93 1915.06 330.783 1919.92 330.793 1925.96C330.803 1931.99 325.939 1936.86 319.895 1936.86ZM319.875 1931.93C320.441 1931.93 320.793 1931.54 320.793 1930.94V1926.87H325.031C325.617 1926.87 326.037 1926.53 326.037 1925.98C326.037 1925.4 325.647 1925.06 325.031 1925.06H320.793V1920.81C320.793 1920.2 320.441 1919.8 319.875 1919.8C319.309 1919.8 318.986 1920.21 318.986 1920.81V1925.06H314.758C314.143 1925.06 313.732 1925.4 313.732 1925.98C313.732 1926.53 314.162 1926.87 314.758 1926.87H318.986V1930.94C318.986 1931.52 319.309 1931.93 319.875 1931.93Z" fill="black"/>
</g>
<text id="Design Variations" fill="black" xml:space="preserve" style="white-space: pre" font-family="Roboto" font-size="12" letter-spacing="0em"><tspan x="263" y="1952.1">Design Variations</tspan></text>
<text id="Symbols are supported in up to nine weights and three scales." fill="black" xml:space="preserve" style="white-space: pre" font-family="Roboto" font-size="12" letter-spacing="0em"><tspan x="263" y="1970.1">Symbols are supported in up to nine weights and three scales.</tspan></text>
<text id="For optimal layout with text and other symbols, vertically align" fill="black" xml:space="preserve" style="white-space: pre" font-family="Roboto" font-size="12" letter-spacing="0em"><tspan x="263" y="1988.1">For optimal layout with text and other symbols, vertically align</tspan></text>
<text id="symbols with the adjacent text." fill="black" xml:space="preserve" style="white-space: pre" font-family="Roboto" font-size="12" letter-spacing="0em"><tspan x="263" y="2006.1">symbols with the adjacent text.</tspan></text>
<path id="Vector_6" opacity="0.4" d="M779 1919H776V1933H779V1919Z" fill="#00AEEF"/>
<g id="Group_4">
<path id="Vector_7" d="M789.527 1933H791.373L786.178 1918.91H784.439L779.244 1933H781.09L782.506 1928.96H788.111L789.527 1933ZM785.279 1921.04H785.338L787.594 1927.47H783.023L785.279 1921.04Z" fill="black"/>
</g>
<path id="Vector_8" opacity="0.4" d="M794.617 1919H791.617V1933H794.617V1919Z" fill="#00AEEF"/>
<text id="Margins" fill="black" xml:space="preserve" style="white-space: pre" font-family="Roboto" font-size="12" letter-spacing="0em"><tspan x="776" y="1952.1">Margins</tspan></text>
<text id="Leading and trailing margins on the left and right side of each symbol" fill="black" xml:space="preserve" style="white-space: pre" font-family="Roboto" font-size="12" letter-spacing="0em"><tspan x="776" y="1970.1">Leading and trailing margins on the left and right side of each symbol</tspan></text>
<text id="can be adjusted by modifying the width of the blue rectangles." fill="black" xml:space="preserve" style="white-space: pre" font-family="Roboto" font-size="12" letter-spacing="0em"><tspan x="776" y="1988.1">can be adjusted by modifying the width of the blue rectangles.</tspan></text>
<text id="Modifications are automatically applied proportionally to all" fill="black" xml:space="preserve" style="white-space: pre" font-family="Roboto" font-size="12" letter-spacing="0em"><tspan x="776" y="2006.1">Modifications are automatically applied proportionally to all</tspan></text>
<text id="scales and weights." fill="black" xml:space="preserve" style="white-space: pre" font-family="Roboto" font-size="12" letter-spacing="0em"><tspan x="776" y="2024.1">scales and weights.</tspan></text>
<g id="Group_5">
<path id="Vector_9" d="M1291.83 1936.11L1293.37 1937.66C1294.22 1938.49 1295.19 1938.42 1296.06 1937.46L1306.27 1926.34C1306.7 1926.63 1307.1 1926.62 1307.56 1926.52L1308.61 1926.31L1309.3 1927L1309.25 1927.52C1309.19 1928.05 1309.35 1928.47 1309.85 1928.97L1310.66 1929.78C1311.17 1930.28 1311.82 1930.31 1312.3 1929.83L1315.55 1926.58C1316.03 1926.1 1316.01 1925.45 1315.5 1924.94L1314.68 1924.12C1314.19 1923.62 1313.77 1923.45 1313.24 1923.53L1312.71 1923.58L1312.06 1922.92L1312.34 1921.78C1312.49 1921.21 1312.34 1920.74 1311.71 1920.14L1309.3 1917.75C1305.76 1914.22 1301.23 1914.33 1298.11 1917.46C1297.69 1917.89 1297.64 1918.48 1297.92 1918.91C1298.15 1919.28 1298.63 1919.5 1299.27 1919.34C1300.79 1918.96 1302.3 1919.07 1303.78 1920.08L1303.16 1921.66C1302.93 1922.25 1302.94 1922.73 1303.18 1923.16L1292.02 1933.44C1291.08 1934.31 1290.97 1935.25 1291.83 1936.11ZM1299.67 1917.85C1302.34 1915.86 1305.65 1916.17 1308.05 1918.58L1310.68 1921.19C1310.91 1921.43 1310.94 1921.61 1310.88 1921.91L1310.5 1923.47L1312.08 1925.04L1313.04 1924.95C1313.33 1924.92 1313.41 1924.94 1313.64 1925.17L1314.26 1925.79L1311.51 1928.54L1310.88 1927.92C1310.66 1927.7 1310.64 1927.6 1310.67 1927.32L1310.76 1926.36L1309.19 1924.8L1307.57 1925.11C1307.29 1925.17 1307.14 1925.17 1306.91 1924.92L1304.73 1922.75C1304.51 1922.51 1304.48 1922.37 1304.61 1922.05L1305.55 1919.78C1303.95 1918.24 1301.84 1917.39 1299.8 1918.05C1299.71 1918.08 1299.64 1918.06 1299.61 1918.02C1299.59 1917.97 1299.59 1917.92 1299.67 1917.85ZM1293.1 1935.41C1292.61 1934.91 1292.79 1934.61 1293.12 1934.31L1304.08 1924.19L1305.31 1925.42L1295.15 1936.35C1294.85 1936.68 1294.47 1936.78 1294.07 1936.38L1293.1 1935.41Z" fill="black"/>
</g>
<text id="Exporting" fill="black" xml:space="preserve" style="white-space: pre" font-family="Roboto" font-size="12" letter-spacing="0em"><tspan x="1289" y="1952.1">Exporting</tspan></text>
<text id="Symbols should be outlined when exporting to ensure the" fill="black" xml:space="preserve" style="white-space: pre" font-family="Roboto" font-size="12" letter-spacing="0em"><tspan x="1289" y="1970.1">Symbols should be outlined when exporting to ensure the</tspan></text>
<text id="design is preserved when submitting to Xcode." fill="black" xml:space="preserve" style="white-space: pre" font-family="Roboto" font-size="12" letter-spacing="0em"><tspan x="1289" y="1988.1">design is preserved when submitting to Xcode.</tspan></text>
<text id="template-version" fill="black" xml:space="preserve" style="white-space: pre" font-family="Roboto" font-size="12" letter-spacing="0em"><tspan x="2958" y="1932.1">Template v.1.0</tspan></text>
<text id="Generated from pencil.circle" fill="black" xml:space="preserve" style="white-space: pre" font-family="Roboto" font-size="12" letter-spacing="0em"><tspan x="2885" y="1950.1">Generated from pencil.circle</tspan></text>
<text id="Typeset at 100 points" fill="black" xml:space="preserve" style="white-space: pre" font-family="Roboto" font-size="12" letter-spacing="0em"><tspan x="2921" y="1968.1">Typeset at 100 points</tspan></text>
<text id="Small" fill="black" xml:space="preserve" style="white-space: pre" font-family="Roboto" font-size="12" letter-spacing="0em"><tspan x="263" y="725.102">Small</tspan></text>
<text id="Medium_2" fill="black" xml:space="preserve" style="white-space: pre" font-family="Roboto" font-size="12" letter-spacing="0em"><tspan x="263" y="1155.1">Medium</tspan></text>
<text id="Large" fill="black" xml:space="preserve" style="white-space: pre" font-family="Roboto" font-size="12" letter-spacing="0em"><tspan x="263" y="1585.1">Large</tspan></text>
</g>
<g id="Guides">
<g id="H-reference">
<path id="Vector_10" d="M393.932 695.998H396.666L369.566 625.539H367.076L339.977 695.998H342.662L351.94 671.535H384.703L393.932 695.998ZM368.199 628.908H368.443L383.824 669.289H352.818L368.199 628.908Z" fill="#27AAE1"/>
</g>
<path id="Baseline-S" d="M263 696H3036" stroke="#27AAE1" stroke-width="0.577"/>
<path id="Capline-S" d="M263 626H3036" stroke="#27AAE1" stroke-width="0.577"/>
<g id="H-reference_2">
<path id="Vector_11" d="M393.932 1126H396.666L369.566 1055.54H367.076L339.977 1126H342.662L351.94 1101.54H384.703L393.932 1126ZM368.199 1058.91H368.443L383.824 1099.29H352.818L368.199 1058.91Z" fill="#27AAE1"/>
</g>
<path id="Baseline-M" d="M263 1126H3036" stroke="#27AAE1" stroke-width="0.577"/>
<path id="Capline-M" d="M263 1056H3036" stroke="#27AAE1" stroke-width="0.577"/>
<g id="H-reference_3">
<path id="Vector_12" d="M393.932 1556H396.666L369.566 1485.54H367.076L339.977 1556H342.662L351.94 1531.54H384.703L393.932 1556ZM368.199 1488.91H368.443L383.824 1529.29H352.818L368.199 1488.91Z" fill="#27AAE1"/>
</g>
<g id="Group 1">
<path id="Baseline-L" d="M263 1556H3036" stroke="#27AAE1" stroke-width="0.577"/>
<path id="Capline-L" d="M263 1486H3036" stroke="#27AAE1" stroke-width="0.577"/>
</g>
<path id="left-margin" opacity="0.4" d="M1408.04 1030.79H1399.3V1150.12H1408.04V1030.79Z" fill="#00AEEF"/>
<path id="right-margin" opacity="0.4" d="M1497.39 1030.79H1488.65V1150.12H1497.39V1030.79Z" fill="#00AEEF"/>
</g>
<g id="Symbols">
<g id="Black-L">
<g id="Outline / Chevron Up Outline">
<path id="Shape" d="M2877.39 1546.49C2877.39 1547.84 2877.92 1549.12 2878.97 1550.09C2880.99 1551.89 2884.07 1551.74 2885.87 1549.79L2928.92 1502.02L2970.54 1550.09C2972.34 1552.12 2975.42 1552.19 2977.44 1550.39C2979.39 1548.59 2979.54 1545.52 2977.74 1543.49L2932.82 1491.75C2930.72 1489.42 2927.12 1489.42 2925.02 1491.75L2878.67 1543.19C2877.77 1544.17 2877.39 1545.29 2877.39 1546.49Z" fill="black"/>
</g>
</g>
<g id="Heavy-L">
<g id="Outline / Chevron Up Outline_2">
<path id="Shape_2" d="M2581.39 1546.49C2581.39 1547.84 2581.92 1549.12 2582.97 1550.09C2584.99 1551.89 2588.07 1551.74 2589.87 1549.79L2632.92 1502.02L2674.54 1550.09C2676.34 1552.12 2679.42 1552.19 2681.44 1550.39C2683.39 1548.59 2683.54 1545.52 2681.74 1543.49L2636.82 1491.75C2634.72 1489.42 2631.12 1489.42 2629.02 1491.75L2582.67 1543.19C2581.77 1544.17 2581.39 1545.29 2581.39 1546.49Z" fill="black"/>
</g>
</g>
<g id="Bold-L">
<g id="Outline / Chevron Up Outline_3">
<path id="Shape_3" d="M2285.39 1546.49C2285.39 1547.84 2285.92 1549.12 2286.97 1550.09C2288.99 1551.89 2292.07 1551.74 2293.87 1549.79L2336.92 1502.02L2378.54 1550.09C2380.34 1552.12 2383.42 1552.19 2385.44 1550.39C2387.39 1548.59 2387.54 1545.52 2385.74 1543.49L2340.82 1491.75C2338.72 1489.42 2335.12 1489.42 2333.02 1491.75L2286.67 1543.19C2285.77 1544.17 2285.39 1545.29 2285.39 1546.49Z" fill="black"/>
</g>
</g>
<g id="Semibold-L">
<g id="Outline / Chevron Up Outline_4">
<path id="Shape_4" d="M1989.39 1546.49C1989.39 1547.84 1989.92 1549.12 1990.97 1550.09C1992.99 1551.89 1996.07 1551.74 1997.87 1549.79L2040.92 1502.02L2082.54 1550.09C2084.34 1552.12 2087.42 1552.19 2089.44 1550.39C2091.39 1548.59 2091.54 1545.52 2089.74 1543.49L2044.82 1491.75C2042.72 1489.42 2039.12 1489.42 2037.02 1491.75L1990.67 1543.19C1989.77 1544.17 1989.39 1545.29 1989.39 1546.49Z" fill="black"/>
</g>
</g>
<g id="Medium-L">
<g id="Outline / Chevron Up Outline_5">
<path id="Shape_5" d="M1693.39 1546.49C1693.39 1547.84 1693.92 1549.12 1694.97 1550.09C1696.99 1551.89 1700.07 1551.74 1701.87 1549.79L1744.92 1502.02L1786.54 1550.09C1788.34 1552.12 1791.42 1552.19 1793.44 1550.39C1795.39 1548.59 1795.54 1545.52 1793.74 1543.49L1748.82 1491.75C1746.72 1489.42 1743.12 1489.42 1741.02 1491.75L1694.67 1543.19C1693.77 1544.17 1693.39 1545.29 1693.39 1546.49Z" fill="black"/>
</g>
</g>
<g id="Regular-L">
<g id="Outline / Chevron Up Outline_6">
<path id="Shape_6" d="M1397.39 1546.49C1397.39 1547.84 1397.92 1549.12 1398.97 1550.09C1400.99 1551.89 1404.07 1551.74 1405.87 1549.79L1448.92 1502.02L1490.54 1550.09C1492.34 1552.12 1495.42 1552.19 1497.44 1550.39C1499.39 1548.59 1499.54 1545.52 1497.74 1543.49L1452.82 1491.75C1450.72 1489.42 1447.12 1489.42 1445.02 1491.75L1398.67 1543.19C1397.77 1544.17 1397.39 1545.29 1397.39 1546.49Z" fill="black"/>
</g>
</g>
<g id="Light-L">
<g id="Outline / Chevron Up Outline_7">
<path id="Shape_7" d="M1101.39 1546.49C1101.39 1547.84 1101.92 1549.12 1102.97 1550.09C1104.99 1551.89 1108.07 1551.74 1109.87 1549.79L1152.92 1502.02L1194.54 1550.09C1196.34 1552.12 1199.42 1552.19 1201.44 1550.39C1203.39 1548.59 1203.54 1545.52 1201.74 1543.49L1156.82 1491.75C1154.72 1489.42 1151.12 1489.42 1149.02 1491.75L1102.67 1543.19C1101.77 1544.17 1101.39 1545.29 1101.39 1546.49Z" fill="black"/>
</g>
</g>
<g id="Thin-L">
<g id="Outline / Chevron Up Outline_8">
<path id="Shape_8" d="M805.393 1546.49C805.393 1547.84 805.918 1549.12 806.968 1550.09C808.993 1551.89 812.068 1551.74 813.868 1549.79L856.92 1502.02L898.545 1550.09C900.345 1552.12 903.42 1552.19 905.445 1550.39C907.395 1548.59 907.545 1545.52 905.745 1543.49L860.82 1491.75C858.72 1489.42 855.12 1489.42 853.02 1491.75L806.668 1543.19C805.768 1544.17 805.393 1545.29 805.393 1546.49Z" fill="black"/>
</g>
</g>
<g id="Ultralight-L">
<g id="Outline / Chevron Up Outline_9">
<path id="Shape_9" d="M509.393 1546.49C509.393 1547.84 509.918 1549.12 510.968 1550.09C512.993 1551.89 516.068 1551.74 517.868 1549.79L560.92 1502.02L602.545 1550.09C604.345 1552.12 607.42 1552.19 609.445 1550.39C611.395 1548.59 611.545 1545.52 609.745 1543.49L564.82 1491.75C562.72 1489.42 559.12 1489.42 557.02 1491.75L510.668 1543.19C509.768 1544.17 509.393 1545.29 509.393 1546.49Z" fill="black"/>
</g>
</g>
<g id="Black-M">
<g id="Outline / Chevron Up Outline_10">
<path id="Shape_10" d="M2888.86 1110.83C2888.86 1111.88 2889.27 1112.87 2890.09 1113.63C2891.66 1115.03 2894.05 1114.91 2895.45 1113.39L2928.94 1076.24L2961.31 1113.63C2962.71 1115.2 2965.1 1115.26 2966.68 1113.86C2968.2 1112.46 2968.31 1110.07 2966.91 1108.49L2931.97 1068.25C2930.34 1066.44 2927.54 1066.44 2925.9 1068.25L2889.85 1108.26C2889.15 1109.02 2888.86 1109.89 2888.86 1110.83Z" fill="black"/>
</g>
</g>
<g id="Heavy-M">
<g id="Outline / Chevron Up Outline_11">
<path id="Shape_11" d="M2592.86 1110.83C2592.86 1111.88 2593.27 1112.87 2594.09 1113.63C2595.66 1115.03 2598.05 1114.91 2599.45 1113.39L2632.94 1076.24L2665.31 1113.63C2666.71 1115.2 2669.1 1115.26 2670.68 1113.86C2672.2 1112.46 2672.31 1110.07 2670.91 1108.49L2635.97 1068.25C2634.34 1066.44 2631.54 1066.44 2629.9 1068.25L2593.85 1108.26C2593.15 1109.02 2592.86 1109.89 2592.86 1110.83Z" fill="black"/>
</g>
</g>
<g id="Bold-M">
<g id="Outline / Chevron Up Outline_12">
<path id="Shape_12" d="M2296.86 1110.83C2296.86 1111.88 2297.27 1112.87 2298.09 1113.63C2299.66 1115.03 2302.05 1114.91 2303.45 1113.39L2336.94 1076.24L2369.31 1113.63C2370.71 1115.2 2373.1 1115.26 2374.68 1113.86C2376.2 1112.46 2376.31 1110.07 2374.91 1108.49L2339.97 1068.25C2338.34 1066.44 2335.54 1066.44 2333.9 1068.25L2297.85 1108.26C2297.15 1109.02 2296.86 1109.89 2296.86 1110.83Z" fill="black"/>
</g>
</g>
<g id="Semibold-M">
<g id="Outline / Chevron Up Outline_13">
<path id="Shape_13" d="M2000.86 1110.83C2000.86 1111.88 2001.27 1112.87 2002.09 1113.63C2003.66 1115.03 2006.05 1114.91 2007.45 1113.39L2040.94 1076.24L2073.31 1113.63C2074.71 1115.2 2077.1 1115.26 2078.68 1113.86C2080.2 1112.46 2080.31 1110.07 2078.91 1108.49L2043.97 1068.25C2042.34 1066.44 2039.54 1066.44 2037.9 1068.25L2001.85 1108.26C2001.15 1109.02 2000.86 1109.89 2000.86 1110.83Z" fill="black"/>
</g>
</g>
<g id="Medium-M">
<g id="Outline / Chevron Up Outline_14">
<path id="Shape_14" d="M1704.86 1110.83C1704.86 1111.88 1705.27 1112.87 1706.09 1113.63C1707.66 1115.03 1710.05 1114.91 1711.45 1113.39L1744.94 1076.24L1777.31 1113.63C1778.71 1115.2 1781.1 1115.26 1782.68 1113.86C1784.2 1112.46 1784.31 1110.07 1782.91 1108.49L1747.97 1068.25C1746.34 1066.44 1743.54 1066.44 1741.9 1068.25L1705.85 1108.26C1705.15 1109.02 1704.86 1109.89 1704.86 1110.83Z" fill="black"/>
</g>
</g>
<g id="Regular-M">
<g id="Outline / Chevron Up Outline_15">
<path id="Shape_15" d="M1408.86 1110.83C1408.86 1111.88 1409.27 1112.87 1410.09 1113.63C1411.66 1115.03 1414.05 1114.91 1415.45 1113.39L1448.94 1076.24L1481.31 1113.63C1482.71 1115.2 1485.1 1115.26 1486.68 1113.86C1488.2 1112.46 1488.31 1110.07 1486.91 1108.49L1451.97 1068.25C1450.34 1066.44 1447.54 1066.44 1445.9 1068.25L1409.85 1108.26C1409.15 1109.02 1408.86 1109.89 1408.86 1110.83Z" fill="black"/>
</g>
</g>
<g id="Light-M">
<g id="Outline / Chevron Up Outline_16">
<path id="Shape_16" d="M1112.86 1110.83C1112.86 1111.88 1113.27 1112.87 1114.09 1113.63C1115.66 1115.03 1118.05 1114.91 1119.45 1113.39L1152.94 1076.24L1185.31 1113.63C1186.71 1115.2 1189.1 1115.26 1190.68 1113.86C1192.2 1112.46 1192.31 1110.07 1190.91 1108.49L1155.97 1068.25C1154.34 1066.44 1151.54 1066.44 1149.9 1068.25L1113.85 1108.26C1113.15 1109.02 1112.86 1109.89 1112.86 1110.83Z" fill="black"/>
</g>
</g>
<g id="Thin-M">
<g id="Outline / Chevron Up Outline_17">
<path id="Shape_17" d="M816.861 1110.83C816.861 1111.88 817.27 1112.87 818.086 1113.63C819.661 1115.03 822.053 1114.91 823.453 1113.39L856.938 1076.24L889.313 1113.63C890.713 1115.2 893.105 1115.26 894.68 1113.86C896.196 1112.46 896.313 1110.07 894.913 1108.49L859.971 1068.25C858.338 1066.44 855.538 1066.44 853.905 1068.25L817.853 1108.26C817.153 1109.02 816.861 1109.89 816.861 1110.83Z" fill="black"/>
</g>
</g>
<g id="Ultralight-M">
<g id="Outline / Chevron Up Outline_18">
<path id="Shape_18" d="M520.861 1110.83C520.861 1111.88 521.27 1112.87 522.086 1113.63C523.661 1115.03 526.053 1114.91 527.453 1113.39L560.938 1076.24L593.313 1113.63C594.713 1115.2 597.105 1115.26 598.68 1113.86C600.196 1112.46 600.313 1110.07 598.913 1108.49L563.971 1068.25C562.338 1066.44 559.538 1066.44 557.905 1068.25L521.853 1108.26C521.153 1109.02 520.861 1109.89 520.861 1110.83Z" fill="black"/>
</g>
</g>
<g id="Black-S">
<g id="Outline / Chevron Up Outline_19">
<path id="Shape_19" d="M2900.33 675.163C2900.33 675.913 2900.62 676.621 2901.21 677.163C2902.33 678.163 2904.04 678.08 2905.04 676.996L2928.96 650.458L2952.08 677.163C2953.08 678.288 2954.79 678.33 2955.91 677.33C2957 676.33 2957.08 674.622 2956.08 673.497L2931.12 644.75C2929.96 643.458 2927.96 643.458 2926.79 644.75L2901.04 673.33C2900.54 673.871 2900.33 674.496 2900.33 675.163Z" fill="black"/>
</g>
</g>
<g id="Heavy-S">
<g id="Outline / Chevron Up Outline_20">
<path id="Shape_20" d="M2604.33 675.163C2604.33 675.913 2604.62 676.621 2605.21 677.163C2606.33 678.163 2608.04 678.08 2609.04 676.996L2632.96 650.458L2656.08 677.163C2657.08 678.288 2658.79 678.33 2659.91 677.33C2661 676.33 2661.08 674.622 2660.08 673.497L2635.12 644.75C2633.96 643.458 2631.96 643.458 2630.79 644.75L2605.04 673.33C2604.54 673.871 2604.33 674.496 2604.33 675.163Z" fill="black"/>
</g>
</g>
<g id="Bold-S">
<g id="Outline / Chevron Up Outline_21">
<path id="Shape_21" d="M2308.33 675.163C2308.33 675.913 2308.62 676.621 2309.21 677.163C2310.33 678.163 2312.04 678.08 2313.04 676.996L2336.96 650.458L2360.08 677.163C2361.08 678.288 2362.79 678.33 2363.91 677.33C2365 676.33 2365.08 674.622 2364.08 673.497L2339.12 644.75C2337.96 643.458 2335.96 643.458 2334.79 644.75L2309.04 673.33C2308.54 673.871 2308.33 674.496 2308.33 675.163Z" fill="black"/>
</g>
</g>
<g id="Semibold-S">
<g id="Outline / Chevron Up Outline_22">
<path id="Shape_22" d="M2012.33 675.163C2012.33 675.913 2012.62 676.621 2013.21 677.163C2014.33 678.163 2016.04 678.08 2017.04 676.996L2040.96 650.458L2064.08 677.163C2065.08 678.288 2066.79 678.33 2067.91 677.33C2069 676.33 2069.08 674.622 2068.08 673.497L2043.12 644.75C2041.96 643.458 2039.96 643.458 2038.79 644.75L2013.04 673.33C2012.54 673.871 2012.33 674.496 2012.33 675.163Z" fill="black"/>
</g>
</g>
<g id="Medium-S">
<g id="Outline / Chevron Up Outline_23">
<path id="Shape_23" d="M1716.33 675.163C1716.33 675.913 1716.62 676.621 1717.21 677.163C1718.33 678.163 1720.04 678.08 1721.04 676.996L1744.96 650.458L1768.08 677.163C1769.08 678.288 1770.79 678.33 1771.91 677.33C1773 676.33 1773.08 674.622 1772.08 673.497L1747.12 644.75C1745.96 643.458 1743.96 643.458 1742.79 644.75L1717.04 673.33C1716.54 673.871 1716.33 674.496 1716.33 675.163Z" fill="black"/>
</g>
</g>
<g id="Regular-S">
<g id="Outline / Chevron Up Outline_24">
<path id="Shape_24" d="M1420.33 675.163C1420.33 675.913 1420.62 676.621 1421.21 677.163C1422.33 678.163 1424.04 678.08 1425.04 676.996L1448.96 650.458L1472.08 677.163C1473.08 678.288 1474.79 678.33 1475.91 677.33C1477 676.33 1477.08 674.622 1476.08 673.497L1451.12 644.75C1449.96 643.458 1447.96 643.458 1446.79 644.75L1421.04 673.33C1420.54 673.871 1420.33 674.496 1420.33 675.163Z" fill="black"/>
</g>
</g>
<g id="Light-S">
<g id="Outline / Chevron Up Outline_25">
<path id="Shape_25" d="M1124.33 675.163C1124.33 675.913 1124.62 676.621 1125.21 677.163C1126.33 678.163 1128.04 678.08 1129.04 676.996L1152.96 650.458L1176.08 677.163C1177.08 678.288 1178.79 678.33 1179.91 677.33C1181 676.33 1181.08 674.622 1180.08 673.497L1155.12 644.75C1153.96 643.458 1151.96 643.458 1150.79 644.75L1125.04 673.33C1124.54 673.871 1124.33 674.496 1124.33 675.163Z" fill="black"/>
</g>
</g>
<g id="Thin-S">
<g id="Outline / Chevron Up Outline_26">
<path id="Shape_26" d="M828.33 675.163C828.33 675.913 828.622 676.621 829.205 677.163C830.33 678.163 832.038 678.08 833.038 676.996L856.956 650.458L880.081 677.163C881.081 678.288 882.79 678.33 883.915 677.33C884.998 676.33 885.081 674.622 884.081 673.497L859.123 644.75C857.956 643.458 855.956 643.458 854.79 644.75L829.038 673.33C828.538 673.871 828.33 674.496 828.33 675.163Z" fill="black"/>
</g>
</g>
<g id="Ultralight-S">
<g id="Outline / Chevron Up Outline_27">
<path id="Shape_27" d="M532.33 675.163C532.33 675.913 532.622 676.621 533.205 677.163C534.33 678.163 536.038 678.08 537.038 676.996L560.956 650.458L584.081 677.163C585.081 678.288 586.79 678.33 587.915 677.33C588.998 676.33 589.081 674.622 588.081 673.497L563.123 644.75C561.956 643.458 559.956 643.458 558.79 644.75L533.038 673.33C532.538 673.871 532.33 674.496 532.33 675.163Z" fill="black"/>
</g>
</g>
</g>
</g>
<defs>
<clipPath id="clip0_805_27002">
<rect width="3300" height="2200" fill="white"/>
</clipPath>
</defs>
</svg>
