<svg width="3300" height="2200" viewBox="0 0 3300 2200" fill="none" xmlns="http://www.w3.org/2000/svg">
<rect width="3300" height="2200" fill="#E5E5E5"/>
<g id="Category / Outline / Layout" clip-path="url(#clip0_0_1)">
<g id="Notes">
<path id="artboard" d="M3300 0H0V2200H3300V0Z" fill="white"/>
<path id="Vector" d="M263 292H3036" stroke="black" stroke-width="0.5"/>
<text id="Weight/Scale Variations" fill="black" xml:space="preserve" style="white-space: pre" font-family="Roboto" font-size="12" letter-spacing="0em"><tspan x="263" y="321.102">Weight/Scale Variations</tspan></text>
<text id="Ultralight" fill="black" xml:space="preserve" style="white-space: pre" font-family="Roboto" font-size="12" letter-spacing="0em"><tspan x="535.211" y="321.102">Ultralight</tspan></text>
<text id="Thin" fill="black" xml:space="preserve" style="white-space: pre" font-family="Roboto" font-size="12" letter-spacing="0em"><tspan x="844.422" y="321.102">Thin</tspan></text>
<text id="Light" fill="black" xml:space="preserve" style="white-space: pre" font-family="Roboto" font-size="12" letter-spacing="0em"><tspan x="1139.63" y="321.102">Light</tspan></text>
<text id="Regular" fill="black" xml:space="preserve" style="white-space: pre" font-family="Roboto" font-size="12" letter-spacing="0em"><tspan x="1429.34" y="321.102">Regular</tspan></text>
<text id="Medium" fill="black" xml:space="preserve" style="white-space: pre" font-family="Roboto" font-size="12" letter-spacing="0em"><tspan x="1724.56" y="321.102">Medium</tspan></text>
<text id="Semibold" fill="black" xml:space="preserve" style="white-space: pre" font-family="Roboto" font-size="12" letter-spacing="0em"><tspan x="2017.77" y="321.102">Semibold</tspan></text>
<text id="Bold" fill="black" xml:space="preserve" style="white-space: pre" font-family="Roboto" font-size="12" letter-spacing="0em"><tspan x="2327.48" y="321.102">Bold</tspan></text>
<text id="Heavy" fill="black" xml:space="preserve" style="white-space: pre" font-family="Roboto" font-size="12" letter-spacing="0em"><tspan x="2620.19" y="321.102">Heavy</tspan></text>
<text id="Black" fill="black" xml:space="preserve" style="white-space: pre" font-family="Roboto" font-size="12" letter-spacing="0em"><tspan x="2918.4" y="321.102">Black</tspan></text>
<path id="Vector_2" d="M263 1903H3036" stroke="black" stroke-width="0.5"/>
<g id="Group">
<path id="Vector_3" d="M272.248 1933.83C276.555 1933.83 280.139 1930.26 280.139 1925.95C280.139 1921.64 276.545 1918.07 272.238 1918.07C267.941 1918.07 264.367 1921.64 264.367 1925.95C264.367 1930.26 267.951 1933.83 272.248 1933.83ZM272.248 1932.35C268.703 1932.35 265.871 1929.5 265.871 1925.95C265.871 1922.39 268.693 1919.55 272.238 1919.55C275.793 1919.55 278.635 1922.39 278.644 1925.95C278.654 1929.5 275.803 1932.35 272.248 1932.35ZM272.229 1929.57C272.697 1929.57 272.971 1929.26 272.971 1928.74V1926.68H275.197C275.695 1926.68 276.037 1926.43 276.037 1925.96C276.037 1925.48 275.715 1925.22 275.197 1925.22H272.971V1922.99C272.971 1922.47 272.697 1922.15 272.229 1922.15C271.76 1922.15 271.506 1922.49 271.506 1922.99V1925.22H269.299C268.781 1925.22 268.449 1925.48 268.449 1925.96C268.449 1926.43 268.801 1926.68 269.299 1926.68H271.506V1928.74C271.506 1929.24 271.76 1929.57 272.229 1929.57Z" fill="black"/>
</g>
<g id="Group_2">
<path id="Vector_4" d="M293.215 1935.91C298.664 1935.91 303.176 1931.4 303.176 1925.95C303.176 1920.51 298.654 1915.99 293.205 1915.99C287.766 1915.99 283.254 1920.51 283.254 1925.95C283.254 1931.4 287.775 1935.91 293.215 1935.91ZM293.215 1934.25C288.605 1934.25 284.924 1930.56 284.924 1925.95C284.924 1921.35 288.596 1917.65 293.205 1917.65C297.814 1917.65 301.506 1921.35 301.516 1925.95C301.525 1930.56 297.824 1934.25 293.215 1934.25ZM293.195 1930.59C293.713 1930.59 294.025 1930.23 294.025 1929.66V1926.77H297.082C297.629 1926.77 298.01 1926.49 298.01 1925.97C298.01 1925.44 297.648 1925.14 297.082 1925.14H294.025V1922.07C294.025 1921.5 293.713 1921.14 293.195 1921.14C292.678 1921.14 292.385 1921.52 292.385 1922.07V1925.14H289.338C288.771 1925.14 288.4 1925.44 288.4 1925.97C288.4 1926.49 288.791 1926.77 289.338 1926.77H292.385V1929.66C292.385 1930.21 292.678 1930.59 293.195 1930.59Z" fill="black"/>
</g>
<g id="Group_3">
<path id="Vector_5" d="M319.895 1938.67C326.857 1938.67 332.619 1932.92 332.619 1925.96C332.619 1919 326.848 1913.24 319.885 1913.24C312.932 1913.24 307.18 1919 307.18 1925.96C307.18 1932.92 312.941 1938.67 319.895 1938.67ZM319.895 1936.86C313.859 1936.86 309.006 1931.99 309.006 1925.96C309.006 1919.92 313.85 1915.06 319.885 1915.06C325.93 1915.06 330.783 1919.92 330.793 1925.96C330.803 1931.99 325.939 1936.86 319.895 1936.86ZM319.875 1931.94C320.441 1931.94 320.793 1931.54 320.793 1930.94V1926.87H325.031C325.617 1926.87 326.037 1926.54 326.037 1925.98C326.037 1925.4 325.647 1925.06 325.031 1925.06H320.793V1920.81C320.793 1920.2 320.441 1919.81 319.875 1919.81C319.309 1919.81 318.986 1920.22 318.986 1920.81V1925.06H314.758C314.143 1925.06 313.732 1925.4 313.732 1925.98C313.732 1926.54 314.162 1926.87 314.758 1926.87H318.986V1930.94C318.986 1931.53 319.309 1931.94 319.875 1931.94Z" fill="black"/>
</g>
<text id="Design Variations" fill="black" xml:space="preserve" style="white-space: pre" font-family="Roboto" font-size="12" letter-spacing="0em"><tspan x="263" y="1952.1">Design Variations</tspan></text>
<text id="Symbols are supported in up to nine weights and three scales." fill="black" xml:space="preserve" style="white-space: pre" font-family="Roboto" font-size="12" letter-spacing="0em"><tspan x="263" y="1970.1">Symbols are supported in up to nine weights and three scales.</tspan></text>
<text id="For optimal layout with text and other symbols, vertically align" fill="black" xml:space="preserve" style="white-space: pre" font-family="Roboto" font-size="12" letter-spacing="0em"><tspan x="263" y="1988.1">For optimal layout with text and other symbols, vertically align</tspan></text>
<text id="symbols with the adjacent text." fill="black" xml:space="preserve" style="white-space: pre" font-family="Roboto" font-size="12" letter-spacing="0em"><tspan x="263" y="2006.1">symbols with the adjacent text.</tspan></text>
<path id="Vector_6" opacity="0.4" d="M779 1919H776V1933H779V1919Z" fill="#00AEEF"/>
<g id="Group_4">
<path id="Vector_7" d="M789.527 1933H791.373L786.178 1918.91H784.439L779.244 1933H781.09L782.506 1928.97H788.111L789.527 1933ZM785.279 1921.05H785.338L787.594 1927.47H783.023L785.279 1921.05Z" fill="black"/>
</g>
<path id="Vector_8" opacity="0.4" d="M794.617 1919H791.617V1933H794.617V1919Z" fill="#00AEEF"/>
<text id="Margins" fill="black" xml:space="preserve" style="white-space: pre" font-family="Roboto" font-size="12" letter-spacing="0em"><tspan x="776" y="1952.1">Margins</tspan></text>
<text id="Leading and trailing margins on the left and right side of each symbol" fill="black" xml:space="preserve" style="white-space: pre" font-family="Roboto" font-size="12" letter-spacing="0em"><tspan x="776" y="1970.1">Leading and trailing margins on the left and right side of each symbol</tspan></text>
<text id="can be adjusted by modifying the width of the blue rectangles." fill="black" xml:space="preserve" style="white-space: pre" font-family="Roboto" font-size="12" letter-spacing="0em"><tspan x="776" y="1988.1">can be adjusted by modifying the width of the blue rectangles.</tspan></text>
<text id="Modifications are automatically applied proportionally to all" fill="black" xml:space="preserve" style="white-space: pre" font-family="Roboto" font-size="12" letter-spacing="0em"><tspan x="776" y="2006.1">Modifications are automatically applied proportionally to all</tspan></text>
<text id="scales and weights." fill="black" xml:space="preserve" style="white-space: pre" font-family="Roboto" font-size="12" letter-spacing="0em"><tspan x="776" y="2024.1">scales and weights.</tspan></text>
<g id="Group_5">
<path id="Vector_9" d="M1291.83 1936.11L1293.37 1937.66C1294.22 1938.49 1295.19 1938.42 1296.06 1937.46L1306.27 1926.34C1306.7 1926.63 1307.1 1926.62 1307.56 1926.52L1308.61 1926.31L1309.3 1927L1309.25 1927.52C1309.19 1928.05 1309.35 1928.47 1309.85 1928.97L1310.66 1929.78C1311.17 1930.28 1311.82 1930.31 1312.3 1929.83L1315.55 1926.58C1316.03 1926.1 1316.01 1925.45 1315.5 1924.94L1314.68 1924.12C1314.19 1923.62 1313.77 1923.45 1313.24 1923.53L1312.71 1923.58L1312.06 1922.92L1312.34 1921.78C1312.49 1921.21 1312.34 1920.74 1311.71 1920.14L1309.3 1917.75C1305.76 1914.22 1301.23 1914.33 1298.11 1917.46C1297.69 1917.89 1297.64 1918.48 1297.92 1918.91C1298.15 1919.28 1298.63 1919.5 1299.27 1919.34C1300.79 1918.96 1302.3 1919.07 1303.78 1920.08L1303.16 1921.66C1302.93 1922.25 1302.94 1922.73 1303.18 1923.16L1292.02 1933.44C1291.08 1934.31 1290.97 1935.25 1291.83 1936.11ZM1299.67 1917.85C1302.34 1915.86 1305.65 1916.17 1308.05 1918.58L1310.68 1921.19C1310.91 1921.43 1310.94 1921.61 1310.88 1921.91L1310.5 1923.47L1312.08 1925.04L1313.04 1924.95C1313.33 1924.92 1313.41 1924.94 1313.64 1925.17L1314.26 1925.79L1311.51 1928.54L1310.88 1927.92C1310.66 1927.7 1310.64 1927.6 1310.67 1927.32L1310.76 1926.36L1309.19 1924.8L1307.57 1925.11C1307.29 1925.17 1307.14 1925.17 1306.91 1924.92L1304.73 1922.75C1304.51 1922.51 1304.48 1922.37 1304.61 1922.05L1305.55 1919.78C1303.95 1918.24 1301.84 1917.39 1299.8 1918.05C1299.71 1918.08 1299.64 1918.06 1299.61 1918.02C1299.59 1917.97 1299.59 1917.92 1299.67 1917.85ZM1293.1 1935.41C1292.61 1934.91 1292.79 1934.61 1293.12 1934.31L1304.08 1924.19L1305.31 1925.42L1295.15 1936.35C1294.85 1936.68 1294.47 1936.78 1294.07 1936.38L1293.1 1935.41Z" fill="black"/>
</g>
<text id="Exporting" fill="black" xml:space="preserve" style="white-space: pre" font-family="Roboto" font-size="12" letter-spacing="0em"><tspan x="1289" y="1952.1">Exporting</tspan></text>
<text id="Symbols should be outlined when exporting to ensure the" fill="black" xml:space="preserve" style="white-space: pre" font-family="Roboto" font-size="12" letter-spacing="0em"><tspan x="1289" y="1970.1">Symbols should be outlined when exporting to ensure the</tspan></text>
<text id="design is preserved when submitting to Xcode." fill="black" xml:space="preserve" style="white-space: pre" font-family="Roboto" font-size="12" letter-spacing="0em"><tspan x="1289" y="1988.1">design is preserved when submitting to Xcode.</tspan></text>
<text id="template-version" fill="black" xml:space="preserve" style="white-space: pre" font-family="Roboto" font-size="12" letter-spacing="0em"><tspan x="2958" y="1932.1">Template v.1.0</tspan></text>
<text id="Generated from pencil.circle" fill="black" xml:space="preserve" style="white-space: pre" font-family="Roboto" font-size="12" letter-spacing="0em"><tspan x="2885" y="1950.1">Generated from pencil.circle</tspan></text>
<text id="Typeset at 100 points" fill="black" xml:space="preserve" style="white-space: pre" font-family="Roboto" font-size="12" letter-spacing="0em"><tspan x="2921" y="1968.1">Typeset at 100 points</tspan></text>
<text id="Small" fill="black" xml:space="preserve" style="white-space: pre" font-family="Roboto" font-size="12" letter-spacing="0em"><tspan x="263" y="725.102">Small</tspan></text>
<text id="Medium_2" fill="black" xml:space="preserve" style="white-space: pre" font-family="Roboto" font-size="12" letter-spacing="0em"><tspan x="263" y="1155.1">Medium</tspan></text>
<text id="Large" fill="black" xml:space="preserve" style="white-space: pre" font-family="Roboto" font-size="12" letter-spacing="0em"><tspan x="263" y="1585.1">Large</tspan></text>
</g>
<g id="Guides">
<g id="H-reference">
<path id="Vector_10" d="M393.932 696H396.666L369.566 625.541H367.076L339.977 696H342.662L351.94 671.537H384.703L393.932 696ZM368.199 628.91H368.443L383.824 669.291H352.818L368.199 628.91Z" fill="#27AAE1"/>
</g>
<path id="Baseline-S" d="M263 696H3036" stroke="#27AAE1" stroke-width="0.577"/>
<path id="Capline-S" d="M263 626H3036" stroke="#27AAE1" stroke-width="0.577"/>
<g id="H-reference_2">
<path id="Vector_11" d="M393.932 1126H396.666L369.566 1055.54H367.076L339.977 1126H342.662L351.94 1101.54H384.703L393.932 1126ZM368.199 1058.91H368.443L383.824 1099.29H352.818L368.199 1058.91Z" fill="#27AAE1"/>
</g>
<path id="Baseline-M" d="M263 1126H3036" stroke="#27AAE1" stroke-width="0.577"/>
<path id="Capline-M" d="M263 1056H3036" stroke="#27AAE1" stroke-width="0.577"/>
<g id="H-reference_3">
<path id="Vector_12" d="M393.932 1556H396.666L369.566 1485.54H367.076L339.977 1556H342.662L351.94 1531.54H384.703L393.932 1556ZM368.199 1488.91H368.443L383.824 1529.29H352.818L368.199 1488.91Z" fill="#27AAE1"/>
</g>
<g id="Group 1">
<path id="Baseline-L" d="M263 1556H3036" stroke="#27AAE1" stroke-width="0.577"/>
<path id="Capline-L" d="M263 1486H3036" stroke="#27AAE1" stroke-width="0.577"/>
</g>
<path id="left-margin" opacity="0.4" d="M1402.04 1030.79H1393.3V1150.12H1402.04V1030.79Z" fill="#00AEEF"/>
<path id="right-margin" opacity="0.4" d="M1505.39 1030.79H1496.65V1150.12H1505.39V1030.79Z" fill="#00AEEF"/>
</g>
<g id="Symbols">
<g id="Black-L">
<g id="Outline / Layout Outline">
<path id="Shape" fill-rule="evenodd" clip-rule="evenodd" d="M2980.29 1490.95C2985.19 1490.43 2989 1486.28 2989 1481.25V1470.75C2989 1465.37 2984.63 1461 2979.25 1461H2878.75C2873.37 1461 2869 1465.37 2869 1470.75V1481.25C2869 1486.28 2872.81 1490.43 2877.71 1490.95C2878.05 1490.98 2878.4 1491 2878.75 1491H2979.25C2979.6 1491 2979.95 1490.98 2980.29 1490.95ZM2895.83 1500.75C2895.41 1500.7 2894.99 1500.67 2894.56 1500.67H2878.75C2878.4 1500.67 2878.05 1500.69 2877.71 1500.72C2872.81 1501.24 2869 1505.38 2869 1510.42V1571.25C2869 1576.63 2873.37 1581 2878.75 1581H2894.56C2899.65 1581 2903.83 1577.1 2904.27 1572.13C2904.3 1571.84 2904.31 1571.55 2904.31 1571.25V1510.42C2904.31 1510.12 2904.3 1509.83 2904.27 1509.54C2903.86 1504.99 2900.33 1501.34 2895.83 1500.75ZM2980.29 1500.72C2979.95 1500.69 2979.6 1500.67 2979.25 1500.67H2923.75C2923.32 1500.67 2922.9 1500.7 2922.48 1500.75C2917.98 1501.34 2914.45 1504.99 2914.04 1509.54C2914.01 1509.83 2914 1510.12 2914 1510.42V1571.25C2914 1571.55 2914.01 1571.84 2914.04 1572.13C2914.48 1577.1 2918.66 1581 2923.75 1581H2979.25C2984.63 1581 2989 1576.63 2989 1571.25L2989 1510.42C2989 1505.38 2985.19 1501.24 2980.29 1500.72ZM2881 1470.75C2879.76 1470.75 2878.75 1471.76 2878.75 1473V1479C2878.75 1480.24 2879.76 1481.25 2881 1481.25H2977C2978.24 1481.25 2979.25 1480.24 2979.25 1479L2979.25 1473C2979.25 1471.76 2978.24 1470.75 2977 1470.75L2881 1470.75ZM2881 1510.42C2879.76 1510.42 2878.75 1511.43 2878.75 1512.67V1569C2878.75 1570.24 2879.76 1571.25 2881 1571.25L2892.31 1571.25C2893.55 1571.25 2894.56 1570.24 2894.56 1569L2894.56 1512.67C2894.56 1511.43 2893.55 1510.42 2892.31 1510.42H2881ZM2926 1510.42C2924.76 1510.42 2923.75 1511.43 2923.75 1512.67V1569C2923.75 1570.24 2924.76 1571.25 2926 1571.25L2977 1571.25C2978.24 1571.25 2979.25 1570.24 2979.25 1569L2979.25 1512.67C2979.25 1511.43 2978.24 1510.42 2977 1510.42H2926Z" fill="black"/>
</g>
</g>
<g id="Heavy-L">
<g id="Outline / Layout Outline_2">
<path id="Shape_2" fill-rule="evenodd" clip-rule="evenodd" d="M2684.29 1490.95C2689.19 1490.43 2693 1486.28 2693 1481.25V1470.75C2693 1465.37 2688.63 1461 2683.25 1461H2582.75C2577.37 1461 2573 1465.37 2573 1470.75V1481.25C2573 1486.28 2576.81 1490.43 2581.71 1490.95C2582.05 1490.98 2582.4 1491 2582.75 1491H2683.25C2683.6 1491 2683.95 1490.98 2684.29 1490.95ZM2599.83 1500.75C2599.41 1500.7 2598.99 1500.67 2598.56 1500.67H2582.75C2582.4 1500.67 2582.05 1500.69 2581.71 1500.72C2576.81 1501.24 2573 1505.38 2573 1510.42V1571.25C2573 1576.63 2577.37 1581 2582.75 1581H2598.56C2603.65 1581 2607.83 1577.1 2608.27 1572.13C2608.3 1571.84 2608.31 1571.55 2608.31 1571.25V1510.42C2608.31 1510.12 2608.3 1509.83 2608.27 1509.54C2607.86 1504.99 2604.33 1501.34 2599.83 1500.75ZM2684.29 1500.72C2683.95 1500.69 2683.6 1500.67 2683.25 1500.67H2627.75C2627.32 1500.67 2626.9 1500.7 2626.48 1500.75C2621.98 1501.34 2618.45 1504.99 2618.04 1509.54C2618.01 1509.83 2618 1510.12 2618 1510.42V1571.25C2618 1571.55 2618.01 1571.84 2618.04 1572.13C2618.48 1577.1 2622.66 1581 2627.75 1581H2683.25C2688.63 1581 2693 1576.63 2693 1571.25L2693 1510.42C2693 1505.38 2689.19 1501.24 2684.29 1500.72ZM2585 1470.75C2583.76 1470.75 2582.75 1471.76 2582.75 1473V1479C2582.75 1480.24 2583.76 1481.25 2585 1481.25H2681C2682.24 1481.25 2683.25 1480.24 2683.25 1479L2683.25 1473C2683.25 1471.76 2682.24 1470.75 2681 1470.75L2585 1470.75ZM2585 1510.42C2583.76 1510.42 2582.75 1511.43 2582.75 1512.67V1569C2582.75 1570.24 2583.76 1571.25 2585 1571.25L2596.31 1571.25C2597.55 1571.25 2598.56 1570.24 2598.56 1569L2598.56 1512.67C2598.56 1511.43 2597.55 1510.42 2596.31 1510.42H2585ZM2630 1510.42C2628.76 1510.42 2627.75 1511.43 2627.75 1512.67V1569C2627.75 1570.24 2628.76 1571.25 2630 1571.25L2681 1571.25C2682.24 1571.25 2683.25 1570.24 2683.25 1569L2683.25 1512.67C2683.25 1511.43 2682.24 1510.42 2681 1510.42H2630Z" fill="black"/>
</g>
</g>
<g id="Bold-L">
<g id="Outline / Layout Outline_3">
<path id="Shape_3" fill-rule="evenodd" clip-rule="evenodd" d="M2388.29 1490.95C2393.19 1490.43 2397 1486.28 2397 1481.25V1470.75C2397 1465.37 2392.63 1461 2387.25 1461H2286.75C2281.37 1461 2277 1465.37 2277 1470.75V1481.25C2277 1486.28 2280.81 1490.43 2285.71 1490.95C2286.05 1490.98 2286.4 1491 2286.75 1491H2387.25C2387.6 1491 2387.95 1490.98 2388.29 1490.95ZM2303.83 1500.75C2303.41 1500.7 2302.99 1500.67 2302.56 1500.67H2286.75C2286.4 1500.67 2286.05 1500.69 2285.71 1500.72C2280.81 1501.24 2277 1505.38 2277 1510.42V1571.25C2277 1576.63 2281.37 1581 2286.75 1581H2302.56C2307.65 1581 2311.83 1577.1 2312.27 1572.13C2312.3 1571.84 2312.31 1571.55 2312.31 1571.25V1510.42C2312.31 1510.12 2312.3 1509.83 2312.27 1509.54C2311.86 1504.99 2308.33 1501.34 2303.83 1500.75ZM2388.29 1500.72C2387.95 1500.69 2387.6 1500.67 2387.25 1500.67H2331.75C2331.32 1500.67 2330.9 1500.7 2330.48 1500.75C2325.98 1501.34 2322.45 1504.99 2322.04 1509.54C2322.01 1509.83 2322 1510.12 2322 1510.42V1571.25C2322 1571.55 2322.01 1571.84 2322.04 1572.13C2322.48 1577.1 2326.66 1581 2331.75 1581H2387.25C2392.63 1581 2397 1576.63 2397 1571.25L2397 1510.42C2397 1505.38 2393.19 1501.24 2388.29 1500.72ZM2289 1470.75C2287.76 1470.75 2286.75 1471.76 2286.75 1473V1479C2286.75 1480.24 2287.76 1481.25 2289 1481.25H2385C2386.24 1481.25 2387.25 1480.24 2387.25 1479L2387.25 1473C2387.25 1471.76 2386.24 1470.75 2385 1470.75L2289 1470.75ZM2289 1510.42C2287.76 1510.42 2286.75 1511.43 2286.75 1512.67V1569C2286.75 1570.24 2287.76 1571.25 2289 1571.25L2300.31 1571.25C2301.55 1571.25 2302.56 1570.24 2302.56 1569L2302.56 1512.67C2302.56 1511.43 2301.55 1510.42 2300.31 1510.42H2289ZM2334 1510.42C2332.76 1510.42 2331.75 1511.43 2331.75 1512.67V1569C2331.75 1570.24 2332.76 1571.25 2334 1571.25L2385 1571.25C2386.24 1571.25 2387.25 1570.24 2387.25 1569L2387.25 1512.67C2387.25 1511.43 2386.24 1510.42 2385 1510.42H2334Z" fill="black"/>
</g>
</g>
<g id="Semibold-L">
<g id="Outline / Layout Outline_4">
<path id="Shape_4" fill-rule="evenodd" clip-rule="evenodd" d="M2092.29 1490.95C2097.19 1490.43 2101 1486.28 2101 1481.25V1470.75C2101 1465.37 2096.63 1461 2091.25 1461H1990.75C1985.37 1461 1981 1465.37 1981 1470.75V1481.25C1981 1486.28 1984.81 1490.43 1989.71 1490.95C1990.05 1490.98 1990.4 1491 1990.75 1491H2091.25C2091.6 1491 2091.95 1490.98 2092.29 1490.95ZM2007.83 1500.75C2007.41 1500.7 2006.99 1500.67 2006.56 1500.67H1990.75C1990.4 1500.67 1990.05 1500.69 1989.71 1500.72C1984.81 1501.24 1981 1505.38 1981 1510.42V1571.25C1981 1576.63 1985.37 1581 1990.75 1581H2006.56C2011.65 1581 2015.83 1577.1 2016.27 1572.13C2016.3 1571.84 2016.31 1571.55 2016.31 1571.25V1510.42C2016.31 1510.12 2016.3 1509.83 2016.27 1509.54C2015.86 1504.99 2012.33 1501.34 2007.83 1500.75ZM2092.29 1500.72C2091.95 1500.69 2091.6 1500.67 2091.25 1500.67H2035.75C2035.32 1500.67 2034.9 1500.7 2034.48 1500.75C2029.98 1501.34 2026.45 1504.99 2026.04 1509.54C2026.01 1509.83 2026 1510.12 2026 1510.42V1571.25C2026 1571.55 2026.01 1571.84 2026.04 1572.13C2026.48 1577.1 2030.66 1581 2035.75 1581H2091.25C2096.63 1581 2101 1576.63 2101 1571.25L2101 1510.42C2101 1505.38 2097.19 1501.24 2092.29 1500.72ZM1993 1470.75C1991.76 1470.75 1990.75 1471.76 1990.75 1473V1479C1990.75 1480.24 1991.76 1481.25 1993 1481.25H2089C2090.24 1481.25 2091.25 1480.24 2091.25 1479L2091.25 1473C2091.25 1471.76 2090.24 1470.75 2089 1470.75L1993 1470.75ZM1993 1510.42C1991.76 1510.42 1990.75 1511.43 1990.75 1512.67V1569C1990.75 1570.24 1991.76 1571.25 1993 1571.25L2004.31 1571.25C2005.55 1571.25 2006.56 1570.24 2006.56 1569L2006.56 1512.67C2006.56 1511.43 2005.55 1510.42 2004.31 1510.42H1993ZM2038 1510.42C2036.76 1510.42 2035.75 1511.43 2035.75 1512.67V1569C2035.75 1570.24 2036.76 1571.25 2038 1571.25L2089 1571.25C2090.24 1571.25 2091.25 1570.24 2091.25 1569L2091.25 1512.67C2091.25 1511.43 2090.24 1510.42 2089 1510.42H2038Z" fill="black"/>
</g>
</g>
<g id="Medium-L">
<g id="Outline / Layout Outline_5">
<path id="Shape_5" fill-rule="evenodd" clip-rule="evenodd" d="M1796.29 1490.95C1801.19 1490.43 1805 1486.28 1805 1481.25V1470.75C1805 1465.37 1800.63 1461 1795.25 1461H1694.75C1689.37 1461 1685 1465.37 1685 1470.75V1481.25C1685 1486.28 1688.81 1490.43 1693.71 1490.95C1694.05 1490.98 1694.4 1491 1694.75 1491H1795.25C1795.6 1491 1795.95 1490.98 1796.29 1490.95ZM1711.83 1500.75C1711.41 1500.7 1710.99 1500.67 1710.56 1500.67H1694.75C1694.4 1500.67 1694.05 1500.69 1693.71 1500.72C1688.81 1501.24 1685 1505.38 1685 1510.42V1571.25C1685 1576.63 1689.37 1581 1694.75 1581H1710.56C1715.65 1581 1719.83 1577.1 1720.27 1572.13C1720.3 1571.84 1720.31 1571.55 1720.31 1571.25V1510.42C1720.31 1510.12 1720.3 1509.83 1720.27 1509.54C1719.86 1504.99 1716.33 1501.34 1711.83 1500.75ZM1796.29 1500.72C1795.95 1500.69 1795.6 1500.67 1795.25 1500.67H1739.75C1739.32 1500.67 1738.9 1500.7 1738.48 1500.75C1733.98 1501.34 1730.45 1504.99 1730.04 1509.54C1730.01 1509.83 1730 1510.12 1730 1510.42V1571.25C1730 1571.55 1730.01 1571.84 1730.04 1572.13C1730.48 1577.1 1734.66 1581 1739.75 1581H1795.25C1800.63 1581 1805 1576.63 1805 1571.25L1805 1510.42C1805 1505.38 1801.19 1501.24 1796.29 1500.72ZM1697 1470.75C1695.76 1470.75 1694.75 1471.76 1694.75 1473V1479C1694.75 1480.24 1695.76 1481.25 1697 1481.25H1793C1794.24 1481.25 1795.25 1480.24 1795.25 1479L1795.25 1473C1795.25 1471.76 1794.24 1470.75 1793 1470.75L1697 1470.75ZM1697 1510.42C1695.76 1510.42 1694.75 1511.43 1694.75 1512.67V1569C1694.75 1570.24 1695.76 1571.25 1697 1571.25L1708.31 1571.25C1709.55 1571.25 1710.56 1570.24 1710.56 1569L1710.56 1512.67C1710.56 1511.43 1709.55 1510.42 1708.31 1510.42H1697ZM1742 1510.42C1740.76 1510.42 1739.75 1511.43 1739.75 1512.67V1569C1739.75 1570.24 1740.76 1571.25 1742 1571.25L1793 1571.25C1794.24 1571.25 1795.25 1570.24 1795.25 1569L1795.25 1512.67C1795.25 1511.43 1794.24 1510.42 1793 1510.42H1742Z" fill="black"/>
</g>
</g>
<g id="Regular-L">
<g id="Outline / Layout Outline_6">
<path id="Shape_6" fill-rule="evenodd" clip-rule="evenodd" d="M1500.29 1490.95C1505.19 1490.43 1509 1486.28 1509 1481.25V1470.75C1509 1465.37 1504.63 1461 1499.25 1461H1398.75C1393.37 1461 1389 1465.37 1389 1470.75V1481.25C1389 1486.28 1392.81 1490.43 1397.71 1490.95C1398.05 1490.98 1398.4 1491 1398.75 1491H1499.25C1499.6 1491 1499.95 1490.98 1500.29 1490.95ZM1415.83 1500.75C1415.41 1500.7 1414.99 1500.67 1414.56 1500.67H1398.75C1398.4 1500.67 1398.05 1500.69 1397.71 1500.72C1392.81 1501.24 1389 1505.38 1389 1510.42V1571.25C1389 1576.63 1393.37 1581 1398.75 1581H1414.56C1419.65 1581 1423.83 1577.1 1424.27 1572.13C1424.3 1571.84 1424.31 1571.55 1424.31 1571.25V1510.42C1424.31 1510.12 1424.3 1509.83 1424.27 1509.54C1423.86 1504.99 1420.33 1501.34 1415.83 1500.75ZM1500.29 1500.72C1499.95 1500.69 1499.6 1500.67 1499.25 1500.67H1443.75C1443.32 1500.67 1442.9 1500.7 1442.48 1500.75C1437.98 1501.34 1434.45 1504.99 1434.04 1509.54C1434.01 1509.83 1434 1510.12 1434 1510.42V1571.25C1434 1571.55 1434.01 1571.84 1434.04 1572.13C1434.48 1577.1 1438.66 1581 1443.75 1581H1499.25C1504.63 1581 1509 1576.63 1509 1571.25L1509 1510.42C1509 1505.38 1505.19 1501.24 1500.29 1500.72ZM1401 1470.75C1399.76 1470.75 1398.75 1471.76 1398.75 1473V1479C1398.75 1480.24 1399.76 1481.25 1401 1481.25H1497C1498.24 1481.25 1499.25 1480.24 1499.25 1479L1499.25 1473C1499.25 1471.76 1498.24 1470.75 1497 1470.75L1401 1470.75ZM1401 1510.42C1399.76 1510.42 1398.75 1511.43 1398.75 1512.67V1569C1398.75 1570.24 1399.76 1571.25 1401 1571.25L1412.31 1571.25C1413.55 1571.25 1414.56 1570.24 1414.56 1569L1414.56 1512.67C1414.56 1511.43 1413.55 1510.42 1412.31 1510.42H1401ZM1446 1510.42C1444.76 1510.42 1443.75 1511.43 1443.75 1512.67V1569C1443.75 1570.24 1444.76 1571.25 1446 1571.25L1497 1571.25C1498.24 1571.25 1499.25 1570.24 1499.25 1569L1499.25 1512.67C1499.25 1511.43 1498.24 1510.42 1497 1510.42H1446Z" fill="black"/>
</g>
</g>
<g id="Light-L">
<g id="Outline / Layout Outline_7">
<path id="Shape_7" fill-rule="evenodd" clip-rule="evenodd" d="M1204.29 1490.95C1209.19 1490.43 1213 1486.28 1213 1481.25V1470.75C1213 1465.37 1208.63 1461 1203.25 1461H1102.75C1097.37 1461 1093 1465.37 1093 1470.75V1481.25C1093 1486.28 1096.81 1490.43 1101.71 1490.95C1102.05 1490.98 1102.4 1491 1102.75 1491H1203.25C1203.6 1491 1203.95 1490.98 1204.29 1490.95ZM1119.83 1500.75C1119.41 1500.7 1118.99 1500.67 1118.56 1500.67H1102.75C1102.4 1500.67 1102.05 1500.69 1101.71 1500.72C1096.81 1501.24 1093 1505.38 1093 1510.42V1571.25C1093 1576.63 1097.37 1581 1102.75 1581H1118.56C1123.65 1581 1127.83 1577.1 1128.27 1572.13C1128.3 1571.84 1128.31 1571.55 1128.31 1571.25V1510.42C1128.31 1510.12 1128.3 1509.83 1128.27 1509.54C1127.86 1504.99 1124.33 1501.34 1119.83 1500.75ZM1204.29 1500.72C1203.95 1500.69 1203.6 1500.67 1203.25 1500.67H1147.75C1147.32 1500.67 1146.9 1500.7 1146.48 1500.75C1141.98 1501.34 1138.45 1504.99 1138.04 1509.54C1138.01 1509.83 1138 1510.12 1138 1510.42V1571.25C1138 1571.55 1138.01 1571.84 1138.04 1572.13C1138.48 1577.1 1142.66 1581 1147.75 1581H1203.25C1208.63 1581 1213 1576.63 1213 1571.25L1213 1510.42C1213 1505.38 1209.19 1501.24 1204.29 1500.72ZM1105 1470.75C1103.76 1470.75 1102.75 1471.76 1102.75 1473V1479C1102.75 1480.24 1103.76 1481.25 1105 1481.25H1201C1202.24 1481.25 1203.25 1480.24 1203.25 1479L1203.25 1473C1203.25 1471.76 1202.24 1470.75 1201 1470.75L1105 1470.75ZM1105 1510.42C1103.76 1510.42 1102.75 1511.43 1102.75 1512.67V1569C1102.75 1570.24 1103.76 1571.25 1105 1571.25L1116.31 1571.25C1117.55 1571.25 1118.56 1570.24 1118.56 1569L1118.56 1512.67C1118.56 1511.43 1117.55 1510.42 1116.31 1510.42H1105ZM1150 1510.42C1148.76 1510.42 1147.75 1511.43 1147.75 1512.67V1569C1147.75 1570.24 1148.76 1571.25 1150 1571.25L1201 1571.25C1202.24 1571.25 1203.25 1570.24 1203.25 1569L1203.25 1512.67C1203.25 1511.43 1202.24 1510.42 1201 1510.42H1150Z" fill="black"/>
</g>
</g>
<g id="Thin-L">
<g id="Outline / Layout Outline_8">
<path id="Shape_8" fill-rule="evenodd" clip-rule="evenodd" d="M908.29 1490.95C913.186 1490.43 917 1486.28 917 1481.25V1470.75C917 1465.37 912.635 1461 907.25 1461H806.75C801.365 1461 797 1465.37 797 1470.75V1481.25C797 1486.28 800.814 1490.43 805.71 1490.95C806.052 1490.98 806.399 1491 806.75 1491H907.25C907.601 1491 907.948 1490.98 908.29 1490.95ZM823.829 1500.75C823.413 1500.7 822.989 1500.67 822.558 1500.67H806.75C806.399 1500.67 806.052 1500.69 805.71 1500.72C800.814 1501.24 797 1505.38 797 1510.42V1571.25C797 1576.63 801.365 1581 806.75 1581H822.558C827.647 1581 831.826 1577.1 832.269 1572.13C832.295 1571.84 832.308 1571.55 832.308 1571.25V1510.42C832.308 1510.12 832.295 1509.83 832.269 1509.54C831.863 1504.99 828.328 1501.34 823.829 1500.75ZM908.29 1500.72C907.948 1500.69 907.601 1500.67 907.25 1500.67H851.75C851.319 1500.67 850.895 1500.7 850.479 1500.75C845.981 1501.34 842.445 1504.99 842.039 1509.54C842.013 1509.83 842 1510.12 842 1510.42V1571.25C842 1571.55 842.013 1571.84 842.039 1572.13C842.483 1577.1 846.661 1581 851.75 1581H907.25C912.635 1581 917 1576.63 917 1571.25L917 1510.42C917 1505.38 913.186 1501.24 908.29 1500.72ZM809 1470.75C807.757 1470.75 806.75 1471.76 806.75 1473V1479C806.75 1480.24 807.757 1481.25 809 1481.25H905C906.243 1481.25 907.25 1480.24 907.25 1479L907.25 1473C907.25 1471.76 906.243 1470.75 905 1470.75L809 1470.75ZM809 1510.42C807.757 1510.42 806.75 1511.43 806.75 1512.67V1569C806.75 1570.24 807.757 1571.25 809 1571.25L820.308 1571.25C821.551 1571.25 822.558 1570.24 822.558 1569L822.558 1512.67C822.558 1511.43 821.551 1510.42 820.308 1510.42H809ZM854 1510.42C852.757 1510.42 851.75 1511.43 851.75 1512.67V1569C851.75 1570.24 852.757 1571.25 854 1571.25L905 1571.25C906.243 1571.25 907.25 1570.24 907.25 1569L907.25 1512.67C907.25 1511.43 906.243 1510.42 905 1510.42H854Z" fill="black"/>
</g>
</g>
<g id="Ultralight-L">
<g id="Outline / Layout Outline_9">
<path id="Shape_9" fill-rule="evenodd" clip-rule="evenodd" d="M612.29 1490.95C617.186 1490.43 621 1486.28 621 1481.25V1470.75C621 1465.37 616.635 1461 611.25 1461H510.75C505.365 1461 501 1465.37 501 1470.75V1481.25C501 1486.28 504.814 1490.43 509.71 1490.95C510.052 1490.98 510.399 1491 510.75 1491H611.25C611.601 1491 611.948 1490.98 612.29 1490.95ZM527.829 1500.75C527.413 1500.7 526.989 1500.67 526.558 1500.67H510.75C510.399 1500.67 510.052 1500.69 509.71 1500.72C504.814 1501.24 501 1505.38 501 1510.42V1571.25C501 1576.63 505.365 1581 510.75 1581H526.558C531.647 1581 535.826 1577.1 536.269 1572.13C536.295 1571.84 536.308 1571.55 536.308 1571.25V1510.42C536.308 1510.12 536.295 1509.83 536.269 1509.54C535.863 1504.99 532.328 1501.34 527.829 1500.75ZM612.29 1500.72C611.948 1500.69 611.601 1500.67 611.25 1500.67H555.75C555.319 1500.67 554.895 1500.7 554.479 1500.75C549.981 1501.34 546.445 1504.99 546.039 1509.54C546.013 1509.83 546 1510.12 546 1510.42V1571.25C546 1571.55 546.013 1571.84 546.039 1572.13C546.483 1577.1 550.661 1581 555.75 1581H611.25C616.635 1581 621 1576.63 621 1571.25L621 1510.42C621 1505.38 617.186 1501.24 612.29 1500.72ZM513 1470.75C511.757 1470.75 510.75 1471.76 510.75 1473V1479C510.75 1480.24 511.757 1481.25 513 1481.25H609C610.243 1481.25 611.25 1480.24 611.25 1479L611.25 1473C611.25 1471.76 610.243 1470.75 609 1470.75L513 1470.75ZM513 1510.42C511.757 1510.42 510.75 1511.43 510.75 1512.67V1569C510.75 1570.24 511.757 1571.25 513 1571.25L524.308 1571.25C525.551 1571.25 526.558 1570.24 526.558 1569L526.558 1512.67C526.558 1511.43 525.551 1510.42 524.308 1510.42H513ZM558 1510.42C556.757 1510.42 555.75 1511.43 555.75 1512.67V1569C555.75 1570.24 556.757 1571.25 558 1571.25L609 1571.25C610.243 1571.25 611.25 1570.24 611.25 1569L611.25 1512.67C611.25 1511.43 610.243 1510.42 609 1510.42H558Z" fill="black"/>
</g>
</g>
<g id="Black-M">
<g id="Outline / Layout Outline_10">
<path id="Shape_10" fill-rule="evenodd" clip-rule="evenodd" d="M2968.89 1067.62C2972.7 1067.22 2975.67 1064 2975.67 1060.08V1051.92C2975.67 1047.73 2972.27 1044.33 2968.08 1044.33H2889.92C2885.73 1044.33 2882.33 1047.73 2882.33 1051.92V1060.08C2882.33 1064 2885.3 1067.22 2889.11 1067.62C2889.37 1067.65 2889.64 1067.67 2889.92 1067.67H2968.08C2968.36 1067.67 2968.63 1067.65 2968.89 1067.62ZM2903.2 1075.25C2902.88 1075.21 2902.55 1075.19 2902.21 1075.19H2889.92C2889.64 1075.19 2889.37 1075.2 2889.11 1075.23C2885.3 1075.63 2882.33 1078.86 2882.33 1082.77V1130.08C2882.33 1134.27 2885.73 1137.67 2889.92 1137.67H2902.21C2906.17 1137.67 2909.42 1134.64 2909.77 1130.77C2909.79 1130.54 2909.8 1130.31 2909.8 1130.08V1082.77C2909.8 1082.54 2909.79 1082.31 2909.77 1082.09C2909.45 1078.55 2906.7 1075.71 2903.2 1075.25ZM2968.89 1075.23C2968.63 1075.2 2968.36 1075.19 2968.08 1075.19H2924.92C2924.58 1075.19 2924.25 1075.21 2923.93 1075.25C2920.43 1075.71 2917.68 1078.55 2917.36 1082.09C2917.34 1082.31 2917.33 1082.54 2917.33 1082.77V1130.08C2917.33 1130.31 2917.34 1130.54 2917.36 1130.77C2917.71 1134.64 2920.96 1137.67 2924.92 1137.67H2968.08C2972.27 1137.67 2975.67 1134.27 2975.67 1130.08L2975.67 1082.77C2975.67 1078.86 2972.7 1075.63 2968.89 1075.23ZM2891.67 1051.92C2890.7 1051.92 2889.92 1052.7 2889.92 1053.67V1058.33C2889.92 1059.3 2890.7 1060.08 2891.67 1060.08L2966.33 1060.08C2967.3 1060.08 2968.08 1059.3 2968.08 1058.33L2968.08 1053.67C2968.08 1052.7 2967.3 1051.92 2966.33 1051.92L2891.67 1051.92ZM2891.67 1082.77C2890.7 1082.77 2889.92 1083.55 2889.92 1084.52V1128.33C2889.92 1129.3 2890.7 1130.08 2891.67 1130.08L2900.46 1130.08C2901.43 1130.08 2902.21 1129.3 2902.21 1128.33L2902.21 1084.52C2902.21 1083.55 2901.43 1082.77 2900.46 1082.77H2891.67ZM2926.67 1082.77C2925.7 1082.77 2924.92 1083.55 2924.92 1084.52V1128.33C2924.92 1129.3 2925.7 1130.08 2926.67 1130.08L2966.33 1130.08C2967.3 1130.08 2968.08 1129.3 2968.08 1128.33V1084.52C2968.08 1083.55 2967.3 1082.77 2966.33 1082.77H2926.67Z" fill="black"/>
</g>
</g>
<g id="Heavy-M">
<g id="Outline / Layout Outline_11">
<path id="Shape_11" fill-rule="evenodd" clip-rule="evenodd" d="M2672.89 1067.62C2676.7 1067.22 2679.67 1064 2679.67 1060.08V1051.92C2679.67 1047.73 2676.27 1044.33 2672.08 1044.33H2593.92C2589.73 1044.33 2586.33 1047.73 2586.33 1051.92V1060.08C2586.33 1064 2589.3 1067.22 2593.11 1067.62C2593.37 1067.65 2593.64 1067.67 2593.92 1067.67H2672.08C2672.36 1067.67 2672.63 1067.65 2672.89 1067.62ZM2607.2 1075.25C2606.88 1075.21 2606.55 1075.19 2606.21 1075.19H2593.92C2593.64 1075.19 2593.37 1075.2 2593.11 1075.23C2589.3 1075.63 2586.33 1078.86 2586.33 1082.77V1130.08C2586.33 1134.27 2589.73 1137.67 2593.92 1137.67H2606.21C2610.17 1137.67 2613.42 1134.64 2613.77 1130.77C2613.79 1130.54 2613.8 1130.31 2613.8 1130.08V1082.77C2613.8 1082.54 2613.79 1082.31 2613.77 1082.09C2613.45 1078.55 2610.7 1075.71 2607.2 1075.25ZM2672.89 1075.23C2672.63 1075.2 2672.36 1075.19 2672.08 1075.19H2628.92C2628.58 1075.19 2628.25 1075.21 2627.93 1075.25C2624.43 1075.71 2621.68 1078.55 2621.36 1082.09C2621.34 1082.31 2621.33 1082.54 2621.33 1082.77V1130.08C2621.33 1130.31 2621.34 1130.54 2621.36 1130.77C2621.71 1134.64 2624.96 1137.67 2628.92 1137.67H2672.08C2676.27 1137.67 2679.67 1134.27 2679.67 1130.08L2679.67 1082.77C2679.67 1078.86 2676.7 1075.63 2672.89 1075.23ZM2595.67 1051.92C2594.7 1051.92 2593.92 1052.7 2593.92 1053.67V1058.33C2593.92 1059.3 2594.7 1060.08 2595.67 1060.08L2670.33 1060.08C2671.3 1060.08 2672.08 1059.3 2672.08 1058.33L2672.08 1053.67C2672.08 1052.7 2671.3 1051.92 2670.33 1051.92L2595.67 1051.92ZM2595.67 1082.77C2594.7 1082.77 2593.92 1083.55 2593.92 1084.52V1128.33C2593.92 1129.3 2594.7 1130.08 2595.67 1130.08L2604.46 1130.08C2605.43 1130.08 2606.21 1129.3 2606.21 1128.33L2606.21 1084.52C2606.21 1083.55 2605.43 1082.77 2604.46 1082.77H2595.67ZM2630.67 1082.77C2629.7 1082.77 2628.92 1083.55 2628.92 1084.52V1128.33C2628.92 1129.3 2629.7 1130.08 2630.67 1130.08L2670.33 1130.08C2671.3 1130.08 2672.08 1129.3 2672.08 1128.33V1084.52C2672.08 1083.55 2671.3 1082.77 2670.33 1082.77H2630.67Z" fill="black"/>
</g>
</g>
<g id="Bold-M">
<g id="Outline / Layout Outline_12">
<path id="Shape_12" fill-rule="evenodd" clip-rule="evenodd" d="M2376.89 1067.62C2380.7 1067.22 2383.67 1064 2383.67 1060.08V1051.92C2383.67 1047.73 2380.27 1044.33 2376.08 1044.33H2297.92C2293.73 1044.33 2290.33 1047.73 2290.33 1051.92V1060.08C2290.33 1064 2293.3 1067.22 2297.11 1067.62C2297.37 1067.65 2297.64 1067.67 2297.92 1067.67H2376.08C2376.36 1067.67 2376.63 1067.65 2376.89 1067.62ZM2311.2 1075.25C2310.88 1075.21 2310.55 1075.19 2310.21 1075.19H2297.92C2297.64 1075.19 2297.37 1075.2 2297.11 1075.23C2293.3 1075.63 2290.33 1078.86 2290.33 1082.77V1130.08C2290.33 1134.27 2293.73 1137.67 2297.92 1137.67H2310.21C2314.17 1137.67 2317.42 1134.64 2317.77 1130.77C2317.79 1130.54 2317.8 1130.31 2317.8 1130.08V1082.77C2317.8 1082.54 2317.79 1082.31 2317.77 1082.09C2317.45 1078.55 2314.7 1075.71 2311.2 1075.25ZM2376.89 1075.23C2376.63 1075.2 2376.36 1075.19 2376.08 1075.19H2332.92C2332.58 1075.19 2332.25 1075.21 2331.93 1075.25C2328.43 1075.71 2325.68 1078.55 2325.36 1082.09C2325.34 1082.31 2325.33 1082.54 2325.33 1082.77V1130.08C2325.33 1130.31 2325.34 1130.54 2325.36 1130.77C2325.71 1134.64 2328.96 1137.67 2332.92 1137.67H2376.08C2380.27 1137.67 2383.67 1134.27 2383.67 1130.08L2383.67 1082.77C2383.67 1078.86 2380.7 1075.63 2376.89 1075.23ZM2299.67 1051.92C2298.7 1051.92 2297.92 1052.7 2297.92 1053.67V1058.33C2297.92 1059.3 2298.7 1060.08 2299.67 1060.08L2374.33 1060.08C2375.3 1060.08 2376.08 1059.3 2376.08 1058.33L2376.08 1053.67C2376.08 1052.7 2375.3 1051.92 2374.33 1051.92L2299.67 1051.92ZM2299.67 1082.77C2298.7 1082.77 2297.92 1083.55 2297.92 1084.52V1128.33C2297.92 1129.3 2298.7 1130.08 2299.67 1130.08L2308.46 1130.08C2309.43 1130.08 2310.21 1129.3 2310.21 1128.33L2310.21 1084.52C2310.21 1083.55 2309.43 1082.77 2308.46 1082.77H2299.67ZM2334.67 1082.77C2333.7 1082.77 2332.92 1083.55 2332.92 1084.52V1128.33C2332.92 1129.3 2333.7 1130.08 2334.67 1130.08L2374.33 1130.08C2375.3 1130.08 2376.08 1129.3 2376.08 1128.33V1084.52C2376.08 1083.55 2375.3 1082.77 2374.33 1082.77H2334.67Z" fill="black"/>
</g>
</g>
<g id="Semibold-M">
<g id="Outline / Layout Outline_13">
<path id="Shape_13" fill-rule="evenodd" clip-rule="evenodd" d="M2080.89 1067.62C2084.7 1067.22 2087.67 1064 2087.67 1060.08V1051.92C2087.67 1047.73 2084.27 1044.33 2080.08 1044.33H2001.92C1997.73 1044.33 1994.33 1047.73 1994.33 1051.92V1060.08C1994.33 1064 1997.3 1067.22 2001.11 1067.62C2001.37 1067.65 2001.64 1067.67 2001.92 1067.67H2080.08C2080.36 1067.67 2080.63 1067.65 2080.89 1067.62ZM2015.2 1075.25C2014.88 1075.21 2014.55 1075.19 2014.21 1075.19H2001.92C2001.64 1075.19 2001.37 1075.2 2001.11 1075.23C1997.3 1075.63 1994.33 1078.86 1994.33 1082.77V1130.08C1994.33 1134.27 1997.73 1137.67 2001.92 1137.67H2014.21C2018.17 1137.67 2021.42 1134.64 2021.77 1130.77C2021.79 1130.54 2021.8 1130.31 2021.8 1130.08V1082.77C2021.8 1082.54 2021.79 1082.31 2021.77 1082.09C2021.45 1078.55 2018.7 1075.71 2015.2 1075.25ZM2080.89 1075.23C2080.63 1075.2 2080.36 1075.19 2080.08 1075.19H2036.92C2036.58 1075.19 2036.25 1075.21 2035.93 1075.25C2032.43 1075.71 2029.68 1078.55 2029.36 1082.09C2029.34 1082.31 2029.33 1082.54 2029.33 1082.77V1130.08C2029.33 1130.31 2029.34 1130.54 2029.36 1130.77C2029.71 1134.64 2032.96 1137.67 2036.92 1137.67H2080.08C2084.27 1137.67 2087.67 1134.27 2087.67 1130.08L2087.67 1082.77C2087.67 1078.86 2084.7 1075.63 2080.89 1075.23ZM2003.67 1051.92C2002.7 1051.92 2001.92 1052.7 2001.92 1053.67V1058.33C2001.92 1059.3 2002.7 1060.08 2003.67 1060.08L2078.33 1060.08C2079.3 1060.08 2080.08 1059.3 2080.08 1058.33L2080.08 1053.67C2080.08 1052.7 2079.3 1051.92 2078.33 1051.92L2003.67 1051.92ZM2003.67 1082.77C2002.7 1082.77 2001.92 1083.55 2001.92 1084.52V1128.33C2001.92 1129.3 2002.7 1130.08 2003.67 1130.08L2012.46 1130.08C2013.43 1130.08 2014.21 1129.3 2014.21 1128.33L2014.21 1084.52C2014.21 1083.55 2013.43 1082.77 2012.46 1082.77H2003.67ZM2038.67 1082.77C2037.7 1082.77 2036.92 1083.55 2036.92 1084.52V1128.33C2036.92 1129.3 2037.7 1130.08 2038.67 1130.08L2078.33 1130.08C2079.3 1130.08 2080.08 1129.3 2080.08 1128.33V1084.52C2080.08 1083.55 2079.3 1082.77 2078.33 1082.77H2038.67Z" fill="black"/>
</g>
</g>
<g id="Medium-M">
<g id="Outline / Layout Outline_14">
<path id="Shape_14" fill-rule="evenodd" clip-rule="evenodd" d="M1784.89 1067.62C1788.7 1067.22 1791.67 1064 1791.67 1060.08V1051.92C1791.67 1047.73 1788.27 1044.33 1784.08 1044.33H1705.92C1701.73 1044.33 1698.33 1047.73 1698.33 1051.92V1060.08C1698.33 1064 1701.3 1067.22 1705.11 1067.62C1705.37 1067.65 1705.64 1067.67 1705.92 1067.67H1784.08C1784.36 1067.67 1784.63 1067.65 1784.89 1067.62ZM1719.2 1075.25C1718.88 1075.21 1718.55 1075.19 1718.21 1075.19H1705.92C1705.64 1075.19 1705.37 1075.2 1705.11 1075.23C1701.3 1075.63 1698.33 1078.86 1698.33 1082.77V1130.08C1698.33 1134.27 1701.73 1137.67 1705.92 1137.67H1718.21C1722.17 1137.67 1725.42 1134.64 1725.77 1130.77C1725.79 1130.54 1725.8 1130.31 1725.8 1130.08V1082.77C1725.8 1082.54 1725.79 1082.31 1725.77 1082.09C1725.45 1078.55 1722.7 1075.71 1719.2 1075.25ZM1784.89 1075.23C1784.63 1075.2 1784.36 1075.19 1784.08 1075.19H1740.92C1740.58 1075.19 1740.25 1075.21 1739.93 1075.25C1736.43 1075.71 1733.68 1078.55 1733.36 1082.09C1733.34 1082.31 1733.33 1082.54 1733.33 1082.77V1130.08C1733.33 1130.31 1733.34 1130.54 1733.36 1130.77C1733.71 1134.64 1736.96 1137.67 1740.92 1137.67H1784.08C1788.27 1137.67 1791.67 1134.27 1791.67 1130.08L1791.67 1082.77C1791.67 1078.86 1788.7 1075.63 1784.89 1075.23ZM1707.67 1051.92C1706.7 1051.92 1705.92 1052.7 1705.92 1053.67V1058.33C1705.92 1059.3 1706.7 1060.08 1707.67 1060.08L1782.33 1060.08C1783.3 1060.08 1784.08 1059.3 1784.08 1058.33L1784.08 1053.67C1784.08 1052.7 1783.3 1051.92 1782.33 1051.92L1707.67 1051.92ZM1707.67 1082.77C1706.7 1082.77 1705.92 1083.55 1705.92 1084.52V1128.33C1705.92 1129.3 1706.7 1130.08 1707.67 1130.08L1716.46 1130.08C1717.43 1130.08 1718.21 1129.3 1718.21 1128.33L1718.21 1084.52C1718.21 1083.55 1717.43 1082.77 1716.46 1082.77H1707.67ZM1742.67 1082.77C1741.7 1082.77 1740.92 1083.55 1740.92 1084.52V1128.33C1740.92 1129.3 1741.7 1130.08 1742.67 1130.08L1782.33 1130.08C1783.3 1130.08 1784.08 1129.3 1784.08 1128.33V1084.52C1784.08 1083.55 1783.3 1082.77 1782.33 1082.77H1742.67Z" fill="black"/>
</g>
</g>
<g id="Regular-M">
<g id="Outline / Layout Outline_15">
<path id="Shape_15" fill-rule="evenodd" clip-rule="evenodd" d="M1488.89 1067.62C1492.7 1067.22 1495.67 1064 1495.67 1060.08V1051.92C1495.67 1047.73 1492.27 1044.33 1488.08 1044.33H1409.92C1405.73 1044.33 1402.33 1047.73 1402.33 1051.92V1060.08C1402.33 1064 1405.3 1067.22 1409.11 1067.62C1409.37 1067.65 1409.64 1067.67 1409.92 1067.67H1488.08C1488.36 1067.67 1488.63 1067.65 1488.89 1067.62ZM1423.2 1075.25C1422.88 1075.21 1422.55 1075.19 1422.21 1075.19H1409.92C1409.64 1075.19 1409.37 1075.2 1409.11 1075.23C1405.3 1075.63 1402.33 1078.86 1402.33 1082.77V1130.08C1402.33 1134.27 1405.73 1137.67 1409.92 1137.67H1422.21C1426.17 1137.67 1429.42 1134.64 1429.77 1130.77C1429.79 1130.54 1429.8 1130.31 1429.8 1130.08V1082.77C1429.8 1082.54 1429.79 1082.31 1429.77 1082.09C1429.45 1078.55 1426.7 1075.71 1423.2 1075.25ZM1488.89 1075.23C1488.63 1075.2 1488.36 1075.19 1488.08 1075.19H1444.92C1444.58 1075.19 1444.25 1075.21 1443.93 1075.25C1440.43 1075.71 1437.68 1078.55 1437.36 1082.09C1437.34 1082.31 1437.33 1082.54 1437.33 1082.77V1130.08C1437.33 1130.31 1437.34 1130.54 1437.36 1130.77C1437.71 1134.64 1440.96 1137.67 1444.92 1137.67H1488.08C1492.27 1137.67 1495.67 1134.27 1495.67 1130.08L1495.67 1082.77C1495.67 1078.86 1492.7 1075.63 1488.89 1075.23ZM1411.67 1051.92C1410.7 1051.92 1409.92 1052.7 1409.92 1053.67V1058.33C1409.92 1059.3 1410.7 1060.08 1411.67 1060.08L1486.33 1060.08C1487.3 1060.08 1488.08 1059.3 1488.08 1058.33L1488.08 1053.67C1488.08 1052.7 1487.3 1051.92 1486.33 1051.92L1411.67 1051.92ZM1411.67 1082.77C1410.7 1082.77 1409.92 1083.55 1409.92 1084.52V1128.33C1409.92 1129.3 1410.7 1130.08 1411.67 1130.08L1420.46 1130.08C1421.43 1130.08 1422.21 1129.3 1422.21 1128.33L1422.21 1084.52C1422.21 1083.55 1421.43 1082.77 1420.46 1082.77H1411.67ZM1446.67 1082.77C1445.7 1082.77 1444.92 1083.55 1444.92 1084.52V1128.33C1444.92 1129.3 1445.7 1130.08 1446.67 1130.08L1486.33 1130.08C1487.3 1130.08 1488.08 1129.3 1488.08 1128.33V1084.52C1488.08 1083.55 1487.3 1082.77 1486.33 1082.77H1446.67Z" fill="black"/>
</g>
</g>
<g id="Light-M">
<g id="Outline / Layout Outline_16">
<path id="Shape_16" fill-rule="evenodd" clip-rule="evenodd" d="M1192.89 1067.62C1196.7 1067.22 1199.67 1064 1199.67 1060.08V1051.92C1199.67 1047.73 1196.27 1044.33 1192.08 1044.33H1113.92C1109.73 1044.33 1106.33 1047.73 1106.33 1051.92V1060.08C1106.33 1064 1109.3 1067.22 1113.11 1067.62C1113.37 1067.65 1113.64 1067.67 1113.92 1067.67H1192.08C1192.36 1067.67 1192.63 1067.65 1192.89 1067.62ZM1127.2 1075.25C1126.88 1075.21 1126.55 1075.19 1126.21 1075.19H1113.92C1113.64 1075.19 1113.37 1075.2 1113.11 1075.23C1109.3 1075.63 1106.33 1078.86 1106.33 1082.77V1130.08C1106.33 1134.27 1109.73 1137.67 1113.92 1137.67H1126.21C1130.17 1137.67 1133.42 1134.64 1133.77 1130.77C1133.79 1130.54 1133.8 1130.31 1133.8 1130.08V1082.77C1133.8 1082.54 1133.79 1082.31 1133.77 1082.09C1133.45 1078.55 1130.7 1075.71 1127.2 1075.25ZM1192.89 1075.23C1192.63 1075.2 1192.36 1075.19 1192.08 1075.19H1148.92C1148.58 1075.19 1148.25 1075.21 1147.93 1075.25C1144.43 1075.71 1141.68 1078.55 1141.36 1082.09C1141.34 1082.31 1141.33 1082.54 1141.33 1082.77V1130.08C1141.33 1130.31 1141.34 1130.54 1141.36 1130.77C1141.71 1134.64 1144.96 1137.67 1148.92 1137.67H1192.08C1196.27 1137.67 1199.67 1134.27 1199.67 1130.08L1199.67 1082.77C1199.67 1078.86 1196.7 1075.63 1192.89 1075.23ZM1115.67 1051.92C1114.7 1051.92 1113.92 1052.7 1113.92 1053.67V1058.33C1113.92 1059.3 1114.7 1060.08 1115.67 1060.08L1190.33 1060.08C1191.3 1060.08 1192.08 1059.3 1192.08 1058.33L1192.08 1053.67C1192.08 1052.7 1191.3 1051.92 1190.33 1051.92L1115.67 1051.92ZM1115.67 1082.77C1114.7 1082.77 1113.92 1083.55 1113.92 1084.52V1128.33C1113.92 1129.3 1114.7 1130.08 1115.67 1130.08L1124.46 1130.08C1125.43 1130.08 1126.21 1129.3 1126.21 1128.33L1126.21 1084.52C1126.21 1083.55 1125.43 1082.77 1124.46 1082.77H1115.67ZM1150.67 1082.77C1149.7 1082.77 1148.92 1083.55 1148.92 1084.52V1128.33C1148.92 1129.3 1149.7 1130.08 1150.67 1130.08L1190.33 1130.08C1191.3 1130.08 1192.08 1129.3 1192.08 1128.33V1084.52C1192.08 1083.55 1191.3 1082.77 1190.33 1082.77H1150.67Z" fill="black"/>
</g>
</g>
<g id="Thin-M">
<g id="Outline / Layout Outline_17">
<path id="Shape_17" fill-rule="evenodd" clip-rule="evenodd" d="M896.893 1067.62C900.701 1067.22 903.667 1064 903.667 1060.08V1051.92C903.667 1047.73 900.272 1044.33 896.084 1044.33H817.917C813.729 1044.33 810.334 1047.73 810.334 1051.92V1060.08C810.334 1064 813.301 1067.22 817.109 1067.62C817.374 1067.65 817.644 1067.67 817.917 1067.67H896.084C896.357 1067.67 896.627 1067.65 896.893 1067.62ZM831.201 1075.25C830.877 1075.21 830.548 1075.19 830.213 1075.19H817.917C817.644 1075.19 817.374 1075.2 817.109 1075.23C813.301 1075.63 810.334 1078.86 810.334 1082.77V1130.08C810.334 1134.27 813.729 1137.67 817.917 1137.67H830.213C834.171 1137.67 837.421 1134.64 837.766 1130.77C837.786 1130.54 837.796 1130.31 837.796 1130.08V1082.77C837.796 1082.54 837.786 1082.31 837.766 1082.09C837.45 1078.55 834.7 1075.71 831.201 1075.25ZM896.893 1075.23C896.627 1075.2 896.357 1075.19 896.084 1075.19H852.917C852.582 1075.19 852.253 1075.21 851.929 1075.25C848.43 1075.71 845.68 1078.55 845.364 1082.09C845.344 1082.31 845.334 1082.54 845.334 1082.77V1130.08C845.334 1130.31 845.344 1130.54 845.364 1130.77C845.71 1134.64 848.959 1137.67 852.917 1137.67H896.084C900.272 1137.67 903.667 1134.27 903.667 1130.08L903.667 1082.77C903.667 1078.86 900.701 1075.63 896.893 1075.23ZM819.667 1051.92C818.701 1051.92 817.917 1052.7 817.917 1053.67V1058.33C817.917 1059.3 818.701 1060.08 819.667 1060.08L894.334 1060.08C895.3 1060.08 896.084 1059.3 896.084 1058.33L896.084 1053.67C896.084 1052.7 895.3 1051.92 894.334 1051.92L819.667 1051.92ZM819.667 1082.77C818.701 1082.77 817.917 1083.55 817.917 1084.52V1128.33C817.917 1129.3 818.701 1130.08 819.667 1130.08L828.463 1130.08C829.429 1130.08 830.213 1129.3 830.213 1128.33L830.213 1084.52C830.213 1083.55 829.429 1082.77 828.463 1082.77H819.667ZM854.667 1082.77C853.701 1082.77 852.917 1083.55 852.917 1084.52V1128.33C852.917 1129.3 853.701 1130.08 854.667 1130.08L894.334 1130.08C895.3 1130.08 896.084 1129.3 896.084 1128.33V1084.52C896.084 1083.55 895.3 1082.77 894.334 1082.77H854.667Z" fill="black"/>
</g>
</g>
<g id="Ultralight-M">
<g id="Outline / Layout Outline_18">
<path id="Shape_18" fill-rule="evenodd" clip-rule="evenodd" d="M600.893 1067.62C604.701 1067.22 607.667 1064 607.667 1060.08V1051.92C607.667 1047.73 604.272 1044.33 600.084 1044.33H521.917C517.729 1044.33 514.334 1047.73 514.334 1051.92V1060.08C514.334 1064 517.301 1067.22 521.109 1067.62C521.374 1067.65 521.644 1067.67 521.917 1067.67H600.084C600.357 1067.67 600.627 1067.65 600.893 1067.62ZM535.201 1075.25C534.877 1075.21 534.548 1075.19 534.213 1075.19H521.917C521.644 1075.19 521.374 1075.2 521.109 1075.23C517.301 1075.63 514.334 1078.86 514.334 1082.77V1130.08C514.334 1134.27 517.729 1137.67 521.917 1137.67H534.213C538.171 1137.67 541.421 1134.64 541.766 1130.77C541.786 1130.54 541.796 1130.31 541.796 1130.08V1082.77C541.796 1082.54 541.786 1082.31 541.766 1082.09C541.45 1078.55 538.7 1075.71 535.201 1075.25ZM600.893 1075.23C600.627 1075.2 600.357 1075.19 600.084 1075.19H556.917C556.582 1075.19 556.253 1075.21 555.929 1075.25C552.43 1075.71 549.68 1078.55 549.364 1082.09C549.344 1082.31 549.334 1082.54 549.334 1082.77V1130.08C549.334 1130.31 549.344 1130.54 549.364 1130.77C549.71 1134.64 552.959 1137.67 556.917 1137.67H600.084C604.272 1137.67 607.667 1134.27 607.667 1130.08L607.667 1082.77C607.667 1078.86 604.701 1075.63 600.893 1075.23ZM523.667 1051.92C522.701 1051.92 521.917 1052.7 521.917 1053.67V1058.33C521.917 1059.3 522.701 1060.08 523.667 1060.08L598.334 1060.08C599.3 1060.08 600.084 1059.3 600.084 1058.33L600.084 1053.67C600.084 1052.7 599.3 1051.92 598.334 1051.92L523.667 1051.92ZM523.667 1082.77C522.701 1082.77 521.917 1083.55 521.917 1084.52V1128.33C521.917 1129.3 522.701 1130.08 523.667 1130.08L532.463 1130.08C533.429 1130.08 534.213 1129.3 534.213 1128.33L534.213 1084.52C534.213 1083.55 533.429 1082.77 532.463 1082.77H523.667ZM558.667 1082.77C557.701 1082.77 556.917 1083.55 556.917 1084.52V1128.33C556.917 1129.3 557.701 1130.08 558.667 1130.08L598.334 1130.08C599.3 1130.08 600.084 1129.3 600.084 1128.33V1084.52C600.084 1083.55 599.3 1082.77 598.334 1082.77H558.667Z" fill="black"/>
</g>
</g>
<g id="Black-S">
<g id="Outline / Layout Outline_19">
<path id="Shape_19" fill-rule="evenodd" clip-rule="evenodd" d="M2957.49 644.302C2960.21 644.014 2962.33 641.712 2962.33 638.916V633.083C2962.33 630.091 2959.91 627.666 2956.92 627.666H2901.08C2898.09 627.666 2895.67 630.091 2895.67 633.083V638.916C2895.67 641.712 2897.79 644.014 2900.51 644.302C2900.69 644.322 2900.89 644.333 2901.08 644.333H2956.92C2957.11 644.333 2957.3 644.322 2957.49 644.302ZM2910.57 649.749C2910.34 649.719 2910.1 649.704 2909.87 649.704H2901.08C2900.89 649.704 2900.69 649.714 2900.51 649.734C2897.79 650.023 2895.67 652.324 2895.67 655.12V688.916C2895.67 691.908 2898.09 694.333 2901.08 694.333H2909.87C2912.69 694.333 2915.01 692.167 2915.26 689.404C2915.27 689.243 2915.28 689.08 2915.28 688.916V655.12C2915.28 654.956 2915.27 654.793 2915.26 654.633C2915.03 652.103 2913.07 650.075 2910.57 649.749ZM2957.49 649.734C2957.3 649.714 2957.11 649.704 2956.92 649.704H2926.08C2925.84 649.704 2925.61 649.719 2925.38 649.749C2922.88 650.075 2920.91 652.103 2920.69 654.633C2920.67 654.793 2920.67 654.956 2920.67 655.12V688.916C2920.67 689.08 2920.67 689.243 2920.69 689.404C2920.93 692.167 2923.26 694.333 2926.08 694.333H2956.92C2959.91 694.333 2962.33 691.908 2962.33 688.916L2962.33 655.12C2962.33 652.324 2960.21 650.023 2957.49 649.734ZM2902.33 633.083C2901.64 633.083 2901.08 633.642 2901.08 634.333V637.666C2901.08 638.356 2901.64 638.916 2902.33 638.916L2955.67 638.916C2956.36 638.916 2956.92 638.356 2956.92 637.666L2956.92 634.333C2956.92 633.642 2956.36 633.083 2955.67 633.083L2902.33 633.083ZM2902.33 655.12C2901.64 655.12 2901.08 655.68 2901.08 656.37V687.666C2901.08 688.356 2901.64 688.916 2902.33 688.916L2908.62 688.916C2909.31 688.916 2909.87 688.356 2909.87 687.666L2909.87 656.37C2909.87 655.68 2909.31 655.12 2908.62 655.12H2902.33ZM2927.33 655.12C2926.64 655.12 2926.08 655.68 2926.08 656.37V687.666C2926.08 688.356 2926.64 688.916 2927.33 688.916L2955.67 688.916C2956.36 688.916 2956.92 688.356 2956.92 687.666L2956.92 656.37C2956.92 655.68 2956.36 655.12 2955.67 655.12H2927.33Z" fill="black"/>
</g>
</g>
<g id="Heavy-S">
<g id="Outline / Layout Outline_20">
<path id="Shape_20" fill-rule="evenodd" clip-rule="evenodd" d="M2661.49 644.302C2664.21 644.014 2666.33 641.712 2666.33 638.916V633.083C2666.33 630.091 2663.91 627.666 2660.92 627.666H2605.08C2602.09 627.666 2599.67 630.091 2599.67 633.083V638.916C2599.67 641.712 2601.79 644.014 2604.51 644.302C2604.69 644.322 2604.89 644.333 2605.08 644.333H2660.92C2661.11 644.333 2661.3 644.322 2661.49 644.302ZM2614.57 649.749C2614.34 649.719 2614.1 649.704 2613.87 649.704H2605.08C2604.89 649.704 2604.69 649.714 2604.51 649.734C2601.79 650.023 2599.67 652.324 2599.67 655.12V688.916C2599.67 691.908 2602.09 694.333 2605.08 694.333H2613.87C2616.69 694.333 2619.01 692.167 2619.26 689.404C2619.27 689.243 2619.28 689.08 2619.28 688.916V655.12C2619.28 654.956 2619.27 654.793 2619.26 654.633C2619.03 652.103 2617.07 650.075 2614.57 649.749ZM2661.49 649.734C2661.3 649.714 2661.11 649.704 2660.92 649.704H2630.08C2629.84 649.704 2629.61 649.719 2629.38 649.749C2626.88 650.075 2624.91 652.103 2624.69 654.633C2624.67 654.793 2624.67 654.956 2624.67 655.12V688.916C2624.67 689.08 2624.67 689.243 2624.69 689.404C2624.93 692.167 2627.26 694.333 2630.08 694.333H2660.92C2663.91 694.333 2666.33 691.908 2666.33 688.916L2666.33 655.12C2666.33 652.324 2664.21 650.023 2661.49 649.734ZM2606.33 633.083C2605.64 633.083 2605.08 633.642 2605.08 634.333V637.666C2605.08 638.356 2605.64 638.916 2606.33 638.916L2659.67 638.916C2660.36 638.916 2660.92 638.356 2660.92 637.666L2660.92 634.333C2660.92 633.642 2660.36 633.083 2659.67 633.083L2606.33 633.083ZM2606.33 655.12C2605.64 655.12 2605.08 655.68 2605.08 656.37V687.666C2605.08 688.356 2605.64 688.916 2606.33 688.916L2612.62 688.916C2613.31 688.916 2613.87 688.356 2613.87 687.666L2613.87 656.37C2613.87 655.68 2613.31 655.12 2612.62 655.12H2606.33ZM2631.33 655.12C2630.64 655.12 2630.08 655.68 2630.08 656.37V687.666C2630.08 688.356 2630.64 688.916 2631.33 688.916L2659.67 688.916C2660.36 688.916 2660.92 688.356 2660.92 687.666L2660.92 656.37C2660.92 655.68 2660.36 655.12 2659.67 655.12H2631.33Z" fill="black"/>
</g>
</g>
<g id="Bold-S">
<g id="Outline / Layout Outline_21">
<path id="Shape_21" fill-rule="evenodd" clip-rule="evenodd" d="M2365.49 644.302C2368.21 644.014 2370.33 641.712 2370.33 638.916V633.083C2370.33 630.091 2367.91 627.666 2364.92 627.666H2309.08C2306.09 627.666 2303.67 630.091 2303.67 633.083V638.916C2303.67 641.712 2305.79 644.014 2308.51 644.302C2308.69 644.322 2308.89 644.333 2309.08 644.333H2364.92C2365.11 644.333 2365.3 644.322 2365.49 644.302ZM2318.57 649.749C2318.34 649.719 2318.1 649.704 2317.87 649.704H2309.08C2308.89 649.704 2308.69 649.714 2308.51 649.734C2305.79 650.023 2303.67 652.324 2303.67 655.12V688.916C2303.67 691.908 2306.09 694.333 2309.08 694.333H2317.87C2320.69 694.333 2323.01 692.167 2323.26 689.404C2323.27 689.243 2323.28 689.08 2323.28 688.916V655.12C2323.28 654.956 2323.27 654.793 2323.26 654.633C2323.03 652.103 2321.07 650.075 2318.57 649.749ZM2365.49 649.734C2365.3 649.714 2365.11 649.704 2364.92 649.704H2334.08C2333.84 649.704 2333.61 649.719 2333.38 649.749C2330.88 650.075 2328.91 652.103 2328.69 654.633C2328.67 654.793 2328.67 654.956 2328.67 655.12V688.916C2328.67 689.08 2328.67 689.243 2328.69 689.404C2328.93 692.167 2331.26 694.333 2334.08 694.333H2364.92C2367.91 694.333 2370.33 691.908 2370.33 688.916L2370.33 655.12C2370.33 652.324 2368.21 650.023 2365.49 649.734ZM2310.33 633.083C2309.64 633.083 2309.08 633.642 2309.08 634.333V637.666C2309.08 638.356 2309.64 638.916 2310.33 638.916L2363.67 638.916C2364.36 638.916 2364.92 638.356 2364.92 637.666L2364.92 634.333C2364.92 633.642 2364.36 633.083 2363.67 633.083L2310.33 633.083ZM2310.33 655.12C2309.64 655.12 2309.08 655.68 2309.08 656.37V687.666C2309.08 688.356 2309.64 688.916 2310.33 688.916L2316.62 688.916C2317.31 688.916 2317.87 688.356 2317.87 687.666L2317.87 656.37C2317.87 655.68 2317.31 655.12 2316.62 655.12H2310.33ZM2335.33 655.12C2334.64 655.12 2334.08 655.68 2334.08 656.37V687.666C2334.08 688.356 2334.64 688.916 2335.33 688.916L2363.67 688.916C2364.36 688.916 2364.92 688.356 2364.92 687.666L2364.92 656.37C2364.92 655.68 2364.36 655.12 2363.67 655.12H2335.33Z" fill="black"/>
</g>
</g>
<g id="Semibold-S">
<g id="Outline / Layout Outline_22">
<path id="Shape_22" fill-rule="evenodd" clip-rule="evenodd" d="M2069.49 644.302C2072.21 644.014 2074.33 641.712 2074.33 638.916V633.083C2074.33 630.091 2071.91 627.666 2068.92 627.666H2013.08C2010.09 627.666 2007.67 630.091 2007.67 633.083V638.916C2007.67 641.712 2009.79 644.014 2012.51 644.302C2012.69 644.322 2012.89 644.333 2013.08 644.333H2068.92C2069.11 644.333 2069.3 644.322 2069.49 644.302ZM2022.57 649.749C2022.34 649.719 2022.1 649.704 2021.87 649.704H2013.08C2012.89 649.704 2012.69 649.714 2012.51 649.734C2009.79 650.023 2007.67 652.324 2007.67 655.12V688.916C2007.67 691.908 2010.09 694.333 2013.08 694.333H2021.87C2024.69 694.333 2027.01 692.167 2027.26 689.404C2027.27 689.243 2027.28 689.08 2027.28 688.916V655.12C2027.28 654.956 2027.27 654.793 2027.26 654.633C2027.03 652.103 2025.07 650.075 2022.57 649.749ZM2069.49 649.734C2069.3 649.714 2069.11 649.704 2068.92 649.704H2038.08C2037.84 649.704 2037.61 649.719 2037.38 649.749C2034.88 650.075 2032.91 652.103 2032.69 654.633C2032.67 654.793 2032.67 654.956 2032.67 655.12V688.916C2032.67 689.08 2032.67 689.243 2032.69 689.404C2032.93 692.167 2035.26 694.333 2038.08 694.333H2068.92C2071.91 694.333 2074.33 691.908 2074.33 688.916L2074.33 655.12C2074.33 652.324 2072.21 650.023 2069.49 649.734ZM2014.33 633.083C2013.64 633.083 2013.08 633.642 2013.08 634.333V637.666C2013.08 638.356 2013.64 638.916 2014.33 638.916L2067.67 638.916C2068.36 638.916 2068.92 638.356 2068.92 637.666L2068.92 634.333C2068.92 633.642 2068.36 633.083 2067.67 633.083L2014.33 633.083ZM2014.33 655.12C2013.64 655.12 2013.08 655.68 2013.08 656.37V687.666C2013.08 688.356 2013.64 688.916 2014.33 688.916L2020.62 688.916C2021.31 688.916 2021.87 688.356 2021.87 687.666L2021.87 656.37C2021.87 655.68 2021.31 655.12 2020.62 655.12H2014.33ZM2039.33 655.12C2038.64 655.12 2038.08 655.68 2038.08 656.37V687.666C2038.08 688.356 2038.64 688.916 2039.33 688.916L2067.67 688.916C2068.36 688.916 2068.92 688.356 2068.92 687.666L2068.92 656.37C2068.92 655.68 2068.36 655.12 2067.67 655.12H2039.33Z" fill="black"/>
</g>
</g>
<g id="Medium-S">
<g id="Outline / Layout Outline_23">
<path id="Shape_23" fill-rule="evenodd" clip-rule="evenodd" d="M1773.49 644.302C1776.21 644.014 1778.33 641.712 1778.33 638.916V633.083C1778.33 630.091 1775.91 627.666 1772.92 627.666H1717.08C1714.09 627.666 1711.67 630.091 1711.67 633.083V638.916C1711.67 641.712 1713.79 644.014 1716.51 644.302C1716.69 644.322 1716.89 644.333 1717.08 644.333H1772.92C1773.11 644.333 1773.3 644.322 1773.49 644.302ZM1726.57 649.749C1726.34 649.719 1726.1 649.704 1725.87 649.704H1717.08C1716.89 649.704 1716.69 649.714 1716.51 649.734C1713.79 650.023 1711.67 652.324 1711.67 655.12V688.916C1711.67 691.908 1714.09 694.333 1717.08 694.333H1725.87C1728.69 694.333 1731.01 692.167 1731.26 689.404C1731.27 689.243 1731.28 689.08 1731.28 688.916V655.12C1731.28 654.956 1731.27 654.793 1731.26 654.633C1731.03 652.103 1729.07 650.075 1726.57 649.749ZM1773.49 649.734C1773.3 649.714 1773.11 649.704 1772.92 649.704H1742.08C1741.84 649.704 1741.61 649.719 1741.38 649.749C1738.88 650.075 1736.91 652.103 1736.69 654.633C1736.67 654.793 1736.67 654.956 1736.67 655.12V688.916C1736.67 689.08 1736.67 689.243 1736.69 689.404C1736.93 692.167 1739.26 694.333 1742.08 694.333H1772.92C1775.91 694.333 1778.33 691.908 1778.33 688.916L1778.33 655.12C1778.33 652.324 1776.21 650.023 1773.49 649.734ZM1718.33 633.083C1717.64 633.083 1717.08 633.642 1717.08 634.333V637.666C1717.08 638.356 1717.64 638.916 1718.33 638.916L1771.67 638.916C1772.36 638.916 1772.92 638.356 1772.92 637.666L1772.92 634.333C1772.92 633.642 1772.36 633.083 1771.67 633.083L1718.33 633.083ZM1718.33 655.12C1717.64 655.12 1717.08 655.68 1717.08 656.37V687.666C1717.08 688.356 1717.64 688.916 1718.33 688.916L1724.62 688.916C1725.31 688.916 1725.87 688.356 1725.87 687.666L1725.87 656.37C1725.87 655.68 1725.31 655.12 1724.62 655.12H1718.33ZM1743.33 655.12C1742.64 655.12 1742.08 655.68 1742.08 656.37V687.666C1742.08 688.356 1742.64 688.916 1743.33 688.916L1771.67 688.916C1772.36 688.916 1772.92 688.356 1772.92 687.666L1772.92 656.37C1772.92 655.68 1772.36 655.12 1771.67 655.12H1743.33Z" fill="black"/>
</g>
</g>
<g id="Regular-S">
<g id="Outline / Layout Outline_24">
<path id="Shape_24" fill-rule="evenodd" clip-rule="evenodd" d="M1477.49 644.302C1480.21 644.014 1482.33 641.712 1482.33 638.916V633.083C1482.33 630.091 1479.91 627.666 1476.92 627.666H1421.08C1418.09 627.666 1415.67 630.091 1415.67 633.083V638.916C1415.67 641.712 1417.79 644.014 1420.51 644.302C1420.69 644.322 1420.89 644.333 1421.08 644.333H1476.92C1477.11 644.333 1477.3 644.322 1477.49 644.302ZM1430.57 649.749C1430.34 649.719 1430.1 649.704 1429.87 649.704H1421.08C1420.89 649.704 1420.69 649.714 1420.51 649.734C1417.79 650.023 1415.67 652.324 1415.67 655.12V688.916C1415.67 691.908 1418.09 694.333 1421.08 694.333H1429.87C1432.69 694.333 1435.01 692.167 1435.26 689.404C1435.27 689.243 1435.28 689.08 1435.28 688.916V655.12C1435.28 654.956 1435.27 654.793 1435.26 654.633C1435.03 652.103 1433.07 650.075 1430.57 649.749ZM1477.49 649.734C1477.3 649.714 1477.11 649.704 1476.92 649.704H1446.08C1445.84 649.704 1445.61 649.719 1445.38 649.749C1442.88 650.075 1440.91 652.103 1440.69 654.633C1440.67 654.793 1440.67 654.956 1440.67 655.12V688.916C1440.67 689.08 1440.67 689.243 1440.69 689.404C1440.93 692.167 1443.26 694.333 1446.08 694.333H1476.92C1479.91 694.333 1482.33 691.908 1482.33 688.916L1482.33 655.12C1482.33 652.324 1480.21 650.023 1477.49 649.734ZM1422.33 633.083C1421.64 633.083 1421.08 633.642 1421.08 634.333V637.666C1421.08 638.356 1421.64 638.916 1422.33 638.916L1475.67 638.916C1476.36 638.916 1476.92 638.356 1476.92 637.666L1476.92 634.333C1476.92 633.642 1476.36 633.083 1475.67 633.083L1422.33 633.083ZM1422.33 655.12C1421.64 655.12 1421.08 655.68 1421.08 656.37V687.666C1421.08 688.356 1421.64 688.916 1422.33 688.916L1428.62 688.916C1429.31 688.916 1429.87 688.356 1429.87 687.666L1429.87 656.37C1429.87 655.68 1429.31 655.12 1428.62 655.12H1422.33ZM1447.33 655.12C1446.64 655.12 1446.08 655.68 1446.08 656.37V687.666C1446.08 688.356 1446.64 688.916 1447.33 688.916L1475.67 688.916C1476.36 688.916 1476.92 688.356 1476.92 687.666L1476.92 656.37C1476.92 655.68 1476.36 655.12 1475.67 655.12H1447.33Z" fill="black"/>
</g>
</g>
<g id="Light-S">
<g id="Outline / Layout Outline_25">
<path id="Shape_25" fill-rule="evenodd" clip-rule="evenodd" d="M1181.49 644.302C1184.21 644.014 1186.33 641.712 1186.33 638.916V633.083C1186.33 630.091 1183.91 627.666 1180.92 627.666H1125.08C1122.09 627.666 1119.67 630.091 1119.67 633.083V638.916C1119.67 641.712 1121.79 644.014 1124.51 644.302C1124.69 644.322 1124.89 644.333 1125.08 644.333H1180.92C1181.11 644.333 1181.3 644.322 1181.49 644.302ZM1134.57 649.749C1134.34 649.719 1134.1 649.704 1133.87 649.704H1125.08C1124.89 649.704 1124.69 649.714 1124.51 649.734C1121.79 650.023 1119.67 652.324 1119.67 655.12V688.916C1119.67 691.908 1122.09 694.333 1125.08 694.333H1133.87C1136.69 694.333 1139.01 692.167 1139.26 689.404C1139.27 689.243 1139.28 689.08 1139.28 688.916V655.12C1139.28 654.956 1139.27 654.793 1139.26 654.633C1139.03 652.103 1137.07 650.075 1134.57 649.749ZM1181.49 649.734C1181.3 649.714 1181.11 649.704 1180.92 649.704H1150.08C1149.84 649.704 1149.61 649.719 1149.38 649.749C1146.88 650.075 1144.91 652.103 1144.69 654.633C1144.67 654.793 1144.67 654.956 1144.67 655.12V688.916C1144.67 689.08 1144.67 689.243 1144.69 689.404C1144.93 692.167 1147.26 694.333 1150.08 694.333H1180.92C1183.91 694.333 1186.33 691.908 1186.33 688.916L1186.33 655.12C1186.33 652.324 1184.21 650.023 1181.49 649.734ZM1126.33 633.083C1125.64 633.083 1125.08 633.642 1125.08 634.333V637.666C1125.08 638.356 1125.64 638.916 1126.33 638.916L1179.67 638.916C1180.36 638.916 1180.92 638.356 1180.92 637.666L1180.92 634.333C1180.92 633.642 1180.36 633.083 1179.67 633.083L1126.33 633.083ZM1126.33 655.12C1125.64 655.12 1125.08 655.68 1125.08 656.37V687.666C1125.08 688.356 1125.64 688.916 1126.33 688.916L1132.62 688.916C1133.31 688.916 1133.87 688.356 1133.87 687.666L1133.87 656.37C1133.87 655.68 1133.31 655.12 1132.62 655.12H1126.33ZM1151.33 655.12C1150.64 655.12 1150.08 655.68 1150.08 656.37V687.666C1150.08 688.356 1150.64 688.916 1151.33 688.916L1179.67 688.916C1180.36 688.916 1180.92 688.356 1180.92 687.666L1180.92 656.37C1180.92 655.68 1180.36 655.12 1179.67 655.12H1151.33Z" fill="black"/>
</g>
</g>
<g id="Thin-S">
<g id="Outline / Layout Outline_26">
<path id="Shape_26" fill-rule="evenodd" clip-rule="evenodd" d="M885.494 644.302C888.214 644.014 890.333 641.712 890.333 638.916V633.083C890.333 630.091 887.908 627.666 884.916 627.666H829.083C826.091 627.666 823.666 630.091 823.666 633.083V638.916C823.666 641.712 825.785 644.014 828.505 644.302C828.695 644.322 828.888 644.333 829.083 644.333H884.916C885.111 644.333 885.304 644.322 885.494 644.302ZM838.571 649.749C838.34 649.719 838.104 649.704 837.865 649.704H829.083C828.888 649.704 828.695 649.714 828.505 649.734C825.785 650.023 823.666 652.324 823.666 655.12V688.916C823.666 691.908 826.091 694.333 829.083 694.333H837.865C840.692 694.333 843.014 692.167 843.26 689.404C843.274 689.243 843.282 689.08 843.282 688.916V655.12C843.282 654.956 843.274 654.793 843.26 654.633C843.034 652.103 841.07 650.075 838.571 649.749ZM885.494 649.734C885.304 649.714 885.111 649.704 884.916 649.704H854.083C853.843 649.704 853.608 649.719 853.377 649.749C850.878 650.075 848.913 652.103 848.688 654.633C848.673 654.793 848.666 654.956 848.666 655.12V688.916C848.666 689.08 848.673 689.243 848.688 689.404C848.934 692.167 851.256 694.333 854.083 694.333H884.916C887.908 694.333 890.333 691.908 890.333 688.916L890.333 655.12C890.333 652.324 888.214 650.023 885.494 649.734ZM830.333 633.083C829.642 633.083 829.083 633.642 829.083 634.333V637.666C829.083 638.356 829.642 638.916 830.333 638.916L883.666 638.916C884.356 638.916 884.916 638.356 884.916 637.666L884.916 634.333C884.916 633.642 884.356 633.083 883.666 633.083L830.333 633.083ZM830.333 655.12C829.642 655.12 829.083 655.68 829.083 656.37V687.666C829.083 688.356 829.642 688.916 830.333 688.916L836.615 688.916C837.305 688.916 837.865 688.356 837.865 687.666L837.865 656.37C837.865 655.68 837.305 655.12 836.615 655.12H830.333ZM855.333 655.12C854.642 655.12 854.083 655.68 854.083 656.37V687.666C854.083 688.356 854.642 688.916 855.333 688.916L883.666 688.916C884.356 688.916 884.916 688.356 884.916 687.666L884.916 656.37C884.916 655.68 884.356 655.12 883.666 655.12H855.333Z" fill="black"/>
</g>
</g>
<g id="Ultralight-S">
<g id="Outline / Layout Outline_27">
<path id="Shape_27" fill-rule="evenodd" clip-rule="evenodd" d="M589.494 644.302C592.214 644.014 594.333 641.712 594.333 638.916V633.083C594.333 630.091 591.908 627.666 588.916 627.666H533.083C530.091 627.666 527.666 630.091 527.666 633.083V638.916C527.666 641.712 529.785 644.014 532.505 644.302C532.695 644.322 532.888 644.333 533.083 644.333H588.916C589.111 644.333 589.304 644.322 589.494 644.302ZM542.571 649.749C542.34 649.719 542.104 649.704 541.865 649.704H533.083C532.888 649.704 532.695 649.714 532.505 649.734C529.785 650.023 527.666 652.324 527.666 655.12V688.916C527.666 691.908 530.091 694.333 533.083 694.333H541.865C544.692 694.333 547.014 692.167 547.26 689.404C547.274 689.243 547.282 689.08 547.282 688.916V655.12C547.282 654.956 547.274 654.793 547.26 654.633C547.034 652.103 545.07 650.075 542.571 649.749ZM589.494 649.734C589.304 649.714 589.111 649.704 588.916 649.704H558.083C557.843 649.704 557.608 649.719 557.377 649.749C554.878 650.075 552.913 652.103 552.688 654.633C552.673 654.793 552.666 654.956 552.666 655.12V688.916C552.666 689.08 552.673 689.243 552.688 689.404C552.934 692.167 555.256 694.333 558.083 694.333H588.916C591.908 694.333 594.333 691.908 594.333 688.916L594.333 655.12C594.333 652.324 592.214 650.023 589.494 649.734ZM534.333 633.083C533.642 633.083 533.083 633.642 533.083 634.333V637.666C533.083 638.356 533.642 638.916 534.333 638.916L587.666 638.916C588.356 638.916 588.916 638.356 588.916 637.666L588.916 634.333C588.916 633.642 588.356 633.083 587.666 633.083L534.333 633.083ZM534.333 655.12C533.642 655.12 533.083 655.68 533.083 656.37V687.666C533.083 688.356 533.642 688.916 534.333 688.916L540.615 688.916C541.305 688.916 541.865 688.356 541.865 687.666L541.865 656.37C541.865 655.68 541.305 655.12 540.615 655.12H534.333ZM559.333 655.12C558.642 655.12 558.083 655.68 558.083 656.37V687.666C558.083 688.356 558.642 688.916 559.333 688.916L587.666 688.916C588.356 688.916 588.916 688.356 588.916 687.666L588.916 656.37C588.916 655.68 588.356 655.12 587.666 655.12H559.333Z" fill="black"/>
</g>
</g>
</g>
</g>
<defs>
<clipPath id="clip0_0_1">
<rect width="3300" height="2200" fill="white"/>
</clipPath>
</defs>
</svg>
