<svg xmlns="http://www.w3.org/2000/svg" width="3300" height="2200" fill="none"><path fill="#E5E5E5" d="M0 0h3300v2200H0z"/><g id="Category / Solid / Multibonus" clip-path="url(#clip0_0_1)"><g id="Notes"><path id="artboard" fill="#fff" d="M3300 0H0v2200h3300V0Z"/><path id="Vector" stroke="#000" stroke-width=".5" d="M263 292h2773"/><text xml:space="preserve" id="Weight/Scale Variations" fill="#000" font-family="Roboto" font-size="12" letter-spacing="0em" style="white-space:pre"><tspan x="263" y="321.102">Weight/Scale Variations</tspan></text><text xml:space="preserve" id="Ultralight" fill="#000" font-family="Roboto" font-size="12" letter-spacing="0em" style="white-space:pre"><tspan x="535.211" y="321.102">Ultralight</tspan></text><text xml:space="preserve" id="Thin" fill="#000" font-family="Roboto" font-size="12" letter-spacing="0em" style="white-space:pre"><tspan x="844.422" y="321.102">Thin</tspan></text><text xml:space="preserve" id="Light" fill="#000" font-family="Roboto" font-size="12" letter-spacing="0em" style="white-space:pre"><tspan x="1139.63" y="321.102">Light</tspan></text><text xml:space="preserve" id="Regular" fill="#000" font-family="Roboto" font-size="12" letter-spacing="0em" style="white-space:pre"><tspan x="1429.34" y="321.102">Regular</tspan></text><text xml:space="preserve" id="Medium" fill="#000" font-family="Roboto" font-size="12" letter-spacing="0em" style="white-space:pre"><tspan x="1724.56" y="321.102">Medium</tspan></text><text xml:space="preserve" id="Semibold" fill="#000" font-family="Roboto" font-size="12" letter-spacing="0em" style="white-space:pre"><tspan x="2017.77" y="321.102">Semibold</tspan></text><text xml:space="preserve" id="Bold" fill="#000" font-family="Roboto" font-size="12" letter-spacing="0em" style="white-space:pre"><tspan x="2327.48" y="321.102">Bold</tspan></text><text xml:space="preserve" id="Heavy" fill="#000" font-family="Roboto" font-size="12" letter-spacing="0em" style="white-space:pre"><tspan x="2620.19" y="321.102">Heavy</tspan></text><text xml:space="preserve" id="Black" fill="#000" font-family="Roboto" font-size="12" letter-spacing="0em" style="white-space:pre"><tspan x="2918.4" y="321.102">Black</tspan></text><path id="Vector_2" stroke="#000" stroke-width=".5" d="M263 1903h2773"/><g id="Group"><path id="Vector_3" fill="#000" d="M272.248 1933.83c4.307 0 7.891-3.57 7.891-7.88 0-4.31-3.594-7.88-7.901-7.88-4.297 0-7.871 3.57-7.871 7.88 0 4.31 3.584 7.88 7.881 7.88Zm0-1.48c-3.545 0-6.377-2.84-6.377-6.4 0-3.55 2.822-6.4 6.367-6.4a6.388 6.388 0 0 1 6.406 6.4 6.361 6.361 0 0 1-6.396 6.4Zm-.019-2.78c.468 0 .742-.31.742-.83v-2.06h2.226c.498 0 .84-.25.84-.72 0-.48-.322-.74-.84-.74h-2.226v-2.23c0-.52-.274-.84-.742-.84-.469 0-.723.34-.723.84v2.23h-2.207c-.518 0-.85.26-.85.74 0 .47.352.72.85.72h2.207v2.06c0 .5.254.83.723.83Z"/></g><g id="Group_2"><path id="Vector_4" fill="#000" d="M293.215 1935.91c5.449 0 9.961-4.51 9.961-9.96 0-5.44-4.522-9.96-9.971-9.96-5.439 0-9.951 4.52-9.951 9.96 0 5.45 4.521 9.96 9.961 9.96Zm0-1.66a8.26 8.26 0 0 1-8.291-8.3c0-4.6 3.672-8.3 8.281-8.3a8.29 8.29 0 0 1 8.311 8.3 8.263 8.263 0 0 1-8.301 8.3Zm-.02-3.66c.518 0 .83-.36.83-.93v-2.89h3.057c.547 0 .928-.28.928-.8 0-.53-.362-.83-.928-.83h-3.057v-3.07c0-.57-.312-.93-.83-.93-.517 0-.81.38-.81.93v3.07h-3.047c-.567 0-.938.3-.938.83 0 .52.391.8.938.8h3.047v2.89c0 .55.293.93.81.93Z"/></g><g id="Group_3"><path id="Vector_5" fill="#000" d="M319.895 1938.67c6.962 0 12.724-5.75 12.724-12.71 0-6.97-5.771-12.72-12.734-12.72-6.953 0-12.705 5.75-12.705 12.72 0 6.96 5.761 12.71 12.715 12.71Zm0-1.81a10.874 10.874 0 0 1-10.889-10.9c0-6.04 4.844-10.9 10.879-10.9 6.045 0 10.898 4.86 10.908 10.9a10.87 10.87 0 0 1-10.898 10.9Zm-.02-4.93c.566 0 .918-.39.918-.99v-4.07h4.238c.586 0 1.006-.34 1.006-.89 0-.58-.39-.92-1.006-.92h-4.238v-4.25c0-.61-.352-1.01-.918-1.01-.566 0-.889.41-.889 1.01v4.25h-4.228c-.615 0-1.026.34-1.026.92 0 .55.43.89 1.026.89h4.228v4.07c0 .58.323.99.889.99Z"/></g><text xml:space="preserve" id="Design Variations" fill="#000" font-family="Roboto" font-size="12" letter-spacing="0em" style="white-space:pre"><tspan x="263" y="1952.1">Design Variations</tspan></text><text xml:space="preserve" id="Symbols are supported in up to nine weights and three scales." fill="#000" font-family="Roboto" font-size="12" letter-spacing="0em" style="white-space:pre"><tspan x="263" y="1970.1">Symbols are supported in up to nine weights and three scales.</tspan></text><text xml:space="preserve" id="For optimal layout with text and other symbols, vertically align" fill="#000" font-family="Roboto" font-size="12" letter-spacing="0em" style="white-space:pre"><tspan x="263" y="1988.1">For optimal layout with text and other symbols, vertically align</tspan></text><text xml:space="preserve" id="symbols with the adjacent text." fill="#000" font-family="Roboto" font-size="12" letter-spacing="0em" style="white-space:pre"><tspan x="263" y="2006.1">symbols with the adjacent text.</tspan></text><path id="Vector_6" fill="#00AEEF" d="M779 1919h-3v14h3v-14Z" opacity=".4"/><g id="Group_4"><path id="Vector_7" fill="#000" d="M789.527 1933h1.846l-5.195-14.09h-1.739l-5.195 14.09h1.846l1.416-4.04h5.605l1.416 4.04Zm-4.248-11.96h.059l2.256 6.43h-4.571l2.256-6.43Z"/></g><path id="Vector_8" fill="#00AEEF" d="M794.617 1919h-3v14h3v-14Z" opacity=".4"/><text xml:space="preserve" id="Margins" fill="#000" font-family="Roboto" font-size="12" letter-spacing="0em" style="white-space:pre"><tspan x="776" y="1952.1">Margins</tspan></text><text xml:space="preserve" id="Leading and trailing margins on the left and right side of each symbol" fill="#000" font-family="Roboto" font-size="12" letter-spacing="0em" style="white-space:pre"><tspan x="776" y="1970.1">Leading and trailing margins on the left and right side of each symbol</tspan></text><text xml:space="preserve" id="can be adjusted by modifying the width of the blue rectangles." fill="#000" font-family="Roboto" font-size="12" letter-spacing="0em" style="white-space:pre"><tspan x="776" y="1988.1">can be adjusted by modifying the width of the blue rectangles.</tspan></text><text xml:space="preserve" id="Modifications are automatically applied proportionally to all" fill="#000" font-family="Roboto" font-size="12" letter-spacing="0em" style="white-space:pre"><tspan x="776" y="2006.1">Modifications are automatically applied proportionally to all</tspan></text><text xml:space="preserve" id="scales and weights." fill="#000" font-family="Roboto" font-size="12" letter-spacing="0em" style="white-space:pre"><tspan x="776" y="2024.1">scales and weights.</tspan></text><g id="Group_5"><path id="Vector_9" fill="#000" d="m1291.83 1936.11 1.54 1.55c.85.83 1.82.76 2.69-.2l10.21-11.12c.43.29.83.28 1.29.18l1.05-.21.69.69-.05.52c-.06.53.1.95.6 1.45l.81.81c.51.5 1.16.53 1.64.05l3.25-3.25c.48-.48.46-1.13-.05-1.64l-.82-.82c-.49-.5-.91-.67-1.44-.59l-.53.05-.65-.66.28-1.14c.15-.57 0-1.04-.63-1.64l-2.41-2.39c-3.54-3.53-8.07-3.42-11.19-.29-.42.43-.47 1.02-.19 1.45.23.37.71.59 1.35.43 1.52-.38 3.03-.27 4.51.74l-.62 1.58c-.23.59-.22 1.07.02 1.5l-11.16 10.28c-.94.87-1.05 1.81-.19 2.67Zm7.84-18.26c2.67-1.99 5.98-1.68 8.38.73l2.63 2.61c.23.24.26.42.2.72l-.38 1.56 1.58 1.57.96-.09c.29-.03.37-.01.6.22l.62.62-2.75 2.75-.63-.62c-.22-.22-.24-.32-.21-.6l.09-.96-1.57-1.56-1.62.31c-.28.06-.43.06-.66-.19l-2.18-2.17c-.22-.24-.25-.38-.12-.7l.94-2.27c-1.6-1.54-3.71-2.39-5.75-1.73-.09.03-.16.01-.19-.03-.02-.05-.02-.1.06-.17Zm-6.57 17.56c-.49-.5-.31-.8.02-1.1l10.96-10.12 1.23 1.23-10.16 10.93c-.3.33-.68.43-1.08.03l-.97-.97Z"/></g><text xml:space="preserve" id="Exporting" fill="#000" font-family="Roboto" font-size="12" letter-spacing="0em" style="white-space:pre"><tspan x="1289" y="1952.1">Exporting</tspan></text><text xml:space="preserve" id="Symbols should be outlined when exporting to ensure the" fill="#000" font-family="Roboto" font-size="12" letter-spacing="0em" style="white-space:pre"><tspan x="1289" y="1970.1">Symbols should be outlined when exporting to ensure the</tspan></text><text xml:space="preserve" id="design is preserved when submitting to Xcode." fill="#000" font-family="Roboto" font-size="12" letter-spacing="0em" style="white-space:pre"><tspan x="1289" y="1988.1">design is preserved when submitting to Xcode.</tspan></text><text xml:space="preserve" id="template-version" fill="#000" font-family="Roboto" font-size="12" letter-spacing="0em" style="white-space:pre"><tspan x="2958" y="1932.1">Template v.1.0</tspan></text><text xml:space="preserve" id="Generated from pencil.circle" fill="#000" font-family="Roboto" font-size="12" letter-spacing="0em" style="white-space:pre"><tspan x="2885" y="1950.1">Generated from pencil.circle</tspan></text><text xml:space="preserve" id="Typeset at 100 points" fill="#000" font-family="Roboto" font-size="12" letter-spacing="0em" style="white-space:pre"><tspan x="2921" y="1968.1">Typeset at 100 points</tspan></text><text xml:space="preserve" id="Small" fill="#000" font-family="Roboto" font-size="12" letter-spacing="0em" style="white-space:pre"><tspan x="263" y="725.102">Small</tspan></text><text xml:space="preserve" id="Medium_2" fill="#000" font-family="Roboto" font-size="12" letter-spacing="0em" style="white-space:pre"><tspan x="263" y="1155.1">Medium</tspan></text><text xml:space="preserve" id="Large" fill="#000" font-family="Roboto" font-size="12" letter-spacing="0em" style="white-space:pre"><tspan x="263" y="1585.1">Large</tspan></text></g><g id="Guides"><g id="H-reference"><path id="Vector_10" fill="#27AAE1" d="M393.932 695.998h2.734l-27.1-70.459h-2.49l-27.099 70.459h2.685l9.278-24.463h32.763l9.229 24.463Zm-25.733-67.09h.244l15.381 40.381h-31.006l15.381-40.381Z"/></g><path id="Baseline-S" stroke="#27AAE1" stroke-width=".577" d="M263 696h2773"/><path id="Capline-S" stroke="#27AAE1" stroke-width=".577" d="M263 626h2773"/><g id="H-reference_2"><path id="Vector_11" fill="#27AAE1" d="M393.932 1126h2.734l-27.1-70.46h-2.49L339.977 1126h2.685l9.278-24.46h32.763l9.229 24.46Zm-25.733-67.09h.244l15.381 40.38h-31.006l15.381-40.38Z"/></g><path id="Baseline-M" stroke="#27AAE1" stroke-width=".577" d="M263 1126h2773"/><path id="Capline-M" stroke="#27AAE1" stroke-width=".577" d="M263 1056h2773"/><g id="H-reference_3"><path id="Vector_12" fill="#27AAE1" d="M393.932 1556h2.734l-27.1-70.46h-2.49L339.977 1556h2.685l9.278-24.46h32.763l9.229 24.46Zm-25.733-67.09h.244l15.381 40.38h-31.006l15.381-40.38Z"/></g><g id="Group 1" stroke="#27AAE1" stroke-width=".577"><path id="Baseline-L" d="M263 1556h2773"/><path id="Capline-L" d="M263 1486h2773"/></g><path id="left-margin" fill="#00AEEF" d="M1402.04 1030.79h-8.74v119.33h8.74v-119.33Z" opacity=".4"/><path id="right-margin" fill="#00AEEF" d="M1505.39 1030.79h-8.74v119.33h8.74v-119.33Z" opacity=".4"/></g><g id="Symbols"><g id="Black-L"><g id="Solid / Multibonus Solid"><path id="Shape" fill="#000" fill-rule="evenodd" d="M2890.74 1478.6c-2.13-3.81-2.96-8.39-1.96-13.09l.13-.63a17.73 17.73 0 0 1 11.95-13.2c10.91-3.49 22.19.95 28.14 9.72 5.95-8.77 17.23-13.21 28.14-9.72a17.73 17.73 0 0 1 11.95 13.2l.13.63c1 4.7.17 9.28-1.96 13.09 12.07.4 21.74 10.31 21.74 22.49v57.42c0 12.43-10.07 22.5-22.5 22.5h-75c-12.43 0-22.5-10.07-22.5-22.5V1501.09c0-12.17 9.66-22.09 21.74-22.49Zm43.89-5.29-.71 5.22v.01h16.86c5.79 0 10.11-5.33 8.9-11l-.13-.63c-.6-2.8-2.65-5.07-5.38-5.95-8.94-2.85-18.29 3.05-19.54 12.35Zm-11.26 0 .71 5.22v.01h-16.86c-5.79 0-10.11-5.33-8.91-11l.14-.63c.6-2.8 2.65-5.07 5.38-5.95 8.93-2.85 18.28 3.05 19.54 12.35Zm-14.99 31.95c1.83-.76 3.92-.34 5.32 1.05l15.3 15.31 15.3-15.31a4.881 4.881 0 0 1 5.32-1.05c1.82.75 3 2.53 3 4.5v37.5a4.87 4.87 0 0 1-4.87 4.87c-2.69 0-4.88-2.18-4.88-4.87v-25.73l-10.42 10.43a4.889 4.889 0 0 1-6.9 0l-10.43-10.43v25.73a4.87 4.87 0 0 1-4.87 4.87c-2.69 0-4.88-2.18-4.88-4.87v-37.5a4.87 4.87 0 0 1 3.01-4.5Z" clip-rule="evenodd"/></g></g><g id="Heavy-L"><g id="Solid / Multibonus Solid_2"><path id="Shape_2" fill="#000" fill-rule="evenodd" d="M2594.74 1478.6c-2.13-3.81-2.96-8.39-1.96-13.09l.13-.63a17.73 17.73 0 0 1 11.95-13.2c10.91-3.49 22.19.95 28.14 9.72 5.95-8.77 17.23-13.21 28.14-9.72a17.73 17.73 0 0 1 11.95 13.2l.13.63c1 4.7.17 9.28-1.96 13.09 12.07.4 21.74 10.31 21.74 22.49v57.42c0 12.43-10.07 22.5-22.5 22.5h-75c-12.43 0-22.5-10.07-22.5-22.5V1501.09c0-12.17 9.66-22.09 21.74-22.49Zm43.89-5.29-.71 5.22v.01h16.86c5.79 0 10.11-5.33 8.9-11l-.13-.63c-.6-2.8-2.65-5.07-5.38-5.95-8.94-2.85-18.29 3.05-19.54 12.35Zm-11.26 0 .71 5.22v.01h-16.86c-5.79 0-10.11-5.33-8.91-11l.14-.63c.6-2.8 2.65-5.07 5.38-5.95 8.93-2.85 18.28 3.05 19.54 12.35Zm-14.99 31.95c1.83-.76 3.92-.34 5.32 1.05l15.3 15.31 15.3-15.31a4.881 4.881 0 0 1 5.32-1.05c1.82.75 3 2.53 3 4.5v37.5a4.87 4.87 0 0 1-4.87 4.87c-2.69 0-4.88-2.18-4.88-4.87v-25.73l-10.42 10.43a4.889 4.889 0 0 1-6.9 0l-10.43-10.43v25.73a4.87 4.87 0 0 1-4.87 4.87c-2.69 0-4.88-2.18-4.88-4.87v-37.5a4.87 4.87 0 0 1 3.01-4.5Z" clip-rule="evenodd"/></g></g><g id="Bold-L"><g id="Solid / Multibonus Solid_3"><path id="Shape_3" fill="#000" fill-rule="evenodd" d="M2298.74 1478.6c-2.13-3.81-2.96-8.39-1.96-13.09l.13-.63a17.73 17.73 0 0 1 11.95-13.2c10.91-3.49 22.19.95 28.14 9.72 5.95-8.77 17.23-13.21 28.14-9.72a17.73 17.73 0 0 1 11.95 13.2l.13.63c1 4.7.17 9.28-1.96 13.09 12.07.4 21.74 10.31 21.74 22.49v57.42c0 12.43-10.07 22.5-22.5 22.5h-75c-12.43 0-22.5-10.07-22.5-22.5V1501.09c0-12.17 9.66-22.09 21.74-22.49Zm43.89-5.29-.71 5.22v.01h16.86c5.79 0 10.11-5.33 8.9-11l-.13-.63c-.6-2.8-2.65-5.07-5.38-5.95-8.94-2.85-18.29 3.05-19.54 12.35Zm-11.26 0 .71 5.22v.01h-16.86c-5.79 0-10.11-5.33-8.91-11l.14-.63c.6-2.8 2.65-5.07 5.38-5.95 8.93-2.85 18.28 3.05 19.54 12.35Zm-14.99 31.95c1.83-.76 3.92-.34 5.32 1.05l15.3 15.31 15.3-15.31a4.881 4.881 0 0 1 5.32-1.05c1.82.75 3 2.53 3 4.5v37.5a4.87 4.87 0 0 1-4.87 4.87c-2.69 0-4.88-2.18-4.88-4.87v-25.73l-10.42 10.43a4.889 4.889 0 0 1-6.9 0l-10.43-10.43v25.73a4.87 4.87 0 0 1-4.87 4.87c-2.69 0-4.88-2.18-4.88-4.87v-37.5a4.87 4.87 0 0 1 3.01-4.5Z" clip-rule="evenodd"/></g></g><g id="Semibold-L"><g id="Solid / Multibonus Solid_4"><path id="Shape_4" fill="#000" fill-rule="evenodd" d="M2002.74 1478.6c-2.13-3.81-2.96-8.39-1.96-13.09l.13-.63a17.73 17.73 0 0 1 11.95-13.2c10.91-3.49 22.19.95 28.14 9.72 5.95-8.77 17.23-13.21 28.14-9.72a17.73 17.73 0 0 1 11.95 13.2l.13.63c1 4.7.17 9.28-1.96 13.09 12.07.4 21.74 10.31 21.74 22.49v57.42c0 12.43-10.07 22.5-22.5 22.5h-75c-12.43 0-22.5-10.07-22.5-22.5V1501.09c0-12.17 9.66-22.09 21.74-22.49Zm43.89-5.29-.71 5.22v.01h16.86c5.79 0 10.11-5.33 8.9-11l-.13-.63c-.6-2.8-2.65-5.07-5.38-5.95-8.94-2.85-18.29 3.05-19.54 12.35Zm-11.26 0 .71 5.22v.01h-16.86c-5.79 0-10.11-5.33-8.91-11l.14-.63c.6-2.8 2.65-5.07 5.38-5.95 8.93-2.85 18.28 3.05 19.54 12.35Zm-14.99 31.95c1.83-.76 3.92-.34 5.32 1.05l15.3 15.31 15.3-15.31a4.881 4.881 0 0 1 5.32-1.05c1.82.75 3 2.53 3 4.5v37.5a4.87 4.87 0 0 1-4.87 4.87c-2.69 0-4.88-2.18-4.88-4.87v-25.73l-10.42 10.43a4.889 4.889 0 0 1-6.9 0l-10.43-10.43v25.73a4.87 4.87 0 0 1-4.87 4.87c-2.69 0-4.88-2.18-4.88-4.87v-37.5a4.87 4.87 0 0 1 3.01-4.5Z" clip-rule="evenodd"/></g></g><g id="Medium-L"><g id="Solid / Multibonus Solid_5"><path id="Shape_5" fill="#000" fill-rule="evenodd" d="M1706.74 1478.6c-2.13-3.81-2.96-8.39-1.96-13.09l.13-.63a17.73 17.73 0 0 1 11.95-13.2c10.91-3.49 22.19.95 28.14 9.72 5.95-8.77 17.23-13.21 28.14-9.72a17.73 17.73 0 0 1 11.95 13.2l.13.63c1 4.7.17 9.28-1.96 13.09 12.07.4 21.74 10.31 21.74 22.49v57.42c0 12.43-10.07 22.5-22.5 22.5h-75c-12.43 0-22.5-10.07-22.5-22.5V1501.09c0-12.17 9.66-22.09 21.74-22.49Zm43.89-5.29-.71 5.22v.01h16.86c5.79 0 10.11-5.33 8.9-11l-.13-.63c-.6-2.8-2.65-5.07-5.38-5.95-8.94-2.85-18.29 3.05-19.54 12.35Zm-11.26 0 .71 5.22v.01h-16.86c-5.79 0-10.11-5.33-8.91-11l.14-.63c.6-2.8 2.65-5.07 5.38-5.95 8.93-2.85 18.28 3.05 19.54 12.35Zm-14.99 31.95c1.83-.76 3.92-.34 5.32 1.05l15.3 15.31 15.3-15.31a4.881 4.881 0 0 1 5.32-1.05c1.82.75 3 2.53 3 4.5v37.5a4.87 4.87 0 0 1-4.87 4.87c-2.69 0-4.88-2.18-4.88-4.87v-25.73l-10.42 10.43a4.889 4.889 0 0 1-6.9 0l-10.43-10.43v25.73a4.87 4.87 0 0 1-4.87 4.87c-2.69 0-4.88-2.18-4.88-4.87v-37.5a4.87 4.87 0 0 1 3.01-4.5Z" clip-rule="evenodd"/></g></g><g id="Regular-L"><g id="Solid / Multibonus Solid_6"><path id="Shape_6" fill="#000" fill-rule="evenodd" d="M1410.74 1478.6c-2.13-3.81-2.96-8.39-1.96-13.09l.13-.63a17.73 17.73 0 0 1 11.95-13.2c10.91-3.49 22.19.95 28.14 9.72 5.95-8.77 17.23-13.21 28.14-9.72a17.73 17.73 0 0 1 11.95 13.2l.13.63c1 4.7.17 9.28-1.96 13.09 12.07.4 21.74 10.31 21.74 22.49v57.42c0 12.43-10.07 22.5-22.5 22.5h-75c-12.43 0-22.5-10.07-22.5-22.5V1501.09c0-12.17 9.66-22.09 21.74-22.49Zm43.89-5.29-.71 5.22v.01h16.86c5.79 0 10.11-5.33 8.9-11l-.13-.63c-.6-2.8-2.65-5.07-5.38-5.95-8.94-2.85-18.29 3.05-19.54 12.35Zm-11.26 0 .71 5.22v.01h-16.86c-5.79 0-10.11-5.33-8.91-11l.14-.63c.6-2.8 2.65-5.07 5.38-5.95 8.93-2.85 18.28 3.05 19.54 12.35Zm-14.99 31.95c1.83-.76 3.92-.34 5.32 1.05l15.3 15.31 15.3-15.31a4.881 4.881 0 0 1 5.32-1.05c1.82.75 3 2.53 3 4.5v37.5a4.87 4.87 0 0 1-4.87 4.87c-2.69 0-4.88-2.18-4.88-4.87v-25.73l-10.42 10.43a4.889 4.889 0 0 1-6.9 0l-10.43-10.43v25.73a4.87 4.87 0 0 1-4.87 4.87c-2.69 0-4.88-2.18-4.88-4.87v-37.5a4.87 4.87 0 0 1 3.01-4.5Z" clip-rule="evenodd"/></g></g><g id="Light-L"><g id="Solid / Multibonus Solid_7"><path id="Shape_7" fill="#000" fill-rule="evenodd" d="M1114.74 1478.6c-2.13-3.81-2.96-8.39-1.96-13.09l.13-.63a17.73 17.73 0 0 1 11.95-13.2c10.91-3.49 22.19.95 28.14 9.72 5.95-8.77 17.23-13.21 28.14-9.72a17.73 17.73 0 0 1 11.95 13.2l.13.63c1 4.7.17 9.28-1.96 13.09 12.07.4 21.74 10.31 21.74 22.49v57.42c0 12.43-10.07 22.5-22.5 22.5h-75c-12.43 0-22.5-10.07-22.5-22.5V1501.09c0-12.17 9.66-22.09 21.74-22.49Zm43.89-5.29-.71 5.22v.01h16.86c5.79 0 10.11-5.33 8.9-11l-.13-.63c-.6-2.8-2.65-5.07-5.38-5.95-8.94-2.85-18.29 3.05-19.54 12.35Zm-11.26 0 .71 5.22v.01h-16.86c-5.79 0-10.11-5.33-8.91-11l.14-.63c.6-2.8 2.65-5.07 5.38-5.95 8.93-2.85 18.28 3.05 19.54 12.35Zm-14.99 31.95c1.83-.76 3.92-.34 5.32 1.05l15.3 15.31 15.3-15.31a4.881 4.881 0 0 1 5.32-1.05c1.82.75 3 2.53 3 4.5v37.5a4.87 4.87 0 0 1-4.87 4.87c-2.69 0-4.88-2.18-4.88-4.87v-25.73l-10.42 10.43a4.889 4.889 0 0 1-6.9 0l-10.43-10.43v25.73a4.87 4.87 0 0 1-4.87 4.87c-2.69 0-4.88-2.18-4.88-4.87v-37.5a4.87 4.87 0 0 1 3.01-4.5Z" clip-rule="evenodd"/></g></g><g id="Thin-L"><g id="Solid / Multibonus Solid_8"><path id="Shape_8" fill="#000" fill-rule="evenodd" d="M818.739 1478.6a18.712 18.712 0 0 1-1.961-13.09l.134-.63a17.714 17.714 0 0 1 11.949-13.2c10.908-3.49 22.189.95 28.138 9.72 5.948-8.77 17.23-13.21 28.137-9.72a17.712 17.712 0 0 1 11.949 13.2l.135.63c.998 4.7.165 9.28-1.961 13.09 12.075.4 21.741 10.31 21.741 22.49v57.42c0 12.43-10.074 22.5-22.5 22.5h-75c-12.426 0-22.5-10.07-22.5-22.5V1501.09c0-12.17 9.665-22.09 21.739-22.49Zm43.886-5.29-.707 5.22.002.01h16.859c5.79 0 10.109-5.33 8.904-11l-.134-.63a8.013 8.013 0 0 0-5.382-5.95c-8.935-2.85-18.282 3.05-19.542 12.35Zm-11.253 0 .707 5.22-.002.01h-16.859c-5.79 0-10.108-5.33-8.904-11l.135-.63a8.01 8.01 0 0 1 5.381-5.95c8.935-2.85 18.283 3.05 19.542 12.35Zm-14.988 31.95a4.87 4.87 0 0 1 5.313 1.05L857 1521.62l15.303-15.31a4.87 4.87 0 0 1 5.312-1.05 4.867 4.867 0 0 1 3.01 4.5v37.5c0 2.69-2.183 4.87-4.875 4.87a4.872 4.872 0 0 1-4.875-4.87v-25.73l-10.428 10.43a4.882 4.882 0 0 1-6.894 0l-10.428-10.43v25.73c0 2.69-2.183 4.87-4.875 4.87a4.872 4.872 0 0 1-4.875-4.87v-37.5c0-1.97 1.188-3.75 3.009-4.5Z" clip-rule="evenodd"/></g></g><g id="Ultralight-L"><g id="Solid / Multibonus Solid_9"><path id="Shape_9" fill="#000" fill-rule="evenodd" d="M522.739 1478.6a18.712 18.712 0 0 1-1.961-13.09l.134-.63a17.714 17.714 0 0 1 11.949-13.2c10.908-3.49 22.189.95 28.138 9.72 5.948-8.77 17.23-13.21 28.137-9.72a17.712 17.712 0 0 1 11.949 13.2l.135.63c.998 4.7.165 9.28-1.961 13.09 12.075.4 21.741 10.31 21.741 22.49v57.42c0 12.43-10.074 22.5-22.5 22.5h-75c-12.426 0-22.5-10.07-22.5-22.5V1501.09c0-12.17 9.665-22.09 21.739-22.49Zm43.886-5.29-.707 5.22.002.01h16.859c5.79 0 10.109-5.33 8.904-11l-.134-.63a8.013 8.013 0 0 0-5.382-5.95c-8.935-2.85-18.282 3.05-19.542 12.35Zm-11.253 0 .707 5.22-.002.01h-16.859c-5.79 0-10.108-5.33-8.904-11l.135-.63a8.01 8.01 0 0 1 5.381-5.95c8.935-2.85 18.283 3.05 19.542 12.35Zm-14.988 31.95a4.87 4.87 0 0 1 5.313 1.05L561 1521.62l15.303-15.31a4.87 4.87 0 0 1 5.312-1.05 4.867 4.867 0 0 1 3.01 4.5v37.5c0 2.69-2.183 4.87-4.875 4.87a4.872 4.872 0 0 1-4.875-4.87v-25.73l-10.428 10.43a4.882 4.882 0 0 1-6.894 0l-10.428-10.43v25.73c0 2.69-2.183 4.87-4.875 4.87a4.872 4.872 0 0 1-4.875-4.87v-37.5c0-1.97 1.188-3.75 3.009-4.5Z" clip-rule="evenodd"/></g></g><g id="Black-M"><g id="Solid / Multibonus Solid_10"><path id="Shape_10" fill="#000" fill-rule="evenodd" d="M2899.24 1058.02c-1.65-2.96-2.3-6.53-1.52-10.18l.1-.49c1.03-4.84 4.58-8.76 9.29-10.27 8.49-2.71 17.26.74 21.89 7.56 4.63-6.82 13.4-10.27 21.88-7.56 4.72 1.51 8.27 5.43 9.3 10.27l.1.49c.78 3.65.13 7.22-1.52 10.18 9.39.31 16.91 8.02 16.91 17.49v44.66c0 9.67-7.84 17.5-17.5 17.5h-58.34c-9.66 0-17.5-7.83-17.5-17.5v-44.66c0-9.47 7.52-17.18 16.91-17.49Zm34.14-4.12-.55 4.06v.01h13.11c4.5 0 7.86-4.15 6.93-8.55l-.11-.49a6.217 6.217 0 0 0-4.18-4.63c-6.95-2.22-14.22 2.37-15.2 9.6Zm-8.76 0 .55 4.06v.01h-13.11c-4.5 0-7.86-4.15-6.93-8.55l.11-.49a6.217 6.217 0 0 1 4.18-4.63c6.95-2.22 14.22 2.37 15.2 9.6Zm-11.65 24.85c1.41-.58 3.04-.26 4.13.82l11.9 11.91 11.9-11.91a3.813 3.813 0 0 1 4.13-.82c1.42.59 2.35 1.97 2.35 3.51v29.16c0 2.1-1.7 3.79-3.8 3.79-2.09 0-3.79-1.69-3.79-3.79v-20.01l-8.11 8.11a3.79 3.79 0 0 1-5.36 0l-8.11-8.11v20.01c0 2.1-1.7 3.79-3.79 3.79-2.1 0-3.79-1.69-3.79-3.79v-29.16c0-1.54.92-2.92 2.34-3.51Z" clip-rule="evenodd"/></g></g><g id="Heavy-M"><g id="Solid / Multibonus Solid_11"><path id="Shape_11" fill="#000" fill-rule="evenodd" d="M2603.24 1058.02c-1.65-2.96-2.3-6.53-1.52-10.18l.1-.49c1.03-4.84 4.58-8.76 9.29-10.27 8.49-2.71 17.26.74 21.89 7.56 4.63-6.82 13.4-10.27 21.88-7.56 4.72 1.51 8.27 5.43 9.3 10.27l.1.49c.78 3.65.13 7.22-1.52 10.18 9.39.31 16.91 8.02 16.91 17.49v44.66c0 9.67-7.84 17.5-17.5 17.5h-58.34c-9.66 0-17.5-7.83-17.5-17.5v-44.66c0-9.47 7.52-17.18 16.91-17.49Zm34.14-4.12-.55 4.06v.01h13.11c4.5 0 7.86-4.15 6.93-8.55l-.11-.49a6.217 6.217 0 0 0-4.18-4.63c-6.95-2.22-14.22 2.37-15.2 9.6Zm-8.76 0 .55 4.06v.01h-13.11c-4.5 0-7.86-4.15-6.93-8.55l.11-.49a6.217 6.217 0 0 1 4.18-4.63c6.95-2.22 14.22 2.37 15.2 9.6Zm-11.65 24.85c1.41-.58 3.04-.26 4.13.82l11.9 11.91 11.9-11.91a3.813 3.813 0 0 1 4.13-.82c1.42.59 2.35 1.97 2.35 3.51v29.16c0 2.1-1.7 3.79-3.8 3.79-2.09 0-3.79-1.69-3.79-3.79v-20.01l-8.11 8.11a3.79 3.79 0 0 1-5.36 0l-8.11-8.11v20.01c0 2.1-1.7 3.79-3.79 3.79-2.1 0-3.79-1.69-3.79-3.79v-29.16c0-1.54.92-2.92 2.34-3.51Z" clip-rule="evenodd"/></g></g><g id="Bold-M"><g id="Solid / Multibonus Solid_12"><path id="Shape_12" fill="#000" fill-rule="evenodd" d="M2307.24 1058.02c-1.65-2.96-2.3-6.53-1.52-10.18l.1-.49c1.03-4.84 4.58-8.76 9.29-10.27 8.49-2.71 17.26.74 21.89 7.56 4.63-6.82 13.4-10.27 21.88-7.56 4.72 1.51 8.27 5.43 9.3 10.27l.1.49c.78 3.65.13 7.22-1.52 10.18 9.39.31 16.91 8.02 16.91 17.49v44.66c0 9.67-7.84 17.5-17.5 17.5h-58.34c-9.66 0-17.5-7.83-17.5-17.5v-44.66c0-9.47 7.52-17.18 16.91-17.49Zm34.14-4.12-.55 4.06v.01h13.11c4.5 0 7.86-4.15 6.93-8.55l-.11-.49a6.217 6.217 0 0 0-4.18-4.63c-6.95-2.22-14.22 2.37-15.2 9.6Zm-8.76 0 .55 4.06v.01h-13.11c-4.5 0-7.86-4.15-6.93-8.55l.11-.49a6.217 6.217 0 0 1 4.18-4.63c6.95-2.22 14.22 2.37 15.2 9.6Zm-11.65 24.85c1.41-.58 3.04-.26 4.13.82l11.9 11.91 11.9-11.91a3.813 3.813 0 0 1 4.13-.82c1.42.59 2.35 1.97 2.35 3.51v29.16c0 2.1-1.7 3.79-3.8 3.79-2.09 0-3.79-1.69-3.79-3.79v-20.01l-8.11 8.11a3.79 3.79 0 0 1-5.36 0l-8.11-8.11v20.01c0 2.1-1.7 3.79-3.79 3.79-2.1 0-3.79-1.69-3.79-3.79v-29.16c0-1.54.92-2.92 2.34-3.51Z" clip-rule="evenodd"/></g></g><g id="Semibold-M"><g id="Solid / Multibonus Solid_13"><path id="Shape_13" fill="#000" fill-rule="evenodd" d="M2011.24 1058.02c-1.65-2.96-2.3-6.53-1.52-10.18l.1-.49c1.03-4.84 4.58-8.76 9.29-10.27 8.49-2.71 17.26.74 21.89 7.56 4.63-6.82 13.4-10.27 21.88-7.56 4.72 1.51 8.27 5.43 9.3 10.27l.1.49c.78 3.65.13 7.22-1.52 10.18 9.39.31 16.91 8.02 16.91 17.49v44.66c0 9.67-7.84 17.5-17.5 17.5h-58.34c-9.66 0-17.5-7.83-17.5-17.5v-44.66c0-9.47 7.52-17.18 16.91-17.49Zm34.14-4.12-.55 4.06v.01h13.11c4.5 0 7.86-4.15 6.93-8.55l-.11-.49a6.217 6.217 0 0 0-4.18-4.63c-6.95-2.22-14.22 2.37-15.2 9.6Zm-8.76 0 .55 4.06v.01h-13.11c-4.5 0-7.86-4.15-6.93-8.55l.11-.49a6.217 6.217 0 0 1 4.18-4.63c6.95-2.22 14.22 2.37 15.2 9.6Zm-11.65 24.85c1.41-.58 3.04-.26 4.13.82l11.9 11.91 11.9-11.91a3.813 3.813 0 0 1 4.13-.82c1.42.59 2.35 1.97 2.35 3.51v29.16c0 2.1-1.7 3.79-3.8 3.79-2.09 0-3.79-1.69-3.79-3.79v-20.01l-8.11 8.11a3.79 3.79 0 0 1-5.36 0l-8.11-8.11v20.01c0 2.1-1.7 3.79-3.79 3.79-2.1 0-3.79-1.69-3.79-3.79v-29.16c0-1.54.92-2.92 2.34-3.51Z" clip-rule="evenodd"/></g></g><g id="Medium-M"><g id="Solid / Multibonus Solid_14"><path id="Shape_14" fill="#000" fill-rule="evenodd" d="M1715.24 1058.02c-1.65-2.96-2.3-6.53-1.52-10.18l.1-.49c1.03-4.84 4.58-8.76 9.29-10.27 8.49-2.71 17.26.74 21.89 7.56 4.63-6.82 13.4-10.27 21.88-7.56 4.72 1.51 8.27 5.43 9.3 10.27l.1.49c.78 3.65.13 7.22-1.52 10.18 9.39.31 16.91 8.02 16.91 17.49v44.66c0 9.67-7.84 17.5-17.5 17.5h-58.34c-9.66 0-17.5-7.83-17.5-17.5v-44.66c0-9.47 7.52-17.18 16.91-17.49Zm34.14-4.12-.55 4.06v.01h13.11c4.5 0 7.86-4.15 6.93-8.55l-.11-.49a6.217 6.217 0 0 0-4.18-4.63c-6.95-2.22-14.22 2.37-15.2 9.6Zm-8.76 0 .55 4.06v.01h-13.11c-4.5 0-7.86-4.15-6.93-8.55l.11-.49a6.217 6.217 0 0 1 4.18-4.63c6.95-2.22 14.22 2.37 15.2 9.6Zm-11.65 24.85c1.41-.58 3.04-.26 4.13.82l11.9 11.91 11.9-11.91a3.813 3.813 0 0 1 4.13-.82c1.42.59 2.35 1.97 2.35 3.51v29.16c0 2.1-1.7 3.79-3.8 3.79-2.09 0-3.79-1.69-3.79-3.79v-20.01l-8.11 8.11a3.79 3.79 0 0 1-5.36 0l-8.11-8.11v20.01c0 2.1-1.7 3.79-3.79 3.79-2.1 0-3.79-1.69-3.79-3.79v-29.16c0-1.54.92-2.92 2.34-3.51Z" clip-rule="evenodd"/></g></g><g id="Regular-M"><g id="Solid / Multibonus Solid_15"><path id="Shape_15" fill="#000" fill-rule="evenodd" d="M1419.24 1058.02c-1.65-2.96-2.3-6.53-1.52-10.18l.1-.49c1.03-4.84 4.58-8.76 9.29-10.27 8.49-2.71 17.26.74 21.89 7.56 4.63-6.82 13.4-10.27 21.88-7.56 4.72 1.51 8.27 5.43 9.3 10.27l.1.49c.78 3.65.13 7.22-1.52 10.18 9.39.31 16.91 8.02 16.91 17.49v44.66c0 9.67-7.84 17.5-17.5 17.5h-58.34c-9.66 0-17.5-7.83-17.5-17.5v-44.66c0-9.47 7.52-17.18 16.91-17.49Zm34.14-4.12-.55 4.06v.01h13.11c4.5 0 7.86-4.15 6.93-8.55l-.11-.49a6.217 6.217 0 0 0-4.18-4.63c-6.95-2.22-14.22 2.37-15.2 9.6Zm-8.76 0 .55 4.06v.01h-13.11c-4.5 0-7.86-4.15-6.93-8.55l.11-.49a6.217 6.217 0 0 1 4.18-4.63c6.95-2.22 14.22 2.37 15.2 9.6Zm-11.65 24.85c1.41-.58 3.04-.26 4.13.82l11.9 11.91 11.9-11.91a3.813 3.813 0 0 1 4.13-.82c1.42.59 2.35 1.97 2.35 3.51v29.16c0 2.1-1.7 3.79-3.8 3.79-2.09 0-3.79-1.69-3.79-3.79v-20.01l-8.11 8.11a3.79 3.79 0 0 1-5.36 0l-8.11-8.11v20.01c0 2.1-1.7 3.79-3.79 3.79-2.1 0-3.79-1.69-3.79-3.79v-29.16c0-1.54.92-2.92 2.34-3.51Z" clip-rule="evenodd"/></g></g><g id="Light-M"><g id="Solid / Multibonus Solid_16"><path id="Shape_16" fill="#000" fill-rule="evenodd" d="M1123.24 1058.02c-1.65-2.96-2.3-6.53-1.52-10.18l.1-.49c1.03-4.84 4.58-8.76 9.29-10.27 8.49-2.71 17.26.74 21.89 7.56 4.63-6.82 13.4-10.27 21.88-7.56 4.72 1.51 8.27 5.43 9.3 10.27l.1.49c.78 3.65.13 7.22-1.52 10.18 9.39.31 16.91 8.02 16.91 17.49v44.66c0 9.67-7.84 17.5-17.5 17.5h-58.34c-9.66 0-17.5-7.83-17.5-17.5v-44.66c0-9.47 7.52-17.18 16.91-17.49Zm34.14-4.12-.55 4.06v.01h13.11c4.5 0 7.86-4.15 6.93-8.55l-.11-.49a6.217 6.217 0 0 0-4.18-4.63c-6.95-2.22-14.22 2.37-15.2 9.6Zm-8.76 0 .55 4.06v.01h-13.11c-4.5 0-7.86-4.15-6.93-8.55l.11-.49a6.217 6.217 0 0 1 4.18-4.63c6.95-2.22 14.22 2.37 15.2 9.6Zm-11.65 24.85c1.41-.58 3.04-.26 4.13.82l11.9 11.91 11.9-11.91a3.813 3.813 0 0 1 4.13-.82c1.42.59 2.35 1.97 2.35 3.51v29.16c0 2.1-1.7 3.79-3.8 3.79-2.09 0-3.79-1.69-3.79-3.79v-20.01l-8.11 8.11a3.79 3.79 0 0 1-5.36 0l-8.11-8.11v20.01c0 2.1-1.7 3.79-3.79 3.79-2.1 0-3.79-1.69-3.79-3.79v-29.16c0-1.54.92-2.92 2.34-3.51Z" clip-rule="evenodd"/></g></g><g id="Thin-M"><g id="Solid / Multibonus Solid_17"><path id="Shape_17" fill="#000" fill-rule="evenodd" d="M827.242 1058.02a14.554 14.554 0 0 1-1.525-10.18l.104-.49a13.804 13.804 0 0 1 9.294-10.27c8.484-2.71 17.258.74 21.885 7.56 4.626-6.82 13.401-10.27 21.884-7.56a13.804 13.804 0 0 1 9.294 10.27l.105.49c.776 3.65.128 7.22-1.525 10.18 9.391.31 16.909 8.02 16.909 17.49v44.66c0 9.67-7.835 17.5-17.5 17.5h-58.333c-9.665 0-17.5-7.83-17.5-17.5v-44.66c0-9.47 7.517-17.18 16.908-17.49Zm34.134-4.12-.55 4.06.001.01h13.113c4.503 0 7.862-4.15 6.925-8.55l-.104-.49a6.224 6.224 0 0 0-4.186-4.63c-6.949-2.22-14.22 2.37-15.199 9.6Zm-8.753 0 .55 4.06-.001.01h-13.113c-4.503 0-7.862-4.15-6.925-8.55l.105-.49a6.223 6.223 0 0 1 4.185-4.63c6.949-2.22 14.22 2.37 15.199 9.6Zm-11.657 24.85a3.811 3.811 0 0 1 4.132.82l11.903 11.91 11.902-11.91a3.811 3.811 0 0 1 4.132-.82 3.798 3.798 0 0 1 2.341 3.51v29.16c0 2.1-1.698 3.79-3.792 3.79a3.787 3.787 0 0 1-3.792-3.79v-20.01l-8.11 8.11a3.794 3.794 0 0 1-5.363 0l-8.11-8.11v20.01c0 2.1-1.698 3.79-3.792 3.79a3.786 3.786 0 0 1-3.791-3.79v-29.16c0-1.54.923-2.92 2.34-3.51Z" clip-rule="evenodd"/></g></g><g id="Ultralight-M"><g id="Solid / Multibonus Solid_18"><path id="Shape_18" fill="#000" fill-rule="evenodd" d="M531.242 1058.02a14.554 14.554 0 0 1-1.525-10.18l.104-.49a13.804 13.804 0 0 1 9.294-10.27c8.484-2.71 17.258.74 21.885 7.56 4.626-6.82 13.401-10.27 21.884-7.56a13.804 13.804 0 0 1 9.294 10.27l.105.49c.776 3.65.128 7.22-1.525 10.18 9.391.31 16.909 8.02 16.909 17.49v44.66c0 9.67-7.835 17.5-17.5 17.5h-58.333c-9.665 0-17.5-7.83-17.5-17.5v-44.66c0-9.47 7.517-17.18 16.908-17.49Zm34.134-4.12-.55 4.06.001.01h13.113c4.503 0 7.862-4.15 6.925-8.55l-.104-.49a6.224 6.224 0 0 0-4.186-4.63c-6.949-2.22-14.22 2.37-15.199 9.6Zm-8.753 0 .55 4.06-.001.01h-13.113c-4.503 0-7.862-4.15-6.925-8.55l.105-.49a6.223 6.223 0 0 1 4.185-4.63c6.949-2.22 14.22 2.37 15.199 9.6Zm-11.657 24.85a3.811 3.811 0 0 1 4.132.82l11.903 11.91 11.902-11.91a3.811 3.811 0 0 1 4.132-.82 3.798 3.798 0 0 1 2.341 3.51v29.16c0 2.1-1.698 3.79-3.792 3.79a3.787 3.787 0 0 1-3.792-3.79v-20.01l-8.11 8.11a3.794 3.794 0 0 1-5.363 0l-8.11-8.11v20.01c0 2.1-1.698 3.79-3.792 3.79a3.786 3.786 0 0 1-3.791-3.79v-29.16c0-1.54.923-2.92 2.34-3.51Z" clip-rule="evenodd"/></g></g><g id="Black-S"><g id="Solid / Multibonus Solid_19"><path id="Shape_19" fill="#000" fill-rule="evenodd" d="M2907.74 637.444a10.43 10.43 0 0 1-1.09-7.27l.08-.351a9.845 9.845 0 0 1 6.64-7.337c6.06-1.937 12.32.531 15.63 5.404 3.3-4.873 9.57-7.341 15.63-5.404a9.862 9.862 0 0 1 6.64 7.337l.07.351c.56 2.607.1 5.153-1.09 7.27 6.71.222 12.08 5.731 12.08 12.493v31.901c0 6.904-5.59 12.5-12.5 12.5h-41.66c-6.91 0-12.5-5.596-12.5-12.5V649.937c0-6.762 5.37-12.27 12.07-12.493Zm24.38-2.941-.39 2.901v.007h9.37c3.22 0 5.61-2.964 4.95-6.11l-.08-.351a4.431 4.431 0 0 0-2.99-3.304c-4.96-1.587-10.16 1.693-10.86 6.857Zm-6.25 0 .4 2.901-.01.007h-9.36c-3.22 0-5.62-2.964-4.95-6.11l.08-.351a4.431 4.431 0 0 1 2.99-3.304c4.96-1.587 10.15 1.693 10.85 6.857Zm-8.32 17.75a2.708 2.708 0 0 1 2.95.587l8.5 8.501 8.5-8.501a2.708 2.708 0 0 1 2.95-.587 2.71 2.71 0 0 1 1.67 2.502v20.833a2.705 2.705 0 1 1-5.41 0v-14.295l-5.8 5.794a2.71 2.71 0 0 1-3.83 0l-5.79-5.794v14.295a2.707 2.707 0 0 1-2.71 2.709 2.714 2.714 0 0 1-2.71-2.709v-20.833c0-1.095.66-2.083 1.68-2.502Z" clip-rule="evenodd"/></g></g><g id="Heavy-S"><g id="Solid / Multibonus Solid_20"><path id="Shape_20" fill="#000" fill-rule="evenodd" d="M2611.74 637.444a10.43 10.43 0 0 1-1.09-7.27l.08-.351a9.845 9.845 0 0 1 6.64-7.337c6.06-1.937 12.32.531 15.63 5.404 3.3-4.873 9.57-7.341 15.63-5.404a9.862 9.862 0 0 1 6.64 7.337l.07.351c.56 2.607.1 5.153-1.09 7.27 6.71.222 12.08 5.731 12.08 12.493v31.901c0 6.904-5.59 12.5-12.5 12.5h-41.66c-6.91 0-12.5-5.596-12.5-12.5V649.937c0-6.762 5.37-12.27 12.07-12.493Zm24.38-2.941-.39 2.901v.007h9.37c3.22 0 5.61-2.964 4.95-6.11l-.08-.351a4.431 4.431 0 0 0-2.99-3.304c-4.96-1.587-10.16 1.693-10.86 6.857Zm-6.25 0 .4 2.901-.01.007h-9.36c-3.22 0-5.62-2.964-4.95-6.11l.08-.351a4.431 4.431 0 0 1 2.99-3.304c4.96-1.587 10.15 1.693 10.85 6.857Zm-8.32 17.75a2.708 2.708 0 0 1 2.95.587l8.5 8.501 8.5-8.501a2.708 2.708 0 0 1 2.95-.587 2.71 2.71 0 0 1 1.67 2.502v20.833a2.705 2.705 0 1 1-5.41 0v-14.295l-5.8 5.794a2.71 2.71 0 0 1-3.83 0l-5.79-5.794v14.295a2.707 2.707 0 0 1-2.71 2.709 2.714 2.714 0 0 1-2.71-2.709v-20.833c0-1.095.66-2.083 1.68-2.502Z" clip-rule="evenodd"/></g></g><g id="Bold-S"><g id="Solid / Multibonus Solid_21"><path id="Shape_21" fill="#000" fill-rule="evenodd" d="M2315.74 637.444a10.43 10.43 0 0 1-1.09-7.27l.08-.351a9.845 9.845 0 0 1 6.64-7.337c6.06-1.937 12.32.531 15.63 5.404 3.3-4.873 9.57-7.341 15.63-5.404a9.862 9.862 0 0 1 6.64 7.337l.07.351c.56 2.607.1 5.153-1.09 7.27 6.71.222 12.08 5.731 12.08 12.493v31.901c0 6.904-5.59 12.5-12.5 12.5h-41.66c-6.91 0-12.5-5.596-12.5-12.5V649.937c0-6.762 5.37-12.27 12.07-12.493Zm24.38-2.941-.39 2.901v.007h9.37c3.22 0 5.61-2.964 4.95-6.11l-.08-.351a4.431 4.431 0 0 0-2.99-3.304c-4.96-1.587-10.16 1.693-10.86 6.857Zm-6.25 0 .4 2.901-.01.007h-9.36c-3.22 0-5.62-2.964-4.95-6.11l.08-.351a4.431 4.431 0 0 1 2.99-3.304c4.96-1.587 10.15 1.693 10.85 6.857Zm-8.32 17.75a2.708 2.708 0 0 1 2.95.587l8.5 8.501 8.5-8.501a2.708 2.708 0 0 1 2.95-.587 2.71 2.71 0 0 1 1.67 2.502v20.833a2.705 2.705 0 1 1-5.41 0v-14.295l-5.8 5.794a2.71 2.71 0 0 1-3.83 0l-5.79-5.794v14.295a2.707 2.707 0 0 1-2.71 2.709 2.714 2.714 0 0 1-2.71-2.709v-20.833c0-1.095.66-2.083 1.68-2.502Z" clip-rule="evenodd"/></g></g><g id="Semibold-S"><g id="Solid / Multibonus Solid_22"><path id="Shape_22" fill="#000" fill-rule="evenodd" d="M2019.74 637.444a10.43 10.43 0 0 1-1.09-7.27l.08-.351a9.845 9.845 0 0 1 6.64-7.337c6.06-1.937 12.32.531 15.63 5.404 3.3-4.873 9.57-7.341 15.63-5.404a9.862 9.862 0 0 1 6.64 7.337l.07.351c.56 2.607.1 5.153-1.09 7.27 6.71.222 12.08 5.731 12.08 12.493v31.901c0 6.904-5.59 12.5-12.5 12.5h-41.66c-6.91 0-12.5-5.596-12.5-12.5V649.937c0-6.762 5.37-12.27 12.07-12.493Zm24.38-2.941-.39 2.901v.007h9.37c3.22 0 5.61-2.964 4.95-6.11l-.08-.351a4.431 4.431 0 0 0-2.99-3.304c-4.96-1.587-10.16 1.693-10.86 6.857Zm-6.25 0 .4 2.901-.01.007h-9.36c-3.22 0-5.62-2.964-4.95-6.11l.08-.351a4.431 4.431 0 0 1 2.99-3.304c4.96-1.587 10.15 1.693 10.85 6.857Zm-8.32 17.75a2.708 2.708 0 0 1 2.95.587l8.5 8.501 8.5-8.501a2.708 2.708 0 0 1 2.95-.587 2.71 2.71 0 0 1 1.67 2.502v20.833a2.705 2.705 0 1 1-5.41 0v-14.295l-5.8 5.794a2.71 2.71 0 0 1-3.83 0l-5.79-5.794v14.295a2.707 2.707 0 0 1-2.71 2.709 2.714 2.714 0 0 1-2.71-2.709v-20.833c0-1.095.66-2.083 1.68-2.502Z" clip-rule="evenodd"/></g></g><g id="Medium-S"><g id="Solid / Multibonus Solid_23"><path id="Shape_23" fill="#000" fill-rule="evenodd" d="M1723.74 637.444a10.43 10.43 0 0 1-1.09-7.27l.08-.351a9.845 9.845 0 0 1 6.64-7.337c6.06-1.937 12.32.531 15.63 5.404 3.3-4.873 9.57-7.341 15.63-5.404a9.862 9.862 0 0 1 6.64 7.337l.07.351c.56 2.607.1 5.153-1.09 7.27 6.71.222 12.08 5.731 12.08 12.493v31.901c0 6.904-5.59 12.5-12.5 12.5h-41.66c-6.91 0-12.5-5.596-12.5-12.5V649.937c0-6.762 5.37-12.27 12.07-12.493Zm24.38-2.941-.39 2.901v.007h9.37c3.22 0 5.61-2.964 4.95-6.11l-.08-.351a4.431 4.431 0 0 0-2.99-3.304c-4.96-1.587-10.16 1.693-10.86 6.857Zm-6.25 0 .4 2.901-.01.007h-9.36c-3.22 0-5.62-2.964-4.95-6.11l.08-.351a4.431 4.431 0 0 1 2.99-3.304c4.96-1.587 10.15 1.693 10.85 6.857Zm-8.32 17.75a2.708 2.708 0 0 1 2.95.587l8.5 8.501 8.5-8.501a2.708 2.708 0 0 1 2.95-.587 2.71 2.71 0 0 1 1.67 2.502v20.833a2.705 2.705 0 1 1-5.41 0v-14.295l-5.8 5.794a2.71 2.71 0 0 1-3.83 0l-5.79-5.794v14.295a2.707 2.707 0 0 1-2.71 2.709 2.714 2.714 0 0 1-2.71-2.709v-20.833c0-1.095.66-2.083 1.68-2.502Z" clip-rule="evenodd"/></g></g><g id="Regular-S"><g id="Solid / Multibonus Solid_24"><path id="Shape_24" fill="#000" fill-rule="evenodd" d="M1427.74 637.444a10.43 10.43 0 0 1-1.09-7.27l.08-.351a9.845 9.845 0 0 1 6.64-7.337c6.06-1.937 12.32.531 15.63 5.404 3.3-4.873 9.57-7.341 15.63-5.404a9.862 9.862 0 0 1 6.64 7.337l.07.351c.56 2.607.1 5.153-1.09 7.27 6.71.222 12.08 5.731 12.08 12.493v31.901c0 6.904-5.59 12.5-12.5 12.5h-41.66c-6.91 0-12.5-5.596-12.5-12.5V649.937c0-6.762 5.37-12.27 12.07-12.493Zm24.38-2.941-.39 2.901v.007h9.37c3.22 0 5.61-2.964 4.95-6.11l-.08-.351a4.431 4.431 0 0 0-2.99-3.304c-4.96-1.587-10.16 1.693-10.86 6.857Zm-6.25 0 .4 2.901-.01.007h-9.36c-3.22 0-5.62-2.964-4.95-6.11l.08-.351a4.431 4.431 0 0 1 2.99-3.304c4.96-1.587 10.15 1.693 10.85 6.857Zm-8.32 17.75a2.708 2.708 0 0 1 2.95.587l8.5 8.501 8.5-8.501a2.708 2.708 0 0 1 2.95-.587 2.71 2.71 0 0 1 1.67 2.502v20.833a2.705 2.705 0 1 1-5.41 0v-14.295l-5.8 5.794a2.71 2.71 0 0 1-3.83 0l-5.79-5.794v14.295a2.707 2.707 0 0 1-2.71 2.709 2.714 2.714 0 0 1-2.71-2.709v-20.833c0-1.095.66-2.083 1.68-2.502Z" clip-rule="evenodd"/></g></g><g id="Light-S"><g id="Solid / Multibonus Solid_25"><path id="Shape_25" fill="#000" fill-rule="evenodd" d="M1131.74 637.444a10.43 10.43 0 0 1-1.09-7.27l.08-.351a9.845 9.845 0 0 1 6.64-7.337c6.06-1.937 12.32.531 15.63 5.404 3.3-4.873 9.57-7.341 15.63-5.404a9.862 9.862 0 0 1 6.64 7.337l.07.351c.56 2.607.1 5.153-1.09 7.27 6.71.222 12.08 5.731 12.08 12.493v31.901c0 6.904-5.59 12.5-12.5 12.5h-41.66c-6.91 0-12.5-5.596-12.5-12.5V649.937c0-6.762 5.37-12.27 12.07-12.493Zm24.38-2.941-.39 2.901v.007h9.37c3.22 0 5.61-2.964 4.95-6.11l-.08-.351a4.431 4.431 0 0 0-2.99-3.304c-4.96-1.587-10.16 1.693-10.86 6.857Zm-6.25 0 .4 2.901-.01.007h-9.36c-3.22 0-5.62-2.964-4.95-6.11l.08-.351a4.431 4.431 0 0 1 2.99-3.304c4.96-1.587 10.15 1.693 10.85 6.857Zm-8.32 17.75a2.708 2.708 0 0 1 2.95.587l8.5 8.501 8.5-8.501a2.708 2.708 0 0 1 2.95-.587 2.71 2.71 0 0 1 1.67 2.502v20.833a2.705 2.705 0 1 1-5.41 0v-14.295l-5.8 5.794a2.71 2.71 0 0 1-3.83 0l-5.79-5.794v14.295a2.707 2.707 0 0 1-2.71 2.709 2.714 2.714 0 0 1-2.71-2.709v-20.833c0-1.095.66-2.083 1.68-2.502Z" clip-rule="evenodd"/></g></g><g id="Thin-S"><g id="Solid / Multibonus Solid_26"><path id="Shape_26" fill="#000" fill-rule="evenodd" d="M835.743 637.444a10.397 10.397 0 0 1-1.089-7.27l.074-.351a9.856 9.856 0 0 1 6.639-7.337c6.059-1.937 12.327.531 15.632 5.404 3.304-4.873 9.572-7.341 15.632-5.404a9.855 9.855 0 0 1 6.638 7.337l.075.351a10.397 10.397 0 0 1-1.09 7.27c6.709.222 12.079 5.731 12.079 12.493v31.901c0 6.904-5.597 12.5-12.5 12.5h-41.667c-6.904 0-12.5-5.596-12.5-12.5V649.937c0-6.762 5.369-12.27 12.077-12.493Zm24.382-2.941-.393 2.901.001.007h9.366c3.216 0 5.616-2.964 4.947-6.11l-.075-.351a4.44 4.44 0 0 0-2.99-3.304c-4.964-1.587-10.157 1.693-10.856 6.857Zm-6.252 0 .393 2.901-.001.007h-9.367c-3.216 0-5.616-2.964-4.946-6.11l.074-.351a4.44 4.44 0 0 1 2.99-3.304c4.964-1.587 10.157 1.693 10.857 6.857Zm-8.327 17.75a2.709 2.709 0 0 1 2.952.587l8.501 8.501 8.502-8.501a2.707 2.707 0 0 1 4.623 1.915v20.833a2.708 2.708 0 1 1-5.416 0v-14.295l-5.794 5.794a2.71 2.71 0 0 1-3.83 0l-5.793-5.794v14.295a2.709 2.709 0 1 1-5.417 0v-20.833c0-1.095.66-2.083 1.672-2.502Z" clip-rule="evenodd"/></g></g><g id="Ultralight-S"><g id="Solid / Multibonus Solid_27"><path id="Shape_27" fill="#000" fill-rule="evenodd" d="M539.743 637.444a10.397 10.397 0 0 1-1.089-7.27l.074-.351a9.856 9.856 0 0 1 6.639-7.337c6.059-1.937 12.327.531 15.632 5.404 3.304-4.873 9.572-7.341 15.632-5.404a9.855 9.855 0 0 1 6.638 7.337l.075.351a10.397 10.397 0 0 1-1.09 7.27c6.709.222 12.079 5.731 12.079 12.493v31.901c0 6.904-5.597 12.5-12.5 12.5h-41.667c-6.904 0-12.5-5.596-12.5-12.5V649.937c0-6.762 5.369-12.27 12.077-12.493Zm24.382-2.941-.393 2.901.001.007h9.366c3.216 0 5.616-2.964 4.947-6.11l-.075-.351a4.44 4.44 0 0 0-2.99-3.304c-4.964-1.587-10.157 1.693-10.856 6.857Zm-6.252 0 .393 2.901-.001.007h-9.367c-3.216 0-5.616-2.964-4.946-6.11l.074-.351a4.44 4.44 0 0 1 2.99-3.304c4.964-1.587 10.157 1.693 10.857 6.857Zm-8.327 17.75a2.709 2.709 0 0 1 2.952.587l8.501 8.501 8.502-8.501a2.707 2.707 0 0 1 4.623 1.915v20.833a2.708 2.708 0 1 1-5.416 0v-14.295l-5.794 5.794a2.71 2.71 0 0 1-3.83 0l-5.793-5.794v14.295a2.709 2.709 0 1 1-5.417 0v-20.833c0-1.095.66-2.083 1.672-2.502Z" clip-rule="evenodd"/></g></g></g></g><defs><clipPath id="clip0_0_1"><path fill="#fff" d="M0 0h3300v2200H0z"/></clipPath></defs></svg>