<svg xmlns="http://www.w3.org/2000/svg" width="3300" height="2200" fill="none"><path fill="#E5E5E5" d="M0 0h3300v2200H0z"/><g id="System / Outline / Exit" clip-path="url(#clip0_805_27002)"><g id="Notes"><path id="artboard" fill="#fff" d="M3300 0H0v2200h3300V0Z"/><path id="Vector" stroke="#000" stroke-width=".5" d="M263 292h2773"/><text xml:space="preserve" id="Weight/Scale Variations" fill="#000" font-family="Roboto" font-size="12" letter-spacing="0em" style="white-space:pre"><tspan x="263" y="321.102">Weight/Scale Variations</tspan></text><text xml:space="preserve" id="Ultralight" fill="#000" font-family="Roboto" font-size="12" letter-spacing="0em" style="white-space:pre"><tspan x="535.211" y="321.102">Ultralight</tspan></text><text xml:space="preserve" id="Thin" fill="#000" font-family="Roboto" font-size="12" letter-spacing="0em" style="white-space:pre"><tspan x="844.422" y="321.102">Thin</tspan></text><text xml:space="preserve" id="Light" fill="#000" font-family="Roboto" font-size="12" letter-spacing="0em" style="white-space:pre"><tspan x="1139.63" y="321.102">Light</tspan></text><text xml:space="preserve" id="Regular" fill="#000" font-family="Roboto" font-size="12" letter-spacing="0em" style="white-space:pre"><tspan x="1429.34" y="321.102">Regular</tspan></text><text xml:space="preserve" id="Medium" fill="#000" font-family="Roboto" font-size="12" letter-spacing="0em" style="white-space:pre"><tspan x="1724.56" y="321.102">Medium</tspan></text><text xml:space="preserve" id="Semibold" fill="#000" font-family="Roboto" font-size="12" letter-spacing="0em" style="white-space:pre"><tspan x="2017.77" y="321.102">Semibold</tspan></text><text xml:space="preserve" id="Bold" fill="#000" font-family="Roboto" font-size="12" letter-spacing="0em" style="white-space:pre"><tspan x="2327.48" y="321.102">Bold</tspan></text><text xml:space="preserve" id="Heavy" fill="#000" font-family="Roboto" font-size="12" letter-spacing="0em" style="white-space:pre"><tspan x="2620.19" y="321.102">Heavy</tspan></text><text xml:space="preserve" id="Black" fill="#000" font-family="Roboto" font-size="12" letter-spacing="0em" style="white-space:pre"><tspan x="2918.4" y="321.102">Black</tspan></text><path id="Vector_2" stroke="#000" stroke-width=".5" d="M263 1903h2773"/><g id="Group"><path id="Vector_3" fill="#000" d="M272.248 1933.83c4.307 0 7.891-3.57 7.891-7.88 0-4.31-3.594-7.88-7.901-7.88-4.297 0-7.871 3.57-7.871 7.88 0 4.31 3.584 7.88 7.881 7.88Zm0-1.48c-3.545 0-6.377-2.84-6.377-6.4 0-3.55 2.822-6.4 6.367-6.4a6.388 6.388 0 0 1 6.406 6.4 6.361 6.361 0 0 1-6.396 6.4Zm-.019-2.78c.468 0 .742-.31.742-.83v-2.06h2.226c.498 0 .84-.25.84-.72 0-.48-.322-.74-.84-.74h-2.226v-2.23c0-.52-.274-.84-.742-.84-.469 0-.723.34-.723.84v2.23h-2.207c-.518 0-.85.26-.85.74 0 .47.352.72.85.72h2.207v2.06c0 .5.254.83.723.83Z"/></g><g id="Group_2"><path id="Vector_4" fill="#000" d="M293.215 1935.91c5.449 0 9.961-4.51 9.961-9.96 0-5.44-4.522-9.96-9.971-9.96-5.439 0-9.951 4.52-9.951 9.96 0 5.45 4.521 9.96 9.961 9.96Zm0-1.66a8.26 8.26 0 0 1-8.291-8.3c0-4.6 3.672-8.3 8.281-8.3a8.29 8.29 0 0 1 8.311 8.3 8.263 8.263 0 0 1-8.301 8.3Zm-.02-3.66c.518 0 .83-.36.83-.93v-2.89h3.057c.547 0 .928-.28.928-.8 0-.53-.362-.83-.928-.83h-3.057v-3.07c0-.57-.312-.93-.83-.93-.517 0-.81.38-.81.93v3.07h-3.047c-.567 0-.938.3-.938.83 0 .52.391.8.938.8h3.047v2.89c0 .55.293.93.81.93Z"/></g><g id="Group_3"><path id="Vector_5" fill="#000" d="M319.895 1938.67c6.962 0 12.724-5.75 12.724-12.71 0-6.97-5.771-12.72-12.734-12.72-6.953 0-12.705 5.75-12.705 12.72 0 6.96 5.761 12.71 12.715 12.71Zm0-1.81a10.874 10.874 0 0 1-10.889-10.9c0-6.04 4.844-10.9 10.879-10.9 6.045 0 10.898 4.86 10.908 10.9a10.87 10.87 0 0 1-10.898 10.9Zm-.02-4.93c.566 0 .918-.39.918-.99v-4.07h4.238c.586 0 1.006-.34 1.006-.89 0-.58-.39-.92-1.006-.92h-4.238v-4.25c0-.61-.352-1.01-.918-1.01-.566 0-.889.41-.889 1.01v4.25h-4.228c-.615 0-1.026.34-1.026.92 0 .55.43.89 1.026.89h4.228v4.07c0 .58.323.99.889.99Z"/></g><text xml:space="preserve" id="Design Variations" fill="#000" font-family="Roboto" font-size="12" letter-spacing="0em" style="white-space:pre"><tspan x="263" y="1952.1">Design Variations</tspan></text><text xml:space="preserve" id="Symbols are supported in up to nine weights and three scales." fill="#000" font-family="Roboto" font-size="12" letter-spacing="0em" style="white-space:pre"><tspan x="263" y="1970.1">Symbols are supported in up to nine weights and three scales.</tspan></text><text xml:space="preserve" id="For optimal layout with text and other symbols, vertically align" fill="#000" font-family="Roboto" font-size="12" letter-spacing="0em" style="white-space:pre"><tspan x="263" y="1988.1">For optimal layout with text and other symbols, vertically align</tspan></text><text xml:space="preserve" id="symbols with the adjacent text." fill="#000" font-family="Roboto" font-size="12" letter-spacing="0em" style="white-space:pre"><tspan x="263" y="2006.1">symbols with the adjacent text.</tspan></text><path id="Vector_6" fill="#00AEEF" d="M779 1919h-3v14h3v-14Z" opacity=".4"/><g id="Group_4"><path id="Vector_7" fill="#000" d="M789.525 1933h1.846l-5.195-14.09h-1.739l-5.195 14.09h1.846l1.416-4.04h5.605l1.416 4.04Zm-4.248-11.96h.059l2.256 6.43h-4.571l2.256-6.43Z"/></g><path id="Vector_8" fill="#00AEEF" d="M794.617 1919h-3v14h3v-14Z" opacity=".4"/><text xml:space="preserve" id="Margins" fill="#000" font-family="Roboto" font-size="12" letter-spacing="0em" style="white-space:pre"><tspan x="776" y="1952.1">Margins</tspan></text><text xml:space="preserve" id="Leading and trailing margins on the left and right side of each symbol" fill="#000" font-family="Roboto" font-size="12" letter-spacing="0em" style="white-space:pre"><tspan x="776" y="1970.1">Leading and trailing margins on the left and right side of each symbol</tspan></text><text xml:space="preserve" id="can be adjusted by modifying the width of the blue rectangles." fill="#000" font-family="Roboto" font-size="12" letter-spacing="0em" style="white-space:pre"><tspan x="776" y="1988.1">can be adjusted by modifying the width of the blue rectangles.</tspan></text><text xml:space="preserve" id="Modifications are automatically applied proportionally to all" fill="#000" font-family="Roboto" font-size="12" letter-spacing="0em" style="white-space:pre"><tspan x="776" y="2006.1">Modifications are automatically applied proportionally to all</tspan></text><text xml:space="preserve" id="scales and weights." fill="#000" font-family="Roboto" font-size="12" letter-spacing="0em" style="white-space:pre"><tspan x="776" y="2024.1">scales and weights.</tspan></text><g id="Group_5"><path id="Vector_9" fill="#000" d="m1291.83 1936.11 1.54 1.55c.85.83 1.82.76 2.69-.2l10.21-11.12c.43.29.83.28 1.29.18l1.05-.21.69.69-.05.52c-.06.53.1.95.6 1.45l.81.81c.51.5 1.16.53 1.64.05l3.25-3.25c.48-.48.46-1.13-.05-1.64l-.82-.82c-.49-.5-.91-.67-1.44-.59l-.53.05-.65-.66.28-1.14c.15-.57 0-1.04-.63-1.64l-2.41-2.39c-3.54-3.53-8.07-3.42-11.19-.29-.42.43-.47 1.02-.19 1.45.23.37.71.59 1.35.43 1.52-.38 3.03-.27 4.51.74l-.62 1.58c-.23.59-.22 1.07.02 1.5l-11.16 10.28c-.94.87-1.05 1.81-.19 2.67Zm7.84-18.26c2.67-1.99 5.98-1.68 8.38.73l2.63 2.61c.23.24.26.42.2.72l-.38 1.56 1.58 1.57.96-.09c.29-.03.37-.01.6.22l.62.62-2.75 2.75-.63-.62c-.22-.22-.24-.32-.21-.6l.09-.96-1.57-1.56-1.62.31c-.28.06-.43.06-.66-.19l-2.18-2.17c-.22-.24-.25-.38-.12-.7l.94-2.27c-1.6-1.54-3.71-2.39-5.75-1.73-.09.03-.16.01-.19-.03-.02-.05-.02-.1.06-.17Zm-6.57 17.56c-.49-.5-.31-.8.02-1.1l10.96-10.12 1.23 1.23-10.16 10.93c-.3.33-.68.43-1.08.03l-.97-.97Z"/></g><text xml:space="preserve" id="Exporting" fill="#000" font-family="Roboto" font-size="12" letter-spacing="0em" style="white-space:pre"><tspan x="1289" y="1952.1">Exporting</tspan></text><text xml:space="preserve" id="Symbols should be outlined when exporting to ensure the" fill="#000" font-family="Roboto" font-size="12" letter-spacing="0em" style="white-space:pre"><tspan x="1289" y="1970.1">Symbols should be outlined when exporting to ensure the</tspan></text><text xml:space="preserve" id="design is preserved when submitting to Xcode." fill="#000" font-family="Roboto" font-size="12" letter-spacing="0em" style="white-space:pre"><tspan x="1289" y="1988.1">design is preserved when submitting to Xcode.</tspan></text><text xml:space="preserve" id="template-version" fill="#000" font-family="Roboto" font-size="12" letter-spacing="0em" style="white-space:pre"><tspan x="2958" y="1932.1">Template v.1.0</tspan></text><text xml:space="preserve" id="Generated from pencil.circle" fill="#000" font-family="Roboto" font-size="12" letter-spacing="0em" style="white-space:pre"><tspan x="2885" y="1950.1">Generated from pencil.circle</tspan></text><text xml:space="preserve" id="Typeset at 100 points" fill="#000" font-family="Roboto" font-size="12" letter-spacing="0em" style="white-space:pre"><tspan x="2921" y="1968.1">Typeset at 100 points</tspan></text><text xml:space="preserve" id="Small" fill="#000" font-family="Roboto" font-size="12" letter-spacing="0em" style="white-space:pre"><tspan x="263" y="725.102">Small</tspan></text><text xml:space="preserve" id="Medium_2" fill="#000" font-family="Roboto" font-size="12" letter-spacing="0em" style="white-space:pre"><tspan x="263" y="1155.1">Medium</tspan></text><text xml:space="preserve" id="Large" fill="#000" font-family="Roboto" font-size="12" letter-spacing="0em" style="white-space:pre"><tspan x="263" y="1585.1">Large</tspan></text></g><g id="Guides"><g id="H-reference"><path id="Vector_10" fill="#27AAE1" d="M393.932 695.998h2.734l-27.1-70.459h-2.49l-27.099 70.459h2.685l9.278-24.463h32.763l9.229 24.463Zm-25.733-67.09h.244l15.381 40.381h-31.006l15.381-40.381Z"/></g><path id="Baseline-S" stroke="#27AAE1" stroke-width=".577" d="M263 696h2773"/><path id="Capline-S" stroke="#27AAE1" stroke-width=".577" d="M263 626h2773"/><g id="H-reference_2"><path id="Vector_11" fill="#27AAE1" d="M393.932 1126h2.734l-27.1-70.46h-2.49L339.977 1126h2.685l9.278-24.46h32.763l9.229 24.46Zm-25.733-67.09h.244l15.381 40.38h-31.006l15.381-40.38Z"/></g><path id="Baseline-M" stroke="#27AAE1" stroke-width=".577" d="M263 1126h2773"/><path id="Capline-M" stroke="#27AAE1" stroke-width=".577" d="M263 1056h2773"/><g id="H-reference_3"><path id="Vector_12" fill="#27AAE1" d="M393.932 1556h2.734l-27.1-70.46h-2.49L339.977 1556h2.685l9.278-24.46h32.763l9.229 24.46Zm-25.733-67.09h.244l15.381 40.38h-31.006l15.381-40.38Z"/></g><g id="Group 1" stroke="#27AAE1" stroke-width=".577"><path id="Baseline-L" d="M263 1556h2773"/><path id="Capline-L" d="M263 1486h2773"/></g><path id="left-margin" fill="#00AEEF" d="M1408.04 1030.79h-8.74v119.33h8.74v-119.33Z" opacity=".4"/><path id="right-margin" fill="#00AEEF" d="M1510.39 1030.79h-8.74v119.33h8.74v-119.33Z" opacity=".4"/></g><g id="Symbols"><g id="Black-L"><g id="Outline / Exit Outline"><g id="Shape" fill="#000" fill-rule="evenodd" clip-rule="evenodd"><path d="M2970.1 1545.08c-1.35 0-2.63-.53-3.6-1.58-1.8-2.02-1.65-5.1.3-6.9l11.68-11.14h-37.11c-2.69 0-4.87-2.18-4.87-4.88a4.87 4.87 0 0 1 4.87-4.87h37.06l-11.63-10.31c-2.02-1.8-2.1-4.88-.3-6.9 1.8-1.95 4.87-2.1 6.9-.3l20.32 18.48c2.33 2.1 2.33 5.7 0 7.8l-20.32 19.32c-.98.9-2.1 1.28-3.3 1.28Z"/><path d="M2951.5 1463.25H2899c-1.14 0-2.24.15-3.3.43l15.81 9.03c4.55 2.6 7.36 7.45 7.36 12.7v70.36c0 5.25-2.81 10.09-7.36 12.7l-16.74 9.56c1.32.47 2.75.72 4.23.72h52.5c7.04 0 12.75-5.71 12.75-12.75v-2.63a4.87 4.87 0 0 1 4.87-4.87c2.7 0 4.88 2.18 4.88 4.87v2.63c0 12.43-10.07 22.5-22.5 22.5H2899c-12.43 0-22.5-10.07-22.5-22.5v-90c0-12.43 10.07-22.5 22.5-22.5h52.5c12.43 0 22.5 10.07 22.5 22.5v2.62c0 2.7-2.18 4.88-4.88 4.88-2.69 0-4.87-2.18-4.87-4.88V1476c0-7.04-5.71-12.75-12.75-12.75Zm-64.2 107.82 19.37-11.07a4.852 4.852 0 0 0 2.45-4.23v-70.36c0-6.95-16.61-12.33-21.52-15.13a12.75 12.75 0 0 0-1.35 5.72v90c0 1.8.37 3.52 1.05 5.07Z"/></g></g></g><g id="Heavy-L"><g id="Outline / Exit Outline_2"><g id="Shape_2" fill="#000" fill-rule="evenodd" clip-rule="evenodd"><path d="M2674.1 1545.08c-1.35 0-2.63-.53-3.6-1.58-1.8-2.02-1.65-5.1.3-6.9l11.68-11.14h-37.11c-2.69 0-4.87-2.18-4.87-4.88a4.87 4.87 0 0 1 4.87-4.87h37.06l-11.63-10.31c-2.02-1.8-2.1-4.88-.3-6.9 1.8-1.95 4.87-2.1 6.9-.3l20.32 18.48c2.33 2.1 2.33 5.7 0 7.8l-20.32 19.32c-.98.9-2.1 1.28-3.3 1.28Z"/><path d="M2655.5 1463.25H2603c-1.14 0-2.24.15-3.3.43l15.81 9.03c4.55 2.6 7.36 7.45 7.36 12.7v70.36c0 5.25-2.81 10.09-7.36 12.7l-16.74 9.56c1.32.47 2.75.72 4.23.72h52.5c7.04 0 12.75-5.71 12.75-12.75v-2.63a4.87 4.87 0 0 1 4.87-4.87c2.7 0 4.88 2.18 4.88 4.87v2.63c0 12.43-10.07 22.5-22.5 22.5H2603c-12.43 0-22.5-10.07-22.5-22.5v-90c0-12.43 10.07-22.5 22.5-22.5h52.5c12.43 0 22.5 10.07 22.5 22.5v2.62c0 2.7-2.18 4.88-4.88 4.88-2.69 0-4.87-2.18-4.87-4.88V1476c0-7.04-5.71-12.75-12.75-12.75Zm-64.2 107.82 19.37-11.07a4.852 4.852 0 0 0 2.45-4.23v-70.36c0-6.95-16.61-12.33-21.52-15.13a12.75 12.75 0 0 0-1.35 5.72v90c0 1.8.37 3.52 1.05 5.07Z"/></g></g></g><g id="Bold-L"><g id="Outline / Exit Outline_3"><g id="Shape_3" fill="#000" fill-rule="evenodd" clip-rule="evenodd"><path d="M2378.1 1545.08c-1.35 0-2.63-.53-3.6-1.58-1.8-2.02-1.65-5.1.3-6.9l11.68-11.14h-37.11c-2.69 0-4.87-2.18-4.87-4.88a4.87 4.87 0 0 1 4.87-4.87h37.06l-11.63-10.31c-2.02-1.8-2.1-4.88-.3-6.9 1.8-1.95 4.87-2.1 6.9-.3l20.32 18.48c2.33 2.1 2.33 5.7 0 7.8l-20.32 19.32c-.98.9-2.1 1.28-3.3 1.28Z"/><path d="M2359.5 1463.25H2307c-1.14 0-2.24.15-3.3.43l15.81 9.03c4.55 2.6 7.36 7.45 7.36 12.7v70.36c0 5.25-2.81 10.09-7.36 12.7l-16.74 9.56c1.32.47 2.75.72 4.23.72h52.5c7.04 0 12.75-5.71 12.75-12.75v-2.63a4.87 4.87 0 0 1 4.87-4.87c2.7 0 4.88 2.18 4.88 4.87v2.63c0 12.43-10.07 22.5-22.5 22.5H2307c-12.43 0-22.5-10.07-22.5-22.5v-90c0-12.43 10.07-22.5 22.5-22.5h52.5c12.43 0 22.5 10.07 22.5 22.5v2.62c0 2.7-2.18 4.88-4.88 4.88-2.69 0-4.87-2.18-4.87-4.88V1476c0-7.04-5.71-12.75-12.75-12.75Zm-64.2 107.82 19.37-11.07a4.852 4.852 0 0 0 2.45-4.23v-70.36c0-6.95-16.61-12.33-21.52-15.13a12.75 12.75 0 0 0-1.35 5.72v90c0 1.8.37 3.52 1.05 5.07Z"/></g></g></g><g id="Semibold-L"><g id="Outline / Exit Outline_4"><g id="Shape_4" fill="#000" fill-rule="evenodd" clip-rule="evenodd"><path d="M2082.1 1545.08c-1.35 0-2.63-.53-3.6-1.58-1.8-2.02-1.65-5.1.3-6.9l11.68-11.14h-37.11c-2.69 0-4.87-2.18-4.87-4.88a4.87 4.87 0 0 1 4.87-4.87h37.06l-11.63-10.31c-2.02-1.8-2.1-4.88-.3-6.9 1.8-1.95 4.87-2.1 6.9-.3l20.32 18.48c2.33 2.1 2.33 5.7 0 7.8l-20.32 19.32c-.98.9-2.1 1.28-3.3 1.28Z"/><path d="M2063.5 1463.25H2011c-1.14 0-2.24.15-3.3.43l15.81 9.03c4.55 2.6 7.36 7.45 7.36 12.7v70.36c0 5.25-2.81 10.09-7.36 12.7l-16.74 9.56c1.32.47 2.75.72 4.23.72h52.5c7.04 0 12.75-5.71 12.75-12.75v-2.63a4.87 4.87 0 0 1 4.87-4.87c2.7 0 4.88 2.18 4.88 4.87v2.63c0 12.43-10.07 22.5-22.5 22.5H2011c-12.43 0-22.5-10.07-22.5-22.5v-90c0-12.43 10.07-22.5 22.5-22.5h52.5c12.43 0 22.5 10.07 22.5 22.5v2.62c0 2.7-2.18 4.88-4.88 4.88-2.69 0-4.87-2.18-4.87-4.88V1476c0-7.04-5.71-12.75-12.75-12.75Zm-64.2 107.82 19.37-11.07a4.852 4.852 0 0 0 2.45-4.23v-70.36c0-6.95-16.61-12.33-21.52-15.13a12.75 12.75 0 0 0-1.35 5.72v90c0 1.8.37 3.52 1.05 5.07Z"/></g></g></g><g id="Medium-L"><g id="Outline / Exit Outline_5"><g id="Shape_5" fill="#000" fill-rule="evenodd" clip-rule="evenodd"><path d="M1786.1 1545.08c-1.35 0-2.63-.53-3.6-1.58-1.8-2.02-1.65-5.1.3-6.9l11.68-11.14h-37.11c-2.69 0-4.87-2.18-4.87-4.88a4.87 4.87 0 0 1 4.87-4.87h37.06l-11.63-10.31c-2.02-1.8-2.1-4.88-.3-6.9 1.8-1.95 4.87-2.1 6.9-.3l20.32 18.48c2.33 2.1 2.33 5.7 0 7.8l-20.32 19.32c-.98.9-2.1 1.28-3.3 1.28Z"/><path d="M1767.5 1463.25H1715c-1.14 0-2.24.15-3.3.43l15.81 9.03c4.55 2.6 7.36 7.45 7.36 12.7v70.36c0 5.25-2.81 10.09-7.36 12.7l-16.74 9.56c1.32.47 2.75.72 4.23.72h52.5c7.04 0 12.75-5.71 12.75-12.75v-2.63a4.87 4.87 0 0 1 4.87-4.87c2.7 0 4.88 2.18 4.88 4.87v2.63c0 12.43-10.07 22.5-22.5 22.5H1715c-12.43 0-22.5-10.07-22.5-22.5v-90c0-12.43 10.07-22.5 22.5-22.5h52.5c12.43 0 22.5 10.07 22.5 22.5v2.62c0 2.7-2.18 4.88-4.88 4.88-2.69 0-4.87-2.18-4.87-4.88V1476c0-7.04-5.71-12.75-12.75-12.75Zm-64.2 107.82 19.37-11.07a4.852 4.852 0 0 0 2.45-4.23v-70.36c0-6.95-16.61-12.33-21.52-15.13a12.75 12.75 0 0 0-1.35 5.72v90c0 1.8.37 3.52 1.05 5.07Z"/></g></g></g><g id="Regular-L"><g id="Outline / Exit Outline_6"><g id="Shape_6" fill="#000" fill-rule="evenodd" clip-rule="evenodd"><path d="M1490.1 1545.08c-1.35 0-2.63-.53-3.6-1.58-1.8-2.02-1.65-5.1.3-6.9l11.68-11.14h-37.11c-2.69 0-4.87-2.18-4.87-4.88a4.87 4.87 0 0 1 4.87-4.87h37.06l-11.63-10.31c-2.02-1.8-2.1-4.88-.3-6.9 1.8-1.95 4.87-2.1 6.9-.3l20.32 18.48c2.33 2.1 2.33 5.7 0 7.8l-20.32 19.32c-.98.9-2.1 1.28-3.3 1.28Z"/><path d="M1471.5 1463.25H1419c-1.14 0-2.24.15-3.3.43l15.81 9.03c4.55 2.6 7.36 7.45 7.36 12.7v70.36c0 5.25-2.81 10.09-7.36 12.7l-16.74 9.56c1.32.47 2.75.72 4.23.72h52.5c7.04 0 12.75-5.71 12.75-12.75v-2.63a4.87 4.87 0 0 1 4.87-4.87c2.7 0 4.88 2.18 4.88 4.87v2.63c0 12.43-10.07 22.5-22.5 22.5H1419c-12.43 0-22.5-10.07-22.5-22.5v-90c0-12.43 10.07-22.5 22.5-22.5h52.5c12.43 0 22.5 10.07 22.5 22.5v2.62c0 2.7-2.18 4.88-4.88 4.88-2.69 0-4.87-2.18-4.87-4.88V1476c0-7.04-5.71-12.75-12.75-12.75Zm-64.2 107.82 19.37-11.07a4.852 4.852 0 0 0 2.45-4.23v-70.36c0-6.95-16.61-12.33-21.52-15.13a12.75 12.75 0 0 0-1.35 5.72v90c0 1.8.37 3.52 1.05 5.07Z"/></g></g></g><g id="Light-L"><g id="Outline / Exit Outline_7"><g id="Shape_7" fill="#000" fill-rule="evenodd" clip-rule="evenodd"><path d="M1194.1 1545.08c-1.35 0-2.63-.53-3.6-1.58-1.8-2.02-1.65-5.1.3-6.9l11.68-11.14h-37.11c-2.69 0-4.87-2.18-4.87-4.88a4.87 4.87 0 0 1 4.87-4.87h37.06l-11.63-10.31c-2.02-1.8-2.1-4.88-.3-6.9 1.8-1.95 4.87-2.1 6.9-.3l20.32 18.48c2.33 2.1 2.33 5.7 0 7.8l-20.32 19.32c-.98.9-2.1 1.28-3.3 1.28Z"/><path d="M1175.5 1463.25H1123c-1.14 0-2.24.15-3.3.43l15.81 9.03c4.55 2.6 7.36 7.45 7.36 12.7v70.36c0 5.25-2.81 10.09-7.36 12.7l-16.74 9.56c1.32.47 2.75.72 4.23.72h52.5c7.04 0 12.75-5.71 12.75-12.75v-2.63a4.87 4.87 0 0 1 4.87-4.87c2.7 0 4.88 2.18 4.88 4.87v2.63c0 12.43-10.07 22.5-22.5 22.5H1123c-12.43 0-22.5-10.07-22.5-22.5v-90c0-12.43 10.07-22.5 22.5-22.5h52.5c12.43 0 22.5 10.07 22.5 22.5v2.62c0 2.7-2.18 4.88-4.88 4.88-2.69 0-4.87-2.18-4.87-4.88V1476c0-7.04-5.71-12.75-12.75-12.75Zm-64.2 107.82 19.37-11.07a4.852 4.852 0 0 0 2.45-4.23v-70.36c0-6.95-16.61-12.33-21.52-15.13a12.75 12.75 0 0 0-1.35 5.72v90c0 1.8.37 3.52 1.05 5.07Z"/></g></g></g><g id="Thin-L"><g id="Outline / Exit Outline_8"><g id="Shape_8" fill="#000" fill-rule="evenodd" clip-rule="evenodd"><path d="M898.1 1545.08a4.84 4.84 0 0 1-3.6-1.58c-1.8-2.02-1.65-5.1.3-6.9l11.682-11.14h-37.107a4.875 4.875 0 0 1-4.875-4.88c0-2.69 2.183-4.87 4.875-4.87h37.054L894.8 1505.4c-2.025-1.8-2.1-4.88-.3-6.9 1.8-1.95 4.875-2.1 6.9-.3l20.325 18.48a5.233 5.233 0 0 1 0 7.8L901.4 1543.8c-.975.9-2.1 1.28-3.3 1.28Z"/><path d="M879.5 1463.25H827c-1.14 0-2.245.15-3.296.43l15.802 9.03a14.621 14.621 0 0 1 7.369 12.7v70.36c0 5.25-2.812 10.09-7.369 12.7l-16.735 9.56c1.323.47 2.746.72 4.229.72h52.5c7.042 0 12.75-5.71 12.75-12.75v-2.63c0-2.69 2.183-4.87 4.875-4.87a4.873 4.873 0 0 1 4.875 4.87v2.63c0 12.43-10.074 22.5-22.5 22.5H827c-12.426 0-22.5-10.07-22.5-22.5v-90c0-12.43 10.074-22.5 22.5-22.5h52.5c12.426 0 22.5 10.07 22.5 22.5v2.62a4.875 4.875 0 1 1-9.75 0V1476c0-7.04-5.708-12.75-12.75-12.75Zm-64.201 107.82 19.37-11.07a4.86 4.86 0 0 0 2.456-4.23v-70.36c0-6.95-16.618-12.33-21.523-15.13a12.686 12.686 0 0 0-1.352 5.72v90c0 1.8.374 3.52 1.049 5.07Z"/></g></g></g><g id="Ultralight-L"><g id="Outline / Exit Outline_9"><g id="Shape_9" fill="#000" fill-rule="evenodd" clip-rule="evenodd"><path d="M602.1 1545.08a4.84 4.84 0 0 1-3.6-1.58c-1.8-2.02-1.65-5.1.3-6.9l11.682-11.14h-37.107a4.875 4.875 0 0 1-4.875-4.88c0-2.69 2.183-4.87 4.875-4.87h37.054L598.8 1505.4c-2.025-1.8-2.1-4.88-.3-6.9 1.8-1.95 4.875-2.1 6.9-.3l20.325 18.48a5.233 5.233 0 0 1 0 7.8L605.4 1543.8c-.975.9-2.1 1.28-3.3 1.28Z"/><path d="M583.5 1463.25H531c-1.14 0-2.245.15-3.296.43l15.802 9.03a14.621 14.621 0 0 1 7.369 12.7v70.36c0 5.25-2.812 10.09-7.369 12.7l-16.735 9.56c1.323.47 2.746.72 4.229.72h52.5c7.042 0 12.75-5.71 12.75-12.75v-2.63c0-2.69 2.183-4.87 4.875-4.87a4.873 4.873 0 0 1 4.875 4.87v2.63c0 12.43-10.074 22.5-22.5 22.5H531c-12.426 0-22.5-10.07-22.5-22.5v-90c0-12.43 10.074-22.5 22.5-22.5h52.5c12.426 0 22.5 10.07 22.5 22.5v2.62a4.875 4.875 0 1 1-9.75 0V1476c0-7.04-5.708-12.75-12.75-12.75Zm-64.201 107.82 19.37-11.07a4.86 4.86 0 0 0 2.456-4.23v-70.36c0-6.95-16.618-12.33-21.523-15.13a12.686 12.686 0 0 0-1.352 5.72v90c0 1.8.374 3.52 1.049 5.07Z"/></g></g></g><g id="Black-M"><g id="Outline / Exit Outline_10"><g id="Shape_10" fill="#000" fill-rule="evenodd" clip-rule="evenodd"><path d="M2960.97 1109.73c-1.05 0-2.04-.41-2.8-1.23-1.4-1.57-1.29-3.97.23-5.37l9.09-8.66h-28.86c-2.1 0-3.8-1.7-3.8-3.79 0-2.1 1.7-3.8 3.8-3.8h28.82l-9.05-8.01c-1.57-1.4-1.63-3.8-.23-5.37 1.4-1.52 3.79-1.63 5.36-.23l15.81 14.37a4.071 4.071 0 0 1 0 6.07l-15.81 15.02c-.75.7-1.63 1-2.56 1Z"/><path d="M2946.5 1046.08h-40.83c-.89 0-1.75.12-2.57.34l12.29 7.02c3.55 2.03 5.74 5.8 5.74 9.88v54.72c0 4.09-2.19 7.85-5.74 9.88l-13.01 7.44c1.03.36 2.13.56 3.29.56h40.83c5.48 0 9.92-4.44 9.92-9.92v-2.04c0-2.1 1.7-3.79 3.79-3.79s3.79 1.69 3.79 3.79v2.04c0 9.66-7.83 17.5-17.5 17.5h-40.83c-9.67 0-17.5-7.84-17.5-17.5v-70c0-9.66 7.83-17.5 17.5-17.5h40.83c9.67 0 17.5 7.84 17.5 17.5v2.04c0 2.1-1.7 3.79-3.79 3.79s-3.79-1.69-3.79-3.79V1056c0-5.48-4.44-9.92-9.92-9.92Zm-49.93 83.86 15.06-8.6a3.814 3.814 0 0 0 1.91-3.3v-54.72c0-5.41-12.92-9.59-16.74-11.77a9.92 9.92 0 0 0-1.05 4.45v70c0 1.4.29 2.74.82 3.94Z"/></g></g></g><g id="Heavy-M"><g id="Outline / Exit Outline_11"><g id="Shape_11" fill="#000" fill-rule="evenodd" clip-rule="evenodd"><path d="M2664.97 1109.73c-1.05 0-2.04-.41-2.8-1.23-1.4-1.57-1.29-3.97.23-5.37l9.09-8.66h-28.86c-2.1 0-3.8-1.7-3.8-3.79 0-2.1 1.7-3.8 3.8-3.8h28.82l-9.05-8.01c-1.57-1.4-1.63-3.8-.23-5.37 1.4-1.52 3.79-1.63 5.36-.23l15.81 14.37a4.071 4.071 0 0 1 0 6.07l-15.81 15.02c-.75.7-1.63 1-2.56 1Z"/><path d="M2650.5 1046.08h-40.83c-.89 0-1.75.12-2.57.34l12.29 7.02c3.55 2.03 5.74 5.8 5.74 9.88v54.72c0 4.09-2.19 7.85-5.74 9.88l-13.01 7.44c1.03.36 2.13.56 3.29.56h40.83c5.48 0 9.92-4.44 9.92-9.92v-2.04c0-2.1 1.7-3.79 3.79-3.79s3.79 1.69 3.79 3.79v2.04c0 9.66-7.83 17.5-17.5 17.5h-40.83c-9.67 0-17.5-7.84-17.5-17.5v-70c0-9.66 7.83-17.5 17.5-17.5h40.83c9.67 0 17.5 7.84 17.5 17.5v2.04c0 2.1-1.7 3.79-3.79 3.79s-3.79-1.69-3.79-3.79V1056c0-5.48-4.44-9.92-9.92-9.92Zm-49.93 83.86 15.06-8.6a3.814 3.814 0 0 0 1.91-3.3v-54.72c0-5.41-12.92-9.59-16.74-11.77a9.92 9.92 0 0 0-1.05 4.45v70c0 1.4.29 2.74.82 3.94Z"/></g></g></g><g id="Bold-M"><g id="Outline / Exit Outline_12"><g id="Shape_12" fill="#000" fill-rule="evenodd" clip-rule="evenodd"><path d="M2368.97 1109.73c-1.05 0-2.04-.41-2.8-1.23-1.4-1.57-1.29-3.97.23-5.37l9.09-8.66h-28.86c-2.1 0-3.8-1.7-3.8-3.79 0-2.1 1.7-3.8 3.8-3.8h28.82l-9.05-8.01c-1.57-1.4-1.63-3.8-.23-5.37 1.4-1.52 3.79-1.63 5.36-.23l15.81 14.37a4.071 4.071 0 0 1 0 6.07l-15.81 15.02c-.75.7-1.63 1-2.56 1Z"/><path d="M2354.5 1046.08h-40.83c-.89 0-1.75.12-2.57.34l12.29 7.02c3.55 2.03 5.74 5.8 5.74 9.88v54.72c0 4.09-2.19 7.85-5.74 9.88l-13.01 7.44c1.03.36 2.13.56 3.29.56h40.83c5.48 0 9.92-4.44 9.92-9.92v-2.04c0-2.1 1.7-3.79 3.79-3.79s3.79 1.69 3.79 3.79v2.04c0 9.66-7.83 17.5-17.5 17.5h-40.83c-9.67 0-17.5-7.84-17.5-17.5v-70c0-9.66 7.83-17.5 17.5-17.5h40.83c9.67 0 17.5 7.84 17.5 17.5v2.04c0 2.1-1.7 3.79-3.79 3.79s-3.79-1.69-3.79-3.79V1056c0-5.48-4.44-9.92-9.92-9.92Zm-49.93 83.86 15.06-8.6a3.814 3.814 0 0 0 1.91-3.3v-54.72c0-5.41-12.92-9.59-16.74-11.77a9.92 9.92 0 0 0-1.05 4.45v70c0 1.4.29 2.74.82 3.94Z"/></g></g></g><g id="Semibold-M"><g id="Outline / Exit Outline_13"><g id="Shape_13" fill="#000" fill-rule="evenodd" clip-rule="evenodd"><path d="M2072.97 1109.73c-1.05 0-2.04-.41-2.8-1.23-1.4-1.57-1.29-3.97.23-5.37l9.09-8.66h-28.86c-2.1 0-3.8-1.7-3.8-3.79 0-2.1 1.7-3.8 3.8-3.8h28.82l-9.05-8.01c-1.57-1.4-1.63-3.8-.23-5.37 1.4-1.52 3.79-1.63 5.36-.23l15.81 14.37a4.071 4.071 0 0 1 0 6.07l-15.81 15.02c-.75.7-1.63 1-2.56 1Z"/><path d="M2058.5 1046.08h-40.83c-.89 0-1.75.12-2.57.34l12.29 7.02c3.55 2.03 5.74 5.8 5.74 9.88v54.72c0 4.09-2.19 7.85-5.74 9.88l-13.01 7.44c1.03.36 2.13.56 3.29.56h40.83c5.48 0 9.92-4.44 9.92-9.92v-2.04c0-2.1 1.7-3.79 3.79-3.79s3.79 1.69 3.79 3.79v2.04c0 9.66-7.83 17.5-17.5 17.5h-40.83c-9.67 0-17.5-7.84-17.5-17.5v-70c0-9.66 7.83-17.5 17.5-17.5h40.83c9.67 0 17.5 7.84 17.5 17.5v2.04c0 2.1-1.7 3.79-3.79 3.79s-3.79-1.69-3.79-3.79V1056c0-5.48-4.44-9.92-9.92-9.92Zm-49.93 83.86 15.06-8.6a3.814 3.814 0 0 0 1.91-3.3v-54.72c0-5.41-12.92-9.59-16.74-11.77a9.92 9.92 0 0 0-1.05 4.45v70c0 1.4.29 2.74.82 3.94Z"/></g></g></g><g id="Medium-M"><g id="Outline / Exit Outline_14"><g id="Shape_14" fill="#000" fill-rule="evenodd" clip-rule="evenodd"><path d="M1776.97 1109.73c-1.05 0-2.04-.41-2.8-1.23-1.4-1.57-1.29-3.97.23-5.37l9.09-8.66h-28.86c-2.1 0-3.8-1.7-3.8-3.79 0-2.1 1.7-3.8 3.8-3.8h28.82l-9.05-8.01c-1.57-1.4-1.63-3.8-.23-5.37 1.4-1.52 3.79-1.63 5.36-.23l15.81 14.37a4.071 4.071 0 0 1 0 6.07l-15.81 15.02c-.75.7-1.63 1-2.56 1Z"/><path d="M1762.5 1046.08h-40.83c-.89 0-1.75.12-2.57.34l12.29 7.02c3.55 2.03 5.74 5.8 5.74 9.88v54.72c0 4.09-2.19 7.85-5.74 9.88l-13.01 7.44c1.03.36 2.13.56 3.29.56h40.83c5.48 0 9.92-4.44 9.92-9.92v-2.04c0-2.1 1.7-3.79 3.79-3.79s3.79 1.69 3.79 3.79v2.04c0 9.66-7.83 17.5-17.5 17.5h-40.83c-9.67 0-17.5-7.84-17.5-17.5v-70c0-9.66 7.83-17.5 17.5-17.5h40.83c9.67 0 17.5 7.84 17.5 17.5v2.04c0 2.1-1.7 3.79-3.79 3.79s-3.79-1.69-3.79-3.79V1056c0-5.48-4.44-9.92-9.92-9.92Zm-49.93 83.86 15.06-8.6a3.814 3.814 0 0 0 1.91-3.3v-54.72c0-5.41-12.92-9.59-16.74-11.77a9.92 9.92 0 0 0-1.05 4.45v70c0 1.4.29 2.74.82 3.94Z"/></g></g></g><g id="Regular-M"><g id="Outline / Exit Outline_15"><g id="Shape_15" fill="#000" fill-rule="evenodd" clip-rule="evenodd"><path d="M1480.97 1109.73c-1.05 0-2.04-.41-2.8-1.23-1.4-1.57-1.29-3.97.23-5.37l9.09-8.66h-28.86c-2.1 0-3.8-1.7-3.8-3.79 0-2.1 1.7-3.8 3.8-3.8h28.82l-9.05-8.01c-1.57-1.4-1.63-3.8-.23-5.37 1.4-1.52 3.79-1.63 5.36-.23l15.81 14.37a4.071 4.071 0 0 1 0 6.07l-15.81 15.02c-.75.7-1.63 1-2.56 1Z"/><path d="M1466.5 1046.08h-40.83c-.89 0-1.75.12-2.57.34l12.29 7.02c3.55 2.03 5.74 5.8 5.74 9.88v54.72c0 4.09-2.19 7.85-5.74 9.88l-13.01 7.44c1.03.36 2.13.56 3.29.56h40.83c5.48 0 9.92-4.44 9.92-9.92v-2.04c0-2.1 1.7-3.79 3.79-3.79s3.79 1.69 3.79 3.79v2.04c0 9.66-7.83 17.5-17.5 17.5h-40.83c-9.67 0-17.5-7.84-17.5-17.5v-70c0-9.66 7.83-17.5 17.5-17.5h40.83c9.67 0 17.5 7.84 17.5 17.5v2.04c0 2.1-1.7 3.79-3.79 3.79s-3.79-1.69-3.79-3.79V1056c0-5.48-4.44-9.92-9.92-9.92Zm-49.93 83.86 15.06-8.6a3.814 3.814 0 0 0 1.91-3.3v-54.72c0-5.41-12.92-9.59-16.74-11.77a9.92 9.92 0 0 0-1.05 4.45v70c0 1.4.29 2.74.82 3.94Z"/></g></g></g><g id="Light-M"><g id="Outline / Exit Outline_16"><g id="Shape_16" fill="#000" fill-rule="evenodd" clip-rule="evenodd"><path d="M1184.97 1109.73c-1.05 0-2.04-.41-2.8-1.23-1.4-1.57-1.29-3.97.23-5.37l9.09-8.66h-28.86c-2.1 0-3.8-1.7-3.8-3.79 0-2.1 1.7-3.8 3.8-3.8h28.82l-9.05-8.01c-1.57-1.4-1.63-3.8-.23-5.37 1.4-1.52 3.79-1.63 5.36-.23l15.81 14.37a4.071 4.071 0 0 1 0 6.07l-15.81 15.02c-.75.7-1.63 1-2.56 1Z"/><path d="M1170.5 1046.08h-40.83c-.89 0-1.75.12-2.57.34l12.29 7.02c3.55 2.03 5.74 5.8 5.74 9.88v54.72c0 4.09-2.19 7.85-5.74 9.88l-13.01 7.44c1.03.36 2.13.56 3.29.56h40.83c5.48 0 9.92-4.44 9.92-9.92v-2.04c0-2.1 1.7-3.79 3.79-3.79s3.79 1.69 3.79 3.79v2.04c0 9.66-7.83 17.5-17.5 17.5h-40.83c-9.67 0-17.5-7.84-17.5-17.5v-70c0-9.66 7.83-17.5 17.5-17.5h40.83c9.67 0 17.5 7.84 17.5 17.5v2.04c0 2.1-1.7 3.79-3.79 3.79s-3.79-1.69-3.79-3.79V1056c0-5.48-4.44-9.92-9.92-9.92Zm-49.93 83.86 15.06-8.6a3.814 3.814 0 0 0 1.91-3.3v-54.72c0-5.41-12.92-9.59-16.74-11.77a9.92 9.92 0 0 0-1.05 4.45v70c0 1.4.29 2.74.82 3.94Z"/></g></g></g><g id="Thin-M"><g id="Outline / Exit Outline_17"><g id="Shape_17" fill="#000" fill-rule="evenodd" clip-rule="evenodd"><path d="M888.968 1109.73c-1.05 0-2.042-.41-2.8-1.23-1.4-1.57-1.283-3.97.233-5.37l9.086-8.66h-28.861a3.792 3.792 0 0 1-3.791-3.79c0-2.1 1.697-3.8 3.791-3.8h28.82l-9.045-8.01c-1.575-1.4-1.633-3.8-.233-5.37 1.4-1.52 3.792-1.63 5.367-.23l15.808 14.37a4.074 4.074 0 0 1 0 6.07l-15.808 15.02c-.759.7-1.634 1-2.567 1Z"/><path d="M874.501 1046.08h-40.833c-.887 0-1.746.12-2.564.34l12.291 7.02a11.39 11.39 0 0 1 5.731 9.88v54.72c0 4.09-2.187 7.85-5.731 9.88l-13.017 7.44c1.03.36 2.137.56 3.29.56h40.833c5.477 0 9.917-4.44 9.917-9.92v-2.04c0-2.1 1.698-3.79 3.792-3.79a3.786 3.786 0 0 1 3.791 3.79v2.04c0 9.66-7.835 17.5-17.5 17.5h-40.833c-9.665 0-17.5-7.84-17.5-17.5v-70c0-9.66 7.835-17.5 17.5-17.5h40.833c9.665 0 17.5 7.84 17.5 17.5v2.04c0 2.1-1.697 3.79-3.791 3.79a3.787 3.787 0 0 1-3.792-3.79V1056c0-5.48-4.44-9.92-9.917-9.92Zm-49.934 83.86 15.065-8.6a3.81 3.81 0 0 0 1.911-3.3v-54.72c0-5.41-12.925-9.59-16.74-11.77a9.883 9.883 0 0 0-1.052 4.45v70c0 1.4.291 2.74.816 3.94Z"/></g></g></g><g id="Ultralight-M"><g id="Outline / Exit Outline_18"><g id="Shape_18" fill="#000" fill-rule="evenodd" clip-rule="evenodd"><path d="M592.968 1109.73c-1.05 0-2.042-.41-2.8-1.23-1.4-1.57-1.283-3.97.233-5.37l9.086-8.66h-28.861a3.792 3.792 0 0 1-3.791-3.79c0-2.1 1.697-3.8 3.791-3.8h28.82l-9.045-8.01c-1.575-1.4-1.633-3.8-.233-5.37 1.4-1.52 3.792-1.63 5.367-.23l15.808 14.37a4.074 4.074 0 0 1 0 6.07l-15.808 15.02c-.759.7-1.634 1-2.567 1Z"/><path d="M578.501 1046.08h-40.833c-.887 0-1.746.12-2.564.34l12.291 7.02a11.39 11.39 0 0 1 5.731 9.88v54.72c0 4.09-2.187 7.85-5.731 9.88l-13.017 7.44c1.03.36 2.137.56 3.29.56h40.833c5.477 0 9.917-4.44 9.917-9.92v-2.04c0-2.1 1.698-3.79 3.792-3.79a3.786 3.786 0 0 1 3.791 3.79v2.04c0 9.66-7.835 17.5-17.5 17.5h-40.833c-9.665 0-17.5-7.84-17.5-17.5v-70c0-9.66 7.835-17.5 17.5-17.5h40.833c9.665 0 17.5 7.84 17.5 17.5v2.04c0 2.1-1.697 3.79-3.791 3.79a3.787 3.787 0 0 1-3.792-3.79V1056c0-5.48-4.44-9.92-9.917-9.92Zm-49.934 83.86 15.065-8.6a3.81 3.81 0 0 0 1.911-3.3v-54.72c0-5.41-12.925-9.59-16.74-11.77a9.883 9.883 0 0 0-1.052 4.45v70c0 1.4.291 2.74.816 3.94Z"/></g></g></g><g id="Black-S"><g id="Outline / Exit Outline_19"><g id="Shape_19" fill="#000" fill-rule="evenodd" clip-rule="evenodd"><path d="M2951.83 674.375c-.75 0-1.46-.292-2-.875-1-1.125-.91-2.833.17-3.833l6.49-6.19h-20.62c-1.49 0-2.7-1.212-2.7-2.708a2.705 2.705 0 0 1 2.7-2.709h20.59l-6.46-5.727c-1.13-1-1.17-2.708-.17-3.833 1-1.083 2.71-1.167 3.84-.167l11.29 10.269a2.91 2.91 0 0 1 0 4.333l-11.29 10.732c-.55.5-1.17.708-1.84.708Z"/><path d="M2941.5 628.917h-29.17c-.63 0-1.25.083-1.83.239l8.78 5.016a8.126 8.126 0 0 1 4.09 7.055v39.09a8.123 8.123 0 0 1-4.09 7.054l-9.3 5.313c.74.259 1.53.399 2.35.399h29.17c3.91 0 7.08-3.171 7.08-7.083v-1.458a2.707 2.707 0 0 1 2.71-2.709c1.5 0 2.71 1.213 2.71 2.709V686c0 6.904-5.6 12.5-12.5 12.5h-29.17c-6.9 0-12.5-5.596-12.5-12.5v-50c0-6.904 5.6-12.5 12.5-12.5h29.17c6.9 0 12.5 5.596 12.5 12.5v1.458a2.707 2.707 0 0 1-2.71 2.709c-1.5 0-2.71-1.213-2.71-2.709V636a7.082 7.082 0 0 0-7.08-7.083Zm-35.67 59.901 10.76-6.149a2.702 2.702 0 0 0 1.37-2.352v-39.09c0-3.86-9.24-6.848-11.96-8.405a7.06 7.06 0 0 0-.75 3.178v50c0 1.001.21 1.954.58 2.818Z"/></g></g></g><g id="Heavy-S"><g id="Outline / Exit Outline_20"><g id="Shape_20" fill="#000" fill-rule="evenodd" clip-rule="evenodd"><path d="M2655.83 674.375c-.75 0-1.46-.292-2-.875-1-1.125-.91-2.833.17-3.833l6.49-6.19h-20.62c-1.49 0-2.7-1.212-2.7-2.708a2.705 2.705 0 0 1 2.7-2.709h20.59l-6.46-5.727c-1.13-1-1.17-2.708-.17-3.833 1-1.083 2.71-1.167 3.84-.167l11.29 10.269a2.91 2.91 0 0 1 0 4.333l-11.29 10.732c-.55.5-1.17.708-1.84.708Z"/><path d="M2645.5 628.917h-29.17c-.63 0-1.25.083-1.83.239l8.78 5.016a8.126 8.126 0 0 1 4.09 7.055v39.09a8.123 8.123 0 0 1-4.09 7.054l-9.3 5.313c.74.259 1.53.399 2.35.399h29.17c3.91 0 7.08-3.171 7.08-7.083v-1.458a2.707 2.707 0 0 1 2.71-2.709c1.5 0 2.71 1.213 2.71 2.709V686c0 6.904-5.6 12.5-12.5 12.5h-29.17c-6.9 0-12.5-5.596-12.5-12.5v-50c0-6.904 5.6-12.5 12.5-12.5h29.17c6.9 0 12.5 5.596 12.5 12.5v1.458a2.707 2.707 0 0 1-2.71 2.709c-1.5 0-2.71-1.213-2.71-2.709V636a7.082 7.082 0 0 0-7.08-7.083Zm-35.67 59.901 10.76-6.149a2.702 2.702 0 0 0 1.37-2.352v-39.09c0-3.86-9.24-6.848-11.96-8.405a7.06 7.06 0 0 0-.75 3.178v50c0 1.001.21 1.954.58 2.818Z"/></g></g></g><g id="Bold-S"><g id="Outline / Exit Outline_21"><g id="Shape_21" fill="#000" fill-rule="evenodd" clip-rule="evenodd"><path d="M2359.83 674.375c-.75 0-1.46-.292-2-.875-1-1.125-.91-2.833.17-3.833l6.49-6.19h-20.62c-1.49 0-2.7-1.212-2.7-2.708a2.705 2.705 0 0 1 2.7-2.709h20.59l-6.46-5.727c-1.13-1-1.17-2.708-.17-3.833 1-1.083 2.71-1.167 3.84-.167l11.29 10.269a2.91 2.91 0 0 1 0 4.333l-11.29 10.732c-.55.5-1.17.708-1.84.708Z"/><path d="M2349.5 628.917h-29.17c-.63 0-1.25.083-1.83.239l8.78 5.016a8.126 8.126 0 0 1 4.09 7.055v39.09a8.123 8.123 0 0 1-4.09 7.054l-9.3 5.313c.74.259 1.53.399 2.35.399h29.17c3.91 0 7.08-3.171 7.08-7.083v-1.458a2.707 2.707 0 0 1 2.71-2.709c1.5 0 2.71 1.213 2.71 2.709V686c0 6.904-5.6 12.5-12.5 12.5h-29.17c-6.9 0-12.5-5.596-12.5-12.5v-50c0-6.904 5.6-12.5 12.5-12.5h29.17c6.9 0 12.5 5.596 12.5 12.5v1.458a2.707 2.707 0 0 1-2.71 2.709c-1.5 0-2.71-1.213-2.71-2.709V636a7.082 7.082 0 0 0-7.08-7.083Zm-35.67 59.901 10.76-6.149a2.702 2.702 0 0 0 1.37-2.352v-39.09c0-3.86-9.24-6.848-11.96-8.405a7.06 7.06 0 0 0-.75 3.178v50c0 1.001.21 1.954.58 2.818Z"/></g></g></g><g id="Semibold-S"><g id="Outline / Exit Outline_22"><g id="Shape_22" fill="#000" fill-rule="evenodd" clip-rule="evenodd"><path d="M2063.83 674.375c-.75 0-1.46-.292-2-.875-1-1.125-.91-2.833.17-3.833l6.49-6.19h-20.62c-1.49 0-2.7-1.212-2.7-2.708a2.705 2.705 0 0 1 2.7-2.709h20.59l-6.46-5.727c-1.13-1-1.17-2.708-.17-3.833 1-1.083 2.71-1.167 3.84-.167l11.29 10.269a2.91 2.91 0 0 1 0 4.333l-11.29 10.732c-.55.5-1.17.708-1.84.708Z"/><path d="M2053.5 628.917h-29.17c-.63 0-1.25.083-1.83.239l8.78 5.016a8.126 8.126 0 0 1 4.09 7.055v39.09a8.123 8.123 0 0 1-4.09 7.054l-9.3 5.313c.74.259 1.53.399 2.35.399h29.17c3.91 0 7.08-3.171 7.08-7.083v-1.458a2.707 2.707 0 0 1 2.71-2.709c1.5 0 2.71 1.213 2.71 2.709V686c0 6.904-5.6 12.5-12.5 12.5h-29.17c-6.9 0-12.5-5.596-12.5-12.5v-50c0-6.904 5.6-12.5 12.5-12.5h29.17c6.9 0 12.5 5.596 12.5 12.5v1.458a2.707 2.707 0 0 1-2.71 2.709c-1.5 0-2.71-1.213-2.71-2.709V636a7.082 7.082 0 0 0-7.08-7.083Zm-35.67 59.901 10.76-6.149a2.702 2.702 0 0 0 1.37-2.352v-39.09c0-3.86-9.24-6.848-11.96-8.405a7.06 7.06 0 0 0-.75 3.178v50c0 1.001.21 1.954.58 2.818Z"/></g></g></g><g id="Medium-S"><g id="Outline / Exit Outline_23"><g id="Shape_23" fill="#000" fill-rule="evenodd" clip-rule="evenodd"><path d="M1767.83 674.375c-.75 0-1.46-.292-2-.875-1-1.125-.91-2.833.17-3.833l6.49-6.19h-20.62c-1.49 0-2.7-1.212-2.7-2.708a2.705 2.705 0 0 1 2.7-2.709h20.59l-6.46-5.727c-1.13-1-1.17-2.708-.17-3.833 1-1.083 2.71-1.167 3.84-.167l11.29 10.269a2.91 2.91 0 0 1 0 4.333l-11.29 10.732c-.55.5-1.17.708-1.84.708Z"/><path d="M1757.5 628.917h-29.17c-.63 0-1.25.083-1.83.239l8.78 5.016a8.126 8.126 0 0 1 4.09 7.055v39.09a8.123 8.123 0 0 1-4.09 7.054l-9.3 5.313c.74.259 1.53.399 2.35.399h29.17c3.91 0 7.08-3.171 7.08-7.083v-1.458a2.707 2.707 0 0 1 2.71-2.709c1.5 0 2.71 1.213 2.71 2.709V686c0 6.904-5.6 12.5-12.5 12.5h-29.17c-6.9 0-12.5-5.596-12.5-12.5v-50c0-6.904 5.6-12.5 12.5-12.5h29.17c6.9 0 12.5 5.596 12.5 12.5v1.458a2.707 2.707 0 0 1-2.71 2.709c-1.5 0-2.71-1.213-2.71-2.709V636a7.082 7.082 0 0 0-7.08-7.083Zm-35.67 59.901 10.76-6.149a2.702 2.702 0 0 0 1.37-2.352v-39.09c0-3.86-9.24-6.848-11.96-8.405a7.06 7.06 0 0 0-.75 3.178v50c0 1.001.21 1.954.58 2.818Z"/></g></g></g><g id="Regular-S"><g id="Outline / Exit Outline_24"><g id="Shape_24" fill="#000" fill-rule="evenodd" clip-rule="evenodd"><path d="M1471.83 674.375c-.75 0-1.46-.292-2-.875-1-1.125-.91-2.833.17-3.833l6.49-6.19h-20.62c-1.49 0-2.7-1.212-2.7-2.708a2.705 2.705 0 0 1 2.7-2.709h20.59l-6.46-5.727c-1.13-1-1.17-2.708-.17-3.833 1-1.083 2.71-1.167 3.84-.167l11.29 10.269a2.91 2.91 0 0 1 0 4.333l-11.29 10.732c-.55.5-1.17.708-1.84.708Z"/><path d="M1461.5 628.917h-29.17c-.63 0-1.25.083-1.83.239l8.78 5.016a8.126 8.126 0 0 1 4.09 7.055v39.09a8.123 8.123 0 0 1-4.09 7.054l-9.3 5.313c.74.259 1.53.399 2.35.399h29.17c3.91 0 7.08-3.171 7.08-7.083v-1.458a2.707 2.707 0 0 1 2.71-2.709c1.5 0 2.71 1.213 2.71 2.709V686c0 6.904-5.6 12.5-12.5 12.5h-29.17c-6.9 0-12.5-5.596-12.5-12.5v-50c0-6.904 5.6-12.5 12.5-12.5h29.17c6.9 0 12.5 5.596 12.5 12.5v1.458a2.707 2.707 0 0 1-2.71 2.709c-1.5 0-2.71-1.213-2.71-2.709V636a7.082 7.082 0 0 0-7.08-7.083Zm-35.67 59.901 10.76-6.149a2.702 2.702 0 0 0 1.37-2.352v-39.09c0-3.86-9.24-6.848-11.96-8.405a7.06 7.06 0 0 0-.75 3.178v50c0 1.001.21 1.954.58 2.818Z"/></g></g></g><g id="Light-S"><g id="Outline / Exit Outline_25"><g id="Shape_25" fill="#000" fill-rule="evenodd" clip-rule="evenodd"><path d="M1175.83 674.375c-.75 0-1.46-.292-2-.875-1-1.125-.91-2.833.17-3.833l6.49-6.19h-20.62c-1.49 0-2.7-1.212-2.7-2.708a2.705 2.705 0 0 1 2.7-2.709h20.59l-6.46-5.727c-1.13-1-1.17-2.708-.17-3.833 1-1.083 2.71-1.167 3.84-.167l11.29 10.269a2.91 2.91 0 0 1 0 4.333l-11.29 10.732c-.55.5-1.17.708-1.84.708Z"/><path d="M1165.5 628.917h-29.17c-.63 0-1.25.083-1.83.239l8.78 5.016a8.126 8.126 0 0 1 4.09 7.055v39.09a8.123 8.123 0 0 1-4.09 7.054l-9.3 5.313c.74.259 1.53.399 2.35.399h29.17c3.91 0 7.08-3.171 7.08-7.083v-1.458a2.707 2.707 0 0 1 2.71-2.709c1.5 0 2.71 1.213 2.71 2.709V686c0 6.904-5.6 12.5-12.5 12.5h-29.17c-6.9 0-12.5-5.596-12.5-12.5v-50c0-6.904 5.6-12.5 12.5-12.5h29.17c6.9 0 12.5 5.596 12.5 12.5v1.458a2.707 2.707 0 0 1-2.71 2.709c-1.5 0-2.71-1.213-2.71-2.709V636a7.082 7.082 0 0 0-7.08-7.083Zm-35.67 59.901 10.76-6.149a2.702 2.702 0 0 0 1.37-2.352v-39.09c0-3.86-9.24-6.848-11.96-8.405a7.06 7.06 0 0 0-.75 3.178v50c0 1.001.21 1.954.58 2.818Z"/></g></g></g><g id="Thin-S"><g id="Outline / Exit Outline_26"><g id="Shape_26" fill="#000" fill-rule="evenodd" clip-rule="evenodd"><path d="M879.832 674.375c-.75 0-1.458-.292-2-.875-1-1.125-.917-2.833.167-3.833l6.49-6.19h-20.615a2.708 2.708 0 1 1 0-5.417h20.585l-6.46-5.727c-1.125-1-1.167-2.708-.167-3.833 1-1.083 2.708-1.167 3.833-.167l11.292 10.269a2.906 2.906 0 0 1 0 4.333l-11.292 10.732a2.61 2.61 0 0 1-1.833.708Z"/><path d="M869.499 628.917h-29.167c-.633 0-1.247.083-1.831.239l8.779 5.016a8.127 8.127 0 0 1 4.094 7.055v39.09a8.124 8.124 0 0 1-4.094 7.054l-9.298 5.313a7.062 7.062 0 0 0 2.35.399h29.167a7.083 7.083 0 0 0 7.083-7.083v-1.458a2.709 2.709 0 1 1 5.417 0V686c0 6.904-5.597 12.5-12.5 12.5h-29.167c-6.904 0-12.5-5.596-12.5-12.5v-50c0-6.904 5.596-12.5 12.5-12.5h29.167c6.903 0 12.5 5.596 12.5 12.5v1.458a2.71 2.71 0 0 1-5.417 0V636a7.083 7.083 0 0 0-7.083-7.083Zm-35.668 59.901 10.761-6.149a2.71 2.71 0 0 0 1.365-2.352v-39.09c0-3.86-9.232-6.848-11.957-8.405a7.049 7.049 0 0 0-.751 3.178v50a7.06 7.06 0 0 0 .582 2.818Z"/></g></g></g><g id="Ultralight-S"><g id="Outline / Exit Outline_27"><g id="Shape_27" fill="#000" fill-rule="evenodd" clip-rule="evenodd"><path d="M583.832 674.375c-.75 0-1.458-.292-2-.875-1-1.125-.917-2.833.167-3.833l6.49-6.19h-20.615a2.708 2.708 0 1 1 0-5.417h20.585l-6.46-5.727c-1.125-1-1.167-2.708-.167-3.833 1-1.083 2.708-1.167 3.833-.167l11.292 10.269a2.906 2.906 0 0 1 0 4.333l-11.292 10.732a2.61 2.61 0 0 1-1.833.708Z"/><path d="M573.499 628.917h-29.167c-.633 0-1.247.083-1.831.239l8.779 5.016a8.127 8.127 0 0 1 4.094 7.055v39.09a8.124 8.124 0 0 1-4.094 7.054l-9.298 5.313a7.062 7.062 0 0 0 2.35.399h29.167a7.083 7.083 0 0 0 7.083-7.083v-1.458a2.709 2.709 0 1 1 5.417 0V686c0 6.904-5.597 12.5-12.5 12.5h-29.167c-6.904 0-12.5-5.596-12.5-12.5v-50c0-6.904 5.596-12.5 12.5-12.5h29.167c6.903 0 12.5 5.596 12.5 12.5v1.458a2.71 2.71 0 0 1-5.417 0V636a7.083 7.083 0 0 0-7.083-7.083Zm-35.668 59.901 10.761-6.149a2.71 2.71 0 0 0 1.365-2.352v-39.09c0-3.86-9.232-6.848-11.957-8.405a7.049 7.049 0 0 0-.751 3.178v50a7.06 7.06 0 0 0 .582 2.818Z"/></g></g></g></g></g><defs><clipPath id="clip0_805_27002"><path fill="#fff" d="M0 0h3300v2200H0z"/></clipPath></defs></svg>