<svg xmlns="http://www.w3.org/2000/svg" width="3300" height="2200" fill="none"><path fill="#E5E5E5" d="M0 0h3300v2200H0z"/><g id="System / Outline / Redo" clip-path="url(#clip0_805_27002)"><g id="Notes"><path id="artboard" fill="#fff" d="M3300 0H0v2200h3300V0Z"/><path id="Vector" stroke="#000" stroke-width=".5" d="M263 292h2773"/><text xml:space="preserve" id="Weight/Scale Variations" fill="#000" font-family="Roboto" font-size="12" letter-spacing="0em" style="white-space:pre"><tspan x="263" y="321.102">Weight/Scale Variations</tspan></text><text xml:space="preserve" id="Ultralight" fill="#000" font-family="Roboto" font-size="12" letter-spacing="0em" style="white-space:pre"><tspan x="535.211" y="321.102">Ultralight</tspan></text><text xml:space="preserve" id="Thin" fill="#000" font-family="Roboto" font-size="12" letter-spacing="0em" style="white-space:pre"><tspan x="844.422" y="321.102">Thin</tspan></text><text xml:space="preserve" id="Light" fill="#000" font-family="Roboto" font-size="12" letter-spacing="0em" style="white-space:pre"><tspan x="1139.63" y="321.102">Light</tspan></text><text xml:space="preserve" id="Regular" fill="#000" font-family="Roboto" font-size="12" letter-spacing="0em" style="white-space:pre"><tspan x="1429.34" y="321.102">Regular</tspan></text><text xml:space="preserve" id="Medium" fill="#000" font-family="Roboto" font-size="12" letter-spacing="0em" style="white-space:pre"><tspan x="1724.56" y="321.102">Medium</tspan></text><text xml:space="preserve" id="Semibold" fill="#000" font-family="Roboto" font-size="12" letter-spacing="0em" style="white-space:pre"><tspan x="2017.77" y="321.102">Semibold</tspan></text><text xml:space="preserve" id="Bold" fill="#000" font-family="Roboto" font-size="12" letter-spacing="0em" style="white-space:pre"><tspan x="2327.48" y="321.102">Bold</tspan></text><text xml:space="preserve" id="Heavy" fill="#000" font-family="Roboto" font-size="12" letter-spacing="0em" style="white-space:pre"><tspan x="2620.19" y="321.102">Heavy</tspan></text><text xml:space="preserve" id="Black" fill="#000" font-family="Roboto" font-size="12" letter-spacing="0em" style="white-space:pre"><tspan x="2918.4" y="321.102">Black</tspan></text><path id="Vector_2" stroke="#000" stroke-width=".5" d="M263 1903h2773"/><g id="Group"><path id="Vector_3" fill="#000" d="M272.248 1933.83c4.307 0 7.891-3.57 7.891-7.88 0-4.31-3.594-7.88-7.901-7.88-4.297 0-7.871 3.57-7.871 7.88 0 4.31 3.584 7.88 7.881 7.88Zm0-1.48c-3.545 0-6.377-2.84-6.377-6.4 0-3.55 2.822-6.4 6.367-6.4a6.388 6.388 0 0 1 6.406 6.4 6.361 6.361 0 0 1-6.396 6.4Zm-.019-2.78c.468 0 .742-.31.742-.83v-2.06h2.226c.498 0 .84-.25.84-.72 0-.48-.322-.74-.84-.74h-2.226v-2.23c0-.52-.274-.84-.742-.84-.469 0-.723.34-.723.84v2.23h-2.207c-.518 0-.85.26-.85.74 0 .47.352.72.85.72h2.207v2.06c0 .5.254.83.723.83Z"/></g><g id="Group_2"><path id="Vector_4" fill="#000" d="M293.215 1935.91c5.449 0 9.961-4.51 9.961-9.96 0-5.44-4.522-9.96-9.971-9.96-5.439 0-9.951 4.52-9.951 9.96 0 5.45 4.521 9.96 9.961 9.96Zm0-1.66a8.26 8.26 0 0 1-8.291-8.3c0-4.6 3.672-8.3 8.281-8.3a8.29 8.29 0 0 1 8.311 8.3 8.263 8.263 0 0 1-8.301 8.3Zm-.02-3.66c.518 0 .83-.36.83-.93v-2.89h3.057c.547 0 .928-.28.928-.8 0-.53-.362-.83-.928-.83h-3.057v-3.07c0-.57-.312-.93-.83-.93-.517 0-.81.38-.81.93v3.07h-3.047c-.567 0-.938.3-.938.83 0 .52.391.8.938.8h3.047v2.89c0 .55.293.93.81.93Z"/></g><g id="Group_3"><path id="Vector_5" fill="#000" d="M319.895 1938.67c6.962 0 12.724-5.75 12.724-12.71 0-6.97-5.771-12.72-12.734-12.72-6.953 0-12.705 5.75-12.705 12.72 0 6.96 5.761 12.71 12.715 12.71Zm0-1.81a10.874 10.874 0 0 1-10.889-10.9c0-6.04 4.844-10.9 10.879-10.9 6.045 0 10.898 4.86 10.908 10.9a10.87 10.87 0 0 1-10.898 10.9Zm-.02-4.93c.566 0 .918-.39.918-.99v-4.07h4.238c.586 0 1.006-.34 1.006-.89 0-.58-.39-.92-1.006-.92h-4.238v-4.25c0-.61-.352-1.01-.918-1.01-.566 0-.889.41-.889 1.01v4.25h-4.228c-.615 0-1.026.34-1.026.92 0 .55.43.89 1.026.89h4.228v4.07c0 .58.323.99.889.99Z"/></g><text xml:space="preserve" id="Design Variations" fill="#000" font-family="Roboto" font-size="12" letter-spacing="0em" style="white-space:pre"><tspan x="263" y="1952.1">Design Variations</tspan></text><text xml:space="preserve" id="Symbols are supported in up to nine weights and three scales." fill="#000" font-family="Roboto" font-size="12" letter-spacing="0em" style="white-space:pre"><tspan x="263" y="1970.1">Symbols are supported in up to nine weights and three scales.</tspan></text><text xml:space="preserve" id="For optimal layout with text and other symbols, vertically align" fill="#000" font-family="Roboto" font-size="12" letter-spacing="0em" style="white-space:pre"><tspan x="263" y="1988.1">For optimal layout with text and other symbols, vertically align</tspan></text><text xml:space="preserve" id="symbols with the adjacent text." fill="#000" font-family="Roboto" font-size="12" letter-spacing="0em" style="white-space:pre"><tspan x="263" y="2006.1">symbols with the adjacent text.</tspan></text><path id="Vector_6" fill="#00AEEF" d="M779 1919h-3v14h3v-14Z" opacity=".4"/><g id="Group_4"><path id="Vector_7" fill="#000" d="M789.525 1933h1.846l-5.195-14.09h-1.739l-5.195 14.09h1.846l1.416-4.04h5.605l1.416 4.04Zm-4.248-11.96h.059l2.256 6.43h-4.571l2.256-6.43Z"/></g><path id="Vector_8" fill="#00AEEF" d="M794.617 1919h-3v14h3v-14Z" opacity=".4"/><text xml:space="preserve" id="Margins" fill="#000" font-family="Roboto" font-size="12" letter-spacing="0em" style="white-space:pre"><tspan x="776" y="1952.1">Margins</tspan></text><text xml:space="preserve" id="Leading and trailing margins on the left and right side of each symbol" fill="#000" font-family="Roboto" font-size="12" letter-spacing="0em" style="white-space:pre"><tspan x="776" y="1970.1">Leading and trailing margins on the left and right side of each symbol</tspan></text><text xml:space="preserve" id="can be adjusted by modifying the width of the blue rectangles." fill="#000" font-family="Roboto" font-size="12" letter-spacing="0em" style="white-space:pre"><tspan x="776" y="1988.1">can be adjusted by modifying the width of the blue rectangles.</tspan></text><text xml:space="preserve" id="Modifications are automatically applied proportionally to all" fill="#000" font-family="Roboto" font-size="12" letter-spacing="0em" style="white-space:pre"><tspan x="776" y="2006.1">Modifications are automatically applied proportionally to all</tspan></text><text xml:space="preserve" id="scales and weights." fill="#000" font-family="Roboto" font-size="12" letter-spacing="0em" style="white-space:pre"><tspan x="776" y="2024.1">scales and weights.</tspan></text><g id="Group_5"><path id="Vector_9" fill="#000" d="m1291.83 1936.11 1.54 1.55c.85.83 1.82.76 2.69-.2l10.21-11.12c.43.29.83.28 1.29.18l1.05-.21.69.69-.05.52c-.06.53.1.95.6 1.45l.81.81c.51.5 1.16.53 1.64.05l3.25-3.25c.48-.48.46-1.13-.05-1.64l-.82-.82c-.49-.5-.91-.67-1.44-.59l-.53.05-.65-.66.28-1.14c.15-.57 0-1.04-.63-1.64l-2.41-2.39c-3.54-3.53-8.07-3.42-11.19-.29-.42.43-.47 1.02-.19 1.45.23.37.71.59 1.35.43 1.52-.38 3.03-.27 4.51.74l-.62 1.58c-.23.59-.22 1.07.02 1.5l-11.16 10.28c-.94.87-1.05 1.81-.19 2.67Zm7.84-18.26c2.67-1.99 5.98-1.68 8.38.73l2.63 2.61c.23.24.26.42.2.72l-.38 1.56 1.58 1.57.96-.09c.29-.03.37-.01.6.22l.62.62-2.75 2.75-.63-.62c-.22-.22-.24-.32-.21-.6l.09-.96-1.57-1.56-1.62.31c-.28.06-.43.06-.66-.19l-2.18-2.17c-.22-.24-.25-.38-.12-.7l.94-2.27c-1.6-1.54-3.71-2.39-5.75-1.73-.09.03-.16.01-.19-.03-.02-.05-.02-.1.06-.17Zm-6.57 17.56c-.49-.5-.31-.8.02-1.1l10.96-10.12 1.23 1.23-10.16 10.93c-.3.33-.68.43-1.08.03l-.97-.97Z"/></g><text xml:space="preserve" id="Exporting" fill="#000" font-family="Roboto" font-size="12" letter-spacing="0em" style="white-space:pre"><tspan x="1289" y="1952.1">Exporting</tspan></text><text xml:space="preserve" id="Symbols should be outlined when exporting to ensure the" fill="#000" font-family="Roboto" font-size="12" letter-spacing="0em" style="white-space:pre"><tspan x="1289" y="1970.1">Symbols should be outlined when exporting to ensure the</tspan></text><text xml:space="preserve" id="design is preserved when submitting to Xcode." fill="#000" font-family="Roboto" font-size="12" letter-spacing="0em" style="white-space:pre"><tspan x="1289" y="1988.1">design is preserved when submitting to Xcode.</tspan></text><text xml:space="preserve" id="template-version" fill="#000" font-family="Roboto" font-size="12" letter-spacing="0em" style="white-space:pre"><tspan x="2958" y="1932.1">Template v.1.0</tspan></text><text xml:space="preserve" id="Generated from pencil.circle" fill="#000" font-family="Roboto" font-size="12" letter-spacing="0em" style="white-space:pre"><tspan x="2885" y="1950.1">Generated from pencil.circle</tspan></text><text xml:space="preserve" id="Typeset at 100 points" fill="#000" font-family="Roboto" font-size="12" letter-spacing="0em" style="white-space:pre"><tspan x="2921" y="1968.1">Typeset at 100 points</tspan></text><text xml:space="preserve" id="Small" fill="#000" font-family="Roboto" font-size="12" letter-spacing="0em" style="white-space:pre"><tspan x="263" y="725.102">Small</tspan></text><text xml:space="preserve" id="Medium_2" fill="#000" font-family="Roboto" font-size="12" letter-spacing="0em" style="white-space:pre"><tspan x="263" y="1155.1">Medium</tspan></text><text xml:space="preserve" id="Large" fill="#000" font-family="Roboto" font-size="12" letter-spacing="0em" style="white-space:pre"><tspan x="263" y="1585.1">Large</tspan></text></g><g id="Guides"><g id="H-reference"><path id="Vector_10" fill="#27AAE1" d="M393.932 695.998h2.734l-27.1-70.459h-2.49l-27.099 70.459h2.685l9.278-24.463h32.763l9.229 24.463Zm-25.733-67.09h.244l15.381 40.381h-31.006l15.381-40.381Z"/></g><path id="Baseline-S" stroke="#27AAE1" stroke-width=".577" d="M263 696h2773"/><path id="Capline-S" stroke="#27AAE1" stroke-width=".577" d="M263 626h2773"/><g id="H-reference_2"><path id="Vector_11" fill="#27AAE1" d="M393.932 1126h2.734l-27.1-70.46h-2.49L339.977 1126h2.685l9.278-24.46h32.763l9.229 24.46Zm-25.733-67.09h.244l15.381 40.38h-31.006l15.381-40.38Z"/></g><path id="Baseline-M" stroke="#27AAE1" stroke-width=".577" d="M263 1126h2773"/><path id="Capline-M" stroke="#27AAE1" stroke-width=".577" d="M263 1056h2773"/><g id="H-reference_3"><path id="Vector_12" fill="#27AAE1" d="M393.932 1556h2.734l-27.1-70.46h-2.49L339.977 1556h2.685l9.278-24.46h32.763l9.229 24.46Zm-25.733-67.09h.244l15.381 40.38h-31.006l15.381-40.38Z"/></g><g id="Group 1" stroke="#27AAE1" stroke-width=".577"><path id="Baseline-L" d="M263 1556h2773"/><path id="Capline-L" d="M263 1486h2773"/></g><path id="left-margin" fill="#00AEEF" d="M1397.04 1030.79h-8.74v119.33h8.74v-119.33Z" opacity=".4"/><path id="right-margin" fill="#00AEEF" d="M1506.39 1030.79h-8.74v119.33h8.74v-119.33Z" opacity=".4"/></g><g id="Symbols"><g id="Black-L"><g id="Outline / Redo Outline"><path id="Shape" fill="#000" d="M2915.66 1478.87c5.92-2.72 12.5-4.28 19.49-4.28 25.59 0 46.43 20.77 46.43 46.42 0 25.66-20.77 46.43-46.43 46.43-25.64 0-46.35-20.83-46.35-46.43 0-.82.02-1.63.07-2.44l8.18 8.74a4.977 4.977 0 0 0 3.6 1.58c1.2 0 2.33-.38 3.15-1.35 1.95-1.88 2.1-4.95.23-6.9l-16.43-17.63c-2.02-2.25-5.55-2.25-7.65 0l-16.42 17.63c-1.88 1.95-1.73 5.02.22 6.9 1.95 1.87 5.03 1.72 6.9-.23l8.47-9.04c-.04.91-.07 1.82-.07 2.74 0 30.95 25.05 56.18 56.1 56.18s56.18-25.14 56.18-56.18c0-31.05-25.21-56.17-56.18-56.17-8.46 0-16.42 1.89-23.56 5.17-2.44 1.12-3.52 4.02-2.39 6.46a4.873 4.873 0 0 0 6.46 2.4Z"/></g></g><g id="Heavy-L"><g id="Outline / Redo Outline_2"><path id="Shape_2" fill="#000" d="M2619.66 1478.87c5.92-2.72 12.5-4.28 19.49-4.28 25.59 0 46.43 20.77 46.43 46.42 0 25.66-20.77 46.43-46.43 46.43-25.64 0-46.35-20.83-46.35-46.43 0-.82.02-1.63.07-2.44l8.18 8.74a4.977 4.977 0 0 0 3.6 1.58c1.2 0 2.33-.38 3.15-1.35 1.95-1.88 2.1-4.95.23-6.9l-16.43-17.63c-2.02-2.25-5.55-2.25-7.65 0l-16.42 17.63c-1.88 1.95-1.73 5.02.22 6.9 1.95 1.87 5.03 1.72 6.9-.23l8.47-9.04c-.04.91-.07 1.82-.07 2.74 0 30.95 25.05 56.18 56.1 56.18s56.18-25.14 56.18-56.18c0-31.05-25.21-56.17-56.18-56.17-8.46 0-16.42 1.89-23.56 5.17-2.44 1.12-3.52 4.02-2.39 6.46a4.873 4.873 0 0 0 6.46 2.4Z"/></g></g><g id="Bold-L"><g id="Outline / Redo Outline_3"><path id="Shape_3" fill="#000" d="M2323.66 1478.87c5.92-2.72 12.5-4.28 19.49-4.28 25.59 0 46.43 20.77 46.43 46.42 0 25.66-20.77 46.43-46.43 46.43-25.64 0-46.35-20.83-46.35-46.43 0-.82.02-1.63.07-2.44l8.18 8.74a4.977 4.977 0 0 0 3.6 1.58c1.2 0 2.33-.38 3.15-1.35 1.95-1.88 2.1-4.95.23-6.9l-16.43-17.63c-2.02-2.25-5.55-2.25-7.65 0l-16.42 17.63c-1.88 1.95-1.73 5.02.22 6.9 1.95 1.87 5.03 1.72 6.9-.23l8.47-9.04c-.04.91-.07 1.82-.07 2.74 0 30.95 25.05 56.18 56.1 56.18s56.18-25.14 56.18-56.18c0-31.05-25.21-56.17-56.18-56.17-8.46 0-16.42 1.89-23.56 5.17-2.44 1.12-3.52 4.02-2.39 6.46a4.873 4.873 0 0 0 6.46 2.4Z"/></g></g><g id="Semibold-L"><g id="Outline / Redo Outline_4"><path id="Shape_4" fill="#000" d="M2027.66 1478.87c5.92-2.72 12.5-4.28 19.49-4.28 25.59 0 46.43 20.77 46.43 46.42 0 25.66-20.77 46.43-46.43 46.43-25.64 0-46.35-20.83-46.35-46.43 0-.82.02-1.63.07-2.44l8.18 8.74a4.977 4.977 0 0 0 3.6 1.58c1.2 0 2.33-.38 3.15-1.35 1.95-1.88 2.1-4.95.23-6.9l-16.43-17.63c-2.02-2.25-5.55-2.25-7.65 0l-16.42 17.63c-1.88 1.95-1.73 5.02.22 6.9 1.95 1.87 5.03 1.72 6.9-.23l8.47-9.04c-.04.91-.07 1.82-.07 2.74 0 30.95 25.05 56.18 56.1 56.18s56.18-25.14 56.18-56.18c0-31.05-25.21-56.17-56.18-56.17-8.46 0-16.42 1.89-23.56 5.17-2.44 1.12-3.52 4.02-2.39 6.46a4.873 4.873 0 0 0 6.46 2.4Z"/></g></g><g id="Medium-L"><g id="Outline / Redo Outline_5"><path id="Shape_5" fill="#000" d="M1731.66 1478.87c5.92-2.72 12.5-4.28 19.49-4.28 25.59 0 46.43 20.77 46.43 46.42 0 25.66-20.77 46.43-46.43 46.43-25.64 0-46.35-20.83-46.35-46.43 0-.82.02-1.63.07-2.44l8.18 8.74a4.977 4.977 0 0 0 3.6 1.58c1.2 0 2.33-.38 3.15-1.35 1.95-1.88 2.1-4.95.23-6.9l-16.43-17.63c-2.02-2.25-5.55-2.25-7.65 0l-16.42 17.63c-1.88 1.95-1.73 5.02.22 6.9 1.95 1.87 5.03 1.72 6.9-.23l8.47-9.04c-.04.91-.07 1.82-.07 2.74 0 30.95 25.05 56.18 56.1 56.18s56.18-25.14 56.18-56.18c0-31.05-25.21-56.17-56.18-56.17-8.46 0-16.42 1.89-23.56 5.17-2.44 1.12-3.52 4.02-2.39 6.46a4.873 4.873 0 0 0 6.46 2.4Z"/></g></g><g id="Regular-L"><g id="Outline / Redo Outline_6"><path id="Shape_6" fill="#000" d="M1435.66 1478.87c5.92-2.72 12.5-4.28 19.49-4.28 25.59 0 46.43 20.77 46.43 46.42 0 25.66-20.77 46.43-46.43 46.43-25.64 0-46.35-20.83-46.35-46.43 0-.82.02-1.63.07-2.44l8.18 8.74a4.977 4.977 0 0 0 3.6 1.58c1.2 0 2.33-.38 3.15-1.35 1.95-1.88 2.1-4.95.23-6.9l-16.43-17.63c-2.02-2.25-5.55-2.25-7.65 0l-16.42 17.63c-1.88 1.95-1.73 5.02.22 6.9 1.95 1.87 5.03 1.72 6.9-.23l8.47-9.04c-.04.91-.07 1.82-.07 2.74 0 30.95 25.05 56.18 56.1 56.18s56.18-25.14 56.18-56.18c0-31.05-25.21-56.17-56.18-56.17-8.46 0-16.42 1.89-23.56 5.17-2.44 1.12-3.52 4.02-2.39 6.46a4.873 4.873 0 0 0 6.46 2.4Z"/></g></g><g id="Light-L"><g id="Outline / Redo Outline_7"><path id="Shape_7" fill="#000" d="M1139.66 1478.87c5.92-2.72 12.5-4.28 19.49-4.28 25.59 0 46.43 20.77 46.43 46.42 0 25.66-20.77 46.43-46.43 46.43-25.64 0-46.35-20.83-46.35-46.43 0-.82.02-1.63.07-2.44l8.18 8.74a4.977 4.977 0 0 0 3.6 1.58c1.2 0 2.33-.38 3.15-1.35 1.95-1.88 2.1-4.95.23-6.9l-16.43-17.63c-2.02-2.25-5.55-2.25-7.65 0l-16.42 17.63c-1.88 1.95-1.73 5.02.22 6.9 1.95 1.87 5.03 1.72 6.9-.23l8.47-9.04c-.04.91-.07 1.82-.07 2.74 0 30.95 25.05 56.18 56.1 56.18s56.18-25.14 56.18-56.18c0-31.05-25.21-56.17-56.18-56.17-8.46 0-16.42 1.89-23.56 5.17-2.44 1.12-3.52 4.02-2.39 6.46a4.873 4.873 0 0 0 6.46 2.4Z"/></g></g><g id="Thin-L"><g id="Outline / Redo Outline_8"><path id="Shape_8" fill="#000" d="M843.665 1478.87a46.491 46.491 0 0 1 19.488-4.28c25.588 0 46.425 20.77 46.425 46.42 0 25.66-20.767 46.43-46.425 46.43-25.643 0-46.35-20.83-46.35-46.43 0-.82.022-1.63.064-2.44l8.186 8.74a4.96 4.96 0 0 0 3.6 1.58c1.2 0 2.325-.38 3.15-1.35 1.95-1.88 2.1-4.95.225-6.9l-16.425-17.63c-2.025-2.25-5.55-2.25-7.65 0l-16.425 17.63c-1.875 1.95-1.725 5.02.225 6.9 1.95 1.87 5.025 1.72 6.9-.23l8.466-9.04c-.044.91-.066 1.82-.066 2.74 0 30.95 25.044 56.18 56.1 56.18 31.043 0 56.175-25.14 56.175-56.18 0-31.05-25.212-56.17-56.175-56.17a56.244 56.244 0 0 0-23.561 5.17 4.869 4.869 0 0 0-2.393 6.46 4.88 4.88 0 0 0 6.466 2.4Z"/></g></g><g id="Ultralight-L"><g id="Outline / Redo Outline_9"><path id="Shape_9" fill="#000" d="M547.665 1478.87a46.491 46.491 0 0 1 19.488-4.28c25.588 0 46.425 20.77 46.425 46.42 0 25.66-20.767 46.43-46.425 46.43-25.643 0-46.35-20.83-46.35-46.43 0-.82.022-1.63.064-2.44l8.186 8.74a4.96 4.96 0 0 0 3.6 1.58c1.2 0 2.325-.38 3.15-1.35 1.95-1.88 2.1-4.95.225-6.9l-16.425-17.63c-2.025-2.25-5.55-2.25-7.65 0l-16.425 17.63c-1.875 1.95-1.725 5.02.225 6.9 1.95 1.87 5.025 1.72 6.9-.23l8.466-9.04c-.044.91-.066 1.82-.066 2.74 0 30.95 25.044 56.18 56.1 56.18 31.043 0 56.175-25.14 56.175-56.18 0-31.05-25.212-56.17-56.175-56.17a56.244 56.244 0 0 0-23.561 5.17 4.869 4.869 0 0 0-2.393 6.46 4.88 4.88 0 0 0 6.466 2.4Z"/></g></g><g id="Black-M"><g id="Outline / Redo Outline_10"><path id="Shape_10" fill="#000" d="M2918.63 1058.23c4.6-2.12 9.72-3.33 15.16-3.33 19.9 0 36.1 16.16 36.1 36.11s-16.15 36.11-36.1 36.11c-19.95 0-36.05-16.2-36.05-36.11 0-.64.01-1.27.05-1.9l6.36 6.8a3.88 3.88 0 0 0 2.8 1.22c.94 0 1.81-.29 2.45-1.05 1.52-1.46 1.64-3.85.18-5.36l-12.78-13.71c-1.57-1.75-4.31-1.75-5.95 0l-12.77 13.71c-1.46 1.51-1.34 3.9.17 5.36 1.52 1.46 3.91 1.34 5.37-.17l6.58-7.04c-.03.71-.05 1.42-.05 2.14 0 24.07 19.48 43.69 43.64 43.69 24.14 0 43.69-19.55 43.69-43.69 0-24.15-19.61-43.69-43.69-43.69-6.58 0-12.78 1.47-18.33 4.02-1.9.87-2.74 3.12-1.86 5.03.87 1.9 3.13 2.73 5.03 1.86Z"/></g></g><g id="Heavy-M"><g id="Outline / Redo Outline_11"><path id="Shape_11" fill="#000" d="M2622.63 1058.23c4.6-2.12 9.72-3.33 15.16-3.33 19.9 0 36.1 16.16 36.1 36.11s-16.15 36.11-36.1 36.11c-19.95 0-36.05-16.2-36.05-36.11 0-.64.01-1.27.05-1.9l6.36 6.8a3.88 3.88 0 0 0 2.8 1.22c.94 0 1.81-.29 2.45-1.05 1.52-1.46 1.64-3.85.18-5.36l-12.78-13.71c-1.57-1.75-4.31-1.75-5.95 0l-12.77 13.71c-1.46 1.51-1.34 3.9.17 5.36 1.52 1.46 3.91 1.34 5.37-.17l6.58-7.04c-.03.71-.05 1.42-.05 2.14 0 24.07 19.48 43.69 43.64 43.69 24.14 0 43.69-19.55 43.69-43.69 0-24.15-19.61-43.69-43.69-43.69-6.58 0-12.78 1.47-18.33 4.02-1.9.87-2.74 3.12-1.86 5.03.87 1.9 3.13 2.73 5.03 1.86Z"/></g></g><g id="Bold-M"><g id="Outline / Redo Outline_12"><path id="Shape_12" fill="#000" d="M2326.63 1058.23c4.6-2.12 9.72-3.33 15.16-3.33 19.9 0 36.1 16.16 36.1 36.11s-16.15 36.11-36.1 36.11c-19.95 0-36.05-16.2-36.05-36.11 0-.64.01-1.27.05-1.9l6.36 6.8a3.88 3.88 0 0 0 2.8 1.22c.94 0 1.81-.29 2.45-1.05 1.52-1.46 1.64-3.85.18-5.36l-12.78-13.71c-1.57-1.75-4.31-1.75-5.95 0l-12.77 13.71c-1.46 1.51-1.34 3.9.17 5.36 1.52 1.46 3.91 1.34 5.37-.17l6.58-7.04c-.03.71-.05 1.42-.05 2.14 0 24.07 19.48 43.69 43.64 43.69 24.14 0 43.69-19.55 43.69-43.69 0-24.15-19.61-43.69-43.69-43.69-6.58 0-12.78 1.47-18.33 4.02-1.9.87-2.74 3.12-1.86 5.03.87 1.9 3.13 2.73 5.03 1.86Z"/></g></g><g id="Semibold-M"><g id="Outline / Redo Outline_13"><path id="Shape_13" fill="#000" d="M2030.63 1058.23c4.6-2.12 9.72-3.33 15.16-3.33 19.9 0 36.1 16.16 36.1 36.11s-16.15 36.11-36.1 36.11c-19.95 0-36.05-16.2-36.05-36.11 0-.64.01-1.27.05-1.9l6.36 6.8a3.88 3.88 0 0 0 2.8 1.22c.94 0 1.81-.29 2.45-1.05 1.52-1.46 1.64-3.85.18-5.36l-12.78-13.71c-1.57-1.75-4.31-1.75-5.95 0l-12.77 13.71c-1.46 1.51-1.34 3.9.17 5.36 1.52 1.46 3.91 1.34 5.37-.17l6.58-7.04c-.03.71-.05 1.42-.05 2.14 0 24.07 19.48 43.69 43.64 43.69 24.14 0 43.69-19.55 43.69-43.69 0-24.15-19.61-43.69-43.69-43.69-6.58 0-12.78 1.47-18.33 4.02-1.9.87-2.74 3.12-1.86 5.03.87 1.9 3.13 2.73 5.03 1.86Z"/></g></g><g id="Medium-M"><g id="Outline / Redo Outline_14"><path id="Shape_14" fill="#000" d="M1734.63 1058.23c4.6-2.12 9.72-3.33 15.16-3.33 19.9 0 36.1 16.16 36.1 36.11s-16.15 36.11-36.1 36.11c-19.95 0-36.05-16.2-36.05-36.11 0-.64.01-1.27.05-1.9l6.36 6.8a3.88 3.88 0 0 0 2.8 1.22c.94 0 1.81-.29 2.45-1.05 1.52-1.46 1.64-3.85.18-5.36l-12.78-13.71c-1.57-1.75-4.31-1.75-5.95 0l-12.77 13.71c-1.46 1.51-1.34 3.9.17 5.36 1.52 1.46 3.91 1.34 5.37-.17l6.58-7.04c-.03.71-.05 1.42-.05 2.14 0 24.07 19.48 43.69 43.64 43.69 24.14 0 43.69-19.55 43.69-43.69 0-24.15-19.61-43.69-43.69-43.69-6.58 0-12.78 1.47-18.33 4.02-1.9.87-2.74 3.12-1.86 5.03.87 1.9 3.13 2.73 5.03 1.86Z"/></g></g><g id="Regular-M"><g id="Outline / Redo Outline_15"><path id="Shape_15" fill="#000" d="M1438.63 1058.23c4.6-2.12 9.72-3.33 15.16-3.33 19.9 0 36.1 16.16 36.1 36.11s-16.15 36.11-36.1 36.11c-19.95 0-36.05-16.2-36.05-36.11 0-.64.01-1.27.05-1.9l6.36 6.8a3.88 3.88 0 0 0 2.8 1.22c.94 0 1.81-.29 2.45-1.05 1.52-1.46 1.64-3.85.18-5.36l-12.78-13.71c-1.57-1.75-4.31-1.75-5.95 0l-12.77 13.71c-1.46 1.51-1.34 3.9.17 5.36 1.52 1.46 3.91 1.34 5.37-.17l6.58-7.04c-.03.71-.05 1.42-.05 2.14 0 24.07 19.48 43.69 43.64 43.69 24.14 0 43.69-19.55 43.69-43.69 0-24.15-19.61-43.69-43.69-43.69-6.58 0-12.78 1.47-18.33 4.02-1.9.87-2.74 3.12-1.86 5.03.87 1.9 3.13 2.73 5.03 1.86Z"/></g></g><g id="Light-M"><g id="Outline / Redo Outline_16"><path id="Shape_16" fill="#000" d="M1142.63 1058.23c4.6-2.12 9.72-3.33 15.16-3.33 19.9 0 36.1 16.16 36.1 36.11s-16.15 36.11-36.1 36.11c-19.95 0-36.05-16.2-36.05-36.11 0-.64.01-1.27.05-1.9l6.36 6.8a3.88 3.88 0 0 0 2.8 1.22c.94 0 1.81-.29 2.45-1.05 1.52-1.46 1.64-3.85.18-5.36l-12.78-13.71c-1.57-1.75-4.31-1.75-5.95 0l-12.77 13.71c-1.46 1.51-1.34 3.9.17 5.36 1.52 1.46 3.91 1.34 5.37-.17l6.58-7.04c-.03.71-.05 1.42-.05 2.14 0 24.07 19.48 43.69 43.64 43.69 24.14 0 43.69-19.55 43.69-43.69 0-24.15-19.61-43.69-43.69-43.69-6.58 0-12.78 1.47-18.33 4.02-1.9.87-2.74 3.12-1.86 5.03.87 1.9 3.13 2.73 5.03 1.86Z"/></g></g><g id="Thin-M"><g id="Outline / Redo Outline_17"><path id="Shape_17" fill="#000" d="M846.628 1058.23a36.097 36.097 0 0 1 15.158-3.33c19.901 0 36.108 16.16 36.108 36.11s-16.152 36.11-36.108 36.11c-19.945 0-36.05-16.2-36.05-36.11 0-.64.016-1.27.049-1.9l6.368 6.8a3.874 3.874 0 0 0 2.8 1.22c.933 0 1.808-.29 2.45-1.05 1.516-1.46 1.633-3.85.175-5.36l-12.775-13.71c-1.575-1.75-4.317-1.75-5.95 0l-12.775 13.71c-1.459 1.51-1.342 3.9.175 5.36 1.516 1.46 3.908 1.34 5.366-.17l6.585-7.04a44.63 44.63 0 0 0-.051 2.14c0 24.07 19.478 43.69 43.633 43.69 24.144 0 43.692-19.55 43.692-43.69 0-24.15-19.61-43.69-43.692-43.69-6.58 0-12.777 1.47-18.326 4.02a3.79 3.79 0 0 0-1.861 5.03 3.798 3.798 0 0 0 5.029 1.86Z"/></g></g><g id="Ultralight-M"><g id="Outline / Redo Outline_18"><path id="Shape_18" fill="#000" d="M550.628 1058.23a36.097 36.097 0 0 1 15.158-3.33c19.901 0 36.108 16.16 36.108 36.11s-16.152 36.11-36.108 36.11c-19.945 0-36.05-16.2-36.05-36.11 0-.64.016-1.27.049-1.9l6.368 6.8a3.874 3.874 0 0 0 2.8 1.22c.933 0 1.808-.29 2.45-1.05 1.516-1.46 1.633-3.85.175-5.36l-12.775-13.71c-1.575-1.75-4.317-1.75-5.95 0l-12.775 13.71c-1.459 1.51-1.342 3.9.175 5.36 1.516 1.46 3.908 1.34 5.366-.17l6.585-7.04a44.63 44.63 0 0 0-.051 2.14c0 24.07 19.478 43.69 43.633 43.69 24.144 0 43.692-19.55 43.692-43.69 0-24.15-19.61-43.69-43.692-43.69-6.58 0-12.777 1.47-18.326 4.02a3.79 3.79 0 0 0-1.861 5.03 3.798 3.798 0 0 0 5.029 1.86Z"/></g></g><g id="Black-S"><g id="Outline / Redo Outline_19"><path id="Shape_19" fill="#000" d="M2921.59 637.591a25.868 25.868 0 0 1 10.83-2.377c14.21 0 25.79 11.54 25.79 25.791 0 14.254-11.54 25.792-25.79 25.792s-25.75-11.571-25.75-25.792c0-.455.01-.908.03-1.358l4.55 4.858c.54.584 1.29.875 2 .875.67 0 1.29-.208 1.75-.75 1.09-1.041 1.17-2.75.13-3.833l-9.13-9.792c-1.12-1.25-3.08-1.25-4.25 0l-9.12 9.792c-1.04 1.083-.96 2.792.12 3.833 1.09 1.042 2.79.959 3.84-.125l4.7-5.024c-.03.506-.04 1.015-.04 1.524 0 17.197 13.92 31.209 31.17 31.209 17.24 0 31.21-13.963 31.21-31.209 0-17.248-14.01-31.208-31.21-31.208-4.7 0-9.13 1.05-13.09 2.872a2.705 2.705 0 0 0-1.33 3.593 2.704 2.704 0 0 0 3.59 1.329Z"/></g></g><g id="Heavy-S"><g id="Outline / Redo Outline_20"><path id="Shape_20" fill="#000" d="M2625.59 637.591a25.868 25.868 0 0 1 10.83-2.377c14.21 0 25.79 11.54 25.79 25.791 0 14.254-11.54 25.792-25.79 25.792s-25.75-11.571-25.75-25.792c0-.455.01-.908.03-1.358l4.55 4.858c.54.584 1.29.875 2 .875.67 0 1.29-.208 1.75-.75 1.09-1.041 1.17-2.75.13-3.833l-9.13-9.792c-1.12-1.25-3.08-1.25-4.25 0l-9.12 9.792c-1.04 1.083-.96 2.792.12 3.833 1.09 1.042 2.79.959 3.84-.125l4.7-5.024c-.03.506-.04 1.015-.04 1.524 0 17.197 13.92 31.209 31.17 31.209 17.24 0 31.21-13.963 31.21-31.209 0-17.248-14.01-31.208-31.21-31.208-4.7 0-9.13 1.05-13.09 2.872a2.705 2.705 0 0 0-1.33 3.593 2.704 2.704 0 0 0 3.59 1.329Z"/></g></g><g id="Bold-S"><g id="Outline / Redo Outline_21"><path id="Shape_21" fill="#000" d="M2329.59 637.591a25.868 25.868 0 0 1 10.83-2.377c14.21 0 25.79 11.54 25.79 25.791 0 14.254-11.54 25.792-25.79 25.792s-25.75-11.571-25.75-25.792c0-.455.01-.908.03-1.358l4.55 4.858c.54.584 1.29.875 2 .875.67 0 1.29-.208 1.75-.75 1.09-1.041 1.17-2.75.13-3.833l-9.13-9.792c-1.12-1.25-3.08-1.25-4.25 0l-9.12 9.792c-1.04 1.083-.96 2.792.12 3.833 1.09 1.042 2.79.959 3.84-.125l4.7-5.024c-.03.506-.04 1.015-.04 1.524 0 17.197 13.92 31.209 31.17 31.209 17.24 0 31.21-13.963 31.21-31.209 0-17.248-14.01-31.208-31.21-31.208-4.7 0-9.13 1.05-13.09 2.872a2.705 2.705 0 0 0-1.33 3.593 2.704 2.704 0 0 0 3.59 1.329Z"/></g></g><g id="Semibold-S"><g id="Outline / Redo Outline_22"><path id="Shape_22" fill="#000" d="M2033.59 637.591a25.868 25.868 0 0 1 10.83-2.377c14.21 0 25.79 11.54 25.79 25.791 0 14.254-11.54 25.792-25.79 25.792s-25.75-11.571-25.75-25.792c0-.455.01-.908.03-1.358l4.55 4.858c.54.584 1.29.875 2 .875.67 0 1.29-.208 1.75-.75 1.09-1.041 1.17-2.75.13-3.833l-9.13-9.792c-1.12-1.25-3.08-1.25-4.25 0l-9.12 9.792c-1.04 1.083-.96 2.792.12 3.833 1.09 1.042 2.79.959 3.84-.125l4.7-5.024c-.03.506-.04 1.015-.04 1.524 0 17.197 13.92 31.209 31.17 31.209 17.24 0 31.21-13.963 31.21-31.209 0-17.248-14.01-31.208-31.21-31.208-4.7 0-9.13 1.05-13.09 2.872a2.705 2.705 0 0 0-1.33 3.593 2.704 2.704 0 0 0 3.59 1.329Z"/></g></g><g id="Medium-S"><g id="Outline / Redo Outline_23"><path id="Shape_23" fill="#000" d="M1737.59 637.591a25.868 25.868 0 0 1 10.83-2.377c14.21 0 25.79 11.54 25.79 25.791 0 14.254-11.54 25.792-25.79 25.792s-25.75-11.571-25.75-25.792c0-.455.01-.908.03-1.358l4.55 4.858c.54.584 1.29.875 2 .875.67 0 1.29-.208 1.75-.75 1.09-1.041 1.17-2.75.13-3.833l-9.13-9.792c-1.12-1.25-3.08-1.25-4.25 0l-9.12 9.792c-1.04 1.083-.96 2.792.12 3.833 1.09 1.042 2.79.959 3.84-.125l4.7-5.024c-.03.506-.04 1.015-.04 1.524 0 17.197 13.92 31.209 31.17 31.209 17.24 0 31.21-13.963 31.21-31.209 0-17.248-14.01-31.208-31.21-31.208-4.7 0-9.13 1.05-13.09 2.872a2.705 2.705 0 0 0-1.33 3.593 2.704 2.704 0 0 0 3.59 1.329Z"/></g></g><g id="Regular-S"><g id="Outline / Redo Outline_24"><path id="Shape_24" fill="#000" d="M1441.59 637.591a25.868 25.868 0 0 1 10.83-2.377c14.21 0 25.79 11.54 25.79 25.791 0 14.254-11.54 25.792-25.79 25.792s-25.75-11.571-25.75-25.792c0-.455.01-.908.03-1.358l4.55 4.858c.54.584 1.29.875 2 .875.67 0 1.29-.208 1.75-.75 1.09-1.041 1.17-2.75.13-3.833l-9.13-9.792c-1.12-1.25-3.08-1.25-4.25 0l-9.12 9.792c-1.04 1.083-.96 2.792.12 3.833 1.09 1.042 2.79.959 3.84-.125l4.7-5.024c-.03.506-.04 1.015-.04 1.524 0 17.197 13.92 31.209 31.17 31.209 17.24 0 31.21-13.963 31.21-31.209 0-17.248-14.01-31.208-31.21-31.208-4.7 0-9.13 1.05-13.09 2.872a2.705 2.705 0 0 0-1.33 3.593 2.704 2.704 0 0 0 3.59 1.329Z"/></g></g><g id="Light-S"><g id="Outline / Redo Outline_25"><path id="Shape_25" fill="#000" d="M1145.59 637.591a25.868 25.868 0 0 1 10.83-2.377c14.21 0 25.79 11.54 25.79 25.791 0 14.254-11.54 25.792-25.79 25.792s-25.75-11.571-25.75-25.792c0-.455.01-.908.03-1.358l4.55 4.858c.54.584 1.29.875 2 .875.67 0 1.29-.208 1.75-.75 1.09-1.041 1.17-2.75.13-3.833l-9.13-9.792c-1.12-1.25-3.08-1.25-4.25 0l-9.12 9.792c-1.04 1.083-.96 2.792.12 3.833 1.09 1.042 2.79.959 3.84-.125l4.7-5.024c-.03.506-.04 1.015-.04 1.524 0 17.197 13.92 31.209 31.17 31.209 17.24 0 31.21-13.963 31.21-31.209 0-17.248-14.01-31.208-31.21-31.208-4.7 0-9.13 1.05-13.09 2.872a2.705 2.705 0 0 0-1.33 3.593 2.704 2.704 0 0 0 3.59 1.329Z"/></g></g><g id="Thin-S"><g id="Outline / Redo Outline_26"><path id="Shape_26" fill="#000" d="M849.592 637.591a25.827 25.827 0 0 1 10.827-2.377c14.215 0 25.791 11.54 25.791 25.791 0 14.254-11.537 25.792-25.791 25.792-14.247 0-25.75-11.571-25.75-25.792 0-.455.011-.908.035-1.358l4.548 4.858a2.752 2.752 0 0 0 2 .875c.667 0 1.292-.208 1.75-.75 1.083-1.041 1.167-2.75.125-3.833l-9.125-9.792c-1.125-1.25-3.083-1.25-4.25 0l-9.125 9.792c-1.042 1.083-.958 2.792.125 3.833 1.083 1.042 2.792.959 3.833-.125l4.704-5.024a30.91 30.91 0 0 0-.037 1.524c0 17.197 13.913 31.209 31.167 31.209 17.245 0 31.208-13.963 31.208-31.209 0-17.248-14.007-31.208-31.208-31.208-4.7 0-9.127 1.05-13.09 2.872a2.71 2.71 0 0 0 2.263 4.922Z"/></g></g><g id="Ultralight-S"><g id="Outline / Redo Outline_27"><path id="Shape_27" fill="#000" d="M553.592 637.591a25.827 25.827 0 0 1 10.827-2.377c14.215 0 25.791 11.54 25.791 25.791 0 14.254-11.537 25.792-25.791 25.792-14.247 0-25.75-11.571-25.75-25.792 0-.455.011-.908.035-1.358l4.548 4.858a2.752 2.752 0 0 0 2 .875c.667 0 1.292-.208 1.75-.75 1.083-1.041 1.167-2.75.125-3.833l-9.125-9.792c-1.125-1.25-3.083-1.25-4.25 0l-9.125 9.792c-1.042 1.083-.958 2.792.125 3.833 1.083 1.042 2.792.959 3.833-.125l4.704-5.024a30.91 30.91 0 0 0-.037 1.524c0 17.197 13.913 31.209 31.167 31.209 17.245 0 31.208-13.963 31.208-31.209 0-17.248-14.007-31.208-31.208-31.208-4.7 0-9.127 1.05-13.09 2.872a2.71 2.71 0 0 0 2.263 4.922Z"/></g></g></g></g><defs><clipPath id="clip0_805_27002"><path fill="#fff" d="M0 0h3300v2200H0z"/></clipPath></defs></svg>