<svg width="3300" height="2200" viewBox="0 0 3300 2200" fill="none" xmlns="http://www.w3.org/2000/svg">
<rect width="3300" height="2200" fill="#E5E5E5"/>
<g id="System / Solid / Calendar" clip-path="url(#clip0_805_27002)">
<g id="Notes">
<path id="artboard" d="M3300 0H0V2200H3300V0Z" fill="white"/>
<path id="Vector" d="M263 292H3036" stroke="black" stroke-width="0.5"/>
<text id="Weight/Scale Variations" fill="black" xml:space="preserve" style="white-space: pre" font-family="Roboto" font-size="12" letter-spacing="0em"><tspan x="263" y="321.102">Weight/Scale Variations</tspan></text>
<text id="Ultralight" fill="black" xml:space="preserve" style="white-space: pre" font-family="Roboto" font-size="12" letter-spacing="0em"><tspan x="535.211" y="321.102">Ultralight</tspan></text>
<text id="Thin" fill="black" xml:space="preserve" style="white-space: pre" font-family="Roboto" font-size="12" letter-spacing="0em"><tspan x="844.422" y="321.102">Thin</tspan></text>
<text id="Light" fill="black" xml:space="preserve" style="white-space: pre" font-family="Roboto" font-size="12" letter-spacing="0em"><tspan x="1139.63" y="321.102">Light</tspan></text>
<text id="Regular" fill="black" xml:space="preserve" style="white-space: pre" font-family="Roboto" font-size="12" letter-spacing="0em"><tspan x="1429.34" y="321.102">Regular</tspan></text>
<text id="Medium" fill="black" xml:space="preserve" style="white-space: pre" font-family="Roboto" font-size="12" letter-spacing="0em"><tspan x="1724.56" y="321.102">Medium</tspan></text>
<text id="Semibold" fill="black" xml:space="preserve" style="white-space: pre" font-family="Roboto" font-size="12" letter-spacing="0em"><tspan x="2017.77" y="321.102">Semibold</tspan></text>
<text id="Bold" fill="black" xml:space="preserve" style="white-space: pre" font-family="Roboto" font-size="12" letter-spacing="0em"><tspan x="2327.48" y="321.102">Bold</tspan></text>
<text id="Heavy" fill="black" xml:space="preserve" style="white-space: pre" font-family="Roboto" font-size="12" letter-spacing="0em"><tspan x="2620.19" y="321.102">Heavy</tspan></text>
<text id="Black" fill="black" xml:space="preserve" style="white-space: pre" font-family="Roboto" font-size="12" letter-spacing="0em"><tspan x="2918.4" y="321.102">Black</tspan></text>
<path id="Vector_2" d="M263 1903H3036" stroke="black" stroke-width="0.5"/>
<g id="Group">
<path id="Vector_3" d="M272.248 1933.83C276.555 1933.83 280.139 1930.26 280.139 1925.95C280.139 1921.64 276.545 1918.07 272.238 1918.07C267.941 1918.07 264.367 1921.64 264.367 1925.95C264.367 1930.26 267.951 1933.83 272.248 1933.83ZM272.248 1932.35C268.703 1932.35 265.871 1929.51 265.871 1925.95C265.871 1922.4 268.693 1919.55 272.238 1919.55C275.793 1919.55 278.635 1922.4 278.644 1925.95C278.654 1929.51 275.803 1932.35 272.248 1932.35ZM272.229 1929.57C272.697 1929.57 272.971 1929.26 272.971 1928.74V1926.68H275.197C275.695 1926.68 276.037 1926.43 276.037 1925.96C276.037 1925.48 275.715 1925.22 275.197 1925.22H272.971V1922.99C272.971 1922.47 272.697 1922.15 272.229 1922.15C271.76 1922.15 271.506 1922.49 271.506 1922.99V1925.22H269.299C268.781 1925.22 268.449 1925.48 268.449 1925.96C268.449 1926.43 268.801 1926.68 269.299 1926.68H271.506V1928.74C271.506 1929.24 271.76 1929.57 272.229 1929.57Z" fill="black"/>
</g>
<g id="Group_2">
<path id="Vector_4" d="M293.215 1935.91C298.664 1935.91 303.176 1931.4 303.176 1925.95C303.176 1920.51 298.654 1915.99 293.205 1915.99C287.766 1915.99 283.254 1920.51 283.254 1925.95C283.254 1931.4 287.775 1935.91 293.215 1935.91ZM293.215 1934.25C288.605 1934.25 284.924 1930.56 284.924 1925.95C284.924 1921.35 288.596 1917.65 293.205 1917.65C297.814 1917.65 301.506 1921.35 301.516 1925.95C301.525 1930.56 297.824 1934.25 293.215 1934.25ZM293.195 1930.59C293.713 1930.59 294.025 1930.23 294.025 1929.66V1926.77H297.082C297.629 1926.77 298.01 1926.49 298.01 1925.97C298.01 1925.44 297.648 1925.14 297.082 1925.14H294.025V1922.07C294.025 1921.5 293.713 1921.14 293.195 1921.14C292.678 1921.14 292.385 1921.52 292.385 1922.07V1925.14H289.338C288.771 1925.14 288.4 1925.44 288.4 1925.97C288.4 1926.49 288.791 1926.77 289.338 1926.77H292.385V1929.66C292.385 1930.21 292.678 1930.59 293.195 1930.59Z" fill="black"/>
</g>
<g id="Group_3">
<path id="Vector_5" d="M319.895 1938.67C326.857 1938.67 332.619 1932.92 332.619 1925.96C332.619 1918.99 326.848 1913.24 319.885 1913.24C312.932 1913.24 307.18 1918.99 307.18 1925.96C307.18 1932.92 312.941 1938.67 319.895 1938.67ZM319.895 1936.86C313.859 1936.86 309.006 1931.99 309.006 1925.96C309.006 1919.92 313.85 1915.06 319.885 1915.06C325.93 1915.06 330.783 1919.92 330.793 1925.96C330.803 1931.99 325.939 1936.86 319.895 1936.86ZM319.875 1931.93C320.441 1931.93 320.793 1931.54 320.793 1930.94V1926.87H325.031C325.617 1926.87 326.037 1926.53 326.037 1925.98C326.037 1925.4 325.647 1925.06 325.031 1925.06H320.793V1920.81C320.793 1920.2 320.441 1919.8 319.875 1919.8C319.309 1919.8 318.986 1920.21 318.986 1920.81V1925.06H314.758C314.143 1925.06 313.732 1925.4 313.732 1925.98C313.732 1926.53 314.162 1926.87 314.758 1926.87H318.986V1930.94C318.986 1931.52 319.309 1931.93 319.875 1931.93Z" fill="black"/>
</g>
<text id="Design Variations" fill="black" xml:space="preserve" style="white-space: pre" font-family="Roboto" font-size="12" letter-spacing="0em"><tspan x="263" y="1952.1">Design Variations</tspan></text>
<text id="Symbols are supported in up to nine weights and three scales." fill="black" xml:space="preserve" style="white-space: pre" font-family="Roboto" font-size="12" letter-spacing="0em"><tspan x="263" y="1970.1">Symbols are supported in up to nine weights and three scales.</tspan></text>
<text id="For optimal layout with text and other symbols, vertically align" fill="black" xml:space="preserve" style="white-space: pre" font-family="Roboto" font-size="12" letter-spacing="0em"><tspan x="263" y="1988.1">For optimal layout with text and other symbols, vertically align</tspan></text>
<text id="symbols with the adjacent text." fill="black" xml:space="preserve" style="white-space: pre" font-family="Roboto" font-size="12" letter-spacing="0em"><tspan x="263" y="2006.1">symbols with the adjacent text.</tspan></text>
<path id="Vector_6" opacity="0.4" d="M779 1919H776V1933H779V1919Z" fill="#00AEEF"/>
<g id="Group_4">
<path id="Vector_7" d="M789.527 1933H791.373L786.178 1918.91H784.439L779.244 1933H781.09L782.506 1928.96H788.111L789.527 1933ZM785.279 1921.04H785.338L787.594 1927.47H783.023L785.279 1921.04Z" fill="black"/>
</g>
<path id="Vector_8" opacity="0.4" d="M794.617 1919H791.617V1933H794.617V1919Z" fill="#00AEEF"/>
<text id="Margins" fill="black" xml:space="preserve" style="white-space: pre" font-family="Roboto" font-size="12" letter-spacing="0em"><tspan x="776" y="1952.1">Margins</tspan></text>
<text id="Leading and trailing margins on the left and right side of each symbol" fill="black" xml:space="preserve" style="white-space: pre" font-family="Roboto" font-size="12" letter-spacing="0em"><tspan x="776" y="1970.1">Leading and trailing margins on the left and right side of each symbol</tspan></text>
<text id="can be adjusted by modifying the width of the blue rectangles." fill="black" xml:space="preserve" style="white-space: pre" font-family="Roboto" font-size="12" letter-spacing="0em"><tspan x="776" y="1988.1">can be adjusted by modifying the width of the blue rectangles.</tspan></text>
<text id="Modifications are automatically applied proportionally to all" fill="black" xml:space="preserve" style="white-space: pre" font-family="Roboto" font-size="12" letter-spacing="0em"><tspan x="776" y="2006.1">Modifications are automatically applied proportionally to all</tspan></text>
<text id="scales and weights." fill="black" xml:space="preserve" style="white-space: pre" font-family="Roboto" font-size="12" letter-spacing="0em"><tspan x="776" y="2024.1">scales and weights.</tspan></text>
<g id="Group_5">
<path id="Vector_9" d="M1291.83 1936.11L1293.37 1937.66C1294.22 1938.49 1295.19 1938.42 1296.06 1937.46L1306.27 1926.34C1306.7 1926.63 1307.1 1926.62 1307.56 1926.52L1308.61 1926.31L1309.3 1927L1309.25 1927.52C1309.19 1928.05 1309.35 1928.47 1309.85 1928.97L1310.66 1929.78C1311.17 1930.28 1311.82 1930.31 1312.3 1929.83L1315.55 1926.58C1316.03 1926.1 1316.01 1925.45 1315.5 1924.94L1314.68 1924.12C1314.19 1923.62 1313.77 1923.45 1313.24 1923.53L1312.71 1923.58L1312.06 1922.92L1312.34 1921.78C1312.49 1921.21 1312.34 1920.74 1311.71 1920.14L1309.3 1917.75C1305.76 1914.22 1301.23 1914.33 1298.11 1917.46C1297.69 1917.89 1297.64 1918.48 1297.92 1918.91C1298.15 1919.28 1298.63 1919.5 1299.27 1919.34C1300.79 1918.96 1302.3 1919.07 1303.78 1920.08L1303.16 1921.66C1302.93 1922.25 1302.94 1922.73 1303.18 1923.16L1292.02 1933.44C1291.08 1934.31 1290.97 1935.25 1291.83 1936.11ZM1299.67 1917.85C1302.34 1915.86 1305.65 1916.17 1308.05 1918.58L1310.68 1921.19C1310.91 1921.43 1310.94 1921.61 1310.88 1921.91L1310.5 1923.47L1312.08 1925.04L1313.04 1924.95C1313.33 1924.92 1313.41 1924.94 1313.64 1925.17L1314.26 1925.79L1311.51 1928.54L1310.88 1927.92C1310.66 1927.7 1310.64 1927.6 1310.67 1927.32L1310.76 1926.36L1309.19 1924.8L1307.57 1925.11C1307.29 1925.17 1307.14 1925.17 1306.91 1924.92L1304.73 1922.75C1304.51 1922.51 1304.48 1922.37 1304.61 1922.05L1305.55 1919.78C1303.95 1918.24 1301.84 1917.39 1299.8 1918.05C1299.71 1918.08 1299.64 1918.06 1299.61 1918.02C1299.59 1917.97 1299.59 1917.92 1299.67 1917.85ZM1293.1 1935.41C1292.61 1934.91 1292.79 1934.61 1293.12 1934.31L1304.08 1924.19L1305.31 1925.42L1295.15 1936.35C1294.85 1936.68 1294.47 1936.78 1294.07 1936.38L1293.1 1935.41Z" fill="black"/>
</g>
<text id="Exporting" fill="black" xml:space="preserve" style="white-space: pre" font-family="Roboto" font-size="12" letter-spacing="0em"><tspan x="1289" y="1952.1">Exporting</tspan></text>
<text id="Symbols should be outlined when exporting to ensure the" fill="black" xml:space="preserve" style="white-space: pre" font-family="Roboto" font-size="12" letter-spacing="0em"><tspan x="1289" y="1970.1">Symbols should be outlined when exporting to ensure the</tspan></text>
<text id="design is preserved when submitting to Xcode." fill="black" xml:space="preserve" style="white-space: pre" font-family="Roboto" font-size="12" letter-spacing="0em"><tspan x="1289" y="1988.1">design is preserved when submitting to Xcode.</tspan></text>
<text id="template-version" fill="black" xml:space="preserve" style="white-space: pre" font-family="Roboto" font-size="12" letter-spacing="0em"><tspan x="2958" y="1932.1">Template v.1.0</tspan></text>
<text id="Generated from pencil.circle" fill="black" xml:space="preserve" style="white-space: pre" font-family="Roboto" font-size="12" letter-spacing="0em"><tspan x="2885" y="1950.1">Generated from pencil.circle</tspan></text>
<text id="Typeset at 100 points" fill="black" xml:space="preserve" style="white-space: pre" font-family="Roboto" font-size="12" letter-spacing="0em"><tspan x="2921" y="1968.1">Typeset at 100 points</tspan></text>
<text id="Small" fill="black" xml:space="preserve" style="white-space: pre" font-family="Roboto" font-size="12" letter-spacing="0em"><tspan x="263" y="725.102">Small</tspan></text>
<text id="Medium_2" fill="black" xml:space="preserve" style="white-space: pre" font-family="Roboto" font-size="12" letter-spacing="0em"><tspan x="263" y="1155.1">Medium</tspan></text>
<text id="Large" fill="black" xml:space="preserve" style="white-space: pre" font-family="Roboto" font-size="12" letter-spacing="0em"><tspan x="263" y="1585.1">Large</tspan></text>
</g>
<g id="Guides">
<g id="H-reference">
<path id="Vector_10" d="M393.932 695.998H396.666L369.566 625.539H367.076L339.977 695.998H342.662L351.94 671.535H384.703L393.932 695.998ZM368.199 628.908H368.443L383.824 669.289H352.818L368.199 628.908Z" fill="#27AAE1"/>
</g>
<path id="Baseline-S" d="M263 696H3036" stroke="#27AAE1" stroke-width="0.577"/>
<path id="Capline-S" d="M263 626H3036" stroke="#27AAE1" stroke-width="0.577"/>
<g id="H-reference_2">
<path id="Vector_11" d="M393.932 1126H396.666L369.566 1055.54H367.076L339.977 1126H342.662L351.94 1101.54H384.703L393.932 1126ZM368.199 1058.91H368.443L383.824 1099.29H352.818L368.199 1058.91Z" fill="#27AAE1"/>
</g>
<path id="Baseline-M" d="M263 1126H3036" stroke="#27AAE1" stroke-width="0.577"/>
<path id="Capline-M" d="M263 1056H3036" stroke="#27AAE1" stroke-width="0.577"/>
<g id="H-reference_3">
<path id="Vector_12" d="M393.932 1556H396.666L369.566 1485.54H367.076L339.977 1556H342.662L351.94 1531.54H384.703L393.932 1556ZM368.199 1488.91H368.443L383.824 1529.29H352.818L368.199 1488.91Z" fill="#27AAE1"/>
</g>
<g id="Group 1">
<path id="Baseline-L" d="M263 1556H3036" stroke="#27AAE1" stroke-width="0.577"/>
<path id="Capline-L" d="M263 1486H3036" stroke="#27AAE1" stroke-width="0.577"/>
</g>
<path id="left-margin" opacity="0.4" d="M1402.04 1030.79H1393.3V1150.12H1402.04V1030.79Z" fill="#00AEEF"/>
<path id="right-margin" opacity="0.4" d="M1505.39 1030.79H1496.65V1150.12H1505.39V1030.79Z" fill="#00AEEF"/>
</g>
<g id="Symbols">
<g id="Black-L">
<g id="Solid / Calendar Solid">
<g id="Shape">
<path d="M2904.92 1450.49C2904.92 1447.8 2902.74 1445.62 2900.05 1445.62C2897.36 1445.62 2895.17 1447.8 2895.17 1450.49V1460.92H2891.5C2879.05 1460.92 2869 1470.97 2869 1483.42V1495.87C2869 1498.79 2871.33 1501.12 2874.25 1501.12H2983.75C2986.67 1501.12 2989 1498.79 2989 1495.87V1483.42C2989 1470.97 2978.88 1460.92 2966.5 1460.92H2962.75V1450.49C2962.75 1447.8 2960.57 1445.62 2957.87 1445.62C2955.18 1445.62 2953 1447.8 2953 1450.49V1460.92H2933.87V1450.49C2933.87 1447.8 2931.69 1445.62 2929 1445.62C2926.31 1445.62 2924.12 1447.8 2924.12 1450.49V1460.92H2904.92V1450.49Z" fill="black"/>
<path fill-rule="evenodd" clip-rule="evenodd" d="M2874.25 1510.87H2983.75C2986.6 1510.87 2989 1513.19 2989 1516.12V1559.39C2989 1571.84 2978.95 1581.89 2966.5 1581.89H2891.5C2879.05 1581.89 2869 1571.84 2869 1559.39V1516.12C2869 1513.19 2871.33 1510.87 2874.25 1510.87ZM2917.15 1554.89C2920.07 1554.89 2922.4 1552.57 2922.4 1549.64V1539.74C2922.4 1536.82 2920.07 1534.49 2917.15 1534.49H2899.75C2896.82 1534.49 2894.5 1536.82 2894.5 1539.74V1549.64C2894.5 1552.57 2896.82 1554.89 2899.75 1554.89H2917.15Z" fill="black"/>
</g>
</g>
</g>
<g id="Heavy-L">
<g id="Solid / Calendar Solid_2">
<g id="Shape_2">
<path d="M2608.92 1450.49C2608.92 1447.8 2606.74 1445.62 2604.05 1445.62C2601.36 1445.62 2599.17 1447.8 2599.17 1450.49V1460.92H2595.5C2583.05 1460.92 2573 1470.97 2573 1483.42V1495.87C2573 1498.79 2575.33 1501.12 2578.25 1501.12H2687.75C2690.67 1501.12 2693 1498.79 2693 1495.87V1483.42C2693 1470.97 2682.88 1460.92 2670.5 1460.92H2666.75V1450.49C2666.75 1447.8 2664.57 1445.62 2661.87 1445.62C2659.18 1445.62 2657 1447.8 2657 1450.49V1460.92H2637.87V1450.49C2637.87 1447.8 2635.69 1445.62 2633 1445.62C2630.31 1445.62 2628.12 1447.8 2628.12 1450.49V1460.92H2608.92V1450.49Z" fill="black"/>
<path fill-rule="evenodd" clip-rule="evenodd" d="M2578.25 1510.87H2687.75C2690.6 1510.87 2693 1513.19 2693 1516.12V1559.39C2693 1571.84 2682.95 1581.89 2670.5 1581.89H2595.5C2583.05 1581.89 2573 1571.84 2573 1559.39V1516.12C2573 1513.19 2575.33 1510.87 2578.25 1510.87ZM2621.15 1554.89C2624.07 1554.89 2626.4 1552.57 2626.4 1549.64V1539.74C2626.4 1536.82 2624.07 1534.49 2621.15 1534.49H2603.75C2600.82 1534.49 2598.5 1536.82 2598.5 1539.74V1549.64C2598.5 1552.57 2600.82 1554.89 2603.75 1554.89H2621.15Z" fill="black"/>
</g>
</g>
</g>
<g id="Bold-L">
<g id="Solid / Calendar Solid_3">
<g id="Shape_3">
<path d="M2312.92 1450.49C2312.92 1447.8 2310.74 1445.62 2308.05 1445.62C2305.36 1445.62 2303.17 1447.8 2303.17 1450.49V1460.92H2299.5C2287.05 1460.92 2277 1470.97 2277 1483.42V1495.87C2277 1498.79 2279.33 1501.12 2282.25 1501.12H2391.75C2394.67 1501.12 2397 1498.79 2397 1495.87V1483.42C2397 1470.97 2386.88 1460.92 2374.5 1460.92H2370.75V1450.49C2370.75 1447.8 2368.57 1445.62 2365.87 1445.62C2363.18 1445.62 2361 1447.8 2361 1450.49V1460.92H2341.87V1450.49C2341.87 1447.8 2339.69 1445.62 2337 1445.62C2334.31 1445.62 2332.12 1447.8 2332.12 1450.49V1460.92H2312.92V1450.49Z" fill="black"/>
<path fill-rule="evenodd" clip-rule="evenodd" d="M2282.25 1510.87H2391.75C2394.6 1510.87 2397 1513.19 2397 1516.12V1559.39C2397 1571.84 2386.95 1581.89 2374.5 1581.89H2299.5C2287.05 1581.89 2277 1571.84 2277 1559.39V1516.12C2277 1513.19 2279.33 1510.87 2282.25 1510.87ZM2325.15 1554.89C2328.07 1554.89 2330.4 1552.57 2330.4 1549.64V1539.74C2330.4 1536.82 2328.07 1534.49 2325.15 1534.49H2307.75C2304.82 1534.49 2302.5 1536.82 2302.5 1539.74V1549.64C2302.5 1552.57 2304.82 1554.89 2307.75 1554.89H2325.15Z" fill="black"/>
</g>
</g>
</g>
<g id="Semibold-L">
<g id="Solid / Calendar Solid_4">
<g id="Shape_4">
<path d="M2016.92 1450.49C2016.92 1447.8 2014.74 1445.62 2012.05 1445.62C2009.36 1445.62 2007.17 1447.8 2007.17 1450.49V1460.92H2003.5C1991.05 1460.92 1981 1470.97 1981 1483.42V1495.87C1981 1498.79 1983.33 1501.12 1986.25 1501.12H2095.75C2098.67 1501.12 2101 1498.79 2101 1495.87V1483.42C2101 1470.97 2090.88 1460.92 2078.5 1460.92H2074.75V1450.49C2074.75 1447.8 2072.57 1445.62 2069.87 1445.62C2067.18 1445.62 2065 1447.8 2065 1450.49V1460.92H2045.87V1450.49C2045.87 1447.8 2043.69 1445.62 2041 1445.62C2038.31 1445.62 2036.12 1447.8 2036.12 1450.49V1460.92H2016.92V1450.49Z" fill="black"/>
<path fill-rule="evenodd" clip-rule="evenodd" d="M1986.25 1510.87H2095.75C2098.6 1510.87 2101 1513.19 2101 1516.12V1559.39C2101 1571.84 2090.95 1581.89 2078.5 1581.89H2003.5C1991.05 1581.89 1981 1571.84 1981 1559.39V1516.12C1981 1513.19 1983.33 1510.87 1986.25 1510.87ZM2029.15 1554.89C2032.07 1554.89 2034.4 1552.57 2034.4 1549.64V1539.74C2034.4 1536.82 2032.07 1534.49 2029.15 1534.49H2011.75C2008.82 1534.49 2006.5 1536.82 2006.5 1539.74V1549.64C2006.5 1552.57 2008.82 1554.89 2011.75 1554.89H2029.15Z" fill="black"/>
</g>
</g>
</g>
<g id="Medium-L">
<g id="Solid / Calendar Solid_5">
<g id="Shape_5">
<path d="M1720.92 1450.49C1720.92 1447.8 1718.74 1445.62 1716.05 1445.62C1713.36 1445.62 1711.17 1447.8 1711.17 1450.49V1460.92H1707.5C1695.05 1460.92 1685 1470.97 1685 1483.42V1495.87C1685 1498.79 1687.33 1501.12 1690.25 1501.12H1799.75C1802.67 1501.12 1805 1498.79 1805 1495.87V1483.42C1805 1470.97 1794.88 1460.92 1782.5 1460.92H1778.75V1450.49C1778.75 1447.8 1776.57 1445.62 1773.87 1445.62C1771.18 1445.62 1769 1447.8 1769 1450.49V1460.92H1749.87V1450.49C1749.87 1447.8 1747.69 1445.62 1745 1445.62C1742.31 1445.62 1740.12 1447.8 1740.12 1450.49V1460.92H1720.92V1450.49Z" fill="black"/>
<path fill-rule="evenodd" clip-rule="evenodd" d="M1690.25 1510.87H1799.75C1802.6 1510.87 1805 1513.19 1805 1516.12V1559.39C1805 1571.84 1794.95 1581.89 1782.5 1581.89H1707.5C1695.05 1581.89 1685 1571.84 1685 1559.39V1516.12C1685 1513.19 1687.33 1510.87 1690.25 1510.87ZM1733.15 1554.89C1736.07 1554.89 1738.4 1552.57 1738.4 1549.64V1539.74C1738.4 1536.82 1736.07 1534.49 1733.15 1534.49H1715.75C1712.82 1534.49 1710.5 1536.82 1710.5 1539.74V1549.64C1710.5 1552.57 1712.82 1554.89 1715.75 1554.89H1733.15Z" fill="black"/>
</g>
</g>
</g>
<g id="Regular-L">
<g id="Solid / Calendar Solid_6">
<g id="Shape_6">
<path d="M1424.92 1450.49C1424.92 1447.8 1422.74 1445.62 1420.05 1445.62C1417.36 1445.62 1415.17 1447.8 1415.17 1450.49V1460.92H1411.5C1399.05 1460.92 1389 1470.97 1389 1483.42V1495.87C1389 1498.79 1391.33 1501.12 1394.25 1501.12H1503.75C1506.67 1501.12 1509 1498.79 1509 1495.87V1483.42C1509 1470.97 1498.88 1460.92 1486.5 1460.92H1482.75V1450.49C1482.75 1447.8 1480.57 1445.62 1477.87 1445.62C1475.18 1445.62 1473 1447.8 1473 1450.49V1460.92H1453.87V1450.49C1453.87 1447.8 1451.69 1445.62 1449 1445.62C1446.31 1445.62 1444.12 1447.8 1444.12 1450.49V1460.92H1424.92V1450.49Z" fill="black"/>
<path fill-rule="evenodd" clip-rule="evenodd" d="M1394.25 1510.87H1503.75C1506.6 1510.87 1509 1513.19 1509 1516.12V1559.39C1509 1571.84 1498.95 1581.89 1486.5 1581.89H1411.5C1399.05 1581.89 1389 1571.84 1389 1559.39V1516.12C1389 1513.19 1391.33 1510.87 1394.25 1510.87ZM1437.15 1554.89C1440.07 1554.89 1442.4 1552.57 1442.4 1549.64V1539.74C1442.4 1536.82 1440.07 1534.49 1437.15 1534.49H1419.75C1416.82 1534.49 1414.5 1536.82 1414.5 1539.74V1549.64C1414.5 1552.57 1416.82 1554.89 1419.75 1554.89H1437.15Z" fill="black"/>
</g>
</g>
</g>
<g id="Light-L">
<g id="Solid / Calendar Solid_7">
<g id="Shape_7">
<path d="M1128.92 1450.49C1128.92 1447.8 1126.74 1445.62 1124.05 1445.62C1121.36 1445.62 1119.17 1447.8 1119.17 1450.49V1460.92H1115.5C1103.05 1460.92 1093 1470.97 1093 1483.42V1495.87C1093 1498.79 1095.33 1501.12 1098.25 1501.12H1207.75C1210.67 1501.12 1213 1498.79 1213 1495.87V1483.42C1213 1470.97 1202.88 1460.92 1190.5 1460.92H1186.75V1450.49C1186.75 1447.8 1184.57 1445.62 1181.87 1445.62C1179.18 1445.62 1177 1447.8 1177 1450.49V1460.92H1157.87V1450.49C1157.87 1447.8 1155.69 1445.62 1153 1445.62C1150.31 1445.62 1148.12 1447.8 1148.12 1450.49V1460.92H1128.92V1450.49Z" fill="black"/>
<path fill-rule="evenodd" clip-rule="evenodd" d="M1098.25 1510.87H1207.75C1210.6 1510.87 1213 1513.19 1213 1516.12V1559.39C1213 1571.84 1202.95 1581.89 1190.5 1581.89H1115.5C1103.05 1581.89 1093 1571.84 1093 1559.39V1516.12C1093 1513.19 1095.33 1510.87 1098.25 1510.87ZM1141.15 1554.89C1144.07 1554.89 1146.4 1552.57 1146.4 1549.64V1539.74C1146.4 1536.82 1144.07 1534.49 1141.15 1534.49H1123.75C1120.82 1534.49 1118.5 1536.82 1118.5 1539.74V1549.64C1118.5 1552.57 1120.82 1554.89 1123.75 1554.89H1141.15Z" fill="black"/>
</g>
</g>
</g>
<g id="Thin-L">
<g id="Solid / Calendar Solid_8">
<g id="Shape_8">
<path d="M832.925 1450.49C832.925 1447.8 830.742 1445.62 828.05 1445.62C825.357 1445.62 823.175 1447.8 823.175 1450.49V1460.92H819.5C807.05 1460.92 797 1470.97 797 1483.42V1495.87C797 1498.79 799.325 1501.12 802.25 1501.12H911.75C914.675 1501.12 917 1498.79 917 1495.87V1483.42C917 1470.97 906.875 1460.92 894.5 1460.92H890.75V1450.49C890.75 1447.8 888.567 1445.62 885.875 1445.62C883.182 1445.62 881 1447.8 881 1450.49V1460.92H861.875V1450.49C861.875 1447.8 859.692 1445.62 857 1445.62C854.307 1445.62 852.125 1447.8 852.125 1450.49V1460.92H832.925V1450.49Z" fill="black"/>
<path fill-rule="evenodd" clip-rule="evenodd" d="M802.25 1510.87H911.75C914.6 1510.87 917 1513.19 917 1516.12V1559.39C917 1571.84 906.95 1581.89 894.5 1581.89H819.5C807.05 1581.89 797 1571.84 797 1559.39V1516.12C797 1513.19 799.325 1510.87 802.25 1510.87ZM845.15 1554.89C848.075 1554.89 850.4 1552.57 850.4 1549.64V1539.74C850.4 1536.82 848.075 1534.49 845.15 1534.49H827.75C824.825 1534.49 822.5 1536.82 822.5 1539.74V1549.64C822.5 1552.57 824.825 1554.89 827.75 1554.89H845.15Z" fill="black"/>
</g>
</g>
</g>
<g id="Ultralight-L">
<g id="Solid / Calendar Solid_9">
<g id="Shape_9">
<path d="M536.925 1450.49C536.925 1447.8 534.742 1445.62 532.05 1445.62C529.357 1445.62 527.175 1447.8 527.175 1450.49V1460.92H523.5C511.05 1460.92 501 1470.97 501 1483.42V1495.87C501 1498.79 503.325 1501.12 506.25 1501.12H615.75C618.675 1501.12 621 1498.79 621 1495.87V1483.42C621 1470.97 610.875 1460.92 598.5 1460.92H594.75V1450.49C594.75 1447.8 592.567 1445.62 589.875 1445.62C587.182 1445.62 585 1447.8 585 1450.49V1460.92H565.875V1450.49C565.875 1447.8 563.692 1445.62 561 1445.62C558.307 1445.62 556.125 1447.8 556.125 1450.49V1460.92H536.925V1450.49Z" fill="black"/>
<path fill-rule="evenodd" clip-rule="evenodd" d="M506.25 1510.87H615.75C618.6 1510.87 621 1513.19 621 1516.12V1559.39C621 1571.84 610.95 1581.89 598.5 1581.89H523.5C511.05 1581.89 501 1571.84 501 1559.39V1516.12C501 1513.19 503.325 1510.87 506.25 1510.87ZM549.15 1554.89C552.075 1554.89 554.4 1552.57 554.4 1549.64V1539.74C554.4 1536.82 552.075 1534.49 549.15 1534.49H531.75C528.825 1534.49 526.5 1536.82 526.5 1539.74V1549.64C526.5 1552.57 528.825 1554.89 531.75 1554.89H549.15Z" fill="black"/>
</g>
</g>
</g>
<g id="Black-M">
<g id="Solid / Calendar Solid_10">
<g id="Shape_10">
<path d="M2910.28 1036.16C2910.28 1034.07 2908.58 1032.37 2906.48 1032.37C2904.39 1032.37 2902.69 1034.07 2902.69 1036.16V1044.27H2899.83C2890.15 1044.27 2882.33 1052.09 2882.33 1061.77V1071.45C2882.33 1073.73 2884.14 1075.54 2886.42 1075.54H2971.58C2973.86 1075.54 2975.67 1073.73 2975.67 1071.45V1061.77C2975.67 1052.09 2967.79 1044.27 2958.17 1044.27H2955.25V1036.16C2955.25 1034.07 2953.55 1032.37 2951.46 1032.37C2949.36 1032.37 2947.67 1034.07 2947.67 1036.16V1044.27H2932.79V1036.16C2932.79 1034.07 2931.09 1032.37 2929 1032.37C2926.91 1032.37 2925.21 1034.07 2925.21 1036.16V1044.27H2910.28V1036.16Z" fill="black"/>
<path fill-rule="evenodd" clip-rule="evenodd" d="M2886.42 1083.12H2971.58C2973.8 1083.12 2975.67 1084.93 2975.67 1087.2V1120.86C2975.67 1130.55 2967.85 1138.36 2958.17 1138.36H2899.83C2890.15 1138.36 2882.33 1130.55 2882.33 1120.86V1087.2C2882.33 1084.93 2884.14 1083.12 2886.42 1083.12ZM2919.78 1117.36C2922.06 1117.36 2923.87 1115.55 2923.87 1113.28V1105.58C2923.87 1103.3 2922.06 1101.5 2919.78 1101.5H2906.25C2903.98 1101.5 2902.17 1103.3 2902.17 1105.58V1113.28C2902.17 1115.55 2903.98 1117.36 2906.25 1117.36H2919.78Z" fill="black"/>
</g>
</g>
</g>
<g id="Heavy-M">
<g id="Solid / Calendar Solid_11">
<g id="Shape_11">
<path d="M2614.28 1036.16C2614.28 1034.07 2612.58 1032.37 2610.48 1032.37C2608.39 1032.37 2606.69 1034.07 2606.69 1036.16V1044.27H2603.83C2594.15 1044.27 2586.33 1052.09 2586.33 1061.77V1071.45C2586.33 1073.73 2588.14 1075.54 2590.42 1075.54H2675.58C2677.86 1075.54 2679.67 1073.73 2679.67 1071.45V1061.77C2679.67 1052.09 2671.79 1044.27 2662.17 1044.27H2659.25V1036.16C2659.25 1034.07 2657.55 1032.37 2655.46 1032.37C2653.36 1032.37 2651.67 1034.07 2651.67 1036.16V1044.27H2636.79V1036.16C2636.79 1034.07 2635.09 1032.37 2633 1032.37C2630.91 1032.37 2629.21 1034.07 2629.21 1036.16V1044.27H2614.28V1036.16Z" fill="black"/>
<path fill-rule="evenodd" clip-rule="evenodd" d="M2590.42 1083.12H2675.58C2677.8 1083.12 2679.67 1084.93 2679.67 1087.2V1120.86C2679.67 1130.55 2671.85 1138.36 2662.17 1138.36H2603.83C2594.15 1138.36 2586.33 1130.55 2586.33 1120.86V1087.2C2586.33 1084.93 2588.14 1083.12 2590.42 1083.12ZM2623.78 1117.36C2626.06 1117.36 2627.87 1115.55 2627.87 1113.28V1105.58C2627.87 1103.3 2626.06 1101.5 2623.78 1101.5H2610.25C2607.98 1101.5 2606.17 1103.3 2606.17 1105.58V1113.28C2606.17 1115.55 2607.98 1117.36 2610.25 1117.36H2623.78Z" fill="black"/>
</g>
</g>
</g>
<g id="Bold-M">
<g id="Solid / Calendar Solid_12">
<g id="Shape_12">
<path d="M2318.28 1036.16C2318.28 1034.07 2316.58 1032.37 2314.48 1032.37C2312.39 1032.37 2310.69 1034.07 2310.69 1036.16V1044.27H2307.83C2298.15 1044.27 2290.33 1052.09 2290.33 1061.77V1071.45C2290.33 1073.73 2292.14 1075.54 2294.42 1075.54H2379.58C2381.86 1075.54 2383.67 1073.73 2383.67 1071.45V1061.77C2383.67 1052.09 2375.79 1044.27 2366.17 1044.27H2363.25V1036.16C2363.25 1034.07 2361.55 1032.37 2359.46 1032.37C2357.36 1032.37 2355.67 1034.07 2355.67 1036.16V1044.27H2340.79V1036.16C2340.79 1034.07 2339.09 1032.37 2337 1032.37C2334.91 1032.37 2333.21 1034.07 2333.21 1036.16V1044.27H2318.28V1036.16Z" fill="black"/>
<path fill-rule="evenodd" clip-rule="evenodd" d="M2294.42 1083.12H2379.58C2381.8 1083.12 2383.67 1084.93 2383.67 1087.2V1120.86C2383.67 1130.55 2375.85 1138.36 2366.17 1138.36H2307.83C2298.15 1138.36 2290.33 1130.55 2290.33 1120.86V1087.2C2290.33 1084.93 2292.14 1083.12 2294.42 1083.12ZM2327.78 1117.36C2330.06 1117.36 2331.87 1115.55 2331.87 1113.28V1105.58C2331.87 1103.3 2330.06 1101.5 2327.78 1101.5H2314.25C2311.98 1101.5 2310.17 1103.3 2310.17 1105.58V1113.28C2310.17 1115.55 2311.98 1117.36 2314.25 1117.36H2327.78Z" fill="black"/>
</g>
</g>
</g>
<g id="Semibold-M">
<g id="Solid / Calendar Solid_13">
<g id="Shape_13">
<path d="M2022.28 1036.16C2022.28 1034.07 2020.58 1032.37 2018.48 1032.37C2016.39 1032.37 2014.69 1034.07 2014.69 1036.16V1044.27H2011.83C2002.15 1044.27 1994.33 1052.09 1994.33 1061.77V1071.45C1994.33 1073.73 1996.14 1075.54 1998.42 1075.54H2083.58C2085.86 1075.54 2087.67 1073.73 2087.67 1071.45V1061.77C2087.67 1052.09 2079.79 1044.27 2070.17 1044.27H2067.25V1036.16C2067.25 1034.07 2065.55 1032.37 2063.46 1032.37C2061.36 1032.37 2059.67 1034.07 2059.67 1036.16V1044.27H2044.79V1036.16C2044.79 1034.07 2043.09 1032.37 2041 1032.37C2038.91 1032.37 2037.21 1034.07 2037.21 1036.16V1044.27H2022.28V1036.16Z" fill="black"/>
<path fill-rule="evenodd" clip-rule="evenodd" d="M1998.42 1083.12H2083.58C2085.8 1083.12 2087.67 1084.93 2087.67 1087.2V1120.86C2087.67 1130.55 2079.85 1138.36 2070.17 1138.36H2011.83C2002.15 1138.36 1994.33 1130.55 1994.33 1120.86V1087.2C1994.33 1084.93 1996.14 1083.12 1998.42 1083.12ZM2031.78 1117.36C2034.06 1117.36 2035.87 1115.55 2035.87 1113.28V1105.58C2035.87 1103.3 2034.06 1101.5 2031.78 1101.5H2018.25C2015.98 1101.5 2014.17 1103.3 2014.17 1105.58V1113.28C2014.17 1115.55 2015.98 1117.36 2018.25 1117.36H2031.78Z" fill="black"/>
</g>
</g>
</g>
<g id="Medium-M">
<g id="Solid / Calendar Solid_14">
<g id="Shape_14">
<path d="M1726.28 1036.16C1726.28 1034.07 1724.58 1032.37 1722.48 1032.37C1720.39 1032.37 1718.69 1034.07 1718.69 1036.16V1044.27H1715.83C1706.15 1044.27 1698.33 1052.09 1698.33 1061.77V1071.45C1698.33 1073.73 1700.14 1075.54 1702.42 1075.54H1787.58C1789.86 1075.54 1791.67 1073.73 1791.67 1071.45V1061.77C1791.67 1052.09 1783.79 1044.27 1774.17 1044.27H1771.25V1036.16C1771.25 1034.07 1769.55 1032.37 1767.46 1032.37C1765.36 1032.37 1763.67 1034.07 1763.67 1036.16V1044.27H1748.79V1036.16C1748.79 1034.07 1747.09 1032.37 1745 1032.37C1742.91 1032.37 1741.21 1034.07 1741.21 1036.16V1044.27H1726.28V1036.16Z" fill="black"/>
<path fill-rule="evenodd" clip-rule="evenodd" d="M1702.42 1083.12H1787.58C1789.8 1083.12 1791.67 1084.93 1791.67 1087.2V1120.86C1791.67 1130.55 1783.85 1138.36 1774.17 1138.36H1715.83C1706.15 1138.36 1698.33 1130.55 1698.33 1120.86V1087.2C1698.33 1084.93 1700.14 1083.12 1702.42 1083.12ZM1735.78 1117.36C1738.06 1117.36 1739.87 1115.55 1739.87 1113.28V1105.58C1739.87 1103.3 1738.06 1101.5 1735.78 1101.5H1722.25C1719.98 1101.5 1718.17 1103.3 1718.17 1105.58V1113.28C1718.17 1115.55 1719.98 1117.36 1722.25 1117.36H1735.78Z" fill="black"/>
</g>
</g>
</g>
<g id="Regular-M">
<g id="Solid / Calendar Solid_15">
<g id="Shape_15">
<path d="M1430.28 1036.16C1430.28 1034.07 1428.58 1032.37 1426.48 1032.37C1424.39 1032.37 1422.69 1034.07 1422.69 1036.16V1044.27H1419.83C1410.15 1044.27 1402.33 1052.09 1402.33 1061.77V1071.45C1402.33 1073.73 1404.14 1075.54 1406.42 1075.54H1491.58C1493.86 1075.54 1495.67 1073.73 1495.67 1071.45V1061.77C1495.67 1052.09 1487.79 1044.27 1478.17 1044.27H1475.25V1036.16C1475.25 1034.07 1473.55 1032.37 1471.46 1032.37C1469.36 1032.37 1467.67 1034.07 1467.67 1036.16V1044.27H1452.79V1036.16C1452.79 1034.07 1451.09 1032.37 1449 1032.37C1446.91 1032.37 1445.21 1034.07 1445.21 1036.16V1044.27H1430.28V1036.16Z" fill="black"/>
<path fill-rule="evenodd" clip-rule="evenodd" d="M1406.42 1083.12H1491.58C1493.8 1083.12 1495.67 1084.93 1495.67 1087.2V1120.86C1495.67 1130.55 1487.85 1138.36 1478.17 1138.36H1419.83C1410.15 1138.36 1402.33 1130.55 1402.33 1120.86V1087.2C1402.33 1084.93 1404.14 1083.12 1406.42 1083.12ZM1439.78 1117.36C1442.06 1117.36 1443.87 1115.55 1443.87 1113.28V1105.58C1443.87 1103.3 1442.06 1101.5 1439.78 1101.5H1426.25C1423.98 1101.5 1422.17 1103.3 1422.17 1105.58V1113.28C1422.17 1115.55 1423.98 1117.36 1426.25 1117.36H1439.78Z" fill="black"/>
</g>
</g>
</g>
<g id="Light-M">
<g id="Solid / Calendar Solid_16">
<g id="Shape_16">
<path d="M1134.28 1036.16C1134.28 1034.07 1132.58 1032.37 1130.48 1032.37C1128.39 1032.37 1126.69 1034.07 1126.69 1036.16V1044.27H1123.83C1114.15 1044.27 1106.33 1052.09 1106.33 1061.77V1071.45C1106.33 1073.73 1108.14 1075.54 1110.42 1075.54H1195.58C1197.86 1075.54 1199.67 1073.73 1199.67 1071.45V1061.77C1199.67 1052.09 1191.79 1044.27 1182.17 1044.27H1179.25V1036.16C1179.25 1034.07 1177.55 1032.37 1175.46 1032.37C1173.36 1032.37 1171.67 1034.07 1171.67 1036.16V1044.27H1156.79V1036.16C1156.79 1034.07 1155.09 1032.37 1153 1032.37C1150.91 1032.37 1149.21 1034.07 1149.21 1036.16V1044.27H1134.28V1036.16Z" fill="black"/>
<path fill-rule="evenodd" clip-rule="evenodd" d="M1110.42 1083.12H1195.58C1197.8 1083.12 1199.67 1084.93 1199.67 1087.2V1120.86C1199.67 1130.55 1191.85 1138.36 1182.17 1138.36H1123.83C1114.15 1138.36 1106.33 1130.55 1106.33 1120.86V1087.2C1106.33 1084.93 1108.14 1083.12 1110.42 1083.12ZM1143.78 1117.36C1146.06 1117.36 1147.87 1115.55 1147.87 1113.28V1105.58C1147.87 1103.3 1146.06 1101.5 1143.78 1101.5H1130.25C1127.98 1101.5 1126.17 1103.3 1126.17 1105.58V1113.28C1126.17 1115.55 1127.98 1117.36 1130.25 1117.36H1143.78Z" fill="black"/>
</g>
</g>
</g>
<g id="Thin-M">
<g id="Solid / Calendar Solid_17">
<g id="Shape_17">
<path d="M838.276 1036.16C838.276 1034.07 836.578 1032.37 834.484 1032.37C832.39 1032.37 830.692 1034.07 830.692 1036.16V1044.27H827.834C818.151 1044.27 810.334 1052.09 810.334 1061.77V1071.45C810.334 1073.73 812.142 1075.54 814.417 1075.54H899.584C901.859 1075.54 903.667 1073.73 903.667 1071.45V1061.77C903.667 1052.09 895.792 1044.27 886.167 1044.27H883.251V1036.16C883.251 1034.07 881.553 1032.37 879.459 1032.37C877.365 1032.37 875.667 1034.07 875.667 1036.16V1044.27H860.792V1036.16C860.792 1034.07 859.095 1032.37 857.001 1032.37C854.906 1032.37 853.209 1034.07 853.209 1036.16V1044.27H838.276V1036.16Z" fill="black"/>
<path fill-rule="evenodd" clip-rule="evenodd" d="M814.417 1083.12H899.584C901.801 1083.12 903.667 1084.93 903.667 1087.2V1120.86C903.667 1130.55 895.851 1138.36 886.167 1138.36H827.834C818.151 1138.36 810.334 1130.55 810.334 1120.86V1087.2C810.334 1084.93 812.142 1083.12 814.417 1083.12ZM847.784 1117.36C850.059 1117.36 851.867 1115.55 851.867 1113.28V1105.58C851.867 1103.3 850.059 1101.5 847.784 1101.5H834.251C831.976 1101.5 830.167 1103.3 830.167 1105.58V1113.28C830.167 1115.55 831.976 1117.36 834.251 1117.36H847.784Z" fill="black"/>
</g>
</g>
</g>
<g id="Ultralight-M">
<g id="Solid / Calendar Solid_18">
<g id="Shape_18">
<path d="M542.276 1036.16C542.276 1034.07 540.578 1032.37 538.484 1032.37C536.39 1032.37 534.692 1034.07 534.692 1036.16V1044.27H531.834C522.151 1044.27 514.334 1052.09 514.334 1061.77V1071.45C514.334 1073.73 516.142 1075.54 518.417 1075.54H603.584C605.859 1075.54 607.667 1073.73 607.667 1071.45V1061.77C607.667 1052.09 599.792 1044.27 590.167 1044.27H587.251V1036.16C587.251 1034.07 585.553 1032.37 583.459 1032.37C581.365 1032.37 579.667 1034.07 579.667 1036.16V1044.27H564.792V1036.16C564.792 1034.07 563.095 1032.37 561.001 1032.37C558.906 1032.37 557.209 1034.07 557.209 1036.16V1044.27H542.276V1036.16Z" fill="black"/>
<path fill-rule="evenodd" clip-rule="evenodd" d="M518.417 1083.12H603.584C605.801 1083.12 607.667 1084.93 607.667 1087.2V1120.86C607.667 1130.55 599.851 1138.36 590.167 1138.36H531.834C522.151 1138.36 514.334 1130.55 514.334 1120.86V1087.2C514.334 1084.93 516.142 1083.12 518.417 1083.12ZM551.784 1117.36C554.059 1117.36 555.867 1115.55 555.867 1113.28V1105.58C555.867 1103.3 554.059 1101.5 551.784 1101.5H538.251C535.976 1101.5 534.167 1103.3 534.167 1105.58V1113.28C534.167 1115.55 535.976 1117.36 538.251 1117.36H551.784Z" fill="black"/>
</g>
</g>
</g>
<g id="Black-S">
<g id="Solid / Calendar Solid_19">
<g id="Shape_19">
<path d="M2915.62 621.829C2915.62 620.334 2914.41 619.121 2912.92 619.121C2911.42 619.121 2910.21 620.334 2910.21 621.829V627.621H2908.17C2901.25 627.621 2895.67 633.204 2895.67 640.121V647.038C2895.67 648.663 2896.96 649.954 2898.58 649.954H2959.42C2961.04 649.954 2962.33 648.663 2962.33 647.038V640.121C2962.33 633.204 2956.71 627.621 2949.83 627.621H2947.75V621.829C2947.75 620.334 2946.54 619.121 2945.04 619.121C2943.55 619.121 2942.33 620.334 2942.33 621.829V627.621H2931.71V621.829C2931.71 620.334 2930.5 619.121 2929 619.121C2927.5 619.121 2926.29 620.334 2926.29 621.829V627.621H2915.62V621.829Z" fill="black"/>
<path fill-rule="evenodd" clip-rule="evenodd" d="M2898.58 655.371H2959.42C2961 655.371 2962.33 656.663 2962.33 658.288V682.329C2962.33 689.246 2956.75 694.829 2949.83 694.829H2908.17C2901.25 694.829 2895.67 689.246 2895.67 682.329V658.288C2895.67 656.663 2896.96 655.371 2898.58 655.371ZM2922.42 679.83C2924.04 679.83 2925.33 678.538 2925.33 676.913V671.413C2925.33 669.788 2924.04 668.496 2922.42 668.496H2912.75C2911.12 668.496 2909.83 669.788 2909.83 671.413V676.913C2909.83 678.538 2911.12 679.83 2912.75 679.83H2922.42Z" fill="black"/>
</g>
</g>
</g>
<g id="Heavy-S">
<g id="Solid / Calendar Solid_20">
<g id="Shape_20">
<path d="M2619.62 621.829C2619.62 620.334 2618.41 619.121 2616.92 619.121C2615.42 619.121 2614.21 620.334 2614.21 621.829V627.621H2612.17C2605.25 627.621 2599.67 633.204 2599.67 640.121V647.038C2599.67 648.663 2600.96 649.954 2602.58 649.954H2663.42C2665.04 649.954 2666.33 648.663 2666.33 647.038V640.121C2666.33 633.204 2660.71 627.621 2653.83 627.621H2651.75V621.829C2651.75 620.334 2650.54 619.121 2649.04 619.121C2647.55 619.121 2646.33 620.334 2646.33 621.829V627.621H2635.71V621.829C2635.71 620.334 2634.5 619.121 2633 619.121C2631.5 619.121 2630.29 620.334 2630.29 621.829V627.621H2619.62V621.829Z" fill="black"/>
<path fill-rule="evenodd" clip-rule="evenodd" d="M2602.58 655.371H2663.42C2665 655.371 2666.33 656.663 2666.33 658.288V682.329C2666.33 689.246 2660.75 694.829 2653.83 694.829H2612.17C2605.25 694.829 2599.67 689.246 2599.67 682.329V658.288C2599.67 656.663 2600.96 655.371 2602.58 655.371ZM2626.42 679.83C2628.04 679.83 2629.33 678.538 2629.33 676.913V671.413C2629.33 669.788 2628.04 668.496 2626.42 668.496H2616.75C2615.12 668.496 2613.83 669.788 2613.83 671.413V676.913C2613.83 678.538 2615.12 679.83 2616.75 679.83H2626.42Z" fill="black"/>
</g>
</g>
</g>
<g id="Bold-S">
<g id="Solid / Calendar Solid_21">
<g id="Shape_21">
<path d="M2323.62 621.829C2323.62 620.334 2322.41 619.121 2320.92 619.121C2319.42 619.121 2318.21 620.334 2318.21 621.829V627.621H2316.17C2309.25 627.621 2303.67 633.204 2303.67 640.121V647.038C2303.67 648.663 2304.96 649.954 2306.58 649.954H2367.42C2369.04 649.954 2370.33 648.663 2370.33 647.038V640.121C2370.33 633.204 2364.71 627.621 2357.83 627.621H2355.75V621.829C2355.75 620.334 2354.54 619.121 2353.04 619.121C2351.55 619.121 2350.33 620.334 2350.33 621.829V627.621H2339.71V621.829C2339.71 620.334 2338.5 619.121 2337 619.121C2335.5 619.121 2334.29 620.334 2334.29 621.829V627.621H2323.62V621.829Z" fill="black"/>
<path fill-rule="evenodd" clip-rule="evenodd" d="M2306.58 655.371H2367.42C2369 655.371 2370.33 656.663 2370.33 658.288V682.329C2370.33 689.246 2364.75 694.829 2357.83 694.829H2316.17C2309.25 694.829 2303.67 689.246 2303.67 682.329V658.288C2303.67 656.663 2304.96 655.371 2306.58 655.371ZM2330.42 679.83C2332.04 679.83 2333.33 678.538 2333.33 676.913V671.413C2333.33 669.788 2332.04 668.496 2330.42 668.496H2320.75C2319.12 668.496 2317.83 669.788 2317.83 671.413V676.913C2317.83 678.538 2319.12 679.83 2320.75 679.83H2330.42Z" fill="black"/>
</g>
</g>
</g>
<g id="Semibold-S">
<g id="Solid / Calendar Solid_22">
<g id="Shape_22">
<path d="M2027.62 621.829C2027.62 620.334 2026.41 619.121 2024.92 619.121C2023.42 619.121 2022.21 620.334 2022.21 621.829V627.621H2020.17C2013.25 627.621 2007.67 633.204 2007.67 640.121V647.038C2007.67 648.663 2008.96 649.954 2010.58 649.954H2071.42C2073.04 649.954 2074.33 648.663 2074.33 647.038V640.121C2074.33 633.204 2068.71 627.621 2061.83 627.621H2059.75V621.829C2059.75 620.334 2058.54 619.121 2057.04 619.121C2055.55 619.121 2054.33 620.334 2054.33 621.829V627.621H2043.71V621.829C2043.71 620.334 2042.5 619.121 2041 619.121C2039.5 619.121 2038.29 620.334 2038.29 621.829V627.621H2027.62V621.829Z" fill="black"/>
<path fill-rule="evenodd" clip-rule="evenodd" d="M2010.58 655.371H2071.42C2073 655.371 2074.33 656.663 2074.33 658.288V682.329C2074.33 689.246 2068.75 694.829 2061.83 694.829H2020.17C2013.25 694.829 2007.67 689.246 2007.67 682.329V658.288C2007.67 656.663 2008.96 655.371 2010.58 655.371ZM2034.42 679.83C2036.04 679.83 2037.33 678.538 2037.33 676.913V671.413C2037.33 669.788 2036.04 668.496 2034.42 668.496H2024.75C2023.12 668.496 2021.83 669.788 2021.83 671.413V676.913C2021.83 678.538 2023.12 679.83 2024.75 679.83H2034.42Z" fill="black"/>
</g>
</g>
</g>
<g id="Medium-S">
<g id="Solid / Calendar Solid_23">
<g id="Shape_23">
<path d="M1731.62 621.829C1731.62 620.334 1730.41 619.121 1728.92 619.121C1727.42 619.121 1726.21 620.334 1726.21 621.829V627.621H1724.17C1717.25 627.621 1711.67 633.204 1711.67 640.121V647.038C1711.67 648.663 1712.96 649.954 1714.58 649.954H1775.42C1777.04 649.954 1778.33 648.663 1778.33 647.038V640.121C1778.33 633.204 1772.71 627.621 1765.83 627.621H1763.75V621.829C1763.75 620.334 1762.54 619.121 1761.04 619.121C1759.55 619.121 1758.33 620.334 1758.33 621.829V627.621H1747.71V621.829C1747.71 620.334 1746.5 619.121 1745 619.121C1743.5 619.121 1742.29 620.334 1742.29 621.829V627.621H1731.62V621.829Z" fill="black"/>
<path fill-rule="evenodd" clip-rule="evenodd" d="M1714.58 655.371H1775.42C1777 655.371 1778.33 656.663 1778.33 658.288V682.329C1778.33 689.246 1772.75 694.829 1765.83 694.829H1724.17C1717.25 694.829 1711.67 689.246 1711.67 682.329V658.288C1711.67 656.663 1712.96 655.371 1714.58 655.371ZM1738.42 679.83C1740.04 679.83 1741.33 678.538 1741.33 676.913V671.413C1741.33 669.788 1740.04 668.496 1738.42 668.496H1728.75C1727.12 668.496 1725.83 669.788 1725.83 671.413V676.913C1725.83 678.538 1727.12 679.83 1728.75 679.83H1738.42Z" fill="black"/>
</g>
</g>
</g>
<g id="Regular-S">
<g id="Solid / Calendar Solid_24">
<g id="Shape_24">
<path d="M1435.62 621.829C1435.62 620.334 1434.41 619.121 1432.92 619.121C1431.42 619.121 1430.21 620.334 1430.21 621.829V627.621H1428.17C1421.25 627.621 1415.67 633.204 1415.67 640.121V647.038C1415.67 648.663 1416.96 649.954 1418.58 649.954H1479.42C1481.04 649.954 1482.33 648.663 1482.33 647.038V640.121C1482.33 633.204 1476.71 627.621 1469.83 627.621H1467.75V621.829C1467.75 620.334 1466.54 619.121 1465.04 619.121C1463.55 619.121 1462.33 620.334 1462.33 621.829V627.621H1451.71V621.829C1451.71 620.334 1450.5 619.121 1449 619.121C1447.5 619.121 1446.29 620.334 1446.29 621.829V627.621H1435.62V621.829Z" fill="black"/>
<path fill-rule="evenodd" clip-rule="evenodd" d="M1418.58 655.371H1479.42C1481 655.371 1482.33 656.663 1482.33 658.288V682.329C1482.33 689.246 1476.75 694.829 1469.83 694.829H1428.17C1421.25 694.829 1415.67 689.246 1415.67 682.329V658.288C1415.67 656.663 1416.96 655.371 1418.58 655.371ZM1442.42 679.83C1444.04 679.83 1445.33 678.538 1445.33 676.913V671.413C1445.33 669.788 1444.04 668.496 1442.42 668.496H1432.75C1431.12 668.496 1429.83 669.788 1429.83 671.413V676.913C1429.83 678.538 1431.12 679.83 1432.75 679.83H1442.42Z" fill="black"/>
</g>
</g>
</g>
<g id="Light-S">
<g id="Solid / Calendar Solid_25">
<g id="Shape_25">
<path d="M1139.62 621.829C1139.62 620.334 1138.41 619.121 1136.92 619.121C1135.42 619.121 1134.21 620.334 1134.21 621.829V627.621H1132.17C1125.25 627.621 1119.67 633.204 1119.67 640.121V647.038C1119.67 648.663 1120.96 649.954 1122.58 649.954H1183.42C1185.04 649.954 1186.33 648.663 1186.33 647.038V640.121C1186.33 633.204 1180.71 627.621 1173.83 627.621H1171.75V621.829C1171.75 620.334 1170.54 619.121 1169.04 619.121C1167.55 619.121 1166.33 620.334 1166.33 621.829V627.621H1155.71V621.829C1155.71 620.334 1154.5 619.121 1153 619.121C1151.5 619.121 1150.29 620.334 1150.29 621.829V627.621H1139.62V621.829Z" fill="black"/>
<path fill-rule="evenodd" clip-rule="evenodd" d="M1122.58 655.371H1183.42C1185 655.371 1186.33 656.663 1186.33 658.288V682.329C1186.33 689.246 1180.75 694.829 1173.83 694.829H1132.17C1125.25 694.829 1119.67 689.246 1119.67 682.329V658.288C1119.67 656.663 1120.96 655.371 1122.58 655.371ZM1146.42 679.83C1148.04 679.83 1149.33 678.538 1149.33 676.913V671.413C1149.33 669.788 1148.04 668.496 1146.42 668.496H1136.75C1135.12 668.496 1133.83 669.788 1133.83 671.413V676.913C1133.83 678.538 1135.12 679.83 1136.75 679.83H1146.42Z" fill="black"/>
</g>
</g>
</g>
<g id="Thin-S">
<g id="Solid / Calendar Solid_26">
<g id="Shape_26">
<path d="M843.624 621.829C843.624 620.334 842.412 619.121 840.916 619.121C839.42 619.121 838.208 620.334 838.208 621.829V627.621H836.166C829.249 627.621 823.666 633.204 823.666 640.121V647.038C823.666 648.663 824.958 649.954 826.583 649.954H887.416C889.041 649.954 890.333 648.663 890.333 647.038V640.121C890.333 633.204 884.708 627.621 877.833 627.621H875.749V621.829C875.749 620.334 874.537 619.121 873.041 619.121C871.545 619.121 870.333 620.334 870.333 621.829V627.621H859.708V621.829C859.708 620.334 858.495 619.121 856.999 619.121C855.504 619.121 854.291 620.334 854.291 621.829V627.621H843.624V621.829Z" fill="black"/>
<path fill-rule="evenodd" clip-rule="evenodd" d="M826.583 655.371H887.416C888.999 655.371 890.333 656.663 890.333 658.288V682.329C890.333 689.246 884.749 694.829 877.833 694.829H836.166C829.249 694.829 823.666 689.246 823.666 682.329V658.288C823.666 656.663 824.958 655.371 826.583 655.371ZM850.416 679.83C852.041 679.83 853.333 678.538 853.333 676.913V671.413C853.333 669.788 852.041 668.496 850.416 668.496H840.749C839.124 668.496 837.833 669.788 837.833 671.413V676.913C837.833 678.538 839.124 679.83 840.749 679.83H850.416Z" fill="black"/>
</g>
</g>
</g>
<g id="Ultralight-S">
<g id="Solid / Calendar Solid_27">
<g id="Shape_27">
<path d="M547.624 621.829C547.624 620.334 546.412 619.121 544.916 619.121C543.42 619.121 542.208 620.334 542.208 621.829V627.621H540.166C533.249 627.621 527.666 633.204 527.666 640.121V647.038C527.666 648.663 528.958 649.954 530.583 649.954H591.416C593.041 649.954 594.333 648.663 594.333 647.038V640.121C594.333 633.204 588.708 627.621 581.833 627.621H579.749V621.829C579.749 620.334 578.537 619.121 577.041 619.121C575.545 619.121 574.333 620.334 574.333 621.829V627.621H563.708V621.829C563.708 620.334 562.495 619.121 560.999 619.121C559.504 619.121 558.291 620.334 558.291 621.829V627.621H547.624V621.829Z" fill="black"/>
<path fill-rule="evenodd" clip-rule="evenodd" d="M530.583 655.371H591.416C592.999 655.371 594.333 656.663 594.333 658.288V682.329C594.333 689.246 588.749 694.829 581.833 694.829H540.166C533.249 694.829 527.666 689.246 527.666 682.329V658.288C527.666 656.663 528.958 655.371 530.583 655.371ZM554.416 679.83C556.041 679.83 557.333 678.538 557.333 676.913V671.413C557.333 669.788 556.041 668.496 554.416 668.496H544.749C543.124 668.496 541.833 669.788 541.833 671.413V676.913C541.833 678.538 543.124 679.83 544.749 679.83H554.416Z" fill="black"/>
</g>
</g>
</g>
</g>
</g>
<defs>
<clipPath id="clip0_805_27002">
<rect width="3300" height="2200" fill="white"/>
</clipPath>
</defs>
</svg>
