<svg width="3300" height="2200" viewBox="0 0 3300 2200" fill="none" xmlns="http://www.w3.org/2000/svg">
<rect width="3300" height="2200" fill="#E5E5E5"/>
<g id="Service / Solid / Minus Circle" clip-path="url(#clip0_0_1)">
<g id="Notes">
<path id="artboard" d="M3300 0H0V2200H3300V0Z" fill="white"/>
<path id="Vector" d="M263 292H3036" stroke="black" stroke-width="0.5"/>
<text id="Weight/Scale Variations" fill="black" xml:space="preserve" style="white-space: pre" font-family="Roboto" font-size="12" letter-spacing="0em"><tspan x="263" y="321.102">Weight/Scale Variations</tspan></text>
<text id="Ultralight" fill="black" xml:space="preserve" style="white-space: pre" font-family="Roboto" font-size="12" letter-spacing="0em"><tspan x="535.211" y="321.102">Ultralight</tspan></text>
<text id="Thin" fill="black" xml:space="preserve" style="white-space: pre" font-family="Roboto" font-size="12" letter-spacing="0em"><tspan x="844.422" y="321.102">Thin</tspan></text>
<text id="Light" fill="black" xml:space="preserve" style="white-space: pre" font-family="Roboto" font-size="12" letter-spacing="0em"><tspan x="1139.63" y="321.102">Light</tspan></text>
<text id="Regular" fill="black" xml:space="preserve" style="white-space: pre" font-family="Roboto" font-size="12" letter-spacing="0em"><tspan x="1429.34" y="321.102">Regular</tspan></text>
<text id="Medium" fill="black" xml:space="preserve" style="white-space: pre" font-family="Roboto" font-size="12" letter-spacing="0em"><tspan x="1724.56" y="321.102">Medium</tspan></text>
<text id="Semibold" fill="black" xml:space="preserve" style="white-space: pre" font-family="Roboto" font-size="12" letter-spacing="0em"><tspan x="2017.77" y="321.102">Semibold</tspan></text>
<text id="Bold" fill="black" xml:space="preserve" style="white-space: pre" font-family="Roboto" font-size="12" letter-spacing="0em"><tspan x="2327.48" y="321.102">Bold</tspan></text>
<text id="Heavy" fill="black" xml:space="preserve" style="white-space: pre" font-family="Roboto" font-size="12" letter-spacing="0em"><tspan x="2620.19" y="321.102">Heavy</tspan></text>
<text id="Black" fill="black" xml:space="preserve" style="white-space: pre" font-family="Roboto" font-size="12" letter-spacing="0em"><tspan x="2918.4" y="321.102">Black</tspan></text>
<path id="Vector_2" d="M263 1903H3036" stroke="black" stroke-width="0.5"/>
<g id="Group">
<path id="Vector_3" d="M272.248 1933.83C276.555 1933.83 280.139 1930.26 280.139 1925.95C280.139 1921.64 276.545 1918.07 272.238 1918.07C267.941 1918.07 264.367 1921.64 264.367 1925.95C264.367 1930.26 267.951 1933.83 272.248 1933.83ZM272.248 1932.35C268.703 1932.35 265.871 1929.51 265.871 1925.95C265.871 1922.4 268.693 1919.55 272.238 1919.55C275.793 1919.55 278.635 1922.4 278.644 1925.95C278.654 1929.51 275.803 1932.35 272.248 1932.35ZM272.229 1929.57C272.697 1929.57 272.971 1929.26 272.971 1928.74V1926.68H275.197C275.695 1926.68 276.037 1926.43 276.037 1925.96C276.037 1925.48 275.715 1925.22 275.197 1925.22H272.971V1922.99C272.971 1922.47 272.697 1922.15 272.229 1922.15C271.76 1922.15 271.506 1922.49 271.506 1922.99V1925.22H269.299C268.781 1925.22 268.449 1925.48 268.449 1925.96C268.449 1926.43 268.801 1926.68 269.299 1926.68H271.506V1928.74C271.506 1929.24 271.76 1929.57 272.229 1929.57Z" fill="black"/>
</g>
<g id="Group_2">
<path id="Vector_4" d="M293.215 1935.91C298.664 1935.91 303.176 1931.4 303.176 1925.95C303.176 1920.51 298.654 1915.99 293.205 1915.99C287.766 1915.99 283.254 1920.51 283.254 1925.95C283.254 1931.4 287.775 1935.91 293.215 1935.91ZM293.215 1934.25C288.605 1934.25 284.924 1930.56 284.924 1925.95C284.924 1921.35 288.596 1917.65 293.205 1917.65C297.814 1917.65 301.506 1921.35 301.516 1925.95C301.525 1930.56 297.824 1934.25 293.215 1934.25ZM293.195 1930.59C293.713 1930.59 294.025 1930.23 294.025 1929.66V1926.77H297.082C297.629 1926.77 298.01 1926.49 298.01 1925.97C298.01 1925.44 297.648 1925.14 297.082 1925.14H294.025V1922.07C294.025 1921.5 293.713 1921.14 293.195 1921.14C292.678 1921.14 292.385 1921.52 292.385 1922.07V1925.14H289.338C288.771 1925.14 288.4 1925.44 288.4 1925.97C288.4 1926.49 288.791 1926.77 289.338 1926.77H292.385V1929.66C292.385 1930.21 292.678 1930.59 293.195 1930.59Z" fill="black"/>
</g>
<g id="Group_3">
<path id="Vector_5" d="M319.895 1938.67C326.857 1938.67 332.619 1932.92 332.619 1925.96C332.619 1918.99 326.848 1913.24 319.885 1913.24C312.932 1913.24 307.18 1918.99 307.18 1925.96C307.18 1932.92 312.941 1938.67 319.895 1938.67ZM319.895 1936.86C313.859 1936.86 309.006 1931.99 309.006 1925.96C309.006 1919.92 313.85 1915.06 319.885 1915.06C325.93 1915.06 330.783 1919.92 330.793 1925.96C330.803 1931.99 325.939 1936.86 319.895 1936.86ZM319.875 1931.93C320.441 1931.93 320.793 1931.54 320.793 1930.94V1926.87H325.031C325.617 1926.87 326.037 1926.53 326.037 1925.98C326.037 1925.4 325.647 1925.06 325.031 1925.06H320.793V1920.81C320.793 1920.2 320.441 1919.8 319.875 1919.8C319.309 1919.8 318.986 1920.21 318.986 1920.81V1925.06H314.758C314.143 1925.06 313.732 1925.4 313.732 1925.98C313.732 1926.53 314.162 1926.87 314.758 1926.87H318.986V1930.94C318.986 1931.52 319.309 1931.93 319.875 1931.93Z" fill="black"/>
</g>
<text id="Design Variations" fill="black" xml:space="preserve" style="white-space: pre" font-family="Roboto" font-size="12" letter-spacing="0em"><tspan x="263" y="1952.1">Design Variations</tspan></text>
<text id="Symbols are supported in up to nine weights and three scales." fill="black" xml:space="preserve" style="white-space: pre" font-family="Roboto" font-size="12" letter-spacing="0em"><tspan x="263" y="1970.1">Symbols are supported in up to nine weights and three scales.</tspan></text>
<text id="For optimal layout with text and other symbols, vertically align" fill="black" xml:space="preserve" style="white-space: pre" font-family="Roboto" font-size="12" letter-spacing="0em"><tspan x="263" y="1988.1">For optimal layout with text and other symbols, vertically align</tspan></text>
<text id="symbols with the adjacent text." fill="black" xml:space="preserve" style="white-space: pre" font-family="Roboto" font-size="12" letter-spacing="0em"><tspan x="263" y="2006.1">symbols with the adjacent text.</tspan></text>
<path id="Vector_6" opacity="0.4" d="M779 1919H776V1933H779V1919Z" fill="#00AEEF"/>
<g id="Group_4">
<path id="Vector_7" d="M789.527 1933H791.373L786.178 1918.91H784.439L779.244 1933H781.09L782.506 1928.96H788.111L789.527 1933ZM785.279 1921.04H785.338L787.594 1927.47H783.023L785.279 1921.04Z" fill="black"/>
</g>
<path id="Vector_8" opacity="0.4" d="M794.617 1919H791.617V1933H794.617V1919Z" fill="#00AEEF"/>
<text id="Margins" fill="black" xml:space="preserve" style="white-space: pre" font-family="Roboto" font-size="12" letter-spacing="0em"><tspan x="776" y="1952.1">Margins</tspan></text>
<text id="Leading and trailing margins on the left and right side of each symbol" fill="black" xml:space="preserve" style="white-space: pre" font-family="Roboto" font-size="12" letter-spacing="0em"><tspan x="776" y="1970.1">Leading and trailing margins on the left and right side of each symbol</tspan></text>
<text id="can be adjusted by modifying the width of the blue rectangles." fill="black" xml:space="preserve" style="white-space: pre" font-family="Roboto" font-size="12" letter-spacing="0em"><tspan x="776" y="1988.1">can be adjusted by modifying the width of the blue rectangles.</tspan></text>
<text id="Modifications are automatically applied proportionally to all" fill="black" xml:space="preserve" style="white-space: pre" font-family="Roboto" font-size="12" letter-spacing="0em"><tspan x="776" y="2006.1">Modifications are automatically applied proportionally to all</tspan></text>
<text id="scales and weights." fill="black" xml:space="preserve" style="white-space: pre" font-family="Roboto" font-size="12" letter-spacing="0em"><tspan x="776" y="2024.1">scales and weights.</tspan></text>
<g id="Group_5">
<path id="Vector_9" d="M1291.83 1936.11L1293.37 1937.66C1294.22 1938.49 1295.19 1938.42 1296.06 1937.46L1306.27 1926.34C1306.7 1926.63 1307.1 1926.62 1307.56 1926.52L1308.61 1926.31L1309.3 1927L1309.25 1927.52C1309.19 1928.05 1309.35 1928.47 1309.85 1928.97L1310.66 1929.78C1311.17 1930.28 1311.82 1930.31 1312.3 1929.83L1315.55 1926.58C1316.03 1926.1 1316.01 1925.45 1315.5 1924.94L1314.68 1924.12C1314.19 1923.62 1313.77 1923.45 1313.24 1923.53L1312.71 1923.58L1312.06 1922.92L1312.34 1921.78C1312.49 1921.21 1312.34 1920.74 1311.71 1920.14L1309.3 1917.75C1305.76 1914.22 1301.23 1914.33 1298.11 1917.46C1297.69 1917.89 1297.64 1918.48 1297.92 1918.91C1298.15 1919.28 1298.63 1919.5 1299.27 1919.34C1300.79 1918.96 1302.3 1919.07 1303.78 1920.08L1303.16 1921.66C1302.93 1922.25 1302.94 1922.73 1303.18 1923.16L1292.02 1933.44C1291.08 1934.31 1290.97 1935.25 1291.83 1936.11ZM1299.67 1917.85C1302.34 1915.86 1305.65 1916.17 1308.05 1918.58L1310.68 1921.19C1310.91 1921.43 1310.94 1921.61 1310.88 1921.91L1310.5 1923.47L1312.08 1925.04L1313.04 1924.95C1313.33 1924.92 1313.41 1924.94 1313.64 1925.17L1314.26 1925.79L1311.51 1928.54L1310.88 1927.92C1310.66 1927.7 1310.64 1927.6 1310.67 1927.32L1310.76 1926.36L1309.19 1924.8L1307.57 1925.11C1307.29 1925.17 1307.14 1925.17 1306.91 1924.92L1304.73 1922.75C1304.51 1922.51 1304.48 1922.37 1304.61 1922.05L1305.55 1919.78C1303.95 1918.24 1301.84 1917.39 1299.8 1918.05C1299.71 1918.08 1299.64 1918.06 1299.61 1918.02C1299.59 1917.97 1299.59 1917.92 1299.67 1917.85ZM1293.1 1935.41C1292.61 1934.91 1292.79 1934.61 1293.12 1934.31L1304.08 1924.19L1305.31 1925.42L1295.15 1936.35C1294.85 1936.68 1294.47 1936.78 1294.07 1936.38L1293.1 1935.41Z" fill="black"/>
</g>
<text id="Exporting" fill="black" xml:space="preserve" style="white-space: pre" font-family="Roboto" font-size="12" letter-spacing="0em"><tspan x="1289" y="1952.1">Exporting</tspan></text>
<text id="Symbols should be outlined when exporting to ensure the" fill="black" xml:space="preserve" style="white-space: pre" font-family="Roboto" font-size="12" letter-spacing="0em"><tspan x="1289" y="1970.1">Symbols should be outlined when exporting to ensure the</tspan></text>
<text id="design is preserved when submitting to Xcode." fill="black" xml:space="preserve" style="white-space: pre" font-family="Roboto" font-size="12" letter-spacing="0em"><tspan x="1289" y="1988.1">design is preserved when submitting to Xcode.</tspan></text>
<text id="template-version" fill="black" xml:space="preserve" style="white-space: pre" font-family="Roboto" font-size="12" letter-spacing="0em"><tspan x="2958" y="1932.1">Template v.1.0</tspan></text>
<text id="Generated from pencil.circle" fill="black" xml:space="preserve" style="white-space: pre" font-family="Roboto" font-size="12" letter-spacing="0em"><tspan x="2885" y="1950.1">Generated from pencil.circle</tspan></text>
<text id="Typeset at 100 points" fill="black" xml:space="preserve" style="white-space: pre" font-family="Roboto" font-size="12" letter-spacing="0em"><tspan x="2921" y="1968.1">Typeset at 100 points</tspan></text>
<text id="Small" fill="black" xml:space="preserve" style="white-space: pre" font-family="Roboto" font-size="12" letter-spacing="0em"><tspan x="263" y="725.102">Small</tspan></text>
<text id="Medium_2" fill="black" xml:space="preserve" style="white-space: pre" font-family="Roboto" font-size="12" letter-spacing="0em"><tspan x="263" y="1155.1">Medium</tspan></text>
<text id="Large" fill="black" xml:space="preserve" style="white-space: pre" font-family="Roboto" font-size="12" letter-spacing="0em"><tspan x="263" y="1585.1">Large</tspan></text>
</g>
<g id="Guides">
<g id="H-reference">
<path id="Vector_10" d="M393.932 695.998H396.666L369.566 625.539H367.076L339.977 695.998H342.662L351.94 671.535H384.703L393.932 695.998ZM368.199 628.908H368.443L383.824 669.289H352.818L368.199 628.908Z" fill="#27AAE1"/>
</g>
<path id="Baseline-S" d="M263 696H3036" stroke="#27AAE1" stroke-width="0.577"/>
<path id="Capline-S" d="M263 626H3036" stroke="#27AAE1" stroke-width="0.577"/>
<g id="H-reference_2">
<path id="Vector_11" d="M393.932 1126H396.666L369.566 1055.54H367.076L339.977 1126H342.662L351.94 1101.54H384.703L393.932 1126ZM368.199 1058.91H368.443L383.824 1099.29H352.818L368.199 1058.91Z" fill="#27AAE1"/>
</g>
<path id="Baseline-M" d="M263 1126H3036" stroke="#27AAE1" stroke-width="0.577"/>
<path id="Capline-M" d="M263 1056H3036" stroke="#27AAE1" stroke-width="0.577"/>
<g id="H-reference_3">
<path id="Vector_12" d="M393.932 1556H396.666L369.566 1485.54H367.076L339.977 1556H342.662L351.94 1531.54H384.703L393.932 1556ZM368.199 1488.91H368.443L383.824 1529.29H352.818L368.199 1488.91Z" fill="#27AAE1"/>
</g>
<g id="Group 1">
<path id="Baseline-L" d="M263 1556H3036" stroke="#27AAE1" stroke-width="0.577"/>
<path id="Capline-L" d="M263 1486H3036" stroke="#27AAE1" stroke-width="0.577"/>
</g>
<path id="left-margin" opacity="0.4" d="M1396.04 1030.79H1387.3V1150.12H1396.04V1030.79Z" fill="#00AEEF"/>
<path id="right-margin" opacity="0.4" d="M1510.39 1030.79H1501.65V1150.12H1510.39V1030.79Z" fill="#00AEEF"/>
</g>
<g id="Symbols">
<g id="Black-L">
<g id="Solid / Minus Solid">
<path id="Shape" fill-rule="evenodd" clip-rule="evenodd" d="M2861.5 1521C2861.5 1483.72 2891.72 1453.5 2929 1453.5C2966.28 1453.5 2996.5 1483.72 2996.5 1521C2996.5 1558.28 2966.28 1588.5 2929 1588.5C2891.72 1588.5 2861.5 1558.28 2861.5 1521ZM2961.63 1516.13C2964.32 1516.13 2966.5 1518.31 2966.5 1521C2966.5 1523.69 2964.32 1525.88 2961.63 1525.88C2919.56 1525.88 2935.37 1525.88 2896.37 1525.88C2893.68 1525.88 2891.5 1523.69 2891.5 1521C2891.5 1518.31 2893.68 1516.13 2896.37 1516.13C2938.19 1516.13 2922.77 1516.13 2961.63 1516.13Z" fill="black"/>
</g>
</g>
<g id="Heavy-L">
<g id="Solid / Minus Solid_2">
<path id="Shape_2" fill-rule="evenodd" clip-rule="evenodd" d="M2565.5 1521C2565.5 1483.72 2595.72 1453.5 2633 1453.5C2670.28 1453.5 2700.5 1483.72 2700.5 1521C2700.5 1558.28 2670.28 1588.5 2633 1588.5C2595.72 1588.5 2565.5 1558.28 2565.5 1521ZM2665.63 1516.13C2668.32 1516.13 2670.5 1518.31 2670.5 1521C2670.5 1523.69 2668.32 1525.88 2665.63 1525.88C2623.56 1525.88 2639.37 1525.88 2600.37 1525.88C2597.68 1525.88 2595.5 1523.69 2595.5 1521C2595.5 1518.31 2597.68 1516.13 2600.37 1516.13C2642.19 1516.13 2626.77 1516.13 2665.63 1516.13Z" fill="black"/>
</g>
</g>
<g id="Bold-L">
<g id="Solid / Minus Solid_3">
<path id="Shape_3" fill-rule="evenodd" clip-rule="evenodd" d="M2269.5 1521C2269.5 1483.72 2299.72 1453.5 2337 1453.5C2374.28 1453.5 2404.5 1483.72 2404.5 1521C2404.5 1558.28 2374.28 1588.5 2337 1588.5C2299.72 1588.5 2269.5 1558.28 2269.5 1521ZM2369.63 1516.13C2372.32 1516.13 2374.5 1518.31 2374.5 1521C2374.5 1523.69 2372.32 1525.88 2369.63 1525.88C2327.56 1525.88 2343.37 1525.88 2304.37 1525.88C2301.68 1525.88 2299.5 1523.69 2299.5 1521C2299.5 1518.31 2301.68 1516.13 2304.37 1516.13C2346.19 1516.13 2330.77 1516.13 2369.63 1516.13Z" fill="black"/>
</g>
</g>
<g id="Semibold-L">
<g id="Solid / Minus Solid_4">
<path id="Shape_4" fill-rule="evenodd" clip-rule="evenodd" d="M1973.5 1521C1973.5 1483.72 2003.72 1453.5 2041 1453.5C2078.28 1453.5 2108.5 1483.72 2108.5 1521C2108.5 1558.28 2078.28 1588.5 2041 1588.5C2003.72 1588.5 1973.5 1558.28 1973.5 1521ZM2073.63 1516.13C2076.32 1516.13 2078.5 1518.31 2078.5 1521C2078.5 1523.69 2076.32 1525.88 2073.63 1525.88C2031.56 1525.88 2047.37 1525.88 2008.37 1525.88C2005.68 1525.88 2003.5 1523.69 2003.5 1521C2003.5 1518.31 2005.68 1516.13 2008.37 1516.13C2050.19 1516.13 2034.77 1516.13 2073.63 1516.13Z" fill="black"/>
</g>
</g>
<g id="Medium-L">
<g id="Solid / Minus Solid_5">
<path id="Shape_5" fill-rule="evenodd" clip-rule="evenodd" d="M1677.5 1521C1677.5 1483.72 1707.72 1453.5 1745 1453.5C1782.28 1453.5 1812.5 1483.72 1812.5 1521C1812.5 1558.28 1782.28 1588.5 1745 1588.5C1707.72 1588.5 1677.5 1558.28 1677.5 1521ZM1777.63 1516.13C1780.32 1516.13 1782.5 1518.31 1782.5 1521C1782.5 1523.69 1780.32 1525.88 1777.63 1525.88C1735.56 1525.88 1751.37 1525.88 1712.37 1525.88C1709.68 1525.88 1707.5 1523.69 1707.5 1521C1707.5 1518.31 1709.68 1516.13 1712.37 1516.13C1754.19 1516.13 1738.77 1516.13 1777.63 1516.13Z" fill="black"/>
</g>
</g>
<g id="Regular-L">
<g id="Solid / Minus Solid_6">
<path id="Shape_6" fill-rule="evenodd" clip-rule="evenodd" d="M1381.5 1521C1381.5 1483.72 1411.72 1453.5 1449 1453.5C1486.28 1453.5 1516.5 1483.72 1516.5 1521C1516.5 1558.28 1486.28 1588.5 1449 1588.5C1411.72 1588.5 1381.5 1558.28 1381.5 1521ZM1481.63 1516.13C1484.32 1516.13 1486.5 1518.31 1486.5 1521C1486.5 1523.69 1484.32 1525.88 1481.63 1525.88C1439.56 1525.88 1455.37 1525.88 1416.37 1525.88C1413.68 1525.88 1411.5 1523.69 1411.5 1521C1411.5 1518.31 1413.68 1516.13 1416.37 1516.13C1458.19 1516.13 1442.77 1516.13 1481.63 1516.13Z" fill="black"/>
</g>
</g>
<g id="Light-L">
<g id="Solid / Minus Solid_7">
<path id="Shape_7" fill-rule="evenodd" clip-rule="evenodd" d="M1085.5 1521C1085.5 1483.72 1115.72 1453.5 1153 1453.5C1190.28 1453.5 1220.5 1483.72 1220.5 1521C1220.5 1558.28 1190.28 1588.5 1153 1588.5C1115.72 1588.5 1085.5 1558.28 1085.5 1521ZM1185.63 1516.13C1188.32 1516.13 1190.5 1518.31 1190.5 1521C1190.5 1523.69 1188.32 1525.88 1185.63 1525.88C1143.56 1525.88 1159.37 1525.88 1120.37 1525.88C1117.68 1525.88 1115.5 1523.69 1115.5 1521C1115.5 1518.31 1117.68 1516.13 1120.37 1516.13C1162.19 1516.13 1146.77 1516.13 1185.63 1516.13Z" fill="black"/>
</g>
</g>
<g id="Thin-L">
<g id="Solid / Minus Solid_8">
<path id="Shape_8" fill-rule="evenodd" clip-rule="evenodd" d="M789.5 1521C789.5 1483.72 819.721 1453.5 857 1453.5C894.279 1453.5 924.5 1483.72 924.5 1521C924.5 1558.28 894.279 1588.5 857 1588.5C819.721 1588.5 789.5 1558.28 789.5 1521ZM889.625 1516.13C892.318 1516.13 894.5 1518.31 894.5 1521C894.5 1523.69 892.318 1525.88 889.625 1525.88C847.562 1525.88 863.375 1525.88 824.375 1525.88C821.683 1525.88 819.5 1523.69 819.5 1521C819.5 1518.31 821.683 1516.13 824.375 1516.13C866.193 1516.13 850.769 1516.13 889.625 1516.13Z" fill="black"/>
</g>
</g>
<g id="Ultralight-L">
<g id="Solid / Minus Solid_9">
<path id="Shape_9" fill-rule="evenodd" clip-rule="evenodd" d="M493.5 1521C493.5 1483.72 523.721 1453.5 561 1453.5C598.279 1453.5 628.5 1483.72 628.5 1521C628.5 1558.28 598.279 1588.5 561 1588.5C523.721 1588.5 493.5 1558.28 493.5 1521ZM593.625 1516.13C596.318 1516.13 598.5 1518.31 598.5 1521C598.5 1523.69 596.318 1525.88 593.625 1525.88C551.562 1525.88 567.375 1525.88 528.375 1525.88C525.683 1525.88 523.5 1523.69 523.5 1521C523.5 1518.31 525.683 1516.13 528.375 1516.13C570.193 1516.13 554.769 1516.13 593.625 1516.13Z" fill="black"/>
</g>
</g>
<g id="Black-M">
<g id="Solid / Minus Solid_10">
<path id="Shape_10" fill-rule="evenodd" clip-rule="evenodd" d="M2876.5 1091C2876.5 1062.01 2900.01 1038.5 2929 1038.5C2957.99 1038.5 2981.5 1062.01 2981.5 1091C2981.5 1119.99 2957.99 1143.5 2929 1143.5C2900.01 1143.5 2876.5 1119.99 2876.5 1091ZM2954.38 1087.21C2956.47 1087.21 2958.17 1088.91 2958.17 1091C2958.17 1093.09 2956.47 1094.79 2954.38 1094.79C2921.66 1094.79 2933.96 1094.79 2903.62 1094.79C2901.53 1094.79 2899.83 1093.09 2899.83 1091C2899.83 1088.91 2901.53 1087.21 2903.62 1087.21C2936.15 1087.21 2924.15 1087.21 2954.38 1087.21Z" fill="black"/>
</g>
</g>
<g id="Heavy-M">
<g id="Solid / Minus Solid_11">
<path id="Shape_11" fill-rule="evenodd" clip-rule="evenodd" d="M2580.5 1091C2580.5 1062.01 2604.01 1038.5 2633 1038.5C2661.99 1038.5 2685.5 1062.01 2685.5 1091C2685.5 1119.99 2661.99 1143.5 2633 1143.5C2604.01 1143.5 2580.5 1119.99 2580.5 1091ZM2658.38 1087.21C2660.47 1087.21 2662.17 1088.91 2662.17 1091C2662.17 1093.09 2660.47 1094.79 2658.38 1094.79C2625.66 1094.79 2637.96 1094.79 2607.62 1094.79C2605.53 1094.79 2603.83 1093.09 2603.83 1091C2603.83 1088.91 2605.53 1087.21 2607.62 1087.21C2640.15 1087.21 2628.15 1087.21 2658.38 1087.21Z" fill="black"/>
</g>
</g>
<g id="Bold-M">
<g id="Solid / Minus Solid_12">
<path id="Shape_12" fill-rule="evenodd" clip-rule="evenodd" d="M2284.5 1091C2284.5 1062.01 2308.01 1038.5 2337 1038.5C2365.99 1038.5 2389.5 1062.01 2389.5 1091C2389.5 1119.99 2365.99 1143.5 2337 1143.5C2308.01 1143.5 2284.5 1119.99 2284.5 1091ZM2362.38 1087.21C2364.47 1087.21 2366.17 1088.91 2366.17 1091C2366.17 1093.09 2364.47 1094.79 2362.38 1094.79C2329.66 1094.79 2341.96 1094.79 2311.62 1094.79C2309.53 1094.79 2307.83 1093.09 2307.83 1091C2307.83 1088.91 2309.53 1087.21 2311.62 1087.21C2344.15 1087.21 2332.15 1087.21 2362.38 1087.21Z" fill="black"/>
</g>
</g>
<g id="Semibold-M">
<g id="Solid / Minus Solid_13">
<path id="Shape_13" fill-rule="evenodd" clip-rule="evenodd" d="M1988.5 1091C1988.5 1062.01 2012.01 1038.5 2041 1038.5C2069.99 1038.5 2093.5 1062.01 2093.5 1091C2093.5 1119.99 2069.99 1143.5 2041 1143.5C2012.01 1143.5 1988.5 1119.99 1988.5 1091ZM2066.38 1087.21C2068.47 1087.21 2070.17 1088.91 2070.17 1091C2070.17 1093.09 2068.47 1094.79 2066.38 1094.79C2033.66 1094.79 2045.96 1094.79 2015.62 1094.79C2013.53 1094.79 2011.83 1093.09 2011.83 1091C2011.83 1088.91 2013.53 1087.21 2015.62 1087.21C2048.15 1087.21 2036.15 1087.21 2066.38 1087.21Z" fill="black"/>
</g>
</g>
<g id="Medium-M">
<g id="Solid / Minus Solid_14">
<path id="Shape_14" fill-rule="evenodd" clip-rule="evenodd" d="M1692.5 1091C1692.5 1062.01 1716.01 1038.5 1745 1038.5C1773.99 1038.5 1797.5 1062.01 1797.5 1091C1797.5 1119.99 1773.99 1143.5 1745 1143.5C1716.01 1143.5 1692.5 1119.99 1692.5 1091ZM1770.38 1087.21C1772.47 1087.21 1774.17 1088.91 1774.17 1091C1774.17 1093.09 1772.47 1094.79 1770.38 1094.79C1737.66 1094.79 1749.96 1094.79 1719.62 1094.79C1717.53 1094.79 1715.83 1093.09 1715.83 1091C1715.83 1088.91 1717.53 1087.21 1719.62 1087.21C1752.15 1087.21 1740.15 1087.21 1770.38 1087.21Z" fill="black"/>
</g>
</g>
<g id="Regular-M">
<g id="Solid / Minus Solid_15">
<path id="Shape_15" fill-rule="evenodd" clip-rule="evenodd" d="M1396.5 1091C1396.5 1062.01 1420.01 1038.5 1449 1038.5C1477.99 1038.5 1501.5 1062.01 1501.5 1091C1501.5 1119.99 1477.99 1143.5 1449 1143.5C1420.01 1143.5 1396.5 1119.99 1396.5 1091ZM1474.38 1087.21C1476.47 1087.21 1478.17 1088.91 1478.17 1091C1478.17 1093.09 1476.47 1094.79 1474.38 1094.79C1441.66 1094.79 1453.96 1094.79 1423.62 1094.79C1421.53 1094.79 1419.83 1093.09 1419.83 1091C1419.83 1088.91 1421.53 1087.21 1423.62 1087.21C1456.15 1087.21 1444.15 1087.21 1474.38 1087.21Z" fill="black"/>
</g>
</g>
<g id="Light-M">
<g id="Solid / Minus Solid_16">
<path id="Shape_16" fill-rule="evenodd" clip-rule="evenodd" d="M1100.5 1091C1100.5 1062.01 1124.01 1038.5 1153 1038.5C1181.99 1038.5 1205.5 1062.01 1205.5 1091C1205.5 1119.99 1181.99 1143.5 1153 1143.5C1124.01 1143.5 1100.5 1119.99 1100.5 1091ZM1178.38 1087.21C1180.47 1087.21 1182.17 1088.91 1182.17 1091C1182.17 1093.09 1180.47 1094.79 1178.38 1094.79C1145.66 1094.79 1157.96 1094.79 1127.62 1094.79C1125.53 1094.79 1123.83 1093.09 1123.83 1091C1123.83 1088.91 1125.53 1087.21 1127.62 1087.21C1160.15 1087.21 1148.15 1087.21 1178.38 1087.21Z" fill="black"/>
</g>
</g>
<g id="Thin-M">
<g id="Solid / Minus Solid_17">
<path id="Shape_17" fill-rule="evenodd" clip-rule="evenodd" d="M804.5 1091C804.5 1062.01 828.005 1038.5 857 1038.5C885.995 1038.5 909.5 1062.01 909.5 1091C909.5 1119.99 885.995 1143.5 857 1143.5C828.005 1143.5 804.5 1119.99 804.5 1091ZM882.375 1087.21C884.469 1087.21 886.167 1088.91 886.167 1091C886.167 1093.09 884.469 1094.79 882.375 1094.79C849.659 1094.79 861.958 1094.79 831.625 1094.79C829.531 1094.79 827.833 1093.09 827.833 1091C827.833 1088.91 829.531 1087.21 831.625 1087.21C864.15 1087.21 852.154 1087.21 882.375 1087.21Z" fill="black"/>
</g>
</g>
<g id="Ultralight-M">
<g id="Solid / Minus Solid_18">
<path id="Shape_18" fill-rule="evenodd" clip-rule="evenodd" d="M508.5 1091C508.5 1062.01 532.005 1038.5 561 1038.5C589.995 1038.5 613.5 1062.01 613.5 1091C613.5 1119.99 589.995 1143.5 561 1143.5C532.005 1143.5 508.5 1119.99 508.5 1091ZM586.375 1087.21C588.469 1087.21 590.167 1088.91 590.167 1091C590.167 1093.09 588.469 1094.79 586.375 1094.79C553.659 1094.79 565.958 1094.79 535.625 1094.79C533.531 1094.79 531.833 1093.09 531.833 1091C531.833 1088.91 533.531 1087.21 535.625 1087.21C568.15 1087.21 556.154 1087.21 586.375 1087.21Z" fill="black"/>
</g>
</g>
<g id="Black-S">
<g id="Solid / Minus Solid_19">
<path id="Shape_19" fill-rule="evenodd" clip-rule="evenodd" d="M2891.5 661C2891.5 640.289 2908.29 623.5 2929 623.5C2949.71 623.5 2966.5 640.289 2966.5 661C2966.5 681.711 2949.71 698.5 2929 698.5C2908.29 698.5 2891.5 681.711 2891.5 661ZM2947.13 658.292C2948.62 658.292 2949.83 659.504 2949.83 661C2949.83 662.496 2948.62 663.708 2947.13 663.708C2923.76 663.708 2932.54 663.708 2910.87 663.708C2909.38 663.708 2908.17 662.496 2908.17 661C2908.17 659.504 2909.38 658.292 2910.87 658.292C2934.11 658.292 2925.54 658.292 2947.13 658.292Z" fill="black"/>
</g>
</g>
<g id="Heavy-S">
<g id="Solid / Minus Solid_20">
<path id="Shape_20" fill-rule="evenodd" clip-rule="evenodd" d="M2595.5 661C2595.5 640.289 2612.29 623.5 2633 623.5C2653.71 623.5 2670.5 640.289 2670.5 661C2670.5 681.711 2653.71 698.5 2633 698.5C2612.29 698.5 2595.5 681.711 2595.5 661ZM2651.13 658.292C2652.62 658.292 2653.83 659.504 2653.83 661C2653.83 662.496 2652.62 663.708 2651.13 663.708C2627.76 663.708 2636.54 663.708 2614.87 663.708C2613.38 663.708 2612.17 662.496 2612.17 661C2612.17 659.504 2613.38 658.292 2614.87 658.292C2638.11 658.292 2629.54 658.292 2651.13 658.292Z" fill="black"/>
</g>
</g>
<g id="Bold-S">
<g id="Solid / Minus Solid_21">
<path id="Shape_21" fill-rule="evenodd" clip-rule="evenodd" d="M2299.5 661C2299.5 640.289 2316.29 623.5 2337 623.5C2357.71 623.5 2374.5 640.289 2374.5 661C2374.5 681.711 2357.71 698.5 2337 698.5C2316.29 698.5 2299.5 681.711 2299.5 661ZM2355.13 658.292C2356.62 658.292 2357.83 659.504 2357.83 661C2357.83 662.496 2356.62 663.708 2355.13 663.708C2331.76 663.708 2340.54 663.708 2318.87 663.708C2317.38 663.708 2316.17 662.496 2316.17 661C2316.17 659.504 2317.38 658.292 2318.87 658.292C2342.11 658.292 2333.54 658.292 2355.13 658.292Z" fill="black"/>
</g>
</g>
<g id="Semibold-S">
<g id="Solid / Minus Solid_22">
<path id="Shape_22" fill-rule="evenodd" clip-rule="evenodd" d="M2003.5 661C2003.5 640.289 2020.29 623.5 2041 623.5C2061.71 623.5 2078.5 640.289 2078.5 661C2078.5 681.711 2061.71 698.5 2041 698.5C2020.29 698.5 2003.5 681.711 2003.5 661ZM2059.13 658.292C2060.62 658.292 2061.83 659.504 2061.83 661C2061.83 662.496 2060.62 663.708 2059.13 663.708C2035.76 663.708 2044.54 663.708 2022.87 663.708C2021.38 663.708 2020.17 662.496 2020.17 661C2020.17 659.504 2021.38 658.292 2022.87 658.292C2046.11 658.292 2037.54 658.292 2059.13 658.292Z" fill="black"/>
</g>
</g>
<g id="Medium-S">
<g id="Solid / Minus Solid_23">
<path id="Shape_23" fill-rule="evenodd" clip-rule="evenodd" d="M1707.5 661C1707.5 640.289 1724.29 623.5 1745 623.5C1765.71 623.5 1782.5 640.289 1782.5 661C1782.5 681.711 1765.71 698.5 1745 698.5C1724.29 698.5 1707.5 681.711 1707.5 661ZM1763.13 658.292C1764.62 658.292 1765.83 659.504 1765.83 661C1765.83 662.496 1764.62 663.708 1763.13 663.708C1739.76 663.708 1748.54 663.708 1726.87 663.708C1725.38 663.708 1724.17 662.496 1724.17 661C1724.17 659.504 1725.38 658.292 1726.87 658.292C1750.11 658.292 1741.54 658.292 1763.13 658.292Z" fill="black"/>
</g>
</g>
<g id="Regular-S">
<g id="Solid / Minus Solid_24">
<path id="Shape_24" fill-rule="evenodd" clip-rule="evenodd" d="M1411.5 661C1411.5 640.289 1428.29 623.5 1449 623.5C1469.71 623.5 1486.5 640.289 1486.5 661C1486.5 681.711 1469.71 698.5 1449 698.5C1428.29 698.5 1411.5 681.711 1411.5 661ZM1467.13 658.292C1468.62 658.292 1469.83 659.504 1469.83 661C1469.83 662.496 1468.62 663.708 1467.13 663.708C1443.76 663.708 1452.54 663.708 1430.87 663.708C1429.38 663.708 1428.17 662.496 1428.17 661C1428.17 659.504 1429.38 658.292 1430.87 658.292C1454.11 658.292 1445.54 658.292 1467.13 658.292Z" fill="black"/>
</g>
</g>
<g id="Light-S">
<g id="Solid / Minus Solid_25">
<path id="Shape_25" fill-rule="evenodd" clip-rule="evenodd" d="M1115.5 661C1115.5 640.289 1132.29 623.5 1153 623.5C1173.71 623.5 1190.5 640.289 1190.5 661C1190.5 681.711 1173.71 698.5 1153 698.5C1132.29 698.5 1115.5 681.711 1115.5 661ZM1171.13 658.292C1172.62 658.292 1173.83 659.504 1173.83 661C1173.83 662.496 1172.62 663.708 1171.13 663.708C1147.76 663.708 1156.54 663.708 1134.87 663.708C1133.38 663.708 1132.17 662.496 1132.17 661C1132.17 659.504 1133.38 658.292 1134.87 658.292C1158.11 658.292 1149.54 658.292 1171.13 658.292Z" fill="black"/>
</g>
</g>
<g id="Thin-S">
<g id="Solid / Minus Solid_26">
<path id="Shape_26" fill-rule="evenodd" clip-rule="evenodd" d="M819.5 661C819.5 640.289 836.289 623.5 857 623.5C877.711 623.5 894.5 640.289 894.5 661C894.5 681.711 877.711 698.5 857 698.5C836.289 698.5 819.5 681.711 819.5 661ZM875.125 658.292C876.621 658.292 877.833 659.504 877.833 661C877.833 662.496 876.621 663.708 875.125 663.708C851.757 663.708 860.542 663.708 838.875 663.708C837.379 663.708 836.167 662.496 836.167 661C836.167 659.504 837.379 658.292 838.875 658.292C862.107 658.292 853.539 658.292 875.125 658.292Z" fill="black"/>
</g>
</g>
<g id="Ultralight-S">
<g id="Solid / Minus Solid_27">
<path id="Shape_27" fill-rule="evenodd" clip-rule="evenodd" d="M523.5 661C523.5 640.289 540.289 623.5 561 623.5C581.711 623.5 598.5 640.289 598.5 661C598.5 681.711 581.711 698.5 561 698.5C540.289 698.5 523.5 681.711 523.5 661ZM579.125 658.292C580.621 658.292 581.833 659.504 581.833 661C581.833 662.496 580.621 663.708 579.125 663.708C555.757 663.708 564.542 663.708 542.875 663.708C541.379 663.708 540.167 662.496 540.167 661C540.167 659.504 541.379 658.292 542.875 658.292C566.107 658.292 557.539 658.292 579.125 658.292Z" fill="black"/>
</g>
</g>
</g>
</g>
<defs>
<clipPath id="clip0_0_1">
<rect width="3300" height="2200" fill="white"/>
</clipPath>
</defs>
</svg>
