<svg xmlns="http://www.w3.org/2000/svg" width="3300" height="2200" fill="none"><path fill="#E5E5E5" d="M0 0h3300v2200H0z"/><g id="Finance / Solid / Money" clip-path="url(#clip0_0_1)"><g id="Notes"><path id="artboard" fill="#fff" d="M3300 0H0v2200h3300V0Z"/><path id="Vector" stroke="#000" stroke-width=".5" d="M263 292h2773"/><text xml:space="preserve" id="Weight/Scale Variations" fill="#000" font-family="Roboto" font-size="12" letter-spacing="0em" style="white-space:pre"><tspan x="263" y="321.102">Weight/Scale Variations</tspan></text><text xml:space="preserve" id="Ultralight" fill="#000" font-family="Roboto" font-size="12" letter-spacing="0em" style="white-space:pre"><tspan x="535.211" y="321.102">Ultralight</tspan></text><text xml:space="preserve" id="Thin" fill="#000" font-family="Roboto" font-size="12" letter-spacing="0em" style="white-space:pre"><tspan x="844.422" y="321.102">Thin</tspan></text><text xml:space="preserve" id="Light" fill="#000" font-family="Roboto" font-size="12" letter-spacing="0em" style="white-space:pre"><tspan x="1139.63" y="321.102">Light</tspan></text><text xml:space="preserve" id="Regular" fill="#000" font-family="Roboto" font-size="12" letter-spacing="0em" style="white-space:pre"><tspan x="1429.34" y="321.102">Regular</tspan></text><text xml:space="preserve" id="Medium" fill="#000" font-family="Roboto" font-size="12" letter-spacing="0em" style="white-space:pre"><tspan x="1724.56" y="321.102">Medium</tspan></text><text xml:space="preserve" id="Semibold" fill="#000" font-family="Roboto" font-size="12" letter-spacing="0em" style="white-space:pre"><tspan x="2017.77" y="321.102">Semibold</tspan></text><text xml:space="preserve" id="Bold" fill="#000" font-family="Roboto" font-size="12" letter-spacing="0em" style="white-space:pre"><tspan x="2327.48" y="321.102">Bold</tspan></text><text xml:space="preserve" id="Heavy" fill="#000" font-family="Roboto" font-size="12" letter-spacing="0em" style="white-space:pre"><tspan x="2620.19" y="321.102">Heavy</tspan></text><text xml:space="preserve" id="Black" fill="#000" font-family="Roboto" font-size="12" letter-spacing="0em" style="white-space:pre"><tspan x="2918.4" y="321.102">Black</tspan></text><path id="Vector_2" stroke="#000" stroke-width=".5" d="M263 1903h2773"/><g id="Group"><path id="Vector_3" fill="#000" d="M272.248 1933.83c4.307 0 7.891-3.57 7.891-7.88 0-4.31-3.594-7.88-7.901-7.88-4.297 0-7.871 3.57-7.871 7.88 0 4.31 3.584 7.88 7.881 7.88Zm0-1.48a6.364 6.364 0 0 1-6.377-6.4c0-3.56 2.822-6.4 6.367-6.4a6.382 6.382 0 0 1 6.406 6.4 6.368 6.368 0 0 1-6.396 6.4Zm-.019-2.78c.468 0 .742-.31.742-.83v-2.06h2.226c.498 0 .84-.25.84-.72 0-.48-.322-.74-.84-.74h-2.226v-2.23c0-.52-.274-.84-.742-.84-.469 0-.723.34-.723.84v2.23h-2.207c-.518 0-.85.26-.85.74 0 .47.352.72.85.72h2.207v2.06c0 .5.254.83.723.83Z"/></g><g id="Group_2"><path id="Vector_4" fill="#000" d="M293.215 1935.91c5.449 0 9.961-4.51 9.961-9.96 0-5.44-4.522-9.96-9.971-9.96-5.439 0-9.951 4.52-9.951 9.96 0 5.45 4.521 9.96 9.961 9.96Zm0-1.66a8.26 8.26 0 0 1-8.291-8.3c0-4.6 3.672-8.3 8.281-8.3a8.29 8.29 0 0 1 8.311 8.3 8.263 8.263 0 0 1-8.301 8.3Zm-.02-3.66c.518 0 .83-.36.83-.93v-2.89h3.057c.547 0 .928-.28.928-.8 0-.53-.362-.83-.928-.83h-3.057v-3.07c0-.57-.312-.93-.83-.93-.517 0-.81.38-.81.93v3.07h-3.047c-.567 0-.938.3-.938.83 0 .52.391.8.938.8h3.047v2.89c0 .55.293.93.81.93Z"/></g><g id="Group_3"><path id="Vector_5" fill="#000" d="M319.895 1938.67c6.962 0 12.724-5.75 12.724-12.71 0-6.96-5.771-12.72-12.734-12.72-6.953 0-12.705 5.76-12.705 12.72 0 6.96 5.761 12.71 12.715 12.71Zm0-1.81a10.874 10.874 0 0 1-10.889-10.9c0-6.04 4.844-10.9 10.879-10.9 6.045 0 10.898 4.86 10.908 10.9a10.87 10.87 0 0 1-10.898 10.9Zm-.02-4.92c.566 0 .918-.4.918-1v-4.07h4.238c.586 0 1.006-.33 1.006-.89 0-.58-.39-.92-1.006-.92h-4.238v-4.25c0-.61-.352-1-.918-1-.566 0-.889.41-.889 1v4.25h-4.228c-.615 0-1.026.34-1.026.92 0 .56.43.89 1.026.89h4.228v4.07c0 .59.323 1 .889 1Z"/></g><text xml:space="preserve" id="Design Variations" fill="#000" font-family="Roboto" font-size="12" letter-spacing="0em" style="white-space:pre"><tspan x="263" y="1952.1">Design Variations</tspan></text><text xml:space="preserve" id="Symbols are supported in up to nine weights and three scales." fill="#000" font-family="Roboto" font-size="12" letter-spacing="0em" style="white-space:pre"><tspan x="263" y="1970.1">Symbols are supported in up to nine weights and three scales.</tspan></text><text xml:space="preserve" id="For optimal layout with text and other symbols, vertically align" fill="#000" font-family="Roboto" font-size="12" letter-spacing="0em" style="white-space:pre"><tspan x="263" y="1988.1">For optimal layout with text and other symbols, vertically align</tspan></text><text xml:space="preserve" id="symbols with the adjacent text." fill="#000" font-family="Roboto" font-size="12" letter-spacing="0em" style="white-space:pre"><tspan x="263" y="2006.1">symbols with the adjacent text.</tspan></text><path id="Vector_6" fill="#00AEEF" d="M779 1919h-3v14h3v-14Z" opacity=".4"/><g id="Group_4"><path id="Vector_7" fill="#000" d="M789.527 1933h1.846l-5.195-14.09h-1.739l-5.195 14.09h1.846l1.416-4.03h5.605l1.416 4.03Zm-4.248-11.95h.059l2.256 6.42h-4.571l2.256-6.42Z"/></g><path id="Vector_8" fill="#00AEEF" d="M794.617 1919h-3v14h3v-14Z" opacity=".4"/><text xml:space="preserve" id="Margins" fill="#000" font-family="Roboto" font-size="12" letter-spacing="0em" style="white-space:pre"><tspan x="776" y="1952.1">Margins</tspan></text><text xml:space="preserve" id="Leading and trailing margins on the left and right side of each symbol" fill="#000" font-family="Roboto" font-size="12" letter-spacing="0em" style="white-space:pre"><tspan x="776" y="1970.1">Leading and trailing margins on the left and right side of each symbol</tspan></text><text xml:space="preserve" id="can be adjusted by modifying the width of the blue rectangles." fill="#000" font-family="Roboto" font-size="12" letter-spacing="0em" style="white-space:pre"><tspan x="776" y="1988.1">can be adjusted by modifying the width of the blue rectangles.</tspan></text><text xml:space="preserve" id="Modifications are automatically applied proportionally to all" fill="#000" font-family="Roboto" font-size="12" letter-spacing="0em" style="white-space:pre"><tspan x="776" y="2006.1">Modifications are automatically applied proportionally to all</tspan></text><text xml:space="preserve" id="scales and weights." fill="#000" font-family="Roboto" font-size="12" letter-spacing="0em" style="white-space:pre"><tspan x="776" y="2024.1">scales and weights.</tspan></text><g id="Group_5"><path id="Vector_9" fill="#000" d="m1291.83 1936.12 1.54 1.54c.85.83 1.82.76 2.69-.2l10.21-11.12c.43.29.83.28 1.29.19l1.05-.22.69.69-.05.52c-.06.53.1.95.6 1.45l.81.81c.51.51 1.16.53 1.64.06l3.25-3.26c.48-.47.46-1.13-.05-1.64l-.82-.82c-.49-.5-.91-.67-1.44-.59l-.53.06-.65-.67.28-1.14c.15-.57 0-1.04-.63-1.64l-2.41-2.39c-3.54-3.53-8.07-3.42-11.19-.29-.42.43-.47 1.02-.19 1.45.23.37.71.59 1.35.43 1.52-.38 3.03-.27 4.51.74l-.62 1.58c-.23.59-.22 1.07.02 1.51l-11.16 10.27c-.94.87-1.05 1.82-.19 2.68Zm7.84-18.27c2.67-1.99 5.98-1.68 8.38.74l2.63 2.6c.23.24.26.42.2.72l-.38 1.56 1.58 1.57.96-.09c.29-.03.37-.01.6.22l.62.62-2.75 2.75-.63-.62c-.22-.22-.24-.32-.21-.6l.09-.96-1.57-1.56-1.62.31c-.28.06-.43.06-.66-.19l-2.18-2.17c-.22-.24-.25-.38-.12-.7l.94-2.27c-1.6-1.54-3.71-2.39-5.75-1.73-.09.03-.16.01-.19-.03-.02-.05-.02-.1.06-.17Zm-6.57 17.56c-.49-.5-.31-.8.02-1.1l10.96-10.12 1.23 1.23-10.16 10.93c-.3.33-.68.43-1.08.03l-.97-.97Z"/></g><text xml:space="preserve" id="Exporting" fill="#000" font-family="Roboto" font-size="12" letter-spacing="0em" style="white-space:pre"><tspan x="1289" y="1952.1">Exporting</tspan></text><text xml:space="preserve" id="Symbols should be outlined when exporting to ensure the" fill="#000" font-family="Roboto" font-size="12" letter-spacing="0em" style="white-space:pre"><tspan x="1289" y="1970.1">Symbols should be outlined when exporting to ensure the</tspan></text><text xml:space="preserve" id="design is preserved when submitting to Xcode." fill="#000" font-family="Roboto" font-size="12" letter-spacing="0em" style="white-space:pre"><tspan x="1289" y="1988.1">design is preserved when submitting to Xcode.</tspan></text><text xml:space="preserve" id="template-version" fill="#000" font-family="Roboto" font-size="12" letter-spacing="0em" style="white-space:pre"><tspan x="2958" y="1932.1">Template v.1.0</tspan></text><text xml:space="preserve" id="Generated from pencil.circle" fill="#000" font-family="Roboto" font-size="12" letter-spacing="0em" style="white-space:pre"><tspan x="2885" y="1950.1">Generated from pencil.circle</tspan></text><text xml:space="preserve" id="Typeset at 100 points" fill="#000" font-family="Roboto" font-size="12" letter-spacing="0em" style="white-space:pre"><tspan x="2921" y="1968.1">Typeset at 100 points</tspan></text><text xml:space="preserve" id="Small" fill="#000" font-family="Roboto" font-size="12" letter-spacing="0em" style="white-space:pre"><tspan x="263" y="725.102">Small</tspan></text><text xml:space="preserve" id="Medium_2" fill="#000" font-family="Roboto" font-size="12" letter-spacing="0em" style="white-space:pre"><tspan x="263" y="1155.1">Medium</tspan></text><text xml:space="preserve" id="Large" fill="#000" font-family="Roboto" font-size="12" letter-spacing="0em" style="white-space:pre"><tspan x="263" y="1585.1">Large</tspan></text></g><g id="Guides"><g id="H-reference"><path id="Vector_10" fill="#27AAE1" d="M393.932 696h2.734l-27.1-70.459h-2.49L339.977 696h2.685l9.278-24.463h32.763L393.932 696Zm-25.733-67.09h.244l15.381 40.381h-31.006l15.381-40.381Z"/></g><path id="Baseline-S" stroke="#27AAE1" stroke-width=".577" d="M263 696h2773"/><path id="Capline-S" stroke="#27AAE1" stroke-width=".577" d="M263 626h2773"/><g id="H-reference_2"><path id="Vector_11" fill="#27AAE1" d="M393.932 1126h2.734l-27.1-70.46h-2.49L339.977 1126h2.685l9.278-24.46h32.763l9.229 24.46Zm-25.733-67.09h.244l15.381 40.38h-31.006l15.381-40.38Z"/></g><path id="Baseline-M" stroke="#27AAE1" stroke-width=".577" d="M263 1126h2773"/><path id="Capline-M" stroke="#27AAE1" stroke-width=".577" d="M263 1056h2773"/><g id="H-reference_3"><path id="Vector_12" fill="#27AAE1" d="M393.932 1556h2.734l-27.1-70.46h-2.49L339.977 1556h2.685l9.278-24.46h32.763l9.229 24.46Zm-25.733-67.09h.244l15.381 40.38h-31.006l15.381-40.38Z"/></g><g id="Group 1" stroke="#27AAE1" stroke-width=".577"><path id="Baseline-L" d="M263 1556h2773"/><path id="Capline-L" d="M263 1486h2773"/></g><path id="left-margin" fill="#00AEEF" d="M1396.04 1030.79h-8.74v119.34h8.74v-119.34Z" opacity=".4"/><path id="right-margin" fill="#00AEEF" d="M1511.39 1030.79h-8.74v119.34h8.74v-119.34Z" opacity=".4"/></g><g id="Symbols"><g id="Black-L"><g id="Solid / Money Solid"><g id="Shape" fill="#000"><path fill-rule="evenodd" d="M2861.5 1489.31c0-5.94 5.27-10.45 11.19-10.06 24.18 1.61 38.87-4.18 53.63-9.99 16.29-6.42 32.66-12.86 61.96-9.43 4.74.55 8.22 4.67 8.22 9.44v70.12c0 6.06-5.48 10.61-11.51 10.01-26.69-2.69-42.35 3.43-57.7 9.44-15.74 6.15-31.16 12.18-57.82 8.49-4.63-.64-7.97-4.7-7.97-9.36v-68.66Zm91 24.36c0 12.85-10.42 23.27-23.27 23.27-12.86 0-23.28-10.42-23.28-23.27 0-12.86 10.42-23.28 23.28-23.28 12.85 0 23.27 10.42 23.27 23.28Zm28.73-30.23c0-2.69-2.18-4.88-4.87-4.88a4.88 4.88 0 0 0-4.88 4.88v40.36c0 2.7 2.18 4.88 4.88 4.88 2.69 0 4.87-2.18 4.87-4.88v-40.36Zm-99.62 15.31c2.7 0 4.88 2.18 4.88 4.87v40.37c0 2.69-2.18 4.87-4.88 4.87a4.87 4.87 0 0 1-4.87-4.87v-40.37a4.87 4.87 0 0 1 4.87-4.87Z" clip-rule="evenodd"/><path d="M2992.46 1560.23c-31.82-4.66-49.68 2.13-66.44 8.68l-.52.21c-16.02 6.26-30.96 12.1-58.03 7.81a4.868 4.868 0 0 0-5.58 4.05 4.88 4.88 0 0 0 4.05 5.58c29.68 4.71 46.62-1.91 63.13-8.37l.5-.2c16.14-6.3 32.12-12.41 61.47-8.11 2.67.39 5.14-1.46 5.53-4.12a4.875 4.875 0 0 0-4.11-5.53Z"/></g></g></g><g id="Heavy-L"><g id="Solid / Money Solid_2"><g id="Shape_2" fill="#000"><path fill-rule="evenodd" d="M2565.5 1489.31c0-5.94 5.27-10.45 11.19-10.06 24.18 1.61 38.87-4.18 53.63-9.99 16.29-6.42 32.66-12.86 61.96-9.43 4.74.55 8.22 4.67 8.22 9.44v70.12c0 6.06-5.48 10.61-11.51 10.01-26.69-2.69-42.35 3.43-57.7 9.44-15.74 6.15-31.16 12.18-57.82 8.49-4.63-.64-7.97-4.7-7.97-9.36v-68.66Zm91 24.36c0 12.85-10.42 23.27-23.27 23.27-12.86 0-23.28-10.42-23.28-23.27 0-12.86 10.42-23.28 23.28-23.28 12.85 0 23.27 10.42 23.27 23.28Zm28.73-30.23c0-2.69-2.18-4.88-4.87-4.88a4.88 4.88 0 0 0-4.88 4.88v40.36c0 2.7 2.18 4.88 4.88 4.88 2.69 0 4.87-2.18 4.87-4.88v-40.36Zm-99.62 15.31c2.7 0 4.88 2.18 4.88 4.87v40.37c0 2.69-2.18 4.87-4.88 4.87a4.87 4.87 0 0 1-4.87-4.87v-40.37a4.87 4.87 0 0 1 4.87-4.87Z" clip-rule="evenodd"/><path d="M2696.46 1560.23c-31.82-4.66-49.68 2.13-66.44 8.68l-.52.21c-16.02 6.26-30.96 12.1-58.03 7.81a4.868 4.868 0 0 0-5.58 4.05 4.88 4.88 0 0 0 4.05 5.58c29.68 4.71 46.62-1.91 63.13-8.37l.5-.2c16.14-6.3 32.12-12.41 61.47-8.11 2.67.39 5.14-1.46 5.53-4.12a4.875 4.875 0 0 0-4.11-5.53Z"/></g></g></g><g id="Bold-L"><g id="Solid / Money Solid_3"><g id="Shape_3" fill="#000"><path fill-rule="evenodd" d="M2269.5 1489.31c0-5.94 5.27-10.45 11.19-10.06 24.18 1.61 38.87-4.18 53.63-9.99 16.29-6.42 32.66-12.86 61.96-9.43 4.74.55 8.22 4.67 8.22 9.44v70.12c0 6.06-5.48 10.61-11.51 10.01-26.69-2.69-42.35 3.43-57.7 9.44-15.74 6.15-31.16 12.18-57.82 8.49-4.63-.64-7.97-4.7-7.97-9.36v-68.66Zm91 24.36c0 12.85-10.42 23.27-23.27 23.27-12.86 0-23.28-10.42-23.28-23.27 0-12.86 10.42-23.28 23.28-23.28 12.85 0 23.27 10.42 23.27 23.28Zm28.73-30.23c0-2.69-2.18-4.88-4.87-4.88a4.88 4.88 0 0 0-4.88 4.88v40.36c0 2.7 2.18 4.88 4.88 4.88 2.69 0 4.87-2.18 4.87-4.88v-40.36Zm-99.62 15.31c2.7 0 4.88 2.18 4.88 4.87v40.37c0 2.69-2.18 4.87-4.88 4.87a4.87 4.87 0 0 1-4.87-4.87v-40.37a4.87 4.87 0 0 1 4.87-4.87Z" clip-rule="evenodd"/><path d="M2400.46 1560.23c-31.82-4.66-49.68 2.13-66.44 8.68l-.52.21c-16.02 6.26-30.96 12.1-58.03 7.81a4.868 4.868 0 0 0-5.58 4.05 4.88 4.88 0 0 0 4.05 5.58c29.68 4.71 46.62-1.91 63.13-8.37l.5-.2c16.14-6.3 32.12-12.41 61.47-8.11 2.67.39 5.14-1.46 5.53-4.12a4.875 4.875 0 0 0-4.11-5.53Z"/></g></g></g><g id="Semibold-L"><g id="Solid / Money Solid_4"><g id="Shape_4" fill="#000"><path fill-rule="evenodd" d="M1973.5 1489.31c0-5.94 5.27-10.45 11.19-10.06 24.18 1.61 38.87-4.18 53.63-9.99 16.29-6.42 32.66-12.86 61.96-9.43 4.74.55 8.22 4.67 8.22 9.44v70.12c0 6.06-5.48 10.61-11.51 10.01-26.69-2.69-42.35 3.43-57.7 9.44-15.74 6.15-31.16 12.18-57.82 8.49-4.63-.64-7.97-4.7-7.97-9.36v-68.66Zm91 24.36c0 12.85-10.42 23.27-23.27 23.27-12.86 0-23.28-10.42-23.28-23.27 0-12.86 10.42-23.28 23.28-23.28 12.85 0 23.27 10.42 23.27 23.28Zm28.73-30.23c0-2.69-2.18-4.88-4.87-4.88a4.88 4.88 0 0 0-4.88 4.88v40.36c0 2.7 2.18 4.88 4.88 4.88 2.69 0 4.87-2.18 4.87-4.88v-40.36Zm-99.62 15.31c2.7 0 4.88 2.18 4.88 4.87v40.37c0 2.69-2.18 4.87-4.88 4.87a4.87 4.87 0 0 1-4.87-4.87v-40.37a4.87 4.87 0 0 1 4.87-4.87Z" clip-rule="evenodd"/><path d="M2104.46 1560.23c-31.82-4.66-49.68 2.13-66.44 8.68l-.52.21c-16.02 6.26-30.96 12.1-58.03 7.81a4.868 4.868 0 0 0-5.58 4.05 4.88 4.88 0 0 0 4.05 5.58c29.68 4.71 46.62-1.91 63.13-8.37l.5-.2c16.14-6.3 32.12-12.41 61.47-8.11 2.67.39 5.14-1.46 5.53-4.12a4.875 4.875 0 0 0-4.11-5.53Z"/></g></g></g><g id="Medium-L"><g id="Solid / Money Solid_5"><g id="Shape_5" fill="#000"><path fill-rule="evenodd" d="M1677.5 1489.31c0-5.94 5.27-10.45 11.19-10.06 24.18 1.61 38.87-4.18 53.63-9.99 16.29-6.42 32.66-12.86 61.96-9.43 4.74.55 8.22 4.67 8.22 9.44v70.12c0 6.06-5.48 10.61-11.51 10.01-26.69-2.69-42.35 3.43-57.7 9.44-15.74 6.15-31.16 12.18-57.82 8.49-4.63-.64-7.97-4.7-7.97-9.36v-68.66Zm91 24.36c0 12.85-10.42 23.27-23.27 23.27-12.86 0-23.28-10.42-23.28-23.27 0-12.86 10.42-23.28 23.28-23.28 12.85 0 23.27 10.42 23.27 23.28Zm28.73-30.23c0-2.69-2.18-4.88-4.87-4.88a4.88 4.88 0 0 0-4.88 4.88v40.36c0 2.7 2.18 4.88 4.88 4.88 2.69 0 4.87-2.18 4.87-4.88v-40.36Zm-99.62 15.31c2.7 0 4.88 2.18 4.88 4.87v40.37c0 2.69-2.18 4.87-4.88 4.87a4.87 4.87 0 0 1-4.87-4.87v-40.37a4.87 4.87 0 0 1 4.87-4.87Z" clip-rule="evenodd"/><path d="M1808.46 1560.23c-31.82-4.66-49.68 2.13-66.44 8.68l-.52.21c-16.02 6.26-30.96 12.1-58.03 7.81a4.868 4.868 0 0 0-5.58 4.05 4.88 4.88 0 0 0 4.05 5.58c29.68 4.71 46.62-1.91 63.13-8.37l.5-.2c16.14-6.3 32.12-12.41 61.47-8.11 2.67.39 5.14-1.46 5.53-4.12a4.875 4.875 0 0 0-4.11-5.53Z"/></g></g></g><g id="Regular-L"><g id="Solid / Money Solid_6"><g id="Shape_6" fill="#000"><path fill-rule="evenodd" d="M1381.5 1489.31c0-5.94 5.27-10.45 11.19-10.06 24.18 1.61 38.87-4.18 53.63-9.99 16.29-6.42 32.66-12.86 61.96-9.43 4.74.55 8.22 4.67 8.22 9.44v70.12c0 6.06-5.48 10.61-11.51 10.01-26.69-2.69-42.35 3.43-57.7 9.44-15.74 6.15-31.16 12.18-57.82 8.49-4.63-.64-7.97-4.7-7.97-9.36v-68.66Zm91 24.36c0 12.85-10.42 23.27-23.27 23.27-12.86 0-23.28-10.42-23.28-23.27 0-12.86 10.42-23.28 23.28-23.28 12.85 0 23.27 10.42 23.27 23.28Zm28.73-30.23c0-2.69-2.18-4.88-4.87-4.88a4.88 4.88 0 0 0-4.88 4.88v40.36c0 2.7 2.18 4.88 4.88 4.88 2.69 0 4.87-2.18 4.87-4.88v-40.36Zm-99.62 15.31c2.7 0 4.88 2.18 4.88 4.87v40.37c0 2.69-2.18 4.87-4.88 4.87a4.87 4.87 0 0 1-4.87-4.87v-40.37a4.87 4.87 0 0 1 4.87-4.87Z" clip-rule="evenodd"/><path d="M1512.46 1560.23c-31.82-4.66-49.68 2.13-66.44 8.68l-.52.21c-16.02 6.26-30.96 12.1-58.03 7.81a4.868 4.868 0 0 0-5.58 4.05 4.88 4.88 0 0 0 4.05 5.58c29.68 4.71 46.62-1.91 63.13-8.37l.5-.2c16.14-6.3 32.12-12.41 61.47-8.11 2.67.39 5.14-1.46 5.53-4.12a4.875 4.875 0 0 0-4.11-5.53Z"/></g></g></g><g id="Light-L"><g id="Solid / Money Solid_7"><g id="Shape_7" fill="#000"><path fill-rule="evenodd" d="M1085.5 1489.31c0-5.94 5.27-10.45 11.19-10.06 24.18 1.61 38.87-4.18 53.63-9.99 16.29-6.42 32.66-12.86 61.96-9.43 4.74.55 8.22 4.67 8.22 9.44v70.12c0 6.06-5.48 10.61-11.51 10.01-26.69-2.69-42.35 3.43-57.7 9.44-15.74 6.15-31.16 12.18-57.82 8.49-4.63-.64-7.97-4.7-7.97-9.36v-68.66Zm91 24.36c0 12.85-10.42 23.27-23.27 23.27-12.86 0-23.28-10.42-23.28-23.27 0-12.86 10.42-23.28 23.28-23.28 12.85 0 23.27 10.42 23.27 23.28Zm28.73-30.23c0-2.69-2.18-4.88-4.87-4.88a4.88 4.88 0 0 0-4.88 4.88v40.36c0 2.7 2.18 4.88 4.88 4.88 2.69 0 4.87-2.18 4.87-4.88v-40.36Zm-99.62 15.31c2.7 0 4.88 2.18 4.88 4.87v40.37c0 2.69-2.18 4.87-4.88 4.87a4.87 4.87 0 0 1-4.87-4.87v-40.37a4.87 4.87 0 0 1 4.87-4.87Z" clip-rule="evenodd"/><path d="M1216.46 1560.23c-31.82-4.66-49.68 2.13-66.44 8.68l-.52.21c-16.02 6.26-30.96 12.1-58.03 7.81a4.868 4.868 0 0 0-5.58 4.05 4.88 4.88 0 0 0 4.05 5.58c29.68 4.71 46.62-1.91 63.13-8.37l.5-.2c16.14-6.3 32.12-12.41 61.47-8.11 2.67.39 5.14-1.46 5.53-4.12a4.875 4.875 0 0 0-4.11-5.53Z"/></g></g></g><g id="Thin-L"><g id="Solid / Money Solid_8"><g id="Shape_8" fill="#000"><path fill-rule="evenodd" d="M789.5 1489.31c0-5.94 5.268-10.45 11.194-10.06 24.177 1.61 38.869-4.18 53.625-9.99 16.292-6.42 32.662-12.86 61.963-9.43 4.734.55 8.218 4.67 8.218 9.44v70.12c0 6.06-5.48 10.61-11.508 10.01-26.696-2.69-42.349 3.43-57.706 9.44-15.732 6.15-31.154 12.18-57.82 8.49-4.622-.64-7.966-4.7-7.966-9.36v-68.66Zm90.998 24.36c0 12.85-10.419 23.27-23.272 23.27-12.852 0-23.271-10.42-23.271-23.27 0-12.86 10.419-23.28 23.271-23.28 12.853 0 23.272 10.42 23.272 23.28Zm28.734-30.23c0-2.69-2.183-4.88-4.875-4.88a4.88 4.88 0 0 0-4.875 4.88v40.36a4.874 4.874 0 1 0 9.75 0v-40.36Zm-99.618 15.31a4.873 4.873 0 0 1 4.875 4.87v40.37c0 2.69-2.183 4.87-4.875 4.87a4.872 4.872 0 0 1-4.875-4.87v-40.37c0-2.69 2.182-4.87 4.875-4.87Z" clip-rule="evenodd"/><path d="M920.456 1560.23c-31.813-4.66-49.677 2.13-66.432 8.68l-.519.21c-16.024 6.26-30.965 12.1-58.038 7.81-2.659-.43-5.157 1.39-5.579 4.05a4.88 4.88 0 0 0 4.05 5.58c29.687 4.71 46.618-1.91 63.128-8.37l.507-.2c16.138-6.3 32.12-12.41 61.471-8.11a4.877 4.877 0 0 0 1.412-9.65Z"/></g></g></g><g id="Ultralight-L"><g id="Solid / Money Solid_9"><g id="Shape_9" fill="#000"><path fill-rule="evenodd" d="M493.5 1489.31c0-5.94 5.268-10.45 11.194-10.06 24.177 1.61 38.869-4.18 53.625-9.99 16.292-6.42 32.662-12.86 61.963-9.43 4.734.55 8.218 4.67 8.218 9.44v70.12c0 6.06-5.48 10.61-11.508 10.01-26.696-2.69-42.349 3.43-57.706 9.44-15.732 6.15-31.154 12.18-57.82 8.49-4.622-.64-7.966-4.7-7.966-9.36v-68.66Zm90.998 24.36c0 12.85-10.419 23.27-23.272 23.27-12.852 0-23.271-10.42-23.271-23.27 0-12.86 10.419-23.28 23.271-23.28 12.853 0 23.272 10.42 23.272 23.28Zm28.734-30.23c0-2.69-2.183-4.88-4.875-4.88a4.88 4.88 0 0 0-4.875 4.88v40.36a4.874 4.874 0 1 0 9.75 0v-40.36Zm-99.618 15.31a4.873 4.873 0 0 1 4.875 4.87v40.37c0 2.69-2.183 4.87-4.875 4.87a4.872 4.872 0 0 1-4.875-4.87v-40.37c0-2.69 2.182-4.87 4.875-4.87Z" clip-rule="evenodd"/><path d="M624.456 1560.23c-31.813-4.66-49.677 2.13-66.432 8.68l-.519.21c-16.024 6.26-30.965 12.1-58.038 7.81-2.659-.43-5.157 1.39-5.579 4.05a4.88 4.88 0 0 0 4.05 5.58c29.687 4.71 46.618-1.91 63.128-8.37l.507-.2c16.138-6.3 32.12-12.41 61.471-8.11a4.877 4.877 0 0 0 1.412-9.65Z"/></g></g></g><g id="Black-M"><g id="Solid / Money Solid_10"><g id="Shape_10" fill="#000"><path fill-rule="evenodd" d="M2876.5 1066.35c0-4.62 4.1-8.13 8.71-7.82 18.8 1.25 30.23-3.25 41.7-7.77 12.68-4.99 25.41-10.01 48.2-7.34 3.68.43 6.39 3.64 6.39 7.34v54.55c0 4.71-4.26 8.25-8.95 7.78-20.76-2.09-32.94 2.67-44.88 7.34-12.24 4.78-24.23 9.47-44.97 6.61-3.6-.5-6.2-3.66-6.2-7.29v-53.4Zm70.78 18.95c0 9.99-8.11 18.1-18.1 18.1-10 0-18.1-8.11-18.1-18.1 0-10 8.1-18.1 18.1-18.1 9.99 0 18.1 8.1 18.1 18.1Zm22.34-23.51a3.79 3.79 0 1 0-7.58 0v31.39c0 2.1 1.7 3.79 3.79 3.79 2.1 0 3.79-1.69 3.79-3.79v-31.39Zm-77.48 11.9c2.1 0 3.8 1.7 3.8 3.79v31.4a3.796 3.796 0 0 1-7.59 0v-31.4c0-2.09 1.7-3.79 3.79-3.79Z" clip-rule="evenodd"/><path d="M2978.35 1121.51c-24.74-3.62-38.63 1.66-51.66 6.76l-.41.15c-12.46 4.88-24.08 9.42-45.14 6.08a3.79 3.79 0 0 0-4.34 3.15 3.79 3.79 0 0 0 3.15 4.34c23.09 3.66 36.26-1.49 49.1-6.51l.4-.15c12.55-4.91 24.98-9.65 47.81-6.31 2.07.3 3.99-1.13 4.3-3.21.3-2.07-1.13-3.99-3.21-4.3Z"/></g></g></g><g id="Heavy-M"><g id="Solid / Money Solid_11"><g id="Shape_11" fill="#000"><path fill-rule="evenodd" d="M2580.5 1066.35c0-4.62 4.1-8.13 8.71-7.82 18.8 1.25 30.23-3.25 41.7-7.77 12.68-4.99 25.41-10.01 48.2-7.34 3.68.43 6.39 3.64 6.39 7.34v54.55c0 4.71-4.26 8.25-8.95 7.78-20.76-2.09-32.94 2.67-44.88 7.34-12.24 4.78-24.23 9.47-44.97 6.61-3.6-.5-6.2-3.66-6.2-7.29v-53.4Zm70.78 18.95c0 9.99-8.11 18.1-18.1 18.1-10 0-18.1-8.11-18.1-18.1 0-10 8.1-18.1 18.1-18.1 9.99 0 18.1 8.1 18.1 18.1Zm22.34-23.51a3.79 3.79 0 1 0-7.58 0v31.39c0 2.1 1.7 3.79 3.79 3.79 2.1 0 3.79-1.69 3.79-3.79v-31.39Zm-77.48 11.9c2.1 0 3.8 1.7 3.8 3.79v31.4a3.796 3.796 0 0 1-7.59 0v-31.4c0-2.09 1.7-3.79 3.79-3.79Z" clip-rule="evenodd"/><path d="M2682.35 1121.51c-24.74-3.62-38.63 1.66-51.66 6.76l-.41.15c-12.46 4.88-24.08 9.42-45.14 6.08a3.79 3.79 0 0 0-4.34 3.15 3.79 3.79 0 0 0 3.15 4.34c23.09 3.66 36.26-1.49 49.1-6.51l.4-.15c12.55-4.91 24.98-9.65 47.81-6.31 2.07.3 3.99-1.13 4.3-3.21.3-2.07-1.13-3.99-3.21-4.3Z"/></g></g></g><g id="Bold-M"><g id="Solid / Money Solid_12"><g id="Shape_12" fill="#000"><path fill-rule="evenodd" d="M2284.5 1066.35c0-4.62 4.1-8.13 8.71-7.82 18.8 1.25 30.23-3.25 41.7-7.77 12.68-4.99 25.41-10.01 48.2-7.34 3.68.43 6.39 3.64 6.39 7.34v54.55c0 4.71-4.26 8.25-8.95 7.78-20.76-2.09-32.94 2.67-44.88 7.34-12.24 4.78-24.23 9.47-44.97 6.61-3.6-.5-6.2-3.66-6.2-7.29v-53.4Zm70.78 18.95c0 9.99-8.11 18.1-18.1 18.1-10 0-18.1-8.11-18.1-18.1 0-10 8.1-18.1 18.1-18.1 9.99 0 18.1 8.1 18.1 18.1Zm22.34-23.51a3.79 3.79 0 1 0-7.58 0v31.39c0 2.1 1.7 3.79 3.79 3.79 2.1 0 3.79-1.69 3.79-3.79v-31.39Zm-77.48 11.9c2.1 0 3.8 1.7 3.8 3.79v31.4a3.796 3.796 0 0 1-7.59 0v-31.4c0-2.09 1.7-3.79 3.79-3.79Z" clip-rule="evenodd"/><path d="M2386.35 1121.51c-24.74-3.62-38.63 1.66-51.66 6.76l-.41.15c-12.46 4.88-24.08 9.42-45.14 6.08a3.79 3.79 0 0 0-4.34 3.15 3.79 3.79 0 0 0 3.15 4.34c23.09 3.66 36.26-1.49 49.1-6.51l.4-.15c12.55-4.91 24.98-9.65 47.81-6.31 2.07.3 3.99-1.13 4.3-3.21.3-2.07-1.13-3.99-3.21-4.3Z"/></g></g></g><g id="Semibold-M"><g id="Solid / Money Solid_13"><g id="Shape_13" fill="#000"><path fill-rule="evenodd" d="M1988.5 1066.35c0-4.62 4.1-8.13 8.71-7.82 18.8 1.25 30.23-3.25 41.7-7.77 12.68-4.99 25.41-10.01 48.2-7.34 3.68.43 6.39 3.64 6.39 7.34v54.55c0 4.71-4.26 8.25-8.95 7.78-20.76-2.09-32.94 2.67-44.88 7.34-12.24 4.78-24.23 9.47-44.97 6.61-3.6-.5-6.2-3.66-6.2-7.29v-53.4Zm70.78 18.95c0 9.99-8.11 18.1-18.1 18.1-10 0-18.1-8.11-18.1-18.1 0-10 8.1-18.1 18.1-18.1 9.99 0 18.1 8.1 18.1 18.1Zm22.34-23.51a3.79 3.79 0 1 0-7.58 0v31.39c0 2.1 1.7 3.79 3.79 3.79 2.1 0 3.79-1.69 3.79-3.79v-31.39Zm-77.48 11.9c2.1 0 3.8 1.7 3.8 3.79v31.4a3.796 3.796 0 0 1-7.59 0v-31.4c0-2.09 1.7-3.79 3.79-3.79Z" clip-rule="evenodd"/><path d="M2090.35 1121.51c-24.74-3.62-38.63 1.66-51.66 6.76l-.41.15c-12.46 4.88-24.08 9.42-45.14 6.08a3.79 3.79 0 0 0-4.34 3.15 3.79 3.79 0 0 0 3.15 4.34c23.09 3.66 36.26-1.49 49.1-6.51l.4-.15c12.55-4.91 24.98-9.65 47.81-6.31 2.07.3 3.99-1.13 4.3-3.21.3-2.07-1.13-3.99-3.21-4.3Z"/></g></g></g><g id="Medium-M"><g id="Solid / Money Solid_14"><g id="Shape_14" fill="#000"><path fill-rule="evenodd" d="M1692.5 1066.35c0-4.62 4.1-8.13 8.71-7.82 18.8 1.25 30.23-3.25 41.7-7.77 12.68-4.99 25.41-10.01 48.2-7.34 3.68.43 6.39 3.64 6.39 7.34v54.55c0 4.71-4.26 8.25-8.95 7.78-20.76-2.09-32.94 2.67-44.88 7.34-12.24 4.78-24.23 9.47-44.97 6.61-3.6-.5-6.2-3.66-6.2-7.29v-53.4Zm70.78 18.95c0 9.99-8.11 18.1-18.1 18.1-10 0-18.1-8.11-18.1-18.1 0-10 8.1-18.1 18.1-18.1 9.99 0 18.1 8.1 18.1 18.1Zm22.34-23.51a3.79 3.79 0 1 0-7.58 0v31.39c0 2.1 1.7 3.79 3.79 3.79 2.1 0 3.79-1.69 3.79-3.79v-31.39Zm-77.48 11.9c2.1 0 3.8 1.7 3.8 3.79v31.4a3.796 3.796 0 0 1-7.59 0v-31.4c0-2.09 1.7-3.79 3.79-3.79Z" clip-rule="evenodd"/><path d="M1794.35 1121.51c-24.74-3.62-38.63 1.66-51.66 6.76l-.41.15c-12.46 4.88-24.08 9.42-45.14 6.08a3.79 3.79 0 0 0-4.34 3.15 3.79 3.79 0 0 0 3.15 4.34c23.09 3.66 36.26-1.49 49.1-6.51l.4-.15c12.55-4.91 24.98-9.65 47.81-6.31 2.07.3 3.99-1.13 4.3-3.21.3-2.07-1.13-3.99-3.21-4.3Z"/></g></g></g><g id="Regular-M"><g id="Solid / Money Solid_15"><g id="Shape_15" fill="#000"><path fill-rule="evenodd" d="M1396.5 1066.35c0-4.62 4.1-8.13 8.71-7.82 18.8 1.25 30.23-3.25 41.7-7.77 12.68-4.99 25.41-10.01 48.2-7.34 3.68.43 6.39 3.64 6.39 7.34v54.55c0 4.71-4.26 8.25-8.95 7.78-20.76-2.09-32.94 2.67-44.88 7.34-12.24 4.78-24.23 9.47-44.97 6.61-3.6-.5-6.2-3.66-6.2-7.29v-53.4Zm70.78 18.95c0 9.99-8.11 18.1-18.1 18.1-10 0-18.1-8.11-18.1-18.1 0-10 8.1-18.1 18.1-18.1 9.99 0 18.1 8.1 18.1 18.1Zm22.34-23.51a3.79 3.79 0 1 0-7.58 0v31.39c0 2.1 1.7 3.79 3.79 3.79 2.1 0 3.79-1.69 3.79-3.79v-31.39Zm-77.48 11.9c2.1 0 3.8 1.7 3.8 3.79v31.4a3.796 3.796 0 0 1-7.59 0v-31.4c0-2.09 1.7-3.79 3.79-3.79Z" clip-rule="evenodd"/><path d="M1498.35 1121.51c-24.74-3.62-38.63 1.66-51.66 6.76l-.41.15c-12.46 4.88-24.08 9.42-45.14 6.08a3.79 3.79 0 0 0-4.34 3.15 3.79 3.79 0 0 0 3.15 4.34c23.09 3.66 36.26-1.49 49.1-6.51l.4-.15c12.55-4.91 24.98-9.65 47.81-6.31 2.07.3 3.99-1.13 4.3-3.21.3-2.07-1.13-3.99-3.21-4.3Z"/></g></g></g><g id="Light-M"><g id="Solid / Money Solid_16"><g id="Shape_16" fill="#000"><path fill-rule="evenodd" d="M1100.5 1066.35c0-4.62 4.1-8.13 8.71-7.82 18.8 1.25 30.23-3.25 41.7-7.77 12.68-4.99 25.41-10.01 48.2-7.34 3.68.43 6.39 3.64 6.39 7.34v54.55c0 4.71-4.26 8.25-8.95 7.78-20.76-2.09-32.94 2.67-44.88 7.34-12.24 4.78-24.23 9.47-44.97 6.61-3.6-.5-6.2-3.66-6.2-7.29v-53.4Zm70.78 18.95c0 9.99-8.11 18.1-18.1 18.1-10 0-18.1-8.11-18.1-18.1 0-10 8.1-18.1 18.1-18.1 9.99 0 18.1 8.1 18.1 18.1Zm22.34-23.51a3.79 3.79 0 1 0-7.58 0v31.39c0 2.1 1.7 3.79 3.79 3.79 2.1 0 3.79-1.69 3.79-3.79v-31.39Zm-77.48 11.9c2.1 0 3.8 1.7 3.8 3.79v31.4a3.796 3.796 0 0 1-7.59 0v-31.4c0-2.09 1.7-3.79 3.79-3.79Z" clip-rule="evenodd"/><path d="M1202.35 1121.51c-24.74-3.62-38.63 1.66-51.66 6.76l-.41.15c-12.46 4.88-24.08 9.42-45.14 6.08a3.79 3.79 0 0 0-4.34 3.15 3.79 3.79 0 0 0 3.15 4.34c23.09 3.66 36.26-1.49 49.1-6.51l.4-.15c12.55-4.91 24.98-9.65 47.81-6.31 2.07.3 3.99-1.13 4.3-3.21.3-2.07-1.13-3.99-3.21-4.3Z"/></g></g></g><g id="Thin-M"><g id="Solid / Money Solid_17"><g id="Shape_17" fill="#000"><path fill-rule="evenodd" d="M804.5 1066.35c0-4.62 4.098-8.13 8.706-7.82 18.805 1.25 30.232-3.25 41.709-7.77 12.671-4.99 25.404-10.01 48.193-7.34 3.682.43 6.392 3.64 6.392 7.34v54.55c0 4.71-4.262 8.25-8.951 7.78-20.763-2.09-32.938 2.67-44.882 7.34-12.236 4.78-24.231 9.47-44.971 6.61-3.595-.5-6.196-3.66-6.196-7.29v-53.4Zm70.776 18.95c0 9.99-8.104 18.1-18.1 18.1-9.996 0-18.1-8.11-18.1-18.1 0-10 8.104-18.1 18.1-18.1 9.996 0 18.1 8.1 18.1 18.1Zm22.349-23.51c0-2.1-1.698-3.8-3.792-3.8a3.795 3.795 0 0 0-3.792 3.8v31.39c0 2.1 1.698 3.79 3.792 3.79a3.787 3.787 0 0 0 3.792-3.79v-31.39Zm-77.481 11.9c2.094 0 3.792 1.7 3.792 3.79v31.4a3.793 3.793 0 0 1-7.584 0v-31.4c0-2.09 1.698-3.79 3.792-3.79Z" clip-rule="evenodd"/><path d="M906.354 1121.51c-24.743-3.62-38.637 1.66-51.669 6.76l-.404.15c-12.463 4.88-24.083 9.42-45.14 6.08a3.792 3.792 0 0 0-1.189 7.49c23.09 3.66 36.258-1.49 49.099-6.51l.395-.15c12.552-4.91 24.982-9.65 47.81-6.31a3.795 3.795 0 0 0 1.098-7.51Z"/></g></g></g><g id="Ultralight-M"><g id="Solid / Money Solid_18"><g id="Shape_18" fill="#000"><path fill-rule="evenodd" d="M508.5 1066.35c0-4.62 4.098-8.13 8.706-7.82 18.805 1.25 30.232-3.25 41.709-7.77 12.671-4.99 25.404-10.01 48.193-7.34 3.682.43 6.392 3.64 6.392 7.34v54.55c0 4.71-4.262 8.25-8.951 7.78-20.763-2.09-32.938 2.67-44.882 7.34-12.236 4.78-24.231 9.47-44.971 6.61-3.595-.5-6.196-3.66-6.196-7.29v-53.4Zm70.776 18.95c0 9.99-8.104 18.1-18.1 18.1-9.996 0-18.1-8.11-18.1-18.1 0-10 8.104-18.1 18.1-18.1 9.996 0 18.1 8.1 18.1 18.1Zm22.349-23.51c0-2.1-1.698-3.8-3.792-3.8a3.795 3.795 0 0 0-3.792 3.8v31.39c0 2.1 1.698 3.79 3.792 3.79a3.787 3.787 0 0 0 3.792-3.79v-31.39Zm-77.481 11.9c2.094 0 3.792 1.7 3.792 3.79v31.4a3.793 3.793 0 0 1-7.584 0v-31.4c0-2.09 1.698-3.79 3.792-3.79Z" clip-rule="evenodd"/><path d="M610.354 1121.51c-24.743-3.62-38.637 1.66-51.669 6.76l-.404.15c-12.463 4.88-24.083 9.42-45.14 6.08a3.792 3.792 0 0 0-1.189 7.49c23.09 3.66 36.258-1.49 49.099-6.51l.395-.15c12.552-4.91 24.982-9.65 47.81-6.31a3.795 3.795 0 0 0 1.098-7.51Z"/></g></g></g><g id="Black-S"><g id="Solid / Money Solid_19"><g id="Shape_19" fill="#000"><path fill-rule="evenodd" d="M2891.5 643.392c0-3.3 2.93-5.804 6.22-5.586 13.43.892 21.59-2.322 29.79-5.551 9.05-3.564 18.15-7.146 34.42-5.239 2.63.308 4.57 2.595 4.57 5.243v38.959c0 3.366-3.04 5.895-6.39 5.558-14.83-1.492-23.53 1.908-32.06 5.244-8.74 3.417-17.31 6.766-32.12 4.72-2.57-.355-4.43-2.61-4.43-5.203v-38.145Zm50.55 13.533c0 7.14-5.78 12.929-12.92 12.929s-12.93-5.789-12.93-12.929c0-7.14 5.79-12.929 12.93-12.929s12.92 5.789 12.92 12.929Zm15.97-16.792a2.707 2.707 0 0 0-2.71-2.709c-1.5 0-2.71 1.213-2.71 2.709v22.425a2.707 2.707 0 0 0 2.71 2.708c1.5 0 2.71-1.212 2.71-2.708v-22.425Zm-55.35 8.504c1.5 0 2.71 1.212 2.71 2.708v22.425a2.705 2.705 0 1 1-5.41 0v-22.425a2.704 2.704 0 0 1 2.7-2.708Z" clip-rule="evenodd"/><path d="M2964.25 682.795c-17.67-2.587-27.59 1.185-36.9 4.824l-.29.113c-8.9 3.48-17.2 6.725-32.25 4.338a2.7 2.7 0 0 0-3.09 2.25 2.703 2.703 0 0 0 2.25 3.1c16.49 2.617 25.89-1.06 35.07-4.646l.28-.11c8.96-3.504 17.84-6.896 34.15-4.509a2.709 2.709 0 0 0 .78-5.36Z"/></g></g></g><g id="Heavy-S"><g id="Solid / Money Solid_20"><g id="Shape_20" fill="#000"><path fill-rule="evenodd" d="M2595.5 643.392c0-3.3 2.93-5.804 6.22-5.586 13.43.892 21.59-2.322 29.79-5.551 9.05-3.564 18.15-7.146 34.42-5.239 2.63.308 4.57 2.595 4.57 5.243v38.959c0 3.366-3.04 5.895-6.39 5.558-14.83-1.492-23.53 1.908-32.06 5.244-8.74 3.417-17.31 6.766-32.12 4.72-2.57-.355-4.43-2.61-4.43-5.203v-38.145Zm50.55 13.533c0 7.14-5.78 12.929-12.92 12.929s-12.93-5.789-12.93-12.929c0-7.14 5.79-12.929 12.93-12.929s12.92 5.789 12.92 12.929Zm15.97-16.792a2.707 2.707 0 0 0-2.71-2.709c-1.5 0-2.71 1.213-2.71 2.709v22.425a2.707 2.707 0 0 0 2.71 2.708c1.5 0 2.71-1.212 2.71-2.708v-22.425Zm-55.35 8.504c1.5 0 2.71 1.212 2.71 2.708v22.425a2.705 2.705 0 1 1-5.41 0v-22.425a2.704 2.704 0 0 1 2.7-2.708Z" clip-rule="evenodd"/><path d="M2668.25 682.795c-17.67-2.587-27.59 1.185-36.9 4.824l-.29.113c-8.9 3.48-17.2 6.725-32.25 4.338a2.7 2.7 0 0 0-3.09 2.25 2.703 2.703 0 0 0 2.25 3.1c16.49 2.617 25.89-1.06 35.07-4.646l.28-.11c8.96-3.504 17.84-6.896 34.15-4.509a2.709 2.709 0 0 0 .78-5.36Z"/></g></g></g><g id="Bold-S"><g id="Solid / Money Solid_21"><g id="Shape_21" fill="#000"><path fill-rule="evenodd" d="M2299.5 643.392c0-3.3 2.93-5.804 6.22-5.586 13.43.892 21.59-2.322 29.79-5.551 9.05-3.564 18.15-7.146 34.42-5.239 2.63.308 4.57 2.595 4.57 5.243v38.959c0 3.366-3.04 5.895-6.39 5.558-14.83-1.492-23.53 1.908-32.06 5.244-8.74 3.417-17.31 6.766-32.12 4.72-2.57-.355-4.43-2.61-4.43-5.203v-38.145Zm50.55 13.533c0 7.14-5.78 12.929-12.92 12.929s-12.93-5.789-12.93-12.929c0-7.14 5.79-12.929 12.93-12.929s12.92 5.789 12.92 12.929Zm15.97-16.792a2.707 2.707 0 0 0-2.71-2.709c-1.5 0-2.71 1.213-2.71 2.709v22.425a2.707 2.707 0 0 0 2.71 2.708c1.5 0 2.71-1.212 2.71-2.708v-22.425Zm-55.35 8.504c1.5 0 2.71 1.212 2.71 2.708v22.425a2.705 2.705 0 1 1-5.41 0v-22.425a2.704 2.704 0 0 1 2.7-2.708Z" clip-rule="evenodd"/><path d="M2372.25 682.795c-17.67-2.587-27.59 1.185-36.9 4.824l-.29.113c-8.9 3.48-17.2 6.725-32.25 4.338a2.7 2.7 0 0 0-3.09 2.25 2.703 2.703 0 0 0 2.25 3.1c16.49 2.617 25.89-1.06 35.07-4.646l.28-.11c8.96-3.504 17.84-6.896 34.15-4.509a2.709 2.709 0 0 0 .78-5.36Z"/></g></g></g><g id="Semibold-S"><g id="Solid / Money Solid_22"><g id="Shape_22" fill="#000"><path fill-rule="evenodd" d="M2003.5 643.392c0-3.3 2.93-5.804 6.22-5.586 13.43.892 21.59-2.322 29.79-5.551 9.05-3.564 18.15-7.146 34.42-5.239 2.63.308 4.57 2.595 4.57 5.243v38.959c0 3.366-3.04 5.895-6.39 5.558-14.83-1.492-23.53 1.908-32.06 5.244-8.74 3.417-17.31 6.766-32.12 4.72-2.57-.355-4.43-2.61-4.43-5.203v-38.145Zm50.55 13.533c0 7.14-5.78 12.929-12.92 12.929s-12.93-5.789-12.93-12.929c0-7.14 5.79-12.929 12.93-12.929s12.92 5.789 12.92 12.929Zm15.97-16.792a2.707 2.707 0 0 0-2.71-2.709c-1.5 0-2.71 1.213-2.71 2.709v22.425a2.707 2.707 0 0 0 2.71 2.708c1.5 0 2.71-1.212 2.71-2.708v-22.425Zm-55.35 8.504c1.5 0 2.71 1.212 2.71 2.708v22.425a2.705 2.705 0 1 1-5.41 0v-22.425a2.704 2.704 0 0 1 2.7-2.708Z" clip-rule="evenodd"/><path d="M2076.25 682.795c-17.67-2.587-27.59 1.185-36.9 4.824l-.29.113c-8.9 3.48-17.2 6.725-32.25 4.338a2.7 2.7 0 0 0-3.09 2.25 2.703 2.703 0 0 0 2.25 3.1c16.49 2.617 25.89-1.06 35.07-4.646l.28-.11c8.96-3.504 17.84-6.896 34.15-4.509a2.709 2.709 0 0 0 .78-5.36Z"/></g></g></g><g id="Medium-S"><g id="Solid / Money Solid_23"><g id="Shape_23" fill="#000"><path fill-rule="evenodd" d="M1707.5 643.392c0-3.3 2.93-5.804 6.22-5.586 13.43.892 21.59-2.322 29.79-5.551 9.05-3.564 18.15-7.146 34.42-5.239 2.63.308 4.57 2.595 4.57 5.243v38.959c0 3.366-3.04 5.895-6.39 5.558-14.83-1.492-23.53 1.908-32.06 5.244-8.74 3.417-17.31 6.766-32.12 4.72-2.57-.355-4.43-2.61-4.43-5.203v-38.145Zm50.55 13.533c0 7.14-5.78 12.929-12.92 12.929s-12.93-5.789-12.93-12.929c0-7.14 5.79-12.929 12.93-12.929s12.92 5.789 12.92 12.929Zm15.97-16.792a2.707 2.707 0 0 0-2.71-2.709c-1.5 0-2.71 1.213-2.71 2.709v22.425a2.707 2.707 0 0 0 2.71 2.708c1.5 0 2.71-1.212 2.71-2.708v-22.425Zm-55.35 8.504c1.5 0 2.71 1.212 2.71 2.708v22.425a2.705 2.705 0 1 1-5.41 0v-22.425a2.704 2.704 0 0 1 2.7-2.708Z" clip-rule="evenodd"/><path d="M1780.25 682.795c-17.67-2.587-27.59 1.185-36.9 4.824l-.29.113c-8.9 3.48-17.2 6.725-32.25 4.338a2.7 2.7 0 0 0-3.09 2.25 2.703 2.703 0 0 0 2.25 3.1c16.49 2.617 25.89-1.06 35.07-4.646l.28-.11c8.96-3.504 17.84-6.896 34.15-4.509a2.709 2.709 0 0 0 .78-5.36Z"/></g></g></g><g id="Regular-S"><g id="Solid / Money Solid_24"><g id="Shape_24" fill="#000"><path fill-rule="evenodd" d="M1411.5 643.392c0-3.3 2.93-5.804 6.22-5.586 13.43.892 21.59-2.322 29.79-5.551 9.05-3.564 18.15-7.146 34.42-5.239 2.63.308 4.57 2.595 4.57 5.243v38.959c0 3.366-3.04 5.895-6.39 5.558-14.83-1.492-23.53 1.908-32.06 5.244-8.74 3.417-17.31 6.766-32.12 4.72-2.57-.355-4.43-2.61-4.43-5.203v-38.145Zm50.55 13.533c0 7.14-5.78 12.929-12.92 12.929s-12.93-5.789-12.93-12.929c0-7.14 5.79-12.929 12.93-12.929s12.92 5.789 12.92 12.929Zm15.97-16.792a2.707 2.707 0 0 0-2.71-2.709c-1.5 0-2.71 1.213-2.71 2.709v22.425a2.707 2.707 0 0 0 2.71 2.708c1.5 0 2.71-1.212 2.71-2.708v-22.425Zm-55.35 8.504c1.5 0 2.71 1.212 2.71 2.708v22.425a2.705 2.705 0 1 1-5.41 0v-22.425a2.704 2.704 0 0 1 2.7-2.708Z" clip-rule="evenodd"/><path d="M1484.25 682.795c-17.67-2.587-27.59 1.185-36.9 4.824l-.29.113c-8.9 3.48-17.2 6.725-32.25 4.338a2.7 2.7 0 0 0-3.09 2.25 2.703 2.703 0 0 0 2.25 3.1c16.49 2.617 25.89-1.06 35.07-4.646l.28-.11c8.96-3.504 17.84-6.896 34.15-4.509a2.709 2.709 0 0 0 .78-5.36Z"/></g></g></g><g id="Light-S"><g id="Solid / Money Solid_25"><g id="Shape_25" fill="#000"><path fill-rule="evenodd" d="M1115.5 643.392c0-3.3 2.93-5.804 6.22-5.586 13.43.892 21.59-2.322 29.79-5.551 9.05-3.564 18.15-7.146 34.42-5.239 2.63.308 4.57 2.595 4.57 5.243v38.959c0 3.366-3.04 5.895-6.39 5.558-14.83-1.492-23.53 1.908-32.06 5.244-8.74 3.417-17.31 6.766-32.12 4.72-2.57-.355-4.43-2.61-4.43-5.203v-38.145Zm50.55 13.533c0 7.14-5.78 12.929-12.92 12.929s-12.93-5.789-12.93-12.929c0-7.14 5.79-12.929 12.93-12.929s12.92 5.789 12.92 12.929Zm15.97-16.792a2.707 2.707 0 0 0-2.71-2.709c-1.5 0-2.71 1.213-2.71 2.709v22.425a2.707 2.707 0 0 0 2.71 2.708c1.5 0 2.71-1.212 2.71-2.708v-22.425Zm-55.35 8.504c1.5 0 2.71 1.212 2.71 2.708v22.425a2.705 2.705 0 1 1-5.41 0v-22.425a2.704 2.704 0 0 1 2.7-2.708Z" clip-rule="evenodd"/><path d="M1188.25 682.795c-17.67-2.587-27.59 1.185-36.9 4.824l-.29.113c-8.9 3.48-17.2 6.725-32.25 4.338a2.7 2.7 0 0 0-3.09 2.25 2.703 2.703 0 0 0 2.25 3.1c16.49 2.617 25.89-1.06 35.07-4.646l.28-.11c8.96-3.504 17.84-6.896 34.15-4.509a2.709 2.709 0 0 0 .78-5.36Z"/></g></g></g><g id="Thin-S"><g id="Solid / Money Solid_26"><g id="Shape_26" fill="#000"><path fill-rule="evenodd" d="M819.5 643.392c0-3.3 2.927-5.804 6.219-5.586 13.432.892 21.594-2.322 29.792-5.551 9.05-3.564 18.145-7.146 34.423-5.239 2.63.308 4.566 2.595 4.566 5.243v38.959c0 3.366-3.045 5.895-6.393 5.558-14.832-1.492-23.528 1.908-32.059 5.244-8.74 3.417-17.308 6.766-32.122 4.72-2.568-.355-4.426-2.61-4.426-5.203v-38.145Zm50.554 13.533c0 7.14-5.788 12.929-12.928 12.929-7.141 0-12.929-5.789-12.929-12.929 0-7.14 5.788-12.929 12.929-12.929 7.14 0 12.928 5.789 12.928 12.929Zm15.964-16.792a2.71 2.71 0 0 0-5.417 0v22.425a2.708 2.708 0 0 0 5.417 0v-22.425Zm-55.344 8.504a2.708 2.708 0 0 1 2.709 2.708v22.425a2.71 2.71 0 0 1-5.417 0v-22.425a2.708 2.708 0 0 1 2.708-2.708Z" clip-rule="evenodd"/><path d="M892.253 682.795c-17.673-2.587-27.598 1.185-36.907 4.824l-.288.113c-8.902 3.48-17.203 6.725-32.243 4.338a2.709 2.709 0 1 0-.849 5.35c16.492 2.617 25.898-1.06 35.071-4.646l.281-.11c8.966-3.504 17.845-6.896 34.151-4.509a2.71 2.71 0 0 0 .784-5.36Z"/></g></g></g><g id="Ultralight-S"><g id="Solid / Money Solid_27"><g id="Shape_27" fill="#000"><path fill-rule="evenodd" d="M523.5 643.392c0-3.3 2.927-5.804 6.219-5.586 13.432.892 21.594-2.322 29.792-5.551 9.05-3.564 18.145-7.146 34.423-5.239 2.63.308 4.566 2.595 4.566 5.243v38.959c0 3.366-3.045 5.895-6.393 5.558-14.832-1.492-23.528 1.908-32.059 5.244-8.74 3.417-17.308 6.766-32.122 4.72-2.568-.355-4.426-2.61-4.426-5.203v-38.145Zm50.554 13.533c0 7.14-5.788 12.929-12.928 12.929-7.141 0-12.929-5.789-12.929-12.929 0-7.14 5.788-12.929 12.929-12.929 7.14 0 12.928 5.789 12.928 12.929Zm15.964-16.792a2.71 2.71 0 0 0-5.417 0v22.425a2.708 2.708 0 0 0 5.417 0v-22.425Zm-55.344 8.504a2.708 2.708 0 0 1 2.709 2.708v22.425a2.71 2.71 0 0 1-5.417 0v-22.425a2.708 2.708 0 0 1 2.708-2.708Z" clip-rule="evenodd"/><path d="M596.253 682.795c-17.673-2.587-27.598 1.185-36.907 4.824l-.288.113c-8.902 3.48-17.203 6.725-32.243 4.338a2.709 2.709 0 1 0-.849 5.35c16.492 2.617 25.898-1.06 35.071-4.646l.281-.11c8.966-3.504 17.845-6.896 34.151-4.509a2.71 2.71 0 0 0 .784-5.36Z"/></g></g></g></g></g><defs><clipPath id="clip0_0_1"><path fill="#fff" d="M0 0h3300v2200H0z"/></clipPath></defs></svg>