<svg xmlns="http://www.w3.org/2000/svg" width="3300" height="2200" fill="none"><path fill="#E5E5E5" d="M0 0h3300v2200H0z"/><g id="Category / Outline / Store" clip-path="url(#clip0_0_1)"><g id="Notes"><path id="artboard" fill="#fff" d="M3300 0H0v2200h3300V0Z"/><path id="Vector" stroke="#000" stroke-width=".5" d="M263 292h2773"/><text xml:space="preserve" id="Weight/Scale Variations" fill="#000" font-family="Roboto" font-size="12" letter-spacing="0em" style="white-space:pre"><tspan x="263" y="321.102">Weight/Scale Variations</tspan></text><text xml:space="preserve" id="Ultralight" fill="#000" font-family="Roboto" font-size="12" letter-spacing="0em" style="white-space:pre"><tspan x="535.211" y="321.102">Ultralight</tspan></text><text xml:space="preserve" id="Thin" fill="#000" font-family="Roboto" font-size="12" letter-spacing="0em" style="white-space:pre"><tspan x="844.422" y="321.102">Thin</tspan></text><text xml:space="preserve" id="Light" fill="#000" font-family="Roboto" font-size="12" letter-spacing="0em" style="white-space:pre"><tspan x="1139.63" y="321.102">Light</tspan></text><text xml:space="preserve" id="Regular" fill="#000" font-family="Roboto" font-size="12" letter-spacing="0em" style="white-space:pre"><tspan x="1429.34" y="321.102">Regular</tspan></text><text xml:space="preserve" id="Medium" fill="#000" font-family="Roboto" font-size="12" letter-spacing="0em" style="white-space:pre"><tspan x="1724.56" y="321.102">Medium</tspan></text><text xml:space="preserve" id="Semibold" fill="#000" font-family="Roboto" font-size="12" letter-spacing="0em" style="white-space:pre"><tspan x="2017.77" y="321.102">Semibold</tspan></text><text xml:space="preserve" id="Bold" fill="#000" font-family="Roboto" font-size="12" letter-spacing="0em" style="white-space:pre"><tspan x="2327.48" y="321.102">Bold</tspan></text><text xml:space="preserve" id="Heavy" fill="#000" font-family="Roboto" font-size="12" letter-spacing="0em" style="white-space:pre"><tspan x="2620.19" y="321.102">Heavy</tspan></text><text xml:space="preserve" id="Black" fill="#000" font-family="Roboto" font-size="12" letter-spacing="0em" style="white-space:pre"><tspan x="2918.4" y="321.102">Black</tspan></text><path id="Vector_2" stroke="#000" stroke-width=".5" d="M263 1903h2773"/><g id="Group"><path id="Vector_3" fill="#000" d="M272.248 1933.83c4.307 0 7.891-3.57 7.891-7.88 0-4.31-3.594-7.88-7.901-7.88-4.297 0-7.871 3.57-7.871 7.88 0 4.31 3.584 7.88 7.881 7.88Zm0-1.48c-3.545 0-6.377-2.84-6.377-6.4 0-3.55 2.822-6.4 6.367-6.4a6.388 6.388 0 0 1 6.406 6.4 6.361 6.361 0 0 1-6.396 6.4Zm-.019-2.78c.468 0 .742-.31.742-.83v-2.06h2.226c.498 0 .84-.25.84-.72 0-.48-.322-.74-.84-.74h-2.226v-2.23c0-.52-.274-.84-.742-.84-.469 0-.723.34-.723.84v2.23h-2.207c-.518 0-.85.26-.85.74 0 .47.352.72.85.72h2.207v2.06c0 .5.254.83.723.83Z"/></g><g id="Group_2"><path id="Vector_4" fill="#000" d="M293.215 1935.91c5.449 0 9.961-4.51 9.961-9.96 0-5.44-4.522-9.96-9.971-9.96-5.439 0-9.951 4.52-9.951 9.96 0 5.45 4.521 9.96 9.961 9.96Zm0-1.66a8.26 8.26 0 0 1-8.291-8.3c0-4.6 3.672-8.3 8.281-8.3a8.29 8.29 0 0 1 8.311 8.3 8.263 8.263 0 0 1-8.301 8.3Zm-.02-3.66c.518 0 .83-.36.83-.93v-2.89h3.057c.547 0 .928-.28.928-.8 0-.53-.362-.83-.928-.83h-3.057v-3.07c0-.57-.312-.93-.83-.93-.517 0-.81.38-.81.93v3.07h-3.047c-.567 0-.938.3-.938.83 0 .52.391.8.938.8h3.047v2.89c0 .55.293.93.81.93Z"/></g><g id="Group_3"><path id="Vector_5" fill="#000" d="M319.895 1938.67c6.962 0 12.724-5.75 12.724-12.71 0-6.97-5.771-12.72-12.734-12.72-6.953 0-12.705 5.75-12.705 12.72 0 6.96 5.761 12.71 12.715 12.71Zm0-1.81a10.874 10.874 0 0 1-10.889-10.9c0-6.04 4.844-10.9 10.879-10.9 6.045 0 10.898 4.86 10.908 10.9a10.87 10.87 0 0 1-10.898 10.9Zm-.02-4.93c.566 0 .918-.39.918-.99v-4.07h4.238c.586 0 1.006-.34 1.006-.89 0-.58-.39-.92-1.006-.92h-4.238v-4.25c0-.61-.352-1.01-.918-1.01-.566 0-.889.41-.889 1.01v4.25h-4.228c-.615 0-1.026.34-1.026.92 0 .55.43.89 1.026.89h4.228v4.07c0 .58.323.99.889.99Z"/></g><text xml:space="preserve" id="Design Variations" fill="#000" font-family="Roboto" font-size="12" letter-spacing="0em" style="white-space:pre"><tspan x="263" y="1952.1">Design Variations</tspan></text><text xml:space="preserve" id="Symbols are supported in up to nine weights and three scales." fill="#000" font-family="Roboto" font-size="12" letter-spacing="0em" style="white-space:pre"><tspan x="263" y="1970.1">Symbols are supported in up to nine weights and three scales.</tspan></text><text xml:space="preserve" id="For optimal layout with text and other symbols, vertically align" fill="#000" font-family="Roboto" font-size="12" letter-spacing="0em" style="white-space:pre"><tspan x="263" y="1988.1">For optimal layout with text and other symbols, vertically align</tspan></text><text xml:space="preserve" id="symbols with the adjacent text." fill="#000" font-family="Roboto" font-size="12" letter-spacing="0em" style="white-space:pre"><tspan x="263" y="2006.1">symbols with the adjacent text.</tspan></text><path id="Vector_6" fill="#00AEEF" d="M779 1919h-3v14h3v-14Z" opacity=".4"/><g id="Group_4"><path id="Vector_7" fill="#000" d="M789.527 1933h1.846l-5.195-14.09h-1.739l-5.195 14.09h1.846l1.416-4.04h5.605l1.416 4.04Zm-4.248-11.96h.059l2.256 6.43h-4.571l2.256-6.43Z"/></g><path id="Vector_8" fill="#00AEEF" d="M794.617 1919h-3v14h3v-14Z" opacity=".4"/><text xml:space="preserve" id="Margins" fill="#000" font-family="Roboto" font-size="12" letter-spacing="0em" style="white-space:pre"><tspan x="776" y="1952.1">Margins</tspan></text><text xml:space="preserve" id="Leading and trailing margins on the left and right side of each symbol" fill="#000" font-family="Roboto" font-size="12" letter-spacing="0em" style="white-space:pre"><tspan x="776" y="1970.1">Leading and trailing margins on the left and right side of each symbol</tspan></text><text xml:space="preserve" id="can be adjusted by modifying the width of the blue rectangles." fill="#000" font-family="Roboto" font-size="12" letter-spacing="0em" style="white-space:pre"><tspan x="776" y="1988.1">can be adjusted by modifying the width of the blue rectangles.</tspan></text><text xml:space="preserve" id="Modifications are automatically applied proportionally to all" fill="#000" font-family="Roboto" font-size="12" letter-spacing="0em" style="white-space:pre"><tspan x="776" y="2006.1">Modifications are automatically applied proportionally to all</tspan></text><text xml:space="preserve" id="scales and weights." fill="#000" font-family="Roboto" font-size="12" letter-spacing="0em" style="white-space:pre"><tspan x="776" y="2024.1">scales and weights.</tspan></text><g id="Group_5"><path id="Vector_9" fill="#000" d="m1291.83 1936.11 1.54 1.55c.85.83 1.82.76 2.69-.2l10.21-11.12c.43.29.83.28 1.29.18l1.05-.21.69.69-.05.52c-.06.53.1.95.6 1.45l.81.81c.51.5 1.16.53 1.64.05l3.25-3.25c.48-.48.46-1.13-.05-1.64l-.82-.82c-.49-.5-.91-.67-1.44-.59l-.53.05-.65-.66.28-1.14c.15-.57 0-1.04-.63-1.64l-2.41-2.39c-3.54-3.53-8.07-3.42-11.19-.29-.42.43-.47 1.02-.19 1.45.23.37.71.59 1.35.43 1.52-.38 3.03-.27 4.51.74l-.62 1.58c-.23.59-.22 1.07.02 1.5l-11.16 10.28c-.94.87-1.05 1.81-.19 2.67Zm7.84-18.26c2.67-1.99 5.98-1.68 8.38.73l2.63 2.61c.23.24.26.42.2.72l-.38 1.56 1.58 1.57.96-.09c.29-.03.37-.01.6.22l.62.62-2.75 2.75-.63-.62c-.22-.22-.24-.32-.21-.6l.09-.96-1.57-1.56-1.62.31c-.28.06-.43.06-.66-.19l-2.18-2.17c-.22-.24-.25-.38-.12-.7l.94-2.27c-1.6-1.54-3.71-2.39-5.75-1.73-.09.03-.16.01-.19-.03-.02-.05-.02-.1.06-.17Zm-6.57 17.56c-.49-.5-.31-.8.02-1.1l10.96-10.12 1.23 1.23-10.16 10.93c-.3.33-.68.43-1.08.03l-.97-.97Z"/></g><text xml:space="preserve" id="Exporting" fill="#000" font-family="Roboto" font-size="12" letter-spacing="0em" style="white-space:pre"><tspan x="1289" y="1952.1">Exporting</tspan></text><text xml:space="preserve" id="Symbols should be outlined when exporting to ensure the" fill="#000" font-family="Roboto" font-size="12" letter-spacing="0em" style="white-space:pre"><tspan x="1289" y="1970.1">Symbols should be outlined when exporting to ensure the</tspan></text><text xml:space="preserve" id="design is preserved when submitting to Xcode." fill="#000" font-family="Roboto" font-size="12" letter-spacing="0em" style="white-space:pre"><tspan x="1289" y="1988.1">design is preserved when submitting to Xcode.</tspan></text><text xml:space="preserve" id="template-version" fill="#000" font-family="Roboto" font-size="12" letter-spacing="0em" style="white-space:pre"><tspan x="2958" y="1932.1">Template v.1.0</tspan></text><text xml:space="preserve" id="Generated from pencil.circle" fill="#000" font-family="Roboto" font-size="12" letter-spacing="0em" style="white-space:pre"><tspan x="2885" y="1950.1">Generated from pencil.circle</tspan></text><text xml:space="preserve" id="Typeset at 100 points" fill="#000" font-family="Roboto" font-size="12" letter-spacing="0em" style="white-space:pre"><tspan x="2921" y="1968.1">Typeset at 100 points</tspan></text><text xml:space="preserve" id="Small" fill="#000" font-family="Roboto" font-size="12" letter-spacing="0em" style="white-space:pre"><tspan x="263" y="725.102">Small</tspan></text><text xml:space="preserve" id="Medium_2" fill="#000" font-family="Roboto" font-size="12" letter-spacing="0em" style="white-space:pre"><tspan x="263" y="1155.1">Medium</tspan></text><text xml:space="preserve" id="Large" fill="#000" font-family="Roboto" font-size="12" letter-spacing="0em" style="white-space:pre"><tspan x="263" y="1585.1">Large</tspan></text></g><g id="Guides"><g id="H-reference"><path id="Vector_10" fill="#27AAE1" d="M393.932 695.998h2.734l-27.1-70.459h-2.49l-27.099 70.459h2.685l9.278-24.463h32.763l9.229 24.463Zm-25.733-67.09h.244l15.381 40.381h-31.006l15.381-40.381Z"/></g><path id="Baseline-S" stroke="#27AAE1" stroke-width=".577" d="M263 696h2773"/><path id="Capline-S" stroke="#27AAE1" stroke-width=".577" d="M263 626h2773"/><g id="H-reference_2"><path id="Vector_11" fill="#27AAE1" d="M393.932 1126h2.734l-27.1-70.46h-2.49L339.977 1126h2.685l9.278-24.46h32.763l9.229 24.46Zm-25.733-67.09h.244l15.381 40.38h-31.006l15.381-40.38Z"/></g><path id="Baseline-M" stroke="#27AAE1" stroke-width=".577" d="M263 1126h2773"/><path id="Capline-M" stroke="#27AAE1" stroke-width=".577" d="M263 1056h2773"/><g id="H-reference_3"><path id="Vector_12" fill="#27AAE1" d="M393.932 1556h2.734l-27.1-70.46h-2.49L339.977 1556h2.685l9.278-24.46h32.763l9.229 24.46Zm-25.733-67.09h.244l15.381 40.38h-31.006l15.381-40.38Z"/></g><g id="Group 1" stroke="#27AAE1" stroke-width=".577"><path id="Baseline-L" d="M263 1556h2773"/><path id="Capline-L" d="M263 1486h2773"/></g><path id="left-margin" fill="#00AEEF" d="M1397.04 1030.79h-8.74v119.33h8.74v-119.33Z" opacity=".4"/><path id="right-margin" fill="#00AEEF" d="M1509.39 1030.79h-8.74v119.33h8.74v-119.33Z" opacity=".4"/></g><g id="Symbols"><g id="Black-L"><g id="Outline / Store Outline"><path id="Shape" fill="#000" fill-rule="evenodd" d="M2875.58 1467.49a9.753 9.753 0 0 1 9.2-6.52h88.44c4.14 0 7.82 2.61 9.2 6.52l12.28 35 .01 2.65c-2.06 7.45-7.24 12.27-13.21 14.46v59.14c0 5.38-4.37 9.75-9.75 9.75h-24.08c-5.39 0-9.75-4.37-9.75-9.75v-33.31h-17.84v33.31c0 5.37-4.38 9.72-9.75 9.75h-24.08c-5.38 0-9.75-4.37-9.75-9.75v-59.1c-5.98-2.19-11.16-7.04-13.21-14.51l.01-2.64 12.28-35Zm10.67 53.42v57.83h24.08v-33.31c0-5.39 4.37-9.75 9.75-9.75h17.84c5.38 0 9.75 4.36 9.75 9.75v33.31h24.08v-57.89c-4.87-.47-9.64-2.57-13.17-6.32-3.87 4.49-9.56 6.74-15.08 6.75-4.95.01-10.01-1.8-13.74-5.41h-1.5c-3.72 3.59-8.76 5.39-13.69 5.38-5.5 0-11.17-2.25-15.03-6.72-3.56 3.79-8.38 5.91-13.29 6.38Zm57.24-9.38c-4.61 0-8.8-2.71-9.61-8.22l-.01-32.59h14.25l5.16 33.25c-1.23 5.04-5.38 7.55-9.79 7.56Zm19.46-8.82h.07c1.34 5.69 5.92 8.51 10.88 8.5 4.63-.02 9.12-2.52 11.02-7.46l-12.14-33.03h-14.79l4.96 31.99Zm-77.73-31.99h14.69l-4.94 32.57c-1.55 5.33-6.03 7.98-10.83 7.96-4.66-.01-9.16-2.52-11.06-7.5l12.14-33.03Zm19.56 32.9 4.99-32.9h14.35v32.9c-.93 5.28-5.03 7.89-9.54 7.88-4.5 0-8.71-2.62-9.8-7.88Z" clip-rule="evenodd"/></g></g><g id="Heavy-L"><g id="Outline / Store Outline_2"><path id="Shape_2" fill="#000" fill-rule="evenodd" d="M2579.58 1467.49a9.753 9.753 0 0 1 9.2-6.52h88.44c4.14 0 7.82 2.61 9.2 6.52l12.28 35 .01 2.65c-2.06 7.45-7.24 12.27-13.21 14.46v59.14c0 5.38-4.37 9.75-9.75 9.75h-24.08c-5.39 0-9.75-4.37-9.75-9.75v-33.31h-17.84v33.31c0 5.37-4.38 9.72-9.75 9.75h-24.08c-5.38 0-9.75-4.37-9.75-9.75v-59.1c-5.98-2.19-11.16-7.04-13.21-14.51l.01-2.64 12.28-35Zm10.67 53.42v57.83h24.08v-33.31c0-5.39 4.37-9.75 9.75-9.75h17.84c5.38 0 9.75 4.36 9.75 9.75v33.31h24.08v-57.89c-4.87-.47-9.64-2.57-13.17-6.32-3.87 4.49-9.56 6.74-15.08 6.75-4.95.01-10.01-1.8-13.74-5.41h-1.5c-3.72 3.59-8.76 5.39-13.69 5.38-5.5 0-11.17-2.25-15.03-6.72-3.56 3.79-8.38 5.91-13.29 6.38Zm57.24-9.38c-4.61 0-8.8-2.71-9.61-8.22l-.01-32.59h14.25l5.16 33.25c-1.23 5.04-5.38 7.55-9.79 7.56Zm19.46-8.82h.07c1.34 5.69 5.92 8.51 10.88 8.5 4.63-.02 9.12-2.52 11.02-7.46l-12.14-33.03h-14.79l4.96 31.99Zm-77.73-31.99h14.69l-4.94 32.57c-1.55 5.33-6.03 7.98-10.83 7.96-4.66-.01-9.16-2.52-11.06-7.5l12.14-33.03Zm19.56 32.9 4.99-32.9h14.35v32.9c-.93 5.28-5.03 7.89-9.54 7.88-4.5 0-8.71-2.62-9.8-7.88Z" clip-rule="evenodd"/></g></g><g id="Bold-L"><g id="Outline / Store Outline_3"><path id="Shape_3" fill="#000" fill-rule="evenodd" d="M2283.58 1467.49a9.753 9.753 0 0 1 9.2-6.52h88.44c4.14 0 7.82 2.61 9.2 6.52l12.28 35 .01 2.65c-2.06 7.45-7.24 12.27-13.21 14.46v59.14c0 5.38-4.37 9.75-9.75 9.75h-24.08c-5.39 0-9.75-4.37-9.75-9.75v-33.31h-17.84v33.31c0 5.37-4.38 9.72-9.75 9.75h-24.08c-5.38 0-9.75-4.37-9.75-9.75v-59.1c-5.98-2.19-11.16-7.04-13.21-14.51l.01-2.64 12.28-35Zm10.67 53.42v57.83h24.08v-33.31c0-5.39 4.37-9.75 9.75-9.75h17.84c5.38 0 9.75 4.36 9.75 9.75v33.31h24.08v-57.89c-4.87-.47-9.64-2.57-13.17-6.32-3.87 4.49-9.56 6.74-15.08 6.75-4.95.01-10.01-1.8-13.74-5.41h-1.5c-3.72 3.59-8.76 5.39-13.69 5.38-5.5 0-11.17-2.25-15.03-6.72-3.56 3.79-8.38 5.91-13.29 6.38Zm57.24-9.38c-4.61 0-8.8-2.71-9.61-8.22l-.01-32.59h14.25l5.16 33.25c-1.23 5.04-5.38 7.55-9.79 7.56Zm19.46-8.82h.07c1.34 5.69 5.92 8.51 10.88 8.5 4.63-.02 9.12-2.52 11.02-7.46l-12.14-33.03h-14.79l4.96 31.99Zm-77.73-31.99h14.69l-4.94 32.57c-1.55 5.33-6.03 7.98-10.83 7.96-4.66-.01-9.16-2.52-11.06-7.5l12.14-33.03Zm19.56 32.9 4.99-32.9h14.35v32.9c-.93 5.28-5.03 7.89-9.54 7.88-4.5 0-8.71-2.62-9.8-7.88Z" clip-rule="evenodd"/></g></g><g id="Semibold-L"><g id="Outline / Store Outline_4"><path id="Shape_4" fill="#000" fill-rule="evenodd" d="M1987.58 1467.49a9.753 9.753 0 0 1 9.2-6.52h88.44c4.14 0 7.82 2.61 9.2 6.52l12.28 35 .01 2.65c-2.06 7.45-7.24 12.27-13.21 14.46v59.14c0 5.38-4.37 9.75-9.75 9.75h-24.08c-5.39 0-9.75-4.37-9.75-9.75v-33.31h-17.84v33.31c0 5.37-4.38 9.72-9.75 9.75h-24.08c-5.38 0-9.75-4.37-9.75-9.75v-59.1c-5.98-2.19-11.16-7.04-13.21-14.51l.01-2.64 12.28-35Zm10.67 53.42v57.83h24.08v-33.31c0-5.39 4.37-9.75 9.75-9.75h17.84c5.38 0 9.75 4.36 9.75 9.75v33.31h24.08v-57.89c-4.87-.47-9.64-2.57-13.17-6.32-3.87 4.49-9.56 6.74-15.08 6.75-4.95.01-10.01-1.8-13.74-5.41h-1.5c-3.72 3.59-8.76 5.39-13.69 5.38-5.5 0-11.17-2.25-15.03-6.72-3.56 3.79-8.38 5.91-13.29 6.38Zm57.24-9.38c-4.61 0-8.8-2.71-9.61-8.22l-.01-32.59h14.25l5.16 33.25c-1.23 5.04-5.38 7.55-9.79 7.56Zm19.46-8.82h.07c1.34 5.69 5.92 8.51 10.88 8.5 4.63-.02 9.12-2.52 11.02-7.46l-12.14-33.03h-14.79l4.96 31.99Zm-77.73-31.99h14.69l-4.94 32.57c-1.55 5.33-6.03 7.98-10.83 7.96-4.66-.01-9.16-2.52-11.06-7.5l12.14-33.03Zm19.56 32.9 4.99-32.9h14.35v32.9c-.93 5.28-5.03 7.89-9.54 7.88-4.5 0-8.71-2.62-9.8-7.88Z" clip-rule="evenodd"/></g></g><g id="Medium-L"><g id="Outline / Store Outline_5"><path id="Shape_5" fill="#000" fill-rule="evenodd" d="M1691.58 1467.49a9.753 9.753 0 0 1 9.2-6.52h88.44c4.14 0 7.82 2.61 9.2 6.52l12.28 35 .01 2.65c-2.06 7.45-7.24 12.27-13.21 14.46v59.14c0 5.38-4.37 9.75-9.75 9.75h-24.08c-5.39 0-9.75-4.37-9.75-9.75v-33.31h-17.84v33.31c0 5.37-4.38 9.72-9.75 9.75h-24.08c-5.38 0-9.75-4.37-9.75-9.75v-59.1c-5.98-2.19-11.16-7.04-13.21-14.51l.01-2.64 12.28-35Zm10.67 53.42v57.83h24.08v-33.31c0-5.39 4.37-9.75 9.75-9.75h17.84c5.38 0 9.75 4.36 9.75 9.75v33.31h24.08v-57.89c-4.87-.47-9.64-2.57-13.17-6.32-3.87 4.49-9.56 6.74-15.08 6.75-4.95.01-10.01-1.8-13.74-5.41h-1.5c-3.72 3.59-8.76 5.39-13.69 5.38-5.5 0-11.17-2.25-15.03-6.72-3.56 3.79-8.38 5.91-13.29 6.38Zm57.24-9.38c-4.61 0-8.8-2.71-9.61-8.22l-.01-32.59h14.25l5.16 33.25c-1.23 5.04-5.38 7.55-9.79 7.56Zm19.46-8.82h.07c1.34 5.69 5.92 8.51 10.88 8.5 4.63-.02 9.12-2.52 11.02-7.46l-12.14-33.03h-14.79l4.96 31.99Zm-77.73-31.99h14.69l-4.94 32.57c-1.55 5.33-6.03 7.98-10.83 7.96-4.66-.01-9.16-2.52-11.06-7.5l12.14-33.03Zm19.56 32.9 4.99-32.9h14.35v32.9c-.93 5.28-5.03 7.89-9.54 7.88-4.5 0-8.71-2.62-9.8-7.88Z" clip-rule="evenodd"/></g></g><g id="Regular-L"><g id="Outline / Store Outline_6"><path id="Shape_6" fill="#000" fill-rule="evenodd" d="M1395.58 1467.49a9.753 9.753 0 0 1 9.2-6.52h88.44c4.14 0 7.82 2.61 9.2 6.52l12.28 35 .01 2.65c-2.06 7.45-7.24 12.27-13.21 14.46v59.14c0 5.38-4.37 9.75-9.75 9.75h-24.08c-5.39 0-9.75-4.37-9.75-9.75v-33.31h-17.84v33.31c0 5.37-4.38 9.72-9.75 9.75h-24.08c-5.38 0-9.75-4.37-9.75-9.75v-59.1c-5.98-2.19-11.16-7.04-13.21-14.51l.01-2.64 12.28-35Zm10.67 53.42v57.83h24.08v-33.31c0-5.39 4.37-9.75 9.75-9.75h17.84c5.38 0 9.75 4.36 9.75 9.75v33.31h24.08v-57.89c-4.87-.47-9.64-2.57-13.17-6.32-3.87 4.49-9.56 6.74-15.08 6.75-4.95.01-10.01-1.8-13.74-5.41h-1.5c-3.72 3.59-8.76 5.39-13.69 5.38-5.5 0-11.17-2.25-15.03-6.72-3.56 3.79-8.38 5.91-13.29 6.38Zm57.24-9.38c-4.61 0-8.8-2.71-9.61-8.22l-.01-32.59h14.25l5.16 33.25c-1.23 5.04-5.38 7.55-9.79 7.56Zm19.46-8.82h.07c1.34 5.69 5.92 8.51 10.88 8.5 4.63-.02 9.12-2.52 11.02-7.46l-12.14-33.03h-14.79l4.96 31.99Zm-77.73-31.99h14.69l-4.94 32.57c-1.55 5.33-6.03 7.98-10.83 7.96-4.66-.01-9.16-2.52-11.06-7.5l12.14-33.03Zm19.56 32.9 4.99-32.9h14.35v32.9c-.93 5.28-5.03 7.89-9.54 7.88-4.5 0-8.71-2.62-9.8-7.88Z" clip-rule="evenodd"/></g></g><g id="Light-L"><g id="Outline / Store Outline_7"><path id="Shape_7" fill="#000" fill-rule="evenodd" d="M1099.58 1467.49a9.753 9.753 0 0 1 9.2-6.52h88.44c4.14 0 7.82 2.61 9.2 6.52l12.28 35 .01 2.65c-2.06 7.45-7.24 12.27-13.21 14.46v59.14c0 5.38-4.37 9.75-9.75 9.75h-24.08c-5.39 0-9.75-4.37-9.75-9.75v-33.31h-17.84v33.31c0 5.37-4.38 9.72-9.75 9.75h-24.08c-5.38 0-9.75-4.37-9.75-9.75v-59.1c-5.98-2.19-11.16-7.04-13.21-14.51l.01-2.64 12.28-35Zm10.67 53.42v57.83h24.08v-33.31c0-5.39 4.37-9.75 9.75-9.75h17.84c5.38 0 9.75 4.36 9.75 9.75v33.31h24.08v-57.89c-4.87-.47-9.64-2.57-13.17-6.32-3.87 4.49-9.56 6.74-15.08 6.75-4.95.01-10.01-1.8-13.74-5.41h-1.5c-3.72 3.59-8.76 5.39-13.69 5.38-5.5 0-11.17-2.25-15.03-6.72-3.56 3.79-8.38 5.91-13.29 6.38Zm57.24-9.38c-4.61 0-8.8-2.71-9.61-8.22l-.01-32.59h14.25l5.16 33.25c-1.23 5.04-5.38 7.55-9.79 7.56Zm19.46-8.82h.07c1.34 5.69 5.92 8.51 10.88 8.5 4.63-.02 9.12-2.52 11.02-7.46l-12.14-33.03h-14.79l4.96 31.99Zm-77.73-31.99h14.69l-4.94 32.57c-1.55 5.33-6.03 7.98-10.83 7.96-4.66-.01-9.16-2.52-11.06-7.5l12.14-33.03Zm19.56 32.9 4.99-32.9h14.35v32.9c-.93 5.28-5.03 7.89-9.54 7.88-4.5 0-8.71-2.62-9.8-7.88Z" clip-rule="evenodd"/></g></g><g id="Thin-L"><g id="Outline / Store Outline_8"><path id="Shape_8" fill="#000" fill-rule="evenodd" d="M803.585 1467.49a9.744 9.744 0 0 1 9.2-6.52h88.43c4.14 0 7.829 2.61 9.2 6.52l12.284 35 .012 2.65c-2.064 7.45-7.242 12.27-13.211 14.46v59.14c0 5.38-4.365 9.75-9.75 9.75h-24.082c-5.385 0-9.75-4.37-9.75-9.75v-33.31h-17.836v33.31c0 5.37-4.381 9.72-9.75 9.75H814.25c-5.385 0-9.75-4.37-9.75-9.75v-59.1c-5.978-2.19-11.156-7.04-13.213-14.51l.015-2.64 12.283-35Zm10.665 53.42v57.83h24.082v-33.31c0-5.39 4.366-9.75 9.75-9.75h17.836c5.385 0 9.75 4.36 9.75 9.75v33.31h24.082v-57.89c-4.869-.47-9.638-2.57-13.17-6.32-3.873 4.49-9.558 6.74-15.082 6.75-4.95.01-10.007-1.8-13.734-5.41h-1.499c-3.722 3.59-8.76 5.39-13.692 5.38-5.508 0-11.173-2.25-15.032-6.72-3.564 3.79-8.379 5.91-13.291 6.38Zm57.237-9.38c-4.611 0-8.794-2.71-9.612-8.22v-32.59h14.245l5.156 33.25c-1.224 5.04-5.375 7.55-9.789 7.56Zm19.461-8.82h.069c1.347 5.69 5.923 8.51 10.881 8.5 4.629-.02 9.118-2.52 11.018-7.46l-12.134-33.03h-14.796l4.962 31.99Zm-77.731-31.99h14.69l-4.941 32.57c-1.547 5.33-6.022 7.98-10.83 7.96-4.652-.01-9.155-2.52-11.053-7.5l12.134-33.03Zm19.561 32.9 4.99-32.9h14.357v32.9c-.935 5.28-5.039 7.89-9.542 7.88-4.498 0-8.713-2.62-9.805-7.88Z" clip-rule="evenodd"/></g></g><g id="Ultralight-L"><g id="Outline / Store Outline_9"><path id="Shape_9" fill="#000" fill-rule="evenodd" d="M507.585 1467.49a9.744 9.744 0 0 1 9.2-6.52h88.43c4.14 0 7.829 2.61 9.2 6.52l12.284 35 .012 2.65c-2.064 7.45-7.242 12.27-13.211 14.46v59.14c0 5.38-4.365 9.75-9.75 9.75h-24.082c-5.385 0-9.75-4.37-9.75-9.75v-33.31h-17.836v33.31c0 5.37-4.381 9.72-9.75 9.75H518.25c-5.385 0-9.75-4.37-9.75-9.75v-59.1c-5.978-2.19-11.156-7.04-13.213-14.51l.015-2.64 12.283-35Zm10.665 53.42v57.83h24.082v-33.31c0-5.39 4.366-9.75 9.75-9.75h17.836c5.385 0 9.75 4.36 9.75 9.75v33.31h24.082v-57.89c-4.869-.47-9.638-2.57-13.17-6.32-3.873 4.49-9.558 6.74-15.082 6.75-4.95.01-10.007-1.8-13.734-5.41h-1.499c-3.722 3.59-8.76 5.39-13.692 5.38-5.508 0-11.173-2.25-15.032-6.72-3.564 3.79-8.379 5.91-13.291 6.38Zm57.237-9.38c-4.611 0-8.794-2.71-9.612-8.22v-32.59h14.245l5.156 33.25c-1.224 5.04-5.375 7.55-9.789 7.56Zm19.461-8.82h.069c1.347 5.69 5.923 8.51 10.881 8.5 4.629-.02 9.118-2.52 11.018-7.46l-12.134-33.03h-14.796l4.962 31.99Zm-77.731-31.99h14.69l-4.941 32.57c-1.547 5.33-6.022 7.98-10.83 7.96-4.652-.01-9.155-2.52-11.053-7.5l12.134-33.03Zm19.561 32.9 4.99-32.9h14.357v32.9c-.935 5.28-5.039 7.89-9.542 7.88-4.498 0-8.713-2.62-9.805-7.88Z" clip-rule="evenodd"/></g></g><g id="Black-M"><g id="Outline / Store Outline_10"><path id="Shape_10" fill="#000" fill-rule="evenodd" d="M2887.46 1049.38a7.566 7.566 0 0 1 7.15-5.07h68.78c3.22 0 6.09 2.03 7.16 5.07l9.55 27.22.01 2.06c-1.61 5.8-5.63 9.55-10.28 11.25v46c0 4.18-3.39 7.58-7.58 7.58h-18.73c-4.19 0-7.58-3.4-7.58-7.58V1110h-13.88v25.91c0 4.17-3.4 7.56-7.58 7.58h-18.73c-4.19 0-7.58-3.4-7.58-7.58v-45.97c-4.65-1.7-8.68-5.47-10.28-11.28l.01-2.06 9.56-27.22Zm8.29 41.55v44.98h18.73V1110c0-4.19 3.4-7.58 7.58-7.58h13.88c4.18 0 7.58 3.39 7.58 7.58v25.91h18.73v-45.02c-3.79-.37-7.5-2-10.24-4.92-3.01 3.49-7.44 5.24-11.73 5.25-3.85 0-7.79-1.4-10.69-4.21h-1.16c-2.9 2.79-6.81 4.19-10.65 4.19-4.28-.01-8.69-1.76-11.69-5.23-2.77 2.94-6.52 4.59-10.34 4.96Zm44.52-7.3c-3.59.01-6.84-2.11-7.48-6.39v-25.35h11.08l4.01 25.87c-.95 3.91-4.18 5.87-7.61 5.87Zm15.13-6.85h.06c1.05 4.42 4.61 6.61 8.46 6.6 3.6-.01 7.09-1.95 8.57-5.8l-9.44-25.69h-11.5l3.85 24.89Zm-60.45-24.89h11.42l-3.84 25.33c-1.2 4.15-4.68 6.21-8.42 6.2-3.62-.01-7.12-1.96-8.6-5.84l9.44-25.69Zm15.21 25.59 3.88-25.59h11.17v25.59c-.73 4.11-3.92 6.14-7.42 6.13-3.5 0-6.78-2.04-7.63-6.13Z" clip-rule="evenodd"/></g></g><g id="Heavy-M"><g id="Outline / Store Outline_11"><path id="Shape_11" fill="#000" fill-rule="evenodd" d="M2591.46 1049.38a7.566 7.566 0 0 1 7.15-5.07h68.78c3.22 0 6.09 2.03 7.16 5.07l9.55 27.22.01 2.06c-1.61 5.8-5.63 9.55-10.28 11.25v46c0 4.18-3.39 7.58-7.58 7.58h-18.73c-4.19 0-7.58-3.4-7.58-7.58V1110h-13.88v25.91c0 4.17-3.4 7.56-7.58 7.58h-18.73c-4.19 0-7.58-3.4-7.58-7.58v-45.97c-4.65-1.7-8.68-5.47-10.28-11.28l.01-2.06 9.56-27.22Zm8.29 41.55v44.98h18.73V1110c0-4.19 3.4-7.58 7.58-7.58h13.88c4.18 0 7.58 3.39 7.58 7.58v25.91h18.73v-45.02c-3.79-.37-7.5-2-10.24-4.92-3.01 3.49-7.44 5.24-11.73 5.25-3.85 0-7.79-1.4-10.69-4.21h-1.16c-2.9 2.79-6.81 4.19-10.65 4.19-4.28-.01-8.69-1.76-11.69-5.23-2.77 2.94-6.52 4.59-10.34 4.96Zm44.52-7.3c-3.59.01-6.84-2.11-7.48-6.39v-25.35h11.08l4.01 25.87c-.95 3.91-4.18 5.87-7.61 5.87Zm15.13-6.85h.06c1.05 4.42 4.61 6.61 8.46 6.6 3.6-.01 7.09-1.95 8.57-5.8l-9.44-25.69h-11.5l3.85 24.89Zm-60.45-24.89h11.42l-3.84 25.33c-1.2 4.15-4.68 6.21-8.42 6.2-3.62-.01-7.12-1.96-8.6-5.84l9.44-25.69Zm15.21 25.59 3.88-25.59h11.17v25.59c-.73 4.11-3.92 6.14-7.42 6.13-3.5 0-6.78-2.04-7.63-6.13Z" clip-rule="evenodd"/></g></g><g id="Bold-M"><g id="Outline / Store Outline_12"><path id="Shape_12" fill="#000" fill-rule="evenodd" d="M2295.46 1049.38a7.566 7.566 0 0 1 7.15-5.07h68.78c3.22 0 6.09 2.03 7.16 5.07l9.55 27.22.01 2.06c-1.61 5.8-5.63 9.55-10.28 11.25v46c0 4.18-3.39 7.58-7.58 7.58h-18.73c-4.19 0-7.58-3.4-7.58-7.58V1110h-13.88v25.91c0 4.17-3.4 7.56-7.58 7.58h-18.73c-4.19 0-7.58-3.4-7.58-7.58v-45.97c-4.65-1.7-8.68-5.47-10.28-11.28l.01-2.06 9.56-27.22Zm8.29 41.55v44.98h18.73V1110c0-4.19 3.4-7.58 7.58-7.58h13.88c4.18 0 7.58 3.39 7.58 7.58v25.91h18.73v-45.02c-3.79-.37-7.5-2-10.24-4.92-3.01 3.49-7.44 5.24-11.73 5.25-3.85 0-7.79-1.4-10.69-4.21h-1.16c-2.9 2.79-6.81 4.19-10.65 4.19-4.28-.01-8.69-1.76-11.69-5.23-2.77 2.94-6.52 4.59-10.34 4.96Zm44.52-7.3c-3.59.01-6.84-2.11-7.48-6.39v-25.35h11.08l4.01 25.87c-.95 3.91-4.18 5.87-7.61 5.87Zm15.13-6.85h.06c1.05 4.42 4.61 6.61 8.46 6.6 3.6-.01 7.09-1.95 8.57-5.8l-9.44-25.69h-11.5l3.85 24.89Zm-60.45-24.89h11.42l-3.84 25.33c-1.2 4.15-4.68 6.21-8.42 6.2-3.62-.01-7.12-1.96-8.6-5.84l9.44-25.69Zm15.21 25.59 3.88-25.59h11.17v25.59c-.73 4.11-3.92 6.14-7.42 6.13-3.5 0-6.78-2.04-7.63-6.13Z" clip-rule="evenodd"/></g></g><g id="Semibold-M"><g id="Outline / Store Outline_13"><path id="Shape_13" fill="#000" fill-rule="evenodd" d="M1999.46 1049.38a7.566 7.566 0 0 1 7.15-5.07h68.78c3.22 0 6.09 2.03 7.16 5.07l9.55 27.22.01 2.06c-1.61 5.8-5.63 9.55-10.28 11.25v46c0 4.18-3.39 7.58-7.58 7.58h-18.73c-4.19 0-7.58-3.4-7.58-7.58V1110h-13.88v25.91c0 4.17-3.4 7.56-7.58 7.58h-18.73c-4.19 0-7.58-3.4-7.58-7.58v-45.97c-4.65-1.7-8.68-5.47-10.28-11.28l.01-2.06 9.56-27.22Zm8.29 41.55v44.98h18.73V1110c0-4.19 3.4-7.58 7.58-7.58h13.88c4.18 0 7.58 3.39 7.58 7.58v25.91h18.73v-45.02c-3.79-.37-7.5-2-10.24-4.92-3.01 3.49-7.44 5.24-11.73 5.25-3.85 0-7.79-1.4-10.69-4.21h-1.16c-2.9 2.79-6.81 4.19-10.65 4.19-4.28-.01-8.69-1.76-11.69-5.23-2.77 2.94-6.52 4.59-10.34 4.96Zm44.52-7.3c-3.59.01-6.84-2.11-7.48-6.39v-25.35h11.08l4.01 25.87c-.95 3.91-4.18 5.87-7.61 5.87Zm15.13-6.85h.06c1.05 4.42 4.61 6.61 8.46 6.6 3.6-.01 7.09-1.95 8.57-5.8l-9.44-25.69h-11.5l3.85 24.89Zm-60.45-24.89h11.42l-3.84 25.33c-1.2 4.15-4.68 6.21-8.42 6.2-3.62-.01-7.12-1.96-8.6-5.84l9.44-25.69Zm15.21 25.59 3.88-25.59h11.17v25.59c-.73 4.11-3.92 6.14-7.42 6.13-3.5 0-6.78-2.04-7.63-6.13Z" clip-rule="evenodd"/></g></g><g id="Medium-M"><g id="Outline / Store Outline_14"><path id="Shape_14" fill="#000" fill-rule="evenodd" d="M1703.46 1049.38a7.566 7.566 0 0 1 7.15-5.07h68.78c3.22 0 6.09 2.03 7.16 5.07l9.55 27.22.01 2.06c-1.61 5.8-5.63 9.55-10.28 11.25v46c0 4.18-3.39 7.58-7.58 7.58h-18.73c-4.19 0-7.58-3.4-7.58-7.58V1110h-13.88v25.91c0 4.17-3.4 7.56-7.58 7.58h-18.73c-4.19 0-7.58-3.4-7.58-7.58v-45.97c-4.65-1.7-8.68-5.47-10.28-11.28l.01-2.06 9.56-27.22Zm8.29 41.55v44.98h18.73V1110c0-4.19 3.4-7.58 7.58-7.58h13.88c4.18 0 7.58 3.39 7.58 7.58v25.91h18.73v-45.02c-3.79-.37-7.5-2-10.24-4.92-3.01 3.49-7.44 5.24-11.73 5.25-3.85 0-7.79-1.4-10.69-4.21h-1.16c-2.9 2.79-6.81 4.19-10.65 4.19-4.28-.01-8.69-1.76-11.69-5.23-2.77 2.94-6.52 4.59-10.34 4.96Zm44.52-7.3c-3.59.01-6.84-2.11-7.48-6.39v-25.35h11.08l4.01 25.87c-.95 3.91-4.18 5.87-7.61 5.87Zm15.13-6.85h.06c1.05 4.42 4.61 6.61 8.46 6.6 3.6-.01 7.09-1.95 8.57-5.8l-9.44-25.69h-11.5l3.85 24.89Zm-60.45-24.89h11.42l-3.84 25.33c-1.2 4.15-4.68 6.21-8.42 6.2-3.62-.01-7.12-1.96-8.6-5.84l9.44-25.69Zm15.21 25.59 3.88-25.59h11.17v25.59c-.73 4.11-3.92 6.14-7.42 6.13-3.5 0-6.78-2.04-7.63-6.13Z" clip-rule="evenodd"/></g></g><g id="Regular-M"><g id="Outline / Store Outline_15"><path id="Shape_15" fill="#000" fill-rule="evenodd" d="M1407.46 1049.38a7.566 7.566 0 0 1 7.15-5.07h68.78c3.22 0 6.09 2.03 7.16 5.07l9.55 27.22.01 2.06c-1.61 5.8-5.63 9.55-10.28 11.25v46c0 4.18-3.39 7.58-7.58 7.58h-18.73c-4.19 0-7.58-3.4-7.58-7.58V1110h-13.88v25.91c0 4.17-3.4 7.56-7.58 7.58h-18.73c-4.19 0-7.58-3.4-7.58-7.58v-45.97c-4.65-1.7-8.68-5.47-10.28-11.28l.01-2.06 9.56-27.22Zm8.29 41.55v44.98h18.73V1110c0-4.19 3.4-7.58 7.58-7.58h13.88c4.18 0 7.58 3.39 7.58 7.58v25.91h18.73v-45.02c-3.79-.37-7.5-2-10.24-4.92-3.01 3.49-7.44 5.24-11.73 5.25-3.85 0-7.79-1.4-10.69-4.21h-1.16c-2.9 2.79-6.81 4.19-10.65 4.19-4.28-.01-8.69-1.76-11.69-5.23-2.77 2.94-6.52 4.59-10.34 4.96Zm44.52-7.3c-3.59.01-6.84-2.11-7.48-6.39v-25.35h11.08l4.01 25.87c-.95 3.91-4.18 5.87-7.61 5.87Zm15.13-6.85h.06c1.05 4.42 4.61 6.61 8.46 6.6 3.6-.01 7.09-1.95 8.57-5.8l-9.44-25.69h-11.5l3.85 24.89Zm-60.45-24.89h11.42l-3.84 25.33c-1.2 4.15-4.68 6.21-8.42 6.2-3.62-.01-7.12-1.96-8.6-5.84l9.44-25.69Zm15.21 25.59 3.88-25.59h11.17v25.59c-.73 4.11-3.92 6.14-7.42 6.13-3.5 0-6.78-2.04-7.63-6.13Z" clip-rule="evenodd"/></g></g><g id="Light-M"><g id="Outline / Store Outline_16"><path id="Shape_16" fill="#000" fill-rule="evenodd" d="M1111.46 1049.38a7.566 7.566 0 0 1 7.15-5.07h68.78c3.22 0 6.09 2.03 7.16 5.07l9.55 27.22.01 2.06c-1.61 5.8-5.63 9.55-10.28 11.25v46c0 4.18-3.39 7.58-7.58 7.58h-18.73c-4.19 0-7.58-3.4-7.58-7.58V1110h-13.88v25.91c0 4.17-3.4 7.56-7.58 7.58h-18.73c-4.19 0-7.58-3.4-7.58-7.58v-45.97c-4.65-1.7-8.68-5.47-10.28-11.28l.01-2.06 9.56-27.22Zm8.29 41.55v44.98h18.73V1110c0-4.19 3.4-7.58 7.58-7.58h13.88c4.18 0 7.58 3.39 7.58 7.58v25.91h18.73v-45.02c-3.79-.37-7.5-2-10.24-4.92-3.01 3.49-7.44 5.24-11.73 5.25-3.85 0-7.79-1.4-10.69-4.21h-1.16c-2.9 2.79-6.81 4.19-10.65 4.19-4.28-.01-8.69-1.76-11.69-5.23-2.77 2.94-6.52 4.59-10.34 4.96Zm44.52-7.3c-3.59.01-6.84-2.11-7.48-6.39v-25.35h11.08l4.01 25.87c-.95 3.91-4.18 5.87-7.61 5.87Zm15.13-6.85h.06c1.05 4.42 4.61 6.61 8.46 6.6 3.6-.01 7.09-1.95 8.57-5.8l-9.44-25.69h-11.5l3.85 24.89Zm-60.45-24.89h11.42l-3.84 25.33c-1.2 4.15-4.68 6.21-8.42 6.2-3.62-.01-7.12-1.96-8.6-5.84l9.44-25.69Zm15.21 25.59 3.88-25.59h11.17v25.59c-.73 4.11-3.92 6.14-7.42 6.13-3.5 0-6.78-2.04-7.63-6.13Z" clip-rule="evenodd"/></g></g><g id="Thin-M"><g id="Outline / Store Outline_17"><path id="Shape_17" fill="#000" fill-rule="evenodd" d="M815.455 1049.38a7.58 7.58 0 0 1 7.156-5.07h68.779a7.58 7.58 0 0 1 7.156 5.07l9.554 27.22.009 2.06c-1.605 5.8-5.632 9.55-10.275 11.25v46c0 4.18-3.395 7.58-7.583 7.58H871.52a7.586 7.586 0 0 1-7.583-7.58V1110h-13.872v25.91c0 4.17-3.408 7.56-7.584 7.58h-18.73a7.586 7.586 0 0 1-7.584-7.58v-45.97c-4.649-1.7-8.677-5.47-10.276-11.28l.011-2.06 9.553-27.22Zm8.296 41.55v44.98h18.73V1110a7.58 7.58 0 0 1 7.584-7.58h13.872a7.58 7.58 0 0 1 7.583 7.58v25.91h18.731v-45.02c-3.787-.37-7.496-2-10.243-4.92-3.013 3.49-7.435 5.24-11.731 5.25-3.85 0-7.783-1.4-10.682-4.21h-1.166c-2.895 2.79-6.814 4.19-10.649 4.19-4.284-.01-8.691-1.76-11.692-5.23-2.772 2.94-6.517 4.59-10.337 4.96Zm44.517-7.3c-3.586.01-6.839-2.11-7.476-6.39v-25.35h11.08l4.01 25.87c-.952 3.91-4.181 5.87-7.614 5.87Zm15.136-6.85h.055c1.047 4.42 4.606 6.61 8.462 6.6 3.601-.01 7.092-1.95 8.57-5.8l-9.437-25.69h-11.508l3.858 24.89Zm-60.456-24.89h11.425l-3.843 25.33c-1.204 4.15-4.684 6.21-8.424 6.2-3.618-.01-7.12-1.96-8.596-5.84l9.438-25.69Zm15.213 25.59 3.882-25.59h11.166v25.59c-.727 4.11-3.919 6.14-7.422 6.13-3.498 0-6.777-2.04-7.626-6.13Z" clip-rule="evenodd"/></g></g><g id="Ultralight-M"><g id="Outline / Store Outline_18"><path id="Shape_18" fill="#000" fill-rule="evenodd" d="M519.455 1049.38a7.58 7.58 0 0 1 7.156-5.07h68.779a7.58 7.58 0 0 1 7.156 5.07l9.554 27.22.009 2.06c-1.605 5.8-5.632 9.55-10.275 11.25v46c0 4.18-3.395 7.58-7.583 7.58H575.52a7.586 7.586 0 0 1-7.583-7.58V1110h-13.872v25.91c0 4.17-3.408 7.56-7.584 7.58h-18.73a7.586 7.586 0 0 1-7.584-7.58v-45.97c-4.649-1.7-8.677-5.47-10.276-11.28l.011-2.06 9.553-27.22Zm8.296 41.55v44.98h18.73V1110a7.58 7.58 0 0 1 7.584-7.58h13.872a7.58 7.58 0 0 1 7.583 7.58v25.91h18.731v-45.02c-3.787-.37-7.496-2-10.243-4.92-3.013 3.49-7.435 5.24-11.731 5.25-3.85 0-7.783-1.4-10.682-4.21h-1.166c-2.895 2.79-6.814 4.19-10.649 4.19-4.284-.01-8.691-1.76-11.692-5.23-2.772 2.94-6.517 4.59-10.337 4.96Zm44.517-7.3c-3.586.01-6.839-2.11-7.476-6.39v-25.35h11.08l4.01 25.87c-.952 3.91-4.181 5.87-7.614 5.87Zm15.136-6.85h.055c1.047 4.42 4.606 6.61 8.462 6.6 3.601-.01 7.092-1.95 8.57-5.8l-9.437-25.69h-11.508l3.858 24.89Zm-60.456-24.89h11.425l-3.843 25.33c-1.204 4.15-4.684 6.21-8.424 6.2-3.618-.01-7.12-1.96-8.596-5.84l9.438-25.69Zm15.213 25.59 3.882-25.59h11.166v25.59c-.727 4.11-3.919 6.14-7.422 6.13-3.498 0-6.777-2.04-7.626-6.13Z" clip-rule="evenodd"/></g></g><g id="Black-S"><g id="Outline / Store Outline_19"><path id="Shape_19" fill="#000" fill-rule="evenodd" d="M2899.32 631.271a5.437 5.437 0 0 1 5.12-3.623h49.12c2.3 0 4.35 1.453 5.11 3.623l6.83 19.445.01 1.47c-1.15 4.139-4.03 6.821-7.34 8.036v32.853a5.42 5.42 0 0 1-5.42 5.417h-13.38a5.42 5.42 0 0 1-5.42-5.417V674.57h-9.9v18.505c0 2.983-2.44 5.404-5.42 5.417h-13.38a5.42 5.42 0 0 1-5.42-5.417v-32.831c-3.32-1.219-6.2-3.911-7.34-8.062l.01-1.466 6.82-19.445Zm5.93 29.676v32.128h13.38V674.57a5.414 5.414 0 0 1 5.42-5.417h9.9c3 0 5.42 2.425 5.42 5.417v18.505h13.38v-32.157c-2.71-.262-5.35-1.429-7.32-3.511-2.15 2.492-5.31 3.744-8.38 3.747-2.75.004-5.56-.998-7.63-3.003h-.83c-2.07 1.994-4.87 2.991-7.61 2.988-3.06-.003-6.2-1.25-8.35-3.733-1.98 2.103-4.65 3.281-7.38 3.541Zm31.8-5.209c-2.56.003-4.89-1.507-5.34-4.566v-18.107h7.91l2.87 18.474c-.68 2.799-2.99 4.196-5.44 4.199Zm10.81-4.897.04-.002c.75 3.161 3.29 4.727 6.04 4.719 2.57-.008 5.07-1.397 6.12-4.144l-6.74-18.349h-8.22l2.76 17.776Zm-43.18-17.776h8.16l-2.75 18.093c-.86 2.964-3.34 4.433-6.02 4.427-2.58-.006-5.08-1.402-6.14-4.168l6.75-18.352Zm10.86 18.276 2.78-18.276h7.97v18.279c-.52 2.933-2.8 4.381-5.3 4.378-2.5-.002-4.84-1.459-5.45-4.381Z" clip-rule="evenodd"/></g></g><g id="Heavy-S"><g id="Outline / Store Outline_20"><path id="Shape_20" fill="#000" fill-rule="evenodd" d="M2603.32 631.271a5.437 5.437 0 0 1 5.12-3.623h49.12c2.3 0 4.35 1.453 5.11 3.623l6.83 19.445.01 1.47c-1.15 4.139-4.03 6.821-7.34 8.036v32.853a5.42 5.42 0 0 1-5.42 5.417h-13.38a5.42 5.42 0 0 1-5.42-5.417V674.57h-9.9v18.505c0 2.983-2.44 5.404-5.42 5.417h-13.38a5.42 5.42 0 0 1-5.42-5.417v-32.831c-3.32-1.219-6.2-3.911-7.34-8.062l.01-1.466 6.82-19.445Zm5.93 29.676v32.128h13.38V674.57a5.414 5.414 0 0 1 5.42-5.417h9.9c3 0 5.42 2.425 5.42 5.417v18.505h13.38v-32.157c-2.71-.262-5.35-1.429-7.32-3.511-2.15 2.492-5.31 3.744-8.38 3.747-2.75.004-5.56-.998-7.63-3.003h-.83c-2.07 1.994-4.87 2.991-7.61 2.988-3.06-.003-6.2-1.25-8.35-3.733-1.98 2.103-4.65 3.281-7.38 3.541Zm31.8-5.209c-2.56.003-4.89-1.507-5.34-4.566v-18.107h7.91l2.87 18.474c-.68 2.799-2.99 4.196-5.44 4.199Zm10.81-4.897.04-.002c.75 3.161 3.29 4.727 6.04 4.719 2.57-.008 5.07-1.397 6.12-4.144l-6.74-18.349h-8.22l2.76 17.776Zm-43.18-17.776h8.16l-2.75 18.093c-.86 2.964-3.34 4.433-6.02 4.427-2.58-.006-5.08-1.402-6.14-4.168l6.75-18.352Zm10.86 18.276 2.78-18.276h7.97v18.279c-.52 2.933-2.8 4.381-5.3 4.378-2.5-.002-4.84-1.459-5.45-4.381Z" clip-rule="evenodd"/></g></g><g id="Bold-S"><g id="Outline / Store Outline_21"><path id="Shape_21" fill="#000" fill-rule="evenodd" d="M2307.32 631.271a5.437 5.437 0 0 1 5.12-3.623h49.12c2.3 0 4.35 1.453 5.11 3.623l6.83 19.445.01 1.47c-1.15 4.139-4.03 6.821-7.34 8.036v32.853a5.42 5.42 0 0 1-5.42 5.417h-13.38a5.42 5.42 0 0 1-5.42-5.417V674.57h-9.9v18.505c0 2.983-2.44 5.404-5.42 5.417h-13.38a5.42 5.42 0 0 1-5.42-5.417v-32.831c-3.32-1.219-6.2-3.911-7.34-8.062l.01-1.466 6.82-19.445Zm5.93 29.676v32.128h13.38V674.57a5.414 5.414 0 0 1 5.42-5.417h9.9c3 0 5.42 2.425 5.42 5.417v18.505h13.38v-32.157c-2.71-.262-5.35-1.429-7.32-3.511-2.15 2.492-5.31 3.744-8.38 3.747-2.75.004-5.56-.998-7.63-3.003h-.83c-2.07 1.994-4.87 2.991-7.61 2.988-3.06-.003-6.2-1.25-8.35-3.733-1.98 2.103-4.65 3.281-7.38 3.541Zm31.8-5.209c-2.56.003-4.89-1.507-5.34-4.566v-18.107h7.91l2.87 18.474c-.68 2.799-2.99 4.196-5.44 4.199Zm10.81-4.897.04-.002c.75 3.161 3.29 4.727 6.04 4.719 2.57-.008 5.07-1.397 6.12-4.144l-6.74-18.349h-8.22l2.76 17.776Zm-43.18-17.776h8.16l-2.75 18.093c-.86 2.964-3.34 4.433-6.02 4.427-2.58-.006-5.08-1.402-6.14-4.168l6.75-18.352Zm10.86 18.276 2.78-18.276h7.97v18.279c-.52 2.933-2.8 4.381-5.3 4.378-2.5-.002-4.84-1.459-5.45-4.381Z" clip-rule="evenodd"/></g></g><g id="Semibold-S"><g id="Outline / Store Outline_22"><path id="Shape_22" fill="#000" fill-rule="evenodd" d="M2011.32 631.271a5.437 5.437 0 0 1 5.12-3.623h49.12c2.3 0 4.35 1.453 5.11 3.623l6.83 19.445.01 1.47c-1.15 4.139-4.03 6.821-7.34 8.036v32.853a5.42 5.42 0 0 1-5.42 5.417h-13.38a5.42 5.42 0 0 1-5.42-5.417V674.57h-9.9v18.505c0 2.983-2.44 5.404-5.42 5.417h-13.38a5.42 5.42 0 0 1-5.42-5.417v-32.831c-3.32-1.219-6.2-3.911-7.34-8.062l.01-1.466 6.82-19.445Zm5.93 29.676v32.128h13.38V674.57a5.414 5.414 0 0 1 5.42-5.417h9.9c3 0 5.42 2.425 5.42 5.417v18.505h13.38v-32.157c-2.71-.262-5.35-1.429-7.32-3.511-2.15 2.492-5.31 3.744-8.38 3.747-2.75.004-5.56-.998-7.63-3.003h-.83c-2.07 1.994-4.87 2.991-7.61 2.988-3.06-.003-6.2-1.25-8.35-3.733-1.98 2.103-4.65 3.281-7.38 3.541Zm31.8-5.209c-2.56.003-4.89-1.507-5.34-4.566v-18.107h7.91l2.87 18.474c-.68 2.799-2.99 4.196-5.44 4.199Zm10.81-4.897.04-.002c.75 3.161 3.29 4.727 6.04 4.719 2.57-.008 5.07-1.397 6.12-4.144l-6.74-18.349h-8.22l2.76 17.776Zm-43.18-17.776h8.16l-2.75 18.093c-.86 2.964-3.34 4.433-6.02 4.427-2.58-.006-5.08-1.402-6.14-4.168l6.75-18.352Zm10.86 18.276 2.78-18.276h7.97v18.279c-.52 2.933-2.8 4.381-5.3 4.378-2.5-.002-4.84-1.459-5.45-4.381Z" clip-rule="evenodd"/></g></g><g id="Medium-S"><g id="Outline / Store Outline_23"><path id="Shape_23" fill="#000" fill-rule="evenodd" d="M1715.32 631.271a5.437 5.437 0 0 1 5.12-3.623h49.12c2.3 0 4.35 1.453 5.11 3.623l6.83 19.445.01 1.47c-1.15 4.139-4.03 6.821-7.34 8.036v32.853a5.42 5.42 0 0 1-5.42 5.417h-13.38a5.42 5.42 0 0 1-5.42-5.417V674.57h-9.9v18.505c0 2.983-2.44 5.404-5.42 5.417h-13.38a5.42 5.42 0 0 1-5.42-5.417v-32.831c-3.32-1.219-6.2-3.911-7.34-8.062l.01-1.466 6.82-19.445Zm5.93 29.676v32.128h13.38V674.57a5.414 5.414 0 0 1 5.42-5.417h9.9c3 0 5.42 2.425 5.42 5.417v18.505h13.38v-32.157c-2.71-.262-5.35-1.429-7.32-3.511-2.15 2.492-5.31 3.744-8.38 3.747-2.75.004-5.56-.998-7.63-3.003h-.83c-2.07 1.994-4.87 2.991-7.61 2.988-3.06-.003-6.2-1.25-8.35-3.733-1.98 2.103-4.65 3.281-7.38 3.541Zm31.8-5.209c-2.56.003-4.89-1.507-5.34-4.566v-18.107h7.91l2.87 18.474c-.68 2.799-2.99 4.196-5.44 4.199Zm10.81-4.897.04-.002c.75 3.161 3.29 4.727 6.04 4.719 2.57-.008 5.07-1.397 6.12-4.144l-6.74-18.349h-8.22l2.76 17.776Zm-43.18-17.776h8.16l-2.75 18.093c-.86 2.964-3.34 4.433-6.02 4.427-2.58-.006-5.08-1.402-6.14-4.168l6.75-18.352Zm10.86 18.276 2.78-18.276h7.97v18.279c-.52 2.933-2.8 4.381-5.3 4.378-2.5-.002-4.84-1.459-5.45-4.381Z" clip-rule="evenodd"/></g></g><g id="Regular-S"><g id="Outline / Store Outline_24"><path id="Shape_24" fill="#000" fill-rule="evenodd" d="M1419.32 631.271a5.437 5.437 0 0 1 5.12-3.623h49.12c2.3 0 4.35 1.453 5.11 3.623l6.83 19.445.01 1.47c-1.15 4.139-4.03 6.821-7.34 8.036v32.853a5.42 5.42 0 0 1-5.42 5.417h-13.38a5.42 5.42 0 0 1-5.42-5.417V674.57h-9.9v18.505c0 2.983-2.44 5.404-5.42 5.417h-13.38a5.42 5.42 0 0 1-5.42-5.417v-32.831c-3.32-1.219-6.2-3.911-7.34-8.062l.01-1.466 6.82-19.445Zm5.93 29.676v32.128h13.38V674.57a5.414 5.414 0 0 1 5.42-5.417h9.9c3 0 5.42 2.425 5.42 5.417v18.505h13.38v-32.157c-2.71-.262-5.35-1.429-7.32-3.511-2.15 2.492-5.31 3.744-8.38 3.747-2.75.004-5.56-.998-7.63-3.003h-.83c-2.07 1.994-4.87 2.991-7.61 2.988-3.06-.003-6.2-1.25-8.35-3.733-1.98 2.103-4.65 3.281-7.38 3.541Zm31.8-5.209c-2.56.003-4.89-1.507-5.34-4.566v-18.107h7.91l2.87 18.474c-.68 2.799-2.99 4.196-5.44 4.199Zm10.81-4.897.04-.002c.75 3.161 3.29 4.727 6.04 4.719 2.57-.008 5.07-1.397 6.12-4.144l-6.74-18.349h-8.22l2.76 17.776Zm-43.18-17.776h8.16l-2.75 18.093c-.86 2.964-3.34 4.433-6.02 4.427-2.58-.006-5.08-1.402-6.14-4.168l6.75-18.352Zm10.86 18.276 2.78-18.276h7.97v18.279c-.52 2.933-2.8 4.381-5.3 4.378-2.5-.002-4.84-1.459-5.45-4.381Z" clip-rule="evenodd"/></g></g><g id="Light-S"><g id="Outline / Store Outline_25"><path id="Shape_25" fill="#000" fill-rule="evenodd" d="M1123.32 631.271a5.437 5.437 0 0 1 5.12-3.623h49.12c2.3 0 4.35 1.453 5.11 3.623l6.83 19.445.01 1.47c-1.15 4.139-4.03 6.821-7.34 8.036v32.853a5.42 5.42 0 0 1-5.42 5.417h-13.38a5.42 5.42 0 0 1-5.42-5.417V674.57h-9.9v18.505c0 2.983-2.44 5.404-5.42 5.417h-13.38a5.42 5.42 0 0 1-5.42-5.417v-32.831c-3.32-1.219-6.2-3.911-7.34-8.062l.01-1.466 6.82-19.445Zm5.93 29.676v32.128h13.38V674.57a5.414 5.414 0 0 1 5.42-5.417h9.9c3 0 5.42 2.425 5.42 5.417v18.505h13.38v-32.157c-2.71-.262-5.35-1.429-7.32-3.511-2.15 2.492-5.31 3.744-8.38 3.747-2.75.004-5.56-.998-7.63-3.003h-.83c-2.07 1.994-4.87 2.991-7.61 2.988-3.06-.003-6.2-1.25-8.35-3.733-1.98 2.103-4.65 3.281-7.38 3.541Zm31.8-5.209c-2.56.003-4.89-1.507-5.34-4.566v-18.107h7.91l2.87 18.474c-.68 2.799-2.99 4.196-5.44 4.199Zm10.81-4.897.04-.002c.75 3.161 3.29 4.727 6.04 4.719 2.57-.008 5.07-1.397 6.12-4.144l-6.74-18.349h-8.22l2.76 17.776Zm-43.18-17.776h8.16l-2.75 18.093c-.86 2.964-3.34 4.433-6.02 4.427-2.58-.006-5.08-1.402-6.14-4.168l6.75-18.352Zm10.86 18.276 2.78-18.276h7.97v18.279c-.52 2.933-2.8 4.381-5.3 4.378-2.5-.002-4.84-1.459-5.45-4.381Z" clip-rule="evenodd"/></g></g><g id="Thin-S"><g id="Outline / Store Outline_26"><path id="Shape_26" fill="#000" fill-rule="evenodd" d="M827.324 631.271a5.417 5.417 0 0 1 5.111-3.623h49.128c2.3 0 4.35 1.453 5.111 3.623l6.825 19.445.007 1.47c-1.147 4.139-4.024 6.821-7.34 8.036v32.853a5.417 5.417 0 0 1-5.417 5.417H867.37a5.416 5.416 0 0 1-5.416-5.417V674.57h-9.909v18.505c0 2.983-2.434 5.404-5.417 5.417h-13.379a5.416 5.416 0 0 1-5.416-5.417v-32.831c-3.322-1.219-6.198-3.911-7.341-8.062l.008-1.466 6.824-19.445Zm5.925 29.676v32.128h13.379V674.57a5.417 5.417 0 0 1 5.417-5.417h9.909a5.416 5.416 0 0 1 5.416 5.417v18.505h13.379v-32.157c-2.705-.262-5.354-1.429-7.316-3.511-2.152 2.492-5.31 3.744-8.379 3.747-2.75.004-5.56-.998-7.63-3.003h-.833c-2.068 1.994-4.867 2.991-7.607 2.988-3.059-.003-6.207-1.25-8.351-3.733-1.98 2.103-4.655 3.281-7.384 3.541Zm31.799-5.209c-2.562.003-4.886-1.507-5.34-4.566v-18.107h7.913l2.865 18.474c-.68 2.799-2.986 4.196-5.438 4.199Zm10.811-4.897.039-.002c.748 3.161 3.29 4.727 6.044 4.719 2.572-.008 5.066-1.397 6.122-4.144l-6.741-18.349h-8.22l2.756 17.776Zm-43.183-17.776h8.16l-2.744 18.093c-.86 2.964-3.346 4.433-6.017 4.427-2.584-.006-5.086-1.402-6.141-4.168l6.742-18.352Zm10.867 18.276 2.772-18.276h7.976v18.279c-.519 2.933-2.799 4.381-5.301 4.378-2.499-.002-4.841-1.459-5.447-4.381Z" clip-rule="evenodd"/></g></g><g id="Ultralight-S"><g id="Outline / Store Outline_27"><path id="Shape_27" fill="#000" fill-rule="evenodd" d="M531.324 631.271a5.417 5.417 0 0 1 5.111-3.623h49.128c2.3 0 4.35 1.453 5.111 3.623l6.825 19.445.007 1.47c-1.147 4.139-4.024 6.821-7.34 8.036v32.853a5.417 5.417 0 0 1-5.417 5.417H571.37a5.416 5.416 0 0 1-5.416-5.417V674.57h-9.909v18.505c0 2.983-2.434 5.404-5.417 5.417h-13.379a5.416 5.416 0 0 1-5.416-5.417v-32.831c-3.322-1.219-6.198-3.911-7.341-8.062l.008-1.466 6.824-19.445Zm5.925 29.676v32.128h13.379V674.57a5.417 5.417 0 0 1 5.417-5.417h9.909a5.416 5.416 0 0 1 5.416 5.417v18.505h13.379v-32.157c-2.705-.262-5.354-1.429-7.316-3.511-2.152 2.492-5.31 3.744-8.379 3.747-2.75.004-5.56-.998-7.63-3.003h-.833c-2.068 1.994-4.867 2.991-7.607 2.988-3.059-.003-6.207-1.25-8.351-3.733-1.98 2.103-4.655 3.281-7.384 3.541Zm31.799-5.209c-2.562.003-4.886-1.507-5.34-4.566v-18.107h7.913l2.865 18.474c-.68 2.799-2.986 4.196-5.438 4.199Zm10.811-4.897.039-.002c.748 3.161 3.29 4.727 6.044 4.719 2.572-.008 5.066-1.397 6.122-4.144l-6.741-18.349h-8.22l2.756 17.776Zm-43.183-17.776h8.16l-2.744 18.093c-.86 2.964-3.346 4.433-6.017 4.427-2.584-.006-5.086-1.402-6.141-4.168l6.742-18.352Zm10.867 18.276 2.772-18.276h7.976v18.279c-.519 2.933-2.799 4.381-5.301 4.378-2.499-.002-4.841-1.459-5.447-4.381Z" clip-rule="evenodd"/></g></g></g></g><defs><clipPath id="clip0_0_1"><path fill="#fff" d="M0 0h3300v2200H0z"/></clipPath></defs></svg>