<svg width="3300" height="2200" viewBox="0 0 3300 2200" fill="none" xmlns="http://www.w3.org/2000/svg">
<rect width="3300" height="2200" fill="#E5E5E5"/>
<g id="System / Outline / Small Arrow Right" clip-path="url(#clip0_805_27002)">
<g id="Notes">
<path id="artboard" d="M3300 0H0V2200H3300V0Z" fill="white"/>
<path id="Vector" d="M263 292H3036" stroke="black" stroke-width="0.5"/>
<text id="Weight/Scale Variations" fill="black" xml:space="preserve" style="white-space: pre" font-family="Roboto" font-size="12" letter-spacing="0em"><tspan x="263" y="321.102">Weight/Scale Variations</tspan></text>
<text id="Ultralight" fill="black" xml:space="preserve" style="white-space: pre" font-family="Roboto" font-size="12" letter-spacing="0em"><tspan x="535.211" y="321.102">Ultralight</tspan></text>
<text id="Thin" fill="black" xml:space="preserve" style="white-space: pre" font-family="Roboto" font-size="12" letter-spacing="0em"><tspan x="844.422" y="321.102">Thin</tspan></text>
<text id="Light" fill="black" xml:space="preserve" style="white-space: pre" font-family="Roboto" font-size="12" letter-spacing="0em"><tspan x="1139.63" y="321.102">Light</tspan></text>
<text id="Regular" fill="black" xml:space="preserve" style="white-space: pre" font-family="Roboto" font-size="12" letter-spacing="0em"><tspan x="1429.34" y="321.102">Regular</tspan></text>
<text id="Medium" fill="black" xml:space="preserve" style="white-space: pre" font-family="Roboto" font-size="12" letter-spacing="0em"><tspan x="1724.56" y="321.102">Medium</tspan></text>
<text id="Semibold" fill="black" xml:space="preserve" style="white-space: pre" font-family="Roboto" font-size="12" letter-spacing="0em"><tspan x="2017.77" y="321.102">Semibold</tspan></text>
<text id="Bold" fill="black" xml:space="preserve" style="white-space: pre" font-family="Roboto" font-size="12" letter-spacing="0em"><tspan x="2327.48" y="321.102">Bold</tspan></text>
<text id="Heavy" fill="black" xml:space="preserve" style="white-space: pre" font-family="Roboto" font-size="12" letter-spacing="0em"><tspan x="2620.19" y="321.102">Heavy</tspan></text>
<text id="Black" fill="black" xml:space="preserve" style="white-space: pre" font-family="Roboto" font-size="12" letter-spacing="0em"><tspan x="2918.4" y="321.102">Black</tspan></text>
<path id="Vector_2" d="M263 1903H3036" stroke="black" stroke-width="0.5"/>
<g id="Group">
<path id="Vector_3" d="M272.248 1933.83C276.555 1933.83 280.139 1930.26 280.139 1925.95C280.139 1921.64 276.545 1918.07 272.238 1918.07C267.941 1918.07 264.367 1921.64 264.367 1925.95C264.367 1930.26 267.951 1933.83 272.248 1933.83ZM272.248 1932.35C268.703 1932.35 265.871 1929.51 265.871 1925.95C265.871 1922.4 268.693 1919.55 272.238 1919.55C275.793 1919.55 278.635 1922.4 278.644 1925.95C278.654 1929.51 275.803 1932.35 272.248 1932.35ZM272.229 1929.57C272.697 1929.57 272.971 1929.26 272.971 1928.74V1926.68H275.197C275.695 1926.68 276.037 1926.43 276.037 1925.96C276.037 1925.48 275.715 1925.22 275.197 1925.22H272.971V1922.99C272.971 1922.47 272.697 1922.15 272.229 1922.15C271.76 1922.15 271.506 1922.49 271.506 1922.99V1925.22H269.299C268.781 1925.22 268.449 1925.48 268.449 1925.96C268.449 1926.43 268.801 1926.68 269.299 1926.68H271.506V1928.74C271.506 1929.24 271.76 1929.57 272.229 1929.57Z" fill="black"/>
</g>
<g id="Group_2">
<path id="Vector_4" d="M293.215 1935.91C298.664 1935.91 303.176 1931.4 303.176 1925.95C303.176 1920.51 298.654 1915.99 293.205 1915.99C287.766 1915.99 283.254 1920.51 283.254 1925.95C283.254 1931.4 287.775 1935.91 293.215 1935.91ZM293.215 1934.25C288.605 1934.25 284.924 1930.56 284.924 1925.95C284.924 1921.35 288.596 1917.65 293.205 1917.65C297.814 1917.65 301.506 1921.35 301.516 1925.95C301.525 1930.56 297.824 1934.25 293.215 1934.25ZM293.195 1930.59C293.713 1930.59 294.025 1930.23 294.025 1929.66V1926.77H297.082C297.629 1926.77 298.01 1926.49 298.01 1925.97C298.01 1925.44 297.648 1925.14 297.082 1925.14H294.025V1922.07C294.025 1921.5 293.713 1921.14 293.195 1921.14C292.678 1921.14 292.385 1921.52 292.385 1922.07V1925.14H289.338C288.771 1925.14 288.4 1925.44 288.4 1925.97C288.4 1926.49 288.791 1926.77 289.338 1926.77H292.385V1929.66C292.385 1930.21 292.678 1930.59 293.195 1930.59Z" fill="black"/>
</g>
<g id="Group_3">
<path id="Vector_5" d="M319.895 1938.67C326.857 1938.67 332.619 1932.92 332.619 1925.96C332.619 1918.99 326.848 1913.24 319.885 1913.24C312.932 1913.24 307.18 1918.99 307.18 1925.96C307.18 1932.92 312.941 1938.67 319.895 1938.67ZM319.895 1936.86C313.859 1936.86 309.006 1931.99 309.006 1925.96C309.006 1919.92 313.85 1915.06 319.885 1915.06C325.93 1915.06 330.783 1919.92 330.793 1925.96C330.803 1931.99 325.939 1936.86 319.895 1936.86ZM319.875 1931.93C320.441 1931.93 320.793 1931.54 320.793 1930.94V1926.87H325.031C325.617 1926.87 326.037 1926.53 326.037 1925.98C326.037 1925.4 325.647 1925.06 325.031 1925.06H320.793V1920.81C320.793 1920.2 320.441 1919.8 319.875 1919.8C319.309 1919.8 318.986 1920.21 318.986 1920.81V1925.06H314.758C314.143 1925.06 313.732 1925.4 313.732 1925.98C313.732 1926.53 314.162 1926.87 314.758 1926.87H318.986V1930.94C318.986 1931.52 319.309 1931.93 319.875 1931.93Z" fill="black"/>
</g>
<text id="Design Variations" fill="black" xml:space="preserve" style="white-space: pre" font-family="Roboto" font-size="12" letter-spacing="0em"><tspan x="263" y="1952.1">Design Variations</tspan></text>
<text id="Symbols are supported in up to nine weights and three scales." fill="black" xml:space="preserve" style="white-space: pre" font-family="Roboto" font-size="12" letter-spacing="0em"><tspan x="263" y="1970.1">Symbols are supported in up to nine weights and three scales.</tspan></text>
<text id="For optimal layout with text and other symbols, vertically align" fill="black" xml:space="preserve" style="white-space: pre" font-family="Roboto" font-size="12" letter-spacing="0em"><tspan x="263" y="1988.1">For optimal layout with text and other symbols, vertically align</tspan></text>
<text id="symbols with the adjacent text." fill="black" xml:space="preserve" style="white-space: pre" font-family="Roboto" font-size="12" letter-spacing="0em"><tspan x="263" y="2006.1">symbols with the adjacent text.</tspan></text>
<path id="Vector_6" opacity="0.4" d="M779 1919H776V1933H779V1919Z" fill="#00AEEF"/>
<g id="Group_4">
<path id="Vector_7" d="M789.527 1933H791.373L786.178 1918.91H784.439L779.244 1933H781.09L782.506 1928.96H788.111L789.527 1933ZM785.279 1921.04H785.338L787.594 1927.47H783.023L785.279 1921.04Z" fill="black"/>
</g>
<path id="Vector_8" opacity="0.4" d="M794.617 1919H791.617V1933H794.617V1919Z" fill="#00AEEF"/>
<text id="Margins" fill="black" xml:space="preserve" style="white-space: pre" font-family="Roboto" font-size="12" letter-spacing="0em"><tspan x="776" y="1952.1">Margins</tspan></text>
<text id="Leading and trailing margins on the left and right side of each symbol" fill="black" xml:space="preserve" style="white-space: pre" font-family="Roboto" font-size="12" letter-spacing="0em"><tspan x="776" y="1970.1">Leading and trailing margins on the left and right side of each symbol</tspan></text>
<text id="can be adjusted by modifying the width of the blue rectangles." fill="black" xml:space="preserve" style="white-space: pre" font-family="Roboto" font-size="12" letter-spacing="0em"><tspan x="776" y="1988.1">can be adjusted by modifying the width of the blue rectangles.</tspan></text>
<text id="Modifications are automatically applied proportionally to all" fill="black" xml:space="preserve" style="white-space: pre" font-family="Roboto" font-size="12" letter-spacing="0em"><tspan x="776" y="2006.1">Modifications are automatically applied proportionally to all</tspan></text>
<text id="scales and weights." fill="black" xml:space="preserve" style="white-space: pre" font-family="Roboto" font-size="12" letter-spacing="0em"><tspan x="776" y="2024.1">scales and weights.</tspan></text>
<g id="Group_5">
<path id="Vector_9" d="M1291.83 1936.11L1293.37 1937.66C1294.22 1938.49 1295.19 1938.42 1296.06 1937.46L1306.27 1926.34C1306.7 1926.63 1307.1 1926.62 1307.56 1926.52L1308.61 1926.31L1309.3 1927L1309.25 1927.52C1309.19 1928.05 1309.35 1928.47 1309.85 1928.97L1310.66 1929.78C1311.17 1930.28 1311.82 1930.31 1312.3 1929.83L1315.55 1926.58C1316.03 1926.1 1316.01 1925.45 1315.5 1924.94L1314.68 1924.12C1314.19 1923.62 1313.77 1923.45 1313.24 1923.53L1312.71 1923.58L1312.06 1922.92L1312.34 1921.78C1312.49 1921.21 1312.34 1920.74 1311.71 1920.14L1309.3 1917.75C1305.76 1914.22 1301.23 1914.33 1298.11 1917.46C1297.69 1917.89 1297.64 1918.48 1297.92 1918.91C1298.15 1919.28 1298.63 1919.5 1299.27 1919.34C1300.79 1918.96 1302.3 1919.07 1303.78 1920.08L1303.16 1921.66C1302.93 1922.25 1302.94 1922.73 1303.18 1923.16L1292.02 1933.44C1291.08 1934.31 1290.97 1935.25 1291.83 1936.11ZM1299.67 1917.85C1302.34 1915.86 1305.65 1916.17 1308.05 1918.58L1310.68 1921.19C1310.91 1921.43 1310.94 1921.61 1310.88 1921.91L1310.5 1923.47L1312.08 1925.04L1313.04 1924.95C1313.33 1924.92 1313.41 1924.94 1313.64 1925.17L1314.26 1925.79L1311.51 1928.54L1310.88 1927.92C1310.66 1927.7 1310.64 1927.6 1310.67 1927.32L1310.76 1926.36L1309.19 1924.8L1307.57 1925.11C1307.29 1925.17 1307.14 1925.17 1306.91 1924.92L1304.73 1922.75C1304.51 1922.51 1304.48 1922.37 1304.61 1922.05L1305.55 1919.78C1303.95 1918.24 1301.84 1917.39 1299.8 1918.05C1299.71 1918.08 1299.64 1918.06 1299.61 1918.02C1299.59 1917.97 1299.59 1917.92 1299.67 1917.85ZM1293.1 1935.41C1292.61 1934.91 1292.79 1934.61 1293.12 1934.31L1304.08 1924.19L1305.31 1925.42L1295.15 1936.35C1294.85 1936.68 1294.47 1936.78 1294.07 1936.38L1293.1 1935.41Z" fill="black"/>
</g>
<text id="Exporting" fill="black" xml:space="preserve" style="white-space: pre" font-family="Roboto" font-size="12" letter-spacing="0em"><tspan x="1289" y="1952.1">Exporting</tspan></text>
<text id="Symbols should be outlined when exporting to ensure the" fill="black" xml:space="preserve" style="white-space: pre" font-family="Roboto" font-size="12" letter-spacing="0em"><tspan x="1289" y="1970.1">Symbols should be outlined when exporting to ensure the</tspan></text>
<text id="design is preserved when submitting to Xcode." fill="black" xml:space="preserve" style="white-space: pre" font-family="Roboto" font-size="12" letter-spacing="0em"><tspan x="1289" y="1988.1">design is preserved when submitting to Xcode.</tspan></text>
<text id="template-version" fill="black" xml:space="preserve" style="white-space: pre" font-family="Roboto" font-size="12" letter-spacing="0em"><tspan x="2958" y="1932.1">Template v.1.0</tspan></text>
<text id="Generated from pencil.circle" fill="black" xml:space="preserve" style="white-space: pre" font-family="Roboto" font-size="12" letter-spacing="0em"><tspan x="2885" y="1950.1">Generated from pencil.circle</tspan></text>
<text id="Typeset at 100 points" fill="black" xml:space="preserve" style="white-space: pre" font-family="Roboto" font-size="12" letter-spacing="0em"><tspan x="2921" y="1968.1">Typeset at 100 points</tspan></text>
<text id="Small" fill="black" xml:space="preserve" style="white-space: pre" font-family="Roboto" font-size="12" letter-spacing="0em"><tspan x="263" y="725.102">Small</tspan></text>
<text id="Medium_2" fill="black" xml:space="preserve" style="white-space: pre" font-family="Roboto" font-size="12" letter-spacing="0em"><tspan x="263" y="1155.1">Medium</tspan></text>
<text id="Large" fill="black" xml:space="preserve" style="white-space: pre" font-family="Roboto" font-size="12" letter-spacing="0em"><tspan x="263" y="1585.1">Large</tspan></text>
</g>
<g id="Guides">
<g id="H-reference">
<path id="Vector_10" d="M393.932 695.998H396.666L369.566 625.539H367.076L339.977 695.998H342.662L351.94 671.535H384.703L393.932 695.998ZM368.199 628.908H368.443L383.824 669.289H352.818L368.199 628.908Z" fill="#27AAE1"/>
</g>
<path id="Baseline-S" d="M263 696H3036" stroke="#27AAE1" stroke-width="0.577"/>
<path id="Capline-S" d="M263 626H3036" stroke="#27AAE1" stroke-width="0.577"/>
<g id="H-reference_2">
<path id="Vector_11" d="M393.932 1126H396.666L369.566 1055.54H367.076L339.977 1126H342.662L351.94 1101.54H384.703L393.932 1126ZM368.199 1058.91H368.443L383.824 1099.29H352.818L368.199 1058.91Z" fill="#27AAE1"/>
</g>
<path id="Baseline-M" d="M263 1126H3036" stroke="#27AAE1" stroke-width="0.577"/>
<path id="Capline-M" d="M263 1056H3036" stroke="#27AAE1" stroke-width="0.577"/>
<g id="H-reference_3">
<path id="Vector_12" d="M393.932 1556H396.666L369.566 1485.54H367.076L339.977 1556H342.662L351.94 1531.54H384.703L393.932 1556ZM368.199 1488.91H368.443L383.824 1529.29H352.818L368.199 1488.91Z" fill="#27AAE1"/>
</g>
<g id="Group 1">
<path id="Baseline-L" d="M263 1556H3036" stroke="#27AAE1" stroke-width="0.577"/>
<path id="Capline-L" d="M263 1486H3036" stroke="#27AAE1" stroke-width="0.577"/>
</g>
<path id="left-margin" opacity="0.4" d="M1430.04 1030.79H1421.3V1150.12H1430.04V1030.79Z" fill="#00AEEF"/>
<path id="right-margin" opacity="0.4" d="M1487.39 1030.79H1478.65V1150.12H1487.39V1030.79Z" fill="#00AEEF"/>
</g>
<g id="Symbols">
<g id="Black-L">
<g id="Outline / Chevron Right Outline">
<path id="Shape" d="M2910.06 1571.66C2908.71 1571.66 2907.44 1571.14 2906.46 1570.09C2904.66 1568.06 2904.81 1564.99 2906.76 1563.19L2954.53 1520.14L2906.46 1478.51C2904.44 1476.71 2904.36 1473.64 2906.16 1471.61C2907.96 1469.66 2911.04 1469.51 2913.06 1471.31L2964.8 1516.24C2967.13 1518.34 2967.13 1521.94 2964.8 1524.04L2913.36 1570.39C2912.39 1571.29 2911.26 1571.66 2910.06 1571.66Z" fill="black"/>
</g>
</g>
<g id="Heavy-L">
<g id="Outline / Chevron Right Outline_2">
<path id="Shape_2" d="M2614.06 1571.66C2612.71 1571.66 2611.44 1571.14 2610.46 1570.09C2608.66 1568.06 2608.81 1564.99 2610.76 1563.19L2658.53 1520.14L2610.46 1478.51C2608.44 1476.71 2608.36 1473.64 2610.16 1471.61C2611.96 1469.66 2615.04 1469.51 2617.06 1471.31L2668.8 1516.24C2671.13 1518.34 2671.13 1521.94 2668.8 1524.04L2617.36 1570.39C2616.39 1571.29 2615.26 1571.66 2614.06 1571.66Z" fill="black"/>
</g>
</g>
<g id="Bold-L">
<g id="Outline / Chevron Right Outline_3">
<path id="Shape_3" d="M2318.06 1571.66C2316.71 1571.66 2315.44 1571.14 2314.46 1570.09C2312.66 1568.06 2312.81 1564.99 2314.76 1563.19L2362.53 1520.14L2314.46 1478.51C2312.44 1476.71 2312.36 1473.64 2314.16 1471.61C2315.96 1469.66 2319.04 1469.51 2321.06 1471.31L2372.8 1516.24C2375.13 1518.34 2375.13 1521.94 2372.8 1524.04L2321.36 1570.39C2320.39 1571.29 2319.26 1571.66 2318.06 1571.66Z" fill="black"/>
</g>
</g>
<g id="Semibold-L">
<g id="Outline / Chevron Right Outline_4">
<path id="Shape_4" d="M2022.06 1571.66C2020.71 1571.66 2019.44 1571.14 2018.46 1570.09C2016.66 1568.06 2016.81 1564.99 2018.76 1563.19L2066.53 1520.14L2018.46 1478.51C2016.44 1476.71 2016.36 1473.64 2018.16 1471.61C2019.96 1469.66 2023.04 1469.51 2025.06 1471.31L2076.8 1516.24C2079.13 1518.34 2079.13 1521.94 2076.8 1524.04L2025.36 1570.39C2024.39 1571.29 2023.26 1571.66 2022.06 1571.66Z" fill="black"/>
</g>
</g>
<g id="Medium-L">
<g id="Outline / Chevron Right Outline_5">
<path id="Shape_5" d="M1726.06 1571.66C1724.71 1571.66 1723.44 1571.14 1722.46 1570.09C1720.66 1568.06 1720.81 1564.99 1722.76 1563.19L1770.53 1520.14L1722.46 1478.51C1720.44 1476.71 1720.36 1473.64 1722.16 1471.61C1723.96 1469.66 1727.04 1469.51 1729.06 1471.31L1780.8 1516.24C1783.13 1518.34 1783.13 1521.94 1780.8 1524.04L1729.36 1570.39C1728.39 1571.29 1727.26 1571.66 1726.06 1571.66Z" fill="black"/>
</g>
</g>
<g id="Regular-L">
<g id="Outline / Chevron Right Outline_6">
<path id="Shape_6" d="M1430.06 1571.66C1428.71 1571.66 1427.44 1571.14 1426.46 1570.09C1424.66 1568.06 1424.81 1564.99 1426.76 1563.19L1474.53 1520.14L1426.46 1478.51C1424.44 1476.71 1424.36 1473.64 1426.16 1471.61C1427.96 1469.66 1431.04 1469.51 1433.06 1471.31L1484.8 1516.24C1487.13 1518.34 1487.13 1521.94 1484.8 1524.04L1433.36 1570.39C1432.39 1571.29 1431.26 1571.66 1430.06 1571.66Z" fill="black"/>
</g>
</g>
<g id="Light-L">
<g id="Outline / Chevron Right Outline_7">
<path id="Shape_7" d="M1134.06 1571.66C1132.71 1571.66 1131.44 1571.14 1130.46 1570.09C1128.66 1568.06 1128.81 1564.99 1130.76 1563.19L1178.53 1520.14L1130.46 1478.51C1128.44 1476.71 1128.36 1473.64 1130.16 1471.61C1131.96 1469.66 1135.04 1469.51 1137.06 1471.31L1188.8 1516.24C1191.13 1518.34 1191.13 1521.94 1188.8 1524.04L1137.36 1570.39C1136.39 1571.29 1135.26 1571.66 1134.06 1571.66Z" fill="black"/>
</g>
</g>
<g id="Thin-L">
<g id="Outline / Chevron Right Outline_8">
<path id="Shape_8" d="M838.061 1571.66C836.711 1571.66 835.436 1571.14 834.461 1570.09C832.661 1568.06 832.811 1564.99 834.761 1563.19L882.53 1520.14L834.461 1478.51C832.436 1476.71 832.361 1473.64 834.161 1471.61C835.961 1469.66 839.036 1469.51 841.061 1471.31L892.805 1516.24C895.13 1518.34 895.13 1521.94 892.805 1524.04L841.361 1570.39C840.386 1571.29 839.261 1571.66 838.061 1571.66Z" fill="black"/>
</g>
</g>
<g id="Ultralight-L">
<g id="Outline / Chevron Right Outline_9">
<path id="Shape_9" d="M542.061 1571.66C540.711 1571.66 539.436 1571.14 538.461 1570.09C536.661 1568.06 536.811 1564.99 538.761 1563.19L586.53 1520.14L538.461 1478.51C536.436 1476.71 536.361 1473.64 538.161 1471.61C539.961 1469.66 543.036 1469.51 545.061 1471.31L596.805 1516.24C599.13 1518.34 599.13 1521.94 596.805 1524.04L545.361 1570.39C544.386 1571.29 543.261 1571.66 542.061 1571.66Z" fill="black"/>
</g>
</g>
<g id="Black-M">
<g id="Outline / Chevron Right Outline_10">
<path id="Shape_10" d="M2914.27 1130.41C2913.22 1130.41 2912.23 1130 2911.47 1129.18C2910.07 1127.61 2910.19 1125.22 2911.7 1123.82L2948.86 1090.33L2911.47 1057.96C2909.89 1056.56 2909.84 1054.16 2911.24 1052.59C2912.64 1051.07 2915.03 1050.96 2916.6 1052.36L2956.85 1087.3C2958.66 1088.93 2958.66 1091.73 2956.85 1093.36L2916.84 1129.42C2916.08 1130.12 2915.2 1130.41 2914.27 1130.41Z" fill="black"/>
</g>
</g>
<g id="Heavy-M">
<g id="Outline / Chevron Right Outline_11">
<path id="Shape_11" d="M2618.27 1130.41C2617.22 1130.41 2616.23 1130 2615.47 1129.18C2614.07 1127.61 2614.19 1125.22 2615.7 1123.82L2652.86 1090.33L2615.47 1057.96C2613.89 1056.56 2613.84 1054.16 2615.24 1052.59C2616.64 1051.07 2619.03 1050.96 2620.6 1052.36L2660.85 1087.3C2662.66 1088.93 2662.66 1091.73 2660.85 1093.36L2620.84 1129.42C2620.08 1130.12 2619.2 1130.41 2618.27 1130.41Z" fill="black"/>
</g>
</g>
<g id="Bold-M">
<g id="Outline / Chevron Right Outline_12">
<path id="Shape_12" d="M2322.27 1130.41C2321.22 1130.41 2320.23 1130 2319.47 1129.18C2318.07 1127.61 2318.19 1125.22 2319.7 1123.82L2356.86 1090.33L2319.47 1057.96C2317.89 1056.56 2317.84 1054.16 2319.24 1052.59C2320.64 1051.07 2323.03 1050.96 2324.6 1052.36L2364.85 1087.3C2366.66 1088.93 2366.66 1091.73 2364.85 1093.36L2324.84 1129.42C2324.08 1130.12 2323.2 1130.41 2322.27 1130.41Z" fill="black"/>
</g>
</g>
<g id="Semibold-M">
<g id="Outline / Chevron Right Outline_13">
<path id="Shape_13" d="M2026.27 1130.41C2025.22 1130.41 2024.23 1130 2023.47 1129.18C2022.07 1127.61 2022.19 1125.22 2023.7 1123.82L2060.86 1090.33L2023.47 1057.96C2021.89 1056.56 2021.84 1054.16 2023.24 1052.59C2024.64 1051.07 2027.03 1050.96 2028.6 1052.36L2068.85 1087.3C2070.66 1088.93 2070.66 1091.73 2068.85 1093.36L2028.84 1129.42C2028.08 1130.12 2027.2 1130.41 2026.27 1130.41Z" fill="black"/>
</g>
</g>
<g id="Medium-M">
<g id="Outline / Chevron Right Outline_14">
<path id="Shape_14" d="M1730.27 1130.41C1729.22 1130.41 1728.23 1130 1727.47 1129.18C1726.07 1127.61 1726.19 1125.22 1727.7 1123.82L1764.86 1090.33L1727.47 1057.96C1725.89 1056.56 1725.84 1054.16 1727.24 1052.59C1728.64 1051.07 1731.03 1050.96 1732.6 1052.36L1772.85 1087.3C1774.66 1088.93 1774.66 1091.73 1772.85 1093.36L1732.84 1129.42C1732.08 1130.12 1731.2 1130.41 1730.27 1130.41Z" fill="black"/>
</g>
</g>
<g id="Regular-M">
<g id="Outline / Chevron Right Outline_15">
<path id="Shape_15" d="M1434.27 1130.41C1433.22 1130.41 1432.23 1130 1431.47 1129.18C1430.07 1127.61 1430.19 1125.22 1431.7 1123.82L1468.86 1090.33L1431.47 1057.96C1429.89 1056.56 1429.84 1054.16 1431.24 1052.59C1432.64 1051.07 1435.03 1050.96 1436.6 1052.36L1476.85 1087.3C1478.66 1088.93 1478.66 1091.73 1476.85 1093.36L1436.84 1129.42C1436.08 1130.12 1435.2 1130.41 1434.27 1130.41Z" fill="black"/>
</g>
</g>
<g id="Light-M">
<g id="Outline / Chevron Right Outline_16">
<path id="Shape_16" d="M1138.27 1130.41C1137.22 1130.41 1136.23 1130 1135.47 1129.18C1134.07 1127.61 1134.19 1125.22 1135.7 1123.82L1172.86 1090.33L1135.47 1057.96C1133.89 1056.56 1133.84 1054.16 1135.24 1052.59C1136.64 1051.07 1139.03 1050.96 1140.6 1052.36L1180.85 1087.3C1182.66 1088.93 1182.66 1091.73 1180.85 1093.36L1140.84 1129.42C1140.08 1130.12 1139.2 1130.41 1138.27 1130.41Z" fill="black"/>
</g>
</g>
<g id="Thin-M">
<g id="Outline / Chevron Right Outline_17">
<path id="Shape_17" d="M842.27 1130.41C841.22 1130.41 840.228 1130 839.47 1129.18C838.07 1127.61 838.186 1125.22 839.703 1123.82L876.856 1090.33L839.469 1057.96C837.894 1056.56 837.836 1054.16 839.236 1052.59C840.636 1051.07 843.028 1050.96 844.603 1052.36L884.848 1087.3C886.656 1088.93 886.656 1091.73 884.848 1093.36L844.836 1129.42C844.078 1130.12 843.203 1130.41 842.27 1130.41Z" fill="black"/>
</g>
</g>
<g id="Ultralight-M">
<g id="Outline / Chevron Right Outline_18">
<path id="Shape_18" d="M546.27 1130.41C545.22 1130.41 544.228 1130 543.47 1129.18C542.07 1127.61 542.186 1125.22 543.703 1123.82L580.856 1090.33L543.469 1057.96C541.894 1056.56 541.836 1054.16 543.236 1052.59C544.636 1051.07 547.028 1050.96 548.603 1052.36L588.848 1087.3C590.656 1088.93 590.656 1091.73 588.848 1093.36L548.836 1129.42C548.078 1130.12 547.203 1130.41 546.27 1130.41Z" fill="black"/>
</g>
</g>
<g id="Black-S">
<g id="Outline / Chevron Right Outline_19">
<path id="Shape_19" d="M2918.48 689.147C2917.73 689.147 2917.02 688.856 2916.48 688.272C2915.48 687.147 2915.56 685.439 2916.65 684.439L2943.18 660.521L2916.48 637.396C2915.35 636.396 2915.31 634.688 2916.31 633.563C2917.31 632.479 2919.02 632.396 2920.15 633.396L2948.89 658.354C2950.18 659.521 2950.18 661.521 2948.89 662.688L2920.31 688.439C2919.77 688.939 2919.15 689.147 2918.48 689.147Z" fill="black"/>
</g>
</g>
<g id="Heavy-S">
<g id="Outline / Chevron Right Outline_20">
<path id="Shape_20" d="M2622.48 689.147C2621.73 689.147 2621.02 688.856 2620.48 688.272C2619.48 687.147 2619.56 685.439 2620.65 684.439L2647.18 660.521L2620.48 637.396C2619.35 636.396 2619.31 634.688 2620.31 633.563C2621.31 632.479 2623.02 632.396 2624.15 633.396L2652.89 658.354C2654.18 659.521 2654.18 661.521 2652.89 662.688L2624.31 688.439C2623.77 688.939 2623.15 689.147 2622.48 689.147Z" fill="black"/>
</g>
</g>
<g id="Bold-S">
<g id="Outline / Chevron Right Outline_21">
<path id="Shape_21" d="M2326.48 689.147C2325.73 689.147 2325.02 688.856 2324.48 688.272C2323.48 687.147 2323.56 685.439 2324.65 684.439L2351.18 660.521L2324.48 637.396C2323.35 636.396 2323.31 634.688 2324.31 633.563C2325.31 632.479 2327.02 632.396 2328.15 633.396L2356.89 658.354C2358.18 659.521 2358.18 661.521 2356.89 662.688L2328.31 688.439C2327.77 688.939 2327.15 689.147 2326.48 689.147Z" fill="black"/>
</g>
</g>
<g id="Semibold-S">
<g id="Outline / Chevron Right Outline_22">
<path id="Shape_22" d="M2030.48 689.147C2029.73 689.147 2029.02 688.856 2028.48 688.272C2027.48 687.147 2027.56 685.439 2028.65 684.439L2055.18 660.521L2028.48 637.396C2027.35 636.396 2027.31 634.688 2028.31 633.563C2029.31 632.479 2031.02 632.396 2032.15 633.396L2060.89 658.354C2062.18 659.521 2062.18 661.521 2060.89 662.688L2032.31 688.439C2031.77 688.939 2031.15 689.147 2030.48 689.147Z" fill="black"/>
</g>
</g>
<g id="Medium-S">
<g id="Outline / Chevron Right Outline_23">
<path id="Shape_23" d="M1734.48 689.147C1733.73 689.147 1733.02 688.856 1732.48 688.272C1731.48 687.147 1731.56 685.439 1732.65 684.439L1759.18 660.521L1732.48 637.396C1731.35 636.396 1731.31 634.688 1732.31 633.563C1733.31 632.479 1735.02 632.396 1736.15 633.396L1764.89 658.354C1766.18 659.521 1766.18 661.521 1764.89 662.688L1736.31 688.439C1735.77 688.939 1735.15 689.147 1734.48 689.147Z" fill="black"/>
</g>
</g>
<g id="Regular-S">
<g id="Outline / Chevron Right Outline_24">
<path id="Shape_24" d="M1438.48 689.147C1437.73 689.147 1437.02 688.856 1436.48 688.272C1435.48 687.147 1435.56 685.439 1436.65 684.439L1463.18 660.521L1436.48 637.396C1435.35 636.396 1435.31 634.688 1436.31 633.563C1437.31 632.479 1439.02 632.396 1440.15 633.396L1468.89 658.354C1470.18 659.521 1470.18 661.521 1468.89 662.688L1440.31 688.439C1439.77 688.939 1439.15 689.147 1438.48 689.147Z" fill="black"/>
</g>
</g>
<g id="Light-S">
<g id="Outline / Chevron Right Outline_25">
<path id="Shape_25" d="M1142.48 689.147C1141.73 689.147 1141.02 688.856 1140.48 688.272C1139.48 687.147 1139.56 685.439 1140.65 684.439L1167.18 660.521L1140.48 637.396C1139.35 636.396 1139.31 634.688 1140.31 633.563C1141.31 632.479 1143.02 632.396 1144.15 633.396L1172.89 658.354C1174.18 659.521 1174.18 661.521 1172.89 662.688L1144.31 688.439C1143.77 688.939 1143.15 689.147 1142.48 689.147Z" fill="black"/>
</g>
</g>
<g id="Thin-S">
<g id="Outline / Chevron Right Outline_26">
<path id="Shape_26" d="M846.48 689.147C845.73 689.147 845.022 688.856 844.48 688.272C843.48 687.147 843.563 685.439 844.647 684.439L871.185 660.521L844.48 637.396C843.355 636.396 843.313 634.688 844.313 633.563C845.313 632.479 847.021 632.396 848.146 633.396L876.893 658.354C878.185 659.521 878.185 661.521 876.893 662.688L848.313 688.439C847.772 688.939 847.147 689.147 846.48 689.147Z" fill="black"/>
</g>
</g>
<g id="Ultralight-S">
<g id="Outline / Chevron Right Outline_27">
<path id="Shape_27" d="M550.48 689.147C549.73 689.147 549.022 688.856 548.48 688.272C547.48 687.147 547.563 685.439 548.647 684.439L575.185 660.521L548.48 637.396C547.355 636.396 547.313 634.688 548.313 633.563C549.313 632.479 551.021 632.396 552.146 633.396L580.893 658.354C582.185 659.521 582.185 661.521 580.893 662.688L552.313 688.439C551.772 688.939 551.147 689.147 550.48 689.147Z" fill="black"/>
</g>
</g>
</g>
</g>
<defs>
<clipPath id="clip0_805_27002">
<rect width="3300" height="2200" fill="white"/>
</clipPath>
</defs>
</svg>
