<svg width="3300" height="2200" viewBox="0 0 3300 2200" fill="none" xmlns="http://www.w3.org/2000/svg">
<rect width="3300" height="2200" fill="#E5E5E5"/>
<g id="System / Outline / Calculate" clip-path="url(#clip0_805_27002)">
<g id="Notes">
<path id="artboard" d="M3300 0H0V2200H3300V0Z" fill="white"/>
<path id="Vector" d="M263 292H3036" stroke="black" stroke-width="0.5"/>
<text id="Weight/Scale Variations" fill="black" xml:space="preserve" style="white-space: pre" font-family="Roboto" font-size="12" letter-spacing="0em"><tspan x="263" y="321.102">Weight/Scale Variations</tspan></text>
<text id="Ultralight" fill="black" xml:space="preserve" style="white-space: pre" font-family="Roboto" font-size="12" letter-spacing="0em"><tspan x="535.211" y="321.102">Ultralight</tspan></text>
<text id="Thin" fill="black" xml:space="preserve" style="white-space: pre" font-family="Roboto" font-size="12" letter-spacing="0em"><tspan x="844.422" y="321.102">Thin</tspan></text>
<text id="Light" fill="black" xml:space="preserve" style="white-space: pre" font-family="Roboto" font-size="12" letter-spacing="0em"><tspan x="1139.63" y="321.102">Light</tspan></text>
<text id="Regular" fill="black" xml:space="preserve" style="white-space: pre" font-family="Roboto" font-size="12" letter-spacing="0em"><tspan x="1429.34" y="321.102">Regular</tspan></text>
<text id="Medium" fill="black" xml:space="preserve" style="white-space: pre" font-family="Roboto" font-size="12" letter-spacing="0em"><tspan x="1724.56" y="321.102">Medium</tspan></text>
<text id="Semibold" fill="black" xml:space="preserve" style="white-space: pre" font-family="Roboto" font-size="12" letter-spacing="0em"><tspan x="2017.77" y="321.102">Semibold</tspan></text>
<text id="Bold" fill="black" xml:space="preserve" style="white-space: pre" font-family="Roboto" font-size="12" letter-spacing="0em"><tspan x="2327.48" y="321.102">Bold</tspan></text>
<text id="Heavy" fill="black" xml:space="preserve" style="white-space: pre" font-family="Roboto" font-size="12" letter-spacing="0em"><tspan x="2620.19" y="321.102">Heavy</tspan></text>
<text id="Black" fill="black" xml:space="preserve" style="white-space: pre" font-family="Roboto" font-size="12" letter-spacing="0em"><tspan x="2918.4" y="321.102">Black</tspan></text>
<path id="Vector_2" d="M263 1903H3036" stroke="black" stroke-width="0.5"/>
<g id="Group">
<path id="Vector_3" d="M272.248 1933.83C276.555 1933.83 280.139 1930.26 280.139 1925.95C280.139 1921.64 276.545 1918.07 272.238 1918.07C267.941 1918.07 264.367 1921.64 264.367 1925.95C264.367 1930.26 267.951 1933.83 272.248 1933.83ZM272.248 1932.35C268.703 1932.35 265.871 1929.51 265.871 1925.95C265.871 1922.4 268.693 1919.55 272.238 1919.55C275.793 1919.55 278.635 1922.4 278.644 1925.95C278.654 1929.51 275.803 1932.35 272.248 1932.35ZM272.229 1929.57C272.697 1929.57 272.971 1929.26 272.971 1928.74V1926.68H275.197C275.695 1926.68 276.037 1926.43 276.037 1925.96C276.037 1925.48 275.715 1925.22 275.197 1925.22H272.971V1922.99C272.971 1922.47 272.697 1922.15 272.229 1922.15C271.76 1922.15 271.506 1922.49 271.506 1922.99V1925.22H269.299C268.781 1925.22 268.449 1925.48 268.449 1925.96C268.449 1926.43 268.801 1926.68 269.299 1926.68H271.506V1928.74C271.506 1929.24 271.76 1929.57 272.229 1929.57Z" fill="black"/>
</g>
<g id="Group_2">
<path id="Vector_4" d="M293.215 1935.91C298.664 1935.91 303.176 1931.4 303.176 1925.95C303.176 1920.51 298.654 1915.99 293.205 1915.99C287.766 1915.99 283.254 1920.51 283.254 1925.95C283.254 1931.4 287.775 1935.91 293.215 1935.91ZM293.215 1934.25C288.605 1934.25 284.924 1930.56 284.924 1925.95C284.924 1921.35 288.596 1917.65 293.205 1917.65C297.814 1917.65 301.506 1921.35 301.516 1925.95C301.525 1930.56 297.824 1934.25 293.215 1934.25ZM293.195 1930.59C293.713 1930.59 294.025 1930.23 294.025 1929.66V1926.77H297.082C297.629 1926.77 298.01 1926.49 298.01 1925.97C298.01 1925.44 297.648 1925.14 297.082 1925.14H294.025V1922.07C294.025 1921.5 293.713 1921.14 293.195 1921.14C292.678 1921.14 292.385 1921.52 292.385 1922.07V1925.14H289.338C288.771 1925.14 288.4 1925.44 288.4 1925.97C288.4 1926.49 288.791 1926.77 289.338 1926.77H292.385V1929.66C292.385 1930.21 292.678 1930.59 293.195 1930.59Z" fill="black"/>
</g>
<g id="Group_3">
<path id="Vector_5" d="M319.895 1938.67C326.857 1938.67 332.619 1932.92 332.619 1925.96C332.619 1918.99 326.848 1913.24 319.885 1913.24C312.932 1913.24 307.18 1918.99 307.18 1925.96C307.18 1932.92 312.941 1938.67 319.895 1938.67ZM319.895 1936.86C313.859 1936.86 309.006 1931.99 309.006 1925.96C309.006 1919.92 313.85 1915.06 319.885 1915.06C325.93 1915.06 330.783 1919.92 330.793 1925.96C330.803 1931.99 325.939 1936.86 319.895 1936.86ZM319.875 1931.93C320.441 1931.93 320.793 1931.54 320.793 1930.94V1926.87H325.031C325.617 1926.87 326.037 1926.53 326.037 1925.98C326.037 1925.4 325.647 1925.06 325.031 1925.06H320.793V1920.81C320.793 1920.2 320.441 1919.8 319.875 1919.8C319.309 1919.8 318.986 1920.21 318.986 1920.81V1925.06H314.758C314.143 1925.06 313.732 1925.4 313.732 1925.98C313.732 1926.53 314.162 1926.87 314.758 1926.87H318.986V1930.94C318.986 1931.52 319.309 1931.93 319.875 1931.93Z" fill="black"/>
</g>
<text id="Design Variations" fill="black" xml:space="preserve" style="white-space: pre" font-family="Roboto" font-size="12" letter-spacing="0em"><tspan x="263" y="1952.1">Design Variations</tspan></text>
<text id="Symbols are supported in up to nine weights and three scales." fill="black" xml:space="preserve" style="white-space: pre" font-family="Roboto" font-size="12" letter-spacing="0em"><tspan x="263" y="1970.1">Symbols are supported in up to nine weights and three scales.</tspan></text>
<text id="For optimal layout with text and other symbols, vertically align" fill="black" xml:space="preserve" style="white-space: pre" font-family="Roboto" font-size="12" letter-spacing="0em"><tspan x="263" y="1988.1">For optimal layout with text and other symbols, vertically align</tspan></text>
<text id="symbols with the adjacent text." fill="black" xml:space="preserve" style="white-space: pre" font-family="Roboto" font-size="12" letter-spacing="0em"><tspan x="263" y="2006.1">symbols with the adjacent text.</tspan></text>
<path id="Vector_6" opacity="0.4" d="M779 1919H776V1933H779V1919Z" fill="#00AEEF"/>
<g id="Group_4">
<path id="Vector_7" d="M789.525 1933H791.371L786.176 1918.91H784.437L779.242 1933H781.088L782.504 1928.96H788.109L789.525 1933ZM785.277 1921.04H785.336L787.592 1927.47H783.021L785.277 1921.04Z" fill="black"/>
</g>
<path id="Vector_8" opacity="0.4" d="M794.617 1919H791.617V1933H794.617V1919Z" fill="#00AEEF"/>
<text id="Margins" fill="black" xml:space="preserve" style="white-space: pre" font-family="Roboto" font-size="12" letter-spacing="0em"><tspan x="776" y="1952.1">Margins</tspan></text>
<text id="Leading and trailing margins on the left and right side of each symbol" fill="black" xml:space="preserve" style="white-space: pre" font-family="Roboto" font-size="12" letter-spacing="0em"><tspan x="776" y="1970.1">Leading and trailing margins on the left and right side of each symbol</tspan></text>
<text id="can be adjusted by modifying the width of the blue rectangles." fill="black" xml:space="preserve" style="white-space: pre" font-family="Roboto" font-size="12" letter-spacing="0em"><tspan x="776" y="1988.1">can be adjusted by modifying the width of the blue rectangles.</tspan></text>
<text id="Modifications are automatically applied proportionally to all" fill="black" xml:space="preserve" style="white-space: pre" font-family="Roboto" font-size="12" letter-spacing="0em"><tspan x="776" y="2006.1">Modifications are automatically applied proportionally to all</tspan></text>
<text id="scales and weights." fill="black" xml:space="preserve" style="white-space: pre" font-family="Roboto" font-size="12" letter-spacing="0em"><tspan x="776" y="2024.1">scales and weights.</tspan></text>
<g id="Group_5">
<path id="Vector_9" d="M1291.83 1936.11L1293.37 1937.66C1294.22 1938.49 1295.19 1938.42 1296.06 1937.46L1306.27 1926.34C1306.7 1926.63 1307.1 1926.62 1307.56 1926.52L1308.61 1926.31L1309.3 1927L1309.25 1927.52C1309.19 1928.05 1309.35 1928.47 1309.85 1928.97L1310.66 1929.78C1311.17 1930.28 1311.82 1930.31 1312.3 1929.83L1315.55 1926.58C1316.03 1926.1 1316.01 1925.45 1315.5 1924.94L1314.68 1924.12C1314.19 1923.62 1313.77 1923.45 1313.24 1923.53L1312.71 1923.58L1312.06 1922.92L1312.34 1921.78C1312.49 1921.21 1312.34 1920.74 1311.71 1920.14L1309.3 1917.75C1305.76 1914.22 1301.23 1914.33 1298.11 1917.46C1297.69 1917.89 1297.64 1918.48 1297.92 1918.91C1298.15 1919.28 1298.63 1919.5 1299.27 1919.34C1300.79 1918.96 1302.3 1919.07 1303.78 1920.08L1303.16 1921.66C1302.93 1922.25 1302.94 1922.73 1303.18 1923.16L1292.02 1933.44C1291.08 1934.31 1290.97 1935.25 1291.83 1936.11ZM1299.67 1917.85C1302.34 1915.86 1305.65 1916.17 1308.05 1918.58L1310.68 1921.19C1310.91 1921.43 1310.94 1921.61 1310.88 1921.91L1310.5 1923.47L1312.08 1925.04L1313.04 1924.95C1313.33 1924.92 1313.41 1924.94 1313.64 1925.17L1314.26 1925.79L1311.51 1928.54L1310.88 1927.92C1310.66 1927.7 1310.64 1927.6 1310.67 1927.32L1310.76 1926.36L1309.19 1924.8L1307.57 1925.11C1307.29 1925.17 1307.14 1925.17 1306.91 1924.92L1304.73 1922.75C1304.51 1922.51 1304.48 1922.37 1304.61 1922.05L1305.55 1919.78C1303.95 1918.24 1301.84 1917.39 1299.8 1918.05C1299.71 1918.08 1299.64 1918.06 1299.61 1918.02C1299.59 1917.97 1299.59 1917.92 1299.67 1917.85ZM1293.1 1935.41C1292.61 1934.91 1292.79 1934.61 1293.12 1934.31L1304.08 1924.19L1305.31 1925.42L1295.15 1936.35C1294.85 1936.68 1294.47 1936.78 1294.07 1936.38L1293.1 1935.41Z" fill="black"/>
</g>
<text id="Exporting" fill="black" xml:space="preserve" style="white-space: pre" font-family="Roboto" font-size="12" letter-spacing="0em"><tspan x="1289" y="1952.1">Exporting</tspan></text>
<text id="Symbols should be outlined when exporting to ensure the" fill="black" xml:space="preserve" style="white-space: pre" font-family="Roboto" font-size="12" letter-spacing="0em"><tspan x="1289" y="1970.1">Symbols should be outlined when exporting to ensure the</tspan></text>
<text id="design is preserved when submitting to Xcode." fill="black" xml:space="preserve" style="white-space: pre" font-family="Roboto" font-size="12" letter-spacing="0em"><tspan x="1289" y="1988.1">design is preserved when submitting to Xcode.</tspan></text>
<text id="template-version" fill="black" xml:space="preserve" style="white-space: pre" font-family="Roboto" font-size="12" letter-spacing="0em"><tspan x="2958" y="1932.1">Template v.1.0</tspan></text>
<text id="Generated from pencil.circle" fill="black" xml:space="preserve" style="white-space: pre" font-family="Roboto" font-size="12" letter-spacing="0em"><tspan x="2885" y="1950.1">Generated from pencil.circle</tspan></text>
<text id="Typeset at 100 points" fill="black" xml:space="preserve" style="white-space: pre" font-family="Roboto" font-size="12" letter-spacing="0em"><tspan x="2921" y="1968.1">Typeset at 100 points</tspan></text>
<text id="Small" fill="black" xml:space="preserve" style="white-space: pre" font-family="Roboto" font-size="12" letter-spacing="0em"><tspan x="263" y="725.102">Small</tspan></text>
<text id="Medium_2" fill="black" xml:space="preserve" style="white-space: pre" font-family="Roboto" font-size="12" letter-spacing="0em"><tspan x="263" y="1155.1">Medium</tspan></text>
<text id="Large" fill="black" xml:space="preserve" style="white-space: pre" font-family="Roboto" font-size="12" letter-spacing="0em"><tspan x="263" y="1585.1">Large</tspan></text>
</g>
<g id="Guides">
<g id="H-reference">
<path id="Vector_10" d="M393.932 695.998H396.666L369.566 625.539H367.076L339.977 695.998H342.662L351.94 671.535H384.703L393.932 695.998ZM368.199 628.908H368.443L383.824 669.289H352.818L368.199 628.908Z" fill="#27AAE1"/>
</g>
<path id="Baseline-S" d="M263 696H3036" stroke="#27AAE1" stroke-width="0.577"/>
<path id="Capline-S" d="M263 626H3036" stroke="#27AAE1" stroke-width="0.577"/>
<g id="H-reference_2">
<path id="Vector_11" d="M393.932 1126H396.666L369.566 1055.54H367.076L339.977 1126H342.662L351.94 1101.54H384.703L393.932 1126ZM368.199 1058.91H368.443L383.824 1099.29H352.818L368.199 1058.91Z" fill="#27AAE1"/>
</g>
<path id="Baseline-M" d="M263 1126H3036" stroke="#27AAE1" stroke-width="0.577"/>
<path id="Capline-M" d="M263 1056H3036" stroke="#27AAE1" stroke-width="0.577"/>
<g id="H-reference_3">
<path id="Vector_12" d="M393.932 1556H396.666L369.566 1485.54H367.076L339.977 1556H342.662L351.94 1531.54H384.703L393.932 1556ZM368.199 1488.91H368.443L383.824 1529.29H352.818L368.199 1488.91Z" fill="#27AAE1"/>
</g>
<g id="Group 1">
<path id="Baseline-L" d="M263 1556H3036" stroke="#27AAE1" stroke-width="0.577"/>
<path id="Capline-L" d="M263 1486H3036" stroke="#27AAE1" stroke-width="0.577"/>
</g>
<path id="left-margin" opacity="0.4" d="M1396.04 1030.79H1387.3V1150.12H1396.04V1030.79Z" fill="#00AEEF"/>
<path id="right-margin" opacity="0.4" d="M1510.39 1030.79H1501.65V1150.12H1510.39V1030.79Z" fill="#00AEEF"/>
</g>
<g id="Symbols">
<g id="Black-L">
<g id="Outline / Calculate Outline">
<g id="Shape">
<path d="M2898.02 1507.38C2895.33 1507.38 2893.15 1505.2 2893.15 1502.51V1496.13H2886.77C2884.08 1496.13 2881.9 1493.95 2881.9 1491.26C2881.9 1488.56 2884.08 1486.38 2886.77 1486.38H2893.15V1480.01C2893.15 1477.32 2895.33 1475.13 2898.02 1475.13C2900.71 1475.13 2902.9 1477.32 2902.9 1480.01V1486.38H2909.27C2911.96 1486.38 2914.15 1488.56 2914.15 1491.26C2914.15 1493.95 2911.96 1496.13 2909.27 1496.13H2902.9V1502.51C2902.9 1505.2 2900.71 1507.38 2898.02 1507.38Z" fill="black"/>
<path d="M2909.42 1563.57C2907.52 1565.48 2904.43 1565.48 2902.53 1563.57L2898.02 1559.07L2893.51 1563.57C2891.61 1565.48 2888.52 1565.48 2886.62 1563.57C2884.71 1561.67 2884.71 1558.58 2886.62 1556.68L2891.13 1552.17L2886.62 1547.66C2884.71 1545.76 2884.71 1542.67 2886.62 1540.77C2888.52 1538.87 2891.61 1538.87 2893.51 1540.77L2898.02 1545.28L2902.53 1540.77C2904.43 1538.87 2907.52 1538.87 2909.42 1540.77C2911.33 1542.67 2911.33 1545.76 2909.42 1547.66L2904.91 1552.17L2909.42 1556.68C2911.33 1558.58 2911.33 1561.67 2909.42 1563.57Z" fill="black"/>
<path d="M2953.42 1539.41C2950.73 1539.41 2948.55 1541.59 2948.55 1544.28C2948.55 1546.98 2950.73 1549.16 2953.42 1549.16H2968.42C2971.11 1549.16 2973.3 1546.98 2973.3 1544.28C2973.3 1541.59 2971.11 1539.41 2968.42 1539.41H2953.42Z" fill="black"/>
<path d="M2948.55 1559.55C2948.55 1556.86 2950.73 1554.68 2953.42 1554.68H2968.42C2971.11 1554.68 2973.3 1556.86 2973.3 1559.55C2973.3 1562.25 2971.11 1564.43 2968.42 1564.43H2953.42C2950.73 1564.43 2948.55 1562.25 2948.55 1559.55Z" fill="black"/>
<path d="M2948.55 1491.26C2948.55 1488.56 2950.73 1486.38 2953.42 1486.38H2968.42C2971.11 1486.38 2973.3 1488.56 2973.3 1491.26C2973.3 1493.95 2971.11 1496.13 2968.42 1496.13H2953.42C2950.73 1496.13 2948.55 1493.95 2948.55 1491.26Z" fill="black"/>
<path fill-rule="evenodd" clip-rule="evenodd" d="M2974 1588.5C2986.43 1588.5 2996.5 1578.43 2996.5 1566V1476C2996.5 1463.57 2986.43 1453.5 2974 1453.5H2884C2872.35 1453.5 2862.77 1462.35 2861.62 1473.7C2861.54 1474.46 2861.5 1475.22 2861.5 1476V1566C2861.5 1578.43 2871.57 1588.5 2884 1588.5H2974ZM2871.25 1476C2871.25 1468.96 2876.96 1463.25 2884 1463.25L2924.14 1463.25V1516.1H2871.25V1476ZM2871.25 1525.85V1566C2871.25 1573.04 2876.96 1578.75 2884 1578.75H2924.14V1525.85H2871.25ZM2933.89 1578.75H2974C2981.04 1578.75 2986.75 1573.04 2986.75 1566V1525.85H2933.89V1578.75ZM2986.75 1516.1V1476C2986.75 1468.96 2981.04 1463.25 2974 1463.25H2933.89V1516.1H2986.75Z" fill="black"/>
</g>
</g>
</g>
<g id="Heavy-L">
<g id="Outline / Calculate Outline_2">
<g id="Shape_2">
<path d="M2602.02 1507.38C2599.33 1507.38 2597.15 1505.2 2597.15 1502.51V1496.13H2590.77C2588.08 1496.13 2585.9 1493.95 2585.9 1491.26C2585.9 1488.56 2588.08 1486.38 2590.77 1486.38H2597.15V1480.01C2597.15 1477.32 2599.33 1475.13 2602.02 1475.13C2604.71 1475.13 2606.9 1477.32 2606.9 1480.01V1486.38H2613.27C2615.96 1486.38 2618.15 1488.56 2618.15 1491.26C2618.15 1493.95 2615.96 1496.13 2613.27 1496.13H2606.9V1502.51C2606.9 1505.2 2604.71 1507.38 2602.02 1507.38Z" fill="black"/>
<path d="M2613.42 1563.57C2611.52 1565.48 2608.43 1565.48 2606.53 1563.57L2602.02 1559.07L2597.51 1563.57C2595.61 1565.48 2592.52 1565.48 2590.62 1563.57C2588.71 1561.67 2588.71 1558.58 2590.62 1556.68L2595.13 1552.17L2590.62 1547.66C2588.71 1545.76 2588.71 1542.67 2590.62 1540.77C2592.52 1538.87 2595.61 1538.87 2597.51 1540.77L2602.02 1545.28L2606.53 1540.77C2608.43 1538.87 2611.52 1538.87 2613.42 1540.77C2615.33 1542.67 2615.33 1545.76 2613.42 1547.66L2608.91 1552.17L2613.42 1556.68C2615.33 1558.58 2615.33 1561.67 2613.42 1563.57Z" fill="black"/>
<path d="M2657.42 1539.41C2654.73 1539.41 2652.55 1541.59 2652.55 1544.28C2652.55 1546.98 2654.73 1549.16 2657.42 1549.16H2672.42C2675.11 1549.16 2677.3 1546.98 2677.3 1544.28C2677.3 1541.59 2675.11 1539.41 2672.42 1539.41H2657.42Z" fill="black"/>
<path d="M2652.55 1559.55C2652.55 1556.86 2654.73 1554.68 2657.42 1554.68H2672.42C2675.11 1554.68 2677.3 1556.86 2677.3 1559.55C2677.3 1562.25 2675.11 1564.43 2672.42 1564.43H2657.42C2654.73 1564.43 2652.55 1562.25 2652.55 1559.55Z" fill="black"/>
<path d="M2652.55 1491.26C2652.55 1488.56 2654.73 1486.38 2657.42 1486.38H2672.42C2675.11 1486.38 2677.3 1488.56 2677.3 1491.26C2677.3 1493.95 2675.11 1496.13 2672.42 1496.13H2657.42C2654.73 1496.13 2652.55 1493.95 2652.55 1491.26Z" fill="black"/>
<path fill-rule="evenodd" clip-rule="evenodd" d="M2678 1588.5C2690.43 1588.5 2700.5 1578.43 2700.5 1566V1476C2700.5 1463.57 2690.43 1453.5 2678 1453.5H2588C2576.35 1453.5 2566.77 1462.35 2565.62 1473.7C2565.54 1474.46 2565.5 1475.22 2565.5 1476V1566C2565.5 1578.43 2575.57 1588.5 2588 1588.5H2678ZM2575.25 1476C2575.25 1468.96 2580.96 1463.25 2588 1463.25L2628.14 1463.25V1516.1H2575.25V1476ZM2575.25 1525.85V1566C2575.25 1573.04 2580.96 1578.75 2588 1578.75H2628.14V1525.85H2575.25ZM2637.89 1578.75H2678C2685.04 1578.75 2690.75 1573.04 2690.75 1566V1525.85H2637.89V1578.75ZM2690.75 1516.1V1476C2690.75 1468.96 2685.04 1463.25 2678 1463.25H2637.89V1516.1H2690.75Z" fill="black"/>
</g>
</g>
</g>
<g id="Bold-L">
<g id="Outline / Calculate Outline_3">
<g id="Shape_3">
<path d="M2306.02 1507.38C2303.33 1507.38 2301.15 1505.2 2301.15 1502.51V1496.13H2294.77C2292.08 1496.13 2289.9 1493.95 2289.9 1491.26C2289.9 1488.56 2292.08 1486.38 2294.77 1486.38H2301.15V1480.01C2301.15 1477.32 2303.33 1475.13 2306.02 1475.13C2308.71 1475.13 2310.9 1477.32 2310.9 1480.01V1486.38H2317.27C2319.96 1486.38 2322.15 1488.56 2322.15 1491.26C2322.15 1493.95 2319.96 1496.13 2317.27 1496.13H2310.9V1502.51C2310.9 1505.2 2308.71 1507.38 2306.02 1507.38Z" fill="black"/>
<path d="M2317.42 1563.57C2315.52 1565.48 2312.43 1565.48 2310.53 1563.57L2306.02 1559.07L2301.51 1563.57C2299.61 1565.48 2296.52 1565.48 2294.62 1563.57C2292.71 1561.67 2292.71 1558.58 2294.62 1556.68L2299.13 1552.17L2294.62 1547.66C2292.71 1545.76 2292.71 1542.67 2294.62 1540.77C2296.52 1538.87 2299.61 1538.87 2301.51 1540.77L2306.02 1545.28L2310.53 1540.77C2312.43 1538.87 2315.52 1538.87 2317.42 1540.77C2319.33 1542.67 2319.33 1545.76 2317.42 1547.66L2312.91 1552.17L2317.42 1556.68C2319.33 1558.58 2319.33 1561.67 2317.42 1563.57Z" fill="black"/>
<path d="M2361.42 1539.41C2358.73 1539.41 2356.55 1541.59 2356.55 1544.28C2356.55 1546.98 2358.73 1549.16 2361.42 1549.16H2376.42C2379.11 1549.16 2381.3 1546.98 2381.3 1544.28C2381.3 1541.59 2379.11 1539.41 2376.42 1539.41H2361.42Z" fill="black"/>
<path d="M2356.55 1559.55C2356.55 1556.86 2358.73 1554.68 2361.42 1554.68H2376.42C2379.11 1554.68 2381.3 1556.86 2381.3 1559.55C2381.3 1562.25 2379.11 1564.43 2376.42 1564.43H2361.42C2358.73 1564.43 2356.55 1562.25 2356.55 1559.55Z" fill="black"/>
<path d="M2356.55 1491.26C2356.55 1488.56 2358.73 1486.38 2361.42 1486.38H2376.42C2379.11 1486.38 2381.3 1488.56 2381.3 1491.26C2381.3 1493.95 2379.11 1496.13 2376.42 1496.13H2361.42C2358.73 1496.13 2356.55 1493.95 2356.55 1491.26Z" fill="black"/>
<path fill-rule="evenodd" clip-rule="evenodd" d="M2382 1588.5C2394.43 1588.5 2404.5 1578.43 2404.5 1566V1476C2404.5 1463.57 2394.43 1453.5 2382 1453.5H2292C2280.35 1453.5 2270.77 1462.35 2269.62 1473.7C2269.54 1474.46 2269.5 1475.22 2269.5 1476V1566C2269.5 1578.43 2279.57 1588.5 2292 1588.5H2382ZM2279.25 1476C2279.25 1468.96 2284.96 1463.25 2292 1463.25L2332.14 1463.25V1516.1H2279.25V1476ZM2279.25 1525.85V1566C2279.25 1573.04 2284.96 1578.75 2292 1578.75H2332.14V1525.85H2279.25ZM2341.89 1578.75H2382C2389.04 1578.75 2394.75 1573.04 2394.75 1566V1525.85H2341.89V1578.75ZM2394.75 1516.1V1476C2394.75 1468.96 2389.04 1463.25 2382 1463.25H2341.89V1516.1H2394.75Z" fill="black"/>
</g>
</g>
</g>
<g id="Semibold-L">
<g id="Outline / Calculate Outline_4">
<g id="Shape_4">
<path d="M2010.02 1507.38C2007.33 1507.38 2005.15 1505.2 2005.15 1502.51V1496.13H1998.77C1996.08 1496.13 1993.9 1493.95 1993.9 1491.26C1993.9 1488.56 1996.08 1486.38 1998.77 1486.38H2005.15V1480.01C2005.15 1477.32 2007.33 1475.13 2010.02 1475.13C2012.71 1475.13 2014.9 1477.32 2014.9 1480.01V1486.38H2021.27C2023.96 1486.38 2026.15 1488.56 2026.15 1491.26C2026.15 1493.95 2023.96 1496.13 2021.27 1496.13H2014.9V1502.51C2014.9 1505.2 2012.71 1507.38 2010.02 1507.38Z" fill="black"/>
<path d="M2021.42 1563.57C2019.52 1565.48 2016.43 1565.48 2014.53 1563.57L2010.02 1559.07L2005.51 1563.57C2003.61 1565.48 2000.52 1565.48 1998.62 1563.57C1996.71 1561.67 1996.71 1558.58 1998.62 1556.68L2003.13 1552.17L1998.62 1547.66C1996.71 1545.76 1996.71 1542.67 1998.62 1540.77C2000.52 1538.87 2003.61 1538.87 2005.51 1540.77L2010.02 1545.28L2014.53 1540.77C2016.43 1538.87 2019.52 1538.87 2021.42 1540.77C2023.33 1542.67 2023.33 1545.76 2021.42 1547.66L2016.91 1552.17L2021.42 1556.68C2023.33 1558.58 2023.33 1561.67 2021.42 1563.57Z" fill="black"/>
<path d="M2065.42 1539.41C2062.73 1539.41 2060.55 1541.59 2060.55 1544.28C2060.55 1546.98 2062.73 1549.16 2065.42 1549.16H2080.42C2083.11 1549.16 2085.3 1546.98 2085.3 1544.28C2085.3 1541.59 2083.11 1539.41 2080.42 1539.41H2065.42Z" fill="black"/>
<path d="M2060.55 1559.55C2060.55 1556.86 2062.73 1554.68 2065.42 1554.68H2080.42C2083.11 1554.68 2085.3 1556.86 2085.3 1559.55C2085.3 1562.25 2083.11 1564.43 2080.42 1564.43H2065.42C2062.73 1564.43 2060.55 1562.25 2060.55 1559.55Z" fill="black"/>
<path d="M2060.55 1491.26C2060.55 1488.56 2062.73 1486.38 2065.42 1486.38H2080.42C2083.11 1486.38 2085.3 1488.56 2085.3 1491.26C2085.3 1493.95 2083.11 1496.13 2080.42 1496.13H2065.42C2062.73 1496.13 2060.55 1493.95 2060.55 1491.26Z" fill="black"/>
<path fill-rule="evenodd" clip-rule="evenodd" d="M2086 1588.5C2098.43 1588.5 2108.5 1578.43 2108.5 1566V1476C2108.5 1463.57 2098.43 1453.5 2086 1453.5H1996C1984.35 1453.5 1974.77 1462.35 1973.62 1473.7C1973.54 1474.46 1973.5 1475.22 1973.5 1476V1566C1973.5 1578.43 1983.57 1588.5 1996 1588.5H2086ZM1983.25 1476C1983.25 1468.96 1988.96 1463.25 1996 1463.25L2036.14 1463.25V1516.1H1983.25V1476ZM1983.25 1525.85V1566C1983.25 1573.04 1988.96 1578.75 1996 1578.75H2036.14V1525.85H1983.25ZM2045.89 1578.75H2086C2093.04 1578.75 2098.75 1573.04 2098.75 1566V1525.85H2045.89V1578.75ZM2098.75 1516.1V1476C2098.75 1468.96 2093.04 1463.25 2086 1463.25H2045.89V1516.1H2098.75Z" fill="black"/>
</g>
</g>
</g>
<g id="Medium-L">
<g id="Outline / Calculate Outline_5">
<g id="Shape_5">
<path d="M1714.02 1507.38C1711.33 1507.38 1709.15 1505.2 1709.15 1502.51V1496.13H1702.77C1700.08 1496.13 1697.9 1493.95 1697.9 1491.26C1697.9 1488.56 1700.08 1486.38 1702.77 1486.38H1709.15V1480.01C1709.15 1477.32 1711.33 1475.13 1714.02 1475.13C1716.71 1475.13 1718.9 1477.32 1718.9 1480.01V1486.38H1725.27C1727.96 1486.38 1730.15 1488.56 1730.15 1491.26C1730.15 1493.95 1727.96 1496.13 1725.27 1496.13H1718.9V1502.51C1718.9 1505.2 1716.71 1507.38 1714.02 1507.38Z" fill="black"/>
<path d="M1725.42 1563.57C1723.52 1565.48 1720.43 1565.48 1718.53 1563.57L1714.02 1559.07L1709.51 1563.57C1707.61 1565.48 1704.52 1565.48 1702.62 1563.57C1700.71 1561.67 1700.71 1558.58 1702.62 1556.68L1707.13 1552.17L1702.62 1547.66C1700.71 1545.76 1700.71 1542.67 1702.62 1540.77C1704.52 1538.87 1707.61 1538.87 1709.51 1540.77L1714.02 1545.28L1718.53 1540.77C1720.43 1538.87 1723.52 1538.87 1725.42 1540.77C1727.33 1542.67 1727.33 1545.76 1725.42 1547.66L1720.91 1552.17L1725.42 1556.68C1727.33 1558.58 1727.33 1561.67 1725.42 1563.57Z" fill="black"/>
<path d="M1769.42 1539.41C1766.73 1539.41 1764.55 1541.59 1764.55 1544.28C1764.55 1546.98 1766.73 1549.16 1769.42 1549.16H1784.42C1787.11 1549.16 1789.3 1546.98 1789.3 1544.28C1789.3 1541.59 1787.11 1539.41 1784.42 1539.41H1769.42Z" fill="black"/>
<path d="M1764.55 1559.55C1764.55 1556.86 1766.73 1554.68 1769.42 1554.68H1784.42C1787.11 1554.68 1789.3 1556.86 1789.3 1559.55C1789.3 1562.25 1787.11 1564.43 1784.42 1564.43H1769.42C1766.73 1564.43 1764.55 1562.25 1764.55 1559.55Z" fill="black"/>
<path d="M1764.55 1491.26C1764.55 1488.56 1766.73 1486.38 1769.42 1486.38H1784.42C1787.11 1486.38 1789.3 1488.56 1789.3 1491.26C1789.3 1493.95 1787.11 1496.13 1784.42 1496.13H1769.42C1766.73 1496.13 1764.55 1493.95 1764.55 1491.26Z" fill="black"/>
<path fill-rule="evenodd" clip-rule="evenodd" d="M1790 1588.5C1802.43 1588.5 1812.5 1578.43 1812.5 1566V1476C1812.5 1463.57 1802.43 1453.5 1790 1453.5H1700C1688.35 1453.5 1678.77 1462.35 1677.62 1473.7C1677.54 1474.46 1677.5 1475.22 1677.5 1476V1566C1677.5 1578.43 1687.57 1588.5 1700 1588.5H1790ZM1687.25 1476C1687.25 1468.96 1692.96 1463.25 1700 1463.25L1740.14 1463.25V1516.1H1687.25V1476ZM1687.25 1525.85V1566C1687.25 1573.04 1692.96 1578.75 1700 1578.75H1740.14V1525.85H1687.25ZM1749.89 1578.75H1790C1797.04 1578.75 1802.75 1573.04 1802.75 1566V1525.85H1749.89V1578.75ZM1802.75 1516.1V1476C1802.75 1468.96 1797.04 1463.25 1790 1463.25H1749.89V1516.1H1802.75Z" fill="black"/>
</g>
</g>
</g>
<g id="Regular-L">
<g id="Outline / Calculate Outline_6">
<g id="Shape_6">
<path d="M1418.02 1507.38C1415.33 1507.38 1413.15 1505.2 1413.15 1502.51V1496.13H1406.77C1404.08 1496.13 1401.9 1493.95 1401.9 1491.26C1401.9 1488.56 1404.08 1486.38 1406.77 1486.38H1413.15V1480.01C1413.15 1477.32 1415.33 1475.13 1418.02 1475.13C1420.71 1475.13 1422.9 1477.32 1422.9 1480.01V1486.38H1429.27C1431.96 1486.38 1434.15 1488.56 1434.15 1491.26C1434.15 1493.95 1431.96 1496.13 1429.27 1496.13H1422.9V1502.51C1422.9 1505.2 1420.71 1507.38 1418.02 1507.38Z" fill="black"/>
<path d="M1429.42 1563.57C1427.52 1565.48 1424.43 1565.48 1422.53 1563.57L1418.02 1559.07L1413.51 1563.57C1411.61 1565.48 1408.52 1565.48 1406.62 1563.57C1404.71 1561.67 1404.71 1558.58 1406.62 1556.68L1411.13 1552.17L1406.62 1547.66C1404.71 1545.76 1404.71 1542.67 1406.62 1540.77C1408.52 1538.87 1411.61 1538.87 1413.51 1540.77L1418.02 1545.28L1422.53 1540.77C1424.43 1538.87 1427.52 1538.87 1429.42 1540.77C1431.33 1542.67 1431.33 1545.76 1429.42 1547.66L1424.91 1552.17L1429.42 1556.68C1431.33 1558.58 1431.33 1561.67 1429.42 1563.57Z" fill="black"/>
<path d="M1473.42 1539.41C1470.73 1539.41 1468.55 1541.59 1468.55 1544.28C1468.55 1546.98 1470.73 1549.16 1473.42 1549.16H1488.42C1491.11 1549.16 1493.3 1546.98 1493.3 1544.28C1493.3 1541.59 1491.11 1539.41 1488.42 1539.41H1473.42Z" fill="black"/>
<path d="M1468.55 1559.55C1468.55 1556.86 1470.73 1554.68 1473.42 1554.68H1488.42C1491.11 1554.68 1493.3 1556.86 1493.3 1559.55C1493.3 1562.25 1491.11 1564.43 1488.42 1564.43H1473.42C1470.73 1564.43 1468.55 1562.25 1468.55 1559.55Z" fill="black"/>
<path d="M1468.55 1491.26C1468.55 1488.56 1470.73 1486.38 1473.42 1486.38H1488.42C1491.11 1486.38 1493.3 1488.56 1493.3 1491.26C1493.3 1493.95 1491.11 1496.13 1488.42 1496.13H1473.42C1470.73 1496.13 1468.55 1493.95 1468.55 1491.26Z" fill="black"/>
<path fill-rule="evenodd" clip-rule="evenodd" d="M1494 1588.5C1506.43 1588.5 1516.5 1578.43 1516.5 1566V1476C1516.5 1463.57 1506.43 1453.5 1494 1453.5H1404C1392.35 1453.5 1382.77 1462.35 1381.62 1473.7C1381.54 1474.46 1381.5 1475.22 1381.5 1476V1566C1381.5 1578.43 1391.57 1588.5 1404 1588.5H1494ZM1391.25 1476C1391.25 1468.96 1396.96 1463.25 1404 1463.25L1444.14 1463.25V1516.1H1391.25V1476ZM1391.25 1525.85V1566C1391.25 1573.04 1396.96 1578.75 1404 1578.75H1444.14V1525.85H1391.25ZM1453.89 1578.75H1494C1501.04 1578.75 1506.75 1573.04 1506.75 1566V1525.85H1453.89V1578.75ZM1506.75 1516.1V1476C1506.75 1468.96 1501.04 1463.25 1494 1463.25H1453.89V1516.1H1506.75Z" fill="black"/>
</g>
</g>
</g>
<g id="Light-L">
<g id="Outline / Calculate Outline_7">
<g id="Shape_7">
<path d="M1122.02 1507.38C1119.33 1507.38 1117.15 1505.2 1117.15 1502.51V1496.13H1110.77C1108.08 1496.13 1105.9 1493.95 1105.9 1491.26C1105.9 1488.56 1108.08 1486.38 1110.77 1486.38H1117.15V1480.01C1117.15 1477.32 1119.33 1475.13 1122.02 1475.13C1124.71 1475.13 1126.9 1477.32 1126.9 1480.01V1486.38H1133.27C1135.96 1486.38 1138.15 1488.56 1138.15 1491.26C1138.15 1493.95 1135.96 1496.13 1133.27 1496.13H1126.9V1502.51C1126.9 1505.2 1124.71 1507.38 1122.02 1507.38Z" fill="black"/>
<path d="M1133.42 1563.57C1131.52 1565.48 1128.43 1565.48 1126.53 1563.57L1122.02 1559.07L1117.51 1563.57C1115.61 1565.48 1112.52 1565.48 1110.62 1563.57C1108.71 1561.67 1108.71 1558.58 1110.62 1556.68L1115.13 1552.17L1110.62 1547.66C1108.71 1545.76 1108.71 1542.67 1110.62 1540.77C1112.52 1538.87 1115.61 1538.87 1117.51 1540.77L1122.02 1545.28L1126.53 1540.77C1128.43 1538.87 1131.52 1538.87 1133.42 1540.77C1135.33 1542.67 1135.33 1545.76 1133.42 1547.66L1128.91 1552.17L1133.42 1556.68C1135.33 1558.58 1135.33 1561.67 1133.42 1563.57Z" fill="black"/>
<path d="M1177.42 1539.41C1174.73 1539.41 1172.55 1541.59 1172.55 1544.28C1172.55 1546.98 1174.73 1549.16 1177.42 1549.16H1192.42C1195.11 1549.16 1197.3 1546.98 1197.3 1544.28C1197.3 1541.59 1195.11 1539.41 1192.42 1539.41H1177.42Z" fill="black"/>
<path d="M1172.55 1559.55C1172.55 1556.86 1174.73 1554.68 1177.42 1554.68H1192.42C1195.11 1554.68 1197.3 1556.86 1197.3 1559.55C1197.3 1562.25 1195.11 1564.43 1192.42 1564.43H1177.42C1174.73 1564.43 1172.55 1562.25 1172.55 1559.55Z" fill="black"/>
<path d="M1172.55 1491.26C1172.55 1488.56 1174.73 1486.38 1177.42 1486.38H1192.42C1195.11 1486.38 1197.3 1488.56 1197.3 1491.26C1197.3 1493.95 1195.11 1496.13 1192.42 1496.13H1177.42C1174.73 1496.13 1172.55 1493.95 1172.55 1491.26Z" fill="black"/>
<path fill-rule="evenodd" clip-rule="evenodd" d="M1198 1588.5C1210.43 1588.5 1220.5 1578.43 1220.5 1566V1476C1220.5 1463.57 1210.43 1453.5 1198 1453.5H1108C1096.35 1453.5 1086.77 1462.35 1085.62 1473.7C1085.54 1474.46 1085.5 1475.22 1085.5 1476V1566C1085.5 1578.43 1095.57 1588.5 1108 1588.5H1198ZM1095.25 1476C1095.25 1468.96 1100.96 1463.25 1108 1463.25L1148.14 1463.25V1516.1H1095.25V1476ZM1095.25 1525.85V1566C1095.25 1573.04 1100.96 1578.75 1108 1578.75H1148.14V1525.85H1095.25ZM1157.89 1578.75H1198C1205.04 1578.75 1210.75 1573.04 1210.75 1566V1525.85H1157.89V1578.75ZM1210.75 1516.1V1476C1210.75 1468.96 1205.04 1463.25 1198 1463.25H1157.89V1516.1H1210.75Z" fill="black"/>
</g>
</g>
</g>
<g id="Thin-L">
<g id="Outline / Calculate Outline_8">
<g id="Shape_8">
<path d="M826.02 1507.38C823.328 1507.38 821.145 1505.2 821.145 1502.51V1496.13H814.77C812.078 1496.13 809.895 1493.95 809.895 1491.26C809.895 1488.56 812.078 1486.38 814.77 1486.38H821.145V1480.01C821.145 1477.32 823.328 1475.13 826.02 1475.13C828.713 1475.13 830.895 1477.32 830.895 1480.01V1486.38H837.27C839.963 1486.38 842.145 1488.56 842.145 1491.26C842.145 1493.95 839.963 1496.13 837.27 1496.13H830.895V1502.51C830.895 1505.2 828.713 1507.38 826.02 1507.38Z" fill="black"/>
<path d="M837.422 1563.57C835.519 1565.48 832.432 1565.48 830.528 1563.57L826.02 1559.07L821.512 1563.57C819.608 1565.48 816.522 1565.48 814.618 1563.57C812.714 1561.67 812.714 1558.58 814.618 1556.68L819.126 1552.17L814.618 1547.66C812.714 1545.76 812.714 1542.67 814.618 1540.77C816.522 1538.87 819.609 1538.87 821.513 1540.77L826.02 1545.28L830.528 1540.77C832.431 1538.87 835.518 1538.87 837.422 1540.77C839.326 1542.67 839.326 1545.76 837.422 1547.66L832.914 1552.17L837.422 1556.68C839.326 1558.58 839.326 1561.67 837.422 1563.57Z" fill="black"/>
<path d="M881.421 1539.41C878.729 1539.41 876.546 1541.59 876.546 1544.28C876.546 1546.98 878.729 1549.16 881.421 1549.16H896.421C899.113 1549.16 901.296 1546.98 901.296 1544.28C901.296 1541.59 899.113 1539.41 896.421 1539.41H881.421Z" fill="black"/>
<path d="M876.546 1559.55C876.546 1556.86 878.729 1554.68 881.421 1554.68H896.421C899.113 1554.68 901.296 1556.86 901.296 1559.55C901.296 1562.25 899.113 1564.43 896.421 1564.43H881.421C878.729 1564.43 876.546 1562.25 876.546 1559.55Z" fill="black"/>
<path d="M876.546 1491.26C876.546 1488.56 878.729 1486.38 881.421 1486.38H896.421C899.113 1486.38 901.296 1488.56 901.296 1491.26C901.296 1493.95 899.113 1496.13 896.421 1496.13H881.421C878.729 1496.13 876.546 1493.95 876.546 1491.26Z" fill="black"/>
<path fill-rule="evenodd" clip-rule="evenodd" d="M902 1588.5C914.426 1588.5 924.5 1578.43 924.5 1566V1476C924.5 1463.57 914.426 1453.5 902 1453.5H812C800.35 1453.5 790.768 1462.35 789.616 1473.7C789.539 1474.46 789.5 1475.22 789.5 1476V1566C789.5 1578.43 799.574 1588.5 812 1588.5H902ZM799.25 1476C799.25 1468.96 804.958 1463.25 812 1463.25L852.141 1463.25V1516.1H799.25V1476ZM799.25 1525.85V1566C799.25 1573.04 804.958 1578.75 812 1578.75H852.141V1525.85H799.25ZM861.891 1578.75H902C909.042 1578.75 914.75 1573.04 914.75 1566V1525.85H861.891V1578.75ZM914.75 1516.1V1476C914.75 1468.96 909.042 1463.25 902 1463.25H861.891V1516.1H914.75Z" fill="black"/>
</g>
</g>
</g>
<g id="Ultralight-L">
<g id="Outline / Calculate Outline_9">
<g id="Shape_9">
<path d="M530.02 1507.38C527.328 1507.38 525.145 1505.2 525.145 1502.51V1496.13H518.77C516.078 1496.13 513.895 1493.95 513.895 1491.26C513.895 1488.56 516.078 1486.38 518.77 1486.38H525.145V1480.01C525.145 1477.32 527.328 1475.13 530.02 1475.13C532.713 1475.13 534.895 1477.32 534.895 1480.01V1486.38H541.27C543.963 1486.38 546.145 1488.56 546.145 1491.26C546.145 1493.95 543.963 1496.13 541.27 1496.13H534.895V1502.51C534.895 1505.2 532.713 1507.38 530.02 1507.38Z" fill="black"/>
<path d="M541.422 1563.57C539.519 1565.48 536.432 1565.48 534.528 1563.57L530.02 1559.07L525.512 1563.57C523.608 1565.48 520.522 1565.48 518.618 1563.57C516.714 1561.67 516.714 1558.58 518.618 1556.68L523.126 1552.17L518.618 1547.66C516.714 1545.76 516.714 1542.67 518.618 1540.77C520.522 1538.87 523.609 1538.87 525.513 1540.77L530.02 1545.28L534.528 1540.77C536.431 1538.87 539.518 1538.87 541.422 1540.77C543.326 1542.67 543.326 1545.76 541.422 1547.66L536.914 1552.17L541.422 1556.68C543.326 1558.58 543.326 1561.67 541.422 1563.57Z" fill="black"/>
<path d="M585.421 1539.41C582.729 1539.41 580.546 1541.59 580.546 1544.28C580.546 1546.98 582.729 1549.16 585.421 1549.16H600.421C603.113 1549.16 605.296 1546.98 605.296 1544.28C605.296 1541.59 603.113 1539.41 600.421 1539.41H585.421Z" fill="black"/>
<path d="M580.546 1559.55C580.546 1556.86 582.729 1554.68 585.421 1554.68H600.421C603.113 1554.68 605.296 1556.86 605.296 1559.55C605.296 1562.25 603.113 1564.43 600.421 1564.43H585.421C582.729 1564.43 580.546 1562.25 580.546 1559.55Z" fill="black"/>
<path d="M580.546 1491.26C580.546 1488.56 582.729 1486.38 585.421 1486.38H600.421C603.113 1486.38 605.296 1488.56 605.296 1491.26C605.296 1493.95 603.113 1496.13 600.421 1496.13H585.421C582.729 1496.13 580.546 1493.95 580.546 1491.26Z" fill="black"/>
<path fill-rule="evenodd" clip-rule="evenodd" d="M606 1588.5C618.426 1588.5 628.5 1578.43 628.5 1566V1476C628.5 1463.57 618.426 1453.5 606 1453.5H516C504.35 1453.5 494.768 1462.35 493.616 1473.7C493.539 1474.46 493.5 1475.22 493.5 1476V1566C493.5 1578.43 503.574 1588.5 516 1588.5H606ZM503.25 1476C503.25 1468.96 508.958 1463.25 516 1463.25L556.141 1463.25V1516.1H503.25V1476ZM503.25 1525.85V1566C503.25 1573.04 508.958 1578.75 516 1578.75H556.141V1525.85H503.25ZM565.891 1578.75H606C613.042 1578.75 618.75 1573.04 618.75 1566V1525.85H565.891V1578.75ZM618.75 1516.1V1476C618.75 1468.96 613.042 1463.25 606 1463.25H565.891V1516.1H618.75Z" fill="black"/>
</g>
</g>
</g>
<g id="Black-M">
<g id="Outline / Calculate Outline_10">
<g id="Shape_10">
<path d="M2904.9 1080.41C2902.81 1080.41 2901.11 1078.71 2901.11 1076.62V1071.66H2896.15C2894.06 1071.66 2892.36 1069.96 2892.36 1067.87C2892.36 1065.77 2894.06 1064.07 2896.15 1064.07H2901.11V1059.12C2901.11 1057.02 2902.81 1055.33 2904.9 1055.33C2907 1055.33 2908.7 1057.02 2908.7 1059.12V1064.07H2913.65C2915.75 1064.07 2917.45 1065.77 2917.45 1067.87C2917.45 1069.96 2915.75 1071.66 2913.65 1071.66H2908.7V1076.62C2908.7 1078.71 2907 1080.41 2904.9 1080.41Z" fill="black"/>
<path d="M2913.77 1124.11C2912.29 1125.59 2909.89 1125.59 2908.41 1124.11L2904.9 1120.61L2901.4 1124.11C2899.92 1125.59 2897.52 1125.59 2896.04 1124.11C2894.56 1122.63 2894.56 1120.23 2896.04 1118.75L2899.54 1115.24L2896.04 1111.74C2894.56 1110.26 2894.56 1107.86 2896.04 1106.38C2897.52 1104.9 2899.92 1104.9 2901.4 1106.38L2904.9 1109.88L2908.41 1106.38C2909.89 1104.9 2912.29 1104.9 2913.77 1106.38C2915.25 1107.86 2915.25 1110.26 2913.77 1111.74L2910.27 1115.24L2913.77 1118.75C2915.25 1120.23 2915.25 1122.63 2913.77 1124.11Z" fill="black"/>
<path d="M2947.99 1105.32C2945.9 1105.32 2944.2 1107.01 2944.2 1109.11C2944.2 1111.2 2945.9 1112.9 2947.99 1112.9H2959.66C2961.75 1112.9 2963.45 1111.2 2963.45 1109.11C2963.45 1107.01 2961.75 1105.32 2959.66 1105.32H2947.99Z" fill="black"/>
<path d="M2944.2 1120.99C2944.2 1118.89 2945.9 1117.19 2947.99 1117.19H2959.66C2961.75 1117.19 2963.45 1118.89 2963.45 1120.99C2963.45 1123.08 2961.75 1124.78 2959.66 1124.78H2947.99C2945.9 1124.78 2944.2 1123.08 2944.2 1120.99Z" fill="black"/>
<path d="M2944.2 1067.87C2944.2 1065.77 2945.9 1064.07 2947.99 1064.07H2959.66C2961.75 1064.07 2963.45 1065.77 2963.45 1067.87C2963.45 1069.96 2961.75 1071.66 2959.66 1071.66H2947.99C2945.9 1071.66 2944.2 1069.96 2944.2 1067.87Z" fill="black"/>
<path fill-rule="evenodd" clip-rule="evenodd" d="M2964 1143.5C2973.66 1143.5 2981.5 1135.66 2981.5 1126V1056C2981.5 1046.34 2973.66 1038.5 2964 1038.5H2894C2884.94 1038.5 2877.49 1045.39 2876.59 1054.21C2876.53 1054.8 2876.5 1055.4 2876.5 1056V1126C2876.5 1135.66 2884.34 1143.5 2894 1143.5H2964ZM2884.08 1056C2884.08 1050.52 2888.52 1046.08 2894 1046.08L2925.22 1046.08V1087.19H2884.08V1056ZM2884.08 1094.77V1126C2884.08 1131.48 2888.52 1135.92 2894 1135.92H2925.22V1094.77H2884.08ZM2932.8 1135.92H2964C2969.48 1135.92 2973.92 1131.48 2973.92 1126V1094.77H2932.8V1135.92ZM2973.92 1087.19V1056C2973.92 1050.52 2969.48 1046.08 2964 1046.08H2932.8V1087.19H2973.92Z" fill="black"/>
</g>
</g>
</g>
<g id="Heavy-M">
<g id="Outline / Calculate Outline_11">
<g id="Shape_11">
<path d="M2608.9 1080.41C2606.81 1080.41 2605.11 1078.71 2605.11 1076.62V1071.66H2600.15C2598.06 1071.66 2596.36 1069.96 2596.36 1067.87C2596.36 1065.77 2598.06 1064.07 2600.15 1064.07H2605.11V1059.12C2605.11 1057.02 2606.81 1055.33 2608.9 1055.33C2611 1055.33 2612.7 1057.02 2612.7 1059.12V1064.07H2617.65C2619.75 1064.07 2621.45 1065.77 2621.45 1067.87C2621.45 1069.96 2619.75 1071.66 2617.65 1071.66H2612.7V1076.62C2612.7 1078.71 2611 1080.41 2608.9 1080.41Z" fill="black"/>
<path d="M2617.77 1124.11C2616.29 1125.59 2613.89 1125.59 2612.41 1124.11L2608.9 1120.61L2605.4 1124.11C2603.92 1125.59 2601.52 1125.59 2600.04 1124.11C2598.56 1122.63 2598.56 1120.23 2600.04 1118.75L2603.54 1115.24L2600.04 1111.74C2598.56 1110.26 2598.56 1107.86 2600.04 1106.38C2601.52 1104.9 2603.92 1104.9 2605.4 1106.38L2608.9 1109.88L2612.41 1106.38C2613.89 1104.9 2616.29 1104.9 2617.77 1106.38C2619.25 1107.86 2619.25 1110.26 2617.77 1111.74L2614.27 1115.24L2617.77 1118.75C2619.25 1120.23 2619.25 1122.63 2617.77 1124.11Z" fill="black"/>
<path d="M2651.99 1105.32C2649.9 1105.32 2648.2 1107.01 2648.2 1109.11C2648.2 1111.2 2649.9 1112.9 2651.99 1112.9H2663.66C2665.75 1112.9 2667.45 1111.2 2667.45 1109.11C2667.45 1107.01 2665.75 1105.32 2663.66 1105.32H2651.99Z" fill="black"/>
<path d="M2648.2 1120.99C2648.2 1118.89 2649.9 1117.19 2651.99 1117.19H2663.66C2665.75 1117.19 2667.45 1118.89 2667.45 1120.99C2667.45 1123.08 2665.75 1124.78 2663.66 1124.78H2651.99C2649.9 1124.78 2648.2 1123.08 2648.2 1120.99Z" fill="black"/>
<path d="M2648.2 1067.87C2648.2 1065.77 2649.9 1064.07 2651.99 1064.07H2663.66C2665.75 1064.07 2667.45 1065.77 2667.45 1067.87C2667.45 1069.96 2665.75 1071.66 2663.66 1071.66H2651.99C2649.9 1071.66 2648.2 1069.96 2648.2 1067.87Z" fill="black"/>
<path fill-rule="evenodd" clip-rule="evenodd" d="M2668 1143.5C2677.66 1143.5 2685.5 1135.66 2685.5 1126V1056C2685.5 1046.34 2677.66 1038.5 2668 1038.5H2598C2588.94 1038.5 2581.49 1045.39 2580.59 1054.21C2580.53 1054.8 2580.5 1055.4 2580.5 1056V1126C2580.5 1135.66 2588.34 1143.5 2598 1143.5H2668ZM2588.08 1056C2588.08 1050.52 2592.52 1046.08 2598 1046.08L2629.22 1046.08V1087.19H2588.08V1056ZM2588.08 1094.77V1126C2588.08 1131.48 2592.52 1135.92 2598 1135.92H2629.22V1094.77H2588.08ZM2636.8 1135.92H2668C2673.48 1135.92 2677.92 1131.48 2677.92 1126V1094.77H2636.8V1135.92ZM2677.92 1087.19V1056C2677.92 1050.52 2673.48 1046.08 2668 1046.08H2636.8V1087.19H2677.92Z" fill="black"/>
</g>
</g>
</g>
<g id="Bold-M">
<g id="Outline / Calculate Outline_12">
<g id="Shape_12">
<path d="M2312.9 1080.41C2310.81 1080.41 2309.11 1078.71 2309.11 1076.62V1071.66H2304.15C2302.06 1071.66 2300.36 1069.96 2300.36 1067.87C2300.36 1065.77 2302.06 1064.07 2304.15 1064.07H2309.11V1059.12C2309.11 1057.02 2310.81 1055.33 2312.9 1055.33C2315 1055.33 2316.7 1057.02 2316.7 1059.12V1064.07H2321.65C2323.75 1064.07 2325.45 1065.77 2325.45 1067.87C2325.45 1069.96 2323.75 1071.66 2321.65 1071.66H2316.7V1076.62C2316.7 1078.71 2315 1080.41 2312.9 1080.41Z" fill="black"/>
<path d="M2321.77 1124.11C2320.29 1125.59 2317.89 1125.59 2316.41 1124.11L2312.9 1120.61L2309.4 1124.11C2307.92 1125.59 2305.52 1125.59 2304.04 1124.11C2302.56 1122.63 2302.56 1120.23 2304.04 1118.75L2307.54 1115.24L2304.04 1111.74C2302.56 1110.26 2302.56 1107.86 2304.04 1106.38C2305.52 1104.9 2307.92 1104.9 2309.4 1106.38L2312.9 1109.88L2316.41 1106.38C2317.89 1104.9 2320.29 1104.9 2321.77 1106.38C2323.25 1107.86 2323.25 1110.26 2321.77 1111.74L2318.27 1115.24L2321.77 1118.75C2323.25 1120.23 2323.25 1122.63 2321.77 1124.11Z" fill="black"/>
<path d="M2355.99 1105.32C2353.9 1105.32 2352.2 1107.01 2352.2 1109.11C2352.2 1111.2 2353.9 1112.9 2355.99 1112.9H2367.66C2369.75 1112.9 2371.45 1111.2 2371.45 1109.11C2371.45 1107.01 2369.75 1105.32 2367.66 1105.32H2355.99Z" fill="black"/>
<path d="M2352.2 1120.99C2352.2 1118.89 2353.9 1117.19 2355.99 1117.19H2367.66C2369.75 1117.19 2371.45 1118.89 2371.45 1120.99C2371.45 1123.08 2369.75 1124.78 2367.66 1124.78H2355.99C2353.9 1124.78 2352.2 1123.08 2352.2 1120.99Z" fill="black"/>
<path d="M2352.2 1067.87C2352.2 1065.77 2353.9 1064.07 2355.99 1064.07H2367.66C2369.75 1064.07 2371.45 1065.77 2371.45 1067.87C2371.45 1069.96 2369.75 1071.66 2367.66 1071.66H2355.99C2353.9 1071.66 2352.2 1069.96 2352.2 1067.87Z" fill="black"/>
<path fill-rule="evenodd" clip-rule="evenodd" d="M2372 1143.5C2381.66 1143.5 2389.5 1135.66 2389.5 1126V1056C2389.5 1046.34 2381.66 1038.5 2372 1038.5H2302C2292.94 1038.5 2285.49 1045.39 2284.59 1054.21C2284.53 1054.8 2284.5 1055.4 2284.5 1056V1126C2284.5 1135.66 2292.34 1143.5 2302 1143.5H2372ZM2292.08 1056C2292.08 1050.52 2296.52 1046.08 2302 1046.08L2333.22 1046.08V1087.19H2292.08V1056ZM2292.08 1094.77V1126C2292.08 1131.48 2296.52 1135.92 2302 1135.92H2333.22V1094.77H2292.08ZM2340.8 1135.92H2372C2377.48 1135.92 2381.92 1131.48 2381.92 1126V1094.77H2340.8V1135.92ZM2381.92 1087.19V1056C2381.92 1050.52 2377.48 1046.08 2372 1046.08H2340.8V1087.19H2381.92Z" fill="black"/>
</g>
</g>
</g>
<g id="Semibold-M">
<g id="Outline / Calculate Outline_13">
<g id="Shape_13">
<path d="M2016.9 1080.41C2014.81 1080.41 2013.11 1078.71 2013.11 1076.62V1071.66H2008.15C2006.06 1071.66 2004.36 1069.96 2004.36 1067.87C2004.36 1065.77 2006.06 1064.07 2008.15 1064.07H2013.11V1059.12C2013.11 1057.02 2014.81 1055.33 2016.9 1055.33C2019 1055.33 2020.7 1057.02 2020.7 1059.12V1064.07H2025.65C2027.75 1064.07 2029.45 1065.77 2029.45 1067.87C2029.45 1069.96 2027.75 1071.66 2025.65 1071.66H2020.7V1076.62C2020.7 1078.71 2019 1080.41 2016.9 1080.41Z" fill="black"/>
<path d="M2025.77 1124.11C2024.29 1125.59 2021.89 1125.59 2020.41 1124.11L2016.9 1120.61L2013.4 1124.11C2011.92 1125.59 2009.52 1125.59 2008.04 1124.11C2006.56 1122.63 2006.56 1120.23 2008.04 1118.75L2011.54 1115.24L2008.04 1111.74C2006.56 1110.26 2006.56 1107.86 2008.04 1106.38C2009.52 1104.9 2011.92 1104.9 2013.4 1106.38L2016.9 1109.88L2020.41 1106.38C2021.89 1104.9 2024.29 1104.9 2025.77 1106.38C2027.25 1107.86 2027.25 1110.26 2025.77 1111.74L2022.27 1115.24L2025.77 1118.75C2027.25 1120.23 2027.25 1122.63 2025.77 1124.11Z" fill="black"/>
<path d="M2059.99 1105.32C2057.9 1105.32 2056.2 1107.01 2056.2 1109.11C2056.2 1111.2 2057.9 1112.9 2059.99 1112.9H2071.66C2073.75 1112.9 2075.45 1111.2 2075.45 1109.11C2075.45 1107.01 2073.75 1105.32 2071.66 1105.32H2059.99Z" fill="black"/>
<path d="M2056.2 1120.99C2056.2 1118.89 2057.9 1117.19 2059.99 1117.19H2071.66C2073.75 1117.19 2075.45 1118.89 2075.45 1120.99C2075.45 1123.08 2073.75 1124.78 2071.66 1124.78H2059.99C2057.9 1124.78 2056.2 1123.08 2056.2 1120.99Z" fill="black"/>
<path d="M2056.2 1067.87C2056.2 1065.77 2057.9 1064.07 2059.99 1064.07H2071.66C2073.75 1064.07 2075.45 1065.77 2075.45 1067.87C2075.45 1069.96 2073.75 1071.66 2071.66 1071.66H2059.99C2057.9 1071.66 2056.2 1069.96 2056.2 1067.87Z" fill="black"/>
<path fill-rule="evenodd" clip-rule="evenodd" d="M2076 1143.5C2085.66 1143.5 2093.5 1135.66 2093.5 1126V1056C2093.5 1046.34 2085.66 1038.5 2076 1038.5H2006C1996.94 1038.5 1989.49 1045.39 1988.59 1054.21C1988.53 1054.8 1988.5 1055.4 1988.5 1056V1126C1988.5 1135.66 1996.34 1143.5 2006 1143.5H2076ZM1996.08 1056C1996.08 1050.52 2000.52 1046.08 2006 1046.08L2037.22 1046.08V1087.19H1996.08V1056ZM1996.08 1094.77V1126C1996.08 1131.48 2000.52 1135.92 2006 1135.92H2037.22V1094.77H1996.08ZM2044.8 1135.92H2076C2081.48 1135.92 2085.92 1131.48 2085.92 1126V1094.77H2044.8V1135.92ZM2085.92 1087.19V1056C2085.92 1050.52 2081.48 1046.08 2076 1046.08H2044.8V1087.19H2085.92Z" fill="black"/>
</g>
</g>
</g>
<g id="Medium-M">
<g id="Outline / Calculate Outline_14">
<g id="Shape_14">
<path d="M1720.9 1080.41C1718.81 1080.41 1717.11 1078.71 1717.11 1076.62V1071.66H1712.15C1710.06 1071.66 1708.36 1069.96 1708.36 1067.87C1708.36 1065.77 1710.06 1064.07 1712.15 1064.07H1717.11V1059.12C1717.11 1057.02 1718.81 1055.33 1720.9 1055.33C1723 1055.33 1724.7 1057.02 1724.7 1059.12V1064.07H1729.65C1731.75 1064.07 1733.45 1065.77 1733.45 1067.87C1733.45 1069.96 1731.75 1071.66 1729.65 1071.66H1724.7V1076.62C1724.7 1078.71 1723 1080.41 1720.9 1080.41Z" fill="black"/>
<path d="M1729.77 1124.11C1728.29 1125.59 1725.89 1125.59 1724.41 1124.11L1720.9 1120.61L1717.4 1124.11C1715.92 1125.59 1713.52 1125.59 1712.04 1124.11C1710.56 1122.63 1710.56 1120.23 1712.04 1118.75L1715.54 1115.24L1712.04 1111.74C1710.56 1110.26 1710.56 1107.86 1712.04 1106.38C1713.52 1104.9 1715.92 1104.9 1717.4 1106.38L1720.9 1109.88L1724.41 1106.38C1725.89 1104.9 1728.29 1104.9 1729.77 1106.38C1731.25 1107.86 1731.25 1110.26 1729.77 1111.74L1726.27 1115.24L1729.77 1118.75C1731.25 1120.23 1731.25 1122.63 1729.77 1124.11Z" fill="black"/>
<path d="M1763.99 1105.32C1761.9 1105.32 1760.2 1107.01 1760.2 1109.11C1760.2 1111.2 1761.9 1112.9 1763.99 1112.9H1775.66C1777.75 1112.9 1779.45 1111.2 1779.45 1109.11C1779.45 1107.01 1777.75 1105.32 1775.66 1105.32H1763.99Z" fill="black"/>
<path d="M1760.2 1120.99C1760.2 1118.89 1761.9 1117.19 1763.99 1117.19H1775.66C1777.75 1117.19 1779.45 1118.89 1779.45 1120.99C1779.45 1123.08 1777.75 1124.78 1775.66 1124.78H1763.99C1761.9 1124.78 1760.2 1123.08 1760.2 1120.99Z" fill="black"/>
<path d="M1760.2 1067.87C1760.2 1065.77 1761.9 1064.07 1763.99 1064.07H1775.66C1777.75 1064.07 1779.45 1065.77 1779.45 1067.87C1779.45 1069.96 1777.75 1071.66 1775.66 1071.66H1763.99C1761.9 1071.66 1760.2 1069.96 1760.2 1067.87Z" fill="black"/>
<path fill-rule="evenodd" clip-rule="evenodd" d="M1780 1143.5C1789.66 1143.5 1797.5 1135.66 1797.5 1126V1056C1797.5 1046.34 1789.66 1038.5 1780 1038.5H1710C1700.94 1038.5 1693.49 1045.39 1692.59 1054.21C1692.53 1054.8 1692.5 1055.4 1692.5 1056V1126C1692.5 1135.66 1700.34 1143.5 1710 1143.5H1780ZM1700.08 1056C1700.08 1050.52 1704.52 1046.08 1710 1046.08L1741.22 1046.08V1087.19H1700.08V1056ZM1700.08 1094.77V1126C1700.08 1131.48 1704.52 1135.92 1710 1135.92H1741.22V1094.77H1700.08ZM1748.8 1135.92H1780C1785.48 1135.92 1789.92 1131.48 1789.92 1126V1094.77H1748.8V1135.92ZM1789.92 1087.19V1056C1789.92 1050.52 1785.48 1046.08 1780 1046.08H1748.8V1087.19H1789.92Z" fill="black"/>
</g>
</g>
</g>
<g id="Regular-M">
<g id="Outline / Calculate Outline_15">
<g id="Shape_15">
<path d="M1424.9 1080.41C1422.81 1080.41 1421.11 1078.71 1421.11 1076.62V1071.66H1416.15C1414.06 1071.66 1412.36 1069.96 1412.36 1067.87C1412.36 1065.77 1414.06 1064.07 1416.15 1064.07H1421.11V1059.12C1421.11 1057.02 1422.81 1055.33 1424.9 1055.33C1427 1055.33 1428.7 1057.02 1428.7 1059.12V1064.07H1433.65C1435.75 1064.07 1437.45 1065.77 1437.45 1067.87C1437.45 1069.96 1435.75 1071.66 1433.65 1071.66H1428.7V1076.62C1428.7 1078.71 1427 1080.41 1424.9 1080.41Z" fill="black"/>
<path d="M1433.77 1124.11C1432.29 1125.59 1429.89 1125.59 1428.41 1124.11L1424.9 1120.61L1421.4 1124.11C1419.92 1125.59 1417.52 1125.59 1416.04 1124.11C1414.56 1122.63 1414.56 1120.23 1416.04 1118.75L1419.54 1115.24L1416.04 1111.74C1414.56 1110.26 1414.56 1107.86 1416.04 1106.38C1417.52 1104.9 1419.92 1104.9 1421.4 1106.38L1424.9 1109.88L1428.41 1106.38C1429.89 1104.9 1432.29 1104.9 1433.77 1106.38C1435.25 1107.86 1435.25 1110.26 1433.77 1111.74L1430.27 1115.24L1433.77 1118.75C1435.25 1120.23 1435.25 1122.63 1433.77 1124.11Z" fill="black"/>
<path d="M1467.99 1105.32C1465.9 1105.32 1464.2 1107.01 1464.2 1109.11C1464.2 1111.2 1465.9 1112.9 1467.99 1112.9H1479.66C1481.75 1112.9 1483.45 1111.2 1483.45 1109.11C1483.45 1107.01 1481.75 1105.32 1479.66 1105.32H1467.99Z" fill="black"/>
<path d="M1464.2 1120.99C1464.2 1118.89 1465.9 1117.19 1467.99 1117.19H1479.66C1481.75 1117.19 1483.45 1118.89 1483.45 1120.99C1483.45 1123.08 1481.75 1124.78 1479.66 1124.78H1467.99C1465.9 1124.78 1464.2 1123.08 1464.2 1120.99Z" fill="black"/>
<path d="M1464.2 1067.87C1464.2 1065.77 1465.9 1064.07 1467.99 1064.07H1479.66C1481.75 1064.07 1483.45 1065.77 1483.45 1067.87C1483.45 1069.96 1481.75 1071.66 1479.66 1071.66H1467.99C1465.9 1071.66 1464.2 1069.96 1464.2 1067.87Z" fill="black"/>
<path fill-rule="evenodd" clip-rule="evenodd" d="M1484 1143.5C1493.66 1143.5 1501.5 1135.66 1501.5 1126V1056C1501.5 1046.34 1493.66 1038.5 1484 1038.5H1414C1404.94 1038.5 1397.49 1045.39 1396.59 1054.21C1396.53 1054.8 1396.5 1055.4 1396.5 1056V1126C1396.5 1135.66 1404.34 1143.5 1414 1143.5H1484ZM1404.08 1056C1404.08 1050.52 1408.52 1046.08 1414 1046.08L1445.22 1046.08V1087.19H1404.08V1056ZM1404.08 1094.77V1126C1404.08 1131.48 1408.52 1135.92 1414 1135.92H1445.22V1094.77H1404.08ZM1452.8 1135.92H1484C1489.48 1135.92 1493.92 1131.48 1493.92 1126V1094.77H1452.8V1135.92ZM1493.92 1087.19V1056C1493.92 1050.52 1489.48 1046.08 1484 1046.08H1452.8V1087.19H1493.92Z" fill="black"/>
</g>
</g>
</g>
<g id="Light-M">
<g id="Outline / Calculate Outline_16">
<g id="Shape_16">
<path d="M1128.9 1080.41C1126.81 1080.41 1125.11 1078.71 1125.11 1076.62V1071.66H1120.15C1118.06 1071.66 1116.36 1069.96 1116.36 1067.87C1116.36 1065.77 1118.06 1064.07 1120.15 1064.07H1125.11V1059.12C1125.11 1057.02 1126.81 1055.33 1128.9 1055.33C1131 1055.33 1132.7 1057.02 1132.7 1059.12V1064.07H1137.65C1139.75 1064.07 1141.45 1065.77 1141.45 1067.87C1141.45 1069.96 1139.75 1071.66 1137.65 1071.66H1132.7V1076.62C1132.7 1078.71 1131 1080.41 1128.9 1080.41Z" fill="black"/>
<path d="M1137.77 1124.11C1136.29 1125.59 1133.89 1125.59 1132.41 1124.11L1128.9 1120.61L1125.4 1124.11C1123.92 1125.59 1121.52 1125.59 1120.04 1124.11C1118.56 1122.63 1118.56 1120.23 1120.04 1118.75L1123.54 1115.24L1120.04 1111.74C1118.56 1110.26 1118.56 1107.86 1120.04 1106.38C1121.52 1104.9 1123.92 1104.9 1125.4 1106.38L1128.9 1109.88L1132.41 1106.38C1133.89 1104.9 1136.29 1104.9 1137.77 1106.38C1139.25 1107.86 1139.25 1110.26 1137.77 1111.74L1134.27 1115.24L1137.77 1118.75C1139.25 1120.23 1139.25 1122.63 1137.77 1124.11Z" fill="black"/>
<path d="M1171.99 1105.32C1169.9 1105.32 1168.2 1107.01 1168.2 1109.11C1168.2 1111.2 1169.9 1112.9 1171.99 1112.9H1183.66C1185.75 1112.9 1187.45 1111.2 1187.45 1109.11C1187.45 1107.01 1185.75 1105.32 1183.66 1105.32H1171.99Z" fill="black"/>
<path d="M1168.2 1120.99C1168.2 1118.89 1169.9 1117.19 1171.99 1117.19H1183.66C1185.75 1117.19 1187.45 1118.89 1187.45 1120.99C1187.45 1123.08 1185.75 1124.78 1183.66 1124.78H1171.99C1169.9 1124.78 1168.2 1123.08 1168.2 1120.99Z" fill="black"/>
<path d="M1168.2 1067.87C1168.2 1065.77 1169.9 1064.07 1171.99 1064.07H1183.66C1185.75 1064.07 1187.45 1065.77 1187.45 1067.87C1187.45 1069.96 1185.75 1071.66 1183.66 1071.66H1171.99C1169.9 1071.66 1168.2 1069.96 1168.2 1067.87Z" fill="black"/>
<path fill-rule="evenodd" clip-rule="evenodd" d="M1188 1143.5C1197.66 1143.5 1205.5 1135.66 1205.5 1126V1056C1205.5 1046.34 1197.66 1038.5 1188 1038.5H1118C1108.94 1038.5 1101.49 1045.39 1100.59 1054.21C1100.53 1054.8 1100.5 1055.4 1100.5 1056V1126C1100.5 1135.66 1108.34 1143.5 1118 1143.5H1188ZM1108.08 1056C1108.08 1050.52 1112.52 1046.08 1118 1046.08L1149.22 1046.08V1087.19H1108.08V1056ZM1108.08 1094.77V1126C1108.08 1131.48 1112.52 1135.92 1118 1135.92H1149.22V1094.77H1108.08ZM1156.8 1135.92H1188C1193.48 1135.92 1197.92 1131.48 1197.92 1126V1094.77H1156.8V1135.92ZM1197.92 1087.19V1056C1197.92 1050.52 1193.48 1046.08 1188 1046.08H1156.8V1087.19H1197.92Z" fill="black"/>
</g>
</g>
</g>
<g id="Thin-M">
<g id="Outline / Calculate Outline_17">
<g id="Shape_17">
<path d="M832.905 1080.41C830.811 1080.41 829.113 1078.71 829.113 1076.62V1071.66H824.155C822.061 1071.66 820.363 1069.96 820.363 1067.87C820.363 1065.77 822.061 1064.07 824.155 1064.07H829.113V1059.12C829.113 1057.02 830.811 1055.33 832.905 1055.33C834.999 1055.33 836.696 1057.02 836.696 1059.12V1064.07H841.655C843.749 1064.07 845.446 1065.77 845.446 1067.87C845.446 1069.96 843.749 1071.66 841.655 1071.66H836.696V1076.62C836.696 1078.71 834.999 1080.41 832.905 1080.41Z" fill="black"/>
<path d="M841.773 1124.11C840.292 1125.59 837.892 1125.59 836.411 1124.11L832.904 1120.61L829.398 1124.11C827.918 1125.59 825.517 1125.59 824.036 1124.11C822.555 1122.63 822.555 1120.23 824.036 1118.75L827.542 1115.24L824.036 1111.74C822.556 1110.26 822.556 1107.86 824.036 1106.38C825.517 1104.9 827.918 1104.9 829.399 1106.38L832.904 1109.88L836.41 1106.38C837.891 1104.9 840.292 1104.9 841.773 1106.38C843.253 1107.86 843.253 1110.26 841.773 1111.74L838.267 1115.24L841.773 1118.75C843.254 1120.23 843.254 1122.63 841.773 1124.11Z" fill="black"/>
<path d="M875.994 1105.32C873.9 1105.32 872.202 1107.01 872.202 1109.11C872.202 1111.2 873.9 1112.9 875.994 1112.9H887.661C889.755 1112.9 891.452 1111.2 891.452 1109.11C891.452 1107.01 889.755 1105.32 887.661 1105.32H875.994Z" fill="black"/>
<path d="M872.202 1120.99C872.202 1118.89 873.9 1117.19 875.994 1117.19H887.661C889.755 1117.19 891.452 1118.89 891.452 1120.99C891.452 1123.08 889.755 1124.78 887.661 1124.78H875.994C873.9 1124.78 872.202 1123.08 872.202 1120.99Z" fill="black"/>
<path d="M872.202 1067.87C872.202 1065.77 873.9 1064.07 875.994 1064.07H887.661C889.755 1064.07 891.452 1065.77 891.452 1067.87C891.452 1069.96 889.755 1071.66 887.661 1071.66H875.994C873.9 1071.66 872.202 1069.96 872.202 1067.87Z" fill="black"/>
<path fill-rule="evenodd" clip-rule="evenodd" d="M892 1143.5C901.665 1143.5 909.5 1135.66 909.5 1126V1056C909.5 1046.34 901.665 1038.5 892 1038.5H822C812.939 1038.5 805.487 1045.39 804.59 1054.21C804.531 1054.8 804.5 1055.4 804.5 1056V1126C804.5 1135.66 812.335 1143.5 822 1143.5H892ZM812.083 1056C812.083 1050.52 816.523 1046.08 822 1046.08L853.221 1046.08V1087.19H812.083V1056ZM812.083 1094.77V1126C812.083 1131.48 816.523 1135.92 822 1135.92H853.221V1094.77H812.083ZM860.804 1135.92H892C897.477 1135.92 901.917 1131.48 901.917 1126V1094.77H860.804V1135.92ZM901.917 1087.19V1056C901.917 1050.52 897.477 1046.08 892 1046.08H860.804V1087.19H901.917Z" fill="black"/>
</g>
</g>
</g>
<g id="Ultralight-M">
<g id="Outline / Calculate Outline_18">
<g id="Shape_18">
<path d="M536.905 1080.41C534.811 1080.41 533.113 1078.71 533.113 1076.62V1071.66H528.155C526.061 1071.66 524.363 1069.96 524.363 1067.87C524.363 1065.77 526.061 1064.07 528.155 1064.07H533.113V1059.12C533.113 1057.02 534.811 1055.33 536.905 1055.33C538.999 1055.33 540.696 1057.02 540.696 1059.12V1064.07H545.655C547.749 1064.07 549.446 1065.77 549.446 1067.87C549.446 1069.96 547.749 1071.66 545.655 1071.66H540.696V1076.62C540.696 1078.71 538.999 1080.41 536.905 1080.41Z" fill="black"/>
<path d="M545.773 1124.11C544.292 1125.59 541.892 1125.59 540.411 1124.11L536.904 1120.61L533.398 1124.11C531.918 1125.59 529.517 1125.59 528.036 1124.11C526.555 1122.63 526.555 1120.23 528.036 1118.75L531.542 1115.24L528.036 1111.74C526.556 1110.26 526.556 1107.86 528.036 1106.38C529.517 1104.9 531.918 1104.9 533.399 1106.38L536.904 1109.88L540.41 1106.38C541.891 1104.9 544.292 1104.9 545.773 1106.38C547.253 1107.86 547.253 1110.26 545.773 1111.74L542.267 1115.24L545.773 1118.75C547.254 1120.23 547.254 1122.63 545.773 1124.11Z" fill="black"/>
<path d="M579.994 1105.32C577.9 1105.32 576.202 1107.01 576.202 1109.11C576.202 1111.2 577.9 1112.9 579.994 1112.9H591.661C593.755 1112.9 595.452 1111.2 595.452 1109.11C595.452 1107.01 593.755 1105.32 591.661 1105.32H579.994Z" fill="black"/>
<path d="M576.202 1120.99C576.202 1118.89 577.9 1117.19 579.994 1117.19H591.661C593.755 1117.19 595.452 1118.89 595.452 1120.99C595.452 1123.08 593.755 1124.78 591.661 1124.78H579.994C577.9 1124.78 576.202 1123.08 576.202 1120.99Z" fill="black"/>
<path d="M576.202 1067.87C576.202 1065.77 577.9 1064.07 579.994 1064.07H591.661C593.755 1064.07 595.452 1065.77 595.452 1067.87C595.452 1069.96 593.755 1071.66 591.661 1071.66H579.994C577.9 1071.66 576.202 1069.96 576.202 1067.87Z" fill="black"/>
<path fill-rule="evenodd" clip-rule="evenodd" d="M596 1143.5C605.665 1143.5 613.5 1135.66 613.5 1126V1056C613.5 1046.34 605.665 1038.5 596 1038.5H526C516.939 1038.5 509.487 1045.39 508.59 1054.21C508.531 1054.8 508.5 1055.4 508.5 1056V1126C508.5 1135.66 516.335 1143.5 526 1143.5H596ZM516.083 1056C516.083 1050.52 520.523 1046.08 526 1046.08L557.221 1046.08V1087.19H516.083V1056ZM516.083 1094.77V1126C516.083 1131.48 520.523 1135.92 526 1135.92H557.221V1094.77H516.083ZM564.804 1135.92H596C601.477 1135.92 605.917 1131.48 605.917 1126V1094.77H564.804V1135.92ZM605.917 1087.19V1056C605.917 1050.52 601.477 1046.08 596 1046.08H564.804V1087.19H605.917Z" fill="black"/>
</g>
</g>
</g>
<g id="Black-S">
<g id="Outline / Calculate Outline_19">
<g id="Shape_19">
<path d="M2911.79 653.435C2910.29 653.435 2909.08 652.222 2909.08 650.726V647.184H2905.54C2904.04 647.184 2902.83 645.972 2902.83 644.476C2902.83 642.98 2904.04 641.768 2905.54 641.768H2909.08V638.226C2909.08 636.731 2910.29 635.518 2911.79 635.518C2913.28 635.518 2914.5 636.731 2914.5 638.226V641.768H2918.04C2919.53 641.768 2920.75 642.98 2920.75 644.476C2920.75 645.972 2919.53 647.184 2918.04 647.184H2914.5V650.726C2914.5 652.222 2913.28 653.435 2911.79 653.435Z" fill="black"/>
<path d="M2918.12 684.653C2917.07 685.71 2915.35 685.71 2914.29 684.653L2911.79 682.148L2909.28 684.652C2908.23 685.71 2906.51 685.71 2905.45 684.652C2904.4 683.595 2904.4 681.88 2905.45 680.822L2907.96 678.318L2905.45 675.814C2904.4 674.756 2904.4 673.041 2905.45 671.984C2906.51 670.926 2908.23 670.926 2909.28 671.984L2911.79 674.488L2914.29 671.983C2915.35 670.926 2917.07 670.926 2918.12 671.983C2919.18 673.041 2919.18 674.756 2918.12 675.813L2915.62 678.318L2918.12 680.822C2919.18 681.88 2919.18 683.595 2918.12 684.653Z" fill="black"/>
<path d="M2942.57 671.227C2941.07 671.227 2939.86 672.439 2939.86 673.935C2939.86 675.431 2941.07 676.643 2942.57 676.643H2950.9C2952.4 676.643 2953.61 675.431 2953.61 673.935C2953.61 672.439 2952.4 671.227 2950.9 671.227H2942.57Z" fill="black"/>
<path d="M2939.86 682.419C2939.86 680.923 2941.07 679.711 2942.57 679.711H2950.9C2952.4 679.711 2953.61 680.923 2953.61 682.419C2953.61 683.915 2952.4 685.127 2950.9 685.127H2942.57C2941.07 685.127 2939.86 683.915 2939.86 682.419Z" fill="black"/>
<path d="M2939.86 644.476C2939.86 642.98 2941.07 641.768 2942.57 641.768H2950.9C2952.4 641.768 2953.61 642.98 2953.61 644.476C2953.61 645.972 2952.4 647.184 2950.9 647.184H2942.57C2941.07 647.184 2939.86 645.972 2939.86 644.476Z" fill="black"/>
<path fill-rule="evenodd" clip-rule="evenodd" d="M2954 698.5C2960.9 698.5 2966.5 692.904 2966.5 686V636C2966.5 629.096 2960.9 623.5 2954 623.5H2904C2897.53 623.5 2892.2 628.419 2891.56 634.722C2891.52 635.142 2891.5 635.569 2891.5 636V686C2891.5 692.904 2897.1 698.5 2904 698.5H2954ZM2896.92 636C2896.92 632.088 2900.09 628.917 2904 628.917L2926.3 628.917V658.276H2896.92V636ZM2896.92 663.693V686C2896.92 689.912 2900.09 693.083 2904 693.083H2926.3V663.693H2896.92ZM2931.72 693.083H2954C2957.91 693.083 2961.08 689.912 2961.08 686V663.693H2931.72V693.083ZM2961.08 658.276V636C2961.08 632.088 2957.91 628.917 2954 628.917H2931.72V658.276H2961.08Z" fill="black"/>
</g>
</g>
</g>
<g id="Heavy-S">
<g id="Outline / Calculate Outline_20">
<g id="Shape_20">
<path d="M2615.79 653.435C2614.29 653.435 2613.08 652.222 2613.08 650.726V647.184H2609.54C2608.04 647.184 2606.83 645.972 2606.83 644.476C2606.83 642.98 2608.04 641.768 2609.54 641.768H2613.08V638.226C2613.08 636.731 2614.29 635.518 2615.79 635.518C2617.28 635.518 2618.5 636.731 2618.5 638.226V641.768H2622.04C2623.53 641.768 2624.75 642.98 2624.75 644.476C2624.75 645.972 2623.53 647.184 2622.04 647.184H2618.5V650.726C2618.5 652.222 2617.28 653.435 2615.79 653.435Z" fill="black"/>
<path d="M2622.12 684.653C2621.07 685.71 2619.35 685.71 2618.29 684.653L2615.79 682.148L2613.28 684.652C2612.23 685.71 2610.51 685.71 2609.45 684.652C2608.4 683.595 2608.4 681.88 2609.45 680.822L2611.96 678.318L2609.45 675.814C2608.4 674.756 2608.4 673.041 2609.45 671.984C2610.51 670.926 2612.23 670.926 2613.28 671.984L2615.79 674.488L2618.29 671.983C2619.35 670.926 2621.07 670.926 2622.12 671.983C2623.18 673.041 2623.18 674.756 2622.12 675.813L2619.62 678.318L2622.12 680.822C2623.18 681.88 2623.18 683.595 2622.12 684.653Z" fill="black"/>
<path d="M2646.57 671.227C2645.07 671.227 2643.86 672.439 2643.86 673.935C2643.86 675.431 2645.07 676.643 2646.57 676.643H2654.9C2656.4 676.643 2657.61 675.431 2657.61 673.935C2657.61 672.439 2656.4 671.227 2654.9 671.227H2646.57Z" fill="black"/>
<path d="M2643.86 682.419C2643.86 680.923 2645.07 679.711 2646.57 679.711H2654.9C2656.4 679.711 2657.61 680.923 2657.61 682.419C2657.61 683.915 2656.4 685.127 2654.9 685.127H2646.57C2645.07 685.127 2643.86 683.915 2643.86 682.419Z" fill="black"/>
<path d="M2643.86 644.476C2643.86 642.98 2645.07 641.768 2646.57 641.768H2654.9C2656.4 641.768 2657.61 642.98 2657.61 644.476C2657.61 645.972 2656.4 647.184 2654.9 647.184H2646.57C2645.07 647.184 2643.86 645.972 2643.86 644.476Z" fill="black"/>
<path fill-rule="evenodd" clip-rule="evenodd" d="M2658 698.5C2664.9 698.5 2670.5 692.904 2670.5 686V636C2670.5 629.096 2664.9 623.5 2658 623.5H2608C2601.53 623.5 2596.2 628.419 2595.56 634.722C2595.52 635.142 2595.5 635.569 2595.5 636V686C2595.5 692.904 2601.1 698.5 2608 698.5H2658ZM2600.92 636C2600.92 632.088 2604.09 628.917 2608 628.917L2630.3 628.917V658.276H2600.92V636ZM2600.92 663.693V686C2600.92 689.912 2604.09 693.083 2608 693.083H2630.3V663.693H2600.92ZM2635.72 693.083H2658C2661.91 693.083 2665.08 689.912 2665.08 686V663.693H2635.72V693.083ZM2665.08 658.276V636C2665.08 632.088 2661.91 628.917 2658 628.917H2635.72V658.276H2665.08Z" fill="black"/>
</g>
</g>
</g>
<g id="Bold-S">
<g id="Outline / Calculate Outline_21">
<g id="Shape_21">
<path d="M2319.79 653.435C2318.29 653.435 2317.08 652.222 2317.08 650.726V647.184H2313.54C2312.04 647.184 2310.83 645.972 2310.83 644.476C2310.83 642.98 2312.04 641.768 2313.54 641.768H2317.08V638.226C2317.08 636.731 2318.29 635.518 2319.79 635.518C2321.28 635.518 2322.5 636.731 2322.5 638.226V641.768H2326.04C2327.53 641.768 2328.75 642.98 2328.75 644.476C2328.75 645.972 2327.53 647.184 2326.04 647.184H2322.5V650.726C2322.5 652.222 2321.28 653.435 2319.79 653.435Z" fill="black"/>
<path d="M2326.12 684.653C2325.07 685.71 2323.35 685.71 2322.29 684.653L2319.79 682.148L2317.28 684.652C2316.23 685.71 2314.51 685.71 2313.45 684.652C2312.4 683.595 2312.4 681.88 2313.45 680.822L2315.96 678.318L2313.45 675.814C2312.4 674.756 2312.4 673.041 2313.45 671.984C2314.51 670.926 2316.23 670.926 2317.28 671.984L2319.79 674.488L2322.29 671.983C2323.35 670.926 2325.07 670.926 2326.12 671.983C2327.18 673.041 2327.18 674.756 2326.12 675.813L2323.62 678.318L2326.12 680.822C2327.18 681.88 2327.18 683.595 2326.12 684.653Z" fill="black"/>
<path d="M2350.57 671.227C2349.07 671.227 2347.86 672.439 2347.86 673.935C2347.86 675.431 2349.07 676.643 2350.57 676.643H2358.9C2360.4 676.643 2361.61 675.431 2361.61 673.935C2361.61 672.439 2360.4 671.227 2358.9 671.227H2350.57Z" fill="black"/>
<path d="M2347.86 682.419C2347.86 680.923 2349.07 679.711 2350.57 679.711H2358.9C2360.4 679.711 2361.61 680.923 2361.61 682.419C2361.61 683.915 2360.4 685.127 2358.9 685.127H2350.57C2349.07 685.127 2347.86 683.915 2347.86 682.419Z" fill="black"/>
<path d="M2347.86 644.476C2347.86 642.98 2349.07 641.768 2350.57 641.768H2358.9C2360.4 641.768 2361.61 642.98 2361.61 644.476C2361.61 645.972 2360.4 647.184 2358.9 647.184H2350.57C2349.07 647.184 2347.86 645.972 2347.86 644.476Z" fill="black"/>
<path fill-rule="evenodd" clip-rule="evenodd" d="M2362 698.5C2368.9 698.5 2374.5 692.904 2374.5 686V636C2374.5 629.096 2368.9 623.5 2362 623.5H2312C2305.53 623.5 2300.2 628.419 2299.56 634.722C2299.52 635.142 2299.5 635.569 2299.5 636V686C2299.5 692.904 2305.1 698.5 2312 698.5H2362ZM2304.92 636C2304.92 632.088 2308.09 628.917 2312 628.917L2334.3 628.917V658.276H2304.92V636ZM2304.92 663.693V686C2304.92 689.912 2308.09 693.083 2312 693.083H2334.3V663.693H2304.92ZM2339.72 693.083H2362C2365.91 693.083 2369.08 689.912 2369.08 686V663.693H2339.72V693.083ZM2369.08 658.276V636C2369.08 632.088 2365.91 628.917 2362 628.917H2339.72V658.276H2369.08Z" fill="black"/>
</g>
</g>
</g>
<g id="Semibold-S">
<g id="Outline / Calculate Outline_22">
<g id="Shape_22">
<path d="M2023.79 653.435C2022.29 653.435 2021.08 652.222 2021.08 650.726V647.184H2017.54C2016.04 647.184 2014.83 645.972 2014.83 644.476C2014.83 642.98 2016.04 641.768 2017.54 641.768H2021.08V638.226C2021.08 636.731 2022.29 635.518 2023.79 635.518C2025.28 635.518 2026.5 636.731 2026.5 638.226V641.768H2030.04C2031.53 641.768 2032.75 642.98 2032.75 644.476C2032.75 645.972 2031.53 647.184 2030.04 647.184H2026.5V650.726C2026.5 652.222 2025.28 653.435 2023.79 653.435Z" fill="black"/>
<path d="M2030.12 684.653C2029.07 685.71 2027.35 685.71 2026.29 684.653L2023.79 682.148L2021.28 684.652C2020.23 685.71 2018.51 685.71 2017.45 684.652C2016.4 683.595 2016.4 681.88 2017.45 680.822L2019.96 678.318L2017.45 675.814C2016.4 674.756 2016.4 673.041 2017.45 671.984C2018.51 670.926 2020.23 670.926 2021.28 671.984L2023.79 674.488L2026.29 671.983C2027.35 670.926 2029.07 670.926 2030.12 671.983C2031.18 673.041 2031.18 674.756 2030.12 675.813L2027.62 678.318L2030.12 680.822C2031.18 681.88 2031.18 683.595 2030.12 684.653Z" fill="black"/>
<path d="M2054.57 671.227C2053.07 671.227 2051.86 672.439 2051.86 673.935C2051.86 675.431 2053.07 676.643 2054.57 676.643H2062.9C2064.4 676.643 2065.61 675.431 2065.61 673.935C2065.61 672.439 2064.4 671.227 2062.9 671.227H2054.57Z" fill="black"/>
<path d="M2051.86 682.419C2051.86 680.923 2053.07 679.711 2054.57 679.711H2062.9C2064.4 679.711 2065.61 680.923 2065.61 682.419C2065.61 683.915 2064.4 685.127 2062.9 685.127H2054.57C2053.07 685.127 2051.86 683.915 2051.86 682.419Z" fill="black"/>
<path d="M2051.86 644.476C2051.86 642.98 2053.07 641.768 2054.57 641.768H2062.9C2064.4 641.768 2065.61 642.98 2065.61 644.476C2065.61 645.972 2064.4 647.184 2062.9 647.184H2054.57C2053.07 647.184 2051.86 645.972 2051.86 644.476Z" fill="black"/>
<path fill-rule="evenodd" clip-rule="evenodd" d="M2066 698.5C2072.9 698.5 2078.5 692.904 2078.5 686V636C2078.5 629.096 2072.9 623.5 2066 623.5H2016C2009.53 623.5 2004.2 628.419 2003.56 634.722C2003.52 635.142 2003.5 635.569 2003.5 636V686C2003.5 692.904 2009.1 698.5 2016 698.5H2066ZM2008.92 636C2008.92 632.088 2012.09 628.917 2016 628.917L2038.3 628.917V658.276H2008.92V636ZM2008.92 663.693V686C2008.92 689.912 2012.09 693.083 2016 693.083H2038.3V663.693H2008.92ZM2043.72 693.083H2066C2069.91 693.083 2073.08 689.912 2073.08 686V663.693H2043.72V693.083ZM2073.08 658.276V636C2073.08 632.088 2069.91 628.917 2066 628.917H2043.72V658.276H2073.08Z" fill="black"/>
</g>
</g>
</g>
<g id="Medium-S">
<g id="Outline / Calculate Outline_23">
<g id="Shape_23">
<path d="M1727.79 653.435C1726.29 653.435 1725.08 652.222 1725.08 650.726V647.184H1721.54C1720.04 647.184 1718.83 645.972 1718.83 644.476C1718.83 642.98 1720.04 641.768 1721.54 641.768H1725.08V638.226C1725.08 636.731 1726.29 635.518 1727.79 635.518C1729.28 635.518 1730.5 636.731 1730.5 638.226V641.768H1734.04C1735.53 641.768 1736.75 642.98 1736.75 644.476C1736.75 645.972 1735.53 647.184 1734.04 647.184H1730.5V650.726C1730.5 652.222 1729.28 653.435 1727.79 653.435Z" fill="black"/>
<path d="M1734.12 684.653C1733.07 685.71 1731.35 685.71 1730.29 684.653L1727.79 682.148L1725.28 684.652C1724.23 685.71 1722.51 685.71 1721.45 684.652C1720.4 683.595 1720.4 681.88 1721.45 680.822L1723.96 678.318L1721.45 675.814C1720.4 674.756 1720.4 673.041 1721.45 671.984C1722.51 670.926 1724.23 670.926 1725.28 671.984L1727.79 674.488L1730.29 671.983C1731.35 670.926 1733.07 670.926 1734.12 671.983C1735.18 673.041 1735.18 674.756 1734.12 675.813L1731.62 678.318L1734.12 680.822C1735.18 681.88 1735.18 683.595 1734.12 684.653Z" fill="black"/>
<path d="M1758.57 671.227C1757.07 671.227 1755.86 672.439 1755.86 673.935C1755.86 675.431 1757.07 676.643 1758.57 676.643H1766.9C1768.4 676.643 1769.61 675.431 1769.61 673.935C1769.61 672.439 1768.4 671.227 1766.9 671.227H1758.57Z" fill="black"/>
<path d="M1755.86 682.419C1755.86 680.923 1757.07 679.711 1758.57 679.711H1766.9C1768.4 679.711 1769.61 680.923 1769.61 682.419C1769.61 683.915 1768.4 685.127 1766.9 685.127H1758.57C1757.07 685.127 1755.86 683.915 1755.86 682.419Z" fill="black"/>
<path d="M1755.86 644.476C1755.86 642.98 1757.07 641.768 1758.57 641.768H1766.9C1768.4 641.768 1769.61 642.98 1769.61 644.476C1769.61 645.972 1768.4 647.184 1766.9 647.184H1758.57C1757.07 647.184 1755.86 645.972 1755.86 644.476Z" fill="black"/>
<path fill-rule="evenodd" clip-rule="evenodd" d="M1770 698.5C1776.9 698.5 1782.5 692.904 1782.5 686V636C1782.5 629.096 1776.9 623.5 1770 623.5H1720C1713.53 623.5 1708.2 628.419 1707.56 634.722C1707.52 635.142 1707.5 635.569 1707.5 636V686C1707.5 692.904 1713.1 698.5 1720 698.5H1770ZM1712.92 636C1712.92 632.088 1716.09 628.917 1720 628.917L1742.3 628.917V658.276H1712.92V636ZM1712.92 663.693V686C1712.92 689.912 1716.09 693.083 1720 693.083H1742.3V663.693H1712.92ZM1747.72 693.083H1770C1773.91 693.083 1777.08 689.912 1777.08 686V663.693H1747.72V693.083ZM1777.08 658.276V636C1777.08 632.088 1773.91 628.917 1770 628.917H1747.72V658.276H1777.08Z" fill="black"/>
</g>
</g>
</g>
<g id="Regular-S">
<g id="Outline / Calculate Outline_24">
<g id="Shape_24">
<path d="M1431.79 653.435C1430.29 653.435 1429.08 652.222 1429.08 650.726V647.184H1425.54C1424.04 647.184 1422.83 645.972 1422.83 644.476C1422.83 642.98 1424.04 641.768 1425.54 641.768H1429.08V638.226C1429.08 636.731 1430.29 635.518 1431.79 635.518C1433.28 635.518 1434.5 636.731 1434.5 638.226V641.768H1438.04C1439.53 641.768 1440.75 642.98 1440.75 644.476C1440.75 645.972 1439.53 647.184 1438.04 647.184H1434.5V650.726C1434.5 652.222 1433.28 653.435 1431.79 653.435Z" fill="black"/>
<path d="M1438.12 684.653C1437.07 685.71 1435.35 685.71 1434.29 684.653L1431.79 682.148L1429.28 684.652C1428.23 685.71 1426.51 685.71 1425.45 684.652C1424.4 683.595 1424.4 681.88 1425.45 680.822L1427.96 678.318L1425.45 675.814C1424.4 674.756 1424.4 673.041 1425.45 671.984C1426.51 670.926 1428.23 670.926 1429.28 671.984L1431.79 674.488L1434.29 671.983C1435.35 670.926 1437.07 670.926 1438.12 671.983C1439.18 673.041 1439.18 674.756 1438.12 675.813L1435.62 678.318L1438.12 680.822C1439.18 681.88 1439.18 683.595 1438.12 684.653Z" fill="black"/>
<path d="M1462.57 671.227C1461.07 671.227 1459.86 672.439 1459.86 673.935C1459.86 675.431 1461.07 676.643 1462.57 676.643H1470.9C1472.4 676.643 1473.61 675.431 1473.61 673.935C1473.61 672.439 1472.4 671.227 1470.9 671.227H1462.57Z" fill="black"/>
<path d="M1459.86 682.419C1459.86 680.923 1461.07 679.711 1462.57 679.711H1470.9C1472.4 679.711 1473.61 680.923 1473.61 682.419C1473.61 683.915 1472.4 685.127 1470.9 685.127H1462.57C1461.07 685.127 1459.86 683.915 1459.86 682.419Z" fill="black"/>
<path d="M1459.86 644.476C1459.86 642.98 1461.07 641.768 1462.57 641.768H1470.9C1472.4 641.768 1473.61 642.98 1473.61 644.476C1473.61 645.972 1472.4 647.184 1470.9 647.184H1462.57C1461.07 647.184 1459.86 645.972 1459.86 644.476Z" fill="black"/>
<path fill-rule="evenodd" clip-rule="evenodd" d="M1474 698.5C1480.9 698.5 1486.5 692.904 1486.5 686V636C1486.5 629.096 1480.9 623.5 1474 623.5H1424C1417.53 623.5 1412.2 628.419 1411.56 634.722C1411.52 635.142 1411.5 635.569 1411.5 636V686C1411.5 692.904 1417.1 698.5 1424 698.5H1474ZM1416.92 636C1416.92 632.088 1420.09 628.917 1424 628.917L1446.3 628.917V658.276H1416.92V636ZM1416.92 663.693V686C1416.92 689.912 1420.09 693.083 1424 693.083H1446.3V663.693H1416.92ZM1451.72 693.083H1474C1477.91 693.083 1481.08 689.912 1481.08 686V663.693H1451.72V693.083ZM1481.08 658.276V636C1481.08 632.088 1477.91 628.917 1474 628.917H1451.72V658.276H1481.08Z" fill="black"/>
</g>
</g>
</g>
<g id="Light-S">
<g id="Outline / Calculate Outline_25">
<g id="Shape_25">
<path d="M1135.79 653.435C1134.29 653.435 1133.08 652.222 1133.08 650.726V647.184H1129.54C1128.04 647.184 1126.83 645.972 1126.83 644.476C1126.83 642.98 1128.04 641.768 1129.54 641.768H1133.08V638.226C1133.08 636.731 1134.29 635.518 1135.79 635.518C1137.28 635.518 1138.5 636.731 1138.5 638.226V641.768H1142.04C1143.53 641.768 1144.75 642.98 1144.75 644.476C1144.75 645.972 1143.53 647.184 1142.04 647.184H1138.5V650.726C1138.5 652.222 1137.28 653.435 1135.79 653.435Z" fill="black"/>
<path d="M1142.12 684.653C1141.07 685.71 1139.35 685.71 1138.29 684.653L1135.79 682.148L1133.28 684.652C1132.23 685.71 1130.51 685.71 1129.45 684.652C1128.4 683.595 1128.4 681.88 1129.45 680.822L1131.96 678.318L1129.45 675.814C1128.4 674.756 1128.4 673.041 1129.45 671.984C1130.51 670.926 1132.23 670.926 1133.28 671.984L1135.79 674.488L1138.29 671.983C1139.35 670.926 1141.07 670.926 1142.12 671.983C1143.18 673.041 1143.18 674.756 1142.12 675.813L1139.62 678.318L1142.12 680.822C1143.18 681.88 1143.18 683.595 1142.12 684.653Z" fill="black"/>
<path d="M1166.57 671.227C1165.07 671.227 1163.86 672.439 1163.86 673.935C1163.86 675.431 1165.07 676.643 1166.57 676.643H1174.9C1176.4 676.643 1177.61 675.431 1177.61 673.935C1177.61 672.439 1176.4 671.227 1174.9 671.227H1166.57Z" fill="black"/>
<path d="M1163.86 682.419C1163.86 680.923 1165.07 679.711 1166.57 679.711H1174.9C1176.4 679.711 1177.61 680.923 1177.61 682.419C1177.61 683.915 1176.4 685.127 1174.9 685.127H1166.57C1165.07 685.127 1163.86 683.915 1163.86 682.419Z" fill="black"/>
<path d="M1163.86 644.476C1163.86 642.98 1165.07 641.768 1166.57 641.768H1174.9C1176.4 641.768 1177.61 642.98 1177.61 644.476C1177.61 645.972 1176.4 647.184 1174.9 647.184H1166.57C1165.07 647.184 1163.86 645.972 1163.86 644.476Z" fill="black"/>
<path fill-rule="evenodd" clip-rule="evenodd" d="M1178 698.5C1184.9 698.5 1190.5 692.904 1190.5 686V636C1190.5 629.096 1184.9 623.5 1178 623.5H1128C1121.53 623.5 1116.2 628.419 1115.56 634.722C1115.52 635.142 1115.5 635.569 1115.5 636V686C1115.5 692.904 1121.1 698.5 1128 698.5H1178ZM1120.92 636C1120.92 632.088 1124.09 628.917 1128 628.917L1150.3 628.917V658.276H1120.92V636ZM1120.92 663.693V686C1120.92 689.912 1124.09 693.083 1128 693.083H1150.3V663.693H1120.92ZM1155.72 693.083H1178C1181.91 693.083 1185.08 689.912 1185.08 686V663.693H1155.72V693.083ZM1185.08 658.276V636C1185.08 632.088 1181.91 628.917 1178 628.917H1155.72V658.276H1185.08Z" fill="black"/>
</g>
</g>
</g>
<g id="Thin-S">
<g id="Outline / Calculate Outline_26">
<g id="Shape_26">
<path d="M839.789 653.435C838.293 653.435 837.081 652.222 837.081 650.726V647.184H833.539C832.043 647.184 830.831 645.972 830.831 644.476C830.831 642.98 832.043 641.768 833.539 641.768H837.081V638.226C837.081 636.731 838.293 635.518 839.789 635.518C841.285 635.518 842.497 636.731 842.497 638.226V641.768H846.039C847.535 641.768 848.747 642.98 848.747 644.476C848.747 645.972 847.535 647.184 846.039 647.184H842.497V650.726C842.497 652.222 841.285 653.435 839.789 653.435Z" fill="black"/>
<path d="M846.124 684.653C845.066 685.71 843.351 685.71 842.293 684.653L839.789 682.148L837.284 684.652C836.227 685.71 834.512 685.71 833.454 684.652C832.397 683.595 832.397 681.88 833.454 680.822L835.959 678.318L833.455 675.814C832.397 674.756 832.397 673.041 833.455 671.984C834.512 670.926 836.227 670.926 837.285 671.984L839.789 674.488L842.293 671.983C843.351 670.926 845.066 670.926 846.123 671.983C847.181 673.041 847.181 674.756 846.123 675.813L843.619 678.318L846.124 680.822C847.181 681.88 847.181 683.595 846.124 684.653Z" fill="black"/>
<path d="M870.567 671.227C869.071 671.227 867.859 672.439 867.859 673.935C867.859 675.431 869.071 676.643 870.567 676.643H878.901C880.396 676.643 881.609 675.431 881.609 673.935C881.609 672.439 880.396 671.227 878.901 671.227H870.567Z" fill="black"/>
<path d="M867.859 682.419C867.859 680.923 869.071 679.711 870.567 679.711H878.901C880.396 679.711 881.609 680.923 881.609 682.419C881.609 683.915 880.396 685.127 878.901 685.127H870.567C869.071 685.127 867.859 683.915 867.859 682.419Z" fill="black"/>
<path d="M867.859 644.476C867.859 642.98 869.071 641.768 870.567 641.768H878.901C880.396 641.768 881.609 642.98 881.609 644.476C881.609 645.972 880.396 647.184 878.901 647.184H870.567C869.071 647.184 867.859 645.972 867.859 644.476Z" fill="black"/>
<path fill-rule="evenodd" clip-rule="evenodd" d="M882 698.5C888.904 698.5 894.5 692.904 894.5 686V636C894.5 629.096 888.904 623.5 882 623.5H832C825.528 623.5 820.205 628.419 819.565 634.722C819.522 635.142 819.5 635.569 819.5 636V686C819.5 692.904 825.096 698.5 832 698.5H882ZM824.917 636C824.917 632.088 828.088 628.917 832 628.917L854.301 628.917V658.276H824.917V636ZM824.917 663.693V686C824.917 689.912 828.088 693.083 832 693.083H854.301V663.693H824.917ZM859.717 693.083H882C885.912 693.083 889.083 689.912 889.083 686V663.693H859.717V693.083ZM889.083 658.276V636C889.083 632.088 885.912 628.917 882 628.917H859.717V658.276H889.083Z" fill="black"/>
</g>
</g>
</g>
<g id="Ultralight-S">
<g id="Outline / Calculate Outline_27">
<g id="Shape_27">
<path d="M543.789 653.435C542.293 653.435 541.081 652.222 541.081 650.726V647.184H537.539C536.043 647.184 534.831 645.972 534.831 644.476C534.831 642.98 536.043 641.768 537.539 641.768H541.081V638.226C541.081 636.731 542.293 635.518 543.789 635.518C545.285 635.518 546.497 636.731 546.497 638.226V641.768H550.039C551.535 641.768 552.747 642.98 552.747 644.476C552.747 645.972 551.535 647.184 550.039 647.184H546.497V650.726C546.497 652.222 545.285 653.435 543.789 653.435Z" fill="black"/>
<path d="M550.124 684.653C549.066 685.71 547.351 685.71 546.293 684.653L543.789 682.148L541.284 684.652C540.227 685.71 538.512 685.71 537.454 684.652C536.397 683.595 536.397 681.88 537.454 680.822L539.959 678.318L537.455 675.814C536.397 674.756 536.397 673.041 537.455 671.984C538.512 670.926 540.227 670.926 541.285 671.984L543.789 674.488L546.293 671.983C547.351 670.926 549.066 670.926 550.123 671.983C551.181 673.041 551.181 674.756 550.123 675.813L547.619 678.318L550.124 680.822C551.181 681.88 551.181 683.595 550.124 684.653Z" fill="black"/>
<path d="M574.567 671.227C573.071 671.227 571.859 672.439 571.859 673.935C571.859 675.431 573.071 676.643 574.567 676.643H582.901C584.396 676.643 585.609 675.431 585.609 673.935C585.609 672.439 584.396 671.227 582.901 671.227H574.567Z" fill="black"/>
<path d="M571.859 682.419C571.859 680.923 573.071 679.711 574.567 679.711H582.901C584.396 679.711 585.609 680.923 585.609 682.419C585.609 683.915 584.396 685.127 582.901 685.127H574.567C573.071 685.127 571.859 683.915 571.859 682.419Z" fill="black"/>
<path d="M571.859 644.476C571.859 642.98 573.071 641.768 574.567 641.768H582.901C584.396 641.768 585.609 642.98 585.609 644.476C585.609 645.972 584.396 647.184 582.901 647.184H574.567C573.071 647.184 571.859 645.972 571.859 644.476Z" fill="black"/>
<path fill-rule="evenodd" clip-rule="evenodd" d="M586 698.5C592.904 698.5 598.5 692.904 598.5 686V636C598.5 629.096 592.904 623.5 586 623.5H536C529.528 623.5 524.205 628.419 523.565 634.722C523.522 635.142 523.5 635.569 523.5 636V686C523.5 692.904 529.096 698.5 536 698.5H586ZM528.917 636C528.917 632.088 532.088 628.917 536 628.917L558.301 628.917V658.276H528.917V636ZM528.917 663.693V686C528.917 689.912 532.088 693.083 536 693.083H558.301V663.693H528.917ZM563.717 693.083H586C589.912 693.083 593.083 689.912 593.083 686V663.693H563.717V693.083ZM593.083 658.276V636C593.083 632.088 589.912 628.917 586 628.917H563.717V658.276H593.083Z" fill="black"/>
</g>
</g>
</g>
</g>
</g>
<defs>
<clipPath id="clip0_805_27002">
<rect width="3300" height="2200" fill="white"/>
</clipPath>
</defs>
</svg>
