<svg width="3300" height="2200" viewBox="0 0 3300 2200" fill="none" xmlns="http://www.w3.org/2000/svg">
<rect width="3300" height="2200" fill="#E5E5E5"/>
<g id="Finance / Outline / GBP" clip-path="url(#clip0_0_1)">
<g id="Notes">
<path id="artboard" d="M3300 0H0V2200H3300V0Z" fill="white"/>
<path id="Vector" d="M263 292H3036" stroke="black" stroke-width="0.5"/>
<text id="Weight/Scale Variations" fill="black" xml:space="preserve" style="white-space: pre" font-family="Roboto" font-size="12" letter-spacing="0em"><tspan x="263" y="321.102">Weight/Scale Variations</tspan></text>
<text id="Ultralight" fill="black" xml:space="preserve" style="white-space: pre" font-family="Roboto" font-size="12" letter-spacing="0em"><tspan x="535.211" y="321.102">Ultralight</tspan></text>
<text id="Thin" fill="black" xml:space="preserve" style="white-space: pre" font-family="Roboto" font-size="12" letter-spacing="0em"><tspan x="844.422" y="321.102">Thin</tspan></text>
<text id="Light" fill="black" xml:space="preserve" style="white-space: pre" font-family="Roboto" font-size="12" letter-spacing="0em"><tspan x="1139.63" y="321.102">Light</tspan></text>
<text id="Regular" fill="black" xml:space="preserve" style="white-space: pre" font-family="Roboto" font-size="12" letter-spacing="0em"><tspan x="1429.34" y="321.102">Regular</tspan></text>
<text id="Medium" fill="black" xml:space="preserve" style="white-space: pre" font-family="Roboto" font-size="12" letter-spacing="0em"><tspan x="1724.56" y="321.102">Medium</tspan></text>
<text id="Semibold" fill="black" xml:space="preserve" style="white-space: pre" font-family="Roboto" font-size="12" letter-spacing="0em"><tspan x="2017.77" y="321.102">Semibold</tspan></text>
<text id="Bold" fill="black" xml:space="preserve" style="white-space: pre" font-family="Roboto" font-size="12" letter-spacing="0em"><tspan x="2327.48" y="321.102">Bold</tspan></text>
<text id="Heavy" fill="black" xml:space="preserve" style="white-space: pre" font-family="Roboto" font-size="12" letter-spacing="0em"><tspan x="2620.19" y="321.102">Heavy</tspan></text>
<text id="Black" fill="black" xml:space="preserve" style="white-space: pre" font-family="Roboto" font-size="12" letter-spacing="0em"><tspan x="2918.4" y="321.102">Black</tspan></text>
<path id="Vector_2" d="M263 1903H3036" stroke="black" stroke-width="0.5"/>
<g id="Group">
<path id="Vector_3" d="M272.248 1933.83C276.555 1933.83 280.139 1930.26 280.139 1925.95C280.139 1921.64 276.545 1918.07 272.238 1918.07C267.941 1918.07 264.367 1921.64 264.367 1925.95C264.367 1930.26 267.951 1933.83 272.248 1933.83ZM272.248 1932.35C268.703 1932.35 265.871 1929.5 265.871 1925.95C265.871 1922.39 268.693 1919.55 272.238 1919.55C275.793 1919.55 278.635 1922.39 278.644 1925.95C278.654 1929.5 275.803 1932.35 272.248 1932.35ZM272.229 1929.57C272.697 1929.57 272.971 1929.26 272.971 1928.74V1926.68H275.197C275.695 1926.68 276.037 1926.43 276.037 1925.96C276.037 1925.48 275.715 1925.22 275.197 1925.22H272.971V1922.99C272.971 1922.47 272.697 1922.15 272.229 1922.15C271.76 1922.15 271.506 1922.49 271.506 1922.99V1925.22H269.299C268.781 1925.22 268.449 1925.48 268.449 1925.96C268.449 1926.43 268.801 1926.68 269.299 1926.68H271.506V1928.74C271.506 1929.24 271.76 1929.57 272.229 1929.57Z" fill="black"/>
</g>
<g id="Group_2">
<path id="Vector_4" d="M293.215 1935.91C298.664 1935.91 303.176 1931.4 303.176 1925.95C303.176 1920.51 298.654 1915.99 293.205 1915.99C287.766 1915.99 283.254 1920.51 283.254 1925.95C283.254 1931.4 287.775 1935.91 293.215 1935.91ZM293.215 1934.25C288.605 1934.25 284.924 1930.56 284.924 1925.95C284.924 1921.35 288.596 1917.65 293.205 1917.65C297.814 1917.65 301.506 1921.35 301.516 1925.95C301.525 1930.56 297.824 1934.25 293.215 1934.25ZM293.195 1930.59C293.713 1930.59 294.025 1930.23 294.025 1929.66V1926.77H297.082C297.629 1926.77 298.01 1926.49 298.01 1925.97C298.01 1925.44 297.648 1925.14 297.082 1925.14H294.025V1922.07C294.025 1921.5 293.713 1921.14 293.195 1921.14C292.678 1921.14 292.385 1921.52 292.385 1922.07V1925.14H289.338C288.771 1925.14 288.4 1925.44 288.4 1925.97C288.4 1926.49 288.791 1926.77 289.338 1926.77H292.385V1929.66C292.385 1930.21 292.678 1930.59 293.195 1930.59Z" fill="black"/>
</g>
<g id="Group_3">
<path id="Vector_5" d="M319.895 1938.67C326.857 1938.67 332.619 1932.92 332.619 1925.96C332.619 1919 326.848 1913.24 319.885 1913.24C312.932 1913.24 307.18 1919 307.18 1925.96C307.18 1932.92 312.941 1938.67 319.895 1938.67ZM319.895 1936.86C313.859 1936.86 309.006 1931.99 309.006 1925.96C309.006 1919.92 313.85 1915.06 319.885 1915.06C325.93 1915.06 330.783 1919.92 330.793 1925.96C330.803 1931.99 325.939 1936.86 319.895 1936.86ZM319.875 1931.94C320.441 1931.94 320.793 1931.54 320.793 1930.94V1926.87H325.031C325.617 1926.87 326.037 1926.54 326.037 1925.98C326.037 1925.4 325.647 1925.06 325.031 1925.06H320.793V1920.81C320.793 1920.2 320.441 1919.81 319.875 1919.81C319.309 1919.81 318.986 1920.22 318.986 1920.81V1925.06H314.758C314.143 1925.06 313.732 1925.4 313.732 1925.98C313.732 1926.54 314.162 1926.87 314.758 1926.87H318.986V1930.94C318.986 1931.53 319.309 1931.94 319.875 1931.94Z" fill="black"/>
</g>
<text id="Design Variations" fill="black" xml:space="preserve" style="white-space: pre" font-family="Roboto" font-size="12" letter-spacing="0em"><tspan x="263" y="1952.1">Design Variations</tspan></text>
<text id="Symbols are supported in up to nine weights and three scales." fill="black" xml:space="preserve" style="white-space: pre" font-family="Roboto" font-size="12" letter-spacing="0em"><tspan x="263" y="1970.1">Symbols are supported in up to nine weights and three scales.</tspan></text>
<text id="For optimal layout with text and other symbols, vertically align" fill="black" xml:space="preserve" style="white-space: pre" font-family="Roboto" font-size="12" letter-spacing="0em"><tspan x="263" y="1988.1">For optimal layout with text and other symbols, vertically align</tspan></text>
<text id="symbols with the adjacent text." fill="black" xml:space="preserve" style="white-space: pre" font-family="Roboto" font-size="12" letter-spacing="0em"><tspan x="263" y="2006.1">symbols with the adjacent text.</tspan></text>
<path id="Vector_6" opacity="0.4" d="M779 1919H776V1933H779V1919Z" fill="#00AEEF"/>
<g id="Group_4">
<path id="Vector_7" d="M789.527 1933H791.373L786.178 1918.91H784.439L779.244 1933H781.09L782.506 1928.97H788.111L789.527 1933ZM785.279 1921.05H785.338L787.594 1927.47H783.023L785.279 1921.05Z" fill="black"/>
</g>
<path id="Vector_8" opacity="0.4" d="M794.617 1919H791.617V1933H794.617V1919Z" fill="#00AEEF"/>
<text id="Margins" fill="black" xml:space="preserve" style="white-space: pre" font-family="Roboto" font-size="12" letter-spacing="0em"><tspan x="776" y="1952.1">Margins</tspan></text>
<text id="Leading and trailing margins on the left and right side of each symbol" fill="black" xml:space="preserve" style="white-space: pre" font-family="Roboto" font-size="12" letter-spacing="0em"><tspan x="776" y="1970.1">Leading and trailing margins on the left and right side of each symbol</tspan></text>
<text id="can be adjusted by modifying the width of the blue rectangles." fill="black" xml:space="preserve" style="white-space: pre" font-family="Roboto" font-size="12" letter-spacing="0em"><tspan x="776" y="1988.1">can be adjusted by modifying the width of the blue rectangles.</tspan></text>
<text id="Modifications are automatically applied proportionally to all" fill="black" xml:space="preserve" style="white-space: pre" font-family="Roboto" font-size="12" letter-spacing="0em"><tspan x="776" y="2006.1">Modifications are automatically applied proportionally to all</tspan></text>
<text id="scales and weights." fill="black" xml:space="preserve" style="white-space: pre" font-family="Roboto" font-size="12" letter-spacing="0em"><tspan x="776" y="2024.1">scales and weights.</tspan></text>
<g id="Group_5">
<path id="Vector_9" d="M1291.83 1936.12L1293.37 1937.66C1294.22 1938.49 1295.19 1938.42 1296.06 1937.46L1306.27 1926.34C1306.7 1926.63 1307.1 1926.62 1307.56 1926.53L1308.61 1926.31L1309.3 1927L1309.25 1927.52C1309.19 1928.05 1309.35 1928.47 1309.85 1928.97L1310.66 1929.78C1311.17 1930.29 1311.82 1930.31 1312.3 1929.84L1315.55 1926.58C1316.03 1926.11 1316.01 1925.45 1315.5 1924.94L1314.68 1924.12C1314.19 1923.62 1313.77 1923.45 1313.24 1923.53L1312.71 1923.59L1312.06 1922.92L1312.34 1921.78C1312.49 1921.21 1312.34 1920.74 1311.71 1920.14L1309.3 1917.75C1305.76 1914.22 1301.23 1914.33 1298.11 1917.46C1297.69 1917.89 1297.64 1918.48 1297.92 1918.91C1298.15 1919.28 1298.63 1919.5 1299.27 1919.34C1300.79 1918.96 1302.3 1919.07 1303.78 1920.08L1303.16 1921.66C1302.93 1922.25 1302.94 1922.73 1303.18 1923.17L1292.02 1933.44C1291.08 1934.31 1290.97 1935.26 1291.83 1936.12ZM1299.67 1917.85C1302.34 1915.86 1305.65 1916.17 1308.05 1918.59L1310.68 1921.19C1310.91 1921.43 1310.94 1921.61 1310.88 1921.91L1310.5 1923.47L1312.08 1925.04L1313.04 1924.95C1313.33 1924.92 1313.41 1924.94 1313.64 1925.17L1314.26 1925.79L1311.51 1928.54L1310.88 1927.92C1310.66 1927.7 1310.64 1927.6 1310.67 1927.32L1310.76 1926.36L1309.19 1924.8L1307.57 1925.11C1307.29 1925.17 1307.14 1925.17 1306.91 1924.92L1304.73 1922.75C1304.51 1922.51 1304.48 1922.37 1304.61 1922.05L1305.55 1919.78C1303.95 1918.24 1301.84 1917.39 1299.8 1918.05C1299.71 1918.08 1299.64 1918.06 1299.61 1918.02C1299.59 1917.97 1299.59 1917.92 1299.67 1917.85ZM1293.1 1935.41C1292.61 1934.91 1292.79 1934.61 1293.12 1934.31L1304.08 1924.19L1305.31 1925.42L1295.15 1936.35C1294.85 1936.68 1294.47 1936.78 1294.07 1936.38L1293.1 1935.41Z" fill="black"/>
</g>
<text id="Exporting" fill="black" xml:space="preserve" style="white-space: pre" font-family="Roboto" font-size="12" letter-spacing="0em"><tspan x="1289" y="1952.1">Exporting</tspan></text>
<text id="Symbols should be outlined when exporting to ensure the" fill="black" xml:space="preserve" style="white-space: pre" font-family="Roboto" font-size="12" letter-spacing="0em"><tspan x="1289" y="1970.1">Symbols should be outlined when exporting to ensure the</tspan></text>
<text id="design is preserved when submitting to Xcode." fill="black" xml:space="preserve" style="white-space: pre" font-family="Roboto" font-size="12" letter-spacing="0em"><tspan x="1289" y="1988.1">design is preserved when submitting to Xcode.</tspan></text>
<text id="template-version" fill="black" xml:space="preserve" style="white-space: pre" font-family="Roboto" font-size="12" letter-spacing="0em"><tspan x="2958" y="1932.1">Template v.1.0</tspan></text>
<text id="Generated from pencil.circle" fill="black" xml:space="preserve" style="white-space: pre" font-family="Roboto" font-size="12" letter-spacing="0em"><tspan x="2885" y="1950.1">Generated from pencil.circle</tspan></text>
<text id="Typeset at 100 points" fill="black" xml:space="preserve" style="white-space: pre" font-family="Roboto" font-size="12" letter-spacing="0em"><tspan x="2921" y="1968.1">Typeset at 100 points</tspan></text>
<text id="Small" fill="black" xml:space="preserve" style="white-space: pre" font-family="Roboto" font-size="12" letter-spacing="0em"><tspan x="263" y="725.102">Small</tspan></text>
<text id="Medium_2" fill="black" xml:space="preserve" style="white-space: pre" font-family="Roboto" font-size="12" letter-spacing="0em"><tspan x="263" y="1155.1">Medium</tspan></text>
<text id="Large" fill="black" xml:space="preserve" style="white-space: pre" font-family="Roboto" font-size="12" letter-spacing="0em"><tspan x="263" y="1585.1">Large</tspan></text>
</g>
<g id="Guides">
<g id="H-reference">
<path id="Vector_10" d="M393.932 696H396.666L369.566 625.541H367.076L339.977 696H342.662L351.94 671.537H384.703L393.932 696ZM368.199 628.91H368.443L383.824 669.291H352.818L368.199 628.91Z" fill="#27AAE1"/>
</g>
<path id="Baseline-S" d="M263 696H3036" stroke="#27AAE1" stroke-width="0.577"/>
<path id="Capline-S" d="M263 626H3036" stroke="#27AAE1" stroke-width="0.577"/>
<g id="H-reference_2">
<path id="Vector_11" d="M393.932 1126H396.666L369.566 1055.54H367.076L339.977 1126H342.662L351.94 1101.54H384.703L393.932 1126ZM368.199 1058.91H368.443L383.824 1099.29H352.818L368.199 1058.91Z" fill="#27AAE1"/>
</g>
<path id="Baseline-M" d="M263 1126H3036" stroke="#27AAE1" stroke-width="0.577"/>
<path id="Capline-M" d="M263 1056H3036" stroke="#27AAE1" stroke-width="0.577"/>
<g id="H-reference_3">
<path id="Vector_12" d="M393.932 1556H396.666L369.566 1485.54H367.076L339.977 1556H342.662L351.94 1531.54H384.703L393.932 1556ZM368.199 1488.91H368.443L383.824 1529.29H352.818L368.199 1488.91Z" fill="#27AAE1"/>
</g>
<g id="Group 1">
<path id="Baseline-L" d="M263 1556H3036" stroke="#27AAE1" stroke-width="0.577"/>
<path id="Capline-L" d="M263 1486H3036" stroke="#27AAE1" stroke-width="0.577"/>
</g>
<path id="left-margin" opacity="0.4" d="M1396.04 1030.79H1387.3V1150.13H1396.04V1030.79Z" fill="#00AEEF"/>
<path id="right-margin" opacity="0.4" d="M1510.39 1030.79H1501.65V1150.13H1510.39V1030.79Z" fill="#00AEEF"/>
</g>
<g id="Symbols">
<g id="Black-L">
<g id="Outline / GBP Outline">
<g id="Shape">
<path d="M2931.62 1483.48C2936.97 1483.12 2942.84 1484.63 2946.61 1488.27C2948.55 1490.14 2948.61 1493.23 2946.74 1495.17C2944.87 1497.11 2941.78 1497.16 2939.85 1495.29C2938.58 1494.07 2935.71 1492.97 2932.28 1493.21C2928.97 1493.43 2926.16 1494.82 2924.6 1497.21C2922.73 1500.06 2922.18 1503.02 2922.23 1507.2C2922.25 1509.11 2922.38 1511.13 2922.54 1513.48L2922.61 1514.46C2922.67 1515.39 2922.74 1516.35 2922.79 1517.35H2934.85C2937.54 1517.35 2939.72 1519.53 2939.72 1522.23C2939.72 1524.92 2937.54 1527.1 2934.85 1527.1H2922.84C2922.29 1533.7 2920.24 1539.41 2917.53 1543.89C2917.31 1544.26 2917.09 1544.62 2916.86 1544.98L2947.21 1544.98C2949.9 1544.98 2952.08 1547.16 2952.08 1549.85C2952.08 1552.54 2949.9 1554.73 2947.21 1554.73L2904.36 1554.73C2901.98 1554.73 2899.94 1553 2899.55 1550.65C2899.16 1548.29 2900.53 1546 2902.79 1545.24C2904.14 1544.78 2906.79 1542.83 2909.18 1538.86C2911.03 1535.79 2912.54 1531.8 2913.04 1527.1H2904.66C2901.96 1527.1 2899.78 1524.92 2899.78 1522.23C2899.78 1519.53 2901.96 1517.35 2904.66 1517.35H2913.02C2912.98 1516.6 2912.93 1515.85 2912.88 1515.12L2912.82 1514.15C2912.66 1511.84 2912.5 1509.51 2912.48 1507.31C2912.42 1502.14 2913.09 1496.97 2916.45 1491.85C2920.11 1486.27 2926.14 1483.85 2931.62 1483.48Z" fill="black"/>
<path fill-rule="evenodd" clip-rule="evenodd" d="M2861.5 1521C2861.5 1483.72 2891.72 1453.5 2929 1453.5C2966.28 1453.5 2996.5 1483.72 2996.5 1521C2996.5 1558.28 2966.28 1588.5 2929 1588.5C2891.72 1588.5 2861.5 1558.28 2861.5 1521ZM2871.25 1521C2871.25 1489.11 2897.11 1463.25 2929 1463.25C2960.89 1463.25 2986.75 1489.11 2986.75 1521C2986.75 1552.89 2960.89 1578.75 2929 1578.75C2897.11 1578.75 2871.25 1552.89 2871.25 1521Z" fill="black"/>
</g>
</g>
</g>
<g id="Heavy-L">
<g id="Outline / GBP Outline_2">
<g id="Shape_2">
<path d="M2635.62 1483.48C2640.97 1483.12 2646.84 1484.63 2650.61 1488.27C2652.55 1490.14 2652.61 1493.23 2650.74 1495.17C2648.87 1497.11 2645.78 1497.16 2643.85 1495.29C2642.58 1494.07 2639.71 1492.97 2636.28 1493.21C2632.97 1493.43 2630.16 1494.82 2628.6 1497.21C2626.73 1500.06 2626.18 1503.02 2626.23 1507.2C2626.25 1509.11 2626.38 1511.13 2626.54 1513.48L2626.61 1514.46C2626.67 1515.39 2626.74 1516.35 2626.79 1517.35H2638.85C2641.54 1517.35 2643.72 1519.53 2643.72 1522.23C2643.72 1524.92 2641.54 1527.1 2638.85 1527.1H2626.84C2626.29 1533.7 2624.24 1539.41 2621.53 1543.89C2621.31 1544.26 2621.09 1544.62 2620.86 1544.98L2651.21 1544.98C2653.9 1544.98 2656.08 1547.16 2656.08 1549.85C2656.08 1552.54 2653.9 1554.73 2651.21 1554.73L2608.36 1554.73C2605.98 1554.73 2603.94 1553 2603.55 1550.65C2603.16 1548.29 2604.53 1546 2606.79 1545.24C2608.14 1544.78 2610.79 1542.83 2613.18 1538.86C2615.03 1535.79 2616.54 1531.8 2617.04 1527.1H2608.66C2605.96 1527.1 2603.78 1524.92 2603.78 1522.23C2603.78 1519.53 2605.96 1517.35 2608.66 1517.35H2617.02C2616.98 1516.6 2616.93 1515.85 2616.88 1515.12L2616.82 1514.15C2616.66 1511.84 2616.5 1509.51 2616.48 1507.31C2616.42 1502.14 2617.09 1496.97 2620.45 1491.85C2624.11 1486.27 2630.14 1483.85 2635.62 1483.48Z" fill="black"/>
<path fill-rule="evenodd" clip-rule="evenodd" d="M2565.5 1521C2565.5 1483.72 2595.72 1453.5 2633 1453.5C2670.28 1453.5 2700.5 1483.72 2700.5 1521C2700.5 1558.28 2670.28 1588.5 2633 1588.5C2595.72 1588.5 2565.5 1558.28 2565.5 1521ZM2575.25 1521C2575.25 1489.11 2601.11 1463.25 2633 1463.25C2664.89 1463.25 2690.75 1489.11 2690.75 1521C2690.75 1552.89 2664.89 1578.75 2633 1578.75C2601.11 1578.75 2575.25 1552.89 2575.25 1521Z" fill="black"/>
</g>
</g>
</g>
<g id="Bold-L">
<g id="Outline / GBP Outline_3">
<g id="Shape_3">
<path d="M2339.62 1483.48C2344.97 1483.12 2350.84 1484.63 2354.61 1488.27C2356.55 1490.14 2356.61 1493.23 2354.74 1495.17C2352.87 1497.11 2349.78 1497.16 2347.85 1495.29C2346.58 1494.07 2343.71 1492.97 2340.28 1493.21C2336.97 1493.43 2334.16 1494.82 2332.6 1497.21C2330.73 1500.06 2330.18 1503.02 2330.23 1507.2C2330.25 1509.11 2330.38 1511.13 2330.54 1513.48L2330.61 1514.46C2330.67 1515.39 2330.74 1516.35 2330.79 1517.35H2342.85C2345.54 1517.35 2347.72 1519.53 2347.72 1522.23C2347.72 1524.92 2345.54 1527.1 2342.85 1527.1H2330.84C2330.29 1533.7 2328.24 1539.41 2325.53 1543.89C2325.31 1544.26 2325.09 1544.62 2324.86 1544.98L2355.21 1544.98C2357.9 1544.98 2360.08 1547.16 2360.08 1549.85C2360.08 1552.54 2357.9 1554.73 2355.21 1554.73L2312.36 1554.73C2309.98 1554.73 2307.94 1553 2307.55 1550.65C2307.16 1548.29 2308.53 1546 2310.79 1545.24C2312.14 1544.78 2314.79 1542.83 2317.18 1538.86C2319.03 1535.79 2320.54 1531.8 2321.04 1527.1H2312.66C2309.96 1527.1 2307.78 1524.92 2307.78 1522.23C2307.78 1519.53 2309.96 1517.35 2312.66 1517.35H2321.02C2320.98 1516.6 2320.93 1515.85 2320.88 1515.12L2320.82 1514.15C2320.66 1511.84 2320.5 1509.51 2320.48 1507.31C2320.42 1502.14 2321.09 1496.97 2324.45 1491.85C2328.11 1486.27 2334.14 1483.85 2339.62 1483.48Z" fill="black"/>
<path fill-rule="evenodd" clip-rule="evenodd" d="M2269.5 1521C2269.5 1483.72 2299.72 1453.5 2337 1453.5C2374.28 1453.5 2404.5 1483.72 2404.5 1521C2404.5 1558.28 2374.28 1588.5 2337 1588.5C2299.72 1588.5 2269.5 1558.28 2269.5 1521ZM2279.25 1521C2279.25 1489.11 2305.11 1463.25 2337 1463.25C2368.89 1463.25 2394.75 1489.11 2394.75 1521C2394.75 1552.89 2368.89 1578.75 2337 1578.75C2305.11 1578.75 2279.25 1552.89 2279.25 1521Z" fill="black"/>
</g>
</g>
</g>
<g id="Semibold-L">
<g id="Outline / GBP Outline_4">
<g id="Shape_4">
<path d="M2043.62 1483.48C2048.97 1483.12 2054.84 1484.63 2058.61 1488.27C2060.55 1490.14 2060.61 1493.23 2058.74 1495.17C2056.87 1497.11 2053.78 1497.16 2051.85 1495.29C2050.58 1494.07 2047.71 1492.97 2044.28 1493.21C2040.97 1493.43 2038.16 1494.82 2036.6 1497.21C2034.73 1500.06 2034.18 1503.02 2034.23 1507.2C2034.25 1509.11 2034.38 1511.13 2034.54 1513.48L2034.61 1514.46C2034.67 1515.39 2034.74 1516.35 2034.79 1517.35H2046.85C2049.54 1517.35 2051.72 1519.53 2051.72 1522.23C2051.72 1524.92 2049.54 1527.1 2046.85 1527.1H2034.84C2034.29 1533.7 2032.24 1539.41 2029.53 1543.89C2029.31 1544.26 2029.09 1544.62 2028.86 1544.98L2059.21 1544.98C2061.9 1544.98 2064.08 1547.16 2064.08 1549.85C2064.08 1552.54 2061.9 1554.73 2059.21 1554.73L2016.36 1554.73C2013.98 1554.73 2011.94 1553 2011.55 1550.65C2011.16 1548.29 2012.53 1546 2014.79 1545.24C2016.14 1544.78 2018.79 1542.83 2021.18 1538.86C2023.03 1535.79 2024.54 1531.8 2025.04 1527.1H2016.66C2013.96 1527.1 2011.78 1524.92 2011.78 1522.23C2011.78 1519.53 2013.96 1517.35 2016.66 1517.35H2025.02C2024.98 1516.6 2024.93 1515.85 2024.88 1515.12L2024.82 1514.15C2024.66 1511.84 2024.5 1509.51 2024.48 1507.31C2024.42 1502.14 2025.09 1496.97 2028.45 1491.85C2032.11 1486.27 2038.14 1483.85 2043.62 1483.48Z" fill="black"/>
<path fill-rule="evenodd" clip-rule="evenodd" d="M1973.5 1521C1973.5 1483.72 2003.72 1453.5 2041 1453.5C2078.28 1453.5 2108.5 1483.72 2108.5 1521C2108.5 1558.28 2078.28 1588.5 2041 1588.5C2003.72 1588.5 1973.5 1558.28 1973.5 1521ZM1983.25 1521C1983.25 1489.11 2009.11 1463.25 2041 1463.25C2072.89 1463.25 2098.75 1489.11 2098.75 1521C2098.75 1552.89 2072.89 1578.75 2041 1578.75C2009.11 1578.75 1983.25 1552.89 1983.25 1521Z" fill="black"/>
</g>
</g>
</g>
<g id="Medium-L">
<g id="Outline / GBP Outline_5">
<g id="Shape_5">
<path d="M1747.62 1483.48C1752.97 1483.12 1758.84 1484.63 1762.61 1488.27C1764.55 1490.14 1764.61 1493.23 1762.74 1495.17C1760.87 1497.11 1757.78 1497.16 1755.85 1495.29C1754.58 1494.07 1751.71 1492.97 1748.28 1493.21C1744.97 1493.43 1742.16 1494.82 1740.6 1497.21C1738.73 1500.06 1738.18 1503.02 1738.23 1507.2C1738.25 1509.11 1738.38 1511.13 1738.54 1513.48L1738.61 1514.46C1738.67 1515.39 1738.74 1516.35 1738.79 1517.35H1750.85C1753.54 1517.35 1755.72 1519.53 1755.72 1522.23C1755.72 1524.92 1753.54 1527.1 1750.85 1527.1H1738.84C1738.29 1533.7 1736.24 1539.41 1733.53 1543.89C1733.31 1544.26 1733.09 1544.62 1732.86 1544.98L1763.21 1544.98C1765.9 1544.98 1768.08 1547.16 1768.08 1549.85C1768.08 1552.54 1765.9 1554.73 1763.21 1554.73L1720.36 1554.73C1717.98 1554.73 1715.94 1553 1715.55 1550.65C1715.16 1548.29 1716.53 1546 1718.79 1545.24C1720.14 1544.78 1722.79 1542.83 1725.18 1538.86C1727.03 1535.79 1728.54 1531.8 1729.04 1527.1H1720.66C1717.96 1527.1 1715.78 1524.92 1715.78 1522.23C1715.78 1519.53 1717.96 1517.35 1720.66 1517.35H1729.02C1728.98 1516.6 1728.93 1515.85 1728.88 1515.12L1728.82 1514.15C1728.66 1511.84 1728.5 1509.51 1728.48 1507.31C1728.42 1502.14 1729.09 1496.97 1732.45 1491.85C1736.11 1486.27 1742.14 1483.85 1747.62 1483.48Z" fill="black"/>
<path fill-rule="evenodd" clip-rule="evenodd" d="M1677.5 1521C1677.5 1483.72 1707.72 1453.5 1745 1453.5C1782.28 1453.5 1812.5 1483.72 1812.5 1521C1812.5 1558.28 1782.28 1588.5 1745 1588.5C1707.72 1588.5 1677.5 1558.28 1677.5 1521ZM1687.25 1521C1687.25 1489.11 1713.11 1463.25 1745 1463.25C1776.89 1463.25 1802.75 1489.11 1802.75 1521C1802.75 1552.89 1776.89 1578.75 1745 1578.75C1713.11 1578.75 1687.25 1552.89 1687.25 1521Z" fill="black"/>
</g>
</g>
</g>
<g id="Regular-L">
<g id="Outline / GBP Outline_6">
<g id="Shape_6">
<path d="M1451.62 1483.48C1456.97 1483.12 1462.84 1484.63 1466.61 1488.27C1468.55 1490.14 1468.61 1493.23 1466.74 1495.17C1464.87 1497.11 1461.78 1497.16 1459.85 1495.29C1458.58 1494.07 1455.71 1492.97 1452.28 1493.21C1448.97 1493.43 1446.16 1494.82 1444.6 1497.21C1442.73 1500.06 1442.18 1503.02 1442.23 1507.2C1442.25 1509.11 1442.38 1511.13 1442.54 1513.48L1442.61 1514.46C1442.67 1515.39 1442.74 1516.35 1442.79 1517.35H1454.85C1457.54 1517.35 1459.72 1519.53 1459.72 1522.23C1459.72 1524.92 1457.54 1527.1 1454.85 1527.1H1442.84C1442.29 1533.7 1440.24 1539.41 1437.53 1543.89C1437.31 1544.26 1437.09 1544.62 1436.86 1544.98L1467.21 1544.98C1469.9 1544.98 1472.08 1547.16 1472.08 1549.85C1472.08 1552.54 1469.9 1554.73 1467.21 1554.73L1424.36 1554.73C1421.98 1554.73 1419.94 1553 1419.55 1550.65C1419.16 1548.29 1420.53 1546 1422.79 1545.24C1424.14 1544.78 1426.79 1542.83 1429.18 1538.86C1431.03 1535.79 1432.54 1531.8 1433.04 1527.1H1424.66C1421.96 1527.1 1419.78 1524.92 1419.78 1522.23C1419.78 1519.53 1421.96 1517.35 1424.66 1517.35H1433.02C1432.98 1516.6 1432.93 1515.85 1432.88 1515.12L1432.82 1514.15C1432.66 1511.84 1432.5 1509.51 1432.48 1507.31C1432.42 1502.14 1433.09 1496.97 1436.45 1491.85C1440.11 1486.27 1446.14 1483.85 1451.62 1483.48Z" fill="black"/>
<path fill-rule="evenodd" clip-rule="evenodd" d="M1381.5 1521C1381.5 1483.72 1411.72 1453.5 1449 1453.5C1486.28 1453.5 1516.5 1483.72 1516.5 1521C1516.5 1558.28 1486.28 1588.5 1449 1588.5C1411.72 1588.5 1381.5 1558.28 1381.5 1521ZM1391.25 1521C1391.25 1489.11 1417.11 1463.25 1449 1463.25C1480.89 1463.25 1506.75 1489.11 1506.75 1521C1506.75 1552.89 1480.89 1578.75 1449 1578.75C1417.11 1578.75 1391.25 1552.89 1391.25 1521Z" fill="black"/>
</g>
</g>
</g>
<g id="Light-L">
<g id="Outline / GBP Outline_7">
<g id="Shape_7">
<path d="M1155.62 1483.48C1160.97 1483.12 1166.84 1484.63 1170.61 1488.27C1172.55 1490.14 1172.61 1493.23 1170.74 1495.17C1168.87 1497.11 1165.78 1497.16 1163.85 1495.29C1162.58 1494.07 1159.71 1492.97 1156.28 1493.21C1152.97 1493.43 1150.16 1494.82 1148.6 1497.21C1146.73 1500.06 1146.18 1503.02 1146.23 1507.2C1146.25 1509.11 1146.38 1511.13 1146.54 1513.48L1146.61 1514.46C1146.67 1515.39 1146.74 1516.35 1146.79 1517.35H1158.85C1161.54 1517.35 1163.72 1519.53 1163.72 1522.23C1163.72 1524.92 1161.54 1527.1 1158.85 1527.1H1146.84C1146.29 1533.7 1144.24 1539.41 1141.53 1543.89C1141.31 1544.26 1141.09 1544.62 1140.86 1544.98L1171.21 1544.98C1173.9 1544.98 1176.08 1547.16 1176.08 1549.85C1176.08 1552.54 1173.9 1554.73 1171.21 1554.73L1128.36 1554.73C1125.98 1554.73 1123.94 1553 1123.55 1550.65C1123.16 1548.29 1124.53 1546 1126.79 1545.24C1128.14 1544.78 1130.79 1542.83 1133.18 1538.86C1135.03 1535.79 1136.54 1531.8 1137.04 1527.1H1128.66C1125.96 1527.1 1123.78 1524.92 1123.78 1522.23C1123.78 1519.53 1125.96 1517.35 1128.66 1517.35H1137.02C1136.98 1516.6 1136.93 1515.85 1136.88 1515.12L1136.82 1514.15C1136.66 1511.84 1136.5 1509.51 1136.48 1507.31C1136.42 1502.14 1137.09 1496.97 1140.45 1491.85C1144.11 1486.27 1150.14 1483.85 1155.62 1483.48Z" fill="black"/>
<path fill-rule="evenodd" clip-rule="evenodd" d="M1085.5 1521C1085.5 1483.72 1115.72 1453.5 1153 1453.5C1190.28 1453.5 1220.5 1483.72 1220.5 1521C1220.5 1558.28 1190.28 1588.5 1153 1588.5C1115.72 1588.5 1085.5 1558.28 1085.5 1521ZM1095.25 1521C1095.25 1489.11 1121.11 1463.25 1153 1463.25C1184.89 1463.25 1210.75 1489.11 1210.75 1521C1210.75 1552.89 1184.89 1578.75 1153 1578.75C1121.11 1578.75 1095.25 1552.89 1095.25 1521Z" fill="black"/>
</g>
</g>
</g>
<g id="Thin-L">
<g id="Outline / GBP Outline_8">
<g id="Shape_8">
<path d="M859.617 1483.48C864.967 1483.12 870.836 1484.63 874.614 1488.27C876.552 1490.14 876.608 1493.23 874.74 1495.17C872.871 1497.11 869.784 1497.16 867.846 1495.29C866.581 1494.07 863.713 1492.97 860.278 1493.21C856.974 1493.43 854.165 1494.82 852.598 1497.21C850.726 1500.06 850.182 1503.02 850.226 1507.2C850.246 1509.11 850.384 1511.13 850.544 1513.48L850.611 1514.46C850.673 1515.39 850.735 1516.35 850.791 1517.35H862.846C865.539 1517.35 867.721 1519.53 867.721 1522.23C867.721 1524.92 865.539 1527.1 862.846 1527.1H850.838C850.294 1533.7 848.237 1539.41 845.535 1543.89C845.314 1544.26 845.087 1544.62 844.855 1544.98L875.206 1544.98C877.898 1544.98 880.081 1547.16 880.081 1549.85C880.081 1552.54 877.898 1554.73 875.206 1554.73L832.361 1554.73C829.975 1554.73 827.94 1553 827.551 1550.65C827.162 1548.29 828.533 1546 830.792 1545.24C832.143 1544.78 834.792 1542.83 837.183 1538.86C839.034 1535.79 840.537 1531.8 841.045 1527.1H832.657C829.965 1527.1 827.782 1524.92 827.782 1522.23C827.782 1519.53 829.965 1517.35 832.657 1517.35H841.025C840.98 1516.6 840.932 1515.85 840.883 1515.12L840.817 1514.15C840.659 1511.84 840.5 1509.51 840.477 1507.31C840.422 1502.14 841.086 1496.97 844.448 1491.85C848.114 1486.27 854.137 1483.85 859.617 1483.48Z" fill="black"/>
<path fill-rule="evenodd" clip-rule="evenodd" d="M789.5 1521C789.5 1483.72 819.721 1453.5 857 1453.5C894.279 1453.5 924.5 1483.72 924.5 1521C924.5 1558.28 894.279 1588.5 857 1588.5C819.721 1588.5 789.5 1558.28 789.5 1521ZM799.25 1521C799.25 1489.11 825.106 1463.25 857 1463.25C888.894 1463.25 914.75 1489.11 914.75 1521C914.75 1552.89 888.894 1578.75 857 1578.75C825.106 1578.75 799.25 1552.89 799.25 1521Z" fill="black"/>
</g>
</g>
</g>
<g id="Ultralight-L">
<g id="Outline / GBP Outline_9">
<g id="Shape_9">
<path d="M563.617 1483.48C568.967 1483.12 574.836 1484.63 578.614 1488.27C580.552 1490.14 580.608 1493.23 578.74 1495.17C576.871 1497.11 573.784 1497.16 571.846 1495.29C570.581 1494.07 567.713 1492.97 564.278 1493.21C560.974 1493.43 558.165 1494.82 556.598 1497.21C554.726 1500.06 554.182 1503.02 554.226 1507.2C554.246 1509.11 554.384 1511.13 554.544 1513.48L554.611 1514.46C554.673 1515.39 554.735 1516.35 554.791 1517.35H566.846C569.539 1517.35 571.721 1519.53 571.721 1522.23C571.721 1524.92 569.539 1527.1 566.846 1527.1H554.838C554.294 1533.7 552.237 1539.41 549.535 1543.89C549.314 1544.26 549.087 1544.62 548.855 1544.98L579.206 1544.98C581.898 1544.98 584.081 1547.16 584.081 1549.85C584.081 1552.54 581.898 1554.73 579.206 1554.73L536.361 1554.73C533.975 1554.73 531.94 1553 531.551 1550.65C531.162 1548.29 532.533 1546 534.792 1545.24C536.143 1544.78 538.792 1542.83 541.183 1538.86C543.034 1535.79 544.537 1531.8 545.045 1527.1H536.657C533.965 1527.1 531.782 1524.92 531.782 1522.23C531.782 1519.53 533.965 1517.35 536.657 1517.35H545.025C544.98 1516.6 544.932 1515.85 544.883 1515.12L544.817 1514.15C544.659 1511.84 544.5 1509.51 544.477 1507.31C544.422 1502.14 545.086 1496.97 548.448 1491.85C552.114 1486.27 558.137 1483.85 563.617 1483.48Z" fill="black"/>
<path fill-rule="evenodd" clip-rule="evenodd" d="M493.5 1521C493.5 1483.72 523.721 1453.5 561 1453.5C598.279 1453.5 628.5 1483.72 628.5 1521C628.5 1558.28 598.279 1588.5 561 1588.5C523.721 1588.5 493.5 1558.28 493.5 1521ZM503.25 1521C503.25 1489.11 529.106 1463.25 561 1463.25C592.894 1463.25 618.75 1489.11 618.75 1521C618.75 1552.89 592.894 1578.75 561 1578.75C529.106 1578.75 503.25 1552.89 503.25 1521Z" fill="black"/>
</g>
</g>
</g>
<g id="Black-M">
<g id="Outline / GBP Outline_10">
<g id="Shape_10">
<path d="M2931.04 1061.82C2935.2 1061.54 2939.76 1062.71 2942.7 1065.55C2944.21 1067 2944.25 1069.4 2942.8 1070.91C2941.34 1072.42 2938.94 1072.46 2937.44 1071.01C2936.45 1070.06 2934.22 1069.2 2931.55 1069.38C2928.98 1069.56 2926.79 1070.64 2925.58 1072.49C2924.12 1074.71 2923.7 1077.01 2923.73 1080.27C2923.75 1081.75 2923.85 1083.32 2923.98 1085.15L2924.03 1085.92C2924.08 1086.64 2924.13 1087.38 2924.17 1088.16H2933.55C2935.64 1088.16 2937.34 1089.86 2937.34 1091.95C2937.34 1094.05 2935.64 1095.75 2933.55 1095.75H2924.21C2923.78 1100.88 2922.18 1105.32 2920.08 1108.81C2919.91 1109.09 2919.73 1109.37 2919.55 1109.65L2943.16 1109.65C2945.25 1109.65 2946.95 1111.35 2946.95 1113.44C2946.95 1115.53 2945.25 1117.23 2943.16 1117.23L2909.84 1117.23C2907.98 1117.23 2906.4 1115.89 2906.1 1114.06C2905.79 1112.23 2906.86 1110.45 2908.62 1109.85C2909.67 1109.49 2911.73 1107.98 2913.59 1104.89C2915.03 1102.5 2916.2 1099.4 2916.59 1095.75H2910.07C2907.97 1095.75 2906.28 1094.05 2906.28 1091.95C2906.28 1089.86 2907.97 1088.16 2910.07 1088.16H2916.57C2916.54 1087.58 2916.5 1087 2916.46 1086.42L2916.41 1085.67C2916.29 1083.87 2916.17 1082.06 2916.15 1080.35C2916.11 1076.33 2916.62 1072.31 2919.24 1068.33C2922.09 1063.99 2926.77 1062.11 2931.04 1061.82Z" fill="black"/>
<path fill-rule="evenodd" clip-rule="evenodd" d="M2876.5 1091C2876.5 1062.01 2900.01 1038.5 2929 1038.5C2957.99 1038.5 2981.5 1062.01 2981.5 1091C2981.5 1119.99 2957.99 1143.5 2929 1143.5C2900.01 1143.5 2876.5 1119.99 2876.5 1091ZM2884.08 1091C2884.08 1066.19 2904.19 1046.08 2929 1046.08C2953.81 1046.08 2973.92 1066.19 2973.92 1091C2973.92 1115.81 2953.81 1135.92 2929 1135.92C2904.19 1135.92 2884.08 1115.81 2884.08 1091Z" fill="black"/>
</g>
</g>
</g>
<g id="Heavy-M">
<g id="Outline / GBP Outline_11">
<g id="Shape_11">
<path d="M2635.04 1061.82C2639.2 1061.54 2643.76 1062.71 2646.7 1065.55C2648.21 1067 2648.25 1069.4 2646.8 1070.91C2645.34 1072.42 2642.94 1072.46 2641.44 1071.01C2640.45 1070.06 2638.22 1069.2 2635.55 1069.38C2632.98 1069.56 2630.79 1070.64 2629.58 1072.49C2628.12 1074.71 2627.7 1077.01 2627.73 1080.27C2627.75 1081.75 2627.85 1083.32 2627.98 1085.15L2628.03 1085.92C2628.08 1086.64 2628.13 1087.38 2628.17 1088.16H2637.55C2639.64 1088.16 2641.34 1089.86 2641.34 1091.95C2641.34 1094.05 2639.64 1095.75 2637.55 1095.75H2628.21C2627.78 1100.88 2626.18 1105.32 2624.08 1108.81C2623.91 1109.09 2623.73 1109.37 2623.55 1109.65L2647.16 1109.65C2649.25 1109.65 2650.95 1111.35 2650.95 1113.44C2650.95 1115.53 2649.25 1117.23 2647.16 1117.23L2613.84 1117.23C2611.98 1117.23 2610.4 1115.89 2610.1 1114.06C2609.79 1112.23 2610.86 1110.45 2612.62 1109.85C2613.67 1109.49 2615.73 1107.98 2617.59 1104.89C2619.03 1102.5 2620.2 1099.4 2620.59 1095.75H2614.07C2611.97 1095.75 2610.28 1094.05 2610.28 1091.95C2610.28 1089.86 2611.97 1088.16 2614.07 1088.16H2620.57C2620.54 1087.58 2620.5 1087 2620.46 1086.42L2620.41 1085.67C2620.29 1083.87 2620.17 1082.06 2620.15 1080.35C2620.11 1076.33 2620.62 1072.31 2623.24 1068.33C2626.09 1063.99 2630.77 1062.11 2635.04 1061.82Z" fill="black"/>
<path fill-rule="evenodd" clip-rule="evenodd" d="M2580.5 1091C2580.5 1062.01 2604.01 1038.5 2633 1038.5C2661.99 1038.5 2685.5 1062.01 2685.5 1091C2685.5 1119.99 2661.99 1143.5 2633 1143.5C2604.01 1143.5 2580.5 1119.99 2580.5 1091ZM2588.08 1091C2588.08 1066.19 2608.19 1046.08 2633 1046.08C2657.81 1046.08 2677.92 1066.19 2677.92 1091C2677.92 1115.81 2657.81 1135.92 2633 1135.92C2608.19 1135.92 2588.08 1115.81 2588.08 1091Z" fill="black"/>
</g>
</g>
</g>
<g id="Bold-M">
<g id="Outline / GBP Outline_12">
<g id="Shape_12">
<path d="M2339.04 1061.82C2343.2 1061.54 2347.76 1062.71 2350.7 1065.55C2352.21 1067 2352.25 1069.4 2350.8 1070.91C2349.34 1072.42 2346.94 1072.46 2345.44 1071.01C2344.45 1070.06 2342.22 1069.2 2339.55 1069.38C2336.98 1069.56 2334.79 1070.64 2333.58 1072.49C2332.12 1074.71 2331.7 1077.01 2331.73 1080.27C2331.75 1081.75 2331.85 1083.32 2331.98 1085.15L2332.03 1085.92C2332.08 1086.64 2332.13 1087.38 2332.17 1088.16H2341.55C2343.64 1088.16 2345.34 1089.86 2345.34 1091.95C2345.34 1094.05 2343.64 1095.75 2341.55 1095.75H2332.21C2331.78 1100.88 2330.18 1105.32 2328.08 1108.81C2327.91 1109.09 2327.73 1109.37 2327.55 1109.65L2351.16 1109.65C2353.25 1109.65 2354.95 1111.35 2354.95 1113.44C2354.95 1115.53 2353.25 1117.23 2351.16 1117.23L2317.84 1117.23C2315.98 1117.23 2314.4 1115.89 2314.1 1114.06C2313.79 1112.23 2314.86 1110.45 2316.62 1109.85C2317.67 1109.49 2319.73 1107.98 2321.59 1104.89C2323.03 1102.5 2324.2 1099.4 2324.59 1095.75H2318.07C2315.97 1095.75 2314.28 1094.05 2314.28 1091.95C2314.28 1089.86 2315.97 1088.16 2318.07 1088.16H2324.57C2324.54 1087.58 2324.5 1087 2324.46 1086.42L2324.41 1085.67C2324.29 1083.87 2324.17 1082.06 2324.15 1080.35C2324.11 1076.33 2324.62 1072.31 2327.24 1068.33C2330.09 1063.99 2334.77 1062.11 2339.04 1061.82Z" fill="black"/>
<path fill-rule="evenodd" clip-rule="evenodd" d="M2284.5 1091C2284.5 1062.01 2308.01 1038.5 2337 1038.5C2365.99 1038.5 2389.5 1062.01 2389.5 1091C2389.5 1119.99 2365.99 1143.5 2337 1143.5C2308.01 1143.5 2284.5 1119.99 2284.5 1091ZM2292.08 1091C2292.08 1066.19 2312.19 1046.08 2337 1046.08C2361.81 1046.08 2381.92 1066.19 2381.92 1091C2381.92 1115.81 2361.81 1135.92 2337 1135.92C2312.19 1135.92 2292.08 1115.81 2292.08 1091Z" fill="black"/>
</g>
</g>
</g>
<g id="Semibold-M">
<g id="Outline / GBP Outline_13">
<g id="Shape_13">
<path d="M2043.04 1061.82C2047.2 1061.54 2051.76 1062.71 2054.7 1065.55C2056.21 1067 2056.25 1069.4 2054.8 1070.91C2053.34 1072.42 2050.94 1072.46 2049.44 1071.01C2048.45 1070.06 2046.22 1069.2 2043.55 1069.38C2040.98 1069.56 2038.79 1070.64 2037.58 1072.49C2036.12 1074.71 2035.7 1077.01 2035.73 1080.27C2035.75 1081.75 2035.85 1083.32 2035.98 1085.15L2036.03 1085.92C2036.08 1086.64 2036.13 1087.38 2036.17 1088.16H2045.55C2047.64 1088.16 2049.34 1089.86 2049.34 1091.95C2049.34 1094.05 2047.64 1095.75 2045.55 1095.75H2036.21C2035.78 1100.88 2034.18 1105.32 2032.08 1108.81C2031.91 1109.09 2031.73 1109.37 2031.55 1109.65L2055.16 1109.65C2057.25 1109.65 2058.95 1111.35 2058.95 1113.44C2058.95 1115.53 2057.25 1117.23 2055.16 1117.23L2021.84 1117.23C2019.98 1117.23 2018.4 1115.89 2018.1 1114.06C2017.79 1112.23 2018.86 1110.45 2020.62 1109.85C2021.67 1109.49 2023.73 1107.98 2025.59 1104.89C2027.03 1102.5 2028.2 1099.4 2028.59 1095.75H2022.07C2019.97 1095.75 2018.28 1094.05 2018.28 1091.95C2018.28 1089.86 2019.97 1088.16 2022.07 1088.16H2028.57C2028.54 1087.58 2028.5 1087 2028.46 1086.42L2028.41 1085.67C2028.29 1083.87 2028.17 1082.06 2028.15 1080.35C2028.11 1076.33 2028.62 1072.31 2031.24 1068.33C2034.09 1063.99 2038.77 1062.11 2043.04 1061.82Z" fill="black"/>
<path fill-rule="evenodd" clip-rule="evenodd" d="M1988.5 1091C1988.5 1062.01 2012.01 1038.5 2041 1038.5C2069.99 1038.5 2093.5 1062.01 2093.5 1091C2093.5 1119.99 2069.99 1143.5 2041 1143.5C2012.01 1143.5 1988.5 1119.99 1988.5 1091ZM1996.08 1091C1996.08 1066.19 2016.19 1046.08 2041 1046.08C2065.81 1046.08 2085.92 1066.19 2085.92 1091C2085.92 1115.81 2065.81 1135.92 2041 1135.92C2016.19 1135.92 1996.08 1115.81 1996.08 1091Z" fill="black"/>
</g>
</g>
</g>
<g id="Medium-M">
<g id="Outline / GBP Outline_14">
<g id="Shape_14">
<path d="M1747.04 1061.82C1751.2 1061.54 1755.76 1062.71 1758.7 1065.55C1760.21 1067 1760.25 1069.4 1758.8 1070.91C1757.34 1072.42 1754.94 1072.46 1753.44 1071.01C1752.45 1070.06 1750.22 1069.2 1747.55 1069.38C1744.98 1069.56 1742.79 1070.64 1741.58 1072.49C1740.12 1074.71 1739.7 1077.01 1739.73 1080.27C1739.75 1081.75 1739.85 1083.32 1739.98 1085.15L1740.03 1085.92C1740.08 1086.64 1740.13 1087.38 1740.17 1088.16H1749.55C1751.64 1088.16 1753.34 1089.86 1753.34 1091.95C1753.34 1094.05 1751.64 1095.75 1749.55 1095.75H1740.21C1739.78 1100.88 1738.18 1105.32 1736.08 1108.81C1735.91 1109.09 1735.73 1109.37 1735.55 1109.65L1759.16 1109.65C1761.25 1109.65 1762.95 1111.35 1762.95 1113.44C1762.95 1115.53 1761.25 1117.23 1759.16 1117.23L1725.84 1117.23C1723.98 1117.23 1722.4 1115.89 1722.1 1114.06C1721.79 1112.23 1722.86 1110.45 1724.62 1109.85C1725.67 1109.49 1727.73 1107.98 1729.59 1104.89C1731.03 1102.5 1732.2 1099.4 1732.59 1095.75H1726.07C1723.97 1095.75 1722.28 1094.05 1722.28 1091.95C1722.28 1089.86 1723.97 1088.16 1726.07 1088.16H1732.57C1732.54 1087.58 1732.5 1087 1732.46 1086.42L1732.41 1085.67C1732.29 1083.87 1732.17 1082.06 1732.15 1080.35C1732.11 1076.33 1732.62 1072.31 1735.24 1068.33C1738.09 1063.99 1742.77 1062.11 1747.04 1061.82Z" fill="black"/>
<path fill-rule="evenodd" clip-rule="evenodd" d="M1692.5 1091C1692.5 1062.01 1716.01 1038.5 1745 1038.5C1773.99 1038.5 1797.5 1062.01 1797.5 1091C1797.5 1119.99 1773.99 1143.5 1745 1143.5C1716.01 1143.5 1692.5 1119.99 1692.5 1091ZM1700.08 1091C1700.08 1066.19 1720.19 1046.08 1745 1046.08C1769.81 1046.08 1789.92 1066.19 1789.92 1091C1789.92 1115.81 1769.81 1135.92 1745 1135.92C1720.19 1135.92 1700.08 1115.81 1700.08 1091Z" fill="black"/>
</g>
</g>
</g>
<g id="Regular-M">
<g id="Outline / GBP Outline_15">
<g id="Shape_15">
<path d="M1451.04 1061.82C1455.2 1061.54 1459.76 1062.71 1462.7 1065.55C1464.21 1067 1464.25 1069.4 1462.8 1070.91C1461.34 1072.42 1458.94 1072.46 1457.44 1071.01C1456.45 1070.06 1454.22 1069.2 1451.55 1069.38C1448.98 1069.56 1446.79 1070.64 1445.58 1072.49C1444.12 1074.71 1443.7 1077.01 1443.73 1080.27C1443.75 1081.75 1443.85 1083.32 1443.98 1085.15L1444.03 1085.92C1444.08 1086.64 1444.13 1087.38 1444.17 1088.16H1453.55C1455.64 1088.16 1457.34 1089.86 1457.34 1091.95C1457.34 1094.05 1455.64 1095.75 1453.55 1095.75H1444.21C1443.78 1100.88 1442.18 1105.32 1440.08 1108.81C1439.91 1109.09 1439.73 1109.37 1439.55 1109.65L1463.16 1109.65C1465.25 1109.65 1466.95 1111.35 1466.95 1113.44C1466.95 1115.53 1465.25 1117.23 1463.16 1117.23L1429.84 1117.23C1427.98 1117.23 1426.4 1115.89 1426.1 1114.06C1425.79 1112.23 1426.86 1110.45 1428.62 1109.85C1429.67 1109.49 1431.73 1107.98 1433.59 1104.89C1435.03 1102.5 1436.2 1099.4 1436.59 1095.75H1430.07C1427.97 1095.75 1426.28 1094.05 1426.28 1091.95C1426.28 1089.86 1427.97 1088.16 1430.07 1088.16H1436.57C1436.54 1087.58 1436.5 1087 1436.46 1086.42L1436.41 1085.67C1436.29 1083.87 1436.17 1082.06 1436.15 1080.35C1436.11 1076.33 1436.62 1072.31 1439.24 1068.33C1442.09 1063.99 1446.77 1062.11 1451.04 1061.82Z" fill="black"/>
<path fill-rule="evenodd" clip-rule="evenodd" d="M1396.5 1091C1396.5 1062.01 1420.01 1038.5 1449 1038.5C1477.99 1038.5 1501.5 1062.01 1501.5 1091C1501.5 1119.99 1477.99 1143.5 1449 1143.5C1420.01 1143.5 1396.5 1119.99 1396.5 1091ZM1404.08 1091C1404.08 1066.19 1424.19 1046.08 1449 1046.08C1473.81 1046.08 1493.92 1066.19 1493.92 1091C1493.92 1115.81 1473.81 1135.92 1449 1135.92C1424.19 1135.92 1404.08 1115.81 1404.08 1091Z" fill="black"/>
</g>
</g>
</g>
<g id="Light-M">
<g id="Outline / GBP Outline_16">
<g id="Shape_16">
<path d="M1155.04 1061.82C1159.2 1061.54 1163.76 1062.71 1166.7 1065.55C1168.21 1067 1168.25 1069.4 1166.8 1070.91C1165.34 1072.42 1162.94 1072.46 1161.44 1071.01C1160.45 1070.06 1158.22 1069.2 1155.55 1069.38C1152.98 1069.56 1150.79 1070.64 1149.58 1072.49C1148.12 1074.71 1147.7 1077.01 1147.73 1080.27C1147.75 1081.75 1147.85 1083.32 1147.98 1085.15L1148.03 1085.92C1148.08 1086.64 1148.13 1087.38 1148.17 1088.16H1157.55C1159.64 1088.16 1161.34 1089.86 1161.34 1091.95C1161.34 1094.05 1159.64 1095.75 1157.55 1095.75H1148.21C1147.78 1100.88 1146.18 1105.32 1144.08 1108.81C1143.91 1109.09 1143.73 1109.37 1143.55 1109.65L1167.16 1109.65C1169.25 1109.65 1170.95 1111.35 1170.95 1113.44C1170.95 1115.53 1169.25 1117.23 1167.16 1117.23L1133.84 1117.23C1131.98 1117.23 1130.4 1115.89 1130.1 1114.06C1129.79 1112.23 1130.86 1110.45 1132.62 1109.85C1133.67 1109.49 1135.73 1107.98 1137.59 1104.89C1139.03 1102.5 1140.2 1099.4 1140.59 1095.75H1134.07C1131.97 1095.75 1130.28 1094.05 1130.28 1091.95C1130.28 1089.86 1131.97 1088.16 1134.07 1088.16H1140.57C1140.54 1087.58 1140.5 1087 1140.46 1086.42L1140.41 1085.67C1140.29 1083.87 1140.17 1082.06 1140.15 1080.35C1140.11 1076.33 1140.62 1072.31 1143.24 1068.33C1146.09 1063.99 1150.77 1062.11 1155.04 1061.82Z" fill="black"/>
<path fill-rule="evenodd" clip-rule="evenodd" d="M1100.5 1091C1100.5 1062.01 1124.01 1038.5 1153 1038.5C1181.99 1038.5 1205.5 1062.01 1205.5 1091C1205.5 1119.99 1181.99 1143.5 1153 1143.5C1124.01 1143.5 1100.5 1119.99 1100.5 1091ZM1108.08 1091C1108.08 1066.19 1128.19 1046.08 1153 1046.08C1177.81 1046.08 1197.92 1066.19 1197.92 1091C1197.92 1115.81 1177.81 1135.92 1153 1135.92C1128.19 1135.92 1108.08 1115.81 1108.08 1091Z" fill="black"/>
</g>
</g>
</g>
<g id="Thin-M">
<g id="Outline / GBP Outline_17">
<g id="Shape_17">
<path d="M859.036 1061.82C863.196 1061.54 867.761 1062.71 870.7 1065.55C872.207 1067 872.251 1069.4 870.797 1070.91C869.344 1072.42 866.943 1072.46 865.436 1071.01C864.452 1070.06 862.221 1069.2 859.549 1069.38C856.98 1069.56 854.795 1070.64 853.576 1072.49C852.12 1074.71 851.697 1077.01 851.731 1080.27C851.747 1081.75 851.854 1083.32 851.979 1085.15L852.031 1085.92C852.079 1086.64 852.127 1087.38 852.17 1088.16H861.547C863.641 1088.16 865.339 1089.86 865.339 1091.95C865.339 1094.05 863.641 1095.75 861.547 1095.75H852.207C851.785 1100.88 850.184 1105.32 848.083 1108.81C847.911 1109.09 847.735 1109.37 847.554 1109.65L871.16 1109.65C873.254 1109.65 874.952 1111.35 874.952 1113.44C874.952 1115.53 873.254 1117.23 871.16 1117.23L837.836 1117.23C835.981 1117.23 834.398 1115.89 834.095 1114.06C833.793 1112.23 834.859 1110.45 836.616 1109.85C837.667 1109.49 839.727 1107.98 841.587 1104.89C843.026 1102.5 844.195 1099.4 844.59 1095.75H838.067C835.973 1095.75 834.275 1094.05 834.275 1091.95C834.275 1089.86 835.973 1088.16 838.067 1088.16H844.575C844.54 1087.58 844.503 1087 844.464 1086.42L844.413 1085.67C844.29 1083.87 844.167 1082.06 844.149 1080.35C844.106 1076.33 844.623 1072.31 847.237 1068.33C850.089 1063.99 854.773 1062.11 859.036 1061.82Z" fill="black"/>
<path fill-rule="evenodd" clip-rule="evenodd" d="M804.5 1091C804.5 1062.01 828.005 1038.5 857 1038.5C885.995 1038.5 909.5 1062.01 909.5 1091C909.5 1119.99 885.995 1143.5 857 1143.5C828.005 1143.5 804.5 1119.99 804.5 1091ZM812.083 1091C812.083 1066.19 832.193 1046.08 857 1046.08C881.807 1046.08 901.917 1066.19 901.917 1091C901.917 1115.81 881.807 1135.92 857 1135.92C832.193 1135.92 812.083 1115.81 812.083 1091Z" fill="black"/>
</g>
</g>
</g>
<g id="Ultralight-M">
<g id="Outline / GBP Outline_18">
<g id="Shape_18">
<path d="M563.036 1061.82C567.196 1061.54 571.761 1062.71 574.7 1065.55C576.207 1067 576.251 1069.4 574.797 1070.91C573.344 1072.42 570.943 1072.46 569.436 1071.01C568.452 1070.06 566.221 1069.2 563.549 1069.38C560.98 1069.56 558.795 1070.64 557.576 1072.49C556.12 1074.71 555.697 1077.01 555.731 1080.27C555.747 1081.75 555.854 1083.32 555.979 1085.15L556.031 1085.92C556.079 1086.64 556.127 1087.38 556.17 1088.16H565.547C567.641 1088.16 569.339 1089.86 569.339 1091.95C569.339 1094.05 567.641 1095.75 565.547 1095.75H556.207C555.785 1100.88 554.184 1105.32 552.083 1108.81C551.911 1109.09 551.735 1109.37 551.554 1109.65L575.16 1109.65C577.254 1109.65 578.952 1111.35 578.952 1113.44C578.952 1115.53 577.254 1117.23 575.16 1117.23L541.836 1117.23C539.981 1117.23 538.398 1115.89 538.095 1114.06C537.793 1112.23 538.859 1110.45 540.616 1109.85C541.667 1109.49 543.727 1107.98 545.587 1104.89C547.026 1102.5 548.195 1099.4 548.59 1095.75H542.067C539.973 1095.75 538.275 1094.05 538.275 1091.95C538.275 1089.86 539.973 1088.16 542.067 1088.16H548.575C548.54 1087.58 548.503 1087 548.464 1086.42L548.413 1085.67C548.29 1083.87 548.167 1082.06 548.149 1080.35C548.106 1076.33 548.623 1072.31 551.237 1068.33C554.089 1063.99 558.773 1062.11 563.036 1061.82Z" fill="black"/>
<path fill-rule="evenodd" clip-rule="evenodd" d="M508.5 1091C508.5 1062.01 532.005 1038.5 561 1038.5C589.995 1038.5 613.5 1062.01 613.5 1091C613.5 1119.99 589.995 1143.5 561 1143.5C532.005 1143.5 508.5 1119.99 508.5 1091ZM516.083 1091C516.083 1066.19 536.193 1046.08 561 1046.08C585.807 1046.08 605.917 1066.19 605.917 1091C605.917 1115.81 585.807 1135.92 561 1135.92C536.193 1135.92 516.083 1115.81 516.083 1091Z" fill="black"/>
</g>
</g>
</g>
<g id="Black-S">
<g id="Outline / GBP Outline_19">
<g id="Shape_19">
<path d="M2930.45 640.156C2933.43 639.954 2936.69 640.795 2938.79 642.819C2939.86 643.857 2939.89 645.572 2938.86 646.649C2937.82 647.725 2936.1 647.757 2935.03 646.718C2934.32 646.04 2932.73 645.43 2930.82 645.56C2928.99 645.685 2927.42 646.455 2926.55 647.781C2925.51 649.364 2925.21 651.009 2925.24 653.335C2925.25 654.393 2925.32 655.515 2925.41 656.823L2925.45 657.369C2925.48 657.882 2925.52 658.417 2925.55 658.973H2932.25C2933.74 658.973 2934.96 660.186 2934.96 661.681C2934.96 663.177 2933.74 664.39 2932.25 664.39H2925.58C2925.27 668.054 2924.13 671.227 2922.63 673.719C2922.51 673.923 2922.38 674.123 2922.25 674.32L2939.11 674.32C2940.61 674.32 2941.82 675.533 2941.82 677.028C2941.82 678.524 2940.61 679.737 2939.11 679.737L2915.31 679.737C2913.99 679.737 2912.86 678.778 2912.64 677.47C2912.42 676.163 2913.19 674.891 2914.44 674.464C2915.19 674.209 2916.66 673.129 2917.99 670.924C2919.02 669.218 2919.85 667.001 2920.14 664.39H2915.48C2913.98 664.39 2912.77 663.177 2912.77 661.681C2912.77 660.186 2913.98 658.973 2915.48 658.973H2920.12C2920.1 658.554 2920.07 658.141 2920.05 657.732L2920.01 657.196C2919.92 655.909 2919.83 654.617 2919.82 653.392C2919.79 650.524 2920.16 647.652 2922.03 644.808C2924.06 641.705 2927.41 640.362 2930.45 640.156Z" fill="black"/>
<path fill-rule="evenodd" clip-rule="evenodd" d="M2891.5 661C2891.5 640.289 2908.29 623.5 2929 623.5C2949.71 623.5 2966.5 640.289 2966.5 661C2966.5 681.711 2949.71 698.5 2929 698.5C2908.29 698.5 2891.5 681.711 2891.5 661ZM2896.92 661C2896.92 643.281 2911.28 628.917 2929 628.917C2946.72 628.917 2961.08 643.281 2961.08 661C2961.08 678.719 2946.72 693.083 2929 693.083C2911.28 693.083 2896.92 678.719 2896.92 661Z" fill="black"/>
</g>
</g>
</g>
<g id="Heavy-S">
<g id="Outline / GBP Outline_20">
<g id="Shape_20">
<path d="M2634.45 640.156C2637.43 639.954 2640.69 640.795 2642.79 642.819C2643.86 643.857 2643.89 645.572 2642.86 646.649C2641.82 647.725 2640.1 647.757 2639.03 646.718C2638.32 646.04 2636.73 645.43 2634.82 645.56C2632.99 645.685 2631.42 646.455 2630.55 647.781C2629.51 649.364 2629.21 651.009 2629.24 653.335C2629.25 654.393 2629.32 655.515 2629.41 656.823L2629.45 657.369C2629.48 657.882 2629.52 658.417 2629.55 658.973H2636.25C2637.74 658.973 2638.96 660.186 2638.96 661.681C2638.96 663.177 2637.74 664.39 2636.25 664.39H2629.58C2629.27 668.054 2628.13 671.227 2626.63 673.719C2626.51 673.923 2626.38 674.123 2626.25 674.32L2643.11 674.32C2644.61 674.32 2645.82 675.533 2645.82 677.028C2645.82 678.524 2644.61 679.737 2643.11 679.737L2619.31 679.737C2617.99 679.737 2616.86 678.778 2616.64 677.47C2616.42 676.163 2617.19 674.891 2618.44 674.464C2619.19 674.209 2620.66 673.129 2621.99 670.924C2623.02 669.218 2623.85 667.001 2624.14 664.39H2619.48C2617.98 664.39 2616.77 663.177 2616.77 661.681C2616.77 660.186 2617.98 658.973 2619.48 658.973H2624.12C2624.1 658.554 2624.07 658.141 2624.05 657.732L2624.01 657.196C2623.92 655.909 2623.83 654.617 2623.82 653.392C2623.79 650.524 2624.16 647.652 2626.03 644.808C2628.06 641.705 2631.41 640.362 2634.45 640.156Z" fill="black"/>
<path fill-rule="evenodd" clip-rule="evenodd" d="M2595.5 661C2595.5 640.289 2612.29 623.5 2633 623.5C2653.71 623.5 2670.5 640.289 2670.5 661C2670.5 681.711 2653.71 698.5 2633 698.5C2612.29 698.5 2595.5 681.711 2595.5 661ZM2600.92 661C2600.92 643.281 2615.28 628.917 2633 628.917C2650.72 628.917 2665.08 643.281 2665.08 661C2665.08 678.719 2650.72 693.083 2633 693.083C2615.28 693.083 2600.92 678.719 2600.92 661Z" fill="black"/>
</g>
</g>
</g>
<g id="Bold-S">
<g id="Outline / GBP Outline_21">
<g id="Shape_21">
<path d="M2338.45 640.156C2341.43 639.954 2344.69 640.795 2346.79 642.819C2347.86 643.857 2347.89 645.572 2346.86 646.649C2345.82 647.725 2344.1 647.757 2343.03 646.718C2342.32 646.04 2340.73 645.43 2338.82 645.56C2336.99 645.685 2335.42 646.455 2334.55 647.781C2333.51 649.364 2333.21 651.009 2333.24 653.335C2333.25 654.393 2333.32 655.515 2333.41 656.823L2333.45 657.369C2333.48 657.882 2333.52 658.417 2333.55 658.973H2340.25C2341.74 658.973 2342.96 660.186 2342.96 661.681C2342.96 663.177 2341.74 664.39 2340.25 664.39H2333.58C2333.27 668.054 2332.13 671.227 2330.63 673.719C2330.51 673.923 2330.38 674.123 2330.25 674.32L2347.11 674.32C2348.61 674.32 2349.82 675.533 2349.82 677.028C2349.82 678.524 2348.61 679.737 2347.11 679.737L2323.31 679.737C2321.99 679.737 2320.86 678.778 2320.64 677.47C2320.42 676.163 2321.19 674.891 2322.44 674.464C2323.19 674.209 2324.66 673.129 2325.99 670.924C2327.02 669.218 2327.85 667.001 2328.14 664.39H2323.48C2321.98 664.39 2320.77 663.177 2320.77 661.681C2320.77 660.186 2321.98 658.973 2323.48 658.973H2328.12C2328.1 658.554 2328.07 658.141 2328.05 657.732L2328.01 657.196C2327.92 655.909 2327.83 654.617 2327.82 653.392C2327.79 650.524 2328.16 647.652 2330.03 644.808C2332.06 641.705 2335.41 640.362 2338.45 640.156Z" fill="black"/>
<path fill-rule="evenodd" clip-rule="evenodd" d="M2299.5 661C2299.5 640.289 2316.29 623.5 2337 623.5C2357.71 623.5 2374.5 640.289 2374.5 661C2374.5 681.711 2357.71 698.5 2337 698.5C2316.29 698.5 2299.5 681.711 2299.5 661ZM2304.92 661C2304.92 643.281 2319.28 628.917 2337 628.917C2354.72 628.917 2369.08 643.281 2369.08 661C2369.08 678.719 2354.72 693.083 2337 693.083C2319.28 693.083 2304.92 678.719 2304.92 661Z" fill="black"/>
</g>
</g>
</g>
<g id="Semibold-S">
<g id="Outline / GBP Outline_22">
<g id="Shape_22">
<path d="M2042.45 640.156C2045.43 639.954 2048.69 640.795 2050.79 642.819C2051.86 643.857 2051.89 645.572 2050.86 646.649C2049.82 647.725 2048.1 647.757 2047.03 646.718C2046.32 646.04 2044.73 645.43 2042.82 645.56C2040.99 645.685 2039.42 646.455 2038.55 647.781C2037.51 649.364 2037.21 651.009 2037.24 653.335C2037.25 654.393 2037.32 655.515 2037.41 656.823L2037.45 657.369C2037.48 657.882 2037.52 658.417 2037.55 658.973H2044.25C2045.74 658.973 2046.96 660.186 2046.96 661.681C2046.96 663.177 2045.74 664.39 2044.25 664.39H2037.58C2037.27 668.054 2036.13 671.227 2034.63 673.719C2034.51 673.923 2034.38 674.123 2034.25 674.32L2051.11 674.32C2052.61 674.32 2053.82 675.533 2053.82 677.028C2053.82 678.524 2052.61 679.737 2051.11 679.737L2027.31 679.737C2025.99 679.737 2024.86 678.778 2024.64 677.47C2024.42 676.163 2025.19 674.891 2026.44 674.464C2027.19 674.209 2028.66 673.129 2029.99 670.924C2031.02 669.218 2031.85 667.001 2032.14 664.39H2027.48C2025.98 664.39 2024.77 663.177 2024.77 661.681C2024.77 660.186 2025.98 658.973 2027.48 658.973H2032.12C2032.1 658.554 2032.07 658.141 2032.05 657.732L2032.01 657.196C2031.92 655.909 2031.83 654.617 2031.82 653.392C2031.79 650.524 2032.16 647.652 2034.03 644.808C2036.06 641.705 2039.41 640.362 2042.45 640.156Z" fill="black"/>
<path fill-rule="evenodd" clip-rule="evenodd" d="M2003.5 661C2003.5 640.289 2020.29 623.5 2041 623.5C2061.71 623.5 2078.5 640.289 2078.5 661C2078.5 681.711 2061.71 698.5 2041 698.5C2020.29 698.5 2003.5 681.711 2003.5 661ZM2008.92 661C2008.92 643.281 2023.28 628.917 2041 628.917C2058.72 628.917 2073.08 643.281 2073.08 661C2073.08 678.719 2058.72 693.083 2041 693.083C2023.28 693.083 2008.92 678.719 2008.92 661Z" fill="black"/>
</g>
</g>
</g>
<g id="Medium-S">
<g id="Outline / GBP Outline_23">
<g id="Shape_23">
<path d="M1746.45 640.156C1749.43 639.954 1752.69 640.795 1754.79 642.819C1755.86 643.857 1755.89 645.572 1754.86 646.649C1753.82 647.725 1752.1 647.757 1751.03 646.718C1750.32 646.04 1748.73 645.43 1746.82 645.56C1744.99 645.685 1743.42 646.455 1742.55 647.781C1741.51 649.364 1741.21 651.009 1741.24 653.335C1741.25 654.393 1741.32 655.515 1741.41 656.823L1741.45 657.369C1741.48 657.882 1741.52 658.417 1741.55 658.973H1748.25C1749.74 658.973 1750.96 660.186 1750.96 661.681C1750.96 663.177 1749.74 664.39 1748.25 664.39H1741.58C1741.27 668.054 1740.13 671.227 1738.63 673.719C1738.51 673.923 1738.38 674.123 1738.25 674.32L1755.11 674.32C1756.61 674.32 1757.82 675.533 1757.82 677.028C1757.82 678.524 1756.61 679.737 1755.11 679.737L1731.31 679.737C1729.99 679.737 1728.86 678.778 1728.64 677.47C1728.42 676.163 1729.19 674.891 1730.44 674.464C1731.19 674.209 1732.66 673.129 1733.99 670.924C1735.02 669.218 1735.85 667.001 1736.14 664.39H1731.48C1729.98 664.39 1728.77 663.177 1728.77 661.681C1728.77 660.186 1729.98 658.973 1731.48 658.973H1736.12C1736.1 658.554 1736.07 658.141 1736.05 657.732L1736.01 657.196C1735.92 655.909 1735.83 654.617 1735.82 653.392C1735.79 650.524 1736.16 647.652 1738.03 644.808C1740.06 641.705 1743.41 640.362 1746.45 640.156Z" fill="black"/>
<path fill-rule="evenodd" clip-rule="evenodd" d="M1707.5 661C1707.5 640.289 1724.29 623.5 1745 623.5C1765.71 623.5 1782.5 640.289 1782.5 661C1782.5 681.711 1765.71 698.5 1745 698.5C1724.29 698.5 1707.5 681.711 1707.5 661ZM1712.92 661C1712.92 643.281 1727.28 628.917 1745 628.917C1762.72 628.917 1777.08 643.281 1777.08 661C1777.08 678.719 1762.72 693.083 1745 693.083C1727.28 693.083 1712.92 678.719 1712.92 661Z" fill="black"/>
</g>
</g>
</g>
<g id="Regular-S">
<g id="Outline / GBP Outline_24">
<g id="Shape_24">
<path d="M1450.45 640.156C1453.43 639.954 1456.69 640.795 1458.79 642.819C1459.86 643.857 1459.89 645.572 1458.86 646.649C1457.82 647.725 1456.1 647.757 1455.03 646.718C1454.32 646.04 1452.73 645.43 1450.82 645.56C1448.99 645.685 1447.42 646.455 1446.55 647.781C1445.51 649.364 1445.21 651.009 1445.24 653.335C1445.25 654.393 1445.32 655.515 1445.41 656.823L1445.45 657.369C1445.48 657.882 1445.52 658.417 1445.55 658.973H1452.25C1453.74 658.973 1454.96 660.186 1454.96 661.681C1454.96 663.177 1453.74 664.39 1452.25 664.39H1445.58C1445.27 668.054 1444.13 671.227 1442.63 673.719C1442.51 673.923 1442.38 674.123 1442.25 674.32L1459.11 674.32C1460.61 674.32 1461.82 675.533 1461.82 677.028C1461.82 678.524 1460.61 679.737 1459.11 679.737L1435.31 679.737C1433.99 679.737 1432.86 678.778 1432.64 677.47C1432.42 676.163 1433.19 674.891 1434.44 674.464C1435.19 674.209 1436.66 673.129 1437.99 670.924C1439.02 669.218 1439.85 667.001 1440.14 664.39H1435.48C1433.98 664.39 1432.77 663.177 1432.77 661.681C1432.77 660.186 1433.98 658.973 1435.48 658.973H1440.12C1440.1 658.554 1440.07 658.141 1440.05 657.732L1440.01 657.196C1439.92 655.909 1439.83 654.617 1439.82 653.392C1439.79 650.524 1440.16 647.652 1442.03 644.808C1444.06 641.705 1447.41 640.362 1450.45 640.156Z" fill="black"/>
<path fill-rule="evenodd" clip-rule="evenodd" d="M1411.5 661C1411.5 640.289 1428.29 623.5 1449 623.5C1469.71 623.5 1486.5 640.289 1486.5 661C1486.5 681.711 1469.71 698.5 1449 698.5C1428.29 698.5 1411.5 681.711 1411.5 661ZM1416.92 661C1416.92 643.281 1431.28 628.917 1449 628.917C1466.72 628.917 1481.08 643.281 1481.08 661C1481.08 678.719 1466.72 693.083 1449 693.083C1431.28 693.083 1416.92 678.719 1416.92 661Z" fill="black"/>
</g>
</g>
</g>
<g id="Light-S">
<g id="Outline / GBP Outline_25">
<g id="Shape_25">
<path d="M1154.45 640.156C1157.43 639.954 1160.69 640.795 1162.79 642.819C1163.86 643.857 1163.89 645.572 1162.86 646.649C1161.82 647.725 1160.1 647.757 1159.03 646.718C1158.32 646.04 1156.73 645.43 1154.82 645.56C1152.99 645.685 1151.42 646.455 1150.55 647.781C1149.51 649.364 1149.21 651.009 1149.24 653.335C1149.25 654.393 1149.32 655.515 1149.41 656.823L1149.45 657.369C1149.48 657.882 1149.52 658.417 1149.55 658.973H1156.25C1157.74 658.973 1158.96 660.186 1158.96 661.681C1158.96 663.177 1157.74 664.39 1156.25 664.39H1149.58C1149.27 668.054 1148.13 671.227 1146.63 673.719C1146.51 673.923 1146.38 674.123 1146.25 674.32L1163.11 674.32C1164.61 674.32 1165.82 675.533 1165.82 677.028C1165.82 678.524 1164.61 679.737 1163.11 679.737L1139.31 679.737C1137.99 679.737 1136.86 678.778 1136.64 677.47C1136.42 676.163 1137.19 674.891 1138.44 674.464C1139.19 674.209 1140.66 673.129 1141.99 670.924C1143.02 669.218 1143.85 667.001 1144.14 664.39H1139.48C1137.98 664.39 1136.77 663.177 1136.77 661.681C1136.77 660.186 1137.98 658.973 1139.48 658.973H1144.12C1144.1 658.554 1144.07 658.141 1144.05 657.732L1144.01 657.196C1143.92 655.909 1143.83 654.617 1143.82 653.392C1143.79 650.524 1144.16 647.652 1146.03 644.808C1148.06 641.705 1151.41 640.362 1154.45 640.156Z" fill="black"/>
<path fill-rule="evenodd" clip-rule="evenodd" d="M1115.5 661C1115.5 640.289 1132.29 623.5 1153 623.5C1173.71 623.5 1190.5 640.289 1190.5 661C1190.5 681.711 1173.71 698.5 1153 698.5C1132.29 698.5 1115.5 681.711 1115.5 661ZM1120.92 661C1120.92 643.281 1135.28 628.917 1153 628.917C1170.72 628.917 1185.08 643.281 1185.08 661C1185.08 678.719 1170.72 693.083 1153 693.083C1135.28 693.083 1120.92 678.719 1120.92 661Z" fill="black"/>
</g>
</g>
</g>
<g id="Thin-S">
<g id="Outline / GBP Outline_26">
<g id="Shape_26">
<path d="M858.454 640.156C861.426 639.954 864.686 640.795 866.786 642.819C867.862 643.857 867.894 645.572 866.855 646.649C865.817 647.725 864.102 647.757 863.026 646.718C862.323 646.04 860.729 645.43 858.821 645.56C856.985 645.685 855.425 646.455 854.554 647.781C853.515 649.364 853.212 651.009 853.237 653.335C853.248 654.393 853.324 655.515 853.413 656.823L853.45 657.369C853.485 657.882 853.52 658.417 853.55 658.973H860.248C861.744 658.973 862.956 660.186 862.956 661.681C862.956 663.177 861.744 664.39 860.248 664.39H853.577C853.275 668.054 852.132 671.227 850.63 673.719C850.508 673.923 850.382 674.123 850.253 674.32L867.114 674.32C868.61 674.32 869.823 675.533 869.823 677.028C869.823 678.524 868.61 679.737 867.114 679.737L843.311 679.737C841.986 679.737 840.856 678.778 840.639 677.47C840.423 676.163 841.185 674.891 842.44 674.464C843.19 674.209 844.662 673.129 845.991 670.924C847.019 669.218 847.854 667.001 848.136 664.39H843.476C841.981 664.39 840.768 663.177 840.768 661.681C840.768 660.186 841.981 658.973 843.476 658.973H848.125C848.1 658.554 848.073 658.141 848.046 657.732L848.009 657.196C847.922 655.909 847.833 654.617 847.82 653.392C847.79 650.524 848.159 647.652 850.027 644.808C852.064 641.705 855.409 640.362 858.454 640.156Z" fill="black"/>
<path fill-rule="evenodd" clip-rule="evenodd" d="M819.5 661C819.5 640.289 836.289 623.5 857 623.5C877.711 623.5 894.5 640.289 894.5 661C894.5 681.711 877.711 698.5 857 698.5C836.289 698.5 819.5 681.711 819.5 661ZM824.917 661C824.917 643.281 839.281 628.917 857 628.917C874.719 628.917 889.083 643.281 889.083 661C889.083 678.719 874.719 693.083 857 693.083C839.281 693.083 824.917 678.719 824.917 661Z" fill="black"/>
</g>
</g>
</g>
<g id="Ultralight-S">
<g id="Outline / GBP Outline_27">
<g id="Shape_27">
<path d="M562.454 640.156C565.426 639.954 568.686 640.795 570.786 642.819C571.862 643.857 571.894 645.572 570.855 646.649C569.817 647.725 568.102 647.757 567.026 646.718C566.323 646.04 564.729 645.43 562.821 645.56C560.985 645.685 559.425 646.455 558.554 647.781C557.515 649.364 557.212 651.009 557.237 653.335C557.248 654.393 557.324 655.515 557.413 656.823L557.45 657.369C557.485 657.882 557.52 658.417 557.55 658.973H564.248C565.744 658.973 566.956 660.186 566.956 661.681C566.956 663.177 565.744 664.39 564.248 664.39H557.577C557.275 668.054 556.132 671.227 554.63 673.719C554.508 673.923 554.382 674.123 554.253 674.32L571.114 674.32C572.61 674.32 573.823 675.533 573.823 677.028C573.823 678.524 572.61 679.737 571.114 679.737L547.311 679.737C545.986 679.737 544.856 678.778 544.639 677.47C544.423 676.163 545.185 674.891 546.44 674.464C547.19 674.209 548.662 673.129 549.991 670.924C551.019 669.218 551.854 667.001 552.136 664.39H547.476C545.981 664.39 544.768 663.177 544.768 661.681C544.768 660.186 545.981 658.973 547.476 658.973H552.125C552.1 658.554 552.073 658.141 552.046 657.732L552.009 657.196C551.922 655.909 551.833 654.617 551.82 653.392C551.79 650.524 552.159 647.652 554.027 644.808C556.064 641.705 559.409 640.362 562.454 640.156Z" fill="black"/>
<path fill-rule="evenodd" clip-rule="evenodd" d="M523.5 661C523.5 640.289 540.289 623.5 561 623.5C581.711 623.5 598.5 640.289 598.5 661C598.5 681.711 581.711 698.5 561 698.5C540.289 698.5 523.5 681.711 523.5 661ZM528.917 661C528.917 643.281 543.281 628.917 561 628.917C578.719 628.917 593.083 643.281 593.083 661C593.083 678.719 578.719 693.083 561 693.083C543.281 693.083 528.917 678.719 528.917 661Z" fill="black"/>
</g>
</g>
</g>
</g>
</g>
<defs>
<clipPath id="clip0_0_1">
<rect width="3300" height="2200" fill="white"/>
</clipPath>
</defs>
</svg>
