<svg width="3300" height="2200" viewBox="0 0 3300 2200" fill="none" xmlns="http://www.w3.org/2000/svg">
<rect width="3300" height="2200" fill="#E5E5E5"/>
<g id="System / Outline / Time" clip-path="url(#clip0_805_27002)">
<g id="Notes">
<path id="artboard" d="M3300 0H0V2200H3300V0Z" fill="white"/>
<path id="Vector" d="M263 292H3036" stroke="black" stroke-width="0.5"/>
<text id="Weight/Scale Variations" fill="black" xml:space="preserve" style="white-space: pre" font-family="Roboto" font-size="12" letter-spacing="0em"><tspan x="263" y="321.102">Weight/Scale Variations</tspan></text>
<text id="Ultralight" fill="black" xml:space="preserve" style="white-space: pre" font-family="Roboto" font-size="12" letter-spacing="0em"><tspan x="535.211" y="321.102">Ultralight</tspan></text>
<text id="Thin" fill="black" xml:space="preserve" style="white-space: pre" font-family="Roboto" font-size="12" letter-spacing="0em"><tspan x="844.422" y="321.102">Thin</tspan></text>
<text id="Light" fill="black" xml:space="preserve" style="white-space: pre" font-family="Roboto" font-size="12" letter-spacing="0em"><tspan x="1139.63" y="321.102">Light</tspan></text>
<text id="Regular" fill="black" xml:space="preserve" style="white-space: pre" font-family="Roboto" font-size="12" letter-spacing="0em"><tspan x="1429.34" y="321.102">Regular</tspan></text>
<text id="Medium" fill="black" xml:space="preserve" style="white-space: pre" font-family="Roboto" font-size="12" letter-spacing="0em"><tspan x="1724.56" y="321.102">Medium</tspan></text>
<text id="Semibold" fill="black" xml:space="preserve" style="white-space: pre" font-family="Roboto" font-size="12" letter-spacing="0em"><tspan x="2017.77" y="321.102">Semibold</tspan></text>
<text id="Bold" fill="black" xml:space="preserve" style="white-space: pre" font-family="Roboto" font-size="12" letter-spacing="0em"><tspan x="2327.48" y="321.102">Bold</tspan></text>
<text id="Heavy" fill="black" xml:space="preserve" style="white-space: pre" font-family="Roboto" font-size="12" letter-spacing="0em"><tspan x="2620.19" y="321.102">Heavy</tspan></text>
<text id="Black" fill="black" xml:space="preserve" style="white-space: pre" font-family="Roboto" font-size="12" letter-spacing="0em"><tspan x="2918.4" y="321.102">Black</tspan></text>
<path id="Vector_2" d="M263 1903H3036" stroke="black" stroke-width="0.5"/>
<g id="Group">
<path id="Vector_3" d="M272.248 1933.83C276.555 1933.83 280.139 1930.26 280.139 1925.95C280.139 1921.64 276.545 1918.07 272.238 1918.07C267.941 1918.07 264.367 1921.64 264.367 1925.95C264.367 1930.26 267.951 1933.83 272.248 1933.83ZM272.248 1932.35C268.703 1932.35 265.871 1929.51 265.871 1925.95C265.871 1922.4 268.693 1919.55 272.238 1919.55C275.793 1919.55 278.635 1922.4 278.644 1925.95C278.654 1929.51 275.803 1932.35 272.248 1932.35ZM272.229 1929.57C272.697 1929.57 272.971 1929.26 272.971 1928.74V1926.68H275.197C275.695 1926.68 276.037 1926.43 276.037 1925.96C276.037 1925.48 275.715 1925.22 275.197 1925.22H272.971V1922.99C272.971 1922.47 272.697 1922.15 272.229 1922.15C271.76 1922.15 271.506 1922.49 271.506 1922.99V1925.22H269.299C268.781 1925.22 268.449 1925.48 268.449 1925.96C268.449 1926.43 268.801 1926.68 269.299 1926.68H271.506V1928.74C271.506 1929.24 271.76 1929.57 272.229 1929.57Z" fill="black"/>
</g>
<g id="Group_2">
<path id="Vector_4" d="M293.215 1935.91C298.664 1935.91 303.176 1931.4 303.176 1925.95C303.176 1920.51 298.654 1915.99 293.205 1915.99C287.766 1915.99 283.254 1920.51 283.254 1925.95C283.254 1931.4 287.775 1935.91 293.215 1935.91ZM293.215 1934.25C288.605 1934.25 284.924 1930.56 284.924 1925.95C284.924 1921.35 288.596 1917.65 293.205 1917.65C297.814 1917.65 301.506 1921.35 301.516 1925.95C301.525 1930.56 297.824 1934.25 293.215 1934.25ZM293.195 1930.59C293.713 1930.59 294.025 1930.23 294.025 1929.66V1926.77H297.082C297.629 1926.77 298.01 1926.49 298.01 1925.97C298.01 1925.44 297.648 1925.14 297.082 1925.14H294.025V1922.07C294.025 1921.5 293.713 1921.14 293.195 1921.14C292.678 1921.14 292.385 1921.52 292.385 1922.07V1925.14H289.338C288.771 1925.14 288.4 1925.44 288.4 1925.97C288.4 1926.49 288.791 1926.77 289.338 1926.77H292.385V1929.66C292.385 1930.21 292.678 1930.59 293.195 1930.59Z" fill="black"/>
</g>
<g id="Group_3">
<path id="Vector_5" d="M319.895 1938.67C326.857 1938.67 332.619 1932.92 332.619 1925.96C332.619 1918.99 326.848 1913.24 319.885 1913.24C312.932 1913.24 307.18 1918.99 307.18 1925.96C307.18 1932.92 312.941 1938.67 319.895 1938.67ZM319.895 1936.86C313.859 1936.86 309.006 1931.99 309.006 1925.96C309.006 1919.92 313.85 1915.06 319.885 1915.06C325.93 1915.06 330.783 1919.92 330.793 1925.96C330.803 1931.99 325.939 1936.86 319.895 1936.86ZM319.875 1931.93C320.441 1931.93 320.793 1931.54 320.793 1930.94V1926.87H325.031C325.617 1926.87 326.037 1926.53 326.037 1925.98C326.037 1925.4 325.647 1925.06 325.031 1925.06H320.793V1920.81C320.793 1920.2 320.441 1919.8 319.875 1919.8C319.309 1919.8 318.986 1920.21 318.986 1920.81V1925.06H314.758C314.143 1925.06 313.732 1925.4 313.732 1925.98C313.732 1926.53 314.162 1926.87 314.758 1926.87H318.986V1930.94C318.986 1931.52 319.309 1931.93 319.875 1931.93Z" fill="black"/>
</g>
<text id="Design Variations" fill="black" xml:space="preserve" style="white-space: pre" font-family="Roboto" font-size="12" letter-spacing="0em"><tspan x="263" y="1952.1">Design Variations</tspan></text>
<text id="Symbols are supported in up to nine weights and three scales." fill="black" xml:space="preserve" style="white-space: pre" font-family="Roboto" font-size="12" letter-spacing="0em"><tspan x="263" y="1970.1">Symbols are supported in up to nine weights and three scales.</tspan></text>
<text id="For optimal layout with text and other symbols, vertically align" fill="black" xml:space="preserve" style="white-space: pre" font-family="Roboto" font-size="12" letter-spacing="0em"><tspan x="263" y="1988.1">For optimal layout with text and other symbols, vertically align</tspan></text>
<text id="symbols with the adjacent text." fill="black" xml:space="preserve" style="white-space: pre" font-family="Roboto" font-size="12" letter-spacing="0em"><tspan x="263" y="2006.1">symbols with the adjacent text.</tspan></text>
<path id="Vector_6" opacity="0.4" d="M779 1919H776V1933H779V1919Z" fill="#00AEEF"/>
<g id="Group_4">
<path id="Vector_7" d="M789.525 1933H791.371L786.176 1918.91H784.437L779.242 1933H781.088L782.504 1928.96H788.109L789.525 1933ZM785.277 1921.04H785.336L787.592 1927.47H783.021L785.277 1921.04Z" fill="black"/>
</g>
<path id="Vector_8" opacity="0.4" d="M794.617 1919H791.617V1933H794.617V1919Z" fill="#00AEEF"/>
<text id="Margins" fill="black" xml:space="preserve" style="white-space: pre" font-family="Roboto" font-size="12" letter-spacing="0em"><tspan x="776" y="1952.1">Margins</tspan></text>
<text id="Leading and trailing margins on the left and right side of each symbol" fill="black" xml:space="preserve" style="white-space: pre" font-family="Roboto" font-size="12" letter-spacing="0em"><tspan x="776" y="1970.1">Leading and trailing margins on the left and right side of each symbol</tspan></text>
<text id="can be adjusted by modifying the width of the blue rectangles." fill="black" xml:space="preserve" style="white-space: pre" font-family="Roboto" font-size="12" letter-spacing="0em"><tspan x="776" y="1988.1">can be adjusted by modifying the width of the blue rectangles.</tspan></text>
<text id="Modifications are automatically applied proportionally to all" fill="black" xml:space="preserve" style="white-space: pre" font-family="Roboto" font-size="12" letter-spacing="0em"><tspan x="776" y="2006.1">Modifications are automatically applied proportionally to all</tspan></text>
<text id="scales and weights." fill="black" xml:space="preserve" style="white-space: pre" font-family="Roboto" font-size="12" letter-spacing="0em"><tspan x="776" y="2024.1">scales and weights.</tspan></text>
<g id="Group_5">
<path id="Vector_9" d="M1291.83 1936.11L1293.37 1937.66C1294.22 1938.49 1295.19 1938.42 1296.06 1937.46L1306.27 1926.34C1306.7 1926.63 1307.1 1926.62 1307.56 1926.52L1308.61 1926.31L1309.3 1927L1309.25 1927.52C1309.19 1928.05 1309.35 1928.47 1309.85 1928.97L1310.66 1929.78C1311.17 1930.28 1311.82 1930.31 1312.3 1929.83L1315.55 1926.58C1316.03 1926.1 1316.01 1925.45 1315.5 1924.94L1314.68 1924.12C1314.19 1923.62 1313.77 1923.45 1313.24 1923.53L1312.71 1923.58L1312.06 1922.92L1312.34 1921.78C1312.49 1921.21 1312.34 1920.74 1311.71 1920.14L1309.3 1917.75C1305.76 1914.22 1301.23 1914.33 1298.11 1917.46C1297.69 1917.89 1297.64 1918.48 1297.92 1918.91C1298.15 1919.28 1298.63 1919.5 1299.27 1919.34C1300.79 1918.96 1302.3 1919.07 1303.78 1920.08L1303.16 1921.66C1302.93 1922.25 1302.94 1922.73 1303.18 1923.16L1292.02 1933.44C1291.08 1934.31 1290.97 1935.25 1291.83 1936.11ZM1299.67 1917.85C1302.34 1915.86 1305.65 1916.17 1308.05 1918.58L1310.68 1921.19C1310.91 1921.43 1310.94 1921.61 1310.88 1921.91L1310.5 1923.47L1312.08 1925.04L1313.04 1924.95C1313.33 1924.92 1313.41 1924.94 1313.64 1925.17L1314.26 1925.79L1311.51 1928.54L1310.88 1927.92C1310.66 1927.7 1310.64 1927.6 1310.67 1927.32L1310.76 1926.36L1309.19 1924.8L1307.57 1925.11C1307.29 1925.17 1307.14 1925.17 1306.91 1924.92L1304.73 1922.75C1304.51 1922.51 1304.48 1922.37 1304.61 1922.05L1305.55 1919.78C1303.95 1918.24 1301.84 1917.39 1299.8 1918.05C1299.71 1918.08 1299.64 1918.06 1299.61 1918.02C1299.59 1917.97 1299.59 1917.92 1299.67 1917.85ZM1293.1 1935.41C1292.61 1934.91 1292.79 1934.61 1293.12 1934.31L1304.08 1924.19L1305.31 1925.42L1295.15 1936.35C1294.85 1936.68 1294.47 1936.78 1294.07 1936.38L1293.1 1935.41Z" fill="black"/>
</g>
<text id="Exporting" fill="black" xml:space="preserve" style="white-space: pre" font-family="Roboto" font-size="12" letter-spacing="0em"><tspan x="1289" y="1952.1">Exporting</tspan></text>
<text id="Symbols should be outlined when exporting to ensure the" fill="black" xml:space="preserve" style="white-space: pre" font-family="Roboto" font-size="12" letter-spacing="0em"><tspan x="1289" y="1970.1">Symbols should be outlined when exporting to ensure the</tspan></text>
<text id="design is preserved when submitting to Xcode." fill="black" xml:space="preserve" style="white-space: pre" font-family="Roboto" font-size="12" letter-spacing="0em"><tspan x="1289" y="1988.1">design is preserved when submitting to Xcode.</tspan></text>
<text id="template-version" fill="black" xml:space="preserve" style="white-space: pre" font-family="Roboto" font-size="12" letter-spacing="0em"><tspan x="2958" y="1932.1">Template v.1.0</tspan></text>
<text id="Generated from pencil.circle" fill="black" xml:space="preserve" style="white-space: pre" font-family="Roboto" font-size="12" letter-spacing="0em"><tspan x="2885" y="1950.1">Generated from pencil.circle</tspan></text>
<text id="Typeset at 100 points" fill="black" xml:space="preserve" style="white-space: pre" font-family="Roboto" font-size="12" letter-spacing="0em"><tspan x="2921" y="1968.1">Typeset at 100 points</tspan></text>
<text id="Small" fill="black" xml:space="preserve" style="white-space: pre" font-family="Roboto" font-size="12" letter-spacing="0em"><tspan x="263" y="725.102">Small</tspan></text>
<text id="Medium_2" fill="black" xml:space="preserve" style="white-space: pre" font-family="Roboto" font-size="12" letter-spacing="0em"><tspan x="263" y="1155.1">Medium</tspan></text>
<text id="Large" fill="black" xml:space="preserve" style="white-space: pre" font-family="Roboto" font-size="12" letter-spacing="0em"><tspan x="263" y="1585.1">Large</tspan></text>
</g>
<g id="Guides">
<g id="H-reference">
<path id="Vector_10" d="M393.932 695.998H396.666L369.566 625.539H367.076L339.977 695.998H342.662L351.94 671.535H384.703L393.932 695.998ZM368.199 628.908H368.443L383.824 669.289H352.818L368.199 628.908Z" fill="#27AAE1"/>
</g>
<path id="Baseline-S" d="M263 696H3036" stroke="#27AAE1" stroke-width="0.577"/>
<path id="Capline-S" d="M263 626H3036" stroke="#27AAE1" stroke-width="0.577"/>
<g id="H-reference_2">
<path id="Vector_11" d="M393.932 1126H396.666L369.566 1055.54H367.076L339.977 1126H342.662L351.94 1101.54H384.703L393.932 1126ZM368.199 1058.91H368.443L383.824 1099.29H352.818L368.199 1058.91Z" fill="#27AAE1"/>
</g>
<path id="Baseline-M" d="M263 1126H3036" stroke="#27AAE1" stroke-width="0.577"/>
<path id="Capline-M" d="M263 1056H3036" stroke="#27AAE1" stroke-width="0.577"/>
<g id="H-reference_3">
<path id="Vector_12" d="M393.932 1556H396.666L369.566 1485.54H367.076L339.977 1556H342.662L351.94 1531.54H384.703L393.932 1556ZM368.199 1488.91H368.443L383.824 1529.29H352.818L368.199 1488.91Z" fill="#27AAE1"/>
</g>
<g id="Group 1">
<path id="Baseline-L" d="M263 1556H3036" stroke="#27AAE1" stroke-width="0.577"/>
<path id="Capline-L" d="M263 1486H3036" stroke="#27AAE1" stroke-width="0.577"/>
</g>
<path id="left-margin" opacity="0.4" d="M1396.04 1030.79H1387.3V1150.12H1396.04V1030.79Z" fill="#00AEEF"/>
<path id="right-margin" opacity="0.4" d="M1510.39 1030.79H1501.65V1150.12H1510.39V1030.79Z" fill="#00AEEF"/>
</g>
<g id="Symbols">
<g id="Black-L">
<g id="Outline / Time Outline">
<g id="Shape">
<path d="M2933.87 1492.15C2933.87 1489.46 2931.69 1487.28 2929 1487.28C2926.31 1487.28 2924.12 1489.46 2924.12 1492.15V1525.9C2924.12 1528.59 2926.31 1530.78 2929 1530.78H2959C2961.69 1530.78 2963.87 1528.59 2963.87 1525.9C2963.87 1523.21 2961.69 1521.03 2959 1521.03H2933.87V1492.15Z" fill="black"/>
<path fill-rule="evenodd" clip-rule="evenodd" d="M2861.5 1521C2861.5 1483.72 2891.72 1453.5 2929 1453.5C2966.28 1453.5 2996.5 1483.72 2996.5 1521C2996.5 1558.28 2966.28 1588.5 2929 1588.5C2891.72 1588.5 2861.5 1558.28 2861.5 1521ZM2929 1463.25C2897.11 1463.25 2871.25 1489.11 2871.25 1521C2871.25 1552.89 2897.11 1578.75 2929 1578.75C2960.89 1578.75 2986.75 1552.89 2986.75 1521C2986.75 1489.11 2960.89 1463.25 2929 1463.25Z" fill="black"/>
</g>
</g>
</g>
<g id="Heavy-L">
<g id="Outline / Time Outline_2">
<g id="Shape_2">
<path d="M2637.87 1492.15C2637.87 1489.46 2635.69 1487.28 2633 1487.28C2630.31 1487.28 2628.12 1489.46 2628.12 1492.15V1525.9C2628.12 1528.59 2630.31 1530.78 2633 1530.78H2663C2665.69 1530.78 2667.87 1528.59 2667.87 1525.9C2667.87 1523.21 2665.69 1521.03 2663 1521.03H2637.87V1492.15Z" fill="black"/>
<path fill-rule="evenodd" clip-rule="evenodd" d="M2565.5 1521C2565.5 1483.72 2595.72 1453.5 2633 1453.5C2670.28 1453.5 2700.5 1483.72 2700.5 1521C2700.5 1558.28 2670.28 1588.5 2633 1588.5C2595.72 1588.5 2565.5 1558.28 2565.5 1521ZM2633 1463.25C2601.11 1463.25 2575.25 1489.11 2575.25 1521C2575.25 1552.89 2601.11 1578.75 2633 1578.75C2664.89 1578.75 2690.75 1552.89 2690.75 1521C2690.75 1489.11 2664.89 1463.25 2633 1463.25Z" fill="black"/>
</g>
</g>
</g>
<g id="Bold-L">
<g id="Outline / Time Outline_3">
<g id="Shape_3">
<path d="M2341.87 1492.15C2341.87 1489.46 2339.69 1487.28 2337 1487.28C2334.31 1487.28 2332.12 1489.46 2332.12 1492.15V1525.9C2332.12 1528.59 2334.31 1530.78 2337 1530.78H2367C2369.69 1530.78 2371.87 1528.59 2371.87 1525.9C2371.87 1523.21 2369.69 1521.03 2367 1521.03H2341.87V1492.15Z" fill="black"/>
<path fill-rule="evenodd" clip-rule="evenodd" d="M2269.5 1521C2269.5 1483.72 2299.72 1453.5 2337 1453.5C2374.28 1453.5 2404.5 1483.72 2404.5 1521C2404.5 1558.28 2374.28 1588.5 2337 1588.5C2299.72 1588.5 2269.5 1558.28 2269.5 1521ZM2337 1463.25C2305.11 1463.25 2279.25 1489.11 2279.25 1521C2279.25 1552.89 2305.11 1578.75 2337 1578.75C2368.89 1578.75 2394.75 1552.89 2394.75 1521C2394.75 1489.11 2368.89 1463.25 2337 1463.25Z" fill="black"/>
</g>
</g>
</g>
<g id="Semibold-L">
<g id="Outline / Time Outline_4">
<g id="Shape_4">
<path d="M2045.87 1492.15C2045.87 1489.46 2043.69 1487.28 2041 1487.28C2038.31 1487.28 2036.12 1489.46 2036.12 1492.15V1525.9C2036.12 1528.59 2038.31 1530.78 2041 1530.78H2071C2073.69 1530.78 2075.87 1528.59 2075.87 1525.9C2075.87 1523.21 2073.69 1521.03 2071 1521.03H2045.87V1492.15Z" fill="black"/>
<path fill-rule="evenodd" clip-rule="evenodd" d="M1973.5 1521C1973.5 1483.72 2003.72 1453.5 2041 1453.5C2078.28 1453.5 2108.5 1483.72 2108.5 1521C2108.5 1558.28 2078.28 1588.5 2041 1588.5C2003.72 1588.5 1973.5 1558.28 1973.5 1521ZM2041 1463.25C2009.11 1463.25 1983.25 1489.11 1983.25 1521C1983.25 1552.89 2009.11 1578.75 2041 1578.75C2072.89 1578.75 2098.75 1552.89 2098.75 1521C2098.75 1489.11 2072.89 1463.25 2041 1463.25Z" fill="black"/>
</g>
</g>
</g>
<g id="Medium-L">
<g id="Outline / Time Outline_5">
<g id="Shape_5">
<path d="M1749.87 1492.15C1749.87 1489.46 1747.69 1487.28 1745 1487.28C1742.31 1487.28 1740.12 1489.46 1740.12 1492.15V1525.9C1740.12 1528.59 1742.31 1530.78 1745 1530.78H1775C1777.69 1530.78 1779.87 1528.59 1779.87 1525.9C1779.87 1523.21 1777.69 1521.03 1775 1521.03H1749.87V1492.15Z" fill="black"/>
<path fill-rule="evenodd" clip-rule="evenodd" d="M1677.5 1521C1677.5 1483.72 1707.72 1453.5 1745 1453.5C1782.28 1453.5 1812.5 1483.72 1812.5 1521C1812.5 1558.28 1782.28 1588.5 1745 1588.5C1707.72 1588.5 1677.5 1558.28 1677.5 1521ZM1745 1463.25C1713.11 1463.25 1687.25 1489.11 1687.25 1521C1687.25 1552.89 1713.11 1578.75 1745 1578.75C1776.89 1578.75 1802.75 1552.89 1802.75 1521C1802.75 1489.11 1776.89 1463.25 1745 1463.25Z" fill="black"/>
</g>
</g>
</g>
<g id="Regular-L">
<g id="Outline / Time Outline_6">
<g id="Shape_6">
<path d="M1453.87 1492.15C1453.87 1489.46 1451.69 1487.28 1449 1487.28C1446.31 1487.28 1444.12 1489.46 1444.12 1492.15V1525.9C1444.12 1528.59 1446.31 1530.78 1449 1530.78H1479C1481.69 1530.78 1483.87 1528.59 1483.87 1525.9C1483.87 1523.21 1481.69 1521.03 1479 1521.03H1453.87V1492.15Z" fill="black"/>
<path fill-rule="evenodd" clip-rule="evenodd" d="M1381.5 1521C1381.5 1483.72 1411.72 1453.5 1449 1453.5C1486.28 1453.5 1516.5 1483.72 1516.5 1521C1516.5 1558.28 1486.28 1588.5 1449 1588.5C1411.72 1588.5 1381.5 1558.28 1381.5 1521ZM1449 1463.25C1417.11 1463.25 1391.25 1489.11 1391.25 1521C1391.25 1552.89 1417.11 1578.75 1449 1578.75C1480.89 1578.75 1506.75 1552.89 1506.75 1521C1506.75 1489.11 1480.89 1463.25 1449 1463.25Z" fill="black"/>
</g>
</g>
</g>
<g id="Light-L">
<g id="Outline / Time Outline_7">
<g id="Shape_7">
<path d="M1157.87 1492.15C1157.87 1489.46 1155.69 1487.28 1153 1487.28C1150.31 1487.28 1148.12 1489.46 1148.12 1492.15V1525.9C1148.12 1528.59 1150.31 1530.78 1153 1530.78H1183C1185.69 1530.78 1187.87 1528.59 1187.87 1525.9C1187.87 1523.21 1185.69 1521.03 1183 1521.03H1157.87V1492.15Z" fill="black"/>
<path fill-rule="evenodd" clip-rule="evenodd" d="M1085.5 1521C1085.5 1483.72 1115.72 1453.5 1153 1453.5C1190.28 1453.5 1220.5 1483.72 1220.5 1521C1220.5 1558.28 1190.28 1588.5 1153 1588.5C1115.72 1588.5 1085.5 1558.28 1085.5 1521ZM1153 1463.25C1121.11 1463.25 1095.25 1489.11 1095.25 1521C1095.25 1552.89 1121.11 1578.75 1153 1578.75C1184.89 1578.75 1210.75 1552.89 1210.75 1521C1210.75 1489.11 1184.89 1463.25 1153 1463.25Z" fill="black"/>
</g>
</g>
</g>
<g id="Thin-L">
<g id="Outline / Time Outline_8">
<g id="Shape_8">
<path d="M861.875 1492.15C861.875 1489.46 859.692 1487.28 857 1487.28C854.308 1487.28 852.125 1489.46 852.125 1492.15V1525.9C852.125 1528.59 854.308 1530.78 857 1530.78H887C889.692 1530.78 891.875 1528.59 891.875 1525.9C891.875 1523.21 889.692 1521.03 887 1521.03H861.875V1492.15Z" fill="black"/>
<path fill-rule="evenodd" clip-rule="evenodd" d="M789.5 1521C789.5 1483.72 819.721 1453.5 857 1453.5C894.279 1453.5 924.5 1483.72 924.5 1521C924.5 1558.28 894.279 1588.5 857 1588.5C819.721 1588.5 789.5 1558.28 789.5 1521ZM857 1463.25C825.106 1463.25 799.25 1489.11 799.25 1521C799.25 1552.89 825.106 1578.75 857 1578.75C888.894 1578.75 914.75 1552.89 914.75 1521C914.75 1489.11 888.894 1463.25 857 1463.25Z" fill="black"/>
</g>
</g>
</g>
<g id="Ultralight-L">
<g id="Outline / Time Outline_9">
<g id="Shape_9">
<path d="M565.875 1492.15C565.875 1489.46 563.692 1487.28 561 1487.28C558.308 1487.28 556.125 1489.46 556.125 1492.15V1525.9C556.125 1528.59 558.308 1530.78 561 1530.78H591C593.692 1530.78 595.875 1528.59 595.875 1525.9C595.875 1523.21 593.692 1521.03 591 1521.03H565.875V1492.15Z" fill="black"/>
<path fill-rule="evenodd" clip-rule="evenodd" d="M493.5 1521C493.5 1483.72 523.721 1453.5 561 1453.5C598.279 1453.5 628.5 1483.72 628.5 1521C628.5 1558.28 598.279 1588.5 561 1588.5C523.721 1588.5 493.5 1558.28 493.5 1521ZM561 1463.25C529.106 1463.25 503.25 1489.11 503.25 1521C503.25 1552.89 529.106 1578.75 561 1578.75C592.894 1578.75 618.75 1552.89 618.75 1521C618.75 1489.11 592.894 1463.25 561 1463.25Z" fill="black"/>
</g>
</g>
</g>
<g id="Black-M">
<g id="Outline / Time Outline_10">
<g id="Shape_10">
<path d="M2932.79 1068.56C2932.79 1066.47 2931.09 1064.77 2929 1064.77C2926.91 1064.77 2925.21 1066.47 2925.21 1068.56V1094.81C2925.21 1096.91 2926.91 1098.6 2929 1098.6H2952.33C2954.43 1098.6 2956.12 1096.91 2956.12 1094.81C2956.12 1092.72 2954.43 1091.02 2952.33 1091.02H2932.79V1068.56Z" fill="black"/>
<path fill-rule="evenodd" clip-rule="evenodd" d="M2876.5 1091C2876.5 1062.01 2900.01 1038.5 2929 1038.5C2957.99 1038.5 2981.5 1062.01 2981.5 1091C2981.5 1119.99 2957.99 1143.5 2929 1143.5C2900.01 1143.5 2876.5 1119.99 2876.5 1091ZM2929 1046.08C2904.19 1046.08 2884.08 1066.19 2884.08 1091C2884.08 1115.81 2904.19 1135.92 2929 1135.92C2953.81 1135.92 2973.92 1115.81 2973.92 1091C2973.92 1066.19 2953.81 1046.08 2929 1046.08Z" fill="black"/>
</g>
</g>
</g>
<g id="Heavy-M">
<g id="Outline / Time Outline_11">
<g id="Shape_11">
<path d="M2636.79 1068.56C2636.79 1066.47 2635.09 1064.77 2633 1064.77C2630.91 1064.77 2629.21 1066.47 2629.21 1068.56V1094.81C2629.21 1096.91 2630.91 1098.6 2633 1098.6H2656.33C2658.43 1098.6 2660.12 1096.91 2660.12 1094.81C2660.12 1092.72 2658.43 1091.02 2656.33 1091.02H2636.79V1068.56Z" fill="black"/>
<path fill-rule="evenodd" clip-rule="evenodd" d="M2580.5 1091C2580.5 1062.01 2604.01 1038.5 2633 1038.5C2661.99 1038.5 2685.5 1062.01 2685.5 1091C2685.5 1119.99 2661.99 1143.5 2633 1143.5C2604.01 1143.5 2580.5 1119.99 2580.5 1091ZM2633 1046.08C2608.19 1046.08 2588.08 1066.19 2588.08 1091C2588.08 1115.81 2608.19 1135.92 2633 1135.92C2657.81 1135.92 2677.92 1115.81 2677.92 1091C2677.92 1066.19 2657.81 1046.08 2633 1046.08Z" fill="black"/>
</g>
</g>
</g>
<g id="Bold-M">
<g id="Outline / Time Outline_12">
<g id="Shape_12">
<path d="M2340.79 1068.56C2340.79 1066.47 2339.09 1064.77 2337 1064.77C2334.91 1064.77 2333.21 1066.47 2333.21 1068.56V1094.81C2333.21 1096.91 2334.91 1098.6 2337 1098.6H2360.33C2362.43 1098.6 2364.12 1096.91 2364.12 1094.81C2364.12 1092.72 2362.43 1091.02 2360.33 1091.02H2340.79V1068.56Z" fill="black"/>
<path fill-rule="evenodd" clip-rule="evenodd" d="M2284.5 1091C2284.5 1062.01 2308.01 1038.5 2337 1038.5C2365.99 1038.5 2389.5 1062.01 2389.5 1091C2389.5 1119.99 2365.99 1143.5 2337 1143.5C2308.01 1143.5 2284.5 1119.99 2284.5 1091ZM2337 1046.08C2312.19 1046.08 2292.08 1066.19 2292.08 1091C2292.08 1115.81 2312.19 1135.92 2337 1135.92C2361.81 1135.92 2381.92 1115.81 2381.92 1091C2381.92 1066.19 2361.81 1046.08 2337 1046.08Z" fill="black"/>
</g>
</g>
</g>
<g id="Semibold-M">
<g id="Outline / Time Outline_13">
<g id="Shape_13">
<path d="M2044.79 1068.56C2044.79 1066.47 2043.09 1064.77 2041 1064.77C2038.91 1064.77 2037.21 1066.47 2037.21 1068.56V1094.81C2037.21 1096.91 2038.91 1098.6 2041 1098.6H2064.33C2066.43 1098.6 2068.12 1096.91 2068.12 1094.81C2068.12 1092.72 2066.43 1091.02 2064.33 1091.02H2044.79V1068.56Z" fill="black"/>
<path fill-rule="evenodd" clip-rule="evenodd" d="M1988.5 1091C1988.5 1062.01 2012.01 1038.5 2041 1038.5C2069.99 1038.5 2093.5 1062.01 2093.5 1091C2093.5 1119.99 2069.99 1143.5 2041 1143.5C2012.01 1143.5 1988.5 1119.99 1988.5 1091ZM2041 1046.08C2016.19 1046.08 1996.08 1066.19 1996.08 1091C1996.08 1115.81 2016.19 1135.92 2041 1135.92C2065.81 1135.92 2085.92 1115.81 2085.92 1091C2085.92 1066.19 2065.81 1046.08 2041 1046.08Z" fill="black"/>
</g>
</g>
</g>
<g id="Medium-M">
<g id="Outline / Time Outline_14">
<g id="Shape_14">
<path d="M1748.79 1068.56C1748.79 1066.47 1747.09 1064.77 1745 1064.77C1742.91 1064.77 1741.21 1066.47 1741.21 1068.56V1094.81C1741.21 1096.91 1742.91 1098.6 1745 1098.6H1768.33C1770.43 1098.6 1772.12 1096.91 1772.12 1094.81C1772.12 1092.72 1770.43 1091.02 1768.33 1091.02H1748.79V1068.56Z" fill="black"/>
<path fill-rule="evenodd" clip-rule="evenodd" d="M1692.5 1091C1692.5 1062.01 1716.01 1038.5 1745 1038.5C1773.99 1038.5 1797.5 1062.01 1797.5 1091C1797.5 1119.99 1773.99 1143.5 1745 1143.5C1716.01 1143.5 1692.5 1119.99 1692.5 1091ZM1745 1046.08C1720.19 1046.08 1700.08 1066.19 1700.08 1091C1700.08 1115.81 1720.19 1135.92 1745 1135.92C1769.81 1135.92 1789.92 1115.81 1789.92 1091C1789.92 1066.19 1769.81 1046.08 1745 1046.08Z" fill="black"/>
</g>
</g>
</g>
<g id="Regular-M">
<g id="Outline / Time Outline_15">
<g id="Shape_15">
<path d="M1452.79 1068.56C1452.79 1066.47 1451.09 1064.77 1449 1064.77C1446.91 1064.77 1445.21 1066.47 1445.21 1068.56V1094.81C1445.21 1096.91 1446.91 1098.6 1449 1098.6H1472.33C1474.43 1098.6 1476.12 1096.91 1476.12 1094.81C1476.12 1092.72 1474.43 1091.02 1472.33 1091.02H1452.79V1068.56Z" fill="black"/>
<path fill-rule="evenodd" clip-rule="evenodd" d="M1396.5 1091C1396.5 1062.01 1420.01 1038.5 1449 1038.5C1477.99 1038.5 1501.5 1062.01 1501.5 1091C1501.5 1119.99 1477.99 1143.5 1449 1143.5C1420.01 1143.5 1396.5 1119.99 1396.5 1091ZM1449 1046.08C1424.19 1046.08 1404.08 1066.19 1404.08 1091C1404.08 1115.81 1424.19 1135.92 1449 1135.92C1473.81 1135.92 1493.92 1115.81 1493.92 1091C1493.92 1066.19 1473.81 1046.08 1449 1046.08Z" fill="black"/>
</g>
</g>
</g>
<g id="Light-M">
<g id="Outline / Time Outline_16">
<g id="Shape_16">
<path d="M1156.79 1068.56C1156.79 1066.47 1155.09 1064.77 1153 1064.77C1150.91 1064.77 1149.21 1066.47 1149.21 1068.56V1094.81C1149.21 1096.91 1150.91 1098.6 1153 1098.6H1176.33C1178.43 1098.6 1180.12 1096.91 1180.12 1094.81C1180.12 1092.72 1178.43 1091.02 1176.33 1091.02H1156.79V1068.56Z" fill="black"/>
<path fill-rule="evenodd" clip-rule="evenodd" d="M1100.5 1091C1100.5 1062.01 1124.01 1038.5 1153 1038.5C1181.99 1038.5 1205.5 1062.01 1205.5 1091C1205.5 1119.99 1181.99 1143.5 1153 1143.5C1124.01 1143.5 1100.5 1119.99 1100.5 1091ZM1153 1046.08C1128.19 1046.08 1108.08 1066.19 1108.08 1091C1108.08 1115.81 1128.19 1135.92 1153 1135.92C1177.81 1135.92 1197.92 1115.81 1197.92 1091C1197.92 1066.19 1177.81 1046.08 1153 1046.08Z" fill="black"/>
</g>
</g>
</g>
<g id="Thin-M">
<g id="Outline / Time Outline_17">
<g id="Shape_17">
<path d="M860.792 1068.56C860.792 1066.47 859.094 1064.77 857 1064.77C854.906 1064.77 853.208 1066.47 853.208 1068.56V1094.81C853.208 1096.91 854.906 1098.6 857 1098.6H880.333C882.427 1098.6 884.125 1096.91 884.125 1094.81C884.125 1092.72 882.427 1091.02 880.333 1091.02H860.792V1068.56Z" fill="black"/>
<path fill-rule="evenodd" clip-rule="evenodd" d="M804.5 1091C804.5 1062.01 828.005 1038.5 857 1038.5C885.995 1038.5 909.5 1062.01 909.5 1091C909.5 1119.99 885.995 1143.5 857 1143.5C828.005 1143.5 804.5 1119.99 804.5 1091ZM857 1046.08C832.193 1046.08 812.083 1066.19 812.083 1091C812.083 1115.81 832.193 1135.92 857 1135.92C881.807 1135.92 901.917 1115.81 901.917 1091C901.917 1066.19 881.807 1046.08 857 1046.08Z" fill="black"/>
</g>
</g>
</g>
<g id="Ultralight-M">
<g id="Outline / Time Outline_18">
<g id="Shape_18">
<path d="M564.792 1068.56C564.792 1066.47 563.094 1064.77 561 1064.77C558.906 1064.77 557.208 1066.47 557.208 1068.56V1094.81C557.208 1096.91 558.906 1098.6 561 1098.6H584.333C586.427 1098.6 588.125 1096.91 588.125 1094.81C588.125 1092.72 586.427 1091.02 584.333 1091.02H564.792V1068.56Z" fill="black"/>
<path fill-rule="evenodd" clip-rule="evenodd" d="M508.5 1091C508.5 1062.01 532.005 1038.5 561 1038.5C589.995 1038.5 613.5 1062.01 613.5 1091C613.5 1119.99 589.995 1143.5 561 1143.5C532.005 1143.5 508.5 1119.99 508.5 1091ZM561 1046.08C536.193 1046.08 516.083 1066.19 516.083 1091C516.083 1115.81 536.193 1135.92 561 1135.92C585.807 1135.92 605.917 1115.81 605.917 1091C605.917 1066.19 585.807 1046.08 561 1046.08Z" fill="black"/>
</g>
</g>
</g>
<g id="Black-S">
<g id="Outline / Time Outline_19">
<g id="Shape_19">
<path d="M2931.71 644.973C2931.71 643.477 2930.5 642.264 2929 642.264C2927.5 642.264 2926.29 643.477 2926.29 644.973V663.723C2926.29 665.218 2927.5 666.431 2929 666.431H2945.67C2947.16 666.431 2948.37 665.218 2948.37 663.723C2948.37 662.227 2947.16 661.014 2945.67 661.014H2931.71V644.973Z" fill="black"/>
<path fill-rule="evenodd" clip-rule="evenodd" d="M2891.5 661C2891.5 640.289 2908.29 623.5 2929 623.5C2949.71 623.5 2966.5 640.289 2966.5 661C2966.5 681.711 2949.71 698.5 2929 698.5C2908.29 698.5 2891.5 681.711 2891.5 661ZM2929 628.917C2911.28 628.917 2896.92 643.281 2896.92 661C2896.92 678.719 2911.28 693.083 2929 693.083C2946.72 693.083 2961.08 678.719 2961.08 661C2961.08 643.281 2946.72 628.917 2929 628.917Z" fill="black"/>
</g>
</g>
</g>
<g id="Heavy-S">
<g id="Outline / Time Outline_20">
<g id="Shape_20">
<path d="M2635.71 644.973C2635.71 643.477 2634.5 642.264 2633 642.264C2631.5 642.264 2630.29 643.477 2630.29 644.973V663.723C2630.29 665.218 2631.5 666.431 2633 666.431H2649.67C2651.16 666.431 2652.37 665.218 2652.37 663.723C2652.37 662.227 2651.16 661.014 2649.67 661.014H2635.71V644.973Z" fill="black"/>
<path fill-rule="evenodd" clip-rule="evenodd" d="M2595.5 661C2595.5 640.289 2612.29 623.5 2633 623.5C2653.71 623.5 2670.5 640.289 2670.5 661C2670.5 681.711 2653.71 698.5 2633 698.5C2612.29 698.5 2595.5 681.711 2595.5 661ZM2633 628.917C2615.28 628.917 2600.92 643.281 2600.92 661C2600.92 678.719 2615.28 693.083 2633 693.083C2650.72 693.083 2665.08 678.719 2665.08 661C2665.08 643.281 2650.72 628.917 2633 628.917Z" fill="black"/>
</g>
</g>
</g>
<g id="Bold-S">
<g id="Outline / Time Outline_21">
<g id="Shape_21">
<path d="M2339.71 644.973C2339.71 643.477 2338.5 642.264 2337 642.264C2335.5 642.264 2334.29 643.477 2334.29 644.973V663.723C2334.29 665.218 2335.5 666.431 2337 666.431H2353.67C2355.16 666.431 2356.37 665.218 2356.37 663.723C2356.37 662.227 2355.16 661.014 2353.67 661.014H2339.71V644.973Z" fill="black"/>
<path fill-rule="evenodd" clip-rule="evenodd" d="M2299.5 661C2299.5 640.289 2316.29 623.5 2337 623.5C2357.71 623.5 2374.5 640.289 2374.5 661C2374.5 681.711 2357.71 698.5 2337 698.5C2316.29 698.5 2299.5 681.711 2299.5 661ZM2337 628.917C2319.28 628.917 2304.92 643.281 2304.92 661C2304.92 678.719 2319.28 693.083 2337 693.083C2354.72 693.083 2369.08 678.719 2369.08 661C2369.08 643.281 2354.72 628.917 2337 628.917Z" fill="black"/>
</g>
</g>
</g>
<g id="Semibold-S">
<g id="Outline / Time Outline_22">
<g id="Shape_22">
<path d="M2043.71 644.973C2043.71 643.477 2042.5 642.264 2041 642.264C2039.5 642.264 2038.29 643.477 2038.29 644.973V663.723C2038.29 665.218 2039.5 666.431 2041 666.431H2057.67C2059.16 666.431 2060.37 665.218 2060.37 663.723C2060.37 662.227 2059.16 661.014 2057.67 661.014H2043.71V644.973Z" fill="black"/>
<path fill-rule="evenodd" clip-rule="evenodd" d="M2003.5 661C2003.5 640.289 2020.29 623.5 2041 623.5C2061.71 623.5 2078.5 640.289 2078.5 661C2078.5 681.711 2061.71 698.5 2041 698.5C2020.29 698.5 2003.5 681.711 2003.5 661ZM2041 628.917C2023.28 628.917 2008.92 643.281 2008.92 661C2008.92 678.719 2023.28 693.083 2041 693.083C2058.72 693.083 2073.08 678.719 2073.08 661C2073.08 643.281 2058.72 628.917 2041 628.917Z" fill="black"/>
</g>
</g>
</g>
<g id="Medium-S">
<g id="Outline / Time Outline_23">
<g id="Shape_23">
<path d="M1747.71 644.973C1747.71 643.477 1746.5 642.264 1745 642.264C1743.5 642.264 1742.29 643.477 1742.29 644.973V663.723C1742.29 665.218 1743.5 666.431 1745 666.431H1761.67C1763.16 666.431 1764.37 665.218 1764.37 663.723C1764.37 662.227 1763.16 661.014 1761.67 661.014H1747.71V644.973Z" fill="black"/>
<path fill-rule="evenodd" clip-rule="evenodd" d="M1707.5 661C1707.5 640.289 1724.29 623.5 1745 623.5C1765.71 623.5 1782.5 640.289 1782.5 661C1782.5 681.711 1765.71 698.5 1745 698.5C1724.29 698.5 1707.5 681.711 1707.5 661ZM1745 628.917C1727.28 628.917 1712.92 643.281 1712.92 661C1712.92 678.719 1727.28 693.083 1745 693.083C1762.72 693.083 1777.08 678.719 1777.08 661C1777.08 643.281 1762.72 628.917 1745 628.917Z" fill="black"/>
</g>
</g>
</g>
<g id="Regular-S">
<g id="Outline / Time Outline_24">
<g id="Shape_24">
<path d="M1451.71 644.973C1451.71 643.477 1450.5 642.264 1449 642.264C1447.5 642.264 1446.29 643.477 1446.29 644.973V663.723C1446.29 665.218 1447.5 666.431 1449 666.431H1465.67C1467.16 666.431 1468.37 665.218 1468.37 663.723C1468.37 662.227 1467.16 661.014 1465.67 661.014H1451.71V644.973Z" fill="black"/>
<path fill-rule="evenodd" clip-rule="evenodd" d="M1411.5 661C1411.5 640.289 1428.29 623.5 1449 623.5C1469.71 623.5 1486.5 640.289 1486.5 661C1486.5 681.711 1469.71 698.5 1449 698.5C1428.29 698.5 1411.5 681.711 1411.5 661ZM1449 628.917C1431.28 628.917 1416.92 643.281 1416.92 661C1416.92 678.719 1431.28 693.083 1449 693.083C1466.72 693.083 1481.08 678.719 1481.08 661C1481.08 643.281 1466.72 628.917 1449 628.917Z" fill="black"/>
</g>
</g>
</g>
<g id="Light-S">
<g id="Outline / Time Outline_25">
<g id="Shape_25">
<path d="M1155.71 644.973C1155.71 643.477 1154.5 642.264 1153 642.264C1151.5 642.264 1150.29 643.477 1150.29 644.973V663.723C1150.29 665.218 1151.5 666.431 1153 666.431H1169.67C1171.16 666.431 1172.37 665.218 1172.37 663.723C1172.37 662.227 1171.16 661.014 1169.67 661.014H1155.71V644.973Z" fill="black"/>
<path fill-rule="evenodd" clip-rule="evenodd" d="M1115.5 661C1115.5 640.289 1132.29 623.5 1153 623.5C1173.71 623.5 1190.5 640.289 1190.5 661C1190.5 681.711 1173.71 698.5 1153 698.5C1132.29 698.5 1115.5 681.711 1115.5 661ZM1153 628.917C1135.28 628.917 1120.92 643.281 1120.92 661C1120.92 678.719 1135.28 693.083 1153 693.083C1170.72 693.083 1185.08 678.719 1185.08 661C1185.08 643.281 1170.72 628.917 1153 628.917Z" fill="black"/>
</g>
</g>
</g>
<g id="Thin-S">
<g id="Outline / Time Outline_26">
<g id="Shape_26">
<path d="M859.708 644.973C859.708 643.477 858.496 642.264 857 642.264C855.504 642.264 854.292 643.477 854.292 644.973V663.723C854.292 665.218 855.504 666.431 857 666.431H873.667C875.162 666.431 876.375 665.218 876.375 663.723C876.375 662.227 875.162 661.014 873.667 661.014H859.708V644.973Z" fill="black"/>
<path fill-rule="evenodd" clip-rule="evenodd" d="M819.5 661C819.5 640.289 836.289 623.5 857 623.5C877.711 623.5 894.5 640.289 894.5 661C894.5 681.711 877.711 698.5 857 698.5C836.289 698.5 819.5 681.711 819.5 661ZM857 628.917C839.281 628.917 824.917 643.281 824.917 661C824.917 678.719 839.281 693.083 857 693.083C874.719 693.083 889.083 678.719 889.083 661C889.083 643.281 874.719 628.917 857 628.917Z" fill="black"/>
</g>
</g>
</g>
<g id="Ultralight-S">
<g id="Outline / Time Outline_27">
<g id="Shape_27">
<path d="M563.708 644.973C563.708 643.477 562.496 642.264 561 642.264C559.504 642.264 558.292 643.477 558.292 644.973V663.723C558.292 665.218 559.504 666.431 561 666.431H577.667C579.162 666.431 580.375 665.218 580.375 663.723C580.375 662.227 579.162 661.014 577.667 661.014H563.708V644.973Z" fill="black"/>
<path fill-rule="evenodd" clip-rule="evenodd" d="M523.5 661C523.5 640.289 540.289 623.5 561 623.5C581.711 623.5 598.5 640.289 598.5 661C598.5 681.711 581.711 698.5 561 698.5C540.289 698.5 523.5 681.711 523.5 661ZM561 628.917C543.281 628.917 528.917 643.281 528.917 661C528.917 678.719 543.281 693.083 561 693.083C578.719 693.083 593.083 678.719 593.083 661C593.083 643.281 578.719 628.917 561 628.917Z" fill="black"/>
</g>
</g>
</g>
</g>
</g>
<defs>
<clipPath id="clip0_805_27002">
<rect width="3300" height="2200" fill="white"/>
</clipPath>
</defs>
</svg>
