<svg xmlns="http://www.w3.org/2000/svg" width="3300" height="2200" fill="none"><path fill="#E5E5E5" d="M0 0h3300v2200H0z"/><g id="Security / Solid / Key" clip-path="url(#clip0_0_1)"><g id="Notes"><path id="artboard" fill="#fff" d="M3300 0H0v2200h3300V0Z"/><path id="Vector" stroke="#000" stroke-width=".5" d="M263 292h2773"/><text xml:space="preserve" id="Weight/Scale Variations" fill="#000" font-family="Roboto" font-size="12" letter-spacing="0em" style="white-space:pre"><tspan x="263" y="321.102">Weight/Scale Variations</tspan></text><text xml:space="preserve" id="Ultralight" fill="#000" font-family="Roboto" font-size="12" letter-spacing="0em" style="white-space:pre"><tspan x="535.211" y="321.102">Ultralight</tspan></text><text xml:space="preserve" id="Thin" fill="#000" font-family="Roboto" font-size="12" letter-spacing="0em" style="white-space:pre"><tspan x="844.422" y="321.102">Thin</tspan></text><text xml:space="preserve" id="Light" fill="#000" font-family="Roboto" font-size="12" letter-spacing="0em" style="white-space:pre"><tspan x="1139.63" y="321.102">Light</tspan></text><text xml:space="preserve" id="Regular" fill="#000" font-family="Roboto" font-size="12" letter-spacing="0em" style="white-space:pre"><tspan x="1429.34" y="321.102">Regular</tspan></text><text xml:space="preserve" id="Medium" fill="#000" font-family="Roboto" font-size="12" letter-spacing="0em" style="white-space:pre"><tspan x="1724.56" y="321.102">Medium</tspan></text><text xml:space="preserve" id="Semibold" fill="#000" font-family="Roboto" font-size="12" letter-spacing="0em" style="white-space:pre"><tspan x="2017.77" y="321.102">Semibold</tspan></text><text xml:space="preserve" id="Bold" fill="#000" font-family="Roboto" font-size="12" letter-spacing="0em" style="white-space:pre"><tspan x="2327.48" y="321.102">Bold</tspan></text><text xml:space="preserve" id="Heavy" fill="#000" font-family="Roboto" font-size="12" letter-spacing="0em" style="white-space:pre"><tspan x="2620.19" y="321.102">Heavy</tspan></text><text xml:space="preserve" id="Black" fill="#000" font-family="Roboto" font-size="12" letter-spacing="0em" style="white-space:pre"><tspan x="2918.4" y="321.102">Black</tspan></text><path id="Vector_2" stroke="#000" stroke-width=".5" d="M263 1903h2773"/><g id="Group"><path id="Vector_3" fill="#000" d="M272.248 1933.83c4.307 0 7.891-3.57 7.891-7.88 0-4.31-3.594-7.88-7.901-7.88-4.297 0-7.871 3.57-7.871 7.88 0 4.31 3.584 7.88 7.881 7.88Zm0-1.48a6.364 6.364 0 0 1-6.377-6.4c0-3.56 2.822-6.4 6.367-6.4a6.382 6.382 0 0 1 6.406 6.4 6.368 6.368 0 0 1-6.396 6.4Zm-.019-2.78c.468 0 .742-.31.742-.83v-2.06h2.226c.498 0 .84-.25.84-.72 0-.48-.322-.74-.84-.74h-2.226v-2.23c0-.52-.274-.84-.742-.84-.469 0-.723.34-.723.84v2.23h-2.207c-.518 0-.85.26-.85.74 0 .47.352.72.85.72h2.207v2.06c0 .5.254.83.723.83Z"/></g><g id="Group_2"><path id="Vector_4" fill="#000" d="M293.215 1935.91c5.449 0 9.961-4.51 9.961-9.96 0-5.44-4.522-9.96-9.971-9.96-5.439 0-9.951 4.52-9.951 9.96 0 5.45 4.521 9.96 9.961 9.96Zm0-1.66a8.26 8.26 0 0 1-8.291-8.3c0-4.6 3.672-8.3 8.281-8.3a8.29 8.29 0 0 1 8.311 8.3 8.263 8.263 0 0 1-8.301 8.3Zm-.02-3.66c.518 0 .83-.36.83-.93v-2.89h3.057c.547 0 .928-.28.928-.8 0-.53-.362-.83-.928-.83h-3.057v-3.07c0-.57-.312-.93-.83-.93-.517 0-.81.38-.81.93v3.07h-3.047c-.567 0-.938.3-.938.83 0 .52.391.8.938.8h3.047v2.89c0 .55.293.93.81.93Z"/></g><g id="Group_3"><path id="Vector_5" fill="#000" d="M319.895 1938.67c6.962 0 12.724-5.75 12.724-12.71 0-6.96-5.771-12.72-12.734-12.72-6.953 0-12.705 5.76-12.705 12.72 0 6.96 5.761 12.71 12.715 12.71Zm0-1.81a10.874 10.874 0 0 1-10.889-10.9c0-6.04 4.844-10.9 10.879-10.9 6.045 0 10.898 4.86 10.908 10.9a10.87 10.87 0 0 1-10.898 10.9Zm-.02-4.92c.566 0 .918-.4.918-1v-4.07h4.238c.586 0 1.006-.33 1.006-.89 0-.58-.39-.92-1.006-.92h-4.238v-4.25c0-.61-.352-1-.918-1-.566 0-.889.41-.889 1v4.25h-4.228c-.615 0-1.026.34-1.026.92 0 .56.43.89 1.026.89h4.228v4.07c0 .59.323 1 .889 1Z"/></g><text xml:space="preserve" id="Design Variations" fill="#000" font-family="Roboto" font-size="12" letter-spacing="0em" style="white-space:pre"><tspan x="263" y="1952.1">Design Variations</tspan></text><text xml:space="preserve" id="Symbols are supported in up to nine weights and three scales." fill="#000" font-family="Roboto" font-size="12" letter-spacing="0em" style="white-space:pre"><tspan x="263" y="1970.1">Symbols are supported in up to nine weights and three scales.</tspan></text><text xml:space="preserve" id="For optimal layout with text and other symbols, vertically align" fill="#000" font-family="Roboto" font-size="12" letter-spacing="0em" style="white-space:pre"><tspan x="263" y="1988.1">For optimal layout with text and other symbols, vertically align</tspan></text><text xml:space="preserve" id="symbols with the adjacent text." fill="#000" font-family="Roboto" font-size="12" letter-spacing="0em" style="white-space:pre"><tspan x="263" y="2006.1">symbols with the adjacent text.</tspan></text><path id="Vector_6" fill="#00AEEF" d="M779 1919h-3v14h3v-14Z" opacity=".4"/><g id="Group_4"><path id="Vector_7" fill="#000" d="M789.527 1933h1.846l-5.195-14.09h-1.739l-5.195 14.09h1.846l1.416-4.03h5.605l1.416 4.03Zm-4.248-11.95h.059l2.256 6.42h-4.571l2.256-6.42Z"/></g><path id="Vector_8" fill="#00AEEF" d="M794.617 1919h-3v14h3v-14Z" opacity=".4"/><text xml:space="preserve" id="Margins" fill="#000" font-family="Roboto" font-size="12" letter-spacing="0em" style="white-space:pre"><tspan x="776" y="1952.1">Margins</tspan></text><text xml:space="preserve" id="Leading and trailing margins on the left and right side of each symbol" fill="#000" font-family="Roboto" font-size="12" letter-spacing="0em" style="white-space:pre"><tspan x="776" y="1970.1">Leading and trailing margins on the left and right side of each symbol</tspan></text><text xml:space="preserve" id="can be adjusted by modifying the width of the blue rectangles." fill="#000" font-family="Roboto" font-size="12" letter-spacing="0em" style="white-space:pre"><tspan x="776" y="1988.1">can be adjusted by modifying the width of the blue rectangles.</tspan></text><text xml:space="preserve" id="Modifications are automatically applied proportionally to all" fill="#000" font-family="Roboto" font-size="12" letter-spacing="0em" style="white-space:pre"><tspan x="776" y="2006.1">Modifications are automatically applied proportionally to all</tspan></text><text xml:space="preserve" id="scales and weights." fill="#000" font-family="Roboto" font-size="12" letter-spacing="0em" style="white-space:pre"><tspan x="776" y="2024.1">scales and weights.</tspan></text><g id="Group_5"><path id="Vector_9" fill="#000" d="m1291.83 1936.12 1.54 1.54c.85.83 1.82.76 2.69-.2l10.21-11.12c.43.29.83.28 1.29.19l1.05-.22.69.69-.05.52c-.06.53.1.95.6 1.45l.81.81c.51.51 1.16.53 1.64.06l3.25-3.26c.48-.47.46-1.13-.05-1.64l-.82-.82c-.49-.5-.91-.67-1.44-.59l-.53.06-.65-.67.28-1.14c.15-.57 0-1.04-.63-1.64l-2.41-2.39c-3.54-3.53-8.07-3.42-11.19-.29-.42.43-.47 1.02-.19 1.45.23.37.71.59 1.35.43 1.52-.38 3.03-.27 4.51.74l-.62 1.58c-.23.59-.22 1.07.02 1.51l-11.16 10.27c-.94.87-1.05 1.82-.19 2.68Zm7.84-18.27c2.67-1.99 5.98-1.68 8.38.74l2.63 2.6c.23.24.26.42.2.72l-.38 1.56 1.58 1.57.96-.09c.29-.03.37-.01.6.22l.62.62-2.75 2.75-.63-.62c-.22-.22-.24-.32-.21-.6l.09-.96-1.57-1.56-1.62.31c-.28.06-.43.06-.66-.19l-2.18-2.17c-.22-.24-.25-.38-.12-.7l.94-2.27c-1.6-1.54-3.71-2.39-5.75-1.73-.09.03-.16.01-.19-.03-.02-.05-.02-.1.06-.17Zm-6.57 17.56c-.49-.5-.31-.8.02-1.1l10.96-10.12 1.23 1.23-10.16 10.93c-.3.33-.68.43-1.08.03l-.97-.97Z"/></g><text xml:space="preserve" id="Exporting" fill="#000" font-family="Roboto" font-size="12" letter-spacing="0em" style="white-space:pre"><tspan x="1289" y="1952.1">Exporting</tspan></text><text xml:space="preserve" id="Symbols should be outlined when exporting to ensure the" fill="#000" font-family="Roboto" font-size="12" letter-spacing="0em" style="white-space:pre"><tspan x="1289" y="1970.1">Symbols should be outlined when exporting to ensure the</tspan></text><text xml:space="preserve" id="design is preserved when submitting to Xcode." fill="#000" font-family="Roboto" font-size="12" letter-spacing="0em" style="white-space:pre"><tspan x="1289" y="1988.1">design is preserved when submitting to Xcode.</tspan></text><text xml:space="preserve" id="template-version" fill="#000" font-family="Roboto" font-size="12" letter-spacing="0em" style="white-space:pre"><tspan x="2958" y="1932.1">Template v.1.0</tspan></text><text xml:space="preserve" id="Generated from pencil.circle" fill="#000" font-family="Roboto" font-size="12" letter-spacing="0em" style="white-space:pre"><tspan x="2885" y="1950.1">Generated from pencil.circle</tspan></text><text xml:space="preserve" id="Typeset at 100 points" fill="#000" font-family="Roboto" font-size="12" letter-spacing="0em" style="white-space:pre"><tspan x="2921" y="1968.1">Typeset at 100 points</tspan></text><text xml:space="preserve" id="Small" fill="#000" font-family="Roboto" font-size="12" letter-spacing="0em" style="white-space:pre"><tspan x="263" y="725.102">Small</tspan></text><text xml:space="preserve" id="Medium_2" fill="#000" font-family="Roboto" font-size="12" letter-spacing="0em" style="white-space:pre"><tspan x="263" y="1155.1">Medium</tspan></text><text xml:space="preserve" id="Large" fill="#000" font-family="Roboto" font-size="12" letter-spacing="0em" style="white-space:pre"><tspan x="263" y="1585.1">Large</tspan></text></g><g id="Guides"><g id="H-reference"><path id="Vector_10" fill="#27AAE1" d="M393.932 696h2.734l-27.1-70.459h-2.49L339.977 696h2.685l9.278-24.463h32.763L393.932 696Zm-25.733-67.09h.244l15.381 40.381h-31.006l15.381-40.381Z"/></g><path id="Baseline-S" stroke="#27AAE1" stroke-width=".577" d="M263 696h2773"/><path id="Capline-S" stroke="#27AAE1" stroke-width=".577" d="M263 626h2773"/><g id="H-reference_2"><path id="Vector_11" fill="#27AAE1" d="M393.932 1126h2.734l-27.1-70.46h-2.49L339.977 1126h2.685l9.278-24.46h32.763l9.229 24.46Zm-25.733-67.09h.244l15.381 40.38h-31.006l15.381-40.38Z"/></g><path id="Baseline-M" stroke="#27AAE1" stroke-width=".577" d="M263 1126h2773"/><path id="Capline-M" stroke="#27AAE1" stroke-width=".577" d="M263 1056h2773"/><g id="H-reference_3"><path id="Vector_12" fill="#27AAE1" d="M393.932 1556h2.734l-27.1-70.46h-2.49L339.977 1556h2.685l9.278-24.46h32.763l9.229 24.46Zm-25.733-67.09h.244l15.381 40.38h-31.006l15.381-40.38Z"/></g><g id="Group 1" stroke="#27AAE1" stroke-width=".577"><path id="Baseline-L" d="M263 1556h2773"/><path id="Capline-L" d="M263 1486h2773"/></g><path id="left-margin" fill="#00AEEF" d="M1396.04 1030.79h-8.74v119.34h8.74v-119.34Z" opacity=".4"/><path id="right-margin" fill="#00AEEF" d="M1509.39 1030.79h-8.74v119.34h8.74v-119.34Z" opacity=".4"/></g><g id="Symbols"><g id="Black-L"><g id="Solid / Key Solid"><path id="Shape" fill="#000" fill-rule="evenodd" d="M2932.07 1457.7c-8.79-8.79-23.04-8.79-31.82 0l-31.82 31.82c-8.79 8.78-8.79 23.03 0 31.82l15.91 15.91c8.78 8.78 23.03 8.78 31.82 0l2.49-2.5 50.16 50.15c1.88 1.88 4.25 3.19 6.85 3.78 7.43 1.67 14.84-2.87 16.72-10.25l1.21-4.71c1.66-6.53-.23-13.45-4.99-18.21l-2.59-2.58a9.733 9.733 0 0 0-6.89-2.86h-4.56c-2.51 0-4.67-1.78-5.15-4.25l-2.91-14.98a9.758 9.758 0 0 0-2.74-5.09l-18.22-17.89 2.44-2.43c8.78-8.79 8.78-23.04 0-31.82l-15.91-15.91Zm-14.08 31.57c1.9-1.9 1.9-4.99 0-6.89a4.859 4.859 0 0 0-6.89 0l-17.7 17.69a4.877 4.877 0 0 0 6.9 6.89l17.69-17.69Z" clip-rule="evenodd"/></g></g><g id="Heavy-L"><g id="Solid / Key Solid_2"><path id="Shape_2" fill="#000" fill-rule="evenodd" d="M2636.07 1457.7c-8.79-8.79-23.04-8.79-31.82 0l-31.82 31.82c-8.79 8.78-8.79 23.03 0 31.82l15.91 15.91c8.78 8.78 23.03 8.78 31.82 0l2.49-2.5 50.16 50.15c1.88 1.88 4.25 3.19 6.85 3.78 7.43 1.67 14.84-2.87 16.72-10.25l1.21-4.71c1.66-6.53-.23-13.45-4.99-18.21l-2.59-2.58a9.733 9.733 0 0 0-6.89-2.86h-4.56c-2.51 0-4.67-1.78-5.15-4.25l-2.91-14.98a9.758 9.758 0 0 0-2.74-5.09l-18.22-17.89 2.44-2.43c8.78-8.79 8.78-23.04 0-31.82l-15.91-15.91Zm-14.08 31.57c1.9-1.9 1.9-4.99 0-6.89a4.859 4.859 0 0 0-6.89 0l-17.7 17.69a4.877 4.877 0 0 0 6.9 6.89l17.69-17.69Z" clip-rule="evenodd"/></g></g><g id="Bold-L"><g id="Solid / Key Solid_3"><path id="Shape_3" fill="#000" fill-rule="evenodd" d="M2340.07 1457.7c-8.79-8.79-23.04-8.79-31.82 0l-31.82 31.82c-8.79 8.78-8.79 23.03 0 31.82l15.91 15.91c8.78 8.78 23.03 8.78 31.82 0l2.49-2.5 50.16 50.15c1.88 1.88 4.25 3.19 6.85 3.78 7.43 1.67 14.84-2.87 16.72-10.25l1.21-4.71c1.66-6.53-.23-13.45-4.99-18.21l-2.59-2.58a9.733 9.733 0 0 0-6.89-2.86h-4.56c-2.51 0-4.67-1.78-5.15-4.25l-2.91-14.98a9.758 9.758 0 0 0-2.74-5.09l-18.22-17.89 2.44-2.43c8.78-8.79 8.78-23.04 0-31.82l-15.91-15.91Zm-14.08 31.57c1.9-1.9 1.9-4.99 0-6.89a4.859 4.859 0 0 0-6.89 0l-17.7 17.69a4.877 4.877 0 0 0 6.9 6.89l17.69-17.69Z" clip-rule="evenodd"/></g></g><g id="Semibold-L"><g id="Solid / Key Solid_4"><path id="Shape_4" fill="#000" fill-rule="evenodd" d="M2044.07 1457.7c-8.79-8.79-23.04-8.79-31.82 0l-31.82 31.82c-8.79 8.78-8.79 23.03 0 31.82l15.91 15.91c8.78 8.78 23.03 8.78 31.82 0l2.49-2.5 50.16 50.15c1.88 1.88 4.25 3.19 6.85 3.78 7.43 1.67 14.84-2.87 16.72-10.25l1.21-4.71c1.66-6.53-.23-13.45-4.99-18.21l-2.59-2.58a9.733 9.733 0 0 0-6.89-2.86h-4.56c-2.51 0-4.67-1.78-5.15-4.25l-2.91-14.98a9.758 9.758 0 0 0-2.74-5.09l-18.22-17.89 2.44-2.43c8.78-8.79 8.78-23.04 0-31.82l-15.91-15.91Zm-14.08 31.57c1.9-1.9 1.9-4.99 0-6.89a4.859 4.859 0 0 0-6.89 0l-17.7 17.69a4.877 4.877 0 0 0 6.9 6.89l17.69-17.69Z" clip-rule="evenodd"/></g></g><g id="Medium-L"><g id="Solid / Key Solid_5"><path id="Shape_5" fill="#000" fill-rule="evenodd" d="M1748.07 1457.7c-8.79-8.79-23.04-8.79-31.82 0l-31.82 31.82c-8.79 8.78-8.79 23.03 0 31.82l15.91 15.91c8.78 8.78 23.03 8.78 31.82 0l2.49-2.5 50.16 50.15c1.88 1.88 4.25 3.19 6.85 3.78 7.43 1.67 14.84-2.87 16.72-10.25l1.21-4.71c1.66-6.53-.23-13.45-4.99-18.21l-2.59-2.58a9.733 9.733 0 0 0-6.89-2.86h-4.56c-2.51 0-4.67-1.78-5.15-4.25l-2.91-14.98a9.758 9.758 0 0 0-2.74-5.09l-18.22-17.89 2.44-2.43c8.78-8.79 8.78-23.04 0-31.82l-15.91-15.91Zm-14.08 31.57c1.9-1.9 1.9-4.99 0-6.89a4.859 4.859 0 0 0-6.89 0l-17.7 17.69a4.877 4.877 0 0 0 6.9 6.89l17.69-17.69Z" clip-rule="evenodd"/></g></g><g id="Regular-L"><g id="Solid / Key Solid_6"><path id="Shape_6" fill="#000" fill-rule="evenodd" d="M1452.07 1457.7c-8.79-8.79-23.04-8.79-31.82 0l-31.82 31.82c-8.79 8.78-8.79 23.03 0 31.82l15.91 15.91c8.78 8.78 23.03 8.78 31.82 0l2.49-2.5 50.16 50.15c1.88 1.88 4.25 3.19 6.85 3.78 7.43 1.67 14.84-2.87 16.72-10.25l1.21-4.71c1.66-6.53-.23-13.45-4.99-18.21l-2.59-2.58a9.733 9.733 0 0 0-6.89-2.86h-4.56c-2.51 0-4.67-1.78-5.15-4.25l-2.91-14.98a9.758 9.758 0 0 0-2.74-5.09l-18.22-17.89 2.44-2.43c8.78-8.79 8.78-23.04 0-31.82l-15.91-15.91Zm-14.08 31.57c1.9-1.9 1.9-4.99 0-6.89a4.859 4.859 0 0 0-6.89 0l-17.7 17.69a4.877 4.877 0 0 0 6.9 6.89l17.69-17.69Z" clip-rule="evenodd"/></g></g><g id="Light-L"><g id="Solid / Key Solid_7"><path id="Shape_7" fill="#000" fill-rule="evenodd" d="M1156.07 1457.7c-8.79-8.79-23.04-8.79-31.82 0l-31.82 31.82c-8.79 8.78-8.79 23.03 0 31.82l15.91 15.91c8.78 8.78 23.03 8.78 31.82 0l2.49-2.5 50.16 50.15c1.88 1.88 4.25 3.19 6.85 3.78 7.43 1.67 14.84-2.87 16.72-10.25l1.21-4.71c1.66-6.53-.23-13.45-4.99-18.21l-2.59-2.58a9.733 9.733 0 0 0-6.89-2.86h-4.56c-2.51 0-4.67-1.78-5.15-4.25l-2.91-14.98a9.758 9.758 0 0 0-2.74-5.09l-18.22-17.89 2.44-2.43c8.78-8.79 8.78-23.04 0-31.82l-15.91-15.91Zm-14.08 31.57c1.9-1.9 1.9-4.99 0-6.89a4.859 4.859 0 0 0-6.89 0l-17.7 17.69a4.877 4.877 0 0 0 6.9 6.89l17.69-17.69Z" clip-rule="evenodd"/></g></g><g id="Thin-L"><g id="Solid / Key Solid_8"><path id="Shape_8" fill="#000" fill-rule="evenodd" d="M860.066 1457.7c-8.787-8.79-23.033-8.79-31.82 0l-31.82 31.82c-8.787 8.78-8.787 23.03 0 31.82l15.91 15.91c8.787 8.78 23.033 8.78 31.82 0l2.498-2.5 50.152 50.15a14.13 14.13 0 0 0 6.855 3.78c7.427 1.67 14.838-2.87 16.722-10.25l1.204-4.71a19.074 19.074 0 0 0-4.991-18.21l-2.582-2.58a9.75 9.75 0 0 0-6.896-2.86h-4.555a5.249 5.249 0 0 1-5.153-4.25l-2.913-14.98a9.75 9.75 0 0 0-2.739-5.09l-18.217-17.89 2.435-2.43c8.786-8.79 8.786-23.04 0-31.82l-15.91-15.91Zm-14.076 31.57a4.87 4.87 0 0 0 0-6.89 4.865 4.865 0 0 0-6.895 0l-17.691 17.69a4.87 4.87 0 0 0 0 6.89 4.863 4.863 0 0 0 6.894 0l17.692-17.69Z" clip-rule="evenodd"/></g></g><g id="Ultralight-L"><g id="Solid / Key Solid_9"><path id="Shape_9" fill="#000" fill-rule="evenodd" d="M564.066 1457.7c-8.787-8.79-23.033-8.79-31.82 0l-31.82 31.82c-8.787 8.78-8.787 23.03 0 31.82l15.91 15.91c8.787 8.78 23.033 8.78 31.82 0l2.498-2.5 50.152 50.15a14.13 14.13 0 0 0 6.855 3.78c7.427 1.67 14.838-2.87 16.722-10.25l1.204-4.71a19.074 19.074 0 0 0-4.991-18.21l-2.582-2.58a9.75 9.75 0 0 0-6.896-2.86h-4.555a5.249 5.249 0 0 1-5.153-4.25l-2.913-14.98a9.75 9.75 0 0 0-2.739-5.09l-18.217-17.89 2.435-2.43c8.786-8.79 8.786-23.04 0-31.82l-15.91-15.91Zm-14.076 31.57a4.87 4.87 0 0 0 0-6.89 4.865 4.865 0 0 0-6.895 0l-17.691 17.69a4.87 4.87 0 0 0 0 6.89 4.863 4.863 0 0 0 6.894 0l17.692-17.69Z" clip-rule="evenodd"/></g></g><g id="Black-M"><g id="Solid / Key Solid_10"><path id="Shape_10" fill="#000" fill-rule="evenodd" d="M2931.38 1041.76c-6.83-6.83-17.91-6.83-24.74 0l-24.75 24.75c-6.84 6.84-6.84 17.92 0 24.75l12.37 12.37c6.84 6.84 17.92 6.84 24.75 0l1.94-1.94 39.01 39.01c1.46 1.46 3.31 2.48 5.33 2.94 5.78 1.3 11.54-2.23 13.01-7.97l.94-3.67c1.29-5.07-.18-10.46-3.89-14.16l-2.01-2.01a7.585 7.585 0 0 0-5.36-2.22h-3.54c-1.96 0-3.64-1.39-4.01-3.31l-2.26-11.65c-.3-1.5-1.04-2.88-2.14-3.96l-14.16-13.91 1.89-1.89c6.83-6.84 6.83-17.92 0-24.75l-12.38-12.38Zm-10.94 24.56a3.79 3.79 0 0 0 0-5.36 3.802 3.802 0 0 0-5.37 0l-13.76 13.76a3.79 3.79 0 0 0 0 5.36 3.802 3.802 0 0 0 5.37 0l13.76-13.76Z" clip-rule="evenodd"/></g></g><g id="Heavy-M"><g id="Solid / Key Solid_11"><path id="Shape_11" fill="#000" fill-rule="evenodd" d="M2635.38 1041.76c-6.83-6.83-17.91-6.83-24.74 0l-24.75 24.75c-6.84 6.84-6.84 17.92 0 24.75l12.37 12.37c6.84 6.84 17.92 6.84 24.75 0l1.94-1.94 39.01 39.01c1.46 1.46 3.31 2.48 5.33 2.94 5.78 1.3 11.54-2.23 13.01-7.97l.94-3.67c1.29-5.07-.18-10.46-3.89-14.16l-2.01-2.01a7.585 7.585 0 0 0-5.36-2.22h-3.54c-1.96 0-3.64-1.39-4.01-3.31l-2.26-11.65c-.3-1.5-1.04-2.88-2.14-3.96l-14.16-13.91 1.89-1.89c6.83-6.84 6.83-17.92 0-24.75l-12.38-12.38Zm-10.94 24.56a3.79 3.79 0 0 0 0-5.36 3.802 3.802 0 0 0-5.37 0l-13.76 13.76a3.79 3.79 0 0 0 0 5.36 3.802 3.802 0 0 0 5.37 0l13.76-13.76Z" clip-rule="evenodd"/></g></g><g id="Bold-M"><g id="Solid / Key Solid_12"><path id="Shape_12" fill="#000" fill-rule="evenodd" d="M2339.38 1041.76c-6.83-6.83-17.91-6.83-24.74 0l-24.75 24.75c-6.84 6.84-6.84 17.92 0 24.75l12.37 12.37c6.84 6.84 17.92 6.84 24.75 0l1.94-1.94 39.01 39.01c1.46 1.46 3.31 2.48 5.33 2.94 5.78 1.3 11.54-2.23 13.01-7.97l.94-3.67c1.29-5.07-.18-10.46-3.89-14.16l-2.01-2.01a7.585 7.585 0 0 0-5.36-2.22h-3.54c-1.96 0-3.64-1.39-4.01-3.31l-2.26-11.65c-.3-1.5-1.04-2.88-2.14-3.96l-14.16-13.91 1.89-1.89c6.83-6.84 6.83-17.92 0-24.75l-12.38-12.38Zm-10.94 24.56a3.79 3.79 0 0 0 0-5.36 3.802 3.802 0 0 0-5.37 0l-13.76 13.76a3.79 3.79 0 0 0 0 5.36 3.802 3.802 0 0 0 5.37 0l13.76-13.76Z" clip-rule="evenodd"/></g></g><g id="Semibold-M"><g id="Solid / Key Solid_13"><path id="Shape_13" fill="#000" fill-rule="evenodd" d="M2043.38 1041.76c-6.83-6.83-17.91-6.83-24.74 0l-24.75 24.75c-6.84 6.84-6.84 17.92 0 24.75l12.37 12.37c6.84 6.84 17.92 6.84 24.75 0l1.94-1.94 39.01 39.01c1.46 1.46 3.31 2.48 5.33 2.94 5.78 1.3 11.54-2.23 13.01-7.97l.94-3.67c1.29-5.07-.18-10.46-3.89-14.16l-2.01-2.01a7.585 7.585 0 0 0-5.36-2.22h-3.54c-1.96 0-3.64-1.39-4.01-3.31l-2.26-11.65c-.3-1.5-1.04-2.88-2.14-3.96l-14.16-13.91 1.89-1.89c6.83-6.84 6.83-17.92 0-24.75l-12.38-12.38Zm-10.94 24.56a3.79 3.79 0 0 0 0-5.36 3.802 3.802 0 0 0-5.37 0l-13.76 13.76a3.79 3.79 0 0 0 0 5.36 3.802 3.802 0 0 0 5.37 0l13.76-13.76Z" clip-rule="evenodd"/></g></g><g id="Medium-M"><g id="Solid / Key Solid_14"><path id="Shape_14" fill="#000" fill-rule="evenodd" d="M1747.38 1041.76c-6.83-6.83-17.91-6.83-24.74 0l-24.75 24.75c-6.84 6.84-6.84 17.92 0 24.75l12.37 12.37c6.84 6.84 17.92 6.84 24.75 0l1.94-1.94 39.01 39.01c1.46 1.46 3.31 2.48 5.33 2.94 5.78 1.3 11.54-2.23 13.01-7.97l.94-3.67c1.29-5.07-.18-10.46-3.89-14.16l-2.01-2.01a7.585 7.585 0 0 0-5.36-2.22h-3.54c-1.96 0-3.64-1.39-4.01-3.31l-2.26-11.65c-.3-1.5-1.04-2.88-2.14-3.96l-14.16-13.91 1.89-1.89c6.83-6.84 6.83-17.92 0-24.75l-12.38-12.38Zm-10.94 24.56a3.79 3.79 0 0 0 0-5.36 3.802 3.802 0 0 0-5.37 0l-13.76 13.76a3.79 3.79 0 0 0 0 5.36 3.802 3.802 0 0 0 5.37 0l13.76-13.76Z" clip-rule="evenodd"/></g></g><g id="Regular-M"><g id="Solid / Key Solid_15"><path id="Shape_15" fill="#000" fill-rule="evenodd" d="M1451.38 1041.76c-6.83-6.83-17.91-6.83-24.74 0l-24.75 24.75c-6.84 6.84-6.84 17.92 0 24.75l12.37 12.37c6.84 6.84 17.92 6.84 24.75 0l1.94-1.94 39.01 39.01c1.46 1.46 3.31 2.48 5.33 2.94 5.78 1.3 11.54-2.23 13.01-7.97l.94-3.67c1.29-5.07-.18-10.46-3.89-14.16l-2.01-2.01a7.585 7.585 0 0 0-5.36-2.22h-3.54c-1.96 0-3.64-1.39-4.01-3.31l-2.26-11.65c-.3-1.5-1.04-2.88-2.14-3.96l-14.16-13.91 1.89-1.89c6.83-6.84 6.83-17.92 0-24.75l-12.38-12.38Zm-10.94 24.56a3.79 3.79 0 0 0 0-5.36 3.802 3.802 0 0 0-5.37 0l-13.76 13.76a3.79 3.79 0 0 0 0 5.36 3.802 3.802 0 0 0 5.37 0l13.76-13.76Z" clip-rule="evenodd"/></g></g><g id="Light-M"><g id="Solid / Key Solid_16"><path id="Shape_16" fill="#000" fill-rule="evenodd" d="M1155.38 1041.76c-6.83-6.83-17.91-6.83-24.74 0l-24.75 24.75c-6.84 6.84-6.84 17.92 0 24.75l12.37 12.37c6.84 6.84 17.92 6.84 24.75 0l1.94-1.94 39.01 39.01c1.46 1.46 3.31 2.48 5.33 2.94 5.78 1.3 11.54-2.23 13.01-7.97l.94-3.67c1.29-5.07-.18-10.46-3.89-14.16l-2.01-2.01a7.585 7.585 0 0 0-5.36-2.22h-3.54c-1.96 0-3.64-1.39-4.01-3.31l-2.26-11.65c-.3-1.5-1.04-2.88-2.14-3.96l-14.16-13.91 1.89-1.89c6.83-6.84 6.83-17.92 0-24.75l-12.38-12.38Zm-10.94 24.56a3.79 3.79 0 0 0 0-5.36 3.802 3.802 0 0 0-5.37 0l-13.76 13.76a3.79 3.79 0 0 0 0 5.36 3.802 3.802 0 0 0 5.37 0l13.76-13.76Z" clip-rule="evenodd"/></g></g><g id="Thin-M"><g id="Solid / Key Solid_17"><path id="Shape_17" fill="#000" fill-rule="evenodd" d="M859.385 1041.76c-6.834-6.83-17.915-6.83-24.749 0l-24.749 24.75c-6.834 6.84-6.834 17.92 0 24.75l12.375 12.37c6.834 6.84 17.914 6.84 24.748 0l1.943-1.94 39.008 39.01a11.012 11.012 0 0 0 5.331 2.94c5.777 1.3 11.541-2.23 13.006-7.97l.937-3.67a14.835 14.835 0 0 0-3.882-14.16l-2.009-2.01a7.592 7.592 0 0 0-5.363-2.22h-3.542a4.088 4.088 0 0 1-4.009-3.31l-2.265-11.65a7.616 7.616 0 0 0-2.131-3.96l-14.169-13.91 1.894-1.89c6.834-6.84 6.834-17.92 0-24.75l-12.374-12.38Zm-10.948 24.56a3.789 3.789 0 0 0 0-5.36 3.793 3.793 0 0 0-5.362 0l-13.761 13.76a3.79 3.79 0 1 0 5.363 5.36l13.76-13.76Z" clip-rule="evenodd"/></g></g><g id="Ultralight-M"><g id="Solid / Key Solid_18"><path id="Shape_18" fill="#000" fill-rule="evenodd" d="M563.385 1041.76c-6.834-6.83-17.915-6.83-24.749 0l-24.749 24.75c-6.834 6.84-6.834 17.92 0 24.75l12.375 12.37c6.834 6.84 17.914 6.84 24.748 0l1.943-1.94 39.008 39.01a11.012 11.012 0 0 0 5.331 2.94c5.777 1.3 11.541-2.23 13.006-7.97l.937-3.67a14.835 14.835 0 0 0-3.882-14.16l-2.009-2.01a7.592 7.592 0 0 0-5.363-2.22h-3.542a4.088 4.088 0 0 1-4.009-3.31l-2.265-11.65a7.616 7.616 0 0 0-2.131-3.96l-14.169-13.91 1.894-1.89c6.834-6.84 6.834-17.92 0-24.75l-12.374-12.38Zm-10.948 24.56a3.789 3.789 0 0 0 0-5.36 3.793 3.793 0 0 0-5.362 0l-13.761 13.76a3.79 3.79 0 1 0 5.363 5.36l13.76-13.76Z" clip-rule="evenodd"/></g></g><g id="Black-S"><g id="Solid / Key Solid_19"><path id="Shape_19" fill="#000" fill-rule="evenodd" d="M2930.7 625.831c-4.88-4.881-12.79-4.881-17.67 0l-17.68 17.678c-4.88 4.881-4.88 12.796 0 17.677l8.84 8.839c4.88 4.882 12.79 4.882 17.68 0l1.38-1.387 27.87 27.862a7.78 7.78 0 0 0 3.8 2.098c4.13.929 8.25-1.592 9.29-5.69l.67-2.621c.93-3.625-.13-7.469-2.77-10.115l-1.43-1.435a5.44 5.44 0 0 0-3.84-1.587h-2.53c-1.39 0-2.59-.99-2.86-2.36l-1.62-8.321a5.434 5.434 0 0 0-1.52-2.831l-10.12-9.938 1.35-1.352c4.88-4.882 4.88-12.797 0-17.678l-8.84-8.839Zm-7.82 17.543a2.704 2.704 0 0 0 0-3.83 2.708 2.708 0 0 0-3.83 0l-9.82 9.828a2.71 2.71 0 0 0 3.83 3.831l9.82-9.829Z" clip-rule="evenodd"/></g></g><g id="Heavy-S"><g id="Solid / Key Solid_20"><path id="Shape_20" fill="#000" fill-rule="evenodd" d="M2634.7 625.831c-4.88-4.881-12.79-4.881-17.67 0l-17.68 17.678c-4.88 4.881-4.88 12.796 0 17.677l8.84 8.839c4.88 4.882 12.79 4.882 17.68 0l1.38-1.387 27.87 27.862a7.78 7.78 0 0 0 3.8 2.098c4.13.929 8.25-1.592 9.29-5.69l.67-2.621c.93-3.625-.13-7.469-2.77-10.115l-1.43-1.435a5.44 5.44 0 0 0-3.84-1.587h-2.53c-1.39 0-2.59-.99-2.86-2.36l-1.62-8.321a5.434 5.434 0 0 0-1.52-2.831l-10.12-9.938 1.35-1.352c4.88-4.882 4.88-12.797 0-17.678l-8.84-8.839Zm-7.82 17.543a2.704 2.704 0 0 0 0-3.83 2.708 2.708 0 0 0-3.83 0l-9.82 9.828a2.71 2.71 0 0 0 3.83 3.831l9.82-9.829Z" clip-rule="evenodd"/></g></g><g id="Bold-S"><g id="Solid / Key Solid_21"><path id="Shape_21" fill="#000" fill-rule="evenodd" d="M2338.7 625.831c-4.88-4.881-12.79-4.881-17.67 0l-17.68 17.678c-4.88 4.881-4.88 12.796 0 17.677l8.84 8.839c4.88 4.882 12.79 4.882 17.68 0l1.38-1.387 27.87 27.862a7.78 7.78 0 0 0 3.8 2.098c4.13.929 8.25-1.592 9.29-5.69l.67-2.621c.93-3.625-.13-7.469-2.77-10.115l-1.43-1.435a5.44 5.44 0 0 0-3.84-1.587h-2.53c-1.39 0-2.59-.99-2.86-2.36l-1.62-8.321a5.434 5.434 0 0 0-1.52-2.831l-10.12-9.938 1.35-1.352c4.88-4.882 4.88-12.797 0-17.678l-8.84-8.839Zm-7.82 17.543a2.704 2.704 0 0 0 0-3.83 2.708 2.708 0 0 0-3.83 0l-9.82 9.828a2.71 2.71 0 0 0 3.83 3.831l9.82-9.829Z" clip-rule="evenodd"/></g></g><g id="Semibold-S"><g id="Solid / Key Solid_22"><path id="Shape_22" fill="#000" fill-rule="evenodd" d="M2042.7 625.831c-4.88-4.881-12.79-4.881-17.67 0l-17.68 17.678c-4.88 4.881-4.88 12.796 0 17.677l8.84 8.839c4.88 4.882 12.79 4.882 17.68 0l1.38-1.387 27.87 27.862a7.78 7.78 0 0 0 3.8 2.098c4.13.929 8.25-1.592 9.29-5.69l.67-2.621c.93-3.625-.13-7.469-2.77-10.115l-1.43-1.435a5.44 5.44 0 0 0-3.84-1.587h-2.53c-1.39 0-2.59-.99-2.86-2.36l-1.62-8.321a5.434 5.434 0 0 0-1.52-2.831l-10.12-9.938 1.35-1.352c4.88-4.882 4.88-12.797 0-17.678l-8.84-8.839Zm-7.82 17.543a2.704 2.704 0 0 0 0-3.83 2.708 2.708 0 0 0-3.83 0l-9.82 9.828a2.71 2.71 0 0 0 3.83 3.831l9.82-9.829Z" clip-rule="evenodd"/></g></g><g id="Medium-S"><g id="Solid / Key Solid_23"><path id="Shape_23" fill="#000" fill-rule="evenodd" d="M1746.7 625.831c-4.88-4.881-12.79-4.881-17.67 0l-17.68 17.678c-4.88 4.881-4.88 12.796 0 17.677l8.84 8.839c4.88 4.882 12.79 4.882 17.68 0l1.38-1.387 27.87 27.862a7.78 7.78 0 0 0 3.8 2.098c4.13.929 8.25-1.592 9.29-5.69l.67-2.621c.93-3.625-.13-7.469-2.77-10.115l-1.43-1.435a5.44 5.44 0 0 0-3.84-1.587h-2.53c-1.39 0-2.59-.99-2.86-2.36l-1.62-8.321a5.434 5.434 0 0 0-1.52-2.831l-10.12-9.938 1.35-1.352c4.88-4.882 4.88-12.797 0-17.678l-8.84-8.839Zm-7.82 17.543a2.704 2.704 0 0 0 0-3.83 2.708 2.708 0 0 0-3.83 0l-9.82 9.828a2.71 2.71 0 0 0 3.83 3.831l9.82-9.829Z" clip-rule="evenodd"/></g></g><g id="Regular-S"><g id="Solid / Key Solid_24"><path id="Shape_24" fill="#000" fill-rule="evenodd" d="M1450.7 625.831c-4.88-4.881-12.79-4.881-17.67 0l-17.68 17.678c-4.88 4.881-4.88 12.796 0 17.677l8.84 8.839c4.88 4.882 12.79 4.882 17.68 0l1.38-1.387 27.87 27.862a7.78 7.78 0 0 0 3.8 2.098c4.13.929 8.25-1.592 9.29-5.69l.67-2.621c.93-3.625-.13-7.469-2.77-10.115l-1.43-1.435a5.44 5.44 0 0 0-3.84-1.587h-2.53c-1.39 0-2.59-.99-2.86-2.36l-1.62-8.321a5.434 5.434 0 0 0-1.52-2.831l-10.12-9.938 1.35-1.352c4.88-4.882 4.88-12.797 0-17.678l-8.84-8.839Zm-7.82 17.543a2.704 2.704 0 0 0 0-3.83 2.708 2.708 0 0 0-3.83 0l-9.82 9.828a2.71 2.71 0 0 0 3.83 3.831l9.82-9.829Z" clip-rule="evenodd"/></g></g><g id="Light-S"><g id="Solid / Key Solid_25"><path id="Shape_25" fill="#000" fill-rule="evenodd" d="M1154.7 625.831c-4.88-4.881-12.79-4.881-17.67 0l-17.68 17.678c-4.88 4.881-4.88 12.796 0 17.677l8.84 8.839c4.88 4.882 12.79 4.882 17.68 0l1.38-1.387 27.87 27.862a7.78 7.78 0 0 0 3.8 2.098c4.13.929 8.25-1.592 9.29-5.69l.67-2.621c.93-3.625-.13-7.469-2.77-10.115l-1.43-1.435a5.44 5.44 0 0 0-3.84-1.587h-2.53c-1.39 0-2.59-.99-2.86-2.36l-1.62-8.321a5.434 5.434 0 0 0-1.52-2.831l-10.12-9.938 1.35-1.352c4.88-4.882 4.88-12.797 0-17.678l-8.84-8.839Zm-7.82 17.543a2.704 2.704 0 0 0 0-3.83 2.708 2.708 0 0 0-3.83 0l-9.82 9.828a2.71 2.71 0 0 0 3.83 3.831l9.82-9.829Z" clip-rule="evenodd"/></g></g><g id="Thin-S"><g id="Solid / Key Solid_26"><path id="Shape_26" fill="#000" fill-rule="evenodd" d="M858.704 625.831c-4.882-4.881-12.796-4.881-17.678 0l-17.677 17.678c-4.882 4.881-4.882 12.796 0 17.677l8.839 8.839c4.881 4.882 12.796 4.882 17.677 0l1.388-1.387 27.862 27.862a7.815 7.815 0 0 0 13.098-3.592l.67-2.621a10.597 10.597 0 0 0-2.773-10.115l-1.435-1.435a5.418 5.418 0 0 0-3.831-1.587h-2.53a2.917 2.917 0 0 1-2.863-2.36l-1.618-8.321a5.423 5.423 0 0 0-1.522-2.831L866.19 653.7l1.353-1.352c4.881-4.882 4.881-12.797 0-17.678l-8.839-8.839Zm-7.82 17.543a2.708 2.708 0 1 0-3.83-3.83l-9.829 9.828a2.709 2.709 0 0 0 3.83 3.831l9.829-9.829Z" clip-rule="evenodd"/></g></g><g id="Ultralight-S"><g id="Solid / Key Solid_27"><path id="Shape_27" fill="#000" fill-rule="evenodd" d="M562.704 625.831c-4.882-4.881-12.796-4.881-17.678 0l-17.677 17.678c-4.882 4.881-4.882 12.796 0 17.677l8.839 8.839c4.881 4.882 12.796 4.882 17.677 0l1.388-1.387 27.862 27.862a7.815 7.815 0 0 0 13.098-3.592l.67-2.621a10.597 10.597 0 0 0-2.773-10.115l-1.435-1.435a5.418 5.418 0 0 0-3.831-1.587h-2.53a2.917 2.917 0 0 1-2.863-2.36l-1.618-8.321a5.423 5.423 0 0 0-1.522-2.831L570.19 653.7l1.353-1.352c4.881-4.882 4.881-12.797 0-17.678l-8.839-8.839Zm-7.82 17.543a2.708 2.708 0 1 0-3.83-3.83l-9.829 9.828a2.709 2.709 0 0 0 3.83 3.831l9.829-9.829Z" clip-rule="evenodd"/></g></g></g></g><defs><clipPath id="clip0_0_1"><path fill="#fff" d="M0 0h3300v2200H0z"/></clipPath></defs></svg>