<svg xmlns="http://www.w3.org/2000/svg" width="3300" height="2200" fill="none"><path fill="#E5E5E5" d="M0 0h3300v2200H0z"/><g id="Category / Solid / Store" clip-path="url(#clip0_0_1)"><g id="Notes"><path id="artboard" fill="#fff" d="M3300 0H0v2200h3300V0Z"/><path id="Vector" stroke="#000" stroke-width=".5" d="M263 292h2773"/><text xml:space="preserve" id="Weight/Scale Variations" fill="#000" font-family="Roboto" font-size="12" letter-spacing="0em" style="white-space:pre"><tspan x="263" y="321.102">Weight/Scale Variations</tspan></text><text xml:space="preserve" id="Ultralight" fill="#000" font-family="Roboto" font-size="12" letter-spacing="0em" style="white-space:pre"><tspan x="535.211" y="321.102">Ultralight</tspan></text><text xml:space="preserve" id="Thin" fill="#000" font-family="Roboto" font-size="12" letter-spacing="0em" style="white-space:pre"><tspan x="844.422" y="321.102">Thin</tspan></text><text xml:space="preserve" id="Light" fill="#000" font-family="Roboto" font-size="12" letter-spacing="0em" style="white-space:pre"><tspan x="1139.63" y="321.102">Light</tspan></text><text xml:space="preserve" id="Regular" fill="#000" font-family="Roboto" font-size="12" letter-spacing="0em" style="white-space:pre"><tspan x="1429.34" y="321.102">Regular</tspan></text><text xml:space="preserve" id="Medium" fill="#000" font-family="Roboto" font-size="12" letter-spacing="0em" style="white-space:pre"><tspan x="1724.56" y="321.102">Medium</tspan></text><text xml:space="preserve" id="Semibold" fill="#000" font-family="Roboto" font-size="12" letter-spacing="0em" style="white-space:pre"><tspan x="2017.77" y="321.102">Semibold</tspan></text><text xml:space="preserve" id="Bold" fill="#000" font-family="Roboto" font-size="12" letter-spacing="0em" style="white-space:pre"><tspan x="2327.48" y="321.102">Bold</tspan></text><text xml:space="preserve" id="Heavy" fill="#000" font-family="Roboto" font-size="12" letter-spacing="0em" style="white-space:pre"><tspan x="2620.19" y="321.102">Heavy</tspan></text><text xml:space="preserve" id="Black" fill="#000" font-family="Roboto" font-size="12" letter-spacing="0em" style="white-space:pre"><tspan x="2918.4" y="321.102">Black</tspan></text><path id="Vector_2" stroke="#000" stroke-width=".5" d="M263 1903h2773"/><g id="Group"><path id="Vector_3" fill="#000" d="M272.248 1933.83c4.307 0 7.891-3.57 7.891-7.88 0-4.31-3.594-7.88-7.901-7.88-4.297 0-7.871 3.57-7.871 7.88 0 4.31 3.584 7.88 7.881 7.88Zm0-1.48c-3.545 0-6.377-2.84-6.377-6.4 0-3.55 2.822-6.4 6.367-6.4a6.388 6.388 0 0 1 6.406 6.4 6.361 6.361 0 0 1-6.396 6.4Zm-.019-2.78c.468 0 .742-.31.742-.83v-2.06h2.226c.498 0 .84-.25.84-.72 0-.48-.322-.74-.84-.74h-2.226v-2.23c0-.52-.274-.84-.742-.84-.469 0-.723.34-.723.84v2.23h-2.207c-.518 0-.85.26-.85.74 0 .47.352.72.85.72h2.207v2.06c0 .5.254.83.723.83Z"/></g><g id="Group_2"><path id="Vector_4" fill="#000" d="M293.215 1935.91c5.449 0 9.961-4.51 9.961-9.96 0-5.44-4.522-9.96-9.971-9.96-5.439 0-9.951 4.52-9.951 9.96 0 5.45 4.521 9.96 9.961 9.96Zm0-1.66a8.26 8.26 0 0 1-8.291-8.3c0-4.6 3.672-8.3 8.281-8.3a8.29 8.29 0 0 1 8.311 8.3 8.263 8.263 0 0 1-8.301 8.3Zm-.02-3.66c.518 0 .83-.36.83-.93v-2.89h3.057c.547 0 .928-.28.928-.8 0-.53-.362-.83-.928-.83h-3.057v-3.07c0-.57-.312-.93-.83-.93-.517 0-.81.38-.81.93v3.07h-3.047c-.567 0-.938.3-.938.83 0 .52.391.8.938.8h3.047v2.89c0 .55.293.93.81.93Z"/></g><g id="Group_3"><path id="Vector_5" fill="#000" d="M319.895 1938.67c6.962 0 12.724-5.75 12.724-12.71 0-6.97-5.771-12.72-12.734-12.72-6.953 0-12.705 5.75-12.705 12.72 0 6.96 5.761 12.71 12.715 12.71Zm0-1.81a10.874 10.874 0 0 1-10.889-10.9c0-6.04 4.844-10.9 10.879-10.9 6.045 0 10.898 4.86 10.908 10.9a10.87 10.87 0 0 1-10.898 10.9Zm-.02-4.93c.566 0 .918-.39.918-.99v-4.07h4.238c.586 0 1.006-.34 1.006-.89 0-.58-.39-.92-1.006-.92h-4.238v-4.25c0-.61-.352-1.01-.918-1.01-.566 0-.889.41-.889 1.01v4.25h-4.228c-.615 0-1.026.34-1.026.92 0 .55.43.89 1.026.89h4.228v4.07c0 .58.323.99.889.99Z"/></g><text xml:space="preserve" id="Design Variations" fill="#000" font-family="Roboto" font-size="12" letter-spacing="0em" style="white-space:pre"><tspan x="263" y="1952.1">Design Variations</tspan></text><text xml:space="preserve" id="Symbols are supported in up to nine weights and three scales." fill="#000" font-family="Roboto" font-size="12" letter-spacing="0em" style="white-space:pre"><tspan x="263" y="1970.1">Symbols are supported in up to nine weights and three scales.</tspan></text><text xml:space="preserve" id="For optimal layout with text and other symbols, vertically align" fill="#000" font-family="Roboto" font-size="12" letter-spacing="0em" style="white-space:pre"><tspan x="263" y="1988.1">For optimal layout with text and other symbols, vertically align</tspan></text><text xml:space="preserve" id="symbols with the adjacent text." fill="#000" font-family="Roboto" font-size="12" letter-spacing="0em" style="white-space:pre"><tspan x="263" y="2006.1">symbols with the adjacent text.</tspan></text><path id="Vector_6" fill="#00AEEF" d="M779 1919h-3v14h3v-14Z" opacity=".4"/><g id="Group_4"><path id="Vector_7" fill="#000" d="M789.527 1933h1.846l-5.195-14.09h-1.739l-5.195 14.09h1.846l1.416-4.04h5.605l1.416 4.04Zm-4.248-11.96h.059l2.256 6.43h-4.571l2.256-6.43Z"/></g><path id="Vector_8" fill="#00AEEF" d="M794.617 1919h-3v14h3v-14Z" opacity=".4"/><text xml:space="preserve" id="Margins" fill="#000" font-family="Roboto" font-size="12" letter-spacing="0em" style="white-space:pre"><tspan x="776" y="1952.1">Margins</tspan></text><text xml:space="preserve" id="Leading and trailing margins on the left and right side of each symbol" fill="#000" font-family="Roboto" font-size="12" letter-spacing="0em" style="white-space:pre"><tspan x="776" y="1970.1">Leading and trailing margins on the left and right side of each symbol</tspan></text><text xml:space="preserve" id="can be adjusted by modifying the width of the blue rectangles." fill="#000" font-family="Roboto" font-size="12" letter-spacing="0em" style="white-space:pre"><tspan x="776" y="1988.1">can be adjusted by modifying the width of the blue rectangles.</tspan></text><text xml:space="preserve" id="Modifications are automatically applied proportionally to all" fill="#000" font-family="Roboto" font-size="12" letter-spacing="0em" style="white-space:pre"><tspan x="776" y="2006.1">Modifications are automatically applied proportionally to all</tspan></text><text xml:space="preserve" id="scales and weights." fill="#000" font-family="Roboto" font-size="12" letter-spacing="0em" style="white-space:pre"><tspan x="776" y="2024.1">scales and weights.</tspan></text><g id="Group_5"><path id="Vector_9" fill="#000" d="m1291.83 1936.11 1.54 1.55c.85.83 1.82.76 2.69-.2l10.21-11.12c.43.29.83.28 1.29.18l1.05-.21.69.69-.05.52c-.06.53.1.95.6 1.45l.81.81c.51.5 1.16.53 1.64.05l3.25-3.25c.48-.48.46-1.13-.05-1.64l-.82-.82c-.49-.5-.91-.67-1.44-.59l-.53.05-.65-.66.28-1.14c.15-.57 0-1.04-.63-1.64l-2.41-2.39c-3.54-3.53-8.07-3.42-11.19-.29-.42.43-.47 1.02-.19 1.45.23.37.71.59 1.35.43 1.52-.38 3.03-.27 4.51.74l-.62 1.58c-.23.59-.22 1.07.02 1.5l-11.16 10.28c-.94.87-1.05 1.81-.19 2.67Zm7.84-18.26c2.67-1.99 5.98-1.68 8.38.73l2.63 2.61c.23.24.26.42.2.72l-.38 1.56 1.58 1.57.96-.09c.29-.03.37-.01.6.22l.62.62-2.75 2.75-.63-.62c-.22-.22-.24-.32-.21-.6l.09-.96-1.57-1.56-1.62.31c-.28.06-.43.06-.66-.19l-2.18-2.17c-.22-.24-.25-.38-.12-.7l.94-2.27c-1.6-1.54-3.71-2.39-5.75-1.73-.09.03-.16.01-.19-.03-.02-.05-.02-.1.06-.17Zm-6.57 17.56c-.49-.5-.31-.8.02-1.1l10.96-10.12 1.23 1.23-10.16 10.93c-.3.33-.68.43-1.08.03l-.97-.97Z"/></g><text xml:space="preserve" id="Exporting" fill="#000" font-family="Roboto" font-size="12" letter-spacing="0em" style="white-space:pre"><tspan x="1289" y="1952.1">Exporting</tspan></text><text xml:space="preserve" id="Symbols should be outlined when exporting to ensure the" fill="#000" font-family="Roboto" font-size="12" letter-spacing="0em" style="white-space:pre"><tspan x="1289" y="1970.1">Symbols should be outlined when exporting to ensure the</tspan></text><text xml:space="preserve" id="design is preserved when submitting to Xcode." fill="#000" font-family="Roboto" font-size="12" letter-spacing="0em" style="white-space:pre"><tspan x="1289" y="1988.1">design is preserved when submitting to Xcode.</tspan></text><text xml:space="preserve" id="template-version" fill="#000" font-family="Roboto" font-size="12" letter-spacing="0em" style="white-space:pre"><tspan x="2958" y="1932.1">Template v.1.0</tspan></text><text xml:space="preserve" id="Generated from pencil.circle" fill="#000" font-family="Roboto" font-size="12" letter-spacing="0em" style="white-space:pre"><tspan x="2885" y="1950.1">Generated from pencil.circle</tspan></text><text xml:space="preserve" id="Typeset at 100 points" fill="#000" font-family="Roboto" font-size="12" letter-spacing="0em" style="white-space:pre"><tspan x="2921" y="1968.1">Typeset at 100 points</tspan></text><text xml:space="preserve" id="Small" fill="#000" font-family="Roboto" font-size="12" letter-spacing="0em" style="white-space:pre"><tspan x="263" y="725.102">Small</tspan></text><text xml:space="preserve" id="Medium_2" fill="#000" font-family="Roboto" font-size="12" letter-spacing="0em" style="white-space:pre"><tspan x="263" y="1155.1">Medium</tspan></text><text xml:space="preserve" id="Large" fill="#000" font-family="Roboto" font-size="12" letter-spacing="0em" style="white-space:pre"><tspan x="263" y="1585.1">Large</tspan></text></g><g id="Guides"><g id="H-reference"><path id="Vector_10" fill="#27AAE1" d="M393.932 695.998h2.734l-27.1-70.459h-2.49l-27.099 70.459h2.685l9.278-24.463h32.763l9.229 24.463Zm-25.733-67.09h.244l15.381 40.381h-31.006l15.381-40.381Z"/></g><path id="Baseline-S" stroke="#27AAE1" stroke-width=".577" d="M263 696h2773"/><path id="Capline-S" stroke="#27AAE1" stroke-width=".577" d="M263 626h2773"/><g id="H-reference_2"><path id="Vector_11" fill="#27AAE1" d="M393.932 1126h2.734l-27.1-70.46h-2.49L339.977 1126h2.685l9.278-24.46h32.763l9.229 24.46Zm-25.733-67.09h.244l15.381 40.38h-31.006l15.381-40.38Z"/></g><path id="Baseline-M" stroke="#27AAE1" stroke-width=".577" d="M263 1126h2773"/><path id="Capline-M" stroke="#27AAE1" stroke-width=".577" d="M263 1056h2773"/><g id="H-reference_3"><path id="Vector_12" fill="#27AAE1" d="M393.932 1556h2.734l-27.1-70.46h-2.49L339.977 1556h2.685l9.278-24.46h32.763l9.229 24.46Zm-25.733-67.09h.244l15.381 40.38h-31.006l15.381-40.38Z"/></g><g id="Group 1" stroke="#27AAE1" stroke-width=".577"><path id="Baseline-L" d="M263 1556h2773"/><path id="Capline-L" d="M263 1486h2773"/></g><path id="left-margin" fill="#00AEEF" d="M1397.04 1030.79h-8.74v119.33h8.74v-119.33Z" opacity=".4"/><path id="right-margin" fill="#00AEEF" d="M1509.39 1030.79h-8.74v119.33h8.74v-119.33Z" opacity=".4"/></g><g id="Symbols"><g id="Black-L"><g id="Solid / Store Solid"><g id="Shape" fill="#000"><path d="M2875.58 1467.49a9.753 9.753 0 0 1 9.2-6.52h88.44c4.14 0 7.82 2.61 9.2 6.52l12.28 35 .01 2.65c-1.45 10.25-9.44 15.82-17.32 15.82-7.87 0-18.05-6.08-19.46-11.87-.97 5.85-6.9 12.19-14.44 12.19-6.96 0-13.33-7.01-14.69-12.19-1.01 5.26-5.61 12.16-14.22 12.16-8.6 0-13.67-6.92-14.85-12.16-1.43 5.16-10.26 11.91-17.92 11.91-9.69 0-17.07-6.54-18.52-15.87l.01-2.64 12.28-35ZM2881.81 1530.75c-2.78 0-5.31 2.09-5.31 4.87v43.12c0 5.38 4.37 9.75 9.75 9.75h18c5.37-.03 9.75-4.38 9.75-9.75v-18.2c0-5.39 4.37-9.75 9.75-9.75h10.5c5.38 0 9.75 4.36 9.75 9.75v18.2c0 5.38 4.37 9.75 9.75 9.75h18c5.38 0 9.75-4.37 9.75-9.75v-44.24c0-2.16-1.95-3.79-4.11-3.79-5.7 0-11.38-1.67-16.31-4.54a3.467 3.467 0 0 0-3.76.22c-3.62 2.65-8.3 4.64-13.83 4.64-4.76 0-8.96-1.5-12.4-3.64-1.16-.72-2.65-.7-3.8.03-3.4 2.18-7.61 3.58-12.71 3.58-5.68 0-10.35-1.76-14.05-4.4a3.504 3.504 0 0 0-3.84-.16c-4.11 2.5-9.21 4.31-14.88 4.31Z"/></g></g></g><g id="Heavy-L"><g id="Solid / Store Solid_2"><g id="Shape_2" fill="#000"><path d="M2579.58 1467.49a9.753 9.753 0 0 1 9.2-6.52h88.44c4.14 0 7.82 2.61 9.2 6.52l12.28 35 .01 2.65c-1.45 10.25-9.44 15.82-17.32 15.82-7.87 0-18.05-6.08-19.46-11.87-.97 5.85-6.9 12.19-14.44 12.19-6.96 0-13.33-7.01-14.69-12.19-1.01 5.26-5.61 12.16-14.22 12.16-8.6 0-13.67-6.92-14.85-12.16-1.43 5.16-10.26 11.91-17.92 11.91-9.69 0-17.07-6.54-18.52-15.87l.01-2.64 12.28-35ZM2585.81 1530.75c-2.78 0-5.31 2.09-5.31 4.87v43.12c0 5.38 4.37 9.75 9.75 9.75h18c5.37-.03 9.75-4.38 9.75-9.75v-18.2c0-5.39 4.37-9.75 9.75-9.75h10.5c5.38 0 9.75 4.36 9.75 9.75v18.2c0 5.38 4.37 9.75 9.75 9.75h18c5.38 0 9.75-4.37 9.75-9.75v-44.24c0-2.16-1.95-3.79-4.11-3.79-5.7 0-11.38-1.67-16.31-4.54a3.467 3.467 0 0 0-3.76.22c-3.62 2.65-8.3 4.64-13.83 4.64-4.76 0-8.96-1.5-12.4-3.64-1.16-.72-2.65-.7-3.8.03-3.4 2.18-7.61 3.58-12.71 3.58-5.68 0-10.35-1.76-14.05-4.4a3.504 3.504 0 0 0-3.84-.16c-4.11 2.5-9.21 4.31-14.88 4.31Z"/></g></g></g><g id="Bold-L"><g id="Solid / Store Solid_3"><g id="Shape_3" fill="#000"><path d="M2283.58 1467.49a9.753 9.753 0 0 1 9.2-6.52h88.44c4.14 0 7.82 2.61 9.2 6.52l12.28 35 .01 2.65c-1.45 10.25-9.44 15.82-17.32 15.82-7.87 0-18.05-6.08-19.46-11.87-.97 5.85-6.9 12.19-14.44 12.19-6.96 0-13.33-7.01-14.69-12.19-1.01 5.26-5.61 12.16-14.22 12.16-8.6 0-13.67-6.92-14.85-12.16-1.43 5.16-10.26 11.91-17.92 11.91-9.69 0-17.07-6.54-18.52-15.87l.01-2.64 12.28-35ZM2289.81 1530.75c-2.78 0-5.31 2.09-5.31 4.87v43.12c0 5.38 4.37 9.75 9.75 9.75h18c5.37-.03 9.75-4.38 9.75-9.75v-18.2c0-5.39 4.37-9.75 9.75-9.75h10.5c5.38 0 9.75 4.36 9.75 9.75v18.2c0 5.38 4.37 9.75 9.75 9.75h18c5.38 0 9.75-4.37 9.75-9.75v-44.24c0-2.16-1.95-3.79-4.11-3.79-5.7 0-11.38-1.67-16.31-4.54a3.467 3.467 0 0 0-3.76.22c-3.62 2.65-8.3 4.64-13.83 4.64-4.76 0-8.96-1.5-12.4-3.64-1.16-.72-2.65-.7-3.8.03-3.4 2.18-7.61 3.58-12.71 3.58-5.68 0-10.35-1.76-14.05-4.4a3.504 3.504 0 0 0-3.84-.16c-4.11 2.5-9.21 4.31-14.88 4.31Z"/></g></g></g><g id="Semibold-L"><g id="Solid / Store Solid_4"><g id="Shape_4" fill="#000"><path d="M1987.58 1467.49a9.753 9.753 0 0 1 9.2-6.52h88.44c4.14 0 7.82 2.61 9.2 6.52l12.28 35 .01 2.65c-1.45 10.25-9.44 15.82-17.32 15.82-7.87 0-18.05-6.08-19.46-11.87-.97 5.85-6.9 12.19-14.44 12.19-6.96 0-13.33-7.01-14.69-12.19-1.01 5.26-5.61 12.16-14.22 12.16-8.6 0-13.67-6.92-14.85-12.16-1.43 5.16-10.26 11.91-17.92 11.91-9.69 0-17.07-6.54-18.52-15.87l.01-2.64 12.28-35ZM1993.81 1530.75c-2.78 0-5.31 2.09-5.31 4.87v43.12c0 5.38 4.37 9.75 9.75 9.75h18c5.37-.03 9.75-4.38 9.75-9.75v-18.2c0-5.39 4.37-9.75 9.75-9.75h10.5c5.38 0 9.75 4.36 9.75 9.75v18.2c0 5.38 4.37 9.75 9.75 9.75h18c5.38 0 9.75-4.37 9.75-9.75v-44.24c0-2.16-1.95-3.79-4.11-3.79-5.7 0-11.38-1.67-16.31-4.54a3.467 3.467 0 0 0-3.76.22c-3.62 2.65-8.3 4.64-13.83 4.64-4.76 0-8.96-1.5-12.4-3.64-1.16-.72-2.65-.7-3.8.03-3.4 2.18-7.61 3.58-12.71 3.58-5.68 0-10.35-1.76-14.05-4.4a3.504 3.504 0 0 0-3.84-.16c-4.11 2.5-9.21 4.31-14.88 4.31Z"/></g></g></g><g id="Medium-L"><g id="Solid / Store Solid_5"><g id="Shape_5" fill="#000"><path d="M1691.58 1467.49a9.753 9.753 0 0 1 9.2-6.52h88.44c4.14 0 7.82 2.61 9.2 6.52l12.28 35 .01 2.65c-1.45 10.25-9.44 15.82-17.32 15.82-7.87 0-18.05-6.08-19.46-11.87-.97 5.85-6.9 12.19-14.44 12.19-6.96 0-13.33-7.01-14.69-12.19-1.01 5.26-5.61 12.16-14.22 12.16-8.6 0-13.67-6.92-14.85-12.16-1.43 5.16-10.26 11.91-17.92 11.91-9.69 0-17.07-6.54-18.52-15.87l.01-2.64 12.28-35ZM1697.81 1530.75c-2.78 0-5.31 2.09-5.31 4.87v43.12c0 5.38 4.37 9.75 9.75 9.75h18c5.37-.03 9.75-4.38 9.75-9.75v-18.2c0-5.39 4.37-9.75 9.75-9.75h10.5c5.38 0 9.75 4.36 9.75 9.75v18.2c0 5.38 4.37 9.75 9.75 9.75h18c5.38 0 9.75-4.37 9.75-9.75v-44.24c0-2.16-1.95-3.79-4.11-3.79-5.7 0-11.38-1.67-16.31-4.54a3.467 3.467 0 0 0-3.76.22c-3.62 2.65-8.3 4.64-13.83 4.64-4.76 0-8.96-1.5-12.4-3.64-1.16-.72-2.65-.7-3.8.03-3.4 2.18-7.61 3.58-12.71 3.58-5.68 0-10.35-1.76-14.05-4.4a3.504 3.504 0 0 0-3.84-.16c-4.11 2.5-9.21 4.31-14.88 4.31Z"/></g></g></g><g id="Regular-L"><g id="Solid / Store Solid_6"><g id="Shape_6" fill="#000"><path d="M1395.58 1467.49a9.753 9.753 0 0 1 9.2-6.52h88.44c4.14 0 7.82 2.61 9.2 6.52l12.28 35 .01 2.65c-1.45 10.25-9.44 15.82-17.32 15.82-7.87 0-18.05-6.08-19.46-11.87-.97 5.85-6.9 12.19-14.44 12.19-6.96 0-13.33-7.01-14.69-12.19-1.01 5.26-5.61 12.16-14.22 12.16-8.6 0-13.67-6.92-14.85-12.16-1.43 5.16-10.26 11.91-17.92 11.91-9.69 0-17.07-6.54-18.52-15.87l.01-2.64 12.28-35ZM1401.81 1530.75c-2.78 0-5.31 2.09-5.31 4.87v43.12c0 5.38 4.37 9.75 9.75 9.75h18c5.37-.03 9.75-4.38 9.75-9.75v-18.2c0-5.39 4.37-9.75 9.75-9.75h10.5c5.38 0 9.75 4.36 9.75 9.75v18.2c0 5.38 4.37 9.75 9.75 9.75h18c5.38 0 9.75-4.37 9.75-9.75v-44.24c0-2.16-1.95-3.79-4.11-3.79-5.7 0-11.38-1.67-16.31-4.54a3.467 3.467 0 0 0-3.76.22c-3.62 2.65-8.3 4.64-13.83 4.64-4.76 0-8.96-1.5-12.4-3.64-1.16-.72-2.65-.7-3.8.03-3.4 2.18-7.61 3.58-12.71 3.58-5.68 0-10.35-1.76-14.05-4.4a3.504 3.504 0 0 0-3.84-.16c-4.11 2.5-9.21 4.31-14.88 4.31Z"/></g></g></g><g id="Light-L"><g id="Solid / Store Solid_7"><g id="Shape_7" fill="#000"><path d="M1099.58 1467.49a9.753 9.753 0 0 1 9.2-6.52h88.44c4.14 0 7.82 2.61 9.2 6.52l12.28 35 .01 2.65c-1.45 10.25-9.44 15.82-17.32 15.82-7.87 0-18.05-6.08-19.46-11.87-.97 5.85-6.9 12.19-14.44 12.19-6.96 0-13.33-7.01-14.69-12.19-1.01 5.26-5.61 12.16-14.22 12.16-8.6 0-13.67-6.92-14.85-12.16-1.43 5.16-10.26 11.91-17.92 11.91-9.69 0-17.07-6.54-18.52-15.87l.01-2.64 12.28-35ZM1105.81 1530.75c-2.78 0-5.31 2.09-5.31 4.87v43.12c0 5.38 4.37 9.75 9.75 9.75h18c5.37-.03 9.75-4.38 9.75-9.75v-18.2c0-5.39 4.37-9.75 9.75-9.75h10.5c5.38 0 9.75 4.36 9.75 9.75v18.2c0 5.38 4.37 9.75 9.75 9.75h18c5.38 0 9.75-4.37 9.75-9.75v-44.24c0-2.16-1.95-3.79-4.11-3.79-5.7 0-11.38-1.67-16.31-4.54a3.467 3.467 0 0 0-3.76.22c-3.62 2.65-8.3 4.64-13.83 4.64-4.76 0-8.96-1.5-12.4-3.64-1.16-.72-2.65-.7-3.8.03-3.4 2.18-7.61 3.58-12.71 3.58-5.68 0-10.35-1.76-14.05-4.4a3.504 3.504 0 0 0-3.84-.16c-4.11 2.5-9.21 4.31-14.88 4.31Z"/></g></g></g><g id="Thin-L"><g id="Solid / Store Solid_8"><g id="Shape_8" fill="#000"><path d="M803.585 1467.49a9.744 9.744 0 0 1 9.2-6.52h88.43c4.14 0 7.829 2.61 9.2 6.52l12.284 35 .012 2.65c-1.452 10.25-9.442 15.82-17.316 15.82-7.874 0-18.05-6.08-19.462-11.87-.97 5.85-6.899 12.19-14.446 12.19-6.955 0-13.326-7.01-14.688-12.19-1.012 5.26-5.608 12.16-14.216 12.16-8.605 0-13.675-6.92-14.853-12.16-1.427 5.16-10.262 11.91-17.921 11.91-9.687 0-17.066-6.54-18.522-15.87l.015-2.64 12.283-35ZM809.809 1530.75c-2.778 0-5.309 2.09-5.309 4.87v43.12c0 5.38 4.365 9.75 9.75 9.75h18c5.369-.03 9.75-4.38 9.75-9.75v-18.2c0-5.39 4.365-9.75 9.75-9.75h10.5c5.385 0 9.75 4.36 9.75 9.75v18.2c0 5.38 4.365 9.75 9.75 9.75h18c5.385 0 9.75-4.37 9.75-9.75v-44.24c0-2.16-1.945-3.79-4.105-3.79-5.704 0-11.388-1.67-16.32-4.54-1.178-.68-2.661-.58-3.759.22-3.62 2.65-8.298 4.64-13.829 4.64-4.76 0-8.96-1.5-12.4-3.64a3.586 3.586 0 0 0-3.797.03c-3.399 2.18-7.612 3.58-12.707 3.58-5.68 0-10.357-1.76-14.057-4.4a3.498 3.498 0 0 0-3.837-.16c-4.112 2.5-9.209 4.31-14.88 4.31Z"/></g></g></g><g id="Ultralight-L"><g id="Solid / Store Solid_9"><g id="Shape_9" fill="#000"><path d="M507.585 1467.49a9.744 9.744 0 0 1 9.2-6.52h88.43c4.14 0 7.829 2.61 9.2 6.52l12.284 35 .012 2.65c-1.452 10.25-9.442 15.82-17.316 15.82-7.874 0-18.05-6.08-19.462-11.87-.97 5.85-6.899 12.19-14.446 12.19-6.955 0-13.326-7.01-14.688-12.19-1.012 5.26-5.608 12.16-14.216 12.16-8.605 0-13.675-6.92-14.853-12.16-1.427 5.16-10.262 11.91-17.921 11.91-9.687 0-17.066-6.54-18.522-15.87l.015-2.64 12.283-35ZM513.809 1530.75c-2.778 0-5.309 2.09-5.309 4.87v43.12c0 5.38 4.365 9.75 9.75 9.75h18c5.369-.03 9.75-4.38 9.75-9.75v-18.2c0-5.39 4.365-9.75 9.75-9.75h10.5c5.385 0 9.75 4.36 9.75 9.75v18.2c0 5.38 4.365 9.75 9.75 9.75h18c5.385 0 9.75-4.37 9.75-9.75v-44.24c0-2.16-1.945-3.79-4.105-3.79-5.704 0-11.388-1.67-16.32-4.54-1.178-.68-2.661-.58-3.759.22-3.62 2.65-8.298 4.64-13.829 4.64-4.76 0-8.96-1.5-12.4-3.64a3.586 3.586 0 0 0-3.797.03c-3.399 2.18-7.612 3.58-12.707 3.58-5.68 0-10.357-1.76-14.057-4.4a3.498 3.498 0 0 0-3.837-.16c-4.112 2.5-9.209 4.31-14.88 4.31Z"/></g></g></g><g id="Black-M"><g id="Solid / Store Solid_10"><g id="Shape_10" fill="#000"><path d="M2887.46 1049.38a7.58 7.58 0 0 1 7.15-5.07h68.78c3.22 0 6.09 2.04 7.16 5.07l9.55 27.23.01 2.06c-1.13 7.97-7.34 12.3-13.47 12.3-6.12 0-14.04-4.73-15.14-9.23-.75 4.55-5.36 9.48-11.23 9.48-5.41 0-10.37-5.45-11.43-9.48-.78 4.09-4.36 9.46-11.05 9.46-6.7 0-10.64-5.38-11.55-9.46-1.12 4.02-7.99 9.27-13.94 9.27-7.54 0-13.28-5.09-14.41-12.35l.01-2.05 9.56-27.23ZM2892.3 1098.59c-2.16 0-4.13 1.62-4.13 3.78v33.54c0 4.19 3.39 7.58 7.58 7.58h14c4.18-.01 7.58-3.4 7.58-7.58v-14.16c0-4.19 3.4-7.58 7.59-7.58h8.16c4.19 0 7.59 3.39 7.59 7.58v14.16c0 4.19 3.39 7.58 7.58 7.58h14c4.19 0 7.58-3.39 7.58-7.58v-34.41c0-1.68-1.51-2.95-3.19-2.95-4.44 0-8.86-1.3-12.69-3.52a2.69 2.69 0 0 0-2.93.17c-2.81 2.06-6.45 3.6-10.75 3.6-3.7 0-6.97-1.16-9.65-2.83a2.78 2.78 0 0 0-2.95.03c-2.64 1.69-5.92 2.78-9.88 2.78-4.42 0-8.06-1.37-10.94-3.42-.88-.63-2.06-.69-2.98-.13-3.2 1.95-7.16 3.36-11.57 3.36Z"/></g></g></g><g id="Heavy-M"><g id="Solid / Store Solid_11"><g id="Shape_11" fill="#000"><path d="M2591.46 1049.38a7.58 7.58 0 0 1 7.15-5.07h68.78c3.22 0 6.09 2.04 7.16 5.07l9.55 27.23.01 2.06c-1.13 7.97-7.34 12.3-13.47 12.3-6.12 0-14.04-4.73-15.14-9.23-.75 4.55-5.36 9.48-11.23 9.48-5.41 0-10.37-5.45-11.43-9.48-.78 4.09-4.36 9.46-11.05 9.46-6.7 0-10.64-5.38-11.55-9.46-1.12 4.02-7.99 9.27-13.94 9.27-7.54 0-13.28-5.09-14.41-12.35l.01-2.05 9.56-27.23ZM2596.3 1098.59c-2.16 0-4.13 1.62-4.13 3.78v33.54c0 4.19 3.39 7.58 7.58 7.58h14c4.18-.01 7.58-3.4 7.58-7.58v-14.16c0-4.19 3.4-7.58 7.59-7.58h8.16c4.19 0 7.59 3.39 7.59 7.58v14.16c0 4.19 3.39 7.58 7.58 7.58h14c4.19 0 7.58-3.39 7.58-7.58v-34.41c0-1.68-1.51-2.95-3.19-2.95-4.44 0-8.86-1.3-12.69-3.52a2.69 2.69 0 0 0-2.93.17c-2.81 2.06-6.45 3.6-10.75 3.6-3.7 0-6.97-1.16-9.65-2.83a2.78 2.78 0 0 0-2.95.03c-2.64 1.69-5.92 2.78-9.88 2.78-4.42 0-8.06-1.37-10.94-3.42-.88-.63-2.06-.69-2.98-.13-3.2 1.95-7.16 3.36-11.57 3.36Z"/></g></g></g><g id="Bold-M"><g id="Solid / Store Solid_12"><g id="Shape_12" fill="#000"><path d="M2295.46 1049.38a7.58 7.58 0 0 1 7.15-5.07h68.78c3.22 0 6.09 2.04 7.16 5.07l9.55 27.23.01 2.06c-1.13 7.97-7.34 12.3-13.47 12.3-6.12 0-14.04-4.73-15.14-9.23-.75 4.55-5.36 9.48-11.23 9.48-5.41 0-10.37-5.45-11.43-9.48-.78 4.09-4.36 9.46-11.05 9.46-6.7 0-10.64-5.38-11.55-9.46-1.12 4.02-7.99 9.27-13.94 9.27-7.54 0-13.28-5.09-14.41-12.35l.01-2.05 9.56-27.23ZM2300.3 1098.59c-2.16 0-4.13 1.62-4.13 3.78v33.54c0 4.19 3.39 7.58 7.58 7.58h14c4.18-.01 7.58-3.4 7.58-7.58v-14.16c0-4.19 3.4-7.58 7.59-7.58h8.16c4.19 0 7.59 3.39 7.59 7.58v14.16c0 4.19 3.39 7.58 7.58 7.58h14c4.19 0 7.58-3.39 7.58-7.58v-34.41c0-1.68-1.51-2.95-3.19-2.95-4.44 0-8.86-1.3-12.69-3.52a2.69 2.69 0 0 0-2.93.17c-2.81 2.06-6.45 3.6-10.75 3.6-3.7 0-6.97-1.16-9.65-2.83a2.78 2.78 0 0 0-2.95.03c-2.64 1.69-5.92 2.78-9.88 2.78-4.42 0-8.06-1.37-10.94-3.42-.88-.63-2.06-.69-2.98-.13-3.2 1.95-7.16 3.36-11.57 3.36Z"/></g></g></g><g id="Semibold-M"><g id="Solid / Store Solid_13"><g id="Shape_13" fill="#000"><path d="M1999.46 1049.38a7.58 7.58 0 0 1 7.15-5.07h68.78c3.22 0 6.09 2.04 7.16 5.07l9.55 27.23.01 2.06c-1.13 7.97-7.34 12.3-13.47 12.3-6.12 0-14.04-4.73-15.14-9.23-.75 4.55-5.36 9.48-11.23 9.48-5.41 0-10.37-5.45-11.43-9.48-.78 4.09-4.36 9.46-11.05 9.46-6.7 0-10.64-5.38-11.55-9.46-1.12 4.02-7.99 9.27-13.94 9.27-7.54 0-13.28-5.09-14.41-12.35l.01-2.05 9.56-27.23ZM2004.3 1098.59c-2.16 0-4.13 1.62-4.13 3.78v33.54c0 4.19 3.39 7.58 7.58 7.58h14c4.18-.01 7.58-3.4 7.58-7.58v-14.16c0-4.19 3.4-7.58 7.59-7.58h8.16c4.19 0 7.59 3.39 7.59 7.58v14.16c0 4.19 3.39 7.58 7.58 7.58h14c4.19 0 7.58-3.39 7.58-7.58v-34.41c0-1.68-1.51-2.95-3.19-2.95-4.44 0-8.86-1.3-12.69-3.52a2.69 2.69 0 0 0-2.93.17c-2.81 2.06-6.45 3.6-10.75 3.6-3.7 0-6.97-1.16-9.65-2.83a2.78 2.78 0 0 0-2.95.03c-2.64 1.69-5.92 2.78-9.88 2.78-4.42 0-8.06-1.37-10.94-3.42-.88-.63-2.06-.69-2.98-.13-3.2 1.95-7.16 3.36-11.57 3.36Z"/></g></g></g><g id="Medium-M"><g id="Solid / Store Solid_14"><g id="Shape_14" fill="#000"><path d="M1703.46 1049.38a7.58 7.58 0 0 1 7.15-5.07h68.78c3.22 0 6.09 2.04 7.16 5.07l9.55 27.23.01 2.06c-1.13 7.97-7.34 12.3-13.47 12.3-6.12 0-14.04-4.73-15.14-9.23-.75 4.55-5.36 9.48-11.23 9.48-5.41 0-10.37-5.45-11.43-9.48-.78 4.09-4.36 9.46-11.05 9.46-6.7 0-10.64-5.38-11.55-9.46-1.12 4.02-7.99 9.27-13.94 9.27-7.54 0-13.28-5.09-14.41-12.35l.01-2.05 9.56-27.23ZM1708.3 1098.59c-2.16 0-4.13 1.62-4.13 3.78v33.54c0 4.19 3.39 7.58 7.58 7.58h14c4.18-.01 7.58-3.4 7.58-7.58v-14.16c0-4.19 3.4-7.58 7.59-7.58h8.16c4.19 0 7.59 3.39 7.59 7.58v14.16c0 4.19 3.39 7.58 7.58 7.58h14c4.19 0 7.58-3.39 7.58-7.58v-34.41c0-1.68-1.51-2.95-3.19-2.95-4.44 0-8.86-1.3-12.69-3.52a2.69 2.69 0 0 0-2.93.17c-2.81 2.06-6.45 3.6-10.75 3.6-3.7 0-6.97-1.16-9.65-2.83a2.78 2.78 0 0 0-2.95.03c-2.64 1.69-5.92 2.78-9.88 2.78-4.42 0-8.06-1.37-10.94-3.42-.88-.63-2.06-.69-2.98-.13-3.2 1.95-7.16 3.36-11.57 3.36Z"/></g></g></g><g id="Regular-M"><g id="Solid / Store Solid_15"><g id="Shape_15" fill="#000"><path d="M1407.46 1049.38a7.58 7.58 0 0 1 7.15-5.07h68.78c3.22 0 6.09 2.04 7.16 5.07l9.55 27.23.01 2.06c-1.13 7.97-7.34 12.3-13.47 12.3-6.12 0-14.04-4.73-15.14-9.23-.75 4.55-5.36 9.48-11.23 9.48-5.41 0-10.37-5.45-11.43-9.48-.78 4.09-4.36 9.46-11.05 9.46-6.7 0-10.64-5.38-11.55-9.46-1.12 4.02-7.99 9.27-13.94 9.27-7.54 0-13.28-5.09-14.41-12.35l.01-2.05 9.56-27.23ZM1412.3 1098.59c-2.16 0-4.13 1.62-4.13 3.78v33.54c0 4.19 3.39 7.58 7.58 7.58h14c4.18-.01 7.58-3.4 7.58-7.58v-14.16c0-4.19 3.4-7.58 7.59-7.58h8.16c4.19 0 7.59 3.39 7.59 7.58v14.16c0 4.19 3.39 7.58 7.58 7.58h14c4.19 0 7.58-3.39 7.58-7.58v-34.41c0-1.68-1.51-2.95-3.19-2.95-4.44 0-8.86-1.3-12.69-3.52a2.69 2.69 0 0 0-2.93.17c-2.81 2.06-6.45 3.6-10.75 3.6-3.7 0-6.97-1.16-9.65-2.83a2.78 2.78 0 0 0-2.95.03c-2.64 1.69-5.92 2.78-9.88 2.78-4.42 0-8.06-1.37-10.94-3.42-.88-.63-2.06-.69-2.98-.13-3.2 1.95-7.16 3.36-11.57 3.36Z"/></g></g></g><g id="Light-M"><g id="Solid / Store Solid_16"><g id="Shape_16" fill="#000"><path d="M1111.46 1049.38a7.58 7.58 0 0 1 7.15-5.07h68.78c3.22 0 6.09 2.04 7.16 5.07l9.55 27.23.01 2.06c-1.13 7.97-7.34 12.3-13.47 12.3-6.12 0-14.04-4.73-15.14-9.23-.75 4.55-5.36 9.48-11.23 9.48-5.41 0-10.37-5.45-11.43-9.48-.78 4.09-4.36 9.46-11.05 9.46-6.7 0-10.64-5.38-11.55-9.46-1.12 4.02-7.99 9.27-13.94 9.27-7.54 0-13.28-5.09-14.41-12.35l.01-2.05 9.56-27.23ZM1116.3 1098.59c-2.16 0-4.13 1.62-4.13 3.78v33.54c0 4.19 3.39 7.58 7.58 7.58h14c4.18-.01 7.58-3.4 7.58-7.58v-14.16c0-4.19 3.4-7.58 7.59-7.58h8.16c4.19 0 7.59 3.39 7.59 7.58v14.16c0 4.19 3.39 7.58 7.58 7.58h14c4.19 0 7.58-3.39 7.58-7.58v-34.41c0-1.68-1.51-2.95-3.19-2.95-4.44 0-8.86-1.3-12.69-3.52a2.69 2.69 0 0 0-2.93.17c-2.81 2.06-6.45 3.6-10.75 3.6-3.7 0-6.97-1.16-9.65-2.83a2.78 2.78 0 0 0-2.95.03c-2.64 1.69-5.92 2.78-9.88 2.78-4.42 0-8.06-1.37-10.94-3.42-.88-.63-2.06-.69-2.98-.13-3.2 1.95-7.16 3.36-11.57 3.36Z"/></g></g></g><g id="Thin-M"><g id="Solid / Store Solid_17"><g id="Shape_17" fill="#000"><path d="M815.455 1049.38a7.594 7.594 0 0 1 7.156-5.07h68.779c3.22 0 6.089 2.04 7.156 5.07l9.554 27.23.009 2.06c-1.129 7.97-7.344 12.3-13.468 12.3s-14.039-4.73-15.137-9.23c-.755 4.55-5.366 9.48-11.236 9.48-5.409 0-10.365-5.45-11.423-9.48-.788 4.09-4.362 9.46-11.057 9.46-6.694 0-10.637-5.38-11.553-9.46-1.11 4.02-7.981 9.27-13.938 9.27-7.535 0-13.274-5.09-14.406-12.35l.011-2.05 9.553-27.23ZM820.297 1098.59c-2.161 0-4.13 1.62-4.13 3.78v33.54a7.58 7.58 0 0 0 7.584 7.58h14c4.175-.01 7.583-3.4 7.583-7.58v-14.16a7.58 7.58 0 0 1 7.583-7.58h8.167a7.58 7.58 0 0 1 7.583 7.58v14.16a7.58 7.58 0 0 0 7.584 7.58h14a7.58 7.58 0 0 0 7.583-7.58v-34.41c0-1.68-1.513-2.95-3.193-2.95-4.436 0-8.857-1.3-12.693-3.52a2.68 2.68 0 0 0-2.924.17c-2.815 2.06-6.454 3.6-10.756 3.6-3.702 0-6.969-1.16-9.644-2.83a2.786 2.786 0 0 0-2.954.03c-2.643 1.69-5.92 2.78-9.882 2.78-4.418 0-8.056-1.37-10.934-3.42a2.72 2.72 0 0 0-2.984-.13c-3.198 1.95-7.163 3.36-11.573 3.36Z"/></g></g></g><g id="Ultralight-M"><g id="Solid / Store Solid_18"><g id="Shape_18" fill="#000"><path d="M519.455 1049.38a7.594 7.594 0 0 1 7.156-5.07h68.779c3.22 0 6.089 2.04 7.156 5.07l9.554 27.23.009 2.06c-1.129 7.97-7.344 12.3-13.468 12.3s-14.039-4.73-15.137-9.23c-.755 4.55-5.366 9.48-11.236 9.48-5.409 0-10.365-5.45-11.423-9.48-.788 4.09-4.362 9.46-11.057 9.46-6.694 0-10.637-5.38-11.553-9.46-1.11 4.02-7.981 9.27-13.938 9.27-7.535 0-13.274-5.09-14.406-12.35l.011-2.05 9.553-27.23ZM524.297 1098.59c-2.161 0-4.13 1.62-4.13 3.78v33.54a7.58 7.58 0 0 0 7.584 7.58h14c4.175-.01 7.583-3.4 7.583-7.58v-14.16a7.58 7.58 0 0 1 7.583-7.58h8.167a7.58 7.58 0 0 1 7.583 7.58v14.16a7.58 7.58 0 0 0 7.584 7.58h14a7.58 7.58 0 0 0 7.583-7.58v-34.41c0-1.68-1.513-2.95-3.193-2.95-4.436 0-8.857-1.3-12.693-3.52a2.68 2.68 0 0 0-2.924.17c-2.815 2.06-6.454 3.6-10.756 3.6-3.702 0-6.969-1.16-9.644-2.83a2.786 2.786 0 0 0-2.954.03c-2.643 1.69-5.92 2.78-9.882 2.78-4.418 0-8.056-1.37-10.934-3.42a2.72 2.72 0 0 0-2.984-.13c-3.198 1.95-7.163 3.36-11.573 3.36Z"/></g></g></g><g id="Black-S"><g id="Solid / Store Solid_19"><g id="Shape_19" fill="#000"><path d="M2899.32 631.271a5.437 5.437 0 0 1 5.12-3.623h49.12c2.3 0 4.35 1.453 5.11 3.623l6.83 19.445.01 1.47c-.81 5.698-5.25 8.789-9.62 8.789-4.38 0-10.03-3.377-10.82-6.591-.54 3.249-3.83 6.77-8.02 6.77-3.87 0-7.41-3.892-8.16-6.77-.56 2.921-3.12 6.755-7.9 6.755s-7.6-3.845-8.25-6.755c-.79 2.866-5.7 6.618-9.96 6.618-5.38 0-9.48-3.634-10.29-8.82l.01-1.466 6.82-19.445ZM2902.78 666.418c-1.54 0-2.95 1.16-2.95 2.703v23.954a5.42 5.42 0 0 0 5.42 5.417h10c2.98-.013 5.42-2.434 5.42-5.417v-10.112a5.413 5.413 0 0 1 5.41-5.417h5.84c2.99 0 5.41 2.426 5.41 5.417v10.112a5.42 5.42 0 0 0 5.42 5.417h10a5.42 5.42 0 0 0 5.42-5.417v-24.578c0-1.2-1.08-2.106-2.28-2.106-3.17 0-6.33-.928-9.07-2.518a1.919 1.919 0 0 0-2.09.122c-2.01 1.473-4.61 2.576-7.68 2.576-2.65 0-4.98-.83-6.89-2.022a1.984 1.984 0 0 0-2.11.019c-1.89 1.207-4.23 1.988-7.06 1.988-3.16 0-5.75-.981-7.81-2.447a1.94 1.94 0 0 0-2.13-.088c-2.29 1.391-5.12 2.397-8.27 2.397Z"/></g></g></g><g id="Heavy-S"><g id="Solid / Store Solid_20"><g id="Shape_20" fill="#000"><path d="M2603.32 631.271a5.437 5.437 0 0 1 5.12-3.623h49.12c2.3 0 4.35 1.453 5.11 3.623l6.83 19.445.01 1.47c-.81 5.698-5.25 8.789-9.62 8.789-4.38 0-10.03-3.377-10.82-6.591-.54 3.249-3.83 6.77-8.02 6.77-3.87 0-7.41-3.892-8.16-6.77-.56 2.921-3.12 6.755-7.9 6.755s-7.6-3.845-8.25-6.755c-.79 2.866-5.7 6.618-9.96 6.618-5.38 0-9.48-3.634-10.29-8.82l.01-1.466 6.82-19.445ZM2606.78 666.418c-1.54 0-2.95 1.16-2.95 2.703v23.954a5.42 5.42 0 0 0 5.42 5.417h10c2.98-.013 5.42-2.434 5.42-5.417v-10.112a5.413 5.413 0 0 1 5.41-5.417h5.84c2.99 0 5.41 2.426 5.41 5.417v10.112a5.42 5.42 0 0 0 5.42 5.417h10a5.42 5.42 0 0 0 5.42-5.417v-24.578c0-1.2-1.08-2.106-2.28-2.106-3.17 0-6.33-.928-9.07-2.518a1.919 1.919 0 0 0-2.09.122c-2.01 1.473-4.61 2.576-7.68 2.576-2.65 0-4.98-.83-6.89-2.022a1.984 1.984 0 0 0-2.11.019c-1.89 1.207-4.23 1.988-7.06 1.988-3.16 0-5.75-.981-7.81-2.447a1.94 1.94 0 0 0-2.13-.088c-2.29 1.391-5.12 2.397-8.27 2.397Z"/></g></g></g><g id="Bold-S"><g id="Solid / Store Solid_21"><g id="Shape_21" fill="#000"><path d="M2307.32 631.271a5.437 5.437 0 0 1 5.12-3.623h49.12c2.3 0 4.35 1.453 5.11 3.623l6.83 19.445.01 1.47c-.81 5.698-5.25 8.789-9.62 8.789-4.38 0-10.03-3.377-10.82-6.591-.54 3.249-3.83 6.77-8.02 6.77-3.87 0-7.41-3.892-8.16-6.77-.56 2.921-3.12 6.755-7.9 6.755s-7.6-3.845-8.25-6.755c-.79 2.866-5.7 6.618-9.96 6.618-5.38 0-9.48-3.634-10.29-8.82l.01-1.466 6.82-19.445ZM2310.78 666.418c-1.54 0-2.95 1.16-2.95 2.703v23.954a5.42 5.42 0 0 0 5.42 5.417h10c2.98-.013 5.42-2.434 5.42-5.417v-10.112a5.413 5.413 0 0 1 5.41-5.417h5.84c2.99 0 5.41 2.426 5.41 5.417v10.112a5.42 5.42 0 0 0 5.42 5.417h10a5.42 5.42 0 0 0 5.42-5.417v-24.578c0-1.2-1.08-2.106-2.28-2.106-3.17 0-6.33-.928-9.07-2.518a1.919 1.919 0 0 0-2.09.122c-2.01 1.473-4.61 2.576-7.68 2.576-2.65 0-4.98-.83-6.89-2.022a1.984 1.984 0 0 0-2.11.019c-1.89 1.207-4.23 1.988-7.06 1.988-3.16 0-5.75-.981-7.81-2.447a1.94 1.94 0 0 0-2.13-.088c-2.29 1.391-5.12 2.397-8.27 2.397Z"/></g></g></g><g id="Semibold-S"><g id="Solid / Store Solid_22"><g id="Shape_22" fill="#000"><path d="M2011.32 631.271a5.437 5.437 0 0 1 5.12-3.623h49.12c2.3 0 4.35 1.453 5.11 3.623l6.83 19.445.01 1.47c-.81 5.698-5.25 8.789-9.62 8.789-4.38 0-10.03-3.377-10.82-6.591-.54 3.249-3.83 6.77-8.02 6.77-3.87 0-7.41-3.892-8.16-6.77-.56 2.921-3.12 6.755-7.9 6.755s-7.6-3.845-8.25-6.755c-.79 2.866-5.7 6.618-9.96 6.618-5.38 0-9.48-3.634-10.29-8.82l.01-1.466 6.82-19.445ZM2014.78 666.418c-1.54 0-2.95 1.16-2.95 2.703v23.954a5.42 5.42 0 0 0 5.42 5.417h10c2.98-.013 5.42-2.434 5.42-5.417v-10.112a5.413 5.413 0 0 1 5.41-5.417h5.84c2.99 0 5.41 2.426 5.41 5.417v10.112a5.42 5.42 0 0 0 5.42 5.417h10a5.42 5.42 0 0 0 5.42-5.417v-24.578c0-1.2-1.08-2.106-2.28-2.106-3.17 0-6.33-.928-9.07-2.518a1.919 1.919 0 0 0-2.09.122c-2.01 1.473-4.61 2.576-7.68 2.576-2.65 0-4.98-.83-6.89-2.022a1.984 1.984 0 0 0-2.11.019c-1.89 1.207-4.23 1.988-7.06 1.988-3.16 0-5.75-.981-7.81-2.447a1.94 1.94 0 0 0-2.13-.088c-2.29 1.391-5.12 2.397-8.27 2.397Z"/></g></g></g><g id="Medium-S"><g id="Solid / Store Solid_23"><g id="Shape_23" fill="#000"><path d="M1715.32 631.271a5.437 5.437 0 0 1 5.12-3.623h49.12c2.3 0 4.35 1.453 5.11 3.623l6.83 19.445.01 1.47c-.81 5.698-5.25 8.789-9.62 8.789-4.38 0-10.03-3.377-10.82-6.591-.54 3.249-3.83 6.77-8.02 6.77-3.87 0-7.41-3.892-8.16-6.77-.56 2.921-3.12 6.755-7.9 6.755s-7.6-3.845-8.25-6.755c-.79 2.866-5.7 6.618-9.96 6.618-5.38 0-9.48-3.634-10.29-8.82l.01-1.466 6.82-19.445ZM1718.78 666.418c-1.54 0-2.95 1.16-2.95 2.703v23.954a5.42 5.42 0 0 0 5.42 5.417h10c2.98-.013 5.42-2.434 5.42-5.417v-10.112a5.413 5.413 0 0 1 5.41-5.417h5.84c2.99 0 5.41 2.426 5.41 5.417v10.112a5.42 5.42 0 0 0 5.42 5.417h10a5.42 5.42 0 0 0 5.42-5.417v-24.578c0-1.2-1.08-2.106-2.28-2.106-3.17 0-6.33-.928-9.07-2.518a1.919 1.919 0 0 0-2.09.122c-2.01 1.473-4.61 2.576-7.68 2.576-2.65 0-4.98-.83-6.89-2.022a1.984 1.984 0 0 0-2.11.019c-1.89 1.207-4.23 1.988-7.06 1.988-3.16 0-5.75-.981-7.81-2.447a1.94 1.94 0 0 0-2.13-.088c-2.29 1.391-5.12 2.397-8.27 2.397Z"/></g></g></g><g id="Regular-S"><g id="Solid / Store Solid_24"><g id="Shape_24" fill="#000"><path d="M1419.32 631.271a5.437 5.437 0 0 1 5.12-3.623h49.12c2.3 0 4.35 1.453 5.11 3.623l6.83 19.445.01 1.47c-.81 5.698-5.25 8.789-9.62 8.789-4.38 0-10.03-3.377-10.82-6.591-.54 3.249-3.83 6.77-8.02 6.77-3.87 0-7.41-3.892-8.16-6.77-.56 2.921-3.12 6.755-7.9 6.755s-7.6-3.845-8.25-6.755c-.79 2.866-5.7 6.618-9.96 6.618-5.38 0-9.48-3.634-10.29-8.82l.01-1.466 6.82-19.445ZM1422.78 666.418c-1.54 0-2.95 1.16-2.95 2.703v23.954a5.42 5.42 0 0 0 5.42 5.417h10c2.98-.013 5.42-2.434 5.42-5.417v-10.112a5.413 5.413 0 0 1 5.41-5.417h5.84c2.99 0 5.41 2.426 5.41 5.417v10.112a5.42 5.42 0 0 0 5.42 5.417h10a5.42 5.42 0 0 0 5.42-5.417v-24.578c0-1.2-1.08-2.106-2.28-2.106-3.17 0-6.33-.928-9.07-2.518a1.919 1.919 0 0 0-2.09.122c-2.01 1.473-4.61 2.576-7.68 2.576-2.65 0-4.98-.83-6.89-2.022a1.984 1.984 0 0 0-2.11.019c-1.89 1.207-4.23 1.988-7.06 1.988-3.16 0-5.75-.981-7.81-2.447a1.94 1.94 0 0 0-2.13-.088c-2.29 1.391-5.12 2.397-8.27 2.397Z"/></g></g></g><g id="Light-S"><g id="Solid / Store Solid_25"><g id="Shape_25" fill="#000"><path d="M1123.32 631.271a5.437 5.437 0 0 1 5.12-3.623h49.12c2.3 0 4.35 1.453 5.11 3.623l6.83 19.445.01 1.47c-.81 5.698-5.25 8.789-9.62 8.789-4.38 0-10.03-3.377-10.82-6.591-.54 3.249-3.83 6.77-8.02 6.77-3.87 0-7.41-3.892-8.16-6.77-.56 2.921-3.12 6.755-7.9 6.755s-7.6-3.845-8.25-6.755c-.79 2.866-5.7 6.618-9.96 6.618-5.38 0-9.48-3.634-10.29-8.82l.01-1.466 6.82-19.445ZM1126.78 666.418c-1.54 0-2.95 1.16-2.95 2.703v23.954a5.42 5.42 0 0 0 5.42 5.417h10c2.98-.013 5.42-2.434 5.42-5.417v-10.112a5.413 5.413 0 0 1 5.41-5.417h5.84c2.99 0 5.41 2.426 5.41 5.417v10.112a5.42 5.42 0 0 0 5.42 5.417h10a5.42 5.42 0 0 0 5.42-5.417v-24.578c0-1.2-1.08-2.106-2.28-2.106-3.17 0-6.33-.928-9.07-2.518a1.919 1.919 0 0 0-2.09.122c-2.01 1.473-4.61 2.576-7.68 2.576-2.65 0-4.98-.83-6.89-2.022a1.984 1.984 0 0 0-2.11.019c-1.89 1.207-4.23 1.988-7.06 1.988-3.16 0-5.75-.981-7.81-2.447a1.94 1.94 0 0 0-2.13-.088c-2.29 1.391-5.12 2.397-8.27 2.397Z"/></g></g></g><g id="Thin-S"><g id="Solid / Store Solid_26"><g id="Shape_26" fill="#000"><path d="M827.324 631.271a5.417 5.417 0 0 1 5.111-3.623h49.128c2.3 0 4.35 1.453 5.111 3.623l6.825 19.445.007 1.47c-.807 5.698-5.246 8.789-9.621 8.789-4.374 0-10.027-3.377-10.812-6.591-.539 3.249-3.833 6.77-8.025 6.77-3.864 0-7.404-3.892-8.16-6.77-.562 2.921-3.116 6.755-7.898 6.755-4.781 0-7.597-3.845-8.252-6.755-.793 2.866-5.701 6.618-9.956 6.618-5.382 0-9.481-3.634-10.29-8.82l.008-1.466 6.824-19.445ZM830.782 666.418c-1.543 0-2.949 1.16-2.949 2.703v23.954a5.416 5.416 0 0 0 5.416 5.417h10c2.983-.013 5.417-2.434 5.417-5.417v-10.112a5.417 5.417 0 0 1 5.417-5.417h5.833a5.417 5.417 0 0 1 5.417 5.417v10.112a5.416 5.416 0 0 0 5.416 5.417h10a5.417 5.417 0 0 0 5.417-5.417v-24.578c0-1.2-1.081-2.106-2.281-2.106-3.169 0-6.326-.928-9.066-2.518a1.918 1.918 0 0 0-2.089.122c-2.01 1.473-4.61 2.576-7.682 2.576-2.645 0-4.978-.83-6.889-2.022a1.984 1.984 0 0 0-2.11.019c-1.888 1.207-4.228 1.988-7.059 1.988-3.156 0-5.754-.981-7.81-2.447a1.942 1.942 0 0 0-2.131-.088c-2.285 1.391-5.117 2.397-8.267 2.397Z"/></g></g></g><g id="Ultralight-S"><g id="Solid / Store Solid_27"><g id="Shape_27" fill="#000"><path d="M531.324 631.271a5.417 5.417 0 0 1 5.111-3.623h49.128c2.3 0 4.35 1.453 5.111 3.623l6.825 19.445.007 1.47c-.807 5.698-5.246 8.789-9.621 8.789-4.374 0-10.027-3.377-10.812-6.591-.539 3.249-3.833 6.77-8.025 6.77-3.864 0-7.404-3.892-8.16-6.77-.562 2.921-3.116 6.755-7.898 6.755-4.781 0-7.597-3.845-8.252-6.755-.793 2.866-5.701 6.618-9.956 6.618-5.382 0-9.481-3.634-10.29-8.82l.008-1.466 6.824-19.445ZM534.782 666.418c-1.543 0-2.949 1.16-2.949 2.703v23.954a5.416 5.416 0 0 0 5.416 5.417h10c2.983-.013 5.417-2.434 5.417-5.417v-10.112a5.417 5.417 0 0 1 5.417-5.417h5.833a5.417 5.417 0 0 1 5.417 5.417v10.112a5.416 5.416 0 0 0 5.416 5.417h10a5.417 5.417 0 0 0 5.417-5.417v-24.578c0-1.2-1.081-2.106-2.281-2.106-3.169 0-6.326-.928-9.066-2.518a1.918 1.918 0 0 0-2.089.122c-2.01 1.473-4.61 2.576-7.682 2.576-2.645 0-4.978-.83-6.889-2.022a1.984 1.984 0 0 0-2.11.019c-1.888 1.207-4.228 1.988-7.059 1.988-3.156 0-5.754-.981-7.81-2.447a1.942 1.942 0 0 0-2.131-.088c-2.285 1.391-5.117 2.397-8.267 2.397Z"/></g></g></g></g></g><defs><clipPath id="clip0_0_1"><path fill="#fff" d="M0 0h3300v2200H0z"/></clipPath></defs></svg>