<svg width="3300" height="2200" viewBox="0 0 3300 2200" fill="none" xmlns="http://www.w3.org/2000/svg">
<rect width="3300" height="2200" fill="#E5E5E5"/>
<g id="Service / Outline / Drag" clip-path="url(#clip0_0_1)">
<g id="Notes">
<path id="artboard" d="M3300 0H0V2200H3300V0Z" fill="white"/>
<path id="Vector" d="M263 292H3036" stroke="black" stroke-width="0.5"/>
<text id="Weight/Scale Variations" fill="black" xml:space="preserve" style="white-space: pre" font-family="Roboto" font-size="12" letter-spacing="0em"><tspan x="263" y="321.102">Weight/Scale Variations</tspan></text>
<text id="Ultralight" fill="black" xml:space="preserve" style="white-space: pre" font-family="Roboto" font-size="12" letter-spacing="0em"><tspan x="535.211" y="321.102">Ultralight</tspan></text>
<text id="Thin" fill="black" xml:space="preserve" style="white-space: pre" font-family="Roboto" font-size="12" letter-spacing="0em"><tspan x="844.422" y="321.102">Thin</tspan></text>
<text id="Light" fill="black" xml:space="preserve" style="white-space: pre" font-family="Roboto" font-size="12" letter-spacing="0em"><tspan x="1139.63" y="321.102">Light</tspan></text>
<text id="Regular" fill="black" xml:space="preserve" style="white-space: pre" font-family="Roboto" font-size="12" letter-spacing="0em"><tspan x="1429.34" y="321.102">Regular</tspan></text>
<text id="Medium" fill="black" xml:space="preserve" style="white-space: pre" font-family="Roboto" font-size="12" letter-spacing="0em"><tspan x="1724.56" y="321.102">Medium</tspan></text>
<text id="Semibold" fill="black" xml:space="preserve" style="white-space: pre" font-family="Roboto" font-size="12" letter-spacing="0em"><tspan x="2017.77" y="321.102">Semibold</tspan></text>
<text id="Bold" fill="black" xml:space="preserve" style="white-space: pre" font-family="Roboto" font-size="12" letter-spacing="0em"><tspan x="2327.48" y="321.102">Bold</tspan></text>
<text id="Heavy" fill="black" xml:space="preserve" style="white-space: pre" font-family="Roboto" font-size="12" letter-spacing="0em"><tspan x="2620.19" y="321.102">Heavy</tspan></text>
<text id="Black" fill="black" xml:space="preserve" style="white-space: pre" font-family="Roboto" font-size="12" letter-spacing="0em"><tspan x="2918.4" y="321.102">Black</tspan></text>
<path id="Vector_2" d="M263 1903H3036" stroke="black" stroke-width="0.5"/>
<g id="Group">
<path id="Vector_3" d="M272.248 1933.83C276.555 1933.83 280.139 1930.26 280.139 1925.95C280.139 1921.64 276.545 1918.07 272.238 1918.07C267.941 1918.07 264.367 1921.64 264.367 1925.95C264.367 1930.26 267.951 1933.83 272.248 1933.83ZM272.248 1932.35C268.703 1932.35 265.871 1929.51 265.871 1925.95C265.871 1922.4 268.693 1919.55 272.238 1919.55C275.793 1919.55 278.635 1922.4 278.644 1925.95C278.654 1929.51 275.803 1932.35 272.248 1932.35ZM272.229 1929.57C272.697 1929.57 272.971 1929.26 272.971 1928.74V1926.68H275.197C275.695 1926.68 276.037 1926.43 276.037 1925.96C276.037 1925.48 275.715 1925.22 275.197 1925.22H272.971V1922.99C272.971 1922.47 272.697 1922.15 272.229 1922.15C271.76 1922.15 271.506 1922.49 271.506 1922.99V1925.22H269.299C268.781 1925.22 268.449 1925.48 268.449 1925.96C268.449 1926.43 268.801 1926.68 269.299 1926.68H271.506V1928.74C271.506 1929.24 271.76 1929.57 272.229 1929.57Z" fill="black"/>
</g>
<g id="Group_2">
<path id="Vector_4" d="M293.215 1935.91C298.664 1935.91 303.176 1931.4 303.176 1925.95C303.176 1920.51 298.654 1915.99 293.205 1915.99C287.766 1915.99 283.254 1920.51 283.254 1925.95C283.254 1931.4 287.775 1935.91 293.215 1935.91ZM293.215 1934.25C288.605 1934.25 284.924 1930.56 284.924 1925.95C284.924 1921.35 288.596 1917.65 293.205 1917.65C297.814 1917.65 301.506 1921.35 301.516 1925.95C301.525 1930.56 297.824 1934.25 293.215 1934.25ZM293.195 1930.59C293.713 1930.59 294.025 1930.23 294.025 1929.66V1926.77H297.082C297.629 1926.77 298.01 1926.49 298.01 1925.97C298.01 1925.44 297.648 1925.14 297.082 1925.14H294.025V1922.07C294.025 1921.5 293.713 1921.14 293.195 1921.14C292.678 1921.14 292.385 1921.52 292.385 1922.07V1925.14H289.338C288.771 1925.14 288.4 1925.44 288.4 1925.97C288.4 1926.49 288.791 1926.77 289.338 1926.77H292.385V1929.66C292.385 1930.21 292.678 1930.59 293.195 1930.59Z" fill="black"/>
</g>
<g id="Group_3">
<path id="Vector_5" d="M319.895 1938.67C326.857 1938.67 332.619 1932.92 332.619 1925.96C332.619 1918.99 326.848 1913.24 319.885 1913.24C312.932 1913.24 307.18 1918.99 307.18 1925.96C307.18 1932.92 312.941 1938.67 319.895 1938.67ZM319.895 1936.86C313.859 1936.86 309.006 1931.99 309.006 1925.96C309.006 1919.92 313.85 1915.06 319.885 1915.06C325.93 1915.06 330.783 1919.92 330.793 1925.96C330.803 1931.99 325.939 1936.86 319.895 1936.86ZM319.875 1931.93C320.441 1931.93 320.793 1931.54 320.793 1930.94V1926.87H325.031C325.617 1926.87 326.037 1926.53 326.037 1925.98C326.037 1925.4 325.647 1925.06 325.031 1925.06H320.793V1920.81C320.793 1920.2 320.441 1919.8 319.875 1919.8C319.309 1919.8 318.986 1920.21 318.986 1920.81V1925.06H314.758C314.143 1925.06 313.732 1925.4 313.732 1925.98C313.732 1926.53 314.162 1926.87 314.758 1926.87H318.986V1930.94C318.986 1931.52 319.309 1931.93 319.875 1931.93Z" fill="black"/>
</g>
<text id="Design Variations" fill="black" xml:space="preserve" style="white-space: pre" font-family="Roboto" font-size="12" letter-spacing="0em"><tspan x="263" y="1952.1">Design Variations</tspan></text>
<text id="Symbols are supported in up to nine weights and three scales." fill="black" xml:space="preserve" style="white-space: pre" font-family="Roboto" font-size="12" letter-spacing="0em"><tspan x="263" y="1970.1">Symbols are supported in up to nine weights and three scales.</tspan></text>
<text id="For optimal layout with text and other symbols, vertically align" fill="black" xml:space="preserve" style="white-space: pre" font-family="Roboto" font-size="12" letter-spacing="0em"><tspan x="263" y="1988.1">For optimal layout with text and other symbols, vertically align</tspan></text>
<text id="symbols with the adjacent text." fill="black" xml:space="preserve" style="white-space: pre" font-family="Roboto" font-size="12" letter-spacing="0em"><tspan x="263" y="2006.1">symbols with the adjacent text.</tspan></text>
<path id="Vector_6" opacity="0.4" d="M779 1919H776V1933H779V1919Z" fill="#00AEEF"/>
<g id="Group_4">
<path id="Vector_7" d="M789.527 1933H791.373L786.178 1918.91H784.439L779.244 1933H781.09L782.506 1928.96H788.111L789.527 1933ZM785.279 1921.04H785.338L787.594 1927.47H783.023L785.279 1921.04Z" fill="black"/>
</g>
<path id="Vector_8" opacity="0.4" d="M794.617 1919H791.617V1933H794.617V1919Z" fill="#00AEEF"/>
<text id="Margins" fill="black" xml:space="preserve" style="white-space: pre" font-family="Roboto" font-size="12" letter-spacing="0em"><tspan x="776" y="1952.1">Margins</tspan></text>
<text id="Leading and trailing margins on the left and right side of each symbol" fill="black" xml:space="preserve" style="white-space: pre" font-family="Roboto" font-size="12" letter-spacing="0em"><tspan x="776" y="1970.1">Leading and trailing margins on the left and right side of each symbol</tspan></text>
<text id="can be adjusted by modifying the width of the blue rectangles." fill="black" xml:space="preserve" style="white-space: pre" font-family="Roboto" font-size="12" letter-spacing="0em"><tspan x="776" y="1988.1">can be adjusted by modifying the width of the blue rectangles.</tspan></text>
<text id="Modifications are automatically applied proportionally to all" fill="black" xml:space="preserve" style="white-space: pre" font-family="Roboto" font-size="12" letter-spacing="0em"><tspan x="776" y="2006.1">Modifications are automatically applied proportionally to all</tspan></text>
<text id="scales and weights." fill="black" xml:space="preserve" style="white-space: pre" font-family="Roboto" font-size="12" letter-spacing="0em"><tspan x="776" y="2024.1">scales and weights.</tspan></text>
<g id="Group_5">
<path id="Vector_9" d="M1291.83 1936.11L1293.37 1937.66C1294.22 1938.49 1295.19 1938.42 1296.06 1937.46L1306.27 1926.34C1306.7 1926.63 1307.1 1926.62 1307.56 1926.52L1308.61 1926.31L1309.3 1927L1309.25 1927.52C1309.19 1928.05 1309.35 1928.47 1309.85 1928.97L1310.66 1929.78C1311.17 1930.28 1311.82 1930.31 1312.3 1929.83L1315.55 1926.58C1316.03 1926.1 1316.01 1925.45 1315.5 1924.94L1314.68 1924.12C1314.19 1923.62 1313.77 1923.45 1313.24 1923.53L1312.71 1923.58L1312.06 1922.92L1312.34 1921.78C1312.49 1921.21 1312.34 1920.74 1311.71 1920.14L1309.3 1917.75C1305.76 1914.22 1301.23 1914.33 1298.11 1917.46C1297.69 1917.89 1297.64 1918.48 1297.92 1918.91C1298.15 1919.28 1298.63 1919.5 1299.27 1919.34C1300.79 1918.96 1302.3 1919.07 1303.78 1920.08L1303.16 1921.66C1302.93 1922.25 1302.94 1922.73 1303.18 1923.16L1292.02 1933.44C1291.08 1934.31 1290.97 1935.25 1291.83 1936.11ZM1299.67 1917.85C1302.34 1915.86 1305.65 1916.17 1308.05 1918.58L1310.68 1921.19C1310.91 1921.43 1310.94 1921.61 1310.88 1921.91L1310.5 1923.47L1312.08 1925.04L1313.04 1924.95C1313.33 1924.92 1313.41 1924.94 1313.64 1925.17L1314.26 1925.79L1311.51 1928.54L1310.88 1927.92C1310.66 1927.7 1310.64 1927.6 1310.67 1927.32L1310.76 1926.36L1309.19 1924.8L1307.57 1925.11C1307.29 1925.17 1307.14 1925.17 1306.91 1924.92L1304.73 1922.75C1304.51 1922.51 1304.48 1922.37 1304.61 1922.05L1305.55 1919.78C1303.95 1918.24 1301.84 1917.39 1299.8 1918.05C1299.71 1918.08 1299.64 1918.06 1299.61 1918.02C1299.59 1917.97 1299.59 1917.92 1299.67 1917.85ZM1293.1 1935.41C1292.61 1934.91 1292.79 1934.61 1293.12 1934.31L1304.08 1924.19L1305.31 1925.42L1295.15 1936.35C1294.85 1936.68 1294.47 1936.78 1294.07 1936.38L1293.1 1935.41Z" fill="black"/>
</g>
<text id="Exporting" fill="black" xml:space="preserve" style="white-space: pre" font-family="Roboto" font-size="12" letter-spacing="0em"><tspan x="1289" y="1952.1">Exporting</tspan></text>
<text id="Symbols should be outlined when exporting to ensure the" fill="black" xml:space="preserve" style="white-space: pre" font-family="Roboto" font-size="12" letter-spacing="0em"><tspan x="1289" y="1970.1">Symbols should be outlined when exporting to ensure the</tspan></text>
<text id="design is preserved when submitting to Xcode." fill="black" xml:space="preserve" style="white-space: pre" font-family="Roboto" font-size="12" letter-spacing="0em"><tspan x="1289" y="1988.1">design is preserved when submitting to Xcode.</tspan></text>
<text id="template-version" fill="black" xml:space="preserve" style="white-space: pre" font-family="Roboto" font-size="12" letter-spacing="0em"><tspan x="2958" y="1932.1">Template v.1.0</tspan></text>
<text id="Generated from pencil.circle" fill="black" xml:space="preserve" style="white-space: pre" font-family="Roboto" font-size="12" letter-spacing="0em"><tspan x="2885" y="1950.1">Generated from pencil.circle</tspan></text>
<text id="Typeset at 100 points" fill="black" xml:space="preserve" style="white-space: pre" font-family="Roboto" font-size="12" letter-spacing="0em"><tspan x="2921" y="1968.1">Typeset at 100 points</tspan></text>
<text id="Small" fill="black" xml:space="preserve" style="white-space: pre" font-family="Roboto" font-size="12" letter-spacing="0em"><tspan x="263" y="725.102">Small</tspan></text>
<text id="Medium_2" fill="black" xml:space="preserve" style="white-space: pre" font-family="Roboto" font-size="12" letter-spacing="0em"><tspan x="263" y="1155.1">Medium</tspan></text>
<text id="Large" fill="black" xml:space="preserve" style="white-space: pre" font-family="Roboto" font-size="12" letter-spacing="0em"><tspan x="263" y="1585.1">Large</tspan></text>
</g>
<g id="Guides">
<g id="H-reference">
<path id="Vector_10" d="M393.932 695.998H396.666L369.566 625.539H367.076L339.977 695.998H342.662L351.94 671.535H384.703L393.932 695.998ZM368.199 628.908H368.443L383.824 669.289H352.818L368.199 628.908Z" fill="#27AAE1"/>
</g>
<path id="Baseline-S" d="M263 696H3036" stroke="#27AAE1" stroke-width="0.577"/>
<path id="Capline-S" d="M263 626H3036" stroke="#27AAE1" stroke-width="0.577"/>
<g id="H-reference_2">
<path id="Vector_11" d="M393.932 1126H396.666L369.566 1055.54H367.076L339.977 1126H342.662L351.94 1101.54H384.703L393.932 1126ZM368.199 1058.91H368.443L383.824 1099.29H352.818L368.199 1058.91Z" fill="#27AAE1"/>
</g>
<path id="Baseline-M" d="M263 1126H3036" stroke="#27AAE1" stroke-width="0.577"/>
<path id="Capline-M" d="M263 1056H3036" stroke="#27AAE1" stroke-width="0.577"/>
<g id="H-reference_3">
<path id="Vector_12" d="M393.932 1556H396.666L369.566 1485.54H367.076L339.977 1556H342.662L351.94 1531.54H384.703L393.932 1556ZM368.199 1488.91H368.443L383.824 1529.29H352.818L368.199 1488.91Z" fill="#27AAE1"/>
</g>
<g id="Group 1">
<path id="Baseline-L" d="M263 1556H3036" stroke="#27AAE1" stroke-width="0.577"/>
<path id="Capline-L" d="M263 1486H3036" stroke="#27AAE1" stroke-width="0.577"/>
</g>
<path id="left-margin" opacity="0.4" d="M1396.04 1030.79H1387.3V1150.12H1396.04V1030.79Z" fill="#00AEEF"/>
<path id="right-margin" opacity="0.4" d="M1510.39 1030.79H1501.65V1150.12H1510.39V1030.79Z" fill="#00AEEF"/>
</g>
<g id="Symbols">
<g id="Black-L">
<g id="Outline  / Drag Outline">
<g id="Shape">
<path d="M2913.95 1468.5C2913.95 1476.78 2907.23 1483.5 2898.95 1483.5C2890.66 1483.5 2883.95 1476.78 2883.95 1468.5C2883.95 1460.22 2890.66 1453.5 2898.95 1453.5C2907.23 1453.5 2913.95 1460.22 2913.95 1468.5Z" fill="black"/>
<path d="M2913.95 1573.5C2913.95 1581.78 2907.23 1588.5 2898.95 1588.5C2890.66 1588.5 2883.95 1581.78 2883.95 1573.5C2883.95 1565.22 2890.66 1558.5 2898.95 1558.5C2907.23 1558.5 2913.95 1565.22 2913.95 1573.5Z" fill="black"/>
<path d="M2913.95 1521C2913.95 1529.28 2907.23 1536 2898.95 1536C2890.66 1536 2883.95 1529.28 2883.95 1521C2883.95 1512.72 2890.66 1506 2898.95 1506C2907.23 1506 2913.95 1512.72 2913.95 1521Z" fill="black"/>
<path d="M2974 1468.5C2974 1476.78 2967.28 1483.5 2959 1483.5C2950.72 1483.5 2944 1476.78 2944 1468.5C2944 1460.22 2950.72 1453.5 2959 1453.5C2967.28 1453.5 2974 1460.22 2974 1468.5Z" fill="black"/>
<path d="M2974 1573.5C2974 1581.78 2967.28 1588.5 2959 1588.5C2950.72 1588.5 2944 1581.78 2944 1573.5C2944 1565.22 2950.72 1558.5 2959 1558.5C2967.28 1558.5 2974 1565.22 2974 1573.5Z" fill="black"/>
<path d="M2974 1521C2974 1529.28 2967.28 1536 2959 1536C2950.72 1536 2944 1529.28 2944 1521C2944 1512.72 2950.72 1506 2959 1506C2967.28 1506 2974 1512.72 2974 1521Z" fill="black"/>
</g>
</g>
</g>
<g id="Heavy-L">
<g id="Outline  / Drag Outline_2">
<g id="Shape_2">
<path d="M2617.95 1468.5C2617.95 1476.78 2611.23 1483.5 2602.95 1483.5C2594.66 1483.5 2587.95 1476.78 2587.95 1468.5C2587.95 1460.22 2594.66 1453.5 2602.95 1453.5C2611.23 1453.5 2617.95 1460.22 2617.95 1468.5Z" fill="black"/>
<path d="M2617.95 1573.5C2617.95 1581.78 2611.23 1588.5 2602.95 1588.5C2594.66 1588.5 2587.95 1581.78 2587.95 1573.5C2587.95 1565.22 2594.66 1558.5 2602.95 1558.5C2611.23 1558.5 2617.95 1565.22 2617.95 1573.5Z" fill="black"/>
<path d="M2617.95 1521C2617.95 1529.28 2611.23 1536 2602.95 1536C2594.66 1536 2587.95 1529.28 2587.95 1521C2587.95 1512.72 2594.66 1506 2602.95 1506C2611.23 1506 2617.95 1512.72 2617.95 1521Z" fill="black"/>
<path d="M2678 1468.5C2678 1476.78 2671.28 1483.5 2663 1483.5C2654.72 1483.5 2648 1476.78 2648 1468.5C2648 1460.22 2654.72 1453.5 2663 1453.5C2671.28 1453.5 2678 1460.22 2678 1468.5Z" fill="black"/>
<path d="M2678 1573.5C2678 1581.78 2671.28 1588.5 2663 1588.5C2654.72 1588.5 2648 1581.78 2648 1573.5C2648 1565.22 2654.72 1558.5 2663 1558.5C2671.28 1558.5 2678 1565.22 2678 1573.5Z" fill="black"/>
<path d="M2678 1521C2678 1529.28 2671.28 1536 2663 1536C2654.72 1536 2648 1529.28 2648 1521C2648 1512.72 2654.72 1506 2663 1506C2671.28 1506 2678 1512.72 2678 1521Z" fill="black"/>
</g>
</g>
</g>
<g id="Bold-L">
<g id="Outline  / Drag Outline_3">
<g id="Shape_3">
<path d="M2321.95 1468.5C2321.95 1476.78 2315.23 1483.5 2306.95 1483.5C2298.66 1483.5 2291.95 1476.78 2291.95 1468.5C2291.95 1460.22 2298.66 1453.5 2306.95 1453.5C2315.23 1453.5 2321.95 1460.22 2321.95 1468.5Z" fill="black"/>
<path d="M2321.95 1573.5C2321.95 1581.78 2315.23 1588.5 2306.95 1588.5C2298.66 1588.5 2291.95 1581.78 2291.95 1573.5C2291.95 1565.22 2298.66 1558.5 2306.95 1558.5C2315.23 1558.5 2321.95 1565.22 2321.95 1573.5Z" fill="black"/>
<path d="M2321.95 1521C2321.95 1529.28 2315.23 1536 2306.95 1536C2298.66 1536 2291.95 1529.28 2291.95 1521C2291.95 1512.72 2298.66 1506 2306.95 1506C2315.23 1506 2321.95 1512.72 2321.95 1521Z" fill="black"/>
<path d="M2382 1468.5C2382 1476.78 2375.28 1483.5 2367 1483.5C2358.72 1483.5 2352 1476.78 2352 1468.5C2352 1460.22 2358.72 1453.5 2367 1453.5C2375.28 1453.5 2382 1460.22 2382 1468.5Z" fill="black"/>
<path d="M2382 1573.5C2382 1581.78 2375.28 1588.5 2367 1588.5C2358.72 1588.5 2352 1581.78 2352 1573.5C2352 1565.22 2358.72 1558.5 2367 1558.5C2375.28 1558.5 2382 1565.22 2382 1573.5Z" fill="black"/>
<path d="M2382 1521C2382 1529.28 2375.28 1536 2367 1536C2358.72 1536 2352 1529.28 2352 1521C2352 1512.72 2358.72 1506 2367 1506C2375.28 1506 2382 1512.72 2382 1521Z" fill="black"/>
</g>
</g>
</g>
<g id="Semibold-L">
<g id="Outline  / Drag Outline_4">
<g id="Shape_4">
<path d="M2025.95 1468.5C2025.95 1476.78 2019.23 1483.5 2010.95 1483.5C2002.66 1483.5 1995.95 1476.78 1995.95 1468.5C1995.95 1460.22 2002.66 1453.5 2010.95 1453.5C2019.23 1453.5 2025.95 1460.22 2025.95 1468.5Z" fill="black"/>
<path d="M2025.95 1573.5C2025.95 1581.78 2019.23 1588.5 2010.95 1588.5C2002.66 1588.5 1995.95 1581.78 1995.95 1573.5C1995.95 1565.22 2002.66 1558.5 2010.95 1558.5C2019.23 1558.5 2025.95 1565.22 2025.95 1573.5Z" fill="black"/>
<path d="M2025.95 1521C2025.95 1529.28 2019.23 1536 2010.95 1536C2002.66 1536 1995.95 1529.28 1995.95 1521C1995.95 1512.72 2002.66 1506 2010.95 1506C2019.23 1506 2025.95 1512.72 2025.95 1521Z" fill="black"/>
<path d="M2086 1468.5C2086 1476.78 2079.28 1483.5 2071 1483.5C2062.72 1483.5 2056 1476.78 2056 1468.5C2056 1460.22 2062.72 1453.5 2071 1453.5C2079.28 1453.5 2086 1460.22 2086 1468.5Z" fill="black"/>
<path d="M2086 1573.5C2086 1581.78 2079.28 1588.5 2071 1588.5C2062.72 1588.5 2056 1581.78 2056 1573.5C2056 1565.22 2062.72 1558.5 2071 1558.5C2079.28 1558.5 2086 1565.22 2086 1573.5Z" fill="black"/>
<path d="M2086 1521C2086 1529.28 2079.28 1536 2071 1536C2062.72 1536 2056 1529.28 2056 1521C2056 1512.72 2062.72 1506 2071 1506C2079.28 1506 2086 1512.72 2086 1521Z" fill="black"/>
</g>
</g>
</g>
<g id="Medium-L">
<g id="Outline  / Drag Outline_5">
<g id="Shape_5">
<path d="M1729.95 1468.5C1729.95 1476.78 1723.23 1483.5 1714.95 1483.5C1706.66 1483.5 1699.95 1476.78 1699.95 1468.5C1699.95 1460.22 1706.66 1453.5 1714.95 1453.5C1723.23 1453.5 1729.95 1460.22 1729.95 1468.5Z" fill="black"/>
<path d="M1729.95 1573.5C1729.95 1581.78 1723.23 1588.5 1714.95 1588.5C1706.66 1588.5 1699.95 1581.78 1699.95 1573.5C1699.95 1565.22 1706.66 1558.5 1714.95 1558.5C1723.23 1558.5 1729.95 1565.22 1729.95 1573.5Z" fill="black"/>
<path d="M1729.95 1521C1729.95 1529.28 1723.23 1536 1714.95 1536C1706.66 1536 1699.95 1529.28 1699.95 1521C1699.95 1512.72 1706.66 1506 1714.95 1506C1723.23 1506 1729.95 1512.72 1729.95 1521Z" fill="black"/>
<path d="M1790 1468.5C1790 1476.78 1783.28 1483.5 1775 1483.5C1766.72 1483.5 1760 1476.78 1760 1468.5C1760 1460.22 1766.72 1453.5 1775 1453.5C1783.28 1453.5 1790 1460.22 1790 1468.5Z" fill="black"/>
<path d="M1790 1573.5C1790 1581.78 1783.28 1588.5 1775 1588.5C1766.72 1588.5 1760 1581.78 1760 1573.5C1760 1565.22 1766.72 1558.5 1775 1558.5C1783.28 1558.5 1790 1565.22 1790 1573.5Z" fill="black"/>
<path d="M1790 1521C1790 1529.28 1783.28 1536 1775 1536C1766.72 1536 1760 1529.28 1760 1521C1760 1512.72 1766.72 1506 1775 1506C1783.28 1506 1790 1512.72 1790 1521Z" fill="black"/>
</g>
</g>
</g>
<g id="Regular-L">
<g id="Outline  / Drag Outline_6">
<g id="Shape_6">
<path d="M1433.95 1468.5C1433.95 1476.78 1427.23 1483.5 1418.95 1483.5C1410.66 1483.5 1403.95 1476.78 1403.95 1468.5C1403.95 1460.22 1410.66 1453.5 1418.95 1453.5C1427.23 1453.5 1433.95 1460.22 1433.95 1468.5Z" fill="black"/>
<path d="M1433.95 1573.5C1433.95 1581.78 1427.23 1588.5 1418.95 1588.5C1410.66 1588.5 1403.95 1581.78 1403.95 1573.5C1403.95 1565.22 1410.66 1558.5 1418.95 1558.5C1427.23 1558.5 1433.95 1565.22 1433.95 1573.5Z" fill="black"/>
<path d="M1433.95 1521C1433.95 1529.28 1427.23 1536 1418.95 1536C1410.66 1536 1403.95 1529.28 1403.95 1521C1403.95 1512.72 1410.66 1506 1418.95 1506C1427.23 1506 1433.95 1512.72 1433.95 1521Z" fill="black"/>
<path d="M1494 1468.5C1494 1476.78 1487.28 1483.5 1479 1483.5C1470.72 1483.5 1464 1476.78 1464 1468.5C1464 1460.22 1470.72 1453.5 1479 1453.5C1487.28 1453.5 1494 1460.22 1494 1468.5Z" fill="black"/>
<path d="M1494 1573.5C1494 1581.78 1487.28 1588.5 1479 1588.5C1470.72 1588.5 1464 1581.78 1464 1573.5C1464 1565.22 1470.72 1558.5 1479 1558.5C1487.28 1558.5 1494 1565.22 1494 1573.5Z" fill="black"/>
<path d="M1494 1521C1494 1529.28 1487.28 1536 1479 1536C1470.72 1536 1464 1529.28 1464 1521C1464 1512.72 1470.72 1506 1479 1506C1487.28 1506 1494 1512.72 1494 1521Z" fill="black"/>
</g>
</g>
</g>
<g id="Light-L">
<g id="Outline  / Drag Outline_7">
<g id="Shape_7">
<path d="M1137.95 1468.5C1137.95 1476.78 1131.23 1483.5 1122.95 1483.5C1114.66 1483.5 1107.95 1476.78 1107.95 1468.5C1107.95 1460.22 1114.66 1453.5 1122.95 1453.5C1131.23 1453.5 1137.95 1460.22 1137.95 1468.5Z" fill="black"/>
<path d="M1137.95 1573.5C1137.95 1581.78 1131.23 1588.5 1122.95 1588.5C1114.66 1588.5 1107.95 1581.78 1107.95 1573.5C1107.95 1565.22 1114.66 1558.5 1122.95 1558.5C1131.23 1558.5 1137.95 1565.22 1137.95 1573.5Z" fill="black"/>
<path d="M1137.95 1521C1137.95 1529.28 1131.23 1536 1122.95 1536C1114.66 1536 1107.95 1529.28 1107.95 1521C1107.95 1512.72 1114.66 1506 1122.95 1506C1131.23 1506 1137.95 1512.72 1137.95 1521Z" fill="black"/>
<path d="M1198 1468.5C1198 1476.78 1191.28 1483.5 1183 1483.5C1174.72 1483.5 1168 1476.78 1168 1468.5C1168 1460.22 1174.72 1453.5 1183 1453.5C1191.28 1453.5 1198 1460.22 1198 1468.5Z" fill="black"/>
<path d="M1198 1573.5C1198 1581.78 1191.28 1588.5 1183 1588.5C1174.72 1588.5 1168 1581.78 1168 1573.5C1168 1565.22 1174.72 1558.5 1183 1558.5C1191.28 1558.5 1198 1565.22 1198 1573.5Z" fill="black"/>
<path d="M1198 1521C1198 1529.28 1191.28 1536 1183 1536C1174.72 1536 1168 1529.28 1168 1521C1168 1512.72 1174.72 1506 1183 1506C1191.28 1506 1198 1512.72 1198 1521Z" fill="black"/>
</g>
</g>
</g>
<g id="Thin-L">
<g id="Outline  / Drag Outline_8">
<g id="Shape_8">
<path d="M841.948 1468.5C841.948 1476.78 835.233 1483.5 826.948 1483.5C818.664 1483.5 811.948 1476.78 811.948 1468.5C811.948 1460.22 818.664 1453.5 826.948 1453.5C835.233 1453.5 841.948 1460.22 841.948 1468.5Z" fill="black"/>
<path d="M841.948 1573.5C841.948 1581.78 835.233 1588.5 826.948 1588.5C818.664 1588.5 811.948 1581.78 811.948 1573.5C811.948 1565.22 818.664 1558.5 826.948 1558.5C835.233 1558.5 841.948 1565.22 841.948 1573.5Z" fill="black"/>
<path d="M841.948 1521C841.948 1529.28 835.233 1536 826.948 1536C818.664 1536 811.948 1529.28 811.948 1521C811.948 1512.72 818.664 1506 826.948 1506C835.233 1506 841.948 1512.72 841.948 1521Z" fill="black"/>
<path d="M902 1468.5C902 1476.78 895.284 1483.5 887 1483.5C878.715 1483.5 872 1476.78 872 1468.5C872 1460.22 878.715 1453.5 887 1453.5C895.284 1453.5 902 1460.22 902 1468.5Z" fill="black"/>
<path d="M901.999 1573.5C901.999 1581.78 895.284 1588.5 886.999 1588.5C878.715 1588.5 872 1581.78 872 1573.5C872 1565.22 878.715 1558.5 886.999 1558.5C895.284 1558.5 901.999 1565.22 901.999 1573.5Z" fill="black"/>
<path d="M902 1521C902 1529.28 895.284 1536 886.999 1536C878.715 1536 872 1529.28 872 1521C872 1512.72 878.715 1506 887 1506C895.284 1506 902 1512.72 902 1521Z" fill="black"/>
</g>
</g>
</g>
<g id="Ultralight-L">
<g id="Outline  / Drag Outline_9">
<g id="Shape_9">
<path d="M545.948 1468.5C545.948 1476.78 539.233 1483.5 530.948 1483.5C522.664 1483.5 515.948 1476.78 515.948 1468.5C515.948 1460.22 522.664 1453.5 530.948 1453.5C539.233 1453.5 545.948 1460.22 545.948 1468.5Z" fill="black"/>
<path d="M545.948 1573.5C545.948 1581.78 539.233 1588.5 530.948 1588.5C522.664 1588.5 515.948 1581.78 515.948 1573.5C515.948 1565.22 522.664 1558.5 530.948 1558.5C539.233 1558.5 545.948 1565.22 545.948 1573.5Z" fill="black"/>
<path d="M545.948 1521C545.948 1529.28 539.233 1536 530.948 1536C522.664 1536 515.948 1529.28 515.948 1521C515.948 1512.72 522.664 1506 530.948 1506C539.233 1506 545.948 1512.72 545.948 1521Z" fill="black"/>
<path d="M606 1468.5C606 1476.78 599.284 1483.5 591 1483.5C582.715 1483.5 576 1476.78 576 1468.5C576 1460.22 582.715 1453.5 591 1453.5C599.284 1453.5 606 1460.22 606 1468.5Z" fill="black"/>
<path d="M605.999 1573.5C605.999 1581.78 599.284 1588.5 590.999 1588.5C582.715 1588.5 576 1581.78 576 1573.5C576 1565.22 582.715 1558.5 590.999 1558.5C599.284 1558.5 605.999 1565.22 605.999 1573.5Z" fill="black"/>
<path d="M606 1521C606 1529.28 599.284 1536 590.999 1536C582.715 1536 576 1529.28 576 1521C576 1512.72 582.715 1506 591 1506C599.284 1506 606 1512.72 606 1521Z" fill="black"/>
</g>
</g>
</g>
<g id="Black-M">
<g id="Outline  / Drag Outline_10">
<g id="Shape_10">
<path d="M2917.29 1050.17C2917.29 1056.61 2912.07 1061.83 2905.63 1061.83C2899.18 1061.83 2893.96 1056.61 2893.96 1050.17C2893.96 1043.72 2899.18 1038.5 2905.63 1038.5C2912.07 1038.5 2917.29 1043.72 2917.29 1050.17Z" fill="black"/>
<path d="M2917.29 1131.83C2917.29 1138.28 2912.07 1143.5 2905.63 1143.5C2899.18 1143.5 2893.96 1138.28 2893.96 1131.83C2893.96 1125.39 2899.18 1120.17 2905.63 1120.17C2912.07 1120.17 2917.29 1125.39 2917.29 1131.83Z" fill="black"/>
<path d="M2917.29 1091C2917.29 1097.44 2912.07 1102.67 2905.63 1102.67C2899.18 1102.67 2893.96 1097.44 2893.96 1091C2893.96 1084.56 2899.18 1079.33 2905.63 1079.33C2912.07 1079.33 2917.29 1084.56 2917.29 1091Z" fill="black"/>
<path d="M2964 1050.17C2964 1056.61 2958.78 1061.83 2952.33 1061.83C2945.89 1061.83 2940.67 1056.61 2940.67 1050.17C2940.67 1043.72 2945.89 1038.5 2952.33 1038.5C2958.78 1038.5 2964 1043.72 2964 1050.17Z" fill="black"/>
<path d="M2964 1131.83C2964 1138.28 2958.78 1143.5 2952.33 1143.5C2945.89 1143.5 2940.67 1138.28 2940.67 1131.83C2940.67 1125.39 2945.89 1120.17 2952.33 1120.17C2958.78 1120.17 2964 1125.39 2964 1131.83Z" fill="black"/>
<path d="M2964 1091C2964 1097.44 2958.78 1102.67 2952.33 1102.67C2945.89 1102.67 2940.67 1097.44 2940.67 1091C2940.67 1084.56 2945.89 1079.33 2952.33 1079.33C2958.78 1079.33 2964 1084.56 2964 1091Z" fill="black"/>
</g>
</g>
</g>
<g id="Heavy-M">
<g id="Outline  / Drag Outline_11">
<g id="Shape_11">
<path d="M2621.29 1050.17C2621.29 1056.61 2616.07 1061.83 2609.63 1061.83C2603.18 1061.83 2597.96 1056.61 2597.96 1050.17C2597.96 1043.72 2603.18 1038.5 2609.63 1038.5C2616.07 1038.5 2621.29 1043.72 2621.29 1050.17Z" fill="black"/>
<path d="M2621.29 1131.83C2621.29 1138.28 2616.07 1143.5 2609.63 1143.5C2603.18 1143.5 2597.96 1138.28 2597.96 1131.83C2597.96 1125.39 2603.18 1120.17 2609.63 1120.17C2616.07 1120.17 2621.29 1125.39 2621.29 1131.83Z" fill="black"/>
<path d="M2621.29 1091C2621.29 1097.44 2616.07 1102.67 2609.63 1102.67C2603.18 1102.67 2597.96 1097.44 2597.96 1091C2597.96 1084.56 2603.18 1079.33 2609.63 1079.33C2616.07 1079.33 2621.29 1084.56 2621.29 1091Z" fill="black"/>
<path d="M2668 1050.17C2668 1056.61 2662.78 1061.83 2656.33 1061.83C2649.89 1061.83 2644.67 1056.61 2644.67 1050.17C2644.67 1043.72 2649.89 1038.5 2656.33 1038.5C2662.78 1038.5 2668 1043.72 2668 1050.17Z" fill="black"/>
<path d="M2668 1131.83C2668 1138.28 2662.78 1143.5 2656.33 1143.5C2649.89 1143.5 2644.67 1138.28 2644.67 1131.83C2644.67 1125.39 2649.89 1120.17 2656.33 1120.17C2662.78 1120.17 2668 1125.39 2668 1131.83Z" fill="black"/>
<path d="M2668 1091C2668 1097.44 2662.78 1102.67 2656.33 1102.67C2649.89 1102.67 2644.67 1097.44 2644.67 1091C2644.67 1084.56 2649.89 1079.33 2656.33 1079.33C2662.78 1079.33 2668 1084.56 2668 1091Z" fill="black"/>
</g>
</g>
</g>
<g id="Bold-M">
<g id="Outline  / Drag Outline_12">
<g id="Shape_12">
<path d="M2325.29 1050.17C2325.29 1056.61 2320.07 1061.83 2313.63 1061.83C2307.18 1061.83 2301.96 1056.61 2301.96 1050.17C2301.96 1043.72 2307.18 1038.5 2313.63 1038.5C2320.07 1038.5 2325.29 1043.72 2325.29 1050.17Z" fill="black"/>
<path d="M2325.29 1131.83C2325.29 1138.28 2320.07 1143.5 2313.63 1143.5C2307.18 1143.5 2301.96 1138.28 2301.96 1131.83C2301.96 1125.39 2307.18 1120.17 2313.63 1120.17C2320.07 1120.17 2325.29 1125.39 2325.29 1131.83Z" fill="black"/>
<path d="M2325.29 1091C2325.29 1097.44 2320.07 1102.67 2313.63 1102.67C2307.18 1102.67 2301.96 1097.44 2301.96 1091C2301.96 1084.56 2307.18 1079.33 2313.63 1079.33C2320.07 1079.33 2325.29 1084.56 2325.29 1091Z" fill="black"/>
<path d="M2372 1050.17C2372 1056.61 2366.78 1061.83 2360.33 1061.83C2353.89 1061.83 2348.67 1056.61 2348.67 1050.17C2348.67 1043.72 2353.89 1038.5 2360.33 1038.5C2366.78 1038.5 2372 1043.72 2372 1050.17Z" fill="black"/>
<path d="M2372 1131.83C2372 1138.28 2366.78 1143.5 2360.33 1143.5C2353.89 1143.5 2348.67 1138.28 2348.67 1131.83C2348.67 1125.39 2353.89 1120.17 2360.33 1120.17C2366.78 1120.17 2372 1125.39 2372 1131.83Z" fill="black"/>
<path d="M2372 1091C2372 1097.44 2366.78 1102.67 2360.33 1102.67C2353.89 1102.67 2348.67 1097.44 2348.67 1091C2348.67 1084.56 2353.89 1079.33 2360.33 1079.33C2366.78 1079.33 2372 1084.56 2372 1091Z" fill="black"/>
</g>
</g>
</g>
<g id="Semibold-M">
<g id="Outline  / Drag Outline_13">
<g id="Shape_13">
<path d="M2029.29 1050.17C2029.29 1056.61 2024.07 1061.83 2017.63 1061.83C2011.18 1061.83 2005.96 1056.61 2005.96 1050.17C2005.96 1043.72 2011.18 1038.5 2017.63 1038.5C2024.07 1038.5 2029.29 1043.72 2029.29 1050.17Z" fill="black"/>
<path d="M2029.29 1131.83C2029.29 1138.28 2024.07 1143.5 2017.63 1143.5C2011.18 1143.5 2005.96 1138.28 2005.96 1131.83C2005.96 1125.39 2011.18 1120.17 2017.63 1120.17C2024.07 1120.17 2029.29 1125.39 2029.29 1131.83Z" fill="black"/>
<path d="M2029.29 1091C2029.29 1097.44 2024.07 1102.67 2017.63 1102.67C2011.18 1102.67 2005.96 1097.44 2005.96 1091C2005.96 1084.56 2011.18 1079.33 2017.63 1079.33C2024.07 1079.33 2029.29 1084.56 2029.29 1091Z" fill="black"/>
<path d="M2076 1050.17C2076 1056.61 2070.78 1061.83 2064.33 1061.83C2057.89 1061.83 2052.67 1056.61 2052.67 1050.17C2052.67 1043.72 2057.89 1038.5 2064.33 1038.5C2070.78 1038.5 2076 1043.72 2076 1050.17Z" fill="black"/>
<path d="M2076 1131.83C2076 1138.28 2070.78 1143.5 2064.33 1143.5C2057.89 1143.5 2052.67 1138.28 2052.67 1131.83C2052.67 1125.39 2057.89 1120.17 2064.33 1120.17C2070.78 1120.17 2076 1125.39 2076 1131.83Z" fill="black"/>
<path d="M2076 1091C2076 1097.44 2070.78 1102.67 2064.33 1102.67C2057.89 1102.67 2052.67 1097.44 2052.67 1091C2052.67 1084.56 2057.89 1079.33 2064.33 1079.33C2070.78 1079.33 2076 1084.56 2076 1091Z" fill="black"/>
</g>
</g>
</g>
<g id="Medium-M">
<g id="Outline  / Drag Outline_14">
<g id="Shape_14">
<path d="M1733.29 1050.17C1733.29 1056.61 1728.07 1061.83 1721.63 1061.83C1715.18 1061.83 1709.96 1056.61 1709.96 1050.17C1709.96 1043.72 1715.18 1038.5 1721.63 1038.5C1728.07 1038.5 1733.29 1043.72 1733.29 1050.17Z" fill="black"/>
<path d="M1733.29 1131.83C1733.29 1138.28 1728.07 1143.5 1721.63 1143.5C1715.18 1143.5 1709.96 1138.28 1709.96 1131.83C1709.96 1125.39 1715.18 1120.17 1721.63 1120.17C1728.07 1120.17 1733.29 1125.39 1733.29 1131.83Z" fill="black"/>
<path d="M1733.29 1091C1733.29 1097.44 1728.07 1102.67 1721.63 1102.67C1715.18 1102.67 1709.96 1097.44 1709.96 1091C1709.96 1084.56 1715.18 1079.33 1721.63 1079.33C1728.07 1079.33 1733.29 1084.56 1733.29 1091Z" fill="black"/>
<path d="M1780 1050.17C1780 1056.61 1774.78 1061.83 1768.33 1061.83C1761.89 1061.83 1756.67 1056.61 1756.67 1050.17C1756.67 1043.72 1761.89 1038.5 1768.33 1038.5C1774.78 1038.5 1780 1043.72 1780 1050.17Z" fill="black"/>
<path d="M1780 1131.83C1780 1138.28 1774.78 1143.5 1768.33 1143.5C1761.89 1143.5 1756.67 1138.28 1756.67 1131.83C1756.67 1125.39 1761.89 1120.17 1768.33 1120.17C1774.78 1120.17 1780 1125.39 1780 1131.83Z" fill="black"/>
<path d="M1780 1091C1780 1097.44 1774.78 1102.67 1768.33 1102.67C1761.89 1102.67 1756.67 1097.44 1756.67 1091C1756.67 1084.56 1761.89 1079.33 1768.33 1079.33C1774.78 1079.33 1780 1084.56 1780 1091Z" fill="black"/>
</g>
</g>
</g>
<g id="Regular-M">
<g id="Outline  / Drag Outline_15">
<g id="Shape_15">
<path d="M1437.29 1050.17C1437.29 1056.61 1432.07 1061.83 1425.63 1061.83C1419.18 1061.83 1413.96 1056.61 1413.96 1050.17C1413.96 1043.72 1419.18 1038.5 1425.63 1038.5C1432.07 1038.5 1437.29 1043.72 1437.29 1050.17Z" fill="black"/>
<path d="M1437.29 1131.83C1437.29 1138.28 1432.07 1143.5 1425.63 1143.5C1419.18 1143.5 1413.96 1138.28 1413.96 1131.83C1413.96 1125.39 1419.18 1120.17 1425.63 1120.17C1432.07 1120.17 1437.29 1125.39 1437.29 1131.83Z" fill="black"/>
<path d="M1437.29 1091C1437.29 1097.44 1432.07 1102.67 1425.63 1102.67C1419.18 1102.67 1413.96 1097.44 1413.96 1091C1413.96 1084.56 1419.18 1079.33 1425.63 1079.33C1432.07 1079.33 1437.29 1084.56 1437.29 1091Z" fill="black"/>
<path d="M1484 1050.17C1484 1056.61 1478.78 1061.83 1472.33 1061.83C1465.89 1061.83 1460.67 1056.61 1460.67 1050.17C1460.67 1043.72 1465.89 1038.5 1472.33 1038.5C1478.78 1038.5 1484 1043.72 1484 1050.17Z" fill="black"/>
<path d="M1484 1131.83C1484 1138.28 1478.78 1143.5 1472.33 1143.5C1465.89 1143.5 1460.67 1138.28 1460.67 1131.83C1460.67 1125.39 1465.89 1120.17 1472.33 1120.17C1478.78 1120.17 1484 1125.39 1484 1131.83Z" fill="black"/>
<path d="M1484 1091C1484 1097.44 1478.78 1102.67 1472.33 1102.67C1465.89 1102.67 1460.67 1097.44 1460.67 1091C1460.67 1084.56 1465.89 1079.33 1472.33 1079.33C1478.78 1079.33 1484 1084.56 1484 1091Z" fill="black"/>
</g>
</g>
</g>
<g id="Light-M">
<g id="Outline  / Drag Outline_16">
<g id="Shape_16">
<path d="M1141.29 1050.17C1141.29 1056.61 1136.07 1061.83 1129.63 1061.83C1123.18 1061.83 1117.96 1056.61 1117.96 1050.17C1117.96 1043.72 1123.18 1038.5 1129.63 1038.5C1136.07 1038.5 1141.29 1043.72 1141.29 1050.17Z" fill="black"/>
<path d="M1141.29 1131.83C1141.29 1138.28 1136.07 1143.5 1129.63 1143.5C1123.18 1143.5 1117.96 1138.28 1117.96 1131.83C1117.96 1125.39 1123.18 1120.17 1129.63 1120.17C1136.07 1120.17 1141.29 1125.39 1141.29 1131.83Z" fill="black"/>
<path d="M1141.29 1091C1141.29 1097.44 1136.07 1102.67 1129.63 1102.67C1123.18 1102.67 1117.96 1097.44 1117.96 1091C1117.96 1084.56 1123.18 1079.33 1129.63 1079.33C1136.07 1079.33 1141.29 1084.56 1141.29 1091Z" fill="black"/>
<path d="M1188 1050.17C1188 1056.61 1182.78 1061.83 1176.33 1061.83C1169.89 1061.83 1164.67 1056.61 1164.67 1050.17C1164.67 1043.72 1169.89 1038.5 1176.33 1038.5C1182.78 1038.5 1188 1043.72 1188 1050.17Z" fill="black"/>
<path d="M1188 1131.83C1188 1138.28 1182.78 1143.5 1176.33 1143.5C1169.89 1143.5 1164.67 1138.28 1164.67 1131.83C1164.67 1125.39 1169.89 1120.17 1176.33 1120.17C1182.78 1120.17 1188 1125.39 1188 1131.83Z" fill="black"/>
<path d="M1188 1091C1188 1097.44 1182.78 1102.67 1176.33 1102.67C1169.89 1102.67 1164.67 1097.44 1164.67 1091C1164.67 1084.56 1169.89 1079.33 1176.33 1079.33C1182.78 1079.33 1188 1084.56 1188 1091Z" fill="black"/>
</g>
</g>
</g>
<g id="Thin-M">
<g id="Outline  / Drag Outline_17">
<g id="Shape_17">
<path d="M845.293 1050.17C845.293 1056.61 840.07 1061.83 833.627 1061.83C827.183 1061.83 821.96 1056.61 821.96 1050.17C821.96 1043.72 827.183 1038.5 833.627 1038.5C840.07 1038.5 845.293 1043.72 845.293 1050.17Z" fill="black"/>
<path d="M845.293 1131.83C845.293 1138.28 840.07 1143.5 833.627 1143.5C827.183 1143.5 821.96 1138.28 821.96 1131.83C821.96 1125.39 827.183 1120.17 833.627 1120.17C840.07 1120.17 845.293 1125.39 845.293 1131.83Z" fill="black"/>
<path d="M845.293 1091C845.293 1097.44 840.07 1102.67 833.627 1102.67C827.183 1102.67 821.96 1097.44 821.96 1091C821.96 1084.56 827.183 1079.33 833.627 1079.33C840.07 1079.33 845.293 1084.56 845.293 1091Z" fill="black"/>
<path d="M892 1050.17C892 1056.61 886.776 1061.83 880.333 1061.83C873.89 1061.83 868.667 1056.61 868.667 1050.17C868.667 1043.72 873.89 1038.5 880.333 1038.5C886.776 1038.5 892 1043.72 892 1050.17Z" fill="black"/>
<path d="M892 1131.83C892 1138.28 886.776 1143.5 880.333 1143.5C873.89 1143.5 868.666 1138.28 868.666 1131.83C868.666 1125.39 873.89 1120.17 880.333 1120.17C886.776 1120.17 892 1125.39 892 1131.83Z" fill="black"/>
<path d="M892 1091C892 1097.44 886.776 1102.67 880.333 1102.67C873.89 1102.67 868.667 1097.44 868.667 1091C868.667 1084.56 873.89 1079.33 880.333 1079.33C886.776 1079.33 892 1084.56 892 1091Z" fill="black"/>
</g>
</g>
</g>
<g id="Ultralight-M">
<g id="Outline  / Drag Outline_18">
<g id="Shape_18">
<path d="M549.293 1050.17C549.293 1056.61 544.07 1061.83 537.627 1061.83C531.183 1061.83 525.96 1056.61 525.96 1050.17C525.96 1043.72 531.183 1038.5 537.627 1038.5C544.07 1038.5 549.293 1043.72 549.293 1050.17Z" fill="black"/>
<path d="M549.293 1131.83C549.293 1138.28 544.07 1143.5 537.627 1143.5C531.183 1143.5 525.96 1138.28 525.96 1131.83C525.96 1125.39 531.183 1120.17 537.627 1120.17C544.07 1120.17 549.293 1125.39 549.293 1131.83Z" fill="black"/>
<path d="M549.293 1091C549.293 1097.44 544.07 1102.67 537.627 1102.67C531.183 1102.67 525.96 1097.44 525.96 1091C525.96 1084.56 531.183 1079.33 537.627 1079.33C544.07 1079.33 549.293 1084.56 549.293 1091Z" fill="black"/>
<path d="M596 1050.17C596 1056.61 590.776 1061.83 584.333 1061.83C577.89 1061.83 572.667 1056.61 572.667 1050.17C572.667 1043.72 577.89 1038.5 584.333 1038.5C590.776 1038.5 596 1043.72 596 1050.17Z" fill="black"/>
<path d="M596 1131.83C596 1138.28 590.776 1143.5 584.333 1143.5C577.89 1143.5 572.666 1138.28 572.666 1131.83C572.666 1125.39 577.89 1120.17 584.333 1120.17C590.776 1120.17 596 1125.39 596 1131.83Z" fill="black"/>
<path d="M596 1091C596 1097.44 590.776 1102.67 584.333 1102.67C577.89 1102.67 572.667 1097.44 572.667 1091C572.667 1084.56 577.89 1079.33 584.333 1079.33C590.776 1079.33 596 1084.56 596 1091Z" fill="black"/>
</g>
</g>
</g>
<g id="Black-S">
<g id="Outline  / Drag Outline_19">
<g id="Shape_19">
<path d="M2920.64 631.833C2920.64 636.436 2916.91 640.167 2912.31 640.167C2907.7 640.167 2903.97 636.436 2903.97 631.833C2903.97 627.231 2907.7 623.5 2912.31 623.5C2916.91 623.5 2920.64 627.231 2920.64 631.833Z" fill="black"/>
<path d="M2920.64 690.167C2920.64 694.769 2916.91 698.5 2912.31 698.5C2907.7 698.5 2903.97 694.769 2903.97 690.167C2903.97 685.564 2907.7 681.833 2912.31 681.833C2916.91 681.833 2920.64 685.564 2920.64 690.167Z" fill="black"/>
<path d="M2920.64 661C2920.64 665.602 2916.91 669.333 2912.31 669.333C2907.7 669.333 2903.97 665.602 2903.97 661C2903.97 656.398 2907.7 652.667 2912.31 652.667C2916.91 652.667 2920.64 656.398 2920.64 661Z" fill="black"/>
<path d="M2954 631.833C2954 636.436 2950.27 640.167 2945.67 640.167C2941.06 640.167 2937.33 636.436 2937.33 631.833C2937.33 627.231 2941.06 623.5 2945.67 623.5C2950.27 623.5 2954 627.231 2954 631.833Z" fill="black"/>
<path d="M2954 690.167C2954 694.769 2950.27 698.5 2945.67 698.5C2941.06 698.5 2937.33 694.769 2937.33 690.167C2937.33 685.564 2941.06 681.833 2945.67 681.833C2950.27 681.833 2954 685.564 2954 690.167Z" fill="black"/>
<path d="M2954 661C2954 665.602 2950.27 669.333 2945.67 669.333C2941.06 669.333 2937.33 665.602 2937.33 661C2937.33 656.398 2941.06 652.667 2945.67 652.667C2950.27 652.667 2954 656.398 2954 661Z" fill="black"/>
</g>
</g>
</g>
<g id="Heavy-S">
<g id="Outline  / Drag Outline_20">
<g id="Shape_20">
<path d="M2624.64 631.833C2624.64 636.436 2620.91 640.167 2616.31 640.167C2611.7 640.167 2607.97 636.436 2607.97 631.833C2607.97 627.231 2611.7 623.5 2616.31 623.5C2620.91 623.5 2624.64 627.231 2624.64 631.833Z" fill="black"/>
<path d="M2624.64 690.167C2624.64 694.769 2620.91 698.5 2616.31 698.5C2611.7 698.5 2607.97 694.769 2607.97 690.167C2607.97 685.564 2611.7 681.833 2616.31 681.833C2620.91 681.833 2624.64 685.564 2624.64 690.167Z" fill="black"/>
<path d="M2624.64 661C2624.64 665.602 2620.91 669.333 2616.31 669.333C2611.7 669.333 2607.97 665.602 2607.97 661C2607.97 656.398 2611.7 652.667 2616.31 652.667C2620.91 652.667 2624.64 656.398 2624.64 661Z" fill="black"/>
<path d="M2658 631.833C2658 636.436 2654.27 640.167 2649.67 640.167C2645.06 640.167 2641.33 636.436 2641.33 631.833C2641.33 627.231 2645.06 623.5 2649.67 623.5C2654.27 623.5 2658 627.231 2658 631.833Z" fill="black"/>
<path d="M2658 690.167C2658 694.769 2654.27 698.5 2649.67 698.5C2645.06 698.5 2641.33 694.769 2641.33 690.167C2641.33 685.564 2645.06 681.833 2649.67 681.833C2654.27 681.833 2658 685.564 2658 690.167Z" fill="black"/>
<path d="M2658 661C2658 665.602 2654.27 669.333 2649.67 669.333C2645.06 669.333 2641.33 665.602 2641.33 661C2641.33 656.398 2645.06 652.667 2649.67 652.667C2654.27 652.667 2658 656.398 2658 661Z" fill="black"/>
</g>
</g>
</g>
<g id="Bold-S">
<g id="Outline  / Drag Outline_21">
<g id="Shape_21">
<path d="M2328.64 631.833C2328.64 636.436 2324.91 640.167 2320.31 640.167C2315.7 640.167 2311.97 636.436 2311.97 631.833C2311.97 627.231 2315.7 623.5 2320.31 623.5C2324.91 623.5 2328.64 627.231 2328.64 631.833Z" fill="black"/>
<path d="M2328.64 690.167C2328.64 694.769 2324.91 698.5 2320.31 698.5C2315.7 698.5 2311.97 694.769 2311.97 690.167C2311.97 685.564 2315.7 681.833 2320.31 681.833C2324.91 681.833 2328.64 685.564 2328.64 690.167Z" fill="black"/>
<path d="M2328.64 661C2328.64 665.602 2324.91 669.333 2320.31 669.333C2315.7 669.333 2311.97 665.602 2311.97 661C2311.97 656.398 2315.7 652.667 2320.31 652.667C2324.91 652.667 2328.64 656.398 2328.64 661Z" fill="black"/>
<path d="M2362 631.833C2362 636.436 2358.27 640.167 2353.67 640.167C2349.06 640.167 2345.33 636.436 2345.33 631.833C2345.33 627.231 2349.06 623.5 2353.67 623.5C2358.27 623.5 2362 627.231 2362 631.833Z" fill="black"/>
<path d="M2362 690.167C2362 694.769 2358.27 698.5 2353.67 698.5C2349.06 698.5 2345.33 694.769 2345.33 690.167C2345.33 685.564 2349.06 681.833 2353.67 681.833C2358.27 681.833 2362 685.564 2362 690.167Z" fill="black"/>
<path d="M2362 661C2362 665.602 2358.27 669.333 2353.67 669.333C2349.06 669.333 2345.33 665.602 2345.33 661C2345.33 656.398 2349.06 652.667 2353.67 652.667C2358.27 652.667 2362 656.398 2362 661Z" fill="black"/>
</g>
</g>
</g>
<g id="Semibold-S">
<g id="Outline  / Drag Outline_22">
<g id="Shape_22">
<path d="M2032.64 631.833C2032.64 636.436 2028.91 640.167 2024.31 640.167C2019.7 640.167 2015.97 636.436 2015.97 631.833C2015.97 627.231 2019.7 623.5 2024.31 623.5C2028.91 623.5 2032.64 627.231 2032.64 631.833Z" fill="black"/>
<path d="M2032.64 690.167C2032.64 694.769 2028.91 698.5 2024.31 698.5C2019.7 698.5 2015.97 694.769 2015.97 690.167C2015.97 685.564 2019.7 681.833 2024.31 681.833C2028.91 681.833 2032.64 685.564 2032.64 690.167Z" fill="black"/>
<path d="M2032.64 661C2032.64 665.602 2028.91 669.333 2024.31 669.333C2019.7 669.333 2015.97 665.602 2015.97 661C2015.97 656.398 2019.7 652.667 2024.31 652.667C2028.91 652.667 2032.64 656.398 2032.64 661Z" fill="black"/>
<path d="M2066 631.833C2066 636.436 2062.27 640.167 2057.67 640.167C2053.06 640.167 2049.33 636.436 2049.33 631.833C2049.33 627.231 2053.06 623.5 2057.67 623.5C2062.27 623.5 2066 627.231 2066 631.833Z" fill="black"/>
<path d="M2066 690.167C2066 694.769 2062.27 698.5 2057.67 698.5C2053.06 698.5 2049.33 694.769 2049.33 690.167C2049.33 685.564 2053.06 681.833 2057.67 681.833C2062.27 681.833 2066 685.564 2066 690.167Z" fill="black"/>
<path d="M2066 661C2066 665.602 2062.27 669.333 2057.67 669.333C2053.06 669.333 2049.33 665.602 2049.33 661C2049.33 656.398 2053.06 652.667 2057.67 652.667C2062.27 652.667 2066 656.398 2066 661Z" fill="black"/>
</g>
</g>
</g>
<g id="Medium-S">
<g id="Outline  / Drag Outline_23">
<g id="Shape_23">
<path d="M1736.64 631.833C1736.64 636.436 1732.91 640.167 1728.31 640.167C1723.7 640.167 1719.97 636.436 1719.97 631.833C1719.97 627.231 1723.7 623.5 1728.31 623.5C1732.91 623.5 1736.64 627.231 1736.64 631.833Z" fill="black"/>
<path d="M1736.64 690.167C1736.64 694.769 1732.91 698.5 1728.31 698.5C1723.7 698.5 1719.97 694.769 1719.97 690.167C1719.97 685.564 1723.7 681.833 1728.31 681.833C1732.91 681.833 1736.64 685.564 1736.64 690.167Z" fill="black"/>
<path d="M1736.64 661C1736.64 665.602 1732.91 669.333 1728.31 669.333C1723.7 669.333 1719.97 665.602 1719.97 661C1719.97 656.398 1723.7 652.667 1728.31 652.667C1732.91 652.667 1736.64 656.398 1736.64 661Z" fill="black"/>
<path d="M1770 631.833C1770 636.436 1766.27 640.167 1761.67 640.167C1757.06 640.167 1753.33 636.436 1753.33 631.833C1753.33 627.231 1757.06 623.5 1761.67 623.5C1766.27 623.5 1770 627.231 1770 631.833Z" fill="black"/>
<path d="M1770 690.167C1770 694.769 1766.27 698.5 1761.67 698.5C1757.06 698.5 1753.33 694.769 1753.33 690.167C1753.33 685.564 1757.06 681.833 1761.67 681.833C1766.27 681.833 1770 685.564 1770 690.167Z" fill="black"/>
<path d="M1770 661C1770 665.602 1766.27 669.333 1761.67 669.333C1757.06 669.333 1753.33 665.602 1753.33 661C1753.33 656.398 1757.06 652.667 1761.67 652.667C1766.27 652.667 1770 656.398 1770 661Z" fill="black"/>
</g>
</g>
</g>
<g id="Regular-S">
<g id="Outline  / Drag Outline_24">
<g id="Shape_24">
<path d="M1440.64 631.833C1440.64 636.436 1436.91 640.167 1432.31 640.167C1427.7 640.167 1423.97 636.436 1423.97 631.833C1423.97 627.231 1427.7 623.5 1432.31 623.5C1436.91 623.5 1440.64 627.231 1440.64 631.833Z" fill="black"/>
<path d="M1440.64 690.167C1440.64 694.769 1436.91 698.5 1432.31 698.5C1427.7 698.5 1423.97 694.769 1423.97 690.167C1423.97 685.564 1427.7 681.833 1432.31 681.833C1436.91 681.833 1440.64 685.564 1440.64 690.167Z" fill="black"/>
<path d="M1440.64 661C1440.64 665.602 1436.91 669.333 1432.31 669.333C1427.7 669.333 1423.97 665.602 1423.97 661C1423.97 656.398 1427.7 652.667 1432.31 652.667C1436.91 652.667 1440.64 656.398 1440.64 661Z" fill="black"/>
<path d="M1474 631.833C1474 636.436 1470.27 640.167 1465.67 640.167C1461.06 640.167 1457.33 636.436 1457.33 631.833C1457.33 627.231 1461.06 623.5 1465.67 623.5C1470.27 623.5 1474 627.231 1474 631.833Z" fill="black"/>
<path d="M1474 690.167C1474 694.769 1470.27 698.5 1465.67 698.5C1461.06 698.5 1457.33 694.769 1457.33 690.167C1457.33 685.564 1461.06 681.833 1465.67 681.833C1470.27 681.833 1474 685.564 1474 690.167Z" fill="black"/>
<path d="M1474 661C1474 665.602 1470.27 669.333 1465.67 669.333C1461.06 669.333 1457.33 665.602 1457.33 661C1457.33 656.398 1461.06 652.667 1465.67 652.667C1470.27 652.667 1474 656.398 1474 661Z" fill="black"/>
</g>
</g>
</g>
<g id="Light-S">
<g id="Outline  / Drag Outline_25">
<g id="Shape_25">
<path d="M1144.64 631.833C1144.64 636.436 1140.91 640.167 1136.31 640.167C1131.7 640.167 1127.97 636.436 1127.97 631.833C1127.97 627.231 1131.7 623.5 1136.31 623.5C1140.91 623.5 1144.64 627.231 1144.64 631.833Z" fill="black"/>
<path d="M1144.64 690.167C1144.64 694.769 1140.91 698.5 1136.31 698.5C1131.7 698.5 1127.97 694.769 1127.97 690.167C1127.97 685.564 1131.7 681.833 1136.31 681.833C1140.91 681.833 1144.64 685.564 1144.64 690.167Z" fill="black"/>
<path d="M1144.64 661C1144.64 665.602 1140.91 669.333 1136.31 669.333C1131.7 669.333 1127.97 665.602 1127.97 661C1127.97 656.398 1131.7 652.667 1136.31 652.667C1140.91 652.667 1144.64 656.398 1144.64 661Z" fill="black"/>
<path d="M1178 631.833C1178 636.436 1174.27 640.167 1169.67 640.167C1165.06 640.167 1161.33 636.436 1161.33 631.833C1161.33 627.231 1165.06 623.5 1169.67 623.5C1174.27 623.5 1178 627.231 1178 631.833Z" fill="black"/>
<path d="M1178 690.167C1178 694.769 1174.27 698.5 1169.67 698.5C1165.06 698.5 1161.33 694.769 1161.33 690.167C1161.33 685.564 1165.06 681.833 1169.67 681.833C1174.27 681.833 1178 685.564 1178 690.167Z" fill="black"/>
<path d="M1178 661C1178 665.602 1174.27 669.333 1169.67 669.333C1165.06 669.333 1161.33 665.602 1161.33 661C1161.33 656.398 1165.06 652.667 1169.67 652.667C1174.27 652.667 1178 656.398 1178 661Z" fill="black"/>
</g>
</g>
</g>
<g id="Thin-S">
<g id="Outline  / Drag Outline_26">
<g id="Shape_26">
<path d="M848.638 631.833C848.638 636.436 844.907 640.167 840.305 640.167C835.703 640.167 831.972 636.436 831.972 631.833C831.972 627.231 835.703 623.5 840.305 623.5C844.907 623.5 848.638 627.231 848.638 631.833Z" fill="black"/>
<path d="M848.638 690.167C848.638 694.769 844.907 698.5 840.305 698.5C835.703 698.5 831.972 694.769 831.972 690.167C831.972 685.564 835.703 681.833 840.305 681.833C844.907 681.833 848.638 685.564 848.638 690.167Z" fill="black"/>
<path d="M848.638 661C848.638 665.602 844.907 669.333 840.305 669.333C835.703 669.333 831.972 665.602 831.972 661C831.972 656.398 835.703 652.667 840.305 652.667C844.907 652.667 848.638 656.398 848.638 661Z" fill="black"/>
<path d="M882 631.833C882 636.436 878.269 640.167 873.667 640.167C869.064 640.167 865.333 636.436 865.333 631.833C865.333 627.231 869.064 623.5 873.667 623.5C878.269 623.5 882 627.231 882 631.833Z" fill="black"/>
<path d="M882 690.167C882 694.769 878.269 698.5 873.667 698.5C869.064 698.5 865.333 694.769 865.333 690.167C865.333 685.564 869.064 681.833 873.667 681.833C878.269 681.833 882 685.564 882 690.167Z" fill="black"/>
<path d="M882 661C882 665.602 878.269 669.333 873.667 669.333C869.064 669.333 865.333 665.602 865.333 661C865.333 656.398 869.064 652.667 873.667 652.667C878.269 652.667 882 656.398 882 661Z" fill="black"/>
</g>
</g>
</g>
<g id="Ultralight-S">
<g id="Outline  / Drag Outline_27">
<g id="Shape_27">
<path d="M552.638 631.833C552.638 636.436 548.907 640.167 544.305 640.167C539.703 640.167 535.972 636.436 535.972 631.833C535.972 627.231 539.703 623.5 544.305 623.5C548.907 623.5 552.638 627.231 552.638 631.833Z" fill="black"/>
<path d="M552.638 690.167C552.638 694.769 548.907 698.5 544.305 698.5C539.703 698.5 535.972 694.769 535.972 690.167C535.972 685.564 539.703 681.833 544.305 681.833C548.907 681.833 552.638 685.564 552.638 690.167Z" fill="black"/>
<path d="M552.638 661C552.638 665.602 548.907 669.333 544.305 669.333C539.703 669.333 535.972 665.602 535.972 661C535.972 656.398 539.703 652.667 544.305 652.667C548.907 652.667 552.638 656.398 552.638 661Z" fill="black"/>
<path d="M586 631.833C586 636.436 582.269 640.167 577.667 640.167C573.064 640.167 569.333 636.436 569.333 631.833C569.333 627.231 573.064 623.5 577.667 623.5C582.269 623.5 586 627.231 586 631.833Z" fill="black"/>
<path d="M586 690.167C586 694.769 582.269 698.5 577.667 698.5C573.064 698.5 569.333 694.769 569.333 690.167C569.333 685.564 573.064 681.833 577.667 681.833C582.269 681.833 586 685.564 586 690.167Z" fill="black"/>
<path d="M586 661C586 665.602 582.269 669.333 577.667 669.333C573.064 669.333 569.333 665.602 569.333 661C569.333 656.398 573.064 652.667 577.667 652.667C582.269 652.667 586 656.398 586 661Z" fill="black"/>
</g>
</g>
</g>
</g>
</g>
<defs>
<clipPath id="clip0_0_1">
<rect width="3300" height="2200" fill="white"/>
</clipPath>
</defs>
</svg>
