<svg xmlns="http://www.w3.org/2000/svg" width="3300" height="2200" fill="none"><path fill="#E5E5E5" d="M0 0h3300v2200H0z"/><g id="Category / Solid / Maintenance" clip-path="url(#clip0_0_1)"><g id="Notes"><path id="artboard" fill="#fff" d="M3300 0H0v2200h3300V0Z"/><path id="Vector" stroke="#000" stroke-width=".5" d="M263 292h2773"/><text xml:space="preserve" id="Weight/Scale Variations" fill="#000" font-family="Roboto" font-size="12" letter-spacing="0em" style="white-space:pre"><tspan x="263" y="321.102">Weight/Scale Variations</tspan></text><text xml:space="preserve" id="Ultralight" fill="#000" font-family="Roboto" font-size="12" letter-spacing="0em" style="white-space:pre"><tspan x="535.211" y="321.102">Ultralight</tspan></text><text xml:space="preserve" id="Thin" fill="#000" font-family="Roboto" font-size="12" letter-spacing="0em" style="white-space:pre"><tspan x="844.422" y="321.102">Thin</tspan></text><text xml:space="preserve" id="Light" fill="#000" font-family="Roboto" font-size="12" letter-spacing="0em" style="white-space:pre"><tspan x="1139.63" y="321.102">Light</tspan></text><text xml:space="preserve" id="Regular" fill="#000" font-family="Roboto" font-size="12" letter-spacing="0em" style="white-space:pre"><tspan x="1429.34" y="321.102">Regular</tspan></text><text xml:space="preserve" id="Medium" fill="#000" font-family="Roboto" font-size="12" letter-spacing="0em" style="white-space:pre"><tspan x="1724.56" y="321.102">Medium</tspan></text><text xml:space="preserve" id="Semibold" fill="#000" font-family="Roboto" font-size="12" letter-spacing="0em" style="white-space:pre"><tspan x="2017.77" y="321.102">Semibold</tspan></text><text xml:space="preserve" id="Bold" fill="#000" font-family="Roboto" font-size="12" letter-spacing="0em" style="white-space:pre"><tspan x="2327.48" y="321.102">Bold</tspan></text><text xml:space="preserve" id="Heavy" fill="#000" font-family="Roboto" font-size="12" letter-spacing="0em" style="white-space:pre"><tspan x="2620.19" y="321.102">Heavy</tspan></text><text xml:space="preserve" id="Black" fill="#000" font-family="Roboto" font-size="12" letter-spacing="0em" style="white-space:pre"><tspan x="2918.4" y="321.102">Black</tspan></text><path id="Vector_2" stroke="#000" stroke-width=".5" d="M263 1903h2773"/><g id="Group"><path id="Vector_3" fill="#000" d="M272.248 1933.83c4.307 0 7.891-3.57 7.891-7.88 0-4.31-3.594-7.88-7.901-7.88-4.297 0-7.871 3.57-7.871 7.88 0 4.31 3.584 7.88 7.881 7.88Zm0-1.48c-3.545 0-6.377-2.84-6.377-6.4 0-3.55 2.822-6.4 6.367-6.4a6.388 6.388 0 0 1 6.406 6.4 6.361 6.361 0 0 1-6.396 6.4Zm-.019-2.78c.468 0 .742-.31.742-.83v-2.06h2.226c.498 0 .84-.25.84-.72 0-.48-.322-.74-.84-.74h-2.226v-2.23c0-.52-.274-.84-.742-.84-.469 0-.723.34-.723.84v2.23h-2.207c-.518 0-.85.26-.85.74 0 .47.352.72.85.72h2.207v2.06c0 .5.254.83.723.83Z"/></g><g id="Group_2"><path id="Vector_4" fill="#000" d="M293.215 1935.91c5.449 0 9.961-4.51 9.961-9.96 0-5.44-4.522-9.96-9.971-9.96-5.439 0-9.951 4.52-9.951 9.96 0 5.45 4.521 9.96 9.961 9.96Zm0-1.66a8.26 8.26 0 0 1-8.291-8.3c0-4.6 3.672-8.3 8.281-8.3a8.29 8.29 0 0 1 8.311 8.3 8.263 8.263 0 0 1-8.301 8.3Zm-.02-3.66c.518 0 .83-.36.83-.93v-2.89h3.057c.547 0 .928-.28.928-.8 0-.53-.362-.83-.928-.83h-3.057v-3.07c0-.57-.312-.93-.83-.93-.517 0-.81.38-.81.93v3.07h-3.047c-.567 0-.938.3-.938.83 0 .52.391.8.938.8h3.047v2.89c0 .55.293.93.81.93Z"/></g><g id="Group_3"><path id="Vector_5" fill="#000" d="M319.895 1938.67c6.962 0 12.724-5.75 12.724-12.71 0-6.97-5.771-12.72-12.734-12.72-6.953 0-12.705 5.75-12.705 12.72 0 6.96 5.761 12.71 12.715 12.71Zm0-1.81a10.874 10.874 0 0 1-10.889-10.9c0-6.04 4.844-10.9 10.879-10.9 6.045 0 10.898 4.86 10.908 10.9a10.87 10.87 0 0 1-10.898 10.9Zm-.02-4.93c.566 0 .918-.39.918-.99v-4.07h4.238c.586 0 1.006-.34 1.006-.89 0-.58-.39-.92-1.006-.92h-4.238v-4.25c0-.61-.352-1.01-.918-1.01-.566 0-.889.41-.889 1.01v4.25h-4.228c-.615 0-1.026.34-1.026.92 0 .55.43.89 1.026.89h4.228v4.07c0 .58.323.99.889.99Z"/></g><text xml:space="preserve" id="Design Variations" fill="#000" font-family="Roboto" font-size="12" letter-spacing="0em" style="white-space:pre"><tspan x="263" y="1952.1">Design Variations</tspan></text><text xml:space="preserve" id="Symbols are supported in up to nine weights and three scales." fill="#000" font-family="Roboto" font-size="12" letter-spacing="0em" style="white-space:pre"><tspan x="263" y="1970.1">Symbols are supported in up to nine weights and three scales.</tspan></text><text xml:space="preserve" id="For optimal layout with text and other symbols, vertically align" fill="#000" font-family="Roboto" font-size="12" letter-spacing="0em" style="white-space:pre"><tspan x="263" y="1988.1">For optimal layout with text and other symbols, vertically align</tspan></text><text xml:space="preserve" id="symbols with the adjacent text." fill="#000" font-family="Roboto" font-size="12" letter-spacing="0em" style="white-space:pre"><tspan x="263" y="2006.1">symbols with the adjacent text.</tspan></text><path id="Vector_6" fill="#00AEEF" d="M779 1919h-3v14h3v-14Z" opacity=".4"/><g id="Group_4"><path id="Vector_7" fill="#000" d="M789.527 1933h1.846l-5.195-14.09h-1.739l-5.195 14.09h1.846l1.416-4.04h5.605l1.416 4.04Zm-4.248-11.96h.059l2.256 6.43h-4.571l2.256-6.43Z"/></g><path id="Vector_8" fill="#00AEEF" d="M794.617 1919h-3v14h3v-14Z" opacity=".4"/><text xml:space="preserve" id="Margins" fill="#000" font-family="Roboto" font-size="12" letter-spacing="0em" style="white-space:pre"><tspan x="776" y="1952.1">Margins</tspan></text><text xml:space="preserve" id="Leading and trailing margins on the left and right side of each symbol" fill="#000" font-family="Roboto" font-size="12" letter-spacing="0em" style="white-space:pre"><tspan x="776" y="1970.1">Leading and trailing margins on the left and right side of each symbol</tspan></text><text xml:space="preserve" id="can be adjusted by modifying the width of the blue rectangles." fill="#000" font-family="Roboto" font-size="12" letter-spacing="0em" style="white-space:pre"><tspan x="776" y="1988.1">can be adjusted by modifying the width of the blue rectangles.</tspan></text><text xml:space="preserve" id="Modifications are automatically applied proportionally to all" fill="#000" font-family="Roboto" font-size="12" letter-spacing="0em" style="white-space:pre"><tspan x="776" y="2006.1">Modifications are automatically applied proportionally to all</tspan></text><text xml:space="preserve" id="scales and weights." fill="#000" font-family="Roboto" font-size="12" letter-spacing="0em" style="white-space:pre"><tspan x="776" y="2024.1">scales and weights.</tspan></text><g id="Group_5"><path id="Vector_9" fill="#000" d="m1291.83 1936.11 1.54 1.55c.85.83 1.82.76 2.69-.2l10.21-11.12c.43.29.83.28 1.29.18l1.05-.21.69.69-.05.52c-.06.53.1.95.6 1.45l.81.81c.51.5 1.16.53 1.64.05l3.25-3.25c.48-.48.46-1.13-.05-1.64l-.82-.82c-.49-.5-.91-.67-1.44-.59l-.53.05-.65-.66.28-1.14c.15-.57 0-1.04-.63-1.64l-2.41-2.39c-3.54-3.53-8.07-3.42-11.19-.29-.42.43-.47 1.02-.19 1.45.23.37.71.59 1.35.43 1.52-.38 3.03-.27 4.51.74l-.62 1.58c-.23.59-.22 1.07.02 1.5l-11.16 10.28c-.94.87-1.05 1.81-.19 2.67Zm7.84-18.26c2.67-1.99 5.98-1.68 8.38.73l2.63 2.61c.23.24.26.42.2.72l-.38 1.56 1.58 1.57.96-.09c.29-.03.37-.01.6.22l.62.62-2.75 2.75-.63-.62c-.22-.22-.24-.32-.21-.6l.09-.96-1.57-1.56-1.62.31c-.28.06-.43.06-.66-.19l-2.18-2.17c-.22-.24-.25-.38-.12-.7l.94-2.27c-1.6-1.54-3.71-2.39-5.75-1.73-.09.03-.16.01-.19-.03-.02-.05-.02-.1.06-.17Zm-6.57 17.56c-.49-.5-.31-.8.02-1.1l10.96-10.12 1.23 1.23-10.16 10.93c-.3.33-.68.43-1.08.03l-.97-.97Z"/></g><text xml:space="preserve" id="Exporting" fill="#000" font-family="Roboto" font-size="12" letter-spacing="0em" style="white-space:pre"><tspan x="1289" y="1952.1">Exporting</tspan></text><text xml:space="preserve" id="Symbols should be outlined when exporting to ensure the" fill="#000" font-family="Roboto" font-size="12" letter-spacing="0em" style="white-space:pre"><tspan x="1289" y="1970.1">Symbols should be outlined when exporting to ensure the</tspan></text><text xml:space="preserve" id="design is preserved when submitting to Xcode." fill="#000" font-family="Roboto" font-size="12" letter-spacing="0em" style="white-space:pre"><tspan x="1289" y="1988.1">design is preserved when submitting to Xcode.</tspan></text><text xml:space="preserve" id="template-version" fill="#000" font-family="Roboto" font-size="12" letter-spacing="0em" style="white-space:pre"><tspan x="2958" y="1932.1">Template v.1.0</tspan></text><text xml:space="preserve" id="Generated from pencil.circle" fill="#000" font-family="Roboto" font-size="12" letter-spacing="0em" style="white-space:pre"><tspan x="2885" y="1950.1">Generated from pencil.circle</tspan></text><text xml:space="preserve" id="Typeset at 100 points" fill="#000" font-family="Roboto" font-size="12" letter-spacing="0em" style="white-space:pre"><tspan x="2921" y="1968.1">Typeset at 100 points</tspan></text><text xml:space="preserve" id="Small" fill="#000" font-family="Roboto" font-size="12" letter-spacing="0em" style="white-space:pre"><tspan x="263" y="725.102">Small</tspan></text><text xml:space="preserve" id="Medium_2" fill="#000" font-family="Roboto" font-size="12" letter-spacing="0em" style="white-space:pre"><tspan x="263" y="1155.1">Medium</tspan></text><text xml:space="preserve" id="Large" fill="#000" font-family="Roboto" font-size="12" letter-spacing="0em" style="white-space:pre"><tspan x="263" y="1585.1">Large</tspan></text></g><g id="Guides"><g id="H-reference"><path id="Vector_10" fill="#27AAE1" d="M393.932 695.998h2.734l-27.1-70.459h-2.49l-27.099 70.459h2.685l9.278-24.463h32.763l9.229 24.463Zm-25.733-67.09h.244l15.381 40.381h-31.006l15.381-40.381Z"/></g><path id="Baseline-S" stroke="#27AAE1" stroke-width=".577" d="M263 696h2773"/><path id="Capline-S" stroke="#27AAE1" stroke-width=".577" d="M263 626h2773"/><g id="H-reference_2"><path id="Vector_11" fill="#27AAE1" d="M393.932 1126h2.734l-27.1-70.46h-2.49L339.977 1126h2.685l9.278-24.46h32.763l9.229 24.46Zm-25.733-67.09h.244l15.381 40.38h-31.006l15.381-40.38Z"/></g><path id="Baseline-M" stroke="#27AAE1" stroke-width=".577" d="M263 1126h2773"/><path id="Capline-M" stroke="#27AAE1" stroke-width=".577" d="M263 1056h2773"/><g id="H-reference_3"><path id="Vector_12" fill="#27AAE1" d="M393.932 1556h2.734l-27.1-70.46h-2.49L339.977 1556h2.685l9.278-24.46h32.763l9.229 24.46Zm-25.733-67.09h.244l15.381 40.38h-31.006l15.381-40.38Z"/></g><g id="Group 1" stroke="#27AAE1" stroke-width=".577"><path id="Baseline-L" d="M263 1556h2773"/><path id="Capline-L" d="M263 1486h2773"/></g><path id="left-margin" fill="#00AEEF" d="M1385.04 1030.79h-8.74v119.33h8.74v-119.33Z" opacity=".4"/><path id="right-margin" fill="#00AEEF" d="M1522.39 1030.79h-8.74v119.33h8.74v-119.33Z" opacity=".4"/></g><g id="Symbols"><g id="Black-L"><g id="Solid / Maintenance Solid"><g id="Shape" fill="#000"><path d="m2979.56 1552.29-31.42 29.49a27.286 27.286 0 0 1-18 7.41l2.48-5.73c4.78-11 1.85-23.82-7.24-31.65l-16.79-14.47c-11.56-9.95-29.02-8.54-38.83 3.14l-2.32 2.76-11.29-10.08c-11.28-10.06-12.27-27.37-2.2-38.65l26.03-29.19c10.07-11.28 27.37-12.27 38.65-2.21l3.58 3.19-21.96 19.15c-9.21 8.02-9.59 22.2-.84 30.71 7.8 7.58 20.11 7.91 28.3.75l5.24-4.58a4.881 4.881 0 0 1 6.65.22l39.96 39.74Z"/><path d="m2986.88 1545.82-40.41-40.19c-5.44-5.41-14.15-5.69-19.93-.64l-5.24 4.58c-4.37 3.81-10.93 3.64-15.09-.4-4.67-4.54-4.46-12.09.44-16.37l35.47-30.93c10.85-8.86 26.81-7.64 36.19 2.87l26.03 29.19c9.39 10.52 8.78 26.57-1.36 36.36l-16.1 15.53ZM2920.19 1587.61c-3.23-1.16-6.3-2.94-9.01-5.36l-36.46-32.52 2.51-2.98c6.31-7.52 17.55-8.43 24.99-2.02l16.8 14.47c5.85 5.04 7.74 13.3 4.66 20.38l-3.49 8.03Z"/></g></g></g><g id="Heavy-L"><g id="Solid / Maintenance Solid_2"><g id="Shape_2" fill="#000"><path d="m2683.56 1552.29-31.42 29.49a27.286 27.286 0 0 1-18 7.41l2.48-5.73c4.78-11 1.85-23.82-7.24-31.65l-16.79-14.47c-11.56-9.95-29.02-8.54-38.83 3.14l-2.32 2.76-11.29-10.08c-11.28-10.06-12.27-27.37-2.2-38.65l26.03-29.19c10.07-11.28 27.37-12.27 38.65-2.21l3.58 3.19-21.96 19.15c-9.21 8.02-9.59 22.2-.84 30.71 7.8 7.58 20.11 7.91 28.3.75l5.24-4.58a4.881 4.881 0 0 1 6.65.22l39.96 39.74Z"/><path d="m2690.88 1545.82-40.41-40.19c-5.44-5.41-14.15-5.69-19.93-.64l-5.24 4.58c-4.37 3.81-10.93 3.64-15.09-.4-4.67-4.54-4.46-12.09.44-16.37l35.47-30.93c10.85-8.86 26.81-7.64 36.19 2.87l26.03 29.19c9.39 10.52 8.78 26.57-1.36 36.36l-16.1 15.53ZM2624.19 1587.61c-3.23-1.16-6.3-2.94-9.01-5.36l-36.46-32.52 2.51-2.98c6.31-7.52 17.55-8.43 24.99-2.02l16.8 14.47c5.85 5.04 7.74 13.3 4.66 20.38l-3.49 8.03Z"/></g></g></g><g id="Bold-L"><g id="Solid / Maintenance Solid_3"><g id="Shape_3" fill="#000"><path d="m2387.56 1552.29-31.42 29.49a27.286 27.286 0 0 1-18 7.41l2.48-5.73c4.78-11 1.85-23.82-7.24-31.65l-16.79-14.47c-11.56-9.95-29.02-8.54-38.83 3.14l-2.32 2.76-11.29-10.08c-11.28-10.06-12.27-27.37-2.2-38.65l26.03-29.19c10.07-11.28 27.37-12.27 38.65-2.21l3.58 3.19-21.96 19.15c-9.21 8.02-9.59 22.2-.84 30.71 7.8 7.58 20.11 7.91 28.3.75l5.24-4.58a4.881 4.881 0 0 1 6.65.22l39.96 39.74Z"/><path d="m2394.88 1545.82-40.41-40.19c-5.44-5.41-14.15-5.69-19.93-.64l-5.24 4.58c-4.37 3.81-10.93 3.64-15.09-.4-4.67-4.54-4.46-12.09.44-16.37l35.47-30.93c10.85-8.86 26.81-7.64 36.19 2.87l26.03 29.19c9.39 10.52 8.78 26.57-1.36 36.36l-16.1 15.53ZM2328.19 1587.61c-3.23-1.16-6.3-2.94-9.01-5.36l-36.46-32.52 2.51-2.98c6.31-7.52 17.55-8.43 24.99-2.02l16.8 14.47c5.85 5.04 7.74 13.3 4.66 20.38l-3.49 8.03Z"/></g></g></g><g id="Semibold-L"><g id="Solid / Maintenance Solid_4"><g id="Shape_4" fill="#000"><path d="m2091.56 1552.29-31.42 29.49a27.286 27.286 0 0 1-18 7.41l2.48-5.73c4.78-11 1.85-23.82-7.24-31.65l-16.79-14.47c-11.56-9.95-29.02-8.54-38.83 3.14l-2.32 2.76-11.29-10.08c-11.28-10.06-12.27-27.37-2.2-38.65l26.03-29.19c10.07-11.28 27.37-12.27 38.65-2.21l3.58 3.19-21.96 19.15c-9.21 8.02-9.59 22.2-.84 30.71 7.8 7.58 20.11 7.91 28.3.75l5.24-4.58a4.881 4.881 0 0 1 6.65.22l39.96 39.74Z"/><path d="m2098.88 1545.82-40.41-40.19c-5.44-5.41-14.15-5.69-19.93-.64l-5.24 4.58c-4.37 3.81-10.93 3.64-15.09-.4-4.67-4.54-4.46-12.09.44-16.37l35.47-30.93c10.85-8.86 26.81-7.64 36.19 2.87l26.03 29.19c9.39 10.52 8.78 26.57-1.36 36.36l-16.1 15.53ZM2032.19 1587.61c-3.23-1.16-6.3-2.94-9.01-5.36l-36.46-32.52 2.51-2.98c6.31-7.52 17.55-8.43 24.99-2.02l16.8 14.47c5.85 5.04 7.74 13.3 4.66 20.38l-3.49 8.03Z"/></g></g></g><g id="Medium-L"><g id="Solid / Maintenance Solid_5"><g id="Shape_5" fill="#000"><path d="m1795.56 1552.29-31.42 29.49a27.286 27.286 0 0 1-18 7.41l2.48-5.73c4.78-11 1.85-23.82-7.24-31.65l-16.79-14.47c-11.56-9.95-29.02-8.54-38.83 3.14l-2.32 2.76-11.29-10.08c-11.28-10.06-12.27-27.37-2.2-38.65l26.03-29.19c10.07-11.28 27.37-12.27 38.65-2.21l3.58 3.19-21.96 19.15c-9.21 8.02-9.59 22.2-.84 30.71 7.8 7.58 20.11 7.91 28.3.75l5.24-4.58a4.881 4.881 0 0 1 6.65.22l39.96 39.74Z"/><path d="m1802.88 1545.82-40.41-40.19c-5.44-5.41-14.15-5.69-19.93-.64l-5.24 4.58c-4.37 3.81-10.93 3.64-15.09-.4-4.67-4.54-4.46-12.09.44-16.37l35.47-30.93c10.85-8.86 26.81-7.64 36.19 2.87l26.03 29.19c9.39 10.52 8.78 26.57-1.36 36.36l-16.1 15.53ZM1736.19 1587.61c-3.23-1.16-6.3-2.94-9.01-5.36l-36.46-32.52 2.51-2.98c6.31-7.52 17.55-8.43 24.99-2.02l16.8 14.47c5.85 5.04 7.74 13.3 4.66 20.38l-3.49 8.03Z"/></g></g></g><g id="Regular-L"><g id="Solid / Maintenance Solid_6"><g id="Shape_6" fill="#000"><path d="m1499.56 1552.29-31.42 29.49a27.286 27.286 0 0 1-18 7.41l2.48-5.73c4.78-11 1.85-23.82-7.24-31.65l-16.79-14.47c-11.56-9.95-29.02-8.54-38.83 3.14l-2.32 2.76-11.29-10.08c-11.28-10.06-12.27-27.37-2.2-38.65l26.03-29.19c10.07-11.28 27.37-12.27 38.65-2.21l3.58 3.19-21.96 19.15c-9.21 8.02-9.59 22.2-.84 30.71 7.8 7.58 20.11 7.91 28.3.75l5.24-4.58a4.881 4.881 0 0 1 6.65.22l39.96 39.74Z"/><path d="m1506.88 1545.82-40.41-40.19c-5.44-5.41-14.15-5.69-19.93-.64l-5.24 4.58c-4.37 3.81-10.93 3.64-15.09-.4-4.67-4.54-4.46-12.09.44-16.37l35.47-30.93c10.85-8.86 26.81-7.64 36.19 2.87l26.03 29.19c9.39 10.52 8.78 26.57-1.36 36.36l-16.1 15.53ZM1440.19 1587.61c-3.23-1.16-6.3-2.94-9.01-5.36l-36.46-32.52 2.51-2.98c6.31-7.52 17.55-8.43 24.99-2.02l16.8 14.47c5.85 5.04 7.74 13.3 4.66 20.38l-3.49 8.03Z"/></g></g></g><g id="Light-L"><g id="Solid / Maintenance Solid_7"><g id="Shape_7" fill="#000"><path d="m1203.56 1552.29-31.42 29.49a27.286 27.286 0 0 1-18 7.41l2.48-5.73c4.78-11 1.85-23.82-7.24-31.65l-16.79-14.47c-11.56-9.95-29.02-8.54-38.83 3.14l-2.32 2.76-11.29-10.08c-11.28-10.06-12.27-27.37-2.2-38.65l26.03-29.19c10.07-11.28 27.37-12.27 38.65-2.21l3.58 3.19-21.96 19.15c-9.21 8.02-9.59 22.2-.84 30.71 7.8 7.58 20.11 7.91 28.3.75l5.24-4.58a4.881 4.881 0 0 1 6.65.22l39.96 39.74Z"/><path d="m1210.88 1545.82-40.41-40.19c-5.44-5.41-14.15-5.69-19.93-.64l-5.24 4.58c-4.37 3.81-10.93 3.64-15.09-.4-4.67-4.54-4.46-12.09.44-16.37l35.47-30.93c10.85-8.86 26.81-7.64 36.19 2.87l26.03 29.19c9.39 10.52 8.78 26.57-1.36 36.36l-16.1 15.53ZM1144.19 1587.61c-3.23-1.16-6.3-2.94-9.01-5.36l-36.46-32.52 2.51-2.98c6.31-7.52 17.55-8.43 24.99-2.02l16.8 14.47c5.85 5.04 7.74 13.3 4.66 20.38l-3.49 8.03Z"/></g></g></g><g id="Thin-L"><g id="Solid / Maintenance Solid_8"><g id="Shape_8" fill="#000"><path d="m907.556 1552.29-31.411 29.49a27.299 27.299 0 0 1-18.01 7.41l2.49-5.73a27.373 27.373 0 0 0-7.242-31.65l-16.797-14.47c-11.554-9.95-29.014-8.54-38.824 3.14l-2.32 2.76-11.292-10.08c-11.282-10.06-12.269-27.37-2.205-38.65l26.04-29.19c10.062-11.28 27.361-12.27 38.644-2.21l3.58 3.19-21.962 19.15c-9.203 8.02-9.588 22.2-.833 30.71 7.798 7.58 20.108 7.91 28.297.75l5.24-4.58a4.875 4.875 0 0 1 6.645.22l39.96 39.74Z"/><path d="m914.879 1545.82-40.407-40.19c-5.446-5.41-14.153-5.69-19.937-.64l-5.24 4.58c-4.365 3.81-10.928 3.64-15.084-.4-4.667-4.54-4.462-12.09.444-16.37l35.465-30.93c10.847-8.86 26.811-7.64 36.188 2.87l26.033 29.19c9.384 10.52 8.781 26.57-1.365 36.36l-16.097 15.53ZM848.192 1587.61a27.326 27.326 0 0 1-9.009-5.36l-36.462-32.52 2.506-2.98c6.316-7.52 17.557-8.43 24.996-2.02l16.797 14.47a17.63 17.63 0 0 1 4.663 20.38l-3.491 8.03Z"/></g></g></g><g id="Ultralight-L"><g id="Solid / Maintenance Solid_9"><g id="Shape_9" fill="#000"><path d="m611.556 1552.29-31.411 29.49a27.299 27.299 0 0 1-18.01 7.41l2.49-5.73a27.373 27.373 0 0 0-7.242-31.65l-16.797-14.47c-11.554-9.95-29.014-8.54-38.824 3.14l-2.32 2.76-11.292-10.08c-11.282-10.06-12.269-27.37-2.205-38.65l26.04-29.19c10.062-11.28 27.361-12.27 38.644-2.21l3.58 3.19-21.962 19.15c-9.203 8.02-9.588 22.2-.833 30.71 7.798 7.58 20.108 7.91 28.297.75l5.24-4.58a4.875 4.875 0 0 1 6.645.22l39.96 39.74Z"/><path d="m618.879 1545.82-40.407-40.19c-5.446-5.41-14.153-5.69-19.937-.64l-5.24 4.58c-4.365 3.81-10.928 3.64-15.084-.4-4.667-4.54-4.462-12.09.444-16.37l35.465-30.93c10.847-8.86 26.811-7.64 36.188 2.87l26.033 29.19c9.384 10.52 8.781 26.57-1.365 36.36l-16.097 15.53ZM552.192 1587.61a27.326 27.326 0 0 1-9.009-5.36l-36.462-32.52 2.506-2.98c6.316-7.52 17.557-8.43 24.996-2.02l16.797 14.47a17.63 17.63 0 0 1 4.663 20.38l-3.491 8.03Z"/></g></g></g><g id="Black-M"><g id="Solid / Maintenance Solid_10"><g id="Shape_10" fill="#000"><path d="m2968.32 1115.34-24.43 22.94c-3.94 3.7-8.95 5.62-14.01 5.76l1.94-4.46c3.72-8.55 1.43-18.53-5.63-24.62l-13.07-11.25c-8.98-7.74-22.56-6.64-30.19 2.44l-1.81 2.14-8.78-7.83c-8.78-7.83-9.54-21.29-1.72-30.06l20.26-22.71c7.82-8.77 21.28-9.54 30.05-1.72l2.79 2.49-17.08 14.89c-7.16 6.24-7.46 17.27-.65 23.89 6.06 5.89 15.64 6.15 22.01.58l4.07-3.56a3.788 3.788 0 0 1 5.17.17l31.08 30.91Z"/><path d="m2974.02 1110.3-31.43-31.25c-4.24-4.21-11.01-4.43-15.51-.5l-4.07 3.56a8.655 8.655 0 0 1-11.73-.31c-3.63-3.53-3.48-9.41.34-12.74l27.58-24.05c8.44-6.89 20.86-5.95 28.15 2.23l20.25 22.7c7.3 8.19 6.83 20.67-1.06 28.29l-12.52 12.07ZM2922.15 1142.81c-2.52-.9-4.9-2.29-7.01-4.17l-28.36-25.3 1.95-2.31c4.91-5.85 13.66-6.56 19.44-1.57l13.07 11.25a13.695 13.695 0 0 1 3.62 15.85l-2.71 6.25Z"/></g></g></g><g id="Heavy-M"><g id="Solid / Maintenance Solid_11"><g id="Shape_11" fill="#000"><path d="m2672.32 1115.34-24.43 22.94c-3.94 3.7-8.95 5.62-14.01 5.76l1.94-4.46c3.72-8.55 1.43-18.53-5.63-24.62l-13.07-11.25c-8.98-7.74-22.56-6.64-30.19 2.44l-1.81 2.14-8.78-7.83c-8.78-7.83-9.54-21.29-1.72-30.06l20.26-22.71c7.82-8.77 21.28-9.54 30.05-1.72l2.79 2.49-17.08 14.89c-7.16 6.24-7.46 17.27-.65 23.89 6.06 5.89 15.64 6.15 22.01.58l4.07-3.56a3.788 3.788 0 0 1 5.17.17l31.08 30.91Z"/><path d="m2678.02 1110.3-31.43-31.25c-4.24-4.21-11.01-4.43-15.51-.5l-4.07 3.56a8.655 8.655 0 0 1-11.73-.31c-3.63-3.53-3.48-9.41.34-12.74l27.58-24.05c8.44-6.89 20.86-5.95 28.15 2.23l20.25 22.7c7.3 8.19 6.83 20.67-1.06 28.29l-12.52 12.07ZM2626.15 1142.81c-2.52-.9-4.9-2.29-7.01-4.17l-28.36-25.3 1.95-2.31c4.91-5.85 13.66-6.56 19.44-1.57l13.07 11.25a13.695 13.695 0 0 1 3.62 15.85l-2.71 6.25Z"/></g></g></g><g id="Bold-M"><g id="Solid / Maintenance Solid_12"><g id="Shape_12" fill="#000"><path d="m2376.32 1115.34-24.43 22.94c-3.94 3.7-8.95 5.62-14.01 5.76l1.94-4.46c3.72-8.55 1.43-18.53-5.63-24.62l-13.07-11.25c-8.98-7.74-22.56-6.64-30.19 2.44l-1.81 2.14-8.78-7.83c-8.78-7.83-9.54-21.29-1.72-30.06l20.26-22.71c7.82-8.77 21.28-9.54 30.05-1.72l2.79 2.49-17.08 14.89c-7.16 6.24-7.46 17.27-.65 23.89 6.06 5.89 15.64 6.15 22.01.58l4.07-3.56a3.788 3.788 0 0 1 5.17.17l31.08 30.91Z"/><path d="m2382.02 1110.3-31.43-31.25c-4.24-4.21-11.01-4.43-15.51-.5l-4.07 3.56a8.655 8.655 0 0 1-11.73-.31c-3.63-3.53-3.48-9.41.34-12.74l27.58-24.05c8.44-6.89 20.86-5.95 28.15 2.23l20.25 22.7c7.3 8.19 6.83 20.67-1.06 28.29l-12.52 12.07ZM2330.15 1142.81c-2.52-.9-4.9-2.29-7.01-4.17l-28.36-25.3 1.95-2.31c4.91-5.85 13.66-6.56 19.44-1.57l13.07 11.25a13.695 13.695 0 0 1 3.62 15.85l-2.71 6.25Z"/></g></g></g><g id="Semibold-M"><g id="Solid / Maintenance Solid_13"><g id="Shape_13" fill="#000"><path d="m2080.32 1115.34-24.43 22.94c-3.94 3.7-8.95 5.62-14.01 5.76l1.94-4.46c3.72-8.55 1.43-18.53-5.63-24.62l-13.07-11.25c-8.98-7.74-22.56-6.64-30.19 2.44l-1.81 2.14-8.78-7.83c-8.78-7.83-9.54-21.29-1.72-30.06l20.26-22.71c7.82-8.77 21.28-9.54 30.05-1.72l2.79 2.49-17.08 14.89c-7.16 6.24-7.46 17.27-.65 23.89 6.06 5.89 15.64 6.15 22.01.58l4.07-3.56a3.788 3.788 0 0 1 5.17.17l31.08 30.91Z"/><path d="m2086.02 1110.3-31.43-31.25c-4.24-4.21-11.01-4.43-15.51-.5l-4.07 3.56a8.655 8.655 0 0 1-11.73-.31c-3.63-3.53-3.48-9.41.34-12.74l27.58-24.05c8.44-6.89 20.86-5.95 28.15 2.23l20.25 22.7c7.3 8.19 6.83 20.67-1.06 28.29l-12.52 12.07ZM2034.15 1142.81c-2.52-.9-4.9-2.29-7.01-4.17l-28.36-25.3 1.95-2.31c4.91-5.85 13.66-6.56 19.44-1.57l13.07 11.25a13.695 13.695 0 0 1 3.62 15.85l-2.71 6.25Z"/></g></g></g><g id="Medium-M"><g id="Solid / Maintenance Solid_14"><g id="Shape_14" fill="#000"><path d="m1784.32 1115.34-24.43 22.94c-3.94 3.7-8.95 5.62-14.01 5.76l1.94-4.46c3.72-8.55 1.43-18.53-5.63-24.62l-13.07-11.25c-8.98-7.74-22.56-6.64-30.19 2.44l-1.81 2.14-8.78-7.83c-8.78-7.83-9.54-21.29-1.72-30.06l20.26-22.71c7.82-8.77 21.28-9.54 30.05-1.72l2.79 2.49-17.08 14.89c-7.16 6.24-7.46 17.27-.65 23.89 6.06 5.89 15.64 6.15 22.01.58l4.07-3.56a3.788 3.788 0 0 1 5.17.17l31.08 30.91Z"/><path d="m1790.02 1110.3-31.43-31.25c-4.24-4.21-11.01-4.43-15.51-.5l-4.07 3.56a8.655 8.655 0 0 1-11.73-.31c-3.63-3.53-3.48-9.41.34-12.74l27.58-24.05c8.44-6.89 20.86-5.95 28.15 2.23l20.25 22.7c7.3 8.19 6.83 20.67-1.06 28.29l-12.52 12.07ZM1738.15 1142.81c-2.52-.9-4.9-2.29-7.01-4.17l-28.36-25.3 1.95-2.31c4.91-5.85 13.66-6.56 19.44-1.57l13.07 11.25a13.695 13.695 0 0 1 3.62 15.85l-2.71 6.25Z"/></g></g></g><g id="Regular-M"><g id="Solid / Maintenance Solid_15"><g id="Shape_15" fill="#000"><path d="m1488.32 1115.34-24.43 22.94c-3.94 3.7-8.95 5.62-14.01 5.76l1.94-4.46c3.72-8.55 1.43-18.53-5.63-24.62l-13.07-11.25c-8.98-7.74-22.56-6.64-30.19 2.44l-1.81 2.14-8.78-7.83c-8.78-7.83-9.54-21.29-1.72-30.06l20.26-22.71c7.82-8.77 21.28-9.54 30.05-1.72l2.79 2.49-17.08 14.89c-7.16 6.24-7.46 17.27-.65 23.89 6.06 5.89 15.64 6.15 22.01.58l4.07-3.56a3.788 3.788 0 0 1 5.17.17l31.08 30.91Z"/><path d="m1494.02 1110.3-31.43-31.25c-4.24-4.21-11.01-4.43-15.51-.5l-4.07 3.56a8.655 8.655 0 0 1-11.73-.31c-3.63-3.53-3.48-9.41.34-12.74l27.58-24.05c8.44-6.89 20.86-5.95 28.15 2.23l20.25 22.7c7.3 8.19 6.83 20.67-1.06 28.29l-12.52 12.07ZM1442.15 1142.81c-2.52-.9-4.9-2.29-7.01-4.17l-28.36-25.3 1.95-2.31c4.91-5.85 13.66-6.56 19.44-1.57l13.07 11.25a13.695 13.695 0 0 1 3.62 15.85l-2.71 6.25Z"/></g></g></g><g id="Light-M"><g id="Solid / Maintenance Solid_16"><g id="Shape_16" fill="#000"><path d="m1192.32 1115.34-24.43 22.94c-3.94 3.7-8.95 5.62-14.01 5.76l1.94-4.46c3.72-8.55 1.43-18.53-5.63-24.62l-13.07-11.25c-8.98-7.74-22.56-6.64-30.19 2.44l-1.81 2.14-8.78-7.83c-8.78-7.83-9.54-21.29-1.72-30.06l20.26-22.71c7.82-8.77 21.28-9.54 30.05-1.72l2.79 2.49-17.08 14.89c-7.16 6.24-7.46 17.27-.65 23.89 6.06 5.89 15.64 6.15 22.01.58l4.07-3.56a3.788 3.788 0 0 1 5.17.17l31.08 30.91Z"/><path d="m1198.02 1110.3-31.43-31.25c-4.24-4.21-11.01-4.43-15.51-.5l-4.07 3.56a8.655 8.655 0 0 1-11.73-.31c-3.63-3.53-3.48-9.41.34-12.74l27.58-24.05c8.44-6.89 20.86-5.95 28.15 2.23l20.25 22.7c7.3 8.19 6.83 20.67-1.06 28.29l-12.52 12.07ZM1146.15 1142.81c-2.52-.9-4.9-2.29-7.01-4.17l-28.36-25.3 1.95-2.31c4.91-5.85 13.66-6.56 19.44-1.57l13.07 11.25a13.695 13.695 0 0 1 3.62 15.85l-2.71 6.25Z"/></g></g></g><g id="Thin-M"><g id="Solid / Maintenance Solid_17"><g id="Shape_17" fill="#000"><path d="m896.321 1115.34-24.431 22.94a21.274 21.274 0 0 1-14.007 5.76l1.936-4.46a21.298 21.298 0 0 0-5.632-24.62l-13.064-11.25c-8.987-7.74-22.567-6.64-30.197 2.44l-1.804 2.14-8.783-7.83c-8.775-7.83-9.543-21.29-1.715-30.06l20.253-22.71c7.826-8.77 21.281-9.54 30.056-1.72l2.785 2.49-17.081 14.89c-7.158 6.24-7.457 17.27-.648 23.89 6.065 5.89 15.639 6.15 22.008.58l4.076-3.56a3.786 3.786 0 0 1 5.169.17l31.079 30.91Z"/><path d="m902.017 1110.3-31.428-31.25a11.378 11.378 0 0 0-15.506-.5l-4.075 3.56a8.659 8.659 0 0 1-11.733-.31c-3.63-3.53-3.471-9.41.345-12.74l27.584-24.05c8.437-6.89 20.854-5.95 28.147 2.23l20.248 22.7c7.298 8.19 6.83 20.67-1.062 28.29l-12.52 12.07ZM850.149 1142.81c-2.516-.9-4.9-2.29-7.007-4.17l-28.359-25.3 1.949-2.31c4.912-5.85 13.656-6.56 19.442-1.57l13.064 11.25a13.71 13.71 0 0 1 3.626 15.85l-2.715 6.25Z"/></g></g></g><g id="Ultralight-M"><g id="Solid / Maintenance Solid_18"><g id="Shape_18" fill="#000"><path d="m600.321 1115.34-24.431 22.94a21.274 21.274 0 0 1-14.007 5.76l1.936-4.46a21.298 21.298 0 0 0-5.632-24.62l-13.064-11.25c-8.987-7.74-22.567-6.64-30.197 2.44l-1.804 2.14-8.783-7.83c-8.775-7.83-9.543-21.29-1.715-30.06l20.253-22.71c7.826-8.77 21.281-9.54 30.056-1.72l2.785 2.49-17.081 14.89c-7.158 6.24-7.457 17.27-.648 23.89 6.065 5.89 15.639 6.15 22.008.58l4.076-3.56a3.786 3.786 0 0 1 5.169.17l31.079 30.91Z"/><path d="m606.017 1110.3-31.428-31.25a11.378 11.378 0 0 0-15.506-.5l-4.075 3.56a8.659 8.659 0 0 1-11.733-.31c-3.63-3.53-3.471-9.41.345-12.74l27.584-24.05c8.437-6.89 20.854-5.95 28.147 2.23l20.248 22.7c7.298 8.19 6.83 20.67-1.062 28.29l-12.52 12.07ZM554.149 1142.81c-2.516-.9-4.9-2.29-7.007-4.17l-28.359-25.3 1.949-2.31c4.912-5.85 13.656-6.56 19.442-1.57l13.064 11.25a13.71 13.71 0 0 1 3.626 15.85l-2.715 6.25Z"/></g></g></g><g id="Black-S"><g id="Solid / Maintenance Solid_19"><g id="Shape_19" fill="#000"><path d="m2957.09 678.382-17.45 16.386a15.186 15.186 0 0 1-10.01 4.116l1.38-3.183a15.196 15.196 0 0 0-4.02-17.584l-9.33-8.037c-6.42-5.529-16.12-4.747-21.57 1.74l-1.29 1.533-6.27-5.596c-6.27-5.591-6.82-15.205-1.23-21.473l14.47-16.217c5.59-6.266 15.2-6.816 21.47-1.229l1.99 1.773-12.2 10.638c-5.12 4.458-5.33 12.333-.47 17.062a11.6 11.6 0 0 0 15.72.418l2.91-2.544a2.718 2.718 0 0 1 3.7.119l22.2 22.078Z"/><path d="m2961.16 674.789-22.45-22.326a8.132 8.132 0 0 0-11.08-.357l-2.91 2.544a6.184 6.184 0 1 1-8.13-9.318l19.7-17.179c6.02-4.923 14.89-4.25 20.1 1.591l14.47 16.216c5.21 5.845 4.87 14.764-.76 20.202l-8.94 8.627ZM2924.11 698.005a15.21 15.21 0 0 1-5.01-2.975l-20.25-18.069 1.39-1.657c3.51-4.176 9.75-4.68 13.88-1.12l9.34 8.037a9.79 9.79 0 0 1 2.59 11.321l-1.94 4.463Z"/></g></g></g><g id="Heavy-S"><g id="Solid / Maintenance Solid_20"><g id="Shape_20" fill="#000"><path d="m2661.09 678.382-17.45 16.386a15.186 15.186 0 0 1-10.01 4.116l1.38-3.183a15.196 15.196 0 0 0-4.02-17.584l-9.33-8.037c-6.42-5.529-16.12-4.747-21.57 1.74l-1.29 1.533-6.27-5.596c-6.27-5.591-6.82-15.205-1.23-21.473l14.47-16.217c5.59-6.266 15.2-6.816 21.47-1.229l1.99 1.773-12.2 10.638c-5.12 4.458-5.33 12.333-.47 17.062a11.6 11.6 0 0 0 15.72.418l2.91-2.544a2.718 2.718 0 0 1 3.7.119l22.2 22.078Z"/><path d="m2665.16 674.789-22.45-22.326a8.132 8.132 0 0 0-11.08-.357l-2.91 2.544a6.184 6.184 0 1 1-8.13-9.318l19.7-17.179c6.02-4.923 14.89-4.25 20.1 1.591l14.47 16.216c5.21 5.845 4.87 14.764-.76 20.202l-8.94 8.627ZM2628.11 698.005a15.21 15.21 0 0 1-5.01-2.975l-20.25-18.069 1.39-1.657c3.51-4.176 9.75-4.68 13.88-1.12l9.34 8.037a9.79 9.79 0 0 1 2.59 11.321l-1.94 4.463Z"/></g></g></g><g id="Bold-S"><g id="Solid / Maintenance Solid_21"><g id="Shape_21" fill="#000"><path d="m2365.09 678.382-17.45 16.386a15.186 15.186 0 0 1-10.01 4.116l1.38-3.183a15.196 15.196 0 0 0-4.02-17.584l-9.33-8.037c-6.42-5.529-16.12-4.747-21.57 1.74l-1.29 1.533-6.27-5.596c-6.27-5.591-6.82-15.205-1.23-21.473l14.47-16.217c5.59-6.266 15.2-6.816 21.47-1.229l1.99 1.773-12.2 10.638c-5.12 4.458-5.33 12.333-.47 17.062a11.6 11.6 0 0 0 15.72.418l2.91-2.544a2.718 2.718 0 0 1 3.7.119l22.2 22.078Z"/><path d="m2369.16 674.789-22.45-22.326a8.132 8.132 0 0 0-11.08-.357l-2.91 2.544a6.184 6.184 0 1 1-8.13-9.318l19.7-17.179c6.02-4.923 14.89-4.25 20.1 1.591l14.47 16.216c5.21 5.845 4.87 14.764-.76 20.202l-8.94 8.627ZM2332.11 698.005a15.21 15.21 0 0 1-5.01-2.975l-20.25-18.069 1.39-1.657c3.51-4.176 9.75-4.68 13.88-1.12l9.34 8.037a9.79 9.79 0 0 1 2.59 11.321l-1.94 4.463Z"/></g></g></g><g id="Semibold-S"><g id="Solid / Maintenance Solid_22"><g id="Shape_22" fill="#000"><path d="m2069.09 678.382-17.45 16.386a15.186 15.186 0 0 1-10.01 4.116l1.38-3.183a15.196 15.196 0 0 0-4.02-17.584l-9.33-8.037c-6.42-5.529-16.12-4.747-21.57 1.74l-1.29 1.533-6.27-5.596c-6.27-5.591-6.82-15.205-1.23-21.473l14.47-16.217c5.59-6.266 15.2-6.816 21.47-1.229l1.99 1.773-12.2 10.638c-5.12 4.458-5.33 12.333-.47 17.062a11.6 11.6 0 0 0 15.72.418l2.91-2.544a2.718 2.718 0 0 1 3.7.119l22.2 22.078Z"/><path d="m2073.16 674.789-22.45-22.326a8.132 8.132 0 0 0-11.08-.357l-2.91 2.544a6.184 6.184 0 1 1-8.13-9.318l19.7-17.179c6.02-4.923 14.89-4.25 20.1 1.591l14.47 16.216c5.21 5.845 4.87 14.764-.76 20.202l-8.94 8.627ZM2036.11 698.005a15.21 15.21 0 0 1-5.01-2.975l-20.25-18.069 1.39-1.657c3.51-4.176 9.75-4.68 13.88-1.12l9.34 8.037a9.79 9.79 0 0 1 2.59 11.321l-1.94 4.463Z"/></g></g></g><g id="Medium-S"><g id="Solid / Maintenance Solid_23"><g id="Shape_23" fill="#000"><path d="m1773.09 678.382-17.45 16.386a15.186 15.186 0 0 1-10.01 4.116l1.38-3.183a15.196 15.196 0 0 0-4.02-17.584l-9.33-8.037c-6.42-5.529-16.12-4.747-21.57 1.74l-1.29 1.533-6.27-5.596c-6.27-5.591-6.82-15.205-1.23-21.473l14.47-16.217c5.59-6.266 15.2-6.816 21.47-1.229l1.99 1.773-12.2 10.638c-5.12 4.458-5.33 12.333-.47 17.062a11.6 11.6 0 0 0 15.72.418l2.91-2.544a2.718 2.718 0 0 1 3.7.119l22.2 22.078Z"/><path d="m1777.16 674.789-22.45-22.326a8.132 8.132 0 0 0-11.08-.357l-2.91 2.544a6.184 6.184 0 1 1-8.13-9.318l19.7-17.179c6.02-4.923 14.89-4.25 20.1 1.591l14.47 16.216c5.21 5.845 4.87 14.764-.76 20.202l-8.94 8.627ZM1740.11 698.005a15.21 15.21 0 0 1-5.01-2.975l-20.25-18.069 1.39-1.657c3.51-4.176 9.75-4.68 13.88-1.12l9.34 8.037a9.79 9.79 0 0 1 2.59 11.321l-1.94 4.463Z"/></g></g></g><g id="Regular-S"><g id="Solid / Maintenance Solid_24"><g id="Shape_24" fill="#000"><path d="m1477.09 678.382-17.45 16.386a15.186 15.186 0 0 1-10.01 4.116l1.38-3.183a15.196 15.196 0 0 0-4.02-17.584l-9.33-8.037c-6.42-5.529-16.12-4.747-21.57 1.74l-1.29 1.533-6.27-5.596c-6.27-5.591-6.82-15.205-1.23-21.473l14.47-16.217c5.59-6.266 15.2-6.816 21.47-1.229l1.99 1.773-12.2 10.638c-5.12 4.458-5.33 12.333-.47 17.062a11.6 11.6 0 0 0 15.72.418l2.91-2.544a2.718 2.718 0 0 1 3.7.119l22.2 22.078Z"/><path d="m1481.16 674.789-22.45-22.326a8.132 8.132 0 0 0-11.08-.357l-2.91 2.544a6.184 6.184 0 1 1-8.13-9.318l19.7-17.179c6.02-4.923 14.89-4.25 20.1 1.591l14.47 16.216c5.21 5.845 4.87 14.764-.76 20.202l-8.94 8.627ZM1444.11 698.005a15.21 15.21 0 0 1-5.01-2.975l-20.25-18.069 1.39-1.657c3.51-4.176 9.75-4.68 13.88-1.12l9.34 8.037a9.79 9.79 0 0 1 2.59 11.321l-1.94 4.463Z"/></g></g></g><g id="Light-S"><g id="Solid / Maintenance Solid_25"><g id="Shape_25" fill="#000"><path d="m1181.09 678.382-17.45 16.386a15.186 15.186 0 0 1-10.01 4.116l1.38-3.183a15.196 15.196 0 0 0-4.02-17.584l-9.33-8.037c-6.42-5.529-16.12-4.747-21.57 1.74l-1.29 1.533-6.27-5.596c-6.27-5.591-6.82-15.205-1.23-21.473l14.47-16.217c5.59-6.266 15.2-6.816 21.47-1.229l1.99 1.773-12.2 10.638c-5.12 4.458-5.33 12.333-.47 17.062a11.6 11.6 0 0 0 15.72.418l2.91-2.544a2.718 2.718 0 0 1 3.7.119l22.2 22.078Z"/><path d="m1185.16 674.789-22.45-22.326a8.132 8.132 0 0 0-11.08-.357l-2.91 2.544a6.184 6.184 0 1 1-8.13-9.318l19.7-17.179c6.02-4.923 14.89-4.25 20.1 1.591l14.47 16.216c5.21 5.845 4.87 14.764-.76 20.202l-8.94 8.627ZM1148.11 698.005a15.21 15.21 0 0 1-5.01-2.975l-20.25-18.069 1.39-1.657c3.51-4.176 9.75-4.68 13.88-1.12l9.34 8.037a9.79 9.79 0 0 1 2.59 11.321l-1.94 4.463Z"/></g></g></g><g id="Thin-S"><g id="Solid / Maintenance Solid_26"><g id="Shape_26" fill="#000"><path d="m885.087 678.382-17.451 16.386a15.17 15.17 0 0 1-10.005 4.116l1.383-3.183a15.208 15.208 0 0 0-4.024-17.584l-9.331-8.037c-6.419-5.529-16.119-4.747-21.569 1.74l-1.289 1.533-6.273-5.596c-6.268-5.591-6.816-15.205-1.225-21.473l14.466-16.217c5.59-6.266 15.201-6.816 21.469-1.229l1.989 1.773-12.201 10.638c-5.113 4.458-5.326 12.333-.463 17.062a11.602 11.602 0 0 0 15.721.418l2.911-2.544a2.708 2.708 0 0 1 3.692.119l22.2 22.078Z"/><path d="m889.155 674.789-22.448-22.326a8.127 8.127 0 0 0-11.076-.357l-2.911 2.544a6.186 6.186 0 1 1-8.134-9.318l19.703-17.179c6.026-4.923 14.895-4.25 20.104 1.591l14.463 16.216c5.214 5.845 4.879 14.764-.758 20.202l-8.943 8.627ZM852.107 698.005a15.15 15.15 0 0 1-5.005-2.975l-20.257-18.069 1.392-1.657c3.509-4.176 9.754-4.68 13.887-1.12l9.332 8.037a9.793 9.793 0 0 1 2.59 11.321l-1.939 4.463Z"/></g></g></g><g id="Ultralight-S"><g id="Solid / Maintenance Solid_27"><g id="Shape_27" fill="#000"><path d="m589.087 678.382-17.451 16.386a15.17 15.17 0 0 1-10.005 4.116l1.383-3.183a15.208 15.208 0 0 0-4.024-17.584l-9.331-8.037c-6.419-5.529-16.119-4.747-21.569 1.74l-1.289 1.533-6.273-5.596c-6.268-5.591-6.816-15.205-1.225-21.473l14.466-16.217c5.59-6.266 15.201-6.816 21.469-1.229l1.989 1.773-12.201 10.638c-5.113 4.458-5.326 12.333-.463 17.062a11.602 11.602 0 0 0 15.721.418l2.911-2.544a2.708 2.708 0 0 1 3.692.119l22.2 22.078Z"/><path d="m593.155 674.789-22.448-22.326a8.127 8.127 0 0 0-11.076-.357l-2.911 2.544a6.186 6.186 0 1 1-8.134-9.318l19.703-17.179c6.026-4.923 14.895-4.25 20.104 1.591l14.463 16.216c5.214 5.845 4.879 14.764-.758 20.202l-8.943 8.627ZM556.107 698.005a15.15 15.15 0 0 1-5.005-2.975l-20.257-18.069 1.392-1.657c3.509-4.176 9.754-4.68 13.887-1.12l9.332 8.037a9.793 9.793 0 0 1 2.59 11.321l-1.939 4.463Z"/></g></g></g></g></g><defs><clipPath id="clip0_0_1"><path fill="#fff" d="M0 0h3300v2200H0z"/></clipPath></defs></svg>