<svg xmlns="http://www.w3.org/2000/svg" width="3300" height="2200" fill="none"><path fill="#E5E5E5" d="M0 0h3300v2200H0z"/><g id="System / Outline / Print" clip-path="url(#clip0_805_27002)"><g id="Notes"><path id="artboard" fill="#fff" d="M3300 0H0v2200h3300V0Z"/><path id="Vector" stroke="#000" stroke-width=".5" d="M263 292h2773"/><text xml:space="preserve" id="Weight/Scale Variations" fill="#000" font-family="Roboto" font-size="12" letter-spacing="0em" style="white-space:pre"><tspan x="263" y="321.102">Weight/Scale Variations</tspan></text><text xml:space="preserve" id="Ultralight" fill="#000" font-family="Roboto" font-size="12" letter-spacing="0em" style="white-space:pre"><tspan x="535.211" y="321.102">Ultralight</tspan></text><text xml:space="preserve" id="Thin" fill="#000" font-family="Roboto" font-size="12" letter-spacing="0em" style="white-space:pre"><tspan x="844.422" y="321.102">Thin</tspan></text><text xml:space="preserve" id="Light" fill="#000" font-family="Roboto" font-size="12" letter-spacing="0em" style="white-space:pre"><tspan x="1139.63" y="321.102">Light</tspan></text><text xml:space="preserve" id="Regular" fill="#000" font-family="Roboto" font-size="12" letter-spacing="0em" style="white-space:pre"><tspan x="1429.34" y="321.102">Regular</tspan></text><text xml:space="preserve" id="Medium" fill="#000" font-family="Roboto" font-size="12" letter-spacing="0em" style="white-space:pre"><tspan x="1724.56" y="321.102">Medium</tspan></text><text xml:space="preserve" id="Semibold" fill="#000" font-family="Roboto" font-size="12" letter-spacing="0em" style="white-space:pre"><tspan x="2017.77" y="321.102">Semibold</tspan></text><text xml:space="preserve" id="Bold" fill="#000" font-family="Roboto" font-size="12" letter-spacing="0em" style="white-space:pre"><tspan x="2327.48" y="321.102">Bold</tspan></text><text xml:space="preserve" id="Heavy" fill="#000" font-family="Roboto" font-size="12" letter-spacing="0em" style="white-space:pre"><tspan x="2620.19" y="321.102">Heavy</tspan></text><text xml:space="preserve" id="Black" fill="#000" font-family="Roboto" font-size="12" letter-spacing="0em" style="white-space:pre"><tspan x="2918.4" y="321.102">Black</tspan></text><path id="Vector_2" stroke="#000" stroke-width=".5" d="M263 1903h2773"/><g id="Group"><path id="Vector_3" fill="#000" d="M272.248 1933.83c4.307 0 7.891-3.57 7.891-7.88 0-4.31-3.594-7.88-7.901-7.88-4.297 0-7.871 3.57-7.871 7.88 0 4.31 3.584 7.88 7.881 7.88Zm0-1.48c-3.545 0-6.377-2.84-6.377-6.4 0-3.55 2.822-6.4 6.367-6.4a6.388 6.388 0 0 1 6.406 6.4 6.361 6.361 0 0 1-6.396 6.4Zm-.019-2.78c.468 0 .742-.31.742-.83v-2.06h2.226c.498 0 .84-.25.84-.72 0-.48-.322-.74-.84-.74h-2.226v-2.23c0-.52-.274-.84-.742-.84-.469 0-.723.34-.723.84v2.23h-2.207c-.518 0-.85.26-.85.74 0 .47.352.72.85.72h2.207v2.06c0 .5.254.83.723.83Z"/></g><g id="Group_2"><path id="Vector_4" fill="#000" d="M293.219 1935.91c5.449 0 9.961-4.51 9.961-9.96 0-5.44-4.522-9.96-9.971-9.96-5.439 0-9.951 4.52-9.951 9.96 0 5.45 4.521 9.96 9.961 9.96Zm0-1.66a8.26 8.26 0 0 1-8.291-8.3c0-4.6 3.672-8.3 8.281-8.3a8.29 8.29 0 0 1 8.311 8.3 8.263 8.263 0 0 1-8.301 8.3Zm-.02-3.66c.518 0 .83-.36.83-.93v-2.89h3.057c.547 0 .928-.28.928-.8 0-.53-.362-.83-.928-.83h-3.057v-3.07c0-.57-.312-.93-.83-.93-.517 0-.81.38-.81.93v3.07h-3.047c-.567 0-.938.3-.938.83 0 .52.391.8.938.8h3.047v2.89c0 .55.293.93.81.93Z"/></g><g id="Group_3"><path id="Vector_5" fill="#000" d="M319.895 1938.67c6.962 0 12.724-5.75 12.724-12.71 0-6.97-5.771-12.72-12.734-12.72-6.953 0-12.705 5.75-12.705 12.72 0 6.96 5.761 12.71 12.715 12.71Zm0-1.81a10.874 10.874 0 0 1-10.889-10.9c0-6.04 4.844-10.9 10.879-10.9 6.045 0 10.898 4.86 10.908 10.9a10.87 10.87 0 0 1-10.898 10.9Zm-.02-4.93c.566 0 .918-.39.918-.99v-4.07h4.238c.586 0 1.006-.34 1.006-.89 0-.58-.39-.92-1.006-.92h-4.238v-4.25c0-.61-.352-1.01-.918-1.01-.566 0-.889.41-.889 1.01v4.25h-4.228c-.615 0-1.026.34-1.026.92 0 .55.43.89 1.026.89h4.228v4.07c0 .58.323.99.889.99Z"/></g><text xml:space="preserve" id="Design Variations" fill="#000" font-family="Roboto" font-size="12" letter-spacing="0em" style="white-space:pre"><tspan x="263" y="1952.1">Design Variations</tspan></text><text xml:space="preserve" id="Symbols are supported in up to nine weights and three scales." fill="#000" font-family="Roboto" font-size="12" letter-spacing="0em" style="white-space:pre"><tspan x="263" y="1970.1">Symbols are supported in up to nine weights and three scales.</tspan></text><text xml:space="preserve" id="For optimal layout with text and other symbols, vertically align" fill="#000" font-family="Roboto" font-size="12" letter-spacing="0em" style="white-space:pre"><tspan x="263" y="1988.1">For optimal layout with text and other symbols, vertically align</tspan></text><text xml:space="preserve" id="symbols with the adjacent text." fill="#000" font-family="Roboto" font-size="12" letter-spacing="0em" style="white-space:pre"><tspan x="263" y="2006.1">symbols with the adjacent text.</tspan></text><path id="Vector_6" fill="#00AEEF" d="M779 1919h-3v14h3v-14Z" opacity=".4"/><g id="Group_4"><path id="Vector_7" fill="#000" d="M789.525 1933h1.846l-5.195-14.09h-1.739l-5.195 14.09h1.846l1.416-4.04h5.605l1.416 4.04Zm-4.248-11.96h.059l2.256 6.43h-4.571l2.256-6.43Z"/></g><path id="Vector_8" fill="#00AEEF" d="M794.617 1919h-3v14h3v-14Z" opacity=".4"/><text xml:space="preserve" id="Margins" fill="#000" font-family="Roboto" font-size="12" letter-spacing="0em" style="white-space:pre"><tspan x="776" y="1952.1">Margins</tspan></text><text xml:space="preserve" id="Leading and trailing margins on the left and right side of each symbol" fill="#000" font-family="Roboto" font-size="12" letter-spacing="0em" style="white-space:pre"><tspan x="776" y="1970.1">Leading and trailing margins on the left and right side of each symbol</tspan></text><text xml:space="preserve" id="can be adjusted by modifying the width of the blue rectangles." fill="#000" font-family="Roboto" font-size="12" letter-spacing="0em" style="white-space:pre"><tspan x="776" y="1988.1">can be adjusted by modifying the width of the blue rectangles.</tspan></text><text xml:space="preserve" id="Modifications are automatically applied proportionally to all" fill="#000" font-family="Roboto" font-size="12" letter-spacing="0em" style="white-space:pre"><tspan x="776" y="2006.1">Modifications are automatically applied proportionally to all</tspan></text><text xml:space="preserve" id="scales and weights." fill="#000" font-family="Roboto" font-size="12" letter-spacing="0em" style="white-space:pre"><tspan x="776" y="2024.1">scales and weights.</tspan></text><g id="Group_5"><path id="Vector_9" fill="#000" d="m1291.83 1936.11 1.54 1.55c.85.83 1.82.76 2.69-.2l10.21-11.12c.43.29.83.28 1.29.18l1.05-.21.69.69-.05.52c-.06.53.1.95.6 1.45l.81.81c.51.5 1.16.53 1.64.05l3.25-3.25c.48-.48.46-1.13-.05-1.64l-.82-.82c-.49-.5-.91-.67-1.44-.59l-.53.05-.65-.66.28-1.14c.15-.57 0-1.04-.63-1.64l-2.41-2.39c-3.54-3.53-8.07-3.42-11.19-.29-.42.43-.47 1.02-.19 1.45.23.37.71.59 1.35.43 1.52-.38 3.03-.27 4.51.74l-.62 1.58c-.23.59-.22 1.07.02 1.5l-11.16 10.28c-.94.87-1.05 1.81-.19 2.67Zm7.84-18.26c2.67-1.99 5.98-1.68 8.38.73l2.63 2.61c.23.24.26.42.2.72l-.38 1.56 1.58 1.57.96-.09c.29-.03.37-.01.6.22l.62.62-2.75 2.75-.63-.62c-.22-.22-.24-.32-.21-.6l.09-.96-1.57-1.56-1.62.31c-.28.06-.43.06-.66-.19l-2.18-2.17c-.22-.24-.25-.38-.12-.7l.94-2.27c-1.6-1.54-3.71-2.39-5.75-1.73-.09.03-.16.01-.19-.03-.02-.05-.02-.1.06-.17Zm-6.57 17.56c-.49-.5-.31-.8.02-1.1l10.96-10.12 1.23 1.23-10.16 10.93c-.3.33-.68.43-1.08.03l-.97-.97Z"/></g><text xml:space="preserve" id="Exporting" fill="#000" font-family="Roboto" font-size="12" letter-spacing="0em" style="white-space:pre"><tspan x="1289" y="1952.1">Exporting</tspan></text><text xml:space="preserve" id="Symbols should be outlined when exporting to ensure the" fill="#000" font-family="Roboto" font-size="12" letter-spacing="0em" style="white-space:pre"><tspan x="1289" y="1970.1">Symbols should be outlined when exporting to ensure the</tspan></text><text xml:space="preserve" id="design is preserved when submitting to Xcode." fill="#000" font-family="Roboto" font-size="12" letter-spacing="0em" style="white-space:pre"><tspan x="1289" y="1988.1">design is preserved when submitting to Xcode.</tspan></text><text xml:space="preserve" id="template-version" fill="#000" font-family="Roboto" font-size="12" letter-spacing="0em" style="white-space:pre"><tspan x="2958" y="1932.1">Template v.1.0</tspan></text><text xml:space="preserve" id="Generated from pencil.circle" fill="#000" font-family="Roboto" font-size="12" letter-spacing="0em" style="white-space:pre"><tspan x="2885" y="1950.1">Generated from pencil.circle</tspan></text><text xml:space="preserve" id="Typeset at 100 points" fill="#000" font-family="Roboto" font-size="12" letter-spacing="0em" style="white-space:pre"><tspan x="2921" y="1968.1">Typeset at 100 points</tspan></text><text xml:space="preserve" id="Small" fill="#000" font-family="Roboto" font-size="12" letter-spacing="0em" style="white-space:pre"><tspan x="263" y="725.102">Small</tspan></text><text xml:space="preserve" id="Medium_2" fill="#000" font-family="Roboto" font-size="12" letter-spacing="0em" style="white-space:pre"><tspan x="263" y="1155.1">Medium</tspan></text><text xml:space="preserve" id="Large" fill="#000" font-family="Roboto" font-size="12" letter-spacing="0em" style="white-space:pre"><tspan x="263" y="1585.1">Large</tspan></text></g><g id="Guides"><g id="H-reference"><path id="Vector_10" fill="#27AAE1" d="M393.932 695.998h2.734l-27.1-70.459h-2.49l-27.099 70.459h2.685l9.278-24.463h32.763l9.229 24.463Zm-25.733-67.09h.244l15.381 40.381h-31.006l15.381-40.381Z"/></g><path id="Baseline-S" stroke="#27AAE1" stroke-width=".577" d="M263 696h2773"/><path id="Capline-S" stroke="#27AAE1" stroke-width=".577" d="M263 626h2773"/><g id="H-reference_2"><path id="Vector_11" fill="#27AAE1" d="M393.932 1126h2.734l-27.1-70.46h-2.49L339.977 1126h2.685l9.278-24.46h32.763l9.229 24.46Zm-25.733-67.09h.244l15.381 40.38h-31.006l15.381-40.38Z"/></g><path id="Baseline-M" stroke="#27AAE1" stroke-width=".577" d="M263 1126h2773"/><path id="Capline-M" stroke="#27AAE1" stroke-width=".577" d="M263 1056h2773"/><g id="H-reference_3"><path id="Vector_12" fill="#27AAE1" d="M393.932 1556h2.734l-27.1-70.46h-2.49L339.977 1556h2.685l9.278-24.46h32.763l9.229 24.46Zm-25.733-67.09h.244l15.381 40.38h-31.006l15.381-40.38Z"/></g><g id="Group 1" stroke="#27AAE1" stroke-width=".577"><path id="Baseline-L" d="M263 1556h2773"/><path id="Capline-L" d="M263 1486h2773"/></g><path id="left-margin" fill="#00AEEF" d="M1396.04 1030.79h-8.74v119.33h8.74v-119.33Z" opacity=".4"/><path id="right-margin" fill="#00AEEF" d="M1510.39 1030.79h-8.74v119.33h8.74v-119.33Z" opacity=".4"/></g><g id="Symbols"><g id="Black-L"><g id="Outline / Print Outline"><g id="Shape" fill="#000"><path d="M2904.99 1453.54c-8.07 0-14.62 6.55-14.62 14.63v8.24a4.87 4.87 0 0 0 4.87 4.87c2.69 0 4.88-2.18 4.88-4.87v-8.24c0-2.69 2.18-4.88 4.87-4.88h48c2.69 0 4.88 2.19 4.88 4.88v8.24a4.87 4.87 0 0 0 4.87 4.87c2.69 0 4.88-2.18 4.88-4.87v-8.24c0-8.08-6.55-14.63-14.63-14.63h-48ZM2979.21 1517.11c0 4.14-3.36 7.5-7.5 7.5-4.14 0-7.5-3.36-7.5-7.5 0-4.15 3.36-7.5 7.5-7.5 4.14 0 7.5 3.35 7.5 7.5Z"/><path fill-rule="evenodd" d="M2966.49 1578.75c0 5.38-4.36 9.75-9.75 9.75h-55.5c-5.38 0-9.75-4.37-9.75-9.75V1566h-7.5c-12.42 0-22.5-10.07-22.5-22.5v-30c0-12.43 10.08-22.5 22.5-22.5h90c12.43 0 22.5 10.07 22.5 22.5v30c0 12.43-10.07 22.5-22.5 22.5h-7.5v12.75Zm-9.75 0h-55.5v-40.5h55.5v40.5Zm9.75-22.5h7.5c7.04 0 12.75-5.71 12.75-12.75v-30c0-7.04-5.71-12.75-12.75-12.75h-90c-7.04 0-12.75 5.71-12.75 12.75v30c0 7.04 5.71 12.75 12.75 12.75h7.5v-22.5c0-2.9 2.35-5.25 5.25-5.25h64.5c2.9 0 5.25 2.35 5.25 5.25v22.5Z" clip-rule="evenodd"/></g></g></g><g id="Heavy-L"><g id="Outline / Print Outline_2"><g id="Shape_2" fill="#000"><path d="M2608.99 1453.54c-8.07 0-14.62 6.55-14.62 14.63v8.24a4.87 4.87 0 0 0 4.87 4.87c2.69 0 4.88-2.18 4.88-4.87v-8.24c0-2.69 2.18-4.88 4.87-4.88h48c2.69 0 4.88 2.19 4.88 4.88v8.24a4.87 4.87 0 0 0 4.87 4.87c2.69 0 4.88-2.18 4.88-4.87v-8.24c0-8.08-6.55-14.63-14.63-14.63h-48ZM2683.21 1517.11c0 4.14-3.36 7.5-7.5 7.5-4.14 0-7.5-3.36-7.5-7.5 0-4.15 3.36-7.5 7.5-7.5 4.14 0 7.5 3.35 7.5 7.5Z"/><path fill-rule="evenodd" d="M2670.49 1578.75c0 5.38-4.36 9.75-9.75 9.75h-55.5c-5.38 0-9.75-4.37-9.75-9.75V1566h-7.5c-12.42 0-22.5-10.07-22.5-22.5v-30c0-12.43 10.08-22.5 22.5-22.5h90c12.43 0 22.5 10.07 22.5 22.5v30c0 12.43-10.07 22.5-22.5 22.5h-7.5v12.75Zm-9.75 0h-55.5v-40.5h55.5v40.5Zm9.75-22.5h7.5c7.04 0 12.75-5.71 12.75-12.75v-30c0-7.04-5.71-12.75-12.75-12.75h-90c-7.04 0-12.75 5.71-12.75 12.75v30c0 7.04 5.71 12.75 12.75 12.75h7.5v-22.5c0-2.9 2.35-5.25 5.25-5.25h64.5c2.9 0 5.25 2.35 5.25 5.25v22.5Z" clip-rule="evenodd"/></g></g></g><g id="Bold-L"><g id="Outline / Print Outline_3"><g id="Shape_3" fill="#000"><path d="M2312.99 1453.54c-8.07 0-14.62 6.55-14.62 14.63v8.24a4.87 4.87 0 0 0 4.87 4.87c2.69 0 4.88-2.18 4.88-4.87v-8.24c0-2.69 2.18-4.88 4.87-4.88h48c2.69 0 4.88 2.19 4.88 4.88v8.24a4.87 4.87 0 0 0 4.87 4.87c2.69 0 4.88-2.18 4.88-4.87v-8.24c0-8.08-6.55-14.63-14.63-14.63h-48ZM2387.21 1517.11c0 4.14-3.36 7.5-7.5 7.5-4.14 0-7.5-3.36-7.5-7.5 0-4.15 3.36-7.5 7.5-7.5 4.14 0 7.5 3.35 7.5 7.5Z"/><path fill-rule="evenodd" d="M2374.49 1578.75c0 5.38-4.36 9.75-9.75 9.75h-55.5c-5.38 0-9.75-4.37-9.75-9.75V1566h-7.5c-12.42 0-22.5-10.07-22.5-22.5v-30c0-12.43 10.08-22.5 22.5-22.5h90c12.43 0 22.5 10.07 22.5 22.5v30c0 12.43-10.07 22.5-22.5 22.5h-7.5v12.75Zm-9.75 0h-55.5v-40.5h55.5v40.5Zm9.75-22.5h7.5c7.04 0 12.75-5.71 12.75-12.75v-30c0-7.04-5.71-12.75-12.75-12.75h-90c-7.04 0-12.75 5.71-12.75 12.75v30c0 7.04 5.71 12.75 12.75 12.75h7.5v-22.5c0-2.9 2.35-5.25 5.25-5.25h64.5c2.9 0 5.25 2.35 5.25 5.25v22.5Z" clip-rule="evenodd"/></g></g></g><g id="Semibold-L"><g id="Outline / Print Outline_4"><g id="Shape_4" fill="#000"><path d="M2016.99 1453.54c-8.07 0-14.62 6.55-14.62 14.63v8.24a4.87 4.87 0 0 0 4.87 4.87c2.69 0 4.88-2.18 4.88-4.87v-8.24c0-2.69 2.18-4.88 4.87-4.88h48c2.69 0 4.88 2.19 4.88 4.88v8.24a4.87 4.87 0 0 0 4.87 4.87c2.69 0 4.88-2.18 4.88-4.87v-8.24c0-8.08-6.55-14.63-14.63-14.63h-48ZM2091.21 1517.11c0 4.14-3.36 7.5-7.5 7.5-4.14 0-7.5-3.36-7.5-7.5 0-4.15 3.36-7.5 7.5-7.5 4.14 0 7.5 3.35 7.5 7.5Z"/><path fill-rule="evenodd" d="M2078.49 1578.75c0 5.38-4.36 9.75-9.75 9.75h-55.5c-5.38 0-9.75-4.37-9.75-9.75V1566h-7.5c-12.42 0-22.5-10.07-22.5-22.5v-30c0-12.43 10.08-22.5 22.5-22.5h90c12.43 0 22.5 10.07 22.5 22.5v30c0 12.43-10.07 22.5-22.5 22.5h-7.5v12.75Zm-9.75 0h-55.5v-40.5h55.5v40.5Zm9.75-22.5h7.5c7.04 0 12.75-5.71 12.75-12.75v-30c0-7.04-5.71-12.75-12.75-12.75h-90c-7.04 0-12.75 5.71-12.75 12.75v30c0 7.04 5.71 12.75 12.75 12.75h7.5v-22.5c0-2.9 2.35-5.25 5.25-5.25h64.5c2.9 0 5.25 2.35 5.25 5.25v22.5Z" clip-rule="evenodd"/></g></g></g><g id="Medium-L"><g id="Outline / Print Outline_5"><g id="Shape_5" fill="#000"><path d="M1720.99 1453.54c-8.07 0-14.62 6.55-14.62 14.63v8.24a4.87 4.87 0 0 0 4.87 4.87c2.69 0 4.88-2.18 4.88-4.87v-8.24c0-2.69 2.18-4.88 4.87-4.88h48c2.69 0 4.88 2.19 4.88 4.88v8.24a4.87 4.87 0 0 0 4.87 4.87c2.69 0 4.88-2.18 4.88-4.87v-8.24c0-8.08-6.55-14.63-14.63-14.63h-48ZM1795.21 1517.11c0 4.14-3.36 7.5-7.5 7.5-4.14 0-7.5-3.36-7.5-7.5 0-4.15 3.36-7.5 7.5-7.5 4.14 0 7.5 3.35 7.5 7.5Z"/><path fill-rule="evenodd" d="M1782.49 1578.75c0 5.38-4.36 9.75-9.75 9.75h-55.5c-5.38 0-9.75-4.37-9.75-9.75V1566h-7.5c-12.42 0-22.5-10.07-22.5-22.5v-30c0-12.43 10.08-22.5 22.5-22.5h90c12.43 0 22.5 10.07 22.5 22.5v30c0 12.43-10.07 22.5-22.5 22.5h-7.5v12.75Zm-9.75 0h-55.5v-40.5h55.5v40.5Zm9.75-22.5h7.5c7.04 0 12.75-5.71 12.75-12.75v-30c0-7.04-5.71-12.75-12.75-12.75h-90c-7.04 0-12.75 5.71-12.75 12.75v30c0 7.04 5.71 12.75 12.75 12.75h7.5v-22.5c0-2.9 2.35-5.25 5.25-5.25h64.5c2.9 0 5.25 2.35 5.25 5.25v22.5Z" clip-rule="evenodd"/></g></g></g><g id="Regular-L"><g id="Outline / Print Outline_6"><g id="Shape_6" fill="#000"><path d="M1424.99 1453.54c-8.07 0-14.62 6.55-14.62 14.63v8.24a4.87 4.87 0 0 0 4.87 4.87c2.69 0 4.88-2.18 4.88-4.87v-8.24c0-2.69 2.18-4.88 4.87-4.88h48c2.69 0 4.88 2.19 4.88 4.88v8.24a4.87 4.87 0 0 0 4.87 4.87c2.69 0 4.88-2.18 4.88-4.87v-8.24c0-8.08-6.55-14.63-14.63-14.63h-48ZM1499.21 1517.11c0 4.14-3.36 7.5-7.5 7.5-4.14 0-7.5-3.36-7.5-7.5 0-4.15 3.36-7.5 7.5-7.5 4.14 0 7.5 3.35 7.5 7.5Z"/><path fill-rule="evenodd" d="M1486.49 1578.75c0 5.38-4.36 9.75-9.75 9.75h-55.5c-5.38 0-9.75-4.37-9.75-9.75V1566h-7.5c-12.42 0-22.5-10.07-22.5-22.5v-30c0-12.43 10.08-22.5 22.5-22.5h90c12.43 0 22.5 10.07 22.5 22.5v30c0 12.43-10.07 22.5-22.5 22.5h-7.5v12.75Zm-9.75 0h-55.5v-40.5h55.5v40.5Zm9.75-22.5h7.5c7.04 0 12.75-5.71 12.75-12.75v-30c0-7.04-5.71-12.75-12.75-12.75h-90c-7.04 0-12.75 5.71-12.75 12.75v30c0 7.04 5.71 12.75 12.75 12.75h7.5v-22.5c0-2.9 2.35-5.25 5.25-5.25h64.5c2.9 0 5.25 2.35 5.25 5.25v22.5Z" clip-rule="evenodd"/></g></g></g><g id="Light-L"><g id="Outline / Print Outline_7"><g id="Shape_7" fill="#000"><path d="M1128.99 1453.54c-8.07 0-14.62 6.55-14.62 14.63v8.24a4.87 4.87 0 0 0 4.87 4.87c2.69 0 4.88-2.18 4.88-4.87v-8.24c0-2.69 2.18-4.88 4.87-4.88h48c2.69 0 4.88 2.19 4.88 4.88v8.24a4.87 4.87 0 0 0 4.87 4.87c2.69 0 4.88-2.18 4.88-4.87v-8.24c0-8.08-6.55-14.63-14.63-14.63h-48ZM1203.21 1517.11c0 4.14-3.36 7.5-7.5 7.5-4.14 0-7.5-3.36-7.5-7.5 0-4.15 3.36-7.5 7.5-7.5 4.14 0 7.5 3.35 7.5 7.5Z"/><path fill-rule="evenodd" d="M1190.49 1578.75c0 5.38-4.36 9.75-9.75 9.75h-55.5c-5.38 0-9.75-4.37-9.75-9.75V1566h-7.5c-12.42 0-22.5-10.07-22.5-22.5v-30c0-12.43 10.08-22.5 22.5-22.5h90c12.43 0 22.5 10.07 22.5 22.5v30c0 12.43-10.07 22.5-22.5 22.5h-7.5v12.75Zm-9.75 0h-55.5v-40.5h55.5v40.5Zm9.75-22.5h7.5c7.04 0 12.75-5.71 12.75-12.75v-30c0-7.04-5.71-12.75-12.75-12.75h-90c-7.04 0-12.75 5.71-12.75 12.75v30c0 7.04 5.71 12.75 12.75 12.75h7.5v-22.5c0-2.9 2.35-5.25 5.25-5.25h64.5c2.9 0 5.25 2.35 5.25 5.25v22.5Z" clip-rule="evenodd"/></g></g></g><g id="Thin-L"><g id="Outline / Print Outline_8"><g id="Shape_8" fill="#000"><path d="M832.992 1453.54c-8.077 0-14.625 6.55-14.625 14.63v8.24c0 2.69 2.183 4.87 4.875 4.87a4.872 4.872 0 0 0 4.875-4.87v-8.24c0-2.69 2.183-4.88 4.875-4.88h48a4.88 4.88 0 0 1 4.875 4.88v8.24c0 2.69 2.183 4.87 4.875 4.87a4.872 4.872 0 0 0 4.875-4.87v-8.24c0-8.08-6.548-14.63-14.625-14.63h-48ZM907.21 1517.11c0 4.14-3.358 7.5-7.5 7.5-4.142 0-7.5-3.36-7.5-7.5 0-4.15 3.358-7.5 7.5-7.5 4.142 0 7.5 3.35 7.5 7.5Z"/><path fill-rule="evenodd" d="M894.492 1578.75c0 5.38-4.365 9.75-9.75 9.75h-55.5c-5.385 0-9.75-4.37-9.75-9.75V1566h-7.5c-12.426 0-22.5-10.07-22.5-22.5v-30c0-12.43 10.074-22.5 22.5-22.5h90c12.427 0 22.5 10.07 22.5 22.5v30c0 12.43-10.073 22.5-22.5 22.5h-7.5v12.75Zm-9.75 0h-55.5v-40.5h55.5v40.5Zm9.75-22.5h7.5c7.042 0 12.75-5.71 12.75-12.75v-30c0-7.04-5.708-12.75-12.75-12.75h-90c-7.041 0-12.75 5.71-12.75 12.75v30c0 7.04 5.709 12.75 12.75 12.75h7.5v-22.5a5.25 5.25 0 0 1 5.25-5.25h64.5c2.9 0 5.25 2.35 5.25 5.25v22.5Z" clip-rule="evenodd"/></g></g></g><g id="Ultralight-L"><g id="Outline / Print Outline_9"><g id="Shape_9" fill="#000"><path d="M536.992 1453.54c-8.077 0-14.625 6.55-14.625 14.63v8.24c0 2.69 2.183 4.87 4.875 4.87a4.872 4.872 0 0 0 4.875-4.87v-8.24c0-2.69 2.183-4.88 4.875-4.88h48a4.88 4.88 0 0 1 4.875 4.88v8.24c0 2.69 2.183 4.87 4.875 4.87a4.872 4.872 0 0 0 4.875-4.87v-8.24c0-8.08-6.548-14.63-14.625-14.63h-48ZM611.21 1517.11c0 4.14-3.358 7.5-7.5 7.5-4.142 0-7.5-3.36-7.5-7.5 0-4.15 3.358-7.5 7.5-7.5 4.142 0 7.5 3.35 7.5 7.5Z"/><path fill-rule="evenodd" d="M598.492 1578.75c0 5.38-4.365 9.75-9.75 9.75h-55.5c-5.385 0-9.75-4.37-9.75-9.75V1566h-7.5c-12.426 0-22.5-10.07-22.5-22.5v-30c0-12.43 10.074-22.5 22.5-22.5h90c12.427 0 22.5 10.07 22.5 22.5v30c0 12.43-10.073 22.5-22.5 22.5h-7.5v12.75Zm-9.75 0h-55.5v-40.5h55.5v40.5Zm9.75-22.5h7.5c7.042 0 12.75-5.71 12.75-12.75v-30c0-7.04-5.708-12.75-12.75-12.75h-90c-7.041 0-12.75 5.71-12.75 12.75v30c0 7.04 5.709 12.75 12.75 12.75h7.5v-22.5a5.25 5.25 0 0 1 5.25-5.25h64.5c2.9 0 5.25 2.35 5.25 5.25v22.5Z" clip-rule="evenodd"/></g></g></g><g id="Black-M"><g id="Outline / Print Outline_10"><g id="Shape_10" fill="#000"><path d="M2910.33 1038.53c-6.28 0-11.38 5.09-11.38 11.38v6.41a3.796 3.796 0 0 0 7.59 0v-6.41c0-2.1 1.7-3.8 3.79-3.8h37.33c2.1 0 3.79 1.7 3.79 3.8v6.41a3.796 3.796 0 0 0 7.59 0v-6.41c0-6.29-5.09-11.38-11.38-11.38h-37.33ZM2968.05 1087.97a5.83 5.83 0 1 1-11.66 0 5.83 5.83 0 0 1 11.66 0Z"/><path fill-rule="evenodd" d="M2958.16 1135.91c0 4.19-3.39 7.59-7.58 7.59h-43.17c-4.19 0-7.58-3.4-7.58-7.59V1126H2894c-9.67 0-17.5-7.84-17.5-17.5v-23.34c0-9.66 7.83-17.5 17.5-17.5h70c9.66 0 17.5 7.84 17.5 17.5v23.34c0 9.66-7.84 17.5-17.5 17.5h-5.84v9.91Zm-7.58 0h-43.17v-31.5h43.17v31.5Zm7.58-17.5h5.84c5.47 0 9.91-4.44 9.91-9.91v-23.34c0-5.47-4.44-9.91-9.91-9.91h-70c-5.48 0-9.92 4.44-9.92 9.91v23.34c0 5.47 4.44 9.91 9.92 9.91h5.83v-17.5c0-2.25 1.83-4.08 4.08-4.08h50.17c2.25 0 4.08 1.83 4.08 4.08v17.5Z" clip-rule="evenodd"/></g></g></g><g id="Heavy-M"><g id="Outline / Print Outline_11"><g id="Shape_11" fill="#000"><path d="M2614.33 1038.53c-6.28 0-11.38 5.09-11.38 11.38v6.41a3.796 3.796 0 0 0 7.59 0v-6.41c0-2.1 1.7-3.8 3.79-3.8h37.33c2.1 0 3.79 1.7 3.79 3.8v6.41a3.796 3.796 0 0 0 7.59 0v-6.41c0-6.29-5.09-11.38-11.38-11.38h-37.33ZM2672.05 1087.97a5.83 5.83 0 1 1-11.66 0 5.83 5.83 0 0 1 11.66 0Z"/><path fill-rule="evenodd" d="M2662.16 1135.91c0 4.19-3.39 7.59-7.58 7.59h-43.17c-4.19 0-7.58-3.4-7.58-7.59V1126H2598c-9.67 0-17.5-7.84-17.5-17.5v-23.34c0-9.66 7.83-17.5 17.5-17.5h70c9.66 0 17.5 7.84 17.5 17.5v23.34c0 9.66-7.84 17.5-17.5 17.5h-5.84v9.91Zm-7.58 0h-43.17v-31.5h43.17v31.5Zm7.58-17.5h5.84c5.47 0 9.91-4.44 9.91-9.91v-23.34c0-5.47-4.44-9.91-9.91-9.91h-70c-5.48 0-9.92 4.44-9.92 9.91v23.34c0 5.47 4.44 9.91 9.92 9.91h5.83v-17.5c0-2.25 1.83-4.08 4.08-4.08h50.17c2.25 0 4.08 1.83 4.08 4.08v17.5Z" clip-rule="evenodd"/></g></g></g><g id="Bold-M"><g id="Outline / Print Outline_12"><g id="Shape_12" fill="#000"><path d="M2318.33 1038.53c-6.28 0-11.38 5.09-11.38 11.38v6.41a3.796 3.796 0 0 0 7.59 0v-6.41c0-2.1 1.7-3.8 3.79-3.8h37.33c2.1 0 3.79 1.7 3.79 3.8v6.41a3.796 3.796 0 0 0 7.59 0v-6.41c0-6.29-5.09-11.38-11.38-11.38h-37.33ZM2376.05 1087.97a5.83 5.83 0 1 1-11.66 0 5.83 5.83 0 0 1 11.66 0Z"/><path fill-rule="evenodd" d="M2366.16 1135.91c0 4.19-3.39 7.59-7.58 7.59h-43.17c-4.19 0-7.58-3.4-7.58-7.59V1126H2302c-9.67 0-17.5-7.84-17.5-17.5v-23.34c0-9.66 7.83-17.5 17.5-17.5h70c9.66 0 17.5 7.84 17.5 17.5v23.34c0 9.66-7.84 17.5-17.5 17.5h-5.84v9.91Zm-7.58 0h-43.17v-31.5h43.17v31.5Zm7.58-17.5h5.84c5.47 0 9.91-4.44 9.91-9.91v-23.34c0-5.47-4.44-9.91-9.91-9.91h-70c-5.48 0-9.92 4.44-9.92 9.91v23.34c0 5.47 4.44 9.91 9.92 9.91h5.83v-17.5c0-2.25 1.83-4.08 4.08-4.08h50.17c2.25 0 4.08 1.83 4.08 4.08v17.5Z" clip-rule="evenodd"/></g></g></g><g id="Semibold-M"><g id="Outline / Print Outline_13"><g id="Shape_13" fill="#000"><path d="M2022.33 1038.53c-6.28 0-11.38 5.09-11.38 11.38v6.41a3.796 3.796 0 0 0 7.59 0v-6.41c0-2.1 1.7-3.8 3.79-3.8h37.33c2.1 0 3.79 1.7 3.79 3.8v6.41a3.796 3.796 0 0 0 7.59 0v-6.41c0-6.29-5.09-11.38-11.38-11.38h-37.33ZM2080.05 1087.97a5.83 5.83 0 1 1-11.66 0 5.83 5.83 0 0 1 11.66 0Z"/><path fill-rule="evenodd" d="M2070.16 1135.91c0 4.19-3.39 7.59-7.58 7.59h-43.17c-4.19 0-7.58-3.4-7.58-7.59V1126H2006c-9.67 0-17.5-7.84-17.5-17.5v-23.34c0-9.66 7.83-17.5 17.5-17.5h70c9.66 0 17.5 7.84 17.5 17.5v23.34c0 9.66-7.84 17.5-17.5 17.5h-5.84v9.91Zm-7.58 0h-43.17v-31.5h43.17v31.5Zm7.58-17.5h5.84c5.47 0 9.91-4.44 9.91-9.91v-23.34c0-5.47-4.44-9.91-9.91-9.91h-70c-5.48 0-9.92 4.44-9.92 9.91v23.34c0 5.47 4.44 9.91 9.92 9.91h5.83v-17.5c0-2.25 1.83-4.08 4.08-4.08h50.17c2.25 0 4.08 1.83 4.08 4.08v17.5Z" clip-rule="evenodd"/></g></g></g><g id="Medium-M"><g id="Outline / Print Outline_14"><g id="Shape_14" fill="#000"><path d="M1726.33 1038.53c-6.28 0-11.38 5.09-11.38 11.38v6.41a3.796 3.796 0 0 0 7.59 0v-6.41c0-2.1 1.7-3.8 3.79-3.8h37.33c2.1 0 3.79 1.7 3.79 3.8v6.41a3.796 3.796 0 0 0 7.59 0v-6.41c0-6.29-5.09-11.38-11.38-11.38h-37.33ZM1784.05 1087.97a5.83 5.83 0 1 1-11.66 0 5.83 5.83 0 0 1 11.66 0Z"/><path fill-rule="evenodd" d="M1774.16 1135.91c0 4.19-3.39 7.59-7.58 7.59h-43.17c-4.19 0-7.58-3.4-7.58-7.59V1126H1710c-9.67 0-17.5-7.84-17.5-17.5v-23.34c0-9.66 7.83-17.5 17.5-17.5h70c9.66 0 17.5 7.84 17.5 17.5v23.34c0 9.66-7.84 17.5-17.5 17.5h-5.84v9.91Zm-7.58 0h-43.17v-31.5h43.17v31.5Zm7.58-17.5h5.84c5.47 0 9.91-4.44 9.91-9.91v-23.34c0-5.47-4.44-9.91-9.91-9.91h-70c-5.48 0-9.92 4.44-9.92 9.91v23.34c0 5.47 4.44 9.91 9.92 9.91h5.83v-17.5c0-2.25 1.83-4.08 4.08-4.08h50.17c2.25 0 4.08 1.83 4.08 4.08v17.5Z" clip-rule="evenodd"/></g></g></g><g id="Regular-M"><g id="Outline / Print Outline_15"><g id="Shape_15" fill="#000"><path d="M1430.33 1038.53c-6.28 0-11.38 5.09-11.38 11.38v6.41a3.796 3.796 0 0 0 7.59 0v-6.41c0-2.1 1.7-3.8 3.79-3.8h37.33c2.1 0 3.79 1.7 3.79 3.8v6.41a3.796 3.796 0 0 0 7.59 0v-6.41c0-6.29-5.09-11.38-11.38-11.38h-37.33ZM1488.05 1087.97a5.83 5.83 0 1 1-11.66 0 5.83 5.83 0 0 1 11.66 0Z"/><path fill-rule="evenodd" d="M1478.16 1135.91c0 4.19-3.39 7.59-7.58 7.59h-43.17c-4.19 0-7.58-3.4-7.58-7.59V1126H1414c-9.67 0-17.5-7.84-17.5-17.5v-23.34c0-9.66 7.83-17.5 17.5-17.5h70c9.66 0 17.5 7.84 17.5 17.5v23.34c0 9.66-7.84 17.5-17.5 17.5h-5.84v9.91Zm-7.58 0h-43.17v-31.5h43.17v31.5Zm7.58-17.5h5.84c5.47 0 9.91-4.44 9.91-9.91v-23.34c0-5.47-4.44-9.91-9.91-9.91h-70c-5.48 0-9.92 4.44-9.92 9.91v23.34c0 5.47 4.44 9.91 9.92 9.91h5.83v-17.5c0-2.25 1.83-4.08 4.08-4.08h50.17c2.25 0 4.08 1.83 4.08 4.08v17.5Z" clip-rule="evenodd"/></g></g></g><g id="Light-M"><g id="Outline / Print Outline_16"><g id="Shape_16" fill="#000"><path d="M1134.33 1038.53c-6.28 0-11.38 5.09-11.38 11.38v6.41a3.796 3.796 0 0 0 7.59 0v-6.41c0-2.1 1.7-3.8 3.79-3.8h37.33c2.1 0 3.79 1.7 3.79 3.8v6.41a3.796 3.796 0 0 0 7.59 0v-6.41c0-6.29-5.09-11.38-11.38-11.38h-37.33ZM1192.05 1087.97a5.83 5.83 0 1 1-11.66 0 5.83 5.83 0 0 1 11.66 0Z"/><path fill-rule="evenodd" d="M1182.16 1135.91c0 4.19-3.39 7.59-7.58 7.59h-43.17c-4.19 0-7.58-3.4-7.58-7.59V1126H1118c-9.67 0-17.5-7.84-17.5-17.5v-23.34c0-9.66 7.83-17.5 17.5-17.5h70c9.66 0 17.5 7.84 17.5 17.5v23.34c0 9.66-7.84 17.5-17.5 17.5h-5.84v9.91Zm-7.58 0h-43.17v-31.5h43.17v31.5Zm7.58-17.5h5.84c5.47 0 9.91-4.44 9.91-9.91v-23.34c0-5.47-4.44-9.91-9.91-9.91h-70c-5.48 0-9.92 4.44-9.92 9.91v23.34c0 5.47 4.44 9.91 9.92 9.91h5.83v-17.5c0-2.25 1.83-4.08 4.08-4.08h50.17c2.25 0 4.08 1.83 4.08 4.08v17.5Z" clip-rule="evenodd"/></g></g></g><g id="Thin-M"><g id="Outline / Print Outline_17"><g id="Shape_17" fill="#000"><path d="M838.349 1038.53c-6.282 0-11.375 5.09-11.375 11.38v6.41a3.792 3.792 0 0 0 7.583 0v-6.41c0-2.1 1.698-3.8 3.792-3.8h37.333c2.094 0 3.792 1.7 3.792 3.8v6.41a3.792 3.792 0 0 0 7.583 0v-6.41c0-6.29-5.092-11.38-11.375-11.38h-37.333ZM896.074 1087.97c0 3.22-2.612 5.83-5.833 5.83a5.832 5.832 0 0 1-5.834-5.83c0-3.22 2.612-5.83 5.834-5.83a5.832 5.832 0 0 1 5.833 5.83Z"/><path fill-rule="evenodd" d="M886.182 1135.91c0 4.19-3.395 7.59-7.583 7.59h-43.167c-4.188 0-7.583-3.4-7.583-7.59V1126h-5.833c-9.665 0-17.5-7.84-17.5-17.5v-23.34c0-9.66 7.835-17.5 17.5-17.5h70c9.665 0 17.5 7.84 17.5 17.5v23.34c0 9.66-7.835 17.5-17.5 17.5h-5.834v9.91Zm-7.583 0h-43.167v-31.5h43.167v31.5Zm7.583-17.5h5.834c5.476 0 9.916-4.44 9.916-9.91v-23.34c0-5.47-4.44-9.91-9.916-9.91h-70c-5.477 0-9.917 4.44-9.917 9.91v23.34c0 5.47 4.44 9.91 9.917 9.91h5.833v-17.5c0-2.25 1.828-4.08 4.083-4.08h50.167a4.084 4.084 0 0 1 4.083 4.08v17.5Z" clip-rule="evenodd"/></g></g></g><g id="Ultralight-M"><g id="Outline / Print Outline_18"><g id="Shape_18" fill="#000"><path d="M542.349 1038.53c-6.282 0-11.375 5.09-11.375 11.38v6.41a3.792 3.792 0 0 0 7.583 0v-6.41c0-2.1 1.698-3.8 3.792-3.8h37.333c2.094 0 3.792 1.7 3.792 3.8v6.41a3.792 3.792 0 0 0 7.583 0v-6.41c0-6.29-5.092-11.38-11.375-11.38h-37.333ZM600.074 1087.97c0 3.22-2.612 5.83-5.833 5.83a5.832 5.832 0 0 1-5.834-5.83c0-3.22 2.612-5.83 5.834-5.83a5.832 5.832 0 0 1 5.833 5.83Z"/><path fill-rule="evenodd" d="M590.182 1135.91c0 4.19-3.395 7.59-7.583 7.59h-43.167c-4.188 0-7.583-3.4-7.583-7.59V1126h-5.833c-9.665 0-17.5-7.84-17.5-17.5v-23.34c0-9.66 7.835-17.5 17.5-17.5h70c9.665 0 17.5 7.84 17.5 17.5v23.34c0 9.66-7.835 17.5-17.5 17.5h-5.834v9.91Zm-7.583 0h-43.167v-31.5h43.167v31.5Zm7.583-17.5h5.834c5.476 0 9.916-4.44 9.916-9.91v-23.34c0-5.47-4.44-9.91-9.916-9.91h-70c-5.477 0-9.917 4.44-9.917 9.91v23.34c0 5.47 4.44 9.91 9.917 9.91h5.833v-17.5c0-2.25 1.828-4.08 4.083-4.08h50.167a4.084 4.084 0 0 1 4.083 4.08v17.5Z" clip-rule="evenodd"/></g></g></g><g id="Black-S"><g id="Outline / Print Outline_19"><g id="Shape_19" fill="#000"><path d="M2915.67 623.531c-4.49 0-8.13 3.638-8.13 8.125v4.578a2.707 2.707 0 0 0 2.71 2.709c1.5 0 2.71-1.213 2.71-2.709v-4.578a2.707 2.707 0 0 1 2.71-2.708h26.66c1.5 0 2.71 1.212 2.71 2.708v4.578a2.707 2.707 0 0 0 2.71 2.709c1.5 0 2.71-1.213 2.71-2.709v-4.578c0-4.487-3.64-8.125-8.13-8.125h-26.66ZM2956.9 658.844a4.17 4.17 0 0 1-4.17 4.166c-2.3 0-4.16-1.865-4.16-4.166a4.162 4.162 0 0 1 4.16-4.167 4.17 4.17 0 0 1 4.17 4.167Z"/><path fill-rule="evenodd" d="M2949.83 693.09a5.412 5.412 0 0 1-5.41 5.417h-30.84a5.412 5.412 0 0 1-5.41-5.417v-7.083H2904c-6.9 0-12.5-5.597-12.5-12.5V656.84c0-6.903 5.6-12.5 12.5-12.5h50c6.9 0 12.5 5.597 12.5 12.5v16.667c0 6.903-5.6 12.5-12.5 12.5h-4.17v7.083Zm-5.41 0h-30.84v-22.5h30.84v22.5Zm5.41-12.5h4.17c3.91 0 7.08-3.171 7.08-7.083V656.84a7.082 7.082 0 0 0-7.08-7.083h-50a7.082 7.082 0 0 0-7.08 7.083v16.667a7.082 7.082 0 0 0 7.08 7.083h4.17v-12.5c0-1.611 1.3-2.917 2.91-2.917h35.84c1.61 0 2.91 1.306 2.91 2.917v12.5Z" clip-rule="evenodd"/></g></g></g><g id="Heavy-S"><g id="Outline / Print Outline_20"><g id="Shape_20" fill="#000"><path d="M2619.67 623.531c-4.49 0-8.13 3.638-8.13 8.125v4.578a2.707 2.707 0 0 0 2.71 2.709c1.5 0 2.71-1.213 2.71-2.709v-4.578a2.707 2.707 0 0 1 2.71-2.708h26.66c1.5 0 2.71 1.212 2.71 2.708v4.578a2.707 2.707 0 0 0 2.71 2.709c1.5 0 2.71-1.213 2.71-2.709v-4.578c0-4.487-3.64-8.125-8.13-8.125h-26.66ZM2660.9 658.844a4.17 4.17 0 0 1-4.17 4.166c-2.3 0-4.16-1.865-4.16-4.166a4.162 4.162 0 0 1 4.16-4.167 4.17 4.17 0 0 1 4.17 4.167Z"/><path fill-rule="evenodd" d="M2653.83 693.09a5.412 5.412 0 0 1-5.41 5.417h-30.84a5.412 5.412 0 0 1-5.41-5.417v-7.083H2608c-6.9 0-12.5-5.597-12.5-12.5V656.84c0-6.903 5.6-12.5 12.5-12.5h50c6.9 0 12.5 5.597 12.5 12.5v16.667c0 6.903-5.6 12.5-12.5 12.5h-4.17v7.083Zm-5.41 0h-30.84v-22.5h30.84v22.5Zm5.41-12.5h4.17c3.91 0 7.08-3.171 7.08-7.083V656.84a7.082 7.082 0 0 0-7.08-7.083h-50a7.082 7.082 0 0 0-7.08 7.083v16.667a7.082 7.082 0 0 0 7.08 7.083h4.17v-12.5c0-1.611 1.3-2.917 2.91-2.917h35.84c1.61 0 2.91 1.306 2.91 2.917v12.5Z" clip-rule="evenodd"/></g></g></g><g id="Bold-S"><g id="Outline / Print Outline_21"><g id="Shape_21" fill="#000"><path d="M2323.67 623.531c-4.49 0-8.13 3.638-8.13 8.125v4.578a2.707 2.707 0 0 0 2.71 2.709c1.5 0 2.71-1.213 2.71-2.709v-4.578a2.707 2.707 0 0 1 2.71-2.708h26.66c1.5 0 2.71 1.212 2.71 2.708v4.578a2.707 2.707 0 0 0 2.71 2.709c1.5 0 2.71-1.213 2.71-2.709v-4.578c0-4.487-3.64-8.125-8.13-8.125h-26.66ZM2364.9 658.844a4.17 4.17 0 0 1-4.17 4.166c-2.3 0-4.16-1.865-4.16-4.166a4.162 4.162 0 0 1 4.16-4.167 4.17 4.17 0 0 1 4.17 4.167Z"/><path fill-rule="evenodd" d="M2357.83 693.09a5.412 5.412 0 0 1-5.41 5.417h-30.84a5.412 5.412 0 0 1-5.41-5.417v-7.083H2312c-6.9 0-12.5-5.597-12.5-12.5V656.84c0-6.903 5.6-12.5 12.5-12.5h50c6.9 0 12.5 5.597 12.5 12.5v16.667c0 6.903-5.6 12.5-12.5 12.5h-4.17v7.083Zm-5.41 0h-30.84v-22.5h30.84v22.5Zm5.41-12.5h4.17c3.91 0 7.08-3.171 7.08-7.083V656.84a7.082 7.082 0 0 0-7.08-7.083h-50a7.082 7.082 0 0 0-7.08 7.083v16.667a7.082 7.082 0 0 0 7.08 7.083h4.17v-12.5c0-1.611 1.3-2.917 2.91-2.917h35.84c1.61 0 2.91 1.306 2.91 2.917v12.5Z" clip-rule="evenodd"/></g></g></g><g id="Semibold-S"><g id="Outline / Print Outline_22"><g id="Shape_22" fill="#000"><path d="M2027.67 623.531c-4.49 0-8.13 3.638-8.13 8.125v4.578a2.707 2.707 0 0 0 2.71 2.709c1.5 0 2.71-1.213 2.71-2.709v-4.578a2.707 2.707 0 0 1 2.71-2.708h26.66c1.5 0 2.71 1.212 2.71 2.708v4.578a2.707 2.707 0 0 0 2.71 2.709c1.5 0 2.71-1.213 2.71-2.709v-4.578c0-4.487-3.64-8.125-8.13-8.125h-26.66ZM2068.9 658.844a4.17 4.17 0 0 1-4.17 4.166c-2.3 0-4.16-1.865-4.16-4.166a4.162 4.162 0 0 1 4.16-4.167 4.17 4.17 0 0 1 4.17 4.167Z"/><path fill-rule="evenodd" d="M2061.83 693.09a5.412 5.412 0 0 1-5.41 5.417h-30.84a5.412 5.412 0 0 1-5.41-5.417v-7.083H2016c-6.9 0-12.5-5.597-12.5-12.5V656.84c0-6.903 5.6-12.5 12.5-12.5h50c6.9 0 12.5 5.597 12.5 12.5v16.667c0 6.903-5.6 12.5-12.5 12.5h-4.17v7.083Zm-5.41 0h-30.84v-22.5h30.84v22.5Zm5.41-12.5h4.17c3.91 0 7.08-3.171 7.08-7.083V656.84a7.082 7.082 0 0 0-7.08-7.083h-50a7.082 7.082 0 0 0-7.08 7.083v16.667a7.082 7.082 0 0 0 7.08 7.083h4.17v-12.5c0-1.611 1.3-2.917 2.91-2.917h35.84c1.61 0 2.91 1.306 2.91 2.917v12.5Z" clip-rule="evenodd"/></g></g></g><g id="Medium-S"><g id="Outline / Print Outline_23"><g id="Shape_23" fill="#000"><path d="M1731.67 623.531c-4.49 0-8.13 3.638-8.13 8.125v4.578a2.707 2.707 0 0 0 2.71 2.709c1.5 0 2.71-1.213 2.71-2.709v-4.578a2.707 2.707 0 0 1 2.71-2.708h26.66c1.5 0 2.71 1.212 2.71 2.708v4.578a2.707 2.707 0 0 0 2.71 2.709c1.5 0 2.71-1.213 2.71-2.709v-4.578c0-4.487-3.64-8.125-8.13-8.125h-26.66ZM1772.9 658.844a4.17 4.17 0 0 1-4.17 4.166c-2.3 0-4.16-1.865-4.16-4.166a4.162 4.162 0 0 1 4.16-4.167 4.17 4.17 0 0 1 4.17 4.167Z"/><path fill-rule="evenodd" d="M1765.83 693.09a5.412 5.412 0 0 1-5.41 5.417h-30.84a5.412 5.412 0 0 1-5.41-5.417v-7.083H1720c-6.9 0-12.5-5.597-12.5-12.5V656.84c0-6.903 5.6-12.5 12.5-12.5h50c6.9 0 12.5 5.597 12.5 12.5v16.667c0 6.903-5.6 12.5-12.5 12.5h-4.17v7.083Zm-5.41 0h-30.84v-22.5h30.84v22.5Zm5.41-12.5h4.17c3.91 0 7.08-3.171 7.08-7.083V656.84a7.082 7.082 0 0 0-7.08-7.083h-50a7.082 7.082 0 0 0-7.08 7.083v16.667a7.082 7.082 0 0 0 7.08 7.083h4.17v-12.5c0-1.611 1.3-2.917 2.91-2.917h35.84c1.61 0 2.91 1.306 2.91 2.917v12.5Z" clip-rule="evenodd"/></g></g></g><g id="Regular-S"><g id="Outline / Print Outline_24"><g id="Shape_24" fill="#000"><path d="M1435.67 623.531c-4.49 0-8.13 3.638-8.13 8.125v4.578a2.707 2.707 0 0 0 2.71 2.709c1.5 0 2.71-1.213 2.71-2.709v-4.578a2.707 2.707 0 0 1 2.71-2.708h26.66c1.5 0 2.71 1.212 2.71 2.708v4.578a2.707 2.707 0 0 0 2.71 2.709c1.5 0 2.71-1.213 2.71-2.709v-4.578c0-4.487-3.64-8.125-8.13-8.125h-26.66ZM1476.9 658.844a4.17 4.17 0 0 1-4.17 4.166c-2.3 0-4.16-1.865-4.16-4.166a4.162 4.162 0 0 1 4.16-4.167 4.17 4.17 0 0 1 4.17 4.167Z"/><path fill-rule="evenodd" d="M1469.83 693.09a5.412 5.412 0 0 1-5.41 5.417h-30.84a5.412 5.412 0 0 1-5.41-5.417v-7.083H1424c-6.9 0-12.5-5.597-12.5-12.5V656.84c0-6.903 5.6-12.5 12.5-12.5h50c6.9 0 12.5 5.597 12.5 12.5v16.667c0 6.903-5.6 12.5-12.5 12.5h-4.17v7.083Zm-5.41 0h-30.84v-22.5h30.84v22.5Zm5.41-12.5h4.17c3.91 0 7.08-3.171 7.08-7.083V656.84a7.082 7.082 0 0 0-7.08-7.083h-50a7.082 7.082 0 0 0-7.08 7.083v16.667a7.082 7.082 0 0 0 7.08 7.083h4.17v-12.5c0-1.611 1.3-2.917 2.91-2.917h35.84c1.61 0 2.91 1.306 2.91 2.917v12.5Z" clip-rule="evenodd"/></g></g></g><g id="Light-S"><g id="Outline / Print Outline_25"><g id="Shape_25" fill="#000"><path d="M1139.67 623.531c-4.49 0-8.13 3.638-8.13 8.125v4.578a2.707 2.707 0 0 0 2.71 2.709c1.5 0 2.71-1.213 2.71-2.709v-4.578a2.707 2.707 0 0 1 2.71-2.708h26.66c1.5 0 2.71 1.212 2.71 2.708v4.578a2.707 2.707 0 0 0 2.71 2.709c1.5 0 2.71-1.213 2.71-2.709v-4.578c0-4.487-3.64-8.125-8.13-8.125h-26.66ZM1180.9 658.844a4.17 4.17 0 0 1-4.17 4.166c-2.3 0-4.16-1.865-4.16-4.166a4.162 4.162 0 0 1 4.16-4.167 4.17 4.17 0 0 1 4.17 4.167Z"/><path fill-rule="evenodd" d="M1173.83 693.09a5.412 5.412 0 0 1-5.41 5.417h-30.84a5.412 5.412 0 0 1-5.41-5.417v-7.083H1128c-6.9 0-12.5-5.597-12.5-12.5V656.84c0-6.903 5.6-12.5 12.5-12.5h50c6.9 0 12.5 5.597 12.5 12.5v16.667c0 6.903-5.6 12.5-12.5 12.5h-4.17v7.083Zm-5.41 0h-30.84v-22.5h30.84v22.5Zm5.41-12.5h4.17c3.91 0 7.08-3.171 7.08-7.083V656.84a7.082 7.082 0 0 0-7.08-7.083h-50a7.082 7.082 0 0 0-7.08 7.083v16.667a7.082 7.082 0 0 0 7.08 7.083h4.17v-12.5c0-1.611 1.3-2.917 2.91-2.917h35.84c1.61 0 2.91 1.306 2.91 2.917v12.5Z" clip-rule="evenodd"/></g></g></g><g id="Thin-S"><g id="Outline / Print Outline_26"><g id="Shape_26" fill="#000"><path d="M843.667 623.531a8.125 8.125 0 0 0-8.125 8.125v4.578a2.708 2.708 0 1 0 5.416 0v-4.578a2.708 2.708 0 0 1 2.709-2.708h26.666a2.708 2.708 0 0 1 2.709 2.708v4.578a2.708 2.708 0 1 0 5.416 0v-4.578a8.125 8.125 0 0 0-8.125-8.125h-26.666ZM884.899 658.844a4.167 4.167 0 1 1-8.333-.001 4.167 4.167 0 0 1 8.333.001Z"/><path fill-rule="evenodd" d="M877.833 693.09a5.416 5.416 0 0 1-5.416 5.417h-30.834a5.416 5.416 0 0 1-5.416-5.417v-7.083H832c-6.904 0-12.5-5.597-12.5-12.5V656.84c0-6.903 5.596-12.5 12.5-12.5h50c6.904 0 12.5 5.597 12.5 12.5v16.667c0 6.903-5.596 12.5-12.5 12.5h-4.167v7.083Zm-5.416 0h-30.834v-22.5h30.834v22.5Zm5.416-12.5H882a7.083 7.083 0 0 0 7.083-7.083V656.84a7.083 7.083 0 0 0-7.083-7.083h-50a7.083 7.083 0 0 0-7.083 7.083v16.667A7.083 7.083 0 0 0 832 680.59h4.167v-12.5a2.916 2.916 0 0 1 2.916-2.917h35.834a2.917 2.917 0 0 1 2.916 2.917v12.5Z" clip-rule="evenodd"/></g></g></g><g id="Ultralight-S"><g id="Outline / Print Outline_27"><g id="Shape_27" fill="#000"><path d="M547.667 623.531a8.125 8.125 0 0 0-8.125 8.125v4.578a2.708 2.708 0 1 0 5.416 0v-4.578a2.708 2.708 0 0 1 2.709-2.708h26.666a2.708 2.708 0 0 1 2.709 2.708v4.578a2.708 2.708 0 1 0 5.416 0v-4.578a8.125 8.125 0 0 0-8.125-8.125h-26.666ZM588.899 658.844a4.167 4.167 0 1 1-8.333-.001 4.167 4.167 0 0 1 8.333.001Z"/><path fill-rule="evenodd" d="M581.833 693.09a5.416 5.416 0 0 1-5.416 5.417h-30.834a5.416 5.416 0 0 1-5.416-5.417v-7.083H536c-6.904 0-12.5-5.597-12.5-12.5V656.84c0-6.903 5.596-12.5 12.5-12.5h50c6.904 0 12.5 5.597 12.5 12.5v16.667c0 6.903-5.596 12.5-12.5 12.5h-4.167v7.083Zm-5.416 0h-30.834v-22.5h30.834v22.5Zm5.416-12.5H586a7.083 7.083 0 0 0 7.083-7.083V656.84a7.083 7.083 0 0 0-7.083-7.083h-50a7.083 7.083 0 0 0-7.083 7.083v16.667A7.083 7.083 0 0 0 536 680.59h4.167v-12.5a2.916 2.916 0 0 1 2.916-2.917h35.834a2.917 2.917 0 0 1 2.916 2.917v12.5Z" clip-rule="evenodd"/></g></g></g></g></g><defs><clipPath id="clip0_805_27002"><path fill="#fff" d="M0 0h3300v2200H0z"/></clipPath></defs></svg>