<svg width="3300" height="2200" viewBox="0 0 3300 2200" fill="none" xmlns="http://www.w3.org/2000/svg">
<rect width="3300" height="2200" fill="#E5E5E5"/>
<g id="System / Solid / Arrows Vertical" clip-path="url(#clip0_805_27002)">
<g id="Notes">
<path id="artboard" d="M3300 0H0V2200H3300V0Z" fill="white"/>
<path id="Vector" d="M263 292H3036" stroke="black" stroke-width="0.5"/>
<text id="Weight/Scale Variations" fill="black" xml:space="preserve" style="white-space: pre" font-family="Roboto" font-size="12" letter-spacing="0em"><tspan x="263" y="321.102">Weight/Scale Variations</tspan></text>
<text id="Ultralight" fill="black" xml:space="preserve" style="white-space: pre" font-family="Roboto" font-size="12" letter-spacing="0em"><tspan x="535.211" y="321.102">Ultralight</tspan></text>
<text id="Thin" fill="black" xml:space="preserve" style="white-space: pre" font-family="Roboto" font-size="12" letter-spacing="0em"><tspan x="844.422" y="321.102">Thin</tspan></text>
<text id="Light" fill="black" xml:space="preserve" style="white-space: pre" font-family="Roboto" font-size="12" letter-spacing="0em"><tspan x="1139.63" y="321.102">Light</tspan></text>
<text id="Regular" fill="black" xml:space="preserve" style="white-space: pre" font-family="Roboto" font-size="12" letter-spacing="0em"><tspan x="1429.34" y="321.102">Regular</tspan></text>
<text id="Medium" fill="black" xml:space="preserve" style="white-space: pre" font-family="Roboto" font-size="12" letter-spacing="0em"><tspan x="1724.56" y="321.102">Medium</tspan></text>
<text id="Semibold" fill="black" xml:space="preserve" style="white-space: pre" font-family="Roboto" font-size="12" letter-spacing="0em"><tspan x="2017.77" y="321.102">Semibold</tspan></text>
<text id="Bold" fill="black" xml:space="preserve" style="white-space: pre" font-family="Roboto" font-size="12" letter-spacing="0em"><tspan x="2327.48" y="321.102">Bold</tspan></text>
<text id="Heavy" fill="black" xml:space="preserve" style="white-space: pre" font-family="Roboto" font-size="12" letter-spacing="0em"><tspan x="2620.19" y="321.102">Heavy</tspan></text>
<text id="Black" fill="black" xml:space="preserve" style="white-space: pre" font-family="Roboto" font-size="12" letter-spacing="0em"><tspan x="2918.4" y="321.102">Black</tspan></text>
<path id="Vector_2" d="M263 1903H3036" stroke="black" stroke-width="0.5"/>
<g id="Group">
<path id="Vector_3" d="M272.248 1933.83C276.555 1933.83 280.139 1930.26 280.139 1925.95C280.139 1921.64 276.545 1918.07 272.238 1918.07C267.941 1918.07 264.367 1921.64 264.367 1925.95C264.367 1930.26 267.951 1933.83 272.248 1933.83ZM272.248 1932.35C268.703 1932.35 265.871 1929.51 265.871 1925.95C265.871 1922.4 268.693 1919.55 272.238 1919.55C275.793 1919.55 278.635 1922.4 278.644 1925.95C278.654 1929.51 275.803 1932.35 272.248 1932.35ZM272.229 1929.57C272.697 1929.57 272.971 1929.26 272.971 1928.74V1926.68H275.197C275.695 1926.68 276.037 1926.43 276.037 1925.96C276.037 1925.48 275.715 1925.22 275.197 1925.22H272.971V1922.99C272.971 1922.47 272.697 1922.15 272.229 1922.15C271.76 1922.15 271.506 1922.49 271.506 1922.99V1925.22H269.299C268.781 1925.22 268.449 1925.48 268.449 1925.96C268.449 1926.43 268.801 1926.68 269.299 1926.68H271.506V1928.74C271.506 1929.24 271.76 1929.57 272.229 1929.57Z" fill="black"/>
</g>
<g id="Group_2">
<path id="Vector_4" d="M293.215 1935.91C298.664 1935.91 303.176 1931.4 303.176 1925.95C303.176 1920.51 298.654 1915.99 293.205 1915.99C287.766 1915.99 283.254 1920.51 283.254 1925.95C283.254 1931.4 287.775 1935.91 293.215 1935.91ZM293.215 1934.25C288.605 1934.25 284.924 1930.56 284.924 1925.95C284.924 1921.35 288.596 1917.65 293.205 1917.65C297.814 1917.65 301.506 1921.35 301.516 1925.95C301.525 1930.56 297.824 1934.25 293.215 1934.25ZM293.195 1930.59C293.713 1930.59 294.025 1930.23 294.025 1929.66V1926.77H297.082C297.629 1926.77 298.01 1926.49 298.01 1925.97C298.01 1925.44 297.648 1925.14 297.082 1925.14H294.025V1922.07C294.025 1921.5 293.713 1921.14 293.195 1921.14C292.678 1921.14 292.385 1921.52 292.385 1922.07V1925.14H289.338C288.771 1925.14 288.4 1925.44 288.4 1925.97C288.4 1926.49 288.791 1926.77 289.338 1926.77H292.385V1929.66C292.385 1930.21 292.678 1930.59 293.195 1930.59Z" fill="black"/>
</g>
<g id="Group_3">
<path id="Vector_5" d="M319.895 1938.67C326.857 1938.67 332.619 1932.92 332.619 1925.96C332.619 1918.99 326.848 1913.24 319.885 1913.24C312.932 1913.24 307.18 1918.99 307.18 1925.96C307.18 1932.92 312.941 1938.67 319.895 1938.67ZM319.895 1936.86C313.859 1936.86 309.006 1931.99 309.006 1925.96C309.006 1919.92 313.85 1915.06 319.885 1915.06C325.93 1915.06 330.783 1919.92 330.793 1925.96C330.803 1931.99 325.939 1936.86 319.895 1936.86ZM319.875 1931.93C320.441 1931.93 320.793 1931.54 320.793 1930.94V1926.87H325.031C325.617 1926.87 326.037 1926.53 326.037 1925.98C326.037 1925.4 325.647 1925.06 325.031 1925.06H320.793V1920.81C320.793 1920.2 320.441 1919.8 319.875 1919.8C319.309 1919.8 318.986 1920.21 318.986 1920.81V1925.06H314.758C314.143 1925.06 313.732 1925.4 313.732 1925.98C313.732 1926.53 314.162 1926.87 314.758 1926.87H318.986V1930.94C318.986 1931.52 319.309 1931.93 319.875 1931.93Z" fill="black"/>
</g>
<text id="Design Variations" fill="black" xml:space="preserve" style="white-space: pre" font-family="Roboto" font-size="12" letter-spacing="0em"><tspan x="263" y="1952.1">Design Variations</tspan></text>
<text id="Symbols are supported in up to nine weights and three scales." fill="black" xml:space="preserve" style="white-space: pre" font-family="Roboto" font-size="12" letter-spacing="0em"><tspan x="263" y="1970.1">Symbols are supported in up to nine weights and three scales.</tspan></text>
<text id="For optimal layout with text and other symbols, vertically align" fill="black" xml:space="preserve" style="white-space: pre" font-family="Roboto" font-size="12" letter-spacing="0em"><tspan x="263" y="1988.1">For optimal layout with text and other symbols, vertically align</tspan></text>
<text id="symbols with the adjacent text." fill="black" xml:space="preserve" style="white-space: pre" font-family="Roboto" font-size="12" letter-spacing="0em"><tspan x="263" y="2006.1">symbols with the adjacent text.</tspan></text>
<path id="Vector_6" opacity="0.4" d="M779 1919H776V1933H779V1919Z" fill="#00AEEF"/>
<g id="Group_4">
<path id="Vector_7" d="M789.527 1933H791.373L786.178 1918.91H784.439L779.244 1933H781.09L782.506 1928.96H788.111L789.527 1933ZM785.279 1921.04H785.338L787.594 1927.47H783.023L785.279 1921.04Z" fill="black"/>
</g>
<path id="Vector_8" opacity="0.4" d="M794.617 1919H791.617V1933H794.617V1919Z" fill="#00AEEF"/>
<text id="Margins" fill="black" xml:space="preserve" style="white-space: pre" font-family="Roboto" font-size="12" letter-spacing="0em"><tspan x="776" y="1952.1">Margins</tspan></text>
<text id="Leading and trailing margins on the left and right side of each symbol" fill="black" xml:space="preserve" style="white-space: pre" font-family="Roboto" font-size="12" letter-spacing="0em"><tspan x="776" y="1970.1">Leading and trailing margins on the left and right side of each symbol</tspan></text>
<text id="can be adjusted by modifying the width of the blue rectangles." fill="black" xml:space="preserve" style="white-space: pre" font-family="Roboto" font-size="12" letter-spacing="0em"><tspan x="776" y="1988.1">can be adjusted by modifying the width of the blue rectangles.</tspan></text>
<text id="Modifications are automatically applied proportionally to all" fill="black" xml:space="preserve" style="white-space: pre" font-family="Roboto" font-size="12" letter-spacing="0em"><tspan x="776" y="2006.1">Modifications are automatically applied proportionally to all</tspan></text>
<text id="scales and weights." fill="black" xml:space="preserve" style="white-space: pre" font-family="Roboto" font-size="12" letter-spacing="0em"><tspan x="776" y="2024.1">scales and weights.</tspan></text>
<g id="Group_5">
<path id="Vector_9" d="M1291.83 1936.11L1293.37 1937.66C1294.22 1938.49 1295.19 1938.42 1296.06 1937.46L1306.27 1926.34C1306.7 1926.63 1307.1 1926.62 1307.56 1926.52L1308.61 1926.31L1309.3 1927L1309.25 1927.52C1309.19 1928.05 1309.35 1928.47 1309.85 1928.97L1310.66 1929.78C1311.17 1930.28 1311.82 1930.31 1312.3 1929.83L1315.55 1926.58C1316.03 1926.1 1316.01 1925.45 1315.5 1924.94L1314.68 1924.12C1314.19 1923.62 1313.77 1923.45 1313.24 1923.53L1312.71 1923.58L1312.06 1922.92L1312.34 1921.78C1312.49 1921.21 1312.34 1920.74 1311.71 1920.14L1309.3 1917.75C1305.76 1914.22 1301.23 1914.33 1298.11 1917.46C1297.69 1917.89 1297.64 1918.48 1297.92 1918.91C1298.15 1919.28 1298.63 1919.5 1299.27 1919.34C1300.79 1918.96 1302.3 1919.07 1303.78 1920.08L1303.16 1921.66C1302.93 1922.25 1302.94 1922.73 1303.18 1923.16L1292.02 1933.44C1291.08 1934.31 1290.97 1935.25 1291.83 1936.11ZM1299.67 1917.85C1302.34 1915.86 1305.65 1916.17 1308.05 1918.58L1310.68 1921.19C1310.91 1921.43 1310.94 1921.61 1310.88 1921.91L1310.5 1923.47L1312.08 1925.04L1313.04 1924.95C1313.33 1924.92 1313.41 1924.94 1313.64 1925.17L1314.26 1925.79L1311.51 1928.54L1310.88 1927.92C1310.66 1927.7 1310.64 1927.6 1310.67 1927.32L1310.76 1926.36L1309.19 1924.8L1307.57 1925.11C1307.29 1925.17 1307.14 1925.17 1306.91 1924.92L1304.73 1922.75C1304.51 1922.51 1304.48 1922.37 1304.61 1922.05L1305.55 1919.78C1303.95 1918.24 1301.84 1917.39 1299.8 1918.05C1299.71 1918.08 1299.64 1918.06 1299.61 1918.02C1299.59 1917.97 1299.59 1917.92 1299.67 1917.85ZM1293.1 1935.41C1292.61 1934.91 1292.79 1934.61 1293.12 1934.31L1304.08 1924.19L1305.31 1925.42L1295.15 1936.35C1294.85 1936.68 1294.47 1936.78 1294.07 1936.38L1293.1 1935.41Z" fill="black"/>
</g>
<text id="Exporting" fill="black" xml:space="preserve" style="white-space: pre" font-family="Roboto" font-size="12" letter-spacing="0em"><tspan x="1289" y="1952.1">Exporting</tspan></text>
<text id="Symbols should be outlined when exporting to ensure the" fill="black" xml:space="preserve" style="white-space: pre" font-family="Roboto" font-size="12" letter-spacing="0em"><tspan x="1289" y="1970.1">Symbols should be outlined when exporting to ensure the</tspan></text>
<text id="design is preserved when submitting to Xcode." fill="black" xml:space="preserve" style="white-space: pre" font-family="Roboto" font-size="12" letter-spacing="0em"><tspan x="1289" y="1988.1">design is preserved when submitting to Xcode.</tspan></text>
<text id="template-version" fill="black" xml:space="preserve" style="white-space: pre" font-family="Roboto" font-size="12" letter-spacing="0em"><tspan x="2958" y="1932.1">Template v.1.0</tspan></text>
<text id="Generated from pencil.circle" fill="black" xml:space="preserve" style="white-space: pre" font-family="Roboto" font-size="12" letter-spacing="0em"><tspan x="2885" y="1950.1">Generated from pencil.circle</tspan></text>
<text id="Typeset at 100 points" fill="black" xml:space="preserve" style="white-space: pre" font-family="Roboto" font-size="12" letter-spacing="0em"><tspan x="2921" y="1968.1">Typeset at 100 points</tspan></text>
<text id="Small" fill="black" xml:space="preserve" style="white-space: pre" font-family="Roboto" font-size="12" letter-spacing="0em"><tspan x="263" y="725.102">Small</tspan></text>
<text id="Medium_2" fill="black" xml:space="preserve" style="white-space: pre" font-family="Roboto" font-size="12" letter-spacing="0em"><tspan x="263" y="1155.1">Medium</tspan></text>
<text id="Large" fill="black" xml:space="preserve" style="white-space: pre" font-family="Roboto" font-size="12" letter-spacing="0em"><tspan x="263" y="1585.1">Large</tspan></text>
</g>
<g id="Guides">
<g id="H-reference">
<path id="Vector_10" d="M393.932 695.998H396.666L369.566 625.539H367.076L339.977 695.998H342.662L351.94 671.535H384.703L393.932 695.998ZM368.199 628.908H368.443L383.824 669.289H352.818L368.199 628.908Z" fill="#27AAE1"/>
</g>
<path id="Baseline-S" d="M263 696H3036" stroke="#27AAE1" stroke-width="0.577"/>
<path id="Capline-S" d="M263 626H3036" stroke="#27AAE1" stroke-width="0.577"/>
<g id="H-reference_2">
<path id="Vector_11" d="M393.932 1126H396.666L369.566 1055.54H367.076L339.977 1126H342.662L351.94 1101.54H384.703L393.932 1126ZM368.199 1058.91H368.443L383.824 1099.29H352.818L368.199 1058.91Z" fill="#27AAE1"/>
</g>
<path id="Baseline-M" d="M263 1126H3036" stroke="#27AAE1" stroke-width="0.577"/>
<path id="Capline-M" d="M263 1056H3036" stroke="#27AAE1" stroke-width="0.577"/>
<g id="H-reference_3">
<path id="Vector_12" d="M393.932 1556H396.666L369.566 1485.54H367.076L339.977 1556H342.662L351.94 1531.54H384.703L393.932 1556ZM368.199 1488.91H368.443L383.824 1529.29H352.818L368.199 1488.91Z" fill="#27AAE1"/>
</g>
<g id="Group 1">
<path id="Baseline-L" d="M263 1556H3036" stroke="#27AAE1" stroke-width="0.577"/>
<path id="Capline-L" d="M263 1486H3036" stroke="#27AAE1" stroke-width="0.577"/>
</g>
<path id="left-margin" opacity="0.4" d="M1396.04 1030.79H1387.3V1150.12H1396.04V1030.79Z" fill="#00AEEF"/>
<path id="right-margin" opacity="0.4" d="M1510.39 1030.79H1501.65V1150.12H1510.39V1030.79Z" fill="#00AEEF"/>
</g>
<g id="Symbols">
<g id="Black-L">
<g id="Solid / Arrows Vertical Solid">
<path id="Shape" fill-rule="evenodd" clip-rule="evenodd" d="M2861.5 1521C2861.5 1558.28 2891.72 1588.5 2929 1588.5C2966.28 1588.5 2996.5 1558.28 2996.5 1521C2996.5 1483.72 2966.28 1453.5 2929 1453.5C2891.72 1453.5 2861.5 1483.72 2861.5 1521ZM2927.67 1529.5C2928.72 1530.47 2929.25 1531.75 2929.25 1533.1C2929.25 1534.3 2928.87 1535.42 2927.97 1536.4L2908.66 1556.72C2906.56 1559.05 2902.96 1559.05 2900.86 1556.72L2882.37 1536.4C2880.57 1534.37 2880.72 1531.3 2882.67 1529.5C2884.7 1527.7 2887.77 1527.77 2889.57 1529.8L2899.88 1541.43C2899.88 1527.56 2899.91 1522.73 2899.95 1516.99C2899.98 1512.31 2900.01 1507.01 2900.03 1495.68C2900.04 1492.99 2902.22 1490.82 2904.91 1490.82C2907.6 1490.82 2909.79 1493 2909.78 1495.7L2909.66 1541.45L2920.77 1529.8C2922.57 1527.85 2925.65 1527.7 2927.67 1529.5ZM2975.29 1512.44C2976.34 1511.47 2976.86 1510.19 2976.86 1508.84C2976.86 1507.64 2976.49 1506.52 2975.59 1505.54L2956.27 1485.22C2954.17 1482.89 2950.57 1482.89 2948.47 1485.22L2929.99 1505.54C2928.19 1507.57 2928.34 1510.64 2930.29 1512.44C2932.31 1514.24 2935.39 1514.17 2937.19 1512.14L2947.5 1500.51C2947.5 1514.14 2947.53 1518.98 2947.56 1524.54C2947.59 1529.26 2947.63 1534.49 2947.65 1546.07C2947.65 1548.76 2949.83 1550.94 2952.52 1550.94C2955.22 1550.94 2957.4 1548.75 2957.4 1546.05L2957.27 1500.48L2968.39 1512.14C2970.19 1514.09 2973.26 1514.24 2975.29 1512.44Z" fill="black"/>
</g>
</g>
<g id="Heavy-L">
<g id="Solid / Arrows Vertical Solid_2">
<path id="Shape_2" fill-rule="evenodd" clip-rule="evenodd" d="M2565.5 1521C2565.5 1558.28 2595.72 1588.5 2633 1588.5C2670.28 1588.5 2700.5 1558.28 2700.5 1521C2700.5 1483.72 2670.28 1453.5 2633 1453.5C2595.72 1453.5 2565.5 1483.72 2565.5 1521ZM2631.67 1529.5C2632.72 1530.47 2633.25 1531.75 2633.25 1533.1C2633.25 1534.3 2632.87 1535.42 2631.97 1536.4L2612.66 1556.72C2610.56 1559.05 2606.96 1559.05 2604.86 1556.72L2586.37 1536.4C2584.57 1534.37 2584.72 1531.3 2586.67 1529.5C2588.7 1527.7 2591.77 1527.77 2593.57 1529.8L2603.88 1541.43C2603.88 1527.56 2603.91 1522.73 2603.95 1516.99C2603.98 1512.31 2604.01 1507.01 2604.03 1495.68C2604.04 1492.99 2606.22 1490.82 2608.91 1490.82C2611.6 1490.82 2613.79 1493 2613.78 1495.7L2613.66 1541.45L2624.77 1529.8C2626.57 1527.85 2629.65 1527.7 2631.67 1529.5ZM2679.29 1512.44C2680.34 1511.47 2680.86 1510.19 2680.86 1508.84C2680.86 1507.64 2680.49 1506.52 2679.59 1505.54L2660.27 1485.22C2658.17 1482.89 2654.57 1482.89 2652.47 1485.22L2633.99 1505.54C2632.19 1507.57 2632.34 1510.64 2634.29 1512.44C2636.31 1514.24 2639.39 1514.17 2641.19 1512.14L2651.5 1500.51C2651.5 1514.14 2651.53 1518.98 2651.56 1524.54C2651.59 1529.26 2651.63 1534.49 2651.65 1546.07C2651.65 1548.76 2653.83 1550.94 2656.52 1550.94C2659.22 1550.94 2661.4 1548.75 2661.4 1546.05L2661.27 1500.48L2672.39 1512.14C2674.19 1514.09 2677.26 1514.24 2679.29 1512.44Z" fill="black"/>
</g>
</g>
<g id="Bold-L">
<g id="Solid / Arrows Vertical Solid_3">
<path id="Shape_3" fill-rule="evenodd" clip-rule="evenodd" d="M2269.5 1521C2269.5 1558.28 2299.72 1588.5 2337 1588.5C2374.28 1588.5 2404.5 1558.28 2404.5 1521C2404.5 1483.72 2374.28 1453.5 2337 1453.5C2299.72 1453.5 2269.5 1483.72 2269.5 1521ZM2335.67 1529.5C2336.72 1530.47 2337.25 1531.75 2337.25 1533.1C2337.25 1534.3 2336.87 1535.42 2335.97 1536.4L2316.66 1556.72C2314.56 1559.05 2310.96 1559.05 2308.86 1556.72L2290.37 1536.4C2288.57 1534.37 2288.72 1531.3 2290.67 1529.5C2292.7 1527.7 2295.77 1527.77 2297.57 1529.8L2307.88 1541.43C2307.88 1527.56 2307.91 1522.73 2307.95 1516.99C2307.98 1512.31 2308.01 1507.01 2308.03 1495.68C2308.04 1492.99 2310.22 1490.82 2312.91 1490.82C2315.6 1490.82 2317.79 1493 2317.78 1495.7L2317.66 1541.45L2328.77 1529.8C2330.57 1527.85 2333.65 1527.7 2335.67 1529.5ZM2383.29 1512.44C2384.34 1511.47 2384.86 1510.19 2384.86 1508.84C2384.86 1507.64 2384.49 1506.52 2383.59 1505.54L2364.27 1485.22C2362.17 1482.89 2358.57 1482.89 2356.47 1485.22L2337.99 1505.54C2336.19 1507.57 2336.34 1510.64 2338.29 1512.44C2340.31 1514.24 2343.39 1514.17 2345.19 1512.14L2355.5 1500.51C2355.5 1514.14 2355.53 1518.98 2355.56 1524.54C2355.59 1529.26 2355.63 1534.49 2355.65 1546.07C2355.65 1548.76 2357.83 1550.94 2360.52 1550.94C2363.22 1550.94 2365.4 1548.75 2365.4 1546.05L2365.27 1500.48L2376.39 1512.14C2378.19 1514.09 2381.26 1514.24 2383.29 1512.44Z" fill="black"/>
</g>
</g>
<g id="Semibold-L">
<g id="Solid / Arrows Vertical Solid_4">
<path id="Shape_4" fill-rule="evenodd" clip-rule="evenodd" d="M1973.5 1521C1973.5 1558.28 2003.72 1588.5 2041 1588.5C2078.28 1588.5 2108.5 1558.28 2108.5 1521C2108.5 1483.72 2078.28 1453.5 2041 1453.5C2003.72 1453.5 1973.5 1483.72 1973.5 1521ZM2039.67 1529.5C2040.72 1530.47 2041.25 1531.75 2041.25 1533.1C2041.25 1534.3 2040.87 1535.42 2039.97 1536.4L2020.66 1556.72C2018.56 1559.05 2014.96 1559.05 2012.86 1556.72L1994.37 1536.4C1992.57 1534.37 1992.72 1531.3 1994.67 1529.5C1996.7 1527.7 1999.77 1527.77 2001.57 1529.8L2011.88 1541.43C2011.88 1527.56 2011.91 1522.73 2011.95 1516.99C2011.98 1512.31 2012.01 1507.01 2012.03 1495.68C2012.04 1492.99 2014.22 1490.82 2016.91 1490.82C2019.6 1490.82 2021.79 1493 2021.78 1495.7L2021.66 1541.45L2032.77 1529.8C2034.57 1527.85 2037.65 1527.7 2039.67 1529.5ZM2087.29 1512.44C2088.34 1511.47 2088.86 1510.19 2088.86 1508.84C2088.86 1507.64 2088.49 1506.52 2087.59 1505.54L2068.27 1485.22C2066.17 1482.89 2062.57 1482.89 2060.47 1485.22L2041.99 1505.54C2040.19 1507.57 2040.34 1510.64 2042.29 1512.44C2044.31 1514.24 2047.39 1514.17 2049.19 1512.14L2059.5 1500.51C2059.5 1514.14 2059.53 1518.98 2059.56 1524.54C2059.59 1529.26 2059.63 1534.49 2059.65 1546.07C2059.65 1548.76 2061.83 1550.94 2064.52 1550.94C2067.22 1550.94 2069.4 1548.75 2069.4 1546.05L2069.27 1500.48L2080.39 1512.14C2082.19 1514.09 2085.26 1514.24 2087.29 1512.44Z" fill="black"/>
</g>
</g>
<g id="Medium-L">
<g id="Solid / Arrows Vertical Solid_5">
<path id="Shape_5" fill-rule="evenodd" clip-rule="evenodd" d="M1677.5 1521C1677.5 1558.28 1707.72 1588.5 1745 1588.5C1782.28 1588.5 1812.5 1558.28 1812.5 1521C1812.5 1483.72 1782.28 1453.5 1745 1453.5C1707.72 1453.5 1677.5 1483.72 1677.5 1521ZM1743.67 1529.5C1744.72 1530.47 1745.25 1531.75 1745.25 1533.1C1745.25 1534.3 1744.87 1535.42 1743.97 1536.4L1724.66 1556.72C1722.56 1559.05 1718.96 1559.05 1716.86 1556.72L1698.37 1536.4C1696.57 1534.37 1696.72 1531.3 1698.67 1529.5C1700.7 1527.7 1703.77 1527.77 1705.57 1529.8L1715.88 1541.43C1715.88 1527.56 1715.91 1522.73 1715.95 1516.99C1715.98 1512.31 1716.01 1507.01 1716.03 1495.68C1716.04 1492.99 1718.22 1490.82 1720.91 1490.82C1723.6 1490.82 1725.79 1493 1725.78 1495.7L1725.66 1541.45L1736.77 1529.8C1738.57 1527.85 1741.65 1527.7 1743.67 1529.5ZM1791.29 1512.44C1792.34 1511.47 1792.86 1510.19 1792.86 1508.84C1792.86 1507.64 1792.49 1506.52 1791.59 1505.54L1772.27 1485.22C1770.17 1482.89 1766.57 1482.89 1764.47 1485.22L1745.99 1505.54C1744.19 1507.57 1744.34 1510.64 1746.29 1512.44C1748.31 1514.24 1751.39 1514.17 1753.19 1512.14L1763.5 1500.51C1763.5 1514.14 1763.53 1518.98 1763.56 1524.54C1763.59 1529.26 1763.63 1534.49 1763.65 1546.07C1763.65 1548.76 1765.83 1550.94 1768.52 1550.94C1771.22 1550.94 1773.4 1548.75 1773.4 1546.05L1773.27 1500.48L1784.39 1512.14C1786.19 1514.09 1789.26 1514.24 1791.29 1512.44Z" fill="black"/>
</g>
</g>
<g id="Regular-L">
<g id="Solid / Arrows Vertical Solid_6">
<path id="Shape_6" fill-rule="evenodd" clip-rule="evenodd" d="M1381.5 1521C1381.5 1558.28 1411.72 1588.5 1449 1588.5C1486.28 1588.5 1516.5 1558.28 1516.5 1521C1516.5 1483.72 1486.28 1453.5 1449 1453.5C1411.72 1453.5 1381.5 1483.72 1381.5 1521ZM1447.67 1529.5C1448.72 1530.47 1449.25 1531.75 1449.25 1533.1C1449.25 1534.3 1448.87 1535.42 1447.97 1536.4L1428.66 1556.72C1426.56 1559.05 1422.96 1559.05 1420.86 1556.72L1402.37 1536.4C1400.57 1534.37 1400.72 1531.3 1402.67 1529.5C1404.7 1527.7 1407.77 1527.77 1409.57 1529.8L1419.88 1541.43C1419.88 1527.56 1419.91 1522.73 1419.95 1516.99C1419.98 1512.31 1420.01 1507.01 1420.03 1495.68C1420.04 1492.99 1422.22 1490.82 1424.91 1490.82C1427.6 1490.82 1429.79 1493 1429.78 1495.7L1429.66 1541.45L1440.77 1529.8C1442.57 1527.85 1445.65 1527.7 1447.67 1529.5ZM1495.29 1512.44C1496.34 1511.47 1496.86 1510.19 1496.86 1508.84C1496.86 1507.64 1496.49 1506.52 1495.59 1505.54L1476.27 1485.22C1474.17 1482.89 1470.57 1482.89 1468.47 1485.22L1449.99 1505.54C1448.19 1507.57 1448.34 1510.64 1450.29 1512.44C1452.31 1514.24 1455.39 1514.17 1457.19 1512.14L1467.5 1500.51C1467.5 1514.14 1467.53 1518.98 1467.56 1524.54C1467.59 1529.26 1467.63 1534.49 1467.65 1546.07C1467.65 1548.76 1469.83 1550.94 1472.52 1550.94C1475.22 1550.94 1477.4 1548.75 1477.4 1546.05L1477.27 1500.48L1488.39 1512.14C1490.19 1514.09 1493.26 1514.24 1495.29 1512.44Z" fill="black"/>
</g>
</g>
<g id="Light-L">
<g id="Solid / Arrows Vertical Solid_7">
<path id="Shape_7" fill-rule="evenodd" clip-rule="evenodd" d="M1085.5 1521C1085.5 1558.28 1115.72 1588.5 1153 1588.5C1190.28 1588.5 1220.5 1558.28 1220.5 1521C1220.5 1483.72 1190.28 1453.5 1153 1453.5C1115.72 1453.5 1085.5 1483.72 1085.5 1521ZM1151.67 1529.5C1152.72 1530.47 1153.25 1531.75 1153.25 1533.1C1153.25 1534.3 1152.87 1535.42 1151.97 1536.4L1132.66 1556.72C1130.56 1559.05 1126.96 1559.05 1124.86 1556.72L1106.37 1536.4C1104.57 1534.37 1104.72 1531.3 1106.67 1529.5C1108.7 1527.7 1111.77 1527.77 1113.57 1529.8L1123.88 1541.43C1123.88 1527.56 1123.91 1522.73 1123.95 1516.99C1123.98 1512.31 1124.01 1507.01 1124.03 1495.68C1124.04 1492.99 1126.22 1490.82 1128.91 1490.82C1131.6 1490.82 1133.79 1493 1133.78 1495.7L1133.66 1541.45L1144.77 1529.8C1146.57 1527.85 1149.65 1527.7 1151.67 1529.5ZM1199.29 1512.44C1200.34 1511.47 1200.86 1510.19 1200.86 1508.84C1200.86 1507.64 1200.49 1506.52 1199.59 1505.54L1180.27 1485.22C1178.17 1482.89 1174.57 1482.89 1172.47 1485.22L1153.99 1505.54C1152.19 1507.57 1152.34 1510.64 1154.29 1512.44C1156.31 1514.24 1159.39 1514.17 1161.19 1512.14L1171.5 1500.51C1171.5 1514.14 1171.53 1518.98 1171.56 1524.54C1171.59 1529.26 1171.63 1534.49 1171.65 1546.07C1171.65 1548.76 1173.83 1550.94 1176.52 1550.94C1179.22 1550.94 1181.4 1548.75 1181.4 1546.05L1181.27 1500.48L1192.39 1512.14C1194.19 1514.09 1197.26 1514.24 1199.29 1512.44Z" fill="black"/>
</g>
</g>
<g id="Thin-L">
<g id="Solid / Arrows Vertical Solid_8">
<path id="Shape_8" fill-rule="evenodd" clip-rule="evenodd" d="M789.5 1521C789.5 1558.28 819.721 1588.5 857 1588.5C894.279 1588.5 924.5 1558.28 924.5 1521C924.5 1483.72 894.279 1453.5 857 1453.5C819.721 1453.5 789.5 1483.72 789.5 1521ZM855.674 1529.5C856.724 1530.47 857.249 1531.75 857.249 1533.1C857.249 1534.3 856.874 1535.42 855.974 1536.4L836.658 1556.72C834.558 1559.05 830.958 1559.05 828.858 1556.72L810.374 1536.4C808.574 1534.37 808.724 1531.3 810.674 1529.5C812.699 1527.7 815.774 1527.77 817.574 1529.8L827.883 1541.43C827.883 1527.56 827.912 1522.73 827.948 1516.99C827.977 1512.31 828.009 1507.01 828.032 1495.68C828.038 1492.99 830.219 1490.82 832.908 1490.82C835.604 1490.82 837.788 1493 837.783 1495.7L837.655 1541.45L848.774 1529.8C850.574 1527.85 853.649 1527.7 855.674 1529.5ZM903.288 1512.44C904.338 1511.47 904.863 1510.19 904.863 1508.84C904.863 1507.64 904.488 1506.52 903.588 1505.54L884.272 1485.22C882.172 1482.89 878.572 1482.89 876.472 1485.22L857.988 1505.54C856.188 1507.57 856.338 1510.64 858.288 1512.44C860.313 1514.24 863.388 1514.17 865.188 1512.14L875.497 1500.51C875.497 1514.14 875.527 1518.98 875.563 1524.54C875.593 1529.26 875.627 1534.49 875.647 1546.07C875.652 1548.76 877.833 1550.94 880.522 1550.94C883.218 1550.94 885.402 1548.75 885.398 1546.05L885.269 1500.48L896.388 1512.14C898.188 1514.09 901.263 1514.24 903.288 1512.44Z" fill="black"/>
</g>
</g>
<g id="Ultralight-L">
<g id="Solid / Arrows Vertical Solid_9">
<path id="Shape_9" fill-rule="evenodd" clip-rule="evenodd" d="M493.5 1521C493.5 1558.28 523.721 1588.5 561 1588.5C598.279 1588.5 628.5 1558.28 628.5 1521C628.5 1483.72 598.279 1453.5 561 1453.5C523.721 1453.5 493.5 1483.72 493.5 1521ZM559.674 1529.5C560.724 1530.47 561.249 1531.75 561.249 1533.1C561.249 1534.3 560.874 1535.42 559.974 1536.4L540.658 1556.72C538.558 1559.05 534.958 1559.05 532.858 1556.72L514.374 1536.4C512.574 1534.37 512.724 1531.3 514.674 1529.5C516.699 1527.7 519.774 1527.77 521.574 1529.8L531.883 1541.43C531.883 1527.56 531.912 1522.73 531.948 1516.99C531.977 1512.31 532.009 1507.01 532.032 1495.68C532.038 1492.99 534.219 1490.82 536.908 1490.82C539.604 1490.82 541.788 1493 541.783 1495.7L541.655 1541.45L552.774 1529.8C554.574 1527.85 557.649 1527.7 559.674 1529.5ZM607.288 1512.44C608.338 1511.47 608.863 1510.19 608.863 1508.84C608.863 1507.64 608.488 1506.52 607.588 1505.54L588.272 1485.22C586.172 1482.89 582.572 1482.89 580.472 1485.22L561.988 1505.54C560.188 1507.57 560.338 1510.64 562.288 1512.44C564.313 1514.24 567.388 1514.17 569.188 1512.14L579.497 1500.51C579.497 1514.14 579.527 1518.98 579.563 1524.54C579.593 1529.26 579.627 1534.49 579.647 1546.07C579.652 1548.76 581.833 1550.94 584.522 1550.94C587.218 1550.94 589.402 1548.75 589.398 1546.05L589.269 1500.48L600.388 1512.14C602.188 1514.09 605.263 1514.24 607.288 1512.44Z" fill="black"/>
</g>
</g>
<g id="Black-M">
<g id="Solid / Arrows Vertical Solid_10">
<path id="Shape_10" fill-rule="evenodd" clip-rule="evenodd" d="M2876.5 1091C2876.5 1119.99 2900.01 1143.5 2929 1143.5C2957.99 1143.5 2981.5 1119.99 2981.5 1091C2981.5 1062.01 2957.99 1038.5 2929 1038.5C2900.01 1038.5 2876.5 1062.01 2876.5 1091ZM2927.97 1097.61C2928.79 1098.37 2929.19 1099.36 2929.19 1100.41C2929.19 1101.34 2928.9 1102.22 2928.2 1102.97L2913.18 1118.78C2911.54 1120.59 2908.74 1120.59 2907.11 1118.78L2892.74 1102.97C2891.34 1101.4 2891.45 1099.01 2892.97 1097.61C2894.54 1096.21 2896.94 1096.27 2898.34 1097.84L2906.35 1106.89C2906.35 1096.1 2906.38 1092.35 2906.4 1087.88C2906.43 1084.24 2906.45 1080.12 2906.47 1071.31C2906.47 1069.22 2908.17 1067.52 2910.26 1067.52C2912.36 1067.52 2914.06 1069.22 2914.05 1071.32L2913.95 1106.91L2922.6 1097.84C2924 1096.32 2926.39 1096.21 2927.97 1097.61ZM2965 1084.34C2965.82 1083.58 2966.23 1082.59 2966.23 1081.54C2966.23 1080.61 2965.94 1079.73 2965.24 1078.98L2950.21 1063.17C2948.58 1061.36 2945.78 1061.36 2944.14 1063.17L2929.77 1078.98C2928.37 1080.55 2928.48 1082.94 2930 1084.34C2931.58 1085.74 2933.97 1085.68 2935.37 1084.11L2943.39 1075.06C2943.39 1085.67 2943.41 1089.43 2943.44 1093.75C2943.46 1097.42 2943.49 1101.49 2943.5 1110.5C2943.51 1112.59 2945.2 1114.28 2947.3 1114.28C2949.39 1114.28 2951.09 1112.58 2951.09 1110.48L2950.99 1075.04L2959.64 1084.11C2961.04 1085.63 2963.43 1085.74 2965 1084.34Z" fill="black"/>
</g>
</g>
<g id="Heavy-M">
<g id="Solid / Arrows Vertical Solid_11">
<path id="Shape_11" fill-rule="evenodd" clip-rule="evenodd" d="M2580.5 1091C2580.5 1119.99 2604.01 1143.5 2633 1143.5C2661.99 1143.5 2685.5 1119.99 2685.5 1091C2685.5 1062.01 2661.99 1038.5 2633 1038.5C2604.01 1038.5 2580.5 1062.01 2580.5 1091ZM2631.97 1097.61C2632.79 1098.37 2633.19 1099.36 2633.19 1100.41C2633.19 1101.34 2632.9 1102.22 2632.2 1102.97L2617.18 1118.78C2615.54 1120.59 2612.74 1120.59 2611.11 1118.78L2596.74 1102.97C2595.34 1101.4 2595.45 1099.01 2596.97 1097.61C2598.54 1096.21 2600.94 1096.27 2602.34 1097.84L2610.35 1106.89C2610.35 1096.1 2610.38 1092.35 2610.4 1087.88C2610.43 1084.24 2610.45 1080.12 2610.47 1071.31C2610.47 1069.22 2612.17 1067.52 2614.26 1067.52C2616.36 1067.52 2618.06 1069.22 2618.05 1071.32L2617.95 1106.91L2626.6 1097.84C2628 1096.32 2630.39 1096.21 2631.97 1097.61ZM2669 1084.34C2669.82 1083.58 2670.23 1082.59 2670.23 1081.54C2670.23 1080.61 2669.94 1079.73 2669.24 1078.98L2654.21 1063.17C2652.58 1061.36 2649.78 1061.36 2648.14 1063.17L2633.77 1078.98C2632.37 1080.55 2632.48 1082.94 2634 1084.34C2635.58 1085.74 2637.97 1085.68 2639.37 1084.11L2647.39 1075.06C2647.39 1085.67 2647.41 1089.43 2647.44 1093.75C2647.46 1097.42 2647.49 1101.49 2647.5 1110.5C2647.51 1112.59 2649.2 1114.28 2651.3 1114.28C2653.39 1114.28 2655.09 1112.58 2655.09 1110.48L2654.99 1075.04L2663.64 1084.11C2665.04 1085.63 2667.43 1085.74 2669 1084.34Z" fill="black"/>
</g>
</g>
<g id="Bold-M">
<g id="Solid / Arrows Vertical Solid_12">
<path id="Shape_12" fill-rule="evenodd" clip-rule="evenodd" d="M2284.5 1091C2284.5 1119.99 2308.01 1143.5 2337 1143.5C2365.99 1143.5 2389.5 1119.99 2389.5 1091C2389.5 1062.01 2365.99 1038.5 2337 1038.5C2308.01 1038.5 2284.5 1062.01 2284.5 1091ZM2335.97 1097.61C2336.79 1098.37 2337.19 1099.36 2337.19 1100.41C2337.19 1101.34 2336.9 1102.22 2336.2 1102.97L2321.18 1118.78C2319.54 1120.59 2316.74 1120.59 2315.11 1118.78L2300.74 1102.97C2299.34 1101.4 2299.45 1099.01 2300.97 1097.61C2302.54 1096.21 2304.94 1096.27 2306.34 1097.84L2314.35 1106.89C2314.35 1096.1 2314.38 1092.35 2314.4 1087.88C2314.43 1084.24 2314.45 1080.12 2314.47 1071.31C2314.47 1069.22 2316.17 1067.52 2318.26 1067.52C2320.36 1067.52 2322.06 1069.22 2322.05 1071.32L2321.95 1106.91L2330.6 1097.84C2332 1096.32 2334.39 1096.21 2335.97 1097.61ZM2373 1084.34C2373.82 1083.58 2374.23 1082.59 2374.23 1081.54C2374.23 1080.61 2373.94 1079.73 2373.24 1078.98L2358.21 1063.17C2356.58 1061.36 2353.78 1061.36 2352.14 1063.17L2337.77 1078.98C2336.37 1080.55 2336.48 1082.94 2338 1084.34C2339.58 1085.74 2341.97 1085.68 2343.37 1084.11L2351.39 1075.06C2351.39 1085.67 2351.41 1089.43 2351.44 1093.75C2351.46 1097.42 2351.49 1101.49 2351.5 1110.5C2351.51 1112.59 2353.2 1114.28 2355.3 1114.28C2357.39 1114.28 2359.09 1112.58 2359.09 1110.48L2358.99 1075.04L2367.64 1084.11C2369.04 1085.63 2371.43 1085.74 2373 1084.34Z" fill="black"/>
</g>
</g>
<g id="Semibold-M">
<g id="Solid / Arrows Vertical Solid_13">
<path id="Shape_13" fill-rule="evenodd" clip-rule="evenodd" d="M1988.5 1091C1988.5 1119.99 2012.01 1143.5 2041 1143.5C2069.99 1143.5 2093.5 1119.99 2093.5 1091C2093.5 1062.01 2069.99 1038.5 2041 1038.5C2012.01 1038.5 1988.5 1062.01 1988.5 1091ZM2039.97 1097.61C2040.79 1098.37 2041.19 1099.36 2041.19 1100.41C2041.19 1101.34 2040.9 1102.22 2040.2 1102.97L2025.18 1118.78C2023.54 1120.59 2020.74 1120.59 2019.11 1118.78L2004.74 1102.97C2003.34 1101.4 2003.45 1099.01 2004.97 1097.61C2006.54 1096.21 2008.94 1096.27 2010.34 1097.84L2018.35 1106.89C2018.35 1096.1 2018.38 1092.35 2018.4 1087.88C2018.43 1084.24 2018.45 1080.12 2018.47 1071.31C2018.47 1069.22 2020.17 1067.52 2022.26 1067.52C2024.36 1067.52 2026.06 1069.22 2026.05 1071.32L2025.95 1106.91L2034.6 1097.84C2036 1096.32 2038.39 1096.21 2039.97 1097.61ZM2077 1084.34C2077.82 1083.58 2078.23 1082.59 2078.23 1081.54C2078.23 1080.61 2077.94 1079.73 2077.24 1078.98L2062.21 1063.17C2060.58 1061.36 2057.78 1061.36 2056.14 1063.17L2041.77 1078.98C2040.37 1080.55 2040.48 1082.94 2042 1084.34C2043.58 1085.74 2045.97 1085.68 2047.37 1084.11L2055.39 1075.06C2055.39 1085.67 2055.41 1089.43 2055.44 1093.75C2055.46 1097.42 2055.49 1101.49 2055.5 1110.5C2055.51 1112.59 2057.2 1114.28 2059.3 1114.28C2061.39 1114.28 2063.09 1112.58 2063.09 1110.48L2062.99 1075.04L2071.64 1084.11C2073.04 1085.63 2075.43 1085.74 2077 1084.34Z" fill="black"/>
</g>
</g>
<g id="Medium-M">
<g id="Solid / Arrows Vertical Solid_14">
<path id="Shape_14" fill-rule="evenodd" clip-rule="evenodd" d="M1692.5 1091C1692.5 1119.99 1716.01 1143.5 1745 1143.5C1773.99 1143.5 1797.5 1119.99 1797.5 1091C1797.5 1062.01 1773.99 1038.5 1745 1038.5C1716.01 1038.5 1692.5 1062.01 1692.5 1091ZM1743.97 1097.61C1744.79 1098.37 1745.19 1099.36 1745.19 1100.41C1745.19 1101.34 1744.9 1102.22 1744.2 1102.97L1729.18 1118.78C1727.54 1120.59 1724.74 1120.59 1723.11 1118.78L1708.74 1102.97C1707.34 1101.4 1707.45 1099.01 1708.97 1097.61C1710.54 1096.21 1712.94 1096.27 1714.34 1097.84L1722.35 1106.89C1722.35 1096.1 1722.38 1092.35 1722.4 1087.88C1722.43 1084.24 1722.45 1080.12 1722.47 1071.31C1722.47 1069.22 1724.17 1067.52 1726.26 1067.52C1728.36 1067.52 1730.06 1069.22 1730.05 1071.32L1729.95 1106.91L1738.6 1097.84C1740 1096.32 1742.39 1096.21 1743.97 1097.61ZM1781 1084.34C1781.82 1083.58 1782.23 1082.59 1782.23 1081.54C1782.23 1080.61 1781.94 1079.73 1781.24 1078.98L1766.21 1063.17C1764.58 1061.36 1761.78 1061.36 1760.14 1063.17L1745.77 1078.98C1744.37 1080.55 1744.48 1082.94 1746 1084.34C1747.58 1085.74 1749.97 1085.68 1751.37 1084.11L1759.39 1075.06C1759.39 1085.67 1759.41 1089.43 1759.44 1093.75C1759.46 1097.42 1759.49 1101.49 1759.5 1110.5C1759.51 1112.59 1761.2 1114.28 1763.3 1114.28C1765.39 1114.28 1767.09 1112.58 1767.09 1110.48L1766.99 1075.04L1775.64 1084.11C1777.04 1085.63 1779.43 1085.74 1781 1084.34Z" fill="black"/>
</g>
</g>
<g id="Regular-M">
<g id="Solid / Arrows Vertical Solid_15">
<path id="Shape_15" fill-rule="evenodd" clip-rule="evenodd" d="M1396.5 1091C1396.5 1119.99 1420.01 1143.5 1449 1143.5C1477.99 1143.5 1501.5 1119.99 1501.5 1091C1501.5 1062.01 1477.99 1038.5 1449 1038.5C1420.01 1038.5 1396.5 1062.01 1396.5 1091ZM1447.97 1097.61C1448.79 1098.37 1449.19 1099.36 1449.19 1100.41C1449.19 1101.34 1448.9 1102.22 1448.2 1102.97L1433.18 1118.78C1431.54 1120.59 1428.74 1120.59 1427.11 1118.78L1412.74 1102.97C1411.34 1101.4 1411.45 1099.01 1412.97 1097.61C1414.54 1096.21 1416.94 1096.27 1418.34 1097.84L1426.35 1106.89C1426.35 1096.1 1426.38 1092.35 1426.4 1087.88C1426.43 1084.24 1426.45 1080.12 1426.47 1071.31C1426.47 1069.22 1428.17 1067.52 1430.26 1067.52C1432.36 1067.52 1434.06 1069.22 1434.05 1071.32L1433.95 1106.91L1442.6 1097.84C1444 1096.32 1446.39 1096.21 1447.97 1097.61ZM1485 1084.34C1485.82 1083.58 1486.23 1082.59 1486.23 1081.54C1486.23 1080.61 1485.94 1079.73 1485.24 1078.98L1470.21 1063.17C1468.58 1061.36 1465.78 1061.36 1464.14 1063.17L1449.77 1078.98C1448.37 1080.55 1448.48 1082.94 1450 1084.34C1451.58 1085.74 1453.97 1085.68 1455.37 1084.11L1463.39 1075.06C1463.39 1085.67 1463.41 1089.43 1463.44 1093.75C1463.46 1097.42 1463.49 1101.49 1463.5 1110.5C1463.51 1112.59 1465.2 1114.28 1467.3 1114.28C1469.39 1114.28 1471.09 1112.58 1471.09 1110.48L1470.99 1075.04L1479.64 1084.11C1481.04 1085.63 1483.43 1085.74 1485 1084.34Z" fill="black"/>
</g>
</g>
<g id="Light-M">
<g id="Solid / Arrows Vertical Solid_16">
<path id="Shape_16" fill-rule="evenodd" clip-rule="evenodd" d="M1100.5 1091C1100.5 1119.99 1124.01 1143.5 1153 1143.5C1181.99 1143.5 1205.5 1119.99 1205.5 1091C1205.5 1062.01 1181.99 1038.5 1153 1038.5C1124.01 1038.5 1100.5 1062.01 1100.5 1091ZM1151.97 1097.61C1152.79 1098.37 1153.19 1099.36 1153.19 1100.41C1153.19 1101.34 1152.9 1102.22 1152.2 1102.97L1137.18 1118.78C1135.54 1120.59 1132.74 1120.59 1131.11 1118.78L1116.74 1102.97C1115.34 1101.4 1115.45 1099.01 1116.97 1097.61C1118.54 1096.21 1120.94 1096.27 1122.34 1097.84L1130.35 1106.89C1130.35 1096.1 1130.38 1092.35 1130.4 1087.88C1130.43 1084.24 1130.45 1080.12 1130.47 1071.31C1130.47 1069.22 1132.17 1067.52 1134.26 1067.52C1136.36 1067.52 1138.06 1069.22 1138.05 1071.32L1137.95 1106.91L1146.6 1097.84C1148 1096.32 1150.39 1096.21 1151.97 1097.61ZM1189 1084.34C1189.82 1083.58 1190.23 1082.59 1190.23 1081.54C1190.23 1080.61 1189.94 1079.73 1189.24 1078.98L1174.21 1063.17C1172.58 1061.36 1169.78 1061.36 1168.14 1063.17L1153.77 1078.98C1152.37 1080.55 1152.48 1082.94 1154 1084.34C1155.58 1085.74 1157.97 1085.68 1159.37 1084.11L1167.39 1075.06C1167.39 1085.67 1167.41 1089.43 1167.44 1093.75C1167.46 1097.42 1167.49 1101.49 1167.5 1110.5C1167.51 1112.59 1169.2 1114.28 1171.3 1114.28C1173.39 1114.28 1175.09 1112.58 1175.09 1110.48L1174.99 1075.04L1183.64 1084.11C1185.04 1085.63 1187.43 1085.74 1189 1084.34Z" fill="black"/>
</g>
</g>
<g id="Thin-M">
<g id="Solid / Arrows Vertical Solid_17">
<path id="Shape_17" fill-rule="evenodd" clip-rule="evenodd" d="M804.5 1091C804.5 1119.99 828.005 1143.5 857 1143.5C885.995 1143.5 909.5 1119.99 909.5 1091C909.5 1062.01 885.995 1038.5 857 1038.5C828.005 1038.5 804.5 1062.01 804.5 1091ZM855.969 1097.61C856.785 1098.37 857.194 1099.36 857.194 1100.41C857.194 1101.34 856.902 1102.22 856.202 1102.97L841.178 1118.78C839.545 1120.59 836.745 1120.59 835.112 1118.78L820.735 1102.97C819.335 1101.4 819.452 1099.01 820.969 1097.61C822.544 1096.21 824.935 1096.27 826.335 1097.84L834.353 1106.89C834.353 1096.1 834.376 1092.35 834.404 1087.88C834.426 1084.24 834.452 1080.12 834.47 1071.31C834.474 1069.22 836.17 1067.52 838.262 1067.52C840.359 1067.52 842.057 1069.22 842.054 1071.32L841.954 1106.91L850.602 1097.84C852.002 1096.32 854.394 1096.21 855.969 1097.61ZM893.002 1084.34C893.818 1083.58 894.227 1082.59 894.227 1081.54C894.227 1080.61 893.935 1079.73 893.235 1078.98L878.211 1063.17C876.578 1061.36 873.778 1061.36 872.145 1063.17L857.768 1078.98C856.368 1080.55 856.485 1082.94 858.002 1084.34C859.577 1085.74 861.968 1085.68 863.368 1084.11L871.386 1075.06C871.386 1085.67 871.41 1089.43 871.438 1093.75C871.461 1097.42 871.487 1101.49 871.503 1110.5C871.507 1112.59 873.204 1114.28 875.295 1114.28C877.392 1114.28 879.091 1112.58 879.087 1110.48L878.987 1075.04L887.635 1084.11C889.035 1085.63 891.427 1085.74 893.002 1084.34Z" fill="black"/>
</g>
</g>
<g id="Ultralight-M">
<g id="Solid / Arrows Vertical Solid_18">
<path id="Shape_18" fill-rule="evenodd" clip-rule="evenodd" d="M508.5 1091C508.5 1119.99 532.005 1143.5 561 1143.5C589.995 1143.5 613.5 1119.99 613.5 1091C613.5 1062.01 589.995 1038.5 561 1038.5C532.005 1038.5 508.5 1062.01 508.5 1091ZM559.969 1097.61C560.785 1098.37 561.194 1099.36 561.194 1100.41C561.194 1101.34 560.902 1102.22 560.202 1102.97L545.178 1118.78C543.545 1120.59 540.745 1120.59 539.112 1118.78L524.735 1102.97C523.335 1101.4 523.452 1099.01 524.969 1097.61C526.544 1096.21 528.935 1096.27 530.335 1097.84L538.353 1106.89C538.353 1096.1 538.376 1092.35 538.404 1087.88C538.426 1084.24 538.452 1080.12 538.47 1071.31C538.474 1069.22 540.17 1067.52 542.262 1067.52C544.359 1067.52 546.057 1069.22 546.054 1071.32L545.954 1106.91L554.602 1097.84C556.002 1096.32 558.394 1096.21 559.969 1097.61ZM597.002 1084.34C597.818 1083.58 598.227 1082.59 598.227 1081.54C598.227 1080.61 597.935 1079.73 597.235 1078.98L582.211 1063.17C580.578 1061.36 577.778 1061.36 576.145 1063.17L561.768 1078.98C560.368 1080.55 560.485 1082.94 562.002 1084.34C563.577 1085.74 565.968 1085.68 567.368 1084.11L575.386 1075.06C575.386 1085.67 575.41 1089.43 575.438 1093.75C575.461 1097.42 575.487 1101.49 575.503 1110.5C575.507 1112.59 577.204 1114.28 579.295 1114.28C581.392 1114.28 583.091 1112.58 583.087 1110.48L582.987 1075.04L591.635 1084.11C593.035 1085.63 595.427 1085.74 597.002 1084.34Z" fill="black"/>
</g>
</g>
<g id="Black-S">
<g id="Solid / Arrows Vertical Solid_19">
<path id="Shape_19" fill-rule="evenodd" clip-rule="evenodd" d="M2891.5 661C2891.5 681.711 2908.29 698.5 2929 698.5C2949.71 698.5 2966.5 681.711 2966.5 661C2966.5 640.289 2949.71 623.5 2929 623.5C2908.29 623.5 2891.5 640.289 2891.5 661ZM2928.26 665.72C2928.85 666.262 2929.14 666.97 2929.14 667.72C2929.14 668.387 2928.93 669.012 2928.43 669.554L2917.7 680.845C2916.53 682.137 2914.53 682.137 2913.37 680.845L2903.1 669.554C2902.1 668.429 2902.18 666.72 2903.26 665.72C2904.39 664.72 2906.1 664.762 2907.1 665.887L2912.82 672.348C2912.82 664.643 2912.84 661.962 2912.86 658.775C2912.88 656.171 2912.89 653.228 2912.91 646.934C2912.91 645.44 2914.12 644.231 2915.62 644.231C2917.11 644.231 2918.33 645.446 2918.32 646.944L2918.25 672.364L2924.43 665.887C2925.43 664.804 2927.14 664.72 2928.26 665.72ZM2954.72 656.245C2955.3 655.703 2955.59 654.995 2955.59 654.245C2955.59 653.578 2955.38 652.953 2954.88 652.411L2944.15 641.12C2942.98 639.828 2940.98 639.828 2939.82 641.12L2929.55 652.411C2928.55 653.536 2928.63 655.245 2929.72 656.245C2930.84 657.245 2932.55 657.203 2933.55 656.078L2939.28 649.617C2939.28 657.191 2939.29 659.879 2939.31 662.966C2939.33 665.587 2939.35 668.495 2939.36 674.927C2939.36 676.421 2940.57 677.631 2942.07 677.631C2943.57 677.631 2944.78 676.415 2944.78 674.918L2944.71 649.601L2950.88 656.078C2951.88 657.161 2953.59 657.245 2954.72 656.245Z" fill="black"/>
</g>
</g>
<g id="Heavy-S">
<g id="Solid / Arrows Vertical Solid_20">
<path id="Shape_20" fill-rule="evenodd" clip-rule="evenodd" d="M2595.5 661C2595.5 681.711 2612.29 698.5 2633 698.5C2653.71 698.5 2670.5 681.711 2670.5 661C2670.5 640.289 2653.71 623.5 2633 623.5C2612.29 623.5 2595.5 640.289 2595.5 661ZM2632.26 665.72C2632.85 666.262 2633.14 666.97 2633.14 667.72C2633.14 668.387 2632.93 669.012 2632.43 669.554L2621.7 680.845C2620.53 682.137 2618.53 682.137 2617.37 680.845L2607.1 669.554C2606.1 668.429 2606.18 666.72 2607.26 665.72C2608.39 664.72 2610.1 664.762 2611.1 665.887L2616.82 672.348C2616.82 664.643 2616.84 661.962 2616.86 658.775C2616.88 656.171 2616.89 653.228 2616.91 646.934C2616.91 645.44 2618.12 644.231 2619.62 644.231C2621.11 644.231 2622.33 645.446 2622.32 646.944L2622.25 672.364L2628.43 665.887C2629.43 664.804 2631.14 664.72 2632.26 665.72ZM2658.72 656.245C2659.3 655.703 2659.59 654.995 2659.59 654.245C2659.59 653.578 2659.38 652.953 2658.88 652.411L2648.15 641.12C2646.98 639.828 2644.98 639.828 2643.82 641.12L2633.55 652.411C2632.55 653.536 2632.63 655.245 2633.72 656.245C2634.84 657.245 2636.55 657.203 2637.55 656.078L2643.28 649.617C2643.28 657.191 2643.29 659.879 2643.31 662.966C2643.33 665.587 2643.35 668.495 2643.36 674.927C2643.36 676.421 2644.57 677.631 2646.07 677.631C2647.57 677.631 2648.78 676.415 2648.78 674.918L2648.71 649.601L2654.88 656.078C2655.88 657.161 2657.59 657.245 2658.72 656.245Z" fill="black"/>
</g>
</g>
<g id="Bold-S">
<g id="Solid / Arrows Vertical Solid_21">
<path id="Shape_21" fill-rule="evenodd" clip-rule="evenodd" d="M2299.5 661C2299.5 681.711 2316.29 698.5 2337 698.5C2357.71 698.5 2374.5 681.711 2374.5 661C2374.5 640.289 2357.71 623.5 2337 623.5C2316.29 623.5 2299.5 640.289 2299.5 661ZM2336.26 665.72C2336.85 666.262 2337.14 666.97 2337.14 667.72C2337.14 668.387 2336.93 669.012 2336.43 669.554L2325.7 680.845C2324.53 682.137 2322.53 682.137 2321.37 680.845L2311.1 669.554C2310.1 668.429 2310.18 666.72 2311.26 665.72C2312.39 664.72 2314.1 664.762 2315.1 665.887L2320.82 672.348C2320.82 664.643 2320.84 661.962 2320.86 658.775C2320.88 656.171 2320.89 653.228 2320.91 646.934C2320.91 645.44 2322.12 644.231 2323.62 644.231C2325.11 644.231 2326.33 645.446 2326.32 646.944L2326.25 672.364L2332.43 665.887C2333.43 664.804 2335.14 664.72 2336.26 665.72ZM2362.72 656.245C2363.3 655.703 2363.59 654.995 2363.59 654.245C2363.59 653.578 2363.38 652.953 2362.88 652.411L2352.15 641.12C2350.98 639.828 2348.98 639.828 2347.82 641.12L2337.55 652.411C2336.55 653.536 2336.63 655.245 2337.72 656.245C2338.84 657.245 2340.55 657.203 2341.55 656.078L2347.28 649.617C2347.28 657.191 2347.29 659.879 2347.31 662.966C2347.33 665.587 2347.35 668.495 2347.36 674.927C2347.36 676.421 2348.57 677.631 2350.07 677.631C2351.57 677.631 2352.78 676.415 2352.78 674.918L2352.71 649.601L2358.88 656.078C2359.88 657.161 2361.59 657.245 2362.72 656.245Z" fill="black"/>
</g>
</g>
<g id="Semibold-S">
<g id="Solid / Arrows Vertical Solid_22">
<path id="Shape_22" fill-rule="evenodd" clip-rule="evenodd" d="M2003.5 661C2003.5 681.711 2020.29 698.5 2041 698.5C2061.71 698.5 2078.5 681.711 2078.5 661C2078.5 640.289 2061.71 623.5 2041 623.5C2020.29 623.5 2003.5 640.289 2003.5 661ZM2040.26 665.72C2040.85 666.262 2041.14 666.97 2041.14 667.72C2041.14 668.387 2040.93 669.012 2040.43 669.554L2029.7 680.845C2028.53 682.137 2026.53 682.137 2025.37 680.845L2015.1 669.554C2014.1 668.429 2014.18 666.72 2015.26 665.72C2016.39 664.72 2018.1 664.762 2019.1 665.887L2024.82 672.348C2024.82 664.643 2024.84 661.962 2024.86 658.775C2024.88 656.171 2024.89 653.228 2024.91 646.934C2024.91 645.44 2026.12 644.231 2027.62 644.231C2029.11 644.231 2030.33 645.446 2030.32 646.944L2030.25 672.364L2036.43 665.887C2037.43 664.804 2039.14 664.72 2040.26 665.72ZM2066.72 656.245C2067.3 655.703 2067.59 654.995 2067.59 654.245C2067.59 653.578 2067.38 652.953 2066.88 652.411L2056.15 641.12C2054.98 639.828 2052.98 639.828 2051.82 641.12L2041.55 652.411C2040.55 653.536 2040.63 655.245 2041.72 656.245C2042.84 657.245 2044.55 657.203 2045.55 656.078L2051.28 649.617C2051.28 657.191 2051.29 659.879 2051.31 662.966C2051.33 665.587 2051.35 668.495 2051.36 674.927C2051.36 676.421 2052.57 677.631 2054.07 677.631C2055.57 677.631 2056.78 676.415 2056.78 674.918L2056.71 649.601L2062.88 656.078C2063.88 657.161 2065.59 657.245 2066.72 656.245Z" fill="black"/>
</g>
</g>
<g id="Medium-S">
<g id="Solid / Arrows Vertical Solid_23">
<path id="Shape_23" fill-rule="evenodd" clip-rule="evenodd" d="M1707.5 661C1707.5 681.711 1724.29 698.5 1745 698.5C1765.71 698.5 1782.5 681.711 1782.5 661C1782.5 640.289 1765.71 623.5 1745 623.5C1724.29 623.5 1707.5 640.289 1707.5 661ZM1744.26 665.72C1744.85 666.262 1745.14 666.97 1745.14 667.72C1745.14 668.387 1744.93 669.012 1744.43 669.554L1733.7 680.845C1732.53 682.137 1730.53 682.137 1729.37 680.845L1719.1 669.554C1718.1 668.429 1718.18 666.72 1719.26 665.72C1720.39 664.72 1722.1 664.762 1723.1 665.887L1728.82 672.348C1728.82 664.643 1728.84 661.962 1728.86 658.775C1728.88 656.171 1728.89 653.228 1728.91 646.934C1728.91 645.44 1730.12 644.231 1731.62 644.231C1733.11 644.231 1734.33 645.446 1734.32 646.944L1734.25 672.364L1740.43 665.887C1741.43 664.804 1743.14 664.72 1744.26 665.72ZM1770.72 656.245C1771.3 655.703 1771.59 654.995 1771.59 654.245C1771.59 653.578 1771.38 652.953 1770.88 652.411L1760.15 641.12C1758.98 639.828 1756.98 639.828 1755.82 641.12L1745.55 652.411C1744.55 653.536 1744.63 655.245 1745.72 656.245C1746.84 657.245 1748.55 657.203 1749.55 656.078L1755.28 649.617C1755.28 657.191 1755.29 659.879 1755.31 662.966C1755.33 665.587 1755.35 668.495 1755.36 674.927C1755.36 676.421 1756.57 677.631 1758.07 677.631C1759.57 677.631 1760.78 676.415 1760.78 674.918L1760.71 649.601L1766.88 656.078C1767.88 657.161 1769.59 657.245 1770.72 656.245Z" fill="black"/>
</g>
</g>
<g id="Regular-S">
<g id="Solid / Arrows Vertical Solid_24">
<path id="Shape_24" fill-rule="evenodd" clip-rule="evenodd" d="M1411.5 661C1411.5 681.711 1428.29 698.5 1449 698.5C1469.71 698.5 1486.5 681.711 1486.5 661C1486.5 640.289 1469.71 623.5 1449 623.5C1428.29 623.5 1411.5 640.289 1411.5 661ZM1448.26 665.72C1448.85 666.262 1449.14 666.97 1449.14 667.72C1449.14 668.387 1448.93 669.012 1448.43 669.554L1437.7 680.845C1436.53 682.137 1434.53 682.137 1433.37 680.845L1423.1 669.554C1422.1 668.429 1422.18 666.72 1423.26 665.72C1424.39 664.72 1426.1 664.762 1427.1 665.887L1432.82 672.348C1432.82 664.643 1432.84 661.962 1432.86 658.775C1432.88 656.171 1432.89 653.228 1432.91 646.934C1432.91 645.44 1434.12 644.231 1435.62 644.231C1437.11 644.231 1438.33 645.446 1438.32 646.944L1438.25 672.364L1444.43 665.887C1445.43 664.804 1447.14 664.72 1448.26 665.72ZM1474.72 656.245C1475.3 655.703 1475.59 654.995 1475.59 654.245C1475.59 653.578 1475.38 652.953 1474.88 652.411L1464.15 641.12C1462.98 639.828 1460.98 639.828 1459.82 641.12L1449.55 652.411C1448.55 653.536 1448.63 655.245 1449.72 656.245C1450.84 657.245 1452.55 657.203 1453.55 656.078L1459.28 649.617C1459.28 657.191 1459.29 659.879 1459.31 662.966C1459.33 665.587 1459.35 668.495 1459.36 674.927C1459.36 676.421 1460.57 677.631 1462.07 677.631C1463.57 677.631 1464.78 676.415 1464.78 674.918L1464.71 649.601L1470.88 656.078C1471.88 657.161 1473.59 657.245 1474.72 656.245Z" fill="black"/>
</g>
</g>
<g id="Light-S">
<g id="Solid / Arrows Vertical Solid_25">
<path id="Shape_25" fill-rule="evenodd" clip-rule="evenodd" d="M1115.5 661C1115.5 681.711 1132.29 698.5 1153 698.5C1173.71 698.5 1190.5 681.711 1190.5 661C1190.5 640.289 1173.71 623.5 1153 623.5C1132.29 623.5 1115.5 640.289 1115.5 661ZM1152.26 665.72C1152.85 666.262 1153.14 666.97 1153.14 667.72C1153.14 668.387 1152.93 669.012 1152.43 669.554L1141.7 680.845C1140.53 682.137 1138.53 682.137 1137.37 680.845L1127.1 669.554C1126.1 668.429 1126.18 666.72 1127.26 665.72C1128.39 664.72 1130.1 664.762 1131.1 665.887L1136.82 672.348C1136.82 664.643 1136.84 661.962 1136.86 658.775C1136.88 656.171 1136.89 653.228 1136.91 646.934C1136.91 645.44 1138.12 644.231 1139.62 644.231C1141.11 644.231 1142.33 645.446 1142.32 646.944L1142.25 672.364L1148.43 665.887C1149.43 664.804 1151.14 664.72 1152.26 665.72ZM1178.72 656.245C1179.3 655.703 1179.59 654.995 1179.59 654.245C1179.59 653.578 1179.38 652.953 1178.88 652.411L1168.15 641.12C1166.98 639.828 1164.98 639.828 1163.82 641.12L1153.55 652.411C1152.55 653.536 1152.63 655.245 1153.72 656.245C1154.84 657.245 1156.55 657.203 1157.55 656.078L1163.28 649.617C1163.28 657.191 1163.29 659.879 1163.31 662.966C1163.33 665.587 1163.35 668.495 1163.36 674.927C1163.36 676.421 1164.57 677.631 1166.07 677.631C1167.57 677.631 1168.78 676.415 1168.78 674.918L1168.71 649.601L1174.88 656.078C1175.88 657.161 1177.59 657.245 1178.72 656.245Z" fill="black"/>
</g>
</g>
<g id="Thin-S">
<g id="Solid / Arrows Vertical Solid_26">
<path id="Shape_26" fill-rule="evenodd" clip-rule="evenodd" d="M819.5 661C819.5 681.711 836.289 698.5 857 698.5C877.711 698.5 894.5 681.711 894.5 661C894.5 640.289 877.711 623.5 857 623.5C836.289 623.5 819.5 640.289 819.5 661ZM856.263 665.72C856.847 666.262 857.138 666.97 857.138 667.72C857.138 668.387 856.93 669.012 856.43 669.554L845.699 680.845C844.532 682.137 842.532 682.137 841.365 680.845L831.097 669.554C830.097 668.429 830.18 666.72 831.263 665.72C832.388 664.72 834.097 664.762 835.097 665.887L840.824 672.348C840.824 664.643 840.84 661.962 840.86 658.775C840.876 656.171 840.894 653.228 840.907 646.934C840.91 645.44 842.122 644.231 843.616 644.231C845.113 644.231 846.327 645.446 846.324 646.944L846.253 672.364L852.43 665.887C853.43 664.804 855.138 664.72 856.263 665.72ZM882.715 656.245C883.299 655.703 883.59 654.995 883.59 654.245C883.59 653.578 883.382 652.953 882.882 652.411L872.151 641.12C870.984 639.828 868.984 639.828 867.818 641.12L857.549 652.411C856.549 653.536 856.632 655.245 857.715 656.245C858.84 657.245 860.549 657.203 861.549 656.078L867.276 649.617C867.276 657.191 867.293 659.879 867.313 662.966C867.33 665.587 867.348 668.495 867.36 674.927C867.362 676.421 868.574 677.631 870.068 677.631C871.566 677.631 872.779 676.415 872.776 674.918L872.705 649.601L878.882 656.078C879.882 657.161 881.59 657.245 882.715 656.245Z" fill="black"/>
</g>
</g>
<g id="Ultralight-S">
<g id="Solid / Arrows Vertical Solid_27">
<path id="Shape_27" fill-rule="evenodd" clip-rule="evenodd" d="M523.5 661C523.5 681.711 540.289 698.5 561 698.5C581.711 698.5 598.5 681.711 598.5 661C598.5 640.289 581.711 623.5 561 623.5C540.289 623.5 523.5 640.289 523.5 661ZM560.263 665.72C560.847 666.262 561.138 666.97 561.138 667.72C561.138 668.387 560.93 669.012 560.43 669.554L549.699 680.845C548.532 682.137 546.532 682.137 545.365 680.845L535.097 669.554C534.097 668.429 534.18 666.72 535.263 665.72C536.388 664.72 538.097 664.762 539.097 665.887L544.824 672.348C544.824 664.643 544.84 661.962 544.86 658.775C544.876 656.171 544.894 653.228 544.907 646.934C544.91 645.44 546.122 644.231 547.616 644.231C549.113 644.231 550.327 645.446 550.324 646.944L550.253 672.364L556.43 665.887C557.43 664.804 559.138 664.72 560.263 665.72ZM586.715 656.245C587.299 655.703 587.59 654.995 587.59 654.245C587.59 653.578 587.382 652.953 586.882 652.411L576.151 641.12C574.984 639.828 572.984 639.828 571.818 641.12L561.549 652.411C560.549 653.536 560.632 655.245 561.715 656.245C562.84 657.245 564.549 657.203 565.549 656.078L571.276 649.617C571.276 657.191 571.293 659.879 571.313 662.966C571.33 665.587 571.348 668.495 571.36 674.927C571.362 676.421 572.574 677.631 574.068 677.631C575.566 677.631 576.779 676.415 576.776 674.918L576.705 649.601L582.882 656.078C583.882 657.161 585.59 657.245 586.715 656.245Z" fill="black"/>
</g>
</g>
</g>
</g>
<defs>
<clipPath id="clip0_805_27002">
<rect width="3300" height="2200" fill="white"/>
</clipPath>
</defs>
</svg>
