<svg width="3300" height="2200" viewBox="0 0 3300 2200" fill="none" xmlns="http://www.w3.org/2000/svg">
<rect width="3300" height="2200" fill="#E5E5E5"/>
<g id="System / Solid / Settings" clip-path="url(#clip0_805_27002)">
<g id="Notes">
<path id="artboard" d="M3300 0H0V2200H3300V0Z" fill="white"/>
<path id="Vector" d="M263 292H3036" stroke="black" stroke-width="0.5"/>
<text id="Weight/Scale Variations" fill="black" xml:space="preserve" style="white-space: pre" font-family="Roboto" font-size="12" letter-spacing="0em"><tspan x="263" y="321.102">Weight/Scale Variations</tspan></text>
<text id="Ultralight" fill="black" xml:space="preserve" style="white-space: pre" font-family="Roboto" font-size="12" letter-spacing="0em"><tspan x="535.211" y="321.102">Ultralight</tspan></text>
<text id="Thin" fill="black" xml:space="preserve" style="white-space: pre" font-family="Roboto" font-size="12" letter-spacing="0em"><tspan x="844.422" y="321.102">Thin</tspan></text>
<text id="Light" fill="black" xml:space="preserve" style="white-space: pre" font-family="Roboto" font-size="12" letter-spacing="0em"><tspan x="1139.63" y="321.102">Light</tspan></text>
<text id="Regular" fill="black" xml:space="preserve" style="white-space: pre" font-family="Roboto" font-size="12" letter-spacing="0em"><tspan x="1429.34" y="321.102">Regular</tspan></text>
<text id="Medium" fill="black" xml:space="preserve" style="white-space: pre" font-family="Roboto" font-size="12" letter-spacing="0em"><tspan x="1724.56" y="321.102">Medium</tspan></text>
<text id="Semibold" fill="black" xml:space="preserve" style="white-space: pre" font-family="Roboto" font-size="12" letter-spacing="0em"><tspan x="2017.77" y="321.102">Semibold</tspan></text>
<text id="Bold" fill="black" xml:space="preserve" style="white-space: pre" font-family="Roboto" font-size="12" letter-spacing="0em"><tspan x="2327.48" y="321.102">Bold</tspan></text>
<text id="Heavy" fill="black" xml:space="preserve" style="white-space: pre" font-family="Roboto" font-size="12" letter-spacing="0em"><tspan x="2620.19" y="321.102">Heavy</tspan></text>
<text id="Black" fill="black" xml:space="preserve" style="white-space: pre" font-family="Roboto" font-size="12" letter-spacing="0em"><tspan x="2918.4" y="321.102">Black</tspan></text>
<path id="Vector_2" d="M263 1903H3036" stroke="black" stroke-width="0.5"/>
<g id="Group">
<path id="Vector_3" d="M272.248 1933.83C276.555 1933.83 280.139 1930.26 280.139 1925.95C280.139 1921.64 276.545 1918.07 272.238 1918.07C267.941 1918.07 264.367 1921.64 264.367 1925.95C264.367 1930.26 267.951 1933.83 272.248 1933.83ZM272.248 1932.35C268.703 1932.35 265.871 1929.51 265.871 1925.95C265.871 1922.4 268.693 1919.55 272.238 1919.55C275.793 1919.55 278.635 1922.4 278.644 1925.95C278.654 1929.51 275.803 1932.35 272.248 1932.35ZM272.229 1929.57C272.697 1929.57 272.971 1929.26 272.971 1928.74V1926.68H275.197C275.695 1926.68 276.037 1926.43 276.037 1925.96C276.037 1925.48 275.715 1925.22 275.197 1925.22H272.971V1922.99C272.971 1922.47 272.697 1922.15 272.229 1922.15C271.76 1922.15 271.506 1922.49 271.506 1922.99V1925.22H269.299C268.781 1925.22 268.449 1925.48 268.449 1925.96C268.449 1926.43 268.801 1926.68 269.299 1926.68H271.506V1928.74C271.506 1929.24 271.76 1929.57 272.229 1929.57Z" fill="black"/>
</g>
<g id="Group_2">
<path id="Vector_4" d="M293.215 1935.91C298.664 1935.91 303.176 1931.4 303.176 1925.95C303.176 1920.51 298.654 1915.99 293.205 1915.99C287.766 1915.99 283.254 1920.51 283.254 1925.95C283.254 1931.4 287.775 1935.91 293.215 1935.91ZM293.215 1934.25C288.605 1934.25 284.924 1930.56 284.924 1925.95C284.924 1921.35 288.596 1917.65 293.205 1917.65C297.814 1917.65 301.506 1921.35 301.516 1925.95C301.525 1930.56 297.824 1934.25 293.215 1934.25ZM293.195 1930.59C293.713 1930.59 294.025 1930.23 294.025 1929.66V1926.77H297.082C297.629 1926.77 298.01 1926.49 298.01 1925.97C298.01 1925.44 297.648 1925.14 297.082 1925.14H294.025V1922.07C294.025 1921.5 293.713 1921.14 293.195 1921.14C292.678 1921.14 292.385 1921.52 292.385 1922.07V1925.14H289.338C288.771 1925.14 288.4 1925.44 288.4 1925.97C288.4 1926.49 288.791 1926.77 289.338 1926.77H292.385V1929.66C292.385 1930.21 292.678 1930.59 293.195 1930.59Z" fill="black"/>
</g>
<g id="Group_3">
<path id="Vector_5" d="M319.895 1938.67C326.857 1938.67 332.619 1932.92 332.619 1925.96C332.619 1918.99 326.848 1913.24 319.885 1913.24C312.932 1913.24 307.18 1918.99 307.18 1925.96C307.18 1932.92 312.941 1938.67 319.895 1938.67ZM319.895 1936.86C313.859 1936.86 309.006 1931.99 309.006 1925.96C309.006 1919.92 313.85 1915.06 319.885 1915.06C325.93 1915.06 330.783 1919.92 330.793 1925.96C330.803 1931.99 325.939 1936.86 319.895 1936.86ZM319.875 1931.93C320.441 1931.93 320.793 1931.54 320.793 1930.94V1926.87H325.031C325.617 1926.87 326.037 1926.53 326.037 1925.98C326.037 1925.4 325.647 1925.06 325.031 1925.06H320.793V1920.81C320.793 1920.2 320.441 1919.8 319.875 1919.8C319.309 1919.8 318.986 1920.21 318.986 1920.81V1925.06H314.758C314.143 1925.06 313.732 1925.4 313.732 1925.98C313.732 1926.53 314.162 1926.87 314.758 1926.87H318.986V1930.94C318.986 1931.52 319.309 1931.93 319.875 1931.93Z" fill="black"/>
</g>
<text id="Design Variations" fill="black" xml:space="preserve" style="white-space: pre" font-family="Roboto" font-size="12" letter-spacing="0em"><tspan x="263" y="1952.1">Design Variations</tspan></text>
<text id="Symbols are supported in up to nine weights and three scales." fill="black" xml:space="preserve" style="white-space: pre" font-family="Roboto" font-size="12" letter-spacing="0em"><tspan x="263" y="1970.1">Symbols are supported in up to nine weights and three scales.</tspan></text>
<text id="For optimal layout with text and other symbols, vertically align" fill="black" xml:space="preserve" style="white-space: pre" font-family="Roboto" font-size="12" letter-spacing="0em"><tspan x="263" y="1988.1">For optimal layout with text and other symbols, vertically align</tspan></text>
<text id="symbols with the adjacent text." fill="black" xml:space="preserve" style="white-space: pre" font-family="Roboto" font-size="12" letter-spacing="0em"><tspan x="263" y="2006.1">symbols with the adjacent text.</tspan></text>
<path id="Vector_6" opacity="0.4" d="M779 1919H776V1933H779V1919Z" fill="#00AEEF"/>
<g id="Group_4">
<path id="Vector_7" d="M789.525 1933H791.371L786.176 1918.91H784.437L779.242 1933H781.088L782.504 1928.96H788.109L789.525 1933ZM785.277 1921.04H785.336L787.592 1927.47H783.021L785.277 1921.04Z" fill="black"/>
</g>
<path id="Vector_8" opacity="0.4" d="M794.617 1919H791.617V1933H794.617V1919Z" fill="#00AEEF"/>
<text id="Margins" fill="black" xml:space="preserve" style="white-space: pre" font-family="Roboto" font-size="12" letter-spacing="0em"><tspan x="776" y="1952.1">Margins</tspan></text>
<text id="Leading and trailing margins on the left and right side of each symbol" fill="black" xml:space="preserve" style="white-space: pre" font-family="Roboto" font-size="12" letter-spacing="0em"><tspan x="776" y="1970.1">Leading and trailing margins on the left and right side of each symbol</tspan></text>
<text id="can be adjusted by modifying the width of the blue rectangles." fill="black" xml:space="preserve" style="white-space: pre" font-family="Roboto" font-size="12" letter-spacing="0em"><tspan x="776" y="1988.1">can be adjusted by modifying the width of the blue rectangles.</tspan></text>
<text id="Modifications are automatically applied proportionally to all" fill="black" xml:space="preserve" style="white-space: pre" font-family="Roboto" font-size="12" letter-spacing="0em"><tspan x="776" y="2006.1">Modifications are automatically applied proportionally to all</tspan></text>
<text id="scales and weights." fill="black" xml:space="preserve" style="white-space: pre" font-family="Roboto" font-size="12" letter-spacing="0em"><tspan x="776" y="2024.1">scales and weights.</tspan></text>
<g id="Group_5">
<path id="Vector_9" d="M1291.83 1936.11L1293.37 1937.66C1294.22 1938.49 1295.19 1938.42 1296.06 1937.46L1306.27 1926.34C1306.7 1926.63 1307.1 1926.62 1307.56 1926.52L1308.61 1926.31L1309.3 1927L1309.25 1927.52C1309.19 1928.05 1309.35 1928.47 1309.85 1928.97L1310.66 1929.78C1311.17 1930.28 1311.82 1930.31 1312.3 1929.83L1315.55 1926.58C1316.03 1926.1 1316.01 1925.45 1315.5 1924.94L1314.68 1924.12C1314.19 1923.62 1313.77 1923.45 1313.24 1923.53L1312.71 1923.58L1312.06 1922.92L1312.34 1921.78C1312.49 1921.21 1312.34 1920.74 1311.71 1920.14L1309.3 1917.75C1305.76 1914.22 1301.23 1914.33 1298.11 1917.46C1297.69 1917.89 1297.64 1918.48 1297.92 1918.91C1298.15 1919.28 1298.63 1919.5 1299.27 1919.34C1300.79 1918.96 1302.3 1919.07 1303.78 1920.08L1303.16 1921.66C1302.93 1922.25 1302.94 1922.73 1303.18 1923.16L1292.02 1933.44C1291.08 1934.31 1290.97 1935.25 1291.83 1936.11ZM1299.67 1917.85C1302.34 1915.86 1305.65 1916.17 1308.05 1918.58L1310.68 1921.19C1310.91 1921.43 1310.94 1921.61 1310.88 1921.91L1310.5 1923.47L1312.08 1925.04L1313.04 1924.95C1313.33 1924.92 1313.41 1924.94 1313.64 1925.17L1314.26 1925.79L1311.51 1928.54L1310.88 1927.92C1310.66 1927.7 1310.64 1927.6 1310.67 1927.32L1310.76 1926.36L1309.19 1924.8L1307.57 1925.11C1307.29 1925.17 1307.14 1925.17 1306.91 1924.92L1304.73 1922.75C1304.51 1922.51 1304.48 1922.37 1304.61 1922.05L1305.55 1919.78C1303.95 1918.24 1301.84 1917.39 1299.8 1918.05C1299.71 1918.08 1299.64 1918.06 1299.61 1918.02C1299.59 1917.97 1299.59 1917.92 1299.67 1917.85ZM1293.1 1935.41C1292.61 1934.91 1292.79 1934.61 1293.12 1934.31L1304.08 1924.19L1305.31 1925.42L1295.15 1936.35C1294.85 1936.68 1294.47 1936.78 1294.07 1936.38L1293.1 1935.41Z" fill="black"/>
</g>
<text id="Exporting" fill="black" xml:space="preserve" style="white-space: pre" font-family="Roboto" font-size="12" letter-spacing="0em"><tspan x="1289" y="1952.1">Exporting</tspan></text>
<text id="Symbols should be outlined when exporting to ensure the" fill="black" xml:space="preserve" style="white-space: pre" font-family="Roboto" font-size="12" letter-spacing="0em"><tspan x="1289" y="1970.1">Symbols should be outlined when exporting to ensure the</tspan></text>
<text id="design is preserved when submitting to Xcode." fill="black" xml:space="preserve" style="white-space: pre" font-family="Roboto" font-size="12" letter-spacing="0em"><tspan x="1289" y="1988.1">design is preserved when submitting to Xcode.</tspan></text>
<text id="template-version" fill="black" xml:space="preserve" style="white-space: pre" font-family="Roboto" font-size="12" letter-spacing="0em"><tspan x="2958" y="1932.1">Template v.1.0</tspan></text>
<text id="Generated from pencil.circle" fill="black" xml:space="preserve" style="white-space: pre" font-family="Roboto" font-size="12" letter-spacing="0em"><tspan x="2885" y="1950.1">Generated from pencil.circle</tspan></text>
<text id="Typeset at 100 points" fill="black" xml:space="preserve" style="white-space: pre" font-family="Roboto" font-size="12" letter-spacing="0em"><tspan x="2921" y="1968.1">Typeset at 100 points</tspan></text>
<text id="Small" fill="black" xml:space="preserve" style="white-space: pre" font-family="Roboto" font-size="12" letter-spacing="0em"><tspan x="263" y="725.102">Small</tspan></text>
<text id="Medium_2" fill="black" xml:space="preserve" style="white-space: pre" font-family="Roboto" font-size="12" letter-spacing="0em"><tspan x="263" y="1155.1">Medium</tspan></text>
<text id="Large" fill="black" xml:space="preserve" style="white-space: pre" font-family="Roboto" font-size="12" letter-spacing="0em"><tspan x="263" y="1585.1">Large</tspan></text>
</g>
<g id="Guides">
<g id="H-reference">
<path id="Vector_10" d="M393.932 695.998H396.666L369.566 625.539H367.076L339.977 695.998H342.662L351.94 671.535H384.703L393.932 695.998ZM368.199 628.908H368.443L383.824 669.289H352.818L368.199 628.908Z" fill="#27AAE1"/>
</g>
<path id="Baseline-S" d="M263 696H3036" stroke="#27AAE1" stroke-width="0.577"/>
<path id="Capline-S" d="M263 626H3036" stroke="#27AAE1" stroke-width="0.577"/>
<g id="H-reference_2">
<path id="Vector_11" d="M393.932 1126H396.666L369.566 1055.54H367.076L339.977 1126H342.662L351.94 1101.54H384.703L393.932 1126ZM368.199 1058.91H368.443L383.824 1099.29H352.818L368.199 1058.91Z" fill="#27AAE1"/>
</g>
<path id="Baseline-M" d="M263 1126H3036" stroke="#27AAE1" stroke-width="0.577"/>
<path id="Capline-M" d="M263 1056H3036" stroke="#27AAE1" stroke-width="0.577"/>
<g id="H-reference_3">
<path id="Vector_12" d="M393.932 1556H396.666L369.566 1485.54H367.076L339.977 1556H342.662L351.94 1531.54H384.703L393.932 1556ZM368.199 1488.91H368.443L383.824 1529.29H352.818L368.199 1488.91Z" fill="#27AAE1"/>
</g>
<g id="Group 1">
<path id="Baseline-L" d="M263 1556H3036" stroke="#27AAE1" stroke-width="0.577"/>
<path id="Capline-L" d="M263 1486H3036" stroke="#27AAE1" stroke-width="0.577"/>
</g>
<path id="left-margin" opacity="0.4" d="M1399.04 1030.79H1390.3V1150.12H1399.04V1030.79Z" fill="#00AEEF"/>
<path id="right-margin" opacity="0.4" d="M1508.39 1030.79H1499.65V1150.12H1508.39V1030.79Z" fill="#00AEEF"/>
</g>
<g id="Symbols">
<g id="Black-L">
<g id="Solid / Settings Solid">
<path id="Shape" fill-rule="evenodd" clip-rule="evenodd" d="M2908.2 1465.01C2909.12 1458.43 2914.74 1453.53 2921.38 1453.53H2935.74C2942.3 1453.53 2947.88 1458.31 2948.89 1464.8C2950.19 1473.18 2959.13 1478.22 2967.1 1474.98C2973.25 1472.48 2980.31 1474.9 2983.63 1480.66L2990.8 1493.08C2994.08 1498.77 2992.73 1505.99 2987.62 1510.11C2981.01 1515.43 2981.12 1525.69 2987.91 1530.97C2993.15 1535.05 2994.58 1542.37 2991.25 1548.13L2984.08 1560.55C2980.8 1566.24 2973.86 1568.68 2967.75 1566.31C2959.42 1563.08 2950.25 1568.38 2948.89 1577.2C2947.88 1583.68 2942.3 1588.47 2935.74 1588.47H2921.38C2914.74 1588.47 2909.12 1583.57 2908.2 1576.99C2907.02 1568.47 2898.19 1563.24 2890.28 1566.31C2884.16 1568.68 2877.22 1566.24 2873.94 1560.55L2866.77 1548.13C2863.45 1542.37 2864.88 1535.05 2870.12 1530.97C2876.91 1525.69 2877.02 1515.43 2870.4 1510.11C2865.29 1505.99 2863.94 1498.77 2867.22 1493.08L2874.4 1480.66C2877.72 1474.9 2884.77 1472.48 2890.93 1474.98C2898.56 1478.08 2907.07 1473.17 2908.2 1465.01ZM2929.01 1550.99C2945.58 1550.99 2959.01 1537.56 2959.01 1520.99C2959.01 1504.42 2945.58 1490.99 2929.01 1490.99C2912.44 1490.99 2899.01 1504.42 2899.01 1520.99C2899.01 1537.56 2912.44 1550.99 2929.01 1550.99Z" fill="black"/>
</g>
</g>
<g id="Heavy-L">
<g id="Solid / Settings Solid_2">
<path id="Shape_2" fill-rule="evenodd" clip-rule="evenodd" d="M2612.2 1465.01C2613.12 1458.43 2618.74 1453.53 2625.38 1453.53H2639.74C2646.3 1453.53 2651.88 1458.31 2652.89 1464.8C2654.19 1473.18 2663.13 1478.22 2671.1 1474.98C2677.25 1472.48 2684.31 1474.9 2687.63 1480.66L2694.8 1493.08C2698.08 1498.77 2696.73 1505.99 2691.62 1510.11C2685.01 1515.43 2685.12 1525.69 2691.91 1530.97C2697.15 1535.05 2698.58 1542.37 2695.25 1548.13L2688.08 1560.55C2684.8 1566.24 2677.86 1568.68 2671.75 1566.31C2663.42 1563.08 2654.25 1568.38 2652.89 1577.2C2651.88 1583.68 2646.3 1588.47 2639.74 1588.47H2625.38C2618.74 1588.47 2613.12 1583.57 2612.2 1576.99C2611.02 1568.47 2602.19 1563.24 2594.28 1566.31C2588.16 1568.68 2581.22 1566.24 2577.94 1560.55L2570.77 1548.13C2567.45 1542.37 2568.88 1535.05 2574.12 1530.97C2580.91 1525.69 2581.02 1515.43 2574.4 1510.11C2569.29 1505.99 2567.94 1498.77 2571.22 1493.08L2578.4 1480.66C2581.72 1474.9 2588.77 1472.48 2594.93 1474.98C2602.56 1478.08 2611.07 1473.17 2612.2 1465.01ZM2633.01 1550.99C2649.58 1550.99 2663.01 1537.56 2663.01 1520.99C2663.01 1504.42 2649.58 1490.99 2633.01 1490.99C2616.44 1490.99 2603.01 1504.42 2603.01 1520.99C2603.01 1537.56 2616.44 1550.99 2633.01 1550.99Z" fill="black"/>
</g>
</g>
<g id="Bold-L">
<g id="Solid / Settings Solid_3">
<path id="Shape_3" fill-rule="evenodd" clip-rule="evenodd" d="M2316.2 1465.01C2317.12 1458.43 2322.74 1453.53 2329.38 1453.53H2343.74C2350.3 1453.53 2355.88 1458.31 2356.89 1464.8C2358.19 1473.18 2367.13 1478.22 2375.1 1474.98C2381.25 1472.48 2388.31 1474.9 2391.63 1480.66L2398.8 1493.08C2402.08 1498.77 2400.73 1505.99 2395.62 1510.11C2389.01 1515.43 2389.12 1525.69 2395.91 1530.97C2401.15 1535.05 2402.58 1542.37 2399.25 1548.13L2392.08 1560.55C2388.8 1566.24 2381.86 1568.68 2375.75 1566.31C2367.42 1563.08 2358.25 1568.38 2356.89 1577.2C2355.88 1583.68 2350.3 1588.47 2343.74 1588.47H2329.38C2322.74 1588.47 2317.12 1583.57 2316.2 1576.99C2315.02 1568.47 2306.19 1563.24 2298.28 1566.31C2292.16 1568.68 2285.22 1566.24 2281.94 1560.55L2274.77 1548.13C2271.45 1542.37 2272.88 1535.05 2278.12 1530.97C2284.91 1525.69 2285.02 1515.43 2278.4 1510.11C2273.29 1505.99 2271.94 1498.77 2275.22 1493.08L2282.4 1480.66C2285.72 1474.9 2292.77 1472.48 2298.93 1474.98C2306.56 1478.08 2315.07 1473.17 2316.2 1465.01ZM2337.01 1550.99C2353.58 1550.99 2367.01 1537.56 2367.01 1520.99C2367.01 1504.42 2353.58 1490.99 2337.01 1490.99C2320.44 1490.99 2307.01 1504.42 2307.01 1520.99C2307.01 1537.56 2320.44 1550.99 2337.01 1550.99Z" fill="black"/>
</g>
</g>
<g id="Semibold-L">
<g id="Solid / Settings Solid_4">
<path id="Shape_4" fill-rule="evenodd" clip-rule="evenodd" d="M2020.2 1465.01C2021.12 1458.43 2026.74 1453.53 2033.38 1453.53H2047.74C2054.3 1453.53 2059.88 1458.31 2060.89 1464.8C2062.19 1473.18 2071.13 1478.22 2079.1 1474.98C2085.25 1472.48 2092.31 1474.9 2095.63 1480.66L2102.8 1493.08C2106.08 1498.77 2104.73 1505.99 2099.62 1510.11C2093.01 1515.43 2093.12 1525.69 2099.91 1530.97C2105.15 1535.05 2106.58 1542.37 2103.25 1548.13L2096.08 1560.55C2092.8 1566.24 2085.86 1568.68 2079.75 1566.31C2071.42 1563.08 2062.25 1568.38 2060.89 1577.2C2059.88 1583.68 2054.3 1588.47 2047.74 1588.47H2033.38C2026.74 1588.47 2021.12 1583.57 2020.2 1576.99C2019.02 1568.47 2010.19 1563.24 2002.28 1566.31C1996.16 1568.68 1989.22 1566.24 1985.94 1560.55L1978.77 1548.13C1975.45 1542.37 1976.88 1535.05 1982.12 1530.97C1988.91 1525.69 1989.02 1515.43 1982.4 1510.11C1977.29 1505.99 1975.94 1498.77 1979.22 1493.08L1986.4 1480.66C1989.72 1474.9 1996.77 1472.48 2002.93 1474.98C2010.56 1478.08 2019.07 1473.17 2020.2 1465.01ZM2041.01 1550.99C2057.58 1550.99 2071.01 1537.56 2071.01 1520.99C2071.01 1504.42 2057.58 1490.99 2041.01 1490.99C2024.44 1490.99 2011.01 1504.42 2011.01 1520.99C2011.01 1537.56 2024.44 1550.99 2041.01 1550.99Z" fill="black"/>
</g>
</g>
<g id="Medium-L">
<g id="Solid / Settings Solid_5">
<path id="Shape_5" fill-rule="evenodd" clip-rule="evenodd" d="M1724.2 1465.01C1725.12 1458.43 1730.74 1453.53 1737.38 1453.53H1751.74C1758.3 1453.53 1763.88 1458.31 1764.89 1464.8C1766.19 1473.18 1775.13 1478.22 1783.1 1474.98C1789.25 1472.48 1796.31 1474.9 1799.63 1480.66L1806.8 1493.08C1810.08 1498.77 1808.73 1505.99 1803.62 1510.11C1797.01 1515.43 1797.12 1525.69 1803.91 1530.97C1809.15 1535.05 1810.58 1542.37 1807.25 1548.13L1800.08 1560.55C1796.8 1566.24 1789.86 1568.68 1783.75 1566.31C1775.42 1563.08 1766.25 1568.38 1764.89 1577.2C1763.88 1583.68 1758.3 1588.47 1751.74 1588.47H1737.38C1730.74 1588.47 1725.12 1583.57 1724.2 1576.99C1723.02 1568.47 1714.19 1563.24 1706.28 1566.31C1700.16 1568.68 1693.22 1566.24 1689.94 1560.55L1682.77 1548.13C1679.45 1542.37 1680.88 1535.05 1686.12 1530.97C1692.91 1525.69 1693.02 1515.43 1686.4 1510.11C1681.29 1505.99 1679.94 1498.77 1683.22 1493.08L1690.4 1480.66C1693.72 1474.9 1700.77 1472.48 1706.93 1474.98C1714.56 1478.08 1723.07 1473.17 1724.2 1465.01ZM1745.01 1550.99C1761.58 1550.99 1775.01 1537.56 1775.01 1520.99C1775.01 1504.42 1761.58 1490.99 1745.01 1490.99C1728.44 1490.99 1715.01 1504.42 1715.01 1520.99C1715.01 1537.56 1728.44 1550.99 1745.01 1550.99Z" fill="black"/>
</g>
</g>
<g id="Regular-L">
<g id="Solid / Settings Solid_6">
<path id="Shape_6" fill-rule="evenodd" clip-rule="evenodd" d="M1428.2 1465.01C1429.12 1458.43 1434.74 1453.53 1441.38 1453.53H1455.74C1462.3 1453.53 1467.88 1458.31 1468.89 1464.8C1470.19 1473.18 1479.13 1478.22 1487.1 1474.98C1493.25 1472.48 1500.31 1474.9 1503.63 1480.66L1510.8 1493.08C1514.08 1498.77 1512.73 1505.99 1507.62 1510.11C1501.01 1515.43 1501.12 1525.69 1507.91 1530.97C1513.15 1535.05 1514.58 1542.37 1511.25 1548.13L1504.08 1560.55C1500.8 1566.24 1493.86 1568.68 1487.75 1566.31C1479.42 1563.08 1470.25 1568.38 1468.89 1577.2C1467.88 1583.68 1462.3 1588.47 1455.74 1588.47H1441.38C1434.74 1588.47 1429.12 1583.57 1428.2 1576.99C1427.02 1568.47 1418.19 1563.24 1410.28 1566.31C1404.16 1568.68 1397.22 1566.24 1393.94 1560.55L1386.77 1548.13C1383.45 1542.37 1384.88 1535.05 1390.12 1530.97C1396.91 1525.69 1397.02 1515.43 1390.4 1510.11C1385.29 1505.99 1383.94 1498.77 1387.22 1493.08L1394.4 1480.66C1397.72 1474.9 1404.77 1472.48 1410.93 1474.98C1418.56 1478.08 1427.07 1473.17 1428.2 1465.01ZM1449.01 1550.99C1465.58 1550.99 1479.01 1537.56 1479.01 1520.99C1479.01 1504.42 1465.58 1490.99 1449.01 1490.99C1432.44 1490.99 1419.01 1504.42 1419.01 1520.99C1419.01 1537.56 1432.44 1550.99 1449.01 1550.99Z" fill="black"/>
</g>
</g>
<g id="Light-L">
<g id="Solid / Settings Solid_7">
<path id="Shape_7" fill-rule="evenodd" clip-rule="evenodd" d="M1132.2 1465.01C1133.12 1458.43 1138.74 1453.53 1145.38 1453.53H1159.74C1166.3 1453.53 1171.88 1458.31 1172.89 1464.8C1174.19 1473.18 1183.13 1478.22 1191.1 1474.98C1197.25 1472.48 1204.31 1474.9 1207.63 1480.66L1214.8 1493.08C1218.08 1498.77 1216.73 1505.99 1211.62 1510.11C1205.01 1515.43 1205.12 1525.69 1211.91 1530.97C1217.15 1535.05 1218.58 1542.37 1215.25 1548.13L1208.08 1560.55C1204.8 1566.24 1197.86 1568.68 1191.75 1566.31C1183.42 1563.08 1174.25 1568.38 1172.89 1577.2C1171.88 1583.68 1166.3 1588.47 1159.74 1588.47H1145.38C1138.74 1588.47 1133.12 1583.57 1132.2 1576.99C1131.02 1568.47 1122.19 1563.24 1114.28 1566.31C1108.16 1568.68 1101.22 1566.24 1097.94 1560.55L1090.77 1548.13C1087.45 1542.37 1088.88 1535.05 1094.12 1530.97C1100.91 1525.69 1101.02 1515.43 1094.4 1510.11C1089.29 1505.99 1087.94 1498.77 1091.22 1493.08L1098.4 1480.66C1101.72 1474.9 1108.77 1472.48 1114.93 1474.98C1122.56 1478.08 1131.07 1473.17 1132.2 1465.01ZM1153.01 1550.99C1169.58 1550.99 1183.01 1537.56 1183.01 1520.99C1183.01 1504.42 1169.58 1490.99 1153.01 1490.99C1136.44 1490.99 1123.01 1504.42 1123.01 1520.99C1123.01 1537.56 1136.44 1550.99 1153.01 1550.99Z" fill="black"/>
</g>
</g>
<g id="Thin-L">
<g id="Solid / Settings Solid_8">
<path id="Shape_8" fill-rule="evenodd" clip-rule="evenodd" d="M836.203 1465.01C837.116 1458.43 842.742 1453.53 849.384 1453.53H863.736C870.298 1453.53 875.88 1458.31 876.886 1464.8C878.187 1473.18 887.125 1478.22 895.096 1474.98C901.251 1472.48 908.306 1474.9 911.628 1480.66L918.803 1493.08C922.084 1498.77 920.733 1505.99 915.62 1510.11C909.008 1515.43 909.117 1525.69 915.905 1530.97C921.147 1535.05 922.576 1542.37 919.255 1548.13L912.079 1560.55C908.798 1566.24 901.864 1568.68 895.745 1566.31C887.424 1563.08 878.254 1568.38 876.886 1577.2C875.88 1583.68 870.298 1588.47 863.736 1588.47H849.384C842.742 1588.47 837.116 1583.57 836.203 1576.99C835.02 1568.47 826.19 1563.24 818.278 1566.31C812.159 1568.68 805.225 1566.24 801.944 1560.55L794.768 1548.13C791.447 1542.37 792.876 1535.05 798.118 1530.97C804.906 1525.69 805.015 1515.43 798.403 1510.11C793.29 1505.99 791.939 1498.77 795.22 1493.08L802.395 1480.66C805.717 1474.9 812.772 1472.48 818.927 1474.98C826.56 1478.08 835.07 1473.17 836.203 1465.01ZM857.012 1550.99C873.58 1550.99 887.012 1537.56 887.012 1520.99C887.012 1504.42 873.58 1490.99 857.012 1490.99C840.443 1490.99 827.012 1504.42 827.012 1520.99C827.012 1537.56 840.443 1550.99 857.012 1550.99Z" fill="black"/>
</g>
</g>
<g id="Ultralight-L">
<g id="Solid / Settings Solid_9">
<path id="Shape_9" fill-rule="evenodd" clip-rule="evenodd" d="M540.203 1465.01C541.116 1458.43 546.742 1453.53 553.384 1453.53H567.736C574.298 1453.53 579.88 1458.31 580.886 1464.8C582.187 1473.18 591.125 1478.22 599.096 1474.98C605.251 1472.48 612.306 1474.9 615.628 1480.66L622.803 1493.08C626.084 1498.77 624.733 1505.99 619.62 1510.11C613.008 1515.43 613.117 1525.69 619.905 1530.97C625.147 1535.05 626.576 1542.37 623.255 1548.13L616.079 1560.55C612.798 1566.24 605.864 1568.68 599.745 1566.31C591.424 1563.08 582.254 1568.38 580.886 1577.2C579.88 1583.68 574.298 1588.47 567.736 1588.47H553.384C546.742 1588.47 541.116 1583.57 540.203 1576.99C539.02 1568.47 530.19 1563.24 522.278 1566.31C516.159 1568.68 509.225 1566.24 505.944 1560.55L498.768 1548.13C495.447 1542.37 496.876 1535.05 502.118 1530.97C508.906 1525.69 509.015 1515.43 502.403 1510.11C497.29 1505.99 495.939 1498.77 499.22 1493.08L506.395 1480.66C509.717 1474.9 516.772 1472.48 522.927 1474.98C530.56 1478.08 539.07 1473.17 540.203 1465.01ZM561.012 1550.99C577.58 1550.99 591.012 1537.56 591.012 1520.99C591.012 1504.42 577.58 1490.99 561.012 1490.99C544.443 1490.99 531.012 1504.42 531.012 1520.99C531.012 1537.56 544.443 1550.99 561.012 1550.99Z" fill="black"/>
</g>
</g>
<g id="Black-M">
<g id="Solid / Settings Solid_10">
<path id="Shape_10" fill-rule="evenodd" clip-rule="evenodd" d="M2912.83 1047.45C2913.54 1042.33 2917.91 1038.52 2923.08 1038.52H2934.24C2939.34 1038.52 2943.69 1042.24 2944.47 1047.29C2945.48 1053.81 2952.43 1057.73 2958.63 1055.21C2963.42 1053.27 2968.91 1055.15 2971.49 1059.62L2977.07 1069.29C2979.62 1073.71 2978.57 1079.33 2974.59 1082.53C2969.45 1086.67 2969.54 1094.65 2974.82 1098.76C2978.89 1101.93 2980 1107.63 2977.42 1112.1L2971.84 1121.77C2969.29 1126.19 2963.9 1128.09 2959.14 1126.24C2952.66 1123.73 2945.53 1127.85 2944.47 1134.71C2943.69 1139.75 2939.34 1143.48 2934.24 1143.48H2923.08C2917.91 1143.48 2913.54 1139.66 2912.83 1134.55C2911.91 1127.92 2905.04 1123.86 2898.88 1126.24C2894.12 1128.09 2888.73 1126.19 2886.18 1121.77L2880.6 1112.1C2878.02 1107.63 2879.13 1101.93 2883.2 1098.76C2888.48 1094.65 2888.57 1086.67 2883.43 1082.53C2879.45 1079.33 2878.4 1073.71 2880.95 1069.29L2886.53 1059.62C2889.11 1055.15 2894.6 1053.27 2899.39 1055.21C2905.33 1057.62 2911.94 1053.8 2912.83 1047.45ZM2929.01 1114.33C2941.9 1114.33 2952.34 1103.88 2952.34 1090.99C2952.34 1078.11 2941.9 1067.66 2929.01 1067.66C2916.12 1067.66 2905.68 1078.11 2905.68 1090.99C2905.68 1103.88 2916.12 1114.33 2929.01 1114.33Z" fill="black"/>
</g>
</g>
<g id="Heavy-M">
<g id="Solid / Settings Solid_11">
<path id="Shape_11" fill-rule="evenodd" clip-rule="evenodd" d="M2616.83 1047.45C2617.54 1042.33 2621.91 1038.52 2627.08 1038.52H2638.24C2643.34 1038.52 2647.69 1042.24 2648.47 1047.29C2649.48 1053.81 2656.43 1057.73 2662.63 1055.21C2667.42 1053.27 2672.91 1055.15 2675.49 1059.62L2681.07 1069.29C2683.62 1073.71 2682.57 1079.33 2678.59 1082.53C2673.45 1086.67 2673.54 1094.65 2678.82 1098.76C2682.89 1101.93 2684 1107.63 2681.42 1112.1L2675.84 1121.77C2673.29 1126.19 2667.9 1128.09 2663.14 1126.24C2656.66 1123.73 2649.53 1127.85 2648.47 1134.71C2647.69 1139.75 2643.34 1143.48 2638.24 1143.48H2627.08C2621.91 1143.48 2617.54 1139.66 2616.83 1134.55C2615.91 1127.92 2609.04 1123.86 2602.88 1126.24C2598.12 1128.09 2592.73 1126.19 2590.18 1121.77L2584.6 1112.1C2582.02 1107.63 2583.13 1101.93 2587.2 1098.76C2592.48 1094.65 2592.57 1086.67 2587.43 1082.53C2583.45 1079.33 2582.4 1073.71 2584.95 1069.29L2590.53 1059.62C2593.11 1055.15 2598.6 1053.27 2603.39 1055.21C2609.33 1057.62 2615.94 1053.8 2616.83 1047.45ZM2633.01 1114.33C2645.9 1114.33 2656.34 1103.88 2656.34 1090.99C2656.34 1078.11 2645.9 1067.66 2633.01 1067.66C2620.12 1067.66 2609.68 1078.11 2609.68 1090.99C2609.68 1103.88 2620.12 1114.33 2633.01 1114.33Z" fill="black"/>
</g>
</g>
<g id="Bold-M">
<g id="Solid / Settings Solid_12">
<path id="Shape_12" fill-rule="evenodd" clip-rule="evenodd" d="M2320.83 1047.45C2321.54 1042.33 2325.91 1038.52 2331.08 1038.52H2342.24C2347.34 1038.52 2351.69 1042.24 2352.47 1047.29C2353.48 1053.81 2360.43 1057.73 2366.63 1055.21C2371.42 1053.27 2376.91 1055.15 2379.49 1059.62L2385.07 1069.29C2387.62 1073.71 2386.57 1079.33 2382.59 1082.53C2377.45 1086.67 2377.54 1094.65 2382.82 1098.76C2386.89 1101.93 2388 1107.63 2385.42 1112.1L2379.84 1121.77C2377.29 1126.19 2371.9 1128.09 2367.14 1126.24C2360.66 1123.73 2353.53 1127.85 2352.47 1134.71C2351.69 1139.75 2347.34 1143.48 2342.24 1143.48H2331.08C2325.91 1143.48 2321.54 1139.66 2320.83 1134.55C2319.91 1127.92 2313.04 1123.86 2306.88 1126.24C2302.12 1128.09 2296.73 1126.19 2294.18 1121.77L2288.6 1112.1C2286.02 1107.63 2287.13 1101.93 2291.2 1098.76C2296.48 1094.65 2296.57 1086.67 2291.43 1082.53C2287.45 1079.33 2286.4 1073.71 2288.95 1069.29L2294.53 1059.62C2297.11 1055.15 2302.6 1053.27 2307.39 1055.21C2313.33 1057.62 2319.94 1053.8 2320.83 1047.45ZM2337.01 1114.33C2349.9 1114.33 2360.34 1103.88 2360.34 1090.99C2360.34 1078.11 2349.9 1067.66 2337.01 1067.66C2324.12 1067.66 2313.68 1078.11 2313.68 1090.99C2313.68 1103.88 2324.12 1114.33 2337.01 1114.33Z" fill="black"/>
</g>
</g>
<g id="Semibold-M">
<g id="Solid / Settings Solid_13">
<path id="Shape_13" fill-rule="evenodd" clip-rule="evenodd" d="M2024.83 1047.45C2025.54 1042.33 2029.91 1038.52 2035.08 1038.52H2046.24C2051.34 1038.52 2055.69 1042.24 2056.47 1047.29C2057.48 1053.81 2064.43 1057.73 2070.63 1055.21C2075.42 1053.27 2080.91 1055.15 2083.49 1059.62L2089.07 1069.29C2091.62 1073.71 2090.57 1079.33 2086.59 1082.53C2081.45 1086.67 2081.54 1094.65 2086.82 1098.76C2090.89 1101.93 2092 1107.63 2089.42 1112.1L2083.84 1121.77C2081.29 1126.19 2075.9 1128.09 2071.14 1126.24C2064.66 1123.73 2057.53 1127.85 2056.47 1134.71C2055.69 1139.75 2051.34 1143.48 2046.24 1143.48H2035.08C2029.91 1143.48 2025.54 1139.66 2024.83 1134.55C2023.91 1127.92 2017.04 1123.86 2010.88 1126.24C2006.12 1128.09 2000.73 1126.19 1998.18 1121.77L1992.6 1112.1C1990.02 1107.63 1991.13 1101.93 1995.2 1098.76C2000.48 1094.65 2000.57 1086.67 1995.43 1082.53C1991.45 1079.33 1990.4 1073.71 1992.95 1069.29L1998.53 1059.62C2001.11 1055.15 2006.6 1053.27 2011.39 1055.21C2017.33 1057.62 2023.94 1053.8 2024.83 1047.45ZM2041.01 1114.33C2053.9 1114.33 2064.34 1103.88 2064.34 1090.99C2064.34 1078.11 2053.9 1067.66 2041.01 1067.66C2028.12 1067.66 2017.68 1078.11 2017.68 1090.99C2017.68 1103.88 2028.12 1114.33 2041.01 1114.33Z" fill="black"/>
</g>
</g>
<g id="Medium-M">
<g id="Solid / Settings Solid_14">
<path id="Shape_14" fill-rule="evenodd" clip-rule="evenodd" d="M1728.83 1047.45C1729.54 1042.33 1733.91 1038.52 1739.08 1038.52H1750.24C1755.34 1038.52 1759.69 1042.24 1760.47 1047.29C1761.48 1053.81 1768.43 1057.73 1774.63 1055.21C1779.42 1053.27 1784.91 1055.15 1787.49 1059.62L1793.07 1069.29C1795.62 1073.71 1794.57 1079.33 1790.59 1082.53C1785.45 1086.67 1785.54 1094.65 1790.82 1098.76C1794.89 1101.93 1796 1107.63 1793.42 1112.1L1787.84 1121.77C1785.29 1126.19 1779.9 1128.09 1775.14 1126.24C1768.66 1123.73 1761.53 1127.85 1760.47 1134.71C1759.69 1139.75 1755.34 1143.48 1750.24 1143.48H1739.08C1733.91 1143.48 1729.54 1139.66 1728.83 1134.55C1727.91 1127.92 1721.04 1123.86 1714.88 1126.24C1710.12 1128.09 1704.73 1126.19 1702.18 1121.77L1696.6 1112.1C1694.02 1107.63 1695.13 1101.93 1699.2 1098.76C1704.48 1094.65 1704.57 1086.67 1699.43 1082.53C1695.45 1079.33 1694.4 1073.71 1696.95 1069.29L1702.53 1059.62C1705.11 1055.15 1710.6 1053.27 1715.39 1055.21C1721.33 1057.62 1727.94 1053.8 1728.83 1047.45ZM1745.01 1114.33C1757.9 1114.33 1768.34 1103.88 1768.34 1090.99C1768.34 1078.11 1757.9 1067.66 1745.01 1067.66C1732.12 1067.66 1721.68 1078.11 1721.68 1090.99C1721.68 1103.88 1732.12 1114.33 1745.01 1114.33Z" fill="black"/>
</g>
</g>
<g id="Regular-M">
<g id="Solid / Settings Solid_15">
<path id="Shape_15" fill-rule="evenodd" clip-rule="evenodd" d="M1432.83 1047.45C1433.54 1042.33 1437.91 1038.52 1443.08 1038.52H1454.24C1459.34 1038.52 1463.69 1042.24 1464.47 1047.29C1465.48 1053.81 1472.43 1057.73 1478.63 1055.21C1483.42 1053.27 1488.91 1055.15 1491.49 1059.62L1497.07 1069.29C1499.62 1073.71 1498.57 1079.33 1494.59 1082.53C1489.45 1086.67 1489.54 1094.65 1494.82 1098.76C1498.89 1101.93 1500 1107.63 1497.42 1112.1L1491.84 1121.77C1489.29 1126.19 1483.9 1128.09 1479.14 1126.24C1472.66 1123.73 1465.53 1127.85 1464.47 1134.71C1463.69 1139.75 1459.34 1143.48 1454.24 1143.48H1443.08C1437.91 1143.48 1433.54 1139.66 1432.83 1134.55C1431.91 1127.92 1425.04 1123.86 1418.88 1126.24C1414.12 1128.09 1408.73 1126.19 1406.18 1121.77L1400.6 1112.1C1398.02 1107.63 1399.13 1101.93 1403.2 1098.76C1408.48 1094.65 1408.57 1086.67 1403.43 1082.53C1399.45 1079.33 1398.4 1073.71 1400.95 1069.29L1406.53 1059.62C1409.11 1055.15 1414.6 1053.27 1419.39 1055.21C1425.33 1057.62 1431.94 1053.8 1432.83 1047.45ZM1449.01 1114.33C1461.9 1114.33 1472.34 1103.88 1472.34 1090.99C1472.34 1078.11 1461.9 1067.66 1449.01 1067.66C1436.12 1067.66 1425.68 1078.11 1425.68 1090.99C1425.68 1103.88 1436.12 1114.33 1449.01 1114.33Z" fill="black"/>
</g>
</g>
<g id="Light-M">
<g id="Solid / Settings Solid_16">
<path id="Shape_16" fill-rule="evenodd" clip-rule="evenodd" d="M1136.83 1047.45C1137.54 1042.33 1141.91 1038.52 1147.08 1038.52H1158.24C1163.34 1038.52 1167.69 1042.24 1168.47 1047.29C1169.48 1053.81 1176.43 1057.73 1182.63 1055.21C1187.42 1053.27 1192.91 1055.15 1195.49 1059.62L1201.07 1069.29C1203.62 1073.71 1202.57 1079.33 1198.59 1082.53C1193.45 1086.67 1193.54 1094.65 1198.82 1098.76C1202.89 1101.93 1204 1107.63 1201.42 1112.1L1195.84 1121.77C1193.29 1126.19 1187.9 1128.09 1183.14 1126.24C1176.66 1123.73 1169.53 1127.85 1168.47 1134.71C1167.69 1139.75 1163.34 1143.48 1158.24 1143.48H1147.08C1141.91 1143.48 1137.54 1139.66 1136.83 1134.55C1135.91 1127.92 1129.04 1123.86 1122.88 1126.24C1118.12 1128.09 1112.73 1126.19 1110.18 1121.77L1104.6 1112.1C1102.02 1107.63 1103.13 1101.93 1107.2 1098.76C1112.48 1094.65 1112.57 1086.67 1107.43 1082.53C1103.45 1079.33 1102.4 1073.71 1104.95 1069.29L1110.53 1059.62C1113.11 1055.15 1118.6 1053.27 1123.39 1055.21C1129.33 1057.62 1135.94 1053.8 1136.83 1047.45ZM1153.01 1114.33C1165.9 1114.33 1176.34 1103.88 1176.34 1090.99C1176.34 1078.11 1165.9 1067.66 1153.01 1067.66C1140.12 1067.66 1129.68 1078.11 1129.68 1090.99C1129.68 1103.88 1140.12 1114.33 1153.01 1114.33Z" fill="black"/>
</g>
</g>
<g id="Thin-M">
<g id="Solid / Settings Solid_17">
<path id="Shape_17" fill-rule="evenodd" clip-rule="evenodd" d="M840.825 1047.45C841.536 1042.33 845.911 1038.52 851.078 1038.52H862.24C867.344 1038.52 871.686 1042.24 872.468 1047.29C873.48 1053.81 880.432 1057.73 886.631 1055.21C891.419 1053.27 896.906 1055.15 899.489 1059.62L905.07 1069.29C907.622 1073.71 906.571 1079.33 902.594 1082.53C897.452 1086.67 897.536 1094.65 902.816 1098.76C906.893 1101.93 908.005 1107.63 905.421 1112.1L899.84 1121.77C897.288 1126.19 891.895 1128.09 887.136 1126.24C880.664 1123.73 873.532 1127.85 872.468 1134.71C871.686 1139.75 867.344 1143.48 862.24 1143.48H851.078C845.911 1143.48 841.536 1139.66 840.825 1134.55C839.905 1127.92 833.038 1123.86 826.884 1126.24C822.124 1128.09 816.731 1126.19 814.179 1121.77L808.598 1112.1C806.015 1107.63 807.127 1101.93 811.204 1098.76C816.483 1094.65 816.568 1086.67 811.425 1082.53C807.449 1079.33 806.398 1073.71 808.95 1069.29L814.531 1059.62C817.114 1055.15 822.601 1053.27 827.388 1055.21C833.325 1057.62 839.944 1053.8 840.825 1047.45ZM857.01 1114.33C869.896 1114.33 880.343 1103.88 880.343 1090.99C880.343 1078.11 869.896 1067.66 857.01 1067.66C844.123 1067.66 833.677 1078.11 833.677 1090.99C833.677 1103.88 844.123 1114.33 857.01 1114.33Z" fill="black"/>
</g>
</g>
<g id="Ultralight-M">
<g id="Solid / Settings Solid_18">
<path id="Shape_18" fill-rule="evenodd" clip-rule="evenodd" d="M544.825 1047.45C545.536 1042.33 549.911 1038.52 555.078 1038.52H566.24C571.344 1038.52 575.686 1042.24 576.468 1047.29C577.48 1053.81 584.432 1057.73 590.631 1055.21C595.419 1053.27 600.906 1055.15 603.489 1059.62L609.07 1069.29C611.622 1073.71 610.571 1079.33 606.594 1082.53C601.452 1086.67 601.536 1094.65 606.816 1098.76C610.893 1101.93 612.005 1107.63 609.421 1112.1L603.84 1121.77C601.288 1126.19 595.895 1128.09 591.136 1126.24C584.664 1123.73 577.532 1127.85 576.468 1134.71C575.686 1139.75 571.344 1143.48 566.24 1143.48H555.078C549.911 1143.48 545.536 1139.66 544.825 1134.55C543.905 1127.92 537.038 1123.86 530.884 1126.24C526.124 1128.09 520.731 1126.19 518.179 1121.77L512.598 1112.1C510.015 1107.63 511.127 1101.93 515.204 1098.76C520.483 1094.65 520.568 1086.67 515.425 1082.53C511.449 1079.33 510.398 1073.71 512.95 1069.29L518.531 1059.62C521.114 1055.15 526.601 1053.27 531.388 1055.21C537.325 1057.62 543.944 1053.8 544.825 1047.45ZM561.01 1114.33C573.896 1114.33 584.343 1103.88 584.343 1090.99C584.343 1078.11 573.896 1067.66 561.01 1067.66C548.123 1067.66 537.677 1078.11 537.677 1090.99C537.677 1103.88 548.123 1114.33 561.01 1114.33Z" fill="black"/>
</g>
</g>
<g id="Black-S">
<g id="Solid / Settings Solid_19">
<path id="Shape_19" fill-rule="evenodd" clip-rule="evenodd" d="M2917.45 629.893C2917.96 626.237 2921.08 623.516 2924.77 623.516H2932.74C2936.39 623.516 2939.49 626.173 2940.05 629.776C2940.77 634.435 2945.74 637.232 2950.17 635.434C2953.59 634.045 2957.51 635.391 2959.35 638.587L2963.34 645.492C2965.16 648.649 2964.41 652.664 2961.57 654.949C2957.9 657.904 2957.96 663.604 2961.73 666.54C2964.64 668.807 2965.43 672.874 2963.59 676.07L2959.6 682.975C2957.78 686.132 2953.93 687.489 2950.53 686.172C2945.9 684.38 2940.81 687.322 2940.05 692.221C2939.49 695.824 2936.39 698.481 2932.74 698.481H2924.77C2921.08 698.481 2917.96 695.76 2917.45 692.104C2916.79 687.37 2911.89 684.468 2907.49 686.172C2904.09 687.489 2900.24 686.132 2898.41 682.975L2894.43 676.07C2892.58 672.874 2893.38 668.807 2896.29 666.54C2900.06 663.604 2900.12 657.904 2896.45 654.949C2893.61 652.664 2892.86 648.649 2894.68 645.492L2898.67 638.587C2900.51 635.391 2904.43 634.045 2907.85 635.434C2912.09 637.156 2916.82 634.426 2917.45 629.893ZM2929.01 677.662C2938.21 677.662 2945.67 670.2 2945.67 660.995C2945.67 651.79 2938.21 644.328 2929.01 644.328C2919.8 644.328 2912.34 651.79 2912.34 660.995C2912.34 670.2 2919.8 677.662 2929.01 677.662Z" fill="black"/>
</g>
</g>
<g id="Heavy-S">
<g id="Solid / Settings Solid_20">
<path id="Shape_20" fill-rule="evenodd" clip-rule="evenodd" d="M2621.45 629.893C2621.96 626.237 2625.08 623.516 2628.77 623.516H2636.74C2640.39 623.516 2643.49 626.173 2644.05 629.776C2644.77 634.435 2649.74 637.232 2654.17 635.434C2657.59 634.045 2661.51 635.391 2663.35 638.587L2667.34 645.492C2669.16 648.649 2668.41 652.664 2665.57 654.949C2661.9 657.904 2661.96 663.604 2665.73 666.54C2668.64 668.807 2669.43 672.874 2667.59 676.07L2663.6 682.975C2661.78 686.132 2657.93 687.489 2654.53 686.172C2649.9 684.38 2644.81 687.322 2644.05 692.221C2643.49 695.824 2640.39 698.481 2636.74 698.481H2628.77C2625.08 698.481 2621.96 695.76 2621.45 692.104C2620.79 687.37 2615.89 684.468 2611.49 686.172C2608.09 687.489 2604.24 686.132 2602.41 682.975L2598.43 676.07C2596.58 672.874 2597.38 668.807 2600.29 666.54C2604.06 663.604 2604.12 657.904 2600.45 654.949C2597.61 652.664 2596.86 648.649 2598.68 645.492L2602.67 638.587C2604.51 635.391 2608.43 634.045 2611.85 635.434C2616.09 637.156 2620.82 634.426 2621.45 629.893ZM2633.01 677.662C2642.21 677.662 2649.67 670.2 2649.67 660.995C2649.67 651.79 2642.21 644.328 2633.01 644.328C2623.8 644.328 2616.34 651.79 2616.34 660.995C2616.34 670.2 2623.8 677.662 2633.01 677.662Z" fill="black"/>
</g>
</g>
<g id="Bold-S">
<g id="Solid / Settings Solid_21">
<path id="Shape_21" fill-rule="evenodd" clip-rule="evenodd" d="M2325.45 629.893C2325.96 626.237 2329.08 623.516 2332.77 623.516H2340.74C2344.39 623.516 2347.49 626.173 2348.05 629.776C2348.77 634.435 2353.74 637.232 2358.17 635.434C2361.59 634.045 2365.51 635.391 2367.35 638.587L2371.34 645.492C2373.16 648.649 2372.41 652.664 2369.57 654.949C2365.9 657.904 2365.96 663.604 2369.73 666.54C2372.64 668.807 2373.43 672.874 2371.59 676.07L2367.6 682.975C2365.78 686.132 2361.93 687.489 2358.53 686.172C2353.9 684.38 2348.81 687.322 2348.05 692.221C2347.49 695.824 2344.39 698.481 2340.74 698.481H2332.77C2329.08 698.481 2325.96 695.76 2325.45 692.104C2324.79 687.37 2319.89 684.468 2315.49 686.172C2312.09 687.489 2308.24 686.132 2306.41 682.975L2302.43 676.07C2300.58 672.874 2301.38 668.807 2304.29 666.54C2308.06 663.604 2308.12 657.904 2304.45 654.949C2301.61 652.664 2300.86 648.649 2302.68 645.492L2306.67 638.587C2308.51 635.391 2312.43 634.045 2315.85 635.434C2320.09 637.156 2324.82 634.426 2325.45 629.893ZM2337.01 677.662C2346.21 677.662 2353.67 670.2 2353.67 660.995C2353.67 651.79 2346.21 644.328 2337.01 644.328C2327.8 644.328 2320.34 651.79 2320.34 660.995C2320.34 670.2 2327.8 677.662 2337.01 677.662Z" fill="black"/>
</g>
</g>
<g id="Semibold-S">
<g id="Solid / Settings Solid_22">
<path id="Shape_22" fill-rule="evenodd" clip-rule="evenodd" d="M2029.45 629.893C2029.96 626.237 2033.08 623.516 2036.77 623.516H2044.74C2048.39 623.516 2051.49 626.173 2052.05 629.776C2052.77 634.435 2057.74 637.232 2062.17 635.434C2065.59 634.045 2069.51 635.391 2071.35 638.587L2075.34 645.492C2077.16 648.649 2076.41 652.664 2073.57 654.949C2069.9 657.904 2069.96 663.604 2073.73 666.54C2076.64 668.807 2077.43 672.874 2075.59 676.07L2071.6 682.975C2069.78 686.132 2065.93 687.489 2062.53 686.172C2057.9 684.38 2052.81 687.322 2052.05 692.221C2051.49 695.824 2048.39 698.481 2044.74 698.481H2036.77C2033.08 698.481 2029.96 695.76 2029.45 692.104C2028.79 687.37 2023.89 684.468 2019.49 686.172C2016.09 687.489 2012.24 686.132 2010.41 682.975L2006.43 676.07C2004.58 672.874 2005.38 668.807 2008.29 666.54C2012.06 663.604 2012.12 657.904 2008.45 654.949C2005.61 652.664 2004.86 648.649 2006.68 645.492L2010.67 638.587C2012.51 635.391 2016.43 634.045 2019.85 635.434C2024.09 637.156 2028.82 634.426 2029.45 629.893ZM2041.01 677.662C2050.21 677.662 2057.67 670.2 2057.67 660.995C2057.67 651.79 2050.21 644.328 2041.01 644.328C2031.8 644.328 2024.34 651.79 2024.34 660.995C2024.34 670.2 2031.8 677.662 2041.01 677.662Z" fill="black"/>
</g>
</g>
<g id="Medium-S">
<g id="Solid / Settings Solid_23">
<path id="Shape_23" fill-rule="evenodd" clip-rule="evenodd" d="M1733.45 629.893C1733.96 626.237 1737.08 623.516 1740.77 623.516H1748.74C1752.39 623.516 1755.49 626.173 1756.05 629.776C1756.77 634.435 1761.74 637.232 1766.17 635.434C1769.59 634.045 1773.51 635.391 1775.35 638.587L1779.34 645.492C1781.16 648.649 1780.41 652.664 1777.57 654.949C1773.9 657.904 1773.96 663.604 1777.73 666.54C1780.64 668.807 1781.43 672.874 1779.59 676.07L1775.6 682.975C1773.78 686.132 1769.93 687.489 1766.53 686.172C1761.9 684.38 1756.81 687.322 1756.05 692.221C1755.49 695.824 1752.39 698.481 1748.74 698.481H1740.77C1737.08 698.481 1733.96 695.76 1733.45 692.104C1732.79 687.37 1727.89 684.468 1723.49 686.172C1720.09 687.489 1716.24 686.132 1714.41 682.975L1710.43 676.07C1708.58 672.874 1709.38 668.807 1712.29 666.54C1716.06 663.604 1716.12 657.904 1712.45 654.949C1709.61 652.664 1708.86 648.649 1710.68 645.492L1714.67 638.587C1716.51 635.391 1720.43 634.045 1723.85 635.434C1728.09 637.156 1732.82 634.426 1733.45 629.893ZM1745.01 677.662C1754.21 677.662 1761.67 670.2 1761.67 660.995C1761.67 651.79 1754.21 644.328 1745.01 644.328C1735.8 644.328 1728.34 651.79 1728.34 660.995C1728.34 670.2 1735.8 677.662 1745.01 677.662Z" fill="black"/>
</g>
</g>
<g id="Regular-S">
<g id="Solid / Settings Solid_24">
<path id="Shape_24" fill-rule="evenodd" clip-rule="evenodd" d="M1437.45 629.893C1437.96 626.237 1441.08 623.516 1444.77 623.516H1452.74C1456.39 623.516 1459.49 626.173 1460.05 629.776C1460.77 634.435 1465.74 637.232 1470.17 635.434C1473.59 634.045 1477.51 635.391 1479.35 638.587L1483.34 645.492C1485.16 648.649 1484.41 652.664 1481.57 654.949C1477.9 657.904 1477.96 663.604 1481.73 666.54C1484.64 668.807 1485.43 672.874 1483.59 676.07L1479.6 682.975C1477.78 686.132 1473.93 687.489 1470.53 686.172C1465.9 684.38 1460.81 687.322 1460.05 692.221C1459.49 695.824 1456.39 698.481 1452.74 698.481H1444.77C1441.08 698.481 1437.96 695.76 1437.45 692.104C1436.79 687.37 1431.89 684.468 1427.49 686.172C1424.09 687.489 1420.24 686.132 1418.41 682.975L1414.43 676.07C1412.58 672.874 1413.38 668.807 1416.29 666.54C1420.06 663.604 1420.12 657.904 1416.45 654.949C1413.61 652.664 1412.86 648.649 1414.68 645.492L1418.67 638.587C1420.51 635.391 1424.43 634.045 1427.85 635.434C1432.09 637.156 1436.82 634.426 1437.45 629.893ZM1449.01 677.662C1458.21 677.662 1465.67 670.2 1465.67 660.995C1465.67 651.79 1458.21 644.328 1449.01 644.328C1439.8 644.328 1432.34 651.79 1432.34 660.995C1432.34 670.2 1439.8 677.662 1449.01 677.662Z" fill="black"/>
</g>
</g>
<g id="Light-S">
<g id="Solid / Settings Solid_25">
<path id="Shape_25" fill-rule="evenodd" clip-rule="evenodd" d="M1141.45 629.893C1141.96 626.237 1145.08 623.516 1148.77 623.516H1156.74C1160.39 623.516 1163.49 626.173 1164.05 629.776C1164.77 634.435 1169.74 637.232 1174.17 635.434C1177.59 634.045 1181.51 635.391 1183.35 638.587L1187.34 645.492C1189.16 648.649 1188.41 652.664 1185.57 654.949C1181.9 657.904 1181.96 663.604 1185.73 666.54C1188.64 668.807 1189.43 672.874 1187.59 676.07L1183.6 682.975C1181.78 686.132 1177.93 687.489 1174.53 686.172C1169.9 684.38 1164.81 687.322 1164.05 692.221C1163.49 695.824 1160.39 698.481 1156.74 698.481H1148.77C1145.08 698.481 1141.96 695.76 1141.45 692.104C1140.79 687.37 1135.89 684.468 1131.49 686.172C1128.09 687.489 1124.24 686.132 1122.41 682.975L1118.43 676.07C1116.58 672.874 1117.38 668.807 1120.29 666.54C1124.06 663.604 1124.12 657.904 1120.45 654.949C1117.61 652.664 1116.86 648.649 1118.68 645.492L1122.67 638.587C1124.51 635.391 1128.43 634.045 1131.85 635.434C1136.09 637.156 1140.82 634.426 1141.45 629.893ZM1153.01 677.662C1162.21 677.662 1169.67 670.2 1169.67 660.995C1169.67 651.79 1162.21 644.328 1153.01 644.328C1143.8 644.328 1136.34 651.79 1136.34 660.995C1136.34 670.2 1143.8 677.662 1153.01 677.662Z" fill="black"/>
</g>
</g>
<g id="Thin-S">
<g id="Solid / Settings Solid_26">
<path id="Shape_26" fill-rule="evenodd" clip-rule="evenodd" d="M845.448 629.893C845.955 626.237 849.08 623.516 852.771 623.516H860.744C864.389 623.516 867.491 626.173 868.05 629.776C868.772 634.435 873.738 637.232 878.166 635.434C881.586 634.045 885.505 635.391 887.351 638.587L891.337 645.492C893.16 648.649 892.409 652.664 889.568 654.949C885.895 657.904 885.956 663.604 889.727 666.54C892.639 668.807 893.433 672.874 891.588 676.07L887.601 682.975C885.779 686.132 881.926 687.489 878.527 686.172C873.904 684.38 868.81 687.322 868.05 692.221C867.491 695.824 864.389 698.481 860.744 698.481H852.771C849.08 698.481 845.955 695.76 845.448 692.104C844.791 687.37 839.885 684.468 835.489 686.172C832.09 687.489 828.238 686.132 826.415 682.975L822.429 676.07C820.583 672.874 821.378 668.807 824.29 666.54C828.061 663.604 828.121 657.904 824.448 654.949C821.607 652.664 820.857 648.649 822.679 645.492L826.666 638.587C828.511 635.391 832.431 634.045 835.85 635.434C840.091 637.156 844.819 634.426 845.448 629.893ZM857.008 677.662C866.213 677.662 873.675 670.2 873.675 660.995C873.675 651.79 866.213 644.328 857.008 644.328C847.803 644.328 840.341 651.79 840.341 660.995C840.341 670.2 847.803 677.662 857.008 677.662Z" fill="black"/>
</g>
</g>
<g id="Ultralight-S">
<g id="Solid / Settings Solid_27">
<path id="Shape_27" fill-rule="evenodd" clip-rule="evenodd" d="M549.448 629.893C549.955 626.237 553.08 623.516 556.771 623.516H564.744C568.389 623.516 571.491 626.173 572.05 629.776C572.772 634.435 577.738 637.232 582.166 635.434C585.586 634.045 589.505 635.391 591.351 638.587L595.337 645.492C597.16 648.649 596.409 652.664 593.568 654.949C589.895 657.904 589.956 663.604 593.727 666.54C596.639 668.807 597.433 672.874 595.588 676.07L591.601 682.975C589.779 686.132 585.926 687.489 582.527 686.172C577.904 684.38 572.81 687.322 572.05 692.221C571.491 695.824 568.389 698.481 564.744 698.481H556.771C553.08 698.481 549.955 695.76 549.448 692.104C548.791 687.37 543.885 684.468 539.489 686.172C536.09 687.489 532.238 686.132 530.415 682.975L526.429 676.07C524.583 672.874 525.378 668.807 528.29 666.54C532.061 663.604 532.121 657.904 528.448 654.949C525.607 652.664 524.857 648.649 526.679 645.492L530.666 638.587C532.511 635.391 536.431 634.045 539.85 635.434C544.091 637.156 548.819 634.426 549.448 629.893ZM561.008 677.662C570.213 677.662 577.675 670.2 577.675 660.995C577.675 651.79 570.213 644.328 561.008 644.328C551.803 644.328 544.341 651.79 544.341 660.995C544.341 670.2 551.803 677.662 561.008 677.662Z" fill="black"/>
</g>
</g>
</g>
</g>
<defs>
<clipPath id="clip0_805_27002">
<rect width="3300" height="2200" fill="white"/>
</clipPath>
</defs>
</svg>
