<svg width="3300" height="2200" viewBox="0 0 3300 2200" fill="none" xmlns="http://www.w3.org/2000/svg">
<rect width="3300" height="2200" fill="#E5E5E5"/>
<g id="Location / Solid / GPS" clip-path="url(#clip0_0_1)">
<g id="Notes">
<path id="artboard" d="M3300 0H0V2200H3300V0Z" fill="white"/>
<path id="Vector" d="M263 292H3036" stroke="black" stroke-width="0.5"/>
<text id="Weight/Scale Variations" fill="black" xml:space="preserve" style="white-space: pre" font-family="Roboto" font-size="12" letter-spacing="0em"><tspan x="263" y="321.102">Weight/Scale Variations</tspan></text>
<text id="Ultralight" fill="black" xml:space="preserve" style="white-space: pre" font-family="Roboto" font-size="12" letter-spacing="0em"><tspan x="535.211" y="321.102">Ultralight</tspan></text>
<text id="Thin" fill="black" xml:space="preserve" style="white-space: pre" font-family="Roboto" font-size="12" letter-spacing="0em"><tspan x="844.422" y="321.102">Thin</tspan></text>
<text id="Light" fill="black" xml:space="preserve" style="white-space: pre" font-family="Roboto" font-size="12" letter-spacing="0em"><tspan x="1139.63" y="321.102">Light</tspan></text>
<text id="Regular" fill="black" xml:space="preserve" style="white-space: pre" font-family="Roboto" font-size="12" letter-spacing="0em"><tspan x="1429.34" y="321.102">Regular</tspan></text>
<text id="Medium" fill="black" xml:space="preserve" style="white-space: pre" font-family="Roboto" font-size="12" letter-spacing="0em"><tspan x="1724.56" y="321.102">Medium</tspan></text>
<text id="Semibold" fill="black" xml:space="preserve" style="white-space: pre" font-family="Roboto" font-size="12" letter-spacing="0em"><tspan x="2017.77" y="321.102">Semibold</tspan></text>
<text id="Bold" fill="black" xml:space="preserve" style="white-space: pre" font-family="Roboto" font-size="12" letter-spacing="0em"><tspan x="2327.48" y="321.102">Bold</tspan></text>
<text id="Heavy" fill="black" xml:space="preserve" style="white-space: pre" font-family="Roboto" font-size="12" letter-spacing="0em"><tspan x="2620.19" y="321.102">Heavy</tspan></text>
<text id="Black" fill="black" xml:space="preserve" style="white-space: pre" font-family="Roboto" font-size="12" letter-spacing="0em"><tspan x="2918.4" y="321.102">Black</tspan></text>
<path id="Vector_2" d="M263 1903H3036" stroke="black" stroke-width="0.5"/>
<g id="Group">
<path id="Vector_3" d="M272.248 1933.83C276.555 1933.83 280.139 1930.26 280.139 1925.95C280.139 1921.64 276.545 1918.07 272.238 1918.07C267.941 1918.07 264.367 1921.64 264.367 1925.95C264.367 1930.26 267.951 1933.83 272.248 1933.83ZM272.248 1932.35C268.703 1932.35 265.871 1929.5 265.871 1925.95C265.871 1922.39 268.693 1919.55 272.238 1919.55C275.793 1919.55 278.635 1922.39 278.644 1925.95C278.654 1929.5 275.803 1932.35 272.248 1932.35ZM272.229 1929.57C272.697 1929.57 272.971 1929.26 272.971 1928.74V1926.68H275.197C275.695 1926.68 276.037 1926.43 276.037 1925.96C276.037 1925.48 275.715 1925.22 275.197 1925.22H272.971V1922.99C272.971 1922.47 272.697 1922.15 272.229 1922.15C271.76 1922.15 271.506 1922.49 271.506 1922.99V1925.22H269.299C268.781 1925.22 268.449 1925.48 268.449 1925.96C268.449 1926.43 268.801 1926.68 269.299 1926.68H271.506V1928.74C271.506 1929.24 271.76 1929.57 272.229 1929.57Z" fill="black"/>
</g>
<g id="Group_2">
<path id="Vector_4" d="M293.215 1935.91C298.664 1935.91 303.176 1931.4 303.176 1925.95C303.176 1920.51 298.654 1915.99 293.205 1915.99C287.766 1915.99 283.254 1920.51 283.254 1925.95C283.254 1931.4 287.775 1935.91 293.215 1935.91ZM293.215 1934.25C288.605 1934.25 284.924 1930.56 284.924 1925.95C284.924 1921.35 288.596 1917.65 293.205 1917.65C297.814 1917.65 301.506 1921.35 301.516 1925.95C301.525 1930.56 297.824 1934.25 293.215 1934.25ZM293.195 1930.59C293.713 1930.59 294.025 1930.23 294.025 1929.66V1926.77H297.082C297.629 1926.77 298.01 1926.49 298.01 1925.97C298.01 1925.44 297.648 1925.14 297.082 1925.14H294.025V1922.07C294.025 1921.5 293.713 1921.14 293.195 1921.14C292.678 1921.14 292.385 1921.52 292.385 1922.07V1925.14H289.338C288.771 1925.14 288.4 1925.44 288.4 1925.97C288.4 1926.49 288.791 1926.77 289.338 1926.77H292.385V1929.66C292.385 1930.21 292.678 1930.59 293.195 1930.59Z" fill="black"/>
</g>
<g id="Group_3">
<path id="Vector_5" d="M319.895 1938.67C326.857 1938.67 332.619 1932.92 332.619 1925.96C332.619 1919 326.848 1913.24 319.885 1913.24C312.932 1913.24 307.18 1919 307.18 1925.96C307.18 1932.92 312.941 1938.67 319.895 1938.67ZM319.895 1936.86C313.859 1936.86 309.006 1931.99 309.006 1925.96C309.006 1919.92 313.85 1915.06 319.885 1915.06C325.93 1915.06 330.783 1919.92 330.793 1925.96C330.803 1931.99 325.939 1936.86 319.895 1936.86ZM319.875 1931.94C320.441 1931.94 320.793 1931.54 320.793 1930.94V1926.87H325.031C325.617 1926.87 326.037 1926.54 326.037 1925.98C326.037 1925.4 325.647 1925.06 325.031 1925.06H320.793V1920.81C320.793 1920.2 320.441 1919.81 319.875 1919.81C319.309 1919.81 318.986 1920.22 318.986 1920.81V1925.06H314.758C314.143 1925.06 313.732 1925.4 313.732 1925.98C313.732 1926.54 314.162 1926.87 314.758 1926.87H318.986V1930.94C318.986 1931.53 319.309 1931.94 319.875 1931.94Z" fill="black"/>
</g>
<text id="Design Variations" fill="black" xml:space="preserve" style="white-space: pre" font-family="Roboto" font-size="12" letter-spacing="0em"><tspan x="263" y="1952.1">Design Variations</tspan></text>
<text id="Symbols are supported in up to nine weights and three scales." fill="black" xml:space="preserve" style="white-space: pre" font-family="Roboto" font-size="12" letter-spacing="0em"><tspan x="263" y="1970.1">Symbols are supported in up to nine weights and three scales.</tspan></text>
<text id="For optimal layout with text and other symbols, vertically align" fill="black" xml:space="preserve" style="white-space: pre" font-family="Roboto" font-size="12" letter-spacing="0em"><tspan x="263" y="1988.1">For optimal layout with text and other symbols, vertically align</tspan></text>
<text id="symbols with the adjacent text." fill="black" xml:space="preserve" style="white-space: pre" font-family="Roboto" font-size="12" letter-spacing="0em"><tspan x="263" y="2006.1">symbols with the adjacent text.</tspan></text>
<path id="Vector_6" opacity="0.4" d="M779 1919H776V1933H779V1919Z" fill="#00AEEF"/>
<g id="Group_4">
<path id="Vector_7" d="M789.527 1933H791.373L786.178 1918.91H784.439L779.244 1933H781.09L782.506 1928.97H788.111L789.527 1933ZM785.279 1921.05H785.338L787.594 1927.47H783.023L785.279 1921.05Z" fill="black"/>
</g>
<path id="Vector_8" opacity="0.4" d="M794.617 1919H791.617V1933H794.617V1919Z" fill="#00AEEF"/>
<text id="Margins" fill="black" xml:space="preserve" style="white-space: pre" font-family="Roboto" font-size="12" letter-spacing="0em"><tspan x="776" y="1952.1">Margins</tspan></text>
<text id="Leading and trailing margins on the left and right side of each symbol" fill="black" xml:space="preserve" style="white-space: pre" font-family="Roboto" font-size="12" letter-spacing="0em"><tspan x="776" y="1970.1">Leading and trailing margins on the left and right side of each symbol</tspan></text>
<text id="can be adjusted by modifying the width of the blue rectangles." fill="black" xml:space="preserve" style="white-space: pre" font-family="Roboto" font-size="12" letter-spacing="0em"><tspan x="776" y="1988.1">can be adjusted by modifying the width of the blue rectangles.</tspan></text>
<text id="Modifications are automatically applied proportionally to all" fill="black" xml:space="preserve" style="white-space: pre" font-family="Roboto" font-size="12" letter-spacing="0em"><tspan x="776" y="2006.1">Modifications are automatically applied proportionally to all</tspan></text>
<text id="scales and weights." fill="black" xml:space="preserve" style="white-space: pre" font-family="Roboto" font-size="12" letter-spacing="0em"><tspan x="776" y="2024.1">scales and weights.</tspan></text>
<g id="Group_5">
<path id="Vector_9" d="M1291.83 1936.11L1293.37 1937.66C1294.22 1938.49 1295.19 1938.42 1296.06 1937.46L1306.27 1926.34C1306.7 1926.63 1307.1 1926.62 1307.56 1926.52L1308.61 1926.31L1309.3 1927L1309.25 1927.52C1309.19 1928.05 1309.35 1928.47 1309.85 1928.97L1310.66 1929.78C1311.17 1930.28 1311.82 1930.31 1312.3 1929.83L1315.55 1926.58C1316.03 1926.1 1316.01 1925.45 1315.5 1924.94L1314.68 1924.12C1314.19 1923.62 1313.77 1923.45 1313.24 1923.53L1312.71 1923.58L1312.06 1922.92L1312.34 1921.78C1312.49 1921.21 1312.34 1920.74 1311.71 1920.14L1309.3 1917.75C1305.76 1914.22 1301.23 1914.33 1298.11 1917.46C1297.69 1917.89 1297.64 1918.48 1297.92 1918.91C1298.15 1919.28 1298.63 1919.5 1299.27 1919.34C1300.79 1918.96 1302.3 1919.07 1303.78 1920.08L1303.16 1921.66C1302.93 1922.25 1302.94 1922.73 1303.18 1923.16L1292.02 1933.44C1291.08 1934.31 1290.97 1935.25 1291.83 1936.11ZM1299.67 1917.85C1302.34 1915.86 1305.65 1916.17 1308.05 1918.58L1310.68 1921.19C1310.91 1921.43 1310.94 1921.61 1310.88 1921.91L1310.5 1923.47L1312.08 1925.04L1313.04 1924.95C1313.33 1924.92 1313.41 1924.94 1313.64 1925.17L1314.26 1925.79L1311.51 1928.54L1310.88 1927.92C1310.66 1927.7 1310.64 1927.6 1310.67 1927.32L1310.76 1926.36L1309.19 1924.8L1307.57 1925.11C1307.29 1925.17 1307.14 1925.17 1306.91 1924.92L1304.73 1922.75C1304.51 1922.51 1304.48 1922.37 1304.61 1922.05L1305.55 1919.78C1303.95 1918.24 1301.84 1917.39 1299.8 1918.05C1299.71 1918.08 1299.64 1918.06 1299.61 1918.02C1299.59 1917.97 1299.59 1917.92 1299.67 1917.85ZM1293.1 1935.41C1292.61 1934.91 1292.79 1934.61 1293.12 1934.31L1304.08 1924.19L1305.31 1925.42L1295.15 1936.35C1294.85 1936.68 1294.47 1936.78 1294.07 1936.38L1293.1 1935.41Z" fill="black"/>
</g>
<text id="Exporting" fill="black" xml:space="preserve" style="white-space: pre" font-family="Roboto" font-size="12" letter-spacing="0em"><tspan x="1289" y="1952.1">Exporting</tspan></text>
<text id="Symbols should be outlined when exporting to ensure the" fill="black" xml:space="preserve" style="white-space: pre" font-family="Roboto" font-size="12" letter-spacing="0em"><tspan x="1289" y="1970.1">Symbols should be outlined when exporting to ensure the</tspan></text>
<text id="design is preserved when submitting to Xcode." fill="black" xml:space="preserve" style="white-space: pre" font-family="Roboto" font-size="12" letter-spacing="0em"><tspan x="1289" y="1988.1">design is preserved when submitting to Xcode.</tspan></text>
<text id="template-version" fill="black" xml:space="preserve" style="white-space: pre" font-family="Roboto" font-size="12" letter-spacing="0em"><tspan x="2958" y="1932.1">Template v.1.0</tspan></text>
<text id="Generated from pencil.circle" fill="black" xml:space="preserve" style="white-space: pre" font-family="Roboto" font-size="12" letter-spacing="0em"><tspan x="2885" y="1950.1">Generated from pencil.circle</tspan></text>
<text id="Typeset at 100 points" fill="black" xml:space="preserve" style="white-space: pre" font-family="Roboto" font-size="12" letter-spacing="0em"><tspan x="2921" y="1968.1">Typeset at 100 points</tspan></text>
<text id="Small" fill="black" xml:space="preserve" style="white-space: pre" font-family="Roboto" font-size="12" letter-spacing="0em"><tspan x="263" y="725.102">Small</tspan></text>
<text id="Medium_2" fill="black" xml:space="preserve" style="white-space: pre" font-family="Roboto" font-size="12" letter-spacing="0em"><tspan x="263" y="1155.1">Medium</tspan></text>
<text id="Large" fill="black" xml:space="preserve" style="white-space: pre" font-family="Roboto" font-size="12" letter-spacing="0em"><tspan x="263" y="1585.1">Large</tspan></text>
</g>
<g id="Guides">
<g id="H-reference">
<path id="Vector_10" d="M393.932 696H396.666L369.566 625.541H367.076L339.977 696H342.662L351.94 671.537H384.703L393.932 696ZM368.199 628.91H368.443L383.824 669.291H352.818L368.199 628.91Z" fill="#27AAE1"/>
</g>
<path id="Baseline-S" d="M263 696H3036" stroke="#27AAE1" stroke-width="0.577"/>
<path id="Capline-S" d="M263 626H3036" stroke="#27AAE1" stroke-width="0.577"/>
<g id="H-reference_2">
<path id="Vector_11" d="M393.932 1126H396.666L369.566 1055.54H367.076L339.977 1126H342.662L351.94 1101.54H384.703L393.932 1126ZM368.199 1058.91H368.443L383.824 1099.29H352.818L368.199 1058.91Z" fill="#27AAE1"/>
</g>
<path id="Baseline-M" d="M263 1126H3036" stroke="#27AAE1" stroke-width="0.577"/>
<path id="Capline-M" d="M263 1056H3036" stroke="#27AAE1" stroke-width="0.577"/>
<g id="H-reference_3">
<path id="Vector_12" d="M393.932 1556H396.666L369.566 1485.54H367.076L339.977 1556H342.662L351.94 1531.54H384.703L393.932 1556ZM368.199 1488.91H368.443L383.824 1529.29H352.818L368.199 1488.91Z" fill="#27AAE1"/>
</g>
<g id="Group 1">
<path id="Baseline-L" d="M263 1556H3036" stroke="#27AAE1" stroke-width="0.577"/>
<path id="Capline-L" d="M263 1486H3036" stroke="#27AAE1" stroke-width="0.577"/>
</g>
<path id="left-margin" opacity="0.4" d="M1396.04 1030.79H1387.3V1150.13H1396.04V1030.79Z" fill="#00AEEF"/>
<path id="right-margin" opacity="0.4" d="M1510.39 1030.79H1501.65V1150.13H1510.39V1030.79Z" fill="#00AEEF"/>
</g>
<g id="Symbols">
<g id="Black-L">
<g id="Solid / GPS Solid">
<path id="Shape" fill-rule="evenodd" clip-rule="evenodd" d="M2974.46 1462.08C2982.86 1458.41 2991.38 1466.99 2987.73 1475.44L2944.84 1574.88C2940.8 1584.24 2927.11 1582.44 2925.6 1572.35L2919.69 1532.78C2919.52 1531.64 2918.63 1530.74 2917.49 1530.57L2878.18 1524.61C2868.16 1523.09 2866.36 1509.31 2875.66 1505.25L2974.46 1462.08Z" fill="black"/>
</g>
</g>
<g id="Heavy-L">
<g id="Solid / GPS Solid_2">
<path id="Shape_2" fill-rule="evenodd" clip-rule="evenodd" d="M2678.46 1462.08C2686.86 1458.41 2695.38 1466.99 2691.73 1475.44L2648.84 1574.88C2644.8 1584.24 2631.11 1582.44 2629.6 1572.35L2623.69 1532.78C2623.52 1531.64 2622.63 1530.74 2621.49 1530.57L2582.18 1524.61C2572.16 1523.09 2570.36 1509.31 2579.66 1505.25L2678.46 1462.08Z" fill="black"/>
</g>
</g>
<g id="Bold-L">
<g id="Solid / GPS Solid_3">
<path id="Shape_3" fill-rule="evenodd" clip-rule="evenodd" d="M2382.46 1462.08C2390.86 1458.41 2399.38 1466.99 2395.73 1475.44L2352.84 1574.88C2348.8 1584.24 2335.11 1582.44 2333.6 1572.35L2327.69 1532.78C2327.52 1531.64 2326.63 1530.74 2325.49 1530.57L2286.18 1524.61C2276.16 1523.09 2274.36 1509.31 2283.66 1505.25L2382.46 1462.08Z" fill="black"/>
</g>
</g>
<g id="Semibold-L">
<g id="Solid / GPS Solid_4">
<path id="Shape_4" fill-rule="evenodd" clip-rule="evenodd" d="M2086.46 1462.08C2094.86 1458.41 2103.38 1466.99 2099.73 1475.44L2056.84 1574.88C2052.8 1584.24 2039.11 1582.44 2037.6 1572.35L2031.69 1532.78C2031.52 1531.64 2030.63 1530.74 2029.49 1530.57L1990.18 1524.61C1980.16 1523.09 1978.36 1509.31 1987.66 1505.25L2086.46 1462.08Z" fill="black"/>
</g>
</g>
<g id="Medium-L">
<g id="Solid / GPS Solid_5">
<path id="Shape_5" fill-rule="evenodd" clip-rule="evenodd" d="M1790.46 1462.08C1798.86 1458.41 1807.38 1466.99 1803.73 1475.44L1760.84 1574.88C1756.8 1584.24 1743.11 1582.44 1741.6 1572.35L1735.69 1532.78C1735.52 1531.64 1734.63 1530.74 1733.49 1530.57L1694.18 1524.61C1684.16 1523.09 1682.36 1509.31 1691.66 1505.25L1790.46 1462.08Z" fill="black"/>
</g>
</g>
<g id="Regular-L">
<g id="Solid / GPS Solid_6">
<path id="Shape_6" fill-rule="evenodd" clip-rule="evenodd" d="M1494.46 1462.08C1502.86 1458.41 1511.38 1466.99 1507.73 1475.44L1464.84 1574.88C1460.8 1584.24 1447.11 1582.44 1445.6 1572.35L1439.69 1532.78C1439.52 1531.64 1438.63 1530.74 1437.49 1530.57L1398.18 1524.61C1388.16 1523.09 1386.36 1509.31 1395.66 1505.25L1494.46 1462.08Z" fill="black"/>
</g>
</g>
<g id="Light-L">
<g id="Solid / GPS Solid_7">
<path id="Shape_7" fill-rule="evenodd" clip-rule="evenodd" d="M1198.46 1462.08C1206.86 1458.41 1215.38 1466.99 1211.73 1475.44L1168.84 1574.88C1164.8 1584.24 1151.11 1582.44 1149.6 1572.35L1143.69 1532.78C1143.52 1531.64 1142.63 1530.74 1141.49 1530.57L1102.18 1524.61C1092.16 1523.09 1090.36 1509.31 1099.66 1505.25L1198.46 1462.08Z" fill="black"/>
</g>
</g>
<g id="Thin-L">
<g id="Solid / GPS Solid_8">
<path id="Shape_8" fill-rule="evenodd" clip-rule="evenodd" d="M902.456 1462.08C910.855 1458.41 919.379 1466.99 915.733 1475.44L872.84 1574.88C868.803 1584.24 855.112 1582.44 853.604 1572.35L847.689 1532.78C847.518 1531.64 846.627 1530.74 845.491 1530.57L806.181 1524.61C796.156 1523.09 794.364 1509.31 803.663 1505.25L902.456 1462.08Z" fill="black"/>
</g>
</g>
<g id="Ultralight-L">
<g id="Solid / GPS Solid_9">
<path id="Shape_9" fill-rule="evenodd" clip-rule="evenodd" d="M606.456 1462.08C614.855 1458.41 623.379 1466.99 619.733 1475.44L576.84 1574.88C572.803 1584.24 559.112 1582.44 557.604 1572.35L551.689 1532.78C551.518 1531.64 550.627 1530.74 549.491 1530.57L510.181 1524.61C500.156 1523.09 498.364 1509.31 507.663 1505.25L606.456 1462.08Z" fill="black"/>
</g>
</g>
<g id="Black-M">
<g id="Solid / GPS Solid_10">
<path id="Shape_10" fill-rule="evenodd" clip-rule="evenodd" d="M2964.36 1045.17C2970.89 1042.32 2977.52 1048.99 2974.68 1055.56L2941.32 1132.91C2938.18 1140.19 2927.53 1138.78 2926.36 1130.94L2921.76 1100.16C2921.63 1099.27 2920.93 1098.57 2920.05 1098.44L2889.47 1093.81C2881.68 1092.63 2880.28 1081.91 2887.52 1078.75L2964.36 1045.17Z" fill="black"/>
</g>
</g>
<g id="Heavy-M">
<g id="Solid / GPS Solid_11">
<path id="Shape_11" fill-rule="evenodd" clip-rule="evenodd" d="M2668.36 1045.17C2674.89 1042.32 2681.52 1048.99 2678.68 1055.56L2645.32 1132.91C2642.18 1140.19 2631.53 1138.78 2630.36 1130.94L2625.76 1100.16C2625.63 1099.27 2624.93 1098.57 2624.05 1098.44L2593.47 1093.81C2585.68 1092.63 2584.28 1081.91 2591.52 1078.75L2668.36 1045.17Z" fill="black"/>
</g>
</g>
<g id="Bold-M">
<g id="Solid / GPS Solid_12">
<path id="Shape_12" fill-rule="evenodd" clip-rule="evenodd" d="M2372.36 1045.17C2378.89 1042.32 2385.52 1048.99 2382.68 1055.56L2349.32 1132.91C2346.18 1140.19 2335.53 1138.78 2334.36 1130.94L2329.76 1100.16C2329.63 1099.27 2328.93 1098.57 2328.05 1098.44L2297.47 1093.81C2289.68 1092.63 2288.28 1081.91 2295.52 1078.75L2372.36 1045.17Z" fill="black"/>
</g>
</g>
<g id="Semibold-M">
<g id="Solid / GPS Solid_13">
<path id="Shape_13" fill-rule="evenodd" clip-rule="evenodd" d="M2076.36 1045.17C2082.89 1042.32 2089.52 1048.99 2086.68 1055.56L2053.32 1132.91C2050.18 1140.19 2039.53 1138.78 2038.36 1130.94L2033.76 1100.16C2033.63 1099.27 2032.93 1098.57 2032.05 1098.44L2001.47 1093.81C1993.68 1092.63 1992.28 1081.91 1999.52 1078.75L2076.36 1045.17Z" fill="black"/>
</g>
</g>
<g id="Medium-M">
<g id="Solid / GPS Solid_14">
<path id="Shape_14" fill-rule="evenodd" clip-rule="evenodd" d="M1780.36 1045.17C1786.89 1042.32 1793.52 1048.99 1790.68 1055.56L1757.32 1132.91C1754.18 1140.19 1743.53 1138.78 1742.36 1130.94L1737.76 1100.16C1737.63 1099.27 1736.93 1098.57 1736.05 1098.44L1705.47 1093.81C1697.68 1092.63 1696.28 1081.91 1703.52 1078.75L1780.36 1045.17Z" fill="black"/>
</g>
</g>
<g id="Regular-M">
<g id="Solid / GPS Solid_15">
<path id="Shape_15" fill-rule="evenodd" clip-rule="evenodd" d="M1484.36 1045.17C1490.89 1042.32 1497.52 1048.99 1494.68 1055.56L1461.32 1132.91C1458.18 1140.19 1447.53 1138.78 1446.36 1130.94L1441.76 1100.16C1441.63 1099.27 1440.93 1098.57 1440.05 1098.44L1409.47 1093.81C1401.68 1092.63 1400.28 1081.91 1407.52 1078.75L1484.36 1045.17Z" fill="black"/>
</g>
</g>
<g id="Light-M">
<g id="Solid / GPS Solid_16">
<path id="Shape_16" fill-rule="evenodd" clip-rule="evenodd" d="M1188.36 1045.17C1194.89 1042.32 1201.52 1048.99 1198.68 1055.56L1165.32 1132.91C1162.18 1140.19 1151.53 1138.78 1150.36 1130.94L1145.76 1100.16C1145.63 1099.27 1144.93 1098.57 1144.05 1098.44L1113.47 1093.81C1105.68 1092.63 1104.28 1081.91 1111.52 1078.75L1188.36 1045.17Z" fill="black"/>
</g>
</g>
<g id="Thin-M">
<g id="Solid / GPS Solid_17">
<path id="Shape_17" fill-rule="evenodd" clip-rule="evenodd" d="M892.355 1045.17C898.888 1042.32 905.517 1048.99 902.681 1055.56L869.32 1132.91C866.18 1140.19 855.532 1138.78 854.358 1130.94L849.758 1100.16C849.625 1099.27 848.932 1098.57 848.048 1098.44L817.474 1093.81C809.677 1092.63 808.283 1081.91 815.516 1078.75L892.355 1045.17Z" fill="black"/>
</g>
</g>
<g id="Ultralight-M">
<g id="Solid / GPS Solid_18">
<path id="Shape_18" fill-rule="evenodd" clip-rule="evenodd" d="M596.355 1045.17C602.888 1042.32 609.517 1048.99 606.681 1055.56L573.32 1132.91C570.18 1140.19 559.532 1138.78 558.358 1130.94L553.758 1100.16C553.625 1099.27 552.932 1098.57 552.048 1098.44L521.474 1093.81C513.677 1092.63 512.283 1081.91 519.516 1078.75L596.355 1045.17Z" fill="black"/>
</g>
</g>
<g id="Black-S">
<g id="Solid / GPS Solid_19">
<path id="Shape_19" fill-rule="evenodd" clip-rule="evenodd" d="M2954.25 628.266C2958.92 626.227 2963.66 630.993 2961.63 635.69L2937.8 690.935C2935.56 696.134 2927.95 695.132 2927.11 689.527L2923.83 667.545C2923.73 666.91 2923.24 666.411 2922.61 666.316L2900.77 663.008C2895.2 662.165 2894.2 654.509 2899.37 652.251L2954.25 628.266Z" fill="black"/>
</g>
</g>
<g id="Heavy-S">
<g id="Solid / GPS Solid_20">
<path id="Shape_20" fill-rule="evenodd" clip-rule="evenodd" d="M2658.25 628.266C2662.92 626.227 2667.66 630.993 2665.63 635.69L2641.8 690.935C2639.56 696.134 2631.95 695.132 2631.11 689.527L2627.83 667.545C2627.73 666.91 2627.24 666.411 2626.61 666.316L2604.77 663.008C2599.2 662.165 2598.2 654.509 2603.37 652.251L2658.25 628.266Z" fill="black"/>
</g>
</g>
<g id="Bold-S">
<g id="Solid / GPS Solid_21">
<path id="Shape_21" fill-rule="evenodd" clip-rule="evenodd" d="M2362.25 628.266C2366.92 626.227 2371.66 630.993 2369.63 635.69L2345.8 690.935C2343.56 696.134 2335.95 695.132 2335.11 689.527L2331.83 667.545C2331.73 666.91 2331.24 666.411 2330.61 666.316L2308.77 663.008C2303.2 662.165 2302.2 654.509 2307.37 652.251L2362.25 628.266Z" fill="black"/>
</g>
</g>
<g id="Semibold-S">
<g id="Solid / GPS Solid_22">
<path id="Shape_22" fill-rule="evenodd" clip-rule="evenodd" d="M2066.25 628.266C2070.92 626.227 2075.66 630.993 2073.63 635.69L2049.8 690.935C2047.56 696.134 2039.95 695.132 2039.11 689.527L2035.83 667.545C2035.73 666.91 2035.24 666.411 2034.61 666.316L2012.77 663.008C2007.2 662.165 2006.2 654.509 2011.37 652.251L2066.25 628.266Z" fill="black"/>
</g>
</g>
<g id="Medium-S">
<g id="Solid / GPS Solid_23">
<path id="Shape_23" fill-rule="evenodd" clip-rule="evenodd" d="M1770.25 628.266C1774.92 626.227 1779.66 630.993 1777.63 635.69L1753.8 690.935C1751.56 696.134 1743.95 695.132 1743.11 689.527L1739.83 667.545C1739.73 666.91 1739.24 666.411 1738.61 666.316L1716.77 663.008C1711.2 662.165 1710.2 654.509 1715.37 652.251L1770.25 628.266Z" fill="black"/>
</g>
</g>
<g id="Regular-S">
<g id="Solid / GPS Solid_24">
<path id="Shape_24" fill-rule="evenodd" clip-rule="evenodd" d="M1474.25 628.266C1478.92 626.227 1483.66 630.993 1481.63 635.69L1457.8 690.935C1455.56 696.134 1447.95 695.132 1447.11 689.527L1443.83 667.545C1443.73 666.91 1443.24 666.411 1442.61 666.316L1420.77 663.008C1415.2 662.165 1414.2 654.509 1419.37 652.251L1474.25 628.266Z" fill="black"/>
</g>
</g>
<g id="Light-S">
<g id="Solid / GPS Solid_25">
<path id="Shape_25" fill-rule="evenodd" clip-rule="evenodd" d="M1178.25 628.266C1182.92 626.227 1187.66 630.993 1185.63 635.69L1161.8 690.935C1159.56 696.134 1151.95 695.132 1151.11 689.527L1147.83 667.545C1147.73 666.91 1147.24 666.411 1146.61 666.316L1124.77 663.008C1119.2 662.165 1118.2 654.509 1123.37 652.251L1178.25 628.266Z" fill="black"/>
</g>
</g>
<g id="Thin-S">
<g id="Solid / GPS Solid_26">
<path id="Shape_26" fill-rule="evenodd" clip-rule="evenodd" d="M882.254 628.266C886.92 626.227 891.655 630.993 889.629 635.69L865.8 690.935C863.557 696.134 855.951 695.132 855.113 689.527L851.827 667.545C851.732 666.91 851.237 666.411 850.606 666.316L828.767 663.008C823.198 662.165 822.202 654.509 827.368 652.251L882.254 628.266Z" fill="black"/>
</g>
</g>
<g id="Ultralight-S">
<g id="Solid / GPS Solid_27">
<path id="Shape_27" fill-rule="evenodd" clip-rule="evenodd" d="M586.254 628.266C590.92 626.227 595.655 630.993 593.629 635.69L569.8 690.935C567.557 696.134 559.951 695.132 559.113 689.527L555.827 667.545C555.732 666.91 555.237 666.411 554.606 666.316L532.767 663.008C527.198 662.165 526.202 654.509 531.368 652.251L586.254 628.266Z" fill="black"/>
</g>
</g>
</g>
</g>
<defs>
<clipPath id="clip0_0_1">
<rect width="3300" height="2200" fill="white"/>
</clipPath>
</defs>
</svg>
