<svg width="3300" height="2200" viewBox="0 0 3300 2200" fill="none" xmlns="http://www.w3.org/2000/svg">
<rect width="3300" height="2200" fill="#E5E5E5"/>
<g id="Category / Outline / Typography" clip-path="url(#clip0_0_1)">
<g id="Notes">
<path id="artboard" d="M3300 0H0V2200H3300V0Z" fill="white"/>
<path id="Vector" d="M263 292H3036" stroke="black" stroke-width="0.5"/>
<text id="Weight/Scale Variations" fill="black" xml:space="preserve" style="white-space: pre" font-family="Roboto" font-size="12" letter-spacing="0em"><tspan x="263" y="321.102">Weight/Scale Variations</tspan></text>
<text id="Ultralight" fill="black" xml:space="preserve" style="white-space: pre" font-family="Roboto" font-size="12" letter-spacing="0em"><tspan x="535.211" y="321.102">Ultralight</tspan></text>
<text id="Thin" fill="black" xml:space="preserve" style="white-space: pre" font-family="Roboto" font-size="12" letter-spacing="0em"><tspan x="844.422" y="321.102">Thin</tspan></text>
<text id="Light" fill="black" xml:space="preserve" style="white-space: pre" font-family="Roboto" font-size="12" letter-spacing="0em"><tspan x="1139.63" y="321.102">Light</tspan></text>
<text id="Regular" fill="black" xml:space="preserve" style="white-space: pre" font-family="Roboto" font-size="12" letter-spacing="0em"><tspan x="1429.34" y="321.102">Regular</tspan></text>
<text id="Medium" fill="black" xml:space="preserve" style="white-space: pre" font-family="Roboto" font-size="12" letter-spacing="0em"><tspan x="1724.56" y="321.102">Medium</tspan></text>
<text id="Semibold" fill="black" xml:space="preserve" style="white-space: pre" font-family="Roboto" font-size="12" letter-spacing="0em"><tspan x="2017.77" y="321.102">Semibold</tspan></text>
<text id="Bold" fill="black" xml:space="preserve" style="white-space: pre" font-family="Roboto" font-size="12" letter-spacing="0em"><tspan x="2327.48" y="321.102">Bold</tspan></text>
<text id="Heavy" fill="black" xml:space="preserve" style="white-space: pre" font-family="Roboto" font-size="12" letter-spacing="0em"><tspan x="2620.19" y="321.102">Heavy</tspan></text>
<text id="Black" fill="black" xml:space="preserve" style="white-space: pre" font-family="Roboto" font-size="12" letter-spacing="0em"><tspan x="2918.4" y="321.102">Black</tspan></text>
<path id="Vector_2" d="M263 1903H3036" stroke="black" stroke-width="0.5"/>
<g id="Group">
<path id="Vector_3" d="M272.248 1933.83C276.555 1933.83 280.139 1930.26 280.139 1925.95C280.139 1921.64 276.545 1918.07 272.238 1918.07C267.941 1918.07 264.367 1921.64 264.367 1925.95C264.367 1930.26 267.951 1933.83 272.248 1933.83ZM272.248 1932.35C268.703 1932.35 265.871 1929.51 265.871 1925.95C265.871 1922.4 268.693 1919.55 272.238 1919.55C275.793 1919.55 278.635 1922.4 278.644 1925.95C278.654 1929.51 275.803 1932.35 272.248 1932.35ZM272.229 1929.57C272.697 1929.57 272.971 1929.26 272.971 1928.74V1926.68H275.197C275.695 1926.68 276.037 1926.43 276.037 1925.96C276.037 1925.48 275.715 1925.22 275.197 1925.22H272.971V1922.99C272.971 1922.47 272.697 1922.15 272.229 1922.15C271.76 1922.15 271.506 1922.49 271.506 1922.99V1925.22H269.299C268.781 1925.22 268.449 1925.48 268.449 1925.96C268.449 1926.43 268.801 1926.68 269.299 1926.68H271.506V1928.74C271.506 1929.24 271.76 1929.57 272.229 1929.57Z" fill="black"/>
</g>
<g id="Group_2">
<path id="Vector_4" d="M293.215 1935.91C298.664 1935.91 303.176 1931.4 303.176 1925.95C303.176 1920.51 298.654 1915.99 293.205 1915.99C287.766 1915.99 283.254 1920.51 283.254 1925.95C283.254 1931.4 287.775 1935.91 293.215 1935.91ZM293.215 1934.25C288.605 1934.25 284.924 1930.56 284.924 1925.95C284.924 1921.35 288.596 1917.65 293.205 1917.65C297.814 1917.65 301.506 1921.35 301.516 1925.95C301.525 1930.56 297.824 1934.25 293.215 1934.25ZM293.195 1930.59C293.713 1930.59 294.025 1930.23 294.025 1929.66V1926.77H297.082C297.629 1926.77 298.01 1926.49 298.01 1925.97C298.01 1925.44 297.648 1925.14 297.082 1925.14H294.025V1922.07C294.025 1921.5 293.713 1921.14 293.195 1921.14C292.678 1921.14 292.385 1921.52 292.385 1922.07V1925.14H289.338C288.771 1925.14 288.4 1925.44 288.4 1925.97C288.4 1926.49 288.791 1926.77 289.338 1926.77H292.385V1929.66C292.385 1930.21 292.678 1930.59 293.195 1930.59Z" fill="black"/>
</g>
<g id="Group_3">
<path id="Vector_5" d="M319.895 1938.67C326.857 1938.67 332.619 1932.92 332.619 1925.96C332.619 1918.99 326.848 1913.24 319.885 1913.24C312.932 1913.24 307.18 1918.99 307.18 1925.96C307.18 1932.92 312.941 1938.67 319.895 1938.67ZM319.895 1936.86C313.859 1936.86 309.006 1931.99 309.006 1925.96C309.006 1919.92 313.85 1915.06 319.885 1915.06C325.93 1915.06 330.783 1919.92 330.793 1925.96C330.803 1931.99 325.939 1936.86 319.895 1936.86ZM319.875 1931.93C320.441 1931.93 320.793 1931.54 320.793 1930.94V1926.87H325.031C325.617 1926.87 326.037 1926.53 326.037 1925.98C326.037 1925.4 325.647 1925.06 325.031 1925.06H320.793V1920.81C320.793 1920.2 320.441 1919.8 319.875 1919.8C319.309 1919.8 318.986 1920.21 318.986 1920.81V1925.06H314.758C314.143 1925.06 313.732 1925.4 313.732 1925.98C313.732 1926.53 314.162 1926.87 314.758 1926.87H318.986V1930.94C318.986 1931.52 319.309 1931.93 319.875 1931.93Z" fill="black"/>
</g>
<text id="Design Variations" fill="black" xml:space="preserve" style="white-space: pre" font-family="Roboto" font-size="12" letter-spacing="0em"><tspan x="263" y="1952.1">Design Variations</tspan></text>
<text id="Symbols are supported in up to nine weights and three scales." fill="black" xml:space="preserve" style="white-space: pre" font-family="Roboto" font-size="12" letter-spacing="0em"><tspan x="263" y="1970.1">Symbols are supported in up to nine weights and three scales.</tspan></text>
<text id="For optimal layout with text and other symbols, vertically align" fill="black" xml:space="preserve" style="white-space: pre" font-family="Roboto" font-size="12" letter-spacing="0em"><tspan x="263" y="1988.1">For optimal layout with text and other symbols, vertically align</tspan></text>
<text id="symbols with the adjacent text." fill="black" xml:space="preserve" style="white-space: pre" font-family="Roboto" font-size="12" letter-spacing="0em"><tspan x="263" y="2006.1">symbols with the adjacent text.</tspan></text>
<path id="Vector_6" opacity="0.4" d="M779 1919H776V1933H779V1919Z" fill="#00AEEF"/>
<g id="Group_4">
<path id="Vector_7" d="M789.527 1933H791.373L786.178 1918.91H784.439L779.244 1933H781.09L782.506 1928.96H788.111L789.527 1933ZM785.279 1921.04H785.338L787.594 1927.47H783.023L785.279 1921.04Z" fill="black"/>
</g>
<path id="Vector_8" opacity="0.4" d="M794.617 1919H791.617V1933H794.617V1919Z" fill="#00AEEF"/>
<text id="Margins" fill="black" xml:space="preserve" style="white-space: pre" font-family="Roboto" font-size="12" letter-spacing="0em"><tspan x="776" y="1952.1">Margins</tspan></text>
<text id="Leading and trailing margins on the left and right side of each symbol" fill="black" xml:space="preserve" style="white-space: pre" font-family="Roboto" font-size="12" letter-spacing="0em"><tspan x="776" y="1970.1">Leading and trailing margins on the left and right side of each symbol</tspan></text>
<text id="can be adjusted by modifying the width of the blue rectangles." fill="black" xml:space="preserve" style="white-space: pre" font-family="Roboto" font-size="12" letter-spacing="0em"><tspan x="776" y="1988.1">can be adjusted by modifying the width of the blue rectangles.</tspan></text>
<text id="Modifications are automatically applied proportionally to all" fill="black" xml:space="preserve" style="white-space: pre" font-family="Roboto" font-size="12" letter-spacing="0em"><tspan x="776" y="2006.1">Modifications are automatically applied proportionally to all</tspan></text>
<text id="scales and weights." fill="black" xml:space="preserve" style="white-space: pre" font-family="Roboto" font-size="12" letter-spacing="0em"><tspan x="776" y="2024.1">scales and weights.</tspan></text>
<g id="Group_5">
<path id="Vector_9" d="M1291.83 1936.11L1293.37 1937.66C1294.22 1938.49 1295.19 1938.42 1296.06 1937.46L1306.27 1926.34C1306.7 1926.63 1307.1 1926.62 1307.56 1926.52L1308.61 1926.31L1309.3 1927L1309.25 1927.52C1309.19 1928.05 1309.35 1928.47 1309.85 1928.97L1310.66 1929.78C1311.17 1930.28 1311.82 1930.31 1312.3 1929.83L1315.55 1926.58C1316.03 1926.1 1316.01 1925.45 1315.5 1924.94L1314.68 1924.12C1314.19 1923.62 1313.77 1923.45 1313.24 1923.53L1312.71 1923.58L1312.06 1922.92L1312.34 1921.78C1312.49 1921.21 1312.34 1920.74 1311.71 1920.14L1309.3 1917.75C1305.76 1914.22 1301.23 1914.33 1298.11 1917.46C1297.69 1917.89 1297.64 1918.48 1297.92 1918.91C1298.15 1919.28 1298.63 1919.5 1299.27 1919.34C1300.79 1918.96 1302.3 1919.07 1303.78 1920.08L1303.16 1921.66C1302.93 1922.25 1302.94 1922.73 1303.18 1923.16L1292.02 1933.44C1291.08 1934.31 1290.97 1935.25 1291.83 1936.11ZM1299.67 1917.85C1302.34 1915.86 1305.65 1916.17 1308.05 1918.58L1310.68 1921.19C1310.91 1921.43 1310.94 1921.61 1310.88 1921.91L1310.5 1923.47L1312.08 1925.04L1313.04 1924.95C1313.33 1924.92 1313.41 1924.94 1313.64 1925.17L1314.26 1925.79L1311.51 1928.54L1310.88 1927.92C1310.66 1927.7 1310.64 1927.6 1310.67 1927.32L1310.76 1926.36L1309.19 1924.8L1307.57 1925.11C1307.29 1925.17 1307.14 1925.17 1306.91 1924.92L1304.73 1922.75C1304.51 1922.51 1304.48 1922.37 1304.61 1922.05L1305.55 1919.78C1303.95 1918.24 1301.84 1917.39 1299.8 1918.05C1299.71 1918.08 1299.64 1918.06 1299.61 1918.02C1299.59 1917.97 1299.59 1917.92 1299.67 1917.85ZM1293.1 1935.41C1292.61 1934.91 1292.79 1934.61 1293.12 1934.31L1304.08 1924.19L1305.31 1925.42L1295.15 1936.35C1294.85 1936.68 1294.47 1936.78 1294.07 1936.38L1293.1 1935.41Z" fill="black"/>
</g>
<text id="Exporting" fill="black" xml:space="preserve" style="white-space: pre" font-family="Roboto" font-size="12" letter-spacing="0em"><tspan x="1289" y="1952.1">Exporting</tspan></text>
<text id="Symbols should be outlined when exporting to ensure the" fill="black" xml:space="preserve" style="white-space: pre" font-family="Roboto" font-size="12" letter-spacing="0em"><tspan x="1289" y="1970.1">Symbols should be outlined when exporting to ensure the</tspan></text>
<text id="design is preserved when submitting to Xcode." fill="black" xml:space="preserve" style="white-space: pre" font-family="Roboto" font-size="12" letter-spacing="0em"><tspan x="1289" y="1988.1">design is preserved when submitting to Xcode.</tspan></text>
<text id="template-version" fill="black" xml:space="preserve" style="white-space: pre" font-family="Roboto" font-size="12" letter-spacing="0em"><tspan x="2958" y="1932.1">Template v.1.0</tspan></text>
<text id="Generated from pencil.circle" fill="black" xml:space="preserve" style="white-space: pre" font-family="Roboto" font-size="12" letter-spacing="0em"><tspan x="2885" y="1950.1">Generated from pencil.circle</tspan></text>
<text id="Typeset at 100 points" fill="black" xml:space="preserve" style="white-space: pre" font-family="Roboto" font-size="12" letter-spacing="0em"><tspan x="2921" y="1968.1">Typeset at 100 points</tspan></text>
<text id="Small" fill="black" xml:space="preserve" style="white-space: pre" font-family="Roboto" font-size="12" letter-spacing="0em"><tspan x="263" y="725.102">Small</tspan></text>
<text id="Medium_2" fill="black" xml:space="preserve" style="white-space: pre" font-family="Roboto" font-size="12" letter-spacing="0em"><tspan x="263" y="1155.1">Medium</tspan></text>
<text id="Large" fill="black" xml:space="preserve" style="white-space: pre" font-family="Roboto" font-size="12" letter-spacing="0em"><tspan x="263" y="1585.1">Large</tspan></text>
</g>
<g id="Guides">
<g id="H-reference">
<path id="Vector_10" d="M393.932 695.998H396.666L369.566 625.539H367.076L339.977 695.998H342.662L351.94 671.535H384.703L393.932 695.998ZM368.199 628.908H368.443L383.824 669.289H352.818L368.199 628.908Z" fill="#27AAE1"/>
</g>
<path id="Baseline-S" d="M263 696H3036" stroke="#27AAE1" stroke-width="0.577"/>
<path id="Capline-S" d="M263 626H3036" stroke="#27AAE1" stroke-width="0.577"/>
<g id="H-reference_2">
<path id="Vector_11" d="M393.932 1126H396.666L369.566 1055.54H367.076L339.977 1126H342.662L351.94 1101.54H384.703L393.932 1126ZM368.199 1058.91H368.443L383.824 1099.29H352.818L368.199 1058.91Z" fill="#27AAE1"/>
</g>
<path id="Baseline-M" d="M263 1126H3036" stroke="#27AAE1" stroke-width="0.577"/>
<path id="Capline-M" d="M263 1056H3036" stroke="#27AAE1" stroke-width="0.577"/>
<g id="H-reference_3">
<path id="Vector_12" d="M393.932 1556H396.666L369.566 1485.54H367.076L339.977 1556H342.662L351.94 1531.54H384.703L393.932 1556ZM368.199 1488.91H368.443L383.824 1529.29H352.818L368.199 1488.91Z" fill="#27AAE1"/>
</g>
<g id="Group 1">
<path id="Baseline-L" d="M263 1556H3036" stroke="#27AAE1" stroke-width="0.577"/>
<path id="Capline-L" d="M263 1486H3036" stroke="#27AAE1" stroke-width="0.577"/>
</g>
<path id="left-margin" opacity="0.4" d="M1403.04 1030.79H1394.3V1150.12H1403.04V1030.79Z" fill="#00AEEF"/>
<path id="right-margin" opacity="0.4" d="M1503.39 1030.79H1494.65V1150.12H1503.39V1030.79Z" fill="#00AEEF"/>
</g>
<g id="Symbols">
<g id="Black-L">
<g id="Outline / Typography Outline">
<g id="Shape">
<path d="M2925.95 1494.46L2915.93 1529.29C2915.52 1530.73 2916.6 1532.16 2918.1 1532.16H2938.12C2939.62 1532.16 2940.7 1530.73 2940.29 1529.29L2930.27 1494.46C2929.65 1492.29 2926.57 1492.29 2925.95 1494.46Z" fill="black"/>
<path fill-rule="evenodd" clip-rule="evenodd" d="M2910.11 1550.26C2910.39 1549.29 2911.27 1548.62 2912.28 1548.62H2943.72C2944.73 1548.62 2945.61 1549.28 2945.88 1550.25L2951.48 1569.62C2951.75 1570.59 2952.64 1571.25 2953.64 1571.25H2972.38C2973.92 1571.25 2975 1569.75 2974.52 1568.29L2942.75 1472.29C2942.45 1471.37 2941.59 1470.75 2940.62 1470.75H2917.37C2916.4 1470.75 2915.54 1471.37 2915.23 1472.29L2883.47 1568.29C2882.99 1569.75 2884.07 1571.25 2885.6 1571.25H2902.52C2903.52 1571.25 2904.41 1570.58 2904.68 1569.61L2910.11 1550.26ZM2871.28 1574.1C2870.15 1577.5 2872.68 1581 2876.26 1581H2907.63C2909.98 1581 2912.05 1579.43 2912.69 1577.17L2917.5 1560.01C2917.77 1559.04 2918.66 1558.37 2919.67 1558.37H2936.39C2937.39 1558.37 2938.27 1559.03 2938.55 1560L2943.52 1577.21C2944.16 1579.45 2946.22 1581 2948.56 1581H2981.73C2985.3 1581 2987.83 1577.5 2986.71 1574.1L2950.48 1464.6C2949.77 1462.45 2947.76 1461 2945.49 1461H2912.49C2910.23 1461 2908.22 1462.45 2907.51 1464.6L2871.28 1574.1Z" fill="black"/>
</g>
</g>
</g>
<g id="Heavy-L">
<g id="Outline / Typography Outline_2">
<g id="Shape_2">
<path d="M2629.95 1494.46L2619.93 1529.29C2619.52 1530.73 2620.6 1532.16 2622.1 1532.16H2642.12C2643.62 1532.16 2644.7 1530.73 2644.29 1529.29L2634.27 1494.46C2633.65 1492.29 2630.57 1492.29 2629.95 1494.46Z" fill="black"/>
<path fill-rule="evenodd" clip-rule="evenodd" d="M2614.11 1550.26C2614.39 1549.29 2615.27 1548.62 2616.28 1548.62H2647.72C2648.73 1548.62 2649.61 1549.28 2649.88 1550.25L2655.48 1569.62C2655.75 1570.59 2656.64 1571.25 2657.64 1571.25H2676.38C2677.92 1571.25 2679 1569.75 2678.52 1568.29L2646.75 1472.29C2646.45 1471.37 2645.59 1470.75 2644.62 1470.75H2621.37C2620.4 1470.75 2619.54 1471.37 2619.23 1472.29L2587.47 1568.29C2586.99 1569.75 2588.07 1571.25 2589.6 1571.25H2606.52C2607.52 1571.25 2608.41 1570.58 2608.68 1569.61L2614.11 1550.26ZM2575.28 1574.1C2574.15 1577.5 2576.68 1581 2580.26 1581H2611.63C2613.98 1581 2616.05 1579.43 2616.69 1577.17L2621.5 1560.01C2621.77 1559.04 2622.66 1558.37 2623.67 1558.37H2640.39C2641.39 1558.37 2642.27 1559.03 2642.55 1560L2647.52 1577.21C2648.16 1579.45 2650.22 1581 2652.56 1581H2685.73C2689.3 1581 2691.83 1577.5 2690.71 1574.1L2654.48 1464.6C2653.77 1462.45 2651.76 1461 2649.49 1461H2616.49C2614.23 1461 2612.22 1462.45 2611.51 1464.6L2575.28 1574.1Z" fill="black"/>
</g>
</g>
</g>
<g id="Bold-L">
<g id="Outline / Typography Outline_3">
<g id="Shape_3">
<path d="M2333.95 1494.46L2323.93 1529.29C2323.52 1530.73 2324.6 1532.16 2326.1 1532.16H2346.12C2347.62 1532.16 2348.7 1530.73 2348.29 1529.29L2338.27 1494.46C2337.65 1492.29 2334.57 1492.29 2333.95 1494.46Z" fill="black"/>
<path fill-rule="evenodd" clip-rule="evenodd" d="M2318.11 1550.26C2318.39 1549.29 2319.27 1548.62 2320.28 1548.62H2351.72C2352.73 1548.62 2353.61 1549.28 2353.88 1550.25L2359.48 1569.62C2359.75 1570.59 2360.64 1571.25 2361.64 1571.25H2380.38C2381.92 1571.25 2383 1569.75 2382.52 1568.29L2350.75 1472.29C2350.45 1471.37 2349.59 1470.75 2348.62 1470.75H2325.37C2324.4 1470.75 2323.54 1471.37 2323.23 1472.29L2291.47 1568.29C2290.99 1569.75 2292.07 1571.25 2293.6 1571.25H2310.52C2311.52 1571.25 2312.41 1570.58 2312.68 1569.61L2318.11 1550.26ZM2279.28 1574.1C2278.15 1577.5 2280.68 1581 2284.26 1581H2315.63C2317.98 1581 2320.05 1579.43 2320.69 1577.17L2325.5 1560.01C2325.77 1559.04 2326.66 1558.37 2327.67 1558.37H2344.39C2345.39 1558.37 2346.27 1559.03 2346.55 1560L2351.52 1577.21C2352.16 1579.45 2354.22 1581 2356.56 1581H2389.73C2393.3 1581 2395.83 1577.5 2394.71 1574.1L2358.48 1464.6C2357.77 1462.45 2355.76 1461 2353.49 1461H2320.49C2318.23 1461 2316.22 1462.45 2315.51 1464.6L2279.28 1574.1Z" fill="black"/>
</g>
</g>
</g>
<g id="Semibold-L">
<g id="Outline / Typography Outline_4">
<g id="Shape_4">
<path d="M2037.95 1494.46L2027.93 1529.29C2027.52 1530.73 2028.6 1532.16 2030.1 1532.16H2050.12C2051.62 1532.16 2052.7 1530.73 2052.29 1529.29L2042.27 1494.46C2041.65 1492.29 2038.57 1492.29 2037.95 1494.46Z" fill="black"/>
<path fill-rule="evenodd" clip-rule="evenodd" d="M2022.11 1550.26C2022.39 1549.29 2023.27 1548.62 2024.28 1548.62H2055.72C2056.73 1548.62 2057.61 1549.28 2057.88 1550.25L2063.48 1569.62C2063.75 1570.59 2064.64 1571.25 2065.64 1571.25H2084.38C2085.92 1571.25 2087 1569.75 2086.52 1568.29L2054.75 1472.29C2054.45 1471.37 2053.59 1470.75 2052.62 1470.75H2029.37C2028.4 1470.75 2027.54 1471.37 2027.23 1472.29L1995.47 1568.29C1994.99 1569.75 1996.07 1571.25 1997.6 1571.25H2014.52C2015.52 1571.25 2016.41 1570.58 2016.68 1569.61L2022.11 1550.26ZM1983.28 1574.1C1982.15 1577.5 1984.68 1581 1988.26 1581H2019.63C2021.98 1581 2024.05 1579.43 2024.69 1577.17L2029.5 1560.01C2029.77 1559.04 2030.66 1558.37 2031.67 1558.37H2048.39C2049.39 1558.37 2050.27 1559.03 2050.55 1560L2055.52 1577.21C2056.16 1579.45 2058.22 1581 2060.56 1581H2093.73C2097.3 1581 2099.83 1577.5 2098.71 1574.1L2062.48 1464.6C2061.77 1462.45 2059.76 1461 2057.49 1461H2024.49C2022.23 1461 2020.22 1462.45 2019.51 1464.6L1983.28 1574.1Z" fill="black"/>
</g>
</g>
</g>
<g id="Medium-L">
<g id="Outline / Typography Outline_5">
<g id="Shape_5">
<path d="M1741.95 1494.46L1731.93 1529.29C1731.52 1530.73 1732.6 1532.16 1734.1 1532.16H1754.12C1755.62 1532.16 1756.7 1530.73 1756.29 1529.29L1746.27 1494.46C1745.65 1492.29 1742.57 1492.29 1741.95 1494.46Z" fill="black"/>
<path fill-rule="evenodd" clip-rule="evenodd" d="M1726.11 1550.26C1726.39 1549.29 1727.27 1548.62 1728.28 1548.62H1759.72C1760.73 1548.62 1761.61 1549.28 1761.88 1550.25L1767.48 1569.62C1767.75 1570.59 1768.64 1571.25 1769.64 1571.25H1788.38C1789.92 1571.25 1791 1569.75 1790.52 1568.29L1758.75 1472.29C1758.45 1471.37 1757.59 1470.75 1756.62 1470.75H1733.37C1732.4 1470.75 1731.54 1471.37 1731.23 1472.29L1699.47 1568.29C1698.99 1569.75 1700.07 1571.25 1701.6 1571.25H1718.52C1719.52 1571.25 1720.41 1570.58 1720.68 1569.61L1726.11 1550.26ZM1687.28 1574.1C1686.15 1577.5 1688.68 1581 1692.26 1581H1723.63C1725.98 1581 1728.05 1579.43 1728.69 1577.17L1733.5 1560.01C1733.77 1559.04 1734.66 1558.37 1735.67 1558.37H1752.39C1753.39 1558.37 1754.27 1559.03 1754.55 1560L1759.52 1577.21C1760.16 1579.45 1762.22 1581 1764.56 1581H1797.73C1801.3 1581 1803.83 1577.5 1802.71 1574.1L1766.48 1464.6C1765.77 1462.45 1763.76 1461 1761.49 1461H1728.49C1726.23 1461 1724.22 1462.45 1723.51 1464.6L1687.28 1574.1Z" fill="black"/>
</g>
</g>
</g>
<g id="Regular-L">
<g id="Outline / Typography Outline_6">
<g id="Shape_6">
<path d="M1445.95 1494.46L1435.93 1529.29C1435.52 1530.73 1436.6 1532.16 1438.1 1532.16H1458.12C1459.62 1532.16 1460.7 1530.73 1460.29 1529.29L1450.27 1494.46C1449.65 1492.29 1446.57 1492.29 1445.95 1494.46Z" fill="black"/>
<path fill-rule="evenodd" clip-rule="evenodd" d="M1430.11 1550.26C1430.39 1549.29 1431.27 1548.62 1432.28 1548.62H1463.72C1464.73 1548.62 1465.61 1549.28 1465.88 1550.25L1471.48 1569.62C1471.75 1570.59 1472.64 1571.25 1473.64 1571.25H1492.38C1493.92 1571.25 1495 1569.75 1494.52 1568.29L1462.75 1472.29C1462.45 1471.37 1461.59 1470.75 1460.62 1470.75H1437.37C1436.4 1470.75 1435.54 1471.37 1435.23 1472.29L1403.47 1568.29C1402.99 1569.75 1404.07 1571.25 1405.6 1571.25H1422.52C1423.52 1571.25 1424.41 1570.58 1424.68 1569.61L1430.11 1550.26ZM1391.28 1574.1C1390.15 1577.5 1392.68 1581 1396.26 1581H1427.63C1429.98 1581 1432.05 1579.43 1432.69 1577.17L1437.5 1560.01C1437.77 1559.04 1438.66 1558.37 1439.67 1558.37H1456.39C1457.39 1558.37 1458.27 1559.03 1458.55 1560L1463.52 1577.21C1464.16 1579.45 1466.22 1581 1468.56 1581H1501.73C1505.3 1581 1507.83 1577.5 1506.71 1574.1L1470.48 1464.6C1469.77 1462.45 1467.76 1461 1465.49 1461H1432.49C1430.23 1461 1428.22 1462.45 1427.51 1464.6L1391.28 1574.1Z" fill="black"/>
</g>
</g>
</g>
<g id="Light-L">
<g id="Outline / Typography Outline_7">
<g id="Shape_7">
<path d="M1149.95 1494.46L1139.93 1529.29C1139.52 1530.73 1140.6 1532.16 1142.1 1532.16H1162.12C1163.62 1532.16 1164.7 1530.73 1164.29 1529.29L1154.27 1494.46C1153.65 1492.29 1150.57 1492.29 1149.95 1494.46Z" fill="black"/>
<path fill-rule="evenodd" clip-rule="evenodd" d="M1134.11 1550.26C1134.39 1549.29 1135.27 1548.62 1136.28 1548.62H1167.72C1168.73 1548.62 1169.61 1549.28 1169.88 1550.25L1175.48 1569.62C1175.75 1570.59 1176.64 1571.25 1177.64 1571.25H1196.38C1197.92 1571.25 1199 1569.75 1198.52 1568.29L1166.75 1472.29C1166.45 1471.37 1165.59 1470.75 1164.62 1470.75H1141.37C1140.4 1470.75 1139.54 1471.37 1139.23 1472.29L1107.47 1568.29C1106.99 1569.75 1108.07 1571.25 1109.6 1571.25H1126.52C1127.52 1571.25 1128.41 1570.58 1128.68 1569.61L1134.11 1550.26ZM1095.28 1574.1C1094.15 1577.5 1096.68 1581 1100.26 1581H1131.63C1133.98 1581 1136.05 1579.43 1136.69 1577.17L1141.5 1560.01C1141.77 1559.04 1142.66 1558.37 1143.67 1558.37H1160.39C1161.39 1558.37 1162.27 1559.03 1162.55 1560L1167.52 1577.21C1168.16 1579.45 1170.22 1581 1172.56 1581H1205.73C1209.3 1581 1211.83 1577.5 1210.71 1574.1L1174.48 1464.6C1173.77 1462.45 1171.76 1461 1169.49 1461H1136.49C1134.23 1461 1132.22 1462.45 1131.51 1464.6L1095.28 1574.1Z" fill="black"/>
</g>
</g>
</g>
<g id="Thin-L">
<g id="Outline / Typography Outline_8">
<g id="Shape_8">
<path d="M853.948 1494.46L843.935 1529.29C843.521 1530.73 844.601 1532.16 846.097 1532.16H866.124C867.62 1532.16 868.7 1530.73 868.286 1529.29L858.273 1494.46C857.649 1492.29 854.572 1492.29 853.948 1494.46Z" fill="black"/>
<path fill-rule="evenodd" clip-rule="evenodd" d="M838.113 1550.26C838.385 1549.29 839.271 1548.62 840.279 1548.62H871.723C872.725 1548.62 873.607 1549.28 873.885 1550.25L879.476 1569.62C879.754 1570.59 880.635 1571.25 881.637 1571.25H900.382C901.916 1571.25 903 1569.75 902.518 1568.29L870.754 1472.29C870.449 1471.37 869.588 1470.75 868.618 1470.75H845.368C844.398 1470.75 843.537 1471.37 843.232 1472.29L811.467 1568.29C810.985 1569.75 812.07 1571.25 813.603 1571.25H830.515C831.524 1571.25 832.409 1570.58 832.682 1569.61L838.113 1550.26ZM799.276 1574.1C798.151 1577.5 800.681 1581 804.26 1581H835.631C837.984 1581 840.05 1579.43 840.686 1577.17L845.502 1560.01C845.775 1559.04 846.66 1558.37 847.669 1558.37H864.388C865.391 1558.37 866.272 1559.03 866.55 1560L871.516 1577.21C872.164 1579.45 874.221 1581 876.56 1581H909.726C913.304 1581 915.834 1577.5 914.71 1574.1L878.478 1464.6C877.767 1462.45 875.758 1461 873.494 1461H840.491C838.227 1461 836.218 1462.45 835.507 1464.6L799.276 1574.1Z" fill="black"/>
</g>
</g>
</g>
<g id="Ultralight-L">
<g id="Outline / Typography Outline_9">
<g id="Shape_9">
<path d="M557.948 1494.46L547.935 1529.29C547.521 1530.73 548.601 1532.16 550.097 1532.16H570.124C571.62 1532.16 572.7 1530.73 572.286 1529.29L562.273 1494.46C561.649 1492.29 558.572 1492.29 557.948 1494.46Z" fill="black"/>
<path fill-rule="evenodd" clip-rule="evenodd" d="M542.113 1550.26C542.385 1549.29 543.271 1548.62 544.279 1548.62H575.723C576.725 1548.62 577.607 1549.28 577.885 1550.25L583.476 1569.62C583.754 1570.59 584.635 1571.25 585.637 1571.25H604.382C605.916 1571.25 607 1569.75 606.518 1568.29L574.754 1472.29C574.449 1471.37 573.588 1470.75 572.618 1470.75H549.368C548.398 1470.75 547.537 1471.37 547.232 1472.29L515.467 1568.29C514.985 1569.75 516.07 1571.25 517.603 1571.25H534.515C535.524 1571.25 536.409 1570.58 536.682 1569.61L542.113 1550.26ZM503.276 1574.1C502.151 1577.5 504.681 1581 508.26 1581H539.631C541.984 1581 544.05 1579.43 544.686 1577.17L549.502 1560.01C549.775 1559.04 550.66 1558.37 551.669 1558.37H568.388C569.391 1558.37 570.272 1559.03 570.55 1560L575.516 1577.21C576.164 1579.45 578.221 1581 580.56 1581H613.726C617.304 1581 619.834 1577.5 618.71 1574.1L582.478 1464.6C581.767 1462.45 579.758 1461 577.494 1461H544.491C542.227 1461 540.218 1462.45 539.507 1464.6L503.276 1574.1Z" fill="black"/>
</g>
</g>
</g>
<g id="Black-M">
<g id="Outline / Typography Outline_10">
<g id="Shape_10">
<path d="M2926.63 1070.36L2918.84 1097.45C2918.52 1098.57 2919.36 1099.68 2920.52 1099.68H2936.1C2937.26 1099.68 2938.1 1098.57 2937.78 1097.45L2929.99 1070.36C2929.51 1068.67 2927.11 1068.67 2926.63 1070.36Z" fill="black"/>
<path fill-rule="evenodd" clip-rule="evenodd" d="M2914.31 1113.76C2914.52 1113 2915.21 1112.48 2916 1112.48H2940.45C2941.23 1112.48 2941.92 1113 2942.13 1113.75L2946.48 1128.82C2946.7 1129.57 2947.38 1130.08 2948.16 1130.08H2962.74C2963.94 1130.08 2964.78 1128.91 2964.4 1127.78L2939.7 1053.12C2939.46 1052.4 2938.79 1051.92 2938.04 1051.92H2919.95C2919.2 1051.92 2918.53 1052.4 2918.29 1053.12L2893.59 1127.78C2893.21 1128.91 2894.06 1130.08 2895.25 1130.08H2908.4C2909.19 1130.08 2909.87 1129.56 2910.09 1128.81L2914.31 1113.76ZM2884.1 1132.3C2883.23 1134.94 2885.2 1137.67 2887.98 1137.67H2912.38C2914.21 1137.67 2915.82 1136.45 2916.31 1134.69L2920.06 1121.34C2920.27 1120.59 2920.96 1120.07 2921.74 1120.07H2934.75C2935.53 1120.07 2936.21 1120.58 2936.43 1121.33L2940.29 1134.71C2940.8 1136.46 2942.4 1137.67 2944.21 1137.67H2970.01C2972.79 1137.67 2974.76 1134.94 2973.89 1132.3L2945.71 1047.13C2945.15 1045.46 2943.59 1044.33 2941.83 1044.33H2916.16C2914.4 1044.33 2912.84 1045.46 2912.28 1047.13L2884.1 1132.3Z" fill="black"/>
</g>
</g>
</g>
<g id="Heavy-M">
<g id="Outline / Typography Outline_11">
<g id="Shape_11">
<path d="M2630.63 1070.36L2622.84 1097.45C2622.52 1098.57 2623.36 1099.68 2624.52 1099.68H2640.1C2641.26 1099.68 2642.1 1098.57 2641.78 1097.45L2633.99 1070.36C2633.51 1068.67 2631.11 1068.67 2630.63 1070.36Z" fill="black"/>
<path fill-rule="evenodd" clip-rule="evenodd" d="M2618.31 1113.76C2618.52 1113 2619.21 1112.48 2620 1112.48H2644.45C2645.23 1112.48 2645.92 1113 2646.13 1113.75L2650.48 1128.82C2650.7 1129.57 2651.38 1130.08 2652.16 1130.08H2666.74C2667.94 1130.08 2668.78 1128.91 2668.4 1127.78L2643.7 1053.12C2643.46 1052.4 2642.79 1051.92 2642.04 1051.92H2623.95C2623.2 1051.92 2622.53 1052.4 2622.29 1053.12L2597.59 1127.78C2597.21 1128.91 2598.06 1130.08 2599.25 1130.08H2612.4C2613.19 1130.08 2613.87 1129.56 2614.09 1128.81L2618.31 1113.76ZM2588.1 1132.3C2587.23 1134.94 2589.2 1137.67 2591.98 1137.67H2616.38C2618.21 1137.67 2619.82 1136.45 2620.31 1134.69L2624.06 1121.34C2624.27 1120.59 2624.96 1120.07 2625.74 1120.07H2638.75C2639.53 1120.07 2640.21 1120.58 2640.43 1121.33L2644.29 1134.71C2644.8 1136.46 2646.4 1137.67 2648.21 1137.67H2674.01C2676.79 1137.67 2678.76 1134.94 2677.89 1132.3L2649.71 1047.13C2649.15 1045.46 2647.59 1044.33 2645.83 1044.33H2620.16C2618.4 1044.33 2616.84 1045.46 2616.28 1047.13L2588.1 1132.3Z" fill="black"/>
</g>
</g>
</g>
<g id="Bold-M">
<g id="Outline / Typography Outline_12">
<g id="Shape_12">
<path d="M2334.63 1070.36L2326.84 1097.45C2326.52 1098.57 2327.36 1099.68 2328.52 1099.68H2344.1C2345.26 1099.68 2346.1 1098.57 2345.78 1097.45L2337.99 1070.36C2337.51 1068.67 2335.11 1068.67 2334.63 1070.36Z" fill="black"/>
<path fill-rule="evenodd" clip-rule="evenodd" d="M2322.31 1113.76C2322.52 1113 2323.21 1112.48 2324 1112.48H2348.45C2349.23 1112.48 2349.92 1113 2350.13 1113.75L2354.48 1128.82C2354.7 1129.57 2355.38 1130.08 2356.16 1130.08H2370.74C2371.94 1130.08 2372.78 1128.91 2372.4 1127.78L2347.7 1053.12C2347.46 1052.4 2346.79 1051.92 2346.04 1051.92H2327.95C2327.2 1051.92 2326.53 1052.4 2326.29 1053.12L2301.59 1127.78C2301.21 1128.91 2302.06 1130.08 2303.25 1130.08H2316.4C2317.19 1130.08 2317.87 1129.56 2318.09 1128.81L2322.31 1113.76ZM2292.1 1132.3C2291.23 1134.94 2293.2 1137.67 2295.98 1137.67H2320.38C2322.21 1137.67 2323.82 1136.45 2324.31 1134.69L2328.06 1121.34C2328.27 1120.59 2328.96 1120.07 2329.74 1120.07H2342.75C2343.53 1120.07 2344.21 1120.58 2344.43 1121.33L2348.29 1134.71C2348.8 1136.46 2350.4 1137.67 2352.21 1137.67H2378.01C2380.79 1137.67 2382.76 1134.94 2381.89 1132.3L2353.71 1047.13C2353.15 1045.46 2351.59 1044.33 2349.83 1044.33H2324.16C2322.4 1044.33 2320.84 1045.46 2320.28 1047.13L2292.1 1132.3Z" fill="black"/>
</g>
</g>
</g>
<g id="Semibold-M">
<g id="Outline / Typography Outline_13">
<g id="Shape_13">
<path d="M2038.63 1070.36L2030.84 1097.45C2030.52 1098.57 2031.36 1099.68 2032.52 1099.68H2048.1C2049.26 1099.68 2050.1 1098.57 2049.78 1097.45L2041.99 1070.36C2041.51 1068.67 2039.11 1068.67 2038.63 1070.36Z" fill="black"/>
<path fill-rule="evenodd" clip-rule="evenodd" d="M2026.31 1113.76C2026.52 1113 2027.21 1112.48 2028 1112.48H2052.45C2053.23 1112.48 2053.92 1113 2054.13 1113.75L2058.48 1128.82C2058.7 1129.57 2059.38 1130.08 2060.16 1130.08H2074.74C2075.94 1130.08 2076.78 1128.91 2076.4 1127.78L2051.7 1053.12C2051.46 1052.4 2050.79 1051.92 2050.04 1051.92H2031.95C2031.2 1051.92 2030.53 1052.4 2030.29 1053.12L2005.59 1127.78C2005.21 1128.91 2006.06 1130.08 2007.25 1130.08H2020.4C2021.19 1130.08 2021.87 1129.56 2022.09 1128.81L2026.31 1113.76ZM1996.1 1132.3C1995.23 1134.94 1997.2 1137.67 1999.98 1137.67H2024.38C2026.21 1137.67 2027.82 1136.45 2028.31 1134.69L2032.06 1121.34C2032.27 1120.59 2032.96 1120.07 2033.74 1120.07H2046.75C2047.53 1120.07 2048.21 1120.58 2048.43 1121.33L2052.29 1134.71C2052.8 1136.46 2054.4 1137.67 2056.21 1137.67H2082.01C2084.79 1137.67 2086.76 1134.94 2085.89 1132.3L2057.71 1047.13C2057.15 1045.46 2055.59 1044.33 2053.83 1044.33H2028.16C2026.4 1044.33 2024.84 1045.46 2024.28 1047.13L1996.1 1132.3Z" fill="black"/>
</g>
</g>
</g>
<g id="Medium-M">
<g id="Outline / Typography Outline_14">
<g id="Shape_14">
<path d="M1742.63 1070.36L1734.84 1097.45C1734.52 1098.57 1735.36 1099.68 1736.52 1099.68H1752.1C1753.26 1099.68 1754.1 1098.57 1753.78 1097.45L1745.99 1070.36C1745.51 1068.67 1743.11 1068.67 1742.63 1070.36Z" fill="black"/>
<path fill-rule="evenodd" clip-rule="evenodd" d="M1730.31 1113.76C1730.52 1113 1731.21 1112.48 1732 1112.48H1756.45C1757.23 1112.48 1757.92 1113 1758.13 1113.75L1762.48 1128.82C1762.7 1129.57 1763.38 1130.08 1764.16 1130.08H1778.74C1779.94 1130.08 1780.78 1128.91 1780.4 1127.78L1755.7 1053.12C1755.46 1052.4 1754.79 1051.92 1754.04 1051.92H1735.95C1735.2 1051.92 1734.53 1052.4 1734.29 1053.12L1709.59 1127.78C1709.21 1128.91 1710.06 1130.08 1711.25 1130.08H1724.4C1725.19 1130.08 1725.87 1129.56 1726.09 1128.81L1730.31 1113.76ZM1700.1 1132.3C1699.23 1134.94 1701.2 1137.67 1703.98 1137.67H1728.38C1730.21 1137.67 1731.82 1136.45 1732.31 1134.69L1736.06 1121.34C1736.27 1120.59 1736.96 1120.07 1737.74 1120.07H1750.75C1751.53 1120.07 1752.21 1120.58 1752.43 1121.33L1756.29 1134.71C1756.8 1136.46 1758.4 1137.67 1760.21 1137.67H1786.01C1788.79 1137.67 1790.76 1134.94 1789.89 1132.3L1761.71 1047.13C1761.15 1045.46 1759.59 1044.33 1757.83 1044.33H1732.16C1730.4 1044.33 1728.84 1045.46 1728.28 1047.13L1700.1 1132.3Z" fill="black"/>
</g>
</g>
</g>
<g id="Regular-M">
<g id="Outline / Typography Outline_15">
<g id="Shape_15">
<path d="M1446.63 1070.36L1438.84 1097.45C1438.52 1098.57 1439.36 1099.68 1440.52 1099.68H1456.1C1457.26 1099.68 1458.1 1098.57 1457.78 1097.45L1449.99 1070.36C1449.51 1068.67 1447.11 1068.67 1446.63 1070.36Z" fill="black"/>
<path fill-rule="evenodd" clip-rule="evenodd" d="M1434.31 1113.76C1434.52 1113 1435.21 1112.48 1436 1112.48H1460.45C1461.23 1112.48 1461.92 1113 1462.13 1113.75L1466.48 1128.82C1466.7 1129.57 1467.38 1130.08 1468.16 1130.08H1482.74C1483.94 1130.08 1484.78 1128.91 1484.4 1127.78L1459.7 1053.12C1459.46 1052.4 1458.79 1051.92 1458.04 1051.92H1439.95C1439.2 1051.92 1438.53 1052.4 1438.29 1053.12L1413.59 1127.78C1413.21 1128.91 1414.06 1130.08 1415.25 1130.08H1428.4C1429.19 1130.08 1429.87 1129.56 1430.09 1128.81L1434.31 1113.76ZM1404.1 1132.3C1403.23 1134.94 1405.2 1137.67 1407.98 1137.67H1432.38C1434.21 1137.67 1435.82 1136.45 1436.31 1134.69L1440.06 1121.34C1440.27 1120.59 1440.96 1120.07 1441.74 1120.07H1454.75C1455.53 1120.07 1456.21 1120.58 1456.43 1121.33L1460.29 1134.71C1460.8 1136.46 1462.4 1137.67 1464.21 1137.67H1490.01C1492.79 1137.67 1494.76 1134.94 1493.89 1132.3L1465.71 1047.13C1465.15 1045.46 1463.59 1044.33 1461.83 1044.33H1436.16C1434.4 1044.33 1432.84 1045.46 1432.28 1047.13L1404.1 1132.3Z" fill="black"/>
</g>
</g>
</g>
<g id="Light-M">
<g id="Outline / Typography Outline_16">
<g id="Shape_16">
<path d="M1150.63 1070.36L1142.84 1097.45C1142.52 1098.57 1143.36 1099.68 1144.52 1099.68H1160.1C1161.26 1099.68 1162.1 1098.57 1161.78 1097.45L1153.99 1070.36C1153.51 1068.67 1151.11 1068.67 1150.63 1070.36Z" fill="black"/>
<path fill-rule="evenodd" clip-rule="evenodd" d="M1138.31 1113.76C1138.52 1113 1139.21 1112.48 1140 1112.48H1164.45C1165.23 1112.48 1165.92 1113 1166.13 1113.75L1170.48 1128.82C1170.7 1129.57 1171.38 1130.08 1172.16 1130.08H1186.74C1187.94 1130.08 1188.78 1128.91 1188.4 1127.78L1163.7 1053.12C1163.46 1052.4 1162.79 1051.92 1162.04 1051.92H1143.95C1143.2 1051.92 1142.53 1052.4 1142.29 1053.12L1117.59 1127.78C1117.21 1128.91 1118.06 1130.08 1119.25 1130.08H1132.4C1133.19 1130.08 1133.87 1129.56 1134.09 1128.81L1138.31 1113.76ZM1108.1 1132.3C1107.23 1134.94 1109.2 1137.67 1111.98 1137.67H1136.38C1138.21 1137.67 1139.82 1136.45 1140.31 1134.69L1144.06 1121.34C1144.27 1120.59 1144.96 1120.07 1145.74 1120.07H1158.75C1159.53 1120.07 1160.21 1120.58 1160.43 1121.33L1164.29 1134.71C1164.8 1136.46 1166.4 1137.67 1168.21 1137.67H1194.01C1196.79 1137.67 1198.76 1134.94 1197.89 1132.3L1169.71 1047.13C1169.15 1045.46 1167.59 1044.33 1165.83 1044.33H1140.16C1138.4 1044.33 1136.84 1045.46 1136.28 1047.13L1108.1 1132.3Z" fill="black"/>
</g>
</g>
</g>
<g id="Thin-M">
<g id="Outline / Typography Outline_17">
<g id="Shape_17">
<path d="M854.627 1070.36L846.839 1097.45C846.518 1098.57 847.357 1099.68 848.521 1099.68H864.098C865.261 1099.68 866.101 1098.57 865.779 1097.45L857.991 1070.36C857.506 1068.67 855.113 1068.67 854.627 1070.36Z" fill="black"/>
<path fill-rule="evenodd" clip-rule="evenodd" d="M842.311 1113.76C842.523 1113 843.212 1112.48 843.996 1112.48H868.452C869.232 1112.48 869.917 1113 870.134 1113.75L874.482 1128.82C874.698 1129.57 875.384 1130.08 876.164 1130.08H890.743C891.936 1130.08 892.779 1128.91 892.404 1127.78L867.698 1053.12C867.461 1052.4 866.792 1051.92 866.037 1051.92H847.954C847.199 1051.92 846.53 1052.4 846.292 1053.12L821.587 1127.78C821.212 1128.91 822.055 1130.08 823.248 1130.08H836.402C837.186 1130.08 837.875 1129.56 838.087 1128.81L842.311 1113.76ZM812.104 1132.3C811.23 1134.94 813.198 1137.67 815.981 1137.67H840.381C842.211 1137.67 843.818 1136.45 844.312 1134.69L848.059 1121.34C848.271 1120.59 848.959 1120.07 849.743 1120.07H862.748C863.527 1120.07 864.213 1120.58 864.429 1121.33L868.291 1134.71C868.795 1136.46 870.395 1137.67 872.214 1137.67H898.01C900.793 1137.67 902.761 1134.94 901.887 1132.3L873.706 1047.13C873.153 1045.46 871.591 1044.33 869.83 1044.33H844.161C842.4 1044.33 840.838 1045.46 840.284 1047.13L812.104 1132.3Z" fill="black"/>
</g>
</g>
</g>
<g id="Ultralight-M">
<g id="Outline / Typography Outline_18">
<g id="Shape_18">
<path d="M558.627 1070.36L550.839 1097.45C550.518 1098.57 551.357 1099.68 552.521 1099.68H568.098C569.261 1099.68 570.101 1098.57 569.779 1097.45L561.991 1070.36C561.506 1068.67 559.113 1068.67 558.627 1070.36Z" fill="black"/>
<path fill-rule="evenodd" clip-rule="evenodd" d="M546.311 1113.76C546.523 1113 547.212 1112.48 547.996 1112.48H572.452C573.232 1112.48 573.917 1113 574.134 1113.75L578.482 1128.82C578.698 1129.57 579.384 1130.08 580.164 1130.08H594.743C595.936 1130.08 596.779 1128.91 596.404 1127.78L571.698 1053.12C571.461 1052.4 570.792 1051.92 570.037 1051.92H551.954C551.199 1051.92 550.53 1052.4 550.292 1053.12L525.587 1127.78C525.212 1128.91 526.055 1130.08 527.248 1130.08H540.402C541.186 1130.08 541.875 1129.56 542.087 1128.81L546.311 1113.76ZM516.104 1132.3C515.23 1134.94 517.198 1137.67 519.981 1137.67H544.381C546.211 1137.67 547.818 1136.45 548.312 1134.69L552.059 1121.34C552.271 1120.59 552.959 1120.07 553.743 1120.07H566.748C567.527 1120.07 568.213 1120.58 568.429 1121.33L572.291 1134.71C572.795 1136.46 574.395 1137.67 576.214 1137.67H602.01C604.793 1137.67 606.761 1134.94 605.887 1132.3L577.706 1047.13C577.153 1045.46 575.591 1044.33 573.83 1044.33H548.161C546.4 1044.33 544.838 1045.46 544.284 1047.13L516.104 1132.3Z" fill="black"/>
</g>
</g>
</g>
<g id="Black-S">
<g id="Outline / Typography Outline_19">
<g id="Shape_19">
<path d="M2927.3 646.257L2921.74 665.607C2921.51 666.406 2922.11 667.203 2922.94 667.203H2934.07C2934.9 667.203 2935.5 666.406 2935.27 665.607L2929.71 646.257C2929.36 645.051 2927.65 645.051 2927.3 646.257Z" fill="black"/>
<path fill-rule="evenodd" clip-rule="evenodd" d="M2918.51 677.259C2918.66 676.719 2919.15 676.347 2919.71 676.347H2937.18C2937.74 676.347 2938.23 676.715 2938.38 677.25L2941.49 688.015C2941.64 688.55 2942.13 688.918 2942.69 688.918H2953.1C2953.95 688.918 2954.56 688.084 2954.29 687.275L2936.64 633.942C2936.47 633.43 2935.99 633.085 2935.45 633.085H2922.54C2922 633.085 2921.52 633.43 2921.35 633.942L2903.7 687.275C2903.44 688.084 2904.04 688.918 2904.89 688.918H2914.29C2914.85 688.918 2915.34 688.545 2915.49 688.006L2918.51 677.259ZM2896.93 690.502C2896.31 692.389 2897.71 694.335 2899.7 694.335H2917.13C2918.44 694.335 2919.58 693.465 2919.94 692.206L2922.61 682.675C2922.76 682.136 2923.26 681.763 2923.82 681.763H2933.1C2933.66 681.763 2934.15 682.132 2934.31 682.667L2937.06 692.227C2937.42 693.475 2938.57 694.335 2939.87 694.335H2958.29C2960.28 694.335 2961.69 692.389 2961.06 690.502L2940.93 629.668C2940.54 628.474 2939.42 627.668 2938.16 627.668H2919.83C2918.57 627.668 2917.45 628.474 2917.06 629.668L2896.93 690.502Z" fill="black"/>
</g>
</g>
</g>
<g id="Heavy-S">
<g id="Outline / Typography Outline_20">
<g id="Shape_20">
<path d="M2631.3 646.257L2625.74 665.607C2625.51 666.406 2626.11 667.203 2626.94 667.203H2638.07C2638.9 667.203 2639.5 666.406 2639.27 665.607L2633.71 646.257C2633.36 645.051 2631.65 645.051 2631.3 646.257Z" fill="black"/>
<path fill-rule="evenodd" clip-rule="evenodd" d="M2622.51 677.259C2622.66 676.719 2623.15 676.347 2623.71 676.347H2641.18C2641.74 676.347 2642.23 676.715 2642.38 677.25L2645.49 688.015C2645.64 688.55 2646.13 688.918 2646.69 688.918H2657.1C2657.95 688.918 2658.56 688.084 2658.29 687.275L2640.64 633.942C2640.47 633.43 2639.99 633.085 2639.45 633.085H2626.54C2626 633.085 2625.52 633.43 2625.35 633.942L2607.7 687.275C2607.44 688.084 2608.04 688.918 2608.89 688.918H2618.29C2618.85 688.918 2619.34 688.545 2619.49 688.006L2622.51 677.259ZM2600.93 690.502C2600.31 692.389 2601.71 694.335 2603.7 694.335H2621.13C2622.44 694.335 2623.58 693.465 2623.94 692.206L2626.61 682.675C2626.76 682.136 2627.26 681.763 2627.82 681.763H2637.1C2637.66 681.763 2638.15 682.132 2638.31 682.667L2641.06 692.227C2641.42 693.475 2642.57 694.335 2643.87 694.335H2662.29C2664.28 694.335 2665.69 692.389 2665.06 690.502L2644.93 629.668C2644.54 628.474 2643.42 627.668 2642.16 627.668H2623.83C2622.57 627.668 2621.45 628.474 2621.06 629.668L2600.93 690.502Z" fill="black"/>
</g>
</g>
</g>
<g id="Bold-S">
<g id="Outline / Typography Outline_21">
<g id="Shape_21">
<path d="M2335.3 646.257L2329.74 665.607C2329.51 666.406 2330.11 667.203 2330.94 667.203H2342.07C2342.9 667.203 2343.5 666.406 2343.27 665.607L2337.71 646.257C2337.36 645.051 2335.65 645.051 2335.3 646.257Z" fill="black"/>
<path fill-rule="evenodd" clip-rule="evenodd" d="M2326.51 677.259C2326.66 676.719 2327.15 676.347 2327.71 676.347H2345.18C2345.74 676.347 2346.23 676.715 2346.38 677.25L2349.49 688.015C2349.64 688.55 2350.13 688.918 2350.69 688.918H2361.1C2361.95 688.918 2362.56 688.084 2362.29 687.275L2344.64 633.942C2344.47 633.43 2343.99 633.085 2343.45 633.085H2330.54C2330 633.085 2329.52 633.43 2329.35 633.942L2311.7 687.275C2311.44 688.084 2312.04 688.918 2312.89 688.918H2322.29C2322.85 688.918 2323.34 688.545 2323.49 688.006L2326.51 677.259ZM2304.93 690.502C2304.31 692.389 2305.71 694.335 2307.7 694.335H2325.13C2326.44 694.335 2327.58 693.465 2327.94 692.206L2330.61 682.675C2330.76 682.136 2331.26 681.763 2331.82 681.763H2341.1C2341.66 681.763 2342.15 682.132 2342.31 682.667L2345.06 692.227C2345.42 693.475 2346.57 694.335 2347.87 694.335H2366.29C2368.28 694.335 2369.69 692.389 2369.06 690.502L2348.93 629.668C2348.54 628.474 2347.42 627.668 2346.16 627.668H2327.83C2326.57 627.668 2325.45 628.474 2325.06 629.668L2304.93 690.502Z" fill="black"/>
</g>
</g>
</g>
<g id="Semibold-S">
<g id="Outline / Typography Outline_22">
<g id="Shape_22">
<path d="M2039.3 646.257L2033.74 665.607C2033.51 666.406 2034.11 667.203 2034.94 667.203H2046.07C2046.9 667.203 2047.5 666.406 2047.27 665.607L2041.71 646.257C2041.36 645.051 2039.65 645.051 2039.3 646.257Z" fill="black"/>
<path fill-rule="evenodd" clip-rule="evenodd" d="M2030.51 677.259C2030.66 676.719 2031.15 676.347 2031.71 676.347H2049.18C2049.74 676.347 2050.23 676.715 2050.38 677.25L2053.49 688.015C2053.64 688.55 2054.13 688.918 2054.69 688.918H2065.1C2065.95 688.918 2066.56 688.084 2066.29 687.275L2048.64 633.942C2048.47 633.43 2047.99 633.085 2047.45 633.085H2034.54C2034 633.085 2033.52 633.43 2033.35 633.942L2015.7 687.275C2015.44 688.084 2016.04 688.918 2016.89 688.918H2026.29C2026.85 688.918 2027.34 688.545 2027.49 688.006L2030.51 677.259ZM2008.93 690.502C2008.31 692.389 2009.71 694.335 2011.7 694.335H2029.13C2030.44 694.335 2031.58 693.465 2031.94 692.206L2034.61 682.675C2034.76 682.136 2035.26 681.763 2035.82 681.763H2045.1C2045.66 681.763 2046.15 682.132 2046.31 682.667L2049.06 692.227C2049.42 693.475 2050.57 694.335 2051.87 694.335H2070.29C2072.28 694.335 2073.69 692.389 2073.06 690.502L2052.93 629.668C2052.54 628.474 2051.42 627.668 2050.16 627.668H2031.83C2030.57 627.668 2029.45 628.474 2029.06 629.668L2008.93 690.502Z" fill="black"/>
</g>
</g>
</g>
<g id="Medium-S">
<g id="Outline / Typography Outline_23">
<g id="Shape_23">
<path d="M1743.3 646.257L1737.74 665.607C1737.51 666.406 1738.11 667.203 1738.94 667.203H1750.07C1750.9 667.203 1751.5 666.406 1751.27 665.607L1745.71 646.257C1745.36 645.051 1743.65 645.051 1743.3 646.257Z" fill="black"/>
<path fill-rule="evenodd" clip-rule="evenodd" d="M1734.51 677.259C1734.66 676.719 1735.15 676.347 1735.71 676.347H1753.18C1753.74 676.347 1754.23 676.715 1754.38 677.25L1757.49 688.015C1757.64 688.55 1758.13 688.918 1758.69 688.918H1769.1C1769.95 688.918 1770.56 688.084 1770.29 687.275L1752.64 633.942C1752.47 633.43 1751.99 633.085 1751.45 633.085H1738.54C1738 633.085 1737.52 633.43 1737.35 633.942L1719.7 687.275C1719.44 688.084 1720.04 688.918 1720.89 688.918H1730.29C1730.85 688.918 1731.34 688.545 1731.49 688.006L1734.51 677.259ZM1712.93 690.502C1712.31 692.389 1713.71 694.335 1715.7 694.335H1733.13C1734.44 694.335 1735.58 693.465 1735.94 692.206L1738.61 682.675C1738.76 682.136 1739.26 681.763 1739.82 681.763H1749.1C1749.66 681.763 1750.15 682.132 1750.31 682.667L1753.06 692.227C1753.42 693.475 1754.57 694.335 1755.87 694.335H1774.29C1776.28 694.335 1777.69 692.389 1777.06 690.502L1756.93 629.668C1756.54 628.474 1755.42 627.668 1754.16 627.668H1735.83C1734.57 627.668 1733.45 628.474 1733.06 629.668L1712.93 690.502Z" fill="black"/>
</g>
</g>
</g>
<g id="Regular-S">
<g id="Outline / Typography Outline_24">
<g id="Shape_24">
<path d="M1447.3 646.257L1441.74 665.607C1441.51 666.406 1442.11 667.203 1442.94 667.203H1454.07C1454.9 667.203 1455.5 666.406 1455.27 665.607L1449.71 646.257C1449.36 645.051 1447.65 645.051 1447.3 646.257Z" fill="black"/>
<path fill-rule="evenodd" clip-rule="evenodd" d="M1438.51 677.259C1438.66 676.719 1439.15 676.347 1439.71 676.347H1457.18C1457.74 676.347 1458.23 676.715 1458.38 677.25L1461.49 688.015C1461.64 688.55 1462.13 688.918 1462.69 688.918H1473.1C1473.95 688.918 1474.56 688.084 1474.29 687.275L1456.64 633.942C1456.47 633.43 1455.99 633.085 1455.45 633.085H1442.54C1442 633.085 1441.52 633.43 1441.35 633.942L1423.7 687.275C1423.44 688.084 1424.04 688.918 1424.89 688.918H1434.29C1434.85 688.918 1435.34 688.545 1435.49 688.006L1438.51 677.259ZM1416.93 690.502C1416.31 692.389 1417.71 694.335 1419.7 694.335H1437.13C1438.44 694.335 1439.58 693.465 1439.94 692.206L1442.61 682.675C1442.76 682.136 1443.26 681.763 1443.82 681.763H1453.1C1453.66 681.763 1454.15 682.132 1454.31 682.667L1457.06 692.227C1457.42 693.475 1458.57 694.335 1459.87 694.335H1478.29C1480.28 694.335 1481.69 692.389 1481.06 690.502L1460.93 629.668C1460.54 628.474 1459.42 627.668 1458.16 627.668H1439.83C1438.57 627.668 1437.45 628.474 1437.06 629.668L1416.93 690.502Z" fill="black"/>
</g>
</g>
</g>
<g id="Light-S">
<g id="Outline / Typography Outline_25">
<g id="Shape_25">
<path d="M1151.3 646.257L1145.74 665.607C1145.51 666.406 1146.11 667.203 1146.94 667.203H1158.07C1158.9 667.203 1159.5 666.406 1159.27 665.607L1153.71 646.257C1153.36 645.051 1151.65 645.051 1151.3 646.257Z" fill="black"/>
<path fill-rule="evenodd" clip-rule="evenodd" d="M1142.51 677.259C1142.66 676.719 1143.15 676.347 1143.71 676.347H1161.18C1161.74 676.347 1162.23 676.715 1162.38 677.25L1165.49 688.015C1165.64 688.55 1166.13 688.918 1166.69 688.918H1177.1C1177.95 688.918 1178.56 688.084 1178.29 687.275L1160.64 633.942C1160.47 633.43 1159.99 633.085 1159.45 633.085H1146.54C1146 633.085 1145.52 633.43 1145.35 633.942L1127.7 687.275C1127.44 688.084 1128.04 688.918 1128.89 688.918H1138.29C1138.85 688.918 1139.34 688.545 1139.49 688.006L1142.51 677.259ZM1120.93 690.502C1120.31 692.389 1121.71 694.335 1123.7 694.335H1141.13C1142.44 694.335 1143.58 693.465 1143.94 692.206L1146.61 682.675C1146.76 682.136 1147.26 681.763 1147.82 681.763H1157.1C1157.66 681.763 1158.15 682.132 1158.31 682.667L1161.06 692.227C1161.42 693.475 1162.57 694.335 1163.87 694.335H1182.29C1184.28 694.335 1185.69 692.389 1185.06 690.502L1164.93 629.668C1164.54 628.474 1163.42 627.668 1162.16 627.668H1143.83C1142.57 627.668 1141.45 628.474 1141.06 629.668L1120.93 690.502Z" fill="black"/>
</g>
</g>
</g>
<g id="Thin-S">
<g id="Outline / Typography Outline_26">
<g id="Shape_26">
<path d="M855.305 646.257L849.742 665.607C849.512 666.406 850.112 667.203 850.943 667.203H862.069C862.9 667.203 863.5 666.406 863.27 665.607L857.707 646.257C857.361 645.051 855.651 645.051 855.305 646.257Z" fill="black"/>
<path fill-rule="evenodd" clip-rule="evenodd" d="M846.507 677.259C846.659 676.719 847.151 676.347 847.711 676.347H865.18C865.736 676.347 866.226 676.715 866.381 677.25L869.487 688.015C869.641 688.55 870.131 688.918 870.688 688.918H881.102C881.954 688.918 882.556 688.084 882.288 687.275L864.641 633.942C864.472 633.43 863.994 633.085 863.454 633.085H850.538C849.999 633.085 849.521 633.43 849.351 633.942L831.704 687.275C831.437 688.084 832.039 688.918 832.891 688.918H842.287C842.847 688.918 843.339 688.545 843.49 688.006L846.507 677.259ZM824.931 690.502C824.307 692.389 825.712 694.335 827.7 694.335H845.129C846.436 694.335 847.584 693.465 847.937 692.206L850.613 682.675C850.764 682.136 851.256 681.763 851.816 681.763H861.105C861.662 681.763 862.152 682.132 862.306 682.667L865.064 692.227C865.425 693.475 866.567 694.335 867.867 694.335H886.292C888.28 694.335 889.686 692.389 889.061 690.502L868.933 629.668C868.538 628.474 867.421 627.668 866.164 627.668H847.829C846.571 627.668 845.455 628.474 845.06 629.668L824.931 690.502Z" fill="black"/>
</g>
</g>
</g>
<g id="Ultralight-S">
<g id="Outline / Typography Outline_27">
<g id="Shape_27">
<path d="M559.305 646.257L553.742 665.607C553.512 666.406 554.112 667.203 554.943 667.203H566.069C566.9 667.203 567.5 666.406 567.27 665.607L561.707 646.257C561.361 645.051 559.651 645.051 559.305 646.257Z" fill="black"/>
<path fill-rule="evenodd" clip-rule="evenodd" d="M550.507 677.259C550.659 676.719 551.151 676.347 551.711 676.347H569.18C569.736 676.347 570.226 676.715 570.381 677.25L573.487 688.015C573.641 688.55 574.131 688.918 574.688 688.918H585.102C585.954 688.918 586.556 688.084 586.288 687.275L568.641 633.942C568.472 633.43 567.994 633.085 567.454 633.085H554.538C553.999 633.085 553.521 633.43 553.351 633.942L535.704 687.275C535.437 688.084 536.039 688.918 536.891 688.918H546.287C546.847 688.918 547.339 688.545 547.49 688.006L550.507 677.259ZM528.931 690.502C528.307 692.389 529.712 694.335 531.7 694.335H549.129C550.436 694.335 551.584 693.465 551.937 692.206L554.613 682.675C554.764 682.136 555.256 681.763 555.816 681.763H565.105C565.662 681.763 566.152 682.132 566.306 682.667L569.064 692.227C569.425 693.475 570.567 694.335 571.867 694.335H590.292C592.28 694.335 593.686 692.389 593.061 690.502L572.933 629.668C572.538 628.474 571.421 627.668 570.164 627.668H551.829C550.571 627.668 549.455 628.474 549.06 629.668L528.931 690.502Z" fill="black"/>
</g>
</g>
</g>
</g>
</g>
<defs>
<clipPath id="clip0_0_1">
<rect width="3300" height="2200" fill="white"/>
</clipPath>
</defs>
</svg>
