<svg width="3300" height="2200" viewBox="0 0 3300 2200" fill="none" xmlns="http://www.w3.org/2000/svg">
<rect width="3300" height="2200" fill="#E5E5E5"/>
<g id="Category / Outline / Bonus" clip-path="url(#clip0_0_1)">
<g id="Notes">
<path id="artboard" d="M3300 0H0V2200H3300V0Z" fill="white"/>
<path id="Vector" d="M263 292H3036" stroke="black" stroke-width="0.5"/>
<text id="Weight/Scale Variations" fill="black" xml:space="preserve" style="white-space: pre" font-family="Roboto" font-size="12" letter-spacing="0em"><tspan x="263" y="321.102">Weight/Scale Variations</tspan></text>
<text id="Ultralight" fill="black" xml:space="preserve" style="white-space: pre" font-family="Roboto" font-size="12" letter-spacing="0em"><tspan x="535.211" y="321.102">Ultralight</tspan></text>
<text id="Thin" fill="black" xml:space="preserve" style="white-space: pre" font-family="Roboto" font-size="12" letter-spacing="0em"><tspan x="844.422" y="321.102">Thin</tspan></text>
<text id="Light" fill="black" xml:space="preserve" style="white-space: pre" font-family="Roboto" font-size="12" letter-spacing="0em"><tspan x="1139.63" y="321.102">Light</tspan></text>
<text id="Regular" fill="black" xml:space="preserve" style="white-space: pre" font-family="Roboto" font-size="12" letter-spacing="0em"><tspan x="1429.34" y="321.102">Regular</tspan></text>
<text id="Medium" fill="black" xml:space="preserve" style="white-space: pre" font-family="Roboto" font-size="12" letter-spacing="0em"><tspan x="1724.56" y="321.102">Medium</tspan></text>
<text id="Semibold" fill="black" xml:space="preserve" style="white-space: pre" font-family="Roboto" font-size="12" letter-spacing="0em"><tspan x="2017.77" y="321.102">Semibold</tspan></text>
<text id="Bold" fill="black" xml:space="preserve" style="white-space: pre" font-family="Roboto" font-size="12" letter-spacing="0em"><tspan x="2327.48" y="321.102">Bold</tspan></text>
<text id="Heavy" fill="black" xml:space="preserve" style="white-space: pre" font-family="Roboto" font-size="12" letter-spacing="0em"><tspan x="2620.19" y="321.102">Heavy</tspan></text>
<text id="Black" fill="black" xml:space="preserve" style="white-space: pre" font-family="Roboto" font-size="12" letter-spacing="0em"><tspan x="2918.4" y="321.102">Black</tspan></text>
<path id="Vector_2" d="M263 1903H3036" stroke="black" stroke-width="0.5"/>
<g id="Group">
<path id="Vector_3" d="M272.248 1933.83C276.555 1933.83 280.139 1930.26 280.139 1925.95C280.139 1921.64 276.545 1918.07 272.238 1918.07C267.941 1918.07 264.367 1921.64 264.367 1925.95C264.367 1930.26 267.951 1933.83 272.248 1933.83ZM272.248 1932.35C268.703 1932.35 265.871 1929.51 265.871 1925.95C265.871 1922.4 268.693 1919.55 272.238 1919.55C275.793 1919.55 278.635 1922.4 278.644 1925.95C278.654 1929.51 275.803 1932.35 272.248 1932.35ZM272.229 1929.57C272.697 1929.57 272.971 1929.26 272.971 1928.74V1926.68H275.197C275.695 1926.68 276.037 1926.43 276.037 1925.96C276.037 1925.48 275.715 1925.22 275.197 1925.22H272.971V1922.99C272.971 1922.47 272.697 1922.15 272.229 1922.15C271.76 1922.15 271.506 1922.49 271.506 1922.99V1925.22H269.299C268.781 1925.22 268.449 1925.48 268.449 1925.96C268.449 1926.43 268.801 1926.68 269.299 1926.68H271.506V1928.74C271.506 1929.24 271.76 1929.57 272.229 1929.57Z" fill="black"/>
</g>
<g id="Group_2">
<path id="Vector_4" d="M293.215 1935.91C298.664 1935.91 303.176 1931.4 303.176 1925.95C303.176 1920.51 298.654 1915.99 293.205 1915.99C287.766 1915.99 283.254 1920.51 283.254 1925.95C283.254 1931.4 287.775 1935.91 293.215 1935.91ZM293.215 1934.25C288.605 1934.25 284.924 1930.56 284.924 1925.95C284.924 1921.35 288.596 1917.65 293.205 1917.65C297.814 1917.65 301.506 1921.35 301.516 1925.95C301.525 1930.56 297.824 1934.25 293.215 1934.25ZM293.195 1930.59C293.713 1930.59 294.025 1930.23 294.025 1929.66V1926.77H297.082C297.629 1926.77 298.01 1926.49 298.01 1925.97C298.01 1925.44 297.648 1925.14 297.082 1925.14H294.025V1922.07C294.025 1921.5 293.713 1921.14 293.195 1921.14C292.678 1921.14 292.385 1921.52 292.385 1922.07V1925.14H289.338C288.771 1925.14 288.4 1925.44 288.4 1925.97C288.4 1926.49 288.791 1926.77 289.338 1926.77H292.385V1929.66C292.385 1930.21 292.678 1930.59 293.195 1930.59Z" fill="black"/>
</g>
<g id="Group_3">
<path id="Vector_5" d="M319.895 1938.67C326.857 1938.67 332.619 1932.92 332.619 1925.96C332.619 1918.99 326.848 1913.24 319.885 1913.24C312.932 1913.24 307.18 1918.99 307.18 1925.96C307.18 1932.92 312.941 1938.67 319.895 1938.67ZM319.895 1936.86C313.859 1936.86 309.006 1931.99 309.006 1925.96C309.006 1919.92 313.85 1915.06 319.885 1915.06C325.93 1915.06 330.783 1919.92 330.793 1925.96C330.803 1931.99 325.939 1936.86 319.895 1936.86ZM319.875 1931.93C320.441 1931.93 320.793 1931.54 320.793 1930.94V1926.87H325.031C325.617 1926.87 326.037 1926.53 326.037 1925.98C326.037 1925.4 325.647 1925.06 325.031 1925.06H320.793V1920.81C320.793 1920.2 320.441 1919.8 319.875 1919.8C319.309 1919.8 318.986 1920.21 318.986 1920.81V1925.06H314.758C314.143 1925.06 313.732 1925.4 313.732 1925.98C313.732 1926.53 314.162 1926.87 314.758 1926.87H318.986V1930.94C318.986 1931.52 319.309 1931.93 319.875 1931.93Z" fill="black"/>
</g>
<text id="Design Variations" fill="black" xml:space="preserve" style="white-space: pre" font-family="Roboto" font-size="12" letter-spacing="0em"><tspan x="263" y="1952.1">Design Variations</tspan></text>
<text id="Symbols are supported in up to nine weights and three scales." fill="black" xml:space="preserve" style="white-space: pre" font-family="Roboto" font-size="12" letter-spacing="0em"><tspan x="263" y="1970.1">Symbols are supported in up to nine weights and three scales.</tspan></text>
<text id="For optimal layout with text and other symbols, vertically align" fill="black" xml:space="preserve" style="white-space: pre" font-family="Roboto" font-size="12" letter-spacing="0em"><tspan x="263" y="1988.1">For optimal layout with text and other symbols, vertically align</tspan></text>
<text id="symbols with the adjacent text." fill="black" xml:space="preserve" style="white-space: pre" font-family="Roboto" font-size="12" letter-spacing="0em"><tspan x="263" y="2006.1">symbols with the adjacent text.</tspan></text>
<path id="Vector_6" opacity="0.4" d="M779 1919H776V1933H779V1919Z" fill="#00AEEF"/>
<g id="Group_4">
<path id="Vector_7" d="M789.527 1933H791.373L786.178 1918.91H784.439L779.244 1933H781.09L782.506 1928.96H788.111L789.527 1933ZM785.279 1921.04H785.338L787.594 1927.47H783.023L785.279 1921.04Z" fill="black"/>
</g>
<path id="Vector_8" opacity="0.4" d="M794.617 1919H791.617V1933H794.617V1919Z" fill="#00AEEF"/>
<text id="Margins" fill="black" xml:space="preserve" style="white-space: pre" font-family="Roboto" font-size="12" letter-spacing="0em"><tspan x="776" y="1952.1">Margins</tspan></text>
<text id="Leading and trailing margins on the left and right side of each symbol" fill="black" xml:space="preserve" style="white-space: pre" font-family="Roboto" font-size="12" letter-spacing="0em"><tspan x="776" y="1970.1">Leading and trailing margins on the left and right side of each symbol</tspan></text>
<text id="can be adjusted by modifying the width of the blue rectangles." fill="black" xml:space="preserve" style="white-space: pre" font-family="Roboto" font-size="12" letter-spacing="0em"><tspan x="776" y="1988.1">can be adjusted by modifying the width of the blue rectangles.</tspan></text>
<text id="Modifications are automatically applied proportionally to all" fill="black" xml:space="preserve" style="white-space: pre" font-family="Roboto" font-size="12" letter-spacing="0em"><tspan x="776" y="2006.1">Modifications are automatically applied proportionally to all</tspan></text>
<text id="scales and weights." fill="black" xml:space="preserve" style="white-space: pre" font-family="Roboto" font-size="12" letter-spacing="0em"><tspan x="776" y="2024.1">scales and weights.</tspan></text>
<g id="Group_5">
<path id="Vector_9" d="M1291.83 1936.11L1293.37 1937.66C1294.22 1938.49 1295.19 1938.42 1296.06 1937.46L1306.27 1926.34C1306.7 1926.63 1307.1 1926.62 1307.56 1926.52L1308.61 1926.31L1309.3 1927L1309.25 1927.52C1309.19 1928.05 1309.35 1928.47 1309.85 1928.97L1310.66 1929.78C1311.17 1930.28 1311.82 1930.31 1312.3 1929.83L1315.55 1926.58C1316.03 1926.1 1316.01 1925.45 1315.5 1924.94L1314.68 1924.12C1314.19 1923.62 1313.77 1923.45 1313.24 1923.53L1312.71 1923.58L1312.06 1922.92L1312.34 1921.78C1312.49 1921.21 1312.34 1920.74 1311.71 1920.14L1309.3 1917.75C1305.76 1914.22 1301.23 1914.33 1298.11 1917.46C1297.69 1917.89 1297.64 1918.48 1297.92 1918.91C1298.15 1919.28 1298.63 1919.5 1299.27 1919.34C1300.79 1918.96 1302.3 1919.07 1303.78 1920.08L1303.16 1921.66C1302.93 1922.25 1302.94 1922.73 1303.18 1923.16L1292.02 1933.44C1291.08 1934.31 1290.97 1935.25 1291.83 1936.11ZM1299.67 1917.85C1302.34 1915.86 1305.65 1916.17 1308.05 1918.58L1310.68 1921.19C1310.91 1921.43 1310.94 1921.61 1310.88 1921.91L1310.5 1923.47L1312.08 1925.04L1313.04 1924.95C1313.33 1924.92 1313.41 1924.94 1313.64 1925.17L1314.26 1925.79L1311.51 1928.54L1310.88 1927.92C1310.66 1927.7 1310.64 1927.6 1310.67 1927.32L1310.76 1926.36L1309.19 1924.8L1307.57 1925.11C1307.29 1925.17 1307.14 1925.17 1306.91 1924.92L1304.73 1922.75C1304.51 1922.51 1304.48 1922.37 1304.61 1922.05L1305.55 1919.78C1303.95 1918.24 1301.84 1917.39 1299.8 1918.05C1299.71 1918.08 1299.64 1918.06 1299.61 1918.02C1299.59 1917.97 1299.59 1917.92 1299.67 1917.85ZM1293.1 1935.41C1292.61 1934.91 1292.79 1934.61 1293.12 1934.31L1304.08 1924.19L1305.31 1925.42L1295.15 1936.35C1294.85 1936.68 1294.47 1936.78 1294.07 1936.38L1293.1 1935.41Z" fill="black"/>
</g>
<text id="Exporting" fill="black" xml:space="preserve" style="white-space: pre" font-family="Roboto" font-size="12" letter-spacing="0em"><tspan x="1289" y="1952.1">Exporting</tspan></text>
<text id="Symbols should be outlined when exporting to ensure the" fill="black" xml:space="preserve" style="white-space: pre" font-family="Roboto" font-size="12" letter-spacing="0em"><tspan x="1289" y="1970.1">Symbols should be outlined when exporting to ensure the</tspan></text>
<text id="design is preserved when submitting to Xcode." fill="black" xml:space="preserve" style="white-space: pre" font-family="Roboto" font-size="12" letter-spacing="0em"><tspan x="1289" y="1988.1">design is preserved when submitting to Xcode.</tspan></text>
<text id="template-version" fill="black" xml:space="preserve" style="white-space: pre" font-family="Roboto" font-size="12" letter-spacing="0em"><tspan x="2958" y="1932.1">Template v.1.0</tspan></text>
<text id="Generated from pencil.circle" fill="black" xml:space="preserve" style="white-space: pre" font-family="Roboto" font-size="12" letter-spacing="0em"><tspan x="2885" y="1950.1">Generated from pencil.circle</tspan></text>
<text id="Typeset at 100 points" fill="black" xml:space="preserve" style="white-space: pre" font-family="Roboto" font-size="12" letter-spacing="0em"><tspan x="2921" y="1968.1">Typeset at 100 points</tspan></text>
<text id="Small" fill="black" xml:space="preserve" style="white-space: pre" font-family="Roboto" font-size="12" letter-spacing="0em"><tspan x="263" y="725.102">Small</tspan></text>
<text id="Medium_2" fill="black" xml:space="preserve" style="white-space: pre" font-family="Roboto" font-size="12" letter-spacing="0em"><tspan x="263" y="1155.1">Medium</tspan></text>
<text id="Large" fill="black" xml:space="preserve" style="white-space: pre" font-family="Roboto" font-size="12" letter-spacing="0em"><tspan x="263" y="1585.1">Large</tspan></text>
</g>
<g id="Guides">
<g id="H-reference">
<path id="Vector_10" d="M393.932 695.998H396.666L369.566 625.539H367.076L339.977 695.998H342.662L351.94 671.535H384.703L393.932 695.998ZM368.199 628.908H368.443L383.824 669.289H352.818L368.199 628.908Z" fill="#27AAE1"/>
</g>
<path id="Baseline-S" d="M263 696H3036" stroke="#27AAE1" stroke-width="0.577"/>
<path id="Capline-S" d="M263 626H3036" stroke="#27AAE1" stroke-width="0.577"/>
<g id="H-reference_2">
<path id="Vector_11" d="M393.932 1126H396.666L369.566 1055.54H367.076L339.977 1126H342.662L351.94 1101.54H384.703L393.932 1126ZM368.199 1058.91H368.443L383.824 1099.29H352.818L368.199 1058.91Z" fill="#27AAE1"/>
</g>
<path id="Baseline-M" d="M263 1126H3036" stroke="#27AAE1" stroke-width="0.577"/>
<path id="Capline-M" d="M263 1056H3036" stroke="#27AAE1" stroke-width="0.577"/>
<g id="H-reference_3">
<path id="Vector_12" d="M393.932 1556H396.666L369.566 1485.54H367.076L339.977 1556H342.662L351.94 1531.54H384.703L393.932 1556ZM368.199 1488.91H368.443L383.824 1529.29H352.818L368.199 1488.91Z" fill="#27AAE1"/>
</g>
<g id="Group 1">
<path id="Baseline-L" d="M263 1556H3036" stroke="#27AAE1" stroke-width="0.577"/>
<path id="Capline-L" d="M263 1486H3036" stroke="#27AAE1" stroke-width="0.577"/>
</g>
<path id="left-margin" opacity="0.4" d="M1402.04 1030.79H1393.3V1150.12H1402.04V1030.79Z" fill="#00AEEF"/>
<path id="right-margin" opacity="0.4" d="M1505.39 1030.79H1496.65V1150.12H1505.39V1030.79Z" fill="#00AEEF"/>
</g>
<g id="Symbols">
<g id="Black-L">
<g id="Outline / Bonus Outline">
<path id="Shape" fill-rule="evenodd" clip-rule="evenodd" d="M2969.22 1465.51C2970.22 1470.2 2969.39 1474.79 2967.26 1478.6C2979.33 1479 2989 1488.91 2989 1501.08V1558.51C2989 1570.93 2978.93 1581.01 2966.5 1581.01H2891.5C2879.07 1581.01 2869 1570.93 2869 1558.51V1501.08C2869 1488.91 2878.67 1479 2890.74 1478.6C2888.61 1474.79 2887.78 1470.2 2888.78 1465.51L2888.91 1464.88C2890.24 1458.65 2894.8 1453.61 2900.86 1451.67C2911.77 1448.18 2923.05 1452.63 2929 1461.4C2934.95 1452.63 2946.23 1448.18 2957.14 1451.67C2963.2 1453.61 2967.76 1458.65 2969.09 1464.88L2969.22 1465.51ZM2924.08 1478.54H2907.22C2901.43 1478.54 2897.11 1473.2 2898.32 1467.54L2898.45 1466.91C2899.05 1464.1 2901.1 1461.83 2903.83 1460.96C2912.77 1458.1 2922.11 1464.01 2923.37 1473.3L2924.08 1478.53L2924.08 1478.54ZM2933.92 1478.54H2950.78C2956.57 1478.54 2960.89 1473.2 2959.68 1467.54L2959.55 1466.91C2958.95 1464.1 2956.9 1461.83 2954.17 1460.96C2945.23 1458.1 2935.89 1464.01 2934.63 1473.3L2933.92 1478.53L2933.92 1478.54ZM2955.25 1488.33H2966.5C2973.54 1488.33 2979.25 1494.04 2979.25 1501.08V1520.88H2955.25V1488.33ZM2955.25 1530.63V1553.24C2955.25 1557.52 2950.41 1560 2946.94 1557.51L2929 1544.62L2911.06 1557.51C2907.59 1560 2902.75 1557.52 2902.75 1553.24V1530.63H2878.75V1558.51C2878.75 1565.55 2884.46 1571.26 2891.5 1571.26H2966.5C2973.54 1571.26 2979.25 1565.55 2979.25 1558.51V1530.63H2955.25ZM2902.75 1520.88H2878.75V1501.08C2878.75 1494.04 2884.46 1488.33 2891.5 1488.33H2902.75V1520.88ZM2945.5 1544.47V1488.33H2912.5V1544.47L2923.31 1536.7C2926.71 1534.26 2931.29 1534.26 2934.69 1536.7L2945.5 1544.47Z" fill="black"/>
</g>
</g>
<g id="Heavy-L">
<g id="Outline / Bonus Outline_2">
<path id="Shape_2" fill-rule="evenodd" clip-rule="evenodd" d="M2673.22 1465.51C2674.22 1470.2 2673.39 1474.79 2671.26 1478.6C2683.33 1479 2693 1488.91 2693 1501.08V1558.51C2693 1570.93 2682.93 1581.01 2670.5 1581.01H2595.5C2583.07 1581.01 2573 1570.93 2573 1558.51V1501.08C2573 1488.91 2582.67 1479 2594.74 1478.6C2592.61 1474.79 2591.78 1470.2 2592.78 1465.51L2592.91 1464.88C2594.24 1458.65 2598.8 1453.61 2604.86 1451.67C2615.77 1448.18 2627.05 1452.63 2633 1461.4C2638.95 1452.63 2650.23 1448.18 2661.14 1451.67C2667.2 1453.61 2671.76 1458.65 2673.09 1464.88L2673.22 1465.51ZM2628.08 1478.54H2611.22C2605.43 1478.54 2601.11 1473.2 2602.32 1467.54L2602.45 1466.91C2603.05 1464.1 2605.1 1461.83 2607.83 1460.96C2616.77 1458.1 2626.11 1464.01 2627.37 1473.3L2628.08 1478.53L2628.08 1478.54ZM2637.92 1478.54H2654.78C2660.57 1478.54 2664.89 1473.2 2663.68 1467.54L2663.55 1466.91C2662.95 1464.1 2660.9 1461.83 2658.17 1460.96C2649.23 1458.1 2639.89 1464.01 2638.63 1473.3L2637.92 1478.53L2637.92 1478.54ZM2659.25 1488.33H2670.5C2677.54 1488.33 2683.25 1494.04 2683.25 1501.08V1520.88H2659.25V1488.33ZM2659.25 1530.63V1553.24C2659.25 1557.52 2654.41 1560 2650.94 1557.51L2633 1544.62L2615.06 1557.51C2611.59 1560 2606.75 1557.52 2606.75 1553.24V1530.63H2582.75V1558.51C2582.75 1565.55 2588.46 1571.26 2595.5 1571.26H2670.5C2677.54 1571.26 2683.25 1565.55 2683.25 1558.51V1530.63H2659.25ZM2606.75 1520.88H2582.75V1501.08C2582.75 1494.04 2588.46 1488.33 2595.5 1488.33H2606.75V1520.88ZM2649.5 1544.47V1488.33H2616.5V1544.47L2627.31 1536.7C2630.71 1534.26 2635.29 1534.26 2638.69 1536.7L2649.5 1544.47Z" fill="black"/>
</g>
</g>
<g id="Bold-L">
<g id="Outline / Bonus Outline_3">
<path id="Shape_3" fill-rule="evenodd" clip-rule="evenodd" d="M2377.22 1465.51C2378.22 1470.2 2377.39 1474.79 2375.26 1478.6C2387.33 1479 2397 1488.91 2397 1501.08V1558.51C2397 1570.93 2386.93 1581.01 2374.5 1581.01H2299.5C2287.07 1581.01 2277 1570.93 2277 1558.51V1501.08C2277 1488.91 2286.67 1479 2298.74 1478.6C2296.61 1474.79 2295.78 1470.2 2296.78 1465.51L2296.91 1464.88C2298.24 1458.65 2302.8 1453.61 2308.86 1451.67C2319.77 1448.18 2331.05 1452.63 2337 1461.4C2342.95 1452.63 2354.23 1448.18 2365.14 1451.67C2371.2 1453.61 2375.76 1458.65 2377.09 1464.88L2377.22 1465.51ZM2332.08 1478.54H2315.22C2309.43 1478.54 2305.11 1473.2 2306.32 1467.54L2306.45 1466.91C2307.05 1464.1 2309.1 1461.83 2311.83 1460.96C2320.77 1458.1 2330.11 1464.01 2331.37 1473.3L2332.08 1478.53L2332.08 1478.54ZM2341.92 1478.54H2358.78C2364.57 1478.54 2368.89 1473.2 2367.68 1467.54L2367.55 1466.91C2366.95 1464.1 2364.9 1461.83 2362.17 1460.96C2353.23 1458.1 2343.89 1464.01 2342.63 1473.3L2341.92 1478.53L2341.92 1478.54ZM2363.25 1488.33H2374.5C2381.54 1488.33 2387.25 1494.04 2387.25 1501.08V1520.88H2363.25V1488.33ZM2363.25 1530.63V1553.24C2363.25 1557.52 2358.41 1560 2354.94 1557.51L2337 1544.62L2319.06 1557.51C2315.59 1560 2310.75 1557.52 2310.75 1553.24V1530.63H2286.75V1558.51C2286.75 1565.55 2292.46 1571.26 2299.5 1571.26H2374.5C2381.54 1571.26 2387.25 1565.55 2387.25 1558.51V1530.63H2363.25ZM2310.75 1520.88H2286.75V1501.08C2286.75 1494.04 2292.46 1488.33 2299.5 1488.33H2310.75V1520.88ZM2353.5 1544.47V1488.33H2320.5V1544.47L2331.31 1536.7C2334.71 1534.26 2339.29 1534.26 2342.69 1536.7L2353.5 1544.47Z" fill="black"/>
</g>
</g>
<g id="Semibold-L">
<g id="Outline / Bonus Outline_4">
<path id="Shape_4" fill-rule="evenodd" clip-rule="evenodd" d="M2081.22 1465.51C2082.22 1470.2 2081.39 1474.79 2079.26 1478.6C2091.33 1479 2101 1488.91 2101 1501.08V1558.51C2101 1570.93 2090.93 1581.01 2078.5 1581.01H2003.5C1991.07 1581.01 1981 1570.93 1981 1558.51V1501.08C1981 1488.91 1990.67 1479 2002.74 1478.6C2000.61 1474.79 1999.78 1470.2 2000.78 1465.51L2000.91 1464.88C2002.24 1458.65 2006.8 1453.61 2012.86 1451.67C2023.77 1448.18 2035.05 1452.63 2041 1461.4C2046.95 1452.63 2058.23 1448.18 2069.14 1451.67C2075.2 1453.61 2079.76 1458.65 2081.09 1464.88L2081.22 1465.51ZM2036.08 1478.54H2019.22C2013.43 1478.54 2009.11 1473.2 2010.32 1467.54L2010.45 1466.91C2011.05 1464.1 2013.1 1461.83 2015.83 1460.96C2024.77 1458.1 2034.11 1464.01 2035.37 1473.3L2036.08 1478.53L2036.08 1478.54ZM2045.92 1478.54H2062.78C2068.57 1478.54 2072.89 1473.2 2071.68 1467.54L2071.55 1466.91C2070.95 1464.1 2068.9 1461.83 2066.17 1460.96C2057.23 1458.1 2047.89 1464.01 2046.63 1473.3L2045.92 1478.53L2045.92 1478.54ZM2067.25 1488.33H2078.5C2085.54 1488.33 2091.25 1494.04 2091.25 1501.08V1520.88H2067.25V1488.33ZM2067.25 1530.63V1553.24C2067.25 1557.52 2062.41 1560 2058.94 1557.51L2041 1544.62L2023.06 1557.51C2019.59 1560 2014.75 1557.52 2014.75 1553.24V1530.63H1990.75V1558.51C1990.75 1565.55 1996.46 1571.26 2003.5 1571.26H2078.5C2085.54 1571.26 2091.25 1565.55 2091.25 1558.51V1530.63H2067.25ZM2014.75 1520.88H1990.75V1501.08C1990.75 1494.04 1996.46 1488.33 2003.5 1488.33H2014.75V1520.88ZM2057.5 1544.47V1488.33H2024.5V1544.47L2035.31 1536.7C2038.71 1534.26 2043.29 1534.26 2046.69 1536.7L2057.5 1544.47Z" fill="black"/>
</g>
</g>
<g id="Medium-L">
<g id="Outline / Bonus Outline_5">
<path id="Shape_5" fill-rule="evenodd" clip-rule="evenodd" d="M1785.22 1465.51C1786.22 1470.2 1785.39 1474.79 1783.26 1478.6C1795.33 1479 1805 1488.91 1805 1501.08V1558.51C1805 1570.93 1794.93 1581.01 1782.5 1581.01H1707.5C1695.07 1581.01 1685 1570.93 1685 1558.51V1501.08C1685 1488.91 1694.67 1479 1706.74 1478.6C1704.61 1474.79 1703.78 1470.2 1704.78 1465.51L1704.91 1464.88C1706.24 1458.65 1710.8 1453.61 1716.86 1451.67C1727.77 1448.18 1739.05 1452.63 1745 1461.4C1750.95 1452.63 1762.23 1448.18 1773.14 1451.67C1779.2 1453.61 1783.76 1458.65 1785.09 1464.88L1785.22 1465.51ZM1740.08 1478.54H1723.22C1717.43 1478.54 1713.11 1473.2 1714.32 1467.54L1714.45 1466.91C1715.05 1464.1 1717.1 1461.83 1719.83 1460.96C1728.77 1458.1 1738.11 1464.01 1739.37 1473.3L1740.08 1478.53L1740.08 1478.54ZM1749.92 1478.54H1766.78C1772.57 1478.54 1776.89 1473.2 1775.68 1467.54L1775.55 1466.91C1774.95 1464.1 1772.9 1461.83 1770.17 1460.96C1761.23 1458.1 1751.89 1464.01 1750.63 1473.3L1749.92 1478.53L1749.92 1478.54ZM1771.25 1488.33H1782.5C1789.54 1488.33 1795.25 1494.04 1795.25 1501.08V1520.88H1771.25V1488.33ZM1771.25 1530.63V1553.24C1771.25 1557.52 1766.41 1560 1762.94 1557.51L1745 1544.62L1727.06 1557.51C1723.59 1560 1718.75 1557.52 1718.75 1553.24V1530.63H1694.75V1558.51C1694.75 1565.55 1700.46 1571.26 1707.5 1571.26H1782.5C1789.54 1571.26 1795.25 1565.55 1795.25 1558.51V1530.63H1771.25ZM1718.75 1520.88H1694.75V1501.08C1694.75 1494.04 1700.46 1488.33 1707.5 1488.33H1718.75V1520.88ZM1761.5 1544.47V1488.33H1728.5V1544.47L1739.31 1536.7C1742.71 1534.26 1747.29 1534.26 1750.69 1536.7L1761.5 1544.47Z" fill="black"/>
</g>
</g>
<g id="Regular-L">
<g id="Outline / Bonus Outline_6">
<path id="Shape_6" fill-rule="evenodd" clip-rule="evenodd" d="M1489.22 1465.51C1490.22 1470.2 1489.39 1474.79 1487.26 1478.6C1499.33 1479 1509 1488.91 1509 1501.08V1558.51C1509 1570.93 1498.93 1581.01 1486.5 1581.01H1411.5C1399.07 1581.01 1389 1570.93 1389 1558.51V1501.08C1389 1488.91 1398.67 1479 1410.74 1478.6C1408.61 1474.79 1407.78 1470.2 1408.78 1465.51L1408.91 1464.88C1410.24 1458.65 1414.8 1453.61 1420.86 1451.67C1431.77 1448.18 1443.05 1452.63 1449 1461.4C1454.95 1452.63 1466.23 1448.18 1477.14 1451.67C1483.2 1453.61 1487.76 1458.65 1489.09 1464.88L1489.22 1465.51ZM1444.08 1478.54H1427.22C1421.43 1478.54 1417.11 1473.2 1418.32 1467.54L1418.45 1466.91C1419.05 1464.1 1421.1 1461.83 1423.83 1460.96C1432.77 1458.1 1442.11 1464.01 1443.37 1473.3L1444.08 1478.53L1444.08 1478.54ZM1453.92 1478.54H1470.78C1476.57 1478.54 1480.89 1473.2 1479.68 1467.54L1479.55 1466.91C1478.95 1464.1 1476.9 1461.83 1474.17 1460.96C1465.23 1458.1 1455.89 1464.01 1454.63 1473.3L1453.92 1478.53L1453.92 1478.54ZM1475.25 1488.33H1486.5C1493.54 1488.33 1499.25 1494.04 1499.25 1501.08V1520.88H1475.25V1488.33ZM1475.25 1530.63V1553.24C1475.25 1557.52 1470.41 1560 1466.94 1557.51L1449 1544.62L1431.06 1557.51C1427.59 1560 1422.75 1557.52 1422.75 1553.24V1530.63H1398.75V1558.51C1398.75 1565.55 1404.46 1571.26 1411.5 1571.26H1486.5C1493.54 1571.26 1499.25 1565.55 1499.25 1558.51V1530.63H1475.25ZM1422.75 1520.88H1398.75V1501.08C1398.75 1494.04 1404.46 1488.33 1411.5 1488.33H1422.75V1520.88ZM1465.5 1544.47V1488.33H1432.5V1544.47L1443.31 1536.7C1446.71 1534.26 1451.29 1534.26 1454.69 1536.7L1465.5 1544.47Z" fill="black"/>
</g>
</g>
<g id="Light-L">
<g id="Outline / Bonus Outline_7">
<path id="Shape_7" fill-rule="evenodd" clip-rule="evenodd" d="M1193.22 1465.51C1194.22 1470.2 1193.39 1474.79 1191.26 1478.6C1203.33 1479 1213 1488.91 1213 1501.08V1558.51C1213 1570.93 1202.93 1581.01 1190.5 1581.01H1115.5C1103.07 1581.01 1093 1570.93 1093 1558.51V1501.08C1093 1488.91 1102.67 1479 1114.74 1478.6C1112.61 1474.79 1111.78 1470.2 1112.78 1465.51L1112.91 1464.88C1114.24 1458.65 1118.8 1453.61 1124.86 1451.67C1135.77 1448.18 1147.05 1452.63 1153 1461.4C1158.95 1452.63 1170.23 1448.18 1181.14 1451.67C1187.2 1453.61 1191.76 1458.65 1193.09 1464.88L1193.22 1465.51ZM1148.08 1478.54H1131.22C1125.43 1478.54 1121.11 1473.2 1122.32 1467.54L1122.45 1466.91C1123.05 1464.1 1125.1 1461.83 1127.83 1460.96C1136.77 1458.1 1146.11 1464.01 1147.37 1473.3L1148.08 1478.53L1148.08 1478.54ZM1157.92 1478.54H1174.78C1180.57 1478.54 1184.89 1473.2 1183.68 1467.54L1183.55 1466.91C1182.95 1464.1 1180.9 1461.83 1178.17 1460.96C1169.23 1458.1 1159.89 1464.01 1158.63 1473.3L1157.92 1478.53L1157.92 1478.54ZM1179.25 1488.33H1190.5C1197.54 1488.33 1203.25 1494.04 1203.25 1501.08V1520.88H1179.25V1488.33ZM1179.25 1530.63V1553.24C1179.25 1557.52 1174.41 1560 1170.94 1557.51L1153 1544.62L1135.06 1557.51C1131.59 1560 1126.75 1557.52 1126.75 1553.24V1530.63H1102.75V1558.51C1102.75 1565.55 1108.46 1571.26 1115.5 1571.26H1190.5C1197.54 1571.26 1203.25 1565.55 1203.25 1558.51V1530.63H1179.25ZM1126.75 1520.88H1102.75V1501.08C1102.75 1494.04 1108.46 1488.33 1115.5 1488.33H1126.75V1520.88ZM1169.5 1544.47V1488.33H1136.5V1544.47L1147.31 1536.7C1150.71 1534.26 1155.29 1534.26 1158.69 1536.7L1169.5 1544.47Z" fill="black"/>
</g>
</g>
<g id="Thin-L">
<g id="Outline / Bonus Outline_8">
<path id="Shape_8" fill-rule="evenodd" clip-rule="evenodd" d="M897.221 1465.51C898.22 1470.2 897.387 1474.79 895.261 1478.6C907.335 1479 917 1488.91 917 1501.08V1558.51C917 1570.93 906.926 1581.01 894.5 1581.01H819.5C807.074 1581.01 797 1570.93 797 1558.51V1501.08C797 1488.91 806.665 1479 818.739 1478.6C816.613 1474.79 815.78 1470.2 816.779 1465.51L816.913 1464.88C818.238 1458.65 822.798 1453.61 828.862 1451.67C839.77 1448.18 851.052 1452.63 857 1461.4C862.948 1452.63 874.23 1448.18 885.138 1451.67C891.202 1453.61 895.762 1458.65 897.087 1464.88L897.221 1465.51ZM852.079 1478.54H835.219C829.429 1478.54 825.111 1473.2 826.315 1467.54L826.45 1466.91C827.046 1464.1 829.1 1461.83 831.831 1460.96C840.766 1458.1 850.114 1464.01 851.373 1473.3L852.08 1478.53L852.079 1478.54ZM861.921 1478.54H878.781C884.571 1478.54 888.889 1473.2 887.685 1467.54L887.55 1466.91C886.954 1464.1 884.9 1461.83 882.169 1460.96C873.234 1458.1 863.886 1464.01 862.627 1473.3L861.92 1478.53L861.921 1478.54ZM883.25 1488.33H894.5C901.542 1488.33 907.25 1494.04 907.25 1501.08V1520.88H883.25V1488.33ZM883.25 1530.63V1553.24C883.25 1557.52 878.41 1560 874.937 1557.51L857 1544.62L839.063 1557.51C835.59 1560 830.75 1557.52 830.75 1553.24V1530.63H806.75V1558.51C806.75 1565.55 812.458 1571.26 819.5 1571.26H894.5C901.542 1571.26 907.25 1565.55 907.25 1558.51V1530.63H883.25ZM830.75 1520.88H806.75V1501.08C806.75 1494.04 812.458 1488.33 819.5 1488.33H830.75V1520.88ZM873.5 1544.47V1488.33H840.5V1544.47L851.311 1536.7C854.711 1534.26 859.289 1534.26 862.689 1536.7L873.5 1544.47Z" fill="black"/>
</g>
</g>
<g id="Ultralight-L">
<g id="Outline / Bonus Outline_9">
<path id="Shape_9" fill-rule="evenodd" clip-rule="evenodd" d="M601.221 1465.51C602.22 1470.2 601.387 1474.79 599.261 1478.6C611.335 1479 621 1488.91 621 1501.08V1558.51C621 1570.93 610.926 1581.01 598.5 1581.01H523.5C511.074 1581.01 501 1570.93 501 1558.51V1501.08C501 1488.91 510.665 1479 522.739 1478.6C520.613 1474.79 519.78 1470.2 520.779 1465.51L520.913 1464.88C522.238 1458.65 526.798 1453.61 532.862 1451.67C543.77 1448.18 555.052 1452.63 561 1461.4C566.948 1452.63 578.23 1448.18 589.138 1451.67C595.202 1453.61 599.762 1458.65 601.087 1464.88L601.221 1465.51ZM556.079 1478.54H539.219C533.429 1478.54 529.111 1473.2 530.315 1467.54L530.45 1466.91C531.046 1464.1 533.1 1461.83 535.831 1460.96C544.766 1458.1 554.114 1464.01 555.373 1473.3L556.08 1478.53L556.079 1478.54ZM565.921 1478.54H582.781C588.571 1478.54 592.889 1473.2 591.685 1467.54L591.55 1466.91C590.954 1464.1 588.9 1461.83 586.169 1460.96C577.234 1458.1 567.886 1464.01 566.627 1473.3L565.92 1478.53L565.921 1478.54ZM587.25 1488.33H598.5C605.542 1488.33 611.25 1494.04 611.25 1501.08V1520.88H587.25V1488.33ZM587.25 1530.63V1553.24C587.25 1557.52 582.41 1560 578.937 1557.51L561 1544.62L543.063 1557.51C539.59 1560 534.75 1557.52 534.75 1553.24V1530.63H510.75V1558.51C510.75 1565.55 516.458 1571.26 523.5 1571.26H598.5C605.542 1571.26 611.25 1565.55 611.25 1558.51V1530.63H587.25ZM534.75 1520.88H510.75V1501.08C510.75 1494.04 516.458 1488.33 523.5 1488.33H534.75V1520.88ZM577.5 1544.47V1488.33H544.5V1544.47L555.311 1536.7C558.711 1534.26 563.289 1534.26 566.689 1536.7L577.5 1544.47Z" fill="black"/>
</g>
</g>
<g id="Black-M">
<g id="Outline / Bonus Outline_10">
<path id="Shape_10" fill-rule="evenodd" clip-rule="evenodd" d="M2960.28 1047.84C2961.06 1051.49 2960.41 1055.06 2958.76 1058.02C2968.15 1058.33 2975.67 1066.04 2975.67 1075.51V1120.17C2975.67 1129.84 2967.83 1137.67 2958.17 1137.67H2899.83C2890.17 1137.67 2882.33 1129.84 2882.33 1120.17V1075.51C2882.33 1066.04 2889.85 1058.33 2899.24 1058.02C2897.59 1055.06 2896.94 1051.49 2897.72 1047.84L2897.82 1047.35C2898.85 1042.51 2902.4 1038.59 2907.12 1037.08C2915.6 1034.37 2924.37 1037.82 2929 1044.64C2933.63 1037.82 2942.4 1034.37 2950.89 1037.08C2955.6 1038.59 2959.15 1042.51 2960.18 1047.35L2960.28 1047.84ZM2925.17 1057.97H2912.06C2907.56 1057.97 2904.2 1053.82 2905.13 1049.42L2905.24 1048.93C2905.7 1046.75 2907.3 1044.98 2909.42 1044.3C2916.37 1042.08 2923.64 1046.67 2924.62 1053.9L2925.17 1057.97L2925.17 1057.97ZM2932.83 1057.97H2945.94C2950.44 1057.97 2953.8 1053.82 2952.87 1049.42L2952.76 1048.93C2952.3 1046.75 2950.7 1044.98 2948.58 1044.3C2941.63 1042.08 2934.36 1046.67 2933.38 1053.9L2932.83 1057.97L2932.83 1057.97ZM2949.42 1065.59H2958.17C2963.64 1065.59 2968.08 1070.03 2968.08 1075.51V1090.9H2949.42V1065.59ZM2949.42 1098.49V1116.08C2949.42 1119.41 2945.65 1121.34 2942.95 1119.4L2929 1109.37L2915.05 1119.4C2912.35 1121.34 2908.58 1119.41 2908.58 1116.08V1098.49H2889.92V1120.17C2889.92 1125.65 2894.36 1130.09 2899.83 1130.09H2958.17C2963.64 1130.09 2968.08 1125.65 2968.08 1120.17V1098.49H2949.42ZM2908.58 1090.9H2889.92V1075.51C2889.92 1070.03 2894.36 1065.59 2899.83 1065.59H2908.58V1090.9ZM2941.83 1109.26V1065.59H2916.17V1109.26L2924.58 1103.21C2927.22 1101.31 2930.78 1101.31 2933.43 1103.21L2941.83 1109.26Z" fill="black"/>
</g>
</g>
<g id="Heavy-M">
<g id="Outline / Bonus Outline_11">
<path id="Shape_11" fill-rule="evenodd" clip-rule="evenodd" d="M2664.28 1047.84C2665.06 1051.49 2664.41 1055.06 2662.76 1058.02C2672.15 1058.33 2679.67 1066.04 2679.67 1075.51V1120.17C2679.67 1129.84 2671.83 1137.67 2662.17 1137.67H2603.83C2594.17 1137.67 2586.33 1129.84 2586.33 1120.17V1075.51C2586.33 1066.04 2593.85 1058.33 2603.24 1058.02C2601.59 1055.06 2600.94 1051.49 2601.72 1047.84L2601.82 1047.35C2602.85 1042.51 2606.4 1038.59 2611.12 1037.08C2619.6 1034.37 2628.37 1037.82 2633 1044.64C2637.63 1037.82 2646.4 1034.37 2654.89 1037.08C2659.6 1038.59 2663.15 1042.51 2664.18 1047.35L2664.28 1047.84ZM2629.17 1057.97H2616.06C2611.56 1057.97 2608.2 1053.82 2609.13 1049.42L2609.24 1048.93C2609.7 1046.75 2611.3 1044.98 2613.42 1044.3C2620.37 1042.08 2627.64 1046.67 2628.62 1053.9L2629.17 1057.97L2629.17 1057.97ZM2636.83 1057.97H2649.94C2654.44 1057.97 2657.8 1053.82 2656.87 1049.42L2656.76 1048.93C2656.3 1046.75 2654.7 1044.98 2652.58 1044.3C2645.63 1042.08 2638.36 1046.67 2637.38 1053.9L2636.83 1057.97L2636.83 1057.97ZM2653.42 1065.59H2662.17C2667.64 1065.59 2672.08 1070.03 2672.08 1075.51V1090.9H2653.42V1065.59ZM2653.42 1098.49V1116.08C2653.42 1119.41 2649.65 1121.34 2646.95 1119.4L2633 1109.37L2619.05 1119.4C2616.35 1121.34 2612.58 1119.41 2612.58 1116.08V1098.49H2593.92V1120.17C2593.92 1125.65 2598.36 1130.09 2603.83 1130.09H2662.17C2667.64 1130.09 2672.08 1125.65 2672.08 1120.17V1098.49H2653.42ZM2612.58 1090.9H2593.92V1075.51C2593.92 1070.03 2598.36 1065.59 2603.83 1065.59H2612.58V1090.9ZM2645.83 1109.26V1065.59H2620.17V1109.26L2628.58 1103.21C2631.22 1101.31 2634.78 1101.31 2637.43 1103.21L2645.83 1109.26Z" fill="black"/>
</g>
</g>
<g id="Bold-M">
<g id="Outline / Bonus Outline_12">
<path id="Shape_12" fill-rule="evenodd" clip-rule="evenodd" d="M2368.28 1047.84C2369.06 1051.49 2368.41 1055.06 2366.76 1058.02C2376.15 1058.33 2383.67 1066.04 2383.67 1075.51V1120.17C2383.67 1129.84 2375.83 1137.67 2366.17 1137.67H2307.83C2298.17 1137.67 2290.33 1129.84 2290.33 1120.17V1075.51C2290.33 1066.04 2297.85 1058.33 2307.24 1058.02C2305.59 1055.06 2304.94 1051.49 2305.72 1047.84L2305.82 1047.35C2306.85 1042.51 2310.4 1038.59 2315.12 1037.08C2323.6 1034.37 2332.37 1037.82 2337 1044.64C2341.63 1037.82 2350.4 1034.37 2358.89 1037.08C2363.6 1038.59 2367.15 1042.51 2368.18 1047.35L2368.28 1047.84ZM2333.17 1057.97H2320.06C2315.56 1057.97 2312.2 1053.82 2313.13 1049.42L2313.24 1048.93C2313.7 1046.75 2315.3 1044.98 2317.42 1044.3C2324.37 1042.08 2331.64 1046.67 2332.62 1053.9L2333.17 1057.97L2333.17 1057.97ZM2340.83 1057.97H2353.94C2358.44 1057.97 2361.8 1053.82 2360.87 1049.42L2360.76 1048.93C2360.3 1046.75 2358.7 1044.98 2356.58 1044.3C2349.63 1042.08 2342.36 1046.67 2341.38 1053.9L2340.83 1057.97L2340.83 1057.97ZM2357.42 1065.59H2366.17C2371.64 1065.59 2376.08 1070.03 2376.08 1075.51V1090.9H2357.42V1065.59ZM2357.42 1098.49V1116.08C2357.42 1119.41 2353.65 1121.34 2350.95 1119.4L2337 1109.37L2323.05 1119.4C2320.35 1121.34 2316.58 1119.41 2316.58 1116.08V1098.49H2297.92V1120.17C2297.92 1125.65 2302.36 1130.09 2307.83 1130.09H2366.17C2371.64 1130.09 2376.08 1125.65 2376.08 1120.17V1098.49H2357.42ZM2316.58 1090.9H2297.92V1075.51C2297.92 1070.03 2302.36 1065.59 2307.83 1065.59H2316.58V1090.9ZM2349.83 1109.26V1065.59H2324.17V1109.26L2332.58 1103.21C2335.22 1101.31 2338.78 1101.31 2341.43 1103.21L2349.83 1109.26Z" fill="black"/>
</g>
</g>
<g id="Semibold-M">
<g id="Outline / Bonus Outline_13">
<path id="Shape_13" fill-rule="evenodd" clip-rule="evenodd" d="M2072.28 1047.84C2073.06 1051.49 2072.41 1055.06 2070.76 1058.02C2080.15 1058.33 2087.67 1066.04 2087.67 1075.51V1120.17C2087.67 1129.84 2079.83 1137.67 2070.17 1137.67H2011.83C2002.17 1137.67 1994.33 1129.84 1994.33 1120.17V1075.51C1994.33 1066.04 2001.85 1058.33 2011.24 1058.02C2009.59 1055.06 2008.94 1051.49 2009.72 1047.84L2009.82 1047.35C2010.85 1042.51 2014.4 1038.59 2019.12 1037.08C2027.6 1034.37 2036.37 1037.82 2041 1044.64C2045.63 1037.82 2054.4 1034.37 2062.89 1037.08C2067.6 1038.59 2071.15 1042.51 2072.18 1047.35L2072.28 1047.84ZM2037.17 1057.97H2024.06C2019.56 1057.97 2016.2 1053.82 2017.13 1049.42L2017.24 1048.93C2017.7 1046.75 2019.3 1044.98 2021.42 1044.3C2028.37 1042.08 2035.64 1046.67 2036.62 1053.9L2037.17 1057.97L2037.17 1057.97ZM2044.83 1057.97H2057.94C2062.44 1057.97 2065.8 1053.82 2064.87 1049.42L2064.76 1048.93C2064.3 1046.75 2062.7 1044.98 2060.58 1044.3C2053.63 1042.08 2046.36 1046.67 2045.38 1053.9L2044.83 1057.97L2044.83 1057.97ZM2061.42 1065.59H2070.17C2075.64 1065.59 2080.08 1070.03 2080.08 1075.51V1090.9H2061.42V1065.59ZM2061.42 1098.49V1116.08C2061.42 1119.41 2057.65 1121.34 2054.95 1119.4L2041 1109.37L2027.05 1119.4C2024.35 1121.34 2020.58 1119.41 2020.58 1116.08V1098.49H2001.92V1120.17C2001.92 1125.65 2006.36 1130.09 2011.83 1130.09H2070.17C2075.64 1130.09 2080.08 1125.65 2080.08 1120.17V1098.49H2061.42ZM2020.58 1090.9H2001.92V1075.51C2001.92 1070.03 2006.36 1065.59 2011.83 1065.59H2020.58V1090.9ZM2053.83 1109.26V1065.59H2028.17V1109.26L2036.58 1103.21C2039.22 1101.31 2042.78 1101.31 2045.43 1103.21L2053.83 1109.26Z" fill="black"/>
</g>
</g>
<g id="Medium-M">
<g id="Outline / Bonus Outline_14">
<path id="Shape_14" fill-rule="evenodd" clip-rule="evenodd" d="M1776.28 1047.84C1777.06 1051.49 1776.41 1055.06 1774.76 1058.02C1784.15 1058.33 1791.67 1066.04 1791.67 1075.51V1120.17C1791.67 1129.84 1783.83 1137.67 1774.17 1137.67H1715.83C1706.17 1137.67 1698.33 1129.84 1698.33 1120.17V1075.51C1698.33 1066.04 1705.85 1058.33 1715.24 1058.02C1713.59 1055.06 1712.94 1051.49 1713.72 1047.84L1713.82 1047.35C1714.85 1042.51 1718.4 1038.59 1723.12 1037.08C1731.6 1034.37 1740.37 1037.82 1745 1044.64C1749.63 1037.82 1758.4 1034.37 1766.89 1037.08C1771.6 1038.59 1775.15 1042.51 1776.18 1047.35L1776.28 1047.84ZM1741.17 1057.97H1728.06C1723.56 1057.97 1720.2 1053.82 1721.13 1049.42L1721.24 1048.93C1721.7 1046.75 1723.3 1044.98 1725.42 1044.3C1732.37 1042.08 1739.64 1046.67 1740.62 1053.9L1741.17 1057.97L1741.17 1057.97ZM1748.83 1057.97H1761.94C1766.44 1057.97 1769.8 1053.82 1768.87 1049.42L1768.76 1048.93C1768.3 1046.75 1766.7 1044.98 1764.58 1044.3C1757.63 1042.08 1750.36 1046.67 1749.38 1053.9L1748.83 1057.97L1748.83 1057.97ZM1765.42 1065.59H1774.17C1779.64 1065.59 1784.08 1070.03 1784.08 1075.51V1090.9H1765.42V1065.59ZM1765.42 1098.49V1116.08C1765.42 1119.41 1761.65 1121.34 1758.95 1119.4L1745 1109.37L1731.05 1119.4C1728.35 1121.34 1724.58 1119.41 1724.58 1116.08V1098.49H1705.92V1120.17C1705.92 1125.65 1710.36 1130.09 1715.83 1130.09H1774.17C1779.64 1130.09 1784.08 1125.65 1784.08 1120.17V1098.49H1765.42ZM1724.58 1090.9H1705.92V1075.51C1705.92 1070.03 1710.36 1065.59 1715.83 1065.59H1724.58V1090.9ZM1757.83 1109.26V1065.59H1732.17V1109.26L1740.58 1103.21C1743.22 1101.31 1746.78 1101.31 1749.43 1103.21L1757.83 1109.26Z" fill="black"/>
</g>
</g>
<g id="Regular-M">
<g id="Outline / Bonus Outline_15">
<path id="Shape_15" fill-rule="evenodd" clip-rule="evenodd" d="M1480.28 1047.84C1481.06 1051.49 1480.41 1055.06 1478.76 1058.02C1488.15 1058.33 1495.67 1066.04 1495.67 1075.51V1120.17C1495.67 1129.84 1487.83 1137.67 1478.17 1137.67H1419.83C1410.17 1137.67 1402.33 1129.84 1402.33 1120.17V1075.51C1402.33 1066.04 1409.85 1058.33 1419.24 1058.02C1417.59 1055.06 1416.94 1051.49 1417.72 1047.84L1417.82 1047.35C1418.85 1042.51 1422.4 1038.59 1427.12 1037.08C1435.6 1034.37 1444.37 1037.82 1449 1044.64C1453.63 1037.82 1462.4 1034.37 1470.89 1037.08C1475.6 1038.59 1479.15 1042.51 1480.18 1047.35L1480.28 1047.84ZM1445.17 1057.97H1432.06C1427.56 1057.97 1424.2 1053.82 1425.13 1049.42L1425.24 1048.93C1425.7 1046.75 1427.3 1044.98 1429.42 1044.3C1436.37 1042.08 1443.64 1046.67 1444.62 1053.9L1445.17 1057.97L1445.17 1057.97ZM1452.83 1057.97H1465.94C1470.44 1057.97 1473.8 1053.82 1472.87 1049.42L1472.76 1048.93C1472.3 1046.75 1470.7 1044.98 1468.58 1044.3C1461.63 1042.08 1454.36 1046.67 1453.38 1053.9L1452.83 1057.97L1452.83 1057.97ZM1469.42 1065.59H1478.17C1483.64 1065.59 1488.08 1070.03 1488.08 1075.51V1090.9H1469.42V1065.59ZM1469.42 1098.49V1116.08C1469.42 1119.41 1465.65 1121.34 1462.95 1119.4L1449 1109.37L1435.05 1119.4C1432.35 1121.34 1428.58 1119.41 1428.58 1116.08V1098.49H1409.92V1120.17C1409.92 1125.65 1414.36 1130.09 1419.83 1130.09H1478.17C1483.64 1130.09 1488.08 1125.65 1488.08 1120.17V1098.49H1469.42ZM1428.58 1090.9H1409.92V1075.51C1409.92 1070.03 1414.36 1065.59 1419.83 1065.59H1428.58V1090.9ZM1461.83 1109.26V1065.59H1436.17V1109.26L1444.58 1103.21C1447.22 1101.31 1450.78 1101.31 1453.43 1103.21L1461.83 1109.26Z" fill="black"/>
</g>
</g>
<g id="Light-M">
<g id="Outline / Bonus Outline_16">
<path id="Shape_16" fill-rule="evenodd" clip-rule="evenodd" d="M1184.28 1047.84C1185.06 1051.49 1184.41 1055.06 1182.76 1058.02C1192.15 1058.33 1199.67 1066.04 1199.67 1075.51V1120.17C1199.67 1129.84 1191.83 1137.67 1182.17 1137.67H1123.83C1114.17 1137.67 1106.33 1129.84 1106.33 1120.17V1075.51C1106.33 1066.04 1113.85 1058.33 1123.24 1058.02C1121.59 1055.06 1120.94 1051.49 1121.72 1047.84L1121.82 1047.35C1122.85 1042.51 1126.4 1038.59 1131.12 1037.08C1139.6 1034.37 1148.37 1037.82 1153 1044.64C1157.63 1037.82 1166.4 1034.37 1174.89 1037.08C1179.6 1038.59 1183.15 1042.51 1184.18 1047.35L1184.28 1047.84ZM1149.17 1057.97H1136.06C1131.56 1057.97 1128.2 1053.82 1129.13 1049.42L1129.24 1048.93C1129.7 1046.75 1131.3 1044.98 1133.42 1044.3C1140.37 1042.08 1147.64 1046.67 1148.62 1053.9L1149.17 1057.97L1149.17 1057.97ZM1156.83 1057.97H1169.94C1174.44 1057.97 1177.8 1053.82 1176.87 1049.42L1176.76 1048.93C1176.3 1046.75 1174.7 1044.98 1172.58 1044.3C1165.63 1042.08 1158.36 1046.67 1157.38 1053.9L1156.83 1057.97L1156.83 1057.97ZM1173.42 1065.59H1182.17C1187.64 1065.59 1192.08 1070.03 1192.08 1075.51V1090.9H1173.42V1065.59ZM1173.42 1098.49V1116.08C1173.42 1119.41 1169.65 1121.34 1166.95 1119.4L1153 1109.37L1139.05 1119.4C1136.35 1121.34 1132.58 1119.41 1132.58 1116.08V1098.49H1113.92V1120.17C1113.92 1125.65 1118.36 1130.09 1123.83 1130.09H1182.17C1187.64 1130.09 1192.08 1125.65 1192.08 1120.17V1098.49H1173.42ZM1132.58 1090.9H1113.92V1075.51C1113.92 1070.03 1118.36 1065.59 1123.83 1065.59H1132.58V1090.9ZM1165.83 1109.26V1065.59H1140.17V1109.26L1148.58 1103.21C1151.22 1101.31 1154.78 1101.31 1157.43 1103.21L1165.83 1109.26Z" fill="black"/>
</g>
</g>
<g id="Thin-M">
<g id="Outline / Bonus Outline_17">
<path id="Shape_17" fill-rule="evenodd" clip-rule="evenodd" d="M888.284 1047.84C889.06 1051.49 888.413 1055.06 886.759 1058.02C896.15 1058.33 903.667 1066.04 903.667 1075.51V1120.17C903.667 1129.84 895.832 1137.67 886.167 1137.67H827.834C818.169 1137.67 810.334 1129.84 810.334 1120.17V1075.51C810.334 1066.04 817.851 1058.33 827.242 1058.02C825.589 1055.06 824.941 1051.49 825.717 1047.84L825.822 1047.35C826.852 1042.51 830.399 1038.59 835.116 1037.08C843.599 1034.37 852.374 1037.82 857.001 1044.64C861.627 1037.82 870.402 1034.37 878.886 1037.08C883.602 1038.59 887.149 1042.51 888.179 1047.35L888.284 1047.84ZM853.173 1057.97H840.06C835.557 1057.97 832.198 1053.82 833.135 1049.42L833.239 1048.93C833.703 1046.75 835.301 1044.98 837.425 1044.3C844.374 1042.08 851.645 1046.67 852.624 1053.9L853.174 1057.97L853.173 1057.97ZM860.828 1057.97H873.941C878.445 1057.97 881.804 1053.82 880.867 1049.42L880.762 1048.93C880.298 1046.75 878.701 1044.98 876.576 1044.3C869.627 1042.08 862.357 1046.67 861.377 1053.9L860.827 1057.97L860.828 1057.97ZM877.417 1065.59H886.167C891.644 1065.59 896.084 1070.03 896.084 1075.51V1090.9H877.417V1065.59ZM877.417 1098.49V1116.08C877.417 1119.41 873.653 1121.34 870.951 1119.4L857.001 1109.37L843.05 1119.4C840.348 1121.34 836.584 1119.41 836.584 1116.08V1098.49H817.917V1120.17C817.917 1125.65 822.357 1130.09 827.834 1130.09H886.167C891.644 1130.09 896.084 1125.65 896.084 1120.17V1098.49H877.417ZM836.584 1090.9H817.917V1075.51C817.917 1070.03 822.357 1065.59 827.834 1065.59H836.584V1090.9ZM869.834 1109.26V1065.59H844.167V1109.26L852.576 1103.21C855.22 1101.31 858.781 1101.31 861.425 1103.21L869.834 1109.26Z" fill="black"/>
</g>
</g>
<g id="Ultralight-M">
<g id="Outline / Bonus Outline_18">
<path id="Shape_18" fill-rule="evenodd" clip-rule="evenodd" d="M592.284 1047.84C593.06 1051.49 592.413 1055.06 590.759 1058.02C600.15 1058.33 607.667 1066.04 607.667 1075.51V1120.17C607.667 1129.84 599.832 1137.67 590.167 1137.67H531.834C522.169 1137.67 514.334 1129.84 514.334 1120.17V1075.51C514.334 1066.04 521.851 1058.33 531.242 1058.02C529.589 1055.06 528.941 1051.49 529.717 1047.84L529.822 1047.35C530.852 1042.51 534.399 1038.59 539.116 1037.08C547.599 1034.37 556.374 1037.82 561.001 1044.64C565.627 1037.82 574.402 1034.37 582.886 1037.08C587.602 1038.59 591.149 1042.51 592.179 1047.35L592.284 1047.84ZM557.173 1057.97H544.06C539.557 1057.97 536.198 1053.82 537.135 1049.42L537.239 1048.93C537.703 1046.75 539.301 1044.98 541.425 1044.3C548.374 1042.08 555.645 1046.67 556.624 1053.9L557.174 1057.97L557.173 1057.97ZM564.828 1057.97H577.941C582.445 1057.97 585.804 1053.82 584.867 1049.42L584.762 1048.93C584.298 1046.75 582.701 1044.98 580.576 1044.3C573.627 1042.08 566.357 1046.67 565.377 1053.9L564.827 1057.97L564.828 1057.97ZM581.417 1065.59H590.167C595.644 1065.59 600.084 1070.03 600.084 1075.51V1090.9H581.417V1065.59ZM581.417 1098.49V1116.08C581.417 1119.41 577.653 1121.34 574.951 1119.4L561.001 1109.37L547.05 1119.4C544.348 1121.34 540.584 1119.41 540.584 1116.08V1098.49H521.917V1120.17C521.917 1125.65 526.357 1130.09 531.834 1130.09H590.167C595.644 1130.09 600.084 1125.65 600.084 1120.17V1098.49H581.417ZM540.584 1090.9H521.917V1075.51C521.917 1070.03 526.357 1065.59 531.834 1065.59H540.584V1090.9ZM573.834 1109.26V1065.59H548.167V1109.26L556.576 1103.21C559.22 1101.31 562.781 1101.31 565.425 1103.21L573.834 1109.26Z" fill="black"/>
</g>
</g>
<g id="Black-S">
<g id="Outline / Bonus Outline_19">
<path id="Shape_19" fill-rule="evenodd" clip-rule="evenodd" d="M2951.34 630.174C2951.9 632.781 2951.44 635.327 2950.26 637.444C2956.96 637.667 2962.33 643.175 2962.33 649.937V681.838C2962.33 688.742 2956.74 694.338 2949.83 694.338H2908.17C2901.26 694.338 2895.67 688.742 2895.67 681.838V649.937C2895.67 643.175 2901.04 637.667 2907.74 637.444C2906.56 635.327 2906.1 632.781 2906.65 630.174L2906.73 629.823C2907.46 626.363 2910 623.563 2913.37 622.486C2919.43 620.549 2925.69 623.018 2929 627.89C2932.3 623.018 2938.57 620.549 2944.63 622.486C2948 623.563 2950.53 626.363 2951.27 629.823L2951.34 630.174ZM2926.27 637.411H2916.9C2913.68 637.411 2911.28 634.447 2911.95 631.301L2912.03 630.95C2912.36 629.392 2913.5 628.131 2915.02 627.646C2919.98 626.059 2925.17 629.339 2925.87 634.503L2926.27 637.405L2926.27 637.411ZM2931.73 637.411H2941.1C2944.32 637.411 2946.72 634.447 2946.05 631.301L2945.97 630.95C2945.64 629.392 2944.5 628.131 2942.98 627.646C2938.02 626.059 2932.83 629.339 2932.13 634.503L2931.73 637.405L2931.73 637.411ZM2943.58 642.854H2949.83C2953.74 642.854 2956.92 646.025 2956.92 649.937V660.933H2943.58V642.854ZM2943.58 666.349V678.915C2943.58 681.291 2940.89 682.67 2938.96 681.284L2929 674.125L2919.03 681.284C2917.1 682.67 2914.42 681.291 2914.42 678.915V666.349H2901.08V681.838C2901.08 685.75 2904.25 688.922 2908.17 688.922H2949.83C2953.74 688.922 2956.92 685.75 2956.92 681.838V666.349H2943.58ZM2914.42 660.933H2901.08V649.937C2901.08 646.025 2904.25 642.854 2908.17 642.854H2914.42V660.933ZM2938.17 674.041V642.854H2919.83V674.041L2925.84 669.725C2927.73 668.369 2930.27 668.369 2932.16 669.725L2938.17 674.041Z" fill="black"/>
</g>
</g>
<g id="Heavy-S">
<g id="Outline / Bonus Outline_20">
<path id="Shape_20" fill-rule="evenodd" clip-rule="evenodd" d="M2655.34 630.174C2655.9 632.781 2655.44 635.327 2654.26 637.444C2660.96 637.667 2666.33 643.175 2666.33 649.937V681.838C2666.33 688.742 2660.74 694.338 2653.83 694.338H2612.17C2605.26 694.338 2599.67 688.742 2599.67 681.838V649.937C2599.67 643.175 2605.04 637.667 2611.74 637.444C2610.56 635.327 2610.1 632.781 2610.65 630.174L2610.73 629.823C2611.46 626.363 2614 623.563 2617.37 622.486C2623.43 620.549 2629.69 623.018 2633 627.89C2636.3 623.018 2642.57 620.549 2648.63 622.486C2652 623.563 2654.53 626.363 2655.27 629.823L2655.34 630.174ZM2630.27 637.411H2620.9C2617.68 637.411 2615.28 634.447 2615.95 631.301L2616.03 630.95C2616.36 629.392 2617.5 628.131 2619.02 627.646C2623.98 626.059 2629.17 629.339 2629.87 634.503L2630.27 637.405L2630.27 637.411ZM2635.73 637.411H2645.1C2648.32 637.411 2650.72 634.447 2650.05 631.301L2649.97 630.95C2649.64 629.392 2648.5 628.131 2646.98 627.646C2642.02 626.059 2636.83 629.339 2636.13 634.503L2635.73 637.405L2635.73 637.411ZM2647.58 642.854H2653.83C2657.74 642.854 2660.92 646.025 2660.92 649.937V660.933H2647.58V642.854ZM2647.58 666.349V678.915C2647.58 681.291 2644.89 682.67 2642.96 681.284L2633 674.125L2623.03 681.284C2621.1 682.67 2618.42 681.291 2618.42 678.915V666.349H2605.08V681.838C2605.08 685.75 2608.25 688.922 2612.17 688.922H2653.83C2657.74 688.922 2660.92 685.75 2660.92 681.838V666.349H2647.58ZM2618.42 660.933H2605.08V649.937C2605.08 646.025 2608.25 642.854 2612.17 642.854H2618.42V660.933ZM2642.17 674.041V642.854H2623.83V674.041L2629.84 669.725C2631.73 668.369 2634.27 668.369 2636.16 669.725L2642.17 674.041Z" fill="black"/>
</g>
</g>
<g id="Bold-S">
<g id="Outline / Bonus Outline_21">
<path id="Shape_21" fill-rule="evenodd" clip-rule="evenodd" d="M2359.34 630.174C2359.9 632.781 2359.44 635.327 2358.26 637.444C2364.96 637.667 2370.33 643.175 2370.33 649.937V681.838C2370.33 688.742 2364.74 694.338 2357.83 694.338H2316.17C2309.26 694.338 2303.67 688.742 2303.67 681.838V649.937C2303.67 643.175 2309.04 637.667 2315.74 637.444C2314.56 635.327 2314.1 632.781 2314.65 630.174L2314.73 629.823C2315.46 626.363 2318 623.563 2321.37 622.486C2327.43 620.549 2333.69 623.018 2337 627.89C2340.3 623.018 2346.57 620.549 2352.63 622.486C2356 623.563 2358.53 626.363 2359.27 629.823L2359.34 630.174ZM2334.27 637.411H2324.9C2321.68 637.411 2319.28 634.447 2319.95 631.301L2320.03 630.95C2320.36 629.392 2321.5 628.131 2323.02 627.646C2327.98 626.059 2333.17 629.339 2333.87 634.503L2334.27 637.405L2334.27 637.411ZM2339.73 637.411H2349.1C2352.32 637.411 2354.72 634.447 2354.05 631.301L2353.97 630.95C2353.64 629.392 2352.5 628.131 2350.98 627.646C2346.02 626.059 2340.83 629.339 2340.13 634.503L2339.73 637.405L2339.73 637.411ZM2351.58 642.854H2357.83C2361.74 642.854 2364.92 646.025 2364.92 649.937V660.933H2351.58V642.854ZM2351.58 666.349V678.915C2351.58 681.291 2348.89 682.67 2346.96 681.284L2337 674.125L2327.03 681.284C2325.1 682.67 2322.42 681.291 2322.42 678.915V666.349H2309.08V681.838C2309.08 685.75 2312.25 688.922 2316.17 688.922H2357.83C2361.74 688.922 2364.92 685.75 2364.92 681.838V666.349H2351.58ZM2322.42 660.933H2309.08V649.937C2309.08 646.025 2312.25 642.854 2316.17 642.854H2322.42V660.933ZM2346.17 674.041V642.854H2327.83V674.041L2333.84 669.725C2335.73 668.369 2338.27 668.369 2340.16 669.725L2346.17 674.041Z" fill="black"/>
</g>
</g>
<g id="Semibold-S">
<g id="Outline / Bonus Outline_22">
<path id="Shape_22" fill-rule="evenodd" clip-rule="evenodd" d="M2063.34 630.174C2063.9 632.781 2063.44 635.327 2062.26 637.444C2068.96 637.667 2074.33 643.175 2074.33 649.937V681.838C2074.33 688.742 2068.74 694.338 2061.83 694.338H2020.17C2013.26 694.338 2007.67 688.742 2007.67 681.838V649.937C2007.67 643.175 2013.04 637.667 2019.74 637.444C2018.56 635.327 2018.1 632.781 2018.65 630.174L2018.73 629.823C2019.46 626.363 2022 623.563 2025.37 622.486C2031.43 620.549 2037.69 623.018 2041 627.89C2044.3 623.018 2050.57 620.549 2056.63 622.486C2060 623.563 2062.53 626.363 2063.27 629.823L2063.34 630.174ZM2038.27 637.411H2028.9C2025.68 637.411 2023.28 634.447 2023.95 631.301L2024.03 630.95C2024.36 629.392 2025.5 628.131 2027.02 627.646C2031.98 626.059 2037.17 629.339 2037.87 634.503L2038.27 637.405L2038.27 637.411ZM2043.73 637.411H2053.1C2056.32 637.411 2058.72 634.447 2058.05 631.301L2057.97 630.95C2057.64 629.392 2056.5 628.131 2054.98 627.646C2050.02 626.059 2044.83 629.339 2044.13 634.503L2043.73 637.405L2043.73 637.411ZM2055.58 642.854H2061.83C2065.74 642.854 2068.92 646.025 2068.92 649.937V660.933H2055.58V642.854ZM2055.58 666.349V678.915C2055.58 681.291 2052.89 682.67 2050.96 681.284L2041 674.125L2031.03 681.284C2029.1 682.67 2026.42 681.291 2026.42 678.915V666.349H2013.08V681.838C2013.08 685.75 2016.25 688.922 2020.17 688.922H2061.83C2065.74 688.922 2068.92 685.75 2068.92 681.838V666.349H2055.58ZM2026.42 660.933H2013.08V649.937C2013.08 646.025 2016.25 642.854 2020.17 642.854H2026.42V660.933ZM2050.17 674.041V642.854H2031.83V674.041L2037.84 669.725C2039.73 668.369 2042.27 668.369 2044.16 669.725L2050.17 674.041Z" fill="black"/>
</g>
</g>
<g id="Medium-S">
<g id="Outline / Bonus Outline_23">
<path id="Shape_23" fill-rule="evenodd" clip-rule="evenodd" d="M1767.34 630.174C1767.9 632.781 1767.44 635.327 1766.26 637.444C1772.96 637.667 1778.33 643.175 1778.33 649.937V681.838C1778.33 688.742 1772.74 694.338 1765.83 694.338H1724.17C1717.26 694.338 1711.67 688.742 1711.67 681.838V649.937C1711.67 643.175 1717.04 637.667 1723.74 637.444C1722.56 635.327 1722.1 632.781 1722.65 630.174L1722.73 629.823C1723.46 626.363 1726 623.563 1729.37 622.486C1735.43 620.549 1741.69 623.018 1745 627.89C1748.3 623.018 1754.57 620.549 1760.63 622.486C1764 623.563 1766.53 626.363 1767.27 629.823L1767.34 630.174ZM1742.27 637.411H1732.9C1729.68 637.411 1727.28 634.447 1727.95 631.301L1728.03 630.95C1728.36 629.392 1729.5 628.131 1731.02 627.646C1735.98 626.059 1741.17 629.339 1741.87 634.503L1742.27 637.405L1742.27 637.411ZM1747.73 637.411H1757.1C1760.32 637.411 1762.72 634.447 1762.05 631.301L1761.97 630.95C1761.64 629.392 1760.5 628.131 1758.98 627.646C1754.02 626.059 1748.83 629.339 1748.13 634.503L1747.73 637.405L1747.73 637.411ZM1759.58 642.854H1765.83C1769.74 642.854 1772.92 646.025 1772.92 649.937V660.933H1759.58V642.854ZM1759.58 666.349V678.915C1759.58 681.291 1756.89 682.67 1754.96 681.284L1745 674.125L1735.03 681.284C1733.1 682.67 1730.42 681.291 1730.42 678.915V666.349H1717.08V681.838C1717.08 685.75 1720.25 688.922 1724.17 688.922H1765.83C1769.74 688.922 1772.92 685.75 1772.92 681.838V666.349H1759.58ZM1730.42 660.933H1717.08V649.937C1717.08 646.025 1720.25 642.854 1724.17 642.854H1730.42V660.933ZM1754.17 674.041V642.854H1735.83V674.041L1741.84 669.725C1743.73 668.369 1746.27 668.369 1748.16 669.725L1754.17 674.041Z" fill="black"/>
</g>
</g>
<g id="Regular-S">
<g id="Outline / Bonus Outline_24">
<path id="Shape_24" fill-rule="evenodd" clip-rule="evenodd" d="M1471.34 630.174C1471.9 632.781 1471.44 635.327 1470.26 637.444C1476.96 637.667 1482.33 643.175 1482.33 649.937V681.838C1482.33 688.742 1476.74 694.338 1469.83 694.338H1428.17C1421.26 694.338 1415.67 688.742 1415.67 681.838V649.937C1415.67 643.175 1421.04 637.667 1427.74 637.444C1426.56 635.327 1426.1 632.781 1426.65 630.174L1426.73 629.823C1427.46 626.363 1430 623.563 1433.37 622.486C1439.43 620.549 1445.69 623.018 1449 627.89C1452.3 623.018 1458.57 620.549 1464.63 622.486C1468 623.563 1470.53 626.363 1471.27 629.823L1471.34 630.174ZM1446.27 637.411H1436.9C1433.68 637.411 1431.28 634.447 1431.95 631.301L1432.03 630.95C1432.36 629.392 1433.5 628.131 1435.02 627.646C1439.98 626.059 1445.17 629.339 1445.87 634.503L1446.27 637.405L1446.27 637.411ZM1451.73 637.411H1461.1C1464.32 637.411 1466.72 634.447 1466.05 631.301L1465.97 630.95C1465.64 629.392 1464.5 628.131 1462.98 627.646C1458.02 626.059 1452.83 629.339 1452.13 634.503L1451.73 637.405L1451.73 637.411ZM1463.58 642.854H1469.83C1473.74 642.854 1476.92 646.025 1476.92 649.937V660.933H1463.58V642.854ZM1463.58 666.349V678.915C1463.58 681.291 1460.89 682.67 1458.96 681.284L1449 674.125L1439.03 681.284C1437.1 682.67 1434.42 681.291 1434.42 678.915V666.349H1421.08V681.838C1421.08 685.75 1424.25 688.922 1428.17 688.922H1469.83C1473.74 688.922 1476.92 685.75 1476.92 681.838V666.349H1463.58ZM1434.42 660.933H1421.08V649.937C1421.08 646.025 1424.25 642.854 1428.17 642.854H1434.42V660.933ZM1458.17 674.041V642.854H1439.83V674.041L1445.84 669.725C1447.73 668.369 1450.27 668.369 1452.16 669.725L1458.17 674.041Z" fill="black"/>
</g>
</g>
<g id="Light-S">
<g id="Outline / Bonus Outline_25">
<path id="Shape_25" fill-rule="evenodd" clip-rule="evenodd" d="M1175.34 630.174C1175.9 632.781 1175.44 635.327 1174.26 637.444C1180.96 637.667 1186.33 643.175 1186.33 649.937V681.838C1186.33 688.742 1180.74 694.338 1173.83 694.338H1132.17C1125.26 694.338 1119.67 688.742 1119.67 681.838V649.937C1119.67 643.175 1125.04 637.667 1131.74 637.444C1130.56 635.327 1130.1 632.781 1130.65 630.174L1130.73 629.823C1131.46 626.363 1134 623.563 1137.37 622.486C1143.43 620.549 1149.69 623.018 1153 627.89C1156.3 623.018 1162.57 620.549 1168.63 622.486C1172 623.563 1174.53 626.363 1175.27 629.823L1175.34 630.174ZM1150.27 637.411H1140.9C1137.68 637.411 1135.28 634.447 1135.95 631.301L1136.03 630.95C1136.36 629.392 1137.5 628.131 1139.02 627.646C1143.98 626.059 1149.17 629.339 1149.87 634.503L1150.27 637.405L1150.27 637.411ZM1155.73 637.411H1165.1C1168.32 637.411 1170.72 634.447 1170.05 631.301L1169.97 630.95C1169.64 629.392 1168.5 628.131 1166.98 627.646C1162.02 626.059 1156.83 629.339 1156.13 634.503L1155.73 637.405L1155.73 637.411ZM1167.58 642.854H1173.83C1177.74 642.854 1180.92 646.025 1180.92 649.937V660.933H1167.58V642.854ZM1167.58 666.349V678.915C1167.58 681.291 1164.89 682.67 1162.96 681.284L1153 674.125L1143.03 681.284C1141.1 682.67 1138.42 681.291 1138.42 678.915V666.349H1125.08V681.838C1125.08 685.75 1128.25 688.922 1132.17 688.922H1173.83C1177.74 688.922 1180.92 685.75 1180.92 681.838V666.349H1167.58ZM1138.42 660.933H1125.08V649.937C1125.08 646.025 1128.25 642.854 1132.17 642.854H1138.42V660.933ZM1162.17 674.041V642.854H1143.83V674.041L1149.84 669.725C1151.73 668.369 1154.27 668.369 1156.16 669.725L1162.17 674.041Z" fill="black"/>
</g>
</g>
<g id="Thin-S">
<g id="Outline / Bonus Outline_26">
<path id="Shape_26" fill-rule="evenodd" clip-rule="evenodd" d="M879.345 630.174C879.899 632.781 879.436 635.327 878.255 637.444C884.963 637.667 890.333 643.175 890.333 649.937V681.838C890.333 688.742 884.736 694.338 877.833 694.338H836.166C829.262 694.338 823.666 688.742 823.666 681.838V649.937C823.666 643.175 829.036 637.667 835.743 637.444C834.562 635.327 834.1 632.781 834.654 630.174L834.729 629.823C835.465 626.363 837.998 623.563 841.367 622.486C847.427 620.549 853.695 623.018 856.999 627.89C860.304 623.018 866.572 620.549 872.632 622.486C876.001 623.563 878.534 626.363 879.27 629.823L879.345 630.174ZM854.266 637.411H844.899C841.682 637.411 839.283 634.447 839.952 631.301L840.027 630.95C840.358 629.392 841.499 628.131 843.017 627.646C847.98 626.059 853.174 629.339 853.873 634.503L854.266 637.405L854.266 637.411ZM859.733 637.411H869.1C872.316 637.411 874.716 634.447 874.046 631.301L873.972 630.95C873.64 629.392 872.499 628.131 870.982 627.646C866.018 626.059 860.825 629.339 860.126 634.503L859.732 637.405L859.733 637.411ZM871.583 642.854H877.833C881.745 642.854 884.916 646.025 884.916 649.937V660.933H871.583V642.854ZM871.583 666.349V678.915C871.583 681.291 868.894 682.67 866.964 681.284L856.999 674.125L847.034 681.284C845.105 682.67 842.416 681.291 842.416 678.915V666.349H829.083V681.838C829.083 685.75 832.254 688.922 836.166 688.922H877.833C881.745 688.922 884.916 685.75 884.916 681.838V666.349H871.583ZM842.416 660.933H829.083V649.937C829.083 646.025 832.254 642.854 836.166 642.854H842.416V660.933ZM866.166 674.041V642.854H847.833V674.041L853.839 669.725C855.727 668.369 858.271 668.369 860.16 669.725L866.166 674.041Z" fill="black"/>
</g>
</g>
<g id="Ultralight-S">
<g id="Outline / Bonus Outline_27">
<path id="Shape_27" fill-rule="evenodd" clip-rule="evenodd" d="M583.345 630.174C583.899 632.781 583.436 635.327 582.255 637.444C588.963 637.667 594.333 643.175 594.333 649.937V681.838C594.333 688.742 588.736 694.338 581.833 694.338H540.166C533.262 694.338 527.666 688.742 527.666 681.838V649.937C527.666 643.175 533.036 637.667 539.743 637.444C538.562 635.327 538.1 632.781 538.654 630.174L538.729 629.823C539.465 626.363 541.998 623.563 545.367 622.486C551.427 620.549 557.695 623.018 560.999 627.89C564.304 623.018 570.572 620.549 576.632 622.486C580.001 623.563 582.534 626.363 583.27 629.823L583.345 630.174ZM558.266 637.411H548.899C545.682 637.411 543.283 634.447 543.952 631.301L544.027 630.95C544.358 629.392 545.499 628.131 547.017 627.646C551.98 626.059 557.174 629.339 557.873 634.503L558.266 637.405L558.266 637.411ZM563.733 637.411H573.1C576.316 637.411 578.716 634.447 578.046 631.301L577.972 630.95C577.64 629.392 576.499 628.131 574.982 627.646C570.018 626.059 564.825 629.339 564.126 634.503L563.732 637.405L563.733 637.411ZM575.583 642.854H581.833C585.745 642.854 588.916 646.025 588.916 649.937V660.933H575.583V642.854ZM575.583 666.349V678.915C575.583 681.291 572.894 682.67 570.964 681.284L560.999 674.125L551.034 681.284C549.105 682.67 546.416 681.291 546.416 678.915V666.349H533.083V681.838C533.083 685.75 536.254 688.922 540.166 688.922H581.833C585.745 688.922 588.916 685.75 588.916 681.838V666.349H575.583ZM546.416 660.933H533.083V649.937C533.083 646.025 536.254 642.854 540.166 642.854H546.416V660.933ZM570.166 674.041V642.854H551.833V674.041L557.839 669.725C559.727 668.369 562.271 668.369 564.16 669.725L570.166 674.041Z" fill="black"/>
</g>
</g>
</g>
</g>
<defs>
<clipPath id="clip0_0_1">
<rect width="3300" height="2200" fill="white"/>
</clipPath>
</defs>
</svg>
