<svg width="3300" height="2200" viewBox="0 0 3300 2200" fill="none" xmlns="http://www.w3.org/2000/svg">
<rect width="3300" height="2200" fill="#E5E5E5"/>
<g id="Service / Solid / Check" clip-path="url(#clip0_0_1)">
<g id="Notes">
<path id="artboard" d="M3300 0H0V2200H3300V0Z" fill="white"/>
<path id="Vector" d="M263 292H3036" stroke="black" stroke-width="0.5"/>
<text id="Weight/Scale Variations" fill="black" xml:space="preserve" style="white-space: pre" font-family="Roboto" font-size="12" letter-spacing="0em"><tspan x="263" y="321.102">Weight/Scale Variations</tspan></text>
<text id="Ultralight" fill="black" xml:space="preserve" style="white-space: pre" font-family="Roboto" font-size="12" letter-spacing="0em"><tspan x="535.211" y="321.102">Ultralight</tspan></text>
<text id="Thin" fill="black" xml:space="preserve" style="white-space: pre" font-family="Roboto" font-size="12" letter-spacing="0em"><tspan x="844.422" y="321.102">Thin</tspan></text>
<text id="Light" fill="black" xml:space="preserve" style="white-space: pre" font-family="Roboto" font-size="12" letter-spacing="0em"><tspan x="1139.63" y="321.102">Light</tspan></text>
<text id="Regular" fill="black" xml:space="preserve" style="white-space: pre" font-family="Roboto" font-size="12" letter-spacing="0em"><tspan x="1429.34" y="321.102">Regular</tspan></text>
<text id="Medium" fill="black" xml:space="preserve" style="white-space: pre" font-family="Roboto" font-size="12" letter-spacing="0em"><tspan x="1724.56" y="321.102">Medium</tspan></text>
<text id="Semibold" fill="black" xml:space="preserve" style="white-space: pre" font-family="Roboto" font-size="12" letter-spacing="0em"><tspan x="2017.77" y="321.102">Semibold</tspan></text>
<text id="Bold" fill="black" xml:space="preserve" style="white-space: pre" font-family="Roboto" font-size="12" letter-spacing="0em"><tspan x="2327.48" y="321.102">Bold</tspan></text>
<text id="Heavy" fill="black" xml:space="preserve" style="white-space: pre" font-family="Roboto" font-size="12" letter-spacing="0em"><tspan x="2620.19" y="321.102">Heavy</tspan></text>
<text id="Black" fill="black" xml:space="preserve" style="white-space: pre" font-family="Roboto" font-size="12" letter-spacing="0em"><tspan x="2918.4" y="321.102">Black</tspan></text>
<path id="Vector_2" d="M263 1903H3036" stroke="black" stroke-width="0.5"/>
<g id="Group">
<path id="Vector_3" d="M272.248 1933.83C276.555 1933.83 280.139 1930.26 280.139 1925.95C280.139 1921.64 276.545 1918.07 272.238 1918.07C267.941 1918.07 264.367 1921.64 264.367 1925.95C264.367 1930.26 267.951 1933.83 272.248 1933.83ZM272.248 1932.35C268.703 1932.35 265.871 1929.51 265.871 1925.95C265.871 1922.4 268.693 1919.55 272.238 1919.55C275.793 1919.55 278.635 1922.4 278.644 1925.95C278.654 1929.51 275.803 1932.35 272.248 1932.35ZM272.229 1929.57C272.697 1929.57 272.971 1929.26 272.971 1928.74V1926.68H275.197C275.695 1926.68 276.037 1926.43 276.037 1925.96C276.037 1925.48 275.715 1925.22 275.197 1925.22H272.971V1922.99C272.971 1922.47 272.697 1922.15 272.229 1922.15C271.76 1922.15 271.506 1922.49 271.506 1922.99V1925.22H269.299C268.781 1925.22 268.449 1925.48 268.449 1925.96C268.449 1926.43 268.801 1926.68 269.299 1926.68H271.506V1928.74C271.506 1929.24 271.76 1929.57 272.229 1929.57Z" fill="black"/>
</g>
<g id="Group_2">
<path id="Vector_4" d="M293.215 1935.91C298.664 1935.91 303.176 1931.4 303.176 1925.95C303.176 1920.51 298.654 1915.99 293.205 1915.99C287.766 1915.99 283.254 1920.51 283.254 1925.95C283.254 1931.4 287.775 1935.91 293.215 1935.91ZM293.215 1934.25C288.605 1934.25 284.924 1930.56 284.924 1925.95C284.924 1921.35 288.596 1917.65 293.205 1917.65C297.814 1917.65 301.506 1921.35 301.516 1925.95C301.525 1930.56 297.824 1934.25 293.215 1934.25ZM293.195 1930.59C293.713 1930.59 294.025 1930.23 294.025 1929.66V1926.77H297.082C297.629 1926.77 298.01 1926.49 298.01 1925.97C298.01 1925.44 297.648 1925.14 297.082 1925.14H294.025V1922.07C294.025 1921.5 293.713 1921.14 293.195 1921.14C292.678 1921.14 292.385 1921.52 292.385 1922.07V1925.14H289.338C288.771 1925.14 288.4 1925.44 288.4 1925.97C288.4 1926.49 288.791 1926.77 289.338 1926.77H292.385V1929.66C292.385 1930.21 292.678 1930.59 293.195 1930.59Z" fill="black"/>
</g>
<g id="Group_3">
<path id="Vector_5" d="M319.895 1938.67C326.857 1938.67 332.619 1932.92 332.619 1925.96C332.619 1918.99 326.848 1913.24 319.885 1913.24C312.932 1913.24 307.18 1918.99 307.18 1925.96C307.18 1932.92 312.941 1938.67 319.895 1938.67ZM319.895 1936.86C313.859 1936.86 309.006 1931.99 309.006 1925.96C309.006 1919.92 313.85 1915.06 319.885 1915.06C325.93 1915.06 330.783 1919.92 330.793 1925.96C330.803 1931.99 325.939 1936.86 319.895 1936.86ZM319.875 1931.93C320.441 1931.93 320.793 1931.54 320.793 1930.94V1926.87H325.031C325.617 1926.87 326.037 1926.53 326.037 1925.98C326.037 1925.4 325.647 1925.06 325.031 1925.06H320.793V1920.81C320.793 1920.2 320.441 1919.8 319.875 1919.8C319.309 1919.8 318.986 1920.21 318.986 1920.81V1925.06H314.758C314.143 1925.06 313.732 1925.4 313.732 1925.98C313.732 1926.53 314.162 1926.87 314.758 1926.87H318.986V1930.94C318.986 1931.52 319.309 1931.93 319.875 1931.93Z" fill="black"/>
</g>
<text id="Design Variations" fill="black" xml:space="preserve" style="white-space: pre" font-family="Roboto" font-size="12" letter-spacing="0em"><tspan x="263" y="1952.1">Design Variations</tspan></text>
<text id="Symbols are supported in up to nine weights and three scales." fill="black" xml:space="preserve" style="white-space: pre" font-family="Roboto" font-size="12" letter-spacing="0em"><tspan x="263" y="1970.1">Symbols are supported in up to nine weights and three scales.</tspan></text>
<text id="For optimal layout with text and other symbols, vertically align" fill="black" xml:space="preserve" style="white-space: pre" font-family="Roboto" font-size="12" letter-spacing="0em"><tspan x="263" y="1988.1">For optimal layout with text and other symbols, vertically align</tspan></text>
<text id="symbols with the adjacent text." fill="black" xml:space="preserve" style="white-space: pre" font-family="Roboto" font-size="12" letter-spacing="0em"><tspan x="263" y="2006.1">symbols with the adjacent text.</tspan></text>
<path id="Vector_6" opacity="0.4" d="M779 1919H776V1933H779V1919Z" fill="#00AEEF"/>
<g id="Group_4">
<path id="Vector_7" d="M789.527 1933H791.373L786.178 1918.91H784.439L779.244 1933H781.09L782.506 1928.96H788.111L789.527 1933ZM785.279 1921.04H785.338L787.594 1927.47H783.023L785.279 1921.04Z" fill="black"/>
</g>
<path id="Vector_8" opacity="0.4" d="M794.617 1919H791.617V1933H794.617V1919Z" fill="#00AEEF"/>
<text id="Margins" fill="black" xml:space="preserve" style="white-space: pre" font-family="Roboto" font-size="12" letter-spacing="0em"><tspan x="776" y="1952.1">Margins</tspan></text>
<text id="Leading and trailing margins on the left and right side of each symbol" fill="black" xml:space="preserve" style="white-space: pre" font-family="Roboto" font-size="12" letter-spacing="0em"><tspan x="776" y="1970.1">Leading and trailing margins on the left and right side of each symbol</tspan></text>
<text id="can be adjusted by modifying the width of the blue rectangles." fill="black" xml:space="preserve" style="white-space: pre" font-family="Roboto" font-size="12" letter-spacing="0em"><tspan x="776" y="1988.1">can be adjusted by modifying the width of the blue rectangles.</tspan></text>
<text id="Modifications are automatically applied proportionally to all" fill="black" xml:space="preserve" style="white-space: pre" font-family="Roboto" font-size="12" letter-spacing="0em"><tspan x="776" y="2006.1">Modifications are automatically applied proportionally to all</tspan></text>
<text id="scales and weights." fill="black" xml:space="preserve" style="white-space: pre" font-family="Roboto" font-size="12" letter-spacing="0em"><tspan x="776" y="2024.1">scales and weights.</tspan></text>
<g id="Group_5">
<path id="Vector_9" d="M1291.83 1936.11L1293.37 1937.66C1294.22 1938.49 1295.19 1938.42 1296.06 1937.46L1306.27 1926.34C1306.7 1926.63 1307.1 1926.62 1307.56 1926.52L1308.61 1926.31L1309.3 1927L1309.25 1927.52C1309.19 1928.05 1309.35 1928.47 1309.85 1928.97L1310.66 1929.78C1311.17 1930.28 1311.82 1930.31 1312.3 1929.83L1315.55 1926.58C1316.03 1926.1 1316.01 1925.45 1315.5 1924.94L1314.68 1924.12C1314.19 1923.62 1313.77 1923.45 1313.24 1923.53L1312.71 1923.58L1312.06 1922.92L1312.34 1921.78C1312.49 1921.21 1312.34 1920.74 1311.71 1920.14L1309.3 1917.75C1305.76 1914.22 1301.23 1914.33 1298.11 1917.46C1297.69 1917.89 1297.64 1918.48 1297.92 1918.91C1298.15 1919.28 1298.63 1919.5 1299.27 1919.34C1300.79 1918.96 1302.3 1919.07 1303.78 1920.08L1303.16 1921.66C1302.93 1922.25 1302.94 1922.73 1303.18 1923.16L1292.02 1933.44C1291.08 1934.31 1290.97 1935.25 1291.83 1936.11ZM1299.67 1917.85C1302.34 1915.86 1305.65 1916.17 1308.05 1918.58L1310.68 1921.19C1310.91 1921.43 1310.94 1921.61 1310.88 1921.91L1310.5 1923.47L1312.08 1925.04L1313.04 1924.95C1313.33 1924.92 1313.41 1924.94 1313.64 1925.17L1314.26 1925.79L1311.51 1928.54L1310.88 1927.92C1310.66 1927.7 1310.64 1927.6 1310.67 1927.32L1310.76 1926.36L1309.19 1924.8L1307.57 1925.11C1307.29 1925.17 1307.14 1925.17 1306.91 1924.92L1304.73 1922.75C1304.51 1922.51 1304.48 1922.37 1304.61 1922.05L1305.55 1919.78C1303.95 1918.24 1301.84 1917.39 1299.8 1918.05C1299.71 1918.08 1299.64 1918.06 1299.61 1918.02C1299.59 1917.97 1299.59 1917.92 1299.67 1917.85ZM1293.1 1935.41C1292.61 1934.91 1292.79 1934.61 1293.12 1934.31L1304.08 1924.19L1305.31 1925.42L1295.15 1936.35C1294.85 1936.68 1294.47 1936.78 1294.07 1936.38L1293.1 1935.41Z" fill="black"/>
</g>
<text id="Exporting" fill="black" xml:space="preserve" style="white-space: pre" font-family="Roboto" font-size="12" letter-spacing="0em"><tspan x="1289" y="1952.1">Exporting</tspan></text>
<text id="Symbols should be outlined when exporting to ensure the" fill="black" xml:space="preserve" style="white-space: pre" font-family="Roboto" font-size="12" letter-spacing="0em"><tspan x="1289" y="1970.1">Symbols should be outlined when exporting to ensure the</tspan></text>
<text id="design is preserved when submitting to Xcode." fill="black" xml:space="preserve" style="white-space: pre" font-family="Roboto" font-size="12" letter-spacing="0em"><tspan x="1289" y="1988.1">design is preserved when submitting to Xcode.</tspan></text>
<text id="template-version" fill="black" xml:space="preserve" style="white-space: pre" font-family="Roboto" font-size="12" letter-spacing="0em"><tspan x="2958" y="1932.1">Template v.1.0</tspan></text>
<text id="Generated from pencil.circle" fill="black" xml:space="preserve" style="white-space: pre" font-family="Roboto" font-size="12" letter-spacing="0em"><tspan x="2885" y="1950.1">Generated from pencil.circle</tspan></text>
<text id="Typeset at 100 points" fill="black" xml:space="preserve" style="white-space: pre" font-family="Roboto" font-size="12" letter-spacing="0em"><tspan x="2921" y="1968.1">Typeset at 100 points</tspan></text>
<text id="Small" fill="black" xml:space="preserve" style="white-space: pre" font-family="Roboto" font-size="12" letter-spacing="0em"><tspan x="263" y="725.102">Small</tspan></text>
<text id="Medium_2" fill="black" xml:space="preserve" style="white-space: pre" font-family="Roboto" font-size="12" letter-spacing="0em"><tspan x="263" y="1155.1">Medium</tspan></text>
<text id="Large" fill="black" xml:space="preserve" style="white-space: pre" font-family="Roboto" font-size="12" letter-spacing="0em"><tspan x="263" y="1585.1">Large</tspan></text>
</g>
<g id="Guides">
<g id="H-reference">
<path id="Vector_10" d="M393.932 695.998H396.666L369.566 625.539H367.076L339.977 695.998H342.662L351.94 671.535H384.703L393.932 695.998ZM368.199 628.908H368.443L383.824 669.289H352.818L368.199 628.908Z" fill="#27AAE1"/>
</g>
<path id="Baseline-S" d="M263 696H3036" stroke="#27AAE1" stroke-width="0.577"/>
<path id="Capline-S" d="M263 626H3036" stroke="#27AAE1" stroke-width="0.577"/>
<g id="H-reference_2">
<path id="Vector_11" d="M393.932 1126H396.666L369.566 1055.54H367.076L339.977 1126H342.662L351.94 1101.54H384.703L393.932 1126ZM368.199 1058.91H368.443L383.824 1099.29H352.818L368.199 1058.91Z" fill="#27AAE1"/>
</g>
<path id="Baseline-M" d="M263 1126H3036" stroke="#27AAE1" stroke-width="0.577"/>
<path id="Capline-M" d="M263 1056H3036" stroke="#27AAE1" stroke-width="0.577"/>
<g id="H-reference_3">
<path id="Vector_12" d="M393.932 1556H396.666L369.566 1485.54H367.076L339.977 1556H342.662L351.94 1531.54H384.703L393.932 1556ZM368.199 1488.91H368.443L383.824 1529.29H352.818L368.199 1488.91Z" fill="#27AAE1"/>
</g>
<g id="Group 1">
<path id="Baseline-L" d="M263 1556H3036" stroke="#27AAE1" stroke-width="0.577"/>
<path id="Capline-L" d="M263 1486H3036" stroke="#27AAE1" stroke-width="0.577"/>
</g>
<path id="left-margin" opacity="0.4" d="M1396.04 1030.79H1387.3V1150.12H1396.04V1030.79Z" fill="#00AEEF"/>
<path id="right-margin" opacity="0.4" d="M1510.39 1030.79H1501.65V1150.12H1510.39V1030.79Z" fill="#00AEEF"/>
</g>
<g id="Symbols">
<g id="Black-L">
<g id="Solid / Check Solid">
<path id="Shape" fill-rule="evenodd" clip-rule="evenodd" d="M2861.5 1521C2861.5 1483.72 2891.72 1453.5 2929 1453.5C2966.28 1453.5 2996.5 1483.72 2996.5 1521C2996.5 1558.28 2966.28 1588.5 2929 1588.5C2891.72 1588.5 2861.5 1558.28 2861.5 1521ZM2919.92 1545.67C2922.02 1547.77 2925.47 1547.7 2927.5 1545.52L2960.65 1509.52C2962.45 1507.5 2962.3 1504.42 2960.35 1502.62C2958.4 1500.82 2955.25 1500.9 2953.45 1502.92L2923.52 1535.47L2905.52 1517.47C2903.65 1515.6 2900.5 1515.6 2898.62 1517.47C2896.75 1519.35 2896.75 1522.5 2898.62 1524.37L2919.92 1545.67Z" fill="black"/>
</g>
</g>
<g id="Heavy-L">
<g id="Solid / Check Solid_2">
<path id="Shape_2" fill-rule="evenodd" clip-rule="evenodd" d="M2565.5 1521C2565.5 1483.72 2595.72 1453.5 2633 1453.5C2670.28 1453.5 2700.5 1483.72 2700.5 1521C2700.5 1558.28 2670.28 1588.5 2633 1588.5C2595.72 1588.5 2565.5 1558.28 2565.5 1521ZM2623.92 1545.67C2626.02 1547.77 2629.47 1547.7 2631.5 1545.52L2664.65 1509.52C2666.45 1507.5 2666.3 1504.42 2664.35 1502.62C2662.4 1500.82 2659.25 1500.9 2657.45 1502.92L2627.52 1535.47L2609.52 1517.47C2607.65 1515.6 2604.5 1515.6 2602.62 1517.47C2600.75 1519.35 2600.75 1522.5 2602.62 1524.37L2623.92 1545.67Z" fill="black"/>
</g>
</g>
<g id="Bold-L">
<g id="Solid / Check Solid_3">
<path id="Shape_3" fill-rule="evenodd" clip-rule="evenodd" d="M2269.5 1521C2269.5 1483.72 2299.72 1453.5 2337 1453.5C2374.28 1453.5 2404.5 1483.72 2404.5 1521C2404.5 1558.28 2374.28 1588.5 2337 1588.5C2299.72 1588.5 2269.5 1558.28 2269.5 1521ZM2327.92 1545.67C2330.02 1547.77 2333.47 1547.7 2335.5 1545.52L2368.65 1509.52C2370.45 1507.5 2370.3 1504.42 2368.35 1502.62C2366.4 1500.82 2363.25 1500.9 2361.45 1502.92L2331.52 1535.47L2313.52 1517.47C2311.65 1515.6 2308.5 1515.6 2306.62 1517.47C2304.75 1519.35 2304.75 1522.5 2306.62 1524.37L2327.92 1545.67Z" fill="black"/>
</g>
</g>
<g id="Semibold-L">
<g id="Solid / Check Solid_4">
<path id="Shape_4" fill-rule="evenodd" clip-rule="evenodd" d="M1973.5 1521C1973.5 1483.72 2003.72 1453.5 2041 1453.5C2078.28 1453.5 2108.5 1483.72 2108.5 1521C2108.5 1558.28 2078.28 1588.5 2041 1588.5C2003.72 1588.5 1973.5 1558.28 1973.5 1521ZM2031.92 1545.67C2034.02 1547.77 2037.47 1547.7 2039.5 1545.52L2072.65 1509.52C2074.45 1507.5 2074.3 1504.42 2072.35 1502.62C2070.4 1500.82 2067.25 1500.9 2065.45 1502.92L2035.52 1535.47L2017.52 1517.47C2015.65 1515.6 2012.5 1515.6 2010.62 1517.47C2008.75 1519.35 2008.75 1522.5 2010.62 1524.37L2031.92 1545.67Z" fill="black"/>
</g>
</g>
<g id="Medium-L">
<g id="Solid / Check Solid_5">
<path id="Shape_5" fill-rule="evenodd" clip-rule="evenodd" d="M1677.5 1521C1677.5 1483.72 1707.72 1453.5 1745 1453.5C1782.28 1453.5 1812.5 1483.72 1812.5 1521C1812.5 1558.28 1782.28 1588.5 1745 1588.5C1707.72 1588.5 1677.5 1558.28 1677.5 1521ZM1735.92 1545.67C1738.02 1547.77 1741.47 1547.7 1743.5 1545.52L1776.65 1509.52C1778.45 1507.5 1778.3 1504.42 1776.35 1502.62C1774.4 1500.82 1771.25 1500.9 1769.45 1502.92L1739.52 1535.47L1721.52 1517.47C1719.65 1515.6 1716.5 1515.6 1714.62 1517.47C1712.75 1519.35 1712.75 1522.5 1714.62 1524.37L1735.92 1545.67Z" fill="black"/>
</g>
</g>
<g id="Regular-L">
<g id="Solid / Check Solid_6">
<path id="Shape_6" fill-rule="evenodd" clip-rule="evenodd" d="M1381.5 1521C1381.5 1483.72 1411.72 1453.5 1449 1453.5C1486.28 1453.5 1516.5 1483.72 1516.5 1521C1516.5 1558.28 1486.28 1588.5 1449 1588.5C1411.72 1588.5 1381.5 1558.28 1381.5 1521ZM1439.92 1545.67C1442.02 1547.77 1445.47 1547.7 1447.5 1545.52L1480.65 1509.52C1482.45 1507.5 1482.3 1504.42 1480.35 1502.62C1478.4 1500.82 1475.25 1500.9 1473.45 1502.92L1443.52 1535.47L1425.52 1517.47C1423.65 1515.6 1420.5 1515.6 1418.62 1517.47C1416.75 1519.35 1416.75 1522.5 1418.62 1524.37L1439.92 1545.67Z" fill="black"/>
</g>
</g>
<g id="Light-L">
<g id="Solid / Check Solid_7">
<path id="Shape_7" fill-rule="evenodd" clip-rule="evenodd" d="M1085.5 1521C1085.5 1483.72 1115.72 1453.5 1153 1453.5C1190.28 1453.5 1220.5 1483.72 1220.5 1521C1220.5 1558.28 1190.28 1588.5 1153 1588.5C1115.72 1588.5 1085.5 1558.28 1085.5 1521ZM1143.92 1545.67C1146.02 1547.77 1149.47 1547.7 1151.5 1545.52L1184.65 1509.52C1186.45 1507.5 1186.3 1504.42 1184.35 1502.62C1182.4 1500.82 1179.25 1500.9 1177.45 1502.92L1147.52 1535.47L1129.52 1517.47C1127.65 1515.6 1124.5 1515.6 1122.62 1517.47C1120.75 1519.35 1120.75 1522.5 1122.62 1524.37L1143.92 1545.67Z" fill="black"/>
</g>
</g>
<g id="Thin-L">
<g id="Solid / Check Solid_8">
<path id="Shape_8" fill-rule="evenodd" clip-rule="evenodd" d="M789.5 1521C789.5 1483.72 819.721 1453.5 857 1453.5C894.279 1453.5 924.5 1483.72 924.5 1521C924.5 1558.28 894.279 1588.5 857 1588.5C819.721 1588.5 789.5 1558.28 789.5 1521ZM847.925 1545.67C850.025 1547.77 853.475 1547.7 855.5 1545.52L888.65 1509.52C890.45 1507.5 890.3 1504.42 888.35 1502.62C886.4 1500.82 883.25 1500.9 881.45 1502.92L851.525 1535.47L833.525 1517.47C831.65 1515.6 828.5 1515.6 826.625 1517.47C824.75 1519.35 824.75 1522.5 826.625 1524.37L847.925 1545.67Z" fill="black"/>
</g>
</g>
<g id="Ultralight-L">
<g id="Solid / Check Solid_9">
<path id="Shape_9" fill-rule="evenodd" clip-rule="evenodd" d="M493.5 1521C493.5 1483.72 523.721 1453.5 561 1453.5C598.279 1453.5 628.5 1483.72 628.5 1521C628.5 1558.28 598.279 1588.5 561 1588.5C523.721 1588.5 493.5 1558.28 493.5 1521ZM551.925 1545.67C554.025 1547.77 557.475 1547.7 559.5 1545.52L592.65 1509.52C594.45 1507.5 594.3 1504.42 592.35 1502.62C590.4 1500.82 587.25 1500.9 585.45 1502.92L555.525 1535.47L537.525 1517.47C535.65 1515.6 532.5 1515.6 530.625 1517.47C528.75 1519.35 528.75 1522.5 530.625 1524.37L551.925 1545.67Z" fill="black"/>
</g>
</g>
<g id="Black-M">
<g id="Solid / Check Solid_10">
<path id="Shape_10" fill-rule="evenodd" clip-rule="evenodd" d="M2876.5 1091C2876.5 1062.01 2900.01 1038.5 2929 1038.5C2957.99 1038.5 2981.5 1062.01 2981.5 1091C2981.5 1119.99 2957.99 1143.5 2929 1143.5C2900.01 1143.5 2876.5 1119.99 2876.5 1091ZM2921.94 1110.19C2923.57 1111.82 2926.26 1111.77 2927.83 1110.07L2953.62 1082.07C2955.02 1080.5 2954.9 1078.11 2953.38 1076.71C2951.87 1075.31 2949.42 1075.37 2948.02 1076.94L2924.74 1102.26L2910.74 1088.26C2909.28 1086.8 2906.83 1086.8 2905.37 1088.26C2903.92 1089.72 2903.92 1092.17 2905.37 1093.62L2921.94 1110.19Z" fill="black"/>
</g>
</g>
<g id="Heavy-M">
<g id="Solid / Check Solid_11">
<path id="Shape_11" fill-rule="evenodd" clip-rule="evenodd" d="M2580.5 1091C2580.5 1062.01 2604.01 1038.5 2633 1038.5C2661.99 1038.5 2685.5 1062.01 2685.5 1091C2685.5 1119.99 2661.99 1143.5 2633 1143.5C2604.01 1143.5 2580.5 1119.99 2580.5 1091ZM2625.94 1110.19C2627.57 1111.82 2630.26 1111.77 2631.83 1110.07L2657.62 1082.07C2659.02 1080.5 2658.9 1078.11 2657.38 1076.71C2655.87 1075.31 2653.42 1075.37 2652.02 1076.94L2628.74 1102.26L2614.74 1088.26C2613.28 1086.8 2610.83 1086.8 2609.37 1088.26C2607.92 1089.72 2607.92 1092.17 2609.37 1093.62L2625.94 1110.19Z" fill="black"/>
</g>
</g>
<g id="Bold-M">
<g id="Solid / Check Solid_12">
<path id="Shape_12" fill-rule="evenodd" clip-rule="evenodd" d="M2284.5 1091C2284.5 1062.01 2308.01 1038.5 2337 1038.5C2365.99 1038.5 2389.5 1062.01 2389.5 1091C2389.5 1119.99 2365.99 1143.5 2337 1143.5C2308.01 1143.5 2284.5 1119.99 2284.5 1091ZM2329.94 1110.19C2331.57 1111.82 2334.26 1111.77 2335.83 1110.07L2361.62 1082.07C2363.02 1080.5 2362.9 1078.11 2361.38 1076.71C2359.87 1075.31 2357.42 1075.37 2356.02 1076.94L2332.74 1102.26L2318.74 1088.26C2317.28 1086.8 2314.83 1086.8 2313.37 1088.26C2311.92 1089.72 2311.92 1092.17 2313.37 1093.62L2329.94 1110.19Z" fill="black"/>
</g>
</g>
<g id="Semibold-M">
<g id="Solid / Check Solid_13">
<path id="Shape_13" fill-rule="evenodd" clip-rule="evenodd" d="M1988.5 1091C1988.5 1062.01 2012.01 1038.5 2041 1038.5C2069.99 1038.5 2093.5 1062.01 2093.5 1091C2093.5 1119.99 2069.99 1143.5 2041 1143.5C2012.01 1143.5 1988.5 1119.99 1988.5 1091ZM2033.94 1110.19C2035.57 1111.82 2038.26 1111.77 2039.83 1110.07L2065.62 1082.07C2067.02 1080.5 2066.9 1078.11 2065.38 1076.71C2063.87 1075.31 2061.42 1075.37 2060.02 1076.94L2036.74 1102.26L2022.74 1088.26C2021.28 1086.8 2018.83 1086.8 2017.37 1088.26C2015.92 1089.72 2015.92 1092.17 2017.37 1093.62L2033.94 1110.19Z" fill="black"/>
</g>
</g>
<g id="Medium-M">
<g id="Solid / Check Solid_14">
<path id="Shape_14" fill-rule="evenodd" clip-rule="evenodd" d="M1692.5 1091C1692.5 1062.01 1716.01 1038.5 1745 1038.5C1773.99 1038.5 1797.5 1062.01 1797.5 1091C1797.5 1119.99 1773.99 1143.5 1745 1143.5C1716.01 1143.5 1692.5 1119.99 1692.5 1091ZM1737.94 1110.19C1739.57 1111.82 1742.26 1111.77 1743.83 1110.07L1769.62 1082.07C1771.02 1080.5 1770.9 1078.11 1769.38 1076.71C1767.87 1075.31 1765.42 1075.37 1764.02 1076.94L1740.74 1102.26L1726.74 1088.26C1725.28 1086.8 1722.83 1086.8 1721.37 1088.26C1719.92 1089.72 1719.92 1092.17 1721.37 1093.62L1737.94 1110.19Z" fill="black"/>
</g>
</g>
<g id="Regular-M">
<g id="Solid / Check Solid_15">
<path id="Shape_15" fill-rule="evenodd" clip-rule="evenodd" d="M1396.5 1091C1396.5 1062.01 1420.01 1038.5 1449 1038.5C1477.99 1038.5 1501.5 1062.01 1501.5 1091C1501.5 1119.99 1477.99 1143.5 1449 1143.5C1420.01 1143.5 1396.5 1119.99 1396.5 1091ZM1441.94 1110.19C1443.57 1111.82 1446.26 1111.77 1447.83 1110.07L1473.62 1082.07C1475.02 1080.5 1474.9 1078.11 1473.38 1076.71C1471.87 1075.31 1469.42 1075.37 1468.02 1076.94L1444.74 1102.26L1430.74 1088.26C1429.28 1086.8 1426.83 1086.8 1425.37 1088.26C1423.92 1089.72 1423.92 1092.17 1425.37 1093.62L1441.94 1110.19Z" fill="black"/>
</g>
</g>
<g id="Light-M">
<g id="Solid / Check Solid_16">
<path id="Shape_16" fill-rule="evenodd" clip-rule="evenodd" d="M1100.5 1091C1100.5 1062.01 1124.01 1038.5 1153 1038.5C1181.99 1038.5 1205.5 1062.01 1205.5 1091C1205.5 1119.99 1181.99 1143.5 1153 1143.5C1124.01 1143.5 1100.5 1119.99 1100.5 1091ZM1145.94 1110.19C1147.57 1111.82 1150.26 1111.77 1151.83 1110.07L1177.62 1082.07C1179.02 1080.5 1178.9 1078.11 1177.38 1076.71C1175.87 1075.31 1173.42 1075.37 1172.02 1076.94L1148.74 1102.26L1134.74 1088.26C1133.28 1086.8 1130.83 1086.8 1129.37 1088.26C1127.92 1089.72 1127.92 1092.17 1129.37 1093.62L1145.94 1110.19Z" fill="black"/>
</g>
</g>
<g id="Thin-M">
<g id="Solid / Check Solid_17">
<path id="Shape_17" fill-rule="evenodd" clip-rule="evenodd" d="M804.5 1091C804.5 1062.01 828.005 1038.5 857 1038.5C885.995 1038.5 909.5 1062.01 909.5 1091C909.5 1119.99 885.995 1143.5 857 1143.5C828.005 1143.5 804.5 1119.99 804.5 1091ZM849.941 1110.19C851.575 1111.82 854.258 1111.77 855.833 1110.07L881.616 1082.07C883.016 1080.5 882.9 1078.11 881.383 1076.71C879.866 1075.31 877.416 1075.37 876.016 1076.94L852.741 1102.26L838.741 1088.26C837.283 1086.8 834.833 1086.8 833.375 1088.26C831.916 1089.72 831.916 1092.17 833.375 1093.62L849.941 1110.19Z" fill="black"/>
</g>
</g>
<g id="Ultralight-M">
<g id="Solid / Check Solid_18">
<path id="Shape_18" fill-rule="evenodd" clip-rule="evenodd" d="M508.5 1091C508.5 1062.01 532.005 1038.5 561 1038.5C589.995 1038.5 613.5 1062.01 613.5 1091C613.5 1119.99 589.995 1143.5 561 1143.5C532.005 1143.5 508.5 1119.99 508.5 1091ZM553.941 1110.19C555.575 1111.82 558.258 1111.77 559.833 1110.07L585.616 1082.07C587.016 1080.5 586.9 1078.11 585.383 1076.71C583.866 1075.31 581.416 1075.37 580.016 1076.94L556.741 1102.26L542.741 1088.26C541.283 1086.8 538.833 1086.8 537.375 1088.26C535.916 1089.72 535.916 1092.17 537.375 1093.62L553.941 1110.19Z" fill="black"/>
</g>
</g>
<g id="Black-S">
<g id="Solid / Check Solid_19">
<path id="Shape_19" fill-rule="evenodd" clip-rule="evenodd" d="M2891.5 661C2891.5 640.289 2908.29 623.5 2929 623.5C2949.71 623.5 2966.5 640.289 2966.5 661C2966.5 681.711 2949.71 698.5 2929 698.5C2908.29 698.5 2891.5 681.711 2891.5 661ZM2923.96 674.708C2925.12 675.875 2927.04 675.833 2928.17 674.625L2946.58 654.625C2947.58 653.5 2947.5 651.791 2946.42 650.791C2945.33 649.791 2943.58 649.833 2942.58 650.958L2925.96 669.041L2915.96 659.041C2914.92 658 2913.17 658 2912.12 659.041C2911.08 660.083 2911.08 661.833 2912.12 662.875L2923.96 674.708Z" fill="black"/>
</g>
</g>
<g id="Heavy-S">
<g id="Solid / Check Solid_20">
<path id="Shape_20" fill-rule="evenodd" clip-rule="evenodd" d="M2595.5 661C2595.5 640.289 2612.29 623.5 2633 623.5C2653.71 623.5 2670.5 640.289 2670.5 661C2670.5 681.711 2653.71 698.5 2633 698.5C2612.29 698.5 2595.5 681.711 2595.5 661ZM2627.96 674.708C2629.12 675.875 2631.04 675.833 2632.17 674.625L2650.58 654.625C2651.58 653.5 2651.5 651.791 2650.42 650.791C2649.33 649.791 2647.58 649.833 2646.58 650.958L2629.96 669.041L2619.96 659.041C2618.92 658 2617.17 658 2616.12 659.041C2615.08 660.083 2615.08 661.833 2616.12 662.875L2627.96 674.708Z" fill="black"/>
</g>
</g>
<g id="Bold-S">
<g id="Solid / Check Solid_21">
<path id="Shape_21" fill-rule="evenodd" clip-rule="evenodd" d="M2299.5 661C2299.5 640.289 2316.29 623.5 2337 623.5C2357.71 623.5 2374.5 640.289 2374.5 661C2374.5 681.711 2357.71 698.5 2337 698.5C2316.29 698.5 2299.5 681.711 2299.5 661ZM2331.96 674.708C2333.12 675.875 2335.04 675.833 2336.17 674.625L2354.58 654.625C2355.58 653.5 2355.5 651.791 2354.42 650.791C2353.33 649.791 2351.58 649.833 2350.58 650.958L2333.96 669.041L2323.96 659.041C2322.92 658 2321.17 658 2320.12 659.041C2319.08 660.083 2319.08 661.833 2320.12 662.875L2331.96 674.708Z" fill="black"/>
</g>
</g>
<g id="Semibold-S">
<g id="Solid / Check Solid_22">
<path id="Shape_22" fill-rule="evenodd" clip-rule="evenodd" d="M2003.5 661C2003.5 640.289 2020.29 623.5 2041 623.5C2061.71 623.5 2078.5 640.289 2078.5 661C2078.5 681.711 2061.71 698.5 2041 698.5C2020.29 698.5 2003.5 681.711 2003.5 661ZM2035.96 674.708C2037.12 675.875 2039.04 675.833 2040.17 674.625L2058.58 654.625C2059.58 653.5 2059.5 651.791 2058.42 650.791C2057.33 649.791 2055.58 649.833 2054.58 650.958L2037.96 669.041L2027.96 659.041C2026.92 658 2025.17 658 2024.12 659.041C2023.08 660.083 2023.08 661.833 2024.12 662.875L2035.96 674.708Z" fill="black"/>
</g>
</g>
<g id="Medium-S">
<g id="Solid / Check Solid_23">
<path id="Shape_23" fill-rule="evenodd" clip-rule="evenodd" d="M1707.5 661C1707.5 640.289 1724.29 623.5 1745 623.5C1765.71 623.5 1782.5 640.289 1782.5 661C1782.5 681.711 1765.71 698.5 1745 698.5C1724.29 698.5 1707.5 681.711 1707.5 661ZM1739.96 674.708C1741.12 675.875 1743.04 675.833 1744.17 674.625L1762.58 654.625C1763.58 653.5 1763.5 651.791 1762.42 650.791C1761.33 649.791 1759.58 649.833 1758.58 650.958L1741.96 669.041L1731.96 659.041C1730.92 658 1729.17 658 1728.12 659.041C1727.08 660.083 1727.08 661.833 1728.12 662.875L1739.96 674.708Z" fill="black"/>
</g>
</g>
<g id="Regular-S">
<g id="Solid / Check Solid_24">
<path id="Shape_24" fill-rule="evenodd" clip-rule="evenodd" d="M1411.5 661C1411.5 640.289 1428.29 623.5 1449 623.5C1469.71 623.5 1486.5 640.289 1486.5 661C1486.5 681.711 1469.71 698.5 1449 698.5C1428.29 698.5 1411.5 681.711 1411.5 661ZM1443.96 674.708C1445.12 675.875 1447.04 675.833 1448.17 674.625L1466.58 654.625C1467.58 653.5 1467.5 651.791 1466.42 650.791C1465.33 649.791 1463.58 649.833 1462.58 650.958L1445.96 669.041L1435.96 659.041C1434.92 658 1433.17 658 1432.12 659.041C1431.08 660.083 1431.08 661.833 1432.12 662.875L1443.96 674.708Z" fill="black"/>
</g>
</g>
<g id="Light-S">
<g id="Solid / Check Solid_25">
<path id="Shape_25" fill-rule="evenodd" clip-rule="evenodd" d="M1115.5 661C1115.5 640.289 1132.29 623.5 1153 623.5C1173.71 623.5 1190.5 640.289 1190.5 661C1190.5 681.711 1173.71 698.5 1153 698.5C1132.29 698.5 1115.5 681.711 1115.5 661ZM1147.96 674.708C1149.12 675.875 1151.04 675.833 1152.17 674.625L1170.58 654.625C1171.58 653.5 1171.5 651.791 1170.42 650.791C1169.33 649.791 1167.58 649.833 1166.58 650.958L1149.96 669.041L1139.96 659.041C1138.92 658 1137.17 658 1136.12 659.041C1135.08 660.083 1135.08 661.833 1136.12 662.875L1147.96 674.708Z" fill="black"/>
</g>
</g>
<g id="Thin-S">
<g id="Solid / Check Solid_26">
<path id="Shape_26" fill-rule="evenodd" clip-rule="evenodd" d="M819.5 661C819.5 640.289 836.289 623.5 857 623.5C877.711 623.5 894.5 640.289 894.5 661C894.5 681.711 877.711 698.5 857 698.5C836.289 698.5 819.5 681.711 819.5 661ZM851.958 674.708C853.125 675.875 855.041 675.833 856.166 674.625L874.583 654.625C875.583 653.5 875.5 651.791 874.416 650.791C873.333 649.791 871.583 649.833 870.583 650.958L853.958 669.041L843.958 659.041C842.916 658 841.166 658 840.125 659.041C839.083 660.083 839.083 661.833 840.125 662.875L851.958 674.708Z" fill="black"/>
</g>
</g>
<g id="Ultralight-S">
<g id="Solid / Check Solid_27">
<path id="Shape_27" fill-rule="evenodd" clip-rule="evenodd" d="M523.5 661C523.5 640.289 540.289 623.5 561 623.5C581.711 623.5 598.5 640.289 598.5 661C598.5 681.711 581.711 698.5 561 698.5C540.289 698.5 523.5 681.711 523.5 661ZM555.958 674.708C557.125 675.875 559.041 675.833 560.166 674.625L578.583 654.625C579.583 653.5 579.5 651.791 578.416 650.791C577.333 649.791 575.583 649.833 574.583 650.958L557.958 669.041L547.958 659.041C546.916 658 545.166 658 544.125 659.041C543.083 660.083 543.083 661.833 544.125 662.875L555.958 674.708Z" fill="black"/>
</g>
</g>
</g>
</g>
<defs>
<clipPath id="clip0_0_1">
<rect width="3300" height="2200" fill="white"/>
</clipPath>
</defs>
</svg>
