<svg xmlns="http://www.w3.org/2000/svg" width="3300" height="2200" fill="none"><path fill="#E5E5E5" d="M0 0h3300v2200H0z"/><g id="Category / Outline / Car" clip-path="url(#clip0_0_1)"><g id="Notes"><path id="artboard" fill="#fff" d="M3300 0H0v2200h3300V0Z"/><path id="Vector" stroke="#000" stroke-width=".5" d="M263 292h2773"/><text xml:space="preserve" id="Weight/Scale Variations" fill="#000" font-family="Roboto" font-size="12" letter-spacing="0em" style="white-space:pre"><tspan x="263" y="321.102">Weight/Scale Variations</tspan></text><text xml:space="preserve" id="Ultralight" fill="#000" font-family="Roboto" font-size="12" letter-spacing="0em" style="white-space:pre"><tspan x="535.211" y="321.102">Ultralight</tspan></text><text xml:space="preserve" id="Thin" fill="#000" font-family="Roboto" font-size="12" letter-spacing="0em" style="white-space:pre"><tspan x="844.422" y="321.102">Thin</tspan></text><text xml:space="preserve" id="Light" fill="#000" font-family="Roboto" font-size="12" letter-spacing="0em" style="white-space:pre"><tspan x="1139.63" y="321.102">Light</tspan></text><text xml:space="preserve" id="Regular" fill="#000" font-family="Roboto" font-size="12" letter-spacing="0em" style="white-space:pre"><tspan x="1429.34" y="321.102">Regular</tspan></text><text xml:space="preserve" id="Medium" fill="#000" font-family="Roboto" font-size="12" letter-spacing="0em" style="white-space:pre"><tspan x="1724.56" y="321.102">Medium</tspan></text><text xml:space="preserve" id="Semibold" fill="#000" font-family="Roboto" font-size="12" letter-spacing="0em" style="white-space:pre"><tspan x="2017.77" y="321.102">Semibold</tspan></text><text xml:space="preserve" id="Bold" fill="#000" font-family="Roboto" font-size="12" letter-spacing="0em" style="white-space:pre"><tspan x="2327.48" y="321.102">Bold</tspan></text><text xml:space="preserve" id="Heavy" fill="#000" font-family="Roboto" font-size="12" letter-spacing="0em" style="white-space:pre"><tspan x="2620.19" y="321.102">Heavy</tspan></text><text xml:space="preserve" id="Black" fill="#000" font-family="Roboto" font-size="12" letter-spacing="0em" style="white-space:pre"><tspan x="2918.4" y="321.102">Black</tspan></text><path id="Vector_2" stroke="#000" stroke-width=".5" d="M263 1903h2773"/><g id="Group"><path id="Vector_3" fill="#000" d="M272.248 1933.83c4.307 0 7.891-3.57 7.891-7.88 0-4.31-3.594-7.88-7.901-7.88-4.297 0-7.871 3.57-7.871 7.88 0 4.31 3.584 7.88 7.881 7.88Zm0-1.48c-3.545 0-6.377-2.84-6.377-6.4 0-3.55 2.822-6.4 6.367-6.4a6.388 6.388 0 0 1 6.406 6.4 6.361 6.361 0 0 1-6.396 6.4Zm-.019-2.78c.468 0 .742-.31.742-.83v-2.06h2.226c.498 0 .84-.25.84-.72 0-.48-.322-.74-.84-.74h-2.226v-2.23c0-.52-.274-.84-.742-.84-.469 0-.723.34-.723.84v2.23h-2.207c-.518 0-.85.26-.85.74 0 .47.352.72.85.72h2.207v2.06c0 .5.254.83.723.83Z"/></g><g id="Group_2"><path id="Vector_4" fill="#000" d="M293.215 1935.91c5.449 0 9.961-4.51 9.961-9.96 0-5.44-4.522-9.96-9.971-9.96-5.439 0-9.951 4.52-9.951 9.96 0 5.45 4.521 9.96 9.961 9.96Zm0-1.66a8.26 8.26 0 0 1-8.291-8.3c0-4.6 3.672-8.3 8.281-8.3a8.29 8.29 0 0 1 8.311 8.3 8.263 8.263 0 0 1-8.301 8.3Zm-.02-3.66c.518 0 .83-.36.83-.93v-2.89h3.057c.547 0 .928-.28.928-.8 0-.53-.362-.83-.928-.83h-3.057v-3.07c0-.57-.312-.93-.83-.93-.517 0-.81.38-.81.93v3.07h-3.047c-.567 0-.938.3-.938.83 0 .52.391.8.938.8h3.047v2.89c0 .55.293.93.81.93Z"/></g><g id="Group_3"><path id="Vector_5" fill="#000" d="M319.895 1938.67c6.962 0 12.724-5.75 12.724-12.71 0-6.97-5.771-12.72-12.734-12.72-6.953 0-12.705 5.75-12.705 12.72 0 6.96 5.761 12.71 12.715 12.71Zm0-1.81a10.874 10.874 0 0 1-10.889-10.9c0-6.04 4.844-10.9 10.879-10.9 6.045 0 10.898 4.86 10.908 10.9a10.87 10.87 0 0 1-10.898 10.9Zm-.02-4.93c.566 0 .918-.39.918-.99v-4.07h4.238c.586 0 1.006-.34 1.006-.89 0-.58-.39-.92-1.006-.92h-4.238v-4.25c0-.61-.352-1.01-.918-1.01-.566 0-.889.41-.889 1.01v4.25h-4.228c-.615 0-1.026.34-1.026.92 0 .55.43.89 1.026.89h4.228v4.07c0 .58.323.99.889.99Z"/></g><text xml:space="preserve" id="Design Variations" fill="#000" font-family="Roboto" font-size="12" letter-spacing="0em" style="white-space:pre"><tspan x="263" y="1952.1">Design Variations</tspan></text><text xml:space="preserve" id="Symbols are supported in up to nine weights and three scales." fill="#000" font-family="Roboto" font-size="12" letter-spacing="0em" style="white-space:pre"><tspan x="263" y="1970.1">Symbols are supported in up to nine weights and three scales.</tspan></text><text xml:space="preserve" id="For optimal layout with text and other symbols, vertically align" fill="#000" font-family="Roboto" font-size="12" letter-spacing="0em" style="white-space:pre"><tspan x="263" y="1988.1">For optimal layout with text and other symbols, vertically align</tspan></text><text xml:space="preserve" id="symbols with the adjacent text." fill="#000" font-family="Roboto" font-size="12" letter-spacing="0em" style="white-space:pre"><tspan x="263" y="2006.1">symbols with the adjacent text.</tspan></text><path id="Vector_6" fill="#00AEEF" d="M779 1919h-3v14h3v-14Z" opacity=".4"/><g id="Group_4"><path id="Vector_7" fill="#000" d="M789.527 1933h1.846l-5.195-14.09h-1.739l-5.195 14.09h1.846l1.416-4.04h5.605l1.416 4.04Zm-4.248-11.96h.059l2.256 6.43h-4.571l2.256-6.43Z"/></g><path id="Vector_8" fill="#00AEEF" d="M794.617 1919h-3v14h3v-14Z" opacity=".4"/><text xml:space="preserve" id="Margins" fill="#000" font-family="Roboto" font-size="12" letter-spacing="0em" style="white-space:pre"><tspan x="776" y="1952.1">Margins</tspan></text><text xml:space="preserve" id="Leading and trailing margins on the left and right side of each symbol" fill="#000" font-family="Roboto" font-size="12" letter-spacing="0em" style="white-space:pre"><tspan x="776" y="1970.1">Leading and trailing margins on the left and right side of each symbol</tspan></text><text xml:space="preserve" id="can be adjusted by modifying the width of the blue rectangles." fill="#000" font-family="Roboto" font-size="12" letter-spacing="0em" style="white-space:pre"><tspan x="776" y="1988.1">can be adjusted by modifying the width of the blue rectangles.</tspan></text><text xml:space="preserve" id="Modifications are automatically applied proportionally to all" fill="#000" font-family="Roboto" font-size="12" letter-spacing="0em" style="white-space:pre"><tspan x="776" y="2006.1">Modifications are automatically applied proportionally to all</tspan></text><text xml:space="preserve" id="scales and weights." fill="#000" font-family="Roboto" font-size="12" letter-spacing="0em" style="white-space:pre"><tspan x="776" y="2024.1">scales and weights.</tspan></text><g id="Group_5"><path id="Vector_9" fill="#000" d="m1291.83 1936.11 1.54 1.55c.85.83 1.82.76 2.69-.2l10.21-11.12c.43.29.83.28 1.29.18l1.05-.21.69.69-.05.52c-.06.53.1.95.6 1.45l.81.81c.51.5 1.16.53 1.64.05l3.25-3.25c.48-.48.46-1.13-.05-1.64l-.82-.82c-.49-.5-.91-.67-1.44-.59l-.53.05-.65-.66.28-1.14c.15-.57 0-1.04-.63-1.64l-2.41-2.39c-3.54-3.53-8.07-3.42-11.19-.29-.42.43-.47 1.02-.19 1.45.23.37.71.59 1.35.43 1.52-.38 3.03-.27 4.51.74l-.62 1.58c-.23.59-.22 1.07.02 1.5l-11.16 10.28c-.94.87-1.05 1.81-.19 2.67Zm7.84-18.26c2.67-1.99 5.98-1.68 8.38.73l2.63 2.61c.23.24.26.42.2.72l-.38 1.56 1.58 1.57.96-.09c.29-.03.37-.01.6.22l.62.62-2.75 2.75-.63-.62c-.22-.22-.24-.32-.21-.6l.09-.96-1.57-1.56-1.62.31c-.28.06-.43.06-.66-.19l-2.18-2.17c-.22-.24-.25-.38-.12-.7l.94-2.27c-1.6-1.54-3.71-2.39-5.75-1.73-.09.03-.16.01-.19-.03-.02-.05-.02-.1.06-.17Zm-6.57 17.56c-.49-.5-.31-.8.02-1.1l10.96-10.12 1.23 1.23-10.16 10.93c-.3.33-.68.43-1.08.03l-.97-.97Z"/></g><text xml:space="preserve" id="Exporting" fill="#000" font-family="Roboto" font-size="12" letter-spacing="0em" style="white-space:pre"><tspan x="1289" y="1952.1">Exporting</tspan></text><text xml:space="preserve" id="Symbols should be outlined when exporting to ensure the" fill="#000" font-family="Roboto" font-size="12" letter-spacing="0em" style="white-space:pre"><tspan x="1289" y="1970.1">Symbols should be outlined when exporting to ensure the</tspan></text><text xml:space="preserve" id="design is preserved when submitting to Xcode." fill="#000" font-family="Roboto" font-size="12" letter-spacing="0em" style="white-space:pre"><tspan x="1289" y="1988.1">design is preserved when submitting to Xcode.</tspan></text><text xml:space="preserve" id="template-version" fill="#000" font-family="Roboto" font-size="12" letter-spacing="0em" style="white-space:pre"><tspan x="2958" y="1932.1">Template v.1.0</tspan></text><text xml:space="preserve" id="Generated from pencil.circle" fill="#000" font-family="Roboto" font-size="12" letter-spacing="0em" style="white-space:pre"><tspan x="2885" y="1950.1">Generated from pencil.circle</tspan></text><text xml:space="preserve" id="Typeset at 100 points" fill="#000" font-family="Roboto" font-size="12" letter-spacing="0em" style="white-space:pre"><tspan x="2921" y="1968.1">Typeset at 100 points</tspan></text><text xml:space="preserve" id="Small" fill="#000" font-family="Roboto" font-size="12" letter-spacing="0em" style="white-space:pre"><tspan x="263" y="725.102">Small</tspan></text><text xml:space="preserve" id="Medium_2" fill="#000" font-family="Roboto" font-size="12" letter-spacing="0em" style="white-space:pre"><tspan x="263" y="1155.1">Medium</tspan></text><text xml:space="preserve" id="Large" fill="#000" font-family="Roboto" font-size="12" letter-spacing="0em" style="white-space:pre"><tspan x="263" y="1585.1">Large</tspan></text></g><g id="Guides"><g id="H-reference"><path id="Vector_10" fill="#27AAE1" d="M393.932 695.998h2.734l-27.1-70.459h-2.49l-27.099 70.459h2.685l9.278-24.463h32.763l9.229 24.463Zm-25.733-67.09h.244l15.381 40.381h-31.006l15.381-40.381Z"/></g><path id="Baseline-S" stroke="#27AAE1" stroke-width=".577" d="M263 696h2773"/><path id="Capline-S" stroke="#27AAE1" stroke-width=".577" d="M263 626h2773"/><g id="H-reference_2"><path id="Vector_11" fill="#27AAE1" d="M393.932 1126h2.734l-27.1-70.46h-2.49L339.977 1126h2.685l9.278-24.46h32.763l9.229 24.46Zm-25.733-67.09h.244l15.381 40.38h-31.006l15.381-40.38Z"/></g><path id="Baseline-M" stroke="#27AAE1" stroke-width=".577" d="M263 1126h2773"/><path id="Capline-M" stroke="#27AAE1" stroke-width=".577" d="M263 1056h2773"/><g id="H-reference_3"><path id="Vector_12" fill="#27AAE1" d="M393.932 1556h2.734l-27.1-70.46h-2.49L339.977 1556h2.685l9.278-24.46h32.763l9.229 24.46Zm-25.733-67.09h.244l15.381 40.38h-31.006l15.381-40.38Z"/></g><g id="Group 1" stroke="#27AAE1" stroke-width=".577"><path id="Baseline-L" d="M263 1556h2773"/><path id="Capline-L" d="M263 1486h2773"/></g><path id="left-margin" fill="#00AEEF" d="M1390.04 1030.79h-8.74v119.33h8.74v-119.33Z" opacity=".4"/><path id="right-margin" fill="#00AEEF" d="M1516.39 1030.79h-8.74v119.33h8.74v-119.33Z" opacity=".4"/></g><g id="Symbols"><g id="Black-L"><g id="Outline / Car Outline"><path id="Shape" fill="#000" fill-rule="evenodd" d="M2962.11 1461c8.42 0 16.14 4.7 20 12.19l15.57 30.2c3.91 4.05 6.32 9.56 6.32 15.64v51.54c0 8.28-6.72 15-15 15h-7.38c-8.29 0-15-6.72-15-15V1566h-75.24v4.57c0 8.28-6.71 15-15 15H2869c-8.28 0-15-6.72-15-15v-51.54c0-6.08 2.41-11.59 6.32-15.64l15.57-30.2a22.498 22.498 0 0 1 20-12.19h66.22Zm-66.22 9.75h66.22c4.77 0 9.14 2.66 11.33 6.91l9.59 18.59h-108.06l9.59-18.59a12.74 12.74 0 0 1 11.33-6.91Zm80.48 95.25h17.88v4.57c0 2.9-2.35 5.25-5.25 5.25h-7.38a5.25 5.25 0 0 1-5.25-5.25V1566Zm-112.62 0h17.88v4.57c0 2.9-2.35 5.25-5.25 5.25H2869a5.25 5.25 0 0 1-5.25-5.25V1566Zm12.75-59.72h105c6.17 0 11.31 4.37 12.49 10.19h-15.52c-2.69 0-4.88 2.18-4.88 4.87 0 2.7 2.19 4.88 4.88 4.88h15.78v30.03h-19.68c-.06-.18-.12-.35-.19-.53l-9.99-25.08a22.493 22.493 0 0 0-20.9-14.17h-28.98c-9.21 0-17.49 5.61-20.9 14.17l-9.99 25.08c-.07.18-.13.35-.19.53h-19.68v-30.03h15.78a4.88 4.88 0 0 0 4.88-4.88c0-2.69-2.19-4.87-4.88-4.87h-15.52a12.737 12.737 0 0 1 12.49-10.19Zm17.41 49.97h70.18l-8.76-22a12.74 12.74 0 0 0-11.84-8.03h-28.98c-5.22 0-9.91 3.18-11.84 8.03l-8.76 22Z" clip-rule="evenodd"/></g></g><g id="Heavy-L"><g id="Outline / Car Outline_2"><path id="Shape_2" fill="#000" fill-rule="evenodd" d="M2666.11 1461c8.42 0 16.14 4.7 20 12.19l15.57 30.2c3.91 4.05 6.32 9.56 6.32 15.64v51.54c0 8.28-6.72 15-15 15h-7.38c-8.29 0-15-6.72-15-15V1566h-75.24v4.57c0 8.28-6.71 15-15 15H2573c-8.28 0-15-6.72-15-15v-51.54c0-6.08 2.41-11.59 6.32-15.64l15.57-30.2a22.498 22.498 0 0 1 20-12.19h66.22Zm-66.22 9.75h66.22c4.77 0 9.14 2.66 11.33 6.91l9.59 18.59h-108.06l9.59-18.59a12.74 12.74 0 0 1 11.33-6.91Zm80.48 95.25h17.88v4.57c0 2.9-2.35 5.25-5.25 5.25h-7.38a5.25 5.25 0 0 1-5.25-5.25V1566Zm-112.62 0h17.88v4.57c0 2.9-2.35 5.25-5.25 5.25H2573a5.25 5.25 0 0 1-5.25-5.25V1566Zm12.75-59.72h105c6.17 0 11.31 4.37 12.49 10.19h-15.52c-2.69 0-4.88 2.18-4.88 4.87 0 2.7 2.19 4.88 4.88 4.88h15.78v30.03h-19.68c-.06-.18-.12-.35-.19-.53l-9.99-25.08a22.493 22.493 0 0 0-20.9-14.17h-28.98c-9.21 0-17.49 5.61-20.9 14.17l-9.99 25.08c-.07.18-.13.35-.19.53h-19.68v-30.03h15.78a4.88 4.88 0 0 0 4.88-4.88c0-2.69-2.19-4.87-4.88-4.87h-15.52a12.737 12.737 0 0 1 12.49-10.19Zm17.41 49.97h70.18l-8.76-22a12.74 12.74 0 0 0-11.84-8.03h-28.98c-5.22 0-9.91 3.18-11.84 8.03l-8.76 22Z" clip-rule="evenodd"/></g></g><g id="Bold-L"><g id="Outline / Car Outline_3"><path id="Shape_3" fill="#000" fill-rule="evenodd" d="M2370.11 1461c8.42 0 16.14 4.7 20 12.19l15.57 30.2c3.91 4.05 6.32 9.56 6.32 15.64v51.54c0 8.28-6.72 15-15 15h-7.38c-8.29 0-15-6.72-15-15V1566h-75.24v4.57c0 8.28-6.71 15-15 15H2277c-8.28 0-15-6.72-15-15v-51.54c0-6.08 2.41-11.59 6.32-15.64l15.57-30.2a22.498 22.498 0 0 1 20-12.19h66.22Zm-66.22 9.75h66.22c4.77 0 9.14 2.66 11.33 6.91l9.59 18.59h-108.06l9.59-18.59a12.74 12.74 0 0 1 11.33-6.91Zm80.48 95.25h17.88v4.57c0 2.9-2.35 5.25-5.25 5.25h-7.38a5.25 5.25 0 0 1-5.25-5.25V1566Zm-112.62 0h17.88v4.57c0 2.9-2.35 5.25-5.25 5.25H2277a5.25 5.25 0 0 1-5.25-5.25V1566Zm12.75-59.72h105c6.17 0 11.31 4.37 12.49 10.19h-15.52c-2.69 0-4.88 2.18-4.88 4.87 0 2.7 2.19 4.88 4.88 4.88h15.78v30.03h-19.68c-.06-.18-.12-.35-.19-.53l-9.99-25.08a22.493 22.493 0 0 0-20.9-14.17h-28.98c-9.21 0-17.49 5.61-20.9 14.17l-9.99 25.08c-.07.18-.13.35-.19.53h-19.68v-30.03h15.78a4.88 4.88 0 0 0 4.88-4.88c0-2.69-2.19-4.87-4.88-4.87h-15.52a12.737 12.737 0 0 1 12.49-10.19Zm17.41 49.97h70.18l-8.76-22a12.74 12.74 0 0 0-11.84-8.03h-28.98c-5.22 0-9.91 3.18-11.84 8.03l-8.76 22Z" clip-rule="evenodd"/></g></g><g id="Semibold-L"><g id="Outline / Car Outline_4"><path id="Shape_4" fill="#000" fill-rule="evenodd" d="M2074.11 1461c8.42 0 16.14 4.7 20 12.19l15.57 30.2c3.91 4.05 6.32 9.56 6.32 15.64v51.54c0 8.28-6.72 15-15 15h-7.38c-8.29 0-15-6.72-15-15V1566h-75.24v4.57c0 8.28-6.71 15-15 15H1981c-8.28 0-15-6.72-15-15v-51.54c0-6.08 2.41-11.59 6.32-15.64l15.57-30.2a22.498 22.498 0 0 1 20-12.19h66.22Zm-66.22 9.75h66.22c4.77 0 9.14 2.66 11.33 6.91l9.59 18.59h-108.06l9.59-18.59a12.74 12.74 0 0 1 11.33-6.91Zm80.48 95.25h17.88v4.57c0 2.9-2.35 5.25-5.25 5.25h-7.38a5.25 5.25 0 0 1-5.25-5.25V1566Zm-112.62 0h17.88v4.57c0 2.9-2.35 5.25-5.25 5.25H1981a5.25 5.25 0 0 1-5.25-5.25V1566Zm12.75-59.72h105c6.17 0 11.31 4.37 12.49 10.19h-15.52c-2.69 0-4.88 2.18-4.88 4.87 0 2.7 2.19 4.88 4.88 4.88h15.78v30.03h-19.68c-.06-.18-.12-.35-.19-.53l-9.99-25.08a22.493 22.493 0 0 0-20.9-14.17h-28.98c-9.21 0-17.49 5.61-20.9 14.17l-9.99 25.08c-.07.18-.13.35-.19.53h-19.68v-30.03h15.78a4.88 4.88 0 0 0 4.88-4.88c0-2.69-2.19-4.87-4.88-4.87h-15.52a12.737 12.737 0 0 1 12.49-10.19Zm17.41 49.97h70.18l-8.76-22a12.74 12.74 0 0 0-11.84-8.03h-28.98c-5.22 0-9.91 3.18-11.84 8.03l-8.76 22Z" clip-rule="evenodd"/></g></g><g id="Medium-L"><g id="Outline / Car Outline_5"><path id="Shape_5" fill="#000" fill-rule="evenodd" d="M1778.11 1461c8.42 0 16.14 4.7 20 12.19l15.57 30.2c3.91 4.05 6.32 9.56 6.32 15.64v51.54c0 8.28-6.72 15-15 15h-7.38c-8.29 0-15-6.72-15-15V1566h-75.24v4.57c0 8.28-6.71 15-15 15H1685c-8.28 0-15-6.72-15-15v-51.54c0-6.08 2.41-11.59 6.32-15.64l15.57-30.2a22.498 22.498 0 0 1 20-12.19h66.22Zm-66.22 9.75h66.22c4.77 0 9.14 2.66 11.33 6.91l9.59 18.59h-108.06l9.59-18.59a12.74 12.74 0 0 1 11.33-6.91Zm80.48 95.25h17.88v4.57c0 2.9-2.35 5.25-5.25 5.25h-7.38a5.25 5.25 0 0 1-5.25-5.25V1566Zm-112.62 0h17.88v4.57c0 2.9-2.35 5.25-5.25 5.25H1685a5.25 5.25 0 0 1-5.25-5.25V1566Zm12.75-59.72h105c6.17 0 11.31 4.37 12.49 10.19h-15.52c-2.69 0-4.88 2.18-4.88 4.87 0 2.7 2.19 4.88 4.88 4.88h15.78v30.03h-19.68c-.06-.18-.12-.35-.19-.53l-9.99-25.08a22.493 22.493 0 0 0-20.9-14.17h-28.98c-9.21 0-17.49 5.61-20.9 14.17l-9.99 25.08c-.07.18-.13.35-.19.53h-19.68v-30.03h15.78a4.88 4.88 0 0 0 4.88-4.88c0-2.69-2.19-4.87-4.88-4.87h-15.52a12.737 12.737 0 0 1 12.49-10.19Zm17.41 49.97h70.18l-8.76-22a12.74 12.74 0 0 0-11.84-8.03h-28.98c-5.22 0-9.91 3.18-11.84 8.03l-8.76 22Z" clip-rule="evenodd"/></g></g><g id="Regular-L"><g id="Outline / Car Outline_6"><path id="Shape_6" fill="#000" fill-rule="evenodd" d="M1482.11 1461c8.42 0 16.14 4.7 20 12.19l15.57 30.2c3.91 4.05 6.32 9.56 6.32 15.64v51.54c0 8.28-6.72 15-15 15h-7.38c-8.29 0-15-6.72-15-15V1566h-75.24v4.57c0 8.28-6.71 15-15 15H1389c-8.28 0-15-6.72-15-15v-51.54c0-6.08 2.41-11.59 6.32-15.64l15.57-30.2a22.498 22.498 0 0 1 20-12.19h66.22Zm-66.22 9.75h66.22c4.77 0 9.14 2.66 11.33 6.91l9.59 18.59h-108.06l9.59-18.59a12.74 12.74 0 0 1 11.33-6.91Zm80.48 95.25h17.88v4.57c0 2.9-2.35 5.25-5.25 5.25h-7.38a5.25 5.25 0 0 1-5.25-5.25V1566Zm-112.62 0h17.88v4.57c0 2.9-2.35 5.25-5.25 5.25H1389a5.25 5.25 0 0 1-5.25-5.25V1566Zm12.75-59.72h105c6.17 0 11.31 4.37 12.49 10.19h-15.52c-2.69 0-4.88 2.18-4.88 4.87 0 2.7 2.19 4.88 4.88 4.88h15.78v30.03h-19.68c-.06-.18-.12-.35-.19-.53l-9.99-25.08a22.493 22.493 0 0 0-20.9-14.17h-28.98c-9.21 0-17.49 5.61-20.9 14.17l-9.99 25.08c-.07.18-.13.35-.19.53h-19.68v-30.03h15.78a4.88 4.88 0 0 0 4.88-4.88c0-2.69-2.19-4.87-4.88-4.87h-15.52a12.737 12.737 0 0 1 12.49-10.19Zm17.41 49.97h70.18l-8.76-22a12.74 12.74 0 0 0-11.84-8.03h-28.98c-5.22 0-9.91 3.18-11.84 8.03l-8.76 22Z" clip-rule="evenodd"/></g></g><g id="Light-L"><g id="Outline / Car Outline_7"><path id="Shape_7" fill="#000" fill-rule="evenodd" d="M1186.11 1461c8.42 0 16.14 4.7 20 12.19l15.57 30.2c3.91 4.05 6.32 9.56 6.32 15.64v51.54c0 8.28-6.72 15-15 15h-7.38c-8.29 0-15-6.72-15-15V1566h-75.24v4.57c0 8.28-6.71 15-15 15H1093c-8.28 0-15-6.72-15-15v-51.54c0-6.08 2.41-11.59 6.32-15.64l15.57-30.2a22.498 22.498 0 0 1 20-12.19h66.22Zm-66.22 9.75h66.22c4.77 0 9.14 2.66 11.33 6.91l9.59 18.59h-108.06l9.59-18.59a12.74 12.74 0 0 1 11.33-6.91Zm80.48 95.25h17.88v4.57c0 2.9-2.35 5.25-5.25 5.25h-7.38a5.25 5.25 0 0 1-5.25-5.25V1566Zm-112.62 0h17.88v4.57c0 2.9-2.35 5.25-5.25 5.25H1093a5.25 5.25 0 0 1-5.25-5.25V1566Zm12.75-59.72h105c6.17 0 11.31 4.37 12.49 10.19h-15.52c-2.69 0-4.88 2.18-4.88 4.87 0 2.7 2.19 4.88 4.88 4.88h15.78v30.03h-19.68c-.06-.18-.12-.35-.19-.53l-9.99-25.08a22.493 22.493 0 0 0-20.9-14.17h-28.98c-9.21 0-17.49 5.61-20.9 14.17l-9.99 25.08c-.07.18-.13.35-.19.53h-19.68v-30.03h15.78a4.88 4.88 0 0 0 4.88-4.88c0-2.69-2.19-4.87-4.88-4.87h-15.52a12.737 12.737 0 0 1 12.49-10.19Zm17.41 49.97h70.18l-8.76-22a12.74 12.74 0 0 0-11.84-8.03h-28.98c-5.22 0-9.91 3.18-11.84 8.03l-8.76 22Z" clip-rule="evenodd"/></g></g><g id="Thin-L"><g id="Outline / Car Outline_8"><path id="Shape_8" fill="#000" fill-rule="evenodd" d="M890.108 1461c8.422 0 16.138 4.7 19.998 12.19l15.576 30.2a22.436 22.436 0 0 1 6.318 15.64v51.54c0 8.28-6.716 15-15 15h-7.383c-8.284 0-15-6.72-15-15V1566h-75.234v4.57c0 8.28-6.716 15-15 15H797c-8.284 0-15-6.72-15-15v-51.54c0-6.08 2.407-11.59 6.318-15.64l15.576-30.2a22.493 22.493 0 0 1 19.998-12.19h66.216Zm-66.216 9.75h66.216c4.772 0 9.145 2.66 11.332 6.91l9.589 18.59H802.971l9.589-18.59a12.737 12.737 0 0 1 11.332-6.91Zm80.475 95.25h17.883v4.57a5.25 5.25 0 0 1-5.25 5.25h-7.383a5.25 5.25 0 0 1-5.25-5.25V1566Zm-112.617 0h17.883v4.57a5.25 5.25 0 0 1-5.25 5.25H797a5.25 5.25 0 0 1-5.25-5.25V1566Zm12.75-59.72h105c6.166 0 11.311 4.37 12.494 10.19H906.47a4.872 4.872 0 0 0-4.875 4.87c0 2.7 2.182 4.88 4.875 4.88h15.78v30.03h-19.684a7.991 7.991 0 0 0-.188-.53l-9.989-25.08a22.495 22.495 0 0 0-20.904-14.17h-28.97a22.495 22.495 0 0 0-20.904 14.17l-9.989 25.08c-.07.18-.132.35-.188.53H791.75v-30.03h15.78a4.874 4.874 0 0 0 4.875-4.88c0-2.69-2.182-4.87-4.875-4.87h-15.524c1.183-5.82 6.327-10.19 12.494-10.19Zm17.408 49.97h70.184l-8.761-22a12.749 12.749 0 0 0-11.846-8.03h-28.97c-5.221 0-9.914 3.18-11.846 8.03l-8.761 22Z" clip-rule="evenodd"/></g></g><g id="Ultralight-L"><g id="Outline / Car Outline_9"><path id="Shape_9" fill="#000" fill-rule="evenodd" d="M594.108 1461c8.422 0 16.138 4.7 19.998 12.19l15.576 30.2a22.436 22.436 0 0 1 6.318 15.64v51.54c0 8.28-6.716 15-15 15h-7.383c-8.284 0-15-6.72-15-15V1566h-75.234v4.57c0 8.28-6.716 15-15 15H501c-8.284 0-15-6.72-15-15v-51.54c0-6.08 2.407-11.59 6.318-15.64l15.576-30.2a22.493 22.493 0 0 1 19.998-12.19h66.216Zm-66.216 9.75h66.216c4.772 0 9.145 2.66 11.332 6.91l9.589 18.59H506.971l9.589-18.59a12.737 12.737 0 0 1 11.332-6.91Zm80.475 95.25h17.883v4.57a5.25 5.25 0 0 1-5.25 5.25h-7.383a5.25 5.25 0 0 1-5.25-5.25V1566Zm-112.617 0h17.883v4.57a5.25 5.25 0 0 1-5.25 5.25H501a5.25 5.25 0 0 1-5.25-5.25V1566Zm12.75-59.72h105c6.166 0 11.311 4.37 12.494 10.19H610.47a4.872 4.872 0 0 0-4.875 4.87c0 2.7 2.182 4.88 4.875 4.88h15.78v30.03h-19.684a7.991 7.991 0 0 0-.188-.53l-9.989-25.08a22.495 22.495 0 0 0-20.904-14.17h-28.97a22.495 22.495 0 0 0-20.904 14.17l-9.989 25.08c-.07.18-.132.35-.188.53H495.75v-30.03h15.78a4.874 4.874 0 0 0 4.875-4.88c0-2.69-2.182-4.87-4.875-4.87h-15.524c1.183-5.82 6.327-10.19 12.494-10.19Zm17.408 49.97h70.184l-8.761-22a12.749 12.749 0 0 0-11.846-8.03h-28.97c-5.221 0-9.914 3.18-11.846 8.03l-8.761 22Z" clip-rule="evenodd"/></g></g><g id="Black-M"><g id="Outline / Car Outline_10"><path id="Shape_10" fill="#000" fill-rule="evenodd" d="M2954.75 1044.33c6.55 0 12.55 3.66 15.55 9.48l12.12 23.49a17.46 17.46 0 0 1 4.91 12.16v40.09c0 6.45-5.22 11.67-11.66 11.67h-5.75c-6.44 0-11.66-5.22-11.66-11.67V1126h-58.52v3.55c0 6.45-5.22 11.67-11.66 11.67h-5.75c-6.44 0-11.66-5.22-11.66-11.67v-40.09c0-4.72 1.87-9.01 4.91-12.16l12.12-23.49c3-5.82 9-9.48 15.55-9.48h51.5Zm-51.5 7.59h51.5c3.71 0 7.11 2.07 8.82 5.37l7.45 14.46h-84.04l7.46-14.46c1.7-3.3 5.1-5.37 8.81-5.37Zm62.59 74.08h13.91v3.55c0 2.26-1.83 4.09-4.08 4.09h-5.75c-2.25 0-4.08-1.83-4.08-4.09V1126Zm-87.59 0h13.91v3.55c0 2.26-1.83 4.09-4.08 4.09h-5.75c-2.25 0-4.08-1.83-4.08-4.09V1126Zm9.92-46.45h81.66c4.8 0 8.8 3.4 9.72 7.93h-12.07c-2.1 0-3.79 1.69-3.79 3.79 0 2.09 1.69 3.79 3.79 3.79h12.27v23.36h-15.31c-.04-.14-.09-.28-.15-.41l-7.77-19.51a17.493 17.493 0 0 0-16.25-11.03h-22.54c-7.16 0-13.6 4.37-16.25 11.03l-7.77 19.51c-.06.13-.11.27-.15.41h-15.31v-23.36h12.27a3.79 3.79 0 1 0 0-7.58h-12.07a9.914 9.914 0 0 1 9.72-7.93Zm13.54 38.87h54.58l-6.81-17.12a9.907 9.907 0 0 0-9.21-6.24h-22.54c-4.06 0-7.71 2.47-9.21 6.24l-6.81 17.12Z" clip-rule="evenodd"/></g></g><g id="Heavy-M"><g id="Outline / Car Outline_11"><path id="Shape_11" fill="#000" fill-rule="evenodd" d="M2658.75 1044.33c6.55 0 12.55 3.66 15.55 9.48l12.12 23.49a17.46 17.46 0 0 1 4.91 12.16v40.09c0 6.45-5.22 11.67-11.66 11.67h-5.75c-6.44 0-11.66-5.22-11.66-11.67V1126h-58.52v3.55c0 6.45-5.22 11.67-11.66 11.67h-5.75c-6.44 0-11.66-5.22-11.66-11.67v-40.09c0-4.72 1.87-9.01 4.91-12.16l12.12-23.49c3-5.82 9-9.48 15.55-9.48h51.5Zm-51.5 7.59h51.5c3.71 0 7.11 2.07 8.82 5.37l7.45 14.46h-84.04l7.46-14.46c1.7-3.3 5.1-5.37 8.81-5.37Zm62.59 74.08h13.91v3.55c0 2.26-1.83 4.09-4.08 4.09h-5.75c-2.25 0-4.08-1.83-4.08-4.09V1126Zm-87.59 0h13.91v3.55c0 2.26-1.83 4.09-4.08 4.09h-5.75c-2.25 0-4.08-1.83-4.08-4.09V1126Zm9.92-46.45h81.66c4.8 0 8.8 3.4 9.72 7.93h-12.07c-2.1 0-3.79 1.69-3.79 3.79 0 2.09 1.69 3.79 3.79 3.79h12.27v23.36h-15.31c-.04-.14-.09-.28-.15-.41l-7.77-19.51a17.493 17.493 0 0 0-16.25-11.03h-22.54c-7.16 0-13.6 4.37-16.25 11.03l-7.77 19.51c-.06.13-.11.27-.15.41h-15.31v-23.36h12.27a3.79 3.79 0 1 0 0-7.58h-12.07a9.914 9.914 0 0 1 9.72-7.93Zm13.54 38.87h54.58l-6.81-17.12a9.907 9.907 0 0 0-9.21-6.24h-22.54c-4.06 0-7.71 2.47-9.21 6.24l-6.81 17.12Z" clip-rule="evenodd"/></g></g><g id="Bold-M"><g id="Outline / Car Outline_12"><path id="Shape_12" fill="#000" fill-rule="evenodd" d="M2362.75 1044.33c6.55 0 12.55 3.66 15.55 9.48l12.12 23.49a17.46 17.46 0 0 1 4.91 12.16v40.09c0 6.45-5.22 11.67-11.66 11.67h-5.75c-6.44 0-11.66-5.22-11.66-11.67V1126h-58.52v3.55c0 6.45-5.22 11.67-11.66 11.67h-5.75c-6.44 0-11.66-5.22-11.66-11.67v-40.09c0-4.72 1.87-9.01 4.91-12.16l12.12-23.49c3-5.82 9-9.48 15.55-9.48h51.5Zm-51.5 7.59h51.5c3.71 0 7.11 2.07 8.82 5.37l7.45 14.46h-84.04l7.46-14.46c1.7-3.3 5.1-5.37 8.81-5.37Zm62.59 74.08h13.91v3.55c0 2.26-1.83 4.09-4.08 4.09h-5.75c-2.25 0-4.08-1.83-4.08-4.09V1126Zm-87.59 0h13.91v3.55c0 2.26-1.83 4.09-4.08 4.09h-5.75c-2.25 0-4.08-1.83-4.08-4.09V1126Zm9.92-46.45h81.66c4.8 0 8.8 3.4 9.72 7.93h-12.07c-2.1 0-3.79 1.69-3.79 3.79 0 2.09 1.69 3.79 3.79 3.79h12.27v23.36h-15.31c-.04-.14-.09-.28-.15-.41l-7.77-19.51a17.493 17.493 0 0 0-16.25-11.03h-22.54c-7.16 0-13.6 4.37-16.25 11.03l-7.77 19.51c-.06.13-.11.27-.15.41h-15.31v-23.36h12.27a3.79 3.79 0 1 0 0-7.58h-12.07a9.914 9.914 0 0 1 9.72-7.93Zm13.54 38.87h54.58l-6.81-17.12a9.907 9.907 0 0 0-9.21-6.24h-22.54c-4.06 0-7.71 2.47-9.21 6.24l-6.81 17.12Z" clip-rule="evenodd"/></g></g><g id="Semibold-M"><g id="Outline / Car Outline_13"><path id="Shape_13" fill="#000" fill-rule="evenodd" d="M2066.75 1044.33c6.55 0 12.55 3.66 15.55 9.48l12.12 23.49a17.46 17.46 0 0 1 4.91 12.16v40.09c0 6.45-5.22 11.67-11.66 11.67h-5.75c-6.44 0-11.66-5.22-11.66-11.67V1126h-58.52v3.55c0 6.45-5.22 11.67-11.66 11.67h-5.75c-6.44 0-11.66-5.22-11.66-11.67v-40.09c0-4.72 1.87-9.01 4.91-12.16l12.12-23.49c3-5.82 9-9.48 15.55-9.48h51.5Zm-51.5 7.59h51.5c3.71 0 7.11 2.07 8.82 5.37l7.45 14.46h-84.04l7.46-14.46c1.7-3.3 5.1-5.37 8.81-5.37Zm62.59 74.08h13.91v3.55c0 2.26-1.83 4.09-4.08 4.09h-5.75c-2.25 0-4.08-1.83-4.08-4.09V1126Zm-87.59 0h13.91v3.55c0 2.26-1.83 4.09-4.08 4.09h-5.75c-2.25 0-4.08-1.83-4.08-4.09V1126Zm9.92-46.45h81.66c4.8 0 8.8 3.4 9.72 7.93h-12.07c-2.1 0-3.79 1.69-3.79 3.79 0 2.09 1.69 3.79 3.79 3.79h12.27v23.36h-15.31c-.04-.14-.09-.28-.15-.41l-7.77-19.51a17.493 17.493 0 0 0-16.25-11.03h-22.54c-7.16 0-13.6 4.37-16.25 11.03l-7.77 19.51c-.06.13-.11.27-.15.41h-15.31v-23.36h12.27a3.79 3.79 0 1 0 0-7.58h-12.07a9.914 9.914 0 0 1 9.72-7.93Zm13.54 38.87h54.58l-6.81-17.12a9.907 9.907 0 0 0-9.21-6.24h-22.54c-4.06 0-7.71 2.47-9.21 6.24l-6.81 17.12Z" clip-rule="evenodd"/></g></g><g id="Medium-M"><g id="Outline / Car Outline_14"><path id="Shape_14" fill="#000" fill-rule="evenodd" d="M1770.75 1044.33c6.55 0 12.55 3.66 15.55 9.48l12.12 23.49a17.46 17.46 0 0 1 4.91 12.16v40.09c0 6.45-5.22 11.67-11.66 11.67h-5.75c-6.44 0-11.66-5.22-11.66-11.67V1126h-58.52v3.55c0 6.45-5.22 11.67-11.66 11.67h-5.75c-6.44 0-11.66-5.22-11.66-11.67v-40.09c0-4.72 1.87-9.01 4.91-12.16l12.12-23.49c3-5.82 9-9.48 15.55-9.48h51.5Zm-51.5 7.59h51.5c3.71 0 7.11 2.07 8.82 5.37l7.45 14.46h-84.04l7.46-14.46c1.7-3.3 5.1-5.37 8.81-5.37Zm62.59 74.08h13.91v3.55c0 2.26-1.83 4.09-4.08 4.09h-5.75c-2.25 0-4.08-1.83-4.08-4.09V1126Zm-87.59 0h13.91v3.55c0 2.26-1.83 4.09-4.08 4.09h-5.75c-2.25 0-4.08-1.83-4.08-4.09V1126Zm9.92-46.45h81.66c4.8 0 8.8 3.4 9.72 7.93h-12.07c-2.1 0-3.79 1.69-3.79 3.79 0 2.09 1.69 3.79 3.79 3.79h12.27v23.36h-15.31c-.04-.14-.09-.28-.15-.41l-7.77-19.51a17.493 17.493 0 0 0-16.25-11.03h-22.54c-7.16 0-13.6 4.37-16.25 11.03l-7.77 19.51c-.06.13-.11.27-.15.41h-15.31v-23.36h12.27a3.79 3.79 0 1 0 0-7.58h-12.07a9.914 9.914 0 0 1 9.72-7.93Zm13.54 38.87h54.58l-6.81-17.12a9.907 9.907 0 0 0-9.21-6.24h-22.54c-4.06 0-7.71 2.47-9.21 6.24l-6.81 17.12Z" clip-rule="evenodd"/></g></g><g id="Regular-M"><g id="Outline / Car Outline_15"><path id="Shape_15" fill="#000" fill-rule="evenodd" d="M1474.75 1044.33c6.55 0 12.55 3.66 15.55 9.48l12.12 23.49a17.46 17.46 0 0 1 4.91 12.16v40.09c0 6.45-5.22 11.67-11.66 11.67h-5.75c-6.44 0-11.66-5.22-11.66-11.67V1126h-58.52v3.55c0 6.45-5.22 11.67-11.66 11.67h-5.75c-6.44 0-11.66-5.22-11.66-11.67v-40.09c0-4.72 1.87-9.01 4.91-12.16l12.12-23.49c3-5.82 9-9.48 15.55-9.48h51.5Zm-51.5 7.59h51.5c3.71 0 7.11 2.07 8.82 5.37l7.45 14.46h-84.04l7.46-14.46c1.7-3.3 5.1-5.37 8.81-5.37Zm62.59 74.08h13.91v3.55c0 2.26-1.83 4.09-4.08 4.09h-5.75c-2.25 0-4.08-1.83-4.08-4.09V1126Zm-87.59 0h13.91v3.55c0 2.26-1.83 4.09-4.08 4.09h-5.75c-2.25 0-4.08-1.83-4.08-4.09V1126Zm9.92-46.45h81.66c4.8 0 8.8 3.4 9.72 7.93h-12.07c-2.1 0-3.79 1.69-3.79 3.79 0 2.09 1.69 3.79 3.79 3.79h12.27v23.36h-15.31c-.04-.14-.09-.28-.15-.41l-7.77-19.51a17.493 17.493 0 0 0-16.25-11.03h-22.54c-7.16 0-13.6 4.37-16.25 11.03l-7.77 19.51c-.06.13-.11.27-.15.41h-15.31v-23.36h12.27a3.79 3.79 0 1 0 0-7.58h-12.07a9.914 9.914 0 0 1 9.72-7.93Zm13.54 38.87h54.58l-6.81-17.12a9.907 9.907 0 0 0-9.21-6.24h-22.54c-4.06 0-7.71 2.47-9.21 6.24l-6.81 17.12Z" clip-rule="evenodd"/></g></g><g id="Light-M"><g id="Outline / Car Outline_16"><path id="Shape_16" fill="#000" fill-rule="evenodd" d="M1178.75 1044.33c6.55 0 12.55 3.66 15.55 9.48l12.12 23.49a17.46 17.46 0 0 1 4.91 12.16v40.09c0 6.45-5.22 11.67-11.66 11.67h-5.75c-6.44 0-11.66-5.22-11.66-11.67V1126h-58.52v3.55c0 6.45-5.22 11.67-11.66 11.67h-5.75c-6.44 0-11.66-5.22-11.66-11.67v-40.09c0-4.72 1.87-9.01 4.91-12.16l12.12-23.49c3-5.82 9-9.48 15.55-9.48h51.5Zm-51.5 7.59h51.5c3.71 0 7.11 2.07 8.82 5.37l7.45 14.46h-84.04l7.46-14.46c1.7-3.3 5.1-5.37 8.81-5.37Zm62.59 74.08h13.91v3.55c0 2.26-1.83 4.09-4.08 4.09h-5.75c-2.25 0-4.08-1.83-4.08-4.09V1126Zm-87.59 0h13.91v3.55c0 2.26-1.83 4.09-4.08 4.09h-5.75c-2.25 0-4.08-1.83-4.08-4.09V1126Zm9.92-46.45h81.66c4.8 0 8.8 3.4 9.72 7.93h-12.07c-2.1 0-3.79 1.69-3.79 3.79 0 2.09 1.69 3.79 3.79 3.79h12.27v23.36h-15.31c-.04-.14-.09-.28-.15-.41l-7.77-19.51a17.493 17.493 0 0 0-16.25-11.03h-22.54c-7.16 0-13.6 4.37-16.25 11.03l-7.77 19.51c-.06.13-.11.27-.15.41h-15.31v-23.36h12.27a3.79 3.79 0 1 0 0-7.58h-12.07a9.914 9.914 0 0 1 9.72-7.93Zm13.54 38.87h54.58l-6.81-17.12a9.907 9.907 0 0 0-9.21-6.24h-22.54c-4.06 0-7.71 2.47-9.21 6.24l-6.81 17.12Z" clip-rule="evenodd"/></g></g><g id="Thin-M"><g id="Outline / Car Outline_17"><path id="Shape_17" fill="#000" fill-rule="evenodd" d="M882.751 1044.33c6.55 0 12.552 3.66 15.554 9.48l12.114 23.49a17.452 17.452 0 0 1 4.915 12.16v40.09c0 6.45-5.224 11.67-11.667 11.67h-5.742c-6.444 0-11.667-5.22-11.667-11.67V1126h-58.516v3.55c0 6.45-5.223 11.67-11.666 11.67h-5.742c-6.444 0-11.667-5.22-11.667-11.67v-40.09c0-4.72 1.872-9.01 4.914-12.16l12.115-23.49a17.502 17.502 0 0 1 15.553-9.48h51.502Zm-51.502 7.59h51.502a9.913 9.913 0 0 1 8.814 5.37l7.458 14.46h-84.045l7.458-14.46a9.912 9.912 0 0 1 8.813-5.37Zm62.592 74.08h13.909v3.55c0 2.26-1.828 4.09-4.083 4.09h-5.742a4.087 4.087 0 0 1-4.084-4.09V1126Zm-87.591 0h13.909v3.55c0 2.26-1.828 4.09-4.083 4.09h-5.742a4.086 4.086 0 0 1-4.084-4.09V1126Zm9.917-46.45h81.667c4.796 0 8.797 3.4 9.717 7.93h-12.074a3.787 3.787 0 0 0-3.792 3.79c0 2.09 1.698 3.79 3.792 3.79h12.273v23.36h-15.31a4.605 4.605 0 0 0-.146-.41l-7.769-19.51a17.5 17.5 0 0 0-16.258-11.03h-22.533a17.499 17.499 0 0 0-16.258 11.03l-7.77 19.51c-.054.13-.102.27-.146.41h-15.31v-23.36h12.274c2.094 0 3.791-1.7 3.791-3.79 0-2.1-1.697-3.79-3.791-3.79H806.45a9.914 9.914 0 0 1 9.717-7.93Zm13.539 38.87h54.588l-6.814-17.12a9.914 9.914 0 0 0-9.213-6.24h-22.533a9.913 9.913 0 0 0-9.213 6.24l-6.815 17.12Z" clip-rule="evenodd"/></g></g><g id="Ultralight-M"><g id="Outline / Car Outline_18"><path id="Shape_18" fill="#000" fill-rule="evenodd" d="M586.751 1044.33c6.55 0 12.552 3.66 15.554 9.48l12.114 23.49a17.452 17.452 0 0 1 4.915 12.16v40.09c0 6.45-5.224 11.67-11.667 11.67h-5.742c-6.444 0-11.667-5.22-11.667-11.67V1126h-58.516v3.55c0 6.45-5.223 11.67-11.666 11.67h-5.742c-6.444 0-11.667-5.22-11.667-11.67v-40.09c0-4.72 1.872-9.01 4.914-12.16l12.115-23.49a17.502 17.502 0 0 1 15.553-9.48h51.502Zm-51.502 7.59h51.502a9.913 9.913 0 0 1 8.814 5.37l7.458 14.46h-84.045l7.458-14.46a9.912 9.912 0 0 1 8.813-5.37Zm62.592 74.08h13.909v3.55c0 2.26-1.828 4.09-4.083 4.09h-5.742a4.087 4.087 0 0 1-4.084-4.09V1126Zm-87.591 0h13.909v3.55c0 2.26-1.828 4.09-4.083 4.09h-5.742a4.086 4.086 0 0 1-4.084-4.09V1126Zm9.917-46.45h81.667c4.796 0 8.797 3.4 9.717 7.93h-12.074a3.787 3.787 0 0 0-3.792 3.79c0 2.09 1.698 3.79 3.792 3.79h12.273v23.36h-15.31a4.605 4.605 0 0 0-.146-.41l-7.769-19.51a17.5 17.5 0 0 0-16.258-11.03h-22.533a17.499 17.499 0 0 0-16.258 11.03l-7.77 19.51c-.054.13-.102.27-.146.41h-15.31v-23.36h12.274c2.094 0 3.791-1.7 3.791-3.79 0-2.1-1.697-3.79-3.791-3.79H510.45a9.914 9.914 0 0 1 9.717-7.93Zm13.539 38.87h54.588l-6.814-17.12a9.914 9.914 0 0 0-9.213-6.24h-22.533a9.913 9.913 0 0 0-9.213 6.24l-6.815 17.12Z" clip-rule="evenodd"/></g></g><g id="Black-S"><g id="Outline / Car Outline_19"><path id="Shape_19" fill="#000" fill-rule="evenodd" d="M2947.39 627.668c4.68 0 8.97 2.613 11.11 6.771l8.66 16.78a12.472 12.472 0 0 1 3.51 8.685v28.636a8.334 8.334 0 0 1-8.34 8.333h-4.1c-4.6 0-8.33-3.731-8.33-8.333v-2.539h-41.8v2.539a8.332 8.332 0 0 1-8.33 8.333h-4.1a8.334 8.334 0 0 1-8.34-8.333v-28.636c0-3.374 1.34-6.436 3.51-8.685l8.66-16.78a12.494 12.494 0 0 1 11.11-6.771h36.78Zm-36.78 5.417h36.78c2.65 0 5.08 1.48 6.3 3.836l5.33 10.33h-60.04l5.33-10.33a7.097 7.097 0 0 1 6.3-3.836Zm44.7 52.916h9.94v2.539a2.92 2.92 0 0 1-2.92 2.917h-4.1a2.92 2.92 0 0 1-2.92-2.917v-2.539Zm-62.56 0h9.93v2.539c0 1.611-1.3 2.917-2.91 2.917h-4.1a2.92 2.92 0 0 1-2.92-2.917v-2.539Zm7.08-33.18h58.34c3.42 0 6.28 2.432 6.94 5.664h-8.63a2.713 2.713 0 0 0-2.71 2.708 2.713 2.713 0 0 0 2.71 2.708h8.77v16.683h-10.94a3.339 3.339 0 0 0-.1-.291l-5.55-13.936a12.49 12.49 0 0 0-11.61-7.875h-16.1c-5.12 0-9.72 3.12-11.61 7.875l-5.55 13.936c-.04.097-.07.194-.1.291h-10.94v-16.683h8.77c1.49 0 2.7-1.212 2.7-2.708a2.704 2.704 0 0 0-2.7-2.708h-8.63c.66-3.232 3.52-5.664 6.94-5.664Zm9.67 27.763h39l-4.87-12.223a7.09 7.09 0 0 0-6.58-4.462h-16.1a7.08 7.08 0 0 0-6.58 4.462l-4.87 12.223Z" clip-rule="evenodd"/></g></g><g id="Heavy-S"><g id="Outline / Car Outline_20"><path id="Shape_20" fill="#000" fill-rule="evenodd" d="M2651.39 627.668c4.68 0 8.97 2.613 11.11 6.771l8.66 16.78a12.472 12.472 0 0 1 3.51 8.685v28.636a8.334 8.334 0 0 1-8.34 8.333h-4.1c-4.6 0-8.33-3.731-8.33-8.333v-2.539h-41.8v2.539a8.332 8.332 0 0 1-8.33 8.333h-4.1a8.334 8.334 0 0 1-8.34-8.333v-28.636c0-3.374 1.34-6.436 3.51-8.685l8.66-16.78a12.494 12.494 0 0 1 11.11-6.771h36.78Zm-36.78 5.417h36.78c2.65 0 5.08 1.48 6.3 3.836l5.33 10.33h-60.04l5.33-10.33a7.097 7.097 0 0 1 6.3-3.836Zm44.7 52.916h9.94v2.539a2.92 2.92 0 0 1-2.92 2.917h-4.1a2.92 2.92 0 0 1-2.92-2.917v-2.539Zm-62.56 0h9.93v2.539c0 1.611-1.3 2.917-2.91 2.917h-4.1a2.92 2.92 0 0 1-2.92-2.917v-2.539Zm7.08-33.18h58.34c3.42 0 6.28 2.432 6.94 5.664h-8.63a2.713 2.713 0 0 0-2.71 2.708 2.713 2.713 0 0 0 2.71 2.708h8.77v16.683h-10.94a3.339 3.339 0 0 0-.1-.291l-5.55-13.936a12.49 12.49 0 0 0-11.61-7.875h-16.1c-5.12 0-9.72 3.12-11.61 7.875l-5.55 13.936c-.04.097-.07.194-.1.291h-10.94v-16.683h8.77c1.49 0 2.7-1.212 2.7-2.708a2.704 2.704 0 0 0-2.7-2.708h-8.63c.66-3.232 3.52-5.664 6.94-5.664Zm9.67 27.763h39l-4.87-12.223a7.09 7.09 0 0 0-6.58-4.462h-16.1a7.08 7.08 0 0 0-6.58 4.462l-4.87 12.223Z" clip-rule="evenodd"/></g></g><g id="Bold-S"><g id="Outline / Car Outline_21"><path id="Shape_21" fill="#000" fill-rule="evenodd" d="M2355.39 627.668c4.68 0 8.97 2.613 11.11 6.771l8.66 16.78a12.472 12.472 0 0 1 3.51 8.685v28.636a8.334 8.334 0 0 1-8.34 8.333h-4.1c-4.6 0-8.33-3.731-8.33-8.333v-2.539h-41.8v2.539a8.332 8.332 0 0 1-8.33 8.333h-4.1a8.334 8.334 0 0 1-8.34-8.333v-28.636c0-3.374 1.34-6.436 3.51-8.685l8.66-16.78a12.494 12.494 0 0 1 11.11-6.771h36.78Zm-36.78 5.417h36.78c2.65 0 5.08 1.48 6.3 3.836l5.33 10.33h-60.04l5.33-10.33a7.097 7.097 0 0 1 6.3-3.836Zm44.7 52.916h9.94v2.539a2.92 2.92 0 0 1-2.92 2.917h-4.1a2.92 2.92 0 0 1-2.92-2.917v-2.539Zm-62.56 0h9.93v2.539c0 1.611-1.3 2.917-2.91 2.917h-4.1a2.92 2.92 0 0 1-2.92-2.917v-2.539Zm7.08-33.18h58.34c3.42 0 6.28 2.432 6.94 5.664h-8.63a2.713 2.713 0 0 0-2.71 2.708 2.713 2.713 0 0 0 2.71 2.708h8.77v16.683h-10.94a3.339 3.339 0 0 0-.1-.291l-5.55-13.936a12.49 12.49 0 0 0-11.61-7.875h-16.1c-5.12 0-9.72 3.12-11.61 7.875l-5.55 13.936c-.04.097-.07.194-.1.291h-10.94v-16.683h8.77c1.49 0 2.7-1.212 2.7-2.708a2.704 2.704 0 0 0-2.7-2.708h-8.63c.66-3.232 3.52-5.664 6.94-5.664Zm9.67 27.763h39l-4.87-12.223a7.09 7.09 0 0 0-6.58-4.462h-16.1a7.08 7.08 0 0 0-6.58 4.462l-4.87 12.223Z" clip-rule="evenodd"/></g></g><g id="Semibold-S"><g id="Outline / Car Outline_22"><path id="Shape_22" fill="#000" fill-rule="evenodd" d="M2059.39 627.668c4.68 0 8.97 2.613 11.11 6.771l8.66 16.78a12.472 12.472 0 0 1 3.51 8.685v28.636a8.334 8.334 0 0 1-8.34 8.333h-4.1c-4.6 0-8.33-3.731-8.33-8.333v-2.539h-41.8v2.539a8.332 8.332 0 0 1-8.33 8.333h-4.1a8.334 8.334 0 0 1-8.34-8.333v-28.636c0-3.374 1.34-6.436 3.51-8.685l8.66-16.78a12.494 12.494 0 0 1 11.11-6.771h36.78Zm-36.78 5.417h36.78c2.65 0 5.08 1.48 6.3 3.836l5.33 10.33h-60.04l5.33-10.33a7.097 7.097 0 0 1 6.3-3.836Zm44.7 52.916h9.94v2.539a2.92 2.92 0 0 1-2.92 2.917h-4.1a2.92 2.92 0 0 1-2.92-2.917v-2.539Zm-62.56 0h9.93v2.539c0 1.611-1.3 2.917-2.91 2.917h-4.1a2.92 2.92 0 0 1-2.92-2.917v-2.539Zm7.08-33.18h58.34c3.42 0 6.28 2.432 6.94 5.664h-8.63a2.713 2.713 0 0 0-2.71 2.708 2.713 2.713 0 0 0 2.71 2.708h8.77v16.683h-10.94a3.339 3.339 0 0 0-.1-.291l-5.55-13.936a12.49 12.49 0 0 0-11.61-7.875h-16.1c-5.12 0-9.72 3.12-11.61 7.875l-5.55 13.936c-.04.097-.07.194-.1.291h-10.94v-16.683h8.77c1.49 0 2.7-1.212 2.7-2.708a2.704 2.704 0 0 0-2.7-2.708h-8.63c.66-3.232 3.52-5.664 6.94-5.664Zm9.67 27.763h39l-4.87-12.223a7.09 7.09 0 0 0-6.58-4.462h-16.1a7.08 7.08 0 0 0-6.58 4.462l-4.87 12.223Z" clip-rule="evenodd"/></g></g><g id="Medium-S"><g id="Outline / Car Outline_23"><path id="Shape_23" fill="#000" fill-rule="evenodd" d="M1763.39 627.668c4.68 0 8.97 2.613 11.11 6.771l8.66 16.78a12.472 12.472 0 0 1 3.51 8.685v28.636a8.334 8.334 0 0 1-8.34 8.333h-4.1c-4.6 0-8.33-3.731-8.33-8.333v-2.539h-41.8v2.539a8.332 8.332 0 0 1-8.33 8.333h-4.1a8.334 8.334 0 0 1-8.34-8.333v-28.636c0-3.374 1.34-6.436 3.51-8.685l8.66-16.78a12.494 12.494 0 0 1 11.11-6.771h36.78Zm-36.78 5.417h36.78c2.65 0 5.08 1.48 6.3 3.836l5.33 10.33h-60.04l5.33-10.33a7.097 7.097 0 0 1 6.3-3.836Zm44.7 52.916h9.94v2.539a2.92 2.92 0 0 1-2.92 2.917h-4.1a2.92 2.92 0 0 1-2.92-2.917v-2.539Zm-62.56 0h9.93v2.539c0 1.611-1.3 2.917-2.91 2.917h-4.1a2.92 2.92 0 0 1-2.92-2.917v-2.539Zm7.08-33.18h58.34c3.42 0 6.28 2.432 6.94 5.664h-8.63a2.713 2.713 0 0 0-2.71 2.708 2.713 2.713 0 0 0 2.71 2.708h8.77v16.683h-10.94a3.339 3.339 0 0 0-.1-.291l-5.55-13.936a12.49 12.49 0 0 0-11.61-7.875h-16.1c-5.12 0-9.72 3.12-11.61 7.875l-5.55 13.936c-.04.097-.07.194-.1.291h-10.94v-16.683h8.77c1.49 0 2.7-1.212 2.7-2.708a2.704 2.704 0 0 0-2.7-2.708h-8.63c.66-3.232 3.52-5.664 6.94-5.664Zm9.67 27.763h39l-4.87-12.223a7.09 7.09 0 0 0-6.58-4.462h-16.1a7.08 7.08 0 0 0-6.58 4.462l-4.87 12.223Z" clip-rule="evenodd"/></g></g><g id="Regular-S"><g id="Outline / Car Outline_24"><path id="Shape_24" fill="#000" fill-rule="evenodd" d="M1467.39 627.668c4.68 0 8.97 2.613 11.11 6.771l8.66 16.78a12.472 12.472 0 0 1 3.51 8.685v28.636a8.334 8.334 0 0 1-8.34 8.333h-4.1c-4.6 0-8.33-3.731-8.33-8.333v-2.539h-41.8v2.539a8.332 8.332 0 0 1-8.33 8.333h-4.1a8.334 8.334 0 0 1-8.34-8.333v-28.636c0-3.374 1.34-6.436 3.51-8.685l8.66-16.78a12.494 12.494 0 0 1 11.11-6.771h36.78Zm-36.78 5.417h36.78c2.65 0 5.08 1.48 6.3 3.836l5.33 10.33h-60.04l5.33-10.33a7.097 7.097 0 0 1 6.3-3.836Zm44.7 52.916h9.94v2.539a2.92 2.92 0 0 1-2.92 2.917h-4.1a2.92 2.92 0 0 1-2.92-2.917v-2.539Zm-62.56 0h9.93v2.539c0 1.611-1.3 2.917-2.91 2.917h-4.1a2.92 2.92 0 0 1-2.92-2.917v-2.539Zm7.08-33.18h58.34c3.42 0 6.28 2.432 6.94 5.664h-8.63a2.713 2.713 0 0 0-2.71 2.708 2.713 2.713 0 0 0 2.71 2.708h8.77v16.683h-10.94a3.339 3.339 0 0 0-.1-.291l-5.55-13.936a12.49 12.49 0 0 0-11.61-7.875h-16.1c-5.12 0-9.72 3.12-11.61 7.875l-5.55 13.936c-.04.097-.07.194-.1.291h-10.94v-16.683h8.77c1.49 0 2.7-1.212 2.7-2.708a2.704 2.704 0 0 0-2.7-2.708h-8.63c.66-3.232 3.52-5.664 6.94-5.664Zm9.67 27.763h39l-4.87-12.223a7.09 7.09 0 0 0-6.58-4.462h-16.1a7.08 7.08 0 0 0-6.58 4.462l-4.87 12.223Z" clip-rule="evenodd"/></g></g><g id="Light-S"><g id="Outline / Car Outline_25"><path id="Shape_25" fill="#000" fill-rule="evenodd" d="M1171.39 627.668c4.68 0 8.97 2.613 11.11 6.771l8.66 16.78a12.472 12.472 0 0 1 3.51 8.685v28.636a8.334 8.334 0 0 1-8.34 8.333h-4.1c-4.6 0-8.33-3.731-8.33-8.333v-2.539h-41.8v2.539a8.332 8.332 0 0 1-8.33 8.333h-4.1a8.334 8.334 0 0 1-8.34-8.333v-28.636c0-3.374 1.34-6.436 3.51-8.685l8.66-16.78a12.494 12.494 0 0 1 11.11-6.771h36.78Zm-36.78 5.417h36.78c2.65 0 5.08 1.48 6.3 3.836l5.33 10.33h-60.04l5.33-10.33a7.097 7.097 0 0 1 6.3-3.836Zm44.7 52.916h9.94v2.539a2.92 2.92 0 0 1-2.92 2.917h-4.1a2.92 2.92 0 0 1-2.92-2.917v-2.539Zm-62.56 0h9.93v2.539c0 1.611-1.3 2.917-2.91 2.917h-4.1a2.92 2.92 0 0 1-2.92-2.917v-2.539Zm7.08-33.18h58.34c3.42 0 6.28 2.432 6.94 5.664h-8.63a2.713 2.713 0 0 0-2.71 2.708 2.713 2.713 0 0 0 2.71 2.708h8.77v16.683h-10.94a3.339 3.339 0 0 0-.1-.291l-5.55-13.936a12.49 12.49 0 0 0-11.61-7.875h-16.1c-5.12 0-9.72 3.12-11.61 7.875l-5.55 13.936c-.04.097-.07.194-.1.291h-10.94v-16.683h8.77c1.49 0 2.7-1.212 2.7-2.708a2.704 2.704 0 0 0-2.7-2.708h-8.63c.66-3.232 3.52-5.664 6.94-5.664Zm9.67 27.763h39l-4.87-12.223a7.09 7.09 0 0 0-6.58-4.462h-16.1a7.08 7.08 0 0 0-6.58 4.462l-4.87 12.223Z" clip-rule="evenodd"/></g></g><g id="Thin-S"><g id="Outline / Car Outline_26"><path id="Shape_26" fill="#000" fill-rule="evenodd" d="M875.393 627.668a12.5 12.5 0 0 1 11.11 6.771l8.653 16.78a12.46 12.46 0 0 1 3.51 8.685v28.636a8.333 8.333 0 0 1-8.333 8.333h-4.102a8.333 8.333 0 0 1-8.333-8.333v-2.539h-41.797v2.539a8.333 8.333 0 0 1-8.333 8.333h-4.102a8.333 8.333 0 0 1-8.333-8.333v-28.636a12.46 12.46 0 0 1 3.51-8.685l8.653-16.78a12.502 12.502 0 0 1 11.11-6.771h36.787Zm-36.787 5.417h36.787a7.084 7.084 0 0 1 6.296 3.836l5.327 10.33h-60.032l5.327-10.33a7.082 7.082 0 0 1 6.295-3.836Zm44.709 52.916h9.935v2.539a2.917 2.917 0 0 1-2.917 2.917h-4.102a2.917 2.917 0 0 1-2.916-2.917v-2.539Zm-62.565 0h9.935v2.539a2.917 2.917 0 0 1-2.917 2.917h-4.102a2.917 2.917 0 0 1-2.916-2.917v-2.539Zm7.083-33.18h58.333a7.085 7.085 0 0 1 6.941 5.664h-8.624a2.707 2.707 0 1 0 0 5.416h8.767v16.683h-10.936a4.83 4.83 0 0 0-.104-.291l-5.55-13.936a12.5 12.5 0 0 0-11.613-7.875h-16.095a12.5 12.5 0 0 0-11.613 7.875l-5.549 13.936a4.24 4.24 0 0 0-.105.291H820.75v-16.683h8.766a2.708 2.708 0 1 0 0-5.416h-8.624a7.085 7.085 0 0 1 6.941-5.664Zm9.671 27.763h38.991l-4.867-12.223a7.084 7.084 0 0 0-6.581-4.462h-16.095a7.083 7.083 0 0 0-6.58 4.462l-4.868 12.223Z" clip-rule="evenodd"/></g></g><g id="Ultralight-S"><g id="Outline / Car Outline_27"><path id="Shape_27" fill="#000" fill-rule="evenodd" d="M579.393 627.668a12.5 12.5 0 0 1 11.11 6.771l8.653 16.78a12.46 12.46 0 0 1 3.51 8.685v28.636a8.333 8.333 0 0 1-8.333 8.333h-4.102a8.333 8.333 0 0 1-8.333-8.333v-2.539h-41.797v2.539a8.333 8.333 0 0 1-8.333 8.333h-4.102a8.333 8.333 0 0 1-8.333-8.333v-28.636a12.46 12.46 0 0 1 3.51-8.685l8.653-16.78a12.502 12.502 0 0 1 11.11-6.771h36.787Zm-36.787 5.417h36.787a7.084 7.084 0 0 1 6.296 3.836l5.327 10.33h-60.032l5.327-10.33a7.082 7.082 0 0 1 6.295-3.836Zm44.709 52.916h9.935v2.539a2.917 2.917 0 0 1-2.917 2.917h-4.102a2.917 2.917 0 0 1-2.916-2.917v-2.539Zm-62.565 0h9.935v2.539a2.917 2.917 0 0 1-2.917 2.917h-4.102a2.917 2.917 0 0 1-2.916-2.917v-2.539Zm7.083-33.18h58.333a7.085 7.085 0 0 1 6.941 5.664h-8.624a2.707 2.707 0 1 0 0 5.416h8.767v16.683h-10.936a4.83 4.83 0 0 0-.104-.291l-5.55-13.936a12.5 12.5 0 0 0-11.613-7.875h-16.095a12.5 12.5 0 0 0-11.613 7.875l-5.549 13.936a4.24 4.24 0 0 0-.105.291H524.75v-16.683h8.766a2.708 2.708 0 1 0 0-5.416h-8.624a7.085 7.085 0 0 1 6.941-5.664Zm9.671 27.763h38.991l-4.867-12.223a7.084 7.084 0 0 0-6.581-4.462h-16.095a7.083 7.083 0 0 0-6.58 4.462l-4.868 12.223Z" clip-rule="evenodd"/></g></g></g></g><defs><clipPath id="clip0_0_1"><path fill="#fff" d="M0 0h3300v2200H0z"/></clipPath></defs></svg>