<svg width="3300" height="2200" viewBox="0 0 3300 2200" fill="none" xmlns="http://www.w3.org/2000/svg">
<rect width="3300" height="2200" fill="#E5E5E5"/>
<g id="System / Outline / Arrow Left" clip-path="url(#clip0_805_27002)">
<g id="Notes">
<path id="artboard" d="M3300 0H0V2200H3300V0Z" fill="white"/>
<path id="Vector" d="M263 292H3036" stroke="black" stroke-width="0.5"/>
<text id="Weight/Scale Variations" fill="black" xml:space="preserve" style="white-space: pre" font-family="Roboto" font-size="12" letter-spacing="0em"><tspan x="263" y="321.102">Weight/Scale Variations</tspan></text>
<text id="Ultralight" fill="black" xml:space="preserve" style="white-space: pre" font-family="Roboto" font-size="12" letter-spacing="0em"><tspan x="535.211" y="321.102">Ultralight</tspan></text>
<text id="Thin" fill="black" xml:space="preserve" style="white-space: pre" font-family="Roboto" font-size="12" letter-spacing="0em"><tspan x="844.422" y="321.102">Thin</tspan></text>
<text id="Light" fill="black" xml:space="preserve" style="white-space: pre" font-family="Roboto" font-size="12" letter-spacing="0em"><tspan x="1139.63" y="321.102">Light</tspan></text>
<text id="Regular" fill="black" xml:space="preserve" style="white-space: pre" font-family="Roboto" font-size="12" letter-spacing="0em"><tspan x="1429.34" y="321.102">Regular</tspan></text>
<text id="Medium" fill="black" xml:space="preserve" style="white-space: pre" font-family="Roboto" font-size="12" letter-spacing="0em"><tspan x="1724.56" y="321.102">Medium</tspan></text>
<text id="Semibold" fill="black" xml:space="preserve" style="white-space: pre" font-family="Roboto" font-size="12" letter-spacing="0em"><tspan x="2017.77" y="321.102">Semibold</tspan></text>
<text id="Bold" fill="black" xml:space="preserve" style="white-space: pre" font-family="Roboto" font-size="12" letter-spacing="0em"><tspan x="2327.48" y="321.102">Bold</tspan></text>
<text id="Heavy" fill="black" xml:space="preserve" style="white-space: pre" font-family="Roboto" font-size="12" letter-spacing="0em"><tspan x="2620.19" y="321.102">Heavy</tspan></text>
<text id="Black" fill="black" xml:space="preserve" style="white-space: pre" font-family="Roboto" font-size="12" letter-spacing="0em"><tspan x="2918.4" y="321.102">Black</tspan></text>
<path id="Vector_2" d="M263 1903H3036" stroke="black" stroke-width="0.5"/>
<g id="Group">
<path id="Vector_3" d="M272.248 1933.83C276.555 1933.83 280.139 1930.26 280.139 1925.95C280.139 1921.64 276.545 1918.07 272.238 1918.07C267.941 1918.07 264.367 1921.64 264.367 1925.95C264.367 1930.26 267.951 1933.83 272.248 1933.83ZM272.248 1932.35C268.703 1932.35 265.871 1929.51 265.871 1925.95C265.871 1922.4 268.693 1919.55 272.238 1919.55C275.793 1919.55 278.635 1922.4 278.644 1925.95C278.654 1929.51 275.803 1932.35 272.248 1932.35ZM272.229 1929.57C272.697 1929.57 272.971 1929.26 272.971 1928.74V1926.68H275.197C275.695 1926.68 276.037 1926.43 276.037 1925.96C276.037 1925.48 275.715 1925.22 275.197 1925.22H272.971V1922.99C272.971 1922.47 272.697 1922.15 272.229 1922.15C271.76 1922.15 271.506 1922.49 271.506 1922.99V1925.22H269.299C268.781 1925.22 268.449 1925.48 268.449 1925.96C268.449 1926.43 268.801 1926.68 269.299 1926.68H271.506V1928.74C271.506 1929.24 271.76 1929.57 272.229 1929.57Z" fill="black"/>
</g>
<g id="Group_2">
<path id="Vector_4" d="M293.215 1935.91C298.664 1935.91 303.176 1931.4 303.176 1925.95C303.176 1920.51 298.654 1915.99 293.205 1915.99C287.766 1915.99 283.254 1920.51 283.254 1925.95C283.254 1931.4 287.775 1935.91 293.215 1935.91ZM293.215 1934.25C288.605 1934.25 284.924 1930.56 284.924 1925.95C284.924 1921.35 288.596 1917.65 293.205 1917.65C297.814 1917.65 301.506 1921.35 301.516 1925.95C301.525 1930.56 297.824 1934.25 293.215 1934.25ZM293.195 1930.59C293.713 1930.59 294.025 1930.23 294.025 1929.66V1926.77H297.082C297.629 1926.77 298.01 1926.49 298.01 1925.97C298.01 1925.44 297.648 1925.14 297.082 1925.14H294.025V1922.07C294.025 1921.5 293.713 1921.14 293.195 1921.14C292.678 1921.14 292.385 1921.52 292.385 1922.07V1925.14H289.338C288.771 1925.14 288.4 1925.44 288.4 1925.97C288.4 1926.49 288.791 1926.77 289.338 1926.77H292.385V1929.66C292.385 1930.21 292.678 1930.59 293.195 1930.59Z" fill="black"/>
</g>
<g id="Group_3">
<path id="Vector_5" d="M319.895 1938.67C326.857 1938.67 332.619 1932.92 332.619 1925.96C332.619 1918.99 326.848 1913.24 319.885 1913.24C312.932 1913.24 307.18 1918.99 307.18 1925.96C307.18 1932.92 312.941 1938.67 319.895 1938.67ZM319.895 1936.86C313.859 1936.86 309.006 1931.99 309.006 1925.96C309.006 1919.92 313.85 1915.06 319.885 1915.06C325.93 1915.06 330.783 1919.92 330.793 1925.96C330.803 1931.99 325.939 1936.86 319.895 1936.86ZM319.875 1931.93C320.441 1931.93 320.793 1931.54 320.793 1930.94V1926.87H325.031C325.617 1926.87 326.037 1926.53 326.037 1925.98C326.037 1925.4 325.647 1925.06 325.031 1925.06H320.793V1920.81C320.793 1920.2 320.441 1919.8 319.875 1919.8C319.309 1919.8 318.986 1920.21 318.986 1920.81V1925.06H314.758C314.143 1925.06 313.732 1925.4 313.732 1925.98C313.732 1926.53 314.162 1926.87 314.758 1926.87H318.986V1930.94C318.986 1931.52 319.309 1931.93 319.875 1931.93Z" fill="black"/>
</g>
<text id="Design Variations" fill="black" xml:space="preserve" style="white-space: pre" font-family="Roboto" font-size="12" letter-spacing="0em"><tspan x="263" y="1952.1">Design Variations</tspan></text>
<text id="Symbols are supported in up to nine weights and three scales." fill="black" xml:space="preserve" style="white-space: pre" font-family="Roboto" font-size="12" letter-spacing="0em"><tspan x="263" y="1970.1">Symbols are supported in up to nine weights and three scales.</tspan></text>
<text id="For optimal layout with text and other symbols, vertically align" fill="black" xml:space="preserve" style="white-space: pre" font-family="Roboto" font-size="12" letter-spacing="0em"><tspan x="263" y="1988.1">For optimal layout with text and other symbols, vertically align</tspan></text>
<text id="symbols with the adjacent text." fill="black" xml:space="preserve" style="white-space: pre" font-family="Roboto" font-size="12" letter-spacing="0em"><tspan x="263" y="2006.1">symbols with the adjacent text.</tspan></text>
<path id="Vector_6" opacity="0.4" d="M779 1919H776V1933H779V1919Z" fill="#00AEEF"/>
<g id="Group_4">
<path id="Vector_7" d="M789.525 1933H791.371L786.176 1918.91H784.437L779.242 1933H781.088L782.504 1928.96H788.109L789.525 1933ZM785.277 1921.04H785.336L787.592 1927.47H783.021L785.277 1921.04Z" fill="black"/>
</g>
<path id="Vector_8" opacity="0.4" d="M794.617 1919H791.617V1933H794.617V1919Z" fill="#00AEEF"/>
<text id="Margins" fill="black" xml:space="preserve" style="white-space: pre" font-family="Roboto" font-size="12" letter-spacing="0em"><tspan x="776" y="1952.1">Margins</tspan></text>
<text id="Leading and trailing margins on the left and right side of each symbol" fill="black" xml:space="preserve" style="white-space: pre" font-family="Roboto" font-size="12" letter-spacing="0em"><tspan x="776" y="1970.1">Leading and trailing margins on the left and right side of each symbol</tspan></text>
<text id="can be adjusted by modifying the width of the blue rectangles." fill="black" xml:space="preserve" style="white-space: pre" font-family="Roboto" font-size="12" letter-spacing="0em"><tspan x="776" y="1988.1">can be adjusted by modifying the width of the blue rectangles.</tspan></text>
<text id="Modifications are automatically applied proportionally to all" fill="black" xml:space="preserve" style="white-space: pre" font-family="Roboto" font-size="12" letter-spacing="0em"><tspan x="776" y="2006.1">Modifications are automatically applied proportionally to all</tspan></text>
<text id="scales and weights." fill="black" xml:space="preserve" style="white-space: pre" font-family="Roboto" font-size="12" letter-spacing="0em"><tspan x="776" y="2024.1">scales and weights.</tspan></text>
<g id="Group_5">
<path id="Vector_9" d="M1291.83 1936.11L1293.37 1937.66C1294.22 1938.49 1295.19 1938.42 1296.06 1937.46L1306.27 1926.34C1306.7 1926.63 1307.1 1926.62 1307.56 1926.52L1308.61 1926.31L1309.3 1927L1309.25 1927.52C1309.19 1928.05 1309.35 1928.47 1309.85 1928.97L1310.66 1929.78C1311.17 1930.28 1311.82 1930.31 1312.3 1929.83L1315.55 1926.58C1316.03 1926.1 1316.01 1925.45 1315.5 1924.94L1314.68 1924.12C1314.19 1923.62 1313.77 1923.45 1313.24 1923.53L1312.71 1923.58L1312.06 1922.92L1312.34 1921.78C1312.49 1921.21 1312.34 1920.74 1311.71 1920.14L1309.3 1917.75C1305.76 1914.22 1301.23 1914.33 1298.11 1917.46C1297.69 1917.89 1297.64 1918.48 1297.92 1918.91C1298.15 1919.28 1298.63 1919.5 1299.27 1919.34C1300.79 1918.96 1302.3 1919.07 1303.78 1920.08L1303.16 1921.66C1302.93 1922.25 1302.94 1922.73 1303.18 1923.16L1292.02 1933.44C1291.08 1934.31 1290.97 1935.25 1291.83 1936.11ZM1299.67 1917.85C1302.34 1915.86 1305.65 1916.17 1308.05 1918.58L1310.68 1921.19C1310.91 1921.43 1310.94 1921.61 1310.88 1921.91L1310.5 1923.47L1312.08 1925.04L1313.04 1924.95C1313.33 1924.92 1313.41 1924.94 1313.64 1925.17L1314.26 1925.79L1311.51 1928.54L1310.88 1927.92C1310.66 1927.7 1310.64 1927.6 1310.67 1927.32L1310.76 1926.36L1309.19 1924.8L1307.57 1925.11C1307.29 1925.17 1307.14 1925.17 1306.91 1924.92L1304.73 1922.75C1304.51 1922.51 1304.48 1922.37 1304.61 1922.05L1305.55 1919.78C1303.95 1918.24 1301.84 1917.39 1299.8 1918.05C1299.71 1918.08 1299.64 1918.06 1299.61 1918.02C1299.59 1917.97 1299.59 1917.92 1299.67 1917.85ZM1293.1 1935.41C1292.61 1934.91 1292.79 1934.61 1293.12 1934.31L1304.08 1924.19L1305.31 1925.42L1295.15 1936.35C1294.85 1936.68 1294.47 1936.78 1294.07 1936.38L1293.1 1935.41Z" fill="black"/>
</g>
<text id="Exporting" fill="black" xml:space="preserve" style="white-space: pre" font-family="Roboto" font-size="12" letter-spacing="0em"><tspan x="1289" y="1952.1">Exporting</tspan></text>
<text id="Symbols should be outlined when exporting to ensure the" fill="black" xml:space="preserve" style="white-space: pre" font-family="Roboto" font-size="12" letter-spacing="0em"><tspan x="1289" y="1970.1">Symbols should be outlined when exporting to ensure the</tspan></text>
<text id="design is preserved when submitting to Xcode." fill="black" xml:space="preserve" style="white-space: pre" font-family="Roboto" font-size="12" letter-spacing="0em"><tspan x="1289" y="1988.1">design is preserved when submitting to Xcode.</tspan></text>
<text id="template-version" fill="black" xml:space="preserve" style="white-space: pre" font-family="Roboto" font-size="12" letter-spacing="0em"><tspan x="2958" y="1932.1">Template v.1.0</tspan></text>
<text id="Generated from pencil.circle" fill="black" xml:space="preserve" style="white-space: pre" font-family="Roboto" font-size="12" letter-spacing="0em"><tspan x="2885" y="1950.1">Generated from pencil.circle</tspan></text>
<text id="Typeset at 100 points" fill="black" xml:space="preserve" style="white-space: pre" font-family="Roboto" font-size="12" letter-spacing="0em"><tspan x="2921" y="1968.1">Typeset at 100 points</tspan></text>
<text id="Small" fill="black" xml:space="preserve" style="white-space: pre" font-family="Roboto" font-size="12" letter-spacing="0em"><tspan x="263" y="725.102">Small</tspan></text>
<text id="Medium_2" fill="black" xml:space="preserve" style="white-space: pre" font-family="Roboto" font-size="12" letter-spacing="0em"><tspan x="263" y="1155.1">Medium</tspan></text>
<text id="Large" fill="black" xml:space="preserve" style="white-space: pre" font-family="Roboto" font-size="12" letter-spacing="0em"><tspan x="263" y="1585.1">Large</tspan></text>
</g>
<g id="Guides">
<g id="H-reference">
<path id="Vector_10" d="M393.932 695.998H396.666L369.566 625.539H367.076L339.977 695.998H342.662L351.94 671.535H384.703L393.932 695.998ZM368.199 628.908H368.443L383.824 669.289H352.818L368.199 628.908Z" fill="#27AAE1"/>
</g>
<path id="Baseline-S" d="M263 696H3036" stroke="#27AAE1" stroke-width="0.577"/>
<path id="Capline-S" d="M263 626H3036" stroke="#27AAE1" stroke-width="0.577"/>
<g id="H-reference_2">
<path id="Vector_11" d="M393.932 1126H396.666L369.566 1055.54H367.076L339.977 1126H342.662L351.94 1101.54H384.703L393.932 1126ZM368.199 1058.91H368.443L383.824 1099.29H352.818L368.199 1058.91Z" fill="#27AAE1"/>
</g>
<path id="Baseline-M" d="M263 1126H3036" stroke="#27AAE1" stroke-width="0.577"/>
<path id="Capline-M" d="M263 1056H3036" stroke="#27AAE1" stroke-width="0.577"/>
<g id="H-reference_3">
<path id="Vector_12" d="M393.932 1556H396.666L369.566 1485.54H367.076L339.977 1556H342.662L351.94 1531.54H384.703L393.932 1556ZM368.199 1488.91H368.443L383.824 1529.29H352.818L368.199 1488.91Z" fill="#27AAE1"/>
</g>
<g id="Group 1">
<path id="Baseline-L" d="M263 1556H3036" stroke="#27AAE1" stroke-width="0.577"/>
<path id="Capline-L" d="M263 1486H3036" stroke="#27AAE1" stroke-width="0.577"/>
</g>
<path id="left-margin" opacity="0.4" d="M1404.04 1030.79H1395.3V1150.12H1404.04V1030.79Z" fill="#00AEEF"/>
<path id="right-margin" opacity="0.4" d="M1494.39 1030.79H1485.65V1150.12H1494.39V1030.79Z" fill="#00AEEF"/>
</g>
<g id="Symbols">
<g id="Black-L">
<g id="Outline / Arrow Left Outline">
<path id="Shape" d="M2925.58 1567.11C2924.61 1568.16 2923.33 1568.69 2921.98 1568.69C2920.78 1568.69 2919.66 1568.31 2918.68 1567.41L2873.38 1526.24C2871.06 1524.14 2871.06 1520.54 2873.38 1518.44L2918.68 1477.26C2920.71 1475.46 2923.78 1475.61 2925.58 1477.56C2927.38 1479.59 2927.31 1482.66 2925.28 1484.46L2889.01 1517.46H2970.73C2973.42 1517.46 2975.61 1519.64 2975.61 1522.34C2975.61 1525.03 2973.42 1527.21 2970.73 1527.21H2889.01L2925.28 1560.21C2927.23 1562.01 2927.38 1565.09 2925.58 1567.11Z" fill="black"/>
</g>
</g>
<g id="Heavy-L">
<g id="Outline / Arrow Left Outline_2">
<path id="Shape_2" d="M2629.58 1567.11C2628.61 1568.16 2627.33 1568.69 2625.98 1568.69C2624.78 1568.69 2623.66 1568.31 2622.68 1567.41L2577.38 1526.24C2575.06 1524.14 2575.06 1520.54 2577.38 1518.44L2622.68 1477.26C2624.71 1475.46 2627.78 1475.61 2629.58 1477.56C2631.38 1479.59 2631.31 1482.66 2629.28 1484.46L2593.01 1517.46H2674.73C2677.42 1517.46 2679.61 1519.64 2679.61 1522.34C2679.61 1525.03 2677.42 1527.21 2674.73 1527.21H2593.01L2629.28 1560.21C2631.23 1562.01 2631.38 1565.09 2629.58 1567.11Z" fill="black"/>
</g>
</g>
<g id="Bold-L">
<g id="Outline / Arrow Left Outline_3">
<path id="Shape_3" d="M2333.58 1567.11C2332.61 1568.16 2331.33 1568.69 2329.98 1568.69C2328.78 1568.69 2327.66 1568.31 2326.68 1567.41L2281.38 1526.24C2279.06 1524.14 2279.06 1520.54 2281.38 1518.44L2326.68 1477.26C2328.71 1475.46 2331.78 1475.61 2333.58 1477.56C2335.38 1479.59 2335.31 1482.66 2333.28 1484.46L2297.01 1517.46H2378.73C2381.42 1517.46 2383.61 1519.64 2383.61 1522.34C2383.61 1525.03 2381.42 1527.21 2378.73 1527.21H2297.01L2333.28 1560.21C2335.23 1562.01 2335.38 1565.09 2333.58 1567.11Z" fill="black"/>
</g>
</g>
<g id="Semibold-L">
<g id="Outline / Arrow Left Outline_4">
<path id="Shape_4" d="M2037.58 1567.11C2036.61 1568.16 2035.33 1568.69 2033.98 1568.69C2032.78 1568.69 2031.66 1568.31 2030.68 1567.41L1985.38 1526.24C1983.06 1524.14 1983.06 1520.54 1985.38 1518.44L2030.68 1477.26C2032.71 1475.46 2035.78 1475.61 2037.58 1477.56C2039.38 1479.59 2039.31 1482.66 2037.28 1484.46L2001.01 1517.46H2082.73C2085.42 1517.46 2087.61 1519.64 2087.61 1522.34C2087.61 1525.03 2085.42 1527.21 2082.73 1527.21H2001.01L2037.28 1560.21C2039.23 1562.01 2039.38 1565.09 2037.58 1567.11Z" fill="black"/>
</g>
</g>
<g id="Medium-L">
<g id="Outline / Arrow Left Outline_5">
<path id="Shape_5" d="M1741.58 1567.11C1740.61 1568.16 1739.33 1568.69 1737.98 1568.69C1736.78 1568.69 1735.66 1568.31 1734.68 1567.41L1689.38 1526.24C1687.06 1524.14 1687.06 1520.54 1689.38 1518.44L1734.68 1477.26C1736.71 1475.46 1739.78 1475.61 1741.58 1477.56C1743.38 1479.59 1743.31 1482.66 1741.28 1484.46L1705.01 1517.46H1786.73C1789.42 1517.46 1791.61 1519.64 1791.61 1522.34C1791.61 1525.03 1789.42 1527.21 1786.73 1527.21H1705.01L1741.28 1560.21C1743.23 1562.01 1743.38 1565.09 1741.58 1567.11Z" fill="black"/>
</g>
</g>
<g id="Regular-L">
<g id="Outline / Arrow Left Outline_6">
<path id="Shape_6" d="M1445.58 1567.11C1444.61 1568.16 1443.33 1568.69 1441.98 1568.69C1440.78 1568.69 1439.66 1568.31 1438.68 1567.41L1393.38 1526.24C1391.06 1524.14 1391.06 1520.54 1393.38 1518.44L1438.68 1477.26C1440.71 1475.46 1443.78 1475.61 1445.58 1477.56C1447.38 1479.59 1447.31 1482.66 1445.28 1484.46L1409.01 1517.46H1490.73C1493.42 1517.46 1495.61 1519.64 1495.61 1522.34C1495.61 1525.03 1493.42 1527.21 1490.73 1527.21H1409.01L1445.28 1560.21C1447.23 1562.01 1447.38 1565.09 1445.58 1567.11Z" fill="black"/>
</g>
</g>
<g id="Light-L">
<g id="Outline / Arrow Left Outline_7">
<path id="Shape_7" d="M1149.58 1567.11C1148.61 1568.16 1147.33 1568.69 1145.98 1568.69C1144.78 1568.69 1143.66 1568.31 1142.68 1567.41L1097.38 1526.24C1095.06 1524.14 1095.06 1520.54 1097.38 1518.44L1142.68 1477.26C1144.71 1475.46 1147.78 1475.61 1149.58 1477.56C1151.38 1479.59 1151.31 1482.66 1149.28 1484.46L1113.01 1517.46H1194.73C1197.42 1517.46 1199.61 1519.64 1199.61 1522.34C1199.61 1525.03 1197.42 1527.21 1194.73 1527.21H1113.01L1149.28 1560.21C1151.23 1562.01 1151.38 1565.09 1149.58 1567.11Z" fill="black"/>
</g>
</g>
<g id="Thin-L">
<g id="Outline / Arrow Left Outline_8">
<path id="Shape_8" d="M853.58 1567.11C852.605 1568.16 851.33 1568.69 849.98 1568.69C848.78 1568.69 847.655 1568.31 846.68 1567.41L801.38 1526.24C799.055 1524.14 799.055 1520.54 801.38 1518.44L846.68 1477.26C848.705 1475.46 851.78 1475.61 853.58 1477.56C855.38 1479.59 855.305 1482.66 853.28 1484.46L817.013 1517.46H898.73C901.423 1517.46 903.605 1519.64 903.605 1522.34C903.605 1525.03 901.423 1527.21 898.73 1527.21H817.013L853.28 1560.21C855.23 1562.01 855.38 1565.09 853.58 1567.11Z" fill="black"/>
</g>
</g>
<g id="Ultralight-L">
<g id="Outline / Arrow Left Outline_9">
<path id="Shape_9" d="M557.58 1567.11C556.605 1568.16 555.33 1568.69 553.98 1568.69C552.78 1568.69 551.655 1568.31 550.68 1567.41L505.38 1526.24C503.055 1524.14 503.055 1520.54 505.38 1518.44L550.68 1477.26C552.705 1475.46 555.78 1475.61 557.58 1477.56C559.38 1479.59 559.305 1482.66 557.28 1484.46L521.013 1517.46H602.73C605.423 1517.46 607.605 1519.64 607.605 1522.34C607.605 1525.03 605.423 1527.21 602.73 1527.21H521.013L557.28 1560.21C559.23 1562.01 559.38 1565.09 557.58 1567.11Z" fill="black"/>
</g>
</g>
<g id="Black-M">
<g id="Outline / Arrow Left Outline_10">
<path id="Shape_10" d="M2926.34 1126.86C2925.58 1127.68 2924.59 1128.09 2923.54 1128.09C2922.61 1128.09 2921.73 1127.8 2920.97 1127.1L2885.74 1095.07C2883.93 1093.44 2883.93 1090.64 2885.74 1089.01L2920.97 1056.98C2922.55 1055.58 2924.94 1055.7 2926.34 1057.21C2927.74 1058.79 2927.68 1061.18 2926.11 1062.58L2897.9 1088.25H2961.46C2963.55 1088.25 2965.25 1089.95 2965.25 1092.04C2965.25 1094.13 2963.55 1095.83 2961.46 1095.83H2897.9L2926.11 1121.5C2927.62 1122.9 2927.74 1125.29 2926.34 1126.86Z" fill="black"/>
</g>
</g>
<g id="Heavy-M">
<g id="Outline / Arrow Left Outline_11">
<path id="Shape_11" d="M2630.34 1126.86C2629.58 1127.68 2628.59 1128.09 2627.54 1128.09C2626.61 1128.09 2625.73 1127.8 2624.97 1127.1L2589.74 1095.07C2587.93 1093.44 2587.93 1090.64 2589.74 1089.01L2624.97 1056.98C2626.55 1055.58 2628.94 1055.7 2630.34 1057.21C2631.74 1058.79 2631.68 1061.18 2630.11 1062.58L2601.9 1088.25H2665.46C2667.55 1088.25 2669.25 1089.95 2669.25 1092.04C2669.25 1094.13 2667.55 1095.83 2665.46 1095.83H2601.9L2630.11 1121.5C2631.62 1122.9 2631.74 1125.29 2630.34 1126.86Z" fill="black"/>
</g>
</g>
<g id="Bold-M">
<g id="Outline / Arrow Left Outline_12">
<path id="Shape_12" d="M2334.34 1126.86C2333.58 1127.68 2332.59 1128.09 2331.54 1128.09C2330.61 1128.09 2329.73 1127.8 2328.97 1127.1L2293.74 1095.07C2291.93 1093.44 2291.93 1090.64 2293.74 1089.01L2328.97 1056.98C2330.55 1055.58 2332.94 1055.7 2334.34 1057.21C2335.74 1058.79 2335.68 1061.18 2334.11 1062.58L2305.9 1088.25H2369.46C2371.55 1088.25 2373.25 1089.95 2373.25 1092.04C2373.25 1094.13 2371.55 1095.83 2369.46 1095.83H2305.9L2334.11 1121.5C2335.62 1122.9 2335.74 1125.29 2334.34 1126.86Z" fill="black"/>
</g>
</g>
<g id="Semibold-M">
<g id="Outline / Arrow Left Outline_13">
<path id="Shape_13" d="M2038.34 1126.86C2037.58 1127.68 2036.59 1128.09 2035.54 1128.09C2034.61 1128.09 2033.73 1127.8 2032.97 1127.1L1997.74 1095.07C1995.93 1093.44 1995.93 1090.64 1997.74 1089.01L2032.97 1056.98C2034.55 1055.58 2036.94 1055.7 2038.34 1057.21C2039.74 1058.79 2039.68 1061.18 2038.11 1062.58L2009.9 1088.25H2073.46C2075.55 1088.25 2077.25 1089.95 2077.25 1092.04C2077.25 1094.13 2075.55 1095.83 2073.46 1095.83H2009.9L2038.11 1121.5C2039.62 1122.9 2039.74 1125.29 2038.34 1126.86Z" fill="black"/>
</g>
</g>
<g id="Medium-M">
<g id="Outline / Arrow Left Outline_14">
<path id="Shape_14" d="M1742.34 1126.86C1741.58 1127.68 1740.59 1128.09 1739.54 1128.09C1738.61 1128.09 1737.73 1127.8 1736.97 1127.1L1701.74 1095.07C1699.93 1093.44 1699.93 1090.64 1701.74 1089.01L1736.97 1056.98C1738.55 1055.58 1740.94 1055.7 1742.34 1057.21C1743.74 1058.79 1743.68 1061.18 1742.11 1062.58L1713.9 1088.25H1777.46C1779.55 1088.25 1781.25 1089.95 1781.25 1092.04C1781.25 1094.13 1779.55 1095.83 1777.46 1095.83H1713.9L1742.11 1121.5C1743.62 1122.9 1743.74 1125.29 1742.34 1126.86Z" fill="black"/>
</g>
</g>
<g id="Regular-M">
<g id="Outline / Arrow Left Outline_15">
<path id="Shape_15" d="M1446.34 1126.86C1445.58 1127.68 1444.59 1128.09 1443.54 1128.09C1442.61 1128.09 1441.73 1127.8 1440.97 1127.1L1405.74 1095.07C1403.93 1093.44 1403.93 1090.64 1405.74 1089.01L1440.97 1056.98C1442.55 1055.58 1444.94 1055.7 1446.34 1057.21C1447.74 1058.79 1447.68 1061.18 1446.11 1062.58L1417.9 1088.25H1481.46C1483.55 1088.25 1485.25 1089.95 1485.25 1092.04C1485.25 1094.13 1483.55 1095.83 1481.46 1095.83H1417.9L1446.11 1121.5C1447.62 1122.9 1447.74 1125.29 1446.34 1126.86Z" fill="black"/>
</g>
</g>
<g id="Light-M">
<g id="Outline / Arrow Left Outline_16">
<path id="Shape_16" d="M1150.34 1126.86C1149.58 1127.68 1148.59 1128.09 1147.54 1128.09C1146.61 1128.09 1145.73 1127.8 1144.97 1127.1L1109.74 1095.07C1107.93 1093.44 1107.93 1090.64 1109.74 1089.01L1144.97 1056.98C1146.55 1055.58 1148.94 1055.7 1150.34 1057.21C1151.74 1058.79 1151.68 1061.18 1150.11 1062.58L1121.9 1088.25H1185.46C1187.55 1088.25 1189.25 1089.95 1189.25 1092.04C1189.25 1094.13 1187.55 1095.83 1185.46 1095.83H1121.9L1150.11 1121.5C1151.62 1122.9 1151.74 1125.29 1150.34 1126.86Z" fill="black"/>
</g>
</g>
<g id="Thin-M">
<g id="Outline / Arrow Left Outline_17">
<path id="Shape_17" d="M854.339 1126.86C853.581 1127.68 852.589 1128.09 851.539 1128.09C850.606 1128.09 849.731 1127.8 848.972 1127.1L813.739 1095.07C811.931 1093.44 811.931 1090.64 813.739 1089.01L848.972 1056.98C850.547 1055.58 852.939 1055.7 854.339 1057.21C855.739 1058.79 855.681 1061.18 854.106 1062.58L825.898 1088.25H889.456C891.55 1088.25 893.247 1089.95 893.247 1092.04C893.247 1094.13 891.55 1095.83 889.456 1095.83H825.898L854.106 1121.5C855.622 1122.9 855.739 1125.29 854.339 1126.86Z" fill="black"/>
</g>
</g>
<g id="Ultralight-M">
<g id="Outline / Arrow Left Outline_18">
<path id="Shape_18" d="M558.339 1126.86C557.581 1127.68 556.589 1128.09 555.539 1128.09C554.606 1128.09 553.731 1127.8 552.972 1127.1L517.739 1095.07C515.931 1093.44 515.931 1090.64 517.739 1089.01L552.972 1056.98C554.547 1055.58 556.939 1055.7 558.339 1057.21C559.739 1058.79 559.681 1061.18 558.106 1062.58L529.898 1088.25H593.456C595.55 1088.25 597.247 1089.95 597.247 1092.04C597.247 1094.13 595.55 1095.83 593.456 1095.83H529.898L558.106 1121.5C559.622 1122.9 559.739 1125.29 558.339 1126.86Z" fill="black"/>
</g>
</g>
<g id="Black-S">
<g id="Outline / Arrow Left Outline_19">
<path id="Shape_19" d="M2927.1 686.617C2926.56 687.201 2925.85 687.492 2925.1 687.492C2924.43 687.492 2923.81 687.284 2923.27 686.784L2898.1 663.909C2896.81 662.742 2896.81 660.742 2898.1 659.576L2923.27 636.701C2924.39 635.701 2926.1 635.784 2927.1 636.867C2928.1 637.992 2928.06 639.701 2926.93 640.701L2906.79 659.034H2952.18C2953.68 659.034 2954.89 660.247 2954.89 661.742C2954.89 663.238 2953.68 664.451 2952.18 664.451H2906.79L2926.93 682.784C2928.02 683.784 2928.1 685.492 2927.1 686.617Z" fill="black"/>
</g>
</g>
<g id="Heavy-S">
<g id="Outline / Arrow Left Outline_20">
<path id="Shape_20" d="M2631.1 686.617C2630.56 687.201 2629.85 687.492 2629.1 687.492C2628.43 687.492 2627.81 687.284 2627.27 686.784L2602.1 663.909C2600.81 662.742 2600.81 660.742 2602.1 659.576L2627.27 636.701C2628.39 635.701 2630.1 635.784 2631.1 636.867C2632.1 637.992 2632.06 639.701 2630.93 640.701L2610.79 659.034H2656.18C2657.68 659.034 2658.89 660.247 2658.89 661.742C2658.89 663.238 2657.68 664.451 2656.18 664.451H2610.79L2630.93 682.784C2632.02 683.784 2632.1 685.492 2631.1 686.617Z" fill="black"/>
</g>
</g>
<g id="Bold-S">
<g id="Outline / Arrow Left Outline_21">
<path id="Shape_21" d="M2335.1 686.617C2334.56 687.201 2333.85 687.492 2333.1 687.492C2332.43 687.492 2331.81 687.284 2331.27 686.784L2306.1 663.909C2304.81 662.742 2304.81 660.742 2306.1 659.576L2331.27 636.701C2332.39 635.701 2334.1 635.784 2335.1 636.867C2336.1 637.992 2336.06 639.701 2334.93 640.701L2314.79 659.034H2360.18C2361.68 659.034 2362.89 660.247 2362.89 661.742C2362.89 663.238 2361.68 664.451 2360.18 664.451H2314.79L2334.93 682.784C2336.02 683.784 2336.1 685.492 2335.1 686.617Z" fill="black"/>
</g>
</g>
<g id="Semibold-S">
<g id="Outline / Arrow Left Outline_22">
<path id="Shape_22" d="M2039.1 686.617C2038.56 687.201 2037.85 687.492 2037.1 687.492C2036.43 687.492 2035.81 687.284 2035.27 686.784L2010.1 663.909C2008.81 662.742 2008.81 660.742 2010.1 659.576L2035.27 636.701C2036.39 635.701 2038.1 635.784 2039.1 636.867C2040.1 637.992 2040.06 639.701 2038.93 640.701L2018.79 659.034H2064.18C2065.68 659.034 2066.89 660.247 2066.89 661.742C2066.89 663.238 2065.68 664.451 2064.18 664.451H2018.79L2038.93 682.784C2040.02 683.784 2040.1 685.492 2039.1 686.617Z" fill="black"/>
</g>
</g>
<g id="Medium-S">
<g id="Outline / Arrow Left Outline_23">
<path id="Shape_23" d="M1743.1 686.617C1742.56 687.201 1741.85 687.492 1741.1 687.492C1740.43 687.492 1739.81 687.284 1739.27 686.784L1714.1 663.909C1712.81 662.742 1712.81 660.742 1714.1 659.576L1739.27 636.701C1740.39 635.701 1742.1 635.784 1743.1 636.867C1744.1 637.992 1744.06 639.701 1742.93 640.701L1722.79 659.034H1768.18C1769.68 659.034 1770.89 660.247 1770.89 661.742C1770.89 663.238 1769.68 664.451 1768.18 664.451H1722.79L1742.93 682.784C1744.02 683.784 1744.1 685.492 1743.1 686.617Z" fill="black"/>
</g>
</g>
<g id="Regular-S">
<g id="Outline / Arrow Left Outline_24">
<path id="Shape_24" d="M1447.1 686.617C1446.56 687.201 1445.85 687.492 1445.1 687.492C1444.43 687.492 1443.81 687.284 1443.27 686.784L1418.1 663.909C1416.81 662.742 1416.81 660.742 1418.1 659.576L1443.27 636.701C1444.39 635.701 1446.1 635.784 1447.1 636.867C1448.1 637.992 1448.06 639.701 1446.93 640.701L1426.79 659.034H1472.18C1473.68 659.034 1474.89 660.247 1474.89 661.742C1474.89 663.238 1473.68 664.451 1472.18 664.451H1426.79L1446.93 682.784C1448.02 683.784 1448.1 685.492 1447.1 686.617Z" fill="black"/>
</g>
</g>
<g id="Light-S">
<g id="Outline / Arrow Left Outline_25">
<path id="Shape_25" d="M1151.1 686.617C1150.56 687.201 1149.85 687.492 1149.1 687.492C1148.43 687.492 1147.81 687.284 1147.27 686.784L1122.1 663.909C1120.81 662.742 1120.81 660.742 1122.1 659.576L1147.27 636.701C1148.39 635.701 1150.1 635.784 1151.1 636.867C1152.1 637.992 1152.06 639.701 1150.93 640.701L1130.79 659.034H1176.18C1177.68 659.034 1178.89 660.247 1178.89 661.742C1178.89 663.238 1177.68 664.451 1176.18 664.451H1130.79L1150.93 682.784C1152.02 683.784 1152.1 685.492 1151.1 686.617Z" fill="black"/>
</g>
</g>
<g id="Thin-S">
<g id="Outline / Arrow Left Outline_26">
<path id="Shape_26" d="M855.102 686.617C854.56 687.201 853.852 687.492 853.102 687.492C852.435 687.492 851.81 687.284 851.268 686.784L826.102 663.909C824.81 662.742 824.81 660.742 826.102 659.576L851.268 636.701C852.393 635.701 854.102 635.784 855.102 636.867C856.102 637.992 856.06 639.701 854.935 640.701L834.786 659.034H880.185C881.681 659.034 882.893 660.247 882.893 661.742C882.893 663.238 881.681 664.451 880.185 664.451H834.786L854.935 682.784C856.018 683.784 856.102 685.492 855.102 686.617Z" fill="black"/>
</g>
</g>
<g id="Ultralight-S">
<g id="Outline / Arrow Left Outline_27">
<path id="Shape_27" d="M559.102 686.617C558.56 687.201 557.852 687.492 557.102 687.492C556.435 687.492 555.81 687.284 555.268 686.784L530.102 663.909C528.81 662.742 528.81 660.742 530.102 659.576L555.268 636.701C556.393 635.701 558.102 635.784 559.102 636.867C560.102 637.992 560.06 639.701 558.935 640.701L538.786 659.034H584.185C585.681 659.034 586.893 660.247 586.893 661.742C586.893 663.238 585.681 664.451 584.185 664.451H538.786L558.935 682.784C560.018 683.784 560.102 685.492 559.102 686.617Z" fill="black"/>
</g>
</g>
</g>
</g>
<defs>
<clipPath id="clip0_805_27002">
<rect width="3300" height="2200" fill="white"/>
</clipPath>
</defs>
</svg>
