<svg xmlns="http://www.w3.org/2000/svg" width="3300" height="2200" fill="none"><path fill="#E5E5E5" d="M0 0h3300v2200H0z"/><g id="Category / Solid / Diamond" clip-path="url(#clip0_0_1)"><g id="Notes"><path id="artboard" fill="#fff" d="M3300 0H0v2200h3300V0Z"/><path id="Vector" stroke="#000" stroke-width=".5" d="M263 292h2773"/><text xml:space="preserve" id="Weight/Scale Variations" fill="#000" font-family="Roboto" font-size="12" letter-spacing="0em" style="white-space:pre"><tspan x="263" y="321.102">Weight/Scale Variations</tspan></text><text xml:space="preserve" id="Ultralight" fill="#000" font-family="Roboto" font-size="12" letter-spacing="0em" style="white-space:pre"><tspan x="535.211" y="321.102">Ultralight</tspan></text><text xml:space="preserve" id="Thin" fill="#000" font-family="Roboto" font-size="12" letter-spacing="0em" style="white-space:pre"><tspan x="844.422" y="321.102">Thin</tspan></text><text xml:space="preserve" id="Light" fill="#000" font-family="Roboto" font-size="12" letter-spacing="0em" style="white-space:pre"><tspan x="1139.63" y="321.102">Light</tspan></text><text xml:space="preserve" id="Regular" fill="#000" font-family="Roboto" font-size="12" letter-spacing="0em" style="white-space:pre"><tspan x="1429.34" y="321.102">Regular</tspan></text><text xml:space="preserve" id="Medium" fill="#000" font-family="Roboto" font-size="12" letter-spacing="0em" style="white-space:pre"><tspan x="1724.56" y="321.102">Medium</tspan></text><text xml:space="preserve" id="Semibold" fill="#000" font-family="Roboto" font-size="12" letter-spacing="0em" style="white-space:pre"><tspan x="2017.77" y="321.102">Semibold</tspan></text><text xml:space="preserve" id="Bold" fill="#000" font-family="Roboto" font-size="12" letter-spacing="0em" style="white-space:pre"><tspan x="2327.48" y="321.102">Bold</tspan></text><text xml:space="preserve" id="Heavy" fill="#000" font-family="Roboto" font-size="12" letter-spacing="0em" style="white-space:pre"><tspan x="2620.19" y="321.102">Heavy</tspan></text><text xml:space="preserve" id="Black" fill="#000" font-family="Roboto" font-size="12" letter-spacing="0em" style="white-space:pre"><tspan x="2918.4" y="321.102">Black</tspan></text><path id="Vector_2" stroke="#000" stroke-width=".5" d="M263 1903h2773"/><g id="Group"><path id="Vector_3" fill="#000" d="M272.248 1933.83c4.307 0 7.891-3.57 7.891-7.88 0-4.31-3.594-7.88-7.901-7.88-4.297 0-7.871 3.57-7.871 7.88 0 4.31 3.584 7.88 7.881 7.88Zm0-1.48c-3.545 0-6.377-2.84-6.377-6.4 0-3.55 2.822-6.4 6.367-6.4a6.388 6.388 0 0 1 6.406 6.4 6.361 6.361 0 0 1-6.396 6.4Zm-.019-2.78c.468 0 .742-.31.742-.83v-2.06h2.226c.498 0 .84-.25.84-.72 0-.48-.322-.74-.84-.74h-2.226v-2.23c0-.52-.274-.84-.742-.84-.469 0-.723.34-.723.84v2.23h-2.207c-.518 0-.85.26-.85.74 0 .47.352.72.85.72h2.207v2.06c0 .5.254.83.723.83Z"/></g><g id="Group_2"><path id="Vector_4" fill="#000" d="M293.215 1935.91c5.449 0 9.961-4.51 9.961-9.96 0-5.44-4.522-9.96-9.971-9.96-5.439 0-9.951 4.52-9.951 9.96 0 5.45 4.521 9.96 9.961 9.96Zm0-1.66a8.26 8.26 0 0 1-8.291-8.3c0-4.6 3.672-8.3 8.281-8.3a8.29 8.29 0 0 1 8.311 8.3 8.263 8.263 0 0 1-8.301 8.3Zm-.02-3.66c.518 0 .83-.36.83-.93v-2.89h3.057c.547 0 .928-.28.928-.8 0-.53-.362-.83-.928-.83h-3.057v-3.07c0-.57-.312-.93-.83-.93-.517 0-.81.38-.81.93v3.07h-3.047c-.567 0-.938.3-.938.83 0 .52.391.8.938.8h3.047v2.89c0 .55.293.93.81.93Z"/></g><g id="Group_3"><path id="Vector_5" fill="#000" d="M319.895 1938.67c6.962 0 12.724-5.75 12.724-12.71 0-6.97-5.771-12.72-12.734-12.72-6.953 0-12.705 5.75-12.705 12.72 0 6.96 5.761 12.71 12.715 12.71Zm0-1.81a10.874 10.874 0 0 1-10.889-10.9c0-6.04 4.844-10.9 10.879-10.9 6.045 0 10.898 4.86 10.908 10.9a10.87 10.87 0 0 1-10.898 10.9Zm-.02-4.93c.566 0 .918-.39.918-.99v-4.07h4.238c.586 0 1.006-.34 1.006-.89 0-.58-.39-.92-1.006-.92h-4.238v-4.25c0-.61-.352-1.01-.918-1.01-.566 0-.889.41-.889 1.01v4.25h-4.228c-.615 0-1.026.34-1.026.92 0 .55.43.89 1.026.89h4.228v4.07c0 .58.323.99.889.99Z"/></g><text xml:space="preserve" id="Design Variations" fill="#000" font-family="Roboto" font-size="12" letter-spacing="0em" style="white-space:pre"><tspan x="263" y="1952.1">Design Variations</tspan></text><text xml:space="preserve" id="Symbols are supported in up to nine weights and three scales." fill="#000" font-family="Roboto" font-size="12" letter-spacing="0em" style="white-space:pre"><tspan x="263" y="1970.1">Symbols are supported in up to nine weights and three scales.</tspan></text><text xml:space="preserve" id="For optimal layout with text and other symbols, vertically align" fill="#000" font-family="Roboto" font-size="12" letter-spacing="0em" style="white-space:pre"><tspan x="263" y="1988.1">For optimal layout with text and other symbols, vertically align</tspan></text><text xml:space="preserve" id="symbols with the adjacent text." fill="#000" font-family="Roboto" font-size="12" letter-spacing="0em" style="white-space:pre"><tspan x="263" y="2006.1">symbols with the adjacent text.</tspan></text><path id="Vector_6" fill="#00AEEF" d="M779 1919h-3v14h3v-14Z" opacity=".4"/><g id="Group_4"><path id="Vector_7" fill="#000" d="M789.527 1933h1.846l-5.195-14.09h-1.739l-5.195 14.09h1.846l1.416-4.04h5.605l1.416 4.04Zm-4.248-11.96h.059l2.256 6.43h-4.571l2.256-6.43Z"/></g><path id="Vector_8" fill="#00AEEF" d="M794.617 1919h-3v14h3v-14Z" opacity=".4"/><text xml:space="preserve" id="Margins" fill="#000" font-family="Roboto" font-size="12" letter-spacing="0em" style="white-space:pre"><tspan x="776" y="1952.1">Margins</tspan></text><text xml:space="preserve" id="Leading and trailing margins on the left and right side of each symbol" fill="#000" font-family="Roboto" font-size="12" letter-spacing="0em" style="white-space:pre"><tspan x="776" y="1970.1">Leading and trailing margins on the left and right side of each symbol</tspan></text><text xml:space="preserve" id="can be adjusted by modifying the width of the blue rectangles." fill="#000" font-family="Roboto" font-size="12" letter-spacing="0em" style="white-space:pre"><tspan x="776" y="1988.1">can be adjusted by modifying the width of the blue rectangles.</tspan></text><text xml:space="preserve" id="Modifications are automatically applied proportionally to all" fill="#000" font-family="Roboto" font-size="12" letter-spacing="0em" style="white-space:pre"><tspan x="776" y="2006.1">Modifications are automatically applied proportionally to all</tspan></text><text xml:space="preserve" id="scales and weights." fill="#000" font-family="Roboto" font-size="12" letter-spacing="0em" style="white-space:pre"><tspan x="776" y="2024.1">scales and weights.</tspan></text><g id="Group_5"><path id="Vector_9" fill="#000" d="m1291.83 1936.11 1.54 1.55c.85.83 1.82.76 2.69-.2l10.21-11.12c.43.29.83.28 1.29.18l1.05-.21.69.69-.05.52c-.06.53.1.95.6 1.45l.81.81c.51.5 1.16.53 1.64.05l3.25-3.25c.48-.48.46-1.13-.05-1.64l-.82-.82c-.49-.5-.91-.67-1.44-.59l-.53.05-.65-.66.28-1.14c.15-.57 0-1.04-.63-1.64l-2.41-2.39c-3.54-3.53-8.07-3.42-11.19-.29-.42.43-.47 1.02-.19 1.45.23.37.71.59 1.35.43 1.52-.38 3.03-.27 4.51.74l-.62 1.58c-.23.59-.22 1.07.02 1.5l-11.16 10.28c-.94.87-1.05 1.81-.19 2.67Zm7.84-18.26c2.67-1.99 5.98-1.68 8.38.73l2.63 2.61c.23.24.26.42.2.72l-.38 1.56 1.58 1.57.96-.09c.29-.03.37-.01.6.22l.62.62-2.75 2.75-.63-.62c-.22-.22-.24-.32-.21-.6l.09-.96-1.57-1.56-1.62.31c-.28.06-.43.06-.66-.19l-2.18-2.17c-.22-.24-.25-.38-.12-.7l.94-2.27c-1.6-1.54-3.71-2.39-5.75-1.73-.09.03-.16.01-.19-.03-.02-.05-.02-.1.06-.17Zm-6.57 17.56c-.49-.5-.31-.8.02-1.1l10.96-10.12 1.23 1.23-10.16 10.93c-.3.33-.68.43-1.08.03l-.97-.97Z"/></g><text xml:space="preserve" id="Exporting" fill="#000" font-family="Roboto" font-size="12" letter-spacing="0em" style="white-space:pre"><tspan x="1289" y="1952.1">Exporting</tspan></text><text xml:space="preserve" id="Symbols should be outlined when exporting to ensure the" fill="#000" font-family="Roboto" font-size="12" letter-spacing="0em" style="white-space:pre"><tspan x="1289" y="1970.1">Symbols should be outlined when exporting to ensure the</tspan></text><text xml:space="preserve" id="design is preserved when submitting to Xcode." fill="#000" font-family="Roboto" font-size="12" letter-spacing="0em" style="white-space:pre"><tspan x="1289" y="1988.1">design is preserved when submitting to Xcode.</tspan></text><text xml:space="preserve" id="template-version" fill="#000" font-family="Roboto" font-size="12" letter-spacing="0em" style="white-space:pre"><tspan x="2958" y="1932.1">Template v.1.0</tspan></text><text xml:space="preserve" id="Generated from pencil.circle" fill="#000" font-family="Roboto" font-size="12" letter-spacing="0em" style="white-space:pre"><tspan x="2885" y="1950.1">Generated from pencil.circle</tspan></text><text xml:space="preserve" id="Typeset at 100 points" fill="#000" font-family="Roboto" font-size="12" letter-spacing="0em" style="white-space:pre"><tspan x="2921" y="1968.1">Typeset at 100 points</tspan></text><text xml:space="preserve" id="Small" fill="#000" font-family="Roboto" font-size="12" letter-spacing="0em" style="white-space:pre"><tspan x="263" y="725.102">Small</tspan></text><text xml:space="preserve" id="Medium_2" fill="#000" font-family="Roboto" font-size="12" letter-spacing="0em" style="white-space:pre"><tspan x="263" y="1155.1">Medium</tspan></text><text xml:space="preserve" id="Large" fill="#000" font-family="Roboto" font-size="12" letter-spacing="0em" style="white-space:pre"><tspan x="263" y="1585.1">Large</tspan></text></g><g id="Guides"><g id="H-reference"><path id="Vector_10" fill="#27AAE1" d="M393.932 695.998h2.734l-27.1-70.459h-2.49l-27.099 70.459h2.685l9.278-24.463h32.763l9.229 24.463Zm-25.733-67.09h.244l15.381 40.381h-31.006l15.381-40.381Z"/></g><path id="Baseline-S" stroke="#27AAE1" stroke-width=".577" d="M263 696h2773"/><path id="Capline-S" stroke="#27AAE1" stroke-width=".577" d="M263 626h2773"/><g id="H-reference_2"><path id="Vector_11" fill="#27AAE1" d="M393.932 1126h2.734l-27.1-70.46h-2.49L339.977 1126h2.685l9.278-24.46h32.763l9.229 24.46Zm-25.733-67.09h.244l15.381 40.38h-31.006l15.381-40.38Z"/></g><path id="Baseline-M" stroke="#27AAE1" stroke-width=".577" d="M263 1126h2773"/><path id="Capline-M" stroke="#27AAE1" stroke-width=".577" d="M263 1056h2773"/><g id="H-reference_3"><path id="Vector_12" fill="#27AAE1" d="M393.932 1556h2.734l-27.1-70.46h-2.49L339.977 1556h2.685l9.278-24.46h32.763l9.229 24.46Zm-25.733-67.09h.244l15.381 40.38h-31.006l15.381-40.38Z"/></g><g id="Group 1" stroke="#27AAE1" stroke-width=".577"><path id="Baseline-L" d="M263 1556h2773"/><path id="Capline-L" d="M263 1486h2773"/></g><path id="left-margin" fill="#00AEEF" d="M1396.04 1030.79h-8.74v119.33h8.74v-119.33Z" opacity=".4"/><path id="right-margin" fill="#00AEEF" d="M1511.39 1030.79h-8.74v119.33h8.74v-119.33Z" opacity=".4"/></g><g id="Symbols"><g id="Black-L"><g id="Solid / Diamond Solid"><g id="Shape" fill="#000"><path d="M2861.97 1494.68c-1.27 1.45-.23 3.72 1.7 3.72h30.71c.75 0 1.44-.37 1.86-.99l22.23-32.9c1.01-1.49-.06-3.51-1.87-3.51h-20.88c-2.81 0-5.49 1.21-7.34 3.33-7.2 8.23-20.34 23.36-26.41 30.35ZM2863.33 1508.15c-1.94 0-2.99 2.26-1.71 3.71 16.66 18.97 44.78 50.75 56.39 63.87 1.1 1.24 3.08.02 2.51-1.54l-23.75-64.57a2.26 2.26 0 0 0-2.11-1.47h-31.33ZM2938.69 1573.12c-.56 1.56 1.44 2.76 2.53 1.52 11.24-12.78 38.16-43.39 55.16-62.77 1.27-1.46.23-3.72-1.7-3.72h-31.01c-.94 0-1.79.59-2.11 1.49l-22.87 63.48ZM2994.3 1498.4c1.94 0 2.97-2.27 1.7-3.73-6.1-6.99-19.3-22.13-26.53-30.35a9.74 9.74 0 0 0-7.32-3.32h-22.67c-1.85 0-2.91 2.1-1.81 3.59l24.34 32.9c.43.57 1.1.91 1.81.91h30.48ZM2950.65 1511.16c.52-1.47-.56-3.01-2.12-3.01h-38.69c-1.56 0-2.65 1.56-2.11 3.02l19.55 53.15c.72 1.97 3.51 1.96 4.23-.01l19.14-53.15ZM2947.57 1494.8c1.12 1.48.06 3.6-1.79 3.6h-33.81c-1.82 0-2.89-2.05-1.85-3.54l16.29-23.34c.87-1.26 2.72-1.29 3.64-.07l17.52 23.35Z"/></g></g></g><g id="Heavy-L"><g id="Solid / Diamond Solid_2"><g id="Shape_2" fill="#000"><path d="M2565.97 1494.68c-1.27 1.45-.23 3.72 1.7 3.72h30.71c.75 0 1.44-.37 1.86-.99l22.23-32.9c1.01-1.49-.06-3.51-1.87-3.51h-20.88c-2.81 0-5.49 1.21-7.34 3.33-7.2 8.23-20.34 23.36-26.41 30.35ZM2567.33 1508.15c-1.94 0-2.99 2.26-1.71 3.71 16.66 18.97 44.78 50.75 56.39 63.87 1.1 1.24 3.08.02 2.51-1.54l-23.75-64.57a2.26 2.26 0 0 0-2.11-1.47h-31.33ZM2642.69 1573.12c-.56 1.56 1.44 2.76 2.53 1.52 11.24-12.78 38.16-43.39 55.16-62.77 1.27-1.46.23-3.72-1.7-3.72h-31.01c-.94 0-1.79.59-2.11 1.49l-22.87 63.48ZM2698.3 1498.4c1.94 0 2.97-2.27 1.7-3.73-6.1-6.99-19.3-22.13-26.53-30.35a9.74 9.74 0 0 0-7.32-3.32h-22.67c-1.85 0-2.91 2.1-1.81 3.59l24.34 32.9c.43.57 1.1.91 1.81.91h30.48ZM2654.65 1511.16c.52-1.47-.56-3.01-2.12-3.01h-38.69c-1.56 0-2.65 1.56-2.11 3.02l19.55 53.15c.72 1.97 3.51 1.96 4.23-.01l19.14-53.15ZM2651.57 1494.8c1.12 1.48.06 3.6-1.79 3.6h-33.81c-1.82 0-2.89-2.05-1.85-3.54l16.29-23.34c.87-1.26 2.72-1.29 3.64-.07l17.52 23.35Z"/></g></g></g><g id="Bold-L"><g id="Solid / Diamond Solid_3"><g id="Shape_3" fill="#000"><path d="M2269.97 1494.68c-1.27 1.45-.23 3.72 1.7 3.72h30.71c.75 0 1.44-.37 1.86-.99l22.23-32.9c1.01-1.49-.06-3.51-1.87-3.51h-20.88c-2.81 0-5.49 1.21-7.34 3.33-7.2 8.23-20.34 23.36-26.41 30.35ZM2271.33 1508.15c-1.94 0-2.99 2.26-1.71 3.71 16.66 18.97 44.78 50.75 56.39 63.87 1.1 1.24 3.08.02 2.51-1.54l-23.75-64.57a2.26 2.26 0 0 0-2.11-1.47h-31.33ZM2346.69 1573.12c-.56 1.56 1.44 2.76 2.53 1.52 11.24-12.78 38.16-43.39 55.16-62.77 1.27-1.46.23-3.72-1.7-3.72h-31.01c-.94 0-1.79.59-2.11 1.49l-22.87 63.48ZM2402.3 1498.4c1.94 0 2.97-2.27 1.7-3.73-6.1-6.99-19.3-22.13-26.53-30.35a9.74 9.74 0 0 0-7.32-3.32h-22.67c-1.85 0-2.91 2.1-1.81 3.59l24.34 32.9c.43.57 1.1.91 1.81.91h30.48ZM2358.65 1511.16c.52-1.47-.56-3.01-2.12-3.01h-38.69c-1.56 0-2.65 1.56-2.11 3.02l19.55 53.15c.72 1.97 3.51 1.96 4.23-.01l19.14-53.15ZM2355.57 1494.8c1.12 1.48.06 3.6-1.79 3.6h-33.81c-1.82 0-2.89-2.05-1.85-3.54l16.29-23.34c.87-1.26 2.72-1.29 3.64-.07l17.52 23.35Z"/></g></g></g><g id="Semibold-L"><g id="Solid / Diamond Solid_4"><g id="Shape_4" fill="#000"><path d="M1973.97 1494.68c-1.27 1.45-.23 3.72 1.7 3.72h30.71c.75 0 1.44-.37 1.86-.99l22.23-32.9c1.01-1.49-.06-3.51-1.87-3.51h-20.88c-2.81 0-5.49 1.21-7.34 3.33-7.2 8.23-20.34 23.36-26.41 30.35ZM1975.33 1508.15c-1.94 0-2.99 2.26-1.71 3.71 16.66 18.97 44.78 50.75 56.39 63.87 1.1 1.24 3.08.02 2.51-1.54l-23.75-64.57a2.26 2.26 0 0 0-2.11-1.47h-31.33ZM2050.69 1573.12c-.56 1.56 1.44 2.76 2.53 1.52 11.24-12.78 38.16-43.39 55.16-62.77 1.27-1.46.23-3.72-1.7-3.72h-31.01c-.94 0-1.79.59-2.11 1.49l-22.87 63.48ZM2106.3 1498.4c1.94 0 2.97-2.27 1.7-3.73-6.1-6.99-19.3-22.13-26.53-30.35a9.74 9.74 0 0 0-7.32-3.32h-22.67c-1.85 0-2.91 2.1-1.81 3.59l24.34 32.9c.43.57 1.1.91 1.81.91h30.48ZM2062.65 1511.16c.52-1.47-.56-3.01-2.12-3.01h-38.69c-1.56 0-2.65 1.56-2.11 3.02l19.55 53.15c.72 1.97 3.51 1.96 4.23-.01l19.14-53.15ZM2059.57 1494.8c1.12 1.48.06 3.6-1.79 3.6h-33.81c-1.82 0-2.89-2.05-1.85-3.54l16.29-23.34c.87-1.26 2.72-1.29 3.64-.07l17.52 23.35Z"/></g></g></g><g id="Medium-L"><g id="Solid / Diamond Solid_5"><g id="Shape_5" fill="#000"><path d="M1677.97 1494.68c-1.27 1.45-.23 3.72 1.7 3.72h30.71c.75 0 1.44-.37 1.86-.99l22.23-32.9c1.01-1.49-.06-3.51-1.87-3.51h-20.88c-2.81 0-5.49 1.21-7.34 3.33-7.2 8.23-20.34 23.36-26.41 30.35ZM1679.33 1508.15c-1.94 0-2.99 2.26-1.71 3.71 16.66 18.97 44.78 50.75 56.39 63.87 1.1 1.24 3.08.02 2.51-1.54l-23.75-64.57a2.26 2.26 0 0 0-2.11-1.47h-31.33ZM1754.69 1573.12c-.56 1.56 1.44 2.76 2.53 1.52 11.24-12.78 38.16-43.39 55.16-62.77 1.27-1.46.23-3.72-1.7-3.72h-31.01c-.94 0-1.79.59-2.11 1.49l-22.87 63.48ZM1810.3 1498.4c1.94 0 2.97-2.27 1.7-3.73-6.1-6.99-19.3-22.13-26.53-30.35a9.74 9.74 0 0 0-7.32-3.32h-22.67c-1.85 0-2.91 2.1-1.81 3.59l24.34 32.9c.43.57 1.1.91 1.81.91h30.48ZM1766.65 1511.16c.52-1.47-.56-3.01-2.12-3.01h-38.69c-1.56 0-2.65 1.56-2.11 3.02l19.55 53.15c.72 1.97 3.51 1.96 4.23-.01l19.14-53.15ZM1763.57 1494.8c1.12 1.48.06 3.6-1.79 3.6h-33.81c-1.82 0-2.89-2.05-1.85-3.54l16.29-23.34c.87-1.26 2.72-1.29 3.64-.07l17.52 23.35Z"/></g></g></g><g id="Regular-L"><g id="Solid / Diamond Solid_6"><g id="Shape_6" fill="#000"><path d="M1381.97 1494.68c-1.27 1.45-.23 3.72 1.7 3.72h30.71c.75 0 1.44-.37 1.86-.99l22.23-32.9c1.01-1.49-.06-3.51-1.87-3.51h-20.88c-2.81 0-5.49 1.21-7.34 3.33-7.2 8.23-20.34 23.36-26.41 30.35ZM1383.33 1508.15c-1.94 0-2.99 2.26-1.71 3.71 16.66 18.97 44.78 50.75 56.39 63.87 1.1 1.24 3.08.02 2.51-1.54l-23.75-64.57a2.26 2.26 0 0 0-2.11-1.47h-31.33ZM1458.69 1573.12c-.56 1.56 1.44 2.76 2.53 1.52 11.24-12.78 38.16-43.39 55.16-62.77 1.27-1.46.23-3.72-1.7-3.72h-31.01c-.94 0-1.79.59-2.11 1.49l-22.87 63.48ZM1514.3 1498.4c1.94 0 2.97-2.27 1.7-3.73-6.1-6.99-19.3-22.13-26.53-30.35a9.74 9.74 0 0 0-7.32-3.32h-22.67c-1.85 0-2.91 2.1-1.81 3.59l24.34 32.9c.43.57 1.1.91 1.81.91h30.48ZM1470.65 1511.16c.52-1.47-.56-3.01-2.12-3.01h-38.69c-1.56 0-2.65 1.56-2.11 3.02l19.55 53.15c.72 1.97 3.51 1.96 4.23-.01l19.14-53.15ZM1467.57 1494.8c1.12 1.48.06 3.6-1.79 3.6h-33.81c-1.82 0-2.89-2.05-1.85-3.54l16.29-23.34c.87-1.26 2.72-1.29 3.64-.07l17.52 23.35Z"/></g></g></g><g id="Light-L"><g id="Solid / Diamond Solid_7"><g id="Shape_7" fill="#000"><path d="M1085.97 1494.68c-1.27 1.45-.23 3.72 1.7 3.72h30.71c.75 0 1.44-.37 1.86-.99l22.23-32.9c1.01-1.49-.06-3.51-1.87-3.51h-20.88c-2.81 0-5.49 1.21-7.34 3.33-7.2 8.23-20.34 23.36-26.41 30.35ZM1087.33 1508.15c-1.94 0-2.99 2.26-1.71 3.71 16.66 18.97 44.78 50.75 56.39 63.87 1.1 1.24 3.08.02 2.51-1.54l-23.75-64.57a2.26 2.26 0 0 0-2.11-1.47h-31.33ZM1162.69 1573.12c-.56 1.56 1.44 2.76 2.53 1.52 11.24-12.78 38.16-43.39 55.16-62.77 1.27-1.46.23-3.72-1.7-3.72h-31.01c-.94 0-1.79.59-2.11 1.49l-22.87 63.48ZM1218.3 1498.4c1.94 0 2.97-2.27 1.7-3.73-6.1-6.99-19.3-22.13-26.53-30.35a9.74 9.74 0 0 0-7.32-3.32h-22.67c-1.85 0-2.91 2.1-1.81 3.59l24.34 32.9c.43.57 1.1.91 1.81.91h30.48ZM1174.65 1511.16c.52-1.47-.56-3.01-2.12-3.01h-38.69c-1.56 0-2.65 1.56-2.11 3.02l19.55 53.15c.72 1.97 3.51 1.96 4.23-.01l19.14-53.15ZM1171.57 1494.8c1.12 1.48.06 3.6-1.79 3.6h-33.81c-1.82 0-2.89-2.05-1.85-3.54l16.29-23.34c.87-1.26 2.72-1.29 3.64-.07l17.52 23.35Z"/></g></g></g><g id="Thin-L"><g id="Solid / Diamond Solid_8"><g id="Shape_8" fill="#000"><path d="M789.966 1494.68c-1.265 1.45-.228 3.72 1.701 3.72h30.711c.747 0 1.446-.37 1.864-.99l22.225-32.9c1.01-1.49-.061-3.51-1.864-3.51h-20.886a9.736 9.736 0 0 0-7.338 3.33c-7.196 8.23-20.342 23.36-26.413 30.35ZM791.325 1508.15c-1.934 0-2.98 2.26-1.704 3.71 16.659 18.97 44.777 50.75 56.389 63.87 1.099 1.24 3.084.02 2.511-1.54l-23.751-64.57a2.253 2.253 0 0 0-2.111-1.47h-31.334ZM866.694 1573.12c-.561 1.56 1.432 2.76 2.525 1.52 11.239-12.78 38.161-43.39 55.161-62.77 1.275-1.46.229-3.72-1.705-3.72h-31c-.949 0-1.796.59-2.117 1.49l-22.864 63.48ZM922.305 1498.4c1.931 0 2.967-2.27 1.698-3.73-6.1-6.99-19.305-22.13-26.531-30.35a9.747 9.747 0 0 0-7.326-3.32h-22.67c-1.847 0-2.907 2.1-1.808 3.59l24.344 32.9c.424.57 1.095.91 1.809.91h30.484ZM878.646 1511.16a2.247 2.247 0 0 0-2.117-3.01h-38.687c-1.565 0-2.652 1.56-2.112 3.02l19.548 53.15c.725 1.97 3.517 1.96 4.228-.01l19.14-53.15ZM875.575 1494.8c1.113 1.48.055 3.6-1.799 3.6h-33.809c-1.819 0-2.886-2.05-1.846-3.54l16.285-23.34a2.251 2.251 0 0 1 3.645-.07l17.524 23.35Z"/></g></g></g><g id="Ultralight-L"><g id="Solid / Diamond Solid_9"><g id="Shape_9" fill="#000"><path d="M493.966 1494.68c-1.265 1.45-.228 3.72 1.701 3.72h30.711c.747 0 1.446-.37 1.864-.99l22.225-32.9c1.01-1.49-.061-3.51-1.864-3.51h-20.886a9.736 9.736 0 0 0-7.338 3.33c-7.196 8.23-20.342 23.36-26.413 30.35ZM495.325 1508.15c-1.934 0-2.98 2.26-1.704 3.71 16.659 18.97 44.777 50.75 56.389 63.87 1.099 1.24 3.084.02 2.511-1.54l-23.751-64.57a2.253 2.253 0 0 0-2.111-1.47h-31.334ZM570.694 1573.12c-.561 1.56 1.432 2.76 2.525 1.52 11.239-12.78 38.161-43.39 55.161-62.77 1.275-1.46.229-3.72-1.705-3.72h-31c-.949 0-1.796.59-2.117 1.49l-22.864 63.48ZM626.305 1498.4c1.931 0 2.967-2.27 1.698-3.73-6.1-6.99-19.305-22.13-26.531-30.35a9.747 9.747 0 0 0-7.326-3.32h-22.67c-1.847 0-2.907 2.1-1.808 3.59l24.344 32.9c.424.57 1.095.91 1.809.91h30.484ZM582.646 1511.16a2.247 2.247 0 0 0-2.117-3.01h-38.687c-1.565 0-2.652 1.56-2.112 3.02l19.548 53.15c.725 1.97 3.517 1.96 4.228-.01l19.14-53.15ZM579.575 1494.8c1.113 1.48.055 3.6-1.799 3.6h-33.809c-1.819 0-2.886-2.05-1.846-3.54l16.285-23.34a2.251 2.251 0 0 1 3.645-.07l17.524 23.35Z"/></g></g></g><g id="Black-M"><g id="Solid / Diamond Solid_10"><g id="Shape_10" fill="#000"><path d="M2876.86 1070.53c-.98 1.13-.18 2.89 1.33 2.89h23.88c.58 0 1.13-.29 1.45-.77l17.29-25.59c.78-1.16-.05-2.73-1.45-2.73h-16.25a7.6 7.6 0 0 0-5.7 2.59c-5.6 6.4-15.83 18.17-20.55 23.61ZM2877.92 1081c-1.5 0-2.32 1.76-1.33 2.89 12.96 14.76 34.83 39.47 43.86 49.67.86.97 2.4.02 1.96-1.19l-18.48-50.22c-.25-.69-.91-1.15-1.64-1.15h-24.37ZM2936.54 1131.54c-.44 1.21 1.11 2.14 1.96 1.18 8.75-9.94 29.68-33.75 42.91-48.83.99-1.13.17-2.89-1.33-2.89h-24.11c-.74 0-1.4.47-1.65 1.16l-17.78 49.38ZM2979.79 1073.42c1.5 0 2.31-1.77 1.32-2.9-4.74-5.44-15.01-17.21-20.63-23.61a7.59 7.59 0 0 0-5.7-2.58h-17.63c-1.44 0-2.26 1.64-1.41 2.79l18.94 25.59c.33.45.85.71 1.4.71h23.71ZM2945.84 1083.35c.41-1.14-.44-2.35-1.65-2.35h-30.09a1.75 1.75 0 0 0-1.64 2.36l15.2 41.33c.56 1.54 2.74 1.53 3.29-.01l14.89-41.33ZM2943.45 1070.62c.86 1.15.04 2.8-1.4 2.8h-26.3c-1.41 0-2.24-1.59-1.43-2.75l12.66-18.16c.68-.98 2.12-1 2.84-.05l13.63 18.16Z"/></g></g></g><g id="Heavy-M"><g id="Solid / Diamond Solid_11"><g id="Shape_11" fill="#000"><path d="M2580.86 1070.53c-.98 1.13-.18 2.89 1.33 2.89h23.88c.58 0 1.13-.29 1.45-.77l17.29-25.59c.78-1.16-.05-2.73-1.45-2.73h-16.25a7.6 7.6 0 0 0-5.7 2.59c-5.6 6.4-15.83 18.17-20.55 23.61ZM2581.92 1081c-1.5 0-2.32 1.76-1.33 2.89 12.96 14.76 34.83 39.47 43.86 49.67.86.97 2.4.02 1.96-1.19l-18.48-50.22c-.25-.69-.91-1.15-1.64-1.15h-24.37ZM2640.54 1131.54c-.44 1.21 1.11 2.14 1.96 1.18 8.75-9.94 29.68-33.75 42.91-48.83.99-1.13.17-2.89-1.33-2.89h-24.11c-.74 0-1.4.47-1.65 1.16l-17.78 49.38ZM2683.79 1073.42c1.5 0 2.31-1.77 1.32-2.9-4.74-5.44-15.01-17.21-20.63-23.61a7.59 7.59 0 0 0-5.7-2.58h-17.63c-1.44 0-2.26 1.64-1.41 2.79l18.94 25.59c.33.45.85.71 1.4.71h23.71ZM2649.84 1083.35c.41-1.14-.44-2.35-1.65-2.35h-30.09a1.75 1.75 0 0 0-1.64 2.36l15.2 41.33c.56 1.54 2.74 1.53 3.29-.01l14.89-41.33ZM2647.45 1070.62c.86 1.15.04 2.8-1.4 2.8h-26.3c-1.41 0-2.24-1.59-1.43-2.75l12.66-18.16c.68-.98 2.12-1 2.84-.05l13.63 18.16Z"/></g></g></g><g id="Bold-M"><g id="Solid / Diamond Solid_12"><g id="Shape_12" fill="#000"><path d="M2284.86 1070.53c-.98 1.13-.18 2.89 1.33 2.89h23.88c.58 0 1.13-.29 1.45-.77l17.29-25.59c.78-1.16-.05-2.73-1.45-2.73h-16.25a7.6 7.6 0 0 0-5.7 2.59c-5.6 6.4-15.83 18.17-20.55 23.61ZM2285.92 1081c-1.5 0-2.32 1.76-1.33 2.89 12.96 14.76 34.83 39.47 43.86 49.67.86.97 2.4.02 1.96-1.19l-18.48-50.22c-.25-.69-.91-1.15-1.64-1.15h-24.37ZM2344.54 1131.54c-.44 1.21 1.11 2.14 1.96 1.18 8.75-9.94 29.68-33.75 42.91-48.83.99-1.13.17-2.89-1.33-2.89h-24.11c-.74 0-1.4.47-1.65 1.16l-17.78 49.38ZM2387.79 1073.42c1.5 0 2.31-1.77 1.32-2.9-4.74-5.44-15.01-17.21-20.63-23.61a7.59 7.59 0 0 0-5.7-2.58h-17.63c-1.44 0-2.26 1.64-1.41 2.79l18.94 25.59c.33.45.85.71 1.4.71h23.71ZM2353.84 1083.35c.41-1.14-.44-2.35-1.65-2.35h-30.09a1.75 1.75 0 0 0-1.64 2.36l15.2 41.33c.56 1.54 2.74 1.53 3.29-.01l14.89-41.33ZM2351.45 1070.62c.86 1.15.04 2.8-1.4 2.8h-26.3c-1.41 0-2.24-1.59-1.43-2.75l12.66-18.16c.68-.98 2.12-1 2.84-.05l13.63 18.16Z"/></g></g></g><g id="Semibold-M"><g id="Solid / Diamond Solid_13"><g id="Shape_13" fill="#000"><path d="M1988.86 1070.53c-.98 1.13-.18 2.89 1.33 2.89h23.88c.58 0 1.13-.29 1.45-.77l17.29-25.59c.78-1.16-.05-2.73-1.45-2.73h-16.25a7.6 7.6 0 0 0-5.7 2.59c-5.6 6.4-15.83 18.17-20.55 23.61ZM1989.92 1081c-1.5 0-2.32 1.76-1.33 2.89 12.96 14.76 34.83 39.47 43.86 49.67.86.97 2.4.02 1.96-1.19l-18.48-50.22c-.25-.69-.91-1.15-1.64-1.15h-24.37ZM2048.54 1131.54c-.44 1.21 1.11 2.14 1.96 1.18 8.75-9.94 29.68-33.75 42.91-48.83.99-1.13.17-2.89-1.33-2.89h-24.11c-.74 0-1.4.47-1.65 1.16l-17.78 49.38ZM2091.79 1073.42c1.5 0 2.31-1.77 1.32-2.9-4.74-5.44-15.01-17.21-20.63-23.61a7.59 7.59 0 0 0-5.7-2.58h-17.63c-1.44 0-2.26 1.64-1.41 2.79l18.94 25.59c.33.45.85.71 1.4.71h23.71ZM2057.84 1083.35c.41-1.14-.44-2.35-1.65-2.35h-30.09a1.75 1.75 0 0 0-1.64 2.36l15.2 41.33c.56 1.54 2.74 1.53 3.29-.01l14.89-41.33ZM2055.45 1070.62c.86 1.15.04 2.8-1.4 2.8h-26.3c-1.41 0-2.24-1.59-1.43-2.75l12.66-18.16c.68-.98 2.12-1 2.84-.05l13.63 18.16Z"/></g></g></g><g id="Medium-M"><g id="Solid / Diamond Solid_14"><g id="Shape_14" fill="#000"><path d="M1692.86 1070.53c-.98 1.13-.18 2.89 1.33 2.89h23.88c.58 0 1.13-.29 1.45-.77l17.29-25.59c.78-1.16-.05-2.73-1.45-2.73h-16.25a7.6 7.6 0 0 0-5.7 2.59c-5.6 6.4-15.83 18.17-20.55 23.61ZM1693.92 1081c-1.5 0-2.32 1.76-1.33 2.89 12.96 14.76 34.83 39.47 43.86 49.67.86.97 2.4.02 1.96-1.19l-18.48-50.22c-.25-.69-.91-1.15-1.64-1.15h-24.37ZM1752.54 1131.54c-.44 1.21 1.11 2.14 1.96 1.18 8.75-9.94 29.68-33.75 42.91-48.83.99-1.13.17-2.89-1.33-2.89h-24.11c-.74 0-1.4.47-1.65 1.16l-17.78 49.38ZM1795.79 1073.42c1.5 0 2.31-1.77 1.32-2.9-4.74-5.44-15.01-17.21-20.63-23.61a7.59 7.59 0 0 0-5.7-2.58h-17.63c-1.44 0-2.26 1.64-1.41 2.79l18.94 25.59c.33.45.85.71 1.4.71h23.71ZM1761.84 1083.35c.41-1.14-.44-2.35-1.65-2.35h-30.09a1.75 1.75 0 0 0-1.64 2.36l15.2 41.33c.56 1.54 2.74 1.53 3.29-.01l14.89-41.33ZM1759.45 1070.62c.86 1.15.04 2.8-1.4 2.8h-26.3c-1.41 0-2.24-1.59-1.43-2.75l12.66-18.16c.68-.98 2.12-1 2.84-.05l13.63 18.16Z"/></g></g></g><g id="Regular-M"><g id="Solid / Diamond Solid_15"><g id="Shape_15" fill="#000"><path d="M1396.86 1070.53c-.98 1.13-.18 2.89 1.33 2.89h23.88c.58 0 1.13-.29 1.45-.77l17.29-25.59c.78-1.16-.05-2.73-1.45-2.73h-16.25a7.6 7.6 0 0 0-5.7 2.59c-5.6 6.4-15.83 18.17-20.55 23.61ZM1397.92 1081c-1.5 0-2.32 1.76-1.33 2.89 12.96 14.76 34.83 39.47 43.86 49.67.86.97 2.4.02 1.96-1.19l-18.48-50.22c-.25-.69-.91-1.15-1.64-1.15h-24.37ZM1456.54 1131.54c-.44 1.21 1.11 2.14 1.96 1.18 8.75-9.94 29.68-33.75 42.91-48.83.99-1.13.17-2.89-1.33-2.89h-24.11c-.74 0-1.4.47-1.65 1.16l-17.78 49.38ZM1499.79 1073.42c1.5 0 2.31-1.77 1.32-2.9-4.74-5.44-15.01-17.21-20.63-23.61a7.59 7.59 0 0 0-5.7-2.58h-17.63c-1.44 0-2.26 1.64-1.41 2.79l18.94 25.59c.33.45.85.71 1.4.71h23.71ZM1465.84 1083.35c.41-1.14-.44-2.35-1.65-2.35h-30.09a1.75 1.75 0 0 0-1.64 2.36l15.2 41.33c.56 1.54 2.74 1.53 3.29-.01l14.89-41.33ZM1463.45 1070.62c.86 1.15.04 2.8-1.4 2.8h-26.3c-1.41 0-2.24-1.59-1.43-2.75l12.66-18.16c.68-.98 2.12-1 2.84-.05l13.63 18.16Z"/></g></g></g><g id="Light-M"><g id="Solid / Diamond Solid_16"><g id="Shape_16" fill="#000"><path d="M1100.86 1070.53c-.98 1.13-.18 2.89 1.33 2.89h23.88c.58 0 1.13-.29 1.45-.77l17.29-25.59c.78-1.16-.05-2.73-1.45-2.73h-16.25a7.6 7.6 0 0 0-5.7 2.59c-5.6 6.4-15.83 18.17-20.55 23.61ZM1101.92 1081c-1.5 0-2.32 1.76-1.33 2.89 12.96 14.76 34.83 39.47 43.86 49.67.86.97 2.4.02 1.96-1.19l-18.48-50.22c-.25-.69-.91-1.15-1.64-1.15h-24.37ZM1160.54 1131.54c-.44 1.21 1.11 2.14 1.96 1.18 8.75-9.94 29.68-33.75 42.91-48.83.99-1.13.17-2.89-1.33-2.89h-24.11c-.74 0-1.4.47-1.65 1.16l-17.78 49.38ZM1203.79 1073.42c1.5 0 2.31-1.77 1.32-2.9-4.74-5.44-15.01-17.21-20.63-23.61a7.59 7.59 0 0 0-5.7-2.58h-17.63c-1.44 0-2.26 1.64-1.41 2.79l18.94 25.59c.33.45.85.71 1.4.71h23.71ZM1169.84 1083.35c.41-1.14-.44-2.35-1.65-2.35h-30.09a1.75 1.75 0 0 0-1.64 2.36l15.2 41.33c.56 1.54 2.74 1.53 3.29-.01l14.89-41.33ZM1167.45 1070.62c.86 1.15.04 2.8-1.4 2.8h-26.3c-1.41 0-2.24-1.59-1.43-2.75l12.66-18.16c.68-.98 2.12-1 2.84-.05l13.63 18.16Z"/></g></g></g><g id="Thin-M"><g id="Solid / Diamond Solid_17"><g id="Shape_17" fill="#000"><path d="M804.862 1070.53c-.984 1.13-.177 2.89 1.323 2.89h23.887c.581 0 1.124-.29 1.45-.77l17.286-25.59c.785-1.16-.048-2.73-1.45-2.73h-16.245c-2.187 0-4.267.95-5.707 2.59-5.597 6.4-15.822 18.17-20.544 23.61ZM805.92 1081c-1.505 0-2.319 1.76-1.326 2.89 12.957 14.76 34.826 39.47 43.858 49.67.855.97 2.399.02 1.953-1.19l-18.472-50.22a1.753 1.753 0 0 0-1.643-1.15h-24.37ZM864.54 1131.54c-.436 1.21 1.113 2.14 1.964 1.18 8.741-9.94 29.681-33.75 42.902-48.83.992-1.13.179-2.89-1.325-2.89h-24.112c-.738 0-1.396.47-1.646 1.16l-17.783 49.38ZM907.793 1073.42c1.501 0 2.307-1.77 1.32-2.9-4.744-5.44-15.015-17.21-20.635-23.61a7.582 7.582 0 0 0-5.698-2.58h-17.632c-1.437 0-2.261 1.64-1.407 2.79l18.935 25.59c.33.45.852.71 1.407.71h23.71ZM873.836 1083.35a1.756 1.756 0 0 0-1.647-2.35h-30.09a1.752 1.752 0 0 0-1.642 2.36l15.204 41.33c.564 1.54 2.735 1.53 3.288-.01l14.887-41.33ZM871.447 1070.62c.866 1.15.043 2.8-1.399 2.8h-26.296c-1.415 0-2.245-1.59-1.436-2.75l12.667-18.16a1.75 1.75 0 0 1 2.834-.05l13.63 18.16Z"/></g></g></g><g id="Ultralight-M"><g id="Solid / Diamond Solid_18"><g id="Shape_18" fill="#000"><path d="M508.862 1070.53c-.984 1.13-.177 2.89 1.323 2.89h23.887c.581 0 1.124-.29 1.45-.77l17.286-25.59c.785-1.16-.048-2.73-1.45-2.73h-16.245c-2.187 0-4.267.95-5.707 2.59-5.597 6.4-15.822 18.17-20.544 23.61ZM509.92 1081c-1.505 0-2.319 1.76-1.326 2.89 12.957 14.76 34.826 39.47 43.858 49.67.855.97 2.399.02 1.953-1.19l-18.472-50.22a1.753 1.753 0 0 0-1.643-1.15h-24.37ZM568.54 1131.54c-.436 1.21 1.113 2.14 1.964 1.18 8.741-9.94 29.681-33.75 42.902-48.83.992-1.13.179-2.89-1.325-2.89h-24.112c-.738 0-1.396.47-1.646 1.16l-17.783 49.38ZM611.793 1073.42c1.501 0 2.307-1.77 1.32-2.9-4.744-5.44-15.015-17.21-20.635-23.61a7.582 7.582 0 0 0-5.698-2.58h-17.632c-1.437 0-2.261 1.64-1.407 2.79l18.935 25.59c.33.45.852.71 1.407.71h23.71ZM577.836 1083.35a1.756 1.756 0 0 0-1.647-2.35h-30.09a1.752 1.752 0 0 0-1.642 2.36l15.204 41.33c.564 1.54 2.735 1.53 3.288-.01l14.887-41.33ZM575.447 1070.62c.866 1.15.043 2.8-1.399 2.8h-26.296c-1.415 0-2.245-1.59-1.436-2.75l12.667-18.16a1.75 1.75 0 0 1 2.834-.05l13.63 18.16Z"/></g></g></g><g id="Black-S"><g id="Solid / Diamond Solid_19"><g id="Shape_19" fill="#000"><path d="M2891.76 646.377c-.7.809-.13 2.068.94 2.068h17.07c.41 0 .8-.206 1.03-.551l12.35-18.276c.56-.83-.04-1.95-1.04-1.95h-11.6c-1.56 0-3.05.674-4.08 1.85a9555.95 9555.95 0 0 0-14.67 16.859ZM2892.51 653.861c-1.07 0-1.65 1.257-.94 2.064 9.25 10.539 24.87 28.193 31.32 35.48.62.69 1.72.014 1.4-.851l-13.2-35.874a1.24 1.24 0 0 0-1.17-.819h-17.41ZM2934.39 689.959c-.32.865.79 1.53 1.4.84 6.24-7.098 21.2-24.103 30.64-34.872.71-.808.13-2.066-.94-2.066h-17.23c-.52 0-.99.331-1.17.827l-12.7 35.271ZM2965.28 648.445c1.07 0 1.65-1.261.94-2.07-3.39-3.886-10.72-12.295-14.74-16.865a5.4 5.4 0 0 0-4.07-1.842h-12.59c-1.03 0-1.62 1.168-1 1.994l13.52 18.276c.24.319.61.507 1 .507h16.94ZM2941.03 655.535a1.252 1.252 0 0 0-1.18-1.674h-21.49c-.87 0-1.48.866-1.18 1.682l10.86 29.525c.41 1.096 1.96 1.09 2.35-.008l10.64-29.525ZM2939.32 646.444c.62.824.03 2.001-1 2.001h-18.78c-1.01 0-1.61-1.137-1.03-1.965l9.05-12.969a1.246 1.246 0 0 1 2.02-.036l9.74 12.969Z"/></g></g></g><g id="Heavy-S"><g id="Solid / Diamond Solid_20"><g id="Shape_20" fill="#000"><path d="M2595.76 646.377c-.7.809-.13 2.068.94 2.068h17.07c.41 0 .8-.206 1.03-.551l12.35-18.276c.56-.83-.04-1.95-1.04-1.95h-11.6c-1.56 0-3.05.674-4.08 1.85a9555.95 9555.95 0 0 0-14.67 16.859ZM2596.51 653.861c-1.07 0-1.65 1.257-.94 2.064 9.25 10.539 24.87 28.193 31.32 35.48.62.69 1.72.014 1.4-.851l-13.2-35.874a1.24 1.24 0 0 0-1.17-.819h-17.41ZM2638.39 689.959c-.32.865.79 1.53 1.4.84 6.24-7.098 21.2-24.103 30.64-34.872.71-.808.13-2.066-.94-2.066h-17.23c-.52 0-.99.331-1.17.827l-12.7 35.271ZM2669.28 648.445c1.07 0 1.65-1.261.94-2.07-3.39-3.886-10.72-12.295-14.74-16.865a5.4 5.4 0 0 0-4.07-1.842h-12.59c-1.03 0-1.62 1.168-1 1.994l13.52 18.276c.24.319.61.507 1 .507h16.94ZM2645.03 655.535a1.252 1.252 0 0 0-1.18-1.674h-21.49c-.87 0-1.48.866-1.18 1.682l10.86 29.525c.41 1.096 1.96 1.09 2.35-.008l10.64-29.525ZM2643.32 646.444c.62.824.03 2.001-1 2.001h-18.78c-1.01 0-1.61-1.137-1.03-1.965l9.05-12.969a1.246 1.246 0 0 1 2.02-.036l9.74 12.969Z"/></g></g></g><g id="Bold-S"><g id="Solid / Diamond Solid_21"><g id="Shape_21" fill="#000"><path d="M2299.76 646.377c-.7.809-.13 2.068.94 2.068h17.07c.41 0 .8-.206 1.03-.551l12.35-18.276c.56-.83-.04-1.95-1.04-1.95h-11.6c-1.56 0-3.05.674-4.08 1.85a9555.95 9555.95 0 0 0-14.67 16.859ZM2300.51 653.861c-1.07 0-1.65 1.257-.94 2.064 9.25 10.539 24.87 28.193 31.32 35.48.62.69 1.72.014 1.4-.851l-13.2-35.874a1.24 1.24 0 0 0-1.17-.819h-17.41ZM2342.39 689.959c-.32.865.79 1.53 1.4.84 6.24-7.098 21.2-24.103 30.64-34.872.71-.808.13-2.066-.94-2.066h-17.23c-.52 0-.99.331-1.17.827l-12.7 35.271ZM2373.28 648.445c1.07 0 1.65-1.261.94-2.07-3.39-3.886-10.72-12.295-14.74-16.865a5.4 5.4 0 0 0-4.07-1.842h-12.59c-1.03 0-1.62 1.168-1 1.994l13.52 18.276c.24.319.61.507 1 .507h16.94ZM2349.03 655.535a1.252 1.252 0 0 0-1.18-1.674h-21.49c-.87 0-1.48.866-1.18 1.682l10.86 29.525c.41 1.096 1.96 1.09 2.35-.008l10.64-29.525ZM2347.32 646.444c.62.824.03 2.001-1 2.001h-18.78c-1.01 0-1.61-1.137-1.03-1.965l9.05-12.969a1.246 1.246 0 0 1 2.02-.036l9.74 12.969Z"/></g></g></g><g id="Semibold-S"><g id="Solid / Diamond Solid_22"><g id="Shape_22" fill="#000"><path d="M2003.76 646.377c-.7.809-.13 2.068.94 2.068h17.07c.41 0 .8-.206 1.03-.551l12.35-18.276c.56-.83-.04-1.95-1.04-1.95h-11.6c-1.56 0-3.05.674-4.08 1.85a9555.95 9555.95 0 0 0-14.67 16.859ZM2004.51 653.861c-1.07 0-1.65 1.257-.94 2.064 9.25 10.539 24.87 28.193 31.32 35.48.62.69 1.72.014 1.4-.851l-13.2-35.874a1.24 1.24 0 0 0-1.17-.819h-17.41ZM2046.39 689.959c-.32.865.79 1.53 1.4.84 6.24-7.098 21.2-24.103 30.64-34.872.71-.808.13-2.066-.94-2.066h-17.23c-.52 0-.99.331-1.17.827l-12.7 35.271ZM2077.28 648.445c1.07 0 1.65-1.261.94-2.07-3.39-3.886-10.72-12.295-14.74-16.865a5.4 5.4 0 0 0-4.07-1.842h-12.59c-1.03 0-1.62 1.168-1 1.994l13.52 18.276c.24.319.61.507 1 .507h16.94ZM2053.03 655.535a1.252 1.252 0 0 0-1.18-1.674h-21.49c-.87 0-1.48.866-1.18 1.682l10.86 29.525c.41 1.096 1.96 1.09 2.35-.008l10.64-29.525ZM2051.32 646.444c.62.824.03 2.001-1 2.001h-18.78c-1.01 0-1.61-1.137-1.03-1.965l9.05-12.969a1.246 1.246 0 0 1 2.02-.036l9.74 12.969Z"/></g></g></g><g id="Medium-S"><g id="Solid / Diamond Solid_23"><g id="Shape_23" fill="#000"><path d="M1707.76 646.377c-.7.809-.13 2.068.94 2.068h17.07c.41 0 .8-.206 1.03-.551l12.35-18.276c.56-.83-.04-1.95-1.04-1.95h-11.6c-1.56 0-3.05.674-4.08 1.85a9555.95 9555.95 0 0 0-14.67 16.859ZM1708.51 653.861c-1.07 0-1.65 1.257-.94 2.064 9.25 10.539 24.87 28.193 31.32 35.48.62.69 1.72.014 1.4-.851l-13.2-35.874a1.24 1.24 0 0 0-1.17-.819h-17.41ZM1750.39 689.959c-.32.865.79 1.53 1.4.84 6.24-7.098 21.2-24.103 30.64-34.872.71-.808.13-2.066-.94-2.066h-17.23c-.52 0-.99.331-1.17.827l-12.7 35.271ZM1781.28 648.445c1.07 0 1.65-1.261.94-2.07-3.39-3.886-10.72-12.295-14.74-16.865a5.4 5.4 0 0 0-4.07-1.842h-12.59c-1.03 0-1.62 1.168-1 1.994l13.52 18.276c.24.319.61.507 1 .507h16.94ZM1757.03 655.535a1.252 1.252 0 0 0-1.18-1.674h-21.49c-.87 0-1.48.866-1.18 1.682l10.86 29.525c.41 1.096 1.96 1.09 2.35-.008l10.64-29.525ZM1755.32 646.444c.62.824.03 2.001-1 2.001h-18.78c-1.01 0-1.61-1.137-1.03-1.965l9.05-12.969a1.246 1.246 0 0 1 2.02-.036l9.74 12.969Z"/></g></g></g><g id="Regular-S"><g id="Solid / Diamond Solid_24"><g id="Shape_24" fill="#000"><path d="M1411.76 646.377c-.7.809-.13 2.068.94 2.068h17.07c.41 0 .8-.206 1.03-.551l12.35-18.276c.56-.83-.04-1.95-1.04-1.95h-11.6c-1.56 0-3.05.674-4.08 1.85a9555.95 9555.95 0 0 0-14.67 16.859ZM1412.51 653.861c-1.07 0-1.65 1.257-.94 2.064 9.25 10.539 24.87 28.193 31.32 35.48.62.69 1.72.014 1.4-.851l-13.2-35.874a1.24 1.24 0 0 0-1.17-.819h-17.41ZM1454.39 689.959c-.32.865.79 1.53 1.4.84 6.24-7.098 21.2-24.103 30.64-34.872.71-.808.13-2.066-.94-2.066h-17.23c-.52 0-.99.331-1.17.827l-12.7 35.271ZM1485.28 648.445c1.07 0 1.65-1.261.94-2.07-3.39-3.886-10.72-12.295-14.74-16.865a5.4 5.4 0 0 0-4.07-1.842h-12.59c-1.03 0-1.62 1.168-1 1.994l13.52 18.276c.24.319.61.507 1 .507h16.94ZM1461.03 655.535a1.252 1.252 0 0 0-1.18-1.674h-21.49c-.87 0-1.48.866-1.18 1.682l10.86 29.525c.41 1.096 1.96 1.09 2.35-.008l10.64-29.525ZM1459.32 646.444c.62.824.03 2.001-1 2.001h-18.78c-1.01 0-1.61-1.137-1.03-1.965l9.05-12.969a1.246 1.246 0 0 1 2.02-.036l9.74 12.969Z"/></g></g></g><g id="Light-S"><g id="Solid / Diamond Solid_25"><g id="Shape_25" fill="#000"><path d="M1115.76 646.377c-.7.809-.13 2.068.94 2.068h17.07c.41 0 .8-.206 1.03-.551l12.35-18.276c.56-.83-.04-1.95-1.04-1.95h-11.6c-1.56 0-3.05.674-4.08 1.85a9555.95 9555.95 0 0 0-14.67 16.859ZM1116.51 653.861c-1.07 0-1.65 1.257-.94 2.064 9.25 10.539 24.87 28.193 31.32 35.48.62.69 1.72.014 1.4-.851l-13.2-35.874a1.24 1.24 0 0 0-1.17-.819h-17.41ZM1158.39 689.959c-.32.865.79 1.53 1.4.84 6.24-7.098 21.2-24.103 30.64-34.872.71-.808.13-2.066-.94-2.066h-17.23c-.52 0-.99.331-1.17.827l-12.7 35.271ZM1189.28 648.445c1.07 0 1.65-1.261.94-2.07-3.39-3.886-10.72-12.295-14.74-16.865a5.4 5.4 0 0 0-4.07-1.842h-12.59c-1.03 0-1.62 1.168-1 1.994l13.52 18.276c.24.319.61.507 1 .507h16.94ZM1165.03 655.535a1.252 1.252 0 0 0-1.18-1.674h-21.49c-.87 0-1.48.866-1.18 1.682l10.86 29.525c.41 1.096 1.96 1.09 2.35-.008l10.64-29.525ZM1163.32 646.444c.62.824.03 2.001-1 2.001h-18.78c-1.01 0-1.61-1.137-1.03-1.965l9.05-12.969a1.246 1.246 0 0 1 2.02-.036l9.74 12.969Z"/></g></g></g><g id="Thin-S"><g id="Solid / Diamond Solid_26"><g id="Shape_26" fill="#000"><path d="M819.759 646.377c-.703.809-.127 2.068.945 2.068h17.061c.416 0 .804-.206 1.036-.551l12.347-18.276a1.25 1.25 0 0 0-1.035-1.95H838.51a5.414 5.414 0 0 0-4.077 1.85 7902.405 7902.405 0 0 0-14.674 16.859ZM820.514 653.861c-1.074 0-1.656 1.257-.947 2.064 9.255 10.539 24.876 28.193 31.327 35.48.611.69 1.714.014 1.396-.851l-13.195-35.874a1.25 1.25 0 0 0-1.173-.819h-17.408ZM862.386 689.959c-.312.865.795 1.53 1.402.84 6.244-7.098 21.201-24.103 30.645-34.872.709-.808.128-2.066-.947-2.066h-17.222a1.25 1.25 0 0 0-1.176.827l-12.702 35.271ZM893.28 648.445c1.073 0 1.649-1.261.944-2.07a7872.74 7872.74 0 0 0-14.74-16.865 5.415 5.415 0 0 0-4.069-1.842H862.82c-1.026 0-1.615 1.168-1.005 1.994l13.525 18.276c.236.319.608.507 1.005.507h16.935ZM869.025 655.535a1.25 1.25 0 0 0-1.176-1.674h-21.492a1.25 1.25 0 0 0-1.173 1.682l10.859 29.525c.403 1.096 1.954 1.09 2.349-.008l10.633-29.525ZM867.319 646.444c.619.824.031 2.001-.999 2.001h-18.783a1.25 1.25 0 0 1-1.025-1.965l9.047-12.969a1.25 1.25 0 0 1 2.025-.036l9.735 12.969Z"/></g></g></g><g id="Ultralight-S"><g id="Solid / Diamond Solid_27"><g id="Shape_27" fill="#000"><path d="M523.759 646.377c-.703.809-.127 2.068.945 2.068h17.061c.416 0 .804-.206 1.036-.551l12.347-18.276a1.25 1.25 0 0 0-1.035-1.95H542.51a5.414 5.414 0 0 0-4.077 1.85 7902.405 7902.405 0 0 0-14.674 16.859ZM524.514 653.861c-1.074 0-1.656 1.257-.947 2.064 9.255 10.539 24.876 28.193 31.327 35.48.611.69 1.714.014 1.396-.851l-13.195-35.874a1.25 1.25 0 0 0-1.173-.819h-17.408ZM566.386 689.959c-.312.865.795 1.53 1.402.84 6.244-7.098 21.201-24.103 30.645-34.872.709-.808.128-2.066-.947-2.066h-17.222a1.25 1.25 0 0 0-1.176.827l-12.702 35.271ZM597.28 648.445c1.073 0 1.649-1.261.944-2.07a7872.74 7872.74 0 0 0-14.74-16.865 5.415 5.415 0 0 0-4.069-1.842H566.82c-1.026 0-1.615 1.168-1.005 1.994l13.525 18.276c.236.319.608.507 1.005.507h16.935ZM573.025 655.535a1.25 1.25 0 0 0-1.176-1.674h-21.492a1.25 1.25 0 0 0-1.173 1.682l10.859 29.525c.403 1.096 1.954 1.09 2.349-.008l10.633-29.525ZM571.319 646.444c.619.824.031 2.001-.999 2.001h-18.783a1.25 1.25 0 0 1-1.025-1.965l9.047-12.969a1.25 1.25 0 0 1 2.025-.036l9.735 12.969Z"/></g></g></g></g></g><defs><clipPath id="clip0_0_1"><path fill="#fff" d="M0 0h3300v2200H0z"/></clipPath></defs></svg>