<svg width="3300" height="2200" viewBox="0 0 3300 2200" fill="none" xmlns="http://www.w3.org/2000/svg">
<rect width="3300" height="2200" fill="#E5E5E5"/>
<g id="System / Solid / Calendar Ok" clip-path="url(#clip0_805_27002)">
<g id="Notes">
<path id="artboard" d="M3300 0H0V2200H3300V0Z" fill="white"/>
<path id="Vector" d="M263 292H3036" stroke="black" stroke-width="0.5"/>
<text id="Weight/Scale Variations" fill="black" xml:space="preserve" style="white-space: pre" font-family="Roboto" font-size="12" letter-spacing="0em"><tspan x="263" y="321.102">Weight/Scale Variations</tspan></text>
<text id="Ultralight" fill="black" xml:space="preserve" style="white-space: pre" font-family="Roboto" font-size="12" letter-spacing="0em"><tspan x="535.211" y="321.102">Ultralight</tspan></text>
<text id="Thin" fill="black" xml:space="preserve" style="white-space: pre" font-family="Roboto" font-size="12" letter-spacing="0em"><tspan x="844.422" y="321.102">Thin</tspan></text>
<text id="Light" fill="black" xml:space="preserve" style="white-space: pre" font-family="Roboto" font-size="12" letter-spacing="0em"><tspan x="1139.63" y="321.102">Light</tspan></text>
<text id="Regular" fill="black" xml:space="preserve" style="white-space: pre" font-family="Roboto" font-size="12" letter-spacing="0em"><tspan x="1429.34" y="321.102">Regular</tspan></text>
<text id="Medium" fill="black" xml:space="preserve" style="white-space: pre" font-family="Roboto" font-size="12" letter-spacing="0em"><tspan x="1724.56" y="321.102">Medium</tspan></text>
<text id="Semibold" fill="black" xml:space="preserve" style="white-space: pre" font-family="Roboto" font-size="12" letter-spacing="0em"><tspan x="2017.77" y="321.102">Semibold</tspan></text>
<text id="Bold" fill="black" xml:space="preserve" style="white-space: pre" font-family="Roboto" font-size="12" letter-spacing="0em"><tspan x="2327.48" y="321.102">Bold</tspan></text>
<text id="Heavy" fill="black" xml:space="preserve" style="white-space: pre" font-family="Roboto" font-size="12" letter-spacing="0em"><tspan x="2620.19" y="321.102">Heavy</tspan></text>
<text id="Black" fill="black" xml:space="preserve" style="white-space: pre" font-family="Roboto" font-size="12" letter-spacing="0em"><tspan x="2918.4" y="321.102">Black</tspan></text>
<path id="Vector_2" d="M263 1903H3036" stroke="black" stroke-width="0.5"/>
<g id="Group">
<path id="Vector_3" d="M272.248 1933.83C276.555 1933.83 280.139 1930.26 280.139 1925.95C280.139 1921.64 276.545 1918.07 272.238 1918.07C267.941 1918.07 264.367 1921.64 264.367 1925.95C264.367 1930.26 267.951 1933.83 272.248 1933.83ZM272.248 1932.35C268.703 1932.35 265.871 1929.51 265.871 1925.95C265.871 1922.4 268.693 1919.55 272.238 1919.55C275.793 1919.55 278.635 1922.4 278.644 1925.95C278.654 1929.51 275.803 1932.35 272.248 1932.35ZM272.229 1929.57C272.697 1929.57 272.971 1929.26 272.971 1928.74V1926.68H275.197C275.695 1926.68 276.037 1926.43 276.037 1925.96C276.037 1925.48 275.715 1925.22 275.197 1925.22H272.971V1922.99C272.971 1922.47 272.697 1922.15 272.229 1922.15C271.76 1922.15 271.506 1922.49 271.506 1922.99V1925.22H269.299C268.781 1925.22 268.449 1925.48 268.449 1925.96C268.449 1926.43 268.801 1926.68 269.299 1926.68H271.506V1928.74C271.506 1929.24 271.76 1929.57 272.229 1929.57Z" fill="black"/>
</g>
<g id="Group_2">
<path id="Vector_4" d="M293.215 1935.91C298.664 1935.91 303.176 1931.4 303.176 1925.95C303.176 1920.51 298.654 1915.99 293.205 1915.99C287.766 1915.99 283.254 1920.51 283.254 1925.95C283.254 1931.4 287.775 1935.91 293.215 1935.91ZM293.215 1934.25C288.605 1934.25 284.924 1930.56 284.924 1925.95C284.924 1921.35 288.596 1917.65 293.205 1917.65C297.814 1917.65 301.506 1921.35 301.516 1925.95C301.525 1930.56 297.824 1934.25 293.215 1934.25ZM293.195 1930.59C293.713 1930.59 294.025 1930.23 294.025 1929.66V1926.77H297.082C297.629 1926.77 298.01 1926.49 298.01 1925.97C298.01 1925.44 297.648 1925.14 297.082 1925.14H294.025V1922.07C294.025 1921.5 293.713 1921.14 293.195 1921.14C292.678 1921.14 292.385 1921.52 292.385 1922.07V1925.14H289.338C288.771 1925.14 288.4 1925.44 288.4 1925.97C288.4 1926.49 288.791 1926.77 289.338 1926.77H292.385V1929.66C292.385 1930.21 292.678 1930.59 293.195 1930.59Z" fill="black"/>
</g>
<g id="Group_3">
<path id="Vector_5" d="M319.895 1938.67C326.857 1938.67 332.619 1932.92 332.619 1925.96C332.619 1918.99 326.848 1913.24 319.885 1913.24C312.932 1913.24 307.18 1918.99 307.18 1925.96C307.18 1932.92 312.941 1938.67 319.895 1938.67ZM319.895 1936.86C313.859 1936.86 309.006 1931.99 309.006 1925.96C309.006 1919.92 313.85 1915.06 319.885 1915.06C325.93 1915.06 330.783 1919.92 330.793 1925.96C330.803 1931.99 325.939 1936.86 319.895 1936.86ZM319.875 1931.93C320.441 1931.93 320.793 1931.54 320.793 1930.94V1926.87H325.031C325.617 1926.87 326.037 1926.53 326.037 1925.98C326.037 1925.4 325.647 1925.06 325.031 1925.06H320.793V1920.81C320.793 1920.2 320.441 1919.8 319.875 1919.8C319.309 1919.8 318.986 1920.21 318.986 1920.81V1925.06H314.758C314.143 1925.06 313.732 1925.4 313.732 1925.98C313.732 1926.53 314.162 1926.87 314.758 1926.87H318.986V1930.94C318.986 1931.52 319.309 1931.93 319.875 1931.93Z" fill="black"/>
</g>
<text id="Design Variations" fill="black" xml:space="preserve" style="white-space: pre" font-family="Roboto" font-size="12" letter-spacing="0em"><tspan x="263" y="1952.1">Design Variations</tspan></text>
<text id="Symbols are supported in up to nine weights and three scales." fill="black" xml:space="preserve" style="white-space: pre" font-family="Roboto" font-size="12" letter-spacing="0em"><tspan x="263" y="1970.1">Symbols are supported in up to nine weights and three scales.</tspan></text>
<text id="For optimal layout with text and other symbols, vertically align" fill="black" xml:space="preserve" style="white-space: pre" font-family="Roboto" font-size="12" letter-spacing="0em"><tspan x="263" y="1988.1">For optimal layout with text and other symbols, vertically align</tspan></text>
<text id="symbols with the adjacent text." fill="black" xml:space="preserve" style="white-space: pre" font-family="Roboto" font-size="12" letter-spacing="0em"><tspan x="263" y="2006.1">symbols with the adjacent text.</tspan></text>
<path id="Vector_6" opacity="0.4" d="M779 1919H776V1933H779V1919Z" fill="#00AEEF"/>
<g id="Group_4">
<path id="Vector_7" d="M789.527 1933H791.373L786.178 1918.91H784.439L779.244 1933H781.09L782.506 1928.96H788.111L789.527 1933ZM785.279 1921.04H785.338L787.594 1927.47H783.023L785.279 1921.04Z" fill="black"/>
</g>
<path id="Vector_8" opacity="0.4" d="M794.617 1919H791.617V1933H794.617V1919Z" fill="#00AEEF"/>
<text id="Margins" fill="black" xml:space="preserve" style="white-space: pre" font-family="Roboto" font-size="12" letter-spacing="0em"><tspan x="776" y="1952.1">Margins</tspan></text>
<text id="Leading and trailing margins on the left and right side of each symbol" fill="black" xml:space="preserve" style="white-space: pre" font-family="Roboto" font-size="12" letter-spacing="0em"><tspan x="776" y="1970.1">Leading and trailing margins on the left and right side of each symbol</tspan></text>
<text id="can be adjusted by modifying the width of the blue rectangles." fill="black" xml:space="preserve" style="white-space: pre" font-family="Roboto" font-size="12" letter-spacing="0em"><tspan x="776" y="1988.1">can be adjusted by modifying the width of the blue rectangles.</tspan></text>
<text id="Modifications are automatically applied proportionally to all" fill="black" xml:space="preserve" style="white-space: pre" font-family="Roboto" font-size="12" letter-spacing="0em"><tspan x="776" y="2006.1">Modifications are automatically applied proportionally to all</tspan></text>
<text id="scales and weights." fill="black" xml:space="preserve" style="white-space: pre" font-family="Roboto" font-size="12" letter-spacing="0em"><tspan x="776" y="2024.1">scales and weights.</tspan></text>
<g id="Group_5">
<path id="Vector_9" d="M1291.83 1936.11L1293.37 1937.66C1294.22 1938.49 1295.19 1938.42 1296.06 1937.46L1306.27 1926.34C1306.7 1926.63 1307.1 1926.62 1307.56 1926.52L1308.61 1926.31L1309.3 1927L1309.25 1927.52C1309.19 1928.05 1309.35 1928.47 1309.85 1928.97L1310.66 1929.78C1311.17 1930.28 1311.82 1930.31 1312.3 1929.83L1315.55 1926.58C1316.03 1926.1 1316.01 1925.45 1315.5 1924.94L1314.68 1924.12C1314.19 1923.62 1313.77 1923.45 1313.24 1923.53L1312.71 1923.58L1312.06 1922.92L1312.34 1921.78C1312.49 1921.21 1312.34 1920.74 1311.71 1920.14L1309.3 1917.75C1305.76 1914.22 1301.23 1914.33 1298.11 1917.46C1297.69 1917.89 1297.64 1918.48 1297.92 1918.91C1298.15 1919.28 1298.63 1919.5 1299.27 1919.34C1300.79 1918.96 1302.3 1919.07 1303.78 1920.08L1303.16 1921.66C1302.93 1922.25 1302.94 1922.73 1303.18 1923.16L1292.02 1933.44C1291.08 1934.31 1290.97 1935.25 1291.83 1936.11ZM1299.67 1917.85C1302.34 1915.86 1305.65 1916.17 1308.05 1918.58L1310.68 1921.19C1310.91 1921.43 1310.94 1921.61 1310.88 1921.91L1310.5 1923.47L1312.08 1925.04L1313.04 1924.95C1313.33 1924.92 1313.41 1924.94 1313.64 1925.17L1314.26 1925.79L1311.51 1928.54L1310.88 1927.92C1310.66 1927.7 1310.64 1927.6 1310.67 1927.32L1310.76 1926.36L1309.19 1924.8L1307.57 1925.11C1307.29 1925.17 1307.14 1925.17 1306.91 1924.92L1304.73 1922.75C1304.51 1922.51 1304.48 1922.37 1304.61 1922.05L1305.55 1919.78C1303.95 1918.24 1301.84 1917.39 1299.8 1918.05C1299.71 1918.08 1299.64 1918.06 1299.61 1918.02C1299.59 1917.97 1299.59 1917.92 1299.67 1917.85ZM1293.1 1935.41C1292.61 1934.91 1292.79 1934.61 1293.12 1934.31L1304.08 1924.19L1305.31 1925.42L1295.15 1936.35C1294.85 1936.68 1294.47 1936.78 1294.07 1936.38L1293.1 1935.41Z" fill="black"/>
</g>
<text id="Exporting" fill="black" xml:space="preserve" style="white-space: pre" font-family="Roboto" font-size="12" letter-spacing="0em"><tspan x="1289" y="1952.1">Exporting</tspan></text>
<text id="Symbols should be outlined when exporting to ensure the" fill="black" xml:space="preserve" style="white-space: pre" font-family="Roboto" font-size="12" letter-spacing="0em"><tspan x="1289" y="1970.1">Symbols should be outlined when exporting to ensure the</tspan></text>
<text id="design is preserved when submitting to Xcode." fill="black" xml:space="preserve" style="white-space: pre" font-family="Roboto" font-size="12" letter-spacing="0em"><tspan x="1289" y="1988.1">design is preserved when submitting to Xcode.</tspan></text>
<text id="template-version" fill="black" xml:space="preserve" style="white-space: pre" font-family="Roboto" font-size="12" letter-spacing="0em"><tspan x="2958" y="1932.1">Template v.1.0</tspan></text>
<text id="Generated from pencil.circle" fill="black" xml:space="preserve" style="white-space: pre" font-family="Roboto" font-size="12" letter-spacing="0em"><tspan x="2885" y="1950.1">Generated from pencil.circle</tspan></text>
<text id="Typeset at 100 points" fill="black" xml:space="preserve" style="white-space: pre" font-family="Roboto" font-size="12" letter-spacing="0em"><tspan x="2921" y="1968.1">Typeset at 100 points</tspan></text>
<text id="Small" fill="black" xml:space="preserve" style="white-space: pre" font-family="Roboto" font-size="12" letter-spacing="0em"><tspan x="263" y="725.102">Small</tspan></text>
<text id="Medium_2" fill="black" xml:space="preserve" style="white-space: pre" font-family="Roboto" font-size="12" letter-spacing="0em"><tspan x="263" y="1155.1">Medium</tspan></text>
<text id="Large" fill="black" xml:space="preserve" style="white-space: pre" font-family="Roboto" font-size="12" letter-spacing="0em"><tspan x="263" y="1585.1">Large</tspan></text>
</g>
<g id="Guides">
<g id="H-reference">
<path id="Vector_10" d="M393.932 695.998H396.666L369.566 625.539H367.076L339.977 695.998H342.662L351.94 671.535H384.703L393.932 695.998ZM368.199 628.908H368.443L383.824 669.289H352.818L368.199 628.908Z" fill="#27AAE1"/>
</g>
<path id="Baseline-S" d="M263 696H3036" stroke="#27AAE1" stroke-width="0.577"/>
<path id="Capline-S" d="M263 626H3036" stroke="#27AAE1" stroke-width="0.577"/>
<g id="H-reference_2">
<path id="Vector_11" d="M393.932 1126H396.666L369.566 1055.54H367.076L339.977 1126H342.662L351.94 1101.54H384.703L393.932 1126ZM368.199 1058.91H368.443L383.824 1099.29H352.818L368.199 1058.91Z" fill="#27AAE1"/>
</g>
<path id="Baseline-M" d="M263 1126H3036" stroke="#27AAE1" stroke-width="0.577"/>
<path id="Capline-M" d="M263 1056H3036" stroke="#27AAE1" stroke-width="0.577"/>
<g id="H-reference_3">
<path id="Vector_12" d="M393.932 1556H396.666L369.566 1485.54H367.076L339.977 1556H342.662L351.94 1531.54H384.703L393.932 1556ZM368.199 1488.91H368.443L383.824 1529.29H352.818L368.199 1488.91Z" fill="#27AAE1"/>
</g>
<g id="Group 1">
<path id="Baseline-L" d="M263 1556H3036" stroke="#27AAE1" stroke-width="0.577"/>
<path id="Capline-L" d="M263 1486H3036" stroke="#27AAE1" stroke-width="0.577"/>
</g>
<path id="left-margin" opacity="0.4" d="M1402.04 1030.79H1393.3V1150.12H1402.04V1030.79Z" fill="#00AEEF"/>
<path id="right-margin" opacity="0.4" d="M1505.39 1030.79H1496.65V1150.12H1505.39V1030.79Z" fill="#00AEEF"/>
</g>
<g id="Symbols">
<g id="Black-L">
<g id="Solid / Calendar Ok Solid">
<g id="Shape">
<path d="M2900.05 1445.62C2902.74 1445.62 2904.92 1447.8 2904.92 1450.49V1460.92H2924.12V1450.49C2924.12 1447.8 2926.31 1445.62 2929 1445.62C2931.69 1445.62 2933.87 1447.8 2933.87 1450.49V1460.92H2953V1450.49C2953 1447.8 2955.18 1445.62 2957.87 1445.62C2960.57 1445.62 2962.75 1447.8 2962.75 1450.49V1460.92H2966.5C2978.88 1460.92 2989 1470.97 2989 1483.42V1495.87C2989 1498.79 2986.67 1501.12 2983.75 1501.12H2874.25C2871.33 1501.12 2869 1498.79 2869 1495.87V1483.42C2869 1470.97 2879.05 1460.92 2891.5 1460.92H2895.17V1450.49C2895.17 1447.8 2897.36 1445.62 2900.05 1445.62Z" fill="black"/>
<path fill-rule="evenodd" clip-rule="evenodd" d="M2983.75 1510.87H2874.25C2871.33 1510.87 2869 1513.19 2869 1516.12V1559.39C2869 1571.84 2879.05 1581.89 2891.5 1581.89H2966.5C2978.95 1581.89 2989 1571.84 2989 1559.39V1516.12C2989 1513.19 2986.6 1510.87 2983.75 1510.87ZM2956.7 1531.79C2958.52 1529.81 2958.39 1526.73 2956.41 1524.9C2954.43 1523.08 2951.35 1523.21 2949.52 1525.19L2926.48 1550.26L2914.14 1537.93C2912.23 1536.02 2909.15 1536.02 2907.24 1537.93C2905.34 1539.83 2905.34 1542.92 2907.24 1544.82L2921.52 1559.09C2924.38 1561.96 2929.06 1561.86 2931.8 1558.88L2956.7 1531.79Z" fill="black"/>
</g>
</g>
</g>
<g id="Heavy-L">
<g id="Solid / Calendar Ok Solid_2">
<g id="Shape_2">
<path d="M2604.05 1445.62C2606.74 1445.62 2608.92 1447.8 2608.92 1450.49V1460.92H2628.12V1450.49C2628.12 1447.8 2630.31 1445.62 2633 1445.62C2635.69 1445.62 2637.87 1447.8 2637.87 1450.49V1460.92H2657V1450.49C2657 1447.8 2659.18 1445.62 2661.87 1445.62C2664.57 1445.62 2666.75 1447.8 2666.75 1450.49V1460.92H2670.5C2682.88 1460.92 2693 1470.97 2693 1483.42V1495.87C2693 1498.79 2690.67 1501.12 2687.75 1501.12H2578.25C2575.33 1501.12 2573 1498.79 2573 1495.87V1483.42C2573 1470.97 2583.05 1460.92 2595.5 1460.92H2599.17V1450.49C2599.17 1447.8 2601.36 1445.62 2604.05 1445.62Z" fill="black"/>
<path fill-rule="evenodd" clip-rule="evenodd" d="M2687.75 1510.87H2578.25C2575.33 1510.87 2573 1513.19 2573 1516.12V1559.39C2573 1571.84 2583.05 1581.89 2595.5 1581.89H2670.5C2682.95 1581.89 2693 1571.84 2693 1559.39V1516.12C2693 1513.19 2690.6 1510.87 2687.75 1510.87ZM2660.7 1531.79C2662.52 1529.81 2662.39 1526.73 2660.41 1524.9C2658.43 1523.08 2655.35 1523.21 2653.52 1525.19L2630.48 1550.26L2618.14 1537.93C2616.23 1536.02 2613.15 1536.02 2611.24 1537.93C2609.34 1539.83 2609.34 1542.92 2611.24 1544.82L2625.52 1559.09C2628.38 1561.96 2633.06 1561.86 2635.8 1558.88L2660.7 1531.79Z" fill="black"/>
</g>
</g>
</g>
<g id="Bold-L">
<g id="Solid / Calendar Ok Solid_3">
<g id="Shape_3">
<path d="M2308.05 1445.62C2310.74 1445.62 2312.92 1447.8 2312.92 1450.49V1460.92H2332.12V1450.49C2332.12 1447.8 2334.31 1445.62 2337 1445.62C2339.69 1445.62 2341.87 1447.8 2341.87 1450.49V1460.92H2361V1450.49C2361 1447.8 2363.18 1445.62 2365.87 1445.62C2368.57 1445.62 2370.75 1447.8 2370.75 1450.49V1460.92H2374.5C2386.88 1460.92 2397 1470.97 2397 1483.42V1495.87C2397 1498.79 2394.67 1501.12 2391.75 1501.12H2282.25C2279.33 1501.12 2277 1498.79 2277 1495.87V1483.42C2277 1470.97 2287.05 1460.92 2299.5 1460.92H2303.17V1450.49C2303.17 1447.8 2305.36 1445.62 2308.05 1445.62Z" fill="black"/>
<path fill-rule="evenodd" clip-rule="evenodd" d="M2391.75 1510.87H2282.25C2279.33 1510.87 2277 1513.19 2277 1516.12V1559.39C2277 1571.84 2287.05 1581.89 2299.5 1581.89H2374.5C2386.95 1581.89 2397 1571.84 2397 1559.39V1516.12C2397 1513.19 2394.6 1510.87 2391.75 1510.87ZM2364.7 1531.79C2366.52 1529.81 2366.39 1526.73 2364.41 1524.9C2362.43 1523.08 2359.35 1523.21 2357.52 1525.19L2334.48 1550.26L2322.14 1537.93C2320.23 1536.02 2317.15 1536.02 2315.24 1537.93C2313.34 1539.83 2313.34 1542.92 2315.24 1544.82L2329.52 1559.09C2332.38 1561.96 2337.06 1561.86 2339.8 1558.88L2364.7 1531.79Z" fill="black"/>
</g>
</g>
</g>
<g id="Semibold-L">
<g id="Solid / Calendar Ok Solid_4">
<g id="Shape_4">
<path d="M2012.05 1445.62C2014.74 1445.62 2016.92 1447.8 2016.92 1450.49V1460.92H2036.12V1450.49C2036.12 1447.8 2038.31 1445.62 2041 1445.62C2043.69 1445.62 2045.87 1447.8 2045.87 1450.49V1460.92H2065V1450.49C2065 1447.8 2067.18 1445.62 2069.87 1445.62C2072.57 1445.62 2074.75 1447.8 2074.75 1450.49V1460.92H2078.5C2090.88 1460.92 2101 1470.97 2101 1483.42V1495.87C2101 1498.79 2098.67 1501.12 2095.75 1501.12H1986.25C1983.33 1501.12 1981 1498.79 1981 1495.87V1483.42C1981 1470.97 1991.05 1460.92 2003.5 1460.92H2007.17V1450.49C2007.17 1447.8 2009.36 1445.62 2012.05 1445.62Z" fill="black"/>
<path fill-rule="evenodd" clip-rule="evenodd" d="M2095.75 1510.87H1986.25C1983.33 1510.87 1981 1513.19 1981 1516.12V1559.39C1981 1571.84 1991.05 1581.89 2003.5 1581.89H2078.5C2090.95 1581.89 2101 1571.84 2101 1559.39V1516.12C2101 1513.19 2098.6 1510.87 2095.75 1510.87ZM2068.7 1531.79C2070.52 1529.81 2070.39 1526.73 2068.41 1524.9C2066.43 1523.08 2063.35 1523.21 2061.52 1525.19L2038.48 1550.26L2026.14 1537.93C2024.23 1536.02 2021.15 1536.02 2019.24 1537.93C2017.34 1539.83 2017.34 1542.92 2019.24 1544.82L2033.52 1559.09C2036.38 1561.96 2041.06 1561.86 2043.8 1558.88L2068.7 1531.79Z" fill="black"/>
</g>
</g>
</g>
<g id="Medium-L">
<g id="Solid / Calendar Ok Solid_5">
<g id="Shape_5">
<path d="M1716.05 1445.62C1718.74 1445.62 1720.92 1447.8 1720.92 1450.49V1460.92H1740.12V1450.49C1740.12 1447.8 1742.31 1445.62 1745 1445.62C1747.69 1445.62 1749.87 1447.8 1749.87 1450.49V1460.92H1769V1450.49C1769 1447.8 1771.18 1445.62 1773.87 1445.62C1776.57 1445.62 1778.75 1447.8 1778.75 1450.49V1460.92H1782.5C1794.88 1460.92 1805 1470.97 1805 1483.42V1495.87C1805 1498.79 1802.67 1501.12 1799.75 1501.12H1690.25C1687.33 1501.12 1685 1498.79 1685 1495.87V1483.42C1685 1470.97 1695.05 1460.92 1707.5 1460.92H1711.17V1450.49C1711.17 1447.8 1713.36 1445.62 1716.05 1445.62Z" fill="black"/>
<path fill-rule="evenodd" clip-rule="evenodd" d="M1799.75 1510.87H1690.25C1687.33 1510.87 1685 1513.19 1685 1516.12V1559.39C1685 1571.84 1695.05 1581.89 1707.5 1581.89H1782.5C1794.95 1581.89 1805 1571.84 1805 1559.39V1516.12C1805 1513.19 1802.6 1510.87 1799.75 1510.87ZM1772.7 1531.79C1774.52 1529.81 1774.39 1526.73 1772.41 1524.9C1770.43 1523.08 1767.35 1523.21 1765.52 1525.19L1742.48 1550.26L1730.14 1537.93C1728.23 1536.02 1725.15 1536.02 1723.24 1537.93C1721.34 1539.83 1721.34 1542.92 1723.24 1544.82L1737.52 1559.09C1740.38 1561.96 1745.06 1561.86 1747.8 1558.88L1772.7 1531.79Z" fill="black"/>
</g>
</g>
</g>
<g id="Regular-L">
<g id="Solid / Calendar Ok Solid_6">
<g id="Shape_6">
<path d="M1420.05 1445.62C1422.74 1445.62 1424.92 1447.8 1424.92 1450.49V1460.92H1444.12V1450.49C1444.12 1447.8 1446.31 1445.62 1449 1445.62C1451.69 1445.62 1453.87 1447.8 1453.87 1450.49V1460.92H1473V1450.49C1473 1447.8 1475.18 1445.62 1477.87 1445.62C1480.57 1445.62 1482.75 1447.8 1482.75 1450.49V1460.92H1486.5C1498.88 1460.92 1509 1470.97 1509 1483.42V1495.87C1509 1498.79 1506.67 1501.12 1503.75 1501.12H1394.25C1391.33 1501.12 1389 1498.79 1389 1495.87V1483.42C1389 1470.97 1399.05 1460.92 1411.5 1460.92H1415.17V1450.49C1415.17 1447.8 1417.36 1445.62 1420.05 1445.62Z" fill="black"/>
<path fill-rule="evenodd" clip-rule="evenodd" d="M1503.75 1510.87H1394.25C1391.33 1510.87 1389 1513.19 1389 1516.12V1559.39C1389 1571.84 1399.05 1581.89 1411.5 1581.89H1486.5C1498.95 1581.89 1509 1571.84 1509 1559.39V1516.12C1509 1513.19 1506.6 1510.87 1503.75 1510.87ZM1476.7 1531.79C1478.52 1529.81 1478.39 1526.73 1476.41 1524.9C1474.43 1523.08 1471.35 1523.21 1469.52 1525.19L1446.48 1550.26L1434.14 1537.93C1432.23 1536.02 1429.15 1536.02 1427.24 1537.93C1425.34 1539.83 1425.34 1542.92 1427.24 1544.82L1441.52 1559.09C1444.38 1561.96 1449.06 1561.86 1451.8 1558.88L1476.7 1531.79Z" fill="black"/>
</g>
</g>
</g>
<g id="Light-L">
<g id="Solid / Calendar Ok Solid_7">
<g id="Shape_7">
<path d="M1124.05 1445.62C1126.74 1445.62 1128.92 1447.8 1128.92 1450.49V1460.92H1148.12V1450.49C1148.12 1447.8 1150.31 1445.62 1153 1445.62C1155.69 1445.62 1157.87 1447.8 1157.87 1450.49V1460.92H1177V1450.49C1177 1447.8 1179.18 1445.62 1181.87 1445.62C1184.57 1445.62 1186.75 1447.8 1186.75 1450.49V1460.92H1190.5C1202.88 1460.92 1213 1470.97 1213 1483.42V1495.87C1213 1498.79 1210.67 1501.12 1207.75 1501.12H1098.25C1095.33 1501.12 1093 1498.79 1093 1495.87V1483.42C1093 1470.97 1103.05 1460.92 1115.5 1460.92H1119.17V1450.49C1119.17 1447.8 1121.36 1445.62 1124.05 1445.62Z" fill="black"/>
<path fill-rule="evenodd" clip-rule="evenodd" d="M1207.75 1510.87H1098.25C1095.33 1510.87 1093 1513.19 1093 1516.12V1559.39C1093 1571.84 1103.05 1581.89 1115.5 1581.89H1190.5C1202.95 1581.89 1213 1571.84 1213 1559.39V1516.12C1213 1513.19 1210.6 1510.87 1207.75 1510.87ZM1180.7 1531.79C1182.52 1529.81 1182.39 1526.73 1180.41 1524.9C1178.43 1523.08 1175.35 1523.21 1173.52 1525.19L1150.48 1550.26L1138.14 1537.93C1136.23 1536.02 1133.15 1536.02 1131.24 1537.93C1129.34 1539.83 1129.34 1542.92 1131.24 1544.82L1145.52 1559.09C1148.38 1561.96 1153.06 1561.86 1155.8 1558.88L1180.7 1531.79Z" fill="black"/>
</g>
</g>
</g>
<g id="Thin-L">
<g id="Solid / Calendar Ok Solid_8">
<g id="Shape_8">
<path d="M828.05 1445.62C830.742 1445.62 832.925 1447.8 832.925 1450.49V1460.92H852.125V1450.49C852.125 1447.8 854.307 1445.62 857 1445.62C859.692 1445.62 861.875 1447.8 861.875 1450.49V1460.92H881V1450.49C881 1447.8 883.182 1445.62 885.875 1445.62C888.567 1445.62 890.75 1447.8 890.75 1450.49V1460.92H894.5C906.875 1460.92 917 1470.97 917 1483.42V1495.87C917 1498.79 914.675 1501.12 911.75 1501.12H802.25C799.325 1501.12 797 1498.79 797 1495.87V1483.42C797 1470.97 807.05 1460.92 819.5 1460.92H823.175V1450.49C823.175 1447.8 825.357 1445.62 828.05 1445.62Z" fill="black"/>
<path fill-rule="evenodd" clip-rule="evenodd" d="M911.75 1510.87H802.25C799.325 1510.87 797 1513.19 797 1516.12V1559.39C797 1571.84 807.05 1581.89 819.5 1581.89H894.5C906.95 1581.89 917 1571.84 917 1559.39V1516.12C917 1513.19 914.6 1510.87 911.75 1510.87ZM884.701 1531.79C886.523 1529.81 886.394 1526.73 884.412 1524.9C882.429 1523.08 879.346 1523.21 877.523 1525.19L854.476 1550.26L842.138 1537.93C840.235 1536.02 837.148 1536.02 835.244 1537.93C833.34 1539.83 833.34 1542.92 835.244 1544.82L849.518 1559.09C852.383 1561.96 857.058 1561.86 859.801 1558.88L884.701 1531.79Z" fill="black"/>
</g>
</g>
</g>
<g id="Ultralight-L">
<g id="Solid / Calendar Ok Solid_9">
<g id="Shape_9">
<path d="M532.05 1445.62C534.742 1445.62 536.925 1447.8 536.925 1450.49V1460.92H556.125V1450.49C556.125 1447.8 558.307 1445.62 561 1445.62C563.692 1445.62 565.875 1447.8 565.875 1450.49V1460.92H585V1450.49C585 1447.8 587.182 1445.62 589.875 1445.62C592.567 1445.62 594.75 1447.8 594.75 1450.49V1460.92H598.5C610.875 1460.92 621 1470.97 621 1483.42V1495.87C621 1498.79 618.675 1501.12 615.75 1501.12H506.25C503.325 1501.12 501 1498.79 501 1495.87V1483.42C501 1470.97 511.05 1460.92 523.5 1460.92H527.175V1450.49C527.175 1447.8 529.357 1445.62 532.05 1445.62Z" fill="black"/>
<path fill-rule="evenodd" clip-rule="evenodd" d="M615.75 1510.87H506.25C503.325 1510.87 501 1513.19 501 1516.12V1559.39C501 1571.84 511.05 1581.89 523.5 1581.89H598.5C610.95 1581.89 621 1571.84 621 1559.39V1516.12C621 1513.19 618.6 1510.87 615.75 1510.87ZM588.701 1531.79C590.523 1529.81 590.394 1526.73 588.412 1524.9C586.429 1523.08 583.346 1523.21 581.523 1525.19L558.476 1550.26L546.138 1537.93C544.235 1536.02 541.148 1536.02 539.244 1537.93C537.34 1539.83 537.34 1542.92 539.244 1544.82L553.518 1559.09C556.383 1561.96 561.058 1561.86 563.801 1558.88L588.701 1531.79Z" fill="black"/>
</g>
</g>
</g>
<g id="Black-M">
<g id="Solid / Calendar Ok Solid_10">
<g id="Shape_10">
<path d="M2906.48 1032.37C2908.58 1032.37 2910.28 1034.07 2910.28 1036.16V1044.27H2925.21V1036.16C2925.21 1034.07 2926.91 1032.37 2929 1032.37C2931.09 1032.37 2932.79 1034.07 2932.79 1036.16V1044.27H2947.67V1036.16C2947.67 1034.07 2949.36 1032.37 2951.46 1032.37C2953.55 1032.37 2955.25 1034.07 2955.25 1036.16V1044.27H2958.17C2967.79 1044.27 2975.67 1052.09 2975.67 1061.77V1071.45C2975.67 1073.73 2973.86 1075.54 2971.58 1075.54H2886.42C2884.14 1075.54 2882.33 1073.73 2882.33 1071.45V1061.77C2882.33 1052.09 2890.15 1044.27 2899.83 1044.27H2902.69V1036.16C2902.69 1034.07 2904.39 1032.37 2906.48 1032.37Z" fill="black"/>
<path fill-rule="evenodd" clip-rule="evenodd" d="M2971.58 1083.12H2886.42C2884.14 1083.12 2882.33 1084.93 2882.33 1087.2V1120.86C2882.33 1130.55 2890.15 1138.36 2899.83 1138.36H2958.17C2967.85 1138.36 2975.67 1130.55 2975.67 1120.86V1087.2C2975.67 1084.93 2973.8 1083.12 2971.58 1083.12ZM2950.55 1099.4C2951.96 1097.85 2951.86 1095.46 2950.32 1094.04C2948.78 1092.62 2946.38 1092.72 2944.96 1094.26L2927.04 1113.76L2917.44 1104.17C2915.96 1102.69 2913.56 1102.69 2912.08 1104.17C2910.6 1105.65 2910.6 1108.05 2912.08 1109.53L2923.18 1120.63C2925.41 1122.86 2929.05 1122.78 2931.18 1120.46L2950.55 1099.4Z" fill="black"/>
</g>
</g>
</g>
<g id="Heavy-M">
<g id="Solid / Calendar Ok Solid_11">
<g id="Shape_11">
<path d="M2610.48 1032.37C2612.58 1032.37 2614.28 1034.07 2614.28 1036.16V1044.27H2629.21V1036.16C2629.21 1034.07 2630.91 1032.37 2633 1032.37C2635.09 1032.37 2636.79 1034.07 2636.79 1036.16V1044.27H2651.67V1036.16C2651.67 1034.07 2653.36 1032.37 2655.46 1032.37C2657.55 1032.37 2659.25 1034.07 2659.25 1036.16V1044.27H2662.17C2671.79 1044.27 2679.67 1052.09 2679.67 1061.77V1071.45C2679.67 1073.73 2677.86 1075.54 2675.58 1075.54H2590.42C2588.14 1075.54 2586.33 1073.73 2586.33 1071.45V1061.77C2586.33 1052.09 2594.15 1044.27 2603.83 1044.27H2606.69V1036.16C2606.69 1034.07 2608.39 1032.37 2610.48 1032.37Z" fill="black"/>
<path fill-rule="evenodd" clip-rule="evenodd" d="M2675.58 1083.12H2590.42C2588.14 1083.12 2586.33 1084.93 2586.33 1087.2V1120.86C2586.33 1130.55 2594.15 1138.36 2603.83 1138.36H2662.17C2671.85 1138.36 2679.67 1130.55 2679.67 1120.86V1087.2C2679.67 1084.93 2677.8 1083.12 2675.58 1083.12ZM2654.55 1099.4C2655.96 1097.85 2655.86 1095.46 2654.32 1094.04C2652.78 1092.62 2650.38 1092.72 2648.96 1094.26L2631.04 1113.76L2621.44 1104.17C2619.96 1102.69 2617.56 1102.69 2616.08 1104.17C2614.6 1105.65 2614.6 1108.05 2616.08 1109.53L2627.18 1120.63C2629.41 1122.86 2633.05 1122.78 2635.18 1120.46L2654.55 1099.4Z" fill="black"/>
</g>
</g>
</g>
<g id="Bold-M">
<g id="Solid / Calendar Ok Solid_12">
<g id="Shape_12">
<path d="M2314.48 1032.37C2316.58 1032.37 2318.28 1034.07 2318.28 1036.16V1044.27H2333.21V1036.16C2333.21 1034.07 2334.91 1032.37 2337 1032.37C2339.09 1032.37 2340.79 1034.07 2340.79 1036.16V1044.27H2355.67V1036.16C2355.67 1034.07 2357.36 1032.37 2359.46 1032.37C2361.55 1032.37 2363.25 1034.07 2363.25 1036.16V1044.27H2366.17C2375.79 1044.27 2383.67 1052.09 2383.67 1061.77V1071.45C2383.67 1073.73 2381.86 1075.54 2379.58 1075.54H2294.42C2292.14 1075.54 2290.33 1073.73 2290.33 1071.45V1061.77C2290.33 1052.09 2298.15 1044.27 2307.83 1044.27H2310.69V1036.16C2310.69 1034.07 2312.39 1032.37 2314.48 1032.37Z" fill="black"/>
<path fill-rule="evenodd" clip-rule="evenodd" d="M2379.58 1083.12H2294.42C2292.14 1083.12 2290.33 1084.93 2290.33 1087.2V1120.86C2290.33 1130.55 2298.15 1138.36 2307.83 1138.36H2366.17C2375.85 1138.36 2383.67 1130.55 2383.67 1120.86V1087.2C2383.67 1084.93 2381.8 1083.12 2379.58 1083.12ZM2358.55 1099.4C2359.96 1097.85 2359.86 1095.46 2358.32 1094.04C2356.78 1092.62 2354.38 1092.72 2352.96 1094.26L2335.04 1113.76L2325.44 1104.17C2323.96 1102.69 2321.56 1102.69 2320.08 1104.17C2318.6 1105.65 2318.6 1108.05 2320.08 1109.53L2331.18 1120.63C2333.41 1122.86 2337.05 1122.78 2339.18 1120.46L2358.55 1099.4Z" fill="black"/>
</g>
</g>
</g>
<g id="Semibold-M">
<g id="Solid / Calendar Ok Solid_13">
<g id="Shape_13">
<path d="M2018.48 1032.37C2020.58 1032.37 2022.28 1034.07 2022.28 1036.16V1044.27H2037.21V1036.16C2037.21 1034.07 2038.91 1032.37 2041 1032.37C2043.09 1032.37 2044.79 1034.07 2044.79 1036.16V1044.27H2059.67V1036.16C2059.67 1034.07 2061.36 1032.37 2063.46 1032.37C2065.55 1032.37 2067.25 1034.07 2067.25 1036.16V1044.27H2070.17C2079.79 1044.27 2087.67 1052.09 2087.67 1061.77V1071.45C2087.67 1073.73 2085.86 1075.54 2083.58 1075.54H1998.42C1996.14 1075.54 1994.33 1073.73 1994.33 1071.45V1061.77C1994.33 1052.09 2002.15 1044.27 2011.83 1044.27H2014.69V1036.16C2014.69 1034.07 2016.39 1032.37 2018.48 1032.37Z" fill="black"/>
<path fill-rule="evenodd" clip-rule="evenodd" d="M2083.58 1083.12H1998.42C1996.14 1083.12 1994.33 1084.93 1994.33 1087.2V1120.86C1994.33 1130.55 2002.15 1138.36 2011.83 1138.36H2070.17C2079.85 1138.36 2087.67 1130.55 2087.67 1120.86V1087.2C2087.67 1084.93 2085.8 1083.12 2083.58 1083.12ZM2062.55 1099.4C2063.96 1097.85 2063.86 1095.46 2062.32 1094.04C2060.78 1092.62 2058.38 1092.72 2056.96 1094.26L2039.04 1113.76L2029.44 1104.17C2027.96 1102.69 2025.56 1102.69 2024.08 1104.17C2022.6 1105.65 2022.6 1108.05 2024.08 1109.53L2035.18 1120.63C2037.41 1122.86 2041.05 1122.78 2043.18 1120.46L2062.55 1099.4Z" fill="black"/>
</g>
</g>
</g>
<g id="Medium-M">
<g id="Solid / Calendar Ok Solid_14">
<g id="Shape_14">
<path d="M1722.48 1032.37C1724.58 1032.37 1726.28 1034.07 1726.28 1036.16V1044.27H1741.21V1036.16C1741.21 1034.07 1742.91 1032.37 1745 1032.37C1747.09 1032.37 1748.79 1034.07 1748.79 1036.16V1044.27H1763.67V1036.16C1763.67 1034.07 1765.36 1032.37 1767.46 1032.37C1769.55 1032.37 1771.25 1034.07 1771.25 1036.16V1044.27H1774.17C1783.79 1044.27 1791.67 1052.09 1791.67 1061.77V1071.45C1791.67 1073.73 1789.86 1075.54 1787.58 1075.54H1702.42C1700.14 1075.54 1698.33 1073.73 1698.33 1071.45V1061.77C1698.33 1052.09 1706.15 1044.27 1715.83 1044.27H1718.69V1036.16C1718.69 1034.07 1720.39 1032.37 1722.48 1032.37Z" fill="black"/>
<path fill-rule="evenodd" clip-rule="evenodd" d="M1787.58 1083.12H1702.42C1700.14 1083.12 1698.33 1084.93 1698.33 1087.2V1120.86C1698.33 1130.55 1706.15 1138.36 1715.83 1138.36H1774.17C1783.85 1138.36 1791.67 1130.55 1791.67 1120.86V1087.2C1791.67 1084.93 1789.8 1083.12 1787.58 1083.12ZM1766.55 1099.4C1767.96 1097.85 1767.86 1095.46 1766.32 1094.04C1764.78 1092.62 1762.38 1092.72 1760.96 1094.26L1743.04 1113.76L1733.44 1104.17C1731.96 1102.69 1729.56 1102.69 1728.08 1104.17C1726.6 1105.65 1726.6 1108.05 1728.08 1109.53L1739.18 1120.63C1741.41 1122.86 1745.05 1122.78 1747.18 1120.46L1766.55 1099.4Z" fill="black"/>
</g>
</g>
</g>
<g id="Regular-M">
<g id="Solid / Calendar Ok Solid_15">
<g id="Shape_15">
<path d="M1426.48 1032.37C1428.58 1032.37 1430.28 1034.07 1430.28 1036.16V1044.27H1445.21V1036.16C1445.21 1034.07 1446.91 1032.37 1449 1032.37C1451.09 1032.37 1452.79 1034.07 1452.79 1036.16V1044.27H1467.67V1036.16C1467.67 1034.07 1469.36 1032.37 1471.46 1032.37C1473.55 1032.37 1475.25 1034.07 1475.25 1036.16V1044.27H1478.17C1487.79 1044.27 1495.67 1052.09 1495.67 1061.77V1071.45C1495.67 1073.73 1493.86 1075.54 1491.58 1075.54H1406.42C1404.14 1075.54 1402.33 1073.73 1402.33 1071.45V1061.77C1402.33 1052.09 1410.15 1044.27 1419.83 1044.27H1422.69V1036.16C1422.69 1034.07 1424.39 1032.37 1426.48 1032.37Z" fill="black"/>
<path fill-rule="evenodd" clip-rule="evenodd" d="M1491.58 1083.12H1406.42C1404.14 1083.12 1402.33 1084.93 1402.33 1087.2V1120.86C1402.33 1130.55 1410.15 1138.36 1419.83 1138.36H1478.17C1487.85 1138.36 1495.67 1130.55 1495.67 1120.86V1087.2C1495.67 1084.93 1493.8 1083.12 1491.58 1083.12ZM1470.55 1099.4C1471.96 1097.85 1471.86 1095.46 1470.32 1094.04C1468.78 1092.62 1466.38 1092.72 1464.96 1094.26L1447.04 1113.76L1437.44 1104.17C1435.96 1102.69 1433.56 1102.69 1432.08 1104.17C1430.6 1105.65 1430.6 1108.05 1432.08 1109.53L1443.18 1120.63C1445.41 1122.86 1449.05 1122.78 1451.18 1120.46L1470.55 1099.4Z" fill="black"/>
</g>
</g>
</g>
<g id="Light-M">
<g id="Solid / Calendar Ok Solid_16">
<g id="Shape_16">
<path d="M1130.48 1032.37C1132.58 1032.37 1134.28 1034.07 1134.28 1036.16V1044.27H1149.21V1036.16C1149.21 1034.07 1150.91 1032.37 1153 1032.37C1155.09 1032.37 1156.79 1034.07 1156.79 1036.16V1044.27H1171.67V1036.16C1171.67 1034.07 1173.36 1032.37 1175.46 1032.37C1177.55 1032.37 1179.25 1034.07 1179.25 1036.16V1044.27H1182.17C1191.79 1044.27 1199.67 1052.09 1199.67 1061.77V1071.45C1199.67 1073.73 1197.86 1075.54 1195.58 1075.54H1110.42C1108.14 1075.54 1106.33 1073.73 1106.33 1071.45V1061.77C1106.33 1052.09 1114.15 1044.27 1123.83 1044.27H1126.69V1036.16C1126.69 1034.07 1128.39 1032.37 1130.48 1032.37Z" fill="black"/>
<path fill-rule="evenodd" clip-rule="evenodd" d="M1195.58 1083.12H1110.42C1108.14 1083.12 1106.33 1084.93 1106.33 1087.2V1120.86C1106.33 1130.55 1114.15 1138.36 1123.83 1138.36H1182.17C1191.85 1138.36 1199.67 1130.55 1199.67 1120.86V1087.2C1199.67 1084.93 1197.8 1083.12 1195.58 1083.12ZM1174.55 1099.4C1175.96 1097.85 1175.86 1095.46 1174.32 1094.04C1172.78 1092.62 1170.38 1092.72 1168.96 1094.26L1151.04 1113.76L1141.44 1104.17C1139.96 1102.69 1137.56 1102.69 1136.08 1104.17C1134.6 1105.65 1134.6 1108.05 1136.08 1109.53L1147.18 1120.63C1149.41 1122.86 1153.05 1122.78 1155.18 1120.46L1174.55 1099.4Z" fill="black"/>
</g>
</g>
</g>
<g id="Thin-M">
<g id="Solid / Calendar Ok Solid_17">
<g id="Shape_17">
<path d="M834.484 1032.37C836.578 1032.37 838.276 1034.07 838.276 1036.16V1044.27H853.209V1036.16C853.209 1034.07 854.906 1032.37 857.001 1032.37C859.095 1032.37 860.792 1034.07 860.792 1036.16V1044.27H875.667V1036.16C875.667 1034.07 877.365 1032.37 879.459 1032.37C881.553 1032.37 883.251 1034.07 883.251 1036.16V1044.27H886.167C895.792 1044.27 903.667 1052.09 903.667 1061.77V1071.45C903.667 1073.73 901.859 1075.54 899.584 1075.54H814.417C812.142 1075.54 810.334 1073.73 810.334 1071.45V1061.77C810.334 1052.09 818.151 1044.27 827.834 1044.27H830.692V1036.16C830.692 1034.07 832.39 1032.37 834.484 1032.37Z" fill="black"/>
<path fill-rule="evenodd" clip-rule="evenodd" d="M899.584 1083.12H814.417C812.142 1083.12 810.334 1084.93 810.334 1087.2V1120.86C810.334 1130.55 818.151 1138.36 827.834 1138.36H886.167C895.851 1138.36 903.667 1130.55 903.667 1120.86V1087.2C903.667 1084.93 901.801 1083.12 899.584 1083.12ZM878.546 1099.4C879.963 1097.85 879.862 1095.46 878.321 1094.04C876.779 1092.62 874.381 1092.72 872.963 1094.26L855.038 1113.76L845.442 1104.17C843.961 1102.69 841.56 1102.69 840.079 1104.17C838.599 1105.65 838.599 1108.05 840.079 1109.53L851.181 1120.63C853.41 1122.86 857.046 1122.78 859.179 1120.46L878.546 1099.4Z" fill="black"/>
</g>
</g>
</g>
<g id="Ultralight-M">
<g id="Solid / Calendar Ok Solid_18">
<g id="Shape_18">
<path d="M538.484 1032.37C540.578 1032.37 542.276 1034.07 542.276 1036.16V1044.27H557.209V1036.16C557.209 1034.07 558.906 1032.37 561.001 1032.37C563.095 1032.37 564.792 1034.07 564.792 1036.16V1044.27H579.667V1036.16C579.667 1034.07 581.365 1032.37 583.459 1032.37C585.553 1032.37 587.251 1034.07 587.251 1036.16V1044.27H590.167C599.792 1044.27 607.667 1052.09 607.667 1061.77V1071.45C607.667 1073.73 605.859 1075.54 603.584 1075.54H518.417C516.142 1075.54 514.334 1073.73 514.334 1071.45V1061.77C514.334 1052.09 522.151 1044.27 531.834 1044.27H534.692V1036.16C534.692 1034.07 536.39 1032.37 538.484 1032.37Z" fill="black"/>
<path fill-rule="evenodd" clip-rule="evenodd" d="M603.584 1083.12H518.417C516.142 1083.12 514.334 1084.93 514.334 1087.2V1120.86C514.334 1130.55 522.151 1138.36 531.834 1138.36H590.167C599.851 1138.36 607.667 1130.55 607.667 1120.86V1087.2C607.667 1084.93 605.801 1083.12 603.584 1083.12ZM582.546 1099.4C583.963 1097.85 583.862 1095.46 582.321 1094.04C580.779 1092.62 578.381 1092.72 576.963 1094.26L559.038 1113.76L549.442 1104.17C547.961 1102.69 545.56 1102.69 544.079 1104.17C542.599 1105.65 542.599 1108.05 544.079 1109.53L555.181 1120.63C557.41 1122.86 561.046 1122.78 563.179 1120.46L582.546 1099.4Z" fill="black"/>
</g>
</g>
</g>
<g id="Black-S">
<g id="Solid / Calendar Ok Solid_19">
<g id="Shape_19">
<path d="M2912.92 619.121C2914.41 619.121 2915.62 620.334 2915.62 621.829V627.621H2926.29V621.829C2926.29 620.334 2927.5 619.121 2929 619.121C2930.5 619.121 2931.71 620.334 2931.71 621.829V627.621H2942.33V621.829C2942.33 620.334 2943.55 619.121 2945.04 619.121C2946.54 619.121 2947.75 620.334 2947.75 621.829V627.621H2949.83C2956.71 627.621 2962.33 633.204 2962.33 640.121V647.038C2962.33 648.663 2961.04 649.954 2959.42 649.954H2898.58C2896.96 649.954 2895.67 648.663 2895.67 647.038V640.121C2895.67 633.204 2901.25 627.621 2908.17 627.621H2910.21V621.829C2910.21 620.334 2911.42 619.121 2912.92 619.121Z" fill="black"/>
<path fill-rule="evenodd" clip-rule="evenodd" d="M2959.42 655.371H2898.58C2896.96 655.371 2895.67 656.663 2895.67 658.288V682.329C2895.67 689.246 2901.25 694.829 2908.17 694.829H2949.83C2956.75 694.829 2962.33 689.246 2962.33 682.329V658.288C2962.33 656.663 2961 655.371 2959.42 655.371ZM2944.39 666.996C2945.4 665.895 2945.33 664.182 2944.23 663.17C2943.13 662.157 2941.41 662.229 2940.4 663.33L2927.6 677.258L2920.74 670.403C2919.69 669.346 2917.97 669.346 2916.91 670.403C2915.86 671.461 2915.86 673.176 2916.91 674.233L2924.84 682.163C2926.43 683.755 2929.03 683.701 2930.56 682.043L2944.39 666.996Z" fill="black"/>
</g>
</g>
</g>
<g id="Heavy-S">
<g id="Solid / Calendar Ok Solid_20">
<g id="Shape_20">
<path d="M2616.92 619.121C2618.41 619.121 2619.62 620.334 2619.62 621.829V627.621H2630.29V621.829C2630.29 620.334 2631.5 619.121 2633 619.121C2634.5 619.121 2635.71 620.334 2635.71 621.829V627.621H2646.33V621.829C2646.33 620.334 2647.55 619.121 2649.04 619.121C2650.54 619.121 2651.75 620.334 2651.75 621.829V627.621H2653.83C2660.71 627.621 2666.33 633.204 2666.33 640.121V647.038C2666.33 648.663 2665.04 649.954 2663.42 649.954H2602.58C2600.96 649.954 2599.67 648.663 2599.67 647.038V640.121C2599.67 633.204 2605.25 627.621 2612.17 627.621H2614.21V621.829C2614.21 620.334 2615.42 619.121 2616.92 619.121Z" fill="black"/>
<path fill-rule="evenodd" clip-rule="evenodd" d="M2663.42 655.371H2602.58C2600.96 655.371 2599.67 656.663 2599.67 658.288V682.329C2599.67 689.246 2605.25 694.829 2612.17 694.829H2653.83C2660.75 694.829 2666.33 689.246 2666.33 682.329V658.288C2666.33 656.663 2665 655.371 2663.42 655.371ZM2648.39 666.996C2649.4 665.895 2649.33 664.182 2648.23 663.17C2647.13 662.157 2645.41 662.229 2644.4 663.33L2631.6 677.258L2624.74 670.403C2623.69 669.346 2621.97 669.346 2620.91 670.403C2619.86 671.461 2619.86 673.176 2620.91 674.233L2628.84 682.163C2630.43 683.755 2633.03 683.701 2634.56 682.043L2648.39 666.996Z" fill="black"/>
</g>
</g>
</g>
<g id="Bold-S">
<g id="Solid / Calendar Ok Solid_21">
<g id="Shape_21">
<path d="M2320.92 619.121C2322.41 619.121 2323.62 620.334 2323.62 621.829V627.621H2334.29V621.829C2334.29 620.334 2335.5 619.121 2337 619.121C2338.5 619.121 2339.71 620.334 2339.71 621.829V627.621H2350.33V621.829C2350.33 620.334 2351.55 619.121 2353.04 619.121C2354.54 619.121 2355.75 620.334 2355.75 621.829V627.621H2357.83C2364.71 627.621 2370.33 633.204 2370.33 640.121V647.038C2370.33 648.663 2369.04 649.954 2367.42 649.954H2306.58C2304.96 649.954 2303.67 648.663 2303.67 647.038V640.121C2303.67 633.204 2309.25 627.621 2316.17 627.621H2318.21V621.829C2318.21 620.334 2319.42 619.121 2320.92 619.121Z" fill="black"/>
<path fill-rule="evenodd" clip-rule="evenodd" d="M2367.42 655.371H2306.58C2304.96 655.371 2303.67 656.663 2303.67 658.288V682.329C2303.67 689.246 2309.25 694.829 2316.17 694.829H2357.83C2364.75 694.829 2370.33 689.246 2370.33 682.329V658.288C2370.33 656.663 2369 655.371 2367.42 655.371ZM2352.39 666.996C2353.4 665.895 2353.33 664.182 2352.23 663.17C2351.13 662.157 2349.41 662.229 2348.4 663.33L2335.6 677.258L2328.74 670.403C2327.69 669.346 2325.97 669.346 2324.91 670.403C2323.86 671.461 2323.86 673.176 2324.91 674.233L2332.84 682.163C2334.43 683.755 2337.03 683.701 2338.56 682.043L2352.39 666.996Z" fill="black"/>
</g>
</g>
</g>
<g id="Semibold-S">
<g id="Solid / Calendar Ok Solid_22">
<g id="Shape_22">
<path d="M2024.92 619.121C2026.41 619.121 2027.62 620.334 2027.62 621.829V627.621H2038.29V621.829C2038.29 620.334 2039.5 619.121 2041 619.121C2042.5 619.121 2043.71 620.334 2043.71 621.829V627.621H2054.33V621.829C2054.33 620.334 2055.55 619.121 2057.04 619.121C2058.54 619.121 2059.75 620.334 2059.75 621.829V627.621H2061.83C2068.71 627.621 2074.33 633.204 2074.33 640.121V647.038C2074.33 648.663 2073.04 649.954 2071.42 649.954H2010.58C2008.96 649.954 2007.67 648.663 2007.67 647.038V640.121C2007.67 633.204 2013.25 627.621 2020.17 627.621H2022.21V621.829C2022.21 620.334 2023.42 619.121 2024.92 619.121Z" fill="black"/>
<path fill-rule="evenodd" clip-rule="evenodd" d="M2071.42 655.371H2010.58C2008.96 655.371 2007.67 656.663 2007.67 658.288V682.329C2007.67 689.246 2013.25 694.829 2020.17 694.829H2061.83C2068.75 694.829 2074.33 689.246 2074.33 682.329V658.288C2074.33 656.663 2073 655.371 2071.42 655.371ZM2056.39 666.996C2057.4 665.895 2057.33 664.182 2056.23 663.17C2055.13 662.157 2053.41 662.229 2052.4 663.33L2039.6 677.258L2032.74 670.403C2031.69 669.346 2029.97 669.346 2028.91 670.403C2027.86 671.461 2027.86 673.176 2028.91 674.233L2036.84 682.163C2038.43 683.755 2041.03 683.701 2042.56 682.043L2056.39 666.996Z" fill="black"/>
</g>
</g>
</g>
<g id="Medium-S">
<g id="Solid / Calendar Ok Solid_23">
<g id="Shape_23">
<path d="M1728.92 619.121C1730.41 619.121 1731.62 620.334 1731.62 621.829V627.621H1742.29V621.829C1742.29 620.334 1743.5 619.121 1745 619.121C1746.5 619.121 1747.71 620.334 1747.71 621.829V627.621H1758.33V621.829C1758.33 620.334 1759.55 619.121 1761.04 619.121C1762.54 619.121 1763.75 620.334 1763.75 621.829V627.621H1765.83C1772.71 627.621 1778.33 633.204 1778.33 640.121V647.038C1778.33 648.663 1777.04 649.954 1775.42 649.954H1714.58C1712.96 649.954 1711.67 648.663 1711.67 647.038V640.121C1711.67 633.204 1717.25 627.621 1724.17 627.621H1726.21V621.829C1726.21 620.334 1727.42 619.121 1728.92 619.121Z" fill="black"/>
<path fill-rule="evenodd" clip-rule="evenodd" d="M1775.42 655.371H1714.58C1712.96 655.371 1711.67 656.663 1711.67 658.288V682.329C1711.67 689.246 1717.25 694.829 1724.17 694.829H1765.83C1772.75 694.829 1778.33 689.246 1778.33 682.329V658.288C1778.33 656.663 1777 655.371 1775.42 655.371ZM1760.39 666.996C1761.4 665.895 1761.33 664.182 1760.23 663.17C1759.13 662.157 1757.41 662.229 1756.4 663.33L1743.6 677.258L1736.74 670.403C1735.69 669.346 1733.97 669.346 1732.91 670.403C1731.86 671.461 1731.86 673.176 1732.91 674.233L1740.84 682.163C1742.43 683.755 1745.03 683.701 1746.56 682.043L1760.39 666.996Z" fill="black"/>
</g>
</g>
</g>
<g id="Regular-S">
<g id="Solid / Calendar Ok Solid_24">
<g id="Shape_24">
<path d="M1432.92 619.121C1434.41 619.121 1435.62 620.334 1435.62 621.829V627.621H1446.29V621.829C1446.29 620.334 1447.5 619.121 1449 619.121C1450.5 619.121 1451.71 620.334 1451.71 621.829V627.621H1462.33V621.829C1462.33 620.334 1463.55 619.121 1465.04 619.121C1466.54 619.121 1467.75 620.334 1467.75 621.829V627.621H1469.83C1476.71 627.621 1482.33 633.204 1482.33 640.121V647.038C1482.33 648.663 1481.04 649.954 1479.42 649.954H1418.58C1416.96 649.954 1415.67 648.663 1415.67 647.038V640.121C1415.67 633.204 1421.25 627.621 1428.17 627.621H1430.21V621.829C1430.21 620.334 1431.42 619.121 1432.92 619.121Z" fill="black"/>
<path fill-rule="evenodd" clip-rule="evenodd" d="M1479.42 655.371H1418.58C1416.96 655.371 1415.67 656.663 1415.67 658.288V682.329C1415.67 689.246 1421.25 694.829 1428.17 694.829H1469.83C1476.75 694.829 1482.33 689.246 1482.33 682.329V658.288C1482.33 656.663 1481 655.371 1479.42 655.371ZM1464.39 666.996C1465.4 665.895 1465.33 664.182 1464.23 663.17C1463.13 662.157 1461.41 662.229 1460.4 663.33L1447.6 677.258L1440.74 670.403C1439.69 669.346 1437.97 669.346 1436.91 670.403C1435.86 671.461 1435.86 673.176 1436.91 674.233L1444.84 682.163C1446.43 683.755 1449.03 683.701 1450.56 682.043L1464.39 666.996Z" fill="black"/>
</g>
</g>
</g>
<g id="Light-S">
<g id="Solid / Calendar Ok Solid_25">
<g id="Shape_25">
<path d="M1136.92 619.121C1138.41 619.121 1139.62 620.334 1139.62 621.829V627.621H1150.29V621.829C1150.29 620.334 1151.5 619.121 1153 619.121C1154.5 619.121 1155.71 620.334 1155.71 621.829V627.621H1166.33V621.829C1166.33 620.334 1167.55 619.121 1169.04 619.121C1170.54 619.121 1171.75 620.334 1171.75 621.829V627.621H1173.83C1180.71 627.621 1186.33 633.204 1186.33 640.121V647.038C1186.33 648.663 1185.04 649.954 1183.42 649.954H1122.58C1120.96 649.954 1119.67 648.663 1119.67 647.038V640.121C1119.67 633.204 1125.25 627.621 1132.17 627.621H1134.21V621.829C1134.21 620.334 1135.42 619.121 1136.92 619.121Z" fill="black"/>
<path fill-rule="evenodd" clip-rule="evenodd" d="M1183.42 655.371H1122.58C1120.96 655.371 1119.67 656.663 1119.67 658.288V682.329C1119.67 689.246 1125.25 694.829 1132.17 694.829H1173.83C1180.75 694.829 1186.33 689.246 1186.33 682.329V658.288C1186.33 656.663 1185 655.371 1183.42 655.371ZM1168.39 666.996C1169.4 665.895 1169.33 664.182 1168.23 663.17C1167.13 662.157 1165.41 662.229 1164.4 663.33L1151.6 677.258L1144.74 670.403C1143.69 669.346 1141.97 669.346 1140.91 670.403C1139.86 671.461 1139.86 673.176 1140.91 674.233L1148.84 682.163C1150.43 683.755 1153.03 683.701 1154.56 682.043L1168.39 666.996Z" fill="black"/>
</g>
</g>
</g>
<g id="Thin-S">
<g id="Solid / Calendar Ok Solid_26">
<g id="Shape_26">
<path d="M840.916 619.121C842.412 619.121 843.624 620.334 843.624 621.829V627.621H854.291V621.829C854.291 620.334 855.504 619.121 856.999 619.121C858.495 619.121 859.708 620.334 859.708 621.829V627.621H870.333V621.829C870.333 620.334 871.545 619.121 873.041 619.121C874.537 619.121 875.749 620.334 875.749 621.829V627.621H877.833C884.708 627.621 890.333 633.204 890.333 640.121V647.038C890.333 648.663 889.041 649.954 887.416 649.954H826.583C824.958 649.954 823.666 648.663 823.666 647.038V640.121C823.666 633.204 829.249 627.621 836.166 627.621H838.208V621.829C838.208 620.334 839.42 619.121 840.916 619.121Z" fill="black"/>
<path fill-rule="evenodd" clip-rule="evenodd" d="M887.416 655.371H826.583C824.958 655.371 823.666 656.663 823.666 658.288V682.329C823.666 689.246 829.249 694.829 836.166 694.829H877.833C884.749 694.829 890.333 689.246 890.333 682.329V658.288C890.333 656.663 888.999 655.371 887.416 655.371ZM872.389 666.996C873.401 665.895 873.329 664.182 872.228 663.17C871.127 662.157 869.414 662.229 868.401 663.33L855.597 677.258L848.743 670.403C847.685 669.346 845.97 669.346 844.913 670.403C843.855 671.461 843.855 673.176 844.913 674.233L852.842 682.163C854.434 683.755 857.032 683.701 858.555 682.043L872.389 666.996Z" fill="black"/>
</g>
</g>
</g>
<g id="Ultralight-S">
<g id="Solid / Calendar Ok Solid_27">
<g id="Shape_27">
<path d="M544.916 619.121C546.412 619.121 547.624 620.334 547.624 621.829V627.621H558.291V621.829C558.291 620.334 559.504 619.121 560.999 619.121C562.495 619.121 563.708 620.334 563.708 621.829V627.621H574.333V621.829C574.333 620.334 575.545 619.121 577.041 619.121C578.537 619.121 579.749 620.334 579.749 621.829V627.621H581.833C588.708 627.621 594.333 633.204 594.333 640.121V647.038C594.333 648.663 593.041 649.954 591.416 649.954H530.583C528.958 649.954 527.666 648.663 527.666 647.038V640.121C527.666 633.204 533.249 627.621 540.166 627.621H542.208V621.829C542.208 620.334 543.42 619.121 544.916 619.121Z" fill="black"/>
<path fill-rule="evenodd" clip-rule="evenodd" d="M591.416 655.371H530.583C528.958 655.371 527.666 656.663 527.666 658.288V682.329C527.666 689.246 533.249 694.829 540.166 694.829H581.833C588.749 694.829 594.333 689.246 594.333 682.329V658.288C594.333 656.663 592.999 655.371 591.416 655.371ZM576.389 666.996C577.401 665.895 577.329 664.182 576.228 663.17C575.127 662.157 573.414 662.229 572.401 663.33L559.597 677.258L552.743 670.403C551.685 669.346 549.97 669.346 548.913 670.403C547.855 671.461 547.855 673.176 548.913 674.233L556.842 682.163C558.434 683.755 561.032 683.701 562.555 682.043L576.389 666.996Z" fill="black"/>
</g>
</g>
</g>
</g>
</g>
<defs>
<clipPath id="clip0_805_27002">
<rect width="3300" height="2200" fill="white"/>
</clipPath>
</defs>
</svg>
