<svg width="3300" height="2200" viewBox="0 0 3300 2200" fill="none" xmlns="http://www.w3.org/2000/svg">
<rect width="3300" height="2200" fill="#E5E5E5"/>
<g id="Finance / Outline / Multicurency" clip-path="url(#clip0_0_1)">
<g id="Notes">
<path id="artboard" d="M3300 0H0V2200H3300V0Z" fill="white"/>
<path id="Vector" d="M263 292H3036" stroke="black" stroke-width="0.5"/>
<text id="Weight/Scale Variations" fill="black" xml:space="preserve" style="white-space: pre" font-family="Roboto" font-size="12" letter-spacing="0em"><tspan x="263" y="321.102">Weight/Scale Variations</tspan></text>
<text id="Ultralight" fill="black" xml:space="preserve" style="white-space: pre" font-family="Roboto" font-size="12" letter-spacing="0em"><tspan x="535.211" y="321.102">Ultralight</tspan></text>
<text id="Thin" fill="black" xml:space="preserve" style="white-space: pre" font-family="Roboto" font-size="12" letter-spacing="0em"><tspan x="844.422" y="321.102">Thin</tspan></text>
<text id="Light" fill="black" xml:space="preserve" style="white-space: pre" font-family="Roboto" font-size="12" letter-spacing="0em"><tspan x="1139.63" y="321.102">Light</tspan></text>
<text id="Regular" fill="black" xml:space="preserve" style="white-space: pre" font-family="Roboto" font-size="12" letter-spacing="0em"><tspan x="1429.34" y="321.102">Regular</tspan></text>
<text id="Medium" fill="black" xml:space="preserve" style="white-space: pre" font-family="Roboto" font-size="12" letter-spacing="0em"><tspan x="1724.56" y="321.102">Medium</tspan></text>
<text id="Semibold" fill="black" xml:space="preserve" style="white-space: pre" font-family="Roboto" font-size="12" letter-spacing="0em"><tspan x="2017.77" y="321.102">Semibold</tspan></text>
<text id="Bold" fill="black" xml:space="preserve" style="white-space: pre" font-family="Roboto" font-size="12" letter-spacing="0em"><tspan x="2327.48" y="321.102">Bold</tspan></text>
<text id="Heavy" fill="black" xml:space="preserve" style="white-space: pre" font-family="Roboto" font-size="12" letter-spacing="0em"><tspan x="2620.19" y="321.102">Heavy</tspan></text>
<text id="Black" fill="black" xml:space="preserve" style="white-space: pre" font-family="Roboto" font-size="12" letter-spacing="0em"><tspan x="2918.4" y="321.102">Black</tspan></text>
<path id="Vector_2" d="M263 1903H3036" stroke="black" stroke-width="0.5"/>
<g id="Group">
<path id="Vector_3" d="M272.248 1933.83C276.555 1933.83 280.139 1930.26 280.139 1925.95C280.139 1921.64 276.545 1918.07 272.238 1918.07C267.941 1918.07 264.367 1921.64 264.367 1925.95C264.367 1930.26 267.951 1933.83 272.248 1933.83ZM272.248 1932.35C268.703 1932.35 265.871 1929.5 265.871 1925.95C265.871 1922.39 268.693 1919.55 272.238 1919.55C275.793 1919.55 278.635 1922.39 278.644 1925.95C278.654 1929.5 275.803 1932.35 272.248 1932.35ZM272.229 1929.57C272.697 1929.57 272.971 1929.26 272.971 1928.74V1926.68H275.197C275.695 1926.68 276.037 1926.43 276.037 1925.96C276.037 1925.48 275.715 1925.22 275.197 1925.22H272.971V1922.99C272.971 1922.47 272.697 1922.15 272.229 1922.15C271.76 1922.15 271.506 1922.49 271.506 1922.99V1925.22H269.299C268.781 1925.22 268.449 1925.48 268.449 1925.96C268.449 1926.43 268.801 1926.68 269.299 1926.68H271.506V1928.74C271.506 1929.24 271.76 1929.57 272.229 1929.57Z" fill="black"/>
</g>
<g id="Group_2">
<path id="Vector_4" d="M293.215 1935.91C298.664 1935.91 303.176 1931.4 303.176 1925.95C303.176 1920.51 298.654 1915.99 293.205 1915.99C287.766 1915.99 283.254 1920.51 283.254 1925.95C283.254 1931.4 287.775 1935.91 293.215 1935.91ZM293.215 1934.25C288.605 1934.25 284.924 1930.56 284.924 1925.95C284.924 1921.35 288.596 1917.65 293.205 1917.65C297.814 1917.65 301.506 1921.35 301.516 1925.95C301.525 1930.56 297.824 1934.25 293.215 1934.25ZM293.195 1930.59C293.713 1930.59 294.025 1930.23 294.025 1929.66V1926.77H297.082C297.629 1926.77 298.01 1926.49 298.01 1925.97C298.01 1925.44 297.648 1925.14 297.082 1925.14H294.025V1922.07C294.025 1921.5 293.713 1921.14 293.195 1921.14C292.678 1921.14 292.385 1921.52 292.385 1922.07V1925.14H289.338C288.771 1925.14 288.4 1925.44 288.4 1925.97C288.4 1926.49 288.791 1926.77 289.338 1926.77H292.385V1929.66C292.385 1930.21 292.678 1930.59 293.195 1930.59Z" fill="black"/>
</g>
<g id="Group_3">
<path id="Vector_5" d="M319.895 1938.67C326.857 1938.67 332.619 1932.92 332.619 1925.96C332.619 1919 326.848 1913.24 319.885 1913.24C312.932 1913.24 307.18 1919 307.18 1925.96C307.18 1932.92 312.941 1938.67 319.895 1938.67ZM319.895 1936.86C313.859 1936.86 309.006 1931.99 309.006 1925.96C309.006 1919.92 313.85 1915.06 319.885 1915.06C325.93 1915.06 330.783 1919.92 330.793 1925.96C330.803 1931.99 325.939 1936.86 319.895 1936.86ZM319.875 1931.94C320.441 1931.94 320.793 1931.54 320.793 1930.94V1926.87H325.031C325.617 1926.87 326.037 1926.54 326.037 1925.98C326.037 1925.4 325.647 1925.06 325.031 1925.06H320.793V1920.81C320.793 1920.2 320.441 1919.81 319.875 1919.81C319.309 1919.81 318.986 1920.22 318.986 1920.81V1925.06H314.758C314.143 1925.06 313.732 1925.4 313.732 1925.98C313.732 1926.54 314.162 1926.87 314.758 1926.87H318.986V1930.94C318.986 1931.53 319.309 1931.94 319.875 1931.94Z" fill="black"/>
</g>
<text id="Design Variations" fill="black" xml:space="preserve" style="white-space: pre" font-family="Roboto" font-size="12" letter-spacing="0em"><tspan x="263" y="1952.1">Design Variations</tspan></text>
<text id="Symbols are supported in up to nine weights and three scales." fill="black" xml:space="preserve" style="white-space: pre" font-family="Roboto" font-size="12" letter-spacing="0em"><tspan x="263" y="1970.1">Symbols are supported in up to nine weights and three scales.</tspan></text>
<text id="For optimal layout with text and other symbols, vertically align" fill="black" xml:space="preserve" style="white-space: pre" font-family="Roboto" font-size="12" letter-spacing="0em"><tspan x="263" y="1988.1">For optimal layout with text and other symbols, vertically align</tspan></text>
<text id="symbols with the adjacent text." fill="black" xml:space="preserve" style="white-space: pre" font-family="Roboto" font-size="12" letter-spacing="0em"><tspan x="263" y="2006.1">symbols with the adjacent text.</tspan></text>
<path id="Vector_6" opacity="0.4" d="M779 1919H776V1933H779V1919Z" fill="#00AEEF"/>
<g id="Group_4">
<path id="Vector_7" d="M789.527 1933H791.373L786.178 1918.91H784.439L779.244 1933H781.09L782.506 1928.97H788.111L789.527 1933ZM785.279 1921.05H785.338L787.594 1927.47H783.023L785.279 1921.05Z" fill="black"/>
</g>
<path id="Vector_8" opacity="0.4" d="M794.617 1919H791.617V1933H794.617V1919Z" fill="#00AEEF"/>
<text id="Margins" fill="black" xml:space="preserve" style="white-space: pre" font-family="Roboto" font-size="12" letter-spacing="0em"><tspan x="776" y="1952.1">Margins</tspan></text>
<text id="Leading and trailing margins on the left and right side of each symbol" fill="black" xml:space="preserve" style="white-space: pre" font-family="Roboto" font-size="12" letter-spacing="0em"><tspan x="776" y="1970.1">Leading and trailing margins on the left and right side of each symbol</tspan></text>
<text id="can be adjusted by modifying the width of the blue rectangles." fill="black" xml:space="preserve" style="white-space: pre" font-family="Roboto" font-size="12" letter-spacing="0em"><tspan x="776" y="1988.1">can be adjusted by modifying the width of the blue rectangles.</tspan></text>
<text id="Modifications are automatically applied proportionally to all" fill="black" xml:space="preserve" style="white-space: pre" font-family="Roboto" font-size="12" letter-spacing="0em"><tspan x="776" y="2006.1">Modifications are automatically applied proportionally to all</tspan></text>
<text id="scales and weights." fill="black" xml:space="preserve" style="white-space: pre" font-family="Roboto" font-size="12" letter-spacing="0em"><tspan x="776" y="2024.1">scales and weights.</tspan></text>
<g id="Group_5">
<path id="Vector_9" d="M1291.83 1936.12L1293.37 1937.66C1294.22 1938.49 1295.19 1938.42 1296.06 1937.46L1306.27 1926.34C1306.7 1926.63 1307.1 1926.62 1307.56 1926.53L1308.61 1926.31L1309.3 1927L1309.25 1927.52C1309.19 1928.05 1309.35 1928.47 1309.85 1928.97L1310.66 1929.78C1311.17 1930.29 1311.82 1930.31 1312.3 1929.84L1315.55 1926.58C1316.03 1926.11 1316.01 1925.45 1315.5 1924.94L1314.68 1924.12C1314.19 1923.62 1313.77 1923.45 1313.24 1923.53L1312.71 1923.59L1312.06 1922.92L1312.34 1921.78C1312.49 1921.21 1312.34 1920.74 1311.71 1920.14L1309.3 1917.75C1305.76 1914.22 1301.23 1914.33 1298.11 1917.46C1297.69 1917.89 1297.64 1918.48 1297.92 1918.91C1298.15 1919.28 1298.63 1919.5 1299.27 1919.34C1300.79 1918.96 1302.3 1919.07 1303.78 1920.08L1303.16 1921.66C1302.93 1922.25 1302.94 1922.73 1303.18 1923.17L1292.02 1933.44C1291.08 1934.31 1290.97 1935.26 1291.83 1936.12ZM1299.67 1917.85C1302.34 1915.86 1305.65 1916.17 1308.05 1918.59L1310.68 1921.19C1310.91 1921.43 1310.94 1921.61 1310.88 1921.91L1310.5 1923.47L1312.08 1925.04L1313.04 1924.95C1313.33 1924.92 1313.41 1924.94 1313.64 1925.17L1314.26 1925.79L1311.51 1928.54L1310.88 1927.92C1310.66 1927.7 1310.64 1927.6 1310.67 1927.32L1310.76 1926.36L1309.19 1924.8L1307.57 1925.11C1307.29 1925.17 1307.14 1925.17 1306.91 1924.92L1304.73 1922.75C1304.51 1922.51 1304.48 1922.37 1304.61 1922.05L1305.55 1919.78C1303.95 1918.24 1301.84 1917.39 1299.8 1918.05C1299.71 1918.08 1299.64 1918.06 1299.61 1918.02C1299.59 1917.97 1299.59 1917.92 1299.67 1917.85ZM1293.1 1935.41C1292.61 1934.91 1292.79 1934.61 1293.12 1934.31L1304.08 1924.19L1305.31 1925.42L1295.15 1936.35C1294.85 1936.68 1294.47 1936.78 1294.07 1936.38L1293.1 1935.41Z" fill="black"/>
</g>
<text id="Exporting" fill="black" xml:space="preserve" style="white-space: pre" font-family="Roboto" font-size="12" letter-spacing="0em"><tspan x="1289" y="1952.1">Exporting</tspan></text>
<text id="Symbols should be outlined when exporting to ensure the" fill="black" xml:space="preserve" style="white-space: pre" font-family="Roboto" font-size="12" letter-spacing="0em"><tspan x="1289" y="1970.1">Symbols should be outlined when exporting to ensure the</tspan></text>
<text id="design is preserved when submitting to Xcode." fill="black" xml:space="preserve" style="white-space: pre" font-family="Roboto" font-size="12" letter-spacing="0em"><tspan x="1289" y="1988.1">design is preserved when submitting to Xcode.</tspan></text>
<text id="template-version" fill="black" xml:space="preserve" style="white-space: pre" font-family="Roboto" font-size="12" letter-spacing="0em"><tspan x="2958" y="1932.1">Template v.1.0</tspan></text>
<text id="Generated from pencil.circle" fill="black" xml:space="preserve" style="white-space: pre" font-family="Roboto" font-size="12" letter-spacing="0em"><tspan x="2885" y="1950.1">Generated from pencil.circle</tspan></text>
<text id="Typeset at 100 points" fill="black" xml:space="preserve" style="white-space: pre" font-family="Roboto" font-size="12" letter-spacing="0em"><tspan x="2921" y="1968.1">Typeset at 100 points</tspan></text>
<text id="Small" fill="black" xml:space="preserve" style="white-space: pre" font-family="Roboto" font-size="12" letter-spacing="0em"><tspan x="263" y="725.102">Small</tspan></text>
<text id="Medium_2" fill="black" xml:space="preserve" style="white-space: pre" font-family="Roboto" font-size="12" letter-spacing="0em"><tspan x="263" y="1155.1">Medium</tspan></text>
<text id="Large" fill="black" xml:space="preserve" style="white-space: pre" font-family="Roboto" font-size="12" letter-spacing="0em"><tspan x="263" y="1585.1">Large</tspan></text>
</g>
<g id="Guides">
<g id="H-reference">
<path id="Vector_10" d="M393.932 696H396.666L369.566 625.541H367.076L339.977 696H342.662L351.94 671.537H384.703L393.932 696ZM368.199 628.91H368.443L383.824 669.291H352.818L368.199 628.91Z" fill="#27AAE1"/>
</g>
<path id="Baseline-S" d="M263 696H3036" stroke="#27AAE1" stroke-width="0.577"/>
<path id="Capline-S" d="M263 626H3036" stroke="#27AAE1" stroke-width="0.577"/>
<g id="H-reference_2">
<path id="Vector_11" d="M393.932 1126H396.666L369.566 1055.54H367.076L339.977 1126H342.662L351.94 1101.54H384.703L393.932 1126ZM368.199 1058.91H368.443L383.824 1099.29H352.818L368.199 1058.91Z" fill="#27AAE1"/>
</g>
<path id="Baseline-M" d="M263 1126H3036" stroke="#27AAE1" stroke-width="0.577"/>
<path id="Capline-M" d="M263 1056H3036" stroke="#27AAE1" stroke-width="0.577"/>
<g id="H-reference_3">
<path id="Vector_12" d="M393.932 1556H396.666L369.566 1485.54H367.076L339.977 1556H342.662L351.94 1531.54H384.703L393.932 1556ZM368.199 1488.91H368.443L383.824 1529.29H352.818L368.199 1488.91Z" fill="#27AAE1"/>
</g>
<g id="Group 1">
<path id="Baseline-L" d="M263 1556H3036" stroke="#27AAE1" stroke-width="0.577"/>
<path id="Capline-L" d="M263 1486H3036" stroke="#27AAE1" stroke-width="0.577"/>
</g>
<path id="left-margin" opacity="0.4" d="M1396.04 1030.79H1387.3V1150.13H1396.04V1030.79Z" fill="#00AEEF"/>
<path id="right-margin" opacity="0.4" d="M1510.39 1030.79H1501.65V1150.13H1510.39V1030.79Z" fill="#00AEEF"/>
</g>
<g id="Symbols">
<g id="Black-L">
<g id="Outline / Multicurency Outline">
<g id="Shape">
<path d="M2914 1463.25C2890.39 1463.25 2871.25 1482.39 2871.25 1506C2871.25 1515.15 2874.13 1523.63 2879.02 1530.59C2880.56 1532.77 2880.84 1535.95 2878.95 1537.85C2876.76 1540.06 2873.33 1539.35 2871.5 1536.83C2865.21 1528.17 2861.5 1517.52 2861.5 1506C2861.5 1477.01 2885.01 1453.5 2914 1453.5C2925.61 1453.5 2936.34 1457.27 2945.03 1463.65C2947.28 1465.3 2947.71 1468.35 2945.76 1470.33C2943.79 1472.34 2940.52 1472.35 2938.2 1470.76C2931.32 1466.02 2922.98 1463.25 2914 1463.25Z" fill="black"/>
<path d="M2924.12 1536.02C2924.12 1533.33 2926.31 1531.15 2929 1531.15H2959C2961.69 1531.15 2963.87 1533.33 2963.87 1536.02C2963.87 1538.71 2961.69 1540.9 2959 1540.9H2929C2926.31 1540.9 2924.12 1538.71 2924.12 1536.02Z" fill="black"/>
<path fill-rule="evenodd" clip-rule="evenodd" d="M2944 1483.5C2915.01 1483.5 2891.5 1507.01 2891.5 1536C2891.5 1564.99 2915.01 1588.5 2944 1588.5C2972.99 1588.5 2996.5 1564.99 2996.5 1536C2996.5 1507.01 2972.99 1483.5 2944 1483.5ZM2944 1493.25C2920.39 1493.25 2901.25 1512.39 2901.25 1536C2901.25 1559.61 2920.39 1578.75 2944 1578.75C2967.61 1578.75 2986.75 1559.61 2986.75 1536C2986.75 1512.39 2967.61 1493.25 2944 1493.25Z" fill="black"/>
</g>
</g>
</g>
<g id="Heavy-L">
<g id="Outline / Multicurency Outline_2">
<g id="Shape_2">
<path d="M2618 1463.25C2594.39 1463.25 2575.25 1482.39 2575.25 1506C2575.25 1515.15 2578.13 1523.63 2583.02 1530.59C2584.56 1532.77 2584.84 1535.95 2582.95 1537.85C2580.76 1540.06 2577.33 1539.35 2575.5 1536.83C2569.21 1528.17 2565.5 1517.52 2565.5 1506C2565.5 1477.01 2589.01 1453.5 2618 1453.5C2629.61 1453.5 2640.34 1457.27 2649.03 1463.65C2651.28 1465.3 2651.71 1468.35 2649.76 1470.33C2647.79 1472.34 2644.52 1472.35 2642.2 1470.76C2635.32 1466.02 2626.98 1463.25 2618 1463.25Z" fill="black"/>
<path d="M2628.12 1536.02C2628.12 1533.33 2630.31 1531.15 2633 1531.15H2663C2665.69 1531.15 2667.87 1533.33 2667.87 1536.02C2667.87 1538.71 2665.69 1540.9 2663 1540.9H2633C2630.31 1540.9 2628.12 1538.71 2628.12 1536.02Z" fill="black"/>
<path fill-rule="evenodd" clip-rule="evenodd" d="M2648 1483.5C2619.01 1483.5 2595.5 1507.01 2595.5 1536C2595.5 1564.99 2619.01 1588.5 2648 1588.5C2676.99 1588.5 2700.5 1564.99 2700.5 1536C2700.5 1507.01 2676.99 1483.5 2648 1483.5ZM2648 1493.25C2624.39 1493.25 2605.25 1512.39 2605.25 1536C2605.25 1559.61 2624.39 1578.75 2648 1578.75C2671.61 1578.75 2690.75 1559.61 2690.75 1536C2690.75 1512.39 2671.61 1493.25 2648 1493.25Z" fill="black"/>
</g>
</g>
</g>
<g id="Bold-L">
<g id="Outline / Multicurency Outline_3">
<g id="Shape_3">
<path d="M2322 1463.25C2298.39 1463.25 2279.25 1482.39 2279.25 1506C2279.25 1515.15 2282.13 1523.63 2287.02 1530.59C2288.56 1532.77 2288.84 1535.95 2286.95 1537.85C2284.76 1540.06 2281.33 1539.35 2279.5 1536.83C2273.21 1528.17 2269.5 1517.52 2269.5 1506C2269.5 1477.01 2293.01 1453.5 2322 1453.5C2333.61 1453.5 2344.34 1457.27 2353.03 1463.65C2355.28 1465.3 2355.71 1468.35 2353.76 1470.33C2351.79 1472.34 2348.52 1472.35 2346.2 1470.76C2339.32 1466.02 2330.98 1463.25 2322 1463.25Z" fill="black"/>
<path d="M2332.12 1536.02C2332.12 1533.33 2334.31 1531.15 2337 1531.15H2367C2369.69 1531.15 2371.87 1533.33 2371.87 1536.02C2371.87 1538.71 2369.69 1540.9 2367 1540.9H2337C2334.31 1540.9 2332.12 1538.71 2332.12 1536.02Z" fill="black"/>
<path fill-rule="evenodd" clip-rule="evenodd" d="M2352 1483.5C2323.01 1483.5 2299.5 1507.01 2299.5 1536C2299.5 1564.99 2323.01 1588.5 2352 1588.5C2380.99 1588.5 2404.5 1564.99 2404.5 1536C2404.5 1507.01 2380.99 1483.5 2352 1483.5ZM2352 1493.25C2328.39 1493.25 2309.25 1512.39 2309.25 1536C2309.25 1559.61 2328.39 1578.75 2352 1578.75C2375.61 1578.75 2394.75 1559.61 2394.75 1536C2394.75 1512.39 2375.61 1493.25 2352 1493.25Z" fill="black"/>
</g>
</g>
</g>
<g id="Semibold-L">
<g id="Outline / Multicurency Outline_4">
<g id="Shape_4">
<path d="M2026 1463.25C2002.39 1463.25 1983.25 1482.39 1983.25 1506C1983.25 1515.15 1986.13 1523.63 1991.02 1530.59C1992.56 1532.77 1992.84 1535.95 1990.95 1537.85C1988.76 1540.06 1985.33 1539.35 1983.5 1536.83C1977.21 1528.17 1973.5 1517.52 1973.5 1506C1973.5 1477.01 1997.01 1453.5 2026 1453.5C2037.61 1453.5 2048.34 1457.27 2057.03 1463.65C2059.28 1465.3 2059.71 1468.35 2057.76 1470.33C2055.79 1472.34 2052.52 1472.35 2050.2 1470.76C2043.32 1466.02 2034.98 1463.25 2026 1463.25Z" fill="black"/>
<path d="M2036.12 1536.02C2036.12 1533.33 2038.31 1531.15 2041 1531.15H2071C2073.69 1531.15 2075.87 1533.33 2075.87 1536.02C2075.87 1538.71 2073.69 1540.9 2071 1540.9H2041C2038.31 1540.9 2036.12 1538.71 2036.12 1536.02Z" fill="black"/>
<path fill-rule="evenodd" clip-rule="evenodd" d="M2056 1483.5C2027.01 1483.5 2003.5 1507.01 2003.5 1536C2003.5 1564.99 2027.01 1588.5 2056 1588.5C2084.99 1588.5 2108.5 1564.99 2108.5 1536C2108.5 1507.01 2084.99 1483.5 2056 1483.5ZM2056 1493.25C2032.39 1493.25 2013.25 1512.39 2013.25 1536C2013.25 1559.61 2032.39 1578.75 2056 1578.75C2079.61 1578.75 2098.75 1559.61 2098.75 1536C2098.75 1512.39 2079.61 1493.25 2056 1493.25Z" fill="black"/>
</g>
</g>
</g>
<g id="Medium-L">
<g id="Outline / Multicurency Outline_5">
<g id="Shape_5">
<path d="M1730 1463.25C1706.39 1463.25 1687.25 1482.39 1687.25 1506C1687.25 1515.15 1690.13 1523.63 1695.02 1530.59C1696.56 1532.77 1696.84 1535.95 1694.95 1537.85C1692.76 1540.06 1689.33 1539.35 1687.5 1536.83C1681.21 1528.17 1677.5 1517.52 1677.5 1506C1677.5 1477.01 1701.01 1453.5 1730 1453.5C1741.61 1453.5 1752.34 1457.27 1761.03 1463.65C1763.28 1465.3 1763.71 1468.35 1761.76 1470.33C1759.79 1472.34 1756.52 1472.35 1754.2 1470.76C1747.32 1466.02 1738.98 1463.25 1730 1463.25Z" fill="black"/>
<path d="M1740.12 1536.02C1740.12 1533.33 1742.31 1531.15 1745 1531.15H1775C1777.69 1531.15 1779.87 1533.33 1779.87 1536.02C1779.87 1538.71 1777.69 1540.9 1775 1540.9H1745C1742.31 1540.9 1740.12 1538.71 1740.12 1536.02Z" fill="black"/>
<path fill-rule="evenodd" clip-rule="evenodd" d="M1760 1483.5C1731.01 1483.5 1707.5 1507.01 1707.5 1536C1707.5 1564.99 1731.01 1588.5 1760 1588.5C1788.99 1588.5 1812.5 1564.99 1812.5 1536C1812.5 1507.01 1788.99 1483.5 1760 1483.5ZM1760 1493.25C1736.39 1493.25 1717.25 1512.39 1717.25 1536C1717.25 1559.61 1736.39 1578.75 1760 1578.75C1783.61 1578.75 1802.75 1559.61 1802.75 1536C1802.75 1512.39 1783.61 1493.25 1760 1493.25Z" fill="black"/>
</g>
</g>
</g>
<g id="Regular-L">
<g id="Outline / Multicurency Outline_6">
<g id="Shape_6">
<path d="M1434 1463.25C1410.39 1463.25 1391.25 1482.39 1391.25 1506C1391.25 1515.15 1394.13 1523.63 1399.02 1530.59C1400.56 1532.77 1400.84 1535.95 1398.95 1537.85C1396.76 1540.06 1393.33 1539.35 1391.5 1536.83C1385.21 1528.17 1381.5 1517.52 1381.5 1506C1381.5 1477.01 1405.01 1453.5 1434 1453.5C1445.61 1453.5 1456.34 1457.27 1465.03 1463.65C1467.28 1465.3 1467.71 1468.35 1465.76 1470.33C1463.79 1472.34 1460.52 1472.35 1458.2 1470.76C1451.32 1466.02 1442.98 1463.25 1434 1463.25Z" fill="black"/>
<path d="M1444.12 1536.02C1444.12 1533.33 1446.31 1531.15 1449 1531.15H1479C1481.69 1531.15 1483.87 1533.33 1483.87 1536.02C1483.87 1538.71 1481.69 1540.9 1479 1540.9H1449C1446.31 1540.9 1444.12 1538.71 1444.12 1536.02Z" fill="black"/>
<path fill-rule="evenodd" clip-rule="evenodd" d="M1464 1483.5C1435.01 1483.5 1411.5 1507.01 1411.5 1536C1411.5 1564.99 1435.01 1588.5 1464 1588.5C1492.99 1588.5 1516.5 1564.99 1516.5 1536C1516.5 1507.01 1492.99 1483.5 1464 1483.5ZM1464 1493.25C1440.39 1493.25 1421.25 1512.39 1421.25 1536C1421.25 1559.61 1440.39 1578.75 1464 1578.75C1487.61 1578.75 1506.75 1559.61 1506.75 1536C1506.75 1512.39 1487.61 1493.25 1464 1493.25Z" fill="black"/>
</g>
</g>
</g>
<g id="Light-L">
<g id="Outline / Multicurency Outline_7">
<g id="Shape_7">
<path d="M1138 1463.25C1114.39 1463.25 1095.25 1482.39 1095.25 1506C1095.25 1515.15 1098.13 1523.63 1103.02 1530.59C1104.56 1532.77 1104.84 1535.95 1102.95 1537.85C1100.76 1540.06 1097.33 1539.35 1095.5 1536.83C1089.21 1528.17 1085.5 1517.52 1085.5 1506C1085.5 1477.01 1109.01 1453.5 1138 1453.5C1149.61 1453.5 1160.34 1457.27 1169.03 1463.65C1171.28 1465.3 1171.71 1468.35 1169.76 1470.33C1167.79 1472.34 1164.52 1472.35 1162.2 1470.76C1155.32 1466.02 1146.98 1463.25 1138 1463.25Z" fill="black"/>
<path d="M1148.12 1536.02C1148.12 1533.33 1150.31 1531.15 1153 1531.15H1183C1185.69 1531.15 1187.87 1533.33 1187.87 1536.02C1187.87 1538.71 1185.69 1540.9 1183 1540.9H1153C1150.31 1540.9 1148.12 1538.71 1148.12 1536.02Z" fill="black"/>
<path fill-rule="evenodd" clip-rule="evenodd" d="M1168 1483.5C1139.01 1483.5 1115.5 1507.01 1115.5 1536C1115.5 1564.99 1139.01 1588.5 1168 1588.5C1196.99 1588.5 1220.5 1564.99 1220.5 1536C1220.5 1507.01 1196.99 1483.5 1168 1483.5ZM1168 1493.25C1144.39 1493.25 1125.25 1512.39 1125.25 1536C1125.25 1559.61 1144.39 1578.75 1168 1578.75C1191.61 1578.75 1210.75 1559.61 1210.75 1536C1210.75 1512.39 1191.61 1493.25 1168 1493.25Z" fill="black"/>
</g>
</g>
</g>
<g id="Thin-L">
<g id="Outline / Multicurency Outline_8">
<g id="Shape_8">
<path d="M842 1463.25C818.39 1463.25 799.25 1482.39 799.25 1506C799.25 1515.15 802.126 1523.63 807.024 1530.59C808.564 1532.77 808.839 1535.95 806.954 1537.85C804.759 1540.06 801.33 1539.35 799.499 1536.83C793.21 1528.17 789.5 1517.52 789.5 1506C789.5 1477.01 813.005 1453.5 842 1453.5C853.611 1453.5 864.341 1457.27 873.034 1463.65C875.276 1465.3 875.706 1468.35 873.759 1470.33C871.787 1472.34 868.522 1472.35 866.204 1470.76C859.322 1466.02 850.985 1463.25 842 1463.25Z" fill="black"/>
<path d="M852.125 1536.02C852.125 1533.33 854.308 1531.15 857 1531.15H887C889.692 1531.15 891.875 1533.33 891.875 1536.02C891.875 1538.71 889.692 1540.9 887 1540.9H857C854.308 1540.9 852.125 1538.71 852.125 1536.02Z" fill="black"/>
<path fill-rule="evenodd" clip-rule="evenodd" d="M872 1483.5C843.005 1483.5 819.5 1507.01 819.5 1536C819.5 1564.99 843.005 1588.5 872 1588.5C900.995 1588.5 924.5 1564.99 924.5 1536C924.5 1507.01 900.995 1483.5 872 1483.5ZM872 1493.25C848.39 1493.25 829.25 1512.39 829.25 1536C829.25 1559.61 848.39 1578.75 872 1578.75C895.61 1578.75 914.75 1559.61 914.75 1536C914.75 1512.39 895.61 1493.25 872 1493.25Z" fill="black"/>
</g>
</g>
</g>
<g id="Ultralight-L">
<g id="Outline / Multicurency Outline_9">
<g id="Shape_9">
<path d="M546 1463.25C522.39 1463.25 503.25 1482.39 503.25 1506C503.25 1515.15 506.126 1523.63 511.024 1530.59C512.564 1532.77 512.839 1535.95 510.954 1537.85C508.759 1540.06 505.33 1539.35 503.499 1536.83C497.21 1528.17 493.5 1517.52 493.5 1506C493.5 1477.01 517.005 1453.5 546 1453.5C557.611 1453.5 568.341 1457.27 577.034 1463.65C579.276 1465.3 579.706 1468.35 577.759 1470.33C575.787 1472.34 572.522 1472.35 570.204 1470.76C563.322 1466.02 554.985 1463.25 546 1463.25Z" fill="black"/>
<path d="M556.125 1536.02C556.125 1533.33 558.308 1531.15 561 1531.15H591C593.692 1531.15 595.875 1533.33 595.875 1536.02C595.875 1538.71 593.692 1540.9 591 1540.9H561C558.308 1540.9 556.125 1538.71 556.125 1536.02Z" fill="black"/>
<path fill-rule="evenodd" clip-rule="evenodd" d="M576 1483.5C547.005 1483.5 523.5 1507.01 523.5 1536C523.5 1564.99 547.005 1588.5 576 1588.5C604.995 1588.5 628.5 1564.99 628.5 1536C628.5 1507.01 604.995 1483.5 576 1483.5ZM576 1493.25C552.39 1493.25 533.25 1512.39 533.25 1536C533.25 1559.61 552.39 1578.75 576 1578.75C599.61 1578.75 618.75 1559.61 618.75 1536C618.75 1512.39 599.61 1493.25 576 1493.25Z" fill="black"/>
</g>
</g>
</g>
<g id="Black-M">
<g id="Outline / Multicurency Outline_10">
<g id="Shape_10">
<path d="M2917.33 1046.08C2898.97 1046.08 2884.08 1060.97 2884.08 1079.33C2884.08 1086.45 2886.32 1093.05 2890.13 1098.46C2891.33 1100.16 2891.54 1102.63 2890.08 1104.1C2888.37 1105.82 2885.7 1105.27 2884.28 1103.31C2879.39 1096.58 2876.5 1088.29 2876.5 1079.33C2876.5 1056.78 2894.78 1038.5 2917.33 1038.5C2926.36 1038.5 2934.71 1041.43 2941.47 1046.39C2943.21 1047.67 2943.55 1050.05 2942.03 1051.59C2940.5 1053.15 2937.96 1053.16 2936.16 1051.92C2930.81 1048.24 2924.32 1046.08 2917.33 1046.08Z" fill="black"/>
<path d="M2925.21 1102.68C2925.21 1100.59 2926.91 1098.89 2929 1098.89H2952.33C2954.43 1098.89 2956.12 1100.59 2956.12 1102.68C2956.12 1104.78 2954.43 1106.48 2952.33 1106.48H2929C2926.91 1106.48 2925.21 1104.78 2925.21 1102.68Z" fill="black"/>
<path fill-rule="evenodd" clip-rule="evenodd" d="M2940.67 1061.83C2918.12 1061.83 2899.83 1080.12 2899.83 1102.67C2899.83 1125.22 2918.12 1143.5 2940.67 1143.5C2963.22 1143.5 2981.5 1125.22 2981.5 1102.67C2981.5 1080.12 2963.22 1061.83 2940.67 1061.83ZM2940.67 1069.42C2922.3 1069.42 2907.42 1084.3 2907.42 1102.67C2907.42 1121.03 2922.3 1135.92 2940.67 1135.92C2959.03 1135.92 2973.92 1121.03 2973.92 1102.67C2973.92 1084.3 2959.03 1069.42 2940.67 1069.42Z" fill="black"/>
</g>
</g>
</g>
<g id="Heavy-M">
<g id="Outline / Multicurency Outline_11">
<g id="Shape_11">
<path d="M2621.33 1046.08C2602.97 1046.08 2588.08 1060.97 2588.08 1079.33C2588.08 1086.45 2590.32 1093.05 2594.13 1098.46C2595.33 1100.16 2595.54 1102.63 2594.08 1104.1C2592.37 1105.82 2589.7 1105.27 2588.28 1103.31C2583.39 1096.58 2580.5 1088.29 2580.5 1079.33C2580.5 1056.78 2598.78 1038.5 2621.33 1038.5C2630.36 1038.5 2638.71 1041.43 2645.47 1046.39C2647.21 1047.67 2647.55 1050.05 2646.03 1051.59C2644.5 1053.15 2641.96 1053.16 2640.16 1051.92C2634.81 1048.24 2628.32 1046.08 2621.33 1046.08Z" fill="black"/>
<path d="M2629.21 1102.68C2629.21 1100.59 2630.91 1098.89 2633 1098.89H2656.33C2658.43 1098.89 2660.12 1100.59 2660.12 1102.68C2660.12 1104.78 2658.43 1106.48 2656.33 1106.48H2633C2630.91 1106.48 2629.21 1104.78 2629.21 1102.68Z" fill="black"/>
<path fill-rule="evenodd" clip-rule="evenodd" d="M2644.67 1061.83C2622.12 1061.83 2603.83 1080.12 2603.83 1102.67C2603.83 1125.22 2622.12 1143.5 2644.67 1143.5C2667.22 1143.5 2685.5 1125.22 2685.5 1102.67C2685.5 1080.12 2667.22 1061.83 2644.67 1061.83ZM2644.67 1069.42C2626.3 1069.42 2611.42 1084.3 2611.42 1102.67C2611.42 1121.03 2626.3 1135.92 2644.67 1135.92C2663.03 1135.92 2677.92 1121.03 2677.92 1102.67C2677.92 1084.3 2663.03 1069.42 2644.67 1069.42Z" fill="black"/>
</g>
</g>
</g>
<g id="Bold-M">
<g id="Outline / Multicurency Outline_12">
<g id="Shape_12">
<path d="M2325.33 1046.08C2306.97 1046.08 2292.08 1060.97 2292.08 1079.33C2292.08 1086.45 2294.32 1093.05 2298.13 1098.46C2299.33 1100.16 2299.54 1102.63 2298.08 1104.1C2296.37 1105.82 2293.7 1105.27 2292.28 1103.31C2287.39 1096.58 2284.5 1088.29 2284.5 1079.33C2284.5 1056.78 2302.78 1038.5 2325.33 1038.5C2334.36 1038.5 2342.71 1041.43 2349.47 1046.39C2351.21 1047.67 2351.55 1050.05 2350.03 1051.59C2348.5 1053.15 2345.96 1053.16 2344.16 1051.92C2338.81 1048.24 2332.32 1046.08 2325.33 1046.08Z" fill="black"/>
<path d="M2333.21 1102.68C2333.21 1100.59 2334.91 1098.89 2337 1098.89H2360.33C2362.43 1098.89 2364.12 1100.59 2364.12 1102.68C2364.12 1104.78 2362.43 1106.48 2360.33 1106.48H2337C2334.91 1106.48 2333.21 1104.78 2333.21 1102.68Z" fill="black"/>
<path fill-rule="evenodd" clip-rule="evenodd" d="M2348.67 1061.83C2326.12 1061.83 2307.83 1080.12 2307.83 1102.67C2307.83 1125.22 2326.12 1143.5 2348.67 1143.5C2371.22 1143.5 2389.5 1125.22 2389.5 1102.67C2389.5 1080.12 2371.22 1061.83 2348.67 1061.83ZM2348.67 1069.42C2330.3 1069.42 2315.42 1084.3 2315.42 1102.67C2315.42 1121.03 2330.3 1135.92 2348.67 1135.92C2367.03 1135.92 2381.92 1121.03 2381.92 1102.67C2381.92 1084.3 2367.03 1069.42 2348.67 1069.42Z" fill="black"/>
</g>
</g>
</g>
<g id="Semibold-M">
<g id="Outline / Multicurency Outline_13">
<g id="Shape_13">
<path d="M2029.33 1046.08C2010.97 1046.08 1996.08 1060.97 1996.08 1079.33C1996.08 1086.45 1998.32 1093.05 2002.13 1098.46C2003.33 1100.16 2003.54 1102.63 2002.08 1104.1C2000.37 1105.82 1997.7 1105.27 1996.28 1103.31C1991.39 1096.58 1988.5 1088.29 1988.5 1079.33C1988.5 1056.78 2006.78 1038.5 2029.33 1038.5C2038.36 1038.5 2046.71 1041.43 2053.47 1046.39C2055.21 1047.67 2055.55 1050.05 2054.03 1051.59C2052.5 1053.15 2049.96 1053.16 2048.16 1051.92C2042.81 1048.24 2036.32 1046.08 2029.33 1046.08Z" fill="black"/>
<path d="M2037.21 1102.68C2037.21 1100.59 2038.91 1098.89 2041 1098.89H2064.33C2066.43 1098.89 2068.12 1100.59 2068.12 1102.68C2068.12 1104.78 2066.43 1106.48 2064.33 1106.48H2041C2038.91 1106.48 2037.21 1104.78 2037.21 1102.68Z" fill="black"/>
<path fill-rule="evenodd" clip-rule="evenodd" d="M2052.67 1061.83C2030.12 1061.83 2011.83 1080.12 2011.83 1102.67C2011.83 1125.22 2030.12 1143.5 2052.67 1143.5C2075.22 1143.5 2093.5 1125.22 2093.5 1102.67C2093.5 1080.12 2075.22 1061.83 2052.67 1061.83ZM2052.67 1069.42C2034.3 1069.42 2019.42 1084.3 2019.42 1102.67C2019.42 1121.03 2034.3 1135.92 2052.67 1135.92C2071.03 1135.92 2085.92 1121.03 2085.92 1102.67C2085.92 1084.3 2071.03 1069.42 2052.67 1069.42Z" fill="black"/>
</g>
</g>
</g>
<g id="Medium-M">
<g id="Outline / Multicurency Outline_14">
<g id="Shape_14">
<path d="M1733.33 1046.08C1714.97 1046.08 1700.08 1060.97 1700.08 1079.33C1700.08 1086.45 1702.32 1093.05 1706.13 1098.46C1707.33 1100.16 1707.54 1102.63 1706.08 1104.1C1704.37 1105.82 1701.7 1105.27 1700.28 1103.31C1695.39 1096.58 1692.5 1088.29 1692.5 1079.33C1692.5 1056.78 1710.78 1038.5 1733.33 1038.5C1742.36 1038.5 1750.71 1041.43 1757.47 1046.39C1759.21 1047.67 1759.55 1050.05 1758.03 1051.59C1756.5 1053.15 1753.96 1053.16 1752.16 1051.92C1746.81 1048.24 1740.32 1046.08 1733.33 1046.08Z" fill="black"/>
<path d="M1741.21 1102.68C1741.21 1100.59 1742.91 1098.89 1745 1098.89H1768.33C1770.43 1098.89 1772.12 1100.59 1772.12 1102.68C1772.12 1104.78 1770.43 1106.48 1768.33 1106.48H1745C1742.91 1106.48 1741.21 1104.78 1741.21 1102.68Z" fill="black"/>
<path fill-rule="evenodd" clip-rule="evenodd" d="M1756.67 1061.83C1734.12 1061.83 1715.83 1080.12 1715.83 1102.67C1715.83 1125.22 1734.12 1143.5 1756.67 1143.5C1779.22 1143.5 1797.5 1125.22 1797.5 1102.67C1797.5 1080.12 1779.22 1061.83 1756.67 1061.83ZM1756.67 1069.42C1738.3 1069.42 1723.42 1084.3 1723.42 1102.67C1723.42 1121.03 1738.3 1135.92 1756.67 1135.92C1775.03 1135.92 1789.92 1121.03 1789.92 1102.67C1789.92 1084.3 1775.03 1069.42 1756.67 1069.42Z" fill="black"/>
</g>
</g>
</g>
<g id="Regular-M">
<g id="Outline / Multicurency Outline_15">
<g id="Shape_15">
<path d="M1437.33 1046.08C1418.97 1046.08 1404.08 1060.97 1404.08 1079.33C1404.08 1086.45 1406.32 1093.05 1410.13 1098.46C1411.33 1100.16 1411.54 1102.63 1410.08 1104.1C1408.37 1105.82 1405.7 1105.27 1404.28 1103.31C1399.39 1096.58 1396.5 1088.29 1396.5 1079.33C1396.5 1056.78 1414.78 1038.5 1437.33 1038.5C1446.36 1038.5 1454.71 1041.43 1461.47 1046.39C1463.21 1047.67 1463.55 1050.05 1462.03 1051.59C1460.5 1053.15 1457.96 1053.16 1456.16 1051.92C1450.81 1048.24 1444.32 1046.08 1437.33 1046.08Z" fill="black"/>
<path d="M1445.21 1102.68C1445.21 1100.59 1446.91 1098.89 1449 1098.89H1472.33C1474.43 1098.89 1476.12 1100.59 1476.12 1102.68C1476.12 1104.78 1474.43 1106.48 1472.33 1106.48H1449C1446.91 1106.48 1445.21 1104.78 1445.21 1102.68Z" fill="black"/>
<path fill-rule="evenodd" clip-rule="evenodd" d="M1460.67 1061.83C1438.12 1061.83 1419.83 1080.12 1419.83 1102.67C1419.83 1125.22 1438.12 1143.5 1460.67 1143.5C1483.22 1143.5 1501.5 1125.22 1501.5 1102.67C1501.5 1080.12 1483.22 1061.83 1460.67 1061.83ZM1460.67 1069.42C1442.3 1069.42 1427.42 1084.3 1427.42 1102.67C1427.42 1121.03 1442.3 1135.92 1460.67 1135.92C1479.03 1135.92 1493.92 1121.03 1493.92 1102.67C1493.92 1084.3 1479.03 1069.42 1460.67 1069.42Z" fill="black"/>
</g>
</g>
</g>
<g id="Light-M">
<g id="Outline / Multicurency Outline_16">
<g id="Shape_16">
<path d="M1141.33 1046.08C1122.97 1046.08 1108.08 1060.97 1108.08 1079.33C1108.08 1086.45 1110.32 1093.05 1114.13 1098.46C1115.33 1100.16 1115.54 1102.63 1114.08 1104.1C1112.37 1105.82 1109.7 1105.27 1108.28 1103.31C1103.39 1096.58 1100.5 1088.29 1100.5 1079.33C1100.5 1056.78 1118.78 1038.5 1141.33 1038.5C1150.36 1038.5 1158.71 1041.43 1165.47 1046.39C1167.21 1047.67 1167.55 1050.05 1166.03 1051.59C1164.5 1053.15 1161.96 1053.16 1160.16 1051.92C1154.81 1048.24 1148.32 1046.08 1141.33 1046.08Z" fill="black"/>
<path d="M1149.21 1102.68C1149.21 1100.59 1150.91 1098.89 1153 1098.89H1176.33C1178.43 1098.89 1180.12 1100.59 1180.12 1102.68C1180.12 1104.78 1178.43 1106.48 1176.33 1106.48H1153C1150.91 1106.48 1149.21 1104.78 1149.21 1102.68Z" fill="black"/>
<path fill-rule="evenodd" clip-rule="evenodd" d="M1164.67 1061.83C1142.12 1061.83 1123.83 1080.12 1123.83 1102.67C1123.83 1125.22 1142.12 1143.5 1164.67 1143.5C1187.22 1143.5 1205.5 1125.22 1205.5 1102.67C1205.5 1080.12 1187.22 1061.83 1164.67 1061.83ZM1164.67 1069.42C1146.3 1069.42 1131.42 1084.3 1131.42 1102.67C1131.42 1121.03 1146.3 1135.92 1164.67 1135.92C1183.03 1135.92 1197.92 1121.03 1197.92 1102.67C1197.92 1084.3 1183.03 1069.42 1164.67 1069.42Z" fill="black"/>
</g>
</g>
</g>
<g id="Thin-M">
<g id="Outline / Multicurency Outline_17">
<g id="Shape_17">
<path d="M845.333 1046.08C826.97 1046.08 812.083 1060.97 812.083 1079.33C812.083 1086.45 814.32 1093.05 818.13 1098.46C819.327 1100.16 819.541 1102.63 818.075 1104.1C816.368 1105.82 813.701 1105.27 812.277 1103.31C807.385 1096.58 804.5 1088.29 804.5 1079.33C804.5 1056.78 822.782 1038.5 845.333 1038.5C854.364 1038.5 862.71 1041.43 869.471 1046.39C871.214 1047.67 871.549 1050.05 870.034 1051.59C868.501 1053.15 865.962 1053.16 864.159 1051.92C858.806 1048.24 852.322 1046.08 845.333 1046.08Z" fill="black"/>
<path d="M853.208 1102.68C853.208 1100.59 854.906 1098.89 857 1098.89H880.333C882.427 1098.89 884.125 1100.59 884.125 1102.68C884.125 1104.78 882.427 1106.48 880.333 1106.48H857C854.906 1106.48 853.208 1104.78 853.208 1102.68Z" fill="black"/>
<path fill-rule="evenodd" clip-rule="evenodd" d="M868.667 1061.83C846.115 1061.83 827.833 1080.12 827.833 1102.67C827.833 1125.22 846.115 1143.5 868.667 1143.5C891.218 1143.5 909.5 1125.22 909.5 1102.67C909.5 1080.12 891.218 1061.83 868.667 1061.83ZM868.667 1069.42C850.303 1069.42 835.417 1084.3 835.417 1102.67C835.417 1121.03 850.303 1135.92 868.667 1135.92C887.03 1135.92 901.917 1121.03 901.917 1102.67C901.917 1084.3 887.03 1069.42 868.667 1069.42Z" fill="black"/>
</g>
</g>
</g>
<g id="Ultralight-M">
<g id="Outline / Multicurency Outline_18">
<g id="Shape_18">
<path d="M549.333 1046.08C530.97 1046.08 516.083 1060.97 516.083 1079.33C516.083 1086.45 518.32 1093.05 522.13 1098.46C523.327 1100.16 523.541 1102.63 522.075 1104.1C520.368 1105.82 517.701 1105.27 516.277 1103.31C511.385 1096.58 508.5 1088.29 508.5 1079.33C508.5 1056.78 526.782 1038.5 549.333 1038.5C558.364 1038.5 566.71 1041.43 573.471 1046.39C575.214 1047.67 575.549 1050.05 574.034 1051.59C572.501 1053.15 569.962 1053.16 568.159 1051.92C562.806 1048.24 556.322 1046.08 549.333 1046.08Z" fill="black"/>
<path d="M557.208 1102.68C557.208 1100.59 558.906 1098.89 561 1098.89H584.333C586.427 1098.89 588.125 1100.59 588.125 1102.68C588.125 1104.78 586.427 1106.48 584.333 1106.48H561C558.906 1106.48 557.208 1104.78 557.208 1102.68Z" fill="black"/>
<path fill-rule="evenodd" clip-rule="evenodd" d="M572.667 1061.83C550.115 1061.83 531.833 1080.12 531.833 1102.67C531.833 1125.22 550.115 1143.5 572.667 1143.5C595.218 1143.5 613.5 1125.22 613.5 1102.67C613.5 1080.12 595.218 1061.83 572.667 1061.83ZM572.667 1069.42C554.303 1069.42 539.417 1084.3 539.417 1102.67C539.417 1121.03 554.303 1135.92 572.667 1135.92C591.03 1135.92 605.917 1121.03 605.917 1102.67C605.917 1084.3 591.03 1069.42 572.667 1069.42Z" fill="black"/>
</g>
</g>
</g>
<g id="Black-S">
<g id="Outline / Multicurency Outline_19">
<g id="Shape_19">
<path d="M2920.67 628.917C2907.55 628.917 2896.92 639.55 2896.92 652.667C2896.92 657.751 2898.51 662.463 2901.24 666.326C2902.09 667.541 2902.24 669.306 2901.2 670.36C2899.98 671.587 2898.07 671.193 2897.06 669.793C2893.56 664.984 2891.5 659.066 2891.5 652.667C2891.5 636.558 2904.56 623.5 2920.67 623.5C2927.12 623.5 2933.08 625.594 2937.91 629.139C2939.15 630.053 2939.39 631.747 2938.31 632.85C2937.22 633.966 2935.4 633.973 2934.11 633.087C2930.29 630.457 2925.66 628.917 2920.67 628.917Z" fill="black"/>
<path d="M2926.29 669.346C2926.29 667.85 2927.5 666.637 2929 666.637H2945.67C2947.16 666.637 2948.37 667.85 2948.37 669.346C2948.37 670.842 2947.16 672.054 2945.67 672.054H2929C2927.5 672.054 2926.29 670.842 2926.29 669.346Z" fill="black"/>
<path fill-rule="evenodd" clip-rule="evenodd" d="M2937.33 640.167C2921.23 640.167 2908.17 653.225 2908.17 669.333C2908.17 685.442 2921.23 698.5 2937.33 698.5C2953.44 698.5 2966.5 685.442 2966.5 669.333C2966.5 653.225 2953.44 640.167 2937.33 640.167ZM2937.33 645.583C2924.22 645.583 2913.58 656.217 2913.58 669.333C2913.58 682.45 2924.22 693.083 2937.33 693.083C2950.45 693.083 2961.08 682.45 2961.08 669.333C2961.08 656.217 2950.45 645.583 2937.33 645.583Z" fill="black"/>
</g>
</g>
</g>
<g id="Heavy-S">
<g id="Outline / Multicurency Outline_20">
<g id="Shape_20">
<path d="M2624.67 628.917C2611.55 628.917 2600.92 639.55 2600.92 652.667C2600.92 657.751 2602.51 662.463 2605.24 666.326C2606.09 667.541 2606.24 669.306 2605.2 670.36C2603.98 671.587 2602.07 671.193 2601.06 669.793C2597.56 664.984 2595.5 659.066 2595.5 652.667C2595.5 636.558 2608.56 623.5 2624.67 623.5C2631.12 623.5 2637.08 625.594 2641.91 629.139C2643.15 630.053 2643.39 631.747 2642.31 632.85C2641.22 633.966 2639.4 633.973 2638.11 633.087C2634.29 630.457 2629.66 628.917 2624.67 628.917Z" fill="black"/>
<path d="M2630.29 669.346C2630.29 667.85 2631.5 666.637 2633 666.637H2649.67C2651.16 666.637 2652.37 667.85 2652.37 669.346C2652.37 670.842 2651.16 672.054 2649.67 672.054H2633C2631.5 672.054 2630.29 670.842 2630.29 669.346Z" fill="black"/>
<path fill-rule="evenodd" clip-rule="evenodd" d="M2641.33 640.167C2625.23 640.167 2612.17 653.225 2612.17 669.333C2612.17 685.442 2625.23 698.5 2641.33 698.5C2657.44 698.5 2670.5 685.442 2670.5 669.333C2670.5 653.225 2657.44 640.167 2641.33 640.167ZM2641.33 645.583C2628.22 645.583 2617.58 656.217 2617.58 669.333C2617.58 682.45 2628.22 693.083 2641.33 693.083C2654.45 693.083 2665.08 682.45 2665.08 669.333C2665.08 656.217 2654.45 645.583 2641.33 645.583Z" fill="black"/>
</g>
</g>
</g>
<g id="Bold-S">
<g id="Outline / Multicurency Outline_21">
<g id="Shape_21">
<path d="M2328.67 628.917C2315.55 628.917 2304.92 639.55 2304.92 652.667C2304.92 657.751 2306.51 662.463 2309.24 666.326C2310.09 667.541 2310.24 669.306 2309.2 670.36C2307.98 671.587 2306.07 671.193 2305.06 669.793C2301.56 664.984 2299.5 659.066 2299.5 652.667C2299.5 636.558 2312.56 623.5 2328.67 623.5C2335.12 623.5 2341.08 625.594 2345.91 629.139C2347.15 630.053 2347.39 631.747 2346.31 632.85C2345.22 633.966 2343.4 633.973 2342.11 633.087C2338.29 630.457 2333.66 628.917 2328.67 628.917Z" fill="black"/>
<path d="M2334.29 669.346C2334.29 667.85 2335.5 666.637 2337 666.637H2353.67C2355.16 666.637 2356.37 667.85 2356.37 669.346C2356.37 670.842 2355.16 672.054 2353.67 672.054H2337C2335.5 672.054 2334.29 670.842 2334.29 669.346Z" fill="black"/>
<path fill-rule="evenodd" clip-rule="evenodd" d="M2345.33 640.167C2329.23 640.167 2316.17 653.225 2316.17 669.333C2316.17 685.442 2329.23 698.5 2345.33 698.5C2361.44 698.5 2374.5 685.442 2374.5 669.333C2374.5 653.225 2361.44 640.167 2345.33 640.167ZM2345.33 645.583C2332.22 645.583 2321.58 656.217 2321.58 669.333C2321.58 682.45 2332.22 693.083 2345.33 693.083C2358.45 693.083 2369.08 682.45 2369.08 669.333C2369.08 656.217 2358.45 645.583 2345.33 645.583Z" fill="black"/>
</g>
</g>
</g>
<g id="Semibold-S">
<g id="Outline / Multicurency Outline_22">
<g id="Shape_22">
<path d="M2032.67 628.917C2019.55 628.917 2008.92 639.55 2008.92 652.667C2008.92 657.751 2010.51 662.463 2013.24 666.326C2014.09 667.541 2014.24 669.306 2013.2 670.36C2011.98 671.587 2010.07 671.193 2009.06 669.793C2005.56 664.984 2003.5 659.066 2003.5 652.667C2003.5 636.558 2016.56 623.5 2032.67 623.5C2039.12 623.5 2045.08 625.594 2049.91 629.139C2051.15 630.053 2051.39 631.747 2050.31 632.85C2049.22 633.966 2047.4 633.973 2046.11 633.087C2042.29 630.457 2037.66 628.917 2032.67 628.917Z" fill="black"/>
<path d="M2038.29 669.346C2038.29 667.85 2039.5 666.637 2041 666.637H2057.67C2059.16 666.637 2060.37 667.85 2060.37 669.346C2060.37 670.842 2059.16 672.054 2057.67 672.054H2041C2039.5 672.054 2038.29 670.842 2038.29 669.346Z" fill="black"/>
<path fill-rule="evenodd" clip-rule="evenodd" d="M2049.33 640.167C2033.23 640.167 2020.17 653.225 2020.17 669.333C2020.17 685.442 2033.23 698.5 2049.33 698.5C2065.44 698.5 2078.5 685.442 2078.5 669.333C2078.5 653.225 2065.44 640.167 2049.33 640.167ZM2049.33 645.583C2036.22 645.583 2025.58 656.217 2025.58 669.333C2025.58 682.45 2036.22 693.083 2049.33 693.083C2062.45 693.083 2073.08 682.45 2073.08 669.333C2073.08 656.217 2062.45 645.583 2049.33 645.583Z" fill="black"/>
</g>
</g>
</g>
<g id="Medium-S">
<g id="Outline / Multicurency Outline_23">
<g id="Shape_23">
<path d="M1736.67 628.917C1723.55 628.917 1712.92 639.55 1712.92 652.667C1712.92 657.751 1714.51 662.463 1717.24 666.326C1718.09 667.541 1718.24 669.306 1717.2 670.36C1715.98 671.587 1714.07 671.193 1713.06 669.793C1709.56 664.984 1707.5 659.066 1707.5 652.667C1707.5 636.558 1720.56 623.5 1736.67 623.5C1743.12 623.5 1749.08 625.594 1753.91 629.139C1755.15 630.053 1755.39 631.747 1754.31 632.85C1753.22 633.966 1751.4 633.973 1750.11 633.087C1746.29 630.457 1741.66 628.917 1736.67 628.917Z" fill="black"/>
<path d="M1742.29 669.346C1742.29 667.85 1743.5 666.637 1745 666.637H1761.67C1763.16 666.637 1764.37 667.85 1764.37 669.346C1764.37 670.842 1763.16 672.054 1761.67 672.054H1745C1743.5 672.054 1742.29 670.842 1742.29 669.346Z" fill="black"/>
<path fill-rule="evenodd" clip-rule="evenodd" d="M1753.33 640.167C1737.23 640.167 1724.17 653.225 1724.17 669.333C1724.17 685.442 1737.23 698.5 1753.33 698.5C1769.44 698.5 1782.5 685.442 1782.5 669.333C1782.5 653.225 1769.44 640.167 1753.33 640.167ZM1753.33 645.583C1740.22 645.583 1729.58 656.217 1729.58 669.333C1729.58 682.45 1740.22 693.083 1753.33 693.083C1766.45 693.083 1777.08 682.45 1777.08 669.333C1777.08 656.217 1766.45 645.583 1753.33 645.583Z" fill="black"/>
</g>
</g>
</g>
<g id="Regular-S">
<g id="Outline / Multicurency Outline_24">
<g id="Shape_24">
<path d="M1440.67 628.917C1427.55 628.917 1416.92 639.55 1416.92 652.667C1416.92 657.751 1418.51 662.463 1421.24 666.326C1422.09 667.541 1422.24 669.306 1421.2 670.36C1419.98 671.587 1418.07 671.193 1417.06 669.793C1413.56 664.984 1411.5 659.066 1411.5 652.667C1411.5 636.558 1424.56 623.5 1440.67 623.5C1447.12 623.5 1453.08 625.594 1457.91 629.139C1459.15 630.053 1459.39 631.747 1458.31 632.85C1457.22 633.966 1455.4 633.973 1454.11 633.087C1450.29 630.457 1445.66 628.917 1440.67 628.917Z" fill="black"/>
<path d="M1446.29 669.346C1446.29 667.85 1447.5 666.637 1449 666.637H1465.67C1467.16 666.637 1468.37 667.85 1468.37 669.346C1468.37 670.842 1467.16 672.054 1465.67 672.054H1449C1447.5 672.054 1446.29 670.842 1446.29 669.346Z" fill="black"/>
<path fill-rule="evenodd" clip-rule="evenodd" d="M1457.33 640.167C1441.23 640.167 1428.17 653.225 1428.17 669.333C1428.17 685.442 1441.23 698.5 1457.33 698.5C1473.44 698.5 1486.5 685.442 1486.5 669.333C1486.5 653.225 1473.44 640.167 1457.33 640.167ZM1457.33 645.583C1444.22 645.583 1433.58 656.217 1433.58 669.333C1433.58 682.45 1444.22 693.083 1457.33 693.083C1470.45 693.083 1481.08 682.45 1481.08 669.333C1481.08 656.217 1470.45 645.583 1457.33 645.583Z" fill="black"/>
</g>
</g>
</g>
<g id="Light-S">
<g id="Outline / Multicurency Outline_25">
<g id="Shape_25">
<path d="M1144.67 628.917C1131.55 628.917 1120.92 639.55 1120.92 652.667C1120.92 657.751 1122.51 662.463 1125.24 666.326C1126.09 667.541 1126.24 669.306 1125.2 670.36C1123.98 671.587 1122.07 671.193 1121.06 669.793C1117.56 664.984 1115.5 659.066 1115.5 652.667C1115.5 636.558 1128.56 623.5 1144.67 623.5C1151.12 623.5 1157.08 625.594 1161.91 629.139C1163.15 630.053 1163.39 631.747 1162.31 632.85C1161.22 633.966 1159.4 633.973 1158.11 633.087C1154.29 630.457 1149.66 628.917 1144.67 628.917Z" fill="black"/>
<path d="M1150.29 669.346C1150.29 667.85 1151.5 666.637 1153 666.637H1169.67C1171.16 666.637 1172.37 667.85 1172.37 669.346C1172.37 670.842 1171.16 672.054 1169.67 672.054H1153C1151.5 672.054 1150.29 670.842 1150.29 669.346Z" fill="black"/>
<path fill-rule="evenodd" clip-rule="evenodd" d="M1161.33 640.167C1145.23 640.167 1132.17 653.225 1132.17 669.333C1132.17 685.442 1145.23 698.5 1161.33 698.5C1177.44 698.5 1190.5 685.442 1190.5 669.333C1190.5 653.225 1177.44 640.167 1161.33 640.167ZM1161.33 645.583C1148.22 645.583 1137.58 656.217 1137.58 669.333C1137.58 682.45 1148.22 693.083 1161.33 693.083C1174.45 693.083 1185.08 682.45 1185.08 669.333C1185.08 656.217 1174.45 645.583 1161.33 645.583Z" fill="black"/>
</g>
</g>
</g>
<g id="Thin-S">
<g id="Outline / Multicurency Outline_26">
<g id="Shape_26">
<path d="M848.667 628.917C835.55 628.917 824.917 639.55 824.917 652.667C824.917 657.751 826.515 662.463 829.236 666.326C830.091 667.541 830.244 669.306 829.197 670.36C827.977 671.587 826.072 671.193 825.055 669.793C821.561 664.984 819.5 659.066 819.5 652.667C819.5 636.558 832.558 623.5 848.667 623.5C855.117 623.5 861.078 625.594 865.908 629.139C867.153 630.053 867.392 631.747 866.31 632.85C865.215 633.966 863.401 633.973 862.113 633.087C858.29 630.457 853.658 628.917 848.667 628.917Z" fill="black"/>
<path d="M854.292 669.346C854.292 667.85 855.504 666.637 857 666.637H873.667C875.162 666.637 876.375 667.85 876.375 669.346C876.375 670.842 875.162 672.054 873.667 672.054H857C855.504 672.054 854.292 670.842 854.292 669.346Z" fill="black"/>
<path fill-rule="evenodd" clip-rule="evenodd" d="M865.333 640.167C849.225 640.167 836.167 653.225 836.167 669.333C836.167 685.442 849.225 698.5 865.333 698.5C881.442 698.5 894.5 685.442 894.5 669.333C894.5 653.225 881.442 640.167 865.333 640.167ZM865.333 645.583C852.217 645.583 841.583 656.217 841.583 669.333C841.583 682.45 852.217 693.083 865.333 693.083C878.45 693.083 889.083 682.45 889.083 669.333C889.083 656.217 878.45 645.583 865.333 645.583Z" fill="black"/>
</g>
</g>
</g>
<g id="Ultralight-S">
<g id="Outline / Multicurency Outline_27">
<g id="Shape_27">
<path d="M552.667 628.917C539.55 628.917 528.917 639.55 528.917 652.667C528.917 657.751 530.515 662.463 533.236 666.326C534.091 667.541 534.244 669.306 533.197 670.36C531.977 671.587 530.072 671.193 529.055 669.793C525.561 664.984 523.5 659.066 523.5 652.667C523.5 636.558 536.558 623.5 552.667 623.5C559.117 623.5 565.078 625.594 569.908 629.139C571.153 630.053 571.392 631.747 570.31 632.85C569.215 633.966 567.401 633.973 566.113 633.087C562.29 630.457 557.658 628.917 552.667 628.917Z" fill="black"/>
<path d="M558.292 669.346C558.292 667.85 559.504 666.637 561 666.637H577.667C579.162 666.637 580.375 667.85 580.375 669.346C580.375 670.842 579.162 672.054 577.667 672.054H561C559.504 672.054 558.292 670.842 558.292 669.346Z" fill="black"/>
<path fill-rule="evenodd" clip-rule="evenodd" d="M569.333 640.167C553.225 640.167 540.167 653.225 540.167 669.333C540.167 685.442 553.225 698.5 569.333 698.5C585.442 698.5 598.5 685.442 598.5 669.333C598.5 653.225 585.442 640.167 569.333 640.167ZM569.333 645.583C556.217 645.583 545.583 656.217 545.583 669.333C545.583 682.45 556.217 693.083 569.333 693.083C582.45 693.083 593.083 682.45 593.083 669.333C593.083 656.217 582.45 645.583 569.333 645.583Z" fill="black"/>
</g>
</g>
</g>
</g>
</g>
<defs>
<clipPath id="clip0_0_1">
<rect width="3300" height="2200" fill="white"/>
</clipPath>
</defs>
</svg>
