<svg width="3300" height="2200" viewBox="0 0 3300 2200" fill="none" xmlns="http://www.w3.org/2000/svg">
<rect width="3300" height="2200" fill="#E5E5E5"/>
<g id="Category / Outline / Wiki" clip-path="url(#clip0_0_1)">
<g id="Notes">
<path id="artboard" d="M3300 0H0V2200H3300V0Z" fill="white"/>
<path id="Vector" d="M263 292H3036" stroke="black" stroke-width="0.5"/>
<text id="Weight/Scale Variations" fill="black" xml:space="preserve" style="white-space: pre" font-family="Roboto" font-size="12" letter-spacing="0em"><tspan x="263" y="321.102">Weight/Scale Variations</tspan></text>
<text id="Ultralight" fill="black" xml:space="preserve" style="white-space: pre" font-family="Roboto" font-size="12" letter-spacing="0em"><tspan x="535.211" y="321.102">Ultralight</tspan></text>
<text id="Thin" fill="black" xml:space="preserve" style="white-space: pre" font-family="Roboto" font-size="12" letter-spacing="0em"><tspan x="844.422" y="321.102">Thin</tspan></text>
<text id="Light" fill="black" xml:space="preserve" style="white-space: pre" font-family="Roboto" font-size="12" letter-spacing="0em"><tspan x="1139.63" y="321.102">Light</tspan></text>
<text id="Regular" fill="black" xml:space="preserve" style="white-space: pre" font-family="Roboto" font-size="12" letter-spacing="0em"><tspan x="1429.34" y="321.102">Regular</tspan></text>
<text id="Medium" fill="black" xml:space="preserve" style="white-space: pre" font-family="Roboto" font-size="12" letter-spacing="0em"><tspan x="1724.56" y="321.102">Medium</tspan></text>
<text id="Semibold" fill="black" xml:space="preserve" style="white-space: pre" font-family="Roboto" font-size="12" letter-spacing="0em"><tspan x="2017.77" y="321.102">Semibold</tspan></text>
<text id="Bold" fill="black" xml:space="preserve" style="white-space: pre" font-family="Roboto" font-size="12" letter-spacing="0em"><tspan x="2327.48" y="321.102">Bold</tspan></text>
<text id="Heavy" fill="black" xml:space="preserve" style="white-space: pre" font-family="Roboto" font-size="12" letter-spacing="0em"><tspan x="2620.19" y="321.102">Heavy</tspan></text>
<text id="Black" fill="black" xml:space="preserve" style="white-space: pre" font-family="Roboto" font-size="12" letter-spacing="0em"><tspan x="2918.4" y="321.102">Black</tspan></text>
<path id="Vector_2" d="M263 1903H3036" stroke="black" stroke-width="0.5"/>
<g id="Group">
<path id="Vector_3" d="M272.248 1933.83C276.555 1933.83 280.139 1930.26 280.139 1925.95C280.139 1921.64 276.545 1918.07 272.238 1918.07C267.941 1918.07 264.367 1921.64 264.367 1925.95C264.367 1930.26 267.951 1933.83 272.248 1933.83ZM272.248 1932.35C268.703 1932.35 265.871 1929.51 265.871 1925.95C265.871 1922.4 268.693 1919.55 272.238 1919.55C275.793 1919.55 278.635 1922.4 278.644 1925.95C278.654 1929.51 275.803 1932.35 272.248 1932.35ZM272.229 1929.57C272.697 1929.57 272.971 1929.26 272.971 1928.74V1926.68H275.197C275.695 1926.68 276.037 1926.43 276.037 1925.96C276.037 1925.48 275.715 1925.22 275.197 1925.22H272.971V1922.99C272.971 1922.47 272.697 1922.15 272.229 1922.15C271.76 1922.15 271.506 1922.49 271.506 1922.99V1925.22H269.299C268.781 1925.22 268.449 1925.48 268.449 1925.96C268.449 1926.43 268.801 1926.68 269.299 1926.68H271.506V1928.74C271.506 1929.24 271.76 1929.57 272.229 1929.57Z" fill="black"/>
</g>
<g id="Group_2">
<path id="Vector_4" d="M293.215 1935.91C298.664 1935.91 303.176 1931.4 303.176 1925.95C303.176 1920.51 298.654 1915.99 293.205 1915.99C287.766 1915.99 283.254 1920.51 283.254 1925.95C283.254 1931.4 287.775 1935.91 293.215 1935.91ZM293.215 1934.25C288.605 1934.25 284.924 1930.56 284.924 1925.95C284.924 1921.35 288.596 1917.65 293.205 1917.65C297.814 1917.65 301.506 1921.35 301.516 1925.95C301.525 1930.56 297.824 1934.25 293.215 1934.25ZM293.195 1930.59C293.713 1930.59 294.025 1930.23 294.025 1929.66V1926.77H297.082C297.629 1926.77 298.01 1926.49 298.01 1925.97C298.01 1925.44 297.648 1925.14 297.082 1925.14H294.025V1922.07C294.025 1921.5 293.713 1921.14 293.195 1921.14C292.678 1921.14 292.385 1921.52 292.385 1922.07V1925.14H289.338C288.771 1925.14 288.4 1925.44 288.4 1925.97C288.4 1926.49 288.791 1926.77 289.338 1926.77H292.385V1929.66C292.385 1930.21 292.678 1930.59 293.195 1930.59Z" fill="black"/>
</g>
<g id="Group_3">
<path id="Vector_5" d="M319.895 1938.67C326.857 1938.67 332.619 1932.92 332.619 1925.96C332.619 1918.99 326.848 1913.24 319.885 1913.24C312.932 1913.24 307.18 1918.99 307.18 1925.96C307.18 1932.92 312.941 1938.67 319.895 1938.67ZM319.895 1936.86C313.859 1936.86 309.006 1931.99 309.006 1925.96C309.006 1919.92 313.85 1915.06 319.885 1915.06C325.93 1915.06 330.783 1919.92 330.793 1925.96C330.803 1931.99 325.939 1936.86 319.895 1936.86ZM319.875 1931.93C320.441 1931.93 320.793 1931.54 320.793 1930.94V1926.87H325.031C325.617 1926.87 326.037 1926.53 326.037 1925.98C326.037 1925.4 325.647 1925.06 325.031 1925.06H320.793V1920.81C320.793 1920.2 320.441 1919.8 319.875 1919.8C319.309 1919.8 318.986 1920.21 318.986 1920.81V1925.06H314.758C314.143 1925.06 313.732 1925.4 313.732 1925.98C313.732 1926.53 314.162 1926.87 314.758 1926.87H318.986V1930.94C318.986 1931.52 319.309 1931.93 319.875 1931.93Z" fill="black"/>
</g>
<text id="Design Variations" fill="black" xml:space="preserve" style="white-space: pre" font-family="Roboto" font-size="12" letter-spacing="0em"><tspan x="263" y="1952.1">Design Variations</tspan></text>
<text id="Symbols are supported in up to nine weights and three scales." fill="black" xml:space="preserve" style="white-space: pre" font-family="Roboto" font-size="12" letter-spacing="0em"><tspan x="263" y="1970.1">Symbols are supported in up to nine weights and three scales.</tspan></text>
<text id="For optimal layout with text and other symbols, vertically align" fill="black" xml:space="preserve" style="white-space: pre" font-family="Roboto" font-size="12" letter-spacing="0em"><tspan x="263" y="1988.1">For optimal layout with text and other symbols, vertically align</tspan></text>
<text id="symbols with the adjacent text." fill="black" xml:space="preserve" style="white-space: pre" font-family="Roboto" font-size="12" letter-spacing="0em"><tspan x="263" y="2006.1">symbols with the adjacent text.</tspan></text>
<path id="Vector_6" opacity="0.4" d="M779 1919H776V1933H779V1919Z" fill="#00AEEF"/>
<g id="Group_4">
<path id="Vector_7" d="M789.525 1933H791.371L786.176 1918.91H784.437L779.242 1933H781.088L782.504 1928.96H788.109L789.525 1933ZM785.277 1921.04H785.336L787.592 1927.47H783.021L785.277 1921.04Z" fill="black"/>
</g>
<path id="Vector_8" opacity="0.4" d="M794.617 1919H791.617V1933H794.617V1919Z" fill="#00AEEF"/>
<text id="Margins" fill="black" xml:space="preserve" style="white-space: pre" font-family="Roboto" font-size="12" letter-spacing="0em"><tspan x="776" y="1952.1">Margins</tspan></text>
<text id="Leading and trailing margins on the left and right side of each symbol" fill="black" xml:space="preserve" style="white-space: pre" font-family="Roboto" font-size="12" letter-spacing="0em"><tspan x="776" y="1970.1">Leading and trailing margins on the left and right side of each symbol</tspan></text>
<text id="can be adjusted by modifying the width of the blue rectangles." fill="black" xml:space="preserve" style="white-space: pre" font-family="Roboto" font-size="12" letter-spacing="0em"><tspan x="776" y="1988.1">can be adjusted by modifying the width of the blue rectangles.</tspan></text>
<text id="Modifications are automatically applied proportionally to all" fill="black" xml:space="preserve" style="white-space: pre" font-family="Roboto" font-size="12" letter-spacing="0em"><tspan x="776" y="2006.1">Modifications are automatically applied proportionally to all</tspan></text>
<text id="scales and weights." fill="black" xml:space="preserve" style="white-space: pre" font-family="Roboto" font-size="12" letter-spacing="0em"><tspan x="776" y="2024.1">scales and weights.</tspan></text>
<g id="Group_5">
<path id="Vector_9" d="M1291.83 1936.11L1293.37 1937.66C1294.22 1938.49 1295.19 1938.42 1296.06 1937.46L1306.27 1926.34C1306.7 1926.63 1307.1 1926.62 1307.56 1926.52L1308.61 1926.31L1309.3 1927L1309.25 1927.52C1309.19 1928.05 1309.35 1928.47 1309.85 1928.97L1310.66 1929.78C1311.17 1930.28 1311.82 1930.31 1312.3 1929.83L1315.55 1926.58C1316.03 1926.1 1316.01 1925.45 1315.5 1924.94L1314.68 1924.12C1314.19 1923.62 1313.77 1923.45 1313.24 1923.53L1312.71 1923.58L1312.06 1922.92L1312.34 1921.78C1312.49 1921.21 1312.34 1920.74 1311.71 1920.14L1309.3 1917.75C1305.76 1914.22 1301.23 1914.33 1298.11 1917.46C1297.69 1917.89 1297.64 1918.48 1297.92 1918.91C1298.15 1919.28 1298.63 1919.5 1299.27 1919.34C1300.79 1918.96 1302.3 1919.07 1303.78 1920.08L1303.16 1921.66C1302.93 1922.25 1302.94 1922.73 1303.18 1923.16L1292.02 1933.44C1291.08 1934.31 1290.97 1935.25 1291.83 1936.11ZM1299.67 1917.85C1302.34 1915.86 1305.65 1916.17 1308.05 1918.58L1310.68 1921.19C1310.91 1921.43 1310.94 1921.61 1310.88 1921.91L1310.5 1923.47L1312.08 1925.04L1313.04 1924.95C1313.33 1924.92 1313.41 1924.94 1313.64 1925.17L1314.26 1925.79L1311.51 1928.54L1310.88 1927.92C1310.66 1927.7 1310.64 1927.6 1310.67 1927.32L1310.76 1926.36L1309.19 1924.8L1307.57 1925.11C1307.29 1925.17 1307.14 1925.17 1306.91 1924.92L1304.73 1922.75C1304.51 1922.51 1304.48 1922.37 1304.61 1922.05L1305.55 1919.78C1303.95 1918.24 1301.84 1917.39 1299.8 1918.05C1299.71 1918.08 1299.64 1918.06 1299.61 1918.02C1299.59 1917.97 1299.59 1917.92 1299.67 1917.85ZM1293.1 1935.41C1292.61 1934.91 1292.79 1934.61 1293.12 1934.31L1304.08 1924.19L1305.31 1925.42L1295.15 1936.35C1294.85 1936.68 1294.47 1936.78 1294.07 1936.38L1293.1 1935.41Z" fill="black"/>
</g>
<text id="Exporting" fill="black" xml:space="preserve" style="white-space: pre" font-family="Roboto" font-size="12" letter-spacing="0em"><tspan x="1289" y="1952.1">Exporting</tspan></text>
<text id="Symbols should be outlined when exporting to ensure the" fill="black" xml:space="preserve" style="white-space: pre" font-family="Roboto" font-size="12" letter-spacing="0em"><tspan x="1289" y="1970.1">Symbols should be outlined when exporting to ensure the</tspan></text>
<text id="design is preserved when submitting to Xcode." fill="black" xml:space="preserve" style="white-space: pre" font-family="Roboto" font-size="12" letter-spacing="0em"><tspan x="1289" y="1988.1">design is preserved when submitting to Xcode.</tspan></text>
<text id="template-version" fill="black" xml:space="preserve" style="white-space: pre" font-family="Roboto" font-size="12" letter-spacing="0em"><tspan x="2958" y="1932.1">Template v.1.0</tspan></text>
<text id="Generated from pencil.circle" fill="black" xml:space="preserve" style="white-space: pre" font-family="Roboto" font-size="12" letter-spacing="0em"><tspan x="2885" y="1950.1">Generated from pencil.circle</tspan></text>
<text id="Typeset at 100 points" fill="black" xml:space="preserve" style="white-space: pre" font-family="Roboto" font-size="12" letter-spacing="0em"><tspan x="2921" y="1968.1">Typeset at 100 points</tspan></text>
<text id="Small" fill="black" xml:space="preserve" style="white-space: pre" font-family="Roboto" font-size="12" letter-spacing="0em"><tspan x="263" y="725.102">Small</tspan></text>
<text id="Medium_2" fill="black" xml:space="preserve" style="white-space: pre" font-family="Roboto" font-size="12" letter-spacing="0em"><tspan x="263" y="1155.1">Medium</tspan></text>
<text id="Large" fill="black" xml:space="preserve" style="white-space: pre" font-family="Roboto" font-size="12" letter-spacing="0em"><tspan x="263" y="1585.1">Large</tspan></text>
</g>
<g id="Guides">
<g id="H-reference">
<path id="Vector_10" d="M393.932 695.998H396.666L369.566 625.539H367.076L339.977 695.998H342.662L351.94 671.535H384.703L393.932 695.998ZM368.199 628.908H368.443L383.824 669.289H352.818L368.199 628.908Z" fill="#27AAE1"/>
</g>
<path id="Baseline-S" d="M263 696H3036" stroke="#27AAE1" stroke-width="0.577"/>
<path id="Capline-S" d="M263 626H3036" stroke="#27AAE1" stroke-width="0.577"/>
<g id="H-reference_2">
<path id="Vector_11" d="M393.932 1126H396.666L369.566 1055.54H367.076L339.977 1126H342.662L351.94 1101.54H384.703L393.932 1126ZM368.199 1058.91H368.443L383.824 1099.29H352.818L368.199 1058.91Z" fill="#27AAE1"/>
</g>
<path id="Baseline-M" d="M263 1126H3036" stroke="#27AAE1" stroke-width="0.577"/>
<path id="Capline-M" d="M263 1056H3036" stroke="#27AAE1" stroke-width="0.577"/>
<g id="H-reference_3">
<path id="Vector_12" d="M393.932 1556H396.666L369.566 1485.54H367.076L339.977 1556H342.662L351.94 1531.54H384.703L393.932 1556ZM368.199 1488.91H368.443L383.824 1529.29H352.818L368.199 1488.91Z" fill="#27AAE1"/>
</g>
<g id="Group 1">
<path id="Baseline-L" d="M263 1556H3036" stroke="#27AAE1" stroke-width="0.577"/>
<path id="Capline-L" d="M263 1486H3036" stroke="#27AAE1" stroke-width="0.577"/>
</g>
<path id="left-margin" opacity="0.4" d="M1396.04 1030.79H1387.3V1150.12H1396.04V1030.79Z" fill="#00AEEF"/>
<path id="right-margin" opacity="0.4" d="M1510.39 1030.79H1501.65V1150.12H1510.39V1030.79Z" fill="#00AEEF"/>
</g>
<g id="Symbols">
<g id="Black-L">
<g id="Outline / Wiki Outline">
<path id="Shape" fill-rule="evenodd" clip-rule="evenodd" d="M2929 1578.75C2960.89 1578.75 2986.75 1552.89 2986.75 1521C2986.75 1489.11 2960.89 1463.25 2929 1463.25C2897.11 1463.25 2871.25 1489.11 2871.25 1521C2871.25 1552.89 2897.11 1578.75 2929 1578.75ZM2929 1588.5C2966.28 1588.5 2996.5 1558.28 2996.5 1521C2996.5 1483.72 2966.28 1453.5 2929 1453.5C2891.72 1453.5 2861.5 1483.72 2861.5 1521C2861.5 1558.28 2891.72 1588.5 2929 1588.5ZM2889.49 1496.55C2891.92 1495.4 2894.83 1496.45 2895.98 1498.88L2915.9 1541.09L2923.61 1524.77L2913.35 1503.04C2912.2 1500.61 2913.25 1497.7 2915.68 1496.55C2918.11 1495.4 2921.02 1496.45 2922.17 1498.88L2929 1513.35L2935.83 1498.88C2936.98 1496.45 2939.89 1495.4 2942.32 1496.55C2944.75 1497.7 2945.8 1500.61 2944.65 1503.04L2934.39 1524.77L2942.1 1541.09L2962.02 1498.88C2963.17 1496.45 2966.08 1495.4 2968.51 1496.55C2970.94 1497.7 2971.99 1500.61 2970.84 1503.04L2946.5 1554.59C2945.7 1556.3 2943.98 1557.38 2942.1 1557.38C2940.21 1557.38 2938.49 1556.3 2937.69 1554.59L2929 1536.19L2920.31 1554.59C2919.51 1556.3 2917.79 1557.38 2915.9 1557.38C2914.02 1557.38 2912.3 1556.3 2911.5 1554.59L2887.16 1503.04C2886.01 1500.61 2887.05 1497.7 2889.49 1496.55Z" fill="black"/>
</g>
</g>
<g id="Heavy-L">
<g id="Outline / Wiki Outline_2">
<path id="Shape_2" fill-rule="evenodd" clip-rule="evenodd" d="M2633 1578.75C2664.89 1578.75 2690.75 1552.89 2690.75 1521C2690.75 1489.11 2664.89 1463.25 2633 1463.25C2601.11 1463.25 2575.25 1489.11 2575.25 1521C2575.25 1552.89 2601.11 1578.75 2633 1578.75ZM2633 1588.5C2670.28 1588.5 2700.5 1558.28 2700.5 1521C2700.5 1483.72 2670.28 1453.5 2633 1453.5C2595.72 1453.5 2565.5 1483.72 2565.5 1521C2565.5 1558.28 2595.72 1588.5 2633 1588.5ZM2593.49 1496.55C2595.92 1495.4 2598.83 1496.45 2599.98 1498.88L2619.9 1541.09L2627.61 1524.77L2617.35 1503.04C2616.2 1500.61 2617.25 1497.7 2619.68 1496.55C2622.11 1495.4 2625.02 1496.45 2626.17 1498.88L2633 1513.35L2639.83 1498.88C2640.98 1496.45 2643.89 1495.4 2646.32 1496.55C2648.75 1497.7 2649.8 1500.61 2648.65 1503.04L2638.39 1524.77L2646.1 1541.09L2666.02 1498.88C2667.17 1496.45 2670.08 1495.4 2672.51 1496.55C2674.94 1497.7 2675.99 1500.61 2674.84 1503.04L2650.5 1554.59C2649.7 1556.3 2647.98 1557.38 2646.1 1557.38C2644.21 1557.38 2642.49 1556.3 2641.69 1554.59L2633 1536.19L2624.31 1554.59C2623.51 1556.3 2621.79 1557.38 2619.9 1557.38C2618.02 1557.38 2616.3 1556.3 2615.5 1554.59L2591.16 1503.04C2590.01 1500.61 2591.05 1497.7 2593.49 1496.55Z" fill="black"/>
</g>
</g>
<g id="Bold-L">
<g id="Outline / Wiki Outline_3">
<path id="Shape_3" fill-rule="evenodd" clip-rule="evenodd" d="M2337 1578.75C2368.89 1578.75 2394.75 1552.89 2394.75 1521C2394.75 1489.11 2368.89 1463.25 2337 1463.25C2305.11 1463.25 2279.25 1489.11 2279.25 1521C2279.25 1552.89 2305.11 1578.75 2337 1578.75ZM2337 1588.5C2374.28 1588.5 2404.5 1558.28 2404.5 1521C2404.5 1483.72 2374.28 1453.5 2337 1453.5C2299.72 1453.5 2269.5 1483.72 2269.5 1521C2269.5 1558.28 2299.72 1588.5 2337 1588.5ZM2297.49 1496.55C2299.92 1495.4 2302.83 1496.45 2303.98 1498.88L2323.9 1541.09L2331.61 1524.77L2321.35 1503.04C2320.2 1500.61 2321.25 1497.7 2323.68 1496.55C2326.11 1495.4 2329.02 1496.45 2330.17 1498.88L2337 1513.35L2343.83 1498.88C2344.98 1496.45 2347.89 1495.4 2350.32 1496.55C2352.75 1497.7 2353.8 1500.61 2352.65 1503.04L2342.39 1524.77L2350.1 1541.09L2370.02 1498.88C2371.17 1496.45 2374.08 1495.4 2376.51 1496.55C2378.94 1497.7 2379.99 1500.61 2378.84 1503.04L2354.5 1554.59C2353.7 1556.3 2351.98 1557.38 2350.1 1557.38C2348.21 1557.38 2346.49 1556.3 2345.69 1554.59L2337 1536.19L2328.31 1554.59C2327.51 1556.3 2325.79 1557.38 2323.9 1557.38C2322.02 1557.38 2320.3 1556.3 2319.5 1554.59L2295.16 1503.04C2294.01 1500.61 2295.05 1497.7 2297.49 1496.55Z" fill="black"/>
</g>
</g>
<g id="Semibold-L">
<g id="Outline / Wiki Outline_4">
<path id="Shape_4" fill-rule="evenodd" clip-rule="evenodd" d="M2041 1578.75C2072.89 1578.75 2098.75 1552.89 2098.75 1521C2098.75 1489.11 2072.89 1463.25 2041 1463.25C2009.11 1463.25 1983.25 1489.11 1983.25 1521C1983.25 1552.89 2009.11 1578.75 2041 1578.75ZM2041 1588.5C2078.28 1588.5 2108.5 1558.28 2108.5 1521C2108.5 1483.72 2078.28 1453.5 2041 1453.5C2003.72 1453.5 1973.5 1483.72 1973.5 1521C1973.5 1558.28 2003.72 1588.5 2041 1588.5ZM2001.49 1496.55C2003.92 1495.4 2006.83 1496.45 2007.98 1498.88L2027.9 1541.09L2035.61 1524.77L2025.35 1503.04C2024.2 1500.61 2025.25 1497.7 2027.68 1496.55C2030.11 1495.4 2033.02 1496.45 2034.17 1498.88L2041 1513.35L2047.83 1498.88C2048.98 1496.45 2051.89 1495.4 2054.32 1496.55C2056.75 1497.7 2057.8 1500.61 2056.65 1503.04L2046.39 1524.77L2054.1 1541.09L2074.02 1498.88C2075.17 1496.45 2078.08 1495.4 2080.51 1496.55C2082.94 1497.7 2083.99 1500.61 2082.84 1503.04L2058.5 1554.59C2057.7 1556.3 2055.98 1557.38 2054.1 1557.38C2052.21 1557.38 2050.49 1556.3 2049.69 1554.59L2041 1536.19L2032.31 1554.59C2031.51 1556.3 2029.79 1557.38 2027.9 1557.38C2026.02 1557.38 2024.3 1556.3 2023.5 1554.59L1999.16 1503.04C1998.01 1500.61 1999.05 1497.7 2001.49 1496.55Z" fill="black"/>
</g>
</g>
<g id="Medium-L">
<g id="Outline / Wiki Outline_5">
<path id="Shape_5" fill-rule="evenodd" clip-rule="evenodd" d="M1745 1578.75C1776.89 1578.75 1802.75 1552.89 1802.75 1521C1802.75 1489.11 1776.89 1463.25 1745 1463.25C1713.11 1463.25 1687.25 1489.11 1687.25 1521C1687.25 1552.89 1713.11 1578.75 1745 1578.75ZM1745 1588.5C1782.28 1588.5 1812.5 1558.28 1812.5 1521C1812.5 1483.72 1782.28 1453.5 1745 1453.5C1707.72 1453.5 1677.5 1483.72 1677.5 1521C1677.5 1558.28 1707.72 1588.5 1745 1588.5ZM1705.49 1496.55C1707.92 1495.4 1710.83 1496.45 1711.98 1498.88L1731.9 1541.09L1739.61 1524.77L1729.35 1503.04C1728.2 1500.61 1729.25 1497.7 1731.68 1496.55C1734.11 1495.4 1737.02 1496.45 1738.17 1498.88L1745 1513.35L1751.83 1498.88C1752.98 1496.45 1755.89 1495.4 1758.32 1496.55C1760.75 1497.7 1761.8 1500.61 1760.65 1503.04L1750.39 1524.77L1758.1 1541.09L1778.02 1498.88C1779.17 1496.45 1782.08 1495.4 1784.51 1496.55C1786.94 1497.7 1787.99 1500.61 1786.84 1503.04L1762.5 1554.59C1761.7 1556.3 1759.98 1557.38 1758.1 1557.38C1756.21 1557.38 1754.49 1556.3 1753.69 1554.59L1745 1536.19L1736.31 1554.59C1735.51 1556.3 1733.79 1557.38 1731.9 1557.38C1730.02 1557.38 1728.3 1556.3 1727.5 1554.59L1703.16 1503.04C1702.01 1500.61 1703.05 1497.7 1705.49 1496.55Z" fill="black"/>
</g>
</g>
<g id="Regular-L">
<g id="Outline / Wiki Outline_6">
<path id="Shape_6" fill-rule="evenodd" clip-rule="evenodd" d="M1449 1578.75C1480.89 1578.75 1506.75 1552.89 1506.75 1521C1506.75 1489.11 1480.89 1463.25 1449 1463.25C1417.11 1463.25 1391.25 1489.11 1391.25 1521C1391.25 1552.89 1417.11 1578.75 1449 1578.75ZM1449 1588.5C1486.28 1588.5 1516.5 1558.28 1516.5 1521C1516.5 1483.72 1486.28 1453.5 1449 1453.5C1411.72 1453.5 1381.5 1483.72 1381.5 1521C1381.5 1558.28 1411.72 1588.5 1449 1588.5ZM1409.49 1496.55C1411.92 1495.4 1414.83 1496.45 1415.98 1498.88L1435.9 1541.09L1443.61 1524.77L1433.35 1503.04C1432.2 1500.61 1433.25 1497.7 1435.68 1496.55C1438.11 1495.4 1441.02 1496.45 1442.17 1498.88L1449 1513.35L1455.83 1498.88C1456.98 1496.45 1459.89 1495.4 1462.32 1496.55C1464.75 1497.7 1465.8 1500.61 1464.65 1503.04L1454.39 1524.77L1462.1 1541.09L1482.02 1498.88C1483.17 1496.45 1486.08 1495.4 1488.51 1496.55C1490.94 1497.7 1491.99 1500.61 1490.84 1503.04L1466.5 1554.59C1465.7 1556.3 1463.98 1557.38 1462.1 1557.38C1460.21 1557.38 1458.49 1556.3 1457.69 1554.59L1449 1536.19L1440.31 1554.59C1439.51 1556.3 1437.79 1557.38 1435.9 1557.38C1434.02 1557.38 1432.3 1556.3 1431.5 1554.59L1407.16 1503.04C1406.01 1500.61 1407.05 1497.7 1409.49 1496.55Z" fill="black"/>
</g>
</g>
<g id="Light-L">
<g id="Outline / Wiki Outline_7">
<path id="Shape_7" fill-rule="evenodd" clip-rule="evenodd" d="M1153 1578.75C1184.89 1578.75 1210.75 1552.89 1210.75 1521C1210.75 1489.11 1184.89 1463.25 1153 1463.25C1121.11 1463.25 1095.25 1489.11 1095.25 1521C1095.25 1552.89 1121.11 1578.75 1153 1578.75ZM1153 1588.5C1190.28 1588.5 1220.5 1558.28 1220.5 1521C1220.5 1483.72 1190.28 1453.5 1153 1453.5C1115.72 1453.5 1085.5 1483.72 1085.5 1521C1085.5 1558.28 1115.72 1588.5 1153 1588.5ZM1113.49 1496.55C1115.92 1495.4 1118.83 1496.45 1119.98 1498.88L1139.9 1541.09L1147.61 1524.77L1137.35 1503.04C1136.2 1500.61 1137.25 1497.7 1139.68 1496.55C1142.11 1495.4 1145.02 1496.45 1146.17 1498.88L1153 1513.35L1159.83 1498.88C1160.98 1496.45 1163.89 1495.4 1166.32 1496.55C1168.75 1497.7 1169.8 1500.61 1168.65 1503.04L1158.39 1524.77L1166.1 1541.09L1186.02 1498.88C1187.17 1496.45 1190.08 1495.4 1192.51 1496.55C1194.94 1497.7 1195.99 1500.61 1194.84 1503.04L1170.5 1554.59C1169.7 1556.3 1167.98 1557.38 1166.1 1557.38C1164.21 1557.38 1162.49 1556.3 1161.69 1554.59L1153 1536.19L1144.31 1554.59C1143.51 1556.3 1141.79 1557.38 1139.9 1557.38C1138.02 1557.38 1136.3 1556.3 1135.5 1554.59L1111.16 1503.04C1110.01 1500.61 1111.05 1497.7 1113.49 1496.55Z" fill="black"/>
</g>
</g>
<g id="Thin-L">
<g id="Outline / Wiki Outline_8">
<path id="Shape_8" fill-rule="evenodd" clip-rule="evenodd" d="M857 1578.75C888.894 1578.75 914.75 1552.89 914.75 1521C914.75 1489.11 888.894 1463.25 857 1463.25C825.106 1463.25 799.25 1489.11 799.25 1521C799.25 1552.89 825.106 1578.75 857 1578.75ZM857 1588.5C894.279 1588.5 924.5 1558.28 924.5 1521C924.5 1483.72 894.279 1453.5 857 1453.5C819.721 1453.5 789.5 1483.72 789.5 1521C789.5 1558.28 819.721 1588.5 857 1588.5ZM817.489 1496.55C819.924 1495.4 822.83 1496.45 823.979 1498.88L843.905 1541.09L851.609 1524.77L841.353 1503.04C840.203 1500.61 841.245 1497.7 843.68 1496.55C846.115 1495.4 849.02 1496.45 850.169 1498.88L857 1513.35L863.83 1498.88C864.98 1496.45 867.885 1495.4 870.32 1496.55C872.754 1497.7 873.796 1500.61 872.647 1503.04L862.391 1524.77L870.095 1541.09L890.021 1498.88C891.17 1496.45 894.076 1495.4 896.51 1496.55C898.945 1497.7 899.987 1500.61 898.838 1503.04L874.504 1554.59C873.698 1556.3 871.981 1557.38 870.095 1557.38C868.209 1557.38 866.492 1556.3 865.687 1554.59L857 1536.19L848.313 1554.59C847.508 1556.3 845.791 1557.38 843.905 1557.38C842.018 1557.38 840.301 1556.3 839.496 1554.59L815.162 1503.04C814.013 1500.61 815.055 1497.7 817.489 1496.55Z" fill="black"/>
</g>
</g>
<g id="Ultralight-L">
<g id="Outline / Wiki Outline_9">
<path id="Shape_9" fill-rule="evenodd" clip-rule="evenodd" d="M561 1578.75C592.894 1578.75 618.75 1552.89 618.75 1521C618.75 1489.11 592.894 1463.25 561 1463.25C529.106 1463.25 503.25 1489.11 503.25 1521C503.25 1552.89 529.106 1578.75 561 1578.75ZM561 1588.5C598.279 1588.5 628.5 1558.28 628.5 1521C628.5 1483.72 598.279 1453.5 561 1453.5C523.721 1453.5 493.5 1483.72 493.5 1521C493.5 1558.28 523.721 1588.5 561 1588.5ZM521.489 1496.55C523.924 1495.4 526.83 1496.45 527.979 1498.88L547.905 1541.09L555.609 1524.77L545.353 1503.04C544.203 1500.61 545.245 1497.7 547.68 1496.55C550.115 1495.4 553.02 1496.45 554.169 1498.88L561 1513.35L567.83 1498.88C568.98 1496.45 571.885 1495.4 574.32 1496.55C576.754 1497.7 577.796 1500.61 576.647 1503.04L566.391 1524.77L574.095 1541.09L594.021 1498.88C595.17 1496.45 598.076 1495.4 600.51 1496.55C602.945 1497.7 603.987 1500.61 602.838 1503.04L578.504 1554.59C577.698 1556.3 575.981 1557.38 574.095 1557.38C572.209 1557.38 570.492 1556.3 569.687 1554.59L561 1536.19L552.313 1554.59C551.508 1556.3 549.791 1557.38 547.905 1557.38C546.018 1557.38 544.301 1556.3 543.496 1554.59L519.162 1503.04C518.013 1500.61 519.055 1497.7 521.489 1496.55Z" fill="black"/>
</g>
</g>
<g id="Black-M">
<g id="Outline / Wiki Outline_10">
<path id="Shape_10" fill-rule="evenodd" clip-rule="evenodd" d="M2929 1135.92C2953.81 1135.92 2973.92 1115.81 2973.92 1091C2973.92 1066.19 2953.81 1046.08 2929 1046.08C2904.19 1046.08 2884.08 1066.19 2884.08 1091C2884.08 1115.81 2904.19 1135.92 2929 1135.92ZM2929 1143.5C2957.99 1143.5 2981.5 1119.99 2981.5 1091C2981.5 1062.01 2957.99 1038.5 2929 1038.5C2900.01 1038.5 2876.5 1062.01 2876.5 1091C2876.5 1119.99 2900.01 1143.5 2929 1143.5ZM2898.27 1071.99C2900.16 1071.09 2902.42 1071.9 2903.32 1073.8L2918.81 1106.63L2924.81 1093.93L2916.83 1077.03C2915.94 1075.14 2916.75 1072.88 2918.64 1071.99C2920.53 1071.09 2922.79 1071.9 2923.69 1073.8L2929 1085.05L2934.31 1073.8C2935.21 1071.9 2937.47 1071.09 2939.36 1071.99C2941.25 1072.88 2942.06 1075.14 2941.17 1077.03L2933.19 1093.93L2939.19 1106.63L2954.68 1073.8C2955.58 1071.9 2957.84 1071.09 2959.73 1071.99C2961.62 1072.88 2962.43 1075.14 2961.54 1077.03L2942.61 1117.13C2941.99 1118.45 2940.65 1119.3 2939.19 1119.3C2937.72 1119.3 2936.38 1118.45 2935.76 1117.13L2929 1102.81L2922.24 1117.13C2921.62 1118.45 2920.28 1119.3 2918.81 1119.3C2917.35 1119.3 2916.01 1118.45 2915.39 1117.13L2896.46 1077.03C2895.57 1075.14 2896.38 1072.88 2898.27 1071.99Z" fill="black"/>
</g>
</g>
<g id="Heavy-M">
<g id="Outline / Wiki Outline_11">
<path id="Shape_11" fill-rule="evenodd" clip-rule="evenodd" d="M2633 1135.92C2657.81 1135.92 2677.92 1115.81 2677.92 1091C2677.92 1066.19 2657.81 1046.08 2633 1046.08C2608.19 1046.08 2588.08 1066.19 2588.08 1091C2588.08 1115.81 2608.19 1135.92 2633 1135.92ZM2633 1143.5C2661.99 1143.5 2685.5 1119.99 2685.5 1091C2685.5 1062.01 2661.99 1038.5 2633 1038.5C2604.01 1038.5 2580.5 1062.01 2580.5 1091C2580.5 1119.99 2604.01 1143.5 2633 1143.5ZM2602.27 1071.99C2604.16 1071.09 2606.42 1071.9 2607.32 1073.8L2622.81 1106.63L2628.81 1093.93L2620.83 1077.03C2619.94 1075.14 2620.75 1072.88 2622.64 1071.99C2624.53 1071.09 2626.79 1071.9 2627.69 1073.8L2633 1085.05L2638.31 1073.8C2639.21 1071.9 2641.47 1071.09 2643.36 1071.99C2645.25 1072.88 2646.06 1075.14 2645.17 1077.03L2637.19 1093.93L2643.19 1106.63L2658.68 1073.8C2659.58 1071.9 2661.84 1071.09 2663.73 1071.99C2665.62 1072.88 2666.43 1075.14 2665.54 1077.03L2646.61 1117.13C2645.99 1118.45 2644.65 1119.3 2643.19 1119.3C2641.72 1119.3 2640.38 1118.45 2639.76 1117.13L2633 1102.81L2626.24 1117.13C2625.62 1118.45 2624.28 1119.3 2622.81 1119.3C2621.35 1119.3 2620.01 1118.45 2619.39 1117.13L2600.46 1077.03C2599.57 1075.14 2600.38 1072.88 2602.27 1071.99Z" fill="black"/>
</g>
</g>
<g id="Bold-M">
<g id="Outline / Wiki Outline_12">
<path id="Shape_12" fill-rule="evenodd" clip-rule="evenodd" d="M2337 1135.92C2361.81 1135.92 2381.92 1115.81 2381.92 1091C2381.92 1066.19 2361.81 1046.08 2337 1046.08C2312.19 1046.08 2292.08 1066.19 2292.08 1091C2292.08 1115.81 2312.19 1135.92 2337 1135.92ZM2337 1143.5C2365.99 1143.5 2389.5 1119.99 2389.5 1091C2389.5 1062.01 2365.99 1038.5 2337 1038.5C2308.01 1038.5 2284.5 1062.01 2284.5 1091C2284.5 1119.99 2308.01 1143.5 2337 1143.5ZM2306.27 1071.99C2308.16 1071.09 2310.42 1071.9 2311.32 1073.8L2326.81 1106.63L2332.81 1093.93L2324.83 1077.03C2323.94 1075.14 2324.75 1072.88 2326.64 1071.99C2328.53 1071.09 2330.79 1071.9 2331.69 1073.8L2337 1085.05L2342.31 1073.8C2343.21 1071.9 2345.47 1071.09 2347.36 1071.99C2349.25 1072.88 2350.06 1075.14 2349.17 1077.03L2341.19 1093.93L2347.19 1106.63L2362.68 1073.8C2363.58 1071.9 2365.84 1071.09 2367.73 1071.99C2369.62 1072.88 2370.43 1075.14 2369.54 1077.03L2350.61 1117.13C2349.99 1118.45 2348.65 1119.3 2347.19 1119.3C2345.72 1119.3 2344.38 1118.45 2343.76 1117.13L2337 1102.81L2330.24 1117.13C2329.62 1118.45 2328.28 1119.3 2326.81 1119.3C2325.35 1119.3 2324.01 1118.45 2323.39 1117.13L2304.46 1077.03C2303.57 1075.14 2304.38 1072.88 2306.27 1071.99Z" fill="black"/>
</g>
</g>
<g id="Semibold-M">
<g id="Outline / Wiki Outline_13">
<path id="Shape_13" fill-rule="evenodd" clip-rule="evenodd" d="M2041 1135.92C2065.81 1135.92 2085.92 1115.81 2085.92 1091C2085.92 1066.19 2065.81 1046.08 2041 1046.08C2016.19 1046.08 1996.08 1066.19 1996.08 1091C1996.08 1115.81 2016.19 1135.92 2041 1135.92ZM2041 1143.5C2069.99 1143.5 2093.5 1119.99 2093.5 1091C2093.5 1062.01 2069.99 1038.5 2041 1038.5C2012.01 1038.5 1988.5 1062.01 1988.5 1091C1988.5 1119.99 2012.01 1143.5 2041 1143.5ZM2010.27 1071.99C2012.16 1071.09 2014.42 1071.9 2015.32 1073.8L2030.81 1106.63L2036.81 1093.93L2028.83 1077.03C2027.94 1075.14 2028.75 1072.88 2030.64 1071.99C2032.53 1071.09 2034.79 1071.9 2035.69 1073.8L2041 1085.05L2046.31 1073.8C2047.21 1071.9 2049.47 1071.09 2051.36 1071.99C2053.25 1072.88 2054.06 1075.14 2053.17 1077.03L2045.19 1093.93L2051.19 1106.63L2066.68 1073.8C2067.58 1071.9 2069.84 1071.09 2071.73 1071.99C2073.62 1072.88 2074.43 1075.14 2073.54 1077.03L2054.61 1117.13C2053.99 1118.45 2052.65 1119.3 2051.19 1119.3C2049.72 1119.3 2048.38 1118.45 2047.76 1117.13L2041 1102.81L2034.24 1117.13C2033.62 1118.45 2032.28 1119.3 2030.81 1119.3C2029.35 1119.3 2028.01 1118.45 2027.39 1117.13L2008.46 1077.03C2007.57 1075.14 2008.38 1072.88 2010.27 1071.99Z" fill="black"/>
</g>
</g>
<g id="Medium-M">
<g id="Outline / Wiki Outline_14">
<path id="Shape_14" fill-rule="evenodd" clip-rule="evenodd" d="M1745 1135.92C1769.81 1135.92 1789.92 1115.81 1789.92 1091C1789.92 1066.19 1769.81 1046.08 1745 1046.08C1720.19 1046.08 1700.08 1066.19 1700.08 1091C1700.08 1115.81 1720.19 1135.92 1745 1135.92ZM1745 1143.5C1773.99 1143.5 1797.5 1119.99 1797.5 1091C1797.5 1062.01 1773.99 1038.5 1745 1038.5C1716.01 1038.5 1692.5 1062.01 1692.5 1091C1692.5 1119.99 1716.01 1143.5 1745 1143.5ZM1714.27 1071.99C1716.16 1071.09 1718.42 1071.9 1719.32 1073.8L1734.81 1106.63L1740.81 1093.93L1732.83 1077.03C1731.94 1075.14 1732.75 1072.88 1734.64 1071.99C1736.53 1071.09 1738.79 1071.9 1739.69 1073.8L1745 1085.05L1750.31 1073.8C1751.21 1071.9 1753.47 1071.09 1755.36 1071.99C1757.25 1072.88 1758.06 1075.14 1757.17 1077.03L1749.19 1093.93L1755.19 1106.63L1770.68 1073.8C1771.58 1071.9 1773.84 1071.09 1775.73 1071.99C1777.62 1072.88 1778.43 1075.14 1777.54 1077.03L1758.61 1117.13C1757.99 1118.45 1756.65 1119.3 1755.19 1119.3C1753.72 1119.3 1752.38 1118.45 1751.76 1117.13L1745 1102.81L1738.24 1117.13C1737.62 1118.45 1736.28 1119.3 1734.81 1119.3C1733.35 1119.3 1732.01 1118.45 1731.39 1117.13L1712.46 1077.03C1711.57 1075.14 1712.38 1072.88 1714.27 1071.99Z" fill="black"/>
</g>
</g>
<g id="Regular-M">
<g id="Outline / Wiki Outline_15">
<path id="Shape_15" fill-rule="evenodd" clip-rule="evenodd" d="M1449 1135.92C1473.81 1135.92 1493.92 1115.81 1493.92 1091C1493.92 1066.19 1473.81 1046.08 1449 1046.08C1424.19 1046.08 1404.08 1066.19 1404.08 1091C1404.08 1115.81 1424.19 1135.92 1449 1135.92ZM1449 1143.5C1477.99 1143.5 1501.5 1119.99 1501.5 1091C1501.5 1062.01 1477.99 1038.5 1449 1038.5C1420.01 1038.5 1396.5 1062.01 1396.5 1091C1396.5 1119.99 1420.01 1143.5 1449 1143.5ZM1418.27 1071.99C1420.16 1071.09 1422.42 1071.9 1423.32 1073.8L1438.81 1106.63L1444.81 1093.93L1436.83 1077.03C1435.94 1075.14 1436.75 1072.88 1438.64 1071.99C1440.53 1071.09 1442.79 1071.9 1443.69 1073.8L1449 1085.05L1454.31 1073.8C1455.21 1071.9 1457.47 1071.09 1459.36 1071.99C1461.25 1072.88 1462.06 1075.14 1461.17 1077.03L1453.19 1093.93L1459.19 1106.63L1474.68 1073.8C1475.58 1071.9 1477.84 1071.09 1479.73 1071.99C1481.62 1072.88 1482.43 1075.14 1481.54 1077.03L1462.61 1117.13C1461.99 1118.45 1460.65 1119.3 1459.19 1119.3C1457.72 1119.3 1456.38 1118.45 1455.76 1117.13L1449 1102.81L1442.24 1117.13C1441.62 1118.45 1440.28 1119.3 1438.81 1119.3C1437.35 1119.3 1436.01 1118.45 1435.39 1117.13L1416.46 1077.03C1415.57 1075.14 1416.38 1072.88 1418.27 1071.99Z" fill="black"/>
</g>
</g>
<g id="Light-M">
<g id="Outline / Wiki Outline_16">
<path id="Shape_16" fill-rule="evenodd" clip-rule="evenodd" d="M1153 1135.92C1177.81 1135.92 1197.92 1115.81 1197.92 1091C1197.92 1066.19 1177.81 1046.08 1153 1046.08C1128.19 1046.08 1108.08 1066.19 1108.08 1091C1108.08 1115.81 1128.19 1135.92 1153 1135.92ZM1153 1143.5C1181.99 1143.5 1205.5 1119.99 1205.5 1091C1205.5 1062.01 1181.99 1038.5 1153 1038.5C1124.01 1038.5 1100.5 1062.01 1100.5 1091C1100.5 1119.99 1124.01 1143.5 1153 1143.5ZM1122.27 1071.99C1124.16 1071.09 1126.42 1071.9 1127.32 1073.8L1142.81 1106.63L1148.81 1093.93L1140.83 1077.03C1139.94 1075.14 1140.75 1072.88 1142.64 1071.99C1144.53 1071.09 1146.79 1071.9 1147.69 1073.8L1153 1085.05L1158.31 1073.8C1159.21 1071.9 1161.47 1071.09 1163.36 1071.99C1165.25 1072.88 1166.06 1075.14 1165.17 1077.03L1157.19 1093.93L1163.19 1106.63L1178.68 1073.8C1179.58 1071.9 1181.84 1071.09 1183.73 1071.99C1185.62 1072.88 1186.43 1075.14 1185.54 1077.03L1166.61 1117.13C1165.99 1118.45 1164.65 1119.3 1163.19 1119.3C1161.72 1119.3 1160.38 1118.45 1159.76 1117.13L1153 1102.81L1146.24 1117.13C1145.62 1118.45 1144.28 1119.3 1142.81 1119.3C1141.35 1119.3 1140.01 1118.45 1139.39 1117.13L1120.46 1077.03C1119.57 1075.14 1120.38 1072.88 1122.27 1071.99Z" fill="black"/>
</g>
</g>
<g id="Thin-M">
<g id="Outline / Wiki Outline_17">
<path id="Shape_17" fill-rule="evenodd" clip-rule="evenodd" d="M857 1135.92C881.807 1135.92 901.917 1115.81 901.917 1091C901.917 1066.19 881.807 1046.08 857 1046.08C832.193 1046.08 812.083 1066.19 812.083 1091C812.083 1115.81 832.193 1135.92 857 1135.92ZM857 1143.5C885.995 1143.5 909.5 1119.99 909.5 1091C909.5 1062.01 885.995 1038.5 857 1038.5C828.005 1038.5 804.5 1062.01 804.5 1091C804.5 1119.99 828.005 1143.5 857 1143.5ZM826.27 1071.99C828.163 1071.09 830.423 1071.9 831.317 1073.8L846.815 1106.63L852.807 1093.93L844.83 1077.03C843.936 1075.14 844.746 1072.88 846.64 1071.99C848.534 1071.09 850.793 1071.9 851.687 1073.8L857 1085.05L862.312 1073.8C863.206 1071.9 865.466 1071.09 867.36 1071.99C869.253 1072.88 870.064 1075.14 869.17 1077.03L861.193 1093.93L867.185 1106.63L882.683 1073.8C883.577 1071.9 885.837 1071.09 887.73 1071.99C889.624 1072.88 890.434 1075.14 889.54 1077.03L870.614 1117.13C869.988 1118.45 868.652 1119.3 867.185 1119.3C865.718 1119.3 864.383 1118.45 863.756 1117.13L857 1102.81L850.243 1117.13C849.617 1118.45 848.282 1119.3 846.815 1119.3C845.348 1119.3 844.012 1118.45 843.386 1117.13L824.459 1077.03C823.565 1075.14 824.376 1072.88 826.27 1071.99Z" fill="black"/>
</g>
</g>
<g id="Ultralight-M">
<g id="Outline / Wiki Outline_18">
<path id="Shape_18" fill-rule="evenodd" clip-rule="evenodd" d="M561 1135.92C585.807 1135.92 605.917 1115.81 605.917 1091C605.917 1066.19 585.807 1046.08 561 1046.08C536.193 1046.08 516.083 1066.19 516.083 1091C516.083 1115.81 536.193 1135.92 561 1135.92ZM561 1143.5C589.995 1143.5 613.5 1119.99 613.5 1091C613.5 1062.01 589.995 1038.5 561 1038.5C532.005 1038.5 508.5 1062.01 508.5 1091C508.5 1119.99 532.005 1143.5 561 1143.5ZM530.27 1071.99C532.163 1071.09 534.423 1071.9 535.317 1073.8L550.815 1106.63L556.807 1093.93L548.83 1077.03C547.936 1075.14 548.746 1072.88 550.64 1071.99C552.534 1071.09 554.793 1071.9 555.687 1073.8L561 1085.05L566.312 1073.8C567.206 1071.9 569.466 1071.09 571.36 1071.99C573.253 1072.88 574.064 1075.14 573.17 1077.03L565.193 1093.93L571.185 1106.63L586.683 1073.8C587.577 1071.9 589.837 1071.09 591.73 1071.99C593.624 1072.88 594.434 1075.14 593.54 1077.03L574.614 1117.13C573.988 1118.45 572.652 1119.3 571.185 1119.3C569.718 1119.3 568.383 1118.45 567.756 1117.13L561 1102.81L554.243 1117.13C553.617 1118.45 552.282 1119.3 550.815 1119.3C549.348 1119.3 548.012 1118.45 547.386 1117.13L528.459 1077.03C527.565 1075.14 528.376 1072.88 530.27 1071.99Z" fill="black"/>
</g>
</g>
<g id="Black-S">
<g id="Outline / Wiki Outline_19">
<path id="Shape_19" fill-rule="evenodd" clip-rule="evenodd" d="M2929 693.083C2946.72 693.083 2961.08 678.719 2961.08 661C2961.08 643.281 2946.72 628.917 2929 628.917C2911.28 628.917 2896.92 643.281 2896.92 661C2896.92 678.719 2911.28 693.083 2929 693.083ZM2929 698.5C2949.71 698.5 2966.5 681.711 2966.5 661C2966.5 640.289 2949.71 623.5 2929 623.5C2908.29 623.5 2891.5 640.289 2891.5 661C2891.5 681.711 2908.29 698.5 2929 698.5ZM2907.05 647.419C2908.4 646.78 2910.02 647.359 2910.65 648.712L2921.72 672.161L2926 663.094L2920.31 651.024C2919.67 649.671 2920.25 648.057 2921.6 647.419C2922.95 646.78 2924.57 647.359 2925.21 648.712L2929 656.75L2932.79 648.712C2933.43 647.359 2935.05 646.78 2936.4 647.419C2937.75 648.057 2938.33 649.671 2937.69 651.024L2931.99 663.094L2936.28 672.161L2947.34 648.712C2947.98 647.359 2949.6 646.78 2950.95 647.419C2952.3 648.057 2952.88 649.671 2952.24 651.024L2938.72 679.662C2938.28 680.609 2937.32 681.214 2936.28 681.214C2935.23 681.214 2934.27 680.609 2933.83 679.662L2929 669.439L2924.17 679.662C2923.73 680.609 2922.77 681.214 2921.72 681.214C2920.68 681.214 2919.72 680.609 2919.28 679.662L2905.76 651.024C2905.12 649.671 2905.7 648.057 2907.05 647.419Z" fill="black"/>
</g>
</g>
<g id="Heavy-S">
<g id="Outline / Wiki Outline_20">
<path id="Shape_20" fill-rule="evenodd" clip-rule="evenodd" d="M2633 693.083C2650.72 693.083 2665.08 678.719 2665.08 661C2665.08 643.281 2650.72 628.917 2633 628.917C2615.28 628.917 2600.92 643.281 2600.92 661C2600.92 678.719 2615.28 693.083 2633 693.083ZM2633 698.5C2653.71 698.5 2670.5 681.711 2670.5 661C2670.5 640.289 2653.71 623.5 2633 623.5C2612.29 623.5 2595.5 640.289 2595.5 661C2595.5 681.711 2612.29 698.5 2633 698.5ZM2611.05 647.419C2612.4 646.78 2614.02 647.359 2614.65 648.712L2625.72 672.161L2630 663.094L2624.31 651.024C2623.67 649.671 2624.25 648.057 2625.6 647.419C2626.95 646.78 2628.57 647.359 2629.21 648.712L2633 656.75L2636.79 648.712C2637.43 647.359 2639.05 646.78 2640.4 647.419C2641.75 648.057 2642.33 649.671 2641.69 651.024L2635.99 663.094L2640.28 672.161L2651.34 648.712C2651.98 647.359 2653.6 646.78 2654.95 647.419C2656.3 648.057 2656.88 649.671 2656.24 651.024L2642.72 679.662C2642.28 680.609 2641.32 681.214 2640.28 681.214C2639.23 681.214 2638.27 680.609 2637.83 679.662L2633 669.439L2628.17 679.662C2627.73 680.609 2626.77 681.214 2625.72 681.214C2624.68 681.214 2623.72 680.609 2623.28 679.662L2609.76 651.024C2609.12 649.671 2609.7 648.057 2611.05 647.419Z" fill="black"/>
</g>
</g>
<g id="Bold-S">
<g id="Outline / Wiki Outline_21">
<path id="Shape_21" fill-rule="evenodd" clip-rule="evenodd" d="M2337 693.083C2354.72 693.083 2369.08 678.719 2369.08 661C2369.08 643.281 2354.72 628.917 2337 628.917C2319.28 628.917 2304.92 643.281 2304.92 661C2304.92 678.719 2319.28 693.083 2337 693.083ZM2337 698.5C2357.71 698.5 2374.5 681.711 2374.5 661C2374.5 640.289 2357.71 623.5 2337 623.5C2316.29 623.5 2299.5 640.289 2299.5 661C2299.5 681.711 2316.29 698.5 2337 698.5ZM2315.05 647.419C2316.4 646.78 2318.02 647.359 2318.65 648.712L2329.72 672.161L2334 663.094L2328.31 651.024C2327.67 649.671 2328.25 648.057 2329.6 647.419C2330.95 646.78 2332.57 647.359 2333.21 648.712L2337 656.75L2340.79 648.712C2341.43 647.359 2343.05 646.78 2344.4 647.419C2345.75 648.057 2346.33 649.671 2345.69 651.024L2339.99 663.094L2344.28 672.161L2355.34 648.712C2355.98 647.359 2357.6 646.78 2358.95 647.419C2360.3 648.057 2360.88 649.671 2360.24 651.024L2346.72 679.662C2346.28 680.609 2345.32 681.214 2344.28 681.214C2343.23 681.214 2342.27 680.609 2341.83 679.662L2337 669.439L2332.17 679.662C2331.73 680.609 2330.77 681.214 2329.72 681.214C2328.68 681.214 2327.72 680.609 2327.28 679.662L2313.76 651.024C2313.12 649.671 2313.7 648.057 2315.05 647.419Z" fill="black"/>
</g>
</g>
<g id="Semibold-S">
<g id="Outline / Wiki Outline_22">
<path id="Shape_22" fill-rule="evenodd" clip-rule="evenodd" d="M2041 693.083C2058.72 693.083 2073.08 678.719 2073.08 661C2073.08 643.281 2058.72 628.917 2041 628.917C2023.28 628.917 2008.92 643.281 2008.92 661C2008.92 678.719 2023.28 693.083 2041 693.083ZM2041 698.5C2061.71 698.5 2078.5 681.711 2078.5 661C2078.5 640.289 2061.71 623.5 2041 623.5C2020.29 623.5 2003.5 640.289 2003.5 661C2003.5 681.711 2020.29 698.5 2041 698.5ZM2019.05 647.419C2020.4 646.78 2022.02 647.359 2022.65 648.712L2033.72 672.161L2038 663.094L2032.31 651.024C2031.67 649.671 2032.25 648.057 2033.6 647.419C2034.95 646.78 2036.57 647.359 2037.21 648.712L2041 656.75L2044.79 648.712C2045.43 647.359 2047.05 646.78 2048.4 647.419C2049.75 648.057 2050.33 649.671 2049.69 651.024L2043.99 663.094L2048.28 672.161L2059.34 648.712C2059.98 647.359 2061.6 646.78 2062.95 647.419C2064.3 648.057 2064.88 649.671 2064.24 651.024L2050.72 679.662C2050.28 680.609 2049.32 681.214 2048.28 681.214C2047.23 681.214 2046.27 680.609 2045.83 679.662L2041 669.439L2036.17 679.662C2035.73 680.609 2034.77 681.214 2033.72 681.214C2032.68 681.214 2031.72 680.609 2031.28 679.662L2017.76 651.024C2017.12 649.671 2017.7 648.057 2019.05 647.419Z" fill="black"/>
</g>
</g>
<g id="Medium-S">
<g id="Outline / Wiki Outline_23">
<path id="Shape_23" fill-rule="evenodd" clip-rule="evenodd" d="M1745 693.083C1762.72 693.083 1777.08 678.719 1777.08 661C1777.08 643.281 1762.72 628.917 1745 628.917C1727.28 628.917 1712.92 643.281 1712.92 661C1712.92 678.719 1727.28 693.083 1745 693.083ZM1745 698.5C1765.71 698.5 1782.5 681.711 1782.5 661C1782.5 640.289 1765.71 623.5 1745 623.5C1724.29 623.5 1707.5 640.289 1707.5 661C1707.5 681.711 1724.29 698.5 1745 698.5ZM1723.05 647.419C1724.4 646.78 1726.02 647.359 1726.65 648.712L1737.72 672.161L1742 663.094L1736.31 651.024C1735.67 649.671 1736.25 648.057 1737.6 647.419C1738.95 646.78 1740.57 647.359 1741.21 648.712L1745 656.75L1748.79 648.712C1749.43 647.359 1751.05 646.78 1752.4 647.419C1753.75 648.057 1754.33 649.671 1753.69 651.024L1747.99 663.094L1752.28 672.161L1763.34 648.712C1763.98 647.359 1765.6 646.78 1766.95 647.419C1768.3 648.057 1768.88 649.671 1768.24 651.024L1754.72 679.662C1754.28 680.609 1753.32 681.214 1752.28 681.214C1751.23 681.214 1750.27 680.609 1749.83 679.662L1745 669.439L1740.17 679.662C1739.73 680.609 1738.77 681.214 1737.72 681.214C1736.68 681.214 1735.72 680.609 1735.28 679.662L1721.76 651.024C1721.12 649.671 1721.7 648.057 1723.05 647.419Z" fill="black"/>
</g>
</g>
<g id="Regular-S">
<g id="Outline / Wiki Outline_24">
<path id="Shape_24" fill-rule="evenodd" clip-rule="evenodd" d="M1449 693.083C1466.72 693.083 1481.08 678.719 1481.08 661C1481.08 643.281 1466.72 628.917 1449 628.917C1431.28 628.917 1416.92 643.281 1416.92 661C1416.92 678.719 1431.28 693.083 1449 693.083ZM1449 698.5C1469.71 698.5 1486.5 681.711 1486.5 661C1486.5 640.289 1469.71 623.5 1449 623.5C1428.29 623.5 1411.5 640.289 1411.5 661C1411.5 681.711 1428.29 698.5 1449 698.5ZM1427.05 647.419C1428.4 646.78 1430.02 647.359 1430.65 648.712L1441.72 672.161L1446 663.094L1440.31 651.024C1439.67 649.671 1440.25 648.057 1441.6 647.419C1442.95 646.78 1444.57 647.359 1445.21 648.712L1449 656.75L1452.79 648.712C1453.43 647.359 1455.05 646.78 1456.4 647.419C1457.75 648.057 1458.33 649.671 1457.69 651.024L1451.99 663.094L1456.28 672.161L1467.34 648.712C1467.98 647.359 1469.6 646.78 1470.95 647.419C1472.3 648.057 1472.88 649.671 1472.24 651.024L1458.72 679.662C1458.28 680.609 1457.32 681.214 1456.28 681.214C1455.23 681.214 1454.27 680.609 1453.83 679.662L1449 669.439L1444.17 679.662C1443.73 680.609 1442.77 681.214 1441.72 681.214C1440.68 681.214 1439.72 680.609 1439.28 679.662L1425.76 651.024C1425.12 649.671 1425.7 648.057 1427.05 647.419Z" fill="black"/>
</g>
</g>
<g id="Light-S">
<g id="Outline / Wiki Outline_25">
<path id="Shape_25" fill-rule="evenodd" clip-rule="evenodd" d="M1153 693.083C1170.72 693.083 1185.08 678.719 1185.08 661C1185.08 643.281 1170.72 628.917 1153 628.917C1135.28 628.917 1120.92 643.281 1120.92 661C1120.92 678.719 1135.28 693.083 1153 693.083ZM1153 698.5C1173.71 698.5 1190.5 681.711 1190.5 661C1190.5 640.289 1173.71 623.5 1153 623.5C1132.29 623.5 1115.5 640.289 1115.5 661C1115.5 681.711 1132.29 698.5 1153 698.5ZM1131.05 647.419C1132.4 646.78 1134.02 647.359 1134.65 648.712L1145.72 672.161L1150 663.094L1144.31 651.024C1143.67 649.671 1144.25 648.057 1145.6 647.419C1146.95 646.78 1148.57 647.359 1149.21 648.712L1153 656.75L1156.79 648.712C1157.43 647.359 1159.05 646.78 1160.4 647.419C1161.75 648.057 1162.33 649.671 1161.69 651.024L1155.99 663.094L1160.28 672.161L1171.34 648.712C1171.98 647.359 1173.6 646.78 1174.95 647.419C1176.3 648.057 1176.88 649.671 1176.24 651.024L1162.72 679.662C1162.28 680.609 1161.32 681.214 1160.28 681.214C1159.23 681.214 1158.27 680.609 1157.83 679.662L1153 669.439L1148.17 679.662C1147.73 680.609 1146.77 681.214 1145.72 681.214C1144.68 681.214 1143.72 680.609 1143.28 679.662L1129.76 651.024C1129.12 649.671 1129.7 648.057 1131.05 647.419Z" fill="black"/>
</g>
</g>
<g id="Thin-S">
<g id="Outline / Wiki Outline_26">
<path id="Shape_26" fill-rule="evenodd" clip-rule="evenodd" d="M857 693.083C874.719 693.083 889.083 678.719 889.083 661C889.083 643.281 874.719 628.917 857 628.917C839.281 628.917 824.917 643.281 824.917 661C824.917 678.719 839.281 693.083 857 693.083ZM857 698.5C877.711 698.5 894.5 681.711 894.5 661C894.5 640.289 877.711 623.5 857 623.5C836.289 623.5 819.5 640.289 819.5 661C819.5 681.711 836.289 698.5 857 698.5ZM835.05 647.419C836.402 646.78 838.016 647.359 838.655 648.712L849.725 672.161L854.005 663.094L848.307 651.024C847.668 649.671 848.247 648.057 849.6 647.419C850.953 646.78 852.567 647.359 853.205 648.712L857 656.75L860.795 648.712C861.433 647.359 863.047 646.78 864.4 647.419C865.752 648.057 866.331 649.671 865.693 651.024L859.995 663.094L864.275 672.161L875.345 648.712C875.983 647.359 877.598 646.78 878.95 647.419C880.303 648.057 880.882 649.671 880.243 651.024L866.724 679.662C866.277 680.609 865.323 681.214 864.275 681.214C863.227 681.214 862.273 680.609 861.826 679.662L857 669.439L852.174 679.662C851.727 680.609 850.773 681.214 849.725 681.214C848.677 681.214 847.723 680.609 847.276 679.662L833.757 651.024C833.118 649.671 833.697 648.057 835.05 647.419Z" fill="black"/>
</g>
</g>
<g id="Ultralight-S">
<g id="Outline / Wiki Outline_27">
<path id="Shape_27" fill-rule="evenodd" clip-rule="evenodd" d="M561 693.083C578.719 693.083 593.083 678.719 593.083 661C593.083 643.281 578.719 628.917 561 628.917C543.281 628.917 528.917 643.281 528.917 661C528.917 678.719 543.281 693.083 561 693.083ZM561 698.5C581.711 698.5 598.5 681.711 598.5 661C598.5 640.289 581.711 623.5 561 623.5C540.289 623.5 523.5 640.289 523.5 661C523.5 681.711 540.289 698.5 561 698.5ZM539.05 647.419C540.402 646.78 542.016 647.359 542.655 648.712L553.725 672.161L558.005 663.094L552.307 651.024C551.668 649.671 552.247 648.057 553.6 647.419C554.953 646.78 556.567 647.359 557.205 648.712L561 656.75L564.795 648.712C565.433 647.359 567.047 646.78 568.4 647.419C569.752 648.057 570.331 649.671 569.693 651.024L563.995 663.094L568.275 672.161L579.345 648.712C579.983 647.359 581.598 646.78 582.95 647.419C584.303 648.057 584.882 649.671 584.243 651.024L570.724 679.662C570.277 680.609 569.323 681.214 568.275 681.214C567.227 681.214 566.273 680.609 565.826 679.662L561 669.439L556.174 679.662C555.727 680.609 554.773 681.214 553.725 681.214C552.677 681.214 551.723 680.609 551.276 679.662L537.757 651.024C537.118 649.671 537.697 648.057 539.05 647.419Z" fill="black"/>
</g>
</g>
</g>
</g>
<defs>
<clipPath id="clip0_0_1">
<rect width="3300" height="2200" fill="white"/>
</clipPath>
</defs>
</svg>
