<svg xmlns="http://www.w3.org/2000/svg" width="3300" height="2200" fill="none"><path fill="#E5E5E5" d="M0 0h3300v2200H0z"/><g id="Category / Solid / Study" clip-path="url(#clip0_0_1)"><g id="Notes"><path id="artboard" fill="#fff" d="M3300 0H0v2200h3300V0Z"/><path id="Vector" stroke="#000" stroke-width=".5" d="M263 292h2773"/><text xml:space="preserve" id="Weight/Scale Variations" fill="#000" font-family="Roboto" font-size="12" letter-spacing="0em" style="white-space:pre"><tspan x="263" y="321.102">Weight/Scale Variations</tspan></text><text xml:space="preserve" id="Ultralight" fill="#000" font-family="Roboto" font-size="12" letter-spacing="0em" style="white-space:pre"><tspan x="535.211" y="321.102">Ultralight</tspan></text><text xml:space="preserve" id="Thin" fill="#000" font-family="Roboto" font-size="12" letter-spacing="0em" style="white-space:pre"><tspan x="844.422" y="321.102">Thin</tspan></text><text xml:space="preserve" id="Light" fill="#000" font-family="Roboto" font-size="12" letter-spacing="0em" style="white-space:pre"><tspan x="1139.63" y="321.102">Light</tspan></text><text xml:space="preserve" id="Regular" fill="#000" font-family="Roboto" font-size="12" letter-spacing="0em" style="white-space:pre"><tspan x="1429.34" y="321.102">Regular</tspan></text><text xml:space="preserve" id="Medium" fill="#000" font-family="Roboto" font-size="12" letter-spacing="0em" style="white-space:pre"><tspan x="1724.56" y="321.102">Medium</tspan></text><text xml:space="preserve" id="Semibold" fill="#000" font-family="Roboto" font-size="12" letter-spacing="0em" style="white-space:pre"><tspan x="2017.77" y="321.102">Semibold</tspan></text><text xml:space="preserve" id="Bold" fill="#000" font-family="Roboto" font-size="12" letter-spacing="0em" style="white-space:pre"><tspan x="2327.48" y="321.102">Bold</tspan></text><text xml:space="preserve" id="Heavy" fill="#000" font-family="Roboto" font-size="12" letter-spacing="0em" style="white-space:pre"><tspan x="2620.19" y="321.102">Heavy</tspan></text><text xml:space="preserve" id="Black" fill="#000" font-family="Roboto" font-size="12" letter-spacing="0em" style="white-space:pre"><tspan x="2918.4" y="321.102">Black</tspan></text><path id="Vector_2" stroke="#000" stroke-width=".5" d="M263 1903h2773"/><g id="Group"><path id="Vector_3" fill="#000" d="M272.248 1933.83c4.307 0 7.891-3.57 7.891-7.88 0-4.31-3.594-7.88-7.901-7.88-4.297 0-7.871 3.57-7.871 7.88 0 4.31 3.584 7.88 7.881 7.88Zm0-1.48c-3.545 0-6.377-2.84-6.377-6.4 0-3.55 2.822-6.4 6.367-6.4a6.388 6.388 0 0 1 6.406 6.4 6.361 6.361 0 0 1-6.396 6.4Zm-.019-2.78c.468 0 .742-.31.742-.83v-2.06h2.226c.498 0 .84-.25.84-.72 0-.48-.322-.74-.84-.74h-2.226v-2.23c0-.52-.274-.84-.742-.84-.469 0-.723.34-.723.84v2.23h-2.207c-.518 0-.85.26-.85.74 0 .47.352.72.85.72h2.207v2.06c0 .5.254.83.723.83Z"/></g><g id="Group_2"><path id="Vector_4" fill="#000" d="M293.215 1935.91c5.449 0 9.961-4.51 9.961-9.96 0-5.44-4.522-9.96-9.971-9.96-5.439 0-9.951 4.52-9.951 9.96 0 5.45 4.521 9.96 9.961 9.96Zm0-1.66a8.26 8.26 0 0 1-8.291-8.3c0-4.6 3.672-8.3 8.281-8.3a8.29 8.29 0 0 1 8.311 8.3 8.263 8.263 0 0 1-8.301 8.3Zm-.02-3.66c.518 0 .83-.36.83-.93v-2.89h3.057c.547 0 .928-.28.928-.8 0-.53-.362-.83-.928-.83h-3.057v-3.07c0-.57-.312-.93-.83-.93-.517 0-.81.38-.81.93v3.07h-3.047c-.567 0-.938.3-.938.83 0 .52.391.8.938.8h3.047v2.89c0 .55.293.93.81.93Z"/></g><g id="Group_3"><path id="Vector_5" fill="#000" d="M319.895 1938.67c6.962 0 12.724-5.75 12.724-12.71 0-6.97-5.771-12.72-12.734-12.72-6.953 0-12.705 5.75-12.705 12.72 0 6.96 5.761 12.71 12.715 12.71Zm0-1.81a10.874 10.874 0 0 1-10.889-10.9c0-6.04 4.844-10.9 10.879-10.9 6.045 0 10.898 4.86 10.908 10.9a10.87 10.87 0 0 1-10.898 10.9Zm-.02-4.93c.566 0 .918-.39.918-.99v-4.07h4.238c.586 0 1.006-.34 1.006-.89 0-.58-.39-.92-1.006-.92h-4.238v-4.25c0-.61-.352-1.01-.918-1.01-.566 0-.889.41-.889 1.01v4.25h-4.228c-.615 0-1.026.34-1.026.92 0 .55.43.89 1.026.89h4.228v4.07c0 .58.323.99.889.99Z"/></g><text xml:space="preserve" id="Design Variations" fill="#000" font-family="Roboto" font-size="12" letter-spacing="0em" style="white-space:pre"><tspan x="263" y="1952.1">Design Variations</tspan></text><text xml:space="preserve" id="Symbols are supported in up to nine weights and three scales." fill="#000" font-family="Roboto" font-size="12" letter-spacing="0em" style="white-space:pre"><tspan x="263" y="1970.1">Symbols are supported in up to nine weights and three scales.</tspan></text><text xml:space="preserve" id="For optimal layout with text and other symbols, vertically align" fill="#000" font-family="Roboto" font-size="12" letter-spacing="0em" style="white-space:pre"><tspan x="263" y="1988.1">For optimal layout with text and other symbols, vertically align</tspan></text><text xml:space="preserve" id="symbols with the adjacent text." fill="#000" font-family="Roboto" font-size="12" letter-spacing="0em" style="white-space:pre"><tspan x="263" y="2006.1">symbols with the adjacent text.</tspan></text><path id="Vector_6" fill="#00AEEF" d="M779 1919h-3v14h3v-14Z" opacity=".4"/><g id="Group_4"><path id="Vector_7" fill="#000" d="M789.527 1933h1.846l-5.195-14.09h-1.739l-5.195 14.09h1.846l1.416-4.04h5.605l1.416 4.04Zm-4.248-11.96h.059l2.256 6.43h-4.571l2.256-6.43Z"/></g><path id="Vector_8" fill="#00AEEF" d="M794.617 1919h-3v14h3v-14Z" opacity=".4"/><text xml:space="preserve" id="Margins" fill="#000" font-family="Roboto" font-size="12" letter-spacing="0em" style="white-space:pre"><tspan x="776" y="1952.1">Margins</tspan></text><text xml:space="preserve" id="Leading and trailing margins on the left and right side of each symbol" fill="#000" font-family="Roboto" font-size="12" letter-spacing="0em" style="white-space:pre"><tspan x="776" y="1970.1">Leading and trailing margins on the left and right side of each symbol</tspan></text><text xml:space="preserve" id="can be adjusted by modifying the width of the blue rectangles." fill="#000" font-family="Roboto" font-size="12" letter-spacing="0em" style="white-space:pre"><tspan x="776" y="1988.1">can be adjusted by modifying the width of the blue rectangles.</tspan></text><text xml:space="preserve" id="Modifications are automatically applied proportionally to all" fill="#000" font-family="Roboto" font-size="12" letter-spacing="0em" style="white-space:pre"><tspan x="776" y="2006.1">Modifications are automatically applied proportionally to all</tspan></text><text xml:space="preserve" id="scales and weights." fill="#000" font-family="Roboto" font-size="12" letter-spacing="0em" style="white-space:pre"><tspan x="776" y="2024.1">scales and weights.</tspan></text><g id="Group_5"><path id="Vector_9" fill="#000" d="m1291.83 1936.11 1.55 1.55c.84.83 1.81.76 2.68-.2l10.22-11.12c.43.29.82.28 1.28.18l1.05-.21.69.69-.05.52c-.06.53.1.95.6 1.45l.81.81c.51.5 1.16.53 1.64.05l3.25-3.25c.48-.48.46-1.13-.05-1.64l-.82-.82c-.49-.5-.9-.67-1.44-.59l-.53.05-.65-.66.28-1.14c.15-.57 0-1.04-.63-1.64l-2.41-2.39c-3.54-3.53-8.07-3.42-11.19-.29-.42.43-.47 1.02-.19 1.45.23.37.71.59 1.35.43 1.52-.38 3.03-.27 4.52.74l-.63 1.58c-.23.59-.21 1.07.02 1.5l-11.16 10.28c-.94.87-1.05 1.81-.19 2.67Zm7.84-18.26c2.67-1.99 5.98-1.68 8.38.73l2.63 2.61c.23.24.26.42.2.72l-.38 1.56 1.58 1.57.96-.09c.29-.03.37-.01.6.22l.62.62-2.75 2.75-.63-.62c-.22-.22-.24-.32-.21-.6l.09-.96-1.56-1.56-1.63.31c-.28.06-.43.06-.66-.19l-2.18-2.17c-.22-.24-.25-.38-.12-.7l.94-2.27c-1.6-1.54-3.71-2.39-5.75-1.73-.09.03-.16.01-.18-.03-.03-.05-.03-.1.05-.17Zm-6.57 17.56c-.49-.5-.31-.8.02-1.1l10.96-10.12 1.23 1.23-10.16 10.93c-.3.33-.68.43-1.08.03l-.97-.97Z"/></g><text xml:space="preserve" id="Exporting" fill="#000" font-family="Roboto" font-size="12" letter-spacing="0em" style="white-space:pre"><tspan x="1289" y="1952.1">Exporting</tspan></text><text xml:space="preserve" id="Symbols should be outlined when exporting to ensure the" fill="#000" font-family="Roboto" font-size="12" letter-spacing="0em" style="white-space:pre"><tspan x="1289" y="1970.1">Symbols should be outlined when exporting to ensure the</tspan></text><text xml:space="preserve" id="design is preserved when submitting to Xcode." fill="#000" font-family="Roboto" font-size="12" letter-spacing="0em" style="white-space:pre"><tspan x="1289" y="1988.1">design is preserved when submitting to Xcode.</tspan></text><text xml:space="preserve" id="template-version" fill="#000" font-family="Roboto" font-size="12" letter-spacing="0em" style="white-space:pre"><tspan x="2958" y="1932.1">Template v.1.0</tspan></text><text xml:space="preserve" id="Generated from pencil.circle" fill="#000" font-family="Roboto" font-size="12" letter-spacing="0em" style="white-space:pre"><tspan x="2885" y="1950.1">Generated from pencil.circle</tspan></text><text xml:space="preserve" id="Typeset at 100 points" fill="#000" font-family="Roboto" font-size="12" letter-spacing="0em" style="white-space:pre"><tspan x="2921" y="1968.1">Typeset at 100 points</tspan></text><text xml:space="preserve" id="Small" fill="#000" font-family="Roboto" font-size="12" letter-spacing="0em" style="white-space:pre"><tspan x="263" y="725.102">Small</tspan></text><text xml:space="preserve" id="Medium_2" fill="#000" font-family="Roboto" font-size="12" letter-spacing="0em" style="white-space:pre"><tspan x="263" y="1155.1">Medium</tspan></text><text xml:space="preserve" id="Large" fill="#000" font-family="Roboto" font-size="12" letter-spacing="0em" style="white-space:pre"><tspan x="263" y="1585.1">Large</tspan></text></g><g id="Guides"><g id="H-reference"><path id="Vector_10" fill="#27AAE1" d="M393.932 695.998h2.734l-27.1-70.459h-2.49l-27.099 70.459h2.685l9.278-24.463h32.763l9.229 24.463Zm-25.733-67.09h.244l15.381 40.381h-31.006l15.381-40.381Z"/></g><path id="Baseline-S" stroke="#27AAE1" stroke-width=".577" d="M263 696h2773"/><path id="Capline-S" stroke="#27AAE1" stroke-width=".577" d="M263 626h2773"/><g id="H-reference_2"><path id="Vector_11" fill="#27AAE1" d="M393.932 1126h2.734l-27.1-70.46h-2.49L339.977 1126h2.685l9.278-24.46h32.763l9.229 24.46Zm-25.733-67.09h.244l15.381 40.38h-31.006l15.381-40.38Z"/></g><path id="Baseline-M" stroke="#27AAE1" stroke-width=".577" d="M263 1126h2773"/><path id="Capline-M" stroke="#27AAE1" stroke-width=".577" d="M263 1056h2773"/><g id="H-reference_3"><path id="Vector_12" fill="#27AAE1" d="M393.932 1556h2.734l-27.1-70.46h-2.49L339.977 1556h2.685l9.278-24.46h32.763l9.229 24.46Zm-25.733-67.09h.244l15.381 40.38h-31.006l15.381-40.38Z"/></g><g id="Group 1" stroke="#27AAE1" stroke-width=".577"><path id="Baseline-L" d="M263 1556h2773"/><path id="Capline-L" d="M263 1486h2773"/></g><path id="left-margin" fill="#00AEEF" d="M1390.04 1030.79h-8.74v119.33h8.74v-119.33Z" opacity=".4"/><path id="right-margin" fill="#00AEEF" d="M1516.39 1030.79h-8.74v119.33h8.74v-119.33Z" opacity=".4"/></g><g id="Symbols"><g id="Black-L"><g id="Solid / Study Solid"><g id="Shape" fill="#000"><path d="M2859.38 1507.79c-7.01-3.59-7.08-13.59-.12-17.28l59.19-31.42c6.6-3.5 14.5-3.5 21.1 0l59.19 31.42c2.85 1.51 4.53 4.08 5.02 6.83.16.48.24.98.24 1.51l.21 47.24a4.87 4.87 0 0 1-4.87 4.87c-2.69 0-4.88-2.18-4.88-4.87l-.16-36.08-55.03 28.21a22.464 22.464 0 0 1-20.53 0l-59.36-30.43Z"/><path d="M2878.98 1532.48c0-1.68 1.78-2.77 3.27-2l32.04 16.42a32.232 32.232 0 0 0 29.43 0l31.73-16.27c1.5-.77 3.28.32 3.28 2v17.35c0 6.78-3.01 13.21-8.21 17.56-24.12 20.18-59.22 20.18-83.34 0-5.2-4.35-8.2-10.78-8.2-17.56v-17.5Z"/></g></g></g><g id="Heavy-L"><g id="Solid / Study Solid_2"><g id="Shape_2" fill="#000"><path d="M2563.38 1507.79c-7.01-3.59-7.08-13.59-.12-17.28l59.19-31.42c6.6-3.5 14.5-3.5 21.1 0l59.19 31.42c2.85 1.51 4.53 4.08 5.02 6.83.16.48.24.98.24 1.51l.21 47.24a4.87 4.87 0 0 1-4.87 4.87c-2.69 0-4.88-2.18-4.88-4.87l-.16-36.08-55.03 28.21a22.464 22.464 0 0 1-20.53 0l-59.36-30.43Z"/><path d="M2582.98 1532.48c0-1.68 1.78-2.77 3.27-2l32.04 16.42a32.232 32.232 0 0 0 29.43 0l31.73-16.27c1.5-.77 3.28.32 3.28 2v17.35c0 6.78-3.01 13.21-8.21 17.56-24.12 20.18-59.22 20.18-83.34 0-5.2-4.35-8.2-10.78-8.2-17.56v-17.5Z"/></g></g></g><g id="Bold-L"><g id="Solid / Study Solid_3"><g id="Shape_3" fill="#000"><path d="M2267.38 1507.79c-7.01-3.59-7.08-13.59-.12-17.28l59.19-31.42c6.6-3.5 14.5-3.5 21.1 0l59.19 31.42c2.85 1.51 4.53 4.08 5.02 6.83.16.48.24.98.24 1.51l.21 47.24a4.87 4.87 0 0 1-4.87 4.87c-2.69 0-4.88-2.18-4.88-4.87l-.16-36.08-55.03 28.21a22.464 22.464 0 0 1-20.53 0l-59.36-30.43Z"/><path d="M2286.98 1532.48c0-1.68 1.78-2.77 3.27-2l32.04 16.42a32.232 32.232 0 0 0 29.43 0l31.73-16.27c1.5-.77 3.28.32 3.28 2v17.35c0 6.78-3.01 13.21-8.21 17.56-24.12 20.18-59.22 20.18-83.34 0-5.2-4.35-8.2-10.78-8.2-17.56v-17.5Z"/></g></g></g><g id="Semibold-L"><g id="Solid / Study Solid_4"><g id="Shape_4" fill="#000"><path d="M1971.38 1507.79c-7.01-3.59-7.08-13.59-.12-17.28l59.19-31.42c6.6-3.5 14.5-3.5 21.1 0l59.19 31.42c2.85 1.51 4.52 4.08 5.02 6.83.16.48.24.98.24 1.51l.21 47.24c0 2.69-2.18 4.87-4.88 4.87a4.87 4.87 0 0 1-4.87-4.87l-.16-36.08-55.04 28.21a22.464 22.464 0 0 1-20.53 0l-59.35-30.43Z"/><path d="M1990.97 1532.48c0-1.68 1.78-2.77 3.28-2l32.04 16.42a32.211 32.211 0 0 0 29.42 0l31.74-16.27c1.49-.77 3.27.32 3.27 2v17.35c0 6.78-3 13.21-8.2 17.56-24.12 20.18-59.22 20.18-83.34 0a22.898 22.898 0 0 1-8.21-17.56v-17.5Z"/></g></g></g><g id="Medium-L"><g id="Solid / Study Solid_5"><g id="Shape_5" fill="#000"><path d="M1675.38 1507.79c-7.01-3.59-7.08-13.59-.12-17.28l59.19-31.42c6.6-3.5 14.5-3.5 21.1 0l59.19 31.42c2.85 1.51 4.52 4.08 5.02 6.83.16.48.24.98.24 1.51l.21 47.24c0 2.69-2.18 4.87-4.88 4.87a4.87 4.87 0 0 1-4.87-4.87l-.16-36.08-55.04 28.21a22.464 22.464 0 0 1-20.53 0l-59.35-30.43Z"/><path d="M1694.97 1532.48c0-1.68 1.78-2.77 3.28-2l32.04 16.42a32.211 32.211 0 0 0 29.42 0l31.74-16.27c1.49-.77 3.27.32 3.27 2v17.35c0 6.78-3 13.21-8.2 17.56-24.12 20.18-59.22 20.18-83.34 0a22.898 22.898 0 0 1-8.21-17.56v-17.5Z"/></g></g></g><g id="Regular-L"><g id="Solid / Study Solid_6"><g id="Shape_6" fill="#000"><path d="M1379.38 1507.79c-7.01-3.59-7.08-13.59-.12-17.28l59.19-31.42c6.6-3.5 14.5-3.5 21.1 0l59.19 31.42c2.85 1.51 4.52 4.08 5.02 6.83.16.48.24.98.24 1.51l.21 47.24c0 2.69-2.18 4.87-4.88 4.87a4.87 4.87 0 0 1-4.87-4.87l-.16-36.08-55.04 28.21a22.464 22.464 0 0 1-20.53 0l-59.35-30.43Z"/><path d="M1398.97 1532.48c0-1.68 1.78-2.77 3.28-2l32.04 16.42a32.211 32.211 0 0 0 29.42 0l31.74-16.27c1.49-.77 3.27.32 3.27 2v17.35c0 6.78-3 13.21-8.2 17.56-24.12 20.18-59.22 20.18-83.34 0a22.898 22.898 0 0 1-8.21-17.56v-17.5Z"/></g></g></g><g id="Light-L"><g id="Solid / Study Solid_7"><g id="Shape_7" fill="#000"><path d="M1083.38 1507.79c-7.01-3.59-7.08-13.59-.12-17.28l59.19-31.42c6.6-3.5 14.5-3.5 21.1 0l59.19 31.42c2.85 1.51 4.52 4.08 5.02 6.83.16.48.24.98.24 1.51l.21 47.24c0 2.69-2.18 4.87-4.88 4.87a4.87 4.87 0 0 1-4.87-4.87l-.16-36.08-55.04 28.21a22.464 22.464 0 0 1-20.53 0l-59.35-30.43Z"/><path d="M1102.97 1532.48c0-1.68 1.78-2.77 3.28-2l32.04 16.42a32.211 32.211 0 0 0 29.42 0l31.74-16.27c1.49-.77 3.27.32 3.27 2v17.35c0 6.78-3 13.21-8.2 17.56-24.12 20.18-59.22 20.18-83.34 0a22.898 22.898 0 0 1-8.21-17.56v-17.5Z"/></g></g></g><g id="Thin-L"><g id="Solid / Study Solid_8"><g id="Shape_8" fill="#000"><path d="M787.379 1507.79c-7.013-3.59-7.084-13.59-.123-17.28l59.194-31.42a22.507 22.507 0 0 1 21.097 0l59.194 31.42c2.851 1.51 4.522 4.08 5.02 6.83.154.48.238.98.238 1.51l.211 47.24c0 2.69-2.183 4.87-4.875 4.87a4.872 4.872 0 0 1-4.875-4.87l-.161-36.08-55.035 28.21a22.466 22.466 0 0 1-20.531 0l-59.354-30.43Z"/><path d="M806.974 1532.48c0-1.68 1.779-2.77 3.276-2l32.035 16.42a32.226 32.226 0 0 0 29.427 0l31.735-16.27c1.497-.77 3.277.32 3.277 2v17.35c0 6.78-3.005 13.21-8.205 17.56-24.117 20.18-59.224 20.18-83.341 0a22.892 22.892 0 0 1-8.204-17.56v-17.5Z"/></g></g></g><g id="Ultralight-L"><g id="Solid / Study Solid_9"><g id="Shape_9" fill="#000"><path d="M491.379 1507.79c-7.013-3.59-7.084-13.59-.123-17.28l59.194-31.42a22.507 22.507 0 0 1 21.097 0l59.194 31.42c2.851 1.51 4.522 4.08 5.02 6.83.154.48.238.98.238 1.51l.211 47.24c0 2.69-2.183 4.87-4.875 4.87a4.872 4.872 0 0 1-4.875-4.87l-.161-36.08-55.035 28.21a22.466 22.466 0 0 1-20.531 0l-59.354-30.43Z"/><path d="M510.974 1532.48c0-1.68 1.779-2.77 3.276-2l32.035 16.42a32.226 32.226 0 0 0 29.427 0l31.735-16.27c1.497-.77 3.277.32 3.277 2v17.35c0 6.78-3.005 13.21-8.205 17.56-24.117 20.18-59.224 20.18-83.341 0a22.892 22.892 0 0 1-8.204-17.56v-17.5Z"/></g></g></g><g id="Black-M"><g id="Solid / Study Solid_10"><g id="Shape_10" fill="#000"><path d="M2874.85 1080.73c-5.45-2.8-5.51-10.58-.09-13.45l46.04-24.44a17.52 17.52 0 0 1 16.41 0l46.04 24.44a7.5 7.5 0 0 1 3.9 5.32c.12.37.19.76.19 1.17l.16 36.74c0 2.1-1.7 3.79-3.79 3.79-2.1 0-3.79-1.69-3.79-3.79l-.13-28.06-42.8 21.95a17.564 17.564 0 0 1-15.97 0l-46.17-23.67Z"/><path d="M2890.09 1099.93c0-1.31 1.39-2.16 2.55-1.56l24.92 12.77a25.05 25.05 0 0 0 22.89 0l24.68-12.65c1.16-.6 2.55.25 2.55 1.56v13.49c0 5.27-2.34 10.27-6.38 13.66-18.76 15.69-46.07 15.69-64.83 0a17.839 17.839 0 0 1-6.38-13.66v-13.61Z"/></g></g></g><g id="Heavy-M"><g id="Solid / Study Solid_11"><g id="Shape_11" fill="#000"><path d="M2578.85 1080.73c-5.45-2.8-5.51-10.58-.09-13.45l46.04-24.44a17.52 17.52 0 0 1 16.41 0l46.04 24.44a7.5 7.5 0 0 1 3.9 5.32c.12.37.19.76.19 1.17l.16 36.74c0 2.1-1.7 3.79-3.79 3.79-2.1 0-3.79-1.69-3.79-3.79l-.13-28.06-42.8 21.95a17.564 17.564 0 0 1-15.97 0l-46.17-23.67Z"/><path d="M2594.09 1099.93c0-1.31 1.39-2.16 2.55-1.56l24.92 12.77a25.05 25.05 0 0 0 22.89 0l24.68-12.65c1.16-.6 2.55.25 2.55 1.56v13.49c0 5.27-2.34 10.27-6.38 13.66-18.76 15.69-46.07 15.69-64.83 0a17.839 17.839 0 0 1-6.38-13.66v-13.61Z"/></g></g></g><g id="Bold-M"><g id="Solid / Study Solid_12"><g id="Shape_12" fill="#000"><path d="M2282.85 1080.73c-5.45-2.8-5.51-10.58-.09-13.45l46.04-24.44a17.52 17.52 0 0 1 16.41 0l46.04 24.44a7.5 7.5 0 0 1 3.9 5.32c.12.37.19.76.19 1.17l.16 36.74c0 2.1-1.7 3.79-3.79 3.79-2.1 0-3.79-1.69-3.79-3.79l-.13-28.06-42.8 21.95a17.564 17.564 0 0 1-15.97 0l-46.17-23.67Z"/><path d="M2298.09 1099.93c0-1.31 1.39-2.16 2.55-1.56l24.92 12.77a25.05 25.05 0 0 0 22.89 0l24.68-12.65c1.16-.6 2.55.25 2.55 1.56v13.49c0 5.27-2.34 10.27-6.38 13.66-18.76 15.69-46.07 15.69-64.83 0a17.839 17.839 0 0 1-6.38-13.66v-13.61Z"/></g></g></g><g id="Semibold-M"><g id="Solid / Study Solid_13"><g id="Shape_13" fill="#000"><path d="M1986.85 1080.73c-5.45-2.8-5.51-10.58-.1-13.45l46.04-24.44a17.52 17.52 0 0 1 16.41 0l46.04 24.44c2.22 1.18 3.52 3.18 3.91 5.32.12.37.18.76.18 1.17l.17 36.74c0 2.1-1.7 3.79-3.8 3.79-2.09 0-3.79-1.69-3.79-3.79l-.12-28.06-42.81 21.95a17.564 17.564 0 0 1-15.97 0l-46.16-23.67Z"/><path d="M2002.09 1099.93a1.75 1.75 0 0 1 2.55-1.56l24.92 12.77c7.18 3.69 15.7 3.69 22.88 0l24.69-12.65c1.16-.6 2.54.25 2.54 1.56v13.49c0 5.27-2.33 10.27-6.38 13.66-18.76 15.69-46.06 15.69-64.82 0a17.839 17.839 0 0 1-6.38-13.66v-13.61Z"/></g></g></g><g id="Medium-M"><g id="Solid / Study Solid_14"><g id="Shape_14" fill="#000"><path d="M1690.85 1080.73c-5.45-2.8-5.51-10.58-.1-13.45l46.04-24.44a17.52 17.52 0 0 1 16.41 0l46.04 24.44c2.22 1.18 3.52 3.18 3.91 5.32.12.37.18.76.18 1.17l.17 36.74c0 2.1-1.7 3.79-3.8 3.79-2.09 0-3.79-1.69-3.79-3.79l-.12-28.06-42.81 21.95a17.564 17.564 0 0 1-15.97 0l-46.16-23.67Z"/><path d="M1706.09 1099.93a1.75 1.75 0 0 1 2.55-1.56l24.92 12.77c7.18 3.69 15.7 3.69 22.88 0l24.69-12.65c1.16-.6 2.54.25 2.54 1.56v13.49c0 5.27-2.33 10.27-6.38 13.66-18.76 15.69-46.06 15.69-64.82 0a17.839 17.839 0 0 1-6.38-13.66v-13.61Z"/></g></g></g><g id="Regular-M"><g id="Solid / Study Solid_15"><g id="Shape_15" fill="#000"><path d="M1394.85 1080.73c-5.45-2.8-5.51-10.58-.1-13.45l46.04-24.44a17.52 17.52 0 0 1 16.41 0l46.04 24.44c2.22 1.18 3.52 3.18 3.91 5.32.12.37.18.76.18 1.17l.17 36.74c0 2.1-1.7 3.79-3.8 3.79-2.09 0-3.79-1.69-3.79-3.79l-.12-28.06-42.81 21.95a17.564 17.564 0 0 1-15.97 0l-46.16-23.67Z"/><path d="M1410.09 1099.93a1.75 1.75 0 0 1 2.55-1.56l24.92 12.77c7.18 3.69 15.7 3.69 22.88 0l24.69-12.65c1.16-.6 2.54.25 2.54 1.56v13.49c0 5.27-2.33 10.27-6.38 13.66-18.76 15.69-46.06 15.69-64.82 0a17.839 17.839 0 0 1-6.38-13.66v-13.61Z"/></g></g></g><g id="Light-M"><g id="Solid / Study Solid_16"><g id="Shape_16" fill="#000"><path d="M1098.85 1080.73c-5.45-2.8-5.51-10.58-.1-13.45l46.04-24.44a17.52 17.52 0 0 1 16.41 0l46.04 24.44c2.22 1.18 3.52 3.18 3.91 5.32.12.37.18.76.18 1.17l.17 36.74c0 2.1-1.7 3.79-3.8 3.79-2.09 0-3.79-1.69-3.79-3.79l-.12-28.06-42.81 21.95a17.564 17.564 0 0 1-15.97 0l-46.16-23.67Z"/><path d="M1114.09 1099.93a1.75 1.75 0 0 1 2.55-1.56l24.92 12.77c7.18 3.69 15.7 3.69 22.88 0l24.69-12.65c1.16-.6 2.54.25 2.54 1.56v13.49c0 5.27-2.33 10.27-6.38 13.66-18.76 15.69-46.06 15.69-64.82 0a17.839 17.839 0 0 1-6.38-13.66v-13.61Z"/></g></g></g><g id="Thin-M"><g id="Solid / Study Solid_17"><g id="Shape_17" fill="#000"><path d="M802.85 1080.73c-5.454-2.8-5.509-10.58-.095-13.45l46.039-24.44a17.518 17.518 0 0 1 16.409 0l46.04 24.44c2.217 1.18 3.517 3.18 3.904 5.32.12.37.185.76.185 1.17l.164 36.74c0 2.1-1.697 3.79-3.791 3.79a3.787 3.787 0 0 1-3.792-3.79l-.125-28.06-42.805 21.95a17.56 17.56 0 0 1-15.968 0l-46.165-23.67Z"/><path d="M818.09 1099.93c0-1.31 1.384-2.16 2.549-1.56l24.916 12.77a25.045 25.045 0 0 0 22.888 0l24.682-12.65c1.165-.6 2.549.25 2.549 1.56v13.49c0 5.27-2.337 10.27-6.382 13.66-18.757 15.69-46.063 15.69-64.82 0a17.824 17.824 0 0 1-6.382-13.66v-13.61Z"/></g></g></g><g id="Ultralight-M"><g id="Solid / Study Solid_18"><g id="Shape_18" fill="#000"><path d="M506.85 1080.73c-5.454-2.8-5.509-10.58-.095-13.45l46.039-24.44a17.518 17.518 0 0 1 16.409 0l46.04 24.44c2.217 1.18 3.517 3.18 3.904 5.32.12.37.185.76.185 1.17l.164 36.74c0 2.1-1.697 3.79-3.791 3.79a3.787 3.787 0 0 1-3.792-3.79l-.125-28.06-42.805 21.95a17.56 17.56 0 0 1-15.968 0l-46.165-23.67Z"/><path d="M522.09 1099.93c0-1.31 1.384-2.16 2.549-1.56l24.916 12.77a25.045 25.045 0 0 0 22.888 0l24.682-12.65c1.165-.6 2.549.25 2.549 1.56v13.49c0 5.27-2.337 10.27-6.382 13.66-18.757 15.69-46.063 15.69-64.82 0a17.824 17.824 0 0 1-6.382-13.66v-13.61Z"/></g></g></g><g id="Black-S"><g id="Solid / Study Solid_19"><g id="Shape_19" fill="#000"><path d="M2890.32 653.663c-3.89-1.998-3.93-7.552-.06-9.605l32.88-17.455a12.5 12.5 0 0 1 11.72 0l32.89 17.455a5.355 5.355 0 0 1 2.79 3.799c.08.264.13.545.13.838l.11 26.243a2.704 2.704 0 1 1-5.41 0l-.09-20.045-30.58 15.676a12.486 12.486 0 0 1-11.4 0l-32.98-16.906Z"/><path d="M2901.21 667.377c0-.935.99-1.539 1.82-1.113l17.8 9.125a17.92 17.92 0 0 0 16.35 0l17.63-9.039a1.25 1.25 0 0 1 1.82 1.112v9.637c0 3.767-1.67 7.34-4.56 9.756-13.4 11.209-32.9 11.209-46.3 0a12.716 12.716 0 0 1-4.56-9.756v-9.722Z"/></g></g></g><g id="Heavy-S"><g id="Solid / Study Solid_20"><g id="Shape_20" fill="#000"><path d="M2594.32 653.663c-3.89-1.998-3.93-7.552-.06-9.605l32.88-17.455a12.5 12.5 0 0 1 11.72 0l32.89 17.455a5.355 5.355 0 0 1 2.79 3.799c.08.264.13.545.13.838l.11 26.243a2.704 2.704 0 1 1-5.41 0l-.09-20.045-30.58 15.676a12.486 12.486 0 0 1-11.4 0l-32.98-16.906Z"/><path d="M2605.21 667.377c0-.935.99-1.539 1.82-1.113l17.8 9.125a17.92 17.92 0 0 0 16.35 0l17.63-9.039a1.25 1.25 0 0 1 1.82 1.112v9.637c0 3.767-1.67 7.34-4.56 9.756-13.4 11.209-32.9 11.209-46.3 0a12.716 12.716 0 0 1-4.56-9.756v-9.722Z"/></g></g></g><g id="Bold-S"><g id="Solid / Study Solid_21"><g id="Shape_21" fill="#000"><path d="M2298.32 653.663c-3.89-1.998-3.93-7.552-.06-9.605l32.88-17.455a12.5 12.5 0 0 1 11.72 0l32.89 17.455a5.355 5.355 0 0 1 2.79 3.799c.08.264.13.545.13.838l.11 26.243a2.704 2.704 0 1 1-5.41 0l-.09-20.045-30.58 15.676a12.486 12.486 0 0 1-11.4 0l-32.98-16.906Z"/><path d="M2309.21 667.377c0-.935.99-1.539 1.82-1.113l17.8 9.125a17.92 17.92 0 0 0 16.35 0l17.63-9.039a1.25 1.25 0 0 1 1.82 1.112v9.637c0 3.767-1.67 7.34-4.56 9.756-13.4 11.209-32.9 11.209-46.3 0a12.716 12.716 0 0 1-4.56-9.756v-9.722Z"/></g></g></g><g id="Semibold-S"><g id="Solid / Study Solid_22"><g id="Shape_22" fill="#000"><path d="M2002.32 653.663c-3.89-1.998-3.93-7.552-.07-9.605l32.89-17.455a12.5 12.5 0 0 1 11.72 0l32.88 17.455c1.59.841 2.52 2.269 2.79 3.799.09.264.14.545.14.838l.11 26.243a2.704 2.704 0 1 1-5.41 0l-.09-20.045-30.58 15.676a12.486 12.486 0 0 1-11.4 0l-32.98-16.906Z"/><path d="M2013.21 667.377c0-.935.99-1.539 1.82-1.113l17.79 9.125a17.92 17.92 0 0 0 16.35 0l17.63-9.039c.84-.427 1.82.177 1.82 1.112v9.637c0 3.767-1.67 7.34-4.55 9.756-13.4 11.209-32.91 11.209-46.3 0a12.716 12.716 0 0 1-4.56-9.756v-9.722Z"/></g></g></g><g id="Medium-S"><g id="Solid / Study Solid_23"><g id="Shape_23" fill="#000"><path d="M1706.32 653.663c-3.89-1.998-3.93-7.552-.07-9.605l32.89-17.455a12.5 12.5 0 0 1 11.72 0l32.88 17.455c1.59.841 2.52 2.269 2.79 3.799.09.264.14.545.14.838l.11 26.243a2.704 2.704 0 1 1-5.41 0l-.09-20.045-30.58 15.676a12.486 12.486 0 0 1-11.4 0l-32.98-16.906Z"/><path d="M1717.21 667.377c0-.935.99-1.539 1.82-1.113l17.79 9.125a17.92 17.92 0 0 0 16.35 0l17.63-9.039c.84-.427 1.82.177 1.82 1.112v9.637c0 3.767-1.67 7.34-4.55 9.756-13.4 11.209-32.91 11.209-46.3 0a12.716 12.716 0 0 1-4.56-9.756v-9.722Z"/></g></g></g><g id="Regular-S"><g id="Solid / Study Solid_24"><g id="Shape_24" fill="#000"><path d="M1410.32 653.663c-3.89-1.998-3.93-7.552-.07-9.605l32.89-17.455a12.5 12.5 0 0 1 11.72 0l32.88 17.455c1.59.841 2.52 2.269 2.79 3.799.09.264.14.545.14.838l.11 26.243a2.704 2.704 0 1 1-5.41 0l-.09-20.045-30.58 15.676a12.486 12.486 0 0 1-11.4 0l-32.98-16.906Z"/><path d="M1421.21 667.377c0-.935.99-1.539 1.82-1.113l17.79 9.125a17.92 17.92 0 0 0 16.35 0l17.63-9.039c.84-.427 1.82.177 1.82 1.112v9.637c0 3.767-1.67 7.34-4.55 9.756-13.4 11.209-32.91 11.209-46.3 0a12.716 12.716 0 0 1-4.56-9.756v-9.722Z"/></g></g></g><g id="Light-S"><g id="Solid / Study Solid_25"><g id="Shape_25" fill="#000"><path d="M1114.32 653.663c-3.89-1.998-3.93-7.552-.07-9.605l32.89-17.455a12.5 12.5 0 0 1 11.72 0l32.88 17.455c1.59.841 2.52 2.269 2.79 3.799.09.264.14.545.14.838l.11 26.243a2.704 2.704 0 1 1-5.41 0l-.09-20.045-30.58 15.676a12.486 12.486 0 0 1-11.4 0l-32.98-16.906Z"/><path d="M1125.21 667.377c0-.935.99-1.539 1.82-1.113l17.79 9.125a17.92 17.92 0 0 0 16.35 0l17.63-9.039c.84-.427 1.82.177 1.82 1.112v9.637c0 3.767-1.67 7.34-4.55 9.756-13.4 11.209-32.91 11.209-46.3 0a12.716 12.716 0 0 1-4.56-9.756v-9.722Z"/></g></g></g><g id="Thin-S"><g id="Solid / Study Solid_26"><g id="Shape_26" fill="#000"><path d="M818.321 653.663c-3.896-1.998-3.935-7.552-.068-9.605l32.886-17.455a12.5 12.5 0 0 1 11.72 0l32.886 17.455a5.338 5.338 0 0 1 2.789 3.799c.085.264.132.545.132.838l.117 26.243a2.708 2.708 0 0 1-5.417 0l-.089-20.045-30.575 15.676a12.498 12.498 0 0 1-11.406 0l-32.975-16.906Z"/><path d="M829.207 667.377a1.25 1.25 0 0 1 1.821-1.113l17.797 9.125a17.917 17.917 0 0 0 16.348 0l17.631-9.039a1.25 1.25 0 0 1 1.82 1.112v9.637c0 3.767-1.669 7.34-4.558 9.756-13.398 11.209-32.902 11.209-46.301 0a12.72 12.72 0 0 1-4.558-9.756v-9.722Z"/></g></g></g><g id="Ultralight-S"><g id="Solid / Study Solid_27"><g id="Shape_27" fill="#000"><path d="M522.321 653.663c-3.896-1.998-3.935-7.552-.068-9.605l32.886-17.455a12.5 12.5 0 0 1 11.72 0l32.886 17.455a5.338 5.338 0 0 1 2.789 3.799c.085.264.132.545.132.838l.117 26.243a2.708 2.708 0 0 1-5.417 0l-.089-20.045-30.575 15.676a12.498 12.498 0 0 1-11.406 0l-32.975-16.906Z"/><path d="M533.207 667.377a1.25 1.25 0 0 1 1.821-1.113l17.797 9.125a17.917 17.917 0 0 0 16.348 0l17.631-9.039a1.25 1.25 0 0 1 1.82 1.112v9.637c0 3.767-1.669 7.34-4.558 9.756-13.398 11.209-32.902 11.209-46.301 0a12.72 12.72 0 0 1-4.558-9.756v-9.722Z"/></g></g></g></g></g><defs><clipPath id="clip0_0_1"><path fill="#fff" d="M0 0h3300v2200H0z"/></clipPath></defs></svg>