<svg width="3300" height="2200" viewBox="0 0 3300 2200" fill="none" xmlns="http://www.w3.org/2000/svg">
<rect width="3300" height="2200" fill="#E5E5E5"/>
<g id="System / Solid / Arrows Horizontal" clip-path="url(#clip0_805_27002)">
<g id="Notes">
<path id="artboard" d="M3300 0H0V2200H3300V0Z" fill="white"/>
<path id="Vector" d="M263 292H3036" stroke="black" stroke-width="0.5"/>
<text id="Weight/Scale Variations" fill="black" xml:space="preserve" style="white-space: pre" font-family="Roboto" font-size="12" letter-spacing="0em"><tspan x="263" y="321.102">Weight/Scale Variations</tspan></text>
<text id="Ultralight" fill="black" xml:space="preserve" style="white-space: pre" font-family="Roboto" font-size="12" letter-spacing="0em"><tspan x="535.211" y="321.102">Ultralight</tspan></text>
<text id="Thin" fill="black" xml:space="preserve" style="white-space: pre" font-family="Roboto" font-size="12" letter-spacing="0em"><tspan x="844.422" y="321.102">Thin</tspan></text>
<text id="Light" fill="black" xml:space="preserve" style="white-space: pre" font-family="Roboto" font-size="12" letter-spacing="0em"><tspan x="1139.63" y="321.102">Light</tspan></text>
<text id="Regular" fill="black" xml:space="preserve" style="white-space: pre" font-family="Roboto" font-size="12" letter-spacing="0em"><tspan x="1429.34" y="321.102">Regular</tspan></text>
<text id="Medium" fill="black" xml:space="preserve" style="white-space: pre" font-family="Roboto" font-size="12" letter-spacing="0em"><tspan x="1724.56" y="321.102">Medium</tspan></text>
<text id="Semibold" fill="black" xml:space="preserve" style="white-space: pre" font-family="Roboto" font-size="12" letter-spacing="0em"><tspan x="2017.77" y="321.102">Semibold</tspan></text>
<text id="Bold" fill="black" xml:space="preserve" style="white-space: pre" font-family="Roboto" font-size="12" letter-spacing="0em"><tspan x="2327.48" y="321.102">Bold</tspan></text>
<text id="Heavy" fill="black" xml:space="preserve" style="white-space: pre" font-family="Roboto" font-size="12" letter-spacing="0em"><tspan x="2620.19" y="321.102">Heavy</tspan></text>
<text id="Black" fill="black" xml:space="preserve" style="white-space: pre" font-family="Roboto" font-size="12" letter-spacing="0em"><tspan x="2918.4" y="321.102">Black</tspan></text>
<path id="Vector_2" d="M263 1903H3036" stroke="black" stroke-width="0.5"/>
<g id="Group">
<path id="Vector_3" d="M272.248 1933.83C276.555 1933.83 280.139 1930.26 280.139 1925.95C280.139 1921.64 276.545 1918.07 272.238 1918.07C267.941 1918.07 264.367 1921.64 264.367 1925.95C264.367 1930.26 267.951 1933.83 272.248 1933.83ZM272.248 1932.35C268.703 1932.35 265.871 1929.51 265.871 1925.95C265.871 1922.4 268.693 1919.55 272.238 1919.55C275.793 1919.55 278.635 1922.4 278.644 1925.95C278.654 1929.51 275.803 1932.35 272.248 1932.35ZM272.229 1929.57C272.697 1929.57 272.971 1929.26 272.971 1928.74V1926.68H275.197C275.695 1926.68 276.037 1926.43 276.037 1925.96C276.037 1925.48 275.715 1925.22 275.197 1925.22H272.971V1922.99C272.971 1922.47 272.697 1922.15 272.229 1922.15C271.76 1922.15 271.506 1922.49 271.506 1922.99V1925.22H269.299C268.781 1925.22 268.449 1925.48 268.449 1925.96C268.449 1926.43 268.801 1926.68 269.299 1926.68H271.506V1928.74C271.506 1929.24 271.76 1929.57 272.229 1929.57Z" fill="black"/>
</g>
<g id="Group_2">
<path id="Vector_4" d="M293.215 1935.91C298.664 1935.91 303.176 1931.4 303.176 1925.95C303.176 1920.51 298.654 1915.99 293.205 1915.99C287.766 1915.99 283.254 1920.51 283.254 1925.95C283.254 1931.4 287.775 1935.91 293.215 1935.91ZM293.215 1934.25C288.605 1934.25 284.924 1930.56 284.924 1925.95C284.924 1921.35 288.596 1917.65 293.205 1917.65C297.814 1917.65 301.506 1921.35 301.516 1925.95C301.525 1930.56 297.824 1934.25 293.215 1934.25ZM293.195 1930.59C293.713 1930.59 294.025 1930.23 294.025 1929.66V1926.77H297.082C297.629 1926.77 298.01 1926.49 298.01 1925.97C298.01 1925.44 297.648 1925.14 297.082 1925.14H294.025V1922.07C294.025 1921.5 293.713 1921.14 293.195 1921.14C292.678 1921.14 292.385 1921.52 292.385 1922.07V1925.14H289.338C288.771 1925.14 288.4 1925.44 288.4 1925.97C288.4 1926.49 288.791 1926.77 289.338 1926.77H292.385V1929.66C292.385 1930.21 292.678 1930.59 293.195 1930.59Z" fill="black"/>
</g>
<g id="Group_3">
<path id="Vector_5" d="M319.895 1938.67C326.857 1938.67 332.619 1932.92 332.619 1925.96C332.619 1918.99 326.848 1913.24 319.885 1913.24C312.932 1913.24 307.18 1918.99 307.18 1925.96C307.18 1932.92 312.941 1938.67 319.895 1938.67ZM319.895 1936.86C313.859 1936.86 309.006 1931.99 309.006 1925.96C309.006 1919.92 313.85 1915.06 319.885 1915.06C325.93 1915.06 330.783 1919.92 330.793 1925.96C330.803 1931.99 325.939 1936.86 319.895 1936.86ZM319.875 1931.93C320.441 1931.93 320.793 1931.54 320.793 1930.94V1926.87H325.031C325.617 1926.87 326.037 1926.53 326.037 1925.98C326.037 1925.4 325.647 1925.06 325.031 1925.06H320.793V1920.81C320.793 1920.2 320.441 1919.8 319.875 1919.8C319.309 1919.8 318.986 1920.21 318.986 1920.81V1925.06H314.758C314.143 1925.06 313.732 1925.4 313.732 1925.98C313.732 1926.53 314.162 1926.87 314.758 1926.87H318.986V1930.94C318.986 1931.52 319.309 1931.93 319.875 1931.93Z" fill="black"/>
</g>
<text id="Design Variations" fill="black" xml:space="preserve" style="white-space: pre" font-family="Roboto" font-size="12" letter-spacing="0em"><tspan x="263" y="1952.1">Design Variations</tspan></text>
<text id="Symbols are supported in up to nine weights and three scales." fill="black" xml:space="preserve" style="white-space: pre" font-family="Roboto" font-size="12" letter-spacing="0em"><tspan x="263" y="1970.1">Symbols are supported in up to nine weights and three scales.</tspan></text>
<text id="For optimal layout with text and other symbols, vertically align" fill="black" xml:space="preserve" style="white-space: pre" font-family="Roboto" font-size="12" letter-spacing="0em"><tspan x="263" y="1988.1">For optimal layout with text and other symbols, vertically align</tspan></text>
<text id="symbols with the adjacent text." fill="black" xml:space="preserve" style="white-space: pre" font-family="Roboto" font-size="12" letter-spacing="0em"><tspan x="263" y="2006.1">symbols with the adjacent text.</tspan></text>
<path id="Vector_6" opacity="0.4" d="M779 1919H776V1933H779V1919Z" fill="#00AEEF"/>
<g id="Group_4">
<path id="Vector_7" d="M789.527 1933H791.373L786.178 1918.91H784.439L779.244 1933H781.09L782.506 1928.96H788.111L789.527 1933ZM785.279 1921.04H785.338L787.594 1927.47H783.023L785.279 1921.04Z" fill="black"/>
</g>
<path id="Vector_8" opacity="0.4" d="M794.617 1919H791.617V1933H794.617V1919Z" fill="#00AEEF"/>
<text id="Margins" fill="black" xml:space="preserve" style="white-space: pre" font-family="Roboto" font-size="12" letter-spacing="0em"><tspan x="776" y="1952.1">Margins</tspan></text>
<text id="Leading and trailing margins on the left and right side of each symbol" fill="black" xml:space="preserve" style="white-space: pre" font-family="Roboto" font-size="12" letter-spacing="0em"><tspan x="776" y="1970.1">Leading and trailing margins on the left and right side of each symbol</tspan></text>
<text id="can be adjusted by modifying the width of the blue rectangles." fill="black" xml:space="preserve" style="white-space: pre" font-family="Roboto" font-size="12" letter-spacing="0em"><tspan x="776" y="1988.1">can be adjusted by modifying the width of the blue rectangles.</tspan></text>
<text id="Modifications are automatically applied proportionally to all" fill="black" xml:space="preserve" style="white-space: pre" font-family="Roboto" font-size="12" letter-spacing="0em"><tspan x="776" y="2006.1">Modifications are automatically applied proportionally to all</tspan></text>
<text id="scales and weights." fill="black" xml:space="preserve" style="white-space: pre" font-family="Roboto" font-size="12" letter-spacing="0em"><tspan x="776" y="2024.1">scales and weights.</tspan></text>
<g id="Group_5">
<path id="Vector_9" d="M1291.83 1936.11L1293.37 1937.66C1294.22 1938.49 1295.19 1938.42 1296.06 1937.46L1306.27 1926.34C1306.7 1926.63 1307.1 1926.62 1307.56 1926.52L1308.61 1926.31L1309.3 1927L1309.25 1927.52C1309.19 1928.05 1309.35 1928.47 1309.85 1928.97L1310.66 1929.78C1311.17 1930.28 1311.82 1930.31 1312.3 1929.83L1315.55 1926.58C1316.03 1926.1 1316.01 1925.45 1315.5 1924.94L1314.68 1924.12C1314.19 1923.62 1313.77 1923.45 1313.24 1923.53L1312.71 1923.58L1312.06 1922.92L1312.34 1921.78C1312.49 1921.21 1312.34 1920.74 1311.71 1920.14L1309.3 1917.75C1305.76 1914.22 1301.23 1914.33 1298.11 1917.46C1297.69 1917.89 1297.64 1918.48 1297.92 1918.91C1298.15 1919.28 1298.63 1919.5 1299.27 1919.34C1300.79 1918.96 1302.3 1919.07 1303.78 1920.08L1303.16 1921.66C1302.93 1922.25 1302.94 1922.73 1303.18 1923.16L1292.02 1933.44C1291.08 1934.31 1290.97 1935.25 1291.83 1936.11ZM1299.67 1917.85C1302.34 1915.86 1305.65 1916.17 1308.05 1918.58L1310.68 1921.19C1310.91 1921.43 1310.94 1921.61 1310.88 1921.91L1310.5 1923.47L1312.08 1925.04L1313.04 1924.95C1313.33 1924.92 1313.41 1924.94 1313.64 1925.17L1314.26 1925.79L1311.51 1928.54L1310.88 1927.92C1310.66 1927.7 1310.64 1927.6 1310.67 1927.32L1310.76 1926.36L1309.19 1924.8L1307.57 1925.11C1307.29 1925.17 1307.14 1925.17 1306.91 1924.92L1304.73 1922.75C1304.51 1922.51 1304.48 1922.37 1304.61 1922.05L1305.55 1919.78C1303.95 1918.24 1301.84 1917.39 1299.8 1918.05C1299.71 1918.08 1299.64 1918.06 1299.61 1918.02C1299.59 1917.97 1299.59 1917.92 1299.67 1917.85ZM1293.1 1935.41C1292.61 1934.91 1292.79 1934.61 1293.12 1934.31L1304.08 1924.19L1305.31 1925.42L1295.15 1936.35C1294.85 1936.68 1294.47 1936.78 1294.07 1936.38L1293.1 1935.41Z" fill="black"/>
</g>
<text id="Exporting" fill="black" xml:space="preserve" style="white-space: pre" font-family="Roboto" font-size="12" letter-spacing="0em"><tspan x="1289" y="1952.1">Exporting</tspan></text>
<text id="Symbols should be outlined when exporting to ensure the" fill="black" xml:space="preserve" style="white-space: pre" font-family="Roboto" font-size="12" letter-spacing="0em"><tspan x="1289" y="1970.1">Symbols should be outlined when exporting to ensure the</tspan></text>
<text id="design is preserved when submitting to Xcode." fill="black" xml:space="preserve" style="white-space: pre" font-family="Roboto" font-size="12" letter-spacing="0em"><tspan x="1289" y="1988.1">design is preserved when submitting to Xcode.</tspan></text>
<text id="template-version" fill="black" xml:space="preserve" style="white-space: pre" font-family="Roboto" font-size="12" letter-spacing="0em"><tspan x="2958" y="1932.1">Template v.1.0</tspan></text>
<text id="Generated from pencil.circle" fill="black" xml:space="preserve" style="white-space: pre" font-family="Roboto" font-size="12" letter-spacing="0em"><tspan x="2885" y="1950.1">Generated from pencil.circle</tspan></text>
<text id="Typeset at 100 points" fill="black" xml:space="preserve" style="white-space: pre" font-family="Roboto" font-size="12" letter-spacing="0em"><tspan x="2921" y="1968.1">Typeset at 100 points</tspan></text>
<text id="Small" fill="black" xml:space="preserve" style="white-space: pre" font-family="Roboto" font-size="12" letter-spacing="0em"><tspan x="263" y="725.102">Small</tspan></text>
<text id="Medium_2" fill="black" xml:space="preserve" style="white-space: pre" font-family="Roboto" font-size="12" letter-spacing="0em"><tspan x="263" y="1155.1">Medium</tspan></text>
<text id="Large" fill="black" xml:space="preserve" style="white-space: pre" font-family="Roboto" font-size="12" letter-spacing="0em"><tspan x="263" y="1585.1">Large</tspan></text>
</g>
<g id="Guides">
<g id="H-reference">
<path id="Vector_10" d="M393.932 695.998H396.666L369.566 625.539H367.076L339.977 695.998H342.662L351.94 671.535H384.703L393.932 695.998ZM368.199 628.908H368.443L383.824 669.289H352.818L368.199 628.908Z" fill="#27AAE1"/>
</g>
<path id="Baseline-S" d="M263 696H3036" stroke="#27AAE1" stroke-width="0.577"/>
<path id="Capline-S" d="M263 626H3036" stroke="#27AAE1" stroke-width="0.577"/>
<g id="H-reference_2">
<path id="Vector_11" d="M393.932 1126H396.666L369.566 1055.54H367.076L339.977 1126H342.662L351.94 1101.54H384.703L393.932 1126ZM368.199 1058.91H368.443L383.824 1099.29H352.818L368.199 1058.91Z" fill="#27AAE1"/>
</g>
<path id="Baseline-M" d="M263 1126H3036" stroke="#27AAE1" stroke-width="0.577"/>
<path id="Capline-M" d="M263 1056H3036" stroke="#27AAE1" stroke-width="0.577"/>
<g id="H-reference_3">
<path id="Vector_12" d="M393.932 1556H396.666L369.566 1485.54H367.076L339.977 1556H342.662L351.94 1531.54H384.703L393.932 1556ZM368.199 1488.91H368.443L383.824 1529.29H352.818L368.199 1488.91Z" fill="#27AAE1"/>
</g>
<g id="Group 1">
<path id="Baseline-L" d="M263 1556H3036" stroke="#27AAE1" stroke-width="0.577"/>
<path id="Capline-L" d="M263 1486H3036" stroke="#27AAE1" stroke-width="0.577"/>
</g>
<path id="left-margin" opacity="0.4" d="M1390.04 1030.79H1381.3V1150.12H1390.04V1030.79Z" fill="#00AEEF"/>
<path id="right-margin" opacity="0.4" d="M1516.39 1030.79H1507.65V1150.12H1516.39V1030.79Z" fill="#00AEEF"/>
</g>
<g id="Symbols">
<g id="Black-L">
<g id="Solid / Arrows Horizontal Solid">
<path id="Shape" fill-rule="evenodd" clip-rule="evenodd" d="M2854 1483.5C2854 1471.07 2864.07 1461 2876.5 1461H2981.5C2993.93 1461 3004 1471.07 3004 1483.5V1558.5C3004 1570.93 2993.93 1581 2981.5 1581H2876.5C2864.07 1581 2854 1570.93 2854 1558.5V1483.5ZM2902.22 1494.25L2912.98 1484.71C2915.07 1482.85 2915.26 1479.66 2913.4 1477.57C2911.55 1475.48 2908.36 1475.29 2906.27 1477.15L2885.61 1495.48C2884.47 1496.49 2883.9 1497.9 2883.91 1499.3C2883.9 1500.71 2884.47 1502.12 2885.61 1503.12L2906.27 1521.46C2908.36 1523.31 2911.55 1523.12 2913.4 1521.03C2915.26 1518.95 2915.07 1515.75 2912.98 1513.9L2902.22 1504.36H2958.14C2960.93 1504.36 2963.2 1502.09 2963.2 1499.3C2963.2 1496.51 2960.93 1494.25 2958.14 1494.25H2902.22ZM2944.96 1528.02L2955.72 1537.56H2900.64C2897.85 1537.56 2895.58 1539.82 2895.58 1542.61C2895.58 1545.41 2897.85 1547.67 2900.64 1547.67H2955.72L2944.96 1557.21C2942.88 1559.06 2942.69 1562.26 2944.54 1564.35C2946.39 1566.43 2949.58 1566.62 2951.67 1564.77L2972.33 1546.43C2973.47 1545.43 2974.04 1544.02 2974.03 1542.61C2974.04 1541.21 2973.47 1539.8 2972.33 1538.79L2951.67 1520.46C2949.58 1518.61 2946.39 1518.8 2944.54 1520.88C2942.69 1522.97 2942.88 1526.16 2944.96 1528.02Z" fill="black"/>
</g>
</g>
<g id="Heavy-L">
<g id="Solid / Arrows Horizontal Solid_2">
<path id="Shape_2" fill-rule="evenodd" clip-rule="evenodd" d="M2558 1483.5C2558 1471.07 2568.07 1461 2580.5 1461H2685.5C2697.93 1461 2708 1471.07 2708 1483.5V1558.5C2708 1570.93 2697.93 1581 2685.5 1581H2580.5C2568.07 1581 2558 1570.93 2558 1558.5V1483.5ZM2606.22 1494.25L2616.98 1484.71C2619.07 1482.85 2619.26 1479.66 2617.4 1477.57C2615.55 1475.48 2612.36 1475.29 2610.27 1477.15L2589.61 1495.48C2588.47 1496.49 2587.9 1497.9 2587.91 1499.3C2587.9 1500.71 2588.47 1502.12 2589.61 1503.12L2610.27 1521.46C2612.36 1523.31 2615.55 1523.12 2617.4 1521.03C2619.26 1518.95 2619.07 1515.75 2616.98 1513.9L2606.22 1504.36H2662.14C2664.93 1504.36 2667.2 1502.09 2667.2 1499.3C2667.2 1496.51 2664.93 1494.25 2662.14 1494.25H2606.22ZM2648.96 1528.02L2659.72 1537.56H2604.64C2601.85 1537.56 2599.58 1539.82 2599.58 1542.61C2599.58 1545.41 2601.85 1547.67 2604.64 1547.67H2659.72L2648.96 1557.21C2646.88 1559.06 2646.69 1562.26 2648.54 1564.35C2650.39 1566.43 2653.58 1566.62 2655.67 1564.77L2676.33 1546.43C2677.47 1545.43 2678.04 1544.02 2678.03 1542.61C2678.04 1541.21 2677.47 1539.8 2676.33 1538.79L2655.67 1520.46C2653.58 1518.61 2650.39 1518.8 2648.54 1520.88C2646.69 1522.97 2646.88 1526.16 2648.96 1528.02Z" fill="black"/>
</g>
</g>
<g id="Bold-L">
<g id="Solid / Arrows Horizontal Solid_3">
<path id="Shape_3" fill-rule="evenodd" clip-rule="evenodd" d="M2262 1483.5C2262 1471.07 2272.07 1461 2284.5 1461H2389.5C2401.93 1461 2412 1471.07 2412 1483.5V1558.5C2412 1570.93 2401.93 1581 2389.5 1581H2284.5C2272.07 1581 2262 1570.93 2262 1558.5V1483.5ZM2310.22 1494.25L2320.98 1484.71C2323.07 1482.85 2323.26 1479.66 2321.4 1477.57C2319.55 1475.48 2316.36 1475.29 2314.27 1477.15L2293.61 1495.48C2292.47 1496.49 2291.9 1497.9 2291.91 1499.3C2291.9 1500.71 2292.47 1502.12 2293.61 1503.12L2314.27 1521.46C2316.36 1523.31 2319.55 1523.12 2321.4 1521.03C2323.26 1518.95 2323.07 1515.75 2320.98 1513.9L2310.22 1504.36H2366.14C2368.93 1504.36 2371.2 1502.09 2371.2 1499.3C2371.2 1496.51 2368.93 1494.25 2366.14 1494.25H2310.22ZM2352.96 1528.02L2363.72 1537.56H2308.64C2305.85 1537.56 2303.58 1539.82 2303.58 1542.61C2303.58 1545.41 2305.85 1547.67 2308.64 1547.67H2363.72L2352.96 1557.21C2350.88 1559.06 2350.69 1562.26 2352.54 1564.35C2354.39 1566.43 2357.58 1566.62 2359.67 1564.77L2380.33 1546.43C2381.47 1545.43 2382.04 1544.02 2382.03 1542.61C2382.04 1541.21 2381.47 1539.8 2380.33 1538.79L2359.67 1520.46C2357.58 1518.61 2354.39 1518.8 2352.54 1520.88C2350.69 1522.97 2350.88 1526.16 2352.96 1528.02Z" fill="black"/>
</g>
</g>
<g id="Semibold-L">
<g id="Solid / Arrows Horizontal Solid_4">
<path id="Shape_4" fill-rule="evenodd" clip-rule="evenodd" d="M1966 1483.5C1966 1471.07 1976.07 1461 1988.5 1461H2093.5C2105.93 1461 2116 1471.07 2116 1483.5V1558.5C2116 1570.93 2105.93 1581 2093.5 1581H1988.5C1976.07 1581 1966 1570.93 1966 1558.5V1483.5ZM2014.22 1494.25L2024.98 1484.71C2027.07 1482.85 2027.26 1479.66 2025.4 1477.57C2023.55 1475.48 2020.36 1475.29 2018.27 1477.15L1997.61 1495.48C1996.47 1496.49 1995.9 1497.9 1995.91 1499.3C1995.9 1500.71 1996.47 1502.12 1997.61 1503.12L2018.27 1521.46C2020.36 1523.31 2023.55 1523.12 2025.4 1521.03C2027.26 1518.95 2027.07 1515.75 2024.98 1513.9L2014.22 1504.36H2070.14C2072.93 1504.36 2075.2 1502.09 2075.2 1499.3C2075.2 1496.51 2072.93 1494.25 2070.14 1494.25H2014.22ZM2056.96 1528.02L2067.72 1537.56H2012.64C2009.85 1537.56 2007.58 1539.82 2007.58 1542.61C2007.58 1545.41 2009.85 1547.67 2012.64 1547.67H2067.72L2056.96 1557.21C2054.88 1559.06 2054.69 1562.26 2056.54 1564.35C2058.39 1566.43 2061.58 1566.62 2063.67 1564.77L2084.33 1546.43C2085.47 1545.43 2086.04 1544.02 2086.03 1542.61C2086.04 1541.21 2085.47 1539.8 2084.33 1538.79L2063.67 1520.46C2061.58 1518.61 2058.39 1518.8 2056.54 1520.88C2054.69 1522.97 2054.88 1526.16 2056.96 1528.02Z" fill="black"/>
</g>
</g>
<g id="Medium-L">
<g id="Solid / Arrows Horizontal Solid_5">
<path id="Shape_5" fill-rule="evenodd" clip-rule="evenodd" d="M1670 1483.5C1670 1471.07 1680.07 1461 1692.5 1461H1797.5C1809.93 1461 1820 1471.07 1820 1483.5V1558.5C1820 1570.93 1809.93 1581 1797.5 1581H1692.5C1680.07 1581 1670 1570.93 1670 1558.5V1483.5ZM1718.22 1494.25L1728.98 1484.71C1731.07 1482.85 1731.26 1479.66 1729.4 1477.57C1727.55 1475.48 1724.36 1475.29 1722.27 1477.15L1701.61 1495.48C1700.47 1496.49 1699.9 1497.9 1699.91 1499.3C1699.9 1500.71 1700.47 1502.12 1701.61 1503.12L1722.27 1521.46C1724.36 1523.31 1727.55 1523.12 1729.4 1521.03C1731.26 1518.95 1731.07 1515.75 1728.98 1513.9L1718.22 1504.36H1774.14C1776.93 1504.36 1779.2 1502.09 1779.2 1499.3C1779.2 1496.51 1776.93 1494.25 1774.14 1494.25H1718.22ZM1760.96 1528.02L1771.72 1537.56H1716.64C1713.85 1537.56 1711.58 1539.82 1711.58 1542.61C1711.58 1545.41 1713.85 1547.67 1716.64 1547.67H1771.72L1760.96 1557.21C1758.88 1559.06 1758.69 1562.26 1760.54 1564.35C1762.39 1566.43 1765.58 1566.62 1767.67 1564.77L1788.33 1546.43C1789.47 1545.43 1790.04 1544.02 1790.03 1542.61C1790.04 1541.21 1789.47 1539.8 1788.33 1538.79L1767.67 1520.46C1765.58 1518.61 1762.39 1518.8 1760.54 1520.88C1758.69 1522.97 1758.88 1526.16 1760.96 1528.02Z" fill="black"/>
</g>
</g>
<g id="Regular-L">
<g id="Solid / Arrows Horizontal Solid_6">
<path id="Shape_6" fill-rule="evenodd" clip-rule="evenodd" d="M1374 1483.5C1374 1471.07 1384.07 1461 1396.5 1461H1501.5C1513.93 1461 1524 1471.07 1524 1483.5V1558.5C1524 1570.93 1513.93 1581 1501.5 1581H1396.5C1384.07 1581 1374 1570.93 1374 1558.5V1483.5ZM1422.22 1494.25L1432.98 1484.71C1435.07 1482.85 1435.26 1479.66 1433.4 1477.57C1431.55 1475.48 1428.36 1475.29 1426.27 1477.15L1405.61 1495.48C1404.47 1496.49 1403.9 1497.9 1403.91 1499.3C1403.9 1500.71 1404.47 1502.12 1405.61 1503.12L1426.27 1521.46C1428.36 1523.31 1431.55 1523.12 1433.4 1521.03C1435.26 1518.95 1435.07 1515.75 1432.98 1513.9L1422.22 1504.36H1478.14C1480.93 1504.36 1483.2 1502.09 1483.2 1499.3C1483.2 1496.51 1480.93 1494.25 1478.14 1494.25H1422.22ZM1464.96 1528.02L1475.72 1537.56H1420.64C1417.85 1537.56 1415.58 1539.82 1415.58 1542.61C1415.58 1545.41 1417.85 1547.67 1420.64 1547.67H1475.72L1464.96 1557.21C1462.88 1559.06 1462.69 1562.26 1464.54 1564.35C1466.39 1566.43 1469.58 1566.62 1471.67 1564.77L1492.33 1546.43C1493.47 1545.43 1494.04 1544.02 1494.03 1542.61C1494.04 1541.21 1493.47 1539.8 1492.33 1538.79L1471.67 1520.46C1469.58 1518.61 1466.39 1518.8 1464.54 1520.88C1462.69 1522.97 1462.88 1526.16 1464.96 1528.02Z" fill="black"/>
</g>
</g>
<g id="Light-L">
<g id="Solid / Arrows Horizontal Solid_7">
<path id="Shape_7" fill-rule="evenodd" clip-rule="evenodd" d="M1078 1483.5C1078 1471.07 1088.07 1461 1100.5 1461H1205.5C1217.93 1461 1228 1471.07 1228 1483.5V1558.5C1228 1570.93 1217.93 1581 1205.5 1581H1100.5C1088.07 1581 1078 1570.93 1078 1558.5V1483.5ZM1126.22 1494.25L1136.98 1484.71C1139.07 1482.85 1139.26 1479.66 1137.4 1477.57C1135.55 1475.48 1132.36 1475.29 1130.27 1477.15L1109.61 1495.48C1108.47 1496.49 1107.9 1497.9 1107.91 1499.3C1107.9 1500.71 1108.47 1502.12 1109.61 1503.12L1130.27 1521.46C1132.36 1523.31 1135.55 1523.12 1137.4 1521.03C1139.26 1518.95 1139.07 1515.75 1136.98 1513.9L1126.22 1504.36H1182.14C1184.93 1504.36 1187.2 1502.09 1187.2 1499.3C1187.2 1496.51 1184.93 1494.25 1182.14 1494.25H1126.22ZM1168.96 1528.02L1179.72 1537.56H1124.64C1121.85 1537.56 1119.58 1539.82 1119.58 1542.61C1119.58 1545.41 1121.85 1547.67 1124.64 1547.67H1179.72L1168.96 1557.21C1166.88 1559.06 1166.69 1562.26 1168.54 1564.35C1170.39 1566.43 1173.58 1566.62 1175.67 1564.77L1196.33 1546.43C1197.47 1545.43 1198.04 1544.02 1198.03 1542.61C1198.04 1541.21 1197.47 1539.8 1196.33 1538.79L1175.67 1520.46C1173.58 1518.61 1170.39 1518.8 1168.54 1520.88C1166.69 1522.97 1166.88 1526.16 1168.96 1528.02Z" fill="black"/>
</g>
</g>
<g id="Thin-L">
<g id="Solid / Arrows Horizontal Solid_8">
<path id="Shape_8" fill-rule="evenodd" clip-rule="evenodd" d="M782 1483.5C782 1471.07 792.074 1461 804.5 1461H909.5C921.926 1461 932 1471.07 932 1483.5V1558.5C932 1570.93 921.926 1581 909.5 1581H804.5C792.074 1581 782 1570.93 782 1558.5V1483.5ZM830.223 1494.25L840.979 1484.71C843.066 1482.85 843.257 1479.66 841.405 1477.57C839.552 1475.48 836.359 1475.29 834.272 1477.15L813.608 1495.48C812.472 1496.49 811.898 1497.9 811.909 1499.3C811.898 1500.71 812.472 1502.12 813.608 1503.12L834.272 1521.46C836.359 1523.31 839.552 1523.12 841.405 1521.03C843.257 1518.95 843.066 1515.75 840.979 1513.9L830.223 1504.36H886.142C888.933 1504.36 891.195 1502.09 891.195 1499.3C891.195 1496.51 888.933 1494.25 886.142 1494.25H830.223ZM872.963 1528.02L883.72 1537.56H828.637C825.847 1537.56 823.584 1539.82 823.584 1542.61C823.584 1545.41 825.847 1547.67 828.637 1547.67H883.72L872.963 1557.21C870.876 1559.06 870.685 1562.26 872.538 1564.35C874.39 1566.43 877.583 1566.62 879.671 1564.77L900.335 1546.43C901.47 1545.43 902.044 1544.02 902.034 1542.61C902.044 1541.21 901.47 1539.8 900.335 1538.79L879.671 1520.46C877.583 1518.61 874.39 1518.8 872.538 1520.88C870.685 1522.97 870.876 1526.16 872.963 1528.02Z" fill="black"/>
</g>
</g>
<g id="Ultralight-L">
<g id="Solid / Arrows Horizontal Solid_9">
<path id="Shape_9" fill-rule="evenodd" clip-rule="evenodd" d="M486 1483.5C486 1471.07 496.074 1461 508.5 1461H613.5C625.926 1461 636 1471.07 636 1483.5V1558.5C636 1570.93 625.926 1581 613.5 1581H508.5C496.074 1581 486 1570.93 486 1558.5V1483.5ZM534.223 1494.25L544.979 1484.71C547.066 1482.85 547.257 1479.66 545.405 1477.57C543.552 1475.48 540.359 1475.29 538.272 1477.15L517.608 1495.48C516.472 1496.49 515.898 1497.9 515.909 1499.3C515.898 1500.71 516.472 1502.12 517.608 1503.12L538.272 1521.46C540.359 1523.31 543.552 1523.12 545.405 1521.03C547.257 1518.95 547.066 1515.75 544.979 1513.9L534.223 1504.36H590.142C592.933 1504.36 595.195 1502.09 595.195 1499.3C595.195 1496.51 592.933 1494.25 590.142 1494.25H534.223ZM576.963 1528.02L587.72 1537.56H532.637C529.847 1537.56 527.584 1539.82 527.584 1542.61C527.584 1545.41 529.847 1547.67 532.637 1547.67H587.72L576.963 1557.21C574.876 1559.06 574.685 1562.26 576.538 1564.35C578.39 1566.43 581.583 1566.62 583.671 1564.77L604.335 1546.43C605.47 1545.43 606.044 1544.02 606.034 1542.61C606.044 1541.21 605.47 1539.8 604.335 1538.79L583.671 1520.46C581.583 1518.61 578.39 1518.8 576.538 1520.88C574.685 1522.97 574.876 1526.16 576.963 1528.02Z" fill="black"/>
</g>
</g>
<g id="Black-M">
<g id="Solid / Arrows Horizontal Solid_10">
<path id="Shape_10" fill-rule="evenodd" clip-rule="evenodd" d="M2870.67 1061.83C2870.67 1052.17 2878.5 1044.33 2888.17 1044.33H2969.83C2979.5 1044.33 2987.33 1052.17 2987.33 1061.83V1120.17C2987.33 1129.83 2979.5 1137.67 2969.83 1137.67H2888.17C2878.5 1137.67 2870.67 1129.83 2870.67 1120.17V1061.83ZM2908.17 1070.19L2916.54 1062.77C2918.16 1061.33 2918.31 1058.84 2916.87 1057.22C2915.43 1055.6 2912.95 1055.45 2911.32 1056.89L2895.25 1071.15C2894.37 1071.94 2893.92 1073.03 2893.93 1074.12C2893.92 1075.22 2894.37 1076.31 2895.25 1077.09L2911.32 1091.36C2912.95 1092.8 2915.43 1092.65 2916.87 1091.03C2918.31 1089.4 2918.16 1086.92 2916.54 1085.48L2908.17 1078.05H2951.67C2953.84 1078.05 2955.6 1076.29 2955.6 1074.12C2955.6 1071.95 2953.84 1070.19 2951.67 1070.19H2908.17ZM2941.42 1096.46L2949.78 1103.88H2906.94C2904.77 1103.88 2903.01 1105.64 2903.01 1107.81C2903.01 1109.98 2904.77 1111.74 2906.94 1111.74H2949.78L2941.42 1119.16C2939.79 1120.6 2939.64 1123.09 2941.08 1124.71C2942.52 1126.34 2945.01 1126.48 2946.63 1125.04L2962.7 1110.78C2963.59 1110 2964.03 1108.9 2964.03 1107.81C2964.03 1106.72 2963.59 1105.62 2962.7 1104.84L2946.63 1090.58C2945.01 1089.14 2942.52 1089.28 2941.08 1090.91C2939.64 1092.53 2939.79 1095.02 2941.42 1096.46Z" fill="black"/>
</g>
</g>
<g id="Heavy-M">
<g id="Solid / Arrows Horizontal Solid_11">
<path id="Shape_11" fill-rule="evenodd" clip-rule="evenodd" d="M2574.67 1061.83C2574.67 1052.17 2582.5 1044.33 2592.17 1044.33H2673.83C2683.5 1044.33 2691.33 1052.17 2691.33 1061.83V1120.17C2691.33 1129.83 2683.5 1137.67 2673.83 1137.67H2592.17C2582.5 1137.67 2574.67 1129.83 2574.67 1120.17V1061.83ZM2612.17 1070.19L2620.54 1062.77C2622.16 1061.33 2622.31 1058.84 2620.87 1057.22C2619.43 1055.6 2616.95 1055.45 2615.32 1056.89L2599.25 1071.15C2598.37 1071.94 2597.92 1073.03 2597.93 1074.12C2597.92 1075.22 2598.37 1076.31 2599.25 1077.09L2615.32 1091.36C2616.95 1092.8 2619.43 1092.65 2620.87 1091.03C2622.31 1089.4 2622.16 1086.92 2620.54 1085.48L2612.17 1078.05H2655.67C2657.84 1078.05 2659.6 1076.29 2659.6 1074.12C2659.6 1071.95 2657.84 1070.19 2655.67 1070.19H2612.17ZM2645.42 1096.46L2653.78 1103.88H2610.94C2608.77 1103.88 2607.01 1105.64 2607.01 1107.81C2607.01 1109.98 2608.77 1111.74 2610.94 1111.74H2653.78L2645.42 1119.16C2643.79 1120.6 2643.64 1123.09 2645.08 1124.71C2646.52 1126.34 2649.01 1126.48 2650.63 1125.04L2666.7 1110.78C2667.59 1110 2668.03 1108.9 2668.03 1107.81C2668.03 1106.72 2667.59 1105.62 2666.7 1104.84L2650.63 1090.58C2649.01 1089.14 2646.52 1089.28 2645.08 1090.91C2643.64 1092.53 2643.79 1095.02 2645.42 1096.46Z" fill="black"/>
</g>
</g>
<g id="Bold-M">
<g id="Solid / Arrows Horizontal Solid_12">
<path id="Shape_12" fill-rule="evenodd" clip-rule="evenodd" d="M2278.67 1061.83C2278.67 1052.17 2286.5 1044.33 2296.17 1044.33H2377.83C2387.5 1044.33 2395.33 1052.17 2395.33 1061.83V1120.17C2395.33 1129.83 2387.5 1137.67 2377.83 1137.67H2296.17C2286.5 1137.67 2278.67 1129.83 2278.67 1120.17V1061.83ZM2316.17 1070.19L2324.54 1062.77C2326.16 1061.33 2326.31 1058.84 2324.87 1057.22C2323.43 1055.6 2320.95 1055.45 2319.32 1056.89L2303.25 1071.15C2302.37 1071.94 2301.92 1073.03 2301.93 1074.12C2301.92 1075.22 2302.37 1076.31 2303.25 1077.09L2319.32 1091.36C2320.95 1092.8 2323.43 1092.65 2324.87 1091.03C2326.31 1089.4 2326.16 1086.92 2324.54 1085.48L2316.17 1078.05H2359.67C2361.84 1078.05 2363.6 1076.29 2363.6 1074.12C2363.6 1071.95 2361.84 1070.19 2359.67 1070.19H2316.17ZM2349.42 1096.46L2357.78 1103.88H2314.94C2312.77 1103.88 2311.01 1105.64 2311.01 1107.81C2311.01 1109.98 2312.77 1111.74 2314.94 1111.74H2357.78L2349.42 1119.16C2347.79 1120.6 2347.64 1123.09 2349.08 1124.71C2350.52 1126.34 2353.01 1126.48 2354.63 1125.04L2370.7 1110.78C2371.59 1110 2372.03 1108.9 2372.03 1107.81C2372.03 1106.72 2371.59 1105.62 2370.7 1104.84L2354.63 1090.58C2353.01 1089.14 2350.52 1089.28 2349.08 1090.91C2347.64 1092.53 2347.79 1095.02 2349.42 1096.46Z" fill="black"/>
</g>
</g>
<g id="Semibold-M">
<g id="Solid / Arrows Horizontal Solid_13">
<path id="Shape_13" fill-rule="evenodd" clip-rule="evenodd" d="M1982.67 1061.83C1982.67 1052.17 1990.5 1044.33 2000.17 1044.33H2081.83C2091.5 1044.33 2099.33 1052.17 2099.33 1061.83V1120.17C2099.33 1129.83 2091.5 1137.67 2081.83 1137.67H2000.17C1990.5 1137.67 1982.67 1129.83 1982.67 1120.17V1061.83ZM2020.17 1070.19L2028.54 1062.77C2030.16 1061.33 2030.31 1058.84 2028.87 1057.22C2027.43 1055.6 2024.95 1055.45 2023.32 1056.89L2007.25 1071.15C2006.37 1071.94 2005.92 1073.03 2005.93 1074.12C2005.92 1075.22 2006.37 1076.31 2007.25 1077.09L2023.32 1091.36C2024.95 1092.8 2027.43 1092.65 2028.87 1091.03C2030.31 1089.4 2030.16 1086.92 2028.54 1085.48L2020.17 1078.05H2063.67C2065.84 1078.05 2067.6 1076.29 2067.6 1074.12C2067.6 1071.95 2065.84 1070.19 2063.67 1070.19H2020.17ZM2053.42 1096.46L2061.78 1103.88H2018.94C2016.77 1103.88 2015.01 1105.64 2015.01 1107.81C2015.01 1109.98 2016.77 1111.74 2018.94 1111.74H2061.78L2053.42 1119.16C2051.79 1120.6 2051.64 1123.09 2053.08 1124.71C2054.52 1126.34 2057.01 1126.48 2058.63 1125.04L2074.7 1110.78C2075.59 1110 2076.03 1108.9 2076.03 1107.81C2076.03 1106.72 2075.59 1105.62 2074.7 1104.84L2058.63 1090.58C2057.01 1089.14 2054.52 1089.28 2053.08 1090.91C2051.64 1092.53 2051.79 1095.02 2053.42 1096.46Z" fill="black"/>
</g>
</g>
<g id="Medium-M">
<g id="Solid / Arrows Horizontal Solid_14">
<path id="Shape_14" fill-rule="evenodd" clip-rule="evenodd" d="M1686.67 1061.83C1686.67 1052.17 1694.5 1044.33 1704.17 1044.33H1785.83C1795.5 1044.33 1803.33 1052.17 1803.33 1061.83V1120.17C1803.33 1129.83 1795.5 1137.67 1785.83 1137.67H1704.17C1694.5 1137.67 1686.67 1129.83 1686.67 1120.17V1061.83ZM1724.17 1070.19L1732.54 1062.77C1734.16 1061.33 1734.31 1058.84 1732.87 1057.22C1731.43 1055.6 1728.95 1055.45 1727.32 1056.89L1711.25 1071.15C1710.37 1071.94 1709.92 1073.03 1709.93 1074.12C1709.92 1075.22 1710.37 1076.31 1711.25 1077.09L1727.32 1091.36C1728.95 1092.8 1731.43 1092.65 1732.87 1091.03C1734.31 1089.4 1734.16 1086.92 1732.54 1085.48L1724.17 1078.05H1767.67C1769.84 1078.05 1771.6 1076.29 1771.6 1074.12C1771.6 1071.95 1769.84 1070.19 1767.67 1070.19H1724.17ZM1757.42 1096.46L1765.78 1103.88H1722.94C1720.77 1103.88 1719.01 1105.64 1719.01 1107.81C1719.01 1109.98 1720.77 1111.74 1722.94 1111.74H1765.78L1757.42 1119.16C1755.79 1120.6 1755.64 1123.09 1757.08 1124.71C1758.52 1126.34 1761.01 1126.48 1762.63 1125.04L1778.7 1110.78C1779.59 1110 1780.03 1108.9 1780.03 1107.81C1780.03 1106.72 1779.59 1105.62 1778.7 1104.84L1762.63 1090.58C1761.01 1089.14 1758.52 1089.28 1757.08 1090.91C1755.64 1092.53 1755.79 1095.02 1757.42 1096.46Z" fill="black"/>
</g>
</g>
<g id="Regular-M">
<g id="Solid / Arrows Horizontal Solid_15">
<path id="Shape_15" fill-rule="evenodd" clip-rule="evenodd" d="M1390.67 1061.83C1390.67 1052.17 1398.5 1044.33 1408.17 1044.33H1489.83C1499.5 1044.33 1507.33 1052.17 1507.33 1061.83V1120.17C1507.33 1129.83 1499.5 1137.67 1489.83 1137.67H1408.17C1398.5 1137.67 1390.67 1129.83 1390.67 1120.17V1061.83ZM1428.17 1070.19L1436.54 1062.77C1438.16 1061.33 1438.31 1058.84 1436.87 1057.22C1435.43 1055.6 1432.95 1055.45 1431.32 1056.89L1415.25 1071.15C1414.37 1071.94 1413.92 1073.03 1413.93 1074.12C1413.92 1075.22 1414.37 1076.31 1415.25 1077.09L1431.32 1091.36C1432.95 1092.8 1435.43 1092.65 1436.87 1091.03C1438.31 1089.4 1438.16 1086.92 1436.54 1085.48L1428.17 1078.05H1471.67C1473.84 1078.05 1475.6 1076.29 1475.6 1074.12C1475.6 1071.95 1473.84 1070.19 1471.67 1070.19H1428.17ZM1461.42 1096.46L1469.78 1103.88H1426.94C1424.77 1103.88 1423.01 1105.64 1423.01 1107.81C1423.01 1109.98 1424.77 1111.74 1426.94 1111.74H1469.78L1461.42 1119.16C1459.79 1120.6 1459.64 1123.09 1461.08 1124.71C1462.52 1126.34 1465.01 1126.48 1466.63 1125.04L1482.7 1110.78C1483.59 1110 1484.03 1108.9 1484.03 1107.81C1484.03 1106.72 1483.59 1105.62 1482.7 1104.84L1466.63 1090.58C1465.01 1089.14 1462.52 1089.28 1461.08 1090.91C1459.64 1092.53 1459.79 1095.02 1461.42 1096.46Z" fill="black"/>
</g>
</g>
<g id="Light-M">
<g id="Solid / Arrows Horizontal Solid_16">
<path id="Shape_16" fill-rule="evenodd" clip-rule="evenodd" d="M1094.67 1061.83C1094.67 1052.17 1102.5 1044.33 1112.17 1044.33H1193.83C1203.5 1044.33 1211.33 1052.17 1211.33 1061.83V1120.17C1211.33 1129.83 1203.5 1137.67 1193.83 1137.67H1112.17C1102.5 1137.67 1094.67 1129.83 1094.67 1120.17V1061.83ZM1132.17 1070.19L1140.54 1062.77C1142.16 1061.33 1142.31 1058.84 1140.87 1057.22C1139.43 1055.6 1136.95 1055.45 1135.32 1056.89L1119.25 1071.15C1118.37 1071.94 1117.92 1073.03 1117.93 1074.12C1117.92 1075.22 1118.37 1076.31 1119.25 1077.09L1135.32 1091.36C1136.95 1092.8 1139.43 1092.65 1140.87 1091.03C1142.31 1089.4 1142.16 1086.92 1140.54 1085.48L1132.17 1078.05H1175.67C1177.84 1078.05 1179.6 1076.29 1179.6 1074.12C1179.6 1071.95 1177.84 1070.19 1175.67 1070.19H1132.17ZM1165.42 1096.46L1173.78 1103.88H1130.94C1128.77 1103.88 1127.01 1105.64 1127.01 1107.81C1127.01 1109.98 1128.77 1111.74 1130.94 1111.74H1173.78L1165.42 1119.16C1163.79 1120.6 1163.64 1123.09 1165.08 1124.71C1166.52 1126.34 1169.01 1126.48 1170.63 1125.04L1186.7 1110.78C1187.59 1110 1188.03 1108.9 1188.03 1107.81C1188.03 1106.72 1187.59 1105.62 1186.7 1104.84L1170.63 1090.58C1169.01 1089.14 1166.52 1089.28 1165.08 1090.91C1163.64 1092.53 1163.79 1095.02 1165.42 1096.46Z" fill="black"/>
</g>
</g>
<g id="Thin-M">
<g id="Solid / Arrows Horizontal Solid_17">
<path id="Shape_17" fill-rule="evenodd" clip-rule="evenodd" d="M798.666 1061.83C798.666 1052.17 806.501 1044.33 816.166 1044.33H897.833C907.498 1044.33 915.333 1052.17 915.333 1061.83V1120.17C915.333 1129.83 907.498 1137.67 897.833 1137.67H816.166C806.501 1137.67 798.666 1129.83 798.666 1120.17V1061.83ZM836.173 1070.19L844.539 1062.77C846.162 1061.33 846.31 1058.84 844.87 1057.22C843.429 1055.6 840.945 1055.45 839.322 1056.89L823.25 1071.15C822.367 1071.94 821.92 1073.03 821.928 1074.12C821.92 1075.22 822.367 1076.31 823.25 1077.09L839.322 1091.36C840.945 1092.8 843.429 1092.65 844.87 1091.03C846.31 1089.4 846.162 1086.92 844.539 1085.48L836.173 1078.05H879.665C881.836 1078.05 883.595 1076.29 883.595 1074.12C883.595 1071.95 881.836 1070.19 879.665 1070.19H836.173ZM869.415 1096.46L877.781 1103.88H834.94C832.769 1103.88 831.009 1105.64 831.009 1107.81C831.009 1109.98 832.769 1111.74 834.94 1111.74H877.781L869.415 1119.16C867.792 1120.6 867.644 1123.09 869.084 1124.71C870.525 1126.34 873.009 1126.48 874.632 1125.04L890.704 1110.78C891.587 1110 892.034 1108.9 892.025 1107.81C892.034 1106.72 891.587 1105.62 890.704 1104.84L874.632 1090.58C873.009 1089.14 870.525 1089.28 869.084 1090.91C867.644 1092.53 867.792 1095.02 869.415 1096.46Z" fill="black"/>
</g>
</g>
<g id="Ultralight-M">
<g id="Solid / Arrows Horizontal Solid_18">
<path id="Shape_18" fill-rule="evenodd" clip-rule="evenodd" d="M502.666 1061.83C502.666 1052.17 510.501 1044.33 520.166 1044.33H601.833C611.498 1044.33 619.333 1052.17 619.333 1061.83V1120.17C619.333 1129.83 611.498 1137.67 601.833 1137.67H520.166C510.501 1137.67 502.666 1129.83 502.666 1120.17V1061.83ZM540.173 1070.19L548.539 1062.77C550.162 1061.33 550.31 1058.84 548.87 1057.22C547.429 1055.6 544.945 1055.45 543.322 1056.89L527.25 1071.15C526.367 1071.94 525.92 1073.03 525.928 1074.12C525.92 1075.22 526.367 1076.31 527.25 1077.09L543.322 1091.36C544.945 1092.8 547.429 1092.65 548.87 1091.03C550.31 1089.4 550.162 1086.92 548.539 1085.48L540.173 1078.05H583.665C585.836 1078.05 587.595 1076.29 587.595 1074.12C587.595 1071.95 585.836 1070.19 583.665 1070.19H540.173ZM573.415 1096.46L581.781 1103.88H538.94C536.769 1103.88 535.009 1105.64 535.009 1107.81C535.009 1109.98 536.769 1111.74 538.94 1111.74H581.781L573.415 1119.16C571.792 1120.6 571.644 1123.09 573.084 1124.71C574.525 1126.34 577.009 1126.48 578.632 1125.04L594.704 1110.78C595.587 1110 596.034 1108.9 596.025 1107.81C596.034 1106.72 595.587 1105.62 594.704 1104.84L578.632 1090.58C577.009 1089.14 574.525 1089.28 573.084 1090.91C571.644 1092.53 571.792 1095.02 573.415 1096.46Z" fill="black"/>
</g>
</g>
<g id="Black-S">
<g id="Solid / Arrows Horizontal Solid_19">
<path id="Shape_19" fill-rule="evenodd" clip-rule="evenodd" d="M2887.33 640.168C2887.33 633.264 2892.93 627.668 2899.83 627.668H2958.17C2965.07 627.668 2970.67 633.264 2970.67 640.168V681.835C2970.67 688.738 2965.07 694.335 2958.17 694.335H2899.83C2892.93 694.335 2887.33 688.738 2887.33 681.835V640.168ZM2914.12 646.14L2920.1 640.838C2921.26 639.808 2921.37 638.034 2920.34 636.875C2919.31 635.715 2917.53 635.609 2916.37 636.638L2904.89 646.825C2904.26 647.385 2903.94 648.165 2903.95 648.947C2903.94 649.729 2904.26 650.51 2904.89 651.07L2916.37 661.257C2917.53 662.286 2919.31 662.18 2920.34 661.02C2921.37 659.861 2921.26 658.086 2920.1 657.057L2914.12 651.755H2945.19C2946.74 651.755 2948 650.498 2948 648.947C2948 647.397 2946.74 646.14 2945.19 646.14H2914.12ZM2937.87 664.9L2943.84 670.202H2913.24C2911.69 670.202 2910.44 671.459 2910.44 673.009C2910.44 674.56 2911.69 675.817 2913.24 675.817H2943.84L2937.87 681.119C2936.71 682.148 2936.6 683.923 2937.63 685.082C2938.66 686.242 2940.44 686.348 2941.6 685.319L2953.08 675.132C2953.71 674.572 2954.03 673.791 2954.02 673.009C2954.03 672.227 2953.71 671.447 2953.08 670.887L2941.6 660.7C2940.44 659.671 2938.66 659.777 2937.63 660.937C2936.6 662.096 2936.71 663.87 2937.87 664.9Z" fill="black"/>
</g>
</g>
<g id="Heavy-S">
<g id="Solid / Arrows Horizontal Solid_20">
<path id="Shape_20" fill-rule="evenodd" clip-rule="evenodd" d="M2591.33 640.168C2591.33 633.264 2596.93 627.668 2603.83 627.668H2662.17C2669.07 627.668 2674.67 633.264 2674.67 640.168V681.835C2674.67 688.738 2669.07 694.335 2662.17 694.335H2603.83C2596.93 694.335 2591.33 688.738 2591.33 681.835V640.168ZM2618.12 646.14L2624.1 640.838C2625.26 639.808 2625.37 638.034 2624.34 636.875C2623.31 635.715 2621.53 635.609 2620.37 636.638L2608.89 646.825C2608.26 647.385 2607.94 648.165 2607.95 648.947C2607.94 649.729 2608.26 650.51 2608.89 651.07L2620.37 661.257C2621.53 662.286 2623.31 662.18 2624.34 661.02C2625.37 659.861 2625.26 658.086 2624.1 657.057L2618.12 651.755H2649.19C2650.74 651.755 2652 650.498 2652 648.947C2652 647.397 2650.74 646.14 2649.19 646.14H2618.12ZM2641.87 664.9L2647.84 670.202H2617.24C2615.69 670.202 2614.44 671.459 2614.44 673.009C2614.44 674.56 2615.69 675.817 2617.24 675.817H2647.84L2641.87 681.119C2640.71 682.148 2640.6 683.923 2641.63 685.082C2642.66 686.242 2644.44 686.348 2645.6 685.319L2657.08 675.132C2657.71 674.572 2658.03 673.791 2658.02 673.009C2658.03 672.227 2657.71 671.447 2657.08 670.887L2645.6 660.7C2644.44 659.671 2642.66 659.777 2641.63 660.937C2640.6 662.096 2640.71 663.87 2641.87 664.9Z" fill="black"/>
</g>
</g>
<g id="Bold-S">
<g id="Solid / Arrows Horizontal Solid_21">
<path id="Shape_21" fill-rule="evenodd" clip-rule="evenodd" d="M2295.33 640.168C2295.33 633.264 2300.93 627.668 2307.83 627.668H2366.17C2373.07 627.668 2378.67 633.264 2378.67 640.168V681.835C2378.67 688.738 2373.07 694.335 2366.17 694.335H2307.83C2300.93 694.335 2295.33 688.738 2295.33 681.835V640.168ZM2322.12 646.14L2328.1 640.838C2329.26 639.808 2329.37 638.034 2328.34 636.875C2327.31 635.715 2325.53 635.609 2324.37 636.638L2312.89 646.825C2312.26 647.385 2311.94 648.165 2311.95 648.947C2311.94 649.729 2312.26 650.51 2312.89 651.07L2324.37 661.257C2325.53 662.286 2327.31 662.18 2328.34 661.02C2329.37 659.861 2329.26 658.086 2328.1 657.057L2322.12 651.755H2353.19C2354.74 651.755 2356 650.498 2356 648.947C2356 647.397 2354.74 646.14 2353.19 646.14H2322.12ZM2345.87 664.9L2351.84 670.202H2321.24C2319.69 670.202 2318.44 671.459 2318.44 673.009C2318.44 674.56 2319.69 675.817 2321.24 675.817H2351.84L2345.87 681.119C2344.71 682.148 2344.6 683.923 2345.63 685.082C2346.66 686.242 2348.44 686.348 2349.6 685.319L2361.08 675.132C2361.71 674.572 2362.03 673.791 2362.02 673.009C2362.03 672.227 2361.71 671.447 2361.08 670.887L2349.6 660.7C2348.44 659.671 2346.66 659.777 2345.63 660.937C2344.6 662.096 2344.71 663.87 2345.87 664.9Z" fill="black"/>
</g>
</g>
<g id="Semibold-S">
<g id="Solid / Arrows Horizontal Solid_22">
<path id="Shape_22" fill-rule="evenodd" clip-rule="evenodd" d="M1999.33 640.168C1999.33 633.264 2004.93 627.668 2011.83 627.668H2070.17C2077.07 627.668 2082.67 633.264 2082.67 640.168V681.835C2082.67 688.738 2077.07 694.335 2070.17 694.335H2011.83C2004.93 694.335 1999.33 688.738 1999.33 681.835V640.168ZM2026.12 646.14L2032.1 640.838C2033.26 639.808 2033.37 638.034 2032.34 636.875C2031.31 635.715 2029.53 635.609 2028.37 636.638L2016.89 646.825C2016.26 647.385 2015.94 648.165 2015.95 648.947C2015.94 649.729 2016.26 650.51 2016.89 651.07L2028.37 661.257C2029.53 662.286 2031.31 662.18 2032.34 661.02C2033.37 659.861 2033.26 658.086 2032.1 657.057L2026.12 651.755H2057.19C2058.74 651.755 2060 650.498 2060 648.947C2060 647.397 2058.74 646.14 2057.19 646.14H2026.12ZM2049.87 664.9L2055.84 670.202H2025.24C2023.69 670.202 2022.44 671.459 2022.44 673.009C2022.44 674.56 2023.69 675.817 2025.24 675.817H2055.84L2049.87 681.119C2048.71 682.148 2048.6 683.923 2049.63 685.082C2050.66 686.242 2052.44 686.348 2053.6 685.319L2065.08 675.132C2065.71 674.572 2066.03 673.791 2066.02 673.009C2066.03 672.227 2065.71 671.447 2065.08 670.887L2053.6 660.7C2052.44 659.671 2050.66 659.777 2049.63 660.937C2048.6 662.096 2048.71 663.87 2049.87 664.9Z" fill="black"/>
</g>
</g>
<g id="Medium-S">
<g id="Solid / Arrows Horizontal Solid_23">
<path id="Shape_23" fill-rule="evenodd" clip-rule="evenodd" d="M1703.33 640.168C1703.33 633.264 1708.93 627.668 1715.83 627.668H1774.17C1781.07 627.668 1786.67 633.264 1786.67 640.168V681.835C1786.67 688.738 1781.07 694.335 1774.17 694.335H1715.83C1708.93 694.335 1703.33 688.738 1703.33 681.835V640.168ZM1730.12 646.14L1736.1 640.838C1737.26 639.808 1737.37 638.034 1736.34 636.875C1735.31 635.715 1733.53 635.609 1732.37 636.638L1720.89 646.825C1720.26 647.385 1719.94 648.165 1719.95 648.947C1719.94 649.729 1720.26 650.51 1720.89 651.07L1732.37 661.257C1733.53 662.286 1735.31 662.18 1736.34 661.02C1737.37 659.861 1737.26 658.086 1736.1 657.057L1730.12 651.755H1761.19C1762.74 651.755 1764 650.498 1764 648.947C1764 647.397 1762.74 646.14 1761.19 646.14H1730.12ZM1753.87 664.9L1759.84 670.202H1729.24C1727.69 670.202 1726.44 671.459 1726.44 673.009C1726.44 674.56 1727.69 675.817 1729.24 675.817H1759.84L1753.87 681.119C1752.71 682.148 1752.6 683.923 1753.63 685.082C1754.66 686.242 1756.44 686.348 1757.6 685.319L1769.08 675.132C1769.71 674.572 1770.03 673.791 1770.02 673.009C1770.03 672.227 1769.71 671.447 1769.08 670.887L1757.6 660.7C1756.44 659.671 1754.66 659.777 1753.63 660.937C1752.6 662.096 1752.71 663.87 1753.87 664.9Z" fill="black"/>
</g>
</g>
<g id="Regular-S">
<g id="Solid / Arrows Horizontal Solid_24">
<path id="Shape_24" fill-rule="evenodd" clip-rule="evenodd" d="M1407.33 640.168C1407.33 633.264 1412.93 627.668 1419.83 627.668H1478.17C1485.07 627.668 1490.67 633.264 1490.67 640.168V681.835C1490.67 688.738 1485.07 694.335 1478.17 694.335H1419.83C1412.93 694.335 1407.33 688.738 1407.33 681.835V640.168ZM1434.12 646.14L1440.1 640.838C1441.26 639.808 1441.37 638.034 1440.34 636.875C1439.31 635.715 1437.53 635.609 1436.37 636.638L1424.89 646.825C1424.26 647.385 1423.94 648.165 1423.95 648.947C1423.94 649.729 1424.26 650.51 1424.89 651.07L1436.37 661.257C1437.53 662.286 1439.31 662.18 1440.34 661.02C1441.37 659.861 1441.26 658.086 1440.1 657.057L1434.12 651.755H1465.19C1466.74 651.755 1468 650.498 1468 648.947C1468 647.397 1466.74 646.14 1465.19 646.14H1434.12ZM1457.87 664.9L1463.84 670.202H1433.24C1431.69 670.202 1430.44 671.459 1430.44 673.009C1430.44 674.56 1431.69 675.817 1433.24 675.817H1463.84L1457.87 681.119C1456.71 682.148 1456.6 683.923 1457.63 685.082C1458.66 686.242 1460.44 686.348 1461.6 685.319L1473.08 675.132C1473.71 674.572 1474.03 673.791 1474.02 673.009C1474.03 672.227 1473.71 671.447 1473.08 670.887L1461.6 660.7C1460.44 659.671 1458.66 659.777 1457.63 660.937C1456.6 662.096 1456.71 663.87 1457.87 664.9Z" fill="black"/>
</g>
</g>
<g id="Light-S">
<g id="Solid / Arrows Horizontal Solid_25">
<path id="Shape_25" fill-rule="evenodd" clip-rule="evenodd" d="M1111.33 640.168C1111.33 633.264 1116.93 627.668 1123.83 627.668H1182.17C1189.07 627.668 1194.67 633.264 1194.67 640.168V681.835C1194.67 688.738 1189.07 694.335 1182.17 694.335H1123.83C1116.93 694.335 1111.33 688.738 1111.33 681.835V640.168ZM1138.12 646.14L1144.1 640.838C1145.26 639.808 1145.37 638.034 1144.34 636.875C1143.31 635.715 1141.53 635.609 1140.37 636.638L1128.89 646.825C1128.26 647.385 1127.94 648.165 1127.95 648.947C1127.94 649.729 1128.26 650.51 1128.89 651.07L1140.37 661.257C1141.53 662.286 1143.31 662.18 1144.34 661.02C1145.37 659.861 1145.26 658.086 1144.1 657.057L1138.12 651.755H1169.19C1170.74 651.755 1172 650.498 1172 648.947C1172 647.397 1170.74 646.14 1169.19 646.14H1138.12ZM1161.87 664.9L1167.84 670.202H1137.24C1135.69 670.202 1134.44 671.459 1134.44 673.009C1134.44 674.56 1135.69 675.817 1137.24 675.817H1167.84L1161.87 681.119C1160.71 682.148 1160.6 683.923 1161.63 685.082C1162.66 686.242 1164.44 686.348 1165.6 685.319L1177.08 675.132C1177.71 674.572 1178.03 673.791 1178.02 673.009C1178.03 672.227 1177.71 671.447 1177.08 670.887L1165.6 660.7C1164.44 659.671 1162.66 659.777 1161.63 660.937C1160.6 662.096 1160.71 663.87 1161.87 664.9Z" fill="black"/>
</g>
</g>
<g id="Thin-S">
<g id="Solid / Arrows Horizontal Solid_26">
<path id="Shape_26" fill-rule="evenodd" clip-rule="evenodd" d="M815.334 640.168C815.334 633.264 820.93 627.668 827.834 627.668H886.167C893.071 627.668 898.667 633.264 898.667 640.168V681.835C898.667 688.738 893.071 694.335 886.167 694.335H827.834C820.93 694.335 815.334 688.738 815.334 681.835V640.168ZM842.124 646.14L848.1 640.838C849.26 639.808 849.366 638.034 848.337 636.875C847.308 635.715 845.533 635.609 844.374 636.638L832.894 646.825C832.263 647.385 831.944 648.165 831.95 648.947C831.944 649.729 832.263 650.51 832.894 651.07L844.374 661.257C845.533 662.286 847.308 662.18 848.337 661.02C849.366 659.861 849.26 658.086 848.1 657.057L842.124 651.755H873.191C874.741 651.755 875.998 650.498 875.998 648.947C875.998 647.397 874.741 646.14 873.191 646.14H842.124ZM865.869 664.9L871.845 670.202H841.244C839.693 670.202 838.436 671.459 838.436 673.009C838.436 674.56 839.693 675.817 841.244 675.817H871.845L865.869 681.119C864.709 682.148 864.604 683.923 865.633 685.082C866.662 686.242 868.436 686.348 869.596 685.319L881.075 675.132C881.706 674.572 882.025 673.791 882.019 673.009C882.025 672.227 881.706 671.447 881.075 670.887L869.596 660.7C868.436 659.671 866.662 659.777 865.633 660.937C864.604 662.096 864.709 663.87 865.869 664.9Z" fill="black"/>
</g>
</g>
<g id="Ultralight-S">
<g id="Solid / Arrows Horizontal Solid_27">
<path id="Shape_27" fill-rule="evenodd" clip-rule="evenodd" d="M519.334 640.168C519.334 633.264 524.93 627.668 531.834 627.668H590.167C597.071 627.668 602.667 633.264 602.667 640.168V681.835C602.667 688.738 597.071 694.335 590.167 694.335H531.834C524.93 694.335 519.334 688.738 519.334 681.835V640.168ZM546.124 646.14L552.1 640.838C553.26 639.808 553.366 638.034 552.337 636.875C551.308 635.715 549.533 635.609 548.374 636.638L536.894 646.825C536.263 647.385 535.944 648.165 535.95 648.947C535.944 649.729 536.263 650.51 536.894 651.07L548.374 661.257C549.533 662.286 551.308 662.18 552.337 661.02C553.366 659.861 553.26 658.086 552.1 657.057L546.124 651.755H577.191C578.741 651.755 579.998 650.498 579.998 648.947C579.998 647.397 578.741 646.14 577.191 646.14H546.124ZM569.869 664.9L575.845 670.202H545.244C543.693 670.202 542.436 671.459 542.436 673.009C542.436 674.56 543.693 675.817 545.244 675.817H575.845L569.869 681.119C568.709 682.148 568.604 683.923 569.633 685.082C570.662 686.242 572.436 686.348 573.596 685.319L585.075 675.132C585.706 674.572 586.025 673.791 586.019 673.009C586.025 672.227 585.706 671.447 585.075 670.887L573.596 660.7C572.436 659.671 570.662 659.777 569.633 660.937C568.604 662.096 568.709 663.87 569.869 664.9Z" fill="black"/>
</g>
</g>
</g>
</g>
<defs>
<clipPath id="clip0_805_27002">
<rect width="3300" height="2200" fill="white"/>
</clipPath>
</defs>
</svg>
