<svg width="3300" height="2200" viewBox="0 0 3300 2200" fill="none" xmlns="http://www.w3.org/2000/svg">
<rect width="3300" height="2200" fill="#E5E5E5"/>
<g id="Communication / Outline / Headset" clip-path="url(#clip0_0_1)">
<g id="Notes">
<path id="artboard" d="M3300 0H0V2200H3300V0Z" fill="white"/>
<path id="Vector" d="M263 292H3036" stroke="black" stroke-width="0.5"/>
<text id="Weight/Scale Variations" fill="black" xml:space="preserve" style="white-space: pre" font-family="Roboto" font-size="12" letter-spacing="0em"><tspan x="263" y="321.102">Weight/Scale Variations</tspan></text>
<text id="Ultralight" fill="black" xml:space="preserve" style="white-space: pre" font-family="Roboto" font-size="12" letter-spacing="0em"><tspan x="535.211" y="321.102">Ultralight</tspan></text>
<text id="Thin" fill="black" xml:space="preserve" style="white-space: pre" font-family="Roboto" font-size="12" letter-spacing="0em"><tspan x="844.422" y="321.102">Thin</tspan></text>
<text id="Light" fill="black" xml:space="preserve" style="white-space: pre" font-family="Roboto" font-size="12" letter-spacing="0em"><tspan x="1139.63" y="321.102">Light</tspan></text>
<text id="Regular" fill="black" xml:space="preserve" style="white-space: pre" font-family="Roboto" font-size="12" letter-spacing="0em"><tspan x="1429.34" y="321.102">Regular</tspan></text>
<text id="Medium" fill="black" xml:space="preserve" style="white-space: pre" font-family="Roboto" font-size="12" letter-spacing="0em"><tspan x="1724.56" y="321.102">Medium</tspan></text>
<text id="Semibold" fill="black" xml:space="preserve" style="white-space: pre" font-family="Roboto" font-size="12" letter-spacing="0em"><tspan x="2017.77" y="321.102">Semibold</tspan></text>
<text id="Bold" fill="black" xml:space="preserve" style="white-space: pre" font-family="Roboto" font-size="12" letter-spacing="0em"><tspan x="2327.48" y="321.102">Bold</tspan></text>
<text id="Heavy" fill="black" xml:space="preserve" style="white-space: pre" font-family="Roboto" font-size="12" letter-spacing="0em"><tspan x="2620.19" y="321.102">Heavy</tspan></text>
<text id="Black" fill="black" xml:space="preserve" style="white-space: pre" font-family="Roboto" font-size="12" letter-spacing="0em"><tspan x="2918.4" y="321.102">Black</tspan></text>
<path id="Vector_2" d="M263 1903H3036" stroke="black" stroke-width="0.5"/>
<g id="Group">
<path id="Vector_3" d="M272.248 1933.83C276.555 1933.83 280.139 1930.26 280.139 1925.95C280.139 1921.64 276.545 1918.07 272.238 1918.07C267.941 1918.07 264.367 1921.64 264.367 1925.95C264.367 1930.26 267.951 1933.83 272.248 1933.83ZM272.248 1932.35C268.703 1932.35 265.871 1929.5 265.871 1925.95C265.871 1922.39 268.693 1919.55 272.238 1919.55C275.793 1919.55 278.635 1922.39 278.644 1925.95C278.654 1929.5 275.803 1932.35 272.248 1932.35ZM272.229 1929.57C272.697 1929.57 272.971 1929.26 272.971 1928.74V1926.68H275.197C275.695 1926.68 276.037 1926.43 276.037 1925.96C276.037 1925.48 275.715 1925.22 275.197 1925.22H272.971V1922.99C272.971 1922.47 272.697 1922.15 272.229 1922.15C271.76 1922.15 271.506 1922.49 271.506 1922.99V1925.22H269.299C268.781 1925.22 268.449 1925.48 268.449 1925.96C268.449 1926.43 268.801 1926.68 269.299 1926.68H271.506V1928.74C271.506 1929.24 271.76 1929.57 272.229 1929.57Z" fill="black"/>
</g>
<g id="Group_2">
<path id="Vector_4" d="M293.215 1935.91C298.664 1935.91 303.176 1931.4 303.176 1925.95C303.176 1920.51 298.654 1915.99 293.205 1915.99C287.766 1915.99 283.254 1920.51 283.254 1925.95C283.254 1931.4 287.775 1935.91 293.215 1935.91ZM293.215 1934.25C288.605 1934.25 284.924 1930.56 284.924 1925.95C284.924 1921.35 288.596 1917.65 293.205 1917.65C297.814 1917.65 301.506 1921.35 301.516 1925.95C301.525 1930.56 297.824 1934.25 293.215 1934.25ZM293.195 1930.59C293.713 1930.59 294.025 1930.23 294.025 1929.66V1926.77H297.082C297.629 1926.77 298.01 1926.49 298.01 1925.97C298.01 1925.44 297.648 1925.14 297.082 1925.14H294.025V1922.07C294.025 1921.5 293.713 1921.14 293.195 1921.14C292.678 1921.14 292.385 1921.52 292.385 1922.07V1925.14H289.338C288.771 1925.14 288.4 1925.44 288.4 1925.97C288.4 1926.49 288.791 1926.77 289.338 1926.77H292.385V1929.66C292.385 1930.21 292.678 1930.59 293.195 1930.59Z" fill="black"/>
</g>
<g id="Group_3">
<path id="Vector_5" d="M319.895 1938.67C326.857 1938.67 332.619 1932.92 332.619 1925.96C332.619 1919 326.848 1913.24 319.885 1913.24C312.932 1913.24 307.18 1919 307.18 1925.96C307.18 1932.92 312.941 1938.67 319.895 1938.67ZM319.895 1936.86C313.859 1936.86 309.006 1931.99 309.006 1925.96C309.006 1919.92 313.85 1915.06 319.885 1915.06C325.93 1915.06 330.783 1919.92 330.793 1925.96C330.803 1931.99 325.939 1936.86 319.895 1936.86ZM319.875 1931.94C320.441 1931.94 320.793 1931.54 320.793 1930.94V1926.87H325.031C325.617 1926.87 326.037 1926.54 326.037 1925.98C326.037 1925.4 325.647 1925.06 325.031 1925.06H320.793V1920.81C320.793 1920.2 320.441 1919.81 319.875 1919.81C319.309 1919.81 318.986 1920.22 318.986 1920.81V1925.06H314.758C314.143 1925.06 313.732 1925.4 313.732 1925.98C313.732 1926.54 314.162 1926.87 314.758 1926.87H318.986V1930.94C318.986 1931.53 319.309 1931.94 319.875 1931.94Z" fill="black"/>
</g>
<text id="Design Variations" fill="black" xml:space="preserve" style="white-space: pre" font-family="Roboto" font-size="12" letter-spacing="0em"><tspan x="263" y="1952.1">Design Variations</tspan></text>
<text id="Symbols are supported in up to nine weights and three scales." fill="black" xml:space="preserve" style="white-space: pre" font-family="Roboto" font-size="12" letter-spacing="0em"><tspan x="263" y="1970.1">Symbols are supported in up to nine weights and three scales.</tspan></text>
<text id="For optimal layout with text and other symbols, vertically align" fill="black" xml:space="preserve" style="white-space: pre" font-family="Roboto" font-size="12" letter-spacing="0em"><tspan x="263" y="1988.1">For optimal layout with text and other symbols, vertically align</tspan></text>
<text id="symbols with the adjacent text." fill="black" xml:space="preserve" style="white-space: pre" font-family="Roboto" font-size="12" letter-spacing="0em"><tspan x="263" y="2006.1">symbols with the adjacent text.</tspan></text>
<path id="Vector_6" opacity="0.4" d="M779 1919H776V1933H779V1919Z" fill="#00AEEF"/>
<g id="Group_4">
<path id="Vector_7" d="M789.527 1933H791.373L786.178 1918.91H784.439L779.244 1933H781.09L782.506 1928.97H788.111L789.527 1933ZM785.279 1921.05H785.338L787.594 1927.47H783.023L785.279 1921.05Z" fill="black"/>
</g>
<path id="Vector_8" opacity="0.4" d="M794.617 1919H791.617V1933H794.617V1919Z" fill="#00AEEF"/>
<text id="Margins" fill="black" xml:space="preserve" style="white-space: pre" font-family="Roboto" font-size="12" letter-spacing="0em"><tspan x="776" y="1952.1">Margins</tspan></text>
<text id="Leading and trailing margins on the left and right side of each symbol" fill="black" xml:space="preserve" style="white-space: pre" font-family="Roboto" font-size="12" letter-spacing="0em"><tspan x="776" y="1970.1">Leading and trailing margins on the left and right side of each symbol</tspan></text>
<text id="can be adjusted by modifying the width of the blue rectangles." fill="black" xml:space="preserve" style="white-space: pre" font-family="Roboto" font-size="12" letter-spacing="0em"><tspan x="776" y="1988.1">can be adjusted by modifying the width of the blue rectangles.</tspan></text>
<text id="Modifications are automatically applied proportionally to all" fill="black" xml:space="preserve" style="white-space: pre" font-family="Roboto" font-size="12" letter-spacing="0em"><tspan x="776" y="2006.1">Modifications are automatically applied proportionally to all</tspan></text>
<text id="scales and weights." fill="black" xml:space="preserve" style="white-space: pre" font-family="Roboto" font-size="12" letter-spacing="0em"><tspan x="776" y="2024.1">scales and weights.</tspan></text>
<g id="Group_5">
<path id="Vector_9" d="M1291.83 1936.11L1293.37 1937.66C1294.22 1938.49 1295.19 1938.42 1296.06 1937.46L1306.27 1926.34C1306.7 1926.63 1307.1 1926.62 1307.56 1926.52L1308.61 1926.31L1309.3 1927L1309.25 1927.52C1309.19 1928.05 1309.35 1928.47 1309.85 1928.97L1310.66 1929.78C1311.17 1930.28 1311.82 1930.31 1312.3 1929.83L1315.55 1926.58C1316.03 1926.1 1316.01 1925.45 1315.5 1924.94L1314.68 1924.12C1314.19 1923.62 1313.77 1923.45 1313.24 1923.53L1312.71 1923.58L1312.06 1922.92L1312.34 1921.78C1312.49 1921.21 1312.34 1920.74 1311.71 1920.14L1309.3 1917.75C1305.76 1914.22 1301.23 1914.33 1298.11 1917.46C1297.69 1917.89 1297.64 1918.48 1297.92 1918.91C1298.15 1919.28 1298.63 1919.5 1299.27 1919.34C1300.79 1918.96 1302.3 1919.07 1303.78 1920.08L1303.16 1921.66C1302.93 1922.25 1302.94 1922.73 1303.18 1923.16L1292.02 1933.44C1291.08 1934.31 1290.97 1935.25 1291.83 1936.11ZM1299.67 1917.85C1302.34 1915.86 1305.65 1916.17 1308.05 1918.58L1310.68 1921.19C1310.91 1921.43 1310.94 1921.61 1310.88 1921.91L1310.5 1923.47L1312.08 1925.04L1313.04 1924.95C1313.33 1924.92 1313.41 1924.94 1313.64 1925.17L1314.26 1925.79L1311.51 1928.54L1310.88 1927.92C1310.66 1927.7 1310.64 1927.6 1310.67 1927.32L1310.76 1926.36L1309.19 1924.8L1307.57 1925.11C1307.29 1925.17 1307.14 1925.17 1306.91 1924.92L1304.73 1922.75C1304.51 1922.51 1304.48 1922.37 1304.61 1922.05L1305.55 1919.78C1303.95 1918.24 1301.84 1917.39 1299.8 1918.05C1299.71 1918.08 1299.64 1918.06 1299.61 1918.02C1299.59 1917.97 1299.59 1917.92 1299.67 1917.85ZM1293.1 1935.41C1292.61 1934.91 1292.79 1934.61 1293.12 1934.31L1304.08 1924.19L1305.31 1925.42L1295.15 1936.35C1294.85 1936.68 1294.47 1936.78 1294.07 1936.38L1293.1 1935.41Z" fill="black"/>
</g>
<text id="Exporting" fill="black" xml:space="preserve" style="white-space: pre" font-family="Roboto" font-size="12" letter-spacing="0em"><tspan x="1289" y="1952.1">Exporting</tspan></text>
<text id="Symbols should be outlined when exporting to ensure the" fill="black" xml:space="preserve" style="white-space: pre" font-family="Roboto" font-size="12" letter-spacing="0em"><tspan x="1289" y="1970.1">Symbols should be outlined when exporting to ensure the</tspan></text>
<text id="design is preserved when submitting to Xcode." fill="black" xml:space="preserve" style="white-space: pre" font-family="Roboto" font-size="12" letter-spacing="0em"><tspan x="1289" y="1988.1">design is preserved when submitting to Xcode.</tspan></text>
<text id="template-version" fill="black" xml:space="preserve" style="white-space: pre" font-family="Roboto" font-size="12" letter-spacing="0em"><tspan x="2958" y="1932.1">Template v.1.0</tspan></text>
<text id="Generated from pencil.circle" fill="black" xml:space="preserve" style="white-space: pre" font-family="Roboto" font-size="12" letter-spacing="0em"><tspan x="2885" y="1950.1">Generated from pencil.circle</tspan></text>
<text id="Typeset at 100 points" fill="black" xml:space="preserve" style="white-space: pre" font-family="Roboto" font-size="12" letter-spacing="0em"><tspan x="2921" y="1968.1">Typeset at 100 points</tspan></text>
<text id="Small" fill="black" xml:space="preserve" style="white-space: pre" font-family="Roboto" font-size="12" letter-spacing="0em"><tspan x="263" y="725.102">Small</tspan></text>
<text id="Medium_2" fill="black" xml:space="preserve" style="white-space: pre" font-family="Roboto" font-size="12" letter-spacing="0em"><tspan x="263" y="1155.1">Medium</tspan></text>
<text id="Large" fill="black" xml:space="preserve" style="white-space: pre" font-family="Roboto" font-size="12" letter-spacing="0em"><tspan x="263" y="1585.1">Large</tspan></text>
</g>
<g id="Guides">
<g id="H-reference">
<path id="Vector_10" d="M393.932 696H396.666L369.566 625.541H367.076L339.977 696H342.662L351.94 671.537H384.703L393.932 696ZM368.199 628.91H368.443L383.824 669.291H352.818L368.199 628.91Z" fill="#27AAE1"/>
</g>
<path id="Baseline-S" d="M263 696H3036" stroke="#27AAE1" stroke-width="0.577"/>
<path id="Capline-S" d="M263 626H3036" stroke="#27AAE1" stroke-width="0.577"/>
<g id="H-reference_2">
<path id="Vector_11" d="M393.932 1126H396.666L369.566 1055.54H367.076L339.977 1126H342.662L351.94 1101.54H384.703L393.932 1126ZM368.199 1058.91H368.443L383.824 1099.29H352.818L368.199 1058.91Z" fill="#27AAE1"/>
</g>
<path id="Baseline-M" d="M263 1126H3036" stroke="#27AAE1" stroke-width="0.577"/>
<path id="Capline-M" d="M263 1056H3036" stroke="#27AAE1" stroke-width="0.577"/>
<g id="H-reference_3">
<path id="Vector_12" d="M393.932 1556H396.666L369.566 1485.54H367.076L339.977 1556H342.662L351.94 1531.54H384.703L393.932 1556ZM368.199 1488.91H368.443L383.824 1529.29H352.818L368.199 1488.91Z" fill="#27AAE1"/>
</g>
<g id="Group 1">
<path id="Baseline-L" d="M263 1556H3036" stroke="#27AAE1" stroke-width="0.577"/>
<path id="Capline-L" d="M263 1486H3036" stroke="#27AAE1" stroke-width="0.577"/>
</g>
<path id="left-margin" opacity="0.4" d="M1400.04 1030.79H1391.3V1150.13H1400.04V1030.79Z" fill="#00AEEF"/>
<path id="right-margin" opacity="0.4" d="M1506.39 1030.79H1497.65V1150.13H1506.39V1030.79Z" fill="#00AEEF"/>
</g>
<g id="Symbols">
<g id="Black-L">
<g id="Outline / Headset Outline">
<path id="Shape" fill-rule="evenodd" clip-rule="evenodd" d="M2896.37 1503.38C2896.37 1485.36 2910.98 1470.75 2929 1470.75C2947.02 1470.75 2961.62 1485.36 2961.62 1503.37V1537.15C2961.62 1548.47 2953.64 1557.94 2943 1560.22C2940.83 1554.61 2935.38 1550.63 2929 1550.63C2920.72 1550.63 2914 1557.34 2914 1565.63C2914 1573.91 2920.72 1580.63 2929 1580.63C2935.73 1580.63 2941.43 1576.19 2943.33 1570.08C2957.4 1567.83 2968.53 1556.78 2970.91 1542.75H2976.25C2984.33 1542.75 2990.87 1536.2 2990.87 1528.13V1513.88C2990.87 1505.8 2984.33 1499.25 2976.25 1499.25L2971.18 1499.25C2969.1 1477.78 2951.01 1461 2929 1461C2906.99 1461 2888.9 1477.78 2886.82 1499.25H2881.75C2873.67 1499.25 2867.12 1505.8 2867.12 1513.87V1528.12C2867.12 1536.2 2873.67 1542.75 2881.75 1542.75H2891.29C2891.36 1542.75 2891.43 1542.75 2891.5 1542.75C2894.19 1542.75 2896.37 1540.57 2896.37 1537.88V1503.38ZM2971.37 1509V1533H2976.25C2978.94 1533 2981.12 1530.82 2981.12 1528.13V1513.88C2981.12 1511.18 2978.94 1509 2976.25 1509H2971.37ZM2881.75 1509H2886.62V1533H2881.75C2879.06 1533 2876.87 1530.82 2876.87 1528.12V1513.87C2876.87 1511.18 2879.06 1509 2881.75 1509ZM2934.25 1565.63C2934.25 1568.52 2931.9 1570.88 2929 1570.88C2926.1 1570.88 2923.75 1568.52 2923.75 1565.63C2923.75 1562.73 2926.1 1560.38 2929 1560.38C2931.9 1560.38 2934.25 1562.73 2934.25 1565.63Z" fill="black"/>
</g>
</g>
<g id="Heavy-L">
<g id="Outline / Headset Outline_2">
<path id="Shape_2" fill-rule="evenodd" clip-rule="evenodd" d="M2600.37 1503.38C2600.37 1485.36 2614.98 1470.75 2633 1470.75C2651.02 1470.75 2665.62 1485.36 2665.62 1503.37V1537.15C2665.62 1548.47 2657.64 1557.94 2647 1560.22C2644.83 1554.61 2639.38 1550.63 2633 1550.63C2624.72 1550.63 2618 1557.34 2618 1565.63C2618 1573.91 2624.72 1580.63 2633 1580.63C2639.73 1580.63 2645.43 1576.19 2647.33 1570.08C2661.4 1567.83 2672.53 1556.78 2674.91 1542.75H2680.25C2688.33 1542.75 2694.87 1536.2 2694.87 1528.13V1513.88C2694.87 1505.8 2688.33 1499.25 2680.25 1499.25L2675.18 1499.25C2673.1 1477.78 2655.01 1461 2633 1461C2610.99 1461 2592.9 1477.78 2590.82 1499.25H2585.75C2577.67 1499.25 2571.12 1505.8 2571.12 1513.87V1528.12C2571.12 1536.2 2577.67 1542.75 2585.75 1542.75H2595.29C2595.36 1542.75 2595.43 1542.75 2595.5 1542.75C2598.19 1542.75 2600.37 1540.57 2600.37 1537.88V1503.38ZM2675.37 1509V1533H2680.25C2682.94 1533 2685.12 1530.82 2685.12 1528.13V1513.88C2685.12 1511.18 2682.94 1509 2680.25 1509H2675.37ZM2585.75 1509H2590.62V1533H2585.75C2583.06 1533 2580.87 1530.82 2580.87 1528.12V1513.87C2580.87 1511.18 2583.06 1509 2585.75 1509ZM2638.25 1565.63C2638.25 1568.52 2635.9 1570.88 2633 1570.88C2630.1 1570.88 2627.75 1568.52 2627.75 1565.63C2627.75 1562.73 2630.1 1560.38 2633 1560.38C2635.9 1560.38 2638.25 1562.73 2638.25 1565.63Z" fill="black"/>
</g>
</g>
<g id="Bold-L">
<g id="Outline / Headset Outline_3">
<path id="Shape_3" fill-rule="evenodd" clip-rule="evenodd" d="M2304.37 1503.38C2304.37 1485.36 2318.98 1470.75 2337 1470.75C2355.02 1470.75 2369.62 1485.36 2369.62 1503.37V1537.15C2369.62 1548.47 2361.64 1557.94 2351 1560.22C2348.83 1554.61 2343.38 1550.63 2337 1550.63C2328.72 1550.63 2322 1557.34 2322 1565.63C2322 1573.91 2328.72 1580.63 2337 1580.63C2343.73 1580.63 2349.43 1576.19 2351.33 1570.08C2365.4 1567.83 2376.53 1556.78 2378.91 1542.75H2384.25C2392.33 1542.75 2398.87 1536.2 2398.87 1528.13V1513.88C2398.87 1505.8 2392.33 1499.25 2384.25 1499.25L2379.18 1499.25C2377.1 1477.78 2359.01 1461 2337 1461C2314.99 1461 2296.9 1477.78 2294.82 1499.25H2289.75C2281.67 1499.25 2275.12 1505.8 2275.12 1513.87V1528.12C2275.12 1536.2 2281.67 1542.75 2289.75 1542.75H2299.29C2299.36 1542.75 2299.43 1542.75 2299.5 1542.75C2302.19 1542.75 2304.37 1540.57 2304.37 1537.88V1503.38ZM2379.37 1509V1533H2384.25C2386.94 1533 2389.12 1530.82 2389.12 1528.13V1513.88C2389.12 1511.18 2386.94 1509 2384.25 1509H2379.37ZM2289.75 1509H2294.62V1533H2289.75C2287.06 1533 2284.87 1530.82 2284.87 1528.12V1513.87C2284.87 1511.18 2287.06 1509 2289.75 1509ZM2342.25 1565.63C2342.25 1568.52 2339.9 1570.88 2337 1570.88C2334.1 1570.88 2331.75 1568.52 2331.75 1565.63C2331.75 1562.73 2334.1 1560.38 2337 1560.38C2339.9 1560.38 2342.25 1562.73 2342.25 1565.63Z" fill="black"/>
</g>
</g>
<g id="Semibold-L">
<g id="Outline / Headset Outline_4">
<path id="Shape_4" fill-rule="evenodd" clip-rule="evenodd" d="M2008.37 1503.38C2008.37 1485.36 2022.98 1470.75 2041 1470.75C2059.02 1470.75 2073.62 1485.36 2073.62 1503.37V1537.15C2073.62 1548.47 2065.64 1557.94 2055 1560.22C2052.83 1554.61 2047.38 1550.63 2041 1550.63C2032.72 1550.63 2026 1557.34 2026 1565.63C2026 1573.91 2032.72 1580.63 2041 1580.63C2047.73 1580.63 2053.43 1576.19 2055.33 1570.08C2069.4 1567.83 2080.53 1556.78 2082.91 1542.75H2088.25C2096.33 1542.75 2102.87 1536.2 2102.87 1528.13V1513.88C2102.87 1505.8 2096.33 1499.25 2088.25 1499.25L2083.18 1499.25C2081.1 1477.78 2063.01 1461 2041 1461C2018.99 1461 2000.9 1477.78 1998.82 1499.25H1993.75C1985.67 1499.25 1979.12 1505.8 1979.12 1513.87V1528.12C1979.12 1536.2 1985.67 1542.75 1993.75 1542.75H2003.29C2003.36 1542.75 2003.43 1542.75 2003.5 1542.75C2006.19 1542.75 2008.37 1540.57 2008.37 1537.88V1503.38ZM2083.37 1509V1533H2088.25C2090.94 1533 2093.12 1530.82 2093.12 1528.13V1513.88C2093.12 1511.18 2090.94 1509 2088.25 1509H2083.37ZM1993.75 1509H1998.62V1533H1993.75C1991.06 1533 1988.87 1530.82 1988.87 1528.12V1513.87C1988.87 1511.18 1991.06 1509 1993.75 1509ZM2046.25 1565.63C2046.25 1568.52 2043.9 1570.88 2041 1570.88C2038.1 1570.88 2035.75 1568.52 2035.75 1565.63C2035.75 1562.73 2038.1 1560.38 2041 1560.38C2043.9 1560.38 2046.25 1562.73 2046.25 1565.63Z" fill="black"/>
</g>
</g>
<g id="Medium-L">
<g id="Outline / Headset Outline_5">
<path id="Shape_5" fill-rule="evenodd" clip-rule="evenodd" d="M1712.37 1503.38C1712.37 1485.36 1726.98 1470.75 1745 1470.75C1763.02 1470.75 1777.62 1485.36 1777.62 1503.37V1537.15C1777.62 1548.47 1769.64 1557.94 1759 1560.22C1756.83 1554.61 1751.38 1550.63 1745 1550.63C1736.72 1550.63 1730 1557.34 1730 1565.63C1730 1573.91 1736.72 1580.63 1745 1580.63C1751.73 1580.63 1757.43 1576.19 1759.33 1570.08C1773.4 1567.83 1784.53 1556.78 1786.91 1542.75H1792.25C1800.33 1542.75 1806.87 1536.2 1806.87 1528.13V1513.88C1806.87 1505.8 1800.33 1499.25 1792.25 1499.25L1787.18 1499.25C1785.1 1477.78 1767.01 1461 1745 1461C1722.99 1461 1704.9 1477.78 1702.82 1499.25H1697.75C1689.67 1499.25 1683.12 1505.8 1683.12 1513.87V1528.12C1683.12 1536.2 1689.67 1542.75 1697.75 1542.75H1707.29C1707.36 1542.75 1707.43 1542.75 1707.5 1542.75C1710.19 1542.75 1712.37 1540.57 1712.37 1537.88V1503.38ZM1787.37 1509V1533H1792.25C1794.94 1533 1797.12 1530.82 1797.12 1528.13V1513.88C1797.12 1511.18 1794.94 1509 1792.25 1509H1787.37ZM1697.75 1509H1702.62V1533H1697.75C1695.06 1533 1692.87 1530.82 1692.87 1528.12V1513.87C1692.87 1511.18 1695.06 1509 1697.75 1509ZM1750.25 1565.63C1750.25 1568.52 1747.9 1570.88 1745 1570.88C1742.1 1570.88 1739.75 1568.52 1739.75 1565.63C1739.75 1562.73 1742.1 1560.38 1745 1560.38C1747.9 1560.38 1750.25 1562.73 1750.25 1565.63Z" fill="black"/>
</g>
</g>
<g id="Regular-L">
<g id="Outline / Headset Outline_6">
<path id="Shape_6" fill-rule="evenodd" clip-rule="evenodd" d="M1416.37 1503.38C1416.37 1485.36 1430.98 1470.75 1449 1470.75C1467.02 1470.75 1481.62 1485.36 1481.62 1503.37V1537.15C1481.62 1548.47 1473.64 1557.94 1463 1560.22C1460.83 1554.61 1455.38 1550.63 1449 1550.63C1440.72 1550.63 1434 1557.34 1434 1565.63C1434 1573.91 1440.72 1580.63 1449 1580.63C1455.73 1580.63 1461.43 1576.19 1463.33 1570.08C1477.4 1567.83 1488.53 1556.78 1490.91 1542.75H1496.25C1504.33 1542.75 1510.87 1536.2 1510.87 1528.13V1513.88C1510.87 1505.8 1504.33 1499.25 1496.25 1499.25L1491.18 1499.25C1489.1 1477.78 1471.01 1461 1449 1461C1426.99 1461 1408.9 1477.78 1406.82 1499.25H1401.75C1393.67 1499.25 1387.12 1505.8 1387.12 1513.87V1528.12C1387.12 1536.2 1393.67 1542.75 1401.75 1542.75H1411.29C1411.36 1542.75 1411.43 1542.75 1411.5 1542.75C1414.19 1542.75 1416.37 1540.57 1416.37 1537.88V1503.38ZM1491.37 1509V1533H1496.25C1498.94 1533 1501.12 1530.82 1501.12 1528.13V1513.88C1501.12 1511.18 1498.94 1509 1496.25 1509H1491.37ZM1401.75 1509H1406.62V1533H1401.75C1399.06 1533 1396.87 1530.82 1396.87 1528.12V1513.87C1396.87 1511.18 1399.06 1509 1401.75 1509ZM1454.25 1565.63C1454.25 1568.52 1451.9 1570.88 1449 1570.88C1446.1 1570.88 1443.75 1568.52 1443.75 1565.63C1443.75 1562.73 1446.1 1560.38 1449 1560.38C1451.9 1560.38 1454.25 1562.73 1454.25 1565.63Z" fill="black"/>
</g>
</g>
<g id="Light-L">
<g id="Outline / Headset Outline_7">
<path id="Shape_7" fill-rule="evenodd" clip-rule="evenodd" d="M1120.37 1503.38C1120.37 1485.36 1134.98 1470.75 1153 1470.75C1171.02 1470.75 1185.62 1485.36 1185.62 1503.37V1537.15C1185.62 1548.47 1177.64 1557.94 1167 1560.22C1164.83 1554.61 1159.38 1550.63 1153 1550.63C1144.72 1550.63 1138 1557.34 1138 1565.63C1138 1573.91 1144.72 1580.63 1153 1580.63C1159.73 1580.63 1165.43 1576.19 1167.33 1570.08C1181.4 1567.83 1192.53 1556.78 1194.91 1542.75H1200.25C1208.33 1542.75 1214.87 1536.2 1214.87 1528.13V1513.88C1214.87 1505.8 1208.33 1499.25 1200.25 1499.25L1195.18 1499.25C1193.1 1477.78 1175.01 1461 1153 1461C1130.99 1461 1112.9 1477.78 1110.82 1499.25H1105.75C1097.67 1499.25 1091.12 1505.8 1091.12 1513.87V1528.12C1091.12 1536.2 1097.67 1542.75 1105.75 1542.75H1115.29C1115.36 1542.75 1115.43 1542.75 1115.5 1542.75C1118.19 1542.75 1120.37 1540.57 1120.37 1537.88V1503.38ZM1195.37 1509V1533H1200.25C1202.94 1533 1205.12 1530.82 1205.12 1528.13V1513.88C1205.12 1511.18 1202.94 1509 1200.25 1509H1195.37ZM1105.75 1509H1110.62V1533H1105.75C1103.06 1533 1100.87 1530.82 1100.87 1528.12V1513.87C1100.87 1511.18 1103.06 1509 1105.75 1509ZM1158.25 1565.63C1158.25 1568.52 1155.9 1570.88 1153 1570.88C1150.1 1570.88 1147.75 1568.52 1147.75 1565.63C1147.75 1562.73 1150.1 1560.38 1153 1560.38C1155.9 1560.38 1158.25 1562.73 1158.25 1565.63Z" fill="black"/>
</g>
</g>
<g id="Thin-L">
<g id="Outline / Headset Outline_8">
<path id="Shape_8" fill-rule="evenodd" clip-rule="evenodd" d="M824.375 1503.38C824.375 1485.36 838.982 1470.75 857 1470.75C875.018 1470.75 889.625 1485.36 889.625 1503.37V1537.15C889.625 1548.47 881.644 1557.94 870.998 1560.22C868.83 1554.61 863.38 1550.63 857 1550.63C848.715 1550.63 842 1557.34 842 1565.63C842 1573.91 848.715 1580.63 857 1580.63C863.733 1580.63 869.43 1576.19 871.327 1570.08C885.398 1567.83 896.532 1556.78 898.906 1542.75H904.25C912.327 1542.75 918.875 1536.2 918.875 1528.13V1513.88C918.875 1505.8 912.327 1499.25 904.25 1499.25L899.177 1499.25C897.103 1477.78 879.011 1461 857 1461C834.989 1461 816.897 1477.78 814.823 1499.25H809.75C801.673 1499.25 795.125 1505.8 795.125 1513.87V1528.12C795.125 1536.2 801.673 1542.75 809.75 1542.75H819.294C819.362 1542.75 819.431 1542.75 819.5 1542.75C822.192 1542.75 824.375 1540.57 824.375 1537.88V1503.38ZM899.375 1509V1533H904.25C906.942 1533 909.125 1530.82 909.125 1528.13V1513.88C909.125 1511.18 906.942 1509 904.25 1509H899.375ZM809.75 1509H814.625V1533H809.75C807.058 1533 804.875 1530.82 804.875 1528.12V1513.87C804.875 1511.18 807.058 1509 809.75 1509ZM862.25 1565.63C862.25 1568.52 859.899 1570.88 857 1570.88C854.1 1570.88 851.75 1568.52 851.75 1565.63C851.75 1562.73 854.1 1560.38 857 1560.38C859.899 1560.38 862.25 1562.73 862.25 1565.63Z" fill="black"/>
</g>
</g>
<g id="Ultralight-L">
<g id="Outline / Headset Outline_9">
<path id="Shape_9" fill-rule="evenodd" clip-rule="evenodd" d="M528.375 1503.38C528.375 1485.36 542.982 1470.75 561 1470.75C579.018 1470.75 593.625 1485.36 593.625 1503.37V1537.15C593.625 1548.47 585.644 1557.94 574.998 1560.22C572.83 1554.61 567.38 1550.63 561 1550.63C552.715 1550.63 546 1557.34 546 1565.63C546 1573.91 552.715 1580.63 561 1580.63C567.733 1580.63 573.43 1576.19 575.327 1570.08C589.398 1567.83 600.532 1556.78 602.906 1542.75H608.25C616.327 1542.75 622.875 1536.2 622.875 1528.13V1513.88C622.875 1505.8 616.327 1499.25 608.25 1499.25L603.177 1499.25C601.103 1477.78 583.011 1461 561 1461C538.989 1461 520.897 1477.78 518.823 1499.25H513.75C505.673 1499.25 499.125 1505.8 499.125 1513.87V1528.12C499.125 1536.2 505.673 1542.75 513.75 1542.75H523.294C523.362 1542.75 523.431 1542.75 523.5 1542.75C526.192 1542.75 528.375 1540.57 528.375 1537.88V1503.38ZM603.375 1509V1533H608.25C610.942 1533 613.125 1530.82 613.125 1528.13V1513.88C613.125 1511.18 610.942 1509 608.25 1509H603.375ZM513.75 1509H518.625V1533H513.75C511.058 1533 508.875 1530.82 508.875 1528.12V1513.87C508.875 1511.18 511.058 1509 513.75 1509ZM566.25 1565.63C566.25 1568.52 563.899 1570.88 561 1570.88C558.1 1570.88 555.75 1568.52 555.75 1565.63C555.75 1562.73 558.1 1560.38 561 1560.38C563.899 1560.38 566.25 1562.73 566.25 1565.63Z" fill="black"/>
</g>
</g>
<g id="Black-M">
<g id="Outline / Headset Outline_10">
<path id="Shape_10" fill-rule="evenodd" clip-rule="evenodd" d="M2903.62 1077.29C2903.62 1063.28 2914.99 1051.92 2929 1051.92C2943.01 1051.92 2954.37 1063.28 2954.37 1077.29V1103.56C2954.37 1112.37 2948.17 1119.73 2939.89 1121.51C2938.2 1117.14 2933.96 1114.04 2929 1114.04C2922.56 1114.04 2917.33 1119.27 2917.33 1125.71C2917.33 1132.15 2922.56 1137.38 2929 1137.38C2934.24 1137.38 2938.67 1133.93 2940.14 1129.17C2951.09 1127.42 2959.75 1118.83 2961.59 1107.92H2965.75C2972.03 1107.92 2977.12 1102.82 2977.12 1096.54V1085.46C2977.12 1079.18 2972.03 1074.08 2965.75 1074.08L2961.8 1074.08C2960.19 1057.39 2946.12 1044.33 2929 1044.33C2911.88 1044.33 2897.81 1057.39 2896.2 1074.08H2892.25C2885.97 1074.08 2880.88 1079.18 2880.88 1085.46V1096.54C2880.88 1102.82 2885.97 1107.92 2892.25 1107.92H2899.67C2899.73 1107.92 2899.78 1107.92 2899.83 1107.92C2901.93 1107.92 2903.62 1106.22 2903.62 1104.13V1077.29ZM2961.96 1081.67V1100.33H2965.75C2967.84 1100.33 2969.54 1098.64 2969.54 1096.54V1085.46C2969.54 1083.37 2967.84 1081.67 2965.75 1081.67H2961.96ZM2892.25 1081.67H2896.04V1100.33H2892.25C2890.16 1100.33 2888.46 1098.64 2888.46 1096.54V1085.46C2888.46 1083.36 2890.16 1081.67 2892.25 1081.67ZM2933.08 1125.71C2933.08 1127.96 2931.25 1129.79 2929 1129.79C2926.74 1129.79 2924.92 1127.96 2924.92 1125.71C2924.92 1123.45 2926.74 1121.63 2929 1121.63C2931.25 1121.63 2933.08 1123.45 2933.08 1125.71Z" fill="black"/>
</g>
</g>
<g id="Heavy-M">
<g id="Outline / Headset Outline_11">
<path id="Shape_11" fill-rule="evenodd" clip-rule="evenodd" d="M2607.62 1077.29C2607.62 1063.28 2618.99 1051.92 2633 1051.92C2647.01 1051.92 2658.37 1063.28 2658.37 1077.29V1103.56C2658.37 1112.37 2652.17 1119.73 2643.89 1121.51C2642.2 1117.14 2637.96 1114.04 2633 1114.04C2626.56 1114.04 2621.33 1119.27 2621.33 1125.71C2621.33 1132.15 2626.56 1137.38 2633 1137.38C2638.24 1137.38 2642.67 1133.93 2644.14 1129.17C2655.09 1127.42 2663.75 1118.83 2665.59 1107.92H2669.75C2676.03 1107.92 2681.12 1102.82 2681.12 1096.54V1085.46C2681.12 1079.18 2676.03 1074.08 2669.75 1074.08L2665.8 1074.08C2664.19 1057.39 2650.12 1044.33 2633 1044.33C2615.88 1044.33 2601.81 1057.39 2600.2 1074.08H2596.25C2589.97 1074.08 2584.88 1079.18 2584.88 1085.46V1096.54C2584.88 1102.82 2589.97 1107.92 2596.25 1107.92H2603.67C2603.73 1107.92 2603.78 1107.92 2603.83 1107.92C2605.93 1107.92 2607.62 1106.22 2607.62 1104.13V1077.29ZM2665.96 1081.67V1100.33H2669.75C2671.84 1100.33 2673.54 1098.64 2673.54 1096.54V1085.46C2673.54 1083.37 2671.84 1081.67 2669.75 1081.67H2665.96ZM2596.25 1081.67H2600.04V1100.33H2596.25C2594.16 1100.33 2592.46 1098.64 2592.46 1096.54V1085.46C2592.46 1083.36 2594.16 1081.67 2596.25 1081.67ZM2637.08 1125.71C2637.08 1127.96 2635.25 1129.79 2633 1129.79C2630.74 1129.79 2628.92 1127.96 2628.92 1125.71C2628.92 1123.45 2630.74 1121.63 2633 1121.63C2635.25 1121.63 2637.08 1123.45 2637.08 1125.71Z" fill="black"/>
</g>
</g>
<g id="Bold-M">
<g id="Outline / Headset Outline_12">
<path id="Shape_12" fill-rule="evenodd" clip-rule="evenodd" d="M2311.62 1077.29C2311.62 1063.28 2322.99 1051.92 2337 1051.92C2351.01 1051.92 2362.37 1063.28 2362.37 1077.29V1103.56C2362.37 1112.37 2356.17 1119.73 2347.89 1121.51C2346.2 1117.14 2341.96 1114.04 2337 1114.04C2330.56 1114.04 2325.33 1119.27 2325.33 1125.71C2325.33 1132.15 2330.56 1137.38 2337 1137.38C2342.24 1137.38 2346.67 1133.93 2348.14 1129.17C2359.09 1127.42 2367.75 1118.83 2369.59 1107.92H2373.75C2380.03 1107.92 2385.12 1102.82 2385.12 1096.54V1085.46C2385.12 1079.18 2380.03 1074.08 2373.75 1074.08L2369.8 1074.08C2368.19 1057.39 2354.12 1044.33 2337 1044.33C2319.88 1044.33 2305.81 1057.39 2304.2 1074.08H2300.25C2293.97 1074.08 2288.88 1079.18 2288.88 1085.46V1096.54C2288.88 1102.82 2293.97 1107.92 2300.25 1107.92H2307.67C2307.73 1107.92 2307.78 1107.92 2307.83 1107.92C2309.93 1107.92 2311.62 1106.22 2311.62 1104.13V1077.29ZM2369.96 1081.67V1100.33H2373.75C2375.84 1100.33 2377.54 1098.64 2377.54 1096.54V1085.46C2377.54 1083.37 2375.84 1081.67 2373.75 1081.67H2369.96ZM2300.25 1081.67H2304.04V1100.33H2300.25C2298.16 1100.33 2296.46 1098.64 2296.46 1096.54V1085.46C2296.46 1083.36 2298.16 1081.67 2300.25 1081.67ZM2341.08 1125.71C2341.08 1127.96 2339.25 1129.79 2337 1129.79C2334.74 1129.79 2332.92 1127.96 2332.92 1125.71C2332.92 1123.45 2334.74 1121.63 2337 1121.63C2339.25 1121.63 2341.08 1123.45 2341.08 1125.71Z" fill="black"/>
</g>
</g>
<g id="Semibold-M">
<g id="Outline / Headset Outline_13">
<path id="Shape_13" fill-rule="evenodd" clip-rule="evenodd" d="M2015.62 1077.29C2015.62 1063.28 2026.99 1051.92 2041 1051.92C2055.01 1051.92 2066.37 1063.28 2066.37 1077.29V1103.56C2066.37 1112.37 2060.17 1119.73 2051.89 1121.51C2050.2 1117.14 2045.96 1114.04 2041 1114.04C2034.56 1114.04 2029.33 1119.27 2029.33 1125.71C2029.33 1132.15 2034.56 1137.38 2041 1137.38C2046.24 1137.38 2050.67 1133.93 2052.14 1129.17C2063.09 1127.42 2071.75 1118.83 2073.59 1107.92H2077.75C2084.03 1107.92 2089.12 1102.82 2089.12 1096.54V1085.46C2089.12 1079.18 2084.03 1074.08 2077.75 1074.08L2073.8 1074.08C2072.19 1057.39 2058.12 1044.33 2041 1044.33C2023.88 1044.33 2009.81 1057.39 2008.2 1074.08H2004.25C1997.97 1074.08 1992.88 1079.18 1992.88 1085.46V1096.54C1992.88 1102.82 1997.97 1107.92 2004.25 1107.92H2011.67C2011.73 1107.92 2011.78 1107.92 2011.83 1107.92C2013.93 1107.92 2015.62 1106.22 2015.62 1104.13V1077.29ZM2073.96 1081.67V1100.33H2077.75C2079.84 1100.33 2081.54 1098.64 2081.54 1096.54V1085.46C2081.54 1083.37 2079.84 1081.67 2077.75 1081.67H2073.96ZM2004.25 1081.67H2008.04V1100.33H2004.25C2002.16 1100.33 2000.46 1098.64 2000.46 1096.54V1085.46C2000.46 1083.36 2002.16 1081.67 2004.25 1081.67ZM2045.08 1125.71C2045.08 1127.96 2043.25 1129.79 2041 1129.79C2038.74 1129.79 2036.92 1127.96 2036.92 1125.71C2036.92 1123.45 2038.74 1121.63 2041 1121.63C2043.25 1121.63 2045.08 1123.45 2045.08 1125.71Z" fill="black"/>
</g>
</g>
<g id="Medium-M">
<g id="Outline / Headset Outline_14">
<path id="Shape_14" fill-rule="evenodd" clip-rule="evenodd" d="M1719.62 1077.29C1719.62 1063.28 1730.99 1051.92 1745 1051.92C1759.01 1051.92 1770.37 1063.28 1770.37 1077.29V1103.56C1770.37 1112.37 1764.17 1119.73 1755.89 1121.51C1754.2 1117.14 1749.96 1114.04 1745 1114.04C1738.56 1114.04 1733.33 1119.27 1733.33 1125.71C1733.33 1132.15 1738.56 1137.38 1745 1137.38C1750.24 1137.38 1754.67 1133.93 1756.14 1129.17C1767.09 1127.42 1775.75 1118.83 1777.59 1107.92H1781.75C1788.03 1107.92 1793.12 1102.82 1793.12 1096.54V1085.46C1793.12 1079.18 1788.03 1074.08 1781.75 1074.08L1777.8 1074.08C1776.19 1057.39 1762.12 1044.33 1745 1044.33C1727.88 1044.33 1713.81 1057.39 1712.2 1074.08H1708.25C1701.97 1074.08 1696.88 1079.18 1696.88 1085.46V1096.54C1696.88 1102.82 1701.97 1107.92 1708.25 1107.92H1715.67C1715.73 1107.92 1715.78 1107.92 1715.83 1107.92C1717.93 1107.92 1719.62 1106.22 1719.62 1104.13V1077.29ZM1777.96 1081.67V1100.33H1781.75C1783.84 1100.33 1785.54 1098.64 1785.54 1096.54V1085.46C1785.54 1083.37 1783.84 1081.67 1781.75 1081.67H1777.96ZM1708.25 1081.67H1712.04V1100.33H1708.25C1706.16 1100.33 1704.46 1098.64 1704.46 1096.54V1085.46C1704.46 1083.36 1706.16 1081.67 1708.25 1081.67ZM1749.08 1125.71C1749.08 1127.96 1747.25 1129.79 1745 1129.79C1742.74 1129.79 1740.92 1127.96 1740.92 1125.71C1740.92 1123.45 1742.74 1121.63 1745 1121.63C1747.25 1121.63 1749.08 1123.45 1749.08 1125.71Z" fill="black"/>
</g>
</g>
<g id="Regular-M">
<g id="Outline / Headset Outline_15">
<path id="Shape_15" fill-rule="evenodd" clip-rule="evenodd" d="M1423.62 1077.29C1423.62 1063.28 1434.99 1051.92 1449 1051.92C1463.01 1051.92 1474.37 1063.28 1474.37 1077.29V1103.56C1474.37 1112.37 1468.17 1119.73 1459.89 1121.51C1458.2 1117.14 1453.96 1114.04 1449 1114.04C1442.56 1114.04 1437.33 1119.27 1437.33 1125.71C1437.33 1132.15 1442.56 1137.38 1449 1137.38C1454.24 1137.38 1458.67 1133.93 1460.14 1129.17C1471.09 1127.42 1479.75 1118.83 1481.59 1107.92H1485.75C1492.03 1107.92 1497.12 1102.82 1497.12 1096.54V1085.46C1497.12 1079.18 1492.03 1074.08 1485.75 1074.08L1481.8 1074.08C1480.19 1057.39 1466.12 1044.33 1449 1044.33C1431.88 1044.33 1417.81 1057.39 1416.2 1074.08H1412.25C1405.97 1074.08 1400.88 1079.18 1400.88 1085.46V1096.54C1400.88 1102.82 1405.97 1107.92 1412.25 1107.92H1419.67C1419.73 1107.92 1419.78 1107.92 1419.83 1107.92C1421.93 1107.92 1423.62 1106.22 1423.62 1104.13V1077.29ZM1481.96 1081.67V1100.33H1485.75C1487.84 1100.33 1489.54 1098.64 1489.54 1096.54V1085.46C1489.54 1083.37 1487.84 1081.67 1485.75 1081.67H1481.96ZM1412.25 1081.67H1416.04V1100.33H1412.25C1410.16 1100.33 1408.46 1098.64 1408.46 1096.54V1085.46C1408.46 1083.36 1410.16 1081.67 1412.25 1081.67ZM1453.08 1125.71C1453.08 1127.96 1451.25 1129.79 1449 1129.79C1446.74 1129.79 1444.92 1127.96 1444.92 1125.71C1444.92 1123.45 1446.74 1121.63 1449 1121.63C1451.25 1121.63 1453.08 1123.45 1453.08 1125.71Z" fill="black"/>
</g>
</g>
<g id="Light-M">
<g id="Outline / Headset Outline_16">
<path id="Shape_16" fill-rule="evenodd" clip-rule="evenodd" d="M1127.62 1077.29C1127.62 1063.28 1138.99 1051.92 1153 1051.92C1167.01 1051.92 1178.37 1063.28 1178.37 1077.29V1103.56C1178.37 1112.37 1172.17 1119.73 1163.89 1121.51C1162.2 1117.14 1157.96 1114.04 1153 1114.04C1146.56 1114.04 1141.33 1119.27 1141.33 1125.71C1141.33 1132.15 1146.56 1137.38 1153 1137.38C1158.24 1137.38 1162.67 1133.93 1164.14 1129.17C1175.09 1127.42 1183.75 1118.83 1185.59 1107.92H1189.75C1196.03 1107.92 1201.12 1102.82 1201.12 1096.54V1085.46C1201.12 1079.18 1196.03 1074.08 1189.75 1074.08L1185.8 1074.08C1184.19 1057.39 1170.12 1044.33 1153 1044.33C1135.88 1044.33 1121.81 1057.39 1120.2 1074.08H1116.25C1109.97 1074.08 1104.88 1079.18 1104.88 1085.46V1096.54C1104.88 1102.82 1109.97 1107.92 1116.25 1107.92H1123.67C1123.73 1107.92 1123.78 1107.92 1123.83 1107.92C1125.93 1107.92 1127.62 1106.22 1127.62 1104.13V1077.29ZM1185.96 1081.67V1100.33H1189.75C1191.84 1100.33 1193.54 1098.64 1193.54 1096.54V1085.46C1193.54 1083.37 1191.84 1081.67 1189.75 1081.67H1185.96ZM1116.25 1081.67H1120.04V1100.33H1116.25C1114.16 1100.33 1112.46 1098.64 1112.46 1096.54V1085.46C1112.46 1083.36 1114.16 1081.67 1116.25 1081.67ZM1157.08 1125.71C1157.08 1127.96 1155.25 1129.79 1153 1129.79C1150.74 1129.79 1148.92 1127.96 1148.92 1125.71C1148.92 1123.45 1150.74 1121.63 1153 1121.63C1155.25 1121.63 1157.08 1123.45 1157.08 1125.71Z" fill="black"/>
</g>
</g>
<g id="Thin-M">
<g id="Outline / Headset Outline_17">
<path id="Shape_17" fill-rule="evenodd" clip-rule="evenodd" d="M831.625 1077.29C831.625 1063.28 842.986 1051.92 857 1051.92C871.014 1051.92 882.375 1063.28 882.375 1077.29V1103.56C882.375 1112.37 876.168 1119.73 867.887 1121.51C866.201 1117.14 861.962 1114.04 857 1114.04C850.556 1114.04 845.333 1119.27 845.333 1125.71C845.333 1132.15 850.556 1137.38 857 1137.38C862.237 1137.38 866.668 1133.93 868.143 1129.17C879.088 1127.42 887.747 1118.83 889.594 1107.92H893.75C900.032 1107.92 905.125 1102.82 905.125 1096.54V1085.46C905.125 1079.18 900.032 1074.08 893.75 1074.08L889.804 1074.08C888.191 1057.39 874.12 1044.33 857 1044.33C839.88 1044.33 825.809 1057.39 824.196 1074.08H820.25C813.968 1074.08 808.875 1079.18 808.875 1085.46V1096.54C808.875 1102.82 813.968 1107.92 820.25 1107.92H827.673C827.726 1107.92 827.779 1107.92 827.833 1107.92C829.927 1107.92 831.625 1106.22 831.625 1104.13V1077.29ZM889.958 1081.67V1100.33H893.75C895.844 1100.33 897.541 1098.64 897.541 1096.54V1085.46C897.541 1083.37 895.844 1081.67 893.75 1081.67H889.958ZM820.25 1081.67H824.042V1100.33H820.25C818.156 1100.33 816.458 1098.64 816.458 1096.54V1085.46C816.458 1083.36 818.156 1081.67 820.25 1081.67ZM861.083 1125.71C861.083 1127.96 859.255 1129.79 857 1129.79C854.745 1129.79 852.916 1127.96 852.916 1125.71C852.916 1123.45 854.745 1121.63 857 1121.63C859.255 1121.63 861.083 1123.45 861.083 1125.71Z" fill="black"/>
</g>
</g>
<g id="Ultralight-M">
<g id="Outline / Headset Outline_18">
<path id="Shape_18" fill-rule="evenodd" clip-rule="evenodd" d="M535.625 1077.29C535.625 1063.28 546.986 1051.92 561 1051.92C575.014 1051.92 586.375 1063.28 586.375 1077.29V1103.56C586.375 1112.37 580.168 1119.73 571.887 1121.51C570.201 1117.14 565.962 1114.04 561 1114.04C554.556 1114.04 549.333 1119.27 549.333 1125.71C549.333 1132.15 554.556 1137.38 561 1137.38C566.237 1137.38 570.668 1133.93 572.143 1129.17C583.088 1127.42 591.747 1118.83 593.594 1107.92H597.75C604.032 1107.92 609.125 1102.82 609.125 1096.54V1085.46C609.125 1079.18 604.032 1074.08 597.75 1074.08L593.804 1074.08C592.191 1057.39 578.12 1044.33 561 1044.33C543.88 1044.33 529.809 1057.39 528.196 1074.08H524.25C517.968 1074.08 512.875 1079.18 512.875 1085.46V1096.54C512.875 1102.82 517.968 1107.92 524.25 1107.92H531.673C531.726 1107.92 531.779 1107.92 531.833 1107.92C533.927 1107.92 535.625 1106.22 535.625 1104.13V1077.29ZM593.958 1081.67V1100.33H597.75C599.844 1100.33 601.541 1098.64 601.541 1096.54V1085.46C601.541 1083.37 599.844 1081.67 597.75 1081.67H593.958ZM524.25 1081.67H528.042V1100.33H524.25C522.156 1100.33 520.458 1098.64 520.458 1096.54V1085.46C520.458 1083.36 522.156 1081.67 524.25 1081.67ZM565.083 1125.71C565.083 1127.96 563.255 1129.79 561 1129.79C558.745 1129.79 556.916 1127.96 556.916 1125.71C556.916 1123.45 558.745 1121.63 561 1121.63C563.255 1121.63 565.083 1123.45 565.083 1125.71Z" fill="black"/>
</g>
</g>
<g id="Black-S">
<g id="Outline / Headset Outline_19">
<path id="Shape_19" fill-rule="evenodd" clip-rule="evenodd" d="M2910.87 651.208C2910.87 641.198 2918.99 633.083 2929 633.083C2939.01 633.083 2947.12 641.198 2947.12 651.208V669.969C2947.12 676.263 2942.69 681.521 2936.78 682.791C2935.57 679.671 2932.54 677.458 2929 677.458C2924.4 677.458 2920.67 681.189 2920.67 685.791C2920.67 690.393 2924.4 694.124 2929 694.124C2932.74 694.124 2935.91 691.66 2936.96 688.266C2944.78 687.016 2950.96 680.877 2952.28 673.083H2955.25C2959.74 673.083 2963.37 669.445 2963.37 664.958V657.041C2963.37 652.554 2959.74 648.916 2955.25 648.916L2952.43 648.916C2951.28 636.99 2941.23 627.666 2929 627.666C2916.77 627.666 2906.72 636.99 2905.57 648.916H2902.75C2898.26 648.916 2894.62 652.554 2894.62 657.041V664.958C2894.62 669.445 2898.26 673.083 2902.75 673.083H2908.05C2908.09 673.084 2908.13 673.085 2908.17 673.085C2909.66 673.085 2910.87 671.872 2910.87 670.377V651.208ZM2952.54 654.333V667.666H2955.25C2956.75 667.666 2957.96 666.454 2957.96 664.958V657.041C2957.96 655.545 2956.75 654.333 2955.25 654.333H2952.54ZM2902.75 654.333H2905.46V667.666H2902.75C2901.25 667.666 2900.04 666.453 2900.04 664.958V657.041C2900.04 655.545 2901.25 654.333 2902.75 654.333ZM2931.92 685.791C2931.92 687.402 2930.61 688.708 2929 688.708C2927.39 688.708 2926.08 687.402 2926.08 685.791C2926.08 684.18 2927.39 682.874 2929 682.874C2930.61 682.874 2931.92 684.18 2931.92 685.791Z" fill="black"/>
</g>
</g>
<g id="Heavy-S">
<g id="Outline / Headset Outline_20">
<path id="Shape_20" fill-rule="evenodd" clip-rule="evenodd" d="M2614.87 651.208C2614.87 641.198 2622.99 633.083 2633 633.083C2643.01 633.083 2651.12 641.198 2651.12 651.208V669.969C2651.12 676.263 2646.69 681.521 2640.78 682.791C2639.57 679.671 2636.54 677.458 2633 677.458C2628.4 677.458 2624.67 681.189 2624.67 685.791C2624.67 690.393 2628.4 694.124 2633 694.124C2636.74 694.124 2639.91 691.66 2640.96 688.266C2648.78 687.016 2654.96 680.877 2656.28 673.083H2659.25C2663.74 673.083 2667.37 669.445 2667.37 664.958V657.041C2667.37 652.554 2663.74 648.916 2659.25 648.916L2656.43 648.916C2655.28 636.99 2645.23 627.666 2633 627.666C2620.77 627.666 2610.72 636.99 2609.57 648.916H2606.75C2602.26 648.916 2598.62 652.554 2598.62 657.041V664.958C2598.62 669.445 2602.26 673.083 2606.75 673.083H2612.05C2612.09 673.084 2612.13 673.085 2612.17 673.085C2613.66 673.085 2614.87 671.872 2614.87 670.377V651.208ZM2656.54 654.333V667.666H2659.25C2660.75 667.666 2661.96 666.454 2661.96 664.958V657.041C2661.96 655.545 2660.75 654.333 2659.25 654.333H2656.54ZM2606.75 654.333H2609.46V667.666H2606.75C2605.25 667.666 2604.04 666.453 2604.04 664.958V657.041C2604.04 655.545 2605.25 654.333 2606.75 654.333ZM2635.92 685.791C2635.92 687.402 2634.61 688.708 2633 688.708C2631.39 688.708 2630.08 687.402 2630.08 685.791C2630.08 684.18 2631.39 682.874 2633 682.874C2634.61 682.874 2635.92 684.18 2635.92 685.791Z" fill="black"/>
</g>
</g>
<g id="Bold-S">
<g id="Outline / Headset Outline_21">
<path id="Shape_21" fill-rule="evenodd" clip-rule="evenodd" d="M2318.87 651.208C2318.87 641.198 2326.99 633.083 2337 633.083C2347.01 633.083 2355.12 641.198 2355.12 651.208V669.969C2355.12 676.263 2350.69 681.521 2344.78 682.791C2343.57 679.671 2340.54 677.458 2337 677.458C2332.4 677.458 2328.67 681.189 2328.67 685.791C2328.67 690.393 2332.4 694.124 2337 694.124C2340.74 694.124 2343.91 691.66 2344.96 688.266C2352.78 687.016 2358.96 680.877 2360.28 673.083H2363.25C2367.74 673.083 2371.37 669.445 2371.37 664.958V657.041C2371.37 652.554 2367.74 648.916 2363.25 648.916L2360.43 648.916C2359.28 636.99 2349.23 627.666 2337 627.666C2324.77 627.666 2314.72 636.99 2313.57 648.916H2310.75C2306.26 648.916 2302.62 652.554 2302.62 657.041V664.958C2302.62 669.445 2306.26 673.083 2310.75 673.083H2316.05C2316.09 673.084 2316.13 673.085 2316.17 673.085C2317.66 673.085 2318.87 671.872 2318.87 670.377V651.208ZM2360.54 654.333V667.666H2363.25C2364.75 667.666 2365.96 666.454 2365.96 664.958V657.041C2365.96 655.545 2364.75 654.333 2363.25 654.333H2360.54ZM2310.75 654.333H2313.46V667.666H2310.75C2309.25 667.666 2308.04 666.453 2308.04 664.958V657.041C2308.04 655.545 2309.25 654.333 2310.75 654.333ZM2339.92 685.791C2339.92 687.402 2338.61 688.708 2337 688.708C2335.39 688.708 2334.08 687.402 2334.08 685.791C2334.08 684.18 2335.39 682.874 2337 682.874C2338.61 682.874 2339.92 684.18 2339.92 685.791Z" fill="black"/>
</g>
</g>
<g id="Semibold-S">
<g id="Outline / Headset Outline_22">
<path id="Shape_22" fill-rule="evenodd" clip-rule="evenodd" d="M2022.87 651.208C2022.87 641.198 2030.99 633.083 2041 633.083C2051.01 633.083 2059.12 641.198 2059.12 651.208V669.969C2059.12 676.263 2054.69 681.521 2048.78 682.791C2047.57 679.671 2044.54 677.458 2041 677.458C2036.4 677.458 2032.67 681.189 2032.67 685.791C2032.67 690.393 2036.4 694.124 2041 694.124C2044.74 694.124 2047.91 691.66 2048.96 688.266C2056.78 687.016 2062.96 680.877 2064.28 673.083H2067.25C2071.74 673.083 2075.37 669.445 2075.37 664.958V657.041C2075.37 652.554 2071.74 648.916 2067.25 648.916L2064.43 648.916C2063.28 636.99 2053.23 627.666 2041 627.666C2028.77 627.666 2018.72 636.99 2017.57 648.916H2014.75C2010.26 648.916 2006.62 652.554 2006.62 657.041V664.958C2006.62 669.445 2010.26 673.083 2014.75 673.083H2020.05C2020.09 673.084 2020.13 673.085 2020.17 673.085C2021.66 673.085 2022.87 671.872 2022.87 670.377V651.208ZM2064.54 654.333V667.666H2067.25C2068.75 667.666 2069.96 666.454 2069.96 664.958V657.041C2069.96 655.545 2068.75 654.333 2067.25 654.333H2064.54ZM2014.75 654.333H2017.46V667.666H2014.75C2013.25 667.666 2012.04 666.453 2012.04 664.958V657.041C2012.04 655.545 2013.25 654.333 2014.75 654.333ZM2043.92 685.791C2043.92 687.402 2042.61 688.708 2041 688.708C2039.39 688.708 2038.08 687.402 2038.08 685.791C2038.08 684.18 2039.39 682.874 2041 682.874C2042.61 682.874 2043.92 684.18 2043.92 685.791Z" fill="black"/>
</g>
</g>
<g id="Medium-S">
<g id="Outline / Headset Outline_23">
<path id="Shape_23" fill-rule="evenodd" clip-rule="evenodd" d="M1726.87 651.208C1726.87 641.198 1734.99 633.083 1745 633.083C1755.01 633.083 1763.12 641.198 1763.12 651.208V669.969C1763.12 676.263 1758.69 681.521 1752.78 682.791C1751.57 679.671 1748.54 677.458 1745 677.458C1740.4 677.458 1736.67 681.189 1736.67 685.791C1736.67 690.393 1740.4 694.124 1745 694.124C1748.74 694.124 1751.91 691.66 1752.96 688.266C1760.78 687.016 1766.96 680.877 1768.28 673.083H1771.25C1775.74 673.083 1779.37 669.445 1779.37 664.958V657.041C1779.37 652.554 1775.74 648.916 1771.25 648.916L1768.43 648.916C1767.28 636.99 1757.23 627.666 1745 627.666C1732.77 627.666 1722.72 636.99 1721.57 648.916H1718.75C1714.26 648.916 1710.62 652.554 1710.62 657.041V664.958C1710.62 669.445 1714.26 673.083 1718.75 673.083H1724.05C1724.09 673.084 1724.13 673.085 1724.17 673.085C1725.66 673.085 1726.87 671.872 1726.87 670.377V651.208ZM1768.54 654.333V667.666H1771.25C1772.75 667.666 1773.96 666.454 1773.96 664.958V657.041C1773.96 655.545 1772.75 654.333 1771.25 654.333H1768.54ZM1718.75 654.333H1721.46V667.666H1718.75C1717.25 667.666 1716.04 666.453 1716.04 664.958V657.041C1716.04 655.545 1717.25 654.333 1718.75 654.333ZM1747.92 685.791C1747.92 687.402 1746.61 688.708 1745 688.708C1743.39 688.708 1742.08 687.402 1742.08 685.791C1742.08 684.18 1743.39 682.874 1745 682.874C1746.61 682.874 1747.92 684.18 1747.92 685.791Z" fill="black"/>
</g>
</g>
<g id="Regular-S">
<g id="Outline / Headset Outline_24">
<path id="Shape_24" fill-rule="evenodd" clip-rule="evenodd" d="M1430.87 651.208C1430.87 641.198 1438.99 633.083 1449 633.083C1459.01 633.083 1467.12 641.198 1467.12 651.208V669.969C1467.12 676.263 1462.69 681.521 1456.78 682.791C1455.57 679.671 1452.54 677.458 1449 677.458C1444.4 677.458 1440.67 681.189 1440.67 685.791C1440.67 690.393 1444.4 694.124 1449 694.124C1452.74 694.124 1455.91 691.66 1456.96 688.266C1464.78 687.016 1470.96 680.877 1472.28 673.083H1475.25C1479.74 673.083 1483.37 669.445 1483.37 664.958V657.041C1483.37 652.554 1479.74 648.916 1475.25 648.916L1472.43 648.916C1471.28 636.99 1461.23 627.666 1449 627.666C1436.77 627.666 1426.72 636.99 1425.57 648.916H1422.75C1418.26 648.916 1414.62 652.554 1414.62 657.041V664.958C1414.62 669.445 1418.26 673.083 1422.75 673.083H1428.05C1428.09 673.084 1428.13 673.085 1428.17 673.085C1429.66 673.085 1430.87 671.872 1430.87 670.377V651.208ZM1472.54 654.333V667.666H1475.25C1476.75 667.666 1477.96 666.454 1477.96 664.958V657.041C1477.96 655.545 1476.75 654.333 1475.25 654.333H1472.54ZM1422.75 654.333H1425.46V667.666H1422.75C1421.25 667.666 1420.04 666.453 1420.04 664.958V657.041C1420.04 655.545 1421.25 654.333 1422.75 654.333ZM1451.92 685.791C1451.92 687.402 1450.61 688.708 1449 688.708C1447.39 688.708 1446.08 687.402 1446.08 685.791C1446.08 684.18 1447.39 682.874 1449 682.874C1450.61 682.874 1451.92 684.18 1451.92 685.791Z" fill="black"/>
</g>
</g>
<g id="Light-S">
<g id="Outline / Headset Outline_25">
<path id="Shape_25" fill-rule="evenodd" clip-rule="evenodd" d="M1134.87 651.208C1134.87 641.198 1142.99 633.083 1153 633.083C1163.01 633.083 1171.12 641.198 1171.12 651.208V669.969C1171.12 676.263 1166.69 681.521 1160.78 682.791C1159.57 679.671 1156.54 677.458 1153 677.458C1148.4 677.458 1144.67 681.189 1144.67 685.791C1144.67 690.393 1148.4 694.124 1153 694.124C1156.74 694.124 1159.91 691.66 1160.96 688.266C1168.78 687.016 1174.96 680.877 1176.28 673.083H1179.25C1183.74 673.083 1187.37 669.445 1187.37 664.958V657.041C1187.37 652.554 1183.74 648.916 1179.25 648.916L1176.43 648.916C1175.28 636.99 1165.23 627.666 1153 627.666C1140.77 627.666 1130.72 636.99 1129.57 648.916H1126.75C1122.26 648.916 1118.62 652.554 1118.62 657.041V664.958C1118.62 669.445 1122.26 673.083 1126.75 673.083H1132.05C1132.09 673.084 1132.13 673.085 1132.17 673.085C1133.66 673.085 1134.87 671.872 1134.87 670.377V651.208ZM1176.54 654.333V667.666H1179.25C1180.75 667.666 1181.96 666.454 1181.96 664.958V657.041C1181.96 655.545 1180.75 654.333 1179.25 654.333H1176.54ZM1126.75 654.333H1129.46V667.666H1126.75C1125.25 667.666 1124.04 666.453 1124.04 664.958V657.041C1124.04 655.545 1125.25 654.333 1126.75 654.333ZM1155.92 685.791C1155.92 687.402 1154.61 688.708 1153 688.708C1151.39 688.708 1150.08 687.402 1150.08 685.791C1150.08 684.18 1151.39 682.874 1153 682.874C1154.61 682.874 1155.92 684.18 1155.92 685.791Z" fill="black"/>
</g>
</g>
<g id="Thin-S">
<g id="Outline / Headset Outline_26">
<path id="Shape_26" fill-rule="evenodd" clip-rule="evenodd" d="M838.875 651.208C838.875 641.198 846.99 633.083 857 633.083C867.01 633.083 875.125 641.198 875.125 651.208V669.969C875.125 676.263 870.691 681.521 864.777 682.791C863.572 679.671 860.544 677.458 857 677.458C852.397 677.458 848.667 681.189 848.667 685.791C848.667 690.393 852.397 694.124 857 694.124C860.74 694.124 863.905 691.66 864.96 688.266C872.777 687.016 878.962 680.877 880.281 673.083H883.25C887.737 673.083 891.375 669.445 891.375 664.958V657.041C891.375 652.554 887.737 648.916 883.25 648.916L880.431 648.916C879.279 636.99 869.228 627.666 857 627.666C844.771 627.666 834.721 636.99 833.568 648.916H830.75C826.263 648.916 822.625 652.554 822.625 657.041V664.958C822.625 669.445 826.263 673.083 830.75 673.083H836.052C836.09 673.084 836.128 673.085 836.167 673.085C837.662 673.085 838.875 671.872 838.875 670.377V651.208ZM880.542 654.333V667.666H883.25C884.746 667.666 885.958 666.454 885.958 664.958V657.041C885.958 655.545 884.746 654.333 883.25 654.333H880.542ZM830.75 654.333H833.458V667.666H830.75C829.254 667.666 828.042 666.453 828.042 664.958V657.041C828.042 655.545 829.254 654.333 830.75 654.333ZM859.917 685.791C859.917 687.402 858.611 688.708 857 688.708C855.389 688.708 854.083 687.402 854.083 685.791C854.083 684.18 855.389 682.874 857 682.874C858.611 682.874 859.917 684.18 859.917 685.791Z" fill="black"/>
</g>
</g>
<g id="Ultralight-S">
<g id="Outline / Headset Outline_27">
<path id="Shape_27" fill-rule="evenodd" clip-rule="evenodd" d="M542.875 651.208C542.875 641.198 550.99 633.083 561 633.083C571.01 633.083 579.125 641.198 579.125 651.208V669.969C579.125 676.263 574.691 681.521 568.777 682.791C567.572 679.671 564.544 677.458 561 677.458C556.397 677.458 552.667 681.189 552.667 685.791C552.667 690.393 556.397 694.124 561 694.124C564.74 694.124 567.905 691.66 568.96 688.266C576.777 687.016 582.962 680.877 584.281 673.083H587.25C591.737 673.083 595.375 669.445 595.375 664.958V657.041C595.375 652.554 591.737 648.916 587.25 648.916L584.431 648.916C583.279 636.99 573.228 627.666 561 627.666C548.771 627.666 538.721 636.99 537.568 648.916H534.75C530.263 648.916 526.625 652.554 526.625 657.041V664.958C526.625 669.445 530.263 673.083 534.75 673.083H540.052C540.09 673.084 540.128 673.085 540.167 673.085C541.662 673.085 542.875 671.872 542.875 670.377V651.208ZM584.542 654.333V667.666H587.25C588.746 667.666 589.958 666.454 589.958 664.958V657.041C589.958 655.545 588.746 654.333 587.25 654.333H584.542ZM534.75 654.333H537.458V667.666H534.75C533.254 667.666 532.042 666.453 532.042 664.958V657.041C532.042 655.545 533.254 654.333 534.75 654.333ZM563.917 685.791C563.917 687.402 562.611 688.708 561 688.708C559.389 688.708 558.083 687.402 558.083 685.791C558.083 684.18 559.389 682.874 561 682.874C562.611 682.874 563.917 684.18 563.917 685.791Z" fill="black"/>
</g>
</g>
</g>
</g>
<defs>
<clipPath id="clip0_0_1">
<rect width="3300" height="2200" fill="white"/>
</clipPath>
</defs>
</svg>
