<svg width="3300" height="2200" viewBox="0 0 3300 2200" fill="none" xmlns="http://www.w3.org/2000/svg">
<rect width="3300" height="2200" fill="#E5E5E5"/>
<g id="System / Outline / Calendar" clip-path="url(#clip0_805_27002)">
<g id="Notes">
<path id="artboard" d="M3300 0H0V2200H3300V0Z" fill="white"/>
<path id="Vector" d="M263 292H3036" stroke="black" stroke-width="0.5"/>
<text id="Weight/Scale Variations" fill="black" xml:space="preserve" style="white-space: pre" font-family="Roboto" font-size="12" letter-spacing="0em"><tspan x="263" y="321.102">Weight/Scale Variations</tspan></text>
<text id="Ultralight" fill="black" xml:space="preserve" style="white-space: pre" font-family="Roboto" font-size="12" letter-spacing="0em"><tspan x="535.211" y="321.102">Ultralight</tspan></text>
<text id="Thin" fill="black" xml:space="preserve" style="white-space: pre" font-family="Roboto" font-size="12" letter-spacing="0em"><tspan x="844.422" y="321.102">Thin</tspan></text>
<text id="Light" fill="black" xml:space="preserve" style="white-space: pre" font-family="Roboto" font-size="12" letter-spacing="0em"><tspan x="1139.63" y="321.102">Light</tspan></text>
<text id="Regular" fill="black" xml:space="preserve" style="white-space: pre" font-family="Roboto" font-size="12" letter-spacing="0em"><tspan x="1429.34" y="321.102">Regular</tspan></text>
<text id="Medium" fill="black" xml:space="preserve" style="white-space: pre" font-family="Roboto" font-size="12" letter-spacing="0em"><tspan x="1724.56" y="321.102">Medium</tspan></text>
<text id="Semibold" fill="black" xml:space="preserve" style="white-space: pre" font-family="Roboto" font-size="12" letter-spacing="0em"><tspan x="2017.77" y="321.102">Semibold</tspan></text>
<text id="Bold" fill="black" xml:space="preserve" style="white-space: pre" font-family="Roboto" font-size="12" letter-spacing="0em"><tspan x="2327.48" y="321.102">Bold</tspan></text>
<text id="Heavy" fill="black" xml:space="preserve" style="white-space: pre" font-family="Roboto" font-size="12" letter-spacing="0em"><tspan x="2620.19" y="321.102">Heavy</tspan></text>
<text id="Black" fill="black" xml:space="preserve" style="white-space: pre" font-family="Roboto" font-size="12" letter-spacing="0em"><tspan x="2918.4" y="321.102">Black</tspan></text>
<path id="Vector_2" d="M263 1903H3036" stroke="black" stroke-width="0.5"/>
<g id="Group">
<path id="Vector_3" d="M272.248 1933.83C276.555 1933.83 280.139 1930.26 280.139 1925.95C280.139 1921.64 276.545 1918.07 272.238 1918.07C267.941 1918.07 264.367 1921.64 264.367 1925.95C264.367 1930.26 267.951 1933.83 272.248 1933.83ZM272.248 1932.35C268.703 1932.35 265.871 1929.51 265.871 1925.95C265.871 1922.4 268.693 1919.55 272.238 1919.55C275.793 1919.55 278.635 1922.4 278.644 1925.95C278.654 1929.51 275.803 1932.35 272.248 1932.35ZM272.229 1929.57C272.697 1929.57 272.971 1929.26 272.971 1928.74V1926.68H275.197C275.695 1926.68 276.037 1926.43 276.037 1925.96C276.037 1925.48 275.715 1925.22 275.197 1925.22H272.971V1922.99C272.971 1922.47 272.697 1922.15 272.229 1922.15C271.76 1922.15 271.506 1922.49 271.506 1922.99V1925.22H269.299C268.781 1925.22 268.449 1925.48 268.449 1925.96C268.449 1926.43 268.801 1926.68 269.299 1926.68H271.506V1928.74C271.506 1929.24 271.76 1929.57 272.229 1929.57Z" fill="black"/>
</g>
<g id="Group_2">
<path id="Vector_4" d="M293.215 1935.91C298.664 1935.91 303.176 1931.4 303.176 1925.95C303.176 1920.51 298.654 1915.99 293.205 1915.99C287.766 1915.99 283.254 1920.51 283.254 1925.95C283.254 1931.4 287.775 1935.91 293.215 1935.91ZM293.215 1934.25C288.605 1934.25 284.924 1930.56 284.924 1925.95C284.924 1921.35 288.596 1917.65 293.205 1917.65C297.814 1917.65 301.506 1921.35 301.516 1925.95C301.525 1930.56 297.824 1934.25 293.215 1934.25ZM293.195 1930.59C293.713 1930.59 294.025 1930.23 294.025 1929.66V1926.77H297.082C297.629 1926.77 298.01 1926.49 298.01 1925.97C298.01 1925.44 297.648 1925.14 297.082 1925.14H294.025V1922.07C294.025 1921.5 293.713 1921.14 293.195 1921.14C292.678 1921.14 292.385 1921.52 292.385 1922.07V1925.14H289.338C288.771 1925.14 288.4 1925.44 288.4 1925.97C288.4 1926.49 288.791 1926.77 289.338 1926.77H292.385V1929.66C292.385 1930.21 292.678 1930.59 293.195 1930.59Z" fill="black"/>
</g>
<g id="Group_3">
<path id="Vector_5" d="M319.895 1938.67C326.857 1938.67 332.619 1932.92 332.619 1925.96C332.619 1918.99 326.848 1913.24 319.885 1913.24C312.932 1913.24 307.18 1918.99 307.18 1925.96C307.18 1932.92 312.941 1938.67 319.895 1938.67ZM319.895 1936.86C313.859 1936.86 309.006 1931.99 309.006 1925.96C309.006 1919.92 313.85 1915.06 319.885 1915.06C325.93 1915.06 330.783 1919.92 330.793 1925.96C330.803 1931.99 325.939 1936.86 319.895 1936.86ZM319.875 1931.93C320.441 1931.93 320.793 1931.54 320.793 1930.94V1926.87H325.031C325.617 1926.87 326.037 1926.53 326.037 1925.98C326.037 1925.4 325.647 1925.06 325.031 1925.06H320.793V1920.81C320.793 1920.2 320.441 1919.8 319.875 1919.8C319.309 1919.8 318.986 1920.21 318.986 1920.81V1925.06H314.758C314.143 1925.06 313.732 1925.4 313.732 1925.98C313.732 1926.53 314.162 1926.87 314.758 1926.87H318.986V1930.94C318.986 1931.52 319.309 1931.93 319.875 1931.93Z" fill="black"/>
</g>
<text id="Design Variations" fill="black" xml:space="preserve" style="white-space: pre" font-family="Roboto" font-size="12" letter-spacing="0em"><tspan x="263" y="1952.1">Design Variations</tspan></text>
<text id="Symbols are supported in up to nine weights and three scales." fill="black" xml:space="preserve" style="white-space: pre" font-family="Roboto" font-size="12" letter-spacing="0em"><tspan x="263" y="1970.1">Symbols are supported in up to nine weights and three scales.</tspan></text>
<text id="For optimal layout with text and other symbols, vertically align" fill="black" xml:space="preserve" style="white-space: pre" font-family="Roboto" font-size="12" letter-spacing="0em"><tspan x="263" y="1988.1">For optimal layout with text and other symbols, vertically align</tspan></text>
<text id="symbols with the adjacent text." fill="black" xml:space="preserve" style="white-space: pre" font-family="Roboto" font-size="12" letter-spacing="0em"><tspan x="263" y="2006.1">symbols with the adjacent text.</tspan></text>
<path id="Vector_6" opacity="0.4" d="M779 1919H776V1933H779V1919Z" fill="#00AEEF"/>
<g id="Group_4">
<path id="Vector_7" d="M789.525 1933H791.371L786.176 1918.91H784.437L779.242 1933H781.088L782.504 1928.96H788.109L789.525 1933ZM785.277 1921.04H785.336L787.592 1927.47H783.021L785.277 1921.04Z" fill="black"/>
</g>
<path id="Vector_8" opacity="0.4" d="M794.617 1919H791.617V1933H794.617V1919Z" fill="#00AEEF"/>
<text id="Margins" fill="black" xml:space="preserve" style="white-space: pre" font-family="Roboto" font-size="12" letter-spacing="0em"><tspan x="776" y="1952.1">Margins</tspan></text>
<text id="Leading and trailing margins on the left and right side of each symbol" fill="black" xml:space="preserve" style="white-space: pre" font-family="Roboto" font-size="12" letter-spacing="0em"><tspan x="776" y="1970.1">Leading and trailing margins on the left and right side of each symbol</tspan></text>
<text id="can be adjusted by modifying the width of the blue rectangles." fill="black" xml:space="preserve" style="white-space: pre" font-family="Roboto" font-size="12" letter-spacing="0em"><tspan x="776" y="1988.1">can be adjusted by modifying the width of the blue rectangles.</tspan></text>
<text id="Modifications are automatically applied proportionally to all" fill="black" xml:space="preserve" style="white-space: pre" font-family="Roboto" font-size="12" letter-spacing="0em"><tspan x="776" y="2006.1">Modifications are automatically applied proportionally to all</tspan></text>
<text id="scales and weights." fill="black" xml:space="preserve" style="white-space: pre" font-family="Roboto" font-size="12" letter-spacing="0em"><tspan x="776" y="2024.1">scales and weights.</tspan></text>
<g id="Group_5">
<path id="Vector_9" d="M1291.83 1936.11L1293.37 1937.66C1294.22 1938.49 1295.19 1938.42 1296.06 1937.46L1306.27 1926.34C1306.7 1926.63 1307.1 1926.62 1307.56 1926.52L1308.61 1926.31L1309.3 1927L1309.25 1927.52C1309.19 1928.05 1309.35 1928.47 1309.85 1928.97L1310.66 1929.78C1311.17 1930.28 1311.82 1930.31 1312.3 1929.83L1315.55 1926.58C1316.03 1926.1 1316.01 1925.45 1315.5 1924.94L1314.68 1924.12C1314.19 1923.62 1313.77 1923.45 1313.24 1923.53L1312.71 1923.58L1312.06 1922.92L1312.34 1921.78C1312.49 1921.21 1312.34 1920.74 1311.71 1920.14L1309.3 1917.75C1305.76 1914.22 1301.23 1914.33 1298.11 1917.46C1297.69 1917.89 1297.64 1918.48 1297.92 1918.91C1298.15 1919.28 1298.63 1919.5 1299.27 1919.34C1300.79 1918.96 1302.3 1919.07 1303.78 1920.08L1303.16 1921.66C1302.93 1922.25 1302.94 1922.73 1303.18 1923.16L1292.02 1933.44C1291.08 1934.31 1290.97 1935.25 1291.83 1936.11ZM1299.67 1917.85C1302.34 1915.86 1305.65 1916.17 1308.05 1918.58L1310.68 1921.19C1310.91 1921.43 1310.94 1921.61 1310.88 1921.91L1310.5 1923.47L1312.08 1925.04L1313.04 1924.95C1313.33 1924.92 1313.41 1924.94 1313.64 1925.17L1314.26 1925.79L1311.51 1928.54L1310.88 1927.92C1310.66 1927.7 1310.64 1927.6 1310.67 1927.32L1310.76 1926.36L1309.19 1924.8L1307.57 1925.11C1307.29 1925.17 1307.14 1925.17 1306.91 1924.92L1304.73 1922.75C1304.51 1922.51 1304.48 1922.37 1304.61 1922.05L1305.55 1919.78C1303.95 1918.24 1301.84 1917.39 1299.8 1918.05C1299.71 1918.08 1299.64 1918.06 1299.61 1918.02C1299.59 1917.97 1299.59 1917.92 1299.67 1917.85ZM1293.1 1935.41C1292.61 1934.91 1292.79 1934.61 1293.12 1934.31L1304.08 1924.19L1305.31 1925.42L1295.15 1936.35C1294.85 1936.68 1294.47 1936.78 1294.07 1936.38L1293.1 1935.41Z" fill="black"/>
</g>
<text id="Exporting" fill="black" xml:space="preserve" style="white-space: pre" font-family="Roboto" font-size="12" letter-spacing="0em"><tspan x="1289" y="1952.1">Exporting</tspan></text>
<text id="Symbols should be outlined when exporting to ensure the" fill="black" xml:space="preserve" style="white-space: pre" font-family="Roboto" font-size="12" letter-spacing="0em"><tspan x="1289" y="1970.1">Symbols should be outlined when exporting to ensure the</tspan></text>
<text id="design is preserved when submitting to Xcode." fill="black" xml:space="preserve" style="white-space: pre" font-family="Roboto" font-size="12" letter-spacing="0em"><tspan x="1289" y="1988.1">design is preserved when submitting to Xcode.</tspan></text>
<text id="template-version" fill="black" xml:space="preserve" style="white-space: pre" font-family="Roboto" font-size="12" letter-spacing="0em"><tspan x="2958" y="1932.1">Template v.1.0</tspan></text>
<text id="Generated from pencil.circle" fill="black" xml:space="preserve" style="white-space: pre" font-family="Roboto" font-size="12" letter-spacing="0em"><tspan x="2885" y="1950.1">Generated from pencil.circle</tspan></text>
<text id="Typeset at 100 points" fill="black" xml:space="preserve" style="white-space: pre" font-family="Roboto" font-size="12" letter-spacing="0em"><tspan x="2921" y="1968.1">Typeset at 100 points</tspan></text>
<text id="Small" fill="black" xml:space="preserve" style="white-space: pre" font-family="Roboto" font-size="12" letter-spacing="0em"><tspan x="263" y="725.102">Small</tspan></text>
<text id="Medium_2" fill="black" xml:space="preserve" style="white-space: pre" font-family="Roboto" font-size="12" letter-spacing="0em"><tspan x="263" y="1155.1">Medium</tspan></text>
<text id="Large" fill="black" xml:space="preserve" style="white-space: pre" font-family="Roboto" font-size="12" letter-spacing="0em"><tspan x="263" y="1585.1">Large</tspan></text>
</g>
<g id="Guides">
<g id="H-reference">
<path id="Vector_10" d="M393.932 695.998H396.666L369.566 625.539H367.076L339.977 695.998H342.662L351.94 671.535H384.703L393.932 695.998ZM368.199 628.908H368.443L383.824 669.289H352.818L368.199 628.908Z" fill="#27AAE1"/>
</g>
<path id="Baseline-S" d="M263 696H3036" stroke="#27AAE1" stroke-width="0.577"/>
<path id="Capline-S" d="M263 626H3036" stroke="#27AAE1" stroke-width="0.577"/>
<g id="H-reference_2">
<path id="Vector_11" d="M393.932 1126H396.666L369.566 1055.54H367.076L339.977 1126H342.662L351.94 1101.54H384.703L393.932 1126ZM368.199 1058.91H368.443L383.824 1099.29H352.818L368.199 1058.91Z" fill="#27AAE1"/>
</g>
<path id="Baseline-M" d="M263 1126H3036" stroke="#27AAE1" stroke-width="0.577"/>
<path id="Capline-M" d="M263 1056H3036" stroke="#27AAE1" stroke-width="0.577"/>
<g id="H-reference_3">
<path id="Vector_12" d="M393.932 1556H396.666L369.566 1485.54H367.076L339.977 1556H342.662L351.94 1531.54H384.703L393.932 1556ZM368.199 1488.91H368.443L383.824 1529.29H352.818L368.199 1488.91Z" fill="#27AAE1"/>
</g>
<g id="Group 1">
<path id="Baseline-L" d="M263 1556H3036" stroke="#27AAE1" stroke-width="0.577"/>
<path id="Capline-L" d="M263 1486H3036" stroke="#27AAE1" stroke-width="0.577"/>
</g>
<path id="left-margin" opacity="0.4" d="M1402.04 1030.79H1393.3V1150.12H1402.04V1030.79Z" fill="#00AEEF"/>
<path id="right-margin" opacity="0.4" d="M1505.39 1030.79H1496.65V1150.12H1505.39V1030.79Z" fill="#00AEEF"/>
</g>
<g id="Symbols">
<g id="Black-L">
<g id="Outline / Calendar Outline">
<g id="Shape">
<path fill-rule="evenodd" clip-rule="evenodd" d="M2905.6 1525.87C2899.98 1525.87 2895.48 1530.37 2895.48 1535.99V1545.89C2895.48 1551.51 2899.98 1556.02 2905.6 1556.02H2923C2928.62 1556.02 2933.13 1551.51 2933.13 1545.89V1535.99C2933.13 1530.37 2928.62 1525.87 2923 1525.87H2905.6ZM2905.23 1535.99C2905.23 1535.85 2905.27 1535.77 2905.33 1535.72C2905.38 1535.66 2905.46 1535.62 2905.6 1535.62H2923C2923.14 1535.62 2923.22 1535.66 2923.27 1535.72C2923.33 1535.77 2923.38 1535.85 2923.38 1535.99V1545.89C2923.38 1546.03 2923.33 1546.11 2923.27 1546.17C2923.22 1546.22 2923.14 1546.27 2923 1546.27H2905.6C2905.46 1546.27 2905.38 1546.22 2905.33 1546.17C2905.27 1546.11 2905.23 1546.03 2905.23 1545.89V1535.99Z" fill="black"/>
<path fill-rule="evenodd" clip-rule="evenodd" d="M2904.92 1450.49C2904.92 1447.8 2902.74 1445.62 2900.05 1445.62C2897.36 1445.62 2895.17 1447.8 2895.17 1450.49V1460.92H2891.5C2879.05 1460.92 2869 1470.97 2869 1483.42V1559.39C2869 1571.84 2879.05 1581.89 2891.5 1581.89H2966.5C2978.95 1581.89 2989 1571.84 2989 1559.39V1483.42C2989 1470.97 2978.87 1460.92 2966.5 1460.92H2962.75V1450.49C2962.75 1447.8 2960.57 1445.62 2957.87 1445.62C2955.18 1445.62 2953 1447.8 2953 1450.49V1460.92H2933.87V1450.49C2933.87 1447.8 2931.69 1445.62 2929 1445.62C2926.31 1445.62 2924.12 1447.8 2924.12 1450.49V1460.92H2904.92V1450.49ZM2895.17 1470.67V1482.44C2895.17 1485.13 2897.36 1487.32 2900.05 1487.32C2902.74 1487.32 2904.92 1485.13 2904.92 1482.44V1470.67H2924.12V1482.44C2924.12 1485.13 2926.31 1487.32 2929 1487.32C2931.69 1487.32 2933.87 1485.13 2933.87 1482.44V1470.67H2953V1482.44C2953 1485.13 2955.18 1487.32 2957.87 1487.32C2960.57 1487.32 2962.75 1485.13 2962.75 1482.44V1470.67H2966.5C2973.55 1470.67 2979.25 1476.37 2979.25 1483.42V1501.12H2878.75V1483.42C2878.75 1476.37 2884.45 1470.67 2891.5 1470.67H2895.17ZM2878.75 1510.87H2979.25V1559.39C2979.25 1566.44 2973.55 1572.14 2966.5 1572.14H2891.5C2884.45 1572.14 2878.75 1566.44 2878.75 1559.39V1510.87Z" fill="black"/>
</g>
</g>
</g>
<g id="Heavy-L">
<g id="Outline / Calendar Outline_2">
<g id="Shape_2">
<path fill-rule="evenodd" clip-rule="evenodd" d="M2609.6 1525.87C2603.98 1525.87 2599.48 1530.37 2599.48 1535.99V1545.89C2599.48 1551.51 2603.98 1556.02 2609.6 1556.02H2627C2632.62 1556.02 2637.13 1551.51 2637.13 1545.89V1535.99C2637.13 1530.37 2632.62 1525.87 2627 1525.87H2609.6ZM2609.23 1535.99C2609.23 1535.85 2609.27 1535.77 2609.33 1535.72C2609.38 1535.66 2609.46 1535.62 2609.6 1535.62H2627C2627.14 1535.62 2627.22 1535.66 2627.27 1535.72C2627.33 1535.77 2627.38 1535.85 2627.38 1535.99V1545.89C2627.38 1546.03 2627.33 1546.11 2627.27 1546.17C2627.22 1546.22 2627.14 1546.27 2627 1546.27H2609.6C2609.46 1546.27 2609.38 1546.22 2609.33 1546.17C2609.27 1546.11 2609.23 1546.03 2609.23 1545.89V1535.99Z" fill="black"/>
<path fill-rule="evenodd" clip-rule="evenodd" d="M2608.92 1450.49C2608.92 1447.8 2606.74 1445.62 2604.05 1445.62C2601.36 1445.62 2599.17 1447.8 2599.17 1450.49V1460.92H2595.5C2583.05 1460.92 2573 1470.97 2573 1483.42V1559.39C2573 1571.84 2583.05 1581.89 2595.5 1581.89H2670.5C2682.95 1581.89 2693 1571.84 2693 1559.39V1483.42C2693 1470.97 2682.87 1460.92 2670.5 1460.92H2666.75V1450.49C2666.75 1447.8 2664.57 1445.62 2661.87 1445.62C2659.18 1445.62 2657 1447.8 2657 1450.49V1460.92H2637.87V1450.49C2637.87 1447.8 2635.69 1445.62 2633 1445.62C2630.31 1445.62 2628.12 1447.8 2628.12 1450.49V1460.92H2608.92V1450.49ZM2599.17 1470.67V1482.44C2599.17 1485.13 2601.36 1487.32 2604.05 1487.32C2606.74 1487.32 2608.92 1485.13 2608.92 1482.44V1470.67H2628.12V1482.44C2628.12 1485.13 2630.31 1487.32 2633 1487.32C2635.69 1487.32 2637.87 1485.13 2637.87 1482.44V1470.67H2657V1482.44C2657 1485.13 2659.18 1487.32 2661.87 1487.32C2664.57 1487.32 2666.75 1485.13 2666.75 1482.44V1470.67H2670.5C2677.55 1470.67 2683.25 1476.37 2683.25 1483.42V1501.12H2582.75V1483.42C2582.75 1476.37 2588.45 1470.67 2595.5 1470.67H2599.17ZM2582.75 1510.87H2683.25V1559.39C2683.25 1566.44 2677.55 1572.14 2670.5 1572.14H2595.5C2588.45 1572.14 2582.75 1566.44 2582.75 1559.39V1510.87Z" fill="black"/>
</g>
</g>
</g>
<g id="Bold-L">
<g id="Outline / Calendar Outline_3">
<g id="Shape_3">
<path fill-rule="evenodd" clip-rule="evenodd" d="M2313.6 1525.87C2307.98 1525.87 2303.48 1530.37 2303.48 1535.99V1545.89C2303.48 1551.51 2307.98 1556.02 2313.6 1556.02H2331C2336.62 1556.02 2341.13 1551.51 2341.13 1545.89V1535.99C2341.13 1530.37 2336.62 1525.87 2331 1525.87H2313.6ZM2313.23 1535.99C2313.23 1535.85 2313.27 1535.77 2313.33 1535.72C2313.38 1535.66 2313.46 1535.62 2313.6 1535.62H2331C2331.14 1535.62 2331.22 1535.66 2331.27 1535.72C2331.33 1535.77 2331.38 1535.85 2331.38 1535.99V1545.89C2331.38 1546.03 2331.33 1546.11 2331.27 1546.17C2331.22 1546.22 2331.14 1546.27 2331 1546.27H2313.6C2313.46 1546.27 2313.38 1546.22 2313.33 1546.17C2313.27 1546.11 2313.23 1546.03 2313.23 1545.89V1535.99Z" fill="black"/>
<path fill-rule="evenodd" clip-rule="evenodd" d="M2312.92 1450.49C2312.92 1447.8 2310.74 1445.62 2308.05 1445.62C2305.36 1445.62 2303.17 1447.8 2303.17 1450.49V1460.92H2299.5C2287.05 1460.92 2277 1470.97 2277 1483.42V1559.39C2277 1571.84 2287.05 1581.89 2299.5 1581.89H2374.5C2386.95 1581.89 2397 1571.84 2397 1559.39V1483.42C2397 1470.97 2386.87 1460.92 2374.5 1460.92H2370.75V1450.49C2370.75 1447.8 2368.57 1445.62 2365.87 1445.62C2363.18 1445.62 2361 1447.8 2361 1450.49V1460.92H2341.87V1450.49C2341.87 1447.8 2339.69 1445.62 2337 1445.62C2334.31 1445.62 2332.12 1447.8 2332.12 1450.49V1460.92H2312.92V1450.49ZM2303.17 1470.67V1482.44C2303.17 1485.13 2305.36 1487.32 2308.05 1487.32C2310.74 1487.32 2312.92 1485.13 2312.92 1482.44V1470.67H2332.12V1482.44C2332.12 1485.13 2334.31 1487.32 2337 1487.32C2339.69 1487.32 2341.87 1485.13 2341.87 1482.44V1470.67H2361V1482.44C2361 1485.13 2363.18 1487.32 2365.87 1487.32C2368.57 1487.32 2370.75 1485.13 2370.75 1482.44V1470.67H2374.5C2381.55 1470.67 2387.25 1476.37 2387.25 1483.42V1501.12H2286.75V1483.42C2286.75 1476.37 2292.45 1470.67 2299.5 1470.67H2303.17ZM2286.75 1510.87H2387.25V1559.39C2387.25 1566.44 2381.55 1572.14 2374.5 1572.14H2299.5C2292.45 1572.14 2286.75 1566.44 2286.75 1559.39V1510.87Z" fill="black"/>
</g>
</g>
</g>
<g id="Semibold-L">
<g id="Outline / Calendar Outline_4">
<g id="Shape_4">
<path fill-rule="evenodd" clip-rule="evenodd" d="M2017.6 1525.87C2011.98 1525.87 2007.48 1530.37 2007.48 1535.99V1545.89C2007.48 1551.51 2011.98 1556.02 2017.6 1556.02H2035C2040.62 1556.02 2045.13 1551.51 2045.13 1545.89V1535.99C2045.13 1530.37 2040.62 1525.87 2035 1525.87H2017.6ZM2017.23 1535.99C2017.23 1535.85 2017.27 1535.77 2017.33 1535.72C2017.38 1535.66 2017.46 1535.62 2017.6 1535.62H2035C2035.14 1535.62 2035.22 1535.66 2035.27 1535.72C2035.33 1535.77 2035.38 1535.85 2035.38 1535.99V1545.89C2035.38 1546.03 2035.33 1546.11 2035.27 1546.17C2035.22 1546.22 2035.14 1546.27 2035 1546.27H2017.6C2017.46 1546.27 2017.38 1546.22 2017.33 1546.17C2017.27 1546.11 2017.23 1546.03 2017.23 1545.89V1535.99Z" fill="black"/>
<path fill-rule="evenodd" clip-rule="evenodd" d="M2016.92 1450.49C2016.92 1447.8 2014.74 1445.62 2012.05 1445.62C2009.36 1445.62 2007.17 1447.8 2007.17 1450.49V1460.92H2003.5C1991.05 1460.92 1981 1470.97 1981 1483.42V1559.39C1981 1571.84 1991.05 1581.89 2003.5 1581.89H2078.5C2090.95 1581.89 2101 1571.84 2101 1559.39V1483.42C2101 1470.97 2090.87 1460.92 2078.5 1460.92H2074.75V1450.49C2074.75 1447.8 2072.57 1445.62 2069.87 1445.62C2067.18 1445.62 2065 1447.8 2065 1450.49V1460.92H2045.87V1450.49C2045.87 1447.8 2043.69 1445.62 2041 1445.62C2038.31 1445.62 2036.12 1447.8 2036.12 1450.49V1460.92H2016.92V1450.49ZM2007.17 1470.67V1482.44C2007.17 1485.13 2009.36 1487.32 2012.05 1487.32C2014.74 1487.32 2016.92 1485.13 2016.92 1482.44V1470.67H2036.12V1482.44C2036.12 1485.13 2038.31 1487.32 2041 1487.32C2043.69 1487.32 2045.87 1485.13 2045.87 1482.44V1470.67H2065V1482.44C2065 1485.13 2067.18 1487.32 2069.87 1487.32C2072.57 1487.32 2074.75 1485.13 2074.75 1482.44V1470.67H2078.5C2085.55 1470.67 2091.25 1476.37 2091.25 1483.42V1501.12H1990.75V1483.42C1990.75 1476.37 1996.45 1470.67 2003.5 1470.67H2007.17ZM1990.75 1510.87H2091.25V1559.39C2091.25 1566.44 2085.55 1572.14 2078.5 1572.14H2003.5C1996.45 1572.14 1990.75 1566.44 1990.75 1559.39V1510.87Z" fill="black"/>
</g>
</g>
</g>
<g id="Medium-L">
<g id="Outline / Calendar Outline_5">
<g id="Shape_5">
<path fill-rule="evenodd" clip-rule="evenodd" d="M1721.6 1525.87C1715.98 1525.87 1711.48 1530.37 1711.48 1535.99V1545.89C1711.48 1551.51 1715.98 1556.02 1721.6 1556.02H1739C1744.62 1556.02 1749.13 1551.51 1749.13 1545.89V1535.99C1749.13 1530.37 1744.62 1525.87 1739 1525.87H1721.6ZM1721.23 1535.99C1721.23 1535.85 1721.27 1535.77 1721.33 1535.72C1721.38 1535.66 1721.46 1535.62 1721.6 1535.62H1739C1739.14 1535.62 1739.22 1535.66 1739.27 1535.72C1739.33 1535.77 1739.38 1535.85 1739.38 1535.99V1545.89C1739.38 1546.03 1739.33 1546.11 1739.27 1546.17C1739.22 1546.22 1739.14 1546.27 1739 1546.27H1721.6C1721.46 1546.27 1721.38 1546.22 1721.33 1546.17C1721.27 1546.11 1721.23 1546.03 1721.23 1545.89V1535.99Z" fill="black"/>
<path fill-rule="evenodd" clip-rule="evenodd" d="M1720.92 1450.49C1720.92 1447.8 1718.74 1445.62 1716.05 1445.62C1713.36 1445.62 1711.17 1447.8 1711.17 1450.49V1460.92H1707.5C1695.05 1460.92 1685 1470.97 1685 1483.42V1559.39C1685 1571.84 1695.05 1581.89 1707.5 1581.89H1782.5C1794.95 1581.89 1805 1571.84 1805 1559.39V1483.42C1805 1470.97 1794.87 1460.92 1782.5 1460.92H1778.75V1450.49C1778.75 1447.8 1776.57 1445.62 1773.87 1445.62C1771.18 1445.62 1769 1447.8 1769 1450.49V1460.92H1749.87V1450.49C1749.87 1447.8 1747.69 1445.62 1745 1445.62C1742.31 1445.62 1740.12 1447.8 1740.12 1450.49V1460.92H1720.92V1450.49ZM1711.17 1470.67V1482.44C1711.17 1485.13 1713.36 1487.32 1716.05 1487.32C1718.74 1487.32 1720.92 1485.13 1720.92 1482.44V1470.67H1740.12V1482.44C1740.12 1485.13 1742.31 1487.32 1745 1487.32C1747.69 1487.32 1749.87 1485.13 1749.87 1482.44V1470.67H1769V1482.44C1769 1485.13 1771.18 1487.32 1773.87 1487.32C1776.57 1487.32 1778.75 1485.13 1778.75 1482.44V1470.67H1782.5C1789.55 1470.67 1795.25 1476.37 1795.25 1483.42V1501.12H1694.75V1483.42C1694.75 1476.37 1700.45 1470.67 1707.5 1470.67H1711.17ZM1694.75 1510.87H1795.25V1559.39C1795.25 1566.44 1789.55 1572.14 1782.5 1572.14H1707.5C1700.45 1572.14 1694.75 1566.44 1694.75 1559.39V1510.87Z" fill="black"/>
</g>
</g>
</g>
<g id="Regular-L">
<g id="Outline / Calendar Outline_6">
<g id="Shape_6">
<path fill-rule="evenodd" clip-rule="evenodd" d="M1425.6 1525.87C1419.98 1525.87 1415.48 1530.37 1415.48 1535.99V1545.89C1415.48 1551.51 1419.98 1556.02 1425.6 1556.02H1443C1448.62 1556.02 1453.13 1551.51 1453.13 1545.89V1535.99C1453.13 1530.37 1448.62 1525.87 1443 1525.87H1425.6ZM1425.23 1535.99C1425.23 1535.85 1425.27 1535.77 1425.33 1535.72C1425.38 1535.66 1425.46 1535.62 1425.6 1535.62H1443C1443.14 1535.62 1443.22 1535.66 1443.27 1535.72C1443.33 1535.77 1443.38 1535.85 1443.38 1535.99V1545.89C1443.38 1546.03 1443.33 1546.11 1443.27 1546.17C1443.22 1546.22 1443.14 1546.27 1443 1546.27H1425.6C1425.46 1546.27 1425.38 1546.22 1425.33 1546.17C1425.27 1546.11 1425.23 1546.03 1425.23 1545.89V1535.99Z" fill="black"/>
<path fill-rule="evenodd" clip-rule="evenodd" d="M1424.92 1450.49C1424.92 1447.8 1422.74 1445.62 1420.05 1445.62C1417.36 1445.62 1415.17 1447.8 1415.17 1450.49V1460.92H1411.5C1399.05 1460.92 1389 1470.97 1389 1483.42V1559.39C1389 1571.84 1399.05 1581.89 1411.5 1581.89H1486.5C1498.95 1581.89 1509 1571.84 1509 1559.39V1483.42C1509 1470.97 1498.87 1460.92 1486.5 1460.92H1482.75V1450.49C1482.75 1447.8 1480.57 1445.62 1477.87 1445.62C1475.18 1445.62 1473 1447.8 1473 1450.49V1460.92H1453.87V1450.49C1453.87 1447.8 1451.69 1445.62 1449 1445.62C1446.31 1445.62 1444.12 1447.8 1444.12 1450.49V1460.92H1424.92V1450.49ZM1415.17 1470.67V1482.44C1415.17 1485.13 1417.36 1487.32 1420.05 1487.32C1422.74 1487.32 1424.92 1485.13 1424.92 1482.44V1470.67H1444.12V1482.44C1444.12 1485.13 1446.31 1487.32 1449 1487.32C1451.69 1487.32 1453.87 1485.13 1453.87 1482.44V1470.67H1473V1482.44C1473 1485.13 1475.18 1487.32 1477.87 1487.32C1480.57 1487.32 1482.75 1485.13 1482.75 1482.44V1470.67H1486.5C1493.55 1470.67 1499.25 1476.37 1499.25 1483.42V1501.12H1398.75V1483.42C1398.75 1476.37 1404.45 1470.67 1411.5 1470.67H1415.17ZM1398.75 1510.87H1499.25V1559.39C1499.25 1566.44 1493.55 1572.14 1486.5 1572.14H1411.5C1404.45 1572.14 1398.75 1566.44 1398.75 1559.39V1510.87Z" fill="black"/>
</g>
</g>
</g>
<g id="Light-L">
<g id="Outline / Calendar Outline_7">
<g id="Shape_7">
<path fill-rule="evenodd" clip-rule="evenodd" d="M1129.6 1525.87C1123.98 1525.87 1119.48 1530.37 1119.48 1535.99V1545.89C1119.48 1551.51 1123.98 1556.02 1129.6 1556.02H1147C1152.62 1556.02 1157.13 1551.51 1157.13 1545.89V1535.99C1157.13 1530.37 1152.62 1525.87 1147 1525.87H1129.6ZM1129.23 1535.99C1129.23 1535.85 1129.27 1535.77 1129.33 1535.72C1129.38 1535.66 1129.46 1535.62 1129.6 1535.62H1147C1147.14 1535.62 1147.22 1535.66 1147.27 1535.72C1147.33 1535.77 1147.38 1535.85 1147.38 1535.99V1545.89C1147.38 1546.03 1147.33 1546.11 1147.27 1546.17C1147.22 1546.22 1147.14 1546.27 1147 1546.27H1129.6C1129.46 1546.27 1129.38 1546.22 1129.33 1546.17C1129.27 1546.11 1129.23 1546.03 1129.23 1545.89V1535.99Z" fill="black"/>
<path fill-rule="evenodd" clip-rule="evenodd" d="M1128.92 1450.49C1128.92 1447.8 1126.74 1445.62 1124.05 1445.62C1121.36 1445.62 1119.17 1447.8 1119.17 1450.49V1460.92H1115.5C1103.05 1460.92 1093 1470.97 1093 1483.42V1559.39C1093 1571.84 1103.05 1581.89 1115.5 1581.89H1190.5C1202.95 1581.89 1213 1571.84 1213 1559.39V1483.42C1213 1470.97 1202.87 1460.92 1190.5 1460.92H1186.75V1450.49C1186.75 1447.8 1184.57 1445.62 1181.87 1445.62C1179.18 1445.62 1177 1447.8 1177 1450.49V1460.92H1157.87V1450.49C1157.87 1447.8 1155.69 1445.62 1153 1445.62C1150.31 1445.62 1148.12 1447.8 1148.12 1450.49V1460.92H1128.92V1450.49ZM1119.17 1470.67V1482.44C1119.17 1485.13 1121.36 1487.32 1124.05 1487.32C1126.74 1487.32 1128.92 1485.13 1128.92 1482.44V1470.67H1148.12V1482.44C1148.12 1485.13 1150.31 1487.32 1153 1487.32C1155.69 1487.32 1157.87 1485.13 1157.87 1482.44V1470.67H1177V1482.44C1177 1485.13 1179.18 1487.32 1181.87 1487.32C1184.57 1487.32 1186.75 1485.13 1186.75 1482.44V1470.67H1190.5C1197.55 1470.67 1203.25 1476.37 1203.25 1483.42V1501.12H1102.75V1483.42C1102.75 1476.37 1108.45 1470.67 1115.5 1470.67H1119.17ZM1102.75 1510.87H1203.25V1559.39C1203.25 1566.44 1197.55 1572.14 1190.5 1572.14H1115.5C1108.45 1572.14 1102.75 1566.44 1102.75 1559.39V1510.87Z" fill="black"/>
</g>
</g>
</g>
<g id="Thin-L">
<g id="Outline / Calendar Outline_8">
<g id="Shape_8">
<path fill-rule="evenodd" clip-rule="evenodd" d="M833.6 1525.87C827.983 1525.87 823.475 1530.37 823.475 1535.99V1545.89C823.475 1551.51 827.983 1556.02 833.6 1556.02H851C856.618 1556.02 861.125 1551.51 861.125 1545.89V1535.99C861.125 1530.37 856.618 1525.87 851 1525.87H833.6ZM833.225 1535.99C833.225 1535.85 833.272 1535.77 833.325 1535.72C833.378 1535.66 833.459 1535.62 833.6 1535.62H851C851.141 1535.62 851.222 1535.66 851.275 1535.72C851.328 1535.77 851.375 1535.85 851.375 1535.99V1545.89C851.375 1546.03 851.328 1546.11 851.275 1546.17C851.222 1546.22 851.141 1546.27 851 1546.27H833.6C833.459 1546.27 833.378 1546.22 833.325 1546.17C833.272 1546.11 833.225 1546.03 833.225 1545.89V1535.99Z" fill="black"/>
<path fill-rule="evenodd" clip-rule="evenodd" d="M832.925 1450.49C832.925 1447.8 830.742 1445.62 828.05 1445.62C825.357 1445.62 823.175 1447.8 823.175 1450.49V1460.92H819.5C807.05 1460.92 797 1470.97 797 1483.42V1559.39C797 1571.84 807.05 1581.89 819.5 1581.89H894.5C906.95 1581.89 917 1571.84 917 1559.39V1483.42C917 1470.97 906.875 1460.92 894.5 1460.92H890.75V1450.49C890.75 1447.8 888.567 1445.62 885.875 1445.62C883.183 1445.62 881 1447.8 881 1450.49V1460.92H861.875V1450.49C861.875 1447.8 859.692 1445.62 857 1445.62C854.308 1445.62 852.125 1447.8 852.125 1450.49V1460.92H832.925V1450.49ZM823.175 1470.67V1482.44C823.175 1485.13 825.357 1487.32 828.05 1487.32C830.742 1487.32 832.925 1485.13 832.925 1482.44V1470.67H852.125V1482.44C852.125 1485.13 854.308 1487.32 857 1487.32C859.692 1487.32 861.875 1485.13 861.875 1482.44V1470.67H881V1482.44C881 1485.13 883.183 1487.32 885.875 1487.32C888.567 1487.32 890.75 1485.13 890.75 1482.44V1470.67H894.5C901.55 1470.67 907.25 1476.37 907.25 1483.42V1501.12H806.75V1483.42C806.75 1476.37 812.45 1470.67 819.5 1470.67H823.175ZM806.75 1510.87H907.25V1559.39C907.25 1566.44 901.55 1572.14 894.5 1572.14H819.5C812.45 1572.14 806.75 1566.44 806.75 1559.39V1510.87Z" fill="black"/>
</g>
</g>
</g>
<g id="Ultralight-L">
<g id="Outline / Calendar Outline_9">
<g id="Shape_9">
<path fill-rule="evenodd" clip-rule="evenodd" d="M537.6 1525.87C531.983 1525.87 527.475 1530.37 527.475 1535.99V1545.89C527.475 1551.51 531.983 1556.02 537.6 1556.02H555C560.618 1556.02 565.125 1551.51 565.125 1545.89V1535.99C565.125 1530.37 560.618 1525.87 555 1525.87H537.6ZM537.225 1535.99C537.225 1535.85 537.272 1535.77 537.325 1535.72C537.378 1535.66 537.459 1535.62 537.6 1535.62H555C555.141 1535.62 555.222 1535.66 555.275 1535.72C555.328 1535.77 555.375 1535.85 555.375 1535.99V1545.89C555.375 1546.03 555.328 1546.11 555.275 1546.17C555.222 1546.22 555.141 1546.27 555 1546.27H537.6C537.459 1546.27 537.378 1546.22 537.325 1546.17C537.272 1546.11 537.225 1546.03 537.225 1545.89V1535.99Z" fill="black"/>
<path fill-rule="evenodd" clip-rule="evenodd" d="M536.925 1450.49C536.925 1447.8 534.742 1445.62 532.05 1445.62C529.357 1445.62 527.175 1447.8 527.175 1450.49V1460.92H523.5C511.05 1460.92 501 1470.97 501 1483.42V1559.39C501 1571.84 511.05 1581.89 523.5 1581.89H598.5C610.95 1581.89 621 1571.84 621 1559.39V1483.42C621 1470.97 610.875 1460.92 598.5 1460.92H594.75V1450.49C594.75 1447.8 592.567 1445.62 589.875 1445.62C587.183 1445.62 585 1447.8 585 1450.49V1460.92H565.875V1450.49C565.875 1447.8 563.692 1445.62 561 1445.62C558.308 1445.62 556.125 1447.8 556.125 1450.49V1460.92H536.925V1450.49ZM527.175 1470.67V1482.44C527.175 1485.13 529.357 1487.32 532.05 1487.32C534.742 1487.32 536.925 1485.13 536.925 1482.44V1470.67H556.125V1482.44C556.125 1485.13 558.308 1487.32 561 1487.32C563.692 1487.32 565.875 1485.13 565.875 1482.44V1470.67H585V1482.44C585 1485.13 587.183 1487.32 589.875 1487.32C592.567 1487.32 594.75 1485.13 594.75 1482.44V1470.67H598.5C605.55 1470.67 611.25 1476.37 611.25 1483.42V1501.12H510.75V1483.42C510.75 1476.37 516.45 1470.67 523.5 1470.67H527.175ZM510.75 1510.87H611.25V1559.39C611.25 1566.44 605.55 1572.14 598.5 1572.14H523.5C516.45 1572.14 510.75 1566.44 510.75 1559.39V1510.87Z" fill="black"/>
</g>
</g>
</g>
<g id="Black-M">
<g id="Outline / Calendar Outline_10">
<g id="Shape_10">
<path fill-rule="evenodd" clip-rule="evenodd" d="M2910.8 1094.79C2906.43 1094.79 2902.93 1098.29 2902.93 1102.66V1110.36C2902.93 1114.73 2906.43 1118.24 2910.8 1118.24H2924.33C2928.7 1118.24 2932.21 1114.73 2932.21 1110.36V1102.66C2932.21 1098.29 2928.7 1094.79 2924.33 1094.79H2910.8ZM2910.51 1102.66C2910.51 1102.55 2910.55 1102.49 2910.59 1102.45C2910.63 1102.41 2910.69 1102.37 2910.8 1102.37H2924.33C2924.44 1102.37 2924.51 1102.41 2924.55 1102.45C2924.59 1102.49 2924.63 1102.55 2924.63 1102.66V1110.36C2924.63 1110.47 2924.59 1110.54 2924.55 1110.58C2924.51 1110.62 2924.44 1110.65 2924.33 1110.65H2910.8C2910.69 1110.65 2910.63 1110.62 2910.59 1110.58C2910.55 1110.54 2910.51 1110.47 2910.51 1110.36V1102.66Z" fill="black"/>
<path fill-rule="evenodd" clip-rule="evenodd" d="M2910.28 1036.16C2910.28 1034.07 2908.58 1032.37 2906.48 1032.37C2904.39 1032.37 2902.69 1034.07 2902.69 1036.16V1044.27H2899.83C2890.15 1044.27 2882.33 1052.09 2882.33 1061.77V1120.86C2882.33 1130.55 2890.15 1138.36 2899.83 1138.36H2958.17C2967.85 1138.36 2975.67 1130.55 2975.67 1120.86V1061.77C2975.67 1052.09 2967.79 1044.27 2958.17 1044.27H2955.25V1036.16C2955.25 1034.07 2953.55 1032.37 2951.46 1032.37C2949.36 1032.37 2947.67 1034.07 2947.67 1036.16V1044.27H2932.79V1036.16C2932.79 1034.07 2931.09 1032.37 2929 1032.37C2926.91 1032.37 2925.21 1034.07 2925.21 1036.16V1044.27H2910.28V1036.16ZM2902.69 1051.85V1061.01C2902.69 1063.11 2904.39 1064.8 2906.48 1064.8C2908.58 1064.8 2910.28 1063.11 2910.28 1061.01V1051.85H2925.21V1061.01C2925.21 1063.11 2926.91 1064.8 2929 1064.8C2931.09 1064.8 2932.79 1063.11 2932.79 1061.01V1051.85H2947.67V1061.01C2947.67 1063.11 2949.36 1064.8 2951.46 1064.8C2953.55 1064.8 2955.25 1063.11 2955.25 1061.01V1051.85H2958.17C2963.65 1051.85 2968.08 1056.29 2968.08 1061.77V1075.54H2889.92V1061.77C2889.92 1056.29 2894.35 1051.85 2899.83 1051.85H2902.69ZM2889.92 1083.12H2968.08V1120.86C2968.08 1126.35 2963.65 1130.78 2958.17 1130.78H2899.83C2894.35 1130.78 2889.92 1126.35 2889.92 1120.86V1083.12Z" fill="black"/>
</g>
</g>
</g>
<g id="Heavy-M">
<g id="Outline / Calendar Outline_11">
<g id="Shape_11">
<path fill-rule="evenodd" clip-rule="evenodd" d="M2614.8 1094.79C2610.43 1094.79 2606.93 1098.29 2606.93 1102.66V1110.36C2606.93 1114.73 2610.43 1118.24 2614.8 1118.24H2628.33C2632.7 1118.24 2636.21 1114.73 2636.21 1110.36V1102.66C2636.21 1098.29 2632.7 1094.79 2628.33 1094.79H2614.8ZM2614.51 1102.66C2614.51 1102.55 2614.55 1102.49 2614.59 1102.45C2614.63 1102.41 2614.69 1102.37 2614.8 1102.37H2628.33C2628.44 1102.37 2628.51 1102.41 2628.55 1102.45C2628.59 1102.49 2628.63 1102.55 2628.63 1102.66V1110.36C2628.63 1110.47 2628.59 1110.54 2628.55 1110.58C2628.51 1110.62 2628.44 1110.65 2628.33 1110.65H2614.8C2614.69 1110.65 2614.63 1110.62 2614.59 1110.58C2614.55 1110.54 2614.51 1110.47 2614.51 1110.36V1102.66Z" fill="black"/>
<path fill-rule="evenodd" clip-rule="evenodd" d="M2614.28 1036.16C2614.28 1034.07 2612.58 1032.37 2610.48 1032.37C2608.39 1032.37 2606.69 1034.07 2606.69 1036.16V1044.27H2603.83C2594.15 1044.27 2586.33 1052.09 2586.33 1061.77V1120.86C2586.33 1130.55 2594.15 1138.36 2603.83 1138.36H2662.17C2671.85 1138.36 2679.67 1130.55 2679.67 1120.86V1061.77C2679.67 1052.09 2671.79 1044.27 2662.17 1044.27H2659.25V1036.16C2659.25 1034.07 2657.55 1032.37 2655.46 1032.37C2653.36 1032.37 2651.67 1034.07 2651.67 1036.16V1044.27H2636.79V1036.16C2636.79 1034.07 2635.09 1032.37 2633 1032.37C2630.91 1032.37 2629.21 1034.07 2629.21 1036.16V1044.27H2614.28V1036.16ZM2606.69 1051.85V1061.01C2606.69 1063.11 2608.39 1064.8 2610.48 1064.8C2612.58 1064.8 2614.28 1063.11 2614.28 1061.01V1051.85H2629.21V1061.01C2629.21 1063.11 2630.91 1064.8 2633 1064.8C2635.09 1064.8 2636.79 1063.11 2636.79 1061.01V1051.85H2651.67V1061.01C2651.67 1063.11 2653.36 1064.8 2655.46 1064.8C2657.55 1064.8 2659.25 1063.11 2659.25 1061.01V1051.85H2662.17C2667.65 1051.85 2672.08 1056.29 2672.08 1061.77V1075.54H2593.92V1061.77C2593.92 1056.29 2598.35 1051.85 2603.83 1051.85H2606.69ZM2593.92 1083.12H2672.08V1120.86C2672.08 1126.35 2667.65 1130.78 2662.17 1130.78H2603.83C2598.35 1130.78 2593.92 1126.35 2593.92 1120.86V1083.12Z" fill="black"/>
</g>
</g>
</g>
<g id="Bold-M">
<g id="Outline / Calendar Outline_12">
<g id="Shape_12">
<path fill-rule="evenodd" clip-rule="evenodd" d="M2318.8 1094.79C2314.43 1094.79 2310.92 1098.29 2310.92 1102.66V1110.36C2310.92 1114.73 2314.43 1118.24 2318.8 1118.24H2332.33C2336.7 1118.24 2340.21 1114.73 2340.21 1110.36V1102.66C2340.21 1098.29 2336.7 1094.79 2332.33 1094.79H2318.8ZM2318.51 1102.66C2318.51 1102.55 2318.54 1102.49 2318.59 1102.45C2318.63 1102.41 2318.69 1102.37 2318.8 1102.37H2332.33C2332.44 1102.37 2332.5 1102.41 2332.55 1102.45C2332.59 1102.49 2332.62 1102.55 2332.62 1102.66V1110.36C2332.62 1110.47 2332.59 1110.54 2332.55 1110.58C2332.5 1110.62 2332.44 1110.65 2332.33 1110.65H2318.8C2318.69 1110.65 2318.63 1110.62 2318.59 1110.58C2318.54 1110.54 2318.51 1110.47 2318.51 1110.36V1102.66Z" fill="black"/>
<path fill-rule="evenodd" clip-rule="evenodd" d="M2318.27 1036.16C2318.27 1034.07 2316.58 1032.37 2314.48 1032.37C2312.39 1032.37 2310.69 1034.07 2310.69 1036.16V1044.27H2307.83C2298.15 1044.27 2290.33 1052.09 2290.33 1061.77V1120.86C2290.33 1130.55 2298.15 1138.36 2307.83 1138.36H2366.17C2375.85 1138.36 2383.67 1130.55 2383.67 1120.86V1061.77C2383.67 1052.09 2375.79 1044.27 2366.17 1044.27H2363.25V1036.16C2363.25 1034.07 2361.55 1032.37 2359.46 1032.37C2357.36 1032.37 2355.67 1034.07 2355.67 1036.16V1044.27H2340.79V1036.16C2340.79 1034.07 2339.09 1032.37 2337 1032.37C2334.9 1032.37 2333.21 1034.07 2333.21 1036.16V1044.27H2318.27V1036.16ZM2310.69 1051.85V1061.01C2310.69 1063.11 2312.39 1064.8 2314.48 1064.8C2316.58 1064.8 2318.27 1063.11 2318.27 1061.01V1051.85H2333.21V1061.01C2333.21 1063.11 2334.9 1064.8 2337 1064.8C2339.09 1064.8 2340.79 1063.11 2340.79 1061.01V1051.85H2355.67V1061.01C2355.67 1063.11 2357.36 1064.8 2359.46 1064.8C2361.55 1064.8 2363.25 1063.11 2363.25 1061.01V1051.85H2366.17C2371.65 1051.85 2376.08 1056.29 2376.08 1061.77V1075.54H2297.92V1061.77C2297.92 1056.29 2302.35 1051.85 2307.83 1051.85H2310.69ZM2297.92 1083.12H2376.08V1120.86C2376.08 1126.35 2371.65 1130.78 2366.17 1130.78H2307.83C2302.35 1130.78 2297.92 1126.35 2297.92 1120.86V1083.12Z" fill="black"/>
</g>
</g>
</g>
<g id="Semibold-M">
<g id="Outline / Calendar Outline_13">
<g id="Shape_13">
<path fill-rule="evenodd" clip-rule="evenodd" d="M2022.8 1094.79C2018.43 1094.79 2014.92 1098.29 2014.92 1102.66V1110.36C2014.92 1114.73 2018.43 1118.24 2022.8 1118.24H2036.33C2040.7 1118.24 2044.21 1114.73 2044.21 1110.36V1102.66C2044.21 1098.29 2040.7 1094.79 2036.33 1094.79H2022.8ZM2022.51 1102.66C2022.51 1102.55 2022.54 1102.49 2022.59 1102.45C2022.63 1102.41 2022.69 1102.37 2022.8 1102.37H2036.33C2036.44 1102.37 2036.5 1102.41 2036.55 1102.45C2036.59 1102.49 2036.62 1102.55 2036.62 1102.66V1110.36C2036.62 1110.47 2036.59 1110.54 2036.55 1110.58C2036.5 1110.62 2036.44 1110.65 2036.33 1110.65H2022.8C2022.69 1110.65 2022.63 1110.62 2022.59 1110.58C2022.54 1110.54 2022.51 1110.47 2022.51 1110.36V1102.66Z" fill="black"/>
<path fill-rule="evenodd" clip-rule="evenodd" d="M2022.27 1036.16C2022.27 1034.07 2020.58 1032.37 2018.48 1032.37C2016.39 1032.37 2014.69 1034.07 2014.69 1036.16V1044.27H2011.83C2002.15 1044.27 1994.33 1052.09 1994.33 1061.77V1120.86C1994.33 1130.55 2002.15 1138.36 2011.83 1138.36H2070.17C2079.85 1138.36 2087.67 1130.55 2087.67 1120.86V1061.77C2087.67 1052.09 2079.79 1044.27 2070.17 1044.27H2067.25V1036.16C2067.25 1034.07 2065.55 1032.37 2063.46 1032.37C2061.36 1032.37 2059.67 1034.07 2059.67 1036.16V1044.27H2044.79V1036.16C2044.79 1034.07 2043.09 1032.37 2041 1032.37C2038.9 1032.37 2037.21 1034.07 2037.21 1036.16V1044.27H2022.27V1036.16ZM2014.69 1051.85V1061.01C2014.69 1063.11 2016.39 1064.8 2018.48 1064.8C2020.58 1064.8 2022.27 1063.11 2022.27 1061.01V1051.85H2037.21V1061.01C2037.21 1063.11 2038.9 1064.8 2041 1064.8C2043.09 1064.8 2044.79 1063.11 2044.79 1061.01V1051.85H2059.67V1061.01C2059.67 1063.11 2061.36 1064.8 2063.46 1064.8C2065.55 1064.8 2067.25 1063.11 2067.25 1061.01V1051.85H2070.17C2075.65 1051.85 2080.08 1056.29 2080.08 1061.77V1075.54H2001.92V1061.77C2001.92 1056.29 2006.35 1051.85 2011.83 1051.85H2014.69ZM2001.92 1083.12H2080.08V1120.86C2080.08 1126.35 2075.65 1130.78 2070.17 1130.78H2011.83C2006.35 1130.78 2001.92 1126.35 2001.92 1120.86V1083.12Z" fill="black"/>
</g>
</g>
</g>
<g id="Medium-M">
<g id="Outline / Calendar Outline_14">
<g id="Shape_14">
<path fill-rule="evenodd" clip-rule="evenodd" d="M1726.8 1094.79C1722.43 1094.79 1718.92 1098.29 1718.92 1102.66V1110.36C1718.92 1114.73 1722.43 1118.24 1726.8 1118.24H1740.33C1744.7 1118.24 1748.21 1114.73 1748.21 1110.36V1102.66C1748.21 1098.29 1744.7 1094.79 1740.33 1094.79H1726.8ZM1726.51 1102.66C1726.51 1102.55 1726.54 1102.49 1726.59 1102.45C1726.63 1102.41 1726.69 1102.37 1726.8 1102.37H1740.33C1740.44 1102.37 1740.5 1102.41 1740.55 1102.45C1740.59 1102.49 1740.62 1102.55 1740.62 1102.66V1110.36C1740.62 1110.47 1740.59 1110.54 1740.55 1110.58C1740.5 1110.62 1740.44 1110.65 1740.33 1110.65H1726.8C1726.69 1110.65 1726.63 1110.62 1726.59 1110.58C1726.54 1110.54 1726.51 1110.47 1726.51 1110.36V1102.66Z" fill="black"/>
<path fill-rule="evenodd" clip-rule="evenodd" d="M1726.27 1036.16C1726.27 1034.07 1724.58 1032.37 1722.48 1032.37C1720.39 1032.37 1718.69 1034.07 1718.69 1036.16V1044.27H1715.83C1706.15 1044.27 1698.33 1052.09 1698.33 1061.77V1120.86C1698.33 1130.55 1706.15 1138.36 1715.83 1138.36H1774.17C1783.85 1138.36 1791.67 1130.55 1791.67 1120.86V1061.77C1791.67 1052.09 1783.79 1044.27 1774.17 1044.27H1771.25V1036.16C1771.25 1034.07 1769.55 1032.37 1767.46 1032.37C1765.36 1032.37 1763.67 1034.07 1763.67 1036.16V1044.27H1748.79V1036.16C1748.79 1034.07 1747.09 1032.37 1745 1032.37C1742.9 1032.37 1741.21 1034.07 1741.21 1036.16V1044.27H1726.27V1036.16ZM1718.69 1051.85V1061.01C1718.69 1063.11 1720.39 1064.8 1722.48 1064.8C1724.58 1064.8 1726.27 1063.11 1726.27 1061.01V1051.85H1741.21V1061.01C1741.21 1063.11 1742.9 1064.8 1745 1064.8C1747.09 1064.8 1748.79 1063.11 1748.79 1061.01V1051.85H1763.67V1061.01C1763.67 1063.11 1765.36 1064.8 1767.46 1064.8C1769.55 1064.8 1771.25 1063.11 1771.25 1061.01V1051.85H1774.17C1779.65 1051.85 1784.08 1056.29 1784.08 1061.77V1075.54H1705.92V1061.77C1705.92 1056.29 1710.35 1051.85 1715.83 1051.85H1718.69ZM1705.92 1083.12H1784.08V1120.86C1784.08 1126.35 1779.65 1130.78 1774.17 1130.78H1715.83C1710.35 1130.78 1705.92 1126.35 1705.92 1120.86V1083.12Z" fill="black"/>
</g>
</g>
</g>
<g id="Regular-M">
<g id="Outline / Calendar Outline_15">
<g id="Shape_15">
<path fill-rule="evenodd" clip-rule="evenodd" d="M1430.8 1094.79C1426.43 1094.79 1422.92 1098.29 1422.92 1102.66V1110.36C1422.92 1114.73 1426.43 1118.24 1430.8 1118.24H1444.33C1448.7 1118.24 1452.21 1114.73 1452.21 1110.36V1102.66C1452.21 1098.29 1448.7 1094.79 1444.33 1094.79H1430.8ZM1430.51 1102.66C1430.51 1102.55 1430.54 1102.49 1430.59 1102.45C1430.63 1102.41 1430.69 1102.37 1430.8 1102.37H1444.33C1444.44 1102.37 1444.5 1102.41 1444.55 1102.45C1444.59 1102.49 1444.62 1102.55 1444.62 1102.66V1110.36C1444.62 1110.47 1444.59 1110.54 1444.55 1110.58C1444.5 1110.62 1444.44 1110.65 1444.33 1110.65H1430.8C1430.69 1110.65 1430.63 1110.62 1430.59 1110.58C1430.54 1110.54 1430.51 1110.47 1430.51 1110.36V1102.66Z" fill="black"/>
<path fill-rule="evenodd" clip-rule="evenodd" d="M1430.27 1036.16C1430.27 1034.07 1428.58 1032.37 1426.48 1032.37C1424.39 1032.37 1422.69 1034.07 1422.69 1036.16V1044.27H1419.83C1410.15 1044.27 1402.33 1052.09 1402.33 1061.77V1120.86C1402.33 1130.55 1410.15 1138.36 1419.83 1138.36H1478.17C1487.85 1138.36 1495.67 1130.55 1495.67 1120.86V1061.77C1495.67 1052.09 1487.79 1044.27 1478.17 1044.27H1475.25V1036.16C1475.25 1034.07 1473.55 1032.37 1471.46 1032.37C1469.36 1032.37 1467.67 1034.07 1467.67 1036.16V1044.27H1452.79V1036.16C1452.79 1034.07 1451.09 1032.37 1449 1032.37C1446.9 1032.37 1445.21 1034.07 1445.21 1036.16V1044.27H1430.27V1036.16ZM1422.69 1051.85V1061.01C1422.69 1063.11 1424.39 1064.8 1426.48 1064.8C1428.58 1064.8 1430.27 1063.11 1430.27 1061.01V1051.85H1445.21V1061.01C1445.21 1063.11 1446.9 1064.8 1449 1064.8C1451.09 1064.8 1452.79 1063.11 1452.79 1061.01V1051.85H1467.67V1061.01C1467.67 1063.11 1469.36 1064.8 1471.46 1064.8C1473.55 1064.8 1475.25 1063.11 1475.25 1061.01V1051.85H1478.17C1483.65 1051.85 1488.08 1056.29 1488.08 1061.77V1075.54H1409.92V1061.77C1409.92 1056.29 1414.35 1051.85 1419.83 1051.85H1422.69ZM1409.92 1083.12H1488.08V1120.86C1488.08 1126.35 1483.65 1130.78 1478.17 1130.78H1419.83C1414.35 1130.78 1409.92 1126.35 1409.92 1120.86V1083.12Z" fill="black"/>
</g>
</g>
</g>
<g id="Light-M">
<g id="Outline / Calendar Outline_16">
<g id="Shape_16">
<path fill-rule="evenodd" clip-rule="evenodd" d="M1134.8 1094.79C1130.43 1094.79 1126.92 1098.29 1126.92 1102.66V1110.36C1126.92 1114.73 1130.43 1118.24 1134.8 1118.24H1148.33C1152.7 1118.24 1156.21 1114.73 1156.21 1110.36V1102.66C1156.21 1098.29 1152.7 1094.79 1148.33 1094.79H1134.8ZM1134.51 1102.66C1134.51 1102.55 1134.54 1102.49 1134.59 1102.45C1134.63 1102.41 1134.69 1102.37 1134.8 1102.37H1148.33C1148.44 1102.37 1148.5 1102.41 1148.55 1102.45C1148.59 1102.49 1148.62 1102.55 1148.62 1102.66V1110.36C1148.62 1110.47 1148.59 1110.54 1148.55 1110.58C1148.5 1110.62 1148.44 1110.65 1148.33 1110.65H1134.8C1134.69 1110.65 1134.63 1110.62 1134.59 1110.58C1134.54 1110.54 1134.51 1110.47 1134.51 1110.36V1102.66Z" fill="black"/>
<path fill-rule="evenodd" clip-rule="evenodd" d="M1134.27 1036.16C1134.27 1034.07 1132.58 1032.37 1130.48 1032.37C1128.39 1032.37 1126.69 1034.07 1126.69 1036.16V1044.27H1123.83C1114.15 1044.27 1106.33 1052.09 1106.33 1061.77V1120.86C1106.33 1130.55 1114.15 1138.36 1123.83 1138.36H1182.17C1191.85 1138.36 1199.67 1130.55 1199.67 1120.86V1061.77C1199.67 1052.09 1191.79 1044.27 1182.17 1044.27H1179.25V1036.16C1179.25 1034.07 1177.55 1032.37 1175.46 1032.37C1173.36 1032.37 1171.67 1034.07 1171.67 1036.16V1044.27H1156.79V1036.16C1156.79 1034.07 1155.09 1032.37 1153 1032.37C1150.9 1032.37 1149.21 1034.07 1149.21 1036.16V1044.27H1134.27V1036.16ZM1126.69 1051.85V1061.01C1126.69 1063.11 1128.39 1064.8 1130.48 1064.8C1132.58 1064.8 1134.27 1063.11 1134.27 1061.01V1051.85H1149.21V1061.01C1149.21 1063.11 1150.9 1064.8 1153 1064.8C1155.09 1064.8 1156.79 1063.11 1156.79 1061.01V1051.85H1171.67V1061.01C1171.67 1063.11 1173.36 1064.8 1175.46 1064.8C1177.55 1064.8 1179.25 1063.11 1179.25 1061.01V1051.85H1182.17C1187.65 1051.85 1192.08 1056.29 1192.08 1061.77V1075.54H1113.92V1061.77C1113.92 1056.29 1118.35 1051.85 1123.83 1051.85H1126.69ZM1113.92 1083.12H1192.08V1120.86C1192.08 1126.35 1187.65 1130.78 1182.17 1130.78H1123.83C1118.35 1130.78 1113.92 1126.35 1113.92 1120.86V1083.12Z" fill="black"/>
</g>
</g>
</g>
<g id="Thin-M">
<g id="Outline / Calendar Outline_17">
<g id="Shape_17">
<path fill-rule="evenodd" clip-rule="evenodd" d="M838.799 1094.79C834.43 1094.79 830.924 1098.29 830.924 1102.66V1110.36C830.924 1114.73 834.43 1118.24 838.799 1118.24H852.332C856.701 1118.24 860.207 1114.73 860.207 1110.36V1102.66C860.207 1098.29 856.701 1094.79 852.332 1094.79H838.799ZM838.507 1102.66C838.507 1102.55 838.544 1102.49 838.585 1102.45C838.626 1102.41 838.689 1102.37 838.799 1102.37H852.332C852.442 1102.37 852.505 1102.41 852.546 1102.45C852.587 1102.49 852.624 1102.55 852.624 1102.66V1110.36C852.624 1110.47 852.587 1110.54 852.546 1110.58C852.505 1110.62 852.442 1110.65 852.332 1110.65H838.799C838.689 1110.65 838.626 1110.62 838.585 1110.58C838.544 1110.54 838.507 1110.47 838.507 1110.36V1102.66Z" fill="black"/>
<path fill-rule="evenodd" clip-rule="evenodd" d="M838.274 1036.16C838.274 1034.07 836.576 1032.37 834.482 1032.37C832.388 1032.37 830.69 1034.07 830.69 1036.16V1044.27H827.832C818.149 1044.27 810.332 1052.09 810.332 1061.77V1120.86C810.332 1130.55 818.149 1138.36 827.832 1138.36H886.165C895.849 1138.36 903.665 1130.55 903.665 1120.86V1061.77C903.665 1052.09 895.79 1044.27 886.165 1044.27H883.249V1036.16C883.249 1034.07 881.551 1032.37 879.457 1032.37C877.363 1032.37 875.665 1034.07 875.665 1036.16V1044.27H860.79V1036.16C860.79 1034.07 859.093 1032.37 856.999 1032.37C854.905 1032.37 853.207 1034.07 853.207 1036.16V1044.27H838.274V1036.16ZM830.69 1051.85V1061.01C830.69 1063.11 832.388 1064.8 834.482 1064.8C836.576 1064.8 838.274 1063.11 838.274 1061.01V1051.85H853.207V1061.01C853.207 1063.11 854.905 1064.8 856.999 1064.8C859.093 1064.8 860.79 1063.11 860.79 1061.01V1051.85H875.665V1061.01C875.665 1063.11 877.363 1064.8 879.457 1064.8C881.551 1064.8 883.249 1063.11 883.249 1061.01V1051.85H886.165C891.649 1051.85 896.082 1056.29 896.082 1061.77V1075.54H817.915V1061.77C817.915 1056.29 822.349 1051.85 827.832 1051.85H830.69ZM817.915 1083.12H896.082V1120.86C896.082 1126.35 891.649 1130.78 886.165 1130.78H827.832C822.349 1130.78 817.915 1126.35 817.915 1120.86V1083.12Z" fill="black"/>
</g>
</g>
</g>
<g id="Ultralight-M">
<g id="Outline / Calendar Outline_18">
<g id="Shape_18">
<path fill-rule="evenodd" clip-rule="evenodd" d="M542.799 1094.79C538.43 1094.79 534.924 1098.29 534.924 1102.66V1110.36C534.924 1114.73 538.43 1118.24 542.799 1118.24H556.332C560.701 1118.24 564.207 1114.73 564.207 1110.36V1102.66C564.207 1098.29 560.701 1094.79 556.332 1094.79H542.799ZM542.507 1102.66C542.507 1102.55 542.544 1102.49 542.585 1102.45C542.626 1102.41 542.689 1102.37 542.799 1102.37H556.332C556.442 1102.37 556.505 1102.41 556.546 1102.45C556.587 1102.49 556.624 1102.55 556.624 1102.66V1110.36C556.624 1110.47 556.587 1110.54 556.546 1110.58C556.505 1110.62 556.442 1110.65 556.332 1110.65H542.799C542.689 1110.65 542.626 1110.62 542.585 1110.58C542.544 1110.54 542.507 1110.47 542.507 1110.36V1102.66Z" fill="black"/>
<path fill-rule="evenodd" clip-rule="evenodd" d="M542.274 1036.16C542.274 1034.07 540.576 1032.37 538.482 1032.37C536.388 1032.37 534.69 1034.07 534.69 1036.16V1044.27H531.832C522.149 1044.27 514.332 1052.09 514.332 1061.77V1120.86C514.332 1130.55 522.149 1138.36 531.832 1138.36H590.165C599.849 1138.36 607.665 1130.55 607.665 1120.86V1061.77C607.665 1052.09 599.79 1044.27 590.165 1044.27H587.249V1036.16C587.249 1034.07 585.551 1032.37 583.457 1032.37C581.363 1032.37 579.665 1034.07 579.665 1036.16V1044.27H564.79V1036.16C564.79 1034.07 563.093 1032.37 560.999 1032.37C558.905 1032.37 557.207 1034.07 557.207 1036.16V1044.27H542.274V1036.16ZM534.69 1051.85V1061.01C534.69 1063.11 536.388 1064.8 538.482 1064.8C540.576 1064.8 542.274 1063.11 542.274 1061.01V1051.85H557.207V1061.01C557.207 1063.11 558.905 1064.8 560.999 1064.8C563.093 1064.8 564.79 1063.11 564.79 1061.01V1051.85H579.665V1061.01C579.665 1063.11 581.363 1064.8 583.457 1064.8C585.551 1064.8 587.249 1063.11 587.249 1061.01V1051.85H590.165C595.649 1051.85 600.082 1056.29 600.082 1061.77V1075.54H521.915V1061.77C521.915 1056.29 526.349 1051.85 531.832 1051.85H534.69ZM521.915 1083.12H600.082V1120.86C600.082 1126.35 595.649 1130.78 590.165 1130.78H531.832C526.349 1130.78 521.915 1126.35 521.915 1120.86V1083.12Z" fill="black"/>
</g>
</g>
</g>
<g id="Black-S">
<g id="Outline / Calendar Outline_19">
<g id="Shape_19">
<path fill-rule="evenodd" clip-rule="evenodd" d="M2916 663.704C2912.88 663.704 2910.37 666.209 2910.37 669.329V674.829C2910.37 677.95 2912.88 680.454 2916 680.454H2925.67C2928.79 680.454 2931.29 677.95 2931.29 674.829V669.329C2931.29 666.209 2928.79 663.704 2925.67 663.704H2916ZM2915.79 669.329C2915.79 669.251 2915.82 669.206 2915.85 669.177C2915.88 669.147 2915.92 669.121 2916 669.121H2925.67C2925.74 669.121 2925.79 669.147 2925.82 669.177C2925.85 669.206 2925.87 669.251 2925.87 669.329V674.829C2925.87 674.908 2925.85 674.953 2925.82 674.982C2925.79 675.012 2925.74 675.038 2925.67 675.038H2916C2915.92 675.038 2915.88 675.012 2915.85 674.982C2915.82 674.953 2915.79 674.908 2915.79 674.829V669.329Z" fill="black"/>
<path fill-rule="evenodd" clip-rule="evenodd" d="M2915.62 621.829C2915.62 620.334 2914.41 619.121 2912.92 619.121C2911.42 619.121 2910.21 620.334 2910.21 621.829V627.621H2908.17C2901.25 627.621 2895.67 633.204 2895.67 640.121V682.329C2895.67 689.246 2901.25 694.829 2908.17 694.829H2949.83C2956.75 694.829 2962.33 689.246 2962.33 682.329V640.121C2962.33 633.204 2956.71 627.621 2949.83 627.621H2947.75V621.829C2947.75 620.334 2946.54 619.121 2945.04 619.121C2943.55 619.121 2942.33 620.334 2942.33 621.829V627.621H2931.71V621.829C2931.71 620.334 2930.5 619.121 2929 619.121C2927.5 619.121 2926.29 620.334 2926.29 621.829V627.621H2915.62V621.829ZM2910.21 633.038V639.579C2910.21 641.075 2911.42 642.288 2912.92 642.288C2914.41 642.288 2915.62 641.075 2915.62 639.579V633.038H2926.29V639.579C2926.29 641.075 2927.5 642.288 2929 642.288C2930.5 642.288 2931.71 641.075 2931.71 639.579V633.038H2942.33V639.579C2942.33 641.075 2943.55 642.288 2945.04 642.288C2946.54 642.288 2947.75 641.075 2947.75 639.579V633.038H2949.83C2953.75 633.038 2956.92 636.204 2956.92 640.121V649.955H2901.08V640.121C2901.08 636.204 2904.25 633.038 2908.17 633.038H2910.21ZM2901.08 655.371H2956.92V682.329C2956.92 686.246 2953.75 689.413 2949.83 689.413H2908.17C2904.25 689.413 2901.08 686.246 2901.08 682.329V655.371Z" fill="black"/>
</g>
</g>
</g>
<g id="Heavy-S">
<g id="Outline / Calendar Outline_20">
<g id="Shape_20">
<path fill-rule="evenodd" clip-rule="evenodd" d="M2620 663.704C2616.88 663.704 2614.37 666.209 2614.37 669.329V674.829C2614.37 677.95 2616.88 680.454 2620 680.454H2629.67C2632.79 680.454 2635.29 677.95 2635.29 674.829V669.329C2635.29 666.209 2632.79 663.704 2629.67 663.704H2620ZM2619.79 669.329C2619.79 669.251 2619.82 669.206 2619.85 669.177C2619.88 669.147 2619.92 669.121 2620 669.121H2629.67C2629.74 669.121 2629.79 669.147 2629.82 669.177C2629.85 669.206 2629.87 669.251 2629.87 669.329V674.829C2629.87 674.908 2629.85 674.953 2629.82 674.982C2629.79 675.012 2629.74 675.038 2629.67 675.038H2620C2619.92 675.038 2619.88 675.012 2619.85 674.982C2619.82 674.953 2619.79 674.908 2619.79 674.829V669.329Z" fill="black"/>
<path fill-rule="evenodd" clip-rule="evenodd" d="M2619.62 621.829C2619.62 620.334 2618.41 619.121 2616.92 619.121C2615.42 619.121 2614.21 620.334 2614.21 621.829V627.621H2612.17C2605.25 627.621 2599.67 633.204 2599.67 640.121V682.329C2599.67 689.246 2605.25 694.829 2612.17 694.829H2653.83C2660.75 694.829 2666.33 689.246 2666.33 682.329V640.121C2666.33 633.204 2660.71 627.621 2653.83 627.621H2651.75V621.829C2651.75 620.334 2650.54 619.121 2649.04 619.121C2647.55 619.121 2646.33 620.334 2646.33 621.829V627.621H2635.71V621.829C2635.71 620.334 2634.5 619.121 2633 619.121C2631.5 619.121 2630.29 620.334 2630.29 621.829V627.621H2619.62V621.829ZM2614.21 633.038V639.579C2614.21 641.075 2615.42 642.288 2616.92 642.288C2618.41 642.288 2619.62 641.075 2619.62 639.579V633.038H2630.29V639.579C2630.29 641.075 2631.5 642.288 2633 642.288C2634.5 642.288 2635.71 641.075 2635.71 639.579V633.038H2646.33V639.579C2646.33 641.075 2647.55 642.288 2649.04 642.288C2650.54 642.288 2651.75 641.075 2651.75 639.579V633.038H2653.83C2657.75 633.038 2660.92 636.204 2660.92 640.121V649.955H2605.08V640.121C2605.08 636.204 2608.25 633.038 2612.17 633.038H2614.21ZM2605.08 655.371H2660.92V682.329C2660.92 686.246 2657.75 689.413 2653.83 689.413H2612.17C2608.25 689.413 2605.08 686.246 2605.08 682.329V655.371Z" fill="black"/>
</g>
</g>
</g>
<g id="Bold-S">
<g id="Outline / Calendar Outline_21">
<g id="Shape_21">
<path fill-rule="evenodd" clip-rule="evenodd" d="M2324 663.704C2320.88 663.704 2318.38 666.209 2318.38 669.329V674.829C2318.38 677.95 2320.88 680.454 2324 680.454H2333.67C2336.79 680.454 2339.29 677.95 2339.29 674.829V669.329C2339.29 666.209 2336.79 663.704 2333.67 663.704H2324ZM2323.79 669.329C2323.79 669.251 2323.82 669.206 2323.85 669.177C2323.88 669.147 2323.92 669.121 2324 669.121H2333.67C2333.75 669.121 2333.79 669.147 2333.82 669.177C2333.85 669.206 2333.88 669.251 2333.88 669.329V674.829C2333.88 674.908 2333.85 674.953 2333.82 674.982C2333.79 675.012 2333.75 675.038 2333.67 675.038H2324C2323.92 675.038 2323.88 675.012 2323.85 674.982C2323.82 674.953 2323.79 674.908 2323.79 674.829V669.329Z" fill="black"/>
<path fill-rule="evenodd" clip-rule="evenodd" d="M2323.63 621.829C2323.63 620.334 2322.41 619.121 2320.92 619.121C2319.42 619.121 2318.21 620.334 2318.21 621.829V627.621H2316.17C2309.25 627.621 2303.67 633.204 2303.67 640.121V682.329C2303.67 689.246 2309.25 694.829 2316.17 694.829H2357.83C2364.75 694.829 2370.33 689.246 2370.33 682.329V640.121C2370.33 633.204 2364.71 627.621 2357.83 627.621H2355.75V621.829C2355.75 620.334 2354.54 619.121 2353.04 619.121C2351.55 619.121 2350.33 620.334 2350.33 621.829V627.621H2339.71V621.829C2339.71 620.334 2338.5 619.121 2337 619.121C2335.51 619.121 2334.29 620.334 2334.29 621.829V627.621H2323.63V621.829ZM2318.21 633.038V639.579C2318.21 641.075 2319.42 642.288 2320.92 642.288C2322.41 642.288 2323.63 641.075 2323.63 639.579V633.038H2334.29V639.579C2334.29 641.075 2335.51 642.288 2337 642.288C2338.5 642.288 2339.71 641.075 2339.71 639.579V633.038H2350.33V639.579C2350.33 641.075 2351.55 642.288 2353.04 642.288C2354.54 642.288 2355.75 641.075 2355.75 639.579V633.038H2357.83C2361.75 633.038 2364.92 636.204 2364.92 640.121V649.955H2309.08V640.121C2309.08 636.204 2312.25 633.038 2316.17 633.038H2318.21ZM2309.08 655.371H2364.92V682.329C2364.92 686.246 2361.75 689.413 2357.83 689.413H2316.17C2312.25 689.413 2309.08 686.246 2309.08 682.329V655.371Z" fill="black"/>
</g>
</g>
</g>
<g id="Semibold-S">
<g id="Outline / Calendar Outline_22">
<g id="Shape_22">
<path fill-rule="evenodd" clip-rule="evenodd" d="M2028 663.704C2024.88 663.704 2022.38 666.209 2022.38 669.329V674.829C2022.38 677.95 2024.88 680.454 2028 680.454H2037.67C2040.79 680.454 2043.29 677.95 2043.29 674.829V669.329C2043.29 666.209 2040.79 663.704 2037.67 663.704H2028ZM2027.79 669.329C2027.79 669.251 2027.82 669.206 2027.85 669.177C2027.88 669.147 2027.92 669.121 2028 669.121H2037.67C2037.75 669.121 2037.79 669.147 2037.82 669.177C2037.85 669.206 2037.88 669.251 2037.88 669.329V674.829C2037.88 674.908 2037.85 674.953 2037.82 674.982C2037.79 675.012 2037.75 675.038 2037.67 675.038H2028C2027.92 675.038 2027.88 675.012 2027.85 674.982C2027.82 674.953 2027.79 674.908 2027.79 674.829V669.329Z" fill="black"/>
<path fill-rule="evenodd" clip-rule="evenodd" d="M2027.63 621.829C2027.63 620.334 2026.41 619.121 2024.92 619.121C2023.42 619.121 2022.21 620.334 2022.21 621.829V627.621H2020.17C2013.25 627.621 2007.67 633.204 2007.67 640.121V682.329C2007.67 689.246 2013.25 694.829 2020.17 694.829H2061.83C2068.75 694.829 2074.33 689.246 2074.33 682.329V640.121C2074.33 633.204 2068.71 627.621 2061.83 627.621H2059.75V621.829C2059.75 620.334 2058.54 619.121 2057.04 619.121C2055.55 619.121 2054.33 620.334 2054.33 621.829V627.621H2043.71V621.829C2043.71 620.334 2042.5 619.121 2041 619.121C2039.51 619.121 2038.29 620.334 2038.29 621.829V627.621H2027.63V621.829ZM2022.21 633.038V639.579C2022.21 641.075 2023.42 642.288 2024.92 642.288C2026.41 642.288 2027.63 641.075 2027.63 639.579V633.038H2038.29V639.579C2038.29 641.075 2039.51 642.288 2041 642.288C2042.5 642.288 2043.71 641.075 2043.71 639.579V633.038H2054.33V639.579C2054.33 641.075 2055.55 642.288 2057.04 642.288C2058.54 642.288 2059.75 641.075 2059.75 639.579V633.038H2061.83C2065.75 633.038 2068.92 636.204 2068.92 640.121V649.955H2013.08V640.121C2013.08 636.204 2016.25 633.038 2020.17 633.038H2022.21ZM2013.08 655.371H2068.92V682.329C2068.92 686.246 2065.75 689.413 2061.83 689.413H2020.17C2016.25 689.413 2013.08 686.246 2013.08 682.329V655.371Z" fill="black"/>
</g>
</g>
</g>
<g id="Medium-S">
<g id="Outline / Calendar Outline_23">
<g id="Shape_23">
<path fill-rule="evenodd" clip-rule="evenodd" d="M1732 663.704C1728.88 663.704 1726.38 666.209 1726.38 669.329V674.829C1726.38 677.95 1728.88 680.454 1732 680.454H1741.67C1744.79 680.454 1747.29 677.95 1747.29 674.829V669.329C1747.29 666.209 1744.79 663.704 1741.67 663.704H1732ZM1731.79 669.329C1731.79 669.251 1731.82 669.206 1731.85 669.177C1731.88 669.147 1731.92 669.121 1732 669.121H1741.67C1741.75 669.121 1741.79 669.147 1741.82 669.177C1741.85 669.206 1741.88 669.251 1741.88 669.329V674.829C1741.88 674.908 1741.85 674.953 1741.82 674.982C1741.79 675.012 1741.75 675.038 1741.67 675.038H1732C1731.92 675.038 1731.88 675.012 1731.85 674.982C1731.82 674.953 1731.79 674.908 1731.79 674.829V669.329Z" fill="black"/>
<path fill-rule="evenodd" clip-rule="evenodd" d="M1731.63 621.829C1731.63 620.334 1730.41 619.121 1728.92 619.121C1727.42 619.121 1726.21 620.334 1726.21 621.829V627.621H1724.17C1717.25 627.621 1711.67 633.204 1711.67 640.121V682.329C1711.67 689.246 1717.25 694.829 1724.17 694.829H1765.83C1772.75 694.829 1778.33 689.246 1778.33 682.329V640.121C1778.33 633.204 1772.71 627.621 1765.83 627.621H1763.75V621.829C1763.75 620.334 1762.54 619.121 1761.04 619.121C1759.55 619.121 1758.33 620.334 1758.33 621.829V627.621H1747.71V621.829C1747.71 620.334 1746.5 619.121 1745 619.121C1743.51 619.121 1742.29 620.334 1742.29 621.829V627.621H1731.63V621.829ZM1726.21 633.038V639.579C1726.21 641.075 1727.42 642.288 1728.92 642.288C1730.41 642.288 1731.63 641.075 1731.63 639.579V633.038H1742.29V639.579C1742.29 641.075 1743.51 642.288 1745 642.288C1746.5 642.288 1747.71 641.075 1747.71 639.579V633.038H1758.33V639.579C1758.33 641.075 1759.55 642.288 1761.04 642.288C1762.54 642.288 1763.75 641.075 1763.75 639.579V633.038H1765.83C1769.75 633.038 1772.92 636.204 1772.92 640.121V649.955H1717.08V640.121C1717.08 636.204 1720.25 633.038 1724.17 633.038H1726.21ZM1717.08 655.371H1772.92V682.329C1772.92 686.246 1769.75 689.413 1765.83 689.413H1724.17C1720.25 689.413 1717.08 686.246 1717.08 682.329V655.371Z" fill="black"/>
</g>
</g>
</g>
<g id="Regular-S">
<g id="Outline / Calendar Outline_24">
<g id="Shape_24">
<path fill-rule="evenodd" clip-rule="evenodd" d="M1436 663.704C1432.88 663.704 1430.38 666.209 1430.38 669.329V674.829C1430.38 677.95 1432.88 680.454 1436 680.454H1445.67C1448.79 680.454 1451.29 677.95 1451.29 674.829V669.329C1451.29 666.209 1448.79 663.704 1445.67 663.704H1436ZM1435.79 669.329C1435.79 669.251 1435.82 669.206 1435.85 669.177C1435.88 669.147 1435.92 669.121 1436 669.121H1445.67C1445.75 669.121 1445.79 669.147 1445.82 669.177C1445.85 669.206 1445.88 669.251 1445.88 669.329V674.829C1445.88 674.908 1445.85 674.953 1445.82 674.982C1445.79 675.012 1445.75 675.038 1445.67 675.038H1436C1435.92 675.038 1435.88 675.012 1435.85 674.982C1435.82 674.953 1435.79 674.908 1435.79 674.829V669.329Z" fill="black"/>
<path fill-rule="evenodd" clip-rule="evenodd" d="M1435.63 621.829C1435.63 620.334 1434.41 619.121 1432.92 619.121C1431.42 619.121 1430.21 620.334 1430.21 621.829V627.621H1428.17C1421.25 627.621 1415.67 633.204 1415.67 640.121V682.329C1415.67 689.246 1421.25 694.829 1428.17 694.829H1469.83C1476.75 694.829 1482.33 689.246 1482.33 682.329V640.121C1482.33 633.204 1476.71 627.621 1469.83 627.621H1467.75V621.829C1467.75 620.334 1466.54 619.121 1465.04 619.121C1463.55 619.121 1462.33 620.334 1462.33 621.829V627.621H1451.71V621.829C1451.71 620.334 1450.5 619.121 1449 619.121C1447.51 619.121 1446.29 620.334 1446.29 621.829V627.621H1435.63V621.829ZM1430.21 633.038V639.579C1430.21 641.075 1431.42 642.288 1432.92 642.288C1434.41 642.288 1435.63 641.075 1435.63 639.579V633.038H1446.29V639.579C1446.29 641.075 1447.51 642.288 1449 642.288C1450.5 642.288 1451.71 641.075 1451.71 639.579V633.038H1462.33V639.579C1462.33 641.075 1463.55 642.288 1465.04 642.288C1466.54 642.288 1467.75 641.075 1467.75 639.579V633.038H1469.83C1473.75 633.038 1476.92 636.204 1476.92 640.121V649.955H1421.08V640.121C1421.08 636.204 1424.25 633.038 1428.17 633.038H1430.21ZM1421.08 655.371H1476.92V682.329C1476.92 686.246 1473.75 689.413 1469.83 689.413H1428.17C1424.25 689.413 1421.08 686.246 1421.08 682.329V655.371Z" fill="black"/>
</g>
</g>
</g>
<g id="Light-S">
<g id="Outline / Calendar Outline_25">
<g id="Shape_25">
<path fill-rule="evenodd" clip-rule="evenodd" d="M1140 663.704C1136.88 663.704 1134.38 666.209 1134.38 669.329V674.829C1134.38 677.95 1136.88 680.454 1140 680.454H1149.67C1152.79 680.454 1155.29 677.95 1155.29 674.829V669.329C1155.29 666.209 1152.79 663.704 1149.67 663.704H1140ZM1139.79 669.329C1139.79 669.251 1139.82 669.206 1139.85 669.177C1139.88 669.147 1139.92 669.121 1140 669.121H1149.67C1149.75 669.121 1149.79 669.147 1149.82 669.177C1149.85 669.206 1149.88 669.251 1149.88 669.329V674.829C1149.88 674.908 1149.85 674.953 1149.82 674.982C1149.79 675.012 1149.75 675.038 1149.67 675.038H1140C1139.92 675.038 1139.88 675.012 1139.85 674.982C1139.82 674.953 1139.79 674.908 1139.79 674.829V669.329Z" fill="black"/>
<path fill-rule="evenodd" clip-rule="evenodd" d="M1139.63 621.829C1139.63 620.334 1138.41 619.121 1136.92 619.121C1135.42 619.121 1134.21 620.334 1134.21 621.829V627.621H1132.17C1125.25 627.621 1119.67 633.204 1119.67 640.121V682.329C1119.67 689.246 1125.25 694.829 1132.17 694.829H1173.83C1180.75 694.829 1186.33 689.246 1186.33 682.329V640.121C1186.33 633.204 1180.71 627.621 1173.83 627.621H1171.75V621.829C1171.75 620.334 1170.54 619.121 1169.04 619.121C1167.55 619.121 1166.33 620.334 1166.33 621.829V627.621H1155.71V621.829C1155.71 620.334 1154.5 619.121 1153 619.121C1151.51 619.121 1150.29 620.334 1150.29 621.829V627.621H1139.63V621.829ZM1134.21 633.038V639.579C1134.21 641.075 1135.42 642.288 1136.92 642.288C1138.41 642.288 1139.63 641.075 1139.63 639.579V633.038H1150.29V639.579C1150.29 641.075 1151.51 642.288 1153 642.288C1154.5 642.288 1155.71 641.075 1155.71 639.579V633.038H1166.33V639.579C1166.33 641.075 1167.55 642.288 1169.04 642.288C1170.54 642.288 1171.75 641.075 1171.75 639.579V633.038H1173.83C1177.75 633.038 1180.92 636.204 1180.92 640.121V649.955H1125.08V640.121C1125.08 636.204 1128.25 633.038 1132.17 633.038H1134.21ZM1125.08 655.371H1180.92V682.329C1180.92 686.246 1177.75 689.413 1173.83 689.413H1132.17C1128.25 689.413 1125.08 686.246 1125.08 682.329V655.371Z" fill="black"/>
</g>
</g>
</g>
<g id="Thin-S">
<g id="Outline / Calendar Outline_26">
<g id="Shape_26">
<path fill-rule="evenodd" clip-rule="evenodd" d="M844.001 663.704C840.881 663.704 838.376 666.209 838.376 669.329V674.829C838.376 677.95 840.881 680.454 844.001 680.454H853.668C856.789 680.454 859.293 677.95 859.293 674.829V669.329C859.293 666.209 856.789 663.704 853.668 663.704H844.001ZM843.793 669.329C843.793 669.251 843.819 669.206 843.849 669.177C843.878 669.147 843.923 669.121 844.001 669.121H853.668C853.746 669.121 853.791 669.147 853.821 669.177C853.85 669.206 853.876 669.251 853.876 669.329V674.829C853.876 674.908 853.85 674.953 853.821 674.982C853.791 675.012 853.746 675.038 853.668 675.038H844.001C843.923 675.038 843.878 675.012 843.849 674.982C843.819 674.953 843.793 674.908 843.793 674.829V669.329Z" fill="black"/>
<path fill-rule="evenodd" clip-rule="evenodd" d="M843.626 621.829C843.626 620.334 842.414 619.121 840.918 619.121C839.422 619.121 838.21 620.334 838.21 621.829V627.621H836.168C829.251 627.621 823.668 633.204 823.668 640.121V682.329C823.668 689.246 829.251 694.829 836.168 694.829H877.835C884.751 694.829 890.335 689.246 890.335 682.329V640.121C890.335 633.204 884.71 627.621 877.835 627.621H875.751V621.829C875.751 620.334 874.539 619.121 873.043 619.121C871.547 619.121 870.335 620.334 870.335 621.829V627.621H859.71V621.829C859.71 620.334 858.497 619.121 857.001 619.121C855.505 619.121 854.293 620.334 854.293 621.829V627.621H843.626V621.829ZM838.21 633.038V639.579C838.21 641.075 839.422 642.288 840.918 642.288C842.414 642.288 843.626 641.075 843.626 639.579V633.038H854.293V639.579C854.293 641.075 855.505 642.288 857.001 642.288C858.497 642.288 859.71 641.075 859.71 639.579V633.038H870.335V639.579C870.335 641.075 871.547 642.288 873.043 642.288C874.539 642.288 875.751 641.075 875.751 639.579V633.038H877.835C881.751 633.038 884.918 636.204 884.918 640.121V649.955H829.085V640.121C829.085 636.204 832.251 633.038 836.168 633.038H838.21ZM829.085 655.371H884.918V682.329C884.918 686.246 881.751 689.413 877.835 689.413H836.168C832.251 689.413 829.085 686.246 829.085 682.329V655.371Z" fill="black"/>
</g>
</g>
</g>
<g id="Ultralight-S">
<g id="Outline / Calendar Outline_27">
<g id="Shape_27">
<path fill-rule="evenodd" clip-rule="evenodd" d="M548.001 663.704C544.881 663.704 542.376 666.209 542.376 669.329V674.829C542.376 677.95 544.881 680.454 548.001 680.454H557.668C560.789 680.454 563.293 677.95 563.293 674.829V669.329C563.293 666.209 560.789 663.704 557.668 663.704H548.001ZM547.793 669.329C547.793 669.251 547.819 669.206 547.849 669.177C547.878 669.147 547.923 669.121 548.001 669.121H557.668C557.746 669.121 557.791 669.147 557.821 669.177C557.85 669.206 557.876 669.251 557.876 669.329V674.829C557.876 674.908 557.85 674.953 557.821 674.982C557.791 675.012 557.746 675.038 557.668 675.038H548.001C547.923 675.038 547.878 675.012 547.849 674.982C547.819 674.953 547.793 674.908 547.793 674.829V669.329Z" fill="black"/>
<path fill-rule="evenodd" clip-rule="evenodd" d="M547.626 621.829C547.626 620.334 546.414 619.121 544.918 619.121C543.422 619.121 542.21 620.334 542.21 621.829V627.621H540.168C533.251 627.621 527.668 633.204 527.668 640.121V682.329C527.668 689.246 533.251 694.829 540.168 694.829H581.835C588.751 694.829 594.335 689.246 594.335 682.329V640.121C594.335 633.204 588.71 627.621 581.835 627.621H579.751V621.829C579.751 620.334 578.539 619.121 577.043 619.121C575.547 619.121 574.335 620.334 574.335 621.829V627.621H563.71V621.829C563.71 620.334 562.497 619.121 561.001 619.121C559.505 619.121 558.293 620.334 558.293 621.829V627.621H547.626V621.829ZM542.21 633.038V639.579C542.21 641.075 543.422 642.288 544.918 642.288C546.414 642.288 547.626 641.075 547.626 639.579V633.038H558.293V639.579C558.293 641.075 559.505 642.288 561.001 642.288C562.497 642.288 563.71 641.075 563.71 639.579V633.038H574.335V639.579C574.335 641.075 575.547 642.288 577.043 642.288C578.539 642.288 579.751 641.075 579.751 639.579V633.038H581.835C585.751 633.038 588.918 636.204 588.918 640.121V649.955H533.085V640.121C533.085 636.204 536.251 633.038 540.168 633.038H542.21ZM533.085 655.371H588.918V682.329C588.918 686.246 585.751 689.413 581.835 689.413H540.168C536.251 689.413 533.085 686.246 533.085 682.329V655.371Z" fill="black"/>
</g>
</g>
</g>
</g>
</g>
<defs>
<clipPath id="clip0_805_27002">
<rect width="3300" height="2200" fill="white"/>
</clipPath>
</defs>
</svg>
