<svg width="3300" height="2200" viewBox="0 0 3300 2200" fill="none" xmlns="http://www.w3.org/2000/svg">
<rect width="3300" height="2200" fill="#E5E5E5"/>
<g id="System / Solid / Arrow Down" clip-path="url(#clip0_805_27002)">
<g id="Notes">
<path id="artboard" d="M3300 0H0V2200H3300V0Z" fill="white"/>
<path id="Vector" d="M263 292H3036" stroke="black" stroke-width="0.5"/>
<text id="Weight/Scale Variations" fill="black" xml:space="preserve" style="white-space: pre" font-family="Roboto" font-size="12" letter-spacing="0em"><tspan x="263" y="321.102">Weight/Scale Variations</tspan></text>
<text id="Ultralight" fill="black" xml:space="preserve" style="white-space: pre" font-family="Roboto" font-size="12" letter-spacing="0em"><tspan x="535.211" y="321.102">Ultralight</tspan></text>
<text id="Thin" fill="black" xml:space="preserve" style="white-space: pre" font-family="Roboto" font-size="12" letter-spacing="0em"><tspan x="844.422" y="321.102">Thin</tspan></text>
<text id="Light" fill="black" xml:space="preserve" style="white-space: pre" font-family="Roboto" font-size="12" letter-spacing="0em"><tspan x="1139.63" y="321.102">Light</tspan></text>
<text id="Regular" fill="black" xml:space="preserve" style="white-space: pre" font-family="Roboto" font-size="12" letter-spacing="0em"><tspan x="1429.34" y="321.102">Regular</tspan></text>
<text id="Medium" fill="black" xml:space="preserve" style="white-space: pre" font-family="Roboto" font-size="12" letter-spacing="0em"><tspan x="1724.56" y="321.102">Medium</tspan></text>
<text id="Semibold" fill="black" xml:space="preserve" style="white-space: pre" font-family="Roboto" font-size="12" letter-spacing="0em"><tspan x="2017.77" y="321.102">Semibold</tspan></text>
<text id="Bold" fill="black" xml:space="preserve" style="white-space: pre" font-family="Roboto" font-size="12" letter-spacing="0em"><tspan x="2327.48" y="321.102">Bold</tspan></text>
<text id="Heavy" fill="black" xml:space="preserve" style="white-space: pre" font-family="Roboto" font-size="12" letter-spacing="0em"><tspan x="2620.19" y="321.102">Heavy</tspan></text>
<text id="Black" fill="black" xml:space="preserve" style="white-space: pre" font-family="Roboto" font-size="12" letter-spacing="0em"><tspan x="2918.4" y="321.102">Black</tspan></text>
<path id="Vector_2" d="M263 1903H3036" stroke="black" stroke-width="0.5"/>
<g id="Group">
<path id="Vector_3" d="M272.248 1933.83C276.555 1933.83 280.139 1930.26 280.139 1925.95C280.139 1921.64 276.545 1918.07 272.238 1918.07C267.941 1918.07 264.367 1921.64 264.367 1925.95C264.367 1930.26 267.951 1933.83 272.248 1933.83ZM272.248 1932.35C268.703 1932.35 265.871 1929.51 265.871 1925.95C265.871 1922.4 268.693 1919.55 272.238 1919.55C275.793 1919.55 278.635 1922.4 278.644 1925.95C278.654 1929.51 275.803 1932.35 272.248 1932.35ZM272.229 1929.57C272.697 1929.57 272.971 1929.26 272.971 1928.74V1926.68H275.197C275.695 1926.68 276.037 1926.43 276.037 1925.96C276.037 1925.48 275.715 1925.22 275.197 1925.22H272.971V1922.99C272.971 1922.47 272.697 1922.15 272.229 1922.15C271.76 1922.15 271.506 1922.49 271.506 1922.99V1925.22H269.299C268.781 1925.22 268.449 1925.48 268.449 1925.96C268.449 1926.43 268.801 1926.68 269.299 1926.68H271.506V1928.74C271.506 1929.24 271.76 1929.57 272.229 1929.57Z" fill="black"/>
</g>
<g id="Group_2">
<path id="Vector_4" d="M293.215 1935.91C298.664 1935.91 303.176 1931.4 303.176 1925.95C303.176 1920.51 298.654 1915.99 293.205 1915.99C287.766 1915.99 283.254 1920.51 283.254 1925.95C283.254 1931.4 287.775 1935.91 293.215 1935.91ZM293.215 1934.25C288.605 1934.25 284.924 1930.56 284.924 1925.95C284.924 1921.35 288.596 1917.65 293.205 1917.65C297.814 1917.65 301.506 1921.35 301.516 1925.95C301.525 1930.56 297.824 1934.25 293.215 1934.25ZM293.195 1930.59C293.713 1930.59 294.025 1930.23 294.025 1929.66V1926.77H297.082C297.629 1926.77 298.01 1926.49 298.01 1925.97C298.01 1925.44 297.648 1925.14 297.082 1925.14H294.025V1922.07C294.025 1921.5 293.713 1921.14 293.195 1921.14C292.678 1921.14 292.385 1921.52 292.385 1922.07V1925.14H289.338C288.771 1925.14 288.4 1925.44 288.4 1925.97C288.4 1926.49 288.791 1926.77 289.338 1926.77H292.385V1929.66C292.385 1930.21 292.678 1930.59 293.195 1930.59Z" fill="black"/>
</g>
<g id="Group_3">
<path id="Vector_5" d="M319.895 1938.67C326.857 1938.67 332.619 1932.92 332.619 1925.96C332.619 1918.99 326.848 1913.24 319.885 1913.24C312.932 1913.24 307.18 1918.99 307.18 1925.96C307.18 1932.92 312.941 1938.67 319.895 1938.67ZM319.895 1936.86C313.859 1936.86 309.006 1931.99 309.006 1925.96C309.006 1919.92 313.85 1915.06 319.885 1915.06C325.93 1915.06 330.783 1919.92 330.793 1925.96C330.803 1931.99 325.939 1936.86 319.895 1936.86ZM319.875 1931.93C320.441 1931.93 320.793 1931.54 320.793 1930.94V1926.87H325.031C325.617 1926.87 326.037 1926.53 326.037 1925.98C326.037 1925.4 325.647 1925.06 325.031 1925.06H320.793V1920.81C320.793 1920.2 320.441 1919.8 319.875 1919.8C319.309 1919.8 318.986 1920.21 318.986 1920.81V1925.06H314.758C314.143 1925.06 313.732 1925.4 313.732 1925.98C313.732 1926.53 314.162 1926.87 314.758 1926.87H318.986V1930.94C318.986 1931.52 319.309 1931.93 319.875 1931.93Z" fill="black"/>
</g>
<text id="Design Variations" fill="black" xml:space="preserve" style="white-space: pre" font-family="Roboto" font-size="12" letter-spacing="0em"><tspan x="263" y="1952.1">Design Variations</tspan></text>
<text id="Symbols are supported in up to nine weights and three scales." fill="black" xml:space="preserve" style="white-space: pre" font-family="Roboto" font-size="12" letter-spacing="0em"><tspan x="263" y="1970.1">Symbols are supported in up to nine weights and three scales.</tspan></text>
<text id="For optimal layout with text and other symbols, vertically align" fill="black" xml:space="preserve" style="white-space: pre" font-family="Roboto" font-size="12" letter-spacing="0em"><tspan x="263" y="1988.1">For optimal layout with text and other symbols, vertically align</tspan></text>
<text id="symbols with the adjacent text." fill="black" xml:space="preserve" style="white-space: pre" font-family="Roboto" font-size="12" letter-spacing="0em"><tspan x="263" y="2006.1">symbols with the adjacent text.</tspan></text>
<path id="Vector_6" opacity="0.4" d="M779 1919H776V1933H779V1919Z" fill="#00AEEF"/>
<g id="Group_4">
<path id="Vector_7" d="M789.525 1933H791.371L786.176 1918.91H784.437L779.242 1933H781.088L782.504 1928.96H788.109L789.525 1933ZM785.277 1921.04H785.336L787.592 1927.47H783.021L785.277 1921.04Z" fill="black"/>
</g>
<path id="Vector_8" opacity="0.4" d="M794.617 1919H791.617V1933H794.617V1919Z" fill="#00AEEF"/>
<text id="Margins" fill="black" xml:space="preserve" style="white-space: pre" font-family="Roboto" font-size="12" letter-spacing="0em"><tspan x="776" y="1952.1">Margins</tspan></text>
<text id="Leading and trailing margins on the left and right side of each symbol" fill="black" xml:space="preserve" style="white-space: pre" font-family="Roboto" font-size="12" letter-spacing="0em"><tspan x="776" y="1970.1">Leading and trailing margins on the left and right side of each symbol</tspan></text>
<text id="can be adjusted by modifying the width of the blue rectangles." fill="black" xml:space="preserve" style="white-space: pre" font-family="Roboto" font-size="12" letter-spacing="0em"><tspan x="776" y="1988.1">can be adjusted by modifying the width of the blue rectangles.</tspan></text>
<text id="Modifications are automatically applied proportionally to all" fill="black" xml:space="preserve" style="white-space: pre" font-family="Roboto" font-size="12" letter-spacing="0em"><tspan x="776" y="2006.1">Modifications are automatically applied proportionally to all</tspan></text>
<text id="scales and weights." fill="black" xml:space="preserve" style="white-space: pre" font-family="Roboto" font-size="12" letter-spacing="0em"><tspan x="776" y="2024.1">scales and weights.</tspan></text>
<g id="Group_5">
<path id="Vector_9" d="M1291.83 1936.11L1293.37 1937.66C1294.22 1938.49 1295.19 1938.42 1296.06 1937.46L1306.27 1926.34C1306.7 1926.63 1307.1 1926.62 1307.56 1926.52L1308.61 1926.31L1309.3 1927L1309.25 1927.52C1309.19 1928.05 1309.35 1928.47 1309.85 1928.97L1310.66 1929.78C1311.17 1930.28 1311.82 1930.31 1312.3 1929.83L1315.55 1926.58C1316.03 1926.1 1316.01 1925.45 1315.5 1924.94L1314.68 1924.12C1314.19 1923.62 1313.77 1923.45 1313.24 1923.53L1312.71 1923.58L1312.06 1922.92L1312.34 1921.78C1312.49 1921.21 1312.34 1920.74 1311.71 1920.14L1309.3 1917.75C1305.76 1914.22 1301.23 1914.33 1298.11 1917.46C1297.69 1917.89 1297.64 1918.48 1297.92 1918.91C1298.15 1919.28 1298.63 1919.5 1299.27 1919.34C1300.79 1918.96 1302.3 1919.07 1303.78 1920.08L1303.16 1921.66C1302.93 1922.25 1302.94 1922.73 1303.18 1923.16L1292.02 1933.44C1291.08 1934.31 1290.97 1935.25 1291.83 1936.11ZM1299.67 1917.85C1302.34 1915.86 1305.65 1916.17 1308.05 1918.58L1310.68 1921.19C1310.91 1921.43 1310.94 1921.61 1310.88 1921.91L1310.5 1923.47L1312.08 1925.04L1313.04 1924.95C1313.33 1924.92 1313.41 1924.94 1313.64 1925.17L1314.26 1925.79L1311.51 1928.54L1310.88 1927.92C1310.66 1927.7 1310.64 1927.6 1310.67 1927.32L1310.76 1926.36L1309.19 1924.8L1307.57 1925.11C1307.29 1925.17 1307.14 1925.17 1306.91 1924.92L1304.73 1922.75C1304.51 1922.51 1304.48 1922.37 1304.61 1922.05L1305.55 1919.78C1303.95 1918.24 1301.84 1917.39 1299.8 1918.05C1299.71 1918.08 1299.64 1918.06 1299.61 1918.02C1299.59 1917.97 1299.59 1917.92 1299.67 1917.85ZM1293.1 1935.41C1292.61 1934.91 1292.79 1934.61 1293.12 1934.31L1304.08 1924.19L1305.31 1925.42L1295.15 1936.35C1294.85 1936.68 1294.47 1936.78 1294.07 1936.38L1293.1 1935.41Z" fill="black"/>
</g>
<text id="Exporting" fill="black" xml:space="preserve" style="white-space: pre" font-family="Roboto" font-size="12" letter-spacing="0em"><tspan x="1289" y="1952.1">Exporting</tspan></text>
<text id="Symbols should be outlined when exporting to ensure the" fill="black" xml:space="preserve" style="white-space: pre" font-family="Roboto" font-size="12" letter-spacing="0em"><tspan x="1289" y="1970.1">Symbols should be outlined when exporting to ensure the</tspan></text>
<text id="design is preserved when submitting to Xcode." fill="black" xml:space="preserve" style="white-space: pre" font-family="Roboto" font-size="12" letter-spacing="0em"><tspan x="1289" y="1988.1">design is preserved when submitting to Xcode.</tspan></text>
<text id="template-version" fill="black" xml:space="preserve" style="white-space: pre" font-family="Roboto" font-size="12" letter-spacing="0em"><tspan x="2958" y="1932.1">Template v.1.0</tspan></text>
<text id="Generated from pencil.circle" fill="black" xml:space="preserve" style="white-space: pre" font-family="Roboto" font-size="12" letter-spacing="0em"><tspan x="2885" y="1950.1">Generated from pencil.circle</tspan></text>
<text id="Typeset at 100 points" fill="black" xml:space="preserve" style="white-space: pre" font-family="Roboto" font-size="12" letter-spacing="0em"><tspan x="2921" y="1968.1">Typeset at 100 points</tspan></text>
<text id="Small" fill="black" xml:space="preserve" style="white-space: pre" font-family="Roboto" font-size="12" letter-spacing="0em"><tspan x="263" y="725.102">Small</tspan></text>
<text id="Medium_2" fill="black" xml:space="preserve" style="white-space: pre" font-family="Roboto" font-size="12" letter-spacing="0em"><tspan x="263" y="1155.1">Medium</tspan></text>
<text id="Large" fill="black" xml:space="preserve" style="white-space: pre" font-family="Roboto" font-size="12" letter-spacing="0em"><tspan x="263" y="1585.1">Large</tspan></text>
</g>
<g id="Guides">
<g id="H-reference">
<path id="Vector_10" d="M393.932 695.998H396.666L369.566 625.539H367.076L339.977 695.998H342.662L351.94 671.535H384.703L393.932 695.998ZM368.199 628.908H368.443L383.824 669.289H352.818L368.199 628.908Z" fill="#27AAE1"/>
</g>
<path id="Baseline-S" d="M263 696H3036" stroke="#27AAE1" stroke-width="0.577"/>
<path id="Capline-S" d="M263 626H3036" stroke="#27AAE1" stroke-width="0.577"/>
<g id="H-reference_2">
<path id="Vector_11" d="M393.932 1126H396.666L369.566 1055.54H367.076L339.977 1126H342.662L351.94 1101.54H384.703L393.932 1126ZM368.199 1058.91H368.443L383.824 1099.29H352.818L368.199 1058.91Z" fill="#27AAE1"/>
</g>
<path id="Baseline-M" d="M263 1126H3036" stroke="#27AAE1" stroke-width="0.577"/>
<path id="Capline-M" d="M263 1056H3036" stroke="#27AAE1" stroke-width="0.577"/>
<g id="H-reference_3">
<path id="Vector_12" d="M393.932 1556H396.666L369.566 1485.54H367.076L339.977 1556H342.662L351.94 1531.54H384.703L393.932 1556ZM368.199 1488.91H368.443L383.824 1529.29H352.818L368.199 1488.91Z" fill="#27AAE1"/>
</g>
<g id="Group 1">
<path id="Baseline-L" d="M263 1556H3036" stroke="#27AAE1" stroke-width="0.577"/>
<path id="Capline-L" d="M263 1486H3036" stroke="#27AAE1" stroke-width="0.577"/>
</g>
<path id="left-margin" opacity="0.4" d="M1396.04 1030.79H1387.3V1150.12H1396.04V1030.79Z" fill="#00AEEF"/>
<path id="right-margin" opacity="0.4" d="M1510.39 1030.79H1501.65V1150.12H1510.39V1030.79Z" fill="#00AEEF"/>
</g>
<g id="Symbols">
<g id="Black-L">
<g id="Solid / Arrow Down Solid">
<path id="Shape" fill-rule="evenodd" clip-rule="evenodd" d="M2929 1453.5C2966.28 1453.5 2996.5 1483.72 2996.5 1521C2996.5 1558.28 2966.28 1588.5 2929 1588.5C2891.72 1588.5 2861.5 1558.28 2861.5 1521C2861.5 1483.72 2891.72 1453.5 2929 1453.5ZM2894.81 1524.75C2894.81 1523.4 2895.34 1522.13 2896.39 1521.15C2898.41 1519.35 2901.49 1519.5 2903.29 1521.45L2924.54 1543.11V1491C2924.54 1488.31 2926.72 1486.13 2929.42 1486.13C2932.11 1486.13 2934.29 1488.31 2934.29 1491V1543.05L2955.41 1521.3C2957.21 1519.28 2960.29 1519.2 2962.31 1521C2964.26 1522.8 2964.41 1525.88 2962.61 1527.9L2933.32 1558.35C2931.22 1560.67 2927.62 1560.67 2925.52 1558.35L2896.09 1528.05C2895.19 1527.08 2894.81 1525.95 2894.81 1524.75Z" fill="black"/>
</g>
</g>
<g id="Heavy-L">
<g id="Solid / Arrow Down Solid_2">
<path id="Shape_2" fill-rule="evenodd" clip-rule="evenodd" d="M2633 1453.5C2670.28 1453.5 2700.5 1483.72 2700.5 1521C2700.5 1558.28 2670.28 1588.5 2633 1588.5C2595.72 1588.5 2565.5 1558.28 2565.5 1521C2565.5 1483.72 2595.72 1453.5 2633 1453.5ZM2598.81 1524.75C2598.81 1523.4 2599.34 1522.13 2600.39 1521.15C2602.41 1519.35 2605.49 1519.5 2607.29 1521.45L2628.54 1543.11V1491C2628.54 1488.31 2630.72 1486.13 2633.42 1486.13C2636.11 1486.13 2638.29 1488.31 2638.29 1491V1543.05L2659.41 1521.3C2661.21 1519.28 2664.29 1519.2 2666.31 1521C2668.26 1522.8 2668.41 1525.88 2666.61 1527.9L2637.32 1558.35C2635.22 1560.67 2631.62 1560.67 2629.52 1558.35L2600.09 1528.05C2599.19 1527.08 2598.81 1525.95 2598.81 1524.75Z" fill="black"/>
</g>
</g>
<g id="Bold-L">
<g id="Solid / Arrow Down Solid_3">
<path id="Shape_3" fill-rule="evenodd" clip-rule="evenodd" d="M2337 1453.5C2374.28 1453.5 2404.5 1483.72 2404.5 1521C2404.5 1558.28 2374.28 1588.5 2337 1588.5C2299.72 1588.5 2269.5 1558.28 2269.5 1521C2269.5 1483.72 2299.72 1453.5 2337 1453.5ZM2302.81 1524.75C2302.81 1523.4 2303.34 1522.13 2304.39 1521.15C2306.41 1519.35 2309.49 1519.5 2311.29 1521.45L2332.54 1543.11V1491C2332.54 1488.31 2334.72 1486.13 2337.42 1486.13C2340.11 1486.13 2342.29 1488.31 2342.29 1491V1543.05L2363.41 1521.3C2365.21 1519.28 2368.29 1519.2 2370.31 1521C2372.26 1522.8 2372.41 1525.88 2370.61 1527.9L2341.32 1558.35C2339.22 1560.67 2335.62 1560.67 2333.52 1558.35L2304.09 1528.05C2303.19 1527.08 2302.81 1525.95 2302.81 1524.75Z" fill="black"/>
</g>
</g>
<g id="Semibold-L">
<g id="Solid / Arrow Down Solid_4">
<path id="Shape_4" fill-rule="evenodd" clip-rule="evenodd" d="M2041 1453.5C2078.28 1453.5 2108.5 1483.72 2108.5 1521C2108.5 1558.28 2078.28 1588.5 2041 1588.5C2003.72 1588.5 1973.5 1558.28 1973.5 1521C1973.5 1483.72 2003.72 1453.5 2041 1453.5ZM2006.81 1524.75C2006.81 1523.4 2007.34 1522.13 2008.39 1521.15C2010.41 1519.35 2013.49 1519.5 2015.29 1521.45L2036.54 1543.11V1491C2036.54 1488.31 2038.72 1486.13 2041.42 1486.13C2044.11 1486.13 2046.29 1488.31 2046.29 1491V1543.05L2067.41 1521.3C2069.21 1519.28 2072.29 1519.2 2074.31 1521C2076.26 1522.8 2076.41 1525.88 2074.61 1527.9L2045.32 1558.35C2043.22 1560.67 2039.62 1560.67 2037.52 1558.35L2008.09 1528.05C2007.19 1527.08 2006.81 1525.95 2006.81 1524.75Z" fill="black"/>
</g>
</g>
<g id="Medium-L">
<g id="Solid / Arrow Down Solid_5">
<path id="Shape_5" fill-rule="evenodd" clip-rule="evenodd" d="M1745 1453.5C1782.28 1453.5 1812.5 1483.72 1812.5 1521C1812.5 1558.28 1782.28 1588.5 1745 1588.5C1707.72 1588.5 1677.5 1558.28 1677.5 1521C1677.5 1483.72 1707.72 1453.5 1745 1453.5ZM1710.81 1524.75C1710.81 1523.4 1711.34 1522.13 1712.39 1521.15C1714.41 1519.35 1717.49 1519.5 1719.29 1521.45L1740.54 1543.11V1491C1740.54 1488.31 1742.72 1486.13 1745.42 1486.13C1748.11 1486.13 1750.29 1488.31 1750.29 1491V1543.05L1771.41 1521.3C1773.21 1519.28 1776.29 1519.2 1778.31 1521C1780.26 1522.8 1780.41 1525.88 1778.61 1527.9L1749.32 1558.35C1747.22 1560.67 1743.62 1560.67 1741.52 1558.35L1712.09 1528.05C1711.19 1527.08 1710.81 1525.95 1710.81 1524.75Z" fill="black"/>
</g>
</g>
<g id="Regular-L">
<g id="Solid / Arrow Down Solid_6">
<path id="Shape_6" fill-rule="evenodd" clip-rule="evenodd" d="M1449 1453.5C1486.28 1453.5 1516.5 1483.72 1516.5 1521C1516.5 1558.28 1486.28 1588.5 1449 1588.5C1411.72 1588.5 1381.5 1558.28 1381.5 1521C1381.5 1483.72 1411.72 1453.5 1449 1453.5ZM1414.81 1524.75C1414.81 1523.4 1415.34 1522.13 1416.39 1521.15C1418.41 1519.35 1421.49 1519.5 1423.29 1521.45L1444.54 1543.11V1491C1444.54 1488.31 1446.72 1486.13 1449.42 1486.13C1452.11 1486.13 1454.29 1488.31 1454.29 1491V1543.05L1475.41 1521.3C1477.21 1519.28 1480.29 1519.2 1482.31 1521C1484.26 1522.8 1484.41 1525.88 1482.61 1527.9L1453.32 1558.35C1451.22 1560.67 1447.62 1560.67 1445.52 1558.35L1416.09 1528.05C1415.19 1527.08 1414.81 1525.95 1414.81 1524.75Z" fill="black"/>
</g>
</g>
<g id="Light-L">
<g id="Solid / Arrow Down Solid_7">
<path id="Shape_7" fill-rule="evenodd" clip-rule="evenodd" d="M1153 1453.5C1190.28 1453.5 1220.5 1483.72 1220.5 1521C1220.5 1558.28 1190.28 1588.5 1153 1588.5C1115.72 1588.5 1085.5 1558.28 1085.5 1521C1085.5 1483.72 1115.72 1453.5 1153 1453.5ZM1118.81 1524.75C1118.81 1523.4 1119.34 1522.13 1120.39 1521.15C1122.41 1519.35 1125.49 1519.5 1127.29 1521.45L1148.54 1543.11V1491C1148.54 1488.31 1150.72 1486.13 1153.42 1486.13C1156.11 1486.13 1158.29 1488.31 1158.29 1491V1543.05L1179.41 1521.3C1181.21 1519.28 1184.29 1519.2 1186.31 1521C1188.26 1522.8 1188.41 1525.88 1186.61 1527.9L1157.32 1558.35C1155.22 1560.67 1151.62 1560.67 1149.52 1558.35L1120.09 1528.05C1119.19 1527.08 1118.81 1525.95 1118.81 1524.75Z" fill="black"/>
</g>
</g>
<g id="Thin-L">
<g id="Solid / Arrow Down Solid_8">
<path id="Shape_8" fill-rule="evenodd" clip-rule="evenodd" d="M857 1453.5C894.279 1453.5 924.5 1483.72 924.5 1521C924.5 1558.28 894.279 1588.5 857 1588.5C819.721 1588.5 789.5 1558.28 789.5 1521C789.5 1483.72 819.721 1453.5 857 1453.5ZM822.814 1524.75C822.814 1523.4 823.339 1522.13 824.389 1521.15C826.414 1519.35 829.489 1519.5 831.289 1521.45L852.541 1543.11V1491C852.541 1488.31 854.724 1486.13 857.416 1486.13C860.109 1486.13 862.291 1488.31 862.291 1491V1543.05L883.414 1521.3C885.214 1519.28 888.289 1519.2 890.314 1521C892.264 1522.8 892.414 1525.88 890.614 1527.9L861.316 1558.35C859.216 1560.67 855.616 1560.67 853.516 1558.35L824.089 1528.05C823.189 1527.08 822.814 1525.95 822.814 1524.75Z" fill="black"/>
</g>
</g>
<g id="Ultralight-L">
<g id="Solid / Arrow Down Solid_9">
<path id="Shape_9" fill-rule="evenodd" clip-rule="evenodd" d="M561 1453.5C598.279 1453.5 628.5 1483.72 628.5 1521C628.5 1558.28 598.279 1588.5 561 1588.5C523.721 1588.5 493.5 1558.28 493.5 1521C493.5 1483.72 523.721 1453.5 561 1453.5ZM526.814 1524.75C526.814 1523.4 527.339 1522.13 528.389 1521.15C530.414 1519.35 533.489 1519.5 535.289 1521.45L556.541 1543.11V1491C556.541 1488.31 558.724 1486.13 561.416 1486.13C564.109 1486.13 566.291 1488.31 566.291 1491V1543.05L587.414 1521.3C589.214 1519.28 592.289 1519.2 594.314 1521C596.264 1522.8 596.414 1525.88 594.614 1527.9L565.316 1558.35C563.216 1560.67 559.616 1560.67 557.516 1558.35L528.089 1528.05C527.189 1527.08 526.814 1525.95 526.814 1524.75Z" fill="black"/>
</g>
</g>
<g id="Black-M">
<g id="Solid / Arrow Down Solid_10">
<path id="Shape_10" fill-rule="evenodd" clip-rule="evenodd" d="M2929 1038.5C2957.99 1038.5 2981.5 1062.01 2981.5 1091C2981.5 1119.99 2957.99 1143.5 2929 1143.5C2900.01 1143.5 2876.5 1119.99 2876.5 1091C2876.5 1062.01 2900.01 1038.5 2929 1038.5ZM2902.41 1093.92C2902.41 1092.87 2902.82 1091.88 2903.64 1091.12C2905.21 1089.72 2907.6 1089.83 2909 1091.35L2925.53 1108.19V1067.67C2925.53 1065.57 2927.23 1063.88 2929.32 1063.88C2931.42 1063.88 2933.12 1065.57 2933.12 1067.67V1108.15L2949.54 1091.23C2950.94 1089.66 2953.34 1089.6 2954.91 1091C2956.43 1092.4 2956.54 1094.79 2955.14 1096.37L2932.36 1120.05C2930.72 1121.86 2927.92 1121.86 2926.29 1120.05L2903.4 1096.48C2902.7 1095.73 2902.41 1094.85 2902.41 1093.92Z" fill="black"/>
</g>
</g>
<g id="Heavy-M">
<g id="Solid / Arrow Down Solid_11">
<path id="Shape_11" fill-rule="evenodd" clip-rule="evenodd" d="M2633 1038.5C2661.99 1038.5 2685.5 1062.01 2685.5 1091C2685.5 1119.99 2661.99 1143.5 2633 1143.5C2604.01 1143.5 2580.5 1119.99 2580.5 1091C2580.5 1062.01 2604.01 1038.5 2633 1038.5ZM2606.41 1093.92C2606.41 1092.87 2606.82 1091.88 2607.64 1091.12C2609.21 1089.72 2611.6 1089.83 2613 1091.35L2629.53 1108.19V1067.67C2629.53 1065.57 2631.23 1063.88 2633.32 1063.88C2635.42 1063.88 2637.12 1065.57 2637.12 1067.67V1108.15L2653.54 1091.23C2654.94 1089.66 2657.34 1089.6 2658.91 1091C2660.43 1092.4 2660.54 1094.79 2659.14 1096.37L2636.36 1120.05C2634.72 1121.86 2631.92 1121.86 2630.29 1120.05L2607.4 1096.48C2606.7 1095.73 2606.41 1094.85 2606.41 1093.92Z" fill="black"/>
</g>
</g>
<g id="Bold-M">
<g id="Solid / Arrow Down Solid_12">
<path id="Shape_12" fill-rule="evenodd" clip-rule="evenodd" d="M2337 1038.5C2365.99 1038.5 2389.5 1062.01 2389.5 1091C2389.5 1119.99 2365.99 1143.5 2337 1143.5C2308.01 1143.5 2284.5 1119.99 2284.5 1091C2284.5 1062.01 2308.01 1038.5 2337 1038.5ZM2310.41 1093.92C2310.41 1092.87 2310.82 1091.88 2311.64 1091.12C2313.21 1089.72 2315.6 1089.83 2317 1091.35L2333.53 1108.19V1067.67C2333.53 1065.57 2335.23 1063.88 2337.32 1063.88C2339.42 1063.88 2341.12 1065.57 2341.12 1067.67V1108.15L2357.54 1091.23C2358.94 1089.66 2361.34 1089.6 2362.91 1091C2364.43 1092.4 2364.54 1094.79 2363.14 1096.37L2340.36 1120.05C2338.72 1121.86 2335.92 1121.86 2334.29 1120.05L2311.4 1096.48C2310.7 1095.73 2310.41 1094.85 2310.41 1093.92Z" fill="black"/>
</g>
</g>
<g id="Semibold-M">
<g id="Solid / Arrow Down Solid_13">
<path id="Shape_13" fill-rule="evenodd" clip-rule="evenodd" d="M2041 1038.5C2069.99 1038.5 2093.5 1062.01 2093.5 1091C2093.5 1119.99 2069.99 1143.5 2041 1143.5C2012.01 1143.5 1988.5 1119.99 1988.5 1091C1988.5 1062.01 2012.01 1038.5 2041 1038.5ZM2014.41 1093.92C2014.41 1092.87 2014.82 1091.88 2015.64 1091.12C2017.21 1089.72 2019.6 1089.83 2021 1091.35L2037.53 1108.19V1067.67C2037.53 1065.57 2039.23 1063.88 2041.32 1063.88C2043.42 1063.88 2045.12 1065.57 2045.12 1067.67V1108.15L2061.54 1091.23C2062.94 1089.66 2065.34 1089.6 2066.91 1091C2068.43 1092.4 2068.54 1094.79 2067.14 1096.37L2044.36 1120.05C2042.72 1121.86 2039.92 1121.86 2038.29 1120.05L2015.4 1096.48C2014.7 1095.73 2014.41 1094.85 2014.41 1093.92Z" fill="black"/>
</g>
</g>
<g id="Medium-M">
<g id="Solid / Arrow Down Solid_14">
<path id="Shape_14" fill-rule="evenodd" clip-rule="evenodd" d="M1745 1038.5C1773.99 1038.5 1797.5 1062.01 1797.5 1091C1797.5 1119.99 1773.99 1143.5 1745 1143.5C1716.01 1143.5 1692.5 1119.99 1692.5 1091C1692.5 1062.01 1716.01 1038.5 1745 1038.5ZM1718.41 1093.92C1718.41 1092.87 1718.82 1091.88 1719.64 1091.12C1721.21 1089.72 1723.6 1089.83 1725 1091.35L1741.53 1108.19V1067.67C1741.53 1065.57 1743.23 1063.88 1745.32 1063.88C1747.42 1063.88 1749.12 1065.57 1749.12 1067.67V1108.15L1765.54 1091.23C1766.94 1089.66 1769.34 1089.6 1770.91 1091C1772.43 1092.4 1772.54 1094.79 1771.14 1096.37L1748.36 1120.05C1746.72 1121.86 1743.92 1121.86 1742.29 1120.05L1719.4 1096.48C1718.7 1095.73 1718.41 1094.85 1718.41 1093.92Z" fill="black"/>
</g>
</g>
<g id="Regular-M">
<g id="Solid / Arrow Down Solid_15">
<path id="Shape_15" fill-rule="evenodd" clip-rule="evenodd" d="M1449 1038.5C1477.99 1038.5 1501.5 1062.01 1501.5 1091C1501.5 1119.99 1477.99 1143.5 1449 1143.5C1420.01 1143.5 1396.5 1119.99 1396.5 1091C1396.5 1062.01 1420.01 1038.5 1449 1038.5ZM1422.41 1093.92C1422.41 1092.87 1422.82 1091.88 1423.64 1091.12C1425.21 1089.72 1427.6 1089.83 1429 1091.35L1445.53 1108.19V1067.67C1445.53 1065.57 1447.23 1063.88 1449.32 1063.88C1451.42 1063.88 1453.12 1065.57 1453.12 1067.67V1108.15L1469.54 1091.23C1470.94 1089.66 1473.34 1089.6 1474.91 1091C1476.43 1092.4 1476.54 1094.79 1475.14 1096.37L1452.36 1120.05C1450.72 1121.86 1447.92 1121.86 1446.29 1120.05L1423.4 1096.48C1422.7 1095.73 1422.41 1094.85 1422.41 1093.92Z" fill="black"/>
</g>
</g>
<g id="Light-M">
<g id="Solid / Arrow Down Solid_16">
<path id="Shape_16" fill-rule="evenodd" clip-rule="evenodd" d="M1153 1038.5C1181.99 1038.5 1205.5 1062.01 1205.5 1091C1205.5 1119.99 1181.99 1143.5 1153 1143.5C1124.01 1143.5 1100.5 1119.99 1100.5 1091C1100.5 1062.01 1124.01 1038.5 1153 1038.5ZM1126.41 1093.92C1126.41 1092.87 1126.82 1091.88 1127.64 1091.12C1129.21 1089.72 1131.6 1089.83 1133 1091.35L1149.53 1108.19V1067.67C1149.53 1065.57 1151.23 1063.88 1153.32 1063.88C1155.42 1063.88 1157.12 1065.57 1157.12 1067.67V1108.15L1173.54 1091.23C1174.94 1089.66 1177.34 1089.6 1178.91 1091C1180.43 1092.4 1180.54 1094.79 1179.14 1096.37L1156.36 1120.05C1154.72 1121.86 1151.92 1121.86 1150.29 1120.05L1127.4 1096.48C1126.7 1095.73 1126.41 1094.85 1126.41 1093.92Z" fill="black"/>
</g>
</g>
<g id="Thin-M">
<g id="Solid / Arrow Down Solid_17">
<path id="Shape_17" fill-rule="evenodd" clip-rule="evenodd" d="M857 1038.5C885.995 1038.5 909.5 1062.01 909.5 1091C909.5 1119.99 885.995 1143.5 857 1143.5C828.005 1143.5 804.5 1119.99 804.5 1091C804.5 1062.01 828.005 1038.5 857 1038.5ZM830.411 1093.92C830.411 1092.87 830.819 1091.88 831.636 1091.12C833.211 1089.72 835.602 1089.83 837.002 1091.35L853.532 1108.19V1067.67C853.532 1065.57 855.23 1063.88 857.324 1063.88C859.418 1063.88 861.115 1065.57 861.115 1067.67V1108.15L877.544 1091.23C878.944 1089.66 881.336 1089.6 882.911 1091C884.427 1092.4 884.544 1094.79 883.144 1096.37L860.357 1120.05C858.724 1121.86 855.924 1121.86 854.29 1120.05L831.402 1096.48C830.702 1095.73 830.411 1094.85 830.411 1093.92Z" fill="black"/>
</g>
</g>
<g id="Ultralight-M">
<g id="Solid / Arrow Down Solid_18">
<path id="Shape_18" fill-rule="evenodd" clip-rule="evenodd" d="M561 1038.5C589.995 1038.5 613.5 1062.01 613.5 1091C613.5 1119.99 589.995 1143.5 561 1143.5C532.005 1143.5 508.5 1119.99 508.5 1091C508.5 1062.01 532.005 1038.5 561 1038.5ZM534.411 1093.92C534.411 1092.87 534.819 1091.88 535.636 1091.12C537.211 1089.72 539.602 1089.83 541.002 1091.35L557.532 1108.19V1067.67C557.532 1065.57 559.23 1063.88 561.324 1063.88C563.418 1063.88 565.115 1065.57 565.115 1067.67V1108.15L581.544 1091.23C582.944 1089.66 585.336 1089.6 586.911 1091C588.427 1092.4 588.544 1094.79 587.144 1096.37L564.357 1120.05C562.724 1121.86 559.924 1121.86 558.29 1120.05L535.402 1096.48C534.702 1095.73 534.411 1094.85 534.411 1093.92Z" fill="black"/>
</g>
</g>
<g id="Black-S">
<g id="Solid / Arrow Down Solid_19">
<path id="Shape_19" fill-rule="evenodd" clip-rule="evenodd" d="M2929 623.5C2949.71 623.5 2966.5 640.289 2966.5 661C2966.5 681.711 2949.71 698.5 2929 698.5C2908.29 698.5 2891.5 681.711 2891.5 661C2891.5 640.289 2908.29 623.5 2929 623.5ZM2910.01 663.083C2910.01 662.333 2910.3 661.625 2910.88 661.083C2912.01 660.083 2913.72 660.167 2914.72 661.25L2926.52 673.282V644.333C2926.52 642.838 2927.74 641.625 2929.23 641.625C2930.73 641.625 2931.94 642.838 2931.94 644.333V673.252L2943.67 661.167C2944.67 660.042 2946.38 660 2947.51 661C2948.59 662 2948.67 663.708 2947.67 664.833L2931.4 681.75C2930.23 683.042 2928.23 683.042 2927.06 681.75L2910.72 664.917C2910.22 664.375 2910.01 663.75 2910.01 663.083Z" fill="black"/>
</g>
</g>
<g id="Heavy-S">
<g id="Solid / Arrow Down Solid_20">
<path id="Shape_20" fill-rule="evenodd" clip-rule="evenodd" d="M2633 623.5C2653.71 623.5 2670.5 640.289 2670.5 661C2670.5 681.711 2653.71 698.5 2633 698.5C2612.29 698.5 2595.5 681.711 2595.5 661C2595.5 640.289 2612.29 623.5 2633 623.5ZM2614.01 663.083C2614.01 662.333 2614.3 661.625 2614.88 661.083C2616.01 660.083 2617.72 660.167 2618.72 661.25L2630.52 673.282V644.333C2630.52 642.838 2631.74 641.625 2633.23 641.625C2634.73 641.625 2635.94 642.838 2635.94 644.333V673.252L2647.67 661.167C2648.67 660.042 2650.38 660 2651.51 661C2652.59 662 2652.67 663.708 2651.67 664.833L2635.4 681.75C2634.23 683.042 2632.23 683.042 2631.06 681.75L2614.72 664.917C2614.22 664.375 2614.01 663.75 2614.01 663.083Z" fill="black"/>
</g>
</g>
<g id="Bold-S">
<g id="Solid / Arrow Down Solid_21">
<path id="Shape_21" fill-rule="evenodd" clip-rule="evenodd" d="M2337 623.5C2357.71 623.5 2374.5 640.289 2374.5 661C2374.5 681.711 2357.71 698.5 2337 698.5C2316.29 698.5 2299.5 681.711 2299.5 661C2299.5 640.289 2316.29 623.5 2337 623.5ZM2318.01 663.083C2318.01 662.333 2318.3 661.625 2318.88 661.083C2320.01 660.083 2321.72 660.167 2322.72 661.25L2334.52 673.282V644.333C2334.52 642.838 2335.74 641.625 2337.23 641.625C2338.73 641.625 2339.94 642.838 2339.94 644.333V673.252L2351.67 661.167C2352.67 660.042 2354.38 660 2355.51 661C2356.59 662 2356.67 663.708 2355.67 664.833L2339.4 681.75C2338.23 683.042 2336.23 683.042 2335.06 681.75L2318.72 664.917C2318.22 664.375 2318.01 663.75 2318.01 663.083Z" fill="black"/>
</g>
</g>
<g id="Semibold-S">
<g id="Solid / Arrow Down Solid_22">
<path id="Shape_22" fill-rule="evenodd" clip-rule="evenodd" d="M2041 623.5C2061.71 623.5 2078.5 640.289 2078.5 661C2078.5 681.711 2061.71 698.5 2041 698.5C2020.29 698.5 2003.5 681.711 2003.5 661C2003.5 640.289 2020.29 623.5 2041 623.5ZM2022.01 663.083C2022.01 662.333 2022.3 661.625 2022.88 661.083C2024.01 660.083 2025.72 660.167 2026.72 661.25L2038.52 673.282V644.333C2038.52 642.838 2039.74 641.625 2041.23 641.625C2042.73 641.625 2043.94 642.838 2043.94 644.333V673.252L2055.67 661.167C2056.67 660.042 2058.38 660 2059.51 661C2060.59 662 2060.67 663.708 2059.67 664.833L2043.4 681.75C2042.23 683.042 2040.23 683.042 2039.06 681.75L2022.72 664.917C2022.22 664.375 2022.01 663.75 2022.01 663.083Z" fill="black"/>
</g>
</g>
<g id="Medium-S">
<g id="Solid / Arrow Down Solid_23">
<path id="Shape_23" fill-rule="evenodd" clip-rule="evenodd" d="M1745 623.5C1765.71 623.5 1782.5 640.289 1782.5 661C1782.5 681.711 1765.71 698.5 1745 698.5C1724.29 698.5 1707.5 681.711 1707.5 661C1707.5 640.289 1724.29 623.5 1745 623.5ZM1726.01 663.083C1726.01 662.333 1726.3 661.625 1726.88 661.083C1728.01 660.083 1729.72 660.167 1730.72 661.25L1742.52 673.282V644.333C1742.52 642.838 1743.74 641.625 1745.23 641.625C1746.73 641.625 1747.94 642.838 1747.94 644.333V673.252L1759.67 661.167C1760.67 660.042 1762.38 660 1763.51 661C1764.59 662 1764.67 663.708 1763.67 664.833L1747.4 681.75C1746.23 683.042 1744.23 683.042 1743.06 681.75L1726.72 664.917C1726.22 664.375 1726.01 663.75 1726.01 663.083Z" fill="black"/>
</g>
</g>
<g id="Regular-S">
<g id="Solid / Arrow Down Solid_24">
<path id="Shape_24" fill-rule="evenodd" clip-rule="evenodd" d="M1449 623.5C1469.71 623.5 1486.5 640.289 1486.5 661C1486.5 681.711 1469.71 698.5 1449 698.5C1428.29 698.5 1411.5 681.711 1411.5 661C1411.5 640.289 1428.29 623.5 1449 623.5ZM1430.01 663.083C1430.01 662.333 1430.3 661.625 1430.88 661.083C1432.01 660.083 1433.72 660.167 1434.72 661.25L1446.52 673.282V644.333C1446.52 642.838 1447.74 641.625 1449.23 641.625C1450.73 641.625 1451.94 642.838 1451.94 644.333V673.252L1463.67 661.167C1464.67 660.042 1466.38 660 1467.51 661C1468.59 662 1468.67 663.708 1467.67 664.833L1451.4 681.75C1450.23 683.042 1448.23 683.042 1447.06 681.75L1430.72 664.917C1430.22 664.375 1430.01 663.75 1430.01 663.083Z" fill="black"/>
</g>
</g>
<g id="Light-S">
<g id="Solid / Arrow Down Solid_25">
<path id="Shape_25" fill-rule="evenodd" clip-rule="evenodd" d="M1153 623.5C1173.71 623.5 1190.5 640.289 1190.5 661C1190.5 681.711 1173.71 698.5 1153 698.5C1132.29 698.5 1115.5 681.711 1115.5 661C1115.5 640.289 1132.29 623.5 1153 623.5ZM1134.01 663.083C1134.01 662.333 1134.3 661.625 1134.88 661.083C1136.01 660.083 1137.72 660.167 1138.72 661.25L1150.52 673.282V644.333C1150.52 642.838 1151.74 641.625 1153.23 641.625C1154.73 641.625 1155.94 642.838 1155.94 644.333V673.252L1167.67 661.167C1168.67 660.042 1170.38 660 1171.51 661C1172.59 662 1172.67 663.708 1171.67 664.833L1155.4 681.75C1154.23 683.042 1152.23 683.042 1151.06 681.75L1134.72 664.917C1134.22 664.375 1134.01 663.75 1134.01 663.083Z" fill="black"/>
</g>
</g>
<g id="Thin-S">
<g id="Solid / Arrow Down Solid_26">
<path id="Shape_26" fill-rule="evenodd" clip-rule="evenodd" d="M857 623.5C877.711 623.5 894.5 640.289 894.5 661C894.5 681.711 877.711 698.5 857 698.5C836.289 698.5 819.5 681.711 819.5 661C819.5 640.289 836.289 623.5 857 623.5ZM838.008 663.083C838.008 662.333 838.299 661.625 838.883 661.083C840.008 660.083 841.716 660.167 842.716 661.25L854.523 673.282V644.333C854.523 642.838 855.735 641.625 857.231 641.625C858.727 641.625 859.94 642.838 859.94 644.333V673.252L871.674 661.167C872.674 660.042 874.383 660 875.508 661C876.591 662 876.674 663.708 875.674 664.833L859.398 681.75C858.231 683.042 856.231 683.042 855.065 681.75L838.716 664.917C838.216 664.375 838.008 663.75 838.008 663.083Z" fill="black"/>
</g>
</g>
<g id="Ultralight-S">
<g id="Solid / Arrow Down Solid_27">
<path id="Shape_27" fill-rule="evenodd" clip-rule="evenodd" d="M561 623.5C581.711 623.5 598.5 640.289 598.5 661C598.5 681.711 581.711 698.5 561 698.5C540.289 698.5 523.5 681.711 523.5 661C523.5 640.289 540.289 623.5 561 623.5ZM542.008 663.083C542.008 662.333 542.299 661.625 542.883 661.083C544.008 660.083 545.716 660.167 546.716 661.25L558.523 673.282V644.333C558.523 642.838 559.735 641.625 561.231 641.625C562.727 641.625 563.94 642.838 563.94 644.333V673.252L575.674 661.167C576.674 660.042 578.383 660 579.508 661C580.591 662 580.674 663.708 579.674 664.833L563.398 681.75C562.231 683.042 560.231 683.042 559.065 681.75L542.716 664.917C542.216 664.375 542.008 663.75 542.008 663.083Z" fill="black"/>
</g>
</g>
</g>
</g>
<defs>
<clipPath id="clip0_805_27002">
<rect width="3300" height="2200" fill="white"/>
</clipPath>
</defs>
</svg>
