<svg xmlns="http://www.w3.org/2000/svg" width="3300" height="2200" fill="none"><path fill="#E5E5E5" d="M0 0h3300v2200H0z"/><g id="Documents / Solid / Docs" clip-path="url(#clip0_0_1)"><g id="Notes"><path id="artboard" fill="#fff" d="M3300 0H0v2200h3300V0Z"/><path id="Vector" stroke="#000" stroke-width=".5" d="M263 292h2773"/><text xml:space="preserve" id="Weight/Scale Variations" fill="#000" font-family="Roboto" font-size="12" letter-spacing="0em" style="white-space:pre"><tspan x="263" y="321.102">Weight/Scale Variations</tspan></text><text xml:space="preserve" id="Ultralight" fill="#000" font-family="Roboto" font-size="12" letter-spacing="0em" style="white-space:pre"><tspan x="535.211" y="321.102">Ultralight</tspan></text><text xml:space="preserve" id="Thin" fill="#000" font-family="Roboto" font-size="12" letter-spacing="0em" style="white-space:pre"><tspan x="844.422" y="321.102">Thin</tspan></text><text xml:space="preserve" id="Light" fill="#000" font-family="Roboto" font-size="12" letter-spacing="0em" style="white-space:pre"><tspan x="1139.63" y="321.102">Light</tspan></text><text xml:space="preserve" id="Regular" fill="#000" font-family="Roboto" font-size="12" letter-spacing="0em" style="white-space:pre"><tspan x="1429.34" y="321.102">Regular</tspan></text><text xml:space="preserve" id="Medium" fill="#000" font-family="Roboto" font-size="12" letter-spacing="0em" style="white-space:pre"><tspan x="1724.56" y="321.102">Medium</tspan></text><text xml:space="preserve" id="Semibold" fill="#000" font-family="Roboto" font-size="12" letter-spacing="0em" style="white-space:pre"><tspan x="2017.77" y="321.102">Semibold</tspan></text><text xml:space="preserve" id="Bold" fill="#000" font-family="Roboto" font-size="12" letter-spacing="0em" style="white-space:pre"><tspan x="2327.48" y="321.102">Bold</tspan></text><text xml:space="preserve" id="Heavy" fill="#000" font-family="Roboto" font-size="12" letter-spacing="0em" style="white-space:pre"><tspan x="2620.19" y="321.102">Heavy</tspan></text><text xml:space="preserve" id="Black" fill="#000" font-family="Roboto" font-size="12" letter-spacing="0em" style="white-space:pre"><tspan x="2918.4" y="321.102">Black</tspan></text><path id="Vector_2" stroke="#000" stroke-width=".5" d="M263 1903h2773"/><g id="Group"><path id="Vector_3" fill="#000" d="M272.248 1933.83c4.307 0 7.891-3.57 7.891-7.88 0-4.31-3.594-7.88-7.901-7.88-4.297 0-7.871 3.57-7.871 7.88 0 4.31 3.584 7.88 7.881 7.88Zm0-1.48a6.364 6.364 0 0 1-6.377-6.4c0-3.56 2.822-6.4 6.367-6.4a6.382 6.382 0 0 1 6.406 6.4 6.368 6.368 0 0 1-6.396 6.4Zm-.019-2.78c.468 0 .742-.31.742-.83v-2.06h2.226c.498 0 .84-.25.84-.72 0-.48-.322-.74-.84-.74h-2.226v-2.23c0-.52-.274-.84-.742-.84-.469 0-.723.34-.723.84v2.23h-2.207c-.518 0-.85.26-.85.74 0 .47.352.72.85.72h2.207v2.06c0 .5.254.83.723.83Z"/></g><g id="Group_2"><path id="Vector_4" fill="#000" d="M293.215 1935.91c5.449 0 9.961-4.51 9.961-9.96 0-5.44-4.522-9.96-9.971-9.96-5.439 0-9.951 4.52-9.951 9.96 0 5.45 4.521 9.96 9.961 9.96Zm0-1.66a8.26 8.26 0 0 1-8.291-8.3c0-4.6 3.672-8.3 8.281-8.3a8.29 8.29 0 0 1 8.311 8.3 8.263 8.263 0 0 1-8.301 8.3Zm-.02-3.66c.518 0 .83-.36.83-.93v-2.89h3.057c.547 0 .928-.28.928-.8 0-.53-.362-.83-.928-.83h-3.057v-3.07c0-.57-.312-.93-.83-.93-.517 0-.81.38-.81.93v3.07h-3.047c-.567 0-.938.3-.938.83 0 .52.391.8.938.8h3.047v2.89c0 .55.293.93.81.93Z"/></g><g id="Group_3"><path id="Vector_5" fill="#000" d="M319.895 1938.67c6.962 0 12.724-5.75 12.724-12.71 0-6.96-5.771-12.72-12.734-12.72-6.953 0-12.705 5.76-12.705 12.72 0 6.96 5.761 12.71 12.715 12.71Zm0-1.81a10.874 10.874 0 0 1-10.889-10.9c0-6.04 4.844-10.9 10.879-10.9 6.045 0 10.898 4.86 10.908 10.9a10.87 10.87 0 0 1-10.898 10.9Zm-.02-4.92c.566 0 .918-.4.918-1v-4.07h4.238c.586 0 1.006-.33 1.006-.89 0-.58-.39-.92-1.006-.92h-4.238v-4.25c0-.61-.352-1-.918-1-.566 0-.889.41-.889 1v4.25h-4.228c-.615 0-1.026.34-1.026.92 0 .56.43.89 1.026.89h4.228v4.07c0 .59.323 1 .889 1Z"/></g><text xml:space="preserve" id="Design Variations" fill="#000" font-family="Roboto" font-size="12" letter-spacing="0em" style="white-space:pre"><tspan x="263" y="1952.1">Design Variations</tspan></text><text xml:space="preserve" id="Symbols are supported in up to nine weights and three scales." fill="#000" font-family="Roboto" font-size="12" letter-spacing="0em" style="white-space:pre"><tspan x="263" y="1970.1">Symbols are supported in up to nine weights and three scales.</tspan></text><text xml:space="preserve" id="For optimal layout with text and other symbols, vertically align" fill="#000" font-family="Roboto" font-size="12" letter-spacing="0em" style="white-space:pre"><tspan x="263" y="1988.1">For optimal layout with text and other symbols, vertically align</tspan></text><text xml:space="preserve" id="symbols with the adjacent text." fill="#000" font-family="Roboto" font-size="12" letter-spacing="0em" style="white-space:pre"><tspan x="263" y="2006.1">symbols with the adjacent text.</tspan></text><path id="Vector_6" fill="#00AEEF" d="M779 1919h-3v14h3v-14Z" opacity=".4"/><g id="Group_4"><path id="Vector_7" fill="#000" d="M789.525 1933h1.846l-5.195-14.09h-1.739l-5.195 14.09h1.846l1.416-4.03h5.605l1.416 4.03Zm-4.248-11.95h.059l2.256 6.42h-4.571l2.256-6.42Z"/></g><path id="Vector_8" fill="#00AEEF" d="M794.617 1919h-3v14h3v-14Z" opacity=".4"/><text xml:space="preserve" id="Margins" fill="#000" font-family="Roboto" font-size="12" letter-spacing="0em" style="white-space:pre"><tspan x="776" y="1952.1">Margins</tspan></text><text xml:space="preserve" id="Leading and trailing margins on the left and right side of each symbol" fill="#000" font-family="Roboto" font-size="12" letter-spacing="0em" style="white-space:pre"><tspan x="776" y="1970.1">Leading and trailing margins on the left and right side of each symbol</tspan></text><text xml:space="preserve" id="can be adjusted by modifying the width of the blue rectangles." fill="#000" font-family="Roboto" font-size="12" letter-spacing="0em" style="white-space:pre"><tspan x="776" y="1988.1">can be adjusted by modifying the width of the blue rectangles.</tspan></text><text xml:space="preserve" id="Modifications are automatically applied proportionally to all" fill="#000" font-family="Roboto" font-size="12" letter-spacing="0em" style="white-space:pre"><tspan x="776" y="2006.1">Modifications are automatically applied proportionally to all</tspan></text><text xml:space="preserve" id="scales and weights." fill="#000" font-family="Roboto" font-size="12" letter-spacing="0em" style="white-space:pre"><tspan x="776" y="2024.1">scales and weights.</tspan></text><g id="Group_5"><path id="Vector_9" fill="#000" d="m1291.83 1936.12 1.54 1.54c.85.83 1.82.76 2.69-.2l10.21-11.12c.43.29.83.28 1.29.19l1.05-.22.69.69-.05.52c-.06.53.1.95.6 1.45l.81.81c.51.51 1.16.53 1.64.06l3.25-3.26c.48-.47.46-1.13-.05-1.64l-.82-.82c-.49-.5-.91-.67-1.44-.59l-.53.06-.65-.67.28-1.14c.15-.57 0-1.04-.63-1.64l-2.41-2.39c-3.54-3.53-8.07-3.42-11.19-.29-.42.43-.47 1.02-.19 1.45.23.37.71.59 1.35.43 1.52-.38 3.03-.27 4.51.74l-.62 1.58c-.23.59-.22 1.07.02 1.51l-11.16 10.27c-.94.87-1.05 1.82-.19 2.68Zm7.84-18.27c2.67-1.99 5.98-1.68 8.38.74l2.63 2.6c.23.24.26.42.2.72l-.38 1.56 1.58 1.57.96-.09c.29-.03.37-.01.6.22l.62.62-2.75 2.75-.63-.62c-.22-.22-.24-.32-.21-.6l.09-.96-1.57-1.56-1.62.31c-.28.06-.43.06-.66-.19l-2.18-2.17c-.22-.24-.25-.38-.12-.7l.94-2.27c-1.6-1.54-3.71-2.39-5.75-1.73-.09.03-.16.01-.19-.03-.02-.05-.02-.1.06-.17Zm-6.57 17.56c-.49-.5-.31-.8.02-1.1l10.96-10.12 1.23 1.23-10.16 10.93c-.3.33-.68.43-1.08.03l-.97-.97Z"/></g><text xml:space="preserve" id="Exporting" fill="#000" font-family="Roboto" font-size="12" letter-spacing="0em" style="white-space:pre"><tspan x="1289" y="1952.1">Exporting</tspan></text><text xml:space="preserve" id="Symbols should be outlined when exporting to ensure the" fill="#000" font-family="Roboto" font-size="12" letter-spacing="0em" style="white-space:pre"><tspan x="1289" y="1970.1">Symbols should be outlined when exporting to ensure the</tspan></text><text xml:space="preserve" id="design is preserved when submitting to Xcode." fill="#000" font-family="Roboto" font-size="12" letter-spacing="0em" style="white-space:pre"><tspan x="1289" y="1988.1">design is preserved when submitting to Xcode.</tspan></text><text xml:space="preserve" id="template-version" fill="#000" font-family="Roboto" font-size="12" letter-spacing="0em" style="white-space:pre"><tspan x="2958" y="1932.1">Template v.1.0</tspan></text><text xml:space="preserve" id="Generated from pencil.circle" fill="#000" font-family="Roboto" font-size="12" letter-spacing="0em" style="white-space:pre"><tspan x="2885" y="1950.1">Generated from pencil.circle</tspan></text><text xml:space="preserve" id="Typeset at 100 points" fill="#000" font-family="Roboto" font-size="12" letter-spacing="0em" style="white-space:pre"><tspan x="2921" y="1968.1">Typeset at 100 points</tspan></text><text xml:space="preserve" id="Small" fill="#000" font-family="Roboto" font-size="12" letter-spacing="0em" style="white-space:pre"><tspan x="263" y="725.102">Small</tspan></text><text xml:space="preserve" id="Medium_2" fill="#000" font-family="Roboto" font-size="12" letter-spacing="0em" style="white-space:pre"><tspan x="263" y="1155.1">Medium</tspan></text><text xml:space="preserve" id="Large" fill="#000" font-family="Roboto" font-size="12" letter-spacing="0em" style="white-space:pre"><tspan x="263" y="1585.1">Large</tspan></text></g><g id="Guides"><g id="H-reference"><path id="Vector_10" fill="#27AAE1" d="M393.932 696h2.734l-27.1-70.459h-2.49L339.977 696h2.685l9.278-24.463h32.763L393.932 696Zm-25.733-67.09h.244l15.381 40.381h-31.006l15.381-40.381Z"/></g><path id="Baseline-S" stroke="#27AAE1" stroke-width=".577" d="M263 696h2773"/><path id="Capline-S" stroke="#27AAE1" stroke-width=".577" d="M263 626h2773"/><g id="H-reference_2"><path id="Vector_11" fill="#27AAE1" d="M393.932 1126h2.734l-27.1-70.46h-2.49L339.977 1126h2.685l9.278-24.46h32.763l9.229 24.46Zm-25.733-67.09h.244l15.381 40.38h-31.006l15.381-40.38Z"/></g><path id="Baseline-M" stroke="#27AAE1" stroke-width=".577" d="M263 1126h2773"/><path id="Capline-M" stroke="#27AAE1" stroke-width=".577" d="M263 1056h2773"/><g id="H-reference_3"><path id="Vector_12" fill="#27AAE1" d="M393.932 1556h2.734l-27.1-70.46h-2.49L339.977 1556h2.685l9.278-24.46h32.763l9.229 24.46Zm-25.733-67.09h.244l15.381 40.38h-31.006l15.381-40.38Z"/></g><g id="Group 1" stroke="#27AAE1" stroke-width=".577"><path id="Baseline-L" d="M263 1556h2773"/><path id="Capline-L" d="M263 1486h2773"/></g><path id="left-margin" fill="#00AEEF" d="M1402.04 1030.79h-8.74v119.34h8.74v-119.34Z" opacity=".4"/><path id="right-margin" fill="#00AEEF" d="M1508.39 1030.79h-8.74v119.34h8.74v-119.34Z" opacity=".4"/></g><g id="Symbols"><g id="Black-L"><g id="Solid / Docs Solid"><g id="Shape" fill="#000"><path fill-rule="evenodd" d="M2971.38 1456.12c12.42 0 22.5 10.08 22.5 22.5v75c0 12.43-10.08 22.5-22.5 22.5h-60.01c-12.42 0-22.5-10.07-22.5-22.5v-75c0-12.42 10.08-22.5 22.5-22.5h60.01Zm-27.2 34.11a4.87 4.87 0 0 1-4.87 4.87h-20.28c-2.69 0-4.88-2.18-4.88-4.87s2.19-4.88 4.88-4.88h20.28c2.69 0 4.87 2.19 4.87 4.88Zm19.53 31.2c2.69 0 4.88-2.19 4.88-4.88s-2.19-4.87-4.88-4.87h-44.68c-2.69 0-4.88 2.18-4.88 4.87s2.19 4.88 4.88 4.88h44.68Zm4.88 21.45c0 2.69-2.19 4.87-4.88 4.87h-44.68c-2.69 0-4.88-2.18-4.88-4.87 0-2.7 2.19-4.88 4.88-4.88h44.68a4.88 4.88 0 0 1 4.88 4.88Z" clip-rule="evenodd"/><path d="M2869 1501.12a4.87 4.87 0 0 1 4.87-4.87c2.7 0 4.88 2.18 4.88 4.87v70.5c0 8.08 6.55 14.63 14.63 14.63h63a4.87 4.87 0 0 1 4.87 4.87c0 2.69-2.18 4.88-4.87 4.88h-63c-13.47 0-24.38-10.92-24.38-24.38v-70.5Z"/></g></g></g><g id="Heavy-L"><g id="Solid / Docs Solid_2"><g id="Shape_2" fill="#000"><path fill-rule="evenodd" d="M2675.38 1456.12c12.42 0 22.5 10.08 22.5 22.5v75c0 12.43-10.08 22.5-22.5 22.5h-60.01c-12.42 0-22.5-10.07-22.5-22.5v-75c0-12.42 10.08-22.5 22.5-22.5h60.01Zm-27.2 34.11a4.87 4.87 0 0 1-4.87 4.87h-20.28c-2.69 0-4.88-2.18-4.88-4.87s2.19-4.88 4.88-4.88h20.28c2.69 0 4.87 2.19 4.87 4.88Zm19.53 31.2c2.69 0 4.88-2.19 4.88-4.88s-2.19-4.87-4.88-4.87h-44.68c-2.69 0-4.88 2.18-4.88 4.87s2.19 4.88 4.88 4.88h44.68Zm4.88 21.45c0 2.69-2.19 4.87-4.88 4.87h-44.68c-2.69 0-4.88-2.18-4.88-4.87 0-2.7 2.19-4.88 4.88-4.88h44.68a4.88 4.88 0 0 1 4.88 4.88Z" clip-rule="evenodd"/><path d="M2573 1501.12a4.87 4.87 0 0 1 4.87-4.87c2.7 0 4.88 2.18 4.88 4.87v70.5c0 8.08 6.55 14.63 14.63 14.63h63a4.87 4.87 0 0 1 4.87 4.87c0 2.69-2.18 4.88-4.87 4.88h-63c-13.47 0-24.38-10.92-24.38-24.38v-70.5Z"/></g></g></g><g id="Bold-L"><g id="Solid / Docs Solid_3"><g id="Shape_3" fill="#000"><path fill-rule="evenodd" d="M2379.38 1456.12c12.42 0 22.5 10.08 22.5 22.5v75c0 12.43-10.08 22.5-22.5 22.5h-60.01c-12.42 0-22.5-10.07-22.5-22.5v-75c0-12.42 10.08-22.5 22.5-22.5h60.01Zm-27.2 34.11a4.87 4.87 0 0 1-4.87 4.87h-20.28c-2.69 0-4.88-2.18-4.88-4.87s2.19-4.88 4.88-4.88h20.28c2.69 0 4.87 2.19 4.87 4.88Zm19.53 31.2c2.69 0 4.88-2.19 4.88-4.88s-2.19-4.87-4.88-4.87h-44.68c-2.69 0-4.88 2.18-4.88 4.87s2.19 4.88 4.88 4.88h44.68Zm4.88 21.45c0 2.69-2.19 4.87-4.88 4.87h-44.68c-2.69 0-4.88-2.18-4.88-4.87 0-2.7 2.19-4.88 4.88-4.88h44.68a4.88 4.88 0 0 1 4.88 4.88Z" clip-rule="evenodd"/><path d="M2277 1501.12a4.87 4.87 0 0 1 4.87-4.87c2.7 0 4.88 2.18 4.88 4.87v70.5c0 8.08 6.55 14.63 14.63 14.63h63a4.87 4.87 0 0 1 4.87 4.87c0 2.69-2.18 4.88-4.87 4.88h-63c-13.47 0-24.38-10.92-24.38-24.38v-70.5Z"/></g></g></g><g id="Semibold-L"><g id="Solid / Docs Solid_4"><g id="Shape_4" fill="#000"><path fill-rule="evenodd" d="M2083.38 1456.12c12.42 0 22.5 10.08 22.5 22.5v75c0 12.43-10.08 22.5-22.5 22.5h-60.01c-12.42 0-22.5-10.07-22.5-22.5v-75c0-12.42 10.08-22.5 22.5-22.5h60.01Zm-27.2 34.11a4.87 4.87 0 0 1-4.87 4.87h-20.28c-2.69 0-4.88-2.18-4.88-4.87s2.19-4.88 4.88-4.88h20.28c2.69 0 4.87 2.19 4.87 4.88Zm19.53 31.2c2.69 0 4.88-2.19 4.88-4.88s-2.19-4.87-4.88-4.87h-44.68c-2.69 0-4.88 2.18-4.88 4.87s2.19 4.88 4.88 4.88h44.68Zm4.88 21.45c0 2.69-2.19 4.87-4.88 4.87h-44.68c-2.69 0-4.88-2.18-4.88-4.87 0-2.7 2.19-4.88 4.88-4.88h44.68a4.88 4.88 0 0 1 4.88 4.88Z" clip-rule="evenodd"/><path d="M1981 1501.12a4.87 4.87 0 0 1 4.87-4.87c2.7 0 4.88 2.18 4.88 4.87v70.5c0 8.08 6.55 14.63 14.63 14.63h63a4.87 4.87 0 0 1 4.87 4.87c0 2.69-2.18 4.88-4.87 4.88h-63c-13.47 0-24.38-10.92-24.38-24.38v-70.5Z"/></g></g></g><g id="Medium-L"><g id="Solid / Docs Solid_5"><g id="Shape_5" fill="#000"><path fill-rule="evenodd" d="M1787.38 1456.12c12.42 0 22.5 10.08 22.5 22.5v75c0 12.43-10.08 22.5-22.5 22.5h-60.01c-12.42 0-22.5-10.07-22.5-22.5v-75c0-12.42 10.08-22.5 22.5-22.5h60.01Zm-27.2 34.11a4.87 4.87 0 0 1-4.87 4.87h-20.28c-2.69 0-4.88-2.18-4.88-4.87s2.19-4.88 4.88-4.88h20.28c2.69 0 4.87 2.19 4.87 4.88Zm19.53 31.2c2.69 0 4.88-2.19 4.88-4.88s-2.19-4.87-4.88-4.87h-44.68c-2.69 0-4.88 2.18-4.88 4.87s2.19 4.88 4.88 4.88h44.68Zm4.88 21.45c0 2.69-2.19 4.87-4.88 4.87h-44.68c-2.69 0-4.88-2.18-4.88-4.87 0-2.7 2.19-4.88 4.88-4.88h44.68a4.88 4.88 0 0 1 4.88 4.88Z" clip-rule="evenodd"/><path d="M1685 1501.12a4.87 4.87 0 0 1 4.87-4.87c2.7 0 4.88 2.18 4.88 4.87v70.5c0 8.08 6.55 14.63 14.63 14.63h63a4.87 4.87 0 0 1 4.87 4.87c0 2.69-2.18 4.88-4.87 4.88h-63c-13.47 0-24.38-10.92-24.38-24.38v-70.5Z"/></g></g></g><g id="Regular-L"><g id="Solid / Docs Solid_6"><g id="Shape_6" fill="#000"><path fill-rule="evenodd" d="M1491.38 1456.12c12.42 0 22.5 10.08 22.5 22.5v75c0 12.43-10.08 22.5-22.5 22.5h-60.01c-12.42 0-22.5-10.07-22.5-22.5v-75c0-12.42 10.08-22.5 22.5-22.5h60.01Zm-27.2 34.11a4.87 4.87 0 0 1-4.87 4.87h-20.28c-2.69 0-4.88-2.18-4.88-4.87s2.19-4.88 4.88-4.88h20.28c2.69 0 4.87 2.19 4.87 4.88Zm19.53 31.2c2.69 0 4.88-2.19 4.88-4.88s-2.19-4.87-4.88-4.87h-44.68c-2.69 0-4.88 2.18-4.88 4.87s2.19 4.88 4.88 4.88h44.68Zm4.88 21.45c0 2.69-2.19 4.87-4.88 4.87h-44.68c-2.69 0-4.88-2.18-4.88-4.87 0-2.7 2.19-4.88 4.88-4.88h44.68a4.88 4.88 0 0 1 4.88 4.88Z" clip-rule="evenodd"/><path d="M1389 1501.12a4.87 4.87 0 0 1 4.87-4.87c2.7 0 4.88 2.18 4.88 4.87v70.5c0 8.08 6.55 14.63 14.63 14.63h63a4.87 4.87 0 0 1 4.87 4.87c0 2.69-2.18 4.88-4.87 4.88h-63c-13.47 0-24.38-10.92-24.38-24.38v-70.5Z"/></g></g></g><g id="Light-L"><g id="Solid / Docs Solid_7"><g id="Shape_7" fill="#000"><path fill-rule="evenodd" d="M1195.38 1456.12c12.42 0 22.5 10.08 22.5 22.5v75c0 12.43-10.08 22.5-22.5 22.5h-60.01c-12.42 0-22.5-10.07-22.5-22.5v-75c0-12.42 10.08-22.5 22.5-22.5h60.01Zm-27.2 34.11a4.87 4.87 0 0 1-4.87 4.87h-20.28c-2.69 0-4.88-2.18-4.88-4.87s2.19-4.88 4.88-4.88h20.28c2.69 0 4.87 2.19 4.87 4.88Zm19.53 31.2c2.69 0 4.88-2.19 4.88-4.88s-2.19-4.87-4.88-4.87h-44.68c-2.69 0-4.88 2.18-4.88 4.87s2.19 4.88 4.88 4.88h44.68Zm4.88 21.45c0 2.69-2.19 4.87-4.88 4.87h-44.68c-2.69 0-4.88-2.18-4.88-4.87 0-2.7 2.19-4.88 4.88-4.88h44.68a4.88 4.88 0 0 1 4.88 4.88Z" clip-rule="evenodd"/><path d="M1093 1501.12a4.87 4.87 0 0 1 4.87-4.87c2.7 0 4.88 2.18 4.88 4.87v70.5c0 8.08 6.55 14.63 14.63 14.63h63a4.87 4.87 0 0 1 4.87 4.87c0 2.69-2.18 4.88-4.87 4.88h-63c-13.47 0-24.38-10.92-24.38-24.38v-70.5Z"/></g></g></g><g id="Thin-L"><g id="Solid / Docs Solid_8"><g id="Shape_8" fill="#000"><path fill-rule="evenodd" d="M899.375 1456.12c12.426 0 22.5 10.08 22.5 22.5v75c0 12.43-10.074 22.5-22.5 22.5h-60c-12.426 0-22.5-10.07-22.5-22.5v-75c0-12.42 10.074-22.5 22.5-22.5h60Zm-27.19 34.11c0 2.69-2.183 4.87-4.875 4.87h-20.282a4.873 4.873 0 0 1-4.875-4.87c0-2.69 2.183-4.88 4.875-4.88h20.282a4.881 4.881 0 0 1 4.875 4.88Zm19.527 31.2a4.88 4.88 0 0 0 4.875-4.88c0-2.69-2.182-4.87-4.875-4.87h-44.684a4.873 4.873 0 0 0-4.875 4.87c0 2.69 2.183 4.88 4.875 4.88h44.684Zm4.875 21.45c0 2.69-2.182 4.87-4.875 4.87h-44.684a4.873 4.873 0 0 1-4.875-4.87c0-2.7 2.183-4.88 4.875-4.88h44.684a4.874 4.874 0 0 1 4.875 4.88Z" clip-rule="evenodd"/><path d="M797 1501.12c0-2.69 2.183-4.87 4.875-4.87a4.873 4.873 0 0 1 4.875 4.87v70.5c0 8.08 6.548 14.63 14.625 14.63h63a4.873 4.873 0 0 1 4.875 4.87c0 2.69-2.183 4.88-4.875 4.88h-63c-13.462 0-24.375-10.92-24.375-24.38v-70.5Z"/></g></g></g><g id="Ultralight-L"><g id="Solid / Docs Solid_9"><g id="Shape_9" fill="#000"><path fill-rule="evenodd" d="M603.375 1456.12c12.426 0 22.5 10.08 22.5 22.5v75c0 12.43-10.074 22.5-22.5 22.5h-60c-12.426 0-22.5-10.07-22.5-22.5v-75c0-12.42 10.074-22.5 22.5-22.5h60Zm-27.19 34.11c0 2.69-2.183 4.87-4.875 4.87h-20.282a4.873 4.873 0 0 1-4.875-4.87c0-2.69 2.183-4.88 4.875-4.88h20.282a4.881 4.881 0 0 1 4.875 4.88Zm19.527 31.2a4.88 4.88 0 0 0 4.875-4.88c0-2.69-2.182-4.87-4.875-4.87h-44.684a4.873 4.873 0 0 0-4.875 4.87c0 2.69 2.183 4.88 4.875 4.88h44.684Zm4.875 21.45c0 2.69-2.182 4.87-4.875 4.87h-44.684a4.873 4.873 0 0 1-4.875-4.87c0-2.7 2.183-4.88 4.875-4.88h44.684a4.874 4.874 0 0 1 4.875 4.88Z" clip-rule="evenodd"/><path d="M501 1501.12c0-2.69 2.183-4.87 4.875-4.87a4.873 4.873 0 0 1 4.875 4.87v70.5c0 8.08 6.548 14.63 14.625 14.63h63a4.873 4.873 0 0 1 4.875 4.87c0 2.69-2.183 4.88-4.875 4.88h-63c-13.462 0-24.375-10.92-24.375-24.38v-70.5Z"/></g></g></g><g id="Black-M"><g id="Solid / Docs Solid_10"><g id="Shape_10" fill="#000"><path fill-rule="evenodd" d="M2961.96 1040.54c9.66 0 17.5 7.83 17.5 17.5v58.33c0 9.67-7.84 17.5-17.5 17.5h-46.67c-9.66 0-17.5-7.83-17.5-17.5v-58.33c0-9.67 7.84-17.5 17.5-17.5h46.67Zm-21.15 26.53c0 2.09-1.7 3.79-3.79 3.79h-15.78a3.796 3.796 0 0 1 0-7.59h15.78c2.09 0 3.79 1.7 3.79 3.8Zm15.19 24.26c2.09 0 3.79-1.7 3.79-3.79s-1.7-3.79-3.79-3.79h-34.76c-2.09 0-3.79 1.7-3.79 3.79s1.7 3.79 3.79 3.79H2956Zm3.79 16.68c0 2.1-1.7 3.8-3.79 3.8h-34.76a3.796 3.796 0 0 1 0-7.59H2956c2.09 0 3.79 1.7 3.79 3.79Z" clip-rule="evenodd"/><path d="M2882.33 1075.54c0-2.1 1.7-3.79 3.79-3.79 2.1 0 3.8 1.69 3.8 3.79v54.83c0 6.28 5.09 11.38 11.37 11.38h49c2.09 0 3.79 1.69 3.79 3.79 0 2.09-1.7 3.79-3.79 3.79h-49c-10.47 0-18.96-8.49-18.96-18.96v-54.83Z"/></g></g></g><g id="Heavy-M"><g id="Solid / Docs Solid_11"><g id="Shape_11" fill="#000"><path fill-rule="evenodd" d="M2665.96 1040.54c9.66 0 17.5 7.83 17.5 17.5v58.33c0 9.67-7.84 17.5-17.5 17.5h-46.67c-9.66 0-17.5-7.83-17.5-17.5v-58.33c0-9.67 7.84-17.5 17.5-17.5h46.67Zm-21.15 26.53c0 2.09-1.7 3.79-3.79 3.79h-15.78a3.796 3.796 0 0 1 0-7.59h15.78c2.09 0 3.79 1.7 3.79 3.8Zm15.19 24.26c2.09 0 3.79-1.7 3.79-3.79s-1.7-3.79-3.79-3.79h-34.76c-2.09 0-3.79 1.7-3.79 3.79s1.7 3.79 3.79 3.79H2660Zm3.79 16.68c0 2.1-1.7 3.8-3.79 3.8h-34.76a3.796 3.796 0 0 1 0-7.59H2660c2.09 0 3.79 1.7 3.79 3.79Z" clip-rule="evenodd"/><path d="M2586.33 1075.54c0-2.1 1.7-3.79 3.79-3.79 2.1 0 3.8 1.69 3.8 3.79v54.83c0 6.28 5.09 11.38 11.37 11.38h49c2.09 0 3.79 1.69 3.79 3.79 0 2.09-1.7 3.79-3.79 3.79h-49c-10.47 0-18.96-8.49-18.96-18.96v-54.83Z"/></g></g></g><g id="Bold-M"><g id="Solid / Docs Solid_12"><g id="Shape_12" fill="#000"><path fill-rule="evenodd" d="M2369.96 1040.54c9.66 0 17.5 7.83 17.5 17.5v58.33c0 9.67-7.84 17.5-17.5 17.5h-46.67c-9.66 0-17.5-7.83-17.5-17.5v-58.33c0-9.67 7.84-17.5 17.5-17.5h46.67Zm-21.15 26.53c0 2.09-1.7 3.79-3.79 3.79h-15.78a3.796 3.796 0 0 1 0-7.59h15.78c2.09 0 3.79 1.7 3.79 3.8Zm15.19 24.26c2.09 0 3.79-1.7 3.79-3.79s-1.7-3.79-3.79-3.79h-34.76c-2.09 0-3.79 1.7-3.79 3.79s1.7 3.79 3.79 3.79H2364Zm3.79 16.68c0 2.1-1.7 3.8-3.79 3.8h-34.76a3.796 3.796 0 0 1 0-7.59H2364c2.09 0 3.79 1.7 3.79 3.79Z" clip-rule="evenodd"/><path d="M2290.33 1075.54c0-2.1 1.7-3.79 3.79-3.79 2.1 0 3.8 1.69 3.8 3.79v54.83c0 6.28 5.09 11.38 11.37 11.38h49c2.09 0 3.79 1.69 3.79 3.79 0 2.09-1.7 3.79-3.79 3.79h-49c-10.47 0-18.96-8.49-18.96-18.96v-54.83Z"/></g></g></g><g id="Semibold-M"><g id="Solid / Docs Solid_13"><g id="Shape_13" fill="#000"><path fill-rule="evenodd" d="M2073.96 1040.54c9.66 0 17.5 7.83 17.5 17.5v58.33c0 9.67-7.84 17.5-17.5 17.5h-46.67c-9.66 0-17.5-7.83-17.5-17.5v-58.33c0-9.67 7.84-17.5 17.5-17.5h46.67Zm-21.15 26.53c0 2.09-1.7 3.79-3.79 3.79h-15.78a3.796 3.796 0 0 1 0-7.59h15.78c2.09 0 3.79 1.7 3.79 3.8Zm15.19 24.26c2.09 0 3.79-1.7 3.79-3.79s-1.7-3.79-3.79-3.79h-34.76c-2.09 0-3.79 1.7-3.79 3.79s1.7 3.79 3.79 3.79H2068Zm3.79 16.68c0 2.1-1.7 3.8-3.79 3.8h-34.76a3.796 3.796 0 0 1 0-7.59H2068c2.09 0 3.79 1.7 3.79 3.79Z" clip-rule="evenodd"/><path d="M1994.33 1075.54c0-2.1 1.7-3.79 3.79-3.79 2.1 0 3.8 1.69 3.8 3.79v54.83c0 6.28 5.09 11.38 11.37 11.38h49c2.09 0 3.79 1.69 3.79 3.79 0 2.09-1.7 3.79-3.79 3.79h-49c-10.47 0-18.96-8.49-18.96-18.96v-54.83Z"/></g></g></g><g id="Medium-M"><g id="Solid / Docs Solid_14"><g id="Shape_14" fill="#000"><path fill-rule="evenodd" d="M1777.96 1040.54c9.66 0 17.5 7.83 17.5 17.5v58.33c0 9.67-7.84 17.5-17.5 17.5h-46.67c-9.66 0-17.5-7.83-17.5-17.5v-58.33c0-9.67 7.84-17.5 17.5-17.5h46.67Zm-21.15 26.53c0 2.09-1.7 3.79-3.79 3.79h-15.78a3.796 3.796 0 0 1 0-7.59h15.78c2.09 0 3.79 1.7 3.79 3.8Zm15.19 24.26c2.09 0 3.79-1.7 3.79-3.79s-1.7-3.79-3.79-3.79h-34.76c-2.09 0-3.79 1.7-3.79 3.79s1.7 3.79 3.79 3.79H1772Zm3.79 16.68c0 2.1-1.7 3.8-3.79 3.8h-34.76a3.796 3.796 0 0 1 0-7.59H1772c2.09 0 3.79 1.7 3.79 3.79Z" clip-rule="evenodd"/><path d="M1698.33 1075.54c0-2.1 1.7-3.79 3.79-3.79 2.1 0 3.8 1.69 3.8 3.79v54.83c0 6.28 5.09 11.38 11.37 11.38h49c2.09 0 3.79 1.69 3.79 3.79 0 2.09-1.7 3.79-3.79 3.79h-49c-10.47 0-18.96-8.49-18.96-18.96v-54.83Z"/></g></g></g><g id="Regular-M"><g id="Solid / Docs Solid_15"><g id="Shape_15" fill="#000"><path fill-rule="evenodd" d="M1481.96 1040.54c9.66 0 17.5 7.83 17.5 17.5v58.33c0 9.67-7.84 17.5-17.5 17.5h-46.67c-9.66 0-17.5-7.83-17.5-17.5v-58.33c0-9.67 7.84-17.5 17.5-17.5h46.67Zm-21.15 26.53c0 2.09-1.7 3.79-3.79 3.79h-15.78a3.796 3.796 0 0 1 0-7.59h15.78c2.09 0 3.79 1.7 3.79 3.8Zm15.19 24.26c2.09 0 3.79-1.7 3.79-3.79s-1.7-3.79-3.79-3.79h-34.76c-2.09 0-3.79 1.7-3.79 3.79s1.7 3.79 3.79 3.79H1476Zm3.79 16.68c0 2.1-1.7 3.8-3.79 3.8h-34.76a3.796 3.796 0 0 1 0-7.59H1476c2.09 0 3.79 1.7 3.79 3.79Z" clip-rule="evenodd"/><path d="M1402.33 1075.54c0-2.1 1.7-3.79 3.79-3.79 2.1 0 3.8 1.69 3.8 3.79v54.83c0 6.28 5.09 11.38 11.37 11.38h49c2.09 0 3.79 1.69 3.79 3.79 0 2.09-1.7 3.79-3.79 3.79h-49c-10.47 0-18.96-8.49-18.96-18.96v-54.83Z"/></g></g></g><g id="Light-M"><g id="Solid / Docs Solid_16"><g id="Shape_16" fill="#000"><path fill-rule="evenodd" d="M1185.96 1040.54c9.66 0 17.5 7.83 17.5 17.5v58.33c0 9.67-7.84 17.5-17.5 17.5h-46.67c-9.66 0-17.5-7.83-17.5-17.5v-58.33c0-9.67 7.84-17.5 17.5-17.5h46.67Zm-21.15 26.53c0 2.09-1.7 3.79-3.79 3.79h-15.78a3.796 3.796 0 0 1 0-7.59h15.78c2.09 0 3.79 1.7 3.79 3.8Zm15.19 24.26c2.09 0 3.79-1.7 3.79-3.79s-1.7-3.79-3.79-3.79h-34.76c-2.09 0-3.79 1.7-3.79 3.79s1.7 3.79 3.79 3.79H1180Zm3.79 16.68c0 2.1-1.7 3.8-3.79 3.8h-34.76a3.796 3.796 0 0 1 0-7.59H1180c2.09 0 3.79 1.7 3.79 3.79Z" clip-rule="evenodd"/><path d="M1106.33 1075.54c0-2.1 1.7-3.79 3.79-3.79 2.1 0 3.8 1.69 3.8 3.79v54.83c0 6.28 5.09 11.38 11.37 11.38h49c2.09 0 3.79 1.69 3.79 3.79 0 2.09-1.7 3.79-3.79 3.79h-49c-10.47 0-18.96-8.49-18.96-18.96v-54.83Z"/></g></g></g><g id="Thin-M"><g id="Solid / Docs Solid_17"><g id="Shape_17" fill="#000"><path fill-rule="evenodd" d="M889.957 1040.54c9.665 0 17.5 7.83 17.5 17.5v58.33c0 9.67-7.835 17.5-17.5 17.5H843.29c-9.665 0-17.5-7.83-17.5-17.5v-58.33c0-9.67 7.835-17.5 17.5-17.5h46.667Zm-21.148 26.53c0 2.09-1.698 3.79-3.792 3.79h-15.774a3.795 3.795 0 0 1 0-7.59h15.774c2.094 0 3.792 1.7 3.792 3.8Zm15.188 24.26c2.094 0 3.792-1.7 3.792-3.79s-1.698-3.79-3.792-3.79h-34.754a3.793 3.793 0 0 0-3.792 3.79c0 2.09 1.698 3.79 3.792 3.79h34.754Zm3.792 16.68c0 2.1-1.698 3.8-3.792 3.8h-34.754a3.795 3.795 0 0 1 0-7.59h34.754c2.094 0 3.792 1.7 3.792 3.79Z" clip-rule="evenodd"/><path d="M810.332 1075.54c0-2.1 1.698-3.79 3.792-3.79a3.786 3.786 0 0 1 3.791 3.79v54.83c0 6.28 5.093 11.38 11.375 11.38h49a3.787 3.787 0 0 1 3.792 3.79c0 2.09-1.698 3.79-3.792 3.79h-49c-10.47 0-18.958-8.49-18.958-18.96v-54.83Z"/></g></g></g><g id="Ultralight-M"><g id="Solid / Docs Solid_18"><g id="Shape_18" fill="#000"><path fill-rule="evenodd" d="M593.957 1040.54c9.665 0 17.5 7.83 17.5 17.5v58.33c0 9.67-7.835 17.5-17.5 17.5H547.29c-9.665 0-17.5-7.83-17.5-17.5v-58.33c0-9.67 7.835-17.5 17.5-17.5h46.667Zm-21.148 26.53c0 2.09-1.698 3.79-3.792 3.79h-15.774a3.795 3.795 0 0 1 0-7.59h15.774c2.094 0 3.792 1.7 3.792 3.8Zm15.188 24.26c2.094 0 3.792-1.7 3.792-3.79s-1.698-3.79-3.792-3.79h-34.754a3.793 3.793 0 0 0-3.792 3.79c0 2.09 1.698 3.79 3.792 3.79h34.754Zm3.792 16.68c0 2.1-1.698 3.8-3.792 3.8h-34.754a3.795 3.795 0 0 1 0-7.59h34.754c2.094 0 3.792 1.7 3.792 3.79Z" clip-rule="evenodd"/><path d="M514.332 1075.54c0-2.1 1.698-3.79 3.792-3.79a3.786 3.786 0 0 1 3.791 3.79v54.83c0 6.28 5.093 11.38 11.375 11.38h49a3.787 3.787 0 0 1 3.792 3.79c0 2.09-1.698 3.79-3.792 3.79h-49c-10.47 0-18.958-8.49-18.958-18.96v-54.83Z"/></g></g></g><g id="Black-S"><g id="Solid / Docs Solid_19"><g id="Shape_19" fill="#000"><path fill-rule="evenodd" d="M2952.54 624.957c6.91 0 12.5 5.596 12.5 12.5v41.667c0 6.903-5.59 12.5-12.5 12.5h-33.33c-6.9 0-12.5-5.597-12.5-12.5v-41.667c0-6.904 5.6-12.5 12.5-12.5h33.33Zm-15.1 18.948a2.713 2.713 0 0 1-2.71 2.708h-11.27a2.713 2.713 0 0 1-2.71-2.708 2.714 2.714 0 0 1 2.71-2.709h11.27c1.49 0 2.71 1.213 2.71 2.709Zm10.85 17.333c1.49 0 2.7-1.213 2.7-2.709a2.705 2.705 0 0 0-2.7-2.708h-24.83a2.714 2.714 0 0 0-2.71 2.708 2.714 2.714 0 0 0 2.71 2.709h24.83Zm2.7 11.916a2.704 2.704 0 0 1-2.7 2.708h-24.83a2.713 2.713 0 0 1-2.71-2.708 2.713 2.713 0 0 1 2.71-2.708h24.83c1.49 0 2.7 1.212 2.7 2.708Z" clip-rule="evenodd"/><path d="M2895.67 649.957a2.704 2.704 0 1 1 5.41 0v39.167c0 4.487 3.64 8.125 8.13 8.125h35c1.5 0 2.71 1.212 2.71 2.708a2.707 2.707 0 0 1-2.71 2.708h-35c-7.48 0-13.54-6.062-13.54-13.541v-39.167Z"/></g></g></g><g id="Heavy-S"><g id="Solid / Docs Solid_20"><g id="Shape_20" fill="#000"><path fill-rule="evenodd" d="M2656.54 624.957c6.91 0 12.5 5.596 12.5 12.5v41.667c0 6.903-5.59 12.5-12.5 12.5h-33.33c-6.9 0-12.5-5.597-12.5-12.5v-41.667c0-6.904 5.6-12.5 12.5-12.5h33.33Zm-15.1 18.948a2.713 2.713 0 0 1-2.71 2.708h-11.27a2.713 2.713 0 0 1-2.71-2.708 2.714 2.714 0 0 1 2.71-2.709h11.27c1.49 0 2.71 1.213 2.71 2.709Zm10.85 17.333c1.49 0 2.7-1.213 2.7-2.709a2.705 2.705 0 0 0-2.7-2.708h-24.83a2.714 2.714 0 0 0-2.71 2.708 2.714 2.714 0 0 0 2.71 2.709h24.83Zm2.7 11.916a2.704 2.704 0 0 1-2.7 2.708h-24.83a2.713 2.713 0 0 1-2.71-2.708 2.713 2.713 0 0 1 2.71-2.708h24.83c1.49 0 2.7 1.212 2.7 2.708Z" clip-rule="evenodd"/><path d="M2599.67 649.957a2.704 2.704 0 1 1 5.41 0v39.167c0 4.487 3.64 8.125 8.13 8.125h35c1.5 0 2.71 1.212 2.71 2.708a2.707 2.707 0 0 1-2.71 2.708h-35c-7.48 0-13.54-6.062-13.54-13.541v-39.167Z"/></g></g></g><g id="Bold-S"><g id="Solid / Docs Solid_21"><g id="Shape_21" fill="#000"><path fill-rule="evenodd" d="M2360.54 624.957c6.91 0 12.5 5.596 12.5 12.5v41.667c0 6.903-5.59 12.5-12.5 12.5h-33.33c-6.9 0-12.5-5.597-12.5-12.5v-41.667c0-6.904 5.6-12.5 12.5-12.5h33.33Zm-15.1 18.948a2.713 2.713 0 0 1-2.71 2.708h-11.27a2.713 2.713 0 0 1-2.71-2.708 2.714 2.714 0 0 1 2.71-2.709h11.27c1.49 0 2.71 1.213 2.71 2.709Zm10.85 17.333c1.49 0 2.7-1.213 2.7-2.709a2.705 2.705 0 0 0-2.7-2.708h-24.83a2.714 2.714 0 0 0-2.71 2.708 2.714 2.714 0 0 0 2.71 2.709h24.83Zm2.7 11.916a2.704 2.704 0 0 1-2.7 2.708h-24.83a2.713 2.713 0 0 1-2.71-2.708 2.713 2.713 0 0 1 2.71-2.708h24.83c1.49 0 2.7 1.212 2.7 2.708Z" clip-rule="evenodd"/><path d="M2303.67 649.957a2.704 2.704 0 1 1 5.41 0v39.167c0 4.487 3.64 8.125 8.13 8.125h35c1.5 0 2.71 1.212 2.71 2.708a2.707 2.707 0 0 1-2.71 2.708h-35c-7.48 0-13.54-6.062-13.54-13.541v-39.167Z"/></g></g></g><g id="Semibold-S"><g id="Solid / Docs Solid_22"><g id="Shape_22" fill="#000"><path fill-rule="evenodd" d="M2064.54 624.957c6.91 0 12.5 5.596 12.5 12.5v41.667c0 6.903-5.59 12.5-12.5 12.5h-33.33c-6.9 0-12.5-5.597-12.5-12.5v-41.667c0-6.904 5.6-12.5 12.5-12.5h33.33Zm-15.1 18.948a2.713 2.713 0 0 1-2.71 2.708h-11.27a2.713 2.713 0 0 1-2.71-2.708 2.714 2.714 0 0 1 2.71-2.709h11.27c1.49 0 2.71 1.213 2.71 2.709Zm10.85 17.333c1.49 0 2.7-1.213 2.7-2.709a2.705 2.705 0 0 0-2.7-2.708h-24.83a2.714 2.714 0 0 0-2.71 2.708 2.714 2.714 0 0 0 2.71 2.709h24.83Zm2.7 11.916a2.704 2.704 0 0 1-2.7 2.708h-24.83a2.713 2.713 0 0 1-2.71-2.708 2.713 2.713 0 0 1 2.71-2.708h24.83c1.49 0 2.7 1.212 2.7 2.708Z" clip-rule="evenodd"/><path d="M2007.67 649.957a2.704 2.704 0 1 1 5.41 0v39.167c0 4.487 3.64 8.125 8.13 8.125h35c1.5 0 2.71 1.212 2.71 2.708a2.707 2.707 0 0 1-2.71 2.708h-35c-7.48 0-13.54-6.062-13.54-13.541v-39.167Z"/></g></g></g><g id="Medium-S"><g id="Solid / Docs Solid_23"><g id="Shape_23" fill="#000"><path fill-rule="evenodd" d="M1768.54 624.957c6.91 0 12.5 5.596 12.5 12.5v41.667c0 6.903-5.59 12.5-12.5 12.5h-33.33c-6.9 0-12.5-5.597-12.5-12.5v-41.667c0-6.904 5.6-12.5 12.5-12.5h33.33Zm-15.1 18.948a2.713 2.713 0 0 1-2.71 2.708h-11.27a2.713 2.713 0 0 1-2.71-2.708 2.714 2.714 0 0 1 2.71-2.709h11.27c1.49 0 2.71 1.213 2.71 2.709Zm10.85 17.333c1.49 0 2.7-1.213 2.7-2.709a2.705 2.705 0 0 0-2.7-2.708h-24.83a2.714 2.714 0 0 0-2.71 2.708 2.714 2.714 0 0 0 2.71 2.709h24.83Zm2.7 11.916a2.704 2.704 0 0 1-2.7 2.708h-24.83a2.713 2.713 0 0 1-2.71-2.708 2.713 2.713 0 0 1 2.71-2.708h24.83c1.49 0 2.7 1.212 2.7 2.708Z" clip-rule="evenodd"/><path d="M1711.67 649.957a2.704 2.704 0 1 1 5.41 0v39.167c0 4.487 3.64 8.125 8.13 8.125h35c1.5 0 2.71 1.212 2.71 2.708a2.707 2.707 0 0 1-2.71 2.708h-35c-7.48 0-13.54-6.062-13.54-13.541v-39.167Z"/></g></g></g><g id="Regular-S"><g id="Solid / Docs Solid_24"><g id="Shape_24" fill="#000"><path fill-rule="evenodd" d="M1472.54 624.957c6.91 0 12.5 5.596 12.5 12.5v41.667c0 6.903-5.59 12.5-12.5 12.5h-33.33c-6.9 0-12.5-5.597-12.5-12.5v-41.667c0-6.904 5.6-12.5 12.5-12.5h33.33Zm-15.1 18.948a2.713 2.713 0 0 1-2.71 2.708h-11.27a2.713 2.713 0 0 1-2.71-2.708 2.714 2.714 0 0 1 2.71-2.709h11.27c1.49 0 2.71 1.213 2.71 2.709Zm10.85 17.333c1.49 0 2.7-1.213 2.7-2.709a2.705 2.705 0 0 0-2.7-2.708h-24.83a2.714 2.714 0 0 0-2.71 2.708 2.714 2.714 0 0 0 2.71 2.709h24.83Zm2.7 11.916a2.704 2.704 0 0 1-2.7 2.708h-24.83a2.713 2.713 0 0 1-2.71-2.708 2.713 2.713 0 0 1 2.71-2.708h24.83c1.49 0 2.7 1.212 2.7 2.708Z" clip-rule="evenodd"/><path d="M1415.67 649.957a2.704 2.704 0 1 1 5.41 0v39.167c0 4.487 3.64 8.125 8.13 8.125h35c1.5 0 2.71 1.212 2.71 2.708a2.707 2.707 0 0 1-2.71 2.708h-35c-7.48 0-13.54-6.062-13.54-13.541v-39.167Z"/></g></g></g><g id="Light-S"><g id="Solid / Docs Solid_25"><g id="Shape_25" fill="#000"><path fill-rule="evenodd" d="M1176.54 624.957c6.91 0 12.5 5.596 12.5 12.5v41.667c0 6.903-5.59 12.5-12.5 12.5h-33.33c-6.9 0-12.5-5.597-12.5-12.5v-41.667c0-6.904 5.6-12.5 12.5-12.5h33.33Zm-15.1 18.948a2.713 2.713 0 0 1-2.71 2.708h-11.27a2.713 2.713 0 0 1-2.71-2.708 2.714 2.714 0 0 1 2.71-2.709h11.27c1.49 0 2.71 1.213 2.71 2.709Zm10.85 17.333c1.49 0 2.7-1.213 2.7-2.709a2.705 2.705 0 0 0-2.7-2.708h-24.83a2.714 2.714 0 0 0-2.71 2.708 2.714 2.714 0 0 0 2.71 2.709h24.83Zm2.7 11.916a2.704 2.704 0 0 1-2.7 2.708h-24.83a2.713 2.713 0 0 1-2.71-2.708 2.713 2.713 0 0 1 2.71-2.708h24.83c1.49 0 2.7 1.212 2.7 2.708Z" clip-rule="evenodd"/><path d="M1119.67 649.957a2.704 2.704 0 1 1 5.41 0v39.167c0 4.487 3.64 8.125 8.13 8.125h35c1.5 0 2.71 1.212 2.71 2.708a2.707 2.707 0 0 1-2.71 2.708h-35c-7.48 0-13.54-6.062-13.54-13.541v-39.167Z"/></g></g></g><g id="Thin-S"><g id="Solid / Docs Solid_26"><g id="Shape_26" fill="#000"><path fill-rule="evenodd" d="M880.543 624.957c6.904 0 12.5 5.596 12.5 12.5v41.667c0 6.903-5.596 12.5-12.5 12.5H847.21c-6.904 0-12.5-5.597-12.5-12.5v-41.667c0-6.904 5.596-12.5 12.5-12.5h33.333Zm-15.106 18.948a2.707 2.707 0 0 1-2.708 2.708h-11.268a2.708 2.708 0 0 1 0-5.417h11.268a2.708 2.708 0 0 1 2.708 2.709Zm10.849 17.333a2.708 2.708 0 0 0 0-5.417h-24.825a2.709 2.709 0 0 0 0 5.417h24.825Zm2.708 11.916a2.707 2.707 0 0 1-2.708 2.708h-24.825a2.708 2.708 0 0 1 0-5.416h24.825a2.707 2.707 0 0 1 2.708 2.708Z" clip-rule="evenodd"/><path d="M823.668 649.957a2.708 2.708 0 0 1 5.417 0v39.167a8.125 8.125 0 0 0 8.125 8.125h35a2.708 2.708 0 0 1 0 5.416h-35c-7.479 0-13.542-6.062-13.542-13.541v-39.167Z"/></g></g></g><g id="Ultralight-S"><g id="Solid / Docs Solid_27"><g id="Shape_27" fill="#000"><path fill-rule="evenodd" d="M584.543 624.957c6.904 0 12.5 5.596 12.5 12.5v41.667c0 6.903-5.596 12.5-12.5 12.5H551.21c-6.904 0-12.5-5.597-12.5-12.5v-41.667c0-6.904 5.596-12.5 12.5-12.5h33.333Zm-15.106 18.948a2.707 2.707 0 0 1-2.708 2.708h-11.268a2.708 2.708 0 0 1 0-5.417h11.268a2.708 2.708 0 0 1 2.708 2.709Zm10.849 17.333a2.708 2.708 0 0 0 0-5.417h-24.825a2.709 2.709 0 0 0 0 5.417h24.825Zm2.708 11.916a2.707 2.707 0 0 1-2.708 2.708h-24.825a2.708 2.708 0 0 1 0-5.416h24.825a2.707 2.707 0 0 1 2.708 2.708Z" clip-rule="evenodd"/><path d="M527.668 649.957a2.708 2.708 0 0 1 5.417 0v39.167a8.125 8.125 0 0 0 8.125 8.125h35a2.708 2.708 0 0 1 0 5.416h-35c-7.479 0-13.542-6.062-13.542-13.541v-39.167Z"/></g></g></g></g></g><defs><clipPath id="clip0_0_1"><path fill="#fff" d="M0 0h3300v2200H0z"/></clipPath></defs></svg>