<svg width="3300" height="2200" viewBox="0 0 3300 2200" fill="none" xmlns="http://www.w3.org/2000/svg">
<rect width="3300" height="2200" fill="#E5E5E5"/>
<g id="Documents / Solid / Catalog" clip-path="url(#clip0_0_1)">
<g id="Notes">
<path id="artboard" d="M3300 0H0V2200H3300V0Z" fill="white"/>
<path id="Vector" d="M263 292H3036" stroke="black" stroke-width="0.5"/>
<text id="Weight/Scale Variations" fill="black" xml:space="preserve" style="white-space: pre" font-family="Roboto" font-size="12" letter-spacing="0em"><tspan x="263" y="321.102">Weight/Scale Variations</tspan></text>
<text id="Ultralight" fill="black" xml:space="preserve" style="white-space: pre" font-family="Roboto" font-size="12" letter-spacing="0em"><tspan x="535.211" y="321.102">Ultralight</tspan></text>
<text id="Thin" fill="black" xml:space="preserve" style="white-space: pre" font-family="Roboto" font-size="12" letter-spacing="0em"><tspan x="844.422" y="321.102">Thin</tspan></text>
<text id="Light" fill="black" xml:space="preserve" style="white-space: pre" font-family="Roboto" font-size="12" letter-spacing="0em"><tspan x="1139.63" y="321.102">Light</tspan></text>
<text id="Regular" fill="black" xml:space="preserve" style="white-space: pre" font-family="Roboto" font-size="12" letter-spacing="0em"><tspan x="1429.34" y="321.102">Regular</tspan></text>
<text id="Medium" fill="black" xml:space="preserve" style="white-space: pre" font-family="Roboto" font-size="12" letter-spacing="0em"><tspan x="1724.56" y="321.102">Medium</tspan></text>
<text id="Semibold" fill="black" xml:space="preserve" style="white-space: pre" font-family="Roboto" font-size="12" letter-spacing="0em"><tspan x="2017.77" y="321.102">Semibold</tspan></text>
<text id="Bold" fill="black" xml:space="preserve" style="white-space: pre" font-family="Roboto" font-size="12" letter-spacing="0em"><tspan x="2327.48" y="321.102">Bold</tspan></text>
<text id="Heavy" fill="black" xml:space="preserve" style="white-space: pre" font-family="Roboto" font-size="12" letter-spacing="0em"><tspan x="2620.19" y="321.102">Heavy</tspan></text>
<text id="Black" fill="black" xml:space="preserve" style="white-space: pre" font-family="Roboto" font-size="12" letter-spacing="0em"><tspan x="2918.4" y="321.102">Black</tspan></text>
<path id="Vector_2" d="M263 1903H3036" stroke="black" stroke-width="0.5"/>
<g id="Group">
<path id="Vector_3" d="M272.248 1933.83C276.555 1933.83 280.139 1930.26 280.139 1925.95C280.139 1921.64 276.545 1918.07 272.238 1918.07C267.941 1918.07 264.367 1921.64 264.367 1925.95C264.367 1930.26 267.951 1933.83 272.248 1933.83ZM272.248 1932.35C268.703 1932.35 265.871 1929.5 265.871 1925.95C265.871 1922.39 268.693 1919.55 272.238 1919.55C275.793 1919.55 278.635 1922.39 278.644 1925.95C278.654 1929.5 275.803 1932.35 272.248 1932.35ZM272.229 1929.57C272.697 1929.57 272.971 1929.26 272.971 1928.74V1926.68H275.197C275.695 1926.68 276.037 1926.43 276.037 1925.96C276.037 1925.48 275.715 1925.22 275.197 1925.22H272.971V1922.99C272.971 1922.47 272.697 1922.15 272.229 1922.15C271.76 1922.15 271.506 1922.49 271.506 1922.99V1925.22H269.299C268.781 1925.22 268.449 1925.48 268.449 1925.96C268.449 1926.43 268.801 1926.68 269.299 1926.68H271.506V1928.74C271.506 1929.24 271.76 1929.57 272.229 1929.57Z" fill="black"/>
</g>
<g id="Group_2">
<path id="Vector_4" d="M293.215 1935.91C298.664 1935.91 303.176 1931.4 303.176 1925.95C303.176 1920.51 298.654 1915.99 293.205 1915.99C287.766 1915.99 283.254 1920.51 283.254 1925.95C283.254 1931.4 287.775 1935.91 293.215 1935.91ZM293.215 1934.25C288.605 1934.25 284.924 1930.56 284.924 1925.95C284.924 1921.35 288.596 1917.65 293.205 1917.65C297.814 1917.65 301.506 1921.35 301.516 1925.95C301.525 1930.56 297.824 1934.25 293.215 1934.25ZM293.195 1930.59C293.713 1930.59 294.025 1930.23 294.025 1929.66V1926.77H297.082C297.629 1926.77 298.01 1926.49 298.01 1925.97C298.01 1925.44 297.648 1925.14 297.082 1925.14H294.025V1922.07C294.025 1921.5 293.713 1921.14 293.195 1921.14C292.678 1921.14 292.385 1921.52 292.385 1922.07V1925.14H289.338C288.771 1925.14 288.4 1925.44 288.4 1925.97C288.4 1926.49 288.791 1926.77 289.338 1926.77H292.385V1929.66C292.385 1930.21 292.678 1930.59 293.195 1930.59Z" fill="black"/>
</g>
<g id="Group_3">
<path id="Vector_5" d="M319.895 1938.67C326.857 1938.67 332.619 1932.92 332.619 1925.96C332.619 1919 326.848 1913.24 319.885 1913.24C312.932 1913.24 307.18 1919 307.18 1925.96C307.18 1932.92 312.941 1938.67 319.895 1938.67ZM319.895 1936.86C313.859 1936.86 309.006 1931.99 309.006 1925.96C309.006 1919.92 313.85 1915.06 319.885 1915.06C325.93 1915.06 330.783 1919.92 330.793 1925.96C330.803 1931.99 325.939 1936.86 319.895 1936.86ZM319.875 1931.94C320.441 1931.94 320.793 1931.54 320.793 1930.94V1926.87H325.031C325.617 1926.87 326.037 1926.54 326.037 1925.98C326.037 1925.4 325.647 1925.06 325.031 1925.06H320.793V1920.81C320.793 1920.2 320.441 1919.81 319.875 1919.81C319.309 1919.81 318.986 1920.22 318.986 1920.81V1925.06H314.758C314.143 1925.06 313.732 1925.4 313.732 1925.98C313.732 1926.54 314.162 1926.87 314.758 1926.87H318.986V1930.94C318.986 1931.53 319.309 1931.94 319.875 1931.94Z" fill="black"/>
</g>
<text id="Design Variations" fill="black" xml:space="preserve" style="white-space: pre" font-family="Roboto" font-size="12" letter-spacing="0em"><tspan x="263" y="1952.1">Design Variations</tspan></text>
<text id="Symbols are supported in up to nine weights and three scales." fill="black" xml:space="preserve" style="white-space: pre" font-family="Roboto" font-size="12" letter-spacing="0em"><tspan x="263" y="1970.1">Symbols are supported in up to nine weights and three scales.</tspan></text>
<text id="For optimal layout with text and other symbols, vertically align" fill="black" xml:space="preserve" style="white-space: pre" font-family="Roboto" font-size="12" letter-spacing="0em"><tspan x="263" y="1988.1">For optimal layout with text and other symbols, vertically align</tspan></text>
<text id="symbols with the adjacent text." fill="black" xml:space="preserve" style="white-space: pre" font-family="Roboto" font-size="12" letter-spacing="0em"><tspan x="263" y="2006.1">symbols with the adjacent text.</tspan></text>
<path id="Vector_6" opacity="0.4" d="M779 1919H776V1933H779V1919Z" fill="#00AEEF"/>
<g id="Group_4">
<path id="Vector_7" d="M789.525 1933H791.371L786.176 1918.91H784.437L779.242 1933H781.088L782.504 1928.97H788.109L789.525 1933ZM785.277 1921.05H785.336L787.592 1927.47H783.021L785.277 1921.05Z" fill="black"/>
</g>
<path id="Vector_8" opacity="0.4" d="M794.617 1919H791.617V1933H794.617V1919Z" fill="#00AEEF"/>
<text id="Margins" fill="black" xml:space="preserve" style="white-space: pre" font-family="Roboto" font-size="12" letter-spacing="0em"><tspan x="776" y="1952.1">Margins</tspan></text>
<text id="Leading and trailing margins on the left and right side of each symbol" fill="black" xml:space="preserve" style="white-space: pre" font-family="Roboto" font-size="12" letter-spacing="0em"><tspan x="776" y="1970.1">Leading and trailing margins on the left and right side of each symbol</tspan></text>
<text id="can be adjusted by modifying the width of the blue rectangles." fill="black" xml:space="preserve" style="white-space: pre" font-family="Roboto" font-size="12" letter-spacing="0em"><tspan x="776" y="1988.1">can be adjusted by modifying the width of the blue rectangles.</tspan></text>
<text id="Modifications are automatically applied proportionally to all" fill="black" xml:space="preserve" style="white-space: pre" font-family="Roboto" font-size="12" letter-spacing="0em"><tspan x="776" y="2006.1">Modifications are automatically applied proportionally to all</tspan></text>
<text id="scales and weights." fill="black" xml:space="preserve" style="white-space: pre" font-family="Roboto" font-size="12" letter-spacing="0em"><tspan x="776" y="2024.1">scales and weights.</tspan></text>
<g id="Group_5">
<path id="Vector_9" d="M1291.83 1936.12L1293.37 1937.66C1294.22 1938.49 1295.19 1938.42 1296.06 1937.46L1306.27 1926.34C1306.7 1926.63 1307.1 1926.62 1307.56 1926.53L1308.61 1926.31L1309.3 1927L1309.25 1927.52C1309.19 1928.05 1309.35 1928.47 1309.85 1928.97L1310.66 1929.78C1311.17 1930.29 1311.82 1930.31 1312.3 1929.84L1315.55 1926.58C1316.03 1926.11 1316.01 1925.45 1315.5 1924.94L1314.68 1924.12C1314.19 1923.62 1313.77 1923.45 1313.24 1923.53L1312.71 1923.59L1312.06 1922.92L1312.34 1921.78C1312.49 1921.21 1312.34 1920.74 1311.71 1920.14L1309.3 1917.75C1305.76 1914.22 1301.23 1914.33 1298.11 1917.46C1297.69 1917.89 1297.64 1918.48 1297.92 1918.91C1298.15 1919.28 1298.63 1919.5 1299.27 1919.34C1300.79 1918.96 1302.3 1919.07 1303.78 1920.08L1303.16 1921.66C1302.93 1922.25 1302.94 1922.73 1303.18 1923.17L1292.02 1933.44C1291.08 1934.31 1290.97 1935.26 1291.83 1936.12ZM1299.67 1917.85C1302.34 1915.86 1305.65 1916.17 1308.05 1918.59L1310.68 1921.19C1310.91 1921.43 1310.94 1921.61 1310.88 1921.91L1310.5 1923.47L1312.08 1925.04L1313.04 1924.95C1313.33 1924.92 1313.41 1924.94 1313.64 1925.17L1314.26 1925.79L1311.51 1928.54L1310.88 1927.92C1310.66 1927.7 1310.64 1927.6 1310.67 1927.32L1310.76 1926.36L1309.19 1924.8L1307.57 1925.11C1307.29 1925.17 1307.14 1925.17 1306.91 1924.92L1304.73 1922.75C1304.51 1922.51 1304.48 1922.37 1304.61 1922.05L1305.55 1919.78C1303.95 1918.24 1301.84 1917.39 1299.8 1918.05C1299.71 1918.08 1299.64 1918.06 1299.61 1918.02C1299.59 1917.97 1299.59 1917.92 1299.67 1917.85ZM1293.1 1935.41C1292.61 1934.91 1292.79 1934.61 1293.12 1934.31L1304.08 1924.19L1305.31 1925.42L1295.15 1936.35C1294.85 1936.68 1294.47 1936.78 1294.07 1936.38L1293.1 1935.41Z" fill="black"/>
</g>
<text id="Exporting" fill="black" xml:space="preserve" style="white-space: pre" font-family="Roboto" font-size="12" letter-spacing="0em"><tspan x="1289" y="1952.1">Exporting</tspan></text>
<text id="Symbols should be outlined when exporting to ensure the" fill="black" xml:space="preserve" style="white-space: pre" font-family="Roboto" font-size="12" letter-spacing="0em"><tspan x="1289" y="1970.1">Symbols should be outlined when exporting to ensure the</tspan></text>
<text id="design is preserved when submitting to Xcode." fill="black" xml:space="preserve" style="white-space: pre" font-family="Roboto" font-size="12" letter-spacing="0em"><tspan x="1289" y="1988.1">design is preserved when submitting to Xcode.</tspan></text>
<text id="template-version" fill="black" xml:space="preserve" style="white-space: pre" font-family="Roboto" font-size="12" letter-spacing="0em"><tspan x="2958" y="1932.1">Template v.1.0</tspan></text>
<text id="Generated from pencil.circle" fill="black" xml:space="preserve" style="white-space: pre" font-family="Roboto" font-size="12" letter-spacing="0em"><tspan x="2885" y="1950.1">Generated from pencil.circle</tspan></text>
<text id="Typeset at 100 points" fill="black" xml:space="preserve" style="white-space: pre" font-family="Roboto" font-size="12" letter-spacing="0em"><tspan x="2921" y="1968.1">Typeset at 100 points</tspan></text>
<text id="Small" fill="black" xml:space="preserve" style="white-space: pre" font-family="Roboto" font-size="12" letter-spacing="0em"><tspan x="263" y="725.102">Small</tspan></text>
<text id="Medium_2" fill="black" xml:space="preserve" style="white-space: pre" font-family="Roboto" font-size="12" letter-spacing="0em"><tspan x="263" y="1155.1">Medium</tspan></text>
<text id="Large" fill="black" xml:space="preserve" style="white-space: pre" font-family="Roboto" font-size="12" letter-spacing="0em"><tspan x="263" y="1585.1">Large</tspan></text>
</g>
<g id="Guides">
<g id="H-reference">
<path id="Vector_10" d="M393.932 696H396.666L369.566 625.541H367.076L339.977 696H342.662L351.94 671.537H384.703L393.932 696ZM368.199 628.91H368.443L383.824 669.291H352.818L368.199 628.91Z" fill="#27AAE1"/>
</g>
<path id="Baseline-S" d="M263 696H3036" stroke="#27AAE1" stroke-width="0.577"/>
<path id="Capline-S" d="M263 626H3036" stroke="#27AAE1" stroke-width="0.577"/>
<g id="H-reference_2">
<path id="Vector_11" d="M393.932 1126H396.666L369.566 1055.54H367.076L339.977 1126H342.662L351.94 1101.54H384.703L393.932 1126ZM368.199 1058.91H368.443L383.824 1099.29H352.818L368.199 1058.91Z" fill="#27AAE1"/>
</g>
<path id="Baseline-M" d="M263 1126H3036" stroke="#27AAE1" stroke-width="0.577"/>
<path id="Capline-M" d="M263 1056H3036" stroke="#27AAE1" stroke-width="0.577"/>
<g id="H-reference_3">
<path id="Vector_12" d="M393.932 1556H396.666L369.566 1485.54H367.076L339.977 1556H342.662L351.94 1531.54H384.703L393.932 1556ZM368.199 1488.91H368.443L383.824 1529.29H352.818L368.199 1488.91Z" fill="#27AAE1"/>
</g>
<g id="Group 1">
<path id="Baseline-L" d="M263 1556H3036" stroke="#27AAE1" stroke-width="0.577"/>
<path id="Capline-L" d="M263 1486H3036" stroke="#27AAE1" stroke-width="0.577"/>
</g>
<path id="left-margin" opacity="0.4" d="M1402.04 1030.79H1393.3V1150.13H1402.04V1030.79Z" fill="#00AEEF"/>
<path id="right-margin" opacity="0.4" d="M1511.39 1030.79H1502.65V1150.13H1511.39V1030.79Z" fill="#00AEEF"/>
</g>
<g id="Symbols">
<g id="Black-L">
<g id="Solid / Catalog Solid">
<path id="Shape" fill-rule="evenodd" clip-rule="evenodd" d="M2991.93 1487.44C2998.21 1487.44 2998.21 1497.19 2991.93 1497.19H2981.5V1545H2991.93C2994.62 1545 2996.8 1547.18 2996.8 1549.88C2996.8 1552.57 2994.62 1554.75 2991.93 1554.75H2981.5V1566C2981.5 1578.38 2971.45 1588.5 2959 1588.5H2891.5C2879.05 1588.5 2869 1578.45 2869 1566V1476.26C2869 1463.81 2879.05 1453.76 2891.5 1453.76H2959C2971.45 1453.76 2981.5 1463.81 2981.5 1476.26V1487.44H2991.93ZM2902.75 1500.2C2906.89 1500.2 2910.25 1496.84 2910.25 1492.7C2910.25 1488.56 2906.89 1485.2 2902.75 1485.2C2898.61 1485.2 2895.25 1488.56 2895.25 1492.7C2895.25 1496.84 2898.61 1500.2 2902.75 1500.2ZM2949.4 1497.58C2952.09 1497.58 2954.28 1495.4 2954.28 1492.7C2954.28 1490.01 2952.09 1487.83 2949.4 1487.83H2925.25C2922.56 1487.83 2920.38 1490.01 2920.38 1492.7C2920.38 1495.4 2922.56 1497.58 2925.25 1497.58H2949.4ZM2954.36 1521C2954.36 1523.69 2952.17 1525.88 2949.48 1525.88H2925.33C2922.64 1525.88 2920.46 1523.69 2920.46 1521C2920.46 1518.31 2922.64 1516.13 2925.33 1516.13H2949.48C2952.17 1516.13 2954.36 1518.31 2954.36 1521ZM2949.4 1554.6C2952.09 1554.6 2954.28 1552.41 2954.28 1549.72C2954.28 1547.03 2952.09 1544.85 2949.4 1544.85L2925.25 1544.85C2922.56 1544.85 2920.38 1547.03 2920.38 1549.72C2920.38 1552.41 2922.56 1554.6 2925.25 1554.6H2949.4ZM2910.44 1521C2910.44 1525.14 2907.09 1528.5 2902.94 1528.5C2898.8 1528.5 2895.44 1525.14 2895.44 1521C2895.44 1516.86 2898.8 1513.5 2902.94 1513.5C2907.09 1513.5 2910.44 1516.86 2910.44 1521ZM2910.44 1549.52C2910.44 1553.66 2907.09 1557.02 2902.94 1557.02C2898.8 1557.02 2895.44 1553.66 2895.44 1549.52C2895.44 1545.38 2898.8 1542.02 2902.94 1542.02C2907.09 1542.02 2910.44 1545.38 2910.44 1549.52Z" fill="black"/>
</g>
</g>
<g id="Heavy-L">
<g id="Solid / Catalog Solid_2">
<path id="Shape_2" fill-rule="evenodd" clip-rule="evenodd" d="M2695.93 1487.44C2702.21 1487.44 2702.21 1497.19 2695.93 1497.19H2685.5V1545H2695.93C2698.62 1545 2700.8 1547.18 2700.8 1549.88C2700.8 1552.57 2698.62 1554.75 2695.93 1554.75H2685.5V1566C2685.5 1578.38 2675.45 1588.5 2663 1588.5H2595.5C2583.05 1588.5 2573 1578.45 2573 1566V1476.26C2573 1463.81 2583.05 1453.76 2595.5 1453.76H2663C2675.45 1453.76 2685.5 1463.81 2685.5 1476.26V1487.44H2695.93ZM2606.75 1500.2C2610.89 1500.2 2614.25 1496.84 2614.25 1492.7C2614.25 1488.56 2610.89 1485.2 2606.75 1485.2C2602.61 1485.2 2599.25 1488.56 2599.25 1492.7C2599.25 1496.84 2602.61 1500.2 2606.75 1500.2ZM2653.4 1497.58C2656.09 1497.58 2658.28 1495.4 2658.28 1492.7C2658.28 1490.01 2656.09 1487.83 2653.4 1487.83H2629.25C2626.56 1487.83 2624.38 1490.01 2624.38 1492.7C2624.38 1495.4 2626.56 1497.58 2629.25 1497.58H2653.4ZM2658.36 1521C2658.36 1523.69 2656.17 1525.88 2653.48 1525.88H2629.33C2626.64 1525.88 2624.46 1523.69 2624.46 1521C2624.46 1518.31 2626.64 1516.13 2629.33 1516.13H2653.48C2656.17 1516.13 2658.36 1518.31 2658.36 1521ZM2653.4 1554.6C2656.09 1554.6 2658.28 1552.41 2658.28 1549.72C2658.28 1547.03 2656.09 1544.85 2653.4 1544.85L2629.25 1544.85C2626.56 1544.85 2624.38 1547.03 2624.38 1549.72C2624.38 1552.41 2626.56 1554.6 2629.25 1554.6H2653.4ZM2614.44 1521C2614.44 1525.14 2611.09 1528.5 2606.94 1528.5C2602.8 1528.5 2599.44 1525.14 2599.44 1521C2599.44 1516.86 2602.8 1513.5 2606.94 1513.5C2611.09 1513.5 2614.44 1516.86 2614.44 1521ZM2614.44 1549.52C2614.44 1553.66 2611.09 1557.02 2606.94 1557.02C2602.8 1557.02 2599.44 1553.66 2599.44 1549.52C2599.44 1545.38 2602.8 1542.02 2606.94 1542.02C2611.09 1542.02 2614.44 1545.38 2614.44 1549.52Z" fill="black"/>
</g>
</g>
<g id="Bold-L">
<g id="Solid / Catalog Solid_3">
<path id="Shape_3" fill-rule="evenodd" clip-rule="evenodd" d="M2399.93 1487.44C2406.21 1487.44 2406.21 1497.19 2399.93 1497.19H2389.5V1545H2399.93C2402.62 1545 2404.8 1547.18 2404.8 1549.88C2404.8 1552.57 2402.62 1554.75 2399.93 1554.75H2389.5V1566C2389.5 1578.38 2379.45 1588.5 2367 1588.5H2299.5C2287.05 1588.5 2277 1578.45 2277 1566V1476.26C2277 1463.81 2287.05 1453.76 2299.5 1453.76H2367C2379.45 1453.76 2389.5 1463.81 2389.5 1476.26V1487.44H2399.93ZM2310.75 1500.2C2314.89 1500.2 2318.25 1496.84 2318.25 1492.7C2318.25 1488.56 2314.89 1485.2 2310.75 1485.2C2306.61 1485.2 2303.25 1488.56 2303.25 1492.7C2303.25 1496.84 2306.61 1500.2 2310.75 1500.2ZM2357.4 1497.58C2360.09 1497.58 2362.28 1495.4 2362.28 1492.7C2362.28 1490.01 2360.09 1487.83 2357.4 1487.83H2333.25C2330.56 1487.83 2328.38 1490.01 2328.38 1492.7C2328.38 1495.4 2330.56 1497.58 2333.25 1497.58H2357.4ZM2362.36 1521C2362.36 1523.69 2360.17 1525.88 2357.48 1525.88H2333.33C2330.64 1525.88 2328.46 1523.69 2328.46 1521C2328.46 1518.31 2330.64 1516.13 2333.33 1516.13H2357.48C2360.17 1516.13 2362.36 1518.31 2362.36 1521ZM2357.4 1554.6C2360.09 1554.6 2362.28 1552.41 2362.28 1549.72C2362.28 1547.03 2360.09 1544.85 2357.4 1544.85L2333.25 1544.85C2330.56 1544.85 2328.38 1547.03 2328.38 1549.72C2328.38 1552.41 2330.56 1554.6 2333.25 1554.6H2357.4ZM2318.44 1521C2318.44 1525.14 2315.09 1528.5 2310.94 1528.5C2306.8 1528.5 2303.44 1525.14 2303.44 1521C2303.44 1516.86 2306.8 1513.5 2310.94 1513.5C2315.09 1513.5 2318.44 1516.86 2318.44 1521ZM2318.44 1549.52C2318.44 1553.66 2315.09 1557.02 2310.94 1557.02C2306.8 1557.02 2303.44 1553.66 2303.44 1549.52C2303.44 1545.38 2306.8 1542.02 2310.94 1542.02C2315.09 1542.02 2318.44 1545.38 2318.44 1549.52Z" fill="black"/>
</g>
</g>
<g id="Semibold-L">
<g id="Solid / Catalog Solid_4">
<path id="Shape_4" fill-rule="evenodd" clip-rule="evenodd" d="M2103.93 1487.44C2110.21 1487.44 2110.21 1497.19 2103.93 1497.19H2093.5V1545H2103.93C2106.62 1545 2108.8 1547.18 2108.8 1549.88C2108.8 1552.57 2106.62 1554.75 2103.93 1554.75H2093.5V1566C2093.5 1578.38 2083.45 1588.5 2071 1588.5H2003.5C1991.05 1588.5 1981 1578.45 1981 1566V1476.26C1981 1463.81 1991.05 1453.76 2003.5 1453.76H2071C2083.45 1453.76 2093.5 1463.81 2093.5 1476.26V1487.44H2103.93ZM2014.75 1500.2C2018.89 1500.2 2022.25 1496.84 2022.25 1492.7C2022.25 1488.56 2018.89 1485.2 2014.75 1485.2C2010.61 1485.2 2007.25 1488.56 2007.25 1492.7C2007.25 1496.84 2010.61 1500.2 2014.75 1500.2ZM2061.4 1497.58C2064.09 1497.58 2066.28 1495.4 2066.28 1492.7C2066.28 1490.01 2064.09 1487.83 2061.4 1487.83H2037.25C2034.56 1487.83 2032.38 1490.01 2032.38 1492.7C2032.38 1495.4 2034.56 1497.58 2037.25 1497.58H2061.4ZM2066.36 1521C2066.36 1523.69 2064.17 1525.88 2061.48 1525.88H2037.33C2034.64 1525.88 2032.46 1523.69 2032.46 1521C2032.46 1518.31 2034.64 1516.13 2037.33 1516.13H2061.48C2064.17 1516.13 2066.36 1518.31 2066.36 1521ZM2061.4 1554.6C2064.09 1554.6 2066.28 1552.41 2066.28 1549.72C2066.28 1547.03 2064.09 1544.85 2061.4 1544.85L2037.25 1544.85C2034.56 1544.85 2032.38 1547.03 2032.38 1549.72C2032.38 1552.41 2034.56 1554.6 2037.25 1554.6H2061.4ZM2022.44 1521C2022.44 1525.14 2019.09 1528.5 2014.94 1528.5C2010.8 1528.5 2007.44 1525.14 2007.44 1521C2007.44 1516.86 2010.8 1513.5 2014.94 1513.5C2019.09 1513.5 2022.44 1516.86 2022.44 1521ZM2022.44 1549.52C2022.44 1553.66 2019.09 1557.02 2014.94 1557.02C2010.8 1557.02 2007.44 1553.66 2007.44 1549.52C2007.44 1545.38 2010.8 1542.02 2014.94 1542.02C2019.09 1542.02 2022.44 1545.38 2022.44 1549.52Z" fill="black"/>
</g>
</g>
<g id="Medium-L">
<g id="Solid / Catalog Solid_5">
<path id="Shape_5" fill-rule="evenodd" clip-rule="evenodd" d="M1807.93 1487.44C1814.21 1487.44 1814.21 1497.19 1807.93 1497.19H1797.5V1545H1807.93C1810.62 1545 1812.8 1547.18 1812.8 1549.88C1812.8 1552.57 1810.62 1554.75 1807.93 1554.75H1797.5V1566C1797.5 1578.38 1787.45 1588.5 1775 1588.5H1707.5C1695.05 1588.5 1685 1578.45 1685 1566V1476.26C1685 1463.81 1695.05 1453.76 1707.5 1453.76H1775C1787.45 1453.76 1797.5 1463.81 1797.5 1476.26V1487.44H1807.93ZM1718.75 1500.2C1722.89 1500.2 1726.25 1496.84 1726.25 1492.7C1726.25 1488.56 1722.89 1485.2 1718.75 1485.2C1714.61 1485.2 1711.25 1488.56 1711.25 1492.7C1711.25 1496.84 1714.61 1500.2 1718.75 1500.2ZM1765.4 1497.58C1768.09 1497.58 1770.28 1495.4 1770.28 1492.7C1770.28 1490.01 1768.09 1487.83 1765.4 1487.83H1741.25C1738.56 1487.83 1736.38 1490.01 1736.38 1492.7C1736.38 1495.4 1738.56 1497.58 1741.25 1497.58H1765.4ZM1770.36 1521C1770.36 1523.69 1768.17 1525.88 1765.48 1525.88H1741.33C1738.64 1525.88 1736.46 1523.69 1736.46 1521C1736.46 1518.31 1738.64 1516.13 1741.33 1516.13H1765.48C1768.17 1516.13 1770.36 1518.31 1770.36 1521ZM1765.4 1554.6C1768.09 1554.6 1770.28 1552.41 1770.28 1549.72C1770.28 1547.03 1768.09 1544.85 1765.4 1544.85L1741.25 1544.85C1738.56 1544.85 1736.38 1547.03 1736.38 1549.72C1736.38 1552.41 1738.56 1554.6 1741.25 1554.6H1765.4ZM1726.44 1521C1726.44 1525.14 1723.09 1528.5 1718.94 1528.5C1714.8 1528.5 1711.44 1525.14 1711.44 1521C1711.44 1516.86 1714.8 1513.5 1718.94 1513.5C1723.09 1513.5 1726.44 1516.86 1726.44 1521ZM1726.44 1549.52C1726.44 1553.66 1723.09 1557.02 1718.94 1557.02C1714.8 1557.02 1711.44 1553.66 1711.44 1549.52C1711.44 1545.38 1714.8 1542.02 1718.94 1542.02C1723.09 1542.02 1726.44 1545.38 1726.44 1549.52Z" fill="black"/>
</g>
</g>
<g id="Regular-L">
<g id="Solid / Catalog Solid_6">
<path id="Shape_6" fill-rule="evenodd" clip-rule="evenodd" d="M1511.93 1487.44C1518.21 1487.44 1518.21 1497.19 1511.93 1497.19H1501.5V1545H1511.93C1514.62 1545 1516.8 1547.18 1516.8 1549.88C1516.8 1552.57 1514.62 1554.75 1511.93 1554.75H1501.5V1566C1501.5 1578.38 1491.45 1588.5 1479 1588.5H1411.5C1399.05 1588.5 1389 1578.45 1389 1566V1476.26C1389 1463.81 1399.05 1453.76 1411.5 1453.76H1479C1491.45 1453.76 1501.5 1463.81 1501.5 1476.26V1487.44H1511.93ZM1422.75 1500.2C1426.89 1500.2 1430.25 1496.84 1430.25 1492.7C1430.25 1488.56 1426.89 1485.2 1422.75 1485.2C1418.61 1485.2 1415.25 1488.56 1415.25 1492.7C1415.25 1496.84 1418.61 1500.2 1422.75 1500.2ZM1469.4 1497.58C1472.09 1497.58 1474.28 1495.4 1474.28 1492.7C1474.28 1490.01 1472.09 1487.83 1469.4 1487.83H1445.25C1442.56 1487.83 1440.38 1490.01 1440.38 1492.7C1440.38 1495.4 1442.56 1497.58 1445.25 1497.58H1469.4ZM1474.36 1521C1474.36 1523.69 1472.17 1525.88 1469.48 1525.88H1445.33C1442.64 1525.88 1440.46 1523.69 1440.46 1521C1440.46 1518.31 1442.64 1516.13 1445.33 1516.13H1469.48C1472.17 1516.13 1474.36 1518.31 1474.36 1521ZM1469.4 1554.6C1472.09 1554.6 1474.28 1552.41 1474.28 1549.72C1474.28 1547.03 1472.09 1544.85 1469.4 1544.85L1445.25 1544.85C1442.56 1544.85 1440.38 1547.03 1440.38 1549.72C1440.38 1552.41 1442.56 1554.6 1445.25 1554.6H1469.4ZM1430.44 1521C1430.44 1525.14 1427.09 1528.5 1422.94 1528.5C1418.8 1528.5 1415.44 1525.14 1415.44 1521C1415.44 1516.86 1418.8 1513.5 1422.94 1513.5C1427.09 1513.5 1430.44 1516.86 1430.44 1521ZM1430.44 1549.52C1430.44 1553.66 1427.09 1557.02 1422.94 1557.02C1418.8 1557.02 1415.44 1553.66 1415.44 1549.52C1415.44 1545.38 1418.8 1542.02 1422.94 1542.02C1427.09 1542.02 1430.44 1545.38 1430.44 1549.52Z" fill="black"/>
</g>
</g>
<g id="Light-L">
<g id="Solid / Catalog Solid_7">
<path id="Shape_7" fill-rule="evenodd" clip-rule="evenodd" d="M1215.93 1487.44C1222.21 1487.44 1222.21 1497.19 1215.93 1497.19H1205.5V1545H1215.93C1218.62 1545 1220.8 1547.18 1220.8 1549.88C1220.8 1552.57 1218.62 1554.75 1215.93 1554.75H1205.5V1566C1205.5 1578.38 1195.45 1588.5 1183 1588.5H1115.5C1103.05 1588.5 1093 1578.45 1093 1566V1476.26C1093 1463.81 1103.05 1453.76 1115.5 1453.76H1183C1195.45 1453.76 1205.5 1463.81 1205.5 1476.26V1487.44H1215.93ZM1126.75 1500.2C1130.89 1500.2 1134.25 1496.84 1134.25 1492.7C1134.25 1488.56 1130.89 1485.2 1126.75 1485.2C1122.61 1485.2 1119.25 1488.56 1119.25 1492.7C1119.25 1496.84 1122.61 1500.2 1126.75 1500.2ZM1173.4 1497.58C1176.09 1497.58 1178.28 1495.4 1178.28 1492.7C1178.28 1490.01 1176.09 1487.83 1173.4 1487.83H1149.25C1146.56 1487.83 1144.38 1490.01 1144.38 1492.7C1144.38 1495.4 1146.56 1497.58 1149.25 1497.58H1173.4ZM1178.36 1521C1178.36 1523.69 1176.17 1525.88 1173.48 1525.88H1149.33C1146.64 1525.88 1144.46 1523.69 1144.46 1521C1144.46 1518.31 1146.64 1516.13 1149.33 1516.13H1173.48C1176.17 1516.13 1178.36 1518.31 1178.36 1521ZM1173.4 1554.6C1176.09 1554.6 1178.28 1552.41 1178.28 1549.72C1178.28 1547.03 1176.09 1544.85 1173.4 1544.85L1149.25 1544.85C1146.56 1544.85 1144.38 1547.03 1144.38 1549.72C1144.38 1552.41 1146.56 1554.6 1149.25 1554.6H1173.4ZM1134.44 1521C1134.44 1525.14 1131.09 1528.5 1126.94 1528.5C1122.8 1528.5 1119.44 1525.14 1119.44 1521C1119.44 1516.86 1122.8 1513.5 1126.94 1513.5C1131.09 1513.5 1134.44 1516.86 1134.44 1521ZM1134.44 1549.52C1134.44 1553.66 1131.09 1557.02 1126.94 1557.02C1122.8 1557.02 1119.44 1553.66 1119.44 1549.52C1119.44 1545.38 1122.8 1542.02 1126.94 1542.02C1131.09 1542.02 1134.44 1545.38 1134.44 1549.52Z" fill="black"/>
</g>
</g>
<g id="Thin-L">
<g id="Solid / Catalog Solid_8">
<path id="Shape_8" fill-rule="evenodd" clip-rule="evenodd" d="M919.925 1487.44C926.212 1487.44 926.212 1497.19 919.925 1497.19H909.5V1545H919.925C922.617 1545 924.8 1547.18 924.8 1549.88C924.8 1552.57 922.617 1554.75 919.925 1554.75H909.5V1566C909.5 1578.38 899.45 1588.5 887 1588.5H819.5C807.05 1588.5 797 1578.45 797 1566V1476.26C797 1463.81 807.05 1453.76 819.5 1453.76H887C899.45 1453.76 909.5 1463.81 909.5 1476.26V1487.44H919.925ZM830.75 1500.2C834.892 1500.2 838.25 1496.84 838.25 1492.7C838.25 1488.56 834.892 1485.2 830.75 1485.2C826.608 1485.2 823.25 1488.56 823.25 1492.7C823.25 1496.84 826.608 1500.2 830.75 1500.2ZM877.4 1497.58C880.092 1497.58 882.275 1495.4 882.275 1492.7C882.275 1490.01 880.092 1487.83 877.4 1487.83H853.25C850.558 1487.83 848.375 1490.01 848.375 1492.7C848.375 1495.4 850.558 1497.58 853.25 1497.58H877.4ZM882.356 1521C882.356 1523.69 880.174 1525.88 877.481 1525.88H853.331C850.639 1525.88 848.456 1523.69 848.456 1521C848.456 1518.31 850.639 1516.13 853.331 1516.13H877.481C880.174 1516.13 882.356 1518.31 882.356 1521ZM877.4 1554.6C880.092 1554.6 882.275 1552.41 882.275 1549.72C882.275 1547.03 880.092 1544.85 877.4 1544.85L853.25 1544.85C850.558 1544.85 848.375 1547.03 848.375 1549.72C848.375 1552.41 850.558 1554.6 853.25 1554.6H877.4ZM838.444 1521C838.444 1525.14 835.086 1528.5 830.944 1528.5C826.802 1528.5 823.444 1525.14 823.444 1521C823.444 1516.86 826.802 1513.5 830.944 1513.5C835.086 1513.5 838.444 1516.86 838.444 1521ZM838.444 1549.52C838.444 1553.66 835.086 1557.02 830.944 1557.02C826.802 1557.02 823.444 1553.66 823.444 1549.52C823.444 1545.38 826.802 1542.02 830.944 1542.02C835.086 1542.02 838.444 1545.38 838.444 1549.52Z" fill="black"/>
</g>
</g>
<g id="Ultralight-L">
<g id="Solid / Catalog Solid_9">
<path id="Shape_9" fill-rule="evenodd" clip-rule="evenodd" d="M623.925 1487.44C630.212 1487.44 630.212 1497.19 623.925 1497.19H613.5V1545H623.925C626.617 1545 628.8 1547.18 628.8 1549.88C628.8 1552.57 626.617 1554.75 623.925 1554.75H613.5V1566C613.5 1578.38 603.45 1588.5 591 1588.5H523.5C511.05 1588.5 501 1578.45 501 1566V1476.26C501 1463.81 511.05 1453.76 523.5 1453.76H591C603.45 1453.76 613.5 1463.81 613.5 1476.26V1487.44H623.925ZM534.75 1500.2C538.892 1500.2 542.25 1496.84 542.25 1492.7C542.25 1488.56 538.892 1485.2 534.75 1485.2C530.608 1485.2 527.25 1488.56 527.25 1492.7C527.25 1496.84 530.608 1500.2 534.75 1500.2ZM581.4 1497.58C584.092 1497.58 586.275 1495.4 586.275 1492.7C586.275 1490.01 584.092 1487.83 581.4 1487.83H557.25C554.558 1487.83 552.375 1490.01 552.375 1492.7C552.375 1495.4 554.558 1497.58 557.25 1497.58H581.4ZM586.356 1521C586.356 1523.69 584.174 1525.88 581.481 1525.88H557.331C554.639 1525.88 552.456 1523.69 552.456 1521C552.456 1518.31 554.639 1516.13 557.331 1516.13H581.481C584.174 1516.13 586.356 1518.31 586.356 1521ZM581.4 1554.6C584.092 1554.6 586.275 1552.41 586.275 1549.72C586.275 1547.03 584.092 1544.85 581.4 1544.85L557.25 1544.85C554.558 1544.85 552.375 1547.03 552.375 1549.72C552.375 1552.41 554.558 1554.6 557.25 1554.6H581.4ZM542.444 1521C542.444 1525.14 539.086 1528.5 534.944 1528.5C530.802 1528.5 527.444 1525.14 527.444 1521C527.444 1516.86 530.802 1513.5 534.944 1513.5C539.086 1513.5 542.444 1516.86 542.444 1521ZM542.444 1549.52C542.444 1553.66 539.086 1557.02 534.944 1557.02C530.802 1557.02 527.444 1553.66 527.444 1549.52C527.444 1545.38 530.802 1542.02 534.944 1542.02C539.086 1542.02 542.444 1545.38 542.444 1549.52Z" fill="black"/>
</g>
</g>
<g id="Black-M">
<g id="Solid / Catalog Solid_10">
<path id="Shape_10" fill-rule="evenodd" clip-rule="evenodd" d="M2977.94 1064.9C2982.83 1064.9 2982.83 1072.48 2977.94 1072.48H2969.83V1109.67H2977.94C2980.03 1109.67 2981.73 1111.37 2981.73 1113.46C2981.73 1115.55 2980.03 1117.25 2977.94 1117.25H2969.83V1126C2969.83 1135.63 2962.02 1143.5 2952.33 1143.5H2899.83C2890.15 1143.5 2882.33 1135.68 2882.33 1126V1056.21C2882.33 1046.52 2890.15 1038.71 2899.83 1038.71H2952.33C2962.02 1038.71 2969.83 1046.52 2969.83 1056.21V1064.9H2977.94ZM2908.58 1074.82C2911.8 1074.82 2914.42 1072.21 2914.42 1068.99C2914.42 1065.77 2911.8 1063.16 2908.58 1063.16C2905.36 1063.16 2902.75 1065.77 2902.75 1068.99C2902.75 1072.21 2905.36 1074.82 2908.58 1074.82ZM2944.87 1072.78C2946.96 1072.78 2948.66 1071.09 2948.66 1068.99C2948.66 1066.9 2946.96 1065.2 2944.87 1065.2H2926.08C2923.99 1065.2 2922.29 1066.9 2922.29 1068.99C2922.29 1071.09 2923.99 1072.78 2926.08 1072.78H2944.87ZM2948.72 1091C2948.72 1093.1 2947.02 1094.79 2944.93 1094.79H2926.15C2924.05 1094.79 2922.35 1093.1 2922.35 1091C2922.35 1088.91 2924.05 1087.21 2926.15 1087.21H2944.93C2947.02 1087.21 2948.72 1088.91 2948.72 1091ZM2944.87 1117.13C2946.96 1117.13 2948.66 1115.43 2948.66 1113.34C2948.66 1111.25 2946.96 1109.55 2944.87 1109.55L2926.08 1109.55C2923.99 1109.55 2922.29 1111.25 2922.29 1113.34C2922.29 1115.43 2923.99 1117.13 2926.08 1117.13H2944.87ZM2914.57 1091C2914.57 1094.22 2911.95 1096.83 2908.73 1096.83C2905.51 1096.83 2902.9 1094.22 2902.9 1091C2902.9 1087.78 2905.51 1085.17 2908.73 1085.17C2911.95 1085.17 2914.57 1087.78 2914.57 1091ZM2914.57 1113.18C2914.57 1116.4 2911.95 1119.02 2908.73 1119.02C2905.51 1119.02 2902.9 1116.4 2902.9 1113.18C2902.9 1109.96 2905.51 1107.35 2908.73 1107.35C2911.95 1107.35 2914.57 1109.96 2914.57 1113.18Z" fill="black"/>
</g>
</g>
<g id="Heavy-M">
<g id="Solid / Catalog Solid_11">
<path id="Shape_11" fill-rule="evenodd" clip-rule="evenodd" d="M2681.94 1064.9C2686.83 1064.9 2686.83 1072.48 2681.94 1072.48H2673.83V1109.67H2681.94C2684.03 1109.67 2685.73 1111.37 2685.73 1113.46C2685.73 1115.55 2684.03 1117.25 2681.94 1117.25H2673.83V1126C2673.83 1135.63 2666.02 1143.5 2656.33 1143.5H2603.83C2594.15 1143.5 2586.33 1135.68 2586.33 1126V1056.21C2586.33 1046.52 2594.15 1038.71 2603.83 1038.71H2656.33C2666.02 1038.71 2673.83 1046.52 2673.83 1056.21V1064.9H2681.94ZM2612.58 1074.82C2615.8 1074.82 2618.42 1072.21 2618.42 1068.99C2618.42 1065.77 2615.8 1063.16 2612.58 1063.16C2609.36 1063.16 2606.75 1065.77 2606.75 1068.99C2606.75 1072.21 2609.36 1074.82 2612.58 1074.82ZM2648.87 1072.78C2650.96 1072.78 2652.66 1071.09 2652.66 1068.99C2652.66 1066.9 2650.96 1065.2 2648.87 1065.2H2630.08C2627.99 1065.2 2626.29 1066.9 2626.29 1068.99C2626.29 1071.09 2627.99 1072.78 2630.08 1072.78H2648.87ZM2652.72 1091C2652.72 1093.1 2651.02 1094.79 2648.93 1094.79H2630.15C2628.05 1094.79 2626.35 1093.1 2626.35 1091C2626.35 1088.91 2628.05 1087.21 2630.15 1087.21H2648.93C2651.02 1087.21 2652.72 1088.91 2652.72 1091ZM2648.87 1117.13C2650.96 1117.13 2652.66 1115.43 2652.66 1113.34C2652.66 1111.25 2650.96 1109.55 2648.87 1109.55L2630.08 1109.55C2627.99 1109.55 2626.29 1111.25 2626.29 1113.34C2626.29 1115.43 2627.99 1117.13 2630.08 1117.13H2648.87ZM2618.57 1091C2618.57 1094.22 2615.95 1096.83 2612.73 1096.83C2609.51 1096.83 2606.9 1094.22 2606.9 1091C2606.9 1087.78 2609.51 1085.17 2612.73 1085.17C2615.95 1085.17 2618.57 1087.78 2618.57 1091ZM2618.57 1113.18C2618.57 1116.4 2615.95 1119.02 2612.73 1119.02C2609.51 1119.02 2606.9 1116.4 2606.9 1113.18C2606.9 1109.96 2609.51 1107.35 2612.73 1107.35C2615.95 1107.35 2618.57 1109.96 2618.57 1113.18Z" fill="black"/>
</g>
</g>
<g id="Bold-M">
<g id="Solid / Catalog Solid_12">
<path id="Shape_12" fill-rule="evenodd" clip-rule="evenodd" d="M2385.94 1064.9C2390.83 1064.9 2390.83 1072.48 2385.94 1072.48H2377.83V1109.67H2385.94C2388.03 1109.67 2389.73 1111.37 2389.73 1113.46C2389.73 1115.55 2388.03 1117.25 2385.94 1117.25H2377.83V1126C2377.83 1135.63 2370.02 1143.5 2360.33 1143.5H2307.83C2298.15 1143.5 2290.33 1135.68 2290.33 1126V1056.21C2290.33 1046.52 2298.15 1038.71 2307.83 1038.71H2360.33C2370.02 1038.71 2377.83 1046.52 2377.83 1056.21V1064.9H2385.94ZM2316.58 1074.82C2319.8 1074.82 2322.42 1072.21 2322.42 1068.99C2322.42 1065.77 2319.8 1063.16 2316.58 1063.16C2313.36 1063.16 2310.75 1065.77 2310.75 1068.99C2310.75 1072.21 2313.36 1074.82 2316.58 1074.82ZM2352.87 1072.78C2354.96 1072.78 2356.66 1071.09 2356.66 1068.99C2356.66 1066.9 2354.96 1065.2 2352.87 1065.2H2334.08C2331.99 1065.2 2330.29 1066.9 2330.29 1068.99C2330.29 1071.09 2331.99 1072.78 2334.08 1072.78H2352.87ZM2356.72 1091C2356.72 1093.1 2355.02 1094.79 2352.93 1094.79H2334.15C2332.05 1094.79 2330.35 1093.1 2330.35 1091C2330.35 1088.91 2332.05 1087.21 2334.15 1087.21H2352.93C2355.02 1087.21 2356.72 1088.91 2356.72 1091ZM2352.87 1117.13C2354.96 1117.13 2356.66 1115.43 2356.66 1113.34C2356.66 1111.25 2354.96 1109.55 2352.87 1109.55L2334.08 1109.55C2331.99 1109.55 2330.29 1111.25 2330.29 1113.34C2330.29 1115.43 2331.99 1117.13 2334.08 1117.13H2352.87ZM2322.57 1091C2322.57 1094.22 2319.95 1096.83 2316.73 1096.83C2313.51 1096.83 2310.9 1094.22 2310.9 1091C2310.9 1087.78 2313.51 1085.17 2316.73 1085.17C2319.95 1085.17 2322.57 1087.78 2322.57 1091ZM2322.57 1113.18C2322.57 1116.4 2319.95 1119.02 2316.73 1119.02C2313.51 1119.02 2310.9 1116.4 2310.9 1113.18C2310.9 1109.96 2313.51 1107.35 2316.73 1107.35C2319.95 1107.35 2322.57 1109.96 2322.57 1113.18Z" fill="black"/>
</g>
</g>
<g id="Semibold-M">
<g id="Solid / Catalog Solid_13">
<path id="Shape_13" fill-rule="evenodd" clip-rule="evenodd" d="M2089.94 1064.9C2094.83 1064.9 2094.83 1072.48 2089.94 1072.48H2081.83V1109.67H2089.94C2092.03 1109.67 2093.73 1111.37 2093.73 1113.46C2093.73 1115.55 2092.03 1117.25 2089.94 1117.25H2081.83V1126C2081.83 1135.63 2074.02 1143.5 2064.33 1143.5H2011.83C2002.15 1143.5 1994.33 1135.68 1994.33 1126V1056.21C1994.33 1046.52 2002.15 1038.71 2011.83 1038.71H2064.33C2074.02 1038.71 2081.83 1046.52 2081.83 1056.21V1064.9H2089.94ZM2020.58 1074.82C2023.8 1074.82 2026.42 1072.21 2026.42 1068.99C2026.42 1065.77 2023.8 1063.16 2020.58 1063.16C2017.36 1063.16 2014.75 1065.77 2014.75 1068.99C2014.75 1072.21 2017.36 1074.82 2020.58 1074.82ZM2056.87 1072.78C2058.96 1072.78 2060.66 1071.09 2060.66 1068.99C2060.66 1066.9 2058.96 1065.2 2056.87 1065.2H2038.08C2035.99 1065.2 2034.29 1066.9 2034.29 1068.99C2034.29 1071.09 2035.99 1072.78 2038.08 1072.78H2056.87ZM2060.72 1091C2060.72 1093.1 2059.02 1094.79 2056.93 1094.79H2038.15C2036.05 1094.79 2034.35 1093.1 2034.35 1091C2034.35 1088.91 2036.05 1087.21 2038.15 1087.21H2056.93C2059.02 1087.21 2060.72 1088.91 2060.72 1091ZM2056.87 1117.13C2058.96 1117.13 2060.66 1115.43 2060.66 1113.34C2060.66 1111.25 2058.96 1109.55 2056.87 1109.55L2038.08 1109.55C2035.99 1109.55 2034.29 1111.25 2034.29 1113.34C2034.29 1115.43 2035.99 1117.13 2038.08 1117.13H2056.87ZM2026.57 1091C2026.57 1094.22 2023.95 1096.83 2020.73 1096.83C2017.51 1096.83 2014.9 1094.22 2014.9 1091C2014.9 1087.78 2017.51 1085.17 2020.73 1085.17C2023.95 1085.17 2026.57 1087.78 2026.57 1091ZM2026.57 1113.18C2026.57 1116.4 2023.95 1119.02 2020.73 1119.02C2017.51 1119.02 2014.9 1116.4 2014.9 1113.18C2014.9 1109.96 2017.51 1107.35 2020.73 1107.35C2023.95 1107.35 2026.57 1109.96 2026.57 1113.18Z" fill="black"/>
</g>
</g>
<g id="Medium-M">
<g id="Solid / Catalog Solid_14">
<path id="Shape_14" fill-rule="evenodd" clip-rule="evenodd" d="M1793.94 1064.9C1798.83 1064.9 1798.83 1072.48 1793.94 1072.48H1785.83V1109.67H1793.94C1796.03 1109.67 1797.73 1111.37 1797.73 1113.46C1797.73 1115.55 1796.03 1117.25 1793.94 1117.25H1785.83V1126C1785.83 1135.63 1778.02 1143.5 1768.33 1143.5H1715.83C1706.15 1143.5 1698.33 1135.68 1698.33 1126V1056.21C1698.33 1046.52 1706.15 1038.71 1715.83 1038.71H1768.33C1778.02 1038.71 1785.83 1046.52 1785.83 1056.21V1064.9H1793.94ZM1724.58 1074.82C1727.8 1074.82 1730.42 1072.21 1730.42 1068.99C1730.42 1065.77 1727.8 1063.16 1724.58 1063.16C1721.36 1063.16 1718.75 1065.77 1718.75 1068.99C1718.75 1072.21 1721.36 1074.82 1724.58 1074.82ZM1760.87 1072.78C1762.96 1072.78 1764.66 1071.09 1764.66 1068.99C1764.66 1066.9 1762.96 1065.2 1760.87 1065.2H1742.08C1739.99 1065.2 1738.29 1066.9 1738.29 1068.99C1738.29 1071.09 1739.99 1072.78 1742.08 1072.78H1760.87ZM1764.72 1091C1764.72 1093.1 1763.02 1094.79 1760.93 1094.79H1742.15C1740.05 1094.79 1738.35 1093.1 1738.35 1091C1738.35 1088.91 1740.05 1087.21 1742.15 1087.21H1760.93C1763.02 1087.21 1764.72 1088.91 1764.72 1091ZM1760.87 1117.13C1762.96 1117.13 1764.66 1115.43 1764.66 1113.34C1764.66 1111.25 1762.96 1109.55 1760.87 1109.55L1742.08 1109.55C1739.99 1109.55 1738.29 1111.25 1738.29 1113.34C1738.29 1115.43 1739.99 1117.13 1742.08 1117.13H1760.87ZM1730.57 1091C1730.57 1094.22 1727.95 1096.83 1724.73 1096.83C1721.51 1096.83 1718.9 1094.22 1718.9 1091C1718.9 1087.78 1721.51 1085.17 1724.73 1085.17C1727.95 1085.17 1730.57 1087.78 1730.57 1091ZM1730.57 1113.18C1730.57 1116.4 1727.95 1119.02 1724.73 1119.02C1721.51 1119.02 1718.9 1116.4 1718.9 1113.18C1718.9 1109.96 1721.51 1107.35 1724.73 1107.35C1727.95 1107.35 1730.57 1109.96 1730.57 1113.18Z" fill="black"/>
</g>
</g>
<g id="Regular-M">
<g id="Solid / Catalog Solid_15">
<path id="Shape_15" fill-rule="evenodd" clip-rule="evenodd" d="M1497.94 1064.9C1502.83 1064.9 1502.83 1072.48 1497.94 1072.48H1489.83V1109.67H1497.94C1500.03 1109.67 1501.73 1111.37 1501.73 1113.46C1501.73 1115.55 1500.03 1117.25 1497.94 1117.25H1489.83V1126C1489.83 1135.63 1482.02 1143.5 1472.33 1143.5H1419.83C1410.15 1143.5 1402.33 1135.68 1402.33 1126V1056.21C1402.33 1046.52 1410.15 1038.71 1419.83 1038.71H1472.33C1482.02 1038.71 1489.83 1046.52 1489.83 1056.21V1064.9H1497.94ZM1428.58 1074.82C1431.8 1074.82 1434.42 1072.21 1434.42 1068.99C1434.42 1065.77 1431.8 1063.16 1428.58 1063.16C1425.36 1063.16 1422.75 1065.77 1422.75 1068.99C1422.75 1072.21 1425.36 1074.82 1428.58 1074.82ZM1464.87 1072.78C1466.96 1072.78 1468.66 1071.09 1468.66 1068.99C1468.66 1066.9 1466.96 1065.2 1464.87 1065.2H1446.08C1443.99 1065.2 1442.29 1066.9 1442.29 1068.99C1442.29 1071.09 1443.99 1072.78 1446.08 1072.78H1464.87ZM1468.72 1091C1468.72 1093.1 1467.02 1094.79 1464.93 1094.79H1446.15C1444.05 1094.79 1442.35 1093.1 1442.35 1091C1442.35 1088.91 1444.05 1087.21 1446.15 1087.21H1464.93C1467.02 1087.21 1468.72 1088.91 1468.72 1091ZM1464.87 1117.13C1466.96 1117.13 1468.66 1115.43 1468.66 1113.34C1468.66 1111.25 1466.96 1109.55 1464.87 1109.55L1446.08 1109.55C1443.99 1109.55 1442.29 1111.25 1442.29 1113.34C1442.29 1115.43 1443.99 1117.13 1446.08 1117.13H1464.87ZM1434.57 1091C1434.57 1094.22 1431.95 1096.83 1428.73 1096.83C1425.51 1096.83 1422.9 1094.22 1422.9 1091C1422.9 1087.78 1425.51 1085.17 1428.73 1085.17C1431.95 1085.17 1434.57 1087.78 1434.57 1091ZM1434.57 1113.18C1434.57 1116.4 1431.95 1119.02 1428.73 1119.02C1425.51 1119.02 1422.9 1116.4 1422.9 1113.18C1422.9 1109.96 1425.51 1107.35 1428.73 1107.35C1431.95 1107.35 1434.57 1109.96 1434.57 1113.18Z" fill="black"/>
</g>
</g>
<g id="Light-M">
<g id="Solid / Catalog Solid_16">
<path id="Shape_16" fill-rule="evenodd" clip-rule="evenodd" d="M1201.94 1064.9C1206.83 1064.9 1206.83 1072.48 1201.94 1072.48H1193.83V1109.67H1201.94C1204.03 1109.67 1205.73 1111.37 1205.73 1113.46C1205.73 1115.55 1204.03 1117.25 1201.94 1117.25H1193.83V1126C1193.83 1135.63 1186.02 1143.5 1176.33 1143.5H1123.83C1114.15 1143.5 1106.33 1135.68 1106.33 1126V1056.21C1106.33 1046.52 1114.15 1038.71 1123.83 1038.71H1176.33C1186.02 1038.71 1193.83 1046.52 1193.83 1056.21V1064.9H1201.94ZM1132.58 1074.82C1135.8 1074.82 1138.42 1072.21 1138.42 1068.99C1138.42 1065.77 1135.8 1063.16 1132.58 1063.16C1129.36 1063.16 1126.75 1065.77 1126.75 1068.99C1126.75 1072.21 1129.36 1074.82 1132.58 1074.82ZM1168.87 1072.78C1170.96 1072.78 1172.66 1071.09 1172.66 1068.99C1172.66 1066.9 1170.96 1065.2 1168.87 1065.2H1150.08C1147.99 1065.2 1146.29 1066.9 1146.29 1068.99C1146.29 1071.09 1147.99 1072.78 1150.08 1072.78H1168.87ZM1172.72 1091C1172.72 1093.1 1171.02 1094.79 1168.93 1094.79H1150.15C1148.05 1094.79 1146.35 1093.1 1146.35 1091C1146.35 1088.91 1148.05 1087.21 1150.15 1087.21H1168.93C1171.02 1087.21 1172.72 1088.91 1172.72 1091ZM1168.87 1117.13C1170.96 1117.13 1172.66 1115.43 1172.66 1113.34C1172.66 1111.25 1170.96 1109.55 1168.87 1109.55L1150.08 1109.55C1147.99 1109.55 1146.29 1111.25 1146.29 1113.34C1146.29 1115.43 1147.99 1117.13 1150.08 1117.13H1168.87ZM1138.57 1091C1138.57 1094.22 1135.95 1096.83 1132.73 1096.83C1129.51 1096.83 1126.9 1094.22 1126.9 1091C1126.9 1087.78 1129.51 1085.17 1132.73 1085.17C1135.95 1085.17 1138.57 1087.78 1138.57 1091ZM1138.57 1113.18C1138.57 1116.4 1135.95 1119.02 1132.73 1119.02C1129.51 1119.02 1126.9 1116.4 1126.9 1113.18C1126.9 1109.96 1129.51 1107.35 1132.73 1107.35C1135.95 1107.35 1138.57 1109.96 1138.57 1113.18Z" fill="black"/>
</g>
</g>
<g id="Thin-M">
<g id="Solid / Catalog Solid_17">
<path id="Shape_17" fill-rule="evenodd" clip-rule="evenodd" d="M905.94 1064.9C910.83 1064.9 910.83 1072.48 905.94 1072.48H897.832V1109.67H905.94C908.034 1109.67 909.732 1111.37 909.732 1113.46C909.732 1115.55 908.034 1117.25 905.94 1117.25H897.832V1126C897.832 1135.63 890.015 1143.5 880.332 1143.5H827.832C818.149 1143.5 810.332 1135.68 810.332 1126V1056.21C810.332 1046.52 818.149 1038.71 827.832 1038.71H880.332C890.015 1038.71 897.832 1046.52 897.832 1056.21V1064.9H905.94ZM836.582 1074.82C839.804 1074.82 842.415 1072.21 842.415 1068.99C842.415 1065.77 839.804 1063.16 836.582 1063.16C833.36 1063.16 830.749 1065.77 830.749 1068.99C830.749 1072.21 833.36 1074.82 836.582 1074.82ZM872.865 1072.78C874.96 1072.78 876.657 1071.09 876.657 1068.99C876.657 1066.9 874.96 1065.2 872.865 1065.2H854.082C851.988 1065.2 850.29 1066.9 850.29 1068.99C850.29 1071.09 851.988 1072.78 854.082 1072.78H872.865ZM876.72 1091C876.72 1093.1 875.023 1094.79 872.929 1094.79H854.145C852.051 1094.79 850.354 1093.1 850.354 1091C850.354 1088.91 852.051 1087.21 854.145 1087.21H872.929C875.023 1087.21 876.72 1088.91 876.72 1091ZM872.865 1117.13C874.96 1117.13 876.657 1115.43 876.657 1113.34C876.657 1111.25 874.96 1109.55 872.865 1109.55L854.082 1109.55C851.988 1109.55 850.29 1111.25 850.29 1113.34C850.29 1115.43 851.988 1117.13 854.082 1117.13H872.865ZM842.566 1091C842.566 1094.22 839.954 1096.83 836.733 1096.83C833.511 1096.83 830.9 1094.22 830.9 1091C830.9 1087.78 833.511 1085.17 836.733 1085.17C839.954 1085.17 842.566 1087.78 842.566 1091ZM842.566 1113.18C842.566 1116.4 839.954 1119.02 836.733 1119.02C833.511 1119.02 830.9 1116.4 830.9 1113.18C830.9 1109.96 833.511 1107.35 836.733 1107.35C839.954 1107.35 842.566 1109.96 842.566 1113.18Z" fill="black"/>
</g>
</g>
<g id="Ultralight-M">
<g id="Solid / Catalog Solid_18">
<path id="Shape_18" fill-rule="evenodd" clip-rule="evenodd" d="M609.94 1064.9C614.83 1064.9 614.83 1072.48 609.94 1072.48H601.832V1109.67H609.94C612.034 1109.67 613.732 1111.37 613.732 1113.46C613.732 1115.55 612.034 1117.25 609.94 1117.25H601.832V1126C601.832 1135.63 594.015 1143.5 584.332 1143.5H531.832C522.149 1143.5 514.332 1135.68 514.332 1126V1056.21C514.332 1046.52 522.149 1038.71 531.832 1038.71H584.332C594.015 1038.71 601.832 1046.52 601.832 1056.21V1064.9H609.94ZM540.582 1074.82C543.804 1074.82 546.415 1072.21 546.415 1068.99C546.415 1065.77 543.804 1063.16 540.582 1063.16C537.36 1063.16 534.749 1065.77 534.749 1068.99C534.749 1072.21 537.36 1074.82 540.582 1074.82ZM576.865 1072.78C578.96 1072.78 580.657 1071.09 580.657 1068.99C580.657 1066.9 578.96 1065.2 576.865 1065.2H558.082C555.988 1065.2 554.29 1066.9 554.29 1068.99C554.29 1071.09 555.988 1072.78 558.082 1072.78H576.865ZM580.72 1091C580.72 1093.1 579.023 1094.79 576.929 1094.79H558.145C556.051 1094.79 554.354 1093.1 554.354 1091C554.354 1088.91 556.051 1087.21 558.145 1087.21H576.929C579.023 1087.21 580.72 1088.91 580.72 1091ZM576.865 1117.13C578.96 1117.13 580.657 1115.43 580.657 1113.34C580.657 1111.25 578.96 1109.55 576.865 1109.55L558.082 1109.55C555.988 1109.55 554.29 1111.25 554.29 1113.34C554.29 1115.43 555.988 1117.13 558.082 1117.13H576.865ZM546.566 1091C546.566 1094.22 543.954 1096.83 540.733 1096.83C537.511 1096.83 534.9 1094.22 534.9 1091C534.9 1087.78 537.511 1085.17 540.733 1085.17C543.954 1085.17 546.566 1087.78 546.566 1091ZM546.566 1113.18C546.566 1116.4 543.954 1119.02 540.733 1119.02C537.511 1119.02 534.9 1116.4 534.9 1113.18C534.9 1109.96 537.511 1107.35 540.733 1107.35C543.954 1107.35 546.566 1109.96 546.566 1113.18Z" fill="black"/>
</g>
</g>
<g id="Black-S">
<g id="Solid / Catalog Solid_19">
<path id="Shape_19" fill-rule="evenodd" clip-rule="evenodd" d="M2963.96 642.355C2967.45 642.355 2967.45 647.771 2963.96 647.771H2958.17V674.334H2963.96C2965.46 674.334 2966.67 675.547 2966.67 677.042C2966.67 678.538 2965.46 679.751 2963.96 679.751H2958.17V686.001C2958.17 692.876 2952.58 698.501 2945.67 698.501H2908.17C2901.25 698.501 2895.67 692.917 2895.67 686.001V636.146C2895.67 629.23 2901.25 623.646 2908.17 623.646H2945.67C2952.58 623.646 2958.17 629.23 2958.17 636.146V642.355H2963.96ZM2914.42 649.446C2916.72 649.446 2918.58 647.58 2918.58 645.279C2918.58 642.978 2916.72 641.112 2914.42 641.112C2912.12 641.112 2910.25 642.978 2910.25 645.279C2910.25 647.58 2912.12 649.446 2914.42 649.446ZM2940.33 647.988C2941.83 647.988 2943.04 646.775 2943.04 645.279C2943.04 643.784 2941.83 642.571 2940.33 642.571H2926.92C2925.42 642.571 2924.21 643.784 2924.21 645.279C2924.21 646.775 2925.42 647.988 2926.92 647.988H2940.33ZM2943.09 661.001C2943.09 662.497 2941.88 663.709 2940.38 663.709H2926.96C2925.47 663.709 2924.25 662.497 2924.25 661.001C2924.25 659.505 2925.47 658.292 2926.96 658.292H2940.38C2941.88 658.292 2943.09 659.505 2943.09 661.001ZM2940.33 679.665C2941.83 679.665 2943.04 678.452 2943.04 676.957C2943.04 675.461 2941.83 674.248 2940.33 674.248L2926.92 674.248C2925.42 674.248 2924.21 675.461 2924.21 676.957C2924.21 678.452 2925.42 679.665 2926.92 679.665H2940.33ZM2918.69 661.001C2918.69 663.302 2916.83 665.167 2914.53 665.167C2912.22 665.167 2910.36 663.302 2910.36 661.001C2910.36 658.7 2912.22 656.834 2914.53 656.834C2916.83 656.834 2918.69 658.7 2918.69 661.001ZM2918.69 676.845C2918.69 679.146 2916.83 681.011 2914.53 681.011C2912.22 681.011 2910.36 679.146 2910.36 676.845C2910.36 674.543 2912.22 672.678 2914.53 672.678C2916.83 672.678 2918.69 674.543 2918.69 676.845Z" fill="black"/>
</g>
</g>
<g id="Heavy-S">
<g id="Solid / Catalog Solid_20">
<path id="Shape_20" fill-rule="evenodd" clip-rule="evenodd" d="M2667.96 642.355C2671.45 642.355 2671.45 647.771 2667.96 647.771H2662.17V674.334H2667.96C2669.46 674.334 2670.67 675.547 2670.67 677.042C2670.67 678.538 2669.46 679.751 2667.96 679.751H2662.17V686.001C2662.17 692.876 2656.58 698.501 2649.67 698.501H2612.17C2605.25 698.501 2599.67 692.917 2599.67 686.001V636.146C2599.67 629.23 2605.25 623.646 2612.17 623.646H2649.67C2656.58 623.646 2662.17 629.23 2662.17 636.146V642.355H2667.96ZM2618.42 649.446C2620.72 649.446 2622.58 647.58 2622.58 645.279C2622.58 642.978 2620.72 641.112 2618.42 641.112C2616.12 641.112 2614.25 642.978 2614.25 645.279C2614.25 647.58 2616.12 649.446 2618.42 649.446ZM2644.33 647.988C2645.83 647.988 2647.04 646.775 2647.04 645.279C2647.04 643.784 2645.83 642.571 2644.33 642.571H2630.92C2629.42 642.571 2628.21 643.784 2628.21 645.279C2628.21 646.775 2629.42 647.988 2630.92 647.988H2644.33ZM2647.09 661.001C2647.09 662.497 2645.88 663.709 2644.38 663.709H2630.96C2629.47 663.709 2628.25 662.497 2628.25 661.001C2628.25 659.505 2629.47 658.292 2630.96 658.292H2644.38C2645.88 658.292 2647.09 659.505 2647.09 661.001ZM2644.33 679.665C2645.83 679.665 2647.04 678.452 2647.04 676.957C2647.04 675.461 2645.83 674.248 2644.33 674.248L2630.92 674.248C2629.42 674.248 2628.21 675.461 2628.21 676.957C2628.21 678.452 2629.42 679.665 2630.92 679.665H2644.33ZM2622.69 661.001C2622.69 663.302 2620.83 665.167 2618.53 665.167C2616.22 665.167 2614.36 663.302 2614.36 661.001C2614.36 658.7 2616.22 656.834 2618.53 656.834C2620.83 656.834 2622.69 658.7 2622.69 661.001ZM2622.69 676.845C2622.69 679.146 2620.83 681.011 2618.53 681.011C2616.22 681.011 2614.36 679.146 2614.36 676.845C2614.36 674.543 2616.22 672.678 2618.53 672.678C2620.83 672.678 2622.69 674.543 2622.69 676.845Z" fill="black"/>
</g>
</g>
<g id="Bold-S">
<g id="Solid / Catalog Solid_21">
<path id="Shape_21" fill-rule="evenodd" clip-rule="evenodd" d="M2371.96 642.355C2375.45 642.355 2375.45 647.771 2371.96 647.771H2366.17V674.334H2371.96C2373.46 674.334 2374.67 675.547 2374.67 677.042C2374.67 678.538 2373.46 679.751 2371.96 679.751H2366.17V686.001C2366.17 692.876 2360.58 698.501 2353.67 698.501H2316.17C2309.25 698.501 2303.67 692.917 2303.67 686.001V636.146C2303.67 629.23 2309.25 623.646 2316.17 623.646H2353.67C2360.58 623.646 2366.17 629.23 2366.17 636.146V642.355H2371.96ZM2322.42 649.446C2324.72 649.446 2326.58 647.58 2326.58 645.279C2326.58 642.978 2324.72 641.112 2322.42 641.112C2320.12 641.112 2318.25 642.978 2318.25 645.279C2318.25 647.58 2320.12 649.446 2322.42 649.446ZM2348.33 647.988C2349.83 647.988 2351.04 646.775 2351.04 645.279C2351.04 643.784 2349.83 642.571 2348.33 642.571H2334.92C2333.42 642.571 2332.21 643.784 2332.21 645.279C2332.21 646.775 2333.42 647.988 2334.92 647.988H2348.33ZM2351.09 661.001C2351.09 662.497 2349.88 663.709 2348.38 663.709H2334.96C2333.47 663.709 2332.25 662.497 2332.25 661.001C2332.25 659.505 2333.47 658.292 2334.96 658.292H2348.38C2349.88 658.292 2351.09 659.505 2351.09 661.001ZM2348.33 679.665C2349.83 679.665 2351.04 678.452 2351.04 676.957C2351.04 675.461 2349.83 674.248 2348.33 674.248L2334.92 674.248C2333.42 674.248 2332.21 675.461 2332.21 676.957C2332.21 678.452 2333.42 679.665 2334.92 679.665H2348.33ZM2326.69 661.001C2326.69 663.302 2324.83 665.167 2322.53 665.167C2320.22 665.167 2318.36 663.302 2318.36 661.001C2318.36 658.7 2320.22 656.834 2322.53 656.834C2324.83 656.834 2326.69 658.7 2326.69 661.001ZM2326.69 676.845C2326.69 679.146 2324.83 681.011 2322.53 681.011C2320.22 681.011 2318.36 679.146 2318.36 676.845C2318.36 674.543 2320.22 672.678 2322.53 672.678C2324.83 672.678 2326.69 674.543 2326.69 676.845Z" fill="black"/>
</g>
</g>
<g id="Semibold-S">
<g id="Solid / Catalog Solid_22">
<path id="Shape_22" fill-rule="evenodd" clip-rule="evenodd" d="M2075.96 642.355C2079.45 642.355 2079.45 647.771 2075.96 647.771H2070.17V674.334H2075.96C2077.46 674.334 2078.67 675.547 2078.67 677.042C2078.67 678.538 2077.46 679.751 2075.96 679.751H2070.17V686.001C2070.17 692.876 2064.58 698.501 2057.67 698.501H2020.17C2013.25 698.501 2007.67 692.917 2007.67 686.001V636.146C2007.67 629.23 2013.25 623.646 2020.17 623.646H2057.67C2064.58 623.646 2070.17 629.23 2070.17 636.146V642.355H2075.96ZM2026.42 649.446C2028.72 649.446 2030.58 647.58 2030.58 645.279C2030.58 642.978 2028.72 641.112 2026.42 641.112C2024.12 641.112 2022.25 642.978 2022.25 645.279C2022.25 647.58 2024.12 649.446 2026.42 649.446ZM2052.33 647.988C2053.83 647.988 2055.04 646.775 2055.04 645.279C2055.04 643.784 2053.83 642.571 2052.33 642.571H2038.92C2037.42 642.571 2036.21 643.784 2036.21 645.279C2036.21 646.775 2037.42 647.988 2038.92 647.988H2052.33ZM2055.09 661.001C2055.09 662.497 2053.88 663.709 2052.38 663.709H2038.96C2037.47 663.709 2036.25 662.497 2036.25 661.001C2036.25 659.505 2037.47 658.292 2038.96 658.292H2052.38C2053.88 658.292 2055.09 659.505 2055.09 661.001ZM2052.33 679.665C2053.83 679.665 2055.04 678.452 2055.04 676.957C2055.04 675.461 2053.83 674.248 2052.33 674.248L2038.92 674.248C2037.42 674.248 2036.21 675.461 2036.21 676.957C2036.21 678.452 2037.42 679.665 2038.92 679.665H2052.33ZM2030.69 661.001C2030.69 663.302 2028.83 665.167 2026.53 665.167C2024.22 665.167 2022.36 663.302 2022.36 661.001C2022.36 658.7 2024.22 656.834 2026.53 656.834C2028.83 656.834 2030.69 658.7 2030.69 661.001ZM2030.69 676.845C2030.69 679.146 2028.83 681.011 2026.53 681.011C2024.22 681.011 2022.36 679.146 2022.36 676.845C2022.36 674.543 2024.22 672.678 2026.53 672.678C2028.83 672.678 2030.69 674.543 2030.69 676.845Z" fill="black"/>
</g>
</g>
<g id="Medium-S">
<g id="Solid / Catalog Solid_23">
<path id="Shape_23" fill-rule="evenodd" clip-rule="evenodd" d="M1779.96 642.355C1783.45 642.355 1783.45 647.771 1779.96 647.771H1774.17V674.334H1779.96C1781.46 674.334 1782.67 675.547 1782.67 677.042C1782.67 678.538 1781.46 679.751 1779.96 679.751H1774.17V686.001C1774.17 692.876 1768.58 698.501 1761.67 698.501H1724.17C1717.25 698.501 1711.67 692.917 1711.67 686.001V636.146C1711.67 629.23 1717.25 623.646 1724.17 623.646H1761.67C1768.58 623.646 1774.17 629.23 1774.17 636.146V642.355H1779.96ZM1730.42 649.446C1732.72 649.446 1734.58 647.58 1734.58 645.279C1734.58 642.978 1732.72 641.112 1730.42 641.112C1728.12 641.112 1726.25 642.978 1726.25 645.279C1726.25 647.58 1728.12 649.446 1730.42 649.446ZM1756.33 647.988C1757.83 647.988 1759.04 646.775 1759.04 645.279C1759.04 643.784 1757.83 642.571 1756.33 642.571H1742.92C1741.42 642.571 1740.21 643.784 1740.21 645.279C1740.21 646.775 1741.42 647.988 1742.92 647.988H1756.33ZM1759.09 661.001C1759.09 662.497 1757.88 663.709 1756.38 663.709H1742.96C1741.47 663.709 1740.25 662.497 1740.25 661.001C1740.25 659.505 1741.47 658.292 1742.96 658.292H1756.38C1757.88 658.292 1759.09 659.505 1759.09 661.001ZM1756.33 679.665C1757.83 679.665 1759.04 678.452 1759.04 676.957C1759.04 675.461 1757.83 674.248 1756.33 674.248L1742.92 674.248C1741.42 674.248 1740.21 675.461 1740.21 676.957C1740.21 678.452 1741.42 679.665 1742.92 679.665H1756.33ZM1734.69 661.001C1734.69 663.302 1732.83 665.167 1730.53 665.167C1728.22 665.167 1726.36 663.302 1726.36 661.001C1726.36 658.7 1728.22 656.834 1730.53 656.834C1732.83 656.834 1734.69 658.7 1734.69 661.001ZM1734.69 676.845C1734.69 679.146 1732.83 681.011 1730.53 681.011C1728.22 681.011 1726.36 679.146 1726.36 676.845C1726.36 674.543 1728.22 672.678 1730.53 672.678C1732.83 672.678 1734.69 674.543 1734.69 676.845Z" fill="black"/>
</g>
</g>
<g id="Regular-S">
<g id="Solid / Catalog Solid_24">
<path id="Shape_24" fill-rule="evenodd" clip-rule="evenodd" d="M1483.96 642.355C1487.45 642.355 1487.45 647.771 1483.96 647.771H1478.17V674.334H1483.96C1485.46 674.334 1486.67 675.547 1486.67 677.042C1486.67 678.538 1485.46 679.751 1483.96 679.751H1478.17V686.001C1478.17 692.876 1472.58 698.501 1465.67 698.501H1428.17C1421.25 698.501 1415.67 692.917 1415.67 686.001V636.146C1415.67 629.23 1421.25 623.646 1428.17 623.646H1465.67C1472.58 623.646 1478.17 629.23 1478.17 636.146V642.355H1483.96ZM1434.42 649.446C1436.72 649.446 1438.58 647.58 1438.58 645.279C1438.58 642.978 1436.72 641.112 1434.42 641.112C1432.12 641.112 1430.25 642.978 1430.25 645.279C1430.25 647.58 1432.12 649.446 1434.42 649.446ZM1460.33 647.988C1461.83 647.988 1463.04 646.775 1463.04 645.279C1463.04 643.784 1461.83 642.571 1460.33 642.571H1446.92C1445.42 642.571 1444.21 643.784 1444.21 645.279C1444.21 646.775 1445.42 647.988 1446.92 647.988H1460.33ZM1463.09 661.001C1463.09 662.497 1461.88 663.709 1460.38 663.709H1446.96C1445.47 663.709 1444.25 662.497 1444.25 661.001C1444.25 659.505 1445.47 658.292 1446.96 658.292H1460.38C1461.88 658.292 1463.09 659.505 1463.09 661.001ZM1460.33 679.665C1461.83 679.665 1463.04 678.452 1463.04 676.957C1463.04 675.461 1461.83 674.248 1460.33 674.248L1446.92 674.248C1445.42 674.248 1444.21 675.461 1444.21 676.957C1444.21 678.452 1445.42 679.665 1446.92 679.665H1460.33ZM1438.69 661.001C1438.69 663.302 1436.83 665.167 1434.53 665.167C1432.22 665.167 1430.36 663.302 1430.36 661.001C1430.36 658.7 1432.22 656.834 1434.53 656.834C1436.83 656.834 1438.69 658.7 1438.69 661.001ZM1438.69 676.845C1438.69 679.146 1436.83 681.011 1434.53 681.011C1432.22 681.011 1430.36 679.146 1430.36 676.845C1430.36 674.543 1432.22 672.678 1434.53 672.678C1436.83 672.678 1438.69 674.543 1438.69 676.845Z" fill="black"/>
</g>
</g>
<g id="Light-S">
<g id="Solid / Catalog Solid_25">
<path id="Shape_25" fill-rule="evenodd" clip-rule="evenodd" d="M1187.96 642.355C1191.45 642.355 1191.45 647.771 1187.96 647.771H1182.17V674.334H1187.96C1189.46 674.334 1190.67 675.547 1190.67 677.042C1190.67 678.538 1189.46 679.751 1187.96 679.751H1182.17V686.001C1182.17 692.876 1176.58 698.501 1169.67 698.501H1132.17C1125.25 698.501 1119.67 692.917 1119.67 686.001V636.146C1119.67 629.23 1125.25 623.646 1132.17 623.646H1169.67C1176.58 623.646 1182.17 629.23 1182.17 636.146V642.355H1187.96ZM1138.42 649.446C1140.72 649.446 1142.58 647.58 1142.58 645.279C1142.58 642.978 1140.72 641.112 1138.42 641.112C1136.12 641.112 1134.25 642.978 1134.25 645.279C1134.25 647.58 1136.12 649.446 1138.42 649.446ZM1164.33 647.988C1165.83 647.988 1167.04 646.775 1167.04 645.279C1167.04 643.784 1165.83 642.571 1164.33 642.571H1150.92C1149.42 642.571 1148.21 643.784 1148.21 645.279C1148.21 646.775 1149.42 647.988 1150.92 647.988H1164.33ZM1167.09 661.001C1167.09 662.497 1165.88 663.709 1164.38 663.709H1150.96C1149.47 663.709 1148.25 662.497 1148.25 661.001C1148.25 659.505 1149.47 658.292 1150.96 658.292H1164.38C1165.88 658.292 1167.09 659.505 1167.09 661.001ZM1164.33 679.665C1165.83 679.665 1167.04 678.452 1167.04 676.957C1167.04 675.461 1165.83 674.248 1164.33 674.248L1150.92 674.248C1149.42 674.248 1148.21 675.461 1148.21 676.957C1148.21 678.452 1149.42 679.665 1150.92 679.665H1164.33ZM1142.69 661.001C1142.69 663.302 1140.83 665.167 1138.53 665.167C1136.22 665.167 1134.36 663.302 1134.36 661.001C1134.36 658.7 1136.22 656.834 1138.53 656.834C1140.83 656.834 1142.69 658.7 1142.69 661.001ZM1142.69 676.845C1142.69 679.146 1140.83 681.011 1138.53 681.011C1136.22 681.011 1134.36 679.146 1134.36 676.845C1134.36 674.543 1136.22 672.678 1138.53 672.678C1140.83 672.678 1142.69 674.543 1142.69 676.845Z" fill="black"/>
</g>
</g>
<g id="Thin-S">
<g id="Solid / Catalog Solid_26">
<path id="Shape_26" fill-rule="evenodd" clip-rule="evenodd" d="M891.96 642.355C895.453 642.355 895.453 647.771 891.96 647.771H886.168V674.334H891.96C893.455 674.334 894.668 675.547 894.668 677.042C894.668 678.538 893.455 679.751 891.96 679.751H886.168V686.001C886.168 692.876 880.585 698.501 873.668 698.501H836.168C829.251 698.501 823.668 692.917 823.668 686.001V636.146C823.668 629.23 829.251 623.646 836.168 623.646H873.668C880.585 623.646 886.168 629.23 886.168 636.146V642.355H891.96ZM842.418 649.446C844.719 649.446 846.585 647.58 846.585 645.279C846.585 642.978 844.719 641.112 842.418 641.112C840.117 641.112 838.251 642.978 838.251 645.279C838.251 647.58 840.117 649.446 842.418 649.446ZM868.335 647.988C869.83 647.988 871.043 646.775 871.043 645.279C871.043 643.784 869.83 642.571 868.335 642.571H854.918C853.422 642.571 852.21 643.784 852.21 645.279C852.21 646.775 853.422 647.988 854.918 647.988H868.335ZM871.088 661.001C871.088 662.497 869.876 663.709 868.38 663.709H854.963C853.467 663.709 852.255 662.497 852.255 661.001C852.255 659.505 853.467 658.292 854.963 658.292H868.38C869.876 658.292 871.088 659.505 871.088 661.001ZM868.335 679.665C869.83 679.665 871.043 678.452 871.043 676.957C871.043 675.461 869.83 674.248 868.335 674.248L854.918 674.248C853.422 674.248 852.21 675.461 852.21 676.957C852.21 678.452 853.422 679.665 854.918 679.665H868.335ZM846.692 661.001C846.692 663.302 844.827 665.167 842.526 665.167C840.224 665.167 838.359 663.302 838.359 661.001C838.359 658.7 840.224 656.834 842.526 656.834C844.827 656.834 846.692 658.7 846.692 661.001ZM846.692 676.845C846.692 679.146 844.827 681.011 842.526 681.011C840.224 681.011 838.359 679.146 838.359 676.845C838.359 674.543 840.224 672.678 842.526 672.678C844.827 672.678 846.692 674.543 846.692 676.845Z" fill="black"/>
</g>
</g>
<g id="Ultralight-S">
<g id="Solid / Catalog Solid_27">
<path id="Shape_27" fill-rule="evenodd" clip-rule="evenodd" d="M595.96 642.355C599.453 642.355 599.453 647.771 595.96 647.771H590.168V674.334H595.96C597.455 674.334 598.668 675.547 598.668 677.042C598.668 678.538 597.455 679.751 595.96 679.751H590.168V686.001C590.168 692.876 584.585 698.501 577.668 698.501H540.168C533.251 698.501 527.668 692.917 527.668 686.001V636.146C527.668 629.23 533.251 623.646 540.168 623.646H577.668C584.585 623.646 590.168 629.23 590.168 636.146V642.355H595.96ZM546.418 649.446C548.719 649.446 550.585 647.58 550.585 645.279C550.585 642.978 548.719 641.112 546.418 641.112C544.117 641.112 542.251 642.978 542.251 645.279C542.251 647.58 544.117 649.446 546.418 649.446ZM572.335 647.988C573.83 647.988 575.043 646.775 575.043 645.279C575.043 643.784 573.83 642.571 572.335 642.571H558.918C557.422 642.571 556.21 643.784 556.21 645.279C556.21 646.775 557.422 647.988 558.918 647.988H572.335ZM575.088 661.001C575.088 662.497 573.876 663.709 572.38 663.709H558.963C557.467 663.709 556.255 662.497 556.255 661.001C556.255 659.505 557.467 658.292 558.963 658.292H572.38C573.876 658.292 575.088 659.505 575.088 661.001ZM572.335 679.665C573.83 679.665 575.043 678.452 575.043 676.957C575.043 675.461 573.83 674.248 572.335 674.248L558.918 674.248C557.422 674.248 556.21 675.461 556.21 676.957C556.21 678.452 557.422 679.665 558.918 679.665H572.335ZM550.692 661.001C550.692 663.302 548.827 665.167 546.526 665.167C544.224 665.167 542.359 663.302 542.359 661.001C542.359 658.7 544.224 656.834 546.526 656.834C548.827 656.834 550.692 658.7 550.692 661.001ZM550.692 676.845C550.692 679.146 548.827 681.011 546.526 681.011C544.224 681.011 542.359 679.146 542.359 676.845C542.359 674.543 544.224 672.678 546.526 672.678C548.827 672.678 550.692 674.543 550.692 676.845Z" fill="black"/>
</g>
</g>
</g>
</g>
<defs>
<clipPath id="clip0_0_1">
<rect width="3300" height="2200" fill="white"/>
</clipPath>
</defs>
</svg>
