<svg xmlns="http://www.w3.org/2000/svg" width="3300" height="2200" fill="none"><path fill="#E5E5E5" d="M0 0h3300v2200H0z"/><g id="Documents / Outline / Doc View" clip-path="url(#clip0_0_1)"><g id="Notes"><path id="artboard" fill="#fff" d="M3300 0H0v2200h3300V0Z"/><path id="Vector" stroke="#000" stroke-width=".5" d="M263 292h2773"/><text xml:space="preserve" id="Weight/Scale Variations" fill="#000" font-family="Roboto" font-size="12" letter-spacing="0em" style="white-space:pre"><tspan x="263" y="321.102">Weight/Scale Variations</tspan></text><text xml:space="preserve" id="Ultralight" fill="#000" font-family="Roboto" font-size="12" letter-spacing="0em" style="white-space:pre"><tspan x="535.211" y="321.102">Ultralight</tspan></text><text xml:space="preserve" id="Thin" fill="#000" font-family="Roboto" font-size="12" letter-spacing="0em" style="white-space:pre"><tspan x="844.422" y="321.102">Thin</tspan></text><text xml:space="preserve" id="Light" fill="#000" font-family="Roboto" font-size="12" letter-spacing="0em" style="white-space:pre"><tspan x="1139.63" y="321.102">Light</tspan></text><text xml:space="preserve" id="Regular" fill="#000" font-family="Roboto" font-size="12" letter-spacing="0em" style="white-space:pre"><tspan x="1429.34" y="321.102">Regular</tspan></text><text xml:space="preserve" id="Medium" fill="#000" font-family="Roboto" font-size="12" letter-spacing="0em" style="white-space:pre"><tspan x="1724.56" y="321.102">Medium</tspan></text><text xml:space="preserve" id="Semibold" fill="#000" font-family="Roboto" font-size="12" letter-spacing="0em" style="white-space:pre"><tspan x="2017.77" y="321.102">Semibold</tspan></text><text xml:space="preserve" id="Bold" fill="#000" font-family="Roboto" font-size="12" letter-spacing="0em" style="white-space:pre"><tspan x="2327.48" y="321.102">Bold</tspan></text><text xml:space="preserve" id="Heavy" fill="#000" font-family="Roboto" font-size="12" letter-spacing="0em" style="white-space:pre"><tspan x="2620.19" y="321.102">Heavy</tspan></text><text xml:space="preserve" id="Black" fill="#000" font-family="Roboto" font-size="12" letter-spacing="0em" style="white-space:pre"><tspan x="2918.4" y="321.102">Black</tspan></text><path id="Vector_2" stroke="#000" stroke-width=".5" d="M263 1903h2773"/><g id="Group"><path id="Vector_3" fill="#000" d="M272.248 1933.83c4.307 0 7.891-3.57 7.891-7.88 0-4.31-3.594-7.88-7.901-7.88-4.297 0-7.871 3.57-7.871 7.88 0 4.31 3.584 7.88 7.881 7.88Zm0-1.48a6.364 6.364 0 0 1-6.377-6.4c0-3.56 2.822-6.4 6.367-6.4a6.382 6.382 0 0 1 6.406 6.4 6.368 6.368 0 0 1-6.396 6.4Zm-.019-2.78c.468 0 .742-.31.742-.83v-2.06h2.226c.498 0 .84-.25.84-.72 0-.48-.322-.74-.84-.74h-2.226v-2.23c0-.52-.274-.84-.742-.84-.469 0-.723.34-.723.84v2.23h-2.207c-.518 0-.85.26-.85.74 0 .47.352.72.85.72h2.207v2.06c0 .5.254.83.723.83Z"/></g><g id="Group_2"><path id="Vector_4" fill="#000" d="M293.215 1935.91c5.449 0 9.961-4.51 9.961-9.96 0-5.44-4.522-9.96-9.971-9.96-5.439 0-9.951 4.52-9.951 9.96 0 5.45 4.521 9.96 9.961 9.96Zm0-1.66a8.26 8.26 0 0 1-8.291-8.3c0-4.6 3.672-8.3 8.281-8.3a8.29 8.29 0 0 1 8.311 8.3 8.263 8.263 0 0 1-8.301 8.3Zm-.02-3.66c.518 0 .83-.36.83-.93v-2.89h3.057c.547 0 .928-.28.928-.8 0-.53-.362-.83-.928-.83h-3.057v-3.07c0-.57-.312-.93-.83-.93-.517 0-.81.38-.81.93v3.07h-3.047c-.567 0-.938.3-.938.83 0 .52.391.8.938.8h3.047v2.89c0 .55.293.93.81.93Z"/></g><g id="Group_3"><path id="Vector_5" fill="#000" d="M319.895 1938.67c6.962 0 12.724-5.75 12.724-12.71 0-6.96-5.771-12.72-12.734-12.72-6.953 0-12.705 5.76-12.705 12.72 0 6.96 5.761 12.71 12.715 12.71Zm0-1.81a10.874 10.874 0 0 1-10.889-10.9c0-6.04 4.844-10.9 10.879-10.9 6.045 0 10.898 4.86 10.908 10.9a10.87 10.87 0 0 1-10.898 10.9Zm-.02-4.92c.566 0 .918-.4.918-1v-4.07h4.238c.586 0 1.006-.33 1.006-.89 0-.58-.39-.92-1.006-.92h-4.238v-4.25c0-.61-.352-1-.918-1-.566 0-.889.41-.889 1v4.25h-4.228c-.615 0-1.026.34-1.026.92 0 .56.43.89 1.026.89h4.228v4.07c0 .59.323 1 .889 1Z"/></g><text xml:space="preserve" id="Design Variations" fill="#000" font-family="Roboto" font-size="12" letter-spacing="0em" style="white-space:pre"><tspan x="263" y="1952.1">Design Variations</tspan></text><text xml:space="preserve" id="Symbols are supported in up to nine weights and three scales." fill="#000" font-family="Roboto" font-size="12" letter-spacing="0em" style="white-space:pre"><tspan x="263" y="1970.1">Symbols are supported in up to nine weights and three scales.</tspan></text><text xml:space="preserve" id="For optimal layout with text and other symbols, vertically align" fill="#000" font-family="Roboto" font-size="12" letter-spacing="0em" style="white-space:pre"><tspan x="263" y="1988.1">For optimal layout with text and other symbols, vertically align</tspan></text><text xml:space="preserve" id="symbols with the adjacent text." fill="#000" font-family="Roboto" font-size="12" letter-spacing="0em" style="white-space:pre"><tspan x="263" y="2006.1">symbols with the adjacent text.</tspan></text><path id="Vector_6" fill="#00AEEF" d="M779 1919h-3v14h3v-14Z" opacity=".4"/><g id="Group_4"><path id="Vector_7" fill="#000" d="M789.525 1933h1.846l-5.195-14.09h-1.739l-5.195 14.09h1.846l1.416-4.03h5.605l1.416 4.03Zm-4.248-11.95h.059l2.256 6.42h-4.571l2.256-6.42Z"/></g><path id="Vector_8" fill="#00AEEF" d="M794.617 1919h-3v14h3v-14Z" opacity=".4"/><text xml:space="preserve" id="Margins" fill="#000" font-family="Roboto" font-size="12" letter-spacing="0em" style="white-space:pre"><tspan x="776" y="1952.1">Margins</tspan></text><text xml:space="preserve" id="Leading and trailing margins on the left and right side of each symbol" fill="#000" font-family="Roboto" font-size="12" letter-spacing="0em" style="white-space:pre"><tspan x="776" y="1970.1">Leading and trailing margins on the left and right side of each symbol</tspan></text><text xml:space="preserve" id="can be adjusted by modifying the width of the blue rectangles." fill="#000" font-family="Roboto" font-size="12" letter-spacing="0em" style="white-space:pre"><tspan x="776" y="1988.1">can be adjusted by modifying the width of the blue rectangles.</tspan></text><text xml:space="preserve" id="Modifications are automatically applied proportionally to all" fill="#000" font-family="Roboto" font-size="12" letter-spacing="0em" style="white-space:pre"><tspan x="776" y="2006.1">Modifications are automatically applied proportionally to all</tspan></text><text xml:space="preserve" id="scales and weights." fill="#000" font-family="Roboto" font-size="12" letter-spacing="0em" style="white-space:pre"><tspan x="776" y="2024.1">scales and weights.</tspan></text><g id="Group_5"><path id="Vector_9" fill="#000" d="m1291.83 1936.12 1.54 1.54c.85.83 1.82.76 2.69-.2l10.21-11.12c.43.29.83.28 1.29.19l1.05-.22.69.69-.05.52c-.06.53.1.95.6 1.45l.81.81c.51.51 1.16.53 1.64.06l3.25-3.26c.48-.47.46-1.13-.05-1.64l-.82-.82c-.49-.5-.91-.67-1.44-.59l-.53.06-.65-.67.28-1.14c.15-.57 0-1.04-.63-1.64l-2.41-2.39c-3.54-3.53-8.07-3.42-11.19-.29-.42.43-.47 1.02-.19 1.45.23.37.71.59 1.35.43 1.52-.38 3.03-.27 4.51.74l-.62 1.58c-.23.59-.22 1.07.02 1.51l-11.16 10.27c-.94.87-1.05 1.82-.19 2.68Zm7.84-18.27c2.67-1.99 5.98-1.68 8.38.74l2.63 2.6c.23.24.26.42.2.72l-.38 1.56 1.58 1.57.96-.09c.29-.03.37-.01.6.22l.62.62-2.75 2.75-.63-.62c-.22-.22-.24-.32-.21-.6l.09-.96-1.57-1.56-1.62.31c-.28.06-.43.06-.66-.19l-2.18-2.17c-.22-.24-.25-.38-.12-.7l.94-2.27c-1.6-1.54-3.71-2.39-5.75-1.73-.09.03-.16.01-.19-.03-.02-.05-.02-.1.06-.17Zm-6.57 17.56c-.49-.5-.31-.8.02-1.1l10.96-10.12 1.23 1.23-10.16 10.93c-.3.33-.68.43-1.08.03l-.97-.97Z"/></g><text xml:space="preserve" id="Exporting" fill="#000" font-family="Roboto" font-size="12" letter-spacing="0em" style="white-space:pre"><tspan x="1289" y="1952.1">Exporting</tspan></text><text xml:space="preserve" id="Symbols should be outlined when exporting to ensure the" fill="#000" font-family="Roboto" font-size="12" letter-spacing="0em" style="white-space:pre"><tspan x="1289" y="1970.1">Symbols should be outlined when exporting to ensure the</tspan></text><text xml:space="preserve" id="design is preserved when submitting to Xcode." fill="#000" font-family="Roboto" font-size="12" letter-spacing="0em" style="white-space:pre"><tspan x="1289" y="1988.1">design is preserved when submitting to Xcode.</tspan></text><text xml:space="preserve" id="template-version" fill="#000" font-family="Roboto" font-size="12" letter-spacing="0em" style="white-space:pre"><tspan x="2958" y="1932.1">Template v.1.0</tspan></text><text xml:space="preserve" id="Generated from pencil.circle" fill="#000" font-family="Roboto" font-size="12" letter-spacing="0em" style="white-space:pre"><tspan x="2885" y="1950.1">Generated from pencil.circle</tspan></text><text xml:space="preserve" id="Typeset at 100 points" fill="#000" font-family="Roboto" font-size="12" letter-spacing="0em" style="white-space:pre"><tspan x="2921" y="1968.1">Typeset at 100 points</tspan></text><text xml:space="preserve" id="Small" fill="#000" font-family="Roboto" font-size="12" letter-spacing="0em" style="white-space:pre"><tspan x="263" y="725.102">Small</tspan></text><text xml:space="preserve" id="Medium_2" fill="#000" font-family="Roboto" font-size="12" letter-spacing="0em" style="white-space:pre"><tspan x="263" y="1155.1">Medium</tspan></text><text xml:space="preserve" id="Large" fill="#000" font-family="Roboto" font-size="12" letter-spacing="0em" style="white-space:pre"><tspan x="263" y="1585.1">Large</tspan></text></g><g id="Guides"><g id="H-reference"><path id="Vector_10" fill="#27AAE1" d="M393.932 696h2.734l-27.1-70.459h-2.49L339.977 696h2.685l9.278-24.463h32.763L393.932 696Zm-25.733-67.09h.244l15.381 40.381h-31.006l15.381-40.381Z"/></g><path id="Baseline-S" stroke="#27AAE1" stroke-width=".577" d="M263 696h2773"/><path id="Capline-S" stroke="#27AAE1" stroke-width=".577" d="M263 626h2773"/><g id="H-reference_2"><path id="Vector_11" fill="#27AAE1" d="M393.932 1126h2.734l-27.1-70.46h-2.49L339.977 1126h2.685l9.278-24.46h32.763l9.229 24.46Zm-25.733-67.09h.244l15.381 40.38h-31.006l15.381-40.38Z"/></g><path id="Baseline-M" stroke="#27AAE1" stroke-width=".577" d="M263 1126h2773"/><path id="Capline-M" stroke="#27AAE1" stroke-width=".577" d="M263 1056h2773"/><g id="H-reference_3"><path id="Vector_12" fill="#27AAE1" d="M393.932 1556h2.734l-27.1-70.46h-2.49L339.977 1556h2.685l9.278-24.46h32.763l9.229 24.46Zm-25.733-67.09h.244l15.381 40.38h-31.006l15.381-40.38Z"/></g><g id="Group 1" stroke="#27AAE1" stroke-width=".577"><path id="Baseline-L" d="M263 1556h2773"/><path id="Capline-L" d="M263 1486h2773"/></g><path id="left-margin" fill="#00AEEF" d="M1402.04 1030.79h-8.74v119.34h8.74v-119.34Z" opacity=".4"/><path id="right-margin" fill="#00AEEF" d="M1505.39 1030.79h-8.74v119.34h8.74v-119.34Z" opacity=".4"/></g><g id="Symbols"><g id="Black-L"><g id="Outline / Doc View Outline"><g id="Shape" fill="#000"><path fill-rule="evenodd" d="M2989.01 1476c0-12.43-10.08-22.5-22.5-22.5h-74.95c-12.43 0-22.5 10.07-22.5 22.5v90c0 12.43 10.07 22.5 22.5 22.5h74.95c12.42 0 22.5-10.07 22.5-22.5v-90Zm-22.5-12.75h-74.95c-7.04 0-12.75 5.71-12.75 12.75v90c0 7.04 5.71 12.75 12.75 12.75h74.95c7.04 0 12.75-5.71 12.75-12.75v-90c0-7.04-5.71-12.75-12.75-12.75Z" clip-rule="evenodd"/><path d="M2929.01 1534c7.18 0 13-5.82 13-13s-5.82-13-13-13-13.01 5.82-13.01 13 5.83 13 13.01 13Z"/><path fill-rule="evenodd" d="M2929.03 1491.14c-18.33 0-30.54 15.54-35.91 24.17-2.12 3.4-2.12 7.81 0 11.21 5.37 8.62 17.58 24.17 35.91 24.17s30.55-15.55 35.92-24.17c2.11-3.4 2.11-7.81 0-11.21-5.37-8.63-17.59-24.17-35.92-24.17Zm-27.63 29.32c2.37-3.82 6.12-8.91 11.02-12.95 4.85-4.01 10.37-6.62 16.61-6.62 6.25 0 11.76 2.61 16.62 6.62 4.9 4.04 8.64 9.13 11.02 12.95.06.09.11.24.11.45 0 .21-.05.36-.11.45-2.38 3.82-6.12 8.91-11.02 12.96-4.86 4-10.37 6.62-16.62 6.62-6.24 0-11.76-2.62-16.61-6.62-4.9-4.05-8.65-9.14-11.02-12.96a.81.81 0 0 1-.12-.45c0-.21.06-.36.12-.45Z" clip-rule="evenodd"/></g></g></g><g id="Heavy-L"><g id="Outline / Doc View Outline_2"><g id="Shape_2" fill="#000"><path fill-rule="evenodd" d="M2693.01 1476c0-12.43-10.08-22.5-22.5-22.5h-74.95c-12.43 0-22.5 10.07-22.5 22.5v90c0 12.43 10.07 22.5 22.5 22.5h74.95c12.42 0 22.5-10.07 22.5-22.5v-90Zm-22.5-12.75h-74.95c-7.04 0-12.75 5.71-12.75 12.75v90c0 7.04 5.71 12.75 12.75 12.75h74.95c7.04 0 12.75-5.71 12.75-12.75v-90c0-7.04-5.71-12.75-12.75-12.75Z" clip-rule="evenodd"/><path d="M2633.01 1534c7.18 0 13-5.82 13-13s-5.82-13-13-13-13.01 5.82-13.01 13 5.83 13 13.01 13Z"/><path fill-rule="evenodd" d="M2633.03 1491.14c-18.33 0-30.54 15.54-35.91 24.17-2.12 3.4-2.12 7.81 0 11.21 5.37 8.62 17.58 24.17 35.91 24.17s30.55-15.55 35.92-24.17c2.11-3.4 2.11-7.81 0-11.21-5.37-8.63-17.59-24.17-35.92-24.17Zm-27.63 29.32c2.37-3.82 6.12-8.91 11.02-12.95 4.85-4.01 10.37-6.62 16.61-6.62 6.25 0 11.76 2.61 16.62 6.62 4.9 4.04 8.64 9.13 11.02 12.95.06.09.11.24.11.45 0 .21-.05.36-.11.45-2.38 3.82-6.12 8.91-11.02 12.96-4.86 4-10.37 6.62-16.62 6.62-6.24 0-11.76-2.62-16.61-6.62-4.9-4.05-8.65-9.14-11.02-12.96a.81.81 0 0 1-.12-.45c0-.21.06-.36.12-.45Z" clip-rule="evenodd"/></g></g></g><g id="Bold-L"><g id="Outline / Doc View Outline_3"><g id="Shape_3" fill="#000"><path fill-rule="evenodd" d="M2397.01 1476c0-12.43-10.08-22.5-22.5-22.5h-74.95c-12.43 0-22.5 10.07-22.5 22.5v90c0 12.43 10.07 22.5 22.5 22.5h74.95c12.42 0 22.5-10.07 22.5-22.5v-90Zm-22.5-12.75h-74.95c-7.04 0-12.75 5.71-12.75 12.75v90c0 7.04 5.71 12.75 12.75 12.75h74.95c7.04 0 12.75-5.71 12.75-12.75v-90c0-7.04-5.71-12.75-12.75-12.75Z" clip-rule="evenodd"/><path d="M2337.01 1534c7.18 0 13-5.82 13-13s-5.82-13-13-13-13.01 5.82-13.01 13 5.83 13 13.01 13Z"/><path fill-rule="evenodd" d="M2337.03 1491.14c-18.33 0-30.54 15.54-35.91 24.17-2.12 3.4-2.12 7.81 0 11.21 5.37 8.62 17.58 24.17 35.91 24.17s30.55-15.55 35.92-24.17c2.11-3.4 2.11-7.81 0-11.21-5.37-8.63-17.59-24.17-35.92-24.17Zm-27.63 29.32c2.37-3.82 6.12-8.91 11.02-12.95 4.85-4.01 10.37-6.62 16.61-6.62 6.25 0 11.76 2.61 16.62 6.62 4.9 4.04 8.64 9.13 11.02 12.95.06.09.11.24.11.45 0 .21-.05.36-.11.45-2.38 3.82-6.12 8.91-11.02 12.96-4.86 4-10.37 6.62-16.62 6.62-6.24 0-11.76-2.62-16.61-6.62-4.9-4.05-8.65-9.14-11.02-12.96a.81.81 0 0 1-.12-.45c0-.21.06-.36.12-.45Z" clip-rule="evenodd"/></g></g></g><g id="Semibold-L"><g id="Outline / Doc View Outline_4"><g id="Shape_4" fill="#000"><path fill-rule="evenodd" d="M2101.01 1476c0-12.43-10.08-22.5-22.5-22.5h-74.95c-12.43 0-22.5 10.07-22.5 22.5v90c0 12.43 10.07 22.5 22.5 22.5h74.95c12.42 0 22.5-10.07 22.5-22.5v-90Zm-22.5-12.75h-74.95c-7.04 0-12.75 5.71-12.75 12.75v90c0 7.04 5.71 12.75 12.75 12.75h74.95c7.04 0 12.75-5.71 12.75-12.75v-90c0-7.04-5.71-12.75-12.75-12.75Z" clip-rule="evenodd"/><path d="M2041.01 1534c7.18 0 13-5.82 13-13s-5.82-13-13-13-13.01 5.82-13.01 13 5.83 13 13.01 13Z"/><path fill-rule="evenodd" d="M2041.03 1491.14c-18.33 0-30.54 15.54-35.91 24.17-2.12 3.4-2.12 7.81 0 11.21 5.37 8.62 17.58 24.17 35.91 24.17s30.55-15.55 35.92-24.17c2.11-3.4 2.11-7.81 0-11.21-5.37-8.63-17.59-24.17-35.92-24.17Zm-27.63 29.32c2.37-3.82 6.12-8.91 11.02-12.95 4.85-4.01 10.37-6.62 16.61-6.62 6.25 0 11.76 2.61 16.62 6.62 4.9 4.04 8.64 9.13 11.02 12.95.06.09.11.24.11.45 0 .21-.05.36-.11.45-2.38 3.82-6.12 8.91-11.02 12.96-4.86 4-10.37 6.62-16.62 6.62-6.24 0-11.76-2.62-16.61-6.62-4.9-4.05-8.65-9.14-11.02-12.96a.81.81 0 0 1-.12-.45c0-.21.06-.36.12-.45Z" clip-rule="evenodd"/></g></g></g><g id="Medium-L"><g id="Outline / Doc View Outline_5"><g id="Shape_5" fill="#000"><path fill-rule="evenodd" d="M1805.01 1476c0-12.43-10.08-22.5-22.5-22.5h-74.95c-12.43 0-22.5 10.07-22.5 22.5v90c0 12.43 10.07 22.5 22.5 22.5h74.95c12.42 0 22.5-10.07 22.5-22.5v-90Zm-22.5-12.75h-74.95c-7.04 0-12.75 5.71-12.75 12.75v90c0 7.04 5.71 12.75 12.75 12.75h74.95c7.04 0 12.75-5.71 12.75-12.75v-90c0-7.04-5.71-12.75-12.75-12.75Z" clip-rule="evenodd"/><path d="M1745.01 1534c7.18 0 13-5.82 13-13s-5.82-13-13-13-13.01 5.82-13.01 13 5.83 13 13.01 13Z"/><path fill-rule="evenodd" d="M1745.03 1491.14c-18.33 0-30.54 15.54-35.91 24.17-2.12 3.4-2.12 7.81 0 11.21 5.37 8.62 17.58 24.17 35.91 24.17s30.55-15.55 35.92-24.17c2.11-3.4 2.11-7.81 0-11.21-5.37-8.63-17.59-24.17-35.92-24.17Zm-27.63 29.32c2.37-3.82 6.12-8.91 11.02-12.95 4.85-4.01 10.37-6.62 16.61-6.62 6.25 0 11.76 2.61 16.62 6.62 4.9 4.04 8.64 9.13 11.02 12.95.06.09.11.24.11.45 0 .21-.05.36-.11.45-2.38 3.82-6.12 8.91-11.02 12.96-4.86 4-10.37 6.62-16.62 6.62-6.24 0-11.76-2.62-16.61-6.62-4.9-4.05-8.65-9.14-11.02-12.96a.81.81 0 0 1-.12-.45c0-.21.06-.36.12-.45Z" clip-rule="evenodd"/></g></g></g><g id="Regular-L"><g id="Outline / Doc View Outline_6"><g id="Shape_6" fill="#000"><path fill-rule="evenodd" d="M1509.01 1476c0-12.43-10.08-22.5-22.5-22.5h-74.95c-12.43 0-22.5 10.07-22.5 22.5v90c0 12.43 10.07 22.5 22.5 22.5h74.95c12.42 0 22.5-10.07 22.5-22.5v-90Zm-22.5-12.75h-74.95c-7.04 0-12.75 5.71-12.75 12.75v90c0 7.04 5.71 12.75 12.75 12.75h74.95c7.04 0 12.75-5.71 12.75-12.75v-90c0-7.04-5.71-12.75-12.75-12.75Z" clip-rule="evenodd"/><path d="M1449.01 1534c7.18 0 13-5.82 13-13s-5.82-13-13-13-13.01 5.82-13.01 13 5.83 13 13.01 13Z"/><path fill-rule="evenodd" d="M1449.03 1491.14c-18.33 0-30.54 15.54-35.91 24.17-2.12 3.4-2.12 7.81 0 11.21 5.37 8.62 17.58 24.17 35.91 24.17s30.55-15.55 35.92-24.17c2.11-3.4 2.11-7.81 0-11.21-5.37-8.63-17.59-24.17-35.92-24.17Zm-27.63 29.32c2.37-3.82 6.12-8.91 11.02-12.95 4.85-4.01 10.37-6.62 16.61-6.62 6.25 0 11.76 2.61 16.62 6.62 4.9 4.04 8.64 9.13 11.02 12.95.06.09.11.24.11.45 0 .21-.05.36-.11.45-2.38 3.82-6.12 8.91-11.02 12.96-4.86 4-10.37 6.62-16.62 6.62-6.24 0-11.76-2.62-16.61-6.62-4.9-4.05-8.65-9.14-11.02-12.96a.81.81 0 0 1-.12-.45c0-.21.06-.36.12-.45Z" clip-rule="evenodd"/></g></g></g><g id="Light-L"><g id="Outline / Doc View Outline_7"><g id="Shape_7" fill="#000"><path fill-rule="evenodd" d="M1213.01 1476c0-12.43-10.08-22.5-22.5-22.5h-74.95c-12.43 0-22.5 10.07-22.5 22.5v90c0 12.43 10.07 22.5 22.5 22.5h74.95c12.42 0 22.5-10.07 22.5-22.5v-90Zm-22.5-12.75h-74.95c-7.04 0-12.75 5.71-12.75 12.75v90c0 7.04 5.71 12.75 12.75 12.75h74.95c7.04 0 12.75-5.71 12.75-12.75v-90c0-7.04-5.71-12.75-12.75-12.75Z" clip-rule="evenodd"/><path d="M1153.01 1534c7.18 0 13-5.82 13-13s-5.82-13-13-13-13.01 5.82-13.01 13 5.83 13 13.01 13Z"/><path fill-rule="evenodd" d="M1153.03 1491.14c-18.33 0-30.54 15.54-35.91 24.17-2.12 3.4-2.12 7.81 0 11.21 5.37 8.62 17.58 24.17 35.91 24.17s30.55-15.55 35.92-24.17c2.11-3.4 2.11-7.81 0-11.21-5.37-8.63-17.59-24.17-35.92-24.17Zm-27.63 29.32c2.37-3.82 6.12-8.91 11.02-12.95 4.85-4.01 10.37-6.62 16.61-6.62 6.25 0 11.76 2.61 16.62 6.62 4.9 4.04 8.64 9.13 11.02 12.95.06.09.11.24.11.45 0 .21-.05.36-.11.45-2.38 3.82-6.12 8.91-11.02 12.96-4.86 4-10.37 6.62-16.62 6.62-6.24 0-11.76-2.62-16.61-6.62-4.9-4.05-8.65-9.14-11.02-12.96a.81.81 0 0 1-.12-.45c0-.21.06-.36.12-.45Z" clip-rule="evenodd"/></g></g></g><g id="Thin-L"><g id="Outline / Doc View Outline_8"><g id="Shape_8" fill="#000"><path fill-rule="evenodd" d="M917.008 1476c0-12.43-10.074-22.5-22.5-22.5h-74.949c-12.427 0-22.5 10.07-22.5 22.5v90c0 12.43 10.073 22.5 22.5 22.5h74.949c12.426 0 22.5-10.07 22.5-22.5v-90Zm-22.5-12.75h-74.949c-7.042 0-12.75 5.71-12.75 12.75v90c0 7.04 5.708 12.75 12.75 12.75h74.949c7.042 0 12.75-5.71 12.75-12.75v-90c0-7.04-5.708-12.75-12.75-12.75Z" clip-rule="evenodd"/><path d="M857.008 1534c7.182 0 13.003-5.82 13.003-13s-5.821-13-13.003-13-13.004 5.82-13.004 13 5.822 13 13.004 13Z"/><path fill-rule="evenodd" d="M857.033 1491.14c-18.329 0-30.546 15.54-35.914 24.17-2.114 3.4-2.114 7.81 0 11.21 5.368 8.62 17.585 24.17 35.914 24.17 18.33 0 30.547-15.55 35.915-24.17 2.114-3.4 2.114-7.81 0-11.21-5.368-8.63-17.585-24.17-35.915-24.17Zm-27.636 29.32c2.376-3.82 6.121-8.91 11.024-12.95 4.854-4.01 10.369-6.62 16.612-6.62 6.244 0 11.759 2.61 16.612 6.62 4.904 4.04 8.649 9.13 11.025 12.95.056.09.113.24.113.45 0 .21-.057.36-.113.45-2.376 3.82-6.121 8.91-11.025 12.96-4.853 4-10.368 6.62-16.612 6.62-6.243 0-11.758-2.62-16.612-6.62-4.903-4.05-8.648-9.14-11.024-12.96a.85.85 0 0 1-.114-.45c0-.21.058-.36.114-.45Z" clip-rule="evenodd"/></g></g></g><g id="Ultralight-L"><g id="Outline / Doc View Outline_9"><g id="Shape_9" fill="#000"><path fill-rule="evenodd" d="M621.008 1476c0-12.43-10.074-22.5-22.5-22.5h-74.949c-12.427 0-22.5 10.07-22.5 22.5v90c0 12.43 10.073 22.5 22.5 22.5h74.949c12.426 0 22.5-10.07 22.5-22.5v-90Zm-22.5-12.75h-74.949c-7.042 0-12.75 5.71-12.75 12.75v90c0 7.04 5.708 12.75 12.75 12.75h74.949c7.042 0 12.75-5.71 12.75-12.75v-90c0-7.04-5.708-12.75-12.75-12.75Z" clip-rule="evenodd"/><path d="M561.008 1534c7.182 0 13.003-5.82 13.003-13s-5.821-13-13.003-13-13.004 5.82-13.004 13 5.822 13 13.004 13Z"/><path fill-rule="evenodd" d="M561.033 1491.14c-18.329 0-30.546 15.54-35.914 24.17-2.114 3.4-2.114 7.81 0 11.21 5.368 8.62 17.585 24.17 35.914 24.17 18.33 0 30.547-15.55 35.915-24.17 2.114-3.4 2.114-7.81 0-11.21-5.368-8.63-17.585-24.17-35.915-24.17Zm-27.636 29.32c2.376-3.82 6.121-8.91 11.024-12.95 4.854-4.01 10.369-6.62 16.612-6.62 6.244 0 11.759 2.61 16.612 6.62 4.904 4.04 8.649 9.13 11.025 12.95.056.09.113.24.113.45 0 .21-.057.36-.113.45-2.376 3.82-6.121 8.91-11.025 12.96-4.853 4-10.368 6.62-16.612 6.62-6.243 0-11.758-2.62-16.612-6.62-4.903-4.05-8.648-9.14-11.024-12.96a.85.85 0 0 1-.114-.45c0-.21.058-.36.114-.45Z" clip-rule="evenodd"/></g></g></g><g id="Black-M"><g id="Outline / Doc View Outline_10"><g id="Shape_10" fill="#000"><path fill-rule="evenodd" d="M2975.67 1056c0-9.66-7.83-17.5-17.5-17.5h-58.29c-9.67 0-17.5 7.84-17.5 17.5v70c0 9.66 7.83 17.5 17.5 17.5h58.29c9.67 0 17.5-7.84 17.5-17.5v-70Zm-17.5-9.92h-58.29c-5.48 0-9.92 4.44-9.92 9.92v70c0 5.48 4.44 9.92 9.92 9.92h58.29c5.48 0 9.92-4.44 9.92-9.92v-70c0-5.48-4.44-9.92-9.92-9.92Z" clip-rule="evenodd"/><path d="M2929.01 1101.11c5.58 0 10.11-4.52 10.11-10.11s-4.53-10.11-10.11-10.11c-5.59 0-10.12 4.52-10.12 10.11s4.53 10.11 10.12 10.11Z"/><path fill-rule="evenodd" d="M2929.03 1067.77c-14.26 0-23.76 12.09-27.94 18.8-1.64 2.65-1.64 6.08 0 8.72 4.18 6.71 13.68 18.8 27.94 18.8 14.25 0 23.75-12.09 27.93-18.8 1.64-2.64 1.64-6.07 0-8.72-4.18-6.71-13.68-18.8-27.93-18.8Zm-21.5 22.81c1.85-2.97 4.76-6.93 8.58-10.07 3.77-3.12 8.06-5.15 12.92-5.15 4.85 0 9.14 2.03 12.92 5.15 3.81 3.14 6.72 7.1 8.57 10.07.04.07.09.19.09.35 0 .16-.05.28-.09.35-1.85 2.97-4.76 6.93-8.57 10.08-3.78 3.11-8.07 5.15-12.92 5.15-4.86 0-9.15-2.04-12.92-5.15-3.82-3.15-6.73-7.11-8.58-10.08a.706.706 0 0 1-.09-.35c0-.16.05-.28.09-.35Z" clip-rule="evenodd"/></g></g></g><g id="Heavy-M"><g id="Outline / Doc View Outline_11"><g id="Shape_11" fill="#000"><path fill-rule="evenodd" d="M2679.67 1056c0-9.66-7.83-17.5-17.5-17.5h-58.29c-9.67 0-17.5 7.84-17.5 17.5v70c0 9.66 7.83 17.5 17.5 17.5h58.29c9.67 0 17.5-7.84 17.5-17.5v-70Zm-17.5-9.92h-58.29c-5.48 0-9.92 4.44-9.92 9.92v70c0 5.48 4.44 9.92 9.92 9.92h58.29c5.48 0 9.92-4.44 9.92-9.92v-70c0-5.48-4.44-9.92-9.92-9.92Z" clip-rule="evenodd"/><path d="M2633.01 1101.11c5.58 0 10.11-4.52 10.11-10.11s-4.53-10.11-10.11-10.11c-5.59 0-10.12 4.52-10.12 10.11s4.53 10.11 10.12 10.11Z"/><path fill-rule="evenodd" d="M2633.03 1067.77c-14.26 0-23.76 12.09-27.94 18.8-1.64 2.65-1.64 6.08 0 8.72 4.18 6.71 13.68 18.8 27.94 18.8 14.25 0 23.75-12.09 27.93-18.8 1.64-2.64 1.64-6.07 0-8.72-4.18-6.71-13.68-18.8-27.93-18.8Zm-21.5 22.81c1.85-2.97 4.76-6.93 8.58-10.07 3.77-3.12 8.06-5.15 12.92-5.15 4.85 0 9.14 2.03 12.92 5.15 3.81 3.14 6.72 7.1 8.57 10.07.04.07.09.19.09.35 0 .16-.05.28-.09.35-1.85 2.97-4.76 6.93-8.57 10.08-3.78 3.11-8.07 5.15-12.92 5.15-4.86 0-9.15-2.04-12.92-5.15-3.82-3.15-6.73-7.11-8.58-10.08a.706.706 0 0 1-.09-.35c0-.16.05-.28.09-.35Z" clip-rule="evenodd"/></g></g></g><g id="Bold-M"><g id="Outline / Doc View Outline_12"><g id="Shape_12" fill="#000"><path fill-rule="evenodd" d="M2383.67 1056c0-9.66-7.83-17.5-17.5-17.5h-58.29c-9.67 0-17.5 7.84-17.5 17.5v70c0 9.66 7.83 17.5 17.5 17.5h58.29c9.67 0 17.5-7.84 17.5-17.5v-70Zm-17.5-9.92h-58.29c-5.48 0-9.92 4.44-9.92 9.92v70c0 5.48 4.44 9.92 9.92 9.92h58.29c5.48 0 9.92-4.44 9.92-9.92v-70c0-5.48-4.44-9.92-9.92-9.92Z" clip-rule="evenodd"/><path d="M2337.01 1101.11c5.58 0 10.11-4.52 10.11-10.11s-4.53-10.11-10.11-10.11c-5.59 0-10.12 4.52-10.12 10.11s4.53 10.11 10.12 10.11Z"/><path fill-rule="evenodd" d="M2337.03 1067.77c-14.26 0-23.76 12.09-27.94 18.8-1.64 2.65-1.64 6.08 0 8.72 4.18 6.71 13.68 18.8 27.94 18.8 14.25 0 23.75-12.09 27.93-18.8 1.64-2.64 1.64-6.07 0-8.72-4.18-6.71-13.68-18.8-27.93-18.8Zm-21.5 22.81c1.85-2.97 4.76-6.93 8.58-10.07 3.77-3.12 8.06-5.15 12.92-5.15 4.85 0 9.14 2.03 12.92 5.15 3.81 3.14 6.72 7.1 8.57 10.07.04.07.09.19.09.35 0 .16-.05.28-.09.35-1.85 2.97-4.76 6.93-8.57 10.08-3.78 3.11-8.07 5.15-12.92 5.15-4.86 0-9.15-2.04-12.92-5.15-3.82-3.15-6.73-7.11-8.58-10.08a.706.706 0 0 1-.09-.35c0-.16.05-.28.09-.35Z" clip-rule="evenodd"/></g></g></g><g id="Semibold-M"><g id="Outline / Doc View Outline_13"><g id="Shape_13" fill="#000"><path fill-rule="evenodd" d="M2087.67 1056c0-9.66-7.83-17.5-17.5-17.5h-58.29c-9.67 0-17.5 7.84-17.5 17.5v70c0 9.66 7.83 17.5 17.5 17.5h58.29c9.67 0 17.5-7.84 17.5-17.5v-70Zm-17.5-9.92h-58.29c-5.48 0-9.92 4.44-9.92 9.92v70c0 5.48 4.44 9.92 9.92 9.92h58.29c5.48 0 9.92-4.44 9.92-9.92v-70c0-5.48-4.44-9.92-9.92-9.92Z" clip-rule="evenodd"/><path d="M2041.01 1101.11c5.58 0 10.11-4.52 10.11-10.11s-4.53-10.11-10.11-10.11c-5.59 0-10.12 4.52-10.12 10.11s4.53 10.11 10.12 10.11Z"/><path fill-rule="evenodd" d="M2041.03 1067.77c-14.26 0-23.76 12.09-27.94 18.8-1.64 2.65-1.64 6.08 0 8.72 4.18 6.71 13.68 18.8 27.94 18.8 14.25 0 23.75-12.09 27.93-18.8 1.64-2.64 1.64-6.07 0-8.72-4.18-6.71-13.68-18.8-27.93-18.8Zm-21.5 22.81c1.85-2.97 4.76-6.93 8.58-10.07 3.77-3.12 8.06-5.15 12.92-5.15 4.85 0 9.14 2.03 12.92 5.15 3.81 3.14 6.72 7.1 8.57 10.07.04.07.09.19.09.35 0 .16-.05.28-.09.35-1.85 2.97-4.76 6.93-8.57 10.08-3.78 3.11-8.07 5.15-12.92 5.15-4.86 0-9.15-2.04-12.92-5.15-3.82-3.15-6.73-7.11-8.58-10.08a.706.706 0 0 1-.09-.35c0-.16.05-.28.09-.35Z" clip-rule="evenodd"/></g></g></g><g id="Medium-M"><g id="Outline / Doc View Outline_14"><g id="Shape_14" fill="#000"><path fill-rule="evenodd" d="M1791.67 1056c0-9.66-7.83-17.5-17.5-17.5h-58.29c-9.67 0-17.5 7.84-17.5 17.5v70c0 9.66 7.83 17.5 17.5 17.5h58.29c9.67 0 17.5-7.84 17.5-17.5v-70Zm-17.5-9.92h-58.29c-5.48 0-9.92 4.44-9.92 9.92v70c0 5.48 4.44 9.92 9.92 9.92h58.29c5.48 0 9.92-4.44 9.92-9.92v-70c0-5.48-4.44-9.92-9.92-9.92Z" clip-rule="evenodd"/><path d="M1745.01 1101.11c5.58 0 10.11-4.52 10.11-10.11s-4.53-10.11-10.11-10.11c-5.59 0-10.12 4.52-10.12 10.11s4.53 10.11 10.12 10.11Z"/><path fill-rule="evenodd" d="M1745.03 1067.77c-14.26 0-23.76 12.09-27.94 18.8-1.64 2.65-1.64 6.08 0 8.72 4.18 6.71 13.68 18.8 27.94 18.8 14.25 0 23.75-12.09 27.93-18.8 1.64-2.64 1.64-6.07 0-8.72-4.18-6.71-13.68-18.8-27.93-18.8Zm-21.5 22.81c1.85-2.97 4.76-6.93 8.58-10.07 3.77-3.12 8.06-5.15 12.92-5.15 4.85 0 9.14 2.03 12.92 5.15 3.81 3.14 6.72 7.1 8.57 10.07.04.07.09.19.09.35 0 .16-.05.28-.09.35-1.85 2.97-4.76 6.93-8.57 10.08-3.78 3.11-8.07 5.15-12.92 5.15-4.86 0-9.15-2.04-12.92-5.15-3.82-3.15-6.73-7.11-8.58-10.08a.706.706 0 0 1-.09-.35c0-.16.05-.28.09-.35Z" clip-rule="evenodd"/></g></g></g><g id="Regular-M"><g id="Outline / Doc View Outline_15"><g id="Shape_15" fill="#000"><path fill-rule="evenodd" d="M1495.67 1056c0-9.66-7.83-17.5-17.5-17.5h-58.29c-9.67 0-17.5 7.84-17.5 17.5v70c0 9.66 7.83 17.5 17.5 17.5h58.29c9.67 0 17.5-7.84 17.5-17.5v-70Zm-17.5-9.92h-58.29c-5.48 0-9.92 4.44-9.92 9.92v70c0 5.48 4.44 9.92 9.92 9.92h58.29c5.48 0 9.92-4.44 9.92-9.92v-70c0-5.48-4.44-9.92-9.92-9.92Z" clip-rule="evenodd"/><path d="M1449.01 1101.11c5.58 0 10.11-4.52 10.11-10.11s-4.53-10.11-10.11-10.11c-5.59 0-10.12 4.52-10.12 10.11s4.53 10.11 10.12 10.11Z"/><path fill-rule="evenodd" d="M1449.03 1067.77c-14.26 0-23.76 12.09-27.94 18.8-1.64 2.65-1.64 6.08 0 8.72 4.18 6.71 13.68 18.8 27.94 18.8 14.25 0 23.75-12.09 27.93-18.8 1.64-2.64 1.64-6.07 0-8.72-4.18-6.71-13.68-18.8-27.93-18.8Zm-21.5 22.81c1.85-2.97 4.76-6.93 8.58-10.07 3.77-3.12 8.06-5.15 12.92-5.15 4.85 0 9.14 2.03 12.92 5.15 3.81 3.14 6.72 7.1 8.57 10.07.04.07.09.19.09.35 0 .16-.05.28-.09.35-1.85 2.97-4.76 6.93-8.57 10.08-3.78 3.11-8.07 5.15-12.92 5.15-4.86 0-9.15-2.04-12.92-5.15-3.82-3.15-6.73-7.11-8.58-10.08a.706.706 0 0 1-.09-.35c0-.16.05-.28.09-.35Z" clip-rule="evenodd"/></g></g></g><g id="Light-M"><g id="Outline / Doc View Outline_16"><g id="Shape_16" fill="#000"><path fill-rule="evenodd" d="M1199.67 1056c0-9.66-7.83-17.5-17.5-17.5h-58.29c-9.67 0-17.5 7.84-17.5 17.5v70c0 9.66 7.83 17.5 17.5 17.5h58.29c9.67 0 17.5-7.84 17.5-17.5v-70Zm-17.5-9.92h-58.29c-5.48 0-9.92 4.44-9.92 9.92v70c0 5.48 4.44 9.92 9.92 9.92h58.29c5.48 0 9.92-4.44 9.92-9.92v-70c0-5.48-4.44-9.92-9.92-9.92Z" clip-rule="evenodd"/><path d="M1153.01 1101.11c5.58 0 10.11-4.52 10.11-10.11s-4.53-10.11-10.11-10.11c-5.59 0-10.12 4.52-10.12 10.11s4.53 10.11 10.12 10.11Z"/><path fill-rule="evenodd" d="M1153.03 1067.77c-14.26 0-23.76 12.09-27.94 18.8-1.64 2.65-1.64 6.08 0 8.72 4.18 6.71 13.68 18.8 27.94 18.8 14.25 0 23.75-12.09 27.93-18.8 1.64-2.64 1.64-6.07 0-8.72-4.18-6.71-13.68-18.8-27.93-18.8Zm-21.5 22.81c1.85-2.97 4.76-6.93 8.58-10.07 3.77-3.12 8.06-5.15 12.92-5.15 4.85 0 9.14 2.03 12.92 5.15 3.81 3.14 6.72 7.1 8.57 10.07.04.07.09.19.09.35 0 .16-.05.28-.09.35-1.85 2.97-4.76 6.93-8.57 10.08-3.78 3.11-8.07 5.15-12.92 5.15-4.86 0-9.15-2.04-12.92-5.15-3.82-3.15-6.73-7.11-8.58-10.08a.706.706 0 0 1-.09-.35c0-.16.05-.28.09-.35Z" clip-rule="evenodd"/></g></g></g><g id="Thin-M"><g id="Outline / Doc View Outline_17"><g id="Shape_17" fill="#000"><path fill-rule="evenodd" d="M903.673 1056c0-9.66-7.835-17.5-17.5-17.5h-58.294c-9.665 0-17.5 7.84-17.5 17.5v70c0 9.66 7.835 17.5 17.5 17.5h58.294c9.665 0 17.5-7.84 17.5-17.5v-70Zm-17.5-9.92h-58.294c-5.477 0-9.917 4.44-9.917 9.92v70c0 5.48 4.44 9.92 9.917 9.92h58.294c5.477 0 9.916-4.44 9.916-9.92v-70c0-5.48-4.439-9.92-9.916-9.92Z" clip-rule="evenodd"/><path d="M857.006 1101.11c5.586 0 10.114-4.52 10.114-10.11s-4.528-10.11-10.114-10.11c-5.586 0-10.114 4.52-10.114 10.11s4.528 10.11 10.114 10.11Z"/><path fill-rule="evenodd" d="M857.026 1067.77c-14.256 0-23.758 12.09-27.933 18.8-1.645 2.65-1.645 6.08 0 8.72 4.175 6.71 13.677 18.8 27.933 18.8s23.758-12.09 27.933-18.8c1.645-2.64 1.645-6.07 0-8.72-4.175-6.71-13.677-18.8-27.933-18.8Zm-21.495 22.81c1.848-2.97 4.761-6.93 8.574-10.07 3.775-3.12 8.065-5.15 12.921-5.15s9.145 2.03 12.92 5.15c3.814 3.14 6.727 7.1 8.575 10.07.043.07.088.19.088.35 0 .16-.045.28-.088.35-1.848 2.97-4.761 6.93-8.575 10.08-3.775 3.11-8.064 5.15-12.92 5.15s-9.146-2.04-12.921-5.15c-3.813-3.15-6.726-7.11-8.574-10.08a.668.668 0 0 1-.088-.35c0-.16.044-.28.088-.35Z" clip-rule="evenodd"/></g></g></g><g id="Ultralight-M"><g id="Outline / Doc View Outline_18"><g id="Shape_18" fill="#000"><path fill-rule="evenodd" d="M607.673 1056c0-9.66-7.835-17.5-17.5-17.5h-58.294c-9.665 0-17.5 7.84-17.5 17.5v70c0 9.66 7.835 17.5 17.5 17.5h58.294c9.665 0 17.5-7.84 17.5-17.5v-70Zm-17.5-9.92h-58.294c-5.477 0-9.917 4.44-9.917 9.92v70c0 5.48 4.44 9.92 9.917 9.92h58.294c5.477 0 9.916-4.44 9.916-9.92v-70c0-5.48-4.439-9.92-9.916-9.92Z" clip-rule="evenodd"/><path d="M561.006 1101.11c5.586 0 10.114-4.52 10.114-10.11s-4.528-10.11-10.114-10.11c-5.586 0-10.114 4.52-10.114 10.11s4.528 10.11 10.114 10.11Z"/><path fill-rule="evenodd" d="M561.026 1067.77c-14.256 0-23.758 12.09-27.933 18.8-1.645 2.65-1.645 6.08 0 8.72 4.175 6.71 13.677 18.8 27.933 18.8s23.758-12.09 27.933-18.8c1.645-2.64 1.645-6.07 0-8.72-4.175-6.71-13.677-18.8-27.933-18.8Zm-21.495 22.81c1.848-2.97 4.761-6.93 8.574-10.07 3.775-3.12 8.065-5.15 12.921-5.15s9.145 2.03 12.92 5.15c3.814 3.14 6.727 7.1 8.575 10.07.043.07.088.19.088.35 0 .16-.045.28-.088.35-1.848 2.97-4.761 6.93-8.575 10.08-3.775 3.11-8.064 5.15-12.92 5.15s-9.146-2.04-12.921-5.15c-3.813-3.15-6.726-7.11-8.574-10.08a.668.668 0 0 1-.088-.35c0-.16.044-.28.088-.35Z" clip-rule="evenodd"/></g></g></g><g id="Black-S"><g id="Outline / Doc View Outline_19"><g id="Shape_19" fill="#000"><path fill-rule="evenodd" d="M2962.34 636c0-6.904-5.6-12.5-12.5-12.5h-41.64c-6.9 0-12.5 5.596-12.5 12.5v50c0 6.904 5.6 12.5 12.5 12.5h41.64c6.9 0 12.5-5.596 12.5-12.5v-50Zm-12.5-7.083h-41.64a7.082 7.082 0 0 0-7.08 7.083v50a7.082 7.082 0 0 0 7.08 7.083h41.64c3.91 0 7.08-3.171 7.08-7.083v-50a7.082 7.082 0 0 0-7.08-7.083Z" clip-rule="evenodd"/><path d="M2929 668.224c3.99 0 7.23-3.234 7.23-7.224s-3.24-7.224-7.23-7.224a7.22 7.22 0 0 0-7.22 7.224 7.22 7.22 0 0 0 7.22 7.224Z"/><path fill-rule="evenodd" d="M2929.02 644.409c-10.18 0-16.97 8.636-19.95 13.429a5.918 5.918 0 0 0 0 6.226c2.98 4.793 9.77 13.429 19.95 13.429s16.97-8.636 19.95-13.429a5.918 5.918 0 0 0 0-6.226c-2.98-4.793-9.77-13.429-19.95-13.429Zm-15.35 16.29c1.32-2.121 3.4-4.947 6.12-7.195 2.7-2.225 5.76-3.679 9.23-3.679 3.47 0 6.53 1.454 9.23 3.679 2.72 2.248 4.8 5.074 6.12 7.195a.49.49 0 0 1 0 .504c-1.32 2.121-3.4 4.947-6.12 7.195-2.7 2.225-5.76 3.679-9.23 3.679-3.47 0-6.53-1.454-9.23-3.679-2.72-2.248-4.8-5.074-6.12-7.195a.41.41 0 0 1-.07-.252.41.41 0 0 1 .07-.252Z" clip-rule="evenodd"/></g></g></g><g id="Heavy-S"><g id="Outline / Doc View Outline_20"><g id="Shape_20" fill="#000"><path fill-rule="evenodd" d="M2666.34 636c0-6.904-5.6-12.5-12.5-12.5h-41.64c-6.9 0-12.5 5.596-12.5 12.5v50c0 6.904 5.6 12.5 12.5 12.5h41.64c6.9 0 12.5-5.596 12.5-12.5v-50Zm-12.5-7.083h-41.64a7.082 7.082 0 0 0-7.08 7.083v50a7.082 7.082 0 0 0 7.08 7.083h41.64c3.91 0 7.08-3.171 7.08-7.083v-50a7.082 7.082 0 0 0-7.08-7.083Z" clip-rule="evenodd"/><path d="M2633 668.224c3.99 0 7.23-3.234 7.23-7.224s-3.24-7.224-7.23-7.224a7.22 7.22 0 0 0-7.22 7.224 7.22 7.22 0 0 0 7.22 7.224Z"/><path fill-rule="evenodd" d="M2633.02 644.409c-10.18 0-16.97 8.636-19.95 13.429a5.918 5.918 0 0 0 0 6.226c2.98 4.793 9.77 13.429 19.95 13.429s16.97-8.636 19.95-13.429a5.918 5.918 0 0 0 0-6.226c-2.98-4.793-9.77-13.429-19.95-13.429Zm-15.35 16.29c1.32-2.121 3.4-4.947 6.12-7.195 2.7-2.225 5.76-3.679 9.23-3.679 3.47 0 6.53 1.454 9.23 3.679 2.72 2.248 4.8 5.074 6.12 7.195a.49.49 0 0 1 0 .504c-1.32 2.121-3.4 4.947-6.12 7.195-2.7 2.225-5.76 3.679-9.23 3.679-3.47 0-6.53-1.454-9.23-3.679-2.72-2.248-4.8-5.074-6.12-7.195a.41.41 0 0 1-.07-.252.41.41 0 0 1 .07-.252Z" clip-rule="evenodd"/></g></g></g><g id="Bold-S"><g id="Outline / Doc View Outline_21"><g id="Shape_21" fill="#000"><path fill-rule="evenodd" d="M2370.34 636c0-6.904-5.6-12.5-12.5-12.5h-41.64c-6.9 0-12.5 5.596-12.5 12.5v50c0 6.904 5.6 12.5 12.5 12.5h41.64c6.9 0 12.5-5.596 12.5-12.5v-50Zm-12.5-7.083h-41.64a7.082 7.082 0 0 0-7.08 7.083v50a7.082 7.082 0 0 0 7.08 7.083h41.64c3.91 0 7.08-3.171 7.08-7.083v-50a7.082 7.082 0 0 0-7.08-7.083Z" clip-rule="evenodd"/><path d="M2337 668.224c3.99 0 7.23-3.234 7.23-7.224s-3.24-7.224-7.23-7.224a7.22 7.22 0 0 0-7.22 7.224 7.22 7.22 0 0 0 7.22 7.224Z"/><path fill-rule="evenodd" d="M2337.02 644.409c-10.18 0-16.97 8.636-19.95 13.429a5.918 5.918 0 0 0 0 6.226c2.98 4.793 9.77 13.429 19.95 13.429s16.97-8.636 19.95-13.429a5.918 5.918 0 0 0 0-6.226c-2.98-4.793-9.77-13.429-19.95-13.429Zm-15.35 16.29c1.32-2.121 3.4-4.947 6.12-7.195 2.7-2.225 5.76-3.679 9.23-3.679 3.47 0 6.53 1.454 9.23 3.679 2.72 2.248 4.8 5.074 6.12 7.195a.49.49 0 0 1 0 .504c-1.32 2.121-3.4 4.947-6.12 7.195-2.7 2.225-5.76 3.679-9.23 3.679-3.47 0-6.53-1.454-9.23-3.679-2.72-2.248-4.8-5.074-6.12-7.195a.41.41 0 0 1-.07-.252.41.41 0 0 1 .07-.252Z" clip-rule="evenodd"/></g></g></g><g id="Semibold-S"><g id="Outline / Doc View Outline_22"><g id="Shape_22" fill="#000"><path fill-rule="evenodd" d="M2074.34 636c0-6.904-5.6-12.5-12.5-12.5h-41.64c-6.9 0-12.5 5.596-12.5 12.5v50c0 6.904 5.6 12.5 12.5 12.5h41.64c6.9 0 12.5-5.596 12.5-12.5v-50Zm-12.5-7.083h-41.64a7.082 7.082 0 0 0-7.08 7.083v50a7.082 7.082 0 0 0 7.08 7.083h41.64c3.91 0 7.08-3.171 7.08-7.083v-50a7.082 7.082 0 0 0-7.08-7.083Z" clip-rule="evenodd"/><path d="M2041 668.224c3.99 0 7.23-3.234 7.23-7.224s-3.24-7.224-7.23-7.224a7.22 7.22 0 0 0-7.22 7.224 7.22 7.22 0 0 0 7.22 7.224Z"/><path fill-rule="evenodd" d="M2041.02 644.409c-10.18 0-16.97 8.636-19.95 13.429a5.918 5.918 0 0 0 0 6.226c2.98 4.793 9.77 13.429 19.95 13.429s16.97-8.636 19.95-13.429a5.918 5.918 0 0 0 0-6.226c-2.98-4.793-9.77-13.429-19.95-13.429Zm-15.35 16.29c1.32-2.121 3.4-4.947 6.12-7.195 2.7-2.225 5.76-3.679 9.23-3.679 3.47 0 6.53 1.454 9.23 3.679 2.72 2.248 4.8 5.074 6.12 7.195a.49.49 0 0 1 0 .504c-1.32 2.121-3.4 4.947-6.12 7.195-2.7 2.225-5.76 3.679-9.23 3.679-3.47 0-6.53-1.454-9.23-3.679-2.72-2.248-4.8-5.074-6.12-7.195a.41.41 0 0 1-.07-.252.41.41 0 0 1 .07-.252Z" clip-rule="evenodd"/></g></g></g><g id="Medium-S"><g id="Outline / Doc View Outline_23"><g id="Shape_23" fill="#000"><path fill-rule="evenodd" d="M1778.34 636c0-6.904-5.6-12.5-12.5-12.5h-41.64c-6.9 0-12.5 5.596-12.5 12.5v50c0 6.904 5.6 12.5 12.5 12.5h41.64c6.9 0 12.5-5.596 12.5-12.5v-50Zm-12.5-7.083h-41.64a7.082 7.082 0 0 0-7.08 7.083v50a7.082 7.082 0 0 0 7.08 7.083h41.64c3.91 0 7.08-3.171 7.08-7.083v-50a7.082 7.082 0 0 0-7.08-7.083Z" clip-rule="evenodd"/><path d="M1745 668.224c3.99 0 7.23-3.234 7.23-7.224s-3.24-7.224-7.23-7.224a7.22 7.22 0 0 0-7.22 7.224 7.22 7.22 0 0 0 7.22 7.224Z"/><path fill-rule="evenodd" d="M1745.02 644.409c-10.18 0-16.97 8.636-19.95 13.429a5.918 5.918 0 0 0 0 6.226c2.98 4.793 9.77 13.429 19.95 13.429s16.97-8.636 19.95-13.429a5.918 5.918 0 0 0 0-6.226c-2.98-4.793-9.77-13.429-19.95-13.429Zm-15.35 16.29c1.32-2.121 3.4-4.947 6.12-7.195 2.7-2.225 5.76-3.679 9.23-3.679 3.47 0 6.53 1.454 9.23 3.679 2.72 2.248 4.8 5.074 6.12 7.195a.49.49 0 0 1 0 .504c-1.32 2.121-3.4 4.947-6.12 7.195-2.7 2.225-5.76 3.679-9.23 3.679-3.47 0-6.53-1.454-9.23-3.679-2.72-2.248-4.8-5.074-6.12-7.195a.41.41 0 0 1-.07-.252.41.41 0 0 1 .07-.252Z" clip-rule="evenodd"/></g></g></g><g id="Regular-S"><g id="Outline / Doc View Outline_24"><g id="Shape_24" fill="#000"><path fill-rule="evenodd" d="M1482.34 636c0-6.904-5.6-12.5-12.5-12.5h-41.64c-6.9 0-12.5 5.596-12.5 12.5v50c0 6.904 5.6 12.5 12.5 12.5h41.64c6.9 0 12.5-5.596 12.5-12.5v-50Zm-12.5-7.083h-41.64a7.082 7.082 0 0 0-7.08 7.083v50a7.082 7.082 0 0 0 7.08 7.083h41.64c3.91 0 7.08-3.171 7.08-7.083v-50a7.082 7.082 0 0 0-7.08-7.083Z" clip-rule="evenodd"/><path d="M1449 668.224c3.99 0 7.23-3.234 7.23-7.224s-3.24-7.224-7.23-7.224a7.22 7.22 0 0 0-7.22 7.224 7.22 7.22 0 0 0 7.22 7.224Z"/><path fill-rule="evenodd" d="M1449.02 644.409c-10.18 0-16.97 8.636-19.95 13.429a5.918 5.918 0 0 0 0 6.226c2.98 4.793 9.77 13.429 19.95 13.429s16.97-8.636 19.95-13.429a5.918 5.918 0 0 0 0-6.226c-2.98-4.793-9.77-13.429-19.95-13.429Zm-15.35 16.29c1.32-2.121 3.4-4.947 6.12-7.195 2.7-2.225 5.76-3.679 9.23-3.679 3.47 0 6.53 1.454 9.23 3.679 2.72 2.248 4.8 5.074 6.12 7.195a.49.49 0 0 1 0 .504c-1.32 2.121-3.4 4.947-6.12 7.195-2.7 2.225-5.76 3.679-9.23 3.679-3.47 0-6.53-1.454-9.23-3.679-2.72-2.248-4.8-5.074-6.12-7.195a.41.41 0 0 1-.07-.252.41.41 0 0 1 .07-.252Z" clip-rule="evenodd"/></g></g></g><g id="Light-S"><g id="Outline / Doc View Outline_25"><g id="Shape_25" fill="#000"><path fill-rule="evenodd" d="M1186.34 636c0-6.904-5.6-12.5-12.5-12.5h-41.64c-6.9 0-12.5 5.596-12.5 12.5v50c0 6.904 5.6 12.5 12.5 12.5h41.64c6.9 0 12.5-5.596 12.5-12.5v-50Zm-12.5-7.083h-41.64a7.082 7.082 0 0 0-7.08 7.083v50a7.082 7.082 0 0 0 7.08 7.083h41.64c3.91 0 7.08-3.171 7.08-7.083v-50a7.082 7.082 0 0 0-7.08-7.083Z" clip-rule="evenodd"/><path d="M1153 668.224c3.99 0 7.23-3.234 7.23-7.224s-3.24-7.224-7.23-7.224a7.22 7.22 0 0 0-7.22 7.224 7.22 7.22 0 0 0 7.22 7.224Z"/><path fill-rule="evenodd" d="M1153.02 644.409c-10.18 0-16.97 8.636-19.95 13.429a5.918 5.918 0 0 0 0 6.226c2.98 4.793 9.77 13.429 19.95 13.429s16.97-8.636 19.95-13.429a5.918 5.918 0 0 0 0-6.226c-2.98-4.793-9.77-13.429-19.95-13.429Zm-15.35 16.29c1.32-2.121 3.4-4.947 6.12-7.195 2.7-2.225 5.76-3.679 9.23-3.679 3.47 0 6.53 1.454 9.23 3.679 2.72 2.248 4.8 5.074 6.12 7.195a.49.49 0 0 1 0 .504c-1.32 2.121-3.4 4.947-6.12 7.195-2.7 2.225-5.76 3.679-9.23 3.679-3.47 0-6.53-1.454-9.23-3.679-2.72-2.248-4.8-5.074-6.12-7.195a.41.41 0 0 1-.07-.252.41.41 0 0 1 .07-.252Z" clip-rule="evenodd"/></g></g></g><g id="Thin-S"><g id="Outline / Doc View Outline_26"><g id="Shape_26" fill="#000"><path fill-rule="evenodd" d="M890.338 636c0-6.904-5.597-12.5-12.5-12.5h-41.639c-6.903 0-12.5 5.596-12.5 12.5v50c0 6.904 5.597 12.5 12.5 12.5h41.639c6.903 0 12.5-5.596 12.5-12.5v-50Zm-12.5-7.083h-41.639a7.083 7.083 0 0 0-7.083 7.083v50a7.083 7.083 0 0 0 7.083 7.083h41.639a7.083 7.083 0 0 0 7.083-7.083v-50a7.083 7.083 0 0 0-7.083-7.083Z" clip-rule="evenodd"/><path d="M857.004 668.224a7.224 7.224 0 1 0 .001-14.449 7.224 7.224 0 0 0-.001 14.449Z"/><path fill-rule="evenodd" d="M857.018 644.409c-10.183 0-16.97 8.636-19.952 13.429a5.943 5.943 0 0 0 0 6.226c2.982 4.793 9.769 13.429 19.952 13.429 10.184 0 16.971-8.636 19.953-13.429a5.943 5.943 0 0 0 0-6.226c-2.982-4.793-9.769-13.429-19.953-13.429Zm-15.353 16.29c1.32-2.121 3.401-4.947 6.125-7.195 2.696-2.225 5.76-3.679 9.228-3.679 3.469 0 6.533 1.454 9.229 3.679 2.724 2.248 4.805 5.074 6.125 7.195.031.05.063.137.063.252a.487.487 0 0 1-.063.252c-1.32 2.121-3.401 4.947-6.125 7.195-2.696 2.225-5.76 3.679-9.229 3.679-3.468 0-6.532-1.454-9.228-3.679-2.724-2.248-4.805-5.074-6.125-7.195a.487.487 0 0 1-.063-.252c0-.115.032-.202.063-.252Z" clip-rule="evenodd"/></g></g></g><g id="Ultralight-S"><g id="Outline / Doc View Outline_27"><g id="Shape_27" fill="#000"><path fill-rule="evenodd" d="M594.338 636c0-6.904-5.597-12.5-12.5-12.5h-41.639c-6.903 0-12.5 5.596-12.5 12.5v50c0 6.904 5.597 12.5 12.5 12.5h41.639c6.903 0 12.5-5.596 12.5-12.5v-50Zm-12.5-7.083h-41.639a7.083 7.083 0 0 0-7.083 7.083v50a7.083 7.083 0 0 0 7.083 7.083h41.639a7.083 7.083 0 0 0 7.083-7.083v-50a7.083 7.083 0 0 0-7.083-7.083Z" clip-rule="evenodd"/><path d="M561.004 668.224a7.224 7.224 0 1 0 .001-14.449 7.224 7.224 0 0 0-.001 14.449Z"/><path fill-rule="evenodd" d="M561.018 644.409c-10.183 0-16.97 8.636-19.952 13.429a5.943 5.943 0 0 0 0 6.226c2.982 4.793 9.769 13.429 19.952 13.429 10.184 0 16.971-8.636 19.953-13.429a5.943 5.943 0 0 0 0-6.226c-2.982-4.793-9.769-13.429-19.953-13.429Zm-15.353 16.29c1.32-2.121 3.401-4.947 6.125-7.195 2.696-2.225 5.76-3.679 9.228-3.679 3.469 0 6.533 1.454 9.229 3.679 2.724 2.248 4.805 5.074 6.125 7.195.031.05.063.137.063.252a.487.487 0 0 1-.063.252c-1.32 2.121-3.401 4.947-6.125 7.195-2.696 2.225-5.76 3.679-9.229 3.679-3.468 0-6.532-1.454-9.228-3.679-2.724-2.248-4.805-5.074-6.125-7.195a.487.487 0 0 1-.063-.252c0-.115.032-.202.063-.252Z" clip-rule="evenodd"/></g></g></g></g></g><defs><clipPath id="clip0_0_1"><path fill="#fff" d="M0 0h3300v2200H0z"/></clipPath></defs></svg>