<svg xmlns="http://www.w3.org/2000/svg" width="3300" height="2200" fill="none"><path fill="#E5E5E5" d="M0 0h3300v2200H0z"/><g id="Category / Outline / Bonus" clip-path="url(#clip0_0_1)"><g id="Notes"><path id="artboard" fill="#fff" d="M3300 0H0v2200h3300V0Z"/><path id="Vector" stroke="#000" stroke-width=".5" d="M263 292h2773"/><text xml:space="preserve" id="Weight/Scale Variations" fill="#000" font-family="Roboto" font-size="12" letter-spacing="0em" style="white-space:pre"><tspan x="263" y="321.102">Weight/Scale Variations</tspan></text><text xml:space="preserve" id="Ultralight" fill="#000" font-family="Roboto" font-size="12" letter-spacing="0em" style="white-space:pre"><tspan x="535.211" y="321.102">Ultralight</tspan></text><text xml:space="preserve" id="Thin" fill="#000" font-family="Roboto" font-size="12" letter-spacing="0em" style="white-space:pre"><tspan x="844.422" y="321.102">Thin</tspan></text><text xml:space="preserve" id="Light" fill="#000" font-family="Roboto" font-size="12" letter-spacing="0em" style="white-space:pre"><tspan x="1139.63" y="321.102">Light</tspan></text><text xml:space="preserve" id="Regular" fill="#000" font-family="Roboto" font-size="12" letter-spacing="0em" style="white-space:pre"><tspan x="1429.34" y="321.102">Regular</tspan></text><text xml:space="preserve" id="Medium" fill="#000" font-family="Roboto" font-size="12" letter-spacing="0em" style="white-space:pre"><tspan x="1724.56" y="321.102">Medium</tspan></text><text xml:space="preserve" id="Semibold" fill="#000" font-family="Roboto" font-size="12" letter-spacing="0em" style="white-space:pre"><tspan x="2017.77" y="321.102">Semibold</tspan></text><text xml:space="preserve" id="Bold" fill="#000" font-family="Roboto" font-size="12" letter-spacing="0em" style="white-space:pre"><tspan x="2327.48" y="321.102">Bold</tspan></text><text xml:space="preserve" id="Heavy" fill="#000" font-family="Roboto" font-size="12" letter-spacing="0em" style="white-space:pre"><tspan x="2620.19" y="321.102">Heavy</tspan></text><text xml:space="preserve" id="Black" fill="#000" font-family="Roboto" font-size="12" letter-spacing="0em" style="white-space:pre"><tspan x="2918.4" y="321.102">Black</tspan></text><path id="Vector_2" stroke="#000" stroke-width=".5" d="M263 1903h2773"/><g id="Group"><path id="Vector_3" fill="#000" d="M272.248 1933.83c4.307 0 7.891-3.57 7.891-7.88 0-4.31-3.594-7.88-7.901-7.88-4.297 0-7.871 3.57-7.871 7.88 0 4.31 3.584 7.88 7.881 7.88Zm0-1.48c-3.545 0-6.377-2.84-6.377-6.4 0-3.55 2.822-6.4 6.367-6.4a6.388 6.388 0 0 1 6.406 6.4 6.361 6.361 0 0 1-6.396 6.4Zm-.019-2.78c.468 0 .742-.31.742-.83v-2.06h2.226c.498 0 .84-.25.84-.72 0-.48-.322-.74-.84-.74h-2.226v-2.23c0-.52-.274-.84-.742-.84-.469 0-.723.34-.723.84v2.23h-2.207c-.518 0-.85.26-.85.74 0 .47.352.72.85.72h2.207v2.06c0 .5.254.83.723.83Z"/></g><g id="Group_2"><path id="Vector_4" fill="#000" d="M293.215 1935.91c5.449 0 9.961-4.51 9.961-9.96 0-5.44-4.522-9.96-9.971-9.96-5.439 0-9.951 4.52-9.951 9.96 0 5.45 4.521 9.96 9.961 9.96Zm0-1.66a8.26 8.26 0 0 1-8.291-8.3c0-4.6 3.672-8.3 8.281-8.3a8.29 8.29 0 0 1 8.311 8.3 8.263 8.263 0 0 1-8.301 8.3Zm-.02-3.66c.518 0 .83-.36.83-.93v-2.89h3.057c.547 0 .928-.28.928-.8 0-.53-.362-.83-.928-.83h-3.057v-3.07c0-.57-.312-.93-.83-.93-.517 0-.81.38-.81.93v3.07h-3.047c-.567 0-.938.3-.938.83 0 .52.391.8.938.8h3.047v2.89c0 .55.293.93.81.93Z"/></g><g id="Group_3"><path id="Vector_5" fill="#000" d="M319.895 1938.67c6.962 0 12.724-5.75 12.724-12.71 0-6.97-5.771-12.72-12.734-12.72-6.953 0-12.705 5.75-12.705 12.72 0 6.96 5.761 12.71 12.715 12.71Zm0-1.81a10.874 10.874 0 0 1-10.889-10.9c0-6.04 4.844-10.9 10.879-10.9 6.045 0 10.898 4.86 10.908 10.9a10.87 10.87 0 0 1-10.898 10.9Zm-.02-4.93c.566 0 .918-.39.918-.99v-4.07h4.238c.586 0 1.006-.34 1.006-.89 0-.58-.39-.92-1.006-.92h-4.238v-4.25c0-.61-.352-1.01-.918-1.01-.566 0-.889.41-.889 1.01v4.25h-4.228c-.615 0-1.026.34-1.026.92 0 .55.43.89 1.026.89h4.228v4.07c0 .58.323.99.889.99Z"/></g><text xml:space="preserve" id="Design Variations" fill="#000" font-family="Roboto" font-size="12" letter-spacing="0em" style="white-space:pre"><tspan x="263" y="1952.1">Design Variations</tspan></text><text xml:space="preserve" id="Symbols are supported in up to nine weights and three scales." fill="#000" font-family="Roboto" font-size="12" letter-spacing="0em" style="white-space:pre"><tspan x="263" y="1970.1">Symbols are supported in up to nine weights and three scales.</tspan></text><text xml:space="preserve" id="For optimal layout with text and other symbols, vertically align" fill="#000" font-family="Roboto" font-size="12" letter-spacing="0em" style="white-space:pre"><tspan x="263" y="1988.1">For optimal layout with text and other symbols, vertically align</tspan></text><text xml:space="preserve" id="symbols with the adjacent text." fill="#000" font-family="Roboto" font-size="12" letter-spacing="0em" style="white-space:pre"><tspan x="263" y="2006.1">symbols with the adjacent text.</tspan></text><path id="Vector_6" fill="#00AEEF" d="M779 1919h-3v14h3v-14Z" opacity=".4"/><g id="Group_4"><path id="Vector_7" fill="#000" d="M789.527 1933h1.846l-5.195-14.09h-1.739l-5.195 14.09h1.846l1.416-4.04h5.605l1.416 4.04Zm-4.248-11.96h.059l2.256 6.43h-4.571l2.256-6.43Z"/></g><path id="Vector_8" fill="#00AEEF" d="M794.617 1919h-3v14h3v-14Z" opacity=".4"/><text xml:space="preserve" id="Margins" fill="#000" font-family="Roboto" font-size="12" letter-spacing="0em" style="white-space:pre"><tspan x="776" y="1952.1">Margins</tspan></text><text xml:space="preserve" id="Leading and trailing margins on the left and right side of each symbol" fill="#000" font-family="Roboto" font-size="12" letter-spacing="0em" style="white-space:pre"><tspan x="776" y="1970.1">Leading and trailing margins on the left and right side of each symbol</tspan></text><text xml:space="preserve" id="can be adjusted by modifying the width of the blue rectangles." fill="#000" font-family="Roboto" font-size="12" letter-spacing="0em" style="white-space:pre"><tspan x="776" y="1988.1">can be adjusted by modifying the width of the blue rectangles.</tspan></text><text xml:space="preserve" id="Modifications are automatically applied proportionally to all" fill="#000" font-family="Roboto" font-size="12" letter-spacing="0em" style="white-space:pre"><tspan x="776" y="2006.1">Modifications are automatically applied proportionally to all</tspan></text><text xml:space="preserve" id="scales and weights." fill="#000" font-family="Roboto" font-size="12" letter-spacing="0em" style="white-space:pre"><tspan x="776" y="2024.1">scales and weights.</tspan></text><g id="Group_5"><path id="Vector_9" fill="#000" d="m1291.83 1936.11 1.54 1.55c.85.83 1.82.76 2.69-.2l10.21-11.12c.43.29.83.28 1.29.18l1.05-.21.69.69-.05.52c-.06.53.1.95.6 1.45l.81.81c.51.5 1.16.53 1.64.05l3.25-3.25c.48-.48.46-1.13-.05-1.64l-.82-.82c-.49-.5-.91-.67-1.44-.59l-.53.05-.65-.66.28-1.14c.15-.57 0-1.04-.63-1.64l-2.41-2.39c-3.54-3.53-8.07-3.42-11.19-.29-.42.43-.47 1.02-.19 1.45.23.37.71.59 1.35.43 1.52-.38 3.03-.27 4.51.74l-.62 1.58c-.23.59-.22 1.07.02 1.5l-11.16 10.28c-.94.87-1.05 1.81-.19 2.67Zm7.84-18.26c2.67-1.99 5.98-1.68 8.38.73l2.63 2.61c.23.24.26.42.2.72l-.38 1.56 1.58 1.57.96-.09c.29-.03.37-.01.6.22l.62.62-2.75 2.75-.63-.62c-.22-.22-.24-.32-.21-.6l.09-.96-1.57-1.56-1.62.31c-.28.06-.43.06-.66-.19l-2.18-2.17c-.22-.24-.25-.38-.12-.7l.94-2.27c-1.6-1.54-3.71-2.39-5.75-1.73-.09.03-.16.01-.19-.03-.02-.05-.02-.1.06-.17Zm-6.57 17.56c-.49-.5-.31-.8.02-1.1l10.96-10.12 1.23 1.23-10.16 10.93c-.3.33-.68.43-1.08.03l-.97-.97Z"/></g><text xml:space="preserve" id="Exporting" fill="#000" font-family="Roboto" font-size="12" letter-spacing="0em" style="white-space:pre"><tspan x="1289" y="1952.1">Exporting</tspan></text><text xml:space="preserve" id="Symbols should be outlined when exporting to ensure the" fill="#000" font-family="Roboto" font-size="12" letter-spacing="0em" style="white-space:pre"><tspan x="1289" y="1970.1">Symbols should be outlined when exporting to ensure the</tspan></text><text xml:space="preserve" id="design is preserved when submitting to Xcode." fill="#000" font-family="Roboto" font-size="12" letter-spacing="0em" style="white-space:pre"><tspan x="1289" y="1988.1">design is preserved when submitting to Xcode.</tspan></text><text xml:space="preserve" id="template-version" fill="#000" font-family="Roboto" font-size="12" letter-spacing="0em" style="white-space:pre"><tspan x="2958" y="1932.1">Template v.1.0</tspan></text><text xml:space="preserve" id="Generated from pencil.circle" fill="#000" font-family="Roboto" font-size="12" letter-spacing="0em" style="white-space:pre"><tspan x="2885" y="1950.1">Generated from pencil.circle</tspan></text><text xml:space="preserve" id="Typeset at 100 points" fill="#000" font-family="Roboto" font-size="12" letter-spacing="0em" style="white-space:pre"><tspan x="2921" y="1968.1">Typeset at 100 points</tspan></text><text xml:space="preserve" id="Small" fill="#000" font-family="Roboto" font-size="12" letter-spacing="0em" style="white-space:pre"><tspan x="263" y="725.102">Small</tspan></text><text xml:space="preserve" id="Medium_2" fill="#000" font-family="Roboto" font-size="12" letter-spacing="0em" style="white-space:pre"><tspan x="263" y="1155.1">Medium</tspan></text><text xml:space="preserve" id="Large" fill="#000" font-family="Roboto" font-size="12" letter-spacing="0em" style="white-space:pre"><tspan x="263" y="1585.1">Large</tspan></text></g><g id="Guides"><g id="H-reference"><path id="Vector_10" fill="#27AAE1" d="M393.932 695.998h2.734l-27.1-70.459h-2.49l-27.099 70.459h2.685l9.278-24.463h32.763l9.229 24.463Zm-25.733-67.09h.244l15.381 40.381h-31.006l15.381-40.381Z"/></g><path id="Baseline-S" stroke="#27AAE1" stroke-width=".577" d="M263 696h2773"/><path id="Capline-S" stroke="#27AAE1" stroke-width=".577" d="M263 626h2773"/><g id="H-reference_2"><path id="Vector_11" fill="#27AAE1" d="M393.932 1126h2.734l-27.1-70.46h-2.49L339.977 1126h2.685l9.278-24.46h32.763l9.229 24.46Zm-25.733-67.09h.244l15.381 40.38h-31.006l15.381-40.38Z"/></g><path id="Baseline-M" stroke="#27AAE1" stroke-width=".577" d="M263 1126h2773"/><path id="Capline-M" stroke="#27AAE1" stroke-width=".577" d="M263 1056h2773"/><g id="H-reference_3"><path id="Vector_12" fill="#27AAE1" d="M393.932 1556h2.734l-27.1-70.46h-2.49L339.977 1556h2.685l9.278-24.46h32.763l9.229 24.46Zm-25.733-67.09h.244l15.381 40.38h-31.006l15.381-40.38Z"/></g><g id="Group 1" stroke="#27AAE1" stroke-width=".577"><path id="Baseline-L" d="M263 1556h2773"/><path id="Capline-L" d="M263 1486h2773"/></g><path id="left-margin" fill="#00AEEF" d="M1402.04 1030.79h-8.74v119.33h8.74v-119.33Z" opacity=".4"/><path id="right-margin" fill="#00AEEF" d="M1505.39 1030.79h-8.74v119.33h8.74v-119.33Z" opacity=".4"/></g><g id="Symbols"><g id="Black-L"><g id="Outline / Bonus Outline"><path id="Shape" fill="#000" fill-rule="evenodd" d="M2969.22 1465.51c1 4.69.17 9.28-1.96 13.09 12.07.4 21.74 10.31 21.74 22.48v57.43c0 12.42-10.07 22.5-22.5 22.5h-75c-12.43 0-22.5-10.08-22.5-22.5v-57.43c0-12.17 9.67-22.08 21.74-22.48-2.13-3.81-2.96-8.4-1.96-13.09l.13-.63a17.76 17.76 0 0 1 11.95-13.21c10.91-3.49 22.19.96 28.14 9.73 5.95-8.77 17.23-13.22 28.14-9.73a17.76 17.76 0 0 1 11.95 13.21l.13.63Zm-45.14 13.03h-16.86c-5.79 0-10.11-5.34-8.9-11l.13-.63c.6-2.81 2.65-5.08 5.38-5.95 8.94-2.86 18.28 3.05 19.54 12.34l.71 5.23v.01Zm9.84 0h16.86c5.79 0 10.11-5.34 8.9-11l-.13-.63a7.985 7.985 0 0 0-5.38-5.95c-8.94-2.86-18.28 3.05-19.54 12.34l-.71 5.23v.01Zm21.33 9.79h11.25c7.04 0 12.75 5.71 12.75 12.75v19.8h-24v-32.55Zm0 42.3v22.61c0 4.28-4.84 6.76-8.31 4.27l-17.94-12.89-17.94 12.89c-3.47 2.49-8.31.01-8.31-4.27v-22.61h-24v27.88c0 7.04 5.71 12.75 12.75 12.75h75c7.04 0 12.75-5.71 12.75-12.75v-27.88h-24Zm-52.5-9.75h-24v-19.8c0-7.04 5.71-12.75 12.75-12.75h11.25v32.55Zm42.75 23.59v-56.14h-33v56.14l10.81-7.77a9.76 9.76 0 0 1 11.38 0l10.81 7.77Z" clip-rule="evenodd"/></g></g><g id="Heavy-L"><g id="Outline / Bonus Outline_2"><path id="Shape_2" fill="#000" fill-rule="evenodd" d="M2673.22 1465.51c1 4.69.17 9.28-1.96 13.09 12.07.4 21.74 10.31 21.74 22.48v57.43c0 12.42-10.07 22.5-22.5 22.5h-75c-12.43 0-22.5-10.08-22.5-22.5v-57.43c0-12.17 9.67-22.08 21.74-22.48-2.13-3.81-2.96-8.4-1.96-13.09l.13-.63a17.76 17.76 0 0 1 11.95-13.21c10.91-3.49 22.19.96 28.14 9.73 5.95-8.77 17.23-13.22 28.14-9.73a17.76 17.76 0 0 1 11.95 13.21l.13.63Zm-45.14 13.03h-16.86c-5.79 0-10.11-5.34-8.9-11l.13-.63c.6-2.81 2.65-5.08 5.38-5.95 8.94-2.86 18.28 3.05 19.54 12.34l.71 5.23v.01Zm9.84 0h16.86c5.79 0 10.11-5.34 8.9-11l-.13-.63a7.985 7.985 0 0 0-5.38-5.95c-8.94-2.86-18.28 3.05-19.54 12.34l-.71 5.23v.01Zm21.33 9.79h11.25c7.04 0 12.75 5.71 12.75 12.75v19.8h-24v-32.55Zm0 42.3v22.61c0 4.28-4.84 6.76-8.31 4.27l-17.94-12.89-17.94 12.89c-3.47 2.49-8.31.01-8.31-4.27v-22.61h-24v27.88c0 7.04 5.71 12.75 12.75 12.75h75c7.04 0 12.75-5.71 12.75-12.75v-27.88h-24Zm-52.5-9.75h-24v-19.8c0-7.04 5.71-12.75 12.75-12.75h11.25v32.55Zm42.75 23.59v-56.14h-33v56.14l10.81-7.77a9.76 9.76 0 0 1 11.38 0l10.81 7.77Z" clip-rule="evenodd"/></g></g><g id="Bold-L"><g id="Outline / Bonus Outline_3"><path id="Shape_3" fill="#000" fill-rule="evenodd" d="M2377.22 1465.51c1 4.69.17 9.28-1.96 13.09 12.07.4 21.74 10.31 21.74 22.48v57.43c0 12.42-10.07 22.5-22.5 22.5h-75c-12.43 0-22.5-10.08-22.5-22.5v-57.43c0-12.17 9.67-22.08 21.74-22.48-2.13-3.81-2.96-8.4-1.96-13.09l.13-.63a17.76 17.76 0 0 1 11.95-13.21c10.91-3.49 22.19.96 28.14 9.73 5.95-8.77 17.23-13.22 28.14-9.73a17.76 17.76 0 0 1 11.95 13.21l.13.63Zm-45.14 13.03h-16.86c-5.79 0-10.11-5.34-8.9-11l.13-.63c.6-2.81 2.65-5.08 5.38-5.95 8.94-2.86 18.28 3.05 19.54 12.34l.71 5.23v.01Zm9.84 0h16.86c5.79 0 10.11-5.34 8.9-11l-.13-.63a7.985 7.985 0 0 0-5.38-5.95c-8.94-2.86-18.28 3.05-19.54 12.34l-.71 5.23v.01Zm21.33 9.79h11.25c7.04 0 12.75 5.71 12.75 12.75v19.8h-24v-32.55Zm0 42.3v22.61c0 4.28-4.84 6.76-8.31 4.27l-17.94-12.89-17.94 12.89c-3.47 2.49-8.31.01-8.31-4.27v-22.61h-24v27.88c0 7.04 5.71 12.75 12.75 12.75h75c7.04 0 12.75-5.71 12.75-12.75v-27.88h-24Zm-52.5-9.75h-24v-19.8c0-7.04 5.71-12.75 12.75-12.75h11.25v32.55Zm42.75 23.59v-56.14h-33v56.14l10.81-7.77a9.76 9.76 0 0 1 11.38 0l10.81 7.77Z" clip-rule="evenodd"/></g></g><g id="Semibold-L"><g id="Outline / Bonus Outline_4"><path id="Shape_4" fill="#000" fill-rule="evenodd" d="M2081.22 1465.51c1 4.69.17 9.28-1.96 13.09 12.07.4 21.74 10.31 21.74 22.48v57.43c0 12.42-10.07 22.5-22.5 22.5h-75c-12.43 0-22.5-10.08-22.5-22.5v-57.43c0-12.17 9.67-22.08 21.74-22.48-2.13-3.81-2.96-8.4-1.96-13.09l.13-.63a17.76 17.76 0 0 1 11.95-13.21c10.91-3.49 22.19.96 28.14 9.73 5.95-8.77 17.23-13.22 28.14-9.73a17.76 17.76 0 0 1 11.95 13.21l.13.63Zm-45.14 13.03h-16.86c-5.79 0-10.11-5.34-8.9-11l.13-.63c.6-2.81 2.65-5.08 5.38-5.95 8.94-2.86 18.28 3.05 19.54 12.34l.71 5.23v.01Zm9.84 0h16.86c5.79 0 10.11-5.34 8.9-11l-.13-.63a7.985 7.985 0 0 0-5.38-5.95c-8.94-2.86-18.28 3.05-19.54 12.34l-.71 5.23v.01Zm21.33 9.79h11.25c7.04 0 12.75 5.71 12.75 12.75v19.8h-24v-32.55Zm0 42.3v22.61c0 4.28-4.84 6.76-8.31 4.27l-17.94-12.89-17.94 12.89c-3.47 2.49-8.31.01-8.31-4.27v-22.61h-24v27.88c0 7.04 5.71 12.75 12.75 12.75h75c7.04 0 12.75-5.71 12.75-12.75v-27.88h-24Zm-52.5-9.75h-24v-19.8c0-7.04 5.71-12.75 12.75-12.75h11.25v32.55Zm42.75 23.59v-56.14h-33v56.14l10.81-7.77a9.76 9.76 0 0 1 11.38 0l10.81 7.77Z" clip-rule="evenodd"/></g></g><g id="Medium-L"><g id="Outline / Bonus Outline_5"><path id="Shape_5" fill="#000" fill-rule="evenodd" d="M1785.22 1465.51c1 4.69.17 9.28-1.96 13.09 12.07.4 21.74 10.31 21.74 22.48v57.43c0 12.42-10.07 22.5-22.5 22.5h-75c-12.43 0-22.5-10.08-22.5-22.5v-57.43c0-12.17 9.67-22.08 21.74-22.48-2.13-3.81-2.96-8.4-1.96-13.09l.13-.63a17.76 17.76 0 0 1 11.95-13.21c10.91-3.49 22.19.96 28.14 9.73 5.95-8.77 17.23-13.22 28.14-9.73a17.76 17.76 0 0 1 11.95 13.21l.13.63Zm-45.14 13.03h-16.86c-5.79 0-10.11-5.34-8.9-11l.13-.63c.6-2.81 2.65-5.08 5.38-5.95 8.94-2.86 18.28 3.05 19.54 12.34l.71 5.23v.01Zm9.84 0h16.86c5.79 0 10.11-5.34 8.9-11l-.13-.63a7.985 7.985 0 0 0-5.38-5.95c-8.94-2.86-18.28 3.05-19.54 12.34l-.71 5.23v.01Zm21.33 9.79h11.25c7.04 0 12.75 5.71 12.75 12.75v19.8h-24v-32.55Zm0 42.3v22.61c0 4.28-4.84 6.76-8.31 4.27l-17.94-12.89-17.94 12.89c-3.47 2.49-8.31.01-8.31-4.27v-22.61h-24v27.88c0 7.04 5.71 12.75 12.75 12.75h75c7.04 0 12.75-5.71 12.75-12.75v-27.88h-24Zm-52.5-9.75h-24v-19.8c0-7.04 5.71-12.75 12.75-12.75h11.25v32.55Zm42.75 23.59v-56.14h-33v56.14l10.81-7.77a9.76 9.76 0 0 1 11.38 0l10.81 7.77Z" clip-rule="evenodd"/></g></g><g id="Regular-L"><g id="Outline / Bonus Outline_6"><path id="Shape_6" fill="#000" fill-rule="evenodd" d="M1489.22 1465.51c1 4.69.17 9.28-1.96 13.09 12.07.4 21.74 10.31 21.74 22.48v57.43c0 12.42-10.07 22.5-22.5 22.5h-75c-12.43 0-22.5-10.08-22.5-22.5v-57.43c0-12.17 9.67-22.08 21.74-22.48-2.13-3.81-2.96-8.4-1.96-13.09l.13-.63a17.76 17.76 0 0 1 11.95-13.21c10.91-3.49 22.19.96 28.14 9.73 5.95-8.77 17.23-13.22 28.14-9.73a17.76 17.76 0 0 1 11.95 13.21l.13.63Zm-45.14 13.03h-16.86c-5.79 0-10.11-5.34-8.9-11l.13-.63c.6-2.81 2.65-5.08 5.38-5.95 8.94-2.86 18.28 3.05 19.54 12.34l.71 5.23v.01Zm9.84 0h16.86c5.79 0 10.11-5.34 8.9-11l-.13-.63a7.985 7.985 0 0 0-5.38-5.95c-8.94-2.86-18.28 3.05-19.54 12.34l-.71 5.23v.01Zm21.33 9.79h11.25c7.04 0 12.75 5.71 12.75 12.75v19.8h-24v-32.55Zm0 42.3v22.61c0 4.28-4.84 6.76-8.31 4.27l-17.94-12.89-17.94 12.89c-3.47 2.49-8.31.01-8.31-4.27v-22.61h-24v27.88c0 7.04 5.71 12.75 12.75 12.75h75c7.04 0 12.75-5.71 12.75-12.75v-27.88h-24Zm-52.5-9.75h-24v-19.8c0-7.04 5.71-12.75 12.75-12.75h11.25v32.55Zm42.75 23.59v-56.14h-33v56.14l10.81-7.77a9.76 9.76 0 0 1 11.38 0l10.81 7.77Z" clip-rule="evenodd"/></g></g><g id="Light-L"><g id="Outline / Bonus Outline_7"><path id="Shape_7" fill="#000" fill-rule="evenodd" d="M1193.22 1465.51c1 4.69.17 9.28-1.96 13.09 12.07.4 21.74 10.31 21.74 22.48v57.43c0 12.42-10.07 22.5-22.5 22.5h-75c-12.43 0-22.5-10.08-22.5-22.5v-57.43c0-12.17 9.67-22.08 21.74-22.48-2.13-3.81-2.96-8.4-1.96-13.09l.13-.63a17.76 17.76 0 0 1 11.95-13.21c10.91-3.49 22.19.96 28.14 9.73 5.95-8.77 17.23-13.22 28.14-9.73a17.76 17.76 0 0 1 11.95 13.21l.13.63Zm-45.14 13.03h-16.86c-5.79 0-10.11-5.34-8.9-11l.13-.63c.6-2.81 2.65-5.08 5.38-5.95 8.94-2.86 18.28 3.05 19.54 12.34l.71 5.23v.01Zm9.84 0h16.86c5.79 0 10.11-5.34 8.9-11l-.13-.63a7.985 7.985 0 0 0-5.38-5.95c-8.94-2.86-18.28 3.05-19.54 12.34l-.71 5.23v.01Zm21.33 9.79h11.25c7.04 0 12.75 5.71 12.75 12.75v19.8h-24v-32.55Zm0 42.3v22.61c0 4.28-4.84 6.76-8.31 4.27l-17.94-12.89-17.94 12.89c-3.47 2.49-8.31.01-8.31-4.27v-22.61h-24v27.88c0 7.04 5.71 12.75 12.75 12.75h75c7.04 0 12.75-5.71 12.75-12.75v-27.88h-24Zm-52.5-9.75h-24v-19.8c0-7.04 5.71-12.75 12.75-12.75h11.25v32.55Zm42.75 23.59v-56.14h-33v56.14l10.81-7.77a9.76 9.76 0 0 1 11.38 0l10.81 7.77Z" clip-rule="evenodd"/></g></g><g id="Thin-L"><g id="Outline / Bonus Outline_8"><path id="Shape_8" fill="#000" fill-rule="evenodd" d="M897.221 1465.51c.999 4.69.166 9.28-1.96 13.09 12.074.4 21.739 10.31 21.739 22.48v57.43c0 12.42-10.074 22.5-22.5 22.5h-75c-12.426 0-22.5-10.08-22.5-22.5v-57.43c0-12.17 9.665-22.08 21.739-22.48a18.726 18.726 0 0 1-1.96-13.09l.134-.63a17.743 17.743 0 0 1 11.949-13.21c10.908-3.49 22.19.96 28.138 9.73 5.948-8.77 17.23-13.22 28.138-9.73a17.743 17.743 0 0 1 11.949 13.21l.134.63Zm-45.142 13.03h-16.86c-5.79 0-10.108-5.34-8.904-11l.135-.63a7.977 7.977 0 0 1 5.381-5.95c8.935-2.86 18.283 3.05 19.542 12.34l.707 5.23-.001.01Zm9.842 0h16.86c5.79 0 10.108-5.34 8.904-11l-.135-.63a7.977 7.977 0 0 0-5.381-5.95c-8.935-2.86-18.283 3.05-19.542 12.34l-.707 5.23.001.01Zm21.329 9.79h11.25c7.042 0 12.75 5.71 12.75 12.75v19.8h-24v-32.55Zm0 42.3v22.61c0 4.28-4.84 6.76-8.313 4.27L857 1544.62l-17.937 12.89c-3.473 2.49-8.313.01-8.313-4.27v-22.61h-24v27.88c0 7.04 5.708 12.75 12.75 12.75h75c7.042 0 12.75-5.71 12.75-12.75v-27.88h-24Zm-52.5-9.75h-24v-19.8c0-7.04 5.708-12.75 12.75-12.75h11.25v32.55Zm42.75 23.59v-56.14h-33v56.14l10.811-7.77a9.758 9.758 0 0 1 11.378 0l10.811 7.77Z" clip-rule="evenodd"/></g></g><g id="Ultralight-L"><g id="Outline / Bonus Outline_9"><path id="Shape_9" fill="#000" fill-rule="evenodd" d="M601.221 1465.51c.999 4.69.166 9.28-1.96 13.09 12.074.4 21.739 10.31 21.739 22.48v57.43c0 12.42-10.074 22.5-22.5 22.5h-75c-12.426 0-22.5-10.08-22.5-22.5v-57.43c0-12.17 9.665-22.08 21.739-22.48a18.726 18.726 0 0 1-1.96-13.09l.134-.63a17.743 17.743 0 0 1 11.949-13.21c10.908-3.49 22.19.96 28.138 9.73 5.948-8.77 17.23-13.22 28.138-9.73a17.743 17.743 0 0 1 11.949 13.21l.134.63Zm-45.142 13.03h-16.86c-5.79 0-10.108-5.34-8.904-11l.135-.63a7.977 7.977 0 0 1 5.381-5.95c8.935-2.86 18.283 3.05 19.542 12.34l.707 5.23-.001.01Zm9.842 0h16.86c5.79 0 10.108-5.34 8.904-11l-.135-.63a7.977 7.977 0 0 0-5.381-5.95c-8.935-2.86-18.283 3.05-19.542 12.34l-.707 5.23.001.01Zm21.329 9.79h11.25c7.042 0 12.75 5.71 12.75 12.75v19.8h-24v-32.55Zm0 42.3v22.61c0 4.28-4.84 6.76-8.313 4.27L561 1544.62l-17.937 12.89c-3.473 2.49-8.313.01-8.313-4.27v-22.61h-24v27.88c0 7.04 5.708 12.75 12.75 12.75h75c7.042 0 12.75-5.71 12.75-12.75v-27.88h-24Zm-52.5-9.75h-24v-19.8c0-7.04 5.708-12.75 12.75-12.75h11.25v32.55Zm42.75 23.59v-56.14h-33v56.14l10.811-7.77a9.758 9.758 0 0 1 11.378 0l10.811 7.77Z" clip-rule="evenodd"/></g></g><g id="Black-M"><g id="Outline / Bonus Outline_10"><path id="Shape_10" fill="#000" fill-rule="evenodd" d="M2960.28 1047.84c.78 3.65.13 7.22-1.52 10.18 9.39.31 16.91 8.02 16.91 17.49v44.66c0 9.67-7.84 17.5-17.5 17.5h-58.34c-9.66 0-17.5-7.83-17.5-17.5v-44.66c0-9.47 7.52-17.18 16.91-17.49-1.65-2.96-2.3-6.53-1.52-10.18l.1-.49c1.03-4.84 4.58-8.76 9.3-10.27 8.48-2.71 17.25.74 21.88 7.56 4.63-6.82 13.4-10.27 21.89-7.56 4.71 1.51 8.26 5.43 9.29 10.27l.1.49Zm-35.11 10.13h-13.11c-4.5 0-7.86-4.15-6.93-8.55l.11-.49a6.217 6.217 0 0 1 4.18-4.63c6.95-2.22 14.22 2.37 15.2 9.6l.55 4.07Zm7.66 0h13.11c4.5 0 7.86-4.15 6.93-8.55l-.11-.49a6.217 6.217 0 0 0-4.18-4.63c-6.95-2.22-14.22 2.37-15.2 9.6l-.55 4.07Zm16.59 7.62h8.75c5.47 0 9.91 4.44 9.91 9.92v15.39h-18.66v-25.31Zm0 32.9v17.59c0 3.33-3.77 5.26-6.47 3.32l-13.95-10.03-13.95 10.03c-2.7 1.94-6.47.01-6.47-3.32v-17.59h-18.66v21.68c0 5.48 4.44 9.92 9.91 9.92h58.34c5.47 0 9.91-4.44 9.91-9.92v-21.68h-18.66Zm-40.84-7.59h-18.66v-15.39c0-5.48 4.44-9.92 9.91-9.92h8.75v25.31Zm33.25 18.36v-43.67h-25.66v43.67l8.41-6.05c2.64-1.9 6.2-1.9 8.85 0l8.4 6.05Z" clip-rule="evenodd"/></g></g><g id="Heavy-M"><g id="Outline / Bonus Outline_11"><path id="Shape_11" fill="#000" fill-rule="evenodd" d="M2664.28 1047.84c.78 3.65.13 7.22-1.52 10.18 9.39.31 16.91 8.02 16.91 17.49v44.66c0 9.67-7.84 17.5-17.5 17.5h-58.34c-9.66 0-17.5-7.83-17.5-17.5v-44.66c0-9.47 7.52-17.18 16.91-17.49-1.65-2.96-2.3-6.53-1.52-10.18l.1-.49c1.03-4.84 4.58-8.76 9.3-10.27 8.48-2.71 17.25.74 21.88 7.56 4.63-6.82 13.4-10.27 21.89-7.56 4.71 1.51 8.26 5.43 9.29 10.27l.1.49Zm-35.11 10.13h-13.11c-4.5 0-7.86-4.15-6.93-8.55l.11-.49a6.217 6.217 0 0 1 4.18-4.63c6.95-2.22 14.22 2.37 15.2 9.6l.55 4.07Zm7.66 0h13.11c4.5 0 7.86-4.15 6.93-8.55l-.11-.49a6.217 6.217 0 0 0-4.18-4.63c-6.95-2.22-14.22 2.37-15.2 9.6l-.55 4.07Zm16.59 7.62h8.75c5.47 0 9.91 4.44 9.91 9.92v15.39h-18.66v-25.31Zm0 32.9v17.59c0 3.33-3.77 5.26-6.47 3.32l-13.95-10.03-13.95 10.03c-2.7 1.94-6.47.01-6.47-3.32v-17.59h-18.66v21.68c0 5.48 4.44 9.92 9.91 9.92h58.34c5.47 0 9.91-4.44 9.91-9.92v-21.68h-18.66Zm-40.84-7.59h-18.66v-15.39c0-5.48 4.44-9.92 9.91-9.92h8.75v25.31Zm33.25 18.36v-43.67h-25.66v43.67l8.41-6.05c2.64-1.9 6.2-1.9 8.85 0l8.4 6.05Z" clip-rule="evenodd"/></g></g><g id="Bold-M"><g id="Outline / Bonus Outline_12"><path id="Shape_12" fill="#000" fill-rule="evenodd" d="M2368.28 1047.84c.78 3.65.13 7.22-1.52 10.18 9.39.31 16.91 8.02 16.91 17.49v44.66c0 9.67-7.84 17.5-17.5 17.5h-58.34c-9.66 0-17.5-7.83-17.5-17.5v-44.66c0-9.47 7.52-17.18 16.91-17.49-1.65-2.96-2.3-6.53-1.52-10.18l.1-.49c1.03-4.84 4.58-8.76 9.3-10.27 8.48-2.71 17.25.74 21.88 7.56 4.63-6.82 13.4-10.27 21.89-7.56 4.71 1.51 8.26 5.43 9.29 10.27l.1.49Zm-35.11 10.13h-13.11c-4.5 0-7.86-4.15-6.93-8.55l.11-.49a6.217 6.217 0 0 1 4.18-4.63c6.95-2.22 14.22 2.37 15.2 9.6l.55 4.07Zm7.66 0h13.11c4.5 0 7.86-4.15 6.93-8.55l-.11-.49a6.217 6.217 0 0 0-4.18-4.63c-6.95-2.22-14.22 2.37-15.2 9.6l-.55 4.07Zm16.59 7.62h8.75c5.47 0 9.91 4.44 9.91 9.92v15.39h-18.66v-25.31Zm0 32.9v17.59c0 3.33-3.77 5.26-6.47 3.32l-13.95-10.03-13.95 10.03c-2.7 1.94-6.47.01-6.47-3.32v-17.59h-18.66v21.68c0 5.48 4.44 9.92 9.91 9.92h58.34c5.47 0 9.91-4.44 9.91-9.92v-21.68h-18.66Zm-40.84-7.59h-18.66v-15.39c0-5.48 4.44-9.92 9.91-9.92h8.75v25.31Zm33.25 18.36v-43.67h-25.66v43.67l8.41-6.05c2.64-1.9 6.2-1.9 8.85 0l8.4 6.05Z" clip-rule="evenodd"/></g></g><g id="Semibold-M"><g id="Outline / Bonus Outline_13"><path id="Shape_13" fill="#000" fill-rule="evenodd" d="M2072.28 1047.84c.78 3.65.13 7.22-1.52 10.18 9.39.31 16.91 8.02 16.91 17.49v44.66c0 9.67-7.84 17.5-17.5 17.5h-58.34c-9.66 0-17.5-7.83-17.5-17.5v-44.66c0-9.47 7.52-17.18 16.91-17.49-1.65-2.96-2.3-6.53-1.52-10.18l.1-.49c1.03-4.84 4.58-8.76 9.3-10.27 8.48-2.71 17.25.74 21.88 7.56 4.63-6.82 13.4-10.27 21.89-7.56 4.71 1.51 8.26 5.43 9.29 10.27l.1.49Zm-35.11 10.13h-13.11c-4.5 0-7.86-4.15-6.93-8.55l.11-.49a6.217 6.217 0 0 1 4.18-4.63c6.95-2.22 14.22 2.37 15.2 9.6l.55 4.07Zm7.66 0h13.11c4.5 0 7.86-4.15 6.93-8.55l-.11-.49a6.217 6.217 0 0 0-4.18-4.63c-6.95-2.22-14.22 2.37-15.2 9.6l-.55 4.07Zm16.59 7.62h8.75c5.47 0 9.91 4.44 9.91 9.92v15.39h-18.66v-25.31Zm0 32.9v17.59c0 3.33-3.77 5.26-6.47 3.32l-13.95-10.03-13.95 10.03c-2.7 1.94-6.47.01-6.47-3.32v-17.59h-18.66v21.68c0 5.48 4.44 9.92 9.91 9.92h58.34c5.47 0 9.91-4.44 9.91-9.92v-21.68h-18.66Zm-40.84-7.59h-18.66v-15.39c0-5.48 4.44-9.92 9.91-9.92h8.75v25.31Zm33.25 18.36v-43.67h-25.66v43.67l8.41-6.05c2.64-1.9 6.2-1.9 8.85 0l8.4 6.05Z" clip-rule="evenodd"/></g></g><g id="Medium-M"><g id="Outline / Bonus Outline_14"><path id="Shape_14" fill="#000" fill-rule="evenodd" d="M1776.28 1047.84c.78 3.65.13 7.22-1.52 10.18 9.39.31 16.91 8.02 16.91 17.49v44.66c0 9.67-7.84 17.5-17.5 17.5h-58.34c-9.66 0-17.5-7.83-17.5-17.5v-44.66c0-9.47 7.52-17.18 16.91-17.49-1.65-2.96-2.3-6.53-1.52-10.18l.1-.49c1.03-4.84 4.58-8.76 9.3-10.27 8.48-2.71 17.25.74 21.88 7.56 4.63-6.82 13.4-10.27 21.89-7.56 4.71 1.51 8.26 5.43 9.29 10.27l.1.49Zm-35.11 10.13h-13.11c-4.5 0-7.86-4.15-6.93-8.55l.11-.49a6.217 6.217 0 0 1 4.18-4.63c6.95-2.22 14.22 2.37 15.2 9.6l.55 4.07Zm7.66 0h13.11c4.5 0 7.86-4.15 6.93-8.55l-.11-.49a6.217 6.217 0 0 0-4.18-4.63c-6.95-2.22-14.22 2.37-15.2 9.6l-.55 4.07Zm16.59 7.62h8.75c5.47 0 9.91 4.44 9.91 9.92v15.39h-18.66v-25.31Zm0 32.9v17.59c0 3.33-3.77 5.26-6.47 3.32l-13.95-10.03-13.95 10.03c-2.7 1.94-6.47.01-6.47-3.32v-17.59h-18.66v21.68c0 5.48 4.44 9.92 9.91 9.92h58.34c5.47 0 9.91-4.44 9.91-9.92v-21.68h-18.66Zm-40.84-7.59h-18.66v-15.39c0-5.48 4.44-9.92 9.91-9.92h8.75v25.31Zm33.25 18.36v-43.67h-25.66v43.67l8.41-6.05c2.64-1.9 6.2-1.9 8.85 0l8.4 6.05Z" clip-rule="evenodd"/></g></g><g id="Regular-M"><g id="Outline / Bonus Outline_15"><path id="Shape_15" fill="#000" fill-rule="evenodd" d="M1480.28 1047.84c.78 3.65.13 7.22-1.52 10.18 9.39.31 16.91 8.02 16.91 17.49v44.66c0 9.67-7.84 17.5-17.5 17.5h-58.34c-9.66 0-17.5-7.83-17.5-17.5v-44.66c0-9.47 7.52-17.18 16.91-17.49-1.65-2.96-2.3-6.53-1.52-10.18l.1-.49c1.03-4.84 4.58-8.76 9.3-10.27 8.48-2.71 17.25.74 21.88 7.56 4.63-6.82 13.4-10.27 21.89-7.56 4.71 1.51 8.26 5.43 9.29 10.27l.1.49Zm-35.11 10.13h-13.11c-4.5 0-7.86-4.15-6.93-8.55l.11-.49a6.217 6.217 0 0 1 4.18-4.63c6.95-2.22 14.22 2.37 15.2 9.6l.55 4.07Zm7.66 0h13.11c4.5 0 7.86-4.15 6.93-8.55l-.11-.49a6.217 6.217 0 0 0-4.18-4.63c-6.95-2.22-14.22 2.37-15.2 9.6l-.55 4.07Zm16.59 7.62h8.75c5.47 0 9.91 4.44 9.91 9.92v15.39h-18.66v-25.31Zm0 32.9v17.59c0 3.33-3.77 5.26-6.47 3.32l-13.95-10.03-13.95 10.03c-2.7 1.94-6.47.01-6.47-3.32v-17.59h-18.66v21.68c0 5.48 4.44 9.92 9.91 9.92h58.34c5.47 0 9.91-4.44 9.91-9.92v-21.68h-18.66Zm-40.84-7.59h-18.66v-15.39c0-5.48 4.44-9.92 9.91-9.92h8.75v25.31Zm33.25 18.36v-43.67h-25.66v43.67l8.41-6.05c2.64-1.9 6.2-1.9 8.85 0l8.4 6.05Z" clip-rule="evenodd"/></g></g><g id="Light-M"><g id="Outline / Bonus Outline_16"><path id="Shape_16" fill="#000" fill-rule="evenodd" d="M1184.28 1047.84c.78 3.65.13 7.22-1.52 10.18 9.39.31 16.91 8.02 16.91 17.49v44.66c0 9.67-7.84 17.5-17.5 17.5h-58.34c-9.66 0-17.5-7.83-17.5-17.5v-44.66c0-9.47 7.52-17.18 16.91-17.49-1.65-2.96-2.3-6.53-1.52-10.18l.1-.49c1.03-4.84 4.58-8.76 9.3-10.27 8.48-2.71 17.25.74 21.88 7.56 4.63-6.82 13.4-10.27 21.89-7.56 4.71 1.51 8.26 5.43 9.29 10.27l.1.49Zm-35.11 10.13h-13.11c-4.5 0-7.86-4.15-6.93-8.55l.11-.49a6.217 6.217 0 0 1 4.18-4.63c6.95-2.22 14.22 2.37 15.2 9.6l.55 4.07Zm7.66 0h13.11c4.5 0 7.86-4.15 6.93-8.55l-.11-.49a6.217 6.217 0 0 0-4.18-4.63c-6.95-2.22-14.22 2.37-15.2 9.6l-.55 4.07Zm16.59 7.62h8.75c5.47 0 9.91 4.44 9.91 9.92v15.39h-18.66v-25.31Zm0 32.9v17.59c0 3.33-3.77 5.26-6.47 3.32l-13.95-10.03-13.95 10.03c-2.7 1.94-6.47.01-6.47-3.32v-17.59h-18.66v21.68c0 5.48 4.44 9.92 9.91 9.92h58.34c5.47 0 9.91-4.44 9.91-9.92v-21.68h-18.66Zm-40.84-7.59h-18.66v-15.39c0-5.48 4.44-9.92 9.91-9.92h8.75v25.31Zm33.25 18.36v-43.67h-25.66v43.67l8.41-6.05c2.64-1.9 6.2-1.9 8.85 0l8.4 6.05Z" clip-rule="evenodd"/></g></g><g id="Thin-M"><g id="Outline / Bonus Outline_17"><path id="Shape_17" fill="#000" fill-rule="evenodd" d="M888.284 1047.84a14.56 14.56 0 0 1-1.525 10.18c9.391.31 16.908 8.02 16.908 17.49v44.66c0 9.67-7.835 17.5-17.5 17.5h-58.333c-9.665 0-17.5-7.83-17.5-17.5v-44.66c0-9.47 7.517-17.18 16.908-17.49a14.565 14.565 0 0 1-1.525-10.18l.105-.49a13.804 13.804 0 0 1 9.294-10.27c8.483-2.71 17.258.74 21.885 7.56 4.626-6.82 13.401-10.27 21.885-7.56a13.804 13.804 0 0 1 9.293 10.27l.105.49Zm-35.111 10.13H840.06c-4.503 0-7.862-4.15-6.925-8.55l.104-.49a6.224 6.224 0 0 1 4.186-4.63c6.949-2.22 14.22 2.37 15.199 9.6l.55 4.07h-.001Zm7.655 0h13.113c4.504 0 7.863-4.15 6.926-8.55l-.105-.49a6.222 6.222 0 0 0-4.186-4.63c-6.949-2.22-14.219 2.37-15.199 9.6l-.55 4.07h.001Zm16.589 7.62h8.75c5.477 0 9.917 4.44 9.917 9.92v15.39h-18.667v-25.31Zm0 32.9v17.59c0 3.33-3.764 5.26-6.466 3.32l-13.95-10.03-13.951 10.03c-2.702 1.94-6.466.01-6.466-3.32v-17.59h-18.667v21.68c0 5.48 4.44 9.92 9.917 9.92h58.333c5.477 0 9.917-4.44 9.917-9.92v-21.68h-18.667Zm-40.833-7.59h-18.667v-15.39c0-5.48 4.44-9.92 9.917-9.92h8.75v25.31Zm33.25 18.36v-43.67h-25.667v43.67l8.409-6.05a7.581 7.581 0 0 1 8.849 0l8.409 6.05Z" clip-rule="evenodd"/></g></g><g id="Ultralight-M"><g id="Outline / Bonus Outline_18"><path id="Shape_18" fill="#000" fill-rule="evenodd" d="M592.284 1047.84a14.56 14.56 0 0 1-1.525 10.18c9.391.31 16.908 8.02 16.908 17.49v44.66c0 9.67-7.835 17.5-17.5 17.5h-58.333c-9.665 0-17.5-7.83-17.5-17.5v-44.66c0-9.47 7.517-17.18 16.908-17.49a14.565 14.565 0 0 1-1.525-10.18l.105-.49a13.804 13.804 0 0 1 9.294-10.27c8.483-2.71 17.258.74 21.885 7.56 4.626-6.82 13.401-10.27 21.885-7.56a13.804 13.804 0 0 1 9.293 10.27l.105.49Zm-35.111 10.13H544.06c-4.503 0-7.862-4.15-6.925-8.55l.104-.49a6.224 6.224 0 0 1 4.186-4.63c6.949-2.22 14.22 2.37 15.199 9.6l.55 4.07h-.001Zm7.655 0h13.113c4.504 0 7.863-4.15 6.926-8.55l-.105-.49a6.222 6.222 0 0 0-4.186-4.63c-6.949-2.22-14.219 2.37-15.199 9.6l-.55 4.07h.001Zm16.589 7.62h8.75c5.477 0 9.917 4.44 9.917 9.92v15.39h-18.667v-25.31Zm0 32.9v17.59c0 3.33-3.764 5.26-6.466 3.32l-13.95-10.03-13.951 10.03c-2.702 1.94-6.466.01-6.466-3.32v-17.59h-18.667v21.68c0 5.48 4.44 9.92 9.917 9.92h58.333c5.477 0 9.917-4.44 9.917-9.92v-21.68h-18.667Zm-40.833-7.59h-18.667v-15.39c0-5.48 4.44-9.92 9.917-9.92h8.75v25.31Zm33.25 18.36v-43.67h-25.667v43.67l8.409-6.05a7.581 7.581 0 0 1 8.849 0l8.409 6.05Z" clip-rule="evenodd"/></g></g><g id="Black-S"><g id="Outline / Bonus Outline_19"><path id="Shape_19" fill="#000" fill-rule="evenodd" d="M2951.34 630.174c.56 2.607.1 5.153-1.08 7.27 6.7.223 12.07 5.731 12.07 12.493v31.901c0 6.904-5.59 12.5-12.5 12.5h-41.66c-6.91 0-12.5-5.596-12.5-12.5v-31.901c0-6.762 5.37-12.27 12.07-12.493a10.43 10.43 0 0 1-1.09-7.27l.08-.351a9.845 9.845 0 0 1 6.64-7.337c6.06-1.937 12.32.532 15.63 5.404 3.3-4.872 9.57-7.341 15.63-5.404a9.862 9.862 0 0 1 6.64 7.337l.07.351Zm-25.07 7.237h-9.37c-3.22 0-5.62-2.964-4.95-6.11l.08-.351a4.431 4.431 0 0 1 2.99-3.304c4.96-1.587 10.15 1.693 10.85 6.857l.4 2.902v.006Zm5.46 0h9.37c3.22 0 5.62-2.964 4.95-6.11l-.08-.351a4.431 4.431 0 0 0-2.99-3.304c-4.96-1.587-10.15 1.693-10.85 6.857l-.4 2.902v.006Zm11.85 5.443h6.25c3.91 0 7.09 3.171 7.09 7.083v10.996h-13.34v-18.079Zm0 23.495v12.566c0 2.376-2.69 3.755-4.62 2.369l-9.96-7.159-9.97 7.159c-1.93 1.386-4.61.007-4.61-2.369v-12.566h-13.34v15.489a7.084 7.084 0 0 0 7.09 7.084h41.66c3.91 0 7.09-3.172 7.09-7.084v-15.489h-13.34Zm-29.16-5.416h-13.34v-10.996a7.084 7.084 0 0 1 7.09-7.083h6.25v18.079Zm23.75 13.108v-31.187h-18.34v31.187l6.01-4.316a5.418 5.418 0 0 1 6.32 0l6.01 4.316Z" clip-rule="evenodd"/></g></g><g id="Heavy-S"><g id="Outline / Bonus Outline_20"><path id="Shape_20" fill="#000" fill-rule="evenodd" d="M2655.34 630.174c.56 2.607.1 5.153-1.08 7.27 6.7.223 12.07 5.731 12.07 12.493v31.901c0 6.904-5.59 12.5-12.5 12.5h-41.66c-6.91 0-12.5-5.596-12.5-12.5v-31.901c0-6.762 5.37-12.27 12.07-12.493a10.43 10.43 0 0 1-1.09-7.27l.08-.351a9.845 9.845 0 0 1 6.64-7.337c6.06-1.937 12.32.532 15.63 5.404 3.3-4.872 9.57-7.341 15.63-5.404a9.862 9.862 0 0 1 6.64 7.337l.07.351Zm-25.07 7.237h-9.37c-3.22 0-5.62-2.964-4.95-6.11l.08-.351a4.431 4.431 0 0 1 2.99-3.304c4.96-1.587 10.15 1.693 10.85 6.857l.4 2.902v.006Zm5.46 0h9.37c3.22 0 5.62-2.964 4.95-6.11l-.08-.351a4.431 4.431 0 0 0-2.99-3.304c-4.96-1.587-10.15 1.693-10.85 6.857l-.4 2.902v.006Zm11.85 5.443h6.25c3.91 0 7.09 3.171 7.09 7.083v10.996h-13.34v-18.079Zm0 23.495v12.566c0 2.376-2.69 3.755-4.62 2.369l-9.96-7.159-9.97 7.159c-1.93 1.386-4.61.007-4.61-2.369v-12.566h-13.34v15.489a7.084 7.084 0 0 0 7.09 7.084h41.66c3.91 0 7.09-3.172 7.09-7.084v-15.489h-13.34Zm-29.16-5.416h-13.34v-10.996a7.084 7.084 0 0 1 7.09-7.083h6.25v18.079Zm23.75 13.108v-31.187h-18.34v31.187l6.01-4.316a5.418 5.418 0 0 1 6.32 0l6.01 4.316Z" clip-rule="evenodd"/></g></g><g id="Bold-S"><g id="Outline / Bonus Outline_21"><path id="Shape_21" fill="#000" fill-rule="evenodd" d="M2359.34 630.174c.56 2.607.1 5.153-1.08 7.27 6.7.223 12.07 5.731 12.07 12.493v31.901c0 6.904-5.59 12.5-12.5 12.5h-41.66c-6.91 0-12.5-5.596-12.5-12.5v-31.901c0-6.762 5.37-12.27 12.07-12.493a10.43 10.43 0 0 1-1.09-7.27l.08-.351a9.845 9.845 0 0 1 6.64-7.337c6.06-1.937 12.32.532 15.63 5.404 3.3-4.872 9.57-7.341 15.63-5.404a9.862 9.862 0 0 1 6.64 7.337l.07.351Zm-25.07 7.237h-9.37c-3.22 0-5.62-2.964-4.95-6.11l.08-.351a4.431 4.431 0 0 1 2.99-3.304c4.96-1.587 10.15 1.693 10.85 6.857l.4 2.902v.006Zm5.46 0h9.37c3.22 0 5.62-2.964 4.95-6.11l-.08-.351a4.431 4.431 0 0 0-2.99-3.304c-4.96-1.587-10.15 1.693-10.85 6.857l-.4 2.902v.006Zm11.85 5.443h6.25c3.91 0 7.09 3.171 7.09 7.083v10.996h-13.34v-18.079Zm0 23.495v12.566c0 2.376-2.69 3.755-4.62 2.369l-9.96-7.159-9.97 7.159c-1.93 1.386-4.61.007-4.61-2.369v-12.566h-13.34v15.489a7.084 7.084 0 0 0 7.09 7.084h41.66c3.91 0 7.09-3.172 7.09-7.084v-15.489h-13.34Zm-29.16-5.416h-13.34v-10.996a7.084 7.084 0 0 1 7.09-7.083h6.25v18.079Zm23.75 13.108v-31.187h-18.34v31.187l6.01-4.316a5.418 5.418 0 0 1 6.32 0l6.01 4.316Z" clip-rule="evenodd"/></g></g><g id="Semibold-S"><g id="Outline / Bonus Outline_22"><path id="Shape_22" fill="#000" fill-rule="evenodd" d="M2063.34 630.174c.56 2.607.1 5.153-1.08 7.27 6.7.223 12.07 5.731 12.07 12.493v31.901c0 6.904-5.59 12.5-12.5 12.5h-41.66c-6.91 0-12.5-5.596-12.5-12.5v-31.901c0-6.762 5.37-12.27 12.07-12.493a10.43 10.43 0 0 1-1.09-7.27l.08-.351a9.845 9.845 0 0 1 6.64-7.337c6.06-1.937 12.32.532 15.63 5.404 3.3-4.872 9.57-7.341 15.63-5.404a9.862 9.862 0 0 1 6.64 7.337l.07.351Zm-25.07 7.237h-9.37c-3.22 0-5.62-2.964-4.95-6.11l.08-.351a4.431 4.431 0 0 1 2.99-3.304c4.96-1.587 10.15 1.693 10.85 6.857l.4 2.902v.006Zm5.46 0h9.37c3.22 0 5.62-2.964 4.95-6.11l-.08-.351a4.431 4.431 0 0 0-2.99-3.304c-4.96-1.587-10.15 1.693-10.85 6.857l-.4 2.902v.006Zm11.85 5.443h6.25c3.91 0 7.09 3.171 7.09 7.083v10.996h-13.34v-18.079Zm0 23.495v12.566c0 2.376-2.69 3.755-4.62 2.369l-9.96-7.159-9.97 7.159c-1.93 1.386-4.61.007-4.61-2.369v-12.566h-13.34v15.489a7.084 7.084 0 0 0 7.09 7.084h41.66c3.91 0 7.09-3.172 7.09-7.084v-15.489h-13.34Zm-29.16-5.416h-13.34v-10.996a7.084 7.084 0 0 1 7.09-7.083h6.25v18.079Zm23.75 13.108v-31.187h-18.34v31.187l6.01-4.316a5.418 5.418 0 0 1 6.32 0l6.01 4.316Z" clip-rule="evenodd"/></g></g><g id="Medium-S"><g id="Outline / Bonus Outline_23"><path id="Shape_23" fill="#000" fill-rule="evenodd" d="M1767.34 630.174c.56 2.607.1 5.153-1.08 7.27 6.7.223 12.07 5.731 12.07 12.493v31.901c0 6.904-5.59 12.5-12.5 12.5h-41.66c-6.91 0-12.5-5.596-12.5-12.5v-31.901c0-6.762 5.37-12.27 12.07-12.493a10.43 10.43 0 0 1-1.09-7.27l.08-.351a9.845 9.845 0 0 1 6.64-7.337c6.06-1.937 12.32.532 15.63 5.404 3.3-4.872 9.57-7.341 15.63-5.404a9.862 9.862 0 0 1 6.64 7.337l.07.351Zm-25.07 7.237h-9.37c-3.22 0-5.62-2.964-4.95-6.11l.08-.351a4.431 4.431 0 0 1 2.99-3.304c4.96-1.587 10.15 1.693 10.85 6.857l.4 2.902v.006Zm5.46 0h9.37c3.22 0 5.62-2.964 4.95-6.11l-.08-.351a4.431 4.431 0 0 0-2.99-3.304c-4.96-1.587-10.15 1.693-10.85 6.857l-.4 2.902v.006Zm11.85 5.443h6.25c3.91 0 7.09 3.171 7.09 7.083v10.996h-13.34v-18.079Zm0 23.495v12.566c0 2.376-2.69 3.755-4.62 2.369l-9.96-7.159-9.97 7.159c-1.93 1.386-4.61.007-4.61-2.369v-12.566h-13.34v15.489a7.084 7.084 0 0 0 7.09 7.084h41.66c3.91 0 7.09-3.172 7.09-7.084v-15.489h-13.34Zm-29.16-5.416h-13.34v-10.996a7.084 7.084 0 0 1 7.09-7.083h6.25v18.079Zm23.75 13.108v-31.187h-18.34v31.187l6.01-4.316a5.418 5.418 0 0 1 6.32 0l6.01 4.316Z" clip-rule="evenodd"/></g></g><g id="Regular-S"><g id="Outline / Bonus Outline_24"><path id="Shape_24" fill="#000" fill-rule="evenodd" d="M1471.34 630.174c.56 2.607.1 5.153-1.08 7.27 6.7.223 12.07 5.731 12.07 12.493v31.901c0 6.904-5.59 12.5-12.5 12.5h-41.66c-6.91 0-12.5-5.596-12.5-12.5v-31.901c0-6.762 5.37-12.27 12.07-12.493a10.43 10.43 0 0 1-1.09-7.27l.08-.351a9.845 9.845 0 0 1 6.64-7.337c6.06-1.937 12.32.532 15.63 5.404 3.3-4.872 9.57-7.341 15.63-5.404a9.862 9.862 0 0 1 6.64 7.337l.07.351Zm-25.07 7.237h-9.37c-3.22 0-5.62-2.964-4.95-6.11l.08-.351a4.431 4.431 0 0 1 2.99-3.304c4.96-1.587 10.15 1.693 10.85 6.857l.4 2.902v.006Zm5.46 0h9.37c3.22 0 5.62-2.964 4.95-6.11l-.08-.351a4.431 4.431 0 0 0-2.99-3.304c-4.96-1.587-10.15 1.693-10.85 6.857l-.4 2.902v.006Zm11.85 5.443h6.25c3.91 0 7.09 3.171 7.09 7.083v10.996h-13.34v-18.079Zm0 23.495v12.566c0 2.376-2.69 3.755-4.62 2.369l-9.96-7.159-9.97 7.159c-1.93 1.386-4.61.007-4.61-2.369v-12.566h-13.34v15.489a7.084 7.084 0 0 0 7.09 7.084h41.66c3.91 0 7.09-3.172 7.09-7.084v-15.489h-13.34Zm-29.16-5.416h-13.34v-10.996a7.084 7.084 0 0 1 7.09-7.083h6.25v18.079Zm23.75 13.108v-31.187h-18.34v31.187l6.01-4.316a5.418 5.418 0 0 1 6.32 0l6.01 4.316Z" clip-rule="evenodd"/></g></g><g id="Light-S"><g id="Outline / Bonus Outline_25"><path id="Shape_25" fill="#000" fill-rule="evenodd" d="M1175.34 630.174c.56 2.607.1 5.153-1.08 7.27 6.7.223 12.07 5.731 12.07 12.493v31.901c0 6.904-5.59 12.5-12.5 12.5h-41.66c-6.91 0-12.5-5.596-12.5-12.5v-31.901c0-6.762 5.37-12.27 12.07-12.493a10.43 10.43 0 0 1-1.09-7.27l.08-.351a9.845 9.845 0 0 1 6.64-7.337c6.06-1.937 12.32.532 15.63 5.404 3.3-4.872 9.57-7.341 15.63-5.404a9.862 9.862 0 0 1 6.64 7.337l.07.351Zm-25.07 7.237h-9.37c-3.22 0-5.62-2.964-4.95-6.11l.08-.351a4.431 4.431 0 0 1 2.99-3.304c4.96-1.587 10.15 1.693 10.85 6.857l.4 2.902v.006Zm5.46 0h9.37c3.22 0 5.62-2.964 4.95-6.11l-.08-.351a4.431 4.431 0 0 0-2.99-3.304c-4.96-1.587-10.15 1.693-10.85 6.857l-.4 2.902v.006Zm11.85 5.443h6.25c3.91 0 7.09 3.171 7.09 7.083v10.996h-13.34v-18.079Zm0 23.495v12.566c0 2.376-2.69 3.755-4.62 2.369l-9.96-7.159-9.97 7.159c-1.93 1.386-4.61.007-4.61-2.369v-12.566h-13.34v15.489a7.084 7.084 0 0 0 7.09 7.084h41.66c3.91 0 7.09-3.172 7.09-7.084v-15.489h-13.34Zm-29.16-5.416h-13.34v-10.996a7.084 7.084 0 0 1 7.09-7.083h6.25v18.079Zm23.75 13.108v-31.187h-18.34v31.187l6.01-4.316a5.418 5.418 0 0 1 6.32 0l6.01 4.316Z" clip-rule="evenodd"/></g></g><g id="Thin-S"><g id="Outline / Bonus Outline_26"><path id="Shape_26" fill="#000" fill-rule="evenodd" d="M879.345 630.174a10.402 10.402 0 0 1-1.09 7.27c6.708.223 12.078 5.731 12.078 12.493v31.901c0 6.904-5.597 12.5-12.5 12.5h-41.667c-6.904 0-12.5-5.596-12.5-12.5v-31.901c0-6.762 5.37-12.27 12.077-12.493a10.402 10.402 0 0 1-1.089-7.27l.075-.351a9.855 9.855 0 0 1 6.638-7.337c6.06-1.937 12.328.532 15.632 5.404 3.305-4.872 9.573-7.341 15.633-5.404a9.855 9.855 0 0 1 6.638 7.337l.075.351Zm-25.079 7.237h-9.367c-3.217 0-5.616-2.964-4.947-6.11l.075-.351a4.437 4.437 0 0 1 2.99-3.304c4.963-1.587 10.157 1.693 10.856 6.857l.393 2.902v.006Zm5.467 0h9.367c3.216 0 5.616-2.964 4.946-6.11l-.074-.351a4.44 4.44 0 0 0-2.99-3.304c-4.964-1.587-10.157 1.693-10.856 6.857l-.394 2.902.001.006Zm11.85 5.443h6.25a7.083 7.083 0 0 1 7.083 7.083v10.996h-13.333v-18.079Zm0 23.495v12.566c0 2.376-2.689 3.755-4.619 2.369l-9.965-7.159-9.965 7.159c-1.929 1.386-4.618.007-4.618-2.369v-12.566h-13.333v15.489a7.084 7.084 0 0 0 7.083 7.084h41.667a7.084 7.084 0 0 0 7.083-7.084v-15.489h-13.333Zm-29.167-5.416h-13.333v-10.996a7.083 7.083 0 0 1 7.083-7.083h6.25v18.079Zm23.75 13.108v-31.187h-18.333v31.187l6.006-4.316a5.42 5.42 0 0 1 6.321 0l6.006 4.316Z" clip-rule="evenodd"/></g></g><g id="Ultralight-S"><g id="Outline / Bonus Outline_27"><path id="Shape_27" fill="#000" fill-rule="evenodd" d="M583.345 630.174a10.402 10.402 0 0 1-1.09 7.27c6.708.223 12.078 5.731 12.078 12.493v31.901c0 6.904-5.597 12.5-12.5 12.5h-41.667c-6.904 0-12.5-5.596-12.5-12.5v-31.901c0-6.762 5.37-12.27 12.077-12.493a10.402 10.402 0 0 1-1.089-7.27l.075-.351a9.855 9.855 0 0 1 6.638-7.337c6.06-1.937 12.328.532 15.632 5.404 3.305-4.872 9.573-7.341 15.633-5.404a9.855 9.855 0 0 1 6.638 7.337l.075.351Zm-25.079 7.237h-9.367c-3.217 0-5.616-2.964-4.947-6.11l.075-.351a4.437 4.437 0 0 1 2.99-3.304c4.963-1.587 10.157 1.693 10.856 6.857l.393 2.902v.006Zm5.467 0h9.367c3.216 0 5.616-2.964 4.946-6.11l-.074-.351a4.44 4.44 0 0 0-2.99-3.304c-4.964-1.587-10.157 1.693-10.856 6.857l-.394 2.902.001.006Zm11.85 5.443h6.25a7.083 7.083 0 0 1 7.083 7.083v10.996h-13.333v-18.079Zm0 23.495v12.566c0 2.376-2.689 3.755-4.619 2.369l-9.965-7.159-9.965 7.159c-1.929 1.386-4.618.007-4.618-2.369v-12.566h-13.333v15.489a7.084 7.084 0 0 0 7.083 7.084h41.667a7.084 7.084 0 0 0 7.083-7.084v-15.489h-13.333Zm-29.167-5.416h-13.333v-10.996a7.083 7.083 0 0 1 7.083-7.083h6.25v18.079Zm23.75 13.108v-31.187h-18.333v31.187l6.006-4.316a5.42 5.42 0 0 1 6.321 0l6.006 4.316Z" clip-rule="evenodd"/></g></g></g></g><defs><clipPath id="clip0_0_1"><path fill="#fff" d="M0 0h3300v2200H0z"/></clipPath></defs></svg>