<svg width="3300" height="2200" viewBox="0 0 3300 2200" fill="none" xmlns="http://www.w3.org/2000/svg">
<rect width="3300" height="2200" fill="#E5E5E5"/>
<g id="Category / Solid / Acuring Future" clip-path="url(#clip0_0_1)">
<g id="Notes">
<path id="artboard" d="M3300 0H0V2200H3300V0Z" fill="white"/>
<path id="Vector" d="M263 292H3036" stroke="black" stroke-width="0.5"/>
<text id="Weight/Scale Variations" fill="black" xml:space="preserve" style="white-space: pre" font-family="Roboto" font-size="12" letter-spacing="0em"><tspan x="263" y="321.102">Weight/Scale Variations</tspan></text>
<text id="Ultralight" fill="black" xml:space="preserve" style="white-space: pre" font-family="Roboto" font-size="12" letter-spacing="0em"><tspan x="535.211" y="321.102">Ultralight</tspan></text>
<text id="Thin" fill="black" xml:space="preserve" style="white-space: pre" font-family="Roboto" font-size="12" letter-spacing="0em"><tspan x="844.422" y="321.102">Thin</tspan></text>
<text id="Light" fill="black" xml:space="preserve" style="white-space: pre" font-family="Roboto" font-size="12" letter-spacing="0em"><tspan x="1139.63" y="321.102">Light</tspan></text>
<text id="Regular" fill="black" xml:space="preserve" style="white-space: pre" font-family="Roboto" font-size="12" letter-spacing="0em"><tspan x="1429.34" y="321.102">Regular</tspan></text>
<text id="Medium" fill="black" xml:space="preserve" style="white-space: pre" font-family="Roboto" font-size="12" letter-spacing="0em"><tspan x="1724.56" y="321.102">Medium</tspan></text>
<text id="Semibold" fill="black" xml:space="preserve" style="white-space: pre" font-family="Roboto" font-size="12" letter-spacing="0em"><tspan x="2017.77" y="321.102">Semibold</tspan></text>
<text id="Bold" fill="black" xml:space="preserve" style="white-space: pre" font-family="Roboto" font-size="12" letter-spacing="0em"><tspan x="2327.48" y="321.102">Bold</tspan></text>
<text id="Heavy" fill="black" xml:space="preserve" style="white-space: pre" font-family="Roboto" font-size="12" letter-spacing="0em"><tspan x="2620.19" y="321.102">Heavy</tspan></text>
<text id="Black" fill="black" xml:space="preserve" style="white-space: pre" font-family="Roboto" font-size="12" letter-spacing="0em"><tspan x="2918.4" y="321.102">Black</tspan></text>
<path id="Vector_2" d="M263 1903H3036" stroke="black" stroke-width="0.5"/>
<g id="Group">
<path id="Vector_3" d="M272.248 1933.83C276.555 1933.83 280.139 1930.26 280.139 1925.95C280.139 1921.64 276.545 1918.07 272.238 1918.07C267.941 1918.07 264.367 1921.64 264.367 1925.95C264.367 1930.26 267.951 1933.83 272.248 1933.83ZM272.248 1932.35C268.703 1932.35 265.871 1929.51 265.871 1925.95C265.871 1922.4 268.693 1919.55 272.238 1919.55C275.793 1919.55 278.635 1922.4 278.644 1925.95C278.654 1929.51 275.803 1932.35 272.248 1932.35ZM272.229 1929.57C272.697 1929.57 272.971 1929.26 272.971 1928.74V1926.68H275.197C275.695 1926.68 276.037 1926.43 276.037 1925.96C276.037 1925.48 275.715 1925.22 275.197 1925.22H272.971V1922.99C272.971 1922.47 272.697 1922.15 272.229 1922.15C271.76 1922.15 271.506 1922.49 271.506 1922.99V1925.22H269.299C268.781 1925.22 268.449 1925.48 268.449 1925.96C268.449 1926.43 268.801 1926.68 269.299 1926.68H271.506V1928.74C271.506 1929.24 271.76 1929.57 272.229 1929.57Z" fill="black"/>
</g>
<g id="Group_2">
<path id="Vector_4" d="M293.215 1935.91C298.664 1935.91 303.176 1931.4 303.176 1925.95C303.176 1920.51 298.654 1915.99 293.205 1915.99C287.766 1915.99 283.254 1920.51 283.254 1925.95C283.254 1931.4 287.775 1935.91 293.215 1935.91ZM293.215 1934.25C288.605 1934.25 284.924 1930.56 284.924 1925.95C284.924 1921.35 288.596 1917.65 293.205 1917.65C297.814 1917.65 301.506 1921.35 301.516 1925.95C301.525 1930.56 297.824 1934.25 293.215 1934.25ZM293.195 1930.59C293.713 1930.59 294.025 1930.23 294.025 1929.66V1926.77H297.082C297.629 1926.77 298.01 1926.49 298.01 1925.97C298.01 1925.44 297.648 1925.14 297.082 1925.14H294.025V1922.07C294.025 1921.5 293.713 1921.14 293.195 1921.14C292.678 1921.14 292.385 1921.52 292.385 1922.07V1925.14H289.338C288.771 1925.14 288.4 1925.44 288.4 1925.97C288.4 1926.49 288.791 1926.77 289.338 1926.77H292.385V1929.66C292.385 1930.21 292.678 1930.59 293.195 1930.59Z" fill="black"/>
</g>
<g id="Group_3">
<path id="Vector_5" d="M319.895 1938.67C326.857 1938.67 332.619 1932.92 332.619 1925.96C332.619 1918.99 326.848 1913.24 319.885 1913.24C312.932 1913.24 307.18 1918.99 307.18 1925.96C307.18 1932.92 312.941 1938.67 319.895 1938.67ZM319.895 1936.86C313.859 1936.86 309.006 1931.99 309.006 1925.96C309.006 1919.92 313.85 1915.06 319.885 1915.06C325.93 1915.06 330.783 1919.92 330.793 1925.96C330.803 1931.99 325.939 1936.86 319.895 1936.86ZM319.875 1931.93C320.441 1931.93 320.793 1931.54 320.793 1930.94V1926.87H325.031C325.617 1926.87 326.037 1926.53 326.037 1925.98C326.037 1925.4 325.647 1925.06 325.031 1925.06H320.793V1920.81C320.793 1920.2 320.441 1919.8 319.875 1919.8C319.309 1919.8 318.986 1920.21 318.986 1920.81V1925.06H314.758C314.143 1925.06 313.732 1925.4 313.732 1925.98C313.732 1926.53 314.162 1926.87 314.758 1926.87H318.986V1930.94C318.986 1931.52 319.309 1931.93 319.875 1931.93Z" fill="black"/>
</g>
<text id="Design Variations" fill="black" xml:space="preserve" style="white-space: pre" font-family="Roboto" font-size="12" letter-spacing="0em"><tspan x="263" y="1952.1">Design Variations</tspan></text>
<text id="Symbols are supported in up to nine weights and three scales." fill="black" xml:space="preserve" style="white-space: pre" font-family="Roboto" font-size="12" letter-spacing="0em"><tspan x="263" y="1970.1">Symbols are supported in up to nine weights and three scales.</tspan></text>
<text id="For optimal layout with text and other symbols, vertically align" fill="black" xml:space="preserve" style="white-space: pre" font-family="Roboto" font-size="12" letter-spacing="0em"><tspan x="263" y="1988.1">For optimal layout with text and other symbols, vertically align</tspan></text>
<text id="symbols with the adjacent text." fill="black" xml:space="preserve" style="white-space: pre" font-family="Roboto" font-size="12" letter-spacing="0em"><tspan x="263" y="2006.1">symbols with the adjacent text.</tspan></text>
<path id="Vector_6" opacity="0.4" d="M779 1919H776V1933H779V1919Z" fill="#00AEEF"/>
<g id="Group_4">
<path id="Vector_7" d="M789.525 1933H791.371L786.176 1918.91H784.437L779.242 1933H781.088L782.504 1928.96H788.109L789.525 1933ZM785.277 1921.04H785.336L787.592 1927.47H783.021L785.277 1921.04Z" fill="black"/>
</g>
<path id="Vector_8" opacity="0.4" d="M794.617 1919H791.617V1933H794.617V1919Z" fill="#00AEEF"/>
<text id="Margins" fill="black" xml:space="preserve" style="white-space: pre" font-family="Roboto" font-size="12" letter-spacing="0em"><tspan x="776" y="1952.1">Margins</tspan></text>
<text id="Leading and trailing margins on the left and right side of each symbol" fill="black" xml:space="preserve" style="white-space: pre" font-family="Roboto" font-size="12" letter-spacing="0em"><tspan x="776" y="1970.1">Leading and trailing margins on the left and right side of each symbol</tspan></text>
<text id="can be adjusted by modifying the width of the blue rectangles." fill="black" xml:space="preserve" style="white-space: pre" font-family="Roboto" font-size="12" letter-spacing="0em"><tspan x="776" y="1988.1">can be adjusted by modifying the width of the blue rectangles.</tspan></text>
<text id="Modifications are automatically applied proportionally to all" fill="black" xml:space="preserve" style="white-space: pre" font-family="Roboto" font-size="12" letter-spacing="0em"><tspan x="776" y="2006.1">Modifications are automatically applied proportionally to all</tspan></text>
<text id="scales and weights." fill="black" xml:space="preserve" style="white-space: pre" font-family="Roboto" font-size="12" letter-spacing="0em"><tspan x="776" y="2024.1">scales and weights.</tspan></text>
<g id="Group_5">
<path id="Vector_9" d="M1291.83 1936.11L1293.37 1937.66C1294.22 1938.49 1295.19 1938.42 1296.06 1937.46L1306.27 1926.34C1306.7 1926.63 1307.1 1926.62 1307.56 1926.52L1308.61 1926.31L1309.3 1927L1309.25 1927.52C1309.19 1928.05 1309.35 1928.47 1309.85 1928.97L1310.66 1929.78C1311.17 1930.28 1311.82 1930.31 1312.3 1929.83L1315.55 1926.58C1316.03 1926.1 1316.01 1925.45 1315.5 1924.94L1314.68 1924.12C1314.19 1923.62 1313.77 1923.45 1313.24 1923.53L1312.71 1923.58L1312.06 1922.92L1312.34 1921.78C1312.49 1921.21 1312.34 1920.74 1311.71 1920.14L1309.3 1917.75C1305.76 1914.22 1301.23 1914.33 1298.11 1917.46C1297.69 1917.89 1297.64 1918.48 1297.92 1918.91C1298.15 1919.28 1298.63 1919.5 1299.27 1919.34C1300.79 1918.96 1302.3 1919.07 1303.78 1920.08L1303.16 1921.66C1302.93 1922.25 1302.94 1922.73 1303.18 1923.16L1292.02 1933.44C1291.08 1934.31 1290.97 1935.25 1291.83 1936.11ZM1299.67 1917.85C1302.34 1915.86 1305.65 1916.17 1308.05 1918.58L1310.68 1921.19C1310.91 1921.43 1310.94 1921.61 1310.88 1921.91L1310.5 1923.47L1312.08 1925.04L1313.04 1924.95C1313.33 1924.92 1313.41 1924.94 1313.64 1925.17L1314.26 1925.79L1311.51 1928.54L1310.88 1927.92C1310.66 1927.7 1310.64 1927.6 1310.67 1927.32L1310.76 1926.36L1309.19 1924.8L1307.57 1925.11C1307.29 1925.17 1307.14 1925.17 1306.91 1924.92L1304.73 1922.75C1304.51 1922.51 1304.48 1922.37 1304.61 1922.05L1305.55 1919.78C1303.95 1918.24 1301.84 1917.39 1299.8 1918.05C1299.71 1918.08 1299.64 1918.06 1299.61 1918.02C1299.59 1917.97 1299.59 1917.92 1299.67 1917.85ZM1293.1 1935.41C1292.61 1934.91 1292.79 1934.61 1293.12 1934.31L1304.08 1924.19L1305.31 1925.42L1295.15 1936.35C1294.85 1936.68 1294.47 1936.78 1294.07 1936.38L1293.1 1935.41Z" fill="black"/>
</g>
<text id="Exporting" fill="black" xml:space="preserve" style="white-space: pre" font-family="Roboto" font-size="12" letter-spacing="0em"><tspan x="1289" y="1952.1">Exporting</tspan></text>
<text id="Symbols should be outlined when exporting to ensure the" fill="black" xml:space="preserve" style="white-space: pre" font-family="Roboto" font-size="12" letter-spacing="0em"><tspan x="1289" y="1970.1">Symbols should be outlined when exporting to ensure the</tspan></text>
<text id="design is preserved when submitting to Xcode." fill="black" xml:space="preserve" style="white-space: pre" font-family="Roboto" font-size="12" letter-spacing="0em"><tspan x="1289" y="1988.1">design is preserved when submitting to Xcode.</tspan></text>
<text id="template-version" fill="black" xml:space="preserve" style="white-space: pre" font-family="Roboto" font-size="12" letter-spacing="0em"><tspan x="2958" y="1932.1">Template v.1.0</tspan></text>
<text id="Generated from pencil.circle" fill="black" xml:space="preserve" style="white-space: pre" font-family="Roboto" font-size="12" letter-spacing="0em"><tspan x="2885" y="1950.1">Generated from pencil.circle</tspan></text>
<text id="Typeset at 100 points" fill="black" xml:space="preserve" style="white-space: pre" font-family="Roboto" font-size="12" letter-spacing="0em"><tspan x="2921" y="1968.1">Typeset at 100 points</tspan></text>
<text id="Small" fill="black" xml:space="preserve" style="white-space: pre" font-family="Roboto" font-size="12" letter-spacing="0em"><tspan x="263" y="725.102">Small</tspan></text>
<text id="Medium_2" fill="black" xml:space="preserve" style="white-space: pre" font-family="Roboto" font-size="12" letter-spacing="0em"><tspan x="263" y="1155.1">Medium</tspan></text>
<text id="Large" fill="black" xml:space="preserve" style="white-space: pre" font-family="Roboto" font-size="12" letter-spacing="0em"><tspan x="263" y="1585.1">Large</tspan></text>
</g>
<g id="Guides">
<g id="H-reference">
<path id="Vector_10" d="M393.932 695.998H396.666L369.566 625.539H367.076L339.977 695.998H342.662L351.94 671.535H384.703L393.932 695.998ZM368.199 628.908H368.443L383.824 669.289H352.818L368.199 628.908Z" fill="#27AAE1"/>
</g>
<path id="Baseline-S" d="M263 696H3036" stroke="#27AAE1" stroke-width="0.577"/>
<path id="Capline-S" d="M263 626H3036" stroke="#27AAE1" stroke-width="0.577"/>
<g id="H-reference_2">
<path id="Vector_11" d="M393.932 1126H396.666L369.566 1055.54H367.076L339.977 1126H342.662L351.94 1101.54H384.703L393.932 1126ZM368.199 1058.91H368.443L383.824 1099.29H352.818L368.199 1058.91Z" fill="#27AAE1"/>
</g>
<path id="Baseline-M" d="M263 1126H3036" stroke="#27AAE1" stroke-width="0.577"/>
<path id="Capline-M" d="M263 1056H3036" stroke="#27AAE1" stroke-width="0.577"/>
<g id="H-reference_3">
<path id="Vector_12" d="M393.932 1556H396.666L369.566 1485.54H367.076L339.977 1556H342.662L351.94 1531.54H384.703L393.932 1556ZM368.199 1488.91H368.443L383.824 1529.29H352.818L368.199 1488.91Z" fill="#27AAE1"/>
</g>
<g id="Group 1">
<path id="Baseline-L" d="M263 1556H3036" stroke="#27AAE1" stroke-width="0.577"/>
<path id="Capline-L" d="M263 1486H3036" stroke="#27AAE1" stroke-width="0.577"/>
</g>
<path id="left-margin" opacity="0.4" d="M1414.04 1030.79H1405.3V1150.12H1414.04V1030.79Z" fill="#00AEEF"/>
<path id="right-margin" opacity="0.4" d="M1494.39 1030.79H1485.65V1150.12H1494.39V1030.79Z" fill="#00AEEF"/>
</g>
<g id="Symbols">
<g id="Black-L">
<g id="Solid / Acuring Future Solid">
<path id="Shape" fill-rule="evenodd" clip-rule="evenodd" d="M2952.59 1578.74H2907.59C2900.54 1578.74 2894.84 1573.03 2894.84 1565.99V1549.51H2965.34V1565.99C2965.34 1573.03 2959.63 1578.74 2952.59 1578.74ZM2975.09 1544.26V1565.99C2975.09 1578.42 2965.01 1588.49 2952.59 1588.49H2907.59C2895.16 1588.49 2885.09 1578.42 2885.09 1565.99V1476.47C2885.09 1464.04 2895.16 1453.97 2907.59 1453.97H2952.59C2965.01 1453.97 2975.09 1464.04 2975.09 1476.47V1481.66V1544.26ZM2930.9 1516.66C2929.91 1519 2927.12 1519.82 2924.84 1518.69C2922.31 1517.44 2921.44 1514.28 2922.4 1511.62C2923.4 1508.84 2923.95 1505.85 2923.95 1502.73C2923.95 1499.7 2923.43 1496.78 2922.49 1494.08C2921.56 1491.42 2922.43 1488.3 2924.95 1487.05C2927.25 1485.91 2930.06 1486.75 2931.03 1489.12C2932.75 1493.32 2933.7 1497.91 2933.7 1502.73C2933.7 1507.67 2932.7 1512.37 2930.9 1516.66ZM2941.98 1527.18C2944.31 1528.34 2947.15 1527.46 2948.21 1525.08C2951.24 1518.25 2952.93 1510.69 2952.93 1502.73C2952.93 1494.89 2951.29 1487.43 2948.34 1480.68C2947.3 1478.28 2944.44 1477.39 2942.09 1478.55C2939.61 1479.78 2938.69 1482.82 2939.75 1485.38C2941.96 1490.73 2943.18 1496.58 2943.18 1502.73C2943.18 1508.97 2941.92 1514.92 2939.64 1520.33C2938.56 1522.89 2939.49 1525.95 2941.98 1527.18ZM2909.95 1507.75C2912.65 1507.75 2914.83 1505.56 2914.83 1502.87C2914.83 1500.18 2912.65 1498 2909.95 1498C2907.26 1498 2905.08 1500.18 2905.08 1502.87C2905.08 1505.56 2907.26 1507.75 2909.95 1507.75ZM2906.9 1564.14C2906.9 1561.45 2909.08 1559.26 2911.78 1559.26H2949.98C2952.67 1559.26 2954.85 1561.45 2954.85 1564.14C2954.85 1566.83 2952.67 1569.02 2949.98 1569.02H2911.78C2909.08 1569.02 2906.9 1566.83 2906.9 1564.14Z" fill="black"/>
</g>
</g>
<g id="Heavy-L">
<g id="Solid / Acuring Future Solid_2">
<path id="Shape_2" fill-rule="evenodd" clip-rule="evenodd" d="M2656.59 1578.74H2611.59C2604.54 1578.74 2598.84 1573.03 2598.84 1565.99V1549.51H2669.34V1565.99C2669.34 1573.03 2663.63 1578.74 2656.59 1578.74ZM2679.09 1544.26V1565.99C2679.09 1578.42 2669.01 1588.49 2656.59 1588.49H2611.59C2599.16 1588.49 2589.09 1578.42 2589.09 1565.99V1476.47C2589.09 1464.04 2599.16 1453.97 2611.59 1453.97H2656.59C2669.01 1453.97 2679.09 1464.04 2679.09 1476.47V1481.66V1544.26ZM2634.9 1516.66C2633.91 1519 2631.12 1519.82 2628.84 1518.69C2626.31 1517.44 2625.44 1514.28 2626.4 1511.62C2627.4 1508.84 2627.95 1505.85 2627.95 1502.73C2627.95 1499.7 2627.43 1496.78 2626.49 1494.08C2625.56 1491.42 2626.43 1488.3 2628.95 1487.05C2631.25 1485.91 2634.06 1486.75 2635.03 1489.12C2636.75 1493.32 2637.7 1497.91 2637.7 1502.73C2637.7 1507.67 2636.7 1512.37 2634.9 1516.66ZM2645.98 1527.18C2648.31 1528.34 2651.15 1527.46 2652.21 1525.08C2655.24 1518.25 2656.93 1510.69 2656.93 1502.73C2656.93 1494.89 2655.29 1487.43 2652.34 1480.68C2651.3 1478.28 2648.44 1477.39 2646.09 1478.55C2643.61 1479.78 2642.69 1482.82 2643.75 1485.38C2645.96 1490.73 2647.18 1496.58 2647.18 1502.73C2647.18 1508.97 2645.92 1514.92 2643.64 1520.33C2642.56 1522.89 2643.49 1525.95 2645.98 1527.18ZM2613.95 1507.75C2616.65 1507.75 2618.83 1505.56 2618.83 1502.87C2618.83 1500.18 2616.65 1498 2613.95 1498C2611.26 1498 2609.08 1500.18 2609.08 1502.87C2609.08 1505.56 2611.26 1507.75 2613.95 1507.75ZM2610.9 1564.14C2610.9 1561.45 2613.08 1559.26 2615.78 1559.26H2653.98C2656.67 1559.26 2658.85 1561.45 2658.85 1564.14C2658.85 1566.83 2656.67 1569.02 2653.98 1569.02H2615.78C2613.08 1569.02 2610.9 1566.83 2610.9 1564.14Z" fill="black"/>
</g>
</g>
<g id="Bold-L">
<g id="Solid / Acuring Future Solid_3">
<path id="Shape_3" fill-rule="evenodd" clip-rule="evenodd" d="M2360.59 1578.74H2315.59C2308.54 1578.74 2302.84 1573.03 2302.84 1565.99V1549.51H2373.34V1565.99C2373.34 1573.03 2367.63 1578.74 2360.59 1578.74ZM2383.09 1544.26V1565.99C2383.09 1578.42 2373.01 1588.49 2360.59 1588.49H2315.59C2303.16 1588.49 2293.09 1578.42 2293.09 1565.99V1476.47C2293.09 1464.04 2303.16 1453.97 2315.59 1453.97H2360.59C2373.01 1453.97 2383.09 1464.04 2383.09 1476.47V1481.66V1544.26ZM2338.9 1516.66C2337.91 1519 2335.12 1519.82 2332.84 1518.69C2330.31 1517.44 2329.44 1514.28 2330.4 1511.62C2331.4 1508.84 2331.95 1505.85 2331.95 1502.73C2331.95 1499.7 2331.43 1496.78 2330.49 1494.08C2329.56 1491.42 2330.43 1488.3 2332.95 1487.05C2335.25 1485.91 2338.06 1486.75 2339.03 1489.12C2340.75 1493.32 2341.7 1497.91 2341.7 1502.73C2341.7 1507.67 2340.7 1512.37 2338.9 1516.66ZM2349.98 1527.18C2352.31 1528.34 2355.15 1527.46 2356.21 1525.08C2359.24 1518.25 2360.93 1510.69 2360.93 1502.73C2360.93 1494.89 2359.29 1487.43 2356.34 1480.68C2355.3 1478.28 2352.44 1477.39 2350.09 1478.55C2347.61 1479.78 2346.69 1482.82 2347.75 1485.38C2349.96 1490.73 2351.18 1496.58 2351.18 1502.73C2351.18 1508.97 2349.92 1514.92 2347.64 1520.33C2346.56 1522.89 2347.49 1525.95 2349.98 1527.18ZM2317.95 1507.75C2320.65 1507.75 2322.83 1505.56 2322.83 1502.87C2322.83 1500.18 2320.65 1498 2317.95 1498C2315.26 1498 2313.08 1500.18 2313.08 1502.87C2313.08 1505.56 2315.26 1507.75 2317.95 1507.75ZM2314.9 1564.14C2314.9 1561.45 2317.08 1559.26 2319.78 1559.26H2357.98C2360.67 1559.26 2362.85 1561.45 2362.85 1564.14C2362.85 1566.83 2360.67 1569.02 2357.98 1569.02H2319.78C2317.08 1569.02 2314.9 1566.83 2314.9 1564.14Z" fill="black"/>
</g>
</g>
<g id="Semibold-L">
<g id="Solid / Acuring Future Solid_4">
<path id="Shape_4" fill-rule="evenodd" clip-rule="evenodd" d="M2064.59 1578.74H2019.59C2012.54 1578.74 2006.84 1573.03 2006.84 1565.99V1549.51H2077.34V1565.99C2077.34 1573.03 2071.63 1578.74 2064.59 1578.74ZM2087.09 1544.26V1565.99C2087.09 1578.42 2077.01 1588.49 2064.59 1588.49H2019.59C2007.16 1588.49 1997.09 1578.42 1997.09 1565.99V1476.47C1997.09 1464.04 2007.16 1453.97 2019.59 1453.97H2064.59C2077.01 1453.97 2087.09 1464.04 2087.09 1476.47V1481.66V1544.26ZM2042.9 1516.66C2041.91 1519 2039.12 1519.82 2036.84 1518.69C2034.31 1517.44 2033.44 1514.28 2034.4 1511.62C2035.4 1508.84 2035.95 1505.85 2035.95 1502.73C2035.95 1499.7 2035.43 1496.78 2034.49 1494.08C2033.56 1491.42 2034.43 1488.3 2036.95 1487.05C2039.25 1485.91 2042.06 1486.75 2043.03 1489.12C2044.75 1493.32 2045.7 1497.91 2045.7 1502.73C2045.7 1507.67 2044.7 1512.37 2042.9 1516.66ZM2053.98 1527.18C2056.31 1528.34 2059.15 1527.46 2060.21 1525.08C2063.24 1518.25 2064.93 1510.69 2064.93 1502.73C2064.93 1494.89 2063.29 1487.43 2060.34 1480.68C2059.3 1478.28 2056.44 1477.39 2054.09 1478.55C2051.61 1479.78 2050.69 1482.82 2051.75 1485.38C2053.96 1490.73 2055.18 1496.58 2055.18 1502.73C2055.18 1508.97 2053.92 1514.92 2051.64 1520.33C2050.56 1522.89 2051.49 1525.95 2053.98 1527.18ZM2021.95 1507.75C2024.65 1507.75 2026.83 1505.56 2026.83 1502.87C2026.83 1500.18 2024.65 1498 2021.95 1498C2019.26 1498 2017.08 1500.18 2017.08 1502.87C2017.08 1505.56 2019.26 1507.75 2021.95 1507.75ZM2018.9 1564.14C2018.9 1561.45 2021.08 1559.26 2023.78 1559.26H2061.98C2064.67 1559.26 2066.85 1561.45 2066.85 1564.14C2066.85 1566.83 2064.67 1569.02 2061.98 1569.02H2023.78C2021.08 1569.02 2018.9 1566.83 2018.9 1564.14Z" fill="black"/>
</g>
</g>
<g id="Medium-L">
<g id="Solid / Acuring Future Solid_5">
<path id="Shape_5" fill-rule="evenodd" clip-rule="evenodd" d="M1768.59 1578.74H1723.59C1716.54 1578.74 1710.84 1573.03 1710.84 1565.99V1549.51H1781.34V1565.99C1781.34 1573.03 1775.63 1578.74 1768.59 1578.74ZM1791.09 1544.26V1565.99C1791.09 1578.42 1781.01 1588.49 1768.59 1588.49H1723.59C1711.16 1588.49 1701.09 1578.42 1701.09 1565.99V1476.47C1701.09 1464.04 1711.16 1453.97 1723.59 1453.97H1768.59C1781.01 1453.97 1791.09 1464.04 1791.09 1476.47V1481.66V1544.26ZM1746.9 1516.66C1745.91 1519 1743.12 1519.82 1740.84 1518.69C1738.31 1517.44 1737.44 1514.28 1738.4 1511.62C1739.4 1508.84 1739.95 1505.85 1739.95 1502.73C1739.95 1499.7 1739.43 1496.78 1738.49 1494.08C1737.56 1491.42 1738.43 1488.3 1740.95 1487.05C1743.25 1485.91 1746.06 1486.75 1747.03 1489.12C1748.75 1493.32 1749.7 1497.91 1749.7 1502.73C1749.7 1507.67 1748.7 1512.37 1746.9 1516.66ZM1757.98 1527.18C1760.31 1528.34 1763.15 1527.46 1764.21 1525.08C1767.24 1518.25 1768.93 1510.69 1768.93 1502.73C1768.93 1494.89 1767.29 1487.43 1764.34 1480.68C1763.3 1478.28 1760.44 1477.39 1758.09 1478.55C1755.61 1479.78 1754.69 1482.82 1755.75 1485.38C1757.96 1490.73 1759.18 1496.58 1759.18 1502.73C1759.18 1508.97 1757.92 1514.92 1755.64 1520.33C1754.56 1522.89 1755.49 1525.95 1757.98 1527.18ZM1725.95 1507.75C1728.65 1507.75 1730.83 1505.56 1730.83 1502.87C1730.83 1500.18 1728.65 1498 1725.95 1498C1723.26 1498 1721.08 1500.18 1721.08 1502.87C1721.08 1505.56 1723.26 1507.75 1725.95 1507.75ZM1722.9 1564.14C1722.9 1561.45 1725.08 1559.26 1727.78 1559.26H1765.98C1768.67 1559.26 1770.85 1561.45 1770.85 1564.14C1770.85 1566.83 1768.67 1569.02 1765.98 1569.02H1727.78C1725.08 1569.02 1722.9 1566.83 1722.9 1564.14Z" fill="black"/>
</g>
</g>
<g id="Regular-L">
<g id="Solid / Acuring Future Solid_6">
<path id="Shape_6" fill-rule="evenodd" clip-rule="evenodd" d="M1472.59 1578.74H1427.59C1420.54 1578.74 1414.84 1573.03 1414.84 1565.99V1549.51H1485.34V1565.99C1485.34 1573.03 1479.63 1578.74 1472.59 1578.74ZM1495.09 1544.26V1565.99C1495.09 1578.42 1485.01 1588.49 1472.59 1588.49H1427.59C1415.16 1588.49 1405.09 1578.42 1405.09 1565.99V1476.47C1405.09 1464.04 1415.16 1453.97 1427.59 1453.97H1472.59C1485.01 1453.97 1495.09 1464.04 1495.09 1476.47V1481.66V1544.26ZM1450.9 1516.66C1449.91 1519 1447.12 1519.82 1444.84 1518.69C1442.31 1517.44 1441.44 1514.28 1442.4 1511.62C1443.4 1508.84 1443.95 1505.85 1443.95 1502.73C1443.95 1499.7 1443.43 1496.78 1442.49 1494.08C1441.56 1491.42 1442.43 1488.3 1444.95 1487.05C1447.25 1485.91 1450.06 1486.75 1451.03 1489.12C1452.75 1493.32 1453.7 1497.91 1453.7 1502.73C1453.7 1507.67 1452.7 1512.37 1450.9 1516.66ZM1461.98 1527.18C1464.31 1528.34 1467.15 1527.46 1468.21 1525.08C1471.24 1518.25 1472.93 1510.69 1472.93 1502.73C1472.93 1494.89 1471.29 1487.43 1468.34 1480.68C1467.3 1478.28 1464.44 1477.39 1462.09 1478.55C1459.61 1479.78 1458.69 1482.82 1459.75 1485.38C1461.96 1490.73 1463.18 1496.58 1463.18 1502.73C1463.18 1508.97 1461.92 1514.92 1459.64 1520.33C1458.56 1522.89 1459.49 1525.95 1461.98 1527.18ZM1429.95 1507.75C1432.65 1507.75 1434.83 1505.56 1434.83 1502.87C1434.83 1500.18 1432.65 1498 1429.95 1498C1427.26 1498 1425.08 1500.18 1425.08 1502.87C1425.08 1505.56 1427.26 1507.75 1429.95 1507.75ZM1426.9 1564.14C1426.9 1561.45 1429.08 1559.26 1431.78 1559.26H1469.98C1472.67 1559.26 1474.85 1561.45 1474.85 1564.14C1474.85 1566.83 1472.67 1569.02 1469.98 1569.02H1431.78C1429.08 1569.02 1426.9 1566.83 1426.9 1564.14Z" fill="black"/>
</g>
</g>
<g id="Light-L">
<g id="Solid / Acuring Future Solid_7">
<path id="Shape_7" fill-rule="evenodd" clip-rule="evenodd" d="M1176.59 1578.74H1131.59C1124.54 1578.74 1118.84 1573.03 1118.84 1565.99V1549.51H1189.34V1565.99C1189.34 1573.03 1183.63 1578.74 1176.59 1578.74ZM1199.09 1544.26V1565.99C1199.09 1578.42 1189.01 1588.49 1176.59 1588.49H1131.59C1119.16 1588.49 1109.09 1578.42 1109.09 1565.99V1476.47C1109.09 1464.04 1119.16 1453.97 1131.59 1453.97H1176.59C1189.01 1453.97 1199.09 1464.04 1199.09 1476.47V1481.66V1544.26ZM1154.9 1516.66C1153.91 1519 1151.12 1519.82 1148.84 1518.69C1146.31 1517.44 1145.44 1514.28 1146.4 1511.62C1147.4 1508.84 1147.95 1505.85 1147.95 1502.73C1147.95 1499.7 1147.43 1496.78 1146.49 1494.08C1145.56 1491.42 1146.43 1488.3 1148.95 1487.05C1151.25 1485.91 1154.06 1486.75 1155.03 1489.12C1156.75 1493.32 1157.7 1497.91 1157.7 1502.73C1157.7 1507.67 1156.7 1512.37 1154.9 1516.66ZM1165.98 1527.18C1168.31 1528.34 1171.15 1527.46 1172.21 1525.08C1175.24 1518.25 1176.93 1510.69 1176.93 1502.73C1176.93 1494.89 1175.29 1487.43 1172.34 1480.68C1171.3 1478.28 1168.44 1477.39 1166.09 1478.55C1163.61 1479.78 1162.69 1482.82 1163.75 1485.38C1165.96 1490.73 1167.18 1496.58 1167.18 1502.73C1167.18 1508.97 1165.92 1514.92 1163.64 1520.33C1162.56 1522.89 1163.49 1525.95 1165.98 1527.18ZM1133.95 1507.75C1136.65 1507.75 1138.83 1505.56 1138.83 1502.87C1138.83 1500.18 1136.65 1498 1133.95 1498C1131.26 1498 1129.08 1500.18 1129.08 1502.87C1129.08 1505.56 1131.26 1507.75 1133.95 1507.75ZM1130.9 1564.14C1130.9 1561.45 1133.08 1559.26 1135.78 1559.26H1173.98C1176.67 1559.26 1178.85 1561.45 1178.85 1564.14C1178.85 1566.83 1176.67 1569.02 1173.98 1569.02H1135.78C1133.08 1569.02 1130.9 1566.83 1130.9 1564.14Z" fill="black"/>
</g>
</g>
<g id="Thin-L">
<g id="Solid / Acuring Future Solid_8">
<path id="Shape_8" fill-rule="evenodd" clip-rule="evenodd" d="M880.586 1578.74H835.586C828.544 1578.74 822.836 1573.03 822.836 1565.99V1549.51H893.336V1565.99C893.336 1573.03 887.628 1578.74 880.586 1578.74ZM903.086 1544.26V1565.99C903.086 1578.42 893.012 1588.49 880.586 1588.49H835.586C823.16 1588.49 813.086 1578.42 813.086 1565.99V1476.47C813.086 1464.04 823.16 1453.97 835.586 1453.97H880.586C893.012 1453.97 903.086 1464.04 903.086 1476.47V1481.66V1544.26ZM858.9 1516.66C857.914 1519 855.118 1519.82 852.843 1518.69C850.309 1517.44 849.441 1514.28 850.402 1511.62C851.404 1508.84 851.95 1505.85 851.95 1502.73C851.95 1499.7 851.435 1496.78 850.486 1494.08C849.557 1491.42 850.434 1488.3 852.952 1487.05C855.246 1485.91 858.063 1486.75 859.033 1489.12C860.753 1493.32 861.7 1497.91 861.7 1502.73C861.7 1507.67 860.703 1512.37 858.9 1516.66ZM869.975 1527.18C872.306 1528.34 875.154 1527.46 876.21 1525.08C879.244 1518.25 880.929 1510.69 880.929 1502.73C880.929 1494.89 879.293 1487.43 876.343 1480.68C875.297 1478.28 872.435 1477.39 870.095 1478.55C867.615 1479.78 866.688 1482.82 867.746 1485.38C869.958 1490.73 871.179 1496.58 871.179 1502.73C871.179 1508.97 869.92 1514.92 867.642 1520.33C866.563 1522.89 867.486 1525.95 869.975 1527.18ZM837.953 1507.75C840.646 1507.75 842.828 1505.56 842.828 1502.87C842.828 1500.18 840.646 1498 837.953 1498C835.261 1498 833.078 1500.18 833.078 1502.87C833.078 1505.56 835.261 1507.75 837.953 1507.75ZM834.901 1564.14C834.901 1561.45 837.084 1559.26 839.777 1559.26H877.977C880.67 1559.26 882.853 1561.45 882.853 1564.14C882.853 1566.83 880.67 1569.02 877.977 1569.02H839.777C837.084 1569.02 834.901 1566.83 834.901 1564.14Z" fill="black"/>
</g>
</g>
<g id="Ultralight-L">
<g id="Solid / Acuring Future Solid_9">
<path id="Shape_9" fill-rule="evenodd" clip-rule="evenodd" d="M584.586 1578.74H539.586C532.544 1578.74 526.836 1573.03 526.836 1565.99V1549.51H597.336V1565.99C597.336 1573.03 591.628 1578.74 584.586 1578.74ZM607.086 1544.26V1565.99C607.086 1578.42 597.012 1588.49 584.586 1588.49H539.586C527.16 1588.49 517.086 1578.42 517.086 1565.99V1476.47C517.086 1464.04 527.16 1453.97 539.586 1453.97H584.586C597.012 1453.97 607.086 1464.04 607.086 1476.47V1481.66V1544.26ZM562.9 1516.66C561.914 1519 559.118 1519.82 556.843 1518.69C554.309 1517.44 553.441 1514.28 554.402 1511.62C555.404 1508.84 555.95 1505.85 555.95 1502.73C555.95 1499.7 555.435 1496.78 554.486 1494.08C553.557 1491.42 554.434 1488.3 556.952 1487.05C559.246 1485.91 562.063 1486.75 563.033 1489.12C564.753 1493.32 565.7 1497.91 565.7 1502.73C565.7 1507.67 564.703 1512.37 562.9 1516.66ZM573.975 1527.18C576.306 1528.34 579.154 1527.46 580.21 1525.08C583.244 1518.25 584.929 1510.69 584.929 1502.73C584.929 1494.89 583.293 1487.43 580.343 1480.68C579.297 1478.28 576.435 1477.39 574.095 1478.55C571.615 1479.78 570.688 1482.82 571.746 1485.38C573.958 1490.73 575.179 1496.58 575.179 1502.73C575.179 1508.97 573.92 1514.92 571.642 1520.33C570.563 1522.89 571.486 1525.95 573.975 1527.18ZM541.953 1507.75C544.646 1507.75 546.828 1505.56 546.828 1502.87C546.828 1500.18 544.646 1498 541.953 1498C539.261 1498 537.078 1500.18 537.078 1502.87C537.078 1505.56 539.261 1507.75 541.953 1507.75ZM538.901 1564.14C538.901 1561.45 541.084 1559.26 543.777 1559.26H581.977C584.67 1559.26 586.853 1561.45 586.853 1564.14C586.853 1566.83 584.67 1569.02 581.977 1569.02H543.777C541.084 1569.02 538.901 1566.83 538.901 1564.14Z" fill="black"/>
</g>
</g>
<g id="Black-M">
<g id="Solid / Acuring Future Solid_10">
<path id="Shape_10" fill-rule="evenodd" clip-rule="evenodd" d="M2947.34 1135.91H2912.34C2906.87 1135.91 2902.43 1131.47 2902.43 1125.99V1113.18H2957.26V1125.99C2957.26 1131.47 2952.82 1135.91 2947.34 1135.91ZM2964.84 1109.09V1125.99C2964.84 1135.66 2957.01 1143.49 2947.34 1143.49H2912.34C2902.68 1143.49 2894.84 1135.66 2894.84 1125.99V1056.36C2894.84 1046.7 2902.68 1038.86 2912.34 1038.86H2947.34C2957.01 1038.86 2964.84 1046.7 2964.84 1056.36V1060.4V1109.09ZM2930.48 1087.62C2929.71 1089.44 2927.54 1090.08 2925.77 1089.2C2923.79 1088.23 2923.12 1085.77 2923.87 1083.7C2924.65 1081.54 2925.07 1079.22 2925.07 1076.79C2925.07 1074.43 2924.67 1072.16 2923.93 1070.06C2923.21 1067.99 2923.89 1065.56 2925.85 1064.59C2927.63 1063.71 2929.83 1064.36 2930.58 1066.2C2931.92 1069.47 2932.66 1073.04 2932.66 1076.79C2932.66 1080.63 2931.88 1084.29 2930.48 1087.62ZM2939.09 1095.81C2940.9 1096.71 2943.12 1096.02 2943.94 1094.18C2946.3 1088.86 2947.61 1082.98 2947.61 1076.79C2947.61 1070.69 2946.34 1064.89 2944.04 1059.64C2943.23 1057.77 2941 1057.08 2939.18 1057.98C2937.26 1058.94 2936.53 1061.31 2937.36 1063.29C2939.08 1067.45 2940.03 1072.01 2940.03 1076.79C2940.03 1081.64 2939.05 1086.27 2937.28 1090.48C2936.44 1092.47 2937.15 1094.85 2939.09 1095.81ZM2914.19 1080.69C2916.28 1080.69 2917.98 1078.99 2917.98 1076.9C2917.98 1074.8 2916.28 1073.11 2914.19 1073.11C2912.09 1073.11 2910.39 1074.8 2910.39 1076.9C2910.39 1078.99 2912.09 1080.69 2914.19 1080.69ZM2911.81 1124.55C2911.81 1122.46 2913.51 1120.76 2915.6 1120.76H2945.31C2947.41 1120.76 2949.11 1122.46 2949.11 1124.55C2949.11 1126.65 2947.41 1128.35 2945.31 1128.35H2915.6C2913.51 1128.35 2911.81 1126.65 2911.81 1124.55Z" fill="black"/>
</g>
</g>
<g id="Heavy-M">
<g id="Solid / Acuring Future Solid_11">
<path id="Shape_11" fill-rule="evenodd" clip-rule="evenodd" d="M2651.34 1135.91H2616.34C2610.87 1135.91 2606.43 1131.47 2606.43 1125.99V1113.18H2661.26V1125.99C2661.26 1131.47 2656.82 1135.91 2651.34 1135.91ZM2668.84 1109.09V1125.99C2668.84 1135.66 2661.01 1143.49 2651.34 1143.49H2616.34C2606.68 1143.49 2598.84 1135.66 2598.84 1125.99V1056.36C2598.84 1046.7 2606.68 1038.86 2616.34 1038.86H2651.34C2661.01 1038.86 2668.84 1046.7 2668.84 1056.36V1060.4V1109.09ZM2634.48 1087.62C2633.71 1089.44 2631.54 1090.08 2629.77 1089.2C2627.79 1088.23 2627.12 1085.77 2627.87 1083.7C2628.65 1081.54 2629.07 1079.22 2629.07 1076.79C2629.07 1074.43 2628.67 1072.16 2627.93 1070.06C2627.21 1067.99 2627.89 1065.56 2629.85 1064.59C2631.63 1063.71 2633.83 1064.36 2634.58 1066.2C2635.92 1069.47 2636.66 1073.04 2636.66 1076.79C2636.66 1080.63 2635.88 1084.29 2634.48 1087.62ZM2643.09 1095.81C2644.9 1096.71 2647.12 1096.02 2647.94 1094.18C2650.3 1088.86 2651.61 1082.98 2651.61 1076.79C2651.61 1070.69 2650.34 1064.89 2648.04 1059.64C2647.23 1057.77 2645 1057.08 2643.18 1057.98C2641.26 1058.94 2640.53 1061.31 2641.36 1063.29C2643.08 1067.45 2644.03 1072.01 2644.03 1076.79C2644.03 1081.64 2643.05 1086.27 2641.28 1090.48C2640.44 1092.47 2641.15 1094.85 2643.09 1095.81ZM2618.19 1080.69C2620.28 1080.69 2621.98 1078.99 2621.98 1076.9C2621.98 1074.8 2620.28 1073.11 2618.19 1073.11C2616.09 1073.11 2614.39 1074.8 2614.39 1076.9C2614.39 1078.99 2616.09 1080.69 2618.19 1080.69ZM2615.81 1124.55C2615.81 1122.46 2617.51 1120.76 2619.6 1120.76H2649.31C2651.41 1120.76 2653.11 1122.46 2653.11 1124.55C2653.11 1126.65 2651.41 1128.35 2649.31 1128.35H2619.6C2617.51 1128.35 2615.81 1126.65 2615.81 1124.55Z" fill="black"/>
</g>
</g>
<g id="Bold-M">
<g id="Solid / Acuring Future Solid_12">
<path id="Shape_12" fill-rule="evenodd" clip-rule="evenodd" d="M2355.34 1135.91H2320.34C2314.87 1135.91 2310.43 1131.47 2310.43 1125.99V1113.18H2365.26V1125.99C2365.26 1131.47 2360.82 1135.91 2355.34 1135.91ZM2372.84 1109.09V1125.99C2372.84 1135.66 2365.01 1143.49 2355.34 1143.49H2320.34C2310.68 1143.49 2302.84 1135.66 2302.84 1125.99V1056.36C2302.84 1046.7 2310.68 1038.86 2320.34 1038.86H2355.34C2365.01 1038.86 2372.84 1046.7 2372.84 1056.36V1060.4V1109.09ZM2338.48 1087.62C2337.71 1089.44 2335.54 1090.08 2333.77 1089.2C2331.79 1088.23 2331.12 1085.77 2331.87 1083.7C2332.65 1081.54 2333.07 1079.22 2333.07 1076.79C2333.07 1074.43 2332.67 1072.16 2331.93 1070.06C2331.21 1067.99 2331.89 1065.56 2333.85 1064.59C2335.63 1063.71 2337.83 1064.36 2338.58 1066.2C2339.92 1069.47 2340.66 1073.04 2340.66 1076.79C2340.66 1080.63 2339.88 1084.29 2338.48 1087.62ZM2347.09 1095.81C2348.9 1096.71 2351.12 1096.02 2351.94 1094.18C2354.3 1088.86 2355.61 1082.98 2355.61 1076.79C2355.61 1070.69 2354.34 1064.89 2352.04 1059.64C2351.23 1057.77 2349 1057.08 2347.18 1057.98C2345.26 1058.94 2344.53 1061.31 2345.36 1063.29C2347.08 1067.45 2348.03 1072.01 2348.03 1076.79C2348.03 1081.64 2347.05 1086.27 2345.28 1090.48C2344.44 1092.47 2345.15 1094.85 2347.09 1095.81ZM2322.19 1080.69C2324.28 1080.69 2325.98 1078.99 2325.98 1076.9C2325.98 1074.8 2324.28 1073.11 2322.19 1073.11C2320.09 1073.11 2318.39 1074.8 2318.39 1076.9C2318.39 1078.99 2320.09 1080.69 2322.19 1080.69ZM2319.81 1124.55C2319.81 1122.46 2321.51 1120.76 2323.6 1120.76H2353.31C2355.41 1120.76 2357.11 1122.46 2357.11 1124.55C2357.11 1126.65 2355.41 1128.35 2353.31 1128.35H2323.6C2321.51 1128.35 2319.81 1126.65 2319.81 1124.55Z" fill="black"/>
</g>
</g>
<g id="Semibold-M">
<g id="Solid / Acuring Future Solid_13">
<path id="Shape_13" fill-rule="evenodd" clip-rule="evenodd" d="M2059.34 1135.91H2024.34C2018.87 1135.91 2014.43 1131.47 2014.43 1125.99V1113.18H2069.26V1125.99C2069.26 1131.47 2064.82 1135.91 2059.34 1135.91ZM2076.84 1109.09V1125.99C2076.84 1135.66 2069.01 1143.49 2059.34 1143.49H2024.34C2014.68 1143.49 2006.84 1135.66 2006.84 1125.99V1056.36C2006.84 1046.7 2014.68 1038.86 2024.34 1038.86H2059.34C2069.01 1038.86 2076.84 1046.7 2076.84 1056.36V1060.4V1109.09ZM2042.48 1087.62C2041.71 1089.44 2039.54 1090.08 2037.77 1089.2C2035.79 1088.23 2035.12 1085.77 2035.87 1083.7C2036.65 1081.54 2037.07 1079.22 2037.07 1076.79C2037.07 1074.43 2036.67 1072.16 2035.93 1070.06C2035.21 1067.99 2035.89 1065.56 2037.85 1064.59C2039.63 1063.71 2041.83 1064.36 2042.58 1066.2C2043.92 1069.47 2044.66 1073.04 2044.66 1076.79C2044.66 1080.63 2043.88 1084.29 2042.48 1087.62ZM2051.09 1095.81C2052.9 1096.71 2055.12 1096.02 2055.94 1094.18C2058.3 1088.86 2059.61 1082.98 2059.61 1076.79C2059.61 1070.69 2058.34 1064.89 2056.04 1059.64C2055.23 1057.77 2053 1057.08 2051.18 1057.98C2049.26 1058.94 2048.53 1061.31 2049.36 1063.29C2051.08 1067.45 2052.03 1072.01 2052.03 1076.79C2052.03 1081.64 2051.05 1086.27 2049.28 1090.48C2048.44 1092.47 2049.15 1094.85 2051.09 1095.81ZM2026.19 1080.69C2028.28 1080.69 2029.98 1078.99 2029.98 1076.9C2029.98 1074.8 2028.28 1073.11 2026.19 1073.11C2024.09 1073.11 2022.39 1074.8 2022.39 1076.9C2022.39 1078.99 2024.09 1080.69 2026.19 1080.69ZM2023.81 1124.55C2023.81 1122.46 2025.51 1120.76 2027.6 1120.76H2057.31C2059.41 1120.76 2061.11 1122.46 2061.11 1124.55C2061.11 1126.65 2059.41 1128.35 2057.31 1128.35H2027.6C2025.51 1128.35 2023.81 1126.65 2023.81 1124.55Z" fill="black"/>
</g>
</g>
<g id="Medium-M">
<g id="Solid / Acuring Future Solid_14">
<path id="Shape_14" fill-rule="evenodd" clip-rule="evenodd" d="M1763.34 1135.91H1728.34C1722.87 1135.91 1718.43 1131.47 1718.43 1125.99V1113.18H1773.26V1125.99C1773.26 1131.47 1768.82 1135.91 1763.34 1135.91ZM1780.84 1109.09V1125.99C1780.84 1135.66 1773.01 1143.49 1763.34 1143.49H1728.34C1718.68 1143.49 1710.84 1135.66 1710.84 1125.99V1056.36C1710.84 1046.7 1718.68 1038.86 1728.34 1038.86H1763.34C1773.01 1038.86 1780.84 1046.7 1780.84 1056.36V1060.4V1109.09ZM1746.48 1087.62C1745.71 1089.44 1743.54 1090.08 1741.77 1089.2C1739.79 1088.23 1739.12 1085.77 1739.87 1083.7C1740.65 1081.54 1741.07 1079.22 1741.07 1076.79C1741.07 1074.43 1740.67 1072.16 1739.93 1070.06C1739.21 1067.99 1739.89 1065.56 1741.85 1064.59C1743.63 1063.71 1745.83 1064.36 1746.58 1066.2C1747.92 1069.47 1748.66 1073.04 1748.66 1076.79C1748.66 1080.63 1747.88 1084.29 1746.48 1087.62ZM1755.09 1095.81C1756.9 1096.71 1759.12 1096.02 1759.94 1094.18C1762.3 1088.86 1763.61 1082.98 1763.61 1076.79C1763.61 1070.69 1762.34 1064.89 1760.04 1059.64C1759.23 1057.77 1757 1057.08 1755.18 1057.98C1753.26 1058.94 1752.53 1061.31 1753.36 1063.29C1755.08 1067.45 1756.03 1072.01 1756.03 1076.79C1756.03 1081.64 1755.05 1086.27 1753.28 1090.48C1752.44 1092.47 1753.15 1094.85 1755.09 1095.81ZM1730.19 1080.69C1732.28 1080.69 1733.98 1078.99 1733.98 1076.9C1733.98 1074.8 1732.28 1073.11 1730.19 1073.11C1728.09 1073.11 1726.39 1074.8 1726.39 1076.9C1726.39 1078.99 1728.09 1080.69 1730.19 1080.69ZM1727.81 1124.55C1727.81 1122.46 1729.51 1120.76 1731.6 1120.76H1761.31C1763.41 1120.76 1765.11 1122.46 1765.11 1124.55C1765.11 1126.65 1763.41 1128.35 1761.31 1128.35H1731.6C1729.51 1128.35 1727.81 1126.65 1727.81 1124.55Z" fill="black"/>
</g>
</g>
<g id="Regular-M">
<g id="Solid / Acuring Future Solid_15">
<path id="Shape_15" fill-rule="evenodd" clip-rule="evenodd" d="M1467.34 1135.91H1432.34C1426.87 1135.91 1422.43 1131.47 1422.43 1125.99V1113.18H1477.26V1125.99C1477.26 1131.47 1472.82 1135.91 1467.34 1135.91ZM1484.84 1109.09V1125.99C1484.84 1135.66 1477.01 1143.49 1467.34 1143.49H1432.34C1422.68 1143.49 1414.84 1135.66 1414.84 1125.99V1056.36C1414.84 1046.7 1422.68 1038.86 1432.34 1038.86H1467.34C1477.01 1038.86 1484.84 1046.7 1484.84 1056.36V1060.4V1109.09ZM1450.48 1087.62C1449.71 1089.44 1447.54 1090.08 1445.77 1089.2C1443.79 1088.23 1443.12 1085.77 1443.87 1083.7C1444.65 1081.54 1445.07 1079.22 1445.07 1076.79C1445.07 1074.43 1444.67 1072.16 1443.93 1070.06C1443.21 1067.99 1443.89 1065.56 1445.85 1064.59C1447.63 1063.71 1449.83 1064.36 1450.58 1066.2C1451.92 1069.47 1452.66 1073.04 1452.66 1076.79C1452.66 1080.63 1451.88 1084.29 1450.48 1087.62ZM1459.09 1095.81C1460.9 1096.71 1463.12 1096.02 1463.94 1094.18C1466.3 1088.86 1467.61 1082.98 1467.61 1076.79C1467.61 1070.69 1466.34 1064.89 1464.04 1059.64C1463.23 1057.77 1461 1057.08 1459.18 1057.98C1457.26 1058.94 1456.53 1061.31 1457.36 1063.29C1459.08 1067.45 1460.03 1072.01 1460.03 1076.79C1460.03 1081.64 1459.05 1086.27 1457.28 1090.48C1456.44 1092.47 1457.15 1094.85 1459.09 1095.81ZM1434.19 1080.69C1436.28 1080.69 1437.98 1078.99 1437.98 1076.9C1437.98 1074.8 1436.28 1073.11 1434.19 1073.11C1432.09 1073.11 1430.39 1074.8 1430.39 1076.9C1430.39 1078.99 1432.09 1080.69 1434.19 1080.69ZM1431.81 1124.55C1431.81 1122.46 1433.51 1120.76 1435.6 1120.76H1465.31C1467.41 1120.76 1469.11 1122.46 1469.11 1124.55C1469.11 1126.65 1467.41 1128.35 1465.31 1128.35H1435.6C1433.51 1128.35 1431.81 1126.65 1431.81 1124.55Z" fill="black"/>
</g>
</g>
<g id="Light-M">
<g id="Solid / Acuring Future Solid_16">
<path id="Shape_16" fill-rule="evenodd" clip-rule="evenodd" d="M1171.34 1135.91H1136.34C1130.87 1135.91 1126.43 1131.47 1126.43 1125.99V1113.18H1181.26V1125.99C1181.26 1131.47 1176.82 1135.91 1171.34 1135.91ZM1188.84 1109.09V1125.99C1188.84 1135.66 1181.01 1143.49 1171.34 1143.49H1136.34C1126.68 1143.49 1118.84 1135.66 1118.84 1125.99V1056.36C1118.84 1046.7 1126.68 1038.86 1136.34 1038.86H1171.34C1181.01 1038.86 1188.84 1046.7 1188.84 1056.36V1060.4V1109.09ZM1154.48 1087.62C1153.71 1089.44 1151.54 1090.08 1149.77 1089.2C1147.79 1088.23 1147.12 1085.77 1147.87 1083.7C1148.65 1081.54 1149.07 1079.22 1149.07 1076.79C1149.07 1074.43 1148.67 1072.16 1147.93 1070.06C1147.21 1067.99 1147.89 1065.56 1149.85 1064.59C1151.63 1063.71 1153.83 1064.36 1154.58 1066.2C1155.92 1069.47 1156.66 1073.04 1156.66 1076.79C1156.66 1080.63 1155.88 1084.29 1154.48 1087.62ZM1163.09 1095.81C1164.9 1096.71 1167.12 1096.02 1167.94 1094.18C1170.3 1088.86 1171.61 1082.98 1171.61 1076.79C1171.61 1070.69 1170.34 1064.89 1168.04 1059.64C1167.23 1057.77 1165 1057.08 1163.18 1057.98C1161.26 1058.94 1160.53 1061.31 1161.36 1063.29C1163.08 1067.45 1164.03 1072.01 1164.03 1076.79C1164.03 1081.64 1163.05 1086.27 1161.28 1090.48C1160.44 1092.47 1161.15 1094.85 1163.09 1095.81ZM1138.19 1080.69C1140.28 1080.69 1141.98 1078.99 1141.98 1076.9C1141.98 1074.8 1140.28 1073.11 1138.19 1073.11C1136.09 1073.11 1134.39 1074.8 1134.39 1076.9C1134.39 1078.99 1136.09 1080.69 1138.19 1080.69ZM1135.81 1124.55C1135.81 1122.46 1137.51 1120.76 1139.6 1120.76H1169.31C1171.41 1120.76 1173.11 1122.46 1173.11 1124.55C1173.11 1126.65 1171.41 1128.35 1169.31 1128.35H1139.6C1137.51 1128.35 1135.81 1126.65 1135.81 1124.55Z" fill="black"/>
</g>
</g>
<g id="Thin-M">
<g id="Solid / Acuring Future Solid_17">
<path id="Shape_17" fill-rule="evenodd" clip-rule="evenodd" d="M875.344 1135.91H840.344C834.867 1135.91 830.427 1131.47 830.427 1125.99V1113.18H885.26V1125.99C885.26 1131.47 880.821 1135.91 875.344 1135.91ZM892.844 1109.09V1125.99C892.844 1135.66 885.009 1143.49 875.344 1143.49H840.344C830.679 1143.49 822.844 1135.66 822.844 1125.99V1056.36C822.844 1046.7 830.679 1038.86 840.344 1038.86H875.344C885.009 1038.86 892.844 1046.7 892.844 1056.36V1060.4V1109.09ZM858.477 1087.62C857.71 1089.44 855.536 1090.08 853.766 1089.2C851.795 1088.23 851.12 1085.77 851.867 1083.7C852.647 1081.54 853.072 1079.22 853.072 1076.79C853.072 1074.43 852.67 1072.16 851.933 1070.06C851.21 1067.99 851.892 1065.56 853.851 1064.59C855.635 1063.71 857.826 1064.36 858.58 1066.2C859.918 1069.47 860.655 1073.04 860.655 1076.79C860.655 1080.63 859.88 1084.29 858.477 1087.62ZM867.091 1095.81C868.903 1096.71 871.119 1096.02 871.94 1094.18C874.3 1088.86 875.611 1082.98 875.611 1076.79C875.611 1070.69 874.338 1064.89 872.044 1059.64C871.23 1057.77 869.005 1057.08 867.184 1057.98C865.255 1058.94 864.534 1061.31 865.357 1063.29C867.078 1067.45 868.027 1072.01 868.027 1076.79C868.027 1081.64 867.048 1086.27 865.276 1090.48C864.437 1092.47 865.155 1094.85 867.091 1095.81ZM842.185 1080.69C844.279 1080.69 845.977 1078.99 845.977 1076.9C845.977 1074.8 844.279 1073.11 842.185 1073.11C840.091 1073.11 838.393 1074.8 838.393 1076.9C838.393 1078.99 840.091 1080.69 842.185 1080.69ZM839.811 1124.55C839.811 1122.46 841.509 1120.76 843.603 1120.76H873.315C875.409 1120.76 877.107 1122.46 877.107 1124.55C877.107 1126.65 875.409 1128.35 873.315 1128.35H843.603C841.509 1128.35 839.811 1126.65 839.811 1124.55Z" fill="black"/>
</g>
</g>
<g id="Ultralight-M">
<g id="Solid / Acuring Future Solid_18">
<path id="Shape_18" fill-rule="evenodd" clip-rule="evenodd" d="M579.344 1135.91H544.344C538.867 1135.91 534.427 1131.47 534.427 1125.99V1113.18H589.26V1125.99C589.26 1131.47 584.821 1135.91 579.344 1135.91ZM596.844 1109.09V1125.99C596.844 1135.66 589.009 1143.49 579.344 1143.49H544.344C534.679 1143.49 526.844 1135.66 526.844 1125.99V1056.36C526.844 1046.7 534.679 1038.86 544.344 1038.86H579.344C589.009 1038.86 596.844 1046.7 596.844 1056.36V1060.4V1109.09ZM562.477 1087.62C561.71 1089.44 559.536 1090.08 557.766 1089.2C555.795 1088.23 555.12 1085.77 555.867 1083.7C556.647 1081.54 557.072 1079.22 557.072 1076.79C557.072 1074.43 556.67 1072.16 555.933 1070.06C555.21 1067.99 555.892 1065.56 557.851 1064.59C559.635 1063.71 561.826 1064.36 562.58 1066.2C563.918 1069.47 564.655 1073.04 564.655 1076.79C564.655 1080.63 563.88 1084.29 562.477 1087.62ZM571.091 1095.81C572.903 1096.71 575.119 1096.02 575.94 1094.18C578.3 1088.86 579.611 1082.98 579.611 1076.79C579.611 1070.69 578.338 1064.89 576.044 1059.64C575.23 1057.77 573.005 1057.08 571.184 1057.98C569.255 1058.94 568.534 1061.31 569.357 1063.29C571.078 1067.45 572.027 1072.01 572.027 1076.79C572.027 1081.64 571.048 1086.27 569.276 1090.48C568.437 1092.47 569.155 1094.85 571.091 1095.81ZM546.185 1080.69C548.279 1080.69 549.977 1078.99 549.977 1076.9C549.977 1074.8 548.279 1073.11 546.185 1073.11C544.091 1073.11 542.393 1074.8 542.393 1076.9C542.393 1078.99 544.091 1080.69 546.185 1080.69ZM543.811 1124.55C543.811 1122.46 545.509 1120.76 547.603 1120.76H577.315C579.409 1120.76 581.107 1122.46 581.107 1124.55C581.107 1126.65 579.409 1128.35 577.315 1128.35H547.603C545.509 1128.35 543.811 1126.65 543.811 1124.55Z" fill="black"/>
</g>
</g>
<g id="Black-S">
<g id="Solid / Acuring Future Solid_19">
<path id="Shape_19" fill-rule="evenodd" clip-rule="evenodd" d="M2942.1 693.079H2917.1C2913.19 693.079 2910.02 689.908 2910.02 685.996V676.842H2949.18V685.996C2949.18 689.908 2946.01 693.079 2942.1 693.079ZM2954.6 673.925V685.996C2954.6 692.899 2949.01 698.496 2942.1 698.496H2917.1C2910.2 698.496 2904.6 692.899 2904.6 685.996V636.262C2904.6 629.358 2910.2 623.762 2917.1 623.762H2942.1C2949.01 623.762 2954.6 629.358 2954.6 636.262V639.145V673.925ZM2930.05 658.589C2929.51 659.889 2927.95 660.346 2926.69 659.719C2925.28 659.021 2924.8 657.267 2925.33 655.789C2925.89 654.247 2926.19 652.584 2926.19 650.851C2926.19 649.166 2925.91 647.549 2925.38 646.044C2924.86 644.57 2925.35 642.833 2926.75 642.14C2928.02 641.508 2929.59 641.976 2930.13 643.291C2931.08 645.623 2931.61 648.175 2931.61 650.851C2931.61 653.595 2931.06 656.209 2930.05 658.589ZM2936.21 664.437C2937.5 665.079 2939.08 664.591 2939.67 663.27C2941.36 659.474 2942.29 655.272 2942.29 650.851C2942.29 646.495 2941.38 642.352 2939.74 638.6C2939.16 637.27 2937.57 636.774 2936.27 637.419C2934.9 638.102 2934.38 639.792 2934.97 641.213C2936.2 644.182 2936.88 647.437 2936.88 650.851C2936.88 654.318 2936.18 657.621 2934.91 660.628C2934.31 662.051 2934.82 663.752 2936.21 664.437ZM2918.42 653.637C2919.91 653.637 2921.13 652.425 2921.13 650.929C2921.13 649.433 2919.91 648.221 2918.42 648.221C2916.92 648.221 2915.71 649.433 2915.71 650.929C2915.71 652.425 2916.92 653.637 2918.42 653.637ZM2916.72 684.968C2916.72 683.472 2917.93 682.26 2919.43 682.26H2940.65C2942.15 682.26 2943.36 683.472 2943.36 684.968C2943.36 686.464 2942.15 687.677 2940.65 687.677H2919.43C2917.93 687.677 2916.72 686.464 2916.72 684.968Z" fill="black"/>
</g>
</g>
<g id="Heavy-S">
<g id="Solid / Acuring Future Solid_20">
<path id="Shape_20" fill-rule="evenodd" clip-rule="evenodd" d="M2646.1 693.079H2621.1C2617.19 693.079 2614.02 689.908 2614.02 685.996V676.842H2653.18V685.996C2653.18 689.908 2650.01 693.079 2646.1 693.079ZM2658.6 673.925V685.996C2658.6 692.899 2653.01 698.496 2646.1 698.496H2621.1C2614.2 698.496 2608.6 692.899 2608.6 685.996V636.262C2608.6 629.358 2614.2 623.762 2621.1 623.762H2646.1C2653.01 623.762 2658.6 629.358 2658.6 636.262V639.145V673.925ZM2634.05 658.589C2633.51 659.889 2631.95 660.346 2630.69 659.719C2629.28 659.021 2628.8 657.267 2629.33 655.789C2629.89 654.247 2630.19 652.584 2630.19 650.851C2630.19 649.166 2629.91 647.549 2629.38 646.044C2628.86 644.57 2629.35 642.833 2630.75 642.14C2632.02 641.508 2633.59 641.976 2634.13 643.291C2635.08 645.623 2635.61 648.175 2635.61 650.851C2635.61 653.595 2635.06 656.209 2634.05 658.589ZM2640.21 664.437C2641.5 665.079 2643.08 664.591 2643.67 663.27C2645.36 659.474 2646.29 655.272 2646.29 650.851C2646.29 646.495 2645.38 642.352 2643.74 638.6C2643.16 637.27 2641.57 636.774 2640.27 637.419C2638.9 638.102 2638.38 639.792 2638.97 641.213C2640.2 644.182 2640.88 647.437 2640.88 650.851C2640.88 654.318 2640.18 657.621 2638.91 660.628C2638.31 662.051 2638.82 663.752 2640.21 664.437ZM2622.42 653.637C2623.91 653.637 2625.13 652.425 2625.13 650.929C2625.13 649.433 2623.91 648.221 2622.42 648.221C2620.92 648.221 2619.71 649.433 2619.71 650.929C2619.71 652.425 2620.92 653.637 2622.42 653.637ZM2620.72 684.968C2620.72 683.472 2621.93 682.26 2623.43 682.26H2644.65C2646.15 682.26 2647.36 683.472 2647.36 684.968C2647.36 686.464 2646.15 687.677 2644.65 687.677H2623.43C2621.93 687.677 2620.72 686.464 2620.72 684.968Z" fill="black"/>
</g>
</g>
<g id="Bold-S">
<g id="Solid / Acuring Future Solid_21">
<path id="Shape_21" fill-rule="evenodd" clip-rule="evenodd" d="M2350.1 693.079H2325.1C2321.19 693.079 2318.02 689.908 2318.02 685.996V676.842H2357.18V685.996C2357.18 689.908 2354.01 693.079 2350.1 693.079ZM2362.6 673.925V685.996C2362.6 692.899 2357.01 698.496 2350.1 698.496H2325.1C2318.2 698.496 2312.6 692.899 2312.6 685.996V636.262C2312.6 629.358 2318.2 623.762 2325.1 623.762H2350.1C2357.01 623.762 2362.6 629.358 2362.6 636.262V639.145V673.925ZM2338.05 658.589C2337.51 659.889 2335.95 660.346 2334.69 659.719C2333.28 659.021 2332.8 657.267 2333.33 655.789C2333.89 654.247 2334.19 652.584 2334.19 650.851C2334.19 649.166 2333.91 647.549 2333.38 646.044C2332.86 644.57 2333.35 642.833 2334.75 642.14C2336.02 641.508 2337.59 641.976 2338.13 643.291C2339.08 645.623 2339.61 648.175 2339.61 650.851C2339.61 653.595 2339.06 656.209 2338.05 658.589ZM2344.21 664.437C2345.5 665.079 2347.08 664.591 2347.67 663.27C2349.36 659.474 2350.29 655.272 2350.29 650.851C2350.29 646.495 2349.38 642.352 2347.74 638.6C2347.16 637.27 2345.57 636.774 2344.27 637.419C2342.9 638.102 2342.38 639.792 2342.97 641.213C2344.2 644.182 2344.88 647.437 2344.88 650.851C2344.88 654.318 2344.18 657.621 2342.91 660.628C2342.31 662.051 2342.82 663.752 2344.21 664.437ZM2326.42 653.637C2327.91 653.637 2329.13 652.425 2329.13 650.929C2329.13 649.433 2327.91 648.221 2326.42 648.221C2324.92 648.221 2323.71 649.433 2323.71 650.929C2323.71 652.425 2324.92 653.637 2326.42 653.637ZM2324.72 684.968C2324.72 683.472 2325.93 682.26 2327.43 682.26H2348.65C2350.15 682.26 2351.36 683.472 2351.36 684.968C2351.36 686.464 2350.15 687.677 2348.65 687.677H2327.43C2325.93 687.677 2324.72 686.464 2324.72 684.968Z" fill="black"/>
</g>
</g>
<g id="Semibold-S">
<g id="Solid / Acuring Future Solid_22">
<path id="Shape_22" fill-rule="evenodd" clip-rule="evenodd" d="M2054.1 693.079H2029.1C2025.19 693.079 2022.02 689.908 2022.02 685.996V676.842H2061.18V685.996C2061.18 689.908 2058.01 693.079 2054.1 693.079ZM2066.6 673.925V685.996C2066.6 692.899 2061.01 698.496 2054.1 698.496H2029.1C2022.2 698.496 2016.6 692.899 2016.6 685.996V636.262C2016.6 629.358 2022.2 623.762 2029.1 623.762H2054.1C2061.01 623.762 2066.6 629.358 2066.6 636.262V639.145V673.925ZM2042.05 658.589C2041.51 659.889 2039.95 660.346 2038.69 659.719C2037.28 659.021 2036.8 657.267 2037.33 655.789C2037.89 654.247 2038.19 652.584 2038.19 650.851C2038.19 649.166 2037.91 647.549 2037.38 646.044C2036.86 644.57 2037.35 642.833 2038.75 642.14C2040.02 641.508 2041.59 641.976 2042.13 643.291C2043.08 645.623 2043.61 648.175 2043.61 650.851C2043.61 653.595 2043.06 656.209 2042.05 658.589ZM2048.21 664.437C2049.5 665.079 2051.08 664.591 2051.67 663.27C2053.36 659.474 2054.29 655.272 2054.29 650.851C2054.29 646.495 2053.38 642.352 2051.74 638.6C2051.16 637.27 2049.57 636.774 2048.27 637.419C2046.9 638.102 2046.38 639.792 2046.97 641.213C2048.2 644.182 2048.88 647.437 2048.88 650.851C2048.88 654.318 2048.18 657.621 2046.91 660.628C2046.31 662.051 2046.82 663.752 2048.21 664.437ZM2030.42 653.637C2031.91 653.637 2033.13 652.425 2033.13 650.929C2033.13 649.433 2031.91 648.221 2030.42 648.221C2028.92 648.221 2027.71 649.433 2027.71 650.929C2027.71 652.425 2028.92 653.637 2030.42 653.637ZM2028.72 684.968C2028.72 683.472 2029.93 682.26 2031.43 682.26H2052.65C2054.15 682.26 2055.36 683.472 2055.36 684.968C2055.36 686.464 2054.15 687.677 2052.65 687.677H2031.43C2029.93 687.677 2028.72 686.464 2028.72 684.968Z" fill="black"/>
</g>
</g>
<g id="Medium-S">
<g id="Solid / Acuring Future Solid_23">
<path id="Shape_23" fill-rule="evenodd" clip-rule="evenodd" d="M1758.1 693.079H1733.1C1729.19 693.079 1726.02 689.908 1726.02 685.996V676.842H1765.18V685.996C1765.18 689.908 1762.01 693.079 1758.1 693.079ZM1770.6 673.925V685.996C1770.6 692.899 1765.01 698.496 1758.1 698.496H1733.1C1726.2 698.496 1720.6 692.899 1720.6 685.996V636.262C1720.6 629.358 1726.2 623.762 1733.1 623.762H1758.1C1765.01 623.762 1770.6 629.358 1770.6 636.262V639.145V673.925ZM1746.05 658.589C1745.51 659.889 1743.95 660.346 1742.69 659.719C1741.28 659.021 1740.8 657.267 1741.33 655.789C1741.89 654.247 1742.19 652.584 1742.19 650.851C1742.19 649.166 1741.91 647.549 1741.38 646.044C1740.86 644.57 1741.35 642.833 1742.75 642.14C1744.02 641.508 1745.59 641.976 1746.13 643.291C1747.08 645.623 1747.61 648.175 1747.61 650.851C1747.61 653.595 1747.06 656.209 1746.05 658.589ZM1752.21 664.437C1753.5 665.079 1755.08 664.591 1755.67 663.27C1757.36 659.474 1758.29 655.272 1758.29 650.851C1758.29 646.495 1757.38 642.352 1755.74 638.6C1755.16 637.27 1753.57 636.774 1752.27 637.419C1750.9 638.102 1750.38 639.792 1750.97 641.213C1752.2 644.182 1752.88 647.437 1752.88 650.851C1752.88 654.318 1752.18 657.621 1750.91 660.628C1750.31 662.051 1750.82 663.752 1752.21 664.437ZM1734.42 653.637C1735.91 653.637 1737.13 652.425 1737.13 650.929C1737.13 649.433 1735.91 648.221 1734.42 648.221C1732.92 648.221 1731.71 649.433 1731.71 650.929C1731.71 652.425 1732.92 653.637 1734.42 653.637ZM1732.72 684.968C1732.72 683.472 1733.93 682.26 1735.43 682.26H1756.65C1758.15 682.26 1759.36 683.472 1759.36 684.968C1759.36 686.464 1758.15 687.677 1756.65 687.677H1735.43C1733.93 687.677 1732.72 686.464 1732.72 684.968Z" fill="black"/>
</g>
</g>
<g id="Regular-S">
<g id="Solid / Acuring Future Solid_24">
<path id="Shape_24" fill-rule="evenodd" clip-rule="evenodd" d="M1462.1 693.079H1437.1C1433.19 693.079 1430.02 689.908 1430.02 685.996V676.842H1469.18V685.996C1469.18 689.908 1466.01 693.079 1462.1 693.079ZM1474.6 673.925V685.996C1474.6 692.899 1469.01 698.496 1462.1 698.496H1437.1C1430.2 698.496 1424.6 692.899 1424.6 685.996V636.262C1424.6 629.358 1430.2 623.762 1437.1 623.762H1462.1C1469.01 623.762 1474.6 629.358 1474.6 636.262V639.145V673.925ZM1450.05 658.589C1449.51 659.889 1447.95 660.346 1446.69 659.719C1445.28 659.021 1444.8 657.267 1445.33 655.789C1445.89 654.247 1446.19 652.584 1446.19 650.851C1446.19 649.166 1445.91 647.549 1445.38 646.044C1444.86 644.57 1445.35 642.833 1446.75 642.14C1448.02 641.508 1449.59 641.976 1450.13 643.291C1451.08 645.623 1451.61 648.175 1451.61 650.851C1451.61 653.595 1451.06 656.209 1450.05 658.589ZM1456.21 664.437C1457.5 665.079 1459.08 664.591 1459.67 663.27C1461.36 659.474 1462.29 655.272 1462.29 650.851C1462.29 646.495 1461.38 642.352 1459.74 638.6C1459.16 637.27 1457.57 636.774 1456.27 637.419C1454.9 638.102 1454.38 639.792 1454.97 641.213C1456.2 644.182 1456.88 647.437 1456.88 650.851C1456.88 654.318 1456.18 657.621 1454.91 660.628C1454.31 662.051 1454.82 663.752 1456.21 664.437ZM1438.42 653.637C1439.91 653.637 1441.13 652.425 1441.13 650.929C1441.13 649.433 1439.91 648.221 1438.42 648.221C1436.92 648.221 1435.71 649.433 1435.71 650.929C1435.71 652.425 1436.92 653.637 1438.42 653.637ZM1436.72 684.968C1436.72 683.472 1437.93 682.26 1439.43 682.26H1460.65C1462.15 682.26 1463.36 683.472 1463.36 684.968C1463.36 686.464 1462.15 687.677 1460.65 687.677H1439.43C1437.93 687.677 1436.72 686.464 1436.72 684.968Z" fill="black"/>
</g>
</g>
<g id="Light-S">
<g id="Solid / Acuring Future Solid_25">
<path id="Shape_25" fill-rule="evenodd" clip-rule="evenodd" d="M1166.1 693.079H1141.1C1137.19 693.079 1134.02 689.908 1134.02 685.996V676.842H1173.18V685.996C1173.18 689.908 1170.01 693.079 1166.1 693.079ZM1178.6 673.925V685.996C1178.6 692.899 1173.01 698.496 1166.1 698.496H1141.1C1134.2 698.496 1128.6 692.899 1128.6 685.996V636.262C1128.6 629.358 1134.2 623.762 1141.1 623.762H1166.1C1173.01 623.762 1178.6 629.358 1178.6 636.262V639.145V673.925ZM1154.05 658.589C1153.51 659.889 1151.95 660.346 1150.69 659.719C1149.28 659.021 1148.8 657.267 1149.33 655.789C1149.89 654.247 1150.19 652.584 1150.19 650.851C1150.19 649.166 1149.91 647.549 1149.38 646.044C1148.86 644.57 1149.35 642.833 1150.75 642.14C1152.02 641.508 1153.59 641.976 1154.13 643.291C1155.08 645.623 1155.61 648.175 1155.61 650.851C1155.61 653.595 1155.06 656.209 1154.05 658.589ZM1160.21 664.437C1161.5 665.079 1163.08 664.591 1163.67 663.27C1165.36 659.474 1166.29 655.272 1166.29 650.851C1166.29 646.495 1165.38 642.352 1163.74 638.6C1163.16 637.27 1161.57 636.774 1160.27 637.419C1158.9 638.102 1158.38 639.792 1158.97 641.213C1160.2 644.182 1160.88 647.437 1160.88 650.851C1160.88 654.318 1160.18 657.621 1158.91 660.628C1158.31 662.051 1158.82 663.752 1160.21 664.437ZM1142.42 653.637C1143.91 653.637 1145.13 652.425 1145.13 650.929C1145.13 649.433 1143.91 648.221 1142.42 648.221C1140.92 648.221 1139.71 649.433 1139.71 650.929C1139.71 652.425 1140.92 653.637 1142.42 653.637ZM1140.72 684.968C1140.72 683.472 1141.93 682.26 1143.43 682.26H1164.65C1166.15 682.26 1167.36 683.472 1167.36 684.968C1167.36 686.464 1166.15 687.677 1164.65 687.677H1143.43C1141.93 687.677 1140.72 686.464 1140.72 684.968Z" fill="black"/>
</g>
</g>
<g id="Thin-S">
<g id="Solid / Acuring Future Solid_26">
<path id="Shape_26" fill-rule="evenodd" clip-rule="evenodd" d="M870.102 693.079H845.102C841.19 693.079 838.018 689.908 838.018 685.996V676.842H877.185V685.996C877.185 689.908 874.014 693.079 870.102 693.079ZM882.602 673.925V685.996C882.602 692.899 877.005 698.496 870.102 698.496H845.102C838.198 698.496 832.602 692.899 832.602 685.996V636.262C832.602 629.358 838.198 623.762 845.102 623.762H870.102C877.005 623.762 882.602 629.358 882.602 636.262V639.145V673.925ZM858.054 658.589C857.506 659.889 855.953 660.346 854.689 659.719C853.281 659.021 852.799 657.267 853.333 655.789C853.889 654.247 854.193 652.584 854.193 650.851C854.193 649.166 853.906 647.549 853.379 646.044C852.863 644.57 853.35 642.833 854.75 642.14C856.024 641.508 857.589 641.976 858.128 643.291C859.083 645.623 859.61 648.175 859.61 650.851C859.61 653.595 859.056 656.209 858.054 658.589ZM864.207 664.437C865.501 665.079 867.084 664.591 867.67 663.27C869.356 659.474 870.292 655.272 870.292 650.851C870.292 646.495 869.383 642.352 867.744 638.6C867.163 637.27 865.574 636.774 864.273 637.419C862.895 638.102 862.38 639.792 862.968 641.213C864.197 644.182 864.876 647.437 864.876 650.851C864.876 654.318 864.176 657.621 862.91 660.628C862.311 662.051 862.824 663.752 864.207 664.437ZM846.417 653.637C847.913 653.637 849.125 652.425 849.125 650.929C849.125 649.433 847.913 648.221 846.417 648.221C844.921 648.221 843.708 649.433 843.708 650.929C843.708 652.425 844.921 653.637 846.417 653.637ZM844.721 684.968C844.721 683.472 845.934 682.26 847.43 682.26H868.652C870.148 682.26 871.361 683.472 871.361 684.968C871.361 686.464 870.148 687.677 868.652 687.677H847.43C845.934 687.677 844.721 686.464 844.721 684.968Z" fill="black"/>
</g>
</g>
<g id="Ultralight-S">
<g id="Solid / Acuring Future Solid_27">
<path id="Shape_27" fill-rule="evenodd" clip-rule="evenodd" d="M574.102 693.079H549.102C545.19 693.079 542.018 689.908 542.018 685.996V676.842H581.185V685.996C581.185 689.908 578.014 693.079 574.102 693.079ZM586.602 673.925V685.996C586.602 692.899 581.005 698.496 574.102 698.496H549.102C542.198 698.496 536.602 692.899 536.602 685.996V636.262C536.602 629.358 542.198 623.762 549.102 623.762H574.102C581.005 623.762 586.602 629.358 586.602 636.262V639.145V673.925ZM562.054 658.589C561.506 659.889 559.953 660.346 558.689 659.719C557.281 659.021 556.799 657.267 557.333 655.789C557.889 654.247 558.193 652.584 558.193 650.851C558.193 649.166 557.906 647.549 557.379 646.044C556.863 644.57 557.35 642.833 558.75 642.14C560.024 641.508 561.589 641.976 562.128 643.291C563.083 645.623 563.61 648.175 563.61 650.851C563.61 653.595 563.056 656.209 562.054 658.589ZM568.207 664.437C569.501 665.079 571.084 664.591 571.67 663.27C573.356 659.474 574.292 655.272 574.292 650.851C574.292 646.495 573.383 642.352 571.744 638.6C571.163 637.27 569.574 636.774 568.273 637.419C566.895 638.102 566.38 639.792 566.968 641.213C568.197 644.182 568.876 647.437 568.876 650.851C568.876 654.318 568.176 657.621 566.91 660.628C566.311 662.051 566.824 663.752 568.207 664.437ZM550.417 653.637C551.913 653.637 553.125 652.425 553.125 650.929C553.125 649.433 551.913 648.221 550.417 648.221C548.921 648.221 547.708 649.433 547.708 650.929C547.708 652.425 548.921 653.637 550.417 653.637ZM548.721 684.968C548.721 683.472 549.934 682.26 551.43 682.26H572.652C574.148 682.26 575.361 683.472 575.361 684.968C575.361 686.464 574.148 687.677 572.652 687.677H551.43C549.934 687.677 548.721 686.464 548.721 684.968Z" fill="black"/>
</g>
</g>
</g>
</g>
<defs>
<clipPath id="clip0_0_1">
<rect width="3300" height="2200" fill="white"/>
</clipPath>
</defs>
</svg>
