<svg width="3300" height="2200" viewBox="0 0 3300 2200" fill="none" xmlns="http://www.w3.org/2000/svg">
<rect width="3300" height="2200" fill="#E5E5E5"/>
<g id="Service / Outline / Check" clip-path="url(#clip0_0_1)">
<g id="Notes">
<path id="artboard" d="M3300 0H0V2200H3300V0Z" fill="white"/>
<path id="Vector" d="M263 292H3036" stroke="black" stroke-width="0.5"/>
<text id="Weight/Scale Variations" fill="black" xml:space="preserve" style="white-space: pre" font-family="Roboto" font-size="12" letter-spacing="0em"><tspan x="263" y="321.102">Weight/Scale Variations</tspan></text>
<text id="Ultralight" fill="black" xml:space="preserve" style="white-space: pre" font-family="Roboto" font-size="12" letter-spacing="0em"><tspan x="535.211" y="321.102">Ultralight</tspan></text>
<text id="Thin" fill="black" xml:space="preserve" style="white-space: pre" font-family="Roboto" font-size="12" letter-spacing="0em"><tspan x="844.422" y="321.102">Thin</tspan></text>
<text id="Light" fill="black" xml:space="preserve" style="white-space: pre" font-family="Roboto" font-size="12" letter-spacing="0em"><tspan x="1139.63" y="321.102">Light</tspan></text>
<text id="Regular" fill="black" xml:space="preserve" style="white-space: pre" font-family="Roboto" font-size="12" letter-spacing="0em"><tspan x="1429.34" y="321.102">Regular</tspan></text>
<text id="Medium" fill="black" xml:space="preserve" style="white-space: pre" font-family="Roboto" font-size="12" letter-spacing="0em"><tspan x="1724.56" y="321.102">Medium</tspan></text>
<text id="Semibold" fill="black" xml:space="preserve" style="white-space: pre" font-family="Roboto" font-size="12" letter-spacing="0em"><tspan x="2017.77" y="321.102">Semibold</tspan></text>
<text id="Bold" fill="black" xml:space="preserve" style="white-space: pre" font-family="Roboto" font-size="12" letter-spacing="0em"><tspan x="2327.48" y="321.102">Bold</tspan></text>
<text id="Heavy" fill="black" xml:space="preserve" style="white-space: pre" font-family="Roboto" font-size="12" letter-spacing="0em"><tspan x="2620.19" y="321.102">Heavy</tspan></text>
<text id="Black" fill="black" xml:space="preserve" style="white-space: pre" font-family="Roboto" font-size="12" letter-spacing="0em"><tspan x="2918.4" y="321.102">Black</tspan></text>
<path id="Vector_2" d="M263 1903H3036" stroke="black" stroke-width="0.5"/>
<g id="Group">
<path id="Vector_3" d="M272.248 1933.83C276.555 1933.83 280.139 1930.26 280.139 1925.95C280.139 1921.64 276.545 1918.07 272.238 1918.07C267.941 1918.07 264.367 1921.64 264.367 1925.95C264.367 1930.26 267.951 1933.83 272.248 1933.83ZM272.248 1932.35C268.703 1932.35 265.871 1929.51 265.871 1925.95C265.871 1922.4 268.693 1919.55 272.238 1919.55C275.793 1919.55 278.635 1922.4 278.644 1925.95C278.654 1929.51 275.803 1932.35 272.248 1932.35ZM272.229 1929.57C272.697 1929.57 272.971 1929.26 272.971 1928.74V1926.68H275.197C275.695 1926.68 276.037 1926.43 276.037 1925.96C276.037 1925.48 275.715 1925.22 275.197 1925.22H272.971V1922.99C272.971 1922.47 272.697 1922.15 272.229 1922.15C271.76 1922.15 271.506 1922.49 271.506 1922.99V1925.22H269.299C268.781 1925.22 268.449 1925.48 268.449 1925.96C268.449 1926.43 268.801 1926.68 269.299 1926.68H271.506V1928.74C271.506 1929.24 271.76 1929.57 272.229 1929.57Z" fill="black"/>
</g>
<g id="Group_2">
<path id="Vector_4" d="M293.215 1935.91C298.664 1935.91 303.176 1931.4 303.176 1925.95C303.176 1920.51 298.654 1915.99 293.205 1915.99C287.766 1915.99 283.254 1920.51 283.254 1925.95C283.254 1931.4 287.775 1935.91 293.215 1935.91ZM293.215 1934.25C288.605 1934.25 284.924 1930.56 284.924 1925.95C284.924 1921.35 288.596 1917.65 293.205 1917.65C297.814 1917.65 301.506 1921.35 301.516 1925.95C301.525 1930.56 297.824 1934.25 293.215 1934.25ZM293.195 1930.59C293.713 1930.59 294.025 1930.23 294.025 1929.66V1926.77H297.082C297.629 1926.77 298.01 1926.49 298.01 1925.97C298.01 1925.44 297.648 1925.14 297.082 1925.14H294.025V1922.07C294.025 1921.5 293.713 1921.14 293.195 1921.14C292.678 1921.14 292.385 1921.52 292.385 1922.07V1925.14H289.338C288.771 1925.14 288.4 1925.44 288.4 1925.97C288.4 1926.49 288.791 1926.77 289.338 1926.77H292.385V1929.66C292.385 1930.21 292.678 1930.59 293.195 1930.59Z" fill="black"/>
</g>
<g id="Group_3">
<path id="Vector_5" d="M319.895 1938.67C326.857 1938.67 332.619 1932.92 332.619 1925.96C332.619 1918.99 326.848 1913.24 319.885 1913.24C312.932 1913.24 307.18 1918.99 307.18 1925.96C307.18 1932.92 312.941 1938.67 319.895 1938.67ZM319.895 1936.86C313.859 1936.86 309.006 1931.99 309.006 1925.96C309.006 1919.92 313.85 1915.06 319.885 1915.06C325.93 1915.06 330.783 1919.92 330.793 1925.96C330.803 1931.99 325.939 1936.86 319.895 1936.86ZM319.875 1931.93C320.441 1931.93 320.793 1931.54 320.793 1930.94V1926.87H325.031C325.617 1926.87 326.037 1926.53 326.037 1925.98C326.037 1925.4 325.647 1925.06 325.031 1925.06H320.793V1920.81C320.793 1920.2 320.441 1919.8 319.875 1919.8C319.309 1919.8 318.986 1920.21 318.986 1920.81V1925.06H314.758C314.143 1925.06 313.732 1925.4 313.732 1925.98C313.732 1926.53 314.162 1926.87 314.758 1926.87H318.986V1930.94C318.986 1931.52 319.309 1931.93 319.875 1931.93Z" fill="black"/>
</g>
<text id="Design Variations" fill="black" xml:space="preserve" style="white-space: pre" font-family="Roboto" font-size="12" letter-spacing="0em"><tspan x="263" y="1952.1">Design Variations</tspan></text>
<text id="Symbols are supported in up to nine weights and three scales." fill="black" xml:space="preserve" style="white-space: pre" font-family="Roboto" font-size="12" letter-spacing="0em"><tspan x="263" y="1970.1">Symbols are supported in up to nine weights and three scales.</tspan></text>
<text id="For optimal layout with text and other symbols, vertically align" fill="black" xml:space="preserve" style="white-space: pre" font-family="Roboto" font-size="12" letter-spacing="0em"><tspan x="263" y="1988.1">For optimal layout with text and other symbols, vertically align</tspan></text>
<text id="symbols with the adjacent text." fill="black" xml:space="preserve" style="white-space: pre" font-family="Roboto" font-size="12" letter-spacing="0em"><tspan x="263" y="2006.1">symbols with the adjacent text.</tspan></text>
<path id="Vector_6" opacity="0.4" d="M779 1919H776V1933H779V1919Z" fill="#00AEEF"/>
<g id="Group_4">
<path id="Vector_7" d="M789.527 1933H791.373L786.178 1918.91H784.439L779.244 1933H781.09L782.506 1928.96H788.111L789.527 1933ZM785.279 1921.04H785.338L787.594 1927.47H783.023L785.279 1921.04Z" fill="black"/>
</g>
<path id="Vector_8" opacity="0.4" d="M794.617 1919H791.617V1933H794.617V1919Z" fill="#00AEEF"/>
<text id="Margins" fill="black" xml:space="preserve" style="white-space: pre" font-family="Roboto" font-size="12" letter-spacing="0em"><tspan x="776" y="1952.1">Margins</tspan></text>
<text id="Leading and trailing margins on the left and right side of each symbol" fill="black" xml:space="preserve" style="white-space: pre" font-family="Roboto" font-size="12" letter-spacing="0em"><tspan x="776" y="1970.1">Leading and trailing margins on the left and right side of each symbol</tspan></text>
<text id="can be adjusted by modifying the width of the blue rectangles." fill="black" xml:space="preserve" style="white-space: pre" font-family="Roboto" font-size="12" letter-spacing="0em"><tspan x="776" y="1988.1">can be adjusted by modifying the width of the blue rectangles.</tspan></text>
<text id="Modifications are automatically applied proportionally to all" fill="black" xml:space="preserve" style="white-space: pre" font-family="Roboto" font-size="12" letter-spacing="0em"><tspan x="776" y="2006.1">Modifications are automatically applied proportionally to all</tspan></text>
<text id="scales and weights." fill="black" xml:space="preserve" style="white-space: pre" font-family="Roboto" font-size="12" letter-spacing="0em"><tspan x="776" y="2024.1">scales and weights.</tspan></text>
<g id="Group_5">
<path id="Vector_9" d="M1291.83 1936.11L1293.37 1937.66C1294.22 1938.49 1295.19 1938.42 1296.06 1937.46L1306.27 1926.34C1306.7 1926.63 1307.1 1926.62 1307.56 1926.52L1308.61 1926.31L1309.3 1927L1309.25 1927.52C1309.19 1928.05 1309.35 1928.47 1309.85 1928.97L1310.66 1929.78C1311.17 1930.28 1311.82 1930.31 1312.3 1929.83L1315.55 1926.58C1316.03 1926.1 1316.01 1925.45 1315.5 1924.94L1314.68 1924.12C1314.19 1923.62 1313.77 1923.45 1313.24 1923.53L1312.71 1923.58L1312.06 1922.92L1312.34 1921.78C1312.49 1921.21 1312.34 1920.74 1311.71 1920.14L1309.3 1917.75C1305.76 1914.22 1301.23 1914.33 1298.11 1917.46C1297.69 1917.89 1297.64 1918.48 1297.92 1918.91C1298.15 1919.28 1298.63 1919.5 1299.27 1919.34C1300.79 1918.96 1302.3 1919.07 1303.78 1920.08L1303.16 1921.66C1302.93 1922.25 1302.94 1922.73 1303.18 1923.16L1292.02 1933.44C1291.08 1934.31 1290.97 1935.25 1291.83 1936.11ZM1299.67 1917.85C1302.34 1915.86 1305.65 1916.17 1308.05 1918.58L1310.68 1921.19C1310.91 1921.43 1310.94 1921.61 1310.88 1921.91L1310.5 1923.47L1312.08 1925.04L1313.04 1924.95C1313.33 1924.92 1313.41 1924.94 1313.64 1925.17L1314.26 1925.79L1311.51 1928.54L1310.88 1927.92C1310.66 1927.7 1310.64 1927.6 1310.67 1927.32L1310.76 1926.36L1309.19 1924.8L1307.57 1925.11C1307.29 1925.17 1307.14 1925.17 1306.91 1924.92L1304.73 1922.75C1304.51 1922.51 1304.48 1922.37 1304.61 1922.05L1305.55 1919.78C1303.95 1918.24 1301.84 1917.39 1299.8 1918.05C1299.71 1918.08 1299.64 1918.06 1299.61 1918.02C1299.59 1917.97 1299.59 1917.92 1299.67 1917.85ZM1293.1 1935.41C1292.61 1934.91 1292.79 1934.61 1293.12 1934.31L1304.08 1924.19L1305.31 1925.42L1295.15 1936.35C1294.85 1936.68 1294.47 1936.78 1294.07 1936.38L1293.1 1935.41Z" fill="black"/>
</g>
<text id="Exporting" fill="black" xml:space="preserve" style="white-space: pre" font-family="Roboto" font-size="12" letter-spacing="0em"><tspan x="1289" y="1952.1">Exporting</tspan></text>
<text id="Symbols should be outlined when exporting to ensure the" fill="black" xml:space="preserve" style="white-space: pre" font-family="Roboto" font-size="12" letter-spacing="0em"><tspan x="1289" y="1970.1">Symbols should be outlined when exporting to ensure the</tspan></text>
<text id="design is preserved when submitting to Xcode." fill="black" xml:space="preserve" style="white-space: pre" font-family="Roboto" font-size="12" letter-spacing="0em"><tspan x="1289" y="1988.1">design is preserved when submitting to Xcode.</tspan></text>
<text id="template-version" fill="black" xml:space="preserve" style="white-space: pre" font-family="Roboto" font-size="12" letter-spacing="0em"><tspan x="2958" y="1932.1">Template v.1.0</tspan></text>
<text id="Generated from pencil.circle" fill="black" xml:space="preserve" style="white-space: pre" font-family="Roboto" font-size="12" letter-spacing="0em"><tspan x="2885" y="1950.1">Generated from pencil.circle</tspan></text>
<text id="Typeset at 100 points" fill="black" xml:space="preserve" style="white-space: pre" font-family="Roboto" font-size="12" letter-spacing="0em"><tspan x="2921" y="1968.1">Typeset at 100 points</tspan></text>
<text id="Small" fill="black" xml:space="preserve" style="white-space: pre" font-family="Roboto" font-size="12" letter-spacing="0em"><tspan x="263" y="725.102">Small</tspan></text>
<text id="Medium_2" fill="black" xml:space="preserve" style="white-space: pre" font-family="Roboto" font-size="12" letter-spacing="0em"><tspan x="263" y="1155.1">Medium</tspan></text>
<text id="Large" fill="black" xml:space="preserve" style="white-space: pre" font-family="Roboto" font-size="12" letter-spacing="0em"><tspan x="263" y="1585.1">Large</tspan></text>
</g>
<g id="Guides">
<g id="H-reference">
<path id="Vector_10" d="M393.932 695.998H396.666L369.566 625.539H367.076L339.977 695.998H342.662L351.94 671.535H384.703L393.932 695.998ZM368.199 628.908H368.443L383.824 669.289H352.818L368.199 628.908Z" fill="#27AAE1"/>
</g>
<path id="Baseline-S" d="M263 696H3036" stroke="#27AAE1" stroke-width="0.577"/>
<path id="Capline-S" d="M263 626H3036" stroke="#27AAE1" stroke-width="0.577"/>
<g id="H-reference_2">
<path id="Vector_11" d="M393.932 1126H396.666L369.566 1055.54H367.076L339.977 1126H342.662L351.94 1101.54H384.703L393.932 1126ZM368.199 1058.91H368.443L383.824 1099.29H352.818L368.199 1058.91Z" fill="#27AAE1"/>
</g>
<path id="Baseline-M" d="M263 1126H3036" stroke="#27AAE1" stroke-width="0.577"/>
<path id="Capline-M" d="M263 1056H3036" stroke="#27AAE1" stroke-width="0.577"/>
<g id="H-reference_3">
<path id="Vector_12" d="M393.932 1556H396.666L369.566 1485.54H367.076L339.977 1556H342.662L351.94 1531.54H384.703L393.932 1556ZM368.199 1488.91H368.443L383.824 1529.29H352.818L368.199 1488.91Z" fill="#27AAE1"/>
</g>
<g id="Group 1">
<path id="Baseline-L" d="M263 1556H3036" stroke="#27AAE1" stroke-width="0.577"/>
<path id="Capline-L" d="M263 1486H3036" stroke="#27AAE1" stroke-width="0.577"/>
</g>
<path id="left-margin" opacity="0.4" d="M1396.04 1030.79H1387.3V1150.12H1396.04V1030.79Z" fill="#00AEEF"/>
<path id="right-margin" opacity="0.4" d="M1510.39 1030.79H1501.65V1150.12H1510.39V1030.79Z" fill="#00AEEF"/>
</g>
<g id="Symbols">
<g id="Black-L">
<g id="Outline / Check Outline">
<g id="Shape">
<path d="M2919.93 1545.68C2922.03 1547.78 2925.48 1547.7 2927.5 1545.53L2960.65 1509.53C2962.45 1507.5 2962.3 1504.43 2960.35 1502.63C2958.4 1500.83 2955.25 1500.9 2953.45 1502.93L2923.53 1535.48L2905.53 1517.48C2903.65 1515.6 2900.5 1515.6 2898.63 1517.48C2896.75 1519.35 2896.75 1522.5 2898.63 1524.38L2919.93 1545.68Z" fill="black"/>
<path fill-rule="evenodd" clip-rule="evenodd" d="M2929 1453.5C2891.72 1453.5 2861.5 1483.72 2861.5 1521C2861.5 1558.28 2891.72 1588.5 2929 1588.5C2966.28 1588.5 2996.5 1558.28 2996.5 1521C2996.5 1483.72 2966.28 1453.5 2929 1453.5ZM2871.25 1521C2871.25 1489.11 2897.11 1463.25 2929 1463.25C2960.89 1463.25 2986.75 1489.11 2986.75 1521C2986.75 1552.89 2960.89 1578.75 2929 1578.75C2897.11 1578.75 2871.25 1552.89 2871.25 1521Z" fill="black"/>
</g>
</g>
</g>
<g id="Heavy-L">
<g id="Outline / Check Outline_2">
<g id="Shape_2">
<path d="M2623.93 1545.68C2626.03 1547.78 2629.48 1547.7 2631.5 1545.53L2664.65 1509.53C2666.45 1507.5 2666.3 1504.43 2664.35 1502.63C2662.4 1500.83 2659.25 1500.9 2657.45 1502.93L2627.53 1535.48L2609.53 1517.48C2607.65 1515.6 2604.5 1515.6 2602.63 1517.48C2600.75 1519.35 2600.75 1522.5 2602.63 1524.38L2623.93 1545.68Z" fill="black"/>
<path fill-rule="evenodd" clip-rule="evenodd" d="M2633 1453.5C2595.72 1453.5 2565.5 1483.72 2565.5 1521C2565.5 1558.28 2595.72 1588.5 2633 1588.5C2670.28 1588.5 2700.5 1558.28 2700.5 1521C2700.5 1483.72 2670.28 1453.5 2633 1453.5ZM2575.25 1521C2575.25 1489.11 2601.11 1463.25 2633 1463.25C2664.89 1463.25 2690.75 1489.11 2690.75 1521C2690.75 1552.89 2664.89 1578.75 2633 1578.75C2601.11 1578.75 2575.25 1552.89 2575.25 1521Z" fill="black"/>
</g>
</g>
</g>
<g id="Bold-L">
<g id="Outline / Check Outline_3">
<g id="Shape_3">
<path d="M2327.93 1545.68C2330.03 1547.78 2333.48 1547.7 2335.5 1545.53L2368.65 1509.53C2370.45 1507.5 2370.3 1504.43 2368.35 1502.63C2366.4 1500.83 2363.25 1500.9 2361.45 1502.93L2331.53 1535.48L2313.53 1517.48C2311.65 1515.6 2308.5 1515.6 2306.63 1517.48C2304.75 1519.35 2304.75 1522.5 2306.63 1524.38L2327.93 1545.68Z" fill="black"/>
<path fill-rule="evenodd" clip-rule="evenodd" d="M2337 1453.5C2299.72 1453.5 2269.5 1483.72 2269.5 1521C2269.5 1558.28 2299.72 1588.5 2337 1588.5C2374.28 1588.5 2404.5 1558.28 2404.5 1521C2404.5 1483.72 2374.28 1453.5 2337 1453.5ZM2279.25 1521C2279.25 1489.11 2305.11 1463.25 2337 1463.25C2368.89 1463.25 2394.75 1489.11 2394.75 1521C2394.75 1552.89 2368.89 1578.75 2337 1578.75C2305.11 1578.75 2279.25 1552.89 2279.25 1521Z" fill="black"/>
</g>
</g>
</g>
<g id="Semibold-L">
<g id="Outline / Check Outline_4">
<g id="Shape_4">
<path d="M2031.93 1545.68C2034.03 1547.78 2037.48 1547.7 2039.5 1545.53L2072.65 1509.53C2074.45 1507.5 2074.3 1504.43 2072.35 1502.63C2070.4 1500.83 2067.25 1500.9 2065.45 1502.93L2035.53 1535.48L2017.53 1517.48C2015.65 1515.6 2012.5 1515.6 2010.63 1517.48C2008.75 1519.35 2008.75 1522.5 2010.63 1524.38L2031.93 1545.68Z" fill="black"/>
<path fill-rule="evenodd" clip-rule="evenodd" d="M2041 1453.5C2003.72 1453.5 1973.5 1483.72 1973.5 1521C1973.5 1558.28 2003.72 1588.5 2041 1588.5C2078.28 1588.5 2108.5 1558.28 2108.5 1521C2108.5 1483.72 2078.28 1453.5 2041 1453.5ZM1983.25 1521C1983.25 1489.11 2009.11 1463.25 2041 1463.25C2072.89 1463.25 2098.75 1489.11 2098.75 1521C2098.75 1552.89 2072.89 1578.75 2041 1578.75C2009.11 1578.75 1983.25 1552.89 1983.25 1521Z" fill="black"/>
</g>
</g>
</g>
<g id="Medium-L">
<g id="Outline / Check Outline_5">
<g id="Shape_5">
<path d="M1735.93 1545.68C1738.03 1547.78 1741.48 1547.7 1743.5 1545.53L1776.65 1509.53C1778.45 1507.5 1778.3 1504.43 1776.35 1502.63C1774.4 1500.83 1771.25 1500.9 1769.45 1502.93L1739.53 1535.48L1721.53 1517.48C1719.65 1515.6 1716.5 1515.6 1714.63 1517.48C1712.75 1519.35 1712.75 1522.5 1714.63 1524.38L1735.93 1545.68Z" fill="black"/>
<path fill-rule="evenodd" clip-rule="evenodd" d="M1745 1453.5C1707.72 1453.5 1677.5 1483.72 1677.5 1521C1677.5 1558.28 1707.72 1588.5 1745 1588.5C1782.28 1588.5 1812.5 1558.28 1812.5 1521C1812.5 1483.72 1782.28 1453.5 1745 1453.5ZM1687.25 1521C1687.25 1489.11 1713.11 1463.25 1745 1463.25C1776.89 1463.25 1802.75 1489.11 1802.75 1521C1802.75 1552.89 1776.89 1578.75 1745 1578.75C1713.11 1578.75 1687.25 1552.89 1687.25 1521Z" fill="black"/>
</g>
</g>
</g>
<g id="Regular-L">
<g id="Outline / Check Outline_6">
<g id="Shape_6">
<path d="M1439.93 1545.68C1442.03 1547.78 1445.48 1547.7 1447.5 1545.53L1480.65 1509.53C1482.45 1507.5 1482.3 1504.43 1480.35 1502.63C1478.4 1500.83 1475.25 1500.9 1473.45 1502.93L1443.53 1535.48L1425.53 1517.48C1423.65 1515.6 1420.5 1515.6 1418.63 1517.48C1416.75 1519.35 1416.75 1522.5 1418.63 1524.38L1439.93 1545.68Z" fill="black"/>
<path fill-rule="evenodd" clip-rule="evenodd" d="M1449 1453.5C1411.72 1453.5 1381.5 1483.72 1381.5 1521C1381.5 1558.28 1411.72 1588.5 1449 1588.5C1486.28 1588.5 1516.5 1558.28 1516.5 1521C1516.5 1483.72 1486.28 1453.5 1449 1453.5ZM1391.25 1521C1391.25 1489.11 1417.11 1463.25 1449 1463.25C1480.89 1463.25 1506.75 1489.11 1506.75 1521C1506.75 1552.89 1480.89 1578.75 1449 1578.75C1417.11 1578.75 1391.25 1552.89 1391.25 1521Z" fill="black"/>
</g>
</g>
</g>
<g id="Light-L">
<g id="Outline / Check Outline_7">
<g id="Shape_7">
<path d="M1143.93 1545.68C1146.03 1547.78 1149.48 1547.7 1151.5 1545.53L1184.65 1509.53C1186.45 1507.5 1186.3 1504.43 1184.35 1502.63C1182.4 1500.83 1179.25 1500.9 1177.45 1502.93L1147.53 1535.48L1129.53 1517.48C1127.65 1515.6 1124.5 1515.6 1122.63 1517.48C1120.75 1519.35 1120.75 1522.5 1122.63 1524.38L1143.93 1545.68Z" fill="black"/>
<path fill-rule="evenodd" clip-rule="evenodd" d="M1153 1453.5C1115.72 1453.5 1085.5 1483.72 1085.5 1521C1085.5 1558.28 1115.72 1588.5 1153 1588.5C1190.28 1588.5 1220.5 1558.28 1220.5 1521C1220.5 1483.72 1190.28 1453.5 1153 1453.5ZM1095.25 1521C1095.25 1489.11 1121.11 1463.25 1153 1463.25C1184.89 1463.25 1210.75 1489.11 1210.75 1521C1210.75 1552.89 1184.89 1578.75 1153 1578.75C1121.11 1578.75 1095.25 1552.89 1095.25 1521Z" fill="black"/>
</g>
</g>
</g>
<g id="Thin-L">
<g id="Outline / Check Outline_8">
<g id="Shape_8">
<path d="M847.925 1545.68C850.025 1547.78 853.475 1547.7 855.5 1545.53L888.65 1509.53C890.45 1507.5 890.3 1504.43 888.35 1502.63C886.4 1500.83 883.25 1500.9 881.45 1502.93L851.525 1535.48L833.525 1517.48C831.65 1515.6 828.5 1515.6 826.625 1517.48C824.75 1519.35 824.75 1522.5 826.625 1524.38L847.925 1545.68Z" fill="black"/>
<path fill-rule="evenodd" clip-rule="evenodd" d="M857 1453.5C819.721 1453.5 789.5 1483.72 789.5 1521C789.5 1558.28 819.721 1588.5 857 1588.5C894.279 1588.5 924.5 1558.28 924.5 1521C924.5 1483.72 894.279 1453.5 857 1453.5ZM799.25 1521C799.25 1489.11 825.106 1463.25 857 1463.25C888.894 1463.25 914.75 1489.11 914.75 1521C914.75 1552.89 888.894 1578.75 857 1578.75C825.106 1578.75 799.25 1552.89 799.25 1521Z" fill="black"/>
</g>
</g>
</g>
<g id="Ultralight-L">
<g id="Outline / Check Outline_9">
<g id="Shape_9">
<path d="M551.925 1545.68C554.025 1547.78 557.475 1547.7 559.5 1545.53L592.65 1509.53C594.45 1507.5 594.3 1504.43 592.35 1502.63C590.4 1500.83 587.25 1500.9 585.45 1502.93L555.525 1535.48L537.525 1517.48C535.65 1515.6 532.5 1515.6 530.625 1517.48C528.75 1519.35 528.75 1522.5 530.625 1524.38L551.925 1545.68Z" fill="black"/>
<path fill-rule="evenodd" clip-rule="evenodd" d="M561 1453.5C523.721 1453.5 493.5 1483.72 493.5 1521C493.5 1558.28 523.721 1588.5 561 1588.5C598.279 1588.5 628.5 1558.28 628.5 1521C628.5 1483.72 598.279 1453.5 561 1453.5ZM503.25 1521C503.25 1489.11 529.106 1463.25 561 1463.25C592.894 1463.25 618.75 1489.11 618.75 1521C618.75 1552.89 592.894 1578.75 561 1578.75C529.106 1578.75 503.25 1552.89 503.25 1521Z" fill="black"/>
</g>
</g>
</g>
<g id="Black-M">
<g id="Outline / Check Outline_10">
<g id="Shape_10">
<path d="M2921.94 1110.19C2923.58 1111.83 2926.26 1111.77 2927.83 1110.08L2953.62 1082.08C2955.02 1080.5 2954.9 1078.11 2953.38 1076.71C2951.87 1075.31 2949.42 1075.37 2948.02 1076.94L2924.74 1102.26L2910.74 1088.26C2909.28 1086.8 2906.83 1086.8 2905.38 1088.26C2903.92 1089.72 2903.92 1092.17 2905.38 1093.63L2921.94 1110.19Z" fill="black"/>
<path fill-rule="evenodd" clip-rule="evenodd" d="M2929 1038.5C2900.01 1038.5 2876.5 1062.01 2876.5 1091C2876.5 1119.99 2900.01 1143.5 2929 1143.5C2957.99 1143.5 2981.5 1119.99 2981.5 1091C2981.5 1062.01 2957.99 1038.5 2929 1038.5ZM2884.08 1091C2884.08 1066.19 2904.19 1046.08 2929 1046.08C2953.81 1046.08 2973.92 1066.19 2973.92 1091C2973.92 1115.81 2953.81 1135.92 2929 1135.92C2904.19 1135.92 2884.08 1115.81 2884.08 1091Z" fill="black"/>
</g>
</g>
</g>
<g id="Heavy-M">
<g id="Outline / Check Outline_11">
<g id="Shape_11">
<path d="M2625.94 1110.19C2627.58 1111.83 2630.26 1111.77 2631.83 1110.08L2657.62 1082.08C2659.02 1080.5 2658.9 1078.11 2657.38 1076.71C2655.87 1075.31 2653.42 1075.37 2652.02 1076.94L2628.74 1102.26L2614.74 1088.26C2613.28 1086.8 2610.83 1086.8 2609.38 1088.26C2607.92 1089.72 2607.92 1092.17 2609.38 1093.63L2625.94 1110.19Z" fill="black"/>
<path fill-rule="evenodd" clip-rule="evenodd" d="M2633 1038.5C2604.01 1038.5 2580.5 1062.01 2580.5 1091C2580.5 1119.99 2604.01 1143.5 2633 1143.5C2661.99 1143.5 2685.5 1119.99 2685.5 1091C2685.5 1062.01 2661.99 1038.5 2633 1038.5ZM2588.08 1091C2588.08 1066.19 2608.19 1046.08 2633 1046.08C2657.81 1046.08 2677.92 1066.19 2677.92 1091C2677.92 1115.81 2657.81 1135.92 2633 1135.92C2608.19 1135.92 2588.08 1115.81 2588.08 1091Z" fill="black"/>
</g>
</g>
</g>
<g id="Bold-M">
<g id="Outline / Check Outline_12">
<g id="Shape_12">
<path d="M2329.94 1110.19C2331.58 1111.83 2334.26 1111.77 2335.83 1110.08L2361.62 1082.08C2363.02 1080.5 2362.9 1078.11 2361.38 1076.71C2359.87 1075.31 2357.42 1075.37 2356.02 1076.94L2332.74 1102.26L2318.74 1088.26C2317.28 1086.8 2314.83 1086.8 2313.38 1088.26C2311.92 1089.72 2311.92 1092.17 2313.38 1093.63L2329.94 1110.19Z" fill="black"/>
<path fill-rule="evenodd" clip-rule="evenodd" d="M2337 1038.5C2308.01 1038.5 2284.5 1062.01 2284.5 1091C2284.5 1119.99 2308.01 1143.5 2337 1143.5C2365.99 1143.5 2389.5 1119.99 2389.5 1091C2389.5 1062.01 2365.99 1038.5 2337 1038.5ZM2292.08 1091C2292.08 1066.19 2312.19 1046.08 2337 1046.08C2361.81 1046.08 2381.92 1066.19 2381.92 1091C2381.92 1115.81 2361.81 1135.92 2337 1135.92C2312.19 1135.92 2292.08 1115.81 2292.08 1091Z" fill="black"/>
</g>
</g>
</g>
<g id="Semibold-M">
<g id="Outline / Check Outline_13">
<g id="Shape_13">
<path d="M2033.94 1110.19C2035.58 1111.83 2038.26 1111.77 2039.83 1110.08L2065.62 1082.08C2067.02 1080.5 2066.9 1078.11 2065.38 1076.71C2063.87 1075.31 2061.42 1075.37 2060.02 1076.94L2036.74 1102.26L2022.74 1088.26C2021.28 1086.8 2018.83 1086.8 2017.38 1088.26C2015.92 1089.72 2015.92 1092.17 2017.38 1093.63L2033.94 1110.19Z" fill="black"/>
<path fill-rule="evenodd" clip-rule="evenodd" d="M2041 1038.5C2012.01 1038.5 1988.5 1062.01 1988.5 1091C1988.5 1119.99 2012.01 1143.5 2041 1143.5C2069.99 1143.5 2093.5 1119.99 2093.5 1091C2093.5 1062.01 2069.99 1038.5 2041 1038.5ZM1996.08 1091C1996.08 1066.19 2016.19 1046.08 2041 1046.08C2065.81 1046.08 2085.92 1066.19 2085.92 1091C2085.92 1115.81 2065.81 1135.92 2041 1135.92C2016.19 1135.92 1996.08 1115.81 1996.08 1091Z" fill="black"/>
</g>
</g>
</g>
<g id="Medium-M">
<g id="Outline / Check Outline_14">
<g id="Shape_14">
<path d="M1737.94 1110.19C1739.58 1111.83 1742.26 1111.77 1743.83 1110.08L1769.62 1082.08C1771.02 1080.5 1770.9 1078.11 1769.38 1076.71C1767.87 1075.31 1765.42 1075.37 1764.02 1076.94L1740.74 1102.26L1726.74 1088.26C1725.28 1086.8 1722.83 1086.8 1721.38 1088.26C1719.92 1089.72 1719.92 1092.17 1721.38 1093.63L1737.94 1110.19Z" fill="black"/>
<path fill-rule="evenodd" clip-rule="evenodd" d="M1745 1038.5C1716.01 1038.5 1692.5 1062.01 1692.5 1091C1692.5 1119.99 1716.01 1143.5 1745 1143.5C1773.99 1143.5 1797.5 1119.99 1797.5 1091C1797.5 1062.01 1773.99 1038.5 1745 1038.5ZM1700.08 1091C1700.08 1066.19 1720.19 1046.08 1745 1046.08C1769.81 1046.08 1789.92 1066.19 1789.92 1091C1789.92 1115.81 1769.81 1135.92 1745 1135.92C1720.19 1135.92 1700.08 1115.81 1700.08 1091Z" fill="black"/>
</g>
</g>
</g>
<g id="Regular-M">
<g id="Outline / Check Outline_15">
<g id="Shape_15">
<path d="M1441.94 1110.19C1443.58 1111.83 1446.26 1111.77 1447.83 1110.08L1473.62 1082.08C1475.02 1080.5 1474.9 1078.11 1473.38 1076.71C1471.87 1075.31 1469.42 1075.37 1468.02 1076.94L1444.74 1102.26L1430.74 1088.26C1429.28 1086.8 1426.83 1086.8 1425.38 1088.26C1423.92 1089.72 1423.92 1092.17 1425.38 1093.63L1441.94 1110.19Z" fill="black"/>
<path fill-rule="evenodd" clip-rule="evenodd" d="M1449 1038.5C1420.01 1038.5 1396.5 1062.01 1396.5 1091C1396.5 1119.99 1420.01 1143.5 1449 1143.5C1477.99 1143.5 1501.5 1119.99 1501.5 1091C1501.5 1062.01 1477.99 1038.5 1449 1038.5ZM1404.08 1091C1404.08 1066.19 1424.19 1046.08 1449 1046.08C1473.81 1046.08 1493.92 1066.19 1493.92 1091C1493.92 1115.81 1473.81 1135.92 1449 1135.92C1424.19 1135.92 1404.08 1115.81 1404.08 1091Z" fill="black"/>
</g>
</g>
</g>
<g id="Light-M">
<g id="Outline / Check Outline_16">
<g id="Shape_16">
<path d="M1145.94 1110.19C1147.58 1111.83 1150.26 1111.77 1151.83 1110.08L1177.62 1082.08C1179.02 1080.5 1178.9 1078.11 1177.38 1076.71C1175.87 1075.31 1173.42 1075.37 1172.02 1076.94L1148.74 1102.26L1134.74 1088.26C1133.28 1086.8 1130.83 1086.8 1129.38 1088.26C1127.92 1089.72 1127.92 1092.17 1129.38 1093.63L1145.94 1110.19Z" fill="black"/>
<path fill-rule="evenodd" clip-rule="evenodd" d="M1153 1038.5C1124.01 1038.5 1100.5 1062.01 1100.5 1091C1100.5 1119.99 1124.01 1143.5 1153 1143.5C1181.99 1143.5 1205.5 1119.99 1205.5 1091C1205.5 1062.01 1181.99 1038.5 1153 1038.5ZM1108.08 1091C1108.08 1066.19 1128.19 1046.08 1153 1046.08C1177.81 1046.08 1197.92 1066.19 1197.92 1091C1197.92 1115.81 1177.81 1135.92 1153 1135.92C1128.19 1135.92 1108.08 1115.81 1108.08 1091Z" fill="black"/>
</g>
</g>
</g>
<g id="Thin-M">
<g id="Outline / Check Outline_17">
<g id="Shape_17">
<path d="M849.942 1110.19C851.575 1111.83 854.258 1111.77 855.833 1110.08L881.617 1082.08C883.017 1080.5 882.9 1078.11 881.383 1076.71C879.867 1075.31 877.417 1075.37 876.017 1076.94L852.742 1102.26L838.742 1088.26C837.283 1086.8 834.833 1086.8 833.375 1088.26C831.917 1089.72 831.917 1092.17 833.375 1093.63L849.942 1110.19Z" fill="black"/>
<path fill-rule="evenodd" clip-rule="evenodd" d="M857 1038.5C828.005 1038.5 804.5 1062.01 804.5 1091C804.5 1119.99 828.005 1143.5 857 1143.5C885.995 1143.5 909.5 1119.99 909.5 1091C909.5 1062.01 885.995 1038.5 857 1038.5ZM812.083 1091C812.083 1066.19 832.193 1046.08 857 1046.08C881.807 1046.08 901.917 1066.19 901.917 1091C901.917 1115.81 881.807 1135.92 857 1135.92C832.193 1135.92 812.083 1115.81 812.083 1091Z" fill="black"/>
</g>
</g>
</g>
<g id="Ultralight-M">
<g id="Outline / Check Outline_18">
<g id="Shape_18">
<path d="M553.942 1110.19C555.575 1111.83 558.258 1111.77 559.833 1110.08L585.617 1082.08C587.017 1080.5 586.9 1078.11 585.383 1076.71C583.867 1075.31 581.417 1075.37 580.017 1076.94L556.742 1102.26L542.742 1088.26C541.283 1086.8 538.833 1086.8 537.375 1088.26C535.917 1089.72 535.917 1092.17 537.375 1093.63L553.942 1110.19Z" fill="black"/>
<path fill-rule="evenodd" clip-rule="evenodd" d="M561 1038.5C532.005 1038.5 508.5 1062.01 508.5 1091C508.5 1119.99 532.005 1143.5 561 1143.5C589.995 1143.5 613.5 1119.99 613.5 1091C613.5 1062.01 589.995 1038.5 561 1038.5ZM516.083 1091C516.083 1066.19 536.193 1046.08 561 1046.08C585.807 1046.08 605.917 1066.19 605.917 1091C605.917 1115.81 585.807 1135.92 561 1135.92C536.193 1135.92 516.083 1115.81 516.083 1091Z" fill="black"/>
</g>
</g>
</g>
<g id="Black-S">
<g id="Outline / Check Outline_19">
<g id="Shape_19">
<path d="M2923.96 674.708C2925.13 675.875 2927.04 675.833 2928.17 674.625L2946.58 654.625C2947.58 653.5 2947.5 651.792 2946.42 650.792C2945.33 649.792 2943.58 649.833 2942.58 650.958L2925.96 669.042L2915.96 659.042C2914.92 658 2913.17 658 2912.13 659.042C2911.08 660.083 2911.08 661.833 2912.13 662.875L2923.96 674.708Z" fill="black"/>
<path fill-rule="evenodd" clip-rule="evenodd" d="M2929 623.5C2908.29 623.5 2891.5 640.289 2891.5 661C2891.5 681.711 2908.29 698.5 2929 698.5C2949.71 698.5 2966.5 681.711 2966.5 661C2966.5 640.289 2949.71 623.5 2929 623.5ZM2896.92 661C2896.92 643.281 2911.28 628.917 2929 628.917C2946.72 628.917 2961.08 643.281 2961.08 661C2961.08 678.719 2946.72 693.083 2929 693.083C2911.28 693.083 2896.92 678.719 2896.92 661Z" fill="black"/>
</g>
</g>
</g>
<g id="Heavy-S">
<g id="Outline / Check Outline_20">
<g id="Shape_20">
<path d="M2627.96 674.708C2629.13 675.875 2631.04 675.833 2632.17 674.625L2650.58 654.625C2651.58 653.5 2651.5 651.792 2650.42 650.792C2649.33 649.792 2647.58 649.833 2646.58 650.958L2629.96 669.042L2619.96 659.042C2618.92 658 2617.17 658 2616.13 659.042C2615.08 660.083 2615.08 661.833 2616.13 662.875L2627.96 674.708Z" fill="black"/>
<path fill-rule="evenodd" clip-rule="evenodd" d="M2633 623.5C2612.29 623.5 2595.5 640.289 2595.5 661C2595.5 681.711 2612.29 698.5 2633 698.5C2653.71 698.5 2670.5 681.711 2670.5 661C2670.5 640.289 2653.71 623.5 2633 623.5ZM2600.92 661C2600.92 643.281 2615.28 628.917 2633 628.917C2650.72 628.917 2665.08 643.281 2665.08 661C2665.08 678.719 2650.72 693.083 2633 693.083C2615.28 693.083 2600.92 678.719 2600.92 661Z" fill="black"/>
</g>
</g>
</g>
<g id="Bold-S">
<g id="Outline / Check Outline_21">
<g id="Shape_21">
<path d="M2331.96 674.708C2333.13 675.875 2335.04 675.833 2336.17 674.625L2354.58 654.625C2355.58 653.5 2355.5 651.792 2354.42 650.792C2353.33 649.792 2351.58 649.833 2350.58 650.958L2333.96 669.042L2323.96 659.042C2322.92 658 2321.17 658 2320.13 659.042C2319.08 660.083 2319.08 661.833 2320.13 662.875L2331.96 674.708Z" fill="black"/>
<path fill-rule="evenodd" clip-rule="evenodd" d="M2337 623.5C2316.29 623.5 2299.5 640.289 2299.5 661C2299.5 681.711 2316.29 698.5 2337 698.5C2357.71 698.5 2374.5 681.711 2374.5 661C2374.5 640.289 2357.71 623.5 2337 623.5ZM2304.92 661C2304.92 643.281 2319.28 628.917 2337 628.917C2354.72 628.917 2369.08 643.281 2369.08 661C2369.08 678.719 2354.72 693.083 2337 693.083C2319.28 693.083 2304.92 678.719 2304.92 661Z" fill="black"/>
</g>
</g>
</g>
<g id="Semibold-S">
<g id="Outline / Check Outline_22">
<g id="Shape_22">
<path d="M2035.96 674.708C2037.13 675.875 2039.04 675.833 2040.17 674.625L2058.58 654.625C2059.58 653.5 2059.5 651.792 2058.42 650.792C2057.33 649.792 2055.58 649.833 2054.58 650.958L2037.96 669.042L2027.96 659.042C2026.92 658 2025.17 658 2024.13 659.042C2023.08 660.083 2023.08 661.833 2024.13 662.875L2035.96 674.708Z" fill="black"/>
<path fill-rule="evenodd" clip-rule="evenodd" d="M2041 623.5C2020.29 623.5 2003.5 640.289 2003.5 661C2003.5 681.711 2020.29 698.5 2041 698.5C2061.71 698.5 2078.5 681.711 2078.5 661C2078.5 640.289 2061.71 623.5 2041 623.5ZM2008.92 661C2008.92 643.281 2023.28 628.917 2041 628.917C2058.72 628.917 2073.08 643.281 2073.08 661C2073.08 678.719 2058.72 693.083 2041 693.083C2023.28 693.083 2008.92 678.719 2008.92 661Z" fill="black"/>
</g>
</g>
</g>
<g id="Medium-S">
<g id="Outline / Check Outline_23">
<g id="Shape_23">
<path d="M1739.96 674.708C1741.13 675.875 1743.04 675.833 1744.17 674.625L1762.58 654.625C1763.58 653.5 1763.5 651.792 1762.42 650.792C1761.33 649.792 1759.58 649.833 1758.58 650.958L1741.96 669.042L1731.96 659.042C1730.92 658 1729.17 658 1728.13 659.042C1727.08 660.083 1727.08 661.833 1728.13 662.875L1739.96 674.708Z" fill="black"/>
<path fill-rule="evenodd" clip-rule="evenodd" d="M1745 623.5C1724.29 623.5 1707.5 640.289 1707.5 661C1707.5 681.711 1724.29 698.5 1745 698.5C1765.71 698.5 1782.5 681.711 1782.5 661C1782.5 640.289 1765.71 623.5 1745 623.5ZM1712.92 661C1712.92 643.281 1727.28 628.917 1745 628.917C1762.72 628.917 1777.08 643.281 1777.08 661C1777.08 678.719 1762.72 693.083 1745 693.083C1727.28 693.083 1712.92 678.719 1712.92 661Z" fill="black"/>
</g>
</g>
</g>
<g id="Regular-S">
<g id="Outline / Check Outline_24">
<g id="Shape_24">
<path d="M1443.96 674.708C1445.13 675.875 1447.04 675.833 1448.17 674.625L1466.58 654.625C1467.58 653.5 1467.5 651.792 1466.42 650.792C1465.33 649.792 1463.58 649.833 1462.58 650.958L1445.96 669.042L1435.96 659.042C1434.92 658 1433.17 658 1432.13 659.042C1431.08 660.083 1431.08 661.833 1432.13 662.875L1443.96 674.708Z" fill="black"/>
<path fill-rule="evenodd" clip-rule="evenodd" d="M1449 623.5C1428.29 623.5 1411.5 640.289 1411.5 661C1411.5 681.711 1428.29 698.5 1449 698.5C1469.71 698.5 1486.5 681.711 1486.5 661C1486.5 640.289 1469.71 623.5 1449 623.5ZM1416.92 661C1416.92 643.281 1431.28 628.917 1449 628.917C1466.72 628.917 1481.08 643.281 1481.08 661C1481.08 678.719 1466.72 693.083 1449 693.083C1431.28 693.083 1416.92 678.719 1416.92 661Z" fill="black"/>
</g>
</g>
</g>
<g id="Light-S">
<g id="Outline / Check Outline_25">
<g id="Shape_25">
<path d="M1147.96 674.708C1149.13 675.875 1151.04 675.833 1152.17 674.625L1170.58 654.625C1171.58 653.5 1171.5 651.792 1170.42 650.792C1169.33 649.792 1167.58 649.833 1166.58 650.958L1149.96 669.042L1139.96 659.042C1138.92 658 1137.17 658 1136.13 659.042C1135.08 660.083 1135.08 661.833 1136.13 662.875L1147.96 674.708Z" fill="black"/>
<path fill-rule="evenodd" clip-rule="evenodd" d="M1153 623.5C1132.29 623.5 1115.5 640.289 1115.5 661C1115.5 681.711 1132.29 698.5 1153 698.5C1173.71 698.5 1190.5 681.711 1190.5 661C1190.5 640.289 1173.71 623.5 1153 623.5ZM1120.92 661C1120.92 643.281 1135.28 628.917 1153 628.917C1170.72 628.917 1185.08 643.281 1185.08 661C1185.08 678.719 1170.72 693.083 1153 693.083C1135.28 693.083 1120.92 678.719 1120.92 661Z" fill="black"/>
</g>
</g>
</g>
<g id="Thin-S">
<g id="Outline / Check Outline_26">
<g id="Shape_26">
<path d="M851.958 674.708C853.125 675.875 855.042 675.833 856.167 674.625L874.583 654.625C875.583 653.5 875.5 651.792 874.417 650.792C873.333 649.792 871.583 649.833 870.583 650.958L853.958 669.042L843.958 659.042C842.917 658 841.167 658 840.125 659.042C839.083 660.083 839.083 661.833 840.125 662.875L851.958 674.708Z" fill="black"/>
<path fill-rule="evenodd" clip-rule="evenodd" d="M857 623.5C836.289 623.5 819.5 640.289 819.5 661C819.5 681.711 836.289 698.5 857 698.5C877.711 698.5 894.5 681.711 894.5 661C894.5 640.289 877.711 623.5 857 623.5ZM824.917 661C824.917 643.281 839.281 628.917 857 628.917C874.719 628.917 889.083 643.281 889.083 661C889.083 678.719 874.719 693.083 857 693.083C839.281 693.083 824.917 678.719 824.917 661Z" fill="black"/>
</g>
</g>
</g>
<g id="Ultralight-S">
<g id="Outline / Check Outline_27">
<g id="Shape_27">
<path d="M555.958 674.708C557.125 675.875 559.042 675.833 560.167 674.625L578.583 654.625C579.583 653.5 579.5 651.792 578.417 650.792C577.333 649.792 575.583 649.833 574.583 650.958L557.958 669.042L547.958 659.042C546.917 658 545.167 658 544.125 659.042C543.083 660.083 543.083 661.833 544.125 662.875L555.958 674.708Z" fill="black"/>
<path fill-rule="evenodd" clip-rule="evenodd" d="M561 623.5C540.289 623.5 523.5 640.289 523.5 661C523.5 681.711 540.289 698.5 561 698.5C581.711 698.5 598.5 681.711 598.5 661C598.5 640.289 581.711 623.5 561 623.5ZM528.917 661C528.917 643.281 543.281 628.917 561 628.917C578.719 628.917 593.083 643.281 593.083 661C593.083 678.719 578.719 693.083 561 693.083C543.281 693.083 528.917 678.719 528.917 661Z" fill="black"/>
</g>
</g>
</g>
</g>
</g>
<defs>
<clipPath id="clip0_0_1">
<rect width="3300" height="2200" fill="white"/>
</clipPath>
</defs>
</svg>
