<svg width="3300" height="2200" viewBox="0 0 3300 2200" fill="none" xmlns="http://www.w3.org/2000/svg">
<rect width="3300" height="2200" fill="#E5E5E5"/>
<g id="System / Solid / Notifications" clip-path="url(#clip0_805_27002)">
<g id="Notes">
<path id="artboard" d="M3300 0H0V2200H3300V0Z" fill="white"/>
<path id="Vector" d="M263 292H3036" stroke="black" stroke-width="0.5"/>
<text id="Weight/Scale Variations" fill="black" xml:space="preserve" style="white-space: pre" font-family="Roboto" font-size="12" letter-spacing="0em"><tspan x="263" y="321.102">Weight/Scale Variations</tspan></text>
<text id="Ultralight" fill="black" xml:space="preserve" style="white-space: pre" font-family="Roboto" font-size="12" letter-spacing="0em"><tspan x="535.211" y="321.102">Ultralight</tspan></text>
<text id="Thin" fill="black" xml:space="preserve" style="white-space: pre" font-family="Roboto" font-size="12" letter-spacing="0em"><tspan x="844.422" y="321.102">Thin</tspan></text>
<text id="Light" fill="black" xml:space="preserve" style="white-space: pre" font-family="Roboto" font-size="12" letter-spacing="0em"><tspan x="1139.63" y="321.102">Light</tspan></text>
<text id="Regular" fill="black" xml:space="preserve" style="white-space: pre" font-family="Roboto" font-size="12" letter-spacing="0em"><tspan x="1429.34" y="321.102">Regular</tspan></text>
<text id="Medium" fill="black" xml:space="preserve" style="white-space: pre" font-family="Roboto" font-size="12" letter-spacing="0em"><tspan x="1724.56" y="321.102">Medium</tspan></text>
<text id="Semibold" fill="black" xml:space="preserve" style="white-space: pre" font-family="Roboto" font-size="12" letter-spacing="0em"><tspan x="2017.77" y="321.102">Semibold</tspan></text>
<text id="Bold" fill="black" xml:space="preserve" style="white-space: pre" font-family="Roboto" font-size="12" letter-spacing="0em"><tspan x="2327.48" y="321.102">Bold</tspan></text>
<text id="Heavy" fill="black" xml:space="preserve" style="white-space: pre" font-family="Roboto" font-size="12" letter-spacing="0em"><tspan x="2620.19" y="321.102">Heavy</tspan></text>
<text id="Black" fill="black" xml:space="preserve" style="white-space: pre" font-family="Roboto" font-size="12" letter-spacing="0em"><tspan x="2918.4" y="321.102">Black</tspan></text>
<path id="Vector_2" d="M263 1903H3036" stroke="black" stroke-width="0.5"/>
<g id="Group">
<path id="Vector_3" d="M272.248 1933.83C276.555 1933.83 280.139 1930.26 280.139 1925.95C280.139 1921.64 276.545 1918.07 272.238 1918.07C267.941 1918.07 264.367 1921.64 264.367 1925.95C264.367 1930.26 267.951 1933.83 272.248 1933.83ZM272.248 1932.35C268.703 1932.35 265.871 1929.51 265.871 1925.95C265.871 1922.4 268.693 1919.55 272.238 1919.55C275.793 1919.55 278.635 1922.4 278.644 1925.95C278.654 1929.51 275.803 1932.35 272.248 1932.35ZM272.229 1929.57C272.697 1929.57 272.971 1929.26 272.971 1928.74V1926.68H275.197C275.695 1926.68 276.037 1926.43 276.037 1925.96C276.037 1925.48 275.715 1925.22 275.197 1925.22H272.971V1922.99C272.971 1922.47 272.697 1922.15 272.229 1922.15C271.76 1922.15 271.506 1922.49 271.506 1922.99V1925.22H269.299C268.781 1925.22 268.449 1925.48 268.449 1925.96C268.449 1926.43 268.801 1926.68 269.299 1926.68H271.506V1928.74C271.506 1929.24 271.76 1929.57 272.229 1929.57Z" fill="black"/>
</g>
<g id="Group_2">
<path id="Vector_4" d="M293.215 1935.91C298.664 1935.91 303.176 1931.4 303.176 1925.95C303.176 1920.51 298.654 1915.99 293.205 1915.99C287.766 1915.99 283.254 1920.51 283.254 1925.95C283.254 1931.4 287.775 1935.91 293.215 1935.91ZM293.215 1934.25C288.605 1934.25 284.924 1930.56 284.924 1925.95C284.924 1921.35 288.596 1917.65 293.205 1917.65C297.814 1917.65 301.506 1921.35 301.516 1925.95C301.525 1930.56 297.824 1934.25 293.215 1934.25ZM293.195 1930.59C293.713 1930.59 294.025 1930.23 294.025 1929.66V1926.77H297.082C297.629 1926.77 298.01 1926.49 298.01 1925.97C298.01 1925.44 297.648 1925.14 297.082 1925.14H294.025V1922.07C294.025 1921.5 293.713 1921.14 293.195 1921.14C292.678 1921.14 292.385 1921.52 292.385 1922.07V1925.14H289.338C288.771 1925.14 288.4 1925.44 288.4 1925.97C288.4 1926.49 288.791 1926.77 289.338 1926.77H292.385V1929.66C292.385 1930.21 292.678 1930.59 293.195 1930.59Z" fill="black"/>
</g>
<g id="Group_3">
<path id="Vector_5" d="M319.895 1938.67C326.857 1938.67 332.619 1932.92 332.619 1925.96C332.619 1918.99 326.848 1913.24 319.885 1913.24C312.932 1913.24 307.18 1918.99 307.18 1925.96C307.18 1932.92 312.941 1938.67 319.895 1938.67ZM319.895 1936.86C313.859 1936.86 309.006 1931.99 309.006 1925.96C309.006 1919.92 313.85 1915.06 319.885 1915.06C325.93 1915.06 330.783 1919.92 330.793 1925.96C330.803 1931.99 325.939 1936.86 319.895 1936.86ZM319.875 1931.93C320.441 1931.93 320.793 1931.54 320.793 1930.94V1926.87H325.031C325.617 1926.87 326.037 1926.53 326.037 1925.98C326.037 1925.4 325.647 1925.06 325.031 1925.06H320.793V1920.81C320.793 1920.2 320.441 1919.8 319.875 1919.8C319.309 1919.8 318.986 1920.21 318.986 1920.81V1925.06H314.758C314.143 1925.06 313.732 1925.4 313.732 1925.98C313.732 1926.53 314.162 1926.87 314.758 1926.87H318.986V1930.94C318.986 1931.52 319.309 1931.93 319.875 1931.93Z" fill="black"/>
</g>
<text id="Design Variations" fill="black" xml:space="preserve" style="white-space: pre" font-family="Roboto" font-size="12" letter-spacing="0em"><tspan x="263" y="1952.1">Design Variations</tspan></text>
<text id="Symbols are supported in up to nine weights and three scales." fill="black" xml:space="preserve" style="white-space: pre" font-family="Roboto" font-size="12" letter-spacing="0em"><tspan x="263" y="1970.1">Symbols are supported in up to nine weights and three scales.</tspan></text>
<text id="For optimal layout with text and other symbols, vertically align" fill="black" xml:space="preserve" style="white-space: pre" font-family="Roboto" font-size="12" letter-spacing="0em"><tspan x="263" y="1988.1">For optimal layout with text and other symbols, vertically align</tspan></text>
<text id="symbols with the adjacent text." fill="black" xml:space="preserve" style="white-space: pre" font-family="Roboto" font-size="12" letter-spacing="0em"><tspan x="263" y="2006.1">symbols with the adjacent text.</tspan></text>
<path id="Vector_6" opacity="0.4" d="M779 1919H776V1933H779V1919Z" fill="#00AEEF"/>
<g id="Group_4">
<path id="Vector_7" d="M789.525 1933H791.371L786.176 1918.91H784.437L779.242 1933H781.088L782.504 1928.96H788.109L789.525 1933ZM785.277 1921.04H785.336L787.592 1927.47H783.021L785.277 1921.04Z" fill="black"/>
</g>
<path id="Vector_8" opacity="0.4" d="M794.617 1919H791.617V1933H794.617V1919Z" fill="#00AEEF"/>
<text id="Margins" fill="black" xml:space="preserve" style="white-space: pre" font-family="Roboto" font-size="12" letter-spacing="0em"><tspan x="776" y="1952.1">Margins</tspan></text>
<text id="Leading and trailing margins on the left and right side of each symbol" fill="black" xml:space="preserve" style="white-space: pre" font-family="Roboto" font-size="12" letter-spacing="0em"><tspan x="776" y="1970.1">Leading and trailing margins on the left and right side of each symbol</tspan></text>
<text id="can be adjusted by modifying the width of the blue rectangles." fill="black" xml:space="preserve" style="white-space: pre" font-family="Roboto" font-size="12" letter-spacing="0em"><tspan x="776" y="1988.1">can be adjusted by modifying the width of the blue rectangles.</tspan></text>
<text id="Modifications are automatically applied proportionally to all" fill="black" xml:space="preserve" style="white-space: pre" font-family="Roboto" font-size="12" letter-spacing="0em"><tspan x="776" y="2006.1">Modifications are automatically applied proportionally to all</tspan></text>
<text id="scales and weights." fill="black" xml:space="preserve" style="white-space: pre" font-family="Roboto" font-size="12" letter-spacing="0em"><tspan x="776" y="2024.1">scales and weights.</tspan></text>
<g id="Group_5">
<path id="Vector_9" d="M1291.83 1936.11L1293.37 1937.66C1294.22 1938.49 1295.19 1938.42 1296.06 1937.46L1306.27 1926.34C1306.7 1926.63 1307.1 1926.62 1307.56 1926.52L1308.61 1926.31L1309.3 1927L1309.25 1927.52C1309.19 1928.05 1309.35 1928.47 1309.85 1928.97L1310.66 1929.78C1311.17 1930.28 1311.82 1930.31 1312.3 1929.83L1315.55 1926.58C1316.03 1926.1 1316.01 1925.45 1315.5 1924.94L1314.68 1924.12C1314.19 1923.62 1313.77 1923.45 1313.24 1923.53L1312.71 1923.58L1312.06 1922.92L1312.34 1921.78C1312.49 1921.21 1312.34 1920.74 1311.71 1920.14L1309.3 1917.75C1305.76 1914.22 1301.23 1914.33 1298.11 1917.46C1297.69 1917.89 1297.64 1918.48 1297.92 1918.91C1298.15 1919.28 1298.63 1919.5 1299.27 1919.34C1300.79 1918.96 1302.3 1919.07 1303.78 1920.08L1303.16 1921.66C1302.93 1922.25 1302.94 1922.73 1303.18 1923.16L1292.02 1933.44C1291.08 1934.31 1290.97 1935.25 1291.83 1936.11ZM1299.67 1917.85C1302.34 1915.86 1305.65 1916.17 1308.05 1918.58L1310.68 1921.19C1310.91 1921.43 1310.94 1921.61 1310.88 1921.91L1310.5 1923.47L1312.08 1925.04L1313.04 1924.95C1313.33 1924.92 1313.41 1924.94 1313.64 1925.17L1314.26 1925.79L1311.51 1928.54L1310.88 1927.92C1310.66 1927.7 1310.64 1927.6 1310.67 1927.32L1310.76 1926.36L1309.19 1924.8L1307.57 1925.11C1307.29 1925.17 1307.14 1925.17 1306.91 1924.92L1304.73 1922.75C1304.51 1922.51 1304.48 1922.37 1304.61 1922.05L1305.55 1919.78C1303.95 1918.24 1301.84 1917.39 1299.8 1918.05C1299.71 1918.08 1299.64 1918.06 1299.61 1918.02C1299.59 1917.97 1299.59 1917.92 1299.67 1917.85ZM1293.1 1935.41C1292.61 1934.91 1292.79 1934.61 1293.12 1934.31L1304.08 1924.19L1305.31 1925.42L1295.15 1936.35C1294.85 1936.68 1294.47 1936.78 1294.07 1936.38L1293.1 1935.41Z" fill="black"/>
</g>
<text id="Exporting" fill="black" xml:space="preserve" style="white-space: pre" font-family="Roboto" font-size="12" letter-spacing="0em"><tspan x="1289" y="1952.1">Exporting</tspan></text>
<text id="Symbols should be outlined when exporting to ensure the" fill="black" xml:space="preserve" style="white-space: pre" font-family="Roboto" font-size="12" letter-spacing="0em"><tspan x="1289" y="1970.1">Symbols should be outlined when exporting to ensure the</tspan></text>
<text id="design is preserved when submitting to Xcode." fill="black" xml:space="preserve" style="white-space: pre" font-family="Roboto" font-size="12" letter-spacing="0em"><tspan x="1289" y="1988.1">design is preserved when submitting to Xcode.</tspan></text>
<text id="template-version" fill="black" xml:space="preserve" style="white-space: pre" font-family="Roboto" font-size="12" letter-spacing="0em"><tspan x="2958" y="1932.1">Template v.1.0</tspan></text>
<text id="Generated from pencil.circle" fill="black" xml:space="preserve" style="white-space: pre" font-family="Roboto" font-size="12" letter-spacing="0em"><tspan x="2885" y="1950.1">Generated from pencil.circle</tspan></text>
<text id="Typeset at 100 points" fill="black" xml:space="preserve" style="white-space: pre" font-family="Roboto" font-size="12" letter-spacing="0em"><tspan x="2921" y="1968.1">Typeset at 100 points</tspan></text>
<text id="Small" fill="black" xml:space="preserve" style="white-space: pre" font-family="Roboto" font-size="12" letter-spacing="0em"><tspan x="263" y="725.102">Small</tspan></text>
<text id="Medium_2" fill="black" xml:space="preserve" style="white-space: pre" font-family="Roboto" font-size="12" letter-spacing="0em"><tspan x="263" y="1155.1">Medium</tspan></text>
<text id="Large" fill="black" xml:space="preserve" style="white-space: pre" font-family="Roboto" font-size="12" letter-spacing="0em"><tspan x="263" y="1585.1">Large</tspan></text>
</g>
<g id="Guides">
<g id="H-reference">
<path id="Vector_10" d="M393.932 695.998H396.666L369.566 625.539H367.076L339.977 695.998H342.662L351.94 671.535H384.703L393.932 695.998ZM368.199 628.908H368.443L383.824 669.289H352.818L368.199 628.908Z" fill="#27AAE1"/>
</g>
<path id="Baseline-S" d="M263 696H3036" stroke="#27AAE1" stroke-width="0.577"/>
<path id="Capline-S" d="M263 626H3036" stroke="#27AAE1" stroke-width="0.577"/>
<g id="H-reference_2">
<path id="Vector_11" d="M393.932 1126H396.666L369.566 1055.54H367.076L339.977 1126H342.662L351.94 1101.54H384.703L393.932 1126ZM368.199 1058.91H368.443L383.824 1099.29H352.818L368.199 1058.91Z" fill="#27AAE1"/>
</g>
<path id="Baseline-M" d="M263 1126H3036" stroke="#27AAE1" stroke-width="0.577"/>
<path id="Capline-M" d="M263 1056H3036" stroke="#27AAE1" stroke-width="0.577"/>
<g id="H-reference_3">
<path id="Vector_12" d="M393.932 1556H396.666L369.566 1485.54H367.076L339.977 1556H342.662L351.94 1531.54H384.703L393.932 1556ZM368.199 1488.91H368.443L383.824 1529.29H352.818L368.199 1488.91Z" fill="#27AAE1"/>
</g>
<g id="Group 1">
<path id="Baseline-L" d="M263 1556H3036" stroke="#27AAE1" stroke-width="0.577"/>
<path id="Capline-L" d="M263 1486H3036" stroke="#27AAE1" stroke-width="0.577"/>
</g>
<path id="left-margin" opacity="0.4" d="M1403.04 1030.79H1394.3V1150.12H1403.04V1030.79Z" fill="#00AEEF"/>
<path id="right-margin" opacity="0.4" d="M1503.39 1030.79H1494.65V1150.12H1503.39V1030.79Z" fill="#00AEEF"/>
</g>
<g id="Symbols">
<g id="Black-L">
<g id="Solid / Notifications Solid">
<g id="Shape">
<path fill-rule="evenodd" clip-rule="evenodd" d="M2933.49 1450.35C2933.49 1447.66 2931.3 1445.47 2928.61 1445.47C2925.92 1445.47 2923.74 1447.66 2923.74 1450.35V1465.68C2909.28 1467.63 2897.24 1478.19 2893.66 1492.65L2880.43 1545.6H2874.99C2872.3 1545.6 2870.11 1547.78 2870.11 1550.47C2870.11 1553.16 2872.3 1555.35 2874.99 1555.35H2982.24C2984.93 1555.35 2987.11 1553.16 2987.11 1550.47C2987.11 1547.78 2984.93 1545.6 2982.24 1545.6H2976.8L2963.56 1492.65C2959.98 1478.19 2947.95 1467.63 2933.49 1465.68V1450.35Z" fill="black"/>
<path d="M2913.87 1565.62C2911.18 1565.69 2909.05 1567.92 2909.11 1570.61C2909.35 1580.34 2917.91 1587.37 2927.49 1587.37C2937.06 1587.37 2945.63 1580.34 2945.86 1570.61C2945.93 1567.92 2943.8 1565.69 2941.1 1565.62C2929.82 1565.36 2921.01 1565.45 2913.87 1565.62Z" fill="black"/>
</g>
</g>
</g>
<g id="Heavy-L">
<g id="Solid / Notifications Solid_2">
<g id="Shape_2">
<path fill-rule="evenodd" clip-rule="evenodd" d="M2637.49 1450.35C2637.49 1447.66 2635.3 1445.47 2632.61 1445.47C2629.92 1445.47 2627.74 1447.66 2627.74 1450.35V1465.68C2613.28 1467.63 2601.24 1478.19 2597.66 1492.65L2584.43 1545.6H2578.99C2576.3 1545.6 2574.11 1547.78 2574.11 1550.47C2574.11 1553.16 2576.3 1555.35 2578.99 1555.35H2686.24C2688.93 1555.35 2691.11 1553.16 2691.11 1550.47C2691.11 1547.78 2688.93 1545.6 2686.24 1545.6H2680.8L2667.56 1492.65C2663.98 1478.19 2651.95 1467.63 2637.49 1465.68V1450.35Z" fill="black"/>
<path d="M2617.87 1565.62C2615.18 1565.69 2613.05 1567.92 2613.11 1570.61C2613.35 1580.34 2621.91 1587.37 2631.49 1587.37C2641.06 1587.37 2649.63 1580.34 2649.86 1570.61C2649.93 1567.92 2647.8 1565.69 2645.1 1565.62C2633.82 1565.36 2625.01 1565.45 2617.87 1565.62Z" fill="black"/>
</g>
</g>
</g>
<g id="Bold-L">
<g id="Solid / Notifications Solid_3">
<g id="Shape_3">
<path fill-rule="evenodd" clip-rule="evenodd" d="M2341.49 1450.35C2341.49 1447.66 2339.3 1445.47 2336.61 1445.47C2333.92 1445.47 2331.74 1447.66 2331.74 1450.35V1465.68C2317.28 1467.63 2305.24 1478.19 2301.66 1492.65L2288.43 1545.6H2282.99C2280.3 1545.6 2278.11 1547.78 2278.11 1550.47C2278.11 1553.16 2280.3 1555.35 2282.99 1555.35H2390.24C2392.93 1555.35 2395.11 1553.16 2395.11 1550.47C2395.11 1547.78 2392.93 1545.6 2390.24 1545.6H2384.8L2371.56 1492.65C2367.98 1478.19 2355.95 1467.63 2341.49 1465.68V1450.35Z" fill="black"/>
<path d="M2321.87 1565.62C2319.18 1565.69 2317.05 1567.92 2317.11 1570.61C2317.35 1580.34 2325.91 1587.37 2335.49 1587.37C2345.06 1587.37 2353.63 1580.34 2353.86 1570.61C2353.93 1567.92 2351.8 1565.69 2349.1 1565.62C2337.82 1565.36 2329.01 1565.45 2321.87 1565.62Z" fill="black"/>
</g>
</g>
</g>
<g id="Semibold-L">
<g id="Solid / Notifications Solid_4">
<g id="Shape_4">
<path fill-rule="evenodd" clip-rule="evenodd" d="M2045.49 1450.35C2045.49 1447.66 2043.3 1445.47 2040.61 1445.47C2037.92 1445.47 2035.74 1447.66 2035.74 1450.35V1465.68C2021.28 1467.63 2009.24 1478.19 2005.66 1492.65L1992.43 1545.6H1986.99C1984.3 1545.6 1982.11 1547.78 1982.11 1550.47C1982.11 1553.16 1984.3 1555.35 1986.99 1555.35H2094.24C2096.93 1555.35 2099.11 1553.16 2099.11 1550.47C2099.11 1547.78 2096.93 1545.6 2094.24 1545.6H2088.8L2075.56 1492.65C2071.98 1478.19 2059.95 1467.63 2045.49 1465.68V1450.35Z" fill="black"/>
<path d="M2025.87 1565.62C2023.18 1565.69 2021.05 1567.92 2021.11 1570.61C2021.35 1580.34 2029.91 1587.37 2039.49 1587.37C2049.06 1587.37 2057.63 1580.34 2057.86 1570.61C2057.93 1567.92 2055.8 1565.69 2053.1 1565.62C2041.82 1565.36 2033.01 1565.45 2025.87 1565.62Z" fill="black"/>
</g>
</g>
</g>
<g id="Medium-L">
<g id="Solid / Notifications Solid_5">
<g id="Shape_5">
<path fill-rule="evenodd" clip-rule="evenodd" d="M1749.49 1450.35C1749.49 1447.66 1747.3 1445.47 1744.61 1445.47C1741.92 1445.47 1739.74 1447.66 1739.74 1450.35V1465.68C1725.28 1467.63 1713.24 1478.19 1709.66 1492.65L1696.43 1545.6H1690.99C1688.3 1545.6 1686.11 1547.78 1686.11 1550.47C1686.11 1553.16 1688.3 1555.35 1690.99 1555.35H1798.24C1800.93 1555.35 1803.11 1553.16 1803.11 1550.47C1803.11 1547.78 1800.93 1545.6 1798.24 1545.6H1792.8L1779.56 1492.65C1775.98 1478.19 1763.95 1467.63 1749.49 1465.68V1450.35Z" fill="black"/>
<path d="M1729.87 1565.62C1727.18 1565.69 1725.05 1567.92 1725.11 1570.61C1725.35 1580.34 1733.91 1587.37 1743.49 1587.37C1753.06 1587.37 1761.63 1580.34 1761.86 1570.61C1761.93 1567.92 1759.8 1565.69 1757.1 1565.62C1745.82 1565.36 1737.01 1565.45 1729.87 1565.62Z" fill="black"/>
</g>
</g>
</g>
<g id="Regular-L">
<g id="Solid / Notifications Solid_6">
<g id="Shape_6">
<path fill-rule="evenodd" clip-rule="evenodd" d="M1453.49 1450.35C1453.49 1447.66 1451.3 1445.47 1448.61 1445.47C1445.92 1445.47 1443.74 1447.66 1443.74 1450.35V1465.68C1429.28 1467.63 1417.24 1478.19 1413.66 1492.65L1400.43 1545.6H1394.99C1392.3 1545.6 1390.11 1547.78 1390.11 1550.47C1390.11 1553.16 1392.3 1555.35 1394.99 1555.35H1502.24C1504.93 1555.35 1507.11 1553.16 1507.11 1550.47C1507.11 1547.78 1504.93 1545.6 1502.24 1545.6H1496.8L1483.56 1492.65C1479.98 1478.19 1467.95 1467.63 1453.49 1465.68V1450.35Z" fill="black"/>
<path d="M1433.87 1565.62C1431.18 1565.69 1429.05 1567.92 1429.11 1570.61C1429.35 1580.34 1437.91 1587.37 1447.49 1587.37C1457.06 1587.37 1465.63 1580.34 1465.86 1570.61C1465.93 1567.92 1463.8 1565.69 1461.1 1565.62C1449.82 1565.36 1441.01 1565.45 1433.87 1565.62Z" fill="black"/>
</g>
</g>
</g>
<g id="Light-L">
<g id="Solid / Notifications Solid_7">
<g id="Shape_7">
<path fill-rule="evenodd" clip-rule="evenodd" d="M1157.49 1450.35C1157.49 1447.66 1155.3 1445.47 1152.61 1445.47C1149.92 1445.47 1147.74 1447.66 1147.74 1450.35V1465.68C1133.28 1467.63 1121.24 1478.19 1117.66 1492.65L1104.43 1545.6H1098.99C1096.3 1545.6 1094.11 1547.78 1094.11 1550.47C1094.11 1553.16 1096.3 1555.35 1098.99 1555.35H1206.24C1208.93 1555.35 1211.11 1553.16 1211.11 1550.47C1211.11 1547.78 1208.93 1545.6 1206.24 1545.6H1200.8L1187.56 1492.65C1183.98 1478.19 1171.95 1467.63 1157.49 1465.68V1450.35Z" fill="black"/>
<path d="M1137.87 1565.62C1135.18 1565.69 1133.05 1567.92 1133.11 1570.61C1133.35 1580.34 1141.91 1587.37 1151.49 1587.37C1161.06 1587.37 1169.63 1580.34 1169.86 1570.61C1169.93 1567.92 1167.8 1565.69 1165.1 1565.62C1153.82 1565.36 1145.01 1565.45 1137.87 1565.62Z" fill="black"/>
</g>
</g>
</g>
<g id="Thin-L">
<g id="Solid / Notifications Solid_8">
<g id="Shape_8">
<path fill-rule="evenodd" clip-rule="evenodd" d="M861.488 1450.35C861.488 1447.66 859.305 1445.47 856.613 1445.47C853.92 1445.47 851.738 1447.66 851.738 1450.35V1465.68C837.275 1467.63 825.242 1478.19 821.663 1492.65L808.425 1545.6H802.988C800.296 1545.6 798.113 1547.78 798.113 1550.47C798.113 1553.16 800.296 1555.35 802.988 1555.35H910.238C912.931 1555.35 915.113 1553.16 915.113 1550.47C915.113 1547.78 912.931 1545.6 910.238 1545.6H904.8L891.563 1492.65C887.983 1478.19 875.95 1467.63 861.488 1465.68V1450.35Z" fill="black"/>
<path d="M841.872 1565.62C839.18 1565.69 837.05 1567.92 837.114 1570.61C837.346 1580.34 845.915 1587.37 855.488 1587.37C865.061 1587.37 873.63 1580.34 873.862 1570.61C873.926 1567.92 871.796 1565.69 869.104 1565.62C857.823 1565.36 849.006 1565.45 841.872 1565.62Z" fill="black"/>
</g>
</g>
</g>
<g id="Ultralight-L">
<g id="Solid / Notifications Solid_9">
<g id="Shape_9">
<path fill-rule="evenodd" clip-rule="evenodd" d="M565.488 1450.35C565.488 1447.66 563.305 1445.47 560.613 1445.47C557.92 1445.47 555.738 1447.66 555.738 1450.35V1465.68C541.275 1467.63 529.242 1478.19 525.663 1492.65L512.425 1545.6H506.988C504.296 1545.6 502.113 1547.78 502.113 1550.47C502.113 1553.16 504.296 1555.35 506.988 1555.35H614.238C616.931 1555.35 619.113 1553.16 619.113 1550.47C619.113 1547.78 616.931 1545.6 614.238 1545.6H608.8L595.563 1492.65C591.983 1478.19 579.95 1467.63 565.488 1465.68V1450.35Z" fill="black"/>
<path d="M545.872 1565.62C543.18 1565.69 541.05 1567.92 541.114 1570.61C541.346 1580.34 549.915 1587.37 559.488 1587.37C569.061 1587.37 577.63 1580.34 577.862 1570.61C577.926 1567.92 575.796 1565.69 573.104 1565.62C561.823 1565.36 553.006 1565.45 545.872 1565.62Z" fill="black"/>
</g>
</g>
</g>
<g id="Black-M">
<g id="Solid / Notifications Solid_10">
<g id="Shape_10">
<path fill-rule="evenodd" clip-rule="evenodd" d="M2932.49 1036.05C2932.49 1033.96 2930.79 1032.26 2928.7 1032.26C2926.6 1032.26 2924.91 1033.96 2924.91 1036.05V1047.97C2913.66 1049.49 2904.3 1057.71 2901.52 1068.95L2891.22 1110.13H2886.99C2884.9 1110.13 2883.2 1111.83 2883.2 1113.92C2883.2 1116.02 2884.9 1117.72 2886.99 1117.72H2970.41C2972.5 1117.72 2974.2 1116.02 2974.2 1113.92C2974.2 1111.83 2972.5 1110.13 2970.41 1110.13H2966.18L2955.88 1068.95C2953.1 1057.71 2943.74 1049.49 2932.49 1047.97V1036.05Z" fill="black"/>
<path d="M2917.23 1125.71C2915.14 1125.76 2913.48 1127.5 2913.53 1129.59C2913.71 1137.16 2920.38 1142.62 2927.82 1142.62C2935.27 1142.62 2941.93 1137.16 2942.11 1129.59C2942.16 1127.5 2940.51 1125.76 2938.41 1125.71C2929.64 1125.5 2922.78 1125.58 2917.23 1125.71Z" fill="black"/>
</g>
</g>
</g>
<g id="Heavy-M">
<g id="Solid / Notifications Solid_11">
<g id="Shape_11">
<path fill-rule="evenodd" clip-rule="evenodd" d="M2636.49 1036.05C2636.49 1033.96 2634.79 1032.26 2632.7 1032.26C2630.6 1032.26 2628.91 1033.96 2628.91 1036.05V1047.97C2617.66 1049.49 2608.3 1057.71 2605.52 1068.95L2595.22 1110.13H2590.99C2588.9 1110.13 2587.2 1111.83 2587.2 1113.92C2587.2 1116.02 2588.9 1117.72 2590.99 1117.72H2674.41C2676.5 1117.72 2678.2 1116.02 2678.2 1113.92C2678.2 1111.83 2676.5 1110.13 2674.41 1110.13H2670.18L2659.88 1068.95C2657.1 1057.71 2647.74 1049.49 2636.49 1047.97V1036.05Z" fill="black"/>
<path d="M2621.23 1125.71C2619.14 1125.76 2617.48 1127.5 2617.53 1129.59C2617.71 1137.16 2624.38 1142.62 2631.82 1142.62C2639.27 1142.62 2645.93 1137.16 2646.11 1129.59C2646.16 1127.5 2644.51 1125.76 2642.41 1125.71C2633.64 1125.5 2626.78 1125.58 2621.23 1125.71Z" fill="black"/>
</g>
</g>
</g>
<g id="Bold-M">
<g id="Solid / Notifications Solid_12">
<g id="Shape_12">
<path fill-rule="evenodd" clip-rule="evenodd" d="M2340.49 1036.05C2340.49 1033.96 2338.79 1032.26 2336.7 1032.26C2334.6 1032.26 2332.91 1033.96 2332.91 1036.05V1047.97C2321.66 1049.49 2312.3 1057.71 2309.52 1068.95L2299.22 1110.13H2294.99C2292.9 1110.13 2291.2 1111.83 2291.2 1113.92C2291.2 1116.02 2292.9 1117.72 2294.99 1117.72H2378.41C2380.5 1117.72 2382.2 1116.02 2382.2 1113.92C2382.2 1111.83 2380.5 1110.13 2378.41 1110.13H2374.18L2363.88 1068.95C2361.1 1057.71 2351.74 1049.49 2340.49 1047.97V1036.05Z" fill="black"/>
<path d="M2325.23 1125.71C2323.14 1125.76 2321.48 1127.5 2321.53 1129.59C2321.71 1137.16 2328.38 1142.62 2335.82 1142.62C2343.27 1142.62 2349.93 1137.16 2350.11 1129.59C2350.16 1127.5 2348.51 1125.76 2346.41 1125.71C2337.64 1125.5 2330.78 1125.58 2325.23 1125.71Z" fill="black"/>
</g>
</g>
</g>
<g id="Semibold-M">
<g id="Solid / Notifications Solid_13">
<g id="Shape_13">
<path fill-rule="evenodd" clip-rule="evenodd" d="M2044.49 1036.05C2044.49 1033.96 2042.79 1032.26 2040.7 1032.26C2038.6 1032.26 2036.91 1033.96 2036.91 1036.05V1047.97C2025.66 1049.49 2016.3 1057.71 2013.52 1068.95L2003.22 1110.13H1998.99C1996.9 1110.13 1995.2 1111.83 1995.2 1113.92C1995.2 1116.02 1996.9 1117.72 1998.99 1117.72H2082.41C2084.5 1117.72 2086.2 1116.02 2086.2 1113.92C2086.2 1111.83 2084.5 1110.13 2082.41 1110.13H2078.18L2067.88 1068.95C2065.1 1057.71 2055.74 1049.49 2044.49 1047.97V1036.05Z" fill="black"/>
<path d="M2029.23 1125.71C2027.14 1125.76 2025.48 1127.5 2025.53 1129.59C2025.71 1137.16 2032.38 1142.62 2039.82 1142.62C2047.27 1142.62 2053.93 1137.16 2054.11 1129.59C2054.16 1127.5 2052.51 1125.76 2050.41 1125.71C2041.64 1125.5 2034.78 1125.58 2029.23 1125.71Z" fill="black"/>
</g>
</g>
</g>
<g id="Medium-M">
<g id="Solid / Notifications Solid_14">
<g id="Shape_14">
<path fill-rule="evenodd" clip-rule="evenodd" d="M1759.49 1036.05C1759.49 1033.96 1757.79 1032.26 1755.7 1032.26C1753.6 1032.26 1751.91 1033.96 1751.91 1036.05V1047.97C1740.66 1049.49 1731.3 1057.71 1728.52 1068.95L1718.22 1110.13H1713.99C1711.9 1110.13 1710.2 1111.83 1710.2 1113.92C1710.2 1116.02 1711.9 1117.72 1713.99 1117.72H1797.41C1799.5 1117.72 1801.2 1116.02 1801.2 1113.92C1801.2 1111.83 1799.5 1110.13 1797.41 1110.13H1793.18L1782.88 1068.95C1780.1 1057.71 1770.74 1049.49 1759.49 1047.97V1036.05Z" fill="black"/>
<path d="M1744.23 1125.71C1742.14 1125.76 1740.48 1127.5 1740.53 1129.59C1740.71 1137.16 1747.38 1142.62 1754.82 1142.62C1762.27 1142.62 1768.93 1137.16 1769.11 1129.59C1769.16 1127.5 1767.51 1125.76 1765.41 1125.71C1756.64 1125.5 1749.78 1125.58 1744.23 1125.71Z" fill="black"/>
</g>
</g>
</g>
<g id="Regular-M">
<g id="Solid / Notifications Solid_15">
<g id="Shape_15">
<path fill-rule="evenodd" clip-rule="evenodd" d="M1452.49 1036.05C1452.49 1033.96 1450.79 1032.26 1448.7 1032.26C1446.6 1032.26 1444.91 1033.96 1444.91 1036.05V1047.97C1433.66 1049.49 1424.3 1057.71 1421.52 1068.95L1411.22 1110.13H1406.99C1404.9 1110.13 1403.2 1111.83 1403.2 1113.92C1403.2 1116.02 1404.9 1117.72 1406.99 1117.72H1490.41C1492.5 1117.72 1494.2 1116.02 1494.2 1113.92C1494.2 1111.83 1492.5 1110.13 1490.41 1110.13H1486.18L1475.88 1068.95C1473.1 1057.71 1463.74 1049.49 1452.49 1047.97V1036.05Z" fill="black"/>
<path d="M1437.23 1125.71C1435.14 1125.76 1433.48 1127.5 1433.53 1129.59C1433.71 1137.16 1440.38 1142.62 1447.82 1142.62C1455.27 1142.62 1461.93 1137.16 1462.11 1129.59C1462.16 1127.5 1460.51 1125.76 1458.41 1125.71C1449.64 1125.5 1442.78 1125.58 1437.23 1125.71Z" fill="black"/>
</g>
</g>
</g>
<g id="Light-M">
<g id="Solid / Notifications Solid_16">
<g id="Shape_16">
<path fill-rule="evenodd" clip-rule="evenodd" d="M1156.49 1036.05C1156.49 1033.96 1154.79 1032.26 1152.7 1032.26C1150.6 1032.26 1148.91 1033.96 1148.91 1036.05V1047.97C1137.66 1049.49 1128.3 1057.71 1125.52 1068.95L1115.22 1110.13H1110.99C1108.9 1110.13 1107.2 1111.83 1107.2 1113.92C1107.2 1116.02 1108.9 1117.72 1110.99 1117.72H1194.41C1196.5 1117.72 1198.2 1116.02 1198.2 1113.92C1198.2 1111.83 1196.5 1110.13 1194.41 1110.13H1190.18L1179.88 1068.95C1177.1 1057.71 1167.74 1049.49 1156.49 1047.97V1036.05Z" fill="black"/>
<path d="M1141.23 1125.71C1139.14 1125.76 1137.48 1127.5 1137.53 1129.59C1137.71 1137.16 1144.38 1142.62 1151.82 1142.62C1159.27 1142.62 1165.93 1137.16 1166.11 1129.59C1166.16 1127.5 1164.51 1125.76 1162.41 1125.71C1153.64 1125.5 1146.78 1125.58 1141.23 1125.71Z" fill="black"/>
</g>
</g>
</g>
<g id="Thin-M">
<g id="Solid / Notifications Solid_17">
<g id="Shape_17">
<path fill-rule="evenodd" clip-rule="evenodd" d="M860.49 1036.05C860.49 1033.96 858.793 1032.26 856.699 1032.26C854.605 1032.26 852.907 1033.96 852.907 1036.05V1047.97C841.658 1049.49 832.299 1057.71 829.515 1068.95L819.22 1110.13H814.991C812.897 1110.13 811.199 1111.83 811.199 1113.92C811.199 1116.02 812.897 1117.72 814.991 1117.72H898.408C900.502 1117.72 902.199 1116.02 902.199 1113.92C902.199 1111.83 900.502 1110.13 898.408 1110.13H894.178L883.882 1068.95C881.098 1057.71 871.739 1049.49 860.49 1047.97V1036.05Z" fill="black"/>
<path d="M845.234 1125.71C843.14 1125.76 841.484 1127.5 841.533 1129.59C841.714 1137.16 848.378 1142.62 855.824 1142.62C863.27 1142.62 869.934 1137.16 870.115 1129.59C870.164 1127.5 868.508 1125.76 866.414 1125.71C857.64 1125.5 850.782 1125.58 845.234 1125.71Z" fill="black"/>
</g>
</g>
</g>
<g id="Ultralight-M">
<g id="Solid / Notifications Solid_18">
<g id="Shape_18">
<path fill-rule="evenodd" clip-rule="evenodd" d="M564.49 1036.05C564.49 1033.96 562.793 1032.26 560.699 1032.26C558.605 1032.26 556.907 1033.96 556.907 1036.05V1047.97C545.658 1049.49 536.299 1057.71 533.515 1068.95L523.22 1110.13H518.991C516.897 1110.13 515.199 1111.83 515.199 1113.92C515.199 1116.02 516.897 1117.72 518.991 1117.72H602.408C604.502 1117.72 606.199 1116.02 606.199 1113.92C606.199 1111.83 604.502 1110.13 602.408 1110.13H598.178L587.882 1068.95C585.098 1057.71 575.739 1049.49 564.49 1047.97V1036.05Z" fill="black"/>
<path d="M549.234 1125.71C547.14 1125.76 545.484 1127.5 545.533 1129.59C545.714 1137.16 552.378 1142.62 559.824 1142.62C567.27 1142.62 573.934 1137.16 574.115 1129.59C574.164 1127.5 572.508 1125.76 570.414 1125.71C561.64 1125.5 554.782 1125.58 549.234 1125.71Z" fill="black"/>
</g>
</g>
</g>
<g id="Black-S">
<g id="Solid / Notifications Solid_19">
<g id="Shape_19">
<path fill-rule="evenodd" clip-rule="evenodd" d="M2931.49 621.747C2931.49 620.252 2930.28 619.039 2928.78 619.039C2927.29 619.039 2926.08 620.252 2926.08 621.747V630.263C2918.04 631.351 2911.36 637.218 2909.37 645.247L2902.01 674.663H2898.99C2897.5 674.663 2896.29 675.876 2896.29 677.372C2896.29 678.868 2897.5 680.08 2898.99 680.08H2958.58C2960.07 680.08 2961.29 678.868 2961.29 677.372C2961.29 675.876 2960.07 674.663 2958.58 674.663H2955.56L2948.2 645.247C2946.21 637.218 2939.53 631.351 2931.49 630.263V621.747Z" fill="black"/>
<path d="M2920.6 685.79C2919.1 685.826 2917.92 687.067 2917.95 688.562C2918.08 693.968 2922.84 697.872 2928.16 697.872C2933.48 697.872 2938.24 693.968 2938.37 688.562C2938.4 687.067 2937.22 685.826 2935.72 685.79C2929.46 685.641 2924.56 685.696 2920.6 685.79Z" fill="black"/>
</g>
</g>
</g>
<g id="Heavy-S">
<g id="Solid / Notifications Solid_20">
<g id="Shape_20">
<path fill-rule="evenodd" clip-rule="evenodd" d="M2635.49 621.747C2635.49 620.252 2634.28 619.039 2632.78 619.039C2631.29 619.039 2630.08 620.252 2630.08 621.747V630.263C2622.04 631.351 2615.36 637.218 2613.37 645.247L2606.01 674.663H2602.99C2601.5 674.663 2600.29 675.876 2600.29 677.372C2600.29 678.868 2601.5 680.08 2602.99 680.08H2662.58C2664.07 680.08 2665.29 678.868 2665.29 677.372C2665.29 675.876 2664.07 674.663 2662.58 674.663H2659.56L2652.2 645.247C2650.21 637.218 2643.53 631.351 2635.49 630.263V621.747Z" fill="black"/>
<path d="M2624.6 685.79C2623.1 685.826 2621.92 687.067 2621.95 688.562C2622.08 693.968 2626.84 697.872 2632.16 697.872C2637.48 697.872 2642.24 693.968 2642.37 688.562C2642.4 687.067 2641.22 685.826 2639.72 685.79C2633.46 685.641 2628.56 685.696 2624.6 685.79Z" fill="black"/>
</g>
</g>
</g>
<g id="Bold-S">
<g id="Solid / Notifications Solid_21">
<g id="Shape_21">
<path fill-rule="evenodd" clip-rule="evenodd" d="M2339.49 621.747C2339.49 620.252 2338.28 619.039 2336.78 619.039C2335.29 619.039 2334.08 620.252 2334.08 621.747V630.263C2326.04 631.351 2319.36 637.218 2317.37 645.247L2310.01 674.663H2306.99C2305.5 674.663 2304.29 675.876 2304.29 677.372C2304.29 678.868 2305.5 680.08 2306.99 680.08H2366.58C2368.07 680.08 2369.29 678.868 2369.29 677.372C2369.29 675.876 2368.07 674.663 2366.58 674.663H2363.56L2356.2 645.247C2354.21 637.218 2347.53 631.351 2339.49 630.263V621.747Z" fill="black"/>
<path d="M2328.6 685.79C2327.1 685.826 2325.92 687.067 2325.95 688.562C2326.08 693.968 2330.84 697.872 2336.16 697.872C2341.48 697.872 2346.24 693.968 2346.37 688.562C2346.4 687.067 2345.22 685.826 2343.72 685.79C2337.46 685.641 2332.56 685.696 2328.6 685.79Z" fill="black"/>
</g>
</g>
</g>
<g id="Semibold-S">
<g id="Solid / Notifications Solid_22">
<g id="Shape_22">
<path fill-rule="evenodd" clip-rule="evenodd" d="M2043.49 621.747C2043.49 620.252 2042.28 619.039 2040.78 619.039C2039.29 619.039 2038.08 620.252 2038.08 621.747V630.263C2030.04 631.351 2023.36 637.218 2021.37 645.247L2014.01 674.663H2010.99C2009.5 674.663 2008.29 675.876 2008.29 677.372C2008.29 678.868 2009.5 680.08 2010.99 680.08H2070.58C2072.07 680.08 2073.29 678.868 2073.29 677.372C2073.29 675.876 2072.07 674.663 2070.58 674.663H2067.56L2060.2 645.247C2058.21 637.218 2051.53 631.351 2043.49 630.263V621.747Z" fill="black"/>
<path d="M2032.6 685.79C2031.1 685.826 2029.92 687.067 2029.95 688.562C2030.08 693.968 2034.84 697.872 2040.16 697.872C2045.48 697.872 2050.24 693.968 2050.37 688.562C2050.4 687.067 2049.22 685.826 2047.72 685.79C2041.46 685.641 2036.56 685.696 2032.6 685.79Z" fill="black"/>
</g>
</g>
</g>
<g id="Medium-S">
<g id="Solid / Notifications Solid_23">
<g id="Shape_23">
<path fill-rule="evenodd" clip-rule="evenodd" d="M1747.49 621.747C1747.49 620.252 1746.28 619.039 1744.78 619.039C1743.29 619.039 1742.08 620.252 1742.08 621.747V630.263C1734.04 631.351 1727.36 637.218 1725.37 645.247L1718.01 674.663H1714.99C1713.5 674.663 1712.29 675.876 1712.29 677.372C1712.29 678.868 1713.5 680.08 1714.99 680.08H1774.58C1776.07 680.08 1777.29 678.868 1777.29 677.372C1777.29 675.876 1776.07 674.663 1774.58 674.663H1771.56L1764.2 645.247C1762.21 637.218 1755.53 631.351 1747.49 630.263V621.747Z" fill="black"/>
<path d="M1736.6 685.79C1735.1 685.826 1733.92 687.067 1733.95 688.562C1734.08 693.968 1738.84 697.872 1744.16 697.872C1749.48 697.872 1754.24 693.968 1754.37 688.562C1754.4 687.067 1753.22 685.826 1751.72 685.79C1745.46 685.641 1740.56 685.696 1736.6 685.79Z" fill="black"/>
</g>
</g>
</g>
<g id="Regular-S">
<g id="Solid / Notifications Solid_24">
<g id="Shape_24">
<path fill-rule="evenodd" clip-rule="evenodd" d="M1451.49 621.747C1451.49 620.252 1450.28 619.039 1448.78 619.039C1447.29 619.039 1446.08 620.252 1446.08 621.747V630.263C1438.04 631.351 1431.36 637.218 1429.37 645.247L1422.01 674.663H1418.99C1417.5 674.663 1416.29 675.876 1416.29 677.372C1416.29 678.868 1417.5 680.08 1418.99 680.08H1478.58C1480.07 680.08 1481.29 678.868 1481.29 677.372C1481.29 675.876 1480.07 674.663 1478.58 674.663H1475.56L1468.2 645.247C1466.21 637.218 1459.53 631.351 1451.49 630.263V621.747Z" fill="black"/>
<path d="M1440.6 685.79C1439.1 685.826 1437.92 687.067 1437.95 688.562C1438.08 693.968 1442.84 697.872 1448.16 697.872C1453.48 697.872 1458.24 693.968 1458.37 688.562C1458.4 687.067 1457.22 685.826 1455.72 685.79C1449.46 685.641 1444.56 685.696 1440.6 685.79Z" fill="black"/>
</g>
</g>
</g>
<g id="Light-S">
<g id="Solid / Notifications Solid_25">
<g id="Shape_25">
<path fill-rule="evenodd" clip-rule="evenodd" d="M1155.49 621.747C1155.49 620.252 1154.28 619.039 1152.78 619.039C1151.29 619.039 1150.08 620.252 1150.08 621.747V630.263C1142.04 631.351 1135.36 637.218 1133.37 645.247L1126.01 674.663H1122.99C1121.5 674.663 1120.29 675.876 1120.29 677.372C1120.29 678.868 1121.5 680.08 1122.99 680.08H1182.58C1184.07 680.08 1185.29 678.868 1185.29 677.372C1185.29 675.876 1184.07 674.663 1182.58 674.663H1179.56L1172.2 645.247C1170.21 637.218 1163.53 631.351 1155.49 630.263V621.747Z" fill="black"/>
<path d="M1144.6 685.79C1143.1 685.826 1141.92 687.067 1141.95 688.562C1142.08 693.968 1146.84 697.872 1152.16 697.872C1157.48 697.872 1162.24 693.968 1162.37 688.562C1162.4 687.067 1161.22 685.826 1159.72 685.79C1153.46 685.641 1148.56 685.696 1144.6 685.79Z" fill="black"/>
</g>
</g>
</g>
<g id="Thin-S">
<g id="Solid / Notifications Solid_26">
<g id="Shape_26">
<path fill-rule="evenodd" clip-rule="evenodd" d="M859.493 621.747C859.493 620.252 858.281 619.039 856.785 619.039C855.289 619.039 854.076 620.252 854.076 621.747V630.263C846.042 631.351 839.357 637.218 837.368 645.247L830.014 674.663H826.993C825.498 674.663 824.285 675.876 824.285 677.372C824.285 678.868 825.498 680.08 826.993 680.08H886.577C888.073 680.08 889.285 678.868 889.285 677.372C889.285 675.876 888.073 674.663 886.577 674.663H883.555L876.201 645.247C874.213 637.218 867.528 631.351 859.493 630.263V621.747Z" fill="black"/>
<path d="M848.596 685.79C847.1 685.826 845.917 687.067 845.952 688.562C846.081 693.968 850.842 697.872 856.16 697.872C861.478 697.872 866.239 693.968 866.368 688.562C866.403 687.067 865.22 685.826 863.724 685.79C857.457 685.641 852.559 685.696 848.596 685.79Z" fill="black"/>
</g>
</g>
</g>
<g id="Ultralight-S">
<g id="Solid / Notifications Solid_27">
<g id="Shape_27">
<path fill-rule="evenodd" clip-rule="evenodd" d="M563.493 621.747C563.493 620.252 562.281 619.039 560.785 619.039C559.289 619.039 558.076 620.252 558.076 621.747V630.263C550.042 631.351 543.357 637.218 541.368 645.247L534.014 674.663H530.993C529.498 674.663 528.285 675.876 528.285 677.372C528.285 678.868 529.498 680.08 530.993 680.08H590.577C592.073 680.08 593.285 678.868 593.285 677.372C593.285 675.876 592.073 674.663 590.577 674.663H587.555L580.201 645.247C578.213 637.218 571.528 631.351 563.493 630.263V621.747Z" fill="black"/>
<path d="M552.596 685.79C551.1 685.826 549.917 687.067 549.952 688.562C550.081 693.968 554.842 697.872 560.16 697.872C565.478 697.872 570.239 693.968 570.368 688.562C570.403 687.067 569.22 685.826 567.724 685.79C561.457 685.641 556.559 685.696 552.596 685.79Z" fill="black"/>
</g>
</g>
</g>
</g>
</g>
<defs>
<clipPath id="clip0_805_27002">
<rect width="3300" height="2200" fill="white"/>
</clipPath>
</defs>
</svg>
