<svg width="3300" height="2200" viewBox="0 0 3300 2200" fill="none" xmlns="http://www.w3.org/2000/svg">
<rect width="3300" height="2200" fill="#E5E5E5"/>
<g id="System / Outline / Upload" clip-path="url(#clip0_805_27002)">
<g id="Notes">
<path id="artboard" d="M3300 0H0V2200H3300V0Z" fill="white"/>
<path id="Vector" d="M263 292H3036" stroke="black" stroke-width="0.5"/>
<text id="Weight/Scale Variations" fill="black" xml:space="preserve" style="white-space: pre" font-family="Roboto" font-size="12" letter-spacing="0em"><tspan x="263" y="321.102">Weight/Scale Variations</tspan></text>
<text id="Ultralight" fill="black" xml:space="preserve" style="white-space: pre" font-family="Roboto" font-size="12" letter-spacing="0em"><tspan x="535.211" y="321.102">Ultralight</tspan></text>
<text id="Thin" fill="black" xml:space="preserve" style="white-space: pre" font-family="Roboto" font-size="12" letter-spacing="0em"><tspan x="844.422" y="321.102">Thin</tspan></text>
<text id="Light" fill="black" xml:space="preserve" style="white-space: pre" font-family="Roboto" font-size="12" letter-spacing="0em"><tspan x="1139.63" y="321.102">Light</tspan></text>
<text id="Regular" fill="black" xml:space="preserve" style="white-space: pre" font-family="Roboto" font-size="12" letter-spacing="0em"><tspan x="1429.34" y="321.102">Regular</tspan></text>
<text id="Medium" fill="black" xml:space="preserve" style="white-space: pre" font-family="Roboto" font-size="12" letter-spacing="0em"><tspan x="1724.56" y="321.102">Medium</tspan></text>
<text id="Semibold" fill="black" xml:space="preserve" style="white-space: pre" font-family="Roboto" font-size="12" letter-spacing="0em"><tspan x="2017.77" y="321.102">Semibold</tspan></text>
<text id="Bold" fill="black" xml:space="preserve" style="white-space: pre" font-family="Roboto" font-size="12" letter-spacing="0em"><tspan x="2327.48" y="321.102">Bold</tspan></text>
<text id="Heavy" fill="black" xml:space="preserve" style="white-space: pre" font-family="Roboto" font-size="12" letter-spacing="0em"><tspan x="2620.19" y="321.102">Heavy</tspan></text>
<text id="Black" fill="black" xml:space="preserve" style="white-space: pre" font-family="Roboto" font-size="12" letter-spacing="0em"><tspan x="2918.4" y="321.102">Black</tspan></text>
<path id="Vector_2" d="M263 1903H3036" stroke="black" stroke-width="0.5"/>
<g id="Group">
<path id="Vector_3" d="M272.248 1933.83C276.555 1933.83 280.139 1930.26 280.139 1925.95C280.139 1921.64 276.545 1918.07 272.238 1918.07C267.941 1918.07 264.367 1921.64 264.367 1925.95C264.367 1930.26 267.951 1933.83 272.248 1933.83ZM272.248 1932.35C268.703 1932.35 265.871 1929.51 265.871 1925.95C265.871 1922.4 268.693 1919.55 272.238 1919.55C275.793 1919.55 278.635 1922.4 278.644 1925.95C278.654 1929.51 275.803 1932.35 272.248 1932.35ZM272.229 1929.57C272.697 1929.57 272.971 1929.26 272.971 1928.74V1926.68H275.197C275.695 1926.68 276.037 1926.43 276.037 1925.96C276.037 1925.48 275.715 1925.22 275.197 1925.22H272.971V1922.99C272.971 1922.47 272.697 1922.15 272.229 1922.15C271.76 1922.15 271.506 1922.49 271.506 1922.99V1925.22H269.299C268.781 1925.22 268.449 1925.48 268.449 1925.96C268.449 1926.43 268.801 1926.68 269.299 1926.68H271.506V1928.74C271.506 1929.24 271.76 1929.57 272.229 1929.57Z" fill="black"/>
</g>
<g id="Group_2">
<path id="Vector_4" d="M293.215 1935.91C298.664 1935.91 303.176 1931.4 303.176 1925.95C303.176 1920.51 298.654 1915.99 293.205 1915.99C287.766 1915.99 283.254 1920.51 283.254 1925.95C283.254 1931.4 287.775 1935.91 293.215 1935.91ZM293.215 1934.25C288.605 1934.25 284.924 1930.56 284.924 1925.95C284.924 1921.35 288.596 1917.65 293.205 1917.65C297.814 1917.65 301.506 1921.35 301.516 1925.95C301.525 1930.56 297.824 1934.25 293.215 1934.25ZM293.195 1930.59C293.713 1930.59 294.025 1930.23 294.025 1929.66V1926.77H297.082C297.629 1926.77 298.01 1926.49 298.01 1925.97C298.01 1925.44 297.648 1925.14 297.082 1925.14H294.025V1922.07C294.025 1921.5 293.713 1921.14 293.195 1921.14C292.678 1921.14 292.385 1921.52 292.385 1922.07V1925.14H289.338C288.771 1925.14 288.4 1925.44 288.4 1925.97C288.4 1926.49 288.791 1926.77 289.338 1926.77H292.385V1929.66C292.385 1930.21 292.678 1930.59 293.195 1930.59Z" fill="black"/>
</g>
<g id="Group_3">
<path id="Vector_5" d="M319.895 1938.67C326.857 1938.67 332.619 1932.92 332.619 1925.96C332.619 1918.99 326.848 1913.24 319.885 1913.24C312.932 1913.24 307.18 1918.99 307.18 1925.96C307.18 1932.92 312.941 1938.67 319.895 1938.67ZM319.895 1936.86C313.859 1936.86 309.006 1931.99 309.006 1925.96C309.006 1919.92 313.85 1915.06 319.885 1915.06C325.93 1915.06 330.783 1919.92 330.793 1925.96C330.803 1931.99 325.939 1936.86 319.895 1936.86ZM319.875 1931.93C320.441 1931.93 320.793 1931.54 320.793 1930.94V1926.87H325.031C325.617 1926.87 326.037 1926.53 326.037 1925.98C326.037 1925.4 325.647 1925.06 325.031 1925.06H320.793V1920.81C320.793 1920.2 320.441 1919.8 319.875 1919.8C319.309 1919.8 318.986 1920.21 318.986 1920.81V1925.06H314.758C314.143 1925.06 313.732 1925.4 313.732 1925.98C313.732 1926.53 314.162 1926.87 314.758 1926.87H318.986V1930.94C318.986 1931.52 319.309 1931.93 319.875 1931.93Z" fill="black"/>
</g>
<text id="Design Variations" fill="black" xml:space="preserve" style="white-space: pre" font-family="Roboto" font-size="12" letter-spacing="0em"><tspan x="263" y="1952.1">Design Variations</tspan></text>
<text id="Symbols are supported in up to nine weights and three scales." fill="black" xml:space="preserve" style="white-space: pre" font-family="Roboto" font-size="12" letter-spacing="0em"><tspan x="263" y="1970.1">Symbols are supported in up to nine weights and three scales.</tspan></text>
<text id="For optimal layout with text and other symbols, vertically align" fill="black" xml:space="preserve" style="white-space: pre" font-family="Roboto" font-size="12" letter-spacing="0em"><tspan x="263" y="1988.1">For optimal layout with text and other symbols, vertically align</tspan></text>
<text id="symbols with the adjacent text." fill="black" xml:space="preserve" style="white-space: pre" font-family="Roboto" font-size="12" letter-spacing="0em"><tspan x="263" y="2006.1">symbols with the adjacent text.</tspan></text>
<path id="Vector_6" opacity="0.4" d="M779 1919H776V1933H779V1919Z" fill="#00AEEF"/>
<g id="Group_4">
<path id="Vector_7" d="M789.525 1933H791.371L786.176 1918.91H784.437L779.242 1933H781.088L782.504 1928.96H788.109L789.525 1933ZM785.277 1921.04H785.336L787.592 1927.47H783.021L785.277 1921.04Z" fill="black"/>
</g>
<path id="Vector_8" opacity="0.4" d="M794.617 1919H791.617V1933H794.617V1919Z" fill="#00AEEF"/>
<text id="Margins" fill="black" xml:space="preserve" style="white-space: pre" font-family="Roboto" font-size="12" letter-spacing="0em"><tspan x="776" y="1952.1">Margins</tspan></text>
<text id="Leading and trailing margins on the left and right side of each symbol" fill="black" xml:space="preserve" style="white-space: pre" font-family="Roboto" font-size="12" letter-spacing="0em"><tspan x="776" y="1970.1">Leading and trailing margins on the left and right side of each symbol</tspan></text>
<text id="can be adjusted by modifying the width of the blue rectangles." fill="black" xml:space="preserve" style="white-space: pre" font-family="Roboto" font-size="12" letter-spacing="0em"><tspan x="776" y="1988.1">can be adjusted by modifying the width of the blue rectangles.</tspan></text>
<text id="Modifications are automatically applied proportionally to all" fill="black" xml:space="preserve" style="white-space: pre" font-family="Roboto" font-size="12" letter-spacing="0em"><tspan x="776" y="2006.1">Modifications are automatically applied proportionally to all</tspan></text>
<text id="scales and weights." fill="black" xml:space="preserve" style="white-space: pre" font-family="Roboto" font-size="12" letter-spacing="0em"><tspan x="776" y="2024.1">scales and weights.</tspan></text>
<g id="Group_5">
<path id="Vector_9" d="M1291.83 1936.11L1293.37 1937.66C1294.22 1938.49 1295.19 1938.42 1296.06 1937.46L1306.27 1926.34C1306.7 1926.63 1307.1 1926.62 1307.56 1926.52L1308.61 1926.31L1309.3 1927L1309.25 1927.52C1309.19 1928.05 1309.35 1928.47 1309.85 1928.97L1310.66 1929.78C1311.17 1930.28 1311.82 1930.31 1312.3 1929.83L1315.55 1926.58C1316.03 1926.1 1316.01 1925.45 1315.5 1924.94L1314.68 1924.12C1314.19 1923.62 1313.77 1923.45 1313.24 1923.53L1312.71 1923.58L1312.06 1922.92L1312.34 1921.78C1312.49 1921.21 1312.34 1920.74 1311.71 1920.14L1309.3 1917.75C1305.76 1914.22 1301.23 1914.33 1298.11 1917.46C1297.69 1917.89 1297.64 1918.48 1297.92 1918.91C1298.15 1919.28 1298.63 1919.5 1299.27 1919.34C1300.79 1918.96 1302.3 1919.07 1303.78 1920.08L1303.16 1921.66C1302.93 1922.25 1302.94 1922.73 1303.18 1923.16L1292.02 1933.44C1291.08 1934.31 1290.97 1935.25 1291.83 1936.11ZM1299.67 1917.85C1302.34 1915.86 1305.65 1916.17 1308.05 1918.58L1310.68 1921.19C1310.91 1921.43 1310.94 1921.61 1310.88 1921.91L1310.5 1923.47L1312.08 1925.04L1313.04 1924.95C1313.33 1924.92 1313.41 1924.94 1313.64 1925.17L1314.26 1925.79L1311.51 1928.54L1310.88 1927.92C1310.66 1927.7 1310.64 1927.6 1310.67 1927.32L1310.76 1926.36L1309.19 1924.8L1307.57 1925.11C1307.29 1925.17 1307.14 1925.17 1306.91 1924.92L1304.73 1922.75C1304.51 1922.51 1304.48 1922.37 1304.61 1922.05L1305.55 1919.78C1303.95 1918.24 1301.84 1917.39 1299.8 1918.05C1299.71 1918.08 1299.64 1918.06 1299.61 1918.02C1299.59 1917.97 1299.59 1917.92 1299.67 1917.85ZM1293.1 1935.41C1292.61 1934.91 1292.79 1934.61 1293.12 1934.31L1304.08 1924.19L1305.31 1925.42L1295.15 1936.35C1294.85 1936.68 1294.47 1936.78 1294.07 1936.38L1293.1 1935.41Z" fill="black"/>
</g>
<text id="Exporting" fill="black" xml:space="preserve" style="white-space: pre" font-family="Roboto" font-size="12" letter-spacing="0em"><tspan x="1289" y="1952.1">Exporting</tspan></text>
<text id="Symbols should be outlined when exporting to ensure the" fill="black" xml:space="preserve" style="white-space: pre" font-family="Roboto" font-size="12" letter-spacing="0em"><tspan x="1289" y="1970.1">Symbols should be outlined when exporting to ensure the</tspan></text>
<text id="design is preserved when submitting to Xcode." fill="black" xml:space="preserve" style="white-space: pre" font-family="Roboto" font-size="12" letter-spacing="0em"><tspan x="1289" y="1988.1">design is preserved when submitting to Xcode.</tspan></text>
<text id="template-version" fill="black" xml:space="preserve" style="white-space: pre" font-family="Roboto" font-size="12" letter-spacing="0em"><tspan x="2958" y="1932.1">Template v.1.0</tspan></text>
<text id="Generated from pencil.circle" fill="black" xml:space="preserve" style="white-space: pre" font-family="Roboto" font-size="12" letter-spacing="0em"><tspan x="2885" y="1950.1">Generated from pencil.circle</tspan></text>
<text id="Typeset at 100 points" fill="black" xml:space="preserve" style="white-space: pre" font-family="Roboto" font-size="12" letter-spacing="0em"><tspan x="2921" y="1968.1">Typeset at 100 points</tspan></text>
<text id="Small" fill="black" xml:space="preserve" style="white-space: pre" font-family="Roboto" font-size="12" letter-spacing="0em"><tspan x="263" y="725.102">Small</tspan></text>
<text id="Medium_2" fill="black" xml:space="preserve" style="white-space: pre" font-family="Roboto" font-size="12" letter-spacing="0em"><tspan x="263" y="1155.1">Medium</tspan></text>
<text id="Large" fill="black" xml:space="preserve" style="white-space: pre" font-family="Roboto" font-size="12" letter-spacing="0em"><tspan x="263" y="1585.1">Large</tspan></text>
</g>
<g id="Guides">
<g id="H-reference">
<path id="Vector_10" d="M393.932 695.998H396.666L369.566 625.539H367.076L339.977 695.998H342.662L351.94 671.535H384.703L393.932 695.998ZM368.199 628.908H368.443L383.824 669.289H352.818L368.199 628.908Z" fill="#27AAE1"/>
</g>
<path id="Baseline-S" d="M263 696H3036" stroke="#27AAE1" stroke-width="0.577"/>
<path id="Capline-S" d="M263 626H3036" stroke="#27AAE1" stroke-width="0.577"/>
<g id="H-reference_2">
<path id="Vector_11" d="M393.932 1126H396.666L369.566 1055.54H367.076L339.977 1126H342.662L351.94 1101.54H384.703L393.932 1126ZM368.199 1058.91H368.443L383.824 1099.29H352.818L368.199 1058.91Z" fill="#27AAE1"/>
</g>
<path id="Baseline-M" d="M263 1126H3036" stroke="#27AAE1" stroke-width="0.577"/>
<path id="Capline-M" d="M263 1056H3036" stroke="#27AAE1" stroke-width="0.577"/>
<g id="H-reference_3">
<path id="Vector_12" d="M393.932 1556H396.666L369.566 1485.54H367.076L339.977 1556H342.662L351.94 1531.54H384.703L393.932 1556ZM368.199 1488.91H368.443L383.824 1529.29H352.818L368.199 1488.91Z" fill="#27AAE1"/>
</g>
<g id="Group 1">
<path id="Baseline-L" d="M263 1556H3036" stroke="#27AAE1" stroke-width="0.577"/>
<path id="Capline-L" d="M263 1486H3036" stroke="#27AAE1" stroke-width="0.577"/>
</g>
<path id="left-margin" opacity="0.4" d="M1404.04 1030.79H1395.3V1150.12H1404.04V1030.79Z" fill="#00AEEF"/>
<path id="right-margin" opacity="0.4" d="M1502.39 1030.79H1493.65V1150.12H1502.39V1030.79Z" fill="#00AEEF"/>
</g>
<g id="Symbols">
<g id="Black-L">
<g id="Outline / Upload Outline">
<g id="Shape">
<path d="M2876.5 1572.37C2873.8 1572.37 2871.62 1574.56 2871.62 1577.25C2871.62 1579.94 2873.8 1582.12 2876.5 1582.12H2981.5C2984.19 1582.12 2986.37 1579.94 2986.37 1577.25C2986.37 1574.56 2984.19 1572.37 2981.5 1572.37H2876.5Z" fill="black"/>
<path d="M2885.63 1503.08C2885.63 1504.43 2886.16 1505.7 2887.21 1506.68C2889.23 1508.48 2892.31 1508.33 2894.11 1506.38L2924.12 1477.68L2924.12 1552.59C2924.12 1555.29 2926.31 1557.47 2929 1557.47C2931.69 1557.47 2933.87 1555.29 2933.87 1552.59V1478.15L2961.23 1506.98C2963.03 1509 2966.11 1509.08 2968.13 1507.28C2970.08 1505.48 2970.23 1502.4 2968.43 1500.38L2932.9 1462.74C2930.8 1460.42 2927.2 1460.42 2925.1 1462.74L2886.91 1499.78C2886.01 1500.75 2885.63 1501.88 2885.63 1503.08Z" fill="black"/>
</g>
</g>
</g>
<g id="Heavy-L">
<g id="Outline / Upload Outline_2">
<g id="Shape_2">
<path d="M2580.5 1572.37C2577.8 1572.37 2575.62 1574.56 2575.62 1577.25C2575.62 1579.94 2577.8 1582.12 2580.5 1582.12H2685.5C2688.19 1582.12 2690.37 1579.94 2690.37 1577.25C2690.37 1574.56 2688.19 1572.37 2685.5 1572.37H2580.5Z" fill="black"/>
<path d="M2589.63 1503.08C2589.63 1504.43 2590.16 1505.7 2591.21 1506.68C2593.23 1508.48 2596.31 1508.33 2598.11 1506.38L2628.12 1477.68L2628.12 1552.59C2628.12 1555.29 2630.31 1557.47 2633 1557.47C2635.69 1557.47 2637.87 1555.29 2637.87 1552.59V1478.15L2665.23 1506.98C2667.03 1509 2670.11 1509.08 2672.13 1507.28C2674.08 1505.48 2674.23 1502.4 2672.43 1500.38L2636.9 1462.74C2634.8 1460.42 2631.2 1460.42 2629.1 1462.74L2590.91 1499.78C2590.01 1500.75 2589.63 1501.88 2589.63 1503.08Z" fill="black"/>
</g>
</g>
</g>
<g id="Bold-L">
<g id="Outline / Upload Outline_3">
<g id="Shape_3">
<path d="M2284.51 1572.37C2281.82 1572.37 2279.64 1574.56 2279.64 1577.25C2279.64 1579.94 2281.82 1582.12 2284.51 1582.12H2389.51C2392.2 1582.12 2394.39 1579.94 2394.39 1577.25C2394.39 1574.56 2392.2 1572.37 2389.51 1572.37H2284.51Z" fill="black"/>
<path d="M2293.65 1503.08C2293.65 1504.43 2294.17 1505.7 2295.22 1506.68C2297.25 1508.48 2300.32 1508.33 2302.12 1506.38L2332.14 1477.68L2332.14 1552.59C2332.14 1555.29 2334.32 1557.47 2337.02 1557.47C2339.71 1557.47 2341.89 1555.29 2341.89 1552.59V1478.15L2369.25 1506.98C2371.05 1509 2374.12 1509.08 2376.15 1507.28C2378.1 1505.48 2378.25 1502.4 2376.45 1500.38L2340.92 1462.74C2338.82 1460.42 2335.22 1460.42 2333.12 1462.74L2294.92 1499.78C2294.02 1500.75 2293.65 1501.88 2293.65 1503.08Z" fill="black"/>
</g>
</g>
</g>
<g id="Semibold-L">
<g id="Outline / Upload Outline_4">
<g id="Shape_4">
<path d="M1988.51 1572.37C1985.82 1572.37 1983.64 1574.56 1983.64 1577.25C1983.64 1579.94 1985.82 1582.12 1988.51 1582.12H2093.51C2096.2 1582.12 2098.39 1579.94 2098.39 1577.25C2098.39 1574.56 2096.2 1572.37 2093.51 1572.37H1988.51Z" fill="black"/>
<path d="M1997.65 1503.08C1997.65 1504.43 1998.17 1505.7 1999.22 1506.68C2001.25 1508.48 2004.32 1508.33 2006.12 1506.38L2036.14 1477.68L2036.14 1552.59C2036.14 1555.29 2038.32 1557.47 2041.02 1557.47C2043.71 1557.47 2045.89 1555.29 2045.89 1552.59V1478.15L2073.25 1506.98C2075.05 1509 2078.12 1509.08 2080.15 1507.28C2082.1 1505.48 2082.25 1502.4 2080.45 1500.38L2044.92 1462.74C2042.82 1460.42 2039.22 1460.42 2037.12 1462.74L1998.92 1499.78C1998.02 1500.75 1997.65 1501.88 1997.65 1503.08Z" fill="black"/>
</g>
</g>
</g>
<g id="Medium-L">
<g id="Outline / Upload Outline_5">
<g id="Shape_5">
<path d="M1692.51 1572.37C1689.82 1572.37 1687.64 1574.56 1687.64 1577.25C1687.64 1579.94 1689.82 1582.12 1692.51 1582.12H1797.51C1800.2 1582.12 1802.39 1579.94 1802.39 1577.25C1802.39 1574.56 1800.2 1572.37 1797.51 1572.37H1692.51Z" fill="black"/>
<path d="M1701.65 1503.08C1701.65 1504.43 1702.17 1505.7 1703.22 1506.68C1705.25 1508.48 1708.32 1508.33 1710.12 1506.38L1740.14 1477.68L1740.14 1552.59C1740.14 1555.29 1742.32 1557.47 1745.02 1557.47C1747.71 1557.47 1749.89 1555.29 1749.89 1552.59V1478.15L1777.25 1506.98C1779.05 1509 1782.12 1509.08 1784.15 1507.28C1786.1 1505.48 1786.25 1502.4 1784.45 1500.38L1748.92 1462.74C1746.82 1460.42 1743.22 1460.42 1741.12 1462.74L1702.92 1499.78C1702.02 1500.75 1701.65 1501.88 1701.65 1503.08Z" fill="black"/>
</g>
</g>
</g>
<g id="Regular-L">
<g id="Outline / Upload Outline_6">
<g id="Shape_6">
<path d="M1396.51 1572.37C1393.82 1572.37 1391.64 1574.56 1391.64 1577.25C1391.64 1579.94 1393.82 1582.12 1396.51 1582.12H1501.51C1504.2 1582.12 1506.39 1579.94 1506.39 1577.25C1506.39 1574.56 1504.2 1572.37 1501.51 1572.37H1396.51Z" fill="black"/>
<path d="M1405.65 1503.08C1405.65 1504.43 1406.17 1505.7 1407.22 1506.68C1409.25 1508.48 1412.32 1508.33 1414.12 1506.38L1444.14 1477.68L1444.14 1552.59C1444.14 1555.29 1446.32 1557.47 1449.02 1557.47C1451.71 1557.47 1453.89 1555.29 1453.89 1552.59V1478.15L1481.25 1506.98C1483.05 1509 1486.12 1509.08 1488.15 1507.28C1490.1 1505.48 1490.25 1502.4 1488.45 1500.38L1452.92 1462.74C1450.82 1460.42 1447.22 1460.42 1445.12 1462.74L1406.92 1499.78C1406.02 1500.75 1405.65 1501.88 1405.65 1503.08Z" fill="black"/>
</g>
</g>
</g>
<g id="Light-L">
<g id="Outline / Upload Outline_7">
<g id="Shape_7">
<path d="M1100.51 1572.37C1097.82 1572.37 1095.64 1574.56 1095.64 1577.25C1095.64 1579.94 1097.82 1582.12 1100.51 1582.12H1205.51C1208.2 1582.12 1210.39 1579.94 1210.39 1577.25C1210.39 1574.56 1208.2 1572.37 1205.51 1572.37H1100.51Z" fill="black"/>
<path d="M1109.65 1503.08C1109.65 1504.43 1110.17 1505.7 1111.22 1506.68C1113.25 1508.48 1116.32 1508.33 1118.12 1506.38L1148.14 1477.68L1148.14 1552.59C1148.14 1555.29 1150.32 1557.47 1153.02 1557.47C1155.71 1557.47 1157.89 1555.29 1157.89 1552.59V1478.15L1185.25 1506.98C1187.05 1509 1190.12 1509.08 1192.15 1507.28C1194.1 1505.48 1194.25 1502.4 1192.45 1500.38L1156.92 1462.74C1154.82 1460.42 1151.22 1460.42 1149.12 1462.74L1110.92 1499.78C1110.02 1500.75 1109.65 1501.88 1109.65 1503.08Z" fill="black"/>
</g>
</g>
</g>
<g id="Thin-L">
<g id="Outline / Upload Outline_8">
<g id="Shape_8">
<path d="M804.512 1572.37C801.819 1572.37 799.637 1574.56 799.637 1577.25C799.637 1579.94 801.819 1582.12 804.512 1582.12H909.512C912.204 1582.12 914.387 1579.94 914.387 1577.25C914.387 1574.56 912.204 1572.37 909.512 1572.37H804.512Z" fill="black"/>
<path d="M813.649 1503.08C813.649 1504.43 814.174 1505.7 815.224 1506.68C817.249 1508.48 820.324 1508.33 822.124 1506.38L852.141 1477.68L852.141 1552.59C852.141 1555.29 854.323 1557.47 857.016 1557.47C859.708 1557.47 861.891 1555.29 861.891 1552.59V1478.15L889.249 1506.98C891.049 1509 894.124 1509.08 896.149 1507.28C898.099 1505.48 898.249 1502.4 896.449 1500.38L860.916 1462.74C858.816 1460.42 855.216 1460.42 853.116 1462.74L814.924 1499.78C814.024 1500.75 813.649 1501.88 813.649 1503.08Z" fill="black"/>
</g>
</g>
</g>
<g id="Ultralight-L">
<g id="Outline / Upload Outline_9">
<g id="Shape_9">
<path d="M508.512 1572.37C505.819 1572.37 503.637 1574.56 503.637 1577.25C503.637 1579.94 505.819 1582.12 508.512 1582.12H613.512C616.204 1582.12 618.387 1579.94 618.387 1577.25C618.387 1574.56 616.204 1572.37 613.512 1572.37H508.512Z" fill="black"/>
<path d="M517.649 1503.08C517.649 1504.43 518.174 1505.7 519.224 1506.68C521.249 1508.48 524.324 1508.33 526.124 1506.38L556.141 1477.68L556.141 1552.59C556.141 1555.29 558.323 1557.47 561.016 1557.47C563.708 1557.47 565.891 1555.29 565.891 1552.59V1478.15L593.249 1506.98C595.049 1509 598.124 1509.08 600.149 1507.28C602.099 1505.48 602.249 1502.4 600.449 1500.38L564.916 1462.74C562.816 1460.42 559.216 1460.42 557.116 1462.74L518.924 1499.78C518.024 1500.75 517.649 1501.88 517.649 1503.08Z" fill="black"/>
</g>
</g>
</g>
<g id="Black-M">
<g id="Outline / Upload Outline_10">
<g id="Shape_10">
<path d="M2888.16 1130.96C2886.07 1130.96 2884.37 1132.65 2884.37 1134.75C2884.37 1136.84 2886.07 1138.54 2888.16 1138.54H2969.83C2971.93 1138.54 2973.62 1136.84 2973.62 1134.75C2973.62 1132.65 2971.93 1130.96 2969.83 1130.96H2888.16Z" fill="black"/>
<path d="M2895.27 1077.06C2895.27 1078.11 2895.68 1079.1 2896.5 1079.86C2898.07 1081.26 2900.46 1081.14 2901.86 1079.63L2925.21 1057.31V1115.57C2925.21 1117.67 2926.91 1119.36 2929 1119.36C2931.1 1119.36 2932.79 1117.67 2932.79 1115.57V1057.67L2954.07 1080.09C2955.47 1081.67 2957.86 1081.73 2959.44 1080.33C2960.96 1078.93 2961.07 1076.53 2959.67 1074.96L2932.03 1045.69C2930.4 1043.88 2927.6 1043.88 2925.97 1045.69L2896.26 1074.49C2895.56 1075.25 2895.27 1076.13 2895.27 1077.06Z" fill="black"/>
</g>
</g>
</g>
<g id="Heavy-M">
<g id="Outline / Upload Outline_11">
<g id="Shape_11">
<path d="M2592.16 1130.96C2590.07 1130.96 2588.37 1132.65 2588.37 1134.75C2588.37 1136.84 2590.07 1138.54 2592.16 1138.54H2673.83C2675.93 1138.54 2677.62 1136.84 2677.62 1134.75C2677.62 1132.65 2675.93 1130.96 2673.83 1130.96H2592.16Z" fill="black"/>
<path d="M2599.27 1077.06C2599.27 1078.11 2599.68 1079.1 2600.5 1079.86C2602.07 1081.26 2604.46 1081.14 2605.86 1079.63L2629.21 1057.31V1115.57C2629.21 1117.67 2630.91 1119.36 2633 1119.36C2635.1 1119.36 2636.79 1117.67 2636.79 1115.57V1057.67L2658.07 1080.09C2659.47 1081.67 2661.86 1081.73 2663.44 1080.33C2664.96 1078.93 2665.07 1076.53 2663.67 1074.96L2636.03 1045.69C2634.4 1043.88 2631.6 1043.88 2629.97 1045.69L2600.26 1074.49C2599.56 1075.25 2599.27 1076.13 2599.27 1077.06Z" fill="black"/>
</g>
</g>
</g>
<g id="Bold-M">
<g id="Outline / Upload Outline_12">
<g id="Shape_12">
<path d="M2296.17 1130.96C2294.08 1130.96 2292.38 1132.65 2292.38 1134.75C2292.38 1136.84 2294.08 1138.54 2296.17 1138.54H2377.84C2379.94 1138.54 2381.63 1136.84 2381.63 1134.75C2381.63 1132.65 2379.94 1130.96 2377.84 1130.96H2296.17Z" fill="black"/>
<path d="M2303.28 1077.06C2303.28 1078.11 2303.69 1079.1 2304.51 1079.86C2306.08 1081.26 2308.47 1081.14 2309.87 1079.63L2333.22 1057.31V1115.57C2333.22 1117.67 2334.92 1119.36 2337.01 1119.36C2339.1 1119.36 2340.8 1117.67 2340.8 1115.57V1057.67L2362.08 1080.09C2363.48 1081.67 2365.87 1081.73 2367.45 1080.33C2368.96 1078.93 2369.08 1076.53 2367.68 1074.96L2340.04 1045.69C2338.41 1043.88 2335.61 1043.88 2333.98 1045.69L2304.27 1074.49C2303.57 1075.25 2303.28 1076.13 2303.28 1077.06Z" fill="black"/>
</g>
</g>
</g>
<g id="Semibold-M">
<g id="Outline / Upload Outline_13">
<g id="Shape_13">
<path d="M2000.17 1130.96C1998.08 1130.96 1996.38 1132.65 1996.38 1134.75C1996.38 1136.84 1998.08 1138.54 2000.17 1138.54H2081.84C2083.94 1138.54 2085.63 1136.84 2085.63 1134.75C2085.63 1132.65 2083.94 1130.96 2081.84 1130.96H2000.17Z" fill="black"/>
<path d="M2007.28 1077.06C2007.28 1078.11 2007.69 1079.1 2008.51 1079.86C2010.08 1081.26 2012.47 1081.14 2013.87 1079.63L2037.22 1057.31V1115.57C2037.22 1117.67 2038.92 1119.36 2041.01 1119.36C2043.1 1119.36 2044.8 1117.67 2044.8 1115.57V1057.67L2066.08 1080.09C2067.48 1081.67 2069.87 1081.73 2071.45 1080.33C2072.96 1078.93 2073.08 1076.53 2071.68 1074.96L2044.04 1045.69C2042.41 1043.88 2039.61 1043.88 2037.98 1045.69L2008.27 1074.49C2007.57 1075.25 2007.28 1076.13 2007.28 1077.06Z" fill="black"/>
</g>
</g>
</g>
<g id="Medium-M">
<g id="Outline / Upload Outline_14">
<g id="Shape_14">
<path d="M1704.17 1130.96C1702.08 1130.96 1700.38 1132.65 1700.38 1134.75C1700.38 1136.84 1702.08 1138.54 1704.17 1138.54H1785.84C1787.94 1138.54 1789.63 1136.84 1789.63 1134.75C1789.63 1132.65 1787.94 1130.96 1785.84 1130.96H1704.17Z" fill="black"/>
<path d="M1711.28 1077.06C1711.28 1078.11 1711.69 1079.1 1712.51 1079.86C1714.08 1081.26 1716.47 1081.14 1717.87 1079.63L1741.22 1057.31V1115.57C1741.22 1117.67 1742.92 1119.36 1745.01 1119.36C1747.1 1119.36 1748.8 1117.67 1748.8 1115.57V1057.67L1770.08 1080.09C1771.48 1081.67 1773.87 1081.73 1775.45 1080.33C1776.96 1078.93 1777.08 1076.53 1775.68 1074.96L1748.04 1045.69C1746.41 1043.88 1743.61 1043.88 1741.98 1045.69L1712.27 1074.49C1711.57 1075.25 1711.28 1076.13 1711.28 1077.06Z" fill="black"/>
</g>
</g>
</g>
<g id="Regular-M">
<g id="Outline / Upload Outline_15">
<g id="Shape_15">
<path d="M1408.17 1130.96C1406.08 1130.96 1404.38 1132.65 1404.38 1134.75C1404.38 1136.84 1406.08 1138.54 1408.17 1138.54H1489.84C1491.94 1138.54 1493.63 1136.84 1493.63 1134.75C1493.63 1132.65 1491.94 1130.96 1489.84 1130.96H1408.17Z" fill="black"/>
<path d="M1415.28 1077.06C1415.28 1078.11 1415.69 1079.1 1416.51 1079.86C1418.08 1081.26 1420.47 1081.14 1421.87 1079.63L1445.22 1057.31V1115.57C1445.22 1117.67 1446.92 1119.36 1449.01 1119.36C1451.1 1119.36 1452.8 1117.67 1452.8 1115.57V1057.67L1474.08 1080.09C1475.48 1081.67 1477.87 1081.73 1479.45 1080.33C1480.96 1078.93 1481.08 1076.53 1479.68 1074.96L1452.04 1045.69C1450.41 1043.88 1447.61 1043.88 1445.98 1045.69L1416.27 1074.49C1415.57 1075.25 1415.28 1076.13 1415.28 1077.06Z" fill="black"/>
</g>
</g>
</g>
<g id="Light-M">
<g id="Outline / Upload Outline_16">
<g id="Shape_16">
<path d="M1112.17 1130.96C1110.08 1130.96 1108.38 1132.65 1108.38 1134.75C1108.38 1136.84 1110.08 1138.54 1112.17 1138.54H1193.84C1195.94 1138.54 1197.63 1136.84 1197.63 1134.75C1197.63 1132.65 1195.94 1130.96 1193.84 1130.96H1112.17Z" fill="black"/>
<path d="M1119.28 1077.06C1119.28 1078.11 1119.69 1079.1 1120.51 1079.86C1122.08 1081.26 1124.47 1081.14 1125.87 1079.63L1149.22 1057.31V1115.57C1149.22 1117.67 1150.92 1119.36 1153.01 1119.36C1155.1 1119.36 1156.8 1117.67 1156.8 1115.57V1057.67L1178.08 1080.09C1179.48 1081.67 1181.87 1081.73 1183.45 1080.33C1184.96 1078.93 1185.08 1076.53 1183.68 1074.96L1156.04 1045.69C1154.41 1043.88 1151.61 1043.88 1149.98 1045.69L1120.27 1074.49C1119.57 1075.25 1119.28 1076.13 1119.28 1077.06Z" fill="black"/>
</g>
</g>
</g>
<g id="Thin-M">
<g id="Outline / Upload Outline_17">
<g id="Shape_17">
<path d="M816.174 1130.96C814.08 1130.96 812.383 1132.65 812.383 1134.75C812.383 1136.84 814.08 1138.54 816.174 1138.54H897.841C899.935 1138.54 901.633 1136.84 901.633 1134.75C901.633 1132.65 899.935 1130.96 897.841 1130.96H816.174Z" fill="black"/>
<path d="M823.282 1077.06C823.282 1078.11 823.69 1079.1 824.507 1079.86C826.082 1081.26 828.473 1081.14 829.873 1079.63L853.219 1057.31V1115.57C853.219 1117.67 854.917 1119.36 857.011 1119.36C859.105 1119.36 860.802 1117.67 860.802 1115.57V1057.67L882.081 1080.09C883.481 1081.67 885.873 1081.73 887.448 1080.33C888.965 1078.93 889.081 1076.53 887.681 1074.96L860.044 1045.69C858.411 1043.88 855.611 1043.88 853.977 1045.69L824.273 1074.49C823.573 1075.25 823.282 1076.13 823.282 1077.06Z" fill="black"/>
</g>
</g>
</g>
<g id="Ultralight-M">
<g id="Outline / Upload Outline_18">
<g id="Shape_18">
<path d="M520.174 1130.96C518.08 1130.96 516.383 1132.65 516.383 1134.75C516.383 1136.84 518.08 1138.54 520.174 1138.54H601.841C603.935 1138.54 605.633 1136.84 605.633 1134.75C605.633 1132.65 603.935 1130.96 601.841 1130.96H520.174Z" fill="black"/>
<path d="M527.282 1077.06C527.282 1078.11 527.69 1079.1 528.507 1079.86C530.082 1081.26 532.473 1081.14 533.873 1079.63L557.219 1057.31V1115.57C557.219 1117.67 558.917 1119.36 561.011 1119.36C563.105 1119.36 564.802 1117.67 564.802 1115.57V1057.67L586.081 1080.09C587.481 1081.67 589.873 1081.73 591.448 1080.33C592.965 1078.93 593.081 1076.53 591.681 1074.96L564.044 1045.69C562.411 1043.88 559.611 1043.88 557.977 1045.69L528.273 1074.49C527.573 1075.25 527.282 1076.13 527.282 1077.06Z" fill="black"/>
</g>
</g>
</g>
<g id="Black-S">
<g id="Outline / Upload Outline_19">
<g id="Shape_19">
<path d="M2899.83 689.543C2898.34 689.543 2897.12 690.756 2897.12 692.251C2897.12 693.747 2898.34 694.96 2899.83 694.96H2958.16C2959.66 694.96 2960.87 693.747 2960.87 692.251C2960.87 690.756 2959.66 689.543 2958.16 689.543H2899.83Z" fill="black"/>
<path d="M2904.91 651.044C2904.91 651.794 2905.2 652.503 2905.78 653.044C2906.91 654.044 2908.62 653.961 2909.62 652.878L2926.29 636.934L2926.29 678.553C2926.29 680.049 2927.5 681.262 2929 681.262C2930.5 681.262 2931.71 680.049 2931.71 678.553V637.198L2946.91 653.211C2947.91 654.336 2949.62 654.378 2950.74 653.378C2951.82 652.378 2951.91 650.669 2950.91 649.544L2931.17 628.637C2930 627.345 2928 627.345 2926.83 628.637L2905.62 649.211C2905.12 649.753 2904.91 650.378 2904.91 651.044Z" fill="black"/>
</g>
</g>
</g>
<g id="Heavy-S">
<g id="Outline / Upload Outline_20">
<g id="Shape_20">
<path d="M2603.83 689.543C2602.34 689.543 2601.12 690.756 2601.12 692.251C2601.12 693.747 2602.34 694.96 2603.83 694.96H2662.16C2663.66 694.96 2664.87 693.747 2664.87 692.251C2664.87 690.756 2663.66 689.543 2662.16 689.543H2603.83Z" fill="black"/>
<path d="M2608.91 651.044C2608.91 651.794 2609.2 652.503 2609.78 653.044C2610.91 654.044 2612.62 653.961 2613.62 652.878L2630.29 636.934L2630.29 678.553C2630.29 680.049 2631.5 681.262 2633 681.262C2634.5 681.262 2635.71 680.049 2635.71 678.553V637.198L2650.91 653.211C2651.91 654.336 2653.62 654.378 2654.74 653.378C2655.82 652.378 2655.91 650.669 2654.91 649.544L2635.17 628.637C2634 627.345 2632 627.345 2630.83 628.637L2609.62 649.211C2609.12 649.753 2608.91 650.378 2608.91 651.044Z" fill="black"/>
</g>
</g>
</g>
<g id="Bold-S">
<g id="Outline / Upload Outline_21">
<g id="Shape_21">
<path d="M2307.84 689.543C2306.35 689.543 2305.13 690.756 2305.13 692.251C2305.13 693.747 2306.35 694.96 2307.84 694.96H2366.17C2367.67 694.96 2368.88 693.747 2368.88 692.251C2368.88 690.756 2367.67 689.543 2366.17 689.543H2307.84Z" fill="black"/>
<path d="M2312.92 651.044C2312.92 651.794 2313.21 652.503 2313.79 653.044C2314.92 654.044 2316.63 653.961 2317.63 652.878L2334.3 636.934L2334.3 678.553C2334.3 680.049 2335.51 681.262 2337.01 681.262C2338.51 681.262 2339.72 680.049 2339.72 678.553V637.198L2354.92 653.211C2355.92 654.336 2357.63 654.378 2358.75 653.378C2359.83 652.378 2359.92 650.669 2358.92 649.544L2339.18 628.637C2338.01 627.345 2336.01 627.345 2334.84 628.637L2313.63 649.211C2313.13 649.753 2312.92 650.378 2312.92 651.044Z" fill="black"/>
</g>
</g>
</g>
<g id="Semibold-S">
<g id="Outline / Upload Outline_22">
<g id="Shape_22">
<path d="M2011.84 689.543C2010.35 689.543 2009.13 690.756 2009.13 692.251C2009.13 693.747 2010.35 694.96 2011.84 694.96H2070.17C2071.67 694.96 2072.88 693.747 2072.88 692.251C2072.88 690.756 2071.67 689.543 2070.17 689.543H2011.84Z" fill="black"/>
<path d="M2016.92 651.044C2016.92 651.794 2017.21 652.503 2017.79 653.044C2018.92 654.044 2020.63 653.961 2021.63 652.878L2038.3 636.934L2038.3 678.553C2038.3 680.049 2039.51 681.262 2041.01 681.262C2042.51 681.262 2043.72 680.049 2043.72 678.553V637.198L2058.92 653.211C2059.92 654.336 2061.63 654.378 2062.75 653.378C2063.83 652.378 2063.92 650.669 2062.92 649.544L2043.18 628.637C2042.01 627.345 2040.01 627.345 2038.84 628.637L2017.63 649.211C2017.13 649.753 2016.92 650.378 2016.92 651.044Z" fill="black"/>
</g>
</g>
</g>
<g id="Medium-S">
<g id="Outline / Upload Outline_23">
<g id="Shape_23">
<path d="M1715.84 689.543C1714.35 689.543 1713.13 690.756 1713.13 692.251C1713.13 693.747 1714.35 694.96 1715.84 694.96H1774.17C1775.67 694.96 1776.88 693.747 1776.88 692.251C1776.88 690.756 1775.67 689.543 1774.17 689.543H1715.84Z" fill="black"/>
<path d="M1720.92 651.044C1720.92 651.794 1721.21 652.503 1721.79 653.044C1722.92 654.044 1724.63 653.961 1725.63 652.878L1742.3 636.934L1742.3 678.553C1742.3 680.049 1743.51 681.262 1745.01 681.262C1746.51 681.262 1747.72 680.049 1747.72 678.553V637.198L1762.92 653.211C1763.92 654.336 1765.63 654.378 1766.75 653.378C1767.83 652.378 1767.92 650.669 1766.92 649.544L1747.18 628.637C1746.01 627.345 1744.01 627.345 1742.84 628.637L1721.63 649.211C1721.13 649.753 1720.92 650.378 1720.92 651.044Z" fill="black"/>
</g>
</g>
</g>
<g id="Regular-S">
<g id="Outline / Upload Outline_24">
<g id="Shape_24">
<path d="M1419.84 689.543C1418.35 689.543 1417.13 690.756 1417.13 692.251C1417.13 693.747 1418.35 694.96 1419.84 694.96H1478.17C1479.67 694.96 1480.88 693.747 1480.88 692.251C1480.88 690.756 1479.67 689.543 1478.17 689.543H1419.84Z" fill="black"/>
<path d="M1424.92 651.044C1424.92 651.794 1425.21 652.503 1425.79 653.044C1426.92 654.044 1428.63 653.961 1429.63 652.878L1446.3 636.934L1446.3 678.553C1446.3 680.049 1447.51 681.262 1449.01 681.262C1450.51 681.262 1451.72 680.049 1451.72 678.553V637.198L1466.92 653.211C1467.92 654.336 1469.63 654.378 1470.75 653.378C1471.83 652.378 1471.92 650.669 1470.92 649.544L1451.18 628.637C1450.01 627.345 1448.01 627.345 1446.84 628.637L1425.63 649.211C1425.13 649.753 1424.92 650.378 1424.92 651.044Z" fill="black"/>
</g>
</g>
</g>
<g id="Light-S">
<g id="Outline / Upload Outline_25">
<g id="Shape_25">
<path d="M1123.84 689.543C1122.35 689.543 1121.13 690.756 1121.13 692.251C1121.13 693.747 1122.35 694.96 1123.84 694.96H1182.17C1183.67 694.96 1184.88 693.747 1184.88 692.251C1184.88 690.756 1183.67 689.543 1182.17 689.543H1123.84Z" fill="black"/>
<path d="M1128.92 651.044C1128.92 651.794 1129.21 652.503 1129.79 653.044C1130.92 654.044 1132.63 653.961 1133.63 652.878L1150.3 636.934L1150.3 678.553C1150.3 680.049 1151.51 681.262 1153.01 681.262C1154.51 681.262 1155.72 680.049 1155.72 678.553V637.198L1170.92 653.211C1171.92 654.336 1173.63 654.378 1174.75 653.378C1175.83 652.378 1175.92 650.669 1174.92 649.544L1155.18 628.637C1154.01 627.345 1152.01 627.345 1150.84 628.637L1129.63 649.211C1129.13 649.753 1128.92 650.378 1128.92 651.044Z" fill="black"/>
</g>
</g>
</g>
<g id="Thin-S">
<g id="Outline / Upload Outline_26">
<g id="Shape_26">
<path d="M827.841 689.543C826.345 689.543 825.133 690.756 825.133 692.251C825.133 693.747 826.345 694.96 827.841 694.96H886.174C887.67 694.96 888.883 693.747 888.883 692.251C888.883 690.756 887.67 689.543 886.174 689.543H827.841Z" fill="black"/>
<path d="M832.918 651.044C832.918 651.794 833.209 652.503 833.793 653.044C834.918 654.044 836.626 653.961 837.626 652.878L854.302 636.934L854.302 678.553C854.302 680.049 855.514 681.262 857.01 681.262C858.506 681.262 859.718 680.049 859.718 678.553V637.198L874.918 653.211C875.918 654.336 877.626 654.378 878.751 653.378C879.834 652.378 879.918 650.669 878.918 649.544L859.177 628.637C858.01 627.345 856.01 627.345 854.843 628.637L833.626 649.211C833.126 649.753 832.918 650.378 832.918 651.044Z" fill="black"/>
</g>
</g>
</g>
<g id="Ultralight-S">
<g id="Outline / Upload Outline_27">
<g id="Shape_27">
<path d="M531.841 689.543C530.345 689.543 529.133 690.756 529.133 692.251C529.133 693.747 530.345 694.96 531.841 694.96H590.174C591.67 694.96 592.883 693.747 592.883 692.251C592.883 690.756 591.67 689.543 590.174 689.543H531.841Z" fill="black"/>
<path d="M536.918 651.044C536.918 651.794 537.209 652.503 537.793 653.044C538.918 654.044 540.626 653.961 541.626 652.878L558.302 636.934L558.302 678.553C558.302 680.049 559.514 681.262 561.01 681.262C562.506 681.262 563.718 680.049 563.718 678.553V637.198L578.918 653.211C579.918 654.336 581.626 654.378 582.751 653.378C583.834 652.378 583.918 650.669 582.918 649.544L563.177 628.637C562.01 627.345 560.01 627.345 558.843 628.637L537.626 649.211C537.126 649.753 536.918 650.378 536.918 651.044Z" fill="black"/>
</g>
</g>
</g>
</g>
</g>
<defs>
<clipPath id="clip0_805_27002">
<rect width="3300" height="2200" fill="white"/>
</clipPath>
</defs>
</svg>
