<svg width="3300" height="2200" viewBox="0 0 3300 2200" fill="none" xmlns="http://www.w3.org/2000/svg">
<rect width="3300" height="2200" fill="#E5E5E5"/>
<g id="Category / Solid / Post" clip-path="url(#clip0_0_1)">
<g id="Notes">
<path id="artboard" d="M3300 0H0V2200H3300V0Z" fill="white"/>
<path id="Vector" d="M263 292H3036" stroke="black" stroke-width="0.5"/>
<text id="Weight/Scale Variations" fill="black" xml:space="preserve" style="white-space: pre" font-family="Roboto" font-size="12" letter-spacing="0em"><tspan x="263" y="321.102">Weight/Scale Variations</tspan></text>
<text id="Ultralight" fill="black" xml:space="preserve" style="white-space: pre" font-family="Roboto" font-size="12" letter-spacing="0em"><tspan x="535.211" y="321.102">Ultralight</tspan></text>
<text id="Thin" fill="black" xml:space="preserve" style="white-space: pre" font-family="Roboto" font-size="12" letter-spacing="0em"><tspan x="844.422" y="321.102">Thin</tspan></text>
<text id="Light" fill="black" xml:space="preserve" style="white-space: pre" font-family="Roboto" font-size="12" letter-spacing="0em"><tspan x="1139.63" y="321.102">Light</tspan></text>
<text id="Regular" fill="black" xml:space="preserve" style="white-space: pre" font-family="Roboto" font-size="12" letter-spacing="0em"><tspan x="1429.34" y="321.102">Regular</tspan></text>
<text id="Medium" fill="black" xml:space="preserve" style="white-space: pre" font-family="Roboto" font-size="12" letter-spacing="0em"><tspan x="1724.56" y="321.102">Medium</tspan></text>
<text id="Semibold" fill="black" xml:space="preserve" style="white-space: pre" font-family="Roboto" font-size="12" letter-spacing="0em"><tspan x="2017.77" y="321.102">Semibold</tspan></text>
<text id="Bold" fill="black" xml:space="preserve" style="white-space: pre" font-family="Roboto" font-size="12" letter-spacing="0em"><tspan x="2327.48" y="321.102">Bold</tspan></text>
<text id="Heavy" fill="black" xml:space="preserve" style="white-space: pre" font-family="Roboto" font-size="12" letter-spacing="0em"><tspan x="2620.19" y="321.102">Heavy</tspan></text>
<text id="Black" fill="black" xml:space="preserve" style="white-space: pre" font-family="Roboto" font-size="12" letter-spacing="0em"><tspan x="2918.4" y="321.102">Black</tspan></text>
<path id="Vector_2" d="M263 1903H3036" stroke="black" stroke-width="0.5"/>
<g id="Group">
<path id="Vector_3" d="M272.248 1933.83C276.555 1933.83 280.139 1930.26 280.139 1925.95C280.139 1921.64 276.545 1918.07 272.238 1918.07C267.941 1918.07 264.367 1921.64 264.367 1925.95C264.367 1930.26 267.951 1933.83 272.248 1933.83ZM272.248 1932.35C268.703 1932.35 265.871 1929.51 265.871 1925.95C265.871 1922.4 268.693 1919.55 272.238 1919.55C275.793 1919.55 278.635 1922.4 278.644 1925.95C278.654 1929.51 275.803 1932.35 272.248 1932.35ZM272.229 1929.57C272.697 1929.57 272.971 1929.26 272.971 1928.74V1926.68H275.197C275.695 1926.68 276.037 1926.43 276.037 1925.96C276.037 1925.48 275.715 1925.22 275.197 1925.22H272.971V1922.99C272.971 1922.47 272.697 1922.15 272.229 1922.15C271.76 1922.15 271.506 1922.49 271.506 1922.99V1925.22H269.299C268.781 1925.22 268.449 1925.48 268.449 1925.96C268.449 1926.43 268.801 1926.68 269.299 1926.68H271.506V1928.74C271.506 1929.24 271.76 1929.57 272.229 1929.57Z" fill="black"/>
</g>
<g id="Group_2">
<path id="Vector_4" d="M293.215 1935.91C298.664 1935.91 303.176 1931.4 303.176 1925.95C303.176 1920.51 298.654 1915.99 293.205 1915.99C287.766 1915.99 283.254 1920.51 283.254 1925.95C283.254 1931.4 287.775 1935.91 293.215 1935.91ZM293.215 1934.25C288.605 1934.25 284.924 1930.56 284.924 1925.95C284.924 1921.35 288.596 1917.65 293.205 1917.65C297.814 1917.65 301.506 1921.35 301.516 1925.95C301.525 1930.56 297.824 1934.25 293.215 1934.25ZM293.195 1930.59C293.713 1930.59 294.025 1930.23 294.025 1929.66V1926.77H297.082C297.629 1926.77 298.01 1926.49 298.01 1925.97C298.01 1925.44 297.648 1925.14 297.082 1925.14H294.025V1922.07C294.025 1921.5 293.713 1921.14 293.195 1921.14C292.678 1921.14 292.385 1921.52 292.385 1922.07V1925.14H289.338C288.771 1925.14 288.4 1925.44 288.4 1925.97C288.4 1926.49 288.791 1926.77 289.338 1926.77H292.385V1929.66C292.385 1930.21 292.678 1930.59 293.195 1930.59Z" fill="black"/>
</g>
<g id="Group_3">
<path id="Vector_5" d="M319.895 1938.67C326.857 1938.67 332.619 1932.92 332.619 1925.96C332.619 1918.99 326.848 1913.24 319.885 1913.24C312.932 1913.24 307.18 1918.99 307.18 1925.96C307.18 1932.92 312.941 1938.67 319.895 1938.67ZM319.895 1936.86C313.859 1936.86 309.006 1931.99 309.006 1925.96C309.006 1919.92 313.85 1915.06 319.885 1915.06C325.93 1915.06 330.783 1919.92 330.793 1925.96C330.803 1931.99 325.939 1936.86 319.895 1936.86ZM319.875 1931.93C320.441 1931.93 320.793 1931.54 320.793 1930.94V1926.87H325.031C325.617 1926.87 326.037 1926.53 326.037 1925.98C326.037 1925.4 325.647 1925.06 325.031 1925.06H320.793V1920.81C320.793 1920.2 320.441 1919.8 319.875 1919.8C319.309 1919.8 318.986 1920.21 318.986 1920.81V1925.06H314.758C314.143 1925.06 313.732 1925.4 313.732 1925.98C313.732 1926.53 314.162 1926.87 314.758 1926.87H318.986V1930.94C318.986 1931.52 319.309 1931.93 319.875 1931.93Z" fill="black"/>
</g>
<text id="Design Variations" fill="black" xml:space="preserve" style="white-space: pre" font-family="Roboto" font-size="12" letter-spacing="0em"><tspan x="263" y="1952.1">Design Variations</tspan></text>
<text id="Symbols are supported in up to nine weights and three scales." fill="black" xml:space="preserve" style="white-space: pre" font-family="Roboto" font-size="12" letter-spacing="0em"><tspan x="263" y="1970.1">Symbols are supported in up to nine weights and three scales.</tspan></text>
<text id="For optimal layout with text and other symbols, vertically align" fill="black" xml:space="preserve" style="white-space: pre" font-family="Roboto" font-size="12" letter-spacing="0em"><tspan x="263" y="1988.1">For optimal layout with text and other symbols, vertically align</tspan></text>
<text id="symbols with the adjacent text." fill="black" xml:space="preserve" style="white-space: pre" font-family="Roboto" font-size="12" letter-spacing="0em"><tspan x="263" y="2006.1">symbols with the adjacent text.</tspan></text>
<path id="Vector_6" opacity="0.4" d="M779 1919H776V1933H779V1919Z" fill="#00AEEF"/>
<g id="Group_4">
<path id="Vector_7" d="M789.527 1933H791.373L786.178 1918.91H784.439L779.244 1933H781.09L782.506 1928.96H788.111L789.527 1933ZM785.279 1921.04H785.338L787.594 1927.47H783.023L785.279 1921.04Z" fill="black"/>
</g>
<path id="Vector_8" opacity="0.4" d="M794.617 1919H791.617V1933H794.617V1919Z" fill="#00AEEF"/>
<text id="Margins" fill="black" xml:space="preserve" style="white-space: pre" font-family="Roboto" font-size="12" letter-spacing="0em"><tspan x="776" y="1952.1">Margins</tspan></text>
<text id="Leading and trailing margins on the left and right side of each symbol" fill="black" xml:space="preserve" style="white-space: pre" font-family="Roboto" font-size="12" letter-spacing="0em"><tspan x="776" y="1970.1">Leading and trailing margins on the left and right side of each symbol</tspan></text>
<text id="can be adjusted by modifying the width of the blue rectangles." fill="black" xml:space="preserve" style="white-space: pre" font-family="Roboto" font-size="12" letter-spacing="0em"><tspan x="776" y="1988.1">can be adjusted by modifying the width of the blue rectangles.</tspan></text>
<text id="Modifications are automatically applied proportionally to all" fill="black" xml:space="preserve" style="white-space: pre" font-family="Roboto" font-size="12" letter-spacing="0em"><tspan x="776" y="2006.1">Modifications are automatically applied proportionally to all</tspan></text>
<text id="scales and weights." fill="black" xml:space="preserve" style="white-space: pre" font-family="Roboto" font-size="12" letter-spacing="0em"><tspan x="776" y="2024.1">scales and weights.</tspan></text>
<g id="Group_5">
<path id="Vector_9" d="M1291.83 1936.11L1293.37 1937.66C1294.22 1938.49 1295.19 1938.42 1296.06 1937.46L1306.27 1926.34C1306.7 1926.63 1307.1 1926.62 1307.56 1926.52L1308.61 1926.31L1309.3 1927L1309.25 1927.52C1309.19 1928.05 1309.35 1928.47 1309.85 1928.97L1310.66 1929.78C1311.17 1930.28 1311.82 1930.31 1312.3 1929.83L1315.55 1926.58C1316.03 1926.1 1316.01 1925.45 1315.5 1924.94L1314.68 1924.12C1314.19 1923.62 1313.77 1923.45 1313.24 1923.53L1312.71 1923.58L1312.06 1922.92L1312.34 1921.78C1312.49 1921.21 1312.34 1920.74 1311.71 1920.14L1309.3 1917.75C1305.76 1914.22 1301.23 1914.33 1298.11 1917.46C1297.69 1917.89 1297.64 1918.48 1297.92 1918.91C1298.15 1919.28 1298.63 1919.5 1299.27 1919.34C1300.79 1918.96 1302.3 1919.07 1303.78 1920.08L1303.16 1921.66C1302.93 1922.25 1302.94 1922.73 1303.18 1923.16L1292.02 1933.44C1291.08 1934.31 1290.97 1935.25 1291.83 1936.11ZM1299.67 1917.85C1302.34 1915.86 1305.65 1916.17 1308.05 1918.58L1310.68 1921.19C1310.91 1921.43 1310.94 1921.61 1310.88 1921.91L1310.5 1923.47L1312.08 1925.04L1313.04 1924.95C1313.33 1924.92 1313.41 1924.94 1313.64 1925.17L1314.26 1925.79L1311.51 1928.54L1310.88 1927.92C1310.66 1927.7 1310.64 1927.6 1310.67 1927.32L1310.76 1926.36L1309.19 1924.8L1307.57 1925.11C1307.29 1925.17 1307.14 1925.17 1306.91 1924.92L1304.73 1922.75C1304.51 1922.51 1304.48 1922.37 1304.61 1922.05L1305.55 1919.78C1303.95 1918.24 1301.84 1917.39 1299.8 1918.05C1299.71 1918.08 1299.64 1918.06 1299.61 1918.02C1299.59 1917.97 1299.59 1917.92 1299.67 1917.85ZM1293.1 1935.41C1292.61 1934.91 1292.79 1934.61 1293.12 1934.31L1304.08 1924.19L1305.31 1925.42L1295.15 1936.35C1294.85 1936.68 1294.47 1936.78 1294.07 1936.38L1293.1 1935.41Z" fill="black"/>
</g>
<text id="Exporting" fill="black" xml:space="preserve" style="white-space: pre" font-family="Roboto" font-size="12" letter-spacing="0em"><tspan x="1289" y="1952.1">Exporting</tspan></text>
<text id="Symbols should be outlined when exporting to ensure the" fill="black" xml:space="preserve" style="white-space: pre" font-family="Roboto" font-size="12" letter-spacing="0em"><tspan x="1289" y="1970.1">Symbols should be outlined when exporting to ensure the</tspan></text>
<text id="design is preserved when submitting to Xcode." fill="black" xml:space="preserve" style="white-space: pre" font-family="Roboto" font-size="12" letter-spacing="0em"><tspan x="1289" y="1988.1">design is preserved when submitting to Xcode.</tspan></text>
<text id="template-version" fill="black" xml:space="preserve" style="white-space: pre" font-family="Roboto" font-size="12" letter-spacing="0em"><tspan x="2958" y="1932.1">Template v.1.0</tspan></text>
<text id="Generated from pencil.circle" fill="black" xml:space="preserve" style="white-space: pre" font-family="Roboto" font-size="12" letter-spacing="0em"><tspan x="2885" y="1950.1">Generated from pencil.circle</tspan></text>
<text id="Typeset at 100 points" fill="black" xml:space="preserve" style="white-space: pre" font-family="Roboto" font-size="12" letter-spacing="0em"><tspan x="2921" y="1968.1">Typeset at 100 points</tspan></text>
<text id="Small" fill="black" xml:space="preserve" style="white-space: pre" font-family="Roboto" font-size="12" letter-spacing="0em"><tspan x="263" y="725.102">Small</tspan></text>
<text id="Medium_2" fill="black" xml:space="preserve" style="white-space: pre" font-family="Roboto" font-size="12" letter-spacing="0em"><tspan x="263" y="1155.1">Medium</tspan></text>
<text id="Large" fill="black" xml:space="preserve" style="white-space: pre" font-family="Roboto" font-size="12" letter-spacing="0em"><tspan x="263" y="1585.1">Large</tspan></text>
</g>
<g id="Guides">
<g id="H-reference">
<path id="Vector_10" d="M393.932 695.998H396.666L369.566 625.539H367.076L339.977 695.998H342.662L351.94 671.535H384.703L393.932 695.998ZM368.199 628.908H368.443L383.824 669.289H352.818L368.199 628.908Z" fill="#27AAE1"/>
</g>
<path id="Baseline-S" d="M263 696H3036" stroke="#27AAE1" stroke-width="0.577"/>
<path id="Capline-S" d="M263 626H3036" stroke="#27AAE1" stroke-width="0.577"/>
<g id="H-reference_2">
<path id="Vector_11" d="M393.932 1126H396.666L369.566 1055.54H367.076L339.977 1126H342.662L351.94 1101.54H384.703L393.932 1126ZM368.199 1058.91H368.443L383.824 1099.29H352.818L368.199 1058.91Z" fill="#27AAE1"/>
</g>
<path id="Baseline-M" d="M263 1126H3036" stroke="#27AAE1" stroke-width="0.577"/>
<path id="Capline-M" d="M263 1056H3036" stroke="#27AAE1" stroke-width="0.577"/>
<g id="H-reference_3">
<path id="Vector_12" d="M393.932 1556H396.666L369.566 1485.54H367.076L339.977 1556H342.662L351.94 1531.54H384.703L393.932 1556ZM368.199 1488.91H368.443L383.824 1529.29H352.818L368.199 1488.91Z" fill="#27AAE1"/>
</g>
<g id="Group 1">
<path id="Baseline-L" d="M263 1556H3036" stroke="#27AAE1" stroke-width="0.577"/>
<path id="Capline-L" d="M263 1486H3036" stroke="#27AAE1" stroke-width="0.577"/>
</g>
<path id="left-margin" opacity="0.4" d="M1392.04 1030.79H1383.3V1150.12H1392.04V1030.79Z" fill="#00AEEF"/>
<path id="right-margin" opacity="0.4" d="M1507.39 1030.79H1498.65V1150.12H1507.39V1030.79Z" fill="#00AEEF"/>
</g>
<g id="Symbols">
<g id="Black-L">
<g id="Solid / Post Solid">
<g id="Shape">
<path fill-rule="evenodd" clip-rule="evenodd" d="M2856.99 1475.72C2856.99 1473.03 2859.17 1470.84 2861.86 1470.84L2941.31 1470.84C2949.18 1470.84 2955.56 1477.23 2955.56 1485.1H2961.2C2970.35 1485.1 2978.6 1490.61 2982.11 1499.06L2990.86 1520.14C2992 1522.89 2992.59 1525.84 2992.59 1528.82V1541.9C2992.59 1547.32 2988.19 1551.71 2982.78 1551.71L2874.92 1551.71C2869.53 1551.71 2865.17 1547.35 2865.17 1541.96V1515.5C2865.17 1512.3 2867.76 1509.71 2870.96 1509.71H2879.48C2882.16 1509.71 2884.33 1507.53 2884.33 1504.85C2884.33 1502.17 2882.16 1500 2879.48 1500H2870.02C2867.34 1500 2865.17 1497.83 2865.17 1495.15C2865.17 1492.47 2867.34 1490.3 2870.02 1490.3H2894.03C2896.71 1490.3 2898.88 1488.12 2898.88 1485.44C2898.88 1482.76 2896.71 1480.59 2894.03 1480.59H2861.86C2859.17 1480.59 2856.99 1478.41 2856.99 1475.72ZM2954.92 1500.02C2954.92 1497.11 2957.29 1494.74 2960.2 1494.74H2963.94C2967.9 1494.74 2971.48 1497.12 2973 1500.78L2979.01 1515.24C2980.46 1518.72 2977.9 1522.55 2974.13 1522.55H2960.2C2957.29 1522.55 2954.92 1520.18 2954.92 1517.27V1500.02Z" fill="black"/>
<path d="M2908.55 1567.82C2908.55 1574.03 2903.51 1579.07 2897.3 1579.07C2891.09 1579.07 2886.05 1574.03 2886.05 1567.82C2886.05 1561.61 2891.09 1556.57 2897.3 1556.57C2903.51 1556.57 2908.55 1561.61 2908.55 1567.82Z" fill="black"/>
<path d="M2971.19 1567.82C2971.19 1574.03 2966.15 1579.07 2959.94 1579.07C2953.73 1579.07 2948.69 1574.03 2948.69 1567.82C2948.69 1561.61 2953.73 1556.57 2959.94 1556.57C2966.15 1556.57 2971.19 1561.61 2971.19 1567.82Z" fill="black"/>
</g>
</g>
</g>
<g id="Heavy-L">
<g id="Solid / Post Solid_2">
<g id="Shape_2">
<path fill-rule="evenodd" clip-rule="evenodd" d="M2560.99 1475.72C2560.99 1473.03 2563.17 1470.84 2565.86 1470.84L2645.31 1470.84C2653.18 1470.84 2659.56 1477.23 2659.56 1485.1H2665.2C2674.35 1485.1 2682.6 1490.61 2686.11 1499.06L2694.86 1520.14C2696 1522.89 2696.59 1525.84 2696.59 1528.82V1541.9C2696.59 1547.32 2692.19 1551.71 2686.78 1551.71L2578.92 1551.71C2573.53 1551.71 2569.17 1547.35 2569.17 1541.96V1515.5C2569.17 1512.3 2571.76 1509.71 2574.96 1509.71H2583.48C2586.16 1509.71 2588.33 1507.53 2588.33 1504.85C2588.33 1502.17 2586.16 1500 2583.48 1500H2574.02C2571.34 1500 2569.17 1497.83 2569.17 1495.15C2569.17 1492.47 2571.34 1490.3 2574.02 1490.3H2598.03C2600.71 1490.3 2602.88 1488.12 2602.88 1485.44C2602.88 1482.76 2600.71 1480.59 2598.03 1480.59H2565.86C2563.17 1480.59 2560.99 1478.41 2560.99 1475.72ZM2658.92 1500.02C2658.92 1497.11 2661.29 1494.74 2664.2 1494.74H2667.94C2671.9 1494.74 2675.48 1497.12 2677 1500.78L2683.01 1515.24C2684.46 1518.72 2681.9 1522.55 2678.13 1522.55H2664.2C2661.29 1522.55 2658.92 1520.18 2658.92 1517.27V1500.02Z" fill="black"/>
<path d="M2612.55 1567.82C2612.55 1574.03 2607.51 1579.07 2601.3 1579.07C2595.09 1579.07 2590.05 1574.03 2590.05 1567.82C2590.05 1561.61 2595.09 1556.57 2601.3 1556.57C2607.51 1556.57 2612.55 1561.61 2612.55 1567.82Z" fill="black"/>
<path d="M2675.19 1567.82C2675.19 1574.03 2670.15 1579.07 2663.94 1579.07C2657.73 1579.07 2652.69 1574.03 2652.69 1567.82C2652.69 1561.61 2657.73 1556.57 2663.94 1556.57C2670.15 1556.57 2675.19 1561.61 2675.19 1567.82Z" fill="black"/>
</g>
</g>
</g>
<g id="Bold-L">
<g id="Solid / Post Solid_3">
<g id="Shape_3">
<path fill-rule="evenodd" clip-rule="evenodd" d="M2264.99 1475.72C2264.99 1473.03 2267.17 1470.84 2269.86 1470.84L2349.31 1470.84C2357.18 1470.84 2363.56 1477.23 2363.56 1485.1H2369.2C2378.35 1485.1 2386.6 1490.61 2390.11 1499.06L2398.86 1520.14C2400 1522.89 2400.59 1525.84 2400.59 1528.82V1541.9C2400.59 1547.32 2396.19 1551.71 2390.78 1551.71L2282.92 1551.71C2277.53 1551.71 2273.17 1547.35 2273.17 1541.96V1515.5C2273.17 1512.3 2275.76 1509.71 2278.96 1509.71H2287.48C2290.16 1509.71 2292.33 1507.53 2292.33 1504.85C2292.33 1502.17 2290.16 1500 2287.48 1500H2278.02C2275.34 1500 2273.17 1497.83 2273.17 1495.15C2273.17 1492.47 2275.34 1490.3 2278.02 1490.3H2302.03C2304.71 1490.3 2306.88 1488.12 2306.88 1485.44C2306.88 1482.76 2304.71 1480.59 2302.03 1480.59H2269.86C2267.17 1480.59 2264.99 1478.41 2264.99 1475.72ZM2362.92 1500.02C2362.92 1497.11 2365.29 1494.74 2368.2 1494.74H2371.94C2375.9 1494.74 2379.48 1497.12 2381 1500.78L2387.01 1515.24C2388.46 1518.72 2385.9 1522.55 2382.13 1522.55H2368.2C2365.29 1522.55 2362.92 1520.18 2362.92 1517.27V1500.02Z" fill="black"/>
<path d="M2316.55 1567.82C2316.55 1574.03 2311.51 1579.07 2305.3 1579.07C2299.09 1579.07 2294.05 1574.03 2294.05 1567.82C2294.05 1561.61 2299.09 1556.57 2305.3 1556.57C2311.51 1556.57 2316.55 1561.61 2316.55 1567.82Z" fill="black"/>
<path d="M2379.19 1567.82C2379.19 1574.03 2374.15 1579.07 2367.94 1579.07C2361.73 1579.07 2356.69 1574.03 2356.69 1567.82C2356.69 1561.61 2361.73 1556.57 2367.94 1556.57C2374.15 1556.57 2379.19 1561.61 2379.19 1567.82Z" fill="black"/>
</g>
</g>
</g>
<g id="Semibold-L">
<g id="Solid / Post Solid_4">
<g id="Shape_4">
<path fill-rule="evenodd" clip-rule="evenodd" d="M1968.99 1475.72C1968.99 1473.03 1971.17 1470.84 1973.86 1470.84L2053.31 1470.84C2061.18 1470.84 2067.56 1477.23 2067.56 1485.1H2073.2C2082.35 1485.1 2090.6 1490.61 2094.11 1499.06L2102.86 1520.14C2104 1522.89 2104.59 1525.84 2104.59 1528.82V1541.9C2104.59 1547.32 2100.19 1551.71 2094.78 1551.71L1986.92 1551.71C1981.53 1551.71 1977.17 1547.35 1977.17 1541.96V1515.5C1977.17 1512.3 1979.76 1509.71 1982.96 1509.71H1991.48C1994.16 1509.71 1996.33 1507.53 1996.33 1504.85C1996.33 1502.17 1994.16 1500 1991.48 1500H1982.02C1979.34 1500 1977.17 1497.83 1977.17 1495.15C1977.17 1492.47 1979.34 1490.3 1982.02 1490.3H2006.03C2008.71 1490.3 2010.88 1488.12 2010.88 1485.44C2010.88 1482.76 2008.71 1480.59 2006.03 1480.59H1973.86C1971.17 1480.59 1968.99 1478.41 1968.99 1475.72ZM2066.92 1500.02C2066.92 1497.11 2069.29 1494.74 2072.2 1494.74H2075.94C2079.9 1494.74 2083.48 1497.12 2085 1500.78L2091.01 1515.24C2092.46 1518.72 2089.9 1522.55 2086.13 1522.55H2072.2C2069.29 1522.55 2066.92 1520.18 2066.92 1517.27V1500.02Z" fill="black"/>
<path d="M2020.55 1567.82C2020.55 1574.03 2015.51 1579.07 2009.3 1579.07C2003.09 1579.07 1998.05 1574.03 1998.05 1567.82C1998.05 1561.61 2003.09 1556.57 2009.3 1556.57C2015.51 1556.57 2020.55 1561.61 2020.55 1567.82Z" fill="black"/>
<path d="M2083.19 1567.82C2083.19 1574.03 2078.15 1579.07 2071.94 1579.07C2065.73 1579.07 2060.69 1574.03 2060.69 1567.82C2060.69 1561.61 2065.73 1556.57 2071.94 1556.57C2078.15 1556.57 2083.19 1561.61 2083.19 1567.82Z" fill="black"/>
</g>
</g>
</g>
<g id="Medium-L">
<g id="Solid / Post Solid_5">
<g id="Shape_5">
<path fill-rule="evenodd" clip-rule="evenodd" d="M1672.99 1475.72C1672.99 1473.03 1675.17 1470.84 1677.86 1470.84L1757.31 1470.84C1765.18 1470.84 1771.56 1477.23 1771.56 1485.1H1777.2C1786.35 1485.1 1794.6 1490.61 1798.11 1499.06L1806.86 1520.14C1808 1522.89 1808.59 1525.84 1808.59 1528.82V1541.9C1808.59 1547.32 1804.19 1551.71 1798.78 1551.71L1690.92 1551.71C1685.53 1551.71 1681.17 1547.35 1681.17 1541.96V1515.5C1681.17 1512.3 1683.76 1509.71 1686.96 1509.71H1695.48C1698.16 1509.71 1700.33 1507.53 1700.33 1504.85C1700.33 1502.17 1698.16 1500 1695.48 1500H1686.02C1683.34 1500 1681.17 1497.83 1681.17 1495.15C1681.17 1492.47 1683.34 1490.3 1686.02 1490.3H1710.03C1712.71 1490.3 1714.88 1488.12 1714.88 1485.44C1714.88 1482.76 1712.71 1480.59 1710.03 1480.59H1677.86C1675.17 1480.59 1672.99 1478.41 1672.99 1475.72ZM1770.92 1500.02C1770.92 1497.11 1773.29 1494.74 1776.2 1494.74H1779.94C1783.9 1494.74 1787.48 1497.12 1789 1500.78L1795.01 1515.24C1796.46 1518.72 1793.9 1522.55 1790.13 1522.55H1776.2C1773.29 1522.55 1770.92 1520.18 1770.92 1517.27V1500.02Z" fill="black"/>
<path d="M1724.55 1567.82C1724.55 1574.03 1719.51 1579.07 1713.3 1579.07C1707.09 1579.07 1702.05 1574.03 1702.05 1567.82C1702.05 1561.61 1707.09 1556.57 1713.3 1556.57C1719.51 1556.57 1724.55 1561.61 1724.55 1567.82Z" fill="black"/>
<path d="M1787.19 1567.82C1787.19 1574.03 1782.15 1579.07 1775.94 1579.07C1769.73 1579.07 1764.69 1574.03 1764.69 1567.82C1764.69 1561.61 1769.73 1556.57 1775.94 1556.57C1782.15 1556.57 1787.19 1561.61 1787.19 1567.82Z" fill="black"/>
</g>
</g>
</g>
<g id="Regular-L">
<g id="Solid / Post Solid_6">
<g id="Shape_6">
<path fill-rule="evenodd" clip-rule="evenodd" d="M1376.99 1475.72C1376.99 1473.03 1379.17 1470.84 1381.86 1470.84L1461.31 1470.84C1469.18 1470.84 1475.56 1477.23 1475.56 1485.1H1481.2C1490.35 1485.1 1498.6 1490.61 1502.11 1499.06L1510.86 1520.14C1512 1522.89 1512.59 1525.84 1512.59 1528.82V1541.9C1512.59 1547.32 1508.19 1551.71 1502.78 1551.71L1394.92 1551.71C1389.53 1551.71 1385.17 1547.35 1385.17 1541.96V1515.5C1385.17 1512.3 1387.76 1509.71 1390.96 1509.71H1399.48C1402.16 1509.71 1404.33 1507.53 1404.33 1504.85C1404.33 1502.17 1402.16 1500 1399.48 1500H1390.02C1387.34 1500 1385.17 1497.83 1385.17 1495.15C1385.17 1492.47 1387.34 1490.3 1390.02 1490.3H1414.03C1416.71 1490.3 1418.88 1488.12 1418.88 1485.44C1418.88 1482.76 1416.71 1480.59 1414.03 1480.59H1381.86C1379.17 1480.59 1376.99 1478.41 1376.99 1475.72ZM1474.92 1500.02C1474.92 1497.11 1477.29 1494.74 1480.2 1494.74H1483.94C1487.9 1494.74 1491.48 1497.12 1493 1500.78L1499.01 1515.24C1500.46 1518.72 1497.9 1522.55 1494.13 1522.55H1480.2C1477.29 1522.55 1474.92 1520.18 1474.92 1517.27V1500.02Z" fill="black"/>
<path d="M1428.55 1567.82C1428.55 1574.03 1423.51 1579.07 1417.3 1579.07C1411.09 1579.07 1406.05 1574.03 1406.05 1567.82C1406.05 1561.61 1411.09 1556.57 1417.3 1556.57C1423.51 1556.57 1428.55 1561.61 1428.55 1567.82Z" fill="black"/>
<path d="M1491.19 1567.82C1491.19 1574.03 1486.15 1579.07 1479.94 1579.07C1473.73 1579.07 1468.69 1574.03 1468.69 1567.82C1468.69 1561.61 1473.73 1556.57 1479.94 1556.57C1486.15 1556.57 1491.19 1561.61 1491.19 1567.82Z" fill="black"/>
</g>
</g>
</g>
<g id="Light-L">
<g id="Solid / Post Solid_7">
<g id="Shape_7">
<path fill-rule="evenodd" clip-rule="evenodd" d="M1080.99 1475.72C1080.99 1473.03 1083.17 1470.84 1085.86 1470.84L1165.31 1470.84C1173.18 1470.84 1179.56 1477.23 1179.56 1485.1H1185.2C1194.35 1485.1 1202.6 1490.61 1206.11 1499.06L1214.86 1520.14C1216 1522.89 1216.59 1525.84 1216.59 1528.82V1541.9C1216.59 1547.32 1212.19 1551.71 1206.78 1551.71L1098.92 1551.71C1093.53 1551.71 1089.17 1547.35 1089.17 1541.96V1515.5C1089.17 1512.3 1091.76 1509.71 1094.96 1509.71H1103.48C1106.16 1509.71 1108.33 1507.53 1108.33 1504.85C1108.33 1502.17 1106.16 1500 1103.48 1500H1094.02C1091.34 1500 1089.17 1497.83 1089.17 1495.15C1089.17 1492.47 1091.34 1490.3 1094.02 1490.3H1118.03C1120.71 1490.3 1122.88 1488.12 1122.88 1485.44C1122.88 1482.76 1120.71 1480.59 1118.03 1480.59H1085.86C1083.17 1480.59 1080.99 1478.41 1080.99 1475.72ZM1178.92 1500.02C1178.92 1497.11 1181.29 1494.74 1184.2 1494.74H1187.94C1191.9 1494.74 1195.48 1497.12 1197 1500.78L1203.01 1515.24C1204.46 1518.72 1201.9 1522.55 1198.13 1522.55H1184.2C1181.29 1522.55 1178.92 1520.18 1178.92 1517.27V1500.02Z" fill="black"/>
<path d="M1132.55 1567.82C1132.55 1574.03 1127.51 1579.07 1121.3 1579.07C1115.09 1579.07 1110.05 1574.03 1110.05 1567.82C1110.05 1561.61 1115.09 1556.57 1121.3 1556.57C1127.51 1556.57 1132.55 1561.61 1132.55 1567.82Z" fill="black"/>
<path d="M1195.19 1567.82C1195.19 1574.03 1190.15 1579.07 1183.94 1579.07C1177.73 1579.07 1172.69 1574.03 1172.69 1567.82C1172.69 1561.61 1177.73 1556.57 1183.94 1556.57C1190.15 1556.57 1195.19 1561.61 1195.19 1567.82Z" fill="black"/>
</g>
</g>
</g>
<g id="Thin-L">
<g id="Solid / Post Solid_8">
<g id="Shape_8">
<path fill-rule="evenodd" clip-rule="evenodd" d="M784.988 1475.72C784.988 1473.03 787.171 1470.84 789.862 1470.84L869.309 1470.84C877.181 1470.84 883.563 1477.23 883.563 1485.1H889.197C898.347 1485.1 906.597 1490.61 910.105 1499.06L918.856 1520.14C919.998 1522.89 920.586 1525.84 920.586 1528.82V1541.9C920.586 1547.32 916.194 1551.71 910.776 1551.71L802.917 1551.71C797.532 1551.71 793.167 1547.35 793.167 1541.96V1515.5C793.167 1512.3 795.761 1509.71 798.96 1509.71H807.479C810.158 1509.71 812.331 1507.53 812.331 1504.85C812.331 1502.17 810.158 1500 807.479 1500H798.019C795.339 1500 793.167 1497.83 793.167 1495.15C793.167 1492.47 795.339 1490.3 798.019 1490.3H822.028C824.707 1490.3 826.88 1488.12 826.88 1485.44C826.88 1482.76 824.707 1480.59 822.028 1480.59H789.863C787.171 1480.59 784.988 1478.41 784.988 1475.72ZM882.922 1500.02C882.922 1497.11 885.287 1494.74 888.205 1494.74H891.941C895.904 1494.74 899.477 1497.12 900.999 1500.78L907.011 1515.24C908.457 1518.72 905.901 1522.55 902.133 1522.55H888.205C885.287 1522.55 882.922 1520.18 882.922 1517.27V1500.02Z" fill="black"/>
<path d="M836.552 1567.82C836.552 1574.03 831.515 1579.07 825.302 1579.07C819.088 1579.07 814.052 1574.03 814.052 1567.82C814.052 1561.61 819.088 1556.57 825.302 1556.57C831.515 1556.57 836.552 1561.61 836.552 1567.82Z" fill="black"/>
<path d="M899.191 1567.82C899.191 1574.03 894.154 1579.07 887.941 1579.07C881.728 1579.07 876.691 1574.03 876.691 1567.82C876.691 1561.61 881.728 1556.57 887.941 1556.57C894.154 1556.57 899.191 1561.61 899.191 1567.82Z" fill="black"/>
</g>
</g>
</g>
<g id="Ultralight-L">
<g id="Solid / Post Solid_9">
<g id="Shape_9">
<path fill-rule="evenodd" clip-rule="evenodd" d="M488.988 1475.72C488.988 1473.03 491.171 1470.84 493.862 1470.84L573.309 1470.84C581.181 1470.84 587.563 1477.23 587.563 1485.1H593.197C602.347 1485.1 610.597 1490.61 614.105 1499.06L622.856 1520.14C623.998 1522.89 624.586 1525.84 624.586 1528.82V1541.9C624.586 1547.32 620.194 1551.71 614.776 1551.71L506.917 1551.71C501.532 1551.71 497.167 1547.35 497.167 1541.96V1515.5C497.167 1512.3 499.761 1509.71 502.96 1509.71H511.479C514.158 1509.71 516.331 1507.53 516.331 1504.85C516.331 1502.17 514.158 1500 511.479 1500H502.019C499.339 1500 497.167 1497.83 497.167 1495.15C497.167 1492.47 499.339 1490.3 502.019 1490.3H526.028C528.707 1490.3 530.88 1488.12 530.88 1485.44C530.88 1482.76 528.707 1480.59 526.028 1480.59H493.863C491.171 1480.59 488.988 1478.41 488.988 1475.72ZM586.922 1500.02C586.922 1497.11 589.287 1494.74 592.205 1494.74H595.941C599.904 1494.74 603.477 1497.12 604.999 1500.78L611.011 1515.24C612.457 1518.72 609.901 1522.55 606.133 1522.55H592.205C589.287 1522.55 586.922 1520.18 586.922 1517.27V1500.02Z" fill="black"/>
<path d="M540.552 1567.82C540.552 1574.03 535.515 1579.07 529.302 1579.07C523.088 1579.07 518.052 1574.03 518.052 1567.82C518.052 1561.61 523.088 1556.57 529.302 1556.57C535.515 1556.57 540.552 1561.61 540.552 1567.82Z" fill="black"/>
<path d="M603.191 1567.82C603.191 1574.03 598.154 1579.07 591.941 1579.07C585.728 1579.07 580.691 1574.03 580.691 1567.82C580.691 1561.61 585.728 1556.57 591.941 1556.57C598.154 1556.57 603.191 1561.61 603.191 1567.82Z" fill="black"/>
</g>
</g>
</g>
<g id="Black-M">
<g id="Solid / Post Solid_10">
<g id="Shape_10">
<path fill-rule="evenodd" clip-rule="evenodd" d="M2872.99 1055.78C2872.99 1053.69 2874.69 1051.99 2876.78 1051.99L2938.57 1051.99C2944.7 1051.99 2949.66 1056.95 2949.66 1063.08H2954.04C2961.16 1063.08 2967.58 1067.36 2970.3 1073.93L2977.11 1090.33C2978 1092.47 2978.46 1094.76 2978.46 1097.08V1107.25C2978.46 1111.47 2975.04 1114.88 2970.83 1114.88L2886.93 1114.89C2882.75 1114.89 2879.35 1111.49 2879.35 1107.3V1086.72C2879.35 1084.23 2881.37 1082.21 2883.86 1082.21H2890.48C2892.57 1082.21 2894.26 1080.52 2894.26 1078.44C2894.26 1076.36 2892.57 1074.67 2890.48 1074.67H2883.13C2881.04 1074.67 2879.35 1072.98 2879.35 1070.89C2879.35 1068.81 2881.04 1067.12 2883.13 1067.12H2901.8C2903.88 1067.12 2905.57 1065.43 2905.57 1063.34C2905.57 1061.26 2903.88 1059.57 2901.8 1059.57H2876.78C2874.69 1059.57 2872.99 1057.87 2872.99 1055.78ZM2949.16 1074.68C2949.16 1072.41 2951 1070.57 2953.27 1070.57H2956.18C2959.26 1070.57 2962.04 1072.43 2963.22 1075.27L2967.9 1086.52C2969.02 1089.22 2967.03 1092.2 2964.1 1092.2H2953.27C2951 1092.2 2949.16 1090.36 2949.16 1088.1V1074.68Z" fill="black"/>
<path d="M2913.1 1127.42C2913.1 1132.25 2909.18 1136.17 2904.35 1136.17C2899.51 1136.17 2895.6 1132.25 2895.6 1127.42C2895.6 1122.58 2899.51 1118.67 2904.35 1118.67C2909.18 1118.67 2913.1 1122.58 2913.1 1127.42Z" fill="black"/>
<path d="M2961.81 1127.42C2961.81 1132.25 2957.9 1136.17 2953.06 1136.17C2948.23 1136.17 2944.31 1132.25 2944.31 1127.42C2944.31 1122.58 2948.23 1118.67 2953.06 1118.67C2957.9 1118.67 2961.81 1122.58 2961.81 1127.42Z" fill="black"/>
</g>
</g>
</g>
<g id="Heavy-M">
<g id="Solid / Post Solid_11">
<g id="Shape_11">
<path fill-rule="evenodd" clip-rule="evenodd" d="M2576.99 1055.78C2576.99 1053.69 2578.69 1051.99 2580.78 1051.99L2642.57 1051.99C2648.7 1051.99 2653.66 1056.95 2653.66 1063.08H2658.04C2665.16 1063.08 2671.58 1067.36 2674.3 1073.93L2681.11 1090.33C2682 1092.47 2682.46 1094.76 2682.46 1097.08V1107.25C2682.46 1111.47 2679.04 1114.88 2674.83 1114.88L2590.93 1114.89C2586.75 1114.89 2583.35 1111.49 2583.35 1107.3V1086.72C2583.35 1084.23 2585.37 1082.21 2587.86 1082.21H2594.48C2596.57 1082.21 2598.26 1080.52 2598.26 1078.44C2598.26 1076.36 2596.57 1074.67 2594.48 1074.67H2587.13C2585.04 1074.67 2583.35 1072.98 2583.35 1070.89C2583.35 1068.81 2585.04 1067.12 2587.13 1067.12H2605.8C2607.88 1067.12 2609.57 1065.43 2609.57 1063.34C2609.57 1061.26 2607.88 1059.57 2605.8 1059.57H2580.78C2578.69 1059.57 2576.99 1057.87 2576.99 1055.78ZM2653.16 1074.68C2653.16 1072.41 2655 1070.57 2657.27 1070.57H2660.18C2663.26 1070.57 2666.04 1072.43 2667.22 1075.27L2671.9 1086.52C2673.02 1089.22 2671.03 1092.2 2668.1 1092.2H2657.27C2655 1092.2 2653.16 1090.36 2653.16 1088.1V1074.68Z" fill="black"/>
<path d="M2617.1 1127.42C2617.1 1132.25 2613.18 1136.17 2608.35 1136.17C2603.51 1136.17 2599.6 1132.25 2599.6 1127.42C2599.6 1122.58 2603.51 1118.67 2608.35 1118.67C2613.18 1118.67 2617.1 1122.58 2617.1 1127.42Z" fill="black"/>
<path d="M2665.81 1127.42C2665.81 1132.25 2661.9 1136.17 2657.06 1136.17C2652.23 1136.17 2648.31 1132.25 2648.31 1127.42C2648.31 1122.58 2652.23 1118.67 2657.06 1118.67C2661.9 1118.67 2665.81 1122.58 2665.81 1127.42Z" fill="black"/>
</g>
</g>
</g>
<g id="Bold-M">
<g id="Solid / Post Solid_12">
<g id="Shape_12">
<path fill-rule="evenodd" clip-rule="evenodd" d="M2280.99 1055.78C2280.99 1053.69 2282.69 1051.99 2284.78 1051.99L2346.57 1051.99C2352.7 1051.99 2357.66 1056.95 2357.66 1063.08H2362.04C2369.16 1063.08 2375.58 1067.36 2378.3 1073.93L2385.11 1090.33C2386 1092.47 2386.46 1094.76 2386.46 1097.08V1107.25C2386.46 1111.47 2383.04 1114.88 2378.83 1114.88L2294.93 1114.89C2290.75 1114.89 2287.35 1111.49 2287.35 1107.3V1086.72C2287.35 1084.23 2289.37 1082.21 2291.86 1082.21H2298.48C2300.57 1082.21 2302.26 1080.52 2302.26 1078.44C2302.26 1076.36 2300.57 1074.67 2298.48 1074.67H2291.13C2289.04 1074.67 2287.35 1072.98 2287.35 1070.89C2287.35 1068.81 2289.04 1067.12 2291.13 1067.12H2309.8C2311.88 1067.12 2313.57 1065.43 2313.57 1063.34C2313.57 1061.26 2311.88 1059.57 2309.8 1059.57H2284.78C2282.69 1059.57 2280.99 1057.87 2280.99 1055.78ZM2357.16 1074.68C2357.16 1072.41 2359 1070.57 2361.27 1070.57H2364.18C2367.26 1070.57 2370.04 1072.43 2371.22 1075.27L2375.9 1086.52C2377.02 1089.22 2375.03 1092.2 2372.1 1092.2H2361.27C2359 1092.2 2357.16 1090.36 2357.16 1088.1V1074.68Z" fill="black"/>
<path d="M2321.1 1127.42C2321.1 1132.25 2317.18 1136.17 2312.35 1136.17C2307.51 1136.17 2303.6 1132.25 2303.6 1127.42C2303.6 1122.58 2307.51 1118.67 2312.35 1118.67C2317.18 1118.67 2321.1 1122.58 2321.1 1127.42Z" fill="black"/>
<path d="M2369.81 1127.42C2369.81 1132.25 2365.9 1136.17 2361.06 1136.17C2356.23 1136.17 2352.31 1132.25 2352.31 1127.42C2352.31 1122.58 2356.23 1118.67 2361.06 1118.67C2365.9 1118.67 2369.81 1122.58 2369.81 1127.42Z" fill="black"/>
</g>
</g>
</g>
<g id="Semibold-M">
<g id="Solid / Post Solid_13">
<g id="Shape_13">
<path fill-rule="evenodd" clip-rule="evenodd" d="M1984.99 1055.78C1984.99 1053.69 1986.69 1051.99 1988.78 1051.99L2050.57 1051.99C2056.7 1051.99 2061.66 1056.95 2061.66 1063.08H2066.04C2073.16 1063.08 2079.58 1067.36 2082.3 1073.93L2089.11 1090.33C2090 1092.47 2090.46 1094.76 2090.46 1097.08V1107.25C2090.46 1111.47 2087.04 1114.88 2082.83 1114.88L1998.93 1114.89C1994.75 1114.89 1991.35 1111.49 1991.35 1107.3V1086.72C1991.35 1084.23 1993.37 1082.21 1995.86 1082.21H2002.48C2004.57 1082.21 2006.26 1080.52 2006.26 1078.44C2006.26 1076.36 2004.57 1074.67 2002.48 1074.67H1995.13C1993.04 1074.67 1991.35 1072.98 1991.35 1070.89C1991.35 1068.81 1993.04 1067.12 1995.13 1067.12H2013.8C2015.88 1067.12 2017.57 1065.43 2017.57 1063.34C2017.57 1061.26 2015.88 1059.57 2013.8 1059.57H1988.78C1986.69 1059.57 1984.99 1057.87 1984.99 1055.78ZM2061.16 1074.68C2061.16 1072.41 2063 1070.57 2065.27 1070.57H2068.18C2071.26 1070.57 2074.04 1072.43 2075.22 1075.27L2079.9 1086.52C2081.02 1089.22 2079.03 1092.2 2076.1 1092.2H2065.27C2063 1092.2 2061.16 1090.36 2061.16 1088.1V1074.68Z" fill="black"/>
<path d="M2025.1 1127.42C2025.1 1132.25 2021.18 1136.17 2016.35 1136.17C2011.51 1136.17 2007.6 1132.25 2007.6 1127.42C2007.6 1122.58 2011.51 1118.67 2016.35 1118.67C2021.18 1118.67 2025.1 1122.58 2025.1 1127.42Z" fill="black"/>
<path d="M2073.81 1127.42C2073.81 1132.25 2069.9 1136.17 2065.06 1136.17C2060.23 1136.17 2056.31 1132.25 2056.31 1127.42C2056.31 1122.58 2060.23 1118.67 2065.06 1118.67C2069.9 1118.67 2073.81 1122.58 2073.81 1127.42Z" fill="black"/>
</g>
</g>
</g>
<g id="Medium-M">
<g id="Solid / Post Solid_14">
<g id="Shape_14">
<path fill-rule="evenodd" clip-rule="evenodd" d="M1688.99 1055.78C1688.99 1053.69 1690.69 1051.99 1692.78 1051.99L1754.57 1051.99C1760.7 1051.99 1765.66 1056.95 1765.66 1063.08H1770.04C1777.16 1063.08 1783.58 1067.36 1786.3 1073.93L1793.11 1090.33C1794 1092.47 1794.46 1094.76 1794.46 1097.08V1107.25C1794.46 1111.47 1791.04 1114.88 1786.83 1114.88L1702.93 1114.89C1698.75 1114.89 1695.35 1111.49 1695.35 1107.3V1086.72C1695.35 1084.23 1697.37 1082.21 1699.86 1082.21H1706.48C1708.57 1082.21 1710.26 1080.52 1710.26 1078.44C1710.26 1076.36 1708.57 1074.67 1706.48 1074.67H1699.13C1697.04 1074.67 1695.35 1072.98 1695.35 1070.89C1695.35 1068.81 1697.04 1067.12 1699.13 1067.12H1717.8C1719.88 1067.12 1721.57 1065.43 1721.57 1063.34C1721.57 1061.26 1719.88 1059.57 1717.8 1059.57H1692.78C1690.69 1059.57 1688.99 1057.87 1688.99 1055.78ZM1765.16 1074.68C1765.16 1072.41 1767 1070.57 1769.27 1070.57H1772.18C1775.26 1070.57 1778.04 1072.43 1779.22 1075.27L1783.9 1086.52C1785.02 1089.22 1783.03 1092.2 1780.1 1092.2H1769.27C1767 1092.2 1765.16 1090.36 1765.16 1088.1V1074.68Z" fill="black"/>
<path d="M1729.1 1127.42C1729.1 1132.25 1725.18 1136.17 1720.35 1136.17C1715.51 1136.17 1711.6 1132.25 1711.6 1127.42C1711.6 1122.58 1715.51 1118.67 1720.35 1118.67C1725.18 1118.67 1729.1 1122.58 1729.1 1127.42Z" fill="black"/>
<path d="M1777.81 1127.42C1777.81 1132.25 1773.9 1136.17 1769.06 1136.17C1764.23 1136.17 1760.31 1132.25 1760.31 1127.42C1760.31 1122.58 1764.23 1118.67 1769.06 1118.67C1773.9 1118.67 1777.81 1122.58 1777.81 1127.42Z" fill="black"/>
</g>
</g>
</g>
<g id="Regular-M">
<g id="Solid / Post Solid_15">
<g id="Shape_15">
<path fill-rule="evenodd" clip-rule="evenodd" d="M1392.99 1055.78C1392.99 1053.69 1394.69 1051.99 1396.78 1051.99L1458.57 1051.99C1464.7 1051.99 1469.66 1056.95 1469.66 1063.08H1474.04C1481.16 1063.08 1487.58 1067.36 1490.3 1073.93L1497.11 1090.33C1498 1092.47 1498.46 1094.76 1498.46 1097.08V1107.25C1498.46 1111.47 1495.04 1114.88 1490.83 1114.88L1406.93 1114.89C1402.75 1114.89 1399.35 1111.49 1399.35 1107.3V1086.72C1399.35 1084.23 1401.37 1082.21 1403.86 1082.21H1410.48C1412.57 1082.21 1414.26 1080.52 1414.26 1078.44C1414.26 1076.36 1412.57 1074.67 1410.48 1074.67H1403.13C1401.04 1074.67 1399.35 1072.98 1399.35 1070.89C1399.35 1068.81 1401.04 1067.12 1403.13 1067.12H1421.8C1423.88 1067.12 1425.57 1065.43 1425.57 1063.34C1425.57 1061.26 1423.88 1059.57 1421.8 1059.57H1396.78C1394.69 1059.57 1392.99 1057.87 1392.99 1055.78ZM1469.16 1074.68C1469.16 1072.41 1471 1070.57 1473.27 1070.57H1476.18C1479.26 1070.57 1482.04 1072.43 1483.22 1075.27L1487.9 1086.52C1489.02 1089.22 1487.03 1092.2 1484.1 1092.2H1473.27C1471 1092.2 1469.16 1090.36 1469.16 1088.1V1074.68Z" fill="black"/>
<path d="M1433.1 1127.42C1433.1 1132.25 1429.18 1136.17 1424.35 1136.17C1419.51 1136.17 1415.6 1132.25 1415.6 1127.42C1415.6 1122.58 1419.51 1118.67 1424.35 1118.67C1429.18 1118.67 1433.1 1122.58 1433.1 1127.42Z" fill="black"/>
<path d="M1481.81 1127.42C1481.81 1132.25 1477.9 1136.17 1473.06 1136.17C1468.23 1136.17 1464.31 1132.25 1464.31 1127.42C1464.31 1122.58 1468.23 1118.67 1473.06 1118.67C1477.9 1118.67 1481.81 1122.58 1481.81 1127.42Z" fill="black"/>
</g>
</g>
</g>
<g id="Light-M">
<g id="Solid / Post Solid_16">
<g id="Shape_16">
<path fill-rule="evenodd" clip-rule="evenodd" d="M1096.99 1055.78C1096.99 1053.69 1098.69 1051.99 1100.78 1051.99L1162.57 1051.99C1168.7 1051.99 1173.66 1056.95 1173.66 1063.08H1178.04C1185.16 1063.08 1191.58 1067.36 1194.3 1073.93L1201.11 1090.33C1202 1092.47 1202.46 1094.76 1202.46 1097.08V1107.25C1202.46 1111.47 1199.04 1114.88 1194.83 1114.88L1110.93 1114.89C1106.75 1114.89 1103.35 1111.49 1103.35 1107.3V1086.72C1103.35 1084.23 1105.37 1082.21 1107.86 1082.21H1114.48C1116.57 1082.21 1118.26 1080.52 1118.26 1078.44C1118.26 1076.36 1116.57 1074.67 1114.48 1074.67H1107.13C1105.04 1074.67 1103.35 1072.98 1103.35 1070.89C1103.35 1068.81 1105.04 1067.12 1107.13 1067.12H1125.8C1127.88 1067.12 1129.57 1065.43 1129.57 1063.34C1129.57 1061.26 1127.88 1059.57 1125.8 1059.57H1100.78C1098.69 1059.57 1096.99 1057.87 1096.99 1055.78ZM1173.16 1074.68C1173.16 1072.41 1175 1070.57 1177.27 1070.57H1180.18C1183.26 1070.57 1186.04 1072.43 1187.22 1075.27L1191.9 1086.52C1193.02 1089.22 1191.03 1092.2 1188.1 1092.2H1177.27C1175 1092.2 1173.16 1090.36 1173.16 1088.1V1074.68Z" fill="black"/>
<path d="M1137.1 1127.42C1137.1 1132.25 1133.18 1136.17 1128.35 1136.17C1123.51 1136.17 1119.6 1132.25 1119.6 1127.42C1119.6 1122.58 1123.51 1118.67 1128.35 1118.67C1133.18 1118.67 1137.1 1122.58 1137.1 1127.42Z" fill="black"/>
<path d="M1185.81 1127.42C1185.81 1132.25 1181.9 1136.17 1177.06 1136.17C1172.23 1136.17 1168.31 1132.25 1168.31 1127.42C1168.31 1122.58 1172.23 1118.67 1177.06 1118.67C1181.9 1118.67 1185.81 1122.58 1185.81 1127.42Z" fill="black"/>
</g>
</g>
</g>
<g id="Thin-M">
<g id="Solid / Post Solid_17">
<g id="Shape_17">
<path fill-rule="evenodd" clip-rule="evenodd" d="M800.99 1055.78C800.99 1053.69 802.688 1051.99 804.781 1051.99L866.573 1051.99C872.696 1051.99 877.659 1056.95 877.659 1063.08H882.041C889.158 1063.08 895.575 1067.36 898.304 1073.93L905.11 1090.33C905.998 1092.47 906.455 1094.76 906.455 1097.08V1107.25C906.455 1111.47 903.039 1114.88 898.825 1114.88L814.935 1114.89C810.746 1114.89 807.351 1111.49 807.351 1107.3V1086.72C807.351 1084.23 809.369 1082.21 811.857 1082.21H818.483C820.567 1082.21 822.257 1080.52 822.257 1078.44C822.257 1076.36 820.567 1074.67 818.483 1074.67H811.125C809.041 1074.67 807.351 1072.98 807.351 1070.89C807.351 1068.81 809.041 1067.12 811.125 1067.12H829.799C831.883 1067.12 833.573 1065.43 833.573 1063.34C833.573 1061.26 831.883 1059.57 829.799 1059.57H804.781C802.688 1059.57 800.99 1057.87 800.99 1055.78ZM877.161 1074.68C877.161 1072.41 879.001 1070.57 881.27 1070.57H884.176C887.258 1070.57 890.037 1072.43 891.221 1075.27L895.897 1086.52C897.022 1089.22 895.034 1092.2 892.103 1092.2H881.27C879.001 1092.2 877.161 1090.36 877.161 1088.1V1074.68Z" fill="black"/>
<path d="M841.095 1127.42C841.095 1132.25 837.178 1136.17 832.345 1136.17C827.513 1136.17 823.595 1132.25 823.595 1127.42C823.595 1122.58 827.513 1118.67 832.345 1118.67C837.178 1118.67 841.095 1122.58 841.095 1127.42Z" fill="black"/>
<path d="M889.815 1127.42C889.815 1132.25 885.897 1136.17 881.065 1136.17C876.232 1136.17 872.315 1132.25 872.315 1127.42C872.315 1122.58 876.232 1118.67 881.065 1118.67C885.897 1118.67 889.815 1122.58 889.815 1127.42Z" fill="black"/>
</g>
</g>
</g>
<g id="Ultralight-M">
<g id="Solid / Post Solid_18">
<g id="Shape_18">
<path fill-rule="evenodd" clip-rule="evenodd" d="M504.99 1055.78C504.99 1053.69 506.688 1051.99 508.781 1051.99L570.573 1051.99C576.696 1051.99 581.659 1056.95 581.659 1063.08H586.041C593.158 1063.08 599.575 1067.36 602.304 1073.93L609.11 1090.33C609.998 1092.47 610.455 1094.76 610.455 1097.08V1107.25C610.455 1111.47 607.039 1114.88 602.825 1114.88L518.935 1114.89C514.746 1114.89 511.351 1111.49 511.351 1107.3V1086.72C511.351 1084.23 513.369 1082.21 515.857 1082.21H522.483C524.567 1082.21 526.257 1080.52 526.257 1078.44C526.257 1076.36 524.567 1074.67 522.483 1074.67H515.125C513.041 1074.67 511.351 1072.98 511.351 1070.89C511.351 1068.81 513.041 1067.12 515.125 1067.12H533.799C535.883 1067.12 537.573 1065.43 537.573 1063.34C537.573 1061.26 535.883 1059.57 533.799 1059.57H508.781C506.688 1059.57 504.99 1057.87 504.99 1055.78ZM581.161 1074.68C581.161 1072.41 583.001 1070.57 585.27 1070.57H588.176C591.258 1070.57 594.037 1072.43 595.221 1075.27L599.897 1086.52C601.022 1089.22 599.034 1092.2 596.103 1092.2H585.27C583.001 1092.2 581.161 1090.36 581.161 1088.1V1074.68Z" fill="black"/>
<path d="M545.095 1127.42C545.095 1132.25 541.178 1136.17 536.345 1136.17C531.513 1136.17 527.595 1132.25 527.595 1127.42C527.595 1122.58 531.513 1118.67 536.345 1118.67C541.178 1118.67 545.095 1122.58 545.095 1127.42Z" fill="black"/>
<path d="M593.815 1127.42C593.815 1132.25 589.897 1136.17 585.065 1136.17C580.232 1136.17 576.315 1132.25 576.315 1127.42C576.315 1122.58 580.232 1118.67 585.065 1118.67C589.897 1118.67 593.815 1122.58 593.815 1127.42Z" fill="black"/>
</g>
</g>
</g>
<g id="Black-S">
<g id="Solid / Post Solid_19">
<g id="Shape_19">
<path fill-rule="evenodd" clip-rule="evenodd" d="M2888.99 635.845C2888.99 634.349 2890.21 633.137 2891.7 633.137L2935.84 633.137C2940.21 633.137 2943.76 636.682 2943.76 641.056H2946.89C2951.97 641.056 2956.55 644.116 2958.5 648.811L2963.37 660.523C2964 662.051 2964.33 663.69 2964.33 665.345V672.613C2964.33 675.623 2961.89 678.063 2958.88 678.063L2898.95 678.063C2895.96 678.063 2893.54 675.638 2893.54 672.646V657.945C2893.54 656.168 2894.98 654.727 2896.76 654.727H2901.49C2902.98 654.727 2904.18 653.52 2904.18 652.031C2904.18 650.542 2902.98 649.335 2901.49 649.335H2896.23C2894.74 649.335 2893.54 648.128 2893.54 646.64C2893.54 645.151 2894.74 643.944 2896.23 643.944H2909.57C2911.06 643.944 2912.27 642.737 2912.27 641.248C2912.27 639.759 2911.06 638.553 2909.57 638.553H2891.7C2890.21 638.553 2888.99 637.34 2888.99 635.845ZM2943.4 649.347C2943.4 647.726 2944.72 646.413 2946.34 646.413H2948.41C2950.61 646.413 2952.6 647.737 2953.44 649.77L2956.78 657.801C2957.59 659.734 2956.17 661.862 2954.07 661.862H2946.34C2944.72 661.862 2943.4 660.548 2943.4 658.928V649.347Z" fill="black"/>
<path d="M2917.64 687.013C2917.64 690.465 2914.84 693.263 2911.39 693.263C2907.94 693.263 2905.14 690.465 2905.14 687.013C2905.14 683.561 2907.94 680.763 2911.39 680.763C2914.84 680.763 2917.64 683.561 2917.64 687.013Z" fill="black"/>
<path d="M2952.44 687.013C2952.44 690.465 2949.64 693.263 2946.19 693.263C2942.74 693.263 2939.94 690.465 2939.94 687.013C2939.94 683.561 2942.74 680.763 2946.19 680.763C2949.64 680.763 2952.44 683.561 2952.44 687.013Z" fill="black"/>
</g>
</g>
</g>
<g id="Heavy-S">
<g id="Solid / Post Solid_20">
<g id="Shape_20">
<path fill-rule="evenodd" clip-rule="evenodd" d="M2592.99 635.845C2592.99 634.349 2594.21 633.137 2595.7 633.137L2639.84 633.137C2644.21 633.137 2647.76 636.682 2647.76 641.056H2650.89C2655.97 641.056 2660.55 644.116 2662.5 648.811L2667.37 660.523C2668 662.051 2668.33 663.69 2668.33 665.345V672.613C2668.33 675.623 2665.89 678.063 2662.88 678.063L2602.95 678.063C2599.96 678.063 2597.54 675.638 2597.54 672.646V657.945C2597.54 656.168 2598.98 654.727 2600.76 654.727H2605.49C2606.98 654.727 2608.18 653.52 2608.18 652.031C2608.18 650.542 2606.98 649.335 2605.49 649.335H2600.23C2598.74 649.335 2597.54 648.128 2597.54 646.64C2597.54 645.151 2598.74 643.944 2600.23 643.944H2613.57C2615.06 643.944 2616.27 642.737 2616.27 641.248C2616.27 639.759 2615.06 638.553 2613.57 638.553H2595.7C2594.21 638.553 2592.99 637.34 2592.99 635.845ZM2647.4 649.347C2647.4 647.726 2648.72 646.413 2650.34 646.413H2652.41C2654.61 646.413 2656.6 647.737 2657.44 649.77L2660.78 657.801C2661.59 659.734 2660.17 661.862 2658.07 661.862H2650.34C2648.72 661.862 2647.4 660.548 2647.4 658.928V649.347Z" fill="black"/>
<path d="M2621.64 687.013C2621.64 690.465 2618.84 693.263 2615.39 693.263C2611.94 693.263 2609.14 690.465 2609.14 687.013C2609.14 683.561 2611.94 680.763 2615.39 680.763C2618.84 680.763 2621.64 683.561 2621.64 687.013Z" fill="black"/>
<path d="M2656.44 687.013C2656.44 690.465 2653.64 693.263 2650.19 693.263C2646.74 693.263 2643.94 690.465 2643.94 687.013C2643.94 683.561 2646.74 680.763 2650.19 680.763C2653.64 680.763 2656.44 683.561 2656.44 687.013Z" fill="black"/>
</g>
</g>
</g>
<g id="Bold-S">
<g id="Solid / Post Solid_21">
<g id="Shape_21">
<path fill-rule="evenodd" clip-rule="evenodd" d="M2296.99 635.845C2296.99 634.349 2298.21 633.137 2299.7 633.137L2343.84 633.137C2348.21 633.137 2351.76 636.682 2351.76 641.056H2354.89C2359.97 641.056 2364.55 644.116 2366.5 648.811L2371.37 660.523C2372 662.051 2372.33 663.69 2372.33 665.345V672.613C2372.33 675.623 2369.89 678.063 2366.88 678.063L2306.95 678.063C2303.96 678.063 2301.54 675.638 2301.54 672.646V657.945C2301.54 656.168 2302.98 654.727 2304.76 654.727H2309.49C2310.98 654.727 2312.18 653.52 2312.18 652.031C2312.18 650.542 2310.98 649.335 2309.49 649.335H2304.23C2302.74 649.335 2301.54 648.128 2301.54 646.64C2301.54 645.151 2302.74 643.944 2304.23 643.944H2317.57C2319.06 643.944 2320.27 642.737 2320.27 641.248C2320.27 639.759 2319.06 638.553 2317.57 638.553H2299.7C2298.21 638.553 2296.99 637.34 2296.99 635.845ZM2351.4 649.347C2351.4 647.726 2352.72 646.413 2354.34 646.413H2356.41C2358.61 646.413 2360.6 647.737 2361.44 649.77L2364.78 657.801C2365.59 659.734 2364.17 661.862 2362.07 661.862H2354.34C2352.72 661.862 2351.4 660.548 2351.4 658.928V649.347Z" fill="black"/>
<path d="M2325.64 687.013C2325.64 690.465 2322.84 693.263 2319.39 693.263C2315.94 693.263 2313.14 690.465 2313.14 687.013C2313.14 683.561 2315.94 680.763 2319.39 680.763C2322.84 680.763 2325.64 683.561 2325.64 687.013Z" fill="black"/>
<path d="M2360.44 687.013C2360.44 690.465 2357.64 693.263 2354.19 693.263C2350.74 693.263 2347.94 690.465 2347.94 687.013C2347.94 683.561 2350.74 680.763 2354.19 680.763C2357.64 680.763 2360.44 683.561 2360.44 687.013Z" fill="black"/>
</g>
</g>
</g>
<g id="Semibold-S">
<g id="Solid / Post Solid_22">
<g id="Shape_22">
<path fill-rule="evenodd" clip-rule="evenodd" d="M2000.99 635.845C2000.99 634.349 2002.21 633.137 2003.7 633.137L2047.84 633.137C2052.21 633.137 2055.76 636.682 2055.76 641.056H2058.89C2063.97 641.056 2068.55 644.116 2070.5 648.811L2075.37 660.523C2076 662.051 2076.33 663.69 2076.33 665.345V672.613C2076.33 675.623 2073.89 678.063 2070.88 678.063L2010.95 678.063C2007.96 678.063 2005.54 675.638 2005.54 672.646V657.945C2005.54 656.168 2006.98 654.727 2008.76 654.727H2013.49C2014.98 654.727 2016.18 653.52 2016.18 652.031C2016.18 650.542 2014.98 649.335 2013.49 649.335H2008.23C2006.74 649.335 2005.54 648.128 2005.54 646.64C2005.54 645.151 2006.74 643.944 2008.23 643.944H2021.57C2023.06 643.944 2024.27 642.737 2024.27 641.248C2024.27 639.759 2023.06 638.553 2021.57 638.553H2003.7C2002.21 638.553 2000.99 637.34 2000.99 635.845ZM2055.4 649.347C2055.4 647.726 2056.72 646.413 2058.34 646.413H2060.41C2062.61 646.413 2064.6 647.737 2065.44 649.77L2068.78 657.801C2069.59 659.734 2068.17 661.862 2066.07 661.862H2058.34C2056.72 661.862 2055.4 660.548 2055.4 658.928V649.347Z" fill="black"/>
<path d="M2029.64 687.013C2029.64 690.465 2026.84 693.263 2023.39 693.263C2019.94 693.263 2017.14 690.465 2017.14 687.013C2017.14 683.561 2019.94 680.763 2023.39 680.763C2026.84 680.763 2029.64 683.561 2029.64 687.013Z" fill="black"/>
<path d="M2064.44 687.013C2064.44 690.465 2061.64 693.263 2058.19 693.263C2054.74 693.263 2051.94 690.465 2051.94 687.013C2051.94 683.561 2054.74 680.763 2058.19 680.763C2061.64 680.763 2064.44 683.561 2064.44 687.013Z" fill="black"/>
</g>
</g>
</g>
<g id="Medium-S">
<g id="Solid / Post Solid_23">
<g id="Shape_23">
<path fill-rule="evenodd" clip-rule="evenodd" d="M1704.99 635.845C1704.99 634.349 1706.21 633.137 1707.7 633.137L1751.84 633.137C1756.21 633.137 1759.76 636.682 1759.76 641.056H1762.89C1767.97 641.056 1772.55 644.116 1774.5 648.811L1779.37 660.523C1780 662.051 1780.33 663.69 1780.33 665.345V672.613C1780.33 675.623 1777.89 678.063 1774.88 678.063L1714.95 678.063C1711.96 678.063 1709.54 675.638 1709.54 672.646V657.945C1709.54 656.168 1710.98 654.727 1712.76 654.727H1717.49C1718.98 654.727 1720.18 653.52 1720.18 652.031C1720.18 650.542 1718.98 649.335 1717.49 649.335H1712.23C1710.74 649.335 1709.54 648.128 1709.54 646.64C1709.54 645.151 1710.74 643.944 1712.23 643.944H1725.57C1727.06 643.944 1728.27 642.737 1728.27 641.248C1728.27 639.759 1727.06 638.553 1725.57 638.553H1707.7C1706.21 638.553 1704.99 637.34 1704.99 635.845ZM1759.4 649.347C1759.4 647.726 1760.72 646.413 1762.34 646.413H1764.41C1766.61 646.413 1768.6 647.737 1769.44 649.77L1772.78 657.801C1773.59 659.734 1772.17 661.862 1770.07 661.862H1762.34C1760.72 661.862 1759.4 660.548 1759.4 658.928V649.347Z" fill="black"/>
<path d="M1733.64 687.013C1733.64 690.465 1730.84 693.263 1727.39 693.263C1723.94 693.263 1721.14 690.465 1721.14 687.013C1721.14 683.561 1723.94 680.763 1727.39 680.763C1730.84 680.763 1733.64 683.561 1733.64 687.013Z" fill="black"/>
<path d="M1768.44 687.013C1768.44 690.465 1765.64 693.263 1762.19 693.263C1758.74 693.263 1755.94 690.465 1755.94 687.013C1755.94 683.561 1758.74 680.763 1762.19 680.763C1765.64 680.763 1768.44 683.561 1768.44 687.013Z" fill="black"/>
</g>
</g>
</g>
<g id="Regular-S">
<g id="Solid / Post Solid_24">
<g id="Shape_24">
<path fill-rule="evenodd" clip-rule="evenodd" d="M1408.99 635.845C1408.99 634.349 1410.21 633.137 1411.7 633.137L1455.84 633.137C1460.21 633.137 1463.76 636.682 1463.76 641.056H1466.89C1471.97 641.056 1476.55 644.116 1478.5 648.811L1483.37 660.523C1484 662.051 1484.33 663.69 1484.33 665.345V672.613C1484.33 675.623 1481.89 678.063 1478.88 678.063L1418.95 678.063C1415.96 678.063 1413.54 675.638 1413.54 672.646V657.945C1413.54 656.168 1414.98 654.727 1416.76 654.727H1421.49C1422.98 654.727 1424.18 653.52 1424.18 652.031C1424.18 650.542 1422.98 649.335 1421.49 649.335H1416.23C1414.74 649.335 1413.54 648.128 1413.54 646.64C1413.54 645.151 1414.74 643.944 1416.23 643.944H1429.57C1431.06 643.944 1432.27 642.737 1432.27 641.248C1432.27 639.759 1431.06 638.553 1429.57 638.553H1411.7C1410.21 638.553 1408.99 637.34 1408.99 635.845ZM1463.4 649.347C1463.4 647.726 1464.72 646.413 1466.34 646.413H1468.41C1470.61 646.413 1472.6 647.737 1473.44 649.77L1476.78 657.801C1477.59 659.734 1476.17 661.862 1474.07 661.862H1466.34C1464.72 661.862 1463.4 660.548 1463.4 658.928V649.347Z" fill="black"/>
<path d="M1437.64 687.013C1437.64 690.465 1434.84 693.263 1431.39 693.263C1427.94 693.263 1425.14 690.465 1425.14 687.013C1425.14 683.561 1427.94 680.763 1431.39 680.763C1434.84 680.763 1437.64 683.561 1437.64 687.013Z" fill="black"/>
<path d="M1472.44 687.013C1472.44 690.465 1469.64 693.263 1466.19 693.263C1462.74 693.263 1459.94 690.465 1459.94 687.013C1459.94 683.561 1462.74 680.763 1466.19 680.763C1469.64 680.763 1472.44 683.561 1472.44 687.013Z" fill="black"/>
</g>
</g>
</g>
<g id="Light-S">
<g id="Solid / Post Solid_25">
<g id="Shape_25">
<path fill-rule="evenodd" clip-rule="evenodd" d="M1112.99 635.845C1112.99 634.349 1114.21 633.137 1115.7 633.137L1159.84 633.137C1164.21 633.137 1167.76 636.682 1167.76 641.056H1170.89C1175.97 641.056 1180.55 644.116 1182.5 648.811L1187.37 660.523C1188 662.051 1188.33 663.69 1188.33 665.345V672.613C1188.33 675.623 1185.89 678.063 1182.88 678.063L1122.95 678.063C1119.96 678.063 1117.54 675.638 1117.54 672.646V657.945C1117.54 656.168 1118.98 654.727 1120.76 654.727H1125.49C1126.98 654.727 1128.18 653.52 1128.18 652.031C1128.18 650.542 1126.98 649.335 1125.49 649.335H1120.23C1118.74 649.335 1117.54 648.128 1117.54 646.64C1117.54 645.151 1118.74 643.944 1120.23 643.944H1133.57C1135.06 643.944 1136.27 642.737 1136.27 641.248C1136.27 639.759 1135.06 638.553 1133.57 638.553H1115.7C1114.21 638.553 1112.99 637.34 1112.99 635.845ZM1167.4 649.347C1167.4 647.726 1168.72 646.413 1170.34 646.413H1172.41C1174.61 646.413 1176.6 647.737 1177.44 649.77L1180.78 657.801C1181.59 659.734 1180.17 661.862 1178.07 661.862H1170.34C1168.72 661.862 1167.4 660.548 1167.4 658.928V649.347Z" fill="black"/>
<path d="M1141.64 687.013C1141.64 690.465 1138.84 693.263 1135.39 693.263C1131.94 693.263 1129.14 690.465 1129.14 687.013C1129.14 683.561 1131.94 680.763 1135.39 680.763C1138.84 680.763 1141.64 683.561 1141.64 687.013Z" fill="black"/>
<path d="M1176.44 687.013C1176.44 690.465 1173.64 693.263 1170.19 693.263C1166.74 693.263 1163.94 690.465 1163.94 687.013C1163.94 683.561 1166.74 680.763 1170.19 680.763C1173.64 680.763 1176.44 683.561 1176.44 687.013Z" fill="black"/>
</g>
</g>
</g>
<g id="Thin-S">
<g id="Solid / Post Solid_26">
<g id="Shape_26">
<path fill-rule="evenodd" clip-rule="evenodd" d="M816.994 635.845C816.994 634.349 818.207 633.137 819.702 633.137L863.839 633.137C868.212 633.137 871.758 636.682 871.758 641.056H874.888C879.971 641.056 884.555 644.116 886.504 648.811L891.365 660.523C892 662.051 892.326 663.69 892.326 665.345V672.613C892.326 675.623 889.886 678.063 886.876 678.063L826.954 678.063C823.963 678.063 821.538 675.638 821.538 672.646V657.945C821.538 656.168 822.979 654.727 824.756 654.727H829.489C830.978 654.727 832.184 653.52 832.184 652.031C832.184 650.542 830.978 649.335 829.489 649.335H824.233C822.745 649.335 821.538 648.128 821.538 646.64C821.538 645.151 822.745 643.944 824.233 643.944H837.572C839.06 643.944 840.267 642.737 840.267 641.248C840.267 639.759 839.06 638.553 837.572 638.553H819.702C818.207 638.553 816.994 637.34 816.994 635.845ZM871.402 649.347C871.402 647.726 872.716 646.413 874.337 646.413H876.412C878.614 646.413 880.599 647.737 881.444 649.77L884.784 657.801C885.588 659.734 884.168 661.862 882.075 661.862H874.337C872.716 661.862 871.402 660.548 871.402 658.928V649.347Z" fill="black"/>
<path d="M845.64 687.013C845.64 690.465 842.842 693.263 839.39 693.263C835.939 693.263 833.14 690.465 833.14 687.013C833.14 683.561 835.939 680.763 839.39 680.763C842.842 680.763 845.64 683.561 845.64 687.013Z" fill="black"/>
<path d="M880.44 687.013C880.44 690.465 877.642 693.263 874.19 693.263C870.738 693.263 867.94 690.465 867.94 687.013C867.94 683.561 870.738 680.763 874.19 680.763C877.642 680.763 880.44 683.561 880.44 687.013Z" fill="black"/>
</g>
</g>
</g>
<g id="Ultralight-S">
<g id="Solid / Post Solid_27">
<g id="Shape_27">
<path fill-rule="evenodd" clip-rule="evenodd" d="M520.994 635.845C520.994 634.349 522.207 633.137 523.702 633.137L567.839 633.137C572.212 633.137 575.758 636.682 575.758 641.056H578.888C583.971 641.056 588.555 644.116 590.504 648.811L595.365 660.523C596 662.051 596.326 663.69 596.326 665.345V672.613C596.326 675.623 593.886 678.063 590.876 678.063L530.954 678.063C527.963 678.063 525.538 675.638 525.538 672.646V657.945C525.538 656.168 526.979 654.727 528.756 654.727H533.489C534.978 654.727 536.184 653.52 536.184 652.031C536.184 650.542 534.978 649.335 533.489 649.335H528.233C526.745 649.335 525.538 648.128 525.538 646.64C525.538 645.151 526.745 643.944 528.233 643.944H541.572C543.06 643.944 544.267 642.737 544.267 641.248C544.267 639.759 543.06 638.553 541.572 638.553H523.702C522.207 638.553 520.994 637.34 520.994 635.845ZM575.402 649.347C575.402 647.726 576.716 646.413 578.337 646.413H580.412C582.614 646.413 584.599 647.737 585.444 649.77L588.784 657.801C589.588 659.734 588.168 661.862 586.075 661.862H578.337C576.716 661.862 575.402 660.548 575.402 658.928V649.347Z" fill="black"/>
<path d="M549.64 687.013C549.64 690.465 546.842 693.263 543.39 693.263C539.939 693.263 537.14 690.465 537.14 687.013C537.14 683.561 539.939 680.763 543.39 680.763C546.842 680.763 549.64 683.561 549.64 687.013Z" fill="black"/>
<path d="M584.44 687.013C584.44 690.465 581.642 693.263 578.19 693.263C574.738 693.263 571.94 690.465 571.94 687.013C571.94 683.561 574.738 680.763 578.19 680.763C581.642 680.763 584.44 683.561 584.44 687.013Z" fill="black"/>
</g>
</g>
</g>
</g>
</g>
<defs>
<clipPath id="clip0_0_1">
<rect width="3300" height="2200" fill="white"/>
</clipPath>
</defs>
</svg>
