<svg xmlns="http://www.w3.org/2000/svg" width="3300" height="2200" fill="none"><path fill="#E5E5E5" d="M0 0h3300v2200H0z"/><g id="Documents / Outline / Account Detail" clip-path="url(#clip0_0_1)"><g id="Notes"><path id="artboard" fill="#fff" d="M3300 0H0v2200h3300V0Z"/><path id="Vector" stroke="#000" stroke-width=".5" d="M263 292h2773"/><text xml:space="preserve" id="Weight/Scale Variations" fill="#000" font-family="Roboto" font-size="12" letter-spacing="0em" style="white-space:pre"><tspan x="263" y="321.102">Weight/Scale Variations</tspan></text><text xml:space="preserve" id="Ultralight" fill="#000" font-family="Roboto" font-size="12" letter-spacing="0em" style="white-space:pre"><tspan x="535.211" y="321.102">Ultralight</tspan></text><text xml:space="preserve" id="Thin" fill="#000" font-family="Roboto" font-size="12" letter-spacing="0em" style="white-space:pre"><tspan x="844.422" y="321.102">Thin</tspan></text><text xml:space="preserve" id="Light" fill="#000" font-family="Roboto" font-size="12" letter-spacing="0em" style="white-space:pre"><tspan x="1139.63" y="321.102">Light</tspan></text><text xml:space="preserve" id="Regular" fill="#000" font-family="Roboto" font-size="12" letter-spacing="0em" style="white-space:pre"><tspan x="1429.34" y="321.102">Regular</tspan></text><text xml:space="preserve" id="Medium" fill="#000" font-family="Roboto" font-size="12" letter-spacing="0em" style="white-space:pre"><tspan x="1724.56" y="321.102">Medium</tspan></text><text xml:space="preserve" id="Semibold" fill="#000" font-family="Roboto" font-size="12" letter-spacing="0em" style="white-space:pre"><tspan x="2017.77" y="321.102">Semibold</tspan></text><text xml:space="preserve" id="Bold" fill="#000" font-family="Roboto" font-size="12" letter-spacing="0em" style="white-space:pre"><tspan x="2327.48" y="321.102">Bold</tspan></text><text xml:space="preserve" id="Heavy" fill="#000" font-family="Roboto" font-size="12" letter-spacing="0em" style="white-space:pre"><tspan x="2620.19" y="321.102">Heavy</tspan></text><text xml:space="preserve" id="Black" fill="#000" font-family="Roboto" font-size="12" letter-spacing="0em" style="white-space:pre"><tspan x="2918.4" y="321.102">Black</tspan></text><path id="Vector_2" stroke="#000" stroke-width=".5" d="M263 1903h2773"/><g id="Group"><path id="Vector_3" fill="#000" d="M272.248 1933.83c4.307 0 7.891-3.57 7.891-7.88 0-4.31-3.594-7.88-7.901-7.88-4.297 0-7.871 3.57-7.871 7.88 0 4.31 3.584 7.88 7.881 7.88Zm0-1.48a6.364 6.364 0 0 1-6.377-6.4c0-3.56 2.822-6.4 6.367-6.4a6.382 6.382 0 0 1 6.406 6.4 6.368 6.368 0 0 1-6.396 6.4Zm-.019-2.78c.468 0 .742-.31.742-.83v-2.06h2.226c.498 0 .84-.25.84-.72 0-.48-.322-.74-.84-.74h-2.226v-2.23c0-.52-.274-.84-.742-.84-.469 0-.723.34-.723.84v2.23h-2.207c-.518 0-.85.26-.85.74 0 .47.352.72.85.72h2.207v2.06c0 .5.254.83.723.83Z"/></g><g id="Group_2"><path id="Vector_4" fill="#000" d="M293.219 1935.91c5.449 0 9.961-4.51 9.961-9.96 0-5.44-4.522-9.96-9.971-9.96-5.439 0-9.951 4.52-9.951 9.96 0 5.45 4.521 9.96 9.961 9.96Zm0-1.66a8.26 8.26 0 0 1-8.291-8.3c0-4.6 3.672-8.3 8.281-8.3a8.29 8.29 0 0 1 8.311 8.3 8.263 8.263 0 0 1-8.301 8.3Zm-.02-3.66c.518 0 .83-.36.83-.93v-2.89h3.057c.547 0 .928-.28.928-.8 0-.53-.362-.83-.928-.83h-3.057v-3.07c0-.57-.312-.93-.83-.93-.517 0-.81.38-.81.93v3.07h-3.047c-.567 0-.938.3-.938.83 0 .52.391.8.938.8h3.047v2.89c0 .55.293.93.81.93Z"/></g><g id="Group_3"><path id="Vector_5" fill="#000" d="M319.895 1938.67c6.962 0 12.724-5.75 12.724-12.71 0-6.96-5.771-12.72-12.734-12.72-6.953 0-12.705 5.76-12.705 12.72 0 6.96 5.761 12.71 12.715 12.71Zm0-1.81a10.874 10.874 0 0 1-10.889-10.9c0-6.04 4.844-10.9 10.879-10.9 6.045 0 10.898 4.86 10.908 10.9a10.87 10.87 0 0 1-10.898 10.9Zm-.02-4.92c.566 0 .918-.4.918-1v-4.07h4.238c.586 0 1.006-.33 1.006-.89 0-.58-.39-.92-1.006-.92h-4.238v-4.25c0-.61-.352-1-.918-1-.566 0-.889.41-.889 1v4.25h-4.228c-.615 0-1.026.34-1.026.92 0 .56.43.89 1.026.89h4.228v4.07c0 .59.323 1 .889 1Z"/></g><text xml:space="preserve" id="Design Variations" fill="#000" font-family="Roboto" font-size="12" letter-spacing="0em" style="white-space:pre"><tspan x="263" y="1952.1">Design Variations</tspan></text><text xml:space="preserve" id="Symbols are supported in up to nine weights and three scales." fill="#000" font-family="Roboto" font-size="12" letter-spacing="0em" style="white-space:pre"><tspan x="263" y="1970.1">Symbols are supported in up to nine weights and three scales.</tspan></text><text xml:space="preserve" id="For optimal layout with text and other symbols, vertically align" fill="#000" font-family="Roboto" font-size="12" letter-spacing="0em" style="white-space:pre"><tspan x="263" y="1988.1">For optimal layout with text and other symbols, vertically align</tspan></text><text xml:space="preserve" id="symbols with the adjacent text." fill="#000" font-family="Roboto" font-size="12" letter-spacing="0em" style="white-space:pre"><tspan x="263" y="2006.1">symbols with the adjacent text.</tspan></text><path id="Vector_6" fill="#00AEEF" d="M779 1919h-3v14h3v-14Z" opacity=".4"/><g id="Group_4"><path id="Vector_7" fill="#000" d="M789.525 1933h1.846l-5.195-14.09h-1.739l-5.195 14.09h1.846l1.416-4.03h5.605l1.416 4.03Zm-4.248-11.95h.059l2.256 6.42h-4.571l2.256-6.42Z"/></g><path id="Vector_8" fill="#00AEEF" d="M794.617 1919h-3v14h3v-14Z" opacity=".4"/><text xml:space="preserve" id="Margins" fill="#000" font-family="Roboto" font-size="12" letter-spacing="0em" style="white-space:pre"><tspan x="776" y="1952.1">Margins</tspan></text><text xml:space="preserve" id="Leading and trailing margins on the left and right side of each symbol" fill="#000" font-family="Roboto" font-size="12" letter-spacing="0em" style="white-space:pre"><tspan x="776" y="1970.1">Leading and trailing margins on the left and right side of each symbol</tspan></text><text xml:space="preserve" id="can be adjusted by modifying the width of the blue rectangles." fill="#000" font-family="Roboto" font-size="12" letter-spacing="0em" style="white-space:pre"><tspan x="776" y="1988.1">can be adjusted by modifying the width of the blue rectangles.</tspan></text><text xml:space="preserve" id="Modifications are automatically applied proportionally to all" fill="#000" font-family="Roboto" font-size="12" letter-spacing="0em" style="white-space:pre"><tspan x="776" y="2006.1">Modifications are automatically applied proportionally to all</tspan></text><text xml:space="preserve" id="scales and weights." fill="#000" font-family="Roboto" font-size="12" letter-spacing="0em" style="white-space:pre"><tspan x="776" y="2024.1">scales and weights.</tspan></text><g id="Group_5"><path id="Vector_9" fill="#000" d="m1291.84 1936.11 1.54 1.55c.85.83 1.81.76 2.68-.2l10.22-11.12c.43.29.82.28 1.29.18l1.04-.21.7.69-.05.52c-.07.53.1.95.59 1.45l.81.81c.51.5 1.17.53 1.64.05l3.26-3.25c.47-.48.46-1.13-.05-1.64l-.82-.82c-.5-.5-.91-.67-1.45-.59l-.53.05-.65-.66.28-1.14c.15-.57 0-1.04-.62-1.64l-2.41-2.39c-3.55-3.53-8.08-3.42-11.2-.29-.42.43-.46 1.02-.19 1.45.23.37.71.59 1.36.43 1.51-.38 3.02-.27 4.51.74l-.63 1.58c-.23.59-.21 1.07.02 1.5l-11.16 10.28c-.94.87-1.04 1.81-.18 2.67Zm7.84-18.26c2.66-1.99 5.97-1.68 8.38.73l2.62 2.61c.24.24.27.42.21.72l-.38 1.56 1.57 1.57.97-.09c.28-.03.37-.01.59.22l.63.62-2.76 2.75-.62-.62c-.23-.22-.25-.32-.22-.6l.09-.96-1.56-1.56-1.62.31c-.29.06-.43.06-.67-.19l-2.17-2.17c-.23-.24-.26-.38-.13-.7l.95-2.27c-1.61-1.54-3.71-2.39-5.76-1.73-.08.03-.15.01-.18-.03-.03-.05-.03-.1.06-.17Zm-6.57 17.56c-.49-.5-.32-.8.01-1.1l10.96-10.12 1.23 1.23-10.15 10.93c-.31.33-.69.43-1.09.03l-.96-.97Z"/></g><text xml:space="preserve" id="Exporting" fill="#000" font-family="Roboto" font-size="12" letter-spacing="0em" style="white-space:pre"><tspan x="1289" y="1952.1">Exporting</tspan></text><text xml:space="preserve" id="Symbols should be outlined when exporting to ensure the" fill="#000" font-family="Roboto" font-size="12" letter-spacing="0em" style="white-space:pre"><tspan x="1289" y="1970.1">Symbols should be outlined when exporting to ensure the</tspan></text><text xml:space="preserve" id="design is preserved when submitting to Xcode." fill="#000" font-family="Roboto" font-size="12" letter-spacing="0em" style="white-space:pre"><tspan x="1289" y="1988.1">design is preserved when submitting to Xcode.</tspan></text><text xml:space="preserve" id="template-version" fill="#000" font-family="Roboto" font-size="12" letter-spacing="0em" style="white-space:pre"><tspan x="2958" y="1932.1">Template v.1.0</tspan></text><text xml:space="preserve" id="Generated from pencil.circle" fill="#000" font-family="Roboto" font-size="12" letter-spacing="0em" style="white-space:pre"><tspan x="2885" y="1950.1">Generated from pencil.circle</tspan></text><text xml:space="preserve" id="Typeset at 100 points" fill="#000" font-family="Roboto" font-size="12" letter-spacing="0em" style="white-space:pre"><tspan x="2921" y="1968.1">Typeset at 100 points</tspan></text><text xml:space="preserve" id="Small" fill="#000" font-family="Roboto" font-size="12" letter-spacing="0em" style="white-space:pre"><tspan x="263" y="725.102">Small</tspan></text><text xml:space="preserve" id="Medium_2" fill="#000" font-family="Roboto" font-size="12" letter-spacing="0em" style="white-space:pre"><tspan x="263" y="1155.1">Medium</tspan></text><text xml:space="preserve" id="Large" fill="#000" font-family="Roboto" font-size="12" letter-spacing="0em" style="white-space:pre"><tspan x="263" y="1585.1">Large</tspan></text></g><g id="Guides"><g id="H-reference"><path id="Vector_10" fill="#27AAE1" d="M393.932 696h2.734l-27.1-70.459h-2.49L339.977 696h2.685l9.278-24.463h32.763L393.932 696Zm-25.733-67.09h.244l15.381 40.381h-31.006l15.381-40.381Z"/></g><path id="Baseline-S" stroke="#27AAE1" stroke-width=".577" d="M263 696h2773"/><path id="Capline-S" stroke="#27AAE1" stroke-width=".577" d="M263 626h2773"/><g id="H-reference_2"><path id="Vector_11" fill="#27AAE1" d="M393.932 1126h2.734l-27.1-70.46h-2.49L339.977 1126h2.685l9.278-24.46h32.763l9.229 24.46Zm-25.733-67.09h.244l15.381 40.38h-31.006l15.381-40.38Z"/></g><path id="Baseline-M" stroke="#27AAE1" stroke-width=".577" d="M263 1126h2773"/><path id="Capline-M" stroke="#27AAE1" stroke-width=".577" d="M263 1056h2773"/><g id="H-reference_3"><path id="Vector_12" fill="#27AAE1" d="M393.932 1556h2.734l-27.1-70.46h-2.49L339.977 1556h2.685l9.278-24.46h32.763l9.229 24.46Zm-25.733-67.09h.244l15.381 40.38h-31.006l15.381-40.38Z"/></g><g id="Group 1" stroke="#27AAE1" stroke-width=".577"><path id="Baseline-L" d="M263 1556h2773"/><path id="Capline-L" d="M263 1486h2773"/></g><path id="left-margin" fill="#00AEEF" d="M1402.04 1030.79h-8.74v119.34h8.74v-119.34Z" opacity=".4"/><path id="right-margin" fill="#00AEEF" d="M1505.39 1030.79h-8.74v119.34h8.74v-119.34Z" opacity=".4"/></g><g id="Symbols"><g id="Black-L"><g id="Outline / Account Detail Outline"><g id="Shape" fill="#000"><path d="M2929.94 1494.5a5.63 5.63 0 0 0-5.63-5.63 5.625 5.625 0 1 0 5.63 5.63ZM2929.19 1515.15c0-2.69-2.19-4.88-4.88-4.88s-4.87 2.19-4.87 4.88V1544c0 8.07 6.55 14.62 14.62 14.62h.38a4.87 4.87 0 0 0 4.87-4.87c0-2.7-2.18-4.88-4.87-4.88h-.38a4.87 4.87 0 0 1-4.87-4.87v-28.85Z"/><path fill-rule="evenodd" d="M2869 1476c0-12.43 10.07-22.5 22.5-22.5h48.6c5.72 0 11.22 2.18 15.39 6.09l26.4 24.74a22.51 22.51 0 0 1 7.11 16.42V1566c0 12.43-10.07 22.5-22.5 22.5h-75c-12.43 0-22.5-10.07-22.5-22.5v-90Zm22.5-12.75h48.6c1.47 0 2.91.25 4.27.74v19.9c0 8.08 6.55 14.63 14.63 14.63h20.05c.13.73.2 1.47.2 2.23V1566c0 7.04-5.71 12.75-12.75 12.75h-75c-7.04 0-12.75-5.71-12.75-12.75v-90c0-7.04 5.71-12.75 12.75-12.75Zm80.86 25.52-18.24-17.1v12.22c0 2.7 2.18 4.88 4.88 4.88h13.36Z" clip-rule="evenodd"/></g></g></g><g id="Heavy-L"><g id="Outline / Account Detail Outline_2"><g id="Shape_2" fill="#000"><path d="M2633.94 1494.5a5.63 5.63 0 0 0-5.63-5.63 5.625 5.625 0 1 0 5.63 5.63ZM2633.19 1515.15c0-2.69-2.19-4.88-4.88-4.88s-4.87 2.19-4.87 4.88V1544c0 8.07 6.55 14.62 14.62 14.62h.38a4.87 4.87 0 0 0 4.87-4.87c0-2.7-2.18-4.88-4.87-4.88h-.38a4.87 4.87 0 0 1-4.87-4.87v-28.85Z"/><path fill-rule="evenodd" d="M2573 1476c0-12.43 10.07-22.5 22.5-22.5h48.6c5.72 0 11.22 2.18 15.39 6.09l26.4 24.74a22.51 22.51 0 0 1 7.11 16.42V1566c0 12.43-10.07 22.5-22.5 22.5h-75c-12.43 0-22.5-10.07-22.5-22.5v-90Zm22.5-12.75h48.6c1.47 0 2.91.25 4.27.74v19.9c0 8.08 6.55 14.63 14.63 14.63h20.05c.13.73.2 1.47.2 2.23V1566c0 7.04-5.71 12.75-12.75 12.75h-75c-7.04 0-12.75-5.71-12.75-12.75v-90c0-7.04 5.71-12.75 12.75-12.75Zm80.86 25.52-18.24-17.1v12.22c0 2.7 2.18 4.88 4.88 4.88h13.36Z" clip-rule="evenodd"/></g></g></g><g id="Bold-L"><g id="Outline / Account Detail Outline_3"><g id="Shape_3" fill="#000"><path d="M2337.94 1494.5a5.63 5.63 0 0 0-5.63-5.63 5.625 5.625 0 1 0 5.63 5.63ZM2337.19 1515.15c0-2.69-2.19-4.88-4.88-4.88s-4.87 2.19-4.87 4.88V1544c0 8.07 6.55 14.62 14.62 14.62h.38a4.87 4.87 0 0 0 4.87-4.87c0-2.7-2.18-4.88-4.87-4.88h-.38a4.87 4.87 0 0 1-4.87-4.87v-28.85Z"/><path fill-rule="evenodd" d="M2277 1476c0-12.43 10.07-22.5 22.5-22.5h48.6c5.72 0 11.22 2.18 15.39 6.09l26.4 24.74a22.51 22.51 0 0 1 7.11 16.42V1566c0 12.43-10.07 22.5-22.5 22.5h-75c-12.43 0-22.5-10.07-22.5-22.5v-90Zm22.5-12.75h48.6c1.47 0 2.91.25 4.27.74v19.9c0 8.08 6.55 14.63 14.63 14.63h20.05c.13.73.2 1.47.2 2.23V1566c0 7.04-5.71 12.75-12.75 12.75h-75c-7.04 0-12.75-5.71-12.75-12.75v-90c0-7.04 5.71-12.75 12.75-12.75Zm80.86 25.52-18.24-17.1v12.22c0 2.7 2.18 4.88 4.88 4.88h13.36Z" clip-rule="evenodd"/></g></g></g><g id="Semibold-L"><g id="Outline / Account Detail Outline_4"><g id="Shape_4" fill="#000"><path d="M2041.94 1494.5a5.63 5.63 0 0 0-5.63-5.63 5.625 5.625 0 1 0 5.63 5.63ZM2041.19 1515.15c0-2.69-2.19-4.88-4.88-4.88s-4.87 2.19-4.87 4.88V1544c0 8.07 6.55 14.62 14.62 14.62h.38a4.87 4.87 0 0 0 4.87-4.87c0-2.7-2.18-4.88-4.87-4.88h-.38a4.87 4.87 0 0 1-4.87-4.87v-28.85Z"/><path fill-rule="evenodd" d="M1981 1476c0-12.43 10.07-22.5 22.5-22.5h48.6c5.72 0 11.22 2.18 15.39 6.09l26.4 24.74a22.51 22.51 0 0 1 7.11 16.42V1566c0 12.43-10.07 22.5-22.5 22.5h-75c-12.43 0-22.5-10.07-22.5-22.5v-90Zm22.5-12.75h48.6c1.47 0 2.91.25 4.27.74v19.9c0 8.08 6.55 14.63 14.63 14.63h20.05c.13.73.2 1.47.2 2.23V1566c0 7.04-5.71 12.75-12.75 12.75h-75c-7.04 0-12.75-5.71-12.75-12.75v-90c0-7.04 5.71-12.75 12.75-12.75Zm80.86 25.52-18.24-17.1v12.22c0 2.7 2.18 4.88 4.88 4.88h13.36Z" clip-rule="evenodd"/></g></g></g><g id="Medium-L"><g id="Outline / Account Detail Outline_5"><g id="Shape_5" fill="#000"><path d="M1745.94 1494.5a5.63 5.63 0 0 0-5.63-5.63 5.625 5.625 0 1 0 5.63 5.63ZM1745.19 1515.15c0-2.69-2.19-4.88-4.88-4.88s-4.87 2.19-4.87 4.88V1544c0 8.07 6.55 14.62 14.62 14.62h.38a4.87 4.87 0 0 0 4.87-4.87c0-2.7-2.18-4.88-4.87-4.88h-.38a4.87 4.87 0 0 1-4.87-4.87v-28.85Z"/><path fill-rule="evenodd" d="M1685 1476c0-12.43 10.07-22.5 22.5-22.5h48.6c5.72 0 11.22 2.18 15.39 6.09l26.4 24.74a22.51 22.51 0 0 1 7.11 16.42V1566c0 12.43-10.07 22.5-22.5 22.5h-75c-12.43 0-22.5-10.07-22.5-22.5v-90Zm22.5-12.75h48.6c1.47 0 2.91.25 4.27.74v19.9c0 8.08 6.55 14.63 14.63 14.63h20.05c.13.73.2 1.47.2 2.23V1566c0 7.04-5.71 12.75-12.75 12.75h-75c-7.04 0-12.75-5.71-12.75-12.75v-90c0-7.04 5.71-12.75 12.75-12.75Zm80.86 25.52-18.24-17.1v12.22c0 2.7 2.18 4.88 4.88 4.88h13.36Z" clip-rule="evenodd"/></g></g></g><g id="Regular-L"><g id="Outline / Account Detail Outline_6"><g id="Shape_6" fill="#000"><path d="M1449.94 1494.5a5.63 5.63 0 0 0-5.63-5.63 5.625 5.625 0 1 0 5.63 5.63ZM1449.19 1515.15c0-2.69-2.19-4.88-4.88-4.88s-4.87 2.19-4.87 4.88V1544c0 8.07 6.55 14.62 14.62 14.62h.38a4.87 4.87 0 0 0 4.87-4.87c0-2.7-2.18-4.88-4.87-4.88h-.38a4.87 4.87 0 0 1-4.87-4.87v-28.85Z"/><path fill-rule="evenodd" d="M1389 1476c0-12.43 10.07-22.5 22.5-22.5h48.6c5.72 0 11.22 2.18 15.39 6.09l26.4 24.74a22.51 22.51 0 0 1 7.11 16.42V1566c0 12.43-10.07 22.5-22.5 22.5h-75c-12.43 0-22.5-10.07-22.5-22.5v-90Zm22.5-12.75h48.6c1.47 0 2.91.25 4.27.74v19.9c0 8.08 6.55 14.63 14.63 14.63h20.05c.13.73.2 1.47.2 2.23V1566c0 7.04-5.71 12.75-12.75 12.75h-75c-7.04 0-12.75-5.71-12.75-12.75v-90c0-7.04 5.71-12.75 12.75-12.75Zm80.86 25.52-18.24-17.1v12.22c0 2.7 2.18 4.88 4.88 4.88h13.36Z" clip-rule="evenodd"/></g></g></g><g id="Light-L"><g id="Outline / Account Detail Outline_7"><g id="Shape_7" fill="#000"><path d="M1153.94 1494.5a5.63 5.63 0 0 0-5.63-5.63 5.625 5.625 0 1 0 5.63 5.63ZM1153.19 1515.15c0-2.69-2.19-4.88-4.88-4.88s-4.87 2.19-4.87 4.88V1544c0 8.07 6.55 14.62 14.62 14.62h.38a4.87 4.87 0 0 0 4.87-4.87c0-2.7-2.18-4.88-4.87-4.88h-.38a4.87 4.87 0 0 1-4.87-4.87v-28.85Z"/><path fill-rule="evenodd" d="M1093 1476c0-12.43 10.07-22.5 22.5-22.5h48.6c5.72 0 11.22 2.18 15.39 6.09l26.4 24.74a22.51 22.51 0 0 1 7.11 16.42V1566c0 12.43-10.07 22.5-22.5 22.5h-75c-12.43 0-22.5-10.07-22.5-22.5v-90Zm22.5-12.75h48.6c1.47 0 2.91.25 4.27.74v19.9c0 8.08 6.55 14.63 14.63 14.63h20.05c.13.73.2 1.47.2 2.23V1566c0 7.04-5.71 12.75-12.75 12.75h-75c-7.04 0-12.75-5.71-12.75-12.75v-90c0-7.04 5.71-12.75 12.75-12.75Zm80.86 25.52-18.24-17.1v12.22c0 2.7 2.18 4.88 4.88 4.88h13.36Z" clip-rule="evenodd"/></g></g></g><g id="Thin-L"><g id="Outline / Account Detail Outline_8"><g id="Shape_8" fill="#000"><path d="M857.937 1494.5c0-3.11-2.518-5.63-5.625-5.63a5.625 5.625 0 1 0 5.625 5.63ZM857.187 1515.15a4.88 4.88 0 0 0-4.875-4.88 4.88 4.88 0 0 0-4.874 4.88V1544c0 8.07 6.547 14.62 14.624 14.62h.375a4.872 4.872 0 0 0 4.875-4.87 4.873 4.873 0 0 0-4.874-4.88h-.376a4.873 4.873 0 0 1-4.875-4.87v-28.85Z"/><path fill-rule="evenodd" d="M797 1476c0-12.43 10.074-22.5 22.5-22.5h48.602c5.717 0 11.219 2.18 15.389 6.09l26.398 24.74a22.522 22.522 0 0 1 7.111 16.42V1566c0 12.43-10.074 22.5-22.5 22.5h-75c-12.426 0-22.5-10.07-22.5-22.5v-90Zm22.5-12.75h48.602c1.468 0 2.911.25 4.27.74v19.9c0 8.08 6.548 14.63 14.625 14.63h20.057c.129.73.196 1.47.196 2.23V1566c0 7.04-5.708 12.75-12.75 12.75h-75c-7.042 0-12.75-5.71-12.75-12.75v-90c0-7.04 5.708-12.75 12.75-12.75Zm80.865 25.52-18.243-17.1v12.22c0 2.7 2.182 4.88 4.875 4.88h13.368Z" clip-rule="evenodd"/></g></g></g><g id="Ultralight-L"><g id="Outline / Account Detail Outline_9"><g id="Shape_9" fill="#000"><path d="M561.937 1494.5c0-3.11-2.518-5.63-5.625-5.63a5.625 5.625 0 1 0 5.625 5.63ZM561.187 1515.15a4.88 4.88 0 0 0-4.875-4.88 4.88 4.88 0 0 0-4.874 4.88V1544c0 8.07 6.547 14.62 14.624 14.62h.375a4.872 4.872 0 0 0 4.875-4.87 4.873 4.873 0 0 0-4.874-4.88h-.376a4.873 4.873 0 0 1-4.875-4.87v-28.85Z"/><path fill-rule="evenodd" d="M501 1476c0-12.43 10.074-22.5 22.5-22.5h48.602c5.717 0 11.219 2.18 15.389 6.09l26.398 24.74a22.522 22.522 0 0 1 7.111 16.42V1566c0 12.43-10.074 22.5-22.5 22.5h-75c-12.426 0-22.5-10.07-22.5-22.5v-90Zm22.5-12.75h48.602c1.468 0 2.911.25 4.27.74v19.9c0 8.08 6.548 14.63 14.625 14.63h20.057c.129.73.196 1.47.196 2.23V1566c0 7.04-5.708 12.75-12.75 12.75h-75c-7.042 0-12.75-5.71-12.75-12.75v-90c0-7.04 5.708-12.75 12.75-12.75Zm80.865 25.52-18.243-17.1v12.22c0 2.7 2.182 4.88 4.875 4.88h13.368Z" clip-rule="evenodd"/></g></g></g><g id="Black-M"><g id="Outline / Account Detail Outline_10"><g id="Shape_10" fill="#000"><path d="M2929.73 1070.39c0-2.42-1.96-4.38-4.37-4.38-2.42 0-4.38 1.96-4.38 4.38a4.374 4.374 0 0 0 8.75 0ZM2929.15 1086.45c0-2.09-1.7-3.79-3.79-3.79-2.1 0-3.79 1.7-3.79 3.79v22.44c0 6.28 5.09 11.37 11.37 11.37h.29c2.1 0 3.79-1.7 3.79-3.79s-1.69-3.79-3.79-3.79h-.29c-2.09 0-3.79-1.7-3.79-3.79v-22.44Z"/><path fill-rule="evenodd" d="M2882.34 1056c0-9.66 7.83-17.5 17.5-17.5h37.8c4.44 0 8.72 1.69 11.97 4.73l20.53 19.25a17.5 17.5 0 0 1 5.53 12.77V1126c0 9.66-7.84 17.5-17.5 17.5h-58.33c-9.67 0-17.5-7.84-17.5-17.5v-70Zm17.5-9.92h37.8c1.14 0 2.26.2 3.32.58v15.48c0 6.28 5.09 11.37 11.37 11.37h15.6c.1.57.16 1.15.16 1.74V1126c0 5.48-4.44 9.92-9.92 9.92h-58.33c-5.48 0-9.92-4.44-9.92-9.92v-70c0-5.48 4.44-9.92 9.92-9.92Zm62.89 19.85-14.19-13.3v9.51c0 2.09 1.7 3.79 3.79 3.79h10.4Z" clip-rule="evenodd"/></g></g></g><g id="Heavy-M"><g id="Outline / Account Detail Outline_11"><g id="Shape_11" fill="#000"><path d="M2633.73 1070.39c0-2.42-1.96-4.38-4.37-4.38-2.42 0-4.38 1.96-4.38 4.38a4.374 4.374 0 0 0 8.75 0ZM2633.15 1086.45c0-2.09-1.7-3.79-3.79-3.79-2.1 0-3.79 1.7-3.79 3.79v22.44c0 6.28 5.09 11.37 11.37 11.37h.29c2.1 0 3.79-1.7 3.79-3.79s-1.69-3.79-3.79-3.79h-.29c-2.09 0-3.79-1.7-3.79-3.79v-22.44Z"/><path fill-rule="evenodd" d="M2586.34 1056c0-9.66 7.83-17.5 17.5-17.5h37.8c4.44 0 8.72 1.69 11.97 4.73l20.53 19.25a17.5 17.5 0 0 1 5.53 12.77V1126c0 9.66-7.84 17.5-17.5 17.5h-58.33c-9.67 0-17.5-7.84-17.5-17.5v-70Zm17.5-9.92h37.8c1.14 0 2.26.2 3.32.58v15.48c0 6.28 5.09 11.37 11.37 11.37h15.6c.1.57.16 1.15.16 1.74V1126c0 5.48-4.44 9.92-9.92 9.92h-58.33c-5.48 0-9.92-4.44-9.92-9.92v-70c0-5.48 4.44-9.92 9.92-9.92Zm62.89 19.85-14.19-13.3v9.51c0 2.09 1.7 3.79 3.79 3.79h10.4Z" clip-rule="evenodd"/></g></g></g><g id="Bold-M"><g id="Outline / Account Detail Outline_12"><g id="Shape_12" fill="#000"><path d="M2337.73 1070.39c0-2.42-1.96-4.38-4.37-4.38-2.42 0-4.38 1.96-4.38 4.38a4.374 4.374 0 0 0 8.75 0ZM2337.15 1086.45c0-2.09-1.7-3.79-3.79-3.79-2.1 0-3.79 1.7-3.79 3.79v22.44c0 6.28 5.09 11.37 11.37 11.37h.29c2.1 0 3.79-1.7 3.79-3.79s-1.69-3.79-3.79-3.79h-.29c-2.09 0-3.79-1.7-3.79-3.79v-22.44Z"/><path fill-rule="evenodd" d="M2290.34 1056c0-9.66 7.83-17.5 17.5-17.5h37.8c4.44 0 8.72 1.69 11.97 4.73l20.53 19.25a17.5 17.5 0 0 1 5.53 12.77V1126c0 9.66-7.84 17.5-17.5 17.5h-58.33c-9.67 0-17.5-7.84-17.5-17.5v-70Zm17.5-9.92h37.8c1.14 0 2.26.2 3.32.58v15.48c0 6.28 5.09 11.37 11.37 11.37h15.6c.1.57.16 1.15.16 1.74V1126c0 5.48-4.44 9.92-9.92 9.92h-58.33c-5.48 0-9.92-4.44-9.92-9.92v-70c0-5.48 4.44-9.92 9.92-9.92Zm62.89 19.85-14.19-13.3v9.51c0 2.09 1.7 3.79 3.79 3.79h10.4Z" clip-rule="evenodd"/></g></g></g><g id="Semibold-M"><g id="Outline / Account Detail Outline_13"><g id="Shape_13" fill="#000"><path d="M2041.73 1070.39c0-2.42-1.96-4.38-4.37-4.38-2.42 0-4.38 1.96-4.38 4.38a4.374 4.374 0 0 0 8.75 0ZM2041.15 1086.45c0-2.09-1.7-3.79-3.79-3.79-2.1 0-3.79 1.7-3.79 3.79v22.44c0 6.28 5.09 11.37 11.37 11.37h.29c2.1 0 3.79-1.7 3.79-3.79s-1.69-3.79-3.79-3.79h-.29c-2.09 0-3.79-1.7-3.79-3.79v-22.44Z"/><path fill-rule="evenodd" d="M1994.34 1056c0-9.66 7.83-17.5 17.5-17.5h37.8c4.44 0 8.72 1.69 11.97 4.73l20.53 19.25a17.5 17.5 0 0 1 5.53 12.77V1126c0 9.66-7.84 17.5-17.5 17.5h-58.33c-9.67 0-17.5-7.84-17.5-17.5v-70Zm17.5-9.92h37.8c1.14 0 2.26.2 3.32.58v15.48c0 6.28 5.09 11.37 11.37 11.37h15.6c.1.57.16 1.15.16 1.74V1126c0 5.48-4.44 9.92-9.92 9.92h-58.33c-5.48 0-9.92-4.44-9.92-9.92v-70c0-5.48 4.44-9.92 9.92-9.92Zm62.89 19.85-14.19-13.3v9.51c0 2.09 1.7 3.79 3.79 3.79h10.4Z" clip-rule="evenodd"/></g></g></g><g id="Medium-M"><g id="Outline / Account Detail Outline_14"><g id="Shape_14" fill="#000"><path d="M1745.73 1070.39c0-2.42-1.96-4.38-4.37-4.38-2.42 0-4.38 1.96-4.38 4.38a4.374 4.374 0 0 0 8.75 0ZM1745.15 1086.45c0-2.09-1.7-3.79-3.79-3.79-2.1 0-3.79 1.7-3.79 3.79v22.44c0 6.28 5.09 11.37 11.37 11.37h.29c2.1 0 3.79-1.7 3.79-3.79s-1.69-3.79-3.79-3.79h-.29c-2.09 0-3.79-1.7-3.79-3.79v-22.44Z"/><path fill-rule="evenodd" d="M1698.34 1056c0-9.66 7.83-17.5 17.5-17.5h37.8c4.44 0 8.72 1.69 11.97 4.73l20.53 19.25a17.5 17.5 0 0 1 5.53 12.77V1126c0 9.66-7.84 17.5-17.5 17.5h-58.33c-9.67 0-17.5-7.84-17.5-17.5v-70Zm17.5-9.92h37.8c1.14 0 2.26.2 3.32.58v15.48c0 6.28 5.09 11.37 11.37 11.37h15.6c.1.57.16 1.15.16 1.74V1126c0 5.48-4.44 9.92-9.92 9.92h-58.33c-5.48 0-9.92-4.44-9.92-9.92v-70c0-5.48 4.44-9.92 9.92-9.92Zm62.89 19.85-14.19-13.3v9.51c0 2.09 1.7 3.79 3.79 3.79h10.4Z" clip-rule="evenodd"/></g></g></g><g id="Regular-M"><g id="Outline / Account Detail Outline_15"><g id="Shape_15" fill="#000"><path d="M1449.73 1070.39c0-2.42-1.96-4.38-4.37-4.38-2.42 0-4.38 1.96-4.38 4.38a4.374 4.374 0 0 0 8.75 0ZM1449.15 1086.45c0-2.09-1.7-3.79-3.79-3.79-2.1 0-3.79 1.7-3.79 3.79v22.44c0 6.28 5.09 11.37 11.37 11.37h.29c2.1 0 3.79-1.7 3.79-3.79s-1.69-3.79-3.79-3.79h-.29c-2.09 0-3.79-1.7-3.79-3.79v-22.44Z"/><path fill-rule="evenodd" d="M1402.34 1056c0-9.66 7.83-17.5 17.5-17.5h37.8c4.44 0 8.72 1.69 11.97 4.73l20.53 19.25a17.5 17.5 0 0 1 5.53 12.77V1126c0 9.66-7.84 17.5-17.5 17.5h-58.33c-9.67 0-17.5-7.84-17.5-17.5v-70Zm17.5-9.92h37.8c1.14 0 2.26.2 3.32.58v15.48c0 6.28 5.09 11.37 11.37 11.37h15.6c.1.57.16 1.15.16 1.74V1126c0 5.48-4.44 9.92-9.92 9.92h-58.33c-5.48 0-9.92-4.44-9.92-9.92v-70c0-5.48 4.44-9.92 9.92-9.92Zm62.89 19.85-14.19-13.3v9.51c0 2.09 1.7 3.79 3.79 3.79h10.4Z" clip-rule="evenodd"/></g></g></g><g id="Light-M"><g id="Outline / Account Detail Outline_16"><g id="Shape_16" fill="#000"><path d="M1153.73 1070.39c0-2.42-1.96-4.38-4.37-4.38-2.42 0-4.38 1.96-4.38 4.38a4.374 4.374 0 0 0 8.75 0ZM1153.15 1086.45c0-2.09-1.7-3.79-3.79-3.79-2.1 0-3.79 1.7-3.79 3.79v22.44c0 6.28 5.09 11.37 11.37 11.37h.29c2.1 0 3.79-1.7 3.79-3.79s-1.69-3.79-3.79-3.79h-.29c-2.09 0-3.79-1.7-3.79-3.79v-22.44Z"/><path fill-rule="evenodd" d="M1106.34 1056c0-9.66 7.83-17.5 17.5-17.5h37.8c4.44 0 8.72 1.69 11.97 4.73l20.53 19.25a17.5 17.5 0 0 1 5.53 12.77V1126c0 9.66-7.84 17.5-17.5 17.5h-58.33c-9.67 0-17.5-7.84-17.5-17.5v-70Zm17.5-9.92h37.8c1.14 0 2.26.2 3.32.58v15.48c0 6.28 5.09 11.37 11.37 11.37h15.6c.1.57.16 1.15.16 1.74V1126c0 5.48-4.44 9.92-9.92 9.92h-58.33c-5.48 0-9.92-4.44-9.92-9.92v-70c0-5.48 4.44-9.92 9.92-9.92Zm62.89 19.85-14.19-13.3v9.51c0 2.09 1.7 3.79 3.79 3.79h10.4Z" clip-rule="evenodd"/></g></g></g><g id="Thin-M"><g id="Outline / Account Detail Outline_17"><g id="Shape_17" fill="#000"><path d="M857.732 1070.39c0-2.42-1.959-4.38-4.375-4.38a4.375 4.375 0 1 0 4.375 4.38ZM857.148 1086.45a3.792 3.792 0 0 0-7.583 0v22.44c0 6.28 5.093 11.37 11.375 11.37h.292c2.094 0 3.791-1.7 3.791-3.79s-1.697-3.79-3.791-3.79h-.292a3.793 3.793 0 0 1-3.792-3.79v-22.44Z"/><path fill-rule="evenodd" d="M810.336 1056c0-9.66 7.835-17.5 17.5-17.5h37.802c4.446 0 8.725 1.69 11.969 4.73l20.531 19.25a17.504 17.504 0 0 1 5.531 12.77V1126c0 9.66-7.835 17.5-17.5 17.5h-58.333c-9.665 0-17.5-7.84-17.5-17.5v-70Zm17.5-9.92h37.802c1.141 0 2.263.2 3.32.58v15.48c0 6.28 5.093 11.37 11.375 11.37h15.6c.101.57.153 1.15.153 1.74V1126c0 5.48-4.44 9.92-9.917 9.92h-58.333c-5.477 0-9.917-4.44-9.917-9.92v-70c0-5.48 4.44-9.92 9.917-9.92Zm62.895 19.85-14.189-13.3v9.51c0 2.09 1.697 3.79 3.791 3.79h10.398Z" clip-rule="evenodd"/></g></g></g><g id="Ultralight-M"><g id="Outline / Account Detail Outline_18"><g id="Shape_18" fill="#000"><path d="M561.732 1070.39c0-2.42-1.959-4.38-4.375-4.38a4.375 4.375 0 1 0 4.375 4.38ZM561.148 1086.45a3.792 3.792 0 0 0-7.583 0v22.44c0 6.28 5.093 11.37 11.375 11.37h.292c2.094 0 3.791-1.7 3.791-3.79s-1.697-3.79-3.791-3.79h-.292a3.793 3.793 0 0 1-3.792-3.79v-22.44Z"/><path fill-rule="evenodd" d="M514.336 1056c0-9.66 7.835-17.5 17.5-17.5h37.802c4.446 0 8.725 1.69 11.969 4.73l20.531 19.25a17.504 17.504 0 0 1 5.531 12.77V1126c0 9.66-7.835 17.5-17.5 17.5h-58.333c-9.665 0-17.5-7.84-17.5-17.5v-70Zm17.5-9.92h37.802c1.141 0 2.263.2 3.32.58v15.48c0 6.28 5.093 11.37 11.375 11.37h15.6c.101.57.153 1.15.153 1.74V1126c0 5.48-4.44 9.92-9.917 9.92h-58.333c-5.477 0-9.917-4.44-9.917-9.92v-70c0-5.48 4.44-9.92 9.917-9.92Zm62.895 19.85-14.189-13.3v9.51c0 2.09 1.697 3.79 3.791 3.79h10.398Z" clip-rule="evenodd"/></g></g></g><g id="Black-S"><g id="Outline / Account Detail Outline_19"><g id="Shape_19" fill="#000"><path d="M2929.52 646.276a3.124 3.124 0 1 0-6.251-.001 3.124 3.124 0 0 0 6.251.001ZM2929.1 657.75a2.707 2.707 0 0 0-2.71-2.709 2.714 2.714 0 0 0-2.71 2.709v16.026c0 4.487 3.64 8.125 8.13 8.125h.21c1.49 0 2.71-1.213 2.71-2.709a2.714 2.714 0 0 0-2.71-2.708h-.21c-1.5 0-2.71-1.213-2.71-2.708V657.75Z"/><path fill-rule="evenodd" d="M2895.66 636c0-6.904 5.6-12.5 12.5-12.5h27.01c3.17 0 6.23 1.209 8.54 3.381l14.67 13.749a12.501 12.501 0 0 1 3.95 9.119V686c0 6.904-5.6 12.5-12.5 12.5h-41.67c-6.9 0-12.5-5.596-12.5-12.5v-50Zm12.5-7.083h27.01c.81 0 1.61.14 2.37.409v11.06a8.12 8.12 0 0 0 8.12 8.125l11.15-.001c.07.406.1.821.1 1.239V686a7.082 7.082 0 0 1-7.08 7.083h-41.67a7.082 7.082 0 0 1-7.08-7.083v-50a7.082 7.082 0 0 1 7.08-7.083Zm44.93 14.177-10.14-9.502v6.794a2.714 2.714 0 0 0 2.71 2.708h7.43Z" clip-rule="evenodd"/></g></g></g><g id="Heavy-S"><g id="Outline / Account Detail Outline_20"><g id="Shape_20" fill="#000"><path d="M2633.52 646.276a3.124 3.124 0 1 0-6.251-.001 3.124 3.124 0 0 0 6.251.001ZM2633.1 657.75a2.707 2.707 0 0 0-2.71-2.709 2.714 2.714 0 0 0-2.71 2.709v16.026c0 4.487 3.64 8.125 8.13 8.125h.21c1.49 0 2.71-1.213 2.71-2.709a2.714 2.714 0 0 0-2.71-2.708h-.21c-1.5 0-2.71-1.213-2.71-2.708V657.75Z"/><path fill-rule="evenodd" d="M2599.66 636c0-6.904 5.6-12.5 12.5-12.5h27.01c3.17 0 6.23 1.209 8.54 3.381l14.67 13.749a12.501 12.501 0 0 1 3.95 9.119V686c0 6.904-5.6 12.5-12.5 12.5h-41.67c-6.9 0-12.5-5.596-12.5-12.5v-50Zm12.5-7.083h27.01c.81 0 1.61.14 2.37.409v11.06a8.12 8.12 0 0 0 8.12 8.125l11.15-.001c.07.406.1.821.1 1.239V686a7.082 7.082 0 0 1-7.08 7.083h-41.67a7.082 7.082 0 0 1-7.08-7.083v-50a7.082 7.082 0 0 1 7.08-7.083Zm44.93 14.177-10.14-9.502v6.794a2.714 2.714 0 0 0 2.71 2.708h7.43Z" clip-rule="evenodd"/></g></g></g><g id="Bold-S"><g id="Outline / Account Detail Outline_21"><g id="Shape_21" fill="#000"><path d="M2337.52 646.276a3.124 3.124 0 1 0-6.251-.001 3.124 3.124 0 0 0 6.251.001ZM2337.1 657.75a2.707 2.707 0 0 0-2.71-2.709 2.714 2.714 0 0 0-2.71 2.709v16.026c0 4.487 3.64 8.125 8.13 8.125h.21c1.49 0 2.71-1.213 2.71-2.709a2.714 2.714 0 0 0-2.71-2.708h-.21c-1.5 0-2.71-1.213-2.71-2.708V657.75Z"/><path fill-rule="evenodd" d="M2303.66 636c0-6.904 5.6-12.5 12.5-12.5h27.01c3.17 0 6.23 1.209 8.54 3.381l14.67 13.749a12.501 12.501 0 0 1 3.95 9.119V686c0 6.904-5.6 12.5-12.5 12.5h-41.67c-6.9 0-12.5-5.596-12.5-12.5v-50Zm12.5-7.083h27.01c.81 0 1.61.14 2.37.409v11.06a8.12 8.12 0 0 0 8.12 8.125l11.15-.001c.07.406.1.821.1 1.239V686a7.082 7.082 0 0 1-7.08 7.083h-41.67a7.082 7.082 0 0 1-7.08-7.083v-50a7.082 7.082 0 0 1 7.08-7.083Zm44.93 14.177-10.14-9.502v6.794a2.714 2.714 0 0 0 2.71 2.708h7.43Z" clip-rule="evenodd"/></g></g></g><g id="Semibold-S"><g id="Outline / Account Detail Outline_22"><g id="Shape_22" fill="#000"><path d="M2041.52 646.276a3.124 3.124 0 1 0-6.251-.001 3.124 3.124 0 0 0 6.251.001ZM2041.1 657.75a2.707 2.707 0 0 0-2.71-2.709 2.714 2.714 0 0 0-2.71 2.709v16.026c0 4.487 3.64 8.125 8.13 8.125h.21c1.49 0 2.71-1.213 2.71-2.709a2.714 2.714 0 0 0-2.71-2.708h-.21c-1.5 0-2.71-1.213-2.71-2.708V657.75Z"/><path fill-rule="evenodd" d="M2007.66 636c0-6.904 5.6-12.5 12.5-12.5h27.01c3.17 0 6.23 1.209 8.54 3.381l14.67 13.749a12.501 12.501 0 0 1 3.95 9.119V686c0 6.904-5.6 12.5-12.5 12.5h-41.67c-6.9 0-12.5-5.596-12.5-12.5v-50Zm12.5-7.083h27.01c.81 0 1.61.14 2.37.409v11.06a8.12 8.12 0 0 0 8.12 8.125l11.15-.001c.07.406.1.821.1 1.239V686a7.082 7.082 0 0 1-7.08 7.083h-41.67a7.082 7.082 0 0 1-7.08-7.083v-50a7.082 7.082 0 0 1 7.08-7.083Zm44.93 14.177-10.14-9.502v6.794a2.714 2.714 0 0 0 2.71 2.708h7.43Z" clip-rule="evenodd"/></g></g></g><g id="Medium-S"><g id="Outline / Account Detail Outline_23"><g id="Shape_23" fill="#000"><path d="M1745.52 646.276a3.124 3.124 0 1 0-6.251-.001 3.124 3.124 0 0 0 6.251.001ZM1745.1 657.75a2.707 2.707 0 0 0-2.71-2.709 2.714 2.714 0 0 0-2.71 2.709v16.026c0 4.487 3.64 8.125 8.13 8.125h.21c1.49 0 2.71-1.213 2.71-2.709a2.714 2.714 0 0 0-2.71-2.708h-.21c-1.5 0-2.71-1.213-2.71-2.708V657.75Z"/><path fill-rule="evenodd" d="M1711.66 636c0-6.904 5.6-12.5 12.5-12.5h27.01c3.17 0 6.23 1.209 8.54 3.381l14.67 13.749a12.501 12.501 0 0 1 3.95 9.119V686c0 6.904-5.6 12.5-12.5 12.5h-41.67c-6.9 0-12.5-5.596-12.5-12.5v-50Zm12.5-7.083h27.01c.81 0 1.61.14 2.37.409v11.06a8.12 8.12 0 0 0 8.12 8.125l11.15-.001c.07.406.1.821.1 1.239V686a7.082 7.082 0 0 1-7.08 7.083h-41.67a7.082 7.082 0 0 1-7.08-7.083v-50a7.082 7.082 0 0 1 7.08-7.083Zm44.93 14.177-10.14-9.502v6.794a2.714 2.714 0 0 0 2.71 2.708h7.43Z" clip-rule="evenodd"/></g></g></g><g id="Regular-S"><g id="Outline / Account Detail Outline_24"><g id="Shape_24" fill="#000"><path d="M1449.52 646.276a3.124 3.124 0 1 0-6.251-.001 3.124 3.124 0 0 0 6.251.001ZM1449.1 657.75a2.707 2.707 0 0 0-2.71-2.709 2.714 2.714 0 0 0-2.71 2.709v16.026c0 4.487 3.64 8.125 8.13 8.125h.21c1.49 0 2.71-1.213 2.71-2.709a2.714 2.714 0 0 0-2.71-2.708h-.21c-1.5 0-2.71-1.213-2.71-2.708V657.75Z"/><path fill-rule="evenodd" d="M1415.66 636c0-6.904 5.6-12.5 12.5-12.5h27.01c3.17 0 6.23 1.209 8.54 3.381l14.67 13.749a12.501 12.501 0 0 1 3.95 9.119V686c0 6.904-5.6 12.5-12.5 12.5h-41.67c-6.9 0-12.5-5.596-12.5-12.5v-50Zm12.5-7.083h27.01c.81 0 1.61.14 2.37.409v11.06a8.12 8.12 0 0 0 8.12 8.125l11.15-.001c.07.406.1.821.1 1.239V686a7.082 7.082 0 0 1-7.08 7.083h-41.67a7.082 7.082 0 0 1-7.08-7.083v-50a7.082 7.082 0 0 1 7.08-7.083Zm44.93 14.177-10.14-9.502v6.794a2.714 2.714 0 0 0 2.71 2.708h7.43Z" clip-rule="evenodd"/></g></g></g><g id="Light-S"><g id="Outline / Account Detail Outline_25"><g id="Shape_25" fill="#000"><path d="M1153.52 646.276a3.124 3.124 0 1 0-6.251-.001 3.124 3.124 0 0 0 6.251.001ZM1153.1 657.75a2.707 2.707 0 0 0-2.71-2.709 2.714 2.714 0 0 0-2.71 2.709v16.026c0 4.487 3.64 8.125 8.13 8.125h.21c1.49 0 2.71-1.213 2.71-2.709a2.714 2.714 0 0 0-2.71-2.708h-.21c-1.5 0-2.71-1.213-2.71-2.708V657.75Z"/><path fill-rule="evenodd" d="M1119.66 636c0-6.904 5.6-12.5 12.5-12.5h27.01c3.17 0 6.23 1.209 8.54 3.381l14.67 13.749a12.501 12.501 0 0 1 3.95 9.119V686c0 6.904-5.6 12.5-12.5 12.5h-41.67c-6.9 0-12.5-5.596-12.5-12.5v-50Zm12.5-7.083h27.01c.81 0 1.61.14 2.37.409v11.06a8.12 8.12 0 0 0 8.12 8.125l11.15-.001c.07.406.1.821.1 1.239V686a7.082 7.082 0 0 1-7.08 7.083h-41.67a7.082 7.082 0 0 1-7.08-7.083v-50a7.082 7.082 0 0 1 7.08-7.083Zm44.93 14.177-10.14-9.502v6.794a2.714 2.714 0 0 0 2.71 2.708h7.43Z" clip-rule="evenodd"/></g></g></g><g id="Thin-S"><g id="Outline / Account Detail Outline_26"><g id="Shape_26" fill="#000"><path d="M857.518 646.276a3.125 3.125 0 1 0-6.25 0 3.125 3.125 0 0 0 6.25 0ZM857.102 657.75a2.71 2.71 0 0 0-5.417 0v16.026a8.125 8.125 0 0 0 8.125 8.125h.208a2.71 2.71 0 0 0 0-5.417h-.208a2.708 2.708 0 0 1-2.708-2.708V657.75Z"/><path fill-rule="evenodd" d="M823.664 636c0-6.904 5.597-12.5 12.5-12.5h27.001c3.176 0 6.233 1.209 8.55 3.381l14.665 13.749a12.498 12.498 0 0 1 3.951 9.119V686c0 6.904-5.597 12.5-12.5 12.5h-41.667c-6.903 0-12.5-5.596-12.5-12.5v-50Zm12.5-7.083h27.001c.816 0 1.617.14 2.372.409v11.06a8.125 8.125 0 0 0 8.125 8.125l11.143-.001a7.1 7.1 0 0 1 .109 1.239V686a7.083 7.083 0 0 1-7.083 7.083h-41.667a7.083 7.083 0 0 1-7.083-7.083v-50a7.083 7.083 0 0 1 7.083-7.083Zm44.925 14.177-10.135-9.502v6.794a2.708 2.708 0 0 0 2.708 2.708h7.427Z" clip-rule="evenodd"/></g></g></g><g id="Ultralight-S"><g id="Outline / Account Detail Outline_27"><g id="Shape_27" fill="#000"><path d="M561.518 646.276a3.125 3.125 0 1 0-6.25 0 3.125 3.125 0 0 0 6.25 0ZM561.102 657.75a2.71 2.71 0 0 0-5.417 0v16.026a8.125 8.125 0 0 0 8.125 8.125h.208a2.71 2.71 0 0 0 0-5.417h-.208a2.708 2.708 0 0 1-2.708-2.708V657.75Z"/><path fill-rule="evenodd" d="M527.664 636c0-6.904 5.597-12.5 12.5-12.5h27.001c3.176 0 6.233 1.209 8.55 3.381l14.665 13.749a12.498 12.498 0 0 1 3.951 9.119V686c0 6.904-5.597 12.5-12.5 12.5h-41.667c-6.903 0-12.5-5.596-12.5-12.5v-50Zm12.5-7.083h27.001c.816 0 1.617.14 2.372.409v11.06a8.125 8.125 0 0 0 8.125 8.125l11.143-.001a7.1 7.1 0 0 1 .109 1.239V686a7.083 7.083 0 0 1-7.083 7.083h-41.667a7.083 7.083 0 0 1-7.083-7.083v-50a7.083 7.083 0 0 1 7.083-7.083Zm44.925 14.177-10.135-9.502v6.794a2.708 2.708 0 0 0 2.708 2.708h7.427Z" clip-rule="evenodd"/></g></g></g></g></g><defs><clipPath id="clip0_0_1"><path fill="#fff" d="M0 0h3300v2200H0z"/></clipPath></defs></svg>