<svg xmlns="http://www.w3.org/2000/svg" width="3300" height="2200" fill="none"><path fill="#E5E5E5" d="M0 0h3300v2200H0z"/><g id="System / Outline / Import" clip-path="url(#clip0_805_27002)"><g id="Notes"><path id="artboard" fill="#fff" d="M3300 0H0v2200h3300V0Z"/><path id="Vector" stroke="#000" stroke-width=".5" d="M263 292h2773"/><text xml:space="preserve" id="Weight/Scale Variations" fill="#000" font-family="Roboto" font-size="12" letter-spacing="0em" style="white-space:pre"><tspan x="263" y="321.102">Weight/Scale Variations</tspan></text><text xml:space="preserve" id="Ultralight" fill="#000" font-family="Roboto" font-size="12" letter-spacing="0em" style="white-space:pre"><tspan x="535.211" y="321.102">Ultralight</tspan></text><text xml:space="preserve" id="Thin" fill="#000" font-family="Roboto" font-size="12" letter-spacing="0em" style="white-space:pre"><tspan x="844.422" y="321.102">Thin</tspan></text><text xml:space="preserve" id="Light" fill="#000" font-family="Roboto" font-size="12" letter-spacing="0em" style="white-space:pre"><tspan x="1139.63" y="321.102">Light</tspan></text><text xml:space="preserve" id="Regular" fill="#000" font-family="Roboto" font-size="12" letter-spacing="0em" style="white-space:pre"><tspan x="1429.34" y="321.102">Regular</tspan></text><text xml:space="preserve" id="Medium" fill="#000" font-family="Roboto" font-size="12" letter-spacing="0em" style="white-space:pre"><tspan x="1724.56" y="321.102">Medium</tspan></text><text xml:space="preserve" id="Semibold" fill="#000" font-family="Roboto" font-size="12" letter-spacing="0em" style="white-space:pre"><tspan x="2017.77" y="321.102">Semibold</tspan></text><text xml:space="preserve" id="Bold" fill="#000" font-family="Roboto" font-size="12" letter-spacing="0em" style="white-space:pre"><tspan x="2327.48" y="321.102">Bold</tspan></text><text xml:space="preserve" id="Heavy" fill="#000" font-family="Roboto" font-size="12" letter-spacing="0em" style="white-space:pre"><tspan x="2620.19" y="321.102">Heavy</tspan></text><text xml:space="preserve" id="Black" fill="#000" font-family="Roboto" font-size="12" letter-spacing="0em" style="white-space:pre"><tspan x="2918.4" y="321.102">Black</tspan></text><path id="Vector_2" stroke="#000" stroke-width=".5" d="M263 1903h2773"/><g id="Group"><path id="Vector_3" fill="#000" d="M272.248 1933.83c4.307 0 7.891-3.57 7.891-7.88 0-4.31-3.594-7.88-7.901-7.88-4.297 0-7.871 3.57-7.871 7.88 0 4.31 3.584 7.88 7.881 7.88Zm0-1.48c-3.545 0-6.377-2.84-6.377-6.4 0-3.55 2.822-6.4 6.367-6.4a6.388 6.388 0 0 1 6.406 6.4 6.361 6.361 0 0 1-6.396 6.4Zm-.019-2.78c.468 0 .742-.31.742-.83v-2.06h2.226c.498 0 .84-.25.84-.72 0-.48-.322-.74-.84-.74h-2.226v-2.23c0-.52-.274-.84-.742-.84-.469 0-.723.34-.723.84v2.23h-2.207c-.518 0-.85.26-.85.74 0 .47.352.72.85.72h2.207v2.06c0 .5.254.83.723.83Z"/></g><g id="Group_2"><path id="Vector_4" fill="#000" d="M293.215 1935.91c5.449 0 9.961-4.51 9.961-9.96 0-5.44-4.522-9.96-9.971-9.96-5.439 0-9.951 4.52-9.951 9.96 0 5.45 4.521 9.96 9.961 9.96Zm0-1.66a8.26 8.26 0 0 1-8.291-8.3c0-4.6 3.672-8.3 8.281-8.3a8.29 8.29 0 0 1 8.311 8.3 8.263 8.263 0 0 1-8.301 8.3Zm-.02-3.66c.518 0 .83-.36.83-.93v-2.89h3.057c.547 0 .928-.28.928-.8 0-.53-.362-.83-.928-.83h-3.057v-3.07c0-.57-.312-.93-.83-.93-.517 0-.81.38-.81.93v3.07h-3.047c-.567 0-.938.3-.938.83 0 .52.391.8.938.8h3.047v2.89c0 .55.293.93.81.93Z"/></g><g id="Group_3"><path id="Vector_5" fill="#000" d="M319.895 1938.67c6.962 0 12.724-5.75 12.724-12.71 0-6.97-5.771-12.72-12.734-12.72-6.953 0-12.705 5.75-12.705 12.72 0 6.96 5.761 12.71 12.715 12.71Zm0-1.81a10.874 10.874 0 0 1-10.889-10.9c0-6.04 4.844-10.9 10.879-10.9 6.045 0 10.898 4.86 10.908 10.9a10.87 10.87 0 0 1-10.898 10.9Zm-.02-4.93c.566 0 .918-.39.918-.99v-4.07h4.238c.586 0 1.006-.34 1.006-.89 0-.58-.39-.92-1.006-.92h-4.238v-4.25c0-.61-.352-1.01-.918-1.01-.566 0-.889.41-.889 1.01v4.25h-4.228c-.615 0-1.026.34-1.026.92 0 .55.43.89 1.026.89h4.228v4.07c0 .58.323.99.889.99Z"/></g><text xml:space="preserve" id="Design Variations" fill="#000" font-family="Roboto" font-size="12" letter-spacing="0em" style="white-space:pre"><tspan x="263" y="1952.1">Design Variations</tspan></text><text xml:space="preserve" id="Symbols are supported in up to nine weights and three scales." fill="#000" font-family="Roboto" font-size="12" letter-spacing="0em" style="white-space:pre"><tspan x="263" y="1970.1">Symbols are supported in up to nine weights and three scales.</tspan></text><text xml:space="preserve" id="For optimal layout with text and other symbols, vertically align" fill="#000" font-family="Roboto" font-size="12" letter-spacing="0em" style="white-space:pre"><tspan x="263" y="1988.1">For optimal layout with text and other symbols, vertically align</tspan></text><text xml:space="preserve" id="symbols with the adjacent text." fill="#000" font-family="Roboto" font-size="12" letter-spacing="0em" style="white-space:pre"><tspan x="263" y="2006.1">symbols with the adjacent text.</tspan></text><path id="Vector_6" fill="#00AEEF" d="M779 1919h-3v14h3v-14Z" opacity=".4"/><g id="Group_4"><path id="Vector_7" fill="#000" d="M789.525 1933h1.846l-5.195-14.09h-1.739l-5.195 14.09h1.846l1.416-4.04h5.605l1.416 4.04Zm-4.248-11.96h.059l2.256 6.43h-4.571l2.256-6.43Z"/></g><path id="Vector_8" fill="#00AEEF" d="M794.617 1919h-3v14h3v-14Z" opacity=".4"/><text xml:space="preserve" id="Margins" fill="#000" font-family="Roboto" font-size="12" letter-spacing="0em" style="white-space:pre"><tspan x="776" y="1952.1">Margins</tspan></text><text xml:space="preserve" id="Leading and trailing margins on the left and right side of each symbol" fill="#000" font-family="Roboto" font-size="12" letter-spacing="0em" style="white-space:pre"><tspan x="776" y="1970.1">Leading and trailing margins on the left and right side of each symbol</tspan></text><text xml:space="preserve" id="can be adjusted by modifying the width of the blue rectangles." fill="#000" font-family="Roboto" font-size="12" letter-spacing="0em" style="white-space:pre"><tspan x="776" y="1988.1">can be adjusted by modifying the width of the blue rectangles.</tspan></text><text xml:space="preserve" id="Modifications are automatically applied proportionally to all" fill="#000" font-family="Roboto" font-size="12" letter-spacing="0em" style="white-space:pre"><tspan x="776" y="2006.1">Modifications are automatically applied proportionally to all</tspan></text><text xml:space="preserve" id="scales and weights." fill="#000" font-family="Roboto" font-size="12" letter-spacing="0em" style="white-space:pre"><tspan x="776" y="2024.1">scales and weights.</tspan></text><g id="Group_5"><path id="Vector_9" fill="#000" d="m1291.83 1936.11 1.54 1.55c.85.83 1.82.76 2.69-.2l10.21-11.12c.43.29.83.28 1.29.18l1.05-.21.69.69-.05.52c-.06.53.1.95.6 1.45l.81.81c.51.5 1.16.53 1.64.05l3.25-3.25c.48-.48.46-1.13-.05-1.64l-.82-.82c-.49-.5-.91-.67-1.44-.59l-.53.05-.65-.66.28-1.14c.15-.57 0-1.04-.63-1.64l-2.41-2.39c-3.54-3.53-8.07-3.42-11.19-.29-.42.43-.47 1.02-.19 1.45.23.37.71.59 1.35.43 1.52-.38 3.03-.27 4.51.74l-.62 1.58c-.23.59-.22 1.07.02 1.5l-11.16 10.28c-.94.87-1.05 1.81-.19 2.67Zm7.84-18.26c2.67-1.99 5.98-1.68 8.38.73l2.63 2.61c.23.24.26.42.2.72l-.38 1.56 1.58 1.57.96-.09c.29-.03.37-.01.6.22l.62.62-2.75 2.75-.63-.62c-.22-.22-.24-.32-.21-.6l.09-.96-1.57-1.56-1.62.31c-.28.06-.43.06-.66-.19l-2.18-2.17c-.22-.24-.25-.38-.12-.7l.94-2.27c-1.6-1.54-3.71-2.39-5.75-1.73-.09.03-.16.01-.19-.03-.02-.05-.02-.1.06-.17Zm-6.57 17.56c-.49-.5-.31-.8.02-1.1l10.96-10.12 1.23 1.23-10.16 10.93c-.3.33-.68.43-1.08.03l-.97-.97Z"/></g><text xml:space="preserve" id="Exporting" fill="#000" font-family="Roboto" font-size="12" letter-spacing="0em" style="white-space:pre"><tspan x="1289" y="1952.1">Exporting</tspan></text><text xml:space="preserve" id="Symbols should be outlined when exporting to ensure the" fill="#000" font-family="Roboto" font-size="12" letter-spacing="0em" style="white-space:pre"><tspan x="1289" y="1970.1">Symbols should be outlined when exporting to ensure the</tspan></text><text xml:space="preserve" id="design is preserved when submitting to Xcode." fill="#000" font-family="Roboto" font-size="12" letter-spacing="0em" style="white-space:pre"><tspan x="1289" y="1988.1">design is preserved when submitting to Xcode.</tspan></text><text xml:space="preserve" id="template-version" fill="#000" font-family="Roboto" font-size="12" letter-spacing="0em" style="white-space:pre"><tspan x="2958" y="1932.1">Template v.1.0</tspan></text><text xml:space="preserve" id="Generated from pencil.circle" fill="#000" font-family="Roboto" font-size="12" letter-spacing="0em" style="white-space:pre"><tspan x="2885" y="1950.1">Generated from pencil.circle</tspan></text><text xml:space="preserve" id="Typeset at 100 points" fill="#000" font-family="Roboto" font-size="12" letter-spacing="0em" style="white-space:pre"><tspan x="2921" y="1968.1">Typeset at 100 points</tspan></text><text xml:space="preserve" id="Small" fill="#000" font-family="Roboto" font-size="12" letter-spacing="0em" style="white-space:pre"><tspan x="263" y="725.102">Small</tspan></text><text xml:space="preserve" id="Medium_2" fill="#000" font-family="Roboto" font-size="12" letter-spacing="0em" style="white-space:pre"><tspan x="263" y="1155.1">Medium</tspan></text><text xml:space="preserve" id="Large" fill="#000" font-family="Roboto" font-size="12" letter-spacing="0em" style="white-space:pre"><tspan x="263" y="1585.1">Large</tspan></text></g><g id="Guides"><g id="H-reference"><path id="Vector_10" fill="#27AAE1" d="M393.932 695.998h2.734l-27.1-70.459h-2.49l-27.099 70.459h2.685l9.278-24.463h32.763l9.229 24.463Zm-25.733-67.09h.244l15.381 40.381h-31.006l15.381-40.381Z"/></g><path id="Baseline-S" stroke="#27AAE1" stroke-width=".577" d="M263 696h2773"/><path id="Capline-S" stroke="#27AAE1" stroke-width=".577" d="M263 626h2773"/><g id="H-reference_2"><path id="Vector_11" fill="#27AAE1" d="M393.932 1126h2.734l-27.1-70.46h-2.49L339.977 1126h2.685l9.278-24.46h32.763l9.229 24.46Zm-25.733-67.09h.244l15.381 40.38h-31.006l15.381-40.38Z"/></g><path id="Baseline-M" stroke="#27AAE1" stroke-width=".577" d="M263 1126h2773"/><path id="Capline-M" stroke="#27AAE1" stroke-width=".577" d="M263 1056h2773"/><g id="H-reference_3"><path id="Vector_12" fill="#27AAE1" d="M393.932 1556h2.734l-27.1-70.46h-2.49L339.977 1556h2.685l9.278-24.46h32.763l9.229 24.46Zm-25.733-67.09h.244l15.381 40.38h-31.006l15.381-40.38Z"/></g><g id="Group 1" stroke="#27AAE1" stroke-width=".577"><path id="Baseline-L" d="M263 1556h2773"/><path id="Capline-L" d="M263 1486h2773"/></g><path id="left-margin" fill="#00AEEF" d="M1408.04 1030.79h-8.74v119.33h8.74v-119.33Z" opacity=".4"/><path id="right-margin" fill="#00AEEF" d="M1499.39 1030.79h-8.74v119.33h8.74v-119.33Z" opacity=".4"/></g><g id="Symbols"><g id="Black-L"><g id="Outline / Import Outline"><g id="Shape" fill="#000"><path d="M2914 1465.88c0-2.7-2.18-4.88-4.88-4.88H2899c-12.43 0-22.5 10.07-22.5 22.5v75c0 12.43 10.07 22.5 22.5 22.5h60c12.43 0 22.5-10.07 22.5-22.5v-64.59c0-2.69-2.18-4.87-4.88-4.87a4.87 4.87 0 0 0-4.87 4.87v64.59c0 7.04-5.71 12.75-12.75 12.75h-60c-7.04 0-12.75-5.71-12.75-12.75v-75c0-7.04 5.71-12.75 12.75-12.75h10.12c2.7 0 4.88-2.18 4.88-4.87Z"/><path d="M2961.31 1504.18c1.05.97 1.58 2.25 1.58 3.6 0 1.2-.38 2.32-1.28 3.3l-28.69 30.45a5.24 5.24 0 0 1-7.8 0l-26.28-30.15c-1.8-2.03-1.65-5.1.3-6.9 2.02-1.8 5.1-1.73 6.9.3l18.1 21.45h.12v-37.2c0-15.12 12.26-27.38 27.38-27.38h25.09c2.7 0 4.88 2.18 4.88 4.88 0 2.69-2.18 4.87-4.88 4.87h-25.09c-9.74 0-17.63 7.89-17.63 17.63v37.13l20.4-21.68c1.8-1.95 4.88-2.1 6.9-.3Z"/></g></g></g><g id="Heavy-L"><g id="Outline / Import Outline_2"><g id="Shape_2" fill="#000"><path d="M2618 1465.88c0-2.7-2.18-4.88-4.88-4.88H2603c-12.43 0-22.5 10.07-22.5 22.5v75c0 12.43 10.07 22.5 22.5 22.5h60c12.43 0 22.5-10.07 22.5-22.5v-64.59c0-2.69-2.18-4.87-4.88-4.87a4.87 4.87 0 0 0-4.87 4.87v64.59c0 7.04-5.71 12.75-12.75 12.75h-60c-7.04 0-12.75-5.71-12.75-12.75v-75c0-7.04 5.71-12.75 12.75-12.75h10.12c2.7 0 4.88-2.18 4.88-4.87Z"/><path d="M2665.31 1504.18c1.05.97 1.58 2.25 1.58 3.6 0 1.2-.38 2.32-1.28 3.3l-28.69 30.45a5.24 5.24 0 0 1-7.8 0l-26.28-30.15c-1.8-2.03-1.65-5.1.3-6.9 2.02-1.8 5.1-1.73 6.9.3l18.1 21.45h.12v-37.2c0-15.12 12.26-27.38 27.38-27.38h25.09c2.7 0 4.88 2.18 4.88 4.88 0 2.69-2.18 4.87-4.88 4.87h-25.09c-9.74 0-17.63 7.89-17.63 17.63v37.13l20.4-21.68c1.8-1.95 4.88-2.1 6.9-.3Z"/></g></g></g><g id="Bold-L"><g id="Outline / Import Outline_3"><g id="Shape_3" fill="#000"><path d="M2322 1465.88c0-2.7-2.18-4.88-4.88-4.88H2307c-12.43 0-22.5 10.07-22.5 22.5v75c0 12.43 10.07 22.5 22.5 22.5h60c12.43 0 22.5-10.07 22.5-22.5v-64.59c0-2.69-2.18-4.87-4.88-4.87a4.87 4.87 0 0 0-4.87 4.87v64.59c0 7.04-5.71 12.75-12.75 12.75h-60c-7.04 0-12.75-5.71-12.75-12.75v-75c0-7.04 5.71-12.75 12.75-12.75h10.12c2.7 0 4.88-2.18 4.88-4.87Z"/><path d="M2369.31 1504.18c1.05.97 1.58 2.25 1.58 3.6 0 1.2-.38 2.32-1.28 3.3l-28.69 30.45a5.24 5.24 0 0 1-7.8 0l-26.28-30.15c-1.8-2.03-1.65-5.1.3-6.9 2.02-1.8 5.1-1.73 6.9.3l18.1 21.45h.12v-37.2c0-15.12 12.26-27.38 27.38-27.38h25.09c2.7 0 4.88 2.18 4.88 4.88 0 2.69-2.18 4.87-4.88 4.87h-25.09c-9.74 0-17.63 7.89-17.63 17.63v37.13l20.4-21.68c1.8-1.95 4.88-2.1 6.9-.3Z"/></g></g></g><g id="Semibold-L"><g id="Outline / Import Outline_4"><g id="Shape_4" fill="#000"><path d="M2026 1465.88c0-2.7-2.18-4.88-4.88-4.88H2011c-12.43 0-22.5 10.07-22.5 22.5v75c0 12.43 10.07 22.5 22.5 22.5h60c12.43 0 22.5-10.07 22.5-22.5v-64.59c0-2.69-2.18-4.87-4.88-4.87a4.87 4.87 0 0 0-4.87 4.87v64.59c0 7.04-5.71 12.75-12.75 12.75h-60c-7.04 0-12.75-5.71-12.75-12.75v-75c0-7.04 5.71-12.75 12.75-12.75h10.12c2.7 0 4.88-2.18 4.88-4.87Z"/><path d="M2073.31 1504.18c1.05.97 1.58 2.25 1.58 3.6 0 1.2-.38 2.32-1.28 3.3l-28.69 30.45a5.24 5.24 0 0 1-7.8 0l-26.28-30.15c-1.8-2.03-1.65-5.1.3-6.9 2.02-1.8 5.1-1.73 6.9.3l18.1 21.45h.12v-37.2c0-15.12 12.26-27.38 27.38-27.38h25.09c2.7 0 4.88 2.18 4.88 4.88 0 2.69-2.18 4.87-4.88 4.87h-25.09c-9.74 0-17.63 7.89-17.63 17.63v37.13l20.4-21.68c1.8-1.95 4.88-2.1 6.9-.3Z"/></g></g></g><g id="Medium-L"><g id="Outline / Import Outline_5"><g id="Shape_5" fill="#000"><path d="M1730 1465.88c0-2.7-2.18-4.88-4.88-4.88H1715c-12.43 0-22.5 10.07-22.5 22.5v75c0 12.43 10.07 22.5 22.5 22.5h60c12.43 0 22.5-10.07 22.5-22.5v-64.59c0-2.69-2.18-4.87-4.88-4.87a4.87 4.87 0 0 0-4.87 4.87v64.59c0 7.04-5.71 12.75-12.75 12.75h-60c-7.04 0-12.75-5.71-12.75-12.75v-75c0-7.04 5.71-12.75 12.75-12.75h10.12c2.7 0 4.88-2.18 4.88-4.87Z"/><path d="M1777.31 1504.18c1.05.97 1.58 2.25 1.58 3.6 0 1.2-.38 2.32-1.28 3.3l-28.69 30.45a5.24 5.24 0 0 1-7.8 0l-26.28-30.15c-1.8-2.03-1.65-5.1.3-6.9 2.02-1.8 5.1-1.73 6.9.3l18.1 21.45h.12v-37.2c0-15.12 12.26-27.38 27.38-27.38h25.09c2.7 0 4.88 2.18 4.88 4.88 0 2.69-2.18 4.87-4.88 4.87h-25.09c-9.74 0-17.63 7.89-17.63 17.63v37.13l20.4-21.68c1.8-1.95 4.88-2.1 6.9-.3Z"/></g></g></g><g id="Regular-L"><g id="Outline / Import Outline_6"><g id="Shape_6" fill="#000"><path d="M1434 1465.88c0-2.7-2.18-4.88-4.88-4.88H1419c-12.43 0-22.5 10.07-22.5 22.5v75c0 12.43 10.07 22.5 22.5 22.5h60c12.43 0 22.5-10.07 22.5-22.5v-64.59c0-2.69-2.18-4.87-4.88-4.87a4.87 4.87 0 0 0-4.87 4.87v64.59c0 7.04-5.71 12.75-12.75 12.75h-60c-7.04 0-12.75-5.71-12.75-12.75v-75c0-7.04 5.71-12.75 12.75-12.75h10.12c2.7 0 4.88-2.18 4.88-4.87Z"/><path d="M1481.31 1504.18c1.05.97 1.58 2.25 1.58 3.6 0 1.2-.38 2.32-1.28 3.3l-28.69 30.45a5.24 5.24 0 0 1-7.8 0l-26.28-30.15c-1.8-2.03-1.65-5.1.3-6.9 2.02-1.8 5.1-1.73 6.9.3l18.1 21.45h.12v-37.2c0-15.12 12.26-27.38 27.38-27.38h25.09c2.7 0 4.88 2.18 4.88 4.88 0 2.69-2.18 4.87-4.88 4.87h-25.09c-9.74 0-17.63 7.89-17.63 17.63v37.13l20.4-21.68c1.8-1.95 4.88-2.1 6.9-.3Z"/></g></g></g><g id="Light-L"><g id="Outline / Import Outline_7"><g id="Shape_7" fill="#000"><path d="M1138 1465.88c0-2.7-2.18-4.88-4.88-4.88H1123c-12.43 0-22.5 10.07-22.5 22.5v75c0 12.43 10.07 22.5 22.5 22.5h60c12.43 0 22.5-10.07 22.5-22.5v-64.59c0-2.69-2.18-4.87-4.88-4.87a4.87 4.87 0 0 0-4.87 4.87v64.59c0 7.04-5.71 12.75-12.75 12.75h-60c-7.04 0-12.75-5.71-12.75-12.75v-75c0-7.04 5.71-12.75 12.75-12.75h10.12c2.7 0 4.88-2.18 4.88-4.87Z"/><path d="M1185.31 1504.18c1.05.97 1.58 2.25 1.58 3.6 0 1.2-.38 2.32-1.28 3.3l-28.69 30.45a5.24 5.24 0 0 1-7.8 0l-26.28-30.15c-1.8-2.03-1.65-5.1.3-6.9 2.02-1.8 5.1-1.73 6.9.3l18.1 21.45h.12v-37.2c0-15.12 12.26-27.38 27.38-27.38h25.09c2.7 0 4.88 2.18 4.88 4.88 0 2.69-2.18 4.87-4.88 4.87h-25.09c-9.74 0-17.63 7.89-17.63 17.63v37.13l20.4-21.68c1.8-1.95 4.88-2.1 6.9-.3Z"/></g></g></g><g id="Thin-L"><g id="Outline / Import Outline_8"><g id="Shape_8" fill="#000"><path d="M842 1465.88c0-2.7-2.183-4.88-4.875-4.88H827c-12.426 0-22.5 10.07-22.5 22.5v75c0 12.43 10.074 22.5 22.5 22.5h60c12.426 0 22.5-10.07 22.5-22.5v-64.59c0-2.69-2.183-4.87-4.875-4.87a4.873 4.873 0 0 0-4.875 4.87v64.59c0 7.04-5.708 12.75-12.75 12.75h-60c-7.042 0-12.75-5.71-12.75-12.75v-75c0-7.04 5.708-12.75 12.75-12.75h10.125a4.873 4.873 0 0 0 4.875-4.87Z"/><path d="M889.311 1504.18a4.827 4.827 0 0 1 1.575 3.6c0 1.2-.375 2.32-1.275 3.3l-28.691 30.45a5.24 5.24 0 0 1-7.8 0l-26.284-30.15c-1.8-2.03-1.65-5.1.3-6.9 2.025-1.8 5.1-1.73 6.9.3l18.109 21.45h.116v-37.2c0-15.12 12.256-27.38 27.375-27.38h25.097a4.875 4.875 0 0 1 4.875 4.88c0 2.69-2.183 4.87-4.875 4.87h-25.097c-9.734 0-17.625 7.89-17.625 17.63v37.13l20.4-21.68c1.8-1.95 4.875-2.1 6.9-.3Z"/></g></g></g><g id="Ultralight-L"><g id="Outline / Import Outline_9"><g id="Shape_9" fill="#000"><path d="M546 1465.88c0-2.7-2.183-4.88-4.875-4.88H531c-12.426 0-22.5 10.07-22.5 22.5v75c0 12.43 10.074 22.5 22.5 22.5h60c12.426 0 22.5-10.07 22.5-22.5v-64.59c0-2.69-2.183-4.87-4.875-4.87a4.873 4.873 0 0 0-4.875 4.87v64.59c0 7.04-5.708 12.75-12.75 12.75h-60c-7.042 0-12.75-5.71-12.75-12.75v-75c0-7.04 5.708-12.75 12.75-12.75h10.125a4.873 4.873 0 0 0 4.875-4.87Z"/><path d="M593.311 1504.18a4.827 4.827 0 0 1 1.575 3.6c0 1.2-.375 2.32-1.275 3.3l-28.691 30.45a5.24 5.24 0 0 1-7.8 0l-26.284-30.15c-1.8-2.03-1.65-5.1.3-6.9 2.025-1.8 5.1-1.73 6.9.3l18.109 21.45h.116v-37.2c0-15.12 12.256-27.38 27.375-27.38h25.097a4.875 4.875 0 0 1 4.875 4.88c0 2.69-2.183 4.87-4.875 4.87h-25.097c-9.734 0-17.625 7.89-17.625 17.63v37.13l20.4-21.68c1.8-1.95 4.875-2.1 6.9-.3Z"/></g></g></g><g id="Black-M"><g id="Outline / Import Outline_10"><g id="Shape_10" fill="#000"><path d="M2917.33 1048.12c0-2.09-1.69-3.79-3.79-3.79h-7.87c-9.67 0-17.5 7.84-17.5 17.5v58.34c0 9.66 7.83 17.5 17.5 17.5h46.66c9.67 0 17.5-7.84 17.5-17.5v-50.24c0-2.09-1.69-3.79-3.79-3.79-2.09 0-3.79 1.7-3.79 3.79v50.24c0 5.47-4.44 9.91-9.92 9.91h-46.66c-5.48 0-9.92-4.44-9.92-9.91v-58.34c0-5.47 4.44-9.91 9.92-9.91h7.87c2.1 0 3.79-1.7 3.79-3.8Z"/><path d="M2954.13 1077.91c.82.76 1.23 1.75 1.23 2.8 0 .94-.29 1.81-.99 2.57l-22.32 23.68a4.071 4.071 0 0 1-6.07 0l-20.44-23.45c-1.4-1.57-1.28-3.96.23-5.36 1.58-1.4 3.97-1.34 5.37.23l14.09 16.69h.09v-28.94c0-11.76 9.53-21.29 21.29-21.29h19.52c2.09 0 3.79 1.7 3.79 3.79s-1.7 3.79-3.79 3.79h-19.52c-7.57 0-13.71 6.14-13.71 13.71v28.88l15.87-16.86c1.4-1.52 3.79-1.64 5.36-.24Z"/></g></g></g><g id="Heavy-M"><g id="Outline / Import Outline_11"><g id="Shape_11" fill="#000"><path d="M2621.33 1048.12c0-2.09-1.69-3.79-3.79-3.79h-7.87c-9.67 0-17.5 7.84-17.5 17.5v58.34c0 9.66 7.83 17.5 17.5 17.5h46.66c9.67 0 17.5-7.84 17.5-17.5v-50.24c0-2.09-1.69-3.79-3.79-3.79-2.09 0-3.79 1.7-3.79 3.79v50.24c0 5.47-4.44 9.91-9.92 9.91h-46.66c-5.48 0-9.92-4.44-9.92-9.91v-58.34c0-5.47 4.44-9.91 9.92-9.91h7.87c2.1 0 3.79-1.7 3.79-3.8Z"/><path d="M2658.13 1077.91c.82.76 1.23 1.75 1.23 2.8 0 .94-.29 1.81-.99 2.57l-22.32 23.68a4.071 4.071 0 0 1-6.07 0l-20.44-23.45c-1.4-1.57-1.28-3.96.23-5.36 1.58-1.4 3.97-1.34 5.37.23l14.09 16.69h.09v-28.94c0-11.76 9.53-21.29 21.29-21.29h19.52c2.09 0 3.79 1.7 3.79 3.79s-1.7 3.79-3.79 3.79h-19.52c-7.57 0-13.71 6.14-13.71 13.71v28.88l15.87-16.86c1.4-1.52 3.79-1.64 5.36-.24Z"/></g></g></g><g id="Bold-M"><g id="Outline / Import Outline_12"><g id="Shape_12" fill="#000"><path d="M2325.33 1048.12c0-2.09-1.69-3.79-3.79-3.79h-7.87c-9.67 0-17.5 7.84-17.5 17.5v58.34c0 9.66 7.83 17.5 17.5 17.5h46.66c9.67 0 17.5-7.84 17.5-17.5v-50.24c0-2.09-1.69-3.79-3.79-3.79-2.09 0-3.79 1.7-3.79 3.79v50.24c0 5.47-4.44 9.91-9.92 9.91h-46.66c-5.48 0-9.92-4.44-9.92-9.91v-58.34c0-5.47 4.44-9.91 9.92-9.91h7.87c2.1 0 3.79-1.7 3.79-3.8Z"/><path d="M2362.13 1077.91c.82.76 1.23 1.75 1.23 2.8 0 .94-.29 1.81-.99 2.57l-22.32 23.68a4.071 4.071 0 0 1-6.07 0l-20.44-23.45c-1.4-1.57-1.28-3.96.23-5.36 1.58-1.4 3.97-1.34 5.37.23l14.09 16.69h.09v-28.94c0-11.76 9.53-21.29 21.29-21.29h19.52c2.09 0 3.79 1.7 3.79 3.79s-1.7 3.79-3.79 3.79h-19.52c-7.57 0-13.71 6.14-13.71 13.71v28.88l15.87-16.86c1.4-1.52 3.79-1.64 5.36-.24Z"/></g></g></g><g id="Semibold-M"><g id="Outline / Import Outline_13"><g id="Shape_13" fill="#000"><path d="M2029.33 1048.12c0-2.09-1.69-3.79-3.79-3.79h-7.87c-9.67 0-17.5 7.84-17.5 17.5v58.34c0 9.66 7.83 17.5 17.5 17.5h46.66c9.67 0 17.5-7.84 17.5-17.5v-50.24c0-2.09-1.69-3.79-3.79-3.79-2.09 0-3.79 1.7-3.79 3.79v50.24c0 5.47-4.44 9.91-9.92 9.91h-46.66c-5.48 0-9.92-4.44-9.92-9.91v-58.34c0-5.47 4.44-9.91 9.92-9.91h7.87c2.1 0 3.79-1.7 3.79-3.8Z"/><path d="M2066.13 1077.91c.82.76 1.23 1.75 1.23 2.8 0 .94-.29 1.81-.99 2.57l-22.32 23.68a4.071 4.071 0 0 1-6.07 0l-20.44-23.45c-1.4-1.57-1.28-3.96.23-5.36 1.58-1.4 3.97-1.34 5.37.23l14.09 16.69h.09v-28.94c0-11.76 9.53-21.29 21.29-21.29h19.52c2.09 0 3.79 1.7 3.79 3.79s-1.7 3.79-3.79 3.79h-19.52c-7.57 0-13.71 6.14-13.71 13.71v28.88l15.87-16.86c1.4-1.52 3.79-1.64 5.36-.24Z"/></g></g></g><g id="Medium-M"><g id="Outline / Import Outline_14"><g id="Shape_14" fill="#000"><path d="M1733.33 1048.12c0-2.09-1.69-3.79-3.79-3.79h-7.87c-9.67 0-17.5 7.84-17.5 17.5v58.34c0 9.66 7.83 17.5 17.5 17.5h46.66c9.67 0 17.5-7.84 17.5-17.5v-50.24c0-2.09-1.69-3.79-3.79-3.79-2.09 0-3.79 1.7-3.79 3.79v50.24c0 5.47-4.44 9.91-9.92 9.91h-46.66c-5.48 0-9.92-4.44-9.92-9.91v-58.34c0-5.47 4.44-9.91 9.92-9.91h7.87c2.1 0 3.79-1.7 3.79-3.8Z"/><path d="M1770.13 1077.91c.82.76 1.23 1.75 1.23 2.8 0 .94-.29 1.81-.99 2.57l-22.32 23.68a4.071 4.071 0 0 1-6.07 0l-20.44-23.45c-1.4-1.57-1.28-3.96.23-5.36 1.58-1.4 3.97-1.34 5.37.23l14.09 16.69h.09v-28.94c0-11.76 9.53-21.29 21.29-21.29h19.52c2.09 0 3.79 1.7 3.79 3.79s-1.7 3.79-3.79 3.79h-19.52c-7.57 0-13.71 6.14-13.71 13.71v28.88l15.87-16.86c1.4-1.52 3.79-1.64 5.36-.24Z"/></g></g></g><g id="Regular-M"><g id="Outline / Import Outline_15"><g id="Shape_15" fill="#000"><path d="M1437.33 1048.12c0-2.09-1.69-3.79-3.79-3.79h-7.87c-9.67 0-17.5 7.84-17.5 17.5v58.34c0 9.66 7.83 17.5 17.5 17.5h46.66c9.67 0 17.5-7.84 17.5-17.5v-50.24c0-2.09-1.69-3.79-3.79-3.79-2.09 0-3.79 1.7-3.79 3.79v50.24c0 5.47-4.44 9.91-9.92 9.91h-46.66c-5.48 0-9.92-4.44-9.92-9.91v-58.34c0-5.47 4.44-9.91 9.92-9.91h7.87c2.1 0 3.79-1.7 3.79-3.8Z"/><path d="M1474.13 1077.91c.82.76 1.23 1.75 1.23 2.8 0 .94-.29 1.81-.99 2.57l-22.32 23.68a4.071 4.071 0 0 1-6.07 0l-20.44-23.45c-1.4-1.57-1.28-3.96.23-5.36 1.58-1.4 3.97-1.34 5.37.23l14.09 16.69h.09v-28.94c0-11.76 9.53-21.29 21.29-21.29h19.52c2.09 0 3.79 1.7 3.79 3.79s-1.7 3.79-3.79 3.79h-19.52c-7.57 0-13.71 6.14-13.71 13.71v28.88l15.87-16.86c1.4-1.52 3.79-1.64 5.36-.24Z"/></g></g></g><g id="Light-M"><g id="Outline / Import Outline_16"><g id="Shape_16" fill="#000"><path d="M1141.33 1048.12c0-2.09-1.69-3.79-3.79-3.79h-7.87c-9.67 0-17.5 7.84-17.5 17.5v58.34c0 9.66 7.83 17.5 17.5 17.5h46.66c9.67 0 17.5-7.84 17.5-17.5v-50.24c0-2.09-1.69-3.79-3.79-3.79-2.09 0-3.79 1.7-3.79 3.79v50.24c0 5.47-4.44 9.91-9.92 9.91h-46.66c-5.48 0-9.92-4.44-9.92-9.91v-58.34c0-5.47 4.44-9.91 9.92-9.91h7.87c2.1 0 3.79-1.7 3.79-3.8Z"/><path d="M1178.13 1077.91c.82.76 1.23 1.75 1.23 2.8 0 .94-.29 1.81-.99 2.57l-22.32 23.68a4.071 4.071 0 0 1-6.07 0l-20.44-23.45c-1.4-1.57-1.28-3.96.23-5.36 1.58-1.4 3.97-1.34 5.37.23l14.09 16.69h.09v-28.94c0-11.76 9.53-21.29 21.29-21.29h19.52c2.09 0 3.79 1.7 3.79 3.79s-1.7 3.79-3.79 3.79h-19.52c-7.57 0-13.71 6.14-13.71 13.71v28.88l15.87-16.86c1.4-1.52 3.79-1.64 5.36-.24Z"/></g></g></g><g id="Thin-M"><g id="Outline / Import Outline_17"><g id="Shape_17" fill="#000"><path d="M845.335 1048.12c0-2.09-1.698-3.79-3.792-3.79h-7.875c-9.665 0-17.5 7.84-17.5 17.5v58.34c0 9.66 7.835 17.5 17.5 17.5h46.667c9.665 0 17.5-7.84 17.5-17.5v-50.24a3.793 3.793 0 0 0-7.584 0v50.24c0 5.47-4.44 9.91-9.916 9.91h-46.667c-5.477 0-9.917-4.44-9.917-9.91v-58.34c0-5.47 4.44-9.91 9.917-9.91h7.875c2.094 0 3.792-1.7 3.792-3.8Z"/><path d="M882.132 1077.91a3.762 3.762 0 0 1 1.225 2.8c0 .94-.292 1.81-.992 2.57l-22.315 23.68a4.068 4.068 0 0 1-6.067 0l-20.442-23.45c-1.4-1.57-1.284-3.96.233-5.36 1.575-1.4 3.967-1.34 5.367.23l14.084 16.69h.091v-28.94c0-11.76 9.532-21.29 21.291-21.29h19.52c2.094 0 3.792 1.7 3.792 3.79s-1.698 3.79-3.792 3.79h-19.52c-7.571 0-13.708 6.14-13.708 13.71v28.88l15.866-16.86c1.4-1.52 3.792-1.64 5.367-.24Z"/></g></g></g><g id="Ultralight-M"><g id="Outline / Import Outline_18"><g id="Shape_18" fill="#000"><path d="M549.335 1048.12c0-2.09-1.698-3.79-3.792-3.79h-7.875c-9.665 0-17.5 7.84-17.5 17.5v58.34c0 9.66 7.835 17.5 17.5 17.5h46.667c9.665 0 17.5-7.84 17.5-17.5v-50.24a3.793 3.793 0 0 0-7.584 0v50.24c0 5.47-4.44 9.91-9.916 9.91h-46.667c-5.477 0-9.917-4.44-9.917-9.91v-58.34c0-5.47 4.44-9.91 9.917-9.91h7.875c2.094 0 3.792-1.7 3.792-3.8Z"/><path d="M586.132 1077.91a3.762 3.762 0 0 1 1.225 2.8c0 .94-.292 1.81-.992 2.57l-22.315 23.68a4.068 4.068 0 0 1-6.067 0l-20.442-23.45c-1.4-1.57-1.284-3.96.233-5.36 1.575-1.4 3.967-1.34 5.367.23l14.084 16.69h.091v-28.94c0-11.76 9.532-21.29 21.291-21.29h19.52c2.094 0 3.792 1.7 3.792 3.79s-1.698 3.79-3.792 3.79h-19.52c-7.571 0-13.708 6.14-13.708 13.71v28.88l15.866-16.86c1.4-1.52 3.792-1.64 5.367-.24Z"/></g></g></g><g id="Black-S"><g id="Outline / Import Outline_19"><g id="Shape_19" fill="#000"><path d="M2920.67 630.376a2.714 2.714 0 0 0-2.71-2.708h-5.63c-6.9 0-12.5 5.596-12.5 12.5v41.667c0 6.903 5.6 12.5 12.5 12.5h33.34c6.9 0 12.5-5.597 12.5-12.5v-35.881a2.713 2.713 0 0 0-2.71-2.708c-1.5 0-2.71 1.212-2.71 2.708v35.881a7.082 7.082 0 0 1-7.08 7.083h-33.34a7.082 7.082 0 0 1-7.08-7.083v-41.667a7.082 7.082 0 0 1 7.08-7.083h5.63c1.49 0 2.71-1.213 2.71-2.709Z"/><path d="M2946.95 651.655c.58.541.87 1.25.87 2 0 .666-.2 1.291-.7 1.833l-15.94 16.917a2.916 2.916 0 0 1-4.34 0l-14.6-16.75c-1-1.125-.92-2.834.17-3.834 1.12-1 2.83-.958 3.83.167l10.06 11.919h.07v-20.669c0-8.399 6.8-15.208 15.2-15.208h13.95c1.49 0 2.71 1.212 2.71 2.708a2.713 2.713 0 0 1-2.71 2.708h-13.95c-5.4 0-9.79 4.384-9.79 9.792v20.63l11.34-12.047c1-1.083 2.7-1.166 3.83-.166Z"/></g></g></g><g id="Heavy-S"><g id="Outline / Import Outline_20"><g id="Shape_20" fill="#000"><path d="M2624.67 630.376a2.714 2.714 0 0 0-2.71-2.708h-5.63c-6.9 0-12.5 5.596-12.5 12.5v41.667c0 6.903 5.6 12.5 12.5 12.5h33.34c6.9 0 12.5-5.597 12.5-12.5v-35.881a2.713 2.713 0 0 0-2.71-2.708c-1.5 0-2.71 1.212-2.71 2.708v35.881a7.082 7.082 0 0 1-7.08 7.083h-33.34a7.082 7.082 0 0 1-7.08-7.083v-41.667a7.082 7.082 0 0 1 7.08-7.083h5.63c1.49 0 2.71-1.213 2.71-2.709Z"/><path d="M2650.95 651.655c.58.541.87 1.25.87 2 0 .666-.2 1.291-.7 1.833l-15.94 16.917a2.916 2.916 0 0 1-4.34 0l-14.6-16.75c-1-1.125-.92-2.834.17-3.834 1.12-1 2.83-.958 3.83.167l10.06 11.919h.07v-20.669c0-8.399 6.8-15.208 15.2-15.208h13.95c1.49 0 2.71 1.212 2.71 2.708a2.713 2.713 0 0 1-2.71 2.708h-13.95c-5.4 0-9.79 4.384-9.79 9.792v20.63l11.34-12.047c1-1.083 2.7-1.166 3.83-.166Z"/></g></g></g><g id="Bold-S"><g id="Outline / Import Outline_21"><g id="Shape_21" fill="#000"><path d="M2328.67 630.376a2.714 2.714 0 0 0-2.71-2.708h-5.63c-6.9 0-12.5 5.596-12.5 12.5v41.667c0 6.903 5.6 12.5 12.5 12.5h33.34c6.9 0 12.5-5.597 12.5-12.5v-35.881a2.713 2.713 0 0 0-2.71-2.708c-1.5 0-2.71 1.212-2.71 2.708v35.881a7.082 7.082 0 0 1-7.08 7.083h-33.34a7.082 7.082 0 0 1-7.08-7.083v-41.667a7.082 7.082 0 0 1 7.08-7.083h5.63c1.49 0 2.71-1.213 2.71-2.709Z"/><path d="M2354.95 651.655c.58.541.87 1.25.87 2 0 .666-.2 1.291-.7 1.833l-15.94 16.917a2.916 2.916 0 0 1-4.34 0l-14.6-16.75c-1-1.125-.92-2.834.17-3.834 1.12-1 2.83-.958 3.83.167l10.06 11.919h.07v-20.669c0-8.399 6.8-15.208 15.2-15.208h13.95c1.49 0 2.71 1.212 2.71 2.708a2.713 2.713 0 0 1-2.71 2.708h-13.95c-5.4 0-9.79 4.384-9.79 9.792v20.63l11.34-12.047c1-1.083 2.7-1.166 3.83-.166Z"/></g></g></g><g id="Semibold-S"><g id="Outline / Import Outline_22"><g id="Shape_22" fill="#000"><path d="M2032.67 630.376a2.714 2.714 0 0 0-2.71-2.708h-5.63c-6.9 0-12.5 5.596-12.5 12.5v41.667c0 6.903 5.6 12.5 12.5 12.5h33.34c6.9 0 12.5-5.597 12.5-12.5v-35.881a2.713 2.713 0 0 0-2.71-2.708c-1.5 0-2.71 1.212-2.71 2.708v35.881a7.082 7.082 0 0 1-7.08 7.083h-33.34a7.082 7.082 0 0 1-7.08-7.083v-41.667a7.082 7.082 0 0 1 7.08-7.083h5.63c1.49 0 2.71-1.213 2.71-2.709Z"/><path d="M2058.95 651.655c.58.541.87 1.25.87 2 0 .666-.2 1.291-.7 1.833l-15.94 16.917a2.916 2.916 0 0 1-4.34 0l-14.6-16.75c-1-1.125-.92-2.834.17-3.834 1.12-1 2.83-.958 3.83.167l10.06 11.919h.07v-20.669c0-8.399 6.8-15.208 15.2-15.208h13.95c1.49 0 2.71 1.212 2.71 2.708a2.713 2.713 0 0 1-2.71 2.708h-13.95c-5.4 0-9.79 4.384-9.79 9.792v20.63l11.34-12.047c1-1.083 2.7-1.166 3.83-.166Z"/></g></g></g><g id="Medium-S"><g id="Outline / Import Outline_23"><g id="Shape_23" fill="#000"><path d="M1736.67 630.376a2.714 2.714 0 0 0-2.71-2.708h-5.63c-6.9 0-12.5 5.596-12.5 12.5v41.667c0 6.903 5.6 12.5 12.5 12.5h33.34c6.9 0 12.5-5.597 12.5-12.5v-35.881a2.713 2.713 0 0 0-2.71-2.708c-1.5 0-2.71 1.212-2.71 2.708v35.881a7.082 7.082 0 0 1-7.08 7.083h-33.34a7.082 7.082 0 0 1-7.08-7.083v-41.667a7.082 7.082 0 0 1 7.08-7.083h5.63c1.49 0 2.71-1.213 2.71-2.709Z"/><path d="M1762.95 651.655c.58.541.87 1.25.87 2 0 .666-.2 1.291-.7 1.833l-15.94 16.917a2.916 2.916 0 0 1-4.34 0l-14.6-16.75c-1-1.125-.92-2.834.17-3.834 1.12-1 2.83-.958 3.83.167l10.06 11.919h.07v-20.669c0-8.399 6.8-15.208 15.2-15.208h13.95c1.49 0 2.71 1.212 2.71 2.708a2.713 2.713 0 0 1-2.71 2.708h-13.95c-5.4 0-9.79 4.384-9.79 9.792v20.63l11.34-12.047c1-1.083 2.7-1.166 3.83-.166Z"/></g></g></g><g id="Regular-S"><g id="Outline / Import Outline_24"><g id="Shape_24" fill="#000"><path d="M1440.67 630.376a2.714 2.714 0 0 0-2.71-2.708h-5.63c-6.9 0-12.5 5.596-12.5 12.5v41.667c0 6.903 5.6 12.5 12.5 12.5h33.34c6.9 0 12.5-5.597 12.5-12.5v-35.881a2.713 2.713 0 0 0-2.71-2.708c-1.5 0-2.71 1.212-2.71 2.708v35.881a7.082 7.082 0 0 1-7.08 7.083h-33.34a7.082 7.082 0 0 1-7.08-7.083v-41.667a7.082 7.082 0 0 1 7.08-7.083h5.63c1.49 0 2.71-1.213 2.71-2.709Z"/><path d="M1466.95 651.655c.58.541.87 1.25.87 2 0 .666-.2 1.291-.7 1.833l-15.94 16.917a2.916 2.916 0 0 1-4.34 0l-14.6-16.75c-1-1.125-.92-2.834.17-3.834 1.12-1 2.83-.958 3.83.167l10.06 11.919h.07v-20.669c0-8.399 6.8-15.208 15.2-15.208h13.95c1.49 0 2.71 1.212 2.71 2.708a2.713 2.713 0 0 1-2.71 2.708h-13.95c-5.4 0-9.79 4.384-9.79 9.792v20.63l11.34-12.047c1-1.083 2.7-1.166 3.83-.166Z"/></g></g></g><g id="Light-S"><g id="Outline / Import Outline_25"><g id="Shape_25" fill="#000"><path d="M1144.67 630.376a2.714 2.714 0 0 0-2.71-2.708h-5.63c-6.9 0-12.5 5.596-12.5 12.5v41.667c0 6.903 5.6 12.5 12.5 12.5h33.34c6.9 0 12.5-5.597 12.5-12.5v-35.881a2.713 2.713 0 0 0-2.71-2.708c-1.5 0-2.71 1.212-2.71 2.708v35.881a7.082 7.082 0 0 1-7.08 7.083h-33.34a7.082 7.082 0 0 1-7.08-7.083v-41.667a7.082 7.082 0 0 1 7.08-7.083h5.63c1.49 0 2.71-1.213 2.71-2.709Z"/><path d="M1170.95 651.655c.58.541.87 1.25.87 2 0 .666-.2 1.291-.7 1.833l-15.94 16.917a2.916 2.916 0 0 1-4.34 0l-14.6-16.75c-1-1.125-.92-2.834.17-3.834 1.12-1 2.83-.958 3.83.167l10.06 11.919h.07v-20.669c0-8.399 6.8-15.208 15.2-15.208h13.95c1.49 0 2.71 1.212 2.71 2.708a2.713 2.713 0 0 1-2.71 2.708h-13.95c-5.4 0-9.79 4.384-9.79 9.792v20.63l11.34-12.047c1-1.083 2.7-1.166 3.83-.166Z"/></g></g></g><g id="Thin-S"><g id="Outline / Import Outline_26"><g id="Shape_26" fill="#000"><path d="M848.665 630.376a2.708 2.708 0 0 0-2.708-2.708h-5.625c-6.904 0-12.5 5.596-12.5 12.5v41.667c0 6.903 5.596 12.5 12.5 12.5h33.333c6.904 0 12.5-5.597 12.5-12.5v-35.881a2.707 2.707 0 1 0-5.416 0v35.881a7.084 7.084 0 0 1-7.084 7.083h-33.333a7.083 7.083 0 0 1-7.083-7.083v-41.667a7.083 7.083 0 0 1 7.083-7.083h5.625a2.708 2.708 0 0 0 2.708-2.709Z"/><path d="M874.949 651.655c.584.541.875 1.25.875 2 0 .666-.208 1.291-.708 1.833l-15.94 16.917a2.908 2.908 0 0 1-4.333 0l-14.602-16.75c-1-1.125-.917-2.834.167-3.834 1.125-1 2.833-.958 3.833.167l10.06 11.919h.065v-20.669c0-8.399 6.809-15.208 15.208-15.208h13.943a2.707 2.707 0 1 1 0 5.416h-13.943c-5.407 0-9.791 4.384-9.791 9.792v20.63l11.333-12.047c1-1.083 2.708-1.166 3.833-.166Z"/></g></g></g><g id="Ultralight-S"><g id="Outline / Import Outline_27"><g id="Shape_27" fill="#000"><path d="M552.665 630.376a2.708 2.708 0 0 0-2.708-2.708h-5.625c-6.904 0-12.5 5.596-12.5 12.5v41.667c0 6.903 5.596 12.5 12.5 12.5h33.333c6.904 0 12.5-5.597 12.5-12.5v-35.881a2.707 2.707 0 1 0-5.416 0v35.881a7.084 7.084 0 0 1-7.084 7.083h-33.333a7.083 7.083 0 0 1-7.083-7.083v-41.667a7.083 7.083 0 0 1 7.083-7.083h5.625a2.708 2.708 0 0 0 2.708-2.709Z"/><path d="M578.949 651.655c.584.541.875 1.25.875 2 0 .666-.208 1.291-.708 1.833l-15.94 16.917a2.908 2.908 0 0 1-4.333 0l-14.602-16.75c-1-1.125-.917-2.834.167-3.834 1.125-1 2.833-.958 3.833.167l10.06 11.919h.065v-20.669c0-8.399 6.809-15.208 15.208-15.208h13.943a2.707 2.707 0 1 1 0 5.416h-13.943c-5.407 0-9.791 4.384-9.791 9.792v20.63l11.333-12.047c1-1.083 2.708-1.166 3.833-.166Z"/></g></g></g></g></g><defs><clipPath id="clip0_805_27002"><path fill="#fff" d="M0 0h3300v2200H0z"/></clipPath></defs></svg>