<svg width="3300" height="2200" viewBox="0 0 3300 2200" fill="none" xmlns="http://www.w3.org/2000/svg">
<rect width="3300" height="2200" fill="#E5E5E5"/>
<g id="Finance / Solid / Payroll Card" clip-path="url(#clip0_0_1)">
<g id="Notes">
<path id="artboard" d="M3300 0H0V2200H3300V0Z" fill="white"/>
<path id="Vector" d="M263 292H3036" stroke="black" stroke-width="0.5"/>
<text id="Weight/Scale Variations" fill="black" xml:space="preserve" style="white-space: pre" font-family="Roboto" font-size="12" letter-spacing="0em"><tspan x="263" y="321.102">Weight/Scale Variations</tspan></text>
<text id="Ultralight" fill="black" xml:space="preserve" style="white-space: pre" font-family="Roboto" font-size="12" letter-spacing="0em"><tspan x="535.211" y="321.102">Ultralight</tspan></text>
<text id="Thin" fill="black" xml:space="preserve" style="white-space: pre" font-family="Roboto" font-size="12" letter-spacing="0em"><tspan x="844.422" y="321.102">Thin</tspan></text>
<text id="Light" fill="black" xml:space="preserve" style="white-space: pre" font-family="Roboto" font-size="12" letter-spacing="0em"><tspan x="1139.63" y="321.102">Light</tspan></text>
<text id="Regular" fill="black" xml:space="preserve" style="white-space: pre" font-family="Roboto" font-size="12" letter-spacing="0em"><tspan x="1429.34" y="321.102">Regular</tspan></text>
<text id="Medium" fill="black" xml:space="preserve" style="white-space: pre" font-family="Roboto" font-size="12" letter-spacing="0em"><tspan x="1724.56" y="321.102">Medium</tspan></text>
<text id="Semibold" fill="black" xml:space="preserve" style="white-space: pre" font-family="Roboto" font-size="12" letter-spacing="0em"><tspan x="2017.77" y="321.102">Semibold</tspan></text>
<text id="Bold" fill="black" xml:space="preserve" style="white-space: pre" font-family="Roboto" font-size="12" letter-spacing="0em"><tspan x="2327.48" y="321.102">Bold</tspan></text>
<text id="Heavy" fill="black" xml:space="preserve" style="white-space: pre" font-family="Roboto" font-size="12" letter-spacing="0em"><tspan x="2620.19" y="321.102">Heavy</tspan></text>
<text id="Black" fill="black" xml:space="preserve" style="white-space: pre" font-family="Roboto" font-size="12" letter-spacing="0em"><tspan x="2918.4" y="321.102">Black</tspan></text>
<path id="Vector_2" d="M263 1903H3036" stroke="black" stroke-width="0.5"/>
<g id="Group">
<path id="Vector_3" d="M272.248 1933.83C276.555 1933.83 280.139 1930.26 280.139 1925.95C280.139 1921.64 276.545 1918.07 272.238 1918.07C267.941 1918.07 264.367 1921.64 264.367 1925.95C264.367 1930.26 267.951 1933.83 272.248 1933.83ZM272.248 1932.35C268.703 1932.35 265.871 1929.5 265.871 1925.95C265.871 1922.39 268.693 1919.55 272.238 1919.55C275.793 1919.55 278.635 1922.39 278.644 1925.95C278.654 1929.5 275.803 1932.35 272.248 1932.35ZM272.229 1929.57C272.697 1929.57 272.971 1929.26 272.971 1928.74V1926.68H275.197C275.695 1926.68 276.037 1926.43 276.037 1925.96C276.037 1925.48 275.715 1925.22 275.197 1925.22H272.971V1922.99C272.971 1922.47 272.697 1922.15 272.229 1922.15C271.76 1922.15 271.506 1922.49 271.506 1922.99V1925.22H269.299C268.781 1925.22 268.449 1925.48 268.449 1925.96C268.449 1926.43 268.801 1926.68 269.299 1926.68H271.506V1928.74C271.506 1929.24 271.76 1929.57 272.229 1929.57Z" fill="black"/>
</g>
<g id="Group_2">
<path id="Vector_4" d="M293.215 1935.91C298.664 1935.91 303.176 1931.4 303.176 1925.95C303.176 1920.51 298.654 1915.99 293.205 1915.99C287.766 1915.99 283.254 1920.51 283.254 1925.95C283.254 1931.4 287.775 1935.91 293.215 1935.91ZM293.215 1934.25C288.605 1934.25 284.924 1930.56 284.924 1925.95C284.924 1921.35 288.596 1917.65 293.205 1917.65C297.814 1917.65 301.506 1921.35 301.516 1925.95C301.525 1930.56 297.824 1934.25 293.215 1934.25ZM293.195 1930.59C293.713 1930.59 294.025 1930.23 294.025 1929.66V1926.77H297.082C297.629 1926.77 298.01 1926.49 298.01 1925.97C298.01 1925.44 297.648 1925.14 297.082 1925.14H294.025V1922.07C294.025 1921.5 293.713 1921.14 293.195 1921.14C292.678 1921.14 292.385 1921.52 292.385 1922.07V1925.14H289.338C288.771 1925.14 288.4 1925.44 288.4 1925.97C288.4 1926.49 288.791 1926.77 289.338 1926.77H292.385V1929.66C292.385 1930.21 292.678 1930.59 293.195 1930.59Z" fill="black"/>
</g>
<g id="Group_3">
<path id="Vector_5" d="M319.895 1938.67C326.857 1938.67 332.619 1932.92 332.619 1925.96C332.619 1919 326.848 1913.24 319.885 1913.24C312.932 1913.24 307.18 1919 307.18 1925.96C307.18 1932.92 312.941 1938.67 319.895 1938.67ZM319.895 1936.86C313.859 1936.86 309.006 1931.99 309.006 1925.96C309.006 1919.92 313.85 1915.06 319.885 1915.06C325.93 1915.06 330.783 1919.92 330.793 1925.96C330.803 1931.99 325.939 1936.86 319.895 1936.86ZM319.875 1931.94C320.441 1931.94 320.793 1931.54 320.793 1930.94V1926.87H325.031C325.617 1926.87 326.037 1926.54 326.037 1925.98C326.037 1925.4 325.647 1925.06 325.031 1925.06H320.793V1920.81C320.793 1920.2 320.441 1919.81 319.875 1919.81C319.309 1919.81 318.986 1920.22 318.986 1920.81V1925.06H314.758C314.143 1925.06 313.732 1925.4 313.732 1925.98C313.732 1926.54 314.162 1926.87 314.758 1926.87H318.986V1930.94C318.986 1931.53 319.309 1931.94 319.875 1931.94Z" fill="black"/>
</g>
<text id="Design Variations" fill="black" xml:space="preserve" style="white-space: pre" font-family="Roboto" font-size="12" letter-spacing="0em"><tspan x="263" y="1952.1">Design Variations</tspan></text>
<text id="Symbols are supported in up to nine weights and three scales." fill="black" xml:space="preserve" style="white-space: pre" font-family="Roboto" font-size="12" letter-spacing="0em"><tspan x="263" y="1970.1">Symbols are supported in up to nine weights and three scales.</tspan></text>
<text id="For optimal layout with text and other symbols, vertically align" fill="black" xml:space="preserve" style="white-space: pre" font-family="Roboto" font-size="12" letter-spacing="0em"><tspan x="263" y="1988.1">For optimal layout with text and other symbols, vertically align</tspan></text>
<text id="symbols with the adjacent text." fill="black" xml:space="preserve" style="white-space: pre" font-family="Roboto" font-size="12" letter-spacing="0em"><tspan x="263" y="2006.1">symbols with the adjacent text.</tspan></text>
<path id="Vector_6" opacity="0.4" d="M779 1919H776V1933H779V1919Z" fill="#00AEEF"/>
<g id="Group_4">
<path id="Vector_7" d="M789.527 1933H791.373L786.178 1918.91H784.439L779.244 1933H781.09L782.506 1928.97H788.111L789.527 1933ZM785.279 1921.05H785.338L787.594 1927.47H783.023L785.279 1921.05Z" fill="black"/>
</g>
<path id="Vector_8" opacity="0.4" d="M794.617 1919H791.617V1933H794.617V1919Z" fill="#00AEEF"/>
<text id="Margins" fill="black" xml:space="preserve" style="white-space: pre" font-family="Roboto" font-size="12" letter-spacing="0em"><tspan x="776" y="1952.1">Margins</tspan></text>
<text id="Leading and trailing margins on the left and right side of each symbol" fill="black" xml:space="preserve" style="white-space: pre" font-family="Roboto" font-size="12" letter-spacing="0em"><tspan x="776" y="1970.1">Leading and trailing margins on the left and right side of each symbol</tspan></text>
<text id="can be adjusted by modifying the width of the blue rectangles." fill="black" xml:space="preserve" style="white-space: pre" font-family="Roboto" font-size="12" letter-spacing="0em"><tspan x="776" y="1988.1">can be adjusted by modifying the width of the blue rectangles.</tspan></text>
<text id="Modifications are automatically applied proportionally to all" fill="black" xml:space="preserve" style="white-space: pre" font-family="Roboto" font-size="12" letter-spacing="0em"><tspan x="776" y="2006.1">Modifications are automatically applied proportionally to all</tspan></text>
<text id="scales and weights." fill="black" xml:space="preserve" style="white-space: pre" font-family="Roboto" font-size="12" letter-spacing="0em"><tspan x="776" y="2024.1">scales and weights.</tspan></text>
<g id="Group_5">
<path id="Vector_9" d="M1291.83 1936.12L1293.37 1937.66C1294.22 1938.49 1295.19 1938.42 1296.06 1937.46L1306.27 1926.34C1306.7 1926.63 1307.1 1926.62 1307.56 1926.53L1308.61 1926.31L1309.3 1927L1309.25 1927.52C1309.19 1928.05 1309.35 1928.47 1309.85 1928.97L1310.66 1929.78C1311.17 1930.29 1311.82 1930.31 1312.3 1929.84L1315.55 1926.58C1316.03 1926.11 1316.01 1925.45 1315.5 1924.94L1314.68 1924.12C1314.19 1923.62 1313.77 1923.45 1313.24 1923.53L1312.71 1923.59L1312.06 1922.92L1312.34 1921.78C1312.49 1921.21 1312.34 1920.74 1311.71 1920.14L1309.3 1917.75C1305.76 1914.22 1301.23 1914.33 1298.11 1917.46C1297.69 1917.89 1297.64 1918.48 1297.92 1918.91C1298.15 1919.28 1298.63 1919.5 1299.27 1919.34C1300.79 1918.96 1302.3 1919.07 1303.78 1920.08L1303.16 1921.66C1302.93 1922.25 1302.94 1922.73 1303.18 1923.17L1292.02 1933.44C1291.08 1934.31 1290.97 1935.26 1291.83 1936.12ZM1299.67 1917.85C1302.34 1915.86 1305.65 1916.17 1308.05 1918.59L1310.68 1921.19C1310.91 1921.43 1310.94 1921.61 1310.88 1921.91L1310.5 1923.47L1312.08 1925.04L1313.04 1924.95C1313.33 1924.92 1313.41 1924.94 1313.64 1925.17L1314.26 1925.79L1311.51 1928.54L1310.88 1927.92C1310.66 1927.7 1310.64 1927.6 1310.67 1927.32L1310.76 1926.36L1309.19 1924.8L1307.57 1925.11C1307.29 1925.17 1307.14 1925.17 1306.91 1924.92L1304.73 1922.75C1304.51 1922.51 1304.48 1922.37 1304.61 1922.05L1305.55 1919.78C1303.95 1918.24 1301.84 1917.39 1299.8 1918.05C1299.71 1918.08 1299.64 1918.06 1299.61 1918.02C1299.59 1917.97 1299.59 1917.92 1299.67 1917.85ZM1293.1 1935.41C1292.61 1934.91 1292.79 1934.61 1293.12 1934.31L1304.08 1924.19L1305.31 1925.42L1295.15 1936.35C1294.85 1936.68 1294.47 1936.78 1294.07 1936.38L1293.1 1935.41Z" fill="black"/>
</g>
<text id="Exporting" fill="black" xml:space="preserve" style="white-space: pre" font-family="Roboto" font-size="12" letter-spacing="0em"><tspan x="1289" y="1952.1">Exporting</tspan></text>
<text id="Symbols should be outlined when exporting to ensure the" fill="black" xml:space="preserve" style="white-space: pre" font-family="Roboto" font-size="12" letter-spacing="0em"><tspan x="1289" y="1970.1">Symbols should be outlined when exporting to ensure the</tspan></text>
<text id="design is preserved when submitting to Xcode." fill="black" xml:space="preserve" style="white-space: pre" font-family="Roboto" font-size="12" letter-spacing="0em"><tspan x="1289" y="1988.1">design is preserved when submitting to Xcode.</tspan></text>
<text id="template-version" fill="black" xml:space="preserve" style="white-space: pre" font-family="Roboto" font-size="12" letter-spacing="0em"><tspan x="2958" y="1932.1">Template v.1.0</tspan></text>
<text id="Generated from pencil.circle" fill="black" xml:space="preserve" style="white-space: pre" font-family="Roboto" font-size="12" letter-spacing="0em"><tspan x="2885" y="1950.1">Generated from pencil.circle</tspan></text>
<text id="Typeset at 100 points" fill="black" xml:space="preserve" style="white-space: pre" font-family="Roboto" font-size="12" letter-spacing="0em"><tspan x="2921" y="1968.1">Typeset at 100 points</tspan></text>
<text id="Small" fill="black" xml:space="preserve" style="white-space: pre" font-family="Roboto" font-size="12" letter-spacing="0em"><tspan x="263" y="725.102">Small</tspan></text>
<text id="Medium_2" fill="black" xml:space="preserve" style="white-space: pre" font-family="Roboto" font-size="12" letter-spacing="0em"><tspan x="263" y="1155.1">Medium</tspan></text>
<text id="Large" fill="black" xml:space="preserve" style="white-space: pre" font-family="Roboto" font-size="12" letter-spacing="0em"><tspan x="263" y="1585.1">Large</tspan></text>
</g>
<g id="Guides">
<g id="H-reference">
<path id="Vector_10" d="M393.932 696H396.666L369.566 625.541H367.076L339.977 696H342.662L351.94 671.537H384.703L393.932 696ZM368.199 628.91H368.443L383.824 669.291H352.818L368.199 628.91Z" fill="#27AAE1"/>
</g>
<path id="Baseline-S" d="M263 696H3036" stroke="#27AAE1" stroke-width="0.577"/>
<path id="Capline-S" d="M263 626H3036" stroke="#27AAE1" stroke-width="0.577"/>
<g id="H-reference_2">
<path id="Vector_11" d="M393.932 1126H396.666L369.566 1055.54H367.076L339.977 1126H342.662L351.94 1101.54H384.703L393.932 1126ZM368.199 1058.91H368.443L383.824 1099.29H352.818L368.199 1058.91Z" fill="#27AAE1"/>
</g>
<path id="Baseline-M" d="M263 1126H3036" stroke="#27AAE1" stroke-width="0.577"/>
<path id="Capline-M" d="M263 1056H3036" stroke="#27AAE1" stroke-width="0.577"/>
<g id="H-reference_3">
<path id="Vector_12" d="M393.932 1556H396.666L369.566 1485.54H367.076L339.977 1556H342.662L351.94 1531.54H384.703L393.932 1556ZM368.199 1488.91H368.443L383.824 1529.29H352.818L368.199 1488.91Z" fill="#27AAE1"/>
</g>
<g id="Group 1">
<path id="Baseline-L" d="M263 1556H3036" stroke="#27AAE1" stroke-width="0.577"/>
<path id="Capline-L" d="M263 1486H3036" stroke="#27AAE1" stroke-width="0.577"/>
</g>
<path id="left-margin" opacity="0.4" d="M1396.04 1030.79H1387.3V1150.13H1396.04V1030.79Z" fill="#00AEEF"/>
<path id="right-margin" opacity="0.4" d="M1510.39 1030.79H1501.65V1150.13H1510.39V1030.79Z" fill="#00AEEF"/>
</g>
<g id="Symbols">
<g id="Black-L">
<g id="Solid / Payroll Card Solid">
<g id="Shape">
<path d="M2861.71 1487.91C2861.32 1490.78 2863.85 1493.17 2866.75 1493.17L2991.74 1493.17C2994.37 1493.17 2996.65 1491.03 2996.35 1488.42C2995.16 1477.96 2986.8 1469.68 2976.3 1468.62C2975.54 1468.54 2974.78 1468.5 2974 1468.5H2884C2872.62 1468.5 2863.22 1476.95 2861.71 1487.91Z" fill="black"/>
<path fill-rule="evenodd" clip-rule="evenodd" d="M2861.5 1551C2861.5 1563.43 2871.57 1573.5 2884 1573.5H2974C2986.43 1573.5 2996.5 1563.43 2996.5 1551V1508.17C2996.5 1505.27 2994.15 1502.92 2991.25 1502.92L2866.75 1502.92C2863.85 1502.92 2861.5 1505.27 2861.5 1508.17V1551ZM2931.44 1521.33C2931.44 1518.64 2933.62 1516.46 2936.31 1516.46H2961.13C2963.82 1516.46 2966 1518.64 2966 1521.33V1554.87C2966 1557.56 2963.82 1559.74 2961.13 1559.74C2958.43 1559.74 2956.25 1557.56 2956.25 1554.87V1526.21H2941.19V1554.87C2941.19 1557.56 2939 1559.74 2936.31 1559.74C2933.62 1559.74 2931.44 1557.56 2931.44 1554.87V1521.33ZM2900.08 1527.83C2901.28 1526.85 2902.79 1526.31 2904.34 1526.31H2907.78C2909.6 1526.31 2911.08 1527.79 2911.08 1529.62C2911.08 1531.44 2909.6 1532.92 2907.78 1532.92H2907.13C2904.44 1532.92 2902.26 1535.11 2902.26 1537.8C2902.26 1540.49 2904.44 1542.67 2907.13 1542.67H2907.55L2907.61 1542.67H2908.29C2910.32 1542.67 2911.96 1544.32 2911.96 1546.34C2911.96 1548.37 2910.32 1550.02 2908.29 1550.02H2904.68C2903.01 1550.02 2901.38 1549.44 2900.08 1548.38L2899.95 1548.27C2897.86 1546.57 2894.79 1546.89 2893.09 1548.98C2891.39 1551.06 2891.71 1554.13 2893.8 1555.83L2893.93 1555.94C2896.97 1558.42 2900.76 1559.77 2904.68 1559.77H2908.29C2915.71 1559.77 2921.71 1553.76 2921.71 1546.34C2921.71 1542.9 2920.41 1539.75 2918.28 1537.38C2919.88 1535.21 2920.83 1532.52 2920.83 1529.62C2920.83 1522.41 2914.99 1516.56 2907.78 1516.56H2904.34C2900.54 1516.56 2896.86 1517.87 2893.92 1520.27L2893.79 1520.38C2891.71 1522.08 2891.39 1525.15 2893.1 1527.23C2894.8 1529.32 2897.87 1529.63 2899.95 1527.93L2900.08 1527.83Z" fill="black"/>
</g>
</g>
</g>
<g id="Heavy-L">
<g id="Solid / Payroll Card Solid_2">
<g id="Shape_2">
<path d="M2565.71 1487.91C2565.32 1490.78 2567.85 1493.17 2570.75 1493.17L2695.74 1493.17C2698.37 1493.17 2700.65 1491.03 2700.35 1488.42C2699.16 1477.96 2690.8 1469.68 2680.3 1468.62C2679.54 1468.54 2678.78 1468.5 2678 1468.5H2588C2576.62 1468.5 2567.22 1476.95 2565.71 1487.91Z" fill="black"/>
<path fill-rule="evenodd" clip-rule="evenodd" d="M2565.5 1551C2565.5 1563.43 2575.57 1573.5 2588 1573.5H2678C2690.43 1573.5 2700.5 1563.43 2700.5 1551V1508.17C2700.5 1505.27 2698.15 1502.92 2695.25 1502.92L2570.75 1502.92C2567.85 1502.92 2565.5 1505.27 2565.5 1508.17V1551ZM2635.44 1521.33C2635.44 1518.64 2637.62 1516.46 2640.31 1516.46H2665.13C2667.82 1516.46 2670 1518.64 2670 1521.33V1554.87C2670 1557.56 2667.82 1559.74 2665.13 1559.74C2662.43 1559.74 2660.25 1557.56 2660.25 1554.87V1526.21H2645.19V1554.87C2645.19 1557.56 2643 1559.74 2640.31 1559.74C2637.62 1559.74 2635.44 1557.56 2635.44 1554.87V1521.33ZM2604.08 1527.83C2605.28 1526.85 2606.79 1526.31 2608.34 1526.31H2611.78C2613.6 1526.31 2615.08 1527.79 2615.08 1529.62C2615.08 1531.44 2613.6 1532.92 2611.78 1532.92H2611.13C2608.44 1532.92 2606.26 1535.11 2606.26 1537.8C2606.26 1540.49 2608.44 1542.67 2611.13 1542.67H2611.55L2611.61 1542.67H2612.29C2614.32 1542.67 2615.96 1544.32 2615.96 1546.34C2615.96 1548.37 2614.32 1550.02 2612.29 1550.02H2608.68C2607.01 1550.02 2605.38 1549.44 2604.08 1548.38L2603.95 1548.27C2601.86 1546.57 2598.79 1546.89 2597.09 1548.98C2595.39 1551.06 2595.71 1554.13 2597.8 1555.83L2597.93 1555.94C2600.97 1558.42 2604.76 1559.77 2608.68 1559.77H2612.29C2619.71 1559.77 2625.71 1553.76 2625.71 1546.34C2625.71 1542.9 2624.41 1539.75 2622.28 1537.38C2623.88 1535.21 2624.83 1532.52 2624.83 1529.62C2624.83 1522.41 2618.99 1516.56 2611.78 1516.56H2608.34C2604.54 1516.56 2600.86 1517.87 2597.92 1520.27L2597.79 1520.38C2595.71 1522.08 2595.39 1525.15 2597.1 1527.23C2598.8 1529.32 2601.87 1529.63 2603.95 1527.93L2604.08 1527.83Z" fill="black"/>
</g>
</g>
</g>
<g id="Bold-L">
<g id="Solid / Payroll Card Solid_3">
<g id="Shape_3">
<path d="M2269.71 1487.91C2269.32 1490.78 2271.85 1493.17 2274.75 1493.17L2399.74 1493.17C2402.37 1493.17 2404.65 1491.03 2404.35 1488.42C2403.16 1477.96 2394.8 1469.68 2384.3 1468.62C2383.54 1468.54 2382.78 1468.5 2382 1468.5H2292C2280.62 1468.5 2271.22 1476.95 2269.71 1487.91Z" fill="black"/>
<path fill-rule="evenodd" clip-rule="evenodd" d="M2269.5 1551C2269.5 1563.43 2279.57 1573.5 2292 1573.5H2382C2394.43 1573.5 2404.5 1563.43 2404.5 1551V1508.17C2404.5 1505.27 2402.15 1502.92 2399.25 1502.92L2274.75 1502.92C2271.85 1502.92 2269.5 1505.27 2269.5 1508.17V1551ZM2339.44 1521.33C2339.44 1518.64 2341.62 1516.46 2344.31 1516.46H2369.13C2371.82 1516.46 2374 1518.64 2374 1521.33V1554.87C2374 1557.56 2371.82 1559.74 2369.13 1559.74C2366.43 1559.74 2364.25 1557.56 2364.25 1554.87V1526.21H2349.19V1554.87C2349.19 1557.56 2347 1559.74 2344.31 1559.74C2341.62 1559.74 2339.44 1557.56 2339.44 1554.87V1521.33ZM2308.08 1527.83C2309.28 1526.85 2310.79 1526.31 2312.34 1526.31H2315.78C2317.6 1526.31 2319.08 1527.79 2319.08 1529.62C2319.08 1531.44 2317.6 1532.92 2315.78 1532.92H2315.13C2312.44 1532.92 2310.26 1535.11 2310.26 1537.8C2310.26 1540.49 2312.44 1542.67 2315.13 1542.67H2315.55L2315.61 1542.67H2316.29C2318.32 1542.67 2319.96 1544.32 2319.96 1546.34C2319.96 1548.37 2318.32 1550.02 2316.29 1550.02H2312.68C2311.01 1550.02 2309.38 1549.44 2308.08 1548.38L2307.95 1548.27C2305.86 1546.57 2302.79 1546.89 2301.09 1548.98C2299.39 1551.06 2299.71 1554.13 2301.8 1555.83L2301.93 1555.94C2304.97 1558.42 2308.76 1559.77 2312.68 1559.77H2316.29C2323.71 1559.77 2329.71 1553.76 2329.71 1546.34C2329.71 1542.9 2328.41 1539.75 2326.28 1537.38C2327.88 1535.21 2328.83 1532.52 2328.83 1529.62C2328.83 1522.41 2322.99 1516.56 2315.78 1516.56H2312.34C2308.54 1516.56 2304.86 1517.87 2301.92 1520.27L2301.79 1520.38C2299.71 1522.08 2299.39 1525.15 2301.1 1527.23C2302.8 1529.32 2305.87 1529.63 2307.95 1527.93L2308.08 1527.83Z" fill="black"/>
</g>
</g>
</g>
<g id="Semibold-L">
<g id="Solid / Payroll Card Solid_4">
<g id="Shape_4">
<path d="M1973.71 1487.91C1973.32 1490.78 1975.85 1493.17 1978.75 1493.17L2103.74 1493.17C2106.37 1493.17 2108.65 1491.03 2108.35 1488.42C2107.16 1477.96 2098.8 1469.68 2088.3 1468.62C2087.54 1468.54 2086.78 1468.5 2086 1468.5H1996C1984.62 1468.5 1975.22 1476.95 1973.71 1487.91Z" fill="black"/>
<path fill-rule="evenodd" clip-rule="evenodd" d="M1973.5 1551C1973.5 1563.43 1983.57 1573.5 1996 1573.5H2086C2098.43 1573.5 2108.5 1563.43 2108.5 1551V1508.17C2108.5 1505.27 2106.15 1502.92 2103.25 1502.92L1978.75 1502.92C1975.85 1502.92 1973.5 1505.27 1973.5 1508.17V1551ZM2043.44 1521.33C2043.44 1518.64 2045.62 1516.46 2048.31 1516.46H2073.13C2075.82 1516.46 2078 1518.64 2078 1521.33V1554.87C2078 1557.56 2075.82 1559.74 2073.13 1559.74C2070.43 1559.74 2068.25 1557.56 2068.25 1554.87V1526.21H2053.19V1554.87C2053.19 1557.56 2051 1559.74 2048.31 1559.74C2045.62 1559.74 2043.44 1557.56 2043.44 1554.87V1521.33ZM2012.08 1527.83C2013.28 1526.85 2014.79 1526.31 2016.34 1526.31H2019.78C2021.6 1526.31 2023.08 1527.79 2023.08 1529.62C2023.08 1531.44 2021.6 1532.92 2019.78 1532.92H2019.13C2016.44 1532.92 2014.26 1535.11 2014.26 1537.8C2014.26 1540.49 2016.44 1542.67 2019.13 1542.67H2019.55L2019.61 1542.67H2020.29C2022.32 1542.67 2023.96 1544.32 2023.96 1546.34C2023.96 1548.37 2022.32 1550.02 2020.29 1550.02H2016.68C2015.01 1550.02 2013.38 1549.44 2012.08 1548.38L2011.95 1548.27C2009.86 1546.57 2006.79 1546.89 2005.09 1548.98C2003.39 1551.06 2003.71 1554.13 2005.8 1555.83L2005.93 1555.94C2008.97 1558.42 2012.76 1559.77 2016.68 1559.77H2020.29C2027.71 1559.77 2033.71 1553.76 2033.71 1546.34C2033.71 1542.9 2032.41 1539.75 2030.28 1537.38C2031.88 1535.21 2032.83 1532.52 2032.83 1529.62C2032.83 1522.41 2026.99 1516.56 2019.78 1516.56H2016.34C2012.54 1516.56 2008.86 1517.87 2005.92 1520.27L2005.79 1520.38C2003.71 1522.08 2003.39 1525.15 2005.1 1527.23C2006.8 1529.32 2009.87 1529.63 2011.95 1527.93L2012.08 1527.83Z" fill="black"/>
</g>
</g>
</g>
<g id="Medium-L">
<g id="Solid / Payroll Card Solid_5">
<g id="Shape_5">
<path d="M1677.71 1487.91C1677.32 1490.78 1679.85 1493.17 1682.75 1493.17L1807.74 1493.17C1810.37 1493.17 1812.65 1491.03 1812.35 1488.42C1811.16 1477.96 1802.8 1469.68 1792.3 1468.62C1791.54 1468.54 1790.78 1468.5 1790 1468.5H1700C1688.62 1468.5 1679.22 1476.95 1677.71 1487.91Z" fill="black"/>
<path fill-rule="evenodd" clip-rule="evenodd" d="M1677.5 1551C1677.5 1563.43 1687.57 1573.5 1700 1573.5H1790C1802.43 1573.5 1812.5 1563.43 1812.5 1551V1508.17C1812.5 1505.27 1810.15 1502.92 1807.25 1502.92L1682.75 1502.92C1679.85 1502.92 1677.5 1505.27 1677.5 1508.17V1551ZM1747.44 1521.33C1747.44 1518.64 1749.62 1516.46 1752.31 1516.46H1777.13C1779.82 1516.46 1782 1518.64 1782 1521.33V1554.87C1782 1557.56 1779.82 1559.74 1777.13 1559.74C1774.43 1559.74 1772.25 1557.56 1772.25 1554.87V1526.21H1757.19V1554.87C1757.19 1557.56 1755 1559.74 1752.31 1559.74C1749.62 1559.74 1747.44 1557.56 1747.44 1554.87V1521.33ZM1716.08 1527.83C1717.28 1526.85 1718.79 1526.31 1720.34 1526.31H1723.78C1725.6 1526.31 1727.08 1527.79 1727.08 1529.62C1727.08 1531.44 1725.6 1532.92 1723.78 1532.92H1723.13C1720.44 1532.92 1718.26 1535.11 1718.26 1537.8C1718.26 1540.49 1720.44 1542.67 1723.13 1542.67H1723.55L1723.61 1542.67H1724.29C1726.32 1542.67 1727.96 1544.32 1727.96 1546.34C1727.96 1548.37 1726.32 1550.02 1724.29 1550.02H1720.68C1719.01 1550.02 1717.38 1549.44 1716.08 1548.38L1715.95 1548.27C1713.86 1546.57 1710.79 1546.89 1709.09 1548.98C1707.39 1551.06 1707.71 1554.13 1709.8 1555.83L1709.93 1555.94C1712.97 1558.42 1716.76 1559.77 1720.68 1559.77H1724.29C1731.71 1559.77 1737.71 1553.76 1737.71 1546.34C1737.71 1542.9 1736.41 1539.75 1734.28 1537.38C1735.88 1535.21 1736.83 1532.52 1736.83 1529.62C1736.83 1522.41 1730.99 1516.56 1723.78 1516.56H1720.34C1716.54 1516.56 1712.86 1517.87 1709.92 1520.27L1709.79 1520.38C1707.71 1522.08 1707.39 1525.15 1709.1 1527.23C1710.8 1529.32 1713.87 1529.63 1715.95 1527.93L1716.08 1527.83Z" fill="black"/>
</g>
</g>
</g>
<g id="Regular-L">
<g id="Solid / Payroll Card Solid_6">
<g id="Shape_6">
<path d="M1381.71 1487.91C1381.32 1490.78 1383.85 1493.17 1386.75 1493.17L1511.74 1493.17C1514.37 1493.17 1516.65 1491.03 1516.35 1488.42C1515.16 1477.96 1506.8 1469.68 1496.3 1468.62C1495.54 1468.54 1494.78 1468.5 1494 1468.5H1404C1392.62 1468.5 1383.22 1476.95 1381.71 1487.91Z" fill="black"/>
<path fill-rule="evenodd" clip-rule="evenodd" d="M1381.5 1551C1381.5 1563.43 1391.57 1573.5 1404 1573.5H1494C1506.43 1573.5 1516.5 1563.43 1516.5 1551V1508.17C1516.5 1505.27 1514.15 1502.92 1511.25 1502.92L1386.75 1502.92C1383.85 1502.92 1381.5 1505.27 1381.5 1508.17V1551ZM1451.44 1521.33C1451.44 1518.64 1453.62 1516.46 1456.31 1516.46H1481.13C1483.82 1516.46 1486 1518.64 1486 1521.33V1554.87C1486 1557.56 1483.82 1559.74 1481.13 1559.74C1478.43 1559.74 1476.25 1557.56 1476.25 1554.87V1526.21H1461.19V1554.87C1461.19 1557.56 1459 1559.74 1456.31 1559.74C1453.62 1559.74 1451.44 1557.56 1451.44 1554.87V1521.33ZM1420.08 1527.83C1421.28 1526.85 1422.79 1526.31 1424.34 1526.31H1427.78C1429.6 1526.31 1431.08 1527.79 1431.08 1529.62C1431.08 1531.44 1429.6 1532.92 1427.78 1532.92H1427.13C1424.44 1532.92 1422.26 1535.11 1422.26 1537.8C1422.26 1540.49 1424.44 1542.67 1427.13 1542.67H1427.55L1427.61 1542.67H1428.29C1430.32 1542.67 1431.96 1544.32 1431.96 1546.34C1431.96 1548.37 1430.32 1550.02 1428.29 1550.02H1424.68C1423.01 1550.02 1421.38 1549.44 1420.08 1548.38L1419.95 1548.27C1417.86 1546.57 1414.79 1546.89 1413.09 1548.98C1411.39 1551.06 1411.71 1554.13 1413.8 1555.83L1413.93 1555.94C1416.97 1558.42 1420.76 1559.77 1424.68 1559.77H1428.29C1435.71 1559.77 1441.71 1553.76 1441.71 1546.34C1441.71 1542.9 1440.41 1539.75 1438.28 1537.38C1439.88 1535.21 1440.83 1532.52 1440.83 1529.62C1440.83 1522.41 1434.99 1516.56 1427.78 1516.56H1424.34C1420.54 1516.56 1416.86 1517.87 1413.92 1520.27L1413.79 1520.38C1411.71 1522.08 1411.39 1525.15 1413.1 1527.23C1414.8 1529.32 1417.87 1529.63 1419.95 1527.93L1420.08 1527.83Z" fill="black"/>
</g>
</g>
</g>
<g id="Light-L">
<g id="Solid / Payroll Card Solid_7">
<g id="Shape_7">
<path d="M1085.71 1487.91C1085.32 1490.78 1087.85 1493.17 1090.75 1493.17L1215.74 1493.17C1218.37 1493.17 1220.65 1491.03 1220.35 1488.42C1219.16 1477.96 1210.8 1469.68 1200.3 1468.62C1199.54 1468.54 1198.78 1468.5 1198 1468.5H1108C1096.62 1468.5 1087.22 1476.95 1085.71 1487.91Z" fill="black"/>
<path fill-rule="evenodd" clip-rule="evenodd" d="M1085.5 1551C1085.5 1563.43 1095.57 1573.5 1108 1573.5H1198C1210.43 1573.5 1220.5 1563.43 1220.5 1551V1508.17C1220.5 1505.27 1218.15 1502.92 1215.25 1502.92L1090.75 1502.92C1087.85 1502.92 1085.5 1505.27 1085.5 1508.17V1551ZM1155.44 1521.33C1155.44 1518.64 1157.62 1516.46 1160.31 1516.46H1185.13C1187.82 1516.46 1190 1518.64 1190 1521.33V1554.87C1190 1557.56 1187.82 1559.74 1185.13 1559.74C1182.43 1559.74 1180.25 1557.56 1180.25 1554.87V1526.21H1165.19V1554.87C1165.19 1557.56 1163 1559.74 1160.31 1559.74C1157.62 1559.74 1155.44 1557.56 1155.44 1554.87V1521.33ZM1124.08 1527.83C1125.28 1526.85 1126.79 1526.31 1128.34 1526.31H1131.78C1133.6 1526.31 1135.08 1527.79 1135.08 1529.62C1135.08 1531.44 1133.6 1532.92 1131.78 1532.92H1131.13C1128.44 1532.92 1126.26 1535.11 1126.26 1537.8C1126.26 1540.49 1128.44 1542.67 1131.13 1542.67H1131.55L1131.61 1542.67H1132.29C1134.32 1542.67 1135.96 1544.32 1135.96 1546.34C1135.96 1548.37 1134.32 1550.02 1132.29 1550.02H1128.68C1127.01 1550.02 1125.38 1549.44 1124.08 1548.38L1123.95 1548.27C1121.86 1546.57 1118.79 1546.89 1117.09 1548.98C1115.39 1551.06 1115.71 1554.13 1117.8 1555.83L1117.93 1555.94C1120.97 1558.42 1124.76 1559.77 1128.68 1559.77H1132.29C1139.71 1559.77 1145.71 1553.76 1145.71 1546.34C1145.71 1542.9 1144.41 1539.75 1142.28 1537.38C1143.88 1535.21 1144.83 1532.52 1144.83 1529.62C1144.83 1522.41 1138.99 1516.56 1131.78 1516.56H1128.34C1124.54 1516.56 1120.86 1517.87 1117.92 1520.27L1117.79 1520.38C1115.71 1522.08 1115.39 1525.15 1117.1 1527.23C1118.8 1529.32 1121.87 1529.63 1123.95 1527.93L1124.08 1527.83Z" fill="black"/>
</g>
</g>
</g>
<g id="Thin-L">
<g id="Solid / Payroll Card Solid_8">
<g id="Shape_8">
<path d="M789.711 1487.91C789.316 1490.78 791.851 1493.17 794.75 1493.17L919.739 1493.17C922.368 1493.17 924.652 1491.03 924.353 1488.42C923.158 1477.96 914.795 1469.68 904.3 1468.62C903.544 1468.54 902.777 1468.5 902 1468.5H812C800.622 1468.5 791.217 1476.95 789.711 1487.91Z" fill="black"/>
<path fill-rule="evenodd" clip-rule="evenodd" d="M789.5 1551C789.5 1563.43 799.574 1573.5 812 1573.5H902C914.426 1573.5 924.5 1563.43 924.5 1551V1508.17C924.5 1505.27 922.15 1502.92 919.25 1502.92L794.75 1502.92C791.851 1502.92 789.5 1505.27 789.5 1508.17V1551ZM859.437 1521.33C859.437 1518.64 861.62 1516.46 864.312 1516.46H889.127C891.819 1516.46 894.002 1518.64 894.002 1521.33V1554.87C894.002 1557.56 891.819 1559.74 889.127 1559.74C886.434 1559.74 884.252 1557.56 884.252 1554.87V1526.21H869.187V1554.87C869.187 1557.56 867.005 1559.74 864.312 1559.74C861.62 1559.74 859.437 1557.56 859.437 1554.87V1521.33ZM828.08 1527.83C829.283 1526.85 830.788 1526.31 832.34 1526.31H835.777C837.602 1526.31 839.082 1527.79 839.082 1529.62C839.081 1531.44 837.602 1532.92 835.777 1532.92H835.131C832.439 1532.92 830.256 1535.11 830.256 1537.8C830.256 1540.49 832.439 1542.67 835.131 1542.67H835.545L835.606 1542.67H836.293C838.321 1542.67 839.964 1544.32 839.964 1546.34C839.964 1548.37 838.321 1550.02 836.293 1550.02H832.682C831.007 1550.02 829.383 1549.44 828.084 1548.38L827.952 1548.27C825.864 1546.57 822.793 1546.89 821.093 1548.98C819.394 1551.06 819.709 1554.13 821.797 1555.83L821.929 1555.94C824.967 1558.42 828.765 1559.77 832.682 1559.77H836.293C843.706 1559.77 849.714 1553.76 849.714 1546.34C849.714 1542.9 848.414 1539.75 846.278 1537.38C847.883 1535.21 848.831 1532.52 848.832 1529.62C848.832 1522.41 842.987 1516.56 835.777 1516.56H832.34C828.543 1516.56 824.863 1517.87 821.92 1520.27L821.794 1520.38C819.707 1522.08 819.394 1525.15 821.095 1527.23C822.797 1529.32 825.867 1529.63 827.954 1527.93L828.08 1527.83Z" fill="black"/>
</g>
</g>
</g>
<g id="Ultralight-L">
<g id="Solid / Payroll Card Solid_9">
<g id="Shape_9">
<path d="M493.711 1487.91C493.316 1490.78 495.851 1493.17 498.75 1493.17L623.739 1493.17C626.368 1493.17 628.652 1491.03 628.353 1488.42C627.158 1477.96 618.795 1469.68 608.3 1468.62C607.544 1468.54 606.777 1468.5 606 1468.5H516C504.622 1468.5 495.217 1476.95 493.711 1487.91Z" fill="black"/>
<path fill-rule="evenodd" clip-rule="evenodd" d="M493.5 1551C493.5 1563.43 503.574 1573.5 516 1573.5H606C618.426 1573.5 628.5 1563.43 628.5 1551V1508.17C628.5 1505.27 626.15 1502.92 623.25 1502.92L498.75 1502.92C495.851 1502.92 493.5 1505.27 493.5 1508.17V1551ZM563.437 1521.33C563.437 1518.64 565.62 1516.46 568.312 1516.46H593.127C595.819 1516.46 598.002 1518.64 598.002 1521.33V1554.87C598.002 1557.56 595.819 1559.74 593.127 1559.74C590.434 1559.74 588.252 1557.56 588.252 1554.87V1526.21H573.187V1554.87C573.187 1557.56 571.005 1559.74 568.312 1559.74C565.62 1559.74 563.437 1557.56 563.437 1554.87V1521.33ZM532.08 1527.83C533.283 1526.85 534.788 1526.31 536.34 1526.31H539.777C541.602 1526.31 543.082 1527.79 543.082 1529.62C543.081 1531.44 541.602 1532.92 539.777 1532.92H539.131C536.439 1532.92 534.256 1535.11 534.256 1537.8C534.256 1540.49 536.439 1542.67 539.131 1542.67H539.545L539.606 1542.67H540.293C542.321 1542.67 543.964 1544.32 543.964 1546.34C543.964 1548.37 542.321 1550.02 540.293 1550.02H536.682C535.007 1550.02 533.383 1549.44 532.084 1548.38L531.952 1548.27C529.864 1546.57 526.793 1546.89 525.093 1548.98C523.394 1551.06 523.709 1554.13 525.797 1555.83L525.929 1555.94C528.967 1558.42 532.765 1559.77 536.682 1559.77H540.293C547.706 1559.77 553.714 1553.76 553.714 1546.34C553.714 1542.9 552.414 1539.75 550.278 1537.38C551.883 1535.21 552.831 1532.52 552.832 1529.62C552.832 1522.41 546.987 1516.56 539.777 1516.56H536.34C532.543 1516.56 528.863 1517.87 525.92 1520.27L525.794 1520.38C523.707 1522.08 523.394 1525.15 525.095 1527.23C526.797 1529.32 529.867 1529.63 531.954 1527.93L532.08 1527.83Z" fill="black"/>
</g>
</g>
</g>
<g id="Black-M">
<g id="Solid / Payroll Card Solid_10">
<g id="Shape_10">
<path d="M2876.66 1065.26C2876.36 1067.5 2878.33 1069.36 2880.58 1069.36L2977.8 1069.36C2979.84 1069.36 2981.62 1067.69 2981.39 1065.66C2980.46 1057.52 2973.95 1051.09 2965.79 1050.26C2965.2 1050.2 2964.6 1050.17 2964 1050.17H2894C2885.15 1050.17 2877.84 1056.74 2876.66 1065.26Z" fill="black"/>
<path fill-rule="evenodd" clip-rule="evenodd" d="M2876.5 1114.33C2876.5 1124 2884.34 1131.83 2894 1131.83H2964C2973.66 1131.83 2981.5 1124 2981.5 1114.33V1081.02C2981.5 1078.77 2979.67 1076.94 2977.42 1076.94L2880.58 1076.94C2878.33 1076.94 2876.5 1078.77 2876.5 1081.02V1114.33ZM2930.9 1091.26C2930.9 1089.17 2932.59 1087.47 2934.69 1087.47H2953.99C2956.08 1087.47 2957.78 1089.17 2957.78 1091.26V1117.34C2957.78 1119.44 2956.08 1121.13 2953.99 1121.13C2951.89 1121.13 2950.2 1119.44 2950.2 1117.34V1095.05H2938.48V1117.34C2938.48 1119.44 2936.78 1121.13 2934.69 1121.13C2932.59 1121.13 2930.9 1119.44 2930.9 1117.34V1091.26ZM2906.51 1096.31C2907.44 1095.55 2908.61 1095.13 2909.82 1095.13H2912.49C2913.91 1095.13 2915.06 1096.28 2915.06 1097.7C2915.06 1099.12 2913.91 1100.27 2912.49 1100.27H2911.99C2909.9 1100.27 2908.2 1101.97 2908.2 1104.07C2908.2 1106.16 2909.9 1107.86 2911.99 1107.86H2912.31L2912.36 1107.86H2912.89C2914.47 1107.86 2915.75 1109.14 2915.75 1110.71C2915.75 1112.29 2914.47 1113.57 2912.89 1113.57H2910.09C2908.78 1113.57 2907.52 1113.12 2906.51 1112.3L2906.41 1112.21C2904.78 1110.89 2902.39 1111.14 2901.07 1112.76C2899.75 1114.38 2900 1116.77 2901.62 1118.09L2901.72 1118.18C2904.09 1120.1 2907.04 1121.15 2910.09 1121.15H2912.89C2918.66 1121.15 2923.33 1116.48 2923.33 1110.71C2923.33 1108.03 2922.32 1105.59 2920.66 1103.74C2921.91 1102.05 2922.65 1099.96 2922.65 1097.7C2922.65 1092.1 2918.1 1087.55 2912.49 1087.55H2909.82C2906.87 1087.55 2904 1088.57 2901.72 1090.43L2901.62 1090.51C2899.99 1091.84 2899.75 1094.23 2901.07 1095.85C2902.4 1097.47 2904.79 1097.72 2906.41 1096.39L2906.51 1096.31Z" fill="black"/>
</g>
</g>
</g>
<g id="Heavy-M">
<g id="Solid / Payroll Card Solid_11">
<g id="Shape_11">
<path d="M2580.66 1065.26C2580.36 1067.5 2582.33 1069.36 2584.58 1069.36L2681.8 1069.36C2683.84 1069.36 2685.62 1067.69 2685.39 1065.66C2684.46 1057.52 2677.95 1051.09 2669.79 1050.26C2669.2 1050.2 2668.6 1050.17 2668 1050.17H2598C2589.15 1050.17 2581.84 1056.74 2580.66 1065.26Z" fill="black"/>
<path fill-rule="evenodd" clip-rule="evenodd" d="M2580.5 1114.33C2580.5 1124 2588.34 1131.83 2598 1131.83H2668C2677.66 1131.83 2685.5 1124 2685.5 1114.33V1081.02C2685.5 1078.77 2683.67 1076.94 2681.42 1076.94L2584.58 1076.94C2582.33 1076.94 2580.5 1078.77 2580.5 1081.02V1114.33ZM2634.9 1091.26C2634.9 1089.17 2636.59 1087.47 2638.69 1087.47H2657.99C2660.08 1087.47 2661.78 1089.17 2661.78 1091.26V1117.34C2661.78 1119.44 2660.08 1121.13 2657.99 1121.13C2655.89 1121.13 2654.2 1119.44 2654.2 1117.34V1095.05H2642.48V1117.34C2642.48 1119.44 2640.78 1121.13 2638.69 1121.13C2636.59 1121.13 2634.9 1119.44 2634.9 1117.34V1091.26ZM2610.51 1096.31C2611.44 1095.55 2612.61 1095.13 2613.82 1095.13H2616.49C2617.91 1095.13 2619.06 1096.28 2619.06 1097.7C2619.06 1099.12 2617.91 1100.27 2616.49 1100.27H2615.99C2613.9 1100.27 2612.2 1101.97 2612.2 1104.07C2612.2 1106.16 2613.9 1107.86 2615.99 1107.86H2616.31L2616.36 1107.86H2616.89C2618.47 1107.86 2619.75 1109.14 2619.75 1110.71C2619.75 1112.29 2618.47 1113.57 2616.89 1113.57H2614.09C2612.78 1113.57 2611.52 1113.12 2610.51 1112.3L2610.41 1112.21C2608.78 1110.89 2606.39 1111.14 2605.07 1112.76C2603.75 1114.38 2604 1116.77 2605.62 1118.09L2605.72 1118.18C2608.09 1120.1 2611.04 1121.15 2614.09 1121.15H2616.89C2622.66 1121.15 2627.33 1116.48 2627.33 1110.71C2627.33 1108.03 2626.32 1105.59 2624.66 1103.74C2625.91 1102.05 2626.65 1099.96 2626.65 1097.7C2626.65 1092.1 2622.1 1087.55 2616.49 1087.55H2613.82C2610.87 1087.55 2608 1088.57 2605.72 1090.43L2605.62 1090.51C2603.99 1091.84 2603.75 1094.23 2605.07 1095.85C2606.4 1097.47 2608.79 1097.72 2610.41 1096.39L2610.51 1096.31Z" fill="black"/>
</g>
</g>
</g>
<g id="Bold-M">
<g id="Solid / Payroll Card Solid_12">
<g id="Shape_12">
<path d="M2284.66 1065.26C2284.36 1067.5 2286.33 1069.36 2288.58 1069.36L2385.8 1069.36C2387.84 1069.36 2389.62 1067.69 2389.39 1065.66C2388.46 1057.52 2381.95 1051.09 2373.79 1050.26C2373.2 1050.2 2372.6 1050.17 2372 1050.17H2302C2293.15 1050.17 2285.84 1056.74 2284.66 1065.26Z" fill="black"/>
<path fill-rule="evenodd" clip-rule="evenodd" d="M2284.5 1114.33C2284.5 1124 2292.34 1131.83 2302 1131.83H2372C2381.66 1131.83 2389.5 1124 2389.5 1114.33V1081.02C2389.5 1078.77 2387.67 1076.94 2385.42 1076.94L2288.58 1076.94C2286.33 1076.94 2284.5 1078.77 2284.5 1081.02V1114.33ZM2338.9 1091.26C2338.9 1089.17 2340.59 1087.47 2342.69 1087.47H2361.99C2364.08 1087.47 2365.78 1089.17 2365.78 1091.26V1117.34C2365.78 1119.44 2364.08 1121.13 2361.99 1121.13C2359.89 1121.13 2358.2 1119.44 2358.2 1117.34V1095.05H2346.48V1117.34C2346.48 1119.44 2344.78 1121.13 2342.69 1121.13C2340.59 1121.13 2338.9 1119.44 2338.9 1117.34V1091.26ZM2314.51 1096.31C2315.44 1095.55 2316.61 1095.13 2317.82 1095.13H2320.49C2321.91 1095.13 2323.06 1096.28 2323.06 1097.7C2323.06 1099.12 2321.91 1100.27 2320.49 1100.27H2319.99C2317.9 1100.27 2316.2 1101.97 2316.2 1104.07C2316.2 1106.16 2317.9 1107.86 2319.99 1107.86H2320.31L2320.36 1107.86H2320.89C2322.47 1107.86 2323.75 1109.14 2323.75 1110.71C2323.75 1112.29 2322.47 1113.57 2320.89 1113.57H2318.09C2316.78 1113.57 2315.52 1113.12 2314.51 1112.3L2314.41 1112.21C2312.78 1110.89 2310.39 1111.14 2309.07 1112.76C2307.75 1114.38 2308 1116.77 2309.62 1118.09L2309.72 1118.18C2312.09 1120.1 2315.04 1121.15 2318.09 1121.15H2320.89C2326.66 1121.15 2331.33 1116.48 2331.33 1110.71C2331.33 1108.03 2330.32 1105.59 2328.66 1103.74C2329.91 1102.05 2330.65 1099.96 2330.65 1097.7C2330.65 1092.1 2326.1 1087.55 2320.49 1087.55H2317.82C2314.87 1087.55 2312 1088.57 2309.72 1090.43L2309.62 1090.51C2307.99 1091.84 2307.75 1094.23 2309.07 1095.85C2310.4 1097.47 2312.79 1097.72 2314.41 1096.39L2314.51 1096.31Z" fill="black"/>
</g>
</g>
</g>
<g id="Semibold-M">
<g id="Solid / Payroll Card Solid_13">
<g id="Shape_13">
<path d="M1988.66 1065.26C1988.36 1067.5 1990.33 1069.36 1992.58 1069.36L2089.8 1069.36C2091.84 1069.36 2093.62 1067.69 2093.39 1065.66C2092.46 1057.52 2085.95 1051.09 2077.79 1050.26C2077.2 1050.2 2076.6 1050.17 2076 1050.17H2006C1997.15 1050.17 1989.84 1056.74 1988.66 1065.26Z" fill="black"/>
<path fill-rule="evenodd" clip-rule="evenodd" d="M1988.5 1114.33C1988.5 1124 1996.34 1131.83 2006 1131.83H2076C2085.66 1131.83 2093.5 1124 2093.5 1114.33V1081.02C2093.5 1078.77 2091.67 1076.94 2089.42 1076.94L1992.58 1076.94C1990.33 1076.94 1988.5 1078.77 1988.5 1081.02V1114.33ZM2042.9 1091.26C2042.9 1089.17 2044.59 1087.47 2046.69 1087.47H2065.99C2068.08 1087.47 2069.78 1089.17 2069.78 1091.26V1117.34C2069.78 1119.44 2068.08 1121.13 2065.99 1121.13C2063.89 1121.13 2062.2 1119.44 2062.2 1117.34V1095.05H2050.48V1117.34C2050.48 1119.44 2048.78 1121.13 2046.69 1121.13C2044.59 1121.13 2042.9 1119.44 2042.9 1117.34V1091.26ZM2018.51 1096.31C2019.44 1095.55 2020.61 1095.13 2021.82 1095.13H2024.49C2025.91 1095.13 2027.06 1096.28 2027.06 1097.7C2027.06 1099.12 2025.91 1100.27 2024.49 1100.27H2023.99C2021.9 1100.27 2020.2 1101.97 2020.2 1104.07C2020.2 1106.16 2021.9 1107.86 2023.99 1107.86H2024.31L2024.36 1107.86H2024.89C2026.47 1107.86 2027.75 1109.14 2027.75 1110.71C2027.75 1112.29 2026.47 1113.57 2024.89 1113.57H2022.09C2020.78 1113.57 2019.52 1113.12 2018.51 1112.3L2018.41 1112.21C2016.78 1110.89 2014.39 1111.14 2013.07 1112.76C2011.75 1114.38 2012 1116.77 2013.62 1118.09L2013.72 1118.18C2016.09 1120.1 2019.04 1121.15 2022.09 1121.15H2024.89C2030.66 1121.15 2035.33 1116.48 2035.33 1110.71C2035.33 1108.03 2034.32 1105.59 2032.66 1103.74C2033.91 1102.05 2034.65 1099.96 2034.65 1097.7C2034.65 1092.1 2030.1 1087.55 2024.49 1087.55H2021.82C2018.87 1087.55 2016 1088.57 2013.72 1090.43L2013.62 1090.51C2011.99 1091.84 2011.75 1094.23 2013.07 1095.85C2014.4 1097.47 2016.79 1097.72 2018.41 1096.39L2018.51 1096.31Z" fill="black"/>
</g>
</g>
</g>
<g id="Medium-M">
<g id="Solid / Payroll Card Solid_14">
<g id="Shape_14">
<path d="M1692.66 1065.26C1692.36 1067.5 1694.33 1069.36 1696.58 1069.36L1793.8 1069.36C1795.84 1069.36 1797.62 1067.69 1797.39 1065.66C1796.46 1057.52 1789.95 1051.09 1781.79 1050.26C1781.2 1050.2 1780.6 1050.17 1780 1050.17H1710C1701.15 1050.17 1693.84 1056.74 1692.66 1065.26Z" fill="black"/>
<path fill-rule="evenodd" clip-rule="evenodd" d="M1692.5 1114.33C1692.5 1124 1700.34 1131.83 1710 1131.83H1780C1789.66 1131.83 1797.5 1124 1797.5 1114.33V1081.02C1797.5 1078.77 1795.67 1076.94 1793.42 1076.94L1696.58 1076.94C1694.33 1076.94 1692.5 1078.77 1692.5 1081.02V1114.33ZM1746.9 1091.26C1746.9 1089.17 1748.59 1087.47 1750.69 1087.47H1769.99C1772.08 1087.47 1773.78 1089.17 1773.78 1091.26V1117.34C1773.78 1119.44 1772.08 1121.13 1769.99 1121.13C1767.89 1121.13 1766.2 1119.44 1766.2 1117.34V1095.05H1754.48V1117.34C1754.48 1119.44 1752.78 1121.13 1750.69 1121.13C1748.59 1121.13 1746.9 1119.44 1746.9 1117.34V1091.26ZM1722.51 1096.31C1723.44 1095.55 1724.61 1095.13 1725.82 1095.13H1728.49C1729.91 1095.13 1731.06 1096.28 1731.06 1097.7C1731.06 1099.12 1729.91 1100.27 1728.49 1100.27H1727.99C1725.9 1100.27 1724.2 1101.97 1724.2 1104.07C1724.2 1106.16 1725.9 1107.86 1727.99 1107.86H1728.31L1728.36 1107.86H1728.89C1730.47 1107.86 1731.75 1109.14 1731.75 1110.71C1731.75 1112.29 1730.47 1113.57 1728.89 1113.57H1726.09C1724.78 1113.57 1723.52 1113.12 1722.51 1112.3L1722.41 1112.21C1720.78 1110.89 1718.39 1111.14 1717.07 1112.76C1715.75 1114.38 1716 1116.77 1717.62 1118.09L1717.72 1118.18C1720.09 1120.1 1723.04 1121.15 1726.09 1121.15H1728.89C1734.66 1121.15 1739.33 1116.48 1739.33 1110.71C1739.33 1108.03 1738.32 1105.59 1736.66 1103.74C1737.91 1102.05 1738.65 1099.96 1738.65 1097.7C1738.65 1092.1 1734.1 1087.55 1728.49 1087.55H1725.82C1722.87 1087.55 1720 1088.57 1717.72 1090.43L1717.62 1090.51C1715.99 1091.84 1715.75 1094.23 1717.07 1095.85C1718.4 1097.47 1720.79 1097.72 1722.41 1096.39L1722.51 1096.31Z" fill="black"/>
</g>
</g>
</g>
<g id="Regular-M">
<g id="Solid / Payroll Card Solid_15">
<g id="Shape_15">
<path d="M1396.66 1065.26C1396.36 1067.5 1398.33 1069.36 1400.58 1069.36L1497.8 1069.36C1499.84 1069.36 1501.62 1067.69 1501.39 1065.66C1500.46 1057.52 1493.95 1051.09 1485.79 1050.26C1485.2 1050.2 1484.6 1050.17 1484 1050.17H1414C1405.15 1050.17 1397.84 1056.74 1396.66 1065.26Z" fill="black"/>
<path fill-rule="evenodd" clip-rule="evenodd" d="M1396.5 1114.33C1396.5 1124 1404.34 1131.83 1414 1131.83H1484C1493.66 1131.83 1501.5 1124 1501.5 1114.33V1081.02C1501.5 1078.77 1499.67 1076.94 1497.42 1076.94L1400.58 1076.94C1398.33 1076.94 1396.5 1078.77 1396.5 1081.02V1114.33ZM1450.9 1091.26C1450.9 1089.17 1452.59 1087.47 1454.69 1087.47H1473.99C1476.08 1087.47 1477.78 1089.17 1477.78 1091.26V1117.34C1477.78 1119.44 1476.08 1121.13 1473.99 1121.13C1471.89 1121.13 1470.2 1119.44 1470.2 1117.34V1095.05H1458.48V1117.34C1458.48 1119.44 1456.78 1121.13 1454.69 1121.13C1452.59 1121.13 1450.9 1119.44 1450.9 1117.34V1091.26ZM1426.51 1096.31C1427.44 1095.55 1428.61 1095.13 1429.82 1095.13H1432.49C1433.91 1095.13 1435.06 1096.28 1435.06 1097.7C1435.06 1099.12 1433.91 1100.27 1432.49 1100.27H1431.99C1429.9 1100.27 1428.2 1101.97 1428.2 1104.07C1428.2 1106.16 1429.9 1107.86 1431.99 1107.86H1432.31L1432.36 1107.86H1432.89C1434.47 1107.86 1435.75 1109.14 1435.75 1110.71C1435.75 1112.29 1434.47 1113.57 1432.89 1113.57H1430.09C1428.78 1113.57 1427.52 1113.12 1426.51 1112.3L1426.41 1112.21C1424.78 1110.89 1422.39 1111.14 1421.07 1112.76C1419.75 1114.38 1420 1116.77 1421.62 1118.09L1421.72 1118.18C1424.09 1120.1 1427.04 1121.15 1430.09 1121.15H1432.89C1438.66 1121.15 1443.33 1116.48 1443.33 1110.71C1443.33 1108.03 1442.32 1105.59 1440.66 1103.74C1441.91 1102.05 1442.65 1099.96 1442.65 1097.7C1442.65 1092.1 1438.1 1087.55 1432.49 1087.55H1429.82C1426.87 1087.55 1424 1088.57 1421.72 1090.43L1421.62 1090.51C1419.99 1091.84 1419.75 1094.23 1421.07 1095.85C1422.4 1097.47 1424.79 1097.72 1426.41 1096.39L1426.51 1096.31Z" fill="black"/>
</g>
</g>
</g>
<g id="Light-M">
<g id="Solid / Payroll Card Solid_16">
<g id="Shape_16">
<path d="M1100.66 1065.26C1100.36 1067.5 1102.33 1069.36 1104.58 1069.36L1201.8 1069.36C1203.84 1069.36 1205.62 1067.69 1205.39 1065.66C1204.46 1057.52 1197.95 1051.09 1189.79 1050.26C1189.2 1050.2 1188.6 1050.17 1188 1050.17H1118C1109.15 1050.17 1101.84 1056.74 1100.66 1065.26Z" fill="black"/>
<path fill-rule="evenodd" clip-rule="evenodd" d="M1100.5 1114.33C1100.5 1124 1108.34 1131.83 1118 1131.83H1188C1197.66 1131.83 1205.5 1124 1205.5 1114.33V1081.02C1205.5 1078.77 1203.67 1076.94 1201.42 1076.94L1104.58 1076.94C1102.33 1076.94 1100.5 1078.77 1100.5 1081.02V1114.33ZM1154.9 1091.26C1154.9 1089.17 1156.59 1087.47 1158.69 1087.47H1177.99C1180.08 1087.47 1181.78 1089.17 1181.78 1091.26V1117.34C1181.78 1119.44 1180.08 1121.13 1177.99 1121.13C1175.89 1121.13 1174.2 1119.44 1174.2 1117.34V1095.05H1162.48V1117.34C1162.48 1119.44 1160.78 1121.13 1158.69 1121.13C1156.59 1121.13 1154.9 1119.44 1154.9 1117.34V1091.26ZM1130.51 1096.31C1131.44 1095.55 1132.61 1095.13 1133.82 1095.13H1136.49C1137.91 1095.13 1139.06 1096.28 1139.06 1097.7C1139.06 1099.12 1137.91 1100.27 1136.49 1100.27H1135.99C1133.9 1100.27 1132.2 1101.97 1132.2 1104.07C1132.2 1106.16 1133.9 1107.86 1135.99 1107.86H1136.31L1136.36 1107.86H1136.89C1138.47 1107.86 1139.75 1109.14 1139.75 1110.71C1139.75 1112.29 1138.47 1113.57 1136.89 1113.57H1134.09C1132.78 1113.57 1131.52 1113.12 1130.51 1112.3L1130.41 1112.21C1128.78 1110.89 1126.39 1111.14 1125.07 1112.76C1123.75 1114.38 1124 1116.77 1125.62 1118.09L1125.72 1118.18C1128.09 1120.1 1131.04 1121.15 1134.09 1121.15H1136.89C1142.66 1121.15 1147.33 1116.48 1147.33 1110.71C1147.33 1108.03 1146.32 1105.59 1144.66 1103.74C1145.91 1102.05 1146.65 1099.96 1146.65 1097.7C1146.65 1092.1 1142.1 1087.55 1136.49 1087.55H1133.82C1130.87 1087.55 1128 1088.57 1125.72 1090.43L1125.62 1090.51C1123.99 1091.84 1123.75 1094.23 1125.07 1095.85C1126.4 1097.47 1128.79 1097.72 1130.41 1096.39L1130.51 1096.31Z" fill="black"/>
</g>
</g>
</g>
<g id="Thin-M">
<g id="Solid / Payroll Card Solid_17">
<g id="Shape_17">
<path d="M804.664 1065.26C804.357 1067.5 806.328 1069.36 808.583 1069.36L905.797 1069.36C907.842 1069.36 909.618 1067.69 909.386 1065.66C908.456 1057.52 901.952 1051.09 893.789 1050.26C893.201 1050.2 892.604 1050.17 892 1050.17H822C813.15 1050.17 805.835 1056.74 804.664 1065.26Z" fill="black"/>
<path fill-rule="evenodd" clip-rule="evenodd" d="M804.5 1114.33C804.5 1124 812.335 1131.83 822 1131.83H892C901.665 1131.83 909.5 1124 909.5 1114.33V1081.02C909.5 1078.77 907.672 1076.94 905.417 1076.94L808.583 1076.94C806.328 1076.94 804.5 1078.77 804.5 1081.02V1114.33ZM858.896 1091.26C858.896 1089.17 860.593 1087.47 862.687 1087.47H881.988C884.082 1087.47 885.779 1089.17 885.779 1091.26V1117.34C885.779 1119.44 884.082 1121.13 881.988 1121.13C879.893 1121.13 878.196 1119.44 878.196 1117.34V1095.05H866.479V1117.34C866.479 1119.44 864.782 1121.13 862.687 1121.13C860.593 1121.13 858.896 1119.44 858.896 1117.34V1091.26ZM834.507 1096.31C835.443 1095.55 836.613 1095.13 837.82 1095.13H840.493C841.913 1095.13 843.063 1096.28 843.063 1097.7C843.063 1099.12 841.913 1100.27 840.493 1100.27H839.991C837.897 1100.27 836.199 1101.97 836.199 1104.07C836.199 1106.16 837.897 1107.86 839.991 1107.86H840.313L840.36 1107.86H840.895C842.472 1107.86 843.75 1109.14 843.75 1110.71C843.75 1112.29 842.472 1113.57 840.895 1113.57H838.086C836.783 1113.57 835.52 1113.12 834.51 1112.3L834.407 1112.21C832.783 1110.89 830.395 1111.14 829.073 1112.76C827.751 1114.38 827.996 1116.77 829.62 1118.09L829.723 1118.18C832.086 1120.1 835.039 1121.15 838.086 1121.15H840.895C846.66 1121.15 851.333 1116.48 851.333 1110.71C851.333 1108.03 850.322 1105.59 848.661 1103.74C849.909 1102.05 850.647 1099.96 850.647 1097.7C850.647 1092.1 846.101 1087.55 840.493 1087.55H837.82C834.867 1087.55 832.005 1088.57 829.716 1090.43L829.618 1090.51C827.994 1091.84 827.751 1094.23 829.074 1095.85C830.397 1097.47 832.786 1097.72 834.409 1096.39L834.507 1096.31Z" fill="black"/>
</g>
</g>
</g>
<g id="Ultralight-M">
<g id="Solid / Payroll Card Solid_18">
<g id="Shape_18">
<path d="M508.664 1065.26C508.357 1067.5 510.328 1069.36 512.583 1069.36L609.797 1069.36C611.842 1069.36 613.618 1067.69 613.386 1065.66C612.456 1057.52 605.952 1051.09 597.789 1050.26C597.201 1050.2 596.604 1050.17 596 1050.17H526C517.15 1050.17 509.835 1056.74 508.664 1065.26Z" fill="black"/>
<path fill-rule="evenodd" clip-rule="evenodd" d="M508.5 1114.33C508.5 1124 516.335 1131.83 526 1131.83H596C605.665 1131.83 613.5 1124 613.5 1114.33V1081.02C613.5 1078.77 611.672 1076.94 609.417 1076.94L512.583 1076.94C510.328 1076.94 508.5 1078.77 508.5 1081.02V1114.33ZM562.896 1091.26C562.896 1089.17 564.593 1087.47 566.687 1087.47H585.988C588.082 1087.47 589.779 1089.17 589.779 1091.26V1117.34C589.779 1119.44 588.082 1121.13 585.988 1121.13C583.893 1121.13 582.196 1119.44 582.196 1117.34V1095.05H570.479V1117.34C570.479 1119.44 568.782 1121.13 566.687 1121.13C564.593 1121.13 562.896 1119.44 562.896 1117.34V1091.26ZM538.507 1096.31C539.443 1095.55 540.613 1095.13 541.82 1095.13H544.493C545.913 1095.13 547.063 1096.28 547.063 1097.7C547.063 1099.12 545.913 1100.27 544.493 1100.27H543.991C541.897 1100.27 540.199 1101.97 540.199 1104.07C540.199 1106.16 541.897 1107.86 543.991 1107.86H544.313L544.36 1107.86H544.895C546.472 1107.86 547.75 1109.14 547.75 1110.71C547.75 1112.29 546.472 1113.57 544.895 1113.57H542.086C540.783 1113.57 539.52 1113.12 538.51 1112.3L538.407 1112.21C536.783 1110.89 534.395 1111.14 533.073 1112.76C531.751 1114.38 531.996 1116.77 533.62 1118.09L533.723 1118.18C536.086 1120.1 539.039 1121.15 542.086 1121.15H544.895C550.66 1121.15 555.333 1116.48 555.333 1110.71C555.333 1108.03 554.322 1105.59 552.661 1103.74C553.909 1102.05 554.647 1099.96 554.647 1097.7C554.647 1092.1 550.101 1087.55 544.493 1087.55H541.82C538.867 1087.55 536.005 1088.57 533.716 1090.43L533.618 1090.51C531.994 1091.84 531.751 1094.23 533.074 1095.85C534.397 1097.47 536.786 1097.72 538.409 1096.39L538.507 1096.31Z" fill="black"/>
</g>
</g>
</g>
<g id="Black-S">
<g id="Solid / Payroll Card Solid_19">
<g id="Shape_19">
<path d="M2891.62 642.616C2891.4 644.212 2892.81 645.54 2894.42 645.54L2963.85 645.54C2965.32 645.54 2966.58 644.349 2966.42 642.897C2965.75 637.089 2961.11 632.49 2955.28 631.898C2954.86 631.855 2954.43 631.833 2954 631.833H2904C2897.68 631.833 2892.45 636.525 2891.62 642.616Z" fill="black"/>
<path fill-rule="evenodd" clip-rule="evenodd" d="M2891.5 677.666C2891.5 684.57 2897.1 690.166 2904 690.166H2954C2960.9 690.166 2966.5 684.57 2966.5 677.666V653.873C2966.5 652.262 2965.19 650.956 2963.58 650.956L2894.42 650.956C2892.81 650.956 2891.5 652.262 2891.5 653.873V677.666ZM2930.35 661.185C2930.35 659.69 2931.57 658.477 2933.06 658.477H2946.85C2948.34 658.477 2949.56 659.69 2949.56 661.185V679.815C2949.56 681.311 2948.34 682.524 2946.85 682.524C2945.35 682.524 2944.14 681.311 2944.14 679.815V663.894H2935.77V679.815C2935.77 681.311 2934.56 682.524 2933.06 682.524C2931.57 682.524 2930.35 681.311 2930.35 679.815V661.185ZM2912.93 664.794C2913.6 664.249 2914.44 663.952 2915.3 663.952H2917.21C2918.22 663.952 2919.05 664.774 2919.05 665.788C2919.05 666.802 2918.22 667.624 2917.21 667.624H2916.85C2915.35 667.624 2914.14 668.836 2914.14 670.332C2914.14 671.828 2915.35 673.04 2916.85 673.04H2917.08L2917.11 673.04H2917.5C2918.62 673.04 2919.54 673.954 2919.54 675.08C2919.54 676.206 2918.62 677.119 2917.5 677.119H2915.49C2914.56 677.119 2913.66 676.799 2912.94 676.211L2912.86 676.151C2911.7 675.207 2910 675.382 2909.05 676.542C2908.11 677.702 2908.28 679.408 2909.44 680.352L2909.52 680.412C2911.2 681.786 2913.31 682.536 2915.49 682.536H2917.5C2921.61 682.536 2924.95 679.198 2924.95 675.08C2924.95 673.164 2924.23 671.418 2923.04 670.097C2923.93 668.892 2924.46 667.402 2924.46 665.788C2924.46 661.782 2921.21 658.535 2917.21 658.535H2915.3C2913.19 658.535 2911.15 659.263 2909.51 660.595L2909.44 660.653C2908.28 661.598 2908.11 663.304 2909.05 664.463C2910 665.622 2911.7 665.796 2912.86 664.851L2912.93 664.794Z" fill="black"/>
</g>
</g>
</g>
<g id="Heavy-S">
<g id="Solid / Payroll Card Solid_20">
<g id="Shape_20">
<path d="M2595.62 642.616C2595.4 644.212 2596.81 645.54 2598.42 645.54L2667.85 645.54C2669.32 645.54 2670.58 644.349 2670.42 642.897C2669.75 637.089 2665.11 632.49 2659.28 631.898C2658.86 631.855 2658.43 631.833 2658 631.833H2608C2601.68 631.833 2596.45 636.525 2595.62 642.616Z" fill="black"/>
<path fill-rule="evenodd" clip-rule="evenodd" d="M2595.5 677.666C2595.5 684.57 2601.1 690.166 2608 690.166H2658C2664.9 690.166 2670.5 684.57 2670.5 677.666V653.873C2670.5 652.262 2669.19 650.956 2667.58 650.956L2598.42 650.956C2596.81 650.956 2595.5 652.262 2595.5 653.873V677.666ZM2634.35 661.185C2634.35 659.69 2635.57 658.477 2637.06 658.477H2650.85C2652.34 658.477 2653.56 659.69 2653.56 661.185V679.815C2653.56 681.311 2652.34 682.524 2650.85 682.524C2649.35 682.524 2648.14 681.311 2648.14 679.815V663.894H2639.77V679.815C2639.77 681.311 2638.56 682.524 2637.06 682.524C2635.57 682.524 2634.35 681.311 2634.35 679.815V661.185ZM2616.93 664.794C2617.6 664.249 2618.44 663.952 2619.3 663.952H2621.21C2622.22 663.952 2623.05 664.774 2623.05 665.788C2623.05 666.802 2622.22 667.624 2621.21 667.624H2620.85C2619.35 667.624 2618.14 668.836 2618.14 670.332C2618.14 671.828 2619.35 673.04 2620.85 673.04H2621.08L2621.11 673.04H2621.5C2622.62 673.04 2623.54 673.954 2623.54 675.08C2623.54 676.206 2622.62 677.119 2621.5 677.119H2619.49C2618.56 677.119 2617.66 676.799 2616.94 676.211L2616.86 676.151C2615.7 675.207 2614 675.382 2613.05 676.542C2612.11 677.702 2612.28 679.408 2613.44 680.352L2613.52 680.412C2615.2 681.786 2617.31 682.536 2619.49 682.536H2621.5C2625.61 682.536 2628.95 679.198 2628.95 675.08C2628.95 673.164 2628.23 671.418 2627.04 670.097C2627.93 668.892 2628.46 667.402 2628.46 665.788C2628.46 661.782 2625.21 658.535 2621.21 658.535H2619.3C2617.19 658.535 2615.15 659.263 2613.51 660.595L2613.44 660.653C2612.28 661.598 2612.11 663.304 2613.05 664.463C2614 665.622 2615.7 665.796 2616.86 664.851L2616.93 664.794Z" fill="black"/>
</g>
</g>
</g>
<g id="Bold-S">
<g id="Solid / Payroll Card Solid_21">
<g id="Shape_21">
<path d="M2299.62 642.616C2299.4 644.212 2300.81 645.54 2302.42 645.54L2371.85 645.54C2373.32 645.54 2374.58 644.349 2374.42 642.897C2373.75 637.089 2369.11 632.49 2363.28 631.898C2362.86 631.855 2362.43 631.833 2362 631.833H2312C2305.68 631.833 2300.45 636.525 2299.62 642.616Z" fill="black"/>
<path fill-rule="evenodd" clip-rule="evenodd" d="M2299.5 677.666C2299.5 684.57 2305.1 690.166 2312 690.166H2362C2368.9 690.166 2374.5 684.57 2374.5 677.666V653.873C2374.5 652.262 2373.19 650.956 2371.58 650.956L2302.42 650.956C2300.81 650.956 2299.5 652.262 2299.5 653.873V677.666ZM2338.35 661.185C2338.35 659.69 2339.57 658.477 2341.06 658.477H2354.85C2356.34 658.477 2357.56 659.69 2357.56 661.185V679.815C2357.56 681.311 2356.34 682.524 2354.85 682.524C2353.35 682.524 2352.14 681.311 2352.14 679.815V663.894H2343.77V679.815C2343.77 681.311 2342.56 682.524 2341.06 682.524C2339.57 682.524 2338.35 681.311 2338.35 679.815V661.185ZM2320.93 664.794C2321.6 664.249 2322.44 663.952 2323.3 663.952H2325.21C2326.22 663.952 2327.05 664.774 2327.05 665.788C2327.05 666.802 2326.22 667.624 2325.21 667.624H2324.85C2323.35 667.624 2322.14 668.836 2322.14 670.332C2322.14 671.828 2323.35 673.04 2324.85 673.04H2325.08L2325.11 673.04H2325.5C2326.62 673.04 2327.54 673.954 2327.54 675.08C2327.54 676.206 2326.62 677.119 2325.5 677.119H2323.49C2322.56 677.119 2321.66 676.799 2320.94 676.211L2320.86 676.151C2319.7 675.207 2318 675.382 2317.05 676.542C2316.11 677.702 2316.28 679.408 2317.44 680.352L2317.52 680.412C2319.2 681.786 2321.31 682.536 2323.49 682.536H2325.5C2329.61 682.536 2332.95 679.198 2332.95 675.08C2332.95 673.164 2332.23 671.418 2331.04 670.097C2331.93 668.892 2332.46 667.402 2332.46 665.788C2332.46 661.782 2329.21 658.535 2325.21 658.535H2323.3C2321.19 658.535 2319.15 659.263 2317.51 660.595L2317.44 660.653C2316.28 661.598 2316.11 663.304 2317.05 664.463C2318 665.622 2319.7 665.796 2320.86 664.851L2320.93 664.794Z" fill="black"/>
</g>
</g>
</g>
<g id="Semibold-S">
<g id="Solid / Payroll Card Solid_22">
<g id="Shape_22">
<path d="M2003.62 642.616C2003.4 644.212 2004.81 645.54 2006.42 645.54L2075.85 645.54C2077.32 645.54 2078.58 644.349 2078.42 642.897C2077.75 637.089 2073.11 632.49 2067.28 631.898C2066.86 631.855 2066.43 631.833 2066 631.833H2016C2009.68 631.833 2004.45 636.525 2003.62 642.616Z" fill="black"/>
<path fill-rule="evenodd" clip-rule="evenodd" d="M2003.5 677.666C2003.5 684.57 2009.1 690.166 2016 690.166H2066C2072.9 690.166 2078.5 684.57 2078.5 677.666V653.873C2078.5 652.262 2077.19 650.956 2075.58 650.956L2006.42 650.956C2004.81 650.956 2003.5 652.262 2003.5 653.873V677.666ZM2042.35 661.185C2042.35 659.69 2043.57 658.477 2045.06 658.477H2058.85C2060.34 658.477 2061.56 659.69 2061.56 661.185V679.815C2061.56 681.311 2060.34 682.524 2058.85 682.524C2057.35 682.524 2056.14 681.311 2056.14 679.815V663.894H2047.77V679.815C2047.77 681.311 2046.56 682.524 2045.06 682.524C2043.57 682.524 2042.35 681.311 2042.35 679.815V661.185ZM2024.93 664.794C2025.6 664.249 2026.44 663.952 2027.3 663.952H2029.21C2030.22 663.952 2031.05 664.774 2031.05 665.788C2031.05 666.802 2030.22 667.624 2029.21 667.624H2028.85C2027.35 667.624 2026.14 668.836 2026.14 670.332C2026.14 671.828 2027.35 673.04 2028.85 673.04H2029.08L2029.11 673.04H2029.5C2030.62 673.04 2031.54 673.954 2031.54 675.08C2031.54 676.206 2030.62 677.119 2029.5 677.119H2027.49C2026.56 677.119 2025.66 676.799 2024.94 676.211L2024.86 676.151C2023.7 675.207 2022 675.382 2021.05 676.542C2020.11 677.702 2020.28 679.408 2021.44 680.352L2021.52 680.412C2023.2 681.786 2025.31 682.536 2027.49 682.536H2029.5C2033.61 682.536 2036.95 679.198 2036.95 675.08C2036.95 673.164 2036.23 671.418 2035.04 670.097C2035.93 668.892 2036.46 667.402 2036.46 665.788C2036.46 661.782 2033.21 658.535 2029.21 658.535H2027.3C2025.19 658.535 2023.15 659.263 2021.51 660.595L2021.44 660.653C2020.28 661.598 2020.11 663.304 2021.05 664.463C2022 665.622 2023.7 665.796 2024.86 664.851L2024.93 664.794Z" fill="black"/>
</g>
</g>
</g>
<g id="Medium-S">
<g id="Solid / Payroll Card Solid_23">
<g id="Shape_23">
<path d="M1707.62 642.616C1707.4 644.212 1708.81 645.54 1710.42 645.54L1779.85 645.54C1781.32 645.54 1782.58 644.349 1782.42 642.897C1781.75 637.089 1777.11 632.49 1771.28 631.898C1770.86 631.855 1770.43 631.833 1770 631.833H1720C1713.68 631.833 1708.45 636.525 1707.62 642.616Z" fill="black"/>
<path fill-rule="evenodd" clip-rule="evenodd" d="M1707.5 677.666C1707.5 684.57 1713.1 690.166 1720 690.166H1770C1776.9 690.166 1782.5 684.57 1782.5 677.666V653.873C1782.5 652.262 1781.19 650.956 1779.58 650.956L1710.42 650.956C1708.81 650.956 1707.5 652.262 1707.5 653.873V677.666ZM1746.35 661.185C1746.35 659.69 1747.57 658.477 1749.06 658.477H1762.85C1764.34 658.477 1765.56 659.69 1765.56 661.185V679.815C1765.56 681.311 1764.34 682.524 1762.85 682.524C1761.35 682.524 1760.14 681.311 1760.14 679.815V663.894H1751.77V679.815C1751.77 681.311 1750.56 682.524 1749.06 682.524C1747.57 682.524 1746.35 681.311 1746.35 679.815V661.185ZM1728.93 664.794C1729.6 664.249 1730.44 663.952 1731.3 663.952H1733.21C1734.22 663.952 1735.05 664.774 1735.05 665.788C1735.05 666.802 1734.22 667.624 1733.21 667.624H1732.85C1731.35 667.624 1730.14 668.836 1730.14 670.332C1730.14 671.828 1731.35 673.04 1732.85 673.04H1733.08L1733.11 673.04H1733.5C1734.62 673.04 1735.54 673.954 1735.54 675.08C1735.54 676.206 1734.62 677.119 1733.5 677.119H1731.49C1730.56 677.119 1729.66 676.799 1728.94 676.211L1728.86 676.151C1727.7 675.207 1726 675.382 1725.05 676.542C1724.11 677.702 1724.28 679.408 1725.44 680.352L1725.52 680.412C1727.2 681.786 1729.31 682.536 1731.49 682.536H1733.5C1737.61 682.536 1740.95 679.198 1740.95 675.08C1740.95 673.164 1740.23 671.418 1739.04 670.097C1739.93 668.892 1740.46 667.402 1740.46 665.788C1740.46 661.782 1737.21 658.535 1733.21 658.535H1731.3C1729.19 658.535 1727.15 659.263 1725.51 660.595L1725.44 660.653C1724.28 661.598 1724.11 663.304 1725.05 664.463C1726 665.622 1727.7 665.796 1728.86 664.851L1728.93 664.794Z" fill="black"/>
</g>
</g>
</g>
<g id="Regular-S">
<g id="Solid / Payroll Card Solid_24">
<g id="Shape_24">
<path d="M1411.62 642.616C1411.4 644.212 1412.81 645.54 1414.42 645.54L1483.85 645.54C1485.32 645.54 1486.58 644.349 1486.42 642.897C1485.75 637.089 1481.11 632.49 1475.28 631.898C1474.86 631.855 1474.43 631.833 1474 631.833H1424C1417.68 631.833 1412.45 636.525 1411.62 642.616Z" fill="black"/>
<path fill-rule="evenodd" clip-rule="evenodd" d="M1411.5 677.666C1411.5 684.57 1417.1 690.166 1424 690.166H1474C1480.9 690.166 1486.5 684.57 1486.5 677.666V653.873C1486.5 652.262 1485.19 650.956 1483.58 650.956L1414.42 650.956C1412.81 650.956 1411.5 652.262 1411.5 653.873V677.666ZM1450.35 661.185C1450.35 659.69 1451.57 658.477 1453.06 658.477H1466.85C1468.34 658.477 1469.56 659.69 1469.56 661.185V679.815C1469.56 681.311 1468.34 682.524 1466.85 682.524C1465.35 682.524 1464.14 681.311 1464.14 679.815V663.894H1455.77V679.815C1455.77 681.311 1454.56 682.524 1453.06 682.524C1451.57 682.524 1450.35 681.311 1450.35 679.815V661.185ZM1432.93 664.794C1433.6 664.249 1434.44 663.952 1435.3 663.952H1437.21C1438.22 663.952 1439.05 664.774 1439.05 665.788C1439.05 666.802 1438.22 667.624 1437.21 667.624H1436.85C1435.35 667.624 1434.14 668.836 1434.14 670.332C1434.14 671.828 1435.35 673.04 1436.85 673.04H1437.08L1437.11 673.04H1437.5C1438.62 673.04 1439.54 673.954 1439.54 675.08C1439.54 676.206 1438.62 677.119 1437.5 677.119H1435.49C1434.56 677.119 1433.66 676.799 1432.94 676.211L1432.86 676.151C1431.7 675.207 1430 675.382 1429.05 676.542C1428.11 677.702 1428.28 679.408 1429.44 680.352L1429.52 680.412C1431.2 681.786 1433.31 682.536 1435.49 682.536H1437.5C1441.61 682.536 1444.95 679.198 1444.95 675.08C1444.95 673.164 1444.23 671.418 1443.04 670.097C1443.93 668.892 1444.46 667.402 1444.46 665.788C1444.46 661.782 1441.21 658.535 1437.21 658.535H1435.3C1433.19 658.535 1431.15 659.263 1429.51 660.595L1429.44 660.653C1428.28 661.598 1428.11 663.304 1429.05 664.463C1430 665.622 1431.7 665.796 1432.86 664.851L1432.93 664.794Z" fill="black"/>
</g>
</g>
</g>
<g id="Light-S">
<g id="Solid / Payroll Card Solid_25">
<g id="Shape_25">
<path d="M1115.62 642.616C1115.4 644.212 1116.81 645.54 1118.42 645.54L1187.85 645.54C1189.32 645.54 1190.58 644.349 1190.42 642.897C1189.75 637.089 1185.11 632.49 1179.28 631.898C1178.86 631.855 1178.43 631.833 1178 631.833H1128C1121.68 631.833 1116.45 636.525 1115.62 642.616Z" fill="black"/>
<path fill-rule="evenodd" clip-rule="evenodd" d="M1115.5 677.666C1115.5 684.57 1121.1 690.166 1128 690.166H1178C1184.9 690.166 1190.5 684.57 1190.5 677.666V653.873C1190.5 652.262 1189.19 650.956 1187.58 650.956L1118.42 650.956C1116.81 650.956 1115.5 652.262 1115.5 653.873V677.666ZM1154.35 661.185C1154.35 659.69 1155.57 658.477 1157.06 658.477H1170.85C1172.34 658.477 1173.56 659.69 1173.56 661.185V679.815C1173.56 681.311 1172.34 682.524 1170.85 682.524C1169.35 682.524 1168.14 681.311 1168.14 679.815V663.894H1159.77V679.815C1159.77 681.311 1158.56 682.524 1157.06 682.524C1155.57 682.524 1154.35 681.311 1154.35 679.815V661.185ZM1136.93 664.794C1137.6 664.249 1138.44 663.952 1139.3 663.952H1141.21C1142.22 663.952 1143.05 664.774 1143.05 665.788C1143.05 666.802 1142.22 667.624 1141.21 667.624H1140.85C1139.35 667.624 1138.14 668.836 1138.14 670.332C1138.14 671.828 1139.35 673.04 1140.85 673.04H1141.08L1141.11 673.04H1141.5C1142.62 673.04 1143.54 673.954 1143.54 675.08C1143.54 676.206 1142.62 677.119 1141.5 677.119H1139.49C1138.56 677.119 1137.66 676.799 1136.94 676.211L1136.86 676.151C1135.7 675.207 1134 675.382 1133.05 676.542C1132.11 677.702 1132.28 679.408 1133.44 680.352L1133.52 680.412C1135.2 681.786 1137.31 682.536 1139.49 682.536H1141.5C1145.61 682.536 1148.95 679.198 1148.95 675.08C1148.95 673.164 1148.23 671.418 1147.04 670.097C1147.93 668.892 1148.46 667.402 1148.46 665.788C1148.46 661.782 1145.21 658.535 1141.21 658.535H1139.3C1137.19 658.535 1135.15 659.263 1133.51 660.595L1133.44 660.653C1132.28 661.598 1132.11 663.304 1133.05 664.463C1134 665.622 1135.7 665.796 1136.86 664.851L1136.93 664.794Z" fill="black"/>
</g>
</g>
</g>
<g id="Thin-S">
<g id="Solid / Payroll Card Solid_26">
<g id="Shape_26">
<path d="M819.617 642.616C819.398 644.212 820.806 645.54 822.417 645.54L891.855 645.54C893.316 645.54 894.584 644.349 894.418 642.897C893.754 637.089 889.108 632.49 883.278 631.898C882.858 631.855 882.431 631.833 882 631.833H832C825.679 631.833 820.454 636.525 819.617 642.616Z" fill="black"/>
<path fill-rule="evenodd" clip-rule="evenodd" d="M819.5 677.666C819.5 684.57 825.096 690.166 832 690.166H882C888.904 690.166 894.5 684.57 894.5 677.666V653.873C894.5 652.262 893.194 650.956 891.583 650.956L822.417 650.956C820.806 650.956 819.5 652.262 819.5 653.873V677.666ZM858.354 661.185C858.354 659.69 859.567 658.477 861.062 658.477H874.848C876.344 658.477 877.557 659.69 877.557 661.185V679.815C877.557 681.311 876.344 682.524 874.848 682.524C873.352 682.524 872.14 681.311 872.14 679.815V663.894H863.771V679.815C863.771 681.311 862.558 682.524 861.062 682.524C859.567 682.524 858.354 681.311 858.354 679.815V661.185ZM840.934 664.794C841.602 664.249 842.438 663.952 843.3 663.952H845.209C846.223 663.952 847.045 664.774 847.045 665.788C847.045 666.802 846.223 667.624 845.209 667.624H844.851C843.355 667.624 842.142 668.836 842.142 670.332C842.142 671.828 843.355 673.04 844.851 673.04H845.081L845.114 673.04H845.496C846.623 673.04 847.536 673.954 847.536 675.08C847.536 676.206 846.623 677.119 845.496 677.119H843.49C842.559 677.119 841.657 676.799 840.936 676.211L840.862 676.151C839.702 675.207 837.996 675.382 837.052 676.542C836.108 677.702 836.283 679.408 837.443 680.352L837.516 680.412C839.204 681.786 841.314 682.536 843.49 682.536H845.496C849.614 682.536 852.952 679.198 852.952 675.08C852.952 673.164 852.23 671.418 851.043 670.097C851.935 668.892 852.462 667.402 852.462 665.788C852.462 661.782 849.215 658.535 845.209 658.535H843.3C841.191 658.535 839.146 659.263 837.511 660.595L837.441 660.653C836.282 661.598 836.108 663.304 837.053 664.463C837.998 665.622 839.704 665.796 840.863 664.851L840.934 664.794Z" fill="black"/>
</g>
</g>
</g>
<g id="Ultralight-S">
<g id="Solid / Payroll Card Solid_27">
<g id="Shape_27">
<path d="M523.617 642.616C523.398 644.212 524.806 645.54 526.417 645.54L595.855 645.54C597.316 645.54 598.584 644.349 598.418 642.897C597.754 637.089 593.108 632.49 587.278 631.898C586.858 631.855 586.431 631.833 586 631.833H536C529.679 631.833 524.454 636.525 523.617 642.616Z" fill="black"/>
<path fill-rule="evenodd" clip-rule="evenodd" d="M523.5 677.666C523.5 684.57 529.096 690.166 536 690.166H586C592.904 690.166 598.5 684.57 598.5 677.666V653.873C598.5 652.262 597.194 650.956 595.583 650.956L526.417 650.956C524.806 650.956 523.5 652.262 523.5 653.873V677.666ZM562.354 661.185C562.354 659.69 563.567 658.477 565.062 658.477H578.848C580.344 658.477 581.557 659.69 581.557 661.185V679.815C581.557 681.311 580.344 682.524 578.848 682.524C577.352 682.524 576.14 681.311 576.14 679.815V663.894H567.771V679.815C567.771 681.311 566.558 682.524 565.062 682.524C563.567 682.524 562.354 681.311 562.354 679.815V661.185ZM544.934 664.794C545.602 664.249 546.438 663.952 547.3 663.952H549.209C550.223 663.952 551.045 664.774 551.045 665.788C551.045 666.802 550.223 667.624 549.209 667.624H548.851C547.355 667.624 546.142 668.836 546.142 670.332C546.142 671.828 547.355 673.04 548.851 673.04H549.081L549.114 673.04H549.496C550.623 673.04 551.536 673.954 551.536 675.08C551.536 676.206 550.623 677.119 549.496 677.119H547.49C546.559 677.119 545.657 676.799 544.936 676.211L544.862 676.151C543.702 675.207 541.996 675.382 541.052 676.542C540.108 677.702 540.283 679.408 541.443 680.352L541.516 680.412C543.204 681.786 545.314 682.536 547.49 682.536H549.496C553.614 682.536 556.952 679.198 556.952 675.08C556.952 673.164 556.23 671.418 555.043 670.097C555.935 668.892 556.462 667.402 556.462 665.788C556.462 661.782 553.215 658.535 549.209 658.535H547.3C545.191 658.535 543.146 659.263 541.511 660.595L541.441 660.653C540.282 661.598 540.108 663.304 541.053 664.463C541.998 665.622 543.704 665.796 544.863 664.851L544.934 664.794Z" fill="black"/>
</g>
</g>
</g>
</g>
</g>
<defs>
<clipPath id="clip0_0_1">
<rect width="3300" height="2200" fill="white"/>
</clipPath>
</defs>
</svg>
