<svg width="3300" height="2200" viewBox="0 0 3300 2200" fill="none" xmlns="http://www.w3.org/2000/svg">
<rect width="3300" height="2200" fill="#E5E5E5"/>
<g id="System / Solid / Refuse" clip-path="url(#clip0_805_27002)">
<g id="Notes">
<path id="artboard" d="M3300 0H0V2200H3300V0Z" fill="white"/>
<path id="Vector" d="M263 292H3036" stroke="black" stroke-width="0.5"/>
<text id="Weight/Scale Variations" fill="black" xml:space="preserve" style="white-space: pre" font-family="Roboto" font-size="12" letter-spacing="0em"><tspan x="263" y="321.102">Weight/Scale Variations</tspan></text>
<text id="Ultralight" fill="black" xml:space="preserve" style="white-space: pre" font-family="Roboto" font-size="12" letter-spacing="0em"><tspan x="535.211" y="321.102">Ultralight</tspan></text>
<text id="Thin" fill="black" xml:space="preserve" style="white-space: pre" font-family="Roboto" font-size="12" letter-spacing="0em"><tspan x="844.422" y="321.102">Thin</tspan></text>
<text id="Light" fill="black" xml:space="preserve" style="white-space: pre" font-family="Roboto" font-size="12" letter-spacing="0em"><tspan x="1139.63" y="321.102">Light</tspan></text>
<text id="Regular" fill="black" xml:space="preserve" style="white-space: pre" font-family="Roboto" font-size="12" letter-spacing="0em"><tspan x="1429.34" y="321.102">Regular</tspan></text>
<text id="Medium" fill="black" xml:space="preserve" style="white-space: pre" font-family="Roboto" font-size="12" letter-spacing="0em"><tspan x="1724.56" y="321.102">Medium</tspan></text>
<text id="Semibold" fill="black" xml:space="preserve" style="white-space: pre" font-family="Roboto" font-size="12" letter-spacing="0em"><tspan x="2017.77" y="321.102">Semibold</tspan></text>
<text id="Bold" fill="black" xml:space="preserve" style="white-space: pre" font-family="Roboto" font-size="12" letter-spacing="0em"><tspan x="2327.48" y="321.102">Bold</tspan></text>
<text id="Heavy" fill="black" xml:space="preserve" style="white-space: pre" font-family="Roboto" font-size="12" letter-spacing="0em"><tspan x="2620.19" y="321.102">Heavy</tspan></text>
<text id="Black" fill="black" xml:space="preserve" style="white-space: pre" font-family="Roboto" font-size="12" letter-spacing="0em"><tspan x="2918.4" y="321.102">Black</tspan></text>
<path id="Vector_2" d="M263 1903H3036" stroke="black" stroke-width="0.5"/>
<g id="Group">
<path id="Vector_3" d="M272.248 1933.83C276.555 1933.83 280.139 1930.26 280.139 1925.95C280.139 1921.64 276.545 1918.07 272.238 1918.07C267.941 1918.07 264.367 1921.64 264.367 1925.95C264.367 1930.26 267.951 1933.83 272.248 1933.83ZM272.248 1932.35C268.703 1932.35 265.871 1929.51 265.871 1925.95C265.871 1922.4 268.693 1919.55 272.238 1919.55C275.793 1919.55 278.635 1922.4 278.644 1925.95C278.654 1929.51 275.803 1932.35 272.248 1932.35ZM272.229 1929.57C272.697 1929.57 272.971 1929.26 272.971 1928.74V1926.68H275.197C275.695 1926.68 276.037 1926.43 276.037 1925.96C276.037 1925.48 275.715 1925.22 275.197 1925.22H272.971V1922.99C272.971 1922.47 272.697 1922.15 272.229 1922.15C271.76 1922.15 271.506 1922.49 271.506 1922.99V1925.22H269.299C268.781 1925.22 268.449 1925.48 268.449 1925.96C268.449 1926.43 268.801 1926.68 269.299 1926.68H271.506V1928.74C271.506 1929.24 271.76 1929.57 272.229 1929.57Z" fill="black"/>
</g>
<g id="Group_2">
<path id="Vector_4" d="M293.215 1935.91C298.664 1935.91 303.176 1931.4 303.176 1925.95C303.176 1920.51 298.654 1915.99 293.205 1915.99C287.766 1915.99 283.254 1920.51 283.254 1925.95C283.254 1931.4 287.775 1935.91 293.215 1935.91ZM293.215 1934.25C288.605 1934.25 284.924 1930.56 284.924 1925.95C284.924 1921.35 288.596 1917.65 293.205 1917.65C297.814 1917.65 301.506 1921.35 301.516 1925.95C301.525 1930.56 297.824 1934.25 293.215 1934.25ZM293.195 1930.59C293.713 1930.59 294.025 1930.23 294.025 1929.66V1926.77H297.082C297.629 1926.77 298.01 1926.49 298.01 1925.97C298.01 1925.44 297.648 1925.14 297.082 1925.14H294.025V1922.07C294.025 1921.5 293.713 1921.14 293.195 1921.14C292.678 1921.14 292.385 1921.52 292.385 1922.07V1925.14H289.338C288.771 1925.14 288.4 1925.44 288.4 1925.97C288.4 1926.49 288.791 1926.77 289.338 1926.77H292.385V1929.66C292.385 1930.21 292.678 1930.59 293.195 1930.59Z" fill="black"/>
</g>
<g id="Group_3">
<path id="Vector_5" d="M319.895 1938.67C326.857 1938.67 332.619 1932.92 332.619 1925.96C332.619 1918.99 326.848 1913.24 319.885 1913.24C312.932 1913.24 307.18 1918.99 307.18 1925.96C307.18 1932.92 312.941 1938.67 319.895 1938.67ZM319.895 1936.86C313.859 1936.86 309.006 1931.99 309.006 1925.96C309.006 1919.92 313.85 1915.06 319.885 1915.06C325.93 1915.06 330.783 1919.92 330.793 1925.96C330.803 1931.99 325.939 1936.86 319.895 1936.86ZM319.875 1931.93C320.441 1931.93 320.793 1931.54 320.793 1930.94V1926.87H325.031C325.617 1926.87 326.037 1926.53 326.037 1925.98C326.037 1925.4 325.647 1925.06 325.031 1925.06H320.793V1920.81C320.793 1920.2 320.441 1919.8 319.875 1919.8C319.309 1919.8 318.986 1920.21 318.986 1920.81V1925.06H314.758C314.143 1925.06 313.732 1925.4 313.732 1925.98C313.732 1926.53 314.162 1926.87 314.758 1926.87H318.986V1930.94C318.986 1931.52 319.309 1931.93 319.875 1931.93Z" fill="black"/>
</g>
<text id="Design Variations" fill="black" xml:space="preserve" style="white-space: pre" font-family="Roboto" font-size="12" letter-spacing="0em"><tspan x="263" y="1952.1">Design Variations</tspan></text>
<text id="Symbols are supported in up to nine weights and three scales." fill="black" xml:space="preserve" style="white-space: pre" font-family="Roboto" font-size="12" letter-spacing="0em"><tspan x="263" y="1970.1">Symbols are supported in up to nine weights and three scales.</tspan></text>
<text id="For optimal layout with text and other symbols, vertically align" fill="black" xml:space="preserve" style="white-space: pre" font-family="Roboto" font-size="12" letter-spacing="0em"><tspan x="263" y="1988.1">For optimal layout with text and other symbols, vertically align</tspan></text>
<text id="symbols with the adjacent text." fill="black" xml:space="preserve" style="white-space: pre" font-family="Roboto" font-size="12" letter-spacing="0em"><tspan x="263" y="2006.1">symbols with the adjacent text.</tspan></text>
<path id="Vector_6" opacity="0.4" d="M779 1919H776V1933H779V1919Z" fill="#00AEEF"/>
<g id="Group_4">
<path id="Vector_7" d="M789.525 1933H791.371L786.176 1918.91H784.437L779.242 1933H781.088L782.504 1928.96H788.109L789.525 1933ZM785.277 1921.04H785.336L787.592 1927.47H783.021L785.277 1921.04Z" fill="black"/>
</g>
<path id="Vector_8" opacity="0.4" d="M794.617 1919H791.617V1933H794.617V1919Z" fill="#00AEEF"/>
<text id="Margins" fill="black" xml:space="preserve" style="white-space: pre" font-family="Roboto" font-size="12" letter-spacing="0em"><tspan x="776" y="1952.1">Margins</tspan></text>
<text id="Leading and trailing margins on the left and right side of each symbol" fill="black" xml:space="preserve" style="white-space: pre" font-family="Roboto" font-size="12" letter-spacing="0em"><tspan x="776" y="1970.1">Leading and trailing margins on the left and right side of each symbol</tspan></text>
<text id="can be adjusted by modifying the width of the blue rectangles." fill="black" xml:space="preserve" style="white-space: pre" font-family="Roboto" font-size="12" letter-spacing="0em"><tspan x="776" y="1988.1">can be adjusted by modifying the width of the blue rectangles.</tspan></text>
<text id="Modifications are automatically applied proportionally to all" fill="black" xml:space="preserve" style="white-space: pre" font-family="Roboto" font-size="12" letter-spacing="0em"><tspan x="776" y="2006.1">Modifications are automatically applied proportionally to all</tspan></text>
<text id="scales and weights." fill="black" xml:space="preserve" style="white-space: pre" font-family="Roboto" font-size="12" letter-spacing="0em"><tspan x="776" y="2024.1">scales and weights.</tspan></text>
<g id="Group_5">
<path id="Vector_9" d="M1291.83 1936.11L1293.37 1937.66C1294.22 1938.49 1295.19 1938.42 1296.06 1937.46L1306.27 1926.34C1306.7 1926.63 1307.1 1926.62 1307.56 1926.52L1308.61 1926.31L1309.3 1927L1309.25 1927.52C1309.19 1928.05 1309.35 1928.47 1309.85 1928.97L1310.66 1929.78C1311.17 1930.28 1311.82 1930.31 1312.3 1929.83L1315.55 1926.58C1316.03 1926.1 1316.01 1925.45 1315.5 1924.94L1314.68 1924.12C1314.19 1923.62 1313.77 1923.45 1313.24 1923.53L1312.71 1923.58L1312.06 1922.92L1312.34 1921.78C1312.49 1921.21 1312.34 1920.74 1311.71 1920.14L1309.3 1917.75C1305.76 1914.22 1301.23 1914.33 1298.11 1917.46C1297.69 1917.89 1297.64 1918.48 1297.92 1918.91C1298.15 1919.28 1298.63 1919.5 1299.27 1919.34C1300.79 1918.96 1302.3 1919.07 1303.78 1920.08L1303.16 1921.66C1302.93 1922.25 1302.94 1922.73 1303.18 1923.16L1292.02 1933.44C1291.08 1934.31 1290.97 1935.25 1291.83 1936.11ZM1299.67 1917.85C1302.34 1915.86 1305.65 1916.17 1308.05 1918.58L1310.68 1921.19C1310.91 1921.43 1310.94 1921.61 1310.88 1921.91L1310.5 1923.47L1312.08 1925.04L1313.04 1924.95C1313.33 1924.92 1313.41 1924.94 1313.64 1925.17L1314.26 1925.79L1311.51 1928.54L1310.88 1927.92C1310.66 1927.7 1310.64 1927.6 1310.67 1927.32L1310.76 1926.36L1309.19 1924.8L1307.57 1925.11C1307.29 1925.17 1307.14 1925.17 1306.91 1924.92L1304.73 1922.75C1304.51 1922.51 1304.48 1922.37 1304.61 1922.05L1305.55 1919.78C1303.95 1918.24 1301.84 1917.39 1299.8 1918.05C1299.71 1918.08 1299.64 1918.06 1299.61 1918.02C1299.59 1917.97 1299.59 1917.92 1299.67 1917.85ZM1293.1 1935.41C1292.61 1934.91 1292.79 1934.61 1293.12 1934.31L1304.08 1924.19L1305.31 1925.42L1295.15 1936.35C1294.85 1936.68 1294.47 1936.78 1294.07 1936.38L1293.1 1935.41Z" fill="black"/>
</g>
<text id="Exporting" fill="black" xml:space="preserve" style="white-space: pre" font-family="Roboto" font-size="12" letter-spacing="0em"><tspan x="1289" y="1952.1">Exporting</tspan></text>
<text id="Symbols should be outlined when exporting to ensure the" fill="black" xml:space="preserve" style="white-space: pre" font-family="Roboto" font-size="12" letter-spacing="0em"><tspan x="1289" y="1970.1">Symbols should be outlined when exporting to ensure the</tspan></text>
<text id="design is preserved when submitting to Xcode." fill="black" xml:space="preserve" style="white-space: pre" font-family="Roboto" font-size="12" letter-spacing="0em"><tspan x="1289" y="1988.1">design is preserved when submitting to Xcode.</tspan></text>
<text id="template-version" fill="black" xml:space="preserve" style="white-space: pre" font-family="Roboto" font-size="12" letter-spacing="0em"><tspan x="2958" y="1932.1">Template v.1.0</tspan></text>
<text id="Generated from pencil.circle" fill="black" xml:space="preserve" style="white-space: pre" font-family="Roboto" font-size="12" letter-spacing="0em"><tspan x="2885" y="1950.1">Generated from pencil.circle</tspan></text>
<text id="Typeset at 100 points" fill="black" xml:space="preserve" style="white-space: pre" font-family="Roboto" font-size="12" letter-spacing="0em"><tspan x="2921" y="1968.1">Typeset at 100 points</tspan></text>
<text id="Small" fill="black" xml:space="preserve" style="white-space: pre" font-family="Roboto" font-size="12" letter-spacing="0em"><tspan x="263" y="725.102">Small</tspan></text>
<text id="Medium_2" fill="black" xml:space="preserve" style="white-space: pre" font-family="Roboto" font-size="12" letter-spacing="0em"><tspan x="263" y="1155.1">Medium</tspan></text>
<text id="Large" fill="black" xml:space="preserve" style="white-space: pre" font-family="Roboto" font-size="12" letter-spacing="0em"><tspan x="263" y="1585.1">Large</tspan></text>
</g>
<g id="Guides">
<g id="H-reference">
<path id="Vector_10" d="M393.932 695.998H396.666L369.566 625.539H367.076L339.977 695.998H342.662L351.94 671.535H384.703L393.932 695.998ZM368.199 628.908H368.443L383.824 669.289H352.818L368.199 628.908Z" fill="#27AAE1"/>
</g>
<path id="Baseline-S" d="M263 696H3036" stroke="#27AAE1" stroke-width="0.577"/>
<path id="Capline-S" d="M263 626H3036" stroke="#27AAE1" stroke-width="0.577"/>
<g id="H-reference_2">
<path id="Vector_11" d="M393.932 1126H396.666L369.566 1055.54H367.076L339.977 1126H342.662L351.94 1101.54H384.703L393.932 1126ZM368.199 1058.91H368.443L383.824 1099.29H352.818L368.199 1058.91Z" fill="#27AAE1"/>
</g>
<path id="Baseline-M" d="M263 1126H3036" stroke="#27AAE1" stroke-width="0.577"/>
<path id="Capline-M" d="M263 1056H3036" stroke="#27AAE1" stroke-width="0.577"/>
<g id="H-reference_3">
<path id="Vector_12" d="M393.932 1556H396.666L369.566 1485.54H367.076L339.977 1556H342.662L351.94 1531.54H384.703L393.932 1556ZM368.199 1488.91H368.443L383.824 1529.29H352.818L368.199 1488.91Z" fill="#27AAE1"/>
</g>
<g id="Group 1">
<path id="Baseline-L" d="M263 1556H3036" stroke="#27AAE1" stroke-width="0.577"/>
<path id="Capline-L" d="M263 1486H3036" stroke="#27AAE1" stroke-width="0.577"/>
</g>
<path id="left-margin" opacity="0.4" d="M1396.04 1030.79H1387.3V1150.12H1396.04V1030.79Z" fill="#00AEEF"/>
<path id="right-margin" opacity="0.4" d="M1510.39 1030.79H1501.65V1150.12H1510.39V1030.79Z" fill="#00AEEF"/>
</g>
<g id="Symbols">
<g id="Black-L">
<g id="Solid / Refuse Solid">
<g id="Shape">
<path d="M2929 1556.25C2936.98 1556.25 2944.33 1553.6 2950.24 1549.13L2900.87 1499.76C2896.4 1505.67 2893.75 1513.02 2893.75 1521C2893.75 1540.47 2909.53 1556.25 2929 1556.25Z" fill="black"/>
<path d="M2907.76 1492.87L2957.13 1542.24C2961.6 1536.33 2964.25 1528.98 2964.25 1521C2964.25 1501.53 2948.47 1485.75 2929 1485.75C2921.02 1485.75 2913.67 1488.4 2907.76 1492.87Z" fill="black"/>
<path fill-rule="evenodd" clip-rule="evenodd" d="M2929 1588.5C2966.28 1588.5 2996.5 1558.28 2996.5 1521C2996.5 1483.72 2966.28 1453.5 2929 1453.5C2891.72 1453.5 2861.5 1483.72 2861.5 1521C2861.5 1558.28 2891.72 1588.5 2929 1588.5ZM2929 1566C2953.85 1566 2974 1545.85 2974 1521C2974 1496.15 2953.85 1476 2929 1476C2904.15 1476 2884 1496.15 2884 1521C2884 1545.85 2904.15 1566 2929 1566Z" fill="black"/>
</g>
</g>
</g>
<g id="Heavy-L">
<g id="Solid / Refuse Solid_2">
<g id="Shape_2">
<path d="M2633 1556.25C2640.98 1556.25 2648.33 1553.6 2654.24 1549.13L2604.87 1499.76C2600.4 1505.67 2597.75 1513.02 2597.75 1521C2597.75 1540.47 2613.53 1556.25 2633 1556.25Z" fill="black"/>
<path d="M2611.76 1492.87L2661.13 1542.24C2665.6 1536.33 2668.25 1528.98 2668.25 1521C2668.25 1501.53 2652.47 1485.75 2633 1485.75C2625.02 1485.75 2617.67 1488.4 2611.76 1492.87Z" fill="black"/>
<path fill-rule="evenodd" clip-rule="evenodd" d="M2633 1588.5C2670.28 1588.5 2700.5 1558.28 2700.5 1521C2700.5 1483.72 2670.28 1453.5 2633 1453.5C2595.72 1453.5 2565.5 1483.72 2565.5 1521C2565.5 1558.28 2595.72 1588.5 2633 1588.5ZM2633 1566C2657.85 1566 2678 1545.85 2678 1521C2678 1496.15 2657.85 1476 2633 1476C2608.15 1476 2588 1496.15 2588 1521C2588 1545.85 2608.15 1566 2633 1566Z" fill="black"/>
</g>
</g>
</g>
<g id="Bold-L">
<g id="Solid / Refuse Solid_3">
<g id="Shape_3">
<path d="M2337 1556.25C2344.98 1556.25 2352.33 1553.6 2358.24 1549.13L2308.87 1499.76C2304.4 1505.67 2301.75 1513.02 2301.75 1521C2301.75 1540.47 2317.53 1556.25 2337 1556.25Z" fill="black"/>
<path d="M2315.76 1492.87L2365.13 1542.24C2369.6 1536.33 2372.25 1528.98 2372.25 1521C2372.25 1501.53 2356.47 1485.75 2337 1485.75C2329.02 1485.75 2321.67 1488.4 2315.76 1492.87Z" fill="black"/>
<path fill-rule="evenodd" clip-rule="evenodd" d="M2337 1588.5C2374.28 1588.5 2404.5 1558.28 2404.5 1521C2404.5 1483.72 2374.28 1453.5 2337 1453.5C2299.72 1453.5 2269.5 1483.72 2269.5 1521C2269.5 1558.28 2299.72 1588.5 2337 1588.5ZM2337 1566C2361.85 1566 2382 1545.85 2382 1521C2382 1496.15 2361.85 1476 2337 1476C2312.15 1476 2292 1496.15 2292 1521C2292 1545.85 2312.15 1566 2337 1566Z" fill="black"/>
</g>
</g>
</g>
<g id="Semibold-L">
<g id="Solid / Refuse Solid_4">
<g id="Shape_4">
<path d="M2041 1556.25C2048.98 1556.25 2056.33 1553.6 2062.24 1549.13L2012.87 1499.76C2008.4 1505.67 2005.75 1513.02 2005.75 1521C2005.75 1540.47 2021.53 1556.25 2041 1556.25Z" fill="black"/>
<path d="M2019.76 1492.87L2069.13 1542.24C2073.6 1536.33 2076.25 1528.98 2076.25 1521C2076.25 1501.53 2060.47 1485.75 2041 1485.75C2033.02 1485.75 2025.67 1488.4 2019.76 1492.87Z" fill="black"/>
<path fill-rule="evenodd" clip-rule="evenodd" d="M2041 1588.5C2078.28 1588.5 2108.5 1558.28 2108.5 1521C2108.5 1483.72 2078.28 1453.5 2041 1453.5C2003.72 1453.5 1973.5 1483.72 1973.5 1521C1973.5 1558.28 2003.72 1588.5 2041 1588.5ZM2041 1566C2065.85 1566 2086 1545.85 2086 1521C2086 1496.15 2065.85 1476 2041 1476C2016.15 1476 1996 1496.15 1996 1521C1996 1545.85 2016.15 1566 2041 1566Z" fill="black"/>
</g>
</g>
</g>
<g id="Medium-L">
<g id="Solid / Refuse Solid_5">
<g id="Shape_5">
<path d="M1745 1556.25C1752.98 1556.25 1760.33 1553.6 1766.24 1549.13L1716.87 1499.76C1712.4 1505.67 1709.75 1513.02 1709.75 1521C1709.75 1540.47 1725.53 1556.25 1745 1556.25Z" fill="black"/>
<path d="M1723.76 1492.87L1773.13 1542.24C1777.6 1536.33 1780.25 1528.98 1780.25 1521C1780.25 1501.53 1764.47 1485.75 1745 1485.75C1737.02 1485.75 1729.67 1488.4 1723.76 1492.87Z" fill="black"/>
<path fill-rule="evenodd" clip-rule="evenodd" d="M1745 1588.5C1782.28 1588.5 1812.5 1558.28 1812.5 1521C1812.5 1483.72 1782.28 1453.5 1745 1453.5C1707.72 1453.5 1677.5 1483.72 1677.5 1521C1677.5 1558.28 1707.72 1588.5 1745 1588.5ZM1745 1566C1769.85 1566 1790 1545.85 1790 1521C1790 1496.15 1769.85 1476 1745 1476C1720.15 1476 1700 1496.15 1700 1521C1700 1545.85 1720.15 1566 1745 1566Z" fill="black"/>
</g>
</g>
</g>
<g id="Regular-L">
<g id="Solid / Refuse Solid_6">
<g id="Shape_6">
<path d="M1449 1556.25C1456.98 1556.25 1464.33 1553.6 1470.24 1549.13L1420.87 1499.76C1416.4 1505.67 1413.75 1513.02 1413.75 1521C1413.75 1540.47 1429.53 1556.25 1449 1556.25Z" fill="black"/>
<path d="M1427.76 1492.87L1477.13 1542.24C1481.6 1536.33 1484.25 1528.98 1484.25 1521C1484.25 1501.53 1468.47 1485.75 1449 1485.75C1441.02 1485.75 1433.67 1488.4 1427.76 1492.87Z" fill="black"/>
<path fill-rule="evenodd" clip-rule="evenodd" d="M1449 1588.5C1486.28 1588.5 1516.5 1558.28 1516.5 1521C1516.5 1483.72 1486.28 1453.5 1449 1453.5C1411.72 1453.5 1381.5 1483.72 1381.5 1521C1381.5 1558.28 1411.72 1588.5 1449 1588.5ZM1449 1566C1473.85 1566 1494 1545.85 1494 1521C1494 1496.15 1473.85 1476 1449 1476C1424.15 1476 1404 1496.15 1404 1521C1404 1545.85 1424.15 1566 1449 1566Z" fill="black"/>
</g>
</g>
</g>
<g id="Light-L">
<g id="Solid / Refuse Solid_7">
<g id="Shape_7">
<path d="M1153 1556.25C1160.98 1556.25 1168.33 1553.6 1174.24 1549.13L1124.87 1499.76C1120.4 1505.67 1117.75 1513.02 1117.75 1521C1117.75 1540.47 1133.53 1556.25 1153 1556.25Z" fill="black"/>
<path d="M1131.76 1492.87L1181.13 1542.24C1185.6 1536.33 1188.25 1528.98 1188.25 1521C1188.25 1501.53 1172.47 1485.75 1153 1485.75C1145.02 1485.75 1137.67 1488.4 1131.76 1492.87Z" fill="black"/>
<path fill-rule="evenodd" clip-rule="evenodd" d="M1153 1588.5C1190.28 1588.5 1220.5 1558.28 1220.5 1521C1220.5 1483.72 1190.28 1453.5 1153 1453.5C1115.72 1453.5 1085.5 1483.72 1085.5 1521C1085.5 1558.28 1115.72 1588.5 1153 1588.5ZM1153 1566C1177.85 1566 1198 1545.85 1198 1521C1198 1496.15 1177.85 1476 1153 1476C1128.15 1476 1108 1496.15 1108 1521C1108 1545.85 1128.15 1566 1153 1566Z" fill="black"/>
</g>
</g>
</g>
<g id="Thin-L">
<g id="Solid / Refuse Solid_8">
<g id="Shape_8">
<path d="M857 1556.25C864.976 1556.25 872.333 1553.6 878.24 1549.13L828.865 1499.76C824.399 1505.67 821.75 1513.02 821.75 1521C821.75 1540.47 837.532 1556.25 857 1556.25Z" fill="black"/>
<path d="M835.76 1492.87L885.135 1542.24C889.601 1536.33 892.25 1528.98 892.25 1521C892.25 1501.53 876.468 1485.75 857 1485.75C849.024 1485.75 841.667 1488.4 835.76 1492.87Z" fill="black"/>
<path fill-rule="evenodd" clip-rule="evenodd" d="M857 1588.5C894.279 1588.5 924.5 1558.28 924.5 1521C924.5 1483.72 894.279 1453.5 857 1453.5C819.721 1453.5 789.5 1483.72 789.5 1521C789.5 1558.28 819.721 1588.5 857 1588.5ZM857 1566C881.853 1566 902 1545.85 902 1521C902 1496.15 881.853 1476 857 1476C832.147 1476 812 1496.15 812 1521C812 1545.85 832.147 1566 857 1566Z" fill="black"/>
</g>
</g>
</g>
<g id="Ultralight-L">
<g id="Solid / Refuse Solid_9">
<g id="Shape_9">
<path d="M561 1556.25C568.976 1556.25 576.333 1553.6 582.24 1549.13L532.865 1499.76C528.399 1505.67 525.75 1513.02 525.75 1521C525.75 1540.47 541.532 1556.25 561 1556.25Z" fill="black"/>
<path d="M539.76 1492.87L589.135 1542.24C593.601 1536.33 596.25 1528.98 596.25 1521C596.25 1501.53 580.468 1485.75 561 1485.75C553.024 1485.75 545.667 1488.4 539.76 1492.87Z" fill="black"/>
<path fill-rule="evenodd" clip-rule="evenodd" d="M561 1588.5C598.279 1588.5 628.5 1558.28 628.5 1521C628.5 1483.72 598.279 1453.5 561 1453.5C523.721 1453.5 493.5 1483.72 493.5 1521C493.5 1558.28 523.721 1588.5 561 1588.5ZM561 1566C585.853 1566 606 1545.85 606 1521C606 1496.15 585.853 1476 561 1476C536.147 1476 516 1496.15 516 1521C516 1545.85 536.147 1566 561 1566Z" fill="black"/>
</g>
</g>
</g>
<g id="Black-M">
<g id="Solid / Refuse Solid_10">
<g id="Shape_10">
<path d="M2929 1118.42C2935.2 1118.42 2940.93 1116.36 2945.52 1112.88L2907.12 1074.48C2903.64 1079.07 2901.58 1084.8 2901.58 1091C2901.58 1106.14 2913.86 1118.42 2929 1118.42Z" fill="black"/>
<path d="M2912.48 1069.12L2950.88 1107.52C2954.36 1102.93 2956.42 1097.2 2956.42 1091C2956.42 1075.86 2944.14 1063.58 2929 1063.58C2922.8 1063.58 2917.07 1065.64 2912.48 1069.12Z" fill="black"/>
<path fill-rule="evenodd" clip-rule="evenodd" d="M2929 1143.5C2957.99 1143.5 2981.5 1119.99 2981.5 1091C2981.5 1062.01 2957.99 1038.5 2929 1038.5C2900.01 1038.5 2876.5 1062.01 2876.5 1091C2876.5 1119.99 2900.01 1143.5 2929 1143.5ZM2929 1126C2948.33 1126 2964 1110.33 2964 1091C2964 1071.67 2948.33 1056 2929 1056C2909.67 1056 2894 1071.67 2894 1091C2894 1110.33 2909.67 1126 2929 1126Z" fill="black"/>
</g>
</g>
</g>
<g id="Heavy-M">
<g id="Solid / Refuse Solid_11">
<g id="Shape_11">
<path d="M2633 1118.42C2639.2 1118.42 2644.93 1116.36 2649.52 1112.88L2611.12 1074.48C2607.64 1079.07 2605.58 1084.8 2605.58 1091C2605.58 1106.14 2617.86 1118.42 2633 1118.42Z" fill="black"/>
<path d="M2616.48 1069.12L2654.88 1107.52C2658.36 1102.93 2660.42 1097.2 2660.42 1091C2660.42 1075.86 2648.14 1063.58 2633 1063.58C2626.8 1063.58 2621.07 1065.64 2616.48 1069.12Z" fill="black"/>
<path fill-rule="evenodd" clip-rule="evenodd" d="M2633 1143.5C2661.99 1143.5 2685.5 1119.99 2685.5 1091C2685.5 1062.01 2661.99 1038.5 2633 1038.5C2604.01 1038.5 2580.5 1062.01 2580.5 1091C2580.5 1119.99 2604.01 1143.5 2633 1143.5ZM2633 1126C2652.33 1126 2668 1110.33 2668 1091C2668 1071.67 2652.33 1056 2633 1056C2613.67 1056 2598 1071.67 2598 1091C2598 1110.33 2613.67 1126 2633 1126Z" fill="black"/>
</g>
</g>
</g>
<g id="Bold-M">
<g id="Solid / Refuse Solid_12">
<g id="Shape_12">
<path d="M2337 1118.42C2343.2 1118.42 2348.93 1116.36 2353.52 1112.88L2315.12 1074.48C2311.64 1079.07 2309.58 1084.8 2309.58 1091C2309.58 1106.14 2321.86 1118.42 2337 1118.42Z" fill="black"/>
<path d="M2320.48 1069.12L2358.88 1107.52C2362.36 1102.93 2364.42 1097.2 2364.42 1091C2364.42 1075.86 2352.14 1063.58 2337 1063.58C2330.8 1063.58 2325.07 1065.64 2320.48 1069.12Z" fill="black"/>
<path fill-rule="evenodd" clip-rule="evenodd" d="M2337 1143.5C2365.99 1143.5 2389.5 1119.99 2389.5 1091C2389.5 1062.01 2365.99 1038.5 2337 1038.5C2308.01 1038.5 2284.5 1062.01 2284.5 1091C2284.5 1119.99 2308.01 1143.5 2337 1143.5ZM2337 1126C2356.33 1126 2372 1110.33 2372 1091C2372 1071.67 2356.33 1056 2337 1056C2317.67 1056 2302 1071.67 2302 1091C2302 1110.33 2317.67 1126 2337 1126Z" fill="black"/>
</g>
</g>
</g>
<g id="Semibold-M">
<g id="Solid / Refuse Solid_13">
<g id="Shape_13">
<path d="M2041 1118.42C2047.2 1118.42 2052.93 1116.36 2057.52 1112.88L2019.12 1074.48C2015.64 1079.07 2013.58 1084.8 2013.58 1091C2013.58 1106.14 2025.86 1118.42 2041 1118.42Z" fill="black"/>
<path d="M2024.48 1069.12L2062.88 1107.52C2066.36 1102.93 2068.42 1097.2 2068.42 1091C2068.42 1075.86 2056.14 1063.58 2041 1063.58C2034.8 1063.58 2029.07 1065.64 2024.48 1069.12Z" fill="black"/>
<path fill-rule="evenodd" clip-rule="evenodd" d="M2041 1143.5C2069.99 1143.5 2093.5 1119.99 2093.5 1091C2093.5 1062.01 2069.99 1038.5 2041 1038.5C2012.01 1038.5 1988.5 1062.01 1988.5 1091C1988.5 1119.99 2012.01 1143.5 2041 1143.5ZM2041 1126C2060.33 1126 2076 1110.33 2076 1091C2076 1071.67 2060.33 1056 2041 1056C2021.67 1056 2006 1071.67 2006 1091C2006 1110.33 2021.67 1126 2041 1126Z" fill="black"/>
</g>
</g>
</g>
<g id="Medium-M">
<g id="Solid / Refuse Solid_14">
<g id="Shape_14">
<path d="M1745 1118.42C1751.2 1118.42 1756.93 1116.36 1761.52 1112.88L1723.12 1074.48C1719.64 1079.07 1717.58 1084.8 1717.58 1091C1717.58 1106.14 1729.86 1118.42 1745 1118.42Z" fill="black"/>
<path d="M1728.48 1069.12L1766.88 1107.52C1770.36 1102.93 1772.42 1097.2 1772.42 1091C1772.42 1075.86 1760.14 1063.58 1745 1063.58C1738.8 1063.58 1733.07 1065.64 1728.48 1069.12Z" fill="black"/>
<path fill-rule="evenodd" clip-rule="evenodd" d="M1745 1143.5C1773.99 1143.5 1797.5 1119.99 1797.5 1091C1797.5 1062.01 1773.99 1038.5 1745 1038.5C1716.01 1038.5 1692.5 1062.01 1692.5 1091C1692.5 1119.99 1716.01 1143.5 1745 1143.5ZM1745 1126C1764.33 1126 1780 1110.33 1780 1091C1780 1071.67 1764.33 1056 1745 1056C1725.67 1056 1710 1071.67 1710 1091C1710 1110.33 1725.67 1126 1745 1126Z" fill="black"/>
</g>
</g>
</g>
<g id="Regular-M">
<g id="Solid / Refuse Solid_15">
<g id="Shape_15">
<path d="M1449 1118.42C1455.2 1118.42 1460.93 1116.36 1465.52 1112.88L1427.12 1074.48C1423.64 1079.07 1421.58 1084.8 1421.58 1091C1421.58 1106.14 1433.86 1118.42 1449 1118.42Z" fill="black"/>
<path d="M1432.48 1069.12L1470.88 1107.52C1474.36 1102.93 1476.42 1097.2 1476.42 1091C1476.42 1075.86 1464.14 1063.58 1449 1063.58C1442.8 1063.58 1437.07 1065.64 1432.48 1069.12Z" fill="black"/>
<path fill-rule="evenodd" clip-rule="evenodd" d="M1449 1143.5C1477.99 1143.5 1501.5 1119.99 1501.5 1091C1501.5 1062.01 1477.99 1038.5 1449 1038.5C1420.01 1038.5 1396.5 1062.01 1396.5 1091C1396.5 1119.99 1420.01 1143.5 1449 1143.5ZM1449 1126C1468.33 1126 1484 1110.33 1484 1091C1484 1071.67 1468.33 1056 1449 1056C1429.67 1056 1414 1071.67 1414 1091C1414 1110.33 1429.67 1126 1449 1126Z" fill="black"/>
</g>
</g>
</g>
<g id="Light-M">
<g id="Solid / Refuse Solid_16">
<g id="Shape_16">
<path d="M1153 1118.42C1159.2 1118.42 1164.93 1116.36 1169.52 1112.88L1131.12 1074.48C1127.64 1079.07 1125.58 1084.8 1125.58 1091C1125.58 1106.14 1137.86 1118.42 1153 1118.42Z" fill="black"/>
<path d="M1136.48 1069.12L1174.88 1107.52C1178.36 1102.93 1180.42 1097.2 1180.42 1091C1180.42 1075.86 1168.14 1063.58 1153 1063.58C1146.8 1063.58 1141.07 1065.64 1136.48 1069.12Z" fill="black"/>
<path fill-rule="evenodd" clip-rule="evenodd" d="M1153 1143.5C1181.99 1143.5 1205.5 1119.99 1205.5 1091C1205.5 1062.01 1181.99 1038.5 1153 1038.5C1124.01 1038.5 1100.5 1062.01 1100.5 1091C1100.5 1119.99 1124.01 1143.5 1153 1143.5ZM1153 1126C1172.33 1126 1188 1110.33 1188 1091C1188 1071.67 1172.33 1056 1153 1056C1133.67 1056 1118 1071.67 1118 1091C1118 1110.33 1133.67 1126 1153 1126Z" fill="black"/>
</g>
</g>
</g>
<g id="Thin-M">
<g id="Solid / Refuse Solid_17">
<g id="Shape_17">
<path d="M857 1118.42C863.204 1118.42 868.926 1116.36 873.52 1112.88L835.118 1074.48C831.644 1079.07 829.583 1084.8 829.583 1091C829.583 1106.14 841.858 1118.42 857 1118.42Z" fill="black"/>
<path d="M840.48 1069.12L878.882 1107.52C882.356 1102.93 884.417 1097.2 884.417 1091C884.417 1075.86 872.142 1063.58 857 1063.58C850.796 1063.58 845.074 1065.64 840.48 1069.12Z" fill="black"/>
<path fill-rule="evenodd" clip-rule="evenodd" d="M857 1143.5C885.995 1143.5 909.5 1119.99 909.5 1091C909.5 1062.01 885.995 1038.5 857 1038.5C828.005 1038.5 804.5 1062.01 804.5 1091C804.5 1119.99 828.005 1143.5 857 1143.5ZM857 1126C876.33 1126 892 1110.33 892 1091C892 1071.67 876.33 1056 857 1056C837.67 1056 822 1071.67 822 1091C822 1110.33 837.67 1126 857 1126Z" fill="black"/>
</g>
</g>
</g>
<g id="Ultralight-M">
<g id="Solid / Refuse Solid_18">
<g id="Shape_18">
<path d="M561 1118.42C567.204 1118.42 572.926 1116.36 577.52 1112.88L539.118 1074.48C535.644 1079.07 533.583 1084.8 533.583 1091C533.583 1106.14 545.858 1118.42 561 1118.42Z" fill="black"/>
<path d="M544.48 1069.12L582.882 1107.52C586.356 1102.93 588.417 1097.2 588.417 1091C588.417 1075.86 576.142 1063.58 561 1063.58C554.796 1063.58 549.074 1065.64 544.48 1069.12Z" fill="black"/>
<path fill-rule="evenodd" clip-rule="evenodd" d="M561 1143.5C589.995 1143.5 613.5 1119.99 613.5 1091C613.5 1062.01 589.995 1038.5 561 1038.5C532.005 1038.5 508.5 1062.01 508.5 1091C508.5 1119.99 532.005 1143.5 561 1143.5ZM561 1126C580.33 1126 596 1110.33 596 1091C596 1071.67 580.33 1056 561 1056C541.67 1056 526 1071.67 526 1091C526 1110.33 541.67 1126 561 1126Z" fill="black"/>
</g>
</g>
</g>
<g id="Black-S">
<g id="Solid / Refuse Solid_19">
<g id="Shape_19">
<path d="M2929 680.583C2933.43 680.583 2937.52 679.112 2940.8 676.63L2913.37 649.2C2910.89 652.481 2909.42 656.569 2909.42 661C2909.42 671.816 2918.18 680.583 2929 680.583Z" fill="black"/>
<path d="M2917.2 645.37L2944.63 672.8C2947.11 669.519 2948.58 665.431 2948.58 661C2948.58 650.184 2939.82 641.417 2929 641.417C2924.57 641.417 2920.48 642.888 2917.2 645.37Z" fill="black"/>
<path fill-rule="evenodd" clip-rule="evenodd" d="M2929 698.5C2949.71 698.5 2966.5 681.711 2966.5 661C2966.5 640.289 2949.71 623.5 2929 623.5C2908.29 623.5 2891.5 640.289 2891.5 661C2891.5 681.711 2908.29 698.5 2929 698.5ZM2929 686C2942.81 686 2954 674.807 2954 661C2954 647.193 2942.81 636 2929 636C2915.19 636 2904 647.193 2904 661C2904 674.807 2915.19 686 2929 686Z" fill="black"/>
</g>
</g>
</g>
<g id="Heavy-S">
<g id="Solid / Refuse Solid_20">
<g id="Shape_20">
<path d="M2633 680.583C2637.43 680.583 2641.52 679.112 2644.8 676.63L2617.37 649.2C2614.89 652.481 2613.42 656.569 2613.42 661C2613.42 671.816 2622.18 680.583 2633 680.583Z" fill="black"/>
<path d="M2621.2 645.37L2648.63 672.8C2651.11 669.519 2652.58 665.431 2652.58 661C2652.58 650.184 2643.82 641.417 2633 641.417C2628.57 641.417 2624.48 642.888 2621.2 645.37Z" fill="black"/>
<path fill-rule="evenodd" clip-rule="evenodd" d="M2633 698.5C2653.71 698.5 2670.5 681.711 2670.5 661C2670.5 640.289 2653.71 623.5 2633 623.5C2612.29 623.5 2595.5 640.289 2595.5 661C2595.5 681.711 2612.29 698.5 2633 698.5ZM2633 686C2646.81 686 2658 674.807 2658 661C2658 647.193 2646.81 636 2633 636C2619.19 636 2608 647.193 2608 661C2608 674.807 2619.19 686 2633 686Z" fill="black"/>
</g>
</g>
</g>
<g id="Bold-S">
<g id="Solid / Refuse Solid_21">
<g id="Shape_21">
<path d="M2337 680.583C2341.43 680.583 2345.52 679.112 2348.8 676.63L2321.37 649.2C2318.89 652.481 2317.42 656.569 2317.42 661C2317.42 671.816 2326.18 680.583 2337 680.583Z" fill="black"/>
<path d="M2325.2 645.37L2352.63 672.8C2355.11 669.519 2356.58 665.431 2356.58 661C2356.58 650.184 2347.82 641.417 2337 641.417C2332.57 641.417 2328.48 642.888 2325.2 645.37Z" fill="black"/>
<path fill-rule="evenodd" clip-rule="evenodd" d="M2337 698.5C2357.71 698.5 2374.5 681.711 2374.5 661C2374.5 640.289 2357.71 623.5 2337 623.5C2316.29 623.5 2299.5 640.289 2299.5 661C2299.5 681.711 2316.29 698.5 2337 698.5ZM2337 686C2350.81 686 2362 674.807 2362 661C2362 647.193 2350.81 636 2337 636C2323.19 636 2312 647.193 2312 661C2312 674.807 2323.19 686 2337 686Z" fill="black"/>
</g>
</g>
</g>
<g id="Semibold-S">
<g id="Solid / Refuse Solid_22">
<g id="Shape_22">
<path d="M2041 680.583C2045.43 680.583 2049.52 679.112 2052.8 676.63L2025.37 649.2C2022.89 652.481 2021.42 656.569 2021.42 661C2021.42 671.816 2030.18 680.583 2041 680.583Z" fill="black"/>
<path d="M2029.2 645.37L2056.63 672.8C2059.11 669.519 2060.58 665.431 2060.58 661C2060.58 650.184 2051.82 641.417 2041 641.417C2036.57 641.417 2032.48 642.888 2029.2 645.37Z" fill="black"/>
<path fill-rule="evenodd" clip-rule="evenodd" d="M2041 698.5C2061.71 698.5 2078.5 681.711 2078.5 661C2078.5 640.289 2061.71 623.5 2041 623.5C2020.29 623.5 2003.5 640.289 2003.5 661C2003.5 681.711 2020.29 698.5 2041 698.5ZM2041 686C2054.81 686 2066 674.807 2066 661C2066 647.193 2054.81 636 2041 636C2027.19 636 2016 647.193 2016 661C2016 674.807 2027.19 686 2041 686Z" fill="black"/>
</g>
</g>
</g>
<g id="Medium-S">
<g id="Solid / Refuse Solid_23">
<g id="Shape_23">
<path d="M1745 680.583C1749.43 680.583 1753.52 679.112 1756.8 676.63L1729.37 649.2C1726.89 652.481 1725.42 656.569 1725.42 661C1725.42 671.816 1734.18 680.583 1745 680.583Z" fill="black"/>
<path d="M1733.2 645.37L1760.63 672.8C1763.11 669.519 1764.58 665.431 1764.58 661C1764.58 650.184 1755.82 641.417 1745 641.417C1740.57 641.417 1736.48 642.888 1733.2 645.37Z" fill="black"/>
<path fill-rule="evenodd" clip-rule="evenodd" d="M1745 698.5C1765.71 698.5 1782.5 681.711 1782.5 661C1782.5 640.289 1765.71 623.5 1745 623.5C1724.29 623.5 1707.5 640.289 1707.5 661C1707.5 681.711 1724.29 698.5 1745 698.5ZM1745 686C1758.81 686 1770 674.807 1770 661C1770 647.193 1758.81 636 1745 636C1731.19 636 1720 647.193 1720 661C1720 674.807 1731.19 686 1745 686Z" fill="black"/>
</g>
</g>
</g>
<g id="Regular-S">
<g id="Solid / Refuse Solid_24">
<g id="Shape_24">
<path d="M1449 680.583C1453.43 680.583 1457.52 679.112 1460.8 676.63L1433.37 649.2C1430.89 652.481 1429.42 656.569 1429.42 661C1429.42 671.816 1438.18 680.583 1449 680.583Z" fill="black"/>
<path d="M1437.2 645.37L1464.63 672.8C1467.11 669.519 1468.58 665.431 1468.58 661C1468.58 650.184 1459.82 641.417 1449 641.417C1444.57 641.417 1440.48 642.888 1437.2 645.37Z" fill="black"/>
<path fill-rule="evenodd" clip-rule="evenodd" d="M1449 698.5C1469.71 698.5 1486.5 681.711 1486.5 661C1486.5 640.289 1469.71 623.5 1449 623.5C1428.29 623.5 1411.5 640.289 1411.5 661C1411.5 681.711 1428.29 698.5 1449 698.5ZM1449 686C1462.81 686 1474 674.807 1474 661C1474 647.193 1462.81 636 1449 636C1435.19 636 1424 647.193 1424 661C1424 674.807 1435.19 686 1449 686Z" fill="black"/>
</g>
</g>
</g>
<g id="Light-S">
<g id="Solid / Refuse Solid_25">
<g id="Shape_25">
<path d="M1153 680.583C1157.43 680.583 1161.52 679.112 1164.8 676.63L1137.37 649.2C1134.89 652.481 1133.42 656.569 1133.42 661C1133.42 671.816 1142.18 680.583 1153 680.583Z" fill="black"/>
<path d="M1141.2 645.37L1168.63 672.8C1171.11 669.519 1172.58 665.431 1172.58 661C1172.58 650.184 1163.82 641.417 1153 641.417C1148.57 641.417 1144.48 642.888 1141.2 645.37Z" fill="black"/>
<path fill-rule="evenodd" clip-rule="evenodd" d="M1153 698.5C1173.71 698.5 1190.5 681.711 1190.5 661C1190.5 640.289 1173.71 623.5 1153 623.5C1132.29 623.5 1115.5 640.289 1115.5 661C1115.5 681.711 1132.29 698.5 1153 698.5ZM1153 686C1166.81 686 1178 674.807 1178 661C1178 647.193 1166.81 636 1153 636C1139.19 636 1128 647.193 1128 661C1128 674.807 1139.19 686 1153 686Z" fill="black"/>
</g>
</g>
</g>
<g id="Thin-S">
<g id="Solid / Refuse Solid_26">
<g id="Shape_26">
<path d="M857 680.583C861.431 680.583 865.519 679.112 868.8 676.63L841.37 649.2C838.888 652.481 837.417 656.569 837.417 661C837.417 671.816 846.184 680.583 857 680.583Z" fill="black"/>
<path d="M845.2 645.37L872.63 672.8C875.112 669.519 876.583 665.431 876.583 661C876.583 650.184 867.816 641.417 857 641.417C852.569 641.417 848.481 642.888 845.2 645.37Z" fill="black"/>
<path fill-rule="evenodd" clip-rule="evenodd" d="M857 698.5C877.711 698.5 894.5 681.711 894.5 661C894.5 640.289 877.711 623.5 857 623.5C836.289 623.5 819.5 640.289 819.5 661C819.5 681.711 836.289 698.5 857 698.5ZM857 686C870.807 686 882 674.807 882 661C882 647.193 870.807 636 857 636C843.193 636 832 647.193 832 661C832 674.807 843.193 686 857 686Z" fill="black"/>
</g>
</g>
</g>
<g id="Ultralight-S">
<g id="Solid / Refuse Solid_27">
<g id="Shape_27">
<path d="M561 680.583C565.431 680.583 569.519 679.112 572.8 676.63L545.37 649.2C542.888 652.481 541.417 656.569 541.417 661C541.417 671.816 550.184 680.583 561 680.583Z" fill="black"/>
<path d="M549.2 645.37L576.63 672.8C579.112 669.519 580.583 665.431 580.583 661C580.583 650.184 571.816 641.417 561 641.417C556.569 641.417 552.481 642.888 549.2 645.37Z" fill="black"/>
<path fill-rule="evenodd" clip-rule="evenodd" d="M561 698.5C581.711 698.5 598.5 681.711 598.5 661C598.5 640.289 581.711 623.5 561 623.5C540.289 623.5 523.5 640.289 523.5 661C523.5 681.711 540.289 698.5 561 698.5ZM561 686C574.807 686 586 674.807 586 661C586 647.193 574.807 636 561 636C547.193 636 536 647.193 536 661C536 674.807 547.193 686 561 686Z" fill="black"/>
</g>
</g>
</g>
</g>
</g>
<defs>
<clipPath id="clip0_805_27002">
<rect width="3300" height="2200" fill="white"/>
</clipPath>
</defs>
</svg>
