<svg width="3300" height="2200" viewBox="0 0 3300 2200" fill="none" xmlns="http://www.w3.org/2000/svg">
<rect width="3300" height="2200" fill="#E5E5E5"/>
<g id="Security / Outline / Lock" clip-path="url(#clip0_0_1)">
<g id="Notes">
<path id="artboard" d="M3300 0H0V2200H3300V0Z" fill="white"/>
<path id="Vector" d="M263 292H3036" stroke="black" stroke-width="0.5"/>
<text id="Weight/Scale Variations" fill="black" xml:space="preserve" style="white-space: pre" font-family="Roboto" font-size="12" letter-spacing="0em"><tspan x="263" y="321.102">Weight/Scale Variations</tspan></text>
<text id="Ultralight" fill="black" xml:space="preserve" style="white-space: pre" font-family="Roboto" font-size="12" letter-spacing="0em"><tspan x="535.211" y="321.102">Ultralight</tspan></text>
<text id="Thin" fill="black" xml:space="preserve" style="white-space: pre" font-family="Roboto" font-size="12" letter-spacing="0em"><tspan x="844.422" y="321.102">Thin</tspan></text>
<text id="Light" fill="black" xml:space="preserve" style="white-space: pre" font-family="Roboto" font-size="12" letter-spacing="0em"><tspan x="1139.63" y="321.102">Light</tspan></text>
<text id="Regular" fill="black" xml:space="preserve" style="white-space: pre" font-family="Roboto" font-size="12" letter-spacing="0em"><tspan x="1429.34" y="321.102">Regular</tspan></text>
<text id="Medium" fill="black" xml:space="preserve" style="white-space: pre" font-family="Roboto" font-size="12" letter-spacing="0em"><tspan x="1724.56" y="321.102">Medium</tspan></text>
<text id="Semibold" fill="black" xml:space="preserve" style="white-space: pre" font-family="Roboto" font-size="12" letter-spacing="0em"><tspan x="2017.77" y="321.102">Semibold</tspan></text>
<text id="Bold" fill="black" xml:space="preserve" style="white-space: pre" font-family="Roboto" font-size="12" letter-spacing="0em"><tspan x="2327.48" y="321.102">Bold</tspan></text>
<text id="Heavy" fill="black" xml:space="preserve" style="white-space: pre" font-family="Roboto" font-size="12" letter-spacing="0em"><tspan x="2620.19" y="321.102">Heavy</tspan></text>
<text id="Black" fill="black" xml:space="preserve" style="white-space: pre" font-family="Roboto" font-size="12" letter-spacing="0em"><tspan x="2918.4" y="321.102">Black</tspan></text>
<path id="Vector_2" d="M263 1903H3036" stroke="black" stroke-width="0.5"/>
<g id="Group">
<path id="Vector_3" d="M272.248 1933.83C276.555 1933.83 280.139 1930.26 280.139 1925.95C280.139 1921.64 276.545 1918.07 272.238 1918.07C267.941 1918.07 264.367 1921.64 264.367 1925.95C264.367 1930.26 267.951 1933.83 272.248 1933.83ZM272.248 1932.35C268.703 1932.35 265.871 1929.5 265.871 1925.95C265.871 1922.39 268.693 1919.55 272.238 1919.55C275.793 1919.55 278.635 1922.39 278.644 1925.95C278.654 1929.5 275.803 1932.35 272.248 1932.35ZM272.229 1929.57C272.697 1929.57 272.971 1929.26 272.971 1928.74V1926.68H275.197C275.695 1926.68 276.037 1926.43 276.037 1925.96C276.037 1925.48 275.715 1925.22 275.197 1925.22H272.971V1922.99C272.971 1922.47 272.697 1922.15 272.229 1922.15C271.76 1922.15 271.506 1922.49 271.506 1922.99V1925.22H269.299C268.781 1925.22 268.449 1925.48 268.449 1925.96C268.449 1926.43 268.801 1926.68 269.299 1926.68H271.506V1928.74C271.506 1929.24 271.76 1929.57 272.229 1929.57Z" fill="black"/>
</g>
<g id="Group_2">
<path id="Vector_4" d="M293.215 1935.91C298.664 1935.91 303.176 1931.4 303.176 1925.95C303.176 1920.51 298.654 1915.99 293.205 1915.99C287.766 1915.99 283.254 1920.51 283.254 1925.95C283.254 1931.4 287.775 1935.91 293.215 1935.91ZM293.215 1934.25C288.605 1934.25 284.924 1930.56 284.924 1925.95C284.924 1921.35 288.596 1917.65 293.205 1917.65C297.814 1917.65 301.506 1921.35 301.516 1925.95C301.525 1930.56 297.824 1934.25 293.215 1934.25ZM293.195 1930.59C293.713 1930.59 294.025 1930.23 294.025 1929.66V1926.77H297.082C297.629 1926.77 298.01 1926.49 298.01 1925.97C298.01 1925.44 297.648 1925.14 297.082 1925.14H294.025V1922.07C294.025 1921.5 293.713 1921.14 293.195 1921.14C292.678 1921.14 292.385 1921.52 292.385 1922.07V1925.14H289.338C288.771 1925.14 288.4 1925.44 288.4 1925.97C288.4 1926.49 288.791 1926.77 289.338 1926.77H292.385V1929.66C292.385 1930.21 292.678 1930.59 293.195 1930.59Z" fill="black"/>
</g>
<g id="Group_3">
<path id="Vector_5" d="M319.895 1938.67C326.857 1938.67 332.619 1932.92 332.619 1925.96C332.619 1919 326.848 1913.24 319.885 1913.24C312.932 1913.24 307.18 1919 307.18 1925.96C307.18 1932.92 312.941 1938.67 319.895 1938.67ZM319.895 1936.86C313.859 1936.86 309.006 1931.99 309.006 1925.96C309.006 1919.92 313.85 1915.06 319.885 1915.06C325.93 1915.06 330.783 1919.92 330.793 1925.96C330.803 1931.99 325.939 1936.86 319.895 1936.86ZM319.875 1931.94C320.441 1931.94 320.793 1931.54 320.793 1930.94V1926.87H325.031C325.617 1926.87 326.037 1926.54 326.037 1925.98C326.037 1925.4 325.647 1925.06 325.031 1925.06H320.793V1920.81C320.793 1920.2 320.441 1919.81 319.875 1919.81C319.309 1919.81 318.986 1920.22 318.986 1920.81V1925.06H314.758C314.143 1925.06 313.732 1925.4 313.732 1925.98C313.732 1926.54 314.162 1926.87 314.758 1926.87H318.986V1930.94C318.986 1931.53 319.309 1931.94 319.875 1931.94Z" fill="black"/>
</g>
<text id="Design Variations" fill="black" xml:space="preserve" style="white-space: pre" font-family="Roboto" font-size="12" letter-spacing="0em"><tspan x="263" y="1952.1">Design Variations</tspan></text>
<text id="Symbols are supported in up to nine weights and three scales." fill="black" xml:space="preserve" style="white-space: pre" font-family="Roboto" font-size="12" letter-spacing="0em"><tspan x="263" y="1970.1">Symbols are supported in up to nine weights and three scales.</tspan></text>
<text id="For optimal layout with text and other symbols, vertically align" fill="black" xml:space="preserve" style="white-space: pre" font-family="Roboto" font-size="12" letter-spacing="0em"><tspan x="263" y="1988.1">For optimal layout with text and other symbols, vertically align</tspan></text>
<text id="symbols with the adjacent text." fill="black" xml:space="preserve" style="white-space: pre" font-family="Roboto" font-size="12" letter-spacing="0em"><tspan x="263" y="2006.1">symbols with the adjacent text.</tspan></text>
<path id="Vector_6" opacity="0.4" d="M779 1919H776V1933H779V1919Z" fill="#00AEEF"/>
<g id="Group_4">
<path id="Vector_7" d="M789.527 1933H791.373L786.178 1918.91H784.439L779.244 1933H781.09L782.506 1928.97H788.111L789.527 1933ZM785.279 1921.05H785.338L787.594 1927.47H783.023L785.279 1921.05Z" fill="black"/>
</g>
<path id="Vector_8" opacity="0.4" d="M794.617 1919H791.617V1933H794.617V1919Z" fill="#00AEEF"/>
<text id="Margins" fill="black" xml:space="preserve" style="white-space: pre" font-family="Roboto" font-size="12" letter-spacing="0em"><tspan x="776" y="1952.1">Margins</tspan></text>
<text id="Leading and trailing margins on the left and right side of each symbol" fill="black" xml:space="preserve" style="white-space: pre" font-family="Roboto" font-size="12" letter-spacing="0em"><tspan x="776" y="1970.1">Leading and trailing margins on the left and right side of each symbol</tspan></text>
<text id="can be adjusted by modifying the width of the blue rectangles." fill="black" xml:space="preserve" style="white-space: pre" font-family="Roboto" font-size="12" letter-spacing="0em"><tspan x="776" y="1988.1">can be adjusted by modifying the width of the blue rectangles.</tspan></text>
<text id="Modifications are automatically applied proportionally to all" fill="black" xml:space="preserve" style="white-space: pre" font-family="Roboto" font-size="12" letter-spacing="0em"><tspan x="776" y="2006.1">Modifications are automatically applied proportionally to all</tspan></text>
<text id="scales and weights." fill="black" xml:space="preserve" style="white-space: pre" font-family="Roboto" font-size="12" letter-spacing="0em"><tspan x="776" y="2024.1">scales and weights.</tspan></text>
<g id="Group_5">
<path id="Vector_9" d="M1291.83 1936.12L1293.37 1937.66C1294.22 1938.49 1295.19 1938.42 1296.06 1937.46L1306.27 1926.34C1306.7 1926.63 1307.1 1926.62 1307.56 1926.53L1308.61 1926.31L1309.3 1927L1309.25 1927.52C1309.19 1928.05 1309.35 1928.47 1309.85 1928.97L1310.66 1929.78C1311.17 1930.29 1311.82 1930.31 1312.3 1929.84L1315.55 1926.58C1316.03 1926.11 1316.01 1925.45 1315.5 1924.94L1314.68 1924.12C1314.19 1923.62 1313.77 1923.45 1313.24 1923.53L1312.71 1923.59L1312.06 1922.92L1312.34 1921.78C1312.49 1921.21 1312.34 1920.74 1311.71 1920.14L1309.3 1917.75C1305.76 1914.22 1301.23 1914.33 1298.11 1917.46C1297.69 1917.89 1297.64 1918.48 1297.92 1918.91C1298.15 1919.28 1298.63 1919.5 1299.27 1919.34C1300.79 1918.96 1302.3 1919.07 1303.78 1920.08L1303.16 1921.66C1302.93 1922.25 1302.94 1922.73 1303.18 1923.17L1292.02 1933.44C1291.08 1934.31 1290.97 1935.26 1291.83 1936.12ZM1299.67 1917.85C1302.34 1915.86 1305.65 1916.17 1308.05 1918.59L1310.68 1921.19C1310.91 1921.43 1310.94 1921.61 1310.88 1921.91L1310.5 1923.47L1312.08 1925.04L1313.04 1924.95C1313.33 1924.92 1313.41 1924.94 1313.64 1925.17L1314.26 1925.79L1311.51 1928.54L1310.88 1927.92C1310.66 1927.7 1310.64 1927.6 1310.67 1927.32L1310.76 1926.36L1309.19 1924.8L1307.57 1925.11C1307.29 1925.17 1307.14 1925.17 1306.91 1924.92L1304.73 1922.75C1304.51 1922.51 1304.48 1922.37 1304.61 1922.05L1305.55 1919.78C1303.95 1918.24 1301.84 1917.39 1299.8 1918.05C1299.71 1918.08 1299.64 1918.06 1299.61 1918.02C1299.59 1917.97 1299.59 1917.92 1299.67 1917.85ZM1293.1 1935.41C1292.61 1934.91 1292.79 1934.61 1293.12 1934.31L1304.08 1924.19L1305.31 1925.42L1295.15 1936.35C1294.85 1936.68 1294.47 1936.78 1294.07 1936.38L1293.1 1935.41Z" fill="black"/>
</g>
<text id="Exporting" fill="black" xml:space="preserve" style="white-space: pre" font-family="Roboto" font-size="12" letter-spacing="0em"><tspan x="1289" y="1952.1">Exporting</tspan></text>
<text id="Symbols should be outlined when exporting to ensure the" fill="black" xml:space="preserve" style="white-space: pre" font-family="Roboto" font-size="12" letter-spacing="0em"><tspan x="1289" y="1970.1">Symbols should be outlined when exporting to ensure the</tspan></text>
<text id="design is preserved when submitting to Xcode." fill="black" xml:space="preserve" style="white-space: pre" font-family="Roboto" font-size="12" letter-spacing="0em"><tspan x="1289" y="1988.1">design is preserved when submitting to Xcode.</tspan></text>
<text id="template-version" fill="black" xml:space="preserve" style="white-space: pre" font-family="Roboto" font-size="12" letter-spacing="0em"><tspan x="2958" y="1932.1">Template v.1.0</tspan></text>
<text id="Generated from pencil.circle" fill="black" xml:space="preserve" style="white-space: pre" font-family="Roboto" font-size="12" letter-spacing="0em"><tspan x="2885" y="1950.1">Generated from pencil.circle</tspan></text>
<text id="Typeset at 100 points" fill="black" xml:space="preserve" style="white-space: pre" font-family="Roboto" font-size="12" letter-spacing="0em"><tspan x="2921" y="1968.1">Typeset at 100 points</tspan></text>
<text id="Small" fill="black" xml:space="preserve" style="white-space: pre" font-family="Roboto" font-size="12" letter-spacing="0em"><tspan x="263" y="725.102">Small</tspan></text>
<text id="Medium_2" fill="black" xml:space="preserve" style="white-space: pre" font-family="Roboto" font-size="12" letter-spacing="0em"><tspan x="263" y="1155.1">Medium</tspan></text>
<text id="Large" fill="black" xml:space="preserve" style="white-space: pre" font-family="Roboto" font-size="12" letter-spacing="0em"><tspan x="263" y="1585.1">Large</tspan></text>
</g>
<g id="Guides">
<g id="H-reference">
<path id="Vector_10" d="M393.932 696H396.666L369.566 625.541H367.076L339.977 696H342.662L351.94 671.537H384.703L393.932 696ZM368.199 628.91H368.443L383.824 669.291H352.818L368.199 628.91Z" fill="#27AAE1"/>
</g>
<path id="Baseline-S" d="M263 696H3036" stroke="#27AAE1" stroke-width="0.577"/>
<path id="Capline-S" d="M263 626H3036" stroke="#27AAE1" stroke-width="0.577"/>
<g id="H-reference_2">
<path id="Vector_11" d="M393.932 1126H396.666L369.566 1055.54H367.076L339.977 1126H342.662L351.94 1101.54H384.703L393.932 1126ZM368.199 1058.91H368.443L383.824 1099.29H352.818L368.199 1058.91Z" fill="#27AAE1"/>
</g>
<path id="Baseline-M" d="M263 1126H3036" stroke="#27AAE1" stroke-width="0.577"/>
<path id="Capline-M" d="M263 1056H3036" stroke="#27AAE1" stroke-width="0.577"/>
<g id="H-reference_3">
<path id="Vector_12" d="M393.932 1556H396.666L369.566 1485.54H367.076L339.977 1556H342.662L351.94 1531.54H384.703L393.932 1556ZM368.199 1488.91H368.443L383.824 1529.29H352.818L368.199 1488.91Z" fill="#27AAE1"/>
</g>
<g id="Group 1">
<path id="Baseline-L" d="M263 1556H3036" stroke="#27AAE1" stroke-width="0.577"/>
<path id="Capline-L" d="M263 1486H3036" stroke="#27AAE1" stroke-width="0.577"/>
</g>
<path id="left-margin" opacity="0.4" d="M1408.04 1030.79H1399.3V1150.13H1408.04V1030.79Z" fill="#00AEEF"/>
<path id="right-margin" opacity="0.4" d="M1499.39 1030.79H1490.65V1150.13H1499.39V1030.79Z" fill="#00AEEF"/>
</g>
<g id="Symbols">
<g id="Black-L">
<g id="Outline / Lock Outline">
<g id="Shape">
<path d="M2933.87 1533.32C2933.87 1530.62 2931.69 1528.44 2929 1528.44C2926.31 1528.44 2924.12 1530.62 2924.12 1533.32V1546.19C2924.12 1548.88 2926.31 1551.06 2929 1551.06C2931.69 1551.06 2933.87 1548.88 2933.87 1546.19V1533.32Z" fill="black"/>
<path fill-rule="evenodd" clip-rule="evenodd" d="M2899.12 1484.13L2899.12 1498.5H2899C2886.57 1498.5 2876.5 1508.58 2876.5 1521V1558.5C2876.5 1570.93 2886.57 1581 2899 1581H2959C2971.43 1581 2981.5 1570.93 2981.5 1558.5V1521C2981.5 1508.58 2971.43 1498.5 2959 1498.5H2958.7L2958.7 1484.13C2958.7 1467.68 2945.36 1454.34 2928.91 1454.34C2912.46 1454.34 2899.12 1467.68 2899.12 1484.13ZM2928.91 1464.32C2917.96 1464.32 2909.09 1473.19 2909.09 1484.13L2909.09 1498.5H2948.73L2948.73 1484.13C2948.73 1473.19 2939.85 1464.32 2928.91 1464.32ZM2959 1508.25H2899C2891.96 1508.25 2886.25 1513.96 2886.25 1521V1558.5C2886.25 1565.54 2891.96 1571.25 2899 1571.25H2959C2966.04 1571.25 2971.75 1565.54 2971.75 1558.5V1521C2971.75 1513.96 2966.04 1508.25 2959 1508.25Z" fill="black"/>
</g>
</g>
</g>
<g id="Heavy-L">
<g id="Outline / Lock Outline_2">
<g id="Shape_2">
<path d="M2637.87 1533.32C2637.87 1530.62 2635.69 1528.44 2633 1528.44C2630.31 1528.44 2628.12 1530.62 2628.12 1533.32V1546.19C2628.12 1548.88 2630.31 1551.06 2633 1551.06C2635.69 1551.06 2637.87 1548.88 2637.87 1546.19V1533.32Z" fill="black"/>
<path fill-rule="evenodd" clip-rule="evenodd" d="M2603.12 1484.13L2603.12 1498.5H2603C2590.57 1498.5 2580.5 1508.58 2580.5 1521V1558.5C2580.5 1570.93 2590.57 1581 2603 1581H2663C2675.43 1581 2685.5 1570.93 2685.5 1558.5V1521C2685.5 1508.58 2675.43 1498.5 2663 1498.5H2662.7L2662.7 1484.13C2662.7 1467.68 2649.36 1454.34 2632.91 1454.34C2616.46 1454.34 2603.12 1467.68 2603.12 1484.13ZM2632.91 1464.32C2621.96 1464.32 2613.09 1473.19 2613.09 1484.13L2613.09 1498.5H2652.73L2652.73 1484.13C2652.73 1473.19 2643.85 1464.32 2632.91 1464.32ZM2663 1508.25H2603C2595.96 1508.25 2590.25 1513.96 2590.25 1521V1558.5C2590.25 1565.54 2595.96 1571.25 2603 1571.25H2663C2670.04 1571.25 2675.75 1565.54 2675.75 1558.5V1521C2675.75 1513.96 2670.04 1508.25 2663 1508.25Z" fill="black"/>
</g>
</g>
</g>
<g id="Bold-L">
<g id="Outline / Lock Outline_3">
<g id="Shape_3">
<path d="M2341.87 1533.32C2341.87 1530.62 2339.69 1528.44 2337 1528.44C2334.31 1528.44 2332.12 1530.62 2332.12 1533.32V1546.19C2332.12 1548.88 2334.31 1551.06 2337 1551.06C2339.69 1551.06 2341.87 1548.88 2341.87 1546.19V1533.32Z" fill="black"/>
<path fill-rule="evenodd" clip-rule="evenodd" d="M2307.12 1484.13L2307.12 1498.5H2307C2294.57 1498.5 2284.5 1508.58 2284.5 1521V1558.5C2284.5 1570.93 2294.57 1581 2307 1581H2367C2379.43 1581 2389.5 1570.93 2389.5 1558.5V1521C2389.5 1508.58 2379.43 1498.5 2367 1498.5H2366.7L2366.7 1484.13C2366.7 1467.68 2353.36 1454.34 2336.91 1454.34C2320.46 1454.34 2307.12 1467.68 2307.12 1484.13ZM2336.91 1464.32C2325.96 1464.32 2317.09 1473.19 2317.09 1484.13L2317.09 1498.5H2356.73L2356.73 1484.13C2356.73 1473.19 2347.85 1464.32 2336.91 1464.32ZM2367 1508.25H2307C2299.96 1508.25 2294.25 1513.96 2294.25 1521V1558.5C2294.25 1565.54 2299.96 1571.25 2307 1571.25H2367C2374.04 1571.25 2379.75 1565.54 2379.75 1558.5V1521C2379.75 1513.96 2374.04 1508.25 2367 1508.25Z" fill="black"/>
</g>
</g>
</g>
<g id="Semibold-L">
<g id="Outline / Lock Outline_4">
<g id="Shape_4">
<path d="M2045.87 1533.32C2045.87 1530.62 2043.69 1528.44 2041 1528.44C2038.31 1528.44 2036.12 1530.62 2036.12 1533.32V1546.19C2036.12 1548.88 2038.31 1551.06 2041 1551.06C2043.69 1551.06 2045.87 1548.88 2045.87 1546.19V1533.32Z" fill="black"/>
<path fill-rule="evenodd" clip-rule="evenodd" d="M2011.12 1484.13L2011.12 1498.5H2011C1998.57 1498.5 1988.5 1508.58 1988.5 1521V1558.5C1988.5 1570.93 1998.57 1581 2011 1581H2071C2083.43 1581 2093.5 1570.93 2093.5 1558.5V1521C2093.5 1508.58 2083.43 1498.5 2071 1498.5H2070.7L2070.7 1484.13C2070.7 1467.68 2057.36 1454.34 2040.91 1454.34C2024.46 1454.34 2011.12 1467.68 2011.12 1484.13ZM2040.91 1464.32C2029.96 1464.32 2021.09 1473.19 2021.09 1484.13L2021.09 1498.5H2060.73L2060.73 1484.13C2060.73 1473.19 2051.85 1464.32 2040.91 1464.32ZM2071 1508.25H2011C2003.96 1508.25 1998.25 1513.96 1998.25 1521V1558.5C1998.25 1565.54 2003.96 1571.25 2011 1571.25H2071C2078.04 1571.25 2083.75 1565.54 2083.75 1558.5V1521C2083.75 1513.96 2078.04 1508.25 2071 1508.25Z" fill="black"/>
</g>
</g>
</g>
<g id="Medium-L">
<g id="Outline / Lock Outline_5">
<g id="Shape_5">
<path d="M1749.87 1533.32C1749.87 1530.62 1747.69 1528.44 1745 1528.44C1742.31 1528.44 1740.12 1530.62 1740.12 1533.32V1546.19C1740.12 1548.88 1742.31 1551.06 1745 1551.06C1747.69 1551.06 1749.87 1548.88 1749.87 1546.19V1533.32Z" fill="black"/>
<path fill-rule="evenodd" clip-rule="evenodd" d="M1715.12 1484.13L1715.12 1498.5H1715C1702.57 1498.5 1692.5 1508.58 1692.5 1521V1558.5C1692.5 1570.93 1702.57 1581 1715 1581H1775C1787.43 1581 1797.5 1570.93 1797.5 1558.5V1521C1797.5 1508.58 1787.43 1498.5 1775 1498.5H1774.7L1774.7 1484.13C1774.7 1467.68 1761.36 1454.34 1744.91 1454.34C1728.46 1454.34 1715.12 1467.68 1715.12 1484.13ZM1744.91 1464.32C1733.96 1464.32 1725.09 1473.19 1725.09 1484.13L1725.09 1498.5H1764.73L1764.73 1484.13C1764.73 1473.19 1755.85 1464.32 1744.91 1464.32ZM1775 1508.25H1715C1707.96 1508.25 1702.25 1513.96 1702.25 1521V1558.5C1702.25 1565.54 1707.96 1571.25 1715 1571.25H1775C1782.04 1571.25 1787.75 1565.54 1787.75 1558.5V1521C1787.75 1513.96 1782.04 1508.25 1775 1508.25Z" fill="black"/>
</g>
</g>
</g>
<g id="Regular-L">
<g id="Outline / Lock Outline_6">
<g id="Shape_6">
<path d="M1453.87 1533.32C1453.87 1530.62 1451.69 1528.44 1449 1528.44C1446.31 1528.44 1444.12 1530.62 1444.12 1533.32V1546.19C1444.12 1548.88 1446.31 1551.06 1449 1551.06C1451.69 1551.06 1453.87 1548.88 1453.87 1546.19V1533.32Z" fill="black"/>
<path fill-rule="evenodd" clip-rule="evenodd" d="M1419.12 1484.13L1419.12 1498.5H1419C1406.57 1498.5 1396.5 1508.58 1396.5 1521V1558.5C1396.5 1570.93 1406.57 1581 1419 1581H1479C1491.43 1581 1501.5 1570.93 1501.5 1558.5V1521C1501.5 1508.58 1491.43 1498.5 1479 1498.5H1478.7L1478.7 1484.13C1478.7 1467.68 1465.36 1454.34 1448.91 1454.34C1432.46 1454.34 1419.12 1467.68 1419.12 1484.13ZM1448.91 1464.32C1437.96 1464.32 1429.09 1473.19 1429.09 1484.13L1429.09 1498.5H1468.73L1468.73 1484.13C1468.73 1473.19 1459.85 1464.32 1448.91 1464.32ZM1479 1508.25H1419C1411.96 1508.25 1406.25 1513.96 1406.25 1521V1558.5C1406.25 1565.54 1411.96 1571.25 1419 1571.25H1479C1486.04 1571.25 1491.75 1565.54 1491.75 1558.5V1521C1491.75 1513.96 1486.04 1508.25 1479 1508.25Z" fill="black"/>
</g>
</g>
</g>
<g id="Light-L">
<g id="Outline / Lock Outline_7">
<g id="Shape_7">
<path d="M1157.87 1533.32C1157.87 1530.62 1155.69 1528.44 1153 1528.44C1150.31 1528.44 1148.12 1530.62 1148.12 1533.32V1546.19C1148.12 1548.88 1150.31 1551.06 1153 1551.06C1155.69 1551.06 1157.87 1548.88 1157.87 1546.19V1533.32Z" fill="black"/>
<path fill-rule="evenodd" clip-rule="evenodd" d="M1123.12 1484.13L1123.12 1498.5H1123C1110.57 1498.5 1100.5 1508.58 1100.5 1521V1558.5C1100.5 1570.93 1110.57 1581 1123 1581H1183C1195.43 1581 1205.5 1570.93 1205.5 1558.5V1521C1205.5 1508.58 1195.43 1498.5 1183 1498.5H1182.7L1182.7 1484.13C1182.7 1467.68 1169.36 1454.34 1152.91 1454.34C1136.46 1454.34 1123.12 1467.68 1123.12 1484.13ZM1152.91 1464.32C1141.96 1464.32 1133.09 1473.19 1133.09 1484.13L1133.09 1498.5H1172.73L1172.73 1484.13C1172.73 1473.19 1163.85 1464.32 1152.91 1464.32ZM1183 1508.25H1123C1115.96 1508.25 1110.25 1513.96 1110.25 1521V1558.5C1110.25 1565.54 1115.96 1571.25 1123 1571.25H1183C1190.04 1571.25 1195.75 1565.54 1195.75 1558.5V1521C1195.75 1513.96 1190.04 1508.25 1183 1508.25Z" fill="black"/>
</g>
</g>
</g>
<g id="Thin-L">
<g id="Outline / Lock Outline_8">
<g id="Shape_8">
<path d="M861.875 1533.32C861.875 1530.62 859.692 1528.44 857 1528.44C854.308 1528.44 852.125 1530.62 852.125 1533.32V1546.19C852.125 1548.88 854.308 1551.06 857 1551.06C859.692 1551.06 861.875 1548.88 861.875 1546.19V1533.32Z" fill="black"/>
<path fill-rule="evenodd" clip-rule="evenodd" d="M827.117 1484.13L827.117 1498.5H827C814.574 1498.5 804.5 1508.58 804.5 1521V1558.5C804.5 1570.93 814.574 1581 827 1581H887C899.426 1581 909.5 1570.93 909.5 1558.5V1521C909.5 1508.58 899.426 1498.5 887 1498.5H886.701L886.701 1484.13C886.701 1467.68 873.363 1454.34 856.909 1454.34C840.455 1454.34 827.117 1467.68 827.117 1484.13ZM856.909 1464.32C845.964 1464.32 837.092 1473.19 837.092 1484.13L837.092 1498.5H876.726L876.726 1484.13C876.726 1473.19 867.854 1464.32 856.909 1464.32ZM887 1508.25H827C819.958 1508.25 814.25 1513.96 814.25 1521V1558.5C814.25 1565.54 819.958 1571.25 827 1571.25H887C894.042 1571.25 899.75 1565.54 899.75 1558.5V1521C899.75 1513.96 894.042 1508.25 887 1508.25Z" fill="black"/>
</g>
</g>
</g>
<g id="Ultralight-L">
<g id="Outline / Lock Outline_9">
<g id="Shape_9">
<path d="M565.875 1533.32C565.875 1530.62 563.692 1528.44 561 1528.44C558.308 1528.44 556.125 1530.62 556.125 1533.32V1546.19C556.125 1548.88 558.308 1551.06 561 1551.06C563.692 1551.06 565.875 1548.88 565.875 1546.19V1533.32Z" fill="black"/>
<path fill-rule="evenodd" clip-rule="evenodd" d="M531.117 1484.13L531.117 1498.5H531C518.574 1498.5 508.5 1508.58 508.5 1521V1558.5C508.5 1570.93 518.574 1581 531 1581H591C603.426 1581 613.5 1570.93 613.5 1558.5V1521C613.5 1508.58 603.426 1498.5 591 1498.5H590.701L590.701 1484.13C590.701 1467.68 577.363 1454.34 560.909 1454.34C544.455 1454.34 531.117 1467.68 531.117 1484.13ZM560.909 1464.32C549.964 1464.32 541.092 1473.19 541.092 1484.13L541.092 1498.5H580.726L580.726 1484.13C580.726 1473.19 571.854 1464.32 560.909 1464.32ZM591 1508.25H531C523.958 1508.25 518.25 1513.96 518.25 1521V1558.5C518.25 1565.54 523.958 1571.25 531 1571.25H591C598.042 1571.25 603.75 1565.54 603.75 1558.5V1521C603.75 1513.96 598.042 1508.25 591 1508.25Z" fill="black"/>
</g>
</g>
</g>
<g id="Black-M">
<g id="Outline / Lock Outline_10">
<g id="Shape_10">
<path d="M2932.79 1100.58C2932.79 1098.48 2931.09 1096.79 2929 1096.79C2926.91 1096.79 2925.21 1098.48 2925.21 1100.58V1110.59C2925.21 1112.69 2926.91 1114.38 2929 1114.38C2931.09 1114.38 2932.79 1112.69 2932.79 1110.59V1100.58Z" fill="black"/>
<path fill-rule="evenodd" clip-rule="evenodd" d="M2905.76 1062.33L2905.76 1073.5H2905.67C2896 1073.5 2888.17 1081.34 2888.17 1091V1120.17C2888.17 1129.83 2896 1137.67 2905.67 1137.67H2952.33C2962 1137.67 2969.83 1129.83 2969.83 1120.17V1091C2969.83 1081.34 2962 1073.5 2952.33 1073.5H2952.1L2952.1 1062.33C2952.1 1049.53 2941.73 1039.16 2928.93 1039.16C2916.13 1039.16 2905.76 1049.53 2905.76 1062.33ZM2928.93 1046.91C2920.42 1046.91 2913.52 1053.81 2913.52 1062.33L2913.52 1073.5H2944.34L2944.34 1062.33C2944.34 1053.81 2937.44 1046.91 2928.93 1046.91ZM2952.33 1081.09H2905.67C2900.19 1081.09 2895.75 1085.53 2895.75 1091V1120.17C2895.75 1125.65 2900.19 1130.09 2905.67 1130.09H2952.33C2957.81 1130.09 2962.25 1125.65 2962.25 1120.17V1091C2962.25 1085.53 2957.81 1081.09 2952.33 1081.09Z" fill="black"/>
</g>
</g>
</g>
<g id="Heavy-M">
<g id="Outline / Lock Outline_11">
<g id="Shape_11">
<path d="M2636.79 1100.58C2636.79 1098.48 2635.09 1096.79 2633 1096.79C2630.91 1096.79 2629.21 1098.48 2629.21 1100.58V1110.59C2629.21 1112.69 2630.91 1114.38 2633 1114.38C2635.09 1114.38 2636.79 1112.69 2636.79 1110.59V1100.58Z" fill="black"/>
<path fill-rule="evenodd" clip-rule="evenodd" d="M2609.76 1062.33L2609.76 1073.5H2609.67C2600 1073.5 2592.17 1081.34 2592.17 1091V1120.17C2592.17 1129.83 2600 1137.67 2609.67 1137.67H2656.33C2666 1137.67 2673.83 1129.83 2673.83 1120.17V1091C2673.83 1081.34 2666 1073.5 2656.33 1073.5H2656.1L2656.1 1062.33C2656.1 1049.53 2645.73 1039.16 2632.93 1039.16C2620.13 1039.16 2609.76 1049.53 2609.76 1062.33ZM2632.93 1046.91C2624.42 1046.91 2617.52 1053.81 2617.52 1062.33L2617.52 1073.5H2648.34L2648.34 1062.33C2648.34 1053.81 2641.44 1046.91 2632.93 1046.91ZM2656.33 1081.09H2609.67C2604.19 1081.09 2599.75 1085.53 2599.75 1091V1120.17C2599.75 1125.65 2604.19 1130.09 2609.67 1130.09H2656.33C2661.81 1130.09 2666.25 1125.65 2666.25 1120.17V1091C2666.25 1085.53 2661.81 1081.09 2656.33 1081.09Z" fill="black"/>
</g>
</g>
</g>
<g id="Bold-M">
<g id="Outline / Lock Outline_12">
<g id="Shape_12">
<path d="M2340.79 1100.58C2340.79 1098.48 2339.09 1096.79 2337 1096.79C2334.91 1096.79 2333.21 1098.48 2333.21 1100.58V1110.59C2333.21 1112.69 2334.91 1114.38 2337 1114.38C2339.09 1114.38 2340.79 1112.69 2340.79 1110.59V1100.58Z" fill="black"/>
<path fill-rule="evenodd" clip-rule="evenodd" d="M2313.76 1062.33L2313.76 1073.5H2313.67C2304 1073.5 2296.17 1081.34 2296.17 1091V1120.17C2296.17 1129.83 2304 1137.67 2313.67 1137.67H2360.33C2370 1137.67 2377.83 1129.83 2377.83 1120.17V1091C2377.83 1081.34 2370 1073.5 2360.33 1073.5H2360.1L2360.1 1062.33C2360.1 1049.53 2349.73 1039.16 2336.93 1039.16C2324.13 1039.16 2313.76 1049.53 2313.76 1062.33ZM2336.93 1046.91C2328.42 1046.91 2321.52 1053.81 2321.52 1062.33L2321.52 1073.5H2352.34L2352.34 1062.33C2352.34 1053.81 2345.44 1046.91 2336.93 1046.91ZM2360.33 1081.09H2313.67C2308.19 1081.09 2303.75 1085.53 2303.75 1091V1120.17C2303.75 1125.65 2308.19 1130.09 2313.67 1130.09H2360.33C2365.81 1130.09 2370.25 1125.65 2370.25 1120.17V1091C2370.25 1085.53 2365.81 1081.09 2360.33 1081.09Z" fill="black"/>
</g>
</g>
</g>
<g id="Semibold-M">
<g id="Outline / Lock Outline_13">
<g id="Shape_13">
<path d="M2044.79 1100.58C2044.79 1098.48 2043.09 1096.79 2041 1096.79C2038.91 1096.79 2037.21 1098.48 2037.21 1100.58V1110.59C2037.21 1112.69 2038.91 1114.38 2041 1114.38C2043.09 1114.38 2044.79 1112.69 2044.79 1110.59V1100.58Z" fill="black"/>
<path fill-rule="evenodd" clip-rule="evenodd" d="M2017.76 1062.33L2017.76 1073.5H2017.67C2008 1073.5 2000.17 1081.34 2000.17 1091V1120.17C2000.17 1129.83 2008 1137.67 2017.67 1137.67H2064.33C2074 1137.67 2081.83 1129.83 2081.83 1120.17V1091C2081.83 1081.34 2074 1073.5 2064.33 1073.5H2064.1L2064.1 1062.33C2064.1 1049.53 2053.73 1039.16 2040.93 1039.16C2028.13 1039.16 2017.76 1049.53 2017.76 1062.33ZM2040.93 1046.91C2032.42 1046.91 2025.52 1053.81 2025.52 1062.33L2025.52 1073.5H2056.34L2056.34 1062.33C2056.34 1053.81 2049.44 1046.91 2040.93 1046.91ZM2064.33 1081.09H2017.67C2012.19 1081.09 2007.75 1085.53 2007.75 1091V1120.17C2007.75 1125.65 2012.19 1130.09 2017.67 1130.09H2064.33C2069.81 1130.09 2074.25 1125.65 2074.25 1120.17V1091C2074.25 1085.53 2069.81 1081.09 2064.33 1081.09Z" fill="black"/>
</g>
</g>
</g>
<g id="Medium-M">
<g id="Outline / Lock Outline_14">
<g id="Shape_14">
<path d="M1748.79 1100.58C1748.79 1098.48 1747.09 1096.79 1745 1096.79C1742.91 1096.79 1741.21 1098.48 1741.21 1100.58V1110.59C1741.21 1112.69 1742.91 1114.38 1745 1114.38C1747.09 1114.38 1748.79 1112.69 1748.79 1110.59V1100.58Z" fill="black"/>
<path fill-rule="evenodd" clip-rule="evenodd" d="M1721.76 1062.33L1721.76 1073.5H1721.67C1712 1073.5 1704.17 1081.34 1704.17 1091V1120.17C1704.17 1129.83 1712 1137.67 1721.67 1137.67H1768.33C1778 1137.67 1785.83 1129.83 1785.83 1120.17V1091C1785.83 1081.34 1778 1073.5 1768.33 1073.5H1768.1L1768.1 1062.33C1768.1 1049.53 1757.73 1039.16 1744.93 1039.16C1732.13 1039.16 1721.76 1049.53 1721.76 1062.33ZM1744.93 1046.91C1736.42 1046.91 1729.52 1053.81 1729.52 1062.33L1729.52 1073.5H1760.34L1760.34 1062.33C1760.34 1053.81 1753.44 1046.91 1744.93 1046.91ZM1768.33 1081.09H1721.67C1716.19 1081.09 1711.75 1085.53 1711.75 1091V1120.17C1711.75 1125.65 1716.19 1130.09 1721.67 1130.09H1768.33C1773.81 1130.09 1778.25 1125.65 1778.25 1120.17V1091C1778.25 1085.53 1773.81 1081.09 1768.33 1081.09Z" fill="black"/>
</g>
</g>
</g>
<g id="Regular-M">
<g id="Outline / Lock Outline_15">
<g id="Shape_15">
<path d="M1452.79 1100.58C1452.79 1098.48 1451.09 1096.79 1449 1096.79C1446.91 1096.79 1445.21 1098.48 1445.21 1100.58V1110.59C1445.21 1112.69 1446.91 1114.38 1449 1114.38C1451.09 1114.38 1452.79 1112.69 1452.79 1110.59V1100.58Z" fill="black"/>
<path fill-rule="evenodd" clip-rule="evenodd" d="M1425.76 1062.33L1425.76 1073.5H1425.67C1416 1073.5 1408.17 1081.34 1408.17 1091V1120.17C1408.17 1129.83 1416 1137.67 1425.67 1137.67H1472.33C1482 1137.67 1489.83 1129.83 1489.83 1120.17V1091C1489.83 1081.34 1482 1073.5 1472.33 1073.5H1472.1L1472.1 1062.33C1472.1 1049.53 1461.73 1039.16 1448.93 1039.16C1436.13 1039.16 1425.76 1049.53 1425.76 1062.33ZM1448.93 1046.91C1440.42 1046.91 1433.52 1053.81 1433.52 1062.33L1433.52 1073.5H1464.34L1464.34 1062.33C1464.34 1053.81 1457.44 1046.91 1448.93 1046.91ZM1472.33 1081.09H1425.67C1420.19 1081.09 1415.75 1085.53 1415.75 1091V1120.17C1415.75 1125.65 1420.19 1130.09 1425.67 1130.09H1472.33C1477.81 1130.09 1482.25 1125.65 1482.25 1120.17V1091C1482.25 1085.53 1477.81 1081.09 1472.33 1081.09Z" fill="black"/>
</g>
</g>
</g>
<g id="Light-M">
<g id="Outline / Lock Outline_16">
<g id="Shape_16">
<path d="M1156.79 1100.58C1156.79 1098.48 1155.09 1096.79 1153 1096.79C1150.91 1096.79 1149.21 1098.48 1149.21 1100.58V1110.59C1149.21 1112.69 1150.91 1114.38 1153 1114.38C1155.09 1114.38 1156.79 1112.69 1156.79 1110.59V1100.58Z" fill="black"/>
<path fill-rule="evenodd" clip-rule="evenodd" d="M1129.76 1062.33L1129.76 1073.5H1129.67C1120 1073.5 1112.17 1081.34 1112.17 1091V1120.17C1112.17 1129.83 1120 1137.67 1129.67 1137.67H1176.33C1186 1137.67 1193.83 1129.83 1193.83 1120.17V1091C1193.83 1081.34 1186 1073.5 1176.33 1073.5H1176.1L1176.1 1062.33C1176.1 1049.53 1165.73 1039.16 1152.93 1039.16C1140.13 1039.16 1129.76 1049.53 1129.76 1062.33ZM1152.93 1046.91C1144.42 1046.91 1137.52 1053.81 1137.52 1062.33L1137.52 1073.5H1168.34L1168.34 1062.33C1168.34 1053.81 1161.44 1046.91 1152.93 1046.91ZM1176.33 1081.09H1129.67C1124.19 1081.09 1119.75 1085.53 1119.75 1091V1120.17C1119.75 1125.65 1124.19 1130.09 1129.67 1130.09H1176.33C1181.81 1130.09 1186.25 1125.65 1186.25 1120.17V1091C1186.25 1085.53 1181.81 1081.09 1176.33 1081.09Z" fill="black"/>
</g>
</g>
</g>
<g id="Thin-M">
<g id="Outline / Lock Outline_17">
<g id="Shape_17">
<path d="M860.791 1100.58C860.791 1098.48 859.093 1096.79 856.999 1096.79C854.905 1096.79 853.208 1098.48 853.208 1100.58V1110.59C853.208 1112.69 854.905 1114.38 856.999 1114.38C859.093 1114.38 860.791 1112.69 860.791 1110.59V1100.58Z" fill="black"/>
<path fill-rule="evenodd" clip-rule="evenodd" d="M833.757 1062.33L833.757 1073.5H833.666C824.001 1073.5 816.166 1081.34 816.166 1091V1120.17C816.166 1129.83 824.001 1137.67 833.666 1137.67H880.333C889.998 1137.67 897.833 1129.83 897.833 1120.17V1091C897.833 1081.34 889.998 1073.5 880.333 1073.5H880.1L880.1 1062.33C880.1 1049.53 869.726 1039.16 856.929 1039.16C844.131 1039.16 833.757 1049.53 833.757 1062.33ZM856.929 1046.91C848.416 1046.91 841.515 1053.81 841.515 1062.33L841.515 1073.5H872.342L872.342 1062.33C872.342 1053.81 865.441 1046.91 856.929 1046.91ZM880.333 1081.09H833.666C828.189 1081.09 823.749 1085.53 823.749 1091V1120.17C823.749 1125.65 828.189 1130.09 833.666 1130.09H880.333C885.81 1130.09 890.249 1125.65 890.249 1120.17V1091C890.249 1085.53 885.81 1081.09 880.333 1081.09Z" fill="black"/>
</g>
</g>
</g>
<g id="Ultralight-M">
<g id="Outline / Lock Outline_18">
<g id="Shape_18">
<path d="M564.791 1100.58C564.791 1098.48 563.093 1096.79 560.999 1096.79C558.905 1096.79 557.208 1098.48 557.208 1100.58V1110.59C557.208 1112.69 558.905 1114.38 560.999 1114.38C563.093 1114.38 564.791 1112.69 564.791 1110.59V1100.58Z" fill="black"/>
<path fill-rule="evenodd" clip-rule="evenodd" d="M537.757 1062.33L537.757 1073.5H537.666C528.001 1073.5 520.166 1081.34 520.166 1091V1120.17C520.166 1129.83 528.001 1137.67 537.666 1137.67H584.333C593.998 1137.67 601.833 1129.83 601.833 1120.17V1091C601.833 1081.34 593.998 1073.5 584.333 1073.5H584.1L584.1 1062.33C584.1 1049.53 573.726 1039.16 560.929 1039.16C548.131 1039.16 537.757 1049.53 537.757 1062.33ZM560.929 1046.91C552.416 1046.91 545.515 1053.81 545.515 1062.33L545.515 1073.5H576.342L576.342 1062.33C576.342 1053.81 569.441 1046.91 560.929 1046.91ZM584.333 1081.09H537.666C532.189 1081.09 527.749 1085.53 527.749 1091V1120.17C527.749 1125.65 532.189 1130.09 537.666 1130.09H584.333C589.81 1130.09 594.249 1125.65 594.249 1120.17V1091C594.249 1085.53 589.81 1081.09 584.333 1081.09Z" fill="black"/>
</g>
</g>
</g>
<g id="Black-S">
<g id="Outline / Lock Outline_19">
<g id="Shape_19">
<path d="M2931.71 667.842C2931.71 666.346 2930.5 665.133 2929 665.133C2927.5 665.133 2926.29 666.346 2926.29 667.842V674.994C2926.29 676.49 2927.5 677.702 2929 677.702C2930.5 677.702 2931.71 676.49 2931.71 674.994V667.842Z" fill="black"/>
<path fill-rule="evenodd" clip-rule="evenodd" d="M2912.4 640.519L2912.4 648.501H2912.33C2905.43 648.501 2899.83 654.098 2899.83 661.001V681.835C2899.83 688.738 2905.43 694.335 2912.33 694.335H2945.67C2952.57 694.335 2958.17 688.738 2958.17 681.835V661.001C2958.17 654.098 2952.57 648.501 2945.67 648.501H2945.5L2945.5 640.519C2945.5 631.378 2938.09 623.968 2928.95 623.968C2919.81 623.968 2912.4 631.378 2912.4 640.519ZM2928.95 629.509C2922.87 629.509 2917.94 634.439 2917.94 640.519L2917.94 648.501H2939.96L2939.96 640.519C2939.96 634.439 2935.03 629.509 2928.95 629.509ZM2945.67 653.918H2912.33C2908.42 653.918 2905.25 657.089 2905.25 661.001V681.835C2905.25 685.747 2908.42 688.918 2912.33 688.918H2945.67C2949.58 688.918 2952.75 685.747 2952.75 681.835V661.001C2952.75 657.089 2949.58 653.918 2945.67 653.918Z" fill="black"/>
</g>
</g>
</g>
<g id="Heavy-S">
<g id="Outline / Lock Outline_20">
<g id="Shape_20">
<path d="M2635.71 667.842C2635.71 666.346 2634.5 665.133 2633 665.133C2631.5 665.133 2630.29 666.346 2630.29 667.842V674.994C2630.29 676.49 2631.5 677.702 2633 677.702C2634.5 677.702 2635.71 676.49 2635.71 674.994V667.842Z" fill="black"/>
<path fill-rule="evenodd" clip-rule="evenodd" d="M2616.4 640.519L2616.4 648.501H2616.33C2609.43 648.501 2603.83 654.098 2603.83 661.001V681.835C2603.83 688.738 2609.43 694.335 2616.33 694.335H2649.67C2656.57 694.335 2662.17 688.738 2662.17 681.835V661.001C2662.17 654.098 2656.57 648.501 2649.67 648.501H2649.5L2649.5 640.519C2649.5 631.378 2642.09 623.968 2632.95 623.968C2623.81 623.968 2616.4 631.378 2616.4 640.519ZM2632.95 629.509C2626.87 629.509 2621.94 634.439 2621.94 640.519L2621.94 648.501H2643.96L2643.96 640.519C2643.96 634.439 2639.03 629.509 2632.95 629.509ZM2649.67 653.918H2616.33C2612.42 653.918 2609.25 657.089 2609.25 661.001V681.835C2609.25 685.747 2612.42 688.918 2616.33 688.918H2649.67C2653.58 688.918 2656.75 685.747 2656.75 681.835V661.001C2656.75 657.089 2653.58 653.918 2649.67 653.918Z" fill="black"/>
</g>
</g>
</g>
<g id="Bold-S">
<g id="Outline / Lock Outline_21">
<g id="Shape_21">
<path d="M2339.71 667.842C2339.71 666.346 2338.5 665.133 2337 665.133C2335.5 665.133 2334.29 666.346 2334.29 667.842V674.994C2334.29 676.49 2335.5 677.702 2337 677.702C2338.5 677.702 2339.71 676.49 2339.71 674.994V667.842Z" fill="black"/>
<path fill-rule="evenodd" clip-rule="evenodd" d="M2320.4 640.519L2320.4 648.501H2320.33C2313.43 648.501 2307.83 654.098 2307.83 661.001V681.835C2307.83 688.738 2313.43 694.335 2320.33 694.335H2353.67C2360.57 694.335 2366.17 688.738 2366.17 681.835V661.001C2366.17 654.098 2360.57 648.501 2353.67 648.501H2353.5L2353.5 640.519C2353.5 631.378 2346.09 623.968 2336.95 623.968C2327.81 623.968 2320.4 631.378 2320.4 640.519ZM2336.95 629.509C2330.87 629.509 2325.94 634.439 2325.94 640.519L2325.94 648.501H2347.96L2347.96 640.519C2347.96 634.439 2343.03 629.509 2336.95 629.509ZM2353.67 653.918H2320.33C2316.42 653.918 2313.25 657.089 2313.25 661.001V681.835C2313.25 685.747 2316.42 688.918 2320.33 688.918H2353.67C2357.58 688.918 2360.75 685.747 2360.75 681.835V661.001C2360.75 657.089 2357.58 653.918 2353.67 653.918Z" fill="black"/>
</g>
</g>
</g>
<g id="Semibold-S">
<g id="Outline / Lock Outline_22">
<g id="Shape_22">
<path d="M2043.71 667.842C2043.71 666.346 2042.5 665.133 2041 665.133C2039.5 665.133 2038.29 666.346 2038.29 667.842V674.994C2038.29 676.49 2039.5 677.702 2041 677.702C2042.5 677.702 2043.71 676.49 2043.71 674.994V667.842Z" fill="black"/>
<path fill-rule="evenodd" clip-rule="evenodd" d="M2024.4 640.519L2024.4 648.501H2024.33C2017.43 648.501 2011.83 654.098 2011.83 661.001V681.835C2011.83 688.738 2017.43 694.335 2024.33 694.335H2057.67C2064.57 694.335 2070.17 688.738 2070.17 681.835V661.001C2070.17 654.098 2064.57 648.501 2057.67 648.501H2057.5L2057.5 640.519C2057.5 631.378 2050.09 623.968 2040.95 623.968C2031.81 623.968 2024.4 631.378 2024.4 640.519ZM2040.95 629.509C2034.87 629.509 2029.94 634.439 2029.94 640.519L2029.94 648.501H2051.96L2051.96 640.519C2051.96 634.439 2047.03 629.509 2040.95 629.509ZM2057.67 653.918H2024.33C2020.42 653.918 2017.25 657.089 2017.25 661.001V681.835C2017.25 685.747 2020.42 688.918 2024.33 688.918H2057.67C2061.58 688.918 2064.75 685.747 2064.75 681.835V661.001C2064.75 657.089 2061.58 653.918 2057.67 653.918Z" fill="black"/>
</g>
</g>
</g>
<g id="Medium-S">
<g id="Outline / Lock Outline_23">
<g id="Shape_23">
<path d="M1747.71 667.842C1747.71 666.346 1746.5 665.133 1745 665.133C1743.5 665.133 1742.29 666.346 1742.29 667.842V674.994C1742.29 676.49 1743.5 677.702 1745 677.702C1746.5 677.702 1747.71 676.49 1747.71 674.994V667.842Z" fill="black"/>
<path fill-rule="evenodd" clip-rule="evenodd" d="M1728.4 640.519L1728.4 648.501H1728.33C1721.43 648.501 1715.83 654.098 1715.83 661.001V681.835C1715.83 688.738 1721.43 694.335 1728.33 694.335H1761.67C1768.57 694.335 1774.17 688.738 1774.17 681.835V661.001C1774.17 654.098 1768.57 648.501 1761.67 648.501H1761.5L1761.5 640.519C1761.5 631.378 1754.09 623.968 1744.95 623.968C1735.81 623.968 1728.4 631.378 1728.4 640.519ZM1744.95 629.509C1738.87 629.509 1733.94 634.439 1733.94 640.519L1733.94 648.501H1755.96L1755.96 640.519C1755.96 634.439 1751.03 629.509 1744.95 629.509ZM1761.67 653.918H1728.33C1724.42 653.918 1721.25 657.089 1721.25 661.001V681.835C1721.25 685.747 1724.42 688.918 1728.33 688.918H1761.67C1765.58 688.918 1768.75 685.747 1768.75 681.835V661.001C1768.75 657.089 1765.58 653.918 1761.67 653.918Z" fill="black"/>
</g>
</g>
</g>
<g id="Regular-S">
<g id="Outline / Lock Outline_24">
<g id="Shape_24">
<path d="M1451.71 667.842C1451.71 666.346 1450.5 665.133 1449 665.133C1447.5 665.133 1446.29 666.346 1446.29 667.842V674.994C1446.29 676.49 1447.5 677.702 1449 677.702C1450.5 677.702 1451.71 676.49 1451.71 674.994V667.842Z" fill="black"/>
<path fill-rule="evenodd" clip-rule="evenodd" d="M1432.4 640.519L1432.4 648.501H1432.33C1425.43 648.501 1419.83 654.098 1419.83 661.001V681.835C1419.83 688.738 1425.43 694.335 1432.33 694.335H1465.67C1472.57 694.335 1478.17 688.738 1478.17 681.835V661.001C1478.17 654.098 1472.57 648.501 1465.67 648.501H1465.5L1465.5 640.519C1465.5 631.378 1458.09 623.968 1448.95 623.968C1439.81 623.968 1432.4 631.378 1432.4 640.519ZM1448.95 629.509C1442.87 629.509 1437.94 634.439 1437.94 640.519L1437.94 648.501H1459.96L1459.96 640.519C1459.96 634.439 1455.03 629.509 1448.95 629.509ZM1465.67 653.918H1432.33C1428.42 653.918 1425.25 657.089 1425.25 661.001V681.835C1425.25 685.747 1428.42 688.918 1432.33 688.918H1465.67C1469.58 688.918 1472.75 685.747 1472.75 681.835V661.001C1472.75 657.089 1469.58 653.918 1465.67 653.918Z" fill="black"/>
</g>
</g>
</g>
<g id="Light-S">
<g id="Outline / Lock Outline_25">
<g id="Shape_25">
<path d="M1155.71 667.842C1155.71 666.346 1154.5 665.133 1153 665.133C1151.5 665.133 1150.29 666.346 1150.29 667.842V674.994C1150.29 676.49 1151.5 677.702 1153 677.702C1154.5 677.702 1155.71 676.49 1155.71 674.994V667.842Z" fill="black"/>
<path fill-rule="evenodd" clip-rule="evenodd" d="M1136.4 640.519L1136.4 648.501H1136.33C1129.43 648.501 1123.83 654.098 1123.83 661.001V681.835C1123.83 688.738 1129.43 694.335 1136.33 694.335H1169.67C1176.57 694.335 1182.17 688.738 1182.17 681.835V661.001C1182.17 654.098 1176.57 648.501 1169.67 648.501H1169.5L1169.5 640.519C1169.5 631.378 1162.09 623.968 1152.95 623.968C1143.81 623.968 1136.4 631.378 1136.4 640.519ZM1152.95 629.509C1146.87 629.509 1141.94 634.439 1141.94 640.519L1141.94 648.501H1163.96L1163.96 640.519C1163.96 634.439 1159.03 629.509 1152.95 629.509ZM1169.67 653.918H1136.33C1132.42 653.918 1129.25 657.089 1129.25 661.001V681.835C1129.25 685.747 1132.42 688.918 1136.33 688.918H1169.67C1173.58 688.918 1176.75 685.747 1176.75 681.835V661.001C1176.75 657.089 1173.58 653.918 1169.67 653.918Z" fill="black"/>
</g>
</g>
</g>
<g id="Thin-S">
<g id="Outline / Lock Outline_26">
<g id="Shape_26">
<path d="M859.709 667.842C859.709 666.346 858.496 665.133 857.001 665.133C855.505 665.133 854.292 666.346 854.292 667.842V674.994C854.292 676.49 855.505 677.702 857.001 677.702C858.496 677.702 859.709 676.49 859.709 674.994V667.842Z" fill="black"/>
<path fill-rule="evenodd" clip-rule="evenodd" d="M840.399 640.519L840.399 648.501H840.334C833.43 648.501 827.834 654.098 827.834 661.001V681.835C827.834 688.738 833.43 694.335 840.334 694.335H873.667C880.571 694.335 886.167 688.738 886.167 681.835V661.001C886.167 654.098 880.571 648.501 873.667 648.501H873.501L873.501 640.519C873.501 631.378 866.091 623.968 856.95 623.968C847.809 623.968 840.399 631.378 840.399 640.519ZM856.95 629.509C850.87 629.509 845.941 634.439 845.941 640.519L845.941 648.501H867.96L867.96 640.519C867.96 634.439 863.031 629.509 856.95 629.509ZM873.667 653.918H840.334C836.422 653.918 833.251 657.089 833.251 661.001V681.835C833.251 685.747 836.422 688.918 840.334 688.918H873.667C877.579 688.918 880.751 685.747 880.751 681.835V661.001C880.751 657.089 877.579 653.918 873.667 653.918Z" fill="black"/>
</g>
</g>
</g>
<g id="Ultralight-S">
<g id="Outline / Lock Outline_27">
<g id="Shape_27">
<path d="M563.709 667.842C563.709 666.346 562.496 665.133 561.001 665.133C559.505 665.133 558.292 666.346 558.292 667.842V674.994C558.292 676.49 559.505 677.702 561.001 677.702C562.496 677.702 563.709 676.49 563.709 674.994V667.842Z" fill="black"/>
<path fill-rule="evenodd" clip-rule="evenodd" d="M544.399 640.519L544.399 648.501H544.334C537.43 648.501 531.834 654.098 531.834 661.001V681.835C531.834 688.738 537.43 694.335 544.334 694.335H577.667C584.571 694.335 590.167 688.738 590.167 681.835V661.001C590.167 654.098 584.571 648.501 577.667 648.501H577.501L577.501 640.519C577.501 631.378 570.091 623.968 560.95 623.968C551.809 623.968 544.399 631.378 544.399 640.519ZM560.95 629.509C554.87 629.509 549.941 634.439 549.941 640.519L549.941 648.501H571.96L571.96 640.519C571.96 634.439 567.031 629.509 560.95 629.509ZM577.667 653.918H544.334C540.422 653.918 537.251 657.089 537.251 661.001V681.835C537.251 685.747 540.422 688.918 544.334 688.918H577.667C581.579 688.918 584.751 685.747 584.751 681.835V661.001C584.751 657.089 581.579 653.918 577.667 653.918Z" fill="black"/>
</g>
</g>
</g>
</g>
</g>
<defs>
<clipPath id="clip0_0_1">
<rect width="3300" height="2200" fill="white"/>
</clipPath>
</defs>
</svg>
