<svg xmlns="http://www.w3.org/2000/svg" width="3300" height="2200" fill="none"><path fill="#E5E5E5" d="M0 0h3300v2200H0z"/><g id="System / Solid / Zoom Out" clip-path="url(#clip0_805_27002)"><g id="Notes"><path id="artboard" fill="#fff" d="M3300 0H0v2200h3300V0Z"/><path id="Vector" stroke="#000" stroke-width=".5" d="M263 292h2773"/><text xml:space="preserve" id="Weight/Scale Variations" fill="#000" font-family="Roboto" font-size="12" letter-spacing="0em" style="white-space:pre"><tspan x="263" y="321.102">Weight/Scale Variations</tspan></text><text xml:space="preserve" id="Ultralight" fill="#000" font-family="Roboto" font-size="12" letter-spacing="0em" style="white-space:pre"><tspan x="535.211" y="321.102">Ultralight</tspan></text><text xml:space="preserve" id="Thin" fill="#000" font-family="Roboto" font-size="12" letter-spacing="0em" style="white-space:pre"><tspan x="844.422" y="321.102">Thin</tspan></text><text xml:space="preserve" id="Light" fill="#000" font-family="Roboto" font-size="12" letter-spacing="0em" style="white-space:pre"><tspan x="1139.63" y="321.102">Light</tspan></text><text xml:space="preserve" id="Regular" fill="#000" font-family="Roboto" font-size="12" letter-spacing="0em" style="white-space:pre"><tspan x="1429.34" y="321.102">Regular</tspan></text><text xml:space="preserve" id="Medium" fill="#000" font-family="Roboto" font-size="12" letter-spacing="0em" style="white-space:pre"><tspan x="1724.56" y="321.102">Medium</tspan></text><text xml:space="preserve" id="Semibold" fill="#000" font-family="Roboto" font-size="12" letter-spacing="0em" style="white-space:pre"><tspan x="2017.77" y="321.102">Semibold</tspan></text><text xml:space="preserve" id="Bold" fill="#000" font-family="Roboto" font-size="12" letter-spacing="0em" style="white-space:pre"><tspan x="2327.48" y="321.102">Bold</tspan></text><text xml:space="preserve" id="Heavy" fill="#000" font-family="Roboto" font-size="12" letter-spacing="0em" style="white-space:pre"><tspan x="2620.19" y="321.102">Heavy</tspan></text><text xml:space="preserve" id="Black" fill="#000" font-family="Roboto" font-size="12" letter-spacing="0em" style="white-space:pre"><tspan x="2918.4" y="321.102">Black</tspan></text><path id="Vector_2" stroke="#000" stroke-width=".5" d="M263 1903h2773"/><g id="Group"><path id="Vector_3" fill="#000" d="M272.248 1933.83c4.307 0 7.891-3.57 7.891-7.88 0-4.31-3.594-7.88-7.901-7.88-4.297 0-7.871 3.57-7.871 7.88 0 4.31 3.584 7.88 7.881 7.88Zm0-1.48c-3.545 0-6.377-2.84-6.377-6.4 0-3.55 2.822-6.4 6.367-6.4a6.388 6.388 0 0 1 6.406 6.4 6.361 6.361 0 0 1-6.396 6.4Zm-.019-2.78c.468 0 .742-.31.742-.83v-2.06h2.226c.498 0 .84-.25.84-.72 0-.48-.322-.74-.84-.74h-2.226v-2.23c0-.52-.274-.84-.742-.84-.469 0-.723.34-.723.84v2.23h-2.207c-.518 0-.85.26-.85.74 0 .47.352.72.85.72h2.207v2.06c0 .5.254.83.723.83Z"/></g><g id="Group_2"><path id="Vector_4" fill="#000" d="M293.215 1935.91c5.449 0 9.961-4.51 9.961-9.96 0-5.44-4.522-9.96-9.971-9.96-5.439 0-9.951 4.52-9.951 9.96 0 5.45 4.521 9.96 9.961 9.96Zm0-1.66a8.26 8.26 0 0 1-8.291-8.3c0-4.6 3.672-8.3 8.281-8.3a8.29 8.29 0 0 1 8.311 8.3 8.263 8.263 0 0 1-8.301 8.3Zm-.02-3.66c.518 0 .83-.36.83-.93v-2.89h3.057c.547 0 .928-.28.928-.8 0-.53-.362-.83-.928-.83h-3.057v-3.07c0-.57-.312-.93-.83-.93-.517 0-.81.38-.81.93v3.07h-3.047c-.567 0-.938.3-.938.83 0 .52.391.8.938.8h3.047v2.89c0 .55.293.93.81.93Z"/></g><g id="Group_3"><path id="Vector_5" fill="#000" d="M319.895 1938.67c6.962 0 12.724-5.75 12.724-12.71 0-6.97-5.771-12.72-12.734-12.72-6.953 0-12.705 5.75-12.705 12.72 0 6.96 5.761 12.71 12.715 12.71Zm0-1.81a10.874 10.874 0 0 1-10.889-10.9c0-6.04 4.844-10.9 10.879-10.9 6.045 0 10.898 4.86 10.908 10.9a10.87 10.87 0 0 1-10.898 10.9Zm-.02-4.93c.566 0 .918-.39.918-.99v-4.07h4.238c.586 0 1.006-.34 1.006-.89 0-.58-.39-.92-1.006-.92h-4.238v-4.25c0-.61-.352-1.01-.918-1.01-.566 0-.889.41-.889 1.01v4.25h-4.228c-.615 0-1.026.34-1.026.92 0 .55.43.89 1.026.89h4.228v4.07c0 .58.323.99.889.99Z"/></g><text xml:space="preserve" id="Design Variations" fill="#000" font-family="Roboto" font-size="12" letter-spacing="0em" style="white-space:pre"><tspan x="263" y="1952.1">Design Variations</tspan></text><text xml:space="preserve" id="Symbols are supported in up to nine weights and three scales." fill="#000" font-family="Roboto" font-size="12" letter-spacing="0em" style="white-space:pre"><tspan x="263" y="1970.1">Symbols are supported in up to nine weights and three scales.</tspan></text><text xml:space="preserve" id="For optimal layout with text and other symbols, vertically align" fill="#000" font-family="Roboto" font-size="12" letter-spacing="0em" style="white-space:pre"><tspan x="263" y="1988.1">For optimal layout with text and other symbols, vertically align</tspan></text><text xml:space="preserve" id="symbols with the adjacent text." fill="#000" font-family="Roboto" font-size="12" letter-spacing="0em" style="white-space:pre"><tspan x="263" y="2006.1">symbols with the adjacent text.</tspan></text><path id="Vector_6" fill="#00AEEF" d="M779 1919h-3v14h3v-14Z" opacity=".4"/><g id="Group_4"><path id="Vector_7" fill="#000" d="M789.525 1933h1.846l-5.195-14.09h-1.739l-5.195 14.09h1.846l1.416-4.04h5.605l1.416 4.04Zm-4.248-11.96h.059l2.256 6.43h-4.571l2.256-6.43Z"/></g><path id="Vector_8" fill="#00AEEF" d="M794.617 1919h-3v14h3v-14Z" opacity=".4"/><text xml:space="preserve" id="Margins" fill="#000" font-family="Roboto" font-size="12" letter-spacing="0em" style="white-space:pre"><tspan x="776" y="1952.1">Margins</tspan></text><text xml:space="preserve" id="Leading and trailing margins on the left and right side of each symbol" fill="#000" font-family="Roboto" font-size="12" letter-spacing="0em" style="white-space:pre"><tspan x="776" y="1970.1">Leading and trailing margins on the left and right side of each symbol</tspan></text><text xml:space="preserve" id="can be adjusted by modifying the width of the blue rectangles." fill="#000" font-family="Roboto" font-size="12" letter-spacing="0em" style="white-space:pre"><tspan x="776" y="1988.1">can be adjusted by modifying the width of the blue rectangles.</tspan></text><text xml:space="preserve" id="Modifications are automatically applied proportionally to all" fill="#000" font-family="Roboto" font-size="12" letter-spacing="0em" style="white-space:pre"><tspan x="776" y="2006.1">Modifications are automatically applied proportionally to all</tspan></text><text xml:space="preserve" id="scales and weights." fill="#000" font-family="Roboto" font-size="12" letter-spacing="0em" style="white-space:pre"><tspan x="776" y="2024.1">scales and weights.</tspan></text><g id="Group_5"><path id="Vector_9" fill="#000" d="m1291.83 1936.11 1.54 1.55c.85.83 1.82.76 2.69-.2l10.21-11.12c.43.29.83.28 1.29.18l1.05-.21.69.69-.05.52c-.06.53.1.95.6 1.45l.81.81c.51.5 1.16.53 1.64.05l3.25-3.25c.48-.48.46-1.13-.05-1.64l-.82-.82c-.49-.5-.91-.67-1.44-.59l-.53.05-.65-.66.28-1.14c.15-.57 0-1.04-.63-1.64l-2.41-2.39c-3.54-3.53-8.07-3.42-11.19-.29-.42.43-.47 1.02-.19 1.45.23.37.71.59 1.35.43 1.52-.38 3.03-.27 4.51.74l-.62 1.58c-.23.59-.22 1.07.02 1.5l-11.16 10.28c-.94.87-1.05 1.81-.19 2.67Zm7.84-18.26c2.67-1.99 5.98-1.68 8.38.73l2.63 2.61c.23.24.26.42.2.72l-.38 1.56 1.58 1.57.96-.09c.29-.03.37-.01.6.22l.62.62-2.75 2.75-.63-.62c-.22-.22-.24-.32-.21-.6l.09-.96-1.57-1.56-1.62.31c-.28.06-.43.06-.66-.19l-2.18-2.17c-.22-.24-.25-.38-.12-.7l.94-2.27c-1.6-1.54-3.71-2.39-5.75-1.73-.09.03-.16.01-.19-.03-.02-.05-.02-.1.06-.17Zm-6.57 17.56c-.49-.5-.31-.8.02-1.1l10.96-10.12 1.23 1.23-10.16 10.93c-.3.33-.68.43-1.08.03l-.97-.97Z"/></g><text xml:space="preserve" id="Exporting" fill="#000" font-family="Roboto" font-size="12" letter-spacing="0em" style="white-space:pre"><tspan x="1289" y="1952.1">Exporting</tspan></text><text xml:space="preserve" id="Symbols should be outlined when exporting to ensure the" fill="#000" font-family="Roboto" font-size="12" letter-spacing="0em" style="white-space:pre"><tspan x="1289" y="1970.1">Symbols should be outlined when exporting to ensure the</tspan></text><text xml:space="preserve" id="design is preserved when submitting to Xcode." fill="#000" font-family="Roboto" font-size="12" letter-spacing="0em" style="white-space:pre"><tspan x="1289" y="1988.1">design is preserved when submitting to Xcode.</tspan></text><text xml:space="preserve" id="template-version" fill="#000" font-family="Roboto" font-size="12" letter-spacing="0em" style="white-space:pre"><tspan x="2958" y="1932.1">Template v.1.0</tspan></text><text xml:space="preserve" id="Generated from pencil.circle" fill="#000" font-family="Roboto" font-size="12" letter-spacing="0em" style="white-space:pre"><tspan x="2885" y="1950.1">Generated from pencil.circle</tspan></text><text xml:space="preserve" id="Typeset at 100 points" fill="#000" font-family="Roboto" font-size="12" letter-spacing="0em" style="white-space:pre"><tspan x="2921" y="1968.1">Typeset at 100 points</tspan></text><text xml:space="preserve" id="Small" fill="#000" font-family="Roboto" font-size="12" letter-spacing="0em" style="white-space:pre"><tspan x="263" y="725.102">Small</tspan></text><text xml:space="preserve" id="Medium_2" fill="#000" font-family="Roboto" font-size="12" letter-spacing="0em" style="white-space:pre"><tspan x="263" y="1155.1">Medium</tspan></text><text xml:space="preserve" id="Large" fill="#000" font-family="Roboto" font-size="12" letter-spacing="0em" style="white-space:pre"><tspan x="263" y="1585.1">Large</tspan></text></g><g id="Guides"><g id="H-reference"><path id="Vector_10" fill="#27AAE1" d="M393.932 695.998h2.734l-27.1-70.459h-2.49l-27.099 70.459h2.685l9.278-24.463h32.763l9.229 24.463Zm-25.733-67.09h.244l15.381 40.381h-31.006l15.381-40.381Z"/></g><path id="Baseline-S" stroke="#27AAE1" stroke-width=".577" d="M263 696h2773"/><path id="Capline-S" stroke="#27AAE1" stroke-width=".577" d="M263 626h2773"/><g id="H-reference_2"><path id="Vector_11" fill="#27AAE1" d="M393.932 1126h2.734l-27.1-70.46h-2.49L339.977 1126h2.685l9.278-24.46h32.763l9.229 24.46Zm-25.733-67.09h.244l15.381 40.38h-31.006l15.381-40.38Z"/></g><path id="Baseline-M" stroke="#27AAE1" stroke-width=".577" d="M263 1126h2773"/><path id="Capline-M" stroke="#27AAE1" stroke-width=".577" d="M263 1056h2773"/><g id="H-reference_3"><path id="Vector_12" fill="#27AAE1" d="M393.932 1556h2.734l-27.1-70.46h-2.49L339.977 1556h2.685l9.278-24.46h32.763l9.229 24.46Zm-25.733-67.09h.244l15.381 40.38h-31.006l15.381-40.38Z"/></g><g id="Group 1" stroke="#27AAE1" stroke-width=".577"><path id="Baseline-L" d="M263 1556h2773"/><path id="Capline-L" d="M263 1486h2773"/></g><path id="left-margin" fill="#00AEEF" d="M1396.04 1030.79h-8.74v119.33h8.74v-119.33Z" opacity=".4"/><path id="right-margin" fill="#00AEEF" d="M1510.39 1030.79h-8.74v119.33h8.74v-119.33Z" opacity=".4"/></g><g id="Symbols"><g id="Black-L"><g id="Solid / Zoom Out Solid"><g id="Shape" fill="#000" fill-rule="evenodd" clip-rule="evenodd"><path d="M2901.24 1517.24c0-13.27 10.73-24 24-24 13.28 0 24 10.73 24 24 0 13.28-10.72 24-24 24-13.27 0-24-10.72-24-24Zm35.59.07c0-2.69-2.18-4.87-4.88-4.87h-13.49a4.87 4.87 0 0 0-4.87 4.87c0 2.69 2.18 4.88 4.87 4.88h13.49c2.7 0 4.88-2.19 4.88-4.88Z"/><path d="M2928.99 1453.49c-37.28 0-67.5 30.22-67.5 67.5s30.22 67.5 67.5 67.5 67.5-30.22 67.5-67.5-30.22-67.5-67.5-67.5Zm-3.75 30c-18.66 0-33.75 15.09-33.75 33.75s15.09 33.75 33.75 33.75c7.57 0 14.55-2.48 20.18-6.68l13.88 13.88c1.9 1.9 4.99 1.9 6.89 0 1.9-1.9 1.9-4.99 0-6.89l-13.88-13.88c4.2-5.63 6.68-12.61 6.68-20.18 0-18.66-15.09-33.75-33.75-33.75Z"/></g></g></g><g id="Heavy-L"><g id="Solid / Zoom Out Solid_2"><g id="Shape_2" fill="#000" fill-rule="evenodd" clip-rule="evenodd"><path d="M2605.24 1517.24c0-13.27 10.73-24 24-24 13.28 0 24 10.73 24 24 0 13.28-10.72 24-24 24-13.27 0-24-10.72-24-24Zm35.59.07c0-2.69-2.18-4.87-4.88-4.87h-13.49a4.87 4.87 0 0 0-4.87 4.87c0 2.69 2.18 4.88 4.87 4.88h13.49c2.7 0 4.88-2.19 4.88-4.88Z"/><path d="M2632.99 1453.49c-37.28 0-67.5 30.22-67.5 67.5s30.22 67.5 67.5 67.5 67.5-30.22 67.5-67.5-30.22-67.5-67.5-67.5Zm-3.75 30c-18.66 0-33.75 15.09-33.75 33.75s15.09 33.75 33.75 33.75c7.57 0 14.55-2.48 20.18-6.68l13.88 13.88c1.9 1.9 4.99 1.9 6.89 0 1.9-1.9 1.9-4.99 0-6.89l-13.88-13.88c4.2-5.63 6.68-12.61 6.68-20.18 0-18.66-15.09-33.75-33.75-33.75Z"/></g></g></g><g id="Bold-L"><g id="Solid / Zoom Out Solid_3"><g id="Shape_3" fill="#000" fill-rule="evenodd" clip-rule="evenodd"><path d="M2309.24 1517.24c0-13.27 10.73-24 24-24 13.28 0 24 10.73 24 24 0 13.28-10.72 24-24 24-13.27 0-24-10.72-24-24Zm35.59.07c0-2.69-2.18-4.87-4.88-4.87h-13.49a4.87 4.87 0 0 0-4.87 4.87c0 2.69 2.18 4.88 4.87 4.88h13.49c2.7 0 4.88-2.19 4.88-4.88Z"/><path d="M2336.99 1453.49c-37.28 0-67.5 30.22-67.5 67.5s30.22 67.5 67.5 67.5 67.5-30.22 67.5-67.5-30.22-67.5-67.5-67.5Zm-3.75 30c-18.66 0-33.75 15.09-33.75 33.75s15.09 33.75 33.75 33.75c7.57 0 14.55-2.48 20.18-6.68l13.88 13.88c1.9 1.9 4.99 1.9 6.89 0 1.9-1.9 1.9-4.99 0-6.89l-13.88-13.88c4.2-5.63 6.68-12.61 6.68-20.18 0-18.66-15.09-33.75-33.75-33.75Z"/></g></g></g><g id="Semibold-L"><g id="Solid / Zoom Out Solid_4"><g id="Shape_4" fill="#000" fill-rule="evenodd" clip-rule="evenodd"><path d="M2013.24 1517.24c0-13.27 10.73-24 24-24 13.28 0 24 10.73 24 24 0 13.28-10.72 24-24 24-13.27 0-24-10.72-24-24Zm35.59.07c0-2.69-2.18-4.87-4.88-4.87h-13.49a4.87 4.87 0 0 0-4.87 4.87c0 2.69 2.18 4.88 4.87 4.88h13.49c2.7 0 4.88-2.19 4.88-4.88Z"/><path d="M2040.99 1453.49c-37.28 0-67.5 30.22-67.5 67.5s30.22 67.5 67.5 67.5 67.5-30.22 67.5-67.5-30.22-67.5-67.5-67.5Zm-3.75 30c-18.66 0-33.75 15.09-33.75 33.75s15.09 33.75 33.75 33.75c7.57 0 14.55-2.48 20.18-6.68l13.88 13.88c1.9 1.9 4.99 1.9 6.89 0 1.9-1.9 1.9-4.99 0-6.89l-13.88-13.88c4.2-5.63 6.68-12.61 6.68-20.18 0-18.66-15.09-33.75-33.75-33.75Z"/></g></g></g><g id="Medium-L"><g id="Solid / Zoom Out Solid_5"><g id="Shape_5" fill="#000" fill-rule="evenodd" clip-rule="evenodd"><path d="M1717.24 1517.24c0-13.27 10.73-24 24-24 13.28 0 24 10.73 24 24 0 13.28-10.72 24-24 24-13.27 0-24-10.72-24-24Zm35.59.07c0-2.69-2.18-4.87-4.88-4.87h-13.49a4.87 4.87 0 0 0-4.87 4.87c0 2.69 2.18 4.88 4.87 4.88h13.49c2.7 0 4.88-2.19 4.88-4.88Z"/><path d="M1744.99 1453.49c-37.28 0-67.5 30.22-67.5 67.5s30.22 67.5 67.5 67.5 67.5-30.22 67.5-67.5-30.22-67.5-67.5-67.5Zm-3.75 30c-18.66 0-33.75 15.09-33.75 33.75s15.09 33.75 33.75 33.75c7.57 0 14.55-2.48 20.18-6.68l13.88 13.88c1.9 1.9 4.99 1.9 6.89 0 1.9-1.9 1.9-4.99 0-6.89l-13.88-13.88c4.2-5.63 6.68-12.61 6.68-20.18 0-18.66-15.09-33.75-33.75-33.75Z"/></g></g></g><g id="Regular-L"><g id="Solid / Zoom Out Solid_6"><g id="Shape_6" fill="#000" fill-rule="evenodd" clip-rule="evenodd"><path d="M1421.24 1517.24c0-13.27 10.73-24 24-24 13.28 0 24 10.73 24 24 0 13.28-10.72 24-24 24-13.27 0-24-10.72-24-24Zm35.59.07c0-2.69-2.18-4.87-4.88-4.87h-13.49a4.87 4.87 0 0 0-4.87 4.87c0 2.69 2.18 4.88 4.87 4.88h13.49c2.7 0 4.88-2.19 4.88-4.88Z"/><path d="M1448.99 1453.49c-37.28 0-67.5 30.22-67.5 67.5s30.22 67.5 67.5 67.5 67.5-30.22 67.5-67.5-30.22-67.5-67.5-67.5Zm-3.75 30c-18.66 0-33.75 15.09-33.75 33.75s15.09 33.75 33.75 33.75c7.57 0 14.55-2.48 20.18-6.68l13.88 13.88c1.9 1.9 4.99 1.9 6.89 0 1.9-1.9 1.9-4.99 0-6.89l-13.88-13.88c4.2-5.63 6.68-12.61 6.68-20.18 0-18.66-15.09-33.75-33.75-33.75Z"/></g></g></g><g id="Light-L"><g id="Solid / Zoom Out Solid_7"><g id="Shape_7" fill="#000" fill-rule="evenodd" clip-rule="evenodd"><path d="M1125.24 1517.24c0-13.27 10.73-24 24-24 13.28 0 24 10.73 24 24 0 13.28-10.72 24-24 24-13.27 0-24-10.72-24-24Zm35.59.07c0-2.69-2.18-4.87-4.88-4.87h-13.49a4.87 4.87 0 0 0-4.87 4.87c0 2.69 2.18 4.88 4.87 4.88h13.49c2.7 0 4.88-2.19 4.88-4.88Z"/><path d="M1152.99 1453.49c-37.28 0-67.5 30.22-67.5 67.5s30.22 67.5 67.5 67.5 67.5-30.22 67.5-67.5-30.22-67.5-67.5-67.5Zm-3.75 30c-18.66 0-33.75 15.09-33.75 33.75s15.09 33.75 33.75 33.75c7.57 0 14.55-2.48 20.18-6.68l13.88 13.88c1.9 1.9 4.99 1.9 6.89 0 1.9-1.9 1.9-4.99 0-6.89l-13.88-13.88c4.2-5.63 6.68-12.61 6.68-20.18 0-18.66-15.09-33.75-33.75-33.75Z"/></g></g></g><g id="Thin-L"><g id="Solid / Zoom Out Solid_8"><g id="Shape_8" fill="#000" fill-rule="evenodd" clip-rule="evenodd"><path d="M829.242 1517.24c0-13.27 10.726-24 24-24s24 10.73 24 24c0 13.28-10.726 24-24 24s-24-10.72-24-24Zm35.587.07c0-2.69-2.183-4.87-4.875-4.87h-13.492a4.873 4.873 0 0 0-4.875 4.87c0 2.69 2.183 4.88 4.875 4.88h13.492a4.881 4.881 0 0 0 4.875-4.88Z"/><path d="M856.992 1453.49c-37.279 0-67.5 30.22-67.5 67.5s30.221 67.5 67.5 67.5c37.279 0 67.5-30.22 67.5-67.5s-30.221-67.5-67.5-67.5Zm-3.75 30c-18.659 0-33.75 15.09-33.75 33.75s15.091 33.75 33.75 33.75c7.569 0 14.55-2.48 20.176-6.68l13.877 13.88a4.882 4.882 0 0 0 6.894 0 4.87 4.87 0 0 0 0-6.89l-13.877-13.88a33.636 33.636 0 0 0 6.68-20.18c0-18.66-15.091-33.75-33.75-33.75Z"/></g></g></g><g id="Ultralight-L"><g id="Solid / Zoom Out Solid_9"><g id="Shape_9" fill="#000" fill-rule="evenodd" clip-rule="evenodd"><path d="M533.242 1517.24c0-13.27 10.726-24 24-24s24 10.73 24 24c0 13.28-10.726 24-24 24s-24-10.72-24-24Zm35.587.07c0-2.69-2.183-4.87-4.875-4.87h-13.492a4.873 4.873 0 0 0-4.875 4.87c0 2.69 2.183 4.88 4.875 4.88h13.492a4.881 4.881 0 0 0 4.875-4.88Z"/><path d="M560.992 1453.49c-37.279 0-67.5 30.22-67.5 67.5s30.221 67.5 67.5 67.5c37.279 0 67.5-30.22 67.5-67.5s-30.221-67.5-67.5-67.5Zm-3.75 30c-18.659 0-33.75 15.09-33.75 33.75s15.091 33.75 33.75 33.75c7.569 0 14.55-2.48 20.176-6.68l13.877 13.88a4.882 4.882 0 0 0 6.894 0 4.87 4.87 0 0 0 0-6.89l-13.877-13.88a33.636 33.636 0 0 0 6.68-20.18c0-18.66-15.091-33.75-33.75-33.75Z"/></g></g></g><g id="Black-M"><g id="Solid / Zoom Out Solid_10"><g id="Shape_10" fill="#000" fill-rule="evenodd" clip-rule="evenodd"><path d="M2907.41 1088.08c0-10.32 8.35-18.67 18.67-18.67 10.32 0 18.67 8.35 18.67 18.67 0 10.32-8.35 18.67-18.67 18.67-10.32 0-18.67-8.35-18.67-18.67Zm27.68.05c0-2.09-1.7-3.79-3.79-3.79h-10.49a3.79 3.79 0 1 0 0 7.58h10.49c2.09 0 3.79-1.69 3.79-3.79Z"/><path d="M2929 1038.5c-29 0-52.5 23.5-52.5 52.5 0 28.99 23.5 52.5 52.5 52.5 28.99 0 52.5-23.51 52.5-52.5 0-29-23.51-52.5-52.5-52.5Zm-2.92 23.33c-14.51 0-26.25 11.74-26.25 26.25s11.74 26.25 26.25 26.25c5.89 0 11.32-1.93 15.69-5.2l10.79 10.8a3.802 3.802 0 0 0 5.37 0 3.802 3.802 0 0 0 0-5.37l-10.8-10.79c3.27-4.37 5.2-9.8 5.2-15.69 0-14.51-11.74-26.25-26.25-26.25Z"/></g></g></g><g id="Heavy-M"><g id="Solid / Zoom Out Solid_11"><g id="Shape_11" fill="#000" fill-rule="evenodd" clip-rule="evenodd"><path d="M2611.41 1088.08c0-10.32 8.35-18.67 18.67-18.67 10.32 0 18.67 8.35 18.67 18.67 0 10.32-8.35 18.67-18.67 18.67-10.32 0-18.67-8.35-18.67-18.67Zm27.68.05c0-2.09-1.7-3.79-3.79-3.79h-10.49a3.79 3.79 0 1 0 0 7.58h10.49c2.09 0 3.79-1.69 3.79-3.79Z"/><path d="M2633 1038.5c-29 0-52.5 23.5-52.5 52.5 0 28.99 23.5 52.5 52.5 52.5 28.99 0 52.5-23.51 52.5-52.5 0-29-23.51-52.5-52.5-52.5Zm-2.92 23.33c-14.51 0-26.25 11.74-26.25 26.25s11.74 26.25 26.25 26.25c5.89 0 11.32-1.93 15.69-5.2l10.79 10.8a3.802 3.802 0 0 0 5.37 0 3.802 3.802 0 0 0 0-5.37l-10.8-10.79c3.27-4.37 5.2-9.8 5.2-15.69 0-14.51-11.74-26.25-26.25-26.25Z"/></g></g></g><g id="Bold-M"><g id="Solid / Zoom Out Solid_12"><g id="Shape_12" fill="#000" fill-rule="evenodd" clip-rule="evenodd"><path d="M2315.41 1088.08c0-10.32 8.35-18.67 18.67-18.67 10.32 0 18.67 8.35 18.67 18.67 0 10.32-8.35 18.67-18.67 18.67-10.32 0-18.67-8.35-18.67-18.67Zm27.68.05c0-2.09-1.7-3.79-3.79-3.79h-10.49a3.79 3.79 0 1 0 0 7.58h10.49c2.09 0 3.79-1.69 3.79-3.79Z"/><path d="M2337 1038.5c-29 0-52.5 23.5-52.5 52.5 0 28.99 23.5 52.5 52.5 52.5 28.99 0 52.5-23.51 52.5-52.5 0-29-23.51-52.5-52.5-52.5Zm-2.92 23.33c-14.51 0-26.25 11.74-26.25 26.25s11.74 26.25 26.25 26.25c5.89 0 11.32-1.93 15.69-5.2l10.79 10.8a3.802 3.802 0 0 0 5.37 0 3.802 3.802 0 0 0 0-5.37l-10.8-10.79c3.27-4.37 5.2-9.8 5.2-15.69 0-14.51-11.74-26.25-26.25-26.25Z"/></g></g></g><g id="Semibold-M"><g id="Solid / Zoom Out Solid_13"><g id="Shape_13" fill="#000" fill-rule="evenodd" clip-rule="evenodd"><path d="M2019.41 1088.08c0-10.32 8.35-18.67 18.67-18.67 10.32 0 18.67 8.35 18.67 18.67 0 10.32-8.35 18.67-18.67 18.67-10.32 0-18.67-8.35-18.67-18.67Zm27.68.05c0-2.09-1.7-3.79-3.79-3.79h-10.49a3.79 3.79 0 1 0 0 7.58h10.49c2.09 0 3.79-1.69 3.79-3.79Z"/><path d="M2041 1038.5c-29 0-52.5 23.5-52.5 52.5 0 28.99 23.5 52.5 52.5 52.5 28.99 0 52.5-23.51 52.5-52.5 0-29-23.51-52.5-52.5-52.5Zm-2.92 23.33c-14.51 0-26.25 11.74-26.25 26.25s11.74 26.25 26.25 26.25c5.89 0 11.32-1.93 15.69-5.2l10.79 10.8a3.802 3.802 0 0 0 5.37 0 3.802 3.802 0 0 0 0-5.37l-10.8-10.79c3.27-4.37 5.2-9.8 5.2-15.69 0-14.51-11.74-26.25-26.25-26.25Z"/></g></g></g><g id="Medium-M"><g id="Solid / Zoom Out Solid_14"><g id="Shape_14" fill="#000" fill-rule="evenodd" clip-rule="evenodd"><path d="M1723.41 1088.08c0-10.32 8.35-18.67 18.67-18.67 10.32 0 18.67 8.35 18.67 18.67 0 10.32-8.35 18.67-18.67 18.67-10.32 0-18.67-8.35-18.67-18.67Zm27.68.05c0-2.09-1.7-3.79-3.79-3.79h-10.49a3.79 3.79 0 1 0 0 7.58h10.49c2.09 0 3.79-1.69 3.79-3.79Z"/><path d="M1745 1038.5c-29 0-52.5 23.5-52.5 52.5 0 28.99 23.5 52.5 52.5 52.5 28.99 0 52.5-23.51 52.5-52.5 0-29-23.51-52.5-52.5-52.5Zm-2.92 23.33c-14.51 0-26.25 11.74-26.25 26.25s11.74 26.25 26.25 26.25c5.89 0 11.32-1.93 15.69-5.2l10.79 10.8a3.802 3.802 0 0 0 5.37 0 3.802 3.802 0 0 0 0-5.37l-10.8-10.79c3.27-4.37 5.2-9.8 5.2-15.69 0-14.51-11.74-26.25-26.25-26.25Z"/></g></g></g><g id="Regular-M"><g id="Solid / Zoom Out Solid_15"><g id="Shape_15" fill="#000" fill-rule="evenodd" clip-rule="evenodd"><path d="M1427.41 1088.08c0-10.32 8.35-18.67 18.67-18.67 10.32 0 18.67 8.35 18.67 18.67 0 10.32-8.35 18.67-18.67 18.67-10.32 0-18.67-8.35-18.67-18.67Zm27.68.05c0-2.09-1.7-3.79-3.79-3.79h-10.49a3.79 3.79 0 1 0 0 7.58h10.49c2.09 0 3.79-1.69 3.79-3.79Z"/><path d="M1449 1038.5c-29 0-52.5 23.5-52.5 52.5 0 28.99 23.5 52.5 52.5 52.5 28.99 0 52.5-23.51 52.5-52.5 0-29-23.51-52.5-52.5-52.5Zm-2.92 23.33c-14.51 0-26.25 11.74-26.25 26.25s11.74 26.25 26.25 26.25c5.89 0 11.32-1.93 15.69-5.2l10.79 10.8a3.802 3.802 0 0 0 5.37 0 3.802 3.802 0 0 0 0-5.37l-10.8-10.79c3.27-4.37 5.2-9.8 5.2-15.69 0-14.51-11.74-26.25-26.25-26.25Z"/></g></g></g><g id="Light-M"><g id="Solid / Zoom Out Solid_16"><g id="Shape_16" fill="#000" fill-rule="evenodd" clip-rule="evenodd"><path d="M1131.41 1088.08c0-10.32 8.35-18.67 18.67-18.67 10.32 0 18.67 8.35 18.67 18.67 0 10.32-8.35 18.67-18.67 18.67-10.32 0-18.67-8.35-18.67-18.67Zm27.68.05c0-2.09-1.7-3.79-3.79-3.79h-10.49a3.79 3.79 0 1 0 0 7.58h10.49c2.09 0 3.79-1.69 3.79-3.79Z"/><path d="M1153 1038.5c-29 0-52.5 23.5-52.5 52.5 0 28.99 23.5 52.5 52.5 52.5 28.99 0 52.5-23.51 52.5-52.5 0-29-23.51-52.5-52.5-52.5Zm-2.92 23.33c-14.51 0-26.25 11.74-26.25 26.25s11.74 26.25 26.25 26.25c5.89 0 11.32-1.93 15.69-5.2l10.79 10.8a3.802 3.802 0 0 0 5.37 0 3.802 3.802 0 0 0 0-5.37l-10.8-10.79c3.27-4.37 5.2-9.8 5.2-15.69 0-14.51-11.74-26.25-26.25-26.25Z"/></g></g></g><g id="Thin-M"><g id="Solid / Zoom Out Solid_17"><g id="Shape_17" fill="#000" fill-rule="evenodd" clip-rule="evenodd"><path d="M835.413 1088.08c0-10.32 8.342-18.67 18.666-18.67 10.325 0 18.667 8.35 18.667 18.67 0 10.32-8.342 18.67-18.667 18.67-10.324 0-18.666-8.35-18.666-18.67Zm27.678.05c0-2.09-1.698-3.79-3.792-3.79h-10.493a3.793 3.793 0 0 0-3.792 3.79c0 2.1 1.698 3.79 3.792 3.79h10.493a3.787 3.787 0 0 0 3.792-3.79Z"/><path d="M856.996 1038.5c-28.995 0-52.5 23.5-52.5 52.5 0 28.99 23.505 52.5 52.5 52.5s52.5-23.51 52.5-52.5c0-29-23.505-52.5-52.5-52.5Zm-2.917 23.33c-14.512 0-26.25 11.74-26.25 26.25s11.738 26.25 26.25 26.25c5.887 0 11.317-1.93 15.693-5.2l10.793 10.8a3.793 3.793 0 0 0 5.362 0 3.8 3.8 0 0 0 0-5.37l-10.793-10.79a26.122 26.122 0 0 0 5.195-15.69c0-14.51-11.737-26.25-26.25-26.25Z"/></g></g></g><g id="Ultralight-M"><g id="Solid / Zoom Out Solid_18"><g id="Shape_18" fill="#000" fill-rule="evenodd" clip-rule="evenodd"><path d="M539.413 1088.08c0-10.32 8.342-18.67 18.666-18.67 10.325 0 18.667 8.35 18.667 18.67 0 10.32-8.342 18.67-18.667 18.67-10.324 0-18.666-8.35-18.666-18.67Zm27.678.05c0-2.09-1.698-3.79-3.792-3.79h-10.493a3.793 3.793 0 0 0-3.792 3.79c0 2.1 1.698 3.79 3.792 3.79h10.493a3.787 3.787 0 0 0 3.792-3.79Z"/><path d="M560.996 1038.5c-28.995 0-52.5 23.5-52.5 52.5 0 28.99 23.505 52.5 52.5 52.5s52.5-23.51 52.5-52.5c0-29-23.505-52.5-52.5-52.5Zm-2.917 23.33c-14.512 0-26.25 11.74-26.25 26.25s11.738 26.25 26.25 26.25c5.887 0 11.317-1.93 15.693-5.2l10.793 10.8a3.793 3.793 0 0 0 5.362 0 3.8 3.8 0 0 0 0-5.37l-10.793-10.79a26.122 26.122 0 0 0 5.195-15.69c0-14.51-11.737-26.25-26.25-26.25Z"/></g></g></g><g id="Black-S"><g id="Solid / Zoom Out Solid_19"><g id="Shape_19" fill="#000" fill-rule="evenodd" clip-rule="evenodd"><path d="M2913.58 658.917c0-7.375 5.96-13.334 13.34-13.334 7.37 0 13.33 5.959 13.33 13.334 0 7.374-5.96 13.333-13.33 13.333-7.38 0-13.34-5.959-13.34-13.333Zm19.77.038a2.705 2.705 0 0 0-2.7-2.709h-7.5a2.707 2.707 0 1 0 0 5.417h7.5c1.49 0 2.7-1.213 2.7-2.708Z"/><path d="M2929 623.5c-20.71 0-37.5 16.789-37.5 37.5s16.79 37.5 37.5 37.5 37.5-16.789 37.5-37.5-16.79-37.5-37.5-37.5Zm-2.08 16.667c-10.37 0-18.75 8.384-18.75 18.75s8.38 18.75 18.75 18.75c4.2 0 8.08-1.38 11.21-3.711l7.7 7.709a2.72 2.72 0 0 0 3.84 0 2.722 2.722 0 0 0 0-3.83l-7.71-7.71a18.685 18.685 0 0 0 3.71-11.208c0-10.366-8.39-18.75-18.75-18.75Z"/></g></g></g><g id="Heavy-S"><g id="Solid / Zoom Out Solid_20"><g id="Shape_20" fill="#000" fill-rule="evenodd" clip-rule="evenodd"><path d="M2617.58 658.917c0-7.375 5.96-13.334 13.34-13.334 7.37 0 13.33 5.959 13.33 13.334 0 7.374-5.96 13.333-13.33 13.333-7.38 0-13.34-5.959-13.34-13.333Zm19.77.038a2.705 2.705 0 0 0-2.7-2.709h-7.5a2.707 2.707 0 1 0 0 5.417h7.5c1.49 0 2.7-1.213 2.7-2.708Z"/><path d="M2633 623.5c-20.71 0-37.5 16.789-37.5 37.5s16.79 37.5 37.5 37.5 37.5-16.789 37.5-37.5-16.79-37.5-37.5-37.5Zm-2.08 16.667c-10.37 0-18.75 8.384-18.75 18.75s8.38 18.75 18.75 18.75c4.2 0 8.08-1.38 11.21-3.711l7.7 7.709a2.72 2.72 0 0 0 3.84 0 2.722 2.722 0 0 0 0-3.83l-7.71-7.71a18.685 18.685 0 0 0 3.71-11.208c0-10.366-8.39-18.75-18.75-18.75Z"/></g></g></g><g id="Bold-S"><g id="Solid / Zoom Out Solid_21"><g id="Shape_21" fill="#000" fill-rule="evenodd" clip-rule="evenodd"><path d="M2321.58 658.917c0-7.375 5.96-13.334 13.34-13.334 7.37 0 13.33 5.959 13.33 13.334 0 7.374-5.96 13.333-13.33 13.333-7.38 0-13.34-5.959-13.34-13.333Zm19.77.038a2.705 2.705 0 0 0-2.7-2.709h-7.5a2.707 2.707 0 1 0 0 5.417h7.5c1.49 0 2.7-1.213 2.7-2.708Z"/><path d="M2337 623.5c-20.71 0-37.5 16.789-37.5 37.5s16.79 37.5 37.5 37.5 37.5-16.789 37.5-37.5-16.79-37.5-37.5-37.5Zm-2.08 16.667c-10.37 0-18.75 8.384-18.75 18.75s8.38 18.75 18.75 18.75c4.2 0 8.08-1.38 11.21-3.711l7.7 7.709a2.72 2.72 0 0 0 3.84 0 2.722 2.722 0 0 0 0-3.83l-7.71-7.71a18.685 18.685 0 0 0 3.71-11.208c0-10.366-8.39-18.75-18.75-18.75Z"/></g></g></g><g id="Semibold-S"><g id="Solid / Zoom Out Solid_22"><g id="Shape_22" fill="#000" fill-rule="evenodd" clip-rule="evenodd"><path d="M2025.58 658.917c0-7.375 5.96-13.334 13.34-13.334 7.37 0 13.33 5.959 13.33 13.334 0 7.374-5.96 13.333-13.33 13.333-7.38 0-13.34-5.959-13.34-13.333Zm19.77.038a2.705 2.705 0 0 0-2.7-2.709h-7.5a2.707 2.707 0 1 0 0 5.417h7.5c1.49 0 2.7-1.213 2.7-2.708Z"/><path d="M2041 623.5c-20.71 0-37.5 16.789-37.5 37.5s16.79 37.5 37.5 37.5 37.5-16.789 37.5-37.5-16.79-37.5-37.5-37.5Zm-2.08 16.667c-10.37 0-18.75 8.384-18.75 18.75s8.38 18.75 18.75 18.75c4.2 0 8.08-1.38 11.21-3.711l7.7 7.709a2.72 2.72 0 0 0 3.84 0 2.722 2.722 0 0 0 0-3.83l-7.71-7.71a18.685 18.685 0 0 0 3.71-11.208c0-10.366-8.39-18.75-18.75-18.75Z"/></g></g></g><g id="Medium-S"><g id="Solid / Zoom Out Solid_23"><g id="Shape_23" fill="#000" fill-rule="evenodd" clip-rule="evenodd"><path d="M1729.58 658.917c0-7.375 5.96-13.334 13.34-13.334 7.37 0 13.33 5.959 13.33 13.334 0 7.374-5.96 13.333-13.33 13.333-7.38 0-13.34-5.959-13.34-13.333Zm19.77.038a2.705 2.705 0 0 0-2.7-2.709h-7.5a2.707 2.707 0 1 0 0 5.417h7.5c1.49 0 2.7-1.213 2.7-2.708Z"/><path d="M1745 623.5c-20.71 0-37.5 16.789-37.5 37.5s16.79 37.5 37.5 37.5 37.5-16.789 37.5-37.5-16.79-37.5-37.5-37.5Zm-2.08 16.667c-10.37 0-18.75 8.384-18.75 18.75s8.38 18.75 18.75 18.75c4.2 0 8.08-1.38 11.21-3.711l7.7 7.709a2.72 2.72 0 0 0 3.84 0 2.722 2.722 0 0 0 0-3.83l-7.71-7.71a18.685 18.685 0 0 0 3.71-11.208c0-10.366-8.39-18.75-18.75-18.75Z"/></g></g></g><g id="Regular-S"><g id="Solid / Zoom Out Solid_24"><g id="Shape_24" fill="#000" fill-rule="evenodd" clip-rule="evenodd"><path d="M1433.58 658.917c0-7.375 5.96-13.334 13.34-13.334 7.37 0 13.33 5.959 13.33 13.334 0 7.374-5.96 13.333-13.33 13.333-7.38 0-13.34-5.959-13.34-13.333Zm19.77.038a2.705 2.705 0 0 0-2.7-2.709h-7.5a2.707 2.707 0 1 0 0 5.417h7.5c1.49 0 2.7-1.213 2.7-2.708Z"/><path d="M1449 623.5c-20.71 0-37.5 16.789-37.5 37.5s16.79 37.5 37.5 37.5 37.5-16.789 37.5-37.5-16.79-37.5-37.5-37.5Zm-2.08 16.667c-10.37 0-18.75 8.384-18.75 18.75s8.38 18.75 18.75 18.75c4.2 0 8.08-1.38 11.21-3.711l7.7 7.709a2.72 2.72 0 0 0 3.84 0 2.722 2.722 0 0 0 0-3.83l-7.71-7.71a18.685 18.685 0 0 0 3.71-11.208c0-10.366-8.39-18.75-18.75-18.75Z"/></g></g></g><g id="Light-S"><g id="Solid / Zoom Out Solid_25"><g id="Shape_25" fill="#000" fill-rule="evenodd" clip-rule="evenodd"><path d="M1137.58 658.917c0-7.375 5.96-13.334 13.34-13.334 7.37 0 13.33 5.959 13.33 13.334 0 7.374-5.96 13.333-13.33 13.333-7.38 0-13.34-5.959-13.34-13.333Zm19.77.038a2.705 2.705 0 0 0-2.7-2.709h-7.5a2.707 2.707 0 1 0 0 5.417h7.5c1.49 0 2.7-1.213 2.7-2.708Z"/><path d="M1153 623.5c-20.71 0-37.5 16.789-37.5 37.5s16.79 37.5 37.5 37.5 37.5-16.789 37.5-37.5-16.79-37.5-37.5-37.5Zm-2.08 16.667c-10.37 0-18.75 8.384-18.75 18.75s8.38 18.75 18.75 18.75c4.2 0 8.08-1.38 11.21-3.711l7.7 7.709a2.72 2.72 0 0 0 3.84 0 2.722 2.722 0 0 0 0-3.83l-7.71-7.71a18.685 18.685 0 0 0 3.71-11.208c0-10.366-8.39-18.75-18.75-18.75Z"/></g></g></g><g id="Thin-S"><g id="Solid / Zoom Out Solid_26"><g id="Shape_26" fill="#000" fill-rule="evenodd" clip-rule="evenodd"><path d="M841.583 658.917a13.32 13.32 0 0 1 13.334-13.334 13.32 13.32 0 0 1 13.333 13.334 13.32 13.32 0 0 1-13.333 13.333 13.32 13.32 0 0 1-13.334-13.333Zm19.771.038a2.71 2.71 0 0 0-2.709-2.709h-7.495a2.708 2.708 0 0 0 0 5.417h7.495a2.709 2.709 0 0 0 2.709-2.708Z"/><path d="M857 623.5c-20.711 0-37.5 16.789-37.5 37.5s16.789 37.5 37.5 37.5 37.5-16.789 37.5-37.5-16.789-37.5-37.5-37.5Zm-2.083 16.667c-10.366 0-18.75 8.384-18.75 18.75s8.384 18.75 18.75 18.75a18.68 18.68 0 0 0 11.208-3.711l7.71 7.709a2.708 2.708 0 1 0 3.83-3.83l-7.709-7.71a18.68 18.68 0 0 0 3.711-11.208c0-10.366-8.384-18.75-18.75-18.75Z"/></g></g></g><g id="Ultralight-S"><g id="Solid / Zoom Out Solid_27"><g id="Shape_27" fill="#000" fill-rule="evenodd" clip-rule="evenodd"><path d="M545.583 658.917a13.32 13.32 0 0 1 13.334-13.334 13.32 13.32 0 0 1 13.333 13.334 13.32 13.32 0 0 1-13.333 13.333 13.32 13.32 0 0 1-13.334-13.333Zm19.771.038a2.71 2.71 0 0 0-2.709-2.709h-7.495a2.708 2.708 0 0 0 0 5.417h7.495a2.709 2.709 0 0 0 2.709-2.708Z"/><path d="M561 623.5c-20.711 0-37.5 16.789-37.5 37.5s16.789 37.5 37.5 37.5 37.5-16.789 37.5-37.5-16.789-37.5-37.5-37.5Zm-2.083 16.667c-10.366 0-18.75 8.384-18.75 18.75s8.384 18.75 18.75 18.75a18.68 18.68 0 0 0 11.208-3.711l7.71 7.709a2.708 2.708 0 1 0 3.83-3.83l-7.709-7.71a18.68 18.68 0 0 0 3.711-11.208c0-10.366-8.384-18.75-18.75-18.75Z"/></g></g></g></g></g><defs><clipPath id="clip0_805_27002"><path fill="#fff" d="M0 0h3300v2200H0z"/></clipPath></defs></svg>