<svg width="3300" height="2200" viewBox="0 0 3300 2200" fill="none" xmlns="http://www.w3.org/2000/svg">
<rect width="3300" height="2200" fill="#E5E5E5"/>
<g id="System / Solid / Star" clip-path="url(#clip0_805_27002)">
<g id="Notes">
<path id="artboard" d="M3300 0H0V2200H3300V0Z" fill="white"/>
<path id="Vector" d="M263 292H3036" stroke="black" stroke-width="0.5"/>
<text id="Weight/Scale Variations" fill="black" xml:space="preserve" style="white-space: pre" font-family="Roboto" font-size="12" letter-spacing="0em"><tspan x="263" y="321.102">Weight/Scale Variations</tspan></text>
<text id="Ultralight" fill="black" xml:space="preserve" style="white-space: pre" font-family="Roboto" font-size="12" letter-spacing="0em"><tspan x="535.211" y="321.102">Ultralight</tspan></text>
<text id="Thin" fill="black" xml:space="preserve" style="white-space: pre" font-family="Roboto" font-size="12" letter-spacing="0em"><tspan x="844.422" y="321.102">Thin</tspan></text>
<text id="Light" fill="black" xml:space="preserve" style="white-space: pre" font-family="Roboto" font-size="12" letter-spacing="0em"><tspan x="1139.63" y="321.102">Light</tspan></text>
<text id="Regular" fill="black" xml:space="preserve" style="white-space: pre" font-family="Roboto" font-size="12" letter-spacing="0em"><tspan x="1429.34" y="321.102">Regular</tspan></text>
<text id="Medium" fill="black" xml:space="preserve" style="white-space: pre" font-family="Roboto" font-size="12" letter-spacing="0em"><tspan x="1724.56" y="321.102">Medium</tspan></text>
<text id="Semibold" fill="black" xml:space="preserve" style="white-space: pre" font-family="Roboto" font-size="12" letter-spacing="0em"><tspan x="2017.77" y="321.102">Semibold</tspan></text>
<text id="Bold" fill="black" xml:space="preserve" style="white-space: pre" font-family="Roboto" font-size="12" letter-spacing="0em"><tspan x="2327.48" y="321.102">Bold</tspan></text>
<text id="Heavy" fill="black" xml:space="preserve" style="white-space: pre" font-family="Roboto" font-size="12" letter-spacing="0em"><tspan x="2620.19" y="321.102">Heavy</tspan></text>
<text id="Black" fill="black" xml:space="preserve" style="white-space: pre" font-family="Roboto" font-size="12" letter-spacing="0em"><tspan x="2918.4" y="321.102">Black</tspan></text>
<path id="Vector_2" d="M263 1903H3036" stroke="black" stroke-width="0.5"/>
<g id="Group">
<path id="Vector_3" d="M272.248 1933.83C276.555 1933.83 280.139 1930.26 280.139 1925.95C280.139 1921.64 276.545 1918.07 272.238 1918.07C267.941 1918.07 264.367 1921.64 264.367 1925.95C264.367 1930.26 267.951 1933.83 272.248 1933.83ZM272.248 1932.35C268.703 1932.35 265.871 1929.51 265.871 1925.95C265.871 1922.4 268.693 1919.55 272.238 1919.55C275.793 1919.55 278.635 1922.4 278.644 1925.95C278.654 1929.51 275.803 1932.35 272.248 1932.35ZM272.229 1929.57C272.697 1929.57 272.971 1929.26 272.971 1928.74V1926.68H275.197C275.695 1926.68 276.037 1926.43 276.037 1925.96C276.037 1925.48 275.715 1925.22 275.197 1925.22H272.971V1922.99C272.971 1922.47 272.697 1922.15 272.229 1922.15C271.76 1922.15 271.506 1922.49 271.506 1922.99V1925.22H269.299C268.781 1925.22 268.449 1925.48 268.449 1925.96C268.449 1926.43 268.801 1926.68 269.299 1926.68H271.506V1928.74C271.506 1929.24 271.76 1929.57 272.229 1929.57Z" fill="black"/>
</g>
<g id="Group_2">
<path id="Vector_4" d="M293.215 1935.91C298.664 1935.91 303.176 1931.4 303.176 1925.95C303.176 1920.51 298.654 1915.99 293.205 1915.99C287.766 1915.99 283.254 1920.51 283.254 1925.95C283.254 1931.4 287.775 1935.91 293.215 1935.91ZM293.215 1934.25C288.605 1934.25 284.924 1930.56 284.924 1925.95C284.924 1921.35 288.596 1917.65 293.205 1917.65C297.814 1917.65 301.506 1921.35 301.516 1925.95C301.525 1930.56 297.824 1934.25 293.215 1934.25ZM293.195 1930.59C293.713 1930.59 294.025 1930.23 294.025 1929.66V1926.77H297.082C297.629 1926.77 298.01 1926.49 298.01 1925.97C298.01 1925.44 297.648 1925.14 297.082 1925.14H294.025V1922.07C294.025 1921.5 293.713 1921.14 293.195 1921.14C292.678 1921.14 292.385 1921.52 292.385 1922.07V1925.14H289.338C288.771 1925.14 288.4 1925.44 288.4 1925.97C288.4 1926.49 288.791 1926.77 289.338 1926.77H292.385V1929.66C292.385 1930.21 292.678 1930.59 293.195 1930.59Z" fill="black"/>
</g>
<g id="Group_3">
<path id="Vector_5" d="M319.895 1938.67C326.857 1938.67 332.619 1932.92 332.619 1925.96C332.619 1918.99 326.848 1913.24 319.885 1913.24C312.932 1913.24 307.18 1918.99 307.18 1925.96C307.18 1932.92 312.941 1938.67 319.895 1938.67ZM319.895 1936.86C313.859 1936.86 309.006 1931.99 309.006 1925.96C309.006 1919.92 313.85 1915.06 319.885 1915.06C325.93 1915.06 330.783 1919.92 330.793 1925.96C330.803 1931.99 325.939 1936.86 319.895 1936.86ZM319.875 1931.93C320.441 1931.93 320.793 1931.54 320.793 1930.94V1926.87H325.031C325.617 1926.87 326.037 1926.53 326.037 1925.98C326.037 1925.4 325.647 1925.06 325.031 1925.06H320.793V1920.81C320.793 1920.2 320.441 1919.8 319.875 1919.8C319.309 1919.8 318.986 1920.21 318.986 1920.81V1925.06H314.758C314.143 1925.06 313.732 1925.4 313.732 1925.98C313.732 1926.53 314.162 1926.87 314.758 1926.87H318.986V1930.94C318.986 1931.52 319.309 1931.93 319.875 1931.93Z" fill="black"/>
</g>
<text id="Design Variations" fill="black" xml:space="preserve" style="white-space: pre" font-family="Roboto" font-size="12" letter-spacing="0em"><tspan x="263" y="1952.1">Design Variations</tspan></text>
<text id="Symbols are supported in up to nine weights and three scales." fill="black" xml:space="preserve" style="white-space: pre" font-family="Roboto" font-size="12" letter-spacing="0em"><tspan x="263" y="1970.1">Symbols are supported in up to nine weights and three scales.</tspan></text>
<text id="For optimal layout with text and other symbols, vertically align" fill="black" xml:space="preserve" style="white-space: pre" font-family="Roboto" font-size="12" letter-spacing="0em"><tspan x="263" y="1988.1">For optimal layout with text and other symbols, vertically align</tspan></text>
<text id="symbols with the adjacent text." fill="black" xml:space="preserve" style="white-space: pre" font-family="Roboto" font-size="12" letter-spacing="0em"><tspan x="263" y="2006.1">symbols with the adjacent text.</tspan></text>
<path id="Vector_6" opacity="0.4" d="M779 1919H776V1933H779V1919Z" fill="#00AEEF"/>
<g id="Group_4">
<path id="Vector_7" d="M789.527 1933H791.373L786.178 1918.91H784.439L779.244 1933H781.09L782.506 1928.96H788.111L789.527 1933ZM785.279 1921.04H785.338L787.594 1927.47H783.023L785.279 1921.04Z" fill="black"/>
</g>
<path id="Vector_8" opacity="0.4" d="M794.617 1919H791.617V1933H794.617V1919Z" fill="#00AEEF"/>
<text id="Margins" fill="black" xml:space="preserve" style="white-space: pre" font-family="Roboto" font-size="12" letter-spacing="0em"><tspan x="776" y="1952.1">Margins</tspan></text>
<text id="Leading and trailing margins on the left and right side of each symbol" fill="black" xml:space="preserve" style="white-space: pre" font-family="Roboto" font-size="12" letter-spacing="0em"><tspan x="776" y="1970.1">Leading and trailing margins on the left and right side of each symbol</tspan></text>
<text id="can be adjusted by modifying the width of the blue rectangles." fill="black" xml:space="preserve" style="white-space: pre" font-family="Roboto" font-size="12" letter-spacing="0em"><tspan x="776" y="1988.1">can be adjusted by modifying the width of the blue rectangles.</tspan></text>
<text id="Modifications are automatically applied proportionally to all" fill="black" xml:space="preserve" style="white-space: pre" font-family="Roboto" font-size="12" letter-spacing="0em"><tspan x="776" y="2006.1">Modifications are automatically applied proportionally to all</tspan></text>
<text id="scales and weights." fill="black" xml:space="preserve" style="white-space: pre" font-family="Roboto" font-size="12" letter-spacing="0em"><tspan x="776" y="2024.1">scales and weights.</tspan></text>
<g id="Group_5">
<path id="Vector_9" d="M1291.83 1936.11L1293.37 1937.66C1294.22 1938.49 1295.19 1938.42 1296.06 1937.46L1306.27 1926.34C1306.7 1926.63 1307.1 1926.62 1307.56 1926.52L1308.61 1926.31L1309.3 1927L1309.25 1927.52C1309.19 1928.05 1309.35 1928.47 1309.85 1928.97L1310.66 1929.78C1311.17 1930.28 1311.82 1930.31 1312.3 1929.83L1315.55 1926.58C1316.03 1926.1 1316.01 1925.45 1315.5 1924.94L1314.68 1924.12C1314.19 1923.62 1313.77 1923.45 1313.24 1923.53L1312.71 1923.58L1312.06 1922.92L1312.34 1921.78C1312.49 1921.21 1312.34 1920.74 1311.71 1920.14L1309.3 1917.75C1305.76 1914.22 1301.23 1914.33 1298.11 1917.46C1297.69 1917.89 1297.64 1918.48 1297.92 1918.91C1298.15 1919.28 1298.63 1919.5 1299.27 1919.34C1300.79 1918.96 1302.3 1919.07 1303.78 1920.08L1303.16 1921.66C1302.93 1922.25 1302.94 1922.73 1303.18 1923.16L1292.02 1933.44C1291.08 1934.31 1290.97 1935.25 1291.83 1936.11ZM1299.67 1917.85C1302.34 1915.86 1305.65 1916.17 1308.05 1918.58L1310.68 1921.19C1310.91 1921.43 1310.94 1921.61 1310.88 1921.91L1310.5 1923.47L1312.08 1925.04L1313.04 1924.95C1313.33 1924.92 1313.41 1924.94 1313.64 1925.17L1314.26 1925.79L1311.51 1928.54L1310.88 1927.92C1310.66 1927.7 1310.64 1927.6 1310.67 1927.32L1310.76 1926.36L1309.19 1924.8L1307.57 1925.11C1307.29 1925.17 1307.14 1925.17 1306.91 1924.92L1304.73 1922.75C1304.51 1922.51 1304.48 1922.37 1304.61 1922.05L1305.55 1919.78C1303.95 1918.24 1301.84 1917.39 1299.8 1918.05C1299.71 1918.08 1299.64 1918.06 1299.61 1918.02C1299.59 1917.97 1299.59 1917.92 1299.67 1917.85ZM1293.1 1935.41C1292.61 1934.91 1292.79 1934.61 1293.12 1934.31L1304.08 1924.19L1305.31 1925.42L1295.15 1936.35C1294.85 1936.68 1294.47 1936.78 1294.07 1936.38L1293.1 1935.41Z" fill="black"/>
</g>
<text id="Exporting" fill="black" xml:space="preserve" style="white-space: pre" font-family="Roboto" font-size="12" letter-spacing="0em"><tspan x="1289" y="1952.1">Exporting</tspan></text>
<text id="Symbols should be outlined when exporting to ensure the" fill="black" xml:space="preserve" style="white-space: pre" font-family="Roboto" font-size="12" letter-spacing="0em"><tspan x="1289" y="1970.1">Symbols should be outlined when exporting to ensure the</tspan></text>
<text id="design is preserved when submitting to Xcode." fill="black" xml:space="preserve" style="white-space: pre" font-family="Roboto" font-size="12" letter-spacing="0em"><tspan x="1289" y="1988.1">design is preserved when submitting to Xcode.</tspan></text>
<text id="template-version" fill="black" xml:space="preserve" style="white-space: pre" font-family="Roboto" font-size="12" letter-spacing="0em"><tspan x="2958" y="1932.1">Template v.1.0</tspan></text>
<text id="Generated from pencil.circle" fill="black" xml:space="preserve" style="white-space: pre" font-family="Roboto" font-size="12" letter-spacing="0em"><tspan x="2885" y="1950.1">Generated from pencil.circle</tspan></text>
<text id="Typeset at 100 points" fill="black" xml:space="preserve" style="white-space: pre" font-family="Roboto" font-size="12" letter-spacing="0em"><tspan x="2921" y="1968.1">Typeset at 100 points</tspan></text>
<text id="Small" fill="black" xml:space="preserve" style="white-space: pre" font-family="Roboto" font-size="12" letter-spacing="0em"><tspan x="263" y="725.102">Small</tspan></text>
<text id="Medium_2" fill="black" xml:space="preserve" style="white-space: pre" font-family="Roboto" font-size="12" letter-spacing="0em"><tspan x="263" y="1155.1">Medium</tspan></text>
<text id="Large" fill="black" xml:space="preserve" style="white-space: pre" font-family="Roboto" font-size="12" letter-spacing="0em"><tspan x="263" y="1585.1">Large</tspan></text>
</g>
<g id="Guides">
<g id="H-reference">
<path id="Vector_10" d="M393.932 695.998H396.666L369.566 625.539H367.076L339.977 695.998H342.662L351.94 671.535H384.703L393.932 695.998ZM368.199 628.908H368.443L383.824 669.289H352.818L368.199 628.908Z" fill="#27AAE1"/>
</g>
<path id="Baseline-S" d="M263 696H3036" stroke="#27AAE1" stroke-width="0.577"/>
<path id="Capline-S" d="M263 626H3036" stroke="#27AAE1" stroke-width="0.577"/>
<g id="H-reference_2">
<path id="Vector_11" d="M393.932 1126H396.666L369.566 1055.54H367.076L339.977 1126H342.662L351.94 1101.54H384.703L393.932 1126ZM368.199 1058.91H368.443L383.824 1099.29H352.818L368.199 1058.91Z" fill="#27AAE1"/>
</g>
<path id="Baseline-M" d="M263 1126H3036" stroke="#27AAE1" stroke-width="0.577"/>
<path id="Capline-M" d="M263 1056H3036" stroke="#27AAE1" stroke-width="0.577"/>
<g id="H-reference_3">
<path id="Vector_12" d="M393.932 1556H396.666L369.566 1485.54H367.076L339.977 1556H342.662L351.94 1531.54H384.703L393.932 1556ZM368.199 1488.91H368.443L383.824 1529.29H352.818L368.199 1488.91Z" fill="#27AAE1"/>
</g>
<g id="Group 1">
<path id="Baseline-L" d="M263 1556H3036" stroke="#27AAE1" stroke-width="0.577"/>
<path id="Capline-L" d="M263 1486H3036" stroke="#27AAE1" stroke-width="0.577"/>
</g>
<path id="left-margin" opacity="0.4" d="M1395.04 1030.79H1386.3V1150.12H1395.04V1030.79Z" fill="#00AEEF"/>
<path id="right-margin" opacity="0.4" d="M1512.39 1030.79H1503.65V1150.12H1512.39V1030.79Z" fill="#00AEEF"/>
</g>
<g id="Symbols">
<g id="Black-L">
<g id="Solid / Star Solid">
<path id="Shape" d="M2933.73 1455.84L2952.18 1493.26L2993.5 1499.26C2997.78 1499.86 2999.5 1505.19 2996.43 1508.19L2966.5 1537.29L2973.55 1578.39C2974.3 1582.66 2969.8 1585.96 2965.9 1583.94L2929 1564.59L2892.1 1584.01C2888.28 1586.04 2883.78 1582.74 2884.45 1578.46L2891.5 1537.29L2861.65 1508.19C2858.5 1505.19 2860.23 1499.86 2864.5 1499.26L2905.83 1493.26L2924.28 1455.84C2926.23 1451.94 2931.78 1451.94 2933.73 1455.84Z" fill="black"/>
</g>
</g>
<g id="Heavy-L">
<g id="Solid / Star Solid_2">
<path id="Shape_2" d="M2637.73 1455.84L2656.18 1493.26L2697.5 1499.26C2701.78 1499.86 2703.5 1505.19 2700.43 1508.19L2670.5 1537.29L2677.55 1578.39C2678.3 1582.66 2673.8 1585.96 2669.9 1583.94L2633 1564.59L2596.1 1584.01C2592.28 1586.04 2587.78 1582.74 2588.45 1578.46L2595.5 1537.29L2565.65 1508.19C2562.5 1505.19 2564.23 1499.86 2568.5 1499.26L2609.83 1493.26L2628.28 1455.84C2630.23 1451.94 2635.78 1451.94 2637.73 1455.84Z" fill="black"/>
</g>
</g>
<g id="Bold-L">
<g id="Solid / Star Solid_3">
<path id="Shape_3" d="M2341.73 1455.84L2360.18 1493.26L2401.5 1499.26C2405.78 1499.86 2407.5 1505.19 2404.43 1508.19L2374.5 1537.29L2381.55 1578.39C2382.3 1582.66 2377.8 1585.96 2373.9 1583.94L2337 1564.59L2300.1 1584.01C2296.28 1586.04 2291.78 1582.74 2292.45 1578.46L2299.5 1537.29L2269.65 1508.19C2266.5 1505.19 2268.23 1499.86 2272.5 1499.26L2313.83 1493.26L2332.28 1455.84C2334.23 1451.94 2339.78 1451.94 2341.73 1455.84Z" fill="black"/>
</g>
</g>
<g id="Semibold-L">
<g id="Solid / Star Solid_4">
<path id="Shape_4" d="M2045.73 1455.84L2064.18 1493.26L2105.5 1499.26C2109.78 1499.86 2111.5 1505.19 2108.43 1508.19L2078.5 1537.29L2085.55 1578.39C2086.3 1582.66 2081.8 1585.96 2077.9 1583.94L2041 1564.59L2004.1 1584.01C2000.28 1586.04 1995.78 1582.74 1996.45 1578.46L2003.5 1537.29L1973.65 1508.19C1970.5 1505.19 1972.23 1499.86 1976.5 1499.26L2017.83 1493.26L2036.28 1455.84C2038.23 1451.94 2043.78 1451.94 2045.73 1455.84Z" fill="black"/>
</g>
</g>
<g id="Medium-L">
<g id="Solid / Star Solid_5">
<path id="Shape_5" d="M1749.73 1455.84L1768.18 1493.26L1809.5 1499.26C1813.78 1499.86 1815.5 1505.19 1812.43 1508.19L1782.5 1537.29L1789.55 1578.39C1790.3 1582.66 1785.8 1585.96 1781.9 1583.94L1745 1564.59L1708.1 1584.01C1704.28 1586.04 1699.78 1582.74 1700.45 1578.46L1707.5 1537.29L1677.65 1508.19C1674.5 1505.19 1676.23 1499.86 1680.5 1499.26L1721.83 1493.26L1740.28 1455.84C1742.23 1451.94 1747.78 1451.94 1749.73 1455.84Z" fill="black"/>
</g>
</g>
<g id="Regular-L">
<g id="Solid / Star Solid_6">
<path id="Shape_6" d="M1453.73 1455.84L1472.18 1493.26L1513.5 1499.26C1517.78 1499.86 1519.5 1505.19 1516.43 1508.19L1486.5 1537.29L1493.55 1578.39C1494.3 1582.66 1489.8 1585.96 1485.9 1583.94L1449 1564.59L1412.1 1584.01C1408.28 1586.04 1403.78 1582.74 1404.45 1578.46L1411.5 1537.29L1381.65 1508.19C1378.5 1505.19 1380.23 1499.86 1384.5 1499.26L1425.83 1493.26L1444.28 1455.84C1446.23 1451.94 1451.78 1451.94 1453.73 1455.84Z" fill="black"/>
</g>
</g>
<g id="Light-L">
<g id="Solid / Star Solid_7">
<path id="Shape_7" d="M1157.73 1455.84L1176.18 1493.26L1217.5 1499.26C1221.78 1499.86 1223.5 1505.19 1220.43 1508.19L1190.5 1537.29L1197.55 1578.39C1198.3 1582.66 1193.8 1585.96 1189.9 1583.94L1153 1564.59L1116.1 1584.01C1112.28 1586.04 1107.78 1582.74 1108.45 1578.46L1115.5 1537.29L1085.65 1508.19C1082.5 1505.19 1084.23 1499.86 1088.5 1499.26L1129.83 1493.26L1148.28 1455.84C1150.23 1451.94 1155.78 1451.94 1157.73 1455.84Z" fill="black"/>
</g>
</g>
<g id="Thin-L">
<g id="Solid / Star Solid_8">
<path id="Shape_8" d="M861.726 1455.84L880.176 1493.26L921.501 1499.26C925.776 1499.86 927.501 1505.19 924.426 1508.19L894.501 1537.29L901.551 1578.39C902.301 1582.66 897.801 1585.96 893.901 1583.94L857.001 1564.59L820.101 1584.01C816.276 1586.04 811.776 1582.74 812.451 1578.46L819.501 1537.29L789.651 1508.19C786.501 1505.19 788.226 1499.86 792.501 1499.26L833.826 1493.26L852.276 1455.84C854.226 1451.94 859.776 1451.94 861.726 1455.84Z" fill="black"/>
</g>
</g>
<g id="Ultralight-L">
<g id="Solid / Star Solid_9">
<path id="Shape_9" d="M565.726 1455.84L584.176 1493.26L625.501 1499.26C629.776 1499.86 631.501 1505.19 628.426 1508.19L598.501 1537.29L605.551 1578.39C606.301 1582.66 601.801 1585.96 597.901 1583.94L561.001 1564.59L524.101 1584.01C520.276 1586.04 515.776 1582.74 516.451 1578.46L523.501 1537.29L493.651 1508.19C490.501 1505.19 492.226 1499.86 496.501 1499.26L537.826 1493.26L556.276 1455.84C558.226 1451.94 563.776 1451.94 565.726 1455.84Z" fill="black"/>
</g>
</g>
<g id="Black-M">
<g id="Solid / Star Solid_10">
<path id="Shape_10" d="M2932.68 1040.32L2947.03 1069.43L2979.17 1074.09C2982.49 1074.56 2983.83 1078.7 2981.44 1081.03L2958.17 1103.67L2963.65 1135.63C2964.23 1138.96 2960.73 1141.53 2957.7 1139.95L2929 1124.9L2900.3 1140.01C2897.33 1141.58 2893.83 1139.02 2894.35 1135.69L2899.83 1103.67L2876.62 1081.03C2874.17 1078.7 2875.51 1074.56 2878.83 1074.09L2910.98 1069.43L2925.33 1040.32C2926.84 1037.28 2931.16 1037.28 2932.68 1040.32Z" fill="black"/>
</g>
</g>
<g id="Heavy-M">
<g id="Solid / Star Solid_11">
<path id="Shape_11" d="M2636.68 1040.32L2651.03 1069.43L2683.17 1074.09C2686.49 1074.56 2687.83 1078.7 2685.44 1081.03L2662.17 1103.67L2667.65 1135.63C2668.23 1138.96 2664.73 1141.53 2661.7 1139.95L2633 1124.9L2604.3 1140.01C2601.33 1141.58 2597.83 1139.02 2598.35 1135.69L2603.83 1103.67L2580.62 1081.03C2578.17 1078.7 2579.51 1074.56 2582.83 1074.09L2614.98 1069.43L2629.33 1040.32C2630.84 1037.28 2635.16 1037.28 2636.68 1040.32Z" fill="black"/>
</g>
</g>
<g id="Bold-M">
<g id="Solid / Star Solid_12">
<path id="Shape_12" d="M2340.68 1040.32L2355.03 1069.43L2387.17 1074.09C2390.49 1074.56 2391.83 1078.7 2389.44 1081.03L2366.17 1103.67L2371.65 1135.63C2372.23 1138.96 2368.73 1141.53 2365.7 1139.95L2337 1124.9L2308.3 1140.01C2305.33 1141.58 2301.83 1139.02 2302.35 1135.69L2307.83 1103.67L2284.62 1081.03C2282.17 1078.7 2283.51 1074.56 2286.83 1074.09L2318.98 1069.43L2333.33 1040.32C2334.84 1037.28 2339.16 1037.28 2340.68 1040.32Z" fill="black"/>
</g>
</g>
<g id="Semibold-M">
<g id="Solid / Star Solid_13">
<path id="Shape_13" d="M2044.68 1040.32L2059.03 1069.43L2091.17 1074.09C2094.49 1074.56 2095.83 1078.7 2093.44 1081.03L2070.17 1103.67L2075.65 1135.63C2076.23 1138.96 2072.73 1141.53 2069.7 1139.95L2041 1124.9L2012.3 1140.01C2009.33 1141.58 2005.83 1139.02 2006.35 1135.69L2011.83 1103.67L1988.62 1081.03C1986.17 1078.7 1987.51 1074.56 1990.83 1074.09L2022.98 1069.43L2037.33 1040.32C2038.84 1037.28 2043.16 1037.28 2044.68 1040.32Z" fill="black"/>
</g>
</g>
<g id="Medium-M">
<g id="Solid / Star Solid_14">
<path id="Shape_14" d="M1748.68 1040.32L1763.03 1069.43L1795.17 1074.09C1798.49 1074.56 1799.83 1078.7 1797.44 1081.03L1774.17 1103.67L1779.65 1135.63C1780.23 1138.96 1776.73 1141.53 1773.7 1139.95L1745 1124.9L1716.3 1140.01C1713.33 1141.58 1709.83 1139.02 1710.35 1135.69L1715.83 1103.67L1692.62 1081.03C1690.17 1078.7 1691.51 1074.56 1694.83 1074.09L1726.98 1069.43L1741.33 1040.32C1742.84 1037.28 1747.16 1037.28 1748.68 1040.32Z" fill="black"/>
</g>
</g>
<g id="Regular-M">
<g id="Solid / Star Solid_15">
<path id="Shape_15" d="M1452.68 1040.32L1467.03 1069.43L1499.17 1074.09C1502.49 1074.56 1503.83 1078.7 1501.44 1081.03L1478.17 1103.67L1483.65 1135.63C1484.23 1138.96 1480.73 1141.53 1477.7 1139.95L1449 1124.9L1420.3 1140.01C1417.33 1141.58 1413.83 1139.02 1414.35 1135.69L1419.83 1103.67L1396.62 1081.03C1394.17 1078.7 1395.51 1074.56 1398.83 1074.09L1430.98 1069.43L1445.33 1040.32C1446.84 1037.28 1451.16 1037.28 1452.68 1040.32Z" fill="black"/>
</g>
</g>
<g id="Light-M">
<g id="Solid / Star Solid_16">
<path id="Shape_16" d="M1156.68 1040.32L1171.03 1069.43L1203.17 1074.09C1206.49 1074.56 1207.83 1078.7 1205.44 1081.03L1182.17 1103.67L1187.65 1135.63C1188.23 1138.96 1184.73 1141.53 1181.7 1139.95L1153 1124.9L1124.3 1140.01C1121.33 1141.58 1117.83 1139.02 1118.35 1135.69L1123.83 1103.67L1100.62 1081.03C1098.17 1078.7 1099.51 1074.56 1102.83 1074.09L1134.98 1069.43L1149.33 1040.32C1150.84 1037.28 1155.16 1037.28 1156.68 1040.32Z" fill="black"/>
</g>
</g>
<g id="Thin-M">
<g id="Solid / Star Solid_17">
<path id="Shape_17" d="M860.676 1040.32L875.026 1069.43L907.168 1074.09C910.493 1074.56 911.835 1078.7 909.443 1081.03L886.168 1103.67L891.651 1135.63C892.235 1138.96 888.735 1141.53 885.701 1139.95L857.001 1124.9L828.301 1140.01C825.326 1141.58 821.826 1139.02 822.351 1135.69L827.835 1103.67L804.618 1081.03C802.168 1078.7 803.51 1074.56 806.835 1074.09L838.976 1069.43L853.326 1040.32C854.843 1037.28 859.16 1037.28 860.676 1040.32Z" fill="black"/>
</g>
</g>
<g id="Ultralight-M">
<g id="Solid / Star Solid_18">
<path id="Shape_18" d="M564.676 1040.32L579.026 1069.43L611.168 1074.09C614.493 1074.56 615.835 1078.7 613.443 1081.03L590.168 1103.67L595.651 1135.63C596.235 1138.96 592.735 1141.53 589.701 1139.95L561.001 1124.9L532.301 1140.01C529.326 1141.58 525.826 1139.02 526.351 1135.69L531.835 1103.67L508.618 1081.03C506.168 1078.7 507.51 1074.56 510.835 1074.09L542.976 1069.43L557.326 1040.32C558.843 1037.28 563.16 1037.28 564.676 1040.32Z" fill="black"/>
</g>
</g>
<g id="Black-S">
<g id="Solid / Star Solid_19">
<path id="Shape_19" d="M2931.62 624.801L2941.87 645.592L2964.83 648.926C2967.21 649.259 2968.17 652.217 2966.46 653.884L2949.83 670.051L2953.75 692.884C2954.17 695.259 2951.67 697.092 2949.5 695.967L2929 685.217L2908.5 696.009C2906.37 697.134 2903.87 695.301 2904.25 692.926L2908.17 670.051L2891.58 653.884C2889.83 652.217 2890.79 649.259 2893.17 648.926L2916.12 645.592L2926.37 624.801C2927.46 622.634 2930.54 622.634 2931.62 624.801Z" fill="black"/>
</g>
</g>
<g id="Heavy-S">
<g id="Solid / Star Solid_20">
<path id="Shape_20" d="M2635.62 624.801L2645.87 645.592L2668.83 648.926C2671.21 649.259 2672.17 652.217 2670.46 653.884L2653.83 670.051L2657.75 692.884C2658.17 695.259 2655.67 697.092 2653.5 695.967L2633 685.217L2612.5 696.009C2610.37 697.134 2607.87 695.301 2608.25 692.926L2612.17 670.051L2595.58 653.884C2593.83 652.217 2594.79 649.259 2597.17 648.926L2620.12 645.592L2630.37 624.801C2631.46 622.634 2634.54 622.634 2635.62 624.801Z" fill="black"/>
</g>
</g>
<g id="Bold-S">
<g id="Solid / Star Solid_21">
<path id="Shape_21" d="M2339.62 624.801L2349.87 645.592L2372.83 648.926C2375.21 649.259 2376.17 652.217 2374.46 653.884L2357.83 670.051L2361.75 692.884C2362.17 695.259 2359.67 697.092 2357.5 695.967L2337 685.217L2316.5 696.009C2314.37 697.134 2311.87 695.301 2312.25 692.926L2316.17 670.051L2299.58 653.884C2297.83 652.217 2298.79 649.259 2301.17 648.926L2324.12 645.592L2334.37 624.801C2335.46 622.634 2338.54 622.634 2339.62 624.801Z" fill="black"/>
</g>
</g>
<g id="Semibold-S">
<g id="Solid / Star Solid_22">
<path id="Shape_22" d="M2043.62 624.801L2053.87 645.592L2076.83 648.926C2079.21 649.259 2080.17 652.217 2078.46 653.884L2061.83 670.051L2065.75 692.884C2066.17 695.259 2063.67 697.092 2061.5 695.967L2041 685.217L2020.5 696.009C2018.37 697.134 2015.87 695.301 2016.25 692.926L2020.17 670.051L2003.58 653.884C2001.83 652.217 2002.79 649.259 2005.17 648.926L2028.12 645.592L2038.37 624.801C2039.46 622.634 2042.54 622.634 2043.62 624.801Z" fill="black"/>
</g>
</g>
<g id="Medium-S">
<g id="Solid / Star Solid_23">
<path id="Shape_23" d="M1747.62 624.801L1757.87 645.592L1780.83 648.926C1783.21 649.259 1784.17 652.217 1782.46 653.884L1765.83 670.051L1769.75 692.884C1770.17 695.259 1767.67 697.092 1765.5 695.967L1745 685.217L1724.5 696.009C1722.37 697.134 1719.87 695.301 1720.25 692.926L1724.17 670.051L1707.58 653.884C1705.83 652.217 1706.79 649.259 1709.17 648.926L1732.12 645.592L1742.37 624.801C1743.46 622.634 1746.54 622.634 1747.62 624.801Z" fill="black"/>
</g>
</g>
<g id="Regular-S">
<g id="Solid / Star Solid_24">
<path id="Shape_24" d="M1451.62 624.801L1461.87 645.592L1484.83 648.926C1487.21 649.259 1488.17 652.217 1486.46 653.884L1469.83 670.051L1473.75 692.884C1474.17 695.259 1471.67 697.092 1469.5 695.967L1449 685.217L1428.5 696.009C1426.37 697.134 1423.87 695.301 1424.25 692.926L1428.17 670.051L1411.58 653.884C1409.83 652.217 1410.79 649.259 1413.17 648.926L1436.12 645.592L1446.37 624.801C1447.46 622.634 1450.54 622.634 1451.62 624.801Z" fill="black"/>
</g>
</g>
<g id="Light-S">
<g id="Solid / Star Solid_25">
<path id="Shape_25" d="M1155.62 624.801L1165.87 645.592L1188.83 648.926C1191.21 649.259 1192.17 652.217 1190.46 653.884L1173.83 670.051L1177.75 692.884C1178.17 695.259 1175.67 697.092 1173.5 695.967L1153 685.217L1132.5 696.009C1130.37 697.134 1127.87 695.301 1128.25 692.926L1132.17 670.051L1115.58 653.884C1113.83 652.217 1114.79 649.259 1117.17 648.926L1140.12 645.592L1150.37 624.801C1151.46 622.634 1154.54 622.634 1155.62 624.801Z" fill="black"/>
</g>
</g>
<g id="Thin-S">
<g id="Solid / Star Solid_26">
<path id="Shape_26" d="M859.625 624.801L869.875 645.592L892.833 648.926C895.208 649.259 896.166 652.217 894.458 653.884L877.833 670.051L881.75 692.884C882.167 695.259 879.667 697.092 877.5 695.967L857 685.217L836.5 696.009C834.375 697.134 831.875 695.301 832.25 692.926L836.166 670.051L819.583 653.884C817.833 652.217 818.791 649.259 821.166 648.926L844.125 645.592L854.375 624.801C855.458 622.634 858.542 622.634 859.625 624.801Z" fill="black"/>
</g>
</g>
<g id="Ultralight-S">
<g id="Solid / Star Solid_27">
<path id="Shape_27" d="M563.625 624.801L573.875 645.592L596.833 648.926C599.208 649.259 600.166 652.217 598.458 653.884L581.833 670.051L585.75 692.884C586.167 695.259 583.667 697.092 581.5 695.967L561 685.217L540.5 696.009C538.375 697.134 535.875 695.301 536.25 692.926L540.166 670.051L523.583 653.884C521.833 652.217 522.791 649.259 525.166 648.926L548.125 645.592L558.375 624.801C559.458 622.634 562.542 622.634 563.625 624.801Z" fill="black"/>
</g>
</g>
</g>
</g>
<defs>
<clipPath id="clip0_805_27002">
<rect width="3300" height="2200" fill="white"/>
</clipPath>
</defs>
</svg>
