<svg xmlns="http://www.w3.org/2000/svg" width="3300" height="2200" fill="none"><path fill="#E5E5E5" d="M0 0h3300v2200H0z"/><g id="Category / Solid / Scheme" clip-path="url(#clip0_0_1)"><g id="Notes"><path id="artboard" fill="#fff" d="M3300 0H0v2200h3300V0Z"/><path id="Vector" stroke="#000" stroke-width=".5" d="M263 292h2773"/><text xml:space="preserve" id="Weight/Scale Variations" fill="#000" font-family="Roboto" font-size="12" letter-spacing="0em" style="white-space:pre"><tspan x="263" y="321.102">Weight/Scale Variations</tspan></text><text xml:space="preserve" id="Ultralight" fill="#000" font-family="Roboto" font-size="12" letter-spacing="0em" style="white-space:pre"><tspan x="535.211" y="321.102">Ultralight</tspan></text><text xml:space="preserve" id="Thin" fill="#000" font-family="Roboto" font-size="12" letter-spacing="0em" style="white-space:pre"><tspan x="844.422" y="321.102">Thin</tspan></text><text xml:space="preserve" id="Light" fill="#000" font-family="Roboto" font-size="12" letter-spacing="0em" style="white-space:pre"><tspan x="1139.63" y="321.102">Light</tspan></text><text xml:space="preserve" id="Regular" fill="#000" font-family="Roboto" font-size="12" letter-spacing="0em" style="white-space:pre"><tspan x="1429.34" y="321.102">Regular</tspan></text><text xml:space="preserve" id="Medium" fill="#000" font-family="Roboto" font-size="12" letter-spacing="0em" style="white-space:pre"><tspan x="1724.56" y="321.102">Medium</tspan></text><text xml:space="preserve" id="Semibold" fill="#000" font-family="Roboto" font-size="12" letter-spacing="0em" style="white-space:pre"><tspan x="2017.77" y="321.102">Semibold</tspan></text><text xml:space="preserve" id="Bold" fill="#000" font-family="Roboto" font-size="12" letter-spacing="0em" style="white-space:pre"><tspan x="2327.48" y="321.102">Bold</tspan></text><text xml:space="preserve" id="Heavy" fill="#000" font-family="Roboto" font-size="12" letter-spacing="0em" style="white-space:pre"><tspan x="2620.19" y="321.102">Heavy</tspan></text><text xml:space="preserve" id="Black" fill="#000" font-family="Roboto" font-size="12" letter-spacing="0em" style="white-space:pre"><tspan x="2918.4" y="321.102">Black</tspan></text><path id="Vector_2" stroke="#000" stroke-width=".5" d="M263 1903h2773"/><g id="Group"><path id="Vector_3" fill="#000" d="M272.248 1933.83c4.307 0 7.891-3.57 7.891-7.88 0-4.31-3.594-7.88-7.901-7.88-4.297 0-7.871 3.57-7.871 7.88 0 4.31 3.584 7.88 7.881 7.88Zm0-1.48c-3.545 0-6.377-2.84-6.377-6.4 0-3.55 2.822-6.4 6.367-6.4a6.388 6.388 0 0 1 6.406 6.4 6.361 6.361 0 0 1-6.396 6.4Zm-.019-2.78c.468 0 .742-.31.742-.83v-2.06h2.226c.498 0 .84-.25.84-.72 0-.48-.322-.74-.84-.74h-2.226v-2.23c0-.52-.274-.84-.742-.84-.469 0-.723.34-.723.84v2.23h-2.207c-.518 0-.85.26-.85.74 0 .47.352.72.85.72h2.207v2.06c0 .5.254.83.723.83Z"/></g><g id="Group_2"><path id="Vector_4" fill="#000" d="M293.215 1935.91c5.449 0 9.961-4.51 9.961-9.96 0-5.44-4.522-9.96-9.971-9.96-5.439 0-9.951 4.52-9.951 9.96 0 5.45 4.521 9.96 9.961 9.96Zm0-1.66a8.26 8.26 0 0 1-8.291-8.3c0-4.6 3.672-8.3 8.281-8.3a8.29 8.29 0 0 1 8.311 8.3 8.263 8.263 0 0 1-8.301 8.3Zm-.02-3.66c.518 0 .83-.36.83-.93v-2.89h3.057c.547 0 .928-.28.928-.8 0-.53-.362-.83-.928-.83h-3.057v-3.07c0-.57-.312-.93-.83-.93-.517 0-.81.38-.81.93v3.07h-3.047c-.567 0-.938.3-.938.83 0 .52.391.8.938.8h3.047v2.89c0 .55.293.93.81.93Z"/></g><g id="Group_3"><path id="Vector_5" fill="#000" d="M319.895 1938.67c6.962 0 12.724-5.75 12.724-12.71 0-6.97-5.771-12.72-12.734-12.72-6.953 0-12.705 5.75-12.705 12.72 0 6.96 5.761 12.71 12.715 12.71Zm0-1.81a10.874 10.874 0 0 1-10.889-10.9c0-6.04 4.844-10.9 10.879-10.9 6.045 0 10.898 4.86 10.908 10.9a10.87 10.87 0 0 1-10.898 10.9Zm-.02-4.93c.566 0 .918-.39.918-.99v-4.07h4.238c.586 0 1.006-.34 1.006-.89 0-.58-.39-.92-1.006-.92h-4.238v-4.25c0-.61-.352-1.01-.918-1.01-.566 0-.889.41-.889 1.01v4.25h-4.228c-.615 0-1.026.34-1.026.92 0 .55.43.89 1.026.89h4.228v4.07c0 .58.323.99.889.99Z"/></g><text xml:space="preserve" id="Design Variations" fill="#000" font-family="Roboto" font-size="12" letter-spacing="0em" style="white-space:pre"><tspan x="263" y="1952.1">Design Variations</tspan></text><text xml:space="preserve" id="Symbols are supported in up to nine weights and three scales." fill="#000" font-family="Roboto" font-size="12" letter-spacing="0em" style="white-space:pre"><tspan x="263" y="1970.1">Symbols are supported in up to nine weights and three scales.</tspan></text><text xml:space="preserve" id="For optimal layout with text and other symbols, vertically align" fill="#000" font-family="Roboto" font-size="12" letter-spacing="0em" style="white-space:pre"><tspan x="263" y="1988.1">For optimal layout with text and other symbols, vertically align</tspan></text><text xml:space="preserve" id="symbols with the adjacent text." fill="#000" font-family="Roboto" font-size="12" letter-spacing="0em" style="white-space:pre"><tspan x="263" y="2006.1">symbols with the adjacent text.</tspan></text><path id="Vector_6" fill="#00AEEF" d="M779 1919h-3v14h3v-14Z" opacity=".4"/><g id="Group_4"><path id="Vector_7" fill="#000" d="M789.527 1933h1.846l-5.195-14.09h-1.739l-5.195 14.09h1.846l1.416-4.04h5.605l1.416 4.04Zm-4.248-11.96h.059l2.256 6.43h-4.571l2.256-6.43Z"/></g><path id="Vector_8" fill="#00AEEF" d="M794.617 1919h-3v14h3v-14Z" opacity=".4"/><text xml:space="preserve" id="Margins" fill="#000" font-family="Roboto" font-size="12" letter-spacing="0em" style="white-space:pre"><tspan x="776" y="1952.1">Margins</tspan></text><text xml:space="preserve" id="Leading and trailing margins on the left and right side of each symbol" fill="#000" font-family="Roboto" font-size="12" letter-spacing="0em" style="white-space:pre"><tspan x="776" y="1970.1">Leading and trailing margins on the left and right side of each symbol</tspan></text><text xml:space="preserve" id="can be adjusted by modifying the width of the blue rectangles." fill="#000" font-family="Roboto" font-size="12" letter-spacing="0em" style="white-space:pre"><tspan x="776" y="1988.1">can be adjusted by modifying the width of the blue rectangles.</tspan></text><text xml:space="preserve" id="Modifications are automatically applied proportionally to all" fill="#000" font-family="Roboto" font-size="12" letter-spacing="0em" style="white-space:pre"><tspan x="776" y="2006.1">Modifications are automatically applied proportionally to all</tspan></text><text xml:space="preserve" id="scales and weights." fill="#000" font-family="Roboto" font-size="12" letter-spacing="0em" style="white-space:pre"><tspan x="776" y="2024.1">scales and weights.</tspan></text><g id="Group_5"><path id="Vector_9" fill="#000" d="m1291.83 1936.11 1.54 1.55c.85.83 1.82.76 2.69-.2l10.21-11.12c.43.29.83.28 1.29.18l1.05-.21.69.69-.05.52c-.06.53.1.95.6 1.45l.81.81c.51.5 1.16.53 1.64.05l3.25-3.25c.48-.48.46-1.13-.05-1.64l-.82-.82c-.49-.5-.91-.67-1.44-.59l-.53.05-.65-.66.28-1.14c.15-.57 0-1.04-.63-1.64l-2.41-2.39c-3.54-3.53-8.07-3.42-11.19-.29-.42.43-.47 1.02-.19 1.45.23.37.71.59 1.35.43 1.52-.38 3.03-.27 4.51.74l-.62 1.58c-.23.59-.22 1.07.02 1.5l-11.16 10.28c-.94.87-1.05 1.81-.19 2.67Zm7.84-18.26c2.67-1.99 5.98-1.68 8.38.73l2.63 2.61c.23.24.26.42.2.72l-.38 1.56 1.58 1.57.96-.09c.29-.03.37-.01.6.22l.62.62-2.75 2.75-.63-.62c-.22-.22-.24-.32-.21-.6l.09-.96-1.57-1.56-1.62.31c-.28.06-.43.06-.66-.19l-2.18-2.17c-.22-.24-.25-.38-.12-.7l.94-2.27c-1.6-1.54-3.71-2.39-5.75-1.73-.09.03-.16.01-.19-.03-.02-.05-.02-.1.06-.17Zm-6.57 17.56c-.49-.5-.31-.8.02-1.1l10.96-10.12 1.23 1.23-10.16 10.93c-.3.33-.68.43-1.08.03l-.97-.97Z"/></g><text xml:space="preserve" id="Exporting" fill="#000" font-family="Roboto" font-size="12" letter-spacing="0em" style="white-space:pre"><tspan x="1289" y="1952.1">Exporting</tspan></text><text xml:space="preserve" id="Symbols should be outlined when exporting to ensure the" fill="#000" font-family="Roboto" font-size="12" letter-spacing="0em" style="white-space:pre"><tspan x="1289" y="1970.1">Symbols should be outlined when exporting to ensure the</tspan></text><text xml:space="preserve" id="design is preserved when submitting to Xcode." fill="#000" font-family="Roboto" font-size="12" letter-spacing="0em" style="white-space:pre"><tspan x="1289" y="1988.1">design is preserved when submitting to Xcode.</tspan></text><text xml:space="preserve" id="template-version" fill="#000" font-family="Roboto" font-size="12" letter-spacing="0em" style="white-space:pre"><tspan x="2958" y="1932.1">Template v.1.0</tspan></text><text xml:space="preserve" id="Generated from pencil.circle" fill="#000" font-family="Roboto" font-size="12" letter-spacing="0em" style="white-space:pre"><tspan x="2885" y="1950.1">Generated from pencil.circle</tspan></text><text xml:space="preserve" id="Typeset at 100 points" fill="#000" font-family="Roboto" font-size="12" letter-spacing="0em" style="white-space:pre"><tspan x="2921" y="1968.1">Typeset at 100 points</tspan></text><text xml:space="preserve" id="Small" fill="#000" font-family="Roboto" font-size="12" letter-spacing="0em" style="white-space:pre"><tspan x="263" y="725.102">Small</tspan></text><text xml:space="preserve" id="Medium_2" fill="#000" font-family="Roboto" font-size="12" letter-spacing="0em" style="white-space:pre"><tspan x="263" y="1155.1">Medium</tspan></text><text xml:space="preserve" id="Large" fill="#000" font-family="Roboto" font-size="12" letter-spacing="0em" style="white-space:pre"><tspan x="263" y="1585.1">Large</tspan></text></g><g id="Guides"><g id="H-reference"><path id="Vector_10" fill="#27AAE1" d="M393.932 695.998h2.734l-27.1-70.459h-2.49l-27.099 70.459h2.685l9.278-24.463h32.763l9.229 24.463Zm-25.733-67.09h.244l15.381 40.381h-31.006l15.381-40.381Z"/></g><path id="Baseline-S" stroke="#27AAE1" stroke-width=".577" d="M263 696h2773"/><path id="Capline-S" stroke="#27AAE1" stroke-width=".577" d="M263 626h2773"/><g id="H-reference_2"><path id="Vector_11" fill="#27AAE1" d="M393.932 1126h2.734l-27.1-70.46h-2.49L339.977 1126h2.685l9.278-24.46h32.763l9.229 24.46Zm-25.733-67.09h.244l15.381 40.38h-31.006l15.381-40.38Z"/></g><path id="Baseline-M" stroke="#27AAE1" stroke-width=".577" d="M263 1126h2773"/><path id="Capline-M" stroke="#27AAE1" stroke-width=".577" d="M263 1056h2773"/><g id="H-reference_3"><path id="Vector_12" fill="#27AAE1" d="M393.932 1556h2.734l-27.1-70.46h-2.49L339.977 1556h2.685l9.278-24.46h32.763l9.229 24.46Zm-25.733-67.09h.244l15.381 40.38h-31.006l15.381-40.38Z"/></g><g id="Group 1" stroke="#27AAE1" stroke-width=".577"><path id="Baseline-L" d="M263 1556h2773"/><path id="Capline-L" d="M263 1486h2773"/></g><path id="left-margin" fill="#00AEEF" d="M1392.04 1030.79h-8.74v119.33h8.74v-119.33Z" opacity=".4"/><path id="right-margin" fill="#00AEEF" d="M1516.39 1030.79h-8.74v119.33h8.74v-119.33Z" opacity=".4"/></g><g id="Symbols"><g id="Black-L"><g id="Solid / Scheme Solid"><g id="Shape" fill="#000"><path d="M2984.94 1448.61c-3.48-3.48-9.12-3.48-12.59 0l-16.46 16.46a8.884 8.884 0 0 0 0 12.58l16.46 16.46c3.47 3.48 9.11 3.48 12.59 0l16.46-16.46c3.47-3.47 3.47-9.11 0-12.58l-16.46-16.46ZM2857.05 1458.61c0-5.38 4.36-9.75 9.75-9.75h25.5c5.38 0 9.75 4.37 9.75 9.75v25.5c0 5.39-4.37 9.75-9.75 9.75h-25.5c-5.39 0-9.75-4.36-9.75-9.75v-25.5ZM2978.64 1506.44c2.69 0 4.88 2.18 4.88 4.87v22.23c0 2.69-2.19 4.88-4.88 4.88s-4.87-2.19-4.87-4.88v-22.23a4.87 4.87 0 0 1 4.87-4.87ZM2956.14 1570.7c0-12.43 10.07-22.5 22.5-22.5s22.5 10.07 22.5 22.5-10.07 22.5-22.5 22.5-22.5-10.07-22.5-22.5ZM2916.68 1466.49c-2.69 0-4.88 2.18-4.88 4.87s2.19 4.88 4.88 4.88h21.98c2.69 0 4.87-2.19 4.87-4.88a4.87 4.87 0 0 0-4.87-4.87h-21.98ZM2927.05 1565.69l-11.35-10.97c-1.9-1.9-1.9-4.99 0-6.89 1.91-1.9 4.99-1.9 6.9 0l22.32 19.29c1.9 1.9 1.9 4.99 0 6.89l-22.26 19.23a4.889 4.889 0 0 1-6.9 0c-1.9-1.9-1.9-4.99 0-6.9l11.28-10.89h-24.95c-15.12 0-27.38-12.26-27.38-27.38v-39.58c0-2.69 2.19-4.87 4.88-4.87a4.87 4.87 0 0 1 4.87 4.87v39.58c0 9.73 7.89 17.63 17.63 17.63l24.96-.01Z"/></g></g></g><g id="Heavy-L"><g id="Solid / Scheme Solid_2"><g id="Shape_2" fill="#000"><path d="M2688.94 1448.61c-3.48-3.48-9.12-3.48-12.59 0l-16.46 16.46a8.884 8.884 0 0 0 0 12.58l16.46 16.46c3.47 3.48 9.11 3.48 12.59 0l16.46-16.46c3.47-3.47 3.47-9.11 0-12.58l-16.46-16.46ZM2561.05 1458.61c0-5.38 4.36-9.75 9.75-9.75h25.5c5.38 0 9.75 4.37 9.75 9.75v25.5c0 5.39-4.37 9.75-9.75 9.75h-25.5c-5.39 0-9.75-4.36-9.75-9.75v-25.5ZM2682.64 1506.44c2.69 0 4.88 2.18 4.88 4.87v22.23c0 2.69-2.19 4.88-4.88 4.88s-4.87-2.19-4.87-4.88v-22.23a4.87 4.87 0 0 1 4.87-4.87ZM2660.14 1570.7c0-12.43 10.07-22.5 22.5-22.5s22.5 10.07 22.5 22.5-10.07 22.5-22.5 22.5-22.5-10.07-22.5-22.5ZM2620.68 1466.49c-2.69 0-4.88 2.18-4.88 4.87s2.19 4.88 4.88 4.88h21.98c2.69 0 4.87-2.19 4.87-4.88a4.87 4.87 0 0 0-4.87-4.87h-21.98ZM2631.05 1565.69l-11.35-10.97c-1.9-1.9-1.9-4.99 0-6.89 1.91-1.9 4.99-1.9 6.9 0l22.32 19.29c1.9 1.9 1.9 4.99 0 6.89l-22.26 19.23a4.889 4.889 0 0 1-6.9 0c-1.9-1.9-1.9-4.99 0-6.9l11.28-10.89h-24.95c-15.12 0-27.38-12.26-27.38-27.38v-39.58c0-2.69 2.19-4.87 4.88-4.87a4.87 4.87 0 0 1 4.87 4.87v39.58c0 9.73 7.89 17.63 17.63 17.63l24.96-.01Z"/></g></g></g><g id="Bold-L"><g id="Solid / Scheme Solid_3"><g id="Shape_3" fill="#000"><path d="M2392.94 1448.61c-3.48-3.48-9.12-3.48-12.59 0l-16.46 16.46a8.884 8.884 0 0 0 0 12.58l16.46 16.46c3.47 3.48 9.11 3.48 12.59 0l16.46-16.46c3.47-3.47 3.47-9.11 0-12.58l-16.46-16.46ZM2265.05 1458.61c0-5.38 4.36-9.75 9.75-9.75h25.5c5.38 0 9.75 4.37 9.75 9.75v25.5c0 5.39-4.37 9.75-9.75 9.75h-25.5c-5.39 0-9.75-4.36-9.75-9.75v-25.5ZM2386.64 1506.44c2.69 0 4.88 2.18 4.88 4.87v22.23c0 2.69-2.19 4.88-4.88 4.88s-4.87-2.19-4.87-4.88v-22.23a4.87 4.87 0 0 1 4.87-4.87ZM2364.14 1570.7c0-12.43 10.07-22.5 22.5-22.5s22.5 10.07 22.5 22.5-10.07 22.5-22.5 22.5-22.5-10.07-22.5-22.5ZM2324.68 1466.49c-2.69 0-4.88 2.18-4.88 4.87s2.19 4.88 4.88 4.88h21.98c2.69 0 4.87-2.19 4.87-4.88a4.87 4.87 0 0 0-4.87-4.87h-21.98ZM2335.05 1565.69l-11.35-10.97c-1.9-1.9-1.9-4.99 0-6.89 1.91-1.9 4.99-1.9 6.9 0l22.32 19.29c1.9 1.9 1.9 4.99 0 6.89l-22.26 19.23a4.889 4.889 0 0 1-6.9 0c-1.9-1.9-1.9-4.99 0-6.9l11.28-10.89h-24.95c-15.12 0-27.38-12.26-27.38-27.38v-39.58c0-2.69 2.19-4.87 4.88-4.87a4.87 4.87 0 0 1 4.87 4.87v39.58c0 9.73 7.89 17.63 17.63 17.63l24.96-.01Z"/></g></g></g><g id="Semibold-L"><g id="Solid / Scheme Solid_4"><g id="Shape_4" fill="#000"><path d="M2096.94 1448.61c-3.48-3.48-9.12-3.48-12.59 0l-16.46 16.46a8.884 8.884 0 0 0 0 12.58l16.46 16.46c3.47 3.48 9.11 3.48 12.59 0l16.46-16.46c3.47-3.47 3.47-9.11 0-12.58l-16.46-16.46ZM1969.05 1458.61c0-5.38 4.36-9.75 9.75-9.75h25.5c5.38 0 9.75 4.37 9.75 9.75v25.5c0 5.39-4.37 9.75-9.75 9.75h-25.5c-5.39 0-9.75-4.36-9.75-9.75v-25.5ZM2090.64 1506.44c2.69 0 4.88 2.18 4.88 4.87v22.23c0 2.69-2.19 4.88-4.88 4.88s-4.87-2.19-4.87-4.88v-22.23a4.87 4.87 0 0 1 4.87-4.87ZM2068.14 1570.7c0-12.43 10.07-22.5 22.5-22.5s22.5 10.07 22.5 22.5-10.07 22.5-22.5 22.5-22.5-10.07-22.5-22.5ZM2028.68 1466.49c-2.69 0-4.88 2.18-4.88 4.87s2.19 4.88 4.88 4.88h21.98c2.69 0 4.87-2.19 4.87-4.88a4.87 4.87 0 0 0-4.87-4.87h-21.98ZM2039.05 1565.69l-11.35-10.97c-1.9-1.9-1.9-4.99 0-6.89 1.91-1.9 4.99-1.9 6.9 0l22.32 19.29c1.9 1.9 1.9 4.99 0 6.89l-22.26 19.23a4.889 4.889 0 0 1-6.9 0c-1.9-1.9-1.9-4.99 0-6.9l11.28-10.89h-24.95c-15.12 0-27.38-12.26-27.38-27.38v-39.58c0-2.69 2.19-4.87 4.88-4.87a4.87 4.87 0 0 1 4.87 4.87v39.58c0 9.73 7.89 17.63 17.63 17.63l24.96-.01Z"/></g></g></g><g id="Medium-L"><g id="Solid / Scheme Solid_5"><g id="Shape_5" fill="#000"><path d="M1800.94 1448.61c-3.48-3.48-9.12-3.48-12.59 0l-16.46 16.46a8.884 8.884 0 0 0 0 12.58l16.46 16.46c3.47 3.48 9.11 3.48 12.59 0l16.46-16.46c3.47-3.47 3.47-9.11 0-12.58l-16.46-16.46ZM1673.05 1458.61c0-5.38 4.36-9.75 9.75-9.75h25.5c5.38 0 9.75 4.37 9.75 9.75v25.5c0 5.39-4.37 9.75-9.75 9.75h-25.5c-5.39 0-9.75-4.36-9.75-9.75v-25.5ZM1794.64 1506.44c2.69 0 4.88 2.18 4.88 4.87v22.23c0 2.69-2.19 4.88-4.88 4.88s-4.87-2.19-4.87-4.88v-22.23a4.87 4.87 0 0 1 4.87-4.87ZM1772.14 1570.7c0-12.43 10.07-22.5 22.5-22.5s22.5 10.07 22.5 22.5-10.07 22.5-22.5 22.5-22.5-10.07-22.5-22.5ZM1732.68 1466.49c-2.69 0-4.88 2.18-4.88 4.87s2.19 4.88 4.88 4.88h21.98c2.69 0 4.87-2.19 4.87-4.88a4.87 4.87 0 0 0-4.87-4.87h-21.98ZM1743.05 1565.69l-11.35-10.97c-1.9-1.9-1.9-4.99 0-6.89 1.91-1.9 4.99-1.9 6.9 0l22.32 19.29c1.9 1.9 1.9 4.99 0 6.89l-22.26 19.23a4.889 4.889 0 0 1-6.9 0c-1.9-1.9-1.9-4.99 0-6.9l11.28-10.89h-24.95c-15.12 0-27.38-12.26-27.38-27.38v-39.58c0-2.69 2.19-4.87 4.88-4.87a4.87 4.87 0 0 1 4.87 4.87v39.58c0 9.73 7.89 17.63 17.63 17.63l24.96-.01Z"/></g></g></g><g id="Regular-L"><g id="Solid / Scheme Solid_6"><g id="Shape_6" fill="#000"><path d="M1504.94 1448.61c-3.48-3.48-9.12-3.48-12.59 0l-16.46 16.46a8.884 8.884 0 0 0 0 12.58l16.46 16.46c3.47 3.48 9.11 3.48 12.59 0l16.46-16.46c3.47-3.47 3.47-9.11 0-12.58l-16.46-16.46ZM1377.05 1458.61c0-5.38 4.36-9.75 9.75-9.75h25.5c5.38 0 9.75 4.37 9.75 9.75v25.5c0 5.39-4.37 9.75-9.75 9.75h-25.5c-5.39 0-9.75-4.36-9.75-9.75v-25.5ZM1498.64 1506.44c2.69 0 4.88 2.18 4.88 4.87v22.23c0 2.69-2.19 4.88-4.88 4.88s-4.87-2.19-4.87-4.88v-22.23a4.87 4.87 0 0 1 4.87-4.87ZM1476.14 1570.7c0-12.43 10.07-22.5 22.5-22.5s22.5 10.07 22.5 22.5-10.07 22.5-22.5 22.5-22.5-10.07-22.5-22.5ZM1436.68 1466.49c-2.69 0-4.88 2.18-4.88 4.87s2.19 4.88 4.88 4.88h21.98c2.69 0 4.87-2.19 4.87-4.88a4.87 4.87 0 0 0-4.87-4.87h-21.98ZM1447.05 1565.69l-11.35-10.97c-1.9-1.9-1.9-4.99 0-6.89 1.91-1.9 4.99-1.9 6.9 0l22.32 19.29c1.9 1.9 1.9 4.99 0 6.89l-22.26 19.23a4.889 4.889 0 0 1-6.9 0c-1.9-1.9-1.9-4.99 0-6.9l11.28-10.89h-24.95c-15.12 0-27.38-12.26-27.38-27.38v-39.58c0-2.69 2.19-4.87 4.88-4.87a4.87 4.87 0 0 1 4.87 4.87v39.58c0 9.73 7.89 17.63 17.63 17.63l24.96-.01Z"/></g></g></g><g id="Light-L"><g id="Solid / Scheme Solid_7"><g id="Shape_7" fill="#000"><path d="M1208.94 1448.61c-3.48-3.48-9.12-3.48-12.59 0l-16.46 16.46a8.884 8.884 0 0 0 0 12.58l16.46 16.46c3.47 3.48 9.11 3.48 12.59 0l16.46-16.46c3.47-3.47 3.47-9.11 0-12.58l-16.46-16.46ZM1081.05 1458.61c0-5.38 4.36-9.75 9.75-9.75h25.5c5.38 0 9.75 4.37 9.75 9.75v25.5c0 5.39-4.37 9.75-9.75 9.75h-25.5c-5.39 0-9.75-4.36-9.75-9.75v-25.5ZM1202.64 1506.44c2.69 0 4.88 2.18 4.88 4.87v22.23c0 2.69-2.19 4.88-4.88 4.88s-4.87-2.19-4.87-4.88v-22.23a4.87 4.87 0 0 1 4.87-4.87ZM1180.14 1570.7c0-12.43 10.07-22.5 22.5-22.5s22.5 10.07 22.5 22.5-10.07 22.5-22.5 22.5-22.5-10.07-22.5-22.5ZM1140.68 1466.49c-2.69 0-4.88 2.18-4.88 4.87s2.19 4.88 4.88 4.88h21.98c2.69 0 4.87-2.19 4.87-4.88a4.87 4.87 0 0 0-4.87-4.87h-21.98ZM1151.05 1565.69l-11.35-10.97c-1.9-1.9-1.9-4.99 0-6.89 1.91-1.9 4.99-1.9 6.9 0l22.32 19.29c1.9 1.9 1.9 4.99 0 6.89l-22.26 19.23a4.889 4.889 0 0 1-6.9 0c-1.9-1.9-1.9-4.99 0-6.9l11.28-10.89h-24.95c-15.12 0-27.38-12.26-27.38-27.38v-39.58c0-2.69 2.19-4.87 4.88-4.87a4.87 4.87 0 0 1 4.87 4.87v39.58c0 9.73 7.89 17.63 17.63 17.63l24.96-.01Z"/></g></g></g><g id="Thin-L"><g id="Solid / Scheme Solid_8"><g id="Shape_8" fill="#000"><path d="M912.935 1448.61a8.893 8.893 0 0 0-12.587 0l-16.461 16.46c-3.475 3.47-3.475 9.11 0 12.58l16.461 16.46a8.893 8.893 0 0 0 12.587 0l16.46-16.46c3.476-3.47 3.476-9.11 0-12.58l-16.46-16.46ZM785.047 1458.61c0-5.38 4.365-9.75 9.75-9.75h25.5c5.385 0 9.75 4.37 9.75 9.75v25.5c0 5.39-4.365 9.75-9.75 9.75h-25.5a9.747 9.747 0 0 1-9.75-9.75v-25.5ZM906.641 1506.44a4.873 4.873 0 0 1 4.875 4.87v22.23c0 2.69-2.183 4.88-4.875 4.88a4.88 4.88 0 0 1-4.875-4.88v-22.23c0-2.69 2.182-4.87 4.875-4.87ZM884.141 1570.7c0-12.43 10.074-22.5 22.5-22.5 12.427 0 22.5 10.07 22.5 22.5s-10.073 22.5-22.5 22.5c-12.426 0-22.5-10.07-22.5-22.5ZM844.68 1466.49a4.872 4.872 0 0 0-4.875 4.87 4.88 4.88 0 0 0 4.875 4.88h21.978a4.88 4.88 0 0 0 4.875-4.88c0-2.69-2.182-4.87-4.875-4.87H844.68ZM855.052 1565.69l-11.348-10.97a4.87 4.87 0 0 1 0-6.89 4.883 4.883 0 0 1 6.895 0l22.319 19.29a4.87 4.87 0 0 1 0 6.89l-22.261 19.23a4.882 4.882 0 0 1-6.894 0 4.882 4.882 0 0 1 0-6.9l11.282-10.89h-24.956c-15.119 0-27.375-12.26-27.375-27.38v-39.58c0-2.69 2.183-4.87 4.875-4.87a4.873 4.873 0 0 1 4.875 4.87v39.58c0 9.73 7.891 17.63 17.625 17.63l24.963-.01Z"/></g></g></g><g id="Ultralight-L"><g id="Solid / Scheme Solid_9"><g id="Shape_9" fill="#000"><path d="M616.935 1448.61a8.893 8.893 0 0 0-12.587 0l-16.461 16.46c-3.475 3.47-3.475 9.11 0 12.58l16.461 16.46a8.893 8.893 0 0 0 12.587 0l16.46-16.46c3.476-3.47 3.476-9.11 0-12.58l-16.46-16.46ZM489.047 1458.61c0-5.38 4.365-9.75 9.75-9.75h25.5c5.385 0 9.75 4.37 9.75 9.75v25.5c0 5.39-4.365 9.75-9.75 9.75h-25.5a9.747 9.747 0 0 1-9.75-9.75v-25.5ZM610.641 1506.44a4.873 4.873 0 0 1 4.875 4.87v22.23c0 2.69-2.183 4.88-4.875 4.88a4.88 4.88 0 0 1-4.875-4.88v-22.23c0-2.69 2.182-4.87 4.875-4.87ZM588.141 1570.7c0-12.43 10.074-22.5 22.5-22.5 12.427 0 22.5 10.07 22.5 22.5s-10.073 22.5-22.5 22.5c-12.426 0-22.5-10.07-22.5-22.5ZM548.68 1466.49a4.872 4.872 0 0 0-4.875 4.87 4.88 4.88 0 0 0 4.875 4.88h21.978a4.88 4.88 0 0 0 4.875-4.88c0-2.69-2.182-4.87-4.875-4.87H548.68ZM559.052 1565.69l-11.348-10.97a4.87 4.87 0 0 1 0-6.89 4.883 4.883 0 0 1 6.895 0l22.319 19.29a4.87 4.87 0 0 1 0 6.89l-22.261 19.23a4.882 4.882 0 0 1-6.894 0 4.882 4.882 0 0 1 0-6.9l11.282-10.89h-24.956c-15.119 0-27.375-12.26-27.375-27.38v-39.58c0-2.69 2.183-4.87 4.875-4.87a4.873 4.873 0 0 1 4.875 4.87v39.58c0 9.73 7.891 17.63 17.625 17.63l24.963-.01Z"/></g></g></g><g id="Black-M"><g id="Solid / Scheme Solid_10"><g id="Shape_10" fill="#000"><path d="M2972.51 1034.7a6.91 6.91 0 0 0-9.79 0l-12.81 12.8c-2.7 2.7-2.7 7.08 0 9.79l12.81 12.8c2.7 2.7 7.08 2.7 9.79 0l12.8-12.8c2.7-2.71 2.7-7.09 0-9.79l-12.8-12.8ZM2873.04 1042.48c0-4.19 3.39-7.59 7.58-7.59h19.83c4.19 0 7.59 3.4 7.59 7.59v19.83c0 4.19-3.4 7.58-7.59 7.58h-19.83c-4.19 0-7.58-3.39-7.58-7.58v-19.83ZM2967.61 1079.68c2.09 0 3.79 1.69 3.79 3.79v17.29c0 2.09-1.7 3.79-3.79 3.79s-3.79-1.7-3.79-3.79v-17.29c0-2.1 1.7-3.79 3.79-3.79ZM2950.11 1129.66c0-9.67 7.84-17.5 17.5-17.5 9.67 0 17.5 7.83 17.5 17.5 0 9.66-7.83 17.5-17.5 17.5-9.66 0-17.5-7.84-17.5-17.5ZM2919.42 1048.6c-2.1 0-3.79 1.7-3.79 3.79 0 2.1 1.69 3.79 3.79 3.79h17.09c2.1 0 3.79-1.69 3.79-3.79 0-2.09-1.69-3.79-3.79-3.79h-17.09ZM2927.49 1125.76l-8.83-8.53a3.79 3.79 0 0 1 5.36-5.36l17.36 15a3.79 3.79 0 0 1 0 5.36l-17.31 14.96a3.79 3.79 0 0 1-5.36 0 3.772 3.772 0 0 1 0-5.36l8.77-8.48h-19.41c-11.76 0-21.29-9.53-21.29-21.29v-30.79c0-2.09 1.7-3.79 3.79-3.79s3.79 1.7 3.79 3.79v30.79c0 7.57 6.14 13.7 13.71 13.7h19.42Z"/></g></g></g><g id="Heavy-M"><g id="Solid / Scheme Solid_11"><g id="Shape_11" fill="#000"><path d="M2676.51 1034.7a6.91 6.91 0 0 0-9.79 0l-12.81 12.8c-2.7 2.7-2.7 7.08 0 9.79l12.81 12.8c2.7 2.7 7.08 2.7 9.79 0l12.8-12.8c2.7-2.71 2.7-7.09 0-9.79l-12.8-12.8ZM2577.04 1042.48c0-4.19 3.39-7.59 7.58-7.59h19.83c4.19 0 7.59 3.4 7.59 7.59v19.83c0 4.19-3.4 7.58-7.59 7.58h-19.83c-4.19 0-7.58-3.39-7.58-7.58v-19.83ZM2671.61 1079.68c2.09 0 3.79 1.69 3.79 3.79v17.29c0 2.09-1.7 3.79-3.79 3.79s-3.79-1.7-3.79-3.79v-17.29c0-2.1 1.7-3.79 3.79-3.79ZM2654.11 1129.66c0-9.67 7.84-17.5 17.5-17.5 9.67 0 17.5 7.83 17.5 17.5 0 9.66-7.83 17.5-17.5 17.5-9.66 0-17.5-7.84-17.5-17.5ZM2623.42 1048.6c-2.1 0-3.79 1.7-3.79 3.79 0 2.1 1.69 3.79 3.79 3.79h17.09c2.1 0 3.79-1.69 3.79-3.79 0-2.09-1.69-3.79-3.79-3.79h-17.09ZM2631.49 1125.76l-8.83-8.53a3.79 3.79 0 0 1 5.36-5.36l17.36 15a3.79 3.79 0 0 1 0 5.36l-17.31 14.96a3.79 3.79 0 0 1-5.36 0 3.772 3.772 0 0 1 0-5.36l8.77-8.48h-19.41c-11.76 0-21.29-9.53-21.29-21.29v-30.79c0-2.09 1.7-3.79 3.79-3.79s3.79 1.7 3.79 3.79v30.79c0 7.57 6.14 13.7 13.71 13.7h19.42Z"/></g></g></g><g id="Bold-M"><g id="Solid / Scheme Solid_12"><g id="Shape_12" fill="#000"><path d="M2380.5 1034.7a6.91 6.91 0 0 0-9.79 0l-12.8 12.8c-2.7 2.7-2.7 7.08 0 9.79l12.8 12.8c2.71 2.7 7.09 2.7 9.79 0l12.81-12.8c2.7-2.71 2.7-7.09 0-9.79l-12.81-12.8ZM2281.04 1042.48c0-4.19 3.39-7.59 7.58-7.59h19.83c4.19 0 7.59 3.4 7.59 7.59v19.83c0 4.19-3.4 7.58-7.59 7.58h-19.83c-4.19 0-7.58-3.39-7.58-7.58v-19.83ZM2375.61 1079.68c2.09 0 3.79 1.69 3.79 3.79v17.29c0 2.09-1.7 3.79-3.79 3.79s-3.79-1.7-3.79-3.79v-17.29c0-2.1 1.7-3.79 3.79-3.79ZM2358.11 1129.66c0-9.67 7.83-17.5 17.5-17.5 9.66 0 17.5 7.83 17.5 17.5 0 9.66-7.84 17.5-17.5 17.5-9.67 0-17.5-7.84-17.5-17.5ZM2327.42 1048.6c-2.1 0-3.79 1.7-3.79 3.79 0 2.1 1.69 3.79 3.79 3.79h17.09c2.1 0 3.79-1.69 3.79-3.79 0-2.09-1.69-3.79-3.79-3.79h-17.09ZM2335.48 1125.76l-8.82-8.53a3.79 3.79 0 0 1 5.36-5.36l17.36 15a3.79 3.79 0 0 1 0 5.36l-17.31 14.96a3.802 3.802 0 0 1-5.37 0 3.79 3.79 0 0 1 0-5.36l8.78-8.48h-19.41c-11.76 0-21.29-9.53-21.29-21.29v-30.79c0-2.09 1.69-3.79 3.79-3.79 2.09 0 3.79 1.7 3.79 3.79v30.79c0 7.57 6.14 13.7 13.71 13.7h19.41Z"/></g></g></g><g id="Semibold-M"><g id="Solid / Scheme Solid_13"><g id="Shape_13" fill="#000"><path d="M2084.5 1034.7a6.91 6.91 0 0 0-9.79 0l-12.8 12.8c-2.7 2.7-2.7 7.08 0 9.79l12.8 12.8c2.71 2.7 7.09 2.7 9.79 0l12.81-12.8c2.7-2.71 2.7-7.09 0-9.79l-12.81-12.8ZM1985.04 1042.48c0-4.19 3.39-7.59 7.58-7.59h19.83c4.19 0 7.59 3.4 7.59 7.59v19.83c0 4.19-3.4 7.58-7.59 7.58h-19.83c-4.19 0-7.58-3.39-7.58-7.58v-19.83ZM2079.61 1079.68c2.09 0 3.79 1.69 3.79 3.79v17.29c0 2.09-1.7 3.79-3.79 3.79s-3.79-1.7-3.79-3.79v-17.29c0-2.1 1.7-3.79 3.79-3.79ZM2062.11 1129.66c0-9.67 7.83-17.5 17.5-17.5 9.66 0 17.5 7.83 17.5 17.5 0 9.66-7.84 17.5-17.5 17.5-9.67 0-17.5-7.84-17.5-17.5ZM2031.42 1048.6c-2.1 0-3.79 1.7-3.79 3.79 0 2.1 1.69 3.79 3.79 3.79h17.09c2.1 0 3.79-1.69 3.79-3.79 0-2.09-1.69-3.79-3.79-3.79h-17.09ZM2039.48 1125.76l-8.82-8.53a3.79 3.79 0 0 1 5.36-5.36l17.36 15a3.79 3.79 0 0 1 0 5.36l-17.31 14.96a3.802 3.802 0 0 1-5.37 0 3.79 3.79 0 0 1 0-5.36l8.78-8.48h-19.41c-11.76 0-21.29-9.53-21.29-21.29v-30.79c0-2.09 1.69-3.79 3.79-3.79 2.09 0 3.79 1.7 3.79 3.79v30.79c0 7.57 6.14 13.7 13.71 13.7h19.41Z"/></g></g></g><g id="Medium-M"><g id="Solid / Scheme Solid_14"><g id="Shape_14" fill="#000"><path d="M1788.5 1034.7a6.91 6.91 0 0 0-9.79 0l-12.8 12.8c-2.7 2.7-2.7 7.08 0 9.79l12.8 12.8c2.71 2.7 7.09 2.7 9.79 0l12.81-12.8c2.7-2.71 2.7-7.09 0-9.79l-12.81-12.8ZM1689.04 1042.48c0-4.19 3.39-7.59 7.58-7.59h19.83c4.19 0 7.59 3.4 7.59 7.59v19.83c0 4.19-3.4 7.58-7.59 7.58h-19.83c-4.19 0-7.58-3.39-7.58-7.58v-19.83ZM1783.61 1079.68c2.09 0 3.79 1.69 3.79 3.79v17.29c0 2.09-1.7 3.79-3.79 3.79s-3.79-1.7-3.79-3.79v-17.29c0-2.1 1.7-3.79 3.79-3.79ZM1766.11 1129.66c0-9.67 7.83-17.5 17.5-17.5 9.66 0 17.5 7.83 17.5 17.5 0 9.66-7.84 17.5-17.5 17.5-9.67 0-17.5-7.84-17.5-17.5ZM1735.42 1048.6c-2.1 0-3.79 1.7-3.79 3.79 0 2.1 1.69 3.79 3.79 3.79h17.09c2.1 0 3.79-1.69 3.79-3.79 0-2.09-1.69-3.79-3.79-3.79h-17.09ZM1743.48 1125.76l-8.82-8.53a3.79 3.79 0 0 1 5.36-5.36l17.36 15a3.79 3.79 0 0 1 0 5.36l-17.31 14.96a3.802 3.802 0 0 1-5.37 0 3.79 3.79 0 0 1 0-5.36l8.78-8.48h-19.41c-11.76 0-21.29-9.53-21.29-21.29v-30.79c0-2.09 1.69-3.79 3.79-3.79 2.09 0 3.79 1.7 3.79 3.79v30.79c0 7.57 6.14 13.7 13.71 13.7h19.41Z"/></g></g></g><g id="Regular-M"><g id="Solid / Scheme Solid_15"><g id="Shape_15" fill="#000"><path d="M1492.5 1034.7a6.91 6.91 0 0 0-9.79 0l-12.8 12.8c-2.7 2.7-2.7 7.08 0 9.79l12.8 12.8c2.71 2.7 7.09 2.7 9.79 0l12.81-12.8c2.7-2.71 2.7-7.09 0-9.79l-12.81-12.8ZM1393.04 1042.48c0-4.19 3.39-7.59 7.58-7.59h19.83c4.19 0 7.59 3.4 7.59 7.59v19.83c0 4.19-3.4 7.58-7.59 7.58h-19.83c-4.19 0-7.58-3.39-7.58-7.58v-19.83ZM1487.61 1079.68c2.09 0 3.79 1.69 3.79 3.79v17.29c0 2.09-1.7 3.79-3.79 3.79s-3.79-1.7-3.79-3.79v-17.29c0-2.1 1.7-3.79 3.79-3.79ZM1470.11 1129.66c0-9.67 7.83-17.5 17.5-17.5 9.66 0 17.5 7.83 17.5 17.5 0 9.66-7.84 17.5-17.5 17.5-9.67 0-17.5-7.84-17.5-17.5ZM1439.42 1048.6c-2.1 0-3.79 1.7-3.79 3.79 0 2.1 1.69 3.79 3.79 3.79h17.09c2.1 0 3.79-1.69 3.79-3.79 0-2.09-1.69-3.79-3.79-3.79h-17.09ZM1447.48 1125.76l-8.82-8.53a3.79 3.79 0 0 1 5.36-5.36l17.36 15a3.79 3.79 0 0 1 0 5.36l-17.31 14.96a3.802 3.802 0 0 1-5.37 0 3.79 3.79 0 0 1 0-5.36l8.78-8.48h-19.41c-11.76 0-21.29-9.53-21.29-21.29v-30.79c0-2.09 1.69-3.79 3.79-3.79 2.09 0 3.79 1.7 3.79 3.79v30.79c0 7.57 6.14 13.7 13.71 13.7h19.41Z"/></g></g></g><g id="Light-M"><g id="Solid / Scheme Solid_16"><g id="Shape_16" fill="#000"><path d="M1196.5 1034.7a6.91 6.91 0 0 0-9.79 0l-12.8 12.8c-2.7 2.7-2.7 7.08 0 9.79l12.8 12.8c2.71 2.7 7.09 2.7 9.79 0l12.81-12.8c2.7-2.71 2.7-7.09 0-9.79l-12.81-12.8ZM1097.04 1042.48c0-4.19 3.39-7.59 7.58-7.59h19.83c4.19 0 7.59 3.4 7.59 7.59v19.83c0 4.19-3.4 7.58-7.59 7.58h-19.83c-4.19 0-7.58-3.39-7.58-7.58v-19.83ZM1191.61 1079.68c2.09 0 3.79 1.69 3.79 3.79v17.29c0 2.09-1.7 3.79-3.79 3.79s-3.79-1.7-3.79-3.79v-17.29c0-2.1 1.7-3.79 3.79-3.79ZM1174.11 1129.66c0-9.67 7.83-17.5 17.5-17.5 9.66 0 17.5 7.83 17.5 17.5 0 9.66-7.84 17.5-17.5 17.5-9.67 0-17.5-7.84-17.5-17.5ZM1143.42 1048.6c-2.1 0-3.79 1.7-3.79 3.79 0 2.1 1.69 3.79 3.79 3.79h17.09c2.1 0 3.79-1.69 3.79-3.79 0-2.09-1.69-3.79-3.79-3.79h-17.09ZM1151.48 1125.76l-8.82-8.53a3.79 3.79 0 0 1 5.36-5.36l17.36 15a3.79 3.79 0 0 1 0 5.36l-17.31 14.96a3.802 3.802 0 0 1-5.37 0 3.79 3.79 0 0 1 0-5.36l8.78-8.48h-19.41c-11.76 0-21.29-9.53-21.29-21.29v-30.79c0-2.09 1.69-3.79 3.79-3.79 2.09 0 3.79 1.7 3.79 3.79v30.79c0 7.57 6.14 13.7 13.71 13.7h19.41Z"/></g></g></g><g id="Thin-M"><g id="Solid / Scheme Solid_17"><g id="Shape_17" fill="#000"><path d="M900.505 1034.7a6.91 6.91 0 0 0-9.79 0l-12.803 12.8c-2.703 2.7-2.703 7.08 0 9.79l12.803 12.8a6.929 6.929 0 0 0 9.79 0l12.802-12.8c2.704-2.71 2.704-7.09 0-9.79l-12.802-12.8ZM801.036 1042.48c0-4.19 3.395-7.59 7.583-7.59h19.834c4.188 0 7.583 3.4 7.583 7.59v19.83a7.58 7.58 0 0 1-7.583 7.58h-19.834a7.58 7.58 0 0 1-7.583-7.58v-19.83ZM895.609 1079.68a3.787 3.787 0 0 1 3.792 3.79v17.29a3.792 3.792 0 0 1-7.583 0v-17.29c0-2.1 1.697-3.79 3.791-3.79ZM878.11 1129.66c0-9.67 7.835-17.5 17.5-17.5s17.5 7.83 17.5 17.5c0 9.66-7.835 17.5-17.5 17.5s-17.5-7.84-17.5-17.5ZM847.417 1048.6a3.792 3.792 0 0 0-3.791 3.79c0 2.1 1.697 3.79 3.791 3.79h17.095a3.786 3.786 0 0 0 3.791-3.79c0-2.09-1.697-3.79-3.791-3.79h-17.095ZM855.484 1125.76l-8.825-8.53a3.789 3.789 0 0 1 0-5.36 3.793 3.793 0 0 1 5.362 0l17.36 15a3.79 3.79 0 0 1 0 5.36l-17.315 14.96a3.793 3.793 0 0 1-5.362 0 3.789 3.789 0 0 1 0-5.36l8.775-8.48h-19.41c-11.759 0-21.292-9.53-21.292-21.29v-30.79a3.793 3.793 0 0 1 7.584 0v30.79c0 7.57 6.137 13.7 13.708 13.7h19.415Z"/></g></g></g><g id="Ultralight-M"><g id="Solid / Scheme Solid_18"><g id="Shape_18" fill="#000"><path d="M604.505 1034.7a6.91 6.91 0 0 0-9.79 0l-12.803 12.8c-2.703 2.7-2.703 7.08 0 9.79l12.803 12.8a6.929 6.929 0 0 0 9.79 0l12.802-12.8c2.704-2.71 2.704-7.09 0-9.79l-12.802-12.8ZM505.036 1042.48c0-4.19 3.395-7.59 7.583-7.59h19.834c4.188 0 7.583 3.4 7.583 7.59v19.83a7.58 7.58 0 0 1-7.583 7.58h-19.834a7.58 7.58 0 0 1-7.583-7.58v-19.83ZM599.609 1079.68a3.787 3.787 0 0 1 3.792 3.79v17.29a3.792 3.792 0 0 1-7.583 0v-17.29c0-2.1 1.697-3.79 3.791-3.79ZM582.11 1129.66c0-9.67 7.835-17.5 17.5-17.5s17.5 7.83 17.5 17.5c0 9.66-7.835 17.5-17.5 17.5s-17.5-7.84-17.5-17.5ZM551.417 1048.6a3.792 3.792 0 0 0-3.791 3.79c0 2.1 1.697 3.79 3.791 3.79h17.095a3.786 3.786 0 0 0 3.791-3.79c0-2.09-1.697-3.79-3.791-3.79h-17.095ZM559.484 1125.76l-8.825-8.53a3.789 3.789 0 0 1 0-5.36 3.793 3.793 0 0 1 5.362 0l17.36 15a3.79 3.79 0 0 1 0 5.36l-17.315 14.96a3.793 3.793 0 0 1-5.362 0 3.789 3.789 0 0 1 0-5.36l8.775-8.48h-19.41c-11.759 0-21.292-9.53-21.292-21.29v-30.79a3.793 3.793 0 0 1 7.584 0v30.79c0 7.57 6.137 13.7 13.708 13.7h19.415Z"/></g></g></g><g id="Black-S"><g id="Solid / Scheme Solid_19"><g id="Shape_19" fill="#000"><path d="M2960.07 620.78a4.941 4.941 0 0 0-6.99 0l-9.14 9.145a4.947 4.947 0 0 0 0 6.993l9.14 9.145a4.941 4.941 0 0 0 6.99 0l9.15-9.145a4.947 4.947 0 0 0 0-6.993l-9.15-9.145ZM2889.03 626.338a5.412 5.412 0 0 1 5.41-5.417h14.17a5.42 5.42 0 0 1 5.42 5.417v14.167a5.42 5.42 0 0 1-5.42 5.416h-14.17a5.412 5.412 0 0 1-5.41-5.416v-14.167ZM2956.58 652.91c1.49 0 2.71 1.212 2.71 2.708v12.348a2.713 2.713 0 0 1-2.71 2.708c-1.5 0-2.71-1.212-2.71-2.708v-12.348a2.707 2.707 0 0 1 2.71-2.708ZM2944.08 688.61c0-6.904 5.59-12.5 12.5-12.5 6.9 0 12.5 5.596 12.5 12.5 0 6.903-5.6 12.5-12.5 12.5-6.91 0-12.5-5.597-12.5-12.5ZM2922.15 630.713c-1.49 0-2.7 1.212-2.7 2.708a2.705 2.705 0 0 0 2.7 2.709h12.22c1.49 0 2.7-1.213 2.7-2.709a2.704 2.704 0 0 0-2.7-2.708h-12.22ZM2927.92 685.826l-6.31-6.092a2.722 2.722 0 0 1 0-3.83 2.708 2.708 0 0 1 3.83 0l12.4 10.715a2.704 2.704 0 0 1 0 3.83l-12.36 10.683a2.71 2.71 0 0 1-3.83-3.831l6.26-6.055h-13.86c-8.4 0-15.21-6.809-15.21-15.208v-21.989a2.707 2.707 0 0 1 2.71-2.709c1.49 0 2.71 1.213 2.71 2.709v21.989a9.788 9.788 0 0 0 9.79 9.791l13.87-.003Z"/></g></g></g><g id="Heavy-S"><g id="Solid / Scheme Solid_20"><g id="Shape_20" fill="#000"><path d="M2664.07 620.78a4.941 4.941 0 0 0-6.99 0l-9.14 9.145a4.947 4.947 0 0 0 0 6.993l9.14 9.145a4.941 4.941 0 0 0 6.99 0l9.15-9.145a4.947 4.947 0 0 0 0-6.993l-9.15-9.145ZM2593.03 626.338a5.412 5.412 0 0 1 5.41-5.417h14.17a5.42 5.42 0 0 1 5.42 5.417v14.167a5.42 5.42 0 0 1-5.42 5.416h-14.17a5.412 5.412 0 0 1-5.41-5.416v-14.167ZM2660.58 652.91c1.49 0 2.71 1.212 2.71 2.708v12.348a2.713 2.713 0 0 1-2.71 2.708c-1.5 0-2.71-1.212-2.71-2.708v-12.348a2.707 2.707 0 0 1 2.71-2.708ZM2648.08 688.61c0-6.904 5.59-12.5 12.5-12.5 6.9 0 12.5 5.596 12.5 12.5 0 6.903-5.6 12.5-12.5 12.5-6.91 0-12.5-5.597-12.5-12.5ZM2626.15 630.713c-1.49 0-2.7 1.212-2.7 2.708a2.705 2.705 0 0 0 2.7 2.709h12.22c1.49 0 2.7-1.213 2.7-2.709a2.704 2.704 0 0 0-2.7-2.708h-12.22ZM2631.92 685.826l-6.31-6.092a2.722 2.722 0 0 1 0-3.83 2.708 2.708 0 0 1 3.83 0l12.4 10.715a2.704 2.704 0 0 1 0 3.83l-12.36 10.683a2.71 2.71 0 0 1-3.83-3.831l6.26-6.055h-13.86c-8.4 0-15.21-6.809-15.21-15.208v-21.989a2.707 2.707 0 0 1 2.71-2.709c1.49 0 2.71 1.213 2.71 2.709v21.989a9.788 9.788 0 0 0 9.79 9.791l13.87-.003Z"/></g></g></g><g id="Bold-S"><g id="Solid / Scheme Solid_21"><g id="Shape_21" fill="#000"><path d="M2368.08 620.78a4.953 4.953 0 0 0-7 0l-9.14 9.145a4.947 4.947 0 0 0 0 6.993l9.14 9.145a4.953 4.953 0 0 0 7 0l9.14-9.145a4.947 4.947 0 0 0 0-6.993l-9.14-9.145ZM2297.03 626.338a5.412 5.412 0 0 1 5.41-5.417h14.17a5.42 5.42 0 0 1 5.42 5.417v14.167a5.42 5.42 0 0 1-5.42 5.416h-14.17a5.412 5.412 0 0 1-5.41-5.416v-14.167ZM2364.58 652.91c1.49 0 2.71 1.212 2.71 2.708v12.348a2.713 2.713 0 0 1-2.71 2.708c-1.5 0-2.71-1.212-2.71-2.708v-12.348a2.707 2.707 0 0 1 2.71-2.708ZM2352.08 688.61c0-6.904 5.6-12.5 12.5-12.5s12.5 5.596 12.5 12.5c0 6.903-5.6 12.5-12.5 12.5s-12.5-5.597-12.5-12.5ZM2330.16 630.713c-1.5 0-2.71 1.212-2.71 2.708a2.707 2.707 0 0 0 2.71 2.709h12.21c1.49 0 2.7-1.213 2.7-2.709a2.704 2.704 0 0 0-2.7-2.708h-12.21ZM2335.92 685.826l-6.31-6.092a2.722 2.722 0 0 1 0-3.83 2.708 2.708 0 0 1 3.83 0l12.4 10.715a2.704 2.704 0 0 1 0 3.83l-12.36 10.683a2.71 2.71 0 0 1-3.83-3.831l6.26-6.055h-13.86c-8.4 0-15.21-6.809-15.21-15.208v-21.989a2.707 2.707 0 0 1 2.71-2.709c1.5 0 2.71 1.213 2.71 2.709v21.989a9.788 9.788 0 0 0 9.79 9.791l13.87-.003Z"/></g></g></g><g id="Semibold-S"><g id="Solid / Scheme Solid_22"><g id="Shape_22" fill="#000"><path d="M2072.08 620.78a4.953 4.953 0 0 0-7 0l-9.14 9.145a4.947 4.947 0 0 0 0 6.993l9.14 9.145a4.953 4.953 0 0 0 7 0l9.14-9.145a4.947 4.947 0 0 0 0-6.993l-9.14-9.145ZM2001.03 626.338a5.412 5.412 0 0 1 5.41-5.417h14.17a5.42 5.42 0 0 1 5.42 5.417v14.167a5.42 5.42 0 0 1-5.42 5.416h-14.17a5.412 5.412 0 0 1-5.41-5.416v-14.167ZM2068.58 652.91c1.49 0 2.71 1.212 2.71 2.708v12.348a2.713 2.713 0 0 1-2.71 2.708c-1.5 0-2.71-1.212-2.71-2.708v-12.348a2.707 2.707 0 0 1 2.71-2.708ZM2056.08 688.61c0-6.904 5.6-12.5 12.5-12.5s12.5 5.596 12.5 12.5c0 6.903-5.6 12.5-12.5 12.5s-12.5-5.597-12.5-12.5ZM2034.16 630.713c-1.5 0-2.71 1.212-2.71 2.708a2.707 2.707 0 0 0 2.71 2.709h12.21c1.49 0 2.7-1.213 2.7-2.709a2.704 2.704 0 0 0-2.7-2.708h-12.21ZM2039.92 685.826l-6.31-6.092a2.722 2.722 0 0 1 0-3.83 2.708 2.708 0 0 1 3.83 0l12.4 10.715a2.704 2.704 0 0 1 0 3.83l-12.36 10.683a2.71 2.71 0 0 1-3.83-3.831l6.26-6.055h-13.86c-8.4 0-15.21-6.809-15.21-15.208v-21.989a2.707 2.707 0 0 1 2.71-2.709c1.5 0 2.71 1.213 2.71 2.709v21.989a9.788 9.788 0 0 0 9.79 9.791l13.87-.003Z"/></g></g></g><g id="Medium-S"><g id="Solid / Scheme Solid_23"><g id="Shape_23" fill="#000"><path d="M1776.08 620.78a4.953 4.953 0 0 0-7 0l-9.14 9.145a4.947 4.947 0 0 0 0 6.993l9.14 9.145a4.953 4.953 0 0 0 7 0l9.14-9.145a4.947 4.947 0 0 0 0-6.993l-9.14-9.145ZM1705.03 626.338a5.412 5.412 0 0 1 5.41-5.417h14.17a5.42 5.42 0 0 1 5.42 5.417v14.167a5.42 5.42 0 0 1-5.42 5.416h-14.17a5.412 5.412 0 0 1-5.41-5.416v-14.167ZM1772.58 652.91c1.49 0 2.71 1.212 2.71 2.708v12.348a2.713 2.713 0 0 1-2.71 2.708c-1.5 0-2.71-1.212-2.71-2.708v-12.348a2.707 2.707 0 0 1 2.71-2.708ZM1760.08 688.61c0-6.904 5.6-12.5 12.5-12.5s12.5 5.596 12.5 12.5c0 6.903-5.6 12.5-12.5 12.5s-12.5-5.597-12.5-12.5ZM1738.16 630.713c-1.5 0-2.71 1.212-2.71 2.708a2.707 2.707 0 0 0 2.71 2.709h12.21c1.49 0 2.7-1.213 2.7-2.709a2.704 2.704 0 0 0-2.7-2.708h-12.21ZM1743.92 685.826l-6.31-6.092a2.722 2.722 0 0 1 0-3.83 2.708 2.708 0 0 1 3.83 0l12.4 10.715a2.704 2.704 0 0 1 0 3.83l-12.36 10.683a2.71 2.71 0 0 1-3.83-3.831l6.26-6.055h-13.86c-8.4 0-15.21-6.809-15.21-15.208v-21.989a2.707 2.707 0 0 1 2.71-2.709c1.5 0 2.71 1.213 2.71 2.709v21.989a9.788 9.788 0 0 0 9.79 9.791l13.87-.003Z"/></g></g></g><g id="Regular-S"><g id="Solid / Scheme Solid_24"><g id="Shape_24" fill="#000"><path d="M1480.08 620.78a4.953 4.953 0 0 0-7 0l-9.14 9.145a4.947 4.947 0 0 0 0 6.993l9.14 9.145a4.953 4.953 0 0 0 7 0l9.14-9.145a4.947 4.947 0 0 0 0-6.993l-9.14-9.145ZM1409.03 626.338a5.412 5.412 0 0 1 5.41-5.417h14.17a5.42 5.42 0 0 1 5.42 5.417v14.167a5.42 5.42 0 0 1-5.42 5.416h-14.17a5.412 5.412 0 0 1-5.41-5.416v-14.167ZM1476.58 652.91c1.49 0 2.71 1.212 2.71 2.708v12.348a2.713 2.713 0 0 1-2.71 2.708c-1.5 0-2.71-1.212-2.71-2.708v-12.348a2.707 2.707 0 0 1 2.71-2.708ZM1464.08 688.61c0-6.904 5.6-12.5 12.5-12.5s12.5 5.596 12.5 12.5c0 6.903-5.6 12.5-12.5 12.5s-12.5-5.597-12.5-12.5ZM1442.16 630.713c-1.5 0-2.71 1.212-2.71 2.708a2.707 2.707 0 0 0 2.71 2.709h12.21c1.49 0 2.7-1.213 2.7-2.709a2.704 2.704 0 0 0-2.7-2.708h-12.21ZM1447.92 685.826l-6.31-6.092a2.722 2.722 0 0 1 0-3.83 2.708 2.708 0 0 1 3.83 0l12.4 10.715a2.704 2.704 0 0 1 0 3.83l-12.36 10.683a2.71 2.71 0 0 1-3.83-3.831l6.26-6.055h-13.86c-8.4 0-15.21-6.809-15.21-15.208v-21.989a2.707 2.707 0 0 1 2.71-2.709c1.5 0 2.71 1.213 2.71 2.709v21.989a9.788 9.788 0 0 0 9.79 9.791l13.87-.003Z"/></g></g></g><g id="Light-S"><g id="Solid / Scheme Solid_25"><g id="Shape_25" fill="#000"><path d="M1184.08 620.78a4.953 4.953 0 0 0-7 0l-9.14 9.145a4.947 4.947 0 0 0 0 6.993l9.14 9.145a4.953 4.953 0 0 0 7 0l9.14-9.145a4.947 4.947 0 0 0 0-6.993l-9.14-9.145ZM1113.03 626.338a5.412 5.412 0 0 1 5.41-5.417h14.17a5.42 5.42 0 0 1 5.42 5.417v14.167a5.42 5.42 0 0 1-5.42 5.416h-14.17a5.412 5.412 0 0 1-5.41-5.416v-14.167ZM1180.58 652.91c1.49 0 2.71 1.212 2.71 2.708v12.348a2.713 2.713 0 0 1-2.71 2.708c-1.5 0-2.71-1.212-2.71-2.708v-12.348a2.707 2.707 0 0 1 2.71-2.708ZM1168.08 688.61c0-6.904 5.6-12.5 12.5-12.5s12.5 5.596 12.5 12.5c0 6.903-5.6 12.5-12.5 12.5s-12.5-5.597-12.5-12.5ZM1146.16 630.713c-1.5 0-2.71 1.212-2.71 2.708a2.707 2.707 0 0 0 2.71 2.709h12.21c1.49 0 2.7-1.213 2.7-2.709a2.704 2.704 0 0 0-2.7-2.708h-12.21ZM1151.92 685.826l-6.31-6.092a2.722 2.722 0 0 1 0-3.83 2.708 2.708 0 0 1 3.83 0l12.4 10.715a2.704 2.704 0 0 1 0 3.83l-12.36 10.683a2.71 2.71 0 0 1-3.83-3.831l6.26-6.055h-13.86c-8.4 0-15.21-6.809-15.21-15.208v-21.989a2.707 2.707 0 0 1 2.71-2.709c1.5 0 2.71 1.213 2.71 2.709v21.989a9.788 9.788 0 0 0 9.79 9.791l13.87-.003Z"/></g></g></g><g id="Thin-S"><g id="Solid / Scheme Solid_26"><g id="Shape_26" fill="#000"><path d="M888.075 620.78a4.945 4.945 0 0 0-6.993 0l-9.144 9.145a4.945 4.945 0 0 0 0 6.993l9.144 9.145a4.945 4.945 0 0 0 6.993 0l9.145-9.145a4.945 4.945 0 0 0 0-6.993l-9.145-9.145ZM817.026 626.338a5.417 5.417 0 0 1 5.417-5.417h14.167a5.416 5.416 0 0 1 5.416 5.417v14.167a5.416 5.416 0 0 1-5.416 5.416h-14.167a5.416 5.416 0 0 1-5.417-5.416v-14.167ZM884.579 652.91a2.708 2.708 0 0 1 2.708 2.708v12.348a2.708 2.708 0 0 1-5.417 0v-12.348a2.708 2.708 0 0 1 2.709-2.708ZM872.079 688.61c0-6.904 5.596-12.5 12.5-12.5 6.903 0 12.5 5.596 12.5 12.5 0 6.903-5.597 12.5-12.5 12.5-6.904 0-12.5-5.597-12.5-12.5ZM850.156 630.713a2.708 2.708 0 1 0 0 5.417h12.21a2.708 2.708 0 0 0 0-5.417h-12.21ZM855.918 685.826l-6.304-6.092a2.708 2.708 0 1 1 3.83-3.83l12.4 10.715a2.71 2.71 0 0 1 0 3.83l-12.367 10.683a2.71 2.71 0 0 1-3.831 0 2.71 2.71 0 0 1 0-3.831l6.268-6.055H842.05c-8.4 0-15.209-6.809-15.209-15.208v-21.989a2.71 2.71 0 0 1 5.417 0v21.989c0 5.408 4.384 9.791 9.792 9.791l13.868-.003Z"/></g></g></g><g id="Ultralight-S"><g id="Solid / Scheme Solid_27"><g id="Shape_27" fill="#000"><path d="M592.075 620.78a4.945 4.945 0 0 0-6.993 0l-9.144 9.145a4.945 4.945 0 0 0 0 6.993l9.144 9.145a4.945 4.945 0 0 0 6.993 0l9.145-9.145a4.945 4.945 0 0 0 0-6.993l-9.145-9.145ZM521.026 626.338a5.417 5.417 0 0 1 5.417-5.417h14.167a5.416 5.416 0 0 1 5.416 5.417v14.167a5.416 5.416 0 0 1-5.416 5.416h-14.167a5.416 5.416 0 0 1-5.417-5.416v-14.167ZM588.579 652.91a2.708 2.708 0 0 1 2.708 2.708v12.348a2.708 2.708 0 0 1-5.417 0v-12.348a2.708 2.708 0 0 1 2.709-2.708ZM576.079 688.61c0-6.904 5.596-12.5 12.5-12.5 6.903 0 12.5 5.596 12.5 12.5 0 6.903-5.597 12.5-12.5 12.5-6.904 0-12.5-5.597-12.5-12.5ZM554.156 630.713a2.708 2.708 0 1 0 0 5.417h12.21a2.708 2.708 0 0 0 0-5.417h-12.21ZM559.918 685.826l-6.304-6.092a2.708 2.708 0 1 1 3.83-3.83l12.4 10.715a2.71 2.71 0 0 1 0 3.83l-12.367 10.683a2.71 2.71 0 0 1-3.831 0 2.71 2.71 0 0 1 0-3.831l6.268-6.055H546.05c-8.4 0-15.209-6.809-15.209-15.208v-21.989a2.71 2.71 0 0 1 5.417 0v21.989c0 5.408 4.384 9.791 9.792 9.791l13.868-.003Z"/></g></g></g></g></g><defs><clipPath id="clip0_0_1"><path fill="#fff" d="M0 0h3300v2200H0z"/></clipPath></defs></svg>