<svg width="3300" height="2200" viewBox="0 0 3300 2200" fill="none" xmlns="http://www.w3.org/2000/svg">
<rect width="3300" height="2200" fill="#E5E5E5"/>
<g id="Service / Solid / Error" clip-path="url(#clip0_0_1)">
<g id="Notes">
<path id="artboard" d="M3300 0H0V2200H3300V0Z" fill="white"/>
<path id="Vector" d="M263 292H3036" stroke="black" stroke-width="0.5"/>
<text id="Weight/Scale Variations" fill="black" xml:space="preserve" style="white-space: pre" font-family="Roboto" font-size="12" letter-spacing="0em"><tspan x="263" y="321.102">Weight/Scale Variations</tspan></text>
<text id="Ultralight" fill="black" xml:space="preserve" style="white-space: pre" font-family="Roboto" font-size="12" letter-spacing="0em"><tspan x="535.211" y="321.102">Ultralight</tspan></text>
<text id="Thin" fill="black" xml:space="preserve" style="white-space: pre" font-family="Roboto" font-size="12" letter-spacing="0em"><tspan x="844.422" y="321.102">Thin</tspan></text>
<text id="Light" fill="black" xml:space="preserve" style="white-space: pre" font-family="Roboto" font-size="12" letter-spacing="0em"><tspan x="1139.63" y="321.102">Light</tspan></text>
<text id="Regular" fill="black" xml:space="preserve" style="white-space: pre" font-family="Roboto" font-size="12" letter-spacing="0em"><tspan x="1429.34" y="321.102">Regular</tspan></text>
<text id="Medium" fill="black" xml:space="preserve" style="white-space: pre" font-family="Roboto" font-size="12" letter-spacing="0em"><tspan x="1724.56" y="321.102">Medium</tspan></text>
<text id="Semibold" fill="black" xml:space="preserve" style="white-space: pre" font-family="Roboto" font-size="12" letter-spacing="0em"><tspan x="2017.77" y="321.102">Semibold</tspan></text>
<text id="Bold" fill="black" xml:space="preserve" style="white-space: pre" font-family="Roboto" font-size="12" letter-spacing="0em"><tspan x="2327.48" y="321.102">Bold</tspan></text>
<text id="Heavy" fill="black" xml:space="preserve" style="white-space: pre" font-family="Roboto" font-size="12" letter-spacing="0em"><tspan x="2620.19" y="321.102">Heavy</tspan></text>
<text id="Black" fill="black" xml:space="preserve" style="white-space: pre" font-family="Roboto" font-size="12" letter-spacing="0em"><tspan x="2918.4" y="321.102">Black</tspan></text>
<path id="Vector_2" d="M263 1903H3036" stroke="black" stroke-width="0.5"/>
<g id="Group">
<path id="Vector_3" d="M272.248 1933.83C276.555 1933.83 280.139 1930.26 280.139 1925.95C280.139 1921.64 276.545 1918.07 272.238 1918.07C267.941 1918.07 264.367 1921.64 264.367 1925.95C264.367 1930.26 267.951 1933.83 272.248 1933.83ZM272.248 1932.35C268.703 1932.35 265.871 1929.51 265.871 1925.95C265.871 1922.4 268.693 1919.55 272.238 1919.55C275.793 1919.55 278.635 1922.4 278.644 1925.95C278.654 1929.51 275.803 1932.35 272.248 1932.35ZM272.229 1929.57C272.697 1929.57 272.971 1929.26 272.971 1928.74V1926.68H275.197C275.695 1926.68 276.037 1926.43 276.037 1925.96C276.037 1925.48 275.715 1925.22 275.197 1925.22H272.971V1922.99C272.971 1922.47 272.697 1922.15 272.229 1922.15C271.76 1922.15 271.506 1922.49 271.506 1922.99V1925.22H269.299C268.781 1925.22 268.449 1925.48 268.449 1925.96C268.449 1926.43 268.801 1926.68 269.299 1926.68H271.506V1928.74C271.506 1929.24 271.76 1929.57 272.229 1929.57Z" fill="black"/>
</g>
<g id="Group_2">
<path id="Vector_4" d="M293.215 1935.91C298.664 1935.91 303.176 1931.4 303.176 1925.95C303.176 1920.51 298.654 1915.99 293.205 1915.99C287.766 1915.99 283.254 1920.51 283.254 1925.95C283.254 1931.4 287.775 1935.91 293.215 1935.91ZM293.215 1934.25C288.605 1934.25 284.924 1930.56 284.924 1925.95C284.924 1921.35 288.596 1917.65 293.205 1917.65C297.814 1917.65 301.506 1921.35 301.516 1925.95C301.525 1930.56 297.824 1934.25 293.215 1934.25ZM293.195 1930.59C293.713 1930.59 294.025 1930.23 294.025 1929.66V1926.77H297.082C297.629 1926.77 298.01 1926.49 298.01 1925.97C298.01 1925.44 297.648 1925.14 297.082 1925.14H294.025V1922.07C294.025 1921.5 293.713 1921.14 293.195 1921.14C292.678 1921.14 292.385 1921.52 292.385 1922.07V1925.14H289.338C288.771 1925.14 288.4 1925.44 288.4 1925.97C288.4 1926.49 288.791 1926.77 289.338 1926.77H292.385V1929.66C292.385 1930.21 292.678 1930.59 293.195 1930.59Z" fill="black"/>
</g>
<g id="Group_3">
<path id="Vector_5" d="M319.895 1938.67C326.857 1938.67 332.619 1932.92 332.619 1925.96C332.619 1918.99 326.848 1913.24 319.885 1913.24C312.932 1913.24 307.18 1918.99 307.18 1925.96C307.18 1932.92 312.941 1938.67 319.895 1938.67ZM319.895 1936.86C313.859 1936.86 309.006 1931.99 309.006 1925.96C309.006 1919.92 313.85 1915.06 319.885 1915.06C325.93 1915.06 330.783 1919.92 330.793 1925.96C330.803 1931.99 325.939 1936.86 319.895 1936.86ZM319.875 1931.93C320.441 1931.93 320.793 1931.54 320.793 1930.94V1926.87H325.031C325.617 1926.87 326.037 1926.53 326.037 1925.98C326.037 1925.4 325.647 1925.06 325.031 1925.06H320.793V1920.81C320.793 1920.2 320.441 1919.8 319.875 1919.8C319.309 1919.8 318.986 1920.21 318.986 1920.81V1925.06H314.758C314.143 1925.06 313.732 1925.4 313.732 1925.98C313.732 1926.53 314.162 1926.87 314.758 1926.87H318.986V1930.94C318.986 1931.52 319.309 1931.93 319.875 1931.93Z" fill="black"/>
</g>
<text id="Design Variations" fill="black" xml:space="preserve" style="white-space: pre" font-family="Roboto" font-size="12" letter-spacing="0em"><tspan x="263" y="1952.1">Design Variations</tspan></text>
<text id="Symbols are supported in up to nine weights and three scales." fill="black" xml:space="preserve" style="white-space: pre" font-family="Roboto" font-size="12" letter-spacing="0em"><tspan x="263" y="1970.1">Symbols are supported in up to nine weights and three scales.</tspan></text>
<text id="For optimal layout with text and other symbols, vertically align" fill="black" xml:space="preserve" style="white-space: pre" font-family="Roboto" font-size="12" letter-spacing="0em"><tspan x="263" y="1988.1">For optimal layout with text and other symbols, vertically align</tspan></text>
<text id="symbols with the adjacent text." fill="black" xml:space="preserve" style="white-space: pre" font-family="Roboto" font-size="12" letter-spacing="0em"><tspan x="263" y="2006.1">symbols with the adjacent text.</tspan></text>
<path id="Vector_6" opacity="0.4" d="M779 1919H776V1933H779V1919Z" fill="#00AEEF"/>
<g id="Group_4">
<path id="Vector_7" d="M789.527 1933H791.373L786.178 1918.91H784.439L779.244 1933H781.09L782.506 1928.96H788.111L789.527 1933ZM785.279 1921.04H785.338L787.594 1927.47H783.023L785.279 1921.04Z" fill="black"/>
</g>
<path id="Vector_8" opacity="0.4" d="M794.617 1919H791.617V1933H794.617V1919Z" fill="#00AEEF"/>
<text id="Margins" fill="black" xml:space="preserve" style="white-space: pre" font-family="Roboto" font-size="12" letter-spacing="0em"><tspan x="776" y="1952.1">Margins</tspan></text>
<text id="Leading and trailing margins on the left and right side of each symbol" fill="black" xml:space="preserve" style="white-space: pre" font-family="Roboto" font-size="12" letter-spacing="0em"><tspan x="776" y="1970.1">Leading and trailing margins on the left and right side of each symbol</tspan></text>
<text id="can be adjusted by modifying the width of the blue rectangles." fill="black" xml:space="preserve" style="white-space: pre" font-family="Roboto" font-size="12" letter-spacing="0em"><tspan x="776" y="1988.1">can be adjusted by modifying the width of the blue rectangles.</tspan></text>
<text id="Modifications are automatically applied proportionally to all" fill="black" xml:space="preserve" style="white-space: pre" font-family="Roboto" font-size="12" letter-spacing="0em"><tspan x="776" y="2006.1">Modifications are automatically applied proportionally to all</tspan></text>
<text id="scales and weights." fill="black" xml:space="preserve" style="white-space: pre" font-family="Roboto" font-size="12" letter-spacing="0em"><tspan x="776" y="2024.1">scales and weights.</tspan></text>
<g id="Group_5">
<path id="Vector_9" d="M1291.83 1936.11L1293.37 1937.66C1294.22 1938.49 1295.19 1938.42 1296.06 1937.46L1306.27 1926.34C1306.7 1926.63 1307.1 1926.62 1307.56 1926.52L1308.61 1926.31L1309.3 1927L1309.25 1927.52C1309.19 1928.05 1309.35 1928.47 1309.85 1928.97L1310.66 1929.78C1311.17 1930.28 1311.82 1930.31 1312.3 1929.83L1315.55 1926.58C1316.03 1926.1 1316.01 1925.45 1315.5 1924.94L1314.68 1924.12C1314.19 1923.62 1313.77 1923.45 1313.24 1923.53L1312.71 1923.58L1312.06 1922.92L1312.34 1921.78C1312.49 1921.21 1312.34 1920.74 1311.71 1920.14L1309.3 1917.75C1305.76 1914.22 1301.23 1914.33 1298.11 1917.46C1297.69 1917.89 1297.64 1918.48 1297.92 1918.91C1298.15 1919.28 1298.63 1919.5 1299.27 1919.34C1300.79 1918.96 1302.3 1919.07 1303.78 1920.08L1303.16 1921.66C1302.93 1922.25 1302.94 1922.73 1303.18 1923.16L1292.02 1933.44C1291.08 1934.31 1290.97 1935.25 1291.83 1936.11ZM1299.67 1917.85C1302.34 1915.86 1305.65 1916.17 1308.05 1918.58L1310.68 1921.19C1310.91 1921.43 1310.94 1921.61 1310.88 1921.91L1310.5 1923.47L1312.08 1925.04L1313.04 1924.95C1313.33 1924.92 1313.41 1924.94 1313.64 1925.17L1314.26 1925.79L1311.51 1928.54L1310.88 1927.92C1310.66 1927.7 1310.64 1927.6 1310.67 1927.32L1310.76 1926.36L1309.19 1924.8L1307.57 1925.11C1307.29 1925.17 1307.14 1925.17 1306.91 1924.92L1304.73 1922.75C1304.51 1922.51 1304.48 1922.37 1304.61 1922.05L1305.55 1919.78C1303.95 1918.24 1301.84 1917.39 1299.8 1918.05C1299.71 1918.08 1299.64 1918.06 1299.61 1918.02C1299.59 1917.97 1299.59 1917.92 1299.67 1917.85ZM1293.1 1935.41C1292.61 1934.91 1292.79 1934.61 1293.12 1934.31L1304.08 1924.19L1305.31 1925.42L1295.15 1936.35C1294.85 1936.68 1294.47 1936.78 1294.07 1936.38L1293.1 1935.41Z" fill="black"/>
</g>
<text id="Exporting" fill="black" xml:space="preserve" style="white-space: pre" font-family="Roboto" font-size="12" letter-spacing="0em"><tspan x="1289" y="1952.1">Exporting</tspan></text>
<text id="Symbols should be outlined when exporting to ensure the" fill="black" xml:space="preserve" style="white-space: pre" font-family="Roboto" font-size="12" letter-spacing="0em"><tspan x="1289" y="1970.1">Symbols should be outlined when exporting to ensure the</tspan></text>
<text id="design is preserved when submitting to Xcode." fill="black" xml:space="preserve" style="white-space: pre" font-family="Roboto" font-size="12" letter-spacing="0em"><tspan x="1289" y="1988.1">design is preserved when submitting to Xcode.</tspan></text>
<text id="template-version" fill="black" xml:space="preserve" style="white-space: pre" font-family="Roboto" font-size="12" letter-spacing="0em"><tspan x="2958" y="1932.1">Template v.1.0</tspan></text>
<text id="Generated from pencil.circle" fill="black" xml:space="preserve" style="white-space: pre" font-family="Roboto" font-size="12" letter-spacing="0em"><tspan x="2885" y="1950.1">Generated from pencil.circle</tspan></text>
<text id="Typeset at 100 points" fill="black" xml:space="preserve" style="white-space: pre" font-family="Roboto" font-size="12" letter-spacing="0em"><tspan x="2921" y="1968.1">Typeset at 100 points</tspan></text>
<text id="Small" fill="black" xml:space="preserve" style="white-space: pre" font-family="Roboto" font-size="12" letter-spacing="0em"><tspan x="263" y="725.102">Small</tspan></text>
<text id="Medium_2" fill="black" xml:space="preserve" style="white-space: pre" font-family="Roboto" font-size="12" letter-spacing="0em"><tspan x="263" y="1155.1">Medium</tspan></text>
<text id="Large" fill="black" xml:space="preserve" style="white-space: pre" font-family="Roboto" font-size="12" letter-spacing="0em"><tspan x="263" y="1585.1">Large</tspan></text>
</g>
<g id="Guides">
<g id="H-reference">
<path id="Vector_10" d="M393.932 695.998H396.666L369.566 625.539H367.076L339.977 695.998H342.662L351.94 671.535H384.703L393.932 695.998ZM368.199 628.908H368.443L383.824 669.289H352.818L368.199 628.908Z" fill="#27AAE1"/>
</g>
<path id="Baseline-S" d="M263 696H3036" stroke="#27AAE1" stroke-width="0.577"/>
<path id="Capline-S" d="M263 626H3036" stroke="#27AAE1" stroke-width="0.577"/>
<g id="H-reference_2">
<path id="Vector_11" d="M393.932 1126H396.666L369.566 1055.54H367.076L339.977 1126H342.662L351.94 1101.54H384.703L393.932 1126ZM368.199 1058.91H368.443L383.824 1099.29H352.818L368.199 1058.91Z" fill="#27AAE1"/>
</g>
<path id="Baseline-M" d="M263 1126H3036" stroke="#27AAE1" stroke-width="0.577"/>
<path id="Capline-M" d="M263 1056H3036" stroke="#27AAE1" stroke-width="0.577"/>
<g id="H-reference_3">
<path id="Vector_12" d="M393.932 1556H396.666L369.566 1485.54H367.076L339.977 1556H342.662L351.94 1531.54H384.703L393.932 1556ZM368.199 1488.91H368.443L383.824 1529.29H352.818L368.199 1488.91Z" fill="#27AAE1"/>
</g>
<g id="Group 1">
<path id="Baseline-L" d="M263 1556H3036" stroke="#27AAE1" stroke-width="0.577"/>
<path id="Capline-L" d="M263 1486H3036" stroke="#27AAE1" stroke-width="0.577"/>
</g>
<path id="left-margin" opacity="0.4" d="M1396.04 1030.79H1387.3V1150.12H1396.04V1030.79Z" fill="#00AEEF"/>
<path id="right-margin" opacity="0.4" d="M1510.39 1030.79H1501.65V1150.12H1510.39V1030.79Z" fill="#00AEEF"/>
</g>
<g id="Symbols">
<g id="Black-L">
<g id="Solid / Error Solid">
<path id="Shape" fill-rule="evenodd" clip-rule="evenodd" d="M2861.5 1521C2861.5 1483.72 2891.72 1453.5 2929 1453.5C2966.28 1453.5 2996.5 1483.72 2996.5 1521C2996.5 1558.28 2966.28 1588.5 2929 1588.5C2891.72 1588.5 2861.5 1558.28 2861.5 1521ZM2929 1485.38C2932.11 1485.38 2934.62 1487.89 2934.62 1491V1528.5C2934.62 1531.61 2932.11 1534.12 2929 1534.12C2925.89 1534.12 2923.37 1531.61 2923.37 1528.5V1491C2923.37 1487.89 2925.89 1485.38 2929 1485.38ZM2929 1556.25C2932.52 1556.25 2935.37 1553.4 2935.37 1549.88C2935.37 1546.35 2932.52 1543.5 2929 1543.5C2925.48 1543.5 2922.62 1546.35 2922.62 1549.88C2922.62 1553.4 2925.48 1556.25 2929 1556.25Z" fill="black"/>
</g>
</g>
<g id="Heavy-L">
<g id="Solid / Error Solid_2">
<path id="Shape_2" fill-rule="evenodd" clip-rule="evenodd" d="M2565.5 1521C2565.5 1483.72 2595.72 1453.5 2633 1453.5C2670.28 1453.5 2700.5 1483.72 2700.5 1521C2700.5 1558.28 2670.28 1588.5 2633 1588.5C2595.72 1588.5 2565.5 1558.28 2565.5 1521ZM2633 1485.38C2636.11 1485.38 2638.62 1487.89 2638.62 1491V1528.5C2638.62 1531.61 2636.11 1534.12 2633 1534.12C2629.89 1534.12 2627.37 1531.61 2627.37 1528.5V1491C2627.37 1487.89 2629.89 1485.38 2633 1485.38ZM2633 1556.25C2636.52 1556.25 2639.37 1553.4 2639.37 1549.88C2639.37 1546.35 2636.52 1543.5 2633 1543.5C2629.48 1543.5 2626.62 1546.35 2626.62 1549.88C2626.62 1553.4 2629.48 1556.25 2633 1556.25Z" fill="black"/>
</g>
</g>
<g id="Bold-L">
<g id="Solid / Error Solid_3">
<path id="Shape_3" fill-rule="evenodd" clip-rule="evenodd" d="M2269.5 1521C2269.5 1483.72 2299.72 1453.5 2337 1453.5C2374.28 1453.5 2404.5 1483.72 2404.5 1521C2404.5 1558.28 2374.28 1588.5 2337 1588.5C2299.72 1588.5 2269.5 1558.28 2269.5 1521ZM2337 1485.38C2340.11 1485.38 2342.62 1487.89 2342.62 1491V1528.5C2342.62 1531.61 2340.11 1534.12 2337 1534.12C2333.89 1534.12 2331.37 1531.61 2331.37 1528.5V1491C2331.37 1487.89 2333.89 1485.38 2337 1485.38ZM2337 1556.25C2340.52 1556.25 2343.37 1553.4 2343.37 1549.88C2343.37 1546.35 2340.52 1543.5 2337 1543.5C2333.48 1543.5 2330.62 1546.35 2330.62 1549.88C2330.62 1553.4 2333.48 1556.25 2337 1556.25Z" fill="black"/>
</g>
</g>
<g id="Semibold-L">
<g id="Solid / Error Solid_4">
<path id="Shape_4" fill-rule="evenodd" clip-rule="evenodd" d="M1973.5 1521C1973.5 1483.72 2003.72 1453.5 2041 1453.5C2078.28 1453.5 2108.5 1483.72 2108.5 1521C2108.5 1558.28 2078.28 1588.5 2041 1588.5C2003.72 1588.5 1973.5 1558.28 1973.5 1521ZM2041 1485.38C2044.11 1485.38 2046.62 1487.89 2046.62 1491V1528.5C2046.62 1531.61 2044.11 1534.12 2041 1534.12C2037.89 1534.12 2035.37 1531.61 2035.37 1528.5V1491C2035.37 1487.89 2037.89 1485.38 2041 1485.38ZM2041 1556.25C2044.52 1556.25 2047.37 1553.4 2047.37 1549.88C2047.37 1546.35 2044.52 1543.5 2041 1543.5C2037.48 1543.5 2034.62 1546.35 2034.62 1549.88C2034.62 1553.4 2037.48 1556.25 2041 1556.25Z" fill="black"/>
</g>
</g>
<g id="Medium-L">
<g id="Solid / Error Solid_5">
<path id="Shape_5" fill-rule="evenodd" clip-rule="evenodd" d="M1677.5 1521C1677.5 1483.72 1707.72 1453.5 1745 1453.5C1782.28 1453.5 1812.5 1483.72 1812.5 1521C1812.5 1558.28 1782.28 1588.5 1745 1588.5C1707.72 1588.5 1677.5 1558.28 1677.5 1521ZM1745 1485.38C1748.11 1485.38 1750.62 1487.89 1750.62 1491V1528.5C1750.62 1531.61 1748.11 1534.12 1745 1534.12C1741.89 1534.12 1739.37 1531.61 1739.37 1528.5V1491C1739.37 1487.89 1741.89 1485.38 1745 1485.38ZM1745 1556.25C1748.52 1556.25 1751.37 1553.4 1751.37 1549.88C1751.37 1546.35 1748.52 1543.5 1745 1543.5C1741.48 1543.5 1738.62 1546.35 1738.62 1549.88C1738.62 1553.4 1741.48 1556.25 1745 1556.25Z" fill="black"/>
</g>
</g>
<g id="Regular-L">
<g id="Solid / Error Solid_6">
<path id="Shape_6" fill-rule="evenodd" clip-rule="evenodd" d="M1381.5 1521C1381.5 1483.72 1411.72 1453.5 1449 1453.5C1486.28 1453.5 1516.5 1483.72 1516.5 1521C1516.5 1558.28 1486.28 1588.5 1449 1588.5C1411.72 1588.5 1381.5 1558.28 1381.5 1521ZM1449 1485.38C1452.11 1485.38 1454.62 1487.89 1454.62 1491V1528.5C1454.62 1531.61 1452.11 1534.12 1449 1534.12C1445.89 1534.12 1443.37 1531.61 1443.37 1528.5V1491C1443.37 1487.89 1445.89 1485.38 1449 1485.38ZM1449 1556.25C1452.52 1556.25 1455.37 1553.4 1455.37 1549.88C1455.37 1546.35 1452.52 1543.5 1449 1543.5C1445.48 1543.5 1442.62 1546.35 1442.62 1549.88C1442.62 1553.4 1445.48 1556.25 1449 1556.25Z" fill="black"/>
</g>
</g>
<g id="Light-L">
<g id="Solid / Error Solid_7">
<path id="Shape_7" fill-rule="evenodd" clip-rule="evenodd" d="M1085.5 1521C1085.5 1483.72 1115.72 1453.5 1153 1453.5C1190.28 1453.5 1220.5 1483.72 1220.5 1521C1220.5 1558.28 1190.28 1588.5 1153 1588.5C1115.72 1588.5 1085.5 1558.28 1085.5 1521ZM1153 1485.38C1156.11 1485.38 1158.62 1487.89 1158.62 1491V1528.5C1158.62 1531.61 1156.11 1534.12 1153 1534.12C1149.89 1534.12 1147.37 1531.61 1147.37 1528.5V1491C1147.37 1487.89 1149.89 1485.38 1153 1485.38ZM1153 1556.25C1156.52 1556.25 1159.37 1553.4 1159.37 1549.88C1159.37 1546.35 1156.52 1543.5 1153 1543.5C1149.48 1543.5 1146.62 1546.35 1146.62 1549.88C1146.62 1553.4 1149.48 1556.25 1153 1556.25Z" fill="black"/>
</g>
</g>
<g id="Thin-L">
<g id="Solid / Error Solid_8">
<path id="Shape_8" fill-rule="evenodd" clip-rule="evenodd" d="M789.5 1521C789.5 1483.72 819.721 1453.5 857 1453.5C894.279 1453.5 924.5 1483.72 924.5 1521C924.5 1558.28 894.279 1588.5 857 1588.5C819.721 1588.5 789.5 1558.28 789.5 1521ZM857 1485.38C860.107 1485.38 862.625 1487.89 862.625 1491V1528.5C862.625 1531.61 860.107 1534.12 857 1534.12C853.893 1534.12 851.375 1531.61 851.375 1528.5V1491C851.375 1487.89 853.893 1485.38 857 1485.38ZM857 1556.25C860.521 1556.25 863.375 1553.4 863.375 1549.88C863.375 1546.35 860.521 1543.5 857 1543.5C853.479 1543.5 850.625 1546.35 850.625 1549.88C850.625 1553.4 853.479 1556.25 857 1556.25Z" fill="black"/>
</g>
</g>
<g id="Ultralight-L">
<g id="Solid / Error Solid_9">
<path id="Shape_9" fill-rule="evenodd" clip-rule="evenodd" d="M493.5 1521C493.5 1483.72 523.721 1453.5 561 1453.5C598.279 1453.5 628.5 1483.72 628.5 1521C628.5 1558.28 598.279 1588.5 561 1588.5C523.721 1588.5 493.5 1558.28 493.5 1521ZM561 1485.38C564.107 1485.38 566.625 1487.89 566.625 1491V1528.5C566.625 1531.61 564.107 1534.12 561 1534.12C557.893 1534.12 555.375 1531.61 555.375 1528.5V1491C555.375 1487.89 557.893 1485.38 561 1485.38ZM561 1556.25C564.521 1556.25 567.375 1553.4 567.375 1549.88C567.375 1546.35 564.521 1543.5 561 1543.5C557.479 1543.5 554.625 1546.35 554.625 1549.88C554.625 1553.4 557.479 1556.25 561 1556.25Z" fill="black"/>
</g>
</g>
<g id="Black-M">
<g id="Solid / Error Solid_10">
<path id="Shape_10" fill-rule="evenodd" clip-rule="evenodd" d="M2876.5 1091C2876.5 1062.01 2900.01 1038.5 2929 1038.5C2957.99 1038.5 2981.5 1062.01 2981.5 1091C2981.5 1119.99 2957.99 1143.5 2929 1143.5C2900.01 1143.5 2876.5 1119.99 2876.5 1091ZM2929 1063.29C2931.42 1063.29 2933.37 1065.25 2933.37 1067.67V1096.83C2933.37 1099.25 2931.42 1101.21 2929 1101.21C2926.58 1101.21 2924.62 1099.25 2924.62 1096.83V1067.67C2924.62 1065.25 2926.58 1063.29 2929 1063.29ZM2929 1118.42C2931.74 1118.42 2933.96 1116.2 2933.96 1113.46C2933.96 1110.72 2931.74 1108.5 2929 1108.5C2926.26 1108.5 2924.04 1110.72 2924.04 1113.46C2924.04 1116.2 2926.26 1118.42 2929 1118.42Z" fill="black"/>
</g>
</g>
<g id="Heavy-M">
<g id="Solid / Error Solid_11">
<path id="Shape_11" fill-rule="evenodd" clip-rule="evenodd" d="M2580.5 1091C2580.5 1062.01 2604.01 1038.5 2633 1038.5C2661.99 1038.5 2685.5 1062.01 2685.5 1091C2685.5 1119.99 2661.99 1143.5 2633 1143.5C2604.01 1143.5 2580.5 1119.99 2580.5 1091ZM2633 1063.29C2635.42 1063.29 2637.37 1065.25 2637.37 1067.67V1096.83C2637.37 1099.25 2635.42 1101.21 2633 1101.21C2630.58 1101.21 2628.62 1099.25 2628.62 1096.83V1067.67C2628.62 1065.25 2630.58 1063.29 2633 1063.29ZM2633 1118.42C2635.74 1118.42 2637.96 1116.2 2637.96 1113.46C2637.96 1110.72 2635.74 1108.5 2633 1108.5C2630.26 1108.5 2628.04 1110.72 2628.04 1113.46C2628.04 1116.2 2630.26 1118.42 2633 1118.42Z" fill="black"/>
</g>
</g>
<g id="Bold-M">
<g id="Solid / Error Solid_12">
<path id="Shape_12" fill-rule="evenodd" clip-rule="evenodd" d="M2284.5 1091C2284.5 1062.01 2308.01 1038.5 2337 1038.5C2365.99 1038.5 2389.5 1062.01 2389.5 1091C2389.5 1119.99 2365.99 1143.5 2337 1143.5C2308.01 1143.5 2284.5 1119.99 2284.5 1091ZM2337 1063.29C2339.42 1063.29 2341.37 1065.25 2341.37 1067.67V1096.83C2341.37 1099.25 2339.42 1101.21 2337 1101.21C2334.58 1101.21 2332.62 1099.25 2332.62 1096.83V1067.67C2332.62 1065.25 2334.58 1063.29 2337 1063.29ZM2337 1118.42C2339.74 1118.42 2341.96 1116.2 2341.96 1113.46C2341.96 1110.72 2339.74 1108.5 2337 1108.5C2334.26 1108.5 2332.04 1110.72 2332.04 1113.46C2332.04 1116.2 2334.26 1118.42 2337 1118.42Z" fill="black"/>
</g>
</g>
<g id="Semibold-M">
<g id="Solid / Error Solid_13">
<path id="Shape_13" fill-rule="evenodd" clip-rule="evenodd" d="M1988.5 1091C1988.5 1062.01 2012.01 1038.5 2041 1038.5C2069.99 1038.5 2093.5 1062.01 2093.5 1091C2093.5 1119.99 2069.99 1143.5 2041 1143.5C2012.01 1143.5 1988.5 1119.99 1988.5 1091ZM2041 1063.29C2043.42 1063.29 2045.37 1065.25 2045.37 1067.67V1096.83C2045.37 1099.25 2043.42 1101.21 2041 1101.21C2038.58 1101.21 2036.62 1099.25 2036.62 1096.83V1067.67C2036.62 1065.25 2038.58 1063.29 2041 1063.29ZM2041 1118.42C2043.74 1118.42 2045.96 1116.2 2045.96 1113.46C2045.96 1110.72 2043.74 1108.5 2041 1108.5C2038.26 1108.5 2036.04 1110.72 2036.04 1113.46C2036.04 1116.2 2038.26 1118.42 2041 1118.42Z" fill="black"/>
</g>
</g>
<g id="Medium-M">
<g id="Solid / Error Solid_14">
<path id="Shape_14" fill-rule="evenodd" clip-rule="evenodd" d="M1692.5 1091C1692.5 1062.01 1716.01 1038.5 1745 1038.5C1773.99 1038.5 1797.5 1062.01 1797.5 1091C1797.5 1119.99 1773.99 1143.5 1745 1143.5C1716.01 1143.5 1692.5 1119.99 1692.5 1091ZM1745 1063.29C1747.42 1063.29 1749.37 1065.25 1749.37 1067.67V1096.83C1749.37 1099.25 1747.42 1101.21 1745 1101.21C1742.58 1101.21 1740.62 1099.25 1740.62 1096.83V1067.67C1740.62 1065.25 1742.58 1063.29 1745 1063.29ZM1745 1118.42C1747.74 1118.42 1749.96 1116.2 1749.96 1113.46C1749.96 1110.72 1747.74 1108.5 1745 1108.5C1742.26 1108.5 1740.04 1110.72 1740.04 1113.46C1740.04 1116.2 1742.26 1118.42 1745 1118.42Z" fill="black"/>
</g>
</g>
<g id="Regular-M">
<g id="Solid / Error Solid_15">
<path id="Shape_15" fill-rule="evenodd" clip-rule="evenodd" d="M1396.5 1091C1396.5 1062.01 1420.01 1038.5 1449 1038.5C1477.99 1038.5 1501.5 1062.01 1501.5 1091C1501.5 1119.99 1477.99 1143.5 1449 1143.5C1420.01 1143.5 1396.5 1119.99 1396.5 1091ZM1449 1063.29C1451.42 1063.29 1453.37 1065.25 1453.37 1067.67V1096.83C1453.37 1099.25 1451.42 1101.21 1449 1101.21C1446.58 1101.21 1444.62 1099.25 1444.62 1096.83V1067.67C1444.62 1065.25 1446.58 1063.29 1449 1063.29ZM1449 1118.42C1451.74 1118.42 1453.96 1116.2 1453.96 1113.46C1453.96 1110.72 1451.74 1108.5 1449 1108.5C1446.26 1108.5 1444.04 1110.72 1444.04 1113.46C1444.04 1116.2 1446.26 1118.42 1449 1118.42Z" fill="black"/>
</g>
</g>
<g id="Light-M">
<g id="Solid / Error Solid_16">
<path id="Shape_16" fill-rule="evenodd" clip-rule="evenodd" d="M1100.5 1091C1100.5 1062.01 1124.01 1038.5 1153 1038.5C1181.99 1038.5 1205.5 1062.01 1205.5 1091C1205.5 1119.99 1181.99 1143.5 1153 1143.5C1124.01 1143.5 1100.5 1119.99 1100.5 1091ZM1153 1063.29C1155.42 1063.29 1157.37 1065.25 1157.37 1067.67V1096.83C1157.37 1099.25 1155.42 1101.21 1153 1101.21C1150.58 1101.21 1148.62 1099.25 1148.62 1096.83V1067.67C1148.62 1065.25 1150.58 1063.29 1153 1063.29ZM1153 1118.42C1155.74 1118.42 1157.96 1116.2 1157.96 1113.46C1157.96 1110.72 1155.74 1108.5 1153 1108.5C1150.26 1108.5 1148.04 1110.72 1148.04 1113.46C1148.04 1116.2 1150.26 1118.42 1153 1118.42Z" fill="black"/>
</g>
</g>
<g id="Thin-M">
<g id="Solid / Error Solid_17">
<path id="Shape_17" fill-rule="evenodd" clip-rule="evenodd" d="M804.5 1091C804.5 1062.01 828.005 1038.5 857 1038.5C885.995 1038.5 909.5 1062.01 909.5 1091C909.5 1119.99 885.995 1143.5 857 1143.5C828.005 1143.5 804.5 1119.99 804.5 1091ZM857 1063.29C859.416 1063.29 861.375 1065.25 861.375 1067.67V1096.83C861.375 1099.25 859.416 1101.21 857 1101.21C854.584 1101.21 852.625 1099.25 852.625 1096.83V1067.67C852.625 1065.25 854.584 1063.29 857 1063.29ZM857 1118.42C859.738 1118.42 861.958 1116.2 861.958 1113.46C861.958 1110.72 859.738 1108.5 857 1108.5C854.262 1108.5 852.042 1110.72 852.042 1113.46C852.042 1116.2 854.262 1118.42 857 1118.42Z" fill="black"/>
</g>
</g>
<g id="Ultralight-M">
<g id="Solid / Error Solid_18">
<path id="Shape_18" fill-rule="evenodd" clip-rule="evenodd" d="M508.5 1091C508.5 1062.01 532.005 1038.5 561 1038.5C589.995 1038.5 613.5 1062.01 613.5 1091C613.5 1119.99 589.995 1143.5 561 1143.5C532.005 1143.5 508.5 1119.99 508.5 1091ZM561 1063.29C563.416 1063.29 565.375 1065.25 565.375 1067.67V1096.83C565.375 1099.25 563.416 1101.21 561 1101.21C558.584 1101.21 556.625 1099.25 556.625 1096.83V1067.67C556.625 1065.25 558.584 1063.29 561 1063.29ZM561 1118.42C563.738 1118.42 565.958 1116.2 565.958 1113.46C565.958 1110.72 563.738 1108.5 561 1108.5C558.262 1108.5 556.042 1110.72 556.042 1113.46C556.042 1116.2 558.262 1118.42 561 1118.42Z" fill="black"/>
</g>
</g>
<g id="Black-S">
<g id="Solid / Error Solid_19">
<path id="Shape_19" fill-rule="evenodd" clip-rule="evenodd" d="M2891.5 661C2891.5 640.289 2908.29 623.5 2929 623.5C2949.71 623.5 2966.5 640.289 2966.5 661C2966.5 681.711 2949.71 698.5 2929 698.5C2908.29 698.5 2891.5 681.711 2891.5 661ZM2929 641.208C2930.73 641.208 2932.12 642.607 2932.12 644.333V665.167C2932.12 666.893 2930.73 668.292 2929 668.292C2927.27 668.292 2925.87 666.893 2925.87 665.167V644.333C2925.87 642.607 2927.27 641.208 2929 641.208ZM2929 680.583C2930.96 680.583 2932.54 678.998 2932.54 677.042C2932.54 675.086 2930.96 673.5 2929 673.5C2927.04 673.5 2925.46 675.086 2925.46 677.042C2925.46 678.998 2927.04 680.583 2929 680.583Z" fill="black"/>
</g>
</g>
<g id="Heavy-S">
<g id="Solid / Error Solid_20">
<path id="Shape_20" fill-rule="evenodd" clip-rule="evenodd" d="M2595.5 661C2595.5 640.289 2612.29 623.5 2633 623.5C2653.71 623.5 2670.5 640.289 2670.5 661C2670.5 681.711 2653.71 698.5 2633 698.5C2612.29 698.5 2595.5 681.711 2595.5 661ZM2633 641.208C2634.73 641.208 2636.12 642.607 2636.12 644.333V665.167C2636.12 666.893 2634.73 668.292 2633 668.292C2631.27 668.292 2629.87 666.893 2629.87 665.167V644.333C2629.87 642.607 2631.27 641.208 2633 641.208ZM2633 680.583C2634.96 680.583 2636.54 678.998 2636.54 677.042C2636.54 675.086 2634.96 673.5 2633 673.5C2631.04 673.5 2629.46 675.086 2629.46 677.042C2629.46 678.998 2631.04 680.583 2633 680.583Z" fill="black"/>
</g>
</g>
<g id="Bold-S">
<g id="Solid / Error Solid_21">
<path id="Shape_21" fill-rule="evenodd" clip-rule="evenodd" d="M2299.5 661C2299.5 640.289 2316.29 623.5 2337 623.5C2357.71 623.5 2374.5 640.289 2374.5 661C2374.5 681.711 2357.71 698.5 2337 698.5C2316.29 698.5 2299.5 681.711 2299.5 661ZM2337 641.208C2338.73 641.208 2340.12 642.607 2340.12 644.333V665.167C2340.12 666.893 2338.73 668.292 2337 668.292C2335.27 668.292 2333.87 666.893 2333.87 665.167V644.333C2333.87 642.607 2335.27 641.208 2337 641.208ZM2337 680.583C2338.96 680.583 2340.54 678.998 2340.54 677.042C2340.54 675.086 2338.96 673.5 2337 673.5C2335.04 673.5 2333.46 675.086 2333.46 677.042C2333.46 678.998 2335.04 680.583 2337 680.583Z" fill="black"/>
</g>
</g>
<g id="Semibold-S">
<g id="Solid / Error Solid_22">
<path id="Shape_22" fill-rule="evenodd" clip-rule="evenodd" d="M2003.5 661C2003.5 640.289 2020.29 623.5 2041 623.5C2061.71 623.5 2078.5 640.289 2078.5 661C2078.5 681.711 2061.71 698.5 2041 698.5C2020.29 698.5 2003.5 681.711 2003.5 661ZM2041 641.208C2042.73 641.208 2044.12 642.607 2044.12 644.333V665.167C2044.12 666.893 2042.73 668.292 2041 668.292C2039.27 668.292 2037.87 666.893 2037.87 665.167V644.333C2037.87 642.607 2039.27 641.208 2041 641.208ZM2041 680.583C2042.96 680.583 2044.54 678.998 2044.54 677.042C2044.54 675.086 2042.96 673.5 2041 673.5C2039.04 673.5 2037.46 675.086 2037.46 677.042C2037.46 678.998 2039.04 680.583 2041 680.583Z" fill="black"/>
</g>
</g>
<g id="Medium-S">
<g id="Solid / Error Solid_23">
<path id="Shape_23" fill-rule="evenodd" clip-rule="evenodd" d="M1707.5 661C1707.5 640.289 1724.29 623.5 1745 623.5C1765.71 623.5 1782.5 640.289 1782.5 661C1782.5 681.711 1765.71 698.5 1745 698.5C1724.29 698.5 1707.5 681.711 1707.5 661ZM1745 641.208C1746.73 641.208 1748.12 642.607 1748.12 644.333V665.167C1748.12 666.893 1746.73 668.292 1745 668.292C1743.27 668.292 1741.87 666.893 1741.87 665.167V644.333C1741.87 642.607 1743.27 641.208 1745 641.208ZM1745 680.583C1746.96 680.583 1748.54 678.998 1748.54 677.042C1748.54 675.086 1746.96 673.5 1745 673.5C1743.04 673.5 1741.46 675.086 1741.46 677.042C1741.46 678.998 1743.04 680.583 1745 680.583Z" fill="black"/>
</g>
</g>
<g id="Regular-S">
<g id="Solid / Error Solid_24">
<path id="Shape_24" fill-rule="evenodd" clip-rule="evenodd" d="M1411.5 661C1411.5 640.289 1428.29 623.5 1449 623.5C1469.71 623.5 1486.5 640.289 1486.5 661C1486.5 681.711 1469.71 698.5 1449 698.5C1428.29 698.5 1411.5 681.711 1411.5 661ZM1449 641.208C1450.73 641.208 1452.12 642.607 1452.12 644.333V665.167C1452.12 666.893 1450.73 668.292 1449 668.292C1447.27 668.292 1445.87 666.893 1445.87 665.167V644.333C1445.87 642.607 1447.27 641.208 1449 641.208ZM1449 680.583C1450.96 680.583 1452.54 678.998 1452.54 677.042C1452.54 675.086 1450.96 673.5 1449 673.5C1447.04 673.5 1445.46 675.086 1445.46 677.042C1445.46 678.998 1447.04 680.583 1449 680.583Z" fill="black"/>
</g>
</g>
<g id="Light-S">
<g id="Solid / Error Solid_25">
<path id="Shape_25" fill-rule="evenodd" clip-rule="evenodd" d="M1115.5 661C1115.5 640.289 1132.29 623.5 1153 623.5C1173.71 623.5 1190.5 640.289 1190.5 661C1190.5 681.711 1173.71 698.5 1153 698.5C1132.29 698.5 1115.5 681.711 1115.5 661ZM1153 641.208C1154.73 641.208 1156.12 642.607 1156.12 644.333V665.167C1156.12 666.893 1154.73 668.292 1153 668.292C1151.27 668.292 1149.87 666.893 1149.87 665.167V644.333C1149.87 642.607 1151.27 641.208 1153 641.208ZM1153 680.583C1154.96 680.583 1156.54 678.998 1156.54 677.042C1156.54 675.086 1154.96 673.5 1153 673.5C1151.04 673.5 1149.46 675.086 1149.46 677.042C1149.46 678.998 1151.04 680.583 1153 680.583Z" fill="black"/>
</g>
</g>
<g id="Thin-S">
<g id="Solid / Error Solid_26">
<path id="Shape_26" fill-rule="evenodd" clip-rule="evenodd" d="M819.5 661C819.5 640.289 836.289 623.5 857 623.5C877.711 623.5 894.5 640.289 894.5 661C894.5 681.711 877.711 698.5 857 698.5C836.289 698.5 819.5 681.711 819.5 661ZM857 641.208C858.726 641.208 860.125 642.607 860.125 644.333V665.167C860.125 666.893 858.726 668.292 857 668.292C855.274 668.292 853.875 666.893 853.875 665.167V644.333C853.875 642.607 855.274 641.208 857 641.208ZM857 680.583C858.956 680.583 860.542 678.998 860.542 677.042C860.542 675.086 858.956 673.5 857 673.5C855.044 673.5 853.458 675.086 853.458 677.042C853.458 678.998 855.044 680.583 857 680.583Z" fill="black"/>
</g>
</g>
<g id="Ultralight-S">
<g id="Solid / Error Solid_27">
<path id="Shape_27" fill-rule="evenodd" clip-rule="evenodd" d="M523.5 661C523.5 640.289 540.289 623.5 561 623.5C581.711 623.5 598.5 640.289 598.5 661C598.5 681.711 581.711 698.5 561 698.5C540.289 698.5 523.5 681.711 523.5 661ZM561 641.208C562.726 641.208 564.125 642.607 564.125 644.333V665.167C564.125 666.893 562.726 668.292 561 668.292C559.274 668.292 557.875 666.893 557.875 665.167V644.333C557.875 642.607 559.274 641.208 561 641.208ZM561 680.583C562.956 680.583 564.542 678.998 564.542 677.042C564.542 675.086 562.956 673.5 561 673.5C559.044 673.5 557.458 675.086 557.458 677.042C557.458 678.998 559.044 680.583 561 680.583Z" fill="black"/>
</g>
</g>
</g>
</g>
<defs>
<clipPath id="clip0_0_1">
<rect width="3300" height="2200" fill="white"/>
</clipPath>
</defs>
</svg>
