<svg width="3300" height="2200" viewBox="0 0 3300 2200" fill="none" xmlns="http://www.w3.org/2000/svg">
<rect width="3300" height="2200" fill="#E5E5E5"/>
<g id="System / Solid / Report" clip-path="url(#clip0_805_27002)">
<g id="Notes">
<path id="artboard" d="M3300 0H0V2200H3300V0Z" fill="white"/>
<path id="Vector" d="M263 292H3036" stroke="black" stroke-width="0.5"/>
<text id="Weight/Scale Variations" fill="black" xml:space="preserve" style="white-space: pre" font-family="Roboto" font-size="12" letter-spacing="0em"><tspan x="263" y="321.102">Weight/Scale Variations</tspan></text>
<text id="Ultralight" fill="black" xml:space="preserve" style="white-space: pre" font-family="Roboto" font-size="12" letter-spacing="0em"><tspan x="535.211" y="321.102">Ultralight</tspan></text>
<text id="Thin" fill="black" xml:space="preserve" style="white-space: pre" font-family="Roboto" font-size="12" letter-spacing="0em"><tspan x="844.422" y="321.102">Thin</tspan></text>
<text id="Light" fill="black" xml:space="preserve" style="white-space: pre" font-family="Roboto" font-size="12" letter-spacing="0em"><tspan x="1139.63" y="321.102">Light</tspan></text>
<text id="Regular" fill="black" xml:space="preserve" style="white-space: pre" font-family="Roboto" font-size="12" letter-spacing="0em"><tspan x="1429.34" y="321.102">Regular</tspan></text>
<text id="Medium" fill="black" xml:space="preserve" style="white-space: pre" font-family="Roboto" font-size="12" letter-spacing="0em"><tspan x="1724.56" y="321.102">Medium</tspan></text>
<text id="Semibold" fill="black" xml:space="preserve" style="white-space: pre" font-family="Roboto" font-size="12" letter-spacing="0em"><tspan x="2017.77" y="321.102">Semibold</tspan></text>
<text id="Bold" fill="black" xml:space="preserve" style="white-space: pre" font-family="Roboto" font-size="12" letter-spacing="0em"><tspan x="2327.48" y="321.102">Bold</tspan></text>
<text id="Heavy" fill="black" xml:space="preserve" style="white-space: pre" font-family="Roboto" font-size="12" letter-spacing="0em"><tspan x="2620.19" y="321.102">Heavy</tspan></text>
<text id="Black" fill="black" xml:space="preserve" style="white-space: pre" font-family="Roboto" font-size="12" letter-spacing="0em"><tspan x="2918.4" y="321.102">Black</tspan></text>
<path id="Vector_2" d="M263 1903H3036" stroke="black" stroke-width="0.5"/>
<g id="Group">
<path id="Vector_3" d="M272.248 1933.83C276.555 1933.83 280.139 1930.26 280.139 1925.95C280.139 1921.64 276.545 1918.07 272.238 1918.07C267.941 1918.07 264.367 1921.64 264.367 1925.95C264.367 1930.26 267.951 1933.83 272.248 1933.83ZM272.248 1932.35C268.703 1932.35 265.871 1929.51 265.871 1925.95C265.871 1922.4 268.693 1919.55 272.238 1919.55C275.793 1919.55 278.635 1922.4 278.644 1925.95C278.654 1929.51 275.803 1932.35 272.248 1932.35ZM272.229 1929.57C272.697 1929.57 272.971 1929.26 272.971 1928.74V1926.68H275.197C275.695 1926.68 276.037 1926.43 276.037 1925.96C276.037 1925.48 275.715 1925.22 275.197 1925.22H272.971V1922.99C272.971 1922.47 272.697 1922.15 272.229 1922.15C271.76 1922.15 271.506 1922.49 271.506 1922.99V1925.22H269.299C268.781 1925.22 268.449 1925.48 268.449 1925.96C268.449 1926.43 268.801 1926.68 269.299 1926.68H271.506V1928.74C271.506 1929.24 271.76 1929.57 272.229 1929.57Z" fill="black"/>
</g>
<g id="Group_2">
<path id="Vector_4" d="M293.215 1935.91C298.664 1935.91 303.176 1931.4 303.176 1925.95C303.176 1920.51 298.654 1915.99 293.205 1915.99C287.766 1915.99 283.254 1920.51 283.254 1925.95C283.254 1931.4 287.775 1935.91 293.215 1935.91ZM293.215 1934.25C288.605 1934.25 284.924 1930.56 284.924 1925.95C284.924 1921.35 288.596 1917.65 293.205 1917.65C297.814 1917.65 301.506 1921.35 301.516 1925.95C301.525 1930.56 297.824 1934.25 293.215 1934.25ZM293.195 1930.59C293.713 1930.59 294.025 1930.23 294.025 1929.66V1926.77H297.082C297.629 1926.77 298.01 1926.49 298.01 1925.97C298.01 1925.44 297.648 1925.14 297.082 1925.14H294.025V1922.07C294.025 1921.5 293.713 1921.14 293.195 1921.14C292.678 1921.14 292.385 1921.52 292.385 1922.07V1925.14H289.338C288.771 1925.14 288.4 1925.44 288.4 1925.97C288.4 1926.49 288.791 1926.77 289.338 1926.77H292.385V1929.66C292.385 1930.21 292.678 1930.59 293.195 1930.59Z" fill="black"/>
</g>
<g id="Group_3">
<path id="Vector_5" d="M319.895 1938.67C326.857 1938.67 332.619 1932.92 332.619 1925.96C332.619 1918.99 326.848 1913.24 319.885 1913.24C312.932 1913.24 307.18 1918.99 307.18 1925.96C307.18 1932.92 312.941 1938.67 319.895 1938.67ZM319.895 1936.86C313.859 1936.86 309.006 1931.99 309.006 1925.96C309.006 1919.92 313.85 1915.06 319.885 1915.06C325.93 1915.06 330.783 1919.92 330.793 1925.96C330.803 1931.99 325.939 1936.86 319.895 1936.86ZM319.875 1931.93C320.441 1931.93 320.793 1931.54 320.793 1930.94V1926.87H325.031C325.617 1926.87 326.037 1926.53 326.037 1925.98C326.037 1925.4 325.647 1925.06 325.031 1925.06H320.793V1920.81C320.793 1920.2 320.441 1919.8 319.875 1919.8C319.309 1919.8 318.986 1920.21 318.986 1920.81V1925.06H314.758C314.143 1925.06 313.732 1925.4 313.732 1925.98C313.732 1926.53 314.162 1926.87 314.758 1926.87H318.986V1930.94C318.986 1931.52 319.309 1931.93 319.875 1931.93Z" fill="black"/>
</g>
<text id="Design Variations" fill="black" xml:space="preserve" style="white-space: pre" font-family="Roboto" font-size="12" letter-spacing="0em"><tspan x="263" y="1952.1">Design Variations</tspan></text>
<text id="Symbols are supported in up to nine weights and three scales." fill="black" xml:space="preserve" style="white-space: pre" font-family="Roboto" font-size="12" letter-spacing="0em"><tspan x="263" y="1970.1">Symbols are supported in up to nine weights and three scales.</tspan></text>
<text id="For optimal layout with text and other symbols, vertically align" fill="black" xml:space="preserve" style="white-space: pre" font-family="Roboto" font-size="12" letter-spacing="0em"><tspan x="263" y="1988.1">For optimal layout with text and other symbols, vertically align</tspan></text>
<text id="symbols with the adjacent text." fill="black" xml:space="preserve" style="white-space: pre" font-family="Roboto" font-size="12" letter-spacing="0em"><tspan x="263" y="2006.1">symbols with the adjacent text.</tspan></text>
<path id="Vector_6" opacity="0.4" d="M779 1919H776V1933H779V1919Z" fill="#00AEEF"/>
<g id="Group_4">
<path id="Vector_7" d="M789.527 1933H791.373L786.178 1918.91H784.439L779.244 1933H781.09L782.506 1928.96H788.111L789.527 1933ZM785.279 1921.04H785.338L787.594 1927.47H783.023L785.279 1921.04Z" fill="black"/>
</g>
<path id="Vector_8" opacity="0.4" d="M794.617 1919H791.617V1933H794.617V1919Z" fill="#00AEEF"/>
<text id="Margins" fill="black" xml:space="preserve" style="white-space: pre" font-family="Roboto" font-size="12" letter-spacing="0em"><tspan x="776" y="1952.1">Margins</tspan></text>
<text id="Leading and trailing margins on the left and right side of each symbol" fill="black" xml:space="preserve" style="white-space: pre" font-family="Roboto" font-size="12" letter-spacing="0em"><tspan x="776" y="1970.1">Leading and trailing margins on the left and right side of each symbol</tspan></text>
<text id="can be adjusted by modifying the width of the blue rectangles." fill="black" xml:space="preserve" style="white-space: pre" font-family="Roboto" font-size="12" letter-spacing="0em"><tspan x="776" y="1988.1">can be adjusted by modifying the width of the blue rectangles.</tspan></text>
<text id="Modifications are automatically applied proportionally to all" fill="black" xml:space="preserve" style="white-space: pre" font-family="Roboto" font-size="12" letter-spacing="0em"><tspan x="776" y="2006.1">Modifications are automatically applied proportionally to all</tspan></text>
<text id="scales and weights." fill="black" xml:space="preserve" style="white-space: pre" font-family="Roboto" font-size="12" letter-spacing="0em"><tspan x="776" y="2024.1">scales and weights.</tspan></text>
<g id="Group_5">
<path id="Vector_9" d="M1291.83 1936.11L1293.37 1937.66C1294.22 1938.49 1295.19 1938.42 1296.06 1937.46L1306.27 1926.34C1306.7 1926.63 1307.1 1926.62 1307.56 1926.52L1308.61 1926.31L1309.3 1927L1309.25 1927.52C1309.19 1928.05 1309.35 1928.47 1309.85 1928.97L1310.66 1929.78C1311.17 1930.28 1311.82 1930.31 1312.3 1929.83L1315.55 1926.58C1316.03 1926.1 1316.01 1925.45 1315.5 1924.94L1314.68 1924.12C1314.19 1923.62 1313.77 1923.45 1313.24 1923.53L1312.71 1923.58L1312.06 1922.92L1312.34 1921.78C1312.49 1921.21 1312.34 1920.74 1311.71 1920.14L1309.3 1917.75C1305.76 1914.22 1301.23 1914.33 1298.11 1917.46C1297.69 1917.89 1297.64 1918.48 1297.92 1918.91C1298.15 1919.28 1298.63 1919.5 1299.27 1919.34C1300.79 1918.96 1302.3 1919.07 1303.78 1920.08L1303.16 1921.66C1302.93 1922.25 1302.94 1922.73 1303.18 1923.16L1292.02 1933.44C1291.08 1934.31 1290.97 1935.25 1291.83 1936.11ZM1299.67 1917.85C1302.34 1915.86 1305.65 1916.17 1308.05 1918.58L1310.68 1921.19C1310.91 1921.43 1310.94 1921.61 1310.88 1921.91L1310.5 1923.47L1312.08 1925.04L1313.04 1924.95C1313.33 1924.92 1313.41 1924.94 1313.64 1925.17L1314.26 1925.79L1311.51 1928.54L1310.88 1927.92C1310.66 1927.7 1310.64 1927.6 1310.67 1927.32L1310.76 1926.36L1309.19 1924.8L1307.57 1925.11C1307.29 1925.17 1307.14 1925.17 1306.91 1924.92L1304.73 1922.75C1304.51 1922.51 1304.48 1922.37 1304.61 1922.05L1305.55 1919.78C1303.95 1918.24 1301.84 1917.39 1299.8 1918.05C1299.71 1918.08 1299.64 1918.06 1299.61 1918.02C1299.59 1917.97 1299.59 1917.92 1299.67 1917.85ZM1293.1 1935.41C1292.61 1934.91 1292.79 1934.61 1293.12 1934.31L1304.08 1924.19L1305.31 1925.42L1295.15 1936.35C1294.85 1936.68 1294.47 1936.78 1294.07 1936.38L1293.1 1935.41Z" fill="black"/>
</g>
<text id="Exporting" fill="black" xml:space="preserve" style="white-space: pre" font-family="Roboto" font-size="12" letter-spacing="0em"><tspan x="1289" y="1952.1">Exporting</tspan></text>
<text id="Symbols should be outlined when exporting to ensure the" fill="black" xml:space="preserve" style="white-space: pre" font-family="Roboto" font-size="12" letter-spacing="0em"><tspan x="1289" y="1970.1">Symbols should be outlined when exporting to ensure the</tspan></text>
<text id="design is preserved when submitting to Xcode." fill="black" xml:space="preserve" style="white-space: pre" font-family="Roboto" font-size="12" letter-spacing="0em"><tspan x="1289" y="1988.1">design is preserved when submitting to Xcode.</tspan></text>
<text id="template-version" fill="black" xml:space="preserve" style="white-space: pre" font-family="Roboto" font-size="12" letter-spacing="0em"><tspan x="2958" y="1932.1">Template v.1.0</tspan></text>
<text id="Generated from pencil.circle" fill="black" xml:space="preserve" style="white-space: pre" font-family="Roboto" font-size="12" letter-spacing="0em"><tspan x="2885" y="1950.1">Generated from pencil.circle</tspan></text>
<text id="Typeset at 100 points" fill="black" xml:space="preserve" style="white-space: pre" font-family="Roboto" font-size="12" letter-spacing="0em"><tspan x="2921" y="1968.1">Typeset at 100 points</tspan></text>
<text id="Small" fill="black" xml:space="preserve" style="white-space: pre" font-family="Roboto" font-size="12" letter-spacing="0em"><tspan x="263" y="725.102">Small</tspan></text>
<text id="Medium_2" fill="black" xml:space="preserve" style="white-space: pre" font-family="Roboto" font-size="12" letter-spacing="0em"><tspan x="263" y="1155.1">Medium</tspan></text>
<text id="Large" fill="black" xml:space="preserve" style="white-space: pre" font-family="Roboto" font-size="12" letter-spacing="0em"><tspan x="263" y="1585.1">Large</tspan></text>
</g>
<g id="Guides">
<g id="H-reference">
<path id="Vector_10" d="M393.932 695.998H396.666L369.566 625.539H367.076L339.977 695.998H342.662L351.94 671.535H384.703L393.932 695.998ZM368.199 628.908H368.443L383.824 669.289H352.818L368.199 628.908Z" fill="#27AAE1"/>
</g>
<path id="Baseline-S" d="M263 696H3036" stroke="#27AAE1" stroke-width="0.577"/>
<path id="Capline-S" d="M263 626H3036" stroke="#27AAE1" stroke-width="0.577"/>
<g id="H-reference_2">
<path id="Vector_11" d="M393.932 1126H396.666L369.566 1055.54H367.076L339.977 1126H342.662L351.94 1101.54H384.703L393.932 1126ZM368.199 1058.91H368.443L383.824 1099.29H352.818L368.199 1058.91Z" fill="#27AAE1"/>
</g>
<path id="Baseline-M" d="M263 1126H3036" stroke="#27AAE1" stroke-width="0.577"/>
<path id="Capline-M" d="M263 1056H3036" stroke="#27AAE1" stroke-width="0.577"/>
<g id="H-reference_3">
<path id="Vector_12" d="M393.932 1556H396.666L369.566 1485.54H367.076L339.977 1556H342.662L351.94 1531.54H384.703L393.932 1556ZM368.199 1488.91H368.443L383.824 1529.29H352.818L368.199 1488.91Z" fill="#27AAE1"/>
</g>
<g id="Group 1">
<path id="Baseline-L" d="M263 1556H3036" stroke="#27AAE1" stroke-width="0.577"/>
<path id="Capline-L" d="M263 1486H3036" stroke="#27AAE1" stroke-width="0.577"/>
</g>
<path id="left-margin" opacity="0.4" d="M1396.04 1030.79H1387.3V1150.12H1396.04V1030.79Z" fill="#00AEEF"/>
<path id="right-margin" opacity="0.4" d="M1510.39 1030.79H1501.65V1150.12H1510.39V1030.79Z" fill="#00AEEF"/>
</g>
<g id="Symbols">
<g id="Black-L">
<g id="Solid / Report Solid">
<g id="Shape">
<path fill-rule="evenodd" clip-rule="evenodd" d="M2938.72 1454.2C2933.39 1453.44 2929 1457.87 2929 1463.26V1511.26C2929 1516.64 2933.37 1521.01 2938.75 1521.01H2986.75C2992.13 1521.01 2996.57 1516.62 2995.81 1511.29C2991.55 1481.79 2968.22 1458.46 2938.72 1454.2Z" fill="black"/>
<path d="M2919.25 1465.06C2919.25 1459.12 2913.94 1454.51 2908.29 1456.33C2881.14 1465.08 2861.5 1490.54 2861.5 1520.6C2861.5 1557.88 2891.72 1588.1 2929 1588.1C2958.88 1588.1 2984.23 1568.68 2993.11 1541.77C2994.98 1536.11 2990.37 1530.76 2984.41 1530.76H2929C2923.62 1530.76 2919.25 1526.39 2919.25 1521.01V1465.06Z" fill="black"/>
</g>
</g>
</g>
<g id="Heavy-L">
<g id="Solid / Report Solid_2">
<g id="Shape_2">
<path fill-rule="evenodd" clip-rule="evenodd" d="M2642.72 1454.2C2637.39 1453.44 2633 1457.87 2633 1463.26V1511.26C2633 1516.64 2637.37 1521.01 2642.75 1521.01H2690.75C2696.13 1521.01 2700.57 1516.62 2699.81 1511.29C2695.55 1481.79 2672.22 1458.46 2642.72 1454.2Z" fill="black"/>
<path d="M2623.25 1465.06C2623.25 1459.12 2617.94 1454.51 2612.29 1456.33C2585.14 1465.08 2565.5 1490.54 2565.5 1520.6C2565.5 1557.88 2595.72 1588.1 2633 1588.1C2662.88 1588.1 2688.23 1568.68 2697.11 1541.77C2698.98 1536.11 2694.37 1530.76 2688.41 1530.76H2633C2627.62 1530.76 2623.25 1526.39 2623.25 1521.01V1465.06Z" fill="black"/>
</g>
</g>
</g>
<g id="Bold-L">
<g id="Solid / Report Solid_3">
<g id="Shape_3">
<path fill-rule="evenodd" clip-rule="evenodd" d="M2346.72 1454.2C2341.39 1453.44 2337 1457.87 2337 1463.26V1511.26C2337 1516.64 2341.37 1521.01 2346.75 1521.01H2394.75C2400.13 1521.01 2404.57 1516.62 2403.81 1511.29C2399.55 1481.79 2376.22 1458.46 2346.72 1454.2Z" fill="black"/>
<path d="M2327.25 1465.06C2327.25 1459.12 2321.94 1454.51 2316.29 1456.33C2289.14 1465.08 2269.5 1490.54 2269.5 1520.6C2269.5 1557.88 2299.72 1588.1 2337 1588.1C2366.88 1588.1 2392.23 1568.68 2401.11 1541.77C2402.98 1536.11 2398.37 1530.76 2392.41 1530.76H2337C2331.62 1530.76 2327.25 1526.39 2327.25 1521.01V1465.06Z" fill="black"/>
</g>
</g>
</g>
<g id="Semibold-L">
<g id="Solid / Report Solid_4">
<g id="Shape_4">
<path fill-rule="evenodd" clip-rule="evenodd" d="M2050.72 1454.2C2045.39 1453.44 2041 1457.87 2041 1463.26V1511.26C2041 1516.64 2045.37 1521.01 2050.75 1521.01H2098.75C2104.13 1521.01 2108.57 1516.62 2107.81 1511.29C2103.55 1481.79 2080.22 1458.46 2050.72 1454.2Z" fill="black"/>
<path d="M2031.25 1465.06C2031.25 1459.12 2025.94 1454.51 2020.29 1456.33C1993.14 1465.08 1973.5 1490.54 1973.5 1520.6C1973.5 1557.88 2003.72 1588.1 2041 1588.1C2070.88 1588.1 2096.23 1568.68 2105.11 1541.77C2106.98 1536.11 2102.37 1530.76 2096.41 1530.76H2041C2035.62 1530.76 2031.25 1526.39 2031.25 1521.01V1465.06Z" fill="black"/>
</g>
</g>
</g>
<g id="Medium-L">
<g id="Solid / Report Solid_5">
<g id="Shape_5">
<path fill-rule="evenodd" clip-rule="evenodd" d="M1754.72 1454.2C1749.39 1453.44 1745 1457.87 1745 1463.26V1511.26C1745 1516.64 1749.37 1521.01 1754.75 1521.01H1802.75C1808.13 1521.01 1812.57 1516.62 1811.81 1511.29C1807.55 1481.79 1784.22 1458.46 1754.72 1454.2Z" fill="black"/>
<path d="M1735.25 1465.06C1735.25 1459.12 1729.94 1454.51 1724.29 1456.33C1697.14 1465.08 1677.5 1490.54 1677.5 1520.6C1677.5 1557.88 1707.72 1588.1 1745 1588.1C1774.88 1588.1 1800.23 1568.68 1809.11 1541.77C1810.98 1536.11 1806.37 1530.76 1800.41 1530.76H1745C1739.62 1530.76 1735.25 1526.39 1735.25 1521.01V1465.06Z" fill="black"/>
</g>
</g>
</g>
<g id="Regular-L">
<g id="Solid / Report Solid_6">
<g id="Shape_6">
<path fill-rule="evenodd" clip-rule="evenodd" d="M1458.72 1454.2C1453.39 1453.44 1449 1457.87 1449 1463.26V1511.26C1449 1516.64 1453.37 1521.01 1458.75 1521.01H1506.75C1512.13 1521.01 1516.57 1516.62 1515.81 1511.29C1511.55 1481.79 1488.22 1458.46 1458.72 1454.2Z" fill="black"/>
<path d="M1439.25 1465.06C1439.25 1459.12 1433.94 1454.51 1428.29 1456.33C1401.14 1465.08 1381.5 1490.54 1381.5 1520.6C1381.5 1557.88 1411.72 1588.1 1449 1588.1C1478.88 1588.1 1504.23 1568.68 1513.11 1541.77C1514.98 1536.11 1510.37 1530.76 1504.41 1530.76H1449C1443.62 1530.76 1439.25 1526.39 1439.25 1521.01V1465.06Z" fill="black"/>
</g>
</g>
</g>
<g id="Light-L">
<g id="Solid / Report Solid_7">
<g id="Shape_7">
<path fill-rule="evenodd" clip-rule="evenodd" d="M1162.72 1454.2C1157.39 1453.44 1153 1457.87 1153 1463.26V1511.26C1153 1516.64 1157.37 1521.01 1162.75 1521.01H1210.75C1216.13 1521.01 1220.57 1516.62 1219.81 1511.29C1215.55 1481.79 1192.22 1458.46 1162.72 1454.2Z" fill="black"/>
<path d="M1143.25 1465.06C1143.25 1459.12 1137.94 1454.51 1132.29 1456.33C1105.14 1465.08 1085.5 1490.54 1085.5 1520.6C1085.5 1557.88 1115.72 1588.1 1153 1588.1C1182.88 1588.1 1208.23 1568.68 1217.11 1541.77C1218.98 1536.11 1214.37 1530.76 1208.41 1530.76H1153C1147.62 1530.76 1143.25 1526.39 1143.25 1521.01V1465.06Z" fill="black"/>
</g>
</g>
</g>
<g id="Thin-L">
<g id="Solid / Report Solid_8">
<g id="Shape_8">
<path fill-rule="evenodd" clip-rule="evenodd" d="M866.72 1454.2C861.39 1453.44 857 1457.87 857 1463.26V1511.26C857 1516.64 861.365 1521.01 866.75 1521.01H914.75C920.135 1521.01 924.574 1516.62 923.805 1511.29C919.551 1481.79 896.22 1458.46 866.72 1454.2Z" fill="black"/>
<path d="M847.25 1465.06C847.25 1459.12 841.943 1454.51 836.288 1456.33C809.142 1465.08 789.5 1490.54 789.5 1520.6C789.5 1557.88 819.721 1588.1 857 1588.1C886.883 1588.1 912.231 1568.68 921.112 1541.77C922.982 1536.11 918.372 1530.76 912.407 1530.76H857C851.615 1530.76 847.25 1526.39 847.25 1521.01V1465.06Z" fill="black"/>
</g>
</g>
</g>
<g id="Ultralight-L">
<g id="Solid / Report Solid_9">
<g id="Shape_9">
<path fill-rule="evenodd" clip-rule="evenodd" d="M570.72 1454.2C565.39 1453.44 561 1457.87 561 1463.26V1511.26C561 1516.64 565.365 1521.01 570.75 1521.01H618.75C624.135 1521.01 628.574 1516.62 627.805 1511.29C623.551 1481.79 600.22 1458.46 570.72 1454.2Z" fill="black"/>
<path d="M551.25 1465.06C551.25 1459.12 545.943 1454.51 540.288 1456.33C513.142 1465.08 493.5 1490.54 493.5 1520.6C493.5 1557.88 523.721 1588.1 561 1588.1C590.883 1588.1 616.231 1568.68 625.112 1541.77C626.982 1536.11 622.372 1530.76 616.407 1530.76H561C555.615 1530.76 551.25 1526.39 551.25 1521.01V1465.06Z" fill="black"/>
</g>
</g>
</g>
<g id="Black-M">
<g id="Solid / Report Solid_10">
<g id="Shape_10">
<path fill-rule="evenodd" clip-rule="evenodd" d="M2936.56 1039.04C2932.41 1038.45 2929 1041.9 2929 1046.09V1083.42C2929 1087.61 2932.4 1091 2936.58 1091H2973.92C2978.1 1091 2981.56 1087.59 2980.96 1083.44C2977.65 1060.5 2959.5 1042.35 2936.56 1039.04Z" fill="black"/>
<path d="M2921.42 1047.49C2921.42 1042.87 2917.29 1039.28 2912.89 1040.7C2891.78 1047.5 2876.5 1067.31 2876.5 1090.68C2876.5 1119.68 2900.01 1143.18 2929 1143.18C2952.24 1143.18 2971.96 1128.08 2978.87 1107.15C2980.32 1102.75 2976.73 1098.59 2972.09 1098.59H2929C2924.81 1098.59 2921.42 1095.19 2921.42 1091V1047.49Z" fill="black"/>
</g>
</g>
</g>
<g id="Heavy-M">
<g id="Solid / Report Solid_11">
<g id="Shape_11">
<path fill-rule="evenodd" clip-rule="evenodd" d="M2640.56 1039.04C2636.41 1038.45 2633 1041.9 2633 1046.09V1083.42C2633 1087.61 2636.4 1091 2640.58 1091H2677.92C2682.1 1091 2685.56 1087.59 2684.96 1083.44C2681.65 1060.5 2663.5 1042.35 2640.56 1039.04Z" fill="black"/>
<path d="M2625.42 1047.49C2625.42 1042.87 2621.29 1039.28 2616.89 1040.7C2595.78 1047.5 2580.5 1067.31 2580.5 1090.68C2580.5 1119.68 2604.01 1143.18 2633 1143.18C2656.24 1143.18 2675.96 1128.08 2682.87 1107.15C2684.32 1102.75 2680.73 1098.59 2676.09 1098.59H2633C2628.81 1098.59 2625.42 1095.19 2625.42 1091V1047.49Z" fill="black"/>
</g>
</g>
</g>
<g id="Bold-M">
<g id="Solid / Report Solid_12">
<g id="Shape_12">
<path fill-rule="evenodd" clip-rule="evenodd" d="M2344.56 1039.04C2340.41 1038.45 2337 1041.9 2337 1046.09V1083.42C2337 1087.61 2340.4 1091 2344.58 1091H2381.92C2386.1 1091 2389.56 1087.59 2388.96 1083.44C2385.65 1060.5 2367.5 1042.35 2344.56 1039.04Z" fill="black"/>
<path d="M2329.42 1047.49C2329.42 1042.87 2325.29 1039.28 2320.89 1040.7C2299.78 1047.5 2284.5 1067.31 2284.5 1090.68C2284.5 1119.68 2308.01 1143.18 2337 1143.18C2360.24 1143.18 2379.96 1128.08 2386.87 1107.15C2388.32 1102.75 2384.73 1098.59 2380.09 1098.59H2337C2332.81 1098.59 2329.42 1095.19 2329.42 1091V1047.49Z" fill="black"/>
</g>
</g>
</g>
<g id="Semibold-M">
<g id="Solid / Report Solid_13">
<g id="Shape_13">
<path fill-rule="evenodd" clip-rule="evenodd" d="M2048.56 1039.04C2044.41 1038.45 2041 1041.9 2041 1046.09V1083.42C2041 1087.61 2044.4 1091 2048.58 1091H2085.92C2090.1 1091 2093.56 1087.59 2092.96 1083.44C2089.65 1060.5 2071.5 1042.35 2048.56 1039.04Z" fill="black"/>
<path d="M2033.42 1047.49C2033.42 1042.87 2029.29 1039.28 2024.89 1040.7C2003.78 1047.5 1988.5 1067.31 1988.5 1090.68C1988.5 1119.68 2012.01 1143.18 2041 1143.18C2064.24 1143.18 2083.96 1128.08 2090.87 1107.15C2092.32 1102.75 2088.73 1098.59 2084.09 1098.59H2041C2036.81 1098.59 2033.42 1095.19 2033.42 1091V1047.49Z" fill="black"/>
</g>
</g>
</g>
<g id="Medium-M">
<g id="Solid / Report Solid_14">
<g id="Shape_14">
<path fill-rule="evenodd" clip-rule="evenodd" d="M1752.56 1039.04C1748.41 1038.45 1745 1041.9 1745 1046.09V1083.42C1745 1087.61 1748.4 1091 1752.58 1091H1789.92C1794.1 1091 1797.56 1087.59 1796.96 1083.44C1793.65 1060.5 1775.5 1042.35 1752.56 1039.04Z" fill="black"/>
<path d="M1737.42 1047.49C1737.42 1042.87 1733.29 1039.28 1728.89 1040.7C1707.78 1047.5 1692.5 1067.31 1692.5 1090.68C1692.5 1119.68 1716.01 1143.18 1745 1143.18C1768.24 1143.18 1787.96 1128.08 1794.87 1107.15C1796.32 1102.75 1792.73 1098.59 1788.09 1098.59H1745C1740.81 1098.59 1737.42 1095.19 1737.42 1091V1047.49Z" fill="black"/>
</g>
</g>
</g>
<g id="Regular-M">
<g id="Solid / Report Solid_15">
<g id="Shape_15">
<path fill-rule="evenodd" clip-rule="evenodd" d="M1456.56 1039.04C1452.41 1038.45 1449 1041.9 1449 1046.09V1083.42C1449 1087.61 1452.4 1091 1456.58 1091H1493.92C1498.1 1091 1501.56 1087.59 1500.96 1083.44C1497.65 1060.5 1479.5 1042.35 1456.56 1039.04Z" fill="black"/>
<path d="M1441.42 1047.49C1441.42 1042.87 1437.29 1039.28 1432.89 1040.7C1411.78 1047.5 1396.5 1067.31 1396.5 1090.68C1396.5 1119.68 1420.01 1143.18 1449 1143.18C1472.24 1143.18 1491.96 1128.08 1498.87 1107.15C1500.32 1102.75 1496.73 1098.59 1492.09 1098.59H1449C1444.81 1098.59 1441.42 1095.19 1441.42 1091V1047.49Z" fill="black"/>
</g>
</g>
</g>
<g id="Light-M">
<g id="Solid / Report Solid_16">
<g id="Shape_16">
<path fill-rule="evenodd" clip-rule="evenodd" d="M1160.56 1039.04C1156.41 1038.45 1153 1041.9 1153 1046.09V1083.42C1153 1087.61 1156.4 1091 1160.58 1091H1197.92C1202.1 1091 1205.56 1087.59 1204.96 1083.44C1201.65 1060.5 1183.5 1042.35 1160.56 1039.04Z" fill="black"/>
<path d="M1145.42 1047.49C1145.42 1042.87 1141.29 1039.28 1136.89 1040.7C1115.78 1047.5 1100.5 1067.31 1100.5 1090.68C1100.5 1119.68 1124.01 1143.18 1153 1143.18C1176.24 1143.18 1195.96 1128.08 1202.87 1107.15C1204.32 1102.75 1200.73 1098.59 1196.09 1098.59H1153C1148.81 1098.59 1145.42 1095.19 1145.42 1091V1047.49Z" fill="black"/>
</g>
</g>
</g>
<g id="Thin-M">
<g id="Solid / Report Solid_17">
<g id="Shape_17">
<path fill-rule="evenodd" clip-rule="evenodd" d="M864.56 1039.04C860.415 1038.45 857 1041.9 857 1046.09V1083.42C857 1087.61 860.395 1091 864.583 1091H901.917C906.105 1091 909.558 1087.59 908.96 1083.44C905.651 1060.5 887.504 1042.35 864.56 1039.04Z" fill="black"/>
<path d="M849.417 1047.49C849.417 1042.87 845.289 1039.28 840.891 1040.7C819.777 1047.5 804.5 1067.31 804.5 1090.68C804.5 1119.68 828.005 1143.18 857 1143.18C880.242 1143.18 899.957 1128.08 906.865 1107.15C908.319 1102.75 904.734 1098.59 900.095 1098.59H857C852.812 1098.59 849.417 1095.19 849.417 1091V1047.49Z" fill="black"/>
</g>
</g>
</g>
<g id="Ultralight-M">
<g id="Solid / Report Solid_18">
<g id="Shape_18">
<path fill-rule="evenodd" clip-rule="evenodd" d="M568.56 1039.04C564.415 1038.45 561 1041.9 561 1046.09V1083.42C561 1087.61 564.395 1091 568.583 1091H605.917C610.105 1091 613.558 1087.59 612.96 1083.44C609.651 1060.5 591.504 1042.35 568.56 1039.04Z" fill="black"/>
<path d="M553.417 1047.49C553.417 1042.87 549.289 1039.28 544.891 1040.7C523.777 1047.5 508.5 1067.31 508.5 1090.68C508.5 1119.68 532.005 1143.18 561 1143.18C584.242 1143.18 603.957 1128.08 610.865 1107.15C612.319 1102.75 608.734 1098.59 604.095 1098.59H561C556.812 1098.59 553.417 1095.19 553.417 1091V1047.49Z" fill="black"/>
</g>
</g>
</g>
<g id="Black-S">
<g id="Solid / Report Solid_19">
<g id="Shape_19">
<path fill-rule="evenodd" clip-rule="evenodd" d="M2934.4 623.888C2931.44 623.461 2929 625.927 2929 628.919V655.586C2929 658.577 2931.43 661.002 2934.42 661.002H2961.08C2964.07 661.002 2966.54 658.563 2966.11 655.602C2963.75 639.213 2950.79 626.252 2934.4 623.888Z" fill="black"/>
<path d="M2923.58 629.918C2923.58 626.618 2920.63 624.06 2917.49 625.072C2902.41 629.929 2891.5 644.077 2891.5 660.773C2891.5 681.484 2908.29 698.273 2929 698.273C2945.6 698.273 2959.68 687.485 2964.62 672.537C2965.66 669.39 2963.1 666.419 2959.78 666.419H2929C2926.01 666.419 2923.58 663.994 2923.58 661.002V629.918Z" fill="black"/>
</g>
</g>
</g>
<g id="Heavy-S">
<g id="Solid / Report Solid_20">
<g id="Shape_20">
<path fill-rule="evenodd" clip-rule="evenodd" d="M2638.4 623.888C2635.44 623.461 2633 625.927 2633 628.919V655.586C2633 658.577 2635.43 661.002 2638.42 661.002H2665.08C2668.07 661.002 2670.54 658.563 2670.11 655.602C2667.75 639.213 2654.79 626.252 2638.4 623.888Z" fill="black"/>
<path d="M2627.58 629.918C2627.58 626.618 2624.63 624.06 2621.49 625.072C2606.41 629.929 2595.5 644.077 2595.5 660.773C2595.5 681.484 2612.29 698.273 2633 698.273C2649.6 698.273 2663.68 687.485 2668.62 672.537C2669.66 669.39 2667.1 666.419 2663.78 666.419H2633C2630.01 666.419 2627.58 663.994 2627.58 661.002V629.918Z" fill="black"/>
</g>
</g>
</g>
<g id="Bold-S">
<g id="Solid / Report Solid_21">
<g id="Shape_21">
<path fill-rule="evenodd" clip-rule="evenodd" d="M2342.4 623.888C2339.44 623.461 2337 625.927 2337 628.919V655.586C2337 658.577 2339.43 661.002 2342.42 661.002H2369.08C2372.07 661.002 2374.54 658.563 2374.11 655.602C2371.75 639.213 2358.79 626.252 2342.4 623.888Z" fill="black"/>
<path d="M2331.58 629.918C2331.58 626.618 2328.63 624.06 2325.49 625.072C2310.41 629.929 2299.5 644.077 2299.5 660.773C2299.5 681.484 2316.29 698.273 2337 698.273C2353.6 698.273 2367.68 687.485 2372.62 672.537C2373.66 669.39 2371.1 666.419 2367.78 666.419H2337C2334.01 666.419 2331.58 663.994 2331.58 661.002V629.918Z" fill="black"/>
</g>
</g>
</g>
<g id="Semibold-S">
<g id="Solid / Report Solid_22">
<g id="Shape_22">
<path fill-rule="evenodd" clip-rule="evenodd" d="M2046.4 623.888C2043.44 623.461 2041 625.927 2041 628.919V655.586C2041 658.577 2043.43 661.002 2046.42 661.002H2073.08C2076.07 661.002 2078.54 658.563 2078.11 655.602C2075.75 639.213 2062.79 626.252 2046.4 623.888Z" fill="black"/>
<path d="M2035.58 629.918C2035.58 626.618 2032.63 624.06 2029.49 625.072C2014.41 629.929 2003.5 644.077 2003.5 660.773C2003.5 681.484 2020.29 698.273 2041 698.273C2057.6 698.273 2071.68 687.485 2076.62 672.537C2077.66 669.39 2075.1 666.419 2071.78 666.419H2041C2038.01 666.419 2035.58 663.994 2035.58 661.002V629.918Z" fill="black"/>
</g>
</g>
</g>
<g id="Medium-S">
<g id="Solid / Report Solid_23">
<g id="Shape_23">
<path fill-rule="evenodd" clip-rule="evenodd" d="M1750.4 623.888C1747.44 623.461 1745 625.927 1745 628.919V655.586C1745 658.577 1747.43 661.002 1750.42 661.002H1777.08C1780.07 661.002 1782.54 658.563 1782.11 655.602C1779.75 639.213 1766.79 626.252 1750.4 623.888Z" fill="black"/>
<path d="M1739.58 629.918C1739.58 626.618 1736.63 624.06 1733.49 625.072C1718.41 629.929 1707.5 644.077 1707.5 660.773C1707.5 681.484 1724.29 698.273 1745 698.273C1761.6 698.273 1775.68 687.485 1780.62 672.537C1781.66 669.39 1779.1 666.419 1775.78 666.419H1745C1742.01 666.419 1739.58 663.994 1739.58 661.002V629.918Z" fill="black"/>
</g>
</g>
</g>
<g id="Regular-S">
<g id="Solid / Report Solid_24">
<g id="Shape_24">
<path fill-rule="evenodd" clip-rule="evenodd" d="M1454.4 623.888C1451.44 623.461 1449 625.927 1449 628.919V655.586C1449 658.577 1451.43 661.002 1454.42 661.002H1481.08C1484.07 661.002 1486.54 658.563 1486.11 655.602C1483.75 639.213 1470.79 626.252 1454.4 623.888Z" fill="black"/>
<path d="M1443.58 629.918C1443.58 626.618 1440.63 624.06 1437.49 625.072C1422.41 629.929 1411.5 644.077 1411.5 660.773C1411.5 681.484 1428.29 698.273 1449 698.273C1465.6 698.273 1479.68 687.485 1484.62 672.537C1485.66 669.39 1483.1 666.419 1479.78 666.419H1449C1446.01 666.419 1443.58 663.994 1443.58 661.002V629.918Z" fill="black"/>
</g>
</g>
</g>
<g id="Light-S">
<g id="Solid / Report Solid_25">
<g id="Shape_25">
<path fill-rule="evenodd" clip-rule="evenodd" d="M1158.4 623.888C1155.44 623.461 1153 625.927 1153 628.919V655.586C1153 658.577 1155.43 661.002 1158.42 661.002H1185.08C1188.07 661.002 1190.54 658.563 1190.11 655.602C1187.75 639.213 1174.79 626.252 1158.4 623.888Z" fill="black"/>
<path d="M1147.58 629.918C1147.58 626.618 1144.63 624.06 1141.49 625.072C1126.41 629.929 1115.5 644.077 1115.5 660.773C1115.5 681.484 1132.29 698.273 1153 698.273C1169.6 698.273 1183.68 687.485 1188.62 672.537C1189.66 669.39 1187.1 666.419 1183.78 666.419H1153C1150.01 666.419 1147.58 663.994 1147.58 661.002V629.918Z" fill="black"/>
</g>
</g>
</g>
<g id="Thin-S">
<g id="Solid / Report Solid_26">
<g id="Shape_26">
<path fill-rule="evenodd" clip-rule="evenodd" d="M862.4 623.888C859.439 623.461 857 625.927 857 628.919V655.586C857 658.577 859.425 661.002 862.417 661.002H889.083C892.075 661.002 894.541 658.563 894.114 655.602C891.751 639.213 878.789 626.252 862.4 623.888Z" fill="black"/>
<path d="M851.583 629.918C851.583 626.618 848.635 624.06 845.494 625.072C830.412 629.929 819.5 644.077 819.5 660.773C819.5 681.484 836.289 698.273 857 698.273C873.602 698.273 887.684 687.485 892.618 672.537C893.657 669.39 891.096 666.419 887.782 666.419H857C854.008 666.419 851.583 663.994 851.583 661.002V629.918Z" fill="black"/>
</g>
</g>
</g>
<g id="Ultralight-S">
<g id="Solid / Report Solid_27">
<g id="Shape_27">
<path fill-rule="evenodd" clip-rule="evenodd" d="M566.4 623.888C563.439 623.461 561 625.927 561 628.919V655.586C561 658.577 563.425 661.002 566.417 661.002H593.083C596.075 661.002 598.541 658.563 598.114 655.602C595.751 639.213 582.789 626.252 566.4 623.888Z" fill="black"/>
<path d="M555.583 629.918C555.583 626.618 552.635 624.06 549.494 625.072C534.412 629.929 523.5 644.077 523.5 660.773C523.5 681.484 540.289 698.273 561 698.273C577.602 698.273 591.684 687.485 596.618 672.537C597.657 669.39 595.096 666.419 591.782 666.419H561C558.008 666.419 555.583 663.994 555.583 661.002V629.918Z" fill="black"/>
</g>
</g>
</g>
</g>
</g>
<defs>
<clipPath id="clip0_805_27002">
<rect width="3300" height="2200" fill="white"/>
</clipPath>
</defs>
</svg>
