<svg width="3300" height="2200" viewBox="0 0 3300 2200" fill="none" xmlns="http://www.w3.org/2000/svg">
<rect width="3300" height="2200" fill="#E5E5E5"/>
<g id="Category / Outline / Shopping bag" clip-path="url(#clip0_0_1)">
<g id="Notes">
<path id="artboard" d="M3300 0H0V2200H3300V0Z" fill="white"/>
<path id="Vector" d="M263 292H3036" stroke="black" stroke-width="0.5"/>
<text id="Weight/Scale Variations" fill="black" xml:space="preserve" style="white-space: pre" font-family="Roboto" font-size="12" letter-spacing="0em"><tspan x="263" y="321.102">Weight/Scale Variations</tspan></text>
<text id="Ultralight" fill="black" xml:space="preserve" style="white-space: pre" font-family="Roboto" font-size="12" letter-spacing="0em"><tspan x="535.211" y="321.102">Ultralight</tspan></text>
<text id="Thin" fill="black" xml:space="preserve" style="white-space: pre" font-family="Roboto" font-size="12" letter-spacing="0em"><tspan x="844.422" y="321.102">Thin</tspan></text>
<text id="Light" fill="black" xml:space="preserve" style="white-space: pre" font-family="Roboto" font-size="12" letter-spacing="0em"><tspan x="1139.63" y="321.102">Light</tspan></text>
<text id="Regular" fill="black" xml:space="preserve" style="white-space: pre" font-family="Roboto" font-size="12" letter-spacing="0em"><tspan x="1429.34" y="321.102">Regular</tspan></text>
<text id="Medium" fill="black" xml:space="preserve" style="white-space: pre" font-family="Roboto" font-size="12" letter-spacing="0em"><tspan x="1724.56" y="321.102">Medium</tspan></text>
<text id="Semibold" fill="black" xml:space="preserve" style="white-space: pre" font-family="Roboto" font-size="12" letter-spacing="0em"><tspan x="2017.77" y="321.102">Semibold</tspan></text>
<text id="Bold" fill="black" xml:space="preserve" style="white-space: pre" font-family="Roboto" font-size="12" letter-spacing="0em"><tspan x="2327.48" y="321.102">Bold</tspan></text>
<text id="Heavy" fill="black" xml:space="preserve" style="white-space: pre" font-family="Roboto" font-size="12" letter-spacing="0em"><tspan x="2620.19" y="321.102">Heavy</tspan></text>
<text id="Black" fill="black" xml:space="preserve" style="white-space: pre" font-family="Roboto" font-size="12" letter-spacing="0em"><tspan x="2918.4" y="321.102">Black</tspan></text>
<path id="Vector_2" d="M263 1903H3036" stroke="black" stroke-width="0.5"/>
<g id="Group">
<path id="Vector_3" d="M272.248 1933.83C276.555 1933.83 280.139 1930.26 280.139 1925.95C280.139 1921.64 276.545 1918.07 272.238 1918.07C267.941 1918.07 264.367 1921.64 264.367 1925.95C264.367 1930.26 267.951 1933.83 272.248 1933.83ZM272.248 1932.35C268.703 1932.35 265.871 1929.51 265.871 1925.95C265.871 1922.4 268.693 1919.55 272.238 1919.55C275.793 1919.55 278.635 1922.4 278.644 1925.95C278.654 1929.51 275.803 1932.35 272.248 1932.35ZM272.229 1929.57C272.697 1929.57 272.971 1929.26 272.971 1928.74V1926.68H275.197C275.695 1926.68 276.037 1926.43 276.037 1925.96C276.037 1925.48 275.715 1925.22 275.197 1925.22H272.971V1922.99C272.971 1922.47 272.697 1922.15 272.229 1922.15C271.76 1922.15 271.506 1922.49 271.506 1922.99V1925.22H269.299C268.781 1925.22 268.449 1925.48 268.449 1925.96C268.449 1926.43 268.801 1926.68 269.299 1926.68H271.506V1928.74C271.506 1929.24 271.76 1929.57 272.229 1929.57Z" fill="black"/>
</g>
<g id="Group_2">
<path id="Vector_4" d="M293.215 1935.91C298.664 1935.91 303.176 1931.4 303.176 1925.95C303.176 1920.51 298.655 1915.99 293.205 1915.99C287.766 1915.99 283.254 1920.51 283.254 1925.95C283.254 1931.4 287.776 1935.91 293.215 1935.91ZM293.215 1934.25C288.606 1934.25 284.924 1930.56 284.924 1925.95C284.924 1921.35 288.596 1917.65 293.205 1917.65C297.815 1917.65 301.506 1921.35 301.516 1925.95C301.526 1930.56 297.825 1934.25 293.215 1934.25ZM293.196 1930.59C293.713 1930.59 294.026 1930.23 294.026 1929.66V1926.77H297.082C297.629 1926.77 298.01 1926.49 298.01 1925.97C298.01 1925.44 297.649 1925.14 297.082 1925.14H294.026V1922.07C294.026 1921.5 293.713 1921.14 293.196 1921.14C292.678 1921.14 292.385 1921.52 292.385 1922.07V1925.14H289.338C288.772 1925.14 288.401 1925.44 288.401 1925.97C288.401 1926.49 288.791 1926.77 289.338 1926.77H292.385V1929.66C292.385 1930.21 292.678 1930.59 293.196 1930.59Z" fill="black"/>
</g>
<g id="Group_3">
<path id="Vector_5" d="M319.895 1938.67C326.858 1938.67 332.619 1932.92 332.619 1925.96C332.619 1918.99 326.848 1913.24 319.885 1913.24C312.932 1913.24 307.18 1918.99 307.18 1925.96C307.18 1932.92 312.942 1938.67 319.895 1938.67ZM319.895 1936.86C313.86 1936.86 309.006 1931.99 309.006 1925.96C309.006 1919.92 313.85 1915.06 319.885 1915.06C325.93 1915.06 330.783 1919.92 330.793 1925.96C330.803 1931.99 325.94 1936.86 319.895 1936.86ZM319.875 1931.93C320.442 1931.93 320.793 1931.54 320.793 1930.94V1926.87H325.031C325.617 1926.87 326.037 1926.53 326.037 1925.98C326.037 1925.4 325.647 1925.06 325.031 1925.06H320.793V1920.81C320.793 1920.2 320.442 1919.8 319.875 1919.8C319.309 1919.8 318.987 1920.21 318.987 1920.81V1925.06H314.758C314.143 1925.06 313.733 1925.4 313.733 1925.98C313.733 1926.53 314.162 1926.87 314.758 1926.87H318.987V1930.94C318.987 1931.52 319.309 1931.93 319.875 1931.93Z" fill="black"/>
</g>
<text id="Design Variations" fill="black" xml:space="preserve" style="white-space: pre" font-family="Roboto" font-size="12" letter-spacing="0em"><tspan x="263" y="1952.1">Design Variations</tspan></text>
<text id="Symbols are supported in up to nine weights and three scales." fill="black" xml:space="preserve" style="white-space: pre" font-family="Roboto" font-size="12" letter-spacing="0em"><tspan x="263" y="1970.1">Symbols are supported in up to nine weights and three scales.</tspan></text>
<text id="For optimal layout with text and other symbols, vertically align" fill="black" xml:space="preserve" style="white-space: pre" font-family="Roboto" font-size="12" letter-spacing="0em"><tspan x="263" y="1988.1">For optimal layout with text and other symbols, vertically align</tspan></text>
<text id="symbols with the adjacent text." fill="black" xml:space="preserve" style="white-space: pre" font-family="Roboto" font-size="12" letter-spacing="0em"><tspan x="263" y="2006.1">symbols with the adjacent text.</tspan></text>
<path id="Vector_6" opacity="0.4" d="M779 1919H776V1933H779V1919Z" fill="#00AEEF"/>
<g id="Group_4">
<path id="Vector_7" d="M789.527 1933H791.373L786.178 1918.91H784.439L779.244 1933H781.09L782.506 1928.96H788.111L789.527 1933ZM785.279 1921.04H785.338L787.594 1927.47H783.023L785.279 1921.04Z" fill="black"/>
</g>
<path id="Vector_8" opacity="0.4" d="M794.617 1919H791.617V1933H794.617V1919Z" fill="#00AEEF"/>
<text id="Margins" fill="black" xml:space="preserve" style="white-space: pre" font-family="Roboto" font-size="12" letter-spacing="0em"><tspan x="776" y="1952.1">Margins</tspan></text>
<text id="Leading and trailing margins on the left and right side of each symbol" fill="black" xml:space="preserve" style="white-space: pre" font-family="Roboto" font-size="12" letter-spacing="0em"><tspan x="776" y="1970.1">Leading and trailing margins on the left and right side of each symbol</tspan></text>
<text id="can be adjusted by modifying the width of the blue rectangles." fill="black" xml:space="preserve" style="white-space: pre" font-family="Roboto" font-size="12" letter-spacing="0em"><tspan x="776" y="1988.1">can be adjusted by modifying the width of the blue rectangles.</tspan></text>
<text id="Modifications are automatically applied proportionally to all" fill="black" xml:space="preserve" style="white-space: pre" font-family="Roboto" font-size="12" letter-spacing="0em"><tspan x="776" y="2006.1">Modifications are automatically applied proportionally to all</tspan></text>
<text id="scales and weights." fill="black" xml:space="preserve" style="white-space: pre" font-family="Roboto" font-size="12" letter-spacing="0em"><tspan x="776" y="2024.1">scales and weights.</tspan></text>
<g id="Group_5">
<path id="Vector_9" d="M1291.83 1936.11L1293.38 1937.66C1294.22 1938.49 1295.19 1938.42 1296.06 1937.46L1306.28 1926.34C1306.71 1926.63 1307.1 1926.62 1307.56 1926.52L1308.61 1926.31L1309.3 1927L1309.25 1927.52C1309.19 1928.05 1309.35 1928.47 1309.85 1928.97L1310.66 1929.78C1311.17 1930.28 1311.82 1930.31 1312.3 1929.83L1315.55 1926.58C1316.03 1926.1 1316.01 1925.45 1315.5 1924.94L1314.68 1924.12C1314.19 1923.62 1313.78 1923.45 1313.24 1923.53L1312.71 1923.58L1312.06 1922.92L1312.34 1921.78C1312.49 1921.21 1312.34 1920.74 1311.71 1920.14L1309.3 1917.75C1305.76 1914.22 1301.23 1914.33 1298.11 1917.46C1297.69 1917.89 1297.64 1918.48 1297.92 1918.91C1298.15 1919.28 1298.63 1919.5 1299.27 1919.34C1300.79 1918.96 1302.3 1919.07 1303.79 1920.08L1303.16 1921.66C1302.93 1922.25 1302.95 1922.73 1303.18 1923.16L1292.02 1933.44C1291.08 1934.31 1290.97 1935.25 1291.83 1936.11ZM1299.67 1917.85C1302.34 1915.86 1305.65 1916.17 1308.05 1918.58L1310.68 1921.19C1310.91 1921.43 1310.94 1921.61 1310.88 1921.91L1310.5 1923.47L1312.08 1925.04L1313.04 1924.95C1313.33 1924.92 1313.41 1924.94 1313.64 1925.17L1314.26 1925.79L1311.51 1928.54L1310.88 1927.92C1310.66 1927.7 1310.64 1927.6 1310.67 1927.32L1310.76 1926.36L1309.2 1924.8L1307.57 1925.11C1307.29 1925.17 1307.14 1925.17 1306.91 1924.92L1304.73 1922.75C1304.51 1922.51 1304.48 1922.37 1304.61 1922.05L1305.55 1919.78C1303.95 1918.24 1301.84 1917.39 1299.8 1918.05C1299.71 1918.08 1299.64 1918.06 1299.62 1918.02C1299.59 1917.97 1299.59 1917.92 1299.67 1917.85ZM1293.1 1935.41C1292.61 1934.91 1292.79 1934.61 1293.12 1934.31L1304.08 1924.19L1305.31 1925.42L1295.15 1936.35C1294.85 1936.68 1294.47 1936.78 1294.07 1936.38L1293.1 1935.41Z" fill="black"/>
</g>
<text id="Exporting" fill="black" xml:space="preserve" style="white-space: pre" font-family="Roboto" font-size="12" letter-spacing="0em"><tspan x="1289" y="1952.1">Exporting</tspan></text>
<text id="Symbols should be outlined when exporting to ensure the" fill="black" xml:space="preserve" style="white-space: pre" font-family="Roboto" font-size="12" letter-spacing="0em"><tspan x="1289" y="1970.1">Symbols should be outlined when exporting to ensure the</tspan></text>
<text id="design is preserved when submitting to Xcode." fill="black" xml:space="preserve" style="white-space: pre" font-family="Roboto" font-size="12" letter-spacing="0em"><tspan x="1289" y="1988.1">design is preserved when submitting to Xcode.</tspan></text>
<text id="template-version" fill="black" xml:space="preserve" style="white-space: pre" font-family="Roboto" font-size="12" letter-spacing="0em"><tspan x="2958" y="1932.1">Template v.1.0</tspan></text>
<text id="Generated from pencil.circle" fill="black" xml:space="preserve" style="white-space: pre" font-family="Roboto" font-size="12" letter-spacing="0em"><tspan x="2885" y="1950.1">Generated from pencil.circle</tspan></text>
<text id="Typeset at 100 points" fill="black" xml:space="preserve" style="white-space: pre" font-family="Roboto" font-size="12" letter-spacing="0em"><tspan x="2921" y="1968.1">Typeset at 100 points</tspan></text>
<text id="Small" fill="black" xml:space="preserve" style="white-space: pre" font-family="Roboto" font-size="12" letter-spacing="0em"><tspan x="263" y="725.102">Small</tspan></text>
<text id="Medium_2" fill="black" xml:space="preserve" style="white-space: pre" font-family="Roboto" font-size="12" letter-spacing="0em"><tspan x="263" y="1155.1">Medium</tspan></text>
<text id="Large" fill="black" xml:space="preserve" style="white-space: pre" font-family="Roboto" font-size="12" letter-spacing="0em"><tspan x="263" y="1585.1">Large</tspan></text>
</g>
<g id="Guides">
<g id="H-reference">
<path id="Vector_10" d="M393.932 695.998H396.666L369.566 625.539H367.076L339.977 695.998H342.662L351.94 671.535H384.703L393.932 695.998ZM368.199 628.908H368.443L383.824 669.289H352.818L368.199 628.908Z" fill="#27AAE1"/>
</g>
<path id="Baseline-S" d="M263 696H3036" stroke="#27AAE1" stroke-width="0.577"/>
<path id="Capline-S" d="M263 626H3036" stroke="#27AAE1" stroke-width="0.577"/>
<g id="H-reference_2">
<path id="Vector_11" d="M393.932 1126H396.666L369.566 1055.54H367.076L339.977 1126H342.662L351.94 1101.54H384.703L393.932 1126ZM368.199 1058.91H368.443L383.824 1099.29H352.818L368.199 1058.91Z" fill="#27AAE1"/>
</g>
<path id="Baseline-M" d="M263 1126H3036" stroke="#27AAE1" stroke-width="0.577"/>
<path id="Capline-M" d="M263 1056H3036" stroke="#27AAE1" stroke-width="0.577"/>
<g id="H-reference_3">
<path id="Vector_12" d="M393.932 1556H396.666L369.566 1485.54H367.076L339.977 1556H342.662L351.94 1531.54H384.703L393.932 1556ZM368.199 1488.91H368.443L383.824 1529.29H352.818L368.199 1488.91Z" fill="#27AAE1"/>
</g>
<g id="Group 1">
<path id="Baseline-L" d="M263 1556H3036" stroke="#27AAE1" stroke-width="0.577"/>
<path id="Capline-L" d="M263 1486H3036" stroke="#27AAE1" stroke-width="0.577"/>
</g>
<path id="left-margin" opacity="0.4" d="M1402.04 1030.79H1393.3V1150.12H1402.04V1030.79Z" fill="#00AEEF"/>
<path id="right-margin" opacity="0.4" d="M1504.39 1030.79H1495.65V1150.12H1504.39V1030.79Z" fill="#00AEEF"/>
</g>
<g id="Symbols">
<g id="Black-L">
<g id="Outline / Shopping bag Outline">
<g id="Shape">
<path d="M2911.37 1488.37C2911.37 1485.68 2909.19 1483.5 2906.5 1483.5C2903.81 1483.5 2901.62 1485.68 2901.62 1488.37V1503.19L2901.62 1503.2L2901.62 1503.21L2901.62 1503.24L2901.62 1503.33C2901.63 1503.4 2901.63 1503.49 2901.63 1503.6C2901.64 1503.82 2901.65 1504.13 2901.68 1504.5C2901.73 1505.24 2901.84 1506.28 2902.04 1507.5C2902.45 1509.93 2903.26 1513.24 2904.95 1516.62C2906.65 1520.01 2909.27 1523.55 2913.29 1526.23C2917.34 1528.93 2922.52 1530.56 2929 1530.56C2935.48 1530.56 2940.66 1528.93 2944.71 1526.23C2948.73 1523.55 2951.35 1520.01 2953.05 1516.62C2954.73 1513.24 2955.55 1509.93 2955.96 1507.5C2956.16 1506.28 2956.26 1505.24 2956.32 1504.5C2956.34 1504.13 2956.36 1503.82 2956.36 1503.6C2956.37 1503.49 2956.37 1503.4 2956.37 1503.33L2956.37 1503.24L2956.37 1503.21L2956.37 1503.2L2956.37 1503.19V1488.37C2956.37 1485.68 2954.19 1483.5 2951.5 1483.5C2948.81 1483.5 2946.62 1485.68 2946.62 1488.37L2946.62 1503.17L2946.62 1503.28C2946.62 1503.38 2946.61 1503.56 2946.59 1503.8C2946.56 1504.29 2946.49 1505.02 2946.34 1505.9C2946.04 1507.69 2945.45 1510 2944.33 1512.26C2943.21 1514.49 2941.61 1516.58 2939.3 1518.11C2937.02 1519.63 2933.77 1520.81 2929 1520.81C2924.23 1520.81 2920.97 1519.63 2918.69 1518.11C2916.39 1516.58 2914.79 1514.49 2913.67 1512.26C2912.54 1510 2911.96 1507.69 2911.66 1505.9C2911.51 1505.02 2911.44 1504.29 2911.4 1503.8C2911.39 1503.56 2911.38 1503.38 2911.38 1503.28L2911.37 1503.17V1488.37Z" fill="black"/>
<path fill-rule="evenodd" clip-rule="evenodd" d="M2962.56 1461H2895.44C2885.16 1461 2876.64 1468.98 2875.98 1479.24L2869.74 1560.24C2869.01 1571.48 2877.94 1581 2889.2 1581H2968.79C2980.06 1581 2988.98 1571.48 2988.25 1560.24L2982.02 1479.24C2981.35 1468.98 2972.84 1461 2962.56 1461ZM2962.56 1470.75H2895.44C2890.3 1470.75 2886.04 1474.74 2885.71 1479.87L2879.47 1560.87C2879.11 1566.49 2883.57 1571.25 2889.2 1571.25H2968.79C2974.43 1571.25 2978.89 1566.49 2978.52 1560.87L2972.29 1479.87C2971.95 1474.74 2967.7 1470.75 2962.56 1470.75Z" fill="black"/>
</g>
</g>
</g>
<g id="Heavy-L">
<g id="Outline / Shopping bag Outline_2">
<g id="Shape_2">
<path d="M2615.37 1488.37C2615.37 1485.68 2613.19 1483.5 2610.5 1483.5C2607.81 1483.5 2605.62 1485.68 2605.62 1488.37V1503.19L2605.62 1503.2L2605.62 1503.21L2605.62 1503.24L2605.62 1503.33C2605.63 1503.4 2605.63 1503.49 2605.63 1503.6C2605.64 1503.82 2605.65 1504.13 2605.68 1504.5C2605.73 1505.24 2605.84 1506.28 2606.04 1507.5C2606.45 1509.93 2607.26 1513.24 2608.95 1516.62C2610.65 1520.01 2613.27 1523.55 2617.29 1526.23C2621.34 1528.93 2626.52 1530.56 2633 1530.56C2639.48 1530.56 2644.66 1528.93 2648.71 1526.23C2652.73 1523.55 2655.35 1520.01 2657.05 1516.62C2658.73 1513.24 2659.55 1509.93 2659.96 1507.5C2660.16 1506.28 2660.26 1505.24 2660.32 1504.5C2660.34 1504.13 2660.36 1503.82 2660.36 1503.6C2660.37 1503.49 2660.37 1503.4 2660.37 1503.33L2660.37 1503.24L2660.37 1503.21L2660.37 1503.2L2660.37 1503.19V1488.37C2660.37 1485.68 2658.19 1483.5 2655.5 1483.5C2652.81 1483.5 2650.62 1485.68 2650.62 1488.37L2650.62 1503.17L2650.62 1503.28C2650.62 1503.38 2650.61 1503.56 2650.59 1503.8C2650.56 1504.29 2650.49 1505.02 2650.34 1505.9C2650.04 1507.69 2649.45 1510 2648.33 1512.26C2647.21 1514.49 2645.61 1516.58 2643.3 1518.11C2641.02 1519.63 2637.77 1520.81 2633 1520.81C2628.23 1520.81 2624.97 1519.63 2622.69 1518.11C2620.39 1516.58 2618.79 1514.49 2617.67 1512.26C2616.54 1510 2615.96 1507.69 2615.66 1505.9C2615.51 1505.02 2615.44 1504.29 2615.4 1503.8C2615.39 1503.56 2615.38 1503.38 2615.38 1503.28L2615.37 1503.17V1488.37Z" fill="black"/>
<path fill-rule="evenodd" clip-rule="evenodd" d="M2666.56 1461H2599.44C2589.16 1461 2580.64 1468.98 2579.98 1479.24L2573.74 1560.24C2573.01 1571.48 2581.94 1581 2593.2 1581H2672.79C2684.06 1581 2692.98 1571.48 2692.25 1560.24L2686.02 1479.24C2685.35 1468.98 2676.84 1461 2666.56 1461ZM2666.56 1470.75H2599.44C2594.3 1470.75 2590.04 1474.74 2589.71 1479.87L2583.47 1560.87C2583.11 1566.49 2587.57 1571.25 2593.2 1571.25H2672.79C2678.43 1571.25 2682.89 1566.49 2682.52 1560.87L2676.29 1479.87C2675.95 1474.74 2671.7 1470.75 2666.56 1470.75Z" fill="black"/>
</g>
</g>
</g>
<g id="Bold-L">
<g id="Outline / Shopping bag Outline_3">
<g id="Shape_3">
<path d="M2319.37 1488.37C2319.37 1485.68 2317.19 1483.5 2314.5 1483.5C2311.81 1483.5 2309.62 1485.68 2309.62 1488.37V1503.19L2309.62 1503.2L2309.62 1503.21L2309.62 1503.24L2309.62 1503.33C2309.63 1503.4 2309.63 1503.49 2309.63 1503.6C2309.64 1503.82 2309.65 1504.13 2309.68 1504.5C2309.73 1505.24 2309.84 1506.28 2310.04 1507.5C2310.45 1509.93 2311.26 1513.24 2312.95 1516.62C2314.65 1520.01 2317.27 1523.55 2321.29 1526.23C2325.34 1528.93 2330.52 1530.56 2337 1530.56C2343.48 1530.56 2348.66 1528.93 2352.71 1526.23C2356.73 1523.55 2359.35 1520.01 2361.05 1516.62C2362.73 1513.24 2363.55 1509.93 2363.96 1507.5C2364.16 1506.28 2364.26 1505.24 2364.32 1504.5C2364.34 1504.13 2364.36 1503.82 2364.36 1503.6C2364.37 1503.49 2364.37 1503.4 2364.37 1503.33L2364.37 1503.24L2364.37 1503.21L2364.37 1503.2L2364.37 1503.19V1488.37C2364.37 1485.68 2362.19 1483.5 2359.5 1483.5C2356.81 1483.5 2354.62 1485.68 2354.62 1488.37L2354.62 1503.17L2354.62 1503.28C2354.62 1503.38 2354.61 1503.56 2354.59 1503.8C2354.56 1504.29 2354.49 1505.02 2354.34 1505.9C2354.04 1507.69 2353.45 1510 2352.33 1512.26C2351.21 1514.49 2349.61 1516.58 2347.3 1518.11C2345.02 1519.63 2341.77 1520.81 2337 1520.81C2332.23 1520.81 2328.97 1519.63 2326.69 1518.11C2324.39 1516.58 2322.79 1514.49 2321.67 1512.26C2320.54 1510 2319.96 1507.69 2319.66 1505.9C2319.51 1505.02 2319.44 1504.29 2319.4 1503.8C2319.39 1503.56 2319.38 1503.38 2319.38 1503.28L2319.37 1503.17V1488.37Z" fill="black"/>
<path fill-rule="evenodd" clip-rule="evenodd" d="M2370.56 1461H2303.44C2293.16 1461 2284.64 1468.98 2283.98 1479.24L2277.74 1560.24C2277.01 1571.48 2285.94 1581 2297.2 1581H2376.79C2388.06 1581 2396.98 1571.48 2396.25 1560.24L2390.02 1479.24C2389.35 1468.98 2380.84 1461 2370.56 1461ZM2370.56 1470.75H2303.44C2298.3 1470.75 2294.04 1474.74 2293.71 1479.87L2287.47 1560.87C2287.11 1566.49 2291.57 1571.25 2297.2 1571.25H2376.79C2382.43 1571.25 2386.89 1566.49 2386.52 1560.87L2380.29 1479.87C2379.95 1474.74 2375.7 1470.75 2370.56 1470.75Z" fill="black"/>
</g>
</g>
</g>
<g id="Semibold-L">
<g id="Outline / Shopping bag Outline_4">
<g id="Shape_4">
<path d="M2023.37 1488.37C2023.37 1485.68 2021.19 1483.5 2018.5 1483.5C2015.81 1483.5 2013.62 1485.68 2013.62 1488.37V1503.19L2013.62 1503.2L2013.62 1503.21L2013.62 1503.24L2013.62 1503.33C2013.63 1503.4 2013.63 1503.49 2013.63 1503.6C2013.64 1503.82 2013.65 1504.13 2013.68 1504.5C2013.73 1505.24 2013.84 1506.28 2014.04 1507.5C2014.45 1509.93 2015.26 1513.24 2016.95 1516.62C2018.65 1520.01 2021.27 1523.55 2025.29 1526.23C2029.34 1528.93 2034.52 1530.56 2041 1530.56C2047.48 1530.56 2052.66 1528.93 2056.71 1526.23C2060.73 1523.55 2063.35 1520.01 2065.05 1516.62C2066.73 1513.24 2067.55 1509.93 2067.96 1507.5C2068.16 1506.28 2068.26 1505.24 2068.32 1504.5C2068.34 1504.13 2068.36 1503.82 2068.36 1503.6C2068.37 1503.49 2068.37 1503.4 2068.37 1503.33L2068.37 1503.24L2068.37 1503.21L2068.37 1503.2L2068.37 1503.19V1488.37C2068.37 1485.68 2066.19 1483.5 2063.5 1483.5C2060.81 1483.5 2058.62 1485.68 2058.62 1488.37L2058.62 1503.17L2058.62 1503.28C2058.62 1503.38 2058.61 1503.56 2058.59 1503.8C2058.56 1504.29 2058.49 1505.02 2058.34 1505.9C2058.04 1507.69 2057.45 1510 2056.33 1512.26C2055.21 1514.49 2053.61 1516.58 2051.3 1518.11C2049.02 1519.63 2045.77 1520.81 2041 1520.81C2036.23 1520.81 2032.97 1519.63 2030.69 1518.11C2028.39 1516.58 2026.79 1514.49 2025.67 1512.26C2024.54 1510 2023.96 1507.69 2023.66 1505.9C2023.51 1505.02 2023.44 1504.29 2023.4 1503.8C2023.39 1503.56 2023.38 1503.38 2023.38 1503.28L2023.37 1503.17V1488.37Z" fill="black"/>
<path fill-rule="evenodd" clip-rule="evenodd" d="M2074.56 1461H2007.44C1997.16 1461 1988.64 1468.98 1987.98 1479.24L1981.74 1560.24C1981.01 1571.48 1989.94 1581 2001.2 1581H2080.79C2092.06 1581 2100.98 1571.48 2100.25 1560.24L2094.02 1479.24C2093.35 1468.98 2084.84 1461 2074.56 1461ZM2074.56 1470.75H2007.44C2002.3 1470.75 1998.04 1474.74 1997.71 1479.87L1991.47 1560.87C1991.11 1566.49 1995.57 1571.25 2001.2 1571.25H2080.79C2086.43 1571.25 2090.89 1566.49 2090.52 1560.87L2084.29 1479.87C2083.95 1474.74 2079.7 1470.75 2074.56 1470.75Z" fill="black"/>
</g>
</g>
</g>
<g id="Medium-L">
<g id="Outline / Shopping bag Outline_5">
<g id="Shape_5">
<path d="M1727.37 1488.37C1727.37 1485.68 1725.19 1483.5 1722.5 1483.5C1719.81 1483.5 1717.62 1485.68 1717.62 1488.37V1503.19L1717.62 1503.2L1717.62 1503.21L1717.62 1503.24L1717.63 1503.33C1717.63 1503.4 1717.63 1503.49 1717.63 1503.6C1717.64 1503.82 1717.65 1504.13 1717.68 1504.5C1717.73 1505.24 1717.84 1506.28 1718.04 1507.5C1718.45 1509.93 1719.27 1513.24 1720.95 1516.62C1722.65 1520.01 1725.27 1523.55 1729.29 1526.23C1733.34 1528.93 1738.52 1530.56 1745 1530.56C1751.48 1530.56 1756.66 1528.93 1760.71 1526.23C1764.73 1523.55 1767.35 1520.01 1769.05 1516.62C1770.73 1513.24 1771.55 1509.93 1771.96 1507.5C1772.16 1506.28 1772.27 1505.24 1772.32 1504.5C1772.35 1504.13 1772.36 1503.82 1772.37 1503.6C1772.37 1503.49 1772.37 1503.4 1772.37 1503.33L1772.37 1503.24L1772.37 1503.21L1772.37 1503.2L1772.37 1503.19V1488.37C1772.37 1485.68 1770.19 1483.5 1767.5 1483.5C1764.81 1483.5 1762.62 1485.68 1762.62 1488.37L1762.62 1503.17L1762.62 1503.28C1762.62 1503.38 1762.61 1503.56 1762.59 1503.8C1762.56 1504.29 1762.49 1505.02 1762.34 1505.9C1762.04 1507.69 1761.45 1510 1760.33 1512.26C1759.21 1514.49 1757.61 1516.58 1755.3 1518.11C1753.03 1519.63 1749.77 1520.81 1745 1520.81C1740.23 1520.81 1736.97 1519.63 1734.7 1518.11C1732.39 1516.58 1730.79 1514.49 1729.67 1512.26C1728.55 1510 1727.96 1507.69 1727.66 1505.9C1727.51 1505.02 1727.44 1504.29 1727.41 1503.8C1727.39 1503.56 1727.38 1503.38 1727.38 1503.28L1727.37 1503.17V1488.37Z" fill="black"/>
<path fill-rule="evenodd" clip-rule="evenodd" d="M1778.56 1461H1711.44C1701.16 1461 1692.65 1468.98 1691.98 1479.24L1685.75 1560.24C1685.02 1571.48 1693.94 1581 1705.21 1581H1784.79C1796.06 1581 1804.98 1571.48 1804.25 1560.24L1798.02 1479.24C1797.35 1468.98 1788.84 1461 1778.56 1461ZM1778.56 1470.75H1711.44C1706.3 1470.75 1702.04 1474.74 1701.71 1479.87L1695.48 1560.87C1695.11 1566.49 1699.57 1571.25 1705.21 1571.25H1784.79C1790.43 1571.25 1794.89 1566.49 1794.52 1560.87L1788.29 1479.87C1787.96 1474.74 1783.7 1470.75 1778.56 1470.75Z" fill="black"/>
</g>
</g>
</g>
<g id="Regular-L">
<g id="Outline / Shopping bag Outline_6">
<g id="Shape_6">
<path d="M1431.37 1488.37C1431.37 1485.68 1429.19 1483.5 1426.5 1483.5C1423.81 1483.5 1421.62 1485.68 1421.62 1488.37V1503.19L1421.62 1503.2L1421.62 1503.21L1421.62 1503.24L1421.63 1503.33C1421.63 1503.4 1421.63 1503.49 1421.63 1503.6C1421.64 1503.82 1421.65 1504.13 1421.68 1504.5C1421.73 1505.24 1421.84 1506.28 1422.04 1507.5C1422.45 1509.93 1423.27 1513.24 1424.95 1516.62C1426.65 1520.01 1429.27 1523.55 1433.29 1526.23C1437.34 1528.93 1442.52 1530.56 1449 1530.56C1455.48 1530.56 1460.66 1528.93 1464.71 1526.23C1468.73 1523.55 1471.35 1520.01 1473.05 1516.62C1474.73 1513.24 1475.55 1509.93 1475.96 1507.5C1476.16 1506.28 1476.27 1505.24 1476.32 1504.5C1476.35 1504.13 1476.36 1503.82 1476.37 1503.6C1476.37 1503.49 1476.37 1503.4 1476.37 1503.33L1476.37 1503.24L1476.37 1503.21L1476.37 1503.2L1476.37 1503.19V1488.37C1476.37 1485.68 1474.19 1483.5 1471.5 1483.5C1468.81 1483.5 1466.62 1485.68 1466.62 1488.37L1466.62 1503.17L1466.62 1503.28C1466.62 1503.38 1466.61 1503.56 1466.59 1503.8C1466.56 1504.29 1466.49 1505.02 1466.34 1505.9C1466.04 1507.69 1465.45 1510 1464.33 1512.26C1463.21 1514.49 1461.61 1516.58 1459.3 1518.11C1457.03 1519.63 1453.77 1520.81 1449 1520.81C1444.23 1520.81 1440.97 1519.63 1438.7 1518.11C1436.39 1516.58 1434.79 1514.49 1433.67 1512.26C1432.55 1510 1431.96 1507.69 1431.66 1505.9C1431.51 1505.02 1431.44 1504.29 1431.41 1503.8C1431.39 1503.56 1431.38 1503.38 1431.38 1503.28L1431.37 1503.17V1488.37Z" fill="black"/>
<path fill-rule="evenodd" clip-rule="evenodd" d="M1482.56 1461H1415.44C1405.16 1461 1396.65 1468.98 1395.98 1479.24L1389.75 1560.24C1389.02 1571.48 1397.94 1581 1409.21 1581H1488.79C1500.06 1581 1508.98 1571.48 1508.25 1560.24L1502.02 1479.24C1501.35 1468.98 1492.84 1461 1482.56 1461ZM1482.56 1470.75H1415.44C1410.3 1470.75 1406.04 1474.74 1405.71 1479.87L1399.48 1560.87C1399.11 1566.49 1403.57 1571.25 1409.21 1571.25H1488.79C1494.43 1571.25 1498.89 1566.49 1498.52 1560.87L1492.29 1479.87C1491.96 1474.74 1487.7 1470.75 1482.56 1470.75Z" fill="black"/>
</g>
</g>
</g>
<g id="Light-L">
<g id="Outline / Shopping bag Outline_7">
<g id="Shape_7">
<path d="M1135.37 1488.37C1135.37 1485.68 1133.19 1483.5 1130.5 1483.5C1127.81 1483.5 1125.62 1485.68 1125.62 1488.37V1503.19L1125.62 1503.2L1125.62 1503.21L1125.62 1503.24L1125.63 1503.33C1125.63 1503.4 1125.63 1503.49 1125.63 1503.6C1125.64 1503.82 1125.65 1504.13 1125.68 1504.5C1125.73 1505.24 1125.84 1506.28 1126.04 1507.5C1126.45 1509.93 1127.27 1513.24 1128.95 1516.62C1130.65 1520.01 1133.27 1523.55 1137.29 1526.23C1141.34 1528.93 1146.52 1530.56 1153 1530.56C1159.48 1530.56 1164.66 1528.93 1168.71 1526.23C1172.73 1523.55 1175.35 1520.01 1177.05 1516.62C1178.73 1513.24 1179.55 1509.93 1179.96 1507.5C1180.16 1506.28 1180.27 1505.24 1180.32 1504.5C1180.35 1504.13 1180.36 1503.82 1180.37 1503.6C1180.37 1503.49 1180.37 1503.4 1180.37 1503.33L1180.37 1503.24L1180.37 1503.21L1180.37 1503.2L1180.37 1503.19V1488.37C1180.37 1485.68 1178.19 1483.5 1175.5 1483.5C1172.81 1483.5 1170.62 1485.68 1170.62 1488.37L1170.62 1503.17L1170.62 1503.28C1170.62 1503.38 1170.61 1503.56 1170.59 1503.8C1170.56 1504.29 1170.49 1505.02 1170.34 1505.9C1170.04 1507.69 1169.45 1510 1168.33 1512.26C1167.21 1514.49 1165.61 1516.58 1163.3 1518.11C1161.03 1519.63 1157.77 1520.81 1153 1520.81C1148.23 1520.81 1144.97 1519.63 1142.7 1518.11C1140.39 1516.58 1138.79 1514.49 1137.67 1512.26C1136.55 1510 1135.96 1507.69 1135.66 1505.9C1135.51 1505.02 1135.44 1504.29 1135.41 1503.8C1135.39 1503.56 1135.38 1503.38 1135.38 1503.28L1135.37 1503.17V1488.37Z" fill="black"/>
<path fill-rule="evenodd" clip-rule="evenodd" d="M1186.56 1461H1119.44C1109.16 1461 1100.65 1468.98 1099.98 1479.24L1093.75 1560.24C1093.02 1571.48 1101.94 1581 1113.21 1581H1192.79C1204.06 1581 1212.98 1571.48 1212.25 1560.24L1206.02 1479.24C1205.35 1468.98 1196.84 1461 1186.56 1461ZM1186.56 1470.75H1119.44C1114.3 1470.75 1110.04 1474.74 1109.71 1479.87L1103.48 1560.87C1103.11 1566.49 1107.57 1571.25 1113.21 1571.25H1192.79C1198.43 1571.25 1202.89 1566.49 1202.52 1560.87L1196.29 1479.87C1195.96 1474.74 1191.7 1470.75 1186.56 1470.75Z" fill="black"/>
</g>
</g>
</g>
<g id="Thin-L">
<g id="Outline / Shopping bag Outline_8">
<g id="Shape_8">
<path d="M839.375 1488.37C839.375 1485.68 837.192 1483.5 834.5 1483.5C831.807 1483.5 829.625 1485.68 829.625 1488.37V1503.19L829.625 1503.2L829.625 1503.21L829.625 1503.24L829.626 1503.33C829.627 1503.4 829.629 1503.49 829.633 1503.6C829.64 1503.82 829.654 1504.13 829.681 1504.5C829.734 1505.24 829.838 1506.28 830.043 1507.5C830.447 1509.93 831.266 1513.24 832.952 1516.62C834.647 1520.01 837.267 1523.55 841.288 1526.23C845.339 1528.93 850.522 1530.56 857 1530.56C863.478 1530.56 868.66 1528.93 872.712 1526.23C876.732 1523.55 879.352 1520.01 881.048 1516.62C882.733 1513.24 883.552 1509.93 883.957 1507.5C884.161 1506.28 884.265 1505.24 884.318 1504.5C884.345 1504.13 884.359 1503.82 884.366 1503.6C884.37 1503.49 884.372 1503.4 884.373 1503.33L884.374 1503.24L884.375 1503.21L884.375 1503.2L884.375 1503.19V1488.37C884.375 1485.68 882.192 1483.5 879.5 1483.5C876.807 1483.5 874.625 1485.68 874.625 1488.37L874.625 1503.17L874.622 1503.28C874.618 1503.38 874.61 1503.56 874.593 1503.8C874.558 1504.29 874.487 1505.02 874.339 1505.9C874.041 1507.69 873.453 1510 872.327 1512.26C871.21 1514.49 869.611 1516.58 867.303 1518.11C865.027 1519.63 861.772 1520.81 857 1520.81C852.228 1520.81 848.973 1519.63 846.696 1518.11C844.389 1516.58 842.79 1514.49 841.673 1512.26C840.546 1510 839.958 1507.69 839.66 1505.9C839.513 1505.02 839.441 1504.29 839.406 1503.8C839.389 1503.56 839.381 1503.38 839.377 1503.28L839.375 1503.17V1488.37Z" fill="black"/>
<path fill-rule="evenodd" clip-rule="evenodd" d="M890.56 1461H823.439C813.16 1461 804.646 1468.98 803.98 1479.24L797.747 1560.24C797.017 1571.48 805.939 1581 817.206 1581H896.794C908.06 1581 916.983 1571.48 916.253 1560.24L910.019 1479.24C909.353 1468.98 900.839 1461 890.56 1461ZM890.56 1470.75H823.439C818.3 1470.75 814.043 1474.74 813.71 1479.87L807.476 1560.87C807.111 1566.49 811.572 1571.25 817.206 1571.25H896.794C902.427 1571.25 906.888 1566.49 906.523 1560.87L900.289 1479.87C899.956 1474.74 895.699 1470.75 890.56 1470.75Z" fill="black"/>
</g>
</g>
</g>
<g id="Ultralight-L">
<g id="Outline / Shopping bag Outline_9">
<g id="Shape_9">
<path d="M543.375 1488.37C543.375 1485.68 541.192 1483.5 538.5 1483.5C535.807 1483.5 533.625 1485.68 533.625 1488.37V1503.19L533.625 1503.2L533.625 1503.21L533.625 1503.24L533.626 1503.33C533.627 1503.4 533.629 1503.49 533.633 1503.6C533.64 1503.82 533.654 1504.13 533.681 1504.5C533.734 1505.24 533.838 1506.28 534.043 1507.5C534.447 1509.93 535.266 1513.24 536.952 1516.62C538.647 1520.01 541.267 1523.55 545.288 1526.23C549.339 1528.93 554.522 1530.56 561 1530.56C567.478 1530.56 572.66 1528.93 576.712 1526.23C580.732 1523.55 583.352 1520.01 585.048 1516.62C586.733 1513.24 587.552 1509.93 587.957 1507.5C588.161 1506.28 588.265 1505.24 588.318 1504.5C588.345 1504.13 588.359 1503.82 588.366 1503.6C588.37 1503.49 588.372 1503.4 588.373 1503.33L588.374 1503.24L588.375 1503.21L588.375 1503.2L588.375 1503.19V1488.37C588.375 1485.68 586.192 1483.5 583.5 1483.5C580.807 1483.5 578.625 1485.68 578.625 1488.37L578.625 1503.17L578.622 1503.28C578.618 1503.38 578.61 1503.56 578.593 1503.8C578.558 1504.29 578.487 1505.02 578.339 1505.9C578.041 1507.69 577.453 1510 576.327 1512.26C575.21 1514.49 573.611 1516.58 571.303 1518.11C569.027 1519.63 565.772 1520.81 561 1520.81C556.228 1520.81 552.973 1519.63 550.696 1518.11C548.389 1516.58 546.79 1514.49 545.673 1512.26C544.546 1510 543.958 1507.69 543.66 1505.9C543.513 1505.02 543.441 1504.29 543.406 1503.8C543.389 1503.56 543.381 1503.38 543.377 1503.28L543.375 1503.17V1488.37Z" fill="black"/>
<path fill-rule="evenodd" clip-rule="evenodd" d="M594.56 1461H527.439C517.16 1461 508.646 1468.98 507.98 1479.24L501.747 1560.24C501.017 1571.48 509.939 1581 521.206 1581H600.794C612.06 1581 620.983 1571.48 620.253 1560.24L614.019 1479.24C613.353 1468.98 604.839 1461 594.56 1461ZM594.56 1470.75H527.439C522.3 1470.75 518.043 1474.74 517.71 1479.87L511.476 1560.87C511.111 1566.49 515.572 1571.25 521.206 1571.25H600.794C606.427 1571.25 610.888 1566.49 610.523 1560.87L604.289 1479.87C603.956 1474.74 599.699 1470.75 594.56 1470.75Z" fill="black"/>
</g>
</g>
</g>
<g id="Black-M">
<g id="Outline / Shopping bag Outline_10">
<g id="Shape_10">
<path d="M2915.29 1065.62C2915.29 1063.53 2913.59 1061.83 2911.5 1061.83C2909.4 1061.83 2907.71 1063.53 2907.71 1065.62V1077.14L2907.71 1077.15L2907.71 1077.16L2907.71 1077.19L2907.71 1077.25C2907.71 1077.31 2907.71 1077.38 2907.71 1077.47C2907.72 1077.64 2907.73 1077.87 2907.75 1078.16C2907.79 1078.74 2907.87 1079.55 2908.03 1080.5C2908.35 1082.39 2908.98 1084.97 2910.29 1087.59C2911.61 1090.23 2913.65 1092.98 2916.78 1095.06C2919.93 1097.16 2923.96 1098.43 2929 1098.43C2934.04 1098.43 2938.07 1097.16 2941.22 1095.06C2944.35 1092.98 2946.38 1090.23 2947.7 1087.59C2949.01 1084.97 2949.65 1082.39 2949.97 1080.5C2950.12 1079.55 2950.21 1078.74 2950.25 1078.16C2950.27 1077.87 2950.28 1077.64 2950.28 1077.47C2950.29 1077.38 2950.29 1077.31 2950.29 1077.25L2950.29 1077.19L2950.29 1077.16L2950.29 1077.15L2950.29 1077.14V1065.62C2950.29 1063.53 2948.59 1061.83 2946.5 1061.83C2944.4 1061.83 2942.71 1063.53 2942.71 1065.62L2942.71 1077.13L2942.7 1077.21C2942.7 1077.3 2942.7 1077.44 2942.68 1077.62C2942.66 1078 2942.6 1078.57 2942.49 1079.25C2942.25 1080.65 2941.8 1082.44 2940.92 1084.2C2940.05 1085.93 2938.81 1087.56 2937.01 1088.75C2935.24 1089.93 2932.71 1090.85 2929 1090.85C2925.29 1090.85 2922.76 1089.93 2920.98 1088.75C2919.19 1087.56 2917.95 1085.93 2917.08 1084.2C2916.2 1082.44 2915.74 1080.65 2915.51 1079.25C2915.4 1078.57 2915.34 1078 2915.31 1077.62C2915.3 1077.44 2915.3 1077.3 2915.29 1077.21L2915.29 1077.13V1065.62Z" fill="black"/>
<path fill-rule="evenodd" clip-rule="evenodd" d="M2955.1 1044.33H2902.9C2894.9 1044.33 2888.28 1050.54 2887.76 1058.52L2882.91 1121.52C2882.35 1130.26 2889.28 1137.67 2898.05 1137.67H2959.95C2968.71 1137.67 2975.65 1130.26 2975.08 1121.52L2970.24 1058.52C2969.72 1050.54 2963.1 1044.33 2955.1 1044.33ZM2955.1 1051.92H2902.9C2898.9 1051.92 2895.59 1055.02 2895.33 1059.01L2890.48 1122.01C2890.2 1126.38 2893.67 1130.08 2898.05 1130.08H2959.95C2964.33 1130.08 2967.8 1126.38 2967.52 1122.01L2962.67 1059.01C2962.41 1055.02 2959.1 1051.92 2955.1 1051.92Z" fill="black"/>
</g>
</g>
</g>
<g id="Heavy-M">
<g id="Outline / Shopping bag Outline_11">
<g id="Shape_11">
<path d="M2619.29 1065.62C2619.29 1063.53 2617.59 1061.83 2615.5 1061.83C2613.4 1061.83 2611.71 1063.53 2611.71 1065.62V1077.14L2611.71 1077.15L2611.71 1077.16L2611.71 1077.19L2611.71 1077.25C2611.71 1077.31 2611.71 1077.38 2611.71 1077.47C2611.72 1077.64 2611.73 1077.87 2611.75 1078.16C2611.79 1078.74 2611.87 1079.55 2612.03 1080.5C2612.35 1082.39 2612.98 1084.97 2614.29 1087.59C2615.61 1090.23 2617.65 1092.98 2620.78 1095.06C2623.93 1097.16 2627.96 1098.43 2633 1098.43C2638.04 1098.43 2642.07 1097.16 2645.22 1095.06C2648.35 1092.98 2650.38 1090.23 2651.7 1087.59C2653.01 1084.97 2653.65 1082.39 2653.97 1080.5C2654.12 1079.55 2654.21 1078.74 2654.25 1078.16C2654.27 1077.87 2654.28 1077.64 2654.28 1077.47C2654.29 1077.38 2654.29 1077.31 2654.29 1077.25L2654.29 1077.19L2654.29 1077.16L2654.29 1077.15L2654.29 1077.14V1065.62C2654.29 1063.53 2652.59 1061.83 2650.5 1061.83C2648.4 1061.83 2646.71 1063.53 2646.71 1065.62L2646.71 1077.13L2646.7 1077.21C2646.7 1077.3 2646.7 1077.44 2646.68 1077.62C2646.66 1078 2646.6 1078.57 2646.49 1079.25C2646.25 1080.65 2645.8 1082.44 2644.92 1084.2C2644.05 1085.93 2642.81 1087.56 2641.01 1088.75C2639.24 1089.93 2636.71 1090.85 2633 1090.85C2629.29 1090.85 2626.76 1089.93 2624.98 1088.75C2623.19 1087.56 2621.95 1085.93 2621.08 1084.2C2620.2 1082.44 2619.74 1080.65 2619.51 1079.25C2619.4 1078.57 2619.34 1078 2619.31 1077.62C2619.3 1077.44 2619.3 1077.3 2619.29 1077.21L2619.29 1077.13V1065.62Z" fill="black"/>
<path fill-rule="evenodd" clip-rule="evenodd" d="M2659.1 1044.33H2606.9C2598.9 1044.33 2592.28 1050.54 2591.76 1058.52L2586.91 1121.52C2586.35 1130.26 2593.28 1137.67 2602.05 1137.67H2663.95C2672.71 1137.67 2679.65 1130.26 2679.08 1121.52L2674.24 1058.52C2673.72 1050.54 2667.1 1044.33 2659.1 1044.33ZM2659.1 1051.92H2606.9C2602.9 1051.92 2599.59 1055.02 2599.33 1059.01L2594.48 1122.01C2594.2 1126.38 2597.67 1130.08 2602.05 1130.08H2663.95C2668.33 1130.08 2671.8 1126.38 2671.52 1122.01L2666.67 1059.01C2666.41 1055.02 2663.1 1051.92 2659.1 1051.92Z" fill="black"/>
</g>
</g>
</g>
<g id="Bold-M">
<g id="Outline / Shopping bag Outline_12">
<g id="Shape_12">
<path d="M2323.29 1065.62C2323.29 1063.53 2321.59 1061.83 2319.5 1061.83C2317.4 1061.83 2315.71 1063.53 2315.71 1065.62V1077.14L2315.71 1077.15L2315.71 1077.16L2315.71 1077.19L2315.71 1077.25C2315.71 1077.31 2315.71 1077.38 2315.71 1077.47C2315.72 1077.64 2315.73 1077.87 2315.75 1078.16C2315.79 1078.74 2315.87 1079.55 2316.03 1080.5C2316.35 1082.39 2316.98 1084.97 2318.29 1087.59C2319.61 1090.23 2321.65 1092.98 2324.78 1095.06C2327.93 1097.16 2331.96 1098.43 2337 1098.43C2342.04 1098.43 2346.07 1097.16 2349.22 1095.06C2352.35 1092.98 2354.38 1090.23 2355.7 1087.59C2357.01 1084.97 2357.65 1082.39 2357.97 1080.5C2358.12 1079.55 2358.21 1078.74 2358.25 1078.16C2358.27 1077.87 2358.28 1077.64 2358.28 1077.47C2358.29 1077.38 2358.29 1077.31 2358.29 1077.25L2358.29 1077.19L2358.29 1077.16L2358.29 1077.15L2358.29 1077.14V1065.62C2358.29 1063.53 2356.59 1061.83 2354.5 1061.83C2352.4 1061.83 2350.71 1063.53 2350.71 1065.62L2350.71 1077.13L2350.7 1077.21C2350.7 1077.3 2350.7 1077.44 2350.68 1077.62C2350.66 1078 2350.6 1078.57 2350.49 1079.25C2350.25 1080.65 2349.8 1082.44 2348.92 1084.2C2348.05 1085.93 2346.81 1087.56 2345.01 1088.75C2343.24 1089.93 2340.71 1090.85 2337 1090.85C2333.29 1090.85 2330.76 1089.93 2328.98 1088.75C2327.19 1087.56 2325.95 1085.93 2325.08 1084.2C2324.2 1082.44 2323.74 1080.65 2323.51 1079.25C2323.4 1078.57 2323.34 1078 2323.31 1077.62C2323.3 1077.44 2323.3 1077.3 2323.29 1077.21L2323.29 1077.13V1065.62Z" fill="black"/>
<path fill-rule="evenodd" clip-rule="evenodd" d="M2363.1 1044.33H2310.9C2302.9 1044.33 2296.28 1050.54 2295.76 1058.52L2290.91 1121.52C2290.35 1130.26 2297.28 1137.67 2306.05 1137.67H2367.95C2376.71 1137.67 2383.65 1130.26 2383.08 1121.52L2378.24 1058.52C2377.72 1050.54 2371.1 1044.33 2363.1 1044.33ZM2363.1 1051.92H2310.9C2306.9 1051.92 2303.59 1055.02 2303.33 1059.01L2298.48 1122.01C2298.2 1126.38 2301.67 1130.08 2306.05 1130.08H2367.95C2372.33 1130.08 2375.8 1126.38 2375.52 1122.01L2370.67 1059.01C2370.41 1055.02 2367.1 1051.92 2363.1 1051.92Z" fill="black"/>
</g>
</g>
</g>
<g id="Semibold-M">
<g id="Outline / Shopping bag Outline_13">
<g id="Shape_13">
<path d="M2027.29 1065.62C2027.29 1063.53 2025.59 1061.83 2023.5 1061.83C2021.4 1061.83 2019.71 1063.53 2019.71 1065.62V1077.14L2019.71 1077.15L2019.71 1077.16L2019.71 1077.19L2019.71 1077.25C2019.71 1077.31 2019.71 1077.38 2019.71 1077.47C2019.72 1077.64 2019.73 1077.87 2019.75 1078.16C2019.79 1078.74 2019.87 1079.55 2020.03 1080.5C2020.35 1082.39 2020.98 1084.97 2022.29 1087.59C2023.61 1090.23 2025.65 1092.98 2028.78 1095.06C2031.93 1097.16 2035.96 1098.43 2041 1098.43C2046.04 1098.43 2050.07 1097.16 2053.22 1095.06C2056.35 1092.98 2058.38 1090.23 2059.7 1087.59C2061.01 1084.97 2061.65 1082.39 2061.97 1080.5C2062.12 1079.55 2062.21 1078.74 2062.25 1078.16C2062.27 1077.87 2062.28 1077.64 2062.28 1077.47C2062.29 1077.38 2062.29 1077.31 2062.29 1077.25L2062.29 1077.19L2062.29 1077.16L2062.29 1077.15L2062.29 1077.14V1065.62C2062.29 1063.53 2060.59 1061.83 2058.5 1061.83C2056.4 1061.83 2054.71 1063.53 2054.71 1065.62L2054.71 1077.13L2054.7 1077.21C2054.7 1077.3 2054.7 1077.44 2054.68 1077.62C2054.66 1078 2054.6 1078.57 2054.49 1079.25C2054.25 1080.65 2053.8 1082.44 2052.92 1084.2C2052.05 1085.93 2050.81 1087.56 2049.01 1088.75C2047.24 1089.93 2044.71 1090.85 2041 1090.85C2037.29 1090.85 2034.76 1089.93 2032.98 1088.75C2031.19 1087.56 2029.95 1085.93 2029.08 1084.2C2028.2 1082.44 2027.74 1080.65 2027.51 1079.25C2027.4 1078.57 2027.34 1078 2027.31 1077.62C2027.3 1077.44 2027.3 1077.3 2027.29 1077.21L2027.29 1077.13V1065.62Z" fill="black"/>
<path fill-rule="evenodd" clip-rule="evenodd" d="M2067.1 1044.33H2014.9C2006.9 1044.33 2000.28 1050.54 1999.76 1058.52L1994.91 1121.52C1994.35 1130.26 2001.28 1137.67 2010.05 1137.67H2071.95C2080.71 1137.67 2087.65 1130.26 2087.08 1121.52L2082.24 1058.52C2081.72 1050.54 2075.1 1044.33 2067.1 1044.33ZM2067.1 1051.92H2014.9C2010.9 1051.92 2007.59 1055.02 2007.33 1059.01L2002.48 1122.01C2002.2 1126.38 2005.67 1130.08 2010.05 1130.08H2071.95C2076.33 1130.08 2079.8 1126.38 2079.52 1122.01L2074.67 1059.01C2074.41 1055.02 2071.1 1051.92 2067.1 1051.92Z" fill="black"/>
</g>
</g>
</g>
<g id="Medium-M">
<g id="Outline / Shopping bag Outline_14">
<g id="Shape_14">
<path d="M1731.29 1065.62C1731.29 1063.53 1729.59 1061.83 1727.5 1061.83C1725.41 1061.83 1723.71 1063.53 1723.71 1065.62V1077.14L1723.71 1077.15L1723.71 1077.16L1723.71 1077.19L1723.71 1077.25C1723.71 1077.31 1723.71 1077.38 1723.71 1077.47C1723.72 1077.64 1723.73 1077.87 1723.75 1078.16C1723.79 1078.74 1723.87 1079.55 1724.03 1080.5C1724.35 1082.39 1724.98 1084.97 1726.3 1087.59C1727.61 1090.23 1729.65 1092.98 1732.78 1095.06C1735.93 1097.16 1739.96 1098.43 1745 1098.43C1750.04 1098.43 1754.07 1097.16 1757.22 1095.06C1760.35 1092.98 1762.39 1090.23 1763.7 1087.59C1765.01 1084.97 1765.65 1082.39 1765.97 1080.5C1766.13 1079.55 1766.21 1078.74 1766.25 1078.16C1766.27 1077.87 1766.28 1077.64 1766.29 1077.47C1766.29 1077.38 1766.29 1077.31 1766.29 1077.25L1766.29 1077.19L1766.29 1077.16L1766.29 1077.15L1766.29 1077.14V1065.62C1766.29 1063.53 1764.59 1061.83 1762.5 1061.83C1760.41 1061.83 1758.71 1063.53 1758.71 1065.62L1758.71 1077.13L1758.71 1077.21C1758.7 1077.3 1758.7 1077.44 1758.68 1077.62C1758.66 1078 1758.6 1078.57 1758.49 1079.25C1758.25 1080.65 1757.8 1082.44 1756.92 1084.2C1756.05 1085.93 1754.81 1087.56 1753.01 1088.75C1751.24 1089.93 1748.71 1090.85 1745 1090.85C1741.29 1090.85 1738.76 1089.93 1736.99 1088.75C1735.19 1087.56 1733.95 1085.93 1733.08 1084.2C1732.2 1082.44 1731.75 1080.65 1731.51 1079.25C1731.4 1078.57 1731.34 1078 1731.32 1077.62C1731.3 1077.44 1731.3 1077.3 1731.29 1077.21L1731.29 1077.13V1065.62Z" fill="black"/>
<path fill-rule="evenodd" clip-rule="evenodd" d="M1771.1 1044.33H1718.9C1710.9 1044.33 1704.28 1050.54 1703.76 1058.52L1698.91 1121.52C1698.35 1130.26 1705.29 1137.67 1714.05 1137.67H1775.95C1784.71 1137.67 1791.65 1130.26 1791.09 1121.52L1786.24 1058.52C1785.72 1050.54 1779.1 1044.33 1771.1 1044.33ZM1771.1 1051.92H1718.9C1714.9 1051.92 1711.59 1055.02 1711.33 1059.01L1706.48 1122.01C1706.2 1126.38 1709.67 1130.08 1714.05 1130.08H1775.95C1780.33 1130.08 1783.8 1126.38 1783.52 1122.01L1778.67 1059.01C1778.41 1055.02 1775.1 1051.92 1771.1 1051.92Z" fill="black"/>
</g>
</g>
</g>
<g id="Regular-M">
<g id="Outline / Shopping bag Outline_15">
<g id="Shape_15">
<path d="M1435.29 1065.62C1435.29 1063.53 1433.59 1061.83 1431.5 1061.83C1429.41 1061.83 1427.71 1063.53 1427.71 1065.62V1077.14L1427.71 1077.15L1427.71 1077.16L1427.71 1077.19L1427.71 1077.25C1427.71 1077.31 1427.71 1077.38 1427.71 1077.47C1427.72 1077.64 1427.73 1077.87 1427.75 1078.16C1427.79 1078.74 1427.87 1079.55 1428.03 1080.5C1428.35 1082.39 1428.98 1084.97 1430.3 1087.59C1431.61 1090.23 1433.65 1092.98 1436.78 1095.06C1439.93 1097.16 1443.96 1098.43 1449 1098.43C1454.04 1098.43 1458.07 1097.16 1461.22 1095.06C1464.35 1092.98 1466.39 1090.23 1467.7 1087.59C1469.01 1084.97 1469.65 1082.39 1469.97 1080.5C1470.13 1079.55 1470.21 1078.74 1470.25 1078.16C1470.27 1077.87 1470.28 1077.64 1470.29 1077.47C1470.29 1077.38 1470.29 1077.31 1470.29 1077.25L1470.29 1077.19L1470.29 1077.16L1470.29 1077.15L1470.29 1077.14V1065.62C1470.29 1063.53 1468.59 1061.83 1466.5 1061.83C1464.41 1061.83 1462.71 1063.53 1462.71 1065.62L1462.71 1077.13L1462.71 1077.21C1462.7 1077.3 1462.7 1077.44 1462.68 1077.62C1462.66 1078 1462.6 1078.57 1462.49 1079.25C1462.25 1080.65 1461.8 1082.44 1460.92 1084.2C1460.05 1085.93 1458.81 1087.56 1457.01 1088.75C1455.24 1089.93 1452.71 1090.85 1449 1090.85C1445.29 1090.85 1442.76 1089.93 1440.99 1088.75C1439.19 1087.56 1437.95 1085.93 1437.08 1084.2C1436.2 1082.44 1435.75 1080.65 1435.51 1079.25C1435.4 1078.57 1435.34 1078 1435.32 1077.62C1435.3 1077.44 1435.3 1077.3 1435.29 1077.21L1435.29 1077.13V1065.62Z" fill="black"/>
<path fill-rule="evenodd" clip-rule="evenodd" d="M1475.1 1044.33H1422.9C1414.9 1044.33 1408.28 1050.54 1407.76 1058.52L1402.91 1121.52C1402.35 1130.26 1409.29 1137.67 1418.05 1137.67H1479.95C1488.71 1137.67 1495.65 1130.26 1495.09 1121.52L1490.24 1058.52C1489.72 1050.54 1483.1 1044.33 1475.1 1044.33ZM1475.1 1051.92H1422.9C1418.9 1051.92 1415.59 1055.02 1415.33 1059.01L1410.48 1122.01C1410.2 1126.38 1413.67 1130.08 1418.05 1130.08H1479.95C1484.33 1130.08 1487.8 1126.38 1487.52 1122.01L1482.67 1059.01C1482.41 1055.02 1479.1 1051.92 1475.1 1051.92Z" fill="black"/>
</g>
</g>
</g>
<g id="Light-M">
<g id="Outline / Shopping bag Outline_16">
<g id="Shape_16">
<path d="M1139.29 1065.62C1139.29 1063.53 1137.59 1061.83 1135.5 1061.83C1133.41 1061.83 1131.71 1063.53 1131.71 1065.62V1077.14L1131.71 1077.15L1131.71 1077.16L1131.71 1077.19L1131.71 1077.25C1131.71 1077.31 1131.71 1077.38 1131.71 1077.47C1131.72 1077.64 1131.73 1077.87 1131.75 1078.16C1131.79 1078.74 1131.87 1079.55 1132.03 1080.5C1132.35 1082.39 1132.98 1084.97 1134.3 1087.59C1135.61 1090.23 1137.65 1092.98 1140.78 1095.06C1143.93 1097.16 1147.96 1098.43 1153 1098.43C1158.04 1098.43 1162.07 1097.16 1165.22 1095.06C1168.35 1092.98 1170.39 1090.23 1171.7 1087.59C1173.01 1084.97 1173.65 1082.39 1173.97 1080.5C1174.13 1079.55 1174.21 1078.74 1174.25 1078.16C1174.27 1077.87 1174.28 1077.64 1174.29 1077.47C1174.29 1077.38 1174.29 1077.31 1174.29 1077.25L1174.29 1077.19L1174.29 1077.16L1174.29 1077.15L1174.29 1077.14V1065.62C1174.29 1063.53 1172.59 1061.83 1170.5 1061.83C1168.41 1061.83 1166.71 1063.53 1166.71 1065.62L1166.71 1077.13L1166.71 1077.21C1166.7 1077.3 1166.7 1077.44 1166.68 1077.62C1166.66 1078 1166.6 1078.57 1166.49 1079.25C1166.25 1080.65 1165.8 1082.44 1164.92 1084.2C1164.05 1085.93 1162.81 1087.56 1161.01 1088.75C1159.24 1089.93 1156.71 1090.85 1153 1090.85C1149.29 1090.85 1146.76 1089.93 1144.99 1088.75C1143.19 1087.56 1141.95 1085.93 1141.08 1084.2C1140.2 1082.44 1139.75 1080.65 1139.51 1079.25C1139.4 1078.57 1139.34 1078 1139.32 1077.62C1139.3 1077.44 1139.3 1077.3 1139.29 1077.21L1139.29 1077.13V1065.62Z" fill="black"/>
<path fill-rule="evenodd" clip-rule="evenodd" d="M1179.1 1044.33H1126.9C1118.9 1044.33 1112.28 1050.54 1111.76 1058.52L1106.91 1121.52C1106.35 1130.26 1113.29 1137.67 1122.05 1137.67H1183.95C1192.71 1137.67 1199.65 1130.26 1199.09 1121.52L1194.24 1058.52C1193.72 1050.54 1187.1 1044.33 1179.1 1044.33ZM1179.1 1051.92H1126.9C1122.9 1051.92 1119.59 1055.02 1119.33 1059.01L1114.48 1122.01C1114.2 1126.38 1117.67 1130.08 1122.05 1130.08H1183.95C1188.33 1130.08 1191.8 1126.38 1191.52 1122.01L1186.67 1059.01C1186.41 1055.02 1183.1 1051.92 1179.1 1051.92Z" fill="black"/>
</g>
</g>
</g>
<g id="Thin-M">
<g id="Outline / Shopping bag Outline_17">
<g id="Shape_17">
<path d="M843.291 1065.62C843.291 1063.53 841.594 1061.83 839.5 1061.83C837.406 1061.83 835.708 1063.53 835.708 1065.62V1077.14L835.708 1077.15L835.708 1077.16L835.708 1077.19L835.709 1077.25C835.71 1077.31 835.712 1077.38 835.715 1077.47C835.72 1077.64 835.731 1077.87 835.752 1078.16C835.793 1078.74 835.874 1079.55 836.033 1080.5C836.348 1082.39 836.985 1084.97 838.296 1087.59C839.615 1090.23 841.652 1092.98 844.779 1095.06C847.93 1097.16 851.961 1098.43 857 1098.43C862.038 1098.43 866.069 1097.16 869.22 1095.06C872.348 1092.98 874.385 1090.23 875.704 1087.59C877.015 1084.97 877.652 1082.39 877.966 1080.5C878.125 1079.55 878.206 1078.74 878.248 1078.16C878.268 1077.87 878.279 1077.64 878.285 1077.47C878.288 1077.38 878.29 1077.31 878.29 1077.25L878.291 1077.19L878.291 1077.16L878.291 1077.15L878.291 1077.14V1065.62C878.291 1063.53 876.594 1061.83 874.5 1061.83C872.406 1061.83 870.708 1063.53 870.708 1065.62L870.708 1077.13L870.706 1077.21C870.703 1077.3 870.697 1077.44 870.684 1077.62C870.657 1078 870.601 1078.57 870.486 1079.25C870.254 1080.65 869.797 1082.44 868.921 1084.2C868.052 1085.93 866.808 1087.56 865.014 1088.75C863.243 1089.93 860.711 1090.85 857 1090.85C853.288 1090.85 850.757 1089.93 848.986 1088.75C847.191 1087.56 845.948 1085.93 845.079 1084.2C844.202 1082.44 843.745 1080.65 843.513 1079.25C843.399 1078.57 843.343 1078 843.316 1077.62C843.303 1077.44 843.296 1077.3 843.294 1077.21L843.291 1077.13V1065.62Z" fill="black"/>
<path fill-rule="evenodd" clip-rule="evenodd" d="M883.102 1044.33H830.897C822.903 1044.33 816.281 1050.54 815.763 1058.52L810.914 1121.52C810.346 1130.26 817.286 1137.67 826.049 1137.67H887.951C896.714 1137.67 903.653 1130.26 903.085 1121.52L898.237 1058.52C897.719 1050.54 891.097 1044.33 883.102 1044.33ZM883.102 1051.92H830.897C826.9 1051.92 823.589 1055.02 823.33 1059.01L818.482 1122.01C818.198 1126.38 821.667 1130.08 826.049 1130.08H887.951C892.332 1130.08 895.802 1126.38 895.518 1122.01L890.67 1059.01C890.411 1055.02 887.1 1051.92 883.102 1051.92Z" fill="black"/>
</g>
</g>
</g>
<g id="Ultralight-M">
<g id="Outline / Shopping bag Outline_18">
<g id="Shape_18">
<path d="M547.291 1065.62C547.291 1063.53 545.594 1061.83 543.5 1061.83C541.406 1061.83 539.708 1063.53 539.708 1065.62V1077.14L539.708 1077.15L539.708 1077.16L539.708 1077.19L539.709 1077.25C539.71 1077.31 539.712 1077.38 539.715 1077.47C539.72 1077.64 539.731 1077.87 539.752 1078.16C539.793 1078.74 539.874 1079.55 540.033 1080.5C540.348 1082.39 540.985 1084.97 542.296 1087.59C543.615 1090.23 545.652 1092.98 548.779 1095.06C551.93 1097.16 555.961 1098.43 561 1098.43C566.038 1098.43 570.069 1097.16 573.22 1095.06C576.348 1092.98 578.385 1090.23 579.704 1087.59C581.015 1084.97 581.652 1082.39 581.966 1080.5C582.125 1079.55 582.206 1078.74 582.248 1078.16C582.268 1077.87 582.279 1077.64 582.285 1077.47C582.288 1077.38 582.29 1077.31 582.29 1077.25L582.291 1077.19L582.291 1077.16L582.291 1077.15L582.291 1077.14V1065.62C582.291 1063.53 580.594 1061.83 578.5 1061.83C576.406 1061.83 574.708 1063.53 574.708 1065.62L574.708 1077.13L574.706 1077.21C574.703 1077.3 574.697 1077.44 574.684 1077.62C574.657 1078 574.601 1078.57 574.486 1079.25C574.254 1080.65 573.797 1082.44 572.921 1084.2C572.052 1085.93 570.808 1087.56 569.014 1088.75C567.243 1089.93 564.711 1090.85 561 1090.85C557.288 1090.85 554.757 1089.93 552.986 1088.75C551.191 1087.56 549.948 1085.93 549.079 1084.2C548.202 1082.44 547.745 1080.65 547.513 1079.25C547.399 1078.57 547.343 1078 547.316 1077.62C547.303 1077.44 547.296 1077.3 547.294 1077.21L547.291 1077.13V1065.62Z" fill="black"/>
<path fill-rule="evenodd" clip-rule="evenodd" d="M587.102 1044.33H534.897C526.903 1044.33 520.281 1050.54 519.763 1058.52L514.914 1121.52C514.346 1130.26 521.286 1137.67 530.049 1137.67H591.951C600.714 1137.67 607.653 1130.26 607.085 1121.52L602.237 1058.52C601.719 1050.54 595.097 1044.33 587.102 1044.33ZM587.102 1051.92H534.897C530.9 1051.92 527.589 1055.02 527.33 1059.01L522.482 1122.01C522.198 1126.38 525.667 1130.08 530.049 1130.08H591.951C596.332 1130.08 599.802 1126.38 599.518 1122.01L594.67 1059.01C594.411 1055.02 591.1 1051.92 587.102 1051.92Z" fill="black"/>
</g>
</g>
</g>
<g id="Black-S">
<g id="Outline / Shopping bag Outline_19">
<g id="Shape_19">
<path d="M2919.21 642.876C2919.21 641.381 2917.99 640.168 2916.5 640.168C2915 640.168 2913.79 641.381 2913.79 642.876V651.104L2913.79 651.11L2913.79 651.117L2913.79 651.135L2913.79 651.184C2913.79 651.222 2913.79 651.273 2913.79 651.335C2913.8 651.458 2913.81 651.627 2913.82 651.834C2913.85 652.248 2913.91 652.822 2914.02 653.503C2914.25 654.852 2914.7 656.692 2915.64 658.565C2916.58 660.449 2918.04 662.415 2920.27 663.905C2922.52 665.405 2925.4 666.313 2929 666.313C2932.6 666.313 2935.48 665.405 2937.73 663.905C2939.96 662.415 2941.42 660.449 2942.36 658.565C2943.3 656.692 2943.75 654.852 2943.97 653.503C2944.09 652.822 2944.15 652.248 2944.18 651.834C2944.19 651.627 2944.2 651.458 2944.2 651.335C2944.2 651.273 2944.21 651.222 2944.21 651.184L2944.21 651.135L2944.21 651.117L2944.21 651.11L2944.21 651.104V642.876C2944.21 641.381 2942.99 640.168 2941.5 640.168C2940 640.168 2938.79 641.381 2938.79 642.876L2938.79 651.096L2938.79 651.154C2938.79 651.214 2938.78 651.314 2938.77 651.448C2938.75 651.718 2938.71 652.121 2938.63 652.612C2938.47 653.607 2938.14 654.891 2937.51 656.143C2936.89 657.384 2936 658.543 2934.72 659.398C2933.46 660.241 2931.65 660.896 2929 660.896C2926.35 660.896 2924.54 660.241 2923.27 659.398C2921.99 658.543 2921.1 657.384 2920.48 656.143C2919.86 654.891 2919.53 653.607 2919.37 652.612C2919.28 652.121 2919.24 651.718 2919.22 651.448C2919.21 651.314 2919.21 651.214 2919.21 651.154L2919.21 651.095V642.876Z" fill="black"/>
<path fill-rule="evenodd" clip-rule="evenodd" d="M2947.64 627.668H2910.35C2904.64 627.668 2899.91 632.101 2899.54 637.799L2896.08 682.799C2895.67 689.045 2900.63 694.335 2906.89 694.335H2951.11C2957.37 694.335 2962.32 689.045 2961.92 682.799L2958.45 637.799C2958.08 632.101 2953.35 627.668 2947.64 627.668ZM2947.64 633.085H2910.35C2907.5 633.085 2905.13 635.301 2904.95 638.15L2901.49 683.15C2901.28 686.273 2903.76 688.918 2906.89 688.918H2951.11C2954.24 688.918 2956.71 686.273 2956.51 683.15L2953.05 638.15C2952.86 635.301 2950.5 633.085 2947.64 633.085Z" fill="black"/>
</g>
</g>
</g>
<g id="Heavy-S">
<g id="Outline / Shopping bag Outline_20">
<g id="Shape_20">
<path d="M2623.21 642.876C2623.21 641.381 2621.99 640.168 2620.5 640.168C2619 640.168 2617.79 641.381 2617.79 642.876V651.104L2617.79 651.11L2617.79 651.117L2617.79 651.135L2617.79 651.184C2617.79 651.222 2617.79 651.273 2617.79 651.335C2617.8 651.458 2617.81 651.627 2617.82 651.834C2617.85 652.248 2617.91 652.822 2618.02 653.503C2618.25 654.852 2618.7 656.692 2619.64 658.565C2620.58 660.449 2622.04 662.415 2624.27 663.905C2626.52 665.405 2629.4 666.313 2633 666.313C2636.6 666.313 2639.48 665.405 2641.73 663.905C2643.96 662.415 2645.42 660.449 2646.36 658.565C2647.3 656.692 2647.75 654.852 2647.97 653.503C2648.09 652.822 2648.15 652.248 2648.18 651.834C2648.19 651.627 2648.2 651.458 2648.2 651.335C2648.2 651.273 2648.21 651.222 2648.21 651.184L2648.21 651.135L2648.21 651.117L2648.21 651.11L2648.21 651.104V642.876C2648.21 641.381 2646.99 640.168 2645.5 640.168C2644 640.168 2642.79 641.381 2642.79 642.876L2642.79 651.096L2642.79 651.154C2642.79 651.214 2642.78 651.314 2642.77 651.448C2642.75 651.718 2642.71 652.121 2642.63 652.612C2642.47 653.607 2642.14 654.891 2641.51 656.143C2640.89 657.384 2640 658.543 2638.72 659.398C2637.46 660.241 2635.65 660.896 2633 660.896C2630.35 660.896 2628.54 660.241 2627.27 659.398C2625.99 658.543 2625.1 657.384 2624.48 656.143C2623.86 654.891 2623.53 653.607 2623.37 652.612C2623.28 652.121 2623.24 651.718 2623.22 651.448C2623.21 651.314 2623.21 651.214 2623.21 651.154L2623.21 651.095V642.876Z" fill="black"/>
<path fill-rule="evenodd" clip-rule="evenodd" d="M2651.64 627.668H2614.35C2608.64 627.668 2603.91 632.101 2603.54 637.799L2600.08 682.799C2599.67 689.045 2604.63 694.335 2610.89 694.335H2655.11C2661.37 694.335 2666.32 689.045 2665.92 682.799L2662.45 637.799C2662.08 632.101 2657.35 627.668 2651.64 627.668ZM2651.64 633.085H2614.35C2611.5 633.085 2609.13 635.301 2608.95 638.15L2605.49 683.15C2605.28 686.273 2607.76 688.918 2610.89 688.918H2655.11C2658.24 688.918 2660.71 686.273 2660.51 683.15L2657.05 638.15C2656.86 635.301 2654.5 633.085 2651.64 633.085Z" fill="black"/>
</g>
</g>
</g>
<g id="Bold-S">
<g id="Outline / Shopping bag Outline_21">
<g id="Shape_21">
<path d="M2327.21 642.876C2327.21 641.381 2325.99 640.168 2324.5 640.168C2323 640.168 2321.79 641.381 2321.79 642.876V651.104L2321.79 651.11L2321.79 651.117L2321.79 651.135L2321.79 651.184C2321.79 651.222 2321.79 651.273 2321.79 651.335C2321.8 651.458 2321.81 651.627 2321.82 651.834C2321.85 652.248 2321.91 652.822 2322.02 653.503C2322.25 654.852 2322.7 656.692 2323.64 658.565C2324.58 660.449 2326.04 662.415 2328.27 663.905C2330.52 665.405 2333.4 666.313 2337 666.313C2340.6 666.313 2343.48 665.405 2345.73 663.905C2347.96 662.415 2349.42 660.449 2350.36 658.565C2351.3 656.692 2351.75 654.852 2351.97 653.503C2352.09 652.822 2352.15 652.248 2352.18 651.834C2352.19 651.627 2352.2 651.458 2352.2 651.335C2352.2 651.273 2352.21 651.222 2352.21 651.184L2352.21 651.135L2352.21 651.117L2352.21 651.11L2352.21 651.104V642.876C2352.21 641.381 2350.99 640.168 2349.5 640.168C2348 640.168 2346.79 641.381 2346.79 642.876L2346.79 651.096L2346.79 651.154C2346.79 651.214 2346.78 651.314 2346.77 651.448C2346.75 651.718 2346.71 652.121 2346.63 652.612C2346.47 653.607 2346.14 654.891 2345.51 656.143C2344.89 657.384 2344 658.543 2342.72 659.398C2341.46 660.241 2339.65 660.896 2337 660.896C2334.35 660.896 2332.54 660.241 2331.27 659.398C2329.99 658.543 2329.1 657.384 2328.48 656.143C2327.86 654.891 2327.53 653.607 2327.37 652.612C2327.28 652.121 2327.24 651.718 2327.22 651.448C2327.21 651.314 2327.21 651.214 2327.21 651.154L2327.21 651.095V642.876Z" fill="black"/>
<path fill-rule="evenodd" clip-rule="evenodd" d="M2355.64 627.668H2318.35C2312.64 627.668 2307.91 632.101 2307.54 637.799L2304.08 682.799C2303.67 689.045 2308.63 694.335 2314.89 694.335H2359.11C2365.37 694.335 2370.32 689.045 2369.92 682.799L2366.45 637.799C2366.08 632.101 2361.35 627.668 2355.64 627.668ZM2355.64 633.085H2318.35C2315.5 633.085 2313.13 635.301 2312.95 638.15L2309.49 683.15C2309.28 686.273 2311.76 688.918 2314.89 688.918H2359.11C2362.24 688.918 2364.71 686.273 2364.51 683.15L2361.05 638.15C2360.86 635.301 2358.5 633.085 2355.64 633.085Z" fill="black"/>
</g>
</g>
</g>
<g id="Semibold-S">
<g id="Outline / Shopping bag Outline_22">
<g id="Shape_22">
<path d="M2031.21 642.876C2031.21 641.381 2029.99 640.168 2028.5 640.168C2027 640.168 2025.79 641.381 2025.79 642.876V651.104L2025.79 651.11L2025.79 651.117L2025.79 651.135L2025.79 651.184C2025.79 651.222 2025.79 651.273 2025.79 651.335C2025.8 651.458 2025.81 651.627 2025.82 651.834C2025.85 652.248 2025.91 652.822 2026.02 653.503C2026.25 654.852 2026.7 656.692 2027.64 658.565C2028.58 660.449 2030.04 662.415 2032.27 663.905C2034.52 665.405 2037.4 666.313 2041 666.313C2044.6 666.313 2047.48 665.405 2049.73 663.905C2051.96 662.415 2053.42 660.449 2054.36 658.565C2055.3 656.692 2055.75 654.852 2055.97 653.503C2056.09 652.822 2056.15 652.248 2056.18 651.834C2056.19 651.627 2056.2 651.458 2056.2 651.335C2056.2 651.273 2056.21 651.222 2056.21 651.184L2056.21 651.135L2056.21 651.117L2056.21 651.11L2056.21 651.104V642.876C2056.21 641.381 2054.99 640.168 2053.5 640.168C2052 640.168 2050.79 641.381 2050.79 642.876L2050.79 651.096L2050.79 651.154C2050.79 651.214 2050.78 651.314 2050.77 651.448C2050.75 651.718 2050.71 652.121 2050.63 652.612C2050.47 653.607 2050.14 654.891 2049.51 656.143C2048.89 657.384 2048 658.543 2046.72 659.398C2045.46 660.241 2043.65 660.896 2041 660.896C2038.35 660.896 2036.54 660.241 2035.27 659.398C2033.99 658.543 2033.1 657.384 2032.48 656.143C2031.86 654.891 2031.53 653.607 2031.37 652.612C2031.28 652.121 2031.24 651.718 2031.22 651.448C2031.21 651.314 2031.21 651.214 2031.21 651.154L2031.21 651.095V642.876Z" fill="black"/>
<path fill-rule="evenodd" clip-rule="evenodd" d="M2059.64 627.668H2022.35C2016.64 627.668 2011.91 632.101 2011.54 637.799L2008.08 682.799C2007.67 689.045 2012.63 694.335 2018.89 694.335H2063.11C2069.37 694.335 2074.32 689.045 2073.92 682.799L2070.45 637.799C2070.08 632.101 2065.35 627.668 2059.64 627.668ZM2059.64 633.085H2022.35C2019.5 633.085 2017.13 635.301 2016.95 638.15L2013.49 683.15C2013.28 686.273 2015.76 688.918 2018.89 688.918H2063.11C2066.24 688.918 2068.71 686.273 2068.51 683.15L2065.05 638.15C2064.86 635.301 2062.5 633.085 2059.64 633.085Z" fill="black"/>
</g>
</g>
</g>
<g id="Medium-S">
<g id="Outline / Shopping bag Outline_23">
<g id="Shape_23">
<path d="M1735.21 642.876C1735.21 641.381 1734 640.168 1732.5 640.168C1731 640.168 1729.79 641.381 1729.79 642.876V651.104L1729.79 651.11L1729.79 651.117L1729.79 651.135L1729.79 651.184C1729.79 651.222 1729.79 651.273 1729.8 651.335C1729.8 651.458 1729.81 651.627 1729.82 651.834C1729.85 652.248 1729.91 652.822 1730.02 653.503C1730.25 654.852 1730.7 656.692 1731.64 658.565C1732.58 660.449 1734.04 662.415 1736.27 663.905C1738.52 665.405 1741.4 666.313 1745 666.313C1748.6 666.313 1751.48 665.405 1753.73 663.905C1755.96 662.415 1757.42 660.449 1758.36 658.565C1759.3 656.692 1759.75 654.852 1759.98 653.503C1760.09 652.822 1760.15 652.248 1760.18 651.834C1760.19 651.627 1760.2 651.458 1760.2 651.335C1760.21 651.273 1760.21 651.222 1760.21 651.184L1760.21 651.135L1760.21 651.117L1760.21 651.11L1760.21 651.104V642.876C1760.21 641.381 1759 640.168 1757.5 640.168C1756 640.168 1754.79 641.381 1754.79 642.876L1754.79 651.096L1754.79 651.154C1754.79 651.214 1754.78 651.314 1754.77 651.448C1754.75 651.718 1754.71 652.121 1754.63 652.612C1754.47 653.607 1754.14 654.891 1753.52 656.143C1752.89 657.384 1752.01 658.543 1750.72 659.398C1749.46 660.241 1747.65 660.896 1745 660.896C1742.35 660.896 1740.54 660.241 1739.28 659.398C1737.99 658.543 1737.11 657.384 1736.48 656.143C1735.86 654.891 1735.53 653.607 1735.37 652.612C1735.28 652.121 1735.25 651.718 1735.23 651.448C1735.22 651.314 1735.21 651.214 1735.21 651.154L1735.21 651.095V642.876Z" fill="black"/>
<path fill-rule="evenodd" clip-rule="evenodd" d="M1763.64 627.668H1726.36C1720.64 627.668 1715.91 632.101 1715.54 637.799L1712.08 682.799C1711.68 689.045 1716.63 694.335 1722.89 694.335H1767.11C1773.37 694.335 1778.32 689.045 1777.92 682.799L1774.46 637.799C1774.09 632.101 1769.36 627.668 1763.64 627.668ZM1763.64 633.085H1726.36C1723.5 633.085 1721.14 635.301 1720.95 638.15L1717.49 683.15C1717.28 686.273 1719.76 688.918 1722.89 688.918H1767.11C1770.24 688.918 1772.72 686.273 1772.51 683.15L1769.05 638.15C1768.86 635.301 1766.5 633.085 1763.64 633.085Z" fill="black"/>
</g>
</g>
</g>
<g id="Regular-S">
<g id="Outline / Shopping bag Outline_24">
<g id="Shape_24">
<path d="M1439.21 642.876C1439.21 641.381 1438 640.168 1436.5 640.168C1435 640.168 1433.79 641.381 1433.79 642.876V651.104L1433.79 651.11L1433.79 651.117L1433.79 651.135L1433.79 651.184C1433.79 651.222 1433.79 651.273 1433.8 651.335C1433.8 651.458 1433.81 651.627 1433.82 651.834C1433.85 652.248 1433.91 652.822 1434.02 653.503C1434.25 654.852 1434.7 656.692 1435.64 658.565C1436.58 660.449 1438.04 662.415 1440.27 663.905C1442.52 665.405 1445.4 666.313 1449 666.313C1452.6 666.313 1455.48 665.405 1457.73 663.905C1459.96 662.415 1461.42 660.449 1462.36 658.565C1463.3 656.692 1463.75 654.852 1463.98 653.503C1464.09 652.822 1464.15 652.248 1464.18 651.834C1464.19 651.627 1464.2 651.458 1464.2 651.335C1464.21 651.273 1464.21 651.222 1464.21 651.184L1464.21 651.135L1464.21 651.117L1464.21 651.11L1464.21 651.104V642.876C1464.21 641.381 1463 640.168 1461.5 640.168C1460 640.168 1458.79 641.381 1458.79 642.876L1458.79 651.096L1458.79 651.154C1458.79 651.214 1458.78 651.314 1458.77 651.448C1458.75 651.718 1458.71 652.121 1458.63 652.612C1458.47 653.607 1458.14 654.891 1457.52 656.143C1456.89 657.384 1456.01 658.543 1454.72 659.398C1453.46 660.241 1451.65 660.896 1449 660.896C1446.35 660.896 1444.54 660.241 1443.28 659.398C1441.99 658.543 1441.11 657.384 1440.48 656.143C1439.86 654.891 1439.53 653.607 1439.37 652.612C1439.28 652.121 1439.25 651.718 1439.23 651.448C1439.22 651.314 1439.21 651.214 1439.21 651.154L1439.21 651.095V642.876Z" fill="black"/>
<path fill-rule="evenodd" clip-rule="evenodd" d="M1467.64 627.668H1430.36C1424.64 627.668 1419.91 632.101 1419.54 637.799L1416.08 682.799C1415.68 689.045 1420.63 694.335 1426.89 694.335H1471.11C1477.37 694.335 1482.32 689.045 1481.92 682.799L1478.46 637.799C1478.09 632.101 1473.36 627.668 1467.64 627.668ZM1467.64 633.085H1430.36C1427.5 633.085 1425.14 635.301 1424.95 638.15L1421.49 683.15C1421.28 686.273 1423.76 688.918 1426.89 688.918H1471.11C1474.24 688.918 1476.72 686.273 1476.51 683.15L1473.05 638.15C1472.86 635.301 1470.5 633.085 1467.64 633.085Z" fill="black"/>
</g>
</g>
</g>
<g id="Light-S">
<g id="Outline / Shopping bag Outline_25">
<g id="Shape_25">
<path d="M1143.21 642.876C1143.21 641.381 1142 640.168 1140.5 640.168C1139 640.168 1137.79 641.381 1137.79 642.876V651.104L1137.79 651.11L1137.79 651.117L1137.79 651.135L1137.79 651.184C1137.79 651.222 1137.79 651.273 1137.8 651.335C1137.8 651.458 1137.81 651.627 1137.82 651.834C1137.85 652.248 1137.91 652.822 1138.02 653.503C1138.25 654.852 1138.7 656.692 1139.64 658.565C1140.58 660.449 1142.04 662.415 1144.27 663.905C1146.52 665.405 1149.4 666.313 1153 666.313C1156.6 666.313 1159.48 665.405 1161.73 663.905C1163.96 662.415 1165.42 660.449 1166.36 658.565C1167.3 656.692 1167.75 654.852 1167.98 653.503C1168.09 652.822 1168.15 652.248 1168.18 651.834C1168.19 651.627 1168.2 651.458 1168.2 651.335C1168.21 651.273 1168.21 651.222 1168.21 651.184L1168.21 651.135L1168.21 651.117L1168.21 651.11L1168.21 651.104V642.876C1168.21 641.381 1167 640.168 1165.5 640.168C1164 640.168 1162.79 641.381 1162.79 642.876L1162.79 651.096L1162.79 651.154C1162.79 651.214 1162.78 651.314 1162.77 651.448C1162.75 651.718 1162.71 652.121 1162.63 652.612C1162.47 653.607 1162.14 654.891 1161.52 656.143C1160.89 657.384 1160.01 658.543 1158.72 659.398C1157.46 660.241 1155.65 660.896 1153 660.896C1150.35 660.896 1148.54 660.241 1147.28 659.398C1145.99 658.543 1145.11 657.384 1144.48 656.143C1143.86 654.891 1143.53 653.607 1143.37 652.612C1143.28 652.121 1143.25 651.718 1143.23 651.448C1143.22 651.314 1143.21 651.214 1143.21 651.154L1143.21 651.095V642.876Z" fill="black"/>
<path fill-rule="evenodd" clip-rule="evenodd" d="M1171.64 627.668H1134.36C1128.64 627.668 1123.91 632.101 1123.54 637.799L1120.08 682.799C1119.68 689.045 1124.63 694.335 1130.89 694.335H1175.11C1181.37 694.335 1186.32 689.045 1185.92 682.799L1182.46 637.799C1182.09 632.101 1177.36 627.668 1171.64 627.668ZM1171.64 633.085H1134.36C1131.5 633.085 1129.14 635.301 1128.95 638.15L1125.49 683.15C1125.28 686.273 1127.76 688.918 1130.89 688.918H1175.11C1178.24 688.918 1180.72 686.273 1180.51 683.15L1177.05 638.15C1176.86 635.301 1174.5 633.085 1171.64 633.085Z" fill="black"/>
</g>
</g>
</g>
<g id="Thin-S">
<g id="Outline / Shopping bag Outline_26">
<g id="Shape_26">
<path d="M847.208 642.876C847.208 641.381 845.996 640.168 844.5 640.168C843.004 640.168 841.792 641.381 841.792 642.876V651.104L841.792 651.11L841.792 651.117L841.792 651.135L841.792 651.184C841.793 651.222 841.794 651.273 841.796 651.335C841.8 651.458 841.808 651.627 841.823 651.834C841.852 652.248 841.91 652.822 842.024 653.503C842.249 654.852 842.703 656.692 843.64 658.565C844.582 660.449 846.037 662.415 848.271 663.905C850.522 665.405 853.401 666.313 857 666.313C860.599 666.313 863.478 665.405 865.729 663.905C867.963 662.415 869.418 660.449 870.36 658.565C871.296 656.692 871.751 654.852 871.976 653.503C872.09 652.822 872.147 652.248 872.177 651.834C872.192 651.627 872.2 651.458 872.204 651.335C872.206 651.273 872.207 651.222 872.208 651.184L872.208 651.135L872.208 651.117L872.208 651.11L872.208 651.104V642.876C872.208 641.381 870.996 640.168 869.5 640.168C868.004 640.168 866.792 641.381 866.792 642.876L866.792 651.096L866.79 651.154C866.788 651.214 866.784 651.314 866.774 651.448C866.755 651.718 866.715 652.121 866.633 652.612C866.467 653.607 866.141 654.891 865.515 656.143C864.894 657.384 864.006 658.543 862.724 659.398C861.459 660.241 859.651 660.896 857 660.896C854.349 660.896 852.541 660.241 851.276 659.398C849.994 658.543 849.105 657.384 848.485 656.143C847.859 654.891 847.532 653.607 847.367 652.612C847.285 652.121 847.245 651.718 847.226 651.448C847.216 651.314 847.212 651.214 847.21 651.154L847.208 651.095V642.876Z" fill="black"/>
<path fill-rule="evenodd" clip-rule="evenodd" d="M875.644 627.668H838.355C832.645 627.668 827.915 632.101 827.545 637.799L824.082 682.799C823.676 689.045 828.633 694.335 834.892 694.335H879.108C885.367 694.335 890.324 689.045 889.918 682.799L886.455 637.799C886.085 632.101 881.355 627.668 875.644 627.668ZM875.644 633.085H838.355C835.5 633.085 833.135 635.301 832.95 638.15L829.487 683.15C829.284 686.273 831.762 688.918 834.892 688.918H879.108C882.237 688.918 884.716 686.273 884.513 683.15L881.05 638.15C880.865 635.301 878.5 633.085 875.644 633.085Z" fill="black"/>
</g>
</g>
</g>
<g id="Ultralight-S">
<g id="Outline / Shopping bag Outline_27">
<g id="Shape_27">
<path d="M551.208 642.876C551.208 641.381 549.996 640.168 548.5 640.168C547.004 640.168 545.792 641.381 545.792 642.876V651.104L545.792 651.11L545.792 651.117L545.792 651.135L545.792 651.184C545.793 651.222 545.794 651.273 545.796 651.335C545.8 651.458 545.808 651.627 545.823 651.834C545.852 652.248 545.91 652.822 546.024 653.503C546.249 654.852 546.703 656.692 547.64 658.565C548.582 660.449 550.037 662.415 552.271 663.905C554.522 665.405 557.401 666.313 561 666.313C564.599 666.313 567.478 665.405 569.729 663.905C571.963 662.415 573.418 660.449 574.36 658.565C575.296 656.692 575.751 654.852 575.976 653.503C576.09 652.822 576.147 652.248 576.177 651.834C576.192 651.627 576.2 651.458 576.204 651.335C576.206 651.273 576.207 651.222 576.208 651.184L576.208 651.135L576.208 651.117L576.208 651.11L576.208 651.104V642.876C576.208 641.381 574.996 640.168 573.5 640.168C572.004 640.168 570.792 641.381 570.792 642.876L570.792 651.096L570.79 651.154C570.788 651.214 570.784 651.314 570.774 651.448C570.755 651.718 570.715 652.121 570.633 652.612C570.467 653.607 570.141 654.891 569.515 656.143C568.894 657.384 568.006 658.543 566.724 659.398C565.459 660.241 563.651 660.896 561 660.896C558.349 660.896 556.541 660.241 555.276 659.398C553.994 658.543 553.105 657.384 552.485 656.143C551.859 654.891 551.532 653.607 551.367 652.612C551.285 652.121 551.245 651.718 551.226 651.448C551.216 651.314 551.212 651.214 551.21 651.154L551.208 651.095V642.876Z" fill="black"/>
<path fill-rule="evenodd" clip-rule="evenodd" d="M579.644 627.668H542.355C536.645 627.668 531.915 632.101 531.545 637.799L528.082 682.799C527.676 689.045 532.633 694.335 538.892 694.335H583.108C589.367 694.335 594.324 689.045 593.918 682.799L590.455 637.799C590.085 632.101 585.355 627.668 579.644 627.668ZM579.644 633.085H542.355C539.5 633.085 537.135 635.301 536.95 638.15L533.487 683.15C533.284 686.273 535.762 688.918 538.892 688.918H583.108C586.237 688.918 588.716 686.273 588.513 683.15L585.05 638.15C584.865 635.301 582.5 633.085 579.644 633.085Z" fill="black"/>
</g>
</g>
</g>
</g>
</g>
<defs>
<clipPath id="clip0_0_1">
<rect width="3300" height="2200" fill="white"/>
</clipPath>
</defs>
</svg>
