<svg xmlns="http://www.w3.org/2000/svg" width="3300" height="2200" fill="none"><path fill="#E5E5E5" d="M0 0h3300v2200H0z"/><g id="Finance / Outline / Debit Card" clip-path="url(#clip0_0_1)"><g id="Notes"><path id="artboard" fill="#fff" d="M3300 0H0v2200h3300V0Z"/><path id="Vector" stroke="#000" stroke-width=".5" d="M263 292h2773"/><text xml:space="preserve" id="Weight/Scale Variations" fill="#000" font-family="Roboto" font-size="12" letter-spacing="0em" style="white-space:pre"><tspan x="263" y="321.102">Weight/Scale Variations</tspan></text><text xml:space="preserve" id="Ultralight" fill="#000" font-family="Roboto" font-size="12" letter-spacing="0em" style="white-space:pre"><tspan x="535.211" y="321.102">Ultralight</tspan></text><text xml:space="preserve" id="Thin" fill="#000" font-family="Roboto" font-size="12" letter-spacing="0em" style="white-space:pre"><tspan x="844.422" y="321.102">Thin</tspan></text><text xml:space="preserve" id="Light" fill="#000" font-family="Roboto" font-size="12" letter-spacing="0em" style="white-space:pre"><tspan x="1139.63" y="321.102">Light</tspan></text><text xml:space="preserve" id="Regular" fill="#000" font-family="Roboto" font-size="12" letter-spacing="0em" style="white-space:pre"><tspan x="1429.34" y="321.102">Regular</tspan></text><text xml:space="preserve" id="Medium" fill="#000" font-family="Roboto" font-size="12" letter-spacing="0em" style="white-space:pre"><tspan x="1724.56" y="321.102">Medium</tspan></text><text xml:space="preserve" id="Semibold" fill="#000" font-family="Roboto" font-size="12" letter-spacing="0em" style="white-space:pre"><tspan x="2017.77" y="321.102">Semibold</tspan></text><text xml:space="preserve" id="Bold" fill="#000" font-family="Roboto" font-size="12" letter-spacing="0em" style="white-space:pre"><tspan x="2327.48" y="321.102">Bold</tspan></text><text xml:space="preserve" id="Heavy" fill="#000" font-family="Roboto" font-size="12" letter-spacing="0em" style="white-space:pre"><tspan x="2620.19" y="321.102">Heavy</tspan></text><text xml:space="preserve" id="Black" fill="#000" font-family="Roboto" font-size="12" letter-spacing="0em" style="white-space:pre"><tspan x="2918.4" y="321.102">Black</tspan></text><path id="Vector_2" stroke="#000" stroke-width=".5" d="M263 1903h2773"/><g id="Group"><path id="Vector_3" fill="#000" d="M272.248 1933.83c4.307 0 7.891-3.57 7.891-7.88 0-4.31-3.594-7.88-7.901-7.88-4.297 0-7.871 3.57-7.871 7.88 0 4.31 3.584 7.88 7.881 7.88Zm0-1.48a6.364 6.364 0 0 1-6.377-6.4c0-3.56 2.822-6.4 6.367-6.4a6.382 6.382 0 0 1 6.406 6.4 6.368 6.368 0 0 1-6.396 6.4Zm-.019-2.78c.468 0 .742-.31.742-.83v-2.06h2.226c.498 0 .84-.25.84-.72 0-.48-.322-.74-.84-.74h-2.226v-2.23c0-.52-.274-.84-.742-.84-.469 0-.723.34-.723.84v2.23h-2.207c-.518 0-.85.26-.85.74 0 .47.352.72.85.72h2.207v2.06c0 .5.254.83.723.83Z"/></g><g id="Group_2"><path id="Vector_4" fill="#000" d="M293.215 1935.91c5.449 0 9.961-4.51 9.961-9.96 0-5.44-4.522-9.96-9.971-9.96-5.439 0-9.951 4.52-9.951 9.96 0 5.45 4.521 9.96 9.961 9.96Zm0-1.66a8.26 8.26 0 0 1-8.291-8.3c0-4.6 3.672-8.3 8.281-8.3a8.29 8.29 0 0 1 8.311 8.3 8.263 8.263 0 0 1-8.301 8.3Zm-.02-3.66c.518 0 .83-.36.83-.93v-2.89h3.057c.547 0 .928-.28.928-.8 0-.53-.362-.83-.928-.83h-3.057v-3.07c0-.57-.312-.93-.83-.93-.517 0-.81.38-.81.93v3.07h-3.047c-.567 0-.938.3-.938.83 0 .52.391.8.938.8h3.047v2.89c0 .55.293.93.81.93Z"/></g><g id="Group_3"><path id="Vector_5" fill="#000" d="M319.895 1938.67c6.962 0 12.724-5.75 12.724-12.71 0-6.96-5.771-12.72-12.734-12.72-6.953 0-12.705 5.76-12.705 12.72 0 6.96 5.761 12.71 12.715 12.71Zm0-1.81a10.874 10.874 0 0 1-10.889-10.9c0-6.04 4.844-10.9 10.879-10.9 6.045 0 10.898 4.86 10.908 10.9a10.87 10.87 0 0 1-10.898 10.9Zm-.02-4.92c.566 0 .918-.4.918-1v-4.07h4.238c.586 0 1.006-.33 1.006-.89 0-.58-.39-.92-1.006-.92h-4.238v-4.25c0-.61-.352-1-.918-1-.566 0-.889.41-.889 1v4.25h-4.228c-.615 0-1.026.34-1.026.92 0 .56.43.89 1.026.89h4.228v4.07c0 .59.323 1 .889 1Z"/></g><text xml:space="preserve" id="Design Variations" fill="#000" font-family="Roboto" font-size="12" letter-spacing="0em" style="white-space:pre"><tspan x="263" y="1952.1">Design Variations</tspan></text><text xml:space="preserve" id="Symbols are supported in up to nine weights and three scales." fill="#000" font-family="Roboto" font-size="12" letter-spacing="0em" style="white-space:pre"><tspan x="263" y="1970.1">Symbols are supported in up to nine weights and three scales.</tspan></text><text xml:space="preserve" id="For optimal layout with text and other symbols, vertically align" fill="#000" font-family="Roboto" font-size="12" letter-spacing="0em" style="white-space:pre"><tspan x="263" y="1988.1">For optimal layout with text and other symbols, vertically align</tspan></text><text xml:space="preserve" id="symbols with the adjacent text." fill="#000" font-family="Roboto" font-size="12" letter-spacing="0em" style="white-space:pre"><tspan x="263" y="2006.1">symbols with the adjacent text.</tspan></text><path id="Vector_6" fill="#00AEEF" d="M779 1919h-3v14h3v-14Z" opacity=".4"/><g id="Group_4"><path id="Vector_7" fill="#000" d="M789.527 1933h1.846l-5.195-14.09h-1.739l-5.195 14.09h1.846l1.416-4.03h5.605l1.416 4.03Zm-4.248-11.95h.059l2.256 6.42h-4.571l2.256-6.42Z"/></g><path id="Vector_8" fill="#00AEEF" d="M794.617 1919h-3v14h3v-14Z" opacity=".4"/><text xml:space="preserve" id="Margins" fill="#000" font-family="Roboto" font-size="12" letter-spacing="0em" style="white-space:pre"><tspan x="776" y="1952.1">Margins</tspan></text><text xml:space="preserve" id="Leading and trailing margins on the left and right side of each symbol" fill="#000" font-family="Roboto" font-size="12" letter-spacing="0em" style="white-space:pre"><tspan x="776" y="1970.1">Leading and trailing margins on the left and right side of each symbol</tspan></text><text xml:space="preserve" id="can be adjusted by modifying the width of the blue rectangles." fill="#000" font-family="Roboto" font-size="12" letter-spacing="0em" style="white-space:pre"><tspan x="776" y="1988.1">can be adjusted by modifying the width of the blue rectangles.</tspan></text><text xml:space="preserve" id="Modifications are automatically applied proportionally to all" fill="#000" font-family="Roboto" font-size="12" letter-spacing="0em" style="white-space:pre"><tspan x="776" y="2006.1">Modifications are automatically applied proportionally to all</tspan></text><text xml:space="preserve" id="scales and weights." fill="#000" font-family="Roboto" font-size="12" letter-spacing="0em" style="white-space:pre"><tspan x="776" y="2024.1">scales and weights.</tspan></text><g id="Group_5"><path id="Vector_9" fill="#000" d="m1291.83 1936.12 1.54 1.54c.85.83 1.82.76 2.69-.2l10.21-11.12c.43.29.83.28 1.29.19l1.05-.22.69.69-.05.52c-.06.53.1.95.6 1.45l.81.81c.51.51 1.16.53 1.64.06l3.25-3.26c.48-.47.46-1.13-.05-1.64l-.82-.82c-.49-.5-.91-.67-1.44-.59l-.53.06-.65-.67.28-1.14c.15-.57 0-1.04-.63-1.64l-2.41-2.39c-3.54-3.53-8.07-3.42-11.19-.29-.42.43-.47 1.02-.19 1.45.23.37.71.59 1.35.43 1.52-.38 3.03-.27 4.51.74l-.62 1.58c-.23.59-.22 1.07.02 1.51l-11.16 10.27c-.94.87-1.05 1.82-.19 2.68Zm7.84-18.27c2.67-1.99 5.98-1.68 8.38.74l2.63 2.6c.23.24.26.42.2.72l-.38 1.56 1.58 1.57.96-.09c.29-.03.37-.01.6.22l.62.62-2.75 2.75-.63-.62c-.22-.22-.24-.32-.21-.6l.09-.96-1.57-1.56-1.62.31c-.28.06-.43.06-.66-.19l-2.18-2.17c-.22-.24-.25-.38-.12-.7l.94-2.27c-1.6-1.54-3.71-2.39-5.75-1.73-.09.03-.16.01-.19-.03-.02-.05-.02-.1.06-.17Zm-6.57 17.56c-.49-.5-.31-.8.02-1.1l10.96-10.12 1.23 1.23-10.16 10.93c-.3.33-.68.43-1.08.03l-.97-.97Z"/></g><text xml:space="preserve" id="Exporting" fill="#000" font-family="Roboto" font-size="12" letter-spacing="0em" style="white-space:pre"><tspan x="1289" y="1952.1">Exporting</tspan></text><text xml:space="preserve" id="Symbols should be outlined when exporting to ensure the" fill="#000" font-family="Roboto" font-size="12" letter-spacing="0em" style="white-space:pre"><tspan x="1289" y="1970.1">Symbols should be outlined when exporting to ensure the</tspan></text><text xml:space="preserve" id="design is preserved when submitting to Xcode." fill="#000" font-family="Roboto" font-size="12" letter-spacing="0em" style="white-space:pre"><tspan x="1289" y="1988.1">design is preserved when submitting to Xcode.</tspan></text><text xml:space="preserve" id="template-version" fill="#000" font-family="Roboto" font-size="12" letter-spacing="0em" style="white-space:pre"><tspan x="2958" y="1932.1">Template v.1.0</tspan></text><text xml:space="preserve" id="Generated from pencil.circle" fill="#000" font-family="Roboto" font-size="12" letter-spacing="0em" style="white-space:pre"><tspan x="2885" y="1950.1">Generated from pencil.circle</tspan></text><text xml:space="preserve" id="Typeset at 100 points" fill="#000" font-family="Roboto" font-size="12" letter-spacing="0em" style="white-space:pre"><tspan x="2921" y="1968.1">Typeset at 100 points</tspan></text><text xml:space="preserve" id="Small" fill="#000" font-family="Roboto" font-size="12" letter-spacing="0em" style="white-space:pre"><tspan x="263" y="725.102">Small</tspan></text><text xml:space="preserve" id="Medium_2" fill="#000" font-family="Roboto" font-size="12" letter-spacing="0em" style="white-space:pre"><tspan x="263" y="1155.1">Medium</tspan></text><text xml:space="preserve" id="Large" fill="#000" font-family="Roboto" font-size="12" letter-spacing="0em" style="white-space:pre"><tspan x="263" y="1585.1">Large</tspan></text></g><g id="Guides"><g id="H-reference"><path id="Vector_10" fill="#27AAE1" d="M393.932 696h2.734l-27.1-70.459h-2.49L339.977 696h2.685l9.278-24.463h32.763L393.932 696Zm-25.733-67.09h.244l15.381 40.381h-31.006l15.381-40.381Z"/></g><path id="Baseline-S" stroke="#27AAE1" stroke-width=".577" d="M263 696h2773"/><path id="Capline-S" stroke="#27AAE1" stroke-width=".577" d="M263 626h2773"/><g id="H-reference_2"><path id="Vector_11" fill="#27AAE1" d="M393.932 1126h2.734l-27.1-70.46h-2.49L339.977 1126h2.685l9.278-24.46h32.763l9.229 24.46Zm-25.733-67.09h.244l15.381 40.38h-31.006l15.381-40.38Z"/></g><path id="Baseline-M" stroke="#27AAE1" stroke-width=".577" d="M263 1126h2773"/><path id="Capline-M" stroke="#27AAE1" stroke-width=".577" d="M263 1056h2773"/><g id="H-reference_3"><path id="Vector_12" fill="#27AAE1" d="M393.932 1556h2.734l-27.1-70.46h-2.49L339.977 1556h2.685l9.278-24.46h32.763l9.229 24.46Zm-25.733-67.09h.244l15.381 40.38h-31.006l15.381-40.38Z"/></g><g id="Group 1" stroke="#27AAE1" stroke-width=".577"><path id="Baseline-L" d="M263 1556h2773"/><path id="Capline-L" d="M263 1486h2773"/></g><path id="left-margin" fill="#00AEEF" d="M1396.04 1030.79h-8.74v119.34h8.74v-119.34Z" opacity=".4"/><path id="right-margin" fill="#00AEEF" d="M1510.39 1030.79h-8.74v119.34h8.74v-119.34Z" opacity=".4"/></g><g id="Symbols"><g id="Black-L"><g id="Outline / Debit Card Outline"><g id="Shape" fill="#000" fill-rule="evenodd" clip-rule="evenodd"><path d="M2939.07 1554.01c.92.92 2.16 1.43 3.45 1.43h14.17c7.62 0 13.8-6.18 13.8-13.8 0-7.62-6.18-13.8-13.8-13.8h-9.29v-5.89h13.75c2.69 0 4.88-2.19 4.88-4.88s-2.19-4.87-4.88-4.87h-18.63a4.87 4.87 0 0 0-4.87 4.87v33.49c0 1.3.51 2.54 1.42 3.45Zm8.33-16.42h9.29c2.24 0 4.05 1.81 4.05 4.05 0 2.24-1.81 4.05-4.05 4.05h-9.29v-8.1ZM2900.98 1512.26c-2.69 0-4.88 2.18-4.88 4.87v9.1c0 4.98-1.14 9.9-3.33 14.37l-2.43 4.94-.06.15h-2.21c-2.7 0-4.88 2.18-4.88 4.87 0 2.7 2.18 4.88 4.88 4.88h39.58a4.88 4.88 0 0 0 4.88-4.88c0-2.69-2.19-4.87-4.88-4.87h-2.93v-28.56c0-2.69-2.19-4.87-4.88-4.87h-18.86Zm13.99 33.43v-23.68h-9.12v4.22c0 6.47-1.48 12.86-4.33 18.67l-.39.79h13.84Z"/><path d="M2884 1573.5c-12.43 0-22.5-10.07-22.5-22.5v-60c0-12.43 10.07-22.5 22.5-22.5h90c.78 0 1.54.04 2.3.12 11.35 1.15 20.2 10.73 20.2 22.38v60c0 12.43-10.07 22.5-22.5 22.5h-90Zm102.75-82.5c0-7.04-5.71-12.75-12.75-12.75h-90c-7.04 0-12.75 5.71-12.75 12.75v2.4c.46-.15.95-.23 1.46-.23h114.04V1491Zm-115.5 60v-48.3c.46.14.95.22 1.46.22h114.04V1551c0 7.04-5.71 12.75-12.75 12.75h-90c-7.04 0-12.75-5.71-12.75-12.75Z"/></g></g></g><g id="Heavy-L"><g id="Outline / Debit Card Outline_2"><g id="Shape_2" fill="#000" fill-rule="evenodd" clip-rule="evenodd"><path d="M2643.07 1554.01c.92.92 2.16 1.43 3.45 1.43h14.17c7.62 0 13.8-6.18 13.8-13.8 0-7.62-6.18-13.8-13.8-13.8h-9.29v-5.89h13.75c2.69 0 4.88-2.19 4.88-4.88s-2.19-4.87-4.88-4.87h-18.63a4.87 4.87 0 0 0-4.87 4.87v33.49c0 1.3.51 2.54 1.42 3.45Zm8.33-16.42h9.29c2.24 0 4.05 1.81 4.05 4.05 0 2.24-1.81 4.05-4.05 4.05h-9.29v-8.1ZM2604.98 1512.26c-2.69 0-4.88 2.18-4.88 4.87v9.1c0 4.98-1.14 9.9-3.33 14.37l-2.43 4.94-.06.15h-2.21c-2.7 0-4.88 2.18-4.88 4.87 0 2.7 2.18 4.88 4.88 4.88h39.58a4.88 4.88 0 0 0 4.88-4.88c0-2.69-2.19-4.87-4.88-4.87h-2.93v-28.56c0-2.69-2.19-4.87-4.88-4.87h-18.86Zm13.99 33.43v-23.68h-9.12v4.22c0 6.47-1.48 12.86-4.33 18.67l-.39.79h13.84Z"/><path d="M2588 1573.5c-12.43 0-22.5-10.07-22.5-22.5v-60c0-12.43 10.07-22.5 22.5-22.5h90c.78 0 1.54.04 2.3.12 11.35 1.15 20.2 10.73 20.2 22.38v60c0 12.43-10.07 22.5-22.5 22.5h-90Zm102.75-82.5c0-7.04-5.71-12.75-12.75-12.75h-90c-7.04 0-12.75 5.71-12.75 12.75v2.4c.46-.15.95-.23 1.46-.23h114.04V1491Zm-115.5 60v-48.3c.46.14.95.22 1.46.22h114.04V1551c0 7.04-5.71 12.75-12.75 12.75h-90c-7.04 0-12.75-5.71-12.75-12.75Z"/></g></g></g><g id="Bold-L"><g id="Outline / Debit Card Outline_3"><g id="Shape_3" fill="#000" fill-rule="evenodd" clip-rule="evenodd"><path d="M2347.07 1554.01c.92.92 2.16 1.43 3.45 1.43h14.17c7.62 0 13.8-6.18 13.8-13.8 0-7.62-6.18-13.8-13.8-13.8h-9.29v-5.89h13.75c2.69 0 4.88-2.19 4.88-4.88s-2.19-4.87-4.88-4.87h-18.63a4.87 4.87 0 0 0-4.87 4.87v33.49c0 1.3.51 2.54 1.42 3.45Zm8.33-16.42h9.29c2.24 0 4.05 1.81 4.05 4.05 0 2.24-1.81 4.05-4.05 4.05h-9.29v-8.1ZM2308.98 1512.26c-2.69 0-4.88 2.18-4.88 4.87v9.1c0 4.98-1.14 9.9-3.33 14.37l-2.43 4.94-.06.15h-2.21c-2.7 0-4.88 2.18-4.88 4.87 0 2.7 2.18 4.88 4.88 4.88h39.58a4.88 4.88 0 0 0 4.88-4.88c0-2.69-2.19-4.87-4.88-4.87h-2.93v-28.56c0-2.69-2.19-4.87-4.88-4.87h-18.86Zm13.99 33.43v-23.68h-9.12v4.22c0 6.47-1.48 12.86-4.33 18.67l-.39.79h13.84Z"/><path d="M2292 1573.5c-12.43 0-22.5-10.07-22.5-22.5v-60c0-12.43 10.07-22.5 22.5-22.5h90c.78 0 1.54.04 2.3.12 11.35 1.15 20.2 10.73 20.2 22.38v60c0 12.43-10.07 22.5-22.5 22.5h-90Zm102.75-82.5c0-7.04-5.71-12.75-12.75-12.75h-90c-7.04 0-12.75 5.71-12.75 12.75v2.4c.46-.15.95-.23 1.46-.23h114.04V1491Zm-115.5 60v-48.3c.46.14.95.22 1.46.22h114.04V1551c0 7.04-5.71 12.75-12.75 12.75h-90c-7.04 0-12.75-5.71-12.75-12.75Z"/></g></g></g><g id="Semibold-L"><g id="Outline / Debit Card Outline_4"><g id="Shape_4" fill="#000" fill-rule="evenodd" clip-rule="evenodd"><path d="M2051.07 1554.01c.92.92 2.16 1.43 3.45 1.43h14.17c7.62 0 13.8-6.18 13.8-13.8 0-7.62-6.18-13.8-13.8-13.8h-9.29v-5.89h13.75c2.69 0 4.88-2.19 4.88-4.88s-2.19-4.87-4.88-4.87h-18.63a4.87 4.87 0 0 0-4.87 4.87v33.49c0 1.3.51 2.54 1.42 3.45Zm8.33-16.42h9.29c2.24 0 4.05 1.81 4.05 4.05 0 2.24-1.81 4.05-4.05 4.05h-9.29v-8.1ZM2012.98 1512.26c-2.69 0-4.88 2.18-4.88 4.87v9.1c0 4.98-1.14 9.9-3.33 14.37l-2.43 4.94-.06.15h-2.21c-2.7 0-4.88 2.18-4.88 4.87 0 2.7 2.18 4.88 4.88 4.88h39.58a4.88 4.88 0 0 0 4.88-4.88c0-2.69-2.19-4.87-4.88-4.87h-2.93v-28.56c0-2.69-2.19-4.87-4.88-4.87h-18.86Zm13.99 33.43v-23.68h-9.12v4.22c0 6.47-1.48 12.86-4.33 18.67l-.39.79h13.84Z"/><path d="M1996 1573.5c-12.43 0-22.5-10.07-22.5-22.5v-60c0-12.43 10.07-22.5 22.5-22.5h90c.78 0 1.54.04 2.3.12 11.35 1.15 20.2 10.73 20.2 22.38v60c0 12.43-10.07 22.5-22.5 22.5h-90Zm102.75-82.5c0-7.04-5.71-12.75-12.75-12.75h-90c-7.04 0-12.75 5.71-12.75 12.75v2.4c.46-.15.95-.23 1.46-.23h114.04V1491Zm-115.5 60v-48.3c.46.14.95.22 1.46.22h114.04V1551c0 7.04-5.71 12.75-12.75 12.75h-90c-7.04 0-12.75-5.71-12.75-12.75Z"/></g></g></g><g id="Medium-L"><g id="Outline / Debit Card Outline_5"><g id="Shape_5" fill="#000" fill-rule="evenodd" clip-rule="evenodd"><path d="M1755.07 1554.01c.92.92 2.16 1.43 3.45 1.43h14.17c7.62 0 13.8-6.18 13.8-13.8 0-7.62-6.18-13.8-13.8-13.8h-9.29v-5.89h13.75c2.69 0 4.88-2.19 4.88-4.88s-2.19-4.87-4.88-4.87h-18.63a4.87 4.87 0 0 0-4.87 4.87v33.49c0 1.3.51 2.54 1.42 3.45Zm8.33-16.42h9.29c2.24 0 4.05 1.81 4.05 4.05 0 2.24-1.81 4.05-4.05 4.05h-9.29v-8.1ZM1716.98 1512.26c-2.69 0-4.88 2.18-4.88 4.87v9.1c0 4.98-1.14 9.9-3.33 14.37l-2.43 4.94-.06.15h-2.21c-2.7 0-4.88 2.18-4.88 4.87 0 2.7 2.18 4.88 4.88 4.88h39.58a4.88 4.88 0 0 0 4.88-4.88c0-2.69-2.19-4.87-4.88-4.87h-2.93v-28.56c0-2.69-2.19-4.87-4.88-4.87h-18.86Zm13.99 33.43v-23.68h-9.12v4.22c0 6.47-1.48 12.86-4.33 18.67l-.39.79h13.84Z"/><path d="M1700 1573.5c-12.43 0-22.5-10.07-22.5-22.5v-60c0-12.43 10.07-22.5 22.5-22.5h90c.78 0 1.54.04 2.3.12 11.35 1.15 20.2 10.73 20.2 22.38v60c0 12.43-10.07 22.5-22.5 22.5h-90Zm102.75-82.5c0-7.04-5.71-12.75-12.75-12.75h-90c-7.04 0-12.75 5.71-12.75 12.75v2.4c.46-.15.95-.23 1.46-.23h114.04V1491Zm-115.5 60v-48.3c.46.14.95.22 1.46.22h114.04V1551c0 7.04-5.71 12.75-12.75 12.75h-90c-7.04 0-12.75-5.71-12.75-12.75Z"/></g></g></g><g id="Regular-L"><g id="Outline / Debit Card Outline_6"><g id="Shape_6" fill="#000" fill-rule="evenodd" clip-rule="evenodd"><path d="M1459.07 1554.01c.92.92 2.16 1.43 3.45 1.43h14.17c7.62 0 13.8-6.18 13.8-13.8 0-7.62-6.18-13.8-13.8-13.8h-9.29v-5.89h13.75c2.69 0 4.88-2.19 4.88-4.88s-2.19-4.87-4.88-4.87h-18.63a4.87 4.87 0 0 0-4.87 4.87v33.49c0 1.3.51 2.54 1.42 3.45Zm8.33-16.42h9.29c2.24 0 4.05 1.81 4.05 4.05 0 2.24-1.81 4.05-4.05 4.05h-9.29v-8.1ZM1420.98 1512.26c-2.69 0-4.88 2.18-4.88 4.87v9.1c0 4.98-1.14 9.9-3.33 14.37l-2.43 4.94-.06.15h-2.21c-2.7 0-4.88 2.18-4.88 4.87 0 2.7 2.18 4.88 4.88 4.88h39.58a4.88 4.88 0 0 0 4.88-4.88c0-2.69-2.19-4.87-4.88-4.87h-2.93v-28.56c0-2.69-2.19-4.87-4.88-4.87h-18.86Zm13.99 33.43v-23.68h-9.12v4.22c0 6.47-1.48 12.86-4.33 18.67l-.39.79h13.84Z"/><path d="M1404 1573.5c-12.43 0-22.5-10.07-22.5-22.5v-60c0-12.43 10.07-22.5 22.5-22.5h90c.78 0 1.54.04 2.3.12 11.35 1.15 20.2 10.73 20.2 22.38v60c0 12.43-10.07 22.5-22.5 22.5h-90Zm102.75-82.5c0-7.04-5.71-12.75-12.75-12.75h-90c-7.04 0-12.75 5.71-12.75 12.75v2.4c.46-.15.95-.23 1.46-.23h114.04V1491Zm-115.5 60v-48.3c.46.14.95.22 1.46.22h114.04V1551c0 7.04-5.71 12.75-12.75 12.75h-90c-7.04 0-12.75-5.71-12.75-12.75Z"/></g></g></g><g id="Light-L"><g id="Outline / Debit Card Outline_7"><g id="Shape_7" fill="#000" fill-rule="evenodd" clip-rule="evenodd"><path d="M1163.07 1554.01c.92.92 2.16 1.43 3.45 1.43h14.17c7.62 0 13.8-6.18 13.8-13.8 0-7.62-6.18-13.8-13.8-13.8h-9.29v-5.89h13.75c2.69 0 4.88-2.19 4.88-4.88s-2.19-4.87-4.88-4.87h-18.63a4.87 4.87 0 0 0-4.87 4.87v33.49c0 1.3.51 2.54 1.42 3.45Zm8.33-16.42h9.29c2.24 0 4.05 1.81 4.05 4.05 0 2.24-1.81 4.05-4.05 4.05h-9.29v-8.1ZM1124.98 1512.26c-2.69 0-4.88 2.18-4.88 4.87v9.1c0 4.98-1.14 9.9-3.33 14.37l-2.43 4.94-.06.15h-2.21c-2.7 0-4.88 2.18-4.88 4.87 0 2.7 2.18 4.88 4.88 4.88h39.58a4.88 4.88 0 0 0 4.88-4.88c0-2.69-2.19-4.87-4.88-4.87h-2.93v-28.56c0-2.69-2.19-4.87-4.88-4.87h-18.86Zm13.99 33.43v-23.68h-9.12v4.22c0 6.47-1.48 12.86-4.33 18.67l-.39.79h13.84Z"/><path d="M1108 1573.5c-12.43 0-22.5-10.07-22.5-22.5v-60c0-12.43 10.07-22.5 22.5-22.5h90c.78 0 1.54.04 2.3.12 11.35 1.15 20.2 10.73 20.2 22.38v60c0 12.43-10.07 22.5-22.5 22.5h-90Zm102.75-82.5c0-7.04-5.71-12.75-12.75-12.75h-90c-7.04 0-12.75 5.71-12.75 12.75v2.4c.46-.15.95-.23 1.46-.23h114.04V1491Zm-115.5 60v-48.3c.46.14.95.22 1.46.22h114.04V1551c0 7.04-5.71 12.75-12.75 12.75h-90c-7.04 0-12.75-5.71-12.75-12.75Z"/></g></g></g><g id="Thin-L"><g id="Outline / Debit Card Outline_8"><g id="Shape_8" fill="#000" fill-rule="evenodd" clip-rule="evenodd"><path d="M867.073 1554.01a4.852 4.852 0 0 0 3.447 1.43h14.172c7.621 0 13.799-6.18 13.799-13.8 0-7.62-6.178-13.8-13.799-13.8h-9.297v-5.89h13.756a4.881 4.881 0 0 0 4.875-4.88c0-2.69-2.183-4.87-4.875-4.87H870.52a4.873 4.873 0 0 0-4.875 4.87v33.49c0 1.3.514 2.54 1.428 3.45Zm8.322-16.42h9.297a4.048 4.048 0 0 1 4.049 4.05c0 2.24-1.813 4.05-4.049 4.05h-9.297v-8.1ZM828.979 1512.26a4.873 4.873 0 0 0-4.875 4.87v9.1c0 4.98-1.141 9.9-3.336 14.37l-2.424 4.94-.068.15h-2.21a4.873 4.873 0 0 0-4.875 4.87c0 2.7 2.183 4.88 4.875 4.88h39.584a4.874 4.874 0 0 0 4.875-4.88c0-2.69-2.182-4.87-4.875-4.87h-2.934v-28.56c0-2.69-2.183-4.87-4.875-4.87h-18.862Zm13.987 33.43v-23.68h-9.112v4.22c0 6.47-1.482 12.86-4.333 18.67l-.388.79h13.833Z"/><path d="M812 1573.5c-12.426 0-22.5-10.07-22.5-22.5v-60c0-12.43 10.074-22.5 22.5-22.5h90c.777 0 1.544.04 2.3.12 11.346 1.15 20.2 10.73 20.2 22.38v60c0 12.43-10.074 22.5-22.5 22.5h-90Zm102.75-82.5c0-7.04-5.708-12.75-12.75-12.75h-90c-7.042 0-12.75 5.71-12.75 12.75v2.4c.462-.15.954-.23 1.465-.23H914.75V1491Zm-115.5 60v-48.3c.462.14.954.22 1.465.22H914.75V1551c0 7.04-5.708 12.75-12.75 12.75h-90c-7.042 0-12.75-5.71-12.75-12.75Z"/></g></g></g><g id="Ultralight-L"><g id="Outline / Debit Card Outline_9"><g id="Shape_9" fill="#000" fill-rule="evenodd" clip-rule="evenodd"><path d="M571.073 1554.01a4.852 4.852 0 0 0 3.447 1.43h14.172c7.621 0 13.799-6.18 13.799-13.8 0-7.62-6.178-13.8-13.799-13.8h-9.297v-5.89h13.756a4.881 4.881 0 0 0 4.875-4.88c0-2.69-2.183-4.87-4.875-4.87H574.52a4.873 4.873 0 0 0-4.875 4.87v33.49c0 1.3.514 2.54 1.428 3.45Zm8.322-16.42h9.297a4.048 4.048 0 0 1 4.049 4.05c0 2.24-1.813 4.05-4.049 4.05h-9.297v-8.1ZM532.979 1512.26a4.873 4.873 0 0 0-4.875 4.87v9.1c0 4.98-1.141 9.9-3.336 14.37l-2.424 4.94-.068.15h-2.21a4.873 4.873 0 0 0-4.875 4.87c0 2.7 2.183 4.88 4.875 4.88h39.584a4.874 4.874 0 0 0 4.875-4.88c0-2.69-2.182-4.87-4.875-4.87h-2.934v-28.56c0-2.69-2.183-4.87-4.875-4.87h-18.862Zm13.987 33.43v-23.68h-9.112v4.22c0 6.47-1.482 12.86-4.333 18.67l-.388.79h13.833Z"/><path d="M516 1573.5c-12.426 0-22.5-10.07-22.5-22.5v-60c0-12.43 10.074-22.5 22.5-22.5h90c.777 0 1.544.04 2.3.12 11.346 1.15 20.2 10.73 20.2 22.38v60c0 12.43-10.074 22.5-22.5 22.5h-90Zm102.75-82.5c0-7.04-5.708-12.75-12.75-12.75h-90c-7.042 0-12.75 5.71-12.75 12.75v2.4c.462-.15.954-.23 1.465-.23H618.75V1491Zm-115.5 60v-48.3c.462.14.954.22 1.465.22H618.75V1551c0 7.04-5.708 12.75-12.75 12.75h-90c-7.042 0-12.75-5.71-12.75-12.75Z"/></g></g></g><g id="Black-M"><g id="Outline / Debit Card Outline_10"><g id="Shape_10" fill="#000" fill-rule="evenodd" clip-rule="evenodd"><path d="M2936.83 1116.68c.72.71 1.68 1.11 2.69 1.11h11.02c5.93 0 10.73-4.81 10.73-10.74 0-5.92-4.8-10.73-10.73-10.73h-7.23v-4.58h10.7a3.796 3.796 0 0 0 0-7.59h-14.49c-2.1 0-3.8 1.7-3.8 3.8v26.04c0 1.01.4 1.97 1.11 2.69Zm6.48-12.78h7.23a3.15 3.15 0 1 1 0 6.3h-7.23v-6.3ZM2907.21 1084.2c-2.1 0-3.8 1.7-3.8 3.79v7.08c0 3.87-.88 7.7-2.59 11.18l-1.89 3.84c-.01.04-.03.07-.05.11h-1.72a3.796 3.796 0 0 0 0 7.59h30.79a3.796 3.796 0 0 0 0-7.59h-2.28v-22.21c0-2.09-1.7-3.79-3.79-3.79h-14.67Zm10.87 26v-18.42H2911v3.29c0 5.03-1.16 10-3.37 14.52l-.3.61h10.75Z"/><path d="M2894 1131.83c-9.66 0-17.5-7.83-17.5-17.5v-46.66c0-9.67 7.84-17.5 17.5-17.5h70c.6 0 1.2.03 1.79.09 8.82.89 15.71 8.35 15.71 17.41v46.66c0 9.67-7.84 17.5-17.5 17.5h-70Zm79.92-64.16c0-5.48-4.44-9.92-9.92-9.92h-70c-5.48 0-9.92 4.44-9.92 9.92v1.86c.36-.11.75-.17 1.14-.17h88.7v-1.69Zm-89.84 46.66v-37.56c.36.11.75.17 1.14.17h88.7v37.39c0 5.48-4.44 9.92-9.92 9.92h-70c-5.48 0-9.92-4.44-9.92-9.92Z"/></g></g></g><g id="Heavy-M"><g id="Outline / Debit Card Outline_11"><g id="Shape_11" fill="#000" fill-rule="evenodd" clip-rule="evenodd"><path d="M2640.83 1116.68c.72.71 1.68 1.11 2.69 1.11h11.02c5.93 0 10.73-4.81 10.73-10.74 0-5.92-4.8-10.73-10.73-10.73h-7.23v-4.58h10.7a3.796 3.796 0 0 0 0-7.59h-14.49c-2.1 0-3.8 1.7-3.8 3.8v26.04c0 1.01.4 1.97 1.11 2.69Zm6.48-12.78h7.23a3.15 3.15 0 1 1 0 6.3h-7.23v-6.3ZM2611.21 1084.2c-2.1 0-3.8 1.7-3.8 3.79v7.08c0 3.87-.88 7.7-2.59 11.18l-1.89 3.84c-.01.04-.03.07-.05.11h-1.72a3.796 3.796 0 0 0 0 7.59h30.79a3.796 3.796 0 0 0 0-7.59h-2.28v-22.21c0-2.09-1.7-3.79-3.79-3.79h-14.67Zm10.87 26v-18.42H2615v3.29c0 5.03-1.16 10-3.37 14.52l-.3.61h10.75Z"/><path d="M2598 1131.83c-9.66 0-17.5-7.83-17.5-17.5v-46.66c0-9.67 7.84-17.5 17.5-17.5h70c.6 0 1.2.03 1.79.09 8.82.89 15.71 8.35 15.71 17.41v46.66c0 9.67-7.84 17.5-17.5 17.5h-70Zm79.92-64.16c0-5.48-4.44-9.92-9.92-9.92h-70c-5.48 0-9.92 4.44-9.92 9.92v1.86c.36-.11.75-.17 1.14-.17h88.7v-1.69Zm-89.84 46.66v-37.56c.36.11.75.17 1.14.17h88.7v37.39c0 5.48-4.44 9.92-9.92 9.92h-70c-5.48 0-9.92-4.44-9.92-9.92Z"/></g></g></g><g id="Bold-M"><g id="Outline / Debit Card Outline_12"><g id="Shape_12" fill="#000" fill-rule="evenodd" clip-rule="evenodd"><path d="M2344.83 1116.68c.72.71 1.68 1.11 2.69 1.11h11.02c5.93 0 10.73-4.81 10.73-10.74 0-5.92-4.8-10.73-10.73-10.73h-7.23v-4.58h10.7a3.796 3.796 0 0 0 0-7.59h-14.49c-2.1 0-3.8 1.7-3.8 3.8v26.04c0 1.01.4 1.97 1.11 2.69Zm6.48-12.78h7.23a3.15 3.15 0 1 1 0 6.3h-7.23v-6.3ZM2315.21 1084.2c-2.1 0-3.8 1.7-3.8 3.79v7.08c0 3.87-.88 7.7-2.59 11.18l-1.89 3.84c-.01.04-.03.07-.05.11h-1.72a3.796 3.796 0 0 0 0 7.59h30.79a3.796 3.796 0 0 0 0-7.59h-2.28v-22.21c0-2.09-1.7-3.79-3.79-3.79h-14.67Zm10.87 26v-18.42H2319v3.29c0 5.03-1.16 10-3.37 14.52l-.3.61h10.75Z"/><path d="M2302 1131.83c-9.66 0-17.5-7.83-17.5-17.5v-46.66c0-9.67 7.84-17.5 17.5-17.5h70c.6 0 1.2.03 1.79.09 8.82.89 15.71 8.35 15.71 17.41v46.66c0 9.67-7.84 17.5-17.5 17.5h-70Zm79.92-64.16c0-5.48-4.44-9.92-9.92-9.92h-70c-5.48 0-9.92 4.44-9.92 9.92v1.86c.36-.11.75-.17 1.14-.17h88.7v-1.69Zm-89.84 46.66v-37.56c.36.11.75.17 1.14.17h88.7v37.39c0 5.48-4.44 9.92-9.92 9.92h-70c-5.48 0-9.92-4.44-9.92-9.92Z"/></g></g></g><g id="Semibold-M"><g id="Outline / Debit Card Outline_13"><g id="Shape_13" fill="#000" fill-rule="evenodd" clip-rule="evenodd"><path d="M2048.83 1116.68c.72.71 1.68 1.11 2.69 1.11h11.02c5.93 0 10.73-4.81 10.73-10.74 0-5.92-4.8-10.73-10.73-10.73h-7.23v-4.58h10.7a3.796 3.796 0 0 0 0-7.59h-14.49c-2.1 0-3.8 1.7-3.8 3.8v26.04c0 1.01.4 1.97 1.11 2.69Zm6.48-12.78h7.23a3.15 3.15 0 1 1 0 6.3h-7.23v-6.3ZM2019.21 1084.2c-2.1 0-3.8 1.7-3.8 3.79v7.08c0 3.87-.88 7.7-2.59 11.18l-1.89 3.84c-.01.04-.03.07-.05.11h-1.72a3.796 3.796 0 0 0 0 7.59h30.79a3.796 3.796 0 0 0 0-7.59h-2.28v-22.21c0-2.09-1.7-3.79-3.79-3.79h-14.67Zm10.87 26v-18.42H2023v3.29c0 5.03-1.16 10-3.37 14.52l-.3.61h10.75Z"/><path d="M2006 1131.83c-9.66 0-17.5-7.83-17.5-17.5v-46.66c0-9.67 7.84-17.5 17.5-17.5h70c.6 0 1.2.03 1.79.09 8.82.89 15.71 8.35 15.71 17.41v46.66c0 9.67-7.84 17.5-17.5 17.5h-70Zm79.92-64.16c0-5.48-4.44-9.92-9.92-9.92h-70c-5.48 0-9.92 4.44-9.92 9.92v1.86c.36-.11.75-.17 1.14-.17h88.7v-1.69Zm-89.84 46.66v-37.56c.36.11.75.17 1.14.17h88.7v37.39c0 5.48-4.44 9.92-9.92 9.92h-70c-5.48 0-9.92-4.44-9.92-9.92Z"/></g></g></g><g id="Medium-M"><g id="Outline / Debit Card Outline_14"><g id="Shape_14" fill="#000" fill-rule="evenodd" clip-rule="evenodd"><path d="M1752.83 1116.68c.72.71 1.68 1.11 2.69 1.11h11.02c5.93 0 10.73-4.81 10.73-10.74 0-5.92-4.8-10.73-10.73-10.73h-7.23v-4.58h10.7a3.796 3.796 0 0 0 0-7.59h-14.49c-2.1 0-3.8 1.7-3.8 3.8v26.04c0 1.01.4 1.97 1.11 2.69Zm6.48-12.78h7.23a3.15 3.15 0 1 1 0 6.3h-7.23v-6.3ZM1723.21 1084.2c-2.1 0-3.8 1.7-3.8 3.79v7.08c0 3.87-.88 7.7-2.59 11.18l-1.89 3.84c-.01.04-.03.07-.05.11h-1.72a3.796 3.796 0 0 0 0 7.59h30.79a3.796 3.796 0 0 0 0-7.59h-2.28v-22.21c0-2.09-1.7-3.79-3.79-3.79h-14.67Zm10.87 26v-18.42H1727v3.29c0 5.03-1.16 10-3.37 14.52l-.3.61h10.75Z"/><path d="M1710 1131.83c-9.66 0-17.5-7.83-17.5-17.5v-46.66c0-9.67 7.84-17.5 17.5-17.5h70c.6 0 1.2.03 1.79.09 8.82.89 15.71 8.35 15.71 17.41v46.66c0 9.67-7.84 17.5-17.5 17.5h-70Zm79.92-64.16c0-5.48-4.44-9.92-9.92-9.92h-70c-5.48 0-9.92 4.44-9.92 9.92v1.86c.36-.11.75-.17 1.14-.17h88.7v-1.69Zm-89.84 46.66v-37.56c.36.11.75.17 1.14.17h88.7v37.39c0 5.48-4.44 9.92-9.92 9.92h-70c-5.48 0-9.92-4.44-9.92-9.92Z"/></g></g></g><g id="Regular-M"><g id="Outline / Debit Card Outline_15"><g id="Shape_15" fill="#000" fill-rule="evenodd" clip-rule="evenodd"><path d="M1456.83 1116.68c.72.71 1.68 1.11 2.69 1.11h11.02c5.93 0 10.73-4.81 10.73-10.74 0-5.92-4.8-10.73-10.73-10.73h-7.23v-4.58h10.7a3.796 3.796 0 0 0 0-7.59h-14.49c-2.1 0-3.8 1.7-3.8 3.8v26.04c0 1.01.4 1.97 1.11 2.69Zm6.48-12.78h7.23a3.15 3.15 0 1 1 0 6.3h-7.23v-6.3ZM1427.21 1084.2c-2.1 0-3.8 1.7-3.8 3.79v7.08c0 3.87-.88 7.7-2.59 11.18l-1.89 3.84c-.01.04-.03.07-.05.11h-1.72a3.796 3.796 0 0 0 0 7.59h30.79a3.796 3.796 0 0 0 0-7.59h-2.28v-22.21c0-2.09-1.7-3.79-3.79-3.79h-14.67Zm10.87 26v-18.42H1431v3.29c0 5.03-1.16 10-3.37 14.52l-.3.61h10.75Z"/><path d="M1414 1131.83c-9.66 0-17.5-7.83-17.5-17.5v-46.66c0-9.67 7.84-17.5 17.5-17.5h70c.6 0 1.2.03 1.79.09 8.82.89 15.71 8.35 15.71 17.41v46.66c0 9.67-7.84 17.5-17.5 17.5h-70Zm79.92-64.16c0-5.48-4.44-9.92-9.92-9.92h-70c-5.48 0-9.92 4.44-9.92 9.92v1.86c.36-.11.75-.17 1.14-.17h88.7v-1.69Zm-89.84 46.66v-37.56c.36.11.75.17 1.14.17h88.7v37.39c0 5.48-4.44 9.92-9.92 9.92h-70c-5.48 0-9.92-4.44-9.92-9.92Z"/></g></g></g><g id="Light-M"><g id="Outline / Debit Card Outline_16"><g id="Shape_16" fill="#000" fill-rule="evenodd" clip-rule="evenodd"><path d="M1160.83 1116.68c.72.71 1.68 1.11 2.69 1.11h11.02c5.93 0 10.73-4.81 10.73-10.74 0-5.92-4.8-10.73-10.73-10.73h-7.23v-4.58h10.7a3.796 3.796 0 0 0 0-7.59h-14.49c-2.1 0-3.8 1.7-3.8 3.8v26.04c0 1.01.4 1.97 1.11 2.69Zm6.48-12.78h7.23a3.15 3.15 0 1 1 0 6.3h-7.23v-6.3ZM1131.21 1084.2c-2.1 0-3.8 1.7-3.8 3.79v7.08c0 3.87-.88 7.7-2.59 11.18l-1.89 3.84c-.01.04-.03.07-.05.11h-1.72a3.796 3.796 0 0 0 0 7.59h30.79a3.796 3.796 0 0 0 0-7.59h-2.28v-22.21c0-2.09-1.7-3.79-3.79-3.79h-14.67Zm10.87 26v-18.42H1135v3.29c0 5.03-1.16 10-3.37 14.52l-.3.61h10.75Z"/><path d="M1118 1131.83c-9.66 0-17.5-7.83-17.5-17.5v-46.66c0-9.67 7.84-17.5 17.5-17.5h70c.6 0 1.2.03 1.79.09 8.82.89 15.71 8.35 15.71 17.41v46.66c0 9.67-7.84 17.5-17.5 17.5h-70Zm79.92-64.16c0-5.48-4.44-9.92-9.92-9.92h-70c-5.48 0-9.92 4.44-9.92 9.92v1.86c.36-.11.75-.17 1.14-.17h88.7v-1.69Zm-89.84 46.66v-37.56c.36.11.75.17 1.14.17h88.7v37.39c0 5.48-4.44 9.92-9.92 9.92h-70c-5.48 0-9.92-4.44-9.92-9.92Z"/></g></g></g><g id="Thin-M"><g id="Outline / Debit Card Outline_17"><g id="Shape_17" fill="#000" fill-rule="evenodd" clip-rule="evenodd"><path d="M864.835 1116.68a3.795 3.795 0 0 0 2.681 1.11h11.022c5.928 0 10.733-4.81 10.733-10.74 0-5.92-4.805-10.73-10.733-10.73h-7.231v-4.58h10.699a3.795 3.795 0 0 0 0-7.59h-14.49a3.795 3.795 0 0 0-3.792 3.8v26.04c0 1.01.399 1.97 1.111 2.69Zm6.472-12.78h7.231a3.15 3.15 0 1 1 0 6.3h-7.231v-6.3ZM835.206 1084.2a3.793 3.793 0 0 0-3.792 3.79v7.08c0 3.87-.887 7.7-2.594 11.18l-1.885 3.84c-.019.04-.037.07-.054.11h-1.718a3.795 3.795 0 0 0 0 7.59h30.787a3.795 3.795 0 0 0 0-7.59h-2.282v-22.21c0-2.09-1.698-3.79-3.792-3.79h-14.67Zm10.878 26v-18.42h-7.086v3.29c0 5.03-1.153 10-3.37 14.52l-.302.61h10.758Z"/><path d="M822 1131.83c-9.665 0-17.5-7.83-17.5-17.5v-46.66c0-9.67 7.835-17.5 17.5-17.5h70c.604 0 1.201.03 1.789.09 8.825.89 15.711 8.35 15.711 17.41v46.66c0 9.67-7.835 17.5-17.5 17.5h-70Zm79.917-64.16c0-5.48-4.44-9.92-9.917-9.92h-70c-5.477 0-9.917 4.44-9.917 9.92v1.86c.36-.11.743-.17 1.14-.17h88.694v-1.69Zm-89.834 46.66v-37.56c.36.11.743.17 1.14.17h88.694v37.39c0 5.48-4.44 9.92-9.917 9.92h-70c-5.477 0-9.917-4.44-9.917-9.92Z"/></g></g></g><g id="Ultralight-M"><g id="Outline / Debit Card Outline_18"><g id="Shape_18" fill="#000" fill-rule="evenodd" clip-rule="evenodd"><path d="M568.835 1116.68a3.795 3.795 0 0 0 2.681 1.11h11.022c5.928 0 10.733-4.81 10.733-10.74 0-5.92-4.805-10.73-10.733-10.73h-7.231v-4.58h10.699a3.795 3.795 0 0 0 0-7.59h-14.49a3.795 3.795 0 0 0-3.792 3.8v26.04c0 1.01.399 1.97 1.111 2.69Zm6.472-12.78h7.231a3.15 3.15 0 1 1 0 6.3h-7.231v-6.3ZM539.206 1084.2a3.793 3.793 0 0 0-3.792 3.79v7.08c0 3.87-.887 7.7-2.594 11.18l-1.885 3.84c-.019.04-.037.07-.054.11h-1.718a3.795 3.795 0 0 0 0 7.59h30.787a3.795 3.795 0 0 0 0-7.59h-2.282v-22.21c0-2.09-1.698-3.79-3.792-3.79h-14.67Zm10.878 26v-18.42h-7.086v3.29c0 5.03-1.153 10-3.37 14.52l-.302.61h10.758Z"/><path d="M526 1131.83c-9.665 0-17.5-7.83-17.5-17.5v-46.66c0-9.67 7.835-17.5 17.5-17.5h70c.604 0 1.201.03 1.789.09 8.825.89 15.711 8.35 15.711 17.41v46.66c0 9.67-7.835 17.5-17.5 17.5h-70Zm79.917-64.16c0-5.48-4.44-9.92-9.917-9.92h-70c-5.477 0-9.917 4.44-9.917 9.92v1.86c.36-.11.743-.17 1.14-.17h88.694v-1.69Zm-89.834 46.66v-37.56c.36.11.743.17 1.14.17h88.694v37.39c0 5.48-4.44 9.92-9.917 9.92h-70c-5.477 0-9.917-4.44-9.917-9.92Z"/></g></g></g><g id="Black-S"><g id="Outline / Debit Card Outline_19"><g id="Shape_19" fill="#000" fill-rule="evenodd" clip-rule="evenodd"><path d="M2934.6 679.339c.5.508 1.19.794 1.91.794h7.87c4.24 0 7.67-3.433 7.67-7.667a7.665 7.665 0 0 0-7.67-7.666h-5.16v-3.274h7.64a2.707 2.707 0 1 0 0-5.417h-10.35a2.714 2.714 0 0 0-2.71 2.709v18.606c0 .719.29 1.408.8 1.915Zm4.62-9.122h5.16c1.25 0 2.25 1.007 2.25 2.249 0 1.243-1 2.25-2.25 2.25h-5.16v-4.499ZM2913.43 656.141a2.714 2.714 0 0 0-2.71 2.709v5.056c0 2.768-.63 5.499-1.85 7.984l-1.35 2.745-.03.081h-1.23c-1.5 0-2.71 1.212-2.71 2.708a2.707 2.707 0 0 0 2.71 2.708h21.99c1.5 0 2.71-1.212 2.71-2.708a2.707 2.707 0 0 0-2.71-2.708h-1.63V658.85a2.707 2.707 0 0 0-2.71-2.709h-10.48Zm7.77 18.575v-13.158h-5.06v2.348c0 3.595-.82 7.143-2.41 10.37l-.21.44h7.68Z"/><path d="M2904 690.166c-6.9 0-12.5-5.596-12.5-12.5v-33.333c0-6.904 5.6-12.5 12.5-12.5h50c.43 0 .86.022 1.28.065 6.3.64 11.22 5.963 11.22 12.435v33.333c0 6.904-5.6 12.5-12.5 12.5h-50Zm57.08-45.833a7.082 7.082 0 0 0-7.08-7.083h-50a7.082 7.082 0 0 0-7.08 7.083v1.331c.25-.081.53-.124.81-.124h63.35v-1.207Zm-64.16 33.333v-26.834c.25.081.53.124.81.124h63.35v26.71a7.082 7.082 0 0 1-7.08 7.084h-50a7.082 7.082 0 0 1-7.08-7.084Z"/></g></g></g><g id="Heavy-S"><g id="Outline / Debit Card Outline_20"><g id="Shape_20" fill="#000" fill-rule="evenodd" clip-rule="evenodd"><path d="M2638.6 679.339c.5.508 1.19.794 1.91.794h7.87c4.24 0 7.67-3.433 7.67-7.667a7.665 7.665 0 0 0-7.67-7.666h-5.16v-3.274h7.64a2.707 2.707 0 1 0 0-5.417h-10.35a2.714 2.714 0 0 0-2.71 2.709v18.606c0 .719.29 1.408.8 1.915Zm4.62-9.122h5.16c1.25 0 2.25 1.007 2.25 2.249 0 1.243-1 2.25-2.25 2.25h-5.16v-4.499ZM2617.43 656.141a2.714 2.714 0 0 0-2.71 2.709v5.056c0 2.768-.63 5.499-1.85 7.984l-1.35 2.745-.03.081h-1.23c-1.5 0-2.71 1.212-2.71 2.708a2.707 2.707 0 0 0 2.71 2.708h21.99c1.5 0 2.71-1.212 2.71-2.708a2.707 2.707 0 0 0-2.71-2.708h-1.63V658.85a2.707 2.707 0 0 0-2.71-2.709h-10.48Zm7.77 18.575v-13.158h-5.06v2.348c0 3.595-.82 7.143-2.41 10.37l-.21.44h7.68Z"/><path d="M2608 690.166c-6.9 0-12.5-5.596-12.5-12.5v-33.333c0-6.904 5.6-12.5 12.5-12.5h50c.43 0 .86.022 1.28.065 6.3.64 11.22 5.963 11.22 12.435v33.333c0 6.904-5.6 12.5-12.5 12.5h-50Zm57.08-45.833a7.082 7.082 0 0 0-7.08-7.083h-50a7.082 7.082 0 0 0-7.08 7.083v1.331c.25-.081.53-.124.81-.124h63.35v-1.207Zm-64.16 33.333v-26.834c.25.081.53.124.81.124h63.35v26.71a7.082 7.082 0 0 1-7.08 7.084h-50a7.082 7.082 0 0 1-7.08-7.084Z"/></g></g></g><g id="Bold-S"><g id="Outline / Debit Card Outline_21"><g id="Shape_21" fill="#000" fill-rule="evenodd" clip-rule="evenodd"><path d="M2342.6 679.339c.5.508 1.19.794 1.91.794h7.87c4.24 0 7.67-3.433 7.67-7.667a7.665 7.665 0 0 0-7.67-7.666h-5.16v-3.274h7.64a2.707 2.707 0 1 0 0-5.417h-10.35a2.714 2.714 0 0 0-2.71 2.709v18.606c0 .719.29 1.408.8 1.915Zm4.62-9.122h5.16c1.25 0 2.25 1.007 2.25 2.249 0 1.243-1 2.25-2.25 2.25h-5.16v-4.499ZM2321.43 656.141a2.714 2.714 0 0 0-2.71 2.709v5.056c0 2.768-.63 5.499-1.85 7.984l-1.35 2.745-.03.081h-1.23c-1.5 0-2.71 1.212-2.71 2.708a2.707 2.707 0 0 0 2.71 2.708h21.99c1.5 0 2.71-1.212 2.71-2.708a2.707 2.707 0 0 0-2.71-2.708h-1.63V658.85a2.707 2.707 0 0 0-2.71-2.709h-10.48Zm7.77 18.575v-13.158h-5.06v2.348c0 3.595-.82 7.143-2.41 10.37l-.21.44h7.68Z"/><path d="M2312 690.166c-6.9 0-12.5-5.596-12.5-12.5v-33.333c0-6.904 5.6-12.5 12.5-12.5h50c.43 0 .86.022 1.28.065 6.3.64 11.22 5.963 11.22 12.435v33.333c0 6.904-5.6 12.5-12.5 12.5h-50Zm57.08-45.833a7.082 7.082 0 0 0-7.08-7.083h-50a7.082 7.082 0 0 0-7.08 7.083v1.331c.25-.081.53-.124.81-.124h63.35v-1.207Zm-64.16 33.333v-26.834c.25.081.53.124.81.124h63.35v26.71a7.082 7.082 0 0 1-7.08 7.084h-50a7.082 7.082 0 0 1-7.08-7.084Z"/></g></g></g><g id="Semibold-S"><g id="Outline / Debit Card Outline_22"><g id="Shape_22" fill="#000" fill-rule="evenodd" clip-rule="evenodd"><path d="M2046.6 679.339c.5.508 1.19.794 1.91.794h7.87c4.24 0 7.67-3.433 7.67-7.667a7.665 7.665 0 0 0-7.67-7.666h-5.16v-3.274h7.64a2.707 2.707 0 1 0 0-5.417h-10.35a2.714 2.714 0 0 0-2.71 2.709v18.606c0 .719.29 1.408.8 1.915Zm4.62-9.122h5.16c1.25 0 2.25 1.007 2.25 2.249 0 1.243-1 2.25-2.25 2.25h-5.16v-4.499ZM2025.43 656.141a2.714 2.714 0 0 0-2.71 2.709v5.056c0 2.768-.63 5.499-1.85 7.984l-1.35 2.745-.03.081h-1.23c-1.5 0-2.71 1.212-2.71 2.708a2.707 2.707 0 0 0 2.71 2.708h21.99c1.5 0 2.71-1.212 2.71-2.708a2.707 2.707 0 0 0-2.71-2.708h-1.63V658.85a2.707 2.707 0 0 0-2.71-2.709h-10.48Zm7.77 18.575v-13.158h-5.06v2.348c0 3.595-.82 7.143-2.41 10.37l-.21.44h7.68Z"/><path d="M2016 690.166c-6.9 0-12.5-5.596-12.5-12.5v-33.333c0-6.904 5.6-12.5 12.5-12.5h50c.43 0 .86.022 1.28.065 6.3.64 11.22 5.963 11.22 12.435v33.333c0 6.904-5.6 12.5-12.5 12.5h-50Zm57.08-45.833a7.082 7.082 0 0 0-7.08-7.083h-50a7.082 7.082 0 0 0-7.08 7.083v1.331c.25-.081.53-.124.81-.124h63.35v-1.207Zm-64.16 33.333v-26.834c.25.081.53.124.81.124h63.35v26.71a7.082 7.082 0 0 1-7.08 7.084h-50a7.082 7.082 0 0 1-7.08-7.084Z"/></g></g></g><g id="Medium-S"><g id="Outline / Debit Card Outline_23"><g id="Shape_23" fill="#000" fill-rule="evenodd" clip-rule="evenodd"><path d="M1750.6 679.339c.5.508 1.19.794 1.91.794h7.87c4.24 0 7.67-3.433 7.67-7.667a7.665 7.665 0 0 0-7.67-7.666h-5.16v-3.274h7.64a2.707 2.707 0 1 0 0-5.417h-10.35a2.714 2.714 0 0 0-2.71 2.709v18.606c0 .719.29 1.408.8 1.915Zm4.62-9.122h5.16c1.25 0 2.25 1.007 2.25 2.249 0 1.243-1 2.25-2.25 2.25h-5.16v-4.499ZM1729.43 656.141a2.714 2.714 0 0 0-2.71 2.709v5.056c0 2.768-.63 5.499-1.85 7.984l-1.35 2.745-.03.081h-1.23c-1.5 0-2.71 1.212-2.71 2.708a2.707 2.707 0 0 0 2.71 2.708h21.99c1.5 0 2.71-1.212 2.71-2.708a2.707 2.707 0 0 0-2.71-2.708h-1.63V658.85a2.707 2.707 0 0 0-2.71-2.709h-10.48Zm7.77 18.575v-13.158h-5.06v2.348c0 3.595-.82 7.143-2.41 10.37l-.21.44h7.68Z"/><path d="M1720 690.166c-6.9 0-12.5-5.596-12.5-12.5v-33.333c0-6.904 5.6-12.5 12.5-12.5h50c.43 0 .86.022 1.28.065 6.3.64 11.22 5.963 11.22 12.435v33.333c0 6.904-5.6 12.5-12.5 12.5h-50Zm57.08-45.833a7.082 7.082 0 0 0-7.08-7.083h-50a7.082 7.082 0 0 0-7.08 7.083v1.331c.25-.081.53-.124.81-.124h63.35v-1.207Zm-64.16 33.333v-26.834c.25.081.53.124.81.124h63.35v26.71a7.082 7.082 0 0 1-7.08 7.084h-50a7.082 7.082 0 0 1-7.08-7.084Z"/></g></g></g><g id="Regular-S"><g id="Outline / Debit Card Outline_24"><g id="Shape_24" fill="#000" fill-rule="evenodd" clip-rule="evenodd"><path d="M1454.6 679.339c.5.508 1.19.794 1.91.794h7.87c4.24 0 7.67-3.433 7.67-7.667a7.665 7.665 0 0 0-7.67-7.666h-5.16v-3.274h7.64a2.707 2.707 0 1 0 0-5.417h-10.35a2.714 2.714 0 0 0-2.71 2.709v18.606c0 .719.29 1.408.8 1.915Zm4.62-9.122h5.16c1.25 0 2.25 1.007 2.25 2.249 0 1.243-1 2.25-2.25 2.25h-5.16v-4.499ZM1433.43 656.141a2.714 2.714 0 0 0-2.71 2.709v5.056c0 2.768-.63 5.499-1.85 7.984l-1.35 2.745-.03.081h-1.23c-1.5 0-2.71 1.212-2.71 2.708a2.707 2.707 0 0 0 2.71 2.708h21.99c1.5 0 2.71-1.212 2.71-2.708a2.707 2.707 0 0 0-2.71-2.708h-1.63V658.85a2.707 2.707 0 0 0-2.71-2.709h-10.48Zm7.77 18.575v-13.158h-5.06v2.348c0 3.595-.82 7.143-2.41 10.37l-.21.44h7.68Z"/><path d="M1424 690.166c-6.9 0-12.5-5.596-12.5-12.5v-33.333c0-6.904 5.6-12.5 12.5-12.5h50c.43 0 .86.022 1.28.065 6.3.64 11.22 5.963 11.22 12.435v33.333c0 6.904-5.6 12.5-12.5 12.5h-50Zm57.08-45.833a7.082 7.082 0 0 0-7.08-7.083h-50a7.082 7.082 0 0 0-7.08 7.083v1.331c.25-.081.53-.124.81-.124h63.35v-1.207Zm-64.16 33.333v-26.834c.25.081.53.124.81.124h63.35v26.71a7.082 7.082 0 0 1-7.08 7.084h-50a7.082 7.082 0 0 1-7.08-7.084Z"/></g></g></g><g id="Light-S"><g id="Outline / Debit Card Outline_25"><g id="Shape_25" fill="#000" fill-rule="evenodd" clip-rule="evenodd"><path d="M1158.6 679.339c.5.508 1.19.794 1.91.794h7.87c4.24 0 7.67-3.433 7.67-7.667a7.665 7.665 0 0 0-7.67-7.666h-5.16v-3.274h7.64a2.707 2.707 0 1 0 0-5.417h-10.35a2.714 2.714 0 0 0-2.71 2.709v18.606c0 .719.29 1.408.8 1.915Zm4.62-9.122h5.16c1.25 0 2.25 1.007 2.25 2.249 0 1.243-1 2.25-2.25 2.25h-5.16v-4.499ZM1137.43 656.141a2.714 2.714 0 0 0-2.71 2.709v5.056c0 2.768-.63 5.499-1.85 7.984l-1.35 2.745-.03.081h-1.23c-1.5 0-2.71 1.212-2.71 2.708a2.707 2.707 0 0 0 2.71 2.708h21.99c1.5 0 2.71-1.212 2.71-2.708a2.707 2.707 0 0 0-2.71-2.708h-1.63V658.85a2.707 2.707 0 0 0-2.71-2.709h-10.48Zm7.77 18.575v-13.158h-5.06v2.348c0 3.595-.82 7.143-2.41 10.37l-.21.44h7.68Z"/><path d="M1128 690.166c-6.9 0-12.5-5.596-12.5-12.5v-33.333c0-6.904 5.6-12.5 12.5-12.5h50c.43 0 .86.022 1.28.065 6.3.64 11.22 5.963 11.22 12.435v33.333c0 6.904-5.6 12.5-12.5 12.5h-50Zm57.08-45.833a7.082 7.082 0 0 0-7.08-7.083h-50a7.082 7.082 0 0 0-7.08 7.083v1.331c.25-.081.53-.124.81-.124h63.35v-1.207Zm-64.16 33.333v-26.834c.25.081.53.124.81.124h63.35v26.71a7.082 7.082 0 0 1-7.08 7.084h-50a7.082 7.082 0 0 1-7.08-7.084Z"/></g></g></g><g id="Thin-S"><g id="Outline / Debit Card Outline_26"><g id="Shape_26" fill="#000" fill-rule="evenodd" clip-rule="evenodd"><path d="M862.596 679.339a2.71 2.71 0 0 0 1.915.794h7.873a7.667 7.667 0 0 0 0-15.333h-5.164v-3.274h7.642a2.709 2.709 0 0 0 0-5.417h-10.351a2.708 2.708 0 0 0-2.708 2.709v18.606c0 .719.285 1.408.793 1.915Zm4.624-9.122h5.164a2.25 2.25 0 1 1 0 4.499h-5.164v-4.499ZM841.433 656.141a2.708 2.708 0 0 0-2.708 2.709v5.056c0 2.768-.634 5.499-1.854 7.984l-1.346 2.745-.039.081h-1.227a2.707 2.707 0 1 0 0 5.416h21.991a2.708 2.708 0 1 0 0-5.416h-1.63V658.85a2.71 2.71 0 0 0-2.709-2.709h-10.478Zm7.77 18.575v-13.158h-5.062v2.348c0 3.595-.823 7.143-2.407 10.37l-.216.44h7.685Z"/><path d="M832 690.166c-6.904 0-12.5-5.596-12.5-12.5v-33.333c0-6.904 5.596-12.5 12.5-12.5h50c.431 0 .858.022 1.278.065 6.303.64 11.222 5.963 11.222 12.435v33.333c0 6.904-5.596 12.5-12.5 12.5h-50Zm57.083-45.833A7.083 7.083 0 0 0 882 637.25h-50a7.083 7.083 0 0 0-7.083 7.083v1.331a2.7 2.7 0 0 1 .813-.124h63.353v-1.207Zm-64.166 33.333v-26.834a2.7 2.7 0 0 0 .813.124h63.353v26.71A7.084 7.084 0 0 1 882 684.75h-50a7.084 7.084 0 0 1-7.083-7.084Z"/></g></g></g><g id="Ultralight-S"><g id="Outline / Debit Card Outline_27"><g id="Shape_27" fill="#000" fill-rule="evenodd" clip-rule="evenodd"><path d="M566.596 679.339a2.71 2.71 0 0 0 1.915.794h7.873a7.667 7.667 0 0 0 0-15.333h-5.164v-3.274h7.642a2.709 2.709 0 0 0 0-5.417h-10.351a2.708 2.708 0 0 0-2.708 2.709v18.606c0 .719.285 1.408.793 1.915Zm4.624-9.122h5.164a2.25 2.25 0 1 1 0 4.499h-5.164v-4.499ZM545.433 656.141a2.708 2.708 0 0 0-2.708 2.709v5.056c0 2.768-.634 5.499-1.854 7.984l-1.346 2.745-.039.081h-1.227a2.707 2.707 0 1 0 0 5.416h21.991a2.708 2.708 0 1 0 0-5.416h-1.63V658.85a2.71 2.71 0 0 0-2.709-2.709h-10.478Zm7.77 18.575v-13.158h-5.062v2.348c0 3.595-.823 7.143-2.407 10.37l-.216.44h7.685Z"/><path d="M536 690.166c-6.904 0-12.5-5.596-12.5-12.5v-33.333c0-6.904 5.596-12.5 12.5-12.5h50c.431 0 .858.022 1.278.065 6.303.64 11.222 5.963 11.222 12.435v33.333c0 6.904-5.596 12.5-12.5 12.5h-50Zm57.083-45.833A7.083 7.083 0 0 0 586 637.25h-50a7.083 7.083 0 0 0-7.083 7.083v1.331a2.7 2.7 0 0 1 .813-.124h63.353v-1.207Zm-64.166 33.333v-26.834a2.7 2.7 0 0 0 .813.124h63.353v26.71A7.084 7.084 0 0 1 586 684.75h-50a7.084 7.084 0 0 1-7.083-7.084Z"/></g></g></g></g></g><defs><clipPath id="clip0_0_1"><path fill="#fff" d="M0 0h3300v2200H0z"/></clipPath></defs></svg>