<svg xmlns="http://www.w3.org/2000/svg" width="3300" height="2200" fill="none"><path fill="#E5E5E5" d="M0 0h3300v2200H0z"/><g id="Documents / Solid / Copy" clip-path="url(#clip0_0_1)"><g id="Notes"><path id="artboard" fill="#fff" d="M3300 0H0v2200h3300V0Z"/><path id="Vector" stroke="#000" stroke-width=".5" d="M263 292h2773"/><text xml:space="preserve" id="Weight/Scale Variations" fill="#000" font-family="Roboto" font-size="12" letter-spacing="0em" style="white-space:pre"><tspan x="263" y="321.102">Weight/Scale Variations</tspan></text><text xml:space="preserve" id="Ultralight" fill="#000" font-family="Roboto" font-size="12" letter-spacing="0em" style="white-space:pre"><tspan x="535.211" y="321.102">Ultralight</tspan></text><text xml:space="preserve" id="Thin" fill="#000" font-family="Roboto" font-size="12" letter-spacing="0em" style="white-space:pre"><tspan x="844.422" y="321.102">Thin</tspan></text><text xml:space="preserve" id="Light" fill="#000" font-family="Roboto" font-size="12" letter-spacing="0em" style="white-space:pre"><tspan x="1139.63" y="321.102">Light</tspan></text><text xml:space="preserve" id="Regular" fill="#000" font-family="Roboto" font-size="12" letter-spacing="0em" style="white-space:pre"><tspan x="1429.34" y="321.102">Regular</tspan></text><text xml:space="preserve" id="Medium" fill="#000" font-family="Roboto" font-size="12" letter-spacing="0em" style="white-space:pre"><tspan x="1724.56" y="321.102">Medium</tspan></text><text xml:space="preserve" id="Semibold" fill="#000" font-family="Roboto" font-size="12" letter-spacing="0em" style="white-space:pre"><tspan x="2017.77" y="321.102">Semibold</tspan></text><text xml:space="preserve" id="Bold" fill="#000" font-family="Roboto" font-size="12" letter-spacing="0em" style="white-space:pre"><tspan x="2327.48" y="321.102">Bold</tspan></text><text xml:space="preserve" id="Heavy" fill="#000" font-family="Roboto" font-size="12" letter-spacing="0em" style="white-space:pre"><tspan x="2620.19" y="321.102">Heavy</tspan></text><text xml:space="preserve" id="Black" fill="#000" font-family="Roboto" font-size="12" letter-spacing="0em" style="white-space:pre"><tspan x="2918.4" y="321.102">Black</tspan></text><path id="Vector_2" stroke="#000" stroke-width=".5" d="M263 1903h2773"/><g id="Group"><path id="Vector_3" fill="#000" d="M272.248 1933.83c4.307 0 7.891-3.57 7.891-7.88 0-4.31-3.594-7.88-7.901-7.88-4.297 0-7.871 3.57-7.871 7.88 0 4.31 3.584 7.88 7.881 7.88Zm0-1.48a6.364 6.364 0 0 1-6.377-6.4c0-3.56 2.822-6.4 6.367-6.4a6.382 6.382 0 0 1 6.406 6.4 6.368 6.368 0 0 1-6.396 6.4Zm-.019-2.78c.468 0 .742-.31.742-.83v-2.06h2.226c.498 0 .84-.25.84-.72 0-.48-.322-.74-.84-.74h-2.226v-2.23c0-.52-.274-.84-.742-.84-.469 0-.723.34-.723.84v2.23h-2.207c-.518 0-.85.26-.85.74 0 .47.352.72.85.72h2.207v2.06c0 .5.254.83.723.83Z"/></g><g id="Group_2"><path id="Vector_4" fill="#000" d="M293.215 1935.91c5.449 0 9.961-4.51 9.961-9.96 0-5.44-4.522-9.96-9.971-9.96-5.439 0-9.951 4.52-9.951 9.96 0 5.45 4.521 9.96 9.961 9.96Zm0-1.66a8.26 8.26 0 0 1-8.291-8.3c0-4.6 3.672-8.3 8.281-8.3a8.29 8.29 0 0 1 8.311 8.3 8.263 8.263 0 0 1-8.301 8.3Zm-.02-3.66c.518 0 .83-.36.83-.93v-2.89h3.057c.547 0 .928-.28.928-.8 0-.53-.362-.83-.928-.83h-3.057v-3.07c0-.57-.312-.93-.83-.93-.517 0-.81.38-.81.93v3.07h-3.047c-.567 0-.938.3-.938.83 0 .52.391.8.938.8h3.047v2.89c0 .55.293.93.81.93Z"/></g><g id="Group_3"><path id="Vector_5" fill="#000" d="M319.895 1938.67c6.962 0 12.724-5.75 12.724-12.71 0-6.96-5.771-12.72-12.734-12.72-6.953 0-12.705 5.76-12.705 12.72 0 6.96 5.761 12.71 12.715 12.71Zm0-1.81a10.874 10.874 0 0 1-10.889-10.9c0-6.04 4.844-10.9 10.879-10.9 6.045 0 10.898 4.86 10.908 10.9a10.87 10.87 0 0 1-10.898 10.9Zm-.02-4.92c.566 0 .918-.4.918-1v-4.07h4.238c.586 0 1.006-.33 1.006-.89 0-.58-.39-.92-1.006-.92h-4.238v-4.25c0-.61-.352-1-.918-1-.566 0-.889.41-.889 1v4.25h-4.228c-.615 0-1.026.34-1.026.92 0 .56.43.89 1.026.89h4.228v4.07c0 .59.323 1 .889 1Z"/></g><text xml:space="preserve" id="Design Variations" fill="#000" font-family="Roboto" font-size="12" letter-spacing="0em" style="white-space:pre"><tspan x="263" y="1952.1">Design Variations</tspan></text><text xml:space="preserve" id="Symbols are supported in up to nine weights and three scales." fill="#000" font-family="Roboto" font-size="12" letter-spacing="0em" style="white-space:pre"><tspan x="263" y="1970.1">Symbols are supported in up to nine weights and three scales.</tspan></text><text xml:space="preserve" id="For optimal layout with text and other symbols, vertically align" fill="#000" font-family="Roboto" font-size="12" letter-spacing="0em" style="white-space:pre"><tspan x="263" y="1988.1">For optimal layout with text and other symbols, vertically align</tspan></text><text xml:space="preserve" id="symbols with the adjacent text." fill="#000" font-family="Roboto" font-size="12" letter-spacing="0em" style="white-space:pre"><tspan x="263" y="2006.1">symbols with the adjacent text.</tspan></text><path id="Vector_6" fill="#00AEEF" d="M779 1919h-3v14h3v-14Z" opacity=".4"/><g id="Group_4"><path id="Vector_7" fill="#000" d="M789.525 1933h1.846l-5.195-14.09h-1.739l-5.195 14.09h1.846l1.416-4.03h5.605l1.416 4.03Zm-4.248-11.95h.059l2.256 6.42h-4.571l2.256-6.42Z"/></g><path id="Vector_8" fill="#00AEEF" d="M794.617 1919h-3v14h3v-14Z" opacity=".4"/><text xml:space="preserve" id="Margins" fill="#000" font-family="Roboto" font-size="12" letter-spacing="0em" style="white-space:pre"><tspan x="776" y="1952.1">Margins</tspan></text><text xml:space="preserve" id="Leading and trailing margins on the left and right side of each symbol" fill="#000" font-family="Roboto" font-size="12" letter-spacing="0em" style="white-space:pre"><tspan x="776" y="1970.1">Leading and trailing margins on the left and right side of each symbol</tspan></text><text xml:space="preserve" id="can be adjusted by modifying the width of the blue rectangles." fill="#000" font-family="Roboto" font-size="12" letter-spacing="0em" style="white-space:pre"><tspan x="776" y="1988.1">can be adjusted by modifying the width of the blue rectangles.</tspan></text><text xml:space="preserve" id="Modifications are automatically applied proportionally to all" fill="#000" font-family="Roboto" font-size="12" letter-spacing="0em" style="white-space:pre"><tspan x="776" y="2006.1">Modifications are automatically applied proportionally to all</tspan></text><text xml:space="preserve" id="scales and weights." fill="#000" font-family="Roboto" font-size="12" letter-spacing="0em" style="white-space:pre"><tspan x="776" y="2024.1">scales and weights.</tspan></text><g id="Group_5"><path id="Vector_9" fill="#000" d="m1291.83 1936.12 1.54 1.54c.85.83 1.82.76 2.69-.2l10.21-11.12c.43.29.83.28 1.29.19l1.05-.22.69.69-.05.52c-.06.53.1.95.6 1.45l.81.81c.51.51 1.16.53 1.64.06l3.25-3.26c.48-.47.46-1.13-.05-1.64l-.82-.82c-.49-.5-.91-.67-1.44-.59l-.53.06-.65-.67.28-1.14c.15-.57 0-1.04-.63-1.64l-2.41-2.39c-3.54-3.53-8.07-3.42-11.19-.29-.42.43-.47 1.02-.19 1.45.23.37.71.59 1.35.43 1.52-.38 3.03-.27 4.51.74l-.62 1.58c-.23.59-.22 1.07.02 1.51l-11.16 10.27c-.94.87-1.05 1.82-.19 2.68Zm7.84-18.27c2.67-1.99 5.98-1.68 8.38.74l2.63 2.6c.23.24.26.42.2.72l-.38 1.56 1.58 1.57.96-.09c.29-.03.37-.01.6.22l.62.62-2.75 2.75-.63-.62c-.22-.22-.24-.32-.21-.6l.09-.96-1.57-1.56-1.62.31c-.28.06-.43.06-.66-.19l-2.18-2.17c-.22-.24-.25-.38-.12-.7l.94-2.27c-1.6-1.54-3.71-2.39-5.75-1.73-.09.03-.16.01-.19-.03-.02-.05-.02-.1.06-.17Zm-6.57 17.56c-.49-.5-.31-.8.02-1.1l10.96-10.12 1.23 1.23-10.16 10.93c-.3.33-.68.43-1.08.03l-.97-.97Z"/></g><text xml:space="preserve" id="Exporting" fill="#000" font-family="Roboto" font-size="12" letter-spacing="0em" style="white-space:pre"><tspan x="1289" y="1952.1">Exporting</tspan></text><text xml:space="preserve" id="Symbols should be outlined when exporting to ensure the" fill="#000" font-family="Roboto" font-size="12" letter-spacing="0em" style="white-space:pre"><tspan x="1289" y="1970.1">Symbols should be outlined when exporting to ensure the</tspan></text><text xml:space="preserve" id="design is preserved when submitting to Xcode." fill="#000" font-family="Roboto" font-size="12" letter-spacing="0em" style="white-space:pre"><tspan x="1289" y="1988.1">design is preserved when submitting to Xcode.</tspan></text><text xml:space="preserve" id="template-version" fill="#000" font-family="Roboto" font-size="12" letter-spacing="0em" style="white-space:pre"><tspan x="2958" y="1932.1">Template v.1.0</tspan></text><text xml:space="preserve" id="Generated from pencil.circle" fill="#000" font-family="Roboto" font-size="12" letter-spacing="0em" style="white-space:pre"><tspan x="2885" y="1950.1">Generated from pencil.circle</tspan></text><text xml:space="preserve" id="Typeset at 100 points" fill="#000" font-family="Roboto" font-size="12" letter-spacing="0em" style="white-space:pre"><tspan x="2921" y="1968.1">Typeset at 100 points</tspan></text><text xml:space="preserve" id="Small" fill="#000" font-family="Roboto" font-size="12" letter-spacing="0em" style="white-space:pre"><tspan x="263" y="725.102">Small</tspan></text><text xml:space="preserve" id="Medium_2" fill="#000" font-family="Roboto" font-size="12" letter-spacing="0em" style="white-space:pre"><tspan x="263" y="1155.1">Medium</tspan></text><text xml:space="preserve" id="Large" fill="#000" font-family="Roboto" font-size="12" letter-spacing="0em" style="white-space:pre"><tspan x="263" y="1585.1">Large</tspan></text></g><g id="Guides"><g id="H-reference"><path id="Vector_10" fill="#27AAE1" d="M393.932 696h2.734l-27.1-70.459h-2.49L339.977 696h2.685l9.278-24.463h32.763L393.932 696Zm-25.733-67.09h.244l15.381 40.381h-31.006l15.381-40.381Z"/></g><path id="Baseline-S" stroke="#27AAE1" stroke-width=".577" d="M263 696h2773"/><path id="Capline-S" stroke="#27AAE1" stroke-width=".577" d="M263 626h2773"/><g id="H-reference_2"><path id="Vector_11" fill="#27AAE1" d="M393.932 1126h2.734l-27.1-70.46h-2.49L339.977 1126h2.685l9.278-24.46h32.763l9.229 24.46Zm-25.733-67.09h.244l15.381 40.38h-31.006l15.381-40.38Z"/></g><path id="Baseline-M" stroke="#27AAE1" stroke-width=".577" d="M263 1126h2773"/><path id="Capline-M" stroke="#27AAE1" stroke-width=".577" d="M263 1056h2773"/><g id="H-reference_3"><path id="Vector_12" fill="#27AAE1" d="M393.932 1556h2.734l-27.1-70.46h-2.49L339.977 1556h2.685l9.278-24.46h32.763l9.229 24.46Zm-25.733-67.09h.244l15.381 40.38h-31.006l15.381-40.38Z"/></g><g id="Group 1" stroke="#27AAE1" stroke-width=".577"><path id="Baseline-L" d="M263 1556h2773"/><path id="Capline-L" d="M263 1486h2773"/></g><path id="left-margin" fill="#00AEEF" d="M1402.04 1030.79h-8.74v119.34h8.74v-119.34Z" opacity=".4"/><path id="right-margin" fill="#00AEEF" d="M1508.39 1030.79h-8.74v119.34h8.74v-119.34Z" opacity=".4"/></g><g id="Symbols"><g id="Black-L"><g id="Solid / Copy Solid"><g id="Shape" fill="#000"><path d="M2971.37 1588.52c12.43 0 22.5-10.07 22.5-22.5v-75c0-11.19-8.17-20.47-18.87-22.21-.15-1.46-.44-2.87-.86-4.24a4.862 4.862 0 0 0-6.08-3.24 4.862 4.862 0 0 0-3.24 6.08c.11.37.2.74.28 1.11h-53.73c-12.42 0-22.5 10.08-22.5 22.5v72.48c-.37-.08-.74-.17-1.1-.28a4.87 4.87 0 0 0-6.08 3.24c-.79 2.58.66 5.3 3.24 6.09 1.66.5 3.41.82 5.21.93 3.08 8.76 11.42 15.04 21.23 15.04h60ZM2879.3 1554.75a4.872 4.872 0 1 1-9.32 2.85c-.64-2.09-.98-4.3-.98-6.57v-7.08c0-2.7 2.18-4.88 4.88-4.88 2.69 0 4.87 2.18 4.87 4.88v7.08c0 1.3.19 2.55.55 3.72ZM2878.75 1520.59a4.87 4.87 0 0 1-4.87 4.87c-2.7 0-4.88-2.18-4.88-4.87v-14.16c0-2.69 2.18-4.87 4.88-4.87a4.87 4.87 0 0 1 4.87 4.87v14.16ZM2878.75 1483.08a4.87 4.87 0 0 1-4.87 4.87c-2.7 0-4.88-2.18-4.88-4.87V1476c0-2.78.41-5.46 1.19-8a4.872 4.872 0 1 1 9.32 2.85c-.49 1.62-.76 3.35-.76 5.15v7.08ZM2891.22 1459.14c-2.57.78-5.3-.67-6.08-3.24-.79-2.58.66-5.3 3.24-6.09 2.53-.77 5.22-1.19 8-1.19h4.84c2.69 0 4.88 2.19 4.88 4.88s-2.19 4.87-4.88 4.87h-4.84c-1.8 0-3.53.27-5.16.77ZM2959.18 1449.6c2.57.79 4.02 3.51 3.24 6.08a4.886 4.886 0 0 1-6.09 3.25c-1.17-.36-2.43-.56-3.73-.56h-5.76c-2.7 0-4.88-2.18-4.88-4.87a4.88 4.88 0 0 1 4.88-4.88h5.76c2.28 0 4.49.34 6.58.98ZM2917.21 1458.37a4.87 4.87 0 0 1-4.87-4.87c0-2.69 2.18-4.88 4.87-4.88h10.61c2.69 0 4.88 2.19 4.88 4.88s-2.19 4.87-4.88 4.87h-10.61Z"/></g></g></g><g id="Heavy-L"><g id="Solid / Copy Solid_2"><g id="Shape_2" fill="#000"><path d="M2675.37 1588.52c12.43 0 22.5-10.07 22.5-22.5v-75c0-11.19-8.17-20.47-18.87-22.21-.15-1.46-.44-2.87-.86-4.24a4.862 4.862 0 0 0-6.08-3.24 4.862 4.862 0 0 0-3.24 6.08c.11.37.2.74.28 1.11h-53.73c-12.42 0-22.5 10.08-22.5 22.5v72.48c-.37-.08-.74-.17-1.1-.28a4.87 4.87 0 0 0-6.08 3.24c-.79 2.58.66 5.3 3.24 6.09 1.66.5 3.41.82 5.21.93 3.08 8.76 11.42 15.04 21.23 15.04h60ZM2583.3 1554.75a4.872 4.872 0 1 1-9.32 2.85c-.64-2.09-.98-4.3-.98-6.57v-7.08c0-2.7 2.18-4.88 4.88-4.88 2.69 0 4.87 2.18 4.87 4.88v7.08c0 1.3.19 2.55.55 3.72ZM2582.75 1520.59a4.87 4.87 0 0 1-4.87 4.87c-2.7 0-4.88-2.18-4.88-4.87v-14.16c0-2.69 2.18-4.87 4.88-4.87a4.87 4.87 0 0 1 4.87 4.87v14.16ZM2582.75 1483.08a4.87 4.87 0 0 1-4.87 4.87c-2.7 0-4.88-2.18-4.88-4.87V1476c0-2.78.41-5.46 1.19-8a4.872 4.872 0 1 1 9.32 2.85c-.49 1.62-.76 3.35-.76 5.15v7.08ZM2595.22 1459.14c-2.57.78-5.3-.67-6.08-3.24-.79-2.58.66-5.3 3.24-6.09 2.53-.77 5.22-1.19 8-1.19h4.84c2.69 0 4.88 2.19 4.88 4.88s-2.19 4.87-4.88 4.87h-4.84c-1.8 0-3.53.27-5.16.77ZM2663.18 1449.6c2.57.79 4.02 3.51 3.24 6.08a4.886 4.886 0 0 1-6.09 3.25c-1.17-.36-2.43-.56-3.73-.56h-5.76c-2.7 0-4.88-2.18-4.88-4.87a4.88 4.88 0 0 1 4.88-4.88h5.76c2.28 0 4.49.34 6.58.98ZM2621.21 1458.37a4.87 4.87 0 0 1-4.87-4.87c0-2.69 2.18-4.88 4.87-4.88h10.61c2.69 0 4.88 2.19 4.88 4.88s-2.19 4.87-4.88 4.87h-10.61Z"/></g></g></g><g id="Bold-L"><g id="Solid / Copy Solid_3"><g id="Shape_3" fill="#000"><path d="M2379.37 1588.52c12.43 0 22.5-10.07 22.5-22.5v-75c0-11.19-8.17-20.47-18.87-22.21-.15-1.46-.44-2.87-.86-4.24a4.862 4.862 0 0 0-6.08-3.24 4.862 4.862 0 0 0-3.24 6.08c.11.37.2.74.28 1.11h-53.73c-12.42 0-22.5 10.08-22.5 22.5v72.48c-.37-.08-.74-.17-1.1-.28a4.87 4.87 0 0 0-6.08 3.24c-.79 2.58.66 5.3 3.24 6.09 1.66.5 3.41.82 5.21.93 3.08 8.76 11.42 15.04 21.23 15.04h60ZM2287.3 1554.75a4.872 4.872 0 1 1-9.32 2.85c-.64-2.09-.98-4.3-.98-6.57v-7.08c0-2.7 2.18-4.88 4.88-4.88 2.69 0 4.87 2.18 4.87 4.88v7.08c0 1.3.19 2.55.55 3.72ZM2286.75 1520.59a4.87 4.87 0 0 1-4.87 4.87c-2.7 0-4.88-2.18-4.88-4.87v-14.16c0-2.69 2.18-4.87 4.88-4.87a4.87 4.87 0 0 1 4.87 4.87v14.16ZM2286.75 1483.08a4.87 4.87 0 0 1-4.87 4.87c-2.7 0-4.88-2.18-4.88-4.87V1476c0-2.78.41-5.46 1.19-8a4.872 4.872 0 1 1 9.32 2.85c-.49 1.62-.76 3.35-.76 5.15v7.08ZM2299.22 1459.14c-2.57.78-5.3-.67-6.08-3.24-.79-2.58.66-5.3 3.24-6.09 2.53-.77 5.22-1.19 8-1.19h4.84c2.69 0 4.88 2.19 4.88 4.88s-2.19 4.87-4.88 4.87h-4.84c-1.8 0-3.53.27-5.16.77ZM2367.18 1449.6c2.57.79 4.02 3.51 3.24 6.08a4.886 4.886 0 0 1-6.09 3.25c-1.17-.36-2.43-.56-3.73-.56h-5.76c-2.7 0-4.88-2.18-4.88-4.87a4.88 4.88 0 0 1 4.88-4.88h5.76c2.28 0 4.49.34 6.58.98ZM2325.21 1458.37a4.87 4.87 0 0 1-4.87-4.87c0-2.69 2.18-4.88 4.87-4.88h10.61c2.69 0 4.88 2.19 4.88 4.88s-2.19 4.87-4.88 4.87h-10.61Z"/></g></g></g><g id="Semibold-L"><g id="Solid / Copy Solid_4"><g id="Shape_4" fill="#000"><path d="M2083.37 1588.52c12.43 0 22.5-10.07 22.5-22.5v-75c0-11.19-8.17-20.47-18.87-22.21-.15-1.46-.44-2.87-.86-4.24a4.862 4.862 0 0 0-6.08-3.24 4.862 4.862 0 0 0-3.24 6.08c.11.37.2.74.28 1.11h-53.73c-12.42 0-22.5 10.08-22.5 22.5v72.48c-.37-.08-.74-.17-1.1-.28a4.87 4.87 0 0 0-6.08 3.24c-.79 2.58.66 5.3 3.24 6.09 1.66.5 3.41.82 5.21.93 3.08 8.76 11.42 15.04 21.23 15.04h60ZM1991.3 1554.75a4.872 4.872 0 1 1-9.32 2.85c-.64-2.09-.98-4.3-.98-6.57v-7.08c0-2.7 2.18-4.88 4.88-4.88 2.69 0 4.87 2.18 4.87 4.88v7.08c0 1.3.19 2.55.55 3.72ZM1990.75 1520.59a4.87 4.87 0 0 1-4.87 4.87c-2.7 0-4.88-2.18-4.88-4.87v-14.16c0-2.69 2.18-4.87 4.88-4.87a4.87 4.87 0 0 1 4.87 4.87v14.16ZM1990.75 1483.08a4.87 4.87 0 0 1-4.87 4.87c-2.7 0-4.88-2.18-4.88-4.87V1476c0-2.78.41-5.46 1.19-8a4.872 4.872 0 1 1 9.32 2.85c-.49 1.62-.76 3.35-.76 5.15v7.08ZM2003.22 1459.14c-2.57.78-5.3-.67-6.08-3.24-.79-2.58.66-5.3 3.24-6.09 2.53-.77 5.22-1.19 8-1.19h4.84c2.69 0 4.88 2.19 4.88 4.88s-2.19 4.87-4.88 4.87h-4.84c-1.8 0-3.53.27-5.16.77ZM2071.18 1449.6c2.57.79 4.02 3.51 3.24 6.08a4.886 4.886 0 0 1-6.09 3.25c-1.17-.36-2.43-.56-3.73-.56h-5.76c-2.7 0-4.88-2.18-4.88-4.87a4.88 4.88 0 0 1 4.88-4.88h5.76c2.28 0 4.49.34 6.58.98ZM2029.21 1458.37a4.87 4.87 0 0 1-4.87-4.87c0-2.69 2.18-4.88 4.87-4.88h10.61c2.69 0 4.88 2.19 4.88 4.88s-2.19 4.87-4.88 4.87h-10.61Z"/></g></g></g><g id="Medium-L"><g id="Solid / Copy Solid_5"><g id="Shape_5" fill="#000"><path d="M1787.37 1588.52c12.43 0 22.5-10.07 22.5-22.5v-75c0-11.19-8.17-20.47-18.87-22.21-.15-1.46-.44-2.87-.86-4.24a4.862 4.862 0 0 0-6.08-3.24 4.862 4.862 0 0 0-3.24 6.08c.11.37.2.74.28 1.11h-53.73c-12.42 0-22.5 10.08-22.5 22.5v72.48c-.37-.08-.74-.17-1.1-.28a4.87 4.87 0 0 0-6.08 3.24c-.79 2.58.66 5.3 3.24 6.09 1.66.5 3.41.82 5.21.93 3.08 8.76 11.42 15.04 21.23 15.04h60ZM1695.3 1554.75a4.872 4.872 0 1 1-9.32 2.85c-.64-2.09-.98-4.3-.98-6.57v-7.08c0-2.7 2.18-4.88 4.88-4.88 2.69 0 4.87 2.18 4.87 4.88v7.08c0 1.3.19 2.55.55 3.72ZM1694.75 1520.59a4.87 4.87 0 0 1-4.87 4.87c-2.7 0-4.88-2.18-4.88-4.87v-14.16c0-2.69 2.18-4.87 4.88-4.87a4.87 4.87 0 0 1 4.87 4.87v14.16ZM1694.75 1483.08a4.87 4.87 0 0 1-4.87 4.87c-2.7 0-4.88-2.18-4.88-4.87V1476c0-2.78.41-5.46 1.19-8a4.872 4.872 0 1 1 9.32 2.85c-.49 1.62-.76 3.35-.76 5.15v7.08ZM1707.22 1459.14c-2.57.78-5.3-.67-6.08-3.24-.79-2.58.66-5.3 3.24-6.09 2.53-.77 5.22-1.19 8-1.19h4.84c2.69 0 4.88 2.19 4.88 4.88s-2.19 4.87-4.88 4.87h-4.84c-1.8 0-3.53.27-5.16.77ZM1775.18 1449.6c2.57.79 4.02 3.51 3.24 6.08a4.886 4.886 0 0 1-6.09 3.25c-1.17-.36-2.43-.56-3.73-.56h-5.76c-2.7 0-4.88-2.18-4.88-4.87a4.88 4.88 0 0 1 4.88-4.88h5.76c2.28 0 4.49.34 6.58.98ZM1733.21 1458.37a4.87 4.87 0 0 1-4.87-4.87c0-2.69 2.18-4.88 4.87-4.88h10.61c2.69 0 4.88 2.19 4.88 4.88s-2.19 4.87-4.88 4.87h-10.61Z"/></g></g></g><g id="Regular-L"><g id="Solid / Copy Solid_6"><g id="Shape_6" fill="#000"><path d="M1491.37 1588.52c12.43 0 22.5-10.07 22.5-22.5v-75c0-11.19-8.17-20.47-18.87-22.21-.15-1.46-.44-2.87-.86-4.24a4.862 4.862 0 0 0-6.08-3.24 4.862 4.862 0 0 0-3.24 6.08c.11.37.2.74.28 1.11h-53.73c-12.42 0-22.5 10.08-22.5 22.5v72.48c-.37-.08-.74-.17-1.1-.28a4.87 4.87 0 0 0-6.08 3.24c-.79 2.58.66 5.3 3.24 6.09 1.66.5 3.41.82 5.21.93 3.08 8.76 11.42 15.04 21.23 15.04h60ZM1399.3 1554.75a4.872 4.872 0 1 1-9.32 2.85c-.64-2.09-.98-4.3-.98-6.57v-7.08c0-2.7 2.18-4.88 4.88-4.88 2.69 0 4.87 2.18 4.87 4.88v7.08c0 1.3.19 2.55.55 3.72ZM1398.75 1520.59a4.87 4.87 0 0 1-4.87 4.87c-2.7 0-4.88-2.18-4.88-4.87v-14.16c0-2.69 2.18-4.87 4.88-4.87a4.87 4.87 0 0 1 4.87 4.87v14.16ZM1398.75 1483.08a4.87 4.87 0 0 1-4.87 4.87c-2.7 0-4.88-2.18-4.88-4.87V1476c0-2.78.41-5.46 1.19-8a4.872 4.872 0 1 1 9.32 2.85c-.49 1.62-.76 3.35-.76 5.15v7.08ZM1411.22 1459.14c-2.57.78-5.3-.67-6.08-3.24-.79-2.58.66-5.3 3.24-6.09 2.53-.77 5.22-1.19 8-1.19h4.84c2.69 0 4.88 2.19 4.88 4.88s-2.19 4.87-4.88 4.87h-4.84c-1.8 0-3.53.27-5.16.77ZM1479.18 1449.6c2.57.79 4.02 3.51 3.24 6.08a4.886 4.886 0 0 1-6.09 3.25c-1.17-.36-2.43-.56-3.73-.56h-5.76c-2.7 0-4.88-2.18-4.88-4.87a4.88 4.88 0 0 1 4.88-4.88h5.76c2.28 0 4.49.34 6.58.98ZM1437.21 1458.37a4.87 4.87 0 0 1-4.87-4.87c0-2.69 2.18-4.88 4.87-4.88h10.61c2.69 0 4.88 2.19 4.88 4.88s-2.19 4.87-4.88 4.87h-10.61Z"/></g></g></g><g id="Light-L"><g id="Solid / Copy Solid_7"><g id="Shape_7" fill="#000"><path d="M1195.37 1588.52c12.43 0 22.5-10.07 22.5-22.5v-75c0-11.19-8.17-20.47-18.87-22.21-.15-1.46-.44-2.87-.86-4.24a4.862 4.862 0 0 0-6.08-3.24 4.862 4.862 0 0 0-3.24 6.08c.11.37.2.74.28 1.11h-53.73c-12.42 0-22.5 10.08-22.5 22.5v72.48c-.37-.08-.74-.17-1.1-.28a4.87 4.87 0 0 0-6.08 3.24c-.79 2.58.66 5.3 3.24 6.09 1.66.5 3.41.82 5.21.93 3.08 8.76 11.42 15.04 21.23 15.04h60ZM1103.3 1554.75a4.872 4.872 0 1 1-9.32 2.85c-.64-2.09-.98-4.3-.98-6.57v-7.08c0-2.7 2.18-4.88 4.88-4.88 2.69 0 4.87 2.18 4.87 4.88v7.08c0 1.3.19 2.55.55 3.72ZM1102.75 1520.59a4.87 4.87 0 0 1-4.87 4.87c-2.7 0-4.88-2.18-4.88-4.87v-14.16c0-2.69 2.18-4.87 4.88-4.87a4.87 4.87 0 0 1 4.87 4.87v14.16ZM1102.75 1483.08a4.87 4.87 0 0 1-4.87 4.87c-2.7 0-4.88-2.18-4.88-4.87V1476c0-2.78.41-5.46 1.19-8a4.872 4.872 0 1 1 9.32 2.85c-.49 1.62-.76 3.35-.76 5.15v7.08ZM1115.22 1459.14c-2.57.78-5.3-.67-6.08-3.24-.79-2.58.66-5.3 3.24-6.09 2.53-.77 5.22-1.19 8-1.19h4.84c2.69 0 4.88 2.19 4.88 4.88s-2.19 4.87-4.88 4.87h-4.84c-1.8 0-3.53.27-5.16.77ZM1183.18 1449.6c2.57.79 4.02 3.51 3.24 6.08a4.886 4.886 0 0 1-6.09 3.25c-1.17-.36-2.43-.56-3.73-.56h-5.76c-2.7 0-4.88-2.18-4.88-4.87a4.88 4.88 0 0 1 4.88-4.88h5.76c2.28 0 4.49.34 6.58.98ZM1141.21 1458.37a4.87 4.87 0 0 1-4.87-4.87c0-2.69 2.18-4.88 4.87-4.88h10.61c2.69 0 4.88 2.19 4.88 4.88s-2.19 4.87-4.88 4.87h-10.61Z"/></g></g></g><g id="Thin-L"><g id="Solid / Copy Solid_8"><g id="Shape_8" fill="#000"><path d="M899.372 1588.52c12.426 0 22.5-10.07 22.5-22.5v-75c0-11.19-8.17-20.47-18.87-22.21a22.444 22.444 0 0 0-.858-4.24 4.867 4.867 0 0 0-6.085-3.24 4.869 4.869 0 0 0-3.24 6.08c.11.37.205.74.284 1.11h-53.731c-12.427 0-22.5 10.08-22.5 22.5v72.48c-.374-.08-.741-.17-1.101-.28-2.576-.79-5.3.67-6.085 3.24a4.88 4.88 0 0 0 3.24 6.09c1.667.5 3.414.82 5.212.93 3.077 8.76 11.422 15.04 21.234 15.04h60ZM807.302 1554.75a4.88 4.88 0 0 1-3.241 6.09c-2.575.78-5.3-.67-6.085-3.24-.636-2.09-.976-4.3-.976-6.57v-7.08a4.875 4.875 0 1 1 9.75 0v7.08c0 1.3.194 2.55.552 3.72ZM806.75 1520.59c0 2.69-2.183 4.87-4.875 4.87a4.873 4.873 0 0 1-4.875-4.87v-14.16c0-2.69 2.183-4.87 4.875-4.87a4.873 4.873 0 0 1 4.875 4.87v14.16ZM806.75 1483.08c0 2.69-2.183 4.87-4.875 4.87a4.873 4.873 0 0 1-4.875-4.87V1476c0-2.78.414-5.46 1.187-8a4.884 4.884 0 0 1 6.086-3.24 4.88 4.88 0 0 1 3.24 6.09 17.601 17.601 0 0 0-.763 5.15v7.08ZM819.224 1459.14c-2.575.78-5.3-.67-6.085-3.24a4.88 4.88 0 0 1 3.24-6.09 27.49 27.49 0 0 1 7.996-1.19h4.846a4.88 4.88 0 0 1 4.875 4.88c0 2.69-2.182 4.87-4.875 4.87h-4.846c-1.8 0-3.528.27-5.151.77ZM887.176 1449.6a4.874 4.874 0 0 1 3.241 6.08 4.882 4.882 0 0 1-6.086 3.25 12.72 12.72 0 0 0-3.734-.56h-5.761a4.872 4.872 0 0 1-4.875-4.87 4.88 4.88 0 0 1 4.875-4.88h5.761c2.281 0 4.492.34 6.579.98ZM845.214 1458.37a4.873 4.873 0 0 1-4.875-4.87c0-2.69 2.183-4.88 4.875-4.88h10.608a4.88 4.88 0 0 1 4.875 4.88c0 2.69-2.182 4.87-4.875 4.87h-10.608Z"/></g></g></g><g id="Ultralight-L"><g id="Solid / Copy Solid_9"><g id="Shape_9" fill="#000"><path d="M603.372 1588.52c12.426 0 22.5-10.07 22.5-22.5v-75c0-11.19-8.17-20.47-18.87-22.21a22.444 22.444 0 0 0-.858-4.24 4.867 4.867 0 0 0-6.085-3.24 4.869 4.869 0 0 0-3.24 6.08c.11.37.205.74.284 1.11h-53.731c-12.427 0-22.5 10.08-22.5 22.5v72.48c-.374-.08-.741-.17-1.101-.28-2.576-.79-5.3.67-6.085 3.24a4.88 4.88 0 0 0 3.24 6.09c1.667.5 3.414.82 5.212.93 3.077 8.76 11.422 15.04 21.234 15.04h60ZM511.302 1554.75a4.88 4.88 0 0 1-3.241 6.09c-2.575.78-5.3-.67-6.085-3.24-.636-2.09-.976-4.3-.976-6.57v-7.08a4.875 4.875 0 1 1 9.75 0v7.08c0 1.3.194 2.55.552 3.72ZM510.75 1520.59c0 2.69-2.183 4.87-4.875 4.87a4.873 4.873 0 0 1-4.875-4.87v-14.16c0-2.69 2.183-4.87 4.875-4.87a4.873 4.873 0 0 1 4.875 4.87v14.16ZM510.75 1483.08c0 2.69-2.183 4.87-4.875 4.87a4.873 4.873 0 0 1-4.875-4.87V1476c0-2.78.414-5.46 1.187-8a4.884 4.884 0 0 1 6.086-3.24 4.88 4.88 0 0 1 3.24 6.09 17.601 17.601 0 0 0-.763 5.15v7.08ZM523.224 1459.14c-2.575.78-5.3-.67-6.085-3.24a4.88 4.88 0 0 1 3.24-6.09 27.49 27.49 0 0 1 7.996-1.19h4.846a4.88 4.88 0 0 1 4.875 4.88c0 2.69-2.182 4.87-4.875 4.87h-4.846c-1.8 0-3.528.27-5.151.77ZM591.176 1449.6a4.874 4.874 0 0 1 3.241 6.08 4.882 4.882 0 0 1-6.086 3.25 12.72 12.72 0 0 0-3.734-.56h-5.761a4.872 4.872 0 0 1-4.875-4.87 4.88 4.88 0 0 1 4.875-4.88h5.761c2.281 0 4.492.34 6.579.98ZM549.214 1458.37a4.873 4.873 0 0 1-4.875-4.87c0-2.69 2.183-4.88 4.875-4.88h10.608a4.88 4.88 0 0 1 4.875 4.88c0 2.69-2.182 4.87-4.875 4.87h-10.608Z"/></g></g></g><g id="Black-M"><g id="Solid / Copy Solid_10"><g id="Shape_10" fill="#000"><path d="M2961.95 1143.52c9.67 0 17.5-7.84 17.5-17.5v-58.34c0-8.7-6.35-15.92-14.67-17.27-.12-1.13-.34-2.24-.67-3.3-.61-2-2.73-3.13-4.73-2.52-2 .61-3.13 2.73-2.52 4.73.08.28.16.57.22.86h-41.79c-9.67 0-17.5 7.84-17.5 17.5v56.38c-.29-.06-.58-.14-.86-.22-2-.61-4.12.52-4.73 2.52-.61 2 .52 4.12 2.52 4.73 1.3.4 2.65.65 4.05.73 2.4 6.81 8.89 11.7 16.52 11.7h46.66ZM2890.34 1117.25c.62 2-.51 4.12-2.52 4.73-2 .62-4.12-.51-4.73-2.52-.49-1.62-.76-3.33-.76-5.11v-5.5c0-2.1 1.7-3.79 3.79-3.79 2.1 0 3.8 1.69 3.8 3.79v5.5c0 1.02.15 1.99.42 2.9ZM2889.92 1090.68c0 2.1-1.7 3.79-3.8 3.79-2.09 0-3.79-1.69-3.79-3.79v-11.01a3.796 3.796 0 0 1 7.59 0v11.01ZM2889.92 1061.5c0 2.1-1.7 3.8-3.8 3.8-2.09 0-3.79-1.7-3.79-3.8v-5.5c0-2.16.32-4.25.93-6.22.61-2 2.73-3.13 4.73-2.52 2 .61 3.13 2.73 2.52 4.73-.39 1.27-.59 2.61-.59 4.01v5.5ZM2899.62 1042.88a3.792 3.792 0 1 1-2.22-7.25c1.98-.6 4.07-.92 6.22-.92h3.77c2.1 0 3.79 1.69 3.79 3.79 0 2.09-1.69 3.79-3.79 3.79h-3.77c-1.4 0-2.74.21-4 .59ZM2952.47 1035.47c2 .61 3.13 2.73 2.52 4.73-.61 2-2.73 3.13-4.73 2.52-.92-.28-1.89-.43-2.91-.43h-4.48c-2.09 0-3.79-1.7-3.79-3.79 0-2.1 1.7-3.79 3.79-3.79h4.48c1.78 0 3.5.26 5.12.76ZM2919.83 1042.29c-2.09 0-3.79-1.7-3.79-3.79 0-2.1 1.7-3.79 3.79-3.79h8.25c2.1 0 3.79 1.69 3.79 3.79 0 2.09-1.69 3.79-3.79 3.79h-8.25Z"/></g></g></g><g id="Heavy-M"><g id="Solid / Copy Solid_11"><g id="Shape_11" fill="#000"><path d="M2665.95 1143.52c9.67 0 17.5-7.84 17.5-17.5v-58.34c0-8.7-6.35-15.92-14.67-17.27-.12-1.13-.34-2.24-.67-3.3-.61-2-2.73-3.13-4.73-2.52-2 .61-3.13 2.73-2.52 4.73.08.28.16.57.22.86h-41.79c-9.67 0-17.5 7.84-17.5 17.5v56.38c-.29-.06-.58-.14-.86-.22-2-.61-4.12.52-4.73 2.52-.61 2 .52 4.12 2.52 4.73 1.3.4 2.65.65 4.05.73 2.4 6.81 8.89 11.7 16.52 11.7h46.66ZM2594.34 1117.25c.62 2-.51 4.12-2.52 4.73-2 .62-4.12-.51-4.73-2.52-.49-1.62-.76-3.33-.76-5.11v-5.5c0-2.1 1.7-3.79 3.79-3.79 2.1 0 3.8 1.69 3.8 3.79v5.5c0 1.02.15 1.99.42 2.9ZM2593.92 1090.68c0 2.1-1.7 3.79-3.8 3.79-2.09 0-3.79-1.69-3.79-3.79v-11.01a3.796 3.796 0 0 1 7.59 0v11.01ZM2593.92 1061.5c0 2.1-1.7 3.8-3.8 3.8-2.09 0-3.79-1.7-3.79-3.8v-5.5c0-2.16.32-4.25.93-6.22.61-2 2.73-3.13 4.73-2.52 2 .61 3.13 2.73 2.52 4.73-.39 1.27-.59 2.61-.59 4.01v5.5ZM2603.62 1042.88a3.792 3.792 0 1 1-2.22-7.25c1.98-.6 4.07-.92 6.22-.92h3.77c2.1 0 3.79 1.69 3.79 3.79 0 2.09-1.69 3.79-3.79 3.79h-3.77c-1.4 0-2.74.21-4 .59ZM2656.47 1035.47c2 .61 3.13 2.73 2.52 4.73-.61 2-2.73 3.13-4.73 2.52-.92-.28-1.89-.43-2.91-.43h-4.48c-2.09 0-3.79-1.7-3.79-3.79 0-2.1 1.7-3.79 3.79-3.79h4.48c1.78 0 3.5.26 5.12.76ZM2623.83 1042.29c-2.09 0-3.79-1.7-3.79-3.79 0-2.1 1.7-3.79 3.79-3.79h8.25c2.1 0 3.79 1.69 3.79 3.79 0 2.09-1.69 3.79-3.79 3.79h-8.25Z"/></g></g></g><g id="Bold-M"><g id="Solid / Copy Solid_12"><g id="Shape_12" fill="#000"><path d="M2369.95 1143.52c9.67 0 17.5-7.84 17.5-17.5v-58.34c0-8.7-6.35-15.92-14.67-17.27-.12-1.13-.34-2.24-.67-3.3-.61-2-2.73-3.13-4.73-2.52-2 .61-3.13 2.73-2.52 4.73.08.28.16.57.22.86h-41.79c-9.67 0-17.5 7.84-17.5 17.5v56.38c-.29-.06-.58-.14-.86-.22-2-.61-4.12.52-4.73 2.52-.61 2 .52 4.12 2.52 4.73 1.3.4 2.65.65 4.05.73 2.4 6.81 8.89 11.7 16.52 11.7h46.66ZM2298.34 1117.25c.62 2-.51 4.12-2.52 4.73-2 .62-4.12-.51-4.73-2.52-.49-1.62-.76-3.33-.76-5.11v-5.5c0-2.1 1.7-3.79 3.79-3.79 2.1 0 3.8 1.69 3.8 3.79v5.5c0 1.02.15 1.99.42 2.9ZM2297.92 1090.68c0 2.1-1.7 3.79-3.8 3.79-2.09 0-3.79-1.69-3.79-3.79v-11.01a3.796 3.796 0 0 1 7.59 0v11.01ZM2297.92 1061.5c0 2.1-1.7 3.8-3.8 3.8-2.09 0-3.79-1.7-3.79-3.8v-5.5c0-2.16.32-4.25.93-6.22.61-2 2.73-3.13 4.73-2.52 2 .61 3.13 2.73 2.52 4.73-.39 1.27-.59 2.61-.59 4.01v5.5ZM2307.62 1042.88a3.792 3.792 0 1 1-2.22-7.25c1.98-.6 4.07-.92 6.22-.92h3.77c2.1 0 3.79 1.69 3.79 3.79 0 2.09-1.69 3.79-3.79 3.79h-3.77c-1.4 0-2.74.21-4 .59ZM2360.47 1035.47c2 .61 3.13 2.73 2.52 4.73-.61 2-2.73 3.13-4.73 2.52-.92-.28-1.89-.43-2.91-.43h-4.48c-2.09 0-3.79-1.7-3.79-3.79 0-2.1 1.7-3.79 3.79-3.79h4.48c1.78 0 3.5.26 5.12.76ZM2327.83 1042.29c-2.09 0-3.79-1.7-3.79-3.79 0-2.1 1.7-3.79 3.79-3.79h8.25c2.1 0 3.79 1.69 3.79 3.79 0 2.09-1.69 3.79-3.79 3.79h-8.25Z"/></g></g></g><g id="Semibold-M"><g id="Solid / Copy Solid_13"><g id="Shape_13" fill="#000"><path d="M2073.95 1143.52c9.67 0 17.5-7.84 17.5-17.5v-58.34c0-8.7-6.35-15.92-14.67-17.27-.12-1.13-.34-2.24-.67-3.3-.61-2-2.73-3.13-4.73-2.52-2 .61-3.13 2.73-2.52 4.73.08.28.16.57.22.86h-41.79c-9.67 0-17.5 7.84-17.5 17.5v56.38c-.29-.06-.58-.14-.86-.22-2-.61-4.12.52-4.73 2.52-.61 2 .52 4.12 2.52 4.73 1.3.4 2.65.65 4.05.73 2.4 6.81 8.89 11.7 16.52 11.7h46.66ZM2002.34 1117.25c.62 2-.51 4.12-2.52 4.73-2 .62-4.12-.51-4.73-2.52-.49-1.62-.76-3.33-.76-5.11v-5.5c0-2.1 1.7-3.79 3.79-3.79 2.1 0 3.8 1.69 3.8 3.79v5.5c0 1.02.15 1.99.42 2.9ZM2001.92 1090.68c0 2.1-1.7 3.79-3.8 3.79-2.09 0-3.79-1.69-3.79-3.79v-11.01a3.796 3.796 0 0 1 7.59 0v11.01ZM2001.92 1061.5c0 2.1-1.7 3.8-3.8 3.8-2.09 0-3.79-1.7-3.79-3.8v-5.5c0-2.16.32-4.25.93-6.22.61-2 2.73-3.13 4.73-2.52 2 .61 3.13 2.73 2.52 4.73-.39 1.27-.59 2.61-.59 4.01v5.5ZM2011.62 1042.88a3.792 3.792 0 1 1-2.22-7.25c1.98-.6 4.07-.92 6.22-.92h3.77c2.1 0 3.79 1.69 3.79 3.79 0 2.09-1.69 3.79-3.79 3.79h-3.77c-1.4 0-2.74.21-4 .59ZM2064.47 1035.47c2 .61 3.13 2.73 2.52 4.73-.61 2-2.73 3.13-4.73 2.52-.92-.28-1.89-.43-2.91-.43h-4.48c-2.09 0-3.79-1.7-3.79-3.79 0-2.1 1.7-3.79 3.79-3.79h4.48c1.78 0 3.5.26 5.12.76ZM2031.83 1042.29c-2.09 0-3.79-1.7-3.79-3.79 0-2.1 1.7-3.79 3.79-3.79h8.25c2.1 0 3.79 1.69 3.79 3.79 0 2.09-1.69 3.79-3.79 3.79h-8.25Z"/></g></g></g><g id="Medium-M"><g id="Solid / Copy Solid_14"><g id="Shape_14" fill="#000"><path d="M1777.95 1143.52c9.67 0 17.5-7.84 17.5-17.5v-58.34c0-8.7-6.35-15.92-14.67-17.27-.12-1.13-.34-2.24-.67-3.3-.61-2-2.73-3.13-4.73-2.52-2 .61-3.13 2.73-2.52 4.73.08.28.16.57.22.86h-41.79c-9.67 0-17.5 7.84-17.5 17.5v56.38c-.29-.06-.58-.14-.86-.22-2-.61-4.12.52-4.73 2.52-.61 2 .52 4.12 2.52 4.73 1.3.4 2.65.65 4.05.73 2.4 6.81 8.89 11.7 16.52 11.7h46.66ZM1706.34 1117.25c.62 2-.51 4.12-2.52 4.73-2 .62-4.12-.51-4.73-2.52-.49-1.62-.76-3.33-.76-5.11v-5.5c0-2.1 1.7-3.79 3.79-3.79 2.1 0 3.8 1.69 3.8 3.79v5.5c0 1.02.15 1.99.42 2.9ZM1705.92 1090.68c0 2.1-1.7 3.79-3.8 3.79-2.09 0-3.79-1.69-3.79-3.79v-11.01a3.796 3.796 0 0 1 7.59 0v11.01ZM1705.92 1061.5c0 2.1-1.7 3.8-3.8 3.8-2.09 0-3.79-1.7-3.79-3.8v-5.5c0-2.16.32-4.25.93-6.22.61-2 2.73-3.13 4.73-2.52 2 .61 3.13 2.73 2.52 4.73-.39 1.27-.59 2.61-.59 4.01v5.5ZM1715.62 1042.88a3.792 3.792 0 1 1-2.22-7.25c1.98-.6 4.07-.92 6.22-.92h3.77c2.1 0 3.79 1.69 3.79 3.79 0 2.09-1.69 3.79-3.79 3.79h-3.77c-1.4 0-2.74.21-4 .59ZM1768.47 1035.47c2 .61 3.13 2.73 2.52 4.73-.61 2-2.73 3.13-4.73 2.52-.92-.28-1.89-.43-2.91-.43h-4.48c-2.09 0-3.79-1.7-3.79-3.79 0-2.1 1.7-3.79 3.79-3.79h4.48c1.78 0 3.5.26 5.12.76ZM1735.83 1042.29c-2.09 0-3.79-1.7-3.79-3.79 0-2.1 1.7-3.79 3.79-3.79h8.25c2.1 0 3.79 1.69 3.79 3.79 0 2.09-1.69 3.79-3.79 3.79h-8.25Z"/></g></g></g><g id="Regular-M"><g id="Solid / Copy Solid_15"><g id="Shape_15" fill="#000"><path d="M1481.95 1143.52c9.67 0 17.5-7.84 17.5-17.5v-58.34c0-8.7-6.35-15.92-14.67-17.27-.12-1.13-.34-2.24-.67-3.3-.61-2-2.73-3.13-4.73-2.52-2 .61-3.13 2.73-2.52 4.73.08.28.16.57.22.86h-41.79c-9.67 0-17.5 7.84-17.5 17.5v56.38c-.29-.06-.58-.14-.86-.22-2-.61-4.12.52-4.73 2.52-.61 2 .52 4.12 2.52 4.73 1.3.4 2.65.65 4.05.73 2.4 6.81 8.89 11.7 16.52 11.7h46.66ZM1410.34 1117.25c.62 2-.51 4.12-2.52 4.73-2 .62-4.12-.51-4.73-2.52-.49-1.62-.76-3.33-.76-5.11v-5.5c0-2.1 1.7-3.79 3.79-3.79 2.1 0 3.8 1.69 3.8 3.79v5.5c0 1.02.15 1.99.42 2.9ZM1409.92 1090.68c0 2.1-1.7 3.79-3.8 3.79-2.09 0-3.79-1.69-3.79-3.79v-11.01a3.796 3.796 0 0 1 7.59 0v11.01ZM1409.92 1061.5c0 2.1-1.7 3.8-3.8 3.8-2.09 0-3.79-1.7-3.79-3.8v-5.5c0-2.16.32-4.25.93-6.22.61-2 2.73-3.13 4.73-2.52 2 .61 3.13 2.73 2.52 4.73-.39 1.27-.59 2.61-.59 4.01v5.5ZM1419.62 1042.88a3.792 3.792 0 1 1-2.22-7.25c1.98-.6 4.07-.92 6.22-.92h3.77c2.1 0 3.79 1.69 3.79 3.79 0 2.09-1.69 3.79-3.79 3.79h-3.77c-1.4 0-2.74.21-4 .59ZM1472.47 1035.47c2 .61 3.13 2.73 2.52 4.73-.61 2-2.73 3.13-4.73 2.52-.92-.28-1.89-.43-2.91-.43h-4.48c-2.09 0-3.79-1.7-3.79-3.79 0-2.1 1.7-3.79 3.79-3.79h4.48c1.78 0 3.5.26 5.12.76ZM1439.83 1042.29c-2.09 0-3.79-1.7-3.79-3.79 0-2.1 1.7-3.79 3.79-3.79h8.25c2.1 0 3.79 1.69 3.79 3.79 0 2.09-1.69 3.79-3.79 3.79h-8.25Z"/></g></g></g><g id="Light-M"><g id="Solid / Copy Solid_16"><g id="Shape_16" fill="#000"><path d="M1185.95 1143.52c9.67 0 17.5-7.84 17.5-17.5v-58.34c0-8.7-6.35-15.92-14.67-17.27-.12-1.13-.34-2.24-.67-3.3-.61-2-2.73-3.13-4.73-2.52-2 .61-3.13 2.73-2.52 4.73.08.28.16.57.22.86h-41.79c-9.67 0-17.5 7.84-17.5 17.5v56.38c-.29-.06-.58-.14-.86-.22-2-.61-4.12.52-4.73 2.52-.61 2 .52 4.12 2.52 4.73 1.3.4 2.65.65 4.05.73 2.4 6.81 8.89 11.7 16.52 11.7h46.66ZM1114.34 1117.25c.62 2-.51 4.12-2.52 4.73-2 .62-4.12-.51-4.73-2.52-.49-1.62-.76-3.33-.76-5.11v-5.5c0-2.1 1.7-3.79 3.79-3.79 2.1 0 3.8 1.69 3.8 3.79v5.5c0 1.02.15 1.99.42 2.9ZM1113.92 1090.68c0 2.1-1.7 3.79-3.8 3.79-2.09 0-3.79-1.69-3.79-3.79v-11.01a3.796 3.796 0 0 1 7.59 0v11.01ZM1113.92 1061.5c0 2.1-1.7 3.8-3.8 3.8-2.09 0-3.79-1.7-3.79-3.8v-5.5c0-2.16.32-4.25.93-6.22.61-2 2.73-3.13 4.73-2.52 2 .61 3.13 2.73 2.52 4.73-.39 1.27-.59 2.61-.59 4.01v5.5ZM1123.62 1042.88a3.792 3.792 0 1 1-2.22-7.25c1.98-.6 4.07-.92 6.22-.92h3.77c2.1 0 3.79 1.69 3.79 3.79 0 2.09-1.69 3.79-3.79 3.79h-3.77c-1.4 0-2.74.21-4 .59ZM1176.47 1035.47c2 .61 3.13 2.73 2.52 4.73-.61 2-2.73 3.13-4.73 2.52-.92-.28-1.89-.43-2.91-.43h-4.48c-2.09 0-3.79-1.7-3.79-3.79 0-2.1 1.7-3.79 3.79-3.79h4.48c1.78 0 3.5.26 5.12.76ZM1143.83 1042.29c-2.09 0-3.79-1.7-3.79-3.79 0-2.1 1.7-3.79 3.79-3.79h8.25c2.1 0 3.79 1.69 3.79 3.79 0 2.09-1.69 3.79-3.79 3.79h-8.25Z"/></g></g></g><g id="Thin-M"><g id="Solid / Copy Solid_17"><g id="Shape_17" fill="#000"><path d="M889.954 1143.52c9.665 0 17.5-7.84 17.5-17.5v-58.34c0-8.7-6.354-15.92-14.676-17.27a17.47 17.47 0 0 0-.667-3.3c-.611-2-2.73-3.13-4.733-2.52a3.79 3.79 0 0 0-2.52 4.73c.086.28.159.57.22.86h-41.79c-9.665 0-17.5 7.84-17.5 17.5v56.38c-.291-.06-.577-.14-.857-.22a3.79 3.79 0 1 0-2.212 7.25c1.297.4 2.655.65 4.053.73 2.394 6.81 8.884 11.7 16.516 11.7h46.666ZM818.345 1117.25c.61 2-.518 4.12-2.521 4.73a3.779 3.779 0 0 1-4.733-2.52 17.464 17.464 0 0 1-.759-5.11v-5.5c0-2.1 1.698-3.79 3.792-3.79a3.786 3.786 0 0 1 3.791 3.79v5.5c0 1.02.151 1.99.43 2.9ZM817.915 1090.68c0 2.1-1.697 3.79-3.791 3.79a3.787 3.787 0 0 1-3.792-3.79v-11.01a3.792 3.792 0 0 1 7.583 0v11.01ZM817.915 1061.5c0 2.1-1.697 3.8-3.791 3.8a3.795 3.795 0 0 1-3.792-3.8v-5.5c0-2.16.322-4.25.924-6.22a3.79 3.79 0 1 1 7.253 2.21 13.77 13.77 0 0 0-.594 4.01v5.5ZM827.617 1042.88a3.779 3.779 0 0 1-4.733-2.52 3.79 3.79 0 0 1 2.521-4.73c1.972-.6 4.061-.92 6.219-.92h3.769a3.787 3.787 0 0 1 3.792 3.79c0 2.09-1.698 3.79-3.792 3.79h-3.769c-1.4 0-2.744.21-4.007.59ZM880.469 1035.47a3.79 3.79 0 1 1-2.213 7.25 9.893 9.893 0 0 0-2.904-.43h-4.481a3.793 3.793 0 0 1-3.792-3.79c0-2.1 1.698-3.79 3.792-3.79h4.481c1.774 0 3.494.26 5.117.76ZM847.832 1042.29a3.793 3.793 0 0 1-3.792-3.79c0-2.1 1.698-3.79 3.792-3.79h8.251a3.786 3.786 0 0 1 3.791 3.79c0 2.09-1.697 3.79-3.791 3.79h-8.251Z"/></g></g></g><g id="Ultralight-M"><g id="Solid / Copy Solid_18"><g id="Shape_18" fill="#000"><path d="M593.954 1143.52c9.665 0 17.5-7.84 17.5-17.5v-58.34c0-8.7-6.354-15.92-14.676-17.27a17.47 17.47 0 0 0-.667-3.3c-.611-2-2.73-3.13-4.733-2.52a3.79 3.79 0 0 0-2.52 4.73c.086.28.159.57.22.86h-41.79c-9.665 0-17.5 7.84-17.5 17.5v56.38c-.291-.06-.577-.14-.857-.22a3.79 3.79 0 1 0-2.212 7.25c1.297.4 2.655.65 4.053.73 2.394 6.81 8.884 11.7 16.516 11.7h46.666ZM522.345 1117.25c.61 2-.518 4.12-2.521 4.73a3.779 3.779 0 0 1-4.733-2.52 17.464 17.464 0 0 1-.759-5.11v-5.5c0-2.1 1.698-3.79 3.792-3.79a3.786 3.786 0 0 1 3.791 3.79v5.5c0 1.02.151 1.99.43 2.9ZM521.915 1090.68c0 2.1-1.697 3.79-3.791 3.79a3.787 3.787 0 0 1-3.792-3.79v-11.01a3.792 3.792 0 0 1 7.583 0v11.01ZM521.915 1061.5c0 2.1-1.697 3.8-3.791 3.8a3.795 3.795 0 0 1-3.792-3.8v-5.5c0-2.16.322-4.25.924-6.22a3.79 3.79 0 1 1 7.253 2.21 13.77 13.77 0 0 0-.594 4.01v5.5ZM531.617 1042.88a3.779 3.779 0 0 1-4.733-2.52 3.79 3.79 0 0 1 2.521-4.73c1.972-.6 4.061-.92 6.219-.92h3.769a3.787 3.787 0 0 1 3.792 3.79c0 2.09-1.698 3.79-3.792 3.79h-3.769c-1.4 0-2.744.21-4.007.59ZM584.469 1035.47a3.79 3.79 0 1 1-2.213 7.25 9.893 9.893 0 0 0-2.904-.43h-4.481a3.793 3.793 0 0 1-3.792-3.79c0-2.1 1.698-3.79 3.792-3.79h4.481c1.774 0 3.494.26 5.117.76ZM551.832 1042.29a3.793 3.793 0 0 1-3.792-3.79c0-2.1 1.698-3.79 3.792-3.79h8.251a3.786 3.786 0 0 1 3.791 3.79c0 2.09-1.697 3.79-3.791 3.79h-8.251Z"/></g></g></g><g id="Black-S"><g id="Solid / Copy Solid_19"><g id="Shape_19" fill="#000"><path d="M2952.54 698.512c6.9 0 12.5-5.597 12.5-12.5v-41.667c0-6.217-4.54-11.374-10.48-12.338-.09-.81-.25-1.599-.48-2.358a2.706 2.706 0 0 0-3.38-1.801 2.706 2.706 0 0 0-1.8 3.381c.06.201.11.407.16.616h-29.85c-6.91 0-12.5 5.596-12.5 12.5v40.267a6.641 6.641 0 0 1-.61-.157 2.706 2.706 0 0 0-3.38 1.801 2.705 2.705 0 0 0 1.8 3.38c.92.283 1.89.46 2.89.52 1.71 4.867 6.35 8.356 11.8 8.356h33.33ZM2901.39 679.75a2.706 2.706 0 0 1-1.8 3.381 2.71 2.71 0 0 1-3.38-1.8 12.608 12.608 0 0 1-.54-3.651v-3.932a2.704 2.704 0 1 1 5.41 0v3.932c0 .725.11 1.419.31 2.07ZM2901.08 660.772a2.705 2.705 0 1 1-5.41 0v-7.865a2.704 2.704 0 1 1 5.41 0v7.865ZM2901.08 639.931a2.705 2.705 0 1 1-5.41 0v-3.933c0-1.541.23-3.033.66-4.442a2.706 2.706 0 0 1 3.38-1.8 2.706 2.706 0 0 1 1.8 3.381 9.63 9.63 0 0 0-.43 2.861v3.933ZM2908.01 626.631a2.71 2.71 0 0 1-3.38-1.801 2.713 2.713 0 0 1 1.8-3.38c1.41-.43 2.91-.66 4.45-.66h2.69c1.49 0 2.71 1.213 2.71 2.708a2.714 2.714 0 0 1-2.71 2.709h-2.69c-1 0-1.96.149-2.87.424ZM2945.77 621.333a2.714 2.714 0 0 1 1.8 3.381 2.71 2.71 0 0 1-3.38 1.8 7.153 7.153 0 0 0-2.08-.307h-3.2a2.707 2.707 0 1 1 0-5.417h3.2c1.27 0 2.5.189 3.66.543ZM2922.45 626.207c-1.49 0-2.7-1.213-2.7-2.709a2.705 2.705 0 0 1 2.7-2.708h5.9c1.49 0 2.71 1.213 2.71 2.708a2.714 2.714 0 0 1-2.71 2.709h-5.9Z"/></g></g></g><g id="Heavy-S"><g id="Solid / Copy Solid_20"><g id="Shape_20" fill="#000"><path d="M2656.54 698.512c6.9 0 12.5-5.597 12.5-12.5v-41.667c0-6.217-4.54-11.374-10.48-12.338-.09-.81-.25-1.599-.48-2.358a2.706 2.706 0 0 0-3.38-1.801 2.706 2.706 0 0 0-1.8 3.381c.06.201.11.407.16.616h-29.85c-6.91 0-12.5 5.596-12.5 12.5v40.267a6.641 6.641 0 0 1-.61-.157 2.706 2.706 0 0 0-3.38 1.801 2.705 2.705 0 0 0 1.8 3.38c.92.283 1.89.46 2.89.52 1.71 4.867 6.35 8.356 11.8 8.356h33.33ZM2605.39 679.75a2.706 2.706 0 0 1-1.8 3.381 2.71 2.71 0 0 1-3.38-1.8 12.608 12.608 0 0 1-.54-3.651v-3.932a2.704 2.704 0 1 1 5.41 0v3.932c0 .725.11 1.419.31 2.07ZM2605.08 660.772a2.705 2.705 0 1 1-5.41 0v-7.865a2.704 2.704 0 1 1 5.41 0v7.865ZM2605.08 639.931a2.705 2.705 0 1 1-5.41 0v-3.933c0-1.541.23-3.033.66-4.442a2.706 2.706 0 0 1 3.38-1.8 2.706 2.706 0 0 1 1.8 3.381 9.63 9.63 0 0 0-.43 2.861v3.933ZM2612.01 626.631a2.71 2.71 0 0 1-3.38-1.801 2.713 2.713 0 0 1 1.8-3.38c1.41-.43 2.91-.66 4.45-.66h2.69c1.49 0 2.71 1.213 2.71 2.708a2.714 2.714 0 0 1-2.71 2.709h-2.69c-1 0-1.96.149-2.87.424ZM2649.77 621.333a2.714 2.714 0 0 1 1.8 3.381 2.71 2.71 0 0 1-3.38 1.8 7.153 7.153 0 0 0-2.08-.307h-3.2a2.707 2.707 0 1 1 0-5.417h3.2c1.27 0 2.5.189 3.66.543ZM2626.45 626.207c-1.49 0-2.7-1.213-2.7-2.709a2.705 2.705 0 0 1 2.7-2.708h5.9c1.49 0 2.71 1.213 2.71 2.708a2.714 2.714 0 0 1-2.71 2.709h-5.9Z"/></g></g></g><g id="Bold-S"><g id="Solid / Copy Solid_21"><g id="Shape_21" fill="#000"><path d="M2360.54 698.512c6.9 0 12.5-5.597 12.5-12.5v-41.667c0-6.217-4.54-11.374-10.48-12.338-.09-.81-.25-1.599-.48-2.358a2.706 2.706 0 0 0-3.38-1.801 2.706 2.706 0 0 0-1.8 3.381c.06.201.11.407.16.616h-29.85c-6.91 0-12.5 5.596-12.5 12.5v40.267a6.641 6.641 0 0 1-.61-.157 2.706 2.706 0 0 0-3.38 1.801 2.705 2.705 0 0 0 1.8 3.38c.92.283 1.89.46 2.89.52 1.71 4.867 6.35 8.356 11.8 8.356h33.33ZM2309.39 679.75a2.706 2.706 0 0 1-1.8 3.381 2.71 2.71 0 0 1-3.38-1.8 12.608 12.608 0 0 1-.54-3.651v-3.932a2.704 2.704 0 1 1 5.41 0v3.932c0 .725.11 1.419.31 2.07ZM2309.08 660.772a2.705 2.705 0 1 1-5.41 0v-7.865a2.704 2.704 0 1 1 5.41 0v7.865ZM2309.08 639.931a2.705 2.705 0 1 1-5.41 0v-3.933c0-1.541.23-3.033.66-4.442a2.706 2.706 0 0 1 3.38-1.8 2.706 2.706 0 0 1 1.8 3.381 9.63 9.63 0 0 0-.43 2.861v3.933ZM2316.01 626.631a2.71 2.71 0 0 1-3.38-1.801 2.713 2.713 0 0 1 1.8-3.38c1.41-.43 2.91-.66 4.45-.66h2.69c1.49 0 2.71 1.213 2.71 2.708a2.714 2.714 0 0 1-2.71 2.709h-2.69c-1 0-1.96.149-2.87.424ZM2353.77 621.333a2.714 2.714 0 0 1 1.8 3.381 2.71 2.71 0 0 1-3.38 1.8 7.153 7.153 0 0 0-2.08-.307h-3.2a2.707 2.707 0 1 1 0-5.417h3.2c1.27 0 2.5.189 3.66.543ZM2330.45 626.207c-1.49 0-2.7-1.213-2.7-2.709a2.705 2.705 0 0 1 2.7-2.708h5.9c1.49 0 2.71 1.213 2.71 2.708a2.714 2.714 0 0 1-2.71 2.709h-5.9Z"/></g></g></g><g id="Semibold-S"><g id="Solid / Copy Solid_22"><g id="Shape_22" fill="#000"><path d="M2064.54 698.512c6.9 0 12.5-5.597 12.5-12.5v-41.667c0-6.217-4.54-11.374-10.48-12.338-.09-.81-.25-1.599-.48-2.358a2.706 2.706 0 0 0-3.38-1.801 2.706 2.706 0 0 0-1.8 3.381c.06.201.11.407.16.616h-29.85c-6.91 0-12.5 5.596-12.5 12.5v40.267a6.641 6.641 0 0 1-.61-.157 2.706 2.706 0 0 0-3.38 1.801 2.705 2.705 0 0 0 1.8 3.38c.92.283 1.89.46 2.89.52 1.71 4.867 6.35 8.356 11.8 8.356h33.33ZM2013.39 679.75a2.706 2.706 0 0 1-1.8 3.381 2.71 2.71 0 0 1-3.38-1.8 12.608 12.608 0 0 1-.54-3.651v-3.932a2.704 2.704 0 1 1 5.41 0v3.932c0 .725.11 1.419.31 2.07ZM2013.08 660.772a2.705 2.705 0 1 1-5.41 0v-7.865a2.704 2.704 0 1 1 5.41 0v7.865ZM2013.08 639.931a2.705 2.705 0 1 1-5.41 0v-3.933c0-1.541.23-3.033.66-4.442a2.706 2.706 0 0 1 3.38-1.8 2.706 2.706 0 0 1 1.8 3.381 9.63 9.63 0 0 0-.43 2.861v3.933ZM2020.01 626.631a2.71 2.71 0 0 1-3.38-1.801 2.713 2.713 0 0 1 1.8-3.38c1.41-.43 2.91-.66 4.45-.66h2.69c1.49 0 2.71 1.213 2.71 2.708a2.714 2.714 0 0 1-2.71 2.709h-2.69c-1 0-1.96.149-2.87.424ZM2057.77 621.333a2.714 2.714 0 0 1 1.8 3.381 2.71 2.71 0 0 1-3.38 1.8 7.153 7.153 0 0 0-2.08-.307h-3.2a2.707 2.707 0 1 1 0-5.417h3.2c1.27 0 2.5.189 3.66.543ZM2034.45 626.207c-1.49 0-2.7-1.213-2.7-2.709a2.705 2.705 0 0 1 2.7-2.708h5.9c1.49 0 2.71 1.213 2.71 2.708a2.714 2.714 0 0 1-2.71 2.709h-5.9Z"/></g></g></g><g id="Medium-S"><g id="Solid / Copy Solid_23"><g id="Shape_23" fill="#000"><path d="M1768.54 698.512c6.9 0 12.5-5.597 12.5-12.5v-41.667c0-6.217-4.54-11.374-10.48-12.338-.09-.81-.25-1.599-.48-2.358a2.706 2.706 0 0 0-3.38-1.801 2.706 2.706 0 0 0-1.8 3.381c.06.201.11.407.16.616h-29.85c-6.91 0-12.5 5.596-12.5 12.5v40.267a6.641 6.641 0 0 1-.61-.157 2.706 2.706 0 0 0-3.38 1.801 2.705 2.705 0 0 0 1.8 3.38c.92.283 1.89.46 2.89.52 1.71 4.867 6.35 8.356 11.8 8.356h33.33ZM1717.39 679.75a2.706 2.706 0 0 1-1.8 3.381 2.71 2.71 0 0 1-3.38-1.8 12.608 12.608 0 0 1-.54-3.651v-3.932a2.704 2.704 0 1 1 5.41 0v3.932c0 .725.11 1.419.31 2.07ZM1717.08 660.772a2.705 2.705 0 1 1-5.41 0v-7.865a2.704 2.704 0 1 1 5.41 0v7.865ZM1717.08 639.931a2.705 2.705 0 1 1-5.41 0v-3.933c0-1.541.23-3.033.66-4.442a2.706 2.706 0 0 1 3.38-1.8 2.706 2.706 0 0 1 1.8 3.381 9.63 9.63 0 0 0-.43 2.861v3.933ZM1724.01 626.631a2.71 2.71 0 0 1-3.38-1.801 2.713 2.713 0 0 1 1.8-3.38c1.41-.43 2.91-.66 4.45-.66h2.69c1.49 0 2.71 1.213 2.71 2.708a2.714 2.714 0 0 1-2.71 2.709h-2.69c-1 0-1.96.149-2.87.424ZM1761.77 621.333a2.714 2.714 0 0 1 1.8 3.381 2.71 2.71 0 0 1-3.38 1.8 7.153 7.153 0 0 0-2.08-.307h-3.2a2.707 2.707 0 1 1 0-5.417h3.2c1.27 0 2.5.189 3.66.543ZM1738.45 626.207c-1.49 0-2.7-1.213-2.7-2.709a2.705 2.705 0 0 1 2.7-2.708h5.9c1.49 0 2.71 1.213 2.71 2.708a2.714 2.714 0 0 1-2.71 2.709h-5.9Z"/></g></g></g><g id="Regular-S"><g id="Solid / Copy Solid_24"><g id="Shape_24" fill="#000"><path d="M1472.54 698.512c6.9 0 12.5-5.597 12.5-12.5v-41.667c0-6.217-4.54-11.374-10.48-12.338-.09-.81-.25-1.599-.48-2.358a2.706 2.706 0 0 0-3.38-1.801 2.706 2.706 0 0 0-1.8 3.381c.06.201.11.407.16.616h-29.85c-6.91 0-12.5 5.596-12.5 12.5v40.267a6.641 6.641 0 0 1-.61-.157 2.706 2.706 0 0 0-3.38 1.801 2.705 2.705 0 0 0 1.8 3.38c.92.283 1.89.46 2.89.52 1.71 4.867 6.35 8.356 11.8 8.356h33.33ZM1421.39 679.75a2.706 2.706 0 0 1-1.8 3.381 2.71 2.71 0 0 1-3.38-1.8 12.608 12.608 0 0 1-.54-3.651v-3.932a2.704 2.704 0 1 1 5.41 0v3.932c0 .725.11 1.419.31 2.07ZM1421.08 660.772a2.705 2.705 0 1 1-5.41 0v-7.865a2.704 2.704 0 1 1 5.41 0v7.865ZM1421.08 639.931a2.705 2.705 0 1 1-5.41 0v-3.933c0-1.541.23-3.033.66-4.442a2.706 2.706 0 0 1 3.38-1.8 2.706 2.706 0 0 1 1.8 3.381 9.63 9.63 0 0 0-.43 2.861v3.933ZM1428.01 626.631a2.71 2.71 0 0 1-3.38-1.801 2.713 2.713 0 0 1 1.8-3.38c1.41-.43 2.91-.66 4.45-.66h2.69c1.49 0 2.71 1.213 2.71 2.708a2.714 2.714 0 0 1-2.71 2.709h-2.69c-1 0-1.96.149-2.87.424ZM1465.77 621.333a2.714 2.714 0 0 1 1.8 3.381 2.71 2.71 0 0 1-3.38 1.8 7.153 7.153 0 0 0-2.08-.307h-3.2a2.707 2.707 0 1 1 0-5.417h3.2c1.27 0 2.5.189 3.66.543ZM1442.45 626.207c-1.49 0-2.7-1.213-2.7-2.709a2.705 2.705 0 0 1 2.7-2.708h5.9c1.49 0 2.71 1.213 2.71 2.708a2.714 2.714 0 0 1-2.71 2.709h-5.9Z"/></g></g></g><g id="Light-S"><g id="Solid / Copy Solid_25"><g id="Shape_25" fill="#000"><path d="M1176.54 698.512c6.9 0 12.5-5.597 12.5-12.5v-41.667c0-6.217-4.54-11.374-10.48-12.338-.09-.81-.25-1.599-.48-2.358a2.706 2.706 0 0 0-3.38-1.801 2.706 2.706 0 0 0-1.8 3.381c.06.201.11.407.16.616h-29.85c-6.91 0-12.5 5.596-12.5 12.5v40.267a6.641 6.641 0 0 1-.61-.157 2.706 2.706 0 0 0-3.38 1.801 2.705 2.705 0 0 0 1.8 3.38c.92.283 1.89.46 2.89.52 1.71 4.867 6.35 8.356 11.8 8.356h33.33ZM1125.39 679.75a2.706 2.706 0 0 1-1.8 3.381 2.71 2.71 0 0 1-3.38-1.8 12.608 12.608 0 0 1-.54-3.651v-3.932a2.704 2.704 0 1 1 5.41 0v3.932c0 .725.11 1.419.31 2.07ZM1125.08 660.772a2.705 2.705 0 1 1-5.41 0v-7.865a2.704 2.704 0 1 1 5.41 0v7.865ZM1125.08 639.931a2.705 2.705 0 1 1-5.41 0v-3.933c0-1.541.23-3.033.66-4.442a2.706 2.706 0 0 1 3.38-1.8 2.706 2.706 0 0 1 1.8 3.381 9.63 9.63 0 0 0-.43 2.861v3.933ZM1132.01 626.631a2.71 2.71 0 0 1-3.38-1.801 2.713 2.713 0 0 1 1.8-3.38c1.41-.43 2.91-.66 4.45-.66h2.69c1.49 0 2.71 1.213 2.71 2.708a2.714 2.714 0 0 1-2.71 2.709h-2.69c-1 0-1.96.149-2.87.424ZM1169.77 621.333a2.714 2.714 0 0 1 1.8 3.381 2.71 2.71 0 0 1-3.38 1.8 7.153 7.153 0 0 0-2.08-.307h-3.2a2.707 2.707 0 1 1 0-5.417h3.2c1.27 0 2.5.189 3.66.543ZM1146.45 626.207c-1.49 0-2.7-1.213-2.7-2.709a2.705 2.705 0 0 1 2.7-2.708h5.9c1.49 0 2.71 1.213 2.71 2.708a2.714 2.714 0 0 1-2.71 2.709h-5.9Z"/></g></g></g><g id="Thin-S"><g id="Solid / Copy Solid_26"><g id="Shape_26" fill="#000"><path d="M880.541 698.512c6.904 0 12.5-5.597 12.5-12.5v-41.667c0-6.217-4.539-11.374-10.483-12.338a12.539 12.539 0 0 0-.476-2.358 2.71 2.71 0 0 0-5.181 1.58c.061.201.114.407.157.616h-29.85c-6.904 0-12.5 5.596-12.5 12.5v40.267a6.854 6.854 0 0 1-.612-.157 2.71 2.71 0 0 0-1.58 5.181c.926.283 1.896.46 2.895.52 1.71 4.867 6.346 8.356 11.797 8.356h33.333ZM829.391 679.75a2.707 2.707 0 1 1-5.181 1.581 12.507 12.507 0 0 1-.542-3.651v-3.932a2.708 2.708 0 0 1 5.417 0v3.932c0 .725.108 1.419.306 2.07ZM829.085 660.772a2.709 2.709 0 0 1-5.417 0v-7.865a2.708 2.708 0 0 1 5.417 0v7.865ZM829.085 639.931a2.709 2.709 0 0 1-5.417 0v-3.933c0-1.541.23-3.033.66-4.442a2.708 2.708 0 0 1 5.181 1.581 9.793 9.793 0 0 0-.424 2.861v3.933ZM836.015 626.631a2.709 2.709 0 0 1-1.581-5.181c1.409-.43 2.901-.66 4.442-.66h2.693a2.708 2.708 0 0 1 0 5.417h-2.693c-.999 0-1.96.149-2.861.424ZM873.766 621.333a2.71 2.71 0 0 1-1.581 5.181 7.097 7.097 0 0 0-2.074-.307h-3.201a2.708 2.708 0 0 1 0-5.417h3.201c1.267 0 2.495.189 3.655.543ZM850.454 626.207a2.71 2.71 0 0 1 0-5.417h5.893a2.708 2.708 0 0 1 0 5.417h-5.893Z"/></g></g></g><g id="Ultralight-S"><g id="Solid / Copy Solid_27"><g id="Shape_27" fill="#000"><path d="M584.541 698.512c6.904 0 12.5-5.597 12.5-12.5v-41.667c0-6.217-4.539-11.374-10.483-12.338a12.539 12.539 0 0 0-.476-2.358 2.71 2.71 0 0 0-5.181 1.58c.061.201.114.407.157.616h-29.85c-6.904 0-12.5 5.596-12.5 12.5v40.267a6.854 6.854 0 0 1-.612-.157 2.71 2.71 0 0 0-1.58 5.181c.926.283 1.896.46 2.895.52 1.71 4.867 6.346 8.356 11.797 8.356h33.333ZM533.391 679.75a2.707 2.707 0 1 1-5.181 1.581 12.507 12.507 0 0 1-.542-3.651v-3.932a2.708 2.708 0 0 1 5.417 0v3.932c0 .725.108 1.419.306 2.07ZM533.085 660.772a2.709 2.709 0 0 1-5.417 0v-7.865a2.708 2.708 0 0 1 5.417 0v7.865ZM533.085 639.931a2.709 2.709 0 0 1-5.417 0v-3.933c0-1.541.23-3.033.66-4.442a2.708 2.708 0 0 1 5.181 1.581 9.793 9.793 0 0 0-.424 2.861v3.933ZM540.015 626.631a2.709 2.709 0 0 1-1.581-5.181c1.409-.43 2.901-.66 4.442-.66h2.693a2.708 2.708 0 0 1 0 5.417h-2.693c-.999 0-1.96.149-2.861.424ZM577.766 621.333a2.71 2.71 0 0 1-1.581 5.181 7.097 7.097 0 0 0-2.074-.307h-3.201a2.708 2.708 0 0 1 0-5.417h3.201c1.267 0 2.495.189 3.655.543ZM554.454 626.207a2.71 2.71 0 0 1 0-5.417h5.893a2.708 2.708 0 0 1 0 5.417h-5.893Z"/></g></g></g></g></g><defs><clipPath id="clip0_0_1"><path fill="#fff" d="M0 0h3300v2200H0z"/></clipPath></defs></svg>