<svg width="3300" height="2200" viewBox="0 0 3300 2200" fill="none" xmlns="http://www.w3.org/2000/svg">
<rect width="3300" height="2200" fill="#E5E5E5"/>
<g id="Category / Outline / Layers" clip-path="url(#clip0_0_1)">
<g id="Notes">
<path id="artboard" d="M3300 0H0V2200H3300V0Z" fill="white"/>
<path id="Vector" d="M263 292H3036" stroke="black" stroke-width="0.5"/>
<text id="Weight/Scale Variations" fill="black" xml:space="preserve" style="white-space: pre" font-family="Roboto" font-size="12" letter-spacing="0em"><tspan x="263" y="321.102">Weight/Scale Variations</tspan></text>
<text id="Ultralight" fill="black" xml:space="preserve" style="white-space: pre" font-family="Roboto" font-size="12" letter-spacing="0em"><tspan x="535.211" y="321.102">Ultralight</tspan></text>
<text id="Thin" fill="black" xml:space="preserve" style="white-space: pre" font-family="Roboto" font-size="12" letter-spacing="0em"><tspan x="844.422" y="321.102">Thin</tspan></text>
<text id="Light" fill="black" xml:space="preserve" style="white-space: pre" font-family="Roboto" font-size="12" letter-spacing="0em"><tspan x="1139.63" y="321.102">Light</tspan></text>
<text id="Regular" fill="black" xml:space="preserve" style="white-space: pre" font-family="Roboto" font-size="12" letter-spacing="0em"><tspan x="1429.34" y="321.102">Regular</tspan></text>
<text id="Medium" fill="black" xml:space="preserve" style="white-space: pre" font-family="Roboto" font-size="12" letter-spacing="0em"><tspan x="1724.56" y="321.102">Medium</tspan></text>
<text id="Semibold" fill="black" xml:space="preserve" style="white-space: pre" font-family="Roboto" font-size="12" letter-spacing="0em"><tspan x="2017.77" y="321.102">Semibold</tspan></text>
<text id="Bold" fill="black" xml:space="preserve" style="white-space: pre" font-family="Roboto" font-size="12" letter-spacing="0em"><tspan x="2327.48" y="321.102">Bold</tspan></text>
<text id="Heavy" fill="black" xml:space="preserve" style="white-space: pre" font-family="Roboto" font-size="12" letter-spacing="0em"><tspan x="2620.19" y="321.102">Heavy</tspan></text>
<text id="Black" fill="black" xml:space="preserve" style="white-space: pre" font-family="Roboto" font-size="12" letter-spacing="0em"><tspan x="2918.4" y="321.102">Black</tspan></text>
<path id="Vector_2" d="M263 1903H3036" stroke="black" stroke-width="0.5"/>
<g id="Group">
<path id="Vector_3" d="M272.248 1933.83C276.555 1933.83 280.139 1930.26 280.139 1925.95C280.139 1921.64 276.545 1918.07 272.238 1918.07C267.941 1918.07 264.367 1921.64 264.367 1925.95C264.367 1930.26 267.951 1933.83 272.248 1933.83ZM272.248 1932.35C268.703 1932.35 265.871 1929.51 265.871 1925.95C265.871 1922.4 268.693 1919.55 272.238 1919.55C275.793 1919.55 278.635 1922.4 278.644 1925.95C278.654 1929.51 275.803 1932.35 272.248 1932.35ZM272.229 1929.57C272.697 1929.57 272.971 1929.26 272.971 1928.74V1926.68H275.197C275.695 1926.68 276.037 1926.43 276.037 1925.96C276.037 1925.48 275.715 1925.22 275.197 1925.22H272.971V1922.99C272.971 1922.47 272.697 1922.15 272.229 1922.15C271.76 1922.15 271.506 1922.49 271.506 1922.99V1925.22H269.299C268.781 1925.22 268.449 1925.48 268.449 1925.96C268.449 1926.43 268.801 1926.68 269.299 1926.68H271.506V1928.74C271.506 1929.24 271.76 1929.57 272.229 1929.57Z" fill="black"/>
</g>
<g id="Group_2">
<path id="Vector_4" d="M293.215 1935.91C298.664 1935.91 303.176 1931.4 303.176 1925.95C303.176 1920.51 298.654 1915.99 293.205 1915.99C287.766 1915.99 283.254 1920.51 283.254 1925.95C283.254 1931.4 287.775 1935.91 293.215 1935.91ZM293.215 1934.25C288.605 1934.25 284.924 1930.56 284.924 1925.95C284.924 1921.35 288.596 1917.65 293.205 1917.65C297.814 1917.65 301.506 1921.35 301.516 1925.95C301.525 1930.56 297.824 1934.25 293.215 1934.25ZM293.195 1930.59C293.713 1930.59 294.025 1930.23 294.025 1929.66V1926.77H297.082C297.629 1926.77 298.01 1926.49 298.01 1925.97C298.01 1925.44 297.648 1925.14 297.082 1925.14H294.025V1922.07C294.025 1921.5 293.713 1921.14 293.195 1921.14C292.678 1921.14 292.385 1921.52 292.385 1922.07V1925.14H289.338C288.771 1925.14 288.4 1925.44 288.4 1925.97C288.4 1926.49 288.791 1926.77 289.338 1926.77H292.385V1929.66C292.385 1930.21 292.678 1930.59 293.195 1930.59Z" fill="black"/>
</g>
<g id="Group_3">
<path id="Vector_5" d="M319.895 1938.67C326.857 1938.67 332.619 1932.92 332.619 1925.96C332.619 1918.99 326.848 1913.24 319.885 1913.24C312.932 1913.24 307.18 1918.99 307.18 1925.96C307.18 1932.92 312.941 1938.67 319.895 1938.67ZM319.895 1936.86C313.859 1936.86 309.006 1931.99 309.006 1925.96C309.006 1919.92 313.85 1915.06 319.885 1915.06C325.93 1915.06 330.783 1919.92 330.793 1925.96C330.803 1931.99 325.939 1936.86 319.895 1936.86ZM319.875 1931.93C320.441 1931.93 320.793 1931.54 320.793 1930.94V1926.87H325.031C325.617 1926.87 326.037 1926.53 326.037 1925.98C326.037 1925.4 325.647 1925.06 325.031 1925.06H320.793V1920.81C320.793 1920.2 320.441 1919.8 319.875 1919.8C319.309 1919.8 318.986 1920.21 318.986 1920.81V1925.06H314.758C314.143 1925.06 313.732 1925.4 313.732 1925.98C313.732 1926.53 314.162 1926.87 314.758 1926.87H318.986V1930.94C318.986 1931.52 319.309 1931.93 319.875 1931.93Z" fill="black"/>
</g>
<text id="Design Variations" fill="black" xml:space="preserve" style="white-space: pre" font-family="Roboto" font-size="12" letter-spacing="0em"><tspan x="263" y="1952.1">Design Variations</tspan></text>
<text id="Symbols are supported in up to nine weights and three scales." fill="black" xml:space="preserve" style="white-space: pre" font-family="Roboto" font-size="12" letter-spacing="0em"><tspan x="263" y="1970.1">Symbols are supported in up to nine weights and three scales.</tspan></text>
<text id="For optimal layout with text and other symbols, vertically align" fill="black" xml:space="preserve" style="white-space: pre" font-family="Roboto" font-size="12" letter-spacing="0em"><tspan x="263" y="1988.1">For optimal layout with text and other symbols, vertically align</tspan></text>
<text id="symbols with the adjacent text." fill="black" xml:space="preserve" style="white-space: pre" font-family="Roboto" font-size="12" letter-spacing="0em"><tspan x="263" y="2006.1">symbols with the adjacent text.</tspan></text>
<path id="Vector_6" opacity="0.4" d="M779 1919H776V1933H779V1919Z" fill="#00AEEF"/>
<g id="Group_4">
<path id="Vector_7" d="M789.525 1933H791.371L786.176 1918.91H784.437L779.242 1933H781.088L782.504 1928.96H788.109L789.525 1933ZM785.277 1921.04H785.336L787.592 1927.47H783.021L785.277 1921.04Z" fill="black"/>
</g>
<path id="Vector_8" opacity="0.4" d="M794.617 1919H791.617V1933H794.617V1919Z" fill="#00AEEF"/>
<text id="Margins" fill="black" xml:space="preserve" style="white-space: pre" font-family="Roboto" font-size="12" letter-spacing="0em"><tspan x="776" y="1952.1">Margins</tspan></text>
<text id="Leading and trailing margins on the left and right side of each symbol" fill="black" xml:space="preserve" style="white-space: pre" font-family="Roboto" font-size="12" letter-spacing="0em"><tspan x="776" y="1970.1">Leading and trailing margins on the left and right side of each symbol</tspan></text>
<text id="can be adjusted by modifying the width of the blue rectangles." fill="black" xml:space="preserve" style="white-space: pre" font-family="Roboto" font-size="12" letter-spacing="0em"><tspan x="776" y="1988.1">can be adjusted by modifying the width of the blue rectangles.</tspan></text>
<text id="Modifications are automatically applied proportionally to all" fill="black" xml:space="preserve" style="white-space: pre" font-family="Roboto" font-size="12" letter-spacing="0em"><tspan x="776" y="2006.1">Modifications are automatically applied proportionally to all</tspan></text>
<text id="scales and weights." fill="black" xml:space="preserve" style="white-space: pre" font-family="Roboto" font-size="12" letter-spacing="0em"><tspan x="776" y="2024.1">scales and weights.</tspan></text>
<g id="Group_5">
<path id="Vector_9" d="M1291.83 1936.11L1293.37 1937.66C1294.22 1938.49 1295.19 1938.42 1296.06 1937.46L1306.27 1926.34C1306.7 1926.63 1307.1 1926.62 1307.56 1926.52L1308.61 1926.31L1309.3 1927L1309.25 1927.52C1309.19 1928.05 1309.35 1928.47 1309.85 1928.97L1310.66 1929.78C1311.17 1930.28 1311.82 1930.31 1312.3 1929.83L1315.55 1926.58C1316.03 1926.1 1316.01 1925.45 1315.5 1924.94L1314.68 1924.12C1314.19 1923.62 1313.77 1923.45 1313.24 1923.53L1312.71 1923.58L1312.06 1922.92L1312.34 1921.78C1312.49 1921.21 1312.34 1920.74 1311.71 1920.14L1309.3 1917.75C1305.76 1914.22 1301.23 1914.33 1298.11 1917.46C1297.69 1917.89 1297.64 1918.48 1297.92 1918.91C1298.15 1919.28 1298.63 1919.5 1299.27 1919.34C1300.79 1918.96 1302.3 1919.07 1303.78 1920.08L1303.16 1921.66C1302.93 1922.25 1302.94 1922.73 1303.18 1923.16L1292.02 1933.44C1291.08 1934.31 1290.97 1935.25 1291.83 1936.11ZM1299.67 1917.85C1302.34 1915.86 1305.65 1916.17 1308.05 1918.58L1310.68 1921.19C1310.91 1921.43 1310.94 1921.61 1310.88 1921.91L1310.5 1923.47L1312.08 1925.04L1313.04 1924.95C1313.33 1924.92 1313.41 1924.94 1313.64 1925.17L1314.26 1925.79L1311.51 1928.54L1310.88 1927.92C1310.66 1927.7 1310.64 1927.6 1310.67 1927.32L1310.76 1926.36L1309.19 1924.8L1307.57 1925.11C1307.29 1925.17 1307.14 1925.17 1306.91 1924.92L1304.73 1922.75C1304.51 1922.51 1304.48 1922.37 1304.61 1922.05L1305.55 1919.78C1303.95 1918.24 1301.84 1917.39 1299.8 1918.05C1299.71 1918.08 1299.64 1918.06 1299.61 1918.02C1299.59 1917.97 1299.59 1917.92 1299.67 1917.85ZM1293.1 1935.41C1292.61 1934.91 1292.79 1934.61 1293.12 1934.31L1304.08 1924.19L1305.31 1925.42L1295.15 1936.35C1294.85 1936.68 1294.47 1936.78 1294.07 1936.38L1293.1 1935.41Z" fill="black"/>
</g>
<text id="Exporting" fill="black" xml:space="preserve" style="white-space: pre" font-family="Roboto" font-size="12" letter-spacing="0em"><tspan x="1289" y="1952.1">Exporting</tspan></text>
<text id="Symbols should be outlined when exporting to ensure the" fill="black" xml:space="preserve" style="white-space: pre" font-family="Roboto" font-size="12" letter-spacing="0em"><tspan x="1289" y="1970.1">Symbols should be outlined when exporting to ensure the</tspan></text>
<text id="design is preserved when submitting to Xcode." fill="black" xml:space="preserve" style="white-space: pre" font-family="Roboto" font-size="12" letter-spacing="0em"><tspan x="1289" y="1988.1">design is preserved when submitting to Xcode.</tspan></text>
<text id="template-version" fill="black" xml:space="preserve" style="white-space: pre" font-family="Roboto" font-size="12" letter-spacing="0em"><tspan x="2958" y="1932.1">Template v.1.0</tspan></text>
<text id="Generated from pencil.circle" fill="black" xml:space="preserve" style="white-space: pre" font-family="Roboto" font-size="12" letter-spacing="0em"><tspan x="2885" y="1950.1">Generated from pencil.circle</tspan></text>
<text id="Typeset at 100 points" fill="black" xml:space="preserve" style="white-space: pre" font-family="Roboto" font-size="12" letter-spacing="0em"><tspan x="2921" y="1968.1">Typeset at 100 points</tspan></text>
<text id="Small" fill="black" xml:space="preserve" style="white-space: pre" font-family="Roboto" font-size="12" letter-spacing="0em"><tspan x="263" y="725.102">Small</tspan></text>
<text id="Medium_2" fill="black" xml:space="preserve" style="white-space: pre" font-family="Roboto" font-size="12" letter-spacing="0em"><tspan x="263" y="1155.1">Medium</tspan></text>
<text id="Large" fill="black" xml:space="preserve" style="white-space: pre" font-family="Roboto" font-size="12" letter-spacing="0em"><tspan x="263" y="1585.1">Large</tspan></text>
</g>
<g id="Guides">
<g id="H-reference">
<path id="Vector_10" d="M393.932 695.998H396.666L369.566 625.539H367.076L339.977 695.998H342.662L351.94 671.535H384.703L393.932 695.998ZM368.199 628.908H368.443L383.824 669.289H352.818L368.199 628.908Z" fill="#27AAE1"/>
</g>
<path id="Baseline-S" d="M263 696H3036" stroke="#27AAE1" stroke-width="0.577"/>
<path id="Capline-S" d="M263 626H3036" stroke="#27AAE1" stroke-width="0.577"/>
<g id="H-reference_2">
<path id="Vector_11" d="M393.932 1126H396.666L369.566 1055.54H367.076L339.977 1126H342.662L351.94 1101.54H384.703L393.932 1126ZM368.199 1058.91H368.443L383.824 1099.29H352.818L368.199 1058.91Z" fill="#27AAE1"/>
</g>
<path id="Baseline-M" d="M263 1126H3036" stroke="#27AAE1" stroke-width="0.577"/>
<path id="Capline-M" d="M263 1056H3036" stroke="#27AAE1" stroke-width="0.577"/>
<g id="H-reference_3">
<path id="Vector_12" d="M393.932 1556H396.666L369.566 1485.54H367.076L339.977 1556H342.662L351.94 1531.54H384.703L393.932 1556ZM368.199 1488.91H368.443L383.824 1529.29H352.818L368.199 1488.91Z" fill="#27AAE1"/>
</g>
<g id="Group 1">
<path id="Baseline-L" d="M263 1556H3036" stroke="#27AAE1" stroke-width="0.577"/>
<path id="Capline-L" d="M263 1486H3036" stroke="#27AAE1" stroke-width="0.577"/>
</g>
<path id="left-margin" opacity="0.4" d="M1393.04 1030.79H1384.3V1150.12H1393.04V1030.79Z" fill="#00AEEF"/>
<path id="right-margin" opacity="0.4" d="M1513.39 1030.79H1504.65V1150.12H1513.39V1030.79Z" fill="#00AEEF"/>
</g>
<g id="Symbols">
<g id="Black-L">
<g id="Outline / Layers Outline">
<path id="Shape" fill-rule="evenodd" clip-rule="evenodd" d="M2941.24 1458.38C2933.53 1454.53 2924.46 1454.53 2916.75 1458.38L2860.63 1486.44C2856.48 1488.52 2856.48 1494.43 2860.63 1496.51L2880.33 1506.36L2860.63 1516.21C2856.48 1518.28 2856.48 1524.2 2860.63 1526.27L2880.33 1536.12L2861.15 1545.71C2857 1547.79 2857 1553.7 2861.15 1555.78L2916.75 1583.58C2924.46 1587.43 2933.53 1587.43 2941.23 1583.58L2996.84 1555.78C3000.98 1553.7 3000.98 1547.79 2996.84 1545.71L2977.66 1536.12L2997.36 1526.27C3001.51 1524.2 3001.51 1518.28 2997.36 1516.21L2977.66 1506.36L2997.36 1496.51C3001.51 1494.43 3001.51 1488.52 2997.36 1486.44L2941.24 1458.38ZM2921.11 1467.1C2926.07 1464.62 2931.91 1464.62 2936.87 1467.1L2985.62 1491.48L2936.87 1515.85C2931.91 1518.33 2926.07 1518.33 2921.11 1515.85L2872.36 1491.48L2921.11 1467.1ZM2966.76 1511.81L2941.24 1524.57C2933.53 1528.42 2924.46 1528.42 2916.75 1524.57L2891.23 1511.81L2872.36 1521.24L2921.11 1545.61C2926.07 1548.09 2931.91 1548.09 2936.87 1545.61L2985.62 1521.24L2966.76 1511.81ZM2872.89 1550.74L2891.23 1541.57L2916.75 1554.33C2924.46 1558.19 2933.53 1558.19 2941.24 1554.33L2966.76 1541.57L2985.1 1550.74L2936.87 1574.86C2931.91 1577.34 2926.07 1577.34 2921.11 1574.86L2872.89 1550.74Z" fill="black"/>
</g>
</g>
<g id="Heavy-L">
<g id="Outline / Layers Outline_2">
<path id="Shape_2" fill-rule="evenodd" clip-rule="evenodd" d="M2645.24 1458.38C2637.53 1454.53 2628.46 1454.53 2620.75 1458.38L2564.63 1486.44C2560.48 1488.52 2560.48 1494.43 2564.63 1496.51L2584.33 1506.36L2564.63 1516.21C2560.48 1518.28 2560.48 1524.2 2564.63 1526.27L2584.33 1536.12L2565.15 1545.71C2561 1547.79 2561 1553.7 2565.15 1555.78L2620.75 1583.58C2628.46 1587.43 2637.53 1587.43 2645.23 1583.58L2700.84 1555.78C2704.98 1553.7 2704.98 1547.79 2700.84 1545.71L2681.66 1536.12L2701.36 1526.27C2705.51 1524.2 2705.51 1518.28 2701.36 1516.21L2681.66 1506.36L2701.36 1496.51C2705.51 1494.43 2705.51 1488.52 2701.36 1486.44L2645.24 1458.38ZM2625.11 1467.1C2630.07 1464.62 2635.91 1464.62 2640.87 1467.1L2689.62 1491.48L2640.87 1515.85C2635.91 1518.33 2630.07 1518.33 2625.11 1515.85L2576.36 1491.48L2625.11 1467.1ZM2670.76 1511.81L2645.24 1524.57C2637.53 1528.42 2628.46 1528.42 2620.75 1524.57L2595.23 1511.81L2576.36 1521.24L2625.11 1545.61C2630.07 1548.09 2635.91 1548.09 2640.87 1545.61L2689.62 1521.24L2670.76 1511.81ZM2576.89 1550.74L2595.23 1541.57L2620.75 1554.33C2628.46 1558.19 2637.53 1558.19 2645.24 1554.33L2670.76 1541.57L2689.1 1550.74L2640.87 1574.86C2635.91 1577.34 2630.07 1577.34 2625.11 1574.86L2576.89 1550.74Z" fill="black"/>
</g>
</g>
<g id="Bold-L">
<g id="Outline / Layers Outline_3">
<path id="Shape_3" fill-rule="evenodd" clip-rule="evenodd" d="M2349.24 1458.38C2341.53 1454.53 2332.46 1454.53 2324.75 1458.38L2268.63 1486.44C2264.48 1488.52 2264.48 1494.43 2268.63 1496.51L2288.33 1506.36L2268.63 1516.21C2264.48 1518.28 2264.48 1524.2 2268.63 1526.27L2288.33 1536.12L2269.15 1545.71C2265 1547.79 2265 1553.7 2269.15 1555.78L2324.75 1583.58C2332.46 1587.43 2341.53 1587.43 2349.23 1583.58L2404.84 1555.78C2408.98 1553.7 2408.98 1547.79 2404.84 1545.71L2385.66 1536.12L2405.36 1526.27C2409.51 1524.2 2409.51 1518.28 2405.36 1516.21L2385.66 1506.36L2405.36 1496.51C2409.51 1494.43 2409.51 1488.52 2405.36 1486.44L2349.24 1458.38ZM2329.11 1467.1C2334.07 1464.62 2339.91 1464.62 2344.87 1467.1L2393.62 1491.48L2344.87 1515.85C2339.91 1518.33 2334.07 1518.33 2329.11 1515.85L2280.36 1491.48L2329.11 1467.1ZM2374.76 1511.81L2349.24 1524.57C2341.53 1528.42 2332.46 1528.42 2324.75 1524.57L2299.23 1511.81L2280.36 1521.24L2329.11 1545.61C2334.07 1548.09 2339.91 1548.09 2344.87 1545.61L2393.62 1521.24L2374.76 1511.81ZM2280.89 1550.74L2299.23 1541.57L2324.75 1554.33C2332.46 1558.19 2341.53 1558.19 2349.24 1554.33L2374.76 1541.57L2393.1 1550.74L2344.87 1574.86C2339.91 1577.34 2334.07 1577.34 2329.11 1574.86L2280.89 1550.74Z" fill="black"/>
</g>
</g>
<g id="Semibold-L">
<g id="Outline / Layers Outline_4">
<path id="Shape_4" fill-rule="evenodd" clip-rule="evenodd" d="M2053.24 1458.38C2045.53 1454.53 2036.46 1454.53 2028.75 1458.38L1972.63 1486.44C1968.48 1488.52 1968.48 1494.43 1972.63 1496.51L1992.33 1506.36L1972.63 1516.21C1968.48 1518.28 1968.48 1524.2 1972.63 1526.27L1992.33 1536.12L1973.15 1545.71C1969 1547.79 1969 1553.7 1973.15 1555.78L2028.75 1583.58C2036.46 1587.43 2045.53 1587.43 2053.23 1583.58L2108.84 1555.78C2112.98 1553.7 2112.98 1547.79 2108.84 1545.71L2089.66 1536.12L2109.36 1526.27C2113.51 1524.2 2113.51 1518.28 2109.36 1516.21L2089.66 1506.36L2109.36 1496.51C2113.51 1494.43 2113.51 1488.52 2109.36 1486.44L2053.24 1458.38ZM2033.11 1467.1C2038.07 1464.62 2043.91 1464.62 2048.87 1467.1L2097.62 1491.48L2048.87 1515.85C2043.91 1518.33 2038.07 1518.33 2033.11 1515.85L1984.36 1491.48L2033.11 1467.1ZM2078.76 1511.81L2053.24 1524.57C2045.53 1528.42 2036.46 1528.42 2028.75 1524.57L2003.23 1511.81L1984.36 1521.24L2033.11 1545.61C2038.07 1548.09 2043.91 1548.09 2048.87 1545.61L2097.62 1521.24L2078.76 1511.81ZM1984.89 1550.74L2003.23 1541.57L2028.75 1554.33C2036.46 1558.19 2045.53 1558.19 2053.24 1554.33L2078.76 1541.57L2097.1 1550.74L2048.87 1574.86C2043.91 1577.34 2038.07 1577.34 2033.11 1574.86L1984.89 1550.74Z" fill="black"/>
</g>
</g>
<g id="Medium-L">
<g id="Outline / Layers Outline_5">
<path id="Shape_5" fill-rule="evenodd" clip-rule="evenodd" d="M1757.24 1458.38C1749.53 1454.53 1740.46 1454.53 1732.75 1458.38L1676.63 1486.44C1672.48 1488.52 1672.48 1494.43 1676.63 1496.51L1696.33 1506.36L1676.63 1516.21C1672.48 1518.28 1672.48 1524.2 1676.63 1526.27L1696.33 1536.12L1677.15 1545.71C1673 1547.79 1673 1553.7 1677.15 1555.78L1732.75 1583.58C1740.46 1587.43 1749.53 1587.43 1757.23 1583.58L1812.84 1555.78C1816.98 1553.7 1816.98 1547.79 1812.84 1545.71L1793.66 1536.12L1813.36 1526.27C1817.51 1524.2 1817.51 1518.28 1813.36 1516.21L1793.66 1506.36L1813.36 1496.51C1817.51 1494.43 1817.51 1488.52 1813.36 1486.44L1757.24 1458.38ZM1737.11 1467.1C1742.07 1464.62 1747.91 1464.62 1752.87 1467.1L1801.62 1491.48L1752.87 1515.85C1747.91 1518.33 1742.07 1518.33 1737.11 1515.85L1688.36 1491.48L1737.11 1467.1ZM1782.76 1511.81L1757.24 1524.57C1749.53 1528.42 1740.46 1528.42 1732.75 1524.57L1707.23 1511.81L1688.36 1521.24L1737.11 1545.61C1742.07 1548.09 1747.91 1548.09 1752.87 1545.61L1801.62 1521.24L1782.76 1511.81ZM1688.89 1550.74L1707.23 1541.57L1732.75 1554.33C1740.46 1558.19 1749.53 1558.19 1757.24 1554.33L1782.76 1541.57L1801.1 1550.74L1752.87 1574.86C1747.91 1577.34 1742.07 1577.34 1737.11 1574.86L1688.89 1550.74Z" fill="black"/>
</g>
</g>
<g id="Regular-L">
<g id="Outline / Layers Outline_6">
<path id="Shape_6" fill-rule="evenodd" clip-rule="evenodd" d="M1461.24 1458.38C1453.53 1454.53 1444.46 1454.53 1436.75 1458.38L1380.63 1486.44C1376.48 1488.52 1376.48 1494.43 1380.63 1496.51L1400.33 1506.36L1380.63 1516.21C1376.48 1518.28 1376.48 1524.2 1380.63 1526.27L1400.33 1536.12L1381.15 1545.71C1377 1547.79 1377 1553.7 1381.15 1555.78L1436.75 1583.58C1444.46 1587.43 1453.53 1587.43 1461.23 1583.58L1516.84 1555.78C1520.98 1553.7 1520.98 1547.79 1516.84 1545.71L1497.66 1536.12L1517.36 1526.27C1521.51 1524.2 1521.51 1518.28 1517.36 1516.21L1497.66 1506.36L1517.36 1496.51C1521.51 1494.43 1521.51 1488.52 1517.36 1486.44L1461.24 1458.38ZM1441.11 1467.1C1446.07 1464.62 1451.91 1464.62 1456.87 1467.1L1505.62 1491.48L1456.87 1515.85C1451.91 1518.33 1446.07 1518.33 1441.11 1515.85L1392.36 1491.48L1441.11 1467.1ZM1486.76 1511.81L1461.24 1524.57C1453.53 1528.42 1444.46 1528.42 1436.75 1524.57L1411.23 1511.81L1392.36 1521.24L1441.11 1545.61C1446.07 1548.09 1451.91 1548.09 1456.87 1545.61L1505.62 1521.24L1486.76 1511.81ZM1392.89 1550.74L1411.23 1541.57L1436.75 1554.33C1444.46 1558.19 1453.53 1558.19 1461.24 1554.33L1486.76 1541.57L1505.1 1550.74L1456.87 1574.86C1451.91 1577.34 1446.07 1577.34 1441.11 1574.86L1392.89 1550.74Z" fill="black"/>
</g>
</g>
<g id="Light-L">
<g id="Outline / Layers Outline_7">
<path id="Shape_7" fill-rule="evenodd" clip-rule="evenodd" d="M1165.24 1458.38C1157.53 1454.53 1148.46 1454.53 1140.75 1458.38L1084.63 1486.44C1080.48 1488.52 1080.48 1494.43 1084.63 1496.51L1104.33 1506.36L1084.63 1516.21C1080.48 1518.28 1080.48 1524.2 1084.63 1526.27L1104.33 1536.12L1085.15 1545.71C1081 1547.79 1081 1553.7 1085.15 1555.78L1140.75 1583.58C1148.46 1587.43 1157.53 1587.43 1165.23 1583.58L1220.84 1555.78C1224.98 1553.7 1224.98 1547.79 1220.84 1545.71L1201.66 1536.12L1221.36 1526.27C1225.51 1524.2 1225.51 1518.28 1221.36 1516.21L1201.66 1506.36L1221.36 1496.51C1225.51 1494.43 1225.51 1488.52 1221.36 1486.44L1165.24 1458.38ZM1145.11 1467.1C1150.07 1464.62 1155.91 1464.62 1160.87 1467.1L1209.62 1491.48L1160.87 1515.85C1155.91 1518.33 1150.07 1518.33 1145.11 1515.85L1096.36 1491.48L1145.11 1467.1ZM1190.76 1511.81L1165.24 1524.57C1157.53 1528.42 1148.46 1528.42 1140.75 1524.57L1115.23 1511.81L1096.36 1521.24L1145.11 1545.61C1150.07 1548.09 1155.91 1548.09 1160.87 1545.61L1209.62 1521.24L1190.76 1511.81ZM1096.89 1550.74L1115.23 1541.57L1140.75 1554.33C1148.46 1558.19 1157.53 1558.19 1165.24 1554.33L1190.76 1541.57L1209.1 1550.74L1160.87 1574.86C1155.91 1577.34 1150.07 1577.34 1145.11 1574.86L1096.89 1550.74Z" fill="black"/>
</g>
</g>
<g id="Thin-L">
<g id="Outline / Layers Outline_8">
<path id="Shape_8" fill-rule="evenodd" clip-rule="evenodd" d="M869.235 1458.38C861.528 1454.53 852.457 1454.53 844.75 1458.38L788.625 1486.44C784.479 1488.52 784.479 1494.43 788.625 1496.51L808.327 1506.36L788.625 1516.21C784.479 1518.28 784.479 1524.2 788.625 1526.27L808.329 1536.12L789.148 1545.71C785.002 1547.79 785.002 1553.7 789.148 1555.78L844.75 1583.58C852.457 1587.43 861.528 1587.43 869.235 1583.58L924.837 1555.78C928.982 1553.7 928.982 1547.79 924.837 1545.71L905.656 1536.12L925.36 1526.27C929.506 1524.2 929.506 1518.28 925.36 1516.21L905.658 1506.36L925.36 1496.51C929.506 1494.43 929.506 1488.52 925.36 1486.44L869.235 1458.38ZM849.11 1467.1C854.072 1464.62 859.913 1464.62 864.875 1467.1L913.621 1491.48L864.875 1515.85C859.913 1518.33 854.072 1518.33 849.11 1515.85L800.364 1491.48L849.11 1467.1ZM894.757 1511.81L869.235 1524.57C861.528 1528.42 852.457 1528.42 844.75 1524.57L819.228 1511.81L800.364 1521.24L849.11 1545.61C854.072 1548.09 859.913 1548.09 864.875 1545.61L913.621 1521.24L894.757 1511.81ZM800.888 1550.74L819.23 1541.57L844.75 1554.33C852.457 1558.19 861.528 1558.19 869.235 1554.33L894.755 1541.57L913.097 1550.74L864.875 1574.86C859.913 1577.34 854.072 1577.34 849.11 1574.86L800.888 1550.74Z" fill="black"/>
</g>
</g>
<g id="Ultralight-L">
<g id="Outline / Layers Outline_9">
<path id="Shape_9" fill-rule="evenodd" clip-rule="evenodd" d="M573.235 1458.38C565.528 1454.53 556.457 1454.53 548.75 1458.38L492.625 1486.44C488.479 1488.52 488.479 1494.43 492.625 1496.51L512.327 1506.36L492.625 1516.21C488.479 1518.28 488.479 1524.2 492.625 1526.27L512.329 1536.12L493.148 1545.71C489.002 1547.79 489.002 1553.7 493.148 1555.78L548.75 1583.58C556.457 1587.43 565.528 1587.43 573.235 1583.58L628.837 1555.78C632.982 1553.7 632.982 1547.79 628.837 1545.71L609.656 1536.12L629.36 1526.27C633.506 1524.2 633.506 1518.28 629.36 1516.21L609.658 1506.36L629.36 1496.51C633.506 1494.43 633.506 1488.52 629.36 1486.44L573.235 1458.38ZM553.11 1467.1C558.072 1464.62 563.913 1464.62 568.875 1467.1L617.621 1491.48L568.875 1515.85C563.913 1518.33 558.072 1518.33 553.11 1515.85L504.364 1491.48L553.11 1467.1ZM598.757 1511.81L573.235 1524.57C565.528 1528.42 556.457 1528.42 548.75 1524.57L523.228 1511.81L504.364 1521.24L553.11 1545.61C558.072 1548.09 563.913 1548.09 568.875 1545.61L617.621 1521.24L598.757 1511.81ZM504.888 1550.74L523.23 1541.57L548.75 1554.33C556.457 1558.19 565.528 1558.19 573.235 1554.33L598.755 1541.57L617.097 1550.74L568.875 1574.86C563.913 1577.34 558.072 1577.34 553.11 1574.86L504.888 1550.74Z" fill="black"/>
</g>
</g>
<g id="Black-M">
<g id="Outline / Layers Outline_10">
<path id="Shape_10" fill-rule="evenodd" clip-rule="evenodd" d="M2938.52 1042.3C2932.52 1039.3 2925.47 1039.3 2919.47 1042.3L2875.82 1064.13C2872.6 1065.74 2872.6 1070.34 2875.82 1071.95L2891.14 1079.61L2875.82 1087.27C2872.6 1088.89 2872.6 1093.49 2875.82 1095.1L2891.15 1102.76L2876.23 1110.22C2873 1111.84 2873 1116.44 2876.23 1118.05L2919.47 1139.67C2925.47 1142.67 2932.52 1142.67 2938.52 1139.67L2981.76 1118.05C2984.99 1116.44 2984.99 1111.84 2981.76 1110.22L2966.84 1102.76L2982.17 1095.1C2985.39 1093.49 2985.39 1088.89 2982.17 1087.27L2966.85 1079.61L2982.17 1071.95C2985.39 1070.34 2985.39 1065.74 2982.17 1064.13L2938.52 1042.3ZM2922.86 1049.08C2926.72 1047.15 2931.27 1047.15 2935.13 1049.08L2973.04 1068.04L2935.13 1086.99C2931.27 1088.92 2926.72 1088.92 2922.86 1086.99L2884.95 1068.04L2922.86 1049.08ZM2958.37 1083.85L2938.52 1093.78C2932.52 1096.77 2925.47 1096.77 2919.47 1093.78L2899.62 1083.85L2884.95 1091.19L2922.86 1110.14C2926.72 1112.07 2931.27 1112.07 2935.13 1110.14L2973.04 1091.19L2958.37 1083.85ZM2885.36 1114.14L2899.62 1107L2919.47 1116.93C2925.47 1119.92 2932.52 1119.92 2938.52 1116.93L2958.37 1107L2972.63 1114.14L2935.13 1132.89C2931.27 1134.82 2926.72 1134.82 2922.86 1132.89L2885.36 1114.14Z" fill="black"/>
</g>
</g>
<g id="Heavy-M">
<g id="Outline / Layers Outline_11">
<path id="Shape_11" fill-rule="evenodd" clip-rule="evenodd" d="M2642.52 1042.3C2636.52 1039.3 2629.47 1039.3 2623.47 1042.3L2579.82 1064.13C2576.6 1065.74 2576.6 1070.34 2579.82 1071.95L2595.14 1079.61L2579.82 1087.27C2576.6 1088.89 2576.6 1093.49 2579.82 1095.1L2595.15 1102.76L2580.23 1110.22C2577 1111.84 2577 1116.44 2580.23 1118.05L2623.47 1139.67C2629.47 1142.67 2636.52 1142.67 2642.52 1139.67L2685.76 1118.05C2688.99 1116.44 2688.99 1111.84 2685.76 1110.22L2670.84 1102.76L2686.17 1095.1C2689.39 1093.49 2689.39 1088.89 2686.17 1087.27L2670.85 1079.61L2686.17 1071.95C2689.39 1070.34 2689.39 1065.74 2686.17 1064.13L2642.52 1042.3ZM2626.86 1049.08C2630.72 1047.15 2635.27 1047.15 2639.13 1049.08L2677.04 1068.04L2639.13 1086.99C2635.27 1088.92 2630.72 1088.92 2626.86 1086.99L2588.95 1068.04L2626.86 1049.08ZM2662.37 1083.85L2642.52 1093.78C2636.52 1096.77 2629.47 1096.77 2623.47 1093.78L2603.62 1083.85L2588.95 1091.19L2626.86 1110.14C2630.72 1112.07 2635.27 1112.07 2639.13 1110.14L2677.04 1091.19L2662.37 1083.85ZM2589.36 1114.14L2603.62 1107L2623.47 1116.93C2629.47 1119.92 2636.52 1119.92 2642.52 1116.93L2662.37 1107L2676.63 1114.14L2639.13 1132.89C2635.27 1134.82 2630.72 1134.82 2626.86 1132.89L2589.36 1114.14Z" fill="black"/>
</g>
</g>
<g id="Bold-M">
<g id="Outline / Layers Outline_12">
<path id="Shape_12" fill-rule="evenodd" clip-rule="evenodd" d="M2346.52 1042.3C2340.52 1039.3 2333.47 1039.3 2327.47 1042.3L2283.82 1064.13C2280.6 1065.74 2280.6 1070.34 2283.82 1071.95L2299.14 1079.61L2283.82 1087.27C2280.6 1088.89 2280.6 1093.49 2283.82 1095.1L2299.15 1102.76L2284.23 1110.22C2281 1111.84 2281 1116.44 2284.23 1118.05L2327.47 1139.67C2333.47 1142.67 2340.52 1142.67 2346.52 1139.67L2389.76 1118.05C2392.99 1116.44 2392.99 1111.84 2389.76 1110.22L2374.84 1102.76L2390.17 1095.1C2393.39 1093.49 2393.39 1088.89 2390.17 1087.27L2374.85 1079.61L2390.17 1071.95C2393.39 1070.34 2393.39 1065.74 2390.17 1064.13L2346.52 1042.3ZM2330.86 1049.08C2334.72 1047.15 2339.27 1047.15 2343.13 1049.08L2381.04 1068.04L2343.13 1086.99C2339.27 1088.92 2334.72 1088.92 2330.86 1086.99L2292.95 1068.04L2330.86 1049.08ZM2366.37 1083.85L2346.52 1093.78C2340.52 1096.77 2333.47 1096.77 2327.47 1093.78L2307.62 1083.85L2292.95 1091.19L2330.86 1110.14C2334.72 1112.07 2339.27 1112.07 2343.13 1110.14L2381.04 1091.19L2366.37 1083.85ZM2293.36 1114.14L2307.62 1107L2327.47 1116.93C2333.47 1119.92 2340.52 1119.92 2346.52 1116.93L2366.37 1107L2380.63 1114.14L2343.13 1132.89C2339.27 1134.82 2334.72 1134.82 2330.86 1132.89L2293.36 1114.14Z" fill="black"/>
</g>
</g>
<g id="Semibold-M">
<g id="Outline / Layers Outline_13">
<path id="Shape_13" fill-rule="evenodd" clip-rule="evenodd" d="M2050.52 1042.3C2044.52 1039.3 2037.47 1039.3 2031.47 1042.3L1987.82 1064.13C1984.6 1065.74 1984.6 1070.34 1987.82 1071.95L2003.14 1079.61L1987.82 1087.27C1984.6 1088.89 1984.6 1093.49 1987.82 1095.1L2003.15 1102.76L1988.23 1110.22C1985 1111.84 1985 1116.44 1988.23 1118.05L2031.47 1139.67C2037.47 1142.67 2044.52 1142.67 2050.52 1139.67L2093.76 1118.05C2096.99 1116.44 2096.99 1111.84 2093.76 1110.22L2078.84 1102.76L2094.17 1095.1C2097.39 1093.49 2097.39 1088.89 2094.17 1087.27L2078.85 1079.61L2094.17 1071.95C2097.39 1070.34 2097.39 1065.74 2094.17 1064.13L2050.52 1042.3ZM2034.86 1049.08C2038.72 1047.15 2043.27 1047.15 2047.13 1049.08L2085.04 1068.04L2047.13 1086.99C2043.27 1088.92 2038.72 1088.92 2034.86 1086.99L1996.95 1068.04L2034.86 1049.08ZM2070.37 1083.85L2050.52 1093.78C2044.52 1096.77 2037.47 1096.77 2031.47 1093.78L2011.62 1083.85L1996.95 1091.19L2034.86 1110.14C2038.72 1112.07 2043.27 1112.07 2047.13 1110.14L2085.04 1091.19L2070.37 1083.85ZM1997.36 1114.14L2011.62 1107L2031.47 1116.93C2037.47 1119.92 2044.52 1119.92 2050.52 1116.93L2070.37 1107L2084.63 1114.14L2047.13 1132.89C2043.27 1134.82 2038.72 1134.82 2034.86 1132.89L1997.36 1114.14Z" fill="black"/>
</g>
</g>
<g id="Medium-M">
<g id="Outline / Layers Outline_14">
<path id="Shape_14" fill-rule="evenodd" clip-rule="evenodd" d="M1754.52 1042.3C1748.52 1039.3 1741.47 1039.3 1735.47 1042.3L1691.82 1064.13C1688.6 1065.74 1688.6 1070.34 1691.82 1071.95L1707.14 1079.61L1691.82 1087.27C1688.6 1088.89 1688.6 1093.49 1691.82 1095.1L1707.15 1102.76L1692.23 1110.22C1689 1111.84 1689 1116.44 1692.23 1118.05L1735.47 1139.67C1741.47 1142.67 1748.52 1142.67 1754.52 1139.67L1797.76 1118.05C1800.99 1116.44 1800.99 1111.84 1797.76 1110.22L1782.84 1102.76L1798.17 1095.1C1801.39 1093.49 1801.39 1088.89 1798.17 1087.27L1782.85 1079.61L1798.17 1071.95C1801.39 1070.34 1801.39 1065.74 1798.17 1064.13L1754.52 1042.3ZM1738.86 1049.08C1742.72 1047.15 1747.27 1047.15 1751.13 1049.08L1789.04 1068.04L1751.13 1086.99C1747.27 1088.92 1742.72 1088.92 1738.86 1086.99L1700.95 1068.04L1738.86 1049.08ZM1774.37 1083.85L1754.52 1093.78C1748.52 1096.77 1741.47 1096.77 1735.47 1093.78L1715.62 1083.85L1700.95 1091.19L1738.86 1110.14C1742.72 1112.07 1747.27 1112.07 1751.13 1110.14L1789.04 1091.19L1774.37 1083.85ZM1701.36 1114.14L1715.62 1107L1735.47 1116.93C1741.47 1119.92 1748.52 1119.92 1754.52 1116.93L1774.37 1107L1788.63 1114.14L1751.13 1132.89C1747.27 1134.82 1742.72 1134.82 1738.86 1132.89L1701.36 1114.14Z" fill="black"/>
</g>
</g>
<g id="Regular-M">
<g id="Outline / Layers Outline_15">
<path id="Shape_15" fill-rule="evenodd" clip-rule="evenodd" d="M1458.52 1042.3C1452.52 1039.3 1445.47 1039.3 1439.47 1042.3L1395.82 1064.13C1392.6 1065.74 1392.6 1070.34 1395.82 1071.95L1411.14 1079.61L1395.82 1087.27C1392.6 1088.89 1392.6 1093.49 1395.82 1095.1L1411.15 1102.76L1396.23 1110.22C1393 1111.84 1393 1116.44 1396.23 1118.05L1439.47 1139.67C1445.47 1142.67 1452.52 1142.67 1458.52 1139.67L1501.76 1118.05C1504.99 1116.44 1504.99 1111.84 1501.76 1110.22L1486.84 1102.76L1502.17 1095.1C1505.39 1093.49 1505.39 1088.89 1502.17 1087.27L1486.85 1079.61L1502.17 1071.95C1505.39 1070.34 1505.39 1065.74 1502.17 1064.13L1458.52 1042.3ZM1442.86 1049.08C1446.72 1047.15 1451.27 1047.15 1455.13 1049.08L1493.04 1068.04L1455.13 1086.99C1451.27 1088.92 1446.72 1088.92 1442.86 1086.99L1404.95 1068.04L1442.86 1049.08ZM1478.37 1083.85L1458.52 1093.78C1452.52 1096.77 1445.47 1096.77 1439.47 1093.78L1419.62 1083.85L1404.95 1091.19L1442.86 1110.14C1446.72 1112.07 1451.27 1112.07 1455.13 1110.14L1493.04 1091.19L1478.37 1083.85ZM1405.36 1114.14L1419.62 1107L1439.47 1116.93C1445.47 1119.92 1452.52 1119.92 1458.52 1116.93L1478.37 1107L1492.63 1114.14L1455.13 1132.89C1451.27 1134.82 1446.72 1134.82 1442.86 1132.89L1405.36 1114.14Z" fill="black"/>
</g>
</g>
<g id="Light-M">
<g id="Outline / Layers Outline_16">
<path id="Shape_16" fill-rule="evenodd" clip-rule="evenodd" d="M1162.52 1042.3C1156.52 1039.3 1149.47 1039.3 1143.47 1042.3L1099.82 1064.13C1096.6 1065.74 1096.6 1070.34 1099.82 1071.95L1115.14 1079.61L1099.82 1087.27C1096.6 1088.89 1096.6 1093.49 1099.82 1095.1L1115.15 1102.76L1100.23 1110.22C1097 1111.84 1097 1116.44 1100.23 1118.05L1143.47 1139.67C1149.47 1142.67 1156.52 1142.67 1162.52 1139.67L1205.76 1118.05C1208.99 1116.44 1208.99 1111.84 1205.76 1110.22L1190.84 1102.76L1206.17 1095.1C1209.39 1093.49 1209.39 1088.89 1206.17 1087.27L1190.85 1079.61L1206.17 1071.95C1209.39 1070.34 1209.39 1065.74 1206.17 1064.13L1162.52 1042.3ZM1146.86 1049.08C1150.72 1047.15 1155.27 1047.15 1159.13 1049.08L1197.04 1068.04L1159.13 1086.99C1155.27 1088.92 1150.72 1088.92 1146.86 1086.99L1108.95 1068.04L1146.86 1049.08ZM1182.37 1083.85L1162.52 1093.78C1156.52 1096.77 1149.47 1096.77 1143.47 1093.78L1123.62 1083.85L1108.95 1091.19L1146.86 1110.14C1150.72 1112.07 1155.27 1112.07 1159.13 1110.14L1197.04 1091.19L1182.37 1083.85ZM1109.36 1114.14L1123.62 1107L1143.47 1116.93C1149.47 1119.92 1156.52 1119.92 1162.52 1116.93L1182.37 1107L1196.63 1114.14L1159.13 1132.89C1155.27 1134.82 1150.72 1134.82 1146.86 1132.89L1109.36 1114.14Z" fill="black"/>
</g>
</g>
<g id="Thin-M">
<g id="Outline / Layers Outline_17">
<path id="Shape_17" fill-rule="evenodd" clip-rule="evenodd" d="M866.517 1042.3C860.523 1039.3 853.468 1039.3 847.474 1042.3L803.821 1064.13C800.596 1065.74 800.596 1070.34 803.821 1071.95L819.144 1079.61L803.821 1087.27C800.596 1088.89 800.596 1093.49 803.821 1095.1L819.146 1102.76L804.228 1110.22C801.003 1111.84 801.003 1116.44 804.228 1118.05L847.473 1139.67C853.468 1142.67 860.523 1142.67 866.517 1139.67L909.763 1118.05C912.988 1116.44 912.988 1111.84 909.763 1110.22L894.845 1102.76L910.17 1095.1C913.395 1093.49 913.395 1088.89 910.17 1087.27L894.847 1079.61L910.17 1071.95C913.395 1070.34 913.395 1065.74 910.17 1064.13L866.517 1042.3ZM850.865 1049.08C854.724 1047.15 859.267 1047.15 863.126 1049.08L901.04 1068.04L863.126 1086.99C859.267 1088.92 854.724 1088.92 850.865 1086.99L812.951 1068.04L850.865 1049.08ZM886.368 1083.85L866.517 1093.78C860.523 1096.77 853.468 1096.77 847.474 1093.78L827.623 1083.85L812.951 1091.19L850.865 1110.14C854.724 1112.07 859.267 1112.07 863.126 1110.14L901.04 1091.19L886.368 1083.85ZM813.358 1114.14L827.625 1107L847.474 1116.93C853.468 1119.92 860.523 1119.92 866.517 1116.93L886.366 1107L900.632 1114.14L863.126 1132.89C859.267 1134.82 854.724 1134.82 850.865 1132.89L813.358 1114.14Z" fill="black"/>
</g>
</g>
<g id="Ultralight-M">
<g id="Outline / Layers Outline_18">
<path id="Shape_18" fill-rule="evenodd" clip-rule="evenodd" d="M570.517 1042.3C564.523 1039.3 557.468 1039.3 551.474 1042.3L507.821 1064.13C504.596 1065.74 504.596 1070.34 507.821 1071.95L523.144 1079.61L507.821 1087.27C504.596 1088.89 504.596 1093.49 507.821 1095.1L523.146 1102.76L508.228 1110.22C505.003 1111.84 505.003 1116.44 508.228 1118.05L551.473 1139.67C557.468 1142.67 564.523 1142.67 570.517 1139.67L613.763 1118.05C616.988 1116.44 616.988 1111.84 613.763 1110.22L598.845 1102.76L614.17 1095.1C617.395 1093.49 617.395 1088.89 614.17 1087.27L598.847 1079.61L614.17 1071.95C617.395 1070.34 617.395 1065.74 614.17 1064.13L570.517 1042.3ZM554.865 1049.08C558.724 1047.15 563.267 1047.15 567.126 1049.08L605.04 1068.04L567.126 1086.99C563.267 1088.92 558.724 1088.92 554.865 1086.99L516.951 1068.04L554.865 1049.08ZM590.368 1083.85L570.517 1093.78C564.523 1096.77 557.468 1096.77 551.474 1093.78L531.623 1083.85L516.951 1091.19L554.865 1110.14C558.724 1112.07 563.267 1112.07 567.126 1110.14L605.04 1091.19L590.368 1083.85ZM517.358 1114.14L531.625 1107L551.474 1116.93C557.468 1119.92 564.523 1119.92 570.517 1116.93L590.366 1107L604.632 1114.14L567.126 1132.89C563.267 1134.82 558.724 1134.82 554.865 1132.89L517.358 1114.14Z" fill="black"/>
</g>
</g>
<g id="Black-S">
<g id="Outline / Layers Outline_19">
<path id="Shape_19" fill-rule="evenodd" clip-rule="evenodd" d="M2935.8 626.211C2931.51 624.07 2926.47 624.07 2922.19 626.211L2891.01 641.801C2888.71 642.953 2888.71 646.24 2891.01 647.392L2901.96 652.864L2891.01 658.337C2888.71 659.489 2888.71 662.776 2891.01 663.927L2901.96 669.4L2891.3 674.729C2889 675.88 2889 679.167 2891.3 680.319L2922.19 695.764C2926.47 697.904 2931.51 697.904 2935.8 695.764L2966.69 680.319C2968.99 679.167 2968.99 675.88 2966.69 674.729L2956.03 669.401L2966.98 663.927C2969.28 662.775 2969.28 659.489 2966.98 658.337L2956.03 652.864L2966.98 647.392C2969.28 646.24 2969.28 642.953 2966.98 641.801L2935.8 626.211ZM2924.62 631.056C2927.37 629.678 2930.62 629.678 2933.37 631.056L2960.45 644.596L2933.37 658.137C2930.62 659.515 2927.37 659.515 2924.62 658.137L2897.53 644.596L2924.62 631.056ZM2949.98 655.892L2935.8 662.982C2931.51 665.123 2926.47 665.123 2922.19 662.982L2908.01 655.892L2897.53 661.132L2924.62 674.673C2927.37 676.051 2930.62 676.051 2933.37 674.673L2960.45 661.132L2949.98 655.892ZM2897.83 677.524L2908.02 672.428L2922.19 679.517C2926.47 681.658 2931.51 681.658 2935.8 679.517L2949.97 672.429L2960.16 677.524L2933.37 690.919C2930.62 692.297 2927.37 692.297 2924.62 690.919L2897.83 677.524Z" fill="black"/>
</g>
</g>
<g id="Heavy-S">
<g id="Outline / Layers Outline_20">
<path id="Shape_20" fill-rule="evenodd" clip-rule="evenodd" d="M2639.8 626.211C2635.51 624.07 2630.47 624.07 2626.19 626.211L2595.01 641.801C2592.71 642.953 2592.71 646.24 2595.01 647.392L2605.96 652.864L2595.01 658.337C2592.71 659.489 2592.71 662.776 2595.01 663.927L2605.96 669.4L2595.3 674.729C2593 675.88 2593 679.167 2595.3 680.319L2626.19 695.764C2630.47 697.904 2635.51 697.904 2639.8 695.764L2670.69 680.319C2672.99 679.167 2672.99 675.88 2670.69 674.729L2660.03 669.401L2670.98 663.927C2673.28 662.775 2673.28 659.489 2670.98 658.337L2660.03 652.864L2670.98 647.392C2673.28 646.24 2673.28 642.953 2670.98 641.801L2639.8 626.211ZM2628.62 631.056C2631.37 629.678 2634.62 629.678 2637.37 631.056L2664.45 644.596L2637.37 658.137C2634.62 659.515 2631.37 659.515 2628.62 658.137L2601.53 644.596L2628.62 631.056ZM2653.98 655.892L2639.8 662.982C2635.51 665.123 2630.47 665.123 2626.19 662.982L2612.01 655.892L2601.53 661.132L2628.62 674.673C2631.37 676.051 2634.62 676.051 2637.37 674.673L2664.45 661.132L2653.98 655.892ZM2601.83 677.524L2612.02 672.428L2626.19 679.517C2630.47 681.658 2635.51 681.658 2639.8 679.517L2653.97 672.429L2664.16 677.524L2637.37 690.919C2634.62 692.297 2631.37 692.297 2628.62 690.919L2601.83 677.524Z" fill="black"/>
</g>
</g>
<g id="Bold-S">
<g id="Outline / Layers Outline_21">
<path id="Shape_21" fill-rule="evenodd" clip-rule="evenodd" d="M2343.8 626.211C2339.51 624.07 2334.47 624.07 2330.19 626.211L2299.01 641.801C2296.71 642.953 2296.71 646.24 2299.01 647.392L2309.96 652.864L2299.01 658.337C2296.71 659.489 2296.71 662.776 2299.01 663.927L2309.96 669.4L2299.3 674.729C2297 675.88 2297 679.167 2299.3 680.319L2330.19 695.764C2334.47 697.904 2339.51 697.904 2343.8 695.764L2374.69 680.319C2376.99 679.167 2376.99 675.88 2374.69 674.729L2364.03 669.401L2374.98 663.927C2377.28 662.775 2377.28 659.489 2374.98 658.337L2364.03 652.864L2374.98 647.392C2377.28 646.24 2377.28 642.953 2374.98 641.801L2343.8 626.211ZM2332.62 631.056C2335.37 629.678 2338.62 629.678 2341.37 631.056L2368.45 644.596L2341.37 658.137C2338.62 659.515 2335.37 659.515 2332.62 658.137L2305.53 644.596L2332.62 631.056ZM2357.98 655.892L2343.8 662.982C2339.51 665.123 2334.47 665.123 2330.19 662.982L2316.01 655.892L2305.53 661.132L2332.62 674.673C2335.37 676.051 2338.62 676.051 2341.37 674.673L2368.45 661.132L2357.98 655.892ZM2305.83 677.524L2316.02 672.428L2330.19 679.517C2334.47 681.658 2339.51 681.658 2343.8 679.517L2357.97 672.429L2368.16 677.524L2341.37 690.919C2338.62 692.297 2335.37 692.297 2332.62 690.919L2305.83 677.524Z" fill="black"/>
</g>
</g>
<g id="Semibold-S">
<g id="Outline / Layers Outline_22">
<path id="Shape_22" fill-rule="evenodd" clip-rule="evenodd" d="M2047.8 626.211C2043.51 624.07 2038.47 624.07 2034.19 626.211L2003.01 641.801C2000.71 642.953 2000.71 646.24 2003.01 647.392L2013.96 652.864L2003.01 658.337C2000.71 659.489 2000.71 662.776 2003.01 663.927L2013.96 669.4L2003.3 674.729C2001 675.88 2001 679.167 2003.3 680.319L2034.19 695.764C2038.47 697.904 2043.51 697.904 2047.8 695.764L2078.69 680.319C2080.99 679.167 2080.99 675.88 2078.69 674.729L2068.03 669.401L2078.98 663.927C2081.28 662.775 2081.28 659.489 2078.98 658.337L2068.03 652.864L2078.98 647.392C2081.28 646.24 2081.28 642.953 2078.98 641.801L2047.8 626.211ZM2036.62 631.056C2039.37 629.678 2042.62 629.678 2045.37 631.056L2072.45 644.596L2045.37 658.137C2042.62 659.515 2039.37 659.515 2036.62 658.137L2009.53 644.596L2036.62 631.056ZM2061.98 655.892L2047.8 662.982C2043.51 665.123 2038.47 665.123 2034.19 662.982L2020.01 655.892L2009.53 661.132L2036.62 674.673C2039.37 676.051 2042.62 676.051 2045.37 674.673L2072.45 661.132L2061.98 655.892ZM2009.83 677.524L2020.02 672.428L2034.19 679.517C2038.47 681.658 2043.51 681.658 2047.8 679.517L2061.97 672.429L2072.16 677.524L2045.37 690.919C2042.62 692.297 2039.37 692.297 2036.62 690.919L2009.83 677.524Z" fill="black"/>
</g>
</g>
<g id="Medium-S">
<g id="Outline / Layers Outline_23">
<path id="Shape_23" fill-rule="evenodd" clip-rule="evenodd" d="M1751.8 626.211C1747.51 624.07 1742.47 624.07 1738.19 626.211L1707.01 641.801C1704.71 642.953 1704.71 646.24 1707.01 647.392L1717.96 652.864L1707.01 658.337C1704.71 659.489 1704.71 662.776 1707.01 663.927L1717.96 669.4L1707.3 674.729C1705 675.88 1705 679.167 1707.3 680.319L1738.19 695.764C1742.47 697.904 1747.51 697.904 1751.8 695.764L1782.69 680.319C1784.99 679.167 1784.99 675.88 1782.69 674.729L1772.03 669.401L1782.98 663.927C1785.28 662.775 1785.28 659.489 1782.98 658.337L1772.03 652.864L1782.98 647.392C1785.28 646.24 1785.28 642.953 1782.98 641.801L1751.8 626.211ZM1740.62 631.056C1743.37 629.678 1746.62 629.678 1749.37 631.056L1776.45 644.596L1749.37 658.137C1746.62 659.515 1743.37 659.515 1740.62 658.137L1713.53 644.596L1740.62 631.056ZM1765.98 655.892L1751.8 662.982C1747.51 665.123 1742.47 665.123 1738.19 662.982L1724.01 655.892L1713.53 661.132L1740.62 674.673C1743.37 676.051 1746.62 676.051 1749.37 674.673L1776.45 661.132L1765.98 655.892ZM1713.83 677.524L1724.02 672.428L1738.19 679.517C1742.47 681.658 1747.51 681.658 1751.8 679.517L1765.97 672.429L1776.16 677.524L1749.37 690.919C1746.62 692.297 1743.37 692.297 1740.62 690.919L1713.83 677.524Z" fill="black"/>
</g>
</g>
<g id="Regular-S">
<g id="Outline / Layers Outline_24">
<path id="Shape_24" fill-rule="evenodd" clip-rule="evenodd" d="M1455.8 626.211C1451.51 624.07 1446.47 624.07 1442.19 626.211L1411.01 641.801C1408.71 642.953 1408.71 646.24 1411.01 647.392L1421.96 652.864L1411.01 658.337C1408.71 659.489 1408.71 662.776 1411.01 663.927L1421.96 669.4L1411.3 674.729C1409 675.88 1409 679.167 1411.3 680.319L1442.19 695.764C1446.47 697.904 1451.51 697.904 1455.8 695.764L1486.69 680.319C1488.99 679.167 1488.99 675.88 1486.69 674.729L1476.03 669.401L1486.98 663.927C1489.28 662.775 1489.28 659.489 1486.98 658.337L1476.03 652.864L1486.98 647.392C1489.28 646.24 1489.28 642.953 1486.98 641.801L1455.8 626.211ZM1444.62 631.056C1447.37 629.678 1450.62 629.678 1453.37 631.056L1480.45 644.596L1453.37 658.137C1450.62 659.515 1447.37 659.515 1444.62 658.137L1417.53 644.596L1444.62 631.056ZM1469.98 655.892L1455.8 662.982C1451.51 665.123 1446.47 665.123 1442.19 662.982L1428.01 655.892L1417.53 661.132L1444.62 674.673C1447.37 676.051 1450.62 676.051 1453.37 674.673L1480.45 661.132L1469.98 655.892ZM1417.83 677.524L1428.02 672.428L1442.19 679.517C1446.47 681.658 1451.51 681.658 1455.8 679.517L1469.97 672.429L1480.16 677.524L1453.37 690.919C1450.62 692.297 1447.37 692.297 1444.62 690.919L1417.83 677.524Z" fill="black"/>
</g>
</g>
<g id="Light-S">
<g id="Outline / Layers Outline_25">
<path id="Shape_25" fill-rule="evenodd" clip-rule="evenodd" d="M1159.8 626.211C1155.51 624.07 1150.47 624.07 1146.19 626.211L1115.01 641.801C1112.71 642.953 1112.71 646.24 1115.01 647.392L1125.96 652.864L1115.01 658.337C1112.71 659.489 1112.71 662.776 1115.01 663.927L1125.96 669.4L1115.3 674.729C1113 675.88 1113 679.167 1115.3 680.319L1146.19 695.764C1150.47 697.904 1155.51 697.904 1159.8 695.764L1190.69 680.319C1192.99 679.167 1192.99 675.88 1190.69 674.729L1180.03 669.401L1190.98 663.927C1193.28 662.775 1193.28 659.489 1190.98 658.337L1180.03 652.864L1190.98 647.392C1193.28 646.24 1193.28 642.953 1190.98 641.801L1159.8 626.211ZM1148.62 631.056C1151.37 629.678 1154.62 629.678 1157.37 631.056L1184.45 644.596L1157.37 658.137C1154.62 659.515 1151.37 659.515 1148.62 658.137L1121.53 644.596L1148.62 631.056ZM1173.98 655.892L1159.8 662.982C1155.51 665.123 1150.47 665.123 1146.19 662.982L1132.01 655.892L1121.53 661.132L1148.62 674.673C1151.37 676.051 1154.62 676.051 1157.37 674.673L1184.45 661.132L1173.98 655.892ZM1121.83 677.524L1132.02 672.428L1146.19 679.517C1150.47 681.658 1155.51 681.658 1159.8 679.517L1173.97 672.429L1184.16 677.524L1157.37 690.919C1154.62 692.297 1151.37 692.297 1148.62 690.919L1121.83 677.524Z" fill="black"/>
</g>
</g>
<g id="Thin-S">
<g id="Outline / Layers Outline_26">
<path id="Shape_26" fill-rule="evenodd" clip-rule="evenodd" d="M863.796 626.211C859.514 624.07 854.475 624.07 850.193 626.211L819.013 641.801C816.709 642.953 816.709 646.24 819.013 647.392L829.958 652.864L819.013 658.337C816.709 659.489 816.709 662.776 819.013 663.927L829.959 669.4L819.303 674.729C817 675.88 817 679.167 819.303 680.319L850.193 695.764C854.475 697.904 859.514 697.904 863.796 695.764L894.686 680.319C896.989 679.167 896.989 675.88 894.686 674.729L884.03 669.401L894.977 663.927C897.28 662.775 897.28 659.489 894.977 658.337L884.031 652.864L894.977 647.392C897.28 646.24 897.28 642.953 894.977 641.801L863.796 626.211ZM852.616 631.056C855.372 629.678 858.617 629.678 861.374 631.056L888.455 644.596L861.374 658.137C858.617 659.515 855.372 659.515 852.616 658.137L825.534 644.596L852.616 631.056ZM877.975 655.892L863.796 662.982C859.514 665.123 854.475 665.123 850.193 662.982L836.014 655.892L825.534 661.132L852.616 674.673C855.372 676.051 858.617 676.051 861.374 674.673L888.455 661.132L877.975 655.892ZM825.825 677.524L836.015 672.428L850.193 679.517C854.475 681.658 859.514 681.658 863.796 679.517L877.974 672.429L888.164 677.524L861.373 690.919C858.617 692.297 855.372 692.297 852.616 690.919L825.825 677.524Z" fill="black"/>
</g>
</g>
<g id="Ultralight-S">
<g id="Outline / Layers Outline_27">
<path id="Shape_27" fill-rule="evenodd" clip-rule="evenodd" d="M567.796 626.211C563.514 624.07 558.475 624.07 554.193 626.211L523.013 641.801C520.709 642.953 520.709 646.24 523.013 647.392L533.958 652.864L523.013 658.337C520.709 659.489 520.709 662.776 523.013 663.927L533.959 669.4L523.303 674.729C521 675.88 521 679.167 523.303 680.319L554.193 695.764C558.475 697.904 563.514 697.904 567.796 695.764L598.686 680.319C600.989 679.167 600.989 675.88 598.686 674.729L588.03 669.401L598.977 663.927C601.28 662.775 601.28 659.489 598.977 658.337L588.031 652.864L598.977 647.392C601.28 646.24 601.28 642.953 598.977 641.801L567.796 626.211ZM556.616 631.056C559.372 629.678 562.617 629.678 565.374 631.056L592.455 644.596L565.374 658.137C562.617 659.515 559.372 659.515 556.616 658.137L529.534 644.596L556.616 631.056ZM581.975 655.892L567.796 662.982C563.514 665.123 558.475 665.123 554.193 662.982L540.014 655.892L529.534 661.132L556.616 674.673C559.372 676.051 562.617 676.051 565.374 674.673L592.455 661.132L581.975 655.892ZM529.825 677.524L540.015 672.428L554.193 679.517C558.475 681.658 563.514 681.658 567.796 679.517L581.974 672.429L592.164 677.524L565.373 690.919C562.617 692.297 559.372 692.297 556.616 690.919L529.825 677.524Z" fill="black"/>
</g>
</g>
</g>
</g>
<defs>
<clipPath id="clip0_0_1">
<rect width="3300" height="2200" fill="white"/>
</clipPath>
</defs>
</svg>
