<svg width="3300" height="2200" viewBox="0 0 3300 2200" fill="none" xmlns="http://www.w3.org/2000/svg">
<rect width="3300" height="2200" fill="#E5E5E5"/>
<g id="Security / Solid / Lock" clip-path="url(#clip0_0_1)">
<g id="Notes">
<path id="artboard" d="M3300 0H0V2200H3300V0Z" fill="white"/>
<path id="Vector" d="M263 292H3036" stroke="black" stroke-width="0.5"/>
<text id="Weight/Scale Variations" fill="black" xml:space="preserve" style="white-space: pre" font-family="Roboto" font-size="12" letter-spacing="0em"><tspan x="263" y="321.102">Weight/Scale Variations</tspan></text>
<text id="Ultralight" fill="black" xml:space="preserve" style="white-space: pre" font-family="Roboto" font-size="12" letter-spacing="0em"><tspan x="535.211" y="321.102">Ultralight</tspan></text>
<text id="Thin" fill="black" xml:space="preserve" style="white-space: pre" font-family="Roboto" font-size="12" letter-spacing="0em"><tspan x="844.422" y="321.102">Thin</tspan></text>
<text id="Light" fill="black" xml:space="preserve" style="white-space: pre" font-family="Roboto" font-size="12" letter-spacing="0em"><tspan x="1139.63" y="321.102">Light</tspan></text>
<text id="Regular" fill="black" xml:space="preserve" style="white-space: pre" font-family="Roboto" font-size="12" letter-spacing="0em"><tspan x="1429.34" y="321.102">Regular</tspan></text>
<text id="Medium" fill="black" xml:space="preserve" style="white-space: pre" font-family="Roboto" font-size="12" letter-spacing="0em"><tspan x="1724.56" y="321.102">Medium</tspan></text>
<text id="Semibold" fill="black" xml:space="preserve" style="white-space: pre" font-family="Roboto" font-size="12" letter-spacing="0em"><tspan x="2017.77" y="321.102">Semibold</tspan></text>
<text id="Bold" fill="black" xml:space="preserve" style="white-space: pre" font-family="Roboto" font-size="12" letter-spacing="0em"><tspan x="2327.48" y="321.102">Bold</tspan></text>
<text id="Heavy" fill="black" xml:space="preserve" style="white-space: pre" font-family="Roboto" font-size="12" letter-spacing="0em"><tspan x="2620.19" y="321.102">Heavy</tspan></text>
<text id="Black" fill="black" xml:space="preserve" style="white-space: pre" font-family="Roboto" font-size="12" letter-spacing="0em"><tspan x="2918.4" y="321.102">Black</tspan></text>
<path id="Vector_2" d="M263 1903H3036" stroke="black" stroke-width="0.5"/>
<g id="Group">
<path id="Vector_3" d="M272.248 1933.83C276.555 1933.83 280.139 1930.26 280.139 1925.95C280.139 1921.64 276.545 1918.07 272.238 1918.07C267.941 1918.07 264.367 1921.64 264.367 1925.95C264.367 1930.26 267.951 1933.83 272.248 1933.83ZM272.248 1932.35C268.703 1932.35 265.871 1929.5 265.871 1925.95C265.871 1922.39 268.693 1919.55 272.238 1919.55C275.793 1919.55 278.635 1922.39 278.644 1925.95C278.654 1929.5 275.803 1932.35 272.248 1932.35ZM272.229 1929.57C272.697 1929.57 272.971 1929.26 272.971 1928.74V1926.68H275.197C275.695 1926.68 276.037 1926.43 276.037 1925.96C276.037 1925.48 275.715 1925.22 275.197 1925.22H272.971V1922.99C272.971 1922.47 272.697 1922.15 272.229 1922.15C271.76 1922.15 271.506 1922.49 271.506 1922.99V1925.22H269.299C268.781 1925.22 268.449 1925.48 268.449 1925.96C268.449 1926.43 268.801 1926.68 269.299 1926.68H271.506V1928.74C271.506 1929.24 271.76 1929.57 272.229 1929.57Z" fill="black"/>
</g>
<g id="Group_2">
<path id="Vector_4" d="M293.215 1935.91C298.664 1935.91 303.176 1931.4 303.176 1925.95C303.176 1920.51 298.654 1915.99 293.205 1915.99C287.766 1915.99 283.254 1920.51 283.254 1925.95C283.254 1931.4 287.775 1935.91 293.215 1935.91ZM293.215 1934.25C288.605 1934.25 284.924 1930.56 284.924 1925.95C284.924 1921.35 288.596 1917.65 293.205 1917.65C297.814 1917.65 301.506 1921.35 301.516 1925.95C301.525 1930.56 297.824 1934.25 293.215 1934.25ZM293.195 1930.59C293.713 1930.59 294.025 1930.23 294.025 1929.66V1926.77H297.082C297.629 1926.77 298.01 1926.49 298.01 1925.97C298.01 1925.44 297.648 1925.14 297.082 1925.14H294.025V1922.07C294.025 1921.5 293.713 1921.14 293.195 1921.14C292.678 1921.14 292.385 1921.52 292.385 1922.07V1925.14H289.338C288.771 1925.14 288.4 1925.44 288.4 1925.97C288.4 1926.49 288.791 1926.77 289.338 1926.77H292.385V1929.66C292.385 1930.21 292.678 1930.59 293.195 1930.59Z" fill="black"/>
</g>
<g id="Group_3">
<path id="Vector_5" d="M319.895 1938.67C326.857 1938.67 332.619 1932.92 332.619 1925.96C332.619 1919 326.848 1913.24 319.885 1913.24C312.932 1913.24 307.18 1919 307.18 1925.96C307.18 1932.92 312.941 1938.67 319.895 1938.67ZM319.895 1936.86C313.859 1936.86 309.006 1931.99 309.006 1925.96C309.006 1919.92 313.85 1915.06 319.885 1915.06C325.93 1915.06 330.783 1919.92 330.793 1925.96C330.803 1931.99 325.939 1936.86 319.895 1936.86ZM319.875 1931.94C320.441 1931.94 320.793 1931.54 320.793 1930.94V1926.87H325.031C325.617 1926.87 326.037 1926.54 326.037 1925.98C326.037 1925.4 325.647 1925.06 325.031 1925.06H320.793V1920.81C320.793 1920.2 320.441 1919.81 319.875 1919.81C319.309 1919.81 318.986 1920.22 318.986 1920.81V1925.06H314.758C314.143 1925.06 313.732 1925.4 313.732 1925.98C313.732 1926.54 314.162 1926.87 314.758 1926.87H318.986V1930.94C318.986 1931.53 319.309 1931.94 319.875 1931.94Z" fill="black"/>
</g>
<text id="Design Variations" fill="black" xml:space="preserve" style="white-space: pre" font-family="Roboto" font-size="12" letter-spacing="0em"><tspan x="263" y="1952.1">Design Variations</tspan></text>
<text id="Symbols are supported in up to nine weights and three scales." fill="black" xml:space="preserve" style="white-space: pre" font-family="Roboto" font-size="12" letter-spacing="0em"><tspan x="263" y="1970.1">Symbols are supported in up to nine weights and three scales.</tspan></text>
<text id="For optimal layout with text and other symbols, vertically align" fill="black" xml:space="preserve" style="white-space: pre" font-family="Roboto" font-size="12" letter-spacing="0em"><tspan x="263" y="1988.1">For optimal layout with text and other symbols, vertically align</tspan></text>
<text id="symbols with the adjacent text." fill="black" xml:space="preserve" style="white-space: pre" font-family="Roboto" font-size="12" letter-spacing="0em"><tspan x="263" y="2006.1">symbols with the adjacent text.</tspan></text>
<path id="Vector_6" opacity="0.4" d="M779 1919H776V1933H779V1919Z" fill="#00AEEF"/>
<g id="Group_4">
<path id="Vector_7" d="M789.527 1933H791.373L786.178 1918.91H784.439L779.244 1933H781.09L782.506 1928.97H788.111L789.527 1933ZM785.279 1921.05H785.338L787.594 1927.47H783.023L785.279 1921.05Z" fill="black"/>
</g>
<path id="Vector_8" opacity="0.4" d="M794.617 1919H791.617V1933H794.617V1919Z" fill="#00AEEF"/>
<text id="Margins" fill="black" xml:space="preserve" style="white-space: pre" font-family="Roboto" font-size="12" letter-spacing="0em"><tspan x="776" y="1952.1">Margins</tspan></text>
<text id="Leading and trailing margins on the left and right side of each symbol" fill="black" xml:space="preserve" style="white-space: pre" font-family="Roboto" font-size="12" letter-spacing="0em"><tspan x="776" y="1970.1">Leading and trailing margins on the left and right side of each symbol</tspan></text>
<text id="can be adjusted by modifying the width of the blue rectangles." fill="black" xml:space="preserve" style="white-space: pre" font-family="Roboto" font-size="12" letter-spacing="0em"><tspan x="776" y="1988.1">can be adjusted by modifying the width of the blue rectangles.</tspan></text>
<text id="Modifications are automatically applied proportionally to all" fill="black" xml:space="preserve" style="white-space: pre" font-family="Roboto" font-size="12" letter-spacing="0em"><tspan x="776" y="2006.1">Modifications are automatically applied proportionally to all</tspan></text>
<text id="scales and weights." fill="black" xml:space="preserve" style="white-space: pre" font-family="Roboto" font-size="12" letter-spacing="0em"><tspan x="776" y="2024.1">scales and weights.</tspan></text>
<g id="Group_5">
<path id="Vector_9" d="M1291.83 1936.12L1293.37 1937.66C1294.22 1938.49 1295.19 1938.42 1296.06 1937.46L1306.27 1926.34C1306.7 1926.63 1307.1 1926.62 1307.56 1926.53L1308.61 1926.31L1309.3 1927L1309.25 1927.52C1309.19 1928.05 1309.35 1928.47 1309.85 1928.97L1310.66 1929.78C1311.17 1930.29 1311.82 1930.31 1312.3 1929.84L1315.55 1926.58C1316.03 1926.11 1316.01 1925.45 1315.5 1924.94L1314.68 1924.12C1314.19 1923.62 1313.77 1923.45 1313.24 1923.53L1312.71 1923.59L1312.06 1922.92L1312.34 1921.78C1312.49 1921.21 1312.34 1920.74 1311.71 1920.14L1309.3 1917.75C1305.76 1914.22 1301.23 1914.33 1298.11 1917.46C1297.69 1917.89 1297.64 1918.48 1297.92 1918.91C1298.15 1919.28 1298.63 1919.5 1299.27 1919.34C1300.79 1918.96 1302.3 1919.07 1303.78 1920.08L1303.16 1921.66C1302.93 1922.25 1302.94 1922.73 1303.18 1923.17L1292.02 1933.44C1291.08 1934.31 1290.97 1935.26 1291.83 1936.12ZM1299.67 1917.85C1302.34 1915.86 1305.65 1916.17 1308.05 1918.59L1310.68 1921.19C1310.91 1921.43 1310.94 1921.61 1310.88 1921.91L1310.5 1923.47L1312.08 1925.04L1313.04 1924.95C1313.33 1924.92 1313.41 1924.94 1313.64 1925.17L1314.26 1925.79L1311.51 1928.54L1310.88 1927.92C1310.66 1927.7 1310.64 1927.6 1310.67 1927.32L1310.76 1926.36L1309.19 1924.8L1307.57 1925.11C1307.29 1925.17 1307.14 1925.17 1306.91 1924.92L1304.73 1922.75C1304.51 1922.51 1304.48 1922.37 1304.61 1922.05L1305.55 1919.78C1303.95 1918.24 1301.84 1917.39 1299.8 1918.05C1299.71 1918.08 1299.64 1918.06 1299.61 1918.02C1299.59 1917.97 1299.59 1917.92 1299.67 1917.85ZM1293.1 1935.41C1292.61 1934.91 1292.79 1934.61 1293.12 1934.31L1304.08 1924.19L1305.31 1925.42L1295.15 1936.35C1294.85 1936.68 1294.47 1936.78 1294.07 1936.38L1293.1 1935.41Z" fill="black"/>
</g>
<text id="Exporting" fill="black" xml:space="preserve" style="white-space: pre" font-family="Roboto" font-size="12" letter-spacing="0em"><tspan x="1289" y="1952.1">Exporting</tspan></text>
<text id="Symbols should be outlined when exporting to ensure the" fill="black" xml:space="preserve" style="white-space: pre" font-family="Roboto" font-size="12" letter-spacing="0em"><tspan x="1289" y="1970.1">Symbols should be outlined when exporting to ensure the</tspan></text>
<text id="design is preserved when submitting to Xcode." fill="black" xml:space="preserve" style="white-space: pre" font-family="Roboto" font-size="12" letter-spacing="0em"><tspan x="1289" y="1988.1">design is preserved when submitting to Xcode.</tspan></text>
<text id="template-version" fill="black" xml:space="preserve" style="white-space: pre" font-family="Roboto" font-size="12" letter-spacing="0em"><tspan x="2958" y="1932.1">Template v.1.0</tspan></text>
<text id="Generated from pencil.circle" fill="black" xml:space="preserve" style="white-space: pre" font-family="Roboto" font-size="12" letter-spacing="0em"><tspan x="2885" y="1950.1">Generated from pencil.circle</tspan></text>
<text id="Typeset at 100 points" fill="black" xml:space="preserve" style="white-space: pre" font-family="Roboto" font-size="12" letter-spacing="0em"><tspan x="2921" y="1968.1">Typeset at 100 points</tspan></text>
<text id="Small" fill="black" xml:space="preserve" style="white-space: pre" font-family="Roboto" font-size="12" letter-spacing="0em"><tspan x="263" y="725.102">Small</tspan></text>
<text id="Medium_2" fill="black" xml:space="preserve" style="white-space: pre" font-family="Roboto" font-size="12" letter-spacing="0em"><tspan x="263" y="1155.1">Medium</tspan></text>
<text id="Large" fill="black" xml:space="preserve" style="white-space: pre" font-family="Roboto" font-size="12" letter-spacing="0em"><tspan x="263" y="1585.1">Large</tspan></text>
</g>
<g id="Guides">
<g id="H-reference">
<path id="Vector_10" d="M393.932 696H396.666L369.566 625.541H367.076L339.977 696H342.662L351.94 671.537H384.703L393.932 696ZM368.199 628.91H368.443L383.824 669.291H352.818L368.199 628.91Z" fill="#27AAE1"/>
</g>
<path id="Baseline-S" d="M263 696H3036" stroke="#27AAE1" stroke-width="0.577"/>
<path id="Capline-S" d="M263 626H3036" stroke="#27AAE1" stroke-width="0.577"/>
<g id="H-reference_2">
<path id="Vector_11" d="M393.932 1126H396.666L369.566 1055.54H367.076L339.977 1126H342.662L351.94 1101.54H384.703L393.932 1126ZM368.199 1058.91H368.443L383.824 1099.29H352.818L368.199 1058.91Z" fill="#27AAE1"/>
</g>
<path id="Baseline-M" d="M263 1126H3036" stroke="#27AAE1" stroke-width="0.577"/>
<path id="Capline-M" d="M263 1056H3036" stroke="#27AAE1" stroke-width="0.577"/>
<g id="H-reference_3">
<path id="Vector_12" d="M393.932 1556H396.666L369.566 1485.54H367.076L339.977 1556H342.662L351.94 1531.54H384.703L393.932 1556ZM368.199 1488.91H368.443L383.824 1529.29H352.818L368.199 1488.91Z" fill="#27AAE1"/>
</g>
<g id="Group 1">
<path id="Baseline-L" d="M263 1556H3036" stroke="#27AAE1" stroke-width="0.577"/>
<path id="Capline-L" d="M263 1486H3036" stroke="#27AAE1" stroke-width="0.577"/>
</g>
<path id="left-margin" opacity="0.4" d="M1408.04 1030.79H1399.3V1150.13H1408.04V1030.79Z" fill="#00AEEF"/>
<path id="right-margin" opacity="0.4" d="M1499.39 1030.79H1490.65V1150.13H1499.39V1030.79Z" fill="#00AEEF"/>
</g>
<g id="Symbols">
<g id="Black-L">
<g id="Solid / Lock Solid">
<path id="Shape" fill-rule="evenodd" clip-rule="evenodd" d="M2899.12 1498.5L2899.12 1484.13C2899.12 1467.68 2912.46 1454.34 2928.91 1454.34C2945.36 1454.34 2958.7 1467.68 2958.7 1484.13L2958.7 1498.5H2959C2971.43 1498.5 2981.5 1508.58 2981.5 1521V1558.5C2981.5 1570.93 2971.43 1581 2959 1581H2899C2886.57 1581 2876.5 1570.93 2876.5 1558.5V1521C2876.5 1508.58 2886.57 1498.5 2899 1498.5H2899.12ZM2909.09 1484.13C2909.09 1473.19 2917.96 1464.32 2928.91 1464.32C2939.85 1464.32 2948.73 1473.19 2948.73 1484.13L2948.73 1498.5H2909.09L2909.09 1484.13ZM2929 1528.44C2931.69 1528.44 2933.87 1530.62 2933.87 1533.32V1546.19C2933.87 1548.88 2931.69 1551.06 2929 1551.06C2926.31 1551.06 2924.12 1548.88 2924.12 1546.19V1533.32C2924.12 1530.62 2926.31 1528.44 2929 1528.44Z" fill="black"/>
</g>
</g>
<g id="Heavy-L">
<g id="Solid / Lock Solid_2">
<path id="Shape_2" fill-rule="evenodd" clip-rule="evenodd" d="M2603.12 1498.5L2603.12 1484.13C2603.12 1467.68 2616.46 1454.34 2632.91 1454.34C2649.36 1454.34 2662.7 1467.68 2662.7 1484.13L2662.7 1498.5H2663C2675.43 1498.5 2685.5 1508.58 2685.5 1521V1558.5C2685.5 1570.93 2675.43 1581 2663 1581H2603C2590.57 1581 2580.5 1570.93 2580.5 1558.5V1521C2580.5 1508.58 2590.57 1498.5 2603 1498.5H2603.12ZM2613.09 1484.13C2613.09 1473.19 2621.96 1464.32 2632.91 1464.32C2643.85 1464.32 2652.73 1473.19 2652.73 1484.13L2652.73 1498.5H2613.09L2613.09 1484.13ZM2633 1528.44C2635.69 1528.44 2637.87 1530.62 2637.87 1533.32V1546.19C2637.87 1548.88 2635.69 1551.06 2633 1551.06C2630.31 1551.06 2628.12 1548.88 2628.12 1546.19V1533.32C2628.12 1530.62 2630.31 1528.44 2633 1528.44Z" fill="black"/>
</g>
</g>
<g id="Bold-L">
<g id="Solid / Lock Solid_3">
<path id="Shape_3" fill-rule="evenodd" clip-rule="evenodd" d="M2307.12 1498.5L2307.12 1484.13C2307.12 1467.68 2320.46 1454.34 2336.91 1454.34C2353.36 1454.34 2366.7 1467.68 2366.7 1484.13L2366.7 1498.5H2367C2379.43 1498.5 2389.5 1508.58 2389.5 1521V1558.5C2389.5 1570.93 2379.43 1581 2367 1581H2307C2294.57 1581 2284.5 1570.93 2284.5 1558.5V1521C2284.5 1508.58 2294.57 1498.5 2307 1498.5H2307.12ZM2317.09 1484.13C2317.09 1473.19 2325.96 1464.32 2336.91 1464.32C2347.85 1464.32 2356.73 1473.19 2356.73 1484.13L2356.73 1498.5H2317.09L2317.09 1484.13ZM2337 1528.44C2339.69 1528.44 2341.87 1530.62 2341.87 1533.32V1546.19C2341.87 1548.88 2339.69 1551.06 2337 1551.06C2334.31 1551.06 2332.12 1548.88 2332.12 1546.19V1533.32C2332.12 1530.62 2334.31 1528.44 2337 1528.44Z" fill="black"/>
</g>
</g>
<g id="Semibold-L">
<g id="Solid / Lock Solid_4">
<path id="Shape_4" fill-rule="evenodd" clip-rule="evenodd" d="M2011.12 1498.5L2011.12 1484.13C2011.12 1467.68 2024.46 1454.34 2040.91 1454.34C2057.36 1454.34 2070.7 1467.68 2070.7 1484.13L2070.7 1498.5H2071C2083.43 1498.5 2093.5 1508.58 2093.5 1521V1558.5C2093.5 1570.93 2083.43 1581 2071 1581H2011C1998.57 1581 1988.5 1570.93 1988.5 1558.5V1521C1988.5 1508.58 1998.57 1498.5 2011 1498.5H2011.12ZM2021.09 1484.13C2021.09 1473.19 2029.96 1464.32 2040.91 1464.32C2051.85 1464.32 2060.73 1473.19 2060.73 1484.13L2060.73 1498.5H2021.09L2021.09 1484.13ZM2041 1528.44C2043.69 1528.44 2045.87 1530.62 2045.87 1533.32V1546.19C2045.87 1548.88 2043.69 1551.06 2041 1551.06C2038.31 1551.06 2036.12 1548.88 2036.12 1546.19V1533.32C2036.12 1530.62 2038.31 1528.44 2041 1528.44Z" fill="black"/>
</g>
</g>
<g id="Medium-L">
<g id="Solid / Lock Solid_5">
<path id="Shape_5" fill-rule="evenodd" clip-rule="evenodd" d="M1715.12 1498.5L1715.12 1484.13C1715.12 1467.68 1728.46 1454.34 1744.91 1454.34C1761.36 1454.34 1774.7 1467.68 1774.7 1484.13L1774.7 1498.5H1775C1787.43 1498.5 1797.5 1508.58 1797.5 1521V1558.5C1797.5 1570.93 1787.43 1581 1775 1581H1715C1702.57 1581 1692.5 1570.93 1692.5 1558.5V1521C1692.5 1508.58 1702.57 1498.5 1715 1498.5H1715.12ZM1725.09 1484.13C1725.09 1473.19 1733.96 1464.32 1744.91 1464.32C1755.85 1464.32 1764.73 1473.19 1764.73 1484.13L1764.73 1498.5H1725.09L1725.09 1484.13ZM1745 1528.44C1747.69 1528.44 1749.87 1530.62 1749.87 1533.32V1546.19C1749.87 1548.88 1747.69 1551.06 1745 1551.06C1742.31 1551.06 1740.12 1548.88 1740.12 1546.19V1533.32C1740.12 1530.62 1742.31 1528.44 1745 1528.44Z" fill="black"/>
</g>
</g>
<g id="Regular-L">
<g id="Solid / Lock Solid_6">
<path id="Shape_6" fill-rule="evenodd" clip-rule="evenodd" d="M1419.12 1498.5L1419.12 1484.13C1419.12 1467.68 1432.46 1454.34 1448.91 1454.34C1465.36 1454.34 1478.7 1467.68 1478.7 1484.13L1478.7 1498.5H1479C1491.43 1498.5 1501.5 1508.58 1501.5 1521V1558.5C1501.5 1570.93 1491.43 1581 1479 1581H1419C1406.57 1581 1396.5 1570.93 1396.5 1558.5V1521C1396.5 1508.58 1406.57 1498.5 1419 1498.5H1419.12ZM1429.09 1484.13C1429.09 1473.19 1437.96 1464.32 1448.91 1464.32C1459.85 1464.32 1468.73 1473.19 1468.73 1484.13L1468.73 1498.5H1429.09L1429.09 1484.13ZM1449 1528.44C1451.69 1528.44 1453.87 1530.62 1453.87 1533.32V1546.19C1453.87 1548.88 1451.69 1551.06 1449 1551.06C1446.31 1551.06 1444.12 1548.88 1444.12 1546.19V1533.32C1444.12 1530.62 1446.31 1528.44 1449 1528.44Z" fill="black"/>
</g>
</g>
<g id="Light-L">
<g id="Solid / Lock Solid_7">
<path id="Shape_7" fill-rule="evenodd" clip-rule="evenodd" d="M1123.12 1498.5L1123.12 1484.13C1123.12 1467.68 1136.46 1454.34 1152.91 1454.34C1169.36 1454.34 1182.7 1467.68 1182.7 1484.13L1182.7 1498.5H1183C1195.43 1498.5 1205.5 1508.58 1205.5 1521V1558.5C1205.5 1570.93 1195.43 1581 1183 1581H1123C1110.57 1581 1100.5 1570.93 1100.5 1558.5V1521C1100.5 1508.58 1110.57 1498.5 1123 1498.5H1123.12ZM1133.09 1484.13C1133.09 1473.19 1141.96 1464.32 1152.91 1464.32C1163.85 1464.32 1172.73 1473.19 1172.73 1484.13L1172.73 1498.5H1133.09L1133.09 1484.13ZM1153 1528.44C1155.69 1528.44 1157.87 1530.62 1157.87 1533.32V1546.19C1157.87 1548.88 1155.69 1551.06 1153 1551.06C1150.31 1551.06 1148.12 1548.88 1148.12 1546.19V1533.32C1148.12 1530.62 1150.31 1528.44 1153 1528.44Z" fill="black"/>
</g>
</g>
<g id="Thin-L">
<g id="Solid / Lock Solid_8">
<path id="Shape_8" fill-rule="evenodd" clip-rule="evenodd" d="M827.117 1498.5L827.117 1484.13C827.117 1467.68 840.455 1454.34 856.909 1454.34C873.363 1454.34 886.701 1467.68 886.701 1484.13L886.701 1498.5H887C899.426 1498.5 909.5 1508.58 909.5 1521V1558.5C909.5 1570.93 899.426 1581 887 1581H827C814.574 1581 804.5 1570.93 804.5 1558.5V1521C804.5 1508.58 814.574 1498.5 827 1498.5H827.117ZM837.092 1484.13C837.092 1473.19 845.964 1464.32 856.909 1464.32C867.854 1464.32 876.726 1473.19 876.726 1484.13L876.726 1498.5H837.092L837.092 1484.13ZM857 1528.44C859.692 1528.44 861.875 1530.62 861.875 1533.32V1546.19C861.875 1548.88 859.692 1551.06 857 1551.06C854.308 1551.06 852.125 1548.88 852.125 1546.19V1533.32C852.125 1530.62 854.308 1528.44 857 1528.44Z" fill="black"/>
</g>
</g>
<g id="Ultralight-L">
<g id="Solid / Lock Solid_9">
<path id="Shape_9" fill-rule="evenodd" clip-rule="evenodd" d="M531.117 1498.5L531.117 1484.13C531.117 1467.68 544.455 1454.34 560.909 1454.34C577.363 1454.34 590.701 1467.68 590.701 1484.13L590.701 1498.5H591C603.426 1498.5 613.5 1508.58 613.5 1521V1558.5C613.5 1570.93 603.426 1581 591 1581H531C518.574 1581 508.5 1570.93 508.5 1558.5V1521C508.5 1508.58 518.574 1498.5 531 1498.5H531.117ZM541.092 1484.13C541.092 1473.19 549.964 1464.32 560.909 1464.32C571.854 1464.32 580.726 1473.19 580.726 1484.13L580.726 1498.5H541.092L541.092 1484.13ZM561 1528.44C563.692 1528.44 565.875 1530.62 565.875 1533.32V1546.19C565.875 1548.88 563.692 1551.06 561 1551.06C558.308 1551.06 556.125 1548.88 556.125 1546.19V1533.32C556.125 1530.62 558.308 1528.44 561 1528.44Z" fill="black"/>
</g>
</g>
<g id="Black-M">
<g id="Solid / Lock Solid_10">
<path id="Shape_10" fill-rule="evenodd" clip-rule="evenodd" d="M2905.76 1073.5L2905.76 1062.33C2905.76 1049.53 2916.13 1039.16 2928.93 1039.16C2941.73 1039.16 2952.1 1049.53 2952.1 1062.33L2952.1 1073.5H2952.33C2962 1073.5 2969.83 1081.34 2969.83 1091V1120.17C2969.83 1129.83 2962 1137.67 2952.33 1137.67H2905.67C2896 1137.67 2888.17 1129.83 2888.17 1120.17V1091C2888.17 1081.34 2896 1073.5 2905.67 1073.5H2905.76ZM2913.52 1062.33C2913.52 1053.81 2920.42 1046.91 2928.93 1046.91C2937.44 1046.91 2944.34 1053.81 2944.34 1062.33L2944.34 1073.5H2913.52L2913.52 1062.33ZM2929 1096.79C2931.09 1096.79 2932.79 1098.48 2932.79 1100.58V1110.59C2932.79 1112.69 2931.09 1114.38 2929 1114.38C2926.91 1114.38 2925.21 1112.69 2925.21 1110.59V1100.58C2925.21 1098.48 2926.91 1096.79 2929 1096.79Z" fill="black"/>
</g>
</g>
<g id="Heavy-M">
<g id="Solid / Lock Solid_11">
<path id="Shape_11" fill-rule="evenodd" clip-rule="evenodd" d="M2609.76 1073.5L2609.76 1062.33C2609.76 1049.53 2620.13 1039.16 2632.93 1039.16C2645.73 1039.16 2656.1 1049.53 2656.1 1062.33L2656.1 1073.5H2656.33C2666 1073.5 2673.83 1081.34 2673.83 1091V1120.17C2673.83 1129.83 2666 1137.67 2656.33 1137.67H2609.67C2600 1137.67 2592.17 1129.83 2592.17 1120.17V1091C2592.17 1081.34 2600 1073.5 2609.67 1073.5H2609.76ZM2617.52 1062.33C2617.52 1053.81 2624.42 1046.91 2632.93 1046.91C2641.44 1046.91 2648.34 1053.81 2648.34 1062.33L2648.34 1073.5H2617.52L2617.52 1062.33ZM2633 1096.79C2635.09 1096.79 2636.79 1098.48 2636.79 1100.58V1110.59C2636.79 1112.69 2635.09 1114.38 2633 1114.38C2630.91 1114.38 2629.21 1112.69 2629.21 1110.59V1100.58C2629.21 1098.48 2630.91 1096.79 2633 1096.79Z" fill="black"/>
</g>
</g>
<g id="Bold-M">
<g id="Solid / Lock Solid_12">
<path id="Shape_12" fill-rule="evenodd" clip-rule="evenodd" d="M2313.76 1073.5L2313.76 1062.33C2313.76 1049.53 2324.13 1039.16 2336.93 1039.16C2349.73 1039.16 2360.1 1049.53 2360.1 1062.33L2360.1 1073.5H2360.33C2370 1073.5 2377.83 1081.34 2377.83 1091V1120.17C2377.83 1129.83 2370 1137.67 2360.33 1137.67H2313.67C2304 1137.67 2296.17 1129.83 2296.17 1120.17V1091C2296.17 1081.34 2304 1073.5 2313.67 1073.5H2313.76ZM2321.52 1062.33C2321.52 1053.81 2328.42 1046.91 2336.93 1046.91C2345.44 1046.91 2352.34 1053.81 2352.34 1062.33L2352.34 1073.5H2321.52L2321.52 1062.33ZM2337 1096.79C2339.09 1096.79 2340.79 1098.48 2340.79 1100.58V1110.59C2340.79 1112.69 2339.09 1114.38 2337 1114.38C2334.91 1114.38 2333.21 1112.69 2333.21 1110.59V1100.58C2333.21 1098.48 2334.91 1096.79 2337 1096.79Z" fill="black"/>
</g>
</g>
<g id="Semibold-M">
<g id="Solid / Lock Solid_13">
<path id="Shape_13" fill-rule="evenodd" clip-rule="evenodd" d="M2017.76 1073.5L2017.76 1062.33C2017.76 1049.53 2028.13 1039.16 2040.93 1039.16C2053.73 1039.16 2064.1 1049.53 2064.1 1062.33L2064.1 1073.5H2064.33C2074 1073.5 2081.83 1081.34 2081.83 1091V1120.17C2081.83 1129.83 2074 1137.67 2064.33 1137.67H2017.67C2008 1137.67 2000.17 1129.83 2000.17 1120.17V1091C2000.17 1081.34 2008 1073.5 2017.67 1073.5H2017.76ZM2025.52 1062.33C2025.52 1053.81 2032.42 1046.91 2040.93 1046.91C2049.44 1046.91 2056.34 1053.81 2056.34 1062.33L2056.34 1073.5H2025.52L2025.52 1062.33ZM2041 1096.79C2043.09 1096.79 2044.79 1098.48 2044.79 1100.58V1110.59C2044.79 1112.69 2043.09 1114.38 2041 1114.38C2038.91 1114.38 2037.21 1112.69 2037.21 1110.59V1100.58C2037.21 1098.48 2038.91 1096.79 2041 1096.79Z" fill="black"/>
</g>
</g>
<g id="Medium-M">
<g id="Solid / Lock Solid_14">
<path id="Shape_14" fill-rule="evenodd" clip-rule="evenodd" d="M1721.76 1073.5L1721.76 1062.33C1721.76 1049.53 1732.13 1039.16 1744.93 1039.16C1757.73 1039.16 1768.1 1049.53 1768.1 1062.33L1768.1 1073.5H1768.33C1778 1073.5 1785.83 1081.34 1785.83 1091V1120.17C1785.83 1129.83 1778 1137.67 1768.33 1137.67H1721.67C1712 1137.67 1704.17 1129.83 1704.17 1120.17V1091C1704.17 1081.34 1712 1073.5 1721.67 1073.5H1721.76ZM1729.52 1062.33C1729.52 1053.81 1736.42 1046.91 1744.93 1046.91C1753.44 1046.91 1760.34 1053.81 1760.34 1062.33L1760.34 1073.5H1729.52L1729.52 1062.33ZM1745 1096.79C1747.09 1096.79 1748.79 1098.48 1748.79 1100.58V1110.59C1748.79 1112.69 1747.09 1114.38 1745 1114.38C1742.91 1114.38 1741.21 1112.69 1741.21 1110.59V1100.58C1741.21 1098.48 1742.91 1096.79 1745 1096.79Z" fill="black"/>
</g>
</g>
<g id="Regular-M">
<g id="Solid / Lock Solid_15">
<path id="Shape_15" fill-rule="evenodd" clip-rule="evenodd" d="M1425.76 1073.5L1425.76 1062.33C1425.76 1049.53 1436.13 1039.16 1448.93 1039.16C1461.73 1039.16 1472.1 1049.53 1472.1 1062.33L1472.1 1073.5H1472.33C1482 1073.5 1489.83 1081.34 1489.83 1091V1120.17C1489.83 1129.83 1482 1137.67 1472.33 1137.67H1425.67C1416 1137.67 1408.17 1129.83 1408.17 1120.17V1091C1408.17 1081.34 1416 1073.5 1425.67 1073.5H1425.76ZM1433.52 1062.33C1433.52 1053.81 1440.42 1046.91 1448.93 1046.91C1457.44 1046.91 1464.34 1053.81 1464.34 1062.33L1464.34 1073.5H1433.52L1433.52 1062.33ZM1449 1096.79C1451.09 1096.79 1452.79 1098.48 1452.79 1100.58V1110.59C1452.79 1112.69 1451.09 1114.38 1449 1114.38C1446.91 1114.38 1445.21 1112.69 1445.21 1110.59V1100.58C1445.21 1098.48 1446.91 1096.79 1449 1096.79Z" fill="black"/>
</g>
</g>
<g id="Light-M">
<g id="Solid / Lock Solid_16">
<path id="Shape_16" fill-rule="evenodd" clip-rule="evenodd" d="M1129.76 1073.5L1129.76 1062.33C1129.76 1049.53 1140.13 1039.16 1152.93 1039.16C1165.73 1039.16 1176.1 1049.53 1176.1 1062.33L1176.1 1073.5H1176.33C1186 1073.5 1193.83 1081.34 1193.83 1091V1120.17C1193.83 1129.83 1186 1137.67 1176.33 1137.67H1129.67C1120 1137.67 1112.17 1129.83 1112.17 1120.17V1091C1112.17 1081.34 1120 1073.5 1129.67 1073.5H1129.76ZM1137.52 1062.33C1137.52 1053.81 1144.42 1046.91 1152.93 1046.91C1161.44 1046.91 1168.34 1053.81 1168.34 1062.33L1168.34 1073.5H1137.52L1137.52 1062.33ZM1153 1096.79C1155.09 1096.79 1156.79 1098.48 1156.79 1100.58V1110.59C1156.79 1112.69 1155.09 1114.38 1153 1114.38C1150.91 1114.38 1149.21 1112.69 1149.21 1110.59V1100.58C1149.21 1098.48 1150.91 1096.79 1153 1096.79Z" fill="black"/>
</g>
</g>
<g id="Thin-M">
<g id="Solid / Lock Solid_17">
<path id="Shape_17" fill-rule="evenodd" clip-rule="evenodd" d="M833.757 1073.5L833.757 1062.33C833.757 1049.53 844.131 1039.16 856.929 1039.16C869.726 1039.16 880.1 1049.53 880.1 1062.33L880.1 1073.5H880.333C889.998 1073.5 897.833 1081.34 897.833 1091V1120.17C897.833 1129.83 889.998 1137.67 880.333 1137.67H833.666C824.001 1137.67 816.166 1129.83 816.166 1120.17V1091C816.166 1081.34 824.001 1073.5 833.666 1073.5H833.757ZM841.515 1062.33C841.515 1053.81 848.416 1046.91 856.929 1046.91C865.441 1046.91 872.342 1053.81 872.342 1062.33L872.342 1073.5H841.515L841.515 1062.33ZM856.999 1096.79C859.093 1096.79 860.791 1098.48 860.791 1100.58V1110.59C860.791 1112.69 859.093 1114.38 856.999 1114.38C854.905 1114.38 853.208 1112.69 853.208 1110.59V1100.58C853.208 1098.48 854.905 1096.79 856.999 1096.79Z" fill="black"/>
</g>
</g>
<g id="Ultralight-M">
<g id="Solid / Lock Solid_18">
<path id="Shape_18" fill-rule="evenodd" clip-rule="evenodd" d="M537.757 1073.5L537.757 1062.33C537.757 1049.53 548.131 1039.16 560.929 1039.16C573.726 1039.16 584.1 1049.53 584.1 1062.33L584.1 1073.5H584.333C593.998 1073.5 601.833 1081.34 601.833 1091V1120.17C601.833 1129.83 593.998 1137.67 584.333 1137.67H537.666C528.001 1137.67 520.166 1129.83 520.166 1120.17V1091C520.166 1081.34 528.001 1073.5 537.666 1073.5H537.757ZM545.515 1062.33C545.515 1053.81 552.416 1046.91 560.929 1046.91C569.441 1046.91 576.342 1053.81 576.342 1062.33L576.342 1073.5H545.515L545.515 1062.33ZM560.999 1096.79C563.093 1096.79 564.791 1098.48 564.791 1100.58V1110.59C564.791 1112.69 563.093 1114.38 560.999 1114.38C558.905 1114.38 557.208 1112.69 557.208 1110.59V1100.58C557.208 1098.48 558.905 1096.79 560.999 1096.79Z" fill="black"/>
</g>
</g>
<g id="Black-S">
<g id="Solid / Lock Solid_19">
<path id="Shape_19" fill-rule="evenodd" clip-rule="evenodd" d="M2912.4 648.501L2912.4 640.519C2912.4 631.378 2919.81 623.968 2928.95 623.968C2938.09 623.968 2945.5 631.378 2945.5 640.519L2945.5 648.501H2945.67C2952.57 648.501 2958.17 654.098 2958.17 661.001V681.835C2958.17 688.738 2952.57 694.335 2945.67 694.335H2912.33C2905.43 694.335 2899.83 688.738 2899.83 681.835V661.001C2899.83 654.098 2905.43 648.501 2912.33 648.501H2912.4ZM2917.94 640.519C2917.94 634.439 2922.87 629.509 2928.95 629.509C2935.03 629.509 2939.96 634.439 2939.96 640.519L2939.96 648.501H2917.94L2917.94 640.519ZM2929 665.133C2930.5 665.133 2931.71 666.346 2931.71 667.842V674.994C2931.71 676.49 2930.5 677.702 2929 677.702C2927.5 677.702 2926.29 676.49 2926.29 674.994V667.842C2926.29 666.346 2927.5 665.133 2929 665.133Z" fill="black"/>
</g>
</g>
<g id="Heavy-S">
<g id="Solid / Lock Solid_20">
<path id="Shape_20" fill-rule="evenodd" clip-rule="evenodd" d="M2616.4 648.501L2616.4 640.519C2616.4 631.378 2623.81 623.968 2632.95 623.968C2642.09 623.968 2649.5 631.378 2649.5 640.519L2649.5 648.501H2649.67C2656.57 648.501 2662.17 654.098 2662.17 661.001V681.835C2662.17 688.738 2656.57 694.335 2649.67 694.335H2616.33C2609.43 694.335 2603.83 688.738 2603.83 681.835V661.001C2603.83 654.098 2609.43 648.501 2616.33 648.501H2616.4ZM2621.94 640.519C2621.94 634.439 2626.87 629.509 2632.95 629.509C2639.03 629.509 2643.96 634.439 2643.96 640.519L2643.96 648.501H2621.94L2621.94 640.519ZM2633 665.133C2634.5 665.133 2635.71 666.346 2635.71 667.842V674.994C2635.71 676.49 2634.5 677.702 2633 677.702C2631.5 677.702 2630.29 676.49 2630.29 674.994V667.842C2630.29 666.346 2631.5 665.133 2633 665.133Z" fill="black"/>
</g>
</g>
<g id="Bold-S">
<g id="Solid / Lock Solid_21">
<path id="Shape_21" fill-rule="evenodd" clip-rule="evenodd" d="M2320.4 648.501L2320.4 640.519C2320.4 631.378 2327.81 623.968 2336.95 623.968C2346.09 623.968 2353.5 631.378 2353.5 640.519L2353.5 648.501H2353.67C2360.57 648.501 2366.17 654.098 2366.17 661.001V681.835C2366.17 688.738 2360.57 694.335 2353.67 694.335H2320.33C2313.43 694.335 2307.83 688.738 2307.83 681.835V661.001C2307.83 654.098 2313.43 648.501 2320.33 648.501H2320.4ZM2325.94 640.519C2325.94 634.439 2330.87 629.509 2336.95 629.509C2343.03 629.509 2347.96 634.439 2347.96 640.519L2347.96 648.501H2325.94L2325.94 640.519ZM2337 665.133C2338.5 665.133 2339.71 666.346 2339.71 667.842V674.994C2339.71 676.49 2338.5 677.702 2337 677.702C2335.5 677.702 2334.29 676.49 2334.29 674.994V667.842C2334.29 666.346 2335.5 665.133 2337 665.133Z" fill="black"/>
</g>
</g>
<g id="Semibold-S">
<g id="Solid / Lock Solid_22">
<path id="Shape_22" fill-rule="evenodd" clip-rule="evenodd" d="M2024.4 648.501L2024.4 640.519C2024.4 631.378 2031.81 623.968 2040.95 623.968C2050.09 623.968 2057.5 631.378 2057.5 640.519L2057.5 648.501H2057.67C2064.57 648.501 2070.17 654.098 2070.17 661.001V681.835C2070.17 688.738 2064.57 694.335 2057.67 694.335H2024.33C2017.43 694.335 2011.83 688.738 2011.83 681.835V661.001C2011.83 654.098 2017.43 648.501 2024.33 648.501H2024.4ZM2029.94 640.519C2029.94 634.439 2034.87 629.509 2040.95 629.509C2047.03 629.509 2051.96 634.439 2051.96 640.519L2051.96 648.501H2029.94L2029.94 640.519ZM2041 665.133C2042.5 665.133 2043.71 666.346 2043.71 667.842V674.994C2043.71 676.49 2042.5 677.702 2041 677.702C2039.5 677.702 2038.29 676.49 2038.29 674.994V667.842C2038.29 666.346 2039.5 665.133 2041 665.133Z" fill="black"/>
</g>
</g>
<g id="Medium-S">
<g id="Solid / Lock Solid_23">
<path id="Shape_23" fill-rule="evenodd" clip-rule="evenodd" d="M1728.4 648.501L1728.4 640.519C1728.4 631.378 1735.81 623.968 1744.95 623.968C1754.09 623.968 1761.5 631.378 1761.5 640.519L1761.5 648.501H1761.67C1768.57 648.501 1774.17 654.098 1774.17 661.001V681.835C1774.17 688.738 1768.57 694.335 1761.67 694.335H1728.33C1721.43 694.335 1715.83 688.738 1715.83 681.835V661.001C1715.83 654.098 1721.43 648.501 1728.33 648.501H1728.4ZM1733.94 640.519C1733.94 634.439 1738.87 629.509 1744.95 629.509C1751.03 629.509 1755.96 634.439 1755.96 640.519L1755.96 648.501H1733.94L1733.94 640.519ZM1745 665.133C1746.5 665.133 1747.71 666.346 1747.71 667.842V674.994C1747.71 676.49 1746.5 677.702 1745 677.702C1743.5 677.702 1742.29 676.49 1742.29 674.994V667.842C1742.29 666.346 1743.5 665.133 1745 665.133Z" fill="black"/>
</g>
</g>
<g id="Regular-S">
<g id="Solid / Lock Solid_24">
<path id="Shape_24" fill-rule="evenodd" clip-rule="evenodd" d="M1432.4 648.501L1432.4 640.519C1432.4 631.378 1439.81 623.968 1448.95 623.968C1458.09 623.968 1465.5 631.378 1465.5 640.519L1465.5 648.501H1465.67C1472.57 648.501 1478.17 654.098 1478.17 661.001V681.835C1478.17 688.738 1472.57 694.335 1465.67 694.335H1432.33C1425.43 694.335 1419.83 688.738 1419.83 681.835V661.001C1419.83 654.098 1425.43 648.501 1432.33 648.501H1432.4ZM1437.94 640.519C1437.94 634.439 1442.87 629.509 1448.95 629.509C1455.03 629.509 1459.96 634.439 1459.96 640.519L1459.96 648.501H1437.94L1437.94 640.519ZM1449 665.133C1450.5 665.133 1451.71 666.346 1451.71 667.842V674.994C1451.71 676.49 1450.5 677.702 1449 677.702C1447.5 677.702 1446.29 676.49 1446.29 674.994V667.842C1446.29 666.346 1447.5 665.133 1449 665.133Z" fill="black"/>
</g>
</g>
<g id="Light-S">
<g id="Solid / Lock Solid_25">
<path id="Shape_25" fill-rule="evenodd" clip-rule="evenodd" d="M1136.4 648.501L1136.4 640.519C1136.4 631.378 1143.81 623.968 1152.95 623.968C1162.09 623.968 1169.5 631.378 1169.5 640.519L1169.5 648.501H1169.67C1176.57 648.501 1182.17 654.098 1182.17 661.001V681.835C1182.17 688.738 1176.57 694.335 1169.67 694.335H1136.33C1129.43 694.335 1123.83 688.738 1123.83 681.835V661.001C1123.83 654.098 1129.43 648.501 1136.33 648.501H1136.4ZM1141.94 640.519C1141.94 634.439 1146.87 629.509 1152.95 629.509C1159.03 629.509 1163.96 634.439 1163.96 640.519L1163.96 648.501H1141.94L1141.94 640.519ZM1153 665.133C1154.5 665.133 1155.71 666.346 1155.71 667.842V674.994C1155.71 676.49 1154.5 677.702 1153 677.702C1151.5 677.702 1150.29 676.49 1150.29 674.994V667.842C1150.29 666.346 1151.5 665.133 1153 665.133Z" fill="black"/>
</g>
</g>
<g id="Thin-S">
<g id="Solid / Lock Solid_26">
<path id="Shape_26" fill-rule="evenodd" clip-rule="evenodd" d="M840.399 648.501L840.399 640.519C840.399 631.378 847.809 623.968 856.95 623.968C866.091 623.968 873.501 631.378 873.501 640.519L873.501 648.501H873.667C880.571 648.501 886.167 654.098 886.167 661.001V681.835C886.167 688.738 880.571 694.335 873.667 694.335H840.334C833.43 694.335 827.834 688.738 827.834 681.835V661.001C827.834 654.098 833.43 648.501 840.334 648.501H840.399ZM845.941 640.519C845.941 634.439 850.87 629.509 856.95 629.509C863.031 629.509 867.96 634.439 867.96 640.519L867.96 648.501H845.941L845.941 640.519ZM857.001 665.133C858.496 665.133 859.709 666.346 859.709 667.842V674.994C859.709 676.49 858.496 677.702 857.001 677.702C855.505 677.702 854.292 676.49 854.292 674.994V667.842C854.292 666.346 855.505 665.133 857.001 665.133Z" fill="black"/>
</g>
</g>
<g id="Ultralight-S">
<g id="Solid / Lock Solid_27">
<path id="Shape_27" fill-rule="evenodd" clip-rule="evenodd" d="M544.399 648.501L544.399 640.519C544.399 631.378 551.809 623.968 560.95 623.968C570.091 623.968 577.501 631.378 577.501 640.519L577.501 648.501H577.667C584.571 648.501 590.167 654.098 590.167 661.001V681.835C590.167 688.738 584.571 694.335 577.667 694.335H544.334C537.43 694.335 531.834 688.738 531.834 681.835V661.001C531.834 654.098 537.43 648.501 544.334 648.501H544.399ZM549.941 640.519C549.941 634.439 554.87 629.509 560.95 629.509C567.031 629.509 571.96 634.439 571.96 640.519L571.96 648.501H549.941L549.941 640.519ZM561.001 665.133C562.496 665.133 563.709 666.346 563.709 667.842V674.994C563.709 676.49 562.496 677.702 561.001 677.702C559.505 677.702 558.292 676.49 558.292 674.994V667.842C558.292 666.346 559.505 665.133 561.001 665.133Z" fill="black"/>
</g>
</g>
</g>
</g>
<defs>
<clipPath id="clip0_0_1">
<rect width="3300" height="2200" fill="white"/>
</clipPath>
</defs>
</svg>
