<svg xmlns="http://www.w3.org/2000/svg" width="3300" height="2200" fill="none"><path fill="#E5E5E5" d="M0 0h3300v2200H0z"/><g id="Category / Outline / Home-Autocredit" clip-path="url(#clip0_0_1)"><g id="Notes"><path id="artboard" fill="#fff" d="M3300 0H0v2200h3300V0Z"/><path id="Vector" stroke="#000" stroke-width=".5" d="M263 292h2773"/><text xml:space="preserve" id="Weight/Scale Variations" fill="#000" font-family="Roboto" font-size="12" letter-spacing="0em" style="white-space:pre"><tspan x="263" y="321.102">Weight/Scale Variations</tspan></text><text xml:space="preserve" id="Ultralight" fill="#000" font-family="Roboto" font-size="12" letter-spacing="0em" style="white-space:pre"><tspan x="535.211" y="321.102">Ultralight</tspan></text><text xml:space="preserve" id="Thin" fill="#000" font-family="Roboto" font-size="12" letter-spacing="0em" style="white-space:pre"><tspan x="844.422" y="321.102">Thin</tspan></text><text xml:space="preserve" id="Light" fill="#000" font-family="Roboto" font-size="12" letter-spacing="0em" style="white-space:pre"><tspan x="1139.63" y="321.102">Light</tspan></text><text xml:space="preserve" id="Regular" fill="#000" font-family="Roboto" font-size="12" letter-spacing="0em" style="white-space:pre"><tspan x="1429.34" y="321.102">Regular</tspan></text><text xml:space="preserve" id="Medium" fill="#000" font-family="Roboto" font-size="12" letter-spacing="0em" style="white-space:pre"><tspan x="1724.56" y="321.102">Medium</tspan></text><text xml:space="preserve" id="Semibold" fill="#000" font-family="Roboto" font-size="12" letter-spacing="0em" style="white-space:pre"><tspan x="2017.77" y="321.102">Semibold</tspan></text><text xml:space="preserve" id="Bold" fill="#000" font-family="Roboto" font-size="12" letter-spacing="0em" style="white-space:pre"><tspan x="2327.97" y="321.102">Bold</tspan></text><text xml:space="preserve" id="Heavy" fill="#000" font-family="Roboto" font-size="12" letter-spacing="0em" style="white-space:pre"><tspan x="2620.19" y="321.102">Heavy</tspan></text><text xml:space="preserve" id="Black" fill="#000" font-family="Roboto" font-size="12" letter-spacing="0em" style="white-space:pre"><tspan x="2918.76" y="321.102">Black</tspan></text><path id="Vector_2" stroke="#000" stroke-width=".5" d="M263 1903h2773"/><g id="Group"><path id="Vector_3" fill="#000" d="M272.248 1933.83c4.307 0 7.891-3.57 7.891-7.88 0-4.31-3.594-7.88-7.901-7.88-4.297 0-7.871 3.57-7.871 7.88 0 4.31 3.584 7.88 7.881 7.88Zm0-1.48a6.364 6.364 0 0 1-6.377-6.4c0-3.56 2.822-6.4 6.367-6.4a6.382 6.382 0 0 1 6.406 6.4 6.368 6.368 0 0 1-6.396 6.4Zm-.019-2.78c.468 0 .742-.31.742-.83v-2.06h2.226c.498 0 .84-.25.84-.72 0-.48-.322-.74-.84-.74h-2.226v-2.23c0-.52-.274-.84-.742-.84-.469 0-.723.34-.723.84v2.23h-2.207c-.518 0-.85.26-.85.74 0 .47.352.72.85.72h2.207v2.06c0 .5.254.83.723.83Z"/></g><g id="Group_2"><path id="Vector_4" fill="#000" d="M293.215 1935.91c5.449 0 9.961-4.51 9.961-9.96 0-5.44-4.522-9.96-9.971-9.96-5.439 0-9.951 4.52-9.951 9.96 0 5.45 4.521 9.96 9.961 9.96Zm0-1.66a8.26 8.26 0 0 1-8.291-8.3c0-4.6 3.672-8.3 8.281-8.3a8.29 8.29 0 0 1 8.311 8.3 8.263 8.263 0 0 1-8.301 8.3Zm-.02-3.66c.518 0 .83-.36.83-.93v-2.89h3.057c.547 0 .928-.28.928-.8 0-.53-.362-.83-.928-.83h-3.057v-3.07c0-.57-.312-.93-.83-.93-.517 0-.81.38-.81.93v3.07h-3.047c-.567 0-.938.3-.938.83 0 .52.391.8.938.8h3.047v2.89c0 .55.293.93.81.93Z"/></g><g id="Group_3"><path id="Vector_5" fill="#000" d="M319.895 1938.67c6.962 0 12.724-5.75 12.724-12.71 0-6.96-5.771-12.72-12.734-12.72-6.953 0-12.705 5.76-12.705 12.72 0 6.96 5.761 12.71 12.715 12.71Zm0-1.81a10.874 10.874 0 0 1-10.889-10.9c0-6.04 4.844-10.9 10.879-10.9 6.045 0 10.898 4.86 10.908 10.9a10.87 10.87 0 0 1-10.898 10.9Zm-.02-4.92c.566 0 .918-.4.918-1v-4.07h4.238c.586 0 1.006-.33 1.006-.89 0-.58-.39-.92-1.006-.92h-4.238v-4.25c0-.61-.352-1-.918-1-.566 0-.889.41-.889 1v4.25h-4.228c-.615 0-1.026.34-1.026.92 0 .56.43.89 1.026.89h4.228v4.07c0 .59.323 1 .889 1Z"/></g><text xml:space="preserve" id="Design Variations" fill="#000" font-family="Roboto" font-size="12" letter-spacing="0em" style="white-space:pre"><tspan x="263" y="1952.1">Design Variations</tspan></text><text xml:space="preserve" id="Symbols are supported in up to nine weights and three scales." fill="#000" font-family="Roboto" font-size="12" letter-spacing="0em" style="white-space:pre"><tspan x="263" y="1970.1">Symbols are supported in up to nine weights and three scales.</tspan></text><text xml:space="preserve" id="For optimal layout with text and other symbols, vertically align" fill="#000" font-family="Roboto" font-size="12" letter-spacing="0em" style="white-space:pre"><tspan x="263" y="1988.1">For optimal layout with text and other symbols, vertically align</tspan></text><text xml:space="preserve" id="symbols with the adjacent text." fill="#000" font-family="Roboto" font-size="12" letter-spacing="0em" style="white-space:pre"><tspan x="263" y="2006.1">symbols with the adjacent text.</tspan></text><path id="Vector_6" fill="#00AEEF" d="M779 1919h-3v14h3v-14Z" opacity=".4"/><g id="Group_4"><path id="Vector_7" fill="#000" d="M789.527 1933h1.846l-5.195-14.09h-1.739l-5.195 14.09h1.846l1.416-4.03h5.605l1.416 4.03Zm-4.248-11.95h.059l2.256 6.42h-4.571l2.256-6.42Z"/></g><path id="Vector_8" fill="#00AEEF" d="M794.617 1919h-3v14h3v-14Z" opacity=".4"/><text xml:space="preserve" id="Margins" fill="#000" font-family="Roboto" font-size="12" letter-spacing="0em" style="white-space:pre"><tspan x="776" y="1952.1">Margins</tspan></text><text xml:space="preserve" id="Leading and trailing margins on the left and right side of each symbol" fill="#000" font-family="Roboto" font-size="12" letter-spacing="0em" style="white-space:pre"><tspan x="776" y="1970.1">Leading and trailing margins on the left and right side of each symbol</tspan></text><text xml:space="preserve" id="can be adjusted by modifying the width of the blue rectangles." fill="#000" font-family="Roboto" font-size="12" letter-spacing="0em" style="white-space:pre"><tspan x="776" y="1988.1">can be adjusted by modifying the width of the blue rectangles.</tspan></text><text xml:space="preserve" id="Modifications are automatically applied proportionally to all" fill="#000" font-family="Roboto" font-size="12" letter-spacing="0em" style="white-space:pre"><tspan x="776" y="2006.1">Modifications are automatically applied proportionally to all</tspan></text><text xml:space="preserve" id="scales and weights." fill="#000" font-family="Roboto" font-size="12" letter-spacing="0em" style="white-space:pre"><tspan x="776" y="2024.1">scales and weights.</tspan></text><g id="Group_5"><path id="Vector_9" fill="#000" d="m1291.83 1936.11 1.54 1.55c.85.83 1.82.76 2.69-.2l10.21-11.12c.43.29.83.28 1.29.18l1.05-.21.69.69-.05.52c-.06.53.1.95.6 1.45l.81.81c.51.5 1.16.53 1.64.05l3.25-3.25c.48-.48.46-1.13-.05-1.64l-.82-.82c-.49-.5-.91-.67-1.44-.59l-.53.05-.65-.66.28-1.14c.15-.57 0-1.04-.63-1.64l-2.41-2.39c-3.54-3.53-8.07-3.42-11.19-.29-.42.43-.47 1.02-.19 1.45.23.37.71.59 1.35.43 1.52-.38 3.03-.27 4.51.74l-.62 1.58c-.23.59-.22 1.07.02 1.5l-11.16 10.28c-.94.87-1.05 1.81-.19 2.67Zm7.84-18.26c2.67-1.99 5.98-1.68 8.38.73l2.63 2.61c.23.24.26.42.2.72l-.38 1.56 1.58 1.57.96-.09c.29-.03.37-.01.6.22l.62.62-2.75 2.75-.63-.62c-.22-.22-.24-.32-.21-.6l.09-.96-1.57-1.56-1.62.31c-.28.06-.43.06-.66-.19l-2.18-2.17c-.22-.24-.25-.38-.12-.7l.94-2.27c-1.6-1.54-3.71-2.39-5.75-1.73-.09.03-.16.01-.19-.03-.02-.05-.02-.1.06-.17Zm-6.57 17.56c-.49-.5-.31-.8.02-1.1l10.96-10.12 1.23 1.23-10.16 10.93c-.3.33-.68.43-1.08.03l-.97-.97Z"/></g><text xml:space="preserve" id="Exporting" fill="#000" font-family="Roboto" font-size="12" letter-spacing="0em" style="white-space:pre"><tspan x="1289" y="1952.1">Exporting</tspan></text><text xml:space="preserve" id="Symbols should be outlined when exporting to ensure the" fill="#000" font-family="Roboto" font-size="12" letter-spacing="0em" style="white-space:pre"><tspan x="1289" y="1970.1">Symbols should be outlined when exporting to ensure the</tspan></text><text xml:space="preserve" id="design is preserved when submitting to Xcode." fill="#000" font-family="Roboto" font-size="12" letter-spacing="0em" style="white-space:pre"><tspan x="1289" y="1988.1">design is preserved when submitting to Xcode.</tspan></text><text xml:space="preserve" id="template-version" fill="#000" font-family="Roboto" font-size="12" letter-spacing="0em" style="white-space:pre"><tspan x="2958" y="1932.1">Template v.1.0</tspan></text><text xml:space="preserve" id="Generated from pencil.circle" fill="#000" font-family="Roboto" font-size="12" letter-spacing="0em" style="white-space:pre"><tspan x="2885" y="1950.1">Generated from pencil.circle</tspan></text><text xml:space="preserve" id="Typeset at 100 points" fill="#000" font-family="Roboto" font-size="12" letter-spacing="0em" style="white-space:pre"><tspan x="2921" y="1968.1">Typeset at 100 points</tspan></text><text xml:space="preserve" id="Small" fill="#000" font-family="Roboto" font-size="12" letter-spacing="0em" style="white-space:pre"><tspan x="263" y="725.102">Small</tspan></text><text xml:space="preserve" id="Medium_2" fill="#000" font-family="Roboto" font-size="12" letter-spacing="0em" style="white-space:pre"><tspan x="263" y="1155.1">Medium</tspan></text><text xml:space="preserve" id="Large" fill="#000" font-family="Roboto" font-size="12" letter-spacing="0em" style="white-space:pre"><tspan x="263" y="1585.1">Large</tspan></text></g><g id="Guides"><g id="H-reference"><path id="Vector_10" fill="#27AAE1" d="M393.932 696h2.734l-27.1-70.459h-2.49L339.977 696h2.685l9.278-24.463h32.763L393.932 696Zm-25.733-67.09h.244l15.381 40.381h-31.006l15.381-40.381Z"/></g><path id="Baseline-S" stroke="#27AAE1" stroke-width=".577" d="M263 696h2773"/><path id="Capline-S" stroke="#27AAE1" stroke-width=".577" d="M263 626h2773"/><g id="H-reference_2"><path id="Vector_11" fill="#27AAE1" d="M393.932 1126h2.734l-27.1-70.46h-2.49L339.977 1126h2.685l9.278-24.46h32.763l9.229 24.46Zm-25.733-67.09h.244l15.381 40.38h-31.006l15.381-40.38Z"/></g><path id="Baseline-M" stroke="#27AAE1" stroke-width=".577" d="M263 1126h2773"/><path id="Capline-M" stroke="#27AAE1" stroke-width=".577" d="M263 1056h2773"/><g id="H-reference_3"><path id="Vector_12" fill="#27AAE1" d="M393.932 1556h2.734l-27.1-70.46h-2.49L339.977 1556h2.685l9.278-24.46h32.763l9.229 24.46Zm-25.733-67.09h.244l15.381 40.38h-31.006l15.381-40.38Z"/></g><g id="Group 1" stroke="#27AAE1" stroke-width=".577"><path id="Baseline-L" d="M263 1556h2773"/><path id="Capline-L" d="M263 1486h2773"/></g><path id="left-margin" fill="#00AEEF" d="M1395.04 1030.79h-8.74v119.33h8.74v-119.33Z" opacity=".4"/><path id="right-margin" fill="#00AEEF" d="M1512.39 1030.79h-8.74v119.33h8.74v-119.33Z" opacity=".4"/></g><g id="Symbols"><g id="Black-L"><g id="Outline / Home-Autocredit Outline"><g id="Shape" fill="#000"><path d="m2935.9 1448.9 60.6 60.6a4.878 4.878 0 0 1 .5 6.88 4.866 4.866 0 0 1-6.87.5c-2.82-2.81-8.37-8.36-15.47-15.45v-.01c-12.58-12.57-30.02-29.99-45.66-45.63l-61.12 61.09a4.877 4.877 0 0 1-6.88-.5 4.887 4.887 0 0 1 .5-6.88l60.61-60.6a9.747 9.747 0 0 1 13.79 0Z"/><path fill-rule="evenodd" d="M2880.62 1530.39c-2.58 3.67-4.1 8.13-4.1 12.95v35.41c0 5.38 4.36 9.75 9.75 9.75h10.97c5.39 0 9.75-4.37 9.75-9.75v-5.31h44.09v5.31c0 5.38 4.37 9.75 9.75 9.75h10.97c5.39 0 9.75-4.37 9.75-9.75v-35.41c0-4.97-1.61-9.56-4.34-13.28l-9.7-19.25a22.502 22.502 0 0 0-20.09-12.37h-36.83c-8.5 0-16.27 4.78-20.09 12.37l-9.88 19.58Zm78.13 33.3h13.05v-13.79h-8.27a4.87 4.87 0 0 1-4.87-4.87c0-2.7 2.18-4.88 4.87-4.88h7.87c-1.34-5.19-5.86-9.1-11.36-9.52h-62c-5.5.42-10.03 4.33-11.37 9.52h7.57c2.7 0 4.88 2.18 4.88 4.88 0 2.69-2.18 4.87-4.88 4.87h-7.97v13.79h13.11l4.4-9.95a22.498 22.498 0 0 1 20.58-13.39h9.42c8.9 0 16.97 5.25 20.57 13.39l4.4 9.95Zm-10.66 0-2.66-6a12.748 12.748 0 0 0-11.65-7.59h-9.43c-5.04 0-9.61 2.98-11.65 7.59l-2.66 6h38.05Zm-51.76-42.81h1.38c.44-.02.87-.04 1.31-.04h60.03c.44 0 .88.02 1.31.04h1.31l-2.87-5.68c-2.17-4.3-6.57-7.01-11.38-7.01h-36.83c-4.82 0-9.22 2.71-11.39 7.01l-2.87 5.68Zm75.47 57.87h-10.97v-5.13h10.97v5.13Zm-85.53 0h10.97v-5.13h-10.97v5.13Z" clip-rule="evenodd"/></g></g></g><g id="Heavy-L"><g id="Outline / Home-Autocredit Outline_2"><g id="Shape_2" fill="#000"><path d="m2639.9 1448.9 60.6 60.6a4.878 4.878 0 0 1 .5 6.88 4.866 4.866 0 0 1-6.87.5c-2.82-2.81-8.37-8.36-15.47-15.45v-.01c-12.58-12.57-30.02-29.99-45.66-45.63l-61.12 61.09a4.877 4.877 0 0 1-6.88-.5 4.887 4.887 0 0 1 .5-6.88l60.61-60.6a9.747 9.747 0 0 1 13.79 0Z"/><path fill-rule="evenodd" d="M2584.62 1530.39c-2.58 3.67-4.1 8.13-4.1 12.95v35.41c0 5.38 4.36 9.75 9.75 9.75h10.97c5.39 0 9.75-4.37 9.75-9.75v-5.31h44.09v5.31c0 5.38 4.37 9.75 9.75 9.75h10.97c5.39 0 9.75-4.37 9.75-9.75v-35.41c0-4.97-1.61-9.56-4.34-13.28l-9.7-19.25a22.502 22.502 0 0 0-20.09-12.37h-36.83c-8.5 0-16.27 4.78-20.09 12.37l-9.88 19.58Zm78.13 33.3h13.05v-13.79h-8.27a4.87 4.87 0 0 1-4.87-4.87c0-2.7 2.18-4.88 4.87-4.88h7.87c-1.34-5.19-5.86-9.1-11.36-9.52h-62c-5.5.42-10.03 4.33-11.37 9.52h7.57c2.7 0 4.88 2.18 4.88 4.88 0 2.69-2.18 4.87-4.88 4.87h-7.97v13.79h13.11l4.4-9.95a22.498 22.498 0 0 1 20.58-13.39h9.42c8.9 0 16.97 5.25 20.57 13.39l4.4 9.95Zm-10.66 0-2.66-6a12.748 12.748 0 0 0-11.65-7.59h-9.43c-5.04 0-9.61 2.98-11.65 7.59l-2.66 6h38.05Zm-51.76-42.81h1.38c.44-.02.87-.04 1.31-.04h60.03c.44 0 .88.02 1.31.04h1.31l-2.87-5.68c-2.17-4.3-6.57-7.01-11.38-7.01h-36.83c-4.82 0-9.22 2.71-11.39 7.01l-2.87 5.68Zm75.47 57.87h-10.97v-5.13h10.97v5.13Zm-85.53 0h10.97v-5.13h-10.97v5.13Z" clip-rule="evenodd"/></g></g></g><g id="Bold-L"><g id="Outline / Home-Autocredit Outline_3"><g id="Shape_3" fill="#000"><path d="m2343.9 1448.9 60.6 60.6a4.878 4.878 0 0 1 .5 6.88 4.866 4.866 0 0 1-6.87.5c-2.82-2.81-8.37-8.36-15.47-15.45v-.01c-12.58-12.57-30.02-29.99-45.66-45.63l-61.12 61.09a4.877 4.877 0 0 1-6.88-.5 4.887 4.887 0 0 1 .5-6.88l60.61-60.6a9.747 9.747 0 0 1 13.79 0Z"/><path fill-rule="evenodd" d="M2288.62 1530.39c-2.58 3.67-4.1 8.13-4.1 12.95v35.41c0 5.38 4.36 9.75 9.75 9.75h10.97c5.39 0 9.75-4.37 9.75-9.75v-5.31h44.09v5.31c0 5.38 4.37 9.75 9.75 9.75h10.97c5.39 0 9.75-4.37 9.75-9.75v-35.41c0-4.97-1.61-9.56-4.34-13.28l-9.7-19.25a22.502 22.502 0 0 0-20.09-12.37h-36.83c-8.5 0-16.27 4.78-20.09 12.37l-9.88 19.58Zm78.13 33.3h13.05v-13.79h-8.27a4.87 4.87 0 0 1-4.87-4.87c0-2.7 2.18-4.88 4.87-4.88h7.87c-1.34-5.19-5.86-9.1-11.36-9.52h-62c-5.5.42-10.03 4.33-11.37 9.52h7.57c2.7 0 4.88 2.18 4.88 4.88 0 2.69-2.18 4.87-4.88 4.87h-7.97v13.79h13.11l4.4-9.95a22.498 22.498 0 0 1 20.58-13.39h9.42c8.9 0 16.97 5.25 20.57 13.39l4.4 9.95Zm-10.66 0-2.66-6a12.748 12.748 0 0 0-11.65-7.59h-9.43c-5.04 0-9.61 2.98-11.65 7.59l-2.66 6h38.05Zm-51.76-42.81h1.38c.44-.02.87-.04 1.31-.04h60.03c.44 0 .88.02 1.31.04h1.31l-2.87-5.68c-2.17-4.3-6.57-7.01-11.38-7.01h-36.83c-4.82 0-9.22 2.71-11.39 7.01l-2.87 5.68Zm75.47 57.87h-10.97v-5.13h10.97v5.13Zm-85.53 0h10.97v-5.13h-10.97v5.13Z" clip-rule="evenodd"/></g></g></g><g id="Semibold-L"><g id="Outline / Home-Autocredit Outline_4"><g id="Shape_4" fill="#000"><path d="m2047.9 1448.9 60.6 60.6a4.878 4.878 0 0 1 .5 6.88 4.866 4.866 0 0 1-6.87.5c-2.82-2.81-8.37-8.36-15.47-15.45v-.01c-12.58-12.57-30.02-29.99-45.66-45.63l-61.12 61.09a4.877 4.877 0 0 1-6.88-.5 4.887 4.887 0 0 1 .5-6.88l60.61-60.6a9.747 9.747 0 0 1 13.79 0Z"/><path fill-rule="evenodd" d="M1992.62 1530.39c-2.58 3.67-4.1 8.13-4.1 12.95v35.41c0 5.38 4.36 9.75 9.75 9.75h10.97c5.39 0 9.75-4.37 9.75-9.75v-5.31h44.09v5.31c0 5.38 4.37 9.75 9.75 9.75h10.97c5.39 0 9.75-4.37 9.75-9.75v-35.41c0-4.97-1.61-9.56-4.34-13.28l-9.7-19.25a22.502 22.502 0 0 0-20.09-12.37h-36.83c-8.5 0-16.27 4.78-20.09 12.37l-9.88 19.58Zm78.13 33.3h13.05v-13.79h-8.27a4.87 4.87 0 0 1-4.87-4.87c0-2.7 2.18-4.88 4.87-4.88h7.87c-1.34-5.19-5.86-9.1-11.36-9.52h-62c-5.5.42-10.03 4.33-11.37 9.52h7.57c2.7 0 4.88 2.18 4.88 4.88 0 2.69-2.18 4.87-4.88 4.87h-7.97v13.79h13.11l4.4-9.95a22.498 22.498 0 0 1 20.58-13.39h9.42c8.9 0 16.97 5.25 20.57 13.39l4.4 9.95Zm-10.66 0-2.66-6a12.748 12.748 0 0 0-11.65-7.59h-9.43c-5.04 0-9.61 2.98-11.65 7.59l-2.66 6h38.05Zm-51.76-42.81h1.38c.44-.02.87-.04 1.31-.04h60.03c.44 0 .88.02 1.31.04h1.31l-2.87-5.68c-2.17-4.3-6.57-7.01-11.38-7.01h-36.83c-4.82 0-9.22 2.71-11.39 7.01l-2.87 5.68Zm75.47 57.87h-10.97v-5.13h10.97v5.13Zm-85.53 0h10.97v-5.13h-10.97v5.13Z" clip-rule="evenodd"/></g></g></g><g id="Medium-L"><g id="Outline / Home-Autocredit Outline_5"><g id="Shape_5" fill="#000"><path d="m1751.9 1448.9 60.6 60.6a4.878 4.878 0 0 1 .5 6.88 4.866 4.866 0 0 1-6.87.5c-2.82-2.81-8.37-8.36-15.47-15.45v-.01c-12.58-12.57-30.02-29.99-45.66-45.63l-61.12 61.09a4.877 4.877 0 0 1-6.88-.5 4.887 4.887 0 0 1 .5-6.88l60.61-60.6a9.747 9.747 0 0 1 13.79 0Z"/><path fill-rule="evenodd" d="M1696.62 1530.39c-2.58 3.67-4.1 8.13-4.1 12.95v35.41c0 5.38 4.36 9.75 9.75 9.75h10.97c5.39 0 9.75-4.37 9.75-9.75v-5.31h44.09v5.31c0 5.38 4.37 9.75 9.75 9.75h10.97c5.39 0 9.75-4.37 9.75-9.75v-35.41c0-4.97-1.61-9.56-4.34-13.28l-9.7-19.25a22.502 22.502 0 0 0-20.09-12.37h-36.83c-8.5 0-16.27 4.78-20.09 12.37l-9.88 19.58Zm78.13 33.3h13.05v-13.79h-8.27a4.87 4.87 0 0 1-4.87-4.87c0-2.7 2.18-4.88 4.87-4.88h7.87c-1.34-5.19-5.86-9.1-11.36-9.52h-62c-5.5.42-10.03 4.33-11.37 9.52h7.57c2.7 0 4.88 2.18 4.88 4.88 0 2.69-2.18 4.87-4.88 4.87h-7.97v13.79h13.11l4.4-9.95a22.498 22.498 0 0 1 20.58-13.39h9.42c8.9 0 16.97 5.25 20.57 13.39l4.4 9.95Zm-10.66 0-2.66-6a12.748 12.748 0 0 0-11.65-7.59h-9.43c-5.04 0-9.61 2.98-11.65 7.59l-2.66 6h38.05Zm-51.76-42.81h1.38c.44-.02.87-.04 1.31-.04h60.03c.44 0 .88.02 1.31.04h1.31l-2.87-5.68c-2.17-4.3-6.57-7.01-11.38-7.01h-36.83c-4.82 0-9.22 2.71-11.39 7.01l-2.87 5.68Zm75.47 57.87h-10.97v-5.13h10.97v5.13Zm-85.53 0h10.97v-5.13h-10.97v5.13Z" clip-rule="evenodd"/></g></g></g><g id="Regular-L"><g id="Outline / Home-Autocredit Outline_6"><g id="Shape_6" fill="#000"><path d="m1455.9 1448.9 60.6 60.6a4.878 4.878 0 0 1 .5 6.88 4.866 4.866 0 0 1-6.87.5c-2.82-2.81-8.37-8.36-15.47-15.45v-.01c-12.58-12.57-30.02-29.99-45.66-45.63l-61.12 61.09a4.877 4.877 0 0 1-6.88-.5 4.887 4.887 0 0 1 .5-6.88l60.61-60.6a9.747 9.747 0 0 1 13.79 0Z"/><path fill-rule="evenodd" d="M1400.62 1530.39c-2.58 3.67-4.1 8.13-4.1 12.95v35.41c0 5.38 4.36 9.75 9.75 9.75h10.97c5.39 0 9.75-4.37 9.75-9.75v-5.31h44.09v5.31c0 5.38 4.37 9.75 9.75 9.75h10.97c5.39 0 9.75-4.37 9.75-9.75v-35.41c0-4.97-1.61-9.56-4.34-13.28l-9.7-19.25a22.502 22.502 0 0 0-20.09-12.37h-36.83c-8.5 0-16.27 4.78-20.09 12.37l-9.88 19.58Zm78.13 33.3h13.05v-13.79h-8.27a4.87 4.87 0 0 1-4.87-4.87c0-2.7 2.18-4.88 4.87-4.88h7.87c-1.34-5.19-5.86-9.1-11.36-9.52h-62c-5.5.42-10.03 4.33-11.37 9.52h7.57c2.7 0 4.88 2.18 4.88 4.88 0 2.69-2.18 4.87-4.88 4.87h-7.97v13.79h13.11l4.4-9.95a22.498 22.498 0 0 1 20.58-13.39h9.42c8.9 0 16.97 5.25 20.57 13.39l4.4 9.95Zm-10.66 0-2.66-6a12.748 12.748 0 0 0-11.65-7.59h-9.43c-5.04 0-9.61 2.98-11.65 7.59l-2.66 6h38.05Zm-51.76-42.81h1.38c.44-.02.87-.04 1.31-.04h60.03c.44 0 .88.02 1.31.04h1.31l-2.87-5.68c-2.17-4.3-6.57-7.01-11.38-7.01h-36.83c-4.82 0-9.22 2.71-11.39 7.01l-2.87 5.68Zm75.47 57.87h-10.97v-5.13h10.97v5.13Zm-85.53 0h10.97v-5.13h-10.97v5.13Z" clip-rule="evenodd"/></g></g></g><g id="Light-L"><g id="Outline / Home-Autocredit Outline_7"><g id="Shape_7" fill="#000"><path d="m1159.9 1448.9 60.6 60.6a4.878 4.878 0 0 1 .5 6.88 4.866 4.866 0 0 1-6.87.5c-2.82-2.81-8.37-8.36-15.47-15.45v-.01c-12.58-12.57-30.02-29.99-45.66-45.63l-61.12 61.09a4.877 4.877 0 0 1-6.88-.5 4.887 4.887 0 0 1 .5-6.88l60.61-60.6a9.747 9.747 0 0 1 13.79 0Z"/><path fill-rule="evenodd" d="M1104.62 1530.39c-2.58 3.67-4.1 8.13-4.1 12.95v35.41c0 5.38 4.36 9.75 9.75 9.75h10.97c5.39 0 9.75-4.37 9.75-9.75v-5.31h44.09v5.31c0 5.38 4.37 9.75 9.75 9.75h10.97c5.39 0 9.75-4.37 9.75-9.75v-35.41c0-4.97-1.61-9.56-4.34-13.28l-9.7-19.25a22.502 22.502 0 0 0-20.09-12.37h-36.83c-8.5 0-16.27 4.78-20.09 12.37l-9.88 19.58Zm78.13 33.3h13.05v-13.79h-8.27a4.87 4.87 0 0 1-4.87-4.87c0-2.7 2.18-4.88 4.87-4.88h7.87c-1.34-5.19-5.86-9.1-11.36-9.52h-62c-5.5.42-10.03 4.33-11.37 9.52h7.57c2.7 0 4.88 2.18 4.88 4.88 0 2.69-2.18 4.87-4.88 4.87h-7.97v13.79h13.11l4.4-9.95a22.498 22.498 0 0 1 20.58-13.39h9.42c8.9 0 16.97 5.25 20.57 13.39l4.4 9.95Zm-10.66 0-2.66-6a12.748 12.748 0 0 0-11.65-7.59h-9.43c-5.04 0-9.61 2.98-11.65 7.59l-2.66 6h38.05Zm-51.76-42.81h1.38c.44-.02.87-.04 1.31-.04h60.03c.44 0 .88.02 1.31.04h1.31l-2.87-5.68c-2.17-4.3-6.57-7.01-11.38-7.01h-36.83c-4.82 0-9.22 2.71-11.39 7.01l-2.87 5.68Zm75.47 57.87h-10.97v-5.13h10.97v5.13Zm-85.53 0h10.97v-5.13h-10.97v5.13Z" clip-rule="evenodd"/></g></g></g><g id="Thin-L"><g id="Outline / Home-Autocredit Outline_8"><g id="Shape_8" fill="#000"><path d="m863.896 1448.9 60.606 60.6a4.88 4.88 0 0 1 .499 6.88 4.873 4.873 0 0 1-6.876.5c-2.814-2.81-8.365-8.36-15.461-15.45l-.008-.01c-12.58-12.57-30.013-29.99-45.654-45.63l-61.123 61.09a4.873 4.873 0 0 1-6.876-.5 4.88 4.88 0 0 1 .499-6.88l60.606-60.6a9.745 9.745 0 0 1 13.788 0Z"/><path fill-rule="evenodd" d="M808.618 1530.39a22.417 22.417 0 0 0-4.099 12.95v35.41c0 5.38 4.366 9.75 9.75 9.75h10.972c5.384 0 9.75-4.37 9.75-9.75v-5.31h44.093v5.31c0 5.38 4.365 9.75 9.75 9.75h10.971c5.385 0 9.75-4.37 9.75-9.75v-35.41c0-4.97-1.612-9.56-4.341-13.28l-9.707-19.25a22.492 22.492 0 0 0-20.09-12.37h-36.832a22.492 22.492 0 0 0-20.09 12.37l-9.877 19.58Zm78.137 33.3h13.05v-13.79h-8.271a4.873 4.873 0 0 1-4.875-4.87c0-2.7 2.183-4.88 4.875-4.88h7.868c-1.339-5.19-5.864-9.1-11.365-9.52h-62c-5.501.42-10.026 4.33-11.365 9.52h7.572a4.875 4.875 0 0 1 4.875 4.88c0 2.69-2.183 4.87-4.875 4.87h-7.975v13.79h13.106l4.405-9.95a22.501 22.501 0 0 1 20.575-13.39h9.42c8.904 0 16.971 5.25 20.575 13.39l4.405 9.95Zm-10.663 0-2.658-6a12.756 12.756 0 0 0-11.659-7.59h-9.42c-5.046 0-9.617 2.98-11.659 7.59l-2.658 6h38.054Zm-51.757-42.81h1.378c.433-.02.868-.04 1.306-.04h60.036c.438 0 .873.02 1.306.04h1.306l-2.866-5.68a12.748 12.748 0 0 0-11.384-7.01h-36.832c-4.813 0-9.217 2.71-11.384 7.01l-2.866 5.68Zm75.47 57.87h-10.971v-5.13h10.971v5.13Zm-85.536 0h10.972v-5.13h-10.972v5.13Z" clip-rule="evenodd"/></g></g></g><g id="Ultralight-L"><g id="Outline / Home-Autocredit Outline_9"><g id="Shape_9" fill="#000"><path d="m567.896 1448.9 60.606 60.6a4.88 4.88 0 0 1 .499 6.88 4.873 4.873 0 0 1-6.876.5c-2.814-2.81-8.365-8.36-15.461-15.45l-.008-.01c-12.58-12.57-30.013-29.99-45.654-45.63l-61.123 61.09a4.873 4.873 0 0 1-6.876-.5 4.88 4.88 0 0 1 .499-6.88l60.606-60.6a9.745 9.745 0 0 1 13.788 0Z"/><path fill-rule="evenodd" d="M512.618 1530.39a22.417 22.417 0 0 0-4.099 12.95v35.41c0 5.38 4.366 9.75 9.75 9.75h10.972c5.384 0 9.75-4.37 9.75-9.75v-5.31h44.093v5.31c0 5.38 4.365 9.75 9.75 9.75h10.971c5.385 0 9.75-4.37 9.75-9.75v-35.41c0-4.97-1.612-9.56-4.341-13.28l-9.707-19.25a22.492 22.492 0 0 0-20.09-12.37h-36.832a22.492 22.492 0 0 0-20.09 12.37l-9.877 19.58Zm78.137 33.3h13.05v-13.79h-8.271a4.873 4.873 0 0 1-4.875-4.87c0-2.7 2.183-4.88 4.875-4.88h7.868c-1.339-5.19-5.864-9.1-11.365-9.52h-62c-5.501.42-10.026 4.33-11.365 9.52h7.572a4.875 4.875 0 0 1 4.875 4.88c0 2.69-2.183 4.87-4.875 4.87h-7.975v13.79h13.106l4.405-9.95a22.501 22.501 0 0 1 20.575-13.39h9.42c8.904 0 16.971 5.25 20.575 13.39l4.405 9.95Zm-10.663 0-2.658-6a12.756 12.756 0 0 0-11.659-7.59h-9.42c-5.046 0-9.617 2.98-11.659 7.59l-2.658 6h38.054Zm-51.757-42.81h1.378c.433-.02.868-.04 1.306-.04h60.036c.438 0 .873.02 1.306.04h1.306l-2.866-5.68a12.748 12.748 0 0 0-11.384-7.01h-36.832c-4.813 0-9.217 2.71-11.384 7.01l-2.866 5.68Zm75.47 57.87h-10.971v-5.13h10.971v5.13Zm-85.536 0h10.972v-5.13h-10.972v5.13Z" clip-rule="evenodd"/></g></g></g><g id="Black-M"><g id="Outline / Home-Autocredit Outline_10"><g id="Shape_10" fill="#000"><path d="m2934.36 1034.92 47.14 47.14a3.788 3.788 0 0 1 .39 5.35 3.797 3.797 0 0 1-5.35.39l-12.02-12.02-.01-.01c-9.78-9.77-23.34-23.32-35.51-35.49l-47.54 47.52c-1.58 1.37-3.98 1.19-5.35-.39a3.797 3.797 0 0 1 .39-5.35l47.14-47.14a7.58 7.58 0 0 1 10.72 0Z"/><path fill-rule="evenodd" d="M2891.37 1098.31a17.404 17.404 0 0 0-3.19 10.07v27.54c0 4.18 3.4 7.58 7.58 7.58h8.54c4.19 0 7.58-3.4 7.58-7.58v-4.13h34.3v4.13c0 4.18 3.39 7.58 7.58 7.58h8.53c4.19 0 7.59-3.4 7.59-7.58v-27.54c0-3.87-1.26-7.44-3.38-10.33l-7.55-14.98c-2.98-5.9-9.02-9.62-15.63-9.62h-28.64c-6.61 0-12.65 3.72-15.63 9.62l-7.68 15.24Zm60.77 25.9h10.15v-10.73h-6.43c-2.09 0-3.79-1.7-3.79-3.79 0-2.1 1.7-3.79 3.79-3.79h6.12a9.93 9.93 0 0 0-8.84-7.41h-48.22a9.93 9.93 0 0 0-8.84 7.41h5.89c2.09 0 3.79 1.69 3.79 3.79 0 2.09-1.7 3.79-3.79 3.79h-6.21v10.73h10.2l3.42-7.74a17.504 17.504 0 0 1 16.01-10.42h7.32c6.93 0 13.2 4.08 16.01 10.42l3.42 7.74Zm-8.29 0-2.07-4.67a9.92 9.92 0 0 0-9.07-5.91h-7.32a9.92 9.92 0 0 0-9.07 5.91l-2.07 4.67h29.6Zm-40.26-33.3h1.08c.33-.02.67-.03 1.01-.03h46.7c.34 0 .68.01 1.01.03h1.02l-2.23-4.42a9.927 9.927 0 0 0-8.86-5.45h-28.64c-3.75 0-7.17 2.11-8.86 5.45l-2.23 4.42Zm58.7 45.01h-8.53v-3.99h8.53v3.99Zm-66.53 0h8.54v-3.99h-8.54v3.99Z" clip-rule="evenodd"/></g></g></g><g id="Heavy-M"><g id="Outline / Home-Autocredit Outline_11"><g id="Shape_11" fill="#000"><path d="m2638.36 1034.92 47.14 47.14a3.788 3.788 0 0 1 .39 5.35 3.797 3.797 0 0 1-5.35.39l-12.02-12.02-.01-.01c-9.78-9.77-23.34-23.32-35.51-35.49l-47.54 47.52c-1.58 1.37-3.98 1.19-5.35-.39a3.797 3.797 0 0 1 .39-5.35l47.14-47.14a7.58 7.58 0 0 1 10.72 0Z"/><path fill-rule="evenodd" d="M2595.37 1098.31a17.404 17.404 0 0 0-3.19 10.07v27.54c0 4.18 3.4 7.58 7.58 7.58h8.54c4.19 0 7.58-3.4 7.58-7.58v-4.13h34.3v4.13c0 4.18 3.39 7.58 7.58 7.58h8.53c4.19 0 7.59-3.4 7.59-7.58v-27.54c0-3.87-1.26-7.44-3.38-10.33l-7.55-14.98c-2.98-5.9-9.02-9.62-15.63-9.62h-28.64c-6.61 0-12.65 3.72-15.63 9.62l-7.68 15.24Zm60.77 25.9h10.15v-10.73h-6.43c-2.09 0-3.79-1.7-3.79-3.79 0-2.1 1.7-3.79 3.79-3.79h6.12a9.93 9.93 0 0 0-8.84-7.41h-48.22a9.93 9.93 0 0 0-8.84 7.41h5.89c2.09 0 3.79 1.69 3.79 3.79 0 2.09-1.7 3.79-3.79 3.79h-6.21v10.73h10.2l3.42-7.74a17.504 17.504 0 0 1 16.01-10.42h7.32c6.93 0 13.2 4.08 16.01 10.42l3.42 7.74Zm-8.29 0-2.07-4.67a9.92 9.92 0 0 0-9.07-5.91h-7.32a9.92 9.92 0 0 0-9.07 5.91l-2.07 4.67h29.6Zm-40.26-33.3h1.08c.33-.02.67-.03 1.01-.03h46.7c.34 0 .68.01 1.01.03h1.02l-2.23-4.42a9.927 9.927 0 0 0-8.86-5.45h-28.64c-3.75 0-7.17 2.11-8.86 5.45l-2.23 4.42Zm58.7 45.01h-8.53v-3.99h8.53v3.99Zm-66.53 0h8.54v-3.99h-8.54v3.99Z" clip-rule="evenodd"/></g></g></g><g id="Bold-M"><g id="Outline / Home-Autocredit Outline_12"><g id="Shape_12" fill="#000"><path d="m2342.36 1034.92 47.14 47.14a3.788 3.788 0 0 1 .39 5.35 3.797 3.797 0 0 1-5.35.39l-12.02-12.02-.01-.01c-9.78-9.77-23.34-23.32-35.51-35.49l-47.54 47.52c-1.58 1.37-3.98 1.19-5.35-.39a3.797 3.797 0 0 1 .39-5.35l47.14-47.14a7.58 7.58 0 0 1 10.72 0Z"/><path fill-rule="evenodd" d="M2299.37 1098.31a17.404 17.404 0 0 0-3.19 10.07v27.54c0 4.18 3.4 7.58 7.58 7.58h8.54c4.19 0 7.58-3.4 7.58-7.58v-4.13h34.3v4.13c0 4.18 3.39 7.58 7.58 7.58h8.53c4.19 0 7.59-3.4 7.59-7.58v-27.54c0-3.87-1.26-7.44-3.38-10.33l-7.55-14.98c-2.98-5.9-9.02-9.62-15.63-9.62h-28.64c-6.61 0-12.65 3.72-15.63 9.62l-7.68 15.24Zm60.77 25.9h10.15v-10.73h-6.43c-2.09 0-3.79-1.7-3.79-3.79 0-2.1 1.7-3.79 3.79-3.79h6.12a9.93 9.93 0 0 0-8.84-7.41h-48.22a9.93 9.93 0 0 0-8.84 7.41h5.89c2.09 0 3.79 1.69 3.79 3.79 0 2.09-1.7 3.79-3.79 3.79h-6.21v10.73h10.2l3.42-7.74a17.504 17.504 0 0 1 16.01-10.42h7.32c6.93 0 13.2 4.08 16.01 10.42l3.42 7.74Zm-8.29 0-2.07-4.67a9.92 9.92 0 0 0-9.07-5.91h-7.32a9.92 9.92 0 0 0-9.07 5.91l-2.07 4.67h29.6Zm-40.26-33.3h1.08c.33-.02.67-.03 1.01-.03h46.7c.34 0 .68.01 1.01.03h1.02l-2.23-4.42a9.927 9.927 0 0 0-8.86-5.45h-28.64c-3.75 0-7.17 2.11-8.86 5.45l-2.23 4.42Zm58.7 45.01h-8.53v-3.99h8.53v3.99Zm-66.53 0h8.54v-3.99h-8.54v3.99Z" clip-rule="evenodd"/></g></g></g><g id="Semibold-M"><g id="Outline / Home-Autocredit Outline_13"><g id="Shape_13" fill="#000"><path d="m2046.36 1034.92 47.14 47.14a3.788 3.788 0 0 1 .39 5.35 3.797 3.797 0 0 1-5.35.39l-12.02-12.02-.01-.01c-9.78-9.77-23.34-23.32-35.51-35.49l-47.54 47.52c-1.58 1.37-3.98 1.19-5.35-.39a3.797 3.797 0 0 1 .39-5.35l47.14-47.14a7.58 7.58 0 0 1 10.72 0Z"/><path fill-rule="evenodd" d="M2003.37 1098.31a17.404 17.404 0 0 0-3.19 10.07v27.54c0 4.18 3.4 7.58 7.58 7.58h8.54c4.19 0 7.58-3.4 7.58-7.58v-4.13h34.3v4.13c0 4.18 3.39 7.58 7.58 7.58h8.53c4.19 0 7.59-3.4 7.59-7.58v-27.54c0-3.87-1.26-7.44-3.38-10.33l-7.55-14.98c-2.98-5.9-9.02-9.62-15.63-9.62h-28.64c-6.61 0-12.65 3.72-15.63 9.62l-7.68 15.24Zm60.77 25.9h10.15v-10.73h-6.43c-2.09 0-3.79-1.7-3.79-3.79 0-2.1 1.7-3.79 3.79-3.79h6.12a9.93 9.93 0 0 0-8.84-7.41h-48.22a9.93 9.93 0 0 0-8.84 7.41h5.89c2.09 0 3.79 1.69 3.79 3.79 0 2.09-1.7 3.79-3.79 3.79h-6.21v10.73h10.2l3.42-7.74a17.504 17.504 0 0 1 16.01-10.42h7.32c6.93 0 13.2 4.08 16.01 10.42l3.42 7.74Zm-8.29 0-2.07-4.67a9.92 9.92 0 0 0-9.07-5.91h-7.32a9.92 9.92 0 0 0-9.07 5.91l-2.07 4.67h29.6Zm-40.26-33.3h1.08c.33-.02.67-.03 1.01-.03h46.7c.34 0 .68.01 1.01.03h1.02l-2.23-4.42a9.927 9.927 0 0 0-8.86-5.45h-28.64c-3.75 0-7.17 2.11-8.86 5.45l-2.23 4.42Zm58.7 45.01h-8.53v-3.99h8.53v3.99Zm-66.53 0h8.54v-3.99h-8.54v3.99Z" clip-rule="evenodd"/></g></g></g><g id="Medium-M"><g id="Outline / Home-Autocredit Outline_14"><g id="Shape_14" fill="#000"><path d="m1750.36 1034.92 47.14 47.14a3.788 3.788 0 0 1 .39 5.35 3.797 3.797 0 0 1-5.35.39l-12.02-12.02-.01-.01c-9.78-9.77-23.34-23.32-35.51-35.49l-47.54 47.52c-1.58 1.37-3.98 1.19-5.35-.39a3.797 3.797 0 0 1 .39-5.35l47.14-47.14a7.58 7.58 0 0 1 10.72 0Z"/><path fill-rule="evenodd" d="M1707.37 1098.31a17.404 17.404 0 0 0-3.19 10.07v27.54c0 4.18 3.4 7.58 7.58 7.58h8.54c4.19 0 7.58-3.4 7.58-7.58v-4.13h34.3v4.13c0 4.18 3.39 7.58 7.58 7.58h8.53c4.19 0 7.59-3.4 7.59-7.58v-27.54c0-3.87-1.26-7.44-3.38-10.33l-7.55-14.98c-2.98-5.9-9.02-9.62-15.63-9.62h-28.64c-6.61 0-12.65 3.72-15.63 9.62l-7.68 15.24Zm60.77 25.9h10.15v-10.73h-6.43c-2.09 0-3.79-1.7-3.79-3.79 0-2.1 1.7-3.79 3.79-3.79h6.12a9.93 9.93 0 0 0-8.84-7.41h-48.22a9.93 9.93 0 0 0-8.84 7.41h5.89c2.09 0 3.79 1.69 3.79 3.79 0 2.09-1.7 3.79-3.79 3.79h-6.21v10.73h10.2l3.42-7.74a17.504 17.504 0 0 1 16.01-10.42h7.32c6.93 0 13.2 4.08 16.01 10.42l3.42 7.74Zm-8.29 0-2.07-4.67a9.92 9.92 0 0 0-9.07-5.91h-7.32a9.92 9.92 0 0 0-9.07 5.91l-2.07 4.67h29.6Zm-40.26-33.3h1.08c.33-.02.67-.03 1.01-.03h46.7c.34 0 .68.01 1.01.03h1.02l-2.23-4.42a9.927 9.927 0 0 0-8.86-5.45h-28.64c-3.75 0-7.17 2.11-8.86 5.45l-2.23 4.42Zm58.7 45.01h-8.53v-3.99h8.53v3.99Zm-66.53 0h8.54v-3.99h-8.54v3.99Z" clip-rule="evenodd"/></g></g></g><g id="Regular-M"><g id="Outline / Home-Autocredit Outline_15"><g id="Shape_15" fill="#000"><path d="m1454.36 1034.92 47.14 47.14a3.788 3.788 0 0 1 .39 5.35 3.797 3.797 0 0 1-5.35.39l-12.02-12.02-.01-.01c-9.78-9.77-23.34-23.32-35.51-35.49l-47.54 47.52c-1.58 1.37-3.98 1.19-5.35-.39a3.797 3.797 0 0 1 .39-5.35l47.14-47.14a7.58 7.58 0 0 1 10.72 0Z"/><path fill-rule="evenodd" d="M1411.37 1098.31a17.404 17.404 0 0 0-3.19 10.07v27.54c0 4.18 3.4 7.58 7.58 7.58h8.54c4.19 0 7.58-3.4 7.58-7.58v-4.13h34.3v4.13c0 4.18 3.39 7.58 7.58 7.58h8.53c4.19 0 7.59-3.4 7.59-7.58v-27.54c0-3.87-1.26-7.44-3.38-10.33l-7.55-14.98c-2.98-5.9-9.02-9.62-15.63-9.62h-28.64c-6.61 0-12.65 3.72-15.63 9.62l-7.68 15.24Zm60.77 25.9h10.15v-10.73h-6.43c-2.09 0-3.79-1.7-3.79-3.79 0-2.1 1.7-3.79 3.79-3.79h6.12a9.93 9.93 0 0 0-8.84-7.41h-48.22a9.93 9.93 0 0 0-8.84 7.41h5.89c2.09 0 3.79 1.69 3.79 3.79 0 2.09-1.7 3.79-3.79 3.79h-6.21v10.73h10.2l3.42-7.74a17.504 17.504 0 0 1 16.01-10.42h7.32c6.93 0 13.2 4.08 16.01 10.42l3.42 7.74Zm-8.29 0-2.07-4.67a9.92 9.92 0 0 0-9.07-5.91h-7.32a9.92 9.92 0 0 0-9.07 5.91l-2.07 4.67h29.6Zm-40.26-33.3h1.08c.33-.02.67-.03 1.01-.03h46.7c.34 0 .68.01 1.01.03h1.02l-2.23-4.42a9.927 9.927 0 0 0-8.86-5.45h-28.64c-3.75 0-7.17 2.11-8.86 5.45l-2.23 4.42Zm58.7 45.01h-8.53v-3.99h8.53v3.99Zm-66.53 0h8.54v-3.99h-8.54v3.99Z" clip-rule="evenodd"/></g></g></g><g id="Light-M"><g id="Outline / Home-Autocredit Outline_16"><g id="Shape_16" fill="#000"><path d="m1158.36 1034.92 47.14 47.14a3.788 3.788 0 0 1 .39 5.35 3.797 3.797 0 0 1-5.35.39l-12.02-12.02-.01-.01c-9.78-9.77-23.34-23.32-35.51-35.49l-47.54 47.52c-1.58 1.37-3.98 1.19-5.35-.39a3.797 3.797 0 0 1 .39-5.35l47.14-47.14a7.58 7.58 0 0 1 10.72 0Z"/><path fill-rule="evenodd" d="M1115.37 1098.31a17.404 17.404 0 0 0-3.19 10.07v27.54c0 4.18 3.4 7.58 7.58 7.58h8.54c4.19 0 7.58-3.4 7.58-7.58v-4.13h34.3v4.13c0 4.18 3.39 7.58 7.58 7.58h8.53c4.19 0 7.59-3.4 7.59-7.58v-27.54c0-3.87-1.26-7.44-3.38-10.33l-7.55-14.98c-2.98-5.9-9.02-9.62-15.63-9.62h-28.64c-6.61 0-12.65 3.72-15.63 9.62l-7.68 15.24Zm60.77 25.9h10.15v-10.73h-6.43c-2.09 0-3.79-1.7-3.79-3.79 0-2.1 1.7-3.79 3.79-3.79h6.12a9.93 9.93 0 0 0-8.84-7.41h-48.22a9.93 9.93 0 0 0-8.84 7.41h5.89c2.09 0 3.79 1.69 3.79 3.79 0 2.09-1.7 3.79-3.79 3.79h-6.21v10.73h10.2l3.42-7.74a17.504 17.504 0 0 1 16.01-10.42h7.32c6.93 0 13.2 4.08 16.01 10.42l3.42 7.74Zm-8.29 0-2.07-4.67a9.92 9.92 0 0 0-9.07-5.91h-7.32a9.92 9.92 0 0 0-9.07 5.91l-2.07 4.67h29.6Zm-40.26-33.3h1.08c.33-.02.67-.03 1.01-.03h46.7c.34 0 .68.01 1.01.03h1.02l-2.23-4.42a9.927 9.927 0 0 0-8.86-5.45h-28.64c-3.75 0-7.17 2.11-8.86 5.45l-2.23 4.42Zm58.7 45.01h-8.53v-3.99h8.53v3.99Zm-66.53 0h8.54v-3.99h-8.54v3.99Z" clip-rule="evenodd"/></g></g></g><g id="Thin-M"><g id="Outline / Home-Autocredit Outline_17"><g id="Shape_17" fill="#000"><path d="m862.364 1034.92 47.137 47.14a3.794 3.794 0 0 1-4.96 5.74c-2.188-2.19-6.506-6.51-12.025-12.02l-.006-.01a58439.05 58439.05 0 0 1-35.509-35.49l-47.54 47.52a3.793 3.793 0 0 1-4.96-5.74l47.138-47.14a7.587 7.587 0 0 1 10.725 0Z"/><path fill-rule="evenodd" d="M819.369 1098.31a17.417 17.417 0 0 0-3.188 10.07v27.54c0 4.18 3.396 7.58 7.584 7.58h8.533c4.188 0 7.583-3.4 7.583-7.58v-4.13h34.295v4.13c0 4.18 3.395 7.58 7.583 7.58h8.533c4.188 0 7.584-3.4 7.584-7.58v-27.54c0-3.87-1.254-7.44-3.376-10.33l-7.551-14.98a17.498 17.498 0 0 0-15.625-9.62h-28.647a17.496 17.496 0 0 0-15.625 9.62l-7.683 15.24Zm60.773 25.9h10.15v-10.73h-6.432a3.793 3.793 0 0 1-3.792-3.79c0-2.1 1.698-3.79 3.792-3.79h6.119a9.931 9.931 0 0 0-8.84-7.41h-48.221a9.931 9.931 0 0 0-8.84 7.41h5.889a3.787 3.787 0 0 1 3.792 3.79c0 2.09-1.698 3.79-3.792 3.79h-6.202v10.73h10.193l3.426-7.74a17.493 17.493 0 0 1 16.003-10.42h7.327a17.49 17.49 0 0 1 16.002 10.42l3.426 7.74Zm-8.293 0-2.067-4.67a9.922 9.922 0 0 0-9.068-5.91h-7.327a9.92 9.92 0 0 0-9.068 5.91l-2.068 4.67h29.598Zm-40.256-33.3h1.073c.336-.02.674-.03 1.015-.03h46.695c.34 0 .679.01 1.015.03h1.016l-2.229-4.42a9.92 9.92 0 0 0-8.854-5.45h-28.647a9.919 9.919 0 0 0-8.854 5.45l-2.23 4.42Zm58.699 45.01h-8.533v-3.99h8.533v3.99Zm-66.527 0h8.533v-3.99h-8.533v3.99Z" clip-rule="evenodd"/></g></g></g><g id="Ultralight-M"><g id="Outline / Home-Autocredit Outline_18"><g id="Shape_18" fill="#000"><path d="m566.364 1034.92 47.137 47.14a3.794 3.794 0 0 1-4.96 5.74c-2.188-2.19-6.506-6.51-12.025-12.02l-.006-.01a58439.05 58439.05 0 0 1-35.509-35.49l-47.54 47.52a3.793 3.793 0 0 1-4.96-5.74l47.138-47.14a7.587 7.587 0 0 1 10.725 0Z"/><path fill-rule="evenodd" d="M523.369 1098.31a17.417 17.417 0 0 0-3.188 10.07v27.54c0 4.18 3.396 7.58 7.584 7.58h8.533c4.188 0 7.583-3.4 7.583-7.58v-4.13h34.295v4.13c0 4.18 3.395 7.58 7.583 7.58h8.533c4.188 0 7.584-3.4 7.584-7.58v-27.54c0-3.87-1.254-7.44-3.376-10.33l-7.551-14.98a17.498 17.498 0 0 0-15.625-9.62h-28.647a17.496 17.496 0 0 0-15.625 9.62l-7.683 15.24Zm60.773 25.9h10.15v-10.73h-6.432a3.793 3.793 0 0 1-3.792-3.79c0-2.1 1.698-3.79 3.792-3.79h6.119a9.931 9.931 0 0 0-8.84-7.41h-48.221a9.931 9.931 0 0 0-8.84 7.41h5.889a3.787 3.787 0 0 1 3.792 3.79c0 2.09-1.698 3.79-3.792 3.79h-6.202v10.73h10.193l3.426-7.74a17.493 17.493 0 0 1 16.003-10.42h7.327a17.49 17.49 0 0 1 16.002 10.42l3.426 7.74Zm-8.293 0-2.067-4.67a9.922 9.922 0 0 0-9.068-5.91h-7.327a9.92 9.92 0 0 0-9.068 5.91l-2.068 4.67h29.598Zm-40.256-33.3h1.073c.336-.02.674-.03 1.015-.03h46.695c.34 0 .679.01 1.015.03h1.016l-2.229-4.42a9.92 9.92 0 0 0-8.854-5.45h-28.647a9.919 9.919 0 0 0-8.854 5.45l-2.23 4.42Zm58.699 45.01h-8.533v-3.99h8.533v3.99Zm-66.527 0h8.533v-3.99h-8.533v3.99Z" clip-rule="evenodd"/></g></g></g><g id="Black-S"><g id="Outline / Home-Autocredit Outline_19"><g id="Shape_19" fill="#000"><path d="m2932.83 620.944 33.67 33.67a2.708 2.708 0 1 1-3.54 4.097c-1.56-1.563-4.65-4.645-8.59-8.583l-.01-.005c-6.98-6.983-16.67-16.659-25.36-25.349l-33.96 33.937a2.71 2.71 0 0 1-3.82-.277 2.717 2.717 0 0 1 .28-3.82l33.67-33.67a5.417 5.417 0 0 1 7.66 0Z"/><path fill-rule="evenodd" d="M2902.12 666.219a12.476 12.476 0 0 0-2.28 7.195v19.668a5.42 5.42 0 0 0 5.42 5.417h6.1c2.99 0 5.41-2.425 5.41-5.417v-2.946h24.5v2.946a5.414 5.414 0 0 0 5.42 5.417h6.09a5.42 5.42 0 0 0 5.42-5.417v-19.668c0-2.762-.9-5.314-2.41-7.382l-5.4-10.694a12.492 12.492 0 0 0-11.16-6.872h-20.46c-4.72 0-9.04 2.658-11.16 6.872l-5.49 10.881Zm43.41 18.5h7.25v-7.663h-4.59c-1.5 0-2.71-1.212-2.71-2.708a2.707 2.707 0 0 1 2.71-2.708h4.37a7.099 7.099 0 0 0-6.32-5.289h-34.44a7.099 7.099 0 0 0-6.32 5.289h4.21c1.5 0 2.71 1.212 2.71 2.708a2.707 2.707 0 0 1-2.71 2.709h-4.43v7.662h7.28l2.45-5.529c2-4.523 6.48-7.44 11.43-7.44h5.23c4.95 0 9.43 2.917 11.43 7.441l2.45 5.528Zm-5.92 0-1.48-3.336a7.075 7.075 0 0 0-6.48-4.216h-5.23c-2.8 0-5.34 1.653-6.48 4.216l-1.47 3.336h21.14Zm-28.76-23.785h.77c.24-.013.48-.02.72-.02h33.36c.24 0 .48.007.72.02h.73l-1.59-3.157a7.091 7.091 0 0 0-6.33-3.894h-20.46a7.076 7.076 0 0 0-6.32 3.894l-1.6 3.157Zm41.93 32.148h-6.09v-2.848h6.09v2.848Zm-47.52 0h6.1v-2.848h-6.1v2.848Z" clip-rule="evenodd"/></g></g></g><g id="Heavy-S"><g id="Outline / Home-Autocredit Outline_20"><g id="Shape_20" fill="#000"><path d="m2636.83 620.944 33.67 33.67a2.708 2.708 0 1 1-3.54 4.097c-1.56-1.563-4.65-4.645-8.59-8.583l-.01-.005c-6.98-6.983-16.67-16.659-25.36-25.349l-33.96 33.937a2.71 2.71 0 0 1-3.82-.277 2.717 2.717 0 0 1 .28-3.82l33.67-33.67a5.417 5.417 0 0 1 7.66 0Z"/><path fill-rule="evenodd" d="M2606.12 666.219a12.476 12.476 0 0 0-2.28 7.195v19.668a5.42 5.42 0 0 0 5.42 5.417h6.1c2.99 0 5.41-2.425 5.41-5.417v-2.946h24.5v2.946a5.414 5.414 0 0 0 5.42 5.417h6.09a5.42 5.42 0 0 0 5.42-5.417v-19.668c0-2.762-.9-5.314-2.41-7.382l-5.4-10.694a12.492 12.492 0 0 0-11.16-6.872h-20.46c-4.72 0-9.04 2.658-11.16 6.872l-5.49 10.881Zm43.41 18.5h7.25v-7.663h-4.59c-1.5 0-2.71-1.212-2.71-2.708a2.707 2.707 0 0 1 2.71-2.708h4.37a7.099 7.099 0 0 0-6.32-5.289h-34.44a7.099 7.099 0 0 0-6.32 5.289h4.21c1.5 0 2.71 1.212 2.71 2.708a2.707 2.707 0 0 1-2.71 2.709h-4.43v7.662h7.28l2.45-5.529c2-4.523 6.48-7.44 11.43-7.44h5.23c4.95 0 9.43 2.917 11.43 7.441l2.45 5.528Zm-5.92 0-1.48-3.336a7.075 7.075 0 0 0-6.48-4.216h-5.23c-2.8 0-5.34 1.653-6.48 4.216l-1.47 3.336h21.14Zm-28.76-23.785h.77c.24-.013.48-.02.72-.02h33.36c.24 0 .48.007.72.02h.73l-1.59-3.157a7.091 7.091 0 0 0-6.33-3.894h-20.46a7.076 7.076 0 0 0-6.32 3.894l-1.6 3.157Zm41.93 32.148h-6.09v-2.848h6.09v2.848Zm-47.52 0h6.1v-2.848h-6.1v2.848Z" clip-rule="evenodd"/></g></g></g><g id="Bold-S"><g id="Outline / Home-Autocredit Outline_21"><g id="Shape_21" fill="#000"><path d="m2340.83 620.944 33.67 33.67a2.708 2.708 0 1 1-3.54 4.097c-1.56-1.563-4.65-4.645-8.59-8.583l-.01-.005c-6.98-6.983-16.67-16.659-25.36-25.349l-33.96 33.937a2.71 2.71 0 0 1-3.82-.277 2.717 2.717 0 0 1 .28-3.82l33.67-33.67a5.417 5.417 0 0 1 7.66 0Z"/><path fill-rule="evenodd" d="M2310.12 666.219a12.476 12.476 0 0 0-2.28 7.195v19.668a5.42 5.42 0 0 0 5.42 5.417h6.1c2.99 0 5.41-2.425 5.41-5.417v-2.946h24.5v2.946a5.414 5.414 0 0 0 5.42 5.417h6.09a5.42 5.42 0 0 0 5.42-5.417v-19.668c0-2.762-.9-5.314-2.41-7.382l-5.4-10.694a12.492 12.492 0 0 0-11.16-6.872h-20.46c-4.72 0-9.04 2.658-11.16 6.872l-5.49 10.881Zm43.41 18.5h7.25v-7.663h-4.59c-1.5 0-2.71-1.212-2.71-2.708a2.707 2.707 0 0 1 2.71-2.708h4.37a7.099 7.099 0 0 0-6.32-5.289h-34.44a7.099 7.099 0 0 0-6.32 5.289h4.21c1.5 0 2.71 1.212 2.71 2.708a2.707 2.707 0 0 1-2.71 2.709h-4.43v7.662h7.28l2.45-5.529c2-4.523 6.48-7.44 11.43-7.44h5.23c4.95 0 9.43 2.917 11.43 7.441l2.45 5.528Zm-5.92 0-1.48-3.336a7.075 7.075 0 0 0-6.48-4.216h-5.23c-2.8 0-5.34 1.653-6.48 4.216l-1.47 3.336h21.14Zm-28.76-23.785h.77c.24-.013.48-.02.72-.02h33.36c.24 0 .48.007.72.02h.73l-1.59-3.157a7.091 7.091 0 0 0-6.33-3.894h-20.46a7.076 7.076 0 0 0-6.32 3.894l-1.6 3.157Zm41.93 32.148h-6.09v-2.848h6.09v2.848Zm-47.52 0h6.1v-2.848h-6.1v2.848Z" clip-rule="evenodd"/></g></g></g><g id="Semibold-S"><g id="Outline / Home-Autocredit Outline_22"><g id="Shape_22" fill="#000"><path d="m2044.83 620.944 33.67 33.67a2.708 2.708 0 1 1-3.54 4.097c-1.56-1.563-4.65-4.645-8.59-8.583l-.01-.005c-6.98-6.983-16.67-16.659-25.36-25.349l-33.96 33.937a2.71 2.71 0 0 1-3.82-.277 2.717 2.717 0 0 1 .28-3.82l33.67-33.67a5.417 5.417 0 0 1 7.66 0Z"/><path fill-rule="evenodd" d="M2014.12 666.219a12.476 12.476 0 0 0-2.28 7.195v19.668a5.42 5.42 0 0 0 5.42 5.417h6.1c2.99 0 5.41-2.425 5.41-5.417v-2.946h24.5v2.946a5.414 5.414 0 0 0 5.42 5.417h6.09a5.42 5.42 0 0 0 5.42-5.417v-19.668c0-2.762-.9-5.314-2.41-7.382l-5.4-10.694a12.492 12.492 0 0 0-11.16-6.872h-20.46c-4.72 0-9.04 2.658-11.16 6.872l-5.49 10.881Zm43.41 18.5h7.25v-7.663h-4.59c-1.5 0-2.71-1.212-2.71-2.708a2.707 2.707 0 0 1 2.71-2.708h4.37a7.099 7.099 0 0 0-6.32-5.289h-34.44a7.099 7.099 0 0 0-6.32 5.289h4.21c1.5 0 2.71 1.212 2.71 2.708a2.707 2.707 0 0 1-2.71 2.709h-4.43v7.662h7.28l2.45-5.529c2-4.523 6.48-7.44 11.43-7.44h5.23c4.95 0 9.43 2.917 11.43 7.441l2.45 5.528Zm-5.92 0-1.48-3.336a7.075 7.075 0 0 0-6.48-4.216h-5.23c-2.8 0-5.34 1.653-6.48 4.216l-1.47 3.336h21.14Zm-28.76-23.785h.77c.24-.013.48-.02.72-.02h33.36c.24 0 .48.007.72.02h.73l-1.59-3.157a7.091 7.091 0 0 0-6.33-3.894h-20.46a7.076 7.076 0 0 0-6.32 3.894l-1.6 3.157Zm41.93 32.148h-6.09v-2.848h6.09v2.848Zm-47.52 0h6.1v-2.848h-6.1v2.848Z" clip-rule="evenodd"/></g></g></g><g id="Medium-S"><g id="Outline / Home-Autocredit Outline_23"><g id="Shape_23" fill="#000"><path d="m1748.83 620.944 33.67 33.67a2.708 2.708 0 1 1-3.54 4.097c-1.56-1.563-4.65-4.645-8.59-8.583l-.01-.005c-6.98-6.983-16.67-16.659-25.36-25.349l-33.96 33.937a2.71 2.71 0 0 1-3.82-.277 2.717 2.717 0 0 1 .28-3.82l33.67-33.67a5.417 5.417 0 0 1 7.66 0Z"/><path fill-rule="evenodd" d="M1718.12 666.219a12.476 12.476 0 0 0-2.28 7.195v19.668a5.42 5.42 0 0 0 5.42 5.417h6.1c2.99 0 5.41-2.425 5.41-5.417v-2.946h24.5v2.946a5.414 5.414 0 0 0 5.42 5.417h6.09a5.42 5.42 0 0 0 5.42-5.417v-19.668c0-2.762-.9-5.314-2.41-7.382l-5.4-10.694a12.492 12.492 0 0 0-11.16-6.872h-20.46c-4.72 0-9.04 2.658-11.16 6.872l-5.49 10.881Zm43.41 18.5h7.25v-7.663h-4.59c-1.5 0-2.71-1.212-2.71-2.708a2.707 2.707 0 0 1 2.71-2.708h4.37a7.099 7.099 0 0 0-6.32-5.289h-34.44a7.099 7.099 0 0 0-6.32 5.289h4.21c1.5 0 2.71 1.212 2.71 2.708a2.707 2.707 0 0 1-2.71 2.709h-4.43v7.662h7.28l2.45-5.529c2-4.523 6.48-7.44 11.43-7.44h5.23c4.95 0 9.43 2.917 11.43 7.441l2.45 5.528Zm-5.92 0-1.48-3.336a7.075 7.075 0 0 0-6.48-4.216h-5.23c-2.8 0-5.34 1.653-6.48 4.216l-1.47 3.336h21.14Zm-28.76-23.785h.77c.24-.013.48-.02.72-.02h33.36c.24 0 .48.007.72.02h.73l-1.59-3.157a7.091 7.091 0 0 0-6.33-3.894h-20.46a7.076 7.076 0 0 0-6.32 3.894l-1.6 3.157Zm41.93 32.148h-6.09v-2.848h6.09v2.848Zm-47.52 0h6.1v-2.848h-6.1v2.848Z" clip-rule="evenodd"/></g></g></g><g id="Regular-S"><g id="Outline / Home-Autocredit Outline_24"><g id="Shape_24" fill="#000"><path d="m1452.83 620.944 33.67 33.67a2.708 2.708 0 1 1-3.54 4.097c-1.56-1.563-4.65-4.645-8.59-8.583l-.01-.005c-6.98-6.983-16.67-16.659-25.36-25.349l-33.96 33.937a2.71 2.71 0 0 1-3.82-.277 2.717 2.717 0 0 1 .28-3.82l33.67-33.67a5.417 5.417 0 0 1 7.66 0Z"/><path fill-rule="evenodd" d="M1422.12 666.219a12.476 12.476 0 0 0-2.28 7.195v19.668a5.42 5.42 0 0 0 5.42 5.417h6.1c2.99 0 5.41-2.425 5.41-5.417v-2.946h24.5v2.946a5.414 5.414 0 0 0 5.42 5.417h6.09a5.42 5.42 0 0 0 5.42-5.417v-19.668c0-2.762-.9-5.314-2.41-7.382l-5.4-10.694a12.492 12.492 0 0 0-11.16-6.872h-20.46c-4.72 0-9.04 2.658-11.16 6.872l-5.49 10.881Zm43.41 18.5h7.25v-7.663h-4.59c-1.5 0-2.71-1.212-2.71-2.708a2.707 2.707 0 0 1 2.71-2.708h4.37a7.099 7.099 0 0 0-6.32-5.289h-34.44a7.099 7.099 0 0 0-6.32 5.289h4.21c1.5 0 2.71 1.212 2.71 2.708a2.707 2.707 0 0 1-2.71 2.709h-4.43v7.662h7.28l2.45-5.529c2-4.523 6.48-7.44 11.43-7.44h5.23c4.95 0 9.43 2.917 11.43 7.441l2.45 5.528Zm-5.92 0-1.48-3.336a7.075 7.075 0 0 0-6.48-4.216h-5.23c-2.8 0-5.34 1.653-6.48 4.216l-1.47 3.336h21.14Zm-28.76-23.785h.77c.24-.013.48-.02.72-.02h33.36c.24 0 .48.007.72.02h.73l-1.59-3.157a7.091 7.091 0 0 0-6.33-3.894h-20.46a7.076 7.076 0 0 0-6.32 3.894l-1.6 3.157Zm41.93 32.148h-6.09v-2.848h6.09v2.848Zm-47.52 0h6.1v-2.848h-6.1v2.848Z" clip-rule="evenodd"/></g></g></g><g id="Light-S"><g id="Outline / Home-Autocredit Outline_25"><g id="Shape_25" fill="#000"><path d="m1156.83 620.944 33.67 33.67a2.708 2.708 0 1 1-3.54 4.097c-1.56-1.563-4.65-4.645-8.59-8.583l-.01-.005c-6.98-6.983-16.67-16.659-25.36-25.349l-33.96 33.937a2.71 2.71 0 0 1-3.82-.277 2.717 2.717 0 0 1 .28-3.82l33.67-33.67a5.417 5.417 0 0 1 7.66 0Z"/><path fill-rule="evenodd" d="M1126.12 666.219a12.476 12.476 0 0 0-2.28 7.195v19.668a5.42 5.42 0 0 0 5.42 5.417h6.1c2.99 0 5.41-2.425 5.41-5.417v-2.946h24.5v2.946a5.414 5.414 0 0 0 5.42 5.417h6.09a5.42 5.42 0 0 0 5.42-5.417v-19.668c0-2.762-.9-5.314-2.41-7.382l-5.4-10.694a12.492 12.492 0 0 0-11.16-6.872h-20.46c-4.72 0-9.04 2.658-11.16 6.872l-5.49 10.881Zm43.41 18.5h7.25v-7.663h-4.59c-1.5 0-2.71-1.212-2.71-2.708a2.707 2.707 0 0 1 2.71-2.708h4.37a7.099 7.099 0 0 0-6.32-5.289h-34.44a7.099 7.099 0 0 0-6.32 5.289h4.21c1.5 0 2.71 1.212 2.71 2.708a2.707 2.707 0 0 1-2.71 2.709h-4.43v7.662h7.28l2.45-5.529c2-4.523 6.48-7.44 11.43-7.44h5.23c4.95 0 9.43 2.917 11.43 7.441l2.45 5.528Zm-5.92 0-1.48-3.336a7.075 7.075 0 0 0-6.48-4.216h-5.23c-2.8 0-5.34 1.653-6.48 4.216l-1.47 3.336h21.14Zm-28.76-23.785h.77c.24-.013.48-.02.72-.02h33.36c.24 0 .48.007.72.02h.73l-1.59-3.157a7.091 7.091 0 0 0-6.33-3.894h-20.46a7.076 7.076 0 0 0-6.32 3.894l-1.6 3.157Zm41.93 32.148h-6.09v-2.848h6.09v2.848Zm-47.52 0h6.1v-2.848h-6.1v2.848Z" clip-rule="evenodd"/></g></g></g><g id="Thin-S"><g id="Outline / Home-Autocredit Outline_26"><g id="Shape_26" fill="#000"><path d="m860.832 620.944 33.669 33.67a2.708 2.708 0 1 1-3.542 4.097l-8.59-8.583-.004-.005c-6.989-6.983-16.674-16.659-25.364-25.349l-33.957 33.937a2.709 2.709 0 0 1-3.543-4.097l33.67-33.67a5.418 5.418 0 0 1 7.661 0Z"/><path fill-rule="evenodd" d="M830.121 666.219a12.445 12.445 0 0 0-2.277 7.195v19.668a5.417 5.417 0 0 0 5.417 5.417h6.095a5.417 5.417 0 0 0 5.417-5.417v-2.946h24.496v2.946a5.417 5.417 0 0 0 5.417 5.417h6.095a5.416 5.416 0 0 0 5.416-5.417v-19.668c0-2.762-.895-5.314-2.411-7.382l-5.393-10.694a12.5 12.5 0 0 0-11.161-6.872H846.77a12.5 12.5 0 0 0-11.161 6.872l-5.488 10.881Zm43.41 18.5h7.25v-7.663h-4.595a2.707 2.707 0 1 1 0-5.416h4.371a7.09 7.09 0 0 0-6.314-5.289h-34.444a7.088 7.088 0 0 0-6.314 5.289h4.206a2.708 2.708 0 1 1 0 5.417h-4.43v7.662h7.281l2.447-5.529a12.502 12.502 0 0 1 11.431-7.44h5.233a12.5 12.5 0 0 1 11.431 7.441l2.447 5.528Zm-5.924 0-1.477-3.336a7.083 7.083 0 0 0-6.477-4.216h-5.233a7.083 7.083 0 0 0-6.477 4.216l-1.477 3.336h21.141Zm-28.754-23.785h.766c.24-.013.482-.02.725-.02h33.353c.244 0 .486.007.726.02h.726l-1.593-3.157a7.082 7.082 0 0 0-6.324-3.894H846.77a7.084 7.084 0 0 0-6.325 3.894l-1.592 3.157Zm41.928 32.148h-6.095v-2.848h6.095v2.848Zm-47.52 0h6.095v-2.848h-6.095v2.848Z" clip-rule="evenodd"/></g></g></g><g id="Ultralight-S"><g id="Outline / Home-Autocredit Outline_27"><g id="Shape_27" fill="#000"><path d="m564.832 620.944 33.669 33.67a2.708 2.708 0 1 1-3.542 4.097l-8.59-8.583-.004-.005c-6.989-6.983-16.674-16.659-25.364-25.349l-33.957 33.937a2.709 2.709 0 0 1-3.543-4.097l33.67-33.67a5.418 5.418 0 0 1 7.661 0Z"/><path fill-rule="evenodd" d="M534.121 666.219a12.445 12.445 0 0 0-2.277 7.195v19.668a5.417 5.417 0 0 0 5.417 5.417h6.095a5.417 5.417 0 0 0 5.417-5.417v-2.946h24.496v2.946a5.417 5.417 0 0 0 5.417 5.417h6.095a5.416 5.416 0 0 0 5.416-5.417v-19.668c0-2.762-.895-5.314-2.411-7.382l-5.393-10.694a12.5 12.5 0 0 0-11.161-6.872H550.77a12.5 12.5 0 0 0-11.161 6.872l-5.488 10.881Zm43.41 18.5h7.25v-7.663h-4.595a2.707 2.707 0 1 1 0-5.416h4.371a7.09 7.09 0 0 0-6.314-5.289h-34.444a7.088 7.088 0 0 0-6.314 5.289h4.206a2.708 2.708 0 1 1 0 5.417h-4.43v7.662h7.281l2.447-5.529a12.502 12.502 0 0 1 11.431-7.44h5.233a12.5 12.5 0 0 1 11.431 7.441l2.447 5.528Zm-5.924 0-1.477-3.336a7.083 7.083 0 0 0-6.477-4.216h-5.233a7.083 7.083 0 0 0-6.477 4.216l-1.477 3.336h21.141Zm-28.754-23.785h.766c.24-.013.482-.02.725-.02h33.353c.244 0 .486.007.726.02h.726l-1.593-3.157a7.082 7.082 0 0 0-6.324-3.894H550.77a7.084 7.084 0 0 0-6.325 3.894l-1.592 3.157Zm41.928 32.148h-6.095v-2.848h6.095v2.848Zm-47.52 0h6.095v-2.848h-6.095v2.848Z" clip-rule="evenodd"/></g></g></g></g></g><defs><clipPath id="clip0_0_1"><path fill="#fff" d="M0 0h3300v2200H0z"/></clipPath></defs></svg>