<svg width="3300" height="2200" viewBox="0 0 3300 2200" fill="none" xmlns="http://www.w3.org/2000/svg">
<rect width="3300" height="2200" fill="#E5E5E5"/>
<g id="Communication / Solid / Signal" clip-path="url(#clip0_0_1)">
<g id="Notes">
<path id="artboard" d="M3300 0H0V2200H3300V0Z" fill="white"/>
<path id="Vector" d="M263 292H3036" stroke="black" stroke-width="0.5"/>
<text id="Weight/Scale Variations" fill="black" xml:space="preserve" style="white-space: pre" font-family="Roboto" font-size="12" letter-spacing="0em"><tspan x="263" y="321.102">Weight/Scale Variations</tspan></text>
<text id="Ultralight" fill="black" xml:space="preserve" style="white-space: pre" font-family="Roboto" font-size="12" letter-spacing="0em"><tspan x="535.211" y="321.102">Ultralight</tspan></text>
<text id="Thin" fill="black" xml:space="preserve" style="white-space: pre" font-family="Roboto" font-size="12" letter-spacing="0em"><tspan x="844.422" y="321.102">Thin</tspan></text>
<text id="Light" fill="black" xml:space="preserve" style="white-space: pre" font-family="Roboto" font-size="12" letter-spacing="0em"><tspan x="1139.63" y="321.102">Light</tspan></text>
<text id="Regular" fill="black" xml:space="preserve" style="white-space: pre" font-family="Roboto" font-size="12" letter-spacing="0em"><tspan x="1429.34" y="321.102">Regular</tspan></text>
<text id="Medium" fill="black" xml:space="preserve" style="white-space: pre" font-family="Roboto" font-size="12" letter-spacing="0em"><tspan x="1724.56" y="321.102">Medium</tspan></text>
<text id="Semibold" fill="black" xml:space="preserve" style="white-space: pre" font-family="Roboto" font-size="12" letter-spacing="0em"><tspan x="2017.77" y="321.102">Semibold</tspan></text>
<text id="Bold" fill="black" xml:space="preserve" style="white-space: pre" font-family="Roboto" font-size="12" letter-spacing="0em"><tspan x="2327.48" y="321.102">Bold</tspan></text>
<text id="Heavy" fill="black" xml:space="preserve" style="white-space: pre" font-family="Roboto" font-size="12" letter-spacing="0em"><tspan x="2620.19" y="321.102">Heavy</tspan></text>
<text id="Black" fill="black" xml:space="preserve" style="white-space: pre" font-family="Roboto" font-size="12" letter-spacing="0em"><tspan x="2918.4" y="321.102">Black</tspan></text>
<path id="Vector_2" d="M263 1903H3036" stroke="black" stroke-width="0.5"/>
<g id="Group">
<path id="Vector_3" d="M272.248 1933.83C276.555 1933.83 280.139 1930.26 280.139 1925.95C280.139 1921.64 276.545 1918.07 272.238 1918.07C267.941 1918.07 264.367 1921.64 264.367 1925.95C264.367 1930.26 267.951 1933.83 272.248 1933.83ZM272.248 1932.35C268.703 1932.35 265.871 1929.5 265.871 1925.95C265.871 1922.39 268.693 1919.55 272.238 1919.55C275.793 1919.55 278.635 1922.39 278.644 1925.95C278.654 1929.5 275.803 1932.35 272.248 1932.35ZM272.229 1929.57C272.697 1929.57 272.971 1929.26 272.971 1928.74V1926.68H275.197C275.695 1926.68 276.037 1926.43 276.037 1925.96C276.037 1925.48 275.715 1925.22 275.197 1925.22H272.971V1922.99C272.971 1922.47 272.697 1922.15 272.229 1922.15C271.76 1922.15 271.506 1922.49 271.506 1922.99V1925.22H269.299C268.781 1925.22 268.449 1925.48 268.449 1925.96C268.449 1926.43 268.801 1926.68 269.299 1926.68H271.506V1928.74C271.506 1929.24 271.76 1929.57 272.229 1929.57Z" fill="black"/>
</g>
<g id="Group_2">
<path id="Vector_4" d="M293.215 1935.91C298.664 1935.91 303.176 1931.4 303.176 1925.95C303.176 1920.51 298.654 1915.99 293.205 1915.99C287.766 1915.99 283.254 1920.51 283.254 1925.95C283.254 1931.4 287.775 1935.91 293.215 1935.91ZM293.215 1934.25C288.605 1934.25 284.924 1930.56 284.924 1925.95C284.924 1921.35 288.596 1917.65 293.205 1917.65C297.814 1917.65 301.506 1921.35 301.516 1925.95C301.525 1930.56 297.824 1934.25 293.215 1934.25ZM293.195 1930.59C293.713 1930.59 294.025 1930.23 294.025 1929.66V1926.77H297.082C297.629 1926.77 298.01 1926.49 298.01 1925.97C298.01 1925.44 297.648 1925.14 297.082 1925.14H294.025V1922.07C294.025 1921.5 293.713 1921.14 293.195 1921.14C292.678 1921.14 292.385 1921.52 292.385 1922.07V1925.14H289.338C288.771 1925.14 288.4 1925.44 288.4 1925.97C288.4 1926.49 288.791 1926.77 289.338 1926.77H292.385V1929.66C292.385 1930.21 292.678 1930.59 293.195 1930.59Z" fill="black"/>
</g>
<g id="Group_3">
<path id="Vector_5" d="M319.895 1938.67C326.857 1938.67 332.619 1932.92 332.619 1925.96C332.619 1919 326.848 1913.24 319.885 1913.24C312.932 1913.24 307.18 1919 307.18 1925.96C307.18 1932.92 312.941 1938.67 319.895 1938.67ZM319.895 1936.86C313.859 1936.86 309.006 1931.99 309.006 1925.96C309.006 1919.92 313.85 1915.06 319.885 1915.06C325.93 1915.06 330.783 1919.92 330.793 1925.96C330.803 1931.99 325.939 1936.86 319.895 1936.86ZM319.875 1931.94C320.441 1931.94 320.793 1931.54 320.793 1930.94V1926.87H325.031C325.617 1926.87 326.037 1926.54 326.037 1925.98C326.037 1925.4 325.647 1925.06 325.031 1925.06H320.793V1920.81C320.793 1920.2 320.441 1919.81 319.875 1919.81C319.309 1919.81 318.986 1920.22 318.986 1920.81V1925.06H314.758C314.143 1925.06 313.732 1925.4 313.732 1925.98C313.732 1926.54 314.162 1926.87 314.758 1926.87H318.986V1930.94C318.986 1931.53 319.309 1931.94 319.875 1931.94Z" fill="black"/>
</g>
<text id="Design Variations" fill="black" xml:space="preserve" style="white-space: pre" font-family="Roboto" font-size="12" letter-spacing="0em"><tspan x="263" y="1952.1">Design Variations</tspan></text>
<text id="Symbols are supported in up to nine weights and three scales." fill="black" xml:space="preserve" style="white-space: pre" font-family="Roboto" font-size="12" letter-spacing="0em"><tspan x="263" y="1970.1">Symbols are supported in up to nine weights and three scales.</tspan></text>
<text id="For optimal layout with text and other symbols, vertically align" fill="black" xml:space="preserve" style="white-space: pre" font-family="Roboto" font-size="12" letter-spacing="0em"><tspan x="263" y="1988.1">For optimal layout with text and other symbols, vertically align</tspan></text>
<text id="symbols with the adjacent text." fill="black" xml:space="preserve" style="white-space: pre" font-family="Roboto" font-size="12" letter-spacing="0em"><tspan x="263" y="2006.1">symbols with the adjacent text.</tspan></text>
<path id="Vector_6" opacity="0.4" d="M779 1919H776V1933H779V1919Z" fill="#00AEEF"/>
<g id="Group_4">
<path id="Vector_7" d="M789.527 1933H791.373L786.178 1918.91H784.439L779.244 1933H781.09L782.506 1928.97H788.111L789.527 1933ZM785.279 1921.05H785.338L787.594 1927.47H783.023L785.279 1921.05Z" fill="black"/>
</g>
<path id="Vector_8" opacity="0.4" d="M794.617 1919H791.617V1933H794.617V1919Z" fill="#00AEEF"/>
<text id="Margins" fill="black" xml:space="preserve" style="white-space: pre" font-family="Roboto" font-size="12" letter-spacing="0em"><tspan x="776" y="1952.1">Margins</tspan></text>
<text id="Leading and trailing margins on the left and right side of each symbol" fill="black" xml:space="preserve" style="white-space: pre" font-family="Roboto" font-size="12" letter-spacing="0em"><tspan x="776" y="1970.1">Leading and trailing margins on the left and right side of each symbol</tspan></text>
<text id="can be adjusted by modifying the width of the blue rectangles." fill="black" xml:space="preserve" style="white-space: pre" font-family="Roboto" font-size="12" letter-spacing="0em"><tspan x="776" y="1988.1">can be adjusted by modifying the width of the blue rectangles.</tspan></text>
<text id="Modifications are automatically applied proportionally to all" fill="black" xml:space="preserve" style="white-space: pre" font-family="Roboto" font-size="12" letter-spacing="0em"><tspan x="776" y="2006.1">Modifications are automatically applied proportionally to all</tspan></text>
<text id="scales and weights." fill="black" xml:space="preserve" style="white-space: pre" font-family="Roboto" font-size="12" letter-spacing="0em"><tspan x="776" y="2024.1">scales and weights.</tspan></text>
<g id="Group_5">
<path id="Vector_9" d="M1291.83 1936.12L1293.37 1937.66C1294.22 1938.49 1295.19 1938.42 1296.06 1937.46L1306.27 1926.34C1306.7 1926.63 1307.1 1926.62 1307.56 1926.53L1308.61 1926.31L1309.3 1927L1309.25 1927.52C1309.19 1928.05 1309.35 1928.47 1309.85 1928.97L1310.66 1929.78C1311.17 1930.29 1311.82 1930.31 1312.3 1929.84L1315.55 1926.58C1316.03 1926.11 1316.01 1925.45 1315.5 1924.94L1314.68 1924.12C1314.19 1923.62 1313.77 1923.45 1313.24 1923.53L1312.71 1923.59L1312.06 1922.92L1312.34 1921.78C1312.49 1921.21 1312.34 1920.74 1311.71 1920.14L1309.3 1917.75C1305.76 1914.22 1301.23 1914.33 1298.11 1917.46C1297.69 1917.89 1297.64 1918.48 1297.92 1918.91C1298.15 1919.28 1298.63 1919.5 1299.27 1919.34C1300.79 1918.96 1302.3 1919.07 1303.78 1920.08L1303.16 1921.66C1302.93 1922.25 1302.94 1922.73 1303.18 1923.17L1292.02 1933.44C1291.08 1934.31 1290.97 1935.26 1291.83 1936.12ZM1299.67 1917.85C1302.34 1915.86 1305.65 1916.17 1308.05 1918.59L1310.68 1921.19C1310.91 1921.43 1310.94 1921.61 1310.88 1921.91L1310.5 1923.47L1312.08 1925.04L1313.04 1924.95C1313.33 1924.92 1313.41 1924.94 1313.64 1925.17L1314.26 1925.79L1311.51 1928.54L1310.88 1927.92C1310.66 1927.7 1310.64 1927.6 1310.67 1927.32L1310.76 1926.36L1309.19 1924.8L1307.57 1925.11C1307.29 1925.17 1307.14 1925.17 1306.91 1924.92L1304.73 1922.75C1304.51 1922.51 1304.48 1922.37 1304.61 1922.05L1305.55 1919.78C1303.95 1918.24 1301.84 1917.39 1299.8 1918.05C1299.71 1918.08 1299.64 1918.06 1299.61 1918.02C1299.59 1917.97 1299.59 1917.92 1299.67 1917.85ZM1293.1 1935.41C1292.61 1934.91 1292.79 1934.61 1293.12 1934.31L1304.08 1924.19L1305.31 1925.42L1295.15 1936.35C1294.85 1936.68 1294.47 1936.78 1294.07 1936.38L1293.1 1935.41Z" fill="black"/>
</g>
<text id="Exporting" fill="black" xml:space="preserve" style="white-space: pre" font-family="Roboto" font-size="12" letter-spacing="0em"><tspan x="1289" y="1952.1">Exporting</tspan></text>
<text id="Symbols should be outlined when exporting to ensure the" fill="black" xml:space="preserve" style="white-space: pre" font-family="Roboto" font-size="12" letter-spacing="0em"><tspan x="1289" y="1970.1">Symbols should be outlined when exporting to ensure the</tspan></text>
<text id="design is preserved when submitting to Xcode." fill="black" xml:space="preserve" style="white-space: pre" font-family="Roboto" font-size="12" letter-spacing="0em"><tspan x="1289" y="1988.1">design is preserved when submitting to Xcode.</tspan></text>
<text id="template-version" fill="black" xml:space="preserve" style="white-space: pre" font-family="Roboto" font-size="12" letter-spacing="0em"><tspan x="2958" y="1932.1">Template v.1.0</tspan></text>
<text id="Generated from pencil.circle" fill="black" xml:space="preserve" style="white-space: pre" font-family="Roboto" font-size="12" letter-spacing="0em"><tspan x="2885" y="1950.1">Generated from pencil.circle</tspan></text>
<text id="Typeset at 100 points" fill="black" xml:space="preserve" style="white-space: pre" font-family="Roboto" font-size="12" letter-spacing="0em"><tspan x="2921" y="1968.1">Typeset at 100 points</tspan></text>
<text id="Small" fill="black" xml:space="preserve" style="white-space: pre" font-family="Roboto" font-size="12" letter-spacing="0em"><tspan x="263" y="725.102">Small</tspan></text>
<text id="Medium_2" fill="black" xml:space="preserve" style="white-space: pre" font-family="Roboto" font-size="12" letter-spacing="0em"><tspan x="263" y="1155.1">Medium</tspan></text>
<text id="Large" fill="black" xml:space="preserve" style="white-space: pre" font-family="Roboto" font-size="12" letter-spacing="0em"><tspan x="263" y="1585.1">Large</tspan></text>
</g>
<g id="Guides">
<g id="H-reference">
<path id="Vector_10" d="M393.932 696H396.666L369.566 625.541H367.076L339.977 696H342.662L351.94 671.537H384.703L393.932 696ZM368.199 628.91H368.443L383.824 669.291H352.818L368.199 628.91Z" fill="#27AAE1"/>
</g>
<path id="Baseline-S" d="M263 696H3036" stroke="#27AAE1" stroke-width="0.577"/>
<path id="Capline-S" d="M263 626H3036" stroke="#27AAE1" stroke-width="0.577"/>
<g id="H-reference_2">
<path id="Vector_11" d="M393.932 1126H396.666L369.566 1055.54H367.076L339.977 1126H342.662L351.94 1101.54H384.703L393.932 1126ZM368.199 1058.91H368.443L383.824 1099.29H352.818L368.199 1058.91Z" fill="#27AAE1"/>
</g>
<path id="Baseline-M" d="M263 1126H3036" stroke="#27AAE1" stroke-width="0.577"/>
<path id="Capline-M" d="M263 1056H3036" stroke="#27AAE1" stroke-width="0.577"/>
<g id="H-reference_3">
<path id="Vector_12" d="M393.932 1556H396.666L369.566 1485.54H367.076L339.977 1556H342.662L351.94 1531.54H384.703L393.932 1556ZM368.199 1488.91H368.443L383.824 1529.29H352.818L368.199 1488.91Z" fill="#27AAE1"/>
</g>
<g id="Group 1">
<path id="Baseline-L" d="M263 1556H3036" stroke="#27AAE1" stroke-width="0.577"/>
<path id="Capline-L" d="M263 1486H3036" stroke="#27AAE1" stroke-width="0.577"/>
</g>
<path id="left-margin" opacity="0.4" d="M1396.04 1030.79H1387.3V1150.13H1396.04V1030.79Z" fill="#00AEEF"/>
<path id="right-margin" opacity="0.4" d="M1510.39 1030.79H1501.65V1150.13H1510.39V1030.79Z" fill="#00AEEF"/>
</g>
<g id="Symbols">
<g id="Black-L">
<g id="Solid / Signal Solid">
<g id="Shape">
<path d="M2973.98 1557.23C2972.29 1559.33 2972.35 1562.42 2974.31 1564.27C2976.26 1566.11 2979.35 1566.04 2981.06 1563.97C2990.65 1552.34 2996.41 1537.43 2996.41 1521.18C2996.41 1484 2966.27 1453.87 2929.09 1453.87C2891.91 1453.87 2861.77 1484 2861.77 1521.18C2861.77 1537.36 2867.48 1552.21 2876.99 1563.82C2878.7 1565.9 2881.8 1565.97 2883.76 1564.12C2885.71 1562.27 2885.77 1559.19 2884.09 1557.09C2876.23 1547.25 2871.52 1534.76 2871.52 1521.18C2871.52 1489.39 2897.3 1463.62 2929.09 1463.62C2960.88 1463.62 2986.66 1489.39 2986.66 1521.18C2986.66 1534.83 2981.91 1547.36 2973.98 1557.23Z" fill="black"/>
<path d="M2964.15 1548C2962.52 1550.13 2959.42 1550.19 2957.48 1548.35C2955.51 1546.49 2955.47 1543.41 2957.05 1541.21C2961.1 1535.57 2963.48 1528.66 2963.48 1521.18C2963.48 1502.19 2948.08 1486.79 2929.09 1486.79C2910.1 1486.79 2894.7 1502.19 2894.7 1521.18C2894.7 1528.59 2897.04 1535.44 2901.02 1541.06C2902.58 1543.25 2902.53 1546.32 2900.58 1548.17C2898.62 1550.02 2895.51 1549.95 2893.88 1547.81C2888.28 1540.41 2884.95 1531.18 2884.95 1521.18C2884.95 1496.81 2904.71 1477.04 2929.09 1477.04C2953.47 1477.04 2973.23 1496.81 2973.23 1521.18C2973.23 1531.27 2969.84 1540.57 2964.15 1548Z" fill="black"/>
<path d="M2947.75 1520.68C2947.75 1529.31 2941.91 1536.58 2933.97 1538.76V1583.58C2933.97 1586.27 2931.79 1588.45 2929.1 1588.45C2926.41 1588.45 2924.22 1586.27 2924.22 1583.58V1538.81C2916.18 1536.7 2910.25 1529.38 2910.25 1520.68C2910.25 1510.32 2918.64 1501.93 2929 1501.93C2939.36 1501.93 2947.75 1510.32 2947.75 1520.68Z" fill="black"/>
</g>
</g>
</g>
<g id="Heavy-L">
<g id="Solid / Signal Solid_2">
<g id="Shape_2">
<path d="M2677.98 1557.23C2676.29 1559.33 2676.35 1562.42 2678.31 1564.27C2680.26 1566.11 2683.35 1566.04 2685.06 1563.97C2694.65 1552.34 2700.41 1537.43 2700.41 1521.18C2700.41 1484 2670.27 1453.87 2633.09 1453.87C2595.91 1453.87 2565.77 1484 2565.77 1521.18C2565.77 1537.36 2571.48 1552.21 2580.99 1563.82C2582.7 1565.9 2585.8 1565.97 2587.76 1564.12C2589.71 1562.27 2589.77 1559.19 2588.09 1557.09C2580.23 1547.25 2575.52 1534.76 2575.52 1521.18C2575.52 1489.39 2601.3 1463.62 2633.09 1463.62C2664.88 1463.62 2690.66 1489.39 2690.66 1521.18C2690.66 1534.83 2685.91 1547.36 2677.98 1557.23Z" fill="black"/>
<path d="M2668.15 1548C2666.52 1550.13 2663.42 1550.19 2661.48 1548.35C2659.51 1546.49 2659.47 1543.41 2661.05 1541.21C2665.1 1535.57 2667.48 1528.66 2667.48 1521.18C2667.48 1502.19 2652.08 1486.79 2633.09 1486.79C2614.1 1486.79 2598.7 1502.19 2598.7 1521.18C2598.7 1528.59 2601.04 1535.44 2605.02 1541.06C2606.58 1543.25 2606.53 1546.32 2604.58 1548.17C2602.62 1550.02 2599.51 1549.95 2597.88 1547.81C2592.28 1540.41 2588.95 1531.18 2588.95 1521.18C2588.95 1496.81 2608.71 1477.04 2633.09 1477.04C2657.47 1477.04 2677.23 1496.81 2677.23 1521.18C2677.23 1531.27 2673.84 1540.57 2668.15 1548Z" fill="black"/>
<path d="M2651.75 1520.68C2651.75 1529.31 2645.91 1536.58 2637.97 1538.76V1583.58C2637.97 1586.27 2635.79 1588.45 2633.1 1588.45C2630.41 1588.45 2628.22 1586.27 2628.22 1583.58V1538.81C2620.18 1536.7 2614.25 1529.38 2614.25 1520.68C2614.25 1510.32 2622.64 1501.93 2633 1501.93C2643.36 1501.93 2651.75 1510.32 2651.75 1520.68Z" fill="black"/>
</g>
</g>
</g>
<g id="Bold-L">
<g id="Solid / Signal Solid_3">
<g id="Shape_3">
<path d="M2381.98 1557.23C2380.29 1559.33 2380.35 1562.42 2382.31 1564.27C2384.26 1566.11 2387.35 1566.04 2389.06 1563.97C2398.65 1552.34 2404.41 1537.43 2404.41 1521.18C2404.41 1484 2374.27 1453.87 2337.09 1453.87C2299.91 1453.87 2269.77 1484 2269.77 1521.18C2269.77 1537.36 2275.48 1552.21 2284.99 1563.82C2286.7 1565.9 2289.8 1565.97 2291.76 1564.12C2293.71 1562.27 2293.77 1559.19 2292.09 1557.09C2284.23 1547.25 2279.52 1534.76 2279.52 1521.18C2279.52 1489.39 2305.3 1463.62 2337.09 1463.62C2368.88 1463.62 2394.66 1489.39 2394.66 1521.18C2394.66 1534.83 2389.91 1547.36 2381.98 1557.23Z" fill="black"/>
<path d="M2372.15 1548C2370.52 1550.13 2367.42 1550.19 2365.48 1548.35C2363.51 1546.49 2363.47 1543.41 2365.05 1541.21C2369.1 1535.57 2371.48 1528.66 2371.48 1521.18C2371.48 1502.19 2356.08 1486.79 2337.09 1486.79C2318.1 1486.79 2302.7 1502.19 2302.7 1521.18C2302.7 1528.59 2305.04 1535.44 2309.02 1541.06C2310.58 1543.25 2310.53 1546.32 2308.58 1548.17C2306.62 1550.02 2303.51 1549.95 2301.88 1547.81C2296.28 1540.41 2292.95 1531.18 2292.95 1521.18C2292.95 1496.81 2312.71 1477.04 2337.09 1477.04C2361.47 1477.04 2381.23 1496.81 2381.23 1521.18C2381.23 1531.27 2377.84 1540.57 2372.15 1548Z" fill="black"/>
<path d="M2355.75 1520.68C2355.75 1529.31 2349.91 1536.58 2341.97 1538.76V1583.58C2341.97 1586.27 2339.79 1588.45 2337.1 1588.45C2334.41 1588.45 2332.22 1586.27 2332.22 1583.58V1538.81C2324.18 1536.7 2318.25 1529.38 2318.25 1520.68C2318.25 1510.32 2326.64 1501.93 2337 1501.93C2347.36 1501.93 2355.75 1510.32 2355.75 1520.68Z" fill="black"/>
</g>
</g>
</g>
<g id="Semibold-L">
<g id="Solid / Signal Solid_4">
<g id="Shape_4">
<path d="M2085.98 1557.23C2084.29 1559.33 2084.35 1562.42 2086.31 1564.27C2088.26 1566.11 2091.35 1566.04 2093.06 1563.97C2102.65 1552.34 2108.41 1537.43 2108.41 1521.18C2108.41 1484 2078.27 1453.87 2041.09 1453.87C2003.91 1453.87 1973.77 1484 1973.77 1521.18C1973.77 1537.36 1979.48 1552.21 1988.99 1563.82C1990.7 1565.9 1993.8 1565.97 1995.76 1564.12C1997.71 1562.27 1997.77 1559.19 1996.09 1557.09C1988.23 1547.25 1983.52 1534.76 1983.52 1521.18C1983.52 1489.39 2009.3 1463.62 2041.09 1463.62C2072.88 1463.62 2098.66 1489.39 2098.66 1521.18C2098.66 1534.83 2093.91 1547.36 2085.98 1557.23Z" fill="black"/>
<path d="M2076.15 1548C2074.52 1550.13 2071.42 1550.19 2069.48 1548.35C2067.51 1546.49 2067.47 1543.41 2069.05 1541.21C2073.1 1535.57 2075.48 1528.66 2075.48 1521.18C2075.48 1502.19 2060.08 1486.79 2041.09 1486.79C2022.1 1486.79 2006.7 1502.19 2006.7 1521.18C2006.7 1528.59 2009.04 1535.44 2013.02 1541.06C2014.58 1543.25 2014.53 1546.32 2012.58 1548.17C2010.62 1550.02 2007.51 1549.95 2005.88 1547.81C2000.28 1540.41 1996.95 1531.18 1996.95 1521.18C1996.95 1496.81 2016.71 1477.04 2041.09 1477.04C2065.47 1477.04 2085.23 1496.81 2085.23 1521.18C2085.23 1531.27 2081.84 1540.57 2076.15 1548Z" fill="black"/>
<path d="M2059.75 1520.68C2059.75 1529.31 2053.91 1536.58 2045.97 1538.76V1583.58C2045.97 1586.27 2043.79 1588.45 2041.1 1588.45C2038.41 1588.45 2036.22 1586.27 2036.22 1583.58V1538.81C2028.18 1536.7 2022.25 1529.38 2022.25 1520.68C2022.25 1510.32 2030.64 1501.93 2041 1501.93C2051.36 1501.93 2059.75 1510.32 2059.75 1520.68Z" fill="black"/>
</g>
</g>
</g>
<g id="Medium-L">
<g id="Solid / Signal Solid_5">
<g id="Shape_5">
<path d="M1789.98 1557.23C1788.29 1559.33 1788.35 1562.42 1790.31 1564.27C1792.26 1566.11 1795.35 1566.04 1797.06 1563.97C1806.65 1552.34 1812.41 1537.43 1812.41 1521.18C1812.41 1484 1782.27 1453.87 1745.09 1453.87C1707.91 1453.87 1677.77 1484 1677.77 1521.18C1677.77 1537.36 1683.48 1552.21 1692.99 1563.82C1694.7 1565.9 1697.8 1565.97 1699.76 1564.12C1701.71 1562.27 1701.77 1559.19 1700.09 1557.09C1692.23 1547.25 1687.52 1534.76 1687.52 1521.18C1687.52 1489.39 1713.3 1463.62 1745.09 1463.62C1776.88 1463.62 1802.66 1489.39 1802.66 1521.18C1802.66 1534.83 1797.91 1547.36 1789.98 1557.23Z" fill="black"/>
<path d="M1780.15 1548C1778.52 1550.13 1775.42 1550.19 1773.48 1548.35C1771.51 1546.49 1771.47 1543.41 1773.05 1541.21C1777.1 1535.57 1779.48 1528.66 1779.48 1521.18C1779.48 1502.19 1764.08 1486.79 1745.09 1486.79C1726.1 1486.79 1710.7 1502.19 1710.7 1521.18C1710.7 1528.59 1713.04 1535.44 1717.02 1541.06C1718.58 1543.25 1718.53 1546.32 1716.58 1548.17C1714.62 1550.02 1711.51 1549.95 1709.88 1547.81C1704.28 1540.41 1700.95 1531.18 1700.95 1521.18C1700.95 1496.81 1720.71 1477.04 1745.09 1477.04C1769.47 1477.04 1789.23 1496.81 1789.23 1521.18C1789.23 1531.27 1785.84 1540.57 1780.15 1548Z" fill="black"/>
<path d="M1763.75 1520.68C1763.75 1529.31 1757.91 1536.58 1749.97 1538.76V1583.58C1749.97 1586.27 1747.79 1588.45 1745.1 1588.45C1742.41 1588.45 1740.22 1586.27 1740.22 1583.58V1538.81C1732.18 1536.7 1726.25 1529.38 1726.25 1520.68C1726.25 1510.32 1734.64 1501.93 1745 1501.93C1755.36 1501.93 1763.75 1510.32 1763.75 1520.68Z" fill="black"/>
</g>
</g>
</g>
<g id="Regular-L">
<g id="Solid / Signal Solid_6">
<g id="Shape_6">
<path d="M1493.98 1557.23C1492.29 1559.33 1492.35 1562.42 1494.31 1564.27C1496.26 1566.11 1499.35 1566.04 1501.06 1563.97C1510.65 1552.34 1516.41 1537.43 1516.41 1521.18C1516.41 1484 1486.27 1453.87 1449.09 1453.87C1411.91 1453.87 1381.77 1484 1381.77 1521.18C1381.77 1537.36 1387.48 1552.21 1396.99 1563.82C1398.7 1565.9 1401.8 1565.97 1403.76 1564.12C1405.71 1562.27 1405.77 1559.19 1404.09 1557.09C1396.23 1547.25 1391.52 1534.76 1391.52 1521.18C1391.52 1489.39 1417.3 1463.62 1449.09 1463.62C1480.88 1463.62 1506.66 1489.39 1506.66 1521.18C1506.66 1534.83 1501.91 1547.36 1493.98 1557.23Z" fill="black"/>
<path d="M1484.15 1548C1482.52 1550.13 1479.42 1550.19 1477.48 1548.35C1475.51 1546.49 1475.47 1543.41 1477.05 1541.21C1481.1 1535.57 1483.48 1528.66 1483.48 1521.18C1483.48 1502.19 1468.08 1486.79 1449.09 1486.79C1430.1 1486.79 1414.7 1502.19 1414.7 1521.18C1414.7 1528.59 1417.04 1535.44 1421.02 1541.06C1422.58 1543.25 1422.53 1546.32 1420.58 1548.17C1418.62 1550.02 1415.51 1549.95 1413.88 1547.81C1408.28 1540.41 1404.95 1531.18 1404.95 1521.18C1404.95 1496.81 1424.71 1477.04 1449.09 1477.04C1473.47 1477.04 1493.23 1496.81 1493.23 1521.18C1493.23 1531.27 1489.84 1540.57 1484.15 1548Z" fill="black"/>
<path d="M1467.75 1520.68C1467.75 1529.31 1461.91 1536.58 1453.97 1538.76V1583.58C1453.97 1586.27 1451.79 1588.45 1449.1 1588.45C1446.41 1588.45 1444.22 1586.27 1444.22 1583.58V1538.81C1436.18 1536.7 1430.25 1529.38 1430.25 1520.68C1430.25 1510.32 1438.64 1501.93 1449 1501.93C1459.36 1501.93 1467.75 1510.32 1467.75 1520.68Z" fill="black"/>
</g>
</g>
</g>
<g id="Light-L">
<g id="Solid / Signal Solid_7">
<g id="Shape_7">
<path d="M1197.98 1557.23C1196.29 1559.33 1196.35 1562.42 1198.31 1564.27C1200.26 1566.11 1203.35 1566.04 1205.06 1563.97C1214.65 1552.34 1220.41 1537.43 1220.41 1521.18C1220.41 1484 1190.27 1453.87 1153.09 1453.87C1115.91 1453.87 1085.77 1484 1085.77 1521.18C1085.77 1537.36 1091.48 1552.21 1100.99 1563.82C1102.7 1565.9 1105.8 1565.97 1107.76 1564.12C1109.71 1562.27 1109.77 1559.19 1108.09 1557.09C1100.23 1547.25 1095.52 1534.76 1095.52 1521.18C1095.52 1489.39 1121.3 1463.62 1153.09 1463.62C1184.88 1463.62 1210.66 1489.39 1210.66 1521.18C1210.66 1534.83 1205.91 1547.36 1197.98 1557.23Z" fill="black"/>
<path d="M1188.15 1548C1186.52 1550.13 1183.42 1550.19 1181.48 1548.35C1179.51 1546.49 1179.47 1543.41 1181.05 1541.21C1185.1 1535.57 1187.48 1528.66 1187.48 1521.18C1187.48 1502.19 1172.08 1486.79 1153.09 1486.79C1134.1 1486.79 1118.7 1502.19 1118.7 1521.18C1118.7 1528.59 1121.04 1535.44 1125.02 1541.06C1126.58 1543.25 1126.53 1546.32 1124.58 1548.17C1122.62 1550.02 1119.51 1549.95 1117.88 1547.81C1112.28 1540.41 1108.95 1531.18 1108.95 1521.18C1108.95 1496.81 1128.71 1477.04 1153.09 1477.04C1177.47 1477.04 1197.23 1496.81 1197.23 1521.18C1197.23 1531.27 1193.84 1540.57 1188.15 1548Z" fill="black"/>
<path d="M1171.75 1520.68C1171.75 1529.31 1165.91 1536.58 1157.97 1538.76V1583.58C1157.97 1586.27 1155.79 1588.45 1153.1 1588.45C1150.41 1588.45 1148.22 1586.27 1148.22 1583.58V1538.81C1140.18 1536.7 1134.25 1529.38 1134.25 1520.68C1134.25 1510.32 1142.64 1501.93 1153 1501.93C1163.36 1501.93 1171.75 1510.32 1171.75 1520.68Z" fill="black"/>
</g>
</g>
</g>
<g id="Thin-L">
<g id="Solid / Signal Solid_8">
<g id="Shape_8">
<path d="M901.979 1557.23C900.287 1559.33 900.349 1562.42 902.311 1564.27C904.261 1566.11 907.351 1566.04 909.059 1563.97C918.648 1552.34 924.407 1537.43 924.407 1521.18C924.407 1484 894.269 1453.87 857.091 1453.87C819.913 1453.87 789.774 1484 789.774 1521.18C789.774 1537.36 795.482 1552.21 804.994 1563.82C806.701 1565.9 809.802 1565.97 811.757 1564.12C813.71 1562.27 813.775 1559.19 812.094 1557.09C804.228 1547.25 799.524 1534.76 799.524 1521.18C799.524 1489.39 825.298 1463.62 857.091 1463.62C888.884 1463.62 914.657 1489.39 914.657 1521.18C914.657 1534.83 909.911 1547.36 901.979 1557.23Z" fill="black"/>
<path d="M892.148 1548C890.518 1550.13 887.425 1550.19 885.478 1548.35C883.513 1546.49 883.47 1543.41 885.047 1541.21C889.095 1535.57 891.479 1528.66 891.479 1521.18C891.479 1502.19 876.083 1486.79 857.091 1486.79C838.099 1486.79 822.703 1502.19 822.703 1521.18C822.703 1528.59 825.042 1535.44 829.023 1541.06C830.58 1543.25 830.53 1546.32 828.577 1548.17C826.622 1550.02 823.51 1549.95 821.883 1547.81C816.278 1540.41 812.953 1531.18 812.953 1521.18C812.953 1496.81 832.714 1477.04 857.091 1477.04C881.468 1477.04 901.229 1496.81 901.229 1521.18C901.229 1531.27 897.844 1540.57 892.148 1548Z" fill="black"/>
<path d="M875.75 1520.68C875.75 1529.31 869.915 1536.58 861.974 1538.76V1583.58C861.974 1586.27 859.791 1588.45 857.099 1588.45C854.406 1588.45 852.224 1586.27 852.224 1583.58V1538.81C844.182 1536.7 838.25 1529.38 838.25 1520.68C838.25 1510.32 846.644 1501.93 857 1501.93C867.355 1501.93 875.75 1510.32 875.75 1520.68Z" fill="black"/>
</g>
</g>
</g>
<g id="Ultralight-L">
<g id="Solid / Signal Solid_9">
<g id="Shape_9">
<path d="M605.979 1557.23C604.287 1559.33 604.349 1562.42 606.311 1564.27C608.261 1566.11 611.351 1566.04 613.059 1563.97C622.648 1552.34 628.407 1537.43 628.407 1521.18C628.407 1484 598.269 1453.87 561.091 1453.87C523.913 1453.87 493.774 1484 493.774 1521.18C493.774 1537.36 499.482 1552.21 508.994 1563.82C510.701 1565.9 513.802 1565.97 515.757 1564.12C517.71 1562.27 517.775 1559.19 516.094 1557.09C508.228 1547.25 503.524 1534.76 503.524 1521.18C503.524 1489.39 529.298 1463.62 561.091 1463.62C592.884 1463.62 618.657 1489.39 618.657 1521.18C618.657 1534.83 613.911 1547.36 605.979 1557.23Z" fill="black"/>
<path d="M596.148 1548C594.518 1550.13 591.425 1550.19 589.478 1548.35C587.513 1546.49 587.47 1543.41 589.047 1541.21C593.095 1535.57 595.479 1528.66 595.479 1521.18C595.479 1502.19 580.083 1486.79 561.091 1486.79C542.099 1486.79 526.703 1502.19 526.703 1521.18C526.703 1528.59 529.042 1535.44 533.023 1541.06C534.58 1543.25 534.53 1546.32 532.577 1548.17C530.622 1550.02 527.51 1549.95 525.883 1547.81C520.278 1540.41 516.953 1531.18 516.953 1521.18C516.953 1496.81 536.714 1477.04 561.091 1477.04C585.468 1477.04 605.229 1496.81 605.229 1521.18C605.229 1531.27 601.844 1540.57 596.148 1548Z" fill="black"/>
<path d="M579.75 1520.68C579.75 1529.31 573.915 1536.58 565.974 1538.76V1583.58C565.974 1586.27 563.791 1588.45 561.099 1588.45C558.406 1588.45 556.224 1586.27 556.224 1583.58V1538.81C548.182 1536.7 542.25 1529.38 542.25 1520.68C542.25 1510.32 550.644 1501.93 561 1501.93C571.355 1501.93 579.75 1510.32 579.75 1520.68Z" fill="black"/>
</g>
</g>
</g>
<g id="Black-M">
<g id="Solid / Signal Solid_10">
<g id="Shape_10">
<path d="M2963.98 1119.18C2962.67 1120.81 2962.72 1123.21 2964.24 1124.65C2965.76 1126.09 2968.16 1126.04 2969.49 1124.42C2976.95 1115.38 2981.43 1103.78 2981.43 1091.14C2981.43 1062.23 2957.99 1038.79 2929.07 1038.79C2900.15 1038.79 2876.71 1062.23 2876.71 1091.14C2876.71 1103.73 2881.15 1115.27 2888.55 1124.3C2889.88 1125.92 2892.29 1125.98 2893.81 1124.54C2895.33 1123.1 2895.38 1120.71 2894.07 1119.07C2887.96 1111.41 2884.3 1101.71 2884.3 1091.14C2884.3 1066.41 2904.34 1046.37 2929.07 1046.37C2953.8 1046.37 2973.84 1066.41 2973.84 1091.14C2973.84 1101.75 2970.15 1111.5 2963.98 1119.18Z" fill="black"/>
<path d="M2956.34 1112C2955.07 1113.66 2952.66 1113.71 2951.15 1112.27C2949.62 1110.83 2949.59 1108.43 2950.81 1106.72C2953.96 1102.33 2955.82 1096.95 2955.82 1091.14C2955.82 1076.37 2943.84 1064.4 2929.07 1064.4C2914.3 1064.4 2902.32 1076.37 2902.32 1091.14C2902.32 1096.9 2904.14 1102.23 2907.24 1106.6C2908.45 1108.31 2908.41 1110.69 2906.89 1112.13C2905.37 1113.57 2902.95 1113.52 2901.69 1111.85C2897.33 1106.09 2894.74 1098.92 2894.74 1091.14C2894.74 1072.18 2910.11 1056.81 2929.07 1056.81C2948.03 1056.81 2963.4 1072.18 2963.4 1091.14C2963.4 1098.99 2960.77 1106.22 2956.34 1112Z" fill="black"/>
<path d="M2943.58 1090.75C2943.58 1097.46 2939.05 1103.12 2932.87 1104.81V1139.67C2932.87 1141.77 2931.17 1143.46 2929.08 1143.46C2926.98 1143.46 2925.29 1141.77 2925.29 1139.67V1104.85C2919.03 1103.21 2914.42 1097.52 2914.42 1090.75C2914.42 1082.69 2920.95 1076.16 2929 1076.16C2937.05 1076.16 2943.58 1082.69 2943.58 1090.75Z" fill="black"/>
</g>
</g>
</g>
<g id="Heavy-M">
<g id="Solid / Signal Solid_11">
<g id="Shape_11">
<path d="M2667.98 1119.18C2666.67 1120.81 2666.72 1123.21 2668.24 1124.65C2669.76 1126.09 2672.16 1126.04 2673.49 1124.42C2680.95 1115.38 2685.43 1103.78 2685.43 1091.14C2685.43 1062.23 2661.99 1038.79 2633.07 1038.79C2604.15 1038.79 2580.71 1062.23 2580.71 1091.14C2580.71 1103.73 2585.15 1115.27 2592.55 1124.3C2593.88 1125.92 2596.29 1125.98 2597.81 1124.54C2599.33 1123.1 2599.38 1120.71 2598.07 1119.07C2591.96 1111.41 2588.3 1101.71 2588.3 1091.14C2588.3 1066.41 2608.34 1046.37 2633.07 1046.37C2657.8 1046.37 2677.84 1066.41 2677.84 1091.14C2677.84 1101.75 2674.15 1111.5 2667.98 1119.18Z" fill="black"/>
<path d="M2660.34 1112C2659.07 1113.66 2656.66 1113.71 2655.15 1112.27C2653.62 1110.83 2653.59 1108.43 2654.81 1106.72C2657.96 1102.33 2659.82 1096.95 2659.82 1091.14C2659.82 1076.37 2647.84 1064.4 2633.07 1064.4C2618.3 1064.4 2606.32 1076.37 2606.32 1091.14C2606.32 1096.9 2608.14 1102.23 2611.24 1106.6C2612.45 1108.31 2612.41 1110.69 2610.89 1112.13C2609.37 1113.57 2606.95 1113.52 2605.69 1111.85C2601.33 1106.09 2598.74 1098.92 2598.74 1091.14C2598.74 1072.18 2614.11 1056.81 2633.07 1056.81C2652.03 1056.81 2667.4 1072.18 2667.4 1091.14C2667.4 1098.99 2664.77 1106.22 2660.34 1112Z" fill="black"/>
<path d="M2647.58 1090.75C2647.58 1097.46 2643.05 1103.12 2636.87 1104.81V1139.67C2636.87 1141.77 2635.17 1143.46 2633.08 1143.46C2630.98 1143.46 2629.29 1141.77 2629.29 1139.67V1104.85C2623.03 1103.21 2618.42 1097.52 2618.42 1090.75C2618.42 1082.69 2624.95 1076.16 2633 1076.16C2641.05 1076.16 2647.58 1082.69 2647.58 1090.75Z" fill="black"/>
</g>
</g>
</g>
<g id="Bold-M">
<g id="Solid / Signal Solid_12">
<g id="Shape_12">
<path d="M2371.98 1119.18C2370.67 1120.81 2370.72 1123.21 2372.24 1124.65C2373.76 1126.09 2376.16 1126.04 2377.49 1124.42C2384.95 1115.38 2389.43 1103.78 2389.43 1091.14C2389.43 1062.23 2365.99 1038.79 2337.07 1038.79C2308.15 1038.79 2284.71 1062.23 2284.71 1091.14C2284.71 1103.73 2289.15 1115.27 2296.55 1124.3C2297.88 1125.92 2300.29 1125.98 2301.81 1124.54C2303.33 1123.1 2303.38 1120.71 2302.07 1119.07C2295.96 1111.41 2292.3 1101.71 2292.3 1091.14C2292.3 1066.41 2312.34 1046.37 2337.07 1046.37C2361.8 1046.37 2381.84 1066.41 2381.84 1091.14C2381.84 1101.75 2378.15 1111.5 2371.98 1119.18Z" fill="black"/>
<path d="M2364.34 1112C2363.07 1113.66 2360.66 1113.71 2359.15 1112.27C2357.62 1110.83 2357.59 1108.43 2358.81 1106.72C2361.96 1102.33 2363.82 1096.95 2363.82 1091.14C2363.82 1076.37 2351.84 1064.4 2337.07 1064.4C2322.3 1064.4 2310.32 1076.37 2310.32 1091.14C2310.32 1096.9 2312.14 1102.23 2315.24 1106.6C2316.45 1108.31 2316.41 1110.69 2314.89 1112.13C2313.37 1113.57 2310.95 1113.52 2309.69 1111.85C2305.33 1106.09 2302.74 1098.92 2302.74 1091.14C2302.74 1072.18 2318.11 1056.81 2337.07 1056.81C2356.03 1056.81 2371.4 1072.18 2371.4 1091.14C2371.4 1098.99 2368.77 1106.22 2364.34 1112Z" fill="black"/>
<path d="M2351.58 1090.75C2351.58 1097.46 2347.05 1103.12 2340.87 1104.81V1139.67C2340.87 1141.77 2339.17 1143.46 2337.08 1143.46C2334.98 1143.46 2333.29 1141.77 2333.29 1139.67V1104.85C2327.03 1103.21 2322.42 1097.52 2322.42 1090.75C2322.42 1082.69 2328.95 1076.16 2337 1076.16C2345.05 1076.16 2351.58 1082.69 2351.58 1090.75Z" fill="black"/>
</g>
</g>
</g>
<g id="Semibold-M">
<g id="Solid / Signal Solid_13">
<g id="Shape_13">
<path d="M2075.98 1119.18C2074.67 1120.81 2074.72 1123.21 2076.24 1124.65C2077.76 1126.09 2080.16 1126.04 2081.49 1124.42C2088.95 1115.38 2093.43 1103.78 2093.43 1091.14C2093.43 1062.23 2069.99 1038.79 2041.07 1038.79C2012.15 1038.79 1988.71 1062.23 1988.71 1091.14C1988.71 1103.73 1993.15 1115.27 2000.55 1124.3C2001.88 1125.92 2004.29 1125.98 2005.81 1124.54C2007.33 1123.1 2007.38 1120.71 2006.07 1119.07C1999.96 1111.41 1996.3 1101.71 1996.3 1091.14C1996.3 1066.41 2016.34 1046.37 2041.07 1046.37C2065.8 1046.37 2085.84 1066.41 2085.84 1091.14C2085.84 1101.75 2082.15 1111.5 2075.98 1119.18Z" fill="black"/>
<path d="M2068.34 1112C2067.07 1113.66 2064.66 1113.71 2063.15 1112.27C2061.62 1110.83 2061.59 1108.43 2062.81 1106.72C2065.96 1102.33 2067.82 1096.95 2067.82 1091.14C2067.82 1076.37 2055.84 1064.4 2041.07 1064.4C2026.3 1064.4 2014.32 1076.37 2014.32 1091.14C2014.32 1096.9 2016.14 1102.23 2019.24 1106.6C2020.45 1108.31 2020.41 1110.69 2018.89 1112.13C2017.37 1113.57 2014.95 1113.52 2013.69 1111.85C2009.33 1106.09 2006.74 1098.92 2006.74 1091.14C2006.74 1072.18 2022.11 1056.81 2041.07 1056.81C2060.03 1056.81 2075.4 1072.18 2075.4 1091.14C2075.4 1098.99 2072.77 1106.22 2068.34 1112Z" fill="black"/>
<path d="M2055.58 1090.75C2055.58 1097.46 2051.05 1103.12 2044.87 1104.81V1139.67C2044.87 1141.77 2043.17 1143.46 2041.08 1143.46C2038.98 1143.46 2037.29 1141.77 2037.29 1139.67V1104.85C2031.03 1103.21 2026.42 1097.52 2026.42 1090.75C2026.42 1082.69 2032.95 1076.16 2041 1076.16C2049.05 1076.16 2055.58 1082.69 2055.58 1090.75Z" fill="black"/>
</g>
</g>
</g>
<g id="Medium-M">
<g id="Solid / Signal Solid_14">
<g id="Shape_14">
<path d="M1779.98 1119.18C1778.67 1120.81 1778.72 1123.21 1780.24 1124.65C1781.76 1126.09 1784.16 1126.04 1785.49 1124.42C1792.95 1115.38 1797.43 1103.78 1797.43 1091.14C1797.43 1062.23 1773.99 1038.79 1745.07 1038.79C1716.15 1038.79 1692.71 1062.23 1692.71 1091.14C1692.71 1103.73 1697.15 1115.27 1704.55 1124.3C1705.88 1125.92 1708.29 1125.98 1709.81 1124.54C1711.33 1123.1 1711.38 1120.71 1710.07 1119.07C1703.96 1111.41 1700.3 1101.71 1700.3 1091.14C1700.3 1066.41 1720.34 1046.37 1745.07 1046.37C1769.8 1046.37 1789.84 1066.41 1789.84 1091.14C1789.84 1101.75 1786.15 1111.5 1779.98 1119.18Z" fill="black"/>
<path d="M1772.34 1112C1771.07 1113.66 1768.66 1113.71 1767.15 1112.27C1765.62 1110.83 1765.59 1108.43 1766.81 1106.72C1769.96 1102.33 1771.82 1096.95 1771.82 1091.14C1771.82 1076.37 1759.84 1064.4 1745.07 1064.4C1730.3 1064.4 1718.32 1076.37 1718.32 1091.14C1718.32 1096.9 1720.14 1102.23 1723.24 1106.6C1724.45 1108.31 1724.41 1110.69 1722.89 1112.13C1721.37 1113.57 1718.95 1113.52 1717.69 1111.85C1713.33 1106.09 1710.74 1098.92 1710.74 1091.14C1710.74 1072.18 1726.11 1056.81 1745.07 1056.81C1764.03 1056.81 1779.4 1072.18 1779.4 1091.14C1779.4 1098.99 1776.77 1106.22 1772.34 1112Z" fill="black"/>
<path d="M1759.58 1090.75C1759.58 1097.46 1755.05 1103.12 1748.87 1104.81V1139.67C1748.87 1141.77 1747.17 1143.46 1745.08 1143.46C1742.98 1143.46 1741.29 1141.77 1741.29 1139.67V1104.85C1735.03 1103.21 1730.42 1097.52 1730.42 1090.75C1730.42 1082.69 1736.95 1076.16 1745 1076.16C1753.05 1076.16 1759.58 1082.69 1759.58 1090.75Z" fill="black"/>
</g>
</g>
</g>
<g id="Regular-M">
<g id="Solid / Signal Solid_15">
<g id="Shape_15">
<path d="M1483.98 1119.18C1482.67 1120.81 1482.72 1123.21 1484.24 1124.65C1485.76 1126.09 1488.16 1126.04 1489.49 1124.42C1496.95 1115.38 1501.43 1103.78 1501.43 1091.14C1501.43 1062.23 1477.99 1038.79 1449.07 1038.79C1420.15 1038.79 1396.71 1062.23 1396.71 1091.14C1396.71 1103.73 1401.15 1115.27 1408.55 1124.3C1409.88 1125.92 1412.29 1125.98 1413.81 1124.54C1415.33 1123.1 1415.38 1120.71 1414.07 1119.07C1407.96 1111.41 1404.3 1101.71 1404.3 1091.14C1404.3 1066.41 1424.34 1046.37 1449.07 1046.37C1473.8 1046.37 1493.84 1066.41 1493.84 1091.14C1493.84 1101.75 1490.15 1111.5 1483.98 1119.18Z" fill="black"/>
<path d="M1476.34 1112C1475.07 1113.66 1472.66 1113.71 1471.15 1112.27C1469.62 1110.83 1469.59 1108.43 1470.81 1106.72C1473.96 1102.33 1475.82 1096.95 1475.82 1091.14C1475.82 1076.37 1463.84 1064.4 1449.07 1064.4C1434.3 1064.4 1422.32 1076.37 1422.32 1091.14C1422.32 1096.9 1424.14 1102.23 1427.24 1106.6C1428.45 1108.31 1428.41 1110.69 1426.89 1112.13C1425.37 1113.57 1422.95 1113.52 1421.69 1111.85C1417.33 1106.09 1414.74 1098.92 1414.74 1091.14C1414.74 1072.18 1430.11 1056.81 1449.07 1056.81C1468.03 1056.81 1483.4 1072.18 1483.4 1091.14C1483.4 1098.99 1480.77 1106.22 1476.34 1112Z" fill="black"/>
<path d="M1463.58 1090.75C1463.58 1097.46 1459.05 1103.12 1452.87 1104.81V1139.67C1452.87 1141.77 1451.17 1143.46 1449.08 1143.46C1446.98 1143.46 1445.29 1141.77 1445.29 1139.67V1104.85C1439.03 1103.21 1434.42 1097.52 1434.42 1090.75C1434.42 1082.69 1440.95 1076.16 1449 1076.16C1457.05 1076.16 1463.58 1082.69 1463.58 1090.75Z" fill="black"/>
</g>
</g>
</g>
<g id="Light-M">
<g id="Solid / Signal Solid_16">
<g id="Shape_16">
<path d="M1187.98 1119.18C1186.67 1120.81 1186.72 1123.21 1188.24 1124.65C1189.76 1126.09 1192.16 1126.04 1193.49 1124.42C1200.95 1115.38 1205.43 1103.78 1205.43 1091.14C1205.43 1062.23 1181.99 1038.79 1153.07 1038.79C1124.15 1038.79 1100.71 1062.23 1100.71 1091.14C1100.71 1103.73 1105.15 1115.27 1112.55 1124.3C1113.88 1125.92 1116.29 1125.98 1117.81 1124.54C1119.33 1123.1 1119.38 1120.71 1118.07 1119.07C1111.96 1111.41 1108.3 1101.71 1108.3 1091.14C1108.3 1066.41 1128.34 1046.37 1153.07 1046.37C1177.8 1046.37 1197.84 1066.41 1197.84 1091.14C1197.84 1101.75 1194.15 1111.5 1187.98 1119.18Z" fill="black"/>
<path d="M1180.34 1112C1179.07 1113.66 1176.66 1113.71 1175.15 1112.27C1173.62 1110.83 1173.59 1108.43 1174.81 1106.72C1177.96 1102.33 1179.82 1096.95 1179.82 1091.14C1179.82 1076.37 1167.84 1064.4 1153.07 1064.4C1138.3 1064.4 1126.32 1076.37 1126.32 1091.14C1126.32 1096.9 1128.14 1102.23 1131.24 1106.6C1132.45 1108.31 1132.41 1110.69 1130.89 1112.13C1129.37 1113.57 1126.95 1113.52 1125.69 1111.85C1121.33 1106.09 1118.74 1098.92 1118.74 1091.14C1118.74 1072.18 1134.11 1056.81 1153.07 1056.81C1172.03 1056.81 1187.4 1072.18 1187.4 1091.14C1187.4 1098.99 1184.77 1106.22 1180.34 1112Z" fill="black"/>
<path d="M1167.58 1090.75C1167.58 1097.46 1163.05 1103.12 1156.87 1104.81V1139.67C1156.87 1141.77 1155.17 1143.46 1153.08 1143.46C1150.98 1143.46 1149.29 1141.77 1149.29 1139.67V1104.85C1143.03 1103.21 1138.42 1097.52 1138.42 1090.75C1138.42 1082.69 1144.95 1076.16 1153 1076.16C1161.05 1076.16 1167.58 1082.69 1167.58 1090.75Z" fill="black"/>
</g>
</g>
</g>
<g id="Thin-M">
<g id="Solid / Signal Solid_17">
<g id="Shape_17">
<path d="M891.984 1119.18C890.668 1120.81 890.716 1123.21 892.242 1124.65C893.759 1126.09 896.163 1126.04 897.491 1124.42C904.949 1115.38 909.428 1103.78 909.428 1091.14C909.428 1062.23 885.987 1038.79 857.071 1038.79C828.155 1038.79 804.714 1062.23 804.714 1091.14C804.714 1103.73 809.153 1115.27 816.551 1124.3C817.879 1125.92 820.291 1125.98 821.811 1124.54C823.33 1123.1 823.381 1120.71 822.074 1119.07C815.955 1111.41 812.297 1101.71 812.297 1091.14C812.297 1066.41 832.343 1046.37 857.071 1046.37C881.799 1046.37 901.845 1066.41 901.845 1091.14C901.845 1101.75 898.153 1111.5 891.984 1119.18Z" fill="black"/>
<path d="M884.338 1112C883.07 1113.66 880.664 1113.71 879.15 1112.27C877.622 1110.83 877.588 1108.43 878.815 1106.72C881.963 1102.33 883.817 1096.95 883.817 1091.14C883.817 1076.37 871.843 1064.4 857.071 1064.4C842.299 1064.4 830.325 1076.37 830.325 1091.14C830.325 1096.9 832.145 1102.23 835.241 1106.6C836.452 1108.31 836.413 1110.69 834.894 1112.13C833.373 1113.57 830.953 1113.52 829.688 1111.85C825.328 1106.09 822.741 1098.92 822.741 1091.14C822.741 1072.18 838.111 1056.81 857.071 1056.81C876.031 1056.81 891.401 1072.18 891.401 1091.14C891.401 1098.99 888.768 1106.22 884.338 1112Z" fill="black"/>
<path d="M871.584 1090.75C871.584 1097.46 867.045 1103.12 860.869 1104.81V1139.67C860.869 1141.77 859.171 1143.46 857.077 1143.46C854.983 1143.46 853.285 1141.77 853.285 1139.67V1104.85C847.031 1103.21 842.417 1097.52 842.417 1090.75C842.417 1082.69 848.946 1076.16 857 1076.16C865.054 1076.16 871.584 1082.69 871.584 1090.75Z" fill="black"/>
</g>
</g>
</g>
<g id="Ultralight-M">
<g id="Solid / Signal Solid_18">
<g id="Shape_18">
<path d="M595.984 1119.18C594.668 1120.81 594.716 1123.21 596.242 1124.65C597.759 1126.09 600.163 1126.04 601.491 1124.42C608.949 1115.38 613.428 1103.78 613.428 1091.14C613.428 1062.23 589.987 1038.79 561.071 1038.79C532.155 1038.79 508.714 1062.23 508.714 1091.14C508.714 1103.73 513.153 1115.27 520.551 1124.3C521.879 1125.92 524.291 1125.98 525.811 1124.54C527.33 1123.1 527.381 1120.71 526.074 1119.07C519.955 1111.41 516.297 1101.71 516.297 1091.14C516.297 1066.41 536.343 1046.37 561.071 1046.37C585.799 1046.37 605.845 1066.41 605.845 1091.14C605.845 1101.75 602.153 1111.5 595.984 1119.18Z" fill="black"/>
<path d="M588.338 1112C587.07 1113.66 584.664 1113.71 583.15 1112.27C581.622 1110.83 581.588 1108.43 582.815 1106.72C585.963 1102.33 587.817 1096.95 587.817 1091.14C587.817 1076.37 575.843 1064.4 561.071 1064.4C546.299 1064.4 534.325 1076.37 534.325 1091.14C534.325 1096.9 536.145 1102.23 539.241 1106.6C540.452 1108.31 540.413 1110.69 538.894 1112.13C537.373 1113.57 534.953 1113.52 533.688 1111.85C529.328 1106.09 526.741 1098.92 526.741 1091.14C526.741 1072.18 542.111 1056.81 561.071 1056.81C580.031 1056.81 595.401 1072.18 595.401 1091.14C595.401 1098.99 592.768 1106.22 588.338 1112Z" fill="black"/>
<path d="M575.584 1090.75C575.584 1097.46 571.045 1103.12 564.869 1104.81V1139.67C564.869 1141.77 563.171 1143.46 561.077 1143.46C558.983 1143.46 557.285 1141.77 557.285 1139.67V1104.85C551.031 1103.21 546.417 1097.52 546.417 1090.75C546.417 1082.69 552.946 1076.16 561 1076.16C569.054 1076.16 575.584 1082.69 575.584 1090.75Z" fill="black"/>
</g>
</g>
</g>
<g id="Black-S">
<g id="Solid / Signal Solid_19">
<g id="Shape_19">
<path d="M2953.99 681.126C2953.05 682.295 2953.08 684.008 2954.17 685.039C2955.26 686.063 2956.97 686.025 2957.92 684.874C2963.25 678.412 2966.45 670.13 2966.45 661.101C2966.45 640.447 2949.7 623.703 2929.05 623.703C2908.4 623.703 2891.65 640.447 2891.65 661.101C2891.65 670.089 2894.82 678.337 2900.11 684.787C2901.06 685.944 2902.78 685.984 2903.86 684.955C2904.95 683.926 2904.99 682.219 2904.05 681.051C2899.68 675.581 2897.07 668.646 2897.07 661.101C2897.07 643.438 2911.39 629.12 2929.05 629.12C2946.71 629.12 2961.03 643.438 2961.03 661.101C2961.03 668.681 2958.39 675.645 2953.99 681.126Z" fill="black"/>
<path d="M2948.53 676.002C2947.62 677.184 2945.9 677.218 2944.82 676.195C2943.73 675.163 2943.71 673.449 2944.58 672.229C2946.83 669.095 2948.15 665.253 2948.15 661.101C2948.15 650.55 2939.6 641.997 2929.05 641.997C2918.5 641.997 2909.95 650.55 2909.95 661.101C2909.95 665.215 2911.25 669.024 2913.46 672.142C2914.32 673.361 2914.29 675.065 2913.21 676.094C2912.12 677.124 2910.39 677.085 2909.49 675.892C2906.38 671.781 2904.53 666.657 2904.53 661.101C2904.53 647.559 2915.51 636.58 2929.05 636.58C2942.59 636.58 2953.57 647.559 2953.57 661.101C2953.57 666.706 2951.69 671.872 2948.53 676.002Z" fill="black"/>
<path d="M2939.42 660.82C2939.42 665.616 2936.17 669.655 2931.76 670.866V695.764C2931.76 697.26 2930.55 698.473 2929.05 698.473C2927.56 698.473 2926.35 697.26 2926.35 695.764V670.895C2921.88 669.722 2918.58 665.656 2918.58 660.82C2918.58 655.067 2923.25 650.403 2929 650.403C2934.75 650.403 2939.42 655.067 2939.42 660.82Z" fill="black"/>
</g>
</g>
</g>
<g id="Heavy-S">
<g id="Solid / Signal Solid_20">
<g id="Shape_20">
<path d="M2657.99 681.126C2657.05 682.295 2657.08 684.008 2658.17 685.039C2659.26 686.063 2660.97 686.025 2661.92 684.874C2667.25 678.412 2670.45 670.13 2670.45 661.101C2670.45 640.447 2653.7 623.703 2633.05 623.703C2612.4 623.703 2595.65 640.447 2595.65 661.101C2595.65 670.089 2598.82 678.337 2604.11 684.787C2605.06 685.944 2606.78 685.984 2607.86 684.955C2608.95 683.926 2608.99 682.219 2608.05 681.051C2603.68 675.581 2601.07 668.646 2601.07 661.101C2601.07 643.438 2615.39 629.12 2633.05 629.12C2650.71 629.12 2665.03 643.438 2665.03 661.101C2665.03 668.681 2662.39 675.645 2657.99 681.126Z" fill="black"/>
<path d="M2652.53 676.002C2651.62 677.184 2649.9 677.218 2648.82 676.195C2647.73 675.163 2647.71 673.449 2648.58 672.229C2650.83 669.095 2652.15 665.253 2652.15 661.101C2652.15 650.55 2643.6 641.997 2633.05 641.997C2622.5 641.997 2613.95 650.55 2613.95 661.101C2613.95 665.215 2615.25 669.024 2617.46 672.142C2618.32 673.361 2618.29 675.065 2617.21 676.094C2616.12 677.124 2614.39 677.085 2613.49 675.892C2610.38 671.781 2608.53 666.657 2608.53 661.101C2608.53 647.559 2619.51 636.58 2633.05 636.58C2646.59 636.58 2657.57 647.559 2657.57 661.101C2657.57 666.706 2655.69 671.872 2652.53 676.002Z" fill="black"/>
<path d="M2643.42 660.82C2643.42 665.616 2640.17 669.655 2635.76 670.866V695.764C2635.76 697.26 2634.55 698.473 2633.05 698.473C2631.56 698.473 2630.35 697.26 2630.35 695.764V670.895C2625.88 669.722 2622.58 665.656 2622.58 660.82C2622.58 655.067 2627.25 650.403 2633 650.403C2638.75 650.403 2643.42 655.067 2643.42 660.82Z" fill="black"/>
</g>
</g>
</g>
<g id="Bold-S">
<g id="Solid / Signal Solid_21">
<g id="Shape_21">
<path d="M2361.99 681.126C2361.05 682.295 2361.08 684.008 2362.17 685.039C2363.26 686.063 2364.97 686.025 2365.92 684.874C2371.25 678.412 2374.45 670.13 2374.45 661.101C2374.45 640.447 2357.7 623.703 2337.05 623.703C2316.4 623.703 2299.65 640.447 2299.65 661.101C2299.65 670.089 2302.82 678.337 2308.11 684.787C2309.06 685.944 2310.78 685.984 2311.86 684.955C2312.95 683.926 2312.99 682.219 2312.05 681.051C2307.68 675.581 2305.07 668.646 2305.07 661.101C2305.07 643.438 2319.39 629.12 2337.05 629.12C2354.71 629.12 2369.03 643.438 2369.03 661.101C2369.03 668.681 2366.39 675.645 2361.99 681.126Z" fill="black"/>
<path d="M2356.53 676.002C2355.62 677.184 2353.9 677.218 2352.82 676.195C2351.73 675.163 2351.71 673.449 2352.58 672.229C2354.83 669.095 2356.15 665.253 2356.15 661.101C2356.15 650.55 2347.6 641.997 2337.05 641.997C2326.5 641.997 2317.95 650.55 2317.95 661.101C2317.95 665.215 2319.25 669.024 2321.46 672.142C2322.32 673.361 2322.29 675.065 2321.21 676.094C2320.12 677.124 2318.39 677.085 2317.49 675.892C2314.38 671.781 2312.53 666.657 2312.53 661.101C2312.53 647.559 2323.51 636.58 2337.05 636.58C2350.59 636.58 2361.57 647.559 2361.57 661.101C2361.57 666.706 2359.69 671.872 2356.53 676.002Z" fill="black"/>
<path d="M2347.42 660.82C2347.42 665.616 2344.17 669.655 2339.76 670.866V695.764C2339.76 697.26 2338.55 698.473 2337.05 698.473C2335.56 698.473 2334.35 697.26 2334.35 695.764V670.895C2329.88 669.722 2326.58 665.656 2326.58 660.82C2326.58 655.067 2331.25 650.403 2337 650.403C2342.75 650.403 2347.42 655.067 2347.42 660.82Z" fill="black"/>
</g>
</g>
</g>
<g id="Semibold-S">
<g id="Solid / Signal Solid_22">
<g id="Shape_22">
<path d="M2065.99 681.126C2065.05 682.295 2065.08 684.008 2066.17 685.039C2067.26 686.063 2068.97 686.025 2069.92 684.874C2075.25 678.412 2078.45 670.13 2078.45 661.101C2078.45 640.447 2061.7 623.703 2041.05 623.703C2020.4 623.703 2003.65 640.447 2003.65 661.101C2003.65 670.089 2006.82 678.337 2012.11 684.787C2013.06 685.944 2014.78 685.984 2015.86 684.955C2016.95 683.926 2016.99 682.219 2016.05 681.051C2011.68 675.581 2009.07 668.646 2009.07 661.101C2009.07 643.438 2023.39 629.12 2041.05 629.12C2058.71 629.12 2073.03 643.438 2073.03 661.101C2073.03 668.681 2070.39 675.645 2065.99 681.126Z" fill="black"/>
<path d="M2060.53 676.002C2059.62 677.184 2057.9 677.218 2056.82 676.195C2055.73 675.163 2055.71 673.449 2056.58 672.229C2058.83 669.095 2060.15 665.253 2060.15 661.101C2060.15 650.55 2051.6 641.997 2041.05 641.997C2030.5 641.997 2021.95 650.55 2021.95 661.101C2021.95 665.215 2023.25 669.024 2025.46 672.142C2026.32 673.361 2026.29 675.065 2025.21 676.094C2024.12 677.124 2022.39 677.085 2021.49 675.892C2018.38 671.781 2016.53 666.657 2016.53 661.101C2016.53 647.559 2027.51 636.58 2041.05 636.58C2054.59 636.58 2065.57 647.559 2065.57 661.101C2065.57 666.706 2063.69 671.872 2060.53 676.002Z" fill="black"/>
<path d="M2051.42 660.82C2051.42 665.616 2048.17 669.655 2043.76 670.866V695.764C2043.76 697.26 2042.55 698.473 2041.05 698.473C2039.56 698.473 2038.35 697.26 2038.35 695.764V670.895C2033.88 669.722 2030.58 665.656 2030.58 660.82C2030.58 655.067 2035.25 650.403 2041 650.403C2046.75 650.403 2051.42 655.067 2051.42 660.82Z" fill="black"/>
</g>
</g>
</g>
<g id="Medium-S">
<g id="Solid / Signal Solid_23">
<g id="Shape_23">
<path d="M1769.99 681.126C1769.05 682.295 1769.08 684.008 1770.17 685.039C1771.26 686.063 1772.97 686.025 1773.92 684.874C1779.25 678.412 1782.45 670.13 1782.45 661.101C1782.45 640.447 1765.7 623.703 1745.05 623.703C1724.4 623.703 1707.65 640.447 1707.65 661.101C1707.65 670.089 1710.82 678.337 1716.11 684.787C1717.06 685.944 1718.78 685.984 1719.86 684.955C1720.95 683.926 1720.99 682.219 1720.05 681.051C1715.68 675.581 1713.07 668.646 1713.07 661.101C1713.07 643.438 1727.39 629.12 1745.05 629.12C1762.71 629.12 1777.03 643.438 1777.03 661.101C1777.03 668.681 1774.39 675.645 1769.99 681.126Z" fill="black"/>
<path d="M1764.53 676.002C1763.62 677.184 1761.9 677.218 1760.82 676.195C1759.73 675.163 1759.71 673.449 1760.58 672.229C1762.83 669.095 1764.15 665.253 1764.15 661.101C1764.15 650.55 1755.6 641.997 1745.05 641.997C1734.5 641.997 1725.95 650.55 1725.95 661.101C1725.95 665.215 1727.25 669.024 1729.46 672.142C1730.32 673.361 1730.29 675.065 1729.21 676.094C1728.12 677.124 1726.39 677.085 1725.49 675.892C1722.38 671.781 1720.53 666.657 1720.53 661.101C1720.53 647.559 1731.51 636.58 1745.05 636.58C1758.59 636.58 1769.57 647.559 1769.57 661.101C1769.57 666.706 1767.69 671.872 1764.53 676.002Z" fill="black"/>
<path d="M1755.42 660.82C1755.42 665.616 1752.17 669.655 1747.76 670.866V695.764C1747.76 697.26 1746.55 698.473 1745.05 698.473C1743.56 698.473 1742.35 697.26 1742.35 695.764V670.895C1737.88 669.722 1734.58 665.656 1734.58 660.82C1734.58 655.067 1739.25 650.403 1745 650.403C1750.75 650.403 1755.42 655.067 1755.42 660.82Z" fill="black"/>
</g>
</g>
</g>
<g id="Regular-S">
<g id="Solid / Signal Solid_24">
<g id="Shape_24">
<path d="M1473.99 681.126C1473.05 682.295 1473.08 684.008 1474.17 685.039C1475.26 686.063 1476.97 686.025 1477.92 684.874C1483.25 678.412 1486.45 670.13 1486.45 661.101C1486.45 640.447 1469.7 623.703 1449.05 623.703C1428.4 623.703 1411.65 640.447 1411.65 661.101C1411.65 670.089 1414.82 678.337 1420.11 684.787C1421.06 685.944 1422.78 685.984 1423.86 684.955C1424.95 683.926 1424.99 682.219 1424.05 681.051C1419.68 675.581 1417.07 668.646 1417.07 661.101C1417.07 643.438 1431.39 629.12 1449.05 629.12C1466.71 629.12 1481.03 643.438 1481.03 661.101C1481.03 668.681 1478.39 675.645 1473.99 681.126Z" fill="black"/>
<path d="M1468.53 676.002C1467.62 677.184 1465.9 677.218 1464.82 676.195C1463.73 675.163 1463.71 673.449 1464.58 672.229C1466.83 669.095 1468.15 665.253 1468.15 661.101C1468.15 650.55 1459.6 641.997 1449.05 641.997C1438.5 641.997 1429.95 650.55 1429.95 661.101C1429.95 665.215 1431.25 669.024 1433.46 672.142C1434.32 673.361 1434.29 675.065 1433.21 676.094C1432.12 677.124 1430.39 677.085 1429.49 675.892C1426.38 671.781 1424.53 666.657 1424.53 661.101C1424.53 647.559 1435.51 636.58 1449.05 636.58C1462.59 636.58 1473.57 647.559 1473.57 661.101C1473.57 666.706 1471.69 671.872 1468.53 676.002Z" fill="black"/>
<path d="M1459.42 660.82C1459.42 665.616 1456.17 669.655 1451.76 670.866V695.764C1451.76 697.26 1450.55 698.473 1449.05 698.473C1447.56 698.473 1446.35 697.26 1446.35 695.764V670.895C1441.88 669.722 1438.58 665.656 1438.58 660.82C1438.58 655.067 1443.25 650.403 1449 650.403C1454.75 650.403 1459.42 655.067 1459.42 660.82Z" fill="black"/>
</g>
</g>
</g>
<g id="Light-S">
<g id="Solid / Signal Solid_25">
<g id="Shape_25">
<path d="M1177.99 681.126C1177.05 682.295 1177.08 684.008 1178.17 685.039C1179.26 686.063 1180.97 686.025 1181.92 684.874C1187.25 678.412 1190.45 670.13 1190.45 661.101C1190.45 640.447 1173.7 623.703 1153.05 623.703C1132.4 623.703 1115.65 640.447 1115.65 661.101C1115.65 670.089 1118.82 678.337 1124.11 684.787C1125.06 685.944 1126.78 685.984 1127.86 684.955C1128.95 683.926 1128.99 682.219 1128.05 681.051C1123.68 675.581 1121.07 668.646 1121.07 661.101C1121.07 643.438 1135.39 629.12 1153.05 629.12C1170.71 629.12 1185.03 643.438 1185.03 661.101C1185.03 668.681 1182.39 675.645 1177.99 681.126Z" fill="black"/>
<path d="M1172.53 676.002C1171.62 677.184 1169.9 677.218 1168.82 676.195C1167.73 675.163 1167.71 673.449 1168.58 672.229C1170.83 669.095 1172.15 665.253 1172.15 661.101C1172.15 650.55 1163.6 641.997 1153.05 641.997C1142.5 641.997 1133.95 650.55 1133.95 661.101C1133.95 665.215 1135.25 669.024 1137.46 672.142C1138.32 673.361 1138.29 675.065 1137.21 676.094C1136.12 677.124 1134.39 677.085 1133.49 675.892C1130.38 671.781 1128.53 666.657 1128.53 661.101C1128.53 647.559 1139.51 636.58 1153.05 636.58C1166.59 636.58 1177.57 647.559 1177.57 661.101C1177.57 666.706 1175.69 671.872 1172.53 676.002Z" fill="black"/>
<path d="M1163.42 660.82C1163.42 665.616 1160.17 669.655 1155.76 670.866V695.764C1155.76 697.26 1154.55 698.473 1153.05 698.473C1151.56 698.473 1150.35 697.26 1150.35 695.764V670.895C1145.88 669.722 1142.58 665.656 1142.58 660.82C1142.58 655.067 1147.25 650.403 1153 650.403C1158.75 650.403 1163.42 655.067 1163.42 660.82Z" fill="black"/>
</g>
</g>
</g>
<g id="Thin-S">
<g id="Solid / Signal Solid_26">
<g id="Shape_26">
<path d="M881.988 681.126C881.048 682.295 881.083 684.008 882.172 685.039C883.256 686.063 884.973 686.025 885.922 684.874C891.249 678.412 894.448 670.13 894.448 661.101C894.448 640.447 877.705 623.703 857.05 623.703C836.396 623.703 819.652 640.447 819.652 661.101C819.652 670.089 822.823 678.337 828.107 684.787C829.056 685.944 830.779 685.984 831.865 684.955C832.95 683.926 832.986 682.219 832.052 681.051C827.682 675.581 825.069 668.646 825.069 661.101C825.069 643.438 839.388 629.12 857.05 629.12C874.713 629.12 889.032 643.438 889.032 661.101C889.032 668.681 886.395 675.645 881.988 681.126Z" fill="black"/>
<path d="M876.527 676.002C875.621 677.184 873.903 677.218 872.821 676.195C871.729 675.163 871.706 673.449 872.581 672.229C874.831 669.095 876.155 665.253 876.155 661.101C876.155 650.55 867.602 641.997 857.05 641.997C846.499 641.997 837.946 650.55 837.946 661.101C837.946 665.215 839.246 669.024 841.457 672.142C842.322 673.361 842.294 675.065 841.209 676.094C840.123 677.124 838.394 677.085 837.491 675.892C834.377 671.781 832.529 666.657 832.529 661.101C832.529 647.559 843.508 636.58 857.05 636.58C870.593 636.58 881.572 647.559 881.572 661.101C881.572 666.706 879.691 671.872 876.527 676.002Z" fill="black"/>
<path d="M867.416 660.82C867.416 665.616 864.175 669.655 859.763 670.866V695.764C859.763 697.26 858.55 698.473 857.055 698.473C855.559 698.473 854.346 697.26 854.346 695.764V670.895C849.879 669.722 846.583 665.656 846.583 660.82C846.583 655.067 851.247 650.403 857 650.403C862.753 650.403 867.416 655.067 867.416 660.82Z" fill="black"/>
</g>
</g>
</g>
<g id="Ultralight-S">
<g id="Solid / Signal Solid_27">
<g id="Shape_27">
<path d="M585.988 681.126C585.048 682.295 585.083 684.008 586.172 685.039C587.256 686.063 588.973 686.025 589.922 684.874C595.249 678.412 598.448 670.13 598.448 661.101C598.448 640.447 581.705 623.703 561.05 623.703C540.396 623.703 523.652 640.447 523.652 661.101C523.652 670.089 526.823 678.337 532.107 684.787C533.056 685.944 534.779 685.984 535.865 684.955C536.95 683.926 536.986 682.219 536.052 681.051C531.682 675.581 529.069 668.646 529.069 661.101C529.069 643.438 543.388 629.12 561.05 629.12C578.713 629.12 593.032 643.438 593.032 661.101C593.032 668.681 590.395 675.645 585.988 681.126Z" fill="black"/>
<path d="M580.527 676.002C579.621 677.184 577.903 677.218 576.821 676.195C575.729 675.163 575.706 673.449 576.581 672.229C578.831 669.095 580.155 665.253 580.155 661.101C580.155 650.55 571.602 641.997 561.05 641.997C550.499 641.997 541.946 650.55 541.946 661.101C541.946 665.215 543.246 669.024 545.457 672.142C546.322 673.361 546.294 675.065 545.209 676.094C544.123 677.124 542.394 677.085 541.491 675.892C538.377 671.781 536.529 666.657 536.529 661.101C536.529 647.559 547.508 636.58 561.05 636.58C574.593 636.58 585.572 647.559 585.572 661.101C585.572 666.706 583.691 671.872 580.527 676.002Z" fill="black"/>
<path d="M571.416 660.82C571.416 665.616 568.175 669.655 563.763 670.866V695.764C563.763 697.26 562.55 698.473 561.055 698.473C559.559 698.473 558.346 697.26 558.346 695.764V670.895C553.879 669.722 550.583 665.656 550.583 660.82C550.583 655.067 555.247 650.403 561 650.403C566.753 650.403 571.416 655.067 571.416 660.82Z" fill="black"/>
</g>
</g>
</g>
</g>
</g>
<defs>
<clipPath id="clip0_0_1">
<rect width="3300" height="2200" fill="white"/>
</clipPath>
</defs>
</svg>
