<svg width="3300" height="2200" viewBox="0 0 3300 2200" fill="none" xmlns="http://www.w3.org/2000/svg">
<rect width="3300" height="2200" fill="#E5E5E5"/>
<g id="Category / Solid / Delivery" clip-path="url(#clip0_0_1)">
<g id="Notes">
<path id="artboard" d="M3300 0H0V2200H3300V0Z" fill="white"/>
<path id="Vector" d="M263 292H3036" stroke="black" stroke-width="0.5"/>
<text id="Weight/Scale Variations" fill="black" xml:space="preserve" style="white-space: pre" font-family="Roboto" font-size="12" letter-spacing="0em"><tspan x="263" y="321.102">Weight/Scale Variations</tspan></text>
<text id="Ultralight" fill="black" xml:space="preserve" style="white-space: pre" font-family="Roboto" font-size="12" letter-spacing="0em"><tspan x="535.211" y="321.102">Ultralight</tspan></text>
<text id="Thin" fill="black" xml:space="preserve" style="white-space: pre" font-family="Roboto" font-size="12" letter-spacing="0em"><tspan x="844.422" y="321.102">Thin</tspan></text>
<text id="Light" fill="black" xml:space="preserve" style="white-space: pre" font-family="Roboto" font-size="12" letter-spacing="0em"><tspan x="1139.63" y="321.102">Light</tspan></text>
<text id="Regular" fill="black" xml:space="preserve" style="white-space: pre" font-family="Roboto" font-size="12" letter-spacing="0em"><tspan x="1429.34" y="321.102">Regular</tspan></text>
<text id="Medium" fill="black" xml:space="preserve" style="white-space: pre" font-family="Roboto" font-size="12" letter-spacing="0em"><tspan x="1724.56" y="321.102">Medium</tspan></text>
<text id="Semibold" fill="black" xml:space="preserve" style="white-space: pre" font-family="Roboto" font-size="12" letter-spacing="0em"><tspan x="2017.77" y="321.102">Semibold</tspan></text>
<text id="Bold" fill="black" xml:space="preserve" style="white-space: pre" font-family="Roboto" font-size="12" letter-spacing="0em"><tspan x="2327.48" y="321.102">Bold</tspan></text>
<text id="Heavy" fill="black" xml:space="preserve" style="white-space: pre" font-family="Roboto" font-size="12" letter-spacing="0em"><tspan x="2620.19" y="321.102">Heavy</tspan></text>
<text id="Black" fill="black" xml:space="preserve" style="white-space: pre" font-family="Roboto" font-size="12" letter-spacing="0em"><tspan x="2918.4" y="321.102">Black</tspan></text>
<path id="Vector_2" d="M263 1903H3036" stroke="black" stroke-width="0.5"/>
<g id="Group">
<path id="Vector_3" d="M272.248 1933.83C276.555 1933.83 280.139 1930.26 280.139 1925.95C280.139 1921.64 276.545 1918.07 272.238 1918.07C267.941 1918.07 264.367 1921.64 264.367 1925.95C264.367 1930.26 267.951 1933.83 272.248 1933.83ZM272.248 1932.35C268.703 1932.35 265.871 1929.51 265.871 1925.95C265.871 1922.4 268.693 1919.55 272.238 1919.55C275.793 1919.55 278.635 1922.4 278.644 1925.95C278.654 1929.51 275.803 1932.35 272.248 1932.35ZM272.229 1929.57C272.697 1929.57 272.971 1929.26 272.971 1928.74V1926.68H275.197C275.695 1926.68 276.037 1926.43 276.037 1925.96C276.037 1925.48 275.715 1925.22 275.197 1925.22H272.971V1922.99C272.971 1922.47 272.697 1922.15 272.229 1922.15C271.76 1922.15 271.506 1922.49 271.506 1922.99V1925.22H269.299C268.781 1925.22 268.449 1925.48 268.449 1925.96C268.449 1926.43 268.801 1926.68 269.299 1926.68H271.506V1928.74C271.506 1929.24 271.76 1929.57 272.229 1929.57Z" fill="black"/>
</g>
<g id="Group_2">
<path id="Vector_4" d="M293.215 1935.91C298.664 1935.91 303.176 1931.4 303.176 1925.95C303.176 1920.51 298.654 1915.99 293.205 1915.99C287.766 1915.99 283.254 1920.51 283.254 1925.95C283.254 1931.4 287.775 1935.91 293.215 1935.91ZM293.215 1934.25C288.605 1934.25 284.924 1930.56 284.924 1925.95C284.924 1921.35 288.596 1917.65 293.205 1917.65C297.814 1917.65 301.506 1921.35 301.516 1925.95C301.525 1930.56 297.824 1934.25 293.215 1934.25ZM293.195 1930.59C293.713 1930.59 294.025 1930.23 294.025 1929.66V1926.77H297.082C297.629 1926.77 298.01 1926.49 298.01 1925.97C298.01 1925.44 297.648 1925.14 297.082 1925.14H294.025V1922.07C294.025 1921.5 293.713 1921.14 293.195 1921.14C292.678 1921.14 292.385 1921.52 292.385 1922.07V1925.14H289.338C288.771 1925.14 288.4 1925.44 288.4 1925.97C288.4 1926.49 288.791 1926.77 289.338 1926.77H292.385V1929.66C292.385 1930.21 292.678 1930.59 293.195 1930.59Z" fill="black"/>
</g>
<g id="Group_3">
<path id="Vector_5" d="M319.895 1938.67C326.857 1938.67 332.619 1932.92 332.619 1925.96C332.619 1918.99 326.848 1913.24 319.885 1913.24C312.932 1913.24 307.18 1918.99 307.18 1925.96C307.18 1932.92 312.941 1938.67 319.895 1938.67ZM319.895 1936.86C313.859 1936.86 309.006 1931.99 309.006 1925.96C309.006 1919.92 313.85 1915.06 319.885 1915.06C325.93 1915.06 330.783 1919.92 330.793 1925.96C330.803 1931.99 325.939 1936.86 319.895 1936.86ZM319.875 1931.93C320.441 1931.93 320.793 1931.54 320.793 1930.94V1926.87H325.031C325.617 1926.87 326.037 1926.53 326.037 1925.98C326.037 1925.4 325.647 1925.06 325.031 1925.06H320.793V1920.81C320.793 1920.2 320.441 1919.8 319.875 1919.8C319.309 1919.8 318.986 1920.21 318.986 1920.81V1925.06H314.758C314.143 1925.06 313.732 1925.4 313.732 1925.98C313.732 1926.53 314.162 1926.87 314.758 1926.87H318.986V1930.94C318.986 1931.52 319.309 1931.93 319.875 1931.93Z" fill="black"/>
</g>
<text id="Design Variations" fill="black" xml:space="preserve" style="white-space: pre" font-family="Roboto" font-size="12" letter-spacing="0em"><tspan x="263" y="1952.1">Design Variations</tspan></text>
<text id="Symbols are supported in up to nine weights and three scales." fill="black" xml:space="preserve" style="white-space: pre" font-family="Roboto" font-size="12" letter-spacing="0em"><tspan x="263" y="1970.1">Symbols are supported in up to nine weights and three scales.</tspan></text>
<text id="For optimal layout with text and other symbols, vertically align" fill="black" xml:space="preserve" style="white-space: pre" font-family="Roboto" font-size="12" letter-spacing="0em"><tspan x="263" y="1988.1">For optimal layout with text and other symbols, vertically align</tspan></text>
<text id="symbols with the adjacent text." fill="black" xml:space="preserve" style="white-space: pre" font-family="Roboto" font-size="12" letter-spacing="0em"><tspan x="263" y="2006.1">symbols with the adjacent text.</tspan></text>
<path id="Vector_6" opacity="0.4" d="M779 1919H776V1933H779V1919Z" fill="#00AEEF"/>
<g id="Group_4">
<path id="Vector_7" d="M789.527 1933H791.373L786.178 1918.91H784.439L779.244 1933H781.09L782.506 1928.96H788.111L789.527 1933ZM785.279 1921.04H785.338L787.594 1927.47H783.023L785.279 1921.04Z" fill="black"/>
</g>
<path id="Vector_8" opacity="0.4" d="M794.617 1919H791.617V1933H794.617V1919Z" fill="#00AEEF"/>
<text id="Margins" fill="black" xml:space="preserve" style="white-space: pre" font-family="Roboto" font-size="12" letter-spacing="0em"><tspan x="776" y="1952.1">Margins</tspan></text>
<text id="Leading and trailing margins on the left and right side of each symbol" fill="black" xml:space="preserve" style="white-space: pre" font-family="Roboto" font-size="12" letter-spacing="0em"><tspan x="776" y="1970.1">Leading and trailing margins on the left and right side of each symbol</tspan></text>
<text id="can be adjusted by modifying the width of the blue rectangles." fill="black" xml:space="preserve" style="white-space: pre" font-family="Roboto" font-size="12" letter-spacing="0em"><tspan x="776" y="1988.1">can be adjusted by modifying the width of the blue rectangles.</tspan></text>
<text id="Modifications are automatically applied proportionally to all" fill="black" xml:space="preserve" style="white-space: pre" font-family="Roboto" font-size="12" letter-spacing="0em"><tspan x="776" y="2006.1">Modifications are automatically applied proportionally to all</tspan></text>
<text id="scales and weights." fill="black" xml:space="preserve" style="white-space: pre" font-family="Roboto" font-size="12" letter-spacing="0em"><tspan x="776" y="2024.1">scales and weights.</tspan></text>
<g id="Group_5">
<path id="Vector_9" d="M1291.83 1936.11L1293.37 1937.66C1294.22 1938.49 1295.19 1938.42 1296.06 1937.46L1306.27 1926.34C1306.7 1926.63 1307.1 1926.62 1307.56 1926.52L1308.61 1926.31L1309.3 1927L1309.25 1927.52C1309.19 1928.05 1309.35 1928.47 1309.85 1928.97L1310.66 1929.78C1311.17 1930.28 1311.82 1930.31 1312.3 1929.83L1315.55 1926.58C1316.03 1926.1 1316.01 1925.45 1315.5 1924.94L1314.68 1924.12C1314.19 1923.62 1313.77 1923.45 1313.24 1923.53L1312.71 1923.58L1312.06 1922.92L1312.34 1921.78C1312.49 1921.21 1312.34 1920.74 1311.71 1920.14L1309.3 1917.75C1305.76 1914.22 1301.23 1914.33 1298.11 1917.46C1297.69 1917.89 1297.64 1918.48 1297.92 1918.91C1298.15 1919.28 1298.63 1919.5 1299.27 1919.34C1300.79 1918.96 1302.3 1919.07 1303.78 1920.08L1303.16 1921.66C1302.93 1922.25 1302.94 1922.73 1303.18 1923.16L1292.02 1933.44C1291.08 1934.31 1290.97 1935.25 1291.83 1936.11ZM1299.67 1917.85C1302.34 1915.86 1305.65 1916.17 1308.05 1918.58L1310.68 1921.19C1310.91 1921.43 1310.94 1921.61 1310.88 1921.91L1310.5 1923.47L1312.08 1925.04L1313.04 1924.95C1313.33 1924.92 1313.41 1924.94 1313.64 1925.17L1314.26 1925.79L1311.51 1928.54L1310.88 1927.92C1310.66 1927.7 1310.64 1927.6 1310.67 1927.32L1310.76 1926.36L1309.19 1924.8L1307.57 1925.11C1307.29 1925.17 1307.14 1925.17 1306.91 1924.92L1304.73 1922.75C1304.51 1922.51 1304.48 1922.37 1304.61 1922.05L1305.55 1919.78C1303.95 1918.24 1301.84 1917.39 1299.8 1918.05C1299.71 1918.08 1299.64 1918.06 1299.61 1918.02C1299.59 1917.97 1299.59 1917.92 1299.67 1917.85ZM1293.1 1935.41C1292.61 1934.91 1292.79 1934.61 1293.12 1934.31L1304.08 1924.19L1305.31 1925.42L1295.15 1936.35C1294.85 1936.68 1294.47 1936.78 1294.07 1936.38L1293.1 1935.41Z" fill="black"/>
</g>
<text id="Exporting" fill="black" xml:space="preserve" style="white-space: pre" font-family="Roboto" font-size="12" letter-spacing="0em"><tspan x="1289" y="1952.1">Exporting</tspan></text>
<text id="Symbols should be outlined when exporting to ensure the" fill="black" xml:space="preserve" style="white-space: pre" font-family="Roboto" font-size="12" letter-spacing="0em"><tspan x="1289" y="1970.1">Symbols should be outlined when exporting to ensure the</tspan></text>
<text id="design is preserved when submitting to Xcode." fill="black" xml:space="preserve" style="white-space: pre" font-family="Roboto" font-size="12" letter-spacing="0em"><tspan x="1289" y="1988.1">design is preserved when submitting to Xcode.</tspan></text>
<text id="template-version" fill="black" xml:space="preserve" style="white-space: pre" font-family="Roboto" font-size="12" letter-spacing="0em"><tspan x="2958" y="1932.1">Template v.1.0</tspan></text>
<text id="Generated from pencil.circle" fill="black" xml:space="preserve" style="white-space: pre" font-family="Roboto" font-size="12" letter-spacing="0em"><tspan x="2885" y="1950.1">Generated from pencil.circle</tspan></text>
<text id="Typeset at 100 points" fill="black" xml:space="preserve" style="white-space: pre" font-family="Roboto" font-size="12" letter-spacing="0em"><tspan x="2921" y="1968.1">Typeset at 100 points</tspan></text>
<text id="Small" fill="black" xml:space="preserve" style="white-space: pre" font-family="Roboto" font-size="12" letter-spacing="0em"><tspan x="263" y="725.102">Small</tspan></text>
<text id="Medium_2" fill="black" xml:space="preserve" style="white-space: pre" font-family="Roboto" font-size="12" letter-spacing="0em"><tspan x="263" y="1155.1">Medium</tspan></text>
<text id="Large" fill="black" xml:space="preserve" style="white-space: pre" font-family="Roboto" font-size="12" letter-spacing="0em"><tspan x="263" y="1585.1">Large</tspan></text>
</g>
<g id="Guides">
<g id="H-reference">
<path id="Vector_10" d="M393.932 695.998H396.666L369.566 625.539H367.076L339.977 695.998H342.662L351.94 671.535H384.703L393.932 695.998ZM368.199 628.908H368.443L383.824 669.289H352.818L368.199 628.908Z" fill="#27AAE1"/>
</g>
<path id="Baseline-S" d="M263 696H3036" stroke="#27AAE1" stroke-width="0.577"/>
<path id="Capline-S" d="M263 626H3036" stroke="#27AAE1" stroke-width="0.577"/>
<g id="H-reference_2">
<path id="Vector_11" d="M393.932 1126H396.666L369.566 1055.54H367.076L339.977 1126H342.662L351.94 1101.54H384.703L393.932 1126ZM368.199 1058.91H368.443L383.824 1099.29H352.818L368.199 1058.91Z" fill="#27AAE1"/>
</g>
<path id="Baseline-M" d="M263 1126H3036" stroke="#27AAE1" stroke-width="0.577"/>
<path id="Capline-M" d="M263 1056H3036" stroke="#27AAE1" stroke-width="0.577"/>
<g id="H-reference_3">
<path id="Vector_12" d="M393.932 1556H396.666L369.566 1485.54H367.076L339.977 1556H342.662L351.94 1531.54H384.703L393.932 1556ZM368.199 1488.91H368.443L383.824 1529.29H352.818L368.199 1488.91Z" fill="#27AAE1"/>
</g>
<g id="Group 1">
<path id="Baseline-L" d="M263 1556H3036" stroke="#27AAE1" stroke-width="0.577"/>
<path id="Capline-L" d="M263 1486H3036" stroke="#27AAE1" stroke-width="0.577"/>
</g>
<path id="left-margin" opacity="0.4" d="M1392.04 1030.79H1383.3V1150.12H1392.04V1030.79Z" fill="#00AEEF"/>
<path id="right-margin" opacity="0.4" d="M1508.39 1030.79H1499.65V1150.12H1508.39V1030.79Z" fill="#00AEEF"/>
</g>
<g id="Symbols">
<g id="Black-L">
<g id="Solid / Delivery Solid">
<g id="Shape">
<path d="M2919.46 1453.5C2919.32 1454.14 2919.25 1454.8 2919.25 1455.48V1467.79C2919.25 1473.17 2923.62 1477.54 2929 1477.54C2934.39 1477.54 2938.75 1473.17 2938.75 1467.79V1455.48C2938.75 1454.8 2938.68 1454.14 2938.55 1453.5H2958.52C2970.95 1453.5 2981.02 1463.57 2981.02 1476V1516.63C2981.02 1519.55 2978.6 1521.86 2975.74 1522.49C2975.3 1522.59 2974.86 1522.7 2974.42 1522.82L2933.97 1534.27C2930.66 1534.27 2929.09 1530.52 2932.82 1528.03C2943.86 1520.9 2944.86 1505.52 2937.74 1494.84C2930.3 1483.67 2915.37 1480.37 2903.91 1487.35L2884.97 1498.88C2881.47 1501.02 2876.99 1498.5 2876.99 1494.4V1476C2876.99 1463.57 2887.06 1453.5 2899.49 1453.5H2919.46Z" fill="black"/>
<path d="M2867.57 1520.9C2859.82 1525.61 2855.67 1534.52 2857.02 1543.48L2858.76 1554.95C2860.19 1564.37 2867.39 1571.87 2876.74 1573.67L2920.53 1582.14C2925.08 1583.01 2929.79 1582.47 2934.02 1580.57L2986.15 1557.16C2992.31 1554.39 2995.42 1547.45 2993.4 1541.02C2991.24 1534.15 2984 1530.24 2977.07 1532.2L2936.63 1543.66C2933.26 1544.61 2929.71 1544.76 2926.26 1544.1L2914.99 1541.94C2913.09 1541.58 2911.52 1540.27 2910.82 1538.46C2909.96 1536.21 2910.63 1533.66 2912.49 1532.13L2926.62 1520.5C2932.68 1515.52 2933.97 1506.77 2929.63 1500.25C2925.08 1493.43 2915.98 1491.42 2908.99 1495.67L2867.57 1520.9Z" fill="black"/>
</g>
</g>
</g>
<g id="Heavy-L">
<g id="Solid / Delivery Solid_2">
<g id="Shape_2">
<path d="M2623.46 1453.5C2623.32 1454.14 2623.25 1454.8 2623.25 1455.48V1467.79C2623.25 1473.17 2627.62 1477.54 2633 1477.54C2638.39 1477.54 2642.75 1473.17 2642.75 1467.79V1455.48C2642.75 1454.8 2642.68 1454.14 2642.55 1453.5H2662.52C2674.95 1453.5 2685.02 1463.57 2685.02 1476V1516.63C2685.02 1519.55 2682.6 1521.86 2679.74 1522.49C2679.3 1522.59 2678.86 1522.7 2678.42 1522.82L2637.97 1534.27C2634.66 1534.27 2633.09 1530.52 2636.82 1528.03C2647.86 1520.9 2648.86 1505.52 2641.74 1494.84C2634.3 1483.67 2619.37 1480.37 2607.91 1487.35L2588.97 1498.88C2585.47 1501.02 2580.99 1498.5 2580.99 1494.4V1476C2580.99 1463.57 2591.06 1453.5 2603.49 1453.5H2623.46Z" fill="black"/>
<path d="M2571.57 1520.9C2563.82 1525.61 2559.67 1534.52 2561.02 1543.48L2562.76 1554.95C2564.19 1564.37 2571.39 1571.87 2580.74 1573.67L2624.53 1582.14C2629.08 1583.01 2633.79 1582.47 2638.02 1580.57L2690.15 1557.16C2696.31 1554.39 2699.42 1547.45 2697.4 1541.02C2695.24 1534.15 2688 1530.24 2681.07 1532.2L2640.63 1543.66C2637.26 1544.61 2633.71 1544.76 2630.26 1544.1L2618.99 1541.94C2617.09 1541.58 2615.52 1540.27 2614.82 1538.46C2613.96 1536.21 2614.63 1533.66 2616.49 1532.13L2630.62 1520.5C2636.68 1515.52 2637.97 1506.77 2633.63 1500.25C2629.08 1493.43 2619.98 1491.42 2612.99 1495.67L2571.57 1520.9Z" fill="black"/>
</g>
</g>
</g>
<g id="Bold-L">
<g id="Solid / Delivery Solid_3">
<g id="Shape_3">
<path d="M2327.46 1453.5C2327.32 1454.14 2327.25 1454.8 2327.25 1455.48V1467.79C2327.25 1473.17 2331.62 1477.54 2337 1477.54C2342.39 1477.54 2346.75 1473.17 2346.75 1467.79V1455.48C2346.75 1454.8 2346.68 1454.14 2346.55 1453.5H2366.52C2378.95 1453.5 2389.02 1463.57 2389.02 1476V1516.63C2389.02 1519.55 2386.6 1521.86 2383.74 1522.49C2383.3 1522.59 2382.86 1522.7 2382.42 1522.82L2341.97 1534.27C2338.66 1534.27 2337.09 1530.52 2340.82 1528.03C2351.86 1520.9 2352.86 1505.52 2345.74 1494.84C2338.3 1483.67 2323.37 1480.37 2311.91 1487.35L2292.97 1498.88C2289.47 1501.02 2284.99 1498.5 2284.99 1494.4V1476C2284.99 1463.57 2295.06 1453.5 2307.49 1453.5H2327.46Z" fill="black"/>
<path d="M2275.57 1520.9C2267.82 1525.61 2263.67 1534.52 2265.02 1543.48L2266.76 1554.95C2268.19 1564.37 2275.39 1571.87 2284.74 1573.67L2328.53 1582.14C2333.08 1583.01 2337.79 1582.47 2342.02 1580.57L2394.15 1557.16C2400.31 1554.39 2403.42 1547.45 2401.4 1541.02C2399.24 1534.15 2392 1530.24 2385.07 1532.2L2344.63 1543.66C2341.26 1544.61 2337.71 1544.76 2334.26 1544.1L2322.99 1541.94C2321.09 1541.58 2319.52 1540.27 2318.82 1538.46C2317.96 1536.21 2318.63 1533.66 2320.49 1532.13L2334.62 1520.5C2340.68 1515.52 2341.97 1506.77 2337.63 1500.25C2333.08 1493.43 2323.98 1491.42 2316.99 1495.67L2275.57 1520.9Z" fill="black"/>
</g>
</g>
</g>
<g id="Semibold-L">
<g id="Solid / Delivery Solid_4">
<g id="Shape_4">
<path d="M2031.46 1453.5C2031.32 1454.14 2031.25 1454.8 2031.25 1455.48V1467.79C2031.25 1473.17 2035.62 1477.54 2041 1477.54C2046.39 1477.54 2050.75 1473.17 2050.75 1467.79V1455.48C2050.75 1454.8 2050.68 1454.14 2050.55 1453.5H2070.52C2082.95 1453.5 2093.02 1463.57 2093.02 1476V1516.63C2093.02 1519.55 2090.6 1521.86 2087.74 1522.49C2087.3 1522.59 2086.86 1522.7 2086.42 1522.82L2045.97 1534.27C2042.66 1534.27 2041.09 1530.52 2044.82 1528.03C2055.86 1520.9 2056.86 1505.52 2049.74 1494.84C2042.3 1483.67 2027.37 1480.37 2015.91 1487.35L1996.97 1498.88C1993.47 1501.02 1988.99 1498.5 1988.99 1494.4V1476C1988.99 1463.57 1999.06 1453.5 2011.49 1453.5H2031.46Z" fill="black"/>
<path d="M1979.57 1520.9C1971.82 1525.61 1967.67 1534.52 1969.02 1543.48L1970.76 1554.95C1972.19 1564.37 1979.39 1571.87 1988.74 1573.67L2032.53 1582.14C2037.08 1583.01 2041.79 1582.47 2046.02 1580.57L2098.15 1557.16C2104.31 1554.39 2107.42 1547.45 2105.4 1541.02C2103.24 1534.15 2096 1530.24 2089.07 1532.2L2048.63 1543.66C2045.26 1544.61 2041.71 1544.76 2038.26 1544.1L2026.99 1541.94C2025.09 1541.58 2023.52 1540.27 2022.82 1538.46C2021.96 1536.21 2022.63 1533.66 2024.49 1532.13L2038.62 1520.5C2044.68 1515.52 2045.97 1506.77 2041.63 1500.25C2037.08 1493.43 2027.98 1491.42 2020.99 1495.67L1979.57 1520.9Z" fill="black"/>
</g>
</g>
</g>
<g id="Medium-L">
<g id="Solid / Delivery Solid_5">
<g id="Shape_5">
<path d="M1735.46 1453.5C1735.32 1454.14 1735.25 1454.8 1735.25 1455.48V1467.79C1735.25 1473.17 1739.62 1477.54 1745 1477.54C1750.39 1477.54 1754.75 1473.17 1754.75 1467.79V1455.48C1754.75 1454.8 1754.68 1454.14 1754.55 1453.5H1774.52C1786.95 1453.5 1797.02 1463.57 1797.02 1476V1516.63C1797.02 1519.55 1794.6 1521.86 1791.74 1522.49C1791.3 1522.59 1790.86 1522.7 1790.42 1522.82L1749.97 1534.27C1746.66 1534.27 1745.09 1530.52 1748.82 1528.03C1759.86 1520.9 1760.86 1505.52 1753.74 1494.84C1746.3 1483.67 1731.37 1480.37 1719.91 1487.35L1700.97 1498.88C1697.47 1501.02 1692.99 1498.5 1692.99 1494.4V1476C1692.99 1463.57 1703.06 1453.5 1715.49 1453.5H1735.46Z" fill="black"/>
<path d="M1683.57 1520.9C1675.82 1525.61 1671.67 1534.52 1673.02 1543.48L1674.76 1554.95C1676.19 1564.37 1683.39 1571.87 1692.74 1573.67L1736.53 1582.14C1741.08 1583.01 1745.79 1582.47 1750.02 1580.57L1802.15 1557.16C1808.31 1554.39 1811.42 1547.45 1809.4 1541.02C1807.24 1534.15 1800 1530.24 1793.07 1532.2L1752.63 1543.66C1749.26 1544.61 1745.71 1544.76 1742.26 1544.1L1730.99 1541.94C1729.09 1541.58 1727.52 1540.27 1726.82 1538.46C1725.96 1536.21 1726.63 1533.66 1728.49 1532.13L1742.62 1520.5C1748.68 1515.52 1749.97 1506.77 1745.63 1500.25C1741.08 1493.43 1731.98 1491.42 1724.99 1495.67L1683.57 1520.9Z" fill="black"/>
</g>
</g>
</g>
<g id="Regular-L">
<g id="Solid / Delivery Solid_6">
<g id="Shape_6">
<path d="M1439.46 1453.5C1439.32 1454.14 1439.25 1454.8 1439.25 1455.48V1467.79C1439.25 1473.17 1443.62 1477.54 1449 1477.54C1454.39 1477.54 1458.75 1473.17 1458.75 1467.79V1455.48C1458.75 1454.8 1458.68 1454.14 1458.55 1453.5H1478.52C1490.95 1453.5 1501.02 1463.57 1501.02 1476V1516.63C1501.02 1519.55 1498.6 1521.86 1495.74 1522.49C1495.3 1522.59 1494.86 1522.7 1494.42 1522.82L1453.97 1534.27C1450.66 1534.27 1449.09 1530.52 1452.82 1528.03C1463.86 1520.9 1464.86 1505.52 1457.74 1494.84C1450.3 1483.67 1435.37 1480.37 1423.91 1487.35L1404.97 1498.88C1401.47 1501.02 1396.99 1498.5 1396.99 1494.4V1476C1396.99 1463.57 1407.06 1453.5 1419.49 1453.5H1439.46Z" fill="black"/>
<path d="M1387.57 1520.9C1379.82 1525.61 1375.67 1534.52 1377.02 1543.48L1378.76 1554.95C1380.19 1564.37 1387.39 1571.87 1396.74 1573.67L1440.53 1582.14C1445.08 1583.01 1449.79 1582.47 1454.02 1580.57L1506.15 1557.16C1512.31 1554.39 1515.42 1547.45 1513.4 1541.02C1511.24 1534.15 1504 1530.24 1497.07 1532.2L1456.63 1543.66C1453.26 1544.61 1449.71 1544.76 1446.26 1544.1L1434.99 1541.94C1433.09 1541.58 1431.52 1540.27 1430.82 1538.46C1429.96 1536.21 1430.63 1533.66 1432.49 1532.13L1446.62 1520.5C1452.68 1515.52 1453.97 1506.77 1449.63 1500.25C1445.08 1493.43 1435.98 1491.42 1428.99 1495.67L1387.57 1520.9Z" fill="black"/>
</g>
</g>
</g>
<g id="Light-L">
<g id="Solid / Delivery Solid_7">
<g id="Shape_7">
<path d="M1143.46 1453.5C1143.32 1454.14 1143.25 1454.8 1143.25 1455.48V1467.79C1143.25 1473.17 1147.62 1477.54 1153 1477.54C1158.39 1477.54 1162.75 1473.17 1162.75 1467.79V1455.48C1162.75 1454.8 1162.68 1454.14 1162.55 1453.5H1182.52C1194.95 1453.5 1205.02 1463.57 1205.02 1476V1516.63C1205.02 1519.55 1202.6 1521.86 1199.74 1522.49C1199.3 1522.59 1198.86 1522.7 1198.42 1522.82L1157.97 1534.27C1154.66 1534.27 1153.09 1530.52 1156.82 1528.03C1167.86 1520.9 1168.86 1505.52 1161.74 1494.84C1154.3 1483.67 1139.37 1480.37 1127.91 1487.35L1108.97 1498.88C1105.47 1501.02 1100.99 1498.5 1100.99 1494.4V1476C1100.99 1463.57 1111.06 1453.5 1123.49 1453.5H1143.46Z" fill="black"/>
<path d="M1091.57 1520.9C1083.82 1525.61 1079.67 1534.52 1081.02 1543.48L1082.76 1554.95C1084.19 1564.37 1091.39 1571.87 1100.74 1573.67L1144.53 1582.14C1149.08 1583.01 1153.79 1582.47 1158.02 1580.57L1210.15 1557.16C1216.31 1554.39 1219.42 1547.45 1217.4 1541.02C1215.24 1534.15 1208 1530.24 1201.07 1532.2L1160.63 1543.66C1157.26 1544.61 1153.71 1544.76 1150.26 1544.1L1138.99 1541.94C1137.09 1541.58 1135.52 1540.27 1134.82 1538.46C1133.96 1536.21 1134.63 1533.66 1136.49 1532.13L1150.62 1520.5C1156.68 1515.52 1157.97 1506.77 1153.63 1500.25C1149.08 1493.43 1139.98 1491.42 1132.99 1495.67L1091.57 1520.9Z" fill="black"/>
</g>
</g>
</g>
<g id="Thin-L">
<g id="Solid / Delivery Solid_8">
<g id="Shape_8">
<path d="M847.456 1453.5C847.324 1454.14 847.254 1454.8 847.254 1455.48V1467.79C847.254 1473.17 851.619 1477.54 857.004 1477.54C862.389 1477.54 866.754 1473.17 866.754 1467.79V1455.48C866.754 1454.8 866.684 1454.14 866.552 1453.5H886.52C898.946 1453.5 909.02 1463.57 909.02 1476V1516.63C909.02 1519.55 906.596 1521.86 903.738 1522.49C903.297 1522.59 902.857 1522.7 902.418 1522.82L861.971 1534.27C858.661 1534.27 857.094 1530.52 860.816 1528.03C871.863 1520.9 872.862 1505.52 865.738 1494.84C858.296 1483.67 843.373 1480.37 831.915 1487.35L812.969 1498.88C809.47 1501.02 804.988 1498.5 804.988 1494.4V1476C804.988 1463.57 815.062 1453.5 827.488 1453.5H847.456Z" fill="black"/>
<path d="M795.568 1520.9C787.823 1525.61 783.666 1534.52 785.024 1543.48L786.761 1554.95C788.186 1564.37 795.387 1571.87 804.738 1573.67L848.53 1582.14C853.08 1583.01 857.79 1582.47 862.017 1580.57L914.154 1557.16C920.311 1554.39 923.424 1547.45 921.398 1541.02C919.236 1534.15 912.003 1530.24 905.074 1532.2L864.628 1543.66C861.255 1544.61 857.707 1544.76 854.264 1544.1L842.991 1541.94C841.095 1541.58 839.52 1540.27 838.824 1538.46C837.955 1536.21 838.626 1533.66 840.489 1532.13L854.623 1520.5C860.675 1515.52 861.973 1506.77 857.626 1500.25C853.085 1493.43 843.979 1491.42 836.987 1495.67L795.568 1520.9Z" fill="black"/>
</g>
</g>
</g>
<g id="Ultralight-L">
<g id="Solid / Delivery Solid_9">
<g id="Shape_9">
<path d="M551.456 1453.5C551.324 1454.14 551.254 1454.8 551.254 1455.48V1467.79C551.254 1473.17 555.619 1477.54 561.004 1477.54C566.389 1477.54 570.754 1473.17 570.754 1467.79V1455.48C570.754 1454.8 570.684 1454.14 570.552 1453.5H590.52C602.946 1453.5 613.02 1463.57 613.02 1476V1516.63C613.02 1519.55 610.596 1521.86 607.738 1522.49C607.297 1522.59 606.857 1522.7 606.418 1522.82L565.971 1534.27C562.661 1534.27 561.094 1530.52 564.816 1528.03C575.863 1520.9 576.862 1505.52 569.738 1494.84C562.296 1483.67 547.373 1480.37 535.915 1487.35L516.969 1498.88C513.47 1501.02 508.988 1498.5 508.988 1494.4V1476C508.988 1463.57 519.062 1453.5 531.488 1453.5H551.456Z" fill="black"/>
<path d="M499.568 1520.9C491.823 1525.61 487.666 1534.52 489.024 1543.48L490.761 1554.95C492.186 1564.37 499.387 1571.87 508.738 1573.67L552.53 1582.14C557.08 1583.01 561.79 1582.47 566.017 1580.57L618.154 1557.16C624.311 1554.39 627.424 1547.45 625.398 1541.02C623.236 1534.15 616.003 1530.24 609.074 1532.2L568.628 1543.66C565.255 1544.61 561.707 1544.76 558.264 1544.1L546.991 1541.94C545.095 1541.58 543.52 1540.27 542.824 1538.46C541.955 1536.21 542.626 1533.66 544.489 1532.13L558.623 1520.5C564.675 1515.52 565.973 1506.77 561.626 1500.25C557.085 1493.43 547.979 1491.42 540.987 1495.67L499.568 1520.9Z" fill="black"/>
</g>
</g>
</g>
<g id="Black-M">
<g id="Solid / Delivery Solid_10">
<g id="Shape_10">
<path d="M2921.58 1038.5C2921.47 1039 2921.42 1039.51 2921.42 1040.04V1049.61C2921.42 1053.8 2924.81 1057.2 2929 1057.2C2933.19 1057.2 2936.59 1053.8 2936.59 1049.61V1040.04C2936.59 1039.51 2936.53 1039 2936.43 1038.5H2951.96C2961.62 1038.5 2969.46 1046.34 2969.46 1056V1087.6C2969.46 1089.88 2967.57 1091.67 2965.35 1092.16C2965.01 1092.24 2964.67 1092.32 2964.32 1092.42L2932.87 1101.32C2930.29 1101.32 2929.07 1098.41 2931.97 1096.47C2940.56 1090.92 2941.34 1078.96 2935.8 1070.65C2930.01 1061.97 2918.4 1059.4 2909.49 1064.83L2894.75 1073.8C2892.03 1075.46 2888.55 1073.5 2888.55 1070.31V1056C2888.55 1046.34 2896.38 1038.5 2906.05 1038.5H2921.58Z" fill="black"/>
<path d="M2881.22 1090.92C2875.2 1094.59 2871.96 1101.51 2873.02 1108.49L2874.37 1117.41C2875.48 1124.73 2881.08 1130.56 2888.35 1131.97L2922.41 1138.55C2925.95 1139.23 2929.61 1138.81 2932.9 1137.33L2973.45 1119.12C2978.24 1116.97 2980.66 1111.58 2979.09 1106.57C2977.41 1101.23 2971.78 1098.19 2966.39 1099.71L2934.93 1108.62C2932.31 1109.36 2929.55 1109.48 2926.87 1108.97L2918.1 1107.29C2916.63 1107.01 2915.4 1105.98 2914.86 1104.58C2914.19 1102.83 2914.71 1100.85 2916.16 1099.65L2927.15 1090.61C2931.86 1086.74 2932.87 1079.93 2929.49 1074.86C2925.95 1069.56 2918.87 1067.99 2913.43 1071.3L2881.22 1090.92Z" fill="black"/>
</g>
</g>
</g>
<g id="Heavy-M">
<g id="Solid / Delivery Solid_11">
<g id="Shape_11">
<path d="M2625.58 1038.5C2625.47 1039 2625.42 1039.51 2625.42 1040.04V1049.61C2625.42 1053.8 2628.81 1057.2 2633 1057.2C2637.19 1057.2 2640.59 1053.8 2640.59 1049.61V1040.04C2640.59 1039.51 2640.53 1039 2640.43 1038.5H2655.96C2665.62 1038.5 2673.46 1046.34 2673.46 1056V1087.6C2673.46 1089.88 2671.57 1091.67 2669.35 1092.16C2669.01 1092.24 2668.67 1092.32 2668.32 1092.42L2636.87 1101.32C2634.29 1101.32 2633.07 1098.41 2635.97 1096.47C2644.56 1090.92 2645.34 1078.96 2639.8 1070.65C2634.01 1061.97 2622.4 1059.4 2613.49 1064.83L2598.75 1073.8C2596.03 1075.46 2592.55 1073.5 2592.55 1070.31V1056C2592.55 1046.34 2600.38 1038.5 2610.05 1038.5H2625.58Z" fill="black"/>
<path d="M2585.22 1090.92C2579.2 1094.59 2575.96 1101.51 2577.02 1108.49L2578.37 1117.41C2579.48 1124.73 2585.08 1130.56 2592.35 1131.97L2626.41 1138.55C2629.95 1139.23 2633.61 1138.81 2636.9 1137.33L2677.45 1119.12C2682.24 1116.97 2684.66 1111.58 2683.09 1106.57C2681.41 1101.23 2675.78 1098.19 2670.39 1099.71L2638.93 1108.62C2636.31 1109.36 2633.55 1109.48 2630.87 1108.97L2622.1 1107.29C2620.63 1107.01 2619.4 1105.98 2618.86 1104.58C2618.19 1102.83 2618.71 1100.85 2620.16 1099.65L2631.15 1090.61C2635.86 1086.74 2636.87 1079.93 2633.49 1074.86C2629.95 1069.56 2622.87 1067.99 2617.43 1071.3L2585.22 1090.92Z" fill="black"/>
</g>
</g>
</g>
<g id="Bold-M">
<g id="Solid / Delivery Solid_12">
<g id="Shape_12">
<path d="M2329.58 1038.5C2329.47 1039 2329.42 1039.51 2329.42 1040.04V1049.61C2329.42 1053.8 2332.81 1057.2 2337 1057.2C2341.19 1057.2 2344.59 1053.8 2344.59 1049.61V1040.04C2344.59 1039.51 2344.53 1039 2344.43 1038.5H2359.96C2369.62 1038.5 2377.46 1046.34 2377.46 1056V1087.6C2377.46 1089.88 2375.57 1091.67 2373.35 1092.16C2373.01 1092.24 2372.67 1092.32 2372.32 1092.42L2340.87 1101.32C2338.29 1101.32 2337.07 1098.41 2339.97 1096.47C2348.56 1090.92 2349.34 1078.96 2343.8 1070.65C2338.01 1061.97 2326.4 1059.4 2317.49 1064.83L2302.75 1073.8C2300.03 1075.46 2296.55 1073.5 2296.55 1070.31V1056C2296.55 1046.34 2304.38 1038.5 2314.05 1038.5H2329.58Z" fill="black"/>
<path d="M2289.22 1090.92C2283.2 1094.59 2279.96 1101.51 2281.02 1108.49L2282.37 1117.41C2283.48 1124.73 2289.08 1130.56 2296.35 1131.97L2330.41 1138.55C2333.95 1139.23 2337.61 1138.81 2340.9 1137.33L2381.45 1119.12C2386.24 1116.97 2388.66 1111.58 2387.09 1106.57C2385.41 1101.23 2379.78 1098.19 2374.39 1099.71L2342.93 1108.62C2340.31 1109.36 2337.55 1109.48 2334.87 1108.97L2326.1 1107.29C2324.63 1107.01 2323.4 1105.98 2322.86 1104.58C2322.19 1102.83 2322.71 1100.85 2324.16 1099.65L2335.15 1090.61C2339.86 1086.74 2340.87 1079.93 2337.49 1074.86C2333.95 1069.56 2326.87 1067.99 2321.43 1071.3L2289.22 1090.92Z" fill="black"/>
</g>
</g>
</g>
<g id="Semibold-M">
<g id="Solid / Delivery Solid_13">
<g id="Shape_13">
<path d="M2033.58 1038.5C2033.47 1039 2033.42 1039.51 2033.42 1040.04V1049.61C2033.42 1053.8 2036.81 1057.2 2041 1057.2C2045.19 1057.2 2048.59 1053.8 2048.59 1049.61V1040.04C2048.59 1039.51 2048.53 1039 2048.43 1038.5H2063.96C2073.62 1038.5 2081.46 1046.34 2081.46 1056V1087.6C2081.46 1089.88 2079.57 1091.67 2077.35 1092.16C2077.01 1092.24 2076.67 1092.32 2076.32 1092.42L2044.87 1101.32C2042.29 1101.32 2041.07 1098.41 2043.97 1096.47C2052.56 1090.92 2053.34 1078.96 2047.8 1070.65C2042.01 1061.97 2030.4 1059.4 2021.49 1064.83L2006.75 1073.8C2004.03 1075.46 2000.55 1073.5 2000.55 1070.31V1056C2000.55 1046.34 2008.38 1038.5 2018.05 1038.5H2033.58Z" fill="black"/>
<path d="M1993.22 1090.92C1987.2 1094.59 1983.96 1101.51 1985.02 1108.49L1986.37 1117.41C1987.48 1124.73 1993.08 1130.56 2000.35 1131.97L2034.41 1138.55C2037.95 1139.23 2041.61 1138.81 2044.9 1137.33L2085.45 1119.12C2090.24 1116.97 2092.66 1111.58 2091.09 1106.57C2089.41 1101.23 2083.78 1098.19 2078.39 1099.71L2046.93 1108.62C2044.31 1109.36 2041.55 1109.48 2038.87 1108.97L2030.1 1107.29C2028.63 1107.01 2027.4 1105.98 2026.86 1104.58C2026.19 1102.83 2026.71 1100.85 2028.16 1099.65L2039.15 1090.61C2043.86 1086.74 2044.87 1079.93 2041.49 1074.86C2037.95 1069.56 2030.87 1067.99 2025.43 1071.3L1993.22 1090.92Z" fill="black"/>
</g>
</g>
</g>
<g id="Medium-M">
<g id="Solid / Delivery Solid_14">
<g id="Shape_14">
<path d="M1737.58 1038.5C1737.47 1039 1737.42 1039.51 1737.42 1040.04V1049.61C1737.42 1053.8 1740.81 1057.2 1745 1057.2C1749.19 1057.2 1752.59 1053.8 1752.59 1049.61V1040.04C1752.59 1039.51 1752.53 1039 1752.43 1038.5H1767.96C1777.62 1038.5 1785.46 1046.34 1785.46 1056V1087.6C1785.46 1089.88 1783.57 1091.67 1781.35 1092.16C1781.01 1092.24 1780.67 1092.32 1780.32 1092.42L1748.87 1101.32C1746.29 1101.32 1745.07 1098.41 1747.97 1096.47C1756.56 1090.92 1757.34 1078.96 1751.8 1070.65C1746.01 1061.97 1734.4 1059.4 1725.49 1064.83L1710.75 1073.8C1708.03 1075.46 1704.55 1073.5 1704.55 1070.31V1056C1704.55 1046.34 1712.38 1038.5 1722.05 1038.5H1737.58Z" fill="black"/>
<path d="M1697.22 1090.92C1691.2 1094.59 1687.96 1101.51 1689.02 1108.49L1690.37 1117.41C1691.48 1124.73 1697.08 1130.56 1704.35 1131.97L1738.41 1138.55C1741.95 1139.23 1745.61 1138.81 1748.9 1137.33L1789.45 1119.12C1794.24 1116.97 1796.66 1111.58 1795.09 1106.57C1793.41 1101.23 1787.78 1098.19 1782.39 1099.71L1750.93 1108.62C1748.31 1109.36 1745.55 1109.48 1742.87 1108.97L1734.1 1107.29C1732.63 1107.01 1731.4 1105.98 1730.86 1104.58C1730.19 1102.83 1730.71 1100.85 1732.16 1099.65L1743.15 1090.61C1747.86 1086.74 1748.87 1079.93 1745.49 1074.86C1741.95 1069.56 1734.87 1067.99 1729.43 1071.3L1697.22 1090.92Z" fill="black"/>
</g>
</g>
</g>
<g id="Regular-M">
<g id="Solid / Delivery Solid_15">
<g id="Shape_15">
<path d="M1441.58 1038.5C1441.47 1039 1441.42 1039.51 1441.42 1040.04V1049.61C1441.42 1053.8 1444.81 1057.2 1449 1057.2C1453.19 1057.2 1456.59 1053.8 1456.59 1049.61V1040.04C1456.59 1039.51 1456.53 1039 1456.43 1038.5H1471.96C1481.62 1038.5 1489.46 1046.34 1489.46 1056V1087.6C1489.46 1089.88 1487.57 1091.67 1485.35 1092.16C1485.01 1092.24 1484.67 1092.32 1484.32 1092.42L1452.87 1101.32C1450.29 1101.32 1449.07 1098.41 1451.97 1096.47C1460.56 1090.92 1461.34 1078.96 1455.8 1070.65C1450.01 1061.97 1438.4 1059.4 1429.49 1064.83L1414.75 1073.8C1412.03 1075.46 1408.55 1073.5 1408.55 1070.31V1056C1408.55 1046.34 1416.38 1038.5 1426.05 1038.5H1441.58Z" fill="black"/>
<path d="M1401.22 1090.92C1395.2 1094.59 1391.96 1101.51 1393.02 1108.49L1394.37 1117.41C1395.48 1124.73 1401.08 1130.56 1408.35 1131.97L1442.41 1138.55C1445.95 1139.23 1449.61 1138.81 1452.9 1137.33L1493.45 1119.12C1498.24 1116.97 1500.66 1111.58 1499.09 1106.57C1497.41 1101.23 1491.78 1098.19 1486.39 1099.71L1454.93 1108.62C1452.31 1109.36 1449.55 1109.48 1446.87 1108.97L1438.1 1107.29C1436.63 1107.01 1435.4 1105.98 1434.86 1104.58C1434.19 1102.83 1434.71 1100.85 1436.16 1099.65L1447.15 1090.61C1451.86 1086.74 1452.87 1079.93 1449.49 1074.86C1445.95 1069.56 1438.87 1067.99 1433.43 1071.3L1401.22 1090.92Z" fill="black"/>
</g>
</g>
</g>
<g id="Light-M">
<g id="Solid / Delivery Solid_16">
<g id="Shape_16">
<path d="M1145.58 1038.5C1145.47 1039 1145.42 1039.51 1145.42 1040.04V1049.61C1145.42 1053.8 1148.81 1057.2 1153 1057.2C1157.19 1057.2 1160.59 1053.8 1160.59 1049.61V1040.04C1160.59 1039.51 1160.53 1039 1160.43 1038.5H1175.96C1185.62 1038.5 1193.46 1046.34 1193.46 1056V1087.6C1193.46 1089.88 1191.57 1091.67 1189.35 1092.16C1189.01 1092.24 1188.67 1092.32 1188.32 1092.42L1156.87 1101.32C1154.29 1101.32 1153.07 1098.41 1155.97 1096.47C1164.56 1090.92 1165.34 1078.96 1159.8 1070.65C1154.01 1061.97 1142.4 1059.4 1133.49 1064.83L1118.75 1073.8C1116.03 1075.46 1112.55 1073.5 1112.55 1070.31V1056C1112.55 1046.34 1120.38 1038.5 1130.05 1038.5H1145.58Z" fill="black"/>
<path d="M1105.22 1090.92C1099.2 1094.59 1095.96 1101.51 1097.02 1108.49L1098.37 1117.41C1099.48 1124.73 1105.08 1130.56 1112.35 1131.97L1146.41 1138.55C1149.95 1139.23 1153.61 1138.81 1156.9 1137.33L1197.45 1119.12C1202.24 1116.97 1204.66 1111.58 1203.09 1106.57C1201.41 1101.23 1195.78 1098.19 1190.39 1099.71L1158.93 1108.62C1156.31 1109.36 1153.55 1109.48 1150.87 1108.97L1142.1 1107.29C1140.63 1107.01 1139.4 1105.98 1138.86 1104.58C1138.19 1102.83 1138.71 1100.85 1140.16 1099.65L1151.15 1090.61C1155.86 1086.74 1156.87 1079.93 1153.49 1074.86C1149.95 1069.56 1142.87 1067.99 1137.43 1071.3L1105.22 1090.92Z" fill="black"/>
</g>
</g>
</g>
<g id="Thin-M">
<g id="Solid / Delivery Solid_17">
<g id="Shape_17">
<path d="M849.576 1038.5C849.473 1039 849.419 1039.51 849.419 1040.04V1049.61C849.419 1053.8 852.815 1057.2 857.003 1057.2C861.191 1057.2 864.586 1053.8 864.586 1049.61V1040.04C864.586 1039.51 864.532 1039 864.429 1038.5H879.959C889.624 1038.5 897.459 1046.34 897.459 1056V1087.6C897.459 1089.88 895.574 1091.67 893.351 1092.16C893.009 1092.24 892.666 1092.32 892.324 1092.42L860.866 1101.32C858.292 1101.32 857.073 1098.41 859.968 1096.47C868.56 1090.92 869.337 1078.96 863.795 1070.65C858.007 1061.97 846.401 1059.4 837.489 1064.83L822.753 1073.8C820.032 1075.46 816.546 1073.5 816.546 1070.31V1056C816.546 1046.34 824.381 1038.5 834.046 1038.5H849.576Z" fill="black"/>
<path d="M809.219 1090.92C803.195 1094.59 799.962 1101.51 801.018 1108.49L802.369 1117.41C803.478 1124.73 809.078 1130.56 816.352 1131.97L850.412 1138.55C853.951 1139.23 857.614 1138.81 860.902 1137.33L901.452 1119.12C906.241 1116.97 908.663 1111.58 907.087 1106.57C905.405 1101.23 899.78 1098.19 894.391 1099.71L862.932 1108.62C860.309 1109.36 857.549 1109.48 854.872 1108.97L846.104 1107.29C844.629 1107.01 843.404 1105.98 842.863 1104.58C842.187 1102.83 842.709 1100.85 844.158 1099.65L855.151 1090.61C859.858 1086.74 860.868 1079.93 857.486 1074.86C853.954 1069.56 846.872 1067.99 841.434 1071.3L809.219 1090.92Z" fill="black"/>
</g>
</g>
</g>
<g id="Ultralight-M">
<g id="Solid / Delivery Solid_18">
<g id="Shape_18">
<path d="M553.576 1038.5C553.473 1039 553.419 1039.51 553.419 1040.04V1049.61C553.419 1053.8 556.815 1057.2 561.003 1057.2C565.191 1057.2 568.586 1053.8 568.586 1049.61V1040.04C568.586 1039.51 568.532 1039 568.429 1038.5H583.959C593.624 1038.5 601.459 1046.34 601.459 1056V1087.6C601.459 1089.88 599.574 1091.67 597.351 1092.16C597.009 1092.24 596.666 1092.32 596.324 1092.42L564.866 1101.32C562.292 1101.32 561.073 1098.41 563.968 1096.47C572.56 1090.92 573.337 1078.96 567.795 1070.65C562.007 1061.97 550.401 1059.4 541.489 1064.83L526.753 1073.8C524.032 1075.46 520.546 1073.5 520.546 1070.31V1056C520.546 1046.34 528.381 1038.5 538.046 1038.5H553.576Z" fill="black"/>
<path d="M513.219 1090.92C507.195 1094.59 503.962 1101.51 505.018 1108.49L506.369 1117.41C507.478 1124.73 513.078 1130.56 520.352 1131.97L554.412 1138.55C557.951 1139.23 561.614 1138.81 564.902 1137.33L605.452 1119.12C610.241 1116.97 612.663 1111.58 611.087 1106.57C609.405 1101.23 603.78 1098.19 598.391 1099.71L566.932 1108.62C564.309 1109.36 561.549 1109.48 558.872 1108.97L550.104 1107.29C548.629 1107.01 547.404 1105.98 546.863 1104.58C546.187 1102.83 546.709 1100.85 548.158 1099.65L559.151 1090.61C563.858 1086.74 564.868 1079.93 561.486 1074.86C557.954 1069.56 550.872 1067.99 545.434 1071.3L513.219 1090.92Z" fill="black"/>
</g>
</g>
</g>
<g id="Black-S">
<g id="Solid / Delivery Solid_19">
<g id="Shape_19">
<path d="M2923.7 623.5C2923.62 623.856 2923.58 624.225 2923.58 624.602V631.439C2923.58 634.43 2926.01 636.855 2929 636.855C2931.99 636.855 2934.42 634.43 2934.42 631.439V624.602C2934.42 624.225 2934.38 623.856 2934.31 623.5H2945.4C2952.3 623.5 2957.9 629.096 2957.9 636V658.57C2957.9 660.197 2956.55 661.477 2954.96 661.828C2954.72 661.882 2954.48 661.944 2954.23 662.013L2931.76 668.375C2929.92 668.375 2929.05 666.29 2931.12 664.905C2937.26 660.943 2937.81 652.402 2933.85 646.465C2929.72 640.264 2921.43 638.428 2915.06 642.304L2904.54 648.714C2902.59 649.897 2900.1 648.498 2900.1 646.223V636C2900.1 629.096 2905.7 623.5 2912.6 623.5H2923.7Z" fill="black"/>
<path d="M2894.87 660.943C2890.57 663.563 2888.26 668.51 2889.01 673.49L2889.98 679.862C2890.77 685.093 2894.77 689.259 2899.96 690.263L2924.29 694.964C2926.82 695.453 2929.44 695.149 2931.79 694.094L2960.75 681.086C2964.17 679.55 2965.9 675.697 2964.78 672.12C2963.57 668.304 2959.56 666.135 2955.71 667.225L2933.24 673.586C2931.36 674.117 2929.39 674.202 2927.48 673.836L2921.22 672.636C2920.16 672.434 2919.29 671.703 2918.9 670.702C2918.42 669.452 2918.79 668.033 2919.83 667.182L2927.68 660.722C2931.04 657.956 2931.76 653.092 2929.35 649.469C2926.82 645.685 2921.77 644.565 2917.88 646.931L2894.87 660.943Z" fill="black"/>
</g>
</g>
</g>
<g id="Heavy-S">
<g id="Solid / Delivery Solid_20">
<g id="Shape_20">
<path d="M2627.7 623.5C2627.62 623.856 2627.58 624.225 2627.58 624.602V631.439C2627.58 634.43 2630.01 636.855 2633 636.855C2635.99 636.855 2638.42 634.43 2638.42 631.439V624.602C2638.42 624.225 2638.38 623.856 2638.31 623.5H2649.4C2656.3 623.5 2661.9 629.096 2661.9 636V658.57C2661.9 660.197 2660.55 661.477 2658.96 661.828C2658.72 661.882 2658.48 661.944 2658.23 662.013L2635.76 668.375C2633.92 668.375 2633.05 666.29 2635.12 664.905C2641.26 660.943 2641.81 652.402 2637.85 646.465C2633.72 640.264 2625.43 638.428 2619.06 642.304L2608.54 648.714C2606.59 649.897 2604.1 648.498 2604.1 646.223V636C2604.1 629.096 2609.7 623.5 2616.6 623.5H2627.7Z" fill="black"/>
<path d="M2598.87 660.943C2594.57 663.563 2592.26 668.51 2593.01 673.49L2593.98 679.862C2594.77 685.093 2598.77 689.259 2603.96 690.263L2628.29 694.964C2630.82 695.453 2633.44 695.149 2635.79 694.094L2664.75 681.086C2668.17 679.55 2669.9 675.697 2668.78 672.12C2667.57 668.304 2663.56 666.135 2659.71 667.225L2637.24 673.586C2635.36 674.117 2633.39 674.202 2631.48 673.836L2625.22 672.636C2624.16 672.434 2623.29 671.703 2622.9 670.702C2622.42 669.452 2622.79 668.033 2623.83 667.182L2631.68 660.722C2635.04 657.956 2635.76 653.092 2633.35 649.469C2630.82 645.685 2625.77 644.565 2621.88 646.931L2598.87 660.943Z" fill="black"/>
</g>
</g>
</g>
<g id="Bold-S">
<g id="Solid / Delivery Solid_21">
<g id="Shape_21">
<path d="M2331.7 623.5C2331.62 623.856 2331.58 624.225 2331.58 624.602V631.439C2331.58 634.43 2334.01 636.855 2337 636.855C2339.99 636.855 2342.42 634.43 2342.42 631.439V624.602C2342.42 624.225 2342.38 623.856 2342.31 623.5H2353.4C2360.3 623.5 2365.9 629.096 2365.9 636V658.57C2365.9 660.197 2364.55 661.477 2362.96 661.828C2362.72 661.882 2362.48 661.944 2362.23 662.013L2339.76 668.375C2337.92 668.375 2337.05 666.29 2339.12 664.905C2345.26 660.943 2345.81 652.402 2341.85 646.465C2337.72 640.264 2329.43 638.428 2323.06 642.304L2312.54 648.714C2310.59 649.897 2308.1 648.498 2308.1 646.223V636C2308.1 629.096 2313.7 623.5 2320.6 623.5H2331.7Z" fill="black"/>
<path d="M2302.87 660.943C2298.57 663.563 2296.26 668.51 2297.01 673.49L2297.98 679.862C2298.77 685.093 2302.77 689.259 2307.96 690.263L2332.29 694.964C2334.82 695.453 2337.44 695.149 2339.79 694.094L2368.75 681.086C2372.17 679.55 2373.9 675.697 2372.78 672.12C2371.57 668.304 2367.56 666.135 2363.71 667.225L2341.24 673.586C2339.36 674.117 2337.39 674.202 2335.48 673.836L2329.22 672.636C2328.16 672.434 2327.29 671.703 2326.9 670.702C2326.42 669.452 2326.79 668.033 2327.83 667.182L2335.68 660.722C2339.04 657.956 2339.76 653.092 2337.35 649.469C2334.82 645.685 2329.77 644.565 2325.88 646.931L2302.87 660.943Z" fill="black"/>
</g>
</g>
</g>
<g id="Semibold-S">
<g id="Solid / Delivery Solid_22">
<g id="Shape_22">
<path d="M2035.7 623.5C2035.62 623.856 2035.58 624.225 2035.58 624.602V631.439C2035.58 634.43 2038.01 636.855 2041 636.855C2043.99 636.855 2046.42 634.43 2046.42 631.439V624.602C2046.42 624.225 2046.38 623.856 2046.31 623.5H2057.4C2064.3 623.5 2069.9 629.096 2069.9 636V658.57C2069.9 660.197 2068.55 661.477 2066.96 661.828C2066.72 661.882 2066.48 661.944 2066.23 662.013L2043.76 668.375C2041.92 668.375 2041.05 666.29 2043.12 664.905C2049.26 660.943 2049.81 652.402 2045.85 646.465C2041.72 640.264 2033.43 638.428 2027.06 642.304L2016.54 648.714C2014.59 649.897 2012.1 648.498 2012.1 646.223V636C2012.1 629.096 2017.7 623.5 2024.6 623.5H2035.7Z" fill="black"/>
<path d="M2006.87 660.943C2002.57 663.563 2000.26 668.51 2001.01 673.49L2001.98 679.862C2002.77 685.093 2006.77 689.259 2011.96 690.263L2036.29 694.964C2038.82 695.453 2041.44 695.149 2043.79 694.094L2072.75 681.086C2076.17 679.55 2077.9 675.697 2076.78 672.12C2075.57 668.304 2071.56 666.135 2067.71 667.225L2045.24 673.586C2043.36 674.117 2041.39 674.202 2039.48 673.836L2033.22 672.636C2032.16 672.434 2031.29 671.703 2030.9 670.702C2030.42 669.452 2030.79 668.033 2031.83 667.182L2039.68 660.722C2043.04 657.956 2043.76 653.092 2041.35 649.469C2038.82 645.685 2033.77 644.565 2029.88 646.931L2006.87 660.943Z" fill="black"/>
</g>
</g>
</g>
<g id="Medium-S">
<g id="Solid / Delivery Solid_23">
<g id="Shape_23">
<path d="M1739.7 623.5C1739.62 623.856 1739.58 624.225 1739.58 624.602V631.439C1739.58 634.43 1742.01 636.855 1745 636.855C1747.99 636.855 1750.42 634.43 1750.42 631.439V624.602C1750.42 624.225 1750.38 623.856 1750.31 623.5H1761.4C1768.3 623.5 1773.9 629.096 1773.9 636V658.57C1773.9 660.197 1772.55 661.477 1770.96 661.828C1770.72 661.882 1770.48 661.944 1770.23 662.013L1747.76 668.375C1745.92 668.375 1745.05 666.29 1747.12 664.905C1753.26 660.943 1753.81 652.402 1749.85 646.465C1745.72 640.264 1737.43 638.428 1731.06 642.304L1720.54 648.714C1718.59 649.897 1716.1 648.498 1716.1 646.223V636C1716.1 629.096 1721.7 623.5 1728.6 623.5H1739.7Z" fill="black"/>
<path d="M1710.87 660.943C1706.57 663.563 1704.26 668.51 1705.01 673.49L1705.98 679.862C1706.77 685.093 1710.77 689.259 1715.96 690.263L1740.29 694.964C1742.82 695.453 1745.44 695.149 1747.79 694.094L1776.75 681.086C1780.17 679.55 1781.9 675.697 1780.78 672.12C1779.57 668.304 1775.56 666.135 1771.71 667.225L1749.24 673.586C1747.36 674.117 1745.39 674.202 1743.48 673.836L1737.22 672.636C1736.16 672.434 1735.29 671.703 1734.9 670.702C1734.42 669.452 1734.79 668.033 1735.83 667.182L1743.68 660.722C1747.04 657.956 1747.76 653.092 1745.35 649.469C1742.82 645.685 1737.77 644.565 1733.88 646.931L1710.87 660.943Z" fill="black"/>
</g>
</g>
</g>
<g id="Regular-S">
<g id="Solid / Delivery Solid_24">
<g id="Shape_24">
<path d="M1443.7 623.5C1443.62 623.856 1443.58 624.225 1443.58 624.602V631.439C1443.58 634.43 1446.01 636.855 1449 636.855C1451.99 636.855 1454.42 634.43 1454.42 631.439V624.602C1454.42 624.225 1454.38 623.856 1454.31 623.5H1465.4C1472.3 623.5 1477.9 629.096 1477.9 636V658.57C1477.9 660.197 1476.55 661.477 1474.96 661.828C1474.72 661.882 1474.48 661.944 1474.23 662.013L1451.76 668.375C1449.92 668.375 1449.05 666.29 1451.12 664.905C1457.26 660.943 1457.81 652.402 1453.85 646.465C1449.72 640.264 1441.43 638.428 1435.06 642.304L1424.54 648.714C1422.59 649.897 1420.1 648.498 1420.1 646.223V636C1420.1 629.096 1425.7 623.5 1432.6 623.5H1443.7Z" fill="black"/>
<path d="M1414.87 660.943C1410.57 663.563 1408.26 668.51 1409.01 673.49L1409.98 679.862C1410.77 685.093 1414.77 689.259 1419.96 690.263L1444.29 694.964C1446.82 695.453 1449.44 695.149 1451.79 694.094L1480.75 681.086C1484.17 679.55 1485.9 675.697 1484.78 672.12C1483.57 668.304 1479.56 666.135 1475.71 667.225L1453.24 673.586C1451.36 674.117 1449.39 674.202 1447.48 673.836L1441.22 672.636C1440.16 672.434 1439.29 671.703 1438.9 670.702C1438.42 669.452 1438.79 668.033 1439.83 667.182L1447.68 660.722C1451.04 657.956 1451.76 653.092 1449.35 649.469C1446.82 645.685 1441.77 644.565 1437.88 646.931L1414.87 660.943Z" fill="black"/>
</g>
</g>
</g>
<g id="Light-S">
<g id="Solid / Delivery Solid_25">
<g id="Shape_25">
<path d="M1147.7 623.5C1147.62 623.856 1147.58 624.225 1147.58 624.602V631.439C1147.58 634.43 1150.01 636.855 1153 636.855C1155.99 636.855 1158.42 634.43 1158.42 631.439V624.602C1158.42 624.225 1158.38 623.856 1158.31 623.5H1169.4C1176.3 623.5 1181.9 629.096 1181.9 636V658.57C1181.9 660.197 1180.55 661.477 1178.96 661.828C1178.72 661.882 1178.48 661.944 1178.23 662.013L1155.76 668.375C1153.92 668.375 1153.05 666.29 1155.12 664.905C1161.26 660.943 1161.81 652.402 1157.85 646.465C1153.72 640.264 1145.43 638.428 1139.06 642.304L1128.54 648.714C1126.59 649.897 1124.1 648.498 1124.1 646.223V636C1124.1 629.096 1129.7 623.5 1136.6 623.5H1147.7Z" fill="black"/>
<path d="M1118.87 660.943C1114.57 663.563 1112.26 668.51 1113.01 673.49L1113.98 679.862C1114.77 685.093 1118.77 689.259 1123.96 690.263L1148.29 694.964C1150.82 695.453 1153.44 695.149 1155.79 694.094L1184.75 681.086C1188.17 679.55 1189.9 675.697 1188.78 672.12C1187.57 668.304 1183.56 666.135 1179.71 667.225L1157.24 673.586C1155.36 674.117 1153.39 674.202 1151.48 673.836L1145.22 672.636C1144.16 672.434 1143.29 671.703 1142.9 670.702C1142.42 669.452 1142.79 668.033 1143.83 667.182L1151.68 660.722C1155.04 657.956 1155.76 653.092 1153.35 649.469C1150.82 645.685 1145.77 644.565 1141.88 646.931L1118.87 660.943Z" fill="black"/>
</g>
</g>
</g>
<g id="Thin-S">
<g id="Solid / Delivery Solid_26">
<g id="Shape_26">
<path d="M851.697 623.5C851.623 623.856 851.585 624.225 851.585 624.602V631.439C851.585 634.43 854.01 636.855 857.001 636.855C859.993 636.855 862.418 634.43 862.418 631.439V624.602C862.418 624.225 862.379 623.856 862.306 623.5H873.399C880.303 623.5 885.899 629.096 885.899 636V658.57C885.899 660.197 884.552 661.477 882.965 661.828C882.72 661.882 882.475 661.944 882.231 662.013L859.761 668.375C857.922 668.375 857.052 666.29 859.119 664.905C865.256 660.943 865.811 652.402 861.853 646.465C857.719 640.264 849.429 638.428 843.063 642.304L832.537 648.714C830.594 649.897 828.104 648.498 828.104 646.223V636C828.104 629.096 833.7 623.5 840.604 623.5H851.697Z" fill="black"/>
<path d="M822.87 660.943C818.568 663.563 816.258 668.51 817.012 673.49L817.977 679.862C818.769 685.093 822.77 689.259 827.965 690.263L852.294 694.964C854.821 695.453 857.438 695.149 859.786 694.094L888.751 681.086C892.172 679.55 893.901 675.697 892.776 672.12C891.574 668.304 887.556 666.135 883.707 667.225L861.237 673.586C859.363 674.117 857.392 674.202 855.479 673.836L849.216 672.636C848.163 672.434 847.288 671.703 846.901 670.702C846.419 669.452 846.791 668.033 847.826 667.182L855.679 660.722C859.041 657.956 859.762 653.092 857.347 649.469C854.824 645.685 849.765 644.565 845.881 646.931L822.87 660.943Z" fill="black"/>
</g>
</g>
</g>
<g id="Ultralight-S">
<g id="Solid / Delivery Solid_27">
<g id="Shape_27">
<path d="M555.697 623.5C555.623 623.856 555.585 624.225 555.585 624.602V631.439C555.585 634.43 558.01 636.855 561.001 636.855C563.993 636.855 566.418 634.43 566.418 631.439V624.602C566.418 624.225 566.379 623.856 566.306 623.5H577.399C584.303 623.5 589.899 629.096 589.899 636V658.57C589.899 660.197 588.552 661.477 586.965 661.828C586.72 661.882 586.475 661.944 586.231 662.013L563.761 668.375C561.922 668.375 561.052 666.29 563.119 664.905C569.256 660.943 569.811 652.402 565.853 646.465C561.719 640.264 553.429 638.428 547.063 642.304L536.537 648.714C534.594 649.897 532.104 648.498 532.104 646.223V636C532.104 629.096 537.7 623.5 544.604 623.5H555.697Z" fill="black"/>
<path d="M526.87 660.943C522.568 663.563 520.258 668.51 521.012 673.49L521.977 679.862C522.769 685.093 526.77 689.259 531.965 690.263L556.294 694.964C558.821 695.453 561.438 695.149 563.786 694.094L592.751 681.086C596.172 679.55 597.901 675.697 596.776 672.12C595.574 668.304 591.556 666.135 587.707 667.225L565.237 673.586C563.363 674.117 561.392 674.202 559.479 673.836L553.216 672.636C552.163 672.434 551.288 671.703 550.901 670.702C550.419 669.452 550.791 668.033 551.826 667.182L559.679 660.722C563.041 657.956 563.762 653.092 561.347 649.469C558.824 645.685 553.765 644.565 549.881 646.931L526.87 660.943Z" fill="black"/>
</g>
</g>
</g>
</g>
</g>
<defs>
<clipPath id="clip0_0_1">
<rect width="3300" height="2200" fill="white"/>
</clipPath>
</defs>
</svg>
