<svg width="3300" height="2200" viewBox="0 0 3300 2200" fill="none" xmlns="http://www.w3.org/2000/svg">
<rect width="3300" height="2200" fill="#E5E5E5"/>
<g id="System / Solid / To Customer" clip-path="url(#clip0_805_27002)">
<g id="Notes">
<path id="artboard" d="M3300 0H0V2200H3300V0Z" fill="white"/>
<path id="Vector" d="M263 292H3036" stroke="black" stroke-width="0.5"/>
<text id="Weight/Scale Variations" fill="black" xml:space="preserve" style="white-space: pre" font-family="Roboto" font-size="12" letter-spacing="0em"><tspan x="263" y="321.102">Weight/Scale Variations</tspan></text>
<text id="Ultralight" fill="black" xml:space="preserve" style="white-space: pre" font-family="Roboto" font-size="12" letter-spacing="0em"><tspan x="535.211" y="321.102">Ultralight</tspan></text>
<text id="Thin" fill="black" xml:space="preserve" style="white-space: pre" font-family="Roboto" font-size="12" letter-spacing="0em"><tspan x="844.422" y="321.102">Thin</tspan></text>
<text id="Light" fill="black" xml:space="preserve" style="white-space: pre" font-family="Roboto" font-size="12" letter-spacing="0em"><tspan x="1139.63" y="321.102">Light</tspan></text>
<text id="Regular" fill="black" xml:space="preserve" style="white-space: pre" font-family="Roboto" font-size="12" letter-spacing="0em"><tspan x="1429.34" y="321.102">Regular</tspan></text>
<text id="Medium" fill="black" xml:space="preserve" style="white-space: pre" font-family="Roboto" font-size="12" letter-spacing="0em"><tspan x="1724.56" y="321.102">Medium</tspan></text>
<text id="Semibold" fill="black" xml:space="preserve" style="white-space: pre" font-family="Roboto" font-size="12" letter-spacing="0em"><tspan x="2017.77" y="321.102">Semibold</tspan></text>
<text id="Bold" fill="black" xml:space="preserve" style="white-space: pre" font-family="Roboto" font-size="12" letter-spacing="0em"><tspan x="2327.48" y="321.102">Bold</tspan></text>
<text id="Heavy" fill="black" xml:space="preserve" style="white-space: pre" font-family="Roboto" font-size="12" letter-spacing="0em"><tspan x="2620.19" y="321.102">Heavy</tspan></text>
<text id="Black" fill="black" xml:space="preserve" style="white-space: pre" font-family="Roboto" font-size="12" letter-spacing="0em"><tspan x="2918.4" y="321.102">Black</tspan></text>
<path id="Vector_2" d="M263 1903H3036" stroke="black" stroke-width="0.5"/>
<g id="Group">
<path id="Vector_3" d="M272.248 1933.83C276.555 1933.83 280.139 1930.26 280.139 1925.95C280.139 1921.64 276.545 1918.07 272.238 1918.07C267.941 1918.07 264.367 1921.64 264.367 1925.95C264.367 1930.26 267.951 1933.83 272.248 1933.83ZM272.248 1932.35C268.703 1932.35 265.871 1929.5 265.871 1925.95C265.871 1922.39 268.693 1919.55 272.238 1919.55C275.793 1919.55 278.635 1922.39 278.644 1925.95C278.654 1929.5 275.803 1932.35 272.248 1932.35ZM272.229 1929.57C272.697 1929.57 272.971 1929.26 272.971 1928.74V1926.68H275.197C275.695 1926.68 276.037 1926.43 276.037 1925.96C276.037 1925.48 275.715 1925.22 275.197 1925.22H272.971V1922.99C272.971 1922.47 272.697 1922.15 272.229 1922.15C271.76 1922.15 271.506 1922.49 271.506 1922.99V1925.22H269.299C268.781 1925.22 268.449 1925.48 268.449 1925.96C268.449 1926.43 268.801 1926.68 269.299 1926.68H271.506V1928.74C271.506 1929.24 271.76 1929.57 272.229 1929.57Z" fill="black"/>
</g>
<g id="Group_2">
<path id="Vector_4" d="M293.215 1935.91C298.664 1935.91 303.176 1931.4 303.176 1925.95C303.176 1920.51 298.654 1915.99 293.205 1915.99C287.766 1915.99 283.254 1920.51 283.254 1925.95C283.254 1931.4 287.775 1935.91 293.215 1935.91ZM293.215 1934.25C288.605 1934.25 284.924 1930.56 284.924 1925.95C284.924 1921.35 288.596 1917.65 293.205 1917.65C297.814 1917.65 301.506 1921.35 301.516 1925.95C301.525 1930.56 297.824 1934.25 293.215 1934.25ZM293.195 1930.59C293.713 1930.59 294.025 1930.23 294.025 1929.66V1926.77H297.082C297.629 1926.77 298.01 1926.49 298.01 1925.97C298.01 1925.44 297.648 1925.14 297.082 1925.14H294.025V1922.07C294.025 1921.5 293.713 1921.14 293.195 1921.14C292.678 1921.14 292.385 1921.52 292.385 1922.07V1925.14H289.338C288.771 1925.14 288.4 1925.44 288.4 1925.97C288.4 1926.49 288.791 1926.77 289.338 1926.77H292.385V1929.66C292.385 1930.21 292.678 1930.59 293.195 1930.59Z" fill="black"/>
</g>
<g id="Group_3">
<path id="Vector_5" d="M319.895 1938.67C326.857 1938.67 332.619 1932.92 332.619 1925.96C332.619 1919 326.848 1913.24 319.885 1913.24C312.932 1913.24 307.18 1919 307.18 1925.96C307.18 1932.92 312.941 1938.67 319.895 1938.67ZM319.895 1936.86C313.859 1936.86 309.006 1931.99 309.006 1925.96C309.006 1919.92 313.85 1915.06 319.885 1915.06C325.93 1915.06 330.783 1919.92 330.793 1925.96C330.803 1931.99 325.939 1936.86 319.895 1936.86ZM319.875 1931.94C320.441 1931.94 320.793 1931.54 320.793 1930.94V1926.87H325.031C325.617 1926.87 326.037 1926.54 326.037 1925.98C326.037 1925.4 325.647 1925.06 325.031 1925.06H320.793V1920.81C320.793 1920.2 320.441 1919.81 319.875 1919.81C319.309 1919.81 318.986 1920.22 318.986 1920.81V1925.06H314.758C314.143 1925.06 313.732 1925.4 313.732 1925.98C313.732 1926.54 314.162 1926.87 314.758 1926.87H318.986V1930.94C318.986 1931.53 319.309 1931.94 319.875 1931.94Z" fill="black"/>
</g>
<text id="Design Variations" fill="black" xml:space="preserve" style="white-space: pre" font-family="Roboto" font-size="12" letter-spacing="0em"><tspan x="263" y="1952.1">Design Variations</tspan></text>
<text id="Symbols are supported in up to nine weights and three scales." fill="black" xml:space="preserve" style="white-space: pre" font-family="Roboto" font-size="12" letter-spacing="0em"><tspan x="263" y="1970.1">Symbols are supported in up to nine weights and three scales.</tspan></text>
<text id="For optimal layout with text and other symbols, vertically align" fill="black" xml:space="preserve" style="white-space: pre" font-family="Roboto" font-size="12" letter-spacing="0em"><tspan x="263" y="1988.1">For optimal layout with text and other symbols, vertically align</tspan></text>
<text id="symbols with the adjacent text." fill="black" xml:space="preserve" style="white-space: pre" font-family="Roboto" font-size="12" letter-spacing="0em"><tspan x="263" y="2006.1">symbols with the adjacent text.</tspan></text>
<path id="Vector_6" opacity="0.4" d="M779 1919H776V1933H779V1919Z" fill="#00AEEF"/>
<g id="Group_4">
<path id="Vector_7" d="M789.525 1933H791.371L786.176 1918.91H784.437L779.242 1933H781.088L782.504 1928.97H788.109L789.525 1933ZM785.277 1921.05H785.336L787.592 1927.47H783.021L785.277 1921.05Z" fill="black"/>
</g>
<path id="Vector_8" opacity="0.4" d="M794.617 1919H791.617V1933H794.617V1919Z" fill="#00AEEF"/>
<text id="Margins" fill="black" xml:space="preserve" style="white-space: pre" font-family="Roboto" font-size="12" letter-spacing="0em"><tspan x="776" y="1952.1">Margins</tspan></text>
<text id="Leading and trailing margins on the left and right side of each symbol" fill="black" xml:space="preserve" style="white-space: pre" font-family="Roboto" font-size="12" letter-spacing="0em"><tspan x="776" y="1970.1">Leading and trailing margins on the left and right side of each symbol</tspan></text>
<text id="can be adjusted by modifying the width of the blue rectangles." fill="black" xml:space="preserve" style="white-space: pre" font-family="Roboto" font-size="12" letter-spacing="0em"><tspan x="776" y="1988.1">can be adjusted by modifying the width of the blue rectangles.</tspan></text>
<text id="Modifications are automatically applied proportionally to all" fill="black" xml:space="preserve" style="white-space: pre" font-family="Roboto" font-size="12" letter-spacing="0em"><tspan x="776" y="2006.1">Modifications are automatically applied proportionally to all</tspan></text>
<text id="scales and weights." fill="black" xml:space="preserve" style="white-space: pre" font-family="Roboto" font-size="12" letter-spacing="0em"><tspan x="776" y="2024.1">scales and weights.</tspan></text>
<g id="Group_5">
<path id="Vector_9" d="M1291.83 1936.11L1293.37 1937.66C1294.22 1938.49 1295.19 1938.42 1296.06 1937.46L1306.27 1926.34C1306.7 1926.63 1307.1 1926.62 1307.56 1926.52L1308.61 1926.31L1309.3 1927L1309.25 1927.52C1309.19 1928.05 1309.35 1928.47 1309.85 1928.97L1310.66 1929.78C1311.17 1930.28 1311.82 1930.31 1312.3 1929.83L1315.55 1926.58C1316.03 1926.1 1316.01 1925.45 1315.5 1924.94L1314.68 1924.12C1314.19 1923.62 1313.77 1923.45 1313.24 1923.53L1312.71 1923.58L1312.06 1922.92L1312.34 1921.78C1312.49 1921.21 1312.34 1920.74 1311.71 1920.14L1309.3 1917.75C1305.76 1914.22 1301.23 1914.33 1298.11 1917.46C1297.69 1917.89 1297.64 1918.48 1297.92 1918.91C1298.15 1919.28 1298.63 1919.5 1299.27 1919.34C1300.79 1918.96 1302.3 1919.07 1303.78 1920.08L1303.16 1921.66C1302.93 1922.25 1302.94 1922.73 1303.18 1923.16L1292.02 1933.44C1291.08 1934.31 1290.97 1935.25 1291.83 1936.11ZM1299.67 1917.85C1302.34 1915.86 1305.65 1916.17 1308.05 1918.58L1310.68 1921.19C1310.91 1921.43 1310.94 1921.61 1310.88 1921.91L1310.5 1923.47L1312.08 1925.04L1313.04 1924.95C1313.33 1924.92 1313.41 1924.94 1313.64 1925.17L1314.26 1925.79L1311.51 1928.54L1310.88 1927.92C1310.66 1927.7 1310.64 1927.6 1310.67 1927.32L1310.76 1926.36L1309.19 1924.8L1307.57 1925.11C1307.29 1925.17 1307.14 1925.17 1306.91 1924.92L1304.73 1922.75C1304.51 1922.51 1304.48 1922.37 1304.61 1922.05L1305.55 1919.78C1303.95 1918.24 1301.84 1917.39 1299.8 1918.05C1299.71 1918.08 1299.64 1918.06 1299.61 1918.02C1299.59 1917.97 1299.59 1917.92 1299.67 1917.85ZM1293.1 1935.41C1292.61 1934.91 1292.79 1934.61 1293.12 1934.31L1304.08 1924.19L1305.31 1925.42L1295.15 1936.35C1294.85 1936.68 1294.47 1936.78 1294.07 1936.38L1293.1 1935.41Z" fill="black"/>
</g>
<text id="Exporting" fill="black" xml:space="preserve" style="white-space: pre" font-family="Roboto" font-size="12" letter-spacing="0em"><tspan x="1289" y="1952.1">Exporting</tspan></text>
<text id="Symbols should be outlined when exporting to ensure the" fill="black" xml:space="preserve" style="white-space: pre" font-family="Roboto" font-size="12" letter-spacing="0em"><tspan x="1289" y="1970.1">Symbols should be outlined when exporting to ensure the</tspan></text>
<text id="design is preserved when submitting to Xcode." fill="black" xml:space="preserve" style="white-space: pre" font-family="Roboto" font-size="12" letter-spacing="0em"><tspan x="1289" y="1988.1">design is preserved when submitting to Xcode.</tspan></text>
<text id="template-version" fill="black" xml:space="preserve" style="white-space: pre" font-family="Roboto" font-size="12" letter-spacing="0em"><tspan x="2958" y="1932.1">Template v.1.0</tspan></text>
<text id="Generated from pencil.circle" fill="black" xml:space="preserve" style="white-space: pre" font-family="Roboto" font-size="12" letter-spacing="0em"><tspan x="2885" y="1950.1">Generated from pencil.circle</tspan></text>
<text id="Typeset at 100 points" fill="black" xml:space="preserve" style="white-space: pre" font-family="Roboto" font-size="12" letter-spacing="0em"><tspan x="2921" y="1968.1">Typeset at 100 points</tspan></text>
<text id="Small" fill="black" xml:space="preserve" style="white-space: pre" font-family="Roboto" font-size="12" letter-spacing="0em"><tspan x="263" y="725.102">Small</tspan></text>
<text id="Medium_2" fill="black" xml:space="preserve" style="white-space: pre" font-family="Roboto" font-size="12" letter-spacing="0em"><tspan x="263" y="1155.1">Medium</tspan></text>
<text id="Large" fill="black" xml:space="preserve" style="white-space: pre" font-family="Roboto" font-size="12" letter-spacing="0em"><tspan x="263" y="1585.1">Large</tspan></text>
</g>
<g id="Guides">
<g id="H-reference">
<path id="Vector_10" d="M393.932 696H396.666L369.566 625.541H367.076L339.977 696H342.662L351.94 671.537H384.703L393.932 696ZM368.199 628.91H368.443L383.824 669.291H352.818L368.199 628.91Z" fill="#27AAE1"/>
</g>
<path id="Baseline-S" d="M263 696H3036" stroke="#27AAE1" stroke-width="0.577"/>
<path id="Capline-S" d="M263 626H3036" stroke="#27AAE1" stroke-width="0.577"/>
<g id="H-reference_2">
<path id="Vector_11" d="M393.932 1126H396.666L369.566 1055.54H367.076L339.977 1126H342.662L351.94 1101.54H384.703L393.932 1126ZM368.199 1058.91H368.443L383.824 1099.29H352.818L368.199 1058.91Z" fill="#27AAE1"/>
</g>
<path id="Baseline-M" d="M263 1126H3036" stroke="#27AAE1" stroke-width="0.577"/>
<path id="Capline-M" d="M263 1056H3036" stroke="#27AAE1" stroke-width="0.577"/>
<g id="H-reference_3">
<path id="Vector_12" d="M393.932 1556H396.666L369.566 1485.54H367.076L339.977 1556H342.662L351.94 1531.54H384.703L393.932 1556ZM368.199 1488.91H368.443L383.824 1529.29H352.818L368.199 1488.91Z" fill="#27AAE1"/>
</g>
<g id="Group 1">
<path id="Baseline-L" d="M263 1556H3036" stroke="#27AAE1" stroke-width="0.577"/>
<path id="Capline-L" d="M263 1486H3036" stroke="#27AAE1" stroke-width="0.577"/>
</g>
<path id="left-margin" opacity="0.4" d="M1389.74 1030.79H1381V1150.12H1389.74V1030.79Z" fill="#00AEEF"/>
<path id="right-margin" opacity="0.4" d="M1504.39 1030.79H1495.65V1150.12H1504.39V1030.79Z" fill="#00AEEF"/>
</g>
<g id="Symbols">
<g id="Black-L">
<g id="Solid / To Customer Solid">
<g id="Shape">
<path d="M2929 1453.5C2948.99 1453.5 2964.53 1470.9 2962.27 1490.76L2960.3 1508.05C2958.5 1523.97 2945.03 1536 2929 1536C2912.98 1536 2899.51 1523.97 2897.7 1508.05L2895.74 1490.76C2893.48 1470.9 2909.02 1453.5 2929 1453.5Z" fill="black"/>
<path d="M2929.87 1551.31C2928.9 1547.58 2931.48 1543.5 2935.35 1543.5H2942.91C2964 1543.5 2982.26 1558.15 2986.83 1578.74L2987.58 1582.11C2988.31 1585.39 2985.82 1588.5 2982.46 1588.5H2933.01C2928.67 1588.5 2926.04 1583.38 2927.75 1579.39C2930 1574.13 2931.25 1568.34 2931.25 1562.25C2931.25 1558.47 2930.77 1554.81 2929.87 1551.31Z" fill="black"/>
<path fill-rule="evenodd" clip-rule="evenodd" d="M2854 1562.25C2854 1580.89 2869.11 1596 2887.75 1596C2906.39 1596 2921.5 1580.89 2921.5 1562.25C2921.5 1543.61 2906.39 1528.5 2887.75 1528.5C2869.11 1528.5 2854 1543.61 2854 1562.25ZM2885.18 1582.08C2886.15 1583.13 2887.43 1583.65 2888.78 1583.65C2889.98 1583.65 2891.1 1583.28 2892.08 1582.38L2909.68 1565.6C2912.01 1563.5 2912.01 1559.9 2909.68 1557.8L2892.08 1541.09C2890.05 1539.29 2886.98 1539.44 2885.18 1541.39C2883.38 1543.42 2883.45 1546.49 2885.48 1548.29L2894.39 1556.82H2869.1C2866.41 1556.82 2864.23 1559.01 2864.23 1561.7C2864.23 1564.39 2866.41 1566.57 2869.1 1566.57H2894.44L2885.48 1575.18C2883.53 1576.98 2883.38 1580.05 2885.18 1582.08Z" fill="black"/>
</g>
</g>
</g>
<g id="Heavy-L">
<g id="Solid / To Customer Solid_2">
<g id="Shape_2">
<path d="M2633 1453.5C2652.99 1453.5 2668.53 1470.9 2666.27 1490.76L2664.3 1508.05C2662.5 1523.97 2649.03 1536 2633 1536C2616.98 1536 2603.51 1523.97 2601.7 1508.05L2599.74 1490.76C2597.48 1470.9 2613.02 1453.5 2633 1453.5Z" fill="black"/>
<path d="M2633.87 1551.31C2632.9 1547.58 2635.48 1543.5 2639.35 1543.5H2646.91C2668 1543.5 2686.26 1558.15 2690.83 1578.74L2691.58 1582.11C2692.31 1585.39 2689.82 1588.5 2686.46 1588.5H2637.01C2632.67 1588.5 2630.04 1583.38 2631.75 1579.39C2634 1574.13 2635.25 1568.34 2635.25 1562.25C2635.25 1558.47 2634.77 1554.81 2633.87 1551.31Z" fill="black"/>
<path fill-rule="evenodd" clip-rule="evenodd" d="M2558 1562.25C2558 1580.89 2573.11 1596 2591.75 1596C2610.39 1596 2625.5 1580.89 2625.5 1562.25C2625.5 1543.61 2610.39 1528.5 2591.75 1528.5C2573.11 1528.5 2558 1543.61 2558 1562.25ZM2589.18 1582.08C2590.15 1583.13 2591.43 1583.65 2592.78 1583.65C2593.98 1583.65 2595.1 1583.28 2596.08 1582.38L2613.68 1565.6C2616.01 1563.5 2616.01 1559.9 2613.68 1557.8L2596.08 1541.09C2594.05 1539.29 2590.98 1539.44 2589.18 1541.39C2587.38 1543.42 2587.45 1546.49 2589.48 1548.29L2598.39 1556.82H2573.1C2570.41 1556.82 2568.23 1559.01 2568.23 1561.7C2568.23 1564.39 2570.41 1566.57 2573.1 1566.57H2598.44L2589.48 1575.18C2587.53 1576.98 2587.38 1580.05 2589.18 1582.08Z" fill="black"/>
</g>
</g>
</g>
<g id="Bold-L">
<g id="Solid / To Customer Solid_3">
<g id="Shape_3">
<path d="M2337 1453.5C2356.99 1453.5 2372.53 1470.9 2370.27 1490.76L2368.3 1508.05C2366.5 1523.97 2353.03 1536 2337 1536C2320.98 1536 2307.51 1523.97 2305.7 1508.05L2303.74 1490.76C2301.48 1470.9 2317.02 1453.5 2337 1453.5Z" fill="black"/>
<path d="M2337.87 1551.31C2336.9 1547.58 2339.48 1543.5 2343.35 1543.5H2350.91C2372 1543.5 2390.26 1558.15 2394.83 1578.74L2395.58 1582.11C2396.31 1585.39 2393.82 1588.5 2390.46 1588.5H2341.01C2336.67 1588.5 2334.04 1583.38 2335.75 1579.39C2338 1574.13 2339.25 1568.34 2339.25 1562.25C2339.25 1558.47 2338.77 1554.81 2337.87 1551.31Z" fill="black"/>
<path fill-rule="evenodd" clip-rule="evenodd" d="M2262 1562.25C2262 1580.89 2277.11 1596 2295.75 1596C2314.39 1596 2329.5 1580.89 2329.5 1562.25C2329.5 1543.61 2314.39 1528.5 2295.75 1528.5C2277.11 1528.5 2262 1543.61 2262 1562.25ZM2293.18 1582.08C2294.15 1583.13 2295.43 1583.65 2296.78 1583.65C2297.98 1583.65 2299.1 1583.28 2300.08 1582.38L2317.68 1565.6C2320.01 1563.5 2320.01 1559.9 2317.68 1557.8L2300.08 1541.09C2298.05 1539.29 2294.98 1539.44 2293.18 1541.39C2291.38 1543.42 2291.45 1546.49 2293.48 1548.29L2302.39 1556.82H2277.1C2274.41 1556.82 2272.23 1559.01 2272.23 1561.7C2272.23 1564.39 2274.41 1566.57 2277.1 1566.57H2302.44L2293.48 1575.18C2291.53 1576.98 2291.38 1580.05 2293.18 1582.08Z" fill="black"/>
</g>
</g>
</g>
<g id="Semibold-L">
<g id="Solid / To Customer Solid_4">
<g id="Shape_4">
<path d="M2041 1453.5C2060.99 1453.5 2076.53 1470.9 2074.27 1490.76L2072.3 1508.05C2070.5 1523.97 2057.03 1536 2041 1536C2024.98 1536 2011.51 1523.97 2009.7 1508.05L2007.74 1490.76C2005.48 1470.9 2021.02 1453.5 2041 1453.5Z" fill="black"/>
<path d="M2041.87 1551.31C2040.9 1547.58 2043.48 1543.5 2047.35 1543.5H2054.91C2076 1543.5 2094.26 1558.15 2098.83 1578.74L2099.58 1582.11C2100.31 1585.39 2097.82 1588.5 2094.46 1588.5H2045.01C2040.67 1588.5 2038.04 1583.38 2039.75 1579.39C2042 1574.13 2043.25 1568.34 2043.25 1562.25C2043.25 1558.47 2042.77 1554.81 2041.87 1551.31Z" fill="black"/>
<path fill-rule="evenodd" clip-rule="evenodd" d="M1966 1562.25C1966 1580.89 1981.11 1596 1999.75 1596C2018.39 1596 2033.5 1580.89 2033.5 1562.25C2033.5 1543.61 2018.39 1528.5 1999.75 1528.5C1981.11 1528.5 1966 1543.61 1966 1562.25ZM1997.18 1582.08C1998.15 1583.13 1999.43 1583.65 2000.78 1583.65C2001.98 1583.65 2003.1 1583.28 2004.08 1582.38L2021.68 1565.6C2024.01 1563.5 2024.01 1559.9 2021.68 1557.8L2004.08 1541.09C2002.05 1539.29 1998.98 1539.44 1997.18 1541.39C1995.38 1543.42 1995.45 1546.49 1997.48 1548.29L2006.39 1556.82H1981.1C1978.41 1556.82 1976.23 1559.01 1976.23 1561.7C1976.23 1564.39 1978.41 1566.57 1981.1 1566.57H2006.44L1997.48 1575.18C1995.53 1576.98 1995.38 1580.05 1997.18 1582.08Z" fill="black"/>
</g>
</g>
</g>
<g id="Medium-L">
<g id="Solid / To Customer Solid_5">
<g id="Shape_5">
<path d="M1745 1453.5C1764.99 1453.5 1780.53 1470.9 1778.27 1490.76L1776.3 1508.05C1774.5 1523.97 1761.03 1536 1745 1536C1728.98 1536 1715.51 1523.97 1713.7 1508.05L1711.74 1490.76C1709.48 1470.9 1725.02 1453.5 1745 1453.5Z" fill="black"/>
<path d="M1745.87 1551.31C1744.9 1547.58 1747.48 1543.5 1751.35 1543.5H1758.91C1780 1543.5 1798.26 1558.15 1802.83 1578.74L1803.58 1582.11C1804.31 1585.39 1801.82 1588.5 1798.46 1588.5H1749.01C1744.67 1588.5 1742.04 1583.38 1743.75 1579.39C1746 1574.13 1747.25 1568.34 1747.25 1562.25C1747.25 1558.47 1746.77 1554.81 1745.87 1551.31Z" fill="black"/>
<path fill-rule="evenodd" clip-rule="evenodd" d="M1670 1562.25C1670 1580.89 1685.11 1596 1703.75 1596C1722.39 1596 1737.5 1580.89 1737.5 1562.25C1737.5 1543.61 1722.39 1528.5 1703.75 1528.5C1685.11 1528.5 1670 1543.61 1670 1562.25ZM1701.18 1582.08C1702.15 1583.13 1703.43 1583.65 1704.78 1583.65C1705.98 1583.65 1707.1 1583.28 1708.08 1582.38L1725.68 1565.6C1728.01 1563.5 1728.01 1559.9 1725.68 1557.8L1708.08 1541.09C1706.05 1539.29 1702.98 1539.44 1701.18 1541.39C1699.38 1543.42 1699.45 1546.49 1701.48 1548.29L1710.39 1556.82H1685.1C1682.41 1556.82 1680.23 1559.01 1680.23 1561.7C1680.23 1564.39 1682.41 1566.57 1685.1 1566.57H1710.44L1701.48 1575.18C1699.53 1576.98 1699.38 1580.05 1701.18 1582.08Z" fill="black"/>
</g>
</g>
</g>
<g id="Regular-L">
<g id="Solid / To Customer Solid_6">
<g id="Shape_6">
<path d="M1449 1453.5C1468.99 1453.5 1484.53 1470.9 1482.27 1490.76L1480.3 1508.05C1478.5 1523.97 1465.03 1536 1449 1536C1432.98 1536 1419.51 1523.97 1417.7 1508.05L1415.74 1490.76C1413.48 1470.9 1429.02 1453.5 1449 1453.5Z" fill="black"/>
<path d="M1449.87 1551.31C1448.9 1547.58 1451.48 1543.5 1455.35 1543.5H1462.91C1484 1543.5 1502.26 1558.15 1506.83 1578.74L1507.58 1582.11C1508.31 1585.39 1505.82 1588.5 1502.46 1588.5H1453.01C1448.67 1588.5 1446.04 1583.38 1447.75 1579.39C1450 1574.13 1451.25 1568.34 1451.25 1562.25C1451.25 1558.47 1450.77 1554.81 1449.87 1551.31Z" fill="black"/>
<path fill-rule="evenodd" clip-rule="evenodd" d="M1374 1562.25C1374 1580.89 1389.11 1596 1407.75 1596C1426.39 1596 1441.5 1580.89 1441.5 1562.25C1441.5 1543.61 1426.39 1528.5 1407.75 1528.5C1389.11 1528.5 1374 1543.61 1374 1562.25ZM1405.18 1582.08C1406.15 1583.13 1407.43 1583.65 1408.78 1583.65C1409.98 1583.65 1411.1 1583.28 1412.08 1582.38L1429.68 1565.6C1432.01 1563.5 1432.01 1559.9 1429.68 1557.8L1412.08 1541.09C1410.05 1539.29 1406.98 1539.44 1405.18 1541.39C1403.38 1543.42 1403.45 1546.49 1405.48 1548.29L1414.39 1556.82H1389.1C1386.41 1556.82 1384.23 1559.01 1384.23 1561.7C1384.23 1564.39 1386.41 1566.57 1389.1 1566.57H1414.44L1405.48 1575.18C1403.53 1576.98 1403.38 1580.05 1405.18 1582.08Z" fill="black"/>
</g>
</g>
</g>
<g id="Light-L">
<g id="Solid / To Customer Solid_7">
<g id="Shape_7">
<path d="M1153 1453.5C1172.99 1453.5 1188.53 1470.9 1186.27 1490.76L1184.3 1508.05C1182.5 1523.97 1169.03 1536 1153 1536C1136.98 1536 1123.51 1523.97 1121.7 1508.05L1119.74 1490.76C1117.48 1470.9 1133.02 1453.5 1153 1453.5Z" fill="black"/>
<path d="M1153.87 1551.31C1152.9 1547.58 1155.48 1543.5 1159.35 1543.5H1166.91C1188 1543.5 1206.26 1558.15 1210.83 1578.74L1211.58 1582.11C1212.31 1585.39 1209.82 1588.5 1206.46 1588.5H1157.01C1152.67 1588.5 1150.04 1583.38 1151.75 1579.39C1154 1574.13 1155.25 1568.34 1155.25 1562.25C1155.25 1558.47 1154.77 1554.81 1153.87 1551.31Z" fill="black"/>
<path fill-rule="evenodd" clip-rule="evenodd" d="M1078 1562.25C1078 1580.89 1093.11 1596 1111.75 1596C1130.39 1596 1145.5 1580.89 1145.5 1562.25C1145.5 1543.61 1130.39 1528.5 1111.75 1528.5C1093.11 1528.5 1078 1543.61 1078 1562.25ZM1109.18 1582.08C1110.15 1583.13 1111.43 1583.65 1112.78 1583.65C1113.98 1583.65 1115.1 1583.28 1116.08 1582.38L1133.68 1565.6C1136.01 1563.5 1136.01 1559.9 1133.68 1557.8L1116.08 1541.09C1114.05 1539.29 1110.98 1539.44 1109.18 1541.39C1107.38 1543.42 1107.45 1546.49 1109.48 1548.29L1118.39 1556.82H1093.1C1090.41 1556.82 1088.23 1559.01 1088.23 1561.7C1088.23 1564.39 1090.41 1566.57 1093.1 1566.57H1118.44L1109.48 1575.18C1107.53 1576.98 1107.38 1580.05 1109.18 1582.08Z" fill="black"/>
</g>
</g>
</g>
<g id="Thin-L">
<g id="Solid / To Customer Solid_8">
<g id="Shape_8">
<path d="M857.004 1453.5C876.991 1453.5 892.526 1470.9 890.269 1490.76L888.304 1508.05C886.495 1523.97 873.025 1536 857.004 1536C840.982 1536 827.512 1523.97 825.703 1508.05L823.738 1490.76C821.481 1470.9 837.016 1453.5 857.004 1453.5Z" fill="black"/>
<path d="M857.868 1551.31C856.899 1547.58 859.485 1543.5 863.348 1543.5H870.906C891.997 1543.5 910.259 1558.15 914.834 1578.74L915.584 1582.11C916.312 1585.39 913.817 1588.5 910.459 1588.5H861.01C856.671 1588.5 854.035 1583.38 855.746 1579.39C858.004 1574.13 859.254 1568.34 859.254 1562.25C859.254 1558.47 858.772 1554.81 857.868 1551.31Z" fill="black"/>
<path fill-rule="evenodd" clip-rule="evenodd" d="M782.004 1562.25C782.004 1580.89 797.114 1596 815.754 1596C834.393 1596 849.504 1580.89 849.504 1562.25C849.504 1543.61 834.393 1528.5 815.754 1528.5C797.114 1528.5 782.004 1543.61 782.004 1562.25ZM813.176 1582.08C814.151 1583.13 815.426 1583.65 816.776 1583.65C817.976 1583.65 819.101 1583.28 820.076 1582.38L837.683 1565.6C840.008 1563.5 840.008 1559.9 837.683 1557.8L820.076 1541.09C818.051 1539.29 814.976 1539.44 813.176 1541.39C811.376 1543.42 811.451 1546.49 813.476 1548.29L822.388 1556.82H797.103C794.41 1556.82 792.228 1559.01 792.228 1561.7C792.228 1564.39 794.41 1566.57 797.103 1566.57H822.441L813.476 1575.18C811.526 1576.98 811.376 1580.05 813.176 1582.08Z" fill="black"/>
</g>
</g>
</g>
<g id="Ultralight-L">
<g id="Solid / To Customer Solid_9">
<g id="Shape_9">
<path d="M561.004 1453.5C580.991 1453.5 596.526 1470.9 594.269 1490.76L592.304 1508.05C590.495 1523.97 577.025 1536 561.004 1536C544.982 1536 531.512 1523.97 529.703 1508.05L527.738 1490.76C525.481 1470.9 541.016 1453.5 561.004 1453.5Z" fill="black"/>
<path d="M561.868 1551.31C560.899 1547.58 563.485 1543.5 567.348 1543.5H574.906C595.997 1543.5 614.259 1558.15 618.834 1578.74L619.584 1582.11C620.312 1585.39 617.817 1588.5 614.459 1588.5H565.01C560.671 1588.5 558.035 1583.38 559.746 1579.39C562.004 1574.13 563.254 1568.34 563.254 1562.25C563.254 1558.47 562.772 1554.81 561.868 1551.31Z" fill="black"/>
<path fill-rule="evenodd" clip-rule="evenodd" d="M486.004 1562.25C486.004 1580.89 501.114 1596 519.754 1596C538.393 1596 553.504 1580.89 553.504 1562.25C553.504 1543.61 538.393 1528.5 519.754 1528.5C501.114 1528.5 486.004 1543.61 486.004 1562.25ZM517.176 1582.08C518.151 1583.13 519.426 1583.65 520.776 1583.65C521.976 1583.65 523.101 1583.28 524.076 1582.38L541.683 1565.6C544.008 1563.5 544.008 1559.9 541.683 1557.8L524.076 1541.09C522.051 1539.29 518.976 1539.44 517.176 1541.39C515.376 1543.42 515.451 1546.49 517.476 1548.29L526.388 1556.82H501.103C498.41 1556.82 496.228 1559.01 496.228 1561.7C496.228 1564.39 498.41 1566.57 501.103 1566.57H526.441L517.476 1575.18C515.526 1576.98 515.376 1580.05 517.176 1582.08Z" fill="black"/>
</g>
</g>
</g>
<g id="Black-M">
<g id="Solid / To Customer Solid_10">
<g id="Shape_10">
<path d="M2929 1038.5C2944.55 1038.5 2956.63 1052.03 2954.88 1067.48L2953.35 1080.93C2951.94 1093.31 2941.46 1102.67 2929 1102.67C2916.54 1102.67 2906.06 1093.31 2904.66 1080.93L2903.13 1067.48C2901.37 1052.03 2913.46 1038.5 2929 1038.5Z" fill="black"/>
<path d="M2929.67 1114.58C2928.92 1111.67 2930.93 1108.5 2933.94 1108.5H2939.82C2956.22 1108.5 2970.42 1119.89 2973.98 1135.91L2974.57 1138.53C2975.13 1141.08 2973.19 1143.5 2970.58 1143.5H2932.12C2928.74 1143.5 2926.69 1139.52 2928.02 1136.41C2929.78 1132.32 2930.75 1127.82 2930.75 1123.08C2930.75 1120.15 2930.38 1117.3 2929.67 1114.58Z" fill="black"/>
<path fill-rule="evenodd" clip-rule="evenodd" d="M2870.67 1123.08C2870.67 1137.58 2882.42 1149.33 2896.92 1149.33C2911.42 1149.33 2923.17 1137.58 2923.17 1123.08C2923.17 1108.59 2911.42 1096.83 2896.92 1096.83C2882.42 1096.83 2870.67 1108.59 2870.67 1123.08ZM2894.91 1138.51C2895.67 1139.32 2896.66 1139.73 2897.71 1139.73C2898.65 1139.73 2899.52 1139.44 2900.28 1138.74L2913.98 1125.69C2915.78 1124.06 2915.78 1121.26 2913.98 1119.62L2900.28 1106.63C2898.71 1105.23 2896.31 1105.35 2894.91 1106.86C2893.51 1108.44 2893.57 1110.83 2895.15 1112.23L2902.08 1118.86H2882.41C2880.32 1118.86 2878.62 1120.56 2878.62 1122.66C2878.62 1124.75 2880.32 1126.45 2882.41 1126.45H2902.12L2895.15 1133.14C2893.63 1134.54 2893.51 1136.93 2894.91 1138.51Z" fill="black"/>
</g>
</g>
</g>
<g id="Heavy-M">
<g id="Solid / To Customer Solid_11">
<g id="Shape_11">
<path d="M2633 1038.5C2648.55 1038.5 2660.63 1052.03 2658.88 1067.48L2657.35 1080.93C2655.94 1093.31 2645.46 1102.67 2633 1102.67C2620.54 1102.67 2610.06 1093.31 2608.66 1080.93L2607.13 1067.48C2605.37 1052.03 2617.46 1038.5 2633 1038.5Z" fill="black"/>
<path d="M2633.67 1114.58C2632.92 1111.67 2634.93 1108.5 2637.94 1108.5H2643.82C2660.22 1108.5 2674.42 1119.89 2677.98 1135.91L2678.57 1138.53C2679.13 1141.08 2677.19 1143.5 2674.58 1143.5H2636.12C2632.74 1143.5 2630.69 1139.52 2632.02 1136.41C2633.78 1132.32 2634.75 1127.82 2634.75 1123.08C2634.75 1120.15 2634.38 1117.3 2633.67 1114.58Z" fill="black"/>
<path fill-rule="evenodd" clip-rule="evenodd" d="M2574.67 1123.08C2574.67 1137.58 2586.42 1149.33 2600.92 1149.33C2615.42 1149.33 2627.17 1137.58 2627.17 1123.08C2627.17 1108.59 2615.42 1096.83 2600.92 1096.83C2586.42 1096.83 2574.67 1108.59 2574.67 1123.08ZM2598.91 1138.51C2599.67 1139.32 2600.66 1139.73 2601.71 1139.73C2602.65 1139.73 2603.52 1139.44 2604.28 1138.74L2617.98 1125.69C2619.78 1124.06 2619.78 1121.26 2617.98 1119.62L2604.28 1106.63C2602.71 1105.23 2600.31 1105.35 2598.91 1106.86C2597.51 1108.44 2597.57 1110.83 2599.15 1112.23L2606.08 1118.86H2586.41C2584.32 1118.86 2582.62 1120.56 2582.62 1122.66C2582.62 1124.75 2584.32 1126.45 2586.41 1126.45H2606.12L2599.15 1133.14C2597.63 1134.54 2597.51 1136.93 2598.91 1138.51Z" fill="black"/>
</g>
</g>
</g>
<g id="Bold-M">
<g id="Solid / To Customer Solid_12">
<g id="Shape_12">
<path d="M2337 1038.5C2352.55 1038.5 2364.63 1052.03 2362.88 1067.48L2361.35 1080.93C2359.94 1093.31 2349.46 1102.67 2337 1102.67C2324.54 1102.67 2314.06 1093.31 2312.66 1080.93L2311.13 1067.48C2309.37 1052.03 2321.46 1038.5 2337 1038.5Z" fill="black"/>
<path d="M2337.67 1114.58C2336.92 1111.67 2338.93 1108.5 2341.94 1108.5H2347.82C2364.22 1108.5 2378.42 1119.89 2381.98 1135.91L2382.57 1138.53C2383.13 1141.08 2381.19 1143.5 2378.58 1143.5H2340.12C2336.74 1143.5 2334.69 1139.52 2336.02 1136.41C2337.78 1132.32 2338.75 1127.82 2338.75 1123.08C2338.75 1120.15 2338.38 1117.3 2337.67 1114.58Z" fill="black"/>
<path fill-rule="evenodd" clip-rule="evenodd" d="M2278.67 1123.08C2278.67 1137.58 2290.42 1149.33 2304.92 1149.33C2319.42 1149.33 2331.17 1137.58 2331.17 1123.08C2331.17 1108.59 2319.42 1096.83 2304.92 1096.83C2290.42 1096.83 2278.67 1108.59 2278.67 1123.08ZM2302.91 1138.51C2303.67 1139.32 2304.66 1139.73 2305.71 1139.73C2306.65 1139.73 2307.52 1139.44 2308.28 1138.74L2321.98 1125.69C2323.78 1124.06 2323.78 1121.26 2321.98 1119.62L2308.28 1106.63C2306.71 1105.23 2304.31 1105.35 2302.91 1106.86C2301.51 1108.44 2301.57 1110.83 2303.15 1112.23L2310.08 1118.86H2290.41C2288.32 1118.86 2286.62 1120.56 2286.62 1122.66C2286.62 1124.75 2288.32 1126.45 2290.41 1126.45H2310.12L2303.15 1133.14C2301.63 1134.54 2301.51 1136.93 2302.91 1138.51Z" fill="black"/>
</g>
</g>
</g>
<g id="Semibold-M">
<g id="Solid / To Customer Solid_13">
<g id="Shape_13">
<path d="M2041 1038.5C2056.55 1038.5 2068.63 1052.03 2066.88 1067.48L2065.35 1080.93C2063.94 1093.31 2053.46 1102.67 2041 1102.67C2028.54 1102.67 2018.06 1093.31 2016.66 1080.93L2015.13 1067.48C2013.37 1052.03 2025.46 1038.5 2041 1038.5Z" fill="black"/>
<path d="M2041.67 1114.58C2040.92 1111.67 2042.93 1108.5 2045.94 1108.5H2051.82C2068.22 1108.5 2082.42 1119.89 2085.98 1135.91L2086.57 1138.53C2087.13 1141.08 2085.19 1143.5 2082.58 1143.5H2044.12C2040.74 1143.5 2038.69 1139.52 2040.02 1136.41C2041.78 1132.32 2042.75 1127.82 2042.75 1123.08C2042.75 1120.15 2042.38 1117.3 2041.67 1114.58Z" fill="black"/>
<path fill-rule="evenodd" clip-rule="evenodd" d="M1982.67 1123.08C1982.67 1137.58 1994.42 1149.33 2008.92 1149.33C2023.42 1149.33 2035.17 1137.58 2035.17 1123.08C2035.17 1108.59 2023.42 1096.83 2008.92 1096.83C1994.42 1096.83 1982.67 1108.59 1982.67 1123.08ZM2006.91 1138.51C2007.67 1139.32 2008.66 1139.73 2009.71 1139.73C2010.65 1139.73 2011.52 1139.44 2012.28 1138.74L2025.98 1125.69C2027.78 1124.06 2027.78 1121.26 2025.98 1119.62L2012.28 1106.63C2010.71 1105.23 2008.31 1105.35 2006.91 1106.86C2005.51 1108.44 2005.57 1110.83 2007.15 1112.23L2014.08 1118.86H1994.41C1992.32 1118.86 1990.62 1120.56 1990.62 1122.66C1990.62 1124.75 1992.32 1126.45 1994.41 1126.45H2014.12L2007.15 1133.14C2005.63 1134.54 2005.51 1136.93 2006.91 1138.51Z" fill="black"/>
</g>
</g>
</g>
<g id="Medium-M">
<g id="Solid / To Customer Solid_14">
<g id="Shape_14">
<path d="M1745 1038.5C1760.55 1038.5 1772.63 1052.03 1770.88 1067.48L1769.35 1080.93C1767.94 1093.31 1757.46 1102.67 1745 1102.67C1732.54 1102.67 1722.06 1093.31 1720.66 1080.93L1719.13 1067.48C1717.37 1052.03 1729.46 1038.5 1745 1038.5Z" fill="black"/>
<path d="M1745.67 1114.58C1744.92 1111.67 1746.93 1108.5 1749.94 1108.5H1755.82C1772.22 1108.5 1786.42 1119.89 1789.98 1135.91L1790.57 1138.53C1791.13 1141.08 1789.19 1143.5 1786.58 1143.5H1748.12C1744.74 1143.5 1742.69 1139.52 1744.02 1136.41C1745.78 1132.32 1746.75 1127.82 1746.75 1123.08C1746.75 1120.15 1746.38 1117.3 1745.67 1114.58Z" fill="black"/>
<path fill-rule="evenodd" clip-rule="evenodd" d="M1686.67 1123.08C1686.67 1137.58 1698.42 1149.33 1712.92 1149.33C1727.42 1149.33 1739.17 1137.58 1739.17 1123.08C1739.17 1108.59 1727.42 1096.83 1712.92 1096.83C1698.42 1096.83 1686.67 1108.59 1686.67 1123.08ZM1710.91 1138.51C1711.67 1139.32 1712.66 1139.73 1713.71 1139.73C1714.65 1139.73 1715.52 1139.44 1716.28 1138.74L1729.98 1125.69C1731.78 1124.06 1731.78 1121.26 1729.98 1119.62L1716.28 1106.63C1714.71 1105.23 1712.31 1105.35 1710.91 1106.86C1709.51 1108.44 1709.57 1110.83 1711.15 1112.23L1718.08 1118.86H1698.41C1696.32 1118.86 1694.62 1120.56 1694.62 1122.66C1694.62 1124.75 1696.32 1126.45 1698.41 1126.45H1718.12L1711.15 1133.14C1709.63 1134.54 1709.51 1136.93 1710.91 1138.51Z" fill="black"/>
</g>
</g>
</g>
<g id="Regular-M">
<g id="Solid / To Customer Solid_15">
<g id="Shape_15">
<path d="M1449 1038.5C1464.55 1038.5 1476.63 1052.03 1474.88 1067.48L1473.35 1080.93C1471.94 1093.31 1461.46 1102.67 1449 1102.67C1436.54 1102.67 1426.06 1093.31 1424.66 1080.93L1423.13 1067.48C1421.37 1052.03 1433.46 1038.5 1449 1038.5Z" fill="black"/>
<path d="M1449.67 1114.58C1448.92 1111.67 1450.93 1108.5 1453.94 1108.5H1459.82C1476.22 1108.5 1490.42 1119.89 1493.98 1135.91L1494.57 1138.53C1495.13 1141.08 1493.19 1143.5 1490.58 1143.5H1452.12C1448.74 1143.5 1446.69 1139.52 1448.02 1136.41C1449.78 1132.32 1450.75 1127.82 1450.75 1123.08C1450.75 1120.15 1450.38 1117.3 1449.67 1114.58Z" fill="black"/>
<path fill-rule="evenodd" clip-rule="evenodd" d="M1390.67 1123.08C1390.67 1137.58 1402.42 1149.33 1416.92 1149.33C1431.42 1149.33 1443.17 1137.58 1443.17 1123.08C1443.17 1108.59 1431.42 1096.83 1416.92 1096.83C1402.42 1096.83 1390.67 1108.59 1390.67 1123.08ZM1414.91 1138.51C1415.67 1139.32 1416.66 1139.73 1417.71 1139.73C1418.65 1139.73 1419.52 1139.44 1420.28 1138.74L1433.98 1125.69C1435.78 1124.06 1435.78 1121.26 1433.98 1119.62L1420.28 1106.63C1418.71 1105.23 1416.31 1105.35 1414.91 1106.86C1413.51 1108.44 1413.57 1110.83 1415.15 1112.23L1422.08 1118.86H1402.41C1400.32 1118.86 1398.62 1120.56 1398.62 1122.66C1398.62 1124.75 1400.32 1126.45 1402.41 1126.45H1422.12L1415.15 1133.14C1413.63 1134.54 1413.51 1136.93 1414.91 1138.51Z" fill="black"/>
</g>
</g>
</g>
<g id="Light-M">
<g id="Solid / To Customer Solid_16">
<g id="Shape_16">
<path d="M1153 1038.5C1168.55 1038.5 1180.63 1052.03 1178.88 1067.48L1177.35 1080.93C1175.94 1093.31 1165.46 1102.67 1153 1102.67C1140.54 1102.67 1130.06 1093.31 1128.66 1080.93L1127.13 1067.48C1125.37 1052.03 1137.46 1038.5 1153 1038.5Z" fill="black"/>
<path d="M1153.67 1114.58C1152.92 1111.67 1154.93 1108.5 1157.94 1108.5H1163.82C1180.22 1108.5 1194.42 1119.89 1197.98 1135.91L1198.57 1138.53C1199.13 1141.08 1197.19 1143.5 1194.58 1143.5H1156.12C1152.74 1143.5 1150.69 1139.52 1152.02 1136.41C1153.78 1132.32 1154.75 1127.82 1154.75 1123.08C1154.75 1120.15 1154.38 1117.3 1153.67 1114.58Z" fill="black"/>
<path fill-rule="evenodd" clip-rule="evenodd" d="M1094.67 1123.08C1094.67 1137.58 1106.42 1149.33 1120.92 1149.33C1135.42 1149.33 1147.17 1137.58 1147.17 1123.08C1147.17 1108.59 1135.42 1096.83 1120.92 1096.83C1106.42 1096.83 1094.67 1108.59 1094.67 1123.08ZM1118.91 1138.51C1119.67 1139.32 1120.66 1139.73 1121.71 1139.73C1122.65 1139.73 1123.52 1139.44 1124.28 1138.74L1137.98 1125.69C1139.78 1124.06 1139.78 1121.26 1137.98 1119.62L1124.28 1106.63C1122.71 1105.23 1120.31 1105.35 1118.91 1106.86C1117.51 1108.44 1117.57 1110.83 1119.15 1112.23L1126.08 1118.86H1106.41C1104.32 1118.86 1102.62 1120.56 1102.62 1122.66C1102.62 1124.75 1104.32 1126.45 1106.41 1126.45H1126.12L1119.15 1133.14C1117.63 1134.54 1117.51 1136.93 1118.91 1138.51Z" fill="black"/>
</g>
</g>
</g>
<g id="Thin-M">
<g id="Solid / To Customer Solid_17">
<g id="Shape_17">
<path d="M857.003 1038.5C872.549 1038.5 884.632 1052.03 882.876 1067.48L881.348 1080.93C879.941 1093.31 869.464 1102.67 857.003 1102.67C844.541 1102.67 834.065 1093.31 832.658 1080.93L831.129 1067.48C829.374 1052.03 841.457 1038.5 857.003 1038.5Z" fill="black"/>
<path d="M857.675 1114.58C856.922 1111.67 858.933 1108.5 861.937 1108.5H867.816C884.22 1108.5 898.424 1119.89 901.982 1135.91L902.565 1138.53C903.132 1141.08 901.191 1143.5 898.579 1143.5H860.119C856.744 1143.5 854.694 1139.52 856.025 1136.41C857.781 1132.32 858.753 1127.82 858.753 1123.08C858.753 1120.15 858.378 1117.3 857.675 1114.58Z" fill="black"/>
<path fill-rule="evenodd" clip-rule="evenodd" d="M798.669 1123.08C798.669 1137.58 810.422 1149.33 824.919 1149.33C839.417 1149.33 851.169 1137.58 851.169 1123.08C851.169 1108.59 839.417 1096.83 824.919 1096.83C810.422 1096.83 798.669 1108.59 798.669 1123.08ZM822.914 1138.51C823.673 1139.32 824.664 1139.73 825.714 1139.73C826.648 1139.73 827.523 1139.44 828.281 1138.74L841.976 1125.69C843.784 1124.06 843.784 1121.26 841.976 1119.62L828.281 1106.63C826.706 1105.23 824.314 1105.35 822.914 1106.86C821.514 1108.44 821.573 1110.83 823.148 1112.23L830.079 1118.86H810.413C808.319 1118.86 806.621 1120.56 806.621 1122.66C806.621 1124.75 808.319 1126.45 810.413 1126.45H830.12L823.148 1133.14C821.631 1134.54 821.514 1136.93 822.914 1138.51Z" fill="black"/>
</g>
</g>
</g>
<g id="Ultralight-M">
<g id="Solid / To Customer Solid_18">
<g id="Shape_18">
<path d="M561.003 1038.5C576.549 1038.5 588.632 1052.03 586.876 1067.48L585.348 1080.93C583.941 1093.31 573.464 1102.67 561.003 1102.67C548.541 1102.67 538.065 1093.31 536.658 1080.93L535.129 1067.48C533.374 1052.03 545.457 1038.5 561.003 1038.5Z" fill="black"/>
<path d="M561.675 1114.58C560.922 1111.67 562.933 1108.5 565.937 1108.5H571.816C588.22 1108.5 602.424 1119.89 605.982 1135.91L606.565 1138.53C607.132 1141.08 605.191 1143.5 602.579 1143.5H564.119C560.744 1143.5 558.694 1139.52 560.025 1136.41C561.781 1132.32 562.753 1127.82 562.753 1123.08C562.753 1120.15 562.378 1117.3 561.675 1114.58Z" fill="black"/>
<path fill-rule="evenodd" clip-rule="evenodd" d="M502.669 1123.08C502.669 1137.58 514.422 1149.33 528.919 1149.33C543.417 1149.33 555.169 1137.58 555.169 1123.08C555.169 1108.59 543.417 1096.83 528.919 1096.83C514.422 1096.83 502.669 1108.59 502.669 1123.08ZM526.914 1138.51C527.673 1139.32 528.664 1139.73 529.714 1139.73C530.648 1139.73 531.523 1139.44 532.281 1138.74L545.976 1125.69C547.784 1124.06 547.784 1121.26 545.976 1119.62L532.281 1106.63C530.706 1105.23 528.314 1105.35 526.914 1106.86C525.514 1108.44 525.573 1110.83 527.148 1112.23L534.079 1118.86H514.413C512.319 1118.86 510.621 1120.56 510.621 1122.66C510.621 1124.75 512.319 1126.45 514.413 1126.45H534.12L527.148 1133.14C525.631 1134.54 525.514 1136.93 526.914 1138.51Z" fill="black"/>
</g>
</g>
</g>
<g id="Black-S">
<g id="Solid / To Customer Solid_19">
<g id="Shape_19">
<path d="M2929 623.5C2940.11 623.5 2948.74 633.167 2947.48 644.2L2946.39 653.808C2945.39 662.652 2937.9 669.333 2929 669.333C2920.1 669.333 2912.62 662.652 2911.61 653.808L2910.52 644.2C2909.27 633.167 2917.9 623.5 2929 623.5Z" fill="black"/>
<path d="M2929.48 677.842C2928.94 675.764 2930.38 673.5 2932.53 673.5H2936.73C2948.44 673.5 2958.59 681.638 2961.13 693.077L2961.55 694.951C2961.95 696.772 2960.57 698.5 2958.7 698.5H2931.23C2928.82 698.5 2927.35 695.654 2928.3 693.439C2929.56 690.517 2930.25 687.298 2930.25 683.917C2930.25 681.818 2929.98 679.783 2929.48 677.842Z" fill="black"/>
<path fill-rule="evenodd" clip-rule="evenodd" d="M2887.34 683.917C2887.34 694.272 2895.73 702.667 2906.09 702.667C2916.44 702.667 2924.84 694.272 2924.84 683.917C2924.84 673.561 2916.44 665.167 2906.09 665.167C2895.73 665.167 2887.34 673.561 2887.34 683.917ZM2904.65 694.933C2905.19 695.516 2905.9 695.808 2906.65 695.808C2907.32 695.808 2907.94 695.6 2908.49 695.1L2918.27 685.778C2919.56 684.611 2919.56 682.611 2918.27 681.444L2908.49 672.164C2907.36 671.164 2905.65 671.247 2904.65 672.33C2903.65 673.455 2903.69 675.164 2904.82 676.164L2909.77 680.903H2895.72C2894.23 680.903 2893.02 682.115 2893.02 683.611C2893.02 685.107 2894.23 686.319 2895.72 686.319H2909.8L2904.82 691.1C2903.74 692.1 2903.65 693.808 2904.65 694.933Z" fill="black"/>
</g>
</g>
</g>
<g id="Heavy-S">
<g id="Solid / To Customer Solid_20">
<g id="Shape_20">
<path d="M2633 623.5C2644.11 623.5 2652.74 633.167 2651.48 644.2L2650.39 653.808C2649.39 662.652 2641.9 669.333 2633 669.333C2624.1 669.333 2616.62 662.652 2615.61 653.808L2614.52 644.2C2613.27 633.167 2621.9 623.5 2633 623.5Z" fill="black"/>
<path d="M2633.48 677.842C2632.94 675.764 2634.38 673.5 2636.53 673.5H2640.73C2652.44 673.5 2662.59 681.638 2665.13 693.077L2665.55 694.951C2665.95 696.772 2664.57 698.5 2662.7 698.5H2635.23C2632.82 698.5 2631.35 695.654 2632.3 693.439C2633.56 690.517 2634.25 687.298 2634.25 683.917C2634.25 681.818 2633.98 679.783 2633.48 677.842Z" fill="black"/>
<path fill-rule="evenodd" clip-rule="evenodd" d="M2591.34 683.917C2591.34 694.272 2599.73 702.667 2610.09 702.667C2620.44 702.667 2628.84 694.272 2628.84 683.917C2628.84 673.561 2620.44 665.167 2610.09 665.167C2599.73 665.167 2591.34 673.561 2591.34 683.917ZM2608.65 694.933C2609.19 695.516 2609.9 695.808 2610.65 695.808C2611.32 695.808 2611.94 695.6 2612.49 695.1L2622.27 685.778C2623.56 684.611 2623.56 682.611 2622.27 681.444L2612.49 672.164C2611.36 671.164 2609.65 671.247 2608.65 672.33C2607.65 673.455 2607.69 675.164 2608.82 676.164L2613.77 680.903H2599.72C2598.23 680.903 2597.02 682.115 2597.02 683.611C2597.02 685.107 2598.23 686.319 2599.72 686.319H2613.8L2608.82 691.1C2607.74 692.1 2607.65 693.808 2608.65 694.933Z" fill="black"/>
</g>
</g>
</g>
<g id="Bold-S">
<g id="Solid / To Customer Solid_21">
<g id="Shape_21">
<path d="M2337 623.5C2348.11 623.5 2356.74 633.167 2355.48 644.2L2354.39 653.808C2353.39 662.652 2345.9 669.333 2337 669.333C2328.1 669.333 2320.62 662.652 2319.61 653.808L2318.52 644.2C2317.27 633.167 2325.9 623.5 2337 623.5Z" fill="black"/>
<path d="M2337.48 677.842C2336.94 675.764 2338.38 673.5 2340.53 673.5H2344.73C2356.44 673.5 2366.59 681.638 2369.13 693.077L2369.55 694.951C2369.95 696.772 2368.57 698.5 2366.7 698.5H2339.23C2336.82 698.5 2335.35 695.654 2336.3 693.439C2337.56 690.517 2338.25 687.298 2338.25 683.917C2338.25 681.818 2337.98 679.783 2337.48 677.842Z" fill="black"/>
<path fill-rule="evenodd" clip-rule="evenodd" d="M2295.34 683.917C2295.34 694.272 2303.73 702.667 2314.09 702.667C2324.44 702.667 2332.84 694.272 2332.84 683.917C2332.84 673.561 2324.44 665.167 2314.09 665.167C2303.73 665.167 2295.34 673.561 2295.34 683.917ZM2312.65 694.933C2313.19 695.516 2313.9 695.808 2314.65 695.808C2315.32 695.808 2315.94 695.6 2316.49 695.1L2326.27 685.778C2327.56 684.611 2327.56 682.611 2326.27 681.444L2316.49 672.164C2315.36 671.164 2313.65 671.247 2312.65 672.33C2311.65 673.455 2311.69 675.164 2312.82 676.164L2317.77 680.903H2303.72C2302.23 680.903 2301.02 682.115 2301.02 683.611C2301.02 685.107 2302.23 686.319 2303.72 686.319H2317.8L2312.82 691.1C2311.74 692.1 2311.65 693.808 2312.65 694.933Z" fill="black"/>
</g>
</g>
</g>
<g id="Semibold-S">
<g id="Solid / To Customer Solid_22">
<g id="Shape_22">
<path d="M2041 623.5C2052.11 623.5 2060.74 633.167 2059.48 644.2L2058.39 653.808C2057.39 662.652 2049.9 669.333 2041 669.333C2032.1 669.333 2024.62 662.652 2023.61 653.808L2022.52 644.2C2021.27 633.167 2029.9 623.5 2041 623.5Z" fill="black"/>
<path d="M2041.48 677.842C2040.94 675.764 2042.38 673.5 2044.53 673.5H2048.73C2060.44 673.5 2070.59 681.638 2073.13 693.077L2073.55 694.951C2073.95 696.772 2072.57 698.5 2070.7 698.5H2043.23C2040.82 698.5 2039.35 695.654 2040.3 693.439C2041.56 690.517 2042.25 687.298 2042.25 683.917C2042.25 681.818 2041.98 679.783 2041.48 677.842Z" fill="black"/>
<path fill-rule="evenodd" clip-rule="evenodd" d="M1999.34 683.917C1999.34 694.272 2007.73 702.667 2018.09 702.667C2028.44 702.667 2036.84 694.272 2036.84 683.917C2036.84 673.561 2028.44 665.167 2018.09 665.167C2007.73 665.167 1999.34 673.561 1999.34 683.917ZM2016.65 694.933C2017.19 695.516 2017.9 695.808 2018.65 695.808C2019.32 695.808 2019.94 695.6 2020.49 695.1L2030.27 685.778C2031.56 684.611 2031.56 682.611 2030.27 681.444L2020.49 672.164C2019.36 671.164 2017.65 671.247 2016.65 672.33C2015.65 673.455 2015.69 675.164 2016.82 676.164L2021.77 680.903H2007.72C2006.23 680.903 2005.02 682.115 2005.02 683.611C2005.02 685.107 2006.23 686.319 2007.72 686.319H2021.8L2016.82 691.1C2015.74 692.1 2015.65 693.808 2016.65 694.933Z" fill="black"/>
</g>
</g>
</g>
<g id="Medium-S">
<g id="Solid / To Customer Solid_23">
<g id="Shape_23">
<path d="M1745 623.5C1756.11 623.5 1764.74 633.167 1763.48 644.2L1762.39 653.808C1761.39 662.652 1753.9 669.333 1745 669.333C1736.1 669.333 1728.62 662.652 1727.61 653.808L1726.52 644.2C1725.27 633.167 1733.9 623.5 1745 623.5Z" fill="black"/>
<path d="M1745.48 677.842C1744.94 675.764 1746.38 673.5 1748.53 673.5H1752.73C1764.44 673.5 1774.59 681.638 1777.13 693.077L1777.55 694.951C1777.95 696.772 1776.57 698.5 1774.7 698.5H1747.23C1744.82 698.5 1743.35 695.654 1744.3 693.439C1745.56 690.517 1746.25 687.298 1746.25 683.917C1746.25 681.818 1745.98 679.783 1745.48 677.842Z" fill="black"/>
<path fill-rule="evenodd" clip-rule="evenodd" d="M1703.34 683.917C1703.34 694.272 1711.73 702.667 1722.09 702.667C1732.44 702.667 1740.84 694.272 1740.84 683.917C1740.84 673.561 1732.44 665.167 1722.09 665.167C1711.73 665.167 1703.34 673.561 1703.34 683.917ZM1720.65 694.933C1721.19 695.516 1721.9 695.808 1722.65 695.808C1723.32 695.808 1723.94 695.6 1724.49 695.1L1734.27 685.778C1735.56 684.611 1735.56 682.611 1734.27 681.444L1724.49 672.164C1723.36 671.164 1721.65 671.247 1720.65 672.33C1719.65 673.455 1719.69 675.164 1720.82 676.164L1725.77 680.903H1711.72C1710.23 680.903 1709.02 682.115 1709.02 683.611C1709.02 685.107 1710.23 686.319 1711.72 686.319H1725.8L1720.82 691.1C1719.74 692.1 1719.65 693.808 1720.65 694.933Z" fill="black"/>
</g>
</g>
</g>
<g id="Regular-S">
<g id="Solid / To Customer Solid_24">
<g id="Shape_24">
<path d="M1449 623.5C1460.11 623.5 1468.74 633.167 1467.48 644.2L1466.39 653.808C1465.39 662.652 1457.9 669.333 1449 669.333C1440.1 669.333 1432.62 662.652 1431.61 653.808L1430.52 644.2C1429.27 633.167 1437.9 623.5 1449 623.5Z" fill="black"/>
<path d="M1449.48 677.842C1448.94 675.764 1450.38 673.5 1452.53 673.5H1456.73C1468.44 673.5 1478.59 681.638 1481.13 693.077L1481.55 694.951C1481.95 696.772 1480.57 698.5 1478.7 698.5H1451.23C1448.82 698.5 1447.35 695.654 1448.3 693.439C1449.56 690.517 1450.25 687.298 1450.25 683.917C1450.25 681.818 1449.98 679.783 1449.48 677.842Z" fill="black"/>
<path fill-rule="evenodd" clip-rule="evenodd" d="M1407.34 683.917C1407.34 694.272 1415.73 702.667 1426.09 702.667C1436.44 702.667 1444.84 694.272 1444.84 683.917C1444.84 673.561 1436.44 665.167 1426.09 665.167C1415.73 665.167 1407.34 673.561 1407.34 683.917ZM1424.65 694.933C1425.19 695.516 1425.9 695.808 1426.65 695.808C1427.32 695.808 1427.94 695.6 1428.49 695.1L1438.27 685.778C1439.56 684.611 1439.56 682.611 1438.27 681.444L1428.49 672.164C1427.36 671.164 1425.65 671.247 1424.65 672.33C1423.65 673.455 1423.69 675.164 1424.82 676.164L1429.77 680.903H1415.72C1414.23 680.903 1413.02 682.115 1413.02 683.611C1413.02 685.107 1414.23 686.319 1415.72 686.319H1429.8L1424.82 691.1C1423.74 692.1 1423.65 693.808 1424.65 694.933Z" fill="black"/>
</g>
</g>
</g>
<g id="Light-S">
<g id="Solid / To Customer Solid_25">
<g id="Shape_25">
<path d="M1153 623.5C1164.11 623.5 1172.74 633.167 1171.48 644.2L1170.39 653.808C1169.39 662.652 1161.9 669.333 1153 669.333C1144.1 669.333 1136.62 662.652 1135.61 653.808L1134.52 644.2C1133.27 633.167 1141.9 623.5 1153 623.5Z" fill="black"/>
<path d="M1153.48 677.842C1152.94 675.764 1154.38 673.5 1156.53 673.5H1160.73C1172.44 673.5 1182.59 681.638 1185.13 693.077L1185.55 694.951C1185.95 696.772 1184.57 698.5 1182.7 698.5H1155.23C1152.82 698.5 1151.35 695.654 1152.3 693.439C1153.56 690.517 1154.25 687.298 1154.25 683.917C1154.25 681.818 1153.98 679.783 1153.48 677.842Z" fill="black"/>
<path fill-rule="evenodd" clip-rule="evenodd" d="M1111.34 683.917C1111.34 694.272 1119.73 702.667 1130.09 702.667C1140.44 702.667 1148.84 694.272 1148.84 683.917C1148.84 673.561 1140.44 665.167 1130.09 665.167C1119.73 665.167 1111.34 673.561 1111.34 683.917ZM1128.65 694.933C1129.19 695.516 1129.9 695.808 1130.65 695.808C1131.32 695.808 1131.94 695.6 1132.49 695.1L1142.27 685.778C1143.56 684.611 1143.56 682.611 1142.27 681.444L1132.49 672.164C1131.36 671.164 1129.65 671.247 1128.65 672.33C1127.65 673.455 1127.69 675.164 1128.82 676.164L1133.77 680.903H1119.72C1118.23 680.903 1117.02 682.115 1117.02 683.611C1117.02 685.107 1118.23 686.319 1119.72 686.319H1133.8L1128.82 691.1C1127.74 692.1 1127.65 693.808 1128.65 694.933Z" fill="black"/>
</g>
</g>
</g>
<g id="Thin-S">
<g id="Solid / To Customer Solid_26">
<g id="Shape_26">
<path d="M857.002 623.5C868.106 623.5 876.737 633.167 875.483 644.2L874.391 653.808C873.386 662.652 865.903 669.333 857.002 669.333C848.101 669.333 840.618 662.652 839.613 653.808L838.521 644.2C837.267 633.167 845.898 623.5 857.002 623.5Z" fill="black"/>
<path d="M857.482 677.842C856.944 675.764 858.381 673.5 860.527 673.5H864.725C876.443 673.5 886.588 681.638 889.13 693.077L889.547 694.951C889.951 696.772 888.565 698.5 886.699 698.5H859.228C856.817 698.5 855.353 695.654 856.303 693.439C857.558 690.517 858.252 687.298 858.252 683.917C858.252 681.818 857.985 679.783 857.482 677.842Z" fill="black"/>
<path fill-rule="evenodd" clip-rule="evenodd" d="M815.335 683.917C815.335 694.272 823.73 702.667 834.085 702.667C844.441 702.667 852.835 694.272 852.835 683.917C852.835 673.561 844.441 665.167 834.085 665.167C823.73 665.167 815.335 673.561 815.335 683.917ZM832.653 694.933C833.195 695.516 833.903 695.808 834.653 695.808C835.32 695.808 835.945 695.6 836.486 695.1L846.269 685.778C847.56 684.611 847.56 682.611 846.269 681.444L836.486 672.164C835.361 671.164 833.653 671.247 832.653 672.33C831.653 673.455 831.695 675.164 832.82 676.164L837.771 680.903H823.724C822.228 680.903 821.015 682.115 821.015 683.611C821.015 685.107 822.228 686.319 823.724 686.319H837.8L832.82 691.1C831.736 692.1 831.653 693.808 832.653 694.933Z" fill="black"/>
</g>
</g>
</g>
<g id="Ultralight-S">
<g id="Solid / To Customer Solid_27">
<g id="Shape_27">
<path d="M561.002 623.5C572.106 623.5 580.737 633.167 579.483 644.2L578.391 653.808C577.386 662.652 569.903 669.333 561.002 669.333C552.101 669.333 544.618 662.652 543.613 653.808L542.521 644.2C541.267 633.167 549.898 623.5 561.002 623.5Z" fill="black"/>
<path d="M561.482 677.842C560.944 675.764 562.381 673.5 564.527 673.5H568.725C580.443 673.5 590.588 681.638 593.13 693.077L593.547 694.951C593.951 696.772 592.565 698.5 590.699 698.5H563.228C560.817 698.5 559.353 695.654 560.303 693.439C561.558 690.517 562.252 687.298 562.252 683.917C562.252 681.818 561.985 679.783 561.482 677.842Z" fill="black"/>
<path fill-rule="evenodd" clip-rule="evenodd" d="M519.335 683.917C519.335 694.272 527.73 702.667 538.085 702.667C548.441 702.667 556.835 694.272 556.835 683.917C556.835 673.561 548.441 665.167 538.085 665.167C527.73 665.167 519.335 673.561 519.335 683.917ZM536.653 694.933C537.195 695.516 537.903 695.808 538.653 695.808C539.32 695.808 539.945 695.6 540.486 695.1L550.269 685.778C551.56 684.611 551.56 682.611 550.269 681.444L540.486 672.164C539.361 671.164 537.653 671.247 536.653 672.33C535.653 673.455 535.695 675.164 536.82 676.164L541.771 680.903H527.724C526.228 680.903 525.015 682.115 525.015 683.611C525.015 685.107 526.228 686.319 527.724 686.319H541.8L536.82 691.1C535.736 692.1 535.653 693.808 536.653 694.933Z" fill="black"/>
</g>
</g>
</g>
</g>
</g>
<defs>
<clipPath id="clip0_805_27002">
<rect width="3300" height="2200" fill="white"/>
</clipPath>
</defs>
</svg>
