<svg xmlns="http://www.w3.org/2000/svg" width="3300" height="2200" fill="none"><path fill="#E5E5E5" d="M0 0h3300v2200H0z"/><g id="Documents / Outline / Doc Processing" clip-path="url(#clip0_0_1)"><g id="Notes"><path id="artboard" fill="#fff" d="M3300 0H0v2200h3300V0Z"/><path id="Vector" stroke="#000" stroke-width=".5" d="M263 292h2773"/><text xml:space="preserve" id="Weight/Scale Variations" fill="#000" font-family="Roboto" font-size="12" letter-spacing="0em" style="white-space:pre"><tspan x="263" y="321.102">Weight/Scale Variations</tspan></text><text xml:space="preserve" id="Ultralight" fill="#000" font-family="Roboto" font-size="12" letter-spacing="0em" style="white-space:pre"><tspan x="535.211" y="321.102">Ultralight</tspan></text><text xml:space="preserve" id="Thin" fill="#000" font-family="Roboto" font-size="12" letter-spacing="0em" style="white-space:pre"><tspan x="844.422" y="321.102">Thin</tspan></text><text xml:space="preserve" id="Light" fill="#000" font-family="Roboto" font-size="12" letter-spacing="0em" style="white-space:pre"><tspan x="1139.63" y="321.102">Light</tspan></text><text xml:space="preserve" id="Regular" fill="#000" font-family="Roboto" font-size="12" letter-spacing="0em" style="white-space:pre"><tspan x="1429.34" y="321.102">Regular</tspan></text><text xml:space="preserve" id="Medium" fill="#000" font-family="Roboto" font-size="12" letter-spacing="0em" style="white-space:pre"><tspan x="1724.56" y="321.102">Medium</tspan></text><text xml:space="preserve" id="Semibold" fill="#000" font-family="Roboto" font-size="12" letter-spacing="0em" style="white-space:pre"><tspan x="2017.77" y="321.102">Semibold</tspan></text><text xml:space="preserve" id="Bold" fill="#000" font-family="Roboto" font-size="12" letter-spacing="0em" style="white-space:pre"><tspan x="2327.48" y="321.102">Bold</tspan></text><text xml:space="preserve" id="Heavy" fill="#000" font-family="Roboto" font-size="12" letter-spacing="0em" style="white-space:pre"><tspan x="2620.19" y="321.102">Heavy</tspan></text><text xml:space="preserve" id="Black" fill="#000" font-family="Roboto" font-size="12" letter-spacing="0em" style="white-space:pre"><tspan x="2918.4" y="321.102">Black</tspan></text><path id="Vector_2" stroke="#000" stroke-width=".5" d="M263 1903h2773"/><g id="Group"><path id="Vector_3" fill="#000" d="M272.248 1933.83c4.307 0 7.891-3.57 7.891-7.88 0-4.31-3.594-7.88-7.901-7.88-4.297 0-7.871 3.57-7.871 7.88 0 4.31 3.584 7.88 7.881 7.88Zm0-1.48a6.364 6.364 0 0 1-6.377-6.4c0-3.56 2.822-6.4 6.367-6.4a6.382 6.382 0 0 1 6.406 6.4 6.368 6.368 0 0 1-6.396 6.4Zm-.019-2.78c.468 0 .742-.31.742-.83v-2.06h2.226c.498 0 .84-.25.84-.72 0-.48-.322-.74-.84-.74h-2.226v-2.23c0-.52-.274-.84-.742-.84-.469 0-.723.34-.723.84v2.23h-2.207c-.518 0-.85.26-.85.74 0 .47.352.72.85.72h2.207v2.06c0 .5.254.83.723.83Z"/></g><g id="Group_2"><path id="Vector_4" fill="#000" d="M293.219 1935.91c5.449 0 9.961-4.51 9.961-9.96 0-5.44-4.522-9.96-9.971-9.96-5.439 0-9.951 4.52-9.951 9.96 0 5.45 4.521 9.96 9.961 9.96Zm0-1.66a8.26 8.26 0 0 1-8.291-8.3c0-4.6 3.672-8.3 8.281-8.3a8.29 8.29 0 0 1 8.311 8.3 8.263 8.263 0 0 1-8.301 8.3Zm-.02-3.66c.518 0 .83-.36.83-.93v-2.89h3.057c.547 0 .928-.28.928-.8 0-.53-.362-.83-.928-.83h-3.057v-3.07c0-.57-.312-.93-.83-.93-.517 0-.81.38-.81.93v3.07h-3.047c-.567 0-.938.3-.938.83 0 .52.391.8.938.8h3.047v2.89c0 .55.293.93.81.93Z"/></g><g id="Group_3"><path id="Vector_5" fill="#000" d="M319.895 1938.67c6.962 0 12.724-5.75 12.724-12.71 0-6.96-5.771-12.72-12.734-12.72-6.953 0-12.705 5.76-12.705 12.72 0 6.96 5.761 12.71 12.715 12.71Zm0-1.81a10.874 10.874 0 0 1-10.889-10.9c0-6.04 4.844-10.9 10.879-10.9 6.045 0 10.898 4.86 10.908 10.9a10.87 10.87 0 0 1-10.898 10.9Zm-.02-4.92c.566 0 .918-.4.918-1v-4.07h4.238c.586 0 1.006-.33 1.006-.89 0-.58-.39-.92-1.006-.92h-4.238v-4.25c0-.61-.352-1-.918-1-.566 0-.889.41-.889 1v4.25h-4.228c-.615 0-1.026.34-1.026.92 0 .56.43.89 1.026.89h4.228v4.07c0 .59.323 1 .889 1Z"/></g><text xml:space="preserve" id="Design Variations" fill="#000" font-family="Roboto" font-size="12" letter-spacing="0em" style="white-space:pre"><tspan x="263" y="1952.1">Design Variations</tspan></text><text xml:space="preserve" id="Symbols are supported in up to nine weights and three scales." fill="#000" font-family="Roboto" font-size="12" letter-spacing="0em" style="white-space:pre"><tspan x="263" y="1970.1">Symbols are supported in up to nine weights and three scales.</tspan></text><text xml:space="preserve" id="For optimal layout with text and other symbols, vertically align" fill="#000" font-family="Roboto" font-size="12" letter-spacing="0em" style="white-space:pre"><tspan x="263" y="1988.1">For optimal layout with text and other symbols, vertically align</tspan></text><text xml:space="preserve" id="symbols with the adjacent text." fill="#000" font-family="Roboto" font-size="12" letter-spacing="0em" style="white-space:pre"><tspan x="263" y="2006.1">symbols with the adjacent text.</tspan></text><path id="Vector_6" fill="#00AEEF" d="M779 1919h-3v14h3v-14Z" opacity=".4"/><g id="Group_4"><path id="Vector_7" fill="#000" d="M789.525 1933h1.846l-5.195-14.09h-1.739l-5.195 14.09h1.846l1.416-4.03h5.605l1.416 4.03Zm-4.248-11.95h.059l2.256 6.42h-4.571l2.256-6.42Z"/></g><path id="Vector_8" fill="#00AEEF" d="M794.617 1919h-3v14h3v-14Z" opacity=".4"/><text xml:space="preserve" id="Margins" fill="#000" font-family="Roboto" font-size="12" letter-spacing="0em" style="white-space:pre"><tspan x="776" y="1952.1">Margins</tspan></text><text xml:space="preserve" id="Leading and trailing margins on the left and right side of each symbol" fill="#000" font-family="Roboto" font-size="12" letter-spacing="0em" style="white-space:pre"><tspan x="776" y="1970.1">Leading and trailing margins on the left and right side of each symbol</tspan></text><text xml:space="preserve" id="can be adjusted by modifying the width of the blue rectangles." fill="#000" font-family="Roboto" font-size="12" letter-spacing="0em" style="white-space:pre"><tspan x="776" y="1988.1">can be adjusted by modifying the width of the blue rectangles.</tspan></text><text xml:space="preserve" id="Modifications are automatically applied proportionally to all" fill="#000" font-family="Roboto" font-size="12" letter-spacing="0em" style="white-space:pre"><tspan x="776" y="2006.1">Modifications are automatically applied proportionally to all</tspan></text><text xml:space="preserve" id="scales and weights." fill="#000" font-family="Roboto" font-size="12" letter-spacing="0em" style="white-space:pre"><tspan x="776" y="2024.1">scales and weights.</tspan></text><g id="Group_5"><path id="Vector_9" fill="#000" d="m1291.84 1936.12 1.54 1.54c.85.83 1.81.76 2.68-.2l10.22-11.12c.43.29.82.28 1.29.19l1.04-.22.7.69-.05.52c-.07.53.1.95.59 1.45l.81.81c.51.51 1.17.53 1.64.06l3.26-3.26c.47-.47.46-1.13-.05-1.64l-.82-.82c-.5-.5-.91-.67-1.45-.59l-.53.06-.65-.67.28-1.14c.15-.57 0-1.04-.62-1.64l-2.41-2.39c-3.55-3.53-8.08-3.42-11.2-.29-.42.43-.46 1.02-.19 1.45.23.37.71.59 1.36.43 1.51-.38 3.02-.27 4.51.74l-.63 1.58c-.23.59-.21 1.07.02 1.51l-11.16 10.27c-.94.87-1.04 1.82-.18 2.68Zm7.84-18.27c2.66-1.99 5.97-1.68 8.38.74l2.62 2.6c.24.24.27.42.21.72l-.38 1.56 1.57 1.57.97-.09c.28-.03.37-.01.59.22l.63.62-2.76 2.75-.62-.62c-.23-.22-.25-.32-.22-.6l.09-.96-1.56-1.56-1.62.31c-.29.06-.43.06-.67-.19l-2.17-2.17c-.23-.24-.26-.38-.13-.7l.95-2.27c-1.61-1.54-3.71-2.39-5.76-1.73-.08.03-.15.01-.18-.03-.03-.05-.03-.1.06-.17Zm-6.57 17.56c-.49-.5-.32-.8.01-1.1l10.96-10.12 1.23 1.23-10.15 10.93c-.31.33-.69.43-1.09.03l-.96-.97Z"/></g><text xml:space="preserve" id="Exporting" fill="#000" font-family="Roboto" font-size="12" letter-spacing="0em" style="white-space:pre"><tspan x="1289" y="1952.1">Exporting</tspan></text><text xml:space="preserve" id="Symbols should be outlined when exporting to ensure the" fill="#000" font-family="Roboto" font-size="12" letter-spacing="0em" style="white-space:pre"><tspan x="1289" y="1970.1">Symbols should be outlined when exporting to ensure the</tspan></text><text xml:space="preserve" id="design is preserved when submitting to Xcode." fill="#000" font-family="Roboto" font-size="12" letter-spacing="0em" style="white-space:pre"><tspan x="1289" y="1988.1">design is preserved when submitting to Xcode.</tspan></text><text xml:space="preserve" id="template-version" fill="#000" font-family="Roboto" font-size="12" letter-spacing="0em" style="white-space:pre"><tspan x="2958" y="1932.1">Template v.1.0</tspan></text><text xml:space="preserve" id="Generated from pencil.circle" fill="#000" font-family="Roboto" font-size="12" letter-spacing="0em" style="white-space:pre"><tspan x="2885" y="1950.1">Generated from pencil.circle</tspan></text><text xml:space="preserve" id="Typeset at 100 points" fill="#000" font-family="Roboto" font-size="12" letter-spacing="0em" style="white-space:pre"><tspan x="2921" y="1968.1">Typeset at 100 points</tspan></text><text xml:space="preserve" id="Small" fill="#000" font-family="Roboto" font-size="12" letter-spacing="0em" style="white-space:pre"><tspan x="263" y="725.102">Small</tspan></text><text xml:space="preserve" id="Medium_2" fill="#000" font-family="Roboto" font-size="12" letter-spacing="0em" style="white-space:pre"><tspan x="263" y="1155.1">Medium</tspan></text><text xml:space="preserve" id="Large" fill="#000" font-family="Roboto" font-size="12" letter-spacing="0em" style="white-space:pre"><tspan x="263" y="1585.1">Large</tspan></text></g><g id="Guides"><g id="H-reference"><path id="Vector_10" fill="#27AAE1" d="M393.932 696h2.734l-27.1-70.459h-2.49L339.977 696h2.685l9.278-24.463h32.763L393.932 696Zm-25.733-67.09h.244l15.381 40.381h-31.006l15.381-40.381Z"/></g><path id="Baseline-S" stroke="#27AAE1" stroke-width=".577" d="M263 696h2773"/><path id="Capline-S" stroke="#27AAE1" stroke-width=".577" d="M263 626h2773"/><g id="H-reference_2"><path id="Vector_11" fill="#27AAE1" d="M393.932 1126h2.734l-27.1-70.46h-2.49L339.977 1126h2.685l9.278-24.46h32.763l9.229 24.46Zm-25.733-67.09h.244l15.381 40.38h-31.006l15.381-40.38Z"/></g><path id="Baseline-M" stroke="#27AAE1" stroke-width=".577" d="M263 1126h2773"/><path id="Capline-M" stroke="#27AAE1" stroke-width=".577" d="M263 1056h2773"/><g id="H-reference_3"><path id="Vector_12" fill="#27AAE1" d="M393.932 1556h2.734l-27.1-70.46h-2.49L339.977 1556h2.685l9.278-24.46h32.763l9.229 24.46Zm-25.733-67.09h.244l15.381 40.38h-31.006l15.381-40.38Z"/></g><g id="Group 1" stroke="#27AAE1" stroke-width=".577"><path id="Baseline-L" d="M263 1556h2773"/><path id="Capline-L" d="M263 1486h2773"/></g><path id="left-margin" fill="#00AEEF" d="M1402.04 1030.79h-8.74v119.34h8.74v-119.34Z" opacity=".4"/><path id="right-margin" fill="#00AEEF" d="M1505.39 1030.79h-8.74v119.34h8.74v-119.34Z" opacity=".4"/></g><g id="Symbols"><g id="Black-L"><g id="Outline / Doc Processing Outline"><g id="Shape" fill="#000"><path fill-rule="evenodd" d="M2989 1476c0-12.43-10.07-22.5-22.5-22.5h-74.95c-12.42 0-22.5 10.07-22.5 22.5v90c0 12.43 10.08 22.5 22.5 22.5h74.95c12.43 0 22.5-10.07 22.5-22.5v-90Zm-22.5-12.75h-74.95c-7.04 0-12.75 5.71-12.75 12.75v90c0 7.04 5.71 12.75 12.75 12.75h74.95c7.05 0 12.75-5.71 12.75-12.75v-90c0-7.04-5.7-12.75-12.75-12.75Z" clip-rule="evenodd"/><path d="M2923.61 1539.11c2.1 2.1 5.55 2.03 7.58-.15l26.4-26.9c1.8-2.02 1.65-5.1-.3-6.9-1.95-1.8-5.1-1.72-6.9.3l-23.18 23.45-12.03-11.24c-1.88-1.87-5.03-1.87-6.9 0-1.88 1.88-1.88 5.03 0 6.9l15.33 14.54Z"/></g></g></g><g id="Heavy-L"><g id="Outline / Doc Processing Outline_2"><g id="Shape_2" fill="#000"><path fill-rule="evenodd" d="M2693 1476c0-12.43-10.07-22.5-22.5-22.5h-74.95c-12.42 0-22.5 10.07-22.5 22.5v90c0 12.43 10.08 22.5 22.5 22.5h74.95c12.43 0 22.5-10.07 22.5-22.5v-90Zm-22.5-12.75h-74.95c-7.04 0-12.75 5.71-12.75 12.75v90c0 7.04 5.71 12.75 12.75 12.75h74.95c7.05 0 12.75-5.71 12.75-12.75v-90c0-7.04-5.7-12.75-12.75-12.75Z" clip-rule="evenodd"/><path d="M2627.61 1539.11c2.1 2.1 5.55 2.03 7.58-.15l26.4-26.9c1.8-2.02 1.65-5.1-.3-6.9-1.95-1.8-5.1-1.72-6.9.3l-23.18 23.45-12.03-11.24c-1.88-1.87-5.03-1.87-6.9 0-1.88 1.88-1.88 5.03 0 6.9l15.33 14.54Z"/></g></g></g><g id="Bold-L"><g id="Outline / Doc Processing Outline_3"><g id="Shape_3" fill="#000"><path fill-rule="evenodd" d="M2397 1476c0-12.43-10.07-22.5-22.5-22.5h-74.95c-12.42 0-22.5 10.07-22.5 22.5v90c0 12.43 10.08 22.5 22.5 22.5h74.95c12.43 0 22.5-10.07 22.5-22.5v-90Zm-22.5-12.75h-74.95c-7.04 0-12.75 5.71-12.75 12.75v90c0 7.04 5.71 12.75 12.75 12.75h74.95c7.05 0 12.75-5.71 12.75-12.75v-90c0-7.04-5.7-12.75-12.75-12.75Z" clip-rule="evenodd"/><path d="M2331.61 1539.11c2.1 2.1 5.55 2.03 7.58-.15l26.4-26.9c1.8-2.02 1.65-5.1-.3-6.9-1.95-1.8-5.1-1.72-6.9.3l-23.18 23.45-12.03-11.24c-1.88-1.87-5.03-1.87-6.9 0-1.88 1.88-1.88 5.03 0 6.9l15.33 14.54Z"/></g></g></g><g id="Semibold-L"><g id="Outline / Doc Processing Outline_4"><g id="Shape_4" fill="#000"><path fill-rule="evenodd" d="M2101 1476c0-12.43-10.07-22.5-22.5-22.5h-74.95c-12.42 0-22.5 10.07-22.5 22.5v90c0 12.43 10.08 22.5 22.5 22.5h74.95c12.43 0 22.5-10.07 22.5-22.5v-90Zm-22.5-12.75h-74.95c-7.04 0-12.75 5.71-12.75 12.75v90c0 7.04 5.71 12.75 12.75 12.75h74.95c7.05 0 12.75-5.71 12.75-12.75v-90c0-7.04-5.7-12.75-12.75-12.75Z" clip-rule="evenodd"/><path d="M2035.61 1539.11c2.1 2.1 5.55 2.03 7.58-.15l26.4-26.9c1.8-2.02 1.65-5.1-.3-6.9-1.95-1.8-5.1-1.72-6.9.3l-23.18 23.45-12.03-11.24c-1.88-1.87-5.03-1.87-6.9 0-1.88 1.88-1.88 5.03 0 6.9l15.33 14.54Z"/></g></g></g><g id="Medium-L"><g id="Outline / Doc Processing Outline_5"><g id="Shape_5" fill="#000"><path fill-rule="evenodd" d="M1805 1476c0-12.43-10.07-22.5-22.5-22.5h-74.95c-12.42 0-22.5 10.07-22.5 22.5v90c0 12.43 10.08 22.5 22.5 22.5h74.95c12.43 0 22.5-10.07 22.5-22.5v-90Zm-22.5-12.75h-74.95c-7.04 0-12.75 5.71-12.75 12.75v90c0 7.04 5.71 12.75 12.75 12.75h74.95c7.05 0 12.75-5.71 12.75-12.75v-90c0-7.04-5.7-12.75-12.75-12.75Z" clip-rule="evenodd"/><path d="M1739.61 1539.11c2.1 2.1 5.55 2.03 7.58-.15l26.4-26.9c1.8-2.02 1.65-5.1-.3-6.9-1.95-1.8-5.1-1.72-6.9.3l-23.18 23.45-12.03-11.24c-1.88-1.87-5.03-1.87-6.9 0-1.88 1.88-1.88 5.03 0 6.9l15.33 14.54Z"/></g></g></g><g id="Regular-L"><g id="Outline / Doc Processing Outline_6"><g id="Shape_6" fill="#000"><path fill-rule="evenodd" d="M1509 1476c0-12.43-10.07-22.5-22.5-22.5h-74.95c-12.42 0-22.5 10.07-22.5 22.5v90c0 12.43 10.08 22.5 22.5 22.5h74.95c12.43 0 22.5-10.07 22.5-22.5v-90Zm-22.5-12.75h-74.95c-7.04 0-12.75 5.71-12.75 12.75v90c0 7.04 5.71 12.75 12.75 12.75h74.95c7.05 0 12.75-5.71 12.75-12.75v-90c0-7.04-5.7-12.75-12.75-12.75Z" clip-rule="evenodd"/><path d="M1443.61 1539.11c2.1 2.1 5.55 2.03 7.58-.15l26.4-26.9c1.8-2.02 1.65-5.1-.3-6.9-1.95-1.8-5.1-1.72-6.9.3l-23.18 23.45-12.03-11.24c-1.88-1.87-5.03-1.87-6.9 0-1.88 1.88-1.88 5.03 0 6.9l15.33 14.54Z"/></g></g></g><g id="Light-L"><g id="Outline / Doc Processing Outline_7"><g id="Shape_7" fill="#000"><path fill-rule="evenodd" d="M1213 1476c0-12.43-10.07-22.5-22.5-22.5h-74.95c-12.42 0-22.5 10.07-22.5 22.5v90c0 12.43 10.08 22.5 22.5 22.5h74.95c12.43 0 22.5-10.07 22.5-22.5v-90Zm-22.5-12.75h-74.95c-7.04 0-12.75 5.71-12.75 12.75v90c0 7.04 5.71 12.75 12.75 12.75h74.95c7.05 0 12.75-5.71 12.75-12.75v-90c0-7.04-5.7-12.75-12.75-12.75Z" clip-rule="evenodd"/><path d="M1147.61 1539.11c2.1 2.1 5.55 2.03 7.58-.15l26.4-26.9c1.8-2.02 1.65-5.1-.3-6.9-1.95-1.8-5.1-1.72-6.9.3l-23.18 23.45-12.03-11.24c-1.88-1.87-5.03-1.87-6.9 0-1.88 1.88-1.88 5.03 0 6.9l15.33 14.54Z"/></g></g></g><g id="Thin-L"><g id="Outline / Doc Processing Outline_8"><g id="Shape_8" fill="#000"><path fill-rule="evenodd" d="M917.004 1476c0-12.43-10.074-22.5-22.5-22.5h-74.949c-12.427 0-22.5 10.07-22.5 22.5v90c0 12.43 10.073 22.5 22.5 22.5h74.949c12.426 0 22.5-10.07 22.5-22.5v-90Zm-22.5-12.75h-74.949c-7.042 0-12.75 5.71-12.75 12.75v90c0 7.04 5.708 12.75 12.75 12.75h74.949c7.042 0 12.75-5.71 12.75-12.75v-90c0-7.04-5.708-12.75-12.75-12.75Z" clip-rule="evenodd"/><path d="M851.611 1539.11c2.1 2.1 5.55 2.03 7.575-.15l26.405-26.9c1.8-2.02 1.65-5.1-.3-6.9-1.95-1.8-5.1-1.72-6.9.3l-23.18 23.45-12.034-11.24c-1.875-1.87-5.025-1.87-6.9 0-1.875 1.88-1.875 5.03 0 6.9l15.334 14.54Z"/></g></g></g><g id="Ultralight-L"><g id="Outline / Doc Processing Outline_9"><g id="Shape_9" fill="#000"><path fill-rule="evenodd" d="M621.004 1476c0-12.43-10.074-22.5-22.5-22.5h-74.949c-12.427 0-22.5 10.07-22.5 22.5v90c0 12.43 10.073 22.5 22.5 22.5h74.949c12.426 0 22.5-10.07 22.5-22.5v-90Zm-22.5-12.75h-74.949c-7.042 0-12.75 5.71-12.75 12.75v90c0 7.04 5.708 12.75 12.75 12.75h74.949c7.042 0 12.75-5.71 12.75-12.75v-90c0-7.04-5.708-12.75-12.75-12.75Z" clip-rule="evenodd"/><path d="M555.611 1539.11c2.1 2.1 5.55 2.03 7.575-.15l26.405-26.9c1.8-2.02 1.65-5.1-.3-6.9-1.95-1.8-5.1-1.72-6.9.3l-23.18 23.45-12.034-11.24c-1.875-1.87-5.025-1.87-6.9 0-1.875 1.88-1.875 5.03 0 6.9l15.334 14.54Z"/></g></g></g><g id="Black-M"><g id="Outline / Doc Processing Outline_10"><g id="Shape_10" fill="#000"><path fill-rule="evenodd" d="M2975.67 1056c0-9.66-7.84-17.5-17.5-17.5h-58.29c-9.67 0-17.5 7.84-17.5 17.5v70c0 9.66 7.83 17.5 17.5 17.5h58.29c9.66 0 17.5-7.84 17.5-17.5v-70Zm-17.5-9.92h-58.29c-5.48 0-9.92 4.44-9.92 9.92v70c0 5.48 4.44 9.92 9.92 9.92h58.29c5.48 0 9.92-4.44 9.92-9.92v-70c0-5.48-4.44-9.92-9.92-9.92Z" clip-rule="evenodd"/><path d="M2924.81 1105.09c1.63 1.63 4.31 1.57 5.89-.12l20.54-20.92c1.4-1.58 1.28-3.97-.24-5.37-1.51-1.4-3.96-1.34-5.36.24l-18.03 18.24-9.36-8.75c-1.46-1.45-3.91-1.45-5.37 0-1.46 1.46-1.46 3.91 0 5.37l11.93 11.31Z"/></g></g></g><g id="Heavy-M"><g id="Outline / Doc Processing Outline_11"><g id="Shape_11" fill="#000"><path fill-rule="evenodd" d="M2679.67 1056c0-9.66-7.84-17.5-17.5-17.5h-58.29c-9.67 0-17.5 7.84-17.5 17.5v70c0 9.66 7.83 17.5 17.5 17.5h58.29c9.66 0 17.5-7.84 17.5-17.5v-70Zm-17.5-9.92h-58.29c-5.48 0-9.92 4.44-9.92 9.92v70c0 5.48 4.44 9.92 9.92 9.92h58.29c5.48 0 9.92-4.44 9.92-9.92v-70c0-5.48-4.44-9.92-9.92-9.92Z" clip-rule="evenodd"/><path d="M2628.81 1105.09c1.63 1.63 4.31 1.57 5.89-.12l20.54-20.92c1.4-1.58 1.28-3.97-.24-5.37-1.51-1.4-3.96-1.34-5.36.24l-18.03 18.24-9.36-8.75c-1.46-1.45-3.91-1.45-5.37 0-1.46 1.46-1.46 3.91 0 5.37l11.93 11.31Z"/></g></g></g><g id="Bold-M"><g id="Outline / Doc Processing Outline_12"><g id="Shape_12" fill="#000"><path fill-rule="evenodd" d="M2383.67 1056c0-9.66-7.84-17.5-17.5-17.5h-58.29c-9.67 0-17.5 7.84-17.5 17.5v70c0 9.66 7.83 17.5 17.5 17.5h58.29c9.66 0 17.5-7.84 17.5-17.5v-70Zm-17.5-9.92h-58.29c-5.48 0-9.92 4.44-9.92 9.92v70c0 5.48 4.44 9.92 9.92 9.92h58.29c5.48 0 9.92-4.44 9.92-9.92v-70c0-5.48-4.44-9.92-9.92-9.92Z" clip-rule="evenodd"/><path d="M2332.81 1105.09c1.63 1.63 4.31 1.57 5.89-.12l20.54-20.92c1.4-1.58 1.28-3.97-.24-5.37-1.51-1.4-3.96-1.34-5.36.24l-18.03 18.24-9.36-8.75c-1.46-1.45-3.91-1.45-5.37 0-1.46 1.46-1.46 3.91 0 5.37l11.93 11.31Z"/></g></g></g><g id="Semibold-M"><g id="Outline / Doc Processing Outline_13"><g id="Shape_13" fill="#000"><path fill-rule="evenodd" d="M2087.67 1056c0-9.66-7.84-17.5-17.5-17.5h-58.29c-9.67 0-17.5 7.84-17.5 17.5v70c0 9.66 7.83 17.5 17.5 17.5h58.29c9.66 0 17.5-7.84 17.5-17.5v-70Zm-17.5-9.92h-58.29c-5.48 0-9.92 4.44-9.92 9.92v70c0 5.48 4.44 9.92 9.92 9.92h58.29c5.48 0 9.92-4.44 9.92-9.92v-70c0-5.48-4.44-9.92-9.92-9.92Z" clip-rule="evenodd"/><path d="M2036.81 1105.09c1.63 1.63 4.31 1.57 5.89-.12l20.54-20.92c1.4-1.58 1.28-3.97-.24-5.37-1.51-1.4-3.96-1.34-5.36.24l-18.03 18.24-9.36-8.75c-1.46-1.45-3.91-1.45-5.37 0-1.46 1.46-1.46 3.91 0 5.37l11.93 11.31Z"/></g></g></g><g id="Medium-M"><g id="Outline / Doc Processing Outline_14"><g id="Shape_14" fill="#000"><path fill-rule="evenodd" d="M1791.67 1056c0-9.66-7.84-17.5-17.5-17.5h-58.29c-9.67 0-17.5 7.84-17.5 17.5v70c0 9.66 7.83 17.5 17.5 17.5h58.29c9.66 0 17.5-7.84 17.5-17.5v-70Zm-17.5-9.92h-58.29c-5.48 0-9.92 4.44-9.92 9.92v70c0 5.48 4.44 9.92 9.92 9.92h58.29c5.48 0 9.92-4.44 9.92-9.92v-70c0-5.48-4.44-9.92-9.92-9.92Z" clip-rule="evenodd"/><path d="M1740.81 1105.09c1.63 1.63 4.31 1.57 5.89-.12l20.54-20.92c1.4-1.58 1.28-3.97-.24-5.37-1.51-1.4-3.96-1.34-5.36.24l-18.03 18.24-9.36-8.75c-1.46-1.45-3.91-1.45-5.37 0-1.46 1.46-1.46 3.91 0 5.37l11.93 11.31Z"/></g></g></g><g id="Regular-M"><g id="Outline / Doc Processing Outline_15"><g id="Shape_15" fill="#000"><path fill-rule="evenodd" d="M1495.67 1056c0-9.66-7.84-17.5-17.5-17.5h-58.29c-9.67 0-17.5 7.84-17.5 17.5v70c0 9.66 7.83 17.5 17.5 17.5h58.29c9.66 0 17.5-7.84 17.5-17.5v-70Zm-17.5-9.92h-58.29c-5.48 0-9.92 4.44-9.92 9.92v70c0 5.48 4.44 9.92 9.92 9.92h58.29c5.48 0 9.92-4.44 9.92-9.92v-70c0-5.48-4.44-9.92-9.92-9.92Z" clip-rule="evenodd"/><path d="M1444.81 1105.09c1.63 1.63 4.31 1.57 5.89-.12l20.54-20.92c1.4-1.58 1.28-3.97-.24-5.37-1.51-1.4-3.96-1.34-5.36.24l-18.03 18.24-9.36-8.75c-1.46-1.45-3.91-1.45-5.37 0-1.46 1.46-1.46 3.91 0 5.37l11.93 11.31Z"/></g></g></g><g id="Light-M"><g id="Outline / Doc Processing Outline_16"><g id="Shape_16" fill="#000"><path fill-rule="evenodd" d="M1199.67 1056c0-9.66-7.84-17.5-17.5-17.5h-58.29c-9.67 0-17.5 7.84-17.5 17.5v70c0 9.66 7.83 17.5 17.5 17.5h58.29c9.66 0 17.5-7.84 17.5-17.5v-70Zm-17.5-9.92h-58.29c-5.48 0-9.92 4.44-9.92 9.92v70c0 5.48 4.44 9.92 9.92 9.92h58.29c5.48 0 9.92-4.44 9.92-9.92v-70c0-5.48-4.44-9.92-9.92-9.92Z" clip-rule="evenodd"/><path d="M1148.81 1105.09c1.63 1.63 4.31 1.57 5.89-.12l20.54-20.92c1.4-1.58 1.28-3.97-.24-5.37-1.51-1.4-3.96-1.34-5.36.24l-18.03 18.24-9.36-8.75c-1.46-1.45-3.91-1.45-5.37 0-1.46 1.46-1.46 3.91 0 5.37l11.93 11.31Z"/></g></g></g><g id="Thin-M"><g id="Outline / Doc Processing Outline_17"><g id="Shape_17" fill="#000"><path fill-rule="evenodd" d="M903.669 1056c0-9.66-7.835-17.5-17.5-17.5h-58.294c-9.665 0-17.5 7.84-17.5 17.5v70c0 9.66 7.835 17.5 17.5 17.5h58.294c9.665 0 17.5-7.84 17.5-17.5v-70Zm-17.5-9.92h-58.294c-5.477 0-9.917 4.44-9.917 9.92v70c0 5.48 4.44 9.92 9.917 9.92h58.294c5.477 0 9.917-4.44 9.917-9.92v-70c0-5.48-4.44-9.92-9.917-9.92Z" clip-rule="evenodd"/><path d="M852.807 1105.09c1.634 1.63 4.317 1.57 5.892-.12l20.538-20.92c1.4-1.58 1.283-3.97-.234-5.37-1.516-1.4-3.966-1.34-5.366.24l-18.03 18.24-9.359-8.75c-1.458-1.45-3.908-1.45-5.367 0-1.458 1.46-1.458 3.91 0 5.37l11.926 11.31Z"/></g></g></g><g id="Ultralight-M"><g id="Outline / Doc Processing Outline_18"><g id="Shape_18" fill="#000"><path fill-rule="evenodd" d="M607.669 1056c0-9.66-7.835-17.5-17.5-17.5h-58.294c-9.665 0-17.5 7.84-17.5 17.5v70c0 9.66 7.835 17.5 17.5 17.5h58.294c9.665 0 17.5-7.84 17.5-17.5v-70Zm-17.5-9.92h-58.294c-5.477 0-9.917 4.44-9.917 9.92v70c0 5.48 4.44 9.92 9.917 9.92h58.294c5.477 0 9.917-4.44 9.917-9.92v-70c0-5.48-4.44-9.92-9.917-9.92Z" clip-rule="evenodd"/><path d="M556.807 1105.09c1.634 1.63 4.317 1.57 5.892-.12l20.538-20.92c1.4-1.58 1.283-3.97-.234-5.37-1.516-1.4-3.966-1.34-5.366.24l-18.03 18.24-9.359-8.75c-1.458-1.45-3.908-1.45-5.367 0-1.458 1.46-1.458 3.91 0 5.37l11.926 11.31Z"/></g></g></g><g id="Black-S"><g id="Outline / Doc Processing Outline_19"><g id="Shape_19" fill="#000"><path fill-rule="evenodd" d="M2962.34 636c0-6.904-5.59-12.5-12.5-12.5h-41.64c-6.9 0-12.5 5.596-12.5 12.5v50c0 6.904 5.6 12.5 12.5 12.5h41.64c6.91 0 12.5-5.596 12.5-12.5v-50Zm-12.5-7.083h-41.64a7.082 7.082 0 0 0-7.08 7.083v50a7.082 7.082 0 0 0 7.08 7.083h41.64c3.91 0 7.08-3.171 7.08-7.083v-50a7.082 7.082 0 0 0-7.08-7.083Z" clip-rule="evenodd"/><path d="M2926.01 671.064a2.933 2.933 0 0 0 4.21-.084l14.67-14.945c1-1.125.92-2.833-.17-3.833-1.08-1-2.83-.958-3.83.167l-12.88 13.028-6.68-6.244c-1.04-1.042-2.79-1.042-3.84 0-1.04 1.041-1.04 2.791 0 3.833l8.52 8.078Z"/></g></g></g><g id="Heavy-S"><g id="Outline / Doc Processing Outline_20"><g id="Shape_20" fill="#000"><path fill-rule="evenodd" d="M2666.34 636c0-6.904-5.59-12.5-12.5-12.5h-41.64c-6.9 0-12.5 5.596-12.5 12.5v50c0 6.904 5.6 12.5 12.5 12.5h41.64c6.91 0 12.5-5.596 12.5-12.5v-50Zm-12.5-7.083h-41.64a7.082 7.082 0 0 0-7.08 7.083v50a7.082 7.082 0 0 0 7.08 7.083h41.64c3.91 0 7.08-3.171 7.08-7.083v-50a7.082 7.082 0 0 0-7.08-7.083Z" clip-rule="evenodd"/><path d="M2630.01 671.064a2.933 2.933 0 0 0 4.21-.084l14.67-14.945c1-1.125.92-2.833-.17-3.833-1.08-1-2.83-.958-3.83.167l-12.88 13.028-6.68-6.244c-1.04-1.042-2.79-1.042-3.84 0-1.04 1.041-1.04 2.791 0 3.833l8.52 8.078Z"/></g></g></g><g id="Bold-S"><g id="Outline / Doc Processing Outline_21"><g id="Shape_21" fill="#000"><path fill-rule="evenodd" d="M2370.34 636c0-6.904-5.59-12.5-12.5-12.5h-41.64c-6.9 0-12.5 5.596-12.5 12.5v50c0 6.904 5.6 12.5 12.5 12.5h41.64c6.91 0 12.5-5.596 12.5-12.5v-50Zm-12.5-7.083h-41.64a7.082 7.082 0 0 0-7.08 7.083v50a7.082 7.082 0 0 0 7.08 7.083h41.64c3.91 0 7.08-3.171 7.08-7.083v-50a7.082 7.082 0 0 0-7.08-7.083Z" clip-rule="evenodd"/><path d="M2334.01 671.064a2.933 2.933 0 0 0 4.21-.084l14.67-14.945c1-1.125.92-2.833-.17-3.833-1.08-1-2.83-.958-3.83.167l-12.88 13.028-6.68-6.244c-1.04-1.042-2.79-1.042-3.84 0-1.04 1.041-1.04 2.791 0 3.833l8.52 8.078Z"/></g></g></g><g id="Semibold-S"><g id="Outline / Doc Processing Outline_22"><g id="Shape_22" fill="#000"><path fill-rule="evenodd" d="M2074.34 636c0-6.904-5.59-12.5-12.5-12.5h-41.64c-6.9 0-12.5 5.596-12.5 12.5v50c0 6.904 5.6 12.5 12.5 12.5h41.64c6.91 0 12.5-5.596 12.5-12.5v-50Zm-12.5-7.083h-41.64a7.082 7.082 0 0 0-7.08 7.083v50a7.082 7.082 0 0 0 7.08 7.083h41.64c3.91 0 7.08-3.171 7.08-7.083v-50a7.082 7.082 0 0 0-7.08-7.083Z" clip-rule="evenodd"/><path d="M2038.01 671.064a2.933 2.933 0 0 0 4.21-.084l14.67-14.945c1-1.125.92-2.833-.17-3.833-1.08-1-2.83-.958-3.83.167l-12.88 13.028-6.68-6.244c-1.04-1.042-2.79-1.042-3.84 0-1.04 1.041-1.04 2.791 0 3.833l8.52 8.078Z"/></g></g></g><g id="Medium-S"><g id="Outline / Doc Processing Outline_23"><g id="Shape_23" fill="#000"><path fill-rule="evenodd" d="M1778.34 636c0-6.904-5.59-12.5-12.5-12.5h-41.64c-6.9 0-12.5 5.596-12.5 12.5v50c0 6.904 5.6 12.5 12.5 12.5h41.64c6.91 0 12.5-5.596 12.5-12.5v-50Zm-12.5-7.083h-41.64a7.082 7.082 0 0 0-7.08 7.083v50a7.082 7.082 0 0 0 7.08 7.083h41.64c3.91 0 7.08-3.171 7.08-7.083v-50a7.082 7.082 0 0 0-7.08-7.083Z" clip-rule="evenodd"/><path d="M1742.01 671.064a2.933 2.933 0 0 0 4.21-.084l14.67-14.945c1-1.125.92-2.833-.17-3.833-1.08-1-2.83-.958-3.83.167l-12.88 13.028-6.68-6.244c-1.04-1.042-2.79-1.042-3.84 0-1.04 1.041-1.04 2.791 0 3.833l8.52 8.078Z"/></g></g></g><g id="Regular-S"><g id="Outline / Doc Processing Outline_24"><g id="Shape_24" fill="#000"><path fill-rule="evenodd" d="M1482.34 636c0-6.904-5.59-12.5-12.5-12.5h-41.64c-6.9 0-12.5 5.596-12.5 12.5v50c0 6.904 5.6 12.5 12.5 12.5h41.64c6.91 0 12.5-5.596 12.5-12.5v-50Zm-12.5-7.083h-41.64a7.082 7.082 0 0 0-7.08 7.083v50a7.082 7.082 0 0 0 7.08 7.083h41.64c3.91 0 7.08-3.171 7.08-7.083v-50a7.082 7.082 0 0 0-7.08-7.083Z" clip-rule="evenodd"/><path d="M1446.01 671.064a2.933 2.933 0 0 0 4.21-.084l14.67-14.945c1-1.125.92-2.833-.17-3.833-1.08-1-2.83-.958-3.83.167l-12.88 13.028-6.68-6.244c-1.04-1.042-2.79-1.042-3.84 0-1.04 1.041-1.04 2.791 0 3.833l8.52 8.078Z"/></g></g></g><g id="Light-S"><g id="Outline / Doc Processing Outline_25"><g id="Shape_25" fill="#000"><path fill-rule="evenodd" d="M1186.34 636c0-6.904-5.59-12.5-12.5-12.5h-41.64c-6.9 0-12.5 5.596-12.5 12.5v50c0 6.904 5.6 12.5 12.5 12.5h41.64c6.91 0 12.5-5.596 12.5-12.5v-50Zm-12.5-7.083h-41.64a7.082 7.082 0 0 0-7.08 7.083v50a7.082 7.082 0 0 0 7.08 7.083h41.64c3.91 0 7.08-3.171 7.08-7.083v-50a7.082 7.082 0 0 0-7.08-7.083Z" clip-rule="evenodd"/><path d="M1150.01 671.064a2.933 2.933 0 0 0 4.21-.084l14.67-14.945c1-1.125.92-2.833-.17-3.833-1.08-1-2.83-.958-3.83.167l-12.88 13.028-6.68-6.244c-1.04-1.042-2.79-1.042-3.84 0-1.04 1.041-1.04 2.791 0 3.833l8.52 8.078Z"/></g></g></g><g id="Thin-S"><g id="Outline / Doc Processing Outline_26"><g id="Shape_26" fill="#000"><path fill-rule="evenodd" d="M890.342 636c0-6.904-5.597-12.5-12.5-12.5h-41.639c-6.903 0-12.5 5.596-12.5 12.5v50c0 6.904 5.597 12.5 12.5 12.5h41.639c6.903 0 12.5-5.596 12.5-12.5v-50Zm-12.5-7.083h-41.639A7.083 7.083 0 0 0 829.12 636v50a7.083 7.083 0 0 0 7.083 7.083h41.639a7.083 7.083 0 0 0 7.083-7.083v-50a7.083 7.083 0 0 0-7.083-7.083Z" clip-rule="evenodd"/><path d="M854.012 671.064a2.931 2.931 0 0 0 4.208-.084l14.67-14.945c1-1.125.917-2.833-.167-3.833-1.083-1-2.833-.958-3.833.167l-12.878 13.028-6.685-6.244c-1.042-1.042-2.792-1.042-3.834 0-1.041 1.041-1.041 2.791 0 3.833l8.519 8.078Z"/></g></g></g><g id="Ultralight-S"><g id="Outline / Doc Processing Outline_27"><g id="Shape_27" fill="#000"><path fill-rule="evenodd" d="M594.342 636c0-6.904-5.597-12.5-12.5-12.5h-41.639c-6.903 0-12.5 5.596-12.5 12.5v50c0 6.904 5.597 12.5 12.5 12.5h41.639c6.903 0 12.5-5.596 12.5-12.5v-50Zm-12.5-7.083h-41.639A7.083 7.083 0 0 0 533.12 636v50a7.083 7.083 0 0 0 7.083 7.083h41.639a7.083 7.083 0 0 0 7.083-7.083v-50a7.083 7.083 0 0 0-7.083-7.083Z" clip-rule="evenodd"/><path d="M558.012 671.064a2.931 2.931 0 0 0 4.208-.084l14.67-14.945c1-1.125.917-2.833-.167-3.833-1.083-1-2.833-.958-3.833.167l-12.878 13.028-6.685-6.244c-1.042-1.042-2.792-1.042-3.834 0-1.041 1.041-1.041 2.791 0 3.833l8.519 8.078Z"/></g></g></g></g></g><defs><clipPath id="clip0_0_1"><path fill="#fff" d="M0 0h3300v2200H0z"/></clipPath></defs></svg>