<svg xmlns="http://www.w3.org/2000/svg" width="3300" height="2200" fill="none"><path fill="#E5E5E5" d="M0 0h3300v2200H0z"/><g id="Category / Outline / Bank" clip-path="url(#clip0_0_1)"><g id="Notes"><path id="artboard" fill="#fff" d="M3300 0H0v2200h3300V0Z"/><path id="Vector" stroke="#000" stroke-width=".5" d="M263 292h2773"/><text xml:space="preserve" id="Weight/Scale Variations" fill="#000" font-family="Roboto" font-size="12" letter-spacing="0em" style="white-space:pre"><tspan x="263" y="321.102">Weight/Scale Variations</tspan></text><text xml:space="preserve" id="Ultralight" fill="#000" font-family="Roboto" font-size="12" letter-spacing="0em" style="white-space:pre"><tspan x="535.211" y="321.102">Ultralight</tspan></text><text xml:space="preserve" id="Thin" fill="#000" font-family="Roboto" font-size="12" letter-spacing="0em" style="white-space:pre"><tspan x="844.422" y="321.102">Thin</tspan></text><text xml:space="preserve" id="Light" fill="#000" font-family="Roboto" font-size="12" letter-spacing="0em" style="white-space:pre"><tspan x="1139.63" y="321.102">Light</tspan></text><text xml:space="preserve" id="Regular" fill="#000" font-family="Roboto" font-size="12" letter-spacing="0em" style="white-space:pre"><tspan x="1429.34" y="321.102">Regular</tspan></text><text xml:space="preserve" id="Medium" fill="#000" font-family="Roboto" font-size="12" letter-spacing="0em" style="white-space:pre"><tspan x="1724.56" y="321.102">Medium</tspan></text><text xml:space="preserve" id="Semibold" fill="#000" font-family="Roboto" font-size="12" letter-spacing="0em" style="white-space:pre"><tspan x="2017.77" y="321.102">Semibold</tspan></text><text xml:space="preserve" id="Bold" fill="#000" font-family="Roboto" font-size="12" letter-spacing="0em" style="white-space:pre"><tspan x="2327.48" y="321.102">Bold</tspan></text><text xml:space="preserve" id="Heavy" fill="#000" font-family="Roboto" font-size="12" letter-spacing="0em" style="white-space:pre"><tspan x="2620.19" y="321.102">Heavy</tspan></text><text xml:space="preserve" id="Black" fill="#000" font-family="Roboto" font-size="12" letter-spacing="0em" style="white-space:pre"><tspan x="2918.4" y="321.102">Black</tspan></text><path id="Vector_2" stroke="#000" stroke-width=".5" d="M263 1903h2773"/><g id="Group"><path id="Vector_3" fill="#000" d="M272.248 1933.83c4.307 0 7.891-3.57 7.891-7.88 0-4.31-3.594-7.88-7.901-7.88-4.297 0-7.871 3.57-7.871 7.88 0 4.31 3.584 7.88 7.881 7.88Zm0-1.48c-3.545 0-6.377-2.84-6.377-6.4 0-3.55 2.822-6.4 6.367-6.4a6.388 6.388 0 0 1 6.406 6.4 6.361 6.361 0 0 1-6.396 6.4Zm-.019-2.78c.468 0 .742-.31.742-.83v-2.06h2.226c.498 0 .84-.25.84-.72 0-.48-.322-.74-.84-.74h-2.226v-2.23c0-.52-.274-.84-.742-.84-.469 0-.723.34-.723.84v2.23h-2.207c-.518 0-.85.26-.85.74 0 .47.352.72.85.72h2.207v2.06c0 .5.254.83.723.83Z"/></g><g id="Group_2"><path id="Vector_4" fill="#000" d="M293.215 1935.91c5.449 0 9.961-4.51 9.961-9.96 0-5.44-4.522-9.96-9.971-9.96-5.439 0-9.951 4.52-9.951 9.96 0 5.45 4.521 9.96 9.961 9.96Zm0-1.66a8.26 8.26 0 0 1-8.291-8.3c0-4.6 3.672-8.3 8.281-8.3a8.29 8.29 0 0 1 8.311 8.3 8.263 8.263 0 0 1-8.301 8.3Zm-.02-3.66c.518 0 .83-.36.83-.93v-2.89h3.057c.547 0 .928-.28.928-.8 0-.53-.362-.83-.928-.83h-3.057v-3.07c0-.57-.312-.93-.83-.93-.517 0-.81.38-.81.93v3.07h-3.047c-.567 0-.938.3-.938.83 0 .52.391.8.938.8h3.047v2.89c0 .55.293.93.81.93Z"/></g><g id="Group_3"><path id="Vector_5" fill="#000" d="M319.895 1938.67c6.962 0 12.724-5.75 12.724-12.71 0-6.97-5.771-12.72-12.734-12.72-6.953 0-12.705 5.75-12.705 12.72 0 6.96 5.761 12.71 12.715 12.71Zm0-1.81a10.874 10.874 0 0 1-10.889-10.9c0-6.04 4.844-10.9 10.879-10.9 6.045 0 10.898 4.86 10.908 10.9a10.87 10.87 0 0 1-10.898 10.9Zm-.02-4.93c.566 0 .918-.39.918-.99v-4.07h4.238c.586 0 1.006-.34 1.006-.89 0-.58-.39-.92-1.006-.92h-4.238v-4.25c0-.61-.352-1.01-.918-1.01-.566 0-.889.41-.889 1.01v4.25h-4.228c-.615 0-1.026.34-1.026.92 0 .55.43.89 1.026.89h4.228v4.07c0 .58.323.99.889.99Z"/></g><text xml:space="preserve" id="Design Variations" fill="#000" font-family="Roboto" font-size="12" letter-spacing="0em" style="white-space:pre"><tspan x="263" y="1952.1">Design Variations</tspan></text><text xml:space="preserve" id="Symbols are supported in up to nine weights and three scales." fill="#000" font-family="Roboto" font-size="12" letter-spacing="0em" style="white-space:pre"><tspan x="263" y="1970.1">Symbols are supported in up to nine weights and three scales.</tspan></text><text xml:space="preserve" id="For optimal layout with text and other symbols, vertically align" fill="#000" font-family="Roboto" font-size="12" letter-spacing="0em" style="white-space:pre"><tspan x="263" y="1988.1">For optimal layout with text and other symbols, vertically align</tspan></text><text xml:space="preserve" id="symbols with the adjacent text." fill="#000" font-family="Roboto" font-size="12" letter-spacing="0em" style="white-space:pre"><tspan x="263" y="2006.1">symbols with the adjacent text.</tspan></text><path id="Vector_6" fill="#00AEEF" d="M779 1919h-3v14h3v-14Z" opacity=".4"/><g id="Group_4"><path id="Vector_7" fill="#000" d="M789.527 1933h1.846l-5.195-14.09h-1.739l-5.195 14.09h1.846l1.416-4.04h5.605l1.416 4.04Zm-4.248-11.96h.059l2.256 6.43h-4.571l2.256-6.43Z"/></g><path id="Vector_8" fill="#00AEEF" d="M794.617 1919h-3v14h3v-14Z" opacity=".4"/><text xml:space="preserve" id="Margins" fill="#000" font-family="Roboto" font-size="12" letter-spacing="0em" style="white-space:pre"><tspan x="776" y="1952.1">Margins</tspan></text><text xml:space="preserve" id="Leading and trailing margins on the left and right side of each symbol" fill="#000" font-family="Roboto" font-size="12" letter-spacing="0em" style="white-space:pre"><tspan x="776" y="1970.1">Leading and trailing margins on the left and right side of each symbol</tspan></text><text xml:space="preserve" id="can be adjusted by modifying the width of the blue rectangles." fill="#000" font-family="Roboto" font-size="12" letter-spacing="0em" style="white-space:pre"><tspan x="776" y="1988.1">can be adjusted by modifying the width of the blue rectangles.</tspan></text><text xml:space="preserve" id="Modifications are automatically applied proportionally to all" fill="#000" font-family="Roboto" font-size="12" letter-spacing="0em" style="white-space:pre"><tspan x="776" y="2006.1">Modifications are automatically applied proportionally to all</tspan></text><text xml:space="preserve" id="scales and weights." fill="#000" font-family="Roboto" font-size="12" letter-spacing="0em" style="white-space:pre"><tspan x="776" y="2024.1">scales and weights.</tspan></text><g id="Group_5"><path id="Vector_9" fill="#000" d="m1291.83 1936.11 1.54 1.55c.85.83 1.82.76 2.69-.2l10.21-11.12c.43.29.83.28 1.29.18l1.05-.21.69.69-.05.52c-.06.53.1.95.6 1.45l.81.81c.51.5 1.16.53 1.64.05l3.25-3.25c.48-.48.46-1.13-.05-1.64l-.82-.82c-.49-.5-.91-.67-1.44-.59l-.53.05-.65-.66.28-1.14c.15-.57 0-1.04-.63-1.64l-2.41-2.39c-3.54-3.53-8.07-3.42-11.19-.29-.42.43-.47 1.02-.19 1.45.23.37.71.59 1.35.43 1.52-.38 3.03-.27 4.51.74l-.62 1.58c-.23.59-.22 1.07.02 1.5l-11.16 10.28c-.94.87-1.05 1.81-.19 2.67Zm7.84-18.26c2.67-1.99 5.98-1.68 8.38.73l2.63 2.61c.23.24.26.42.2.72l-.38 1.56 1.58 1.57.96-.09c.29-.03.37-.01.6.22l.62.62-2.75 2.75-.63-.62c-.22-.22-.24-.32-.21-.6l.09-.96-1.57-1.56-1.62.31c-.28.06-.43.06-.66-.19l-2.18-2.17c-.22-.24-.25-.38-.12-.7l.94-2.27c-1.6-1.54-3.71-2.39-5.75-1.73-.09.03-.16.01-.19-.03-.02-.05-.02-.1.06-.17Zm-6.57 17.56c-.49-.5-.31-.8.02-1.1l10.96-10.12 1.23 1.23-10.16 10.93c-.3.33-.68.43-1.08.03l-.97-.97Z"/></g><text xml:space="preserve" id="Exporting" fill="#000" font-family="Roboto" font-size="12" letter-spacing="0em" style="white-space:pre"><tspan x="1289" y="1952.1">Exporting</tspan></text><text xml:space="preserve" id="Symbols should be outlined when exporting to ensure the" fill="#000" font-family="Roboto" font-size="12" letter-spacing="0em" style="white-space:pre"><tspan x="1289" y="1970.1">Symbols should be outlined when exporting to ensure the</tspan></text><text xml:space="preserve" id="design is preserved when submitting to Xcode." fill="#000" font-family="Roboto" font-size="12" letter-spacing="0em" style="white-space:pre"><tspan x="1289" y="1988.1">design is preserved when submitting to Xcode.</tspan></text><text xml:space="preserve" id="template-version" fill="#000" font-family="Roboto" font-size="12" letter-spacing="0em" style="white-space:pre"><tspan x="2958" y="1932.1">Template v.1.0</tspan></text><text xml:space="preserve" id="Generated from pencil.circle" fill="#000" font-family="Roboto" font-size="12" letter-spacing="0em" style="white-space:pre"><tspan x="2885" y="1950.1">Generated from pencil.circle</tspan></text><text xml:space="preserve" id="Typeset at 100 points" fill="#000" font-family="Roboto" font-size="12" letter-spacing="0em" style="white-space:pre"><tspan x="2921" y="1968.1">Typeset at 100 points</tspan></text><text xml:space="preserve" id="Small" fill="#000" font-family="Roboto" font-size="12" letter-spacing="0em" style="white-space:pre"><tspan x="263" y="725.102">Small</tspan></text><text xml:space="preserve" id="Medium_2" fill="#000" font-family="Roboto" font-size="12" letter-spacing="0em" style="white-space:pre"><tspan x="263" y="1155.1">Medium</tspan></text><text xml:space="preserve" id="Large" fill="#000" font-family="Roboto" font-size="12" letter-spacing="0em" style="white-space:pre"><tspan x="263" y="1585.1">Large</tspan></text></g><g id="Guides"><g id="H-reference"><path id="Vector_10" fill="#27AAE1" d="M393.932 695.998h2.734l-27.1-70.459h-2.49l-27.099 70.459h2.685l9.278-24.463h32.763l9.229 24.463Zm-25.733-67.09h.244l15.381 40.381h-31.006l15.381-40.381Z"/></g><path id="Baseline-S" stroke="#27AAE1" stroke-width=".577" d="M263 696h2773"/><path id="Capline-S" stroke="#27AAE1" stroke-width=".577" d="M263 626h2773"/><g id="H-reference_2"><path id="Vector_11" fill="#27AAE1" d="M393.932 1126h2.734l-27.1-70.46h-2.49L339.977 1126h2.685l9.278-24.46h32.763l9.229 24.46Zm-25.733-67.09h.244l15.381 40.38h-31.006l15.381-40.38Z"/></g><path id="Baseline-M" stroke="#27AAE1" stroke-width=".577" d="M263 1126h2773"/><path id="Capline-M" stroke="#27AAE1" stroke-width=".577" d="M263 1056h2773"/><g id="H-reference_3"><path id="Vector_12" fill="#27AAE1" d="M393.932 1556h2.734l-27.1-70.46h-2.49L339.977 1556h2.685l9.278-24.46h32.763l9.229 24.46Zm-25.733-67.09h.244l15.381 40.38h-31.006l15.381-40.38Z"/></g><g id="Group 1" stroke="#27AAE1" stroke-width=".577"><path id="Baseline-L" d="M263 1556h2773"/><path id="Capline-L" d="M263 1486h2773"/></g><path id="left-margin" fill="#00AEEF" d="M1401.04 1030.79h-8.74v119.33h8.74v-119.33Z" opacity=".4"/><path id="right-margin" fill="#00AEEF" d="M1505.39 1030.79h-8.74v119.33h8.74v-119.33Z" opacity=".4"/></g><g id="Symbols"><g id="Black-L"><g id="Outline / Bank Outline"><g id="Shape" fill="#000"><path fill-rule="evenodd" d="M2934.36 1455.22c-3.32-2.1-7.55-2.1-10.86.01l-50.27 31.97c-8.55 5.44-4.7 18.67 5.43 18.67h100.65c10.13 0 13.98-13.24 5.42-18.67l-50.37-31.98Zm-5.63 8.23c.12-.07.28-.08.4 0l50.38 31.98c.1.07.14.11.15.12l.01.02.01.02c.01.03.03.13-.01.26-.04.14-.11.21-.13.23l-.02.01-.02.01c-.02 0-.07.02-.19.02h-100.65c-.12 0-.18-.02-.19-.02l-.04-.02c-.03-.02-.09-.09-.13-.23a.457.457 0 0 1-.01-.26s.01-.02.02-.03c.01-.02.05-.06.15-.13l50.27-31.98Z" clip-rule="evenodd"/><path d="M2929 1515.54a4.87 4.87 0 0 1 4.87 4.87v36.62a4.87 4.87 0 0 1-4.87 4.87c-2.69 0-4.88-2.18-4.88-4.87v-36.62c0-2.69 2.19-4.87 4.88-4.87ZM2868.9 1576.49c0-2.69 2.18-4.87 4.88-4.87h110.44c2.69 0 4.88 2.18 4.88 4.87 0 2.7-2.19 4.88-4.88 4.88h-110.44c-2.7 0-4.88-2.18-4.88-4.88ZM2901.12 1520.41c0-2.69-2.18-4.87-4.88-4.87a4.87 4.87 0 0 0-4.87 4.87v36.62a4.87 4.87 0 0 0 4.87 4.87c2.7 0 4.88-2.18 4.88-4.87v-36.62ZM2961.75 1515.54c2.7 0 4.88 2.18 4.88 4.87v36.62c0 2.69-2.18 4.87-4.88 4.87a4.87 4.87 0 0 1-4.87-4.87v-36.62a4.87 4.87 0 0 1 4.87-4.87Z"/></g></g></g><g id="Heavy-L"><g id="Outline / Bank Outline_2"><g id="Shape_2" fill="#000"><path fill-rule="evenodd" d="M2638.36 1455.22c-3.32-2.1-7.55-2.1-10.86.01l-50.27 31.97c-8.55 5.44-4.7 18.67 5.43 18.67h100.65c10.13 0 13.98-13.24 5.42-18.67l-50.37-31.98Zm-5.63 8.23c.12-.07.28-.08.4 0l50.38 31.98c.1.07.14.11.15.12l.01.02.01.02c.01.03.03.13-.01.26-.04.14-.11.21-.13.23l-.02.01-.02.01c-.02 0-.07.02-.19.02h-100.65c-.12 0-.18-.02-.19-.02l-.04-.02c-.03-.02-.09-.09-.13-.23a.457.457 0 0 1-.01-.26s.01-.02.02-.03c.01-.02.05-.06.15-.13l50.27-31.98Z" clip-rule="evenodd"/><path d="M2633 1515.54a4.87 4.87 0 0 1 4.87 4.87v36.62a4.87 4.87 0 0 1-4.87 4.87c-2.69 0-4.88-2.18-4.88-4.87v-36.62c0-2.69 2.19-4.87 4.88-4.87ZM2572.9 1576.49c0-2.69 2.18-4.87 4.88-4.87h110.44c2.69 0 4.88 2.18 4.88 4.87 0 2.7-2.19 4.88-4.88 4.88h-110.44c-2.7 0-4.88-2.18-4.88-4.88ZM2605.12 1520.41c0-2.69-2.18-4.87-4.88-4.87a4.87 4.87 0 0 0-4.87 4.87v36.62a4.87 4.87 0 0 0 4.87 4.87c2.7 0 4.88-2.18 4.88-4.87v-36.62ZM2665.75 1515.54c2.7 0 4.88 2.18 4.88 4.87v36.62c0 2.69-2.18 4.87-4.88 4.87a4.87 4.87 0 0 1-4.87-4.87v-36.62a4.87 4.87 0 0 1 4.87-4.87Z"/></g></g></g><g id="Bold-L"><g id="Outline / Bank Outline_3"><g id="Shape_3" fill="#000"><path fill-rule="evenodd" d="M2342.36 1455.22c-3.32-2.1-7.55-2.1-10.86.01l-50.27 31.97c-8.55 5.44-4.7 18.67 5.43 18.67h100.65c10.13 0 13.98-13.24 5.42-18.67l-50.37-31.98Zm-5.63 8.23c.12-.07.28-.08.4 0l50.38 31.98c.1.07.14.11.15.12l.01.02.01.02c.01.03.03.13-.01.26-.04.14-.11.21-.13.23l-.02.01-.02.01c-.02 0-.07.02-.19.02h-100.65c-.12 0-.18-.02-.19-.02l-.04-.02c-.03-.02-.09-.09-.13-.23a.457.457 0 0 1-.01-.26s.01-.02.02-.03c.01-.02.05-.06.15-.13l50.27-31.98Z" clip-rule="evenodd"/><path d="M2337 1515.54a4.87 4.87 0 0 1 4.87 4.87v36.62a4.87 4.87 0 0 1-4.87 4.87c-2.69 0-4.88-2.18-4.88-4.87v-36.62c0-2.69 2.19-4.87 4.88-4.87ZM2276.9 1576.49c0-2.69 2.18-4.87 4.88-4.87h110.44c2.69 0 4.88 2.18 4.88 4.87 0 2.7-2.19 4.88-4.88 4.88h-110.44c-2.7 0-4.88-2.18-4.88-4.88ZM2309.12 1520.41c0-2.69-2.18-4.87-4.88-4.87a4.87 4.87 0 0 0-4.87 4.87v36.62a4.87 4.87 0 0 0 4.87 4.87c2.7 0 4.88-2.18 4.88-4.87v-36.62ZM2369.75 1515.54c2.7 0 4.88 2.18 4.88 4.87v36.62c0 2.69-2.18 4.87-4.88 4.87a4.87 4.87 0 0 1-4.87-4.87v-36.62a4.87 4.87 0 0 1 4.87-4.87Z"/></g></g></g><g id="Semibold-L"><g id="Outline / Bank Outline_4"><g id="Shape_4" fill="#000"><path fill-rule="evenodd" d="M2046.36 1455.22c-3.32-2.1-7.55-2.1-10.86.01l-50.27 31.97c-8.55 5.44-4.7 18.67 5.43 18.67h100.65c10.13 0 13.98-13.24 5.42-18.67l-50.37-31.98Zm-5.63 8.23c.12-.07.28-.08.4 0l50.38 31.98c.1.07.14.11.15.12l.01.02.01.02c.01.03.03.13-.01.26-.04.14-.11.21-.13.23l-.02.01-.02.01c-.02 0-.07.02-.19.02h-100.65c-.12 0-.18-.02-.19-.02l-.04-.02c-.03-.02-.09-.09-.13-.23a.457.457 0 0 1-.01-.26s.01-.02.02-.03c.01-.02.05-.06.15-.13l50.27-31.98Z" clip-rule="evenodd"/><path d="M2041 1515.54a4.87 4.87 0 0 1 4.87 4.87v36.62a4.87 4.87 0 0 1-4.87 4.87c-2.69 0-4.88-2.18-4.88-4.87v-36.62c0-2.69 2.19-4.87 4.88-4.87ZM1980.9 1576.49c0-2.69 2.18-4.87 4.88-4.87h110.44c2.69 0 4.88 2.18 4.88 4.87 0 2.7-2.19 4.88-4.88 4.88h-110.44c-2.7 0-4.88-2.18-4.88-4.88ZM2013.12 1520.41c0-2.69-2.18-4.87-4.88-4.87a4.87 4.87 0 0 0-4.87 4.87v36.62a4.87 4.87 0 0 0 4.87 4.87c2.7 0 4.88-2.18 4.88-4.87v-36.62ZM2073.75 1515.54c2.7 0 4.88 2.18 4.88 4.87v36.62c0 2.69-2.18 4.87-4.88 4.87a4.87 4.87 0 0 1-4.87-4.87v-36.62a4.87 4.87 0 0 1 4.87-4.87Z"/></g></g></g><g id="Medium-L"><g id="Outline / Bank Outline_5"><g id="Shape_5" fill="#000"><path fill-rule="evenodd" d="M1750.36 1455.22c-3.32-2.1-7.55-2.1-10.86.01l-50.27 31.97c-8.55 5.44-4.7 18.67 5.43 18.67h100.65c10.13 0 13.98-13.24 5.42-18.67l-50.37-31.98Zm-5.63 8.23c.12-.07.28-.08.4 0l50.38 31.98c.1.07.14.11.15.12l.01.02.01.02c.01.03.03.13-.01.26-.04.14-.11.21-.13.23l-.02.01-.02.01c-.02 0-.07.02-.19.02h-100.65c-.12 0-.18-.02-.19-.02l-.04-.02c-.03-.02-.09-.09-.13-.23a.457.457 0 0 1-.01-.26s.01-.02.02-.03c.01-.02.05-.06.15-.13l50.27-31.98Z" clip-rule="evenodd"/><path d="M1745 1515.54a4.87 4.87 0 0 1 4.87 4.87v36.62a4.87 4.87 0 0 1-4.87 4.87c-2.69 0-4.88-2.18-4.88-4.87v-36.62c0-2.69 2.19-4.87 4.88-4.87ZM1684.9 1576.49c0-2.69 2.18-4.87 4.88-4.87h110.44c2.69 0 4.88 2.18 4.88 4.87 0 2.7-2.19 4.88-4.88 4.88h-110.44c-2.7 0-4.88-2.18-4.88-4.88ZM1717.12 1520.41c0-2.69-2.18-4.87-4.88-4.87a4.87 4.87 0 0 0-4.87 4.87v36.62a4.87 4.87 0 0 0 4.87 4.87c2.7 0 4.88-2.18 4.88-4.87v-36.62ZM1777.75 1515.54c2.7 0 4.88 2.18 4.88 4.87v36.62c0 2.69-2.18 4.87-4.88 4.87a4.87 4.87 0 0 1-4.87-4.87v-36.62a4.87 4.87 0 0 1 4.87-4.87Z"/></g></g></g><g id="Regular-L"><g id="Outline / Bank Outline_6"><g id="Shape_6" fill="#000"><path fill-rule="evenodd" d="M1454.36 1455.22c-3.32-2.1-7.55-2.1-10.86.01l-50.27 31.97c-8.55 5.44-4.7 18.67 5.43 18.67h100.65c10.13 0 13.98-13.24 5.42-18.67l-50.37-31.98Zm-5.63 8.23c.12-.07.28-.08.4 0l50.38 31.98c.1.07.14.11.15.12l.01.02.01.02c.01.03.03.13-.01.26-.04.14-.11.21-.13.23l-.02.01-.02.01c-.02 0-.07.02-.19.02h-100.65c-.12 0-.18-.02-.19-.02l-.04-.02c-.03-.02-.09-.09-.13-.23a.457.457 0 0 1-.01-.26s.01-.02.02-.03c.01-.02.05-.06.15-.13l50.27-31.98Z" clip-rule="evenodd"/><path d="M1449 1515.54a4.87 4.87 0 0 1 4.87 4.87v36.62a4.87 4.87 0 0 1-4.87 4.87c-2.69 0-4.88-2.18-4.88-4.87v-36.62c0-2.69 2.19-4.87 4.88-4.87ZM1388.9 1576.49c0-2.69 2.18-4.87 4.88-4.87h110.44c2.69 0 4.88 2.18 4.88 4.87 0 2.7-2.19 4.88-4.88 4.88h-110.44c-2.7 0-4.88-2.18-4.88-4.88ZM1421.12 1520.41c0-2.69-2.18-4.87-4.88-4.87a4.87 4.87 0 0 0-4.87 4.87v36.62a4.87 4.87 0 0 0 4.87 4.87c2.7 0 4.88-2.18 4.88-4.87v-36.62ZM1481.75 1515.54c2.7 0 4.88 2.18 4.88 4.87v36.62c0 2.69-2.18 4.87-4.88 4.87a4.87 4.87 0 0 1-4.87-4.87v-36.62a4.87 4.87 0 0 1 4.87-4.87Z"/></g></g></g><g id="Light-L"><g id="Outline / Bank Outline_7"><g id="Shape_7" fill="#000"><path fill-rule="evenodd" d="M1158.36 1455.22c-3.32-2.1-7.55-2.1-10.86.01l-50.27 31.97c-8.55 5.44-4.7 18.67 5.43 18.67h100.65c10.13 0 13.98-13.24 5.42-18.67l-50.37-31.98Zm-5.63 8.23c.12-.07.28-.08.4 0l50.38 31.98c.1.07.14.11.15.12l.01.02.01.02c.01.03.03.13-.01.26-.04.14-.11.21-.13.23l-.02.01-.02.01c-.02 0-.07.02-.19.02h-100.65c-.12 0-.18-.02-.19-.02l-.04-.02c-.03-.02-.09-.09-.13-.23a.457.457 0 0 1-.01-.26s.01-.02.02-.03c.01-.02.05-.06.15-.13l50.27-31.98Z" clip-rule="evenodd"/><path d="M1153 1515.54a4.87 4.87 0 0 1 4.87 4.87v36.62a4.87 4.87 0 0 1-4.87 4.87c-2.69 0-4.88-2.18-4.88-4.87v-36.62c0-2.69 2.19-4.87 4.88-4.87ZM1092.9 1576.49c0-2.69 2.18-4.87 4.88-4.87h110.44c2.69 0 4.88 2.18 4.88 4.87 0 2.7-2.19 4.88-4.88 4.88h-110.44c-2.7 0-4.88-2.18-4.88-4.88ZM1125.12 1520.41c0-2.69-2.18-4.87-4.88-4.87a4.87 4.87 0 0 0-4.87 4.87v36.62a4.87 4.87 0 0 0 4.87 4.87c2.7 0 4.88-2.18 4.88-4.87v-36.62ZM1185.75 1515.54c2.7 0 4.88 2.18 4.88 4.87v36.62c0 2.69-2.18 4.87-4.88 4.87a4.87 4.87 0 0 1-4.87-4.87v-36.62a4.87 4.87 0 0 1 4.87-4.87Z"/></g></g></g><g id="Thin-L"><g id="Outline / Bank Outline_8"><g id="Shape_8" fill="#000"><path fill-rule="evenodd" d="M862.357 1455.22a10.127 10.127 0 0 0-10.86.01l-50.272 31.97c-8.547 5.44-4.696 18.67 5.435 18.67h100.647c10.136 0 13.983-13.24 5.426-18.67l-50.376-31.98Zm-5.627 8.23a.387.387 0 0 1 .402 0l50.376 31.98c.101.07.14.11.15.12l.012.02.008.02c.011.03.028.13-.011.26a.442.442 0 0 1-.131.23l-.02.01-.016.01c-.015 0-.073.02-.193.02H806.66c-.12 0-.177-.02-.193-.02l-.036-.02a.442.442 0 0 1-.131-.23.461.461 0 0 1-.011-.26s.009-.02.02-.03c.01-.02.048-.06.15-.13l50.271-31.98Z" clip-rule="evenodd"/><path d="M856.999 1515.54a4.872 4.872 0 0 1 4.875 4.87v36.62c0 2.69-2.182 4.87-4.875 4.87a4.873 4.873 0 0 1-4.875-4.87v-36.62c0-2.69 2.183-4.87 4.875-4.87ZM796.901 1576.49c0-2.69 2.183-4.87 4.875-4.87h110.446a4.872 4.872 0 0 1 4.875 4.87c0 2.7-2.182 4.88-4.875 4.88H801.776a4.875 4.875 0 0 1-4.875-4.88ZM829.12 1520.41c0-2.69-2.183-4.87-4.875-4.87a4.873 4.873 0 0 0-4.875 4.87v36.62c0 2.69 2.183 4.87 4.875 4.87a4.873 4.873 0 0 0 4.875-4.87v-36.62ZM889.754 1515.54a4.872 4.872 0 0 1 4.875 4.87v36.62c0 2.69-2.182 4.87-4.875 4.87a4.873 4.873 0 0 1-4.875-4.87v-36.62c0-2.69 2.183-4.87 4.875-4.87Z"/></g></g></g><g id="Ultralight-L"><g id="Outline / Bank Outline_9"><g id="Shape_9" fill="#000"><path fill-rule="evenodd" d="M566.357 1455.22a10.127 10.127 0 0 0-10.86.01l-50.272 31.97c-8.547 5.44-4.696 18.67 5.435 18.67h100.647c10.136 0 13.983-13.24 5.426-18.67l-50.376-31.98Zm-5.627 8.23a.387.387 0 0 1 .402 0l50.376 31.98c.101.07.14.11.15.12l.012.02.008.02c.011.03.028.13-.011.26a.442.442 0 0 1-.131.23l-.02.01-.016.01c-.015 0-.073.02-.193.02H510.66c-.12 0-.177-.02-.193-.02a1.014 1.014 0 0 0-.036-.02.442.442 0 0 1-.131-.23.461.461 0 0 1-.011-.26s.009-.02.02-.03c.01-.02.048-.06.15-.13l50.271-31.98Z" clip-rule="evenodd"/><path d="M560.999 1515.54a4.872 4.872 0 0 1 4.875 4.87v36.62c0 2.69-2.182 4.87-4.875 4.87a4.873 4.873 0 0 1-4.875-4.87v-36.62c0-2.69 2.183-4.87 4.875-4.87ZM500.901 1576.49c0-2.69 2.183-4.87 4.875-4.87h110.446a4.872 4.872 0 0 1 4.875 4.87c0 2.7-2.182 4.88-4.875 4.88H505.776a4.875 4.875 0 0 1-4.875-4.88ZM533.12 1520.41c0-2.69-2.183-4.87-4.875-4.87a4.873 4.873 0 0 0-4.875 4.87v36.62c0 2.69 2.183 4.87 4.875 4.87a4.873 4.873 0 0 0 4.875-4.87v-36.62ZM593.754 1515.54a4.872 4.872 0 0 1 4.875 4.87v36.62c0 2.69-2.182 4.87-4.875 4.87a4.873 4.873 0 0 1-4.875-4.87v-36.62c0-2.69 2.183-4.87 4.875-4.87Z"/></g></g></g><g id="Black-M"><g id="Outline / Bank Outline_10"><g id="Shape_10" fill="#000"><path fill-rule="evenodd" d="M2933.17 1039.84a7.871 7.871 0 0 0-8.45 0l-39.1 24.88c-6.65 4.22-3.65 14.52 4.23 14.52h78.28c7.88 0 10.87-10.3 4.22-14.53l-39.18-24.87Zm-4.38 6.4c.1-.06.22-.06.31 0l39.18 24.87c.08.05.11.09.12.1l.01.01.01.02c0 .02.02.1-.01.2-.03.11-.08.16-.1.18l-.02.01h-.01c-.01.01-.06.02-.15.02h-78.28c-.1 0-.14-.01-.15-.02-.02 0-.03-.01-.03-.01-.02-.02-.07-.07-.1-.18a.345.345 0 0 1-.01-.2s0-.02.01-.03c.01-.01.04-.05.12-.1l39.1-24.87Z" clip-rule="evenodd"/><path d="M2929 1086.75c2.09 0 3.79 1.7 3.79 3.79v28.48c0 2.1-1.7 3.8-3.79 3.8s-3.79-1.7-3.79-3.8v-28.48c0-2.09 1.7-3.79 3.79-3.79ZM2882.26 1134.16c0-2.09 1.69-3.79 3.79-3.79h85.9c2.09 0 3.79 1.7 3.79 3.79 0 2.1-1.7 3.79-3.79 3.79h-85.9c-2.1 0-3.79-1.69-3.79-3.79ZM2907.32 1090.54a3.796 3.796 0 0 0-7.59 0v28.48c0 2.1 1.7 3.8 3.79 3.8 2.1 0 3.8-1.7 3.8-3.8v-28.48ZM2954.48 1086.75c2.09 0 3.79 1.7 3.79 3.79v28.48c0 2.1-1.7 3.8-3.79 3.8-2.1 0-3.8-1.7-3.8-3.8v-28.48c0-2.09 1.7-3.79 3.8-3.79Z"/></g></g></g><g id="Heavy-M"><g id="Outline / Bank Outline_11"><g id="Shape_11" fill="#000"><path fill-rule="evenodd" d="M2637.17 1039.84a7.871 7.871 0 0 0-8.45 0l-39.1 24.88c-6.65 4.22-3.65 14.52 4.23 14.52h78.28c7.88 0 10.87-10.3 4.22-14.53l-39.18-24.87Zm-4.38 6.4c.1-.06.22-.06.31 0l39.18 24.87c.08.05.11.09.12.1l.01.01.01.02c0 .02.02.1-.01.2-.03.11-.08.16-.1.18l-.02.01h-.01c-.01.01-.06.02-.15.02h-78.28c-.1 0-.14-.01-.15-.02-.02 0-.03-.01-.03-.01-.02-.02-.07-.07-.1-.18a.345.345 0 0 1-.01-.2s0-.02.01-.03c.01-.01.04-.05.12-.1l39.1-24.87Z" clip-rule="evenodd"/><path d="M2633 1086.75c2.09 0 3.79 1.7 3.79 3.79v28.48c0 2.1-1.7 3.8-3.79 3.8s-3.79-1.7-3.79-3.8v-28.48c0-2.09 1.7-3.79 3.79-3.79ZM2586.26 1134.16c0-2.09 1.69-3.79 3.79-3.79h85.9c2.09 0 3.79 1.7 3.79 3.79 0 2.1-1.7 3.79-3.79 3.79h-85.9c-2.1 0-3.79-1.69-3.79-3.79ZM2611.32 1090.54a3.796 3.796 0 0 0-7.59 0v28.48c0 2.1 1.7 3.8 3.79 3.8 2.1 0 3.8-1.7 3.8-3.8v-28.48ZM2658.48 1086.75c2.09 0 3.79 1.7 3.79 3.79v28.48c0 2.1-1.7 3.8-3.79 3.8-2.1 0-3.8-1.7-3.8-3.8v-28.48c0-2.09 1.7-3.79 3.8-3.79Z"/></g></g></g><g id="Bold-M"><g id="Outline / Bank Outline_12"><g id="Shape_12" fill="#000"><path fill-rule="evenodd" d="M2341.17 1039.84a7.871 7.871 0 0 0-8.45 0l-39.1 24.88c-6.65 4.22-3.65 14.52 4.23 14.52h78.28c7.88 0 10.87-10.3 4.22-14.53l-39.18-24.87Zm-4.38 6.4c.1-.06.22-.06.31 0l39.18 24.87c.08.05.11.09.12.1l.01.01.01.02c0 .02.02.1-.01.2-.03.11-.08.16-.1.18l-.02.01h-.01c-.01.01-.06.02-.15.02h-78.28c-.1 0-.14-.01-.15-.02-.02 0-.03-.01-.03-.01-.02-.02-.07-.07-.1-.18a.345.345 0 0 1-.01-.2s0-.02.01-.03c.01-.01.04-.05.12-.1l39.1-24.87Z" clip-rule="evenodd"/><path d="M2337 1086.75c2.09 0 3.79 1.7 3.79 3.79v28.48c0 2.1-1.7 3.8-3.79 3.8s-3.79-1.7-3.79-3.8v-28.48c0-2.09 1.7-3.79 3.79-3.79ZM2290.26 1134.16c0-2.09 1.69-3.79 3.79-3.79h85.9c2.09 0 3.79 1.7 3.79 3.79 0 2.1-1.7 3.79-3.79 3.79h-85.9c-2.1 0-3.79-1.69-3.79-3.79ZM2315.32 1090.54a3.796 3.796 0 0 0-7.59 0v28.48c0 2.1 1.7 3.8 3.79 3.8 2.1 0 3.8-1.7 3.8-3.8v-28.48ZM2362.48 1086.75c2.09 0 3.79 1.7 3.79 3.79v28.48c0 2.1-1.7 3.8-3.79 3.8-2.1 0-3.8-1.7-3.8-3.8v-28.48c0-2.09 1.7-3.79 3.8-3.79Z"/></g></g></g><g id="Semibold-M"><g id="Outline / Bank Outline_13"><g id="Shape_13" fill="#000"><path fill-rule="evenodd" d="M2045.17 1039.84a7.871 7.871 0 0 0-8.45 0l-39.1 24.88c-6.65 4.22-3.65 14.52 4.23 14.52h78.28c7.88 0 10.87-10.3 4.22-14.53l-39.18-24.87Zm-4.38 6.4c.1-.06.22-.06.31 0l39.18 24.87c.08.05.11.09.12.1l.01.01.01.02c0 .02.02.1-.01.2-.03.11-.08.16-.1.18l-.02.01h-.01c-.01.01-.06.02-.15.02h-78.28c-.1 0-.14-.01-.15-.02-.02 0-.03-.01-.03-.01-.02-.02-.07-.07-.1-.18a.345.345 0 0 1-.01-.2s0-.02.01-.03c.01-.01.04-.05.12-.1l39.1-24.87Z" clip-rule="evenodd"/><path d="M2041 1086.75c2.09 0 3.79 1.7 3.79 3.79v28.48c0 2.1-1.7 3.8-3.79 3.8s-3.79-1.7-3.79-3.8v-28.48c0-2.09 1.7-3.79 3.79-3.79ZM1994.26 1134.16c0-2.09 1.69-3.79 3.79-3.79h85.9c2.09 0 3.79 1.7 3.79 3.79 0 2.1-1.7 3.79-3.79 3.79h-85.9c-2.1 0-3.79-1.69-3.79-3.79ZM2019.32 1090.54a3.796 3.796 0 0 0-7.59 0v28.48c0 2.1 1.7 3.8 3.79 3.8 2.1 0 3.8-1.7 3.8-3.8v-28.48ZM2066.48 1086.75c2.09 0 3.79 1.7 3.79 3.79v28.48c0 2.1-1.7 3.8-3.79 3.8-2.1 0-3.8-1.7-3.8-3.8v-28.48c0-2.09 1.7-3.79 3.8-3.79Z"/></g></g></g><g id="Medium-M"><g id="Outline / Bank Outline_14"><g id="Shape_14" fill="#000"><path fill-rule="evenodd" d="M1749.17 1039.84a7.871 7.871 0 0 0-8.45 0l-39.1 24.88c-6.65 4.22-3.65 14.52 4.23 14.52h78.28c7.88 0 10.87-10.3 4.22-14.53l-39.18-24.87Zm-4.38 6.4c.1-.06.22-.06.31 0l39.18 24.87c.08.05.11.09.12.1l.01.01.01.02c0 .02.02.1-.01.2-.03.11-.08.16-.1.18l-.02.01h-.01c-.01.01-.06.02-.15.02h-78.28c-.1 0-.14-.01-.15-.02-.02 0-.03-.01-.03-.01-.02-.02-.07-.07-.1-.18a.345.345 0 0 1-.01-.2s0-.02.01-.03c.01-.01.04-.05.12-.1l39.1-24.87Z" clip-rule="evenodd"/><path d="M1745 1086.75c2.09 0 3.79 1.7 3.79 3.79v28.48c0 2.1-1.7 3.8-3.79 3.8s-3.79-1.7-3.79-3.8v-28.48c0-2.09 1.7-3.79 3.79-3.79ZM1698.26 1134.16c0-2.09 1.69-3.79 3.79-3.79h85.9c2.09 0 3.79 1.7 3.79 3.79 0 2.1-1.7 3.79-3.79 3.79h-85.9c-2.1 0-3.79-1.69-3.79-3.79ZM1723.32 1090.54a3.796 3.796 0 0 0-7.59 0v28.48c0 2.1 1.7 3.8 3.79 3.8 2.1 0 3.8-1.7 3.8-3.8v-28.48ZM1770.48 1086.75c2.09 0 3.79 1.7 3.79 3.79v28.48c0 2.1-1.7 3.8-3.79 3.8-2.1 0-3.8-1.7-3.8-3.8v-28.48c0-2.09 1.7-3.79 3.8-3.79Z"/></g></g></g><g id="Regular-M"><g id="Outline / Bank Outline_15"><g id="Shape_15" fill="#000"><path fill-rule="evenodd" d="M1453.17 1039.84a7.871 7.871 0 0 0-8.45 0l-39.1 24.88c-6.65 4.22-3.65 14.52 4.23 14.52h78.28c7.88 0 10.87-10.3 4.22-14.53l-39.18-24.87Zm-4.38 6.4c.1-.06.22-.06.31 0l39.18 24.87c.08.05.11.09.12.1l.01.01.01.02c0 .02.02.1-.01.2-.03.11-.08.16-.1.18l-.02.01h-.01c-.01.01-.06.02-.15.02h-78.28c-.1 0-.14-.01-.15-.02-.02 0-.03-.01-.03-.01-.02-.02-.07-.07-.1-.18a.345.345 0 0 1-.01-.2s0-.02.01-.03c.01-.01.04-.05.12-.1l39.1-24.87Z" clip-rule="evenodd"/><path d="M1449 1086.75c2.09 0 3.79 1.7 3.79 3.79v28.48c0 2.1-1.7 3.8-3.79 3.8s-3.79-1.7-3.79-3.8v-28.48c0-2.09 1.7-3.79 3.79-3.79ZM1402.26 1134.16c0-2.09 1.69-3.79 3.79-3.79h85.9c2.09 0 3.79 1.7 3.79 3.79 0 2.1-1.7 3.79-3.79 3.79h-85.9c-2.1 0-3.79-1.69-3.79-3.79ZM1427.32 1090.54a3.796 3.796 0 0 0-7.59 0v28.48c0 2.1 1.7 3.8 3.79 3.8 2.1 0 3.8-1.7 3.8-3.8v-28.48ZM1474.48 1086.75c2.09 0 3.79 1.7 3.79 3.79v28.48c0 2.1-1.7 3.8-3.79 3.8-2.1 0-3.8-1.7-3.8-3.8v-28.48c0-2.09 1.7-3.79 3.8-3.79Z"/></g></g></g><g id="Light-M"><g id="Outline / Bank Outline_16"><g id="Shape_16" fill="#000"><path fill-rule="evenodd" d="M1157.17 1039.84a7.871 7.871 0 0 0-8.45 0l-39.1 24.88c-6.65 4.22-3.65 14.52 4.23 14.52h78.28c7.88 0 10.87-10.3 4.22-14.53l-39.18-24.87Zm-4.38 6.4c.1-.06.22-.06.31 0l39.18 24.87c.08.05.11.09.12.1l.01.01.01.02c0 .02.02.1-.01.2-.03.11-.08.16-.1.18l-.02.01h-.01c-.01.01-.06.02-.15.02h-78.28c-.1 0-.14-.01-.15-.02-.02 0-.03-.01-.03-.01-.02-.02-.07-.07-.1-.18a.345.345 0 0 1-.01-.2s0-.02.01-.03c.01-.01.04-.05.12-.1l39.1-24.87Z" clip-rule="evenodd"/><path d="M1153 1086.75c2.09 0 3.79 1.7 3.79 3.79v28.48c0 2.1-1.7 3.8-3.79 3.8s-3.79-1.7-3.79-3.8v-28.48c0-2.09 1.7-3.79 3.79-3.79ZM1106.26 1134.16c0-2.09 1.69-3.79 3.79-3.79h85.9c2.09 0 3.79 1.7 3.79 3.79 0 2.1-1.7 3.79-3.79 3.79h-85.9c-2.1 0-3.79-1.69-3.79-3.79ZM1131.32 1090.54a3.796 3.796 0 0 0-7.59 0v28.48c0 2.1 1.7 3.8 3.79 3.8 2.1 0 3.8-1.7 3.8-3.8v-28.48ZM1178.48 1086.75c2.09 0 3.79 1.7 3.79 3.79v28.48c0 2.1-1.7 3.8-3.79 3.8-2.1 0-3.8-1.7-3.8-3.8v-28.48c0-2.09 1.7-3.79 3.8-3.79Z"/></g></g></g><g id="Thin-M"><g id="Outline / Bank Outline_17"><g id="Shape_17" fill="#000"><path fill-rule="evenodd" d="M861.167 1039.84a7.868 7.868 0 0 0-8.448 0l-39.1 24.88c-6.648 4.22-3.652 14.52 4.227 14.52h78.281c7.884 0 10.876-10.3 4.221-14.53l-39.181-24.87Zm-4.377 6.4a.293.293 0 0 1 .312 0l39.182 24.87c.078.05.109.09.116.1l.01.01.006.02c.009.02.022.1-.008.2-.031.11-.082.16-.102.18l-.016.01h-.013c-.012.01-.056.02-.15.02h-78.281c-.093 0-.138-.01-.15-.02-.013 0-.028-.01-.028-.01a.372.372 0 0 1-.102-.18.36.36 0 0 1-.009-.2s.008-.02.016-.03c.008-.01.038-.05.117-.1l39.1-24.87Z" clip-rule="evenodd"/><path d="M856.999 1086.75c2.094 0 3.792 1.7 3.792 3.79v28.48c0 2.1-1.698 3.8-3.792 3.8a3.794 3.794 0 0 1-3.791-3.8v-28.48c0-2.09 1.697-3.79 3.791-3.79ZM810.256 1134.16c0-2.09 1.698-3.79 3.792-3.79h85.903c2.094 0 3.791 1.7 3.791 3.79 0 2.1-1.697 3.79-3.791 3.79h-85.903a3.787 3.787 0 0 1-3.792-3.79ZM835.315 1090.54a3.792 3.792 0 0 0-7.583 0v28.48c0 2.1 1.697 3.8 3.792 3.8 2.094 0 3.791-1.7 3.791-3.8v-28.48ZM882.475 1086.75c2.094 0 3.792 1.7 3.792 3.79v28.48c0 2.1-1.698 3.8-3.792 3.8a3.795 3.795 0 0 1-3.792-3.8v-28.48c0-2.09 1.698-3.79 3.792-3.79Z"/></g></g></g><g id="Ultralight-M"><g id="Outline / Bank Outline_18"><g id="Shape_18" fill="#000"><path fill-rule="evenodd" d="M565.167 1039.84a7.868 7.868 0 0 0-8.448 0l-39.1 24.88c-6.648 4.22-3.652 14.52 4.227 14.52h78.281c7.884 0 10.876-10.3 4.221-14.53l-39.181-24.87Zm-4.377 6.4a.293.293 0 0 1 .312 0l39.182 24.87c.078.05.109.09.116.1l.01.01.006.02c.009.02.022.1-.008.2-.031.11-.082.16-.102.18l-.016.01h-.013c-.012.01-.056.02-.15.02h-78.281c-.093 0-.138-.01-.15-.02-.013 0-.028-.01-.028-.01a.372.372 0 0 1-.102-.18.36.36 0 0 1-.009-.2s.008-.02.016-.03c.008-.01.038-.05.117-.1l39.1-24.87Z" clip-rule="evenodd"/><path d="M560.999 1086.75c2.094 0 3.792 1.7 3.792 3.79v28.48c0 2.1-1.698 3.8-3.792 3.8a3.794 3.794 0 0 1-3.791-3.8v-28.48c0-2.09 1.697-3.79 3.791-3.79ZM514.256 1134.16c0-2.09 1.698-3.79 3.792-3.79h85.903c2.094 0 3.791 1.7 3.791 3.79 0 2.1-1.697 3.79-3.791 3.79h-85.903a3.787 3.787 0 0 1-3.792-3.79ZM539.315 1090.54a3.792 3.792 0 0 0-7.583 0v28.48c0 2.1 1.697 3.8 3.792 3.8 2.094 0 3.791-1.7 3.791-3.8v-28.48ZM586.475 1086.75c2.094 0 3.792 1.7 3.792 3.79v28.48c0 2.1-1.698 3.8-3.792 3.8a3.795 3.795 0 0 1-3.792-3.8v-28.48c0-2.09 1.698-3.79 3.792-3.79Z"/></g></g></g><g id="Black-S"><g id="Outline / Bank Outline_19"><g id="Shape_19" fill="#000"><path fill-rule="evenodd" d="M2931.98 624.458a5.636 5.636 0 0 0-6.04.003l-27.93 17.766c-4.74 3.02-2.6 10.371 3.02 10.371h55.92c5.63 0 7.77-7.356 3.01-10.374l-27.98-17.766Zm-3.13 4.573a.204.204 0 0 1 .22 0l27.99 17.766c.06.036.08.061.08.069l.01.009v.011c.01.017.02.07 0 .145-.02.075-.06.114-.07.126l-.02.007v.004c-.01.003-.04.013-.11.013h-55.92c-.06 0-.09-.01-.1-.013-.01-.003-.02-.011-.02-.011-.02-.012-.05-.051-.08-.126-.02-.075-.01-.127 0-.145 0 0 0-.012.01-.02 0-.007.03-.033.08-.069l27.93-17.766Z" clip-rule="evenodd"/><path d="M2929 657.966c1.5 0 2.71 1.213 2.71 2.709v20.343a2.707 2.707 0 0 1-2.71 2.709c-1.5 0-2.71-1.213-2.71-2.709v-20.343a2.707 2.707 0 0 1 2.71-2.709ZM2895.61 691.831a2.707 2.707 0 0 1 2.71-2.708h61.36c1.5 0 2.71 1.212 2.71 2.708a2.707 2.707 0 0 1-2.71 2.709h-61.36c-1.5 0-2.71-1.213-2.71-2.709ZM2913.51 660.675a2.707 2.707 0 0 0-2.71-2.709 2.714 2.714 0 0 0-2.71 2.709v20.343a2.714 2.714 0 0 0 2.71 2.709c1.5 0 2.71-1.213 2.71-2.709v-20.343ZM2947.2 657.966c1.49 0 2.71 1.213 2.71 2.709v20.343a2.714 2.714 0 0 1-2.71 2.709c-1.5 0-2.71-1.213-2.71-2.709v-20.343a2.707 2.707 0 0 1 2.71-2.709Z"/></g></g></g><g id="Heavy-S"><g id="Outline / Bank Outline_20"><g id="Shape_20" fill="#000"><path fill-rule="evenodd" d="M2635.98 624.458a5.636 5.636 0 0 0-6.04.003l-27.93 17.766c-4.74 3.02-2.6 10.371 3.02 10.371h55.92c5.63 0 7.77-7.356 3.01-10.374l-27.98-17.766Zm-3.13 4.573a.204.204 0 0 1 .22 0l27.99 17.766c.06.036.08.061.08.069l.01.009v.011c.01.017.02.07 0 .145-.02.075-.06.114-.07.126l-.02.007v.004c-.01.003-.04.013-.11.013h-55.92c-.06 0-.09-.01-.1-.013-.01-.003-.02-.011-.02-.011-.02-.012-.05-.051-.08-.126-.02-.075-.01-.127 0-.145 0 0 0-.012.01-.02 0-.007.03-.033.08-.069l27.93-17.766Z" clip-rule="evenodd"/><path d="M2633 657.966c1.5 0 2.71 1.213 2.71 2.709v20.343a2.707 2.707 0 0 1-2.71 2.709c-1.5 0-2.71-1.213-2.71-2.709v-20.343a2.707 2.707 0 0 1 2.71-2.709ZM2599.61 691.831a2.707 2.707 0 0 1 2.71-2.708h61.36c1.5 0 2.71 1.212 2.71 2.708a2.707 2.707 0 0 1-2.71 2.709h-61.36c-1.5 0-2.71-1.213-2.71-2.709ZM2617.51 660.675a2.707 2.707 0 0 0-2.71-2.709 2.714 2.714 0 0 0-2.71 2.709v20.343a2.714 2.714 0 0 0 2.71 2.709c1.5 0 2.71-1.213 2.71-2.709v-20.343ZM2651.2 657.966c1.49 0 2.71 1.213 2.71 2.709v20.343a2.714 2.714 0 0 1-2.71 2.709c-1.5 0-2.71-1.213-2.71-2.709v-20.343a2.707 2.707 0 0 1 2.71-2.709Z"/></g></g></g><g id="Bold-S"><g id="Outline / Bank Outline_21"><g id="Shape_21" fill="#000"><path fill-rule="evenodd" d="M2339.98 624.458a5.636 5.636 0 0 0-6.04.003l-27.93 17.766c-4.74 3.02-2.6 10.371 3.02 10.371h55.92c5.63 0 7.77-7.356 3.01-10.374l-27.98-17.766Zm-3.13 4.573a.204.204 0 0 1 .22 0l27.99 17.766c.06.036.08.061.08.069l.01.009v.011c.01.017.02.07 0 .145-.02.075-.06.114-.07.126l-.02.007v.004c-.01.003-.04.013-.11.013h-55.92c-.06 0-.09-.01-.1-.013-.01-.003-.02-.011-.02-.011-.02-.012-.05-.051-.08-.126-.02-.075-.01-.127 0-.145 0 0 0-.012.01-.02 0-.007.03-.033.08-.069l27.93-17.766Z" clip-rule="evenodd"/><path d="M2337 657.966c1.5 0 2.71 1.213 2.71 2.709v20.343a2.707 2.707 0 0 1-2.71 2.709c-1.5 0-2.71-1.213-2.71-2.709v-20.343a2.707 2.707 0 0 1 2.71-2.709ZM2303.61 691.831a2.707 2.707 0 0 1 2.71-2.708h61.36c1.5 0 2.71 1.212 2.71 2.708a2.707 2.707 0 0 1-2.71 2.709h-61.36c-1.5 0-2.71-1.213-2.71-2.709ZM2321.51 660.675a2.707 2.707 0 0 0-2.71-2.709 2.714 2.714 0 0 0-2.71 2.709v20.343a2.714 2.714 0 0 0 2.71 2.709c1.5 0 2.71-1.213 2.71-2.709v-20.343ZM2355.2 657.966c1.49 0 2.71 1.213 2.71 2.709v20.343a2.714 2.714 0 0 1-2.71 2.709c-1.5 0-2.71-1.213-2.71-2.709v-20.343a2.707 2.707 0 0 1 2.71-2.709Z"/></g></g></g><g id="Semibold-S"><g id="Outline / Bank Outline_22"><g id="Shape_22" fill="#000"><path fill-rule="evenodd" d="M2043.98 624.458a5.636 5.636 0 0 0-6.04.003l-27.93 17.766c-4.74 3.02-2.6 10.371 3.02 10.371h55.92c5.63 0 7.77-7.356 3.01-10.374l-27.98-17.766Zm-3.13 4.573a.204.204 0 0 1 .22 0l27.99 17.766c.06.036.08.061.08.069l.01.009v.011c.01.017.02.07 0 .145-.02.075-.06.114-.07.126l-.02.007v.004c-.01.003-.04.013-.11.013h-55.92c-.06 0-.09-.01-.1-.013-.01-.003-.02-.011-.02-.011-.02-.012-.05-.051-.08-.126-.02-.075-.01-.127 0-.145 0 0 0-.012.01-.02 0-.007.03-.033.08-.069l27.93-17.766Z" clip-rule="evenodd"/><path d="M2041 657.966c1.5 0 2.71 1.213 2.71 2.709v20.343a2.707 2.707 0 0 1-2.71 2.709c-1.5 0-2.71-1.213-2.71-2.709v-20.343a2.707 2.707 0 0 1 2.71-2.709ZM2007.61 691.831a2.707 2.707 0 0 1 2.71-2.708h61.36c1.5 0 2.71 1.212 2.71 2.708a2.707 2.707 0 0 1-2.71 2.709h-61.36c-1.5 0-2.71-1.213-2.71-2.709ZM2025.51 660.675a2.707 2.707 0 0 0-2.71-2.709 2.714 2.714 0 0 0-2.71 2.709v20.343a2.714 2.714 0 0 0 2.71 2.709c1.5 0 2.71-1.213 2.71-2.709v-20.343ZM2059.2 657.966c1.49 0 2.71 1.213 2.71 2.709v20.343a2.714 2.714 0 0 1-2.71 2.709c-1.5 0-2.71-1.213-2.71-2.709v-20.343a2.707 2.707 0 0 1 2.71-2.709Z"/></g></g></g><g id="Medium-S"><g id="Outline / Bank Outline_23"><g id="Shape_23" fill="#000"><path fill-rule="evenodd" d="M1747.98 624.458a5.636 5.636 0 0 0-6.04.003l-27.93 17.766c-4.74 3.02-2.6 10.371 3.02 10.371h55.92c5.63 0 7.77-7.356 3.01-10.374l-27.98-17.766Zm-3.13 4.573a.204.204 0 0 1 .22 0l27.99 17.766c.06.036.08.061.08.069l.01.009v.011c.01.017.02.07 0 .145-.02.075-.06.114-.07.126l-.02.007v.004c-.01.003-.04.013-.11.013h-55.92c-.06 0-.09-.01-.1-.013-.01-.003-.02-.011-.02-.011-.02-.012-.05-.051-.08-.126-.02-.075-.01-.127 0-.145 0 0 0-.012.01-.02 0-.007.03-.033.08-.069l27.93-17.766Z" clip-rule="evenodd"/><path d="M1745 657.966c1.5 0 2.71 1.213 2.71 2.709v20.343a2.707 2.707 0 0 1-2.71 2.709c-1.5 0-2.71-1.213-2.71-2.709v-20.343a2.707 2.707 0 0 1 2.71-2.709ZM1711.61 691.831a2.707 2.707 0 0 1 2.71-2.708h61.36c1.5 0 2.71 1.212 2.71 2.708a2.707 2.707 0 0 1-2.71 2.709h-61.36c-1.5 0-2.71-1.213-2.71-2.709ZM1729.51 660.675a2.707 2.707 0 0 0-2.71-2.709 2.714 2.714 0 0 0-2.71 2.709v20.343a2.714 2.714 0 0 0 2.71 2.709c1.5 0 2.71-1.213 2.71-2.709v-20.343ZM1763.2 657.966c1.49 0 2.71 1.213 2.71 2.709v20.343a2.714 2.714 0 0 1-2.71 2.709c-1.5 0-2.71-1.213-2.71-2.709v-20.343a2.707 2.707 0 0 1 2.71-2.709Z"/></g></g></g><g id="Regular-S"><g id="Outline / Bank Outline_24"><g id="Shape_24" fill="#000"><path fill-rule="evenodd" d="M1451.98 624.458a5.636 5.636 0 0 0-6.04.003l-27.93 17.766c-4.74 3.02-2.6 10.371 3.02 10.371h55.92c5.63 0 7.77-7.356 3.01-10.374l-27.98-17.766Zm-3.13 4.573a.204.204 0 0 1 .22 0l27.99 17.766c.06.036.08.061.08.069l.01.009v.011c.01.017.02.07 0 .145-.02.075-.06.114-.07.126l-.02.007v.004c-.01.003-.04.013-.11.013h-55.92c-.06 0-.09-.01-.1-.013-.01-.003-.02-.011-.02-.011-.02-.012-.05-.051-.08-.126-.02-.075-.01-.127 0-.145 0 0 0-.012.01-.02 0-.007.03-.033.08-.069l27.93-17.766Z" clip-rule="evenodd"/><path d="M1449 657.966c1.5 0 2.71 1.213 2.71 2.709v20.343a2.707 2.707 0 0 1-2.71 2.709c-1.5 0-2.71-1.213-2.71-2.709v-20.343a2.707 2.707 0 0 1 2.71-2.709ZM1415.61 691.831a2.707 2.707 0 0 1 2.71-2.708h61.36c1.5 0 2.71 1.212 2.71 2.708a2.707 2.707 0 0 1-2.71 2.709h-61.36c-1.5 0-2.71-1.213-2.71-2.709ZM1433.51 660.675a2.707 2.707 0 0 0-2.71-2.709 2.714 2.714 0 0 0-2.71 2.709v20.343a2.714 2.714 0 0 0 2.71 2.709c1.5 0 2.71-1.213 2.71-2.709v-20.343ZM1467.2 657.966c1.49 0 2.71 1.213 2.71 2.709v20.343a2.714 2.714 0 0 1-2.71 2.709c-1.5 0-2.71-1.213-2.71-2.709v-20.343a2.707 2.707 0 0 1 2.71-2.709Z"/></g></g></g><g id="Light-S"><g id="Outline / Bank Outline_25"><g id="Shape_25" fill="#000"><path fill-rule="evenodd" d="M1155.98 624.458a5.636 5.636 0 0 0-6.04.003l-27.93 17.766c-4.74 3.02-2.6 10.371 3.02 10.371h55.92c5.63 0 7.77-7.356 3.01-10.374l-27.98-17.766Zm-3.13 4.573a.204.204 0 0 1 .22 0l27.99 17.766c.06.036.08.061.08.069l.01.009v.011c.01.017.02.07 0 .145-.02.075-.06.114-.07.126l-.02.007v.004c-.01.003-.04.013-.11.013h-55.92c-.06 0-.09-.01-.1-.013-.01-.003-.02-.011-.02-.011-.02-.012-.05-.051-.08-.126-.02-.075-.01-.127 0-.145 0 0 0-.012.01-.02 0-.007.03-.033.08-.069l27.93-17.766Z" clip-rule="evenodd"/><path d="M1153 657.966c1.5 0 2.71 1.213 2.71 2.709v20.343a2.707 2.707 0 0 1-2.71 2.709c-1.5 0-2.71-1.213-2.71-2.709v-20.343a2.707 2.707 0 0 1 2.71-2.709ZM1119.61 691.831a2.707 2.707 0 0 1 2.71-2.708h61.36c1.5 0 2.71 1.212 2.71 2.708a2.707 2.707 0 0 1-2.71 2.709h-61.36c-1.5 0-2.71-1.213-2.71-2.709ZM1137.51 660.675a2.707 2.707 0 0 0-2.71-2.709 2.714 2.714 0 0 0-2.71 2.709v20.343a2.714 2.714 0 0 0 2.71 2.709c1.5 0 2.71-1.213 2.71-2.709v-20.343ZM1171.2 657.966c1.49 0 2.71 1.213 2.71 2.709v20.343a2.714 2.714 0 0 1-2.71 2.709c-1.5 0-2.71-1.213-2.71-2.709v-20.343a2.707 2.707 0 0 1 2.71-2.709Z"/></g></g></g><g id="Thin-S"><g id="Outline / Bank Outline_26"><g id="Shape_26" fill="#000"><path fill-rule="evenodd" d="M859.977 624.458a5.625 5.625 0 0 0-6.034.003l-27.929 17.766c-4.748 3.02-2.608 10.371 3.02 10.371h55.915c5.631 0 7.768-7.356 3.014-10.374l-27.986-17.766Zm-3.127 4.573a.21.21 0 0 1 .224 0l27.986 17.766a.313.313 0 0 1 .084.069l.006.009.005.011a.255.255 0 0 1-.006.145.258.258 0 0 1-.073.126l-.011.007-.009.004a.335.335 0 0 1-.107.013h-55.915a.323.323 0 0 1-.107-.013c-.01-.003-.021-.011-.021-.011a.26.26 0 0 1-.072-.126.259.259 0 0 1-.007-.145s.005-.012.012-.02a.319.319 0 0 1 .083-.069l27.928-17.766Z" clip-rule="evenodd"/><path d="M857 657.966a2.708 2.708 0 0 1 2.708 2.709v20.343a2.708 2.708 0 1 1-5.416 0v-20.343a2.708 2.708 0 0 1 2.708-2.709ZM823.612 691.831a2.708 2.708 0 0 1 2.708-2.708h61.359a2.708 2.708 0 1 1 0 5.417H826.32a2.709 2.709 0 0 1-2.708-2.709ZM841.511 660.675a2.708 2.708 0 1 0-5.416 0v20.343a2.708 2.708 0 1 0 5.416 0v-20.343ZM875.197 657.966a2.708 2.708 0 0 1 2.708 2.709v20.343a2.708 2.708 0 1 1-5.416 0v-20.343a2.708 2.708 0 0 1 2.708-2.709Z"/></g></g></g><g id="Ultralight-S"><g id="Outline / Bank Outline_27"><g id="Shape_27" fill="#000"><path fill-rule="evenodd" d="M563.977 624.458a5.625 5.625 0 0 0-6.034.003l-27.929 17.766c-4.748 3.02-2.608 10.371 3.02 10.371h55.915c5.631 0 7.768-7.356 3.014-10.374l-27.986-17.766Zm-3.127 4.573a.21.21 0 0 1 .224 0l27.986 17.766a.313.313 0 0 1 .084.069l.006.009.005.011a.255.255 0 0 1-.006.145.258.258 0 0 1-.073.126l-.011.007-.009.004a.335.335 0 0 1-.107.013h-55.915a.323.323 0 0 1-.107-.013c-.01-.003-.021-.011-.021-.011a.26.26 0 0 1-.072-.126.259.259 0 0 1-.007-.145s.005-.012.012-.02a.319.319 0 0 1 .083-.069l27.928-17.766Z" clip-rule="evenodd"/><path d="M561 657.966a2.708 2.708 0 0 1 2.708 2.709v20.343a2.708 2.708 0 1 1-5.416 0v-20.343a2.708 2.708 0 0 1 2.708-2.709ZM527.612 691.831a2.708 2.708 0 0 1 2.708-2.708h61.359a2.708 2.708 0 1 1 0 5.417H530.32a2.709 2.709 0 0 1-2.708-2.709ZM545.511 660.675a2.708 2.708 0 1 0-5.416 0v20.343a2.708 2.708 0 1 0 5.416 0v-20.343ZM579.197 657.966a2.708 2.708 0 0 1 2.708 2.709v20.343a2.708 2.708 0 1 1-5.416 0v-20.343a2.708 2.708 0 0 1 2.708-2.709Z"/></g></g></g></g></g><defs><clipPath id="clip0_0_1"><path fill="#fff" d="M0 0h3300v2200H0z"/></clipPath></defs></svg>