<svg width="3300" height="2200" viewBox="0 0 3300 2200" fill="none" xmlns="http://www.w3.org/2000/svg">
<rect width="3300" height="2200" fill="#E5E5E5"/>
<g id="System / Outline / More Horizontal" clip-path="url(#clip0_805_27002)">
<g id="Notes">
<path id="artboard" d="M3300 0H0V2200H3300V0Z" fill="white"/>
<path id="Vector" d="M263 292H3036" stroke="black" stroke-width="0.5"/>
<text id="Weight/Scale Variations" fill="black" xml:space="preserve" style="white-space: pre" font-family="Roboto" font-size="12" letter-spacing="0em"><tspan x="263" y="321.102">Weight/Scale Variations</tspan></text>
<text id="Ultralight" fill="black" xml:space="preserve" style="white-space: pre" font-family="Roboto" font-size="12" letter-spacing="0em"><tspan x="535.211" y="321.102">Ultralight</tspan></text>
<text id="Thin" fill="black" xml:space="preserve" style="white-space: pre" font-family="Roboto" font-size="12" letter-spacing="0em"><tspan x="844.422" y="321.102">Thin</tspan></text>
<text id="Light" fill="black" xml:space="preserve" style="white-space: pre" font-family="Roboto" font-size="12" letter-spacing="0em"><tspan x="1139.63" y="321.102">Light</tspan></text>
<text id="Regular" fill="black" xml:space="preserve" style="white-space: pre" font-family="Roboto" font-size="12" letter-spacing="0em"><tspan x="1429.34" y="321.102">Regular</tspan></text>
<text id="Medium" fill="black" xml:space="preserve" style="white-space: pre" font-family="Roboto" font-size="12" letter-spacing="0em"><tspan x="1724.56" y="321.102">Medium</tspan></text>
<text id="Semibold" fill="black" xml:space="preserve" style="white-space: pre" font-family="Roboto" font-size="12" letter-spacing="0em"><tspan x="2017.77" y="321.102">Semibold</tspan></text>
<text id="Bold" fill="black" xml:space="preserve" style="white-space: pre" font-family="Roboto" font-size="12" letter-spacing="0em"><tspan x="2327.48" y="321.102">Bold</tspan></text>
<text id="Heavy" fill="black" xml:space="preserve" style="white-space: pre" font-family="Roboto" font-size="12" letter-spacing="0em"><tspan x="2620.19" y="321.102">Heavy</tspan></text>
<text id="Black" fill="black" xml:space="preserve" style="white-space: pre" font-family="Roboto" font-size="12" letter-spacing="0em"><tspan x="2918.4" y="321.102">Black</tspan></text>
<path id="Vector_2" d="M263 1903H3036" stroke="black" stroke-width="0.5"/>
<g id="Group">
<path id="Vector_3" d="M272.248 1933.83C276.555 1933.83 280.139 1930.26 280.139 1925.95C280.139 1921.64 276.545 1918.07 272.238 1918.07C267.941 1918.07 264.367 1921.64 264.367 1925.95C264.367 1930.26 267.951 1933.83 272.248 1933.83ZM272.248 1932.35C268.703 1932.35 265.871 1929.51 265.871 1925.95C265.871 1922.4 268.693 1919.55 272.238 1919.55C275.793 1919.55 278.635 1922.4 278.644 1925.95C278.654 1929.51 275.803 1932.35 272.248 1932.35ZM272.229 1929.57C272.697 1929.57 272.971 1929.26 272.971 1928.74V1926.68H275.197C275.695 1926.68 276.037 1926.43 276.037 1925.96C276.037 1925.48 275.715 1925.22 275.197 1925.22H272.971V1922.99C272.971 1922.47 272.697 1922.15 272.229 1922.15C271.76 1922.15 271.506 1922.49 271.506 1922.99V1925.22H269.299C268.781 1925.22 268.449 1925.48 268.449 1925.96C268.449 1926.43 268.801 1926.68 269.299 1926.68H271.506V1928.74C271.506 1929.24 271.76 1929.57 272.229 1929.57Z" fill="black"/>
</g>
<g id="Group_2">
<path id="Vector_4" d="M293.215 1935.91C298.664 1935.91 303.176 1931.4 303.176 1925.95C303.176 1920.51 298.654 1915.99 293.205 1915.99C287.766 1915.99 283.254 1920.51 283.254 1925.95C283.254 1931.4 287.775 1935.91 293.215 1935.91ZM293.215 1934.25C288.605 1934.25 284.924 1930.56 284.924 1925.95C284.924 1921.35 288.596 1917.65 293.205 1917.65C297.814 1917.65 301.506 1921.35 301.516 1925.95C301.525 1930.56 297.824 1934.25 293.215 1934.25ZM293.195 1930.59C293.713 1930.59 294.025 1930.23 294.025 1929.66V1926.77H297.082C297.629 1926.77 298.01 1926.49 298.01 1925.97C298.01 1925.44 297.648 1925.14 297.082 1925.14H294.025V1922.07C294.025 1921.5 293.713 1921.14 293.195 1921.14C292.678 1921.14 292.385 1921.52 292.385 1922.07V1925.14H289.338C288.771 1925.14 288.4 1925.44 288.4 1925.97C288.4 1926.49 288.791 1926.77 289.338 1926.77H292.385V1929.66C292.385 1930.21 292.678 1930.59 293.195 1930.59Z" fill="black"/>
</g>
<g id="Group_3">
<path id="Vector_5" d="M319.895 1938.67C326.857 1938.67 332.619 1932.92 332.619 1925.96C332.619 1918.99 326.848 1913.24 319.885 1913.24C312.932 1913.24 307.18 1918.99 307.18 1925.96C307.18 1932.92 312.941 1938.67 319.895 1938.67ZM319.895 1936.86C313.859 1936.86 309.006 1931.99 309.006 1925.96C309.006 1919.92 313.85 1915.06 319.885 1915.06C325.93 1915.06 330.783 1919.92 330.793 1925.96C330.803 1931.99 325.939 1936.86 319.895 1936.86ZM319.875 1931.93C320.441 1931.93 320.793 1931.54 320.793 1930.94V1926.87H325.031C325.617 1926.87 326.037 1926.53 326.037 1925.98C326.037 1925.4 325.647 1925.06 325.031 1925.06H320.793V1920.81C320.793 1920.2 320.441 1919.8 319.875 1919.8C319.309 1919.8 318.986 1920.21 318.986 1920.81V1925.06H314.758C314.143 1925.06 313.732 1925.4 313.732 1925.98C313.732 1926.53 314.162 1926.87 314.758 1926.87H318.986V1930.94C318.986 1931.52 319.309 1931.93 319.875 1931.93Z" fill="black"/>
</g>
<text id="Design Variations" fill="black" xml:space="preserve" style="white-space: pre" font-family="Roboto" font-size="12" letter-spacing="0em"><tspan x="263" y="1952.1">Design Variations</tspan></text>
<text id="Symbols are supported in up to nine weights and three scales." fill="black" xml:space="preserve" style="white-space: pre" font-family="Roboto" font-size="12" letter-spacing="0em"><tspan x="263" y="1970.1">Symbols are supported in up to nine weights and three scales.</tspan></text>
<text id="For optimal layout with text and other symbols, vertically align" fill="black" xml:space="preserve" style="white-space: pre" font-family="Roboto" font-size="12" letter-spacing="0em"><tspan x="263" y="1988.1">For optimal layout with text and other symbols, vertically align</tspan></text>
<text id="symbols with the adjacent text." fill="black" xml:space="preserve" style="white-space: pre" font-family="Roboto" font-size="12" letter-spacing="0em"><tspan x="263" y="2006.1">symbols with the adjacent text.</tspan></text>
<path id="Vector_6" opacity="0.4" d="M779 1919H776V1933H779V1919Z" fill="#00AEEF"/>
<g id="Group_4">
<path id="Vector_7" d="M789.525 1933H791.371L786.176 1918.91H784.437L779.242 1933H781.088L782.504 1928.96H788.109L789.525 1933ZM785.277 1921.04H785.336L787.592 1927.47H783.021L785.277 1921.04Z" fill="black"/>
</g>
<path id="Vector_8" opacity="0.4" d="M794.617 1919H791.617V1933H794.617V1919Z" fill="#00AEEF"/>
<text id="Margins" fill="black" xml:space="preserve" style="white-space: pre" font-family="Roboto" font-size="12" letter-spacing="0em"><tspan x="776" y="1952.1">Margins</tspan></text>
<text id="Leading and trailing margins on the left and right side of each symbol" fill="black" xml:space="preserve" style="white-space: pre" font-family="Roboto" font-size="12" letter-spacing="0em"><tspan x="776" y="1970.1">Leading and trailing margins on the left and right side of each symbol</tspan></text>
<text id="can be adjusted by modifying the width of the blue rectangles." fill="black" xml:space="preserve" style="white-space: pre" font-family="Roboto" font-size="12" letter-spacing="0em"><tspan x="776" y="1988.1">can be adjusted by modifying the width of the blue rectangles.</tspan></text>
<text id="Modifications are automatically applied proportionally to all" fill="black" xml:space="preserve" style="white-space: pre" font-family="Roboto" font-size="12" letter-spacing="0em"><tspan x="776" y="2006.1">Modifications are automatically applied proportionally to all</tspan></text>
<text id="scales and weights." fill="black" xml:space="preserve" style="white-space: pre" font-family="Roboto" font-size="12" letter-spacing="0em"><tspan x="776" y="2024.1">scales and weights.</tspan></text>
<g id="Group_5">
<path id="Vector_9" d="M1291.83 1936.11L1293.37 1937.66C1294.22 1938.49 1295.19 1938.42 1296.06 1937.46L1306.27 1926.34C1306.7 1926.63 1307.1 1926.62 1307.56 1926.52L1308.61 1926.31L1309.3 1927L1309.25 1927.52C1309.19 1928.05 1309.35 1928.47 1309.85 1928.97L1310.66 1929.78C1311.17 1930.28 1311.82 1930.31 1312.3 1929.83L1315.55 1926.58C1316.03 1926.1 1316.01 1925.45 1315.5 1924.94L1314.68 1924.12C1314.19 1923.62 1313.77 1923.45 1313.24 1923.53L1312.71 1923.58L1312.06 1922.92L1312.34 1921.78C1312.49 1921.21 1312.34 1920.74 1311.71 1920.14L1309.3 1917.75C1305.76 1914.22 1301.23 1914.33 1298.11 1917.46C1297.69 1917.89 1297.64 1918.48 1297.92 1918.91C1298.15 1919.28 1298.63 1919.5 1299.27 1919.34C1300.79 1918.96 1302.3 1919.07 1303.78 1920.08L1303.16 1921.66C1302.93 1922.25 1302.94 1922.73 1303.18 1923.16L1292.02 1933.44C1291.08 1934.31 1290.97 1935.25 1291.83 1936.11ZM1299.67 1917.85C1302.34 1915.86 1305.65 1916.17 1308.05 1918.58L1310.68 1921.19C1310.91 1921.43 1310.94 1921.61 1310.88 1921.91L1310.5 1923.47L1312.08 1925.04L1313.04 1924.95C1313.33 1924.92 1313.41 1924.94 1313.64 1925.17L1314.26 1925.79L1311.51 1928.54L1310.88 1927.92C1310.66 1927.7 1310.64 1927.6 1310.67 1927.32L1310.76 1926.36L1309.19 1924.8L1307.57 1925.11C1307.29 1925.17 1307.14 1925.17 1306.91 1924.92L1304.73 1922.75C1304.51 1922.51 1304.48 1922.37 1304.61 1922.05L1305.55 1919.78C1303.95 1918.24 1301.84 1917.39 1299.8 1918.05C1299.71 1918.08 1299.64 1918.06 1299.61 1918.02C1299.59 1917.97 1299.59 1917.92 1299.67 1917.85ZM1293.1 1935.41C1292.61 1934.91 1292.79 1934.61 1293.12 1934.31L1304.08 1924.19L1305.31 1925.42L1295.15 1936.35C1294.85 1936.68 1294.47 1936.78 1294.07 1936.38L1293.1 1935.41Z" fill="black"/>
</g>
<text id="Exporting" fill="black" xml:space="preserve" style="white-space: pre" font-family="Roboto" font-size="12" letter-spacing="0em"><tspan x="1289" y="1952.1">Exporting</tspan></text>
<text id="Symbols should be outlined when exporting to ensure the" fill="black" xml:space="preserve" style="white-space: pre" font-family="Roboto" font-size="12" letter-spacing="0em"><tspan x="1289" y="1970.1">Symbols should be outlined when exporting to ensure the</tspan></text>
<text id="design is preserved when submitting to Xcode." fill="black" xml:space="preserve" style="white-space: pre" font-family="Roboto" font-size="12" letter-spacing="0em"><tspan x="1289" y="1988.1">design is preserved when submitting to Xcode.</tspan></text>
<text id="template-version" fill="black" xml:space="preserve" style="white-space: pre" font-family="Roboto" font-size="12" letter-spacing="0em"><tspan x="2958" y="1932.1">Template v.1.0</tspan></text>
<text id="Generated from pencil.circle" fill="black" xml:space="preserve" style="white-space: pre" font-family="Roboto" font-size="12" letter-spacing="0em"><tspan x="2885" y="1950.1">Generated from pencil.circle</tspan></text>
<text id="Typeset at 100 points" fill="black" xml:space="preserve" style="white-space: pre" font-family="Roboto" font-size="12" letter-spacing="0em"><tspan x="2921" y="1968.1">Typeset at 100 points</tspan></text>
<text id="Small" fill="black" xml:space="preserve" style="white-space: pre" font-family="Roboto" font-size="12" letter-spacing="0em"><tspan x="263" y="725.102">Small</tspan></text>
<text id="Medium_2" fill="black" xml:space="preserve" style="white-space: pre" font-family="Roboto" font-size="12" letter-spacing="0em"><tspan x="263" y="1155.1">Medium</tspan></text>
<text id="Large" fill="black" xml:space="preserve" style="white-space: pre" font-family="Roboto" font-size="12" letter-spacing="0em"><tspan x="263" y="1585.1">Large</tspan></text>
</g>
<g id="Guides">
<g id="H-reference">
<path id="Vector_10" d="M393.932 695.998H396.666L369.566 625.539H367.076L339.977 695.998H342.662L351.94 671.535H384.703L393.932 695.998ZM368.199 628.908H368.443L383.824 669.289H352.818L368.199 628.908Z" fill="#27AAE1"/>
</g>
<path id="Baseline-S" d="M263 696H3036" stroke="#27AAE1" stroke-width="0.577"/>
<path id="Capline-S" d="M263 626H3036" stroke="#27AAE1" stroke-width="0.577"/>
<g id="H-reference_2">
<path id="Vector_11" d="M393.932 1126H396.666L369.566 1055.54H367.076L339.977 1126H342.662L351.94 1101.54H384.703L393.932 1126ZM368.199 1058.91H368.443L383.824 1099.29H352.818L368.199 1058.91Z" fill="#27AAE1"/>
</g>
<path id="Baseline-M" d="M263 1126H3036" stroke="#27AAE1" stroke-width="0.577"/>
<path id="Capline-M" d="M263 1056H3036" stroke="#27AAE1" stroke-width="0.577"/>
<g id="H-reference_3">
<path id="Vector_12" d="M393.932 1556H396.666L369.566 1485.54H367.076L339.977 1556H342.662L351.94 1531.54H384.703L393.932 1556ZM368.199 1488.91H368.443L383.824 1529.29H352.818L368.199 1488.91Z" fill="#27AAE1"/>
</g>
<g id="Group 1">
<path id="Baseline-L" d="M263 1556H3036" stroke="#27AAE1" stroke-width="0.577"/>
<path id="Capline-L" d="M263 1486H3036" stroke="#27AAE1" stroke-width="0.577"/>
</g>
<path id="left-margin" opacity="0.4" d="M1396.04 1030.79H1387.3V1150.12H1396.04V1030.79Z" fill="#00AEEF"/>
<path id="right-margin" opacity="0.4" d="M1510.39 1030.79H1501.65V1150.12H1510.39V1030.79Z" fill="#00AEEF"/>
</g>
<g id="Symbols">
<g id="Black-L">
<g id="Outline / More Horizontal Outline">
<g id="Shape">
<path d="M2876.5 1506C2884.78 1506 2891.5 1512.72 2891.5 1521C2891.5 1529.28 2884.78 1536 2876.5 1536C2868.22 1536 2861.5 1529.28 2861.5 1521C2861.5 1512.72 2868.22 1506 2876.5 1506Z" fill="black"/>
<path d="M2981.5 1506C2989.78 1506 2996.5 1512.72 2996.5 1521C2996.5 1529.28 2989.78 1536 2981.5 1536C2973.22 1536 2966.5 1529.28 2966.5 1521C2966.5 1512.72 2973.22 1506 2981.5 1506Z" fill="black"/>
<path d="M2944 1521C2944 1512.72 2937.28 1506 2929 1506C2920.72 1506 2914 1512.72 2914 1521C2914 1529.28 2920.72 1536 2929 1536C2937.28 1536 2944 1529.28 2944 1521Z" fill="black"/>
</g>
</g>
</g>
<g id="Heavy-L">
<g id="Outline / More Horizontal Outline_2">
<g id="Shape_2">
<path d="M2580.5 1506C2588.78 1506 2595.5 1512.72 2595.5 1521C2595.5 1529.28 2588.78 1536 2580.5 1536C2572.22 1536 2565.5 1529.28 2565.5 1521C2565.5 1512.72 2572.22 1506 2580.5 1506Z" fill="black"/>
<path d="M2685.5 1506C2693.78 1506 2700.5 1512.72 2700.5 1521C2700.5 1529.28 2693.78 1536 2685.5 1536C2677.22 1536 2670.5 1529.28 2670.5 1521C2670.5 1512.72 2677.22 1506 2685.5 1506Z" fill="black"/>
<path d="M2648 1521C2648 1512.72 2641.28 1506 2633 1506C2624.72 1506 2618 1512.72 2618 1521C2618 1529.28 2624.72 1536 2633 1536C2641.28 1536 2648 1529.28 2648 1521Z" fill="black"/>
</g>
</g>
</g>
<g id="Bold-L">
<g id="Outline / More Horizontal Outline_3">
<g id="Shape_3">
<path d="M2284.5 1506C2292.78 1506 2299.5 1512.72 2299.5 1521C2299.5 1529.28 2292.78 1536 2284.5 1536C2276.22 1536 2269.5 1529.28 2269.5 1521C2269.5 1512.72 2276.22 1506 2284.5 1506Z" fill="black"/>
<path d="M2389.5 1506C2397.78 1506 2404.5 1512.72 2404.5 1521C2404.5 1529.28 2397.78 1536 2389.5 1536C2381.22 1536 2374.5 1529.28 2374.5 1521C2374.5 1512.72 2381.22 1506 2389.5 1506Z" fill="black"/>
<path d="M2352 1521C2352 1512.72 2345.28 1506 2337 1506C2328.72 1506 2322 1512.72 2322 1521C2322 1529.28 2328.72 1536 2337 1536C2345.28 1536 2352 1529.28 2352 1521Z" fill="black"/>
</g>
</g>
</g>
<g id="Semibold-L">
<g id="Outline / More Horizontal Outline_4">
<g id="Shape_4">
<path d="M1988.5 1506C1996.78 1506 2003.5 1512.72 2003.5 1521C2003.5 1529.28 1996.78 1536 1988.5 1536C1980.22 1536 1973.5 1529.28 1973.5 1521C1973.5 1512.72 1980.22 1506 1988.5 1506Z" fill="black"/>
<path d="M2093.5 1506C2101.78 1506 2108.5 1512.72 2108.5 1521C2108.5 1529.28 2101.78 1536 2093.5 1536C2085.22 1536 2078.5 1529.28 2078.5 1521C2078.5 1512.72 2085.22 1506 2093.5 1506Z" fill="black"/>
<path d="M2056 1521C2056 1512.72 2049.28 1506 2041 1506C2032.72 1506 2026 1512.72 2026 1521C2026 1529.28 2032.72 1536 2041 1536C2049.28 1536 2056 1529.28 2056 1521Z" fill="black"/>
</g>
</g>
</g>
<g id="Medium-L">
<g id="Outline / More Horizontal Outline_5">
<g id="Shape_5">
<path d="M1692.5 1506C1700.78 1506 1707.5 1512.72 1707.5 1521C1707.5 1529.28 1700.78 1536 1692.5 1536C1684.22 1536 1677.5 1529.28 1677.5 1521C1677.5 1512.72 1684.22 1506 1692.5 1506Z" fill="black"/>
<path d="M1797.5 1506C1805.78 1506 1812.5 1512.72 1812.5 1521C1812.5 1529.28 1805.78 1536 1797.5 1536C1789.22 1536 1782.5 1529.28 1782.5 1521C1782.5 1512.72 1789.22 1506 1797.5 1506Z" fill="black"/>
<path d="M1760 1521C1760 1512.72 1753.28 1506 1745 1506C1736.72 1506 1730 1512.72 1730 1521C1730 1529.28 1736.72 1536 1745 1536C1753.28 1536 1760 1529.28 1760 1521Z" fill="black"/>
</g>
</g>
</g>
<g id="Regular-L">
<g id="Outline / More Horizontal Outline_6">
<g id="Shape_6">
<path d="M1396.5 1506C1404.78 1506 1411.5 1512.72 1411.5 1521C1411.5 1529.28 1404.78 1536 1396.5 1536C1388.22 1536 1381.5 1529.28 1381.5 1521C1381.5 1512.72 1388.22 1506 1396.5 1506Z" fill="black"/>
<path d="M1501.5 1506C1509.78 1506 1516.5 1512.72 1516.5 1521C1516.5 1529.28 1509.78 1536 1501.5 1536C1493.22 1536 1486.5 1529.28 1486.5 1521C1486.5 1512.72 1493.22 1506 1501.5 1506Z" fill="black"/>
<path d="M1464 1521C1464 1512.72 1457.28 1506 1449 1506C1440.72 1506 1434 1512.72 1434 1521C1434 1529.28 1440.72 1536 1449 1536C1457.28 1536 1464 1529.28 1464 1521Z" fill="black"/>
</g>
</g>
</g>
<g id="Light-L">
<g id="Outline / More Horizontal Outline_7">
<g id="Shape_7">
<path d="M1100.5 1506C1108.78 1506 1115.5 1512.72 1115.5 1521C1115.5 1529.28 1108.78 1536 1100.5 1536C1092.22 1536 1085.5 1529.28 1085.5 1521C1085.5 1512.72 1092.22 1506 1100.5 1506Z" fill="black"/>
<path d="M1205.5 1506C1213.78 1506 1220.5 1512.72 1220.5 1521C1220.5 1529.28 1213.78 1536 1205.5 1536C1197.22 1536 1190.5 1529.28 1190.5 1521C1190.5 1512.72 1197.22 1506 1205.5 1506Z" fill="black"/>
<path d="M1168 1521C1168 1512.72 1161.28 1506 1153 1506C1144.72 1506 1138 1512.72 1138 1521C1138 1529.28 1144.72 1536 1153 1536C1161.28 1536 1168 1529.28 1168 1521Z" fill="black"/>
</g>
</g>
</g>
<g id="Thin-L">
<g id="Outline / More Horizontal Outline_8">
<g id="Shape_8">
<path d="M804.5 1506C812.784 1506 819.5 1512.72 819.5 1521C819.5 1529.28 812.784 1536 804.5 1536C796.216 1536 789.5 1529.28 789.5 1521C789.5 1512.72 796.216 1506 804.5 1506Z" fill="black"/>
<path d="M909.5 1506C917.784 1506 924.5 1512.72 924.5 1521C924.5 1529.28 917.784 1536 909.5 1536C901.216 1536 894.5 1529.28 894.5 1521C894.5 1512.72 901.216 1506 909.5 1506Z" fill="black"/>
<path d="M872 1521C872 1512.72 865.284 1506 857 1506C848.716 1506 842 1512.72 842 1521C842 1529.28 848.716 1536 857 1536C865.284 1536 872 1529.28 872 1521Z" fill="black"/>
</g>
</g>
</g>
<g id="Ultralight-L">
<g id="Outline / More Horizontal Outline_9">
<g id="Shape_9">
<path d="M508.5 1506C516.784 1506 523.5 1512.72 523.5 1521C523.5 1529.28 516.784 1536 508.5 1536C500.216 1536 493.5 1529.28 493.5 1521C493.5 1512.72 500.216 1506 508.5 1506Z" fill="black"/>
<path d="M613.5 1506C621.784 1506 628.5 1512.72 628.5 1521C628.5 1529.28 621.784 1536 613.5 1536C605.216 1536 598.5 1529.28 598.5 1521C598.5 1512.72 605.216 1506 613.5 1506Z" fill="black"/>
<path d="M576 1521C576 1512.72 569.284 1506 561 1506C552.716 1506 546 1512.72 546 1521C546 1529.28 552.716 1536 561 1536C569.284 1536 576 1529.28 576 1521Z" fill="black"/>
</g>
</g>
</g>
<g id="Black-M">
<g id="Outline / More Horizontal Outline_10">
<g id="Shape_10">
<path d="M2888.17 1079.33C2894.61 1079.33 2899.83 1084.56 2899.83 1091C2899.83 1097.44 2894.61 1102.67 2888.17 1102.67C2881.72 1102.67 2876.5 1097.44 2876.5 1091C2876.5 1084.56 2881.72 1079.33 2888.17 1079.33Z" fill="black"/>
<path d="M2969.83 1079.33C2976.28 1079.33 2981.5 1084.56 2981.5 1091C2981.5 1097.44 2976.28 1102.67 2969.83 1102.67C2963.39 1102.67 2958.17 1097.44 2958.17 1091C2958.17 1084.56 2963.39 1079.33 2969.83 1079.33Z" fill="black"/>
<path d="M2940.67 1091C2940.67 1084.56 2935.44 1079.33 2929 1079.33C2922.56 1079.33 2917.33 1084.56 2917.33 1091C2917.33 1097.44 2922.56 1102.67 2929 1102.67C2935.44 1102.67 2940.67 1097.44 2940.67 1091Z" fill="black"/>
</g>
</g>
</g>
<g id="Heavy-M">
<g id="Outline / More Horizontal Outline_11">
<g id="Shape_11">
<path d="M2592.17 1079.33C2598.61 1079.33 2603.83 1084.56 2603.83 1091C2603.83 1097.44 2598.61 1102.67 2592.17 1102.67C2585.72 1102.67 2580.5 1097.44 2580.5 1091C2580.5 1084.56 2585.72 1079.33 2592.17 1079.33Z" fill="black"/>
<path d="M2673.83 1079.33C2680.28 1079.33 2685.5 1084.56 2685.5 1091C2685.5 1097.44 2680.28 1102.67 2673.83 1102.67C2667.39 1102.67 2662.17 1097.44 2662.17 1091C2662.17 1084.56 2667.39 1079.33 2673.83 1079.33Z" fill="black"/>
<path d="M2644.67 1091C2644.67 1084.56 2639.44 1079.33 2633 1079.33C2626.56 1079.33 2621.33 1084.56 2621.33 1091C2621.33 1097.44 2626.56 1102.67 2633 1102.67C2639.44 1102.67 2644.67 1097.44 2644.67 1091Z" fill="black"/>
</g>
</g>
</g>
<g id="Bold-M">
<g id="Outline / More Horizontal Outline_12">
<g id="Shape_12">
<path d="M2296.17 1079.33C2302.61 1079.33 2307.83 1084.56 2307.83 1091C2307.83 1097.44 2302.61 1102.67 2296.17 1102.67C2289.72 1102.67 2284.5 1097.44 2284.5 1091C2284.5 1084.56 2289.72 1079.33 2296.17 1079.33Z" fill="black"/>
<path d="M2377.83 1079.33C2384.28 1079.33 2389.5 1084.56 2389.5 1091C2389.5 1097.44 2384.28 1102.67 2377.83 1102.67C2371.39 1102.67 2366.17 1097.44 2366.17 1091C2366.17 1084.56 2371.39 1079.33 2377.83 1079.33Z" fill="black"/>
<path d="M2348.67 1091C2348.67 1084.56 2343.44 1079.33 2337 1079.33C2330.56 1079.33 2325.33 1084.56 2325.33 1091C2325.33 1097.44 2330.56 1102.67 2337 1102.67C2343.44 1102.67 2348.67 1097.44 2348.67 1091Z" fill="black"/>
</g>
</g>
</g>
<g id="Semibold-M">
<g id="Outline / More Horizontal Outline_13">
<g id="Shape_13">
<path d="M2000.17 1079.33C2006.61 1079.33 2011.83 1084.56 2011.83 1091C2011.83 1097.44 2006.61 1102.67 2000.17 1102.67C1993.72 1102.67 1988.5 1097.44 1988.5 1091C1988.5 1084.56 1993.72 1079.33 2000.17 1079.33Z" fill="black"/>
<path d="M2081.83 1079.33C2088.28 1079.33 2093.5 1084.56 2093.5 1091C2093.5 1097.44 2088.28 1102.67 2081.83 1102.67C2075.39 1102.67 2070.17 1097.44 2070.17 1091C2070.17 1084.56 2075.39 1079.33 2081.83 1079.33Z" fill="black"/>
<path d="M2052.67 1091C2052.67 1084.56 2047.44 1079.33 2041 1079.33C2034.56 1079.33 2029.33 1084.56 2029.33 1091C2029.33 1097.44 2034.56 1102.67 2041 1102.67C2047.44 1102.67 2052.67 1097.44 2052.67 1091Z" fill="black"/>
</g>
</g>
</g>
<g id="Medium-M">
<g id="Outline / More Horizontal Outline_14">
<g id="Shape_14">
<path d="M1704.17 1079.33C1710.61 1079.33 1715.83 1084.56 1715.83 1091C1715.83 1097.44 1710.61 1102.67 1704.17 1102.67C1697.72 1102.67 1692.5 1097.44 1692.5 1091C1692.5 1084.56 1697.72 1079.33 1704.17 1079.33Z" fill="black"/>
<path d="M1785.83 1079.33C1792.28 1079.33 1797.5 1084.56 1797.5 1091C1797.5 1097.44 1792.28 1102.67 1785.83 1102.67C1779.39 1102.67 1774.17 1097.44 1774.17 1091C1774.17 1084.56 1779.39 1079.33 1785.83 1079.33Z" fill="black"/>
<path d="M1756.67 1091C1756.67 1084.56 1751.44 1079.33 1745 1079.33C1738.56 1079.33 1733.33 1084.56 1733.33 1091C1733.33 1097.44 1738.56 1102.67 1745 1102.67C1751.44 1102.67 1756.67 1097.44 1756.67 1091Z" fill="black"/>
</g>
</g>
</g>
<g id="Regular-M">
<g id="Outline / More Horizontal Outline_15">
<g id="Shape_15">
<path d="M1408.17 1079.33C1414.61 1079.33 1419.83 1084.56 1419.83 1091C1419.83 1097.44 1414.61 1102.67 1408.17 1102.67C1401.72 1102.67 1396.5 1097.44 1396.5 1091C1396.5 1084.56 1401.72 1079.33 1408.17 1079.33Z" fill="black"/>
<path d="M1489.83 1079.33C1496.28 1079.33 1501.5 1084.56 1501.5 1091C1501.5 1097.44 1496.28 1102.67 1489.83 1102.67C1483.39 1102.67 1478.17 1097.44 1478.17 1091C1478.17 1084.56 1483.39 1079.33 1489.83 1079.33Z" fill="black"/>
<path d="M1460.67 1091C1460.67 1084.56 1455.44 1079.33 1449 1079.33C1442.56 1079.33 1437.33 1084.56 1437.33 1091C1437.33 1097.44 1442.56 1102.67 1449 1102.67C1455.44 1102.67 1460.67 1097.44 1460.67 1091Z" fill="black"/>
</g>
</g>
</g>
<g id="Light-M">
<g id="Outline / More Horizontal Outline_16">
<g id="Shape_16">
<path d="M1112.17 1079.33C1118.61 1079.33 1123.83 1084.56 1123.83 1091C1123.83 1097.44 1118.61 1102.67 1112.17 1102.67C1105.72 1102.67 1100.5 1097.44 1100.5 1091C1100.5 1084.56 1105.72 1079.33 1112.17 1079.33Z" fill="black"/>
<path d="M1193.83 1079.33C1200.28 1079.33 1205.5 1084.56 1205.5 1091C1205.5 1097.44 1200.28 1102.67 1193.83 1102.67C1187.39 1102.67 1182.17 1097.44 1182.17 1091C1182.17 1084.56 1187.39 1079.33 1193.83 1079.33Z" fill="black"/>
<path d="M1164.67 1091C1164.67 1084.56 1159.44 1079.33 1153 1079.33C1146.56 1079.33 1141.33 1084.56 1141.33 1091C1141.33 1097.44 1146.56 1102.67 1153 1102.67C1159.44 1102.67 1164.67 1097.44 1164.67 1091Z" fill="black"/>
</g>
</g>
</g>
<g id="Thin-M">
<g id="Outline / More Horizontal Outline_17">
<g id="Shape_17">
<path d="M816.167 1079.33C822.61 1079.33 827.833 1084.56 827.833 1091C827.833 1097.44 822.61 1102.67 816.167 1102.67C809.723 1102.67 804.5 1097.44 804.5 1091C804.5 1084.56 809.723 1079.33 816.167 1079.33Z" fill="black"/>
<path d="M897.833 1079.33C904.277 1079.33 909.5 1084.56 909.5 1091C909.5 1097.44 904.277 1102.67 897.833 1102.67C891.39 1102.67 886.167 1097.44 886.167 1091C886.167 1084.56 891.39 1079.33 897.833 1079.33Z" fill="black"/>
<path d="M868.667 1091C868.667 1084.56 863.443 1079.33 857 1079.33C850.557 1079.33 845.333 1084.56 845.333 1091C845.333 1097.44 850.557 1102.67 857 1102.67C863.443 1102.67 868.667 1097.44 868.667 1091Z" fill="black"/>
</g>
</g>
</g>
<g id="Ultralight-M">
<g id="Outline / More Horizontal Outline_18">
<g id="Shape_18">
<path d="M520.167 1079.33C526.61 1079.33 531.833 1084.56 531.833 1091C531.833 1097.44 526.61 1102.67 520.167 1102.67C513.723 1102.67 508.5 1097.44 508.5 1091C508.5 1084.56 513.723 1079.33 520.167 1079.33Z" fill="black"/>
<path d="M601.833 1079.33C608.277 1079.33 613.5 1084.56 613.5 1091C613.5 1097.44 608.277 1102.67 601.833 1102.67C595.39 1102.67 590.167 1097.44 590.167 1091C590.167 1084.56 595.39 1079.33 601.833 1079.33Z" fill="black"/>
<path d="M572.667 1091C572.667 1084.56 567.443 1079.33 561 1079.33C554.557 1079.33 549.333 1084.56 549.333 1091C549.333 1097.44 554.557 1102.67 561 1102.67C567.443 1102.67 572.667 1097.44 572.667 1091Z" fill="black"/>
</g>
</g>
</g>
<g id="Black-S">
<g id="Outline / More Horizontal Outline_19">
<g id="Shape_19">
<path d="M2899.83 652.668C2904.44 652.668 2908.17 656.399 2908.17 661.001C2908.17 665.604 2904.44 669.335 2899.83 669.335C2895.23 669.335 2891.5 665.604 2891.5 661.001C2891.5 656.399 2895.23 652.668 2899.83 652.668Z" fill="black"/>
<path d="M2958.17 652.668C2962.77 652.668 2966.5 656.399 2966.5 661.001C2966.5 665.604 2962.77 669.335 2958.17 669.335C2953.56 669.335 2949.83 665.604 2949.83 661.001C2949.83 656.399 2953.56 652.668 2958.17 652.668Z" fill="black"/>
<path d="M2937.33 661.001C2937.33 656.399 2933.6 652.668 2929 652.668C2924.4 652.668 2920.67 656.399 2920.67 661.001C2920.67 665.604 2924.4 669.335 2929 669.335C2933.6 669.335 2937.33 665.604 2937.33 661.001Z" fill="black"/>
</g>
</g>
</g>
<g id="Heavy-S">
<g id="Outline / More Horizontal Outline_20">
<g id="Shape_20">
<path d="M2603.83 652.668C2608.44 652.668 2612.17 656.399 2612.17 661.001C2612.17 665.604 2608.44 669.335 2603.83 669.335C2599.23 669.335 2595.5 665.604 2595.5 661.001C2595.5 656.399 2599.23 652.668 2603.83 652.668Z" fill="black"/>
<path d="M2662.17 652.668C2666.77 652.668 2670.5 656.399 2670.5 661.001C2670.5 665.604 2666.77 669.335 2662.17 669.335C2657.56 669.335 2653.83 665.604 2653.83 661.001C2653.83 656.399 2657.56 652.668 2662.17 652.668Z" fill="black"/>
<path d="M2641.33 661.001C2641.33 656.399 2637.6 652.668 2633 652.668C2628.4 652.668 2624.67 656.399 2624.67 661.001C2624.67 665.604 2628.4 669.335 2633 669.335C2637.6 669.335 2641.33 665.604 2641.33 661.001Z" fill="black"/>
</g>
</g>
</g>
<g id="Bold-S">
<g id="Outline / More Horizontal Outline_21">
<g id="Shape_21">
<path d="M2307.83 652.668C2312.44 652.668 2316.17 656.399 2316.17 661.001C2316.17 665.604 2312.44 669.335 2307.83 669.335C2303.23 669.335 2299.5 665.604 2299.5 661.001C2299.5 656.399 2303.23 652.668 2307.83 652.668Z" fill="black"/>
<path d="M2366.17 652.668C2370.77 652.668 2374.5 656.399 2374.5 661.001C2374.5 665.604 2370.77 669.335 2366.17 669.335C2361.56 669.335 2357.83 665.604 2357.83 661.001C2357.83 656.399 2361.56 652.668 2366.17 652.668Z" fill="black"/>
<path d="M2345.33 661.001C2345.33 656.399 2341.6 652.668 2337 652.668C2332.4 652.668 2328.67 656.399 2328.67 661.001C2328.67 665.604 2332.4 669.335 2337 669.335C2341.6 669.335 2345.33 665.604 2345.33 661.001Z" fill="black"/>
</g>
</g>
</g>
<g id="Semibold-S">
<g id="Outline / More Horizontal Outline_22">
<g id="Shape_22">
<path d="M2011.83 652.668C2016.44 652.668 2020.17 656.399 2020.17 661.001C2020.17 665.604 2016.44 669.335 2011.83 669.335C2007.23 669.335 2003.5 665.604 2003.5 661.001C2003.5 656.399 2007.23 652.668 2011.83 652.668Z" fill="black"/>
<path d="M2070.17 652.668C2074.77 652.668 2078.5 656.399 2078.5 661.001C2078.5 665.604 2074.77 669.335 2070.17 669.335C2065.56 669.335 2061.83 665.604 2061.83 661.001C2061.83 656.399 2065.56 652.668 2070.17 652.668Z" fill="black"/>
<path d="M2049.33 661.001C2049.33 656.399 2045.6 652.668 2041 652.668C2036.4 652.668 2032.67 656.399 2032.67 661.001C2032.67 665.604 2036.4 669.335 2041 669.335C2045.6 669.335 2049.33 665.604 2049.33 661.001Z" fill="black"/>
</g>
</g>
</g>
<g id="Medium-S">
<g id="Outline / More Horizontal Outline_23">
<g id="Shape_23">
<path d="M1715.83 652.668C1720.44 652.668 1724.17 656.399 1724.17 661.001C1724.17 665.604 1720.44 669.335 1715.83 669.335C1711.23 669.335 1707.5 665.604 1707.5 661.001C1707.5 656.399 1711.23 652.668 1715.83 652.668Z" fill="black"/>
<path d="M1774.17 652.668C1778.77 652.668 1782.5 656.399 1782.5 661.001C1782.5 665.604 1778.77 669.335 1774.17 669.335C1769.56 669.335 1765.83 665.604 1765.83 661.001C1765.83 656.399 1769.56 652.668 1774.17 652.668Z" fill="black"/>
<path d="M1753.33 661.001C1753.33 656.399 1749.6 652.668 1745 652.668C1740.4 652.668 1736.67 656.399 1736.67 661.001C1736.67 665.604 1740.4 669.335 1745 669.335C1749.6 669.335 1753.33 665.604 1753.33 661.001Z" fill="black"/>
</g>
</g>
</g>
<g id="Regular-S">
<g id="Outline / More Horizontal Outline_24">
<g id="Shape_24">
<path d="M1419.83 652.668C1424.44 652.668 1428.17 656.399 1428.17 661.001C1428.17 665.604 1424.44 669.335 1419.83 669.335C1415.23 669.335 1411.5 665.604 1411.5 661.001C1411.5 656.399 1415.23 652.668 1419.83 652.668Z" fill="black"/>
<path d="M1478.17 652.668C1482.77 652.668 1486.5 656.399 1486.5 661.001C1486.5 665.604 1482.77 669.335 1478.17 669.335C1473.56 669.335 1469.83 665.604 1469.83 661.001C1469.83 656.399 1473.56 652.668 1478.17 652.668Z" fill="black"/>
<path d="M1457.33 661.001C1457.33 656.399 1453.6 652.668 1449 652.668C1444.4 652.668 1440.67 656.399 1440.67 661.001C1440.67 665.604 1444.4 669.335 1449 669.335C1453.6 669.335 1457.33 665.604 1457.33 661.001Z" fill="black"/>
</g>
</g>
</g>
<g id="Light-S">
<g id="Outline / More Horizontal Outline_25">
<g id="Shape_25">
<path d="M1123.83 652.668C1128.44 652.668 1132.17 656.399 1132.17 661.001C1132.17 665.604 1128.44 669.335 1123.83 669.335C1119.23 669.335 1115.5 665.604 1115.5 661.001C1115.5 656.399 1119.23 652.668 1123.83 652.668Z" fill="black"/>
<path d="M1182.17 652.668C1186.77 652.668 1190.5 656.399 1190.5 661.001C1190.5 665.604 1186.77 669.335 1182.17 669.335C1177.56 669.335 1173.83 665.604 1173.83 661.001C1173.83 656.399 1177.56 652.668 1182.17 652.668Z" fill="black"/>
<path d="M1161.33 661.001C1161.33 656.399 1157.6 652.668 1153 652.668C1148.4 652.668 1144.67 656.399 1144.67 661.001C1144.67 665.604 1148.4 669.335 1153 669.335C1157.6 669.335 1161.33 665.604 1161.33 661.001Z" fill="black"/>
</g>
</g>
</g>
<g id="Thin-S">
<g id="Outline / More Horizontal Outline_26">
<g id="Shape_26">
<path d="M827.833 652.668C832.436 652.668 836.167 656.399 836.167 661.001C836.167 665.604 832.436 669.335 827.833 669.335C823.231 669.335 819.5 665.604 819.5 661.001C819.5 656.399 823.231 652.668 827.833 652.668Z" fill="black"/>
<path d="M886.167 652.668C890.769 652.668 894.5 656.399 894.5 661.001C894.5 665.604 890.769 669.335 886.167 669.335C881.564 669.335 877.833 665.604 877.833 661.001C877.833 656.399 881.564 652.668 886.167 652.668Z" fill="black"/>
<path d="M865.333 661.001C865.333 656.399 861.602 652.668 857 652.668C852.398 652.668 848.667 656.399 848.667 661.001C848.667 665.604 852.398 669.335 857 669.335C861.602 669.335 865.333 665.604 865.333 661.001Z" fill="black"/>
</g>
</g>
</g>
<g id="Ultralight-S">
<g id="Outline / More Horizontal Outline_27">
<g id="Shape_27">
<path d="M531.833 652.668C536.436 652.668 540.167 656.399 540.167 661.001C540.167 665.604 536.436 669.335 531.833 669.335C527.231 669.335 523.5 665.604 523.5 661.001C523.5 656.399 527.231 652.668 531.833 652.668Z" fill="black"/>
<path d="M590.167 652.668C594.769 652.668 598.5 656.399 598.5 661.001C598.5 665.604 594.769 669.335 590.167 669.335C585.564 669.335 581.833 665.604 581.833 661.001C581.833 656.399 585.564 652.668 590.167 652.668Z" fill="black"/>
<path d="M569.333 661.001C569.333 656.399 565.602 652.668 561 652.668C556.398 652.668 552.667 656.399 552.667 661.001C552.667 665.604 556.398 669.335 561 669.335C565.602 669.335 569.333 665.604 569.333 661.001Z" fill="black"/>
</g>
</g>
</g>
</g>
</g>
<defs>
<clipPath id="clip0_805_27002">
<rect width="3300" height="2200" fill="white"/>
</clipPath>
</defs>
</svg>
