<svg width="3300" height="2200" viewBox="0 0 3300 2200" fill="none" xmlns="http://www.w3.org/2000/svg">
<rect width="3300" height="2200" fill="#E5E5E5"/>
<g id="Category / Outline / VIP" clip-path="url(#clip0_0_1)">
<g id="Notes">
<path id="artboard" d="M3300 0H0V2200H3300V0Z" fill="white"/>
<path id="Vector" d="M263 292H3036" stroke="black" stroke-width="0.5"/>
<text id="Weight/Scale Variations" fill="black" xml:space="preserve" style="white-space: pre" font-family="Roboto" font-size="12" letter-spacing="0em"><tspan x="263" y="321.102">Weight/Scale Variations</tspan></text>
<text id="Ultralight" fill="black" xml:space="preserve" style="white-space: pre" font-family="Roboto" font-size="12" letter-spacing="0em"><tspan x="535.211" y="321.102">Ultralight</tspan></text>
<text id="Thin" fill="black" xml:space="preserve" style="white-space: pre" font-family="Roboto" font-size="12" letter-spacing="0em"><tspan x="844.422" y="321.102">Thin</tspan></text>
<text id="Light" fill="black" xml:space="preserve" style="white-space: pre" font-family="Roboto" font-size="12" letter-spacing="0em"><tspan x="1139.63" y="321.102">Light</tspan></text>
<text id="Regular" fill="black" xml:space="preserve" style="white-space: pre" font-family="Roboto" font-size="12" letter-spacing="0em"><tspan x="1429.34" y="321.102">Regular</tspan></text>
<text id="Medium" fill="black" xml:space="preserve" style="white-space: pre" font-family="Roboto" font-size="12" letter-spacing="0em"><tspan x="1724.56" y="321.102">Medium</tspan></text>
<text id="Semibold" fill="black" xml:space="preserve" style="white-space: pre" font-family="Roboto" font-size="12" letter-spacing="0em"><tspan x="2017.77" y="321.102">Semibold</tspan></text>
<text id="Bold" fill="black" xml:space="preserve" style="white-space: pre" font-family="Roboto" font-size="12" letter-spacing="0em"><tspan x="2327.48" y="321.102">Bold</tspan></text>
<text id="Heavy" fill="black" xml:space="preserve" style="white-space: pre" font-family="Roboto" font-size="12" letter-spacing="0em"><tspan x="2620.19" y="321.102">Heavy</tspan></text>
<text id="Black" fill="black" xml:space="preserve" style="white-space: pre" font-family="Roboto" font-size="12" letter-spacing="0em"><tspan x="2918.4" y="321.102">Black</tspan></text>
<path id="Vector_2" d="M263 1903H3036" stroke="black" stroke-width="0.5"/>
<g id="Group">
<path id="Vector_3" d="M272.248 1933.83C276.555 1933.83 280.139 1930.26 280.139 1925.95C280.139 1921.64 276.545 1918.07 272.238 1918.07C267.941 1918.07 264.367 1921.64 264.367 1925.95C264.367 1930.26 267.951 1933.83 272.248 1933.83ZM272.248 1932.35C268.703 1932.35 265.871 1929.51 265.871 1925.95C265.871 1922.4 268.693 1919.55 272.238 1919.55C275.793 1919.55 278.635 1922.4 278.644 1925.95C278.654 1929.51 275.803 1932.35 272.248 1932.35ZM272.229 1929.57C272.697 1929.57 272.971 1929.26 272.971 1928.74V1926.68H275.197C275.695 1926.68 276.037 1926.43 276.037 1925.96C276.037 1925.48 275.715 1925.22 275.197 1925.22H272.971V1922.99C272.971 1922.47 272.697 1922.15 272.229 1922.15C271.76 1922.15 271.506 1922.49 271.506 1922.99V1925.22H269.299C268.781 1925.22 268.449 1925.48 268.449 1925.96C268.449 1926.43 268.801 1926.68 269.299 1926.68H271.506V1928.74C271.506 1929.24 271.76 1929.57 272.229 1929.57Z" fill="black"/>
</g>
<g id="Group_2">
<path id="Vector_4" d="M293.215 1935.91C298.664 1935.91 303.176 1931.4 303.176 1925.95C303.176 1920.51 298.655 1915.99 293.205 1915.99C287.766 1915.99 283.254 1920.51 283.254 1925.95C283.254 1931.4 287.776 1935.91 293.215 1935.91ZM293.215 1934.25C288.606 1934.25 284.924 1930.56 284.924 1925.95C284.924 1921.35 288.596 1917.65 293.205 1917.65C297.815 1917.65 301.506 1921.35 301.516 1925.95C301.526 1930.56 297.825 1934.25 293.215 1934.25ZM293.196 1930.59C293.713 1930.59 294.026 1930.23 294.026 1929.66V1926.77H297.082C297.629 1926.77 298.01 1926.49 298.01 1925.97C298.01 1925.44 297.649 1925.14 297.082 1925.14H294.026V1922.07C294.026 1921.5 293.713 1921.14 293.196 1921.14C292.678 1921.14 292.385 1921.52 292.385 1922.07V1925.14H289.338C288.772 1925.14 288.401 1925.44 288.401 1925.97C288.401 1926.49 288.791 1926.77 289.338 1926.77H292.385V1929.66C292.385 1930.21 292.678 1930.59 293.196 1930.59Z" fill="black"/>
</g>
<g id="Group_3">
<path id="Vector_5" d="M319.895 1938.67C326.858 1938.67 332.619 1932.92 332.619 1925.96C332.619 1918.99 326.848 1913.24 319.885 1913.24C312.932 1913.24 307.18 1918.99 307.18 1925.96C307.18 1932.92 312.942 1938.67 319.895 1938.67ZM319.895 1936.86C313.86 1936.86 309.006 1931.99 309.006 1925.96C309.006 1919.92 313.85 1915.06 319.885 1915.06C325.93 1915.06 330.783 1919.92 330.793 1925.96C330.803 1931.99 325.94 1936.86 319.895 1936.86ZM319.875 1931.93C320.442 1931.93 320.793 1931.54 320.793 1930.94V1926.87H325.031C325.617 1926.87 326.037 1926.53 326.037 1925.98C326.037 1925.4 325.647 1925.06 325.031 1925.06H320.793V1920.81C320.793 1920.2 320.442 1919.8 319.875 1919.8C319.309 1919.8 318.987 1920.21 318.987 1920.81V1925.06H314.758C314.143 1925.06 313.733 1925.4 313.733 1925.98C313.733 1926.53 314.162 1926.87 314.758 1926.87H318.987V1930.94C318.987 1931.52 319.309 1931.93 319.875 1931.93Z" fill="black"/>
</g>
<text id="Design Variations" fill="black" xml:space="preserve" style="white-space: pre" font-family="Roboto" font-size="12" letter-spacing="0em"><tspan x="263" y="1952.1">Design Variations</tspan></text>
<text id="Symbols are supported in up to nine weights and three scales." fill="black" xml:space="preserve" style="white-space: pre" font-family="Roboto" font-size="12" letter-spacing="0em"><tspan x="263" y="1970.1">Symbols are supported in up to nine weights and three scales.</tspan></text>
<text id="For optimal layout with text and other symbols, vertically align" fill="black" xml:space="preserve" style="white-space: pre" font-family="Roboto" font-size="12" letter-spacing="0em"><tspan x="263" y="1988.1">For optimal layout with text and other symbols, vertically align</tspan></text>
<text id="symbols with the adjacent text." fill="black" xml:space="preserve" style="white-space: pre" font-family="Roboto" font-size="12" letter-spacing="0em"><tspan x="263" y="2006.1">symbols with the adjacent text.</tspan></text>
<path id="Vector_6" opacity="0.4" d="M779 1919H776V1933H779V1919Z" fill="#00AEEF"/>
<g id="Group_4">
<path id="Vector_7" d="M789.527 1933H791.373L786.178 1918.91H784.439L779.244 1933H781.09L782.506 1928.96H788.111L789.527 1933ZM785.279 1921.04H785.338L787.594 1927.47H783.023L785.279 1921.04Z" fill="black"/>
</g>
<path id="Vector_8" opacity="0.4" d="M794.617 1919H791.617V1933H794.617V1919Z" fill="#00AEEF"/>
<text id="Margins" fill="black" xml:space="preserve" style="white-space: pre" font-family="Roboto" font-size="12" letter-spacing="0em"><tspan x="776" y="1952.1">Margins</tspan></text>
<text id="Leading and trailing margins on the left and right side of each symbol" fill="black" xml:space="preserve" style="white-space: pre" font-family="Roboto" font-size="12" letter-spacing="0em"><tspan x="776" y="1970.1">Leading and trailing margins on the left and right side of each symbol</tspan></text>
<text id="can be adjusted by modifying the width of the blue rectangles." fill="black" xml:space="preserve" style="white-space: pre" font-family="Roboto" font-size="12" letter-spacing="0em"><tspan x="776" y="1988.1">can be adjusted by modifying the width of the blue rectangles.</tspan></text>
<text id="Modifications are automatically applied proportionally to all" fill="black" xml:space="preserve" style="white-space: pre" font-family="Roboto" font-size="12" letter-spacing="0em"><tspan x="776" y="2006.1">Modifications are automatically applied proportionally to all</tspan></text>
<text id="scales and weights." fill="black" xml:space="preserve" style="white-space: pre" font-family="Roboto" font-size="12" letter-spacing="0em"><tspan x="776" y="2024.1">scales and weights.</tspan></text>
<g id="Group_5">
<path id="Vector_9" d="M1291.83 1936.11L1293.38 1937.66C1294.22 1938.49 1295.19 1938.42 1296.06 1937.46L1306.28 1926.34C1306.71 1926.63 1307.1 1926.62 1307.56 1926.52L1308.61 1926.31L1309.3 1927L1309.25 1927.52C1309.19 1928.05 1309.35 1928.47 1309.85 1928.97L1310.66 1929.78C1311.17 1930.28 1311.82 1930.31 1312.3 1929.83L1315.55 1926.58C1316.03 1926.1 1316.01 1925.45 1315.5 1924.94L1314.68 1924.12C1314.19 1923.62 1313.78 1923.45 1313.24 1923.53L1312.71 1923.58L1312.06 1922.92L1312.34 1921.78C1312.49 1921.21 1312.34 1920.74 1311.71 1920.14L1309.3 1917.75C1305.76 1914.22 1301.23 1914.33 1298.11 1917.46C1297.69 1917.89 1297.64 1918.48 1297.92 1918.91C1298.15 1919.28 1298.63 1919.5 1299.27 1919.34C1300.79 1918.96 1302.3 1919.07 1303.79 1920.08L1303.16 1921.66C1302.93 1922.25 1302.95 1922.73 1303.18 1923.16L1292.02 1933.44C1291.08 1934.31 1290.97 1935.25 1291.83 1936.11ZM1299.67 1917.85C1302.34 1915.86 1305.65 1916.17 1308.05 1918.58L1310.68 1921.19C1310.91 1921.43 1310.94 1921.61 1310.88 1921.91L1310.5 1923.47L1312.08 1925.04L1313.04 1924.95C1313.33 1924.92 1313.41 1924.94 1313.64 1925.17L1314.26 1925.79L1311.51 1928.54L1310.88 1927.92C1310.66 1927.7 1310.64 1927.6 1310.67 1927.32L1310.76 1926.36L1309.2 1924.8L1307.57 1925.11C1307.29 1925.17 1307.14 1925.17 1306.91 1924.92L1304.73 1922.75C1304.51 1922.51 1304.48 1922.37 1304.61 1922.05L1305.55 1919.78C1303.95 1918.24 1301.84 1917.39 1299.8 1918.05C1299.71 1918.08 1299.64 1918.06 1299.62 1918.02C1299.59 1917.97 1299.59 1917.92 1299.67 1917.85ZM1293.1 1935.41C1292.61 1934.91 1292.79 1934.61 1293.12 1934.31L1304.08 1924.19L1305.31 1925.42L1295.15 1936.35C1294.85 1936.68 1294.47 1936.78 1294.07 1936.38L1293.1 1935.41Z" fill="black"/>
</g>
<text id="Exporting" fill="black" xml:space="preserve" style="white-space: pre" font-family="Roboto" font-size="12" letter-spacing="0em"><tspan x="1289" y="1952.1">Exporting</tspan></text>
<text id="Symbols should be outlined when exporting to ensure the" fill="black" xml:space="preserve" style="white-space: pre" font-family="Roboto" font-size="12" letter-spacing="0em"><tspan x="1289" y="1970.1">Symbols should be outlined when exporting to ensure the</tspan></text>
<text id="design is preserved when submitting to Xcode." fill="black" xml:space="preserve" style="white-space: pre" font-family="Roboto" font-size="12" letter-spacing="0em"><tspan x="1289" y="1988.1">design is preserved when submitting to Xcode.</tspan></text>
<text id="template-version" fill="black" xml:space="preserve" style="white-space: pre" font-family="Roboto" font-size="12" letter-spacing="0em"><tspan x="2958" y="1932.1">Template v.1.0</tspan></text>
<text id="Generated from pencil.circle" fill="black" xml:space="preserve" style="white-space: pre" font-family="Roboto" font-size="12" letter-spacing="0em"><tspan x="2885" y="1950.1">Generated from pencil.circle</tspan></text>
<text id="Typeset at 100 points" fill="black" xml:space="preserve" style="white-space: pre" font-family="Roboto" font-size="12" letter-spacing="0em"><tspan x="2921" y="1968.1">Typeset at 100 points</tspan></text>
<text id="Small" fill="black" xml:space="preserve" style="white-space: pre" font-family="Roboto" font-size="12" letter-spacing="0em"><tspan x="263" y="725.102">Small</tspan></text>
<text id="Medium_2" fill="black" xml:space="preserve" style="white-space: pre" font-family="Roboto" font-size="12" letter-spacing="0em"><tspan x="263" y="1155.1">Medium</tspan></text>
<text id="Large" fill="black" xml:space="preserve" style="white-space: pre" font-family="Roboto" font-size="12" letter-spacing="0em"><tspan x="263" y="1585.1">Large</tspan></text>
</g>
<g id="Guides">
<g id="H-reference">
<path id="Vector_10" d="M393.932 695.998H396.666L369.566 625.539H367.076L339.977 695.998H342.662L351.94 671.535H384.703L393.932 695.998ZM368.199 628.908H368.443L383.824 669.289H352.818L368.199 628.908Z" fill="#27AAE1"/>
</g>
<path id="Baseline-S" d="M263 696H3036" stroke="#27AAE1" stroke-width="0.577"/>
<path id="Capline-S" d="M263 626H3036" stroke="#27AAE1" stroke-width="0.577"/>
<g id="H-reference_2">
<path id="Vector_11" d="M393.932 1126H396.666L369.566 1055.54H367.076L339.977 1126H342.662L351.94 1101.54H384.703L393.932 1126ZM368.199 1058.91H368.443L383.824 1099.29H352.818L368.199 1058.91Z" fill="#27AAE1"/>
</g>
<path id="Baseline-M" d="M263 1126H3036" stroke="#27AAE1" stroke-width="0.577"/>
<path id="Capline-M" d="M263 1056H3036" stroke="#27AAE1" stroke-width="0.577"/>
<g id="H-reference_3">
<path id="Vector_12" d="M393.932 1556H396.666L369.566 1485.54H367.076L339.977 1556H342.662L351.94 1531.54H384.703L393.932 1556ZM368.199 1488.91H368.443L383.824 1529.29H352.818L368.199 1488.91Z" fill="#27AAE1"/>
</g>
<g id="Group 1">
<path id="Baseline-L" d="M263 1556H3036" stroke="#27AAE1" stroke-width="0.577"/>
<path id="Capline-L" d="M263 1486H3036" stroke="#27AAE1" stroke-width="0.577"/>
</g>
<path id="left-margin" opacity="0.4" d="M1390.04 1030.79H1381.3V1150.12H1390.04V1030.79Z" fill="#00AEEF"/>
<path id="right-margin" opacity="0.4" d="M1516.39 1030.79H1507.65V1150.12H1516.39V1030.79Z" fill="#00AEEF"/>
</g>
<g id="Symbols">
<g id="Black-L">
<g id="Outline / VIP Outline">
<g id="Shape">
<path fill-rule="evenodd" clip-rule="evenodd" d="M2944 1476C2944 1482.34 2940.06 1487.76 2934.5 1489.96C2934.58 1490.05 2934.66 1490.14 2934.74 1490.23L2948.88 1506.81C2952.12 1510.61 2957.71 1511.35 2961.83 1508.52L2976.12 1498.69C2974.77 1496.44 2974 1493.81 2974 1491C2974 1482.72 2980.72 1476 2989 1476C2997.28 1476 3004 1482.72 3004 1491C3004 1498.98 2997.76 1505.51 2989.89 1505.97L2982.77 1552.57C2982.04 1557.33 2977.95 1560.84 2973.13 1560.84H2884.88C2880.06 1560.84 2875.97 1557.33 2875.24 1552.57L2868.12 1505.97C2860.24 1505.52 2854 1498.99 2854 1491C2854 1482.72 2860.72 1476 2869 1476C2877.28 1476 2884 1482.72 2884 1491C2884 1493.79 2883.24 1496.4 2881.92 1498.63L2896.41 1508.53C2900.54 1511.35 2906.14 1510.59 2909.36 1506.77L2923.3 1490.26C2923.38 1490.16 2923.47 1490.07 2923.55 1489.98C2917.96 1487.8 2914 1482.36 2914 1476C2914 1467.72 2920.72 1461 2929 1461C2937.28 1461 2944 1467.72 2944 1476ZM2929 1481.25C2931.9 1481.25 2934.25 1478.9 2934.25 1476C2934.25 1473.1 2931.9 1470.75 2929 1470.75C2926.1 1470.75 2923.75 1473.1 2923.75 1476C2923.75 1478.9 2926.1 1481.25 2929 1481.25ZM2979.71 1508.05L2967.35 1516.55C2959.12 1522.21 2947.95 1520.74 2941.46 1513.14L2929.04 1498.57L2916.81 1513.06C2910.36 1520.7 2899.17 1522.23 2890.91 1516.58L2878.28 1507.96L2884.88 1551.09L2973.13 1551.09L2979.71 1508.05ZM2874.25 1491C2874.25 1493.9 2871.9 1496.25 2869 1496.25C2866.1 1496.25 2863.75 1493.9 2863.75 1491C2863.75 1488.1 2866.1 1485.75 2869 1485.75C2871.9 1485.75 2874.25 1488.1 2874.25 1491ZM2989 1496.25C2991.9 1496.25 2994.25 1493.9 2994.25 1491C2994.25 1488.1 2991.9 1485.75 2989 1485.75C2986.1 1485.75 2983.75 1488.1 2983.75 1491C2983.75 1493.9 2986.1 1496.25 2989 1496.25Z" fill="black"/>
<path d="M2976.62 1581.02C2979.32 1581.02 2981.5 1578.84 2981.5 1576.15C2981.5 1573.46 2979.32 1571.27 2976.62 1571.27H2881.37C2878.68 1571.27 2876.5 1573.46 2876.5 1576.15C2876.5 1578.84 2878.68 1581.02 2881.37 1581.02H2976.62Z" fill="black"/>
</g>
</g>
</g>
<g id="Heavy-L">
<g id="Outline / VIP Outline_2">
<g id="Shape_2">
<path fill-rule="evenodd" clip-rule="evenodd" d="M2648 1476C2648 1482.34 2644.06 1487.76 2638.5 1489.96C2638.58 1490.05 2638.66 1490.14 2638.74 1490.23L2652.88 1506.81C2656.12 1510.61 2661.71 1511.35 2665.83 1508.52L2680.12 1498.69C2678.77 1496.44 2678 1493.81 2678 1491C2678 1482.72 2684.72 1476 2693 1476C2701.28 1476 2708 1482.72 2708 1491C2708 1498.98 2701.76 1505.51 2693.89 1505.97L2686.77 1552.57C2686.04 1557.33 2681.95 1560.84 2677.13 1560.84H2588.88C2584.06 1560.84 2579.97 1557.33 2579.24 1552.57L2572.12 1505.97C2564.24 1505.52 2558 1498.99 2558 1491C2558 1482.72 2564.72 1476 2573 1476C2581.28 1476 2588 1482.72 2588 1491C2588 1493.79 2587.24 1496.4 2585.92 1498.63L2600.41 1508.53C2604.54 1511.35 2610.14 1510.59 2613.36 1506.77L2627.3 1490.26C2627.38 1490.16 2627.47 1490.07 2627.55 1489.98C2621.96 1487.8 2618 1482.36 2618 1476C2618 1467.72 2624.72 1461 2633 1461C2641.28 1461 2648 1467.72 2648 1476ZM2633 1481.25C2635.9 1481.25 2638.25 1478.9 2638.25 1476C2638.25 1473.1 2635.9 1470.75 2633 1470.75C2630.1 1470.75 2627.75 1473.1 2627.75 1476C2627.75 1478.9 2630.1 1481.25 2633 1481.25ZM2683.71 1508.05L2671.35 1516.55C2663.12 1522.21 2651.95 1520.74 2645.46 1513.14L2633.04 1498.57L2620.81 1513.06C2614.36 1520.7 2603.17 1522.23 2594.91 1516.58L2582.28 1507.96L2588.88 1551.09L2677.13 1551.09L2683.71 1508.05ZM2578.25 1491C2578.25 1493.9 2575.9 1496.25 2573 1496.25C2570.1 1496.25 2567.75 1493.9 2567.75 1491C2567.75 1488.1 2570.1 1485.75 2573 1485.75C2575.9 1485.75 2578.25 1488.1 2578.25 1491ZM2693 1496.25C2695.9 1496.25 2698.25 1493.9 2698.25 1491C2698.25 1488.1 2695.9 1485.75 2693 1485.75C2690.1 1485.75 2687.75 1488.1 2687.75 1491C2687.75 1493.9 2690.1 1496.25 2693 1496.25Z" fill="black"/>
<path d="M2680.62 1581.02C2683.32 1581.02 2685.5 1578.84 2685.5 1576.15C2685.5 1573.46 2683.32 1571.27 2680.62 1571.27H2585.37C2582.68 1571.27 2580.5 1573.46 2580.5 1576.15C2580.5 1578.84 2582.68 1581.02 2585.37 1581.02H2680.62Z" fill="black"/>
</g>
</g>
</g>
<g id="Bold-L">
<g id="Outline / VIP Outline_3">
<g id="Shape_3">
<path fill-rule="evenodd" clip-rule="evenodd" d="M2352 1476C2352 1482.34 2348.06 1487.76 2342.5 1489.96C2342.58 1490.05 2342.66 1490.14 2342.74 1490.23L2356.88 1506.81C2360.12 1510.61 2365.71 1511.35 2369.83 1508.52L2384.12 1498.69C2382.77 1496.44 2382 1493.81 2382 1491C2382 1482.72 2388.72 1476 2397 1476C2405.28 1476 2412 1482.72 2412 1491C2412 1498.98 2405.76 1505.51 2397.89 1505.97L2390.77 1552.57C2390.04 1557.33 2385.95 1560.84 2381.13 1560.84H2292.88C2288.06 1560.84 2283.97 1557.33 2283.24 1552.57L2276.12 1505.97C2268.24 1505.52 2262 1498.99 2262 1491C2262 1482.72 2268.72 1476 2277 1476C2285.28 1476 2292 1482.72 2292 1491C2292 1493.79 2291.24 1496.4 2289.92 1498.63L2304.41 1508.53C2308.54 1511.35 2314.14 1510.59 2317.36 1506.77L2331.3 1490.26C2331.38 1490.16 2331.47 1490.07 2331.55 1489.98C2325.96 1487.8 2322 1482.36 2322 1476C2322 1467.72 2328.72 1461 2337 1461C2345.28 1461 2352 1467.72 2352 1476ZM2337 1481.25C2339.9 1481.25 2342.25 1478.9 2342.25 1476C2342.25 1473.1 2339.9 1470.75 2337 1470.75C2334.1 1470.75 2331.75 1473.1 2331.75 1476C2331.75 1478.9 2334.1 1481.25 2337 1481.25ZM2387.71 1508.05L2375.35 1516.55C2367.12 1522.21 2355.95 1520.74 2349.46 1513.14L2337.04 1498.57L2324.81 1513.06C2318.36 1520.7 2307.17 1522.23 2298.91 1516.58L2286.28 1507.96L2292.88 1551.09L2381.13 1551.09L2387.71 1508.05ZM2282.25 1491C2282.25 1493.9 2279.9 1496.25 2277 1496.25C2274.1 1496.25 2271.75 1493.9 2271.75 1491C2271.75 1488.1 2274.1 1485.75 2277 1485.75C2279.9 1485.75 2282.25 1488.1 2282.25 1491ZM2397 1496.25C2399.9 1496.25 2402.25 1493.9 2402.25 1491C2402.25 1488.1 2399.9 1485.75 2397 1485.75C2394.1 1485.75 2391.75 1488.1 2391.75 1491C2391.75 1493.9 2394.1 1496.25 2397 1496.25Z" fill="black"/>
<path d="M2384.62 1581.02C2387.32 1581.02 2389.5 1578.84 2389.5 1576.15C2389.5 1573.46 2387.32 1571.27 2384.62 1571.27H2289.37C2286.68 1571.27 2284.5 1573.46 2284.5 1576.15C2284.5 1578.84 2286.68 1581.02 2289.37 1581.02H2384.62Z" fill="black"/>
</g>
</g>
</g>
<g id="Semibold-L">
<g id="Outline / VIP Outline_4">
<g id="Shape_4">
<path fill-rule="evenodd" clip-rule="evenodd" d="M2056 1476C2056 1482.34 2052.06 1487.76 2046.5 1489.96C2046.58 1490.05 2046.66 1490.14 2046.74 1490.23L2060.88 1506.81C2064.12 1510.61 2069.71 1511.35 2073.83 1508.52L2088.12 1498.69C2086.77 1496.44 2086 1493.81 2086 1491C2086 1482.72 2092.72 1476 2101 1476C2109.28 1476 2116 1482.72 2116 1491C2116 1498.98 2109.76 1505.51 2101.89 1505.97L2094.77 1552.57C2094.04 1557.33 2089.95 1560.84 2085.13 1560.84H1996.88C1992.06 1560.84 1987.97 1557.33 1987.24 1552.57L1980.12 1505.97C1972.24 1505.52 1966 1498.99 1966 1491C1966 1482.72 1972.72 1476 1981 1476C1989.28 1476 1996 1482.72 1996 1491C1996 1493.79 1995.24 1496.4 1993.92 1498.63L2008.41 1508.53C2012.54 1511.35 2018.14 1510.59 2021.36 1506.77L2035.3 1490.26C2035.38 1490.16 2035.47 1490.07 2035.55 1489.98C2029.96 1487.8 2026 1482.36 2026 1476C2026 1467.72 2032.72 1461 2041 1461C2049.28 1461 2056 1467.72 2056 1476ZM2041 1481.25C2043.9 1481.25 2046.25 1478.9 2046.25 1476C2046.25 1473.1 2043.9 1470.75 2041 1470.75C2038.1 1470.75 2035.75 1473.1 2035.75 1476C2035.75 1478.9 2038.1 1481.25 2041 1481.25ZM2091.71 1508.05L2079.35 1516.55C2071.12 1522.21 2059.95 1520.74 2053.46 1513.14L2041.04 1498.57L2028.81 1513.06C2022.36 1520.7 2011.17 1522.23 2002.91 1516.58L1990.28 1507.96L1996.88 1551.09L2085.13 1551.09L2091.71 1508.05ZM1986.25 1491C1986.25 1493.9 1983.9 1496.25 1981 1496.25C1978.1 1496.25 1975.75 1493.9 1975.75 1491C1975.75 1488.1 1978.1 1485.75 1981 1485.75C1983.9 1485.75 1986.25 1488.1 1986.25 1491ZM2101 1496.25C2103.9 1496.25 2106.25 1493.9 2106.25 1491C2106.25 1488.1 2103.9 1485.75 2101 1485.75C2098.1 1485.75 2095.75 1488.1 2095.75 1491C2095.75 1493.9 2098.1 1496.25 2101 1496.25Z" fill="black"/>
<path d="M2088.62 1581.02C2091.32 1581.02 2093.5 1578.84 2093.5 1576.15C2093.5 1573.46 2091.32 1571.27 2088.62 1571.27H1993.37C1990.68 1571.27 1988.5 1573.46 1988.5 1576.15C1988.5 1578.84 1990.68 1581.02 1993.37 1581.02H2088.62Z" fill="black"/>
</g>
</g>
</g>
<g id="Medium-L">
<g id="Outline / VIP Outline_5">
<g id="Shape_5">
<path fill-rule="evenodd" clip-rule="evenodd" d="M1760 1476C1760 1482.34 1756.06 1487.76 1750.5 1489.96C1750.58 1490.05 1750.66 1490.14 1750.74 1490.23L1764.88 1506.81C1768.12 1510.61 1773.71 1511.35 1777.83 1508.52L1792.12 1498.69C1790.77 1496.44 1790 1493.81 1790 1491C1790 1482.72 1796.72 1476 1805 1476C1813.28 1476 1820 1482.72 1820 1491C1820 1498.98 1813.76 1505.51 1805.89 1505.97L1798.77 1552.57C1798.04 1557.33 1793.95 1560.84 1789.13 1560.84H1700.88C1696.06 1560.84 1691.97 1557.33 1691.24 1552.57L1684.12 1505.97C1676.24 1505.52 1670 1498.99 1670 1491C1670 1482.72 1676.72 1476 1685 1476C1693.28 1476 1700 1482.72 1700 1491C1700 1493.79 1699.24 1496.4 1697.92 1498.63L1712.41 1508.53C1716.54 1511.35 1722.14 1510.59 1725.36 1506.77L1739.3 1490.26C1739.38 1490.16 1739.47 1490.07 1739.55 1489.98C1733.96 1487.8 1730 1482.36 1730 1476C1730 1467.72 1736.72 1461 1745 1461C1753.28 1461 1760 1467.72 1760 1476ZM1745 1481.25C1747.9 1481.25 1750.25 1478.9 1750.25 1476C1750.25 1473.1 1747.9 1470.75 1745 1470.75C1742.1 1470.75 1739.75 1473.1 1739.75 1476C1739.75 1478.9 1742.1 1481.25 1745 1481.25ZM1795.71 1508.05L1783.35 1516.55C1775.12 1522.21 1763.95 1520.74 1757.46 1513.14L1745.04 1498.57L1732.81 1513.06C1726.36 1520.7 1715.17 1522.23 1706.91 1516.58L1694.28 1507.96L1700.88 1551.09L1789.13 1551.09L1795.71 1508.05ZM1690.25 1491C1690.25 1493.9 1687.9 1496.25 1685 1496.25C1682.1 1496.25 1679.75 1493.9 1679.75 1491C1679.75 1488.1 1682.1 1485.75 1685 1485.75C1687.9 1485.75 1690.25 1488.1 1690.25 1491ZM1805 1496.25C1807.9 1496.25 1810.25 1493.9 1810.25 1491C1810.25 1488.1 1807.9 1485.75 1805 1485.75C1802.1 1485.75 1799.75 1488.1 1799.75 1491C1799.75 1493.9 1802.1 1496.25 1805 1496.25Z" fill="black"/>
<path d="M1792.62 1581.02C1795.32 1581.02 1797.5 1578.84 1797.5 1576.15C1797.5 1573.46 1795.32 1571.27 1792.62 1571.27H1697.37C1694.68 1571.27 1692.5 1573.46 1692.5 1576.15C1692.5 1578.84 1694.68 1581.02 1697.37 1581.02H1792.62Z" fill="black"/>
</g>
</g>
</g>
<g id="Regular-L">
<g id="Outline / VIP Outline_6">
<g id="Shape_6">
<path fill-rule="evenodd" clip-rule="evenodd" d="M1464 1476C1464 1482.34 1460.06 1487.76 1454.5 1489.96C1454.58 1490.05 1454.66 1490.14 1454.74 1490.23L1468.88 1506.81C1472.12 1510.61 1477.71 1511.35 1481.83 1508.52L1496.12 1498.69C1494.77 1496.44 1494 1493.81 1494 1491C1494 1482.72 1500.72 1476 1509 1476C1517.28 1476 1524 1482.72 1524 1491C1524 1498.98 1517.76 1505.51 1509.89 1505.97L1502.77 1552.57C1502.04 1557.33 1497.95 1560.84 1493.13 1560.84H1404.88C1400.06 1560.84 1395.97 1557.33 1395.24 1552.57L1388.12 1505.97C1380.24 1505.52 1374 1498.99 1374 1491C1374 1482.72 1380.72 1476 1389 1476C1397.28 1476 1404 1482.72 1404 1491C1404 1493.79 1403.24 1496.4 1401.92 1498.63L1416.41 1508.53C1420.54 1511.35 1426.14 1510.59 1429.36 1506.77L1443.3 1490.26C1443.38 1490.16 1443.47 1490.07 1443.55 1489.98C1437.96 1487.8 1434 1482.36 1434 1476C1434 1467.72 1440.72 1461 1449 1461C1457.28 1461 1464 1467.72 1464 1476ZM1449 1481.25C1451.9 1481.25 1454.25 1478.9 1454.25 1476C1454.25 1473.1 1451.9 1470.75 1449 1470.75C1446.1 1470.75 1443.75 1473.1 1443.75 1476C1443.75 1478.9 1446.1 1481.25 1449 1481.25ZM1499.71 1508.05L1487.35 1516.55C1479.12 1522.21 1467.95 1520.74 1461.46 1513.14L1449.04 1498.57L1436.81 1513.06C1430.36 1520.7 1419.17 1522.23 1410.91 1516.58L1398.28 1507.96L1404.88 1551.09L1493.13 1551.09L1499.71 1508.05ZM1394.25 1491C1394.25 1493.9 1391.9 1496.25 1389 1496.25C1386.1 1496.25 1383.75 1493.9 1383.75 1491C1383.75 1488.1 1386.1 1485.75 1389 1485.75C1391.9 1485.75 1394.25 1488.1 1394.25 1491ZM1509 1496.25C1511.9 1496.25 1514.25 1493.9 1514.25 1491C1514.25 1488.1 1511.9 1485.75 1509 1485.75C1506.1 1485.75 1503.75 1488.1 1503.75 1491C1503.75 1493.9 1506.1 1496.25 1509 1496.25Z" fill="black"/>
<path d="M1496.62 1581.02C1499.32 1581.02 1501.5 1578.84 1501.5 1576.15C1501.5 1573.46 1499.32 1571.27 1496.62 1571.27H1401.37C1398.68 1571.27 1396.5 1573.46 1396.5 1576.15C1396.5 1578.84 1398.68 1581.02 1401.37 1581.02H1496.62Z" fill="black"/>
</g>
</g>
</g>
<g id="Light-L">
<g id="Outline / VIP Outline_7">
<g id="Shape_7">
<path fill-rule="evenodd" clip-rule="evenodd" d="M1168 1476C1168 1482.34 1164.06 1487.76 1158.5 1489.96C1158.58 1490.05 1158.66 1490.14 1158.74 1490.23L1172.88 1506.81C1176.12 1510.61 1181.71 1511.35 1185.83 1508.52L1200.12 1498.69C1198.77 1496.44 1198 1493.81 1198 1491C1198 1482.72 1204.72 1476 1213 1476C1221.28 1476 1228 1482.72 1228 1491C1228 1498.98 1221.76 1505.51 1213.89 1505.97L1206.77 1552.57C1206.04 1557.33 1201.95 1560.84 1197.13 1560.84H1108.88C1104.06 1560.84 1099.97 1557.33 1099.24 1552.57L1092.12 1505.97C1084.24 1505.52 1078 1498.99 1078 1491C1078 1482.72 1084.72 1476 1093 1476C1101.28 1476 1108 1482.72 1108 1491C1108 1493.79 1107.24 1496.4 1105.92 1498.63L1120.41 1508.53C1124.54 1511.35 1130.14 1510.59 1133.36 1506.77L1147.3 1490.26C1147.38 1490.16 1147.47 1490.07 1147.55 1489.98C1141.96 1487.8 1138 1482.36 1138 1476C1138 1467.72 1144.72 1461 1153 1461C1161.28 1461 1168 1467.72 1168 1476ZM1153 1481.25C1155.9 1481.25 1158.25 1478.9 1158.25 1476C1158.25 1473.1 1155.9 1470.75 1153 1470.75C1150.1 1470.75 1147.75 1473.1 1147.75 1476C1147.75 1478.9 1150.1 1481.25 1153 1481.25ZM1203.71 1508.05L1191.35 1516.55C1183.12 1522.21 1171.95 1520.74 1165.46 1513.14L1153.04 1498.57L1140.81 1513.06C1134.36 1520.7 1123.17 1522.23 1114.91 1516.58L1102.28 1507.96L1108.88 1551.09L1197.13 1551.09L1203.71 1508.05ZM1098.25 1491C1098.25 1493.9 1095.9 1496.25 1093 1496.25C1090.1 1496.25 1087.75 1493.9 1087.75 1491C1087.75 1488.1 1090.1 1485.75 1093 1485.75C1095.9 1485.75 1098.25 1488.1 1098.25 1491ZM1213 1496.25C1215.9 1496.25 1218.25 1493.9 1218.25 1491C1218.25 1488.1 1215.9 1485.75 1213 1485.75C1210.1 1485.75 1207.75 1488.1 1207.75 1491C1207.75 1493.9 1210.1 1496.25 1213 1496.25Z" fill="black"/>
<path d="M1200.62 1581.02C1203.32 1581.02 1205.5 1578.84 1205.5 1576.15C1205.5 1573.46 1203.32 1571.27 1200.62 1571.27H1105.37C1102.68 1571.27 1100.5 1573.46 1100.5 1576.15C1100.5 1578.84 1102.68 1581.02 1105.37 1581.02H1200.62Z" fill="black"/>
</g>
</g>
</g>
<g id="Thin-L">
<g id="Outline / VIP Outline_8">
<g id="Shape_8">
<path fill-rule="evenodd" clip-rule="evenodd" d="M872 1476C872 1482.34 868.064 1487.76 862.502 1489.96C862.583 1490.05 862.663 1490.14 862.742 1490.23L876.884 1506.81C880.124 1510.61 885.712 1511.35 889.828 1508.52L904.119 1498.69C902.773 1496.44 902 1493.81 902 1491C902 1482.72 908.716 1476 917 1476C925.284 1476 932 1482.72 932 1491C932 1498.98 925.762 1505.51 917.893 1505.97L910.771 1552.57C910.043 1557.33 905.949 1560.84 901.133 1560.84H812.878C808.063 1560.84 803.968 1557.33 803.24 1552.57L796.118 1505.97C788.244 1505.52 782 1498.99 782 1491C782 1482.72 788.716 1476 797 1476C805.284 1476 812 1482.72 812 1491C812 1493.79 811.24 1496.4 809.917 1498.63L824.413 1508.53C828.542 1511.35 834.137 1510.59 837.363 1506.77L851.303 1490.26C851.383 1490.16 851.465 1490.07 851.549 1489.98C845.96 1487.8 842 1482.36 842 1476C842 1467.72 848.716 1461 857 1461C865.284 1461 872 1467.72 872 1476ZM857 1481.25C859.899 1481.25 862.25 1478.9 862.25 1476C862.25 1473.1 859.899 1470.75 857 1470.75C854.1 1470.75 851.75 1473.1 851.75 1476C851.75 1478.9 854.1 1481.25 857 1481.25ZM907.712 1508.05L895.352 1516.55C887.122 1522.21 875.946 1520.74 869.465 1513.14L857.043 1498.57L844.814 1513.06C838.362 1520.7 827.173 1522.23 818.913 1516.58L806.284 1507.96L812.878 1551.09L901.133 1551.09L907.712 1508.05ZM802.25 1491C802.25 1493.9 799.899 1496.25 797 1496.25C794.101 1496.25 791.75 1493.9 791.75 1491C791.75 1488.1 794.101 1485.75 797 1485.75C799.899 1485.75 802.25 1488.1 802.25 1491ZM917 1496.25C919.899 1496.25 922.25 1493.9 922.25 1491C922.25 1488.1 919.899 1485.75 917 1485.75C914.1 1485.75 911.75 1488.1 911.75 1491C911.75 1493.9 914.1 1496.25 917 1496.25Z" fill="black"/>
<path d="M904.625 1581.02C907.317 1581.02 909.5 1578.84 909.5 1576.15C909.5 1573.46 907.317 1571.27 904.625 1571.27H809.375C806.683 1571.27 804.5 1573.46 804.5 1576.15C804.5 1578.84 806.683 1581.02 809.375 1581.02H904.625Z" fill="black"/>
</g>
</g>
</g>
<g id="Ultralight-L">
<g id="Outline / VIP Outline_9">
<g id="Shape_9">
<path fill-rule="evenodd" clip-rule="evenodd" d="M576 1476C576 1482.34 572.064 1487.76 566.502 1489.96C566.583 1490.05 566.663 1490.14 566.742 1490.23L580.884 1506.81C584.124 1510.61 589.712 1511.35 593.828 1508.52L608.119 1498.69C606.773 1496.44 606 1493.81 606 1491C606 1482.72 612.716 1476 621 1476C629.284 1476 636 1482.72 636 1491C636 1498.98 629.762 1505.51 621.893 1505.97L614.771 1552.57C614.043 1557.33 609.949 1560.84 605.133 1560.84H516.878C512.063 1560.84 507.968 1557.33 507.24 1552.57L500.118 1505.97C492.244 1505.52 486 1498.99 486 1491C486 1482.72 492.716 1476 501 1476C509.284 1476 516 1482.72 516 1491C516 1493.79 515.24 1496.4 513.917 1498.63L528.413 1508.53C532.542 1511.35 538.137 1510.59 541.363 1506.77L555.303 1490.26C555.383 1490.16 555.465 1490.07 555.549 1489.98C549.96 1487.8 546 1482.36 546 1476C546 1467.72 552.716 1461 561 1461C569.284 1461 576 1467.72 576 1476ZM561 1481.25C563.899 1481.25 566.25 1478.9 566.25 1476C566.25 1473.1 563.899 1470.75 561 1470.75C558.1 1470.75 555.75 1473.1 555.75 1476C555.75 1478.9 558.1 1481.25 561 1481.25ZM611.712 1508.05L599.352 1516.55C591.122 1522.21 579.946 1520.74 573.465 1513.14L561.043 1498.57L548.814 1513.06C542.362 1520.7 531.173 1522.23 522.913 1516.58L510.284 1507.96L516.878 1551.09L605.133 1551.09L611.712 1508.05ZM506.25 1491C506.25 1493.9 503.899 1496.25 501 1496.25C498.101 1496.25 495.75 1493.9 495.75 1491C495.75 1488.1 498.101 1485.75 501 1485.75C503.899 1485.75 506.25 1488.1 506.25 1491ZM621 1496.25C623.899 1496.25 626.25 1493.9 626.25 1491C626.25 1488.1 623.899 1485.75 621 1485.75C618.1 1485.75 615.75 1488.1 615.75 1491C615.75 1493.9 618.1 1496.25 621 1496.25Z" fill="black"/>
<path d="M608.625 1581.02C611.317 1581.02 613.5 1578.84 613.5 1576.15C613.5 1573.46 611.317 1571.27 608.625 1571.27H513.375C510.683 1571.27 508.5 1573.46 508.5 1576.15C508.5 1578.84 510.683 1581.02 513.375 1581.02H608.625Z" fill="black"/>
</g>
</g>
</g>
<g id="Black-M">
<g id="Outline / VIP Outline_10">
<g id="Shape_10">
<path fill-rule="evenodd" clip-rule="evenodd" d="M2940.67 1056C2940.67 1060.93 2937.61 1065.15 2933.28 1066.86C2933.34 1066.92 2933.4 1066.99 2933.47 1067.06L2944.46 1079.96C2946.99 1082.92 2951.33 1083.49 2954.53 1081.29L2965.65 1073.65C2964.6 1071.9 2964 1069.85 2964 1067.67C2964 1061.22 2969.22 1056 2975.67 1056C2982.11 1056 2987.33 1061.22 2987.33 1067.67C2987.33 1073.88 2982.48 1078.95 2976.36 1079.31L2970.82 1115.55C2970.26 1119.25 2967.07 1121.99 2963.33 1121.99H2894.68C2890.94 1121.99 2887.75 1119.25 2887.19 1115.55L2881.65 1079.31C2875.52 1078.96 2870.67 1073.88 2870.67 1067.67C2870.67 1061.22 2875.89 1056 2882.33 1056C2888.78 1056 2894 1061.22 2894 1067.67C2894 1069.83 2893.41 1071.86 2892.38 1073.6L2903.65 1081.3C2906.87 1083.5 2911.22 1082.9 2913.73 1079.93L2924.57 1067.09C2924.63 1067.01 2924.7 1066.94 2924.76 1066.87C2920.41 1065.17 2917.33 1060.95 2917.33 1056C2917.33 1049.56 2922.56 1044.33 2929 1044.33C2935.44 1044.33 2940.67 1049.56 2940.67 1056ZM2929 1060.08C2931.25 1060.08 2933.08 1058.25 2933.08 1056C2933.08 1053.74 2931.25 1051.92 2929 1051.92C2926.74 1051.92 2924.92 1053.74 2924.92 1056C2924.92 1058.25 2926.74 1060.08 2929 1060.08ZM2968.44 1080.93L2958.83 1087.54C2952.43 1091.94 2943.74 1090.8 2938.69 1084.88L2929.03 1073.55L2919.52 1084.82C2914.5 1090.77 2905.8 1091.95 2899.38 1087.56L2889.55 1080.85L2894.68 1114.4L2963.33 1114.4L2968.44 1080.93ZM2886.42 1067.67C2886.42 1069.92 2884.59 1071.75 2882.33 1071.75C2880.08 1071.75 2878.25 1069.92 2878.25 1067.67C2878.25 1065.41 2880.08 1063.58 2882.33 1063.58C2884.59 1063.58 2886.42 1065.41 2886.42 1067.67ZM2975.67 1071.75C2977.92 1071.75 2979.75 1069.92 2979.75 1067.67C2979.75 1065.41 2977.92 1063.58 2975.67 1063.58C2973.41 1063.58 2971.58 1065.41 2971.58 1067.67C2971.58 1069.92 2973.41 1071.75 2975.67 1071.75Z" fill="black"/>
<path d="M2966.04 1137.68C2968.14 1137.68 2969.83 1135.99 2969.83 1133.89C2969.83 1131.8 2968.14 1130.1 2966.04 1130.1H2891.96C2889.86 1130.1 2888.17 1131.8 2888.17 1133.89C2888.17 1135.99 2889.86 1137.68 2891.96 1137.68H2966.04Z" fill="black"/>
</g>
</g>
</g>
<g id="Heavy-M">
<g id="Outline / VIP Outline_11">
<g id="Shape_11">
<path fill-rule="evenodd" clip-rule="evenodd" d="M2644.67 1056C2644.67 1060.93 2641.61 1065.15 2637.28 1066.86C2637.34 1066.92 2637.4 1066.99 2637.47 1067.06L2648.46 1079.96C2650.99 1082.92 2655.33 1083.49 2658.53 1081.29L2669.65 1073.65C2668.6 1071.9 2668 1069.85 2668 1067.67C2668 1061.22 2673.22 1056 2679.67 1056C2686.11 1056 2691.33 1061.22 2691.33 1067.67C2691.33 1073.88 2686.48 1078.95 2680.36 1079.31L2674.82 1115.55C2674.26 1119.25 2671.07 1121.99 2667.33 1121.99H2598.68C2594.94 1121.99 2591.75 1119.25 2591.19 1115.55L2585.65 1079.31C2579.52 1078.96 2574.67 1073.88 2574.67 1067.67C2574.67 1061.22 2579.89 1056 2586.33 1056C2592.78 1056 2598 1061.22 2598 1067.67C2598 1069.83 2597.41 1071.86 2596.38 1073.6L2607.65 1081.3C2610.87 1083.5 2615.22 1082.9 2617.73 1079.93L2628.57 1067.09C2628.63 1067.01 2628.7 1066.94 2628.76 1066.87C2624.41 1065.17 2621.33 1060.95 2621.33 1056C2621.33 1049.56 2626.56 1044.33 2633 1044.33C2639.44 1044.33 2644.67 1049.56 2644.67 1056ZM2633 1060.08C2635.25 1060.08 2637.08 1058.25 2637.08 1056C2637.08 1053.74 2635.25 1051.92 2633 1051.92C2630.74 1051.92 2628.92 1053.74 2628.92 1056C2628.92 1058.25 2630.74 1060.08 2633 1060.08ZM2672.44 1080.93L2662.83 1087.54C2656.43 1091.94 2647.74 1090.8 2642.69 1084.88L2633.03 1073.55L2623.52 1084.82C2618.5 1090.77 2609.8 1091.95 2603.38 1087.56L2593.55 1080.85L2598.68 1114.4L2667.33 1114.4L2672.44 1080.93ZM2590.42 1067.67C2590.42 1069.92 2588.59 1071.75 2586.33 1071.75C2584.08 1071.75 2582.25 1069.92 2582.25 1067.67C2582.25 1065.41 2584.08 1063.58 2586.33 1063.58C2588.59 1063.58 2590.42 1065.41 2590.42 1067.67ZM2679.67 1071.75C2681.92 1071.75 2683.75 1069.92 2683.75 1067.67C2683.75 1065.41 2681.92 1063.58 2679.67 1063.58C2677.41 1063.58 2675.58 1065.41 2675.58 1067.67C2675.58 1069.92 2677.41 1071.75 2679.67 1071.75Z" fill="black"/>
<path d="M2670.04 1137.68C2672.14 1137.68 2673.83 1135.99 2673.83 1133.89C2673.83 1131.8 2672.14 1130.1 2670.04 1130.1H2595.96C2593.86 1130.1 2592.17 1131.8 2592.17 1133.89C2592.17 1135.99 2593.86 1137.68 2595.96 1137.68H2670.04Z" fill="black"/>
</g>
</g>
</g>
<g id="Bold-M">
<g id="Outline / VIP Outline_12">
<g id="Shape_12">
<path fill-rule="evenodd" clip-rule="evenodd" d="M2348.67 1056C2348.67 1060.93 2345.61 1065.15 2341.28 1066.86C2341.34 1066.92 2341.4 1066.99 2341.47 1067.06L2352.46 1079.96C2354.99 1082.92 2359.33 1083.49 2362.53 1081.29L2373.65 1073.65C2372.6 1071.9 2372 1069.85 2372 1067.67C2372 1061.22 2377.22 1056 2383.67 1056C2390.11 1056 2395.33 1061.22 2395.33 1067.67C2395.33 1073.88 2390.48 1078.95 2384.36 1079.31L2378.82 1115.55C2378.26 1119.25 2375.07 1121.99 2371.33 1121.99H2302.68C2298.94 1121.99 2295.75 1119.25 2295.19 1115.55L2289.65 1079.31C2283.52 1078.96 2278.67 1073.88 2278.67 1067.67C2278.67 1061.22 2283.89 1056 2290.33 1056C2296.78 1056 2302 1061.22 2302 1067.67C2302 1069.83 2301.41 1071.86 2300.38 1073.6L2311.65 1081.3C2314.87 1083.5 2319.22 1082.9 2321.73 1079.93L2332.57 1067.09C2332.63 1067.01 2332.7 1066.94 2332.76 1066.87C2328.41 1065.17 2325.33 1060.95 2325.33 1056C2325.33 1049.56 2330.56 1044.33 2337 1044.33C2343.44 1044.33 2348.67 1049.56 2348.67 1056ZM2337 1060.08C2339.25 1060.08 2341.08 1058.25 2341.08 1056C2341.08 1053.74 2339.25 1051.92 2337 1051.92C2334.74 1051.92 2332.92 1053.74 2332.92 1056C2332.92 1058.25 2334.74 1060.08 2337 1060.08ZM2376.44 1080.93L2366.83 1087.54C2360.43 1091.94 2351.74 1090.8 2346.69 1084.88L2337.03 1073.55L2327.52 1084.82C2322.5 1090.77 2313.8 1091.95 2307.38 1087.56L2297.55 1080.85L2302.68 1114.4L2371.33 1114.4L2376.44 1080.93ZM2294.42 1067.67C2294.42 1069.92 2292.59 1071.75 2290.33 1071.75C2288.08 1071.75 2286.25 1069.92 2286.25 1067.67C2286.25 1065.41 2288.08 1063.58 2290.33 1063.58C2292.59 1063.58 2294.42 1065.41 2294.42 1067.67ZM2383.67 1071.75C2385.92 1071.75 2387.75 1069.92 2387.75 1067.67C2387.75 1065.41 2385.92 1063.58 2383.67 1063.58C2381.41 1063.58 2379.58 1065.41 2379.58 1067.67C2379.58 1069.92 2381.41 1071.75 2383.67 1071.75Z" fill="black"/>
<path d="M2374.04 1137.68C2376.14 1137.68 2377.83 1135.99 2377.83 1133.89C2377.83 1131.8 2376.14 1130.1 2374.04 1130.1H2299.96C2297.86 1130.1 2296.17 1131.8 2296.17 1133.89C2296.17 1135.99 2297.86 1137.68 2299.96 1137.68H2374.04Z" fill="black"/>
</g>
</g>
</g>
<g id="Semibold-M">
<g id="Outline / VIP Outline_13">
<g id="Shape_13">
<path fill-rule="evenodd" clip-rule="evenodd" d="M2052.67 1056C2052.67 1060.93 2049.61 1065.15 2045.28 1066.86C2045.34 1066.92 2045.4 1066.99 2045.47 1067.06L2056.46 1079.96C2058.99 1082.92 2063.33 1083.49 2066.53 1081.29L2077.65 1073.65C2076.6 1071.9 2076 1069.85 2076 1067.67C2076 1061.22 2081.22 1056 2087.67 1056C2094.11 1056 2099.33 1061.22 2099.33 1067.67C2099.33 1073.88 2094.48 1078.95 2088.36 1079.31L2082.82 1115.55C2082.26 1119.25 2079.07 1121.99 2075.33 1121.99H2006.68C2002.94 1121.99 1999.75 1119.25 1999.19 1115.55L1993.65 1079.31C1987.52 1078.96 1982.67 1073.88 1982.67 1067.67C1982.67 1061.22 1987.89 1056 1994.33 1056C2000.78 1056 2006 1061.22 2006 1067.67C2006 1069.83 2005.41 1071.86 2004.38 1073.6L2015.65 1081.3C2018.87 1083.5 2023.22 1082.9 2025.73 1079.93L2036.57 1067.09C2036.63 1067.01 2036.7 1066.94 2036.76 1066.87C2032.41 1065.17 2029.33 1060.95 2029.33 1056C2029.33 1049.56 2034.56 1044.33 2041 1044.33C2047.44 1044.33 2052.67 1049.56 2052.67 1056ZM2041 1060.08C2043.25 1060.08 2045.08 1058.25 2045.08 1056C2045.08 1053.74 2043.25 1051.92 2041 1051.92C2038.74 1051.92 2036.92 1053.74 2036.92 1056C2036.92 1058.25 2038.74 1060.08 2041 1060.08ZM2080.44 1080.93L2070.83 1087.54C2064.43 1091.94 2055.74 1090.8 2050.69 1084.88L2041.03 1073.55L2031.52 1084.82C2026.5 1090.77 2017.8 1091.95 2011.38 1087.56L2001.55 1080.85L2006.68 1114.4L2075.33 1114.4L2080.44 1080.93ZM1998.42 1067.67C1998.42 1069.92 1996.59 1071.75 1994.33 1071.75C1992.08 1071.75 1990.25 1069.92 1990.25 1067.67C1990.25 1065.41 1992.08 1063.58 1994.33 1063.58C1996.59 1063.58 1998.42 1065.41 1998.42 1067.67ZM2087.67 1071.75C2089.92 1071.75 2091.75 1069.92 2091.75 1067.67C2091.75 1065.41 2089.92 1063.58 2087.67 1063.58C2085.41 1063.58 2083.58 1065.41 2083.58 1067.67C2083.58 1069.92 2085.41 1071.75 2087.67 1071.75Z" fill="black"/>
<path d="M2078.04 1137.68C2080.14 1137.68 2081.83 1135.99 2081.83 1133.89C2081.83 1131.8 2080.14 1130.1 2078.04 1130.1H2003.96C2001.86 1130.1 2000.17 1131.8 2000.17 1133.89C2000.17 1135.99 2001.86 1137.68 2003.96 1137.68H2078.04Z" fill="black"/>
</g>
</g>
</g>
<g id="Medium-M">
<g id="Outline / VIP Outline_14">
<g id="Shape_14">
<path fill-rule="evenodd" clip-rule="evenodd" d="M1756.67 1056C1756.67 1060.93 1753.61 1065.15 1749.28 1066.86C1749.34 1066.92 1749.4 1066.99 1749.47 1067.06L1760.47 1079.96C1762.99 1082.92 1767.33 1083.49 1770.53 1081.29L1781.65 1073.65C1780.6 1071.9 1780 1069.85 1780 1067.67C1780 1061.22 1785.22 1056 1791.67 1056C1798.11 1056 1803.33 1061.22 1803.33 1067.67C1803.33 1073.88 1798.48 1078.95 1792.36 1079.31L1786.82 1115.55C1786.26 1119.25 1783.07 1121.99 1779.33 1121.99H1710.68C1706.94 1121.99 1703.75 1119.25 1703.19 1115.55L1697.65 1079.31C1691.52 1078.96 1686.67 1073.88 1686.67 1067.67C1686.67 1061.22 1691.89 1056 1698.33 1056C1704.78 1056 1710 1061.22 1710 1067.67C1710 1069.83 1709.41 1071.86 1708.38 1073.6L1719.65 1081.3C1722.87 1083.5 1727.22 1082.9 1729.73 1079.93L1740.57 1067.09C1740.63 1067.01 1740.7 1066.94 1740.76 1066.87C1736.41 1065.17 1733.33 1060.95 1733.33 1056C1733.33 1049.56 1738.56 1044.33 1745 1044.33C1751.44 1044.33 1756.67 1049.56 1756.67 1056ZM1745 1060.08C1747.26 1060.08 1749.08 1058.25 1749.08 1056C1749.08 1053.74 1747.26 1051.92 1745 1051.92C1742.74 1051.92 1740.92 1053.74 1740.92 1056C1740.92 1058.25 1742.74 1060.08 1745 1060.08ZM1784.44 1080.93L1774.83 1087.54C1768.43 1091.94 1759.74 1090.8 1754.69 1084.88L1745.03 1073.55L1735.52 1084.82C1730.5 1090.77 1721.8 1091.95 1715.38 1087.56L1705.55 1080.85L1710.68 1114.4L1779.33 1114.4L1784.44 1080.93ZM1702.42 1067.67C1702.42 1069.92 1700.59 1071.75 1698.33 1071.75C1696.08 1071.75 1694.25 1069.92 1694.25 1067.67C1694.25 1065.41 1696.08 1063.58 1698.33 1063.58C1700.59 1063.58 1702.42 1065.41 1702.42 1067.67ZM1791.67 1071.75C1793.92 1071.75 1795.75 1069.92 1795.75 1067.67C1795.75 1065.41 1793.92 1063.58 1791.67 1063.58C1789.41 1063.58 1787.58 1065.41 1787.58 1067.67C1787.58 1069.92 1789.41 1071.75 1791.67 1071.75Z" fill="black"/>
<path d="M1782.04 1137.68C1784.14 1137.68 1785.83 1135.99 1785.83 1133.89C1785.83 1131.8 1784.14 1130.1 1782.04 1130.1H1707.96C1705.86 1130.1 1704.17 1131.8 1704.17 1133.89C1704.17 1135.99 1705.86 1137.68 1707.96 1137.68H1782.04Z" fill="black"/>
</g>
</g>
</g>
<g id="Regular-M">
<g id="Outline / VIP Outline_15">
<g id="Shape_15">
<path fill-rule="evenodd" clip-rule="evenodd" d="M1460.67 1056C1460.67 1060.93 1457.61 1065.15 1453.28 1066.86C1453.34 1066.92 1453.4 1066.99 1453.47 1067.06L1464.47 1079.96C1466.99 1082.92 1471.33 1083.49 1474.53 1081.29L1485.65 1073.65C1484.6 1071.9 1484 1069.85 1484 1067.67C1484 1061.22 1489.22 1056 1495.67 1056C1502.11 1056 1507.33 1061.22 1507.33 1067.67C1507.33 1073.88 1502.48 1078.95 1496.36 1079.31L1490.82 1115.55C1490.26 1119.25 1487.07 1121.99 1483.33 1121.99H1414.68C1410.94 1121.99 1407.75 1119.25 1407.19 1115.55L1401.65 1079.31C1395.52 1078.96 1390.67 1073.88 1390.67 1067.67C1390.67 1061.22 1395.89 1056 1402.33 1056C1408.78 1056 1414 1061.22 1414 1067.67C1414 1069.83 1413.41 1071.86 1412.38 1073.6L1423.65 1081.3C1426.87 1083.5 1431.22 1082.9 1433.73 1079.93L1444.57 1067.09C1444.63 1067.01 1444.7 1066.94 1444.76 1066.87C1440.41 1065.17 1437.33 1060.95 1437.33 1056C1437.33 1049.56 1442.56 1044.33 1449 1044.33C1455.44 1044.33 1460.67 1049.56 1460.67 1056ZM1449 1060.08C1451.26 1060.08 1453.08 1058.25 1453.08 1056C1453.08 1053.74 1451.26 1051.92 1449 1051.92C1446.74 1051.92 1444.92 1053.74 1444.92 1056C1444.92 1058.25 1446.74 1060.08 1449 1060.08ZM1488.44 1080.93L1478.83 1087.54C1472.43 1091.94 1463.74 1090.8 1458.69 1084.88L1449.03 1073.55L1439.52 1084.82C1434.5 1090.77 1425.8 1091.95 1419.38 1087.56L1409.55 1080.85L1414.68 1114.4L1483.33 1114.4L1488.44 1080.93ZM1406.42 1067.67C1406.42 1069.92 1404.59 1071.75 1402.33 1071.75C1400.08 1071.75 1398.25 1069.92 1398.25 1067.67C1398.25 1065.41 1400.08 1063.58 1402.33 1063.58C1404.59 1063.58 1406.42 1065.41 1406.42 1067.67ZM1495.67 1071.75C1497.92 1071.75 1499.75 1069.92 1499.75 1067.67C1499.75 1065.41 1497.92 1063.58 1495.67 1063.58C1493.41 1063.58 1491.58 1065.41 1491.58 1067.67C1491.58 1069.92 1493.41 1071.75 1495.67 1071.75Z" fill="black"/>
<path d="M1486.04 1137.68C1488.14 1137.68 1489.83 1135.99 1489.83 1133.89C1489.83 1131.8 1488.14 1130.1 1486.04 1130.1H1411.96C1409.86 1130.1 1408.17 1131.8 1408.17 1133.89C1408.17 1135.99 1409.86 1137.68 1411.96 1137.68H1486.04Z" fill="black"/>
</g>
</g>
</g>
<g id="Light-M">
<g id="Outline / VIP Outline_16">
<g id="Shape_16">
<path fill-rule="evenodd" clip-rule="evenodd" d="M1164.67 1056C1164.67 1060.93 1161.61 1065.15 1157.28 1066.86C1157.34 1066.92 1157.4 1066.99 1157.47 1067.06L1168.47 1079.96C1170.99 1082.92 1175.33 1083.49 1178.53 1081.29L1189.65 1073.65C1188.6 1071.9 1188 1069.85 1188 1067.67C1188 1061.22 1193.22 1056 1199.67 1056C1206.11 1056 1211.33 1061.22 1211.33 1067.67C1211.33 1073.88 1206.48 1078.95 1200.36 1079.31L1194.82 1115.55C1194.26 1119.25 1191.07 1121.99 1187.33 1121.99H1118.68C1114.94 1121.99 1111.75 1119.25 1111.19 1115.55L1105.65 1079.31C1099.52 1078.96 1094.67 1073.88 1094.67 1067.67C1094.67 1061.22 1099.89 1056 1106.33 1056C1112.78 1056 1118 1061.22 1118 1067.67C1118 1069.83 1117.41 1071.86 1116.38 1073.6L1127.65 1081.3C1130.87 1083.5 1135.22 1082.9 1137.73 1079.93L1148.57 1067.09C1148.63 1067.01 1148.7 1066.94 1148.76 1066.87C1144.41 1065.17 1141.33 1060.95 1141.33 1056C1141.33 1049.56 1146.56 1044.33 1153 1044.33C1159.44 1044.33 1164.67 1049.56 1164.67 1056ZM1153 1060.08C1155.26 1060.08 1157.08 1058.25 1157.08 1056C1157.08 1053.74 1155.26 1051.92 1153 1051.92C1150.74 1051.92 1148.92 1053.74 1148.92 1056C1148.92 1058.25 1150.74 1060.08 1153 1060.08ZM1192.44 1080.93L1182.83 1087.54C1176.43 1091.94 1167.74 1090.8 1162.69 1084.88L1153.03 1073.55L1143.52 1084.82C1138.5 1090.77 1129.8 1091.95 1123.38 1087.56L1113.55 1080.85L1118.68 1114.4L1187.33 1114.4L1192.44 1080.93ZM1110.42 1067.67C1110.42 1069.92 1108.59 1071.75 1106.33 1071.75C1104.08 1071.75 1102.25 1069.92 1102.25 1067.67C1102.25 1065.41 1104.08 1063.58 1106.33 1063.58C1108.59 1063.58 1110.42 1065.41 1110.42 1067.67ZM1199.67 1071.75C1201.92 1071.75 1203.75 1069.92 1203.75 1067.67C1203.75 1065.41 1201.92 1063.58 1199.67 1063.58C1197.41 1063.58 1195.58 1065.41 1195.58 1067.67C1195.58 1069.92 1197.41 1071.75 1199.67 1071.75Z" fill="black"/>
<path d="M1190.04 1137.68C1192.14 1137.68 1193.83 1135.99 1193.83 1133.89C1193.83 1131.8 1192.14 1130.1 1190.04 1130.1H1115.96C1113.86 1130.1 1112.17 1131.8 1112.17 1133.89C1112.17 1135.99 1113.86 1137.68 1115.96 1137.68H1190.04Z" fill="black"/>
</g>
</g>
</g>
<g id="Thin-M">
<g id="Outline / VIP Outline_17">
<g id="Shape_17">
<path fill-rule="evenodd" clip-rule="evenodd" d="M868.667 1056C868.667 1060.93 865.606 1065.15 861.279 1066.86C861.343 1066.92 861.405 1066.99 861.466 1067.06L872.465 1079.96C874.986 1082.92 879.332 1083.49 882.533 1081.29L893.648 1073.65C892.602 1071.9 892 1069.85 892 1067.67C892 1061.22 897.223 1056 903.667 1056C910.11 1056 915.333 1061.22 915.333 1067.67C915.333 1073.88 910.481 1078.95 904.362 1079.31L898.822 1115.55C898.256 1119.25 895.071 1121.99 891.326 1121.99H822.683C818.938 1121.99 815.753 1119.25 815.187 1115.55L809.647 1079.31C803.523 1078.96 798.667 1073.88 798.667 1067.67C798.667 1061.22 803.89 1056 810.333 1056C816.777 1056 822 1061.22 822 1067.67C822 1069.83 821.409 1071.86 820.38 1073.6L831.654 1081.3C834.866 1083.5 839.218 1082.9 841.727 1079.93L852.569 1067.09C852.632 1067.01 852.695 1066.94 852.76 1066.87C848.413 1065.17 845.333 1060.95 845.333 1056C845.333 1049.56 850.557 1044.33 857 1044.33C863.443 1044.33 868.667 1049.56 868.667 1056ZM857 1060.08C859.255 1060.08 861.083 1058.25 861.083 1056C861.083 1053.74 859.255 1051.92 857 1051.92C854.745 1051.92 852.917 1053.74 852.917 1056C852.917 1058.25 854.745 1060.08 857 1060.08ZM896.443 1080.93L886.83 1087.54C880.428 1091.94 871.736 1090.8 866.695 1084.88L857.034 1073.55L847.522 1084.82C842.504 1090.77 833.801 1091.95 827.377 1087.56L817.555 1080.85L822.683 1114.4L891.326 1114.4L896.443 1080.93ZM814.417 1067.67C814.417 1069.92 812.589 1071.75 810.333 1071.75C808.078 1071.75 806.25 1069.92 806.25 1067.67C806.25 1065.41 808.078 1063.58 810.333 1063.58C812.589 1063.58 814.417 1065.41 814.417 1067.67ZM903.667 1071.75C905.922 1071.75 907.75 1069.92 907.75 1067.67C907.75 1065.41 905.922 1063.58 903.667 1063.58C901.412 1063.58 899.583 1065.41 899.583 1067.67C899.583 1069.92 901.412 1071.75 903.667 1071.75Z" fill="black"/>
<path d="M894.042 1137.68C896.136 1137.68 897.833 1135.99 897.833 1133.89C897.833 1131.8 896.136 1130.1 894.042 1130.1H819.958C817.864 1130.1 816.167 1131.8 816.167 1133.89C816.167 1135.99 817.864 1137.68 819.958 1137.68H894.042Z" fill="black"/>
</g>
</g>
</g>
<g id="Ultralight-M">
<g id="Outline / VIP Outline_18">
<g id="Shape_18">
<path fill-rule="evenodd" clip-rule="evenodd" d="M572.667 1056C572.667 1060.93 569.606 1065.15 565.279 1066.86C565.343 1066.92 565.405 1066.99 565.466 1067.06L576.465 1079.96C578.986 1082.92 583.332 1083.49 586.533 1081.29L597.648 1073.65C596.602 1071.9 596 1069.85 596 1067.67C596 1061.22 601.223 1056 607.667 1056C614.11 1056 619.333 1061.22 619.333 1067.67C619.333 1073.88 614.481 1078.95 608.362 1079.31L602.822 1115.55C602.256 1119.25 599.071 1121.99 595.326 1121.99H526.683C522.938 1121.99 519.753 1119.25 519.187 1115.55L513.647 1079.31C507.523 1078.96 502.667 1073.88 502.667 1067.67C502.667 1061.22 507.89 1056 514.333 1056C520.777 1056 526 1061.22 526 1067.67C526 1069.83 525.409 1071.86 524.38 1073.6L535.654 1081.3C538.866 1083.5 543.218 1082.9 545.727 1079.93L556.569 1067.09C556.632 1067.01 556.695 1066.94 556.76 1066.87C552.413 1065.17 549.333 1060.95 549.333 1056C549.333 1049.56 554.557 1044.33 561 1044.33C567.443 1044.33 572.667 1049.56 572.667 1056ZM561 1060.08C563.255 1060.08 565.083 1058.25 565.083 1056C565.083 1053.74 563.255 1051.92 561 1051.92C558.745 1051.92 556.917 1053.74 556.917 1056C556.917 1058.25 558.745 1060.08 561 1060.08ZM600.443 1080.93L590.83 1087.54C584.428 1091.94 575.736 1090.8 570.695 1084.88L561.034 1073.55L551.522 1084.82C546.504 1090.77 537.801 1091.95 531.377 1087.56L521.555 1080.85L526.683 1114.4L595.326 1114.4L600.443 1080.93ZM518.417 1067.67C518.417 1069.92 516.589 1071.75 514.333 1071.75C512.078 1071.75 510.25 1069.92 510.25 1067.67C510.25 1065.41 512.078 1063.58 514.333 1063.58C516.589 1063.58 518.417 1065.41 518.417 1067.67ZM607.667 1071.75C609.922 1071.75 611.75 1069.92 611.75 1067.67C611.75 1065.41 609.922 1063.58 607.667 1063.58C605.412 1063.58 603.583 1065.41 603.583 1067.67C603.583 1069.92 605.412 1071.75 607.667 1071.75Z" fill="black"/>
<path d="M598.042 1137.68C600.136 1137.68 601.833 1135.99 601.833 1133.89C601.833 1131.8 600.136 1130.1 598.042 1130.1H523.958C521.864 1130.1 520.167 1131.8 520.167 1133.89C520.167 1135.99 521.864 1137.68 523.958 1137.68H598.042Z" fill="black"/>
</g>
</g>
</g>
<g id="Black-S">
<g id="Outline / VIP Outline_19">
<g id="Shape_19">
<path fill-rule="evenodd" clip-rule="evenodd" d="M2937.33 636.001C2937.33 639.525 2935.15 642.537 2932.06 643.756C2932.1 643.805 2932.15 643.854 2932.19 643.905L2940.05 653.119C2941.85 655.231 2944.95 655.64 2947.24 654.068L2955.18 648.608C2954.43 647.358 2954 645.897 2954 644.335C2954 639.732 2957.73 636.001 2962.33 636.001C2966.94 636.001 2970.67 639.732 2970.67 644.335C2970.67 648.77 2967.2 652.397 2962.83 652.653L2958.87 678.539C2958.47 681.183 2956.19 683.137 2953.52 683.137H2904.49C2901.81 683.137 2899.54 681.183 2899.13 678.539L2895.18 652.654C2890.8 652.4 2887.33 648.773 2887.33 644.335C2887.33 639.732 2891.06 636.001 2895.67 636.001C2900.27 636.001 2904 639.732 2904 644.335C2904 645.883 2903.58 647.332 2902.84 648.574L2910.9 654.075C2913.19 655.643 2916.3 655.22 2918.09 653.097L2925.84 643.921C2925.88 643.868 2925.93 643.817 2925.97 643.767C2922.87 642.556 2920.67 639.535 2920.67 636.001C2920.67 631.399 2924.4 627.668 2929 627.668C2933.6 627.668 2937.33 631.399 2937.33 636.001ZM2929 638.918C2930.61 638.918 2931.92 637.612 2931.92 636.001C2931.92 634.39 2930.61 633.085 2929 633.085C2927.39 633.085 2926.08 634.39 2926.08 636.001C2926.08 637.612 2927.39 638.918 2929 638.918ZM2957.17 653.809L2950.31 658.531C2945.73 661.676 2939.53 660.856 2935.92 656.634L2929.02 648.541L2922.23 656.59C2918.65 660.837 2912.43 661.683 2907.84 658.548L2900.82 653.756L2904.49 677.72L2953.52 677.72L2957.17 653.809ZM2898.58 644.335C2898.58 645.945 2897.28 647.251 2895.67 647.251C2894.06 647.251 2892.75 645.945 2892.75 644.335C2892.75 642.724 2894.06 641.418 2895.67 641.418C2897.28 641.418 2898.58 642.724 2898.58 644.335ZM2962.33 647.251C2963.94 647.251 2965.25 645.945 2965.25 644.335C2965.25 642.724 2963.94 641.418 2962.33 641.418C2960.72 641.418 2959.42 642.724 2959.42 644.335C2959.42 645.945 2960.72 647.251 2962.33 647.251Z" fill="black"/>
<path d="M2955.46 694.348C2956.95 694.348 2958.17 693.135 2958.17 691.639C2958.17 690.143 2956.95 688.931 2955.46 688.931H2902.54C2901.05 688.931 2899.83 690.143 2899.83 691.639C2899.83 693.135 2901.05 694.348 2902.54 694.348H2955.46Z" fill="black"/>
</g>
</g>
</g>
<g id="Heavy-S">
<g id="Outline / VIP Outline_20">
<g id="Shape_20">
<path fill-rule="evenodd" clip-rule="evenodd" d="M2641.33 636.001C2641.33 639.525 2639.15 642.537 2636.06 643.756C2636.1 643.805 2636.15 643.854 2636.19 643.905L2644.05 653.119C2645.85 655.231 2648.95 655.64 2651.24 654.068L2659.18 648.608C2658.43 647.358 2658 645.897 2658 644.335C2658 639.732 2661.73 636.001 2666.33 636.001C2670.94 636.001 2674.67 639.732 2674.67 644.335C2674.67 648.77 2671.2 652.397 2666.83 652.653L2662.87 678.539C2662.47 681.183 2660.19 683.137 2657.52 683.137H2608.49C2605.81 683.137 2603.54 681.183 2603.13 678.539L2599.18 652.654C2594.8 652.4 2591.33 648.773 2591.33 644.335C2591.33 639.732 2595.06 636.001 2599.67 636.001C2604.27 636.001 2608 639.732 2608 644.335C2608 645.883 2607.58 647.332 2606.84 648.574L2614.9 654.075C2617.19 655.643 2620.3 655.22 2622.09 653.097L2629.84 643.921C2629.88 643.868 2629.93 643.817 2629.97 643.767C2626.87 642.556 2624.67 639.535 2624.67 636.001C2624.67 631.399 2628.4 627.668 2633 627.668C2637.6 627.668 2641.33 631.399 2641.33 636.001ZM2633 638.918C2634.61 638.918 2635.92 637.612 2635.92 636.001C2635.92 634.39 2634.61 633.085 2633 633.085C2631.39 633.085 2630.08 634.39 2630.08 636.001C2630.08 637.612 2631.39 638.918 2633 638.918ZM2661.17 653.809L2654.31 658.531C2649.73 661.676 2643.53 660.856 2639.92 656.634L2633.02 648.541L2626.23 656.59C2622.65 660.837 2616.43 661.683 2611.84 658.548L2604.82 653.756L2608.49 677.72L2657.52 677.72L2661.17 653.809ZM2602.58 644.335C2602.58 645.945 2601.28 647.251 2599.67 647.251C2598.06 647.251 2596.75 645.945 2596.75 644.335C2596.75 642.724 2598.06 641.418 2599.67 641.418C2601.28 641.418 2602.58 642.724 2602.58 644.335ZM2666.33 647.251C2667.94 647.251 2669.25 645.945 2669.25 644.335C2669.25 642.724 2667.94 641.418 2666.33 641.418C2664.72 641.418 2663.42 642.724 2663.42 644.335C2663.42 645.945 2664.72 647.251 2666.33 647.251Z" fill="black"/>
<path d="M2659.46 694.348C2660.95 694.348 2662.17 693.135 2662.17 691.639C2662.17 690.143 2660.95 688.931 2659.46 688.931H2606.54C2605.05 688.931 2603.83 690.143 2603.83 691.639C2603.83 693.135 2605.05 694.348 2606.54 694.348H2659.46Z" fill="black"/>
</g>
</g>
</g>
<g id="Bold-S">
<g id="Outline / VIP Outline_21">
<g id="Shape_21">
<path fill-rule="evenodd" clip-rule="evenodd" d="M2345.33 636.001C2345.33 639.525 2343.15 642.537 2340.06 643.756C2340.1 643.805 2340.15 643.854 2340.19 643.905L2348.05 653.119C2349.85 655.231 2352.95 655.64 2355.24 654.068L2363.18 648.608C2362.43 647.358 2362 645.897 2362 644.335C2362 639.732 2365.73 636.001 2370.33 636.001C2374.94 636.001 2378.67 639.732 2378.67 644.335C2378.67 648.77 2375.2 652.397 2370.83 652.653L2366.87 678.539C2366.47 681.183 2364.19 683.137 2361.52 683.137H2312.49C2309.81 683.137 2307.54 681.183 2307.13 678.539L2303.18 652.654C2298.8 652.4 2295.33 648.773 2295.33 644.335C2295.33 639.732 2299.06 636.001 2303.67 636.001C2308.27 636.001 2312 639.732 2312 644.335C2312 645.883 2311.58 647.332 2310.84 648.574L2318.9 654.075C2321.19 655.643 2324.3 655.22 2326.09 653.097L2333.84 643.921C2333.88 643.868 2333.93 643.817 2333.97 643.767C2330.87 642.556 2328.67 639.535 2328.67 636.001C2328.67 631.399 2332.4 627.668 2337 627.668C2341.6 627.668 2345.33 631.399 2345.33 636.001ZM2337 638.918C2338.61 638.918 2339.92 637.612 2339.92 636.001C2339.92 634.39 2338.61 633.085 2337 633.085C2335.39 633.085 2334.08 634.39 2334.08 636.001C2334.08 637.612 2335.39 638.918 2337 638.918ZM2365.17 653.809L2358.31 658.531C2353.73 661.676 2347.53 660.856 2343.92 656.634L2337.02 648.541L2330.23 656.59C2326.65 660.837 2320.43 661.683 2315.84 658.548L2308.82 653.756L2312.49 677.72L2361.52 677.72L2365.17 653.809ZM2306.58 644.335C2306.58 645.945 2305.28 647.251 2303.67 647.251C2302.06 647.251 2300.75 645.945 2300.75 644.335C2300.75 642.724 2302.06 641.418 2303.67 641.418C2305.28 641.418 2306.58 642.724 2306.58 644.335ZM2370.33 647.251C2371.94 647.251 2373.25 645.945 2373.25 644.335C2373.25 642.724 2371.94 641.418 2370.33 641.418C2368.72 641.418 2367.42 642.724 2367.42 644.335C2367.42 645.945 2368.72 647.251 2370.33 647.251Z" fill="black"/>
<path d="M2363.46 694.348C2364.95 694.348 2366.17 693.135 2366.17 691.639C2366.17 690.143 2364.95 688.931 2363.46 688.931H2310.54C2309.05 688.931 2307.83 690.143 2307.83 691.639C2307.83 693.135 2309.05 694.348 2310.54 694.348H2363.46Z" fill="black"/>
</g>
</g>
</g>
<g id="Semibold-S">
<g id="Outline / VIP Outline_22">
<g id="Shape_22">
<path fill-rule="evenodd" clip-rule="evenodd" d="M2049.33 636.001C2049.33 639.525 2047.15 642.537 2044.06 643.756C2044.1 643.805 2044.15 643.854 2044.19 643.905L2052.05 653.119C2053.85 655.231 2056.95 655.64 2059.24 654.068L2067.18 648.608C2066.43 647.358 2066 645.897 2066 644.335C2066 639.732 2069.73 636.001 2074.33 636.001C2078.94 636.001 2082.67 639.732 2082.67 644.335C2082.67 648.77 2079.2 652.397 2074.83 652.653L2070.87 678.539C2070.47 681.183 2068.19 683.137 2065.52 683.137H2016.49C2013.81 683.137 2011.54 681.183 2011.13 678.539L2007.18 652.654C2002.8 652.4 1999.33 648.773 1999.33 644.335C1999.33 639.732 2003.06 636.001 2007.67 636.001C2012.27 636.001 2016 639.732 2016 644.335C2016 645.883 2015.58 647.332 2014.84 648.574L2022.9 654.075C2025.19 655.643 2028.3 655.22 2030.09 653.097L2037.84 643.921C2037.88 643.868 2037.93 643.817 2037.97 643.767C2034.87 642.556 2032.67 639.535 2032.67 636.001C2032.67 631.399 2036.4 627.668 2041 627.668C2045.6 627.668 2049.33 631.399 2049.33 636.001ZM2041 638.918C2042.61 638.918 2043.92 637.612 2043.92 636.001C2043.92 634.39 2042.61 633.085 2041 633.085C2039.39 633.085 2038.08 634.39 2038.08 636.001C2038.08 637.612 2039.39 638.918 2041 638.918ZM2069.17 653.809L2062.31 658.531C2057.73 661.676 2051.53 660.856 2047.92 656.634L2041.02 648.541L2034.23 656.59C2030.65 660.837 2024.43 661.683 2019.84 658.548L2012.82 653.756L2016.49 677.72L2065.52 677.72L2069.17 653.809ZM2010.58 644.335C2010.58 645.945 2009.28 647.251 2007.67 647.251C2006.06 647.251 2004.75 645.945 2004.75 644.335C2004.75 642.724 2006.06 641.418 2007.67 641.418C2009.28 641.418 2010.58 642.724 2010.58 644.335ZM2074.33 647.251C2075.94 647.251 2077.25 645.945 2077.25 644.335C2077.25 642.724 2075.94 641.418 2074.33 641.418C2072.72 641.418 2071.42 642.724 2071.42 644.335C2071.42 645.945 2072.72 647.251 2074.33 647.251Z" fill="black"/>
<path d="M2067.46 694.348C2068.95 694.348 2070.17 693.135 2070.17 691.639C2070.17 690.143 2068.95 688.931 2067.46 688.931H2014.54C2013.05 688.931 2011.83 690.143 2011.83 691.639C2011.83 693.135 2013.05 694.348 2014.54 694.348H2067.46Z" fill="black"/>
</g>
</g>
</g>
<g id="Medium-S">
<g id="Outline / VIP Outline_23">
<g id="Shape_23">
<path fill-rule="evenodd" clip-rule="evenodd" d="M1753.33 636.001C1753.33 639.525 1751.15 642.537 1748.06 643.756C1748.1 643.805 1748.15 643.854 1748.19 643.905L1756.05 653.119C1757.85 655.231 1760.95 655.64 1763.24 654.068L1771.18 648.608C1770.43 647.358 1770 645.897 1770 644.335C1770 639.732 1773.73 636.001 1778.33 636.001C1782.94 636.001 1786.67 639.732 1786.67 644.335C1786.67 648.77 1783.2 652.397 1778.83 652.653L1774.87 678.539C1774.47 681.183 1772.19 683.137 1769.52 683.137H1720.49C1717.81 683.137 1715.54 681.183 1715.13 678.539L1711.18 652.654C1706.8 652.4 1703.33 648.773 1703.33 644.335C1703.33 639.732 1707.06 636.001 1711.67 636.001C1716.27 636.001 1720 639.732 1720 644.335C1720 645.883 1719.58 647.332 1718.84 648.574L1726.9 654.075C1729.19 655.643 1732.3 655.22 1734.09 653.097L1741.84 643.921C1741.88 643.868 1741.93 643.817 1741.97 643.767C1738.87 642.556 1736.67 639.535 1736.67 636.001C1736.67 631.399 1740.4 627.668 1745 627.668C1749.6 627.668 1753.33 631.399 1753.33 636.001ZM1745 638.918C1746.61 638.918 1747.92 637.612 1747.92 636.001C1747.92 634.39 1746.61 633.085 1745 633.085C1743.39 633.085 1742.08 634.39 1742.08 636.001C1742.08 637.612 1743.39 638.918 1745 638.918ZM1773.17 653.809L1766.31 658.531C1761.73 661.676 1755.53 660.856 1751.92 656.634L1745.02 648.541L1738.23 656.59C1734.65 660.837 1728.43 661.683 1723.84 658.548L1716.82 653.756L1720.49 677.72L1769.52 677.72L1773.17 653.809ZM1714.58 644.335C1714.58 645.945 1713.28 647.251 1711.67 647.251C1710.06 647.251 1708.75 645.945 1708.75 644.335C1708.75 642.724 1710.06 641.418 1711.67 641.418C1713.28 641.418 1714.58 642.724 1714.58 644.335ZM1778.33 647.251C1779.94 647.251 1781.25 645.945 1781.25 644.335C1781.25 642.724 1779.94 641.418 1778.33 641.418C1776.72 641.418 1775.42 642.724 1775.42 644.335C1775.42 645.945 1776.72 647.251 1778.33 647.251Z" fill="black"/>
<path d="M1771.46 694.348C1772.95 694.348 1774.17 693.135 1774.17 691.639C1774.17 690.143 1772.95 688.931 1771.46 688.931H1718.54C1717.05 688.931 1715.83 690.143 1715.83 691.639C1715.83 693.135 1717.05 694.348 1718.54 694.348H1771.46Z" fill="black"/>
</g>
</g>
</g>
<g id="Regular-S">
<g id="Outline / VIP Outline_24">
<g id="Shape_24">
<path fill-rule="evenodd" clip-rule="evenodd" d="M1457.33 636.001C1457.33 639.525 1455.15 642.537 1452.06 643.756C1452.1 643.805 1452.15 643.854 1452.19 643.905L1460.05 653.119C1461.85 655.231 1464.95 655.64 1467.24 654.068L1475.18 648.608C1474.43 647.358 1474 645.897 1474 644.335C1474 639.732 1477.73 636.001 1482.33 636.001C1486.94 636.001 1490.67 639.732 1490.67 644.335C1490.67 648.77 1487.2 652.397 1482.83 652.653L1478.87 678.539C1478.47 681.183 1476.19 683.137 1473.52 683.137H1424.49C1421.81 683.137 1419.54 681.183 1419.13 678.539L1415.18 652.654C1410.8 652.4 1407.33 648.773 1407.33 644.335C1407.33 639.732 1411.06 636.001 1415.67 636.001C1420.27 636.001 1424 639.732 1424 644.335C1424 645.883 1423.58 647.332 1422.84 648.574L1430.9 654.075C1433.19 655.643 1436.3 655.22 1438.09 653.097L1445.84 643.921C1445.88 643.868 1445.93 643.817 1445.97 643.767C1442.87 642.556 1440.67 639.535 1440.67 636.001C1440.67 631.399 1444.4 627.668 1449 627.668C1453.6 627.668 1457.33 631.399 1457.33 636.001ZM1449 638.918C1450.61 638.918 1451.92 637.612 1451.92 636.001C1451.92 634.39 1450.61 633.085 1449 633.085C1447.39 633.085 1446.08 634.39 1446.08 636.001C1446.08 637.612 1447.39 638.918 1449 638.918ZM1477.17 653.809L1470.31 658.531C1465.73 661.676 1459.53 660.856 1455.92 656.634L1449.02 648.541L1442.23 656.59C1438.65 660.837 1432.43 661.683 1427.84 658.548L1420.82 653.756L1424.49 677.72L1473.52 677.72L1477.17 653.809ZM1418.58 644.335C1418.58 645.945 1417.28 647.251 1415.67 647.251C1414.06 647.251 1412.75 645.945 1412.75 644.335C1412.75 642.724 1414.06 641.418 1415.67 641.418C1417.28 641.418 1418.58 642.724 1418.58 644.335ZM1482.33 647.251C1483.94 647.251 1485.25 645.945 1485.25 644.335C1485.25 642.724 1483.94 641.418 1482.33 641.418C1480.72 641.418 1479.42 642.724 1479.42 644.335C1479.42 645.945 1480.72 647.251 1482.33 647.251Z" fill="black"/>
<path d="M1475.46 694.348C1476.95 694.348 1478.17 693.135 1478.17 691.639C1478.17 690.143 1476.95 688.931 1475.46 688.931H1422.54C1421.05 688.931 1419.83 690.143 1419.83 691.639C1419.83 693.135 1421.05 694.348 1422.54 694.348H1475.46Z" fill="black"/>
</g>
</g>
</g>
<g id="Light-S">
<g id="Outline / VIP Outline_25">
<g id="Shape_25">
<path fill-rule="evenodd" clip-rule="evenodd" d="M1161.33 636.001C1161.33 639.525 1159.15 642.537 1156.06 643.756C1156.1 643.805 1156.15 643.854 1156.19 643.905L1164.05 653.119C1165.85 655.231 1168.95 655.64 1171.24 654.068L1179.18 648.608C1178.43 647.358 1178 645.897 1178 644.335C1178 639.732 1181.73 636.001 1186.33 636.001C1190.94 636.001 1194.67 639.732 1194.67 644.335C1194.67 648.77 1191.2 652.397 1186.83 652.653L1182.87 678.539C1182.47 681.183 1180.19 683.137 1177.52 683.137H1128.49C1125.81 683.137 1123.54 681.183 1123.13 678.539L1119.18 652.654C1114.8 652.4 1111.33 648.773 1111.33 644.335C1111.33 639.732 1115.06 636.001 1119.67 636.001C1124.27 636.001 1128 639.732 1128 644.335C1128 645.883 1127.58 647.332 1126.84 648.574L1134.9 654.075C1137.19 655.643 1140.3 655.22 1142.09 653.097L1149.84 643.921C1149.88 643.868 1149.93 643.817 1149.97 643.767C1146.87 642.556 1144.67 639.535 1144.67 636.001C1144.67 631.399 1148.4 627.668 1153 627.668C1157.6 627.668 1161.33 631.399 1161.33 636.001ZM1153 638.918C1154.61 638.918 1155.92 637.612 1155.92 636.001C1155.92 634.39 1154.61 633.085 1153 633.085C1151.39 633.085 1150.08 634.39 1150.08 636.001C1150.08 637.612 1151.39 638.918 1153 638.918ZM1181.17 653.809L1174.31 658.531C1169.73 661.676 1163.53 660.856 1159.92 656.634L1153.02 648.541L1146.23 656.59C1142.65 660.837 1136.43 661.683 1131.84 658.548L1124.82 653.756L1128.49 677.72L1177.52 677.72L1181.17 653.809ZM1122.58 644.335C1122.58 645.945 1121.28 647.251 1119.67 647.251C1118.06 647.251 1116.75 645.945 1116.75 644.335C1116.75 642.724 1118.06 641.418 1119.67 641.418C1121.28 641.418 1122.58 642.724 1122.58 644.335ZM1186.33 647.251C1187.94 647.251 1189.25 645.945 1189.25 644.335C1189.25 642.724 1187.94 641.418 1186.33 641.418C1184.72 641.418 1183.42 642.724 1183.42 644.335C1183.42 645.945 1184.72 647.251 1186.33 647.251Z" fill="black"/>
<path d="M1179.46 694.348C1180.95 694.348 1182.17 693.135 1182.17 691.639C1182.17 690.143 1180.95 688.931 1179.46 688.931H1126.54C1125.05 688.931 1123.83 690.143 1123.83 691.639C1123.83 693.135 1125.05 694.348 1126.54 694.348H1179.46Z" fill="black"/>
</g>
</g>
</g>
<g id="Thin-S">
<g id="Outline / VIP Outline_26">
<g id="Shape_26">
<path fill-rule="evenodd" clip-rule="evenodd" d="M865.333 636.001C865.333 639.525 863.147 642.537 860.056 643.756C860.102 643.805 860.146 643.854 860.19 643.905L868.046 653.119C869.847 655.231 872.951 655.64 875.237 654.068L883.177 648.608C882.43 647.358 882 645.897 882 644.335C882 639.732 885.731 636.001 890.333 636.001C894.936 636.001 898.667 639.732 898.667 644.335C898.667 648.77 895.201 652.397 890.83 652.653L886.873 678.539C886.468 681.183 884.194 683.137 881.518 683.137H832.488C829.812 683.137 827.538 681.183 827.133 678.539L823.177 652.654C818.802 652.4 815.333 648.773 815.333 644.335C815.333 639.732 819.064 636.001 823.667 636.001C828.269 636.001 832 639.732 832 644.335C832 645.883 831.578 647.332 830.842 648.574L838.896 654.075C841.19 655.643 844.298 655.22 846.09 653.097L853.835 643.921C853.88 643.868 853.925 643.817 853.971 643.767C850.866 642.556 848.667 639.535 848.667 636.001C848.667 631.399 852.398 627.668 857 627.668C861.602 627.668 865.333 631.399 865.333 636.001ZM857 638.918C858.611 638.918 859.917 637.612 859.917 636.001C859.917 634.39 858.611 633.085 857 633.085C855.389 633.085 854.083 634.39 854.083 636.001C854.083 637.612 855.389 638.918 857 638.918ZM885.173 653.809L878.307 658.531C873.734 661.676 867.525 660.856 863.925 656.634L857.024 648.541L850.23 656.59C846.645 660.837 840.429 661.683 835.841 658.548L828.825 653.756L832.488 677.72L881.518 677.72L885.173 653.809ZM826.583 644.335C826.583 645.945 825.277 647.251 823.667 647.251C822.056 647.251 820.75 645.945 820.75 644.335C820.75 642.724 822.056 641.418 823.667 641.418C825.277 641.418 826.583 642.724 826.583 644.335ZM890.333 647.251C891.944 647.251 893.25 645.945 893.25 644.335C893.25 642.724 891.944 641.418 890.333 641.418C888.722 641.418 887.417 642.724 887.417 644.335C887.417 645.945 888.722 647.251 890.333 647.251Z" fill="black"/>
<path d="M883.458 694.348C884.954 694.348 886.167 693.135 886.167 691.639C886.167 690.143 884.954 688.931 883.458 688.931H830.542C829.046 688.931 827.833 690.143 827.833 691.639C827.833 693.135 829.046 694.348 830.542 694.348H883.458Z" fill="black"/>
</g>
</g>
</g>
<g id="Ultralight-S">
<g id="Outline / VIP Outline_27">
<g id="Shape_27">
<path fill-rule="evenodd" clip-rule="evenodd" d="M569.333 636.001C569.333 639.525 567.147 642.537 564.056 643.756C564.102 643.805 564.146 643.854 564.19 643.905L572.046 653.119C573.847 655.231 576.951 655.64 579.237 654.068L587.177 648.608C586.43 647.358 586 645.897 586 644.335C586 639.732 589.731 636.001 594.333 636.001C598.936 636.001 602.667 639.732 602.667 644.335C602.667 648.77 599.201 652.397 594.83 652.653L590.873 678.539C590.468 681.183 588.194 683.137 585.518 683.137H536.488C533.812 683.137 531.538 681.183 531.133 678.539L527.177 652.654C522.802 652.4 519.333 648.773 519.333 644.335C519.333 639.732 523.064 636.001 527.667 636.001C532.269 636.001 536 639.732 536 644.335C536 645.883 535.578 647.332 534.842 648.574L542.896 654.075C545.19 655.643 548.298 655.22 550.09 653.097L557.835 643.921C557.88 643.868 557.925 643.817 557.971 643.767C554.866 642.556 552.667 639.535 552.667 636.001C552.667 631.399 556.398 627.668 561 627.668C565.602 627.668 569.333 631.399 569.333 636.001ZM561 638.918C562.611 638.918 563.917 637.612 563.917 636.001C563.917 634.39 562.611 633.085 561 633.085C559.389 633.085 558.083 634.39 558.083 636.001C558.083 637.612 559.389 638.918 561 638.918ZM589.173 653.809L582.307 658.531C577.734 661.676 571.525 660.856 567.925 656.634L561.024 648.541L554.23 656.59C550.645 660.837 544.429 661.683 539.841 658.548L532.825 653.756L536.488 677.72L585.518 677.72L589.173 653.809ZM530.583 644.335C530.583 645.945 529.277 647.251 527.667 647.251C526.056 647.251 524.75 645.945 524.75 644.335C524.75 642.724 526.056 641.418 527.667 641.418C529.277 641.418 530.583 642.724 530.583 644.335ZM594.333 647.251C595.944 647.251 597.25 645.945 597.25 644.335C597.25 642.724 595.944 641.418 594.333 641.418C592.722 641.418 591.417 642.724 591.417 644.335C591.417 645.945 592.722 647.251 594.333 647.251Z" fill="black"/>
<path d="M587.458 694.348C588.954 694.348 590.167 693.135 590.167 691.639C590.167 690.143 588.954 688.931 587.458 688.931H534.542C533.046 688.931 531.833 690.143 531.833 691.639C531.833 693.135 533.046 694.348 534.542 694.348H587.458Z" fill="black"/>
</g>
</g>
</g>
</g>
</g>
<defs>
<clipPath id="clip0_0_1">
<rect width="3300" height="2200" fill="white"/>
</clipPath>
</defs>
</svg>
