<svg xmlns="http://www.w3.org/2000/svg" width="3300" height="2200" fill="none"><path fill="#E5E5E5" d="M0 0h3300v2200H0z"/><g id="System / Solid / Update" clip-path="url(#clip0_805_27002)"><g id="Notes"><path id="artboard" fill="#fff" d="M3300 0H0v2200h3300V0Z"/><path id="Vector" stroke="#000" stroke-width=".5" d="M263 292h2773"/><text xml:space="preserve" id="Weight/Scale Variations" fill="#000" font-family="Roboto" font-size="12" letter-spacing="0em" style="white-space:pre"><tspan x="263" y="321.102">Weight/Scale Variations</tspan></text><text xml:space="preserve" id="Ultralight" fill="#000" font-family="Roboto" font-size="12" letter-spacing="0em" style="white-space:pre"><tspan x="535.211" y="321.102">Ultralight</tspan></text><text xml:space="preserve" id="Thin" fill="#000" font-family="Roboto" font-size="12" letter-spacing="0em" style="white-space:pre"><tspan x="844.422" y="321.102">Thin</tspan></text><text xml:space="preserve" id="Light" fill="#000" font-family="Roboto" font-size="12" letter-spacing="0em" style="white-space:pre"><tspan x="1139.63" y="321.102">Light</tspan></text><text xml:space="preserve" id="Regular" fill="#000" font-family="Roboto" font-size="12" letter-spacing="0em" style="white-space:pre"><tspan x="1429.34" y="321.102">Regular</tspan></text><text xml:space="preserve" id="Medium" fill="#000" font-family="Roboto" font-size="12" letter-spacing="0em" style="white-space:pre"><tspan x="1724.56" y="321.102">Medium</tspan></text><text xml:space="preserve" id="Semibold" fill="#000" font-family="Roboto" font-size="12" letter-spacing="0em" style="white-space:pre"><tspan x="2017.77" y="321.102">Semibold</tspan></text><text xml:space="preserve" id="Bold" fill="#000" font-family="Roboto" font-size="12" letter-spacing="0em" style="white-space:pre"><tspan x="2327.48" y="321.102">Bold</tspan></text><text xml:space="preserve" id="Heavy" fill="#000" font-family="Roboto" font-size="12" letter-spacing="0em" style="white-space:pre"><tspan x="2620.19" y="321.102">Heavy</tspan></text><text xml:space="preserve" id="Black" fill="#000" font-family="Roboto" font-size="12" letter-spacing="0em" style="white-space:pre"><tspan x="2918.4" y="321.102">Black</tspan></text><path id="Vector_2" stroke="#000" stroke-width=".5" d="M263 1903h2773"/><g id="Group"><path id="Vector_3" fill="#000" d="M272.248 1933.83c4.307 0 7.891-3.57 7.891-7.88 0-4.31-3.594-7.88-7.901-7.88-4.297 0-7.871 3.57-7.871 7.88 0 4.31 3.584 7.88 7.881 7.88Zm0-1.48c-3.545 0-6.377-2.84-6.377-6.4 0-3.55 2.822-6.4 6.367-6.4a6.388 6.388 0 0 1 6.406 6.4 6.361 6.361 0 0 1-6.396 6.4Zm-.019-2.78c.468 0 .742-.31.742-.83v-2.06h2.226c.498 0 .84-.25.84-.72 0-.48-.322-.74-.84-.74h-2.226v-2.23c0-.52-.274-.84-.742-.84-.469 0-.723.34-.723.84v2.23h-2.207c-.518 0-.85.26-.85.74 0 .47.352.72.85.72h2.207v2.06c0 .5.254.83.723.83Z"/></g><g id="Group_2"><path id="Vector_4" fill="#000" d="M293.215 1935.91c5.449 0 9.961-4.51 9.961-9.96 0-5.44-4.522-9.96-9.971-9.96-5.439 0-9.951 4.52-9.951 9.96 0 5.45 4.521 9.96 9.961 9.96Zm0-1.66a8.26 8.26 0 0 1-8.291-8.3c0-4.6 3.672-8.3 8.281-8.3a8.29 8.29 0 0 1 8.311 8.3 8.263 8.263 0 0 1-8.301 8.3Zm-.02-3.66c.518 0 .83-.36.83-.93v-2.89h3.057c.547 0 .928-.28.928-.8 0-.53-.362-.83-.928-.83h-3.057v-3.07c0-.57-.312-.93-.83-.93-.517 0-.81.38-.81.93v3.07h-3.047c-.567 0-.938.3-.938.83 0 .52.391.8.938.8h3.047v2.89c0 .55.293.93.81.93Z"/></g><g id="Group_3"><path id="Vector_5" fill="#000" d="M319.895 1938.67c6.962 0 12.724-5.75 12.724-12.71 0-6.97-5.771-12.72-12.734-12.72-6.953 0-12.705 5.75-12.705 12.72 0 6.96 5.761 12.71 12.715 12.71Zm0-1.81a10.874 10.874 0 0 1-10.889-10.9c0-6.04 4.844-10.9 10.879-10.9 6.045 0 10.898 4.86 10.908 10.9a10.87 10.87 0 0 1-10.898 10.9Zm-.02-4.93c.566 0 .918-.39.918-.99v-4.07h4.238c.586 0 1.006-.34 1.006-.89 0-.58-.39-.92-1.006-.92h-4.238v-4.25c0-.61-.352-1.01-.918-1.01-.566 0-.889.41-.889 1.01v4.25h-4.228c-.615 0-1.026.34-1.026.92 0 .55.43.89 1.026.89h4.228v4.07c0 .58.323.99.889.99Z"/></g><text xml:space="preserve" id="Design Variations" fill="#000" font-family="Roboto" font-size="12" letter-spacing="0em" style="white-space:pre"><tspan x="263" y="1952.1">Design Variations</tspan></text><text xml:space="preserve" id="Symbols are supported in up to nine weights and three scales." fill="#000" font-family="Roboto" font-size="12" letter-spacing="0em" style="white-space:pre"><tspan x="263" y="1970.1">Symbols are supported in up to nine weights and three scales.</tspan></text><text xml:space="preserve" id="For optimal layout with text and other symbols, vertically align" fill="#000" font-family="Roboto" font-size="12" letter-spacing="0em" style="white-space:pre"><tspan x="263" y="1988.1">For optimal layout with text and other symbols, vertically align</tspan></text><text xml:space="preserve" id="symbols with the adjacent text." fill="#000" font-family="Roboto" font-size="12" letter-spacing="0em" style="white-space:pre"><tspan x="263" y="2006.1">symbols with the adjacent text.</tspan></text><path id="Vector_6" fill="#00AEEF" d="M779 1919h-3v14h3v-14Z" opacity=".4"/><g id="Group_4"><path id="Vector_7" fill="#000" d="M789.525 1933h1.846l-5.195-14.09h-1.739l-5.195 14.09h1.846l1.416-4.04h5.605l1.416 4.04Zm-4.248-11.96h.059l2.256 6.43h-4.571l2.256-6.43Z"/></g><path id="Vector_8" fill="#00AEEF" d="M794.617 1919h-3v14h3v-14Z" opacity=".4"/><text xml:space="preserve" id="Margins" fill="#000" font-family="Roboto" font-size="12" letter-spacing="0em" style="white-space:pre"><tspan x="776" y="1952.1">Margins</tspan></text><text xml:space="preserve" id="Leading and trailing margins on the left and right side of each symbol" fill="#000" font-family="Roboto" font-size="12" letter-spacing="0em" style="white-space:pre"><tspan x="776" y="1970.1">Leading and trailing margins on the left and right side of each symbol</tspan></text><text xml:space="preserve" id="can be adjusted by modifying the width of the blue rectangles." fill="#000" font-family="Roboto" font-size="12" letter-spacing="0em" style="white-space:pre"><tspan x="776" y="1988.1">can be adjusted by modifying the width of the blue rectangles.</tspan></text><text xml:space="preserve" id="Modifications are automatically applied proportionally to all" fill="#000" font-family="Roboto" font-size="12" letter-spacing="0em" style="white-space:pre"><tspan x="776" y="2006.1">Modifications are automatically applied proportionally to all</tspan></text><text xml:space="preserve" id="scales and weights." fill="#000" font-family="Roboto" font-size="12" letter-spacing="0em" style="white-space:pre"><tspan x="776" y="2024.1">scales and weights.</tspan></text><g id="Group_5"><path id="Vector_9" fill="#000" d="m1291.83 1936.11 1.54 1.55c.85.83 1.82.76 2.69-.2l10.21-11.12c.43.29.83.28 1.29.18l1.05-.21.69.69-.05.52c-.06.53.1.95.6 1.45l.81.81c.51.5 1.16.53 1.64.05l3.25-3.25c.48-.48.46-1.13-.05-1.64l-.82-.82c-.49-.5-.91-.67-1.44-.59l-.53.05-.65-.66.28-1.14c.15-.57 0-1.04-.63-1.64l-2.41-2.39c-3.54-3.53-8.07-3.42-11.19-.29-.42.43-.47 1.02-.19 1.45.23.37.71.59 1.35.43 1.52-.38 3.03-.27 4.51.74l-.62 1.58c-.23.59-.22 1.07.02 1.5l-11.16 10.28c-.94.87-1.05 1.81-.19 2.67Zm7.84-18.26c2.67-1.99 5.98-1.68 8.38.73l2.63 2.61c.23.24.26.42.2.72l-.38 1.56 1.58 1.57.96-.09c.29-.03.37-.01.6.22l.62.62-2.75 2.75-.63-.62c-.22-.22-.24-.32-.21-.6l.09-.96-1.57-1.56-1.62.31c-.28.06-.43.06-.66-.19l-2.18-2.17c-.22-.24-.25-.38-.12-.7l.94-2.27c-1.6-1.54-3.71-2.39-5.75-1.73-.09.03-.16.01-.19-.03-.02-.05-.02-.1.06-.17Zm-6.57 17.56c-.49-.5-.31-.8.02-1.1l10.96-10.12 1.23 1.23-10.16 10.93c-.3.33-.68.43-1.08.03l-.97-.97Z"/></g><text xml:space="preserve" id="Exporting" fill="#000" font-family="Roboto" font-size="12" letter-spacing="0em" style="white-space:pre"><tspan x="1289" y="1952.1">Exporting</tspan></text><text xml:space="preserve" id="Symbols should be outlined when exporting to ensure the" fill="#000" font-family="Roboto" font-size="12" letter-spacing="0em" style="white-space:pre"><tspan x="1289" y="1970.1">Symbols should be outlined when exporting to ensure the</tspan></text><text xml:space="preserve" id="design is preserved when submitting to Xcode." fill="#000" font-family="Roboto" font-size="12" letter-spacing="0em" style="white-space:pre"><tspan x="1289" y="1988.1">design is preserved when submitting to Xcode.</tspan></text><text xml:space="preserve" id="template-version" fill="#000" font-family="Roboto" font-size="12" letter-spacing="0em" style="white-space:pre"><tspan x="2958" y="1932.1">Template v.1.0</tspan></text><text xml:space="preserve" id="Generated from pencil.circle" fill="#000" font-family="Roboto" font-size="12" letter-spacing="0em" style="white-space:pre"><tspan x="2885" y="1950.1">Generated from pencil.circle</tspan></text><text xml:space="preserve" id="Typeset at 100 points" fill="#000" font-family="Roboto" font-size="12" letter-spacing="0em" style="white-space:pre"><tspan x="2921" y="1968.1">Typeset at 100 points</tspan></text><text xml:space="preserve" id="Small" fill="#000" font-family="Roboto" font-size="12" letter-spacing="0em" style="white-space:pre"><tspan x="263" y="725.102">Small</tspan></text><text xml:space="preserve" id="Medium_2" fill="#000" font-family="Roboto" font-size="12" letter-spacing="0em" style="white-space:pre"><tspan x="263" y="1155.1">Medium</tspan></text><text xml:space="preserve" id="Large" fill="#000" font-family="Roboto" font-size="12" letter-spacing="0em" style="white-space:pre"><tspan x="263" y="1585.1">Large</tspan></text></g><g id="Guides"><g id="H-reference"><path id="Vector_10" fill="#27AAE1" d="M393.932 695.998h2.734l-27.1-70.459h-2.49l-27.099 70.459h2.685l9.278-24.463h32.763l9.229 24.463Zm-25.733-67.09h.244l15.381 40.381h-31.006l15.381-40.381Z"/></g><path id="Baseline-S" stroke="#27AAE1" stroke-width=".577" d="M263 696h2773"/><path id="Capline-S" stroke="#27AAE1" stroke-width=".577" d="M263 626h2773"/><g id="H-reference_2"><path id="Vector_11" fill="#27AAE1" d="M393.932 1126h2.734l-27.1-70.46h-2.49L339.977 1126h2.685l9.278-24.46h32.763l9.229 24.46Zm-25.733-67.09h.244l15.381 40.38h-31.006l15.381-40.38Z"/></g><path id="Baseline-M" stroke="#27AAE1" stroke-width=".577" d="M263 1126h2773"/><path id="Capline-M" stroke="#27AAE1" stroke-width=".577" d="M263 1056h2773"/><g id="H-reference_3"><path id="Vector_12" fill="#27AAE1" d="M393.932 1556h2.734l-27.1-70.46h-2.49L339.977 1556h2.685l9.278-24.46h32.763l9.229 24.46Zm-25.733-67.09h.244l15.381 40.38h-31.006l15.381-40.38Z"/></g><g id="Group 1" stroke="#27AAE1" stroke-width=".577"><path id="Baseline-L" d="M263 1556h2773"/><path id="Capline-L" d="M263 1486h2773"/></g><path id="left-margin" fill="#00AEEF" d="M1396.04 1030.79h-8.74v119.33h8.74v-119.33Z" opacity=".4"/><path id="right-margin" fill="#00AEEF" d="M1510.39 1030.79h-8.74v119.33h8.74v-119.33Z" opacity=".4"/></g><g id="Symbols"><g id="Black-L"><g id="Solid / Update Solid"><path id="Shape" fill="#000" fill-rule="evenodd" d="M2929 1588.5c37.28 0 67.5-30.22 67.5-67.5s-30.22-67.5-67.5-67.5-67.5 30.22-67.5 67.5 30.22 67.5 67.5 67.5Zm21.6-103.96-1.71-6.5c-.74-2.6.69-5.33 3.29-6.07 2.6-.74 5.33.68 6.07 3.28l5.34 18.9c.88 2.95-.9 5.99-3.86 6.61l-18.23 3.62c-2.63.64-5.21-1.04-5.84-3.67-.43-1.2-.19-2.36.42-3.4.64-1.1 1.78-2 3.17-2.32l7.22-1.54c-6.54-4.15-14.57-6-22.8-4.64-16.6 2.75-28.18 17.58-27.25 34 .16 2.69-1.9 4.99-4.59 5.15a4.876 4.876 0 0 1-5.14-4.59c-1.22-21.34 13.82-40.6 35.38-44.17 10.25-1.7 20.25.43 28.53 5.34Zm20.71 34.09a4.876 4.876 0 0 0-5.14-4.59c-2.69.16-4.75 2.46-4.59 5.15.93 16.42-10.65 31.25-27.25 34a32.52 32.52 0 0 1-22.8-4.63l7.22-1.55a4.994 4.994 0 0 0 3.17-2.32c.61-1.03.85-2.2.42-3.4-.63-2.63-3.21-4.31-5.84-3.67l-18.23 3.62c-2.96.62-4.74 3.66-3.86 6.61l5.34 18.9c.74 2.6 3.47 4.02 6.07 3.28 2.6-.74 4.03-3.47 3.29-6.07l-1.71-6.5a42.273 42.273 0 0 0 28.53 5.35c21.56-3.58 36.6-22.84 35.38-44.18Z" clip-rule="evenodd"/></g></g><g id="Heavy-L"><g id="Solid / Update Solid_2"><path id="Shape_2" fill="#000" fill-rule="evenodd" d="M2633 1588.5c37.28 0 67.5-30.22 67.5-67.5s-30.22-67.5-67.5-67.5-67.5 30.22-67.5 67.5 30.22 67.5 67.5 67.5Zm21.6-103.96-1.71-6.5c-.74-2.6.69-5.33 3.29-6.07 2.6-.74 5.33.68 6.07 3.28l5.34 18.9c.88 2.95-.9 5.99-3.86 6.61l-18.23 3.62c-2.63.64-5.21-1.04-5.84-3.67-.43-1.2-.19-2.36.42-3.4.64-1.1 1.78-2 3.17-2.32l7.22-1.54c-6.54-4.15-14.57-6-22.8-4.64-16.6 2.75-28.18 17.58-27.25 34 .16 2.69-1.9 4.99-4.59 5.15a4.876 4.876 0 0 1-5.14-4.59c-1.22-21.34 13.82-40.6 35.38-44.17 10.25-1.7 20.25.43 28.53 5.34Zm20.71 34.09a4.876 4.876 0 0 0-5.14-4.59c-2.69.16-4.75 2.46-4.59 5.15.93 16.42-10.65 31.25-27.25 34a32.52 32.52 0 0 1-22.8-4.63l7.22-1.55a4.994 4.994 0 0 0 3.17-2.32c.61-1.03.85-2.2.42-3.4-.63-2.63-3.21-4.31-5.84-3.67l-18.23 3.62c-2.96.62-4.74 3.66-3.86 6.61l5.34 18.9c.74 2.6 3.47 4.02 6.07 3.28 2.6-.74 4.03-3.47 3.29-6.07l-1.71-6.5a42.273 42.273 0 0 0 28.53 5.35c21.56-3.58 36.6-22.84 35.38-44.18Z" clip-rule="evenodd"/></g></g><g id="Bold-L"><g id="Solid / Update Solid_3"><path id="Shape_3" fill="#000" fill-rule="evenodd" d="M2337 1588.5c37.28 0 67.5-30.22 67.5-67.5s-30.22-67.5-67.5-67.5-67.5 30.22-67.5 67.5 30.22 67.5 67.5 67.5Zm21.6-103.96-1.71-6.5c-.74-2.6.69-5.33 3.29-6.07 2.6-.74 5.33.68 6.07 3.28l5.34 18.9c.88 2.95-.9 5.99-3.86 6.61l-18.23 3.62c-2.63.64-5.21-1.04-5.84-3.67-.43-1.2-.19-2.36.42-3.4.64-1.1 1.78-2 3.17-2.32l7.22-1.54c-6.54-4.15-14.57-6-22.8-4.64-16.6 2.75-28.18 17.58-27.25 34 .16 2.69-1.9 4.99-4.59 5.15a4.876 4.876 0 0 1-5.14-4.59c-1.22-21.34 13.82-40.6 35.38-44.17 10.25-1.7 20.25.43 28.53 5.34Zm20.71 34.09a4.876 4.876 0 0 0-5.14-4.59c-2.69.16-4.75 2.46-4.59 5.15.93 16.42-10.65 31.25-27.25 34a32.52 32.52 0 0 1-22.8-4.63l7.22-1.55a4.994 4.994 0 0 0 3.17-2.32c.61-1.03.85-2.2.42-3.4-.63-2.63-3.21-4.31-5.84-3.67l-18.23 3.62c-2.96.62-4.74 3.66-3.86 6.61l5.34 18.9c.74 2.6 3.47 4.02 6.07 3.28 2.6-.74 4.03-3.47 3.29-6.07l-1.71-6.5a42.273 42.273 0 0 0 28.53 5.35c21.56-3.58 36.6-22.84 35.38-44.18Z" clip-rule="evenodd"/></g></g><g id="Semibold-L"><g id="Solid / Update Solid_4"><path id="Shape_4" fill="#000" fill-rule="evenodd" d="M2041 1588.5c37.28 0 67.5-30.22 67.5-67.5s-30.22-67.5-67.5-67.5-67.5 30.22-67.5 67.5 30.22 67.5 67.5 67.5Zm21.6-103.96-1.71-6.5c-.74-2.6.69-5.33 3.29-6.07 2.6-.74 5.33.68 6.07 3.28l5.34 18.9c.88 2.95-.9 5.99-3.86 6.61l-18.23 3.62c-2.63.64-5.21-1.04-5.84-3.67-.43-1.2-.19-2.36.42-3.4.64-1.1 1.78-2 3.17-2.32l7.22-1.54c-6.54-4.15-14.57-6-22.8-4.64-16.6 2.75-28.18 17.58-27.25 34 .16 2.69-1.9 4.99-4.59 5.15a4.876 4.876 0 0 1-5.14-4.59c-1.22-21.34 13.82-40.6 35.38-44.17 10.25-1.7 20.25.43 28.53 5.34Zm20.71 34.09a4.876 4.876 0 0 0-5.14-4.59c-2.69.16-4.75 2.46-4.59 5.15.93 16.42-10.65 31.25-27.25 34a32.52 32.52 0 0 1-22.8-4.63l7.22-1.55a4.994 4.994 0 0 0 3.17-2.32c.61-1.03.85-2.2.42-3.4-.63-2.63-3.21-4.31-5.84-3.67l-18.23 3.62c-2.96.62-4.74 3.66-3.86 6.61l5.34 18.9c.74 2.6 3.47 4.02 6.07 3.28 2.6-.74 4.03-3.47 3.29-6.07l-1.71-6.5a42.273 42.273 0 0 0 28.53 5.35c21.56-3.58 36.6-22.84 35.38-44.18Z" clip-rule="evenodd"/></g></g><g id="Medium-L"><g id="Solid / Update Solid_5"><path id="Shape_5" fill="#000" fill-rule="evenodd" d="M1745 1588.5c37.28 0 67.5-30.22 67.5-67.5s-30.22-67.5-67.5-67.5-67.5 30.22-67.5 67.5 30.22 67.5 67.5 67.5Zm21.6-103.96-1.71-6.5c-.74-2.6.69-5.33 3.29-6.07 2.6-.74 5.33.68 6.07 3.28l5.34 18.9c.88 2.95-.9 5.99-3.86 6.61l-18.23 3.62c-2.63.64-5.21-1.04-5.84-3.67-.43-1.2-.19-2.36.42-3.4.64-1.1 1.78-2 3.17-2.32l7.22-1.54c-6.54-4.15-14.57-6-22.8-4.64-16.6 2.75-28.18 17.58-27.25 34 .16 2.69-1.9 4.99-4.59 5.15a4.876 4.876 0 0 1-5.14-4.59c-1.22-21.34 13.82-40.6 35.38-44.17 10.25-1.7 20.25.43 28.53 5.34Zm20.71 34.09a4.876 4.876 0 0 0-5.14-4.59c-2.69.16-4.75 2.46-4.59 5.15.93 16.42-10.65 31.25-27.25 34a32.52 32.52 0 0 1-22.8-4.63l7.22-1.55a4.994 4.994 0 0 0 3.17-2.32c.61-1.03.85-2.2.42-3.4-.63-2.63-3.21-4.31-5.84-3.67l-18.23 3.62c-2.96.62-4.74 3.66-3.86 6.61l5.34 18.9c.74 2.6 3.47 4.02 6.07 3.28 2.6-.74 4.03-3.47 3.29-6.07l-1.71-6.5a42.273 42.273 0 0 0 28.53 5.35c21.56-3.58 36.6-22.84 35.38-44.18Z" clip-rule="evenodd"/></g></g><g id="Regular-L"><g id="Solid / Update Solid_6"><path id="Shape_6" fill="#000" fill-rule="evenodd" d="M1449 1588.5c37.28 0 67.5-30.22 67.5-67.5s-30.22-67.5-67.5-67.5-67.5 30.22-67.5 67.5 30.22 67.5 67.5 67.5Zm21.6-103.96-1.71-6.5c-.74-2.6.69-5.33 3.29-6.07 2.6-.74 5.33.68 6.07 3.28l5.34 18.9c.88 2.95-.9 5.99-3.86 6.61l-18.23 3.62c-2.63.64-5.21-1.04-5.84-3.67-.43-1.2-.19-2.36.42-3.4.64-1.1 1.78-2 3.17-2.32l7.22-1.54c-6.54-4.15-14.57-6-22.8-4.64-16.6 2.75-28.18 17.58-27.25 34 .16 2.69-1.9 4.99-4.59 5.15a4.876 4.876 0 0 1-5.14-4.59c-1.22-21.34 13.82-40.6 35.38-44.17 10.25-1.7 20.25.43 28.53 5.34Zm20.71 34.09a4.876 4.876 0 0 0-5.14-4.59c-2.69.16-4.75 2.46-4.59 5.15.93 16.42-10.65 31.25-27.25 34a32.52 32.52 0 0 1-22.8-4.63l7.22-1.55a4.994 4.994 0 0 0 3.17-2.32c.61-1.03.85-2.2.42-3.4-.63-2.63-3.21-4.31-5.84-3.67l-18.23 3.62c-2.96.62-4.74 3.66-3.86 6.61l5.34 18.9c.74 2.6 3.47 4.02 6.07 3.28 2.6-.74 4.03-3.47 3.29-6.07l-1.71-6.5a42.273 42.273 0 0 0 28.53 5.35c21.56-3.58 36.6-22.84 35.38-44.18Z" clip-rule="evenodd"/></g></g><g id="Light-L"><g id="Solid / Update Solid_7"><path id="Shape_7" fill="#000" fill-rule="evenodd" d="M1153 1588.5c37.28 0 67.5-30.22 67.5-67.5s-30.22-67.5-67.5-67.5-67.5 30.22-67.5 67.5 30.22 67.5 67.5 67.5Zm21.6-103.96-1.71-6.5c-.74-2.6.69-5.33 3.29-6.07 2.6-.74 5.33.68 6.07 3.28l5.34 18.9c.88 2.95-.9 5.99-3.86 6.61l-18.23 3.62c-2.63.64-5.21-1.04-5.84-3.67-.43-1.2-.19-2.36.42-3.4.64-1.1 1.78-2 3.17-2.32l7.22-1.54c-6.54-4.15-14.57-6-22.8-4.64-16.6 2.75-28.18 17.58-27.25 34 .16 2.69-1.9 4.99-4.59 5.15a4.876 4.876 0 0 1-5.14-4.59c-1.22-21.34 13.82-40.6 35.38-44.17 10.25-1.7 20.25.43 28.53 5.34Zm20.71 34.09a4.876 4.876 0 0 0-5.14-4.59c-2.69.16-4.75 2.46-4.59 5.15.93 16.42-10.65 31.25-27.25 34a32.52 32.52 0 0 1-22.8-4.63l7.22-1.55a4.994 4.994 0 0 0 3.17-2.32c.61-1.03.85-2.2.42-3.4-.63-2.63-3.21-4.31-5.84-3.67l-18.23 3.62c-2.96.62-4.74 3.66-3.86 6.61l5.34 18.9c.74 2.6 3.47 4.02 6.07 3.28 2.6-.74 4.03-3.47 3.29-6.07l-1.71-6.5a42.273 42.273 0 0 0 28.53 5.35c21.56-3.58 36.6-22.84 35.38-44.18Z" clip-rule="evenodd"/></g></g><g id="Thin-L"><g id="Solid / Update Solid_8"><path id="Shape_8" fill="#000" fill-rule="evenodd" d="M857 1588.5c37.279 0 67.5-30.22 67.5-67.5s-30.221-67.5-67.5-67.5c-37.279 0-67.5 30.22-67.5 67.5s30.221 67.5 67.5 67.5Zm21.601-103.96-1.708-6.5c-.738-2.6.683-5.33 3.285-6.07 2.603-.74 5.334.68 6.072 3.28l5.338 18.9c.884 2.95-.893 5.99-3.858 6.61l-18.229 3.62c-2.629.64-5.209-1.04-5.845-3.67-.426-1.2-.182-2.36.423-3.4.643-1.1 1.777-2 3.175-2.32l7.215-1.54c-6.54-4.15-14.566-6-22.801-4.64-16.596 2.75-28.182 17.58-27.246 34a4.883 4.883 0 0 1-4.59 5.15 4.882 4.882 0 0 1-5.144-4.59c-1.217-21.34 13.824-40.6 35.386-44.17a42.207 42.207 0 0 1 28.527 5.34Zm20.711 34.09a4.883 4.883 0 0 0-5.145-4.59 4.882 4.882 0 0 0-4.589 5.15c.936 16.42-10.651 31.25-27.246 34a32.516 32.516 0 0 1-22.801-4.63l7.215-1.55a4.992 4.992 0 0 0 3.175-2.32c.605-1.03.849-2.2.423-3.4-.636-2.63-3.216-4.31-5.845-3.67l-18.229 3.62c-2.964.62-4.742 3.66-3.858 6.61l5.338 18.9c.739 2.6 3.47 4.02 6.072 3.28 2.603-.74 4.024-3.47 3.285-6.07l-1.708-6.5a42.266 42.266 0 0 0 28.526 5.35c21.563-3.58 36.603-22.84 35.387-44.18Z" clip-rule="evenodd"/></g></g><g id="Ultralight-L"><g id="Solid / Update Solid_9"><path id="Shape_9" fill="#000" fill-rule="evenodd" d="M561 1588.5c37.279 0 67.5-30.22 67.5-67.5s-30.221-67.5-67.5-67.5c-37.279 0-67.5 30.22-67.5 67.5s30.221 67.5 67.5 67.5Zm21.601-103.96-1.708-6.5c-.738-2.6.683-5.33 3.285-6.07 2.603-.74 5.334.68 6.072 3.28l5.338 18.9c.884 2.95-.893 5.99-3.858 6.61l-18.229 3.62c-2.629.64-5.209-1.04-5.845-3.67-.426-1.2-.182-2.36.423-3.4.643-1.1 1.777-2 3.175-2.32l7.215-1.54c-6.54-4.15-14.566-6-22.801-4.64-16.596 2.75-28.182 17.58-27.246 34a4.883 4.883 0 0 1-4.59 5.15 4.882 4.882 0 0 1-5.144-4.59c-1.217-21.34 13.824-40.6 35.386-44.17a42.207 42.207 0 0 1 28.527 5.34Zm20.711 34.09a4.883 4.883 0 0 0-5.145-4.59 4.882 4.882 0 0 0-4.589 5.15c.936 16.42-10.651 31.25-27.246 34a32.516 32.516 0 0 1-22.801-4.63l7.215-1.55a4.992 4.992 0 0 0 3.175-2.32c.605-1.03.849-2.2.423-3.4-.636-2.63-3.216-4.31-5.845-3.67l-18.229 3.62c-2.964.62-4.742 3.66-3.858 6.61l5.338 18.9c.739 2.6 3.47 4.02 6.072 3.28 2.603-.74 4.024-3.47 3.285-6.07l-1.708-6.5a42.266 42.266 0 0 0 28.526 5.35c21.563-3.58 36.603-22.84 35.387-44.18Z" clip-rule="evenodd"/></g></g><g id="Black-M"><g id="Solid / Update Solid_10"><path id="Shape_10" fill="#000" fill-rule="evenodd" d="M2929 1143.5c28.99 0 52.5-23.51 52.5-52.5s-23.51-52.5-52.5-52.5-52.5 23.51-52.5 52.5 23.51 52.5 52.5 52.5Zm16.8-80.85-1.33-5.06c-.57-2.03.53-4.15 2.56-4.72 2.02-.58 4.15.53 4.72 2.55l4.15 14.7c.69 2.29-.69 4.66-3 5.13l-14.18 2.83c-2.04.49-4.05-.82-4.54-2.86-.33-.94-.14-1.84.33-2.65.5-.85 1.38-1.55 2.47-1.8l5.61-1.2a25.282 25.282 0 0 0-17.74-3.6c-12.91 2.13-21.92 13.67-21.19 26.44a3.792 3.792 0 0 1-7.57.43c-.95-16.6 10.75-31.58 27.52-34.35 7.97-1.33 15.75.34 22.19 4.16Zm16.11 26.51a3.792 3.792 0 0 0-7.57.43c.73 12.77-8.29 24.31-21.19 26.44a25.23 25.23 0 0 1-17.74-3.6l5.61-1.2c1.09-.25 1.97-.95 2.47-1.8.47-.81.66-1.71.33-2.65-.49-2.04-2.5-3.35-4.54-2.86l-14.18 2.83c-2.31.47-3.69 2.84-3 5.13l4.15 14.7c.57 2.02 2.7 3.13 4.72 2.56 2.03-.58 3.13-2.7 2.56-4.73l-1.33-5.05a32.843 32.843 0 0 0 22.19 4.16c16.77-2.78 28.47-17.76 27.52-34.36Z" clip-rule="evenodd"/></g></g><g id="Heavy-M"><g id="Solid / Update Solid_11"><path id="Shape_11" fill="#000" fill-rule="evenodd" d="M2633 1143.5c28.99 0 52.5-23.51 52.5-52.5s-23.51-52.5-52.5-52.5-52.5 23.51-52.5 52.5 23.51 52.5 52.5 52.5Zm16.8-80.85-1.33-5.06c-.57-2.03.53-4.15 2.56-4.72 2.02-.58 4.15.53 4.72 2.55l4.15 14.7c.69 2.29-.69 4.66-3 5.13l-14.18 2.83c-2.04.49-4.05-.82-4.54-2.86-.33-.94-.14-1.84.33-2.65.5-.85 1.38-1.55 2.47-1.8l5.61-1.2a25.282 25.282 0 0 0-17.74-3.6c-12.91 2.13-21.92 13.67-21.19 26.44a3.792 3.792 0 0 1-7.57.43c-.95-16.6 10.75-31.58 27.52-34.35 7.97-1.33 15.75.34 22.19 4.16Zm16.11 26.51a3.792 3.792 0 0 0-7.57.43c.73 12.77-8.29 24.31-21.19 26.44a25.23 25.23 0 0 1-17.74-3.6l5.61-1.2c1.09-.25 1.97-.95 2.47-1.8.47-.81.66-1.71.33-2.65-.49-2.04-2.5-3.35-4.54-2.86l-14.18 2.83c-2.31.47-3.69 2.84-3 5.13l4.15 14.7c.57 2.02 2.7 3.13 4.72 2.56 2.03-.58 3.13-2.7 2.56-4.73l-1.33-5.05a32.843 32.843 0 0 0 22.19 4.16c16.77-2.78 28.47-17.76 27.52-34.36Z" clip-rule="evenodd"/></g></g><g id="Bold-M"><g id="Solid / Update Solid_12"><path id="Shape_12" fill="#000" fill-rule="evenodd" d="M2337 1143.5c28.99 0 52.5-23.51 52.5-52.5s-23.51-52.5-52.5-52.5-52.5 23.51-52.5 52.5 23.51 52.5 52.5 52.5Zm16.8-80.85-1.33-5.06c-.57-2.03.53-4.15 2.56-4.72 2.02-.58 4.15.53 4.72 2.55l4.15 14.7c.69 2.29-.69 4.66-3 5.13l-14.18 2.83c-2.04.49-4.05-.82-4.54-2.86-.33-.94-.14-1.84.33-2.65.5-.85 1.38-1.55 2.47-1.8l5.61-1.2a25.282 25.282 0 0 0-17.74-3.6c-12.91 2.13-21.92 13.67-21.19 26.44a3.792 3.792 0 0 1-7.57.43c-.95-16.6 10.75-31.58 27.52-34.35 7.97-1.33 15.75.34 22.19 4.16Zm16.11 26.51a3.792 3.792 0 0 0-7.57.43c.73 12.77-8.29 24.31-21.19 26.44a25.23 25.23 0 0 1-17.74-3.6l5.61-1.2c1.09-.25 1.97-.95 2.47-1.8.47-.81.66-1.71.33-2.65-.49-2.04-2.5-3.35-4.54-2.86l-14.18 2.83c-2.31.47-3.69 2.84-3 5.13l4.15 14.7c.57 2.02 2.7 3.13 4.72 2.56 2.03-.58 3.13-2.7 2.56-4.73l-1.33-5.05a32.843 32.843 0 0 0 22.19 4.16c16.77-2.78 28.47-17.76 27.52-34.36Z" clip-rule="evenodd"/></g></g><g id="Semibold-M"><g id="Solid / Update Solid_13"><path id="Shape_13" fill="#000" fill-rule="evenodd" d="M2041 1143.5c28.99 0 52.5-23.51 52.5-52.5s-23.51-52.5-52.5-52.5-52.5 23.51-52.5 52.5 23.51 52.5 52.5 52.5Zm16.8-80.85-1.33-5.06c-.57-2.03.53-4.15 2.56-4.72 2.02-.58 4.15.53 4.72 2.55l4.15 14.7c.69 2.29-.69 4.66-3 5.13l-14.18 2.83c-2.04.49-4.05-.82-4.54-2.86-.33-.94-.14-1.84.33-2.65.5-.85 1.38-1.55 2.47-1.8l5.61-1.2a25.282 25.282 0 0 0-17.74-3.6c-12.91 2.13-21.92 13.67-21.19 26.44a3.792 3.792 0 0 1-7.57.43c-.95-16.6 10.75-31.58 27.52-34.35 7.97-1.33 15.75.34 22.19 4.16Zm16.11 26.51a3.792 3.792 0 0 0-7.57.43c.73 12.77-8.29 24.31-21.19 26.44a25.23 25.23 0 0 1-17.74-3.6l5.61-1.2c1.09-.25 1.97-.95 2.47-1.8.47-.81.66-1.71.33-2.65-.49-2.04-2.5-3.35-4.54-2.86l-14.18 2.83c-2.31.47-3.69 2.84-3 5.13l4.15 14.7c.57 2.02 2.7 3.13 4.72 2.56 2.03-.58 3.13-2.7 2.56-4.73l-1.33-5.05a32.843 32.843 0 0 0 22.19 4.16c16.77-2.78 28.47-17.76 27.52-34.36Z" clip-rule="evenodd"/></g></g><g id="Medium-M"><g id="Solid / Update Solid_14"><path id="Shape_14" fill="#000" fill-rule="evenodd" d="M1745 1143.5c28.99 0 52.5-23.51 52.5-52.5s-23.51-52.5-52.5-52.5-52.5 23.51-52.5 52.5 23.51 52.5 52.5 52.5Zm16.8-80.85-1.33-5.06c-.57-2.03.53-4.15 2.56-4.72 2.02-.58 4.15.53 4.72 2.55l4.15 14.7c.69 2.29-.69 4.66-3 5.13l-14.18 2.83c-2.04.49-4.05-.82-4.54-2.86-.33-.94-.14-1.84.33-2.65.5-.85 1.38-1.55 2.47-1.8l5.61-1.2a25.282 25.282 0 0 0-17.74-3.6c-12.91 2.13-21.92 13.67-21.19 26.44a3.792 3.792 0 0 1-7.57.43c-.95-16.6 10.75-31.58 27.52-34.35 7.97-1.33 15.75.34 22.19 4.16Zm16.11 26.51a3.792 3.792 0 0 0-7.57.43c.73 12.77-8.29 24.31-21.19 26.44a25.23 25.23 0 0 1-17.74-3.6l5.61-1.2c1.09-.25 1.97-.95 2.47-1.8.47-.81.66-1.71.33-2.65-.49-2.04-2.5-3.35-4.54-2.86l-14.18 2.83c-2.31.47-3.69 2.84-3 5.13l4.15 14.7c.57 2.02 2.7 3.13 4.72 2.56 2.03-.58 3.13-2.7 2.56-4.73l-1.33-5.05a32.843 32.843 0 0 0 22.19 4.16c16.77-2.78 28.47-17.76 27.52-34.36Z" clip-rule="evenodd"/></g></g><g id="Regular-M"><g id="Solid / Update Solid_15"><path id="Shape_15" fill="#000" fill-rule="evenodd" d="M1449 1143.5c28.99 0 52.5-23.51 52.5-52.5s-23.51-52.5-52.5-52.5-52.5 23.51-52.5 52.5 23.51 52.5 52.5 52.5Zm16.8-80.85-1.33-5.06c-.57-2.03.53-4.15 2.56-4.72 2.02-.58 4.15.53 4.72 2.55l4.15 14.7c.69 2.29-.69 4.66-3 5.13l-14.18 2.83c-2.04.49-4.05-.82-4.54-2.86-.33-.94-.14-1.84.33-2.65.5-.85 1.38-1.55 2.47-1.8l5.61-1.2a25.282 25.282 0 0 0-17.74-3.6c-12.91 2.13-21.92 13.67-21.19 26.44a3.792 3.792 0 0 1-7.57.43c-.95-16.6 10.75-31.58 27.52-34.35 7.97-1.33 15.75.34 22.19 4.16Zm16.11 26.51a3.792 3.792 0 0 0-7.57.43c.73 12.77-8.29 24.31-21.19 26.44a25.23 25.23 0 0 1-17.74-3.6l5.61-1.2c1.09-.25 1.97-.95 2.47-1.8.47-.81.66-1.71.33-2.65-.49-2.04-2.5-3.35-4.54-2.86l-14.18 2.83c-2.31.47-3.69 2.84-3 5.13l4.15 14.7c.57 2.02 2.7 3.13 4.72 2.56 2.03-.58 3.13-2.7 2.56-4.73l-1.33-5.05a32.843 32.843 0 0 0 22.19 4.16c16.77-2.78 28.47-17.76 27.52-34.36Z" clip-rule="evenodd"/></g></g><g id="Light-M"><g id="Solid / Update Solid_16"><path id="Shape_16" fill="#000" fill-rule="evenodd" d="M1153 1143.5c28.99 0 52.5-23.51 52.5-52.5s-23.51-52.5-52.5-52.5-52.5 23.51-52.5 52.5 23.51 52.5 52.5 52.5Zm16.8-80.85-1.33-5.06c-.57-2.03.53-4.15 2.56-4.72 2.02-.58 4.15.53 4.72 2.55l4.15 14.7c.69 2.29-.69 4.66-3 5.13l-14.18 2.83c-2.04.49-4.05-.82-4.54-2.86-.33-.94-.14-1.84.33-2.65.5-.85 1.38-1.55 2.47-1.8l5.61-1.2a25.282 25.282 0 0 0-17.74-3.6c-12.91 2.13-21.92 13.67-21.19 26.44a3.792 3.792 0 0 1-7.57.43c-.95-16.6 10.75-31.58 27.52-34.35 7.97-1.33 15.75.34 22.19 4.16Zm16.11 26.51a3.792 3.792 0 0 0-7.57.43c.73 12.77-8.29 24.31-21.19 26.44a25.23 25.23 0 0 1-17.74-3.6l5.61-1.2c1.09-.25 1.97-.95 2.47-1.8.47-.81.66-1.71.33-2.65-.49-2.04-2.5-3.35-4.54-2.86l-14.18 2.83c-2.31.47-3.69 2.84-3 5.13l4.15 14.7c.57 2.02 2.7 3.13 4.72 2.56 2.03-.58 3.13-2.7 2.56-4.73l-1.33-5.05a32.843 32.843 0 0 0 22.19 4.16c16.77-2.78 28.47-17.76 27.52-34.36Z" clip-rule="evenodd"/></g></g><g id="Thin-M"><g id="Solid / Update Solid_17"><path id="Shape_17" fill="#000" fill-rule="evenodd" d="M857 1143.5c28.995 0 52.5-23.51 52.5-52.5s-23.505-52.5-52.5-52.5-52.5 23.51-52.5 52.5 23.505 52.5 52.5 52.5Zm16.801-80.85-1.329-5.06c-.574-2.03.531-4.15 2.555-4.72 2.025-.58 4.149.53 4.723 2.55l4.152 14.7c.687 2.29-.695 4.66-3.001 5.13l-14.178 2.83c-2.045.49-4.051-.82-4.546-2.86-.331-.94-.142-1.84.329-2.65.5-.85 1.382-1.55 2.47-1.8l5.611-1.2a25.268 25.268 0 0 0-17.734-3.6c-12.908 2.13-21.92 13.67-21.192 26.44a3.79 3.79 0 1 1-7.571.43c-.946-16.6 10.752-31.58 27.523-34.35 7.971-1.33 15.747.34 22.188 4.16Zm16.108 26.51a3.791 3.791 0 0 0-7.571.43c.728 12.77-8.283 24.31-21.191 26.44a25.215 25.215 0 0 1-17.734-3.6l5.612-1.2a3.9 3.9 0 0 0 2.469-1.8c.471-.81.66-1.71.329-2.65-.495-2.04-2.501-3.35-4.546-2.86l-14.178 2.83c-2.306.47-3.688 2.84-3.001 5.13l4.152 14.7c.574 2.02 2.699 3.13 4.723 2.56 2.024-.58 3.129-2.7 2.555-4.73l-1.329-5.05a32.836 32.836 0 0 0 22.187 4.16c16.771-2.78 28.469-17.76 27.523-34.36Z" clip-rule="evenodd"/></g></g><g id="Ultralight-M"><g id="Solid / Update Solid_18"><path id="Shape_18" fill="#000" fill-rule="evenodd" d="M561 1143.5c28.995 0 52.5-23.51 52.5-52.5s-23.505-52.5-52.5-52.5-52.5 23.51-52.5 52.5 23.505 52.5 52.5 52.5Zm16.801-80.85-1.329-5.06c-.574-2.03.531-4.15 2.555-4.72 2.025-.58 4.149.53 4.723 2.55l4.152 14.7c.687 2.29-.695 4.66-3.001 5.13l-14.178 2.83c-2.045.49-4.051-.82-4.546-2.86-.331-.94-.142-1.84.329-2.65.5-.85 1.382-1.55 2.47-1.8l5.611-1.2a25.268 25.268 0 0 0-17.734-3.6c-12.908 2.13-21.92 13.67-21.192 26.44a3.79 3.79 0 1 1-7.571.43c-.946-16.6 10.752-31.58 27.523-34.35 7.971-1.33 15.747.34 22.188 4.16Zm16.108 26.51a3.791 3.791 0 0 0-7.571.43c.728 12.77-8.283 24.31-21.191 26.44a25.215 25.215 0 0 1-17.734-3.6l5.612-1.2a3.9 3.9 0 0 0 2.469-1.8c.471-.81.66-1.71.329-2.65-.495-2.04-2.501-3.35-4.546-2.86l-14.178 2.83c-2.306.47-3.688 2.84-3.001 5.13l4.152 14.7c.574 2.02 2.699 3.13 4.723 2.56 2.024-.58 3.129-2.7 2.555-4.73l-1.329-5.05a32.836 32.836 0 0 0 22.187 4.16c16.771-2.78 28.469-17.76 27.523-34.36Z" clip-rule="evenodd"/></g></g><g id="Black-S"><g id="Solid / Update Solid_19"><path id="Shape_19" fill="#000" fill-rule="evenodd" d="M2929 698.5c20.71 0 37.5-16.789 37.5-37.5s-16.79-37.5-37.5-37.5-37.5 16.789-37.5 37.5 16.79 37.5 37.5 37.5Zm12-57.753-.95-3.613c-.41-1.446.38-2.963 1.83-3.373 1.44-.41 2.96.379 3.37 1.825l2.97 10.497c.49 1.638-.5 3.329-2.15 3.67l-10.12 2.016c-1.47.353-2.9-.58-3.25-2.041-.24-.669-.1-1.314.23-1.89.36-.611.99-1.112 1.77-1.286l4-.86a18.033 18.033 0 0 0-12.66-2.573c-9.22 1.527-15.66 9.765-15.14 18.887a2.707 2.707 0 0 1-2.55 2.858 2.715 2.715 0 0 1-2.86-2.549c-.67-11.855 7.68-22.555 19.66-24.54 5.7-.943 11.25.243 15.85 2.972Zm11.51 18.939a2.715 2.715 0 0 0-2.86-2.55 2.708 2.708 0 0 0-2.55 2.858c.52 9.122-5.92 17.36-15.14 18.887-4.57.758-9.03-.267-12.66-2.572l4-.861a2.765 2.765 0 0 0 1.77-1.286c.33-.576.47-1.22.23-1.889-.35-1.461-1.78-2.395-3.25-2.041l-10.12 2.015c-1.65.341-2.64 2.032-2.15 3.67l2.97 10.497c.41 1.446 1.93 2.236 3.37 1.825 1.45-.41 2.24-1.927 1.83-3.373l-.95-3.612a23.454 23.454 0 0 0 15.85 2.971c11.98-1.984 20.33-12.684 19.66-24.539Z" clip-rule="evenodd"/></g></g><g id="Heavy-S"><g id="Solid / Update Solid_20"><path id="Shape_20" fill="#000" fill-rule="evenodd" d="M2633 698.5c20.71 0 37.5-16.789 37.5-37.5s-16.79-37.5-37.5-37.5-37.5 16.789-37.5 37.5 16.79 37.5 37.5 37.5Zm12-57.753-.95-3.613c-.41-1.446.38-2.963 1.83-3.373 1.44-.41 2.96.379 3.37 1.825l2.97 10.497c.49 1.638-.5 3.329-2.15 3.67l-10.12 2.016c-1.47.353-2.9-.58-3.25-2.041-.24-.669-.1-1.314.23-1.89.36-.611.99-1.112 1.77-1.286l4-.86a18.033 18.033 0 0 0-12.66-2.573c-9.22 1.527-15.66 9.765-15.14 18.887a2.707 2.707 0 0 1-2.55 2.858 2.715 2.715 0 0 1-2.86-2.549c-.67-11.855 7.68-22.555 19.66-24.54 5.7-.943 11.25.243 15.85 2.972Zm11.51 18.939a2.715 2.715 0 0 0-2.86-2.55 2.708 2.708 0 0 0-2.55 2.858c.52 9.122-5.92 17.36-15.14 18.887-4.57.758-9.03-.267-12.66-2.572l4-.861a2.765 2.765 0 0 0 1.77-1.286c.33-.576.47-1.22.23-1.889-.35-1.461-1.78-2.395-3.25-2.041l-10.12 2.015c-1.65.341-2.64 2.032-2.15 3.67l2.97 10.497c.41 1.446 1.93 2.236 3.37 1.825 1.45-.41 2.24-1.927 1.83-3.373l-.95-3.612a23.454 23.454 0 0 0 15.85 2.971c11.98-1.984 20.33-12.684 19.66-24.539Z" clip-rule="evenodd"/></g></g><g id="Bold-S"><g id="Solid / Update Solid_21"><path id="Shape_21" fill="#000" fill-rule="evenodd" d="M2337 698.5c20.71 0 37.5-16.789 37.5-37.5s-16.79-37.5-37.5-37.5-37.5 16.789-37.5 37.5 16.79 37.5 37.5 37.5Zm12-57.753-.95-3.613c-.41-1.446.38-2.963 1.83-3.373 1.44-.41 2.96.379 3.37 1.825l2.97 10.497c.49 1.638-.5 3.329-2.15 3.67l-10.12 2.016c-1.47.353-2.9-.58-3.25-2.041-.24-.669-.1-1.314.23-1.89.36-.611.99-1.112 1.77-1.286l4-.86a18.033 18.033 0 0 0-12.66-2.573c-9.22 1.527-15.66 9.765-15.14 18.887a2.707 2.707 0 0 1-2.55 2.858 2.715 2.715 0 0 1-2.86-2.549c-.67-11.855 7.68-22.555 19.66-24.54 5.7-.943 11.25.243 15.85 2.972Zm11.51 18.939a2.715 2.715 0 0 0-2.86-2.55 2.708 2.708 0 0 0-2.55 2.858c.52 9.122-5.92 17.36-15.14 18.887-4.57.758-9.03-.267-12.66-2.572l4-.861a2.765 2.765 0 0 0 1.77-1.286c.33-.576.47-1.22.23-1.889-.35-1.461-1.78-2.395-3.25-2.041l-10.12 2.015c-1.65.341-2.64 2.032-2.15 3.67l2.97 10.497c.41 1.446 1.93 2.236 3.37 1.825 1.45-.41 2.24-1.927 1.83-3.373l-.95-3.612a23.454 23.454 0 0 0 15.85 2.971c11.98-1.984 20.33-12.684 19.66-24.539Z" clip-rule="evenodd"/></g></g><g id="Semibold-S"><g id="Solid / Update Solid_22"><path id="Shape_22" fill="#000" fill-rule="evenodd" d="M2041 698.5c20.71 0 37.5-16.789 37.5-37.5s-16.79-37.5-37.5-37.5-37.5 16.789-37.5 37.5 16.79 37.5 37.5 37.5Zm12-57.753-.95-3.613c-.41-1.446.38-2.963 1.83-3.373 1.44-.41 2.96.379 3.37 1.825l2.97 10.497c.49 1.638-.5 3.329-2.15 3.67l-10.12 2.016c-1.47.353-2.9-.58-3.25-2.041-.24-.669-.1-1.314.23-1.89.36-.611.99-1.112 1.77-1.286l4-.86a18.033 18.033 0 0 0-12.66-2.573c-9.22 1.527-15.66 9.765-15.14 18.887a2.707 2.707 0 0 1-2.55 2.858 2.715 2.715 0 0 1-2.86-2.549c-.67-11.855 7.68-22.555 19.66-24.54 5.7-.943 11.25.243 15.85 2.972Zm11.51 18.939a2.715 2.715 0 0 0-2.86-2.55 2.708 2.708 0 0 0-2.55 2.858c.52 9.122-5.92 17.36-15.14 18.887-4.57.758-9.03-.267-12.66-2.572l4-.861a2.765 2.765 0 0 0 1.77-1.286c.33-.576.47-1.22.23-1.889-.35-1.461-1.78-2.395-3.25-2.041l-10.12 2.015c-1.65.341-2.64 2.032-2.15 3.67l2.97 10.497c.41 1.446 1.93 2.236 3.37 1.825 1.45-.41 2.24-1.927 1.83-3.373l-.95-3.612a23.454 23.454 0 0 0 15.85 2.971c11.98-1.984 20.33-12.684 19.66-24.539Z" clip-rule="evenodd"/></g></g><g id="Medium-S"><g id="Solid / Update Solid_23"><path id="Shape_23" fill="#000" fill-rule="evenodd" d="M1745 698.5c20.71 0 37.5-16.789 37.5-37.5s-16.79-37.5-37.5-37.5-37.5 16.789-37.5 37.5 16.79 37.5 37.5 37.5Zm12-57.753-.95-3.613c-.41-1.446.38-2.963 1.83-3.373 1.44-.41 2.96.379 3.37 1.825l2.97 10.497c.49 1.638-.5 3.329-2.15 3.67l-10.12 2.016c-1.47.353-2.9-.58-3.25-2.041-.24-.669-.1-1.314.23-1.89.36-.611.99-1.112 1.77-1.286l4-.86a18.033 18.033 0 0 0-12.66-2.573c-9.22 1.527-15.66 9.765-15.14 18.887a2.707 2.707 0 0 1-2.55 2.858 2.715 2.715 0 0 1-2.86-2.549c-.67-11.855 7.68-22.555 19.66-24.54 5.7-.943 11.25.243 15.85 2.972Zm11.51 18.939a2.715 2.715 0 0 0-2.86-2.55 2.708 2.708 0 0 0-2.55 2.858c.52 9.122-5.92 17.36-15.14 18.887-4.57.758-9.03-.267-12.66-2.572l4-.861a2.765 2.765 0 0 0 1.77-1.286c.33-.576.47-1.22.23-1.889-.35-1.461-1.78-2.395-3.25-2.041l-10.12 2.015c-1.65.341-2.64 2.032-2.15 3.67l2.97 10.497c.41 1.446 1.93 2.236 3.37 1.825 1.45-.41 2.24-1.927 1.83-3.373l-.95-3.612a23.454 23.454 0 0 0 15.85 2.971c11.98-1.984 20.33-12.684 19.66-24.539Z" clip-rule="evenodd"/></g></g><g id="Regular-S"><g id="Solid / Update Solid_24"><path id="Shape_24" fill="#000" fill-rule="evenodd" d="M1449 698.5c20.71 0 37.5-16.789 37.5-37.5s-16.79-37.5-37.5-37.5-37.5 16.789-37.5 37.5 16.79 37.5 37.5 37.5Zm12-57.753-.95-3.613c-.41-1.446.38-2.963 1.83-3.373 1.44-.41 2.96.379 3.37 1.825l2.97 10.497c.49 1.638-.5 3.329-2.15 3.67l-10.12 2.016c-1.47.353-2.9-.58-3.25-2.041-.24-.669-.1-1.314.23-1.89.36-.611.99-1.112 1.77-1.286l4-.86a18.033 18.033 0 0 0-12.66-2.573c-9.22 1.527-15.66 9.765-15.14 18.887a2.707 2.707 0 0 1-2.55 2.858 2.715 2.715 0 0 1-2.86-2.549c-.67-11.855 7.68-22.555 19.66-24.54 5.7-.943 11.25.243 15.85 2.972Zm11.51 18.939a2.715 2.715 0 0 0-2.86-2.55 2.708 2.708 0 0 0-2.55 2.858c.52 9.122-5.92 17.36-15.14 18.887-4.57.758-9.03-.267-12.66-2.572l4-.861a2.765 2.765 0 0 0 1.77-1.286c.33-.576.47-1.22.23-1.889-.35-1.461-1.78-2.395-3.25-2.041l-10.12 2.015c-1.65.341-2.64 2.032-2.15 3.67l2.97 10.497c.41 1.446 1.93 2.236 3.37 1.825 1.45-.41 2.24-1.927 1.83-3.373l-.95-3.612a23.454 23.454 0 0 0 15.85 2.971c11.98-1.984 20.33-12.684 19.66-24.539Z" clip-rule="evenodd"/></g></g><g id="Light-S"><g id="Solid / Update Solid_25"><path id="Shape_25" fill="#000" fill-rule="evenodd" d="M1153 698.5c20.71 0 37.5-16.789 37.5-37.5s-16.79-37.5-37.5-37.5-37.5 16.789-37.5 37.5 16.79 37.5 37.5 37.5Zm12-57.753-.95-3.613c-.41-1.446.38-2.963 1.83-3.373 1.44-.41 2.96.379 3.37 1.825l2.97 10.497c.49 1.638-.5 3.329-2.15 3.67l-10.12 2.016c-1.47.353-2.9-.58-3.25-2.041-.24-.669-.1-1.314.23-1.89.36-.611.99-1.112 1.77-1.286l4-.86a18.033 18.033 0 0 0-12.66-2.573c-9.22 1.527-15.66 9.765-15.14 18.887a2.707 2.707 0 0 1-2.55 2.858 2.715 2.715 0 0 1-2.86-2.549c-.67-11.855 7.68-22.555 19.66-24.54 5.7-.943 11.25.243 15.85 2.972Zm11.51 18.939a2.715 2.715 0 0 0-2.86-2.55 2.708 2.708 0 0 0-2.55 2.858c.52 9.122-5.92 17.36-15.14 18.887-4.57.758-9.03-.267-12.66-2.572l4-.861a2.765 2.765 0 0 0 1.77-1.286c.33-.576.47-1.22.23-1.889-.35-1.461-1.78-2.395-3.25-2.041l-10.12 2.015c-1.65.341-2.64 2.032-2.15 3.67l2.97 10.497c.41 1.446 1.93 2.236 3.37 1.825 1.45-.41 2.24-1.927 1.83-3.373l-.95-3.612a23.454 23.454 0 0 0 15.85 2.971c11.98-1.984 20.33-12.684 19.66-24.539Z" clip-rule="evenodd"/></g></g><g id="Thin-S"><g id="Solid / Update Solid_26"><path id="Shape_26" fill="#000" fill-rule="evenodd" d="M857 698.5c20.711 0 37.5-16.789 37.5-37.5s-16.789-37.5-37.5-37.5-37.5 16.789-37.5 37.5 16.789 37.5 37.5 37.5Zm12.001-57.753-.949-3.613c-.411-1.446.379-2.963 1.825-3.373 1.446-.41 2.963.379 3.373 1.825l2.966 10.497c.491 1.638-.497 3.329-2.144 3.67l-10.127 2.016c-1.461.353-2.894-.58-3.247-2.041-.237-.669-.101-1.314.235-1.89a2.756 2.756 0 0 1 1.764-1.286l4.008-.86a18.05 18.05 0 0 0-12.667-2.573c-9.22 1.527-15.657 9.765-15.137 18.887a2.708 2.708 0 1 1-5.408.309c-.676-11.855 7.68-22.555 19.659-24.54a23.453 23.453 0 0 1 15.849 2.972Zm11.506 18.939a2.71 2.71 0 0 0-5.408.308c.52 9.122-5.917 17.36-15.137 18.887a18.056 18.056 0 0 1-12.667-2.572l4.008-.861a2.752 2.752 0 0 0 1.764-1.286c.337-.576.472-1.22.235-1.889-.353-1.461-1.786-2.395-3.247-2.041l-10.127 2.015c-1.647.341-2.635 2.032-2.143 3.67l2.965 10.497c.41 1.446 1.928 2.236 3.373 1.825 1.446-.41 2.236-1.927 1.825-3.373l-.948-3.612a23.453 23.453 0 0 0 15.847 2.971c11.98-1.984 20.335-12.684 19.66-24.539Z" clip-rule="evenodd"/></g></g><g id="Ultralight-S"><g id="Solid / Update Solid_27"><path id="Shape_27" fill="#000" fill-rule="evenodd" d="M561 698.5c20.711 0 37.5-16.789 37.5-37.5s-16.789-37.5-37.5-37.5-37.5 16.789-37.5 37.5 16.789 37.5 37.5 37.5Zm12.001-57.753-.949-3.613c-.411-1.446.379-2.963 1.825-3.373 1.446-.41 2.963.379 3.373 1.825l2.966 10.497c.491 1.638-.497 3.329-2.144 3.67l-10.127 2.016c-1.461.353-2.894-.58-3.247-2.041-.237-.669-.101-1.314.235-1.89a2.756 2.756 0 0 1 1.764-1.286l4.008-.86a18.05 18.05 0 0 0-12.667-2.573c-9.22 1.527-15.657 9.765-15.137 18.887a2.708 2.708 0 1 1-5.408.309c-.676-11.855 7.68-22.555 19.659-24.54a23.453 23.453 0 0 1 15.849 2.972Zm11.506 18.939a2.71 2.71 0 0 0-5.408.308c.52 9.122-5.917 17.36-15.137 18.887a18.056 18.056 0 0 1-12.667-2.572l4.008-.861a2.752 2.752 0 0 0 1.764-1.286c.337-.576.472-1.22.235-1.889-.353-1.461-1.786-2.395-3.247-2.041l-10.127 2.015c-1.647.341-2.635 2.032-2.143 3.67l2.965 10.497c.41 1.446 1.928 2.236 3.373 1.825 1.446-.41 2.236-1.927 1.825-3.373l-.948-3.612a23.453 23.453 0 0 0 15.847 2.971c11.98-1.984 20.335-12.684 19.66-24.539Z" clip-rule="evenodd"/></g></g></g></g><defs><clipPath id="clip0_805_27002"><path fill="#fff" d="M0 0h3300v2200H0z"/></clipPath></defs></svg>