<svg width="3300" height="2200" viewBox="0 0 3300 2200" fill="none" xmlns="http://www.w3.org/2000/svg">
<rect width="3300" height="2200" fill="#E5E5E5"/>
<g id="Category / Outline / Diamond" clip-path="url(#clip0_0_1)">
<g id="Notes">
<path id="artboard" d="M3300 0H0V2200H3300V0Z" fill="white"/>
<path id="Vector" d="M263 292H3036" stroke="black" stroke-width="0.5"/>
<text id="Weight/Scale Variations" fill="black" xml:space="preserve" style="white-space: pre" font-family="Roboto" font-size="12" letter-spacing="0em"><tspan x="263" y="321.102">Weight/Scale Variations</tspan></text>
<text id="Ultralight" fill="black" xml:space="preserve" style="white-space: pre" font-family="Roboto" font-size="12" letter-spacing="0em"><tspan x="535.211" y="321.102">Ultralight</tspan></text>
<text id="Thin" fill="black" xml:space="preserve" style="white-space: pre" font-family="Roboto" font-size="12" letter-spacing="0em"><tspan x="844.422" y="321.102">Thin</tspan></text>
<text id="Light" fill="black" xml:space="preserve" style="white-space: pre" font-family="Roboto" font-size="12" letter-spacing="0em"><tspan x="1139.63" y="321.102">Light</tspan></text>
<text id="Regular" fill="black" xml:space="preserve" style="white-space: pre" font-family="Roboto" font-size="12" letter-spacing="0em"><tspan x="1429.34" y="321.102">Regular</tspan></text>
<text id="Medium" fill="black" xml:space="preserve" style="white-space: pre" font-family="Roboto" font-size="12" letter-spacing="0em"><tspan x="1724.56" y="321.102">Medium</tspan></text>
<text id="Semibold" fill="black" xml:space="preserve" style="white-space: pre" font-family="Roboto" font-size="12" letter-spacing="0em"><tspan x="2017.77" y="321.102">Semibold</tspan></text>
<text id="Bold" fill="black" xml:space="preserve" style="white-space: pre" font-family="Roboto" font-size="12" letter-spacing="0em"><tspan x="2327.48" y="321.102">Bold</tspan></text>
<text id="Heavy" fill="black" xml:space="preserve" style="white-space: pre" font-family="Roboto" font-size="12" letter-spacing="0em"><tspan x="2620.19" y="321.102">Heavy</tspan></text>
<text id="Black" fill="black" xml:space="preserve" style="white-space: pre" font-family="Roboto" font-size="12" letter-spacing="0em"><tspan x="2918.4" y="321.102">Black</tspan></text>
<path id="Vector_2" d="M263 1903H3036" stroke="black" stroke-width="0.5"/>
<g id="Group">
<path id="Vector_3" d="M272.248 1933.83C276.555 1933.83 280.139 1930.26 280.139 1925.95C280.139 1921.64 276.545 1918.07 272.238 1918.07C267.941 1918.07 264.367 1921.64 264.367 1925.95C264.367 1930.26 267.951 1933.83 272.248 1933.83ZM272.248 1932.35C268.703 1932.35 265.871 1929.51 265.871 1925.95C265.871 1922.4 268.693 1919.55 272.238 1919.55C275.793 1919.55 278.635 1922.4 278.644 1925.95C278.654 1929.51 275.803 1932.35 272.248 1932.35ZM272.229 1929.57C272.697 1929.57 272.971 1929.26 272.971 1928.74V1926.68H275.197C275.695 1926.68 276.037 1926.43 276.037 1925.96C276.037 1925.48 275.715 1925.22 275.197 1925.22H272.971V1922.99C272.971 1922.47 272.697 1922.15 272.229 1922.15C271.76 1922.15 271.506 1922.49 271.506 1922.99V1925.22H269.299C268.781 1925.22 268.449 1925.48 268.449 1925.96C268.449 1926.43 268.801 1926.68 269.299 1926.68H271.506V1928.74C271.506 1929.24 271.76 1929.57 272.229 1929.57Z" fill="black"/>
</g>
<g id="Group_2">
<path id="Vector_4" d="M293.215 1935.91C298.664 1935.91 303.176 1931.4 303.176 1925.95C303.176 1920.51 298.654 1915.99 293.205 1915.99C287.766 1915.99 283.254 1920.51 283.254 1925.95C283.254 1931.4 287.775 1935.91 293.215 1935.91ZM293.215 1934.25C288.605 1934.25 284.924 1930.56 284.924 1925.95C284.924 1921.35 288.596 1917.65 293.205 1917.65C297.814 1917.65 301.506 1921.35 301.516 1925.95C301.525 1930.56 297.824 1934.25 293.215 1934.25ZM293.195 1930.59C293.713 1930.59 294.025 1930.23 294.025 1929.66V1926.77H297.082C297.629 1926.77 298.01 1926.49 298.01 1925.97C298.01 1925.44 297.648 1925.14 297.082 1925.14H294.025V1922.07C294.025 1921.5 293.713 1921.14 293.195 1921.14C292.678 1921.14 292.385 1921.52 292.385 1922.07V1925.14H289.338C288.771 1925.14 288.4 1925.44 288.4 1925.97C288.4 1926.49 288.791 1926.77 289.338 1926.77H292.385V1929.66C292.385 1930.21 292.678 1930.59 293.195 1930.59Z" fill="black"/>
</g>
<g id="Group_3">
<path id="Vector_5" d="M319.895 1938.67C326.857 1938.67 332.619 1932.92 332.619 1925.96C332.619 1918.99 326.848 1913.24 319.885 1913.24C312.932 1913.24 307.18 1918.99 307.18 1925.96C307.18 1932.92 312.941 1938.67 319.895 1938.67ZM319.895 1936.86C313.859 1936.86 309.006 1931.99 309.006 1925.96C309.006 1919.92 313.85 1915.06 319.885 1915.06C325.93 1915.06 330.783 1919.92 330.793 1925.96C330.803 1931.99 325.939 1936.86 319.895 1936.86ZM319.875 1931.93C320.441 1931.93 320.793 1931.54 320.793 1930.94V1926.87H325.031C325.617 1926.87 326.037 1926.53 326.037 1925.98C326.037 1925.4 325.647 1925.06 325.031 1925.06H320.793V1920.81C320.793 1920.2 320.441 1919.8 319.875 1919.8C319.309 1919.8 318.986 1920.21 318.986 1920.81V1925.06H314.758C314.143 1925.06 313.732 1925.4 313.732 1925.98C313.732 1926.53 314.162 1926.87 314.758 1926.87H318.986V1930.94C318.986 1931.52 319.309 1931.93 319.875 1931.93Z" fill="black"/>
</g>
<text id="Design Variations" fill="black" xml:space="preserve" style="white-space: pre" font-family="Roboto" font-size="12" letter-spacing="0em"><tspan x="263" y="1952.1">Design Variations</tspan></text>
<text id="Symbols are supported in up to nine weights and three scales." fill="black" xml:space="preserve" style="white-space: pre" font-family="Roboto" font-size="12" letter-spacing="0em"><tspan x="263" y="1970.1">Symbols are supported in up to nine weights and three scales.</tspan></text>
<text id="For optimal layout with text and other symbols, vertically align" fill="black" xml:space="preserve" style="white-space: pre" font-family="Roboto" font-size="12" letter-spacing="0em"><tspan x="263" y="1988.1">For optimal layout with text and other symbols, vertically align</tspan></text>
<text id="symbols with the adjacent text." fill="black" xml:space="preserve" style="white-space: pre" font-family="Roboto" font-size="12" letter-spacing="0em"><tspan x="263" y="2006.1">symbols with the adjacent text.</tspan></text>
<path id="Vector_6" opacity="0.4" d="M779 1919H776V1933H779V1919Z" fill="#00AEEF"/>
<g id="Group_4">
<path id="Vector_7" d="M789.527 1933H791.373L786.178 1918.91H784.439L779.244 1933H781.09L782.506 1928.96H788.111L789.527 1933ZM785.279 1921.04H785.338L787.594 1927.47H783.023L785.279 1921.04Z" fill="black"/>
</g>
<path id="Vector_8" opacity="0.4" d="M794.617 1919H791.617V1933H794.617V1919Z" fill="#00AEEF"/>
<text id="Margins" fill="black" xml:space="preserve" style="white-space: pre" font-family="Roboto" font-size="12" letter-spacing="0em"><tspan x="776" y="1952.1">Margins</tspan></text>
<text id="Leading and trailing margins on the left and right side of each symbol" fill="black" xml:space="preserve" style="white-space: pre" font-family="Roboto" font-size="12" letter-spacing="0em"><tspan x="776" y="1970.1">Leading and trailing margins on the left and right side of each symbol</tspan></text>
<text id="can be adjusted by modifying the width of the blue rectangles." fill="black" xml:space="preserve" style="white-space: pre" font-family="Roboto" font-size="12" letter-spacing="0em"><tspan x="776" y="1988.1">can be adjusted by modifying the width of the blue rectangles.</tspan></text>
<text id="Modifications are automatically applied proportionally to all" fill="black" xml:space="preserve" style="white-space: pre" font-family="Roboto" font-size="12" letter-spacing="0em"><tspan x="776" y="2006.1">Modifications are automatically applied proportionally to all</tspan></text>
<text id="scales and weights." fill="black" xml:space="preserve" style="white-space: pre" font-family="Roboto" font-size="12" letter-spacing="0em"><tspan x="776" y="2024.1">scales and weights.</tspan></text>
<g id="Group_5">
<path id="Vector_9" d="M1291.83 1936.11L1293.37 1937.66C1294.22 1938.49 1295.19 1938.42 1296.06 1937.46L1306.27 1926.34C1306.7 1926.63 1307.1 1926.62 1307.56 1926.52L1308.61 1926.31L1309.3 1927L1309.25 1927.52C1309.19 1928.05 1309.35 1928.47 1309.85 1928.97L1310.66 1929.78C1311.17 1930.28 1311.82 1930.31 1312.3 1929.83L1315.55 1926.58C1316.03 1926.1 1316.01 1925.45 1315.5 1924.94L1314.68 1924.12C1314.19 1923.62 1313.77 1923.45 1313.24 1923.53L1312.71 1923.58L1312.06 1922.92L1312.34 1921.78C1312.49 1921.21 1312.34 1920.74 1311.71 1920.14L1309.3 1917.75C1305.76 1914.22 1301.23 1914.33 1298.11 1917.46C1297.69 1917.89 1297.64 1918.48 1297.92 1918.91C1298.15 1919.28 1298.63 1919.5 1299.27 1919.34C1300.79 1918.96 1302.3 1919.07 1303.78 1920.08L1303.16 1921.66C1302.93 1922.25 1302.94 1922.73 1303.18 1923.16L1292.02 1933.44C1291.08 1934.31 1290.97 1935.25 1291.83 1936.11ZM1299.67 1917.85C1302.34 1915.86 1305.65 1916.17 1308.05 1918.58L1310.68 1921.19C1310.91 1921.43 1310.94 1921.61 1310.88 1921.91L1310.5 1923.47L1312.08 1925.04L1313.04 1924.95C1313.33 1924.92 1313.41 1924.94 1313.64 1925.17L1314.26 1925.79L1311.51 1928.54L1310.88 1927.92C1310.66 1927.7 1310.64 1927.6 1310.67 1927.32L1310.76 1926.36L1309.19 1924.8L1307.57 1925.11C1307.29 1925.17 1307.14 1925.17 1306.91 1924.92L1304.73 1922.75C1304.51 1922.51 1304.48 1922.37 1304.61 1922.05L1305.55 1919.78C1303.95 1918.24 1301.84 1917.39 1299.8 1918.05C1299.71 1918.08 1299.64 1918.06 1299.61 1918.02C1299.59 1917.97 1299.59 1917.92 1299.67 1917.85ZM1293.1 1935.41C1292.61 1934.91 1292.79 1934.61 1293.12 1934.31L1304.08 1924.19L1305.31 1925.42L1295.15 1936.35C1294.85 1936.68 1294.47 1936.78 1294.07 1936.38L1293.1 1935.41Z" fill="black"/>
</g>
<text id="Exporting" fill="black" xml:space="preserve" style="white-space: pre" font-family="Roboto" font-size="12" letter-spacing="0em"><tspan x="1289" y="1952.1">Exporting</tspan></text>
<text id="Symbols should be outlined when exporting to ensure the" fill="black" xml:space="preserve" style="white-space: pre" font-family="Roboto" font-size="12" letter-spacing="0em"><tspan x="1289" y="1970.1">Symbols should be outlined when exporting to ensure the</tspan></text>
<text id="design is preserved when submitting to Xcode." fill="black" xml:space="preserve" style="white-space: pre" font-family="Roboto" font-size="12" letter-spacing="0em"><tspan x="1289" y="1988.1">design is preserved when submitting to Xcode.</tspan></text>
<text id="template-version" fill="black" xml:space="preserve" style="white-space: pre" font-family="Roboto" font-size="12" letter-spacing="0em"><tspan x="2958" y="1932.1">Template v.1.0</tspan></text>
<text id="Generated from pencil.circle" fill="black" xml:space="preserve" style="white-space: pre" font-family="Roboto" font-size="12" letter-spacing="0em"><tspan x="2885" y="1950.1">Generated from pencil.circle</tspan></text>
<text id="Typeset at 100 points" fill="black" xml:space="preserve" style="white-space: pre" font-family="Roboto" font-size="12" letter-spacing="0em"><tspan x="2921" y="1968.1">Typeset at 100 points</tspan></text>
<text id="Small" fill="black" xml:space="preserve" style="white-space: pre" font-family="Roboto" font-size="12" letter-spacing="0em"><tspan x="263" y="725.102">Small</tspan></text>
<text id="Medium_2" fill="black" xml:space="preserve" style="white-space: pre" font-family="Roboto" font-size="12" letter-spacing="0em"><tspan x="263" y="1155.1">Medium</tspan></text>
<text id="Large" fill="black" xml:space="preserve" style="white-space: pre" font-family="Roboto" font-size="12" letter-spacing="0em"><tspan x="263" y="1585.1">Large</tspan></text>
</g>
<g id="Guides">
<g id="H-reference">
<path id="Vector_10" d="M393.932 695.998H396.666L369.566 625.539H367.076L339.977 695.998H342.662L351.94 671.535H384.703L393.932 695.998ZM368.199 628.908H368.443L383.824 669.289H352.818L368.199 628.908Z" fill="#27AAE1"/>
</g>
<path id="Baseline-S" d="M263 696H3036" stroke="#27AAE1" stroke-width="0.577"/>
<path id="Capline-S" d="M263 626H3036" stroke="#27AAE1" stroke-width="0.577"/>
<g id="H-reference_2">
<path id="Vector_11" d="M393.932 1126H396.666L369.566 1055.54H367.076L339.977 1126H342.662L351.94 1101.54H384.703L393.932 1126ZM368.199 1058.91H368.443L383.824 1099.29H352.818L368.199 1058.91Z" fill="#27AAE1"/>
</g>
<path id="Baseline-M" d="M263 1126H3036" stroke="#27AAE1" stroke-width="0.577"/>
<path id="Capline-M" d="M263 1056H3036" stroke="#27AAE1" stroke-width="0.577"/>
<g id="H-reference_3">
<path id="Vector_12" d="M393.932 1556H396.666L369.566 1485.54H367.076L339.977 1556H342.662L351.94 1531.54H384.703L393.932 1556ZM368.199 1488.91H368.443L383.824 1529.29H352.818L368.199 1488.91Z" fill="#27AAE1"/>
</g>
<g id="Group 1">
<path id="Baseline-L" d="M263 1556H3036" stroke="#27AAE1" stroke-width="0.577"/>
<path id="Capline-L" d="M263 1486H3036" stroke="#27AAE1" stroke-width="0.577"/>
</g>
<path id="left-margin" opacity="0.4" d="M1393.04 1030.79H1384.3V1150.12H1393.04V1030.79Z" fill="#00AEEF"/>
<path id="right-margin" opacity="0.4" d="M1514.39 1030.79H1505.65V1150.12H1514.39V1030.79Z" fill="#00AEEF"/>
</g>
<g id="Symbols">
<g id="Black-L">
<g id="Outline / Diamond Outline">
<path id="Shape" fill-rule="evenodd" clip-rule="evenodd" d="M2888.38 1464.33C2890.23 1462.21 2892.91 1461 2895.72 1461H2962.15C2964.95 1461 2967.62 1462.21 2969.47 1464.32L2998.33 1497.17C3001.58 1500.86 3001.57 1506.39 2998.32 1510.06L2936.31 1580.23C2932.43 1584.62 2925.58 1584.62 2921.7 1580.23L2859.68 1510.05C2856.43 1506.38 2856.42 1500.87 2859.65 1497.18L2888.38 1464.33ZM2929.1 1470.75H2929.19L2950.41 1498.4H2907.88L2929.1 1470.75ZM2916.81 1470.75H2895.72L2871.53 1498.4H2895.59L2916.81 1470.75ZM2896.15 1508.15H2871.01L2912.77 1555.41L2896.15 1508.15ZM2929.14 1572.58L2951.8 1508.15H2906.49L2929.14 1572.58ZM2962.7 1498.4L2941.48 1470.75H2962.15L2986.43 1498.4H2962.7ZM2962.13 1508.15L2945.7 1554.88L2987 1508.15H2962.13Z" fill="black"/>
</g>
</g>
<g id="Heavy-L">
<g id="Outline / Diamond Outline_2">
<path id="Shape_2" fill-rule="evenodd" clip-rule="evenodd" d="M2592.38 1464.33C2594.23 1462.21 2596.91 1461 2599.72 1461H2666.15C2668.95 1461 2671.62 1462.21 2673.47 1464.32L2702.33 1497.17C2705.58 1500.86 2705.57 1506.39 2702.32 1510.06L2640.31 1580.23C2636.43 1584.62 2629.58 1584.62 2625.7 1580.23L2563.68 1510.05C2560.43 1506.38 2560.42 1500.87 2563.65 1497.18L2592.38 1464.33ZM2633.1 1470.75H2633.19L2654.41 1498.4H2611.88L2633.1 1470.75ZM2620.81 1470.75H2599.72L2575.53 1498.4H2599.59L2620.81 1470.75ZM2600.15 1508.15H2575.01L2616.77 1555.41L2600.15 1508.15ZM2633.14 1572.58L2655.8 1508.15H2610.49L2633.14 1572.58ZM2666.7 1498.4L2645.48 1470.75H2666.15L2690.43 1498.4H2666.7ZM2666.13 1508.15L2649.7 1554.88L2691 1508.15H2666.13Z" fill="black"/>
</g>
</g>
<g id="Bold-L">
<g id="Outline / Diamond Outline_3">
<path id="Shape_3" fill-rule="evenodd" clip-rule="evenodd" d="M2296.38 1464.33C2298.23 1462.21 2300.91 1461 2303.72 1461H2370.15C2372.95 1461 2375.62 1462.21 2377.47 1464.32L2406.33 1497.17C2409.58 1500.86 2409.57 1506.39 2406.32 1510.06L2344.31 1580.23C2340.43 1584.62 2333.58 1584.62 2329.7 1580.23L2267.68 1510.05C2264.43 1506.38 2264.42 1500.87 2267.65 1497.18L2296.38 1464.33ZM2337.1 1470.75H2337.19L2358.41 1498.4H2315.88L2337.1 1470.75ZM2324.81 1470.75H2303.72L2279.53 1498.4H2303.59L2324.81 1470.75ZM2304.15 1508.15H2279.01L2320.77 1555.41L2304.15 1508.15ZM2337.14 1572.58L2359.8 1508.15H2314.49L2337.14 1572.58ZM2370.7 1498.4L2349.48 1470.75H2370.15L2394.43 1498.4H2370.7ZM2370.13 1508.15L2353.7 1554.88L2395 1508.15H2370.13Z" fill="black"/>
</g>
</g>
<g id="Semibold-L">
<g id="Outline / Diamond Outline_4">
<path id="Shape_4" fill-rule="evenodd" clip-rule="evenodd" d="M2000.38 1464.33C2002.23 1462.21 2004.91 1461 2007.72 1461H2074.15C2076.95 1461 2079.62 1462.21 2081.47 1464.32L2110.33 1497.17C2113.58 1500.86 2113.57 1506.39 2110.32 1510.06L2048.31 1580.23C2044.43 1584.62 2037.58 1584.62 2033.7 1580.23L1971.68 1510.05C1968.43 1506.38 1968.42 1500.87 1971.65 1497.18L2000.38 1464.33ZM2041.1 1470.75H2041.19L2062.41 1498.4H2019.88L2041.1 1470.75ZM2028.81 1470.75H2007.72L1983.53 1498.4H2007.59L2028.81 1470.75ZM2008.15 1508.15H1983.01L2024.77 1555.41L2008.15 1508.15ZM2041.14 1572.58L2063.8 1508.15H2018.49L2041.14 1572.58ZM2074.7 1498.4L2053.48 1470.75H2074.15L2098.43 1498.4H2074.7ZM2074.13 1508.15L2057.7 1554.88L2099 1508.15H2074.13Z" fill="black"/>
</g>
</g>
<g id="Medium-L">
<g id="Outline / Diamond Outline_5">
<path id="Shape_5" fill-rule="evenodd" clip-rule="evenodd" d="M1704.38 1464.33C1706.23 1462.21 1708.91 1461 1711.72 1461H1778.15C1780.95 1461 1783.62 1462.21 1785.47 1464.32L1814.33 1497.17C1817.58 1500.86 1817.57 1506.39 1814.32 1510.06L1752.31 1580.23C1748.43 1584.62 1741.58 1584.62 1737.7 1580.23L1675.68 1510.05C1672.43 1506.38 1672.42 1500.87 1675.65 1497.18L1704.38 1464.33ZM1745.1 1470.75H1745.19L1766.41 1498.4H1723.88L1745.1 1470.75ZM1732.81 1470.75H1711.72L1687.53 1498.4H1711.59L1732.81 1470.75ZM1712.15 1508.15H1687.01L1728.77 1555.41L1712.15 1508.15ZM1745.14 1572.58L1767.8 1508.15H1722.49L1745.14 1572.58ZM1778.7 1498.4L1757.48 1470.75H1778.15L1802.43 1498.4H1778.7ZM1778.13 1508.15L1761.7 1554.88L1803 1508.15H1778.13Z" fill="black"/>
</g>
</g>
<g id="Regular-L">
<g id="Outline / Diamond Outline_6">
<path id="Shape_6" fill-rule="evenodd" clip-rule="evenodd" d="M1408.38 1464.33C1410.23 1462.21 1412.91 1461 1415.72 1461H1482.15C1484.95 1461 1487.62 1462.21 1489.47 1464.32L1518.33 1497.17C1521.58 1500.86 1521.57 1506.39 1518.32 1510.06L1456.31 1580.23C1452.43 1584.62 1445.58 1584.62 1441.7 1580.23L1379.68 1510.05C1376.43 1506.38 1376.42 1500.87 1379.65 1497.18L1408.38 1464.33ZM1449.1 1470.75H1449.19L1470.41 1498.4H1427.88L1449.1 1470.75ZM1436.81 1470.75H1415.72L1391.53 1498.4H1415.59L1436.81 1470.75ZM1416.15 1508.15H1391.01L1432.77 1555.41L1416.15 1508.15ZM1449.14 1572.58L1471.8 1508.15H1426.49L1449.14 1572.58ZM1482.7 1498.4L1461.48 1470.75H1482.15L1506.43 1498.4H1482.7ZM1482.13 1508.15L1465.7 1554.88L1507 1508.15H1482.13Z" fill="black"/>
</g>
</g>
<g id="Light-L">
<g id="Outline / Diamond Outline_7">
<path id="Shape_7" fill-rule="evenodd" clip-rule="evenodd" d="M1112.38 1464.33C1114.23 1462.21 1116.91 1461 1119.72 1461H1186.15C1188.95 1461 1191.62 1462.21 1193.47 1464.32L1222.33 1497.17C1225.58 1500.86 1225.57 1506.39 1222.32 1510.06L1160.31 1580.23C1156.43 1584.62 1149.58 1584.62 1145.7 1580.23L1083.68 1510.05C1080.43 1506.38 1080.42 1500.87 1083.65 1497.18L1112.38 1464.33ZM1153.1 1470.75H1153.19L1174.41 1498.4H1131.88L1153.1 1470.75ZM1140.81 1470.75H1119.72L1095.53 1498.4H1119.59L1140.81 1470.75ZM1120.15 1508.15H1095.01L1136.77 1555.41L1120.15 1508.15ZM1153.14 1572.58L1175.8 1508.15H1130.49L1153.14 1572.58ZM1186.7 1498.4L1165.48 1470.75H1186.15L1210.43 1498.4H1186.7ZM1186.13 1508.15L1169.7 1554.88L1211 1508.15H1186.13Z" fill="black"/>
</g>
</g>
<g id="Thin-L">
<g id="Outline / Diamond Outline_8">
<path id="Shape_8" fill-rule="evenodd" clip-rule="evenodd" d="M816.38 1464.33C818.232 1462.21 820.907 1461 823.719 1461H890.148C892.953 1461 895.622 1462.21 897.473 1464.32L926.335 1497.17C929.575 1500.86 929.567 1506.39 926.316 1510.06L864.31 1580.23C860.429 1584.62 853.578 1584.62 849.698 1580.23L787.68 1510.05C784.434 1506.38 784.42 1500.87 787.648 1497.18L816.38 1464.33ZM857.099 1470.75H857.191L878.407 1498.4H835.883L857.099 1470.75ZM844.809 1470.75H823.719L799.533 1498.4H823.593L844.809 1470.75ZM824.155 1508.15H799.01L840.773 1555.41L824.155 1508.15ZM857.145 1572.58L879.8 1508.15H834.49L857.145 1572.58ZM890.697 1498.4L869.481 1470.75H890.148L914.433 1498.4H890.697ZM890.135 1508.15L873.703 1554.88L914.998 1508.15H890.135Z" fill="black"/>
</g>
</g>
<g id="Ultralight-L">
<g id="Outline / Diamond Outline_9">
<path id="Shape_9" fill-rule="evenodd" clip-rule="evenodd" d="M520.38 1464.33C522.232 1462.21 524.907 1461 527.719 1461H594.148C596.953 1461 599.622 1462.21 601.473 1464.32L630.335 1497.17C633.575 1500.86 633.567 1506.39 630.316 1510.06L568.31 1580.23C564.429 1584.62 557.578 1584.62 553.698 1580.23L491.68 1510.05C488.434 1506.38 488.42 1500.87 491.648 1497.18L520.38 1464.33ZM561.099 1470.75H561.191L582.407 1498.4H539.883L561.099 1470.75ZM548.809 1470.75H527.719L503.533 1498.4H527.593L548.809 1470.75ZM528.155 1508.15H503.01L544.773 1555.41L528.155 1508.15ZM561.145 1572.58L583.8 1508.15H538.49L561.145 1572.58ZM594.697 1498.4L573.481 1470.75H594.148L618.433 1498.4H594.697ZM594.135 1508.15L577.703 1554.88L618.998 1508.15H594.135Z" fill="black"/>
</g>
</g>
<g id="Black-M">
<g id="Outline / Diamond Outline_10">
<path id="Shape_10" fill-rule="evenodd" clip-rule="evenodd" d="M2897.41 1046.92C2898.85 1045.28 2900.93 1044.33 2903.11 1044.33H2954.78C2956.96 1044.33 2959.04 1045.27 2960.48 1046.91L2982.93 1072.47C2985.45 1075.34 2985.44 1079.63 2982.91 1082.49L2934.69 1137.07C2931.67 1140.48 2926.34 1140.48 2923.32 1137.07L2875.08 1082.48C2872.56 1079.63 2872.55 1075.34 2875.06 1072.47L2897.41 1046.92ZM2929.08 1051.92H2929.15L2945.65 1073.42H2912.58L2929.08 1051.92ZM2919.52 1051.92H2903.11L2884.3 1073.42H2903.02L2919.52 1051.92ZM2903.45 1081H2883.9L2916.38 1117.76L2903.45 1081ZM2929.11 1131.11L2946.73 1081H2911.49L2929.11 1131.11ZM2955.21 1073.42L2938.71 1051.92H2954.78L2973.67 1073.42H2955.21ZM2954.77 1081L2941.99 1117.35L2974.11 1081H2954.77Z" fill="black"/>
</g>
</g>
<g id="Heavy-M">
<g id="Outline / Diamond Outline_11">
<path id="Shape_11" fill-rule="evenodd" clip-rule="evenodd" d="M2601.41 1046.92C2602.85 1045.28 2604.93 1044.33 2607.11 1044.33H2658.78C2660.96 1044.33 2663.04 1045.27 2664.48 1046.91L2686.93 1072.47C2689.45 1075.34 2689.44 1079.63 2686.91 1082.49L2638.69 1137.07C2635.67 1140.48 2630.34 1140.48 2627.32 1137.07L2579.08 1082.48C2576.56 1079.63 2576.55 1075.34 2579.06 1072.47L2601.41 1046.92ZM2633.08 1051.92H2633.15L2649.65 1073.42H2616.58L2633.08 1051.92ZM2623.52 1051.92H2607.11L2588.3 1073.42H2607.02L2623.52 1051.92ZM2607.45 1081H2587.9L2620.38 1117.76L2607.45 1081ZM2633.11 1131.11L2650.73 1081H2615.49L2633.11 1131.11ZM2659.21 1073.42L2642.71 1051.92H2658.78L2677.67 1073.42H2659.21ZM2658.77 1081L2645.99 1117.35L2678.11 1081H2658.77Z" fill="black"/>
</g>
</g>
<g id="Bold-M">
<g id="Outline / Diamond Outline_12">
<path id="Shape_12" fill-rule="evenodd" clip-rule="evenodd" d="M2305.41 1046.92C2306.85 1045.28 2308.93 1044.33 2311.11 1044.33H2362.78C2364.96 1044.33 2367.04 1045.27 2368.48 1046.91L2390.93 1072.47C2393.45 1075.34 2393.44 1079.63 2390.91 1082.49L2342.69 1137.07C2339.67 1140.48 2334.34 1140.48 2331.32 1137.07L2283.08 1082.48C2280.56 1079.63 2280.55 1075.34 2283.06 1072.47L2305.41 1046.92ZM2337.08 1051.92H2337.15L2353.65 1073.42H2320.58L2337.08 1051.92ZM2327.52 1051.92H2311.11L2292.3 1073.42H2311.02L2327.52 1051.92ZM2311.45 1081H2291.9L2324.38 1117.76L2311.45 1081ZM2337.11 1131.11L2354.73 1081H2319.49L2337.11 1131.11ZM2363.21 1073.42L2346.71 1051.92H2362.78L2381.67 1073.42H2363.21ZM2362.77 1081L2349.99 1117.35L2382.11 1081H2362.77Z" fill="black"/>
</g>
</g>
<g id="Semibold-M">
<g id="Outline / Diamond Outline_13">
<path id="Shape_13" fill-rule="evenodd" clip-rule="evenodd" d="M2009.41 1046.92C2010.85 1045.28 2012.93 1044.33 2015.11 1044.33H2066.78C2068.96 1044.33 2071.04 1045.27 2072.48 1046.91L2094.93 1072.47C2097.45 1075.34 2097.44 1079.63 2094.91 1082.49L2046.69 1137.07C2043.67 1140.48 2038.34 1140.48 2035.32 1137.07L1987.08 1082.48C1984.56 1079.63 1984.55 1075.34 1987.06 1072.47L2009.41 1046.92ZM2041.08 1051.92H2041.15L2057.65 1073.42H2024.58L2041.08 1051.92ZM2031.52 1051.92H2015.11L1996.3 1073.42H2015.02L2031.52 1051.92ZM2015.45 1081H1995.9L2028.38 1117.76L2015.45 1081ZM2041.11 1131.11L2058.73 1081H2023.49L2041.11 1131.11ZM2067.21 1073.42L2050.71 1051.92H2066.78L2085.67 1073.42H2067.21ZM2066.77 1081L2053.99 1117.35L2086.11 1081H2066.77Z" fill="black"/>
</g>
</g>
<g id="Medium-M">
<g id="Outline / Diamond Outline_14">
<path id="Shape_14" fill-rule="evenodd" clip-rule="evenodd" d="M1713.41 1046.92C1714.85 1045.28 1716.93 1044.33 1719.11 1044.33H1770.78C1772.96 1044.33 1775.04 1045.27 1776.48 1046.91L1798.93 1072.47C1801.45 1075.34 1801.44 1079.63 1798.91 1082.49L1750.69 1137.07C1747.67 1140.48 1742.34 1140.48 1739.32 1137.07L1691.08 1082.48C1688.56 1079.63 1688.55 1075.34 1691.06 1072.47L1713.41 1046.92ZM1745.08 1051.92H1745.15L1761.65 1073.42H1728.58L1745.08 1051.92ZM1735.52 1051.92H1719.11L1700.3 1073.42H1719.02L1735.52 1051.92ZM1719.45 1081H1699.9L1732.38 1117.76L1719.45 1081ZM1745.11 1131.11L1762.73 1081H1727.49L1745.11 1131.11ZM1771.21 1073.42L1754.71 1051.92H1770.78L1789.67 1073.42H1771.21ZM1770.77 1081L1757.99 1117.35L1790.11 1081H1770.77Z" fill="black"/>
</g>
</g>
<g id="Regular-M">
<g id="Outline / Diamond Outline_15">
<path id="Shape_15" fill-rule="evenodd" clip-rule="evenodd" d="M1417.41 1046.92C1418.85 1045.28 1420.93 1044.33 1423.11 1044.33H1474.78C1476.96 1044.33 1479.04 1045.27 1480.48 1046.91L1502.93 1072.47C1505.45 1075.34 1505.44 1079.63 1502.91 1082.49L1454.69 1137.07C1451.67 1140.48 1446.34 1140.48 1443.32 1137.07L1395.08 1082.48C1392.56 1079.63 1392.55 1075.34 1395.06 1072.47L1417.41 1046.92ZM1449.08 1051.92H1449.15L1465.65 1073.42H1432.58L1449.08 1051.92ZM1439.52 1051.92H1423.11L1404.3 1073.42H1423.02L1439.52 1051.92ZM1423.45 1081H1403.9L1436.38 1117.76L1423.45 1081ZM1449.11 1131.11L1466.73 1081H1431.49L1449.11 1131.11ZM1475.21 1073.42L1458.71 1051.92H1474.78L1493.67 1073.42H1475.21ZM1474.77 1081L1461.99 1117.35L1494.11 1081H1474.77Z" fill="black"/>
</g>
</g>
<g id="Light-M">
<g id="Outline / Diamond Outline_16">
<path id="Shape_16" fill-rule="evenodd" clip-rule="evenodd" d="M1121.41 1046.92C1122.85 1045.28 1124.93 1044.33 1127.11 1044.33H1178.78C1180.96 1044.33 1183.04 1045.27 1184.48 1046.91L1206.93 1072.47C1209.45 1075.34 1209.44 1079.63 1206.91 1082.49L1158.69 1137.07C1155.67 1140.48 1150.34 1140.48 1147.32 1137.07L1099.08 1082.48C1096.56 1079.63 1096.55 1075.34 1099.06 1072.47L1121.41 1046.92ZM1153.08 1051.92H1153.15L1169.65 1073.42H1136.58L1153.08 1051.92ZM1143.52 1051.92H1127.11L1108.3 1073.42H1127.02L1143.52 1051.92ZM1127.45 1081H1107.9L1140.38 1117.76L1127.45 1081ZM1153.11 1131.11L1170.73 1081H1135.49L1153.11 1131.11ZM1179.21 1073.42L1162.71 1051.92H1178.78L1197.67 1073.42H1179.21ZM1178.77 1081L1165.99 1117.35L1198.11 1081H1178.77Z" fill="black"/>
</g>
</g>
<g id="Thin-M">
<g id="Outline / Diamond Outline_17">
<path id="Shape_17" fill-rule="evenodd" clip-rule="evenodd" d="M825.407 1046.92C826.847 1045.28 828.927 1044.33 831.114 1044.33H882.781C884.963 1044.33 887.039 1045.27 888.479 1046.91L910.927 1072.47C913.447 1075.34 913.441 1079.63 910.912 1082.49L862.685 1137.07C859.667 1140.48 854.339 1140.48 851.32 1137.07L803.084 1082.48C800.56 1079.63 800.549 1075.34 803.059 1072.47L825.407 1046.92ZM857.076 1051.92H857.148L873.65 1073.42H840.575L857.076 1051.92ZM847.518 1051.92H831.114L812.303 1073.42H831.016L847.518 1051.92ZM831.453 1081H811.896L844.379 1117.76L831.453 1081ZM857.112 1131.11L874.733 1081H839.492L857.112 1131.11ZM883.208 1073.42L866.707 1051.92H882.781L901.67 1073.42H883.208ZM882.771 1081L869.991 1117.35L902.109 1081H882.771Z" fill="black"/>
</g>
</g>
<g id="Ultralight-M">
<g id="Outline / Diamond Outline_18">
<path id="Shape_18" fill-rule="evenodd" clip-rule="evenodd" d="M529.407 1046.92C530.847 1045.28 532.927 1044.33 535.114 1044.33H586.781C588.963 1044.33 591.039 1045.27 592.479 1046.91L614.927 1072.47C617.447 1075.34 617.441 1079.63 614.912 1082.49L566.685 1137.07C563.667 1140.48 558.339 1140.48 555.32 1137.07L507.084 1082.48C504.56 1079.63 504.549 1075.34 507.059 1072.47L529.407 1046.92ZM561.076 1051.92H561.148L577.65 1073.42H544.575L561.076 1051.92ZM551.518 1051.92H535.114L516.303 1073.42H535.016L551.518 1051.92ZM535.453 1081H515.896L548.379 1117.76L535.453 1081ZM561.112 1131.11L578.733 1081H543.492L561.112 1131.11ZM587.208 1073.42L570.707 1051.92H586.781L605.67 1073.42H587.208ZM586.771 1081L573.991 1117.35L606.109 1081H586.771Z" fill="black"/>
</g>
</g>
<g id="Black-S">
<g id="Outline / Diamond Outline_19">
<path id="Shape_19" fill-rule="evenodd" clip-rule="evenodd" d="M2906.43 629.518C2907.46 628.342 2908.95 627.668 2910.51 627.668H2947.42C2948.98 627.668 2950.46 628.339 2951.49 629.51L2967.52 647.765C2969.32 649.814 2969.32 652.882 2967.51 654.926L2933.06 693.908C2930.91 696.348 2927.1 696.348 2924.94 693.908L2890.49 654.919C2888.69 652.878 2888.68 649.815 2890.47 647.766L2906.43 629.518ZM2929.06 633.085H2929.11L2940.89 648.445H2917.27L2929.06 633.085ZM2922.23 633.085H2910.51L2897.08 648.445H2910.44L2922.23 633.085ZM2910.75 653.861H2896.78L2919.99 680.117L2910.75 653.861ZM2929.08 689.655L2941.67 653.861H2916.5L2929.08 689.655ZM2947.72 648.445L2935.94 633.085H2947.42L2960.91 648.445H2947.72ZM2947.41 653.861L2938.28 679.822L2961.22 653.861H2947.41Z" fill="black"/>
</g>
</g>
<g id="Heavy-S">
<g id="Outline / Diamond Outline_20">
<path id="Shape_20" fill-rule="evenodd" clip-rule="evenodd" d="M2610.43 629.518C2611.46 628.342 2612.95 627.668 2614.51 627.668H2651.42C2652.98 627.668 2654.46 628.339 2655.49 629.51L2671.52 647.765C2673.32 649.814 2673.32 652.882 2671.51 654.926L2637.06 693.908C2634.91 696.348 2631.1 696.348 2628.94 693.908L2594.49 654.919C2592.69 652.878 2592.68 649.815 2594.47 647.766L2610.43 629.518ZM2633.06 633.085H2633.11L2644.89 648.445H2621.27L2633.06 633.085ZM2626.23 633.085H2614.51L2601.08 648.445H2614.44L2626.23 633.085ZM2614.75 653.861H2600.78L2623.99 680.117L2614.75 653.861ZM2633.08 689.655L2645.67 653.861H2620.5L2633.08 689.655ZM2651.72 648.445L2639.94 633.085H2651.42L2664.91 648.445H2651.72ZM2651.41 653.861L2642.28 679.822L2665.22 653.861H2651.41Z" fill="black"/>
</g>
</g>
<g id="Bold-S">
<g id="Outline / Diamond Outline_21">
<path id="Shape_21" fill-rule="evenodd" clip-rule="evenodd" d="M2314.43 629.518C2315.46 628.342 2316.95 627.668 2318.51 627.668H2355.42C2356.98 627.668 2358.46 628.339 2359.49 629.51L2375.52 647.765C2377.32 649.814 2377.32 652.882 2375.51 654.926L2341.06 693.908C2338.91 696.348 2335.1 696.348 2332.94 693.908L2298.49 654.919C2296.69 652.878 2296.68 649.815 2298.47 647.766L2314.43 629.518ZM2337.06 633.085H2337.11L2348.89 648.445H2325.27L2337.06 633.085ZM2330.23 633.085H2318.51L2305.08 648.445H2318.44L2330.23 633.085ZM2318.75 653.861H2304.78L2327.99 680.117L2318.75 653.861ZM2337.08 689.655L2349.67 653.861H2324.5L2337.08 689.655ZM2355.72 648.445L2343.94 633.085H2355.42L2368.91 648.445H2355.72ZM2355.41 653.861L2346.28 679.822L2369.22 653.861H2355.41Z" fill="black"/>
</g>
</g>
<g id="Semibold-S">
<g id="Outline / Diamond Outline_22">
<path id="Shape_22" fill-rule="evenodd" clip-rule="evenodd" d="M2018.43 629.518C2019.46 628.342 2020.95 627.668 2022.51 627.668H2059.42C2060.98 627.668 2062.46 628.339 2063.49 629.51L2079.52 647.765C2081.32 649.814 2081.32 652.882 2079.51 654.926L2045.06 693.908C2042.91 696.348 2039.1 696.348 2036.94 693.908L2002.49 654.919C2000.69 652.878 2000.68 649.815 2002.47 647.766L2018.43 629.518ZM2041.06 633.085H2041.11L2052.89 648.445H2029.27L2041.06 633.085ZM2034.23 633.085H2022.51L2009.08 648.445H2022.44L2034.23 633.085ZM2022.75 653.861H2008.78L2031.99 680.117L2022.75 653.861ZM2041.08 689.655L2053.67 653.861H2028.5L2041.08 689.655ZM2059.72 648.445L2047.94 633.085H2059.42L2072.91 648.445H2059.72ZM2059.41 653.861L2050.28 679.822L2073.22 653.861H2059.41Z" fill="black"/>
</g>
</g>
<g id="Medium-S">
<g id="Outline / Diamond Outline_23">
<path id="Shape_23" fill-rule="evenodd" clip-rule="evenodd" d="M1722.43 629.518C1723.46 628.342 1724.95 627.668 1726.51 627.668H1763.42C1764.98 627.668 1766.46 628.339 1767.49 629.51L1783.52 647.765C1785.32 649.814 1785.32 652.882 1783.51 654.926L1749.06 693.908C1746.91 696.348 1743.1 696.348 1740.94 693.908L1706.49 654.919C1704.69 652.878 1704.68 649.815 1706.47 647.766L1722.43 629.518ZM1745.06 633.085H1745.11L1756.89 648.445H1733.27L1745.06 633.085ZM1738.23 633.085H1726.51L1713.08 648.445H1726.44L1738.23 633.085ZM1726.75 653.861H1712.78L1735.99 680.117L1726.75 653.861ZM1745.08 689.655L1757.67 653.861H1732.5L1745.08 689.655ZM1763.72 648.445L1751.94 633.085H1763.42L1776.91 648.445H1763.72ZM1763.41 653.861L1754.28 679.822L1777.22 653.861H1763.41Z" fill="black"/>
</g>
</g>
<g id="Regular-S">
<g id="Outline / Diamond Outline_24">
<path id="Shape_24" fill-rule="evenodd" clip-rule="evenodd" d="M1426.43 629.518C1427.46 628.342 1428.95 627.668 1430.51 627.668H1467.42C1468.98 627.668 1470.46 628.339 1471.49 629.51L1487.52 647.765C1489.32 649.814 1489.32 652.882 1487.51 654.926L1453.06 693.908C1450.91 696.348 1447.1 696.348 1444.94 693.908L1410.49 654.919C1408.69 652.878 1408.68 649.815 1410.47 647.766L1426.43 629.518ZM1449.06 633.085H1449.11L1460.89 648.445H1437.27L1449.06 633.085ZM1442.23 633.085H1430.51L1417.08 648.445H1430.44L1442.23 633.085ZM1430.75 653.861H1416.78L1439.99 680.117L1430.75 653.861ZM1449.08 689.655L1461.67 653.861H1436.5L1449.08 689.655ZM1467.72 648.445L1455.94 633.085H1467.42L1480.91 648.445H1467.72ZM1467.41 653.861L1458.28 679.822L1481.22 653.861H1467.41Z" fill="black"/>
</g>
</g>
<g id="Light-S">
<g id="Outline / Diamond Outline_25">
<path id="Shape_25" fill-rule="evenodd" clip-rule="evenodd" d="M1130.43 629.518C1131.46 628.342 1132.95 627.668 1134.51 627.668H1171.42C1172.98 627.668 1174.46 628.339 1175.49 629.51L1191.52 647.765C1193.32 649.814 1193.32 652.882 1191.51 654.926L1157.06 693.908C1154.91 696.348 1151.1 696.348 1148.94 693.908L1114.49 654.919C1112.69 652.878 1112.68 649.815 1114.47 647.766L1130.43 629.518ZM1153.06 633.085H1153.11L1164.89 648.445H1141.27L1153.06 633.085ZM1146.23 633.085H1134.51L1121.08 648.445H1134.44L1146.23 633.085ZM1134.75 653.861H1120.78L1143.99 680.117L1134.75 653.861ZM1153.08 689.655L1165.67 653.861H1140.5L1153.08 689.655ZM1171.72 648.445L1159.94 633.085H1171.42L1184.91 648.445H1171.72ZM1171.41 653.861L1162.28 679.822L1185.22 653.861H1171.41Z" fill="black"/>
</g>
</g>
<g id="Thin-S">
<g id="Outline / Diamond Outline_26">
<path id="Shape_26" fill-rule="evenodd" clip-rule="evenodd" d="M834.435 629.518C835.464 628.342 836.95 627.668 838.512 627.668H875.417C876.975 627.668 878.458 628.339 879.487 629.51L895.521 647.765C897.321 649.814 897.316 652.882 895.51 654.926L861.062 693.908C858.906 696.348 855.101 696.348 852.945 693.908L818.491 654.919C816.687 652.878 816.679 649.815 818.473 647.766L834.435 629.518ZM857.056 633.085H857.108L868.894 648.445H845.27L857.056 633.085ZM850.229 633.085H838.512L825.075 648.445H838.442L850.229 633.085ZM838.754 653.861H824.785L847.986 680.117L838.754 653.861ZM857.082 689.655L869.668 653.861H844.496L857.082 689.655ZM875.722 648.445L863.935 633.085H875.417L888.909 648.445H875.722ZM875.41 653.861L866.281 679.822L889.223 653.861H875.41Z" fill="black"/>
</g>
</g>
<g id="Ultralight-S">
<g id="Outline / Diamond Outline_27">
<path id="Shape_27" fill-rule="evenodd" clip-rule="evenodd" d="M538.435 629.518C539.464 628.342 540.95 627.668 542.512 627.668H579.417C580.975 627.668 582.458 628.339 583.487 629.51L599.521 647.765C601.321 649.814 601.316 652.882 599.51 654.926L565.062 693.908C562.906 696.348 559.101 696.348 556.945 693.908L522.491 654.919C520.687 652.878 520.679 649.815 522.473 647.766L538.435 629.518ZM561.056 633.085H561.108L572.894 648.445H549.27L561.056 633.085ZM554.229 633.085H542.512L529.075 648.445H542.442L554.229 633.085ZM542.754 653.861H528.785L551.986 680.117L542.754 653.861ZM561.082 689.655L573.668 653.861H548.496L561.082 689.655ZM579.722 648.445L567.935 633.085H579.417L592.909 648.445H579.722ZM579.41 653.861L570.281 679.822L593.223 653.861H579.41Z" fill="black"/>
</g>
</g>
</g>
</g>
<defs>
<clipPath id="clip0_0_1">
<rect width="3300" height="2200" fill="white"/>
</clipPath>
</defs>
</svg>
