<svg width="3300" height="2200" viewBox="0 0 3300 2200" fill="none" xmlns="http://www.w3.org/2000/svg">
<rect width="3300" height="2200" fill="#E5E5E5"/>
<g id="Location / Outline / Location" clip-path="url(#clip0_0_1)">
<g id="Notes">
<path id="artboard" d="M3300 0H0V2200H3300V0Z" fill="white"/>
<path id="Vector" d="M263 292H3036" stroke="black" stroke-width="0.5"/>
<text id="Weight/Scale Variations" fill="black" xml:space="preserve" style="white-space: pre" font-family="Roboto" font-size="12" letter-spacing="0em"><tspan x="263" y="321.102">Weight/Scale Variations</tspan></text>
<text id="Ultralight" fill="black" xml:space="preserve" style="white-space: pre" font-family="Roboto" font-size="12" letter-spacing="0em"><tspan x="535.211" y="321.102">Ultralight</tspan></text>
<text id="Thin" fill="black" xml:space="preserve" style="white-space: pre" font-family="Roboto" font-size="12" letter-spacing="0em"><tspan x="844.422" y="321.102">Thin</tspan></text>
<text id="Light" fill="black" xml:space="preserve" style="white-space: pre" font-family="Roboto" font-size="12" letter-spacing="0em"><tspan x="1139.63" y="321.102">Light</tspan></text>
<text id="Regular" fill="black" xml:space="preserve" style="white-space: pre" font-family="Roboto" font-size="12" letter-spacing="0em"><tspan x="1429.34" y="321.102">Regular</tspan></text>
<text id="Medium" fill="black" xml:space="preserve" style="white-space: pre" font-family="Roboto" font-size="12" letter-spacing="0em"><tspan x="1724.56" y="321.102">Medium</tspan></text>
<text id="Semibold" fill="black" xml:space="preserve" style="white-space: pre" font-family="Roboto" font-size="12" letter-spacing="0em"><tspan x="2017.77" y="321.102">Semibold</tspan></text>
<text id="Bold" fill="black" xml:space="preserve" style="white-space: pre" font-family="Roboto" font-size="12" letter-spacing="0em"><tspan x="2327.48" y="321.102">Bold</tspan></text>
<text id="Heavy" fill="black" xml:space="preserve" style="white-space: pre" font-family="Roboto" font-size="12" letter-spacing="0em"><tspan x="2620.19" y="321.102">Heavy</tspan></text>
<text id="Black" fill="black" xml:space="preserve" style="white-space: pre" font-family="Roboto" font-size="12" letter-spacing="0em"><tspan x="2918.4" y="321.102">Black</tspan></text>
<path id="Vector_2" d="M263 1903H3036" stroke="black" stroke-width="0.5"/>
<g id="Group">
<path id="Vector_3" d="M272.248 1933.83C276.555 1933.83 280.139 1930.26 280.139 1925.95C280.139 1921.64 276.545 1918.07 272.238 1918.07C267.941 1918.07 264.367 1921.64 264.367 1925.95C264.367 1930.26 267.951 1933.83 272.248 1933.83ZM272.248 1932.35C268.703 1932.35 265.871 1929.5 265.871 1925.95C265.871 1922.39 268.693 1919.55 272.238 1919.55C275.793 1919.55 278.635 1922.39 278.644 1925.95C278.654 1929.5 275.803 1932.35 272.248 1932.35ZM272.229 1929.57C272.697 1929.57 272.971 1929.26 272.971 1928.74V1926.68H275.197C275.695 1926.68 276.037 1926.43 276.037 1925.96C276.037 1925.48 275.715 1925.22 275.197 1925.22H272.971V1922.99C272.971 1922.47 272.697 1922.15 272.229 1922.15C271.76 1922.15 271.506 1922.49 271.506 1922.99V1925.22H269.299C268.781 1925.22 268.449 1925.48 268.449 1925.96C268.449 1926.43 268.801 1926.68 269.299 1926.68H271.506V1928.74C271.506 1929.24 271.76 1929.57 272.229 1929.57Z" fill="black"/>
</g>
<g id="Group_2">
<path id="Vector_4" d="M293.215 1935.91C298.664 1935.91 303.176 1931.4 303.176 1925.95C303.176 1920.51 298.654 1915.99 293.205 1915.99C287.766 1915.99 283.254 1920.51 283.254 1925.95C283.254 1931.4 287.775 1935.91 293.215 1935.91ZM293.215 1934.25C288.605 1934.25 284.924 1930.56 284.924 1925.95C284.924 1921.35 288.596 1917.65 293.205 1917.65C297.814 1917.65 301.506 1921.35 301.516 1925.95C301.525 1930.56 297.824 1934.25 293.215 1934.25ZM293.195 1930.59C293.713 1930.59 294.025 1930.23 294.025 1929.66V1926.77H297.082C297.629 1926.77 298.01 1926.49 298.01 1925.97C298.01 1925.44 297.648 1925.14 297.082 1925.14H294.025V1922.07C294.025 1921.5 293.713 1921.14 293.195 1921.14C292.678 1921.14 292.385 1921.52 292.385 1922.07V1925.14H289.338C288.771 1925.14 288.4 1925.44 288.4 1925.97C288.4 1926.49 288.791 1926.77 289.338 1926.77H292.385V1929.66C292.385 1930.21 292.678 1930.59 293.195 1930.59Z" fill="black"/>
</g>
<g id="Group_3">
<path id="Vector_5" d="M319.895 1938.67C326.857 1938.67 332.619 1932.92 332.619 1925.96C332.619 1919 326.848 1913.24 319.885 1913.24C312.932 1913.24 307.18 1919 307.18 1925.96C307.18 1932.92 312.941 1938.67 319.895 1938.67ZM319.895 1936.86C313.859 1936.86 309.006 1931.99 309.006 1925.96C309.006 1919.92 313.85 1915.06 319.885 1915.06C325.93 1915.06 330.783 1919.92 330.793 1925.96C330.803 1931.99 325.939 1936.86 319.895 1936.86ZM319.875 1931.94C320.441 1931.94 320.793 1931.54 320.793 1930.94V1926.87H325.031C325.617 1926.87 326.037 1926.54 326.037 1925.98C326.037 1925.4 325.647 1925.06 325.031 1925.06H320.793V1920.81C320.793 1920.2 320.441 1919.81 319.875 1919.81C319.309 1919.81 318.986 1920.22 318.986 1920.81V1925.06H314.758C314.143 1925.06 313.732 1925.4 313.732 1925.98C313.732 1926.54 314.162 1926.87 314.758 1926.87H318.986V1930.94C318.986 1931.53 319.309 1931.94 319.875 1931.94Z" fill="black"/>
</g>
<text id="Design Variations" fill="black" xml:space="preserve" style="white-space: pre" font-family="Roboto" font-size="12" letter-spacing="0em"><tspan x="263" y="1952.1">Design Variations</tspan></text>
<text id="Symbols are supported in up to nine weights and three scales." fill="black" xml:space="preserve" style="white-space: pre" font-family="Roboto" font-size="12" letter-spacing="0em"><tspan x="263" y="1970.1">Symbols are supported in up to nine weights and three scales.</tspan></text>
<text id="For optimal layout with text and other symbols, vertically align" fill="black" xml:space="preserve" style="white-space: pre" font-family="Roboto" font-size="12" letter-spacing="0em"><tspan x="263" y="1988.1">For optimal layout with text and other symbols, vertically align</tspan></text>
<text id="symbols with the adjacent text." fill="black" xml:space="preserve" style="white-space: pre" font-family="Roboto" font-size="12" letter-spacing="0em"><tspan x="263" y="2006.1">symbols with the adjacent text.</tspan></text>
<path id="Vector_6" opacity="0.4" d="M779 1919H776V1933H779V1919Z" fill="#00AEEF"/>
<g id="Group_4">
<path id="Vector_7" d="M789.527 1933H791.373L786.178 1918.91H784.439L779.244 1933H781.09L782.506 1928.97H788.111L789.527 1933ZM785.279 1921.05H785.338L787.594 1927.47H783.023L785.279 1921.05Z" fill="black"/>
</g>
<path id="Vector_8" opacity="0.4" d="M794.617 1919H791.617V1933H794.617V1919Z" fill="#00AEEF"/>
<text id="Margins" fill="black" xml:space="preserve" style="white-space: pre" font-family="Roboto" font-size="12" letter-spacing="0em"><tspan x="776" y="1952.1">Margins</tspan></text>
<text id="Leading and trailing margins on the left and right side of each symbol" fill="black" xml:space="preserve" style="white-space: pre" font-family="Roboto" font-size="12" letter-spacing="0em"><tspan x="776" y="1970.1">Leading and trailing margins on the left and right side of each symbol</tspan></text>
<text id="can be adjusted by modifying the width of the blue rectangles." fill="black" xml:space="preserve" style="white-space: pre" font-family="Roboto" font-size="12" letter-spacing="0em"><tspan x="776" y="1988.1">can be adjusted by modifying the width of the blue rectangles.</tspan></text>
<text id="Modifications are automatically applied proportionally to all" fill="black" xml:space="preserve" style="white-space: pre" font-family="Roboto" font-size="12" letter-spacing="0em"><tspan x="776" y="2006.1">Modifications are automatically applied proportionally to all</tspan></text>
<text id="scales and weights." fill="black" xml:space="preserve" style="white-space: pre" font-family="Roboto" font-size="12" letter-spacing="0em"><tspan x="776" y="2024.1">scales and weights.</tspan></text>
<g id="Group_5">
<path id="Vector_9" d="M1291.83 1936.11L1293.37 1937.66C1294.22 1938.49 1295.19 1938.42 1296.06 1937.46L1306.27 1926.34C1306.7 1926.63 1307.1 1926.62 1307.56 1926.52L1308.61 1926.31L1309.3 1927L1309.25 1927.52C1309.19 1928.05 1309.35 1928.47 1309.85 1928.97L1310.66 1929.78C1311.17 1930.28 1311.82 1930.31 1312.3 1929.83L1315.55 1926.58C1316.03 1926.1 1316.01 1925.45 1315.5 1924.94L1314.68 1924.12C1314.19 1923.62 1313.77 1923.45 1313.24 1923.53L1312.71 1923.58L1312.06 1922.92L1312.34 1921.78C1312.49 1921.21 1312.34 1920.74 1311.71 1920.14L1309.3 1917.75C1305.76 1914.22 1301.23 1914.33 1298.11 1917.46C1297.69 1917.89 1297.64 1918.48 1297.92 1918.91C1298.15 1919.28 1298.63 1919.5 1299.27 1919.34C1300.79 1918.96 1302.3 1919.07 1303.78 1920.08L1303.16 1921.66C1302.93 1922.25 1302.94 1922.73 1303.18 1923.16L1292.02 1933.44C1291.08 1934.31 1290.97 1935.25 1291.83 1936.11ZM1299.67 1917.85C1302.34 1915.86 1305.65 1916.17 1308.05 1918.58L1310.68 1921.19C1310.91 1921.43 1310.94 1921.61 1310.88 1921.91L1310.5 1923.47L1312.08 1925.04L1313.04 1924.95C1313.33 1924.92 1313.41 1924.94 1313.64 1925.17L1314.26 1925.79L1311.51 1928.54L1310.88 1927.92C1310.66 1927.7 1310.64 1927.6 1310.67 1927.32L1310.76 1926.36L1309.19 1924.8L1307.57 1925.11C1307.29 1925.17 1307.14 1925.17 1306.91 1924.92L1304.73 1922.75C1304.51 1922.51 1304.48 1922.37 1304.61 1922.05L1305.55 1919.78C1303.95 1918.24 1301.84 1917.39 1299.8 1918.05C1299.71 1918.08 1299.64 1918.06 1299.61 1918.02C1299.59 1917.97 1299.59 1917.92 1299.67 1917.85ZM1293.1 1935.41C1292.61 1934.91 1292.79 1934.61 1293.12 1934.31L1304.08 1924.19L1305.31 1925.42L1295.15 1936.35C1294.85 1936.68 1294.47 1936.78 1294.07 1936.38L1293.1 1935.41Z" fill="black"/>
</g>
<text id="Exporting" fill="black" xml:space="preserve" style="white-space: pre" font-family="Roboto" font-size="12" letter-spacing="0em"><tspan x="1289" y="1952.1">Exporting</tspan></text>
<text id="Symbols should be outlined when exporting to ensure the" fill="black" xml:space="preserve" style="white-space: pre" font-family="Roboto" font-size="12" letter-spacing="0em"><tspan x="1289" y="1970.1">Symbols should be outlined when exporting to ensure the</tspan></text>
<text id="design is preserved when submitting to Xcode." fill="black" xml:space="preserve" style="white-space: pre" font-family="Roboto" font-size="12" letter-spacing="0em"><tspan x="1289" y="1988.1">design is preserved when submitting to Xcode.</tspan></text>
<text id="template-version" fill="black" xml:space="preserve" style="white-space: pre" font-family="Roboto" font-size="12" letter-spacing="0em"><tspan x="2958" y="1932.1">Template v.1.0</tspan></text>
<text id="Generated from pencil.circle" fill="black" xml:space="preserve" style="white-space: pre" font-family="Roboto" font-size="12" letter-spacing="0em"><tspan x="2885" y="1950.1">Generated from pencil.circle</tspan></text>
<text id="Typeset at 100 points" fill="black" xml:space="preserve" style="white-space: pre" font-family="Roboto" font-size="12" letter-spacing="0em"><tspan x="2921" y="1968.1">Typeset at 100 points</tspan></text>
<text id="Small" fill="black" xml:space="preserve" style="white-space: pre" font-family="Roboto" font-size="12" letter-spacing="0em"><tspan x="263" y="725.102">Small</tspan></text>
<text id="Medium_2" fill="black" xml:space="preserve" style="white-space: pre" font-family="Roboto" font-size="12" letter-spacing="0em"><tspan x="263" y="1155.1">Medium</tspan></text>
<text id="Large" fill="black" xml:space="preserve" style="white-space: pre" font-family="Roboto" font-size="12" letter-spacing="0em"><tspan x="263" y="1585.1">Large</tspan></text>
</g>
<g id="Guides">
<g id="H-reference">
<path id="Vector_10" d="M393.932 696H396.666L369.566 625.541H367.076L339.977 696H342.662L351.94 671.537H384.703L393.932 696ZM368.199 628.91H368.443L383.824 669.291H352.818L368.199 628.91Z" fill="#27AAE1"/>
</g>
<path id="Baseline-S" d="M263 696H3036" stroke="#27AAE1" stroke-width="0.577"/>
<path id="Capline-S" d="M263 626H3036" stroke="#27AAE1" stroke-width="0.577"/>
<g id="H-reference_2">
<path id="Vector_11" d="M393.932 1126H396.666L369.566 1055.54H367.076L339.977 1126H342.662L351.94 1101.54H384.703L393.932 1126ZM368.199 1058.91H368.443L383.824 1099.29H352.818L368.199 1058.91Z" fill="#27AAE1"/>
</g>
<path id="Baseline-M" d="M263 1126H3036" stroke="#27AAE1" stroke-width="0.577"/>
<path id="Capline-M" d="M263 1056H3036" stroke="#27AAE1" stroke-width="0.577"/>
<g id="H-reference_3">
<path id="Vector_12" d="M393.932 1556H396.666L369.566 1485.54H367.076L339.977 1556H342.662L351.94 1531.54H384.703L393.932 1556ZM368.199 1488.91H368.443L383.824 1529.29H352.818L368.199 1488.91Z" fill="#27AAE1"/>
</g>
<g id="Group 1">
<path id="Baseline-L" d="M263 1556H3036" stroke="#27AAE1" stroke-width="0.577"/>
<path id="Capline-L" d="M263 1486H3036" stroke="#27AAE1" stroke-width="0.577"/>
</g>
<path id="left-margin" opacity="0.4" d="M1396.04 1030.79H1387.3V1150.13H1396.04V1030.79Z" fill="#00AEEF"/>
<path id="right-margin" opacity="0.4" d="M1510.39 1030.79H1501.65V1150.13H1510.39V1030.79Z" fill="#00AEEF"/>
</g>
<g id="Symbols">
<g id="Black-L">
<g id="Outline / Location Outline">
<g id="Shape">
<path fill-rule="evenodd" clip-rule="evenodd" d="M2897.87 1506.74C2897.87 1489.55 2911.81 1475.62 2929 1475.62C2946.19 1475.62 2960.12 1489.55 2960.12 1506.74C2960.12 1523.93 2946.19 1537.87 2929 1537.87C2911.81 1537.87 2897.87 1523.93 2897.87 1506.74ZM2929 1485.37C2917.19 1485.37 2907.62 1494.94 2907.62 1506.74C2907.62 1518.55 2917.19 1528.12 2929 1528.12C2940.8 1528.12 2950.37 1518.55 2950.37 1506.74C2950.37 1494.94 2940.8 1485.37 2929 1485.37Z" fill="black"/>
<path fill-rule="evenodd" clip-rule="evenodd" d="M2926.17 1454.47C2950.72 1452.99 2976.79 1467.29 2980.66 1499C2980.94 1501.23 2981.1 1503.31 2981.13 1505.17C2981.27 1515.27 2978.06 1525.49 2973.47 1534.93C2968.86 1544.41 2962.72 1553.39 2956.65 1561.11C2950.57 1568.84 2944.49 1575.4 2939.93 1580.03C2937.43 1582.56 2934.9 1585.07 2932.23 1587.43C2930.39 1589.06 2927.61 1589.06 2925.76 1587.43C2925.77 1587.43 2926.1 1587.06 2925.76 1587.43C2923.11 1585.06 2920.57 1582.56 2918.08 1580.03C2913.52 1575.4 2907.43 1568.84 2901.35 1561.11C2895.29 1553.39 2889.14 1544.41 2884.54 1534.93C2879.95 1525.49 2876.74 1515.27 2876.88 1505.17C2877.32 1473.27 2901.64 1455.95 2926.17 1454.47ZM2929 1577.12C2927.9 1576.05 2926.55 1574.73 2925.02 1573.18C2920.64 1568.74 2914.82 1562.46 2909.02 1555.09C2903.21 1547.7 2897.51 1539.31 2893.31 1530.67C2889.08 1521.99 2886.51 1513.33 2886.63 1505.31C2886.99 1479.56 2906.21 1465.44 2926.76 1464.2C2947.3 1462.96 2967.87 1474.65 2970.98 1500.18C2971.23 1502.18 2971.36 1503.89 2971.38 1505.31C2971.49 1513.33 2968.92 1521.99 2964.7 1530.67C2960.49 1539.31 2954.79 1547.7 2948.98 1555.09C2943.19 1562.46 2937.36 1568.74 2932.98 1573.18C2931.46 1574.73 2930.11 1576.05 2929 1577.12Z" fill="black"/>
</g>
</g>
</g>
<g id="Heavy-L">
<g id="Outline / Location Outline_2">
<g id="Shape_2">
<path fill-rule="evenodd" clip-rule="evenodd" d="M2601.87 1506.74C2601.87 1489.55 2615.81 1475.62 2633 1475.62C2650.19 1475.62 2664.12 1489.55 2664.12 1506.74C2664.12 1523.93 2650.19 1537.87 2633 1537.87C2615.81 1537.87 2601.87 1523.93 2601.87 1506.74ZM2633 1485.37C2621.19 1485.37 2611.62 1494.94 2611.62 1506.74C2611.62 1518.55 2621.19 1528.12 2633 1528.12C2644.8 1528.12 2654.37 1518.55 2654.37 1506.74C2654.37 1494.94 2644.8 1485.37 2633 1485.37Z" fill="black"/>
<path fill-rule="evenodd" clip-rule="evenodd" d="M2630.17 1454.47C2654.72 1452.99 2680.79 1467.29 2684.66 1499C2684.94 1501.23 2685.1 1503.31 2685.13 1505.17C2685.27 1515.27 2682.06 1525.49 2677.47 1534.93C2672.86 1544.41 2666.72 1553.39 2660.65 1561.11C2654.57 1568.84 2648.49 1575.4 2643.93 1580.03C2641.43 1582.56 2638.9 1585.07 2636.23 1587.43C2634.39 1589.06 2631.61 1589.06 2629.76 1587.43C2629.77 1587.43 2630.1 1587.06 2629.76 1587.43C2627.11 1585.06 2624.57 1582.56 2622.08 1580.03C2617.52 1575.4 2611.43 1568.84 2605.35 1561.11C2599.29 1553.39 2593.14 1544.41 2588.54 1534.93C2583.95 1525.49 2580.74 1515.27 2580.88 1505.17C2581.32 1473.27 2605.64 1455.95 2630.17 1454.47ZM2633 1577.12C2631.9 1576.05 2630.55 1574.73 2629.02 1573.18C2624.64 1568.74 2618.82 1562.46 2613.02 1555.09C2607.21 1547.7 2601.51 1539.31 2597.31 1530.67C2593.08 1521.99 2590.51 1513.33 2590.63 1505.31C2590.99 1479.56 2610.21 1465.44 2630.76 1464.2C2651.3 1462.96 2671.87 1474.65 2674.98 1500.18C2675.23 1502.18 2675.36 1503.89 2675.38 1505.31C2675.49 1513.33 2672.92 1521.99 2668.7 1530.67C2664.49 1539.31 2658.79 1547.7 2652.98 1555.09C2647.19 1562.46 2641.36 1568.74 2636.98 1573.18C2635.46 1574.73 2634.11 1576.05 2633 1577.12Z" fill="black"/>
</g>
</g>
</g>
<g id="Bold-L">
<g id="Outline / Location Outline_3">
<g id="Shape_3">
<path fill-rule="evenodd" clip-rule="evenodd" d="M2305.87 1506.74C2305.87 1489.55 2319.81 1475.62 2337 1475.62C2354.19 1475.62 2368.12 1489.55 2368.12 1506.74C2368.12 1523.93 2354.19 1537.87 2337 1537.87C2319.81 1537.87 2305.87 1523.93 2305.87 1506.74ZM2337 1485.37C2325.19 1485.37 2315.62 1494.94 2315.62 1506.74C2315.62 1518.55 2325.19 1528.12 2337 1528.12C2348.8 1528.12 2358.37 1518.55 2358.37 1506.74C2358.37 1494.94 2348.8 1485.37 2337 1485.37Z" fill="black"/>
<path fill-rule="evenodd" clip-rule="evenodd" d="M2334.17 1454.47C2358.72 1452.99 2384.79 1467.29 2388.66 1499C2388.94 1501.23 2389.1 1503.31 2389.13 1505.17C2389.27 1515.27 2386.06 1525.49 2381.47 1534.93C2376.86 1544.41 2370.72 1553.39 2364.65 1561.11C2358.57 1568.84 2352.49 1575.4 2347.93 1580.03C2345.43 1582.56 2342.9 1585.07 2340.23 1587.43C2338.39 1589.06 2335.61 1589.06 2333.76 1587.43C2333.77 1587.43 2334.1 1587.06 2333.76 1587.43C2331.11 1585.06 2328.57 1582.56 2326.08 1580.03C2321.52 1575.4 2315.43 1568.84 2309.35 1561.11C2303.29 1553.39 2297.14 1544.41 2292.54 1534.93C2287.95 1525.49 2284.74 1515.27 2284.88 1505.17C2285.32 1473.27 2309.64 1455.95 2334.17 1454.47ZM2337 1577.12C2335.9 1576.05 2334.55 1574.73 2333.02 1573.18C2328.64 1568.74 2322.82 1562.46 2317.02 1555.09C2311.21 1547.7 2305.51 1539.31 2301.31 1530.67C2297.08 1521.99 2294.51 1513.33 2294.63 1505.31C2294.99 1479.56 2314.21 1465.44 2334.76 1464.2C2355.3 1462.96 2375.87 1474.65 2378.98 1500.18C2379.23 1502.18 2379.36 1503.89 2379.38 1505.31C2379.49 1513.33 2376.92 1521.99 2372.7 1530.67C2368.49 1539.31 2362.79 1547.7 2356.98 1555.09C2351.19 1562.46 2345.36 1568.74 2340.98 1573.18C2339.46 1574.73 2338.11 1576.05 2337 1577.12Z" fill="black"/>
</g>
</g>
</g>
<g id="Semibold-L">
<g id="Outline / Location Outline_4">
<g id="Shape_4">
<path fill-rule="evenodd" clip-rule="evenodd" d="M2009.87 1506.74C2009.87 1489.55 2023.81 1475.62 2041 1475.62C2058.19 1475.62 2072.12 1489.55 2072.12 1506.74C2072.12 1523.93 2058.19 1537.87 2041 1537.87C2023.81 1537.87 2009.87 1523.93 2009.87 1506.74ZM2041 1485.37C2029.19 1485.37 2019.62 1494.94 2019.62 1506.74C2019.62 1518.55 2029.19 1528.12 2041 1528.12C2052.8 1528.12 2062.37 1518.55 2062.37 1506.74C2062.37 1494.94 2052.8 1485.37 2041 1485.37Z" fill="black"/>
<path fill-rule="evenodd" clip-rule="evenodd" d="M2038.17 1454.47C2062.72 1452.99 2088.79 1467.29 2092.66 1499C2092.94 1501.23 2093.1 1503.31 2093.13 1505.17C2093.27 1515.27 2090.06 1525.49 2085.47 1534.93C2080.86 1544.41 2074.72 1553.39 2068.65 1561.11C2062.57 1568.84 2056.49 1575.4 2051.93 1580.03C2049.43 1582.56 2046.9 1585.07 2044.23 1587.43C2042.39 1589.06 2039.61 1589.06 2037.76 1587.43C2037.77 1587.43 2038.1 1587.06 2037.76 1587.43C2035.11 1585.06 2032.57 1582.56 2030.08 1580.03C2025.52 1575.4 2019.43 1568.84 2013.35 1561.11C2007.29 1553.39 2001.14 1544.41 1996.54 1534.93C1991.95 1525.49 1988.74 1515.27 1988.88 1505.17C1989.32 1473.27 2013.64 1455.95 2038.17 1454.47ZM2041 1577.12C2039.9 1576.05 2038.55 1574.73 2037.02 1573.18C2032.64 1568.74 2026.82 1562.46 2021.02 1555.09C2015.21 1547.7 2009.51 1539.31 2005.31 1530.67C2001.08 1521.99 1998.51 1513.33 1998.63 1505.31C1998.99 1479.56 2018.21 1465.44 2038.76 1464.2C2059.3 1462.96 2079.87 1474.65 2082.98 1500.18C2083.23 1502.18 2083.36 1503.89 2083.38 1505.31C2083.49 1513.33 2080.92 1521.99 2076.7 1530.67C2072.49 1539.31 2066.79 1547.7 2060.98 1555.09C2055.19 1562.46 2049.36 1568.74 2044.98 1573.18C2043.46 1574.73 2042.11 1576.05 2041 1577.12Z" fill="black"/>
</g>
</g>
</g>
<g id="Medium-L">
<g id="Outline / Location Outline_5">
<g id="Shape_5">
<path fill-rule="evenodd" clip-rule="evenodd" d="M1713.87 1506.74C1713.87 1489.55 1727.81 1475.62 1745 1475.62C1762.19 1475.62 1776.12 1489.55 1776.12 1506.74C1776.12 1523.93 1762.19 1537.87 1745 1537.87C1727.81 1537.87 1713.87 1523.93 1713.87 1506.74ZM1745 1485.37C1733.19 1485.37 1723.62 1494.94 1723.62 1506.74C1723.62 1518.55 1733.19 1528.12 1745 1528.12C1756.8 1528.12 1766.37 1518.55 1766.37 1506.74C1766.37 1494.94 1756.8 1485.37 1745 1485.37Z" fill="black"/>
<path fill-rule="evenodd" clip-rule="evenodd" d="M1742.17 1454.47C1766.72 1452.99 1792.79 1467.29 1796.66 1499C1796.94 1501.23 1797.1 1503.31 1797.13 1505.17C1797.27 1515.27 1794.06 1525.49 1789.47 1534.93C1784.86 1544.41 1778.72 1553.39 1772.65 1561.11C1766.57 1568.84 1760.49 1575.4 1755.93 1580.03C1753.43 1582.56 1750.9 1585.07 1748.23 1587.43C1746.39 1589.06 1743.61 1589.06 1741.76 1587.43C1741.77 1587.43 1742.1 1587.06 1741.76 1587.43C1739.11 1585.06 1736.57 1582.56 1734.08 1580.03C1729.52 1575.4 1723.43 1568.84 1717.35 1561.11C1711.29 1553.39 1705.14 1544.41 1700.54 1534.93C1695.95 1525.49 1692.74 1515.27 1692.88 1505.17C1693.32 1473.27 1717.64 1455.95 1742.17 1454.47ZM1745 1577.12C1743.9 1576.05 1742.55 1574.73 1741.02 1573.18C1736.64 1568.74 1730.82 1562.46 1725.02 1555.09C1719.21 1547.7 1713.51 1539.31 1709.31 1530.67C1705.08 1521.99 1702.51 1513.33 1702.63 1505.31C1702.99 1479.56 1722.21 1465.44 1742.76 1464.2C1763.3 1462.96 1783.87 1474.65 1786.98 1500.18C1787.23 1502.18 1787.36 1503.89 1787.38 1505.31C1787.49 1513.33 1784.92 1521.99 1780.7 1530.67C1776.49 1539.31 1770.79 1547.7 1764.98 1555.09C1759.19 1562.46 1753.36 1568.74 1748.98 1573.18C1747.46 1574.73 1746.11 1576.05 1745 1577.12Z" fill="black"/>
</g>
</g>
</g>
<g id="Regular-L">
<g id="Outline / Location Outline_6">
<g id="Shape_6">
<path fill-rule="evenodd" clip-rule="evenodd" d="M1417.87 1506.74C1417.87 1489.55 1431.81 1475.62 1449 1475.62C1466.19 1475.62 1480.12 1489.55 1480.12 1506.74C1480.12 1523.93 1466.19 1537.87 1449 1537.87C1431.81 1537.87 1417.87 1523.93 1417.87 1506.74ZM1449 1485.37C1437.19 1485.37 1427.62 1494.94 1427.62 1506.74C1427.62 1518.55 1437.19 1528.12 1449 1528.12C1460.8 1528.12 1470.37 1518.55 1470.37 1506.74C1470.37 1494.94 1460.8 1485.37 1449 1485.37Z" fill="black"/>
<path fill-rule="evenodd" clip-rule="evenodd" d="M1446.17 1454.47C1470.72 1452.99 1496.79 1467.29 1500.66 1499C1500.94 1501.23 1501.1 1503.31 1501.13 1505.17C1501.27 1515.27 1498.06 1525.49 1493.47 1534.93C1488.86 1544.41 1482.72 1553.39 1476.65 1561.11C1470.57 1568.84 1464.49 1575.4 1459.93 1580.03C1457.43 1582.56 1454.9 1585.07 1452.23 1587.43C1450.39 1589.06 1447.61 1589.06 1445.76 1587.43C1445.77 1587.43 1446.1 1587.06 1445.76 1587.43C1443.11 1585.06 1440.57 1582.56 1438.08 1580.03C1433.52 1575.4 1427.43 1568.84 1421.35 1561.11C1415.29 1553.39 1409.14 1544.41 1404.54 1534.93C1399.95 1525.49 1396.74 1515.27 1396.88 1505.17C1397.32 1473.27 1421.64 1455.95 1446.17 1454.47ZM1449 1577.12C1447.9 1576.05 1446.55 1574.73 1445.02 1573.18C1440.64 1568.74 1434.82 1562.46 1429.02 1555.09C1423.21 1547.7 1417.51 1539.31 1413.31 1530.67C1409.08 1521.99 1406.51 1513.33 1406.63 1505.31C1406.99 1479.56 1426.21 1465.44 1446.76 1464.2C1467.3 1462.96 1487.87 1474.65 1490.98 1500.18C1491.23 1502.18 1491.36 1503.89 1491.38 1505.31C1491.49 1513.33 1488.92 1521.99 1484.7 1530.67C1480.49 1539.31 1474.79 1547.7 1468.98 1555.09C1463.19 1562.46 1457.36 1568.74 1452.98 1573.18C1451.46 1574.73 1450.11 1576.05 1449 1577.12Z" fill="black"/>
</g>
</g>
</g>
<g id="Light-L">
<g id="Outline / Location Outline_7">
<g id="Shape_7">
<path fill-rule="evenodd" clip-rule="evenodd" d="M1121.87 1506.74C1121.87 1489.55 1135.81 1475.62 1153 1475.62C1170.19 1475.62 1184.12 1489.55 1184.12 1506.74C1184.12 1523.93 1170.19 1537.87 1153 1537.87C1135.81 1537.87 1121.87 1523.93 1121.87 1506.74ZM1153 1485.37C1141.19 1485.37 1131.62 1494.94 1131.62 1506.74C1131.62 1518.55 1141.19 1528.12 1153 1528.12C1164.8 1528.12 1174.37 1518.55 1174.37 1506.74C1174.37 1494.94 1164.8 1485.37 1153 1485.37Z" fill="black"/>
<path fill-rule="evenodd" clip-rule="evenodd" d="M1150.17 1454.47C1174.72 1452.99 1200.79 1467.29 1204.66 1499C1204.94 1501.23 1205.1 1503.31 1205.13 1505.17C1205.27 1515.27 1202.06 1525.49 1197.47 1534.93C1192.86 1544.41 1186.72 1553.39 1180.65 1561.11C1174.57 1568.84 1168.49 1575.4 1163.93 1580.03C1161.43 1582.56 1158.9 1585.07 1156.23 1587.43C1154.39 1589.06 1151.61 1589.06 1149.76 1587.43C1149.77 1587.43 1150.1 1587.06 1149.76 1587.43C1147.11 1585.06 1144.57 1582.56 1142.08 1580.03C1137.52 1575.4 1131.43 1568.84 1125.35 1561.11C1119.29 1553.39 1113.14 1544.41 1108.54 1534.93C1103.95 1525.49 1100.74 1515.27 1100.88 1505.17C1101.32 1473.27 1125.64 1455.95 1150.17 1454.47ZM1153 1577.12C1151.9 1576.05 1150.55 1574.73 1149.02 1573.18C1144.64 1568.74 1138.82 1562.46 1133.02 1555.09C1127.21 1547.7 1121.51 1539.31 1117.31 1530.67C1113.08 1521.99 1110.51 1513.33 1110.63 1505.31C1110.99 1479.56 1130.21 1465.44 1150.76 1464.2C1171.3 1462.96 1191.87 1474.65 1194.98 1500.18C1195.23 1502.18 1195.36 1503.89 1195.38 1505.31C1195.49 1513.33 1192.92 1521.99 1188.7 1530.67C1184.49 1539.31 1178.79 1547.7 1172.98 1555.09C1167.19 1562.46 1161.36 1568.74 1156.98 1573.18C1155.46 1574.73 1154.11 1576.05 1153 1577.12Z" fill="black"/>
</g>
</g>
</g>
<g id="Thin-L">
<g id="Outline / Location Outline_8">
<g id="Shape_8">
<path fill-rule="evenodd" clip-rule="evenodd" d="M825.873 1506.74C825.873 1489.55 839.808 1475.62 856.998 1475.62C874.188 1475.62 888.123 1489.55 888.123 1506.74C888.123 1523.93 874.188 1537.87 856.998 1537.87C839.808 1537.87 825.873 1523.93 825.873 1506.74ZM856.998 1485.37C845.193 1485.37 835.623 1494.94 835.623 1506.74C835.623 1518.55 845.193 1528.12 856.998 1528.12C868.803 1528.12 878.373 1518.55 878.373 1506.74C878.373 1494.94 868.803 1485.37 856.998 1485.37Z" fill="black"/>
<path fill-rule="evenodd" clip-rule="evenodd" d="M854.175 1454.47C878.719 1452.99 904.789 1467.29 908.663 1499C908.936 1501.23 909.1 1503.31 909.127 1505.17C909.268 1515.27 906.058 1525.49 901.467 1534.93C896.86 1544.41 890.719 1553.39 884.65 1561.11C878.57 1568.84 872.486 1575.4 867.927 1580.03C865.429 1582.56 862.897 1585.07 860.235 1587.43C858.389 1589.06 855.609 1589.06 853.764 1587.43C853.765 1587.43 854.099 1587.06 853.764 1587.43C851.108 1585.06 848.573 1582.56 846.076 1580.03C841.518 1575.4 835.434 1568.84 829.354 1561.11C823.285 1553.39 817.144 1544.41 812.537 1534.93C807.946 1525.49 804.736 1515.27 804.878 1505.17C805.324 1473.27 829.642 1455.95 854.175 1454.47ZM857.002 1577.12C855.896 1576.05 854.547 1574.73 853.019 1573.18C848.639 1568.74 842.815 1562.46 837.019 1555.09C831.213 1547.7 825.509 1539.31 821.305 1530.67C817.084 1521.99 814.514 1513.33 814.627 1505.31C814.987 1479.56 834.209 1465.44 854.762 1464.2C875.304 1462.96 895.866 1474.65 898.985 1500.18C899.229 1502.18 899.358 1503.89 899.378 1505.31C899.49 1513.33 896.92 1521.99 892.699 1530.67C888.495 1539.31 882.791 1547.7 876.985 1555.09C871.189 1562.46 865.365 1568.74 860.985 1573.18C859.457 1574.73 858.108 1576.05 857.002 1577.12Z" fill="black"/>
</g>
</g>
</g>
<g id="Ultralight-L">
<g id="Outline / Location Outline_9">
<g id="Shape_9">
<path fill-rule="evenodd" clip-rule="evenodd" d="M529.873 1506.74C529.873 1489.55 543.808 1475.62 560.998 1475.62C578.188 1475.62 592.123 1489.55 592.123 1506.74C592.123 1523.93 578.188 1537.87 560.998 1537.87C543.808 1537.87 529.873 1523.93 529.873 1506.74ZM560.998 1485.37C549.193 1485.37 539.623 1494.94 539.623 1506.74C539.623 1518.55 549.193 1528.12 560.998 1528.12C572.803 1528.12 582.373 1518.55 582.373 1506.74C582.373 1494.94 572.803 1485.37 560.998 1485.37Z" fill="black"/>
<path fill-rule="evenodd" clip-rule="evenodd" d="M558.175 1454.47C582.719 1452.99 608.789 1467.29 612.663 1499C612.936 1501.23 613.1 1503.31 613.127 1505.17C613.268 1515.27 610.058 1525.49 605.467 1534.93C600.86 1544.41 594.719 1553.39 588.65 1561.11C582.57 1568.84 576.486 1575.4 571.927 1580.03C569.429 1582.56 566.897 1585.07 564.235 1587.43C562.389 1589.06 559.609 1589.06 557.764 1587.43C557.765 1587.43 558.099 1587.06 557.764 1587.43C555.108 1585.06 552.573 1582.56 550.076 1580.03C545.518 1575.4 539.434 1568.84 533.354 1561.11C527.285 1553.39 521.144 1544.41 516.537 1534.93C511.946 1525.49 508.736 1515.27 508.878 1505.17C509.324 1473.27 533.642 1455.95 558.175 1454.47ZM561.002 1577.12C559.896 1576.05 558.547 1574.73 557.019 1573.18C552.639 1568.74 546.815 1562.46 541.019 1555.09C535.213 1547.7 529.509 1539.31 525.305 1530.67C521.084 1521.99 518.514 1513.33 518.627 1505.31C518.987 1479.56 538.209 1465.44 558.762 1464.2C579.304 1462.96 599.866 1474.65 602.985 1500.18C603.229 1502.18 603.358 1503.89 603.378 1505.31C603.49 1513.33 600.92 1521.99 596.699 1530.67C592.495 1539.31 586.791 1547.7 580.985 1555.09C575.189 1562.46 569.365 1568.74 564.985 1573.18C563.457 1574.73 562.108 1576.05 561.002 1577.12Z" fill="black"/>
</g>
</g>
</g>
<g id="Black-M">
<g id="Outline / Location Outline_10">
<g id="Shape_10">
<path fill-rule="evenodd" clip-rule="evenodd" d="M2904.79 1079.91C2904.79 1066.54 2915.63 1055.7 2929 1055.7C2942.37 1055.7 2953.21 1066.54 2953.21 1079.91C2953.21 1093.28 2942.37 1104.12 2929 1104.12C2915.63 1104.12 2904.79 1093.28 2904.79 1079.91ZM2929 1063.29C2919.82 1063.29 2912.37 1070.73 2912.37 1079.91C2912.37 1089.09 2919.82 1096.54 2929 1096.54C2938.18 1096.54 2945.62 1089.09 2945.62 1079.91C2945.62 1070.73 2938.18 1063.29 2929 1063.29Z" fill="black"/>
<path fill-rule="evenodd" clip-rule="evenodd" d="M2926.8 1039.25C2945.89 1038.1 2966.17 1049.23 2969.18 1073.89C2969.39 1075.62 2969.52 1077.24 2969.54 1078.69C2969.65 1086.55 2967.16 1094.49 2963.59 1101.84C2960 1109.21 2955.23 1116.19 2950.51 1122.2C2945.78 1128.21 2941.05 1133.31 2937.5 1136.91C2935.56 1138.88 2933.59 1140.83 2931.52 1142.67C2930.08 1143.94 2927.92 1143.94 2926.48 1142.66C2926.48 1142.67 2926.74 1142.38 2926.48 1142.66C2924.42 1140.83 2922.45 1138.88 2920.5 1136.91C2916.96 1133.31 2912.23 1128.21 2907.5 1122.2C2902.78 1116.19 2898 1109.21 2894.42 1101.84C2890.85 1094.49 2888.35 1086.55 2888.46 1078.69C2888.81 1053.88 2907.72 1040.41 2926.8 1039.25ZM2929 1134.65C2928.14 1133.82 2927.09 1132.79 2925.9 1131.59C2922.5 1128.13 2917.97 1123.25 2913.46 1117.51C2908.94 1111.77 2904.51 1105.24 2901.24 1098.52C2897.95 1091.77 2895.96 1085.03 2896.04 1078.8C2896.32 1058.77 2911.27 1047.79 2927.26 1046.82C2943.24 1045.86 2959.23 1054.95 2961.66 1074.81C2961.85 1076.36 2961.95 1077.69 2961.96 1078.8C2962.05 1085.03 2960.05 1091.77 2956.77 1098.52C2953.5 1105.24 2949.06 1111.77 2944.54 1117.51C2940.04 1123.25 2935.51 1128.13 2932.1 1131.59C2930.91 1132.79 2929.86 1133.82 2929 1134.65Z" fill="black"/>
</g>
</g>
</g>
<g id="Heavy-M">
<g id="Outline / Location Outline_11">
<g id="Shape_11">
<path fill-rule="evenodd" clip-rule="evenodd" d="M2608.79 1079.91C2608.79 1066.54 2619.63 1055.7 2633 1055.7C2646.37 1055.7 2657.21 1066.54 2657.21 1079.91C2657.21 1093.28 2646.37 1104.12 2633 1104.12C2619.63 1104.12 2608.79 1093.28 2608.79 1079.91ZM2633 1063.29C2623.82 1063.29 2616.37 1070.73 2616.37 1079.91C2616.37 1089.09 2623.82 1096.54 2633 1096.54C2642.18 1096.54 2649.62 1089.09 2649.62 1079.91C2649.62 1070.73 2642.18 1063.29 2633 1063.29Z" fill="black"/>
<path fill-rule="evenodd" clip-rule="evenodd" d="M2630.8 1039.25C2649.89 1038.1 2670.17 1049.23 2673.18 1073.89C2673.39 1075.62 2673.52 1077.24 2673.54 1078.69C2673.65 1086.55 2671.16 1094.49 2667.59 1101.84C2664 1109.21 2659.23 1116.19 2654.51 1122.2C2649.78 1128.21 2645.05 1133.31 2641.5 1136.91C2639.56 1138.88 2637.59 1140.83 2635.52 1142.67C2634.08 1143.94 2631.92 1143.94 2630.48 1142.66C2630.48 1142.67 2630.74 1142.38 2630.48 1142.66C2628.42 1140.83 2626.45 1138.88 2624.5 1136.91C2620.96 1133.31 2616.23 1128.21 2611.5 1122.2C2606.78 1116.19 2602 1109.21 2598.42 1101.84C2594.85 1094.49 2592.35 1086.55 2592.46 1078.69C2592.81 1053.88 2611.72 1040.41 2630.8 1039.25ZM2633 1134.65C2632.14 1133.82 2631.09 1132.79 2629.9 1131.59C2626.5 1128.13 2621.97 1123.25 2617.46 1117.51C2612.94 1111.77 2608.51 1105.24 2605.24 1098.52C2601.95 1091.77 2599.96 1085.03 2600.04 1078.8C2600.32 1058.77 2615.27 1047.79 2631.26 1046.82C2647.24 1045.86 2663.23 1054.95 2665.66 1074.81C2665.85 1076.36 2665.95 1077.69 2665.96 1078.8C2666.05 1085.03 2664.05 1091.77 2660.77 1098.52C2657.5 1105.24 2653.06 1111.77 2648.54 1117.51C2644.04 1123.25 2639.51 1128.13 2636.1 1131.59C2634.91 1132.79 2633.86 1133.82 2633 1134.65Z" fill="black"/>
</g>
</g>
</g>
<g id="Bold-M">
<g id="Outline / Location Outline_12">
<g id="Shape_12">
<path fill-rule="evenodd" clip-rule="evenodd" d="M2312.79 1079.91C2312.79 1066.54 2323.63 1055.7 2337 1055.7C2350.37 1055.7 2361.21 1066.54 2361.21 1079.91C2361.21 1093.28 2350.37 1104.12 2337 1104.12C2323.63 1104.12 2312.79 1093.28 2312.79 1079.91ZM2337 1063.29C2327.82 1063.29 2320.37 1070.73 2320.37 1079.91C2320.37 1089.09 2327.82 1096.54 2337 1096.54C2346.18 1096.54 2353.62 1089.09 2353.62 1079.91C2353.62 1070.73 2346.18 1063.29 2337 1063.29Z" fill="black"/>
<path fill-rule="evenodd" clip-rule="evenodd" d="M2334.8 1039.25C2353.89 1038.1 2374.17 1049.23 2377.18 1073.89C2377.39 1075.62 2377.52 1077.24 2377.54 1078.69C2377.65 1086.55 2375.16 1094.49 2371.59 1101.84C2368 1109.21 2363.23 1116.19 2358.51 1122.2C2353.78 1128.21 2349.05 1133.31 2345.5 1136.91C2343.56 1138.88 2341.59 1140.83 2339.52 1142.67C2338.08 1143.94 2335.92 1143.94 2334.48 1142.66C2334.48 1142.67 2334.74 1142.38 2334.48 1142.66C2332.42 1140.83 2330.45 1138.88 2328.5 1136.91C2324.96 1133.31 2320.23 1128.21 2315.5 1122.2C2310.78 1116.19 2306 1109.21 2302.42 1101.84C2298.85 1094.49 2296.35 1086.55 2296.46 1078.69C2296.81 1053.88 2315.72 1040.41 2334.8 1039.25ZM2337 1134.65C2336.14 1133.82 2335.09 1132.79 2333.9 1131.59C2330.5 1128.13 2325.97 1123.25 2321.46 1117.51C2316.94 1111.77 2312.51 1105.24 2309.24 1098.52C2305.95 1091.77 2303.96 1085.03 2304.04 1078.8C2304.32 1058.77 2319.27 1047.79 2335.26 1046.82C2351.24 1045.86 2367.23 1054.95 2369.66 1074.81C2369.85 1076.36 2369.95 1077.69 2369.96 1078.8C2370.05 1085.03 2368.05 1091.77 2364.77 1098.52C2361.5 1105.24 2357.06 1111.77 2352.54 1117.51C2348.04 1123.25 2343.51 1128.13 2340.1 1131.59C2338.91 1132.79 2337.86 1133.82 2337 1134.65Z" fill="black"/>
</g>
</g>
</g>
<g id="Semibold-M">
<g id="Outline / Location Outline_13">
<g id="Shape_13">
<path fill-rule="evenodd" clip-rule="evenodd" d="M2016.79 1079.91C2016.79 1066.54 2027.63 1055.7 2041 1055.7C2054.37 1055.7 2065.21 1066.54 2065.21 1079.91C2065.21 1093.28 2054.37 1104.12 2041 1104.12C2027.63 1104.12 2016.79 1093.28 2016.79 1079.91ZM2041 1063.29C2031.82 1063.29 2024.37 1070.73 2024.37 1079.91C2024.37 1089.09 2031.82 1096.54 2041 1096.54C2050.18 1096.54 2057.62 1089.09 2057.62 1079.91C2057.62 1070.73 2050.18 1063.29 2041 1063.29Z" fill="black"/>
<path fill-rule="evenodd" clip-rule="evenodd" d="M2038.8 1039.25C2057.89 1038.1 2078.17 1049.23 2081.18 1073.89C2081.39 1075.62 2081.52 1077.24 2081.54 1078.69C2081.65 1086.55 2079.16 1094.49 2075.59 1101.84C2072 1109.21 2067.23 1116.19 2062.51 1122.2C2057.78 1128.21 2053.05 1133.31 2049.5 1136.91C2047.56 1138.88 2045.59 1140.83 2043.52 1142.67C2042.08 1143.94 2039.92 1143.94 2038.48 1142.66C2038.48 1142.67 2038.74 1142.38 2038.48 1142.66C2036.42 1140.83 2034.45 1138.88 2032.5 1136.91C2028.96 1133.31 2024.23 1128.21 2019.5 1122.2C2014.78 1116.19 2010 1109.21 2006.42 1101.84C2002.85 1094.49 2000.35 1086.55 2000.46 1078.69C2000.81 1053.88 2019.72 1040.41 2038.8 1039.25ZM2041 1134.65C2040.14 1133.82 2039.09 1132.79 2037.9 1131.59C2034.5 1128.13 2029.97 1123.25 2025.46 1117.51C2020.94 1111.77 2016.51 1105.24 2013.24 1098.52C2009.95 1091.77 2007.96 1085.03 2008.04 1078.8C2008.32 1058.77 2023.27 1047.79 2039.26 1046.82C2055.24 1045.86 2071.23 1054.95 2073.66 1074.81C2073.85 1076.36 2073.95 1077.69 2073.96 1078.8C2074.05 1085.03 2072.05 1091.77 2068.77 1098.52C2065.5 1105.24 2061.06 1111.77 2056.54 1117.51C2052.04 1123.25 2047.51 1128.13 2044.1 1131.59C2042.91 1132.79 2041.86 1133.82 2041 1134.65Z" fill="black"/>
</g>
</g>
</g>
<g id="Medium-M">
<g id="Outline / Location Outline_14">
<g id="Shape_14">
<path fill-rule="evenodd" clip-rule="evenodd" d="M1720.79 1079.91C1720.79 1066.54 1731.63 1055.7 1745 1055.7C1758.37 1055.7 1769.21 1066.54 1769.21 1079.91C1769.21 1093.28 1758.37 1104.12 1745 1104.12C1731.63 1104.12 1720.79 1093.28 1720.79 1079.91ZM1745 1063.29C1735.82 1063.29 1728.37 1070.73 1728.37 1079.91C1728.37 1089.09 1735.82 1096.54 1745 1096.54C1754.18 1096.54 1761.62 1089.09 1761.62 1079.91C1761.62 1070.73 1754.18 1063.29 1745 1063.29Z" fill="black"/>
<path fill-rule="evenodd" clip-rule="evenodd" d="M1742.8 1039.25C1761.89 1038.1 1782.17 1049.23 1785.18 1073.89C1785.39 1075.62 1785.52 1077.24 1785.54 1078.69C1785.65 1086.55 1783.16 1094.49 1779.59 1101.84C1776 1109.21 1771.23 1116.19 1766.51 1122.2C1761.78 1128.21 1757.05 1133.31 1753.5 1136.91C1751.56 1138.88 1749.59 1140.83 1747.52 1142.67C1746.08 1143.94 1743.92 1143.94 1742.48 1142.66C1742.48 1142.67 1742.74 1142.38 1742.48 1142.66C1740.42 1140.83 1738.45 1138.88 1736.5 1136.91C1732.96 1133.31 1728.23 1128.21 1723.5 1122.2C1718.78 1116.19 1714 1109.21 1710.42 1101.84C1706.85 1094.49 1704.35 1086.55 1704.46 1078.69C1704.81 1053.88 1723.72 1040.41 1742.8 1039.25ZM1745 1134.65C1744.14 1133.82 1743.09 1132.79 1741.9 1131.59C1738.5 1128.13 1733.97 1123.25 1729.46 1117.51C1724.94 1111.77 1720.51 1105.24 1717.24 1098.52C1713.95 1091.77 1711.96 1085.03 1712.04 1078.8C1712.32 1058.77 1727.27 1047.79 1743.26 1046.82C1759.24 1045.86 1775.23 1054.95 1777.66 1074.81C1777.85 1076.36 1777.95 1077.69 1777.96 1078.8C1778.05 1085.03 1776.05 1091.77 1772.77 1098.52C1769.5 1105.24 1765.06 1111.77 1760.54 1117.51C1756.04 1123.25 1751.51 1128.13 1748.1 1131.59C1746.91 1132.79 1745.86 1133.82 1745 1134.65Z" fill="black"/>
</g>
</g>
</g>
<g id="Regular-M">
<g id="Outline / Location Outline_15">
<g id="Shape_15">
<path fill-rule="evenodd" clip-rule="evenodd" d="M1424.79 1079.91C1424.79 1066.54 1435.63 1055.7 1449 1055.7C1462.37 1055.7 1473.21 1066.54 1473.21 1079.91C1473.21 1093.28 1462.37 1104.12 1449 1104.12C1435.63 1104.12 1424.79 1093.28 1424.79 1079.91ZM1449 1063.29C1439.82 1063.29 1432.37 1070.73 1432.37 1079.91C1432.37 1089.09 1439.82 1096.54 1449 1096.54C1458.18 1096.54 1465.62 1089.09 1465.62 1079.91C1465.62 1070.73 1458.18 1063.29 1449 1063.29Z" fill="black"/>
<path fill-rule="evenodd" clip-rule="evenodd" d="M1446.8 1039.25C1465.89 1038.1 1486.17 1049.23 1489.18 1073.89C1489.39 1075.62 1489.52 1077.24 1489.54 1078.69C1489.65 1086.55 1487.16 1094.49 1483.59 1101.84C1480 1109.21 1475.23 1116.19 1470.51 1122.2C1465.78 1128.21 1461.05 1133.31 1457.5 1136.91C1455.56 1138.88 1453.59 1140.83 1451.52 1142.67C1450.08 1143.94 1447.92 1143.94 1446.48 1142.66C1446.48 1142.67 1446.74 1142.38 1446.48 1142.66C1444.42 1140.83 1442.45 1138.88 1440.5 1136.91C1436.96 1133.31 1432.23 1128.21 1427.5 1122.2C1422.78 1116.19 1418 1109.21 1414.42 1101.84C1410.85 1094.49 1408.35 1086.55 1408.46 1078.69C1408.81 1053.88 1427.72 1040.41 1446.8 1039.25ZM1449 1134.65C1448.14 1133.82 1447.09 1132.79 1445.9 1131.59C1442.5 1128.13 1437.97 1123.25 1433.46 1117.51C1428.94 1111.77 1424.51 1105.24 1421.24 1098.52C1417.95 1091.77 1415.96 1085.03 1416.04 1078.8C1416.32 1058.77 1431.27 1047.79 1447.26 1046.82C1463.24 1045.86 1479.23 1054.95 1481.66 1074.81C1481.85 1076.36 1481.95 1077.69 1481.96 1078.8C1482.05 1085.03 1480.05 1091.77 1476.77 1098.52C1473.5 1105.24 1469.06 1111.77 1464.54 1117.51C1460.04 1123.25 1455.51 1128.13 1452.1 1131.59C1450.91 1132.79 1449.86 1133.82 1449 1134.65Z" fill="black"/>
</g>
</g>
</g>
<g id="Light-M">
<g id="Outline / Location Outline_16">
<g id="Shape_16">
<path fill-rule="evenodd" clip-rule="evenodd" d="M1128.79 1079.91C1128.79 1066.54 1139.63 1055.7 1153 1055.7C1166.37 1055.7 1177.21 1066.54 1177.21 1079.91C1177.21 1093.28 1166.37 1104.12 1153 1104.12C1139.63 1104.12 1128.79 1093.28 1128.79 1079.91ZM1153 1063.29C1143.82 1063.29 1136.37 1070.73 1136.37 1079.91C1136.37 1089.09 1143.82 1096.54 1153 1096.54C1162.18 1096.54 1169.62 1089.09 1169.62 1079.91C1169.62 1070.73 1162.18 1063.29 1153 1063.29Z" fill="black"/>
<path fill-rule="evenodd" clip-rule="evenodd" d="M1150.8 1039.25C1169.89 1038.1 1190.17 1049.23 1193.18 1073.89C1193.39 1075.62 1193.52 1077.24 1193.54 1078.69C1193.65 1086.55 1191.16 1094.49 1187.59 1101.84C1184 1109.21 1179.23 1116.19 1174.51 1122.2C1169.78 1128.21 1165.05 1133.31 1161.5 1136.91C1159.56 1138.88 1157.59 1140.83 1155.52 1142.67C1154.08 1143.94 1151.92 1143.94 1150.48 1142.66C1150.48 1142.67 1150.74 1142.38 1150.48 1142.66C1148.42 1140.83 1146.45 1138.88 1144.5 1136.91C1140.96 1133.31 1136.23 1128.21 1131.5 1122.2C1126.78 1116.19 1122 1109.21 1118.42 1101.84C1114.85 1094.49 1112.35 1086.55 1112.46 1078.69C1112.81 1053.88 1131.72 1040.41 1150.8 1039.25ZM1153 1134.65C1152.14 1133.82 1151.09 1132.79 1149.9 1131.59C1146.5 1128.13 1141.97 1123.25 1137.46 1117.51C1132.94 1111.77 1128.51 1105.24 1125.24 1098.52C1121.95 1091.77 1119.96 1085.03 1120.04 1078.8C1120.32 1058.77 1135.27 1047.79 1151.26 1046.82C1167.24 1045.86 1183.23 1054.95 1185.66 1074.81C1185.85 1076.36 1185.95 1077.69 1185.96 1078.8C1186.05 1085.03 1184.05 1091.77 1180.77 1098.52C1177.5 1105.24 1173.06 1111.77 1168.54 1117.51C1164.04 1123.25 1159.51 1128.13 1156.1 1131.59C1154.91 1132.79 1153.86 1133.82 1153 1134.65Z" fill="black"/>
</g>
</g>
</g>
<g id="Thin-M">
<g id="Outline / Location Outline_17">
<g id="Shape_17">
<path fill-rule="evenodd" clip-rule="evenodd" d="M832.79 1079.91C832.79 1066.54 843.629 1055.7 856.999 1055.7C870.369 1055.7 881.207 1066.54 881.207 1079.91C881.207 1093.28 870.369 1104.12 856.999 1104.12C843.629 1104.12 832.79 1093.28 832.79 1079.91ZM856.999 1063.29C847.817 1063.29 840.374 1070.73 840.374 1079.91C840.374 1089.09 847.817 1096.54 856.999 1096.54C866.18 1096.54 873.624 1089.09 873.624 1079.91C873.624 1070.73 866.18 1063.29 856.999 1063.29Z" fill="black"/>
<path fill-rule="evenodd" clip-rule="evenodd" d="M854.803 1039.25C873.893 1038.1 894.17 1049.23 897.183 1073.89C897.395 1075.62 897.523 1077.24 897.543 1078.69C897.653 1086.55 895.157 1094.49 891.586 1101.84C888.003 1109.21 883.226 1116.19 878.506 1122.2C873.777 1128.21 869.045 1133.31 865.499 1136.91C863.556 1138.88 861.587 1140.83 859.516 1142.67C858.081 1143.94 855.918 1143.94 854.483 1142.66C854.484 1142.67 854.744 1142.38 854.483 1142.66C852.417 1140.83 850.446 1138.88 848.504 1136.91C844.958 1133.31 840.227 1128.21 835.498 1122.2C830.777 1116.19 826.001 1109.21 822.418 1101.84C818.847 1094.49 816.351 1086.55 816.461 1078.69C816.808 1053.88 835.722 1040.41 854.803 1039.25ZM857.002 1134.65C856.142 1133.82 855.093 1132.79 853.904 1131.59C850.497 1128.13 845.968 1123.25 841.46 1117.51C836.943 1111.77 832.508 1105.24 829.237 1098.52C825.955 1091.77 823.956 1085.03 824.043 1078.8C824.324 1058.77 839.274 1047.79 855.26 1046.82C871.237 1045.86 887.229 1054.95 889.655 1074.81C889.845 1076.36 889.945 1077.69 889.961 1078.8C890.048 1085.03 888.049 1091.77 884.766 1098.52C881.496 1105.24 877.06 1111.77 872.544 1117.51C868.036 1123.25 863.506 1128.13 860.1 1131.59C858.911 1132.79 857.862 1133.82 857.002 1134.65Z" fill="black"/>
</g>
</g>
</g>
<g id="Ultralight-M">
<g id="Outline / Location Outline_18">
<g id="Shape_18">
<path fill-rule="evenodd" clip-rule="evenodd" d="M536.79 1079.91C536.79 1066.54 547.629 1055.7 560.999 1055.7C574.369 1055.7 585.207 1066.54 585.207 1079.91C585.207 1093.28 574.369 1104.12 560.999 1104.12C547.629 1104.12 536.79 1093.28 536.79 1079.91ZM560.999 1063.29C551.817 1063.29 544.374 1070.73 544.374 1079.91C544.374 1089.09 551.817 1096.54 560.999 1096.54C570.18 1096.54 577.624 1089.09 577.624 1079.91C577.624 1070.73 570.18 1063.29 560.999 1063.29Z" fill="black"/>
<path fill-rule="evenodd" clip-rule="evenodd" d="M558.803 1039.25C577.893 1038.1 598.17 1049.23 601.183 1073.89C601.395 1075.62 601.523 1077.24 601.543 1078.69C601.653 1086.55 599.157 1094.49 595.586 1101.84C592.003 1109.21 587.226 1116.19 582.506 1122.2C577.777 1128.21 573.045 1133.31 569.499 1136.91C567.556 1138.88 565.587 1140.83 563.516 1142.67C562.081 1143.94 559.918 1143.94 558.483 1142.66C558.484 1142.67 558.744 1142.38 558.483 1142.66C556.417 1140.83 554.446 1138.88 552.504 1136.91C548.958 1133.31 544.227 1128.21 539.498 1122.2C534.777 1116.19 530.001 1109.21 526.418 1101.84C522.847 1094.49 520.351 1086.55 520.461 1078.69C520.808 1053.88 539.722 1040.41 558.803 1039.25ZM561.002 1134.65C560.142 1133.82 559.093 1132.79 557.904 1131.59C554.497 1128.13 549.968 1123.25 545.46 1117.51C540.943 1111.77 536.508 1105.24 533.237 1098.52C529.955 1091.77 527.956 1085.03 528.043 1078.8C528.324 1058.77 543.274 1047.79 559.26 1046.82C575.237 1045.86 591.229 1054.95 593.655 1074.81C593.845 1076.36 593.945 1077.69 593.961 1078.8C594.048 1085.03 592.049 1091.77 588.766 1098.52C585.496 1105.24 581.06 1111.77 576.544 1117.51C572.036 1123.25 567.506 1128.13 564.1 1131.59C562.911 1132.79 561.862 1133.82 561.002 1134.65Z" fill="black"/>
</g>
</g>
</g>
<g id="Black-S">
<g id="Outline / Location Outline_19">
<g id="Shape_19">
<path fill-rule="evenodd" clip-rule="evenodd" d="M2911.71 653.08C2911.71 643.53 2919.45 635.789 2929 635.789C2938.55 635.789 2946.29 643.53 2946.29 653.08C2946.29 662.63 2938.55 670.372 2929 670.372C2919.45 670.372 2911.71 662.63 2911.71 653.08ZM2929 641.205C2922.44 641.205 2917.12 646.522 2917.12 653.08C2917.12 659.639 2922.44 664.955 2929 664.955C2935.56 664.955 2940.87 659.639 2940.87 653.08C2940.87 646.522 2935.56 641.205 2929 641.205Z" fill="black"/>
<path fill-rule="evenodd" clip-rule="evenodd" d="M2927.43 624.038C2941.07 623.215 2955.55 631.163 2957.7 648.777C2957.85 650.017 2957.95 651.17 2957.96 652.209C2958.04 657.819 2956.26 663.495 2953.7 668.74C2951.14 674.004 2947.73 678.996 2944.36 683.285C2940.98 687.581 2937.6 691.225 2935.07 693.794C2933.68 695.201 2932.28 696.594 2930.8 697.907C2929.77 698.815 2928.23 698.812 2927.2 697.904C2927.2 697.905 2927.39 697.698 2927.2 697.904C2925.73 696.59 2924.32 695.2 2922.93 693.794C2920.4 691.225 2917.02 687.581 2913.64 683.285C2910.27 678.996 2906.86 674.004 2904.3 668.74C2901.75 663.495 2899.96 657.819 2900.04 652.209C2900.29 634.486 2913.8 624.861 2927.43 624.038ZM2929 692.176C2928.39 691.586 2927.64 690.852 2926.79 689.991C2924.36 687.523 2921.12 684.033 2917.9 679.937C2914.67 675.834 2911.51 671.175 2909.17 666.372C2906.82 661.549 2905.4 656.739 2905.46 652.285C2905.66 637.979 2916.34 630.135 2927.76 629.445C2939.17 628.756 2950.59 635.252 2952.33 649.433C2952.46 650.544 2952.53 651.495 2952.54 652.285C2952.61 656.739 2951.18 661.549 2948.83 666.372C2946.5 671.175 2943.33 675.834 2940.1 679.937C2936.88 684.033 2933.65 687.523 2931.21 689.991C2930.37 690.852 2929.62 691.586 2929 692.176Z" fill="black"/>
</g>
</g>
</g>
<g id="Heavy-S">
<g id="Outline / Location Outline_20">
<g id="Shape_20">
<path fill-rule="evenodd" clip-rule="evenodd" d="M2615.71 653.08C2615.71 643.53 2623.45 635.789 2633 635.789C2642.55 635.789 2650.29 643.53 2650.29 653.08C2650.29 662.63 2642.55 670.372 2633 670.372C2623.45 670.372 2615.71 662.63 2615.71 653.08ZM2633 641.205C2626.44 641.205 2621.12 646.522 2621.12 653.08C2621.12 659.639 2626.44 664.955 2633 664.955C2639.56 664.955 2644.87 659.639 2644.87 653.08C2644.87 646.522 2639.56 641.205 2633 641.205Z" fill="black"/>
<path fill-rule="evenodd" clip-rule="evenodd" d="M2631.43 624.038C2645.07 623.215 2659.55 631.163 2661.7 648.777C2661.85 650.017 2661.95 651.17 2661.96 652.209C2662.04 657.819 2660.26 663.495 2657.7 668.74C2655.14 674.004 2651.73 678.996 2648.36 683.285C2644.98 687.581 2641.6 691.225 2639.07 693.794C2637.68 695.201 2636.28 696.594 2634.8 697.907C2633.77 698.815 2632.23 698.812 2631.2 697.904C2631.2 697.905 2631.39 697.698 2631.2 697.904C2629.73 696.59 2628.32 695.2 2626.93 693.794C2624.4 691.225 2621.02 687.581 2617.64 683.285C2614.27 678.996 2610.86 674.004 2608.3 668.74C2605.75 663.495 2603.96 657.819 2604.04 652.209C2604.29 634.486 2617.8 624.861 2631.43 624.038ZM2633 692.176C2632.39 691.586 2631.64 690.852 2630.79 689.991C2628.36 687.523 2625.12 684.033 2621.9 679.937C2618.67 675.834 2615.51 671.175 2613.17 666.372C2610.82 661.549 2609.4 656.739 2609.46 652.285C2609.66 637.979 2620.34 630.135 2631.76 629.445C2643.17 628.756 2654.59 635.252 2656.33 649.433C2656.46 650.544 2656.53 651.495 2656.54 652.285C2656.61 656.739 2655.18 661.549 2652.83 666.372C2650.5 671.175 2647.33 675.834 2644.1 679.937C2640.88 684.033 2637.65 687.523 2635.21 689.991C2634.37 690.852 2633.62 691.586 2633 692.176Z" fill="black"/>
</g>
</g>
</g>
<g id="Bold-S">
<g id="Outline / Location Outline_21">
<g id="Shape_21">
<path fill-rule="evenodd" clip-rule="evenodd" d="M2319.71 653.08C2319.71 643.53 2327.45 635.789 2337 635.789C2346.55 635.789 2354.29 643.53 2354.29 653.08C2354.29 662.63 2346.55 670.372 2337 670.372C2327.45 670.372 2319.71 662.63 2319.71 653.08ZM2337 641.205C2330.44 641.205 2325.12 646.522 2325.12 653.08C2325.12 659.639 2330.44 664.955 2337 664.955C2343.56 664.955 2348.87 659.639 2348.87 653.08C2348.87 646.522 2343.56 641.205 2337 641.205Z" fill="black"/>
<path fill-rule="evenodd" clip-rule="evenodd" d="M2335.43 624.038C2349.07 623.215 2363.55 631.163 2365.7 648.777C2365.85 650.017 2365.95 651.17 2365.96 652.209C2366.04 657.819 2364.26 663.495 2361.7 668.74C2359.14 674.004 2355.73 678.996 2352.36 683.285C2348.98 687.581 2345.6 691.225 2343.07 693.794C2341.68 695.201 2340.28 696.594 2338.8 697.907C2337.77 698.815 2336.23 698.812 2335.2 697.904C2335.2 697.905 2335.39 697.698 2335.2 697.904C2333.73 696.59 2332.32 695.2 2330.93 693.794C2328.4 691.225 2325.02 687.581 2321.64 683.285C2318.27 678.996 2314.86 674.004 2312.3 668.74C2309.75 663.495 2307.96 657.819 2308.04 652.209C2308.29 634.486 2321.8 624.861 2335.43 624.038ZM2337 692.176C2336.39 691.586 2335.64 690.852 2334.79 689.991C2332.36 687.523 2329.12 684.033 2325.9 679.937C2322.67 675.834 2319.51 671.175 2317.17 666.372C2314.82 661.549 2313.4 656.739 2313.46 652.285C2313.66 637.979 2324.34 630.135 2335.76 629.445C2347.17 628.756 2358.59 635.252 2360.33 649.433C2360.46 650.544 2360.53 651.495 2360.54 652.285C2360.61 656.739 2359.18 661.549 2356.83 666.372C2354.5 671.175 2351.33 675.834 2348.1 679.937C2344.88 684.033 2341.65 687.523 2339.21 689.991C2338.37 690.852 2337.62 691.586 2337 692.176Z" fill="black"/>
</g>
</g>
</g>
<g id="Semibold-S">
<g id="Outline / Location Outline_22">
<g id="Shape_22">
<path fill-rule="evenodd" clip-rule="evenodd" d="M2023.71 653.08C2023.71 643.53 2031.45 635.789 2041 635.789C2050.55 635.789 2058.29 643.53 2058.29 653.08C2058.29 662.63 2050.55 670.372 2041 670.372C2031.45 670.372 2023.71 662.63 2023.71 653.08ZM2041 641.205C2034.44 641.205 2029.12 646.522 2029.12 653.08C2029.12 659.639 2034.44 664.955 2041 664.955C2047.56 664.955 2052.87 659.639 2052.87 653.08C2052.87 646.522 2047.56 641.205 2041 641.205Z" fill="black"/>
<path fill-rule="evenodd" clip-rule="evenodd" d="M2039.43 624.038C2053.07 623.215 2067.55 631.163 2069.7 648.777C2069.85 650.017 2069.95 651.17 2069.96 652.209C2070.04 657.819 2068.26 663.495 2065.7 668.74C2063.14 674.004 2059.73 678.996 2056.36 683.285C2052.98 687.581 2049.6 691.225 2047.07 693.794C2045.68 695.201 2044.28 696.594 2042.8 697.907C2041.77 698.815 2040.23 698.812 2039.2 697.904C2039.2 697.905 2039.39 697.698 2039.2 697.904C2037.73 696.59 2036.32 695.2 2034.93 693.794C2032.4 691.225 2029.02 687.581 2025.64 683.285C2022.27 678.996 2018.86 674.004 2016.3 668.74C2013.75 663.495 2011.96 657.819 2012.04 652.209C2012.29 634.486 2025.8 624.861 2039.43 624.038ZM2041 692.176C2040.39 691.586 2039.64 690.852 2038.79 689.991C2036.36 687.523 2033.12 684.033 2029.9 679.937C2026.67 675.834 2023.51 671.175 2021.17 666.372C2018.82 661.549 2017.4 656.739 2017.46 652.285C2017.66 637.979 2028.34 630.135 2039.76 629.445C2051.17 628.756 2062.59 635.252 2064.33 649.433C2064.46 650.544 2064.53 651.495 2064.54 652.285C2064.61 656.739 2063.18 661.549 2060.83 666.372C2058.5 671.175 2055.33 675.834 2052.1 679.937C2048.88 684.033 2045.65 687.523 2043.21 689.991C2042.37 690.852 2041.62 691.586 2041 692.176Z" fill="black"/>
</g>
</g>
</g>
<g id="Medium-S">
<g id="Outline / Location Outline_23">
<g id="Shape_23">
<path fill-rule="evenodd" clip-rule="evenodd" d="M1727.71 653.08C1727.71 643.53 1735.45 635.789 1745 635.789C1754.55 635.789 1762.29 643.53 1762.29 653.08C1762.29 662.63 1754.55 670.372 1745 670.372C1735.45 670.372 1727.71 662.63 1727.71 653.08ZM1745 641.205C1738.44 641.205 1733.12 646.522 1733.12 653.08C1733.12 659.639 1738.44 664.955 1745 664.955C1751.56 664.955 1756.87 659.639 1756.87 653.08C1756.87 646.522 1751.56 641.205 1745 641.205Z" fill="black"/>
<path fill-rule="evenodd" clip-rule="evenodd" d="M1743.43 624.038C1757.07 623.215 1771.55 631.163 1773.7 648.777C1773.85 650.017 1773.95 651.17 1773.96 652.209C1774.04 657.819 1772.26 663.495 1769.7 668.74C1767.14 674.004 1763.73 678.996 1760.36 683.285C1756.98 687.581 1753.6 691.225 1751.07 693.794C1749.68 695.201 1748.28 696.594 1746.8 697.907C1745.77 698.815 1744.23 698.812 1743.2 697.904C1743.2 697.905 1743.39 697.698 1743.2 697.904C1741.73 696.59 1740.32 695.2 1738.93 693.794C1736.4 691.225 1733.02 687.581 1729.64 683.285C1726.27 678.996 1722.86 674.004 1720.3 668.74C1717.75 663.495 1715.96 657.819 1716.04 652.209C1716.29 634.486 1729.8 624.861 1743.43 624.038ZM1745 692.176C1744.39 691.586 1743.64 690.852 1742.79 689.991C1740.36 687.523 1737.12 684.033 1733.9 679.937C1730.67 675.834 1727.51 671.175 1725.17 666.372C1722.82 661.549 1721.4 656.739 1721.46 652.285C1721.66 637.979 1732.34 630.135 1743.76 629.445C1755.17 628.756 1766.59 635.252 1768.33 649.433C1768.46 650.544 1768.53 651.495 1768.54 652.285C1768.61 656.739 1767.18 661.549 1764.83 666.372C1762.5 671.175 1759.33 675.834 1756.1 679.937C1752.88 684.033 1749.65 687.523 1747.21 689.991C1746.37 690.852 1745.62 691.586 1745 692.176Z" fill="black"/>
</g>
</g>
</g>
<g id="Regular-S">
<g id="Outline / Location Outline_24">
<g id="Shape_24">
<path fill-rule="evenodd" clip-rule="evenodd" d="M1431.71 653.08C1431.71 643.53 1439.45 635.789 1449 635.789C1458.55 635.789 1466.29 643.53 1466.29 653.08C1466.29 662.63 1458.55 670.372 1449 670.372C1439.45 670.372 1431.71 662.63 1431.71 653.08ZM1449 641.205C1442.44 641.205 1437.12 646.522 1437.12 653.08C1437.12 659.639 1442.44 664.955 1449 664.955C1455.56 664.955 1460.87 659.639 1460.87 653.08C1460.87 646.522 1455.56 641.205 1449 641.205Z" fill="black"/>
<path fill-rule="evenodd" clip-rule="evenodd" d="M1447.43 624.038C1461.07 623.215 1475.55 631.163 1477.7 648.777C1477.85 650.017 1477.95 651.17 1477.96 652.209C1478.04 657.819 1476.26 663.495 1473.7 668.74C1471.14 674.004 1467.73 678.996 1464.36 683.285C1460.98 687.581 1457.6 691.225 1455.07 693.794C1453.68 695.201 1452.28 696.594 1450.8 697.907C1449.77 698.815 1448.23 698.812 1447.2 697.904C1447.2 697.905 1447.39 697.698 1447.2 697.904C1445.73 696.59 1444.32 695.2 1442.93 693.794C1440.4 691.225 1437.02 687.581 1433.64 683.285C1430.27 678.996 1426.86 674.004 1424.3 668.74C1421.75 663.495 1419.96 657.819 1420.04 652.209C1420.29 634.486 1433.8 624.861 1447.43 624.038ZM1449 692.176C1448.39 691.586 1447.64 690.852 1446.79 689.991C1444.36 687.523 1441.12 684.033 1437.9 679.937C1434.67 675.834 1431.51 671.175 1429.17 666.372C1426.82 661.549 1425.4 656.739 1425.46 652.285C1425.66 637.979 1436.34 630.135 1447.76 629.445C1459.17 628.756 1470.59 635.252 1472.33 649.433C1472.46 650.544 1472.53 651.495 1472.54 652.285C1472.61 656.739 1471.18 661.549 1468.83 666.372C1466.5 671.175 1463.33 675.834 1460.1 679.937C1456.88 684.033 1453.65 687.523 1451.21 689.991C1450.37 690.852 1449.62 691.586 1449 692.176Z" fill="black"/>
</g>
</g>
</g>
<g id="Light-S">
<g id="Outline / Location Outline_25">
<g id="Shape_25">
<path fill-rule="evenodd" clip-rule="evenodd" d="M1135.71 653.08C1135.71 643.53 1143.45 635.789 1153 635.789C1162.55 635.789 1170.29 643.53 1170.29 653.08C1170.29 662.63 1162.55 670.372 1153 670.372C1143.45 670.372 1135.71 662.63 1135.71 653.08ZM1153 641.205C1146.44 641.205 1141.12 646.522 1141.12 653.08C1141.12 659.639 1146.44 664.955 1153 664.955C1159.56 664.955 1164.87 659.639 1164.87 653.08C1164.87 646.522 1159.56 641.205 1153 641.205Z" fill="black"/>
<path fill-rule="evenodd" clip-rule="evenodd" d="M1151.43 624.038C1165.07 623.215 1179.55 631.163 1181.7 648.777C1181.85 650.017 1181.95 651.17 1181.96 652.209C1182.04 657.819 1180.26 663.495 1177.7 668.74C1175.14 674.004 1171.73 678.996 1168.36 683.285C1164.98 687.581 1161.6 691.225 1159.07 693.794C1157.68 695.201 1156.28 696.594 1154.8 697.907C1153.77 698.815 1152.23 698.812 1151.2 697.904C1151.2 697.905 1151.39 697.698 1151.2 697.904C1149.73 696.59 1148.32 695.2 1146.93 693.794C1144.4 691.225 1141.02 687.581 1137.64 683.285C1134.27 678.996 1130.86 674.004 1128.3 668.74C1125.75 663.495 1123.96 657.819 1124.04 652.209C1124.29 634.486 1137.8 624.861 1151.43 624.038ZM1153 692.176C1152.39 691.586 1151.64 690.852 1150.79 689.991C1148.36 687.523 1145.12 684.033 1141.9 679.937C1138.67 675.834 1135.51 671.175 1133.17 666.372C1130.82 661.549 1129.4 656.739 1129.46 652.285C1129.66 637.979 1140.34 630.135 1151.76 629.445C1163.17 628.756 1174.59 635.252 1176.33 649.433C1176.46 650.544 1176.53 651.495 1176.54 652.285C1176.61 656.739 1175.18 661.549 1172.83 666.372C1170.5 671.175 1167.33 675.834 1164.1 679.937C1160.88 684.033 1157.65 687.523 1155.21 689.991C1154.37 690.852 1153.62 691.586 1153 692.176Z" fill="black"/>
</g>
</g>
</g>
<g id="Thin-S">
<g id="Outline / Location Outline_26">
<g id="Shape_26">
<path fill-rule="evenodd" clip-rule="evenodd" d="M839.708 653.08C839.708 643.53 847.449 635.789 856.999 635.789C866.549 635.789 874.291 643.53 874.291 653.08C874.291 662.63 866.549 670.372 856.999 670.372C847.449 670.372 839.708 662.63 839.708 653.08ZM856.999 641.205C850.441 641.205 845.124 646.522 845.124 653.08C845.124 659.639 850.441 664.955 856.999 664.955C863.558 664.955 868.874 659.639 868.874 653.08C868.874 646.522 863.558 641.205 856.999 641.205Z" fill="black"/>
<path fill-rule="evenodd" clip-rule="evenodd" d="M855.431 624.038C869.067 623.215 883.55 631.163 885.702 648.777C885.854 650.017 885.945 651.17 885.96 652.209C886.038 657.819 884.255 663.495 881.705 668.74C879.145 674.004 875.733 678.996 872.361 683.285C868.984 687.581 865.604 691.225 863.071 693.794C861.683 695.201 860.276 696.594 858.797 697.907C857.772 698.815 856.228 698.812 855.203 697.904C855.203 697.905 855.389 697.698 855.203 697.904C853.727 696.59 852.319 695.2 850.932 693.794C848.399 691.225 845.019 687.581 841.642 683.285C838.27 678.996 834.858 674.004 832.299 668.74C829.748 663.495 827.965 657.819 828.044 652.209C828.292 634.486 841.802 624.861 855.431 624.038ZM857.001 692.176C856.387 691.586 855.638 690.852 854.789 689.991C852.356 687.523 849.12 684.033 845.9 679.937C842.674 675.834 839.506 671.175 837.17 666.372C834.825 661.549 833.397 656.739 833.46 652.285C833.66 637.979 844.339 630.135 855.757 629.445C867.169 628.756 878.593 635.252 880.325 649.433C880.461 650.544 880.532 651.495 880.544 652.285C880.606 656.739 879.178 661.549 876.833 666.372C874.497 671.175 871.329 675.834 868.103 679.937C864.883 684.033 861.647 687.523 859.214 689.991C858.365 690.852 857.616 691.586 857.001 692.176Z" fill="black"/>
</g>
</g>
</g>
<g id="Ultralight-S">
<g id="Outline / Location Outline_27">
<g id="Shape_27">
<path fill-rule="evenodd" clip-rule="evenodd" d="M543.708 653.08C543.708 643.53 551.449 635.789 560.999 635.789C570.549 635.789 578.291 643.53 578.291 653.08C578.291 662.63 570.549 670.372 560.999 670.372C551.449 670.372 543.708 662.63 543.708 653.08ZM560.999 641.205C554.441 641.205 549.124 646.522 549.124 653.08C549.124 659.639 554.441 664.955 560.999 664.955C567.558 664.955 572.874 659.639 572.874 653.08C572.874 646.522 567.558 641.205 560.999 641.205Z" fill="black"/>
<path fill-rule="evenodd" clip-rule="evenodd" d="M559.431 624.038C573.067 623.215 587.55 631.163 589.702 648.777C589.854 650.017 589.945 651.17 589.96 652.209C590.038 657.819 588.255 663.495 585.705 668.74C583.145 674.004 579.733 678.996 576.361 683.285C572.984 687.581 569.604 691.225 567.071 693.794C565.683 695.201 564.276 696.594 562.797 697.907C561.772 698.815 560.228 698.812 559.203 697.904C559.203 697.905 559.389 697.698 559.203 697.904C557.727 696.59 556.319 695.2 554.932 693.794C552.399 691.225 549.019 687.581 545.642 683.285C542.27 678.996 538.858 674.004 536.299 668.74C533.748 663.495 531.965 657.819 532.044 652.209C532.292 634.486 545.802 624.861 559.431 624.038ZM561.001 692.176C560.387 691.586 559.638 690.852 558.789 689.991C556.356 687.523 553.12 684.033 549.9 679.937C546.674 675.834 543.506 671.175 541.17 666.372C538.825 661.549 537.397 656.739 537.46 652.285C537.66 637.979 548.339 630.135 559.757 629.445C571.169 628.756 582.593 635.252 584.325 649.433C584.461 650.544 584.532 651.495 584.544 652.285C584.606 656.739 583.178 661.549 580.833 666.372C578.497 671.175 575.329 675.834 572.103 679.937C568.883 684.033 565.647 687.523 563.214 689.991C562.365 690.852 561.616 691.586 561.001 692.176Z" fill="black"/>
</g>
</g>
</g>
</g>
</g>
<defs>
<clipPath id="clip0_0_1">
<rect width="3300" height="2200" fill="white"/>
</clipPath>
</defs>
</svg>
