<svg width="3300" height="2200" viewBox="0 0 3300 2200" fill="none" xmlns="http://www.w3.org/2000/svg">
<rect width="3300" height="2200" fill="#E5E5E5"/>
<g id="System / Solid / More Vertical" clip-path="url(#clip0_805_27002)">
<g id="Notes">
<path id="artboard" d="M3300 0H0V2200H3300V0Z" fill="white"/>
<path id="Vector" d="M263 292H3036" stroke="black" stroke-width="0.5"/>
<text id="Weight/Scale Variations" fill="black" xml:space="preserve" style="white-space: pre" font-family="Roboto" font-size="12" letter-spacing="0em"><tspan x="263" y="321.102">Weight/Scale Variations</tspan></text>
<text id="Ultralight" fill="black" xml:space="preserve" style="white-space: pre" font-family="Roboto" font-size="12" letter-spacing="0em"><tspan x="535.211" y="321.102">Ultralight</tspan></text>
<text id="Thin" fill="black" xml:space="preserve" style="white-space: pre" font-family="Roboto" font-size="12" letter-spacing="0em"><tspan x="844.422" y="321.102">Thin</tspan></text>
<text id="Light" fill="black" xml:space="preserve" style="white-space: pre" font-family="Roboto" font-size="12" letter-spacing="0em"><tspan x="1139.63" y="321.102">Light</tspan></text>
<text id="Regular" fill="black" xml:space="preserve" style="white-space: pre" font-family="Roboto" font-size="12" letter-spacing="0em"><tspan x="1429.34" y="321.102">Regular</tspan></text>
<text id="Medium" fill="black" xml:space="preserve" style="white-space: pre" font-family="Roboto" font-size="12" letter-spacing="0em"><tspan x="1724.56" y="321.102">Medium</tspan></text>
<text id="Semibold" fill="black" xml:space="preserve" style="white-space: pre" font-family="Roboto" font-size="12" letter-spacing="0em"><tspan x="2017.77" y="321.102">Semibold</tspan></text>
<text id="Bold" fill="black" xml:space="preserve" style="white-space: pre" font-family="Roboto" font-size="12" letter-spacing="0em"><tspan x="2327.48" y="321.102">Bold</tspan></text>
<text id="Heavy" fill="black" xml:space="preserve" style="white-space: pre" font-family="Roboto" font-size="12" letter-spacing="0em"><tspan x="2620.19" y="321.102">Heavy</tspan></text>
<text id="Black" fill="black" xml:space="preserve" style="white-space: pre" font-family="Roboto" font-size="12" letter-spacing="0em"><tspan x="2918.4" y="321.102">Black</tspan></text>
<path id="Vector_2" d="M263 1903H3036" stroke="black" stroke-width="0.5"/>
<g id="Group">
<path id="Vector_3" d="M272.248 1933.83C276.555 1933.83 280.139 1930.26 280.139 1925.95C280.139 1921.64 276.545 1918.07 272.238 1918.07C267.941 1918.07 264.367 1921.64 264.367 1925.95C264.367 1930.26 267.951 1933.83 272.248 1933.83ZM272.248 1932.35C268.703 1932.35 265.871 1929.51 265.871 1925.95C265.871 1922.4 268.693 1919.55 272.238 1919.55C275.793 1919.55 278.635 1922.4 278.644 1925.95C278.654 1929.51 275.803 1932.35 272.248 1932.35ZM272.229 1929.57C272.697 1929.57 272.971 1929.26 272.971 1928.74V1926.68H275.197C275.695 1926.68 276.037 1926.43 276.037 1925.96C276.037 1925.48 275.715 1925.22 275.197 1925.22H272.971V1922.99C272.971 1922.47 272.697 1922.15 272.229 1922.15C271.76 1922.15 271.506 1922.49 271.506 1922.99V1925.22H269.299C268.781 1925.22 268.449 1925.48 268.449 1925.96C268.449 1926.43 268.801 1926.68 269.299 1926.68H271.506V1928.74C271.506 1929.24 271.76 1929.57 272.229 1929.57Z" fill="black"/>
</g>
<g id="Group_2">
<path id="Vector_4" d="M293.215 1935.91C298.664 1935.91 303.176 1931.4 303.176 1925.95C303.176 1920.51 298.654 1915.99 293.205 1915.99C287.766 1915.99 283.254 1920.51 283.254 1925.95C283.254 1931.4 287.775 1935.91 293.215 1935.91ZM293.215 1934.25C288.605 1934.25 284.924 1930.56 284.924 1925.95C284.924 1921.35 288.596 1917.65 293.205 1917.65C297.814 1917.65 301.506 1921.35 301.516 1925.95C301.525 1930.56 297.824 1934.25 293.215 1934.25ZM293.195 1930.59C293.713 1930.59 294.025 1930.23 294.025 1929.66V1926.77H297.082C297.629 1926.77 298.01 1926.49 298.01 1925.97C298.01 1925.44 297.648 1925.14 297.082 1925.14H294.025V1922.07C294.025 1921.5 293.713 1921.14 293.195 1921.14C292.678 1921.14 292.385 1921.52 292.385 1922.07V1925.14H289.338C288.771 1925.14 288.4 1925.44 288.4 1925.97C288.4 1926.49 288.791 1926.77 289.338 1926.77H292.385V1929.66C292.385 1930.21 292.678 1930.59 293.195 1930.59Z" fill="black"/>
</g>
<g id="Group_3">
<path id="Vector_5" d="M319.895 1938.67C326.857 1938.67 332.619 1932.92 332.619 1925.96C332.619 1918.99 326.848 1913.24 319.885 1913.24C312.932 1913.24 307.18 1918.99 307.18 1925.96C307.18 1932.92 312.941 1938.67 319.895 1938.67ZM319.895 1936.86C313.859 1936.86 309.006 1931.99 309.006 1925.96C309.006 1919.92 313.85 1915.06 319.885 1915.06C325.93 1915.06 330.783 1919.92 330.793 1925.96C330.803 1931.99 325.939 1936.86 319.895 1936.86ZM319.875 1931.93C320.441 1931.93 320.793 1931.54 320.793 1930.94V1926.87H325.031C325.617 1926.87 326.037 1926.53 326.037 1925.98C326.037 1925.4 325.647 1925.06 325.031 1925.06H320.793V1920.81C320.793 1920.2 320.441 1919.8 319.875 1919.8C319.309 1919.8 318.986 1920.21 318.986 1920.81V1925.06H314.758C314.143 1925.06 313.732 1925.4 313.732 1925.98C313.732 1926.53 314.162 1926.87 314.758 1926.87H318.986V1930.94C318.986 1931.52 319.309 1931.93 319.875 1931.93Z" fill="black"/>
</g>
<text id="Design Variations" fill="black" xml:space="preserve" style="white-space: pre" font-family="Roboto" font-size="12" letter-spacing="0em"><tspan x="263" y="1952.1">Design Variations</tspan></text>
<text id="Symbols are supported in up to nine weights and three scales." fill="black" xml:space="preserve" style="white-space: pre" font-family="Roboto" font-size="12" letter-spacing="0em"><tspan x="263" y="1970.1">Symbols are supported in up to nine weights and three scales.</tspan></text>
<text id="For optimal layout with text and other symbols, vertically align" fill="black" xml:space="preserve" style="white-space: pre" font-family="Roboto" font-size="12" letter-spacing="0em"><tspan x="263" y="1988.1">For optimal layout with text and other symbols, vertically align</tspan></text>
<text id="symbols with the adjacent text." fill="black" xml:space="preserve" style="white-space: pre" font-family="Roboto" font-size="12" letter-spacing="0em"><tspan x="263" y="2006.1">symbols with the adjacent text.</tspan></text>
<path id="Vector_6" opacity="0.4" d="M779 1919H776V1933H779V1919Z" fill="#00AEEF"/>
<g id="Group_4">
<path id="Vector_7" d="M789.525 1933H791.371L786.176 1918.91H784.437L779.242 1933H781.088L782.504 1928.96H788.109L789.525 1933ZM785.277 1921.04H785.336L787.592 1927.47H783.021L785.277 1921.04Z" fill="black"/>
</g>
<path id="Vector_8" opacity="0.4" d="M794.617 1919H791.617V1933H794.617V1919Z" fill="#00AEEF"/>
<text id="Margins" fill="black" xml:space="preserve" style="white-space: pre" font-family="Roboto" font-size="12" letter-spacing="0em"><tspan x="776" y="1952.1">Margins</tspan></text>
<text id="Leading and trailing margins on the left and right side of each symbol" fill="black" xml:space="preserve" style="white-space: pre" font-family="Roboto" font-size="12" letter-spacing="0em"><tspan x="776" y="1970.1">Leading and trailing margins on the left and right side of each symbol</tspan></text>
<text id="can be adjusted by modifying the width of the blue rectangles." fill="black" xml:space="preserve" style="white-space: pre" font-family="Roboto" font-size="12" letter-spacing="0em"><tspan x="776" y="1988.1">can be adjusted by modifying the width of the blue rectangles.</tspan></text>
<text id="Modifications are automatically applied proportionally to all" fill="black" xml:space="preserve" style="white-space: pre" font-family="Roboto" font-size="12" letter-spacing="0em"><tspan x="776" y="2006.1">Modifications are automatically applied proportionally to all</tspan></text>
<text id="scales and weights." fill="black" xml:space="preserve" style="white-space: pre" font-family="Roboto" font-size="12" letter-spacing="0em"><tspan x="776" y="2024.1">scales and weights.</tspan></text>
<g id="Group_5">
<path id="Vector_9" d="M1291.83 1936.11L1293.37 1937.66C1294.22 1938.49 1295.19 1938.42 1296.06 1937.46L1306.27 1926.34C1306.7 1926.63 1307.1 1926.62 1307.56 1926.52L1308.61 1926.31L1309.3 1927L1309.25 1927.52C1309.19 1928.05 1309.35 1928.47 1309.85 1928.97L1310.66 1929.78C1311.17 1930.28 1311.82 1930.31 1312.3 1929.83L1315.55 1926.58C1316.03 1926.1 1316.01 1925.45 1315.5 1924.94L1314.68 1924.12C1314.19 1923.62 1313.77 1923.45 1313.24 1923.53L1312.71 1923.58L1312.06 1922.92L1312.34 1921.78C1312.49 1921.21 1312.34 1920.74 1311.71 1920.14L1309.3 1917.75C1305.76 1914.22 1301.23 1914.33 1298.11 1917.46C1297.69 1917.89 1297.64 1918.48 1297.92 1918.91C1298.15 1919.28 1298.63 1919.5 1299.27 1919.34C1300.79 1918.96 1302.3 1919.07 1303.78 1920.08L1303.16 1921.66C1302.93 1922.25 1302.94 1922.73 1303.18 1923.16L1292.02 1933.44C1291.08 1934.31 1290.97 1935.25 1291.83 1936.11ZM1299.67 1917.85C1302.34 1915.86 1305.65 1916.17 1308.05 1918.58L1310.68 1921.19C1310.91 1921.43 1310.94 1921.61 1310.88 1921.91L1310.5 1923.47L1312.08 1925.04L1313.04 1924.95C1313.33 1924.92 1313.41 1924.94 1313.64 1925.17L1314.26 1925.79L1311.51 1928.54L1310.88 1927.92C1310.66 1927.7 1310.64 1927.6 1310.67 1927.32L1310.76 1926.36L1309.19 1924.8L1307.57 1925.11C1307.29 1925.17 1307.14 1925.17 1306.91 1924.92L1304.73 1922.75C1304.51 1922.51 1304.48 1922.37 1304.61 1922.05L1305.55 1919.78C1303.95 1918.24 1301.84 1917.39 1299.8 1918.05C1299.71 1918.08 1299.64 1918.06 1299.61 1918.02C1299.59 1917.97 1299.59 1917.92 1299.67 1917.85ZM1293.1 1935.41C1292.61 1934.91 1292.79 1934.61 1293.12 1934.31L1304.08 1924.19L1305.31 1925.42L1295.15 1936.35C1294.85 1936.68 1294.47 1936.78 1294.07 1936.38L1293.1 1935.41Z" fill="black"/>
</g>
<text id="Exporting" fill="black" xml:space="preserve" style="white-space: pre" font-family="Roboto" font-size="12" letter-spacing="0em"><tspan x="1289" y="1952.1">Exporting</tspan></text>
<text id="Symbols should be outlined when exporting to ensure the" fill="black" xml:space="preserve" style="white-space: pre" font-family="Roboto" font-size="12" letter-spacing="0em"><tspan x="1289" y="1970.1">Symbols should be outlined when exporting to ensure the</tspan></text>
<text id="design is preserved when submitting to Xcode." fill="black" xml:space="preserve" style="white-space: pre" font-family="Roboto" font-size="12" letter-spacing="0em"><tspan x="1289" y="1988.1">design is preserved when submitting to Xcode.</tspan></text>
<text id="template-version" fill="black" xml:space="preserve" style="white-space: pre" font-family="Roboto" font-size="12" letter-spacing="0em"><tspan x="2958" y="1932.1">Template v.1.0</tspan></text>
<text id="Generated from pencil.circle" fill="black" xml:space="preserve" style="white-space: pre" font-family="Roboto" font-size="12" letter-spacing="0em"><tspan x="2885" y="1950.1">Generated from pencil.circle</tspan></text>
<text id="Typeset at 100 points" fill="black" xml:space="preserve" style="white-space: pre" font-family="Roboto" font-size="12" letter-spacing="0em"><tspan x="2921" y="1968.1">Typeset at 100 points</tspan></text>
<text id="Small" fill="black" xml:space="preserve" style="white-space: pre" font-family="Roboto" font-size="12" letter-spacing="0em"><tspan x="263" y="725.102">Small</tspan></text>
<text id="Medium_2" fill="black" xml:space="preserve" style="white-space: pre" font-family="Roboto" font-size="12" letter-spacing="0em"><tspan x="263" y="1155.1">Medium</tspan></text>
<text id="Large" fill="black" xml:space="preserve" style="white-space: pre" font-family="Roboto" font-size="12" letter-spacing="0em"><tspan x="263" y="1585.1">Large</tspan></text>
</g>
<g id="Guides">
<g id="H-reference">
<path id="Vector_10" d="M393.932 695.998H396.666L369.566 625.539H367.076L339.977 695.998H342.662L351.94 671.535H384.703L393.932 695.998ZM368.199 628.908H368.443L383.824 669.289H352.818L368.199 628.908Z" fill="#27AAE1"/>
</g>
<path id="Baseline-S" d="M263 696H3036" stroke="#27AAE1" stroke-width="0.577"/>
<path id="Capline-S" d="M263 626H3036" stroke="#27AAE1" stroke-width="0.577"/>
<g id="H-reference_2">
<path id="Vector_11" d="M393.932 1126H396.666L369.566 1055.54H367.076L339.977 1126H342.662L351.94 1101.54H384.703L393.932 1126ZM368.199 1058.91H368.443L383.824 1099.29H352.818L368.199 1058.91Z" fill="#27AAE1"/>
</g>
<path id="Baseline-M" d="M263 1126H3036" stroke="#27AAE1" stroke-width="0.577"/>
<path id="Capline-M" d="M263 1056H3036" stroke="#27AAE1" stroke-width="0.577"/>
<g id="H-reference_3">
<path id="Vector_12" d="M393.932 1556H396.666L369.566 1485.54H367.076L339.977 1556H342.662L351.94 1531.54H384.703L393.932 1556ZM368.199 1488.91H368.443L383.824 1529.29H352.818L368.199 1488.91Z" fill="#27AAE1"/>
</g>
<g id="Group 1">
<path id="Baseline-L" d="M263 1556H3036" stroke="#27AAE1" stroke-width="0.577"/>
<path id="Capline-L" d="M263 1486H3036" stroke="#27AAE1" stroke-width="0.577"/>
</g>
<path id="left-margin" opacity="0.4" d="M1396.04 1030.79H1387.3V1150.12H1396.04V1030.79Z" fill="#00AEEF"/>
<path id="right-margin" opacity="0.4" d="M1510.39 1030.79H1501.65V1150.12H1510.39V1030.79Z" fill="#00AEEF"/>
</g>
<g id="Symbols">
<g id="Black-L">
<g id="Solid / More Vertical Solid">
<path id="Shape" fill-rule="evenodd" clip-rule="evenodd" d="M2929 1588.5C2891.72 1588.5 2861.5 1558.28 2861.5 1521C2861.5 1483.72 2891.72 1453.5 2929 1453.5C2966.28 1453.5 2996.5 1483.72 2996.5 1521C2996.5 1558.28 2966.28 1588.5 2929 1588.5ZM2919.25 1563.75C2919.25 1558.37 2923.61 1554 2929 1554C2934.38 1554 2938.75 1558.37 2938.75 1563.75C2938.75 1569.13 2934.38 1573.5 2929 1573.5C2923.61 1573.5 2919.25 1569.13 2919.25 1563.75ZM2919.25 1481.25C2919.25 1475.87 2923.61 1471.5 2929 1471.5C2934.38 1471.5 2938.75 1475.87 2938.75 1481.25C2938.75 1486.63 2934.38 1491 2929 1491C2923.61 1491 2919.25 1486.63 2919.25 1481.25ZM2919.25 1521C2919.25 1515.62 2923.62 1511.25 2929 1511.25C2934.38 1511.25 2938.75 1515.62 2938.75 1521C2938.75 1526.38 2934.38 1530.75 2929 1530.75C2923.62 1530.75 2919.25 1526.38 2919.25 1521Z" fill="black"/>
</g>
</g>
<g id="Heavy-L">
<g id="Solid / More Vertical Solid_2">
<path id="Shape_2" fill-rule="evenodd" clip-rule="evenodd" d="M2633 1588.5C2595.72 1588.5 2565.5 1558.28 2565.5 1521C2565.5 1483.72 2595.72 1453.5 2633 1453.5C2670.28 1453.5 2700.5 1483.72 2700.5 1521C2700.5 1558.28 2670.28 1588.5 2633 1588.5ZM2623.25 1563.75C2623.25 1558.37 2627.61 1554 2633 1554C2638.38 1554 2642.75 1558.37 2642.75 1563.75C2642.75 1569.13 2638.38 1573.5 2633 1573.5C2627.61 1573.5 2623.25 1569.13 2623.25 1563.75ZM2623.25 1481.25C2623.25 1475.87 2627.61 1471.5 2633 1471.5C2638.38 1471.5 2642.75 1475.87 2642.75 1481.25C2642.75 1486.63 2638.38 1491 2633 1491C2627.61 1491 2623.25 1486.63 2623.25 1481.25ZM2623.25 1521C2623.25 1515.62 2627.62 1511.25 2633 1511.25C2638.38 1511.25 2642.75 1515.62 2642.75 1521C2642.75 1526.38 2638.38 1530.75 2633 1530.75C2627.62 1530.75 2623.25 1526.38 2623.25 1521Z" fill="black"/>
</g>
</g>
<g id="Bold-L">
<g id="Solid / More Vertical Solid_3">
<path id="Shape_3" fill-rule="evenodd" clip-rule="evenodd" d="M2337 1588.5C2299.72 1588.5 2269.5 1558.28 2269.5 1521C2269.5 1483.72 2299.72 1453.5 2337 1453.5C2374.28 1453.5 2404.5 1483.72 2404.5 1521C2404.5 1558.28 2374.28 1588.5 2337 1588.5ZM2327.25 1563.75C2327.25 1558.37 2331.61 1554 2337 1554C2342.38 1554 2346.75 1558.37 2346.75 1563.75C2346.75 1569.13 2342.38 1573.5 2337 1573.5C2331.61 1573.5 2327.25 1569.13 2327.25 1563.75ZM2327.25 1481.25C2327.25 1475.87 2331.61 1471.5 2337 1471.5C2342.38 1471.5 2346.75 1475.87 2346.75 1481.25C2346.75 1486.63 2342.38 1491 2337 1491C2331.61 1491 2327.25 1486.63 2327.25 1481.25ZM2327.25 1521C2327.25 1515.62 2331.62 1511.25 2337 1511.25C2342.38 1511.25 2346.75 1515.62 2346.75 1521C2346.75 1526.38 2342.38 1530.75 2337 1530.75C2331.62 1530.75 2327.25 1526.38 2327.25 1521Z" fill="black"/>
</g>
</g>
<g id="Semibold-L">
<g id="Solid / More Vertical Solid_4">
<path id="Shape_4" fill-rule="evenodd" clip-rule="evenodd" d="M2041 1588.5C2003.72 1588.5 1973.5 1558.28 1973.5 1521C1973.5 1483.72 2003.72 1453.5 2041 1453.5C2078.28 1453.5 2108.5 1483.72 2108.5 1521C2108.5 1558.28 2078.28 1588.5 2041 1588.5ZM2031.25 1563.75C2031.25 1558.37 2035.61 1554 2041 1554C2046.38 1554 2050.75 1558.37 2050.75 1563.75C2050.75 1569.13 2046.38 1573.5 2041 1573.5C2035.61 1573.5 2031.25 1569.13 2031.25 1563.75ZM2031.25 1481.25C2031.25 1475.87 2035.61 1471.5 2041 1471.5C2046.38 1471.5 2050.75 1475.87 2050.75 1481.25C2050.75 1486.63 2046.38 1491 2041 1491C2035.61 1491 2031.25 1486.63 2031.25 1481.25ZM2031.25 1521C2031.25 1515.62 2035.62 1511.25 2041 1511.25C2046.38 1511.25 2050.75 1515.62 2050.75 1521C2050.75 1526.38 2046.38 1530.75 2041 1530.75C2035.62 1530.75 2031.25 1526.38 2031.25 1521Z" fill="black"/>
</g>
</g>
<g id="Medium-L">
<g id="Solid / More Vertical Solid_5">
<path id="Shape_5" fill-rule="evenodd" clip-rule="evenodd" d="M1745 1588.5C1707.72 1588.5 1677.5 1558.28 1677.5 1521C1677.5 1483.72 1707.72 1453.5 1745 1453.5C1782.28 1453.5 1812.5 1483.72 1812.5 1521C1812.5 1558.28 1782.28 1588.5 1745 1588.5ZM1735.25 1563.75C1735.25 1558.37 1739.61 1554 1745 1554C1750.38 1554 1754.75 1558.37 1754.75 1563.75C1754.75 1569.13 1750.38 1573.5 1745 1573.5C1739.61 1573.5 1735.25 1569.13 1735.25 1563.75ZM1735.25 1481.25C1735.25 1475.87 1739.61 1471.5 1745 1471.5C1750.38 1471.5 1754.75 1475.87 1754.75 1481.25C1754.75 1486.63 1750.38 1491 1745 1491C1739.61 1491 1735.25 1486.63 1735.25 1481.25ZM1735.25 1521C1735.25 1515.62 1739.62 1511.25 1745 1511.25C1750.38 1511.25 1754.75 1515.62 1754.75 1521C1754.75 1526.38 1750.38 1530.75 1745 1530.75C1739.62 1530.75 1735.25 1526.38 1735.25 1521Z" fill="black"/>
</g>
</g>
<g id="Regular-L">
<g id="Solid / More Vertical Solid_6">
<path id="Shape_6" fill-rule="evenodd" clip-rule="evenodd" d="M1449 1588.5C1411.72 1588.5 1381.5 1558.28 1381.5 1521C1381.5 1483.72 1411.72 1453.5 1449 1453.5C1486.28 1453.5 1516.5 1483.72 1516.5 1521C1516.5 1558.28 1486.28 1588.5 1449 1588.5ZM1439.25 1563.75C1439.25 1558.37 1443.61 1554 1449 1554C1454.38 1554 1458.75 1558.37 1458.75 1563.75C1458.75 1569.13 1454.38 1573.5 1449 1573.5C1443.61 1573.5 1439.25 1569.13 1439.25 1563.75ZM1439.25 1481.25C1439.25 1475.87 1443.61 1471.5 1449 1471.5C1454.38 1471.5 1458.75 1475.87 1458.75 1481.25C1458.75 1486.63 1454.38 1491 1449 1491C1443.61 1491 1439.25 1486.63 1439.25 1481.25ZM1439.25 1521C1439.25 1515.62 1443.62 1511.25 1449 1511.25C1454.38 1511.25 1458.75 1515.62 1458.75 1521C1458.75 1526.38 1454.38 1530.75 1449 1530.75C1443.62 1530.75 1439.25 1526.38 1439.25 1521Z" fill="black"/>
</g>
</g>
<g id="Light-L">
<g id="Solid / More Vertical Solid_7">
<path id="Shape_7" fill-rule="evenodd" clip-rule="evenodd" d="M1153 1588.5C1115.72 1588.5 1085.5 1558.28 1085.5 1521C1085.5 1483.72 1115.72 1453.5 1153 1453.5C1190.28 1453.5 1220.5 1483.72 1220.5 1521C1220.5 1558.28 1190.28 1588.5 1153 1588.5ZM1143.25 1563.75C1143.25 1558.37 1147.61 1554 1153 1554C1158.38 1554 1162.75 1558.37 1162.75 1563.75C1162.75 1569.13 1158.38 1573.5 1153 1573.5C1147.61 1573.5 1143.25 1569.13 1143.25 1563.75ZM1143.25 1481.25C1143.25 1475.87 1147.61 1471.5 1153 1471.5C1158.38 1471.5 1162.75 1475.87 1162.75 1481.25C1162.75 1486.63 1158.38 1491 1153 1491C1147.61 1491 1143.25 1486.63 1143.25 1481.25ZM1143.25 1521C1143.25 1515.62 1147.62 1511.25 1153 1511.25C1158.38 1511.25 1162.75 1515.62 1162.75 1521C1162.75 1526.38 1158.38 1530.75 1153 1530.75C1147.62 1530.75 1143.25 1526.38 1143.25 1521Z" fill="black"/>
</g>
</g>
<g id="Thin-L">
<g id="Solid / More Vertical Solid_8">
<path id="Shape_8" fill-rule="evenodd" clip-rule="evenodd" d="M857 1588.5C819.721 1588.5 789.5 1558.28 789.5 1521C789.5 1483.72 819.721 1453.5 857 1453.5C894.279 1453.5 924.5 1483.72 924.5 1521C924.5 1558.28 894.279 1588.5 857 1588.5ZM847.25 1563.75C847.25 1558.37 851.615 1554 857 1554C862.384 1554 866.75 1558.37 866.75 1563.75C866.75 1569.13 862.384 1573.5 857 1573.5C851.615 1573.5 847.25 1569.13 847.25 1563.75ZM847.25 1481.25C847.25 1475.87 851.615 1471.5 857 1471.5C862.384 1471.5 866.75 1475.87 866.75 1481.25C866.75 1486.63 862.384 1491 857 1491C851.615 1491 847.25 1486.63 847.25 1481.25ZM847.25 1521C847.25 1515.62 851.615 1511.25 857 1511.25C862.385 1511.25 866.75 1515.62 866.75 1521C866.75 1526.38 862.385 1530.75 857 1530.75C851.615 1530.75 847.25 1526.38 847.25 1521Z" fill="black"/>
</g>
</g>
<g id="Ultralight-L">
<g id="Solid / More Vertical Solid_9">
<path id="Shape_9" fill-rule="evenodd" clip-rule="evenodd" d="M561 1588.5C523.721 1588.5 493.5 1558.28 493.5 1521C493.5 1483.72 523.721 1453.5 561 1453.5C598.279 1453.5 628.5 1483.72 628.5 1521C628.5 1558.28 598.279 1588.5 561 1588.5ZM551.25 1563.75C551.25 1558.37 555.615 1554 561 1554C566.384 1554 570.75 1558.37 570.75 1563.75C570.75 1569.13 566.384 1573.5 561 1573.5C555.615 1573.5 551.25 1569.13 551.25 1563.75ZM551.25 1481.25C551.25 1475.87 555.615 1471.5 561 1471.5C566.384 1471.5 570.75 1475.87 570.75 1481.25C570.75 1486.63 566.384 1491 561 1491C555.615 1491 551.25 1486.63 551.25 1481.25ZM551.25 1521C551.25 1515.62 555.615 1511.25 561 1511.25C566.385 1511.25 570.75 1515.62 570.75 1521C570.75 1526.38 566.385 1530.75 561 1530.75C555.615 1530.75 551.25 1526.38 551.25 1521Z" fill="black"/>
</g>
</g>
<g id="Black-M">
<g id="Solid / More Vertical Solid_10">
<path id="Shape_10" fill-rule="evenodd" clip-rule="evenodd" d="M2929 1143.5C2900.01 1143.5 2876.5 1119.99 2876.5 1091C2876.5 1062.01 2900.01 1038.5 2929 1038.5C2957.99 1038.5 2981.5 1062.01 2981.5 1091C2981.5 1119.99 2957.99 1143.5 2929 1143.5ZM2921.42 1124.25C2921.42 1120.06 2924.81 1116.67 2929 1116.67C2933.19 1116.67 2936.58 1120.06 2936.58 1124.25C2936.58 1128.44 2933.19 1131.83 2929 1131.83C2924.81 1131.83 2921.42 1128.44 2921.42 1124.25ZM2921.42 1060.08C2921.42 1055.9 2924.81 1052.5 2929 1052.5C2933.19 1052.5 2936.58 1055.9 2936.58 1060.08C2936.58 1064.27 2933.19 1067.67 2929 1067.67C2924.81 1067.67 2921.42 1064.27 2921.42 1060.08ZM2921.42 1091C2921.42 1086.81 2924.81 1083.42 2929 1083.42C2933.19 1083.42 2936.58 1086.81 2936.58 1091C2936.58 1095.19 2933.19 1098.58 2929 1098.58C2924.81 1098.58 2921.42 1095.19 2921.42 1091Z" fill="black"/>
</g>
</g>
<g id="Heavy-M">
<g id="Solid / More Vertical Solid_11">
<path id="Shape_11" fill-rule="evenodd" clip-rule="evenodd" d="M2633 1143.5C2604.01 1143.5 2580.5 1119.99 2580.5 1091C2580.5 1062.01 2604.01 1038.5 2633 1038.5C2661.99 1038.5 2685.5 1062.01 2685.5 1091C2685.5 1119.99 2661.99 1143.5 2633 1143.5ZM2625.42 1124.25C2625.42 1120.06 2628.81 1116.67 2633 1116.67C2637.19 1116.67 2640.58 1120.06 2640.58 1124.25C2640.58 1128.44 2637.19 1131.83 2633 1131.83C2628.81 1131.83 2625.42 1128.44 2625.42 1124.25ZM2625.42 1060.08C2625.42 1055.9 2628.81 1052.5 2633 1052.5C2637.19 1052.5 2640.58 1055.9 2640.58 1060.08C2640.58 1064.27 2637.19 1067.67 2633 1067.67C2628.81 1067.67 2625.42 1064.27 2625.42 1060.08ZM2625.42 1091C2625.42 1086.81 2628.81 1083.42 2633 1083.42C2637.19 1083.42 2640.58 1086.81 2640.58 1091C2640.58 1095.19 2637.19 1098.58 2633 1098.58C2628.81 1098.58 2625.42 1095.19 2625.42 1091Z" fill="black"/>
</g>
</g>
<g id="Bold-M">
<g id="Solid / More Vertical Solid_12">
<path id="Shape_12" fill-rule="evenodd" clip-rule="evenodd" d="M2337 1143.5C2308.01 1143.5 2284.5 1119.99 2284.5 1091C2284.5 1062.01 2308.01 1038.5 2337 1038.5C2365.99 1038.5 2389.5 1062.01 2389.5 1091C2389.5 1119.99 2365.99 1143.5 2337 1143.5ZM2329.42 1124.25C2329.42 1120.06 2332.81 1116.67 2337 1116.67C2341.19 1116.67 2344.58 1120.06 2344.58 1124.25C2344.58 1128.44 2341.19 1131.83 2337 1131.83C2332.81 1131.83 2329.42 1128.44 2329.42 1124.25ZM2329.42 1060.08C2329.42 1055.9 2332.81 1052.5 2337 1052.5C2341.19 1052.5 2344.58 1055.9 2344.58 1060.08C2344.58 1064.27 2341.19 1067.67 2337 1067.67C2332.81 1067.67 2329.42 1064.27 2329.42 1060.08ZM2329.42 1091C2329.42 1086.81 2332.81 1083.42 2337 1083.42C2341.19 1083.42 2344.58 1086.81 2344.58 1091C2344.58 1095.19 2341.19 1098.58 2337 1098.58C2332.81 1098.58 2329.42 1095.19 2329.42 1091Z" fill="black"/>
</g>
</g>
<g id="Semibold-M">
<g id="Solid / More Vertical Solid_13">
<path id="Shape_13" fill-rule="evenodd" clip-rule="evenodd" d="M2041 1143.5C2012.01 1143.5 1988.5 1119.99 1988.5 1091C1988.5 1062.01 2012.01 1038.5 2041 1038.5C2069.99 1038.5 2093.5 1062.01 2093.5 1091C2093.5 1119.99 2069.99 1143.5 2041 1143.5ZM2033.42 1124.25C2033.42 1120.06 2036.81 1116.67 2041 1116.67C2045.19 1116.67 2048.58 1120.06 2048.58 1124.25C2048.58 1128.44 2045.19 1131.83 2041 1131.83C2036.81 1131.83 2033.42 1128.44 2033.42 1124.25ZM2033.42 1060.08C2033.42 1055.9 2036.81 1052.5 2041 1052.5C2045.19 1052.5 2048.58 1055.9 2048.58 1060.08C2048.58 1064.27 2045.19 1067.67 2041 1067.67C2036.81 1067.67 2033.42 1064.27 2033.42 1060.08ZM2033.42 1091C2033.42 1086.81 2036.81 1083.42 2041 1083.42C2045.19 1083.42 2048.58 1086.81 2048.58 1091C2048.58 1095.19 2045.19 1098.58 2041 1098.58C2036.81 1098.58 2033.42 1095.19 2033.42 1091Z" fill="black"/>
</g>
</g>
<g id="Medium-M">
<g id="Solid / More Vertical Solid_14">
<path id="Shape_14" fill-rule="evenodd" clip-rule="evenodd" d="M1745 1143.5C1716.01 1143.5 1692.5 1119.99 1692.5 1091C1692.5 1062.01 1716.01 1038.5 1745 1038.5C1773.99 1038.5 1797.5 1062.01 1797.5 1091C1797.5 1119.99 1773.99 1143.5 1745 1143.5ZM1737.42 1124.25C1737.42 1120.06 1740.81 1116.67 1745 1116.67C1749.19 1116.67 1752.58 1120.06 1752.58 1124.25C1752.58 1128.44 1749.19 1131.83 1745 1131.83C1740.81 1131.83 1737.42 1128.44 1737.42 1124.25ZM1737.42 1060.08C1737.42 1055.9 1740.81 1052.5 1745 1052.5C1749.19 1052.5 1752.58 1055.9 1752.58 1060.08C1752.58 1064.27 1749.19 1067.67 1745 1067.67C1740.81 1067.67 1737.42 1064.27 1737.42 1060.08ZM1737.42 1091C1737.42 1086.81 1740.81 1083.42 1745 1083.42C1749.19 1083.42 1752.58 1086.81 1752.58 1091C1752.58 1095.19 1749.19 1098.58 1745 1098.58C1740.81 1098.58 1737.42 1095.19 1737.42 1091Z" fill="black"/>
</g>
</g>
<g id="Regular-M">
<g id="Solid / More Vertical Solid_15">
<path id="Shape_15" fill-rule="evenodd" clip-rule="evenodd" d="M1449 1143.5C1420.01 1143.5 1396.5 1119.99 1396.5 1091C1396.5 1062.01 1420.01 1038.5 1449 1038.5C1477.99 1038.5 1501.5 1062.01 1501.5 1091C1501.5 1119.99 1477.99 1143.5 1449 1143.5ZM1441.42 1124.25C1441.42 1120.06 1444.81 1116.67 1449 1116.67C1453.19 1116.67 1456.58 1120.06 1456.58 1124.25C1456.58 1128.44 1453.19 1131.83 1449 1131.83C1444.81 1131.83 1441.42 1128.44 1441.42 1124.25ZM1441.42 1060.08C1441.42 1055.9 1444.81 1052.5 1449 1052.5C1453.19 1052.5 1456.58 1055.9 1456.58 1060.08C1456.58 1064.27 1453.19 1067.67 1449 1067.67C1444.81 1067.67 1441.42 1064.27 1441.42 1060.08ZM1441.42 1091C1441.42 1086.81 1444.81 1083.42 1449 1083.42C1453.19 1083.42 1456.58 1086.81 1456.58 1091C1456.58 1095.19 1453.19 1098.58 1449 1098.58C1444.81 1098.58 1441.42 1095.19 1441.42 1091Z" fill="black"/>
</g>
</g>
<g id="Light-M">
<g id="Solid / More Vertical Solid_16">
<path id="Shape_16" fill-rule="evenodd" clip-rule="evenodd" d="M1153 1143.5C1124.01 1143.5 1100.5 1119.99 1100.5 1091C1100.5 1062.01 1124.01 1038.5 1153 1038.5C1181.99 1038.5 1205.5 1062.01 1205.5 1091C1205.5 1119.99 1181.99 1143.5 1153 1143.5ZM1145.42 1124.25C1145.42 1120.06 1148.81 1116.67 1153 1116.67C1157.19 1116.67 1160.58 1120.06 1160.58 1124.25C1160.58 1128.44 1157.19 1131.83 1153 1131.83C1148.81 1131.83 1145.42 1128.44 1145.42 1124.25ZM1145.42 1060.08C1145.42 1055.9 1148.81 1052.5 1153 1052.5C1157.19 1052.5 1160.58 1055.9 1160.58 1060.08C1160.58 1064.27 1157.19 1067.67 1153 1067.67C1148.81 1067.67 1145.42 1064.27 1145.42 1060.08ZM1145.42 1091C1145.42 1086.81 1148.81 1083.42 1153 1083.42C1157.19 1083.42 1160.58 1086.81 1160.58 1091C1160.58 1095.19 1157.19 1098.58 1153 1098.58C1148.81 1098.58 1145.42 1095.19 1145.42 1091Z" fill="black"/>
</g>
</g>
<g id="Thin-M">
<g id="Solid / More Vertical Solid_17">
<path id="Shape_17" fill-rule="evenodd" clip-rule="evenodd" d="M857 1143.5C828.005 1143.5 804.5 1119.99 804.5 1091C804.5 1062.01 828.005 1038.5 857 1038.5C885.995 1038.5 909.5 1062.01 909.5 1091C909.5 1119.99 885.995 1143.5 857 1143.5ZM849.416 1124.25C849.416 1120.06 852.812 1116.67 857 1116.67C861.188 1116.67 864.583 1120.06 864.583 1124.25C864.583 1128.44 861.188 1131.83 857 1131.83C852.812 1131.83 849.416 1128.44 849.416 1124.25ZM849.416 1060.08C849.416 1055.9 852.812 1052.5 857 1052.5C861.188 1052.5 864.583 1055.9 864.583 1060.08C864.583 1064.27 861.188 1067.67 857 1067.67C852.812 1067.67 849.416 1064.27 849.416 1060.08ZM849.417 1091C849.417 1086.81 852.812 1083.42 857 1083.42C861.188 1083.42 864.583 1086.81 864.583 1091C864.583 1095.19 861.188 1098.58 857 1098.58C852.812 1098.58 849.417 1095.19 849.417 1091Z" fill="black"/>
</g>
</g>
<g id="Ultralight-M">
<g id="Solid / More Vertical Solid_18">
<path id="Shape_18" fill-rule="evenodd" clip-rule="evenodd" d="M561 1143.5C532.005 1143.5 508.5 1119.99 508.5 1091C508.5 1062.01 532.005 1038.5 561 1038.5C589.995 1038.5 613.5 1062.01 613.5 1091C613.5 1119.99 589.995 1143.5 561 1143.5ZM553.416 1124.25C553.416 1120.06 556.812 1116.67 561 1116.67C565.188 1116.67 568.583 1120.06 568.583 1124.25C568.583 1128.44 565.188 1131.83 561 1131.83C556.812 1131.83 553.416 1128.44 553.416 1124.25ZM553.416 1060.08C553.416 1055.9 556.812 1052.5 561 1052.5C565.188 1052.5 568.583 1055.9 568.583 1060.08C568.583 1064.27 565.188 1067.67 561 1067.67C556.812 1067.67 553.416 1064.27 553.416 1060.08ZM553.417 1091C553.417 1086.81 556.812 1083.42 561 1083.42C565.188 1083.42 568.583 1086.81 568.583 1091C568.583 1095.19 565.188 1098.58 561 1098.58C556.812 1098.58 553.417 1095.19 553.417 1091Z" fill="black"/>
</g>
</g>
<g id="Black-S">
<g id="Solid / More Vertical Solid_19">
<path id="Shape_19" fill-rule="evenodd" clip-rule="evenodd" d="M2929 698.5C2908.29 698.5 2891.5 681.711 2891.5 661C2891.5 640.289 2908.29 623.5 2929 623.5C2949.71 623.5 2966.5 640.289 2966.5 661C2966.5 681.711 2949.71 698.5 2929 698.5ZM2923.58 684.75C2923.58 681.758 2926.01 679.333 2929 679.333C2931.99 679.333 2934.42 681.758 2934.42 684.75C2934.42 687.742 2931.99 690.167 2929 690.167C2926.01 690.167 2923.58 687.742 2923.58 684.75ZM2923.58 638.917C2923.58 635.925 2926.01 633.5 2929 633.5C2931.99 633.5 2934.42 635.925 2934.42 638.917C2934.42 641.908 2931.99 644.333 2929 644.333C2926.01 644.333 2923.58 641.908 2923.58 638.917ZM2923.58 661C2923.58 658.008 2926.01 655.583 2929 655.583C2931.99 655.583 2934.42 658.008 2934.42 661C2934.42 663.992 2931.99 666.417 2929 666.417C2926.01 666.417 2923.58 663.992 2923.58 661Z" fill="black"/>
</g>
</g>
<g id="Heavy-S">
<g id="Solid / More Vertical Solid_20">
<path id="Shape_20" fill-rule="evenodd" clip-rule="evenodd" d="M2633 698.5C2612.29 698.5 2595.5 681.711 2595.5 661C2595.5 640.289 2612.29 623.5 2633 623.5C2653.71 623.5 2670.5 640.289 2670.5 661C2670.5 681.711 2653.71 698.5 2633 698.5ZM2627.58 684.75C2627.58 681.758 2630.01 679.333 2633 679.333C2635.99 679.333 2638.42 681.758 2638.42 684.75C2638.42 687.742 2635.99 690.167 2633 690.167C2630.01 690.167 2627.58 687.742 2627.58 684.75ZM2627.58 638.917C2627.58 635.925 2630.01 633.5 2633 633.5C2635.99 633.5 2638.42 635.925 2638.42 638.917C2638.42 641.908 2635.99 644.333 2633 644.333C2630.01 644.333 2627.58 641.908 2627.58 638.917ZM2627.58 661C2627.58 658.008 2630.01 655.583 2633 655.583C2635.99 655.583 2638.42 658.008 2638.42 661C2638.42 663.992 2635.99 666.417 2633 666.417C2630.01 666.417 2627.58 663.992 2627.58 661Z" fill="black"/>
</g>
</g>
<g id="Bold-S">
<g id="Solid / More Vertical Solid_21">
<path id="Shape_21" fill-rule="evenodd" clip-rule="evenodd" d="M2337 698.5C2316.29 698.5 2299.5 681.711 2299.5 661C2299.5 640.289 2316.29 623.5 2337 623.5C2357.71 623.5 2374.5 640.289 2374.5 661C2374.5 681.711 2357.71 698.5 2337 698.5ZM2331.58 684.75C2331.58 681.758 2334.01 679.333 2337 679.333C2339.99 679.333 2342.42 681.758 2342.42 684.75C2342.42 687.742 2339.99 690.167 2337 690.167C2334.01 690.167 2331.58 687.742 2331.58 684.75ZM2331.58 638.917C2331.58 635.925 2334.01 633.5 2337 633.5C2339.99 633.5 2342.42 635.925 2342.42 638.917C2342.42 641.908 2339.99 644.333 2337 644.333C2334.01 644.333 2331.58 641.908 2331.58 638.917ZM2331.58 661C2331.58 658.008 2334.01 655.583 2337 655.583C2339.99 655.583 2342.42 658.008 2342.42 661C2342.42 663.992 2339.99 666.417 2337 666.417C2334.01 666.417 2331.58 663.992 2331.58 661Z" fill="black"/>
</g>
</g>
<g id="Semibold-S">
<g id="Solid / More Vertical Solid_22">
<path id="Shape_22" fill-rule="evenodd" clip-rule="evenodd" d="M2041 698.5C2020.29 698.5 2003.5 681.711 2003.5 661C2003.5 640.289 2020.29 623.5 2041 623.5C2061.71 623.5 2078.5 640.289 2078.5 661C2078.5 681.711 2061.71 698.5 2041 698.5ZM2035.58 684.75C2035.58 681.758 2038.01 679.333 2041 679.333C2043.99 679.333 2046.42 681.758 2046.42 684.75C2046.42 687.742 2043.99 690.167 2041 690.167C2038.01 690.167 2035.58 687.742 2035.58 684.75ZM2035.58 638.917C2035.58 635.925 2038.01 633.5 2041 633.5C2043.99 633.5 2046.42 635.925 2046.42 638.917C2046.42 641.908 2043.99 644.333 2041 644.333C2038.01 644.333 2035.58 641.908 2035.58 638.917ZM2035.58 661C2035.58 658.008 2038.01 655.583 2041 655.583C2043.99 655.583 2046.42 658.008 2046.42 661C2046.42 663.992 2043.99 666.417 2041 666.417C2038.01 666.417 2035.58 663.992 2035.58 661Z" fill="black"/>
</g>
</g>
<g id="Medium-S">
<g id="Solid / More Vertical Solid_23">
<path id="Shape_23" fill-rule="evenodd" clip-rule="evenodd" d="M1745 698.5C1724.29 698.5 1707.5 681.711 1707.5 661C1707.5 640.289 1724.29 623.5 1745 623.5C1765.71 623.5 1782.5 640.289 1782.5 661C1782.5 681.711 1765.71 698.5 1745 698.5ZM1739.58 684.75C1739.58 681.758 1742.01 679.333 1745 679.333C1747.99 679.333 1750.42 681.758 1750.42 684.75C1750.42 687.742 1747.99 690.167 1745 690.167C1742.01 690.167 1739.58 687.742 1739.58 684.75ZM1739.58 638.917C1739.58 635.925 1742.01 633.5 1745 633.5C1747.99 633.5 1750.42 635.925 1750.42 638.917C1750.42 641.908 1747.99 644.333 1745 644.333C1742.01 644.333 1739.58 641.908 1739.58 638.917ZM1739.58 661C1739.58 658.008 1742.01 655.583 1745 655.583C1747.99 655.583 1750.42 658.008 1750.42 661C1750.42 663.992 1747.99 666.417 1745 666.417C1742.01 666.417 1739.58 663.992 1739.58 661Z" fill="black"/>
</g>
</g>
<g id="Regular-S">
<g id="Solid / More Vertical Solid_24">
<path id="Shape_24" fill-rule="evenodd" clip-rule="evenodd" d="M1449 698.5C1428.29 698.5 1411.5 681.711 1411.5 661C1411.5 640.289 1428.29 623.5 1449 623.5C1469.71 623.5 1486.5 640.289 1486.5 661C1486.5 681.711 1469.71 698.5 1449 698.5ZM1443.58 684.75C1443.58 681.758 1446.01 679.333 1449 679.333C1451.99 679.333 1454.42 681.758 1454.42 684.75C1454.42 687.742 1451.99 690.167 1449 690.167C1446.01 690.167 1443.58 687.742 1443.58 684.75ZM1443.58 638.917C1443.58 635.925 1446.01 633.5 1449 633.5C1451.99 633.5 1454.42 635.925 1454.42 638.917C1454.42 641.908 1451.99 644.333 1449 644.333C1446.01 644.333 1443.58 641.908 1443.58 638.917ZM1443.58 661C1443.58 658.008 1446.01 655.583 1449 655.583C1451.99 655.583 1454.42 658.008 1454.42 661C1454.42 663.992 1451.99 666.417 1449 666.417C1446.01 666.417 1443.58 663.992 1443.58 661Z" fill="black"/>
</g>
</g>
<g id="Light-S">
<g id="Solid / More Vertical Solid_25">
<path id="Shape_25" fill-rule="evenodd" clip-rule="evenodd" d="M1153 698.5C1132.29 698.5 1115.5 681.711 1115.5 661C1115.5 640.289 1132.29 623.5 1153 623.5C1173.71 623.5 1190.5 640.289 1190.5 661C1190.5 681.711 1173.71 698.5 1153 698.5ZM1147.58 684.75C1147.58 681.758 1150.01 679.333 1153 679.333C1155.99 679.333 1158.42 681.758 1158.42 684.75C1158.42 687.742 1155.99 690.167 1153 690.167C1150.01 690.167 1147.58 687.742 1147.58 684.75ZM1147.58 638.917C1147.58 635.925 1150.01 633.5 1153 633.5C1155.99 633.5 1158.42 635.925 1158.42 638.917C1158.42 641.908 1155.99 644.333 1153 644.333C1150.01 644.333 1147.58 641.908 1147.58 638.917ZM1147.58 661C1147.58 658.008 1150.01 655.583 1153 655.583C1155.99 655.583 1158.42 658.008 1158.42 661C1158.42 663.992 1155.99 666.417 1153 666.417C1150.01 666.417 1147.58 663.992 1147.58 661Z" fill="black"/>
</g>
</g>
<g id="Thin-S">
<g id="Solid / More Vertical Solid_26">
<path id="Shape_26" fill-rule="evenodd" clip-rule="evenodd" d="M857 698.5C836.289 698.5 819.5 681.711 819.5 661C819.5 640.289 836.289 623.5 857 623.5C877.711 623.5 894.5 640.289 894.5 661C894.5 681.711 877.711 698.5 857 698.5ZM851.583 684.75C851.583 681.758 854.008 679.333 857 679.333C859.991 679.333 862.416 681.758 862.416 684.75C862.416 687.742 859.991 690.167 857 690.167C854.008 690.167 851.583 687.742 851.583 684.75ZM851.583 638.917C851.583 635.925 854.008 633.5 857 633.5C859.991 633.5 862.416 635.925 862.416 638.917C862.416 641.908 859.991 644.333 857 644.333C854.008 644.333 851.583 641.908 851.583 638.917ZM851.583 661C851.583 658.008 854.009 655.583 857 655.583C859.992 655.583 862.417 658.008 862.417 661C862.417 663.992 859.992 666.417 857 666.417C854.009 666.417 851.583 663.992 851.583 661Z" fill="black"/>
</g>
</g>
<g id="Ultralight-S">
<g id="Solid / More Vertical Solid_27">
<path id="Shape_27" fill-rule="evenodd" clip-rule="evenodd" d="M561 698.5C540.289 698.5 523.5 681.711 523.5 661C523.5 640.289 540.289 623.5 561 623.5C581.711 623.5 598.5 640.289 598.5 661C598.5 681.711 581.711 698.5 561 698.5ZM555.583 684.75C555.583 681.758 558.008 679.333 561 679.333C563.991 679.333 566.416 681.758 566.416 684.75C566.416 687.742 563.991 690.167 561 690.167C558.008 690.167 555.583 687.742 555.583 684.75ZM555.583 638.917C555.583 635.925 558.008 633.5 561 633.5C563.991 633.5 566.416 635.925 566.416 638.917C566.416 641.908 563.991 644.333 561 644.333C558.008 644.333 555.583 641.908 555.583 638.917ZM555.583 661C555.583 658.008 558.009 655.583 561 655.583C563.992 655.583 566.417 658.008 566.417 661C566.417 663.992 563.992 666.417 561 666.417C558.009 666.417 555.583 663.992 555.583 661Z" fill="black"/>
</g>
</g>
</g>
</g>
<defs>
<clipPath id="clip0_805_27002">
<rect width="3300" height="2200" fill="white"/>
</clipPath>
</defs>
</svg>
